M48
;DRILL file {ce-cad} — microduck_imu_to_dxl
;FORMAT={-:-/ absolute / metric / decimal}
;TYPE=PLATED
FMAT,2
METRIC
T1C0.300
T2C0.900
%
G90
G05
T1
X2.474Y19.500
X20.950Y5.150
X10.727Y18.500
X14.377Y18.400
X18.227Y18.500
X19.727Y16.500
X29.227Y16.500
X17.727Y14.000
X24.000Y7.327
X17.727Y9.500
X13.400Y21.300
X10.607Y20.506
X8.485Y12.728
X8.485Y21.567
X11.314Y15.910
X6.364Y22.627
X5.657Y19.092
X14.849Y23.335
X14.496Y10.253
X24.042Y13.435
X9.546Y12.374
X3.536Y21.567
X6.010Y12.021
X18.738Y6.364
X18.385Y8.132
X26.870Y8.132
X11.667Y7.425
X22.274Y12.728
X5.303Y12.728
X9.192Y13.435
X9.192Y16.971
X11.667Y18.385
X14.496Y18.385
X22.981Y15.910
X22.627Y10.607
X22.981Y13.435
X24.395Y12.374
X27.577Y15.556
X21.567Y5.303
X2.828Y15.203
T2
X5.500Y2.600
X8.000Y2.600
X10.500Y2.600
X22.500Y2.600
X25.000Y2.600
X27.500Y2.600
X28.500Y21.400
X26.000Y21.400
X23.500Y21.400
T0
M30
