%FSLAX46Y46*%
%MOMM*%
%TF.GenerationSoftware,ce-cad,cecad.pcbfab,1.0*%
%TF.FileFunction,Copper,L1,Top*%
%TF.FilePolarity,Positive*%
%TF.ProjectId,microduck_imu_to_dxl,,*%
G04 layer F.Cu — ce-cad*
G04 numbers in this file are TRANSCRIBED, not measured; see README.txt*
%LPD*%
G01*
%ADD10R,0.475000X0.250000*%
%ADD11R,0.250000X0.475000*%
%ADD12R,1.654349X0.380767*%
%ADD13R,0.550000X0.750000*%
%ADD14R,1.454488X0.572132*%
%ADD15R,1.500000X1.500000*%
%ADD16C,1.500000*%
%ADD17R,0.957625X0.912132*%
%ADD18R,1.057314X1.362132*%
%ADD19R,0.912132X0.957625*%
%ADD20C,0.250000*%
%ADD21C,0.400000*%
%ADD22C,0.150000*%
%ADD23C,0.800000*%
D10*
X22837500Y14250000D03*
D10*
X22837500Y13750000D03*
D10*
X22837500Y13250000D03*
D10*
X22837500Y12750000D03*
D11*
X23500000Y12587500D03*
D11*
X24000000Y12587500D03*
D11*
X24500000Y12587500D03*
D10*
X25162500Y12750000D03*
D10*
X25162500Y13250000D03*
D10*
X25162500Y13750000D03*
D10*
X25162500Y14250000D03*
D11*
X24500000Y14412500D03*
D11*
X24000000Y14412500D03*
D11*
X23500000Y14412500D03*
D12*
X7174074Y15925000D03*
D12*
X7174074Y15275000D03*
D12*
X7174074Y14625000D03*
D12*
X7174074Y13975000D03*
D12*
X7174074Y13325000D03*
D12*
X7174074Y12675000D03*
D12*
X7174074Y12025000D03*
D12*
X7174074Y11375000D03*
D12*
X7174074Y10725000D03*
D12*
X7174074Y10075000D03*
D12*
X12825926Y10075000D03*
D12*
X12825926Y10725000D03*
D12*
X12825926Y11375000D03*
D12*
X12825926Y12025000D03*
D12*
X12825926Y12675000D03*
D12*
X12825926Y13325000D03*
D12*
X12825926Y13975000D03*
D12*
X12825926Y14625000D03*
D12*
X12825926Y15275000D03*
D12*
X12825926Y15925000D03*
D13*
X19050000Y6250000D03*
D13*
X20000000Y6250000D03*
D13*
X20950000Y6250000D03*
D13*
X20950000Y8950000D03*
D13*
X19050000Y8950000D03*
D14*
X3874143Y20450000D03*
D14*
X3874143Y19500000D03*
D14*
X3874143Y18550000D03*
D14*
X6125857Y19025000D03*
D14*
X6125857Y19975000D03*
D15*
X5500000Y2600000D03*
D16*
X8000000Y2600000D03*
D16*
X10500000Y2600000D03*
D15*
X22500000Y2600000D03*
D16*
X25000000Y2600000D03*
D16*
X27500000Y2600000D03*
D15*
X28500000Y21400000D03*
D16*
X26000000Y21400000D03*
D16*
X23500000Y21400000D03*
D17*
X9272747Y19500000D03*
D17*
X10727253Y19500000D03*
D18*
X12622591Y19500000D03*
D18*
X14377409Y19500000D03*
D17*
X16772747Y19500000D03*
D17*
X18227253Y19500000D03*
D17*
X19272747Y16500000D03*
D17*
X20727253Y16500000D03*
D17*
X26772747Y16500000D03*
D17*
X28227253Y16500000D03*
D17*
X16272747Y13000000D03*
D17*
X17727253Y13000000D03*
D19*
X24000000Y6872747D03*
D19*
X24000000Y8327253D03*
D17*
X16272747Y10500000D03*
D17*
X17727253Y10500000D03*
D17*
X15272747Y6200000D03*
D17*
X16727253Y6200000D03*
D19*
X27000000Y6872747D03*
D19*
X27000000Y8327253D03*
D16*
X3000000Y22500000D03*
D16*
X5600000Y22500000D03*
D16*
X8200000Y22500000D03*
D16*
X10800000Y22500000D03*
D16*
X13400000Y22500000D03*
D20*
X3874143Y19500000D02*
X2474143Y19500000D01*
D20*
X20950000Y6250000D02*
X20950000Y5150000D01*
D20*
X10727253Y19500000D02*
X10727253Y18500000D01*
D20*
X14377409Y19500000D02*
X14377409Y18400000D01*
D20*
X18227253Y19500000D02*
X18227253Y18500000D01*
D20*
X20727253Y16500000D02*
X19727253Y16500000D01*
D20*
X28227253Y16500000D02*
X29227253Y16500000D01*
D20*
X17727253Y13000000D02*
X17727253Y14000000D01*
D20*
X24000000Y8327253D02*
X24000000Y7327253D01*
D20*
X17727253Y10500000D02*
X17727253Y9500000D01*
D20*
X13400000Y22500000D02*
X13400000Y21300000D01*
D21*
X6125857Y19975000D02*
X7071068Y20506097D01*
X9192388Y20506097D01*
X9899495Y21213203D01*
X10800000Y22500000D01*
D21*
X10800000Y22500000D02*
X11313708Y21213203D01*
X12020815Y20506097D01*
X12622591Y19500000D01*
D21*
X12622591Y19500000D02*
X12727922Y18384776D01*
X8485281Y14142136D01*
X7174074Y13975000D01*
D21*
X8000000Y2600000D02*
X7778175Y3535534D01*
X4242641Y7071068D01*
X4242641Y17677670D01*
X3874143Y18550000D01*
D21*
X12622591Y19500000D02*
X12727922Y18384776D01*
X15556349Y15556349D01*
X15556349Y13435029D01*
X16272747Y13000000D01*
D21*
X3874143Y18550000D02*
X4949747Y18384776D01*
X7778175Y18384776D01*
X8485281Y19091883D01*
X9272747Y19500000D01*
D21*
X3874143Y18550000D02*
X4949747Y18384776D01*
X4949747Y20506097D01*
X3874143Y20450000D01*
D21*
X9272747Y19500000D02*
X9899495Y20506097D01*
X10606602Y20506097D01*
D22*
X10500000Y2600000D02*
X11313708Y3535534D01*
X14142136Y3535534D01*
X16263456Y5656854D01*
X16727253Y6200000D01*
D22*
X20950000Y8950000D02*
X20506097Y8485281D01*
X19091883Y7071068D01*
X15909903Y7071068D01*
X15556349Y6717514D01*
X15272747Y6200000D01*
D22*
X16727253Y6200000D02*
X17324116Y5656854D01*
X18738330Y4242641D01*
X24041631Y4242641D01*
X26516504Y6717514D01*
X27000000Y6872747D01*
D22*
X7174074Y12675000D02*
X8131728Y12727922D01*
X11313708Y9545942D01*
X14849242Y9545942D01*
X15556349Y10253048D01*
X16272747Y10500000D01*
D22*
X7174074Y12675000D02*
X8131728Y12727922D01*
X8485281Y12727922D01*
D22*
X8485281Y21566757D02*
X8200000Y22500000D01*
D22*
X12825926Y15275000D02*
X11667262Y15556349D01*
X11313708Y15909903D01*
D22*
X6363961Y22627417D02*
X5600000Y22500000D01*
D22*
X27000000Y6872747D02*
X27223611Y6363961D01*
X27223611Y3535534D01*
X27500000Y2600000D01*
D22*
X12825926Y11375000D02*
X13788582Y11667262D01*
X19798990Y11667262D01*
X22273864Y14142136D01*
X22837500Y14250000D01*
D22*
X6125857Y19025000D02*
X5656854Y19091883D01*
D22*
X14849242Y23334524D02*
X16617009Y21566757D01*
X16617009Y20152543D01*
X16772747Y19500000D01*
D22*
X12825926Y12025000D02*
X13788582Y12020815D01*
X19445436Y12020815D01*
X22273864Y14849242D01*
X23334524Y14849242D01*
X23500000Y14412500D01*
D22*
X12825926Y10725000D02*
X13788582Y10606602D01*
X14495689Y11313708D01*
X24748737Y11313708D01*
X25809398Y12374369D01*
X25809398Y14849242D01*
X24041631Y14849242D01*
X24000000Y14412500D01*
D22*
X12825926Y10075000D02*
X13788582Y10253048D01*
X14495689Y10253048D01*
D22*
X24041631Y13435029D02*
X24748737Y14142136D01*
X24500000Y14412500D01*
D22*
X12825926Y14625000D02*
X11667262Y14495689D01*
X9545942Y12374369D01*
D22*
X3535534Y21566757D02*
X3000000Y22500000D01*
D22*
X7174074Y12025000D02*
X6010408Y12020815D01*
D22*
X18738330Y6363961D02*
X19050000Y6250000D01*
D22*
X7174074Y10725000D02*
X8131728Y10960155D01*
X10253048Y8838835D01*
X18384776Y8838835D01*
X18384776Y9545942D01*
X21566757Y9545942D01*
X21566757Y8131728D01*
X20152543Y6717514D01*
X20000000Y6250000D01*
D22*
X27000000Y6872747D02*
X26516504Y7424621D01*
X26162951Y7424621D01*
X26162951Y15556349D01*
X24041631Y17677670D01*
X24041631Y20506097D01*
X23500000Y21400000D01*
D22*
X7174074Y10075000D02*
X8131728Y9899495D01*
X9899495Y8131728D01*
X18384776Y8131728D01*
D22*
X26870058Y8131728D02*
X27000000Y8327253D01*
D22*
X7174074Y11375000D02*
X6010408Y11313708D01*
X6010408Y9545942D01*
X8131728Y7424621D01*
X11667262Y7424621D01*
D22*
X22273864Y12727922D02*
X22837500Y12750000D01*
D22*
X5303301Y12727922D02*
X6010408Y13435029D01*
X7174074Y13325000D01*
D22*
X7174074Y13325000D02*
X8131728Y13435029D01*
X9192388Y13435029D01*
D22*
X9192388Y16970563D02*
X10606602Y18384776D01*
X10727253Y18500000D01*
D22*
X10727253Y19500000D02*
X11313708Y18738330D01*
X11667262Y18384776D01*
D22*
X14495689Y18384776D02*
X14377409Y18400000D01*
D22*
X14377409Y19500000D02*
X14142136Y20506097D01*
X13435029Y21213203D01*
X13400000Y21300000D01*
D22*
X14377409Y19500000D02*
X15202796Y18738330D01*
X15556349Y18384776D01*
X18384776Y18384776D01*
X18227253Y18500000D01*
D22*
X18227253Y18500000D02*
X18384776Y18384776D01*
X18384776Y13435029D01*
X17727253Y13000000D01*
D22*
X17727253Y13000000D02*
X18384776Y13435029D01*
X20152543Y15202796D01*
X20152543Y15909903D01*
X20727253Y16500000D01*
D22*
X20727253Y16500000D02*
X21213203Y15909903D01*
X22980970Y15909903D01*
D22*
X22627417Y10606602D02*
X18384776Y10606602D01*
X17727253Y10500000D01*
D22*
X22980970Y13435029D02*
X22837500Y13750000D01*
D22*
X24395184Y12374369D02*
X24000000Y12587500D01*
D22*
X22627417Y10606602D02*
X22627417Y9899495D01*
X24041631Y8485281D01*
X24000000Y8327253D01*
D22*
X24000000Y8327253D02*
X23334524Y7778175D01*
X22273864Y7778175D01*
X21213203Y6717514D01*
X20950000Y6250000D01*
D22*
X27577164Y15556349D02*
X27577164Y15909903D01*
X28227253Y16500000D01*
D22*
X20950000Y6250000D02*
X21213203Y5656854D01*
X21566757Y5303301D01*
D22*
X28227253Y16500000D02*
X27930718Y16970563D01*
X27930718Y20506097D01*
X28500000Y21400000D01*
D22*
X2828427Y15202796D02*
X2828427Y19091883D01*
X3874143Y19500000D01*
D23*
X2474143Y19500000D03*
D23*
X20950000Y5150000D03*
D23*
X10727253Y18500000D03*
D23*
X14377409Y18400000D03*
D23*
X18227253Y18500000D03*
D23*
X19727253Y16500000D03*
D23*
X29227253Y16500000D03*
D23*
X17727253Y14000000D03*
D23*
X24000000Y7327253D03*
D23*
X17727253Y9500000D03*
D23*
X13400000Y21300000D03*
D23*
X10606602Y20506097D03*
D23*
X8485281Y12727922D03*
D23*
X8485281Y21566757D03*
D23*
X11313708Y15909903D03*
D23*
X6363961Y22627417D03*
D23*
X5656854Y19091883D03*
D23*
X14849242Y23334524D03*
D23*
X14495689Y10253048D03*
D23*
X24041631Y13435029D03*
D23*
X9545942Y12374369D03*
D23*
X3535534Y21566757D03*
D23*
X6010408Y12020815D03*
D23*
X18738330Y6363961D03*
D23*
X18384776Y8131728D03*
D23*
X26870058Y8131728D03*
D23*
X11667262Y7424621D03*
D23*
X22273864Y12727922D03*
D23*
X5303301Y12727922D03*
D23*
X9192388Y13435029D03*
D23*
X9192388Y16970563D03*
D23*
X11667262Y18384776D03*
D23*
X14495689Y18384776D03*
D23*
X22980970Y15909903D03*
D23*
X22627417Y10606602D03*
D23*
X22980970Y13435029D03*
D23*
X24395184Y12374369D03*
D23*
X27577164Y15556349D03*
D23*
X21566757Y5303301D03*
D23*
X2828427Y15202796D03*
M02*
