%FSLAX46Y46*%
%MOMM*%
%TF.GenerationSoftware,ce-cad,cecad.pcbfab,1.0*%
%TF.FileFunction,Soldermask,Top*%
%TF.FilePolarity,Positive*%
%TF.ProjectId,microduck_imu_to_dxl,,*%
G04 layer F.Mask — ce-cad*
G04 numbers in this file are TRANSCRIBED, not measured; see README.txt*
%LPD*%
G01*
%ADD10R,0.575000X0.350000*%
%ADD11R,0.350000X0.575000*%
%ADD12R,1.754349X0.480767*%
%ADD13R,0.650000X0.850000*%
%ADD14R,0.672132X1.554488*%
%ADD15R,1.600000X1.600000*%
%ADD16C,1.600000*%
%ADD17R,1.057625X1.012132*%
%ADD18R,1.157314X1.462132*%
%ADD19R,1.012132X1.057625*%
D10*
X23837500Y13250000D03*
D10*
X23837500Y12750000D03*
D10*
X23837500Y12250000D03*
D10*
X23837500Y11750000D03*
D11*
X24500000Y11587500D03*
D11*
X25000000Y11587500D03*
D11*
X25500000Y11587500D03*
D10*
X26162500Y11750000D03*
D10*
X26162500Y12250000D03*
D10*
X26162500Y12750000D03*
D10*
X26162500Y13250000D03*
D11*
X25500000Y13412500D03*
D11*
X25000000Y13412500D03*
D11*
X24500000Y13412500D03*
D12*
X8674074Y15425000D03*
D12*
X8674074Y14775000D03*
D12*
X8674074Y14125000D03*
D12*
X8674074Y13475000D03*
D12*
X8674074Y12825000D03*
D12*
X8674074Y12175000D03*
D12*
X8674074Y11525000D03*
D12*
X8674074Y10875000D03*
D12*
X8674074Y10225000D03*
D12*
X8674074Y9575000D03*
D12*
X14325926Y9575000D03*
D12*
X14325926Y10225000D03*
D12*
X14325926Y10875000D03*
D12*
X14325926Y11525000D03*
D12*
X14325926Y12175000D03*
D12*
X14325926Y12825000D03*
D12*
X14325926Y13475000D03*
D12*
X14325926Y14125000D03*
D12*
X14325926Y14775000D03*
D12*
X14325926Y15425000D03*
D13*
X30550000Y11150000D03*
D13*
X31500000Y11150000D03*
D13*
X32450000Y11150000D03*
D13*
X32450000Y13850000D03*
D13*
X30550000Y13850000D03*
D14*
X4050000Y9874143D03*
D14*
X5000000Y9874143D03*
D14*
X5950000Y9874143D03*
D14*
X5475000Y12125857D03*
D14*
X4525000Y12125857D03*
D15*
X4000000Y2600000D03*
D16*
X6500000Y2600000D03*
D16*
X9000000Y2600000D03*
D15*
X16000000Y2600000D03*
D16*
X18500000Y2600000D03*
D16*
X21000000Y2600000D03*
D15*
X28000000Y2600000D03*
D16*
X30500000Y2600000D03*
D16*
X33000000Y2600000D03*
D17*
X2772747Y15000000D03*
D17*
X4227253Y15000000D03*
D18*
X7122591Y19000000D03*
D18*
X8877409Y19000000D03*
D17*
X11272747Y19000000D03*
D17*
X12727253Y19000000D03*
D17*
X21272747Y16500000D03*
D17*
X22727253Y16500000D03*
D17*
X27272747Y16500000D03*
D17*
X28727253Y16500000D03*
D17*
X16272747Y12500000D03*
D17*
X17727253Y12500000D03*
D19*
X35000000Y11772747D03*
D19*
X35000000Y13227253D03*
D17*
X16272747Y9500000D03*
D17*
X17727253Y9500000D03*
D17*
X30772747Y8500000D03*
D17*
X32227253Y8500000D03*
D17*
X34272747Y8500000D03*
D17*
X35727253Y8500000D03*
D16*
X16500000Y19500000D03*
D16*
X19100000Y19500000D03*
D16*
X21700000Y19500000D03*
D16*
X24300000Y19500000D03*
D16*
X26900000Y19500000D03*
M02*
