%FSLAX46Y46*%
%MOMM*%
%TF.GenerationSoftware,ce-cad,cecad.pcbfab,1.0*%
%TF.FileFunction,Copper,L2,Bot*%
%TF.FilePolarity,Positive*%
%TF.ProjectId,microduck_imu_to_dxl,,*%
G04 layer B.Cu — ce-cad*
G04 numbers in this file are TRANSCRIBED, not measured; see README.txt*
%LPD*%
G01*
%ADD10R,1.500000X1.500000*%
%ADD11C,1.500000*%
%ADD12C,0.400000*%
%ADD13C,0.150000*%
%ADD14C,0.800000*%
%ADD15R,0.250000X0.250000*%
D10*
X5500000Y2600000D03*
D11*
X8000000Y2600000D03*
D11*
X10500000Y2600000D03*
D10*
X22500000Y2600000D03*
D11*
X25000000Y2600000D03*
D11*
X27500000Y2600000D03*
D10*
X28500000Y21400000D03*
D11*
X26000000Y21400000D03*
D11*
X23500000Y21400000D03*
D12*
X10606602Y20506097D02*
X12727922Y22627417D01*
X24748737Y22627417D01*
X26000000Y21400000D01*
D12*
X8000000Y2600000D02*
X9192388Y1414214D01*
X24041631Y1414214D01*
X25000000Y2600000D01*
D13*
X8485281Y12727922D02*
X8485281Y21566757D01*
D13*
X11313708Y15909903D02*
X9545942Y17677670D01*
X9545942Y22627417D01*
X6363961Y22627417D01*
D13*
X5656854Y19091883D02*
X5303301Y19445436D01*
X5303301Y23688077D01*
X14495689Y23688077D01*
X14849242Y23334524D01*
D13*
X14495689Y10253048D02*
X20859650Y10253048D01*
X24041631Y13435029D01*
D13*
X9545942Y12374369D02*
X9545942Y11667262D01*
X7424621Y11667262D01*
X3535534Y15556349D01*
X3535534Y21566757D01*
D13*
X6010408Y12020815D02*
X11667262Y6363961D01*
X18738330Y6363961D01*
D13*
X18384776Y8131728D02*
X26870058Y8131728D01*
D13*
X11667262Y7424621D02*
X11667262Y8838835D01*
X15556349Y12727922D01*
X22273864Y12727922D01*
D13*
X5500000Y2600000D02*
X5303301Y3535534D01*
X5303301Y12727922D01*
D13*
X9192388Y13435029D02*
X9192388Y16970563D01*
D13*
X11667262Y18384776D02*
X14495689Y18384776D01*
D13*
X22980970Y15909903D02*
X24748737Y14142136D01*
X24748737Y12727922D01*
X22627417Y10606602D01*
D13*
X22980970Y15909903D02*
X22980970Y13435029D01*
D13*
X24748737Y12727922D02*
X24395184Y12374369D01*
D13*
X24748737Y14142136D02*
X26162951Y14142136D01*
X27577164Y15556349D01*
D13*
X21566757Y5303301D02*
X21566757Y3535534D01*
X22500000Y2600000D01*
D13*
X5303301Y12727922D02*
X2828427Y15202796D01*
D14*
X2474143Y19500000D03*
D14*
X20950000Y5150000D03*
D14*
X10727253Y18500000D03*
D14*
X14377409Y18400000D03*
D14*
X18227253Y18500000D03*
D14*
X19727253Y16500000D03*
D14*
X29227253Y16500000D03*
D14*
X17727253Y14000000D03*
D14*
X24000000Y7327253D03*
D14*
X17727253Y9500000D03*
D14*
X13400000Y21300000D03*
D14*
X10606602Y20506097D03*
D14*
X8485281Y12727922D03*
D14*
X8485281Y21566757D03*
D14*
X11313708Y15909903D03*
D14*
X6363961Y22627417D03*
D14*
X5656854Y19091883D03*
D14*
X14849242Y23334524D03*
D14*
X14495689Y10253048D03*
D14*
X24041631Y13435029D03*
D14*
X9545942Y12374369D03*
D14*
X3535534Y21566757D03*
D14*
X6010408Y12020815D03*
D14*
X18738330Y6363961D03*
D14*
X18384776Y8131728D03*
D14*
X26870058Y8131728D03*
D14*
X11667262Y7424621D03*
D14*
X22273864Y12727922D03*
D14*
X5303301Y12727922D03*
D14*
X9192388Y13435029D03*
D14*
X9192388Y16970563D03*
D14*
X11667262Y18384776D03*
D14*
X14495689Y18384776D03*
D14*
X22980970Y15909903D03*
D14*
X22627417Y10606602D03*
D14*
X22980970Y13435029D03*
D14*
X24395184Y12374369D03*
D14*
X27577164Y15556349D03*
D14*
X21566757Y5303301D03*
D14*
X2828427Y15202796D03*
D15*
X1774400Y125000D02*
X32225600Y125000D01*
D15*
X1292600Y375000D02*
X32707400Y375000D01*
D15*
X1003600Y625000D02*
X32996400Y625000D01*
D15*
X798400Y875000D02*
X33201600Y875000D01*
D15*
X660800Y1125000D02*
X8842400Y1125000D01*
D15*
X24391600Y1125000D02*
X33339200Y1125000D01*
D15*
X559700Y1375000D02*
X8371900Y1375000D01*
D15*
X24798900Y1375000D02*
X33440300Y1375000D01*
D15*
X486900Y1625000D02*
X8120500Y1625000D01*
D15*
X25001000Y1625000D02*
X33513100Y1625000D01*
D15*
X462300Y1875000D02*
X6900000Y1875000D01*
D15*
X11600000Y1875000D02*
X23625000Y1875000D01*
D15*
X26100000Y1875000D02*
X26400000Y1875000D01*
D15*
X28600000Y1875000D02*
X33537700Y1875000D01*
D15*
X450000Y2125000D02*
X6900000Y2125000D01*
D15*
X9337500Y2125000D02*
X9400000Y2125000D01*
D15*
X11600000Y2125000D02*
X23827100Y2125000D01*
D15*
X26100000Y2125000D02*
X26400000Y2125000D01*
D15*
X28600000Y2125000D02*
X33550000Y2125000D01*
D15*
X450000Y2375000D02*
X6900000Y2375000D01*
D15*
X9100000Y2375000D02*
X9400000Y2375000D01*
D15*
X11600000Y2375000D02*
X23900000Y2375000D01*
D15*
X26100000Y2375000D02*
X26400000Y2375000D01*
D15*
X28600000Y2375000D02*
X33550000Y2375000D01*
D15*
X450000Y2625000D02*
X6900000Y2625000D01*
D15*
X9100000Y2625000D02*
X9400000Y2625000D01*
D15*
X11600000Y2625000D02*
X23900000Y2625000D01*
D15*
X26100000Y2625000D02*
X26400000Y2625000D01*
D15*
X28600000Y2625000D02*
X33550000Y2625000D01*
D15*
X450000Y2875000D02*
X6900000Y2875000D01*
D15*
X9100000Y2875000D02*
X9400000Y2875000D01*
D15*
X11600000Y2875000D02*
X23900000Y2875000D01*
D15*
X26100000Y2875000D02*
X26400000Y2875000D01*
D15*
X28600000Y2875000D02*
X33550000Y2875000D01*
D15*
X450000Y3125000D02*
X6900000Y3125000D01*
D15*
X9100000Y3125000D02*
X9400000Y3125000D01*
D15*
X11600000Y3125000D02*
X23900000Y3125000D01*
D15*
X26100000Y3125000D02*
X26400000Y3125000D01*
D15*
X28600000Y3125000D02*
X33550000Y3125000D01*
D15*
X450000Y3375000D02*
X6900000Y3375000D01*
D15*
X9100000Y3375000D02*
X9400000Y3375000D01*
D15*
X11600000Y3375000D02*
X23900000Y3375000D01*
D15*
X26100000Y3375000D02*
X26400000Y3375000D01*
D15*
X28600000Y3375000D02*
X33550000Y3375000D01*
D15*
X450000Y3625000D02*
X33550000Y3625000D01*
D15*
X450000Y3875000D02*
X33550000Y3875000D01*
D15*
X450000Y4125000D02*
X33550000Y4125000D01*
D15*
X450000Y4375000D02*
X33550000Y4375000D01*
D15*
X450000Y4625000D02*
X33550000Y4625000D01*
D15*
X450000Y4875000D02*
X33550000Y4875000D01*
D15*
X450000Y5125000D02*
X33550000Y5125000D01*
D15*
X450000Y5375000D02*
X33550000Y5375000D01*
D15*
X450000Y5625000D02*
X33550000Y5625000D01*
D15*
X450000Y5875000D02*
X18086600Y5875000D01*
D15*
X19390100Y5875000D02*
X33550000Y5875000D01*
D15*
X450000Y6125000D02*
X17988300Y6125000D01*
D15*
X19488300Y6125000D02*
X33550000Y6125000D01*
D15*
X450000Y6375000D02*
X10975200Y6375000D01*
D15*
X19488300Y6375000D02*
X33550000Y6375000D01*
D15*
X450000Y6625000D02*
X10725200Y6625000D01*
D15*
X12070300Y6625000D02*
X17988300Y6625000D01*
D15*
X19488300Y6625000D02*
X33550000Y6625000D01*
D15*
X450000Y6875000D02*
X10475200Y6875000D01*
D15*
X11837300Y6875000D02*
X18108700Y6875000D01*
D15*
X19368000Y6875000D02*
X33550000Y6875000D01*
D15*
X450000Y7125000D02*
X10225200Y7125000D01*
D15*
X12417300Y7125000D02*
X33550000Y7125000D01*
D15*
X450000Y7375000D02*
X9975200Y7375000D01*
D15*
X12417300Y7375000D02*
X33550000Y7375000D01*
D15*
X450000Y7625000D02*
X9725200Y7625000D01*
D15*
X12417300Y7625000D02*
X17750800Y7625000D01*
D15*
X19018700Y7625000D02*
X26236100Y7625000D01*
D15*
X27504000Y7625000D02*
X33550000Y7625000D01*
D15*
X450000Y7875000D02*
X9475200Y7875000D01*
D15*
X10837300Y7875000D02*
X10977700Y7875000D01*
D15*
X12356900Y7875000D02*
X17634800Y7875000D01*
D15*
X19134800Y7875000D02*
X26120100Y7875000D01*
D15*
X27620100Y7875000D02*
X33550000Y7875000D01*
D15*
X450000Y8125000D02*
X9225200Y8125000D01*
D15*
X10587300Y8125000D02*
X11242300Y8125000D01*
D15*
X12092300Y8125000D02*
X17634800Y8125000D01*
D15*
X27620100Y8125000D02*
X33550000Y8125000D01*
D15*
X450000Y8375000D02*
X8975200Y8375000D01*
D15*
X10337300Y8375000D02*
X11242300Y8375000D01*
D15*
X12092300Y8375000D02*
X17634800Y8375000D01*
D15*
X19134800Y8375000D02*
X26120100Y8375000D01*
D15*
X27620100Y8375000D02*
X33550000Y8375000D01*
D15*
X450000Y8625000D02*
X8725200Y8625000D01*
D15*
X10087300Y8625000D02*
X11242300Y8625000D01*
D15*
X12092300Y8625000D02*
X17737400Y8625000D01*
D15*
X19032200Y8625000D02*
X26222600Y8625000D01*
D15*
X27517500Y8625000D02*
X33550000Y8625000D01*
D15*
X450000Y8875000D02*
X8475200Y8875000D01*
D15*
X9837300Y8875000D02*
X11242300Y8875000D01*
D15*
X12384500Y8875000D02*
X33550000Y8875000D01*
D15*
X450000Y9125000D02*
X8225200Y9125000D01*
D15*
X9587300Y9125000D02*
X11272400Y9125000D01*
D15*
X12634500Y9125000D02*
X33550000Y9125000D01*
D15*
X450000Y9375000D02*
X7975200Y9375000D01*
D15*
X9337300Y9375000D02*
X11522400Y9375000D01*
D15*
X12884500Y9375000D02*
X33550000Y9375000D01*
D15*
X450000Y9625000D02*
X7725200Y9625000D01*
D15*
X9087300Y9625000D02*
X11772400Y9625000D01*
D15*
X13134500Y9625000D02*
X33550000Y9625000D01*
D15*
X450000Y9875000D02*
X7475200Y9875000D01*
D15*
X8837300Y9875000D02*
X12022400Y9875000D01*
D15*
X13384500Y9875000D02*
X13776100Y9875000D01*
D15*
X15215300Y9875000D02*
X33550000Y9875000D01*
D15*
X450000Y10125000D02*
X7225200Y10125000D01*
D15*
X8587300Y10125000D02*
X12272400Y10125000D01*
D15*
X13634500Y10125000D02*
X13745700Y10125000D01*
D15*
X21412700Y10125000D02*
X33550000Y10125000D01*
D15*
X450000Y10375000D02*
X6975200Y10375000D01*
D15*
X8337300Y10375000D02*
X12522400Y10375000D01*
D15*
X21662700Y10375000D02*
X33550000Y10375000D01*
D15*
X450000Y10625000D02*
X6725200Y10625000D01*
D15*
X8087300Y10625000D02*
X12772400Y10625000D01*
D15*
X15217800Y10625000D02*
X20550500Y10625000D01*
D15*
X21912700Y10625000D02*
X33550000Y10625000D01*
D15*
X450000Y10875000D02*
X6475200Y10875000D01*
D15*
X7837300Y10875000D02*
X13022400Y10875000D01*
D15*
X14384500Y10875000D02*
X20800500Y10875000D01*
D15*
X22162700Y10875000D02*
X33550000Y10875000D01*
D15*
X450000Y11125000D02*
X6225200Y11125000D01*
D15*
X7587300Y11125000D02*
X13272400Y11125000D01*
D15*
X14634500Y11125000D02*
X21050500Y11125000D01*
D15*
X22412700Y11125000D02*
X33550000Y11125000D01*
D15*
X450000Y11375000D02*
X5975200Y11375000D01*
D15*
X7337300Y11375000D02*
X13522400Y11375000D01*
D15*
X14884500Y11375000D02*
X21300500Y11375000D01*
D15*
X22662700Y11375000D02*
X33550000Y11375000D01*
D15*
X450000Y11625000D02*
X5298200Y11625000D01*
D15*
X9970900Y11625000D02*
X13772400Y11625000D01*
D15*
X15134500Y11625000D02*
X21550500Y11625000D01*
D15*
X22912700Y11625000D02*
X33550000Y11625000D01*
D15*
X450000Y11875000D02*
X5260400Y11875000D01*
D15*
X7827700Y11875000D02*
X8904600Y11875000D01*
D15*
X10187300Y11875000D02*
X14022400Y11875000D01*
D15*
X15384500Y11875000D02*
X21800500Y11875000D01*
D15*
X23162700Y11875000D02*
X33550000Y11875000D01*
D15*
X450000Y12125000D02*
X5260400Y12125000D01*
D15*
X7647900Y12125000D02*
X8795900Y12125000D01*
D15*
X10295900Y12125000D02*
X14272400Y12125000D01*
D15*
X15634500Y12125000D02*
X22050500Y12125000D01*
D15*
X23412700Y12125000D02*
X33550000Y12125000D01*
D15*
X450000Y12375000D02*
X5281000Y12375000D01*
D15*
X7397900Y12375000D02*
X7755300Y12375000D01*
D15*
X10295900Y12375000D02*
X14522400Y12375000D01*
D15*
X15884500Y12375000D02*
X21543900Y12375000D01*
D15*
X23662700Y12375000D02*
X33550000Y12375000D01*
D15*
X450000Y12625000D02*
X5785800Y12625000D01*
D15*
X7147900Y12625000D02*
X7735300Y12625000D01*
D15*
X10295900Y12625000D02*
X14772400Y12625000D01*
D15*
X23912700Y12625000D02*
X33550000Y12625000D01*
D15*
X450000Y12875000D02*
X5535800Y12875000D01*
D15*
X6897900Y12875000D02*
X7735300Y12875000D01*
D15*
X10186000Y12875000D02*
X15022400Y12875000D01*
D15*
X24162700Y12875000D02*
X33550000Y12875000D01*
D15*
X450000Y13125000D02*
X5285800Y13125000D01*
D15*
X6647900Y13125000D02*
X7773600Y13125000D01*
D15*
X9197000Y13125000D02*
X21562200Y13125000D01*
D15*
X22985500Y13125000D02*
X23050500Y13125000D01*
D15*
X24789400Y13125000D02*
X33550000Y13125000D01*
D15*
X450000Y13375000D02*
X5035800Y13375000D01*
D15*
X6397900Y13375000D02*
X8060300Y13375000D01*
D15*
X8910300Y13375000D02*
X23291600Y13375000D01*
D15*
X24791600Y13375000D02*
X33550000Y13375000D01*
D15*
X450000Y13625000D02*
X4785800Y13625000D01*
D15*
X6147900Y13625000D02*
X8060300Y13625000D01*
D15*
X8910300Y13625000D02*
X23291600Y13625000D01*
D15*
X24791600Y13625000D02*
X33550000Y13625000D01*
D15*
X450000Y13875000D02*
X4535800Y13875000D01*
D15*
X5897900Y13875000D02*
X8060300Y13875000D01*
D15*
X8910300Y13875000D02*
X23347700Y13875000D01*
D15*
X24735500Y13875000D02*
X33550000Y13875000D01*
D15*
X450000Y14125000D02*
X4285800Y14125000D01*
D15*
X5647900Y14125000D02*
X8060300Y14125000D01*
D15*
X8910300Y14125000D02*
X33550000Y14125000D01*
D15*
X450000Y14375000D02*
X4035800Y14375000D01*
D15*
X5397900Y14375000D02*
X8060300Y14375000D01*
D15*
X8910300Y14375000D02*
X33550000Y14375000D01*
D15*
X450000Y14625000D02*
X3785800Y14625000D01*
D15*
X5147900Y14625000D02*
X8060300Y14625000D01*
D15*
X8910300Y14625000D02*
X33550000Y14625000D01*
D15*
X450000Y14875000D02*
X3535800Y14875000D01*
D15*
X4897900Y14875000D02*
X8060300Y14875000D01*
D15*
X8910300Y14875000D02*
X33550000Y14875000D01*
D15*
X450000Y15125000D02*
X3285800Y15125000D01*
D15*
X4647900Y15125000D02*
X8060300Y15125000D01*
D15*
X8910300Y15125000D02*
X33550000Y15125000D01*
D15*
X450000Y15375000D02*
X3132500Y15375000D01*
D15*
X4397900Y15375000D02*
X8060300Y15375000D01*
D15*
X8910300Y15375000D02*
X33550000Y15375000D01*
D15*
X450000Y15625000D02*
X3110500Y15625000D01*
D15*
X4147900Y15625000D02*
X8060300Y15625000D01*
D15*
X8910300Y15625000D02*
X10563700Y15625000D01*
D15*
X12063700Y15625000D02*
X33550000Y15625000D01*
D15*
X450000Y15875000D02*
X3110500Y15875000D01*
D15*
X3960500Y15875000D02*
X8060300Y15875000D01*
D15*
X8910300Y15875000D02*
X10563700Y15875000D01*
D15*
X12063700Y15875000D02*
X33550000Y15875000D01*
D15*
X450000Y16125000D02*
X3110500Y16125000D01*
D15*
X3960500Y16125000D02*
X8060300Y16125000D01*
D15*
X8910300Y16125000D02*
X10417500Y16125000D01*
D15*
X12063700Y16125000D02*
X33550000Y16125000D01*
D15*
X450000Y16375000D02*
X3110500Y16375000D01*
D15*
X3960500Y16375000D02*
X8060300Y16375000D01*
D15*
X8910300Y16375000D02*
X10167500Y16375000D01*
D15*
X11989300Y16375000D02*
X33550000Y16375000D01*
D15*
X450000Y16625000D02*
X3110500Y16625000D01*
D15*
X3960500Y16625000D02*
X8060300Y16625000D01*
D15*
X8910300Y16625000D02*
X9917500Y16625000D01*
D15*
X11279700Y16625000D02*
X33550000Y16625000D01*
D15*
X450000Y16875000D02*
X3110500Y16875000D01*
D15*
X3960500Y16875000D02*
X8060300Y16875000D01*
D15*
X8910300Y16875000D02*
X9667500Y16875000D01*
D15*
X11029700Y16875000D02*
X33550000Y16875000D01*
D15*
X450000Y17125000D02*
X3110500Y17125000D01*
D15*
X3960500Y17125000D02*
X8060300Y17125000D01*
D15*
X8910300Y17125000D02*
X9417500Y17125000D01*
D15*
X10779700Y17125000D02*
X33550000Y17125000D01*
D15*
X450000Y17375000D02*
X3110500Y17375000D01*
D15*
X3960500Y17375000D02*
X8060300Y17375000D01*
D15*
X8910300Y17375000D02*
X9167500Y17375000D01*
D15*
X10529700Y17375000D02*
X33550000Y17375000D01*
D15*
X450000Y17625000D02*
X3110500Y17625000D01*
D15*
X3960500Y17625000D02*
X8060300Y17625000D01*
D15*
X8910300Y17625000D02*
X9120900Y17625000D01*
D15*
X10279700Y17625000D02*
X33550000Y17625000D01*
D15*
X450000Y17875000D02*
X3110500Y17875000D01*
D15*
X3960500Y17875000D02*
X8060300Y17875000D01*
D15*
X8910300Y17875000D02*
X9120900Y17875000D01*
D15*
X9970900Y17875000D02*
X33550000Y17875000D01*
D15*
X450000Y18125000D02*
X3110500Y18125000D01*
D15*
X3960500Y18125000D02*
X8060300Y18125000D01*
D15*
X8910300Y18125000D02*
X9120900Y18125000D01*
D15*
X9970900Y18125000D02*
X33550000Y18125000D01*
D15*
X450000Y18375000D02*
X3110500Y18375000D01*
D15*
X3960500Y18375000D02*
X8060300Y18375000D01*
D15*
X8910300Y18375000D02*
X9120900Y18375000D01*
D15*
X9970900Y18375000D02*
X33550000Y18375000D01*
D15*
X450000Y18625000D02*
X3110500Y18625000D01*
D15*
X3960500Y18625000D02*
X4983100Y18625000D01*
D15*
X6330700Y18625000D02*
X8060300Y18625000D01*
D15*
X8910300Y18625000D02*
X9120900Y18625000D01*
D15*
X9970900Y18625000D02*
X33550000Y18625000D01*
D15*
X450000Y18875000D02*
X3110500Y18875000D01*
D15*
X3960500Y18875000D02*
X4906900Y18875000D01*
D15*
X6406900Y18875000D02*
X8060300Y18875000D01*
D15*
X8910300Y18875000D02*
X9120900Y18875000D01*
D15*
X9970900Y18875000D02*
X33550000Y18875000D01*
D15*
X450000Y19125000D02*
X3110500Y19125000D01*
D15*
X3960500Y19125000D02*
X4906900Y19125000D01*
D15*
X6406900Y19125000D02*
X8060300Y19125000D01*
D15*
X8910300Y19125000D02*
X9120900Y19125000D01*
D15*
X9970900Y19125000D02*
X33550000Y19125000D01*
D15*
X450000Y19375000D02*
X3110500Y19375000D01*
D15*
X3960500Y19375000D02*
X4878300Y19375000D01*
D15*
X6406900Y19375000D02*
X8060300Y19375000D01*
D15*
X8910300Y19375000D02*
X9120900Y19375000D01*
D15*
X9970900Y19375000D02*
X33550000Y19375000D01*
D15*
X450000Y19625000D02*
X3110500Y19625000D01*
D15*
X3960500Y19625000D02*
X4878300Y19625000D01*
D15*
X5728300Y19625000D02*
X8060300Y19625000D01*
D15*
X8910300Y19625000D02*
X9120900Y19625000D01*
D15*
X9970900Y19625000D02*
X33550000Y19625000D01*
D15*
X450000Y19875000D02*
X3110500Y19875000D01*
D15*
X3960500Y19875000D02*
X4878300Y19875000D01*
D15*
X5728300Y19875000D02*
X8060300Y19875000D01*
D15*
X8910300Y19875000D02*
X9120900Y19875000D01*
D15*
X9970900Y19875000D02*
X33550000Y19875000D01*
D15*
X450000Y20125000D02*
X3110500Y20125000D01*
D15*
X3960500Y20125000D02*
X4878300Y20125000D01*
D15*
X5728300Y20125000D02*
X8060300Y20125000D01*
D15*
X8910300Y20125000D02*
X9120900Y20125000D01*
D15*
X11324900Y20125000D02*
X33550000Y20125000D01*
D15*
X450000Y20375000D02*
X3110500Y20375000D01*
D15*
X3960500Y20375000D02*
X4878300Y20375000D01*
D15*
X5728300Y20375000D02*
X8060300Y20375000D01*
D15*
X8910300Y20375000D02*
X9120900Y20375000D01*
D15*
X11356600Y20375000D02*
X33550000Y20375000D01*
D15*
X450000Y20625000D02*
X3110500Y20625000D01*
D15*
X3960500Y20625000D02*
X4878300Y20625000D01*
D15*
X5728300Y20625000D02*
X8060300Y20625000D01*
D15*
X8910300Y20625000D02*
X9120900Y20625000D01*
D15*
X11583300Y20625000D02*
X22400000Y20625000D01*
D15*
X24600000Y20625000D02*
X24900000Y20625000D01*
D15*
X27100000Y20625000D02*
X33550000Y20625000D01*
D15*
X450000Y20875000D02*
X3110500Y20875000D01*
D15*
X3960500Y20875000D02*
X4878300Y20875000D01*
D15*
X5728300Y20875000D02*
X8060300Y20875000D01*
D15*
X8910300Y20875000D02*
X9120900Y20875000D01*
D15*
X11833300Y20875000D02*
X22400000Y20875000D01*
D15*
X24600000Y20875000D02*
X24900000Y20875000D01*
D15*
X27100000Y20875000D02*
X33550000Y20875000D01*
D15*
X450000Y21125000D02*
X2842400Y21125000D01*
D15*
X4228700Y21125000D02*
X4878300Y21125000D01*
D15*
X5728300Y21125000D02*
X7792100Y21125000D01*
D15*
X9970900Y21125000D02*
X10367700Y21125000D01*
D15*
X12083300Y21125000D02*
X22400000Y21125000D01*
D15*
X24600000Y21125000D02*
X24900000Y21125000D01*
D15*
X27100000Y21125000D02*
X33550000Y21125000D01*
D15*
X450000Y21375000D02*
X2785500Y21375000D01*
D15*
X4285500Y21375000D02*
X4878300Y21375000D01*
D15*
X5728300Y21375000D02*
X7735300Y21375000D01*
D15*
X9970900Y21375000D02*
X10617700Y21375000D01*
D15*
X12333300Y21375000D02*
X22400000Y21375000D01*
D15*
X24600000Y21375000D02*
X24900000Y21375000D01*
D15*
X27100000Y21375000D02*
X33550000Y21375000D01*
D15*
X450000Y21625000D02*
X2785500Y21625000D01*
D15*
X4285500Y21625000D02*
X4878300Y21625000D01*
D15*
X5728300Y21625000D02*
X7735300Y21625000D01*
D15*
X9970900Y21625000D02*
X10867700Y21625000D01*
D15*
X12583300Y21625000D02*
X22400000Y21625000D01*
D15*
X24600000Y21625000D02*
X24900000Y21625000D01*
D15*
X27100000Y21625000D02*
X33550000Y21625000D01*
D15*
X450000Y21875000D02*
X2787100Y21875000D01*
D15*
X4284000Y21875000D02*
X4878300Y21875000D01*
D15*
X5728300Y21875000D02*
X7736800Y21875000D01*
D15*
X9970900Y21875000D02*
X11117700Y21875000D01*
D15*
X12833300Y21875000D02*
X22400000Y21875000D01*
D15*
X24600000Y21875000D02*
X24650800Y21875000D01*
D15*
X27100000Y21875000D02*
X33550000Y21875000D01*
D15*
X462300Y22125000D02*
X4878300Y22125000D01*
D15*
X7002200Y22125000D02*
X9120900Y22125000D01*
D15*
X9970900Y22125000D02*
X11367700Y22125000D01*
D15*
X13083300Y22125000D02*
X22400000Y22125000D01*
D15*
X27100000Y22125000D02*
X33537700Y22125000D01*
D15*
X486900Y22375000D02*
X4878300Y22375000D01*
D15*
X7114000Y22375000D02*
X9120900Y22375000D01*
D15*
X9970900Y22375000D02*
X11617700Y22375000D01*
D15*
X25871000Y22375000D02*
X33513100Y22375000D01*
D15*
X559700Y22625000D02*
X4878300Y22625000D01*
D15*
X9970900Y22625000D02*
X11867700Y22625000D01*
D15*
X25616200Y22625000D02*
X33440300Y22625000D01*
D15*
X660800Y22875000D02*
X4878300Y22875000D01*
D15*
X7114000Y22875000D02*
X12117700Y22875000D01*
D15*
X25361300Y22875000D02*
X33339200Y22875000D01*
D15*
X798400Y23125000D02*
X4878300Y23125000D01*
D15*
X7007100Y23125000D02*
X14099200Y23125000D01*
D15*
X15599200Y23125000D02*
X33201600Y23125000D01*
D15*
X1003600Y23375000D02*
X4878300Y23375000D01*
D15*
X5728300Y23375000D02*
X14099200Y23375000D01*
D15*
X15599200Y23375000D02*
X32996400Y23375000D01*
D15*
X1292600Y23625000D02*
X4878300Y23625000D01*
D15*
X15599200Y23625000D02*
X32707400Y23625000D01*
D15*
X1774400Y23875000D02*
X4953300Y23875000D01*
D15*
X14845700Y23875000D02*
X32225600Y23875000D01*
M02*
