M48
;DRILL file {ce-cad} — microduck_imu_to_dxl
;FORMAT={-:-/ absolute / metric / decimal}
;TYPE=PLATED
FMAT,2
METRIC
T1C0.300
T2C0.900
%
G90
G05
T1
X9.000Y6.500
X13.000Y6.500
X22.500Y6.500
X26.500Y6.500
X12.445Y13.576
X15.839Y13.576
X6.010Y12.728
X10.960Y17.678
X20.860Y10.960
X22.981Y13.081
X21.213Y14.142
X24.042Y14.142
X19.799Y9.899
X25.102Y12.728
X16.617Y9.546
X16.617Y14.496
X12.374Y14.849
X24.749Y15.556
X10.253Y8.485
X35.355Y8.485
X4.950Y9.192
X4.950Y10.607
X4.950Y14.496
X8.485Y18.031
X10.607Y12.728
X17.324Y12.374
X17.678Y9.192
T2
X4.000Y2.600
X6.500Y2.600
X9.000Y2.600
X16.000Y2.600
X18.500Y2.600
X21.000Y2.600
X28.000Y2.600
X30.500Y2.600
X33.000Y2.600
T0
M30
