%FSLAX46Y46*%
%MOMM*%
%TF.GenerationSoftware,ce-cad,cecad.pcbfab,1.0*%
%TF.FileFunction,Paste,Top*%
%TF.FilePolarity,Positive*%
%TF.ProjectId,microduck_imu_to_dxl,,*%
G04 layer F.Paste — ce-cad*
G04 numbers in this file are TRANSCRIBED, not measured; see README.txt*
%LPD*%
G01*
%ADD10R,0.475000X0.250000*%
%ADD11R,0.250000X0.475000*%
%ADD12R,1.654349X0.380767*%
%ADD13R,0.550000X0.750000*%
%ADD14R,1.454488X0.572132*%
%ADD15R,0.957625X0.912132*%
%ADD16R,1.057314X1.362132*%
%ADD17R,0.912132X0.957625*%
D10*
X22837500Y14250000D03*
D10*
X22837500Y13750000D03*
D10*
X22837500Y13250000D03*
D10*
X22837500Y12750000D03*
D11*
X23500000Y12587500D03*
D11*
X24000000Y12587500D03*
D11*
X24500000Y12587500D03*
D10*
X25162500Y12750000D03*
D10*
X25162500Y13250000D03*
D10*
X25162500Y13750000D03*
D10*
X25162500Y14250000D03*
D11*
X24500000Y14412500D03*
D11*
X24000000Y14412500D03*
D11*
X23500000Y14412500D03*
D12*
X7174074Y15925000D03*
D12*
X7174074Y15275000D03*
D12*
X7174074Y14625000D03*
D12*
X7174074Y13975000D03*
D12*
X7174074Y13325000D03*
D12*
X7174074Y12675000D03*
D12*
X7174074Y12025000D03*
D12*
X7174074Y11375000D03*
D12*
X7174074Y10725000D03*
D12*
X7174074Y10075000D03*
D12*
X12825926Y10075000D03*
D12*
X12825926Y10725000D03*
D12*
X12825926Y11375000D03*
D12*
X12825926Y12025000D03*
D12*
X12825926Y12675000D03*
D12*
X12825926Y13325000D03*
D12*
X12825926Y13975000D03*
D12*
X12825926Y14625000D03*
D12*
X12825926Y15275000D03*
D12*
X12825926Y15925000D03*
D13*
X19050000Y6250000D03*
D13*
X20000000Y6250000D03*
D13*
X20950000Y6250000D03*
D13*
X20950000Y8950000D03*
D13*
X19050000Y8950000D03*
D14*
X3874143Y20450000D03*
D14*
X3874143Y19500000D03*
D14*
X3874143Y18550000D03*
D14*
X6125857Y19025000D03*
D14*
X6125857Y19975000D03*
D15*
X9272747Y19500000D03*
D15*
X10727253Y19500000D03*
D16*
X12622591Y19500000D03*
D16*
X14377409Y19500000D03*
D15*
X16772747Y19500000D03*
D15*
X18227253Y19500000D03*
D15*
X19272747Y16500000D03*
D15*
X20727253Y16500000D03*
D15*
X26772747Y16500000D03*
D15*
X28227253Y16500000D03*
D15*
X16272747Y13000000D03*
D15*
X17727253Y13000000D03*
D17*
X24000000Y6872747D03*
D17*
X24000000Y8327253D03*
D15*
X16272747Y10500000D03*
D15*
X17727253Y10500000D03*
D15*
X15272747Y6200000D03*
D15*
X16727253Y6200000D03*
D17*
X27000000Y6872747D03*
D17*
X27000000Y8327253D03*
M02*
