%FSLAX46Y46*%
%MOMM*%
%TF.GenerationSoftware,ce-cad,cecad.pcbfab,1.0*%
%TF.FileFunction,Copper,L2,Bot*%
%TF.FilePolarity,Positive*%
%TF.ProjectId,microduck_imu_to_dxl,,*%
G04 layer B.Cu — ce-cad*
G04 numbers in this file are TRANSCRIBED, not measured; see README.txt*
%LPD*%
G01*
%ADD10R,1.500000X1.500000*%
%ADD11C,1.500000*%
%ADD12C,2.000000*%
%ADD13C,0.300000*%
%ADD14C,0.150000*%
%ADD15C,1.000000*%
%ADD16C,0.800000*%
%ADD17R,0.250000X0.250000*%
D10*
X4000000Y2600000D03*
D11*
X6500000Y2600000D03*
D11*
X9000000Y2600000D03*
D10*
X16000000Y2600000D03*
D11*
X18500000Y2600000D03*
D11*
X21000000Y2600000D03*
D10*
X28000000Y2600000D03*
D11*
X30500000Y2600000D03*
D11*
X33000000Y2600000D03*
D12*
X6500000Y2600000D02*
X6500000Y6500000D01*
X30500000Y6500000D01*
X30500000Y2600000D01*
D12*
X18500000Y6500000D02*
X18500000Y2600000D01*
D13*
X12445079Y13576450D02*
X15839192Y13576450D01*
D14*
X9000000Y2600000D02*
X9899495Y1767767D01*
X10253048Y1414214D01*
X19445436Y1414214D01*
X20152543Y2121320D01*
X21000000Y2600000D01*
D14*
X21000000Y2600000D02*
X21920310Y1767767D01*
X22273864Y1414214D01*
X31466252Y1414214D01*
X32173359Y2121320D01*
X33000000Y2600000D01*
D14*
X6010408Y12727922D02*
X10960155Y17677670D01*
D14*
X20859650Y10960155D02*
X22980970Y13081475D01*
D14*
X21213203Y14142136D02*
X24041631Y14142136D01*
D14*
X19798990Y9899495D02*
X22273864Y9899495D01*
X25102291Y12727922D01*
D14*
X16617009Y9545942D02*
X16617009Y14495689D01*
D14*
X12374369Y14849242D02*
X13081475Y15556349D01*
X24748737Y15556349D01*
D14*
X10253048Y8485281D02*
X35355339Y8485281D01*
D14*
X4000000Y2600000D02*
X4949747Y3535534D01*
X4949747Y9192388D01*
D14*
X4949747Y10606602D02*
X4949747Y14495689D01*
D14*
X4949747Y14495689D02*
X8485281Y18031223D01*
D14*
X10606602Y12727922D02*
X14495689Y8838835D01*
X17324116Y8838835D01*
X17324116Y12374369D01*
D14*
X17324116Y8838835D02*
X17677670Y9192388D01*
D15*
X9000000Y6500000D03*
D15*
X13000000Y6500000D03*
D15*
X22500000Y6500000D03*
D15*
X26500000Y6500000D03*
D16*
X12445079Y13576450D03*
D16*
X15839192Y13576450D03*
D16*
X6010408Y12727922D03*
D16*
X10960155Y17677670D03*
D16*
X20859650Y10960155D03*
D16*
X22980970Y13081475D03*
D16*
X21213203Y14142136D03*
D16*
X24041631Y14142136D03*
D16*
X19798990Y9899495D03*
D16*
X25102291Y12727922D03*
D16*
X16617009Y9545942D03*
D16*
X16617009Y14495689D03*
D16*
X12374369Y14849242D03*
D16*
X24748737Y15556349D03*
D16*
X10253048Y8485281D03*
D16*
X35355339Y8485281D03*
D16*
X4949747Y9192388D03*
D16*
X4949747Y10606602D03*
D16*
X4949747Y14495689D03*
D16*
X8485281Y18031223D03*
D16*
X10606602Y12727922D03*
D16*
X17324116Y12374369D03*
D16*
X17677670Y9192388D03*
D17*
X1774400Y125000D02*
X38225600Y125000D01*
D17*
X1292600Y375000D02*
X38707400Y375000D01*
D17*
X1003600Y625000D02*
X38996400Y625000D01*
D17*
X798400Y875000D02*
X39201600Y875000D01*
D17*
X660800Y1125000D02*
X39339200Y1125000D01*
D17*
X559700Y1375000D02*
X9611200Y1375000D01*
D17*
X20087300Y1375000D02*
X21632000Y1375000D01*
D17*
X32108100Y1375000D02*
X39440300Y1375000D01*
D17*
X486900Y1625000D02*
X9350200Y1625000D01*
D17*
X10656100Y1625000D02*
X19042400Y1625000D01*
D17*
X20337300Y1625000D02*
X21367600Y1625000D01*
D17*
X22676900Y1625000D02*
X31063200Y1625000D01*
D17*
X32358100Y1625000D02*
X39513100Y1625000D01*
D17*
X462300Y1875000D02*
X5400000Y1875000D01*
D17*
X7600000Y1875000D02*
X7900000Y1875000D01*
D17*
X10473300Y1875000D02*
X17400000Y1875000D01*
D17*
X22494100Y1875000D02*
X29400000Y1875000D01*
D17*
X34100000Y1875000D02*
X39537700Y1875000D01*
D17*
X450000Y2125000D02*
X5400000Y2125000D01*
D17*
X7600000Y2125000D02*
X7900000Y2125000D01*
D17*
X10217000Y2125000D02*
X17400000Y2125000D01*
D17*
X22235900Y2125000D02*
X29400000Y2125000D01*
D17*
X34100000Y2125000D02*
X39550000Y2125000D01*
D17*
X450000Y2375000D02*
X5400000Y2375000D01*
D17*
X7600000Y2375000D02*
X7900000Y2375000D01*
D17*
X10100000Y2375000D02*
X17400000Y2375000D01*
D17*
X19600000Y2375000D02*
X19765700Y2375000D01*
D17*
X22100000Y2375000D02*
X29400000Y2375000D01*
D17*
X31600000Y2375000D02*
X31785800Y2375000D01*
D17*
X34100000Y2375000D02*
X39550000Y2375000D01*
D17*
X450000Y2625000D02*
X5150000Y2625000D01*
D17*
X7850000Y2625000D02*
X7900000Y2625000D01*
D17*
X10100000Y2625000D02*
X17150000Y2625000D01*
D17*
X19850000Y2625000D02*
X19900000Y2625000D01*
D17*
X22100000Y2625000D02*
X29150000Y2625000D01*
D17*
X31850000Y2625000D02*
X31900000Y2625000D01*
D17*
X34100000Y2625000D02*
X39550000Y2625000D01*
D17*
X450000Y2875000D02*
X5150000Y2875000D01*
D17*
X7850000Y2875000D02*
X7900000Y2875000D01*
D17*
X10100000Y2875000D02*
X17150000Y2875000D01*
D17*
X19850000Y2875000D02*
X19900000Y2875000D01*
D17*
X22100000Y2875000D02*
X29150000Y2875000D01*
D17*
X31850000Y2875000D02*
X31900000Y2875000D01*
D17*
X34100000Y2875000D02*
X39550000Y2875000D01*
D17*
X450000Y3125000D02*
X5150000Y3125000D01*
D17*
X7850000Y3125000D02*
X7900000Y3125000D01*
D17*
X10100000Y3125000D02*
X17150000Y3125000D01*
D17*
X19850000Y3125000D02*
X19900000Y3125000D01*
D17*
X22100000Y3125000D02*
X29150000Y3125000D01*
D17*
X31850000Y3125000D02*
X31900000Y3125000D01*
D17*
X34100000Y3125000D02*
X39550000Y3125000D01*
D17*
X450000Y3375000D02*
X5150000Y3375000D01*
D17*
X7850000Y3375000D02*
X7900000Y3375000D01*
D17*
X10100000Y3375000D02*
X17150000Y3375000D01*
D17*
X19850000Y3375000D02*
X19900000Y3375000D01*
D17*
X22100000Y3375000D02*
X29150000Y3375000D01*
D17*
X31850000Y3375000D02*
X31900000Y3375000D01*
D17*
X34100000Y3375000D02*
X39550000Y3375000D01*
D17*
X450000Y3625000D02*
X5150000Y3625000D01*
D17*
X7850000Y3625000D02*
X17150000Y3625000D01*
D17*
X19850000Y3625000D02*
X29150000Y3625000D01*
D17*
X31850000Y3625000D02*
X39550000Y3625000D01*
D17*
X450000Y3875000D02*
X5150000Y3875000D01*
D17*
X7850000Y3875000D02*
X17150000Y3875000D01*
D17*
X19850000Y3875000D02*
X29150000Y3875000D01*
D17*
X31850000Y3875000D02*
X39550000Y3875000D01*
D17*
X450000Y4125000D02*
X5150000Y4125000D01*
D17*
X7850000Y4125000D02*
X17150000Y4125000D01*
D17*
X19850000Y4125000D02*
X29150000Y4125000D01*
D17*
X31850000Y4125000D02*
X39550000Y4125000D01*
D17*
X450000Y4375000D02*
X5150000Y4375000D01*
D17*
X7850000Y4375000D02*
X17150000Y4375000D01*
D17*
X19850000Y4375000D02*
X29150000Y4375000D01*
D17*
X31850000Y4375000D02*
X39550000Y4375000D01*
D17*
X450000Y4625000D02*
X5150000Y4625000D01*
D17*
X7850000Y4625000D02*
X17150000Y4625000D01*
D17*
X19850000Y4625000D02*
X29150000Y4625000D01*
D17*
X31850000Y4625000D02*
X39550000Y4625000D01*
D17*
X450000Y4875000D02*
X5150000Y4875000D01*
D17*
X7850000Y4875000D02*
X17150000Y4875000D01*
D17*
X19850000Y4875000D02*
X29150000Y4875000D01*
D17*
X31850000Y4875000D02*
X39550000Y4875000D01*
D17*
X450000Y5125000D02*
X5150000Y5125000D01*
D17*
X7850000Y5125000D02*
X17150000Y5125000D01*
D17*
X19850000Y5125000D02*
X29150000Y5125000D01*
D17*
X31850000Y5125000D02*
X39550000Y5125000D01*
D17*
X450000Y5375000D02*
X5150000Y5375000D01*
D17*
X31850000Y5375000D02*
X39550000Y5375000D01*
D17*
X450000Y5625000D02*
X5150000Y5625000D01*
D17*
X31850000Y5625000D02*
X39550000Y5625000D01*
D17*
X450000Y5875000D02*
X5150000Y5875000D01*
D17*
X31850000Y5875000D02*
X39550000Y5875000D01*
D17*
X450000Y6125000D02*
X5150000Y6125000D01*
D17*
X31850000Y6125000D02*
X39550000Y6125000D01*
D17*
X450000Y6375000D02*
X5150000Y6375000D01*
D17*
X31850000Y6375000D02*
X39550000Y6375000D01*
D17*
X450000Y6625000D02*
X5150000Y6625000D01*
D17*
X31850000Y6625000D02*
X39550000Y6625000D01*
D17*
X450000Y6875000D02*
X6150000Y6875000D01*
D17*
X30850000Y6875000D02*
X39550000Y6875000D01*
D17*
X450000Y7125000D02*
X6150000Y7125000D01*
D17*
X30850000Y7125000D02*
X39550000Y7125000D01*
D17*
X450000Y7375000D02*
X6150000Y7375000D01*
D17*
X30850000Y7375000D02*
X39550000Y7375000D01*
D17*
X450000Y7625000D02*
X6150000Y7625000D01*
D17*
X30850000Y7625000D02*
X39550000Y7625000D01*
D17*
X450000Y7875000D02*
X39550000Y7875000D01*
D17*
X450000Y8125000D02*
X9526100Y8125000D01*
D17*
X10980000Y8125000D02*
X34628400Y8125000D01*
D17*
X36082300Y8125000D02*
X39550000Y8125000D01*
D17*
X450000Y8375000D02*
X9503000Y8375000D01*
D17*
X36105300Y8375000D02*
X39550000Y8375000D01*
D17*
X450000Y8625000D02*
X9503000Y8625000D01*
D17*
X36105300Y8625000D02*
X39550000Y8625000D01*
D17*
X450000Y8875000D02*
X9538300Y8875000D01*
D17*
X10967800Y8875000D02*
X34640600Y8875000D01*
D17*
X36070100Y8875000D02*
X39550000Y8875000D01*
D17*
X450000Y9125000D02*
X15915200Y9125000D01*
D17*
X17318800Y9125000D02*
X39550000Y9125000D01*
D17*
X450000Y9375000D02*
X15867000Y9375000D01*
D17*
X17367000Y9375000D02*
X19182800Y9375000D01*
D17*
X20415200Y9375000D02*
X39550000Y9375000D01*
D17*
X450000Y9625000D02*
X15867000Y9625000D01*
D17*
X17367000Y9625000D02*
X19049000Y9625000D01*
D17*
X20549000Y9625000D02*
X39550000Y9625000D01*
D17*
X450000Y9875000D02*
X15877200Y9875000D01*
D17*
X17356900Y9875000D02*
X19049000Y9875000D01*
D17*
X22930400Y9875000D02*
X39550000Y9875000D01*
D17*
X450000Y10125000D02*
X16192000Y10125000D01*
D17*
X17042000Y10125000D02*
X19049000Y10125000D01*
D17*
X20549000Y10125000D02*
X21870800Y10125000D01*
D17*
X23180400Y10125000D02*
X39550000Y10125000D01*
D17*
X450000Y10375000D02*
X16192000Y10375000D01*
D17*
X17042000Y10375000D02*
X19133800Y10375000D01*
D17*
X20464200Y10375000D02*
X22068300Y10375000D01*
D17*
X23430400Y10375000D02*
X39550000Y10375000D01*
D17*
X450000Y10625000D02*
X16192000Y10625000D01*
D17*
X17042000Y10625000D02*
X20122300Y10625000D01*
D17*
X21597000Y10625000D02*
X22318300Y10625000D01*
D17*
X23680400Y10625000D02*
X39550000Y10625000D01*
D17*
X450000Y10875000D02*
X16192000Y10875000D01*
D17*
X17042000Y10875000D02*
X20109700Y10875000D01*
D17*
X21609700Y10875000D02*
X22568300Y10875000D01*
D17*
X23930400Y10875000D02*
X39550000Y10875000D01*
D17*
X450000Y11125000D02*
X16192000Y11125000D01*
D17*
X17042000Y11125000D02*
X20109700Y11125000D01*
D17*
X21705600Y11125000D02*
X22818300Y11125000D01*
D17*
X24180400Y11125000D02*
X39550000Y11125000D01*
D17*
X450000Y11375000D02*
X16192000Y11375000D01*
D17*
X17042000Y11375000D02*
X20155300Y11375000D01*
D17*
X21955600Y11375000D02*
X23068300Y11375000D01*
D17*
X24430400Y11375000D02*
X39550000Y11375000D01*
D17*
X450000Y11625000D02*
X16192000Y11625000D01*
D17*
X17042000Y11625000D02*
X20843400Y11625000D01*
D17*
X22205600Y11625000D02*
X23318300Y11625000D01*
D17*
X24680400Y11625000D02*
X39550000Y11625000D01*
D17*
X450000Y11875000D02*
X16192000Y11875000D01*
D17*
X17042000Y11875000D02*
X21093400Y11875000D01*
D17*
X22455600Y11875000D02*
X23568300Y11875000D01*
D17*
X24930400Y11875000D02*
X39550000Y11875000D01*
D17*
X450000Y12125000D02*
X16192000Y12125000D01*
D17*
X17042000Y12125000D02*
X21343400Y12125000D01*
D17*
X22705600Y12125000D02*
X23818300Y12125000D01*
D17*
X25180400Y12125000D02*
X39550000Y12125000D01*
D17*
X450000Y12375000D02*
X5280400Y12375000D01*
D17*
X6740400Y12375000D02*
X16192000Y12375000D01*
D17*
X17042000Y12375000D02*
X21593400Y12375000D01*
D17*
X22955600Y12375000D02*
X24068300Y12375000D01*
D17*
X25832300Y12375000D02*
X39550000Y12375000D01*
D17*
X450000Y12625000D02*
X5260400Y12625000D01*
D17*
X6760400Y12625000D02*
X16192000Y12625000D01*
D17*
X17042000Y12625000D02*
X21843400Y12625000D01*
D17*
X23665200Y12625000D02*
X24318300Y12625000D01*
D17*
X25852300Y12625000D02*
X39550000Y12625000D01*
D17*
X450000Y12875000D02*
X5260400Y12875000D01*
D17*
X6838600Y12875000D02*
X16192000Y12875000D01*
D17*
X17042000Y12875000D02*
X22093400Y12875000D01*
D17*
X23731000Y12875000D02*
X24352300Y12875000D01*
D17*
X25852300Y12875000D02*
X39550000Y12875000D01*
D17*
X450000Y13125000D02*
X5298700Y13125000D01*
D17*
X7088600Y13125000D02*
X11755900Y13125000D01*
D17*
X13134200Y13125000D02*
X15150000Y13125000D01*
D17*
X17042000Y13125000D02*
X22231000Y13125000D01*
D17*
X23731000Y13125000D02*
X24390600Y13125000D01*
D17*
X25814000Y13125000D02*
X39550000Y13125000D01*
D17*
X450000Y13375000D02*
X5976400Y13375000D01*
D17*
X7338600Y13375000D02*
X11695100Y13375000D01*
D17*
X17042000Y13375000D02*
X22231000Y13375000D01*
D17*
X23731000Y13375000D02*
X39550000Y13375000D01*
D17*
X450000Y13625000D02*
X6226400Y13625000D01*
D17*
X7588600Y13625000D02*
X11695100Y13625000D01*
D17*
X17042000Y13625000D02*
X20589700Y13625000D01*
D17*
X21836800Y13625000D02*
X23418100Y13625000D01*
D17*
X24665200Y13625000D02*
X39550000Y13625000D01*
D17*
X450000Y13875000D02*
X6476400Y13875000D01*
D17*
X7838600Y13875000D02*
X11695100Y13875000D01*
D17*
X13195100Y13875000D02*
X15089200Y13875000D01*
D17*
X17042000Y13875000D02*
X20463200Y13875000D01*
D17*
X21963200Y13875000D02*
X23291600Y13875000D01*
D17*
X24791600Y13875000D02*
X39550000Y13875000D01*
D17*
X450000Y14125000D02*
X6726400Y14125000D01*
D17*
X8088600Y14125000D02*
X15894400Y14125000D01*
D17*
X17339600Y14125000D02*
X20463200Y14125000D01*
D17*
X24791600Y14125000D02*
X39550000Y14125000D01*
D17*
X450000Y14375000D02*
X6976400Y14375000D01*
D17*
X8338600Y14375000D02*
X11707900Y14375000D01*
D17*
X13040800Y14375000D02*
X15867000Y14375000D01*
D17*
X17367000Y14375000D02*
X20463200Y14375000D01*
D17*
X21963200Y14375000D02*
X23291600Y14375000D01*
D17*
X24791600Y14375000D02*
X39550000Y14375000D01*
D17*
X450000Y14625000D02*
X7226400Y14625000D01*
D17*
X8588600Y14625000D02*
X11624400Y14625000D01*
D17*
X13124400Y14625000D02*
X15867000Y14625000D01*
D17*
X17367000Y14625000D02*
X20555400Y14625000D01*
D17*
X21871000Y14625000D02*
X23383800Y14625000D01*
D17*
X24699500Y14625000D02*
X39550000Y14625000D01*
D17*
X450000Y14875000D02*
X7476400Y14875000D01*
D17*
X8838600Y14875000D02*
X11624400Y14875000D01*
D17*
X13124400Y14875000D02*
X15898000Y14875000D01*
D17*
X17336000Y14875000D02*
X39550000Y14875000D01*
D17*
X450000Y15125000D02*
X7726400Y15125000D01*
D17*
X9088600Y15125000D02*
X11624400Y15125000D01*
D17*
X13331200Y15125000D02*
X24051300Y15125000D01*
D17*
X25446200Y15125000D02*
X39550000Y15125000D01*
D17*
X450000Y15375000D02*
X7976400Y15375000D01*
D17*
X9338600Y15375000D02*
X12219100Y15375000D01*
D17*
X25498700Y15375000D02*
X39550000Y15375000D01*
D17*
X450000Y15625000D02*
X8226400Y15625000D01*
D17*
X9588600Y15625000D02*
X12469100Y15625000D01*
D17*
X25498700Y15625000D02*
X39550000Y15625000D01*
D17*
X450000Y15875000D02*
X8476400Y15875000D01*
D17*
X9838600Y15875000D02*
X24004600Y15875000D01*
D17*
X25492900Y15875000D02*
X39550000Y15875000D01*
D17*
X450000Y16125000D02*
X8726400Y16125000D01*
D17*
X10088600Y16125000D02*
X39550000Y16125000D01*
D17*
X450000Y16375000D02*
X8976400Y16375000D01*
D17*
X10338600Y16375000D02*
X39550000Y16375000D01*
D17*
X450000Y16625000D02*
X9226400Y16625000D01*
D17*
X10588600Y16625000D02*
X39550000Y16625000D01*
D17*
X450000Y16875000D02*
X9476400Y16875000D01*
D17*
X10838600Y16875000D02*
X39550000Y16875000D01*
D17*
X450000Y17125000D02*
X9726400Y17125000D01*
D17*
X11088600Y17125000D02*
X39550000Y17125000D01*
D17*
X450000Y17375000D02*
X9976400Y17375000D01*
D17*
X11710200Y17375000D02*
X39550000Y17375000D01*
D17*
X450000Y17625000D02*
X10210200Y17625000D01*
D17*
X11710200Y17625000D02*
X39550000Y17625000D01*
D17*
X450000Y17875000D02*
X10210200Y17875000D01*
D17*
X11710200Y17875000D02*
X39550000Y17875000D01*
D17*
X450000Y18125000D02*
X10269300Y18125000D01*
D17*
X11651000Y18125000D02*
X39550000Y18125000D01*
D17*
X450000Y18375000D02*
X39550000Y18375000D01*
D17*
X450000Y18625000D02*
X39550000Y18625000D01*
D17*
X450000Y18875000D02*
X39550000Y18875000D01*
D17*
X450000Y19125000D02*
X39550000Y19125000D01*
D17*
X450000Y19375000D02*
X39550000Y19375000D01*
D17*
X450000Y19625000D02*
X39550000Y19625000D01*
D17*
X450000Y19875000D02*
X39550000Y19875000D01*
D17*
X462300Y20125000D02*
X39537700Y20125000D01*
D17*
X486900Y20375000D02*
X39513100Y20375000D01*
D17*
X559700Y20625000D02*
X39440300Y20625000D01*
D17*
X660800Y20875000D02*
X39339200Y20875000D01*
D17*
X798400Y21125000D02*
X39201600Y21125000D01*
D17*
X1003600Y21375000D02*
X38996400Y21375000D01*
D17*
X1292600Y21625000D02*
X38707400Y21625000D01*
D17*
X1774400Y21875000D02*
X38225600Y21875000D01*
M02*
