%FSLAX46Y46*%
%MOMM*%
%TF.GenerationSoftware,ce-cad,cecad.pcbfab,1.0*%
%TF.FileFunction,Legend,Top*%
%TF.FilePolarity,Positive*%
%TF.ProjectId,microduck_imu_to_dxl,,*%
G04 layer F.Silk — ce-cad*
G04 numbers in this file are TRANSCRIBED, not measured; see README.txt*
%LPD*%
G01*
%ADD10C,0.150000*%
D10*
X9150000Y9100000D02*
X13850000Y9100000D01*
D10*
X9150000Y15900000D02*
X13850000Y15900000D01*
D10*
X8800000Y15700000D02*
X8800000Y15300000D01*
D10*
X6610000Y10050000D02*
X6610000Y11950000D01*
D10*
X3390000Y10050000D02*
X3390000Y11950000D01*
D10*
X3590000Y9700000D02*
X3990000Y9700000D01*
D10*
X2293934Y15656066D02*
X4706066Y15656066D01*
D10*
X2293934Y14343934D02*
X4706066Y14343934D01*
D10*
X6593934Y19881066D02*
X9406066Y19881066D01*
D10*
X6593934Y18118934D02*
X9406066Y18118934D01*
D10*
X10793934Y19656066D02*
X13206066Y19656066D01*
D10*
X10793934Y18343934D02*
X13206066Y18343934D01*
D10*
X20793934Y17156066D02*
X23206066Y17156066D01*
D10*
X20793934Y15843934D02*
X23206066Y15843934D01*
D10*
X26793934Y17156066D02*
X29206066Y17156066D01*
D10*
X26793934Y15843934D02*
X29206066Y15843934D01*
D10*
X15793934Y13156066D02*
X18206066Y13156066D01*
D10*
X15793934Y11843934D02*
X18206066Y11843934D01*
D10*
X34343934Y11293934D02*
X34343934Y13706066D01*
D10*
X35656066Y11293934D02*
X35656066Y13706066D01*
D10*
X15793934Y10156066D02*
X18206066Y10156066D01*
D10*
X15793934Y8843934D02*
X18206066Y8843934D01*
D10*
X30293934Y9156066D02*
X32706066Y9156066D01*
D10*
X30293934Y7843934D02*
X32706066Y7843934D01*
D10*
X33793934Y9156066D02*
X36206066Y9156066D01*
D10*
X33793934Y7843934D02*
X36206066Y7843934D01*
D10*
X7000000Y8000000D02*
X7000000Y9100000D01*
D10*
X7000000Y9100000D02*
X7330000Y8440000D01*
D10*
X7330000Y8440000D02*
X7660000Y9100000D01*
D10*
X7660000Y9100000D02*
X7660000Y8000000D01*
D10*
X8265000Y8000000D02*
X8265000Y9100000D01*
D10*
X8067000Y9100000D02*
X8463000Y9100000D01*
D10*
X8067000Y8000000D02*
X8463000Y8000000D01*
D10*
X9530000Y9100000D02*
X8870000Y9100000D01*
D10*
X8870000Y9100000D02*
X8870000Y8000000D01*
D10*
X8870000Y8000000D02*
X9530000Y8000000D01*
D10*
X9805000Y8000000D02*
X9805000Y9100000D01*
D10*
X9805000Y9100000D02*
X10465000Y9100000D01*
D10*
X10465000Y9100000D02*
X10465000Y8550000D01*
D10*
X10465000Y8550000D02*
X9805000Y8550000D01*
D10*
X10069000Y8550000D02*
X10465000Y8000000D01*
D10*
X10740000Y8000000D02*
X11400000Y8000000D01*
D10*
X11400000Y8000000D02*
X11400000Y9100000D01*
D10*
X11400000Y9100000D02*
X10740000Y9100000D01*
D10*
X10740000Y9100000D02*
X10740000Y8000000D01*
D10*
X11675000Y8000000D02*
X11675000Y9100000D01*
D10*
X11675000Y9100000D02*
X12269000Y8660000D01*
D10*
X12269000Y8660000D02*
X12269000Y8440000D01*
D10*
X12269000Y8440000D02*
X11675000Y8000000D01*
D10*
X12610000Y9100000D02*
X12610000Y8000000D01*
D10*
X12610000Y8000000D02*
X13270000Y8000000D01*
D10*
X13270000Y8000000D02*
X13270000Y9100000D01*
D10*
X14205000Y9100000D02*
X13545000Y9100000D01*
D10*
X13545000Y9100000D02*
X13545000Y8000000D01*
D10*
X13545000Y8000000D02*
X14205000Y8000000D01*
D10*
X14480000Y8000000D02*
X14480000Y9100000D01*
D10*
X15140000Y9100000D02*
X14480000Y8550000D01*
D10*
X14480000Y8550000D02*
X15140000Y8000000D01*
D10*
X16680000Y8000000D02*
X16680000Y9100000D01*
D10*
X16482000Y9100000D02*
X16878000Y9100000D01*
D10*
X16482000Y8000000D02*
X16878000Y8000000D01*
D10*
X17285000Y8000000D02*
X17285000Y9100000D01*
D10*
X17285000Y9100000D02*
X17615000Y8440000D01*
D10*
X17615000Y8440000D02*
X17945000Y9100000D01*
D10*
X17945000Y9100000D02*
X17945000Y8000000D01*
D10*
X18220000Y9100000D02*
X18220000Y8000000D01*
D10*
X18220000Y8000000D02*
X18880000Y8000000D01*
D10*
X18880000Y8000000D02*
X18880000Y9100000D01*
D10*
X19155000Y8000000D02*
X19815000Y8000000D01*
D10*
X20090000Y9100000D02*
X20750000Y9100000D01*
D10*
X20420000Y9100000D02*
X20420000Y8000000D01*
D10*
X21025000Y8000000D02*
X21685000Y8000000D01*
D10*
X21685000Y8000000D02*
X21685000Y9100000D01*
D10*
X21685000Y9100000D02*
X21025000Y9100000D01*
D10*
X21025000Y9100000D02*
X21025000Y8000000D01*
D10*
X21960000Y8000000D02*
X22620000Y8000000D01*
D10*
X22895000Y8000000D02*
X22895000Y9100000D01*
D10*
X22895000Y9100000D02*
X23489000Y8660000D01*
D10*
X23489000Y8660000D02*
X23489000Y8440000D01*
D10*
X23489000Y8440000D02*
X22895000Y8000000D01*
D10*
X23830000Y8000000D02*
X24490000Y9100000D01*
D10*
X23830000Y9100000D02*
X24490000Y8000000D01*
D10*
X24765000Y9100000D02*
X24765000Y8000000D01*
D10*
X24765000Y8000000D02*
X25425000Y8000000D01*
D10*
X26635000Y9100000D02*
X26965000Y8000000D01*
D10*
X26965000Y8000000D02*
X27295000Y9100000D01*
D10*
X27570000Y9100000D02*
X28230000Y9100000D01*
D10*
X28230000Y9100000D02*
X28230000Y8550000D01*
D10*
X28230000Y8550000D02*
X27570000Y8550000D01*
D10*
X27570000Y8550000D02*
X27570000Y8000000D01*
D10*
X27570000Y8000000D02*
X28230000Y8000000D01*
D10*
X18000000Y8000000D02*
X18540000Y8000000D01*
D10*
X18540000Y8000000D02*
X18540000Y8900000D01*
D10*
X18540000Y8900000D02*
X18000000Y8900000D01*
D10*
X18000000Y8900000D02*
X18000000Y8000000D01*
D10*
X18765000Y8900000D02*
X18765000Y8000000D01*
D10*
X18765000Y8000000D02*
X19305000Y8000000D01*
D10*
X19305000Y8000000D02*
X19305000Y8900000D01*
D10*
X19530000Y8000000D02*
X19530000Y8900000D01*
D10*
X19530000Y8900000D02*
X20070000Y8900000D01*
D10*
X20070000Y8900000D02*
X20070000Y8450000D01*
D10*
X20070000Y8450000D02*
X19530000Y8450000D01*
D10*
X19746000Y8450000D02*
X20070000Y8000000D01*
D10*
X21060000Y8000000D02*
X21060000Y8900000D01*
D10*
X21060000Y8900000D02*
X21600000Y8900000D01*
D10*
X21600000Y8900000D02*
X21600000Y8450000D01*
D10*
X21600000Y8450000D02*
X21060000Y8450000D01*
D10*
X21276000Y8450000D02*
X21600000Y8000000D01*
D10*
X22365000Y8900000D02*
X21825000Y8900000D01*
D10*
X21825000Y8900000D02*
X21825000Y8000000D01*
D10*
X21825000Y8000000D02*
X22365000Y8000000D01*
D10*
X21825000Y8450000D02*
X22203000Y8450000D01*
D10*
X23130000Y8900000D02*
X22590000Y8900000D01*
D10*
X22590000Y8900000D02*
X22590000Y8000000D01*
D10*
X22590000Y8000000D02*
X23130000Y8000000D01*
D10*
X23355000Y8000000D02*
X23895000Y8000000D01*
D10*
X23895000Y8000000D02*
X23895000Y8900000D01*
D10*
X23895000Y8900000D02*
X23355000Y8900000D01*
D10*
X23355000Y8900000D02*
X23355000Y8000000D01*
D10*
X24120000Y8000000D02*
X24120000Y8900000D01*
D10*
X24120000Y8900000D02*
X24660000Y8000000D01*
D10*
X24660000Y8000000D02*
X24660000Y8900000D01*
D10*
X25425000Y8900000D02*
X24885000Y8900000D01*
D10*
X24885000Y8900000D02*
X24885000Y8450000D01*
D10*
X24885000Y8450000D02*
X25425000Y8450000D01*
D10*
X25425000Y8450000D02*
X25425000Y8000000D01*
D10*
X25425000Y8000000D02*
X24885000Y8000000D01*
D10*
X25650000Y8900000D02*
X26190000Y8900000D01*
D10*
X25920000Y8900000D02*
X25920000Y8000000D01*
D10*
X26415000Y8000000D02*
X26415000Y8900000D01*
D10*
X26415000Y8900000D02*
X26955000Y8900000D01*
D10*
X26955000Y8900000D02*
X26955000Y8450000D01*
D10*
X26955000Y8450000D02*
X26415000Y8450000D01*
D10*
X26631000Y8450000D02*
X26955000Y8000000D01*
D10*
X27180000Y8900000D02*
X27180000Y8000000D01*
D10*
X27180000Y8000000D02*
X27720000Y8000000D01*
D10*
X27720000Y8000000D02*
X27720000Y8900000D01*
D10*
X28485000Y8900000D02*
X27945000Y8900000D01*
D10*
X27945000Y8900000D02*
X27945000Y8000000D01*
D10*
X27945000Y8000000D02*
X28485000Y8000000D01*
D10*
X28710000Y8900000D02*
X29250000Y8900000D01*
D10*
X28980000Y8900000D02*
X28980000Y8000000D01*
D10*
X29745000Y8000000D02*
X29745000Y8900000D01*
D10*
X29583000Y8900000D02*
X29907000Y8900000D01*
D10*
X29583000Y8000000D02*
X29907000Y8000000D01*
D10*
X30240000Y8000000D02*
X30780000Y8000000D01*
D10*
X30780000Y8000000D02*
X30780000Y8900000D01*
D10*
X30780000Y8900000D02*
X30240000Y8900000D01*
D10*
X30240000Y8900000D02*
X30240000Y8000000D01*
D10*
X31005000Y8000000D02*
X31005000Y8900000D01*
D10*
X31005000Y8900000D02*
X31545000Y8000000D01*
D10*
X31545000Y8000000D02*
X31545000Y8900000D01*
D10*
X32643000Y8450000D02*
X32967000Y8450000D01*
D10*
X34065000Y8000000D02*
X34065000Y8900000D01*
D10*
X34065000Y8900000D02*
X34605000Y8000000D01*
D10*
X34605000Y8000000D02*
X34605000Y8900000D01*
D10*
X34830000Y8000000D02*
X35370000Y8000000D01*
D10*
X35370000Y8000000D02*
X35370000Y8900000D01*
D10*
X35370000Y8900000D02*
X34830000Y8900000D01*
D10*
X34830000Y8900000D02*
X34830000Y8000000D01*
D10*
X35595000Y8900000D02*
X36135000Y8900000D01*
D10*
X35865000Y8900000D02*
X35865000Y8000000D01*
D10*
X37125000Y8000000D02*
X37125000Y8900000D01*
D10*
X37125000Y8900000D02*
X37665000Y8900000D01*
D10*
X37665000Y8900000D02*
X37665000Y8450000D01*
D10*
X37665000Y8450000D02*
X37125000Y8450000D01*
D10*
X37890000Y8000000D02*
X38430000Y8000000D01*
D10*
X38430000Y8000000D02*
X38430000Y8900000D01*
D10*
X38430000Y8900000D02*
X37890000Y8900000D01*
D10*
X37890000Y8900000D02*
X37890000Y8000000D01*
D10*
X38655000Y8900000D02*
X38655000Y8000000D01*
D10*
X38655000Y8000000D02*
X39195000Y8000000D01*
D10*
X39420000Y8900000D02*
X39420000Y8000000D01*
D10*
X39420000Y8000000D02*
X39960000Y8000000D01*
D10*
X40725000Y8900000D02*
X40185000Y8900000D01*
D10*
X40185000Y8900000D02*
X40185000Y8000000D01*
D10*
X40185000Y8000000D02*
X40725000Y8000000D01*
D10*
X40185000Y8450000D02*
X40563000Y8450000D01*
D10*
X40950000Y8000000D02*
X40950000Y8900000D01*
D10*
X40950000Y8900000D02*
X41490000Y8000000D01*
D10*
X41490000Y8000000D02*
X41490000Y8900000D01*
D10*
X43020000Y8900000D02*
X42480000Y8900000D01*
D10*
X42480000Y8900000D02*
X42480000Y8450000D01*
D10*
X42480000Y8450000D02*
X43020000Y8450000D01*
D10*
X43020000Y8450000D02*
X43020000Y8000000D01*
D10*
X43020000Y8000000D02*
X42480000Y8000000D01*
D10*
X44010000Y8000000D02*
X44010000Y8900000D01*
D10*
X44010000Y8900000D02*
X44442000Y8720000D01*
D10*
X44442000Y8720000D02*
X44010000Y8450000D01*
D10*
X44010000Y8450000D02*
X44496000Y8180000D01*
D10*
X44496000Y8180000D02*
X44010000Y8000000D01*
D10*
X44775000Y8000000D02*
X45315000Y8000000D01*
D10*
X45315000Y8000000D02*
X45315000Y8900000D01*
D10*
X45315000Y8900000D02*
X44775000Y8900000D01*
D10*
X44775000Y8900000D02*
X44775000Y8000000D01*
D10*
X45540000Y8000000D02*
X45810000Y8900000D01*
D10*
X45810000Y8900000D02*
X46080000Y8000000D01*
D10*
X45675000Y8450000D02*
X45945000Y8450000D01*
D10*
X46305000Y8000000D02*
X46305000Y8900000D01*
D10*
X46305000Y8900000D02*
X46845000Y8900000D01*
D10*
X46845000Y8900000D02*
X46845000Y8450000D01*
D10*
X46845000Y8450000D02*
X46305000Y8450000D01*
D10*
X46521000Y8450000D02*
X46845000Y8000000D01*
D10*
X47070000Y8000000D02*
X47070000Y8900000D01*
D10*
X47070000Y8900000D02*
X47556000Y8540000D01*
D10*
X47556000Y8540000D02*
X47556000Y8360000D01*
D10*
X47556000Y8360000D02*
X47070000Y8000000D01*
D10*
X22500000Y20600000D02*
X22500000Y21500000D01*
D10*
X22500000Y21500000D02*
X22986000Y21140000D01*
D10*
X22986000Y21140000D02*
X22986000Y20960000D01*
D10*
X22986000Y20960000D02*
X22500000Y20600000D01*
D10*
X23265000Y20600000D02*
X23805000Y21500000D01*
D10*
X23265000Y21500000D02*
X23805000Y20600000D01*
D10*
X24030000Y21500000D02*
X24030000Y20600000D01*
D10*
X24030000Y20600000D02*
X24570000Y20600000D01*
D10*
X25830000Y20600000D02*
X25830000Y21500000D01*
D10*
X25668000Y21500000D02*
X25992000Y21500000D01*
D10*
X25668000Y20600000D02*
X25992000Y20600000D01*
D10*
X26325000Y20600000D02*
X26325000Y21500000D01*
D10*
X26325000Y21500000D02*
X26811000Y21140000D01*
D10*
X26811000Y21140000D02*
X26811000Y20960000D01*
D10*
X26811000Y20960000D02*
X26325000Y20600000D01*
D10*
X27855000Y21500000D02*
X28395000Y21500000D01*
D10*
X28395000Y21500000D02*
X28395000Y21050000D01*
D10*
X28395000Y21050000D02*
X27855000Y21050000D01*
D10*
X27855000Y21050000D02*
X27855000Y20600000D01*
D10*
X27855000Y20600000D02*
X28395000Y20600000D01*
D10*
X28620000Y20600000D02*
X29160000Y20600000D01*
D10*
X29160000Y20600000D02*
X29160000Y21500000D01*
D10*
X29160000Y21500000D02*
X28620000Y21500000D01*
D10*
X28620000Y21500000D02*
X28620000Y20600000D01*
D10*
X29385000Y20600000D02*
X29925000Y20600000D01*
D10*
X29925000Y20600000D02*
X29925000Y21500000D01*
D10*
X29925000Y21500000D02*
X29385000Y21500000D01*
D10*
X29385000Y21500000D02*
X29385000Y20600000D01*
M02*
