0
SECTION
2
HEADER
9
$ACADVER
1
AC1009
9
$INSUNITS
70
4
9
$LTSCALE
40
1.0
9
$EXTMIN
10
0.0000
20
0.0000
30
0.0
9
$EXTMAX
10
1189.0000
20
841.0000
30
0.0
0
ENDSEC
0
SECTION
2
TABLES
0
TABLE
2
LTYPE
70
4
0
LTYPE
2
CONTINUOUS
70
0
3
Solid line
72
65
73
0
40
0.0000
0
LTYPE
2
HIDDEN
70
0
3
Hidden __ __ __ __
72
65
73
2
40
3.6000
49
2.4000
49
-1.2000
0
LTYPE
2
CENTER
70
0
3
Center ____ _ ____ _
72
65
73
4
40
11.2000
49
7.0000
49
-1.4000
49
1.4000
49
-1.4000
0
LTYPE
2
PHANTOM
70
0
3
Phantom ____ _ _ ____
72
65
73
6
40
21.0000
49
11.0000
49
-2.0000
49
2.0000
49
-2.0000
49
2.0000
49
-2.0000
0
ENDTAB
0
TABLE
2
LAYER
70
12
0
LAYER
2
0
70
0
62
7
6
CONTINUOUS
0
LAYER
2
VISIBLE
70
0
62
7
6
CONTINUOUS
0
LAYER
2
SECTION
70
0
62
7
6
CONTINUOUS
0
LAYER
2
HIDDEN
70
0
62
8
6
HIDDEN
0
LAYER
2
CENTER
70
0
62
4
6
CENTER
0
LAYER
2
DIM
70
0
62
3
6
CONTINUOUS
0
LAYER
2
TEXT
70
0
62
3
6
CONTINUOUS
0
LAYER
2
HATCH
70
0
62
5
6
CONTINUOUS
0
LAYER
2
CUT
70
0
62
1
6
PHANTOM
0
LAYER
2
CUTTHIN
70
0
62
1
6
PHANTOM
0
LAYER
2
FRAME
70
0
62
7
6
CONTINUOUS
0
LAYER
2
TITLE
70
0
62
7
6
CONTINUOUS
0
ENDTAB
0
ENDSEC
0
SECTION
2
ENTITIES
0
LINE
8
FRAME
10
10.000000
20
10.000000
30
0.0
11
1179.000000
21
10.000000
31
0.0
0
LINE
8
FRAME
10
1179.000000
20
10.000000
30
0.0
11
1179.000000
21
831.000000
31
0.0
0
LINE
8
FRAME
10
1179.000000
20
831.000000
30
0.0
11
10.000000
21
831.000000
31
0.0
0
LINE
8
FRAME
10
10.000000
20
831.000000
30
0.0
11
10.000000
21
10.000000
31
0.0
0
LINE
8
VISIBLE
10
10.000000
20
388.660000
30
0.0
11
476.600000
21
388.660000
31
0.0
0
LINE
8
VISIBLE
10
476.600000
20
388.660000
30
0.0
11
476.600000
21
831.152333
31
0.0
0
LINE
8
VISIBLE
10
476.600000
20
831.152333
30
0.0
11
10.000000
21
831.152333
31
0.0
0
LINE
8
VISIBLE
10
10.000000
20
831.152333
30
0.0
11
10.000000
21
388.660000
31
0.0
0
LINE
8
TITLE
10
10.000000
20
388.660000
30
0.0
11
476.600000
21
388.660000
31
0.0
0
LINE
8
TITLE
10
476.600000
20
388.660000
30
0.0
11
476.600000
21
831.152333
31
0.0
0
LINE
8
TITLE
10
476.600000
20
831.152333
30
0.0
11
10.000000
21
831.152333
31
0.0
0
LINE
8
TITLE
10
10.000000
20
831.152333
30
0.0
11
10.000000
21
388.660000
31
0.0
0
TEXT
8
TEXT
10
243.300000
20
392.660000
30
0.0
40
5.0000
1
ISOMETRIC 1 FRONT LEFT / CONTEXT
72
1
73
0
11
243.300000
21
392.660000
31
0.0
0
TEXT
8
TEXT
10
243.300000
20
399.660000
30
0.0
40
3.5000
1
RENDER 1 / SCALE 5.89745:1
72
1
73
0
11
243.300000
21
399.660000
31
0.0
0
TEXT
8
TEXT
10
13.000000
20
819.152333
30
0.0
40
3.5000
1
MICRODUCK-SHIN — NOMINAL mm
0
TEXT
8
TEXT
10
13.000000
20
814.152333
30
0.0
40
3.5000
1
outline envelope length
0
TEXT
8
DIM
10
191.584167
20
814.152333
30
0.0
40
3.5000
1
7.9500
72
2
73
0
11
191.584167
21
814.152333
31
0.0
0
TEXT
8
TEXT
10
13.000000
20
809.152333
30
0.0
40
3.5000
1
outline envelope width
0
TEXT
8
DIM
10
191.584167
20
809.152333
30
0.0
40
3.5000
1
20.0000
72
2
73
0
11
191.584167
21
809.152333
31
0.0
0
TEXT
8
TEXT
10
13.000000
20
804.152333
30
0.0
40
3.5000
1
outline envelope height
0
TEXT
8
DIM
10
191.584167
20
804.152333
30
0.0
40
3.5000
1
58.0000
72
2
73
0
11
191.584167
21
804.152333
31
0.0
0
TEXT
8
TEXT
10
13.000000
20
799.152333
30
0.0
40
3.5000
1
hole 1 diameter (along x)
0
TEXT
8
DIM
10
191.584167
20
799.152333
30
0.0
40
3.5000
1
Ø6.0000
72
2
73
0
11
191.584167
21
799.152333
31
0.0
0
TEXT
8
TEXT
10
13.000000
20
794.152333
30
0.0
40
3.5000
1
hole 1 depth
0
TEXT
8
DIM
10
191.584167
20
794.152333
30
0.0
40
3.5000
1
7.2500
72
2
73
0
11
191.584167
21
794.152333
31
0.0
0
TEXT
8
TEXT
10
13.000000
20
789.152333
30
0.0
40
3.5000
1
hole 1 position from the Y datum face
0
TEXT
8
DIM
10
191.584167
20
789.152333
30
0.0
40
3.5000
1
10.0000
72
2
73
0
11
191.584167
21
789.152333
31
0.0
0
TEXT
8
TEXT
10
13.000000
20
784.152333
30
0.0
40
3.5000
1
hole 1 position from the Z datum face
0
TEXT
8
DIM
10
191.584167
20
784.152333
30
0.0
40
3.5000
1
48.0000
72
2
73
0
11
191.584167
21
784.152333
31
0.0
0
TEXT
8
TEXT
10
13.000000
20
779.152333
30
0.0
40
3.5000
1
counterbore 2 diameter (along x)
0
TEXT
8
DIM
10
191.584167
20
779.152333
30
0.0
40
3.5000
1
Ø5.5000
72
2
73
0
11
191.584167
21
779.152333
31
0.0
0
TEXT
8
TEXT
10
13.000000
20
774.152333
30
0.0
40
3.5000
1
counterbore 2 depth
0
TEXT
8
DIM
10
191.584167
20
774.152333
30
0.0
40
3.5000
1
3.4900
72
2
73
0
11
191.584167
21
774.152333
31
0.0
0
TEXT
8
TEXT
10
13.000000
20
769.152333
30
0.0
40
3.5000
1
counterbore 2 position from the Y datum face
0
TEXT
8
DIM
10
191.584167
20
769.152333
30
0.0
40
3.5000
1
10.0000
72
2
73
0
11
191.584167
21
769.152333
31
0.0
0
TEXT
8
TEXT
10
13.000000
20
764.152333
30
0.0
40
3.5000
1
counterbore 2 position from the Z datum face
0
TEXT
8
DIM
10
191.584167
20
764.152333
30
0.0
40
3.5000
1
6.0000
72
2
73
0
11
191.584167
21
764.152333
31
0.0
0
TEXT
8
TEXT
10
13.000000
20
759.152333
30
0.0
40
3.5000
1
counterbore 3 diameter (along x)
0
TEXT
8
DIM
10
191.584167
20
759.152333
30
0.0
40
3.5000
1
Ø4.8400
72
2
73
0
11
191.584167
21
759.152333
31
0.0
0
TEXT
8
TEXT
10
13.000000
20
754.152333
30
0.0
40
3.5000
1
counterbore 3 depth
0
TEXT
8
DIM
10
191.584167
20
754.152333
30
0.0
40
3.5000
1
3.0000
72
2
73
0
11
191.584167
21
754.152333
31
0.0
0
TEXT
8
TEXT
10
13.000000
20
749.152333
30
0.0
40
3.5000
1
counterbore 3 position from the Y datum face
0
TEXT
8
DIM
10
191.584167
20
749.152333
30
0.0
40
3.5000
1
2.0000
72
2
73
0
11
191.584167
21
749.152333
31
0.0
0
TEXT
8
TEXT
10
13.000000
20
744.152333
30
0.0
40
3.5000
1
counterbore 3 position from the Z datum face
0
TEXT
8
DIM
10
191.584167
20
744.152333
30
0.0
40
3.5000
1
28.5000
72
2
73
0
11
191.584167
21
744.152333
31
0.0
0
TEXT
8
TEXT
10
13.000000
20
739.152333
30
0.0
40
3.5000
1
counterbore 4 diameter (along x)
0
TEXT
8
DIM
10
191.584167
20
739.152333
30
0.0
40
3.5000
1
Ø4.8400
72
2
73
0
11
191.584167
21
739.152333
31
0.0
0
TEXT
8
TEXT
10
13.000000
20
734.152333
30
0.0
40
3.5000
1
counterbore 4 depth
0
TEXT
8
DIM
10
191.584167
20
734.152333
30
0.0
40
3.5000
1
3.0000
72
2
73
0
11
191.584167
21
734.152333
31
0.0
0
TEXT
8
TEXT
10
13.000000
20
729.152333
30
0.0
40
3.5000
1
counterbore 4 position from the Y datum face
0
TEXT
8
DIM
10
191.584167
20
729.152333
30
0.0
40
3.5000
1
18.0000
72
2
73
0
11
191.584167
21
729.152333
31
0.0
0
TEXT
8
TEXT
10
13.000000
20
724.152333
30
0.0
40
3.5000
1
counterbore 4 position from the Z datum face
0
TEXT
8
DIM
10
191.584167
20
724.152333
30
0.0
40
3.5000
1
28.5000
72
2
73
0
11
191.584167
21
724.152333
31
0.0
0
TEXT
8
TEXT
10
295.404667
20
819.152333
30
0.0
40
3.5000
1
CANNOT DETERMINE — chamfer: A4 requires size and angle on every chamfer; cecad.inspect
0
TEXT
8
TEXT
10
295.404667
20
814.152333
30
0.0
40
3.5000
1
has no chamfer classifier — a chamfer is a planar face bridging two faces at an angle
0
TEXT
8
TEXT
10
295.404667
20
809.152333
30
0.0
40
3.5000
1
and nothing here identifies one SETTLED BY: a chamfer classifier in cecad.inspect
0
TEXT
8
TEXT
10
295.404667
20
804.152333
30
0.0
40
3.5000
1
(planar face whose two neighbours meet it at equal angles), or the builder declaring
0
TEXT
8
TEXT
10
295.404667
20
799.152333
30
0.0
40
3.5000
1
its chamfers in the part record
0
LINE
8
VISIBLE
10
477.600000
20
388.660000
30
0.0
11
827.300000
21
388.660000
31
0.0
0
LINE
8
VISIBLE
10
827.300000
20
388.660000
30
0.0
11
827.300000
21
831.030500
31
0.0
0
LINE
8
VISIBLE
10
827.300000
20
831.030500
30
0.0
11
477.600000
21
831.030500
31
0.0
0
LINE
8
VISIBLE
10
477.600000
20
831.030500
30
0.0
11
477.600000
21
388.660000
31
0.0
0
LINE
8
TITLE
10
477.600000
20
388.660000
30
0.0
11
827.300000
21
388.660000
31
0.0
0
LINE
8
TITLE
10
827.300000
20
388.660000
30
0.0
11
827.300000
21
831.030500
31
0.0
0
LINE
8
TITLE
10
827.300000
20
831.030500
30
0.0
11
477.600000
21
831.030500
31
0.0
0
LINE
8
TITLE
10
477.600000
20
831.030500
30
0.0
11
477.600000
21
388.660000
31
0.0
0
TEXT
8
TEXT
10
652.450000
20
392.660000
30
0.0
40
5.0000
1
ISOMETRIC 2 FRONT RIGHT / CONTEXT
72
1
73
0
11
652.450000
21
392.660000
31
0.0
0
TEXT
8
TEXT
10
652.450000
20
399.660000
30
0.0
40
3.5000
1
RENDER 2 / SCALE 5.89745:1
72
1
73
0
11
652.450000
21
399.660000
31
0.0
0
TEXT
8
TEXT
10
480.600000
20
819.030500
30
0.0
40
3.5000
1
MEASURED FEATURES — mm
0
TEXT
8
TEXT
10
480.600000
20
814.030500
30
0.0
40
3.5000
1
counterbore 5 diameter (along x)
0
TEXT
8
DIM
10
600.863250
20
814.030500
30
0.0
40
3.5000
1
Ø4.4000
72
2
73
0
11
600.863250
21
814.030500
31
0.0
0
TEXT
8
TEXT
10
480.600000
20
809.030500
30
0.0
40
3.5000
1
counterbore 5 depth
0
TEXT
8
DIM
10
600.863250
20
809.030500
30
0.0
40
3.5000
1
4.4900
72
2
73
0
11
600.863250
21
809.030500
31
0.0
0
TEXT
8
TEXT
10
480.600000
20
804.030500
30
0.0
40
3.5000
1
counterbore 5 position from the Y datum face
0
TEXT
8
DIM
10
600.863250
20
804.030500
30
0.0
40
3.5000
1
5.7570
72
2
73
0
11
600.863250
21
804.030500
31
0.0
0
TEXT
8
TEXT
10
480.600000
20
799.030500
30
0.0
40
3.5000
1
counterbore 5 position from the Z datum face
0
TEXT
8
DIM
10
600.863250
20
799.030500
30
0.0
40
3.5000
1
43.7570
72
2
73
0
11
600.863250
21
799.030500
31
0.0
0
TEXT
8
TEXT
10
480.600000
20
794.030500
30
0.0
40
3.5000
1
counterbore 6 diameter (along x)
0
TEXT
8
DIM
10
600.863250
20
794.030500
30
0.0
40
3.5000
1
Ø4.4000
72
2
73
0
11
600.863250
21
794.030500
31
0.0
0
TEXT
8
TEXT
10
480.600000
20
789.030500
30
0.0
40
3.5000
1
counterbore 6 depth
0
TEXT
8
DIM
10
600.863250
20
789.030500
30
0.0
40
3.5000
1
4.4900
72
2
73
0
11
600.863250
21
789.030500
31
0.0
0
TEXT
8
TEXT
10
480.600000
20
784.030500
30
0.0
40
3.5000
1
counterbore 6 position from the Y datum face
0
TEXT
8
DIM
10
600.863250
20
784.030500
30
0.0
40
3.5000
1
5.7570
72
2
73
0
11
600.863250
21
784.030500
31
0.0
0
TEXT
8
TEXT
10
480.600000
20
779.030500
30
0.0
40
3.5000
1
counterbore 6 position from the Z datum face
0
TEXT
8
DIM
10
600.863250
20
779.030500
30
0.0
40
3.5000
1
52.2430
72
2
73
0
11
600.863250
21
779.030500
31
0.0
0
TEXT
8
TEXT
10
480.600000
20
774.030500
30
0.0
40
3.5000
1
counterbore 7 diameter (along x)
0
TEXT
8
DIM
10
600.863250
20
774.030500
30
0.0
40
3.5000
1
Ø4.4000
72
2
73
0
11
600.863250
21
774.030500
31
0.0
0
TEXT
8
TEXT
10
480.600000
20
769.030500
30
0.0
40
3.5000
1
counterbore 7 depth
0
TEXT
8
DIM
10
600.863250
20
769.030500
30
0.0
40
3.5000
1
4.4900
72
2
73
0
11
600.863250
21
769.030500
31
0.0
0
TEXT
8
TEXT
10
480.600000
20
764.030500
30
0.0
40
3.5000
1
counterbore 7 position from the Y datum face
0
TEXT
8
DIM
10
600.863250
20
764.030500
30
0.0
40
3.5000
1
14.2430
72
2
73
0
11
600.863250
21
764.030500
31
0.0
0
TEXT
8
TEXT
10
480.600000
20
759.030500
30
0.0
40
3.5000
1
counterbore 7 position from the Z datum face
0
TEXT
8
DIM
10
600.863250
20
759.030500
30
0.0
40
3.5000
1
43.7570
72
2
73
0
11
600.863250
21
759.030500
31
0.0
0
TEXT
8
TEXT
10
480.600000
20
754.030500
30
0.0
40
3.5000
1
counterbore 8 diameter (along x)
0
TEXT
8
DIM
10
600.863250
20
754.030500
30
0.0
40
3.5000
1
Ø4.4000
72
2
73
0
11
600.863250
21
754.030500
31
0.0
0
TEXT
8
TEXT
10
480.600000
20
749.030500
30
0.0
40
3.5000
1
counterbore 8 depth
0
TEXT
8
DIM
10
600.863250
20
749.030500
30
0.0
40
3.5000
1
4.4900
72
2
73
0
11
600.863250
21
749.030500
31
0.0
0
TEXT
8
TEXT
10
480.600000
20
744.030500
30
0.0
40
3.5000
1
counterbore 8 position from the Y datum face
0
TEXT
8
DIM
10
600.863250
20
744.030500
30
0.0
40
3.5000
1
14.2430
72
2
73
0
11
600.863250
21
744.030500
31
0.0
0
TEXT
8
TEXT
10
480.600000
20
739.030500
30
0.0
40
3.5000
1
counterbore 8 position from the Z datum face
0
TEXT
8
DIM
10
600.863250
20
739.030500
30
0.0
40
3.5000
1
52.2430
72
2
73
0
11
600.863250
21
739.030500
31
0.0
0
TEXT
8
TEXT
10
480.600000
20
734.030500
30
0.0
40
3.5000
1
hole 9 diameter (along x)
0
TEXT
8
DIM
10
600.863250
20
734.030500
30
0.0
40
3.5000
1
Ø2.7000
72
2
73
0
11
600.863250
21
734.030500
31
0.0
0
TEXT
8
TEXT
10
480.600000
20
729.030500
30
0.0
40
3.5000
1
hole 9 depth
0
TEXT
8
DIM
10
600.863250
20
729.030500
30
0.0
40
3.5000
1
4.3000
72
2
73
0
11
600.863250
21
729.030500
31
0.0
0
TEXT
8
TEXT
10
480.600000
20
724.030500
30
0.0
40
3.5000
1
hole 9 position from the Y datum face
0
TEXT
8
DIM
10
600.863250
20
724.030500
30
0.0
40
3.5000
1
10.0000
72
2
73
0
11
600.863250
21
724.030500
31
0.0
0
TEXT
8
TEXT
10
704.328167
20
819.030500
30
0.0
40
3.5000
1
CANNOT DETERMINE — rib: A4 requires thickness, height and
0
TEXT
8
TEXT
10
704.328167
20
814.030500
30
0.0
40
3.5000
1
pitch on every rib; nothing here groups faces into a rib
0
TEXT
8
TEXT
10
704.328167
20
809.030500
30
0.0
40
3.5000
1
SETTLED BY: a rib classifier (parallel thin prisms
0
TEXT
8
TEXT
10
704.328167
20
804.030500
30
0.0
40
3.5000
1
standing off a wall), or the builder declaring its rib
0
TEXT
8
TEXT
10
704.328167
20
799.030500
30
0.0
40
3.5000
1
pitch
0
LINE
8
VISIBLE
10
828.300000
20
388.660000
30
0.0
11
1178.000000
21
388.660000
31
0.0
0
LINE
8
VISIBLE
10
1178.000000
20
388.660000
30
0.0
11
1178.000000
21
831.030500
31
0.0
0
LINE
8
VISIBLE
10
1178.000000
20
831.030500
30
0.0
11
828.300000
21
831.030500
31
0.0
0
LINE
8
VISIBLE
10
828.300000
20
831.030500
30
0.0
11
828.300000
21
388.660000
31
0.0
0
LINE
8
TITLE
10
828.300000
20
388.660000
30
0.0
11
1178.000000
21
388.660000
31
0.0
0
LINE
8
TITLE
10
1178.000000
20
388.660000
30
0.0
11
1178.000000
21
831.030500
31
0.0
0
LINE
8
TITLE
10
1178.000000
20
831.030500
30
0.0
11
828.300000
21
831.030500
31
0.0
0
LINE
8
TITLE
10
828.300000
20
831.030500
30
0.0
11
828.300000
21
388.660000
31
0.0
0
TEXT
8
TEXT
10
1003.150000
20
392.660000
30
0.0
40
5.0000
1
ISOMETRIC 3 REAR RIGHT / CONTEXT
72
1
73
0
11
1003.150000
21
392.660000
31
0.0
0
TEXT
8
TEXT
10
1003.150000
20
399.660000
30
0.0
40
3.5000
1
RENDER 3 / SCALE 5.89745:1
72
1
73
0
11
1003.150000
21
399.660000
31
0.0
0
TEXT
8
TEXT
10
831.300000
20
819.030500
30
0.0
40
3.5000
1
MEASURED FEATURES — mm
0
TEXT
8
TEXT
10
831.300000
20
814.030500
30
0.0
40
3.5000
1
hole 9 position from the Z datum face
0
TEXT
8
DIM
10
951.563250
20
814.030500
30
0.0
40
3.5000
1
6.0000
72
2
73
0
11
951.563250
21
814.030500
31
0.0
0
TEXT
8
TEXT
10
831.300000
20
809.030500
30
0.0
40
3.5000
1
hole 10 diameter (along x)
0
TEXT
8
DIM
10
951.563250
20
809.030500
30
0.0
40
3.5000
1
Ø2.4000
72
2
73
0
11
951.563250
21
809.030500
31
0.0
0
TEXT
8
TEXT
10
831.300000
20
804.030500
30
0.0
40
3.5000
1
hole 10 depth
0
TEXT
8
DIM
10
951.563250
20
804.030500
30
0.0
40
3.5000
1
2.3000
72
2
73
0
11
951.563250
21
804.030500
31
0.0
0
TEXT
8
TEXT
10
831.300000
20
799.030500
30
0.0
40
3.5000
1
hole 10 position from the Y datum face
0
TEXT
8
DIM
10
951.563250
20
799.030500
30
0.0
40
3.5000
1
2.0000
72
2
73
0
11
951.563250
21
799.030500
31
0.0
0
TEXT
8
TEXT
10
831.300000
20
794.030500
30
0.0
40
3.5000
1
hole 10 position from the Z datum face
0
TEXT
8
DIM
10
951.563250
20
794.030500
30
0.0
40
3.5000
1
28.5000
72
2
73
0
11
951.563250
21
794.030500
31
0.0
0
TEXT
8
TEXT
10
831.300000
20
789.030500
30
0.0
40
3.5000
1
hole 11 diameter (along x)
0
TEXT
8
DIM
10
951.563250
20
789.030500
30
0.0
40
3.5000
1
Ø2.4000
72
2
73
0
11
951.563250
21
789.030500
31
0.0
0
TEXT
8
TEXT
10
831.300000
20
784.030500
30
0.0
40
3.5000
1
hole 11 depth
0
TEXT
8
DIM
10
951.563250
20
784.030500
30
0.0
40
3.5000
1
2.3000
72
2
73
0
11
951.563250
21
784.030500
31
0.0
0
TEXT
8
TEXT
10
831.300000
20
779.030500
30
0.0
40
3.5000
1
hole 11 position from the Y datum face
0
TEXT
8
DIM
10
951.563250
20
779.030500
30
0.0
40
3.5000
1
18.0000
72
2
73
0
11
951.563250
21
779.030500
31
0.0
0
TEXT
8
TEXT
10
831.300000
20
774.030500
30
0.0
40
3.5000
1
hole 11 position from the Z datum face
0
TEXT
8
DIM
10
951.563250
20
774.030500
30
0.0
40
3.5000
1
28.5000
72
2
73
0
11
951.563250
21
774.030500
31
0.0
0
TEXT
8
TEXT
10
831.300000
20
769.030500
30
0.0
40
3.5000
1
hole 12 diameter (along x)
0
TEXT
8
DIM
10
951.563250
20
769.030500
30
0.0
40
3.5000
1
Ø2.2000
72
2
73
0
11
951.563250
21
769.030500
31
0.0
0
TEXT
8
TEXT
10
831.300000
20
764.030500
30
0.0
40
3.5000
1
hole 12 depth
0
TEXT
8
DIM
10
951.563250
20
764.030500
30
0.0
40
3.5000
1
2.7600
72
2
73
0
11
951.563250
21
764.030500
31
0.0
0
TEXT
8
TEXT
10
831.300000
20
759.030500
30
0.0
40
3.5000
1
hole 12 position from the Y datum face
0
TEXT
8
DIM
10
951.563250
20
759.030500
30
0.0
40
3.5000
1
5.7570
72
2
73
0
11
951.563250
21
759.030500
31
0.0
0
TEXT
8
TEXT
10
831.300000
20
754.030500
30
0.0
40
3.5000
1
hole 12 position from the Z datum face
0
TEXT
8
DIM
10
951.563250
20
754.030500
30
0.0
40
3.5000
1
43.7570
72
2
73
0
11
951.563250
21
754.030500
31
0.0
0
TEXT
8
TEXT
10
831.300000
20
749.030500
30
0.0
40
3.5000
1
hole 13 diameter (along x)
0
TEXT
8
DIM
10
951.563250
20
749.030500
30
0.0
40
3.5000
1
Ø2.2000
72
2
73
0
11
951.563250
21
749.030500
31
0.0
0
TEXT
8
TEXT
10
831.300000
20
744.030500
30
0.0
40
3.5000
1
hole 13 depth
0
TEXT
8
DIM
10
951.563250
20
744.030500
30
0.0
40
3.5000
1
2.7600
72
2
73
0
11
951.563250
21
744.030500
31
0.0
0
TEXT
8
TEXT
10
831.300000
20
739.030500
30
0.0
40
3.5000
1
hole 13 position from the Y datum face
0
TEXT
8
DIM
10
951.563250
20
739.030500
30
0.0
40
3.5000
1
5.7570
72
2
73
0
11
951.563250
21
739.030500
31
0.0
0
TEXT
8
TEXT
10
831.300000
20
734.030500
30
0.0
40
3.5000
1
hole 13 position from the Z datum face
0
TEXT
8
DIM
10
951.563250
20
734.030500
30
0.0
40
3.5000
1
52.2430
72
2
73
0
11
951.563250
21
734.030500
31
0.0
0
TEXT
8
TEXT
10
831.300000
20
729.030500
30
0.0
40
3.5000
1
hole 14 diameter (along x)
0
TEXT
8
DIM
10
951.563250
20
729.030500
30
0.0
40
3.5000
1
Ø2.2000
72
2
73
0
11
951.563250
21
729.030500
31
0.0
0
TEXT
8
TEXT
10
831.300000
20
724.030500
30
0.0
40
3.5000
1
hole 14 depth
0
TEXT
8
DIM
10
951.563250
20
724.030500
30
0.0
40
3.5000
1
2.7600
72
2
73
0
11
951.563250
21
724.030500
31
0.0
0
TEXT
8
TEXT
10
1055.028167
20
819.030500
30
0.0
40
3.5000
1
CANNOT DETERMINE — draft: A4 requires every draft angle;
0
TEXT
8
TEXT
10
1055.028167
20
814.030500
30
0.0
40
3.5000
1
no face here is tested for draft against a pull direction
0
TEXT
8
TEXT
10
1055.028167
20
809.030500
30
0.0
40
3.5000
1
SETTLED BY: a pull direction on the part record, then the
0
TEXT
8
TEXT
10
1055.028167
20
804.030500
30
0.0
40
3.5000
1
angle of every planar face to it
0
LINE
8
VISIBLE
10
10.000000
20
10.000000
30
0.0
11
412.305000
21
10.000000
31
0.0
0
LINE
8
VISIBLE
10
412.305000
20
10.000000
30
0.0
11
412.305000
21
386.825683
31
0.0
0
LINE
8
VISIBLE
10
412.305000
20
386.825683
30
0.0
11
10.000000
21
386.825683
31
0.0
0
LINE
8
VISIBLE
10
10.000000
20
386.825683
30
0.0
11
10.000000
21
10.000000
31
0.0
0
LINE
8
TITLE
10
10.000000
20
10.000000
30
0.0
11
412.305000
21
10.000000
31
0.0
0
LINE
8
TITLE
10
412.305000
20
10.000000
30
0.0
11
412.305000
21
386.825683
31
0.0
0
LINE
8
TITLE
10
412.305000
20
386.825683
30
0.0
11
10.000000
21
386.825683
31
0.0
0
LINE
8
TITLE
10
10.000000
20
386.825683
30
0.0
11
10.000000
21
10.000000
31
0.0
0
TEXT
8
TEXT
10
211.152500
20
14.000000
30
0.0
40
5.0000
1
ISOMETRIC 4 REAR LEFT / CONTEXT
72
1
73
0
11
211.152500
21
14.000000
31
0.0
0
TEXT
8
TEXT
10
211.152500
20
21.000000
30
0.0
40
3.5000
1
RENDER 4 / SCALE 5.89745:1
72
1
73
0
11
211.152500
21
21.000000
31
0.0
0
TEXT
8
TEXT
10
13.000000
20
374.825683
30
0.0
40
3.5000
1
MEASURED FEATURES — mm
0
TEXT
8
TEXT
10
13.000000
20
369.825683
30
0.0
40
3.5000
1
hole 14 position from the Y datum face
0
TEXT
8
DIM
10
159.563696
20
369.825683
30
0.0
40
3.5000
1
14.2430
72
2
73
0
11
159.563696
21
369.825683
31
0.0
0
TEXT
8
TEXT
10
13.000000
20
364.825683
30
0.0
40
3.5000
1
hole 14 position from the Z datum face
0
TEXT
8
DIM
10
159.563696
20
364.825683
30
0.0
40
3.5000
1
43.7570
72
2
73
0
11
159.563696
21
364.825683
31
0.0
0
TEXT
8
TEXT
10
13.000000
20
359.825683
30
0.0
40
3.5000
1
hole 15 diameter (along x)
0
TEXT
8
DIM
10
159.563696
20
359.825683
30
0.0
40
3.5000
1
Ø2.2000
72
2
73
0
11
159.563696
21
359.825683
31
0.0
0
TEXT
8
TEXT
10
13.000000
20
354.825683
30
0.0
40
3.5000
1
hole 15 depth
0
TEXT
8
DIM
10
159.563696
20
354.825683
30
0.0
40
3.5000
1
2.7600
72
2
73
0
11
159.563696
21
354.825683
31
0.0
0
TEXT
8
TEXT
10
13.000000
20
349.825683
30
0.0
40
3.5000
1
hole 15 position from the Y datum face
0
TEXT
8
DIM
10
159.563696
20
349.825683
30
0.0
40
3.5000
1
14.2430
72
2
73
0
11
159.563696
21
349.825683
31
0.0
0
TEXT
8
TEXT
10
13.000000
20
344.825683
30
0.0
40
3.5000
1
hole 15 position from the Z datum face
0
TEXT
8
DIM
10
159.563696
20
344.825683
30
0.0
40
3.5000
1
52.2430
72
2
73
0
11
159.563696
21
344.825683
31
0.0
0
TEXT
8
TEXT
10
13.000000
20
339.825683
30
0.0
40
3.5000
1
groove 1 outer Ø
0
TEXT
8
DIM
10
159.563696
20
339.825683
30
0.0
40
3.5000
1
Ø8.0000
72
2
73
0
11
159.563696
21
339.825683
31
0.0
0
TEXT
8
TEXT
10
13.000000
20
334.825683
30
0.0
40
3.5000
1
groove 1 core Ø
0
TEXT
8
DIM
10
159.563696
20
334.825683
30
0.0
40
3.5000
1
Ø4.9200
72
2
73
0
11
159.563696
21
334.825683
31
0.0
0
TEXT
8
TEXT
10
13.000000
20
329.825683
30
0.0
40
3.5000
1
groove 1 depth
0
TEXT
8
DIM
10
159.563696
20
329.825683
30
0.0
40
3.5000
1
0.5000
72
2
73
0
11
159.563696
21
329.825683
31
0.0
0
TEXT
8
TEXT
10
13.000000
20
324.825683
30
0.0
40
3.5000
1
boss / outside diameter 1
0
TEXT
8
DIM
10
159.563696
20
324.825683
30
0.0
40
3.5000
1
Ø15.9000
72
2
73
0
11
159.563696
21
324.825683
31
0.0
0
TEXT
8
TEXT
10
13.000000
20
319.825683
30
0.0
40
3.5000
1
boss 1 length along its axis
0
TEXT
8
DIM
10
159.563696
20
319.825683
30
0.0
40
3.5000
1
1.9500
72
2
73
0
11
159.563696
21
319.825683
31
0.0
0
TEXT
8
TEXT
10
13.000000
20
314.825683
30
0.0
40
3.5000
1
boss / outside diameter 2
0
TEXT
8
DIM
10
159.563696
20
314.825683
30
0.0
40
3.5000
1
Ø10.0000
72
2
73
0
11
159.563696
21
314.825683
31
0.0
0
TEXT
8
TEXT
10
13.000000
20
309.825683
30
0.0
40
3.5000
1
boss 2 length along its axis
0
TEXT
8
DIM
10
159.563696
20
309.825683
30
0.0
40
3.5000
1
3.2000
72
2
73
0
11
159.563696
21
309.825683
31
0.0
0
TEXT
8
TEXT
10
13.000000
20
304.825683
30
0.0
40
3.5000
1
boss / outside diameter 3
0
TEXT
8
DIM
10
159.563696
20
304.825683
30
0.0
40
3.5000
1
Ø10.0000
72
2
73
0
11
159.563696
21
304.825683
31
0.0
0
TEXT
8
TEXT
10
13.000000
20
299.825683
30
0.0
40
3.5000
1
boss 3 length along its axis
0
TEXT
8
DIM
10
159.563696
20
299.825683
30
0.0
40
3.5000
1
0.5000
72
2
73
0
11
159.563696
21
299.825683
31
0.0
0
TEXT
8
TEXT
10
13.000000
20
294.825683
30
0.0
40
3.5000
1
boss / outside diameter 4
0
TEXT
8
DIM
10
159.563696
20
294.825683
30
0.0
40
3.5000
1
Ø4.9200
72
2
73
0
11
159.563696
21
294.825683
31
0.0
0
TEXT
8
TEXT
10
13.000000
20
289.825683
30
0.0
40
3.5000
1
boss 4 length along its axis
0
TEXT
8
DIM
10
159.563696
20
289.825683
30
0.0
40
3.5000
1
2.2900
72
2
73
0
11
159.563696
21
289.825683
31
0.0
0
TEXT
8
TEXT
10
13.000000
20
284.825683
30
0.0
40
3.5000
1
radius R1.10 (8 edges, 8 full circles)
0
TEXT
8
DIM
10
159.563696
20
284.825683
30
0.0
40
3.5000
1
R1.1000
72
2
73
0
11
159.563696
21
284.825683
31
0.0
0
TEXT
8
TEXT
10
13.000000
20
279.825683
30
0.0
40
3.5000
1
radius R1.20 (6 edges, 2 full circles)
0
TEXT
8
DIM
10
159.563696
20
279.825683
30
0.0
40
3.5000
1
R1.2000
72
2
73
0
11
159.563696
21
279.825683
31
0.0
0
TEXT
8
TEXT
10
263.076558
20
374.825683
30
0.0
40
3.5000
1
CANNOT DETERMINE — step: A4 requires every step and shoulder; nothing
0
TEXT
8
TEXT
10
263.076558
20
369.825683
30
0.0
40
3.5000
1
here classifies a shoulder between two coaxial diameters or two
0
TEXT
8
TEXT
10
263.076558
20
364.825683
30
0.0
40
3.5000
1
parallel faces SETTLED BY: a step classifier, or the section views
0
TEXT
8
TEXT
10
263.076558
20
359.825683
30
0.0
40
3.5000
1
declaring their stations
0
LINE
8
VISIBLE
10
413.305000
20
10.000000
30
0.0
11
795.152500
21
10.000000
31
0.0
0
LINE
8
VISIBLE
10
795.152500
20
10.000000
30
0.0
11
795.152500
21
386.756200
31
0.0
0
LINE
8
VISIBLE
10
795.152500
20
386.756200
30
0.0
11
413.305000
21
386.756200
31
0.0
0
LINE
8
VISIBLE
10
413.305000
20
386.756200
30
0.0
11
413.305000
21
10.000000
31
0.0
0
LINE
8
TITLE
10
413.305000
20
10.000000
30
0.0
11
795.152500
21
10.000000
31
0.0
0
LINE
8
TITLE
10
795.152500
20
10.000000
30
0.0
11
795.152500
21
386.756200
31
0.0
0
LINE
8
TITLE
10
795.152500
20
386.756200
30
0.0
11
413.305000
21
386.756200
31
0.0
0
LINE
8
TITLE
10
413.305000
20
386.756200
30
0.0
11
413.305000
21
10.000000
31
0.0
0
TEXT
8
TEXT
10
604.228750
20
14.000000
30
0.0
40
5.0000
1
DETAIL A FRONT / ENLARGED SECTION
72
1
73
0
11
604.228750
21
14.000000
31
0.0
0
TEXT
8
TEXT
10
604.228750
20
21.000000
30
0.0
40
3.5000
1
RENDER 5 / SCALE 10.54984:1
72
1
73
0
11
604.228750
21
21.000000
31
0.0
0
TEXT
8
TEXT
10
416.305000
20
374.756200
30
0.0
40
3.5000
1
MEASURED FEATURES — mm
0
TEXT
8
TEXT
10
416.305000
20
369.756200
30
0.0
40
3.5000
1
radius R1.35 (2 edges, 2 full circles)
0
TEXT
8
DIM
10
532.314675
20
369.756200
30
0.0
40
3.5000
1
R1.3500
72
2
73
0
11
532.314675
21
369.756200
31
0.0
0
TEXT
8
TEXT
10
416.305000
20
364.756200
30
0.0
40
3.5000
1
radius R2.20 (12 edges, 4 full circles)
0
TEXT
8
DIM
10
532.314675
20
364.756200
30
0.0
40
3.5000
1
R2.2000
72
2
73
0
11
532.314675
21
364.756200
31
0.0
0
TEXT
8
TEXT
10
416.305000
20
359.756200
30
0.0
40
3.5000
1
radius R2.42 (6 edges, 0 full circles)
0
TEXT
8
DIM
10
532.314675
20
359.756200
30
0.0
40
3.5000
1
R2.4200
72
2
73
0
11
532.314675
21
359.756200
31
0.0
0
TEXT
8
TEXT
10
416.305000
20
354.756200
30
0.0
40
3.5000
1
radius R2.46 (2 edges, 2 full circles)
0
TEXT
8
DIM
10
532.314675
20
354.756200
30
0.0
40
3.5000
1
R2.4600
72
2
73
0
11
532.314675
21
354.756200
31
0.0
0
TEXT
8
TEXT
10
416.305000
20
349.756200
30
0.0
40
3.5000
1
radius R2.75 (2 edges, 2 full circles)
0
TEXT
8
DIM
10
532.314675
20
349.756200
30
0.0
40
3.5000
1
R2.7500
72
2
73
0
11
532.314675
21
349.756200
31
0.0
0
TEXT
8
TEXT
10
416.305000
20
344.756200
30
0.0
40
3.5000
1
radius R3.00 (2 edges, 2 full circles)
0
TEXT
8
DIM
10
532.314675
20
344.756200
30
0.0
40
3.5000
1
R3.0000
72
2
73
0
11
532.314675
21
344.756200
31
0.0
0
TEXT
8
TEXT
10
416.305000
20
339.756200
30
0.0
40
3.5000
1
radius R4.00 (2 edges, 2 full circles)
0
TEXT
8
DIM
10
532.314675
20
339.756200
30
0.0
40
3.5000
1
R4.0000
72
2
73
0
11
532.314675
21
339.756200
31
0.0
0
TEXT
8
TEXT
10
416.305000
20
334.756200
30
0.0
40
3.5000
1
radius R5.00 (4 edges, 4 full circles)
0
TEXT
8
DIM
10
532.314675
20
334.756200
30
0.0
40
3.5000
1
R5.0000
72
2
73
0
11
532.314675
21
334.756200
31
0.0
0
TEXT
8
TEXT
10
416.305000
20
329.756200
30
0.0
40
3.5000
1
radius R7.95 (2 edges, 2 full circles)
0
TEXT
8
DIM
10
532.314675
20
329.756200
30
0.0
40
3.5000
1
R7.9500
72
2
73
0
11
532.314675
21
329.756200
31
0.0
0
TEXT
8
TEXT
10
416.305000
20
324.756200
30
0.0
40
3.5000
1
thinnest wall
0
TEXT
8
DIM
10
532.314675
20
324.756200
30
0.0
40
3.5000
1
0.0280
72
2
73
0
11
532.314675
21
324.756200
31
0.0
0
TEXT
8
TEXT
10
416.305000
20
319.756200
30
0.0
40
3.5000
1
slot mouth on a plane normal to x, 8 edge(s)
0
TEXT
8
TEXT
10
416.305000
20
314.756200
30
0.0
40
3.5000
1
— width
0
TEXT
8
DIM
10
532.314675
20
314.756200
30
0.0
40
3.5000
1
2.4000
72
2
73
0
11
532.314675
21
314.756200
31
0.0
0
TEXT
8
TEXT
10
416.305000
20
309.756200
30
0.0
40
3.5000
1
slot mouth on a plane normal to x, 8 edge(s)
0
TEXT
8
TEXT
10
416.305000
20
304.756200
30
0.0
40
3.5000
1
— length
0
TEXT
8
DIM
10
532.314675
20
304.756200
30
0.0
40
3.5000
1
14.0000
72
2
73
0
11
532.314675
21
304.756200
31
0.0
0
TEXT
8
TEXT
10
416.305000
20
299.756200
30
0.0
40
3.5000
1
slot mouth on a plane normal to x, 8 edge(s)
0
TEXT
8
TEXT
10
416.305000
20
294.756200
30
0.0
40
3.5000
1
— depth
0
TEXT
8
DIM
10
532.314675
20
294.756200
30
0.0
40
3.5000
1
2.4500
72
2
73
0
11
532.314675
21
294.756200
31
0.0
0
TEXT
8
TEXT
10
416.305000
20
289.756200
30
0.0
40
3.5000
1
slot mouth on a plane normal to x, 8 edge(s)
0
TEXT
8
TEXT
10
416.305000
20
284.756200
30
0.0
40
3.5000
1
— position from the y datum
0
TEXT
8
DIM
10
532.314675
20
284.756200
30
0.0
40
3.5000
1
2.0000
72
2
73
0
11
532.314675
21
284.756200
31
0.0
0
TEXT
8
TEXT
10
416.305000
20
279.756200
30
0.0
40
3.5000
1
slot mouth on a plane normal to x, 8 edge(s)
0
TEXT
8
TEXT
10
416.305000
20
274.756200
30
0.0
40
3.5000
1
— position from the z datum
0
TEXT
8
DIM
10
532.314675
20
274.756200
30
0.0
40
3.5000
1
28.2230
72
2
73
0
11
532.314675
21
274.756200
31
0.0
0
TEXT
8
TEXT
10
416.305000
20
269.756200
30
0.0
40
3.5000
1
pocket mouth on a plane normal to x, 4
0
TEXT
8
TEXT
10
416.305000
20
264.756200
30
0.0
40
3.5000
1
edge(s) — width
0
TEXT
8
DIM
10
532.314675
20
264.756200
30
0.0
40
3.5000
1
1.0000
72
2
73
0
11
532.314675
21
264.756200
31
0.0
0
TEXT
8
TEXT
10
416.305000
20
259.756200
30
0.0
40
3.5000
1
pocket mouth on a plane normal to x, 4
0
TEXT
8
TEXT
10
416.305000
20
254.756200
30
0.0
40
3.5000
1
edge(s) — length
0
TEXT
8
DIM
10
532.314675
20
254.756200
30
0.0
40
3.5000
1
5.5000
72
2
73
0
11
532.314675
21
254.756200
31
0.0
0
TEXT
8
TEXT
10
416.305000
20
249.756200
30
0.0
40
3.5000
1
pocket mouth on a plane normal to x, 4
0
TEXT
8
TEXT
10
416.305000
20
244.756200
30
0.0
40
3.5000
1
edge(s) — depth
0
TEXT
8
DIM
10
532.314675
20
244.756200
30
0.0
40
3.5000
1
2.4500
72
2
73
0
11
532.314675
21
244.756200
31
0.0
0
TEXT
8
TEXT
10
416.305000
20
239.756200
30
0.0
40
3.5000
1
pocket mouth on a plane normal to x, 4
0
TEXT
8
TEXT
10
416.305000
20
234.756200
30
0.0
40
3.5000
1
edge(s) — position from the y datum
0
TEXT
8
DIM
10
532.314675
20
234.756200
30
0.0
40
3.5000
1
6.0000
72
2
73
0
11
532.314675
21
234.756200
31
0.0
0
TEXT
8
TEXT
10
675.824619
20
374.756200
30
0.0
40
3.5000
1
CANNOT DETERMINE — mate: A4 requires every surface that
0
TEXT
8
TEXT
10
675.824619
20
369.756200
30
0.0
40
3.5000
1
mates with another part, with the mating part named by
0
TEXT
8
TEXT
10
675.824619
20
364.756200
30
0.0
40
3.5000
1
its triad ref; the mates live in
0
TEXT
8
TEXT
10
675.824619
20
359.756200
30
0.0
40
3.5000
1
ce-assemblies/*/joints.json and are not read here
0
TEXT
8
TEXT
10
675.824619
20
354.756200
30
0.0
40
3.5000
1
SETTLED BY: reading this part's joints out of the
0
TEXT
8
TEXT
10
675.824619
20
349.756200
30
0.0
40
3.5000
1
assemblies that use it and matching each mate to a face
0
LINE
8
VISIBLE
10
796.152500
20
10.000000
30
0.0
11
1178.000000
21
10.000000
31
0.0
0
LINE
8
VISIBLE
10
1178.000000
20
10.000000
30
0.0
11
1178.000000
21
386.756200
31
0.0
0
LINE
8
VISIBLE
10
1178.000000
20
386.756200
30
0.0
11
796.152500
21
386.756200
31
0.0
0
LINE
8
VISIBLE
10
796.152500
20
386.756200
30
0.0
11
796.152500
21
10.000000
31
0.0
0
LINE
8
TITLE
10
796.152500
20
10.000000
30
0.0
11
1178.000000
21
10.000000
31
0.0
0
LINE
8
TITLE
10
1178.000000
20
10.000000
30
0.0
11
1178.000000
21
386.756200
31
0.0
0
LINE
8
TITLE
10
1178.000000
20
386.756200
30
0.0
11
796.152500
21
386.756200
31
0.0
0
LINE
8
TITLE
10
796.152500
20
386.756200
30
0.0
11
796.152500
21
10.000000
31
0.0
0
TEXT
8
TEXT
10
987.076250
20
14.000000
30
0.0
40
5.0000
1
DETAIL A BACK / ENLARGED SECTION
72
1
73
0
11
987.076250
21
14.000000
31
0.0
0
TEXT
8
TEXT
10
987.076250
20
21.000000
30
0.0
40
3.5000
1
RENDER 6 / SCALE 10.54984:1
72
1
73
0
11
987.076250
21
21.000000
31
0.0
0
TEXT
8
TEXT
10
799.152500
20
374.756200
30
0.0
40
3.5000
1
MEASURED FEATURES — mm
0
TEXT
8
TEXT
10
799.152500
20
369.756200
30
0.0
40
3.5000
1
pocket mouth on a plane normal to x, 4
0
TEXT
8
TEXT
10
799.152500
20
364.756200
30
0.0
40
3.5000
1
edge(s) — position from the z datum
0
TEXT
8
DIM
10
915.162175
20
364.756200
30
0.0
40
3.5000
1
32.4730
72
2
73
0
11
915.162175
21
364.756200
31
0.0
0
TEXT
8
TEXT
10
799.152500
20
359.756200
30
0.0
40
3.5000
1
pocket mouth on a plane normal to x, 36
0
TEXT
8
TEXT
10
799.152500
20
354.756200
30
0.0
40
3.5000
1
edge(s) — width
0
TEXT
8
DIM
10
915.162175
20
354.756200
30
0.0
40
3.5000
1
5.0000
72
2
73
0
11
915.162175
21
354.756200
31
0.0
0
TEXT
8
TEXT
10
799.152500
20
349.756200
30
0.0
40
3.5000
1
pocket mouth on a plane normal to x, 36
0
TEXT
8
TEXT
10
799.152500
20
344.756200
30
0.0
40
3.5000
1
edge(s) — length
0
TEXT
8
DIM
10
915.162175
20
344.756200
30
0.0
40
3.5000
1
11.5000
72
2
73
0
11
915.162175
21
344.756200
31
0.0
0
TEXT
8
TEXT
10
799.152500
20
339.756200
30
0.0
40
3.5000
1
pocket mouth on a plane normal to x, 36
0
TEXT
8
TEXT
10
799.152500
20
334.756200
30
0.0
40
3.5000
1
edge(s) — depth
0
TEXT
8
DIM
10
915.162175
20
334.756200
30
0.0
40
3.5000
1
5.3000
72
2
73
0
11
915.162175
21
334.756200
31
0.0
0
TEXT
8
TEXT
10
799.152500
20
329.756200
30
0.0
40
3.5000
1
pocket mouth on a plane normal to x, 36
0
TEXT
8
TEXT
10
799.152500
20
324.756200
30
0.0
40
3.5000
1
edge(s) — position from the y datum
0
TEXT
8
DIM
10
915.162175
20
324.756200
30
0.0
40
3.5000
1
10.0000
72
2
73
0
11
915.162175
21
324.756200
31
0.0
0
TEXT
8
TEXT
10
799.152500
20
319.756200
30
0.0
40
3.5000
1
pocket mouth on a plane normal to x, 36
0
TEXT
8
TEXT
10
799.152500
20
314.756200
30
0.0
40
3.5000
1
edge(s) — position from the z datum
0
TEXT
8
DIM
10
915.162175
20
314.756200
30
0.0
40
3.5000
1
32.9730
72
2
73
0
11
915.162175
21
314.756200
31
0.0
0
TEXT
8
TEXT
10
799.152500
20
309.756200
30
0.0
40
3.5000
1
pocket mouth on a plane normal to x, 4
0
TEXT
8
TEXT
10
799.152500
20
304.756200
30
0.0
40
3.5000
1
edge(s) — width
0
TEXT
8
DIM
10
915.162175
20
304.756200
30
0.0
40
3.5000
1
1.0000
72
2
73
0
11
915.162175
21
304.756200
31
0.0
0
TEXT
8
TEXT
10
799.152500
20
299.756200
30
0.0
40
3.5000
1
pocket mouth on a plane normal to x, 4
0
TEXT
8
TEXT
10
799.152500
20
294.756200
30
0.0
40
3.5000
1
edge(s) — length
0
TEXT
8
DIM
10
915.162175
20
294.756200
30
0.0
40
3.5000
1
5.5000
72
2
73
0
11
915.162175
21
294.756200
31
0.0
0
TEXT
8
TEXT
10
799.152500
20
289.756200
30
0.0
40
3.5000
1
pocket mouth on a plane normal to x, 4
0
TEXT
8
TEXT
10
799.152500
20
284.756200
30
0.0
40
3.5000
1
edge(s) — depth
0
TEXT
8
DIM
10
915.162175
20
284.756200
30
0.0
40
3.5000
1
2.4500
72
2
73
0
11
915.162175
21
284.756200
31
0.0
0
TEXT
8
TEXT
10
799.152500
20
279.756200
30
0.0
40
3.5000
1
pocket mouth on a plane normal to x, 4
0
TEXT
8
TEXT
10
799.152500
20
274.756200
30
0.0
40
3.5000
1
edge(s) — position from the y datum
0
TEXT
8
DIM
10
915.162175
20
274.756200
30
0.0
40
3.5000
1
14.0000
72
2
73
0
11
915.162175
21
274.756200
31
0.0
0
TEXT
8
TEXT
10
799.152500
20
269.756200
30
0.0
40
3.5000
1
pocket mouth on a plane normal to x, 4
0
TEXT
8
TEXT
10
799.152500
20
264.756200
30
0.0
40
3.5000
1
edge(s) — position from the z datum
0
TEXT
8
DIM
10
915.162175
20
264.756200
30
0.0
40
3.5000
1
32.4730
72
2
73
0
11
915.162175
21
264.756200
31
0.0
0
TEXT
8
TEXT
10
799.152500
20
259.756200
30
0.0
40
3.5000
1
slot mouth on a plane normal to x, 8 edge(s)
0
TEXT
8
TEXT
10
799.152500
20
254.756200
30
0.0
40
3.5000
1
— width
0
TEXT
8
DIM
10
915.162175
20
254.756200
30
0.0
40
3.5000
1
2.4000
72
2
73
0
11
915.162175
21
254.756200
31
0.0
0
TEXT
8
TEXT
10
799.152500
20
249.756200
30
0.0
40
3.5000
1
slot mouth on a plane normal to x, 8 edge(s)
0
TEXT
8
TEXT
10
799.152500
20
244.756200
30
0.0
40
3.5000
1
— length
0
TEXT
8
DIM
10
915.162175
20
244.756200
30
0.0
40
3.5000
1
14.0000
72
2
73
0
11
915.162175
21
244.756200
31
0.0
0
TEXT
8
TEXT
10
799.152500
20
239.756200
30
0.0
40
3.5000
1
slot mouth on a plane normal to x, 8 edge(s)
0
TEXT
8
TEXT
10
799.152500
20
234.756200
30
0.0
40
3.5000
1
— depth
0
TEXT
8
DIM
10
915.162175
20
234.756200
30
0.0
40
3.5000
1
2.4500
72
2
73
0
11
915.162175
21
234.756200
31
0.0
0
TEXT
8
TEXT
10
799.152500
20
229.756200
30
0.0
40
3.5000
1
slot mouth on a plane normal to x, 8 edge(s)
0
TEXT
8
TEXT
10
799.152500
20
224.756200
30
0.0
40
3.5000
1
— position from the y datum
0
TEXT
8
DIM
10
915.162175
20
224.756200
30
0.0
40
3.5000
1
18.0000
72
2
73
0
11
915.162175
21
224.756200
31
0.0
0
TEXT
8
TEXT
10
799.152500
20
219.756200
30
0.0
40
3.5000
1
slot mouth on a plane normal to x, 8 edge(s)
0
TEXT
8
TEXT
10
799.152500
20
214.756200
30
0.0
40
3.5000
1
— position from the z datum
0
TEXT
8
DIM
10
915.162175
20
214.756200
30
0.0
40
3.5000
1
28.2230
72
2
73
0
11
915.162175
21
214.756200
31
0.0
0
TEXT
8
TEXT
10
1058.672119
20
374.756200
30
0.0
40
3.5000
1
CANNOT DETERMINE — wall: A4 wants a wall thickness at
0
TEXT
8
TEXT
10
1058.672119
20
369.756200
30
0.0
40
3.5000
1
every distinct station; only the thinnest wall is
0
TEXT
8
TEXT
10
1058.672119
20
364.756200
30
0.0
40
3.5000
1
measurable off the solid without a station list SETTLED
0
TEXT
8
TEXT
10
1058.672119
20
359.756200
30
0.0
40
3.5000
1
BY: the drawer declaring the section stations it
0
TEXT
8
TEXT
10
1058.672119
20
354.756200
30
0.0
40
3.5000
1
dimensions, or a section per shell region
0
LINE
8
VISIBLE
10
366.002333
20
511.106000
30
0.0
11
366.002333
21
529.660000
31
0.0
0
LINE
8
VISIBLE
10
366.002333
20
511.106000
30
0.0
11
406.002333
21
511.106000
31
0.0
0
LINE
8
VISIBLE
10
366.002333
20
529.660000
30
0.0
11
366.173436
21
532.270524
31
0.0
0
LINE
8
VISIBLE
10
406.002333
20
529.660000
30
0.0
11
406.002333
21
511.106000
31
0.0
0
LINE
8
VISIBLE
10
366.173436
20
532.270524
30
0.0
11
366.683817
21
534.836381
31
0.0
0
LINE
8
VISIBLE
10
405.831231
20
532.270524
30
0.0
11
406.002333
21
529.660000
31
0.0
0
LINE
8
VISIBLE
10
366.683817
20
534.836381
30
0.0
11
367.524743
21
537.313669
31
0.0
0
LINE
8
VISIBLE
10
405.320850
20
534.836381
30
0.0
11
405.831231
21
532.270524
31
0.0
0
LINE
8
VISIBLE
10
367.524743
20
537.313669
30
0.0
11
368.681825
21
539.660000
31
0.0
0
LINE
8
VISIBLE
10
404.479924
20
537.313669
30
0.0
11
405.320850
21
534.836381
31
0.0
0
LINE
8
VISIBLE
10
368.681825
20
539.660000
30
0.0
11
370.135267
21
541.835229
31
0.0
0
LINE
8
VISIBLE
10
403.322841
20
539.660000
30
0.0
11
404.479924
21
537.313669
31
0.0
0
LINE
8
VISIBLE
10
370.135267
20
541.835229
30
0.0
11
371.860198
21
543.802136
31
0.0
0
LINE
8
VISIBLE
10
401.869400
20
541.835229
30
0.0
11
403.322841
21
539.660000
31
0.0
0
LINE
8
VISIBLE
10
371.860198
20
543.802136
30
0.0
11
373.827105
21
545.527067
31
0.0
0
LINE
8
VISIBLE
10
400.144469
20
543.802136
30
0.0
11
401.869400
21
541.835229
31
0.0
0
LINE
8
VISIBLE
10
373.827105
20
545.527067
30
0.0
11
376.002333
21
546.980508
31
0.0
0
LINE
8
VISIBLE
10
398.177562
20
545.527067
30
0.0
11
400.144469
21
543.802136
31
0.0
0
LINE
8
VISIBLE
10
376.002333
20
546.980508
30
0.0
11
378.348665
21
548.137591
31
0.0
0
LINE
8
VISIBLE
10
396.002333
20
546.980508
30
0.0
11
398.177562
21
545.527067
31
0.0
0
LINE
8
VISIBLE
10
378.348665
20
548.137591
30
0.0
11
380.825952
21
548.978517
31
0.0
0
LINE
8
VISIBLE
10
393.656002
20
548.137591
30
0.0
11
396.002333
21
546.980508
31
0.0
0
LINE
8
VISIBLE
10
380.825952
20
548.978517
30
0.0
11
383.391809
21
549.488897
31
0.0
0
LINE
8
VISIBLE
10
391.178714
20
548.978517
30
0.0
11
393.656002
21
548.137591
31
0.0
0
LINE
8
VISIBLE
10
383.391809
20
549.488897
30
0.0
11
386.002333
21
549.660000
31
0.0
0
LINE
8
VISIBLE
10
388.612857
20
549.488897
30
0.0
11
391.178714
21
548.978517
31
0.0
0
LINE
8
VISIBLE
10
386.002333
20
549.660000
30
0.0
11
388.612857
21
549.488897
31
0.0
0
CIRCLE
8
VISIBLE
10
386.002333
20
529.660000
30
0.0
40
15.900000
0
CIRCLE
8
VISIBLE
10
377.516333
20
521.174000
30
0.0
40
2.200000
0
CIRCLE
8
VISIBLE
10
377.516333
20
538.146000
30
0.0
40
2.200000
0
CIRCLE
8
VISIBLE
10
394.488333
20
521.174000
30
0.0
40
2.200000
0
CIRCLE
8
VISIBLE
10
386.002333
20
529.660000
30
0.0
40
6.000000
0
CIRCLE
8
VISIBLE
10
394.488333
20
538.146000
30
0.0
40
2.200000
0
ARC
8
VISIBLE
10
402.002333
20
490.660000
30
0.0
40
2.400000
50
294.624318
51
65.375682
0
ARC
8
VISIBLE
10
402.002333
20
490.660000
30
0.0
40
2.400000
50
245.375682
51
294.624318
0
ARC
8
VISIBLE
10
402.002333
20
490.660000
30
0.0
40
2.400000
50
114.624318
51
245.375682
0
LINE
8
VISIBLE
10
381.230695
20
509.254050
30
0.0
11
381.059977
21
508.691271
31
0.0
0
ARC
8
VISIBLE
10
370.002333
20
490.660000
30
0.0
40
2.400000
50
294.624318
51
65.375682
0
ARC
8
VISIBLE
10
370.002333
20
490.660000
30
0.0
40
2.400000
50
245.375682
51
294.624318
0
ARC
8
VISIBLE
10
370.002333
20
490.660000
30
0.0
40
2.400000
50
114.624318
51
245.375682
0
LINE
8
VISIBLE
10
406.002333
20
511.106000
30
0.0
11
406.002333
21
474.106000
31
0.0
0
LINE
8
VISIBLE
10
388.587604
20
511.048356
30
0.0
11
388.002333
21
511.106000
31
0.0
0
LINE
8
VISIBLE
10
406.002333
20
474.106000
30
0.0
11
398.502333
21
445.660000
31
0.0
0
LINE
8
VISIBLE
10
389.150384
20
510.877639
30
0.0
11
388.587604
21
511.048356
31
0.0
0
LINE
8
VISIBLE
10
398.502333
20
445.660000
30
0.0
11
398.002333
21
445.660000
31
0.0
0
LINE
8
VISIBLE
10
389.669044
20
510.600409
30
0.0
11
389.150384
21
510.877639
31
0.0
0
LINE
8
VISIBLE
10
398.002333
20
445.660000
30
0.0
11
397.899672
21
444.093686
31
0.0
0
LINE
8
VISIBLE
10
390.123654
20
510.227320
30
0.0
11
389.669044
21
510.600409
31
0.0
0
LINE
8
VISIBLE
10
397.899672
20
444.093686
30
0.0
11
397.593443
21
442.554171
31
0.0
0
LINE
8
VISIBLE
10
390.496742
20
509.772711
30
0.0
11
390.123654
21
510.227320
31
0.0
0
LINE
8
VISIBLE
10
397.593443
20
442.554171
30
0.0
11
397.088888
21
441.067799
31
0.0
0
LINE
8
VISIBLE
10
390.773972
20
509.254050
30
0.0
11
390.496742
21
509.772711
31
0.0
0
LINE
8
VISIBLE
10
397.088888
20
441.067799
30
0.0
11
396.394638
21
439.660000
31
0.0
0
LINE
8
VISIBLE
10
390.944689
20
508.691271
30
0.0
11
390.773972
21
509.254050
31
0.0
0
LINE
8
VISIBLE
10
396.394638
20
439.660000
30
0.0
11
395.522573
21
438.354863
31
0.0
0
LINE
8
VISIBLE
10
391.002333
20
508.106000
30
0.0
11
390.944689
21
508.691271
31
0.0
0
LINE
8
VISIBLE
10
395.522573
20
438.354863
30
0.0
11
394.487615
21
437.174719
31
0.0
0
LINE
8
VISIBLE
10
391.002333
20
491.106000
30
0.0
11
391.002333
21
508.106000
31
0.0
0
LINE
8
VISIBLE
10
394.487615
20
437.174719
30
0.0
11
393.307470
21
436.139760
31
0.0
0
LINE
8
VISIBLE
10
390.944689
20
490.520729
30
0.0
11
391.002333
21
491.106000
31
0.0
0
LINE
8
VISIBLE
10
393.307470
20
436.139760
30
0.0
11
392.002333
21
435.267695
31
0.0
0
LINE
8
VISIBLE
10
390.773972
20
489.957950
30
0.0
11
390.944689
21
490.520729
31
0.0
0
LINE
8
VISIBLE
10
392.002333
20
435.267695
30
0.0
11
390.594535
21
434.573446
31
0.0
0
LINE
8
VISIBLE
10
390.496742
20
489.439289
30
0.0
11
390.773972
21
489.957950
31
0.0
0
LINE
8
VISIBLE
10
390.594535
20
434.573446
30
0.0
11
389.108162
21
434.068890
31
0.0
0
LINE
8
VISIBLE
10
390.123654
20
488.984680
30
0.0
11
390.496742
21
489.439289
31
0.0
0
LINE
8
VISIBLE
10
389.108162
20
434.068890
30
0.0
11
387.568648
21
433.762662
31
0.0
0
LINE
8
VISIBLE
10
389.669044
20
488.611591
30
0.0
11
390.123654
21
488.984680
31
0.0
0
LINE
8
VISIBLE
10
387.568648
20
433.762662
30
0.0
11
386.002333
21
433.660000
31
0.0
0
LINE
8
VISIBLE
10
389.150384
20
488.334361
30
0.0
11
389.669044
21
488.611591
31
0.0
0
LINE
8
VISIBLE
10
386.002333
20
433.660000
30
0.0
11
384.436019
21
433.762662
31
0.0
0
LINE
8
VISIBLE
10
388.587604
20
488.163644
30
0.0
11
389.150384
21
488.334361
31
0.0
0
LINE
8
VISIBLE
10
384.436019
20
433.762662
30
0.0
11
382.896505
21
434.068890
31
0.0
0
LINE
8
VISIBLE
10
388.002333
20
488.106000
30
0.0
11
388.587604
21
488.163644
31
0.0
0
LINE
8
VISIBLE
10
382.896505
20
434.068890
30
0.0
11
381.410132
21
434.573446
31
0.0
0
LINE
8
VISIBLE
10
384.002333
20
488.106000
30
0.0
11
388.002333
21
488.106000
31
0.0
0
LINE
8
VISIBLE
10
381.410132
20
434.573446
30
0.0
11
380.002333
21
435.267695
31
0.0
0
LINE
8
VISIBLE
10
383.417062
20
488.163644
30
0.0
11
384.002333
21
488.106000
31
0.0
0
LINE
8
VISIBLE
10
380.002333
20
435.267695
30
0.0
11
378.697196
21
436.139760
31
0.0
0
LINE
8
VISIBLE
10
382.854283
20
488.334361
30
0.0
11
383.417062
21
488.163644
31
0.0
0
LINE
8
VISIBLE
10
378.697196
20
436.139760
30
0.0
11
377.517052
21
437.174719
31
0.0
0
LINE
8
VISIBLE
10
382.335623
20
488.611591
30
0.0
11
382.854283
21
488.334361
31
0.0
0
LINE
8
VISIBLE
10
377.517052
20
437.174719
30
0.0
11
376.482093
21
438.354863
31
0.0
0
LINE
8
VISIBLE
10
381.881013
20
488.984680
30
0.0
11
382.335623
21
488.611591
31
0.0
0
LINE
8
VISIBLE
10
376.482093
20
438.354863
30
0.0
11
375.610028
21
439.660000
31
0.0
0
LINE
8
VISIBLE
10
381.507924
20
489.439289
30
0.0
11
381.881013
21
488.984680
31
0.0
0
LINE
8
VISIBLE
10
375.610028
20
439.660000
30
0.0
11
374.915779
21
441.067799
31
0.0
0
LINE
8
VISIBLE
10
381.230695
20
489.957950
30
0.0
11
381.507924
21
489.439289
31
0.0
0
LINE
8
VISIBLE
10
374.915779
20
441.067799
30
0.0
11
374.411223
21
442.554171
31
0.0
0
LINE
8
VISIBLE
10
381.059977
20
490.520729
30
0.0
11
381.230695
21
489.957950
31
0.0
0
LINE
8
VISIBLE
10
374.411223
20
442.554171
30
0.0
11
374.104995
21
444.093686
31
0.0
0
LINE
8
VISIBLE
10
381.002333
20
491.106000
30
0.0
11
381.059977
21
490.520729
31
0.0
0
LINE
8
VISIBLE
10
374.104995
20
444.093686
30
0.0
11
374.002333
21
445.660000
31
0.0
0
LINE
8
VISIBLE
10
381.002333
20
508.106000
30
0.0
11
381.002333
21
491.106000
31
0.0
0
LINE
8
VISIBLE
10
374.002333
20
445.660000
30
0.0
11
373.502333
21
445.660000
31
0.0
0
LINE
8
VISIBLE
10
381.059977
20
508.691271
30
0.0
11
381.002333
21
508.106000
31
0.0
0
LINE
8
VISIBLE
10
373.502333
20
445.660000
30
0.0
11
366.002333
21
474.106000
31
0.0
0
LINE
8
VISIBLE
10
366.002333
20
474.106000
30
0.0
11
366.002333
21
511.106000
31
0.0
0
LINE
8
VISIBLE
10
381.507924
20
509.772711
30
0.0
11
381.230695
21
509.254050
31
0.0
0
LINE
8
VISIBLE
10
381.881013
20
510.227320
30
0.0
11
381.507924
21
509.772711
31
0.0
0
LINE
8
VISIBLE
10
384.002333
20
511.106000
30
0.0
11
383.417062
21
511.048356
31
0.0
0
LINE
8
VISIBLE
10
382.335623
20
510.600409
30
0.0
11
381.881013
21
510.227320
31
0.0
0
LINE
8
VISIBLE
10
383.417062
20
511.048356
30
0.0
11
382.854283
21
510.877639
31
0.0
0
LINE
8
VISIBLE
10
382.854283
20
510.877639
30
0.0
11
382.335623
21
510.600409
31
0.0
0
LINE
8
VISIBLE
10
369.002333
20
476.106000
30
0.0
11
369.002333
21
488.478258
31
0.0
0
LINE
8
VISIBLE
10
371.002333
20
476.106000
30
0.0
11
369.002333
21
476.106000
31
0.0
0
LINE
8
VISIBLE
10
371.002333
20
476.106000
30
0.0
11
371.002333
21
488.478258
31
0.0
0
LINE
8
VISIBLE
10
379.002333
20
493.106000
30
0.0
11
377.002333
21
493.106000
31
0.0
0
LINE
8
VISIBLE
10
377.002333
20
493.106000
30
0.0
11
377.002333
21
504.106000
31
0.0
0
LINE
8
VISIBLE
10
379.002333
20
493.106000
30
0.0
11
379.002333
21
504.106000
31
0.0
0
LINE
8
VISIBLE
10
379.002333
20
504.106000
30
0.0
11
377.002333
21
504.106000
31
0.0
0
CIRCLE
8
VISIBLE
10
386.002333
20
445.660000
30
0.0
40
10.000000
0
LINE
8
VISIBLE
10
395.002333
20
493.106000
30
0.0
11
393.002333
21
493.106000
31
0.0
0
LINE
8
VISIBLE
10
393.002333
20
493.106000
30
0.0
11
393.002333
21
504.106000
31
0.0
0
LINE
8
VISIBLE
10
395.002333
20
493.106000
30
0.0
11
395.002333
21
504.106000
31
0.0
0
LINE
8
VISIBLE
10
395.002333
20
504.106000
30
0.0
11
393.002333
21
504.106000
31
0.0
0
LINE
8
VISIBLE
10
401.002333
20
476.106000
30
0.0
11
401.002333
21
488.478258
31
0.0
0
LINE
8
VISIBLE
10
403.002333
20
476.106000
30
0.0
11
401.002333
21
476.106000
31
0.0
0
LINE
8
VISIBLE
10
403.002333
20
476.106000
30
0.0
11
403.002333
21
488.478258
31
0.0
0
LINE
8
VISIBLE
10
371.002333
20
492.841742
30
0.0
11
371.002333
21
493.106000
31
0.0
0
LINE
8
VISIBLE
10
369.002333
20
492.841742
30
0.0
11
369.002333
21
493.106000
31
0.0
0
LINE
8
VISIBLE
10
403.002333
20
492.841742
30
0.0
11
403.002333
21
493.106000
31
0.0
0
LINE
8
VISIBLE
10
401.002333
20
492.841742
30
0.0
11
401.002333
21
493.106000
31
0.0
0
CIRCLE
8
VISIBLE
10
386.002333
20
445.660000
30
0.0
40
8.000000
0
LINE
8
VISIBLE
10
371.002333
20
493.106000
30
0.0
11
369.002333
21
493.106000
31
0.0
0
LINE
8
VISIBLE
10
403.002333
20
493.106000
30
0.0
11
401.002333
21
493.106000
31
0.0
0
LINE
8
VISIBLE
10
371.002333
20
493.106000
30
0.0
11
371.002333
21
504.106000
31
0.0
0
LINE
8
VISIBLE
10
371.002333
20
504.106000
30
0.0
11
369.002333
21
504.106000
31
0.0
0
LINE
8
VISIBLE
10
369.002333
20
493.106000
30
0.0
11
369.002333
21
504.106000
31
0.0
0
LINE
8
VISIBLE
10
403.002333
20
493.106000
30
0.0
11
403.002333
21
504.106000
31
0.0
0
LINE
8
VISIBLE
10
403.002333
20
504.106000
30
0.0
11
401.002333
21
504.106000
31
0.0
0
LINE
8
VISIBLE
10
401.002333
20
493.106000
30
0.0
11
401.002333
21
504.106000
31
0.0
0
CIRCLE
8
VISIBLE
10
386.002333
20
445.660000
30
0.0
40
2.700000
0
CIRCLE
8
VISIBLE
10
386.002333
20
445.660000
30
0.0
40
4.920000
0
ARC
8
VISIBLE
10
402.002335
20
490.660001
30
0.0
40
2.399999
50
65.375699
51
114.624352
0
ARC
8
VISIBLE
10
370.002348
20
490.659984
30
0.0
40
2.400016
50
65.376160
51
114.624469
0
LINE
8
HIDDEN
10
406.002333
20
493.384995
30
0.0
11
406.002333
21
487.935005
31
0.0
0
ARC
8
HIDDEN
10
402.002333
20
490.660000
30
0.0
40
4.840000
50
34.264603
51
90.000000
0
CIRCLE
8
HIDDEN
10
402.002333
20
490.660000
30
0.0
40
2.400000
0
ARC
8
HIDDEN
10
370.002333
20
490.660000
30
0.0
40
4.840000
50
90.000000
51
145.735397
0
LINE
8
HIDDEN
10
373.602333
20
519.163875
30
0.0
11
373.602333
21
493.895058
31
0.0
0
LINE
8
HIDDEN
10
373.602333
20
528.726000
30
0.0
11
373.602333
21
523.184125
31
0.0
0
LINE
8
HIDDEN
10
373.840212
20
531.141218
30
0.0
11
373.602333
21
528.726000
31
0.0
0
LINE
8
HIDDEN
10
374.544705
20
533.463621
30
0.0
11
373.840212
21
531.141218
31
0.0
0
LINE
8
HIDDEN
10
375.086706
20
534.477634
30
0.0
11
374.544705
21
533.463621
31
0.0
0
LINE
8
HIDDEN
10
383.567115
20
540.868122
30
0.0
11
381.401552
21
540.211205
31
0.0
0
LINE
8
HIDDEN
10
385.982333
20
541.106000
30
0.0
11
383.567115
21
540.868122
31
0.0
0
LINE
8
HIDDEN
10
386.022333
20
541.106000
30
0.0
11
385.982333
21
541.106000
31
0.0
0
LINE
8
HIDDEN
10
388.437552
20
540.868122
30
0.0
11
386.022333
21
541.106000
31
0.0
0
LINE
8
HIDDEN
10
390.603114
20
540.211205
30
0.0
11
388.437552
21
540.868122
31
0.0
0
LINE
8
HIDDEN
10
397.459962
20
533.463621
30
0.0
11
396.917961
21
534.477634
31
0.0
0
LINE
8
HIDDEN
10
398.164455
20
531.141218
30
0.0
11
397.459962
21
533.463621
31
0.0
0
LINE
8
HIDDEN
10
398.402333
20
528.726000
30
0.0
11
398.164455
21
531.141218
31
0.0
0
LINE
8
HIDDEN
10
398.402333
20
523.184125
30
0.0
11
398.402333
21
528.726000
31
0.0
0
LINE
8
HIDDEN
10
398.402333
20
493.895058
30
0.0
11
398.402333
21
519.163875
31
0.0
0
ARC
8
HIDDEN
10
402.002333
20
490.660000
30
0.0
40
4.840000
50
90.000000
51
138.056273
0
ARC
8
HIDDEN
10
402.002333
20
490.660000
30
0.0
40
4.840000
50
34.264603
51
90.000000
0
LINE
8
HIDDEN
10
406.002333
20
529.660000
30
0.0
11
406.002333
21
493.384995
31
0.0
0
LINE
8
HIDDEN
10
366.002333
20
493.384995
30
0.0
11
366.002333
21
529.660000
31
0.0
0
LINE
8
HIDDEN
10
373.602333
20
493.895058
30
0.0
11
373.602333
21
519.163875
31
0.0
0
ARC
8
HIDDEN
10
377.516333
20
521.174000
30
0.0
40
4.400000
50
90.000000
51
152.816184
0
ARC
8
HIDDEN
10
377.516333
20
521.174000
30
0.0
40
4.400000
50
207.183816
51
90.000000
0
CIRCLE
8
HIDDEN
10
377.516333
20
521.174000
30
0.0
40
4.400000
0
LINE
8
HIDDEN
10
373.602333
20
523.184125
30
0.0
11
373.602333
21
528.726000
31
0.0
0
LINE
8
HIDDEN
10
373.602333
20
528.726000
30
0.0
11
373.840212
21
531.141218
31
0.0
0
LINE
8
HIDDEN
10
373.840212
20
531.141218
30
0.0
11
374.544705
21
533.463621
31
0.0
0
LINE
8
HIDDEN
10
374.544705
20
533.463621
30
0.0
11
375.086706
21
534.477634
31
0.0
0
ARC
8
HIDDEN
10
377.516333
20
538.146000
30
0.0
40
4.400000
50
236.482748
51
27.993077
0
CIRCLE
8
HIDDEN
10
377.516333
20
538.146000
30
0.0
40
4.400000
0
LINE
8
HIDDEN
10
381.401552
20
540.211205
30
0.0
11
383.567115
21
540.868122
31
0.0
0
LINE
8
HIDDEN
10
383.567115
20
540.868122
30
0.0
11
385.982333
21
541.106000
31
0.0
0
LINE
8
HIDDEN
10
385.982333
20
541.106000
30
0.0
11
386.022333
21
541.106000
31
0.0
0
LINE
8
HIDDEN
10
386.022333
20
541.106000
30
0.0
11
388.437552
21
540.868122
31
0.0
0
LINE
8
HIDDEN
10
388.437552
20
540.868122
30
0.0
11
390.603114
21
540.211205
31
0.0
0
ARC
8
HIDDEN
10
394.488333
20
538.146000
30
0.0
40
4.400000
50
152.006923
51
303.517252
0
CIRCLE
8
HIDDEN
10
394.488333
20
538.146000
30
0.0
40
4.400000
0
LINE
8
HIDDEN
10
396.917961
20
534.477634
30
0.0
11
397.459962
21
533.463621
31
0.0
0
LINE
8
HIDDEN
10
397.459962
20
533.463621
30
0.0
11
398.164455
21
531.141218
31
0.0
0
LINE
8
HIDDEN
10
398.164455
20
531.141218
30
0.0
11
398.402333
21
528.726000
31
0.0
0
LINE
8
HIDDEN
10
398.402333
20
528.726000
30
0.0
11
398.402333
21
523.184125
31
0.0
0
ARC
8
HIDDEN
10
394.488333
20
521.174000
30
0.0
40
4.400000
50
90.000000
51
332.816184
0
ARC
8
HIDDEN
10
394.488333
20
521.174000
30
0.0
40
4.400000
50
27.183816
51
90.000000
0
CIRCLE
8
HIDDEN
10
394.488333
20
521.174000
30
0.0
40
4.400000
0
LINE
8
HIDDEN
10
398.402333
20
519.163875
30
0.0
11
398.402333
21
493.895058
31
0.0
0
LINE
8
HIDDEN
10
383.567115
20
468.343878
30
0.0
11
381.244712
21
469.048371
31
0.0
0
LINE
8
HIDDEN
10
385.982333
20
468.106000
30
0.0
11
383.567115
21
468.343878
31
0.0
0
LINE
8
HIDDEN
10
386.022333
20
468.106000
30
0.0
11
385.982333
21
468.106000
31
0.0
0
LINE
8
HIDDEN
10
388.437552
20
468.343878
30
0.0
11
386.022333
21
468.106000
31
0.0
0
LINE
8
HIDDEN
10
390.759954
20
469.048371
30
0.0
11
388.437552
21
468.343878
31
0.0
0
LINE
8
HIDDEN
10
392.900293
20
470.192406
30
0.0
11
390.759954
21
469.048371
31
0.0
0
LINE
8
HIDDEN
10
394.776315
20
471.732018
30
0.0
11
392.900293
21
470.192406
31
0.0
0
LINE
8
HIDDEN
10
396.315927
20
473.608041
30
0.0
11
394.776315
21
471.732018
31
0.0
0
LINE
8
HIDDEN
10
397.459962
20
475.748379
30
0.0
11
396.315927
21
473.608041
31
0.0
0
LINE
8
HIDDEN
10
398.164455
20
478.070782
30
0.0
11
397.459962
21
475.748379
31
0.0
0
LINE
8
HIDDEN
10
398.402333
20
480.486000
30
0.0
11
398.164455
21
478.070782
31
0.0
0
LINE
8
HIDDEN
10
398.402333
20
487.424942
30
0.0
11
398.402333
21
480.486000
31
0.0
0
ARC
8
HIDDEN
10
402.002333
20
490.660000
30
0.0
40
4.840000
50
138.056273
51
221.943727
0
ARC
8
HIDDEN
10
370.002333
20
490.660000
30
0.0
40
4.840000
50
318.056273
51
41.943727
0
LINE
8
HIDDEN
10
373.602333
20
480.486000
30
0.0
11
373.602333
21
487.424942
31
0.0
0
LINE
8
HIDDEN
10
373.840212
20
478.070782
30
0.0
11
373.602333
21
480.486000
31
0.0
0
LINE
8
HIDDEN
10
374.544705
20
475.748379
30
0.0
11
373.840212
21
478.070782
31
0.0
0
LINE
8
HIDDEN
10
375.688740
20
473.608041
30
0.0
11
374.544705
21
475.748379
31
0.0
0
LINE
8
HIDDEN
10
377.228351
20
471.732018
30
0.0
11
375.688740
21
473.608041
31
0.0
0
LINE
8
HIDDEN
10
379.104374
20
470.192406
30
0.0
11
377.228351
21
471.732018
31
0.0
0
LINE
8
HIDDEN
10
381.244712
20
469.048371
30
0.0
11
379.104374
21
470.192406
31
0.0
0
LINE
8
HIDDEN
10
388.002333
20
511.106000
30
0.0
11
384.002333
21
511.106000
31
0.0
0
LINE
8
HIDDEN
10
366.002333
20
474.106000
30
0.0
11
366.002333
21
487.935005
31
0.0
0
ARC
8
HIDDEN
10
370.002333
20
490.660000
30
0.0
40
4.840000
50
214.264603
51
318.056273
0
LINE
8
HIDDEN
10
373.602333
20
487.424942
30
0.0
11
373.602333
21
480.486000
31
0.0
0
LINE
8
HIDDEN
10
373.602333
20
480.486000
30
0.0
11
373.840212
21
478.070782
31
0.0
0
LINE
8
HIDDEN
10
373.840212
20
478.070782
30
0.0
11
374.544705
21
475.748379
31
0.0
0
LINE
8
HIDDEN
10
374.544705
20
475.748379
30
0.0
11
375.688740
21
473.608041
31
0.0
0
LINE
8
HIDDEN
10
375.688740
20
473.608041
30
0.0
11
377.228351
21
471.732018
31
0.0
0
LINE
8
HIDDEN
10
377.228351
20
471.732018
30
0.0
11
379.104374
21
470.192406
31
0.0
0
LINE
8
HIDDEN
10
379.104374
20
470.192406
30
0.0
11
381.244712
21
469.048371
31
0.0
0
LINE
8
HIDDEN
10
381.244712
20
469.048371
30
0.0
11
383.567115
21
468.343878
31
0.0
0
LINE
8
HIDDEN
10
383.567115
20
468.343878
30
0.0
11
385.982333
21
468.106000
31
0.0
0
LINE
8
HIDDEN
10
385.982333
20
468.106000
30
0.0
11
386.022333
21
468.106000
31
0.0
0
LINE
8
HIDDEN
10
386.022333
20
468.106000
30
0.0
11
388.437552
21
468.343878
31
0.0
0
LINE
8
HIDDEN
10
388.437552
20
468.343878
30
0.0
11
390.759954
21
469.048371
31
0.0
0
LINE
8
HIDDEN
10
390.759954
20
469.048371
30
0.0
11
392.900293
21
470.192406
31
0.0
0
LINE
8
HIDDEN
10
392.900293
20
470.192406
30
0.0
11
394.776315
21
471.732018
31
0.0
0
LINE
8
HIDDEN
10
394.776315
20
471.732018
30
0.0
11
396.315927
21
473.608041
31
0.0
0
LINE
8
HIDDEN
10
396.315927
20
473.608041
30
0.0
11
397.459962
21
475.748379
31
0.0
0
LINE
8
HIDDEN
10
397.459962
20
475.748379
30
0.0
11
398.164455
21
478.070782
31
0.0
0
LINE
8
HIDDEN
10
398.164455
20
478.070782
30
0.0
11
398.402333
21
480.486000
31
0.0
0
LINE
8
HIDDEN
10
398.402333
20
480.486000
30
0.0
11
398.402333
21
487.424942
31
0.0
0
ARC
8
HIDDEN
10
402.002333
20
490.660000
30
0.0
40
4.840000
50
221.943727
51
325.735397
0
LINE
8
HIDDEN
10
406.002333
20
487.935005
30
0.0
11
406.002333
21
474.106000
31
0.0
0
ARC
8
HIDDEN
10
370.002333
20
490.660000
30
0.0
40
4.840000
50
90.000000
51
145.735397
0
LINE
8
HIDDEN
10
366.002333
20
487.935005
30
0.0
11
366.002333
21
493.384995
31
0.0
0
ARC
8
HIDDEN
10
370.002333
20
490.660000
30
0.0
40
4.840000
50
214.264603
51
90.000000
0
CIRCLE
8
HIDDEN
10
370.002333
20
490.660000
30
0.0
40
2.400000
0
LINE
8
HIDDEN
10
406.002333
20
511.106000
30
0.0
11
388.002333
21
511.106000
31
0.0
0
LINE
8
HIDDEN
10
384.002333
20
511.106000
30
0.0
11
366.002333
21
511.106000
31
0.0
0
LINE
8
HIDDEN
10
369.002333
20
492.841742
30
0.0
11
369.002333
21
504.106000
31
0.0
0
LINE
8
HIDDEN
10
371.002333
20
492.841742
30
0.0
11
371.002333
21
504.106000
31
0.0
0
LINE
8
HIDDEN
10
401.002333
20
492.841742
30
0.0
11
401.002333
21
504.106000
31
0.0
0
LINE
8
HIDDEN
10
403.002333
20
492.841742
30
0.0
11
403.002333
21
504.106000
31
0.0
0
CIRCLE
8
HIDDEN
10
386.002333
20
445.660000
30
0.0
40
5.500000
0
CIRCLE
8
HIDDEN
10
386.002333
20
445.660000
30
0.0
40
5.500000
0
ARC
8
HIDDEN
10
402.002333
20
490.660000
30
0.0
40
4.840000
50
90.000000
51
325.735397
0
ARC
8
HIDDEN
10
370.002332
20
490.660000
30
0.0
40
4.840001
50
41.943721
51
89.999984
0
ARC
8
HIDDEN
10
377.516335
20
521.173999
30
0.0
40
4.400002
50
152.816181
51
207.183793
0
ARC
8
HIDDEN
10
377.516333
20
538.146000
30
0.0
40
4.400000
50
27.993077
51
236.482748
0
ARC
8
HIDDEN
10
394.488333
20
538.146000
30
0.0
40
4.400000
50
303.517252
51
152.006923
0
ARC
8
HIDDEN
10
394.488334
20
521.173999
30
0.0
40
4.399999
50
332.816186
51
27.183830
0
LINE
8
VISIBLE
10
761.764083
20
529.660000
30
0.0
11
761.764083
21
511.106000
31
0.0
0
LINE
8
VISIBLE
10
761.764083
20
532.270524
30
0.0
11
761.764083
21
529.660000
31
0.0
0
LINE
8
VISIBLE
10
761.764083
20
534.836381
30
0.0
11
761.764083
21
532.270524
31
0.0
0
LINE
8
VISIBLE
10
761.764083
20
537.313669
30
0.0
11
761.764083
21
534.836381
31
0.0
0
LINE
8
VISIBLE
10
761.764083
20
539.660000
30
0.0
11
761.764083
21
537.313669
31
0.0
0
LINE
8
VISIBLE
10
761.764083
20
541.835229
30
0.0
11
761.764083
21
539.660000
31
0.0
0
LINE
8
VISIBLE
10
761.764083
20
543.802136
30
0.0
11
761.764083
21
541.835229
31
0.0
0
LINE
8
VISIBLE
10
761.764083
20
545.527067
30
0.0
11
761.764083
21
543.802136
31
0.0
0
LINE
8
VISIBLE
10
761.764083
20
546.980508
30
0.0
11
761.764083
21
545.527067
31
0.0
0
LINE
8
VISIBLE
10
761.764083
20
548.137591
30
0.0
11
761.764083
21
546.980508
31
0.0
0
LINE
8
VISIBLE
10
761.764083
20
548.978517
30
0.0
11
761.764083
21
548.137591
31
0.0
0
LINE
8
VISIBLE
10
761.764083
20
549.488897
30
0.0
11
761.764083
21
548.978517
31
0.0
0
LINE
8
VISIBLE
10
761.764083
20
549.660000
30
0.0
11
761.764083
21
549.488897
31
0.0
0
LINE
8
VISIBLE
10
761.764083
20
545.560000
30
0.0
11
757.864083
21
545.560000
31
0.0
0
LINE
8
VISIBLE
10
757.864083
20
545.560000
30
0.0
11
757.864083
21
513.760000
31
0.0
0
LINE
8
VISIBLE
10
766.364083
20
487.935005
30
0.0
11
766.364083
21
488.260000
31
0.0
0
LINE
8
VISIBLE
10
766.364083
20
493.060000
30
0.0
11
766.364083
21
493.384995
31
0.0
0
LINE
8
VISIBLE
10
766.364083
20
493.384995
30
0.0
11
766.364083
21
487.935005
31
0.0
0
LINE
8
VISIBLE
10
762.764083
20
492.841742
30
0.0
11
761.764083
21
492.841742
31
0.0
0
LINE
8
VISIBLE
10
762.764083
20
488.478258
30
0.0
11
761.764083
21
488.478258
31
0.0
0
LINE
8
VISIBLE
10
767.364083
20
529.660000
30
0.0
11
767.364083
21
493.384995
31
0.0
0
LINE
8
VISIBLE
10
767.364083
20
532.270524
30
0.0
11
767.364083
21
529.660000
31
0.0
0
LINE
8
VISIBLE
10
767.364083
20
534.836381
30
0.0
11
767.364083
21
532.270524
31
0.0
0
LINE
8
VISIBLE
10
767.364083
20
537.313669
30
0.0
11
767.364083
21
534.836381
31
0.0
0
LINE
8
VISIBLE
10
767.364083
20
539.660000
30
0.0
11
767.364083
21
537.313669
31
0.0
0
LINE
8
VISIBLE
10
767.364083
20
541.835229
30
0.0
11
767.364083
21
539.660000
31
0.0
0
LINE
8
VISIBLE
10
767.364083
20
543.802136
30
0.0
11
767.364083
21
541.835229
31
0.0
0
LINE
8
VISIBLE
10
767.364083
20
545.527067
30
0.0
11
767.364083
21
543.802136
31
0.0
0
LINE
8
VISIBLE
10
767.364083
20
546.980508
30
0.0
11
767.364083
21
545.527067
31
0.0
0
LINE
8
VISIBLE
10
767.364083
20
548.137591
30
0.0
11
767.364083
21
546.980508
31
0.0
0
LINE
8
VISIBLE
10
767.364083
20
548.978517
30
0.0
11
767.364083
21
548.137591
31
0.0
0
LINE
8
VISIBLE
10
767.364083
20
549.488897
30
0.0
11
767.364083
21
548.978517
31
0.0
0
LINE
8
VISIBLE
10
767.364083
20
549.660000
30
0.0
11
767.364083
21
549.488897
31
0.0
0
LINE
8
VISIBLE
10
772.364083
20
541.106000
30
0.0
11
767.364083
21
541.106000
31
0.0
0
LINE
8
VISIBLE
10
772.364083
20
541.106000
30
0.0
11
772.364083
21
540.868122
31
0.0
0
LINE
8
VISIBLE
10
772.364083
20
540.868122
30
0.0
11
767.364083
21
540.868122
31
0.0
0
LINE
8
VISIBLE
10
772.364083
20
540.868122
30
0.0
11
772.364083
21
540.211205
31
0.0
0
LINE
8
VISIBLE
10
772.364083
20
540.211205
30
0.0
11
767.364083
21
540.211205
31
0.0
0
LINE
8
VISIBLE
10
772.364083
20
534.477634
30
0.0
11
772.364083
21
540.211205
31
0.0
0
LINE
8
VISIBLE
10
772.364083
20
534.477634
30
0.0
11
767.364083
21
534.477634
31
0.0
0
LINE
8
VISIBLE
10
772.364083
20
534.477634
30
0.0
11
772.364083
21
533.463621
31
0.0
0
LINE
8
VISIBLE
10
772.364083
20
533.463621
30
0.0
11
767.364083
21
533.463621
31
0.0
0
LINE
8
VISIBLE
10
772.364083
20
533.463621
30
0.0
11
772.364083
21
531.141218
31
0.0
0
LINE
8
VISIBLE
10
772.364083
20
531.141218
30
0.0
11
767.364083
21
531.141218
31
0.0
0
LINE
8
VISIBLE
10
772.364083
20
531.141218
30
0.0
11
772.364083
21
528.726000
31
0.0
0
LINE
8
VISIBLE
10
772.364083
20
528.726000
30
0.0
11
767.364083
21
528.726000
31
0.0
0
LINE
8
VISIBLE
10
772.364083
20
528.726000
30
0.0
11
772.364083
21
523.184125
31
0.0
0
LINE
8
VISIBLE
10
772.364083
20
523.184125
30
0.0
11
767.364083
21
523.184125
31
0.0
0
LINE
8
VISIBLE
10
772.364083
20
519.163875
30
0.0
11
772.364083
21
523.184125
31
0.0
0
LINE
8
VISIBLE
10
772.364083
20
519.163875
30
0.0
11
767.364083
21
519.163875
31
0.0
0
LINE
8
VISIBLE
10
772.364083
20
519.163875
30
0.0
11
772.364083
21
493.895058
31
0.0
0
LINE
8
VISIBLE
10
772.364083
20
493.895058
30
0.0
11
767.364083
21
493.895058
31
0.0
0
LINE
8
VISIBLE
10
772.364083
20
468.343878
30
0.0
11
772.364083
21
468.106000
31
0.0
0
LINE
8
VISIBLE
10
772.364083
20
469.048371
30
0.0
11
772.364083
21
468.343878
31
0.0
0
LINE
8
VISIBLE
10
772.364083
20
470.192406
30
0.0
11
772.364083
21
469.048371
31
0.0
0
LINE
8
VISIBLE
10
772.364083
20
471.732018
30
0.0
11
772.364083
21
470.192406
31
0.0
0
LINE
8
VISIBLE
10
772.364083
20
473.608041
30
0.0
11
772.364083
21
471.732018
31
0.0
0
LINE
8
VISIBLE
10
772.364083
20
475.748379
30
0.0
11
772.364083
21
473.608041
31
0.0
0
LINE
8
VISIBLE
10
772.364083
20
478.070782
30
0.0
11
772.364083
21
475.748379
31
0.0
0
LINE
8
VISIBLE
10
772.364083
20
480.486000
30
0.0
11
772.364083
21
478.070782
31
0.0
0
LINE
8
VISIBLE
10
772.364083
20
487.424942
30
0.0
11
772.364083
21
480.486000
31
0.0
0
LINE
8
VISIBLE
10
772.364083
20
487.424942
30
0.0
11
772.364083
21
493.895058
31
0.0
0
LINE
8
VISIBLE
10
767.364083
20
433.762662
30
0.0
11
767.364083
21
433.660000
31
0.0
0
LINE
8
VISIBLE
10
767.364083
20
434.068890
30
0.0
11
767.364083
21
433.762662
31
0.0
0
LINE
8
VISIBLE
10
767.364083
20
434.573446
30
0.0
11
767.364083
21
434.068890
31
0.0
0
LINE
8
VISIBLE
10
767.364083
20
435.267695
30
0.0
11
767.364083
21
434.573446
31
0.0
0
LINE
8
VISIBLE
10
767.364083
20
436.139760
30
0.0
11
767.364083
21
435.267695
31
0.0
0
LINE
8
VISIBLE
10
767.364083
20
437.174719
30
0.0
11
767.364083
21
436.139760
31
0.0
0
LINE
8
VISIBLE
10
767.364083
20
438.354863
30
0.0
11
767.364083
21
437.174719
31
0.0
0
LINE
8
VISIBLE
10
767.364083
20
439.660000
30
0.0
11
767.364083
21
438.354863
31
0.0
0
LINE
8
VISIBLE
10
767.364083
20
441.067799
30
0.0
11
767.364083
21
439.660000
31
0.0
0
LINE
8
VISIBLE
10
767.364083
20
442.554171
30
0.0
11
767.364083
21
441.067799
31
0.0
0
LINE
8
VISIBLE
10
767.364083
20
487.935005
30
0.0
11
767.364083
21
474.106000
31
0.0
0
LINE
8
VISIBLE
10
767.364083
20
444.093686
30
0.0
11
767.364083
21
442.554171
31
0.0
0
LINE
8
VISIBLE
10
767.364083
20
474.106000
30
0.0
11
767.364083
21
445.660000
31
0.0
0
LINE
8
VISIBLE
10
767.364083
20
445.660000
30
0.0
11
767.364083
21
444.093686
31
0.0
0
LINE
8
VISIBLE
10
772.364083
20
480.486000
30
0.0
11
767.364083
21
480.486000
31
0.0
0
LINE
8
VISIBLE
10
772.364083
20
487.424942
30
0.0
11
767.364083
21
487.424942
31
0.0
0
LINE
8
VISIBLE
10
772.364083
20
468.106000
30
0.0
11
767.364083
21
468.106000
31
0.0
0
LINE
8
VISIBLE
10
772.364083
20
468.343878
30
0.0
11
767.364083
21
468.343878
31
0.0
0
LINE
8
VISIBLE
10
772.364083
20
469.048371
30
0.0
11
767.364083
21
469.048371
31
0.0
0
LINE
8
VISIBLE
10
772.364083
20
470.192406
30
0.0
11
767.364083
21
470.192406
31
0.0
0
LINE
8
VISIBLE
10
772.364083
20
471.732018
30
0.0
11
767.364083
21
471.732018
31
0.0
0
LINE
8
VISIBLE
10
772.364083
20
473.608041
30
0.0
11
767.364083
21
473.608041
31
0.0
0
LINE
8
VISIBLE
10
772.364083
20
475.748379
30
0.0
11
767.364083
21
475.748379
31
0.0
0
LINE
8
VISIBLE
10
772.364083
20
478.070782
30
0.0
11
767.364083
21
478.070782
31
0.0
0
LINE
8
VISIBLE
10
773.764083
20
455.660000
30
0.0
11
767.364083
21
455.660000
31
0.0
0
LINE
8
VISIBLE
10
773.764083
20
455.660000
30
0.0
11
773.764083
21
435.660000
31
0.0
0
LINE
8
VISIBLE
10
762.764083
20
511.106000
30
0.0
11
762.764083
21
474.106000
31
0.0
0
LINE
8
VISIBLE
10
762.764083
20
474.106000
30
0.0
11
762.764083
21
445.660000
31
0.0
0
LINE
8
VISIBLE
10
762.764083
20
445.660000
30
0.0
11
762.764083
21
444.093686
31
0.0
0
LINE
8
VISIBLE
10
762.764083
20
444.093686
30
0.0
11
762.764083
21
442.554171
31
0.0
0
LINE
8
VISIBLE
10
762.764083
20
442.554171
30
0.0
11
762.764083
21
441.067799
31
0.0
0
LINE
8
VISIBLE
10
762.764083
20
441.067799
30
0.0
11
762.764083
21
439.660000
31
0.0
0
LINE
8
VISIBLE
10
762.764083
20
439.660000
30
0.0
11
762.764083
21
438.354863
31
0.0
0
LINE
8
VISIBLE
10
762.764083
20
438.354863
30
0.0
11
762.764083
21
437.174719
31
0.0
0
LINE
8
VISIBLE
10
762.764083
20
437.174719
30
0.0
11
762.764083
21
436.139760
31
0.0
0
LINE
8
VISIBLE
10
762.764083
20
436.139760
30
0.0
11
762.764083
21
435.267695
31
0.0
0
LINE
8
VISIBLE
10
762.764083
20
435.267695
30
0.0
11
762.764083
21
434.573446
31
0.0
0
LINE
8
VISIBLE
10
762.764083
20
434.573446
30
0.0
11
762.764083
21
434.068890
31
0.0
0
LINE
8
VISIBLE
10
762.764083
20
434.068890
30
0.0
11
762.764083
21
433.762662
31
0.0
0
LINE
8
VISIBLE
10
762.764083
20
433.762662
30
0.0
11
762.764083
21
433.660000
31
0.0
0
LINE
8
VISIBLE
10
762.764083
20
511.106000
30
0.0
11
762.764083
21
511.048356
31
0.0
0
LINE
8
VISIBLE
10
762.764083
20
455.660000
30
0.0
11
761.764083
21
455.660000
31
0.0
0
LINE
8
VISIBLE
10
761.764083
20
455.660000
30
0.0
11
761.764083
21
435.660000
31
0.0
0
LINE
8
VISIBLE
10
762.764083
20
476.106000
30
0.0
11
761.764083
21
476.106000
31
0.0
0
LINE
8
VISIBLE
10
761.764083
20
476.106000
30
0.0
11
761.764083
21
488.478258
31
0.0
0
LINE
8
VISIBLE
10
761.764083
20
492.841742
30
0.0
11
761.764083
21
493.106000
31
0.0
0
LINE
8
VISIBLE
10
761.764083
20
493.106000
30
0.0
11
757.864083
21
493.106000
31
0.0
0
LINE
8
VISIBLE
10
757.864083
20
493.106000
30
0.0
11
757.864083
21
504.106000
31
0.0
0
LINE
8
VISIBLE
10
761.764083
20
450.580000
30
0.0
11
758.184083
21
450.580000
31
0.0
0
LINE
8
VISIBLE
10
758.184083
20
450.580000
30
0.0
11
758.184083
21
440.740000
31
0.0
0
LINE
8
VISIBLE
10
767.364083
20
493.384995
30
0.0
11
766.364083
21
493.384995
31
0.0
0
LINE
8
VISIBLE
10
767.364083
20
487.935005
30
0.0
11
766.364083
21
487.935005
31
0.0
0
LINE
8
VISIBLE
10
767.364083
20
474.106000
30
0.0
11
762.764083
21
474.106000
31
0.0
0
LINE
8
VISIBLE
10
762.764083
20
511.106000
30
0.0
11
761.764083
21
511.106000
31
0.0
0
LINE
8
VISIBLE
10
767.364083
20
529.660000
30
0.0
11
761.764083
21
529.660000
31
0.0
0
LINE
8
VISIBLE
10
767.364083
20
532.270524
30
0.0
11
761.764083
21
532.270524
31
0.0
0
LINE
8
VISIBLE
10
767.364083
20
534.836381
30
0.0
11
761.764083
21
534.836381
31
0.0
0
LINE
8
VISIBLE
10
767.364083
20
537.313669
30
0.0
11
761.764083
21
537.313669
31
0.0
0
LINE
8
VISIBLE
10
767.364083
20
539.660000
30
0.0
11
761.764083
21
539.660000
31
0.0
0
LINE
8
VISIBLE
10
767.364083
20
541.835229
30
0.0
11
761.764083
21
541.835229
31
0.0
0
LINE
8
VISIBLE
10
767.364083
20
543.802136
30
0.0
11
761.764083
21
543.802136
31
0.0
0
LINE
8
VISIBLE
10
767.364083
20
545.527067
30
0.0
11
761.764083
21
545.527067
31
0.0
0
LINE
8
VISIBLE
10
767.364083
20
546.980508
30
0.0
11
761.764083
21
546.980508
31
0.0
0
LINE
8
VISIBLE
10
767.364083
20
548.137591
30
0.0
11
761.764083
21
548.137591
31
0.0
0
LINE
8
VISIBLE
10
767.364083
20
548.978517
30
0.0
11
761.764083
21
548.978517
31
0.0
0
LINE
8
VISIBLE
10
767.364083
20
549.488897
30
0.0
11
761.764083
21
549.488897
31
0.0
0
LINE
8
VISIBLE
10
767.364083
20
549.660000
30
0.0
11
761.764083
21
549.660000
31
0.0
0
LINE
8
VISIBLE
10
767.364083
20
445.660000
30
0.0
11
762.764083
21
445.660000
31
0.0
0
LINE
8
VISIBLE
10
767.364083
20
433.660000
30
0.0
11
762.764083
21
433.660000
31
0.0
0
LINE
8
VISIBLE
10
767.364083
20
433.762662
30
0.0
11
762.764083
21
433.762662
31
0.0
0
LINE
8
VISIBLE
10
767.364083
20
434.068890
30
0.0
11
762.764083
21
434.068890
31
0.0
0
LINE
8
VISIBLE
10
767.364083
20
434.573446
30
0.0
11
762.764083
21
434.573446
31
0.0
0
LINE
8
VISIBLE
10
767.364083
20
435.267695
30
0.0
11
762.764083
21
435.267695
31
0.0
0
LINE
8
VISIBLE
10
767.364083
20
436.139760
30
0.0
11
762.764083
21
436.139760
31
0.0
0
LINE
8
VISIBLE
10
767.364083
20
437.174719
30
0.0
11
762.764083
21
437.174719
31
0.0
0
LINE
8
VISIBLE
10
767.364083
20
438.354863
30
0.0
11
762.764083
21
438.354863
31
0.0
0
LINE
8
VISIBLE
10
767.364083
20
439.660000
30
0.0
11
762.764083
21
439.660000
31
0.0
0
LINE
8
VISIBLE
10
767.364083
20
441.067799
30
0.0
11
762.764083
21
441.067799
31
0.0
0
LINE
8
VISIBLE
10
767.364083
20
442.554171
30
0.0
11
762.764083
21
442.554171
31
0.0
0
LINE
8
VISIBLE
10
767.364083
20
444.093686
30
0.0
11
762.764083
21
444.093686
31
0.0
0
LINE
8
VISIBLE
10
762.764083
20
504.106000
30
0.0
11
757.864083
21
504.106000
31
0.0
0
LINE
8
VISIBLE
10
761.764083
20
513.760000
30
0.0
11
757.864083
21
513.760000
31
0.0
0
LINE
8
VISIBLE
10
773.764083
20
435.660000
30
0.0
11
767.364083
21
435.660000
31
0.0
0
LINE
8
VISIBLE
10
762.764083
20
435.660000
30
0.0
11
761.764083
21
435.660000
31
0.0
0
LINE
8
VISIBLE
10
761.764083
20
440.740000
30
0.0
11
758.184083
21
440.740000
31
0.0
0
LINE
8
VISIBLE
10
381.952333
20
716.144462
30
0.0
11
381.952333
21
697.590462
31
0.0
0
LINE
8
VISIBLE
10
381.952333
20
718.754986
30
0.0
11
381.952333
21
716.144462
31
0.0
0
LINE
8
VISIBLE
10
381.952333
20
721.320843
30
0.0
11
381.952333
21
718.754986
31
0.0
0
LINE
8
VISIBLE
10
381.952333
20
723.798131
30
0.0
11
381.952333
21
721.320843
31
0.0
0
LINE
8
VISIBLE
10
381.952333
20
726.144462
30
0.0
11
381.952333
21
723.798131
31
0.0
0
LINE
8
VISIBLE
10
381.952333
20
728.319691
30
0.0
11
381.952333
21
726.144462
31
0.0
0
LINE
8
VISIBLE
10
381.952333
20
730.286598
30
0.0
11
381.952333
21
728.319691
31
0.0
0
LINE
8
VISIBLE
10
381.952333
20
732.011529
30
0.0
11
381.952333
21
730.286598
31
0.0
0
LINE
8
VISIBLE
10
381.952333
20
733.464970
30
0.0
11
381.952333
21
732.011529
31
0.0
0
LINE
8
VISIBLE
10
381.952333
20
734.211592
30
0.0
11
381.952333
21
733.464970
31
0.0
0
LINE
8
VISIBLE
10
387.552333
20
716.144462
30
0.0
11
387.552333
21
679.869457
31
0.0
0
LINE
8
VISIBLE
10
387.552333
20
679.869457
30
0.0
11
386.552333
21
679.869457
31
0.0
0
LINE
8
VISIBLE
10
386.552333
20
679.869457
30
0.0
11
386.552333
21
674.419467
31
0.0
0
LINE
8
VISIBLE
10
387.552333
20
674.419467
30
0.0
11
386.552333
21
674.419467
31
0.0
0
LINE
8
VISIBLE
10
387.552333
20
674.419467
30
0.0
11
387.552333
21
660.590462
31
0.0
0
LINE
8
VISIBLE
10
387.552333
20
660.590462
30
0.0
11
382.952333
21
660.590462
31
0.0
0
LINE
8
VISIBLE
10
382.952333
20
697.590462
30
0.0
11
382.952333
21
660.590462
31
0.0
0
LINE
8
VISIBLE
10
387.552333
20
716.144462
30
0.0
11
381.952333
21
716.144462
31
0.0
0
LINE
8
VISIBLE
10
387.552333
20
718.754986
30
0.0
11
387.552333
21
716.144462
31
0.0
0
LINE
8
VISIBLE
10
387.552333
20
718.754986
30
0.0
11
381.952333
21
718.754986
31
0.0
0
LINE
8
VISIBLE
10
387.552333
20
721.320843
30
0.0
11
387.552333
21
718.754986
31
0.0
0
LINE
8
VISIBLE
10
387.552333
20
721.320843
30
0.0
11
381.952333
21
721.320843
31
0.0
0
LINE
8
VISIBLE
10
387.552333
20
723.798131
30
0.0
11
387.552333
21
721.320843
31
0.0
0
LINE
8
VISIBLE
10
387.552333
20
723.798131
30
0.0
11
381.952333
21
723.798131
31
0.0
0
LINE
8
VISIBLE
10
387.552333
20
726.144462
30
0.0
11
387.552333
21
723.798131
31
0.0
0
LINE
8
VISIBLE
10
387.552333
20
726.144462
30
0.0
11
381.952333
21
726.144462
31
0.0
0
LINE
8
VISIBLE
10
387.552333
20
728.319691
30
0.0
11
387.552333
21
726.144462
31
0.0
0
LINE
8
VISIBLE
10
387.552333
20
728.319691
30
0.0
11
381.952333
21
728.319691
31
0.0
0
LINE
8
VISIBLE
10
387.552333
20
730.286598
30
0.0
11
387.552333
21
728.319691
31
0.0
0
LINE
8
VISIBLE
10
387.552333
20
730.286598
30
0.0
11
381.952333
21
730.286598
31
0.0
0
LINE
8
VISIBLE
10
387.552333
20
732.011529
30
0.0
11
387.552333
21
730.286598
31
0.0
0
LINE
8
VISIBLE
10
387.552333
20
732.011529
30
0.0
11
381.952333
21
732.011529
31
0.0
0
LINE
8
VISIBLE
10
387.552333
20
733.464970
30
0.0
11
387.552333
21
732.011529
31
0.0
0
LINE
8
VISIBLE
10
387.552333
20
733.464970
30
0.0
11
381.952333
21
733.464970
31
0.0
0
LINE
8
VISIBLE
10
387.552333
20
734.211592
30
0.0
11
387.552333
21
733.464970
31
0.0
0
LINE
8
VISIBLE
10
378.052333
20
729.590569
30
0.0
11
378.052333
21
702.698355
31
0.0
0
LINE
8
VISIBLE
10
382.952333
20
624.839325
30
0.0
11
382.952333
21
623.660000
31
0.0
0
LINE
8
VISIBLE
10
382.952333
20
626.144462
30
0.0
11
382.952333
21
624.839325
31
0.0
0
LINE
8
VISIBLE
10
382.952333
20
627.552261
30
0.0
11
382.952333
21
626.144462
31
0.0
0
LINE
8
VISIBLE
10
382.952333
20
629.038633
30
0.0
11
382.952333
21
627.552261
31
0.0
0
LINE
8
VISIBLE
10
382.952333
20
630.578148
30
0.0
11
382.952333
21
629.038633
31
0.0
0
LINE
8
VISIBLE
10
382.952333
20
632.144462
30
0.0
11
382.952333
21
630.578148
31
0.0
0
LINE
8
VISIBLE
10
382.952333
20
660.590462
30
0.0
11
382.952333
21
632.144462
31
0.0
0
LINE
8
VISIBLE
10
386.552333
20
674.419467
30
0.0
11
386.552333
21
674.744462
31
0.0
0
LINE
8
VISIBLE
10
386.552333
20
679.544462
30
0.0
11
386.552333
21
679.869457
31
0.0
0
LINE
8
VISIBLE
10
392.552333
20
673.909404
30
0.0
11
387.552333
21
673.909404
31
0.0
0
LINE
8
VISIBLE
10
392.552333
20
673.909404
30
0.0
11
392.552333
21
680.379520
31
0.0
0
LINE
8
VISIBLE
10
392.552333
20
680.379520
30
0.0
11
387.552333
21
680.379520
31
0.0
0
LINE
8
VISIBLE
10
387.552333
20
624.839325
30
0.0
11
387.552333
21
623.660000
31
0.0
0
LINE
8
VISIBLE
10
387.552333
20
626.144462
30
0.0
11
387.552333
21
624.839325
31
0.0
0
LINE
8
VISIBLE
10
387.552333
20
627.552261
30
0.0
11
387.552333
21
626.144462
31
0.0
0
LINE
8
VISIBLE
10
387.552333
20
629.038633
30
0.0
11
387.552333
21
627.552261
31
0.0
0
LINE
8
VISIBLE
10
387.552333
20
630.578148
30
0.0
11
387.552333
21
629.038633
31
0.0
0
LINE
8
VISIBLE
10
387.552333
20
632.144462
30
0.0
11
387.552333
21
630.578148
31
0.0
0
LINE
8
VISIBLE
10
387.552333
20
660.590462
30
0.0
11
387.552333
21
632.144462
31
0.0
0
LINE
8
VISIBLE
10
387.552333
20
632.144462
30
0.0
11
382.952333
21
632.144462
31
0.0
0
LINE
8
VISIBLE
10
392.552333
20
720.962096
30
0.0
11
387.552333
21
720.962096
31
0.0
0
LINE
8
VISIBLE
10
392.552333
20
705.648337
30
0.0
11
387.552333
21
705.648337
31
0.0
0
LINE
8
VISIBLE
10
392.552333
20
709.668587
30
0.0
11
387.552333
21
709.668587
31
0.0
0
LINE
8
VISIBLE
10
392.552333
20
658.216480
30
0.0
11
392.552333
21
657.980139
31
0.0
0
LINE
8
VISIBLE
10
392.552333
20
660.092502
30
0.0
11
392.552333
21
658.216480
31
0.0
0
LINE
8
VISIBLE
10
392.552333
20
662.232841
30
0.0
11
392.552333
21
660.092502
31
0.0
0
LINE
8
VISIBLE
10
392.552333
20
664.555244
30
0.0
11
392.552333
21
662.232841
31
0.0
0
LINE
8
VISIBLE
10
392.552333
20
666.970462
30
0.0
11
392.552333
21
664.555244
31
0.0
0
LINE
8
VISIBLE
10
392.552333
20
673.909404
30
0.0
11
392.552333
21
666.970462
31
0.0
0
LINE
8
VISIBLE
10
392.552333
20
705.648337
30
0.0
11
392.552333
21
680.379520
31
0.0
0
LINE
8
VISIBLE
10
392.552333
20
658.216480
30
0.0
11
387.552333
21
658.216480
31
0.0
0
LINE
8
VISIBLE
10
387.552333
20
624.839325
30
0.0
11
382.952333
21
624.839325
31
0.0
0
LINE
8
VISIBLE
10
387.552333
20
626.144462
30
0.0
11
382.952333
21
626.144462
31
0.0
0
LINE
8
VISIBLE
10
387.552333
20
627.552261
30
0.0
11
382.952333
21
627.552261
31
0.0
0
LINE
8
VISIBLE
10
387.552333
20
629.038633
30
0.0
11
382.952333
21
629.038633
31
0.0
0
LINE
8
VISIBLE
10
387.552333
20
630.578148
30
0.0
11
382.952333
21
630.578148
31
0.0
0
LINE
8
VISIBLE
10
382.952333
20
662.590462
30
0.0
11
381.952333
21
662.590462
31
0.0
0
LINE
8
VISIBLE
10
382.952333
20
679.326204
30
0.0
11
381.952333
21
679.326204
31
0.0
0
LINE
8
VISIBLE
10
382.952333
20
674.962720
30
0.0
11
381.952333
21
674.962720
31
0.0
0
LINE
8
VISIBLE
10
381.952333
20
662.590462
30
0.0
11
381.952333
21
674.962720
31
0.0
0
LINE
8
VISIBLE
10
381.952333
20
679.326204
30
0.0
11
381.952333
21
679.590462
31
0.0
0
LINE
8
VISIBLE
10
381.952333
20
679.590462
30
0.0
11
378.052333
21
679.590462
31
0.0
0
LINE
8
VISIBLE
10
392.552333
20
720.962096
30
0.0
11
392.552333
21
719.948083
31
0.0
0
LINE
8
VISIBLE
10
392.552333
20
719.948083
30
0.0
11
387.552333
21
719.948083
31
0.0
0
LINE
8
VISIBLE
10
392.552333
20
719.948083
30
0.0
11
392.552333
21
717.625680
31
0.0
0
LINE
8
VISIBLE
10
392.552333
20
717.625680
30
0.0
11
387.552333
21
717.625680
31
0.0
0
LINE
8
VISIBLE
10
392.552333
20
717.625680
30
0.0
11
392.552333
21
715.210462
31
0.0
0
LINE
8
VISIBLE
10
392.552333
20
715.210462
30
0.0
11
387.552333
21
715.210462
31
0.0
0
LINE
8
VISIBLE
10
392.552333
20
715.210462
30
0.0
11
392.552333
21
709.668587
31
0.0
0
LINE
8
VISIBLE
10
392.552333
20
666.970462
30
0.0
11
387.552333
21
666.970462
31
0.0
0
LINE
8
VISIBLE
10
392.552333
20
664.555244
30
0.0
11
387.552333
21
664.555244
31
0.0
0
LINE
8
VISIBLE
10
392.552333
20
662.232841
30
0.0
11
387.552333
21
662.232841
31
0.0
0
LINE
8
VISIBLE
10
392.552333
20
660.092502
30
0.0
11
387.552333
21
660.092502
31
0.0
0
LINE
8
SECTION
10
387.552333
20
729.030462
30
0.0
11
383.572333
21
729.030462
31
0.0
0
LINE
8
SECTION
10
383.572333
20
726.830462
30
0.0
11
383.572333
21
729.030462
31
0.0
0
LINE
8
SECTION
10
383.572333
20
726.830462
30
0.0
11
378.052333
21
726.830462
31
0.0
0
LINE
8
SECTION
10
378.052333
20
726.830462
30
0.0
11
378.052333
21
729.590569
31
0.0
0
LINE
8
SECTION
10
381.952333
20
729.590569
30
0.0
11
378.052333
21
729.590569
31
0.0
0
LINE
8
SECTION
10
381.952333
20
729.590569
30
0.0
11
381.952333
21
734.211592
31
0.0
0
LINE
8
SECTION
10
381.952333
20
734.211592
30
0.0
11
387.552333
21
734.211592
31
0.0
0
LINE
8
SECTION
10
387.552333
20
729.030462
30
0.0
11
387.552333
21
734.211592
31
0.0
0
LINE
8
SECTION
10
381.952333
20
697.590462
30
0.0
11
381.952333
21
702.698355
31
0.0
0
LINE
8
SECTION
10
381.952333
20
702.698355
30
0.0
11
378.052333
21
702.698355
31
0.0
0
LINE
8
SECTION
10
378.052333
20
702.698355
30
0.0
11
378.052333
21
705.458462
31
0.0
0
LINE
8
SECTION
10
383.572333
20
705.458462
30
0.0
11
378.052333
21
705.458462
31
0.0
0
LINE
8
SECTION
10
383.572333
20
703.258462
30
0.0
11
383.572333
21
705.458462
31
0.0
0
LINE
8
SECTION
10
392.552333
20
703.258462
30
0.0
11
383.572333
21
703.258462
31
0.0
0
LINE
8
SECTION
10
392.552333
20
657.980139
30
0.0
11
392.552333
21
703.258462
31
0.0
0
LINE
8
SECTION
10
387.552333
20
657.980139
30
0.0
11
392.552333
21
657.980139
31
0.0
0
LINE
8
SECTION
10
387.552333
20
637.434812
30
0.0
11
387.552333
21
657.980139
31
0.0
0
LINE
8
SECTION
10
393.952333
20
637.434812
30
0.0
11
387.552333
21
637.434812
31
0.0
0
LINE
8
SECTION
10
393.952333
20
626.854112
30
0.0
11
393.952333
21
637.434812
31
0.0
0
LINE
8
SECTION
10
393.952333
20
626.854112
30
0.0
11
387.552333
21
626.854112
31
0.0
0
LINE
8
SECTION
10
387.552333
20
623.660000
30
0.0
11
387.552333
21
626.854112
31
0.0
0
LINE
8
SECTION
10
387.552333
20
623.660000
30
0.0
11
382.952333
21
623.660000
31
0.0
0
LINE
8
SECTION
10
382.952333
20
623.660000
30
0.0
11
382.952333
21
626.854112
31
0.0
0
LINE
8
SECTION
10
382.952333
20
626.854112
30
0.0
11
381.952333
21
626.854112
31
0.0
0
LINE
8
SECTION
10
381.952333
20
626.854112
30
0.0
11
381.952333
21
637.434812
31
0.0
0
LINE
8
SECTION
10
382.952333
20
637.434812
30
0.0
11
381.952333
21
637.434812
31
0.0
0
LINE
8
SECTION
10
382.952333
20
637.434812
30
0.0
11
382.952333
21
679.590462
31
0.0
0
LINE
8
SECTION
10
378.052333
20
679.590462
30
0.0
11
382.952333
21
679.590462
31
0.0
0
LINE
8
SECTION
10
378.052333
20
679.590462
30
0.0
11
378.052333
21
690.590462
31
0.0
0
LINE
8
SECTION
10
378.052333
20
690.590462
30
0.0
11
382.952333
21
690.590462
31
0.0
0
LINE
8
SECTION
10
382.952333
20
690.590462
30
0.0
11
382.952333
21
697.590462
31
0.0
0
LINE
8
SECTION
10
382.952333
20
697.590462
30
0.0
11
381.952333
21
697.590462
31
0.0
0
LINE
8
SECTION
10
392.552333
20
712.058462
30
0.0
11
383.572333
21
712.058462
31
0.0
0
LINE
8
SECTION
10
383.572333
20
709.858462
30
0.0
11
383.572333
21
712.058462
31
0.0
0
LINE
8
SECTION
10
383.572333
20
709.858462
30
0.0
11
378.052333
21
709.858462
31
0.0
0
LINE
8
SECTION
10
378.052333
20
709.858462
30
0.0
11
378.052333
21
722.430462
31
0.0
0
LINE
8
SECTION
10
383.572333
20
722.430462
30
0.0
11
378.052333
21
722.430462
31
0.0
0
LINE
8
SECTION
10
383.572333
20
720.230462
30
0.0
11
383.572333
21
722.430462
31
0.0
0
LINE
8
SECTION
10
392.552333
20
720.230462
30
0.0
11
383.572333
21
720.230462
31
0.0
0
LINE
8
SECTION
10
392.552333
20
712.058462
30
0.0
11
392.552333
21
720.230462
31
0.0
0
CIRCLE
8
VISIBLE
10
337.690779
20
117.000000
30
0.0
40
20.000000
0
CIRCLE
8
VISIBLE
10
337.690779
20
117.000000
30
0.0
40
16.000000
0
CIRCLE
8
VISIBLE
10
337.690779
20
117.000000
30
0.0
40
5.400000
0
CIRCLE
8
VISIBLE
10
337.690779
20
117.000000
30
0.0
40
9.840000
0
CIRCLE
8
SECTION
10
337.690779
20
117.000000
30
0.0
40
17.000000
0
LINE
8
VISIBLE
10
710.968634
20
188.572000
30
0.0
11
760.008485
21
188.572000
31
0.0
0
ARC
8
VISIBLE
10
767.488559
20
147.680000
30
0.0
40
4.800000
50
294.624318
51
65.375682
0
ARC
8
VISIBLE
10
767.488559
20
147.680000
30
0.0
40
4.800000
50
245.375682
51
294.624318
0
ARC
8
VISIBLE
10
767.488559
20
147.680000
30
0.0
40
4.800000
50
114.624318
51
245.375682
0
LINE
8
VISIBLE
10
725.945282
20
184.868101
30
0.0
11
725.603848
21
183.742542
31
0.0
0
ARC
8
VISIBLE
10
703.488559
20
147.680000
30
0.0
40
4.800000
50
294.624318
51
65.375682
0
ARC
8
VISIBLE
10
703.488559
20
147.680000
30
0.0
40
4.800000
50
245.375682
51
294.624318
0
ARC
8
VISIBLE
10
703.488559
20
147.680000
30
0.0
40
4.800000
50
114.624318
51
245.375682
0
LINE
8
VISIBLE
10
775.488559
20
173.629613
30
0.0
11
775.488559
21
121.730387
31
0.0
0
LINE
8
VISIBLE
10
740.659101
20
188.456712
30
0.0
11
739.488559
21
188.572000
31
0.0
0
LINE
8
VISIBLE
10
741.784660
20
188.115277
30
0.0
11
740.659101
21
188.456712
31
0.0
0
LINE
8
VISIBLE
10
742.821981
20
187.560818
30
0.0
11
741.784660
21
188.115277
31
0.0
0
LINE
8
VISIBLE
10
743.731200
20
186.814641
30
0.0
11
742.821981
21
187.560818
31
0.0
0
LINE
8
VISIBLE
10
744.477377
20
185.905421
30
0.0
11
743.731200
21
186.814641
31
0.0
0
LINE
8
VISIBLE
10
745.031837
20
184.868101
30
0.0
11
744.477377
21
185.905421
31
0.0
0
LINE
8
VISIBLE
10
745.373271
20
183.742542
30
0.0
11
745.031837
21
184.868101
31
0.0
0
LINE
8
VISIBLE
10
745.488559
20
182.572000
30
0.0
11
745.373271
21
183.742542
31
0.0
0
LINE
8
VISIBLE
10
745.488559
20
148.572000
30
0.0
11
745.488559
21
182.572000
31
0.0
0
LINE
8
VISIBLE
10
745.373271
20
147.401458
30
0.0
11
745.488559
21
148.572000
31
0.0
0
LINE
8
VISIBLE
10
745.031837
20
146.275899
30
0.0
11
745.373271
21
147.401458
31
0.0
0
LINE
8
VISIBLE
10
744.477377
20
145.238579
30
0.0
11
745.031837
21
146.275899
31
0.0
0
LINE
8
VISIBLE
10
743.731200
20
144.329359
30
0.0
11
744.477377
21
145.238579
31
0.0
0
LINE
8
VISIBLE
10
742.821981
20
143.583182
30
0.0
11
743.731200
21
144.329359
31
0.0
0
LINE
8
VISIBLE
10
741.784660
20
143.028723
30
0.0
11
742.821981
21
143.583182
31
0.0
0
LINE
8
VISIBLE
10
740.659101
20
142.687288
30
0.0
11
741.784660
21
143.028723
31
0.0
0
LINE
8
VISIBLE
10
739.488559
20
142.572000
30
0.0
11
740.659101
21
142.687288
31
0.0
0
LINE
8
VISIBLE
10
731.488559
20
142.572000
30
0.0
11
739.488559
21
142.572000
31
0.0
0
LINE
8
VISIBLE
10
730.318017
20
142.687288
30
0.0
11
731.488559
21
142.572000
31
0.0
0
LINE
8
VISIBLE
10
729.192459
20
143.028723
30
0.0
11
730.318017
21
142.687288
31
0.0
0
LINE
8
VISIBLE
10
728.155138
20
143.583182
30
0.0
11
729.192459
21
143.028723
31
0.0
0
LINE
8
VISIBLE
10
727.245919
20
144.329359
30
0.0
11
728.155138
21
143.583182
31
0.0
0
LINE
8
VISIBLE
10
726.499742
20
145.238579
30
0.0
11
727.245919
21
144.329359
31
0.0
0
LINE
8
VISIBLE
10
725.945282
20
146.275899
30
0.0
11
726.499742
21
145.238579
31
0.0
0
LINE
8
VISIBLE
10
725.603848
20
147.401458
30
0.0
11
725.945282
21
146.275899
31
0.0
0
LINE
8
VISIBLE
10
725.488559
20
148.572000
30
0.0
11
725.603848
21
147.401458
31
0.0
0
LINE
8
VISIBLE
10
725.488559
20
182.572000
30
0.0
11
725.488559
21
148.572000
31
0.0
0
LINE
8
VISIBLE
10
725.603848
20
183.742542
30
0.0
11
725.488559
21
182.572000
31
0.0
0
LINE
8
VISIBLE
10
695.488559
20
121.730387
30
0.0
11
695.488559
21
173.629613
31
0.0
0
LINE
8
VISIBLE
10
726.499742
20
185.905421
30
0.0
11
725.945282
21
184.868101
31
0.0
0
LINE
8
VISIBLE
10
727.245919
20
186.814641
30
0.0
11
726.499742
21
185.905421
31
0.0
0
LINE
8
VISIBLE
10
731.488559
20
188.572000
30
0.0
11
730.318017
21
188.456712
31
0.0
0
LINE
8
VISIBLE
10
728.155138
20
187.560818
30
0.0
11
727.245919
21
186.814641
31
0.0
0
LINE
8
VISIBLE
10
730.318017
20
188.456712
30
0.0
11
729.192459
21
188.115277
31
0.0
0
LINE
8
VISIBLE
10
729.192459
20
188.115277
30
0.0
11
728.155138
21
187.560818
31
0.0
0
LINE
8
VISIBLE
10
701.488559
20
118.572000
30
0.0
11
701.488559
21
143.316515
31
0.0
0
LINE
8
VISIBLE
10
705.488559
20
118.572000
30
0.0
11
701.488559
21
118.572000
31
0.0
0
LINE
8
VISIBLE
10
705.488559
20
118.572000
30
0.0
11
705.488559
21
143.316515
31
0.0
0
LINE
8
VISIBLE
10
721.488559
20
152.572000
30
0.0
11
717.488559
21
152.572000
31
0.0
0
LINE
8
VISIBLE
10
717.488559
20
152.572000
30
0.0
11
717.488559
21
174.572000
31
0.0
0
LINE
8
VISIBLE
10
721.488559
20
152.572000
30
0.0
11
721.488559
21
174.572000
31
0.0
0
LINE
8
VISIBLE
10
721.488559
20
174.572000
30
0.0
11
717.488559
21
174.572000
31
0.0
0
LINE
8
VISIBLE
10
753.488559
20
152.572000
30
0.0
11
749.488559
21
152.572000
31
0.0
0
LINE
8
VISIBLE
10
749.488559
20
152.572000
30
0.0
11
749.488559
21
174.572000
31
0.0
0
LINE
8
VISIBLE
10
753.488559
20
152.572000
30
0.0
11
753.488559
21
174.572000
31
0.0
0
LINE
8
VISIBLE
10
753.488559
20
174.572000
30
0.0
11
749.488559
21
174.572000
31
0.0
0
LINE
8
VISIBLE
10
765.488559
20
118.572000
30
0.0
11
765.488559
21
143.316515
31
0.0
0
LINE
8
VISIBLE
10
769.488559
20
118.572000
30
0.0
11
765.488559
21
118.572000
31
0.0
0
LINE
8
VISIBLE
10
769.488559
20
118.572000
30
0.0
11
769.488559
21
143.316515
31
0.0
0
LINE
8
VISIBLE
10
705.488559
20
152.043485
30
0.0
11
705.488559
21
152.572000
31
0.0
0
LINE
8
VISIBLE
10
701.488559
20
152.043485
30
0.0
11
701.488559
21
152.572000
31
0.0
0
LINE
8
VISIBLE
10
769.488559
20
152.043485
30
0.0
11
769.488559
21
152.572000
31
0.0
0
LINE
8
VISIBLE
10
765.488559
20
152.043485
30
0.0
11
765.488559
21
152.572000
31
0.0
0
LINE
8
VISIBLE
10
705.488559
20
152.572000
30
0.0
11
701.488559
21
152.572000
31
0.0
0
LINE
8
VISIBLE
10
769.488559
20
152.572000
30
0.0
11
765.488559
21
152.572000
31
0.0
0
LINE
8
VISIBLE
10
705.488559
20
152.572000
30
0.0
11
705.488559
21
174.572000
31
0.0
0
LINE
8
VISIBLE
10
705.488559
20
174.572000
30
0.0
11
701.488559
21
174.572000
31
0.0
0
LINE
8
VISIBLE
10
701.488559
20
152.572000
30
0.0
11
701.488559
21
174.572000
31
0.0
0
LINE
8
VISIBLE
10
769.488559
20
152.572000
30
0.0
11
769.488559
21
174.572000
31
0.0
0
LINE
8
VISIBLE
10
769.488559
20
174.572000
30
0.0
11
765.488559
21
174.572000
31
0.0
0
LINE
8
VISIBLE
10
765.488559
20
152.572000
30
0.0
11
765.488559
21
174.572000
31
0.0
0
ARC
8
VISIBLE
10
767.488562
20
147.680002
30
0.0
40
4.799998
50
65.375699
51
114.624352
0
ARC
8
VISIBLE
10
703.488588
20
147.679967
30
0.0
40
4.800032
50
65.376160
51
114.624469
0
CIRCLE
8
SECTION
10
735.488559
20
147.680000
30
0.0
40
47.680000
0
LINE
8
VISIBLE
10
1106.996127
20
101.694033
30
0.0
11
1129.675992
21
101.694033
31
0.0
0
CIRCLE
8
VISIBLE
10
1118.336059
20
138.802033
30
0.0
40
31.800000
0
CIRCLE
8
VISIBLE
10
1101.364059
20
121.830033
30
0.0
40
4.400000
0
CIRCLE
8
VISIBLE
10
1101.364059
20
155.774033
30
0.0
40
4.400000
0
CIRCLE
8
VISIBLE
10
1135.308059
20
121.830033
30
0.0
40
4.400000
0
CIRCLE
8
VISIBLE
10
1118.336059
20
138.802033
30
0.0
40
12.000000
0
CIRCLE
8
VISIBLE
10
1135.308059
20
155.774033
30
0.0
40
4.400000
0
LINE
8
VISIBLE
10
1123.506601
20
101.578744
30
0.0
11
1122.336059
21
101.694033
31
0.0
0
LINE
8
VISIBLE
10
1124.632160
20
101.237310
30
0.0
11
1123.506601
21
101.578744
31
0.0
0
LINE
8
VISIBLE
10
1125.646851
20
100.694946
30
0.0
11
1124.632160
21
101.237310
31
0.0
0
LINE
8
VISIBLE
10
1114.336059
20
101.694033
30
0.0
11
1113.165517
21
101.578744
31
0.0
0
LINE
8
VISIBLE
10
1113.165517
20
101.578744
30
0.0
11
1112.039959
21
101.237310
31
0.0
0
LINE
8
VISIBLE
10
1112.039959
20
101.237310
30
0.0
11
1111.025267
21
100.694946
31
0.0
0
CIRCLE
8
SECTION
10
1118.336059
20
138.802033
30
0.0
40
38.802033
0
CIRCLE
8
CENTER
10
386.002333
20
445.660000
30
0.0
40
8.500000
0
TEXT
8
TEXT
10
396.002333
20
455.660000
30
0.0
40
5.0000
1
A
0
CIRCLE
8
CENTER
10
386.002333
20
490.660000
30
0.0
40
23.840000
0
TEXT
8
TEXT
10
411.342333
20
516.000000
30
0.0
40
5.0000
1
B
0
CIRCLE
8
CENTER
10
386.002333
20
529.660000
30
0.0
40
19.401016
0
TEXT
8
TEXT
10
406.903350
20
550.561016
30
0.0
40
5.0000
1
C
0
LINE
8
CENTER
10
371.516333
20
538.146000
30
0.0
11
376.316333
21
538.146000
31
0.0
0
LINE
8
CENTER
10
378.716333
20
538.146000
30
0.0
11
383.516333
21
538.146000
31
0.0
0
LINE
8
CENTER
10
377.516333
20
532.146000
30
0.0
11
377.516333
21
536.946000
31
0.0
0
LINE
8
CENTER
10
377.516333
20
539.346000
30
0.0
11
377.516333
21
544.146000
31
0.0
0
LINE
8
CENTER
10
388.488333
20
538.146000
30
0.0
11
393.288333
21
538.146000
31
0.0
0
LINE
8
CENTER
10
395.688333
20
538.146000
30
0.0
11
400.488333
21
538.146000
31
0.0
0
LINE
8
CENTER
10
394.488333
20
532.146000
30
0.0
11
394.488333
21
536.946000
31
0.0
0
LINE
8
CENTER
10
394.488333
20
539.346000
30
0.0
11
394.488333
21
544.146000
31
0.0
0
LINE
8
CENTER
10
378.402333
20
529.660000
30
0.0
11
384.802333
21
529.660000
31
0.0
0
LINE
8
CENTER
10
387.202333
20
529.660000
30
0.0
11
393.602333
21
529.660000
31
0.0
0
LINE
8
CENTER
10
386.002333
20
522.060000
30
0.0
11
386.002333
21
528.460000
31
0.0
0
LINE
8
CENTER
10
386.002333
20
530.860000
30
0.0
11
386.002333
21
537.260000
31
0.0
0
LINE
8
CENTER
10
371.516333
20
521.174000
30
0.0
11
376.316333
21
521.174000
31
0.0
0
LINE
8
CENTER
10
378.716333
20
521.174000
30
0.0
11
383.516333
21
521.174000
31
0.0
0
LINE
8
CENTER
10
377.516333
20
515.174000
30
0.0
11
377.516333
21
519.974000
31
0.0
0
LINE
8
CENTER
10
377.516333
20
522.374000
30
0.0
11
377.516333
21
527.174000
31
0.0
0
LINE
8
CENTER
10
388.488333
20
521.174000
30
0.0
11
393.288333
21
521.174000
31
0.0
0
LINE
8
CENTER
10
395.688333
20
521.174000
30
0.0
11
400.488333
21
521.174000
31
0.0
0
LINE
8
CENTER
10
394.488333
20
515.174000
30
0.0
11
394.488333
21
519.974000
31
0.0
0
LINE
8
CENTER
10
394.488333
20
522.374000
30
0.0
11
394.488333
21
527.174000
31
0.0
0
LINE
8
CENTER
10
363.562333
20
490.660000
30
0.0
11
368.802333
21
490.660000
31
0.0
0
LINE
8
CENTER
10
371.202333
20
490.660000
30
0.0
11
376.442333
21
490.660000
31
0.0
0
LINE
8
CENTER
10
370.002333
20
484.220000
30
0.0
11
370.002333
21
489.460000
31
0.0
0
LINE
8
CENTER
10
370.002333
20
491.860000
30
0.0
11
370.002333
21
497.100000
31
0.0
0
LINE
8
CENTER
10
395.562333
20
490.660000
30
0.0
11
400.802333
21
490.660000
31
0.0
0
LINE
8
CENTER
10
403.202333
20
490.660000
30
0.0
11
408.442333
21
490.660000
31
0.0
0
LINE
8
CENTER
10
402.002333
20
484.220000
30
0.0
11
402.002333
21
489.460000
31
0.0
0
LINE
8
CENTER
10
402.002333
20
491.860000
30
0.0
11
402.002333
21
497.100000
31
0.0
0
LINE
8
CENTER
10
378.902333
20
445.660000
30
0.0
11
384.802333
21
445.660000
31
0.0
0
LINE
8
CENTER
10
387.202333
20
445.660000
30
0.0
11
393.102333
21
445.660000
31
0.0
0
LINE
8
CENTER
10
386.002333
20
438.560000
30
0.0
11
386.002333
21
444.460000
31
0.0
0
LINE
8
CENTER
10
386.002333
20
446.860000
30
0.0
11
386.002333
21
452.760000
31
0.0
0
LINE
8
DIM
10
366.002333
20
432.460000
30
0.0
11
366.002333
21
410.660000
31
0.0
0
LINE
8
DIM
10
406.002333
20
432.460000
30
0.0
11
406.002333
21
410.660000
31
0.0
0
LINE
8
DIM
10
366.002333
20
412.660000
30
0.0
11
406.002333
21
412.660000
31
0.0
0
SOLID
8
DIM
10
366.002333
20
412.660000
30
0.0
11
369.202333
21
412.052000
31
0.0
12
369.202333
22
413.268000
32
0.0
13
369.202333
23
413.268000
33
0.0
0
SOLID
8
DIM
10
406.002333
20
412.660000
30
0.0
11
402.802333
21
413.268000
31
0.0
12
402.802333
22
412.052000
32
0.0
13
402.802333
23
412.052000
33
0.0
0
TEXT
8
TEXT
10
386.002333
20
413.660000
30
0.0
40
3.5000
1
20.00
72
1
73
0
11
386.002333
21
413.660000
31
0.0
0
LINE
8
DIM
10
364.802333
20
433.660000
30
0.0
11
343.002333
21
433.660000
31
0.0
0
LINE
8
DIM
10
364.802333
20
549.660000
30
0.0
11
343.002333
21
549.660000
31
0.0
0
LINE
8
DIM
10
345.002333
20
433.660000
30
0.0
11
345.002333
21
549.660000
31
0.0
0
SOLID
8
DIM
10
345.002333
20
433.660000
30
0.0
11
345.610333
21
436.860000
31
0.0
12
344.394333
22
436.860000
32
0.0
13
344.394333
23
436.860000
33
0.0
0
SOLID
8
DIM
10
345.002333
20
549.660000
30
0.0
11
344.394333
21
546.460000
31
0.0
12
345.610333
22
546.460000
32
0.0
13
345.610333
23
546.460000
33
0.0
0
TEXT
8
TEXT
10
344.002333
20
491.660000
30
0.0
40
3.5000
1
58.00
50
90.0000
72
1
73
0
11
344.002333
21
491.660000
31
0.0
0
SOLID
8
DIM
10
380.225244
20
541.613247
30
0.0
11
382.674471
21
543.760560
31
0.0
12
381.716250
22
544.509204
32
0.0
13
381.716250
23
544.509204
33
0.0
0
LINE
8
DIM
10
380.225244
20
541.613247
30
0.0
11
399.793912
21
566.660000
31
0.0
0
LINE
8
DIM
10
399.793912
20
566.660000
30
0.0
11
404.793912
21
566.660000
31
0.0
0
TEXT
8
TEXT
10
405.593912
20
572.735000
30
0.0
40
3.5000
1
4x Ø2.20 THRU
0
TEXT
8
TEXT
10
405.593912
20
567.660000
30
0.0
40
3.5000
1
C'BORE Ø4.40x4.49 +X
0
SOLID
8
DIM
10
372.776239
20
494.626238
30
0.0
11
375.108465
21
496.900087
31
0.0
12
374.111989
22
497.597002
32
0.0
13
374.111989
23
497.597002
33
0.0
0
LINE
8
DIM
10
372.776239
20
494.626238
30
0.0
11
432.002333
21
579.310000
31
0.0
0
LINE
8
DIM
10
432.002333
20
579.310000
30
0.0
11
437.002333
21
579.310000
31
0.0
0
TEXT
8
TEXT
10
437.802333
20
585.385000
30
0.0
40
3.5000
1
2x Ø2.40 THRU
0
TEXT
8
TEXT
10
437.802333
20
580.310000
30
0.0
40
3.5000
1
C'BORE Ø4.84x3.00 +X
0
SOLID
8
DIM
10
389.566283
20
534.486827
30
0.0
11
391.956175
21
536.699988
31
0.0
12
390.977938
22
537.422282
32
0.0
13
390.977938
23
537.422282
33
0.0
0
LINE
8
DIM
10
389.566283
20
534.486827
30
0.0
11
432.002333
21
591.960000
31
0.0
0
LINE
8
DIM
10
432.002333
20
591.960000
30
0.0
11
437.002333
21
591.960000
31
0.0
0
TEXT
8
TEXT
10
437.802333
20
592.960000
30
0.0
40
3.5000
1
Ø6.00 THRU
0
SOLID
8
DIM
10
387.577641
20
450.929574
30
0.0
11
389.076710
21
453.821364
31
0.0
12
387.911655
22
454.169651
32
0.0
13
387.911655
23
454.169651
33
0.0
0
LINE
8
DIM
10
387.577641
20
450.929574
30
0.0
11
432.002333
21
599.535000
31
0.0
0
LINE
8
DIM
10
432.002333
20
599.535000
30
0.0
11
437.002333
21
599.535000
31
0.0
0
TEXT
8
TEXT
10
437.802333
20
605.610000
30
0.0
40
3.5000
1
Ø2.70 THRU
0
TEXT
8
TEXT
10
437.802333
20
600.535000
30
0.0
40
3.5000
1
C'BORE Ø5.50x3.49 -X
0
SOLID
8
DIM
10
386.002333
20
513.760000
30
0.0
11
386.610333
21
516.960000
31
0.0
12
385.394333
22
516.960000
32
0.0
13
385.394333
23
516.960000
33
0.0
0
LINE
8
DIM
10
386.002333
20
513.760000
30
0.0
11
386.002333
21
523.760000
31
0.0
0
LINE
8
DIM
10
386.002333
20
523.760000
30
0.0
11
383.002333
21
523.760000
31
0.0
0
TEXT
8
TEXT
10
382.202333
20
524.760000
30
0.0
40
3.5000
1
R7.95
72
2
73
0
11
382.202333
21
524.760000
31
0.0
0
SOLID
8
DIM
10
386.002333
20
435.660000
30
0.0
11
385.394333
21
432.460000
31
0.0
12
386.610333
22
432.460000
32
0.0
13
386.610333
23
432.460000
33
0.0
0
LINE
8
DIM
10
386.002333
20
435.660000
30
0.0
11
386.002333
21
425.660000
31
0.0
0
LINE
8
DIM
10
386.002333
20
425.660000
30
0.0
11
383.002333
21
425.660000
31
0.0
0
TEXT
8
TEXT
10
382.202333
20
426.660000
30
0.0
40
3.5000
1
R5.00
72
2
73
0
11
382.202333
21
426.660000
31
0.0
0
SOLID
8
DIM
10
386.002333
20
437.660000
30
0.0
11
388.062861
21
435.137325
31
0.0
12
388.844490
22
436.068835
32
0.0
13
388.844490
23
436.068835
33
0.0
0
LINE
8
DIM
10
386.002333
20
437.660000
30
0.0
11
393.662778
21
431.232124
31
0.0
0
LINE
8
DIM
10
393.662778
20
431.232124
30
0.0
11
396.662778
21
431.232124
31
0.0
0
TEXT
8
TEXT
10
397.462778
20
432.232124
30
0.0
40
3.5000
1
R4.00
0
SOLID
8
DIM
10
386.002333
20
523.660000
30
0.0
11
386.610333
21
526.860000
31
0.0
12
385.394333
22
526.860000
32
0.0
13
385.394333
23
526.860000
33
0.0
0
LINE
8
DIM
10
386.002333
20
523.660000
30
0.0
11
386.002333
21
533.660000
31
0.0
0
LINE
8
DIM
10
386.002333
20
533.660000
30
0.0
11
383.002333
21
533.660000
31
0.0
0
TEXT
8
TEXT
10
382.202333
20
534.660000
30
0.0
40
3.5000
1
R3.00
72
2
73
0
11
382.202333
21
534.660000
31
0.0
0
SOLID
8
DIM
10
386.002333
20
440.160000
30
0.0
11
384.098920
21
437.516767
31
0.0
12
385.200990
22
437.002863
32
0.0
13
385.200990
23
437.002863
33
0.0
0
LINE
8
DIM
10
386.002333
20
440.160000
30
0.0
11
381.776151
21
431.096922
31
0.0
0
LINE
8
DIM
10
381.776151
20
431.096922
30
0.0
11
378.776151
21
431.096922
31
0.0
0
TEXT
8
TEXT
10
377.976151
20
432.096922
30
0.0
40
3.5000
1
R2.75
72
2
73
0
11
377.976151
21
432.096922
31
0.0
0
SOLID
8
DIM
10
386.002333
20
440.740000
30
0.0
11
389.048140
21
439.585563
31
0.0
12
389.259296
22
440.783089
32
0.0
13
389.259296
23
440.783089
33
0.0
0
LINE
8
DIM
10
386.002333
20
440.740000
30
0.0
11
395.850411
21
439.003518
31
0.0
0
LINE
8
DIM
10
395.850411
20
439.003518
30
0.0
11
398.850411
21
439.003518
31
0.0
0
TEXT
8
TEXT
10
399.650411
20
440.003518
30
0.0
40
3.5000
1
R2.46
0
SOLID
8
DIM
10
367.739965
20
494.938702
30
0.0
11
365.474676
21
497.279242
31
0.0
12
364.774115
22
496.285326
32
0.0
13
364.774115
23
496.285326
33
0.0
0
LINE
8
DIM
10
367.739965
20
494.938702
30
0.0
11
359.566310
21
500.699896
31
0.0
0
LINE
8
DIM
10
359.566310
20
500.699896
30
0.0
11
356.566310
21
500.699896
31
0.0
0
TEXT
8
TEXT
10
355.766310
20
501.699896
30
0.0
40
3.5000
1
R2.42
72
2
73
0
11
355.766310
21
501.699896
31
0.0
0
SOLID
8
DIM
10
392.221938
20
541.917399
30
0.0
11
391.814415
21
545.149053
31
0.0
12
390.657572
22
544.774394
32
0.0
13
390.657572
23
544.774394
33
0.0
0
LINE
8
DIM
10
392.221938
20
541.917399
30
0.0
11
389.140861
21
551.430914
31
0.0
0
LINE
8
DIM
10
389.140861
20
551.430914
30
0.0
11
386.140861
21
551.430914
31
0.0
0
TEXT
8
TEXT
10
385.340861
20
552.430914
30
0.0
40
3.5000
1
R2.20
72
2
73
0
11
385.340861
21
552.430914
31
0.0
0
SOLID
8
DIM
10
386.002333
20
442.960000
30
0.0
11
383.160176
21
441.368835
31
0.0
12
383.941806
22
440.437325
32
0.0
13
383.941806
23
440.437325
33
0.0
0
LINE
8
DIM
10
386.002333
20
442.960000
30
0.0
11
378.341889
21
436.532124
31
0.0
0
LINE
8
DIM
10
378.341889
20
436.532124
30
0.0
11
375.341889
21
436.532124
31
0.0
0
TEXT
8
TEXT
10
374.541889
20
437.532124
30
0.0
40
3.5000
1
R1.35
72
2
73
0
11
374.541889
21
437.532124
31
0.0
0
SOLID
8
DIM
10
404.402333
20
490.660000
30
0.0
11
407.564623
21
489.879239
31
0.0
12
407.630613
22
491.093447
32
0.0
13
407.630613
23
491.093447
33
0.0
0
LINE
8
DIM
10
404.402333
20
490.660000
30
0.0
11
414.387598
21
490.117323
31
0.0
0
LINE
8
DIM
10
414.387598
20
490.117323
30
0.0
11
417.387598
21
490.117323
31
0.0
0
TEXT
8
TEXT
10
418.187598
20
491.117323
30
0.0
40
3.5000
1
R1.20
0
SOLID
8
DIM
10
377.516333
20
535.946000
30
0.0
11
377.511248
21
539.203244
31
0.0
12
376.316976
22
538.974400
32
0.0
13
376.316976
23
538.974400
33
0.0
0
LINE
8
DIM
10
377.516333
20
535.946000
30
0.0
11
375.634391
21
545.767318
31
0.0
0
LINE
8
DIM
10
375.634391
20
545.767318
30
0.0
11
372.634391
21
545.767318
31
0.0
0
TEXT
8
TEXT
10
371.834391
20
546.767318
30
0.0
40
3.5000
1
R1.10
72
2
73
0
11
371.834391
21
546.767318
31
0.0
0
TEXT
8
TEXT
10
386.002333
20
400.660000
30
0.0
40
5.0000
1
RIGHT VIEW
72
1
73
0
11
386.002333
21
400.660000
31
0.0
0
LINE
8
TEXT
10
371.002333
20
399.060000
30
0.0
11
401.002333
21
399.060000
31
0.0
0
TEXT
8
TEXT
10
386.002333
20
394.660000
30
0.0
40
3.5000
1
-Y →   Z ↑
72
1
73
0
11
386.002333
21
394.660000
31
0.0
0
LINE
8
DIM
10
757.864083
20
432.460000
30
0.0
11
757.864083
21
419.660000
31
0.0
0
LINE
8
DIM
10
773.764083
20
432.460000
30
0.0
11
773.764083
21
419.660000
31
0.0
0
LINE
8
DIM
10
757.864083
20
421.660000
30
0.0
11
773.764083
21
421.660000
31
0.0
0
SOLID
8
DIM
10
757.864083
20
421.660000
30
0.0
11
761.064083
21
421.052000
31
0.0
12
761.064083
22
422.268000
32
0.0
13
761.064083
23
422.268000
33
0.0
0
SOLID
8
DIM
10
773.764083
20
421.660000
30
0.0
11
770.564083
21
422.268000
31
0.0
12
770.564083
22
421.052000
32
0.0
13
770.564083
23
421.052000
33
0.0
0
TEXT
8
TEXT
10
765.814083
20
422.660000
30
0.0
40
3.5000
1
7.95
72
1
73
0
11
765.814083
21
422.660000
31
0.0
0
LINE
8
DIM
10
756.664083
20
433.660000
30
0.0
11
743.864083
21
433.660000
31
0.0
0
LINE
8
DIM
10
756.664083
20
549.660000
30
0.0
11
743.864083
21
549.660000
31
0.0
0
LINE
8
DIM
10
745.864083
20
433.660000
30
0.0
11
745.864083
21
549.660000
31
0.0
0
SOLID
8
DIM
10
745.864083
20
433.660000
30
0.0
11
746.472083
21
436.860000
31
0.0
12
745.256083
22
436.860000
32
0.0
13
745.256083
23
436.860000
33
0.0
0
SOLID
8
DIM
10
745.864083
20
549.660000
30
0.0
11
745.256083
21
546.460000
31
0.0
12
746.472083
22
546.460000
32
0.0
13
746.472083
23
546.460000
33
0.0
0
TEXT
8
TEXT
10
744.864083
20
491.660000
30
0.0
40
3.5000
1
58.00
50
90.0000
72
1
73
0
11
744.864083
21
491.660000
31
0.0
0
TEXT
8
TEXT
10
765.814083
20
409.660000
30
0.0
40
5.0000
1
FRONT VIEW
72
1
73
0
11
765.814083
21
409.660000
31
0.0
0
LINE
8
TEXT
10
750.814083
20
408.060000
30
0.0
11
780.814083
21
408.060000
31
0.0
0
TEXT
8
TEXT
10
765.814083
20
403.660000
30
0.0
40
3.5000
1
-X →   Z ↑
72
1
73
0
11
765.814083
21
403.660000
31
0.0
0
LINE
8
DIM
10
378.052333
20
622.460000
30
0.0
11
378.052333
21
609.660000
31
0.0
0
LINE
8
DIM
10
393.952333
20
622.460000
30
0.0
11
393.952333
21
609.660000
31
0.0
0
LINE
8
DIM
10
378.052333
20
611.660000
30
0.0
11
393.952333
21
611.660000
31
0.0
0
SOLID
8
DIM
10
378.052333
20
611.660000
30
0.0
11
381.252333
21
611.052000
31
0.0
12
381.252333
22
612.268000
32
0.0
13
381.252333
23
612.268000
33
0.0
0
SOLID
8
DIM
10
393.952333
20
611.660000
30
0.0
11
390.752333
21
612.268000
31
0.0
12
390.752333
22
611.052000
32
0.0
13
390.752333
23
611.052000
33
0.0
0
TEXT
8
TEXT
10
386.002333
20
612.660000
30
0.0
40
3.5000
1
7.95
72
1
73
0
11
386.002333
21
612.660000
31
0.0
0
LINE
8
DIM
10
376.852333
20
623.660000
30
0.0
11
364.052333
21
623.660000
31
0.0
0
LINE
8
DIM
10
376.852333
20
734.211592
30
0.0
11
364.052333
21
734.211592
31
0.0
0
LINE
8
DIM
10
366.052333
20
623.660000
30
0.0
11
366.052333
21
734.211592
31
0.0
0
SOLID
8
DIM
10
366.052333
20
623.660000
30
0.0
11
366.660333
21
626.860000
31
0.0
12
365.444333
22
626.860000
32
0.0
13
365.444333
23
626.860000
33
0.0
0
SOLID
8
DIM
10
366.052333
20
734.211592
30
0.0
11
365.444333
21
731.011592
31
0.0
12
366.660333
22
731.011592
32
0.0
13
366.660333
23
731.011592
33
0.0
0
TEXT
8
TEXT
10
365.052333
20
678.935796
30
0.0
40
3.5000
1
55.28
50
90.0000
72
1
73
0
11
365.052333
21
678.935796
31
0.0
0
LINE
8
HATCH
10
387.552331
20
729.030462
30
0.0
11
387.552333
21
729.030465
31
0.0
0
LINE
8
HATCH
10
381.109690
20
726.830462
30
0.0
11
387.552333
21
733.273105
31
0.0
0
LINE
8
HATCH
10
378.052333
20
728.015746
30
0.0
11
379.627157
21
729.590569
31
0.0
0
LINE
8
HATCH
10
381.952333
20
731.915746
30
0.0
11
384.248179
21
734.211592
31
0.0
0
LINE
8
HATCH
10
393.952331
20
626.854112
30
0.0
11
393.952333
21
626.854115
31
0.0
0
LINE
8
HATCH
10
386.515578
20
623.660000
30
0.0
11
387.552333
21
624.696755
31
0.0
0
LINE
8
HATCH
10
389.709690
20
626.854112
30
0.0
11
393.952333
21
631.096755
31
0.0
0
LINE
8
HATCH
10
382.952333
20
624.339396
30
0.0
11
393.952333
21
635.339396
31
0.0
0
LINE
8
HATCH
10
381.952333
20
627.582037
30
0.0
11
391.805109
21
637.434812
31
0.0
0
LINE
8
HATCH
10
381.952333
20
631.824677
30
0.0
11
387.562468
21
637.434812
31
0.0
0
LINE
8
HATCH
10
381.952333
20
636.067318
30
0.0
11
387.552333
21
641.667318
31
0.0
0
LINE
8
HATCH
10
382.952333
20
641.309959
30
0.0
11
387.552333
21
645.909959
31
0.0
0
LINE
8
HATCH
10
382.952333
20
645.552599
30
0.0
11
387.552333
21
650.152599
31
0.0
0
LINE
8
HATCH
10
382.952333
20
649.795240
30
0.0
11
387.552333
21
654.395240
31
0.0
0
LINE
8
HATCH
10
391.137232
20
657.980139
30
0.0
11
392.552333
21
659.395240
31
0.0
0
LINE
8
HATCH
10
382.952333
20
654.037881
30
0.0
11
392.552333
21
663.637881
31
0.0
0
LINE
8
HATCH
10
382.952333
20
658.280522
30
0.0
11
392.552333
21
667.880522
31
0.0
0
LINE
8
HATCH
10
382.952333
20
662.523162
30
0.0
11
392.552333
21
672.123162
31
0.0
0
LINE
8
HATCH
10
382.952333
20
666.765803
30
0.0
11
392.552333
21
676.365803
31
0.0
0
LINE
8
HATCH
10
382.952333
20
671.008444
30
0.0
11
392.552333
21
680.608444
31
0.0
0
LINE
8
HATCH
10
382.952333
20
675.251084
30
0.0
11
392.552333
21
684.851084
31
0.0
0
LINE
8
HATCH
10
382.952333
20
679.493725
30
0.0
11
392.552333
21
689.093725
31
0.0
0
LINE
8
HATCH
10
378.806430
20
679.590462
30
0.0
11
392.552333
21
693.336366
31
0.0
0
LINE
8
HATCH
10
378.052333
20
683.079006
30
0.0
11
392.552333
21
697.579006
31
0.0
0
LINE
8
HATCH
10
378.052333
20
687.321647
30
0.0
11
381.321148
21
690.590462
31
0.0
0
LINE
8
HATCH
10
382.952333
20
692.221647
30
0.0
11
392.552333
21
701.821647
31
0.0
0
LINE
8
HATCH
10
382.952333
20
696.464288
30
0.0
11
389.746508
21
703.258462
31
0.0
0
LINE
8
HATCH
10
381.952333
20
699.706928
30
0.0
11
385.503867
21
703.258462
31
0.0
0
LINE
8
HATCH
10
380.701119
20
702.698355
30
0.0
11
383.461226
21
705.458462
31
0.0
0
LINE
8
HATCH
10
378.052333
20
704.292210
30
0.0
11
379.218585
21
705.458462
31
0.0
0
LINE
8
HATCH
10
392.552331
20
712.058462
30
0.0
11
392.552333
21
712.058465
31
0.0
0
LINE
8
HATCH
10
388.309690
20
712.058462
30
0.0
11
392.552333
21
716.301105
31
0.0
0
LINE
8
HATCH
10
381.867049
20
709.858462
30
0.0
11
383.572333
21
711.563746
31
0.0
0
LINE
8
HATCH
10
384.067049
20
712.058462
30
0.0
11
392.239049
21
720.230462
31
0.0
0
LINE
8
HATCH
10
378.052333
20
710.286387
30
0.0
11
387.996408
21
720.230462
31
0.0
0
LINE
8
HATCH
10
378.052333
20
714.529028
30
0.0
11
383.753768
21
720.230462
31
0.0
0
LINE
8
HATCH
10
378.052333
20
718.771668
30
0.0
11
381.711127
21
722.430462
31
0.0
0
LINE
8
DIM
10
383.094834
20
726.830462
30
0.0
11
404.952333
21
726.830462
31
0.0
0
LINE
8
DIM
10
383.094834
20
729.590569
30
0.0
11
404.952333
21
729.590569
31
0.0
0
LINE
8
DIM
10
402.952333
20
726.830462
30
0.0
11
402.952333
21
729.590569
31
0.0
0
SOLID
8
DIM
10
402.952333
20
726.830462
30
0.0
11
402.344333
21
723.630462
31
0.0
12
403.560333
22
723.630462
32
0.0
13
403.560333
23
723.630462
33
0.0
0
SOLID
8
DIM
10
402.952333
20
729.590569
30
0.0
11
403.560333
21
732.790569
31
0.0
12
402.344333
22
732.790569
32
0.0
13
402.344333
23
732.790569
33
0.0
0
LINE
8
DIM
10
402.952333
20
729.590569
30
0.0
11
402.952333
21
739.190569
31
0.0
0
TEXT
8
TEXT
10
401.952333
20
739.990569
30
0.0
40
3.5000
1
1.38 WALL
50
90.0000
0
LINE
8
DIM
10
382.952333
20
625.781265
30
0.0
11
382.952333
21
764.211592
31
0.0
0
LINE
8
DIM
10
387.552333
20
625.781265
30
0.0
11
387.552333
21
764.211592
31
0.0
0
LINE
8
DIM
10
382.952333
20
762.211592
30
0.0
11
387.552333
21
762.211592
31
0.0
0
SOLID
8
DIM
10
382.952333
20
762.211592
30
0.0
11
379.752333
21
762.819592
31
0.0
12
379.752333
22
761.603592
32
0.0
13
379.752333
23
761.603592
33
0.0
0
SOLID
8
DIM
10
387.552333
20
762.211592
30
0.0
11
390.752333
21
761.603592
31
0.0
12
390.752333
22
762.819592
32
0.0
13
390.752333
23
762.819592
33
0.0
0
LINE
8
DIM
10
387.552333
20
762.211592
30
0.0
11
397.152333
21
762.211592
31
0.0
0
TEXT
8
TEXT
10
397.952333
20
762.611592
30
0.0
40
3.5000
1
2.30 WALL
0
TEXT
8
TEXT
10
386.002333
20
599.660000
30
0.0
40
5.0000
1
SECTION A-A
72
1
73
0
11
386.002333
21
599.660000
31
0.0
0
LINE
8
TEXT
10
369.502333
20
598.060000
30
0.0
11
402.502333
21
598.060000
31
0.0
0
LINE
8
CENTER
10
325.090779
20
117.000000
30
0.0
11
336.490779
21
117.000000
31
0.0
0
LINE
8
CENTER
10
338.890779
20
117.000000
30
0.0
11
350.290779
21
117.000000
31
0.0
0
LINE
8
CENTER
10
337.690779
20
104.400000
30
0.0
11
337.690779
21
115.800000
31
0.0
0
LINE
8
CENTER
10
337.690779
20
118.200000
30
0.0
11
337.690779
21
129.600000
31
0.0
0
TEXT
8
TEXT
10
337.690779
20
139.000000
30
0.0
40
5.0000
1
DETAIL A
72
1
73
0
11
337.690779
21
139.000000
31
0.0
0
LINE
8
TEXT
10
325.690779
20
137.400000
30
0.0
11
349.690779
21
137.400000
31
0.0
0
TEXT
8
TEXT
10
337.690779
20
145.500000
30
0.0
40
3.5000
1
SCALE 4:1
72
1
73
0
11
337.690779
21
145.500000
31
0.0
0
SOLID
8
DIM
10
337.690779
20
97.000000
30
0.0
11
337.082779
21
93.800000
31
0.0
12
338.298779
22
93.800000
32
0.0
13
338.298779
23
93.800000
33
0.0
0
LINE
8
DIM
10
337.690779
20
97.000000
30
0.0
11
337.690779
21
87.000000
31
0.0
0
LINE
8
DIM
10
337.690779
20
87.000000
30
0.0
11
340.690779
21
87.000000
31
0.0
0
TEXT
8
TEXT
10
341.490779
20
88.000000
30
0.0
40
3.5000
1
R5.00
0
SOLID
8
DIM
10
337.690779
20
101.000000
30
0.0
11
338.492122
21
97.842863
31
0.0
12
339.594193
22
98.356767
32
0.0
13
339.594193
23
98.356767
33
0.0
0
LINE
8
DIM
10
337.690779
20
101.000000
30
0.0
11
341.916962
21
91.936922
31
0.0
0
LINE
8
DIM
10
341.916962
20
91.936922
30
0.0
11
344.916962
21
91.936922
31
0.0
0
TEXT
8
TEXT
10
345.716962
20
92.936922
30
0.0
40
3.5000
1
R4.00
0
SOLID
8
DIM
10
337.690779
20
106.000000
30
0.0
11
338.492122
21
102.842863
31
0.0
12
339.594193
22
103.356767
32
0.0
13
339.594193
23
103.356767
33
0.0
0
LINE
8
DIM
10
337.690779
20
106.000000
30
0.0
11
341.916962
21
96.936922
31
0.0
0
LINE
8
DIM
10
341.916962
20
96.936922
30
0.0
11
344.916962
21
96.936922
31
0.0
0
TEXT
8
TEXT
10
345.716962
20
97.936922
30
0.0
40
3.5000
1
R2.75
0
SOLID
8
DIM
10
337.690779
20
107.160000
30
0.0
11
335.787366
21
104.516767
31
0.0
12
336.889436
22
104.002863
32
0.0
13
336.889436
23
104.002863
33
0.0
0
LINE
8
DIM
10
337.690779
20
107.160000
30
0.0
11
333.464597
21
98.096922
31
0.0
0
LINE
8
DIM
10
333.464597
20
98.096922
30
0.0
11
330.464597
21
98.096922
31
0.0
0
TEXT
8
TEXT
10
329.664597
20
99.096922
30
0.0
40
3.5000
1
R2.46
72
2
73
0
11
329.664597
21
99.096922
31
0.0
0
SOLID
8
DIM
10
337.690779
20
111.600000
30
0.0
11
338.492122
21
108.442863
31
0.0
12
339.594193
22
108.956767
32
0.0
13
339.594193
23
108.956767
33
0.0
0
LINE
8
DIM
10
337.690779
20
111.600000
30
0.0
11
341.916962
21
102.536922
31
0.0
0
LINE
8
DIM
10
341.916962
20
102.536922
30
0.0
11
344.916962
21
102.536922
31
0.0
0
TEXT
8
TEXT
10
345.716962
20
103.536922
30
0.0
40
3.5000
1
R1.35
0
LINE
8
CENTER
10
692.208559
20
147.680000
30
0.0
11
702.288559
21
147.680000
31
0.0
0
LINE
8
CENTER
10
704.688559
20
147.680000
30
0.0
11
714.768559
21
147.680000
31
0.0
0
LINE
8
CENTER
10
703.488559
20
136.400000
30
0.0
11
703.488559
21
146.480000
31
0.0
0
LINE
8
CENTER
10
703.488559
20
148.880000
30
0.0
11
703.488559
21
158.960000
31
0.0
0
LINE
8
CENTER
10
756.208559
20
147.680000
30
0.0
11
766.288559
21
147.680000
31
0.0
0
LINE
8
CENTER
10
768.688559
20
147.680000
30
0.0
11
778.768559
21
147.680000
31
0.0
0
LINE
8
CENTER
10
767.488559
20
136.400000
30
0.0
11
767.488559
21
146.480000
31
0.0
0
LINE
8
CENTER
10
767.488559
20
148.880000
30
0.0
11
767.488559
21
158.960000
31
0.0
0
TEXT
8
TEXT
10
735.488559
20
200.360000
30
0.0
40
5.0000
1
DETAIL B
72
1
73
0
11
735.488559
21
200.360000
31
0.0
0
LINE
8
TEXT
10
723.488559
20
198.760000
30
0.0
11
747.488559
21
198.760000
31
0.0
0
TEXT
8
TEXT
10
735.488559
20
206.860000
30
0.0
40
3.5000
1
SCALE 4:1
72
1
73
0
11
735.488559
21
206.860000
31
0.0
0
SOLID
8
DIM
10
735.488559
20
193.880000
30
0.0
11
732.442753
21
195.034437
31
0.0
12
732.231596
22
193.836911
32
0.0
13
732.231596
23
193.836911
33
0.0
0
LINE
8
DIM
10
735.488559
20
193.880000
30
0.0
11
725.640482
21
195.616482
31
0.0
0
LINE
8
DIM
10
725.640482
20
195.616482
30
0.0
11
722.640482
21
195.616482
31
0.0
0
TEXT
8
TEXT
10
721.840482
20
196.616482
30
0.0
40
3.5000
1
R7.95
72
2
73
0
11
721.840482
21
196.616482
31
0.0
0
SOLID
8
DIM
10
698.963822
20
156.237404
30
0.0
11
698.062943
21
159.367592
31
0.0
12
696.977693
22
158.819060
32
0.0
13
696.977693
23
158.819060
33
0.0
0
LINE
8
DIM
10
698.963822
20
156.237404
30
0.0
11
694.452871
21
165.162162
31
0.0
0
LINE
8
DIM
10
694.452871
20
165.162162
30
0.0
11
691.452871
21
165.162162
31
0.0
0
TEXT
8
TEXT
10
690.652871
20
166.162162
30
0.0
40
3.5000
1
R2.42
72
2
73
0
11
690.652871
21
166.162162
31
0.0
0
SOLID
8
DIM
10
772.288559
20
147.680000
30
0.0
11
773.442997
21
150.725807
31
0.0
12
772.245470
22
150.936963
32
0.0
13
772.245470
23
150.936963
33
0.0
0
LINE
8
DIM
10
772.288559
20
147.680000
30
0.0
11
774.025041
21
157.528078
31
0.0
0
LINE
8
DIM
10
774.025041
20
157.528078
30
0.0
11
777.025041
21
157.528078
31
0.0
0
TEXT
8
TEXT
10
777.825041
20
158.528078
30
0.0
40
3.5000
1
R1.20
0
LINE
8
CENTER
10
1090.964059
20
155.774033
30
0.0
11
1100.164059
21
155.774033
31
0.0
0
LINE
8
CENTER
10
1102.564059
20
155.774033
30
0.0
11
1111.764059
21
155.774033
31
0.0
0
LINE
8
CENTER
10
1101.364059
20
145.374033
30
0.0
11
1101.364059
21
154.574033
31
0.0
0
LINE
8
CENTER
10
1101.364059
20
156.974033
30
0.0
11
1101.364059
21
166.174033
31
0.0
0
LINE
8
CENTER
10
1124.908059
20
155.774033
30
0.0
11
1134.108059
21
155.774033
31
0.0
0
LINE
8
CENTER
10
1136.508059
20
155.774033
30
0.0
11
1145.708059
21
155.774033
31
0.0
0
LINE
8
CENTER
10
1135.308059
20
145.374033
30
0.0
11
1135.308059
21
154.574033
31
0.0
0
LINE
8
CENTER
10
1135.308059
20
156.974033
30
0.0
11
1135.308059
21
166.174033
31
0.0
0
LINE
8
CENTER
10
1104.736059
20
138.802033
30
0.0
11
1117.136059
21
138.802033
31
0.0
0
LINE
8
CENTER
10
1119.536059
20
138.802033
30
0.0
11
1131.936059
21
138.802033
31
0.0
0
LINE
8
CENTER
10
1118.336059
20
125.202033
30
0.0
11
1118.336059
21
137.602033
31
0.0
0
LINE
8
CENTER
10
1118.336059
20
140.002033
30
0.0
11
1118.336059
21
152.402033
31
0.0
0
LINE
8
CENTER
10
1090.964059
20
121.830033
30
0.0
11
1100.164059
21
121.830033
31
0.0
0
LINE
8
CENTER
10
1102.564059
20
121.830033
30
0.0
11
1111.764059
21
121.830033
31
0.0
0
LINE
8
CENTER
10
1101.364059
20
111.430033
30
0.0
11
1101.364059
21
120.630033
31
0.0
0
LINE
8
CENTER
10
1101.364059
20
123.030033
30
0.0
11
1101.364059
21
132.230033
31
0.0
0
LINE
8
CENTER
10
1124.908059
20
121.830033
30
0.0
11
1134.108059
21
121.830033
31
0.0
0
LINE
8
CENTER
10
1136.508059
20
121.830033
30
0.0
11
1145.708059
21
121.830033
31
0.0
0
LINE
8
CENTER
10
1135.308059
20
111.430033
30
0.0
11
1135.308059
21
120.630033
31
0.0
0
LINE
8
CENTER
10
1135.308059
20
123.030033
30
0.0
11
1135.308059
21
132.230033
31
0.0
0
TEXT
8
TEXT
10
1118.336059
20
182.604065
30
0.0
40
5.0000
1
DETAIL C
72
1
73
0
11
1118.336059
21
182.604065
31
0.0
0
LINE
8
TEXT
10
1106.336059
20
181.004065
30
0.0
11
1130.336059
21
181.004065
31
0.0
0
TEXT
8
TEXT
10
1118.336059
20
189.104065
30
0.0
40
3.5000
1
SCALE 4:1
72
1
73
0
11
1118.336059
21
189.104065
31
0.0
0
SOLID
8
DIM
10
1118.336059
20
107.002033
30
0.0
11
1117.728059
21
103.802033
31
0.0
12
1118.944059
22
103.802033
32
0.0
13
1118.944059
23
103.802033
33
0.0
0
LINE
8
DIM
10
1118.336059
20
107.002033
30
0.0
11
1118.336059
21
97.002033
31
0.0
0
LINE
8
DIM
10
1118.336059
20
97.002033
30
0.0
11
1121.336059
21
97.002033
31
0.0
0
TEXT
8
TEXT
10
1122.136059
20
98.002033
30
0.0
40
3.5000
1
R7.95
0
SOLID
8
DIM
10
1118.336059
20
126.802033
30
0.0
11
1117.728059
21
123.602033
31
0.0
12
1118.944059
22
123.602033
32
0.0
13
1118.944059
23
123.602033
33
0.0
0
LINE
8
DIM
10
1118.336059
20
126.802033
30
0.0
11
1118.336059
21
116.802033
31
0.0
0
LINE
8
DIM
10
1118.336059
20
116.802033
30
0.0
11
1121.336059
21
116.802033
31
0.0
0
TEXT
8
TEXT
10
1122.136059
20
117.802033
30
0.0
40
3.5000
1
R3.00
0
SOLID
8
DIM
10
1092.937813
20
158.311428
30
0.0
11
1090.770452
21
160.742932
31
0.0
12
1090.029705
22
159.778593
32
0.0
13
1090.029705
23
159.778593
33
0.0
0
LINE
8
DIM
10
1092.937813
20
158.311428
30
0.0
11
1085.007393
21
164.403097
31
0.0
0
LINE
8
DIM
10
1085.007393
20
164.403097
30
0.0
11
1082.007393
21
164.403097
31
0.0
0
TEXT
8
TEXT
10
1081.207393
20
165.403097
30
0.0
40
3.5000
1
R2.20
72
2
73
0
11
1081.207393
21
165.403097
31
0.0
0
SOLID
8
DIM
10
1101.364059
20
117.430033
30
0.0
11
1098.897898
21
115.302191
31
0.0
12
1099.850158
22
114.545979
32
0.0
13
1099.850158
23
114.545979
33
0.0
0
LINE
8
DIM
10
1101.364059
20
117.430033
30
0.0
11
1095.145212
21
109.598945
31
0.0
0
LINE
8
DIM
10
1095.145212
20
109.598945
30
0.0
11
1092.145212
21
109.598945
31
0.0
0
TEXT
8
TEXT
10
1091.345212
20
110.598945
30
0.0
40
3.5000
1
R1.10
72
2
73
0
11
1091.345212
21
110.598945
31
0.0
0
LINE
8
CUT
10
394.488333
20
424.660000
30
0.0
11
394.488333
21
438.660000
31
0.0
0
LINE
8
CUTTHIN
10
394.488333
20
438.660000
30
0.0
11
394.488333
21
544.660000
31
0.0
0
LINE
8
CUT
10
394.488333
20
544.660000
30
0.0
11
394.488333
21
558.660000
31
0.0
0
LINE
8
CUT
10
394.488333
20
424.660000
30
0.0
11
403.488333
21
424.660000
31
0.0
0
SOLID
8
CUT
10
403.488333
20
424.660000
30
0.0
11
399.288333
21
425.458000
31
0.0
12
399.288333
22
423.862000
32
0.0
13
399.288333
23
423.862000
33
0.0
0
TEXT
8
TEXT
10
389.488333
20
424.660000
30
0.0
40
5.0000
1
A
72
1
73
2
11
389.488333
21
424.660000
31
0.0
0
LINE
8
CUT
10
394.488333
20
558.660000
30
0.0
11
403.488333
21
558.660000
31
0.0
0
SOLID
8
CUT
10
403.488333
20
558.660000
30
0.0
11
399.288333
21
559.458000
31
0.0
12
399.288333
22
557.862000
32
0.0
13
399.288333
23
557.862000
33
0.0
0
TEXT
8
TEXT
10
389.488333
20
558.660000
30
0.0
40
5.0000
1
A
72
1
73
2
11
389.488333
21
558.660000
31
0.0
0
TEXT
8
TEXT
10
1075.640000
20
620.160000
30
0.0
40
4.5000
1
HOLE TABLE — 8 POSITIONS
0
LINE
8
TITLE
10
1075.640000
20
617.660000
30
0.0
11
1166.240000
21
617.660000
31
0.0
0
TEXT
8
TITLE
10
1077.140000
20
612.785000
30
0.0
40
3.5000
1
TAG
0
TEXT
8
TITLE
10
1086.440000
20
612.785000
30
0.0
40
3.5000
1
SIZE
0
TEXT
8
TITLE
10
1110.440000
20
612.785000
30
0.0
40
3.5000
1
Y
0
TEXT
8
TITLE
10
1123.940000
20
612.785000
30
0.0
40
3.5000
1
Z
0
TEXT
8
TITLE
10
1137.440000
20
612.785000
30
0.0
40
3.5000
1
C'BORE
0
LINE
8
TITLE
10
1075.640000
20
611.185000
30
0.0
11
1166.240000
21
611.185000
31
0.0
0
TEXT
8
TEXT
10
1077.140000
20
606.310000
30
0.0
40
3.5000
1
A1
0
TEXT
8
TEXT
10
1086.440000
20
606.310000
30
0.0
40
3.5000
1
Ø2.20 THRU
0
TEXT
8
TEXT
10
1110.440000
20
606.310000
30
0.0
40
3.5000
1
26.24
0
TEXT
8
TEXT
10
1123.940000
20
606.310000
30
0.0
40
3.5000
1
40.02
0
TEXT
8
TEXT
10
1137.440000
20
606.310000
30
0.0
40
3.5000
1
Ø4.40x4.49 +X
0
TEXT
8
TEXT
10
1077.140000
20
599.835000
30
0.0
40
3.5000
1
A2
0
TEXT
8
TEXT
10
1086.440000
20
599.835000
30
0.0
40
3.5000
1
Ø2.20 THRU
0
TEXT
8
TEXT
10
1110.440000
20
599.835000
30
0.0
40
3.5000
1
17.76
0
TEXT
8
TEXT
10
1123.940000
20
599.835000
30
0.0
40
3.5000
1
40.02
0
TEXT
8
TEXT
10
1137.440000
20
599.835000
30
0.0
40
3.5000
1
Ø4.40x4.49 +X
0
TEXT
8
TEXT
10
1077.140000
20
593.360000
30
0.0
40
3.5000
1
A3
0
TEXT
8
TEXT
10
1086.440000
20
593.360000
30
0.0
40
3.5000
1
Ø6.00 THRU
0
TEXT
8
TEXT
10
1110.440000
20
593.360000
30
0.0
40
3.5000
1
22.00
0
TEXT
8
TEXT
10
1123.940000
20
593.360000
30
0.0
40
3.5000
1
35.78
0
TEXT
8
TEXT
10
1137.440000
20
593.360000
30
0.0
40
3.5000
1
-
0
TEXT
8
TEXT
10
1077.140000
20
586.885000
30
0.0
40
3.5000
1
A4
0
TEXT
8
TEXT
10
1086.440000
20
586.885000
30
0.0
40
3.5000
1
Ø2.20 THRU
0
TEXT
8
TEXT
10
1110.440000
20
586.885000
30
0.0
40
3.5000
1
26.24
0
TEXT
8
TEXT
10
1123.940000
20
586.885000
30
0.0
40
3.5000
1
31.53
0
TEXT
8
TEXT
10
1137.440000
20
586.885000
30
0.0
40
3.5000
1
Ø4.40x4.49 +X
0
TEXT
8
TEXT
10
1077.140000
20
580.410000
30
0.0
40
3.5000
1
A5
0
TEXT
8
TEXT
10
1086.440000
20
580.410000
30
0.0
40
3.5000
1
Ø2.20 THRU
0
TEXT
8
TEXT
10
1110.440000
20
580.410000
30
0.0
40
3.5000
1
17.76
0
TEXT
8
TEXT
10
1123.940000
20
580.410000
30
0.0
40
3.5000
1
31.53
0
TEXT
8
TEXT
10
1137.440000
20
580.410000
30
0.0
40
3.5000
1
Ø4.40x4.49 +X
0
TEXT
8
TEXT
10
1077.140000
20
573.935000
30
0.0
40
3.5000
1
A6
0
TEXT
8
TEXT
10
1086.440000
20
573.935000
30
0.0
40
3.5000
1
Ø2.40 THRU
0
TEXT
8
TEXT
10
1110.440000
20
573.935000
30
0.0
40
3.5000
1
30.00
0
TEXT
8
TEXT
10
1123.940000
20
573.935000
30
0.0
40
3.5000
1
16.28
0
TEXT
8
TEXT
10
1137.440000
20
573.935000
30
0.0
40
3.5000
1
Ø4.84x3.00 +X
0
TEXT
8
TEXT
10
1077.140000
20
567.460000
30
0.0
40
3.5000
1
A7
0
TEXT
8
TEXT
10
1086.440000
20
567.460000
30
0.0
40
3.5000
1
Ø2.40 THRU
0
TEXT
8
TEXT
10
1110.440000
20
567.460000
30
0.0
40
3.5000
1
14.00
0
TEXT
8
TEXT
10
1123.940000
20
567.460000
30
0.0
40
3.5000
1
16.28
0
TEXT
8
TEXT
10
1137.440000
20
567.460000
30
0.0
40
3.5000
1
Ø4.84x3.00 +X
0
TEXT
8
TEXT
10
1077.140000
20
560.985000
30
0.0
40
3.5000
1
A8
0
TEXT
8
TEXT
10
1086.440000
20
560.985000
30
0.0
40
3.5000
1
Ø2.70 THRU
0
TEXT
8
TEXT
10
1110.440000
20
560.985000
30
0.0
40
3.5000
1
22.00
0
TEXT
8
TEXT
10
1123.940000
20
560.985000
30
0.0
40
3.5000
1
-6.22
0
TEXT
8
TEXT
10
1137.440000
20
560.985000
30
0.0
40
3.5000
1
Ø5.50x3.49 -X
0
LINE
8
TITLE
10
1075.640000
20
559.385000
30
0.0
11
1166.240000
21
559.385000
31
0.0
0
LINE
8
TITLE
10
1084.940000
20
559.385000
30
0.0
11
1084.940000
21
617.660000
31
0.0
0
LINE
8
TITLE
10
1108.940000
20
559.385000
30
0.0
11
1108.940000
21
617.660000
31
0.0
0
LINE
8
TITLE
10
1122.440000
20
559.385000
30
0.0
11
1122.440000
21
617.660000
31
0.0
0
LINE
8
TITLE
10
1135.940000
20
559.385000
30
0.0
11
1135.940000
21
617.660000
31
0.0
0
LINE
8
TITLE
10
1166.240000
20
559.385000
30
0.0
11
1166.240000
21
617.660000
31
0.0
0
LINE
8
TITLE
10
1075.640000
20
559.385000
30
0.0
11
1075.640000
21
617.660000
31
0.0
0
TEXT
8
TITLE
10
1075.640000
20
555.385000
30
0.0
40
3.5000
1
every row measured off the solid; positions are model
0
TEXT
8
TITLE
10
1075.640000
20
550.135000
30
0.0
40
3.5000
1
coordinates, mm. C'BORE side is the face it opens on;
0
TEXT
8
TITLE
10
1075.640000
20
544.885000
30
0.0
40
3.5000
1
INT = centred in the bore, opening on neither face.
0
TEXT
8
TEXT
10
13.000000
20
548.660000
30
0.0
40
7.0000
1
MICRODUCK SHIN
0
TEXT
8
TEXT
10
13.000000
20
540.160000
30
0.0
40
3.5000
1
2:1
0
TEXT
8
TEXT
10
13.000000
20
535.160000
30
0.0
40
3.5000
1
A0 / THIRD ANGLE / mm
0
TEXT
8
TEXT
10
13.000000
20
530.160000
30
0.0
40
3.5000
1
7.95 x 20.00 x 58.00
0
TEXT
8
TEXT
10
13.000000
20
525.160000
30
0.0
40
3.5000
1
3.39 cm3
0
TEXT
8
TEXT
10
13.000000
20
520.160000
30
0.0
40
3.5000
1
CAD SOURCE: part:microduck-shin
0
TEXT
8
TEXT
10
13.000000
20
515.160000
30
0.0
40
3.5000
1
DATUM: XYZ MINIMUM ENCLOSING PLANES
0
TEXT
8
TEXT
10
13.000000
20
510.160000
30
0.0
40
3.5000
1
XYZ origin mm: 32.5000, 12.0000, -12.2230
0
TEXT
8
TEXT
10
13.000000
20
505.160000
30
0.0
40
3.5000
1
GENERAL TOLERANCE CANNOT DETERMINE — SEE PRINT / DFM NOTES UNLESS STATED.
0
TEXT
8
TEXT
10
13.000000
20
500.160000
30
0.0
40
3.5000
1
DRAFT — NOT RELEASED
0
TEXT
8
TEXT
10
480.600000
20
508.660000
30
0.0
40
3.5000
1
PRINT / DFM
0
TEXT
8
TEXT
10
480.600000
20
501.660000
30
0.0
40
3.5000
1
ORIENTATION: upright, Z-up (8 x 20 x 58 mm)
0
TEXT
8
TEXT
10
480.600000
20
496.660000
30
0.0
40
3.5000
1
THINNEST WALL, WHOLE SOLID (RAY MINIMUM): 0.0280 mm — a
0
TEXT
8
TEXT
10
480.600000
20
491.660000
30
0.0
40
3.5000
1
distance through material, NOT a printable wall where it
0
TEXT
8
TEXT
10
480.600000
20
486.660000
30
0.0
40
3.5000
1
falls on an edge, a fillet run-out or a chamfer tip.
0
TEXT
8
TEXT
10
480.600000
20
481.660000
30
0.0
40
3.5000
1
Printability is judged on the next line.
0
TEXT
8
TEXT
10
480.600000
20
476.660000
30
0.0
40
3.5000
1
PRINTABLE MINIMUM WALL: 1.0000 mm (smallest median wall
0
TEXT
8
TEXT
10
480.600000
20
471.660000
30
0.0
40
3.5000
1
over a 3.1340 mm neighbourhood,
0
TEXT
8
TEXT
10
480.600000
20
466.660000
30
0.0
40
3.5000
1
cecad.inspect.printable_wall_detail) against a 0.8000 mm
0
TEXT
8
TEXT
10
480.600000
20
461.660000
30
0.0
40
3.5000
1
floor (2 perimeters @ 0.4 mm nozzle): VERDICT PASS
0
TEXT
8
TEXT
10
831.300000
20
508.660000
30
0.0
40
3.5000
1
PRINT / DFM
0
TEXT
8
TEXT
10
831.300000
20
501.660000
30
0.0
40
3.5000
1
15 horizontal bore(s) bridge at the crown: ream any
0
TEXT
8
TEXT
10
831.300000
20
496.660000
30
0.0
40
3.5000
1
bearing or press-fit bore to size
0
TEXT
8
TEXT
10
831.300000
20
491.660000
30
0.0
40
3.5000
1
FILAMENT: PLA, ~3.7 g (shell/infill estimate, not
0
TEXT
8
TEXT
10
831.300000
20
486.660000
30
0.0
40
3.5000
1
weighed), 290 modelled layers @ 0.2 mm
0
TEXT
8
TEXT
10
13.000000
20
235.000000
30
0.0
40
3.5000
1
SOURCE / PROCESS
0
TEXT
8
TEXT
10
13.000000
20
230.000000
30
0.0
40
3.5000
1
DETAIL A DISPLAY SECTION: Z = -0.2230 mm SOURCE XYZ; KEEP MIN. Raster
0
TEXT
8
TEXT
10
13.000000
20
225.000000
30
0.0
40
3.5000
1
boundaries clip the view; original geometry unchanged.
0
TEXT
8
TEXT
10
13.000000
20
220.000000
30
0.0
40
3.5000
1
SUPPLEMENT A TO PRINCIPAL SHEET. Four context views plus two enlarged
0
TEXT
8
TEXT
10
13.000000
20
215.000000
30
0.0
40
3.5000
1
details. True top/bottom remain on the principal sheet; full
0
TEXT
8
TEXT
10
13.000000
20
210.000000
30
0.0
40
3.5000
1
drawing-set acceptance is incomplete.
0
TEXT
8
TEXT
10
13.000000
20
205.000000
30
0.0
40
3.5000
1
RECREATION MATERIAL: PLA
0
TEXT
8
TEXT
10
13.000000
20
200.000000
30
0.0
40
3.5000
1
PROCESS: FDM
0
TEXT
8
TEXT
10
13.000000
20
195.000000
30
0.0
40
3.5000
1
RECORD: ce-parts/microduck-shin/component.json
0
TEXT
8
TEXT
10
13.000000
20
190.000000
30
0.0
40
3.5000
1
GEOMETRY SOURCE: reference/pollen-microduck-rl/assets/leg.stl (Onshape
0
TEXT
8
TEXT
10
13.000000
20
185.000000
30
0.0
40
3.5000
1
doc 804927696f06d877f3f1803e, exported by onshape-to-robot)
0
TEXT
8
TEXT
10
13.000000
20
180.000000
30
0.0
40
3.5000
1
ORIGINAL MATERIAL / SURFACE FINISH: CANNOT DETERMINE; obtain original
0
TEXT
8
TEXT
10
13.000000
20
175.000000
30
0.0
40
3.5000
1
specification or measure original part.
0
TEXT
8
TEXT
10
13.000000
20
170.000000
30
0.0
40
3.5000
1
FINISHED PART MASS: CANNOT DETERMINE; the filament figure is a
0
TEXT
8
TEXT
10
13.000000
20
165.000000
30
0.0
40
3.5000
1
shell/infill model estimate. Weigh the produced part to establish
0
TEXT
8
TEXT
10
13.000000
20
160.000000
30
0.0
40
3.5000
1
finished mass.
0
TEXT
8
TEXT
10
13.000000
20
155.000000
30
0.0
40
3.5000
1
FASTENER LENGTH / TORQUE / FIT CLASS: CANNOT DETERMINE; verify
0
TEXT
8
TEXT
10
13.000000
20
150.000000
30
0.0
40
3.5000
1
interface stack and test production coupon.
0
TEXT
8
TEXT
10
13.000000
20
145.000000
30
0.0
40
3.5000
1
KNEE MATE CONTRACT: connection:spline-xl330-horn
0
TEXT
8
TEXT
10
13.000000
20
140.000000
30
0.0
40
3.5000
1
MATING PART: part:xl330-m288-t
0
TEXT
8
TEXT
10
13.000000
20
135.000000
30
0.0
40
3.5000
1
ANKLE MATE CONTRACT: connection:press-fit-bearing-15x10x3
0
TEXT
8
TEXT
10
13.000000
20
130.000000
30
0.0
40
3.5000
1
MATING PART: part:bearing-15x10x3
0
LINE
8
DIM
10
1013.774085
20
178.177504
30
0.0
11
1042.174085
21
178.947504
31
0.0
0
CIRCLE
8
DIM
10
1013.774085
20
178.177504
30
0.0
40
0.450000
0
TEXT
8
DIM
10
1055.774085
20
178.177504
30
0.0
40
3.5000
1
E041 R5.0000
72
1
73
0
11
1055.774085
21
178.177504
31
0.0
0
LINE
8
DIM
10
954.695619
20
139.877310
30
0.0
11
957.903314
21
134.647310
31
0.0
0
CIRCLE
8
DIM
10
954.695619
20
139.877310
30
0.0
40
0.450000
0
TEXT
8
DIM
10
944.303314
20
133.877310
30
0.0
40
3.5000
1
E046 R5.0000
72
1
73
0
11
944.303314
21
133.877310
31
0.0
0
LINE
8
DIM
10
585.096094
20
175.586483
30
0.0
11
557.126875
21
152.356483
31
0.0
0
CIRCLE
8
DIM
10
585.096094
20
175.586483
30
0.0
40
0.450000
0
TEXT
8
DIM
10
543.526875
20
151.586483
30
0.0
40
3.5000
1
E055 R5.0000
72
1
73
0
11
543.526875
21
151.586483
31
0.0
0
LINE
8
DIM
10
621.728423
20
144.973935
30
0.0
11
630.669681
21
128.357270
31
0.0
0
CIRCLE
8
DIM
10
621.728423
20
144.973935
30
0.0
40
0.450000
0
TEXT
8
DIM
10
617.069681
20
127.587270
30
0.0
40
3.5000
1
E056 R5.0000
72
1
73
0
11
617.069681
21
127.587270
31
0.0
0
LINE
8
DIM
10
954.695619
20
161.212102
30
0.0
11
942.314857
21
146.982102
31
0.0
0
CIRCLE
8
DIM
10
954.695619
20
161.212102
30
0.0
40
0.450000
0
TEXT
8
DIM
10
928.714857
20
146.212102
30
0.0
40
3.5000
1
E057 R2.7500
72
1
73
0
11
928.714857
21
146.212102
31
0.0
0
LINE
8
DIM
10
621.728423
20
154.456065
30
0.0
11
620.128423
21
134.441455
31
0.0
0
CIRCLE
8
DIM
10
621.728423
20
154.456065
30
0.0
40
0.450000
0
TEXT
8
DIM
10
633.728423
20
133.671455
30
0.0
40
3.5000
1
E058 R4.0000
72
1
73
0
11
633.728423
21
133.671455
31
0.0
0
LINE
8
DIM
10
1017.176718
20
479.066841
30
0.0
11
1021.459232
21
445.063512
31
0.0
0
CIRCLE
8
DIM
10
1017.176718
20
479.066841
30
0.0
40
0.450000
0
TEXT
8
DIM
10
1007.859232
20
444.293512
30
0.0
40
3.5000
1
E059 R2.7500
72
1
73
0
11
1007.859232
21
444.293512
31
0.0
0
LINE
8
DIM
10
617.571731
20
155.879703
30
0.0
11
629.952493
21
141.649703
31
0.0
0
CIRCLE
8
DIM
10
617.571731
20
155.879703
30
0.0
40
0.450000
0
TEXT
8
DIM
10
643.552493
20
140.879703
30
0.0
40
3.5000
1
E060 R4.0000
72
1
73
0
11
643.552493
21
140.879703
31
0.0
0
LINE
8
DIM
10
601.593718
20
184.843126
30
0.0
11
585.193718
21
133.651602
31
0.0
0
CIRCLE
8
DIM
10
601.593718
20
184.843126
30
0.0
40
0.450000
0
TEXT
8
DIM
10
571.593718
20
132.881602
30
0.0
40
3.5000
1
E062 R2.4600
72
1
73
0
11
571.593718
21
132.881602
31
0.0
0
LINE
8
DIM
10
636.609381
20
174.487083
30
0.0
11
653.009381
21
175.257083
31
0.0
0
CIRCLE
8
DIM
10
636.609381
20
174.487083
30
0.0
40
0.450000
0
TEXT
8
DIM
10
666.609381
20
174.487083
30
0.0
40
3.5000
1
E063 R1.3500
72
1
73
0
11
666.609381
21
174.487083
31
0.0
0
LINE
8
DIM
10
636.609381
20
163.961919
30
0.0
11
647.009381
21
164.731919
31
0.0
0
CIRCLE
8
DIM
10
636.609381
20
163.961919
30
0.0
40
0.450000
0
TEXT
8
DIM
10
660.609381
20
163.961919
30
0.0
40
3.5000
1
E064 R2.4600
72
1
73
0
11
660.609381
21
163.961919
31
0.0
0
TEXT
8
TEXT
10
417.305000
20
196.500000
30
0.0
40
3.5000
1
HIDDEN ARC LOCATORS / DATUM XYZ mm
0
TEXT
8
TEXT
10
417.305000
20
191.500000
30
0.0
40
3.5000
1
E061 R1.3500 / SWEEP 360.0000 deg
0
TEXT
8
TEXT
10
417.305000
20
186.500000
30
0.0
40
3.5000
1
CENTRE 3.4900, 10.0000, 6.0000
0
TEXT
8
TEXT
10
417.305000
20
181.500000
30
0.0
40
3.5000
1
AXIS 1.0000, 0.0000, 0.0000
0
TEXT
8
TEXT
10
417.305000
20
176.500000
30
0.0
40
3.5000
1
START 3.4900, 10.0000, 7.3500
0
TEXT
8
TEXT
10
417.305000
20
171.500000
30
0.0
40
3.5000
1
END 3.4900, 10.0000, 7.3500
0
CIRCLE
8
VISIBLE
10
474.309837
20
85.000000
30
0.0
40
20.000000
0
CIRCLE
8
VISIBLE
10
474.309837
20
85.000000
30
0.0
40
16.000000
0
CIRCLE
8
VISIBLE
10
474.309837
20
85.000000
30
0.0
40
5.400000
0
CIRCLE
8
VISIBLE
10
474.309837
20
85.000000
30
0.0
40
9.840000
0
LINE
8
SECTION
10
450.309837
20
85.000000
30
0.0
11
450.515161
21
81.867371
31
0.0
0
LINE
8
SECTION
10
450.515161
20
81.867371
30
0.0
11
451.127618
21
78.788343
31
0.0
0
LINE
8
SECTION
10
451.127618
20
78.788343
30
0.0
11
452.136729
21
75.815598
31
0.0
0
LINE
8
SECTION
10
452.136729
20
75.815598
30
0.0
11
453.525228
21
73.000000
31
0.0
0
LINE
8
SECTION
10
453.525228
20
73.000000
30
0.0
11
455.269357
21
70.389726
31
0.0
0
LINE
8
SECTION
10
455.269357
20
70.389726
30
0.0
11
457.339275
21
68.029437
31
0.0
0
LINE
8
SECTION
10
457.339275
20
68.029437
30
0.0
11
459.699563
21
65.959520
31
0.0
0
LINE
8
SECTION
10
459.699563
20
65.959520
30
0.0
11
462.309837
21
64.215390
31
0.0
0
LINE
8
SECTION
10
462.309838
20
64.215390
30
0.0
11
465.125435
21
62.826891
31
0.0
0
LINE
8
SECTION
10
465.125435
20
62.826891
30
0.0
11
468.098180
21
61.817780
31
0.0
0
LINE
8
SECTION
10
468.098180
20
61.817780
30
0.0
11
471.177209
21
61.205323
31
0.0
0
LINE
8
SECTION
10
471.177209
20
61.205323
30
0.0
11
474.309837
21
61.000000
31
0.0
0
LINE
8
SECTION
10
474.309838
20
61.000000
30
0.0
11
477.442466
21
61.205323
31
0.0
0
LINE
8
SECTION
10
477.442466
20
61.205323
30
0.0
11
480.521495
21
61.817780
31
0.0
0
LINE
8
SECTION
10
480.521495
20
61.817780
30
0.0
11
483.494240
21
62.826891
31
0.0
0
LINE
8
SECTION
10
483.494240
20
62.826891
30
0.0
11
486.309837
21
64.215390
31
0.0
0
LINE
8
SECTION
10
486.309837
20
64.215390
30
0.0
11
488.920112
21
65.959520
31
0.0
0
LINE
8
SECTION
10
488.920112
20
65.959520
30
0.0
11
491.280400
21
68.029437
31
0.0
0
LINE
8
SECTION
10
491.280400
20
68.029437
30
0.0
11
493.350318
21
70.389726
31
0.0
0
LINE
8
SECTION
10
493.350318
20
70.389726
30
0.0
11
495.094447
21
73.000000
31
0.0
0
LINE
8
SECTION
10
495.094447
20
73.000000
30
0.0
11
496.482946
21
75.815598
31
0.0
0
LINE
8
SECTION
10
496.482946
20
75.815598
30
0.0
11
497.492057
21
78.788343
31
0.0
0
LINE
8
SECTION
10
497.492057
20
78.788343
30
0.0
11
498.104514
21
81.867371
31
0.0
0
LINE
8
SECTION
10
498.104514
20
81.867371
30
0.0
11
498.309837
21
85.000000
31
0.0
0
LINE
8
SECTION
10
498.309837
20
85.000000
30
0.0
11
498.309837
21
85.000000
31
0.0
0
CIRCLE
8
SECTION
10
474.309837
20
85.000000
30
0.0
40
11.000000
0
CIRCLE
8
SECTION
10
474.309837
20
85.000000
30
0.0
40
24.000000
0
LINE
8
DIM
10
474.309837
20
79.600000
30
0.0
11
501.309837
21
74.000000
31
0.0
0
CIRCLE
8
DIM
10
474.309837
20
79.600000
30
0.0
40
0.450000
0
TEXT
8
DIM
10
502.309837
20
73.000000
30
0.0
40
3.5000
1
E061 R1.3500
0
TEXT
8
TEXT
10
474.309837
20
117.000000
30
0.0
40
3.5000
1
SECTION D / SCALE 4:1
72
1
73
0
11
474.309837
21
117.000000
31
0.0
0
TEXT
8
TEXT
10
474.309837
20
55.000000
30
0.0
40
3.5000
1
X = 35.9800 mm / KEEP X >= CUT
72
1
73
0
11
474.309837
21
55.000000
31
0.0
0
TEXT
8
TEXT
10
474.309837
20
50.000000
30
0.0
40
3.5000
1
LOCAL SECTION ONLY / VIEW LIMIT 6 mm
72
1
73
0
11
474.309837
21
50.000000
31
0.0
0
TEXT
8
TEXT
10
799.152500
20
190.000000
30
0.0
40
3.5000
1
DRAFTING GAPS — NOT RELEASED
0
TEXT
8
TEXT
10
799.152500
20
185.000000
30
0.0
40
3.5000
1
E009 / E047 still need section or detail leaders. E061
0
TEXT
8
TEXT
10
799.152500
20
180.000000
30
0.0
40
3.5000
1
original edge is located in local Section D; complete
0
TEXT
8
TEXT
10
799.152500
20
175.000000
30
0.0
40
3.5000
1
physical feature coverage is not implied.
0
TEXT
8
TEXT
10
799.152500
20
170.000000
30
0.0
40
3.5000
1
Enlarged shaded Detail A is present; mid-feature cluster
0
TEXT
8
TEXT
10
799.152500
20
165.000000
30
0.0
40
3.5000
1
B and knee/horn cluster C still need enlarged shaded
0
TEXT
8
TEXT
10
799.152500
20
160.000000
30
0.0
40
3.5000
1
details. Non-circular feature locators remain unaudited.
0
TEXT
8
TEXT
10
13.000000
20
410.660000
30
0.0
40
3.5000
1
FRAME OCCUPANCY 99.88%
0
ENDSEC
0
EOF
