0
SECTION
2
HEADER
9
$ACADVER
1
AC1009
9
$INSUNITS
70
4
9
$LTSCALE
40
1.0
9
$EXTMIN
10
0.0000
20
0.0000
30
0.0
9
$EXTMAX
10
594.0000
20
420.0000
30
0.0
0
ENDSEC
0
SECTION
2
TABLES
0
TABLE
2
LTYPE
70
4
0
LTYPE
2
CONTINUOUS
70
0
3
Solid line
72
65
73
0
40
0.0000
0
LTYPE
2
HIDDEN
70
0
3
Hidden __ __ __ __
72
65
73
2
40
3.6000
49
2.4000
49
-1.2000
0
LTYPE
2
CENTER
70
0
3
Center ____ _ ____ _
72
65
73
4
40
11.2000
49
7.0000
49
-1.4000
49
1.4000
49
-1.4000
0
LTYPE
2
PHANTOM
70
0
3
Phantom ____ _ _ ____
72
65
73
6
40
21.0000
49
11.0000
49
-2.0000
49
2.0000
49
-2.0000
49
2.0000
49
-2.0000
0
ENDTAB
0
TABLE
2
LAYER
70
12
0
LAYER
2
0
70
0
62
7
6
CONTINUOUS
0
LAYER
2
VISIBLE
70
0
62
7
6
CONTINUOUS
0
LAYER
2
SECTION
70
0
62
7
6
CONTINUOUS
0
LAYER
2
HIDDEN
70
0
62
8
6
HIDDEN
0
LAYER
2
CENTER
70
0
62
4
6
CENTER
0
LAYER
2
DIM
70
0
62
3
6
CONTINUOUS
0
LAYER
2
TEXT
70
0
62
3
6
CONTINUOUS
0
LAYER
2
HATCH
70
0
62
5
6
CONTINUOUS
0
LAYER
2
CUT
70
0
62
1
6
PHANTOM
0
LAYER
2
CUTTHIN
70
0
62
1
6
PHANTOM
0
LAYER
2
FRAME
70
0
62
7
6
CONTINUOUS
0
LAYER
2
TITLE
70
0
62
7
6
CONTINUOUS
0
ENDTAB
0
ENDSEC
0
SECTION
2
ENTITIES
0
LINE
8
TITLE
10
5.000000
20
5.000000
30
0.0
11
589.000000
21
5.000000
31
0.0
0
LINE
8
TITLE
10
589.000000
20
5.000000
30
0.0
11
589.000000
21
415.000000
31
0.0
0
LINE
8
TITLE
10
589.000000
20
415.000000
30
0.0
11
5.000000
21
415.000000
31
0.0
0
LINE
8
TITLE
10
5.000000
20
415.000000
30
0.0
11
5.000000
21
5.000000
31
0.0
0
LINE
8
FRAME
10
10.000000
20
10.000000
30
0.0
11
584.000000
21
10.000000
31
0.0
0
LINE
8
FRAME
10
584.000000
20
10.000000
30
0.0
11
584.000000
21
410.000000
31
0.0
0
LINE
8
FRAME
10
584.000000
20
410.000000
30
0.0
11
10.000000
21
410.000000
31
0.0
0
LINE
8
FRAME
10
10.000000
20
410.000000
30
0.0
11
10.000000
21
10.000000
31
0.0
0
TEXT
8
TITLE
10
67.400000
20
412.500000
30
0.0
40
2.4000
1
1
72
1
73
2
11
67.400000
21
412.500000
31
0.0
0
TEXT
8
TITLE
10
67.400000
20
7.500000
30
0.0
40
2.4000
1
1
72
1
73
2
11
67.400000
21
7.500000
31
0.0
0
TEXT
8
TITLE
10
182.200000
20
412.500000
30
0.0
40
2.4000
1
2
72
1
73
2
11
182.200000
21
412.500000
31
0.0
0
TEXT
8
TITLE
10
182.200000
20
7.500000
30
0.0
40
2.4000
1
2
72
1
73
2
11
182.200000
21
7.500000
31
0.0
0
LINE
8
TITLE
10
124.800000
20
5.000000
30
0.0
11
124.800000
21
10.000000
31
0.0
0
LINE
8
TITLE
10
124.800000
20
410.000000
30
0.0
11
124.800000
21
415.000000
31
0.0
0
TEXT
8
TITLE
10
297.000000
20
412.500000
30
0.0
40
2.4000
1
3
72
1
73
2
11
297.000000
21
412.500000
31
0.0
0
TEXT
8
TITLE
10
297.000000
20
7.500000
30
0.0
40
2.4000
1
3
72
1
73
2
11
297.000000
21
7.500000
31
0.0
0
LINE
8
TITLE
10
239.600000
20
5.000000
30
0.0
11
239.600000
21
10.000000
31
0.0
0
LINE
8
TITLE
10
239.600000
20
410.000000
30
0.0
11
239.600000
21
415.000000
31
0.0
0
TEXT
8
TITLE
10
411.800000
20
412.500000
30
0.0
40
2.4000
1
4
72
1
73
2
11
411.800000
21
412.500000
31
0.0
0
TEXT
8
TITLE
10
411.800000
20
7.500000
30
0.0
40
2.4000
1
4
72
1
73
2
11
411.800000
21
7.500000
31
0.0
0
LINE
8
TITLE
10
354.400000
20
5.000000
30
0.0
11
354.400000
21
10.000000
31
0.0
0
LINE
8
TITLE
10
354.400000
20
410.000000
30
0.0
11
354.400000
21
415.000000
31
0.0
0
TEXT
8
TITLE
10
526.600000
20
412.500000
30
0.0
40
2.4000
1
5
72
1
73
2
11
526.600000
21
412.500000
31
0.0
0
TEXT
8
TITLE
10
526.600000
20
7.500000
30
0.0
40
2.4000
1
5
72
1
73
2
11
526.600000
21
7.500000
31
0.0
0
LINE
8
TITLE
10
469.200000
20
5.000000
30
0.0
11
469.200000
21
10.000000
31
0.0
0
LINE
8
TITLE
10
469.200000
20
410.000000
30
0.0
11
469.200000
21
415.000000
31
0.0
0
TEXT
8
TITLE
10
7.500000
20
60.000000
30
0.0
40
2.4000
1
D
72
1
73
2
11
7.500000
21
60.000000
31
0.0
0
TEXT
8
TITLE
10
586.500000
20
60.000000
30
0.0
40
2.4000
1
D
72
1
73
2
11
586.500000
21
60.000000
31
0.0
0
TEXT
8
TITLE
10
7.500000
20
160.000000
30
0.0
40
2.4000
1
C
72
1
73
2
11
7.500000
21
160.000000
31
0.0
0
TEXT
8
TITLE
10
586.500000
20
160.000000
30
0.0
40
2.4000
1
C
72
1
73
2
11
586.500000
21
160.000000
31
0.0
0
LINE
8
TITLE
10
5.000000
20
110.000000
30
0.0
11
10.000000
21
110.000000
31
0.0
0
LINE
8
TITLE
10
584.000000
20
110.000000
30
0.0
11
589.000000
21
110.000000
31
0.0
0
TEXT
8
TITLE
10
7.500000
20
260.000000
30
0.0
40
2.4000
1
B
72
1
73
2
11
7.500000
21
260.000000
31
0.0
0
TEXT
8
TITLE
10
586.500000
20
260.000000
30
0.0
40
2.4000
1
B
72
1
73
2
11
586.500000
21
260.000000
31
0.0
0
LINE
8
TITLE
10
5.000000
20
210.000000
30
0.0
11
10.000000
21
210.000000
31
0.0
0
LINE
8
TITLE
10
584.000000
20
210.000000
30
0.0
11
589.000000
21
210.000000
31
0.0
0
TEXT
8
TITLE
10
7.500000
20
360.000000
30
0.0
40
2.4000
1
A
72
1
73
2
11
7.500000
21
360.000000
31
0.0
0
TEXT
8
TITLE
10
586.500000
20
360.000000
30
0.0
40
2.4000
1
A
72
1
73
2
11
586.500000
21
360.000000
31
0.0
0
LINE
8
TITLE
10
5.000000
20
310.000000
30
0.0
11
10.000000
21
310.000000
31
0.0
0
LINE
8
TITLE
10
584.000000
20
310.000000
30
0.0
11
589.000000
21
310.000000
31
0.0
0
LINE
8
VISIBLE
10
190.000000
20
116.500000
30
0.0
11
190.000000
21
140.500000
31
0.0
0
LINE
8
VISIBLE
10
190.000000
20
116.500000
30
0.0
11
180.000000
21
116.500000
31
0.0
0
LINE
8
VISIBLE
10
180.000000
20
140.500000
30
0.0
11
180.000000
21
116.500000
31
0.0
0
LINE
8
VISIBLE
10
190.000000
20
140.500000
30
0.0
11
180.000000
21
140.500000
31
0.0
0
LINE
8
VISIBLE
10
60.000000
20
140.500000
30
0.0
11
50.000000
21
140.500000
31
0.0
0
LINE
8
VISIBLE
10
60.000000
20
140.500000
30
0.0
11
76.000000
21
140.500000
31
0.0
0
LINE
8
VISIBLE
10
164.000000
20
140.500000
30
0.0
11
76.000000
21
140.500000
31
0.0
0
LINE
8
VISIBLE
10
164.000000
20
140.500000
30
0.0
11
180.000000
21
140.500000
31
0.0
0
LINE
8
VISIBLE
10
60.000000
20
116.500000
30
0.0
11
50.000000
21
116.500000
31
0.0
0
LINE
8
VISIBLE
10
60.000000
20
116.500000
30
0.0
11
76.000000
21
116.500000
31
0.0
0
LINE
8
VISIBLE
10
164.000000
20
116.500000
30
0.0
11
76.000000
21
116.500000
31
0.0
0
LINE
8
VISIBLE
10
164.000000
20
116.500000
30
0.0
11
180.000000
21
116.500000
31
0.0
0
LINE
8
VISIBLE
10
50.000000
20
116.500000
30
0.0
11
50.000000
21
140.500000
31
0.0
0
LINE
8
VISIBLE
10
60.000000
20
140.500000
30
0.0
11
60.000000
21
116.500000
31
0.0
0
LINE
8
VISIBLE
10
76.000000
20
140.500000
30
0.0
11
76.000000
21
116.500000
31
0.0
0
LINE
8
VISIBLE
10
164.000000
20
140.500000
30
0.0
11
164.000000
21
116.500000
31
0.0
0
LINE
8
VISIBLE
10
50.000000
20
203.500000
30
0.0
11
50.000000
21
303.500000
31
0.0
0
LINE
8
VISIBLE
10
50.000000
20
203.500000
30
0.0
11
60.000000
21
203.500000
31
0.0
0
LINE
8
VISIBLE
10
50.000000
20
303.500000
30
0.0
11
60.000000
21
303.500000
31
0.0
0
LINE
8
VISIBLE
10
60.000000
20
294.500000
30
0.0
11
60.000000
21
303.500000
31
0.0
0
LINE
8
VISIBLE
10
76.000000
20
294.500000
30
0.0
11
60.000000
21
294.500000
31
0.0
0
LINE
8
VISIBLE
10
76.000000
20
294.500000
30
0.0
11
76.000000
21
303.500000
31
0.0
0
LINE
8
VISIBLE
10
76.000000
20
303.500000
30
0.0
11
164.000000
21
303.500000
31
0.0
0
LINE
8
VISIBLE
10
164.000000
20
294.500000
30
0.0
11
164.000000
21
303.500000
31
0.0
0
LINE
8
VISIBLE
10
180.000000
20
294.500000
30
0.0
11
164.000000
21
294.500000
31
0.0
0
LINE
8
VISIBLE
10
180.000000
20
294.500000
30
0.0
11
180.000000
21
303.500000
31
0.0
0
LINE
8
VISIBLE
10
180.000000
20
303.500000
30
0.0
11
190.000000
21
303.500000
31
0.0
0
LINE
8
VISIBLE
10
190.000000
20
203.500000
30
0.0
11
190.000000
21
303.500000
31
0.0
0
LINE
8
VISIBLE
10
180.000000
20
203.500000
30
0.0
11
190.000000
21
203.500000
31
0.0
0
LINE
8
VISIBLE
10
180.000000
20
203.500000
30
0.0
11
180.000000
21
212.500000
31
0.0
0
LINE
8
VISIBLE
10
180.000000
20
212.500000
30
0.0
11
164.000000
21
212.500000
31
0.0
0
LINE
8
VISIBLE
10
164.000000
20
203.500000
30
0.0
11
164.000000
21
212.500000
31
0.0
0
LINE
8
VISIBLE
10
76.000000
20
203.500000
30
0.0
11
164.000000
21
203.500000
31
0.0
0
LINE
8
VISIBLE
10
76.000000
20
203.500000
30
0.0
11
76.000000
21
212.500000
31
0.0
0
LINE
8
VISIBLE
10
76.000000
20
212.500000
30
0.0
11
60.000000
21
212.500000
31
0.0
0
LINE
8
VISIBLE
10
60.000000
20
203.500000
30
0.0
11
60.000000
21
212.500000
31
0.0
0
CIRCLE
8
VISIBLE
10
120.000000
20
253.500000
30
0.0
40
24.000000
0
CIRCLE
8
HIDDEN
10
120.000000
20
253.500000
30
0.0
40
30.000000
0
CIRCLE
8
HIDDEN
10
120.000000
20
253.500000
30
0.0
40
30.000000
0
LINE
8
VISIBLE
10
328.000000
20
140.500000
30
0.0
11
228.000000
21
140.500000
31
0.0
0
LINE
8
VISIBLE
10
328.000000
20
116.500000
30
0.0
11
228.000000
21
116.500000
31
0.0
0
LINE
8
VISIBLE
10
228.000000
20
116.500000
30
0.0
11
228.000000
21
140.500000
31
0.0
0
LINE
8
VISIBLE
10
328.000000
20
116.500000
30
0.0
11
328.000000
21
140.500000
31
0.0
0
LINE
8
VISIBLE
10
366.000000
20
140.500000
30
0.0
11
466.000000
21
140.500000
31
0.0
0
LINE
8
VISIBLE
10
366.000000
20
116.500000
30
0.0
11
466.000000
21
116.500000
31
0.0
0
LINE
8
SECTION
10
446.000000
20
140.500000
30
0.0
11
466.000000
21
140.500000
31
0.0
0
LINE
8
SECTION
10
466.000000
20
140.500000
30
0.0
11
466.000000
21
116.500000
31
0.0
0
LINE
8
SECTION
10
440.000000
20
116.500000
30
0.0
11
466.000000
21
116.500000
31
0.0
0
LINE
8
SECTION
10
440.000000
20
116.500000
30
0.0
11
440.000000
21
136.500000
31
0.0
0
LINE
8
SECTION
10
440.000000
20
136.500000
30
0.0
11
446.000000
21
136.500000
31
0.0
0
LINE
8
SECTION
10
446.000000
20
136.500000
30
0.0
11
446.000000
21
140.500000
31
0.0
0
LINE
8
SECTION
10
366.000000
20
140.500000
30
0.0
11
386.000000
21
140.500000
31
0.0
0
LINE
8
SECTION
10
386.000000
20
136.500000
30
0.0
11
386.000000
21
140.500000
31
0.0
0
LINE
8
SECTION
10
386.000000
20
136.500000
30
0.0
11
392.000000
21
136.500000
31
0.0
0
LINE
8
SECTION
10
392.000000
20
116.500000
30
0.0
11
392.000000
21
136.500000
31
0.0
0
LINE
8
SECTION
10
366.000000
20
116.500000
30
0.0
11
392.000000
21
116.500000
31
0.0
0
LINE
8
SECTION
10
366.000000
20
140.500000
30
0.0
11
366.000000
21
116.500000
31
0.0
0
LINE
8
VISIBLE
10
550.833333
20
387.917096
30
0.0
11
550.833333
21
396.000000
31
0.0
0
LINE
8
VISIBLE
10
550.833333
20
396.000000
30
0.0
11
580.000000
21
379.160617
31
0.0
0
LINE
8
VISIBLE
10
580.000000
20
371.077713
30
0.0
11
580.000000
21
379.160617
31
0.0
0
LINE
8
VISIBLE
10
550.833333
20
387.917096
30
0.0
11
580.000000
21
371.077713
31
0.0
0
LINE
8
VISIBLE
10
550.833333
20
387.917096
30
0.0
11
547.916667
21
386.233158
31
0.0
0
LINE
8
VISIBLE
10
547.916667
20
394.316062
30
0.0
11
547.916667
21
386.233158
31
0.0
0
LINE
8
VISIBLE
10
550.833333
20
396.000000
30
0.0
11
547.916667
21
394.316062
31
0.0
0
LINE
8
VISIBLE
10
512.916667
20
374.108802
30
0.0
11
510.000000
21
372.424864
31
0.0
0
LINE
8
VISIBLE
10
512.916667
20
374.108802
30
0.0
11
515.541667
21
372.593258
31
0.0
0
LINE
8
VISIBLE
10
515.541667
20
372.593258
30
0.0
11
517.583333
21
373.772015
31
0.0
0
LINE
8
VISIBLE
10
543.250000
20
391.621760
30
0.0
11
517.583333
21
376.803104
31
0.0
0
LINE
8
VISIBLE
10
543.250000
20
391.621760
30
0.0
11
545.875000
21
390.106216
31
0.0
0
LINE
8
VISIBLE
10
545.875000
20
390.106216
30
0.0
11
547.916667
21
391.284973
31
0.0
0
LINE
8
VISIBLE
10
580.000000
20
371.077713
30
0.0
11
577.083333
21
369.393775
31
0.0
0
LINE
8
VISIBLE
10
574.458333
20
370.909320
30
0.0
11
577.083333
21
369.393775
31
0.0
0
LINE
8
VISIBLE
10
569.791667
20
368.215018
30
0.0
11
574.458333
21
370.909320
31
0.0
0
LINE
8
VISIBLE
10
569.791667
20
368.215018
30
0.0
11
572.416667
21
366.699474
31
0.0
0
LINE
8
VISIBLE
10
572.416667
20
366.699474
30
0.0
11
546.750000
21
351.880817
31
0.0
0
LINE
8
VISIBLE
10
544.125000
20
353.396361
30
0.0
11
546.750000
21
351.880817
31
0.0
0
LINE
8
VISIBLE
10
539.458333
20
350.702060
30
0.0
11
544.125000
21
353.396361
31
0.0
0
LINE
8
VISIBLE
10
539.458333
20
350.702060
30
0.0
11
542.083333
21
349.186516
31
0.0
0
LINE
8
VISIBLE
10
542.083333
20
349.186516
30
0.0
11
539.166667
21
347.502577
31
0.0
0
LINE
8
VISIBLE
10
510.000000
20
364.341960
30
0.0
11
539.166667
21
347.502577
31
0.0
0
LINE
8
VISIBLE
10
512.916667
20
366.025899
30
0.0
11
510.000000
21
364.341960
31
0.0
0
LINE
8
VISIBLE
10
512.916667
20
366.025899
30
0.0
11
515.541667
21
364.510354
31
0.0
0
LINE
8
VISIBLE
10
515.541667
20
364.510354
30
0.0
11
520.208333
21
367.204655
31
0.0
0
LINE
8
VISIBLE
10
517.583333
20
368.720200
30
0.0
11
520.208333
21
367.204655
31
0.0
0
LINE
8
VISIBLE
10
543.250000
20
383.538857
30
0.0
11
517.583333
21
368.720200
31
0.0
0
LINE
8
VISIBLE
10
543.250000
20
383.538857
30
0.0
11
545.875000
21
382.023312
31
0.0
0
LINE
8
VISIBLE
10
545.875000
20
382.023312
30
0.0
11
550.541667
21
384.717613
31
0.0
0
LINE
8
VISIBLE
10
547.916667
20
386.233158
30
0.0
11
550.541667
21
384.717613
31
0.0
0
LINE
8
VISIBLE
10
538.000000
20
363.668385
30
0.0
11
539.753060
21
362.863201
31
0.0
0
LINE
8
VISIBLE
10
539.753060
20
362.863201
30
0.0
11
541.882765
21
362.285114
31
0.0
0
LINE
8
VISIBLE
10
541.882765
20
362.285114
30
0.0
11
544.271779
21
362.009846
31
0.0
0
LINE
8
VISIBLE
10
544.271779
20
362.009846
30
0.0
11
546.744157
21
362.083769
31
0.0
0
LINE
8
VISIBLE
10
546.744157
20
362.083769
30
0.0
11
549.097705
21
362.506991
31
0.0
0
LINE
8
VISIBLE
10
549.097705
20
362.506991
30
0.0
11
551.149289
21
363.230766
31
0.0
0
LINE
8
VISIBLE
10
551.149289
20
363.230766
30
0.0
11
552.774325
21
364.171482
31
0.0
0
LINE
8
VISIBLE
10
552.774325
20
364.171482
30
0.0
11
553.923718
21
365.235485
31
0.0
0
LINE
8
VISIBLE
10
553.923718
20
365.235485
30
0.0
11
554.612825
21
366.344358
31
0.0
0
LINE
8
VISIBLE
10
554.612825
20
366.344358
30
0.0
11
554.899495
21
367.709837
31
0.0
0
LINE
8
VISIBLE
10
554.899495
20
367.709837
30
0.0
11
554.720049
21
368.793142
31
0.0
0
LINE
8
VISIBLE
10
554.720049
20
368.793142
30
0.0
11
554.175871
21
369.854862
31
0.0
0
LINE
8
VISIBLE
10
554.175871
20
369.854862
30
0.0
11
553.238973
21
370.878397
31
0.0
0
LINE
8
VISIBLE
10
553.238973
20
370.878397
30
0.0
11
551.878701
21
371.820128
31
0.0
0
LINE
8
VISIBLE
10
551.878701
20
371.820128
30
0.0
11
550.093727
21
372.610651
31
0.0
0
LINE
8
VISIBLE
10
550.093727
20
372.610651
30
0.0
11
547.938772
21
373.167664
31
0.0
0
LINE
8
VISIBLE
10
547.938772
20
373.167664
30
0.0
11
545.536372
21
373.416917
31
0.0
0
LINE
8
VISIBLE
10
545.536372
20
373.416917
30
0.0
11
543.065940
21
373.315174
31
0.0
0
LINE
8
VISIBLE
10
543.065940
20
373.315174
30
0.0
11
540.729861
21
372.866254
31
0.0
0
LINE
8
VISIBLE
10
540.729861
20
372.866254
30
0.0
11
538.707923
21
372.122310
31
0.0
0
LINE
8
VISIBLE
10
538.707923
20
372.122310
30
0.0
11
537.119086
21
371.168700
31
0.0
0
LINE
8
VISIBLE
10
537.119086
20
371.168700
30
0.0
11
536.006695
21
370.098732
31
0.0
0
LINE
8
VISIBLE
10
536.006695
20
370.098732
30
0.0
11
535.351540
21
368.988797
31
0.0
0
LINE
8
VISIBLE
10
535.351540
20
368.988797
30
0.0
11
535.100505
21
367.709837
31
0.0
0
LINE
8
VISIBLE
10
535.100505
20
367.709837
30
0.0
11
535.279951
21
366.626532
31
0.0
0
LINE
8
VISIBLE
10
535.279951
20
366.626532
30
0.0
11
535.824129
21
365.564812
31
0.0
0
LINE
8
VISIBLE
10
535.824129
20
365.564812
30
0.0
11
536.761027
21
364.541276
31
0.0
0
LINE
8
VISIBLE
10
536.761027
20
364.541276
30
0.0
11
538.000000
21
363.668385
31
0.0
0
LINE
8
VISIBLE
10
572.416667
20
369.730563
30
0.0
11
572.416667
21
366.699474
31
0.0
0
LINE
8
VISIBLE
10
542.083333
20
352.217605
30
0.0
11
542.083333
21
349.186516
31
0.0
0
LINE
8
VISIBLE
10
510.000000
20
364.341960
30
0.0
11
510.000000
21
372.424864
31
0.0
0
LINE
8
VISIBLE
10
512.916667
20
374.108802
30
0.0
11
512.916667
21
366.025899
31
0.0
0
LINE
8
VISIBLE
10
515.541667
20
364.510354
30
0.0
11
515.541667
21
372.593258
31
0.0
0
LINE
8
VISIBLE
10
517.583333
20
376.803104
30
0.0
11
517.583333
21
368.720200
31
0.0
0
LINE
8
VISIBLE
10
543.250000
20
391.621760
30
0.0
11
543.250000
21
383.538857
31
0.0
0
LINE
8
VISIBLE
10
545.875000
20
382.023312
30
0.0
11
545.875000
21
390.106216
31
0.0
0
LINE
8
VISIBLE
10
538.000000
20
370.404138
30
0.0
11
539.753060
21
369.598955
31
0.0
0
LINE
8
VISIBLE
10
539.753060
20
369.598955
30
0.0
11
541.882765
21
369.020867
31
0.0
0
LINE
8
VISIBLE
10
541.882765
20
369.020867
30
0.0
11
544.271779
21
368.745599
31
0.0
0
LINE
8
VISIBLE
10
544.271779
20
368.745599
30
0.0
11
546.744157
21
368.819522
31
0.0
0
LINE
8
VISIBLE
10
546.744157
20
368.819522
30
0.0
11
549.097705
21
369.242744
31
0.0
0
LINE
8
VISIBLE
10
549.097705
20
369.242744
30
0.0
11
551.149289
21
369.966519
31
0.0
0
LINE
8
VISIBLE
10
551.149289
20
369.966519
30
0.0
11
552.998264
21
371.077713
31
0.0
0
LINE
8
VISIBLE
10
537.001736
20
371.077713
30
0.0
11
538.000000
21
370.404138
31
0.0
0
LINE
8
VISIBLE
10
538.000000
20
363.668385
30
0.0
11
538.000000
21
370.404138
31
0.0
0
LINE
8
DIM
10
50.000000
20
115.300000
30
0.0
11
50.000000
21
93.500000
31
0.0
0
LINE
8
DIM
10
190.000000
20
115.300000
30
0.0
11
190.000000
21
93.500000
31
0.0
0
LINE
8
DIM
10
50.000000
20
95.500000
30
0.0
11
190.000000
21
95.500000
31
0.0
0
SOLID
8
DIM
10
50.000000
20
95.500000
30
0.0
11
53.200000
21
94.892000
31
0.0
12
53.200000
22
96.108000
32
0.0
13
53.200000
23
96.108000
33
0.0
0
SOLID
8
DIM
10
190.000000
20
95.500000
30
0.0
11
186.800000
21
96.108000
31
0.0
12
186.800000
22
94.892000
32
0.0
13
186.800000
23
94.892000
33
0.0
0
TEXT
8
TEXT
10
120.000000
20
96.500000
30
0.0
40
2.5000
1
70.00
72
1
73
0
11
120.000000
21
96.500000
31
0.0
0
LINE
8
DIM
10
48.800000
20
116.500000
30
0.0
11
27.000000
21
116.500000
31
0.0
0
LINE
8
DIM
10
48.800000
20
140.500000
30
0.0
11
27.000000
21
140.500000
31
0.0
0
LINE
8
DIM
10
29.000000
20
116.500000
30
0.0
11
29.000000
21
140.500000
31
0.0
0
SOLID
8
DIM
10
29.000000
20
116.500000
30
0.0
11
29.608000
21
119.700000
31
0.0
12
28.392000
22
119.700000
32
0.0
13
28.392000
23
119.700000
33
0.0
0
SOLID
8
DIM
10
29.000000
20
140.500000
30
0.0
11
28.392000
21
137.300000
31
0.0
12
29.608000
22
137.300000
32
0.0
13
29.608000
23
137.300000
33
0.0
0
TEXT
8
TEXT
10
28.000000
20
128.500000
30
0.0
40
2.5000
1
12.00
50
90.0000
72
1
73
0
11
28.000000
21
128.500000
31
0.0
0
TEXT
8
TEXT
10
120.000000
20
83.500000
30
0.0
40
4.0000
1
FRONT VIEW
72
1
73
0
11
120.000000
21
83.500000
31
0.0
0
LINE
8
TEXT
10
108.000000
20
81.900000
30
0.0
11
132.000000
21
81.900000
31
0.0
0
TEXT
8
TEXT
10
120.000000
20
77.500000
30
0.0
40
2.4000
1
-X →   Z ↑
72
1
73
0
11
120.000000
21
77.500000
31
0.0
0
LINE
8
CENTER
10
88.400000
20
253.500000
30
0.0
11
118.800000
21
253.500000
31
0.0
0
LINE
8
CENTER
10
121.200000
20
253.500000
30
0.0
11
151.600000
21
253.500000
31
0.0
0
LINE
8
CENTER
10
120.000000
20
221.900000
30
0.0
11
120.000000
21
252.300000
31
0.0
0
LINE
8
CENTER
10
120.000000
20
254.700000
30
0.0
11
120.000000
21
285.100000
31
0.0
0
LINE
8
DIM
10
50.000000
20
202.300000
30
0.0
11
50.000000
21
189.500000
31
0.0
0
LINE
8
DIM
10
190.000000
20
202.300000
30
0.0
11
190.000000
21
189.500000
31
0.0
0
LINE
8
DIM
10
50.000000
20
191.500000
30
0.0
11
190.000000
21
191.500000
31
0.0
0
SOLID
8
DIM
10
50.000000
20
191.500000
30
0.0
11
53.200000
21
190.892000
31
0.0
12
53.200000
22
192.108000
32
0.0
13
53.200000
23
192.108000
33
0.0
0
SOLID
8
DIM
10
190.000000
20
191.500000
30
0.0
11
186.800000
21
192.108000
31
0.0
12
186.800000
22
190.892000
32
0.0
13
186.800000
23
190.892000
33
0.0
0
TEXT
8
TEXT
10
120.000000
20
192.500000
30
0.0
40
2.5000
1
70.00
72
1
73
0
11
120.000000
21
192.500000
31
0.0
0
LINE
8
DIM
10
48.800000
20
203.500000
30
0.0
11
36.000000
21
203.500000
31
0.0
0
LINE
8
DIM
10
48.800000
20
303.500000
30
0.0
11
36.000000
21
303.500000
31
0.0
0
LINE
8
DIM
10
38.000000
20
203.500000
30
0.0
11
38.000000
21
303.500000
31
0.0
0
SOLID
8
DIM
10
38.000000
20
203.500000
30
0.0
11
38.608000
21
206.700000
31
0.0
12
37.392000
22
206.700000
32
0.0
13
37.392000
23
206.700000
33
0.0
0
SOLID
8
DIM
10
38.000000
20
303.500000
30
0.0
11
37.392000
21
300.300000
31
0.0
12
38.608000
22
300.300000
32
0.0
13
38.608000
23
300.300000
33
0.0
0
TEXT
8
TEXT
10
37.000000
20
253.500000
30
0.0
40
2.5000
1
50.00
50
90.0000
72
1
73
0
11
37.000000
21
253.500000
31
0.0
0
SOLID
8
DIM
10
138.469844
20
277.140323
30
0.0
11
140.919072
21
279.287635
31
0.0
12
139.960850
22
280.036279
32
0.0
13
139.960850
23
280.036279
33
0.0
0
LINE
8
DIM
10
138.469844
20
277.140323
30
0.0
11
164.533281
21
310.500000
31
0.0
0
LINE
8
DIM
10
164.533281
20
310.500000
30
0.0
11
169.533281
21
310.500000
31
0.0
0
TEXT
8
TEXT
10
170.333281
20
315.125000
30
0.0
40
2.5000
1
Ø24.00 THRU
0
TEXT
8
TEXT
10
170.333281
20
311.500000
30
0.0
40
2.5000
1
C'BORE Ø30.00x2.00 +Z
0
SOLID
8
DIM
10
90.000000
20
253.500000
30
0.0
11
86.800000
21
254.108000
31
0.0
12
86.800000
22
252.892000
32
0.0
13
86.800000
23
252.892000
33
0.0
0
LINE
8
DIM
10
90.000000
20
253.500000
30
0.0
11
80.000000
21
253.500000
31
0.0
0
LINE
8
DIM
10
80.000000
20
253.500000
30
0.0
11
77.000000
21
253.500000
31
0.0
0
TEXT
8
TEXT
10
76.200000
20
254.500000
30
0.0
40
2.5000
1
R15.00
72
2
73
0
11
76.200000
21
254.500000
31
0.0
0
SOLID
8
DIM
10
96.000000
20
253.500000
30
0.0
11
92.842863
21
252.698657
31
0.0
12
93.356767
22
251.596586
32
0.0
13
93.356767
23
251.596586
33
0.0
0
LINE
8
DIM
10
96.000000
20
253.500000
30
0.0
11
86.936922
21
249.273817
31
0.0
0
LINE
8
DIM
10
86.936922
20
249.273817
30
0.0
11
83.936922
21
249.273817
31
0.0
0
TEXT
8
TEXT
10
83.136922
20
250.273817
30
0.0
40
2.5000
1
R12.00
72
2
73
0
11
83.136922
21
250.273817
31
0.0
0
TEXT
8
TEXT
10
120.000000
20
179.500000
30
0.0
40
4.0000
1
TOP VIEW
72
1
73
0
11
120.000000
21
179.500000
31
0.0
0
LINE
8
TEXT
10
110.400000
20
177.900000
30
0.0
11
129.600000
21
177.900000
31
0.0
0
TEXT
8
TEXT
10
120.000000
20
173.500000
30
0.0
40
2.4000
1
X →   Y ↑
72
1
73
0
11
120.000000
21
173.500000
31
0.0
0
LINE
8
DIM
10
228.000000
20
115.300000
30
0.0
11
228.000000
21
102.500000
31
0.0
0
LINE
8
DIM
10
328.000000
20
115.300000
30
0.0
11
328.000000
21
102.500000
31
0.0
0
LINE
8
DIM
10
228.000000
20
104.500000
30
0.0
11
328.000000
21
104.500000
31
0.0
0
SOLID
8
DIM
10
228.000000
20
104.500000
30
0.0
11
231.200000
21
103.892000
31
0.0
12
231.200000
22
105.108000
32
0.0
13
231.200000
23
105.108000
33
0.0
0
SOLID
8
DIM
10
328.000000
20
104.500000
30
0.0
11
324.800000
21
105.108000
31
0.0
12
324.800000
22
103.892000
32
0.0
13
324.800000
23
103.892000
33
0.0
0
TEXT
8
TEXT
10
278.000000
20
105.500000
30
0.0
40
2.5000
1
50.00
72
1
73
0
11
278.000000
21
105.500000
31
0.0
0
LINE
8
DIM
10
226.800000
20
116.500000
30
0.0
11
214.000000
21
116.500000
31
0.0
0
LINE
8
DIM
10
226.800000
20
140.500000
30
0.0
11
214.000000
21
140.500000
31
0.0
0
LINE
8
DIM
10
216.000000
20
116.500000
30
0.0
11
216.000000
21
140.500000
31
0.0
0
SOLID
8
DIM
10
216.000000
20
116.500000
30
0.0
11
216.608000
21
119.700000
31
0.0
12
215.392000
22
119.700000
32
0.0
13
215.392000
23
119.700000
33
0.0
0
SOLID
8
DIM
10
216.000000
20
140.500000
30
0.0
11
215.392000
21
137.300000
31
0.0
12
216.608000
22
137.300000
32
0.0
13
216.608000
23
137.300000
33
0.0
0
TEXT
8
TEXT
10
215.000000
20
128.500000
30
0.0
40
2.5000
1
12.00
50
90.0000
72
1
73
0
11
215.000000
21
128.500000
31
0.0
0
TEXT
8
TEXT
10
278.000000
20
92.500000
30
0.0
40
4.0000
1
RIGHT VIEW
72
1
73
0
11
278.000000
21
92.500000
31
0.0
0
LINE
8
TEXT
10
266.000000
20
90.900000
30
0.0
11
290.000000
21
90.900000
31
0.0
0
TEXT
8
TEXT
10
278.000000
20
86.500000
30
0.0
40
2.4000
1
-Y →   Z ↑
72
1
73
0
11
278.000000
21
86.500000
31
0.0
0
LINE
8
DIM
10
366.000000
20
115.300000
30
0.0
11
366.000000
21
102.500000
31
0.0
0
LINE
8
DIM
10
466.000000
20
115.300000
30
0.0
11
466.000000
21
102.500000
31
0.0
0
LINE
8
DIM
10
366.000000
20
104.500000
30
0.0
11
466.000000
21
104.500000
31
0.0
0
SOLID
8
DIM
10
366.000000
20
104.500000
30
0.0
11
369.200000
21
103.892000
31
0.0
12
369.200000
22
105.108000
32
0.0
13
369.200000
23
105.108000
33
0.0
0
SOLID
8
DIM
10
466.000000
20
104.500000
30
0.0
11
462.800000
21
105.108000
31
0.0
12
462.800000
22
103.892000
32
0.0
13
462.800000
23
103.892000
33
0.0
0
TEXT
8
TEXT
10
416.000000
20
105.500000
30
0.0
40
2.5000
1
50.00
72
1
73
0
11
416.000000
21
105.500000
31
0.0
0
LINE
8
DIM
10
364.800000
20
116.500000
30
0.0
11
352.000000
21
116.500000
31
0.0
0
LINE
8
DIM
10
364.800000
20
140.500000
30
0.0
11
352.000000
21
140.500000
31
0.0
0
LINE
8
DIM
10
354.000000
20
116.500000
30
0.0
11
354.000000
21
140.500000
31
0.0
0
SOLID
8
DIM
10
354.000000
20
116.500000
30
0.0
11
354.608000
21
119.700000
31
0.0
12
353.392000
22
119.700000
32
0.0
13
353.392000
23
119.700000
33
0.0
0
SOLID
8
DIM
10
354.000000
20
140.500000
30
0.0
11
353.392000
21
137.300000
31
0.0
12
354.608000
22
137.300000
32
0.0
13
354.608000
23
137.300000
33
0.0
0
TEXT
8
TEXT
10
353.000000
20
128.500000
30
0.0
40
2.5000
1
12.00
50
90.0000
72
1
73
0
11
353.000000
21
128.500000
31
0.0
0
LINE
8
HATCH
10
465.999997
20
116.500000
30
0.0
11
466.000000
21
116.500003
31
0.0
0
LINE
8
HATCH
10
461.757356
20
116.500000
30
0.0
11
466.000000
21
120.742644
31
0.0
0
LINE
8
HATCH
10
457.514716
20
116.500000
30
0.0
11
466.000000
21
124.985284
31
0.0
0
LINE
8
HATCH
10
453.272075
20
116.500000
30
0.0
11
466.000000
21
129.227925
31
0.0
0
LINE
8
HATCH
10
449.029434
20
116.500000
30
0.0
11
466.000000
21
133.470566
31
0.0
0
LINE
8
HATCH
10
444.786794
20
116.500000
30
0.0
11
466.000000
21
137.713206
31
0.0
0
LINE
8
HATCH
10
440.544153
20
116.500000
30
0.0
11
464.544153
21
140.500000
31
0.0
0
LINE
8
HATCH
10
440.000000
20
120.198488
30
0.0
11
460.301512
21
140.500000
31
0.0
0
LINE
8
HATCH
10
440.000000
20
124.441128
30
0.0
11
456.058872
21
140.500000
31
0.0
0
LINE
8
HATCH
10
440.000000
20
128.683769
30
0.0
11
451.816231
21
140.500000
31
0.0
0
LINE
8
HATCH
10
440.000000
20
132.926410
30
0.0
11
443.573590
21
136.500000
31
0.0
0
LINE
8
HATCH
10
446.000000
20
138.926410
30
0.0
11
447.573590
21
140.500000
31
0.0
0
LINE
8
HATCH
10
391.999997
20
116.500000
30
0.0
11
392.000000
21
116.500003
31
0.0
0
LINE
8
HATCH
10
387.757356
20
116.500000
30
0.0
11
392.000000
21
120.742644
31
0.0
0
LINE
8
HATCH
10
383.514716
20
116.500000
30
0.0
11
392.000000
21
124.985284
31
0.0
0
LINE
8
HATCH
10
379.272075
20
116.500000
30
0.0
11
392.000000
21
129.227925
31
0.0
0
LINE
8
HATCH
10
375.029434
20
116.500000
30
0.0
11
392.000000
21
133.470566
31
0.0
0
LINE
8
HATCH
10
370.786794
20
116.500000
30
0.0
11
390.786794
21
136.500000
31
0.0
0
LINE
8
HATCH
10
366.544153
20
116.500000
30
0.0
11
386.544153
21
136.500000
31
0.0
0
LINE
8
HATCH
10
366.000000
20
120.198488
30
0.0
11
386.000000
21
140.198488
31
0.0
0
LINE
8
HATCH
10
366.000000
20
124.441128
30
0.0
11
382.058872
21
140.500000
31
0.0
0
LINE
8
HATCH
10
366.000000
20
128.683769
30
0.0
11
377.816231
21
140.500000
31
0.0
0
LINE
8
HATCH
10
366.000000
20
132.926410
30
0.0
11
373.573590
21
140.500000
31
0.0
0
LINE
8
HATCH
10
366.000000
20
137.169050
30
0.0
11
369.330950
21
140.500000
31
0.0
0
LINE
8
DIM
10
366.000000
20
137.799999
30
0.0
11
366.000000
21
149.500000
31
0.0
0
LINE
8
DIM
10
386.000000
20
137.799999
30
0.0
11
386.000000
21
149.500000
31
0.0
0
LINE
8
DIM
10
366.000000
20
147.500000
30
0.0
11
386.000000
21
147.500000
31
0.0
0
SOLID
8
DIM
10
366.000000
20
147.500000
30
0.0
11
369.200000
21
146.892000
31
0.0
12
369.200000
22
148.108000
32
0.0
13
369.200000
23
148.108000
33
0.0
0
SOLID
8
DIM
10
386.000000
20
147.500000
30
0.0
11
382.800000
21
148.108000
31
0.0
12
382.800000
22
146.892000
32
0.0
13
382.800000
23
146.892000
33
0.0
0
TEXT
8
TEXT
10
376.000000
20
148.500000
30
0.0
40
2.5000
1
10.00 WALL
72
1
73
0
11
376.000000
21
148.500000
31
0.0
0
TEXT
8
TEXT
10
416.000000
20
92.500000
30
0.0
40
4.0000
1
SECTION A-A
72
1
73
0
11
416.000000
21
92.500000
31
0.0
0
LINE
8
TEXT
10
402.800000
20
90.900000
30
0.0
11
429.200000
21
90.900000
31
0.0
0
TEXT
8
TEXT
10
545.000000
20
341.502577
30
0.0
40
4.0000
1
ISOMETRIC VIEW
72
1
73
0
11
545.000000
21
341.502577
31
0.0
0
LINE
8
TEXT
10
528.200000
20
339.902577
30
0.0
11
561.800000
21
339.902577
31
0.0
0
TEXT
8
TEXT
10
545.000000
20
335.502577
30
0.0
40
2.6000
1
70.00 x 50.00 x 12.00 mm
72
1
73
0
11
545.000000
21
335.502577
31
0.0
0
LINE
8
CUT
10
120.000000
20
107.500000
30
0.0
11
120.000000
21
119.260000
31
0.0
0
LINE
8
CUTTHIN
10
120.000000
20
119.260000
30
0.0
11
120.000000
21
137.740000
31
0.0
0
LINE
8
CUT
10
120.000000
20
137.740000
30
0.0
11
120.000000
21
149.500000
31
0.0
0
LINE
8
CUT
10
120.000000
20
107.500000
30
0.0
11
129.000000
21
107.500000
31
0.0
0
SOLID
8
CUT
10
129.000000
20
107.500000
30
0.0
11
124.800000
21
108.298000
31
0.0
12
124.800000
22
106.702000
32
0.0
13
124.800000
23
106.702000
33
0.0
0
TEXT
8
TEXT
10
115.000000
20
107.500000
30
0.0
40
4.0000
1
A
72
1
73
2
11
115.000000
21
107.500000
31
0.0
0
LINE
8
CUT
10
120.000000
20
149.500000
30
0.0
11
129.000000
21
149.500000
31
0.0
0
SOLID
8
CUT
10
129.000000
20
149.500000
30
0.0
11
124.800000
21
150.298000
31
0.0
12
124.800000
22
148.702000
32
0.0
13
124.800000
23
148.702000
33
0.0
0
TEXT
8
TEXT
10
115.000000
20
149.500000
30
0.0
40
4.0000
1
A
72
1
73
2
11
115.000000
21
149.500000
31
0.0
0
TEXT
8
TEXT
10
508.000000
20
321.502577
30
0.0
40
3.0000
1
NOTES
0
TEXT
8
TEXT
10
508.000000
20
316.902577
30
0.0
40
2.4000
1
1. ALL DIMENSIONS IN mm AND DEGREES. EVERY
0
TEXT
8
TEXT
10
508.000000
20
313.182577
30
0.0
40
2.4000
1
   DIMENSION AND EVERY HOLE CALLOUT WAS MEASURED
0
TEXT
8
TEXT
10
508.000000
20
309.462577
30
0.0
40
2.4000
1
   OFF THE SOLID.
0
TEXT
8
TEXT
10
508.000000
20
305.742577
30
0.0
40
2.4000
1
2. THINNEST WALL, WHOLE SOLID (RAY MINIMUM):
0
TEXT
8
TEXT
10
508.000000
20
302.022577
30
0.0
40
2.4000
1
   5.0000 mm, AT X=-35.000 Y=-20.833 Z=5.000 —
0
TEXT
8
TEXT
10
508.000000
20
298.302577
30
0.0
40
2.4000
1
   MEASURED OVER THE WHOLE SOLID BY RAY+EXACT AT
0
TEXT
8
TEXT
10
508.000000
20
294.582577
30
0.0
40
2.4000
1
   1.2950 mm SAMPLE SPACING (A FEATURE NARROWER
0
TEXT
8
TEXT
10
508.000000
20
290.862577
30
0.0
40
2.4000
1
   THAN THAT CAN BE MISSED). THIS IS A DISTANCE
0
TEXT
8
TEXT
10
508.000000
20
287.142577
30
0.0
40
2.4000
1
   THROUGH MATERIAL, NOT A WALL: AT AN EDGE, A
0
TEXT
8
TEXT
10
508.000000
20
283.422577
30
0.0
40
2.4000
1
   FILLET RUN-OUT OR A CHAMFER TIP IT IS REAL AND
0
TEXT
8
TEXT
10
508.000000
20
279.702577
30
0.0
40
2.4000
1
   UNPRINTABLE BY DEFINITION. DO NOT JUDGE
0
TEXT
8
TEXT
10
508.000000
20
275.982577
30
0.0
40
2.4000
1
   PRINTABILITY BY IT — THE NEXT NOTE IS THE ONE
0
TEXT
8
TEXT
10
508.000000
20
272.262577
30
0.0
40
2.4000
1
   THAT DOES.
0
TEXT
8
TEXT
10
508.000000
20
268.542577
30
0.0
40
2.4000
1
3. PRINTABLE MINIMUM WALL: CANNOT DETERMINE — no
0
TEXT
8
TEXT
10
508.000000
20
264.822577
30
0.0
40
2.4000
1
   ray fired into this solid came back out of a
0
TEXT
8
TEXT
10
508.000000
20
261.102577
30
0.0
40
2.4000
1
   wall within 4.000 mm — every wall on it is
0
TEXT
8
TEXT
10
508.000000
20
257.382577
30
0.0
40
2.4000
1
   thicker than the cap, or it is not a closed
0
TEXT
8
TEXT
10
508.000000
20
253.662577
30
0.0
40
2.4000
1
   solid. MEASURED AS THE SMALLEST MEDIAN WALL
0
TEXT
8
TEXT
10
508.000000
20
249.942577
30
0.0
40
2.4000
1
   OVER A NEIGHBOURHOOD OF ? mm (>= ? SAMPLES),
0
TEXT
8
TEXT
10
508.000000
20
246.222577
30
0.0
40
2.4000
1
   RAYS CAPPED AT 4.000 mm, BY
0
TEXT
8
TEXT
10
508.000000
20
242.502577
30
0.0
40
2.4000
1
   cecad.inspect.printable_wall_detail. WHAT
0
TEXT
8
TEXT
10
508.000000
20
238.782577
30
0.0
40
2.4000
1
   SETTLES IT: a printed and sectioned coupon of
0
TEXT
8
TEXT
10
508.000000
20
235.062577
30
0.0
40
2.4000
1
   the thinnest feature.
0
TEXT
8
TEXT
10
508.000000
20
231.342577
30
0.0
40
2.4000
1
4. GENERAL TOLERANCE: CANNOT DETERMINE — THIS PART
0
TEXT
8
TEXT
10
508.000000
20
227.622577
30
0.0
40
2.4000
1
   DECLARES NO PROCESS THIS REPO CAN READ.
0
TEXT
8
TEXT
10
508.000000
20
223.902577
30
0.0
40
2.4000
1
5. SECTION A-A AT X=0.00: THINNEST MATERIAL IN
0
TEXT
8
TEXT
10
508.000000
20
220.182577
30
0.0
40
2.4000
1
   THIS PLANE ONLY 10.00 mm, AT Y=-20.00, Z=10.05
0
TEXT
8
TEXT
10
508.000000
20
216.462577
30
0.0
40
2.4000
1
   — A SCAN OF ONE CUT, NOT THE PART MINIMUM.
0
TEXT
8
TEXT
10
508.000000
20
212.742577
30
0.0
40
2.4000
1
6. FRONT VIEW: hidden lines SUPPRESSED: all 311
0
TEXT
8
TEXT
10
508.000000
20
209.022577
30
0.0
40
2.4000
1
   edge samples still land on drawn ink without
0
TEXT
8
TEXT
10
508.000000
20
205.302577
30
0.0
40
2.4000
1
   them.
0
TEXT
8
TEXT
10
508.000000
20
201.582577
30
0.0
40
2.4000
1
7. TOP VIEW: hidden lines KEPT: without them 5 of
0
TEXT
8
TEXT
10
508.000000
20
197.862577
30
0.0
40
2.4000
1
   320 edge samples have no ink within 0.35 mm
0
TEXT
8
TEXT
10
508.000000
20
194.142577
30
0.0
40
2.4000
1
   (worst 3.000 mm) and the feature would be
0
TEXT
8
TEXT
10
508.000000
20
190.422577
30
0.0
40
2.4000
1
   missing from the sheet.
0
TEXT
8
TEXT
10
508.000000
20
186.702577
30
0.0
40
2.4000
1
8. RIGHT VIEW: hidden lines SUPPRESSED: all 271
0
TEXT
8
TEXT
10
508.000000
20
182.982577
30
0.0
40
2.4000
1
   edge samples still land on drawn ink without
0
TEXT
8
TEXT
10
508.000000
20
179.262577
30
0.0
40
2.4000
1
   them.
0
TEXT
8
TEXT
10
508.000000
20
171.542577
30
0.0
40
3.0000
1
PRINT / DFM
0
TEXT
8
TEXT
10
508.000000
20
166.942577
30
0.0
40
2.4000
1
1. ORIENTATION: laid flat (70 x 50 x 12 mm)
0
TEXT
8
TEXT
10
508.000000
20
163.222577
30
0.0
40
2.4000
1
2. THINNEST WALL, WHOLE SOLID (RAY MINIMUM):
0
TEXT
8
TEXT
10
508.000000
20
159.502577
30
0.0
40
2.4000
1
   5.0000 mm — a distance through material, NOT a
0
TEXT
8
TEXT
10
508.000000
20
155.782577
30
0.0
40
2.4000
1
   printable wall where it falls on an edge, a
0
TEXT
8
TEXT
10
508.000000
20
152.062577
30
0.0
40
2.4000
1
   fillet run-out or a chamfer tip. Printability
0
TEXT
8
TEXT
10
508.000000
20
148.342577
30
0.0
40
2.4000
1
   is judged on the next line.
0
TEXT
8
TEXT
10
508.000000
20
144.622577
30
0.0
40
2.4000
1
3. PRINTABLE MINIMUM WALL: CANNOT DETERMINE — no
0
TEXT
8
TEXT
10
508.000000
20
140.902577
30
0.0
40
2.4000
1
   ray fired into this solid came back out of a
0
TEXT
8
TEXT
10
508.000000
20
137.182577
30
0.0
40
2.4000
1
   wall within 4.000 mm — every wall on it is
0
TEXT
8
TEXT
10
508.000000
20
133.462577
30
0.0
40
2.4000
1
   thicker than the cap, or it is not a closed
0
TEXT
8
TEXT
10
508.000000
20
129.742577
30
0.0
40
2.4000
1
   solid. Floor is 0.8000 mm (2 perimeters @ 0.4
0
TEXT
8
TEXT
10
508.000000
20
126.022577
30
0.0
40
2.4000
1
   mm nozzle, cecad/printed.py:801). What settles
0
TEXT
8
TEXT
10
508.000000
20
122.302577
30
0.0
40
2.4000
1
   it: a printed and sectioned coupon of the
0
TEXT
8
TEXT
10
508.000000
20
118.582577
30
0.0
40
2.4000
1
   thinnest feature.
0
TEXT
8
TEXT
10
508.000000
20
114.862577
30
0.0
40
2.4000
1
4. FILAMENT: PLA, ~15 g (modelled), 60 layers @
0
TEXT
8
TEXT
10
508.000000
20
111.142577
30
0.0
40
2.4000
1
   0.2 mm
0
LINE
8
FRAME
10
398.000000
20
10.000000
30
0.0
11
584.000000
21
10.000000
31
0.0
0
LINE
8
FRAME
10
584.000000
20
10.000000
30
0.0
11
584.000000
21
66.000000
31
0.0
0
LINE
8
FRAME
10
584.000000
20
66.000000
30
0.0
11
398.000000
21
66.000000
31
0.0
0
LINE
8
FRAME
10
398.000000
20
66.000000
30
0.0
11
398.000000
21
10.000000
31
0.0
0
LINE
8
TITLE
10
398.000000
20
53.000000
30
0.0
11
584.000000
21
53.000000
31
0.0
0
LINE
8
TITLE
10
398.000000
20
19.000000
30
0.0
11
584.000000
21
19.000000
31
0.0
0
LINE
8
TITLE
10
398.000000
20
27.500000
30
0.0
11
584.000000
21
27.500000
31
0.0
0
LINE
8
TITLE
10
398.000000
20
36.000000
30
0.0
11
584.000000
21
36.000000
31
0.0
0
LINE
8
TITLE
10
398.000000
20
44.500000
30
0.0
11
584.000000
21
44.500000
31
0.0
0
TEXT
8
TEXT
10
400.500000
20
59.500000
30
0.0
40
6.0000
1
MICRODUCK-JIG-PRESS-ANVIL
72
0
73
2
11
400.500000
21
59.500000
31
0.0
0
LINE
8
TITLE
10
564.000000
20
53.000000
30
0.0
11
564.000000
21
66.000000
31
0.0
0
TEXT
8
TITLE
10
574.000000
20
63.600000
30
0.0
40
1.7000
1
REV
72
1
73
0
11
574.000000
21
63.600000
31
0.0
0
TEXT
8
TEXT
10
574.000000
20
55.000000
30
0.0
40
5.2000
1
A
72
1
73
0
11
574.000000
21
55.000000
31
0.0
0
LINE
8
TITLE
10
534.000000
20
53.000000
30
0.0
11
534.000000
21
66.000000
31
0.0
0
CIRCLE
8
TITLE
10
540.500000
20
59.500000
30
0.0
40
3.500000
0
CIRCLE
8
TITLE
10
540.500000
20
59.500000
30
0.0
40
1.960000
0
LINE
8
TITLE
10
550.300000
20
56.000000
30
0.0
11
550.300000
21
63.000000
31
0.0
0
LINE
8
TITLE
10
550.300000
20
63.000000
30
0.0
11
556.250000
21
61.460000
31
0.0
0
LINE
8
TITLE
10
556.250000
20
61.460000
30
0.0
11
556.250000
21
57.540000
31
0.0
0
LINE
8
TITLE
10
556.250000
20
57.540000
30
0.0
11
550.300000
21
56.000000
31
0.0
0
LINE
8
CENTER
10
535.500000
20
59.500000
30
0.0
11
557.750000
21
59.500000
31
0.0
0
LINE
8
TITLE
10
462.000000
20
19.000000
30
0.0
11
462.000000
21
53.000000
31
0.0
0
LINE
8
TITLE
10
526.000000
20
19.000000
30
0.0
11
526.000000
21
53.000000
31
0.0
0
TEXT
8
TITLE
10
399.600000
20
50.600000
30
0.0
40
1.7000
1
MATERIAL
0
TEXT
8
TEXT
10
399.600000
20
45.900000
30
0.0
40
2.5000
1
PLA
0
TEXT
8
TITLE
10
463.600000
20
50.600000
30
0.0
40
1.7000
1
PROCESS
0
TEXT
8
TEXT
10
463.600000
20
45.900000
30
0.0
40
2.5000
1
-
0
TEXT
8
TITLE
10
527.600000
20
50.600000
30
0.0
40
1.7000
1
SCALE
0
TEXT
8
TEXT
10
527.600000
20
45.900000
30
0.0
40
2.5000
1
2:1
0
TEXT
8
TITLE
10
399.600000
20
42.100000
30
0.0
40
1.7000
1
CATEGORY
0
TEXT
8
TEXT
10
399.600000
20
37.400000
30
0.0
40
2.5000
1
-
0
TEXT
8
TITLE
10
431.600000
20
42.100000
30
0.0
40
1.7000
1
GENERAL TOL
0
TEXT
8
TEXT
10
431.600000
20
37.400000
30
0.0
40
2.5000
1
SEE NOTES
0
LINE
8
TITLE
10
430.000000
20
36.000000
30
0.0
11
430.000000
21
44.500000
31
0.0
0
TEXT
8
TITLE
10
463.600000
20
42.100000
30
0.0
40
1.7000
1
FINISH
0
TEXT
8
TEXT
10
463.600000
20
37.400000
30
0.0
40
2.5000
1
AS PRINTED
0
TEXT
8
TITLE
10
527.600000
20
42.100000
30
0.0
40
1.7000
1
SHEET
0
TEXT
8
TEXT
10
527.600000
20
37.400000
30
0.0
40
2.5000
1
A2  1/1
0
TEXT
8
TITLE
10
399.600000
20
33.600000
30
0.0
40
1.7000
1
VOLUME (MEASURED)
0
TEXT
8
TEXT
10
399.600000
20
28.900000
30
0.0
40
2.5000
1
34.33 cm3
0
TEXT
8
TITLE
10
463.600000
20
33.600000
30
0.0
40
1.7000
1
MASS (ASSUMES PLA)
0
TEXT
8
TEXT
10
463.600000
20
28.900000
30
0.0
40
2.5000
1
42.6 g
0
TEXT
8
TITLE
10
527.600000
20
33.600000
30
0.0
40
1.7000
1
UNITS
0
TEXT
8
TEXT
10
527.600000
20
28.900000
30
0.0
40
2.5000
1
mm / deg
0
TEXT
8
TITLE
10
399.600000
20
25.100000
30
0.0
40
1.7000
1
SIZE (BBOX, MEASURED)
0
TEXT
8
TEXT
10
399.600000
20
20.400000
30
0.0
40
2.5000
1
70.00 x 50.00 x 12.00
0
TEXT
8
TITLE
10
463.600000
20
25.100000
30
0.0
40
1.7000
1
DRAWN
0
TEXT
8
TEXT
10
463.600000
20
20.400000
30
0.0
40
2.5000
1
ce-cad  2026-09-03
0
TEXT
8
TITLE
10
527.600000
20
25.100000
30
0.0
40
1.7000
1
PROJECTION
0
TEXT
8
TEXT
10
527.600000
20
20.400000
30
0.0
40
2.5000
1
THIRD ANGLE
0
TEXT
8
TITLE
10
399.600000
20
16.600000
30
0.0
40
1.7000
1
SOURCE (DESIGN FILE)
0
TEXT
8
TEXT
10
399.600000
20
11.400000
30
0.0
40
2.6000
1
tools/jigs.py
0
TEXT
8
TEXT
10
12.500000
20
403.500000
30
0.0
40
4.2000
1
microduck-jig-press-anvil   SCALE 2:1   A2   THIRD ANGLE
0
ENDSEC
0
EOF
