ISO-10303-21;
HEADER;
FILE_DESCRIPTION(('FreeCAD Model'),'2;1');
FILE_NAME('Open CASCADE Shape Model','2026-09-03T02:49:22',('FreeCAD'),(
    'FreeCAD'),'Open CASCADE STEP processor 7.8','FreeCAD','Unknown');
FILE_SCHEMA(('AUTOMOTIVE_DESIGN { 1 0 10303 214 1 1 1 1 }'));
ENDSEC;
DATA;
#1 = APPLICATION_PROTOCOL_DEFINITION('international standard',
  'automotive_design',2000,#2);
#2 = APPLICATION_CONTEXT(
  'core data for automotive mechanical design processes');
#3 = SHAPE_DEFINITION_REPRESENTATION(#4,#10);
#4 = PRODUCT_DEFINITION_SHAPE('','',#5);
#5 = PRODUCT_DEFINITION('design','',#6,#9);
#6 = PRODUCT_DEFINITION_FORMATION('','',#7);
#7 = PRODUCT('Open CASCADE STEP translator 7.8 6',
  'Open CASCADE STEP translator 7.8 6','',(#8));
#8 = PRODUCT_CONTEXT('',#2,'mechanical');
#9 = PRODUCT_DEFINITION_CONTEXT('part definition',#2,'design');
#10 = ADVANCED_BREP_SHAPE_REPRESENTATION('',(#11,#15),#1905);
#11 = AXIS2_PLACEMENT_3D('',#12,#13,#14);
#12 = CARTESIAN_POINT('',(0.,0.,0.));
#13 = DIRECTION('',(0.,0.,1.));
#14 = DIRECTION('',(1.,0.,-0.));
#15 = MANIFOLD_SOLID_BREP('',#16);
#16 = CLOSED_SHELL('',(#17,#57,#88,#119,#564,#1009,#1026,#1043,#1060,
    #1077,#1094,#1111,#1128,#1145,#1162,#1179,#1196,#1213,#1230,#1247,
    #1264,#1281,#1298,#1315,#1332,#1349,#1366,#1383,#1400,#1417,#1434,
    #1451,#1468,#1485,#1502,#1519,#1536,#1553,#1570,#1587,#1604,#1621,
    #1638,#1655,#1672,#1689,#1706,#1723,#1740,#1757,#1774,#1791,#1808,
    #1825,#1837,#1854,#1871,#1888));
#17 = ADVANCED_FACE('',(#18),#52,.F.);
#18 = FACE_BOUND('',#19,.F.);
#19 = EDGE_LOOP('',(#20,#30,#38,#46));
#20 = ORIENTED_EDGE('',*,*,#21,.T.);
#21 = EDGE_CURVE('',#22,#24,#26,.T.);
#22 = VERTEX_POINT('',#23);
#23 = CARTESIAN_POINT('',(2.6645352591E-15,-12.,78.5));
#24 = VERTEX_POINT('',#25);
#25 = CARTESIAN_POINT('',(2.,-12.,78.5));
#26 = LINE('',#27,#28);
#27 = CARTESIAN_POINT('',(2.6645352591E-15,-12.,78.5));
#28 = VECTOR('',#29,1.);
#29 = DIRECTION('',(1.,0.,-2.22044604925E-16));
#30 = ORIENTED_EDGE('',*,*,#31,.T.);
#31 = EDGE_CURVE('',#24,#32,#34,.T.);
#32 = VERTEX_POINT('',#33);
#33 = CARTESIAN_POINT('',(2.,-12.01711027725,78.76105238444));
#34 = LINE('',#35,#36);
#35 = CARTESIAN_POINT('',(2.,-12.,78.5));
#36 = VECTOR('',#37,1.);
#37 = DIRECTION('',(1.452241199077E-17,-6.540312923015E-02,
    0.997858923239));
#38 = ORIENTED_EDGE('',*,*,#39,.F.);
#39 = EDGE_CURVE('',#40,#32,#42,.T.);
#40 = VERTEX_POINT('',#41);
#41 = CARTESIAN_POINT('',(2.668334503853E-15,-12.01711027725,
    78.76105238444));
#42 = LINE('',#43,#44);
#43 = CARTESIAN_POINT('',(2.668334503853E-15,-12.01711027725,
    78.76105238444));
#44 = VECTOR('',#45,1.);
#45 = DIRECTION('',(1.,0.,-2.22044604925E-16));
#46 = ORIENTED_EDGE('',*,*,#47,.F.);
#47 = EDGE_CURVE('',#22,#40,#48,.T.);
#48 = LINE('',#49,#50);
#49 = CARTESIAN_POINT('',(2.6645352591E-15,-12.,78.5));
#50 = VECTOR('',#51,1.);
#51 = DIRECTION('',(1.452241199077E-17,-6.540312923015E-02,
    0.997858923239));
#52 = PLANE('',#53);
#53 = AXIS2_PLACEMENT_3D('',#54,#55,#56);
#54 = CARTESIAN_POINT('',(2.6645352591E-15,-12.,78.5));
#55 = DIRECTION('',(2.215691903814E-16,-0.997858923239,
    -6.540312923015E-02));
#56 = DIRECTION('',(1.452241199077E-17,-6.540312923015E-02,
    0.997858923239));
#57 = ADVANCED_FACE('',(#58),#83,.F.);
#58 = FACE_BOUND('',#59,.F.);
#59 = EDGE_LOOP('',(#60,#70,#76,#77));
#60 = ORIENTED_EDGE('',*,*,#61,.T.);
#61 = EDGE_CURVE('',#62,#64,#66,.T.);
#62 = VERTEX_POINT('',#63);
#63 = CARTESIAN_POINT('',(2.6645352591E-15,-12.,71.5));
#64 = VERTEX_POINT('',#65);
#65 = CARTESIAN_POINT('',(2.,-12.,71.5));
#66 = LINE('',#67,#68);
#67 = CARTESIAN_POINT('',(2.6645352591E-15,-12.,71.5));
#68 = VECTOR('',#69,1.);
#69 = DIRECTION('',(1.,0.,-2.22044604925E-16));
#70 = ORIENTED_EDGE('',*,*,#71,.T.);
#71 = EDGE_CURVE('',#64,#24,#72,.T.);
#72 = LINE('',#73,#74);
#73 = CARTESIAN_POINT('',(2.,-12.,71.5));
#74 = VECTOR('',#75,1.);
#75 = DIRECTION('',(0.,-2.22044604925E-16,1.));
#76 = ORIENTED_EDGE('',*,*,#21,.F.);
#77 = ORIENTED_EDGE('',*,*,#78,.F.);
#78 = EDGE_CURVE('',#62,#22,#79,.T.);
#79 = LINE('',#80,#81);
#80 = CARTESIAN_POINT('',(2.6645352591E-15,-12.,71.5));
#81 = VECTOR('',#82,1.);
#82 = DIRECTION('',(0.,-2.22044604925E-16,1.));
#83 = PLANE('',#84);
#84 = AXIS2_PLACEMENT_3D('',#85,#86,#87);
#85 = CARTESIAN_POINT('',(2.6645352591E-15,-12.,71.5));
#86 = DIRECTION('',(2.22044604925E-16,-1.,0.));
#87 = DIRECTION('',(0.,-2.22044604925E-16,1.));
#88 = ADVANCED_FACE('',(#89),#114,.F.);
#89 = FACE_BOUND('',#90,.F.);
#90 = EDGE_LOOP('',(#91,#92,#100,#108));
#91 = ORIENTED_EDGE('',*,*,#39,.T.);
#92 = ORIENTED_EDGE('',*,*,#93,.T.);
#93 = EDGE_CURVE('',#32,#94,#96,.T.);
#94 = VERTEX_POINT('',#95);
#95 = CARTESIAN_POINT('',(2.,-12.06814834742,79.017638090205));
#96 = LINE('',#97,#98);
#97 = CARTESIAN_POINT('',(2.,-12.01711027725,78.76105238444));
#98 = VECTOR('',#99,1.);
#99 = DIRECTION('',(4.331875347677E-17,-0.195090322016,0.980785280403));
#100 = ORIENTED_EDGE('',*,*,#101,.F.);
#101 = EDGE_CURVE('',#102,#94,#104,.T.);
#102 = VERTEX_POINT('',#103);
#103 = CARTESIAN_POINT('',(2.67966723198E-15,-12.06814834742,
    79.017638090205));
#104 = LINE('',#105,#106);
#105 = CARTESIAN_POINT('',(2.67966723198E-15,-12.06814834742,
    79.017638090205));
#106 = VECTOR('',#107,1.);
#107 = DIRECTION('',(1.,0.,-2.22044604925E-16));
#108 = ORIENTED_EDGE('',*,*,#109,.F.);
#109 = EDGE_CURVE('',#40,#102,#110,.T.);
#110 = LINE('',#111,#112);
#111 = CARTESIAN_POINT('',(2.668334503853E-15,-12.01711027725,
    78.76105238444));
#112 = VECTOR('',#113,1.);
#113 = DIRECTION('',(4.331875347677E-17,-0.195090322016,0.980785280403)
  );
#114 = PLANE('',#115);
#115 = AXIS2_PLACEMENT_3D('',#116,#117,#118);
#116 = CARTESIAN_POINT('',(2.668334503853E-15,-12.01711027725,
    78.76105238444));
#117 = DIRECTION('',(2.177780801034E-16,-0.980785280403,-0.195090322016)
  );
#118 = DIRECTION('',(4.331875347677E-17,-0.195090322016,0.980785280403)
  );
#119 = ADVANCED_FACE('',(#120,#515,#526,#537,#548),#559,.F.);
#120 = FACE_BOUND('',#121,.F.);
#121 = EDGE_LOOP('',(#122,#123,#124,#132,#140,#148,#156,#164,#172,#180,
    #188,#196,#204,#212,#220,#228,#236,#244,#252,#260,#268,#276,#284,
    #292,#300,#308,#316,#324,#332,#340,#348,#356,#364,#372,#380,#388,
    #396,#404,#412,#420,#428,#436,#444,#452,#460,#468,#476,#484,#492,
    #500,#508,#514));
#122 = ORIENTED_EDGE('',*,*,#47,.T.);
#123 = ORIENTED_EDGE('',*,*,#109,.T.);
#124 = ORIENTED_EDGE('',*,*,#125,.T.);
#125 = EDGE_CURVE('',#102,#126,#128,.T.);
#126 = VERTEX_POINT('',#127);
#127 = CARTESIAN_POINT('',(2.698339537361E-15,-12.15224093497,
    79.26536686473));
#128 = LINE('',#129,#130);
#129 = CARTESIAN_POINT('',(2.67966723198E-15,-12.06814834742,
    79.017638090205));
#130 = VECTOR('',#131,1.);
#131 = DIRECTION('',(7.137389908055E-17,-0.321439465303,0.946930129495)
  );
#132 = ORIENTED_EDGE('',*,*,#133,.T.);
#133 = EDGE_CURVE('',#126,#134,#136,.T.);
#134 = VERTEX_POINT('',#135);
#135 = CARTESIAN_POINT('',(2.724031931674E-15,-12.26794919243,79.5));
#136 = LINE('',#137,#138);
#137 = CARTESIAN_POINT('',(2.698339537361E-15,-12.15224093497,
    79.26536686473));
#138 = VECTOR('',#139,1.);
#139 = DIRECTION('',(9.820781748249E-17,-0.442288690219,0.896872741533)
  );
#140 = ORIENTED_EDGE('',*,*,#141,.T.);
#141 = EDGE_CURVE('',#134,#142,#144,.T.);
#142 = VERTEX_POINT('',#143);
#143 = CARTESIAN_POINT('',(2.756304810929E-15,-12.41329331941,
    79.717522858017));
#144 = LINE('',#145,#146);
#145 = CARTESIAN_POINT('',(2.724031931674E-15,-12.26794919243,79.5));
#146 = VECTOR('',#147,1.);
#147 = DIRECTION('',(1.233613728989E-16,-0.55557023302,0.831469612303));
#148 = ORIENTED_EDGE('',*,*,#149,.T.);
#149 = EDGE_CURVE('',#142,#150,#152,.T.);
#150 = VERTEX_POINT('',#151);
#151 = CARTESIAN_POINT('',(2.794605977214E-15,-12.58578643762,
    79.914213562373));
#152 = LINE('',#153,#154);
#153 = CARTESIAN_POINT('',(2.756304810929E-15,-12.41329331941,
    79.717522858017));
#154 = VECTOR('',#155,1.);
#155 = DIRECTION('',(1.464041810229E-16,-0.6593458151,0.751839807479));
#156 = ORIENTED_EDGE('',*,*,#157,.T.);
#157 = EDGE_CURVE('',#150,#158,#160,.T.);
#158 = VERTEX_POINT('',#159);
#159 = CARTESIAN_POINT('',(2.838280086955E-15,-12.78247714198,
    80.086706680582));
#160 = LINE('',#161,#162);
#161 = CARTESIAN_POINT('',(2.794605977214E-15,-12.58578643762,
    79.914213562373));
#162 = VECTOR('',#163,1.);
#163 = DIRECTION('',(1.669419730186E-16,-0.751839807479,0.6593458151));
#164 = ORIENTED_EDGE('',*,*,#165,.T.);
#165 = EDGE_CURVE('',#158,#166,#168,.T.);
#166 = VERTEX_POINT('',#167);
#167 = CARTESIAN_POINT('',(2.886579864025E-15,-13.,80.232050807569));
#168 = LINE('',#169,#170);
#169 = CARTESIAN_POINT('',(2.838280086955E-15,-12.78247714198,
    80.086706680582));
#170 = VECTOR('',#171,1.);
#171 = DIRECTION('',(1.846233415709E-16,-0.831469612303,0.55557023302));
#172 = ORIENTED_EDGE('',*,*,#173,.T.);
#173 = EDGE_CURVE('',#166,#174,#176,.T.);
#174 = VERTEX_POINT('',#175);
#175 = CARTESIAN_POINT('',(2.938678885849E-15,-13.23463313527,
    80.347759065023));
#176 = LINE('',#177,#178);
#177 = CARTESIAN_POINT('',(2.886579864025E-15,-13.,80.232050807569));
#178 = VECTOR('',#179,1.);
#179 = DIRECTION('',(1.991457535617E-16,-0.896872741533,0.442288690219)
  );
#180 = ORIENTED_EDGE('',*,*,#181,.T.);
#181 = EDGE_CURVE('',#174,#182,#184,.T.);
#182 = VERTEX_POINT('',#183);
#183 = CARTESIAN_POINT('',(2.993685723717E-15,-13.48236190979,
    80.431851652578));
#184 = LINE('',#185,#186);
#185 = CARTESIAN_POINT('',(2.938678885849E-15,-13.23463313527,
    80.347759065023));
#186 = VECTOR('',#187,1.);
#187 = DIRECTION('',(2.102607264954E-16,-0.946930129495,0.321439465303)
  );
#188 = ORIENTED_EDGE('',*,*,#189,.T.);
#189 = EDGE_CURVE('',#182,#190,#192,.T.);
#190 = VERTEX_POINT('',#191);
#191 = CARTESIAN_POINT('',(3.050659195383E-15,-13.73894761556,
    80.482889722748));
#192 = LINE('',#193,#194);
#193 = CARTESIAN_POINT('',(2.993685723717E-15,-13.48236190979,
    80.431851652578));
#194 = VECTOR('',#195,1.);
#195 = DIRECTION('',(2.177780801034E-16,-0.980785280403,0.195090322016)
  );
#196 = ORIENTED_EDGE('',*,*,#197,.T.);
#197 = EDGE_CURVE('',#190,#198,#200,.T.);
#198 = VERTEX_POINT('',#199);
#199 = CARTESIAN_POINT('',(3.10862446895E-15,-14.,80.5));
#200 = LINE('',#201,#202);
#201 = CARTESIAN_POINT('',(3.050659195383E-15,-13.73894761556,
    80.482889722748));
#202 = VECTOR('',#203,1.);
#203 = DIRECTION('',(2.215691903814E-16,-0.997858923239,
    6.540312923017E-02));
#204 = ORIENTED_EDGE('',*,*,#205,.T.);
#205 = EDGE_CURVE('',#198,#206,#208,.T.);
#206 = VERTEX_POINT('',#207);
#207 = CARTESIAN_POINT('',(6.661338147751E-15,-30.,80.5));
#208 = LINE('',#209,#210);
#209 = CARTESIAN_POINT('',(3.10862446895E-15,-14.,80.5));
#210 = VECTOR('',#211,1.);
#211 = DIRECTION('',(2.22044604925E-16,-1.,0.));
#212 = ORIENTED_EDGE('',*,*,#213,.T.);
#213 = EDGE_CURVE('',#206,#214,#216,.T.);
#214 = VERTEX_POINT('',#215);
#215 = CARTESIAN_POINT('',(6.719303421319E-15,-30.26105238444,
    80.482889722748));
#216 = LINE('',#217,#218);
#217 = CARTESIAN_POINT('',(6.661338147751E-15,-30.,80.5));
#218 = VECTOR('',#219,1.);
#219 = DIRECTION('',(2.215691903814E-16,-0.997858923239,
    -6.540312923017E-02));
#220 = ORIENTED_EDGE('',*,*,#221,.T.);
#221 = EDGE_CURVE('',#214,#222,#224,.T.);
#222 = VERTEX_POINT('',#223);
#223 = CARTESIAN_POINT('',(6.776276892985E-15,-30.5176380902,
    80.431851652578));
#224 = LINE('',#225,#226);
#225 = CARTESIAN_POINT('',(6.719303421319E-15,-30.26105238444,
    80.482889722748));
#226 = VECTOR('',#227,1.);
#227 = DIRECTION('',(2.177780801034E-16,-0.980785280403,-0.195090322016)
  );
#228 = ORIENTED_EDGE('',*,*,#229,.T.);
#229 = EDGE_CURVE('',#222,#230,#232,.T.);
#230 = VERTEX_POINT('',#231);
#231 = CARTESIAN_POINT('',(6.831283730853E-15,-30.76536686473,
    80.347759065023));
#232 = LINE('',#233,#234);
#233 = CARTESIAN_POINT('',(6.776276892985E-15,-30.5176380902,
    80.431851652578));
#234 = VECTOR('',#235,1.);
#235 = DIRECTION('',(2.102607264954E-16,-0.946930129495,-0.321439465303)
  );
#236 = ORIENTED_EDGE('',*,*,#237,.T.);
#237 = EDGE_CURVE('',#230,#238,#240,.T.);
#238 = VERTEX_POINT('',#239);
#239 = CARTESIAN_POINT('',(6.883382752676E-15,-31.,80.232050807569));
#240 = LINE('',#241,#242);
#241 = CARTESIAN_POINT('',(6.831283730853E-15,-30.76536686473,
    80.347759065023));
#242 = VECTOR('',#243,1.);
#243 = DIRECTION('',(1.991457535617E-16,-0.896872741533,-0.442288690219)
  );
#244 = ORIENTED_EDGE('',*,*,#245,.T.);
#245 = EDGE_CURVE('',#238,#246,#248,.T.);
#246 = VERTEX_POINT('',#247);
#247 = CARTESIAN_POINT('',(6.931682529747E-15,-31.21752285801,
    80.086706680582));
#248 = LINE('',#249,#250);
#249 = CARTESIAN_POINT('',(6.883382752676E-15,-31.,80.232050807569));
#250 = VECTOR('',#251,1.);
#251 = DIRECTION('',(1.846233415709E-16,-0.831469612303,-0.55557023302)
  );
#252 = ORIENTED_EDGE('',*,*,#253,.T.);
#253 = EDGE_CURVE('',#246,#254,#256,.T.);
#254 = VERTEX_POINT('',#255);
#255 = CARTESIAN_POINT('',(6.975356639488E-15,-31.41421356237,
    79.914213562373));
#256 = LINE('',#257,#258);
#257 = CARTESIAN_POINT('',(6.931682529747E-15,-31.21752285801,
    80.086706680582));
#258 = VECTOR('',#259,1.);
#259 = DIRECTION('',(1.669419730186E-16,-0.751839807479,-0.6593458151));
#260 = ORIENTED_EDGE('',*,*,#261,.T.);
#261 = EDGE_CURVE('',#254,#262,#264,.T.);
#262 = VERTEX_POINT('',#263);
#263 = CARTESIAN_POINT('',(7.013657805773E-15,-31.58670668058,
    79.717522858017));
#264 = LINE('',#265,#266);
#265 = CARTESIAN_POINT('',(6.975356639488E-15,-31.41421356237,
    79.914213562373));
#266 = VECTOR('',#267,1.);
#267 = DIRECTION('',(1.464041810229E-16,-0.6593458151,-0.751839807479));
#268 = ORIENTED_EDGE('',*,*,#269,.T.);
#269 = EDGE_CURVE('',#262,#270,#272,.T.);
#270 = VERTEX_POINT('',#271);
#271 = CARTESIAN_POINT('',(7.045930685028E-15,-31.73205080756,79.5));
#272 = LINE('',#273,#274);
#273 = CARTESIAN_POINT('',(7.013657805773E-15,-31.58670668058,
    79.717522858017));
#274 = VECTOR('',#275,1.);
#275 = DIRECTION('',(1.233613728989E-16,-0.55557023302,-0.831469612303)
  );
#276 = ORIENTED_EDGE('',*,*,#277,.T.);
#277 = EDGE_CURVE('',#270,#278,#280,.T.);
#278 = VERTEX_POINT('',#279);
#279 = CARTESIAN_POINT('',(7.071623079341E-15,-31.84775906502,
    79.26536686473));
#280 = LINE('',#281,#282);
#281 = CARTESIAN_POINT('',(7.045930685028E-15,-31.73205080756,79.5));
#282 = VECTOR('',#283,1.);
#283 = DIRECTION('',(9.820781748249E-17,-0.442288690219,-0.896872741533)
  );
#284 = ORIENTED_EDGE('',*,*,#285,.T.);
#285 = EDGE_CURVE('',#278,#286,#288,.T.);
#286 = VERTEX_POINT('',#287);
#287 = CARTESIAN_POINT('',(7.090295384721E-15,-31.93185165257,
    79.017638090205));
#288 = LINE('',#289,#290);
#289 = CARTESIAN_POINT('',(7.071623079341E-15,-31.84775906502,
    79.26536686473));
#290 = VECTOR('',#291,1.);
#291 = DIRECTION('',(7.137389908055E-17,-0.321439465303,-0.946930129495)
  );
#292 = ORIENTED_EDGE('',*,*,#293,.T.);
#293 = EDGE_CURVE('',#286,#294,#296,.T.);
#294 = VERTEX_POINT('',#295);
#295 = CARTESIAN_POINT('',(7.101628112848E-15,-31.98288972274,
    78.76105238444));
#296 = LINE('',#297,#298);
#297 = CARTESIAN_POINT('',(7.090295384721E-15,-31.93185165257,
    79.017638090205));
#298 = VECTOR('',#299,1.);
#299 = DIRECTION('',(4.331875347677E-17,-0.195090322016,-0.980785280403)
  );
#300 = ORIENTED_EDGE('',*,*,#301,.T.);
#301 = EDGE_CURVE('',#294,#302,#304,.T.);
#302 = VERTEX_POINT('',#303);
#303 = CARTESIAN_POINT('',(7.105427357601E-15,-32.,78.5));
#304 = LINE('',#305,#306);
#305 = CARTESIAN_POINT('',(7.101628112848E-15,-31.98288972274,
    78.76105238444));
#306 = VECTOR('',#307,1.);
#307 = DIRECTION('',(1.452241199077E-17,-6.540312923014E-02,
    -0.997858923239));
#308 = ORIENTED_EDGE('',*,*,#309,.T.);
#309 = EDGE_CURVE('',#302,#310,#312,.T.);
#310 = VERTEX_POINT('',#311);
#311 = CARTESIAN_POINT('',(7.105427357601E-15,-32.,71.5));
#312 = LINE('',#313,#314);
#313 = CARTESIAN_POINT('',(7.105427357601E-15,-32.,78.5));
#314 = VECTOR('',#315,1.);
#315 = DIRECTION('',(0.,2.22044604925E-16,-1.));
#316 = ORIENTED_EDGE('',*,*,#317,.T.);
#317 = EDGE_CURVE('',#310,#318,#320,.T.);
#318 = VERTEX_POINT('',#319);
#319 = CARTESIAN_POINT('',(7.101628112848E-15,-31.98288972274,
    71.23894761556));
#320 = LINE('',#321,#322);
#321 = CARTESIAN_POINT('',(7.105427357601E-15,-32.,71.5));
#322 = VECTOR('',#323,1.);
#323 = DIRECTION('',(-1.452241199077E-17,6.540312923014E-02,
    -0.997858923239));
#324 = ORIENTED_EDGE('',*,*,#325,.T.);
#325 = EDGE_CURVE('',#318,#326,#328,.T.);
#326 = VERTEX_POINT('',#327);
#327 = CARTESIAN_POINT('',(7.090295384721E-15,-31.93185165257,
    70.982361909795));
#328 = LINE('',#329,#330);
#329 = CARTESIAN_POINT('',(7.101628112848E-15,-31.98288972274,
    71.23894761556));
#330 = VECTOR('',#331,1.);
#331 = DIRECTION('',(-4.331875347677E-17,0.195090322016,-0.980785280403)
  );
#332 = ORIENTED_EDGE('',*,*,#333,.T.);
#333 = EDGE_CURVE('',#326,#334,#336,.T.);
#334 = VERTEX_POINT('',#335);
#335 = CARTESIAN_POINT('',(7.071623079341E-15,-31.84775906502,
    70.73463313527));
#336 = LINE('',#337,#338);
#337 = CARTESIAN_POINT('',(7.090295384721E-15,-31.93185165257,
    70.982361909795));
#338 = VECTOR('',#339,1.);
#339 = DIRECTION('',(-7.137389908055E-17,0.321439465303,-0.946930129495)
  );
#340 = ORIENTED_EDGE('',*,*,#341,.T.);
#341 = EDGE_CURVE('',#334,#342,#344,.T.);
#342 = VERTEX_POINT('',#343);
#343 = CARTESIAN_POINT('',(7.045930685028E-15,-31.73205080756,70.5));
#344 = LINE('',#345,#346);
#345 = CARTESIAN_POINT('',(7.071623079341E-15,-31.84775906502,
    70.73463313527));
#346 = VECTOR('',#347,1.);
#347 = DIRECTION('',(-9.820781748249E-17,0.442288690219,-0.896872741533)
  );
#348 = ORIENTED_EDGE('',*,*,#349,.T.);
#349 = EDGE_CURVE('',#342,#350,#352,.T.);
#350 = VERTEX_POINT('',#351);
#351 = CARTESIAN_POINT('',(7.013657805773E-15,-31.58670668058,
    70.282477141983));
#352 = LINE('',#353,#354);
#353 = CARTESIAN_POINT('',(7.045930685028E-15,-31.73205080756,70.5));
#354 = VECTOR('',#355,1.);
#355 = DIRECTION('',(-1.233613728989E-16,0.55557023302,-0.831469612303)
  );
#356 = ORIENTED_EDGE('',*,*,#357,.T.);
#357 = EDGE_CURVE('',#350,#358,#360,.T.);
#358 = VERTEX_POINT('',#359);
#359 = CARTESIAN_POINT('',(6.975356639488E-15,-31.41421356237,
    70.085786437627));
#360 = LINE('',#361,#362);
#361 = CARTESIAN_POINT('',(7.013657805773E-15,-31.58670668058,
    70.282477141983));
#362 = VECTOR('',#363,1.);
#363 = DIRECTION('',(-1.464041810229E-16,0.6593458151,-0.751839807479));
#364 = ORIENTED_EDGE('',*,*,#365,.T.);
#365 = EDGE_CURVE('',#358,#366,#368,.T.);
#366 = VERTEX_POINT('',#367);
#367 = CARTESIAN_POINT('',(6.931682529747E-15,-31.21752285801,
    69.913293319418));
#368 = LINE('',#369,#370);
#369 = CARTESIAN_POINT('',(6.975356639488E-15,-31.41421356237,
    70.085786437627));
#370 = VECTOR('',#371,1.);
#371 = DIRECTION('',(-1.669419730186E-16,0.751839807479,-0.6593458151));
#372 = ORIENTED_EDGE('',*,*,#373,.T.);
#373 = EDGE_CURVE('',#366,#374,#376,.T.);
#374 = VERTEX_POINT('',#375);
#375 = CARTESIAN_POINT('',(6.883382752676E-15,-31.,69.767949192431));
#376 = LINE('',#377,#378);
#377 = CARTESIAN_POINT('',(6.931682529747E-15,-31.21752285801,
    69.913293319418));
#378 = VECTOR('',#379,1.);
#379 = DIRECTION('',(-1.846233415709E-16,0.831469612303,-0.55557023302)
  );
#380 = ORIENTED_EDGE('',*,*,#381,.T.);
#381 = EDGE_CURVE('',#374,#382,#384,.T.);
#382 = VERTEX_POINT('',#383);
#383 = CARTESIAN_POINT('',(6.831283730853E-15,-30.76536686473,
    69.652240934977));
#384 = LINE('',#385,#386);
#385 = CARTESIAN_POINT('',(6.883382752676E-15,-31.,69.767949192431));
#386 = VECTOR('',#387,1.);
#387 = DIRECTION('',(-1.991457535617E-16,0.896872741533,-0.442288690219)
  );
#388 = ORIENTED_EDGE('',*,*,#389,.T.);
#389 = EDGE_CURVE('',#382,#390,#392,.T.);
#390 = VERTEX_POINT('',#391);
#391 = CARTESIAN_POINT('',(6.776276892985E-15,-30.5176380902,
    69.568148347422));
#392 = LINE('',#393,#394);
#393 = CARTESIAN_POINT('',(6.831283730853E-15,-30.76536686473,
    69.652240934977));
#394 = VECTOR('',#395,1.);
#395 = DIRECTION('',(-2.102607264954E-16,0.946930129495,-0.321439465303)
  );
#396 = ORIENTED_EDGE('',*,*,#397,.T.);
#397 = EDGE_CURVE('',#390,#398,#400,.T.);
#398 = VERTEX_POINT('',#399);
#399 = CARTESIAN_POINT('',(6.719303421319E-15,-30.26105238444,
    69.517110277252));
#400 = LINE('',#401,#402);
#401 = CARTESIAN_POINT('',(6.776276892985E-15,-30.5176380902,
    69.568148347422));
#402 = VECTOR('',#403,1.);
#403 = DIRECTION('',(-2.177780801034E-16,0.980785280403,-0.195090322016)
  );
#404 = ORIENTED_EDGE('',*,*,#405,.T.);
#405 = EDGE_CURVE('',#398,#406,#408,.T.);
#406 = VERTEX_POINT('',#407);
#407 = CARTESIAN_POINT('',(6.661338147751E-15,-30.,69.5));
#408 = LINE('',#409,#410);
#409 = CARTESIAN_POINT('',(6.719303421319E-15,-30.26105238444,
    69.517110277252));
#410 = VECTOR('',#411,1.);
#411 = DIRECTION('',(-2.215691903814E-16,0.997858923239,
    -6.540312923017E-02));
#412 = ORIENTED_EDGE('',*,*,#413,.T.);
#413 = EDGE_CURVE('',#406,#414,#416,.T.);
#414 = VERTEX_POINT('',#415);
#415 = CARTESIAN_POINT('',(3.10862446895E-15,-14.,69.5));
#416 = LINE('',#417,#418);
#417 = CARTESIAN_POINT('',(6.661338147751E-15,-30.,69.5));
#418 = VECTOR('',#419,1.);
#419 = DIRECTION('',(-2.22044604925E-16,1.,0.));
#420 = ORIENTED_EDGE('',*,*,#421,.T.);
#421 = EDGE_CURVE('',#414,#422,#424,.T.);
#422 = VERTEX_POINT('',#423);
#423 = CARTESIAN_POINT('',(3.050659195383E-15,-13.73894761556,
    69.517110277252));
#424 = LINE('',#425,#426);
#425 = CARTESIAN_POINT('',(3.10862446895E-15,-14.,69.5));
#426 = VECTOR('',#427,1.);
#427 = DIRECTION('',(-2.215691903814E-16,0.997858923239,
    6.540312923017E-02));
#428 = ORIENTED_EDGE('',*,*,#429,.T.);
#429 = EDGE_CURVE('',#422,#430,#432,.T.);
#430 = VERTEX_POINT('',#431);
#431 = CARTESIAN_POINT('',(2.993685723717E-15,-13.48236190979,
    69.568148347422));
#432 = LINE('',#433,#434);
#433 = CARTESIAN_POINT('',(3.050659195383E-15,-13.73894761556,
    69.517110277252));
#434 = VECTOR('',#435,1.);
#435 = DIRECTION('',(-2.177780801034E-16,0.980785280403,0.195090322016)
  );
#436 = ORIENTED_EDGE('',*,*,#437,.T.);
#437 = EDGE_CURVE('',#430,#438,#440,.T.);
#438 = VERTEX_POINT('',#439);
#439 = CARTESIAN_POINT('',(2.938678885849E-15,-13.23463313527,
    69.652240934977));
#440 = LINE('',#441,#442);
#441 = CARTESIAN_POINT('',(2.993685723717E-15,-13.48236190979,
    69.568148347422));
#442 = VECTOR('',#443,1.);
#443 = DIRECTION('',(-2.102607264954E-16,0.946930129495,0.321439465303)
  );
#444 = ORIENTED_EDGE('',*,*,#445,.T.);
#445 = EDGE_CURVE('',#438,#446,#448,.T.);
#446 = VERTEX_POINT('',#447);
#447 = CARTESIAN_POINT('',(2.886579864025E-15,-13.,69.767949192431));
#448 = LINE('',#449,#450);
#449 = CARTESIAN_POINT('',(2.938678885849E-15,-13.23463313527,
    69.652240934977));
#450 = VECTOR('',#451,1.);
#451 = DIRECTION('',(-1.991457535617E-16,0.896872741533,0.442288690219)
  );
#452 = ORIENTED_EDGE('',*,*,#453,.T.);
#453 = EDGE_CURVE('',#446,#454,#456,.T.);
#454 = VERTEX_POINT('',#455);
#455 = CARTESIAN_POINT('',(2.838280086955E-15,-12.78247714198,
    69.913293319418));
#456 = LINE('',#457,#458);
#457 = CARTESIAN_POINT('',(2.886579864025E-15,-13.,69.767949192431));
#458 = VECTOR('',#459,1.);
#459 = DIRECTION('',(-1.846233415709E-16,0.831469612303,0.55557023302));
#460 = ORIENTED_EDGE('',*,*,#461,.T.);
#461 = EDGE_CURVE('',#454,#462,#464,.T.);
#462 = VERTEX_POINT('',#463);
#463 = CARTESIAN_POINT('',(2.794605977214E-15,-12.58578643762,
    70.085786437627));
#464 = LINE('',#465,#466);
#465 = CARTESIAN_POINT('',(2.838280086955E-15,-12.78247714198,
    69.913293319418));
#466 = VECTOR('',#467,1.);
#467 = DIRECTION('',(-1.669419730186E-16,0.751839807479,0.6593458151));
#468 = ORIENTED_EDGE('',*,*,#469,.T.);
#469 = EDGE_CURVE('',#462,#470,#472,.T.);
#470 = VERTEX_POINT('',#471);
#471 = CARTESIAN_POINT('',(2.756304810929E-15,-12.41329331941,
    70.282477141983));
#472 = LINE('',#473,#474);
#473 = CARTESIAN_POINT('',(2.794605977214E-15,-12.58578643762,
    70.085786437627));
#474 = VECTOR('',#475,1.);
#475 = DIRECTION('',(-1.464041810229E-16,0.6593458151,0.751839807479));
#476 = ORIENTED_EDGE('',*,*,#477,.T.);
#477 = EDGE_CURVE('',#470,#478,#480,.T.);
#478 = VERTEX_POINT('',#479);
#479 = CARTESIAN_POINT('',(2.724031931674E-15,-12.26794919243,70.5));
#480 = LINE('',#481,#482);
#481 = CARTESIAN_POINT('',(2.756304810929E-15,-12.41329331941,
    70.282477141983));
#482 = VECTOR('',#483,1.);
#483 = DIRECTION('',(-1.233613728989E-16,0.55557023302,0.831469612303));
#484 = ORIENTED_EDGE('',*,*,#485,.T.);
#485 = EDGE_CURVE('',#478,#486,#488,.T.);
#486 = VERTEX_POINT('',#487);
#487 = CARTESIAN_POINT('',(2.698339537361E-15,-12.15224093497,
    70.73463313527));
#488 = LINE('',#489,#490);
#489 = CARTESIAN_POINT('',(2.724031931674E-15,-12.26794919243,70.5));
#490 = VECTOR('',#491,1.);
#491 = DIRECTION('',(-9.820781748249E-17,0.442288690219,0.896872741533)
  );
#492 = ORIENTED_EDGE('',*,*,#493,.T.);
#493 = EDGE_CURVE('',#486,#494,#496,.T.);
#494 = VERTEX_POINT('',#495);
#495 = CARTESIAN_POINT('',(2.67966723198E-15,-12.06814834742,
    70.982361909795));
#496 = LINE('',#497,#498);
#497 = CARTESIAN_POINT('',(2.698339537361E-15,-12.15224093497,
    70.73463313527));
#498 = VECTOR('',#499,1.);
#499 = DIRECTION('',(-7.137389908055E-17,0.321439465303,0.946930129495)
  );
#500 = ORIENTED_EDGE('',*,*,#501,.T.);
#501 = EDGE_CURVE('',#494,#502,#504,.T.);
#502 = VERTEX_POINT('',#503);
#503 = CARTESIAN_POINT('',(2.668334503853E-15,-12.01711027725,
    71.23894761556));
#504 = LINE('',#505,#506);
#505 = CARTESIAN_POINT('',(2.67966723198E-15,-12.06814834742,
    70.982361909795));
#506 = VECTOR('',#507,1.);
#507 = DIRECTION('',(-4.331875347677E-17,0.195090322016,0.980785280403)
  );
#508 = ORIENTED_EDGE('',*,*,#509,.T.);
#509 = EDGE_CURVE('',#502,#62,#510,.T.);
#510 = LINE('',#511,#512);
#511 = CARTESIAN_POINT('',(2.668334503853E-15,-12.01711027725,
    71.23894761556));
#512 = VECTOR('',#513,1.);
#513 = DIRECTION('',(-1.452241199077E-17,6.540312923014E-02,
    0.997858923239));
#514 = ORIENTED_EDGE('',*,*,#78,.T.);
#515 = FACE_BOUND('',#516,.F.);
#516 = EDGE_LOOP('',(#517));
#517 = ORIENTED_EDGE('',*,*,#518,.F.);
#518 = EDGE_CURVE('',#519,#519,#521,.T.);
#519 = VERTEX_POINT('',#520);
#520 = CARTESIAN_POINT('',(6.661338147751E-15,-30.,73.65));
#521 = CIRCLE('',#522,1.15);
#522 = AXIS2_PLACEMENT_3D('',#523,#524,#525);
#523 = CARTESIAN_POINT('',(4.218847493576E-15,-30.,72.5));
#524 = DIRECTION('',(1.,0.,0.));
#525 = DIRECTION('',(-0.,0.,1.));
#526 = FACE_BOUND('',#527,.F.);
#527 = EDGE_LOOP('',(#528));
#528 = ORIENTED_EDGE('',*,*,#529,.F.);
#529 = EDGE_CURVE('',#530,#530,#532,.T.);
#530 = VERTEX_POINT('',#531);
#531 = CARTESIAN_POINT('',(3.10862446895E-15,-14.,73.65));
#532 = CIRCLE('',#533,1.15);
#533 = AXIS2_PLACEMENT_3D('',#534,#535,#536);
#534 = CARTESIAN_POINT('',(4.218847493576E-15,-14.,72.5));
#535 = DIRECTION('',(1.,0.,0.));
#536 = DIRECTION('',(-0.,0.,1.));
#537 = FACE_BOUND('',#538,.F.);
#538 = EDGE_LOOP('',(#539));
#539 = ORIENTED_EDGE('',*,*,#540,.F.);
#540 = EDGE_CURVE('',#541,#541,#543,.T.);
#541 = VERTEX_POINT('',#542);
#542 = CARTESIAN_POINT('',(6.661338147751E-15,-30.,78.65));
#543 = CIRCLE('',#544,1.15);
#544 = AXIS2_PLACEMENT_3D('',#545,#546,#547);
#545 = CARTESIAN_POINT('',(5.329070518201E-15,-30.,77.5));
#546 = DIRECTION('',(1.,0.,0.));
#547 = DIRECTION('',(-0.,0.,1.));
#548 = FACE_BOUND('',#549,.F.);
#549 = EDGE_LOOP('',(#550));
#550 = ORIENTED_EDGE('',*,*,#551,.F.);
#551 = EDGE_CURVE('',#552,#552,#554,.T.);
#552 = VERTEX_POINT('',#553);
#553 = CARTESIAN_POINT('',(3.10862446895E-15,-14.,78.65));
#554 = CIRCLE('',#555,1.15);
#555 = AXIS2_PLACEMENT_3D('',#556,#557,#558);
#556 = CARTESIAN_POINT('',(5.329070518201E-15,-14.,77.5));
#557 = DIRECTION('',(1.,0.,0.));
#558 = DIRECTION('',(-0.,0.,1.));
#559 = PLANE('',#560);
#560 = AXIS2_PLACEMENT_3D('',#561,#562,#563);
#561 = CARTESIAN_POINT('',(4.884981308351E-15,-22.,75.));
#562 = DIRECTION('',(1.,0.,-2.22044604925E-16));
#563 = DIRECTION('',(-2.22044604925E-16,1.,0.));
#564 = ADVANCED_FACE('',(#565,#960,#971,#982,#993),#1004,.T.);
#565 = FACE_BOUND('',#566,.T.);
#566 = EDGE_LOOP('',(#567,#568,#569,#577,#585,#593,#601,#609,#617,#625,
    #633,#641,#649,#657,#665,#673,#681,#689,#697,#705,#713,#721,#729,
    #737,#745,#753,#761,#769,#777,#785,#793,#801,#809,#817,#825,#833,
    #841,#849,#857,#865,#873,#881,#889,#897,#905,#913,#921,#929,#937,
    #945,#953,#959));
#567 = ORIENTED_EDGE('',*,*,#31,.T.);
#568 = ORIENTED_EDGE('',*,*,#93,.T.);
#569 = ORIENTED_EDGE('',*,*,#570,.T.);
#570 = EDGE_CURVE('',#94,#571,#573,.T.);
#571 = VERTEX_POINT('',#572);
#572 = CARTESIAN_POINT('',(2.,-12.15224093497,79.26536686473));
#573 = LINE('',#574,#575);
#574 = CARTESIAN_POINT('',(2.,-12.06814834742,79.017638090205));
#575 = VECTOR('',#576,1.);
#576 = DIRECTION('',(7.137389908055E-17,-0.321439465303,0.946930129495)
  );
#577 = ORIENTED_EDGE('',*,*,#578,.T.);
#578 = EDGE_CURVE('',#571,#579,#581,.T.);
#579 = VERTEX_POINT('',#580);
#580 = CARTESIAN_POINT('',(2.,-12.26794919243,79.5));
#581 = LINE('',#582,#583);
#582 = CARTESIAN_POINT('',(2.,-12.15224093497,79.26536686473));
#583 = VECTOR('',#584,1.);
#584 = DIRECTION('',(9.820781748249E-17,-0.442288690219,0.896872741533)
  );
#585 = ORIENTED_EDGE('',*,*,#586,.T.);
#586 = EDGE_CURVE('',#579,#587,#589,.T.);
#587 = VERTEX_POINT('',#588);
#588 = CARTESIAN_POINT('',(2.,-12.41329331941,79.717522858017));
#589 = LINE('',#590,#591);
#590 = CARTESIAN_POINT('',(2.,-12.26794919243,79.5));
#591 = VECTOR('',#592,1.);
#592 = DIRECTION('',(1.233613728989E-16,-0.55557023302,0.831469612303));
#593 = ORIENTED_EDGE('',*,*,#594,.T.);
#594 = EDGE_CURVE('',#587,#595,#597,.T.);
#595 = VERTEX_POINT('',#596);
#596 = CARTESIAN_POINT('',(2.,-12.58578643762,79.914213562373));
#597 = LINE('',#598,#599);
#598 = CARTESIAN_POINT('',(2.,-12.41329331941,79.717522858017));
#599 = VECTOR('',#600,1.);
#600 = DIRECTION('',(1.464041810229E-16,-0.6593458151,0.751839807479));
#601 = ORIENTED_EDGE('',*,*,#602,.T.);
#602 = EDGE_CURVE('',#595,#603,#605,.T.);
#603 = VERTEX_POINT('',#604);
#604 = CARTESIAN_POINT('',(2.,-12.78247714198,80.086706680582));
#605 = LINE('',#606,#607);
#606 = CARTESIAN_POINT('',(2.,-12.58578643762,79.914213562373));
#607 = VECTOR('',#608,1.);
#608 = DIRECTION('',(1.669419730186E-16,-0.751839807479,0.6593458151));
#609 = ORIENTED_EDGE('',*,*,#610,.T.);
#610 = EDGE_CURVE('',#603,#611,#613,.T.);
#611 = VERTEX_POINT('',#612);
#612 = CARTESIAN_POINT('',(2.,-13.,80.232050807569));
#613 = LINE('',#614,#615);
#614 = CARTESIAN_POINT('',(2.,-12.78247714198,80.086706680582));
#615 = VECTOR('',#616,1.);
#616 = DIRECTION('',(1.846233415709E-16,-0.831469612303,0.55557023302));
#617 = ORIENTED_EDGE('',*,*,#618,.T.);
#618 = EDGE_CURVE('',#611,#619,#621,.T.);
#619 = VERTEX_POINT('',#620);
#620 = CARTESIAN_POINT('',(2.,-13.23463313527,80.347759065023));
#621 = LINE('',#622,#623);
#622 = CARTESIAN_POINT('',(2.,-13.,80.232050807569));
#623 = VECTOR('',#624,1.);
#624 = DIRECTION('',(1.991457535617E-16,-0.896872741533,0.442288690219)
  );
#625 = ORIENTED_EDGE('',*,*,#626,.T.);
#626 = EDGE_CURVE('',#619,#627,#629,.T.);
#627 = VERTEX_POINT('',#628);
#628 = CARTESIAN_POINT('',(2.,-13.48236190979,80.431851652578));
#629 = LINE('',#630,#631);
#630 = CARTESIAN_POINT('',(2.,-13.23463313527,80.347759065023));
#631 = VECTOR('',#632,1.);
#632 = DIRECTION('',(2.102607264954E-16,-0.946930129495,0.321439465303)
  );
#633 = ORIENTED_EDGE('',*,*,#634,.T.);
#634 = EDGE_CURVE('',#627,#635,#637,.T.);
#635 = VERTEX_POINT('',#636);
#636 = CARTESIAN_POINT('',(2.,-13.73894761556,80.482889722748));
#637 = LINE('',#638,#639);
#638 = CARTESIAN_POINT('',(2.,-13.48236190979,80.431851652578));
#639 = VECTOR('',#640,1.);
#640 = DIRECTION('',(2.177780801034E-16,-0.980785280403,0.195090322016)
  );
#641 = ORIENTED_EDGE('',*,*,#642,.T.);
#642 = EDGE_CURVE('',#635,#643,#645,.T.);
#643 = VERTEX_POINT('',#644);
#644 = CARTESIAN_POINT('',(2.,-14.,80.5));
#645 = LINE('',#646,#647);
#646 = CARTESIAN_POINT('',(2.,-13.73894761556,80.482889722748));
#647 = VECTOR('',#648,1.);
#648 = DIRECTION('',(2.215691903814E-16,-0.997858923239,
    6.540312923017E-02));
#649 = ORIENTED_EDGE('',*,*,#650,.T.);
#650 = EDGE_CURVE('',#643,#651,#653,.T.);
#651 = VERTEX_POINT('',#652);
#652 = CARTESIAN_POINT('',(2.,-30.,80.5));
#653 = LINE('',#654,#655);
#654 = CARTESIAN_POINT('',(2.,-14.,80.5));
#655 = VECTOR('',#656,1.);
#656 = DIRECTION('',(2.22044604925E-16,-1.,0.));
#657 = ORIENTED_EDGE('',*,*,#658,.T.);
#658 = EDGE_CURVE('',#651,#659,#661,.T.);
#659 = VERTEX_POINT('',#660);
#660 = CARTESIAN_POINT('',(2.,-30.26105238444,80.482889722748));
#661 = LINE('',#662,#663);
#662 = CARTESIAN_POINT('',(2.,-30.,80.5));
#663 = VECTOR('',#664,1.);
#664 = DIRECTION('',(2.215691903814E-16,-0.997858923239,
    -6.540312923017E-02));
#665 = ORIENTED_EDGE('',*,*,#666,.T.);
#666 = EDGE_CURVE('',#659,#667,#669,.T.);
#667 = VERTEX_POINT('',#668);
#668 = CARTESIAN_POINT('',(2.,-30.5176380902,80.431851652578));
#669 = LINE('',#670,#671);
#670 = CARTESIAN_POINT('',(2.,-30.26105238444,80.482889722748));
#671 = VECTOR('',#672,1.);
#672 = DIRECTION('',(2.177780801034E-16,-0.980785280403,-0.195090322016)
  );
#673 = ORIENTED_EDGE('',*,*,#674,.T.);
#674 = EDGE_CURVE('',#667,#675,#677,.T.);
#675 = VERTEX_POINT('',#676);
#676 = CARTESIAN_POINT('',(2.,-30.76536686473,80.347759065023));
#677 = LINE('',#678,#679);
#678 = CARTESIAN_POINT('',(2.,-30.5176380902,80.431851652578));
#679 = VECTOR('',#680,1.);
#680 = DIRECTION('',(2.102607264954E-16,-0.946930129495,-0.321439465303)
  );
#681 = ORIENTED_EDGE('',*,*,#682,.T.);
#682 = EDGE_CURVE('',#675,#683,#685,.T.);
#683 = VERTEX_POINT('',#684);
#684 = CARTESIAN_POINT('',(2.,-31.,80.232050807569));
#685 = LINE('',#686,#687);
#686 = CARTESIAN_POINT('',(2.,-30.76536686473,80.347759065023));
#687 = VECTOR('',#688,1.);
#688 = DIRECTION('',(1.991457535617E-16,-0.896872741533,-0.442288690219)
  );
#689 = ORIENTED_EDGE('',*,*,#690,.T.);
#690 = EDGE_CURVE('',#683,#691,#693,.T.);
#691 = VERTEX_POINT('',#692);
#692 = CARTESIAN_POINT('',(2.,-31.21752285801,80.086706680582));
#693 = LINE('',#694,#695);
#694 = CARTESIAN_POINT('',(2.,-31.,80.232050807569));
#695 = VECTOR('',#696,1.);
#696 = DIRECTION('',(1.846233415709E-16,-0.831469612303,-0.55557023302)
  );
#697 = ORIENTED_EDGE('',*,*,#698,.T.);
#698 = EDGE_CURVE('',#691,#699,#701,.T.);
#699 = VERTEX_POINT('',#700);
#700 = CARTESIAN_POINT('',(2.,-31.41421356237,79.914213562373));
#701 = LINE('',#702,#703);
#702 = CARTESIAN_POINT('',(2.,-31.21752285801,80.086706680582));
#703 = VECTOR('',#704,1.);
#704 = DIRECTION('',(1.669419730186E-16,-0.751839807479,-0.6593458151));
#705 = ORIENTED_EDGE('',*,*,#706,.T.);
#706 = EDGE_CURVE('',#699,#707,#709,.T.);
#707 = VERTEX_POINT('',#708);
#708 = CARTESIAN_POINT('',(2.,-31.58670668058,79.717522858017));
#709 = LINE('',#710,#711);
#710 = CARTESIAN_POINT('',(2.,-31.41421356237,79.914213562373));
#711 = VECTOR('',#712,1.);
#712 = DIRECTION('',(1.464041810229E-16,-0.6593458151,-0.751839807479));
#713 = ORIENTED_EDGE('',*,*,#714,.T.);
#714 = EDGE_CURVE('',#707,#715,#717,.T.);
#715 = VERTEX_POINT('',#716);
#716 = CARTESIAN_POINT('',(2.,-31.73205080756,79.5));
#717 = LINE('',#718,#719);
#718 = CARTESIAN_POINT('',(2.,-31.58670668058,79.717522858017));
#719 = VECTOR('',#720,1.);
#720 = DIRECTION('',(1.233613728989E-16,-0.55557023302,-0.831469612303)
  );
#721 = ORIENTED_EDGE('',*,*,#722,.T.);
#722 = EDGE_CURVE('',#715,#723,#725,.T.);
#723 = VERTEX_POINT('',#724);
#724 = CARTESIAN_POINT('',(2.,-31.84775906502,79.26536686473));
#725 = LINE('',#726,#727);
#726 = CARTESIAN_POINT('',(2.,-31.73205080756,79.5));
#727 = VECTOR('',#728,1.);
#728 = DIRECTION('',(9.820781748249E-17,-0.442288690219,-0.896872741533)
  );
#729 = ORIENTED_EDGE('',*,*,#730,.T.);
#730 = EDGE_CURVE('',#723,#731,#733,.T.);
#731 = VERTEX_POINT('',#732);
#732 = CARTESIAN_POINT('',(2.,-31.93185165257,79.017638090205));
#733 = LINE('',#734,#735);
#734 = CARTESIAN_POINT('',(2.,-31.84775906502,79.26536686473));
#735 = VECTOR('',#736,1.);
#736 = DIRECTION('',(7.137389908055E-17,-0.321439465303,-0.946930129495)
  );
#737 = ORIENTED_EDGE('',*,*,#738,.T.);
#738 = EDGE_CURVE('',#731,#739,#741,.T.);
#739 = VERTEX_POINT('',#740);
#740 = CARTESIAN_POINT('',(2.,-31.98288972274,78.76105238444));
#741 = LINE('',#742,#743);
#742 = CARTESIAN_POINT('',(2.,-31.93185165257,79.017638090205));
#743 = VECTOR('',#744,1.);
#744 = DIRECTION('',(4.331875347677E-17,-0.195090322016,-0.980785280403)
  );
#745 = ORIENTED_EDGE('',*,*,#746,.T.);
#746 = EDGE_CURVE('',#739,#747,#749,.T.);
#747 = VERTEX_POINT('',#748);
#748 = CARTESIAN_POINT('',(2.,-32.,78.5));
#749 = LINE('',#750,#751);
#750 = CARTESIAN_POINT('',(2.,-31.98288972274,78.76105238444));
#751 = VECTOR('',#752,1.);
#752 = DIRECTION('',(1.452241199077E-17,-6.540312923014E-02,
    -0.997858923239));
#753 = ORIENTED_EDGE('',*,*,#754,.T.);
#754 = EDGE_CURVE('',#747,#755,#757,.T.);
#755 = VERTEX_POINT('',#756);
#756 = CARTESIAN_POINT('',(2.,-32.,71.5));
#757 = LINE('',#758,#759);
#758 = CARTESIAN_POINT('',(2.,-32.,78.5));
#759 = VECTOR('',#760,1.);
#760 = DIRECTION('',(0.,2.22044604925E-16,-1.));
#761 = ORIENTED_EDGE('',*,*,#762,.T.);
#762 = EDGE_CURVE('',#755,#763,#765,.T.);
#763 = VERTEX_POINT('',#764);
#764 = CARTESIAN_POINT('',(2.,-31.98288972274,71.23894761556));
#765 = LINE('',#766,#767);
#766 = CARTESIAN_POINT('',(2.,-32.,71.5));
#767 = VECTOR('',#768,1.);
#768 = DIRECTION('',(-1.452241199077E-17,6.540312923014E-02,
    -0.997858923239));
#769 = ORIENTED_EDGE('',*,*,#770,.T.);
#770 = EDGE_CURVE('',#763,#771,#773,.T.);
#771 = VERTEX_POINT('',#772);
#772 = CARTESIAN_POINT('',(2.,-31.93185165257,70.982361909795));
#773 = LINE('',#774,#775);
#774 = CARTESIAN_POINT('',(2.,-31.98288972274,71.23894761556));
#775 = VECTOR('',#776,1.);
#776 = DIRECTION('',(-4.331875347677E-17,0.195090322016,-0.980785280403)
  );
#777 = ORIENTED_EDGE('',*,*,#778,.T.);
#778 = EDGE_CURVE('',#771,#779,#781,.T.);
#779 = VERTEX_POINT('',#780);
#780 = CARTESIAN_POINT('',(2.,-31.84775906502,70.73463313527));
#781 = LINE('',#782,#783);
#782 = CARTESIAN_POINT('',(2.,-31.93185165257,70.982361909795));
#783 = VECTOR('',#784,1.);
#784 = DIRECTION('',(-7.137389908055E-17,0.321439465303,-0.946930129495)
  );
#785 = ORIENTED_EDGE('',*,*,#786,.T.);
#786 = EDGE_CURVE('',#779,#787,#789,.T.);
#787 = VERTEX_POINT('',#788);
#788 = CARTESIAN_POINT('',(2.,-31.73205080756,70.5));
#789 = LINE('',#790,#791);
#790 = CARTESIAN_POINT('',(2.,-31.84775906502,70.73463313527));
#791 = VECTOR('',#792,1.);
#792 = DIRECTION('',(-9.820781748249E-17,0.442288690219,-0.896872741533)
  );
#793 = ORIENTED_EDGE('',*,*,#794,.T.);
#794 = EDGE_CURVE('',#787,#795,#797,.T.);
#795 = VERTEX_POINT('',#796);
#796 = CARTESIAN_POINT('',(2.,-31.58670668058,70.282477141983));
#797 = LINE('',#798,#799);
#798 = CARTESIAN_POINT('',(2.,-31.73205080756,70.5));
#799 = VECTOR('',#800,1.);
#800 = DIRECTION('',(-1.233613728989E-16,0.55557023302,-0.831469612303)
  );
#801 = ORIENTED_EDGE('',*,*,#802,.T.);
#802 = EDGE_CURVE('',#795,#803,#805,.T.);
#803 = VERTEX_POINT('',#804);
#804 = CARTESIAN_POINT('',(2.,-31.41421356237,70.085786437627));
#805 = LINE('',#806,#807);
#806 = CARTESIAN_POINT('',(2.,-31.58670668058,70.282477141983));
#807 = VECTOR('',#808,1.);
#808 = DIRECTION('',(-1.464041810229E-16,0.6593458151,-0.751839807479));
#809 = ORIENTED_EDGE('',*,*,#810,.T.);
#810 = EDGE_CURVE('',#803,#811,#813,.T.);
#811 = VERTEX_POINT('',#812);
#812 = CARTESIAN_POINT('',(2.,-31.21752285801,69.913293319418));
#813 = LINE('',#814,#815);
#814 = CARTESIAN_POINT('',(2.,-31.41421356237,70.085786437627));
#815 = VECTOR('',#816,1.);
#816 = DIRECTION('',(-1.669419730186E-16,0.751839807479,-0.6593458151));
#817 = ORIENTED_EDGE('',*,*,#818,.T.);
#818 = EDGE_CURVE('',#811,#819,#821,.T.);
#819 = VERTEX_POINT('',#820);
#820 = CARTESIAN_POINT('',(2.,-31.,69.767949192431));
#821 = LINE('',#822,#823);
#822 = CARTESIAN_POINT('',(2.,-31.21752285801,69.913293319418));
#823 = VECTOR('',#824,1.);
#824 = DIRECTION('',(-1.846233415709E-16,0.831469612303,-0.55557023302)
  );
#825 = ORIENTED_EDGE('',*,*,#826,.T.);
#826 = EDGE_CURVE('',#819,#827,#829,.T.);
#827 = VERTEX_POINT('',#828);
#828 = CARTESIAN_POINT('',(2.,-30.76536686473,69.652240934977));
#829 = LINE('',#830,#831);
#830 = CARTESIAN_POINT('',(2.,-31.,69.767949192431));
#831 = VECTOR('',#832,1.);
#832 = DIRECTION('',(-1.991457535617E-16,0.896872741533,-0.442288690219)
  );
#833 = ORIENTED_EDGE('',*,*,#834,.T.);
#834 = EDGE_CURVE('',#827,#835,#837,.T.);
#835 = VERTEX_POINT('',#836);
#836 = CARTESIAN_POINT('',(2.,-30.5176380902,69.568148347422));
#837 = LINE('',#838,#839);
#838 = CARTESIAN_POINT('',(2.,-30.76536686473,69.652240934977));
#839 = VECTOR('',#840,1.);
#840 = DIRECTION('',(-2.102607264954E-16,0.946930129495,-0.321439465303)
  );
#841 = ORIENTED_EDGE('',*,*,#842,.T.);
#842 = EDGE_CURVE('',#835,#843,#845,.T.);
#843 = VERTEX_POINT('',#844);
#844 = CARTESIAN_POINT('',(2.,-30.26105238444,69.517110277252));
#845 = LINE('',#846,#847);
#846 = CARTESIAN_POINT('',(2.,-30.5176380902,69.568148347422));
#847 = VECTOR('',#848,1.);
#848 = DIRECTION('',(-2.177780801034E-16,0.980785280403,-0.195090322016)
  );
#849 = ORIENTED_EDGE('',*,*,#850,.T.);
#850 = EDGE_CURVE('',#843,#851,#853,.T.);
#851 = VERTEX_POINT('',#852);
#852 = CARTESIAN_POINT('',(2.,-30.,69.5));
#853 = LINE('',#854,#855);
#854 = CARTESIAN_POINT('',(2.,-30.26105238444,69.517110277252));
#855 = VECTOR('',#856,1.);
#856 = DIRECTION('',(-2.215691903814E-16,0.997858923239,
    -6.540312923017E-02));
#857 = ORIENTED_EDGE('',*,*,#858,.T.);
#858 = EDGE_CURVE('',#851,#859,#861,.T.);
#859 = VERTEX_POINT('',#860);
#860 = CARTESIAN_POINT('',(2.,-14.,69.5));
#861 = LINE('',#862,#863);
#862 = CARTESIAN_POINT('',(2.,-30.,69.5));
#863 = VECTOR('',#864,1.);
#864 = DIRECTION('',(-2.22044604925E-16,1.,0.));
#865 = ORIENTED_EDGE('',*,*,#866,.T.);
#866 = EDGE_CURVE('',#859,#867,#869,.T.);
#867 = VERTEX_POINT('',#868);
#868 = CARTESIAN_POINT('',(2.,-13.73894761556,69.517110277252));
#869 = LINE('',#870,#871);
#870 = CARTESIAN_POINT('',(2.,-14.,69.5));
#871 = VECTOR('',#872,1.);
#872 = DIRECTION('',(-2.215691903814E-16,0.997858923239,
    6.540312923017E-02));
#873 = ORIENTED_EDGE('',*,*,#874,.T.);
#874 = EDGE_CURVE('',#867,#875,#877,.T.);
#875 = VERTEX_POINT('',#876);
#876 = CARTESIAN_POINT('',(2.,-13.48236190979,69.568148347422));
#877 = LINE('',#878,#879);
#878 = CARTESIAN_POINT('',(2.,-13.73894761556,69.517110277252));
#879 = VECTOR('',#880,1.);
#880 = DIRECTION('',(-2.177780801034E-16,0.980785280403,0.195090322016)
  );
#881 = ORIENTED_EDGE('',*,*,#882,.T.);
#882 = EDGE_CURVE('',#875,#883,#885,.T.);
#883 = VERTEX_POINT('',#884);
#884 = CARTESIAN_POINT('',(2.,-13.23463313527,69.652240934977));
#885 = LINE('',#886,#887);
#886 = CARTESIAN_POINT('',(2.,-13.48236190979,69.568148347422));
#887 = VECTOR('',#888,1.);
#888 = DIRECTION('',(-2.102607264954E-16,0.946930129495,0.321439465303)
  );
#889 = ORIENTED_EDGE('',*,*,#890,.T.);
#890 = EDGE_CURVE('',#883,#891,#893,.T.);
#891 = VERTEX_POINT('',#892);
#892 = CARTESIAN_POINT('',(2.,-13.,69.767949192431));
#893 = LINE('',#894,#895);
#894 = CARTESIAN_POINT('',(2.,-13.23463313527,69.652240934977));
#895 = VECTOR('',#896,1.);
#896 = DIRECTION('',(-1.991457535617E-16,0.896872741533,0.442288690219)
  );
#897 = ORIENTED_EDGE('',*,*,#898,.T.);
#898 = EDGE_CURVE('',#891,#899,#901,.T.);
#899 = VERTEX_POINT('',#900);
#900 = CARTESIAN_POINT('',(2.,-12.78247714198,69.913293319418));
#901 = LINE('',#902,#903);
#902 = CARTESIAN_POINT('',(2.,-13.,69.767949192431));
#903 = VECTOR('',#904,1.);
#904 = DIRECTION('',(-1.846233415709E-16,0.831469612303,0.55557023302));
#905 = ORIENTED_EDGE('',*,*,#906,.T.);
#906 = EDGE_CURVE('',#899,#907,#909,.T.);
#907 = VERTEX_POINT('',#908);
#908 = CARTESIAN_POINT('',(2.,-12.58578643762,70.085786437627));
#909 = LINE('',#910,#911);
#910 = CARTESIAN_POINT('',(2.,-12.78247714198,69.913293319418));
#911 = VECTOR('',#912,1.);
#912 = DIRECTION('',(-1.669419730186E-16,0.751839807479,0.6593458151));
#913 = ORIENTED_EDGE('',*,*,#914,.T.);
#914 = EDGE_CURVE('',#907,#915,#917,.T.);
#915 = VERTEX_POINT('',#916);
#916 = CARTESIAN_POINT('',(2.,-12.41329331941,70.282477141983));
#917 = LINE('',#918,#919);
#918 = CARTESIAN_POINT('',(2.,-12.58578643762,70.085786437627));
#919 = VECTOR('',#920,1.);
#920 = DIRECTION('',(-1.464041810229E-16,0.6593458151,0.751839807479));
#921 = ORIENTED_EDGE('',*,*,#922,.T.);
#922 = EDGE_CURVE('',#915,#923,#925,.T.);
#923 = VERTEX_POINT('',#924);
#924 = CARTESIAN_POINT('',(2.,-12.26794919243,70.5));
#925 = LINE('',#926,#927);
#926 = CARTESIAN_POINT('',(2.,-12.41329331941,70.282477141983));
#927 = VECTOR('',#928,1.);
#928 = DIRECTION('',(-1.233613728989E-16,0.55557023302,0.831469612303));
#929 = ORIENTED_EDGE('',*,*,#930,.T.);
#930 = EDGE_CURVE('',#923,#931,#933,.T.);
#931 = VERTEX_POINT('',#932);
#932 = CARTESIAN_POINT('',(2.,-12.15224093497,70.73463313527));
#933 = LINE('',#934,#935);
#934 = CARTESIAN_POINT('',(2.,-12.26794919243,70.5));
#935 = VECTOR('',#936,1.);
#936 = DIRECTION('',(-9.820781748249E-17,0.442288690219,0.896872741533)
  );
#937 = ORIENTED_EDGE('',*,*,#938,.T.);
#938 = EDGE_CURVE('',#931,#939,#941,.T.);
#939 = VERTEX_POINT('',#940);
#940 = CARTESIAN_POINT('',(2.,-12.06814834742,70.982361909795));
#941 = LINE('',#942,#943);
#942 = CARTESIAN_POINT('',(2.,-12.15224093497,70.73463313527));
#943 = VECTOR('',#944,1.);
#944 = DIRECTION('',(-7.137389908055E-17,0.321439465303,0.946930129495)
  );
#945 = ORIENTED_EDGE('',*,*,#946,.T.);
#946 = EDGE_CURVE('',#939,#947,#949,.T.);
#947 = VERTEX_POINT('',#948);
#948 = CARTESIAN_POINT('',(2.,-12.01711027725,71.23894761556));
#949 = LINE('',#950,#951);
#950 = CARTESIAN_POINT('',(2.,-12.06814834742,70.982361909795));
#951 = VECTOR('',#952,1.);
#952 = DIRECTION('',(-4.331875347677E-17,0.195090322016,0.980785280403)
  );
#953 = ORIENTED_EDGE('',*,*,#954,.T.);
#954 = EDGE_CURVE('',#947,#64,#955,.T.);
#955 = LINE('',#956,#957);
#956 = CARTESIAN_POINT('',(2.,-12.01711027725,71.23894761556));
#957 = VECTOR('',#958,1.);
#958 = DIRECTION('',(-1.452241199077E-17,6.540312923014E-02,
    0.997858923239));
#959 = ORIENTED_EDGE('',*,*,#71,.T.);
#960 = FACE_BOUND('',#961,.T.);
#961 = EDGE_LOOP('',(#962));
#962 = ORIENTED_EDGE('',*,*,#963,.F.);
#963 = EDGE_CURVE('',#964,#964,#966,.T.);
#964 = VERTEX_POINT('',#965);
#965 = CARTESIAN_POINT('',(2.,-30.,73.65));
#966 = CIRCLE('',#967,1.15);
#967 = AXIS2_PLACEMENT_3D('',#968,#969,#970);
#968 = CARTESIAN_POINT('',(2.,-30.,72.5));
#969 = DIRECTION('',(1.,0.,0.));
#970 = DIRECTION('',(-0.,0.,1.));
#971 = FACE_BOUND('',#972,.T.);
#972 = EDGE_LOOP('',(#973));
#973 = ORIENTED_EDGE('',*,*,#974,.F.);
#974 = EDGE_CURVE('',#975,#975,#977,.T.);
#975 = VERTEX_POINT('',#976);
#976 = CARTESIAN_POINT('',(2.,-14.,73.65));
#977 = CIRCLE('',#978,1.15);
#978 = AXIS2_PLACEMENT_3D('',#979,#980,#981);
#979 = CARTESIAN_POINT('',(2.,-14.,72.5));
#980 = DIRECTION('',(1.,0.,0.));
#981 = DIRECTION('',(-0.,0.,1.));
#982 = FACE_BOUND('',#983,.T.);
#983 = EDGE_LOOP('',(#984));
#984 = ORIENTED_EDGE('',*,*,#985,.F.);
#985 = EDGE_CURVE('',#986,#986,#988,.T.);
#986 = VERTEX_POINT('',#987);
#987 = CARTESIAN_POINT('',(2.,-30.,78.65));
#988 = CIRCLE('',#989,1.15);
#989 = AXIS2_PLACEMENT_3D('',#990,#991,#992);
#990 = CARTESIAN_POINT('',(2.,-30.,77.5));
#991 = DIRECTION('',(1.,0.,0.));
#992 = DIRECTION('',(-0.,0.,1.));
#993 = FACE_BOUND('',#994,.T.);
#994 = EDGE_LOOP('',(#995));
#995 = ORIENTED_EDGE('',*,*,#996,.F.);
#996 = EDGE_CURVE('',#997,#997,#999,.T.);
#997 = VERTEX_POINT('',#998);
#998 = CARTESIAN_POINT('',(2.,-14.,78.65));
#999 = CIRCLE('',#1000,1.15);
#1000 = AXIS2_PLACEMENT_3D('',#1001,#1002,#1003);
#1001 = CARTESIAN_POINT('',(2.,-14.,77.5));
#1002 = DIRECTION('',(1.,0.,0.));
#1003 = DIRECTION('',(-0.,0.,1.));
#1004 = PLANE('',#1005);
#1005 = AXIS2_PLACEMENT_3D('',#1006,#1007,#1008);
#1006 = CARTESIAN_POINT('',(2.,-22.,75.));
#1007 = DIRECTION('',(1.,0.,-2.22044604925E-16));
#1008 = DIRECTION('',(-2.22044604925E-16,1.,0.));
#1009 = ADVANCED_FACE('',(#1010),#1021,.F.);
#1010 = FACE_BOUND('',#1011,.F.);
#1011 = EDGE_LOOP('',(#1012,#1018,#1019,#1020));
#1012 = ORIENTED_EDGE('',*,*,#1013,.T.);
#1013 = EDGE_CURVE('',#502,#947,#1014,.T.);
#1014 = LINE('',#1015,#1016);
#1015 = CARTESIAN_POINT('',(2.668334503853E-15,-12.01711027725,
    71.23894761556));
#1016 = VECTOR('',#1017,1.);
#1017 = DIRECTION('',(1.,0.,-2.22044604925E-16));
#1018 = ORIENTED_EDGE('',*,*,#954,.T.);
#1019 = ORIENTED_EDGE('',*,*,#61,.F.);
#1020 = ORIENTED_EDGE('',*,*,#509,.F.);
#1021 = PLANE('',#1022);
#1022 = AXIS2_PLACEMENT_3D('',#1023,#1024,#1025);
#1023 = CARTESIAN_POINT('',(2.668334503853E-15,-12.01711027725,
    71.23894761556));
#1024 = DIRECTION('',(2.215691903814E-16,-0.997858923239,
    6.540312923015E-02));
#1025 = DIRECTION('',(-1.452241199077E-17,6.540312923014E-02,
    0.997858923239));
#1026 = ADVANCED_FACE('',(#1027),#1038,.F.);
#1027 = FACE_BOUND('',#1028,.F.);
#1028 = EDGE_LOOP('',(#1029,#1030,#1031,#1037));
#1029 = ORIENTED_EDGE('',*,*,#101,.T.);
#1030 = ORIENTED_EDGE('',*,*,#570,.T.);
#1031 = ORIENTED_EDGE('',*,*,#1032,.F.);
#1032 = EDGE_CURVE('',#126,#571,#1033,.T.);
#1033 = LINE('',#1034,#1035);
#1034 = CARTESIAN_POINT('',(2.698339537361E-15,-12.15224093497,
    79.26536686473));
#1035 = VECTOR('',#1036,1.);
#1036 = DIRECTION('',(1.,0.,-2.22044604925E-16));
#1037 = ORIENTED_EDGE('',*,*,#125,.F.);
#1038 = PLANE('',#1039);
#1039 = AXIS2_PLACEMENT_3D('',#1040,#1041,#1042);
#1040 = CARTESIAN_POINT('',(2.67966723198E-15,-12.06814834742,
    79.017638090205));
#1041 = DIRECTION('',(2.102607264953E-16,-0.946930129495,-0.321439465303
    ));
#1042 = DIRECTION('',(7.137389908055E-17,-0.321439465303,0.946930129495)
  );
#1043 = ADVANCED_FACE('',(#1044),#1055,.F.);
#1044 = FACE_BOUND('',#1045,.F.);
#1045 = EDGE_LOOP('',(#1046,#1052,#1053,#1054));
#1046 = ORIENTED_EDGE('',*,*,#1047,.T.);
#1047 = EDGE_CURVE('',#494,#939,#1048,.T.);
#1048 = LINE('',#1049,#1050);
#1049 = CARTESIAN_POINT('',(2.67966723198E-15,-12.06814834742,
    70.982361909795));
#1050 = VECTOR('',#1051,1.);
#1051 = DIRECTION('',(1.,0.,-2.22044604925E-16));
#1052 = ORIENTED_EDGE('',*,*,#946,.T.);
#1053 = ORIENTED_EDGE('',*,*,#1013,.F.);
#1054 = ORIENTED_EDGE('',*,*,#501,.F.);
#1055 = PLANE('',#1056);
#1056 = AXIS2_PLACEMENT_3D('',#1057,#1058,#1059);
#1057 = CARTESIAN_POINT('',(2.67966723198E-15,-12.06814834742,
    70.982361909795));
#1058 = DIRECTION('',(2.177780801034E-16,-0.980785280403,0.195090322016)
  );
#1059 = DIRECTION('',(-4.331875347677E-17,0.195090322016,0.980785280403)
  );
#1060 = ADVANCED_FACE('',(#1061),#1072,.F.);
#1061 = FACE_BOUND('',#1062,.F.);
#1062 = EDGE_LOOP('',(#1063,#1064,#1065,#1071));
#1063 = ORIENTED_EDGE('',*,*,#1032,.T.);
#1064 = ORIENTED_EDGE('',*,*,#578,.T.);
#1065 = ORIENTED_EDGE('',*,*,#1066,.F.);
#1066 = EDGE_CURVE('',#134,#579,#1067,.T.);
#1067 = LINE('',#1068,#1069);
#1068 = CARTESIAN_POINT('',(2.724031931674E-15,-12.26794919243,79.5));
#1069 = VECTOR('',#1070,1.);
#1070 = DIRECTION('',(1.,0.,-2.22044604925E-16));
#1071 = ORIENTED_EDGE('',*,*,#133,.F.);
#1072 = PLANE('',#1073);
#1073 = AXIS2_PLACEMENT_3D('',#1074,#1075,#1076);
#1074 = CARTESIAN_POINT('',(2.698339537361E-15,-12.15224093497,
    79.26536686473));
#1075 = DIRECTION('',(1.991457535617E-16,-0.896872741533,-0.442288690219
    ));
#1076 = DIRECTION('',(9.820781748249E-17,-0.442288690219,0.896872741533)
  );
#1077 = ADVANCED_FACE('',(#1078),#1089,.F.);
#1078 = FACE_BOUND('',#1079,.F.);
#1079 = EDGE_LOOP('',(#1080,#1086,#1087,#1088));
#1080 = ORIENTED_EDGE('',*,*,#1081,.T.);
#1081 = EDGE_CURVE('',#486,#931,#1082,.T.);
#1082 = LINE('',#1083,#1084);
#1083 = CARTESIAN_POINT('',(2.698339537361E-15,-12.15224093497,
    70.73463313527));
#1084 = VECTOR('',#1085,1.);
#1085 = DIRECTION('',(1.,0.,-2.22044604925E-16));
#1086 = ORIENTED_EDGE('',*,*,#938,.T.);
#1087 = ORIENTED_EDGE('',*,*,#1047,.F.);
#1088 = ORIENTED_EDGE('',*,*,#493,.F.);
#1089 = PLANE('',#1090);
#1090 = AXIS2_PLACEMENT_3D('',#1091,#1092,#1093);
#1091 = CARTESIAN_POINT('',(2.698339537361E-15,-12.15224093497,
    70.73463313527));
#1092 = DIRECTION('',(2.102607264953E-16,-0.946930129495,0.321439465303)
  );
#1093 = DIRECTION('',(-7.137389908055E-17,0.321439465303,0.946930129495)
  );
#1094 = ADVANCED_FACE('',(#1095),#1106,.F.);
#1095 = FACE_BOUND('',#1096,.F.);
#1096 = EDGE_LOOP('',(#1097,#1098,#1099,#1105));
#1097 = ORIENTED_EDGE('',*,*,#1066,.T.);
#1098 = ORIENTED_EDGE('',*,*,#586,.T.);
#1099 = ORIENTED_EDGE('',*,*,#1100,.F.);
#1100 = EDGE_CURVE('',#142,#587,#1101,.T.);
#1101 = LINE('',#1102,#1103);
#1102 = CARTESIAN_POINT('',(2.756304810929E-15,-12.41329331941,
    79.717522858017));
#1103 = VECTOR('',#1104,1.);
#1104 = DIRECTION('',(1.,0.,-2.22044604925E-16));
#1105 = ORIENTED_EDGE('',*,*,#141,.F.);
#1106 = PLANE('',#1107);
#1107 = AXIS2_PLACEMENT_3D('',#1108,#1109,#1110);
#1108 = CARTESIAN_POINT('',(2.724031931674E-15,-12.26794919243,79.5));
#1109 = DIRECTION('',(1.846233415709E-16,-0.831469612303,-0.55557023302)
  );
#1110 = DIRECTION('',(1.233613728989E-16,-0.55557023302,0.831469612303)
  );
#1111 = ADVANCED_FACE('',(#1112),#1123,.F.);
#1112 = FACE_BOUND('',#1113,.F.);
#1113 = EDGE_LOOP('',(#1114,#1120,#1121,#1122));
#1114 = ORIENTED_EDGE('',*,*,#1115,.T.);
#1115 = EDGE_CURVE('',#478,#923,#1116,.T.);
#1116 = LINE('',#1117,#1118);
#1117 = CARTESIAN_POINT('',(2.724031931674E-15,-12.26794919243,70.5));
#1118 = VECTOR('',#1119,1.);
#1119 = DIRECTION('',(1.,0.,-2.22044604925E-16));
#1120 = ORIENTED_EDGE('',*,*,#930,.T.);
#1121 = ORIENTED_EDGE('',*,*,#1081,.F.);
#1122 = ORIENTED_EDGE('',*,*,#485,.F.);
#1123 = PLANE('',#1124);
#1124 = AXIS2_PLACEMENT_3D('',#1125,#1126,#1127);
#1125 = CARTESIAN_POINT('',(2.724031931674E-15,-12.26794919243,70.5));
#1126 = DIRECTION('',(1.991457535617E-16,-0.896872741533,0.442288690219)
  );
#1127 = DIRECTION('',(-9.820781748249E-17,0.442288690219,0.896872741533)
  );
#1128 = ADVANCED_FACE('',(#1129),#1140,.F.);
#1129 = FACE_BOUND('',#1130,.F.);
#1130 = EDGE_LOOP('',(#1131,#1132,#1133,#1139));
#1131 = ORIENTED_EDGE('',*,*,#1100,.T.);
#1132 = ORIENTED_EDGE('',*,*,#594,.T.);
#1133 = ORIENTED_EDGE('',*,*,#1134,.F.);
#1134 = EDGE_CURVE('',#150,#595,#1135,.T.);
#1135 = LINE('',#1136,#1137);
#1136 = CARTESIAN_POINT('',(2.794605977214E-15,-12.58578643762,
    79.914213562373));
#1137 = VECTOR('',#1138,1.);
#1138 = DIRECTION('',(1.,0.,-2.22044604925E-16));
#1139 = ORIENTED_EDGE('',*,*,#149,.F.);
#1140 = PLANE('',#1141);
#1141 = AXIS2_PLACEMENT_3D('',#1142,#1143,#1144);
#1142 = CARTESIAN_POINT('',(2.756304810929E-15,-12.41329331941,
    79.717522858017));
#1143 = DIRECTION('',(1.669419730186E-16,-0.751839807479,-0.6593458151)
  );
#1144 = DIRECTION('',(1.464041810229E-16,-0.6593458151,0.751839807479));
#1145 = ADVANCED_FACE('',(#1146),#1157,.F.);
#1146 = FACE_BOUND('',#1147,.F.);
#1147 = EDGE_LOOP('',(#1148,#1154,#1155,#1156));
#1148 = ORIENTED_EDGE('',*,*,#1149,.T.);
#1149 = EDGE_CURVE('',#470,#915,#1150,.T.);
#1150 = LINE('',#1151,#1152);
#1151 = CARTESIAN_POINT('',(2.756304810929E-15,-12.41329331941,
    70.282477141983));
#1152 = VECTOR('',#1153,1.);
#1153 = DIRECTION('',(1.,0.,-2.22044604925E-16));
#1154 = ORIENTED_EDGE('',*,*,#922,.T.);
#1155 = ORIENTED_EDGE('',*,*,#1115,.F.);
#1156 = ORIENTED_EDGE('',*,*,#477,.F.);
#1157 = PLANE('',#1158);
#1158 = AXIS2_PLACEMENT_3D('',#1159,#1160,#1161);
#1159 = CARTESIAN_POINT('',(2.756304810929E-15,-12.41329331941,
    70.282477141983));
#1160 = DIRECTION('',(1.846233415709E-16,-0.831469612303,0.55557023302)
  );
#1161 = DIRECTION('',(-1.233613728989E-16,0.55557023302,0.831469612303)
  );
#1162 = ADVANCED_FACE('',(#1163),#1174,.F.);
#1163 = FACE_BOUND('',#1164,.F.);
#1164 = EDGE_LOOP('',(#1165,#1166,#1167,#1173));
#1165 = ORIENTED_EDGE('',*,*,#1134,.T.);
#1166 = ORIENTED_EDGE('',*,*,#602,.T.);
#1167 = ORIENTED_EDGE('',*,*,#1168,.F.);
#1168 = EDGE_CURVE('',#158,#603,#1169,.T.);
#1169 = LINE('',#1170,#1171);
#1170 = CARTESIAN_POINT('',(2.838280086955E-15,-12.78247714198,
    80.086706680582));
#1171 = VECTOR('',#1172,1.);
#1172 = DIRECTION('',(1.,0.,-2.22044604925E-16));
#1173 = ORIENTED_EDGE('',*,*,#157,.F.);
#1174 = PLANE('',#1175);
#1175 = AXIS2_PLACEMENT_3D('',#1176,#1177,#1178);
#1176 = CARTESIAN_POINT('',(2.794605977214E-15,-12.58578643762,
    79.914213562373));
#1177 = DIRECTION('',(1.464041810229E-16,-0.6593458151,-0.751839807479)
  );
#1178 = DIRECTION('',(1.669419730186E-16,-0.751839807479,0.6593458151));
#1179 = ADVANCED_FACE('',(#1180),#1191,.F.);
#1180 = FACE_BOUND('',#1181,.F.);
#1181 = EDGE_LOOP('',(#1182,#1188,#1189,#1190));
#1182 = ORIENTED_EDGE('',*,*,#1183,.T.);
#1183 = EDGE_CURVE('',#462,#907,#1184,.T.);
#1184 = LINE('',#1185,#1186);
#1185 = CARTESIAN_POINT('',(2.794605977214E-15,-12.58578643762,
    70.085786437627));
#1186 = VECTOR('',#1187,1.);
#1187 = DIRECTION('',(1.,0.,-2.22044604925E-16));
#1188 = ORIENTED_EDGE('',*,*,#914,.T.);
#1189 = ORIENTED_EDGE('',*,*,#1149,.F.);
#1190 = ORIENTED_EDGE('',*,*,#469,.F.);
#1191 = PLANE('',#1192);
#1192 = AXIS2_PLACEMENT_3D('',#1193,#1194,#1195);
#1193 = CARTESIAN_POINT('',(2.794605977214E-15,-12.58578643762,
    70.085786437627));
#1194 = DIRECTION('',(1.669419730186E-16,-0.751839807479,0.6593458151));
#1195 = DIRECTION('',(-1.464041810229E-16,0.6593458151,0.751839807479));
#1196 = ADVANCED_FACE('',(#1197),#1208,.F.);
#1197 = FACE_BOUND('',#1198,.F.);
#1198 = EDGE_LOOP('',(#1199,#1200,#1201,#1207));
#1199 = ORIENTED_EDGE('',*,*,#1168,.T.);
#1200 = ORIENTED_EDGE('',*,*,#610,.T.);
#1201 = ORIENTED_EDGE('',*,*,#1202,.F.);
#1202 = EDGE_CURVE('',#166,#611,#1203,.T.);
#1203 = LINE('',#1204,#1205);
#1204 = CARTESIAN_POINT('',(2.886579864025E-15,-13.,80.232050807569));
#1205 = VECTOR('',#1206,1.);
#1206 = DIRECTION('',(1.,0.,-2.22044604925E-16));
#1207 = ORIENTED_EDGE('',*,*,#165,.F.);
#1208 = PLANE('',#1209);
#1209 = AXIS2_PLACEMENT_3D('',#1210,#1211,#1212);
#1210 = CARTESIAN_POINT('',(2.838280086955E-15,-12.78247714198,
    80.086706680582));
#1211 = DIRECTION('',(1.23361372899E-16,-0.55557023302,-0.831469612303)
  );
#1212 = DIRECTION('',(1.846233415709E-16,-0.831469612303,0.55557023302)
  );
#1213 = ADVANCED_FACE('',(#1214),#1225,.F.);
#1214 = FACE_BOUND('',#1215,.F.);
#1215 = EDGE_LOOP('',(#1216,#1222,#1223,#1224));
#1216 = ORIENTED_EDGE('',*,*,#1217,.T.);
#1217 = EDGE_CURVE('',#454,#899,#1218,.T.);
#1218 = LINE('',#1219,#1220);
#1219 = CARTESIAN_POINT('',(2.838280086955E-15,-12.78247714198,
    69.913293319418));
#1220 = VECTOR('',#1221,1.);
#1221 = DIRECTION('',(1.,0.,-2.22044604925E-16));
#1222 = ORIENTED_EDGE('',*,*,#906,.T.);
#1223 = ORIENTED_EDGE('',*,*,#1183,.F.);
#1224 = ORIENTED_EDGE('',*,*,#461,.F.);
#1225 = PLANE('',#1226);
#1226 = AXIS2_PLACEMENT_3D('',#1227,#1228,#1229);
#1227 = CARTESIAN_POINT('',(2.838280086955E-15,-12.78247714198,
    69.913293319418));
#1228 = DIRECTION('',(1.464041810229E-16,-0.6593458151,0.751839807479));
#1229 = DIRECTION('',(-1.669419730186E-16,0.751839807479,0.6593458151));
#1230 = ADVANCED_FACE('',(#1231),#1242,.F.);
#1231 = FACE_BOUND('',#1232,.F.);
#1232 = EDGE_LOOP('',(#1233,#1234,#1235,#1241));
#1233 = ORIENTED_EDGE('',*,*,#1202,.T.);
#1234 = ORIENTED_EDGE('',*,*,#618,.T.);
#1235 = ORIENTED_EDGE('',*,*,#1236,.F.);
#1236 = EDGE_CURVE('',#174,#619,#1237,.T.);
#1237 = LINE('',#1238,#1239);
#1238 = CARTESIAN_POINT('',(2.938678885849E-15,-13.23463313527,
    80.347759065023));
#1239 = VECTOR('',#1240,1.);
#1240 = DIRECTION('',(1.,0.,-2.22044604925E-16));
#1241 = ORIENTED_EDGE('',*,*,#173,.F.);
#1242 = PLANE('',#1243);
#1243 = AXIS2_PLACEMENT_3D('',#1244,#1245,#1246);
#1244 = CARTESIAN_POINT('',(2.886579864025E-15,-13.,80.232050807569));
#1245 = DIRECTION('',(9.820781748248E-17,-0.442288690219,-0.896872741533
    ));
#1246 = DIRECTION('',(1.991457535617E-16,-0.896872741533,0.442288690219)
  );
#1247 = ADVANCED_FACE('',(#1248),#1259,.F.);
#1248 = FACE_BOUND('',#1249,.F.);
#1249 = EDGE_LOOP('',(#1250,#1256,#1257,#1258));
#1250 = ORIENTED_EDGE('',*,*,#1251,.T.);
#1251 = EDGE_CURVE('',#446,#891,#1252,.T.);
#1252 = LINE('',#1253,#1254);
#1253 = CARTESIAN_POINT('',(2.886579864025E-15,-13.,69.767949192431));
#1254 = VECTOR('',#1255,1.);
#1255 = DIRECTION('',(1.,0.,-2.22044604925E-16));
#1256 = ORIENTED_EDGE('',*,*,#898,.T.);
#1257 = ORIENTED_EDGE('',*,*,#1217,.F.);
#1258 = ORIENTED_EDGE('',*,*,#453,.F.);
#1259 = PLANE('',#1260);
#1260 = AXIS2_PLACEMENT_3D('',#1261,#1262,#1263);
#1261 = CARTESIAN_POINT('',(2.886579864025E-15,-13.,69.767949192431));
#1262 = DIRECTION('',(1.23361372899E-16,-0.55557023302,0.831469612303));
#1263 = DIRECTION('',(-1.846233415709E-16,0.831469612303,0.55557023302)
  );
#1264 = ADVANCED_FACE('',(#1265),#1276,.F.);
#1265 = FACE_BOUND('',#1266,.F.);
#1266 = EDGE_LOOP('',(#1267,#1268,#1269,#1275));
#1267 = ORIENTED_EDGE('',*,*,#1236,.T.);
#1268 = ORIENTED_EDGE('',*,*,#626,.T.);
#1269 = ORIENTED_EDGE('',*,*,#1270,.F.);
#1270 = EDGE_CURVE('',#182,#627,#1271,.T.);
#1271 = LINE('',#1272,#1273);
#1272 = CARTESIAN_POINT('',(2.993685723717E-15,-13.48236190979,
    80.431851652578));
#1273 = VECTOR('',#1274,1.);
#1274 = DIRECTION('',(1.,0.,-2.22044604925E-16));
#1275 = ORIENTED_EDGE('',*,*,#181,.F.);
#1276 = PLANE('',#1277);
#1277 = AXIS2_PLACEMENT_3D('',#1278,#1279,#1280);
#1278 = CARTESIAN_POINT('',(2.938678885849E-15,-13.23463313527,
    80.347759065023));
#1279 = DIRECTION('',(7.137389908055E-17,-0.321439465303,-0.946930129495
    ));
#1280 = DIRECTION('',(2.102607264954E-16,-0.946930129495,0.321439465303)
  );
#1281 = ADVANCED_FACE('',(#1282),#1293,.F.);
#1282 = FACE_BOUND('',#1283,.F.);
#1283 = EDGE_LOOP('',(#1284,#1290,#1291,#1292));
#1284 = ORIENTED_EDGE('',*,*,#1285,.T.);
#1285 = EDGE_CURVE('',#438,#883,#1286,.T.);
#1286 = LINE('',#1287,#1288);
#1287 = CARTESIAN_POINT('',(2.938678885849E-15,-13.23463313527,
    69.652240934977));
#1288 = VECTOR('',#1289,1.);
#1289 = DIRECTION('',(1.,0.,-2.22044604925E-16));
#1290 = ORIENTED_EDGE('',*,*,#890,.T.);
#1291 = ORIENTED_EDGE('',*,*,#1251,.F.);
#1292 = ORIENTED_EDGE('',*,*,#445,.F.);
#1293 = PLANE('',#1294);
#1294 = AXIS2_PLACEMENT_3D('',#1295,#1296,#1297);
#1295 = CARTESIAN_POINT('',(2.938678885849E-15,-13.23463313527,
    69.652240934977));
#1296 = DIRECTION('',(9.820781748248E-17,-0.442288690219,0.896872741533)
  );
#1297 = DIRECTION('',(-1.991457535617E-16,0.896872741533,0.442288690219)
  );
#1298 = ADVANCED_FACE('',(#1299),#1310,.F.);
#1299 = FACE_BOUND('',#1300,.F.);
#1300 = EDGE_LOOP('',(#1301,#1302,#1303,#1309));
#1301 = ORIENTED_EDGE('',*,*,#1270,.T.);
#1302 = ORIENTED_EDGE('',*,*,#634,.T.);
#1303 = ORIENTED_EDGE('',*,*,#1304,.F.);
#1304 = EDGE_CURVE('',#190,#635,#1305,.T.);
#1305 = LINE('',#1306,#1307);
#1306 = CARTESIAN_POINT('',(3.050659195383E-15,-13.73894761556,
    80.482889722748));
#1307 = VECTOR('',#1308,1.);
#1308 = DIRECTION('',(1.,0.,-2.22044604925E-16));
#1309 = ORIENTED_EDGE('',*,*,#189,.F.);
#1310 = PLANE('',#1311);
#1311 = AXIS2_PLACEMENT_3D('',#1312,#1313,#1314);
#1312 = CARTESIAN_POINT('',(2.993685723717E-15,-13.48236190979,
    80.431851652578));
#1313 = DIRECTION('',(4.331875347677E-17,-0.195090322016,-0.980785280403
    ));
#1314 = DIRECTION('',(2.177780801034E-16,-0.980785280403,0.195090322016)
  );
#1315 = ADVANCED_FACE('',(#1316),#1327,.F.);
#1316 = FACE_BOUND('',#1317,.F.);
#1317 = EDGE_LOOP('',(#1318,#1324,#1325,#1326));
#1318 = ORIENTED_EDGE('',*,*,#1319,.T.);
#1319 = EDGE_CURVE('',#430,#875,#1320,.T.);
#1320 = LINE('',#1321,#1322);
#1321 = CARTESIAN_POINT('',(2.993685723717E-15,-13.48236190979,
    69.568148347422));
#1322 = VECTOR('',#1323,1.);
#1323 = DIRECTION('',(1.,0.,-2.22044604925E-16));
#1324 = ORIENTED_EDGE('',*,*,#882,.T.);
#1325 = ORIENTED_EDGE('',*,*,#1285,.F.);
#1326 = ORIENTED_EDGE('',*,*,#437,.F.);
#1327 = PLANE('',#1328);
#1328 = AXIS2_PLACEMENT_3D('',#1329,#1330,#1331);
#1329 = CARTESIAN_POINT('',(2.993685723717E-15,-13.48236190979,
    69.568148347422));
#1330 = DIRECTION('',(7.137389908055E-17,-0.321439465303,0.946930129495)
  );
#1331 = DIRECTION('',(-2.102607264954E-16,0.946930129495,0.321439465303)
  );
#1332 = ADVANCED_FACE('',(#1333),#1344,.F.);
#1333 = FACE_BOUND('',#1334,.F.);
#1334 = EDGE_LOOP('',(#1335,#1336,#1337,#1343));
#1335 = ORIENTED_EDGE('',*,*,#1304,.T.);
#1336 = ORIENTED_EDGE('',*,*,#642,.T.);
#1337 = ORIENTED_EDGE('',*,*,#1338,.F.);
#1338 = EDGE_CURVE('',#198,#643,#1339,.T.);
#1339 = LINE('',#1340,#1341);
#1340 = CARTESIAN_POINT('',(3.10862446895E-15,-14.,80.5));
#1341 = VECTOR('',#1342,1.);
#1342 = DIRECTION('',(1.,0.,-2.22044604925E-16));
#1343 = ORIENTED_EDGE('',*,*,#197,.F.);
#1344 = PLANE('',#1345);
#1345 = AXIS2_PLACEMENT_3D('',#1346,#1347,#1348);
#1346 = CARTESIAN_POINT('',(3.050659195383E-15,-13.73894761556,
    80.482889722748));
#1347 = DIRECTION('',(1.452241199077E-17,-6.540312923017E-02,
    -0.997858923239));
#1348 = DIRECTION('',(2.215691903814E-16,-0.997858923239,
    6.540312923017E-02));
#1349 = ADVANCED_FACE('',(#1350),#1361,.F.);
#1350 = FACE_BOUND('',#1351,.F.);
#1351 = EDGE_LOOP('',(#1352,#1358,#1359,#1360));
#1352 = ORIENTED_EDGE('',*,*,#1353,.T.);
#1353 = EDGE_CURVE('',#422,#867,#1354,.T.);
#1354 = LINE('',#1355,#1356);
#1355 = CARTESIAN_POINT('',(3.050659195383E-15,-13.73894761556,
    69.517110277252));
#1356 = VECTOR('',#1357,1.);
#1357 = DIRECTION('',(1.,0.,-2.22044604925E-16));
#1358 = ORIENTED_EDGE('',*,*,#874,.T.);
#1359 = ORIENTED_EDGE('',*,*,#1319,.F.);
#1360 = ORIENTED_EDGE('',*,*,#429,.F.);
#1361 = PLANE('',#1362);
#1362 = AXIS2_PLACEMENT_3D('',#1363,#1364,#1365);
#1363 = CARTESIAN_POINT('',(3.050659195383E-15,-13.73894761556,
    69.517110277252));
#1364 = DIRECTION('',(4.331875347677E-17,-0.195090322016,0.980785280403)
  );
#1365 = DIRECTION('',(-2.177780801034E-16,0.980785280403,0.195090322016)
  );
#1366 = ADVANCED_FACE('',(#1367),#1378,.F.);
#1367 = FACE_BOUND('',#1368,.F.);
#1368 = EDGE_LOOP('',(#1369,#1370,#1371,#1377));
#1369 = ORIENTED_EDGE('',*,*,#1338,.T.);
#1370 = ORIENTED_EDGE('',*,*,#650,.T.);
#1371 = ORIENTED_EDGE('',*,*,#1372,.F.);
#1372 = EDGE_CURVE('',#206,#651,#1373,.T.);
#1373 = LINE('',#1374,#1375);
#1374 = CARTESIAN_POINT('',(6.661338147751E-15,-30.,80.5));
#1375 = VECTOR('',#1376,1.);
#1376 = DIRECTION('',(1.,0.,-2.22044604925E-16));
#1377 = ORIENTED_EDGE('',*,*,#205,.F.);
#1378 = PLANE('',#1379);
#1379 = AXIS2_PLACEMENT_3D('',#1380,#1381,#1382);
#1380 = CARTESIAN_POINT('',(3.10862446895E-15,-14.,80.5));
#1381 = DIRECTION('',(0.,2.22044604925E-16,-1.));
#1382 = DIRECTION('',(2.22044604925E-16,-1.,0.));
#1383 = ADVANCED_FACE('',(#1384),#1395,.F.);
#1384 = FACE_BOUND('',#1385,.F.);
#1385 = EDGE_LOOP('',(#1386,#1392,#1393,#1394));
#1386 = ORIENTED_EDGE('',*,*,#1387,.T.);
#1387 = EDGE_CURVE('',#414,#859,#1388,.T.);
#1388 = LINE('',#1389,#1390);
#1389 = CARTESIAN_POINT('',(3.10862446895E-15,-14.,69.5));
#1390 = VECTOR('',#1391,1.);
#1391 = DIRECTION('',(1.,0.,-2.22044604925E-16));
#1392 = ORIENTED_EDGE('',*,*,#866,.T.);
#1393 = ORIENTED_EDGE('',*,*,#1353,.F.);
#1394 = ORIENTED_EDGE('',*,*,#421,.F.);
#1395 = PLANE('',#1396);
#1396 = AXIS2_PLACEMENT_3D('',#1397,#1398,#1399);
#1397 = CARTESIAN_POINT('',(3.10862446895E-15,-14.,69.5));
#1398 = DIRECTION('',(1.452241199077E-17,-6.540312923017E-02,
    0.997858923239));
#1399 = DIRECTION('',(-2.215691903814E-16,0.997858923239,
    6.540312923017E-02));
#1400 = ADVANCED_FACE('',(#1401),#1412,.F.);
#1401 = FACE_BOUND('',#1402,.F.);
#1402 = EDGE_LOOP('',(#1403,#1404,#1405,#1411));
#1403 = ORIENTED_EDGE('',*,*,#1372,.T.);
#1404 = ORIENTED_EDGE('',*,*,#658,.T.);
#1405 = ORIENTED_EDGE('',*,*,#1406,.F.);
#1406 = EDGE_CURVE('',#214,#659,#1407,.T.);
#1407 = LINE('',#1408,#1409);
#1408 = CARTESIAN_POINT('',(6.719303421319E-15,-30.26105238444,
    80.482889722748));
#1409 = VECTOR('',#1410,1.);
#1410 = DIRECTION('',(1.,0.,-2.22044604925E-16));
#1411 = ORIENTED_EDGE('',*,*,#213,.F.);
#1412 = PLANE('',#1413);
#1413 = AXIS2_PLACEMENT_3D('',#1414,#1415,#1416);
#1414 = CARTESIAN_POINT('',(6.661338147751E-15,-30.,80.5));
#1415 = DIRECTION('',(-1.452241199077E-17,6.540312923017E-02,
    -0.997858923239));
#1416 = DIRECTION('',(2.215691903814E-16,-0.997858923239,
    -6.540312923017E-02));
#1417 = ADVANCED_FACE('',(#1418),#1429,.F.);
#1418 = FACE_BOUND('',#1419,.F.);
#1419 = EDGE_LOOP('',(#1420,#1426,#1427,#1428));
#1420 = ORIENTED_EDGE('',*,*,#1421,.T.);
#1421 = EDGE_CURVE('',#406,#851,#1422,.T.);
#1422 = LINE('',#1423,#1424);
#1423 = CARTESIAN_POINT('',(6.661338147751E-15,-30.,69.5));
#1424 = VECTOR('',#1425,1.);
#1425 = DIRECTION('',(1.,0.,-2.22044604925E-16));
#1426 = ORIENTED_EDGE('',*,*,#858,.T.);
#1427 = ORIENTED_EDGE('',*,*,#1387,.F.);
#1428 = ORIENTED_EDGE('',*,*,#413,.F.);
#1429 = PLANE('',#1430);
#1430 = AXIS2_PLACEMENT_3D('',#1431,#1432,#1433);
#1431 = CARTESIAN_POINT('',(6.661338147751E-15,-30.,69.5));
#1432 = DIRECTION('',(0.,-2.22044604925E-16,1.));
#1433 = DIRECTION('',(-2.22044604925E-16,1.,0.));
#1434 = ADVANCED_FACE('',(#1435),#1446,.F.);
#1435 = FACE_BOUND('',#1436,.F.);
#1436 = EDGE_LOOP('',(#1437,#1438,#1439,#1445));
#1437 = ORIENTED_EDGE('',*,*,#1406,.T.);
#1438 = ORIENTED_EDGE('',*,*,#666,.T.);
#1439 = ORIENTED_EDGE('',*,*,#1440,.F.);
#1440 = EDGE_CURVE('',#222,#667,#1441,.T.);
#1441 = LINE('',#1442,#1443);
#1442 = CARTESIAN_POINT('',(6.776276892985E-15,-30.5176380902,
    80.431851652578));
#1443 = VECTOR('',#1444,1.);
#1444 = DIRECTION('',(1.,0.,-2.22044604925E-16));
#1445 = ORIENTED_EDGE('',*,*,#221,.F.);
#1446 = PLANE('',#1447);
#1447 = AXIS2_PLACEMENT_3D('',#1448,#1449,#1450);
#1448 = CARTESIAN_POINT('',(6.719303421319E-15,-30.26105238444,
    80.482889722748));
#1449 = DIRECTION('',(-4.331875347677E-17,0.195090322016,-0.980785280403
    ));
#1450 = DIRECTION('',(2.177780801034E-16,-0.980785280403,-0.195090322016
    ));
#1451 = ADVANCED_FACE('',(#1452),#1463,.F.);
#1452 = FACE_BOUND('',#1453,.F.);
#1453 = EDGE_LOOP('',(#1454,#1460,#1461,#1462));
#1454 = ORIENTED_EDGE('',*,*,#1455,.T.);
#1455 = EDGE_CURVE('',#398,#843,#1456,.T.);
#1456 = LINE('',#1457,#1458);
#1457 = CARTESIAN_POINT('',(6.719303421319E-15,-30.26105238444,
    69.517110277252));
#1458 = VECTOR('',#1459,1.);
#1459 = DIRECTION('',(1.,0.,-2.22044604925E-16));
#1460 = ORIENTED_EDGE('',*,*,#850,.T.);
#1461 = ORIENTED_EDGE('',*,*,#1421,.F.);
#1462 = ORIENTED_EDGE('',*,*,#405,.F.);
#1463 = PLANE('',#1464);
#1464 = AXIS2_PLACEMENT_3D('',#1465,#1466,#1467);
#1465 = CARTESIAN_POINT('',(6.719303421319E-15,-30.26105238444,
    69.517110277252));
#1466 = DIRECTION('',(-1.452241199077E-17,6.540312923017E-02,
    0.997858923239));
#1467 = DIRECTION('',(-2.215691903814E-16,0.997858923239,
    -6.540312923017E-02));
#1468 = ADVANCED_FACE('',(#1469),#1480,.F.);
#1469 = FACE_BOUND('',#1470,.F.);
#1470 = EDGE_LOOP('',(#1471,#1472,#1473,#1479));
#1471 = ORIENTED_EDGE('',*,*,#1440,.T.);
#1472 = ORIENTED_EDGE('',*,*,#674,.T.);
#1473 = ORIENTED_EDGE('',*,*,#1474,.F.);
#1474 = EDGE_CURVE('',#230,#675,#1475,.T.);
#1475 = LINE('',#1476,#1477);
#1476 = CARTESIAN_POINT('',(6.831283730853E-15,-30.76536686473,
    80.347759065023));
#1477 = VECTOR('',#1478,1.);
#1478 = DIRECTION('',(1.,0.,-2.22044604925E-16));
#1479 = ORIENTED_EDGE('',*,*,#229,.F.);
#1480 = PLANE('',#1481);
#1481 = AXIS2_PLACEMENT_3D('',#1482,#1483,#1484);
#1482 = CARTESIAN_POINT('',(6.776276892985E-15,-30.5176380902,
    80.431851652578));
#1483 = DIRECTION('',(-7.137389908055E-17,0.321439465303,-0.946930129495
    ));
#1484 = DIRECTION('',(2.102607264954E-16,-0.946930129495,-0.321439465303
    ));
#1485 = ADVANCED_FACE('',(#1486),#1497,.F.);
#1486 = FACE_BOUND('',#1487,.F.);
#1487 = EDGE_LOOP('',(#1488,#1494,#1495,#1496));
#1488 = ORIENTED_EDGE('',*,*,#1489,.T.);
#1489 = EDGE_CURVE('',#390,#835,#1490,.T.);
#1490 = LINE('',#1491,#1492);
#1491 = CARTESIAN_POINT('',(6.776276892985E-15,-30.5176380902,
    69.568148347422));
#1492 = VECTOR('',#1493,1.);
#1493 = DIRECTION('',(1.,0.,-2.22044604925E-16));
#1494 = ORIENTED_EDGE('',*,*,#842,.T.);
#1495 = ORIENTED_EDGE('',*,*,#1455,.F.);
#1496 = ORIENTED_EDGE('',*,*,#397,.F.);
#1497 = PLANE('',#1498);
#1498 = AXIS2_PLACEMENT_3D('',#1499,#1500,#1501);
#1499 = CARTESIAN_POINT('',(6.776276892985E-15,-30.5176380902,
    69.568148347422));
#1500 = DIRECTION('',(-4.331875347677E-17,0.195090322016,0.980785280403)
  );
#1501 = DIRECTION('',(-2.177780801034E-16,0.980785280403,-0.195090322016
    ));
#1502 = ADVANCED_FACE('',(#1503),#1514,.F.);
#1503 = FACE_BOUND('',#1504,.F.);
#1504 = EDGE_LOOP('',(#1505,#1506,#1507,#1513));
#1505 = ORIENTED_EDGE('',*,*,#1474,.T.);
#1506 = ORIENTED_EDGE('',*,*,#682,.T.);
#1507 = ORIENTED_EDGE('',*,*,#1508,.F.);
#1508 = EDGE_CURVE('',#238,#683,#1509,.T.);
#1509 = LINE('',#1510,#1511);
#1510 = CARTESIAN_POINT('',(6.883382752676E-15,-31.,80.232050807569));
#1511 = VECTOR('',#1512,1.);
#1512 = DIRECTION('',(1.,0.,-2.22044604925E-16));
#1513 = ORIENTED_EDGE('',*,*,#237,.F.);
#1514 = PLANE('',#1515);
#1515 = AXIS2_PLACEMENT_3D('',#1516,#1517,#1518);
#1516 = CARTESIAN_POINT('',(6.831283730853E-15,-30.76536686473,
    80.347759065023));
#1517 = DIRECTION('',(-9.820781748248E-17,0.442288690219,-0.896872741533
    ));
#1518 = DIRECTION('',(1.991457535617E-16,-0.896872741533,-0.442288690219
    ));
#1519 = ADVANCED_FACE('',(#1520),#1531,.F.);
#1520 = FACE_BOUND('',#1521,.F.);
#1521 = EDGE_LOOP('',(#1522,#1528,#1529,#1530));
#1522 = ORIENTED_EDGE('',*,*,#1523,.T.);
#1523 = EDGE_CURVE('',#382,#827,#1524,.T.);
#1524 = LINE('',#1525,#1526);
#1525 = CARTESIAN_POINT('',(6.831283730853E-15,-30.76536686473,
    69.652240934977));
#1526 = VECTOR('',#1527,1.);
#1527 = DIRECTION('',(1.,0.,-2.22044604925E-16));
#1528 = ORIENTED_EDGE('',*,*,#834,.T.);
#1529 = ORIENTED_EDGE('',*,*,#1489,.F.);
#1530 = ORIENTED_EDGE('',*,*,#389,.F.);
#1531 = PLANE('',#1532);
#1532 = AXIS2_PLACEMENT_3D('',#1533,#1534,#1535);
#1533 = CARTESIAN_POINT('',(6.831283730853E-15,-30.76536686473,
    69.652240934977));
#1534 = DIRECTION('',(-7.137389908055E-17,0.321439465303,0.946930129495)
  );
#1535 = DIRECTION('',(-2.102607264954E-16,0.946930129495,-0.321439465303
    ));
#1536 = ADVANCED_FACE('',(#1537),#1548,.F.);
#1537 = FACE_BOUND('',#1538,.F.);
#1538 = EDGE_LOOP('',(#1539,#1540,#1541,#1547));
#1539 = ORIENTED_EDGE('',*,*,#1508,.T.);
#1540 = ORIENTED_EDGE('',*,*,#690,.T.);
#1541 = ORIENTED_EDGE('',*,*,#1542,.F.);
#1542 = EDGE_CURVE('',#246,#691,#1543,.T.);
#1543 = LINE('',#1544,#1545);
#1544 = CARTESIAN_POINT('',(6.931682529747E-15,-31.21752285801,
    80.086706680582));
#1545 = VECTOR('',#1546,1.);
#1546 = DIRECTION('',(1.,0.,-2.22044604925E-16));
#1547 = ORIENTED_EDGE('',*,*,#245,.F.);
#1548 = PLANE('',#1549);
#1549 = AXIS2_PLACEMENT_3D('',#1550,#1551,#1552);
#1550 = CARTESIAN_POINT('',(6.883382752676E-15,-31.,80.232050807569));
#1551 = DIRECTION('',(-1.233613728989E-16,0.55557023302,-0.831469612303)
  );
#1552 = DIRECTION('',(1.846233415709E-16,-0.831469612303,-0.55557023302)
  );
#1553 = ADVANCED_FACE('',(#1554),#1565,.F.);
#1554 = FACE_BOUND('',#1555,.F.);
#1555 = EDGE_LOOP('',(#1556,#1562,#1563,#1564));
#1556 = ORIENTED_EDGE('',*,*,#1557,.T.);
#1557 = EDGE_CURVE('',#374,#819,#1558,.T.);
#1558 = LINE('',#1559,#1560);
#1559 = CARTESIAN_POINT('',(6.883382752676E-15,-31.,69.767949192431));
#1560 = VECTOR('',#1561,1.);
#1561 = DIRECTION('',(1.,0.,-2.22044604925E-16));
#1562 = ORIENTED_EDGE('',*,*,#826,.T.);
#1563 = ORIENTED_EDGE('',*,*,#1523,.F.);
#1564 = ORIENTED_EDGE('',*,*,#381,.F.);
#1565 = PLANE('',#1566);
#1566 = AXIS2_PLACEMENT_3D('',#1567,#1568,#1569);
#1567 = CARTESIAN_POINT('',(6.883382752676E-15,-31.,69.767949192431));
#1568 = DIRECTION('',(-9.820781748248E-17,0.442288690219,0.896872741533)
  );
#1569 = DIRECTION('',(-1.991457535617E-16,0.896872741533,-0.442288690219
    ));
#1570 = ADVANCED_FACE('',(#1571),#1582,.F.);
#1571 = FACE_BOUND('',#1572,.F.);
#1572 = EDGE_LOOP('',(#1573,#1574,#1575,#1581));
#1573 = ORIENTED_EDGE('',*,*,#1542,.T.);
#1574 = ORIENTED_EDGE('',*,*,#698,.T.);
#1575 = ORIENTED_EDGE('',*,*,#1576,.F.);
#1576 = EDGE_CURVE('',#254,#699,#1577,.T.);
#1577 = LINE('',#1578,#1579);
#1578 = CARTESIAN_POINT('',(6.975356639488E-15,-31.41421356237,
    79.914213562373));
#1579 = VECTOR('',#1580,1.);
#1580 = DIRECTION('',(1.,0.,-2.22044604925E-16));
#1581 = ORIENTED_EDGE('',*,*,#253,.F.);
#1582 = PLANE('',#1583);
#1583 = AXIS2_PLACEMENT_3D('',#1584,#1585,#1586);
#1584 = CARTESIAN_POINT('',(6.931682529747E-15,-31.21752285801,
    80.086706680582));
#1585 = DIRECTION('',(-1.464041810229E-16,0.6593458151,-0.751839807479)
  );
#1586 = DIRECTION('',(1.669419730186E-16,-0.751839807479,-0.6593458151)
  );
#1587 = ADVANCED_FACE('',(#1588),#1599,.F.);
#1588 = FACE_BOUND('',#1589,.F.);
#1589 = EDGE_LOOP('',(#1590,#1596,#1597,#1598));
#1590 = ORIENTED_EDGE('',*,*,#1591,.T.);
#1591 = EDGE_CURVE('',#366,#811,#1592,.T.);
#1592 = LINE('',#1593,#1594);
#1593 = CARTESIAN_POINT('',(6.931682529747E-15,-31.21752285801,
    69.913293319418));
#1594 = VECTOR('',#1595,1.);
#1595 = DIRECTION('',(1.,0.,-2.22044604925E-16));
#1596 = ORIENTED_EDGE('',*,*,#818,.T.);
#1597 = ORIENTED_EDGE('',*,*,#1557,.F.);
#1598 = ORIENTED_EDGE('',*,*,#373,.F.);
#1599 = PLANE('',#1600);
#1600 = AXIS2_PLACEMENT_3D('',#1601,#1602,#1603);
#1601 = CARTESIAN_POINT('',(6.931682529747E-15,-31.21752285801,
    69.913293319418));
#1602 = DIRECTION('',(-1.233613728989E-16,0.55557023302,0.831469612303)
  );
#1603 = DIRECTION('',(-1.846233415709E-16,0.831469612303,-0.55557023302)
  );
#1604 = ADVANCED_FACE('',(#1605),#1616,.F.);
#1605 = FACE_BOUND('',#1606,.F.);
#1606 = EDGE_LOOP('',(#1607,#1608,#1609,#1615));
#1607 = ORIENTED_EDGE('',*,*,#1576,.T.);
#1608 = ORIENTED_EDGE('',*,*,#706,.T.);
#1609 = ORIENTED_EDGE('',*,*,#1610,.F.);
#1610 = EDGE_CURVE('',#262,#707,#1611,.T.);
#1611 = LINE('',#1612,#1613);
#1612 = CARTESIAN_POINT('',(7.013657805773E-15,-31.58670668058,
    79.717522858017));
#1613 = VECTOR('',#1614,1.);
#1614 = DIRECTION('',(1.,0.,-2.22044604925E-16));
#1615 = ORIENTED_EDGE('',*,*,#261,.F.);
#1616 = PLANE('',#1617);
#1617 = AXIS2_PLACEMENT_3D('',#1618,#1619,#1620);
#1618 = CARTESIAN_POINT('',(6.975356639488E-15,-31.41421356237,
    79.914213562373));
#1619 = DIRECTION('',(-1.669419730186E-16,0.751839807479,-0.6593458151)
  );
#1620 = DIRECTION('',(1.464041810229E-16,-0.6593458151,-0.751839807479)
  );
#1621 = ADVANCED_FACE('',(#1622),#1633,.F.);
#1622 = FACE_BOUND('',#1623,.F.);
#1623 = EDGE_LOOP('',(#1624,#1630,#1631,#1632));
#1624 = ORIENTED_EDGE('',*,*,#1625,.T.);
#1625 = EDGE_CURVE('',#358,#803,#1626,.T.);
#1626 = LINE('',#1627,#1628);
#1627 = CARTESIAN_POINT('',(6.975356639488E-15,-31.41421356237,
    70.085786437627));
#1628 = VECTOR('',#1629,1.);
#1629 = DIRECTION('',(1.,0.,-2.22044604925E-16));
#1630 = ORIENTED_EDGE('',*,*,#810,.T.);
#1631 = ORIENTED_EDGE('',*,*,#1591,.F.);
#1632 = ORIENTED_EDGE('',*,*,#365,.F.);
#1633 = PLANE('',#1634);
#1634 = AXIS2_PLACEMENT_3D('',#1635,#1636,#1637);
#1635 = CARTESIAN_POINT('',(6.975356639488E-15,-31.41421356237,
    70.085786437627));
#1636 = DIRECTION('',(-1.464041810229E-16,0.6593458151,0.751839807479));
#1637 = DIRECTION('',(-1.669419730186E-16,0.751839807479,-0.6593458151)
  );
#1638 = ADVANCED_FACE('',(#1639),#1650,.F.);
#1639 = FACE_BOUND('',#1640,.F.);
#1640 = EDGE_LOOP('',(#1641,#1642,#1643,#1649));
#1641 = ORIENTED_EDGE('',*,*,#1610,.T.);
#1642 = ORIENTED_EDGE('',*,*,#714,.T.);
#1643 = ORIENTED_EDGE('',*,*,#1644,.F.);
#1644 = EDGE_CURVE('',#270,#715,#1645,.T.);
#1645 = LINE('',#1646,#1647);
#1646 = CARTESIAN_POINT('',(7.045930685028E-15,-31.73205080756,79.5));
#1647 = VECTOR('',#1648,1.);
#1648 = DIRECTION('',(1.,0.,-2.22044604925E-16));
#1649 = ORIENTED_EDGE('',*,*,#269,.F.);
#1650 = PLANE('',#1651);
#1651 = AXIS2_PLACEMENT_3D('',#1652,#1653,#1654);
#1652 = CARTESIAN_POINT('',(7.013657805773E-15,-31.58670668058,
    79.717522858017));
#1653 = DIRECTION('',(-1.846233415709E-16,0.831469612303,-0.55557023302)
  );
#1654 = DIRECTION('',(1.233613728989E-16,-0.55557023302,-0.831469612303)
  );
#1655 = ADVANCED_FACE('',(#1656),#1667,.F.);
#1656 = FACE_BOUND('',#1657,.F.);
#1657 = EDGE_LOOP('',(#1658,#1664,#1665,#1666));
#1658 = ORIENTED_EDGE('',*,*,#1659,.T.);
#1659 = EDGE_CURVE('',#350,#795,#1660,.T.);
#1660 = LINE('',#1661,#1662);
#1661 = CARTESIAN_POINT('',(7.013657805773E-15,-31.58670668058,
    70.282477141983));
#1662 = VECTOR('',#1663,1.);
#1663 = DIRECTION('',(1.,0.,-2.22044604925E-16));
#1664 = ORIENTED_EDGE('',*,*,#802,.T.);
#1665 = ORIENTED_EDGE('',*,*,#1625,.F.);
#1666 = ORIENTED_EDGE('',*,*,#357,.F.);
#1667 = PLANE('',#1668);
#1668 = AXIS2_PLACEMENT_3D('',#1669,#1670,#1671);
#1669 = CARTESIAN_POINT('',(7.013657805773E-15,-31.58670668058,
    70.282477141983));
#1670 = DIRECTION('',(-1.669419730186E-16,0.751839807479,0.6593458151));
#1671 = DIRECTION('',(-1.464041810229E-16,0.6593458151,-0.751839807479)
  );
#1672 = ADVANCED_FACE('',(#1673),#1684,.F.);
#1673 = FACE_BOUND('',#1674,.F.);
#1674 = EDGE_LOOP('',(#1675,#1676,#1677,#1683));
#1675 = ORIENTED_EDGE('',*,*,#1644,.T.);
#1676 = ORIENTED_EDGE('',*,*,#722,.T.);
#1677 = ORIENTED_EDGE('',*,*,#1678,.F.);
#1678 = EDGE_CURVE('',#278,#723,#1679,.T.);
#1679 = LINE('',#1680,#1681);
#1680 = CARTESIAN_POINT('',(7.071623079341E-15,-31.84775906502,
    79.26536686473));
#1681 = VECTOR('',#1682,1.);
#1682 = DIRECTION('',(1.,0.,-2.22044604925E-16));
#1683 = ORIENTED_EDGE('',*,*,#277,.F.);
#1684 = PLANE('',#1685);
#1685 = AXIS2_PLACEMENT_3D('',#1686,#1687,#1688);
#1686 = CARTESIAN_POINT('',(7.045930685028E-15,-31.73205080756,79.5));
#1687 = DIRECTION('',(-1.991457535617E-16,0.896872741533,-0.442288690219
    ));
#1688 = DIRECTION('',(9.820781748249E-17,-0.442288690219,-0.896872741533
    ));
#1689 = ADVANCED_FACE('',(#1690),#1701,.F.);
#1690 = FACE_BOUND('',#1691,.F.);
#1691 = EDGE_LOOP('',(#1692,#1698,#1699,#1700));
#1692 = ORIENTED_EDGE('',*,*,#1693,.T.);
#1693 = EDGE_CURVE('',#342,#787,#1694,.T.);
#1694 = LINE('',#1695,#1696);
#1695 = CARTESIAN_POINT('',(7.045930685028E-15,-31.73205080756,70.5));
#1696 = VECTOR('',#1697,1.);
#1697 = DIRECTION('',(1.,0.,-2.22044604925E-16));
#1698 = ORIENTED_EDGE('',*,*,#794,.T.);
#1699 = ORIENTED_EDGE('',*,*,#1659,.F.);
#1700 = ORIENTED_EDGE('',*,*,#349,.F.);
#1701 = PLANE('',#1702);
#1702 = AXIS2_PLACEMENT_3D('',#1703,#1704,#1705);
#1703 = CARTESIAN_POINT('',(7.045930685028E-15,-31.73205080756,70.5));
#1704 = DIRECTION('',(-1.846233415709E-16,0.831469612303,0.55557023302)
  );
#1705 = DIRECTION('',(-1.233613728989E-16,0.55557023302,-0.831469612303)
  );
#1706 = ADVANCED_FACE('',(#1707),#1718,.F.);
#1707 = FACE_BOUND('',#1708,.F.);
#1708 = EDGE_LOOP('',(#1709,#1710,#1711,#1717));
#1709 = ORIENTED_EDGE('',*,*,#1678,.T.);
#1710 = ORIENTED_EDGE('',*,*,#730,.T.);
#1711 = ORIENTED_EDGE('',*,*,#1712,.F.);
#1712 = EDGE_CURVE('',#286,#731,#1713,.T.);
#1713 = LINE('',#1714,#1715);
#1714 = CARTESIAN_POINT('',(7.090295384721E-15,-31.93185165257,
    79.017638090205));
#1715 = VECTOR('',#1716,1.);
#1716 = DIRECTION('',(1.,0.,-2.22044604925E-16));
#1717 = ORIENTED_EDGE('',*,*,#285,.F.);
#1718 = PLANE('',#1719);
#1719 = AXIS2_PLACEMENT_3D('',#1720,#1721,#1722);
#1720 = CARTESIAN_POINT('',(7.071623079341E-15,-31.84775906502,
    79.26536686473));
#1721 = DIRECTION('',(-2.102607264953E-16,0.946930129495,-0.321439465303
    ));
#1722 = DIRECTION('',(7.137389908055E-17,-0.321439465303,-0.946930129495
    ));
#1723 = ADVANCED_FACE('',(#1724),#1735,.F.);
#1724 = FACE_BOUND('',#1725,.F.);
#1725 = EDGE_LOOP('',(#1726,#1732,#1733,#1734));
#1726 = ORIENTED_EDGE('',*,*,#1727,.T.);
#1727 = EDGE_CURVE('',#334,#779,#1728,.T.);
#1728 = LINE('',#1729,#1730);
#1729 = CARTESIAN_POINT('',(7.071623079341E-15,-31.84775906502,
    70.73463313527));
#1730 = VECTOR('',#1731,1.);
#1731 = DIRECTION('',(1.,0.,-2.22044604925E-16));
#1732 = ORIENTED_EDGE('',*,*,#786,.T.);
#1733 = ORIENTED_EDGE('',*,*,#1693,.F.);
#1734 = ORIENTED_EDGE('',*,*,#341,.F.);
#1735 = PLANE('',#1736);
#1736 = AXIS2_PLACEMENT_3D('',#1737,#1738,#1739);
#1737 = CARTESIAN_POINT('',(7.071623079341E-15,-31.84775906502,
    70.73463313527));
#1738 = DIRECTION('',(-1.991457535617E-16,0.896872741533,0.442288690219)
  );
#1739 = DIRECTION('',(-9.820781748249E-17,0.442288690219,-0.896872741533
    ));
#1740 = ADVANCED_FACE('',(#1741),#1752,.F.);
#1741 = FACE_BOUND('',#1742,.F.);
#1742 = EDGE_LOOP('',(#1743,#1744,#1745,#1751));
#1743 = ORIENTED_EDGE('',*,*,#1712,.T.);
#1744 = ORIENTED_EDGE('',*,*,#738,.T.);
#1745 = ORIENTED_EDGE('',*,*,#1746,.F.);
#1746 = EDGE_CURVE('',#294,#739,#1747,.T.);
#1747 = LINE('',#1748,#1749);
#1748 = CARTESIAN_POINT('',(7.101628112848E-15,-31.98288972274,
    78.76105238444));
#1749 = VECTOR('',#1750,1.);
#1750 = DIRECTION('',(1.,0.,-2.22044604925E-16));
#1751 = ORIENTED_EDGE('',*,*,#293,.F.);
#1752 = PLANE('',#1753);
#1753 = AXIS2_PLACEMENT_3D('',#1754,#1755,#1756);
#1754 = CARTESIAN_POINT('',(7.090295384721E-15,-31.93185165257,
    79.017638090205));
#1755 = DIRECTION('',(-2.177780801034E-16,0.980785280403,-0.195090322016
    ));
#1756 = DIRECTION('',(4.331875347677E-17,-0.195090322016,-0.980785280403
    ));
#1757 = ADVANCED_FACE('',(#1758),#1769,.F.);
#1758 = FACE_BOUND('',#1759,.F.);
#1759 = EDGE_LOOP('',(#1760,#1766,#1767,#1768));
#1760 = ORIENTED_EDGE('',*,*,#1761,.T.);
#1761 = EDGE_CURVE('',#326,#771,#1762,.T.);
#1762 = LINE('',#1763,#1764);
#1763 = CARTESIAN_POINT('',(7.090295384721E-15,-31.93185165257,
    70.982361909795));
#1764 = VECTOR('',#1765,1.);
#1765 = DIRECTION('',(1.,0.,-2.22044604925E-16));
#1766 = ORIENTED_EDGE('',*,*,#778,.T.);
#1767 = ORIENTED_EDGE('',*,*,#1727,.F.);
#1768 = ORIENTED_EDGE('',*,*,#333,.F.);
#1769 = PLANE('',#1770);
#1770 = AXIS2_PLACEMENT_3D('',#1771,#1772,#1773);
#1771 = CARTESIAN_POINT('',(7.090295384721E-15,-31.93185165257,
    70.982361909795));
#1772 = DIRECTION('',(-2.102607264953E-16,0.946930129495,0.321439465303)
  );
#1773 = DIRECTION('',(-7.137389908055E-17,0.321439465303,-0.946930129495
    ));
#1774 = ADVANCED_FACE('',(#1775),#1786,.F.);
#1775 = FACE_BOUND('',#1776,.F.);
#1776 = EDGE_LOOP('',(#1777,#1778,#1779,#1785));
#1777 = ORIENTED_EDGE('',*,*,#1746,.T.);
#1778 = ORIENTED_EDGE('',*,*,#746,.T.);
#1779 = ORIENTED_EDGE('',*,*,#1780,.F.);
#1780 = EDGE_CURVE('',#302,#747,#1781,.T.);
#1781 = LINE('',#1782,#1783);
#1782 = CARTESIAN_POINT('',(7.105427357601E-15,-32.,78.5));
#1783 = VECTOR('',#1784,1.);
#1784 = DIRECTION('',(1.,0.,-2.22044604925E-16));
#1785 = ORIENTED_EDGE('',*,*,#301,.F.);
#1786 = PLANE('',#1787);
#1787 = AXIS2_PLACEMENT_3D('',#1788,#1789,#1790);
#1788 = CARTESIAN_POINT('',(7.101628112848E-15,-31.98288972274,
    78.76105238444));
#1789 = DIRECTION('',(-2.215691903814E-16,0.997858923239,
    -6.540312923014E-02));
#1790 = DIRECTION('',(1.452241199077E-17,-6.540312923014E-02,
    -0.997858923239));
#1791 = ADVANCED_FACE('',(#1792),#1803,.F.);
#1792 = FACE_BOUND('',#1793,.F.);
#1793 = EDGE_LOOP('',(#1794,#1800,#1801,#1802));
#1794 = ORIENTED_EDGE('',*,*,#1795,.T.);
#1795 = EDGE_CURVE('',#318,#763,#1796,.T.);
#1796 = LINE('',#1797,#1798);
#1797 = CARTESIAN_POINT('',(7.101628112848E-15,-31.98288972274,
    71.23894761556));
#1798 = VECTOR('',#1799,1.);
#1799 = DIRECTION('',(1.,0.,-2.22044604925E-16));
#1800 = ORIENTED_EDGE('',*,*,#770,.T.);
#1801 = ORIENTED_EDGE('',*,*,#1761,.F.);
#1802 = ORIENTED_EDGE('',*,*,#325,.F.);
#1803 = PLANE('',#1804);
#1804 = AXIS2_PLACEMENT_3D('',#1805,#1806,#1807);
#1805 = CARTESIAN_POINT('',(7.101628112848E-15,-31.98288972274,
    71.23894761556));
#1806 = DIRECTION('',(-2.177780801034E-16,0.980785280403,0.195090322016)
  );
#1807 = DIRECTION('',(-4.331875347677E-17,0.195090322016,-0.980785280403
    ));
#1808 = ADVANCED_FACE('',(#1809),#1820,.F.);
#1809 = FACE_BOUND('',#1810,.F.);
#1810 = EDGE_LOOP('',(#1811,#1812,#1813,#1819));
#1811 = ORIENTED_EDGE('',*,*,#1780,.T.);
#1812 = ORIENTED_EDGE('',*,*,#754,.T.);
#1813 = ORIENTED_EDGE('',*,*,#1814,.F.);
#1814 = EDGE_CURVE('',#310,#755,#1815,.T.);
#1815 = LINE('',#1816,#1817);
#1816 = CARTESIAN_POINT('',(7.105427357601E-15,-32.,71.5));
#1817 = VECTOR('',#1818,1.);
#1818 = DIRECTION('',(1.,0.,-2.22044604925E-16));
#1819 = ORIENTED_EDGE('',*,*,#309,.F.);
#1820 = PLANE('',#1821);
#1821 = AXIS2_PLACEMENT_3D('',#1822,#1823,#1824);
#1822 = CARTESIAN_POINT('',(7.105427357601E-15,-32.,78.5));
#1823 = DIRECTION('',(-2.22044604925E-16,1.,0.));
#1824 = DIRECTION('',(0.,2.22044604925E-16,-1.));
#1825 = ADVANCED_FACE('',(#1826),#1832,.F.);
#1826 = FACE_BOUND('',#1827,.F.);
#1827 = EDGE_LOOP('',(#1828,#1829,#1830,#1831));
#1828 = ORIENTED_EDGE('',*,*,#1814,.T.);
#1829 = ORIENTED_EDGE('',*,*,#762,.T.);
#1830 = ORIENTED_EDGE('',*,*,#1795,.F.);
#1831 = ORIENTED_EDGE('',*,*,#317,.F.);
#1832 = PLANE('',#1833);
#1833 = AXIS2_PLACEMENT_3D('',#1834,#1835,#1836);
#1834 = CARTESIAN_POINT('',(7.105427357601E-15,-32.,71.5));
#1835 = DIRECTION('',(-2.215691903814E-16,0.997858923239,
    6.540312923014E-02));
#1836 = DIRECTION('',(-1.452241199077E-17,6.540312923014E-02,
    -0.997858923239));
#1837 = ADVANCED_FACE('',(#1838),#1849,.F.);
#1838 = FACE_BOUND('',#1839,.F.);
#1839 = EDGE_LOOP('',(#1840,#1841,#1847,#1848));
#1840 = ORIENTED_EDGE('',*,*,#963,.F.);
#1841 = ORIENTED_EDGE('',*,*,#1842,.F.);
#1842 = EDGE_CURVE('',#519,#964,#1843,.T.);
#1843 = LINE('',#1844,#1845);
#1844 = CARTESIAN_POINT('',(-1.,-30.,73.65));
#1845 = VECTOR('',#1846,1.);
#1846 = DIRECTION('',(1.,0.,0.));
#1847 = ORIENTED_EDGE('',*,*,#518,.T.);
#1848 = ORIENTED_EDGE('',*,*,#1842,.T.);
#1849 = CYLINDRICAL_SURFACE('',#1850,1.15);
#1850 = AXIS2_PLACEMENT_3D('',#1851,#1852,#1853);
#1851 = CARTESIAN_POINT('',(-1.,-30.,72.5));
#1852 = DIRECTION('',(1.,0.,0.));
#1853 = DIRECTION('',(-0.,0.,1.));
#1854 = ADVANCED_FACE('',(#1855),#1866,.F.);
#1855 = FACE_BOUND('',#1856,.F.);
#1856 = EDGE_LOOP('',(#1857,#1858,#1864,#1865));
#1857 = ORIENTED_EDGE('',*,*,#974,.F.);
#1858 = ORIENTED_EDGE('',*,*,#1859,.F.);
#1859 = EDGE_CURVE('',#530,#975,#1860,.T.);
#1860 = LINE('',#1861,#1862);
#1861 = CARTESIAN_POINT('',(-1.,-14.,73.65));
#1862 = VECTOR('',#1863,1.);
#1863 = DIRECTION('',(1.,0.,0.));
#1864 = ORIENTED_EDGE('',*,*,#529,.T.);
#1865 = ORIENTED_EDGE('',*,*,#1859,.T.);
#1866 = CYLINDRICAL_SURFACE('',#1867,1.15);
#1867 = AXIS2_PLACEMENT_3D('',#1868,#1869,#1870);
#1868 = CARTESIAN_POINT('',(-1.,-14.,72.5));
#1869 = DIRECTION('',(1.,0.,0.));
#1870 = DIRECTION('',(-0.,0.,1.));
#1871 = ADVANCED_FACE('',(#1872),#1883,.F.);
#1872 = FACE_BOUND('',#1873,.F.);
#1873 = EDGE_LOOP('',(#1874,#1875,#1881,#1882));
#1874 = ORIENTED_EDGE('',*,*,#985,.F.);
#1875 = ORIENTED_EDGE('',*,*,#1876,.F.);
#1876 = EDGE_CURVE('',#541,#986,#1877,.T.);
#1877 = LINE('',#1878,#1879);
#1878 = CARTESIAN_POINT('',(-1.,-30.,78.65));
#1879 = VECTOR('',#1880,1.);
#1880 = DIRECTION('',(1.,0.,0.));
#1881 = ORIENTED_EDGE('',*,*,#540,.T.);
#1882 = ORIENTED_EDGE('',*,*,#1876,.T.);
#1883 = CYLINDRICAL_SURFACE('',#1884,1.15);
#1884 = AXIS2_PLACEMENT_3D('',#1885,#1886,#1887);
#1885 = CARTESIAN_POINT('',(-1.,-30.,77.5));
#1886 = DIRECTION('',(1.,0.,0.));
#1887 = DIRECTION('',(-0.,0.,1.));
#1888 = ADVANCED_FACE('',(#1889),#1900,.F.);
#1889 = FACE_BOUND('',#1890,.F.);
#1890 = EDGE_LOOP('',(#1891,#1892,#1898,#1899));
#1891 = ORIENTED_EDGE('',*,*,#996,.F.);
#1892 = ORIENTED_EDGE('',*,*,#1893,.F.);
#1893 = EDGE_CURVE('',#552,#997,#1894,.T.);
#1894 = LINE('',#1895,#1896);
#1895 = CARTESIAN_POINT('',(-1.,-14.,78.65));
#1896 = VECTOR('',#1897,1.);
#1897 = DIRECTION('',(1.,0.,0.));
#1898 = ORIENTED_EDGE('',*,*,#551,.T.);
#1899 = ORIENTED_EDGE('',*,*,#1893,.T.);
#1900 = CYLINDRICAL_SURFACE('',#1901,1.15);
#1901 = AXIS2_PLACEMENT_3D('',#1902,#1903,#1904);
#1902 = CARTESIAN_POINT('',(-1.,-14.,77.5));
#1903 = DIRECTION('',(1.,0.,0.));
#1904 = DIRECTION('',(-0.,0.,1.));
#1905 = ( GEOMETRIC_REPRESENTATION_CONTEXT(3) 
GLOBAL_UNCERTAINTY_ASSIGNED_CONTEXT((#1909)) 
GLOBAL_UNIT_ASSIGNED_CONTEXT((#1906,#1907,#1908)) REPRESENTATION_CONTEXT
('Context #1','3D Context with UNIT and UNCERTAINTY') );
#1906 = ( LENGTH_UNIT() NAMED_UNIT(*) SI_UNIT(.MILLI.,.METRE.) );
#1907 = ( NAMED_UNIT(*) PLANE_ANGLE_UNIT() SI_UNIT($,.RADIAN.) );
#1908 = ( NAMED_UNIT(*) SI_UNIT($,.STERADIAN.) SOLID_ANGLE_UNIT() );
#1909 = UNCERTAINTY_MEASURE_WITH_UNIT(LENGTH_MEASURE(1.E-07),#1906,
  'distance_accuracy_value','confusion accuracy');
#1910 = PRODUCT_RELATED_PRODUCT_CATEGORY('part',$,(#7));
ENDSEC;
END-ISO-10303-21;
