0
SECTION
2
HEADER
9
$ACADVER
1
AC1009
9
$INSUNITS
70
4
9
$LTSCALE
40
1.0
9
$EXTMIN
10
0.0000
20
0.0000
30
0.0
9
$EXTMAX
10
841.0000
20
594.0000
30
0.0
0
ENDSEC
0
SECTION
2
TABLES
0
TABLE
2
LTYPE
70
4
0
LTYPE
2
CONTINUOUS
70
0
3
Solid line
72
65
73
0
40
0.0000
0
LTYPE
2
HIDDEN
70
0
3
Hidden __ __ __ __
72
65
73
2
40
3.6000
49
2.4000
49
-1.2000
0
LTYPE
2
CENTER
70
0
3
Center ____ _ ____ _
72
65
73
4
40
11.2000
49
7.0000
49
-1.4000
49
1.4000
49
-1.4000
0
LTYPE
2
PHANTOM
70
0
3
Phantom ____ _ _ ____
72
65
73
6
40
21.0000
49
11.0000
49
-2.0000
49
2.0000
49
-2.0000
49
2.0000
49
-2.0000
0
ENDTAB
0
TABLE
2
LAYER
70
12
0
LAYER
2
0
70
0
62
7
6
CONTINUOUS
0
LAYER
2
VISIBLE
70
0
62
7
6
CONTINUOUS
0
LAYER
2
SECTION
70
0
62
7
6
CONTINUOUS
0
LAYER
2
HIDDEN
70
0
62
8
6
HIDDEN
0
LAYER
2
CENTER
70
0
62
4
6
CENTER
0
LAYER
2
DIM
70
0
62
3
6
CONTINUOUS
0
LAYER
2
TEXT
70
0
62
3
6
CONTINUOUS
0
LAYER
2
HATCH
70
0
62
5
6
CONTINUOUS
0
LAYER
2
CUT
70
0
62
1
6
PHANTOM
0
LAYER
2
CUTTHIN
70
0
62
1
6
PHANTOM
0
LAYER
2
FRAME
70
0
62
7
6
CONTINUOUS
0
LAYER
2
TITLE
70
0
62
7
6
CONTINUOUS
0
ENDTAB
0
ENDSEC
0
SECTION
2
ENTITIES
0
LINE
8
TITLE
10
5.000000
20
5.000000
30
0.0
11
836.000000
21
5.000000
31
0.0
0
LINE
8
TITLE
10
836.000000
20
5.000000
30
0.0
11
836.000000
21
589.000000
31
0.0
0
LINE
8
TITLE
10
836.000000
20
589.000000
30
0.0
11
5.000000
21
589.000000
31
0.0
0
LINE
8
TITLE
10
5.000000
20
589.000000
30
0.0
11
5.000000
21
5.000000
31
0.0
0
LINE
8
FRAME
10
10.000000
20
10.000000
30
0.0
11
831.000000
21
10.000000
31
0.0
0
LINE
8
FRAME
10
831.000000
20
10.000000
30
0.0
11
831.000000
21
584.000000
31
0.0
0
LINE
8
FRAME
10
831.000000
20
584.000000
30
0.0
11
10.000000
21
584.000000
31
0.0
0
LINE
8
FRAME
10
10.000000
20
584.000000
30
0.0
11
10.000000
21
10.000000
31
0.0
0
TEXT
8
TITLE
10
61.312500
20
586.500000
30
0.0
40
3.5000
1
1
72
1
73
2
11
61.312500
21
586.500000
31
0.0
0
TEXT
8
TITLE
10
61.312500
20
7.500000
30
0.0
40
3.5000
1
1
72
1
73
2
11
61.312500
21
7.500000
31
0.0
0
TEXT
8
TITLE
10
163.937500
20
586.500000
30
0.0
40
3.5000
1
2
72
1
73
2
11
163.937500
21
586.500000
31
0.0
0
TEXT
8
TITLE
10
163.937500
20
7.500000
30
0.0
40
3.5000
1
2
72
1
73
2
11
163.937500
21
7.500000
31
0.0
0
LINE
8
TITLE
10
112.625000
20
5.000000
30
0.0
11
112.625000
21
10.000000
31
0.0
0
LINE
8
TITLE
10
112.625000
20
584.000000
30
0.0
11
112.625000
21
589.000000
31
0.0
0
TEXT
8
TITLE
10
266.562500
20
586.500000
30
0.0
40
3.5000
1
3
72
1
73
2
11
266.562500
21
586.500000
31
0.0
0
TEXT
8
TITLE
10
266.562500
20
7.500000
30
0.0
40
3.5000
1
3
72
1
73
2
11
266.562500
21
7.500000
31
0.0
0
LINE
8
TITLE
10
215.250000
20
5.000000
30
0.0
11
215.250000
21
10.000000
31
0.0
0
LINE
8
TITLE
10
215.250000
20
584.000000
30
0.0
11
215.250000
21
589.000000
31
0.0
0
TEXT
8
TITLE
10
369.187500
20
586.500000
30
0.0
40
3.5000
1
4
72
1
73
2
11
369.187500
21
586.500000
31
0.0
0
TEXT
8
TITLE
10
369.187500
20
7.500000
30
0.0
40
3.5000
1
4
72
1
73
2
11
369.187500
21
7.500000
31
0.0
0
LINE
8
TITLE
10
317.875000
20
5.000000
30
0.0
11
317.875000
21
10.000000
31
0.0
0
LINE
8
TITLE
10
317.875000
20
584.000000
30
0.0
11
317.875000
21
589.000000
31
0.0
0
TEXT
8
TITLE
10
471.812500
20
586.500000
30
0.0
40
3.5000
1
5
72
1
73
2
11
471.812500
21
586.500000
31
0.0
0
TEXT
8
TITLE
10
471.812500
20
7.500000
30
0.0
40
3.5000
1
5
72
1
73
2
11
471.812500
21
7.500000
31
0.0
0
LINE
8
TITLE
10
420.500000
20
5.000000
30
0.0
11
420.500000
21
10.000000
31
0.0
0
LINE
8
TITLE
10
420.500000
20
584.000000
30
0.0
11
420.500000
21
589.000000
31
0.0
0
TEXT
8
TITLE
10
574.437500
20
586.500000
30
0.0
40
3.5000
1
6
72
1
73
2
11
574.437500
21
586.500000
31
0.0
0
TEXT
8
TITLE
10
574.437500
20
7.500000
30
0.0
40
3.5000
1
6
72
1
73
2
11
574.437500
21
7.500000
31
0.0
0
LINE
8
TITLE
10
523.125000
20
5.000000
30
0.0
11
523.125000
21
10.000000
31
0.0
0
LINE
8
TITLE
10
523.125000
20
584.000000
30
0.0
11
523.125000
21
589.000000
31
0.0
0
TEXT
8
TITLE
10
677.062500
20
586.500000
30
0.0
40
3.5000
1
7
72
1
73
2
11
677.062500
21
586.500000
31
0.0
0
TEXT
8
TITLE
10
677.062500
20
7.500000
30
0.0
40
3.5000
1
7
72
1
73
2
11
677.062500
21
7.500000
31
0.0
0
LINE
8
TITLE
10
625.750000
20
5.000000
30
0.0
11
625.750000
21
10.000000
31
0.0
0
LINE
8
TITLE
10
625.750000
20
584.000000
30
0.0
11
625.750000
21
589.000000
31
0.0
0
TEXT
8
TITLE
10
779.687500
20
586.500000
30
0.0
40
3.5000
1
8
72
1
73
2
11
779.687500
21
586.500000
31
0.0
0
TEXT
8
TITLE
10
779.687500
20
7.500000
30
0.0
40
3.5000
1
8
72
1
73
2
11
779.687500
21
7.500000
31
0.0
0
LINE
8
TITLE
10
728.375000
20
5.000000
30
0.0
11
728.375000
21
10.000000
31
0.0
0
LINE
8
TITLE
10
728.375000
20
584.000000
30
0.0
11
728.375000
21
589.000000
31
0.0
0
TEXT
8
TITLE
10
7.500000
20
67.400000
30
0.0
40
3.5000
1
E
72
1
73
2
11
7.500000
21
67.400000
31
0.0
0
TEXT
8
TITLE
10
833.500000
20
67.400000
30
0.0
40
3.5000
1
E
72
1
73
2
11
833.500000
21
67.400000
31
0.0
0
TEXT
8
TITLE
10
7.500000
20
182.200000
30
0.0
40
3.5000
1
D
72
1
73
2
11
7.500000
21
182.200000
31
0.0
0
TEXT
8
TITLE
10
833.500000
20
182.200000
30
0.0
40
3.5000
1
D
72
1
73
2
11
833.500000
21
182.200000
31
0.0
0
LINE
8
TITLE
10
5.000000
20
124.800000
30
0.0
11
10.000000
21
124.800000
31
0.0
0
LINE
8
TITLE
10
831.000000
20
124.800000
30
0.0
11
836.000000
21
124.800000
31
0.0
0
TEXT
8
TITLE
10
7.500000
20
297.000000
30
0.0
40
3.5000
1
C
72
1
73
2
11
7.500000
21
297.000000
31
0.0
0
TEXT
8
TITLE
10
833.500000
20
297.000000
30
0.0
40
3.5000
1
C
72
1
73
2
11
833.500000
21
297.000000
31
0.0
0
LINE
8
TITLE
10
5.000000
20
239.600000
30
0.0
11
10.000000
21
239.600000
31
0.0
0
LINE
8
TITLE
10
831.000000
20
239.600000
30
0.0
11
836.000000
21
239.600000
31
0.0
0
TEXT
8
TITLE
10
7.500000
20
411.800000
30
0.0
40
3.5000
1
B
72
1
73
2
11
7.500000
21
411.800000
31
0.0
0
TEXT
8
TITLE
10
833.500000
20
411.800000
30
0.0
40
3.5000
1
B
72
1
73
2
11
833.500000
21
411.800000
31
0.0
0
LINE
8
TITLE
10
5.000000
20
354.400000
30
0.0
11
10.000000
21
354.400000
31
0.0
0
LINE
8
TITLE
10
831.000000
20
354.400000
30
0.0
11
836.000000
21
354.400000
31
0.0
0
TEXT
8
TITLE
10
7.500000
20
526.600000
30
0.0
40
3.5000
1
A
72
1
73
2
11
7.500000
21
526.600000
31
0.0
0
TEXT
8
TITLE
10
833.500000
20
526.600000
30
0.0
40
3.5000
1
A
72
1
73
2
11
833.500000
21
526.600000
31
0.0
0
LINE
8
TITLE
10
5.000000
20
469.200000
30
0.0
11
10.000000
21
469.200000
31
0.0
0
LINE
8
TITLE
10
831.000000
20
469.200000
30
0.0
11
836.000000
21
469.200000
31
0.0
0
LINE
8
VISIBLE
10
398.512000
20
215.730000
30
0.0
11
306.488000
21
215.730000
31
0.0
0
LINE
8
VISIBLE
10
405.246230
20
222.012041
30
0.0
11
398.512000
21
215.730000
31
0.0
0
LINE
8
VISIBLE
10
306.488000
20
215.730000
30
0.0
11
299.753770
21
222.012041
31
0.0
0
LINE
8
VISIBLE
10
405.653915
20
222.453702
30
0.0
11
405.246230
21
222.012041
31
0.0
0
LINE
8
VISIBLE
10
405.991303
20
222.951135
30
0.0
11
405.653915
21
222.453702
31
0.0
0
LINE
8
VISIBLE
10
406.250874
20
223.493255
30
0.0
11
405.991303
21
222.951135
31
0.0
0
LINE
8
VISIBLE
10
299.753770
20
222.012041
30
0.0
11
299.346085
21
222.453702
31
0.0
0
LINE
8
VISIBLE
10
406.426842
20
224.067977
30
0.0
11
406.250874
21
223.493255
31
0.0
0
LINE
8
VISIBLE
10
299.346085
20
222.453702
30
0.0
11
299.008697
21
222.951135
31
0.0
0
LINE
8
VISIBLE
10
406.515287
20
224.662493
30
0.0
11
406.426842
21
224.067977
31
0.0
0
LINE
8
VISIBLE
10
299.008697
20
222.951135
30
0.0
11
298.749126
21
223.493255
31
0.0
0
LINE
8
VISIBLE
10
406.514236
20
225.263550
30
0.0
11
406.515287
21
224.662493
31
0.0
0
LINE
8
VISIBLE
10
298.749126
20
223.493255
30
0.0
11
298.573158
21
224.067977
31
0.0
0
LINE
8
VISIBLE
10
406.423712
20
225.857752
30
0.0
11
406.514236
21
225.263550
31
0.0
0
LINE
8
VISIBLE
10
298.573158
20
224.067977
30
0.0
11
298.484713
21
224.662493
31
0.0
0
LINE
8
VISIBLE
10
406.245735
20
226.431855
30
0.0
11
406.423712
21
225.857752
31
0.0
0
LINE
8
VISIBLE
10
298.484713
20
224.662493
30
0.0
11
298.485764
21
225.263550
31
0.0
0
LINE
8
VISIBLE
10
405.984269
20
226.973064
30
0.0
11
406.245735
21
226.431855
31
0.0
0
LINE
8
VISIBLE
10
298.485764
20
225.263550
30
0.0
11
298.576288
21
225.857752
31
0.0
0
LINE
8
VISIBLE
10
405.645144
20
227.469314
30
0.0
11
405.984269
21
226.973064
31
0.0
0
LINE
8
VISIBLE
10
298.576288
20
225.857752
30
0.0
11
298.754265
21
226.431855
31
0.0
0
LINE
8
VISIBLE
10
405.235917
20
227.909546
30
0.0
11
405.645144
21
227.469314
31
0.0
0
LINE
8
VISIBLE
10
298.754265
20
226.431855
30
0.0
11
299.015731
21
226.973064
31
0.0
0
LINE
8
VISIBLE
10
404.765710
20
228.283947
30
0.0
11
405.235917
21
227.909546
31
0.0
0
LINE
8
VISIBLE
10
299.015731
20
226.973064
30
0.0
11
299.354856
21
227.469314
31
0.0
0
LINE
8
VISIBLE
10
404.245003
20
228.584173
30
0.0
11
404.765710
21
228.283947
31
0.0
0
LINE
8
VISIBLE
10
299.354856
20
227.469314
30
0.0
11
299.764083
21
227.909546
31
0.0
0
LINE
8
VISIBLE
10
403.685403
20
228.803531
30
0.0
11
404.245003
21
228.584173
31
0.0
0
LINE
8
VISIBLE
10
299.764083
20
227.909546
30
0.0
11
300.234290
21
228.283947
31
0.0
0
LINE
8
VISIBLE
10
403.099381
20
228.937133
30
0.0
11
403.685403
21
228.803531
31
0.0
0
LINE
8
VISIBLE
10
300.234290
20
228.283947
30
0.0
11
300.754997
21
228.584173
31
0.0
0
LINE
8
VISIBLE
10
402.500000
20
228.982000
30
0.0
11
403.099381
21
228.937133
31
0.0
0
LINE
8
VISIBLE
10
300.754997
20
228.584173
30
0.0
11
301.314597
21
228.803531
31
0.0
0
LINE
8
VISIBLE
10
376.480000
20
228.982000
30
0.0
11
402.500000
21
228.982000
31
0.0
0
LINE
8
VISIBLE
10
301.314597
20
228.803531
30
0.0
11
301.900619
21
228.937133
31
0.0
0
LINE
8
VISIBLE
10
375.699639
20
228.905141
30
0.0
11
376.480000
21
228.982000
31
0.0
0
LINE
8
VISIBLE
10
301.900619
20
228.937133
30
0.0
11
302.500000
21
228.982000
31
0.0
0
LINE
8
VISIBLE
10
374.949266
20
228.677518
30
0.0
11
375.699639
21
228.905141
31
0.0
0
LINE
8
VISIBLE
10
302.500000
20
228.982000
30
0.0
11
344.520000
21
228.982000
31
0.0
0
LINE
8
VISIBLE
10
374.257719
20
228.307878
30
0.0
11
374.949266
21
228.677518
31
0.0
0
LINE
8
VISIBLE
10
344.520000
20
228.982000
30
0.0
11
345.300361
21
228.905141
31
0.0
0
LINE
8
VISIBLE
10
373.651573
20
227.810427
30
0.0
11
374.257719
21
228.307878
31
0.0
0
LINE
8
VISIBLE
10
345.300361
20
228.905141
30
0.0
11
346.050734
21
228.677518
31
0.0
0
LINE
8
VISIBLE
10
373.154122
20
227.204281
30
0.0
11
373.651573
21
227.810427
31
0.0
0
LINE
8
VISIBLE
10
346.050734
20
228.677518
30
0.0
11
346.742281
21
228.307878
31
0.0
0
LINE
8
VISIBLE
10
372.784482
20
226.512734
30
0.0
11
373.154122
21
227.204281
31
0.0
0
LINE
8
VISIBLE
10
346.742281
20
228.307878
30
0.0
11
347.348427
21
227.810427
31
0.0
0
LINE
8
VISIBLE
10
372.556859
20
225.762361
30
0.0
11
372.784482
21
226.512734
31
0.0
0
LINE
8
VISIBLE
10
347.348427
20
227.810427
30
0.0
11
347.845878
21
227.204281
31
0.0
0
LINE
8
VISIBLE
10
372.480000
20
224.982000
30
0.0
11
372.556859
21
225.762361
31
0.0
0
LINE
8
VISIBLE
10
347.845878
20
227.204281
30
0.0
11
348.215518
21
226.512734
31
0.0
0
LINE
8
VISIBLE
10
372.480000
20
223.990000
30
0.0
11
372.480000
21
224.982000
31
0.0
0
LINE
8
VISIBLE
10
348.215518
20
226.512734
30
0.0
11
348.443141
21
225.762361
31
0.0
0
LINE
8
VISIBLE
10
372.411852
20
223.472362
30
0.0
11
372.480000
21
223.990000
31
0.0
0
LINE
8
VISIBLE
10
348.443141
20
225.762361
30
0.0
11
348.520000
21
224.982000
31
0.0
0
LINE
8
VISIBLE
10
372.212051
20
222.990000
30
0.0
11
372.411852
21
223.472362
31
0.0
0
LINE
8
VISIBLE
10
348.520000
20
224.982000
30
0.0
11
348.520000
21
223.990000
31
0.0
0
LINE
8
VISIBLE
10
371.894214
20
222.575786
30
0.0
11
372.212051
21
222.990000
31
0.0
0
LINE
8
VISIBLE
10
348.520000
20
223.990000
30
0.0
11
348.588148
21
223.472362
31
0.0
0
LINE
8
VISIBLE
10
371.480000
20
222.257949
30
0.0
11
371.894214
21
222.575786
31
0.0
0
LINE
8
VISIBLE
10
348.588148
20
223.472362
30
0.0
11
348.787949
21
222.990000
31
0.0
0
LINE
8
VISIBLE
10
370.997638
20
222.058148
30
0.0
11
371.480000
21
222.257949
31
0.0
0
LINE
8
VISIBLE
10
348.787949
20
222.990000
30
0.0
11
349.105786
21
222.575786
31
0.0
0
LINE
8
VISIBLE
10
370.480000
20
221.990000
30
0.0
11
370.997638
21
222.058148
31
0.0
0
LINE
8
VISIBLE
10
349.105786
20
222.575786
30
0.0
11
349.520000
21
222.257949
31
0.0
0
LINE
8
VISIBLE
10
350.520000
20
221.990000
30
0.0
11
370.480000
21
221.990000
31
0.0
0
LINE
8
VISIBLE
10
349.520000
20
222.257949
30
0.0
11
350.002362
21
222.058148
31
0.0
0
LINE
8
VISIBLE
10
350.002362
20
222.058148
30
0.0
11
350.520000
21
221.990000
31
0.0
0
CIRCLE
8
VISIBLE
10
402.500000
20
224.956000
30
0.0
40
2.174000
0
CIRCLE
8
VISIBLE
10
302.500000
20
224.956000
30
0.0
40
2.174000
0
LINE
8
VISIBLE
10
388.766000
20
215.790000
30
0.0
11
383.834000
21
215.790000
31
0.0
0
LINE
8
VISIBLE
10
383.834000
20
215.790000
30
0.0
11
383.834000
21
219.722000
31
0.0
0
LINE
8
VISIBLE
10
388.766000
20
215.790000
30
0.0
11
388.766000
21
219.722000
31
0.0
0
LINE
8
VISIBLE
10
388.766000
20
219.722000
30
0.0
11
383.834000
21
219.722000
31
0.0
0
LINE
8
VISIBLE
10
321.166000
20
215.790000
30
0.0
11
316.234000
21
215.790000
31
0.0
0
LINE
8
VISIBLE
10
316.234000
20
215.790000
30
0.0
11
316.234000
21
219.722000
31
0.0
0
LINE
8
VISIBLE
10
321.166000
20
219.722000
30
0.0
11
316.234000
21
219.722000
31
0.0
0
LINE
8
VISIBLE
10
321.166000
20
215.790000
30
0.0
11
321.166000
21
219.722000
31
0.0
0
LINE
8
VISIBLE
10
306.488000
20
299.157000
30
0.0
11
306.488000
21
302.157000
31
0.0
0
LINE
8
VISIBLE
10
398.512000
20
299.157000
30
0.0
11
398.512000
21
302.157000
31
0.0
0
LINE
8
VISIBLE
10
306.488000
20
299.157000
30
0.0
11
398.512000
21
299.157000
31
0.0
0
LINE
8
VISIBLE
10
306.488000
20
302.157000
30
0.0
11
398.512000
21
302.157000
31
0.0
0
LINE
8
VISIBLE
10
299.753770
20
299.157000
30
0.0
11
299.753770
21
302.157000
31
0.0
0
LINE
8
VISIBLE
10
299.753770
20
299.157000
30
0.0
11
306.488000
21
299.157000
31
0.0
0
LINE
8
VISIBLE
10
299.753770
20
302.157000
30
0.0
11
306.488000
21
302.157000
31
0.0
0
LINE
8
VISIBLE
10
405.246230
20
299.157000
30
0.0
11
405.246230
21
302.157000
31
0.0
0
LINE
8
VISIBLE
10
398.512000
20
299.157000
30
0.0
11
405.246230
21
299.157000
31
0.0
0
LINE
8
VISIBLE
10
398.512000
20
302.157000
30
0.0
11
405.246230
21
302.157000
31
0.0
0
LINE
8
VISIBLE
10
299.346085
20
299.157000
30
0.0
11
299.753770
21
299.157000
31
0.0
0
LINE
8
VISIBLE
10
299.008697
20
299.157000
30
0.0
11
299.346085
21
299.157000
31
0.0
0
LINE
8
VISIBLE
10
298.749126
20
299.157000
30
0.0
11
299.008697
21
299.157000
31
0.0
0
LINE
8
VISIBLE
10
405.246230
20
299.157000
30
0.0
11
405.653915
21
299.157000
31
0.0
0
LINE
8
VISIBLE
10
298.573158
20
299.157000
30
0.0
11
298.749126
21
299.157000
31
0.0
0
LINE
8
VISIBLE
10
405.653915
20
299.157000
30
0.0
11
405.991303
21
299.157000
31
0.0
0
LINE
8
VISIBLE
10
298.484713
20
299.157000
30
0.0
11
298.573158
21
299.157000
31
0.0
0
LINE
8
VISIBLE
10
405.991303
20
299.157000
30
0.0
11
406.250874
21
299.157000
31
0.0
0
LINE
8
VISIBLE
10
406.250874
20
299.157000
30
0.0
11
406.426842
21
299.157000
31
0.0
0
LINE
8
VISIBLE
10
406.426842
20
299.157000
30
0.0
11
406.515287
21
299.157000
31
0.0
0
LINE
8
VISIBLE
10
299.346085
20
302.157000
30
0.0
11
299.753770
21
302.157000
31
0.0
0
LINE
8
VISIBLE
10
299.008697
20
302.157000
30
0.0
11
299.346085
21
302.157000
31
0.0
0
LINE
8
VISIBLE
10
298.749126
20
302.157000
30
0.0
11
299.008697
21
302.157000
31
0.0
0
LINE
8
VISIBLE
10
405.246230
20
302.157000
30
0.0
11
405.653915
21
302.157000
31
0.0
0
LINE
8
VISIBLE
10
298.573158
20
302.157000
30
0.0
11
298.749126
21
302.157000
31
0.0
0
LINE
8
VISIBLE
10
405.653915
20
302.157000
30
0.0
11
405.991303
21
302.157000
31
0.0
0
LINE
8
VISIBLE
10
298.484713
20
302.157000
30
0.0
11
298.573158
21
302.157000
31
0.0
0
LINE
8
VISIBLE
10
405.991303
20
302.157000
30
0.0
11
406.250874
21
302.157000
31
0.0
0
LINE
8
VISIBLE
10
406.250874
20
302.157000
30
0.0
11
406.426842
21
302.157000
31
0.0
0
LINE
8
VISIBLE
10
406.426842
20
302.157000
30
0.0
11
406.515287
21
302.157000
31
0.0
0
LINE
8
VISIBLE
10
299.346085
20
299.157000
30
0.0
11
299.346085
21
302.157000
31
0.0
0
LINE
8
VISIBLE
10
405.653915
20
299.157000
30
0.0
11
405.653915
21
302.157000
31
0.0
0
LINE
8
VISIBLE
10
299.008697
20
299.157000
30
0.0
11
299.008697
21
302.157000
31
0.0
0
LINE
8
VISIBLE
10
298.749126
20
299.157000
30
0.0
11
298.749126
21
302.157000
31
0.0
0
LINE
8
VISIBLE
10
298.573158
20
299.157000
30
0.0
11
298.573158
21
302.157000
31
0.0
0
LINE
8
VISIBLE
10
405.991303
20
299.157000
30
0.0
11
405.991303
21
302.157000
31
0.0
0
LINE
8
VISIBLE
10
298.484713
20
299.157000
30
0.0
11
298.484713
21
302.157000
31
0.0
0
LINE
8
VISIBLE
10
406.250874
20
299.157000
30
0.0
11
406.250874
21
302.157000
31
0.0
0
LINE
8
VISIBLE
10
406.426842
20
299.157000
30
0.0
11
406.426842
21
302.157000
31
0.0
0
LINE
8
VISIBLE
10
406.515287
20
299.157000
30
0.0
11
406.515287
21
302.157000
31
0.0
0
LINE
8
VISIBLE
10
316.234000
20
294.557000
30
0.0
11
316.234000
21
299.157000
31
0.0
0
LINE
8
VISIBLE
10
321.166000
20
294.557000
30
0.0
11
321.166000
21
299.157000
31
0.0
0
LINE
8
VISIBLE
10
316.234000
20
294.557000
30
0.0
11
321.166000
21
294.557000
31
0.0
0
LINE
8
VISIBLE
10
383.834000
20
294.557000
30
0.0
11
383.834000
21
299.157000
31
0.0
0
LINE
8
VISIBLE
10
388.766000
20
294.557000
30
0.0
11
388.766000
21
299.157000
31
0.0
0
LINE
8
VISIBLE
10
383.834000
20
294.557000
30
0.0
11
388.766000
21
294.557000
31
0.0
0
LINE
8
HIDDEN
10
298.485764
20
299.157000
30
0.0
11
298.484713
21
299.157000
31
0.0
0
LINE
8
HIDDEN
10
298.576288
20
299.157000
30
0.0
11
298.485764
21
299.157000
31
0.0
0
LINE
8
HIDDEN
10
298.754265
20
299.157000
30
0.0
11
298.576288
21
299.157000
31
0.0
0
LINE
8
HIDDEN
10
406.515287
20
299.157000
30
0.0
11
406.514236
21
299.157000
31
0.0
0
LINE
8
HIDDEN
10
299.015731
20
299.157000
30
0.0
11
298.754265
21
299.157000
31
0.0
0
LINE
8
HIDDEN
10
406.514236
20
299.157000
30
0.0
11
406.423712
21
299.157000
31
0.0
0
LINE
8
HIDDEN
10
299.354856
20
299.157000
30
0.0
11
299.015731
21
299.157000
31
0.0
0
LINE
8
HIDDEN
10
406.423712
20
299.157000
30
0.0
11
406.245735
21
299.157000
31
0.0
0
LINE
8
HIDDEN
10
299.764083
20
299.157000
30
0.0
11
299.354856
21
299.157000
31
0.0
0
LINE
8
HIDDEN
10
406.245735
20
299.157000
30
0.0
11
405.984269
21
299.157000
31
0.0
0
LINE
8
HIDDEN
10
300.234290
20
299.157000
30
0.0
11
299.764083
21
299.157000
31
0.0
0
LINE
8
HIDDEN
10
405.984269
20
299.157000
30
0.0
11
405.645144
21
299.157000
31
0.0
0
LINE
8
HIDDEN
10
300.754997
20
299.157000
30
0.0
11
300.234290
21
299.157000
31
0.0
0
LINE
8
HIDDEN
10
405.645144
20
299.157000
30
0.0
11
405.235917
21
299.157000
31
0.0
0
LINE
8
HIDDEN
10
301.314597
20
299.157000
30
0.0
11
300.754997
21
299.157000
31
0.0
0
LINE
8
HIDDEN
10
405.235917
20
299.157000
30
0.0
11
404.765710
21
299.157000
31
0.0
0
LINE
8
HIDDEN
10
301.900619
20
299.157000
30
0.0
11
301.314597
21
299.157000
31
0.0
0
LINE
8
HIDDEN
10
404.765710
20
299.157000
30
0.0
11
404.245003
21
299.157000
31
0.0
0
LINE
8
HIDDEN
10
302.500000
20
299.157000
30
0.0
11
301.900619
21
299.157000
31
0.0
0
LINE
8
HIDDEN
10
404.245003
20
299.157000
30
0.0
11
403.685403
21
299.157000
31
0.0
0
LINE
8
HIDDEN
10
328.520000
20
299.157000
30
0.0
11
302.500000
21
299.157000
31
0.0
0
LINE
8
HIDDEN
10
403.685403
20
299.157000
30
0.0
11
403.099381
21
299.157000
31
0.0
0
LINE
8
HIDDEN
10
329.300361
20
299.157000
30
0.0
11
328.520000
21
299.157000
31
0.0
0
LINE
8
HIDDEN
10
403.099381
20
299.157000
30
0.0
11
402.500000
21
299.157000
31
0.0
0
LINE
8
HIDDEN
10
330.050734
20
299.157000
30
0.0
11
329.300361
21
299.157000
31
0.0
0
LINE
8
HIDDEN
10
402.500000
20
299.157000
30
0.0
11
360.480000
21
299.157000
31
0.0
0
LINE
8
HIDDEN
10
330.742281
20
299.157000
30
0.0
11
330.050734
21
299.157000
31
0.0
0
LINE
8
HIDDEN
10
360.480000
20
299.157000
30
0.0
11
359.699639
21
299.157000
31
0.0
0
LINE
8
HIDDEN
10
331.348427
20
299.157000
30
0.0
11
330.742281
21
299.157000
31
0.0
0
LINE
8
HIDDEN
10
359.699639
20
299.157000
30
0.0
11
358.949266
21
299.157000
31
0.0
0
LINE
8
HIDDEN
10
331.845878
20
299.157000
30
0.0
11
331.348427
21
299.157000
31
0.0
0
LINE
8
HIDDEN
10
358.949266
20
299.157000
30
0.0
11
358.257719
21
299.157000
31
0.0
0
LINE
8
HIDDEN
10
332.215518
20
299.157000
30
0.0
11
331.845878
21
299.157000
31
0.0
0
LINE
8
HIDDEN
10
358.257719
20
299.157000
30
0.0
11
357.651573
21
299.157000
31
0.0
0
LINE
8
HIDDEN
10
332.443141
20
299.157000
30
0.0
11
332.215518
21
299.157000
31
0.0
0
LINE
8
HIDDEN
10
357.651573
20
299.157000
30
0.0
11
357.154122
21
299.157000
31
0.0
0
LINE
8
HIDDEN
10
332.520000
20
299.157000
30
0.0
11
332.443141
21
299.157000
31
0.0
0
LINE
8
HIDDEN
10
357.154122
20
299.157000
30
0.0
11
356.784482
21
299.157000
31
0.0
0
LINE
8
HIDDEN
10
356.784482
20
299.157000
30
0.0
11
356.556859
21
299.157000
31
0.0
0
LINE
8
HIDDEN
10
332.588148
20
299.157000
30
0.0
11
332.520000
21
299.157000
31
0.0
0
LINE
8
HIDDEN
10
356.556859
20
299.157000
30
0.0
11
356.480000
21
299.157000
31
0.0
0
LINE
8
HIDDEN
10
332.787949
20
299.157000
30
0.0
11
332.588148
21
299.157000
31
0.0
0
LINE
8
HIDDEN
10
333.105786
20
299.157000
30
0.0
11
332.787949
21
299.157000
31
0.0
0
LINE
8
HIDDEN
10
356.480000
20
299.157000
30
0.0
11
356.411852
21
299.157000
31
0.0
0
LINE
8
HIDDEN
10
333.520000
20
299.157000
30
0.0
11
333.105786
21
299.157000
31
0.0
0
LINE
8
HIDDEN
10
356.411852
20
299.157000
30
0.0
11
356.212051
21
299.157000
31
0.0
0
LINE
8
HIDDEN
10
334.002362
20
299.157000
30
0.0
11
333.520000
21
299.157000
31
0.0
0
LINE
8
HIDDEN
10
356.212051
20
299.157000
30
0.0
11
355.894214
21
299.157000
31
0.0
0
LINE
8
HIDDEN
10
334.520000
20
299.157000
30
0.0
11
334.002362
21
299.157000
31
0.0
0
LINE
8
HIDDEN
10
355.894214
20
299.157000
30
0.0
11
355.480000
21
299.157000
31
0.0
0
LINE
8
HIDDEN
10
354.480000
20
299.157000
30
0.0
11
334.520000
21
299.157000
31
0.0
0
LINE
8
HIDDEN
10
355.480000
20
299.157000
30
0.0
11
354.997638
21
299.157000
31
0.0
0
LINE
8
HIDDEN
10
354.997638
20
299.157000
30
0.0
11
354.480000
21
299.157000
31
0.0
0
LINE
8
HIDDEN
10
302.500000
20
299.157000
30
0.0
11
304.674000
21
299.157000
31
0.0
0
LINE
8
HIDDEN
10
304.674000
20
299.157000
30
0.0
11
300.326000
21
299.157000
31
0.0
0
LINE
8
HIDDEN
10
300.326000
20
299.157000
30
0.0
11
302.500000
21
299.157000
31
0.0
0
LINE
8
HIDDEN
10
321.166000
20
299.157000
30
0.0
11
316.234000
21
299.157000
31
0.0
0
LINE
8
HIDDEN
10
321.166000
20
299.157000
30
0.0
11
316.234000
21
299.157000
31
0.0
0
LINE
8
HIDDEN
10
402.500000
20
299.157000
30
0.0
11
404.674000
21
299.157000
31
0.0
0
LINE
8
HIDDEN
10
404.674000
20
299.157000
30
0.0
11
400.326000
21
299.157000
31
0.0
0
LINE
8
HIDDEN
10
400.326000
20
299.157000
30
0.0
11
402.500000
21
299.157000
31
0.0
0
LINE
8
HIDDEN
10
388.766000
20
299.157000
30
0.0
11
383.834000
21
299.157000
31
0.0
0
LINE
8
HIDDEN
10
388.766000
20
299.157000
30
0.0
11
383.834000
21
299.157000
31
0.0
0
LINE
8
HIDDEN
10
298.485764
20
302.157000
30
0.0
11
298.484713
21
302.157000
31
0.0
0
LINE
8
HIDDEN
10
298.576288
20
302.157000
30
0.0
11
298.485764
21
302.157000
31
0.0
0
LINE
8
HIDDEN
10
298.754265
20
302.157000
30
0.0
11
298.576288
21
302.157000
31
0.0
0
LINE
8
HIDDEN
10
406.515287
20
302.157000
30
0.0
11
406.514236
21
302.157000
31
0.0
0
LINE
8
HIDDEN
10
299.015731
20
302.157000
30
0.0
11
298.754265
21
302.157000
31
0.0
0
LINE
8
HIDDEN
10
406.514236
20
302.157000
30
0.0
11
406.423712
21
302.157000
31
0.0
0
LINE
8
HIDDEN
10
299.354856
20
302.157000
30
0.0
11
299.015731
21
302.157000
31
0.0
0
LINE
8
HIDDEN
10
406.423712
20
302.157000
30
0.0
11
406.245735
21
302.157000
31
0.0
0
LINE
8
HIDDEN
10
299.764083
20
302.157000
30
0.0
11
299.354856
21
302.157000
31
0.0
0
LINE
8
HIDDEN
10
406.245735
20
302.157000
30
0.0
11
405.984269
21
302.157000
31
0.0
0
LINE
8
HIDDEN
10
300.234290
20
302.157000
30
0.0
11
299.764083
21
302.157000
31
0.0
0
LINE
8
HIDDEN
10
405.984269
20
302.157000
30
0.0
11
405.645144
21
302.157000
31
0.0
0
LINE
8
HIDDEN
10
300.754997
20
302.157000
30
0.0
11
300.234290
21
302.157000
31
0.0
0
LINE
8
HIDDEN
10
405.645144
20
302.157000
30
0.0
11
405.235917
21
302.157000
31
0.0
0
LINE
8
HIDDEN
10
301.314597
20
302.157000
30
0.0
11
300.754997
21
302.157000
31
0.0
0
LINE
8
HIDDEN
10
405.235917
20
302.157000
30
0.0
11
404.765710
21
302.157000
31
0.0
0
LINE
8
HIDDEN
10
301.900619
20
302.157000
30
0.0
11
301.314597
21
302.157000
31
0.0
0
LINE
8
HIDDEN
10
404.765710
20
302.157000
30
0.0
11
404.245003
21
302.157000
31
0.0
0
LINE
8
HIDDEN
10
302.500000
20
302.157000
30
0.0
11
301.900619
21
302.157000
31
0.0
0
LINE
8
HIDDEN
10
404.245003
20
302.157000
30
0.0
11
403.685403
21
302.157000
31
0.0
0
LINE
8
HIDDEN
10
328.520000
20
302.157000
30
0.0
11
302.500000
21
302.157000
31
0.0
0
LINE
8
HIDDEN
10
403.685403
20
302.157000
30
0.0
11
403.099381
21
302.157000
31
0.0
0
LINE
8
HIDDEN
10
329.300361
20
302.157000
30
0.0
11
328.520000
21
302.157000
31
0.0
0
LINE
8
HIDDEN
10
403.099381
20
302.157000
30
0.0
11
402.500000
21
302.157000
31
0.0
0
LINE
8
HIDDEN
10
330.050734
20
302.157000
30
0.0
11
329.300361
21
302.157000
31
0.0
0
LINE
8
HIDDEN
10
402.500000
20
302.157000
30
0.0
11
360.480000
21
302.157000
31
0.0
0
LINE
8
HIDDEN
10
330.742281
20
302.157000
30
0.0
11
330.050734
21
302.157000
31
0.0
0
LINE
8
HIDDEN
10
360.480000
20
302.157000
30
0.0
11
359.699639
21
302.157000
31
0.0
0
LINE
8
HIDDEN
10
331.348427
20
302.157000
30
0.0
11
330.742281
21
302.157000
31
0.0
0
LINE
8
HIDDEN
10
359.699639
20
302.157000
30
0.0
11
358.949266
21
302.157000
31
0.0
0
LINE
8
HIDDEN
10
331.845878
20
302.157000
30
0.0
11
331.348427
21
302.157000
31
0.0
0
LINE
8
HIDDEN
10
358.949266
20
302.157000
30
0.0
11
358.257719
21
302.157000
31
0.0
0
LINE
8
HIDDEN
10
332.215518
20
302.157000
30
0.0
11
331.845878
21
302.157000
31
0.0
0
LINE
8
HIDDEN
10
358.257719
20
302.157000
30
0.0
11
357.651573
21
302.157000
31
0.0
0
LINE
8
HIDDEN
10
332.443141
20
302.157000
30
0.0
11
332.215518
21
302.157000
31
0.0
0
LINE
8
HIDDEN
10
357.651573
20
302.157000
30
0.0
11
357.154122
21
302.157000
31
0.0
0
LINE
8
HIDDEN
10
332.520000
20
302.157000
30
0.0
11
332.443141
21
302.157000
31
0.0
0
LINE
8
HIDDEN
10
357.154122
20
302.157000
30
0.0
11
356.784482
21
302.157000
31
0.0
0
LINE
8
HIDDEN
10
356.784482
20
302.157000
30
0.0
11
356.556859
21
302.157000
31
0.0
0
LINE
8
HIDDEN
10
332.588148
20
302.157000
30
0.0
11
332.520000
21
302.157000
31
0.0
0
LINE
8
HIDDEN
10
356.556859
20
302.157000
30
0.0
11
356.480000
21
302.157000
31
0.0
0
LINE
8
HIDDEN
10
332.787949
20
302.157000
30
0.0
11
332.588148
21
302.157000
31
0.0
0
LINE
8
HIDDEN
10
333.105786
20
302.157000
30
0.0
11
332.787949
21
302.157000
31
0.0
0
LINE
8
HIDDEN
10
356.480000
20
302.157000
30
0.0
11
356.411852
21
302.157000
31
0.0
0
LINE
8
HIDDEN
10
333.520000
20
302.157000
30
0.0
11
333.105786
21
302.157000
31
0.0
0
LINE
8
HIDDEN
10
356.411852
20
302.157000
30
0.0
11
356.212051
21
302.157000
31
0.0
0
LINE
8
HIDDEN
10
334.002362
20
302.157000
30
0.0
11
333.520000
21
302.157000
31
0.0
0
LINE
8
HIDDEN
10
356.212051
20
302.157000
30
0.0
11
355.894214
21
302.157000
31
0.0
0
LINE
8
HIDDEN
10
334.520000
20
302.157000
30
0.0
11
334.002362
21
302.157000
31
0.0
0
LINE
8
HIDDEN
10
355.894214
20
302.157000
30
0.0
11
355.480000
21
302.157000
31
0.0
0
LINE
8
HIDDEN
10
354.480000
20
302.157000
30
0.0
11
334.520000
21
302.157000
31
0.0
0
LINE
8
HIDDEN
10
355.480000
20
302.157000
30
0.0
11
354.997638
21
302.157000
31
0.0
0
LINE
8
HIDDEN
10
354.997638
20
302.157000
30
0.0
11
354.480000
21
302.157000
31
0.0
0
LINE
8
HIDDEN
10
302.500000
20
302.157000
30
0.0
11
304.674000
21
302.157000
31
0.0
0
LINE
8
HIDDEN
10
304.674000
20
302.157000
30
0.0
11
300.326000
21
302.157000
31
0.0
0
LINE
8
HIDDEN
10
300.326000
20
302.157000
30
0.0
11
302.500000
21
302.157000
31
0.0
0
LINE
8
HIDDEN
10
402.500000
20
302.157000
30
0.0
11
404.674000
21
302.157000
31
0.0
0
LINE
8
HIDDEN
10
404.674000
20
302.157000
30
0.0
11
400.326000
21
302.157000
31
0.0
0
LINE
8
HIDDEN
10
400.326000
20
302.157000
30
0.0
11
402.500000
21
302.157000
31
0.0
0
LINE
8
HIDDEN
10
298.485764
20
299.157000
30
0.0
11
298.485764
21
302.157000
31
0.0
0
LINE
8
HIDDEN
10
298.576288
20
299.157000
30
0.0
11
298.576288
21
302.157000
31
0.0
0
LINE
8
HIDDEN
10
298.754265
20
299.157000
30
0.0
11
298.754265
21
302.157000
31
0.0
0
LINE
8
HIDDEN
10
406.514236
20
299.157000
30
0.0
11
406.514236
21
302.157000
31
0.0
0
LINE
8
HIDDEN
10
299.015731
20
299.157000
30
0.0
11
299.015731
21
302.157000
31
0.0
0
LINE
8
HIDDEN
10
406.423712
20
299.157000
30
0.0
11
406.423712
21
302.157000
31
0.0
0
LINE
8
HIDDEN
10
299.354856
20
299.157000
30
0.0
11
299.354856
21
302.157000
31
0.0
0
LINE
8
HIDDEN
10
406.245735
20
299.157000
30
0.0
11
406.245735
21
302.157000
31
0.0
0
LINE
8
HIDDEN
10
299.764083
20
299.157000
30
0.0
11
299.764083
21
302.157000
31
0.0
0
LINE
8
HIDDEN
10
405.984269
20
299.157000
30
0.0
11
405.984269
21
302.157000
31
0.0
0
LINE
8
HIDDEN
10
300.234290
20
299.157000
30
0.0
11
300.234290
21
302.157000
31
0.0
0
LINE
8
HIDDEN
10
405.645144
20
299.157000
30
0.0
11
405.645144
21
302.157000
31
0.0
0
LINE
8
HIDDEN
10
300.754997
20
299.157000
30
0.0
11
300.754997
21
302.157000
31
0.0
0
LINE
8
HIDDEN
10
405.235917
20
299.157000
30
0.0
11
405.235917
21
302.157000
31
0.0
0
LINE
8
HIDDEN
10
301.314597
20
299.157000
30
0.0
11
301.314597
21
302.157000
31
0.0
0
LINE
8
HIDDEN
10
404.765710
20
299.157000
30
0.0
11
404.765710
21
302.157000
31
0.0
0
LINE
8
HIDDEN
10
301.900619
20
299.157000
30
0.0
11
301.900619
21
302.157000
31
0.0
0
LINE
8
HIDDEN
10
404.245003
20
299.157000
30
0.0
11
404.245003
21
302.157000
31
0.0
0
LINE
8
HIDDEN
10
302.500000
20
299.157000
30
0.0
11
302.500000
21
302.157000
31
0.0
0
LINE
8
HIDDEN
10
403.685403
20
299.157000
30
0.0
11
403.685403
21
302.157000
31
0.0
0
LINE
8
HIDDEN
10
328.520000
20
299.157000
30
0.0
11
328.520000
21
302.157000
31
0.0
0
LINE
8
HIDDEN
10
403.099381
20
299.157000
30
0.0
11
403.099381
21
302.157000
31
0.0
0
LINE
8
HIDDEN
10
329.300361
20
299.157000
30
0.0
11
329.300361
21
302.157000
31
0.0
0
LINE
8
HIDDEN
10
402.500000
20
299.157000
30
0.0
11
402.500000
21
302.157000
31
0.0
0
LINE
8
HIDDEN
10
330.050734
20
299.157000
30
0.0
11
330.050734
21
302.157000
31
0.0
0
LINE
8
HIDDEN
10
360.480000
20
299.157000
30
0.0
11
360.480000
21
302.157000
31
0.0
0
LINE
8
HIDDEN
10
330.742281
20
299.157000
30
0.0
11
330.742281
21
302.157000
31
0.0
0
LINE
8
HIDDEN
10
359.699639
20
299.157000
30
0.0
11
359.699639
21
302.157000
31
0.0
0
LINE
8
HIDDEN
10
331.348427
20
299.157000
30
0.0
11
331.348427
21
302.157000
31
0.0
0
LINE
8
HIDDEN
10
358.949266
20
299.157000
30
0.0
11
358.949266
21
302.157000
31
0.0
0
LINE
8
HIDDEN
10
331.845878
20
299.157000
30
0.0
11
331.845878
21
302.157000
31
0.0
0
LINE
8
HIDDEN
10
358.257719
20
299.157000
30
0.0
11
358.257719
21
302.157000
31
0.0
0
LINE
8
HIDDEN
10
332.215518
20
299.157000
30
0.0
11
332.215518
21
302.157000
31
0.0
0
LINE
8
HIDDEN
10
357.651573
20
299.157000
30
0.0
11
357.651573
21
302.157000
31
0.0
0
LINE
8
HIDDEN
10
332.443141
20
299.157000
30
0.0
11
332.443141
21
302.157000
31
0.0
0
LINE
8
HIDDEN
10
357.154122
20
299.157000
30
0.0
11
357.154122
21
302.157000
31
0.0
0
LINE
8
HIDDEN
10
332.520000
20
299.157000
30
0.0
11
332.520000
21
302.157000
31
0.0
0
LINE
8
HIDDEN
10
356.784482
20
299.157000
30
0.0
11
356.784482
21
302.157000
31
0.0
0
LINE
8
HIDDEN
10
332.520000
20
299.157000
30
0.0
11
332.520000
21
302.157000
31
0.0
0
LINE
8
HIDDEN
10
356.556859
20
299.157000
30
0.0
11
356.556859
21
302.157000
31
0.0
0
LINE
8
HIDDEN
10
332.588148
20
299.157000
30
0.0
11
332.588148
21
302.157000
31
0.0
0
LINE
8
HIDDEN
10
356.480000
20
299.157000
30
0.0
11
356.480000
21
302.157000
31
0.0
0
LINE
8
HIDDEN
10
332.787949
20
299.157000
30
0.0
11
332.787949
21
302.157000
31
0.0
0
LINE
8
HIDDEN
10
356.480000
20
299.157000
30
0.0
11
356.480000
21
302.157000
31
0.0
0
LINE
8
HIDDEN
10
333.105786
20
299.157000
30
0.0
11
333.105786
21
302.157000
31
0.0
0
LINE
8
HIDDEN
10
356.411852
20
299.157000
30
0.0
11
356.411852
21
302.157000
31
0.0
0
LINE
8
HIDDEN
10
333.520000
20
299.157000
30
0.0
11
333.520000
21
302.157000
31
0.0
0
LINE
8
HIDDEN
10
356.212051
20
299.157000
30
0.0
11
356.212051
21
302.157000
31
0.0
0
LINE
8
HIDDEN
10
334.002362
20
299.157000
30
0.0
11
334.002362
21
302.157000
31
0.0
0
LINE
8
HIDDEN
10
355.894214
20
299.157000
30
0.0
11
355.894214
21
302.157000
31
0.0
0
LINE
8
HIDDEN
10
334.520000
20
299.157000
30
0.0
11
334.520000
21
302.157000
31
0.0
0
LINE
8
HIDDEN
10
355.480000
20
299.157000
30
0.0
11
355.480000
21
302.157000
31
0.0
0
LINE
8
HIDDEN
10
354.480000
20
299.157000
30
0.0
11
354.480000
21
302.157000
31
0.0
0
LINE
8
HIDDEN
10
354.997638
20
299.157000
30
0.0
11
354.997638
21
302.157000
31
0.0
0
LINE
8
HIDDEN
10
302.500000
20
299.157000
30
0.0
11
302.500000
21
302.157000
31
0.0
0
LINE
8
HIDDEN
10
402.500000
20
299.157000
30
0.0
11
402.500000
21
302.157000
31
0.0
0
LINE
8
HIDDEN
10
300.326000
20
299.157000
30
0.0
11
300.326000
21
302.157000
31
0.0
0
LINE
8
HIDDEN
10
304.674000
20
299.157000
30
0.0
11
304.674000
21
302.157000
31
0.0
0
LINE
8
HIDDEN
10
400.326000
20
299.157000
30
0.0
11
400.326000
21
302.157000
31
0.0
0
LINE
8
HIDDEN
10
404.674000
20
299.157000
30
0.0
11
404.674000
21
302.157000
31
0.0
0
LINE
8
VISIBLE
10
449.515287
20
220.151934
30
0.0
11
449.515287
21
217.590107
31
0.0
0
LINE
8
VISIBLE
10
452.515287
20
220.151934
30
0.0
11
452.515287
21
217.590107
31
0.0
0
LINE
8
VISIBLE
10
449.515287
20
220.151934
30
0.0
11
452.515287
21
220.151934
31
0.0
0
LINE
8
VISIBLE
10
449.515287
20
220.593595
30
0.0
11
449.515287
21
220.151934
31
0.0
0
LINE
8
VISIBLE
10
449.515287
20
221.091028
30
0.0
11
449.515287
21
220.593595
31
0.0
0
LINE
8
VISIBLE
10
449.515287
20
221.633148
30
0.0
11
449.515287
21
221.091028
31
0.0
0
LINE
8
VISIBLE
10
449.515287
20
222.207870
30
0.0
11
449.515287
21
221.633148
31
0.0
0
LINE
8
VISIBLE
10
449.515287
20
222.802385
30
0.0
11
449.515287
21
222.207870
31
0.0
0
LINE
8
VISIBLE
10
449.515287
20
223.403443
30
0.0
11
449.515287
21
222.802385
31
0.0
0
LINE
8
VISIBLE
10
449.515287
20
223.997645
30
0.0
11
449.515287
21
223.403443
31
0.0
0
LINE
8
VISIBLE
10
449.515287
20
224.571748
30
0.0
11
449.515287
21
223.997645
31
0.0
0
LINE
8
VISIBLE
10
449.515287
20
225.112956
30
0.0
11
449.515287
21
224.571748
31
0.0
0
LINE
8
VISIBLE
10
449.515287
20
225.609207
30
0.0
11
449.515287
21
225.112956
31
0.0
0
LINE
8
VISIBLE
10
449.515287
20
226.049439
30
0.0
11
449.515287
21
225.609207
31
0.0
0
LINE
8
VISIBLE
10
449.515287
20
226.423840
30
0.0
11
449.515287
21
226.049439
31
0.0
0
LINE
8
VISIBLE
10
449.515287
20
226.724066
30
0.0
11
449.515287
21
226.423840
31
0.0
0
LINE
8
VISIBLE
10
449.515287
20
226.943424
30
0.0
11
449.515287
21
226.724066
31
0.0
0
LINE
8
VISIBLE
10
449.515287
20
227.077026
30
0.0
11
449.515287
21
226.943424
31
0.0
0
LINE
8
VISIBLE
10
449.515287
20
227.121893
30
0.0
11
449.515287
21
227.077026
31
0.0
0
LINE
8
VISIBLE
10
452.515287
20
220.593595
30
0.0
11
452.515287
21
220.151934
31
0.0
0
LINE
8
VISIBLE
10
452.515287
20
221.091028
30
0.0
11
452.515287
21
220.593595
31
0.0
0
LINE
8
VISIBLE
10
452.515287
20
221.633148
30
0.0
11
452.515287
21
221.091028
31
0.0
0
LINE
8
VISIBLE
10
452.515287
20
222.207870
30
0.0
11
452.515287
21
221.633148
31
0.0
0
LINE
8
VISIBLE
10
452.515287
20
222.802385
30
0.0
11
452.515287
21
222.207870
31
0.0
0
LINE
8
VISIBLE
10
452.515287
20
223.403443
30
0.0
11
452.515287
21
222.802385
31
0.0
0
LINE
8
VISIBLE
10
452.515287
20
223.997645
30
0.0
11
452.515287
21
223.403443
31
0.0
0
LINE
8
VISIBLE
10
452.515287
20
224.571748
30
0.0
11
452.515287
21
223.997645
31
0.0
0
LINE
8
VISIBLE
10
452.515287
20
225.112956
30
0.0
11
452.515287
21
224.571748
31
0.0
0
LINE
8
VISIBLE
10
452.515287
20
225.609207
30
0.0
11
452.515287
21
225.112956
31
0.0
0
LINE
8
VISIBLE
10
452.515287
20
226.049439
30
0.0
11
452.515287
21
225.609207
31
0.0
0
LINE
8
VISIBLE
10
452.515287
20
226.423840
30
0.0
11
452.515287
21
226.049439
31
0.0
0
LINE
8
VISIBLE
10
452.515287
20
226.724066
30
0.0
11
452.515287
21
226.423840
31
0.0
0
LINE
8
VISIBLE
10
452.515287
20
226.943424
30
0.0
11
452.515287
21
226.724066
31
0.0
0
LINE
8
VISIBLE
10
452.515287
20
227.077026
30
0.0
11
452.515287
21
226.943424
31
0.0
0
LINE
8
VISIBLE
10
452.515287
20
227.121893
30
0.0
11
452.515287
21
227.077026
31
0.0
0
LINE
8
VISIBLE
10
449.515287
20
220.593595
30
0.0
11
452.515287
21
220.593595
31
0.0
0
LINE
8
VISIBLE
10
449.515287
20
221.091028
30
0.0
11
452.515287
21
221.091028
31
0.0
0
LINE
8
VISIBLE
10
449.515287
20
221.633148
30
0.0
11
452.515287
21
221.633148
31
0.0
0
LINE
8
VISIBLE
10
449.515287
20
222.207870
30
0.0
11
452.515287
21
222.207870
31
0.0
0
LINE
8
VISIBLE
10
449.515287
20
222.802385
30
0.0
11
452.515287
21
222.802385
31
0.0
0
LINE
8
VISIBLE
10
449.515287
20
223.403443
30
0.0
11
452.515287
21
223.403443
31
0.0
0
LINE
8
VISIBLE
10
449.515287
20
223.997645
30
0.0
11
452.515287
21
223.997645
31
0.0
0
LINE
8
VISIBLE
10
449.515287
20
224.571748
30
0.0
11
452.515287
21
224.571748
31
0.0
0
LINE
8
VISIBLE
10
449.515287
20
225.112956
30
0.0
11
452.515287
21
225.112956
31
0.0
0
LINE
8
VISIBLE
10
449.515287
20
225.609207
30
0.0
11
452.515287
21
225.609207
31
0.0
0
LINE
8
VISIBLE
10
449.515287
20
226.049439
30
0.0
11
452.515287
21
226.049439
31
0.0
0
LINE
8
VISIBLE
10
449.515287
20
226.423840
30
0.0
11
452.515287
21
226.423840
31
0.0
0
LINE
8
VISIBLE
10
449.515287
20
226.724066
30
0.0
11
452.515287
21
226.724066
31
0.0
0
LINE
8
VISIBLE
10
449.515287
20
226.943424
30
0.0
11
452.515287
21
226.943424
31
0.0
0
LINE
8
VISIBLE
10
449.515287
20
227.077026
30
0.0
11
452.515287
21
227.077026
31
0.0
0
LINE
8
SECTION
10
452.515287
20
217.590107
30
0.0
11
449.515287
21
217.590107
31
0.0
0
LINE
8
SECTION
10
449.515287
20
217.590107
30
0.0
11
449.515287
21
220.921893
31
0.0
0
LINE
8
SECTION
10
449.515287
20
220.921893
30
0.0
11
452.515287
21
220.921893
31
0.0
0
LINE
8
SECTION
10
452.515287
20
217.590107
30
0.0
11
452.515287
21
220.921893
31
0.0
0
LINE
8
SECTION
10
449.515287
20
227.121893
30
0.0
11
452.515287
21
227.121893
31
0.0
0
LINE
8
SECTION
10
452.515287
20
225.269893
30
0.0
11
452.515287
21
227.121893
31
0.0
0
LINE
8
SECTION
10
449.515287
20
225.269893
30
0.0
11
452.515287
21
225.269893
31
0.0
0
LINE
8
SECTION
10
449.515287
20
225.269893
30
0.0
11
449.515287
21
227.121893
31
0.0
0
LINE
8
VISIBLE
10
818.873684
20
315.513611
30
0.0
11
821.089290
21
314.234430
31
0.0
0
LINE
8
VISIBLE
10
750.910710
20
276.275170
30
0.0
11
753.126316
21
274.995989
31
0.0
0
LINE
8
VISIBLE
10
818.873684
20
315.513611
30
0.0
11
750.910710
21
276.275170
31
0.0
0
LINE
8
VISIBLE
10
821.089290
20
314.234430
30
0.0
11
753.126316
21
274.995989
31
0.0
0
LINE
8
VISIBLE
10
823.847151
20
323.742287
30
0.0
11
826.062757
21
322.463107
31
0.0
0
LINE
8
VISIBLE
10
823.847151
20
323.742287
30
0.0
11
818.873684
21
315.513611
31
0.0
0
LINE
8
VISIBLE
10
826.062757
20
322.463107
30
0.0
11
821.089290
21
314.234430
31
0.0
0
LINE
8
VISIBLE
10
745.937243
20
278.760981
30
0.0
11
748.152849
21
277.481800
31
0.0
0
LINE
8
VISIBLE
10
750.910710
20
276.275170
30
0.0
11
745.937243
21
278.760981
31
0.0
0
LINE
8
VISIBLE
10
753.126316
20
274.995989
30
0.0
11
748.152849
21
277.481800
31
0.0
0
LINE
8
VISIBLE
10
824.148240
20
324.292764
30
0.0
11
823.847151
21
323.742287
31
0.0
0
LINE
8
VISIBLE
10
824.397413
20
324.860829
30
0.0
11
824.148240
21
324.292764
31
0.0
0
LINE
8
VISIBLE
10
824.589115
20
325.433821
30
0.0
11
824.397413
21
324.860829
31
0.0
0
LINE
8
VISIBLE
10
745.937243
20
278.760981
30
0.0
11
745.636154
21
278.963789
31
0.0
0
LINE
8
VISIBLE
10
824.719075
20
325.998969
30
0.0
11
824.589115
21
325.433821
31
0.0
0
LINE
8
VISIBLE
10
745.636154
20
278.963789
30
0.0
11
745.386981
21
279.244135
31
0.0
0
LINE
8
VISIBLE
10
824.784394
20
326.543676
30
0.0
11
824.719075
21
325.998969
31
0.0
0
LINE
8
VISIBLE
10
745.386981
20
279.244135
30
0.0
11
745.195279
21
279.595768
31
0.0
0
LINE
8
VISIBLE
10
824.783618
20
327.055801
30
0.0
11
824.784394
21
326.543676
31
0.0
0
LINE
8
VISIBLE
10
745.195279
20
279.595768
30
0.0
11
745.065319
21
280.010852
31
0.0
0
LINE
8
VISIBLE
10
824.716763
20
327.523931
30
0.0
11
824.783618
21
327.055801
31
0.0
0
LINE
8
VISIBLE
10
745.065319
20
280.010852
30
0.0
11
745.000000
21
280.480134
31
0.0
0
LINE
8
VISIBLE
10
824.585320
20
327.937630
30
0.0
11
824.716763
21
327.523931
31
0.0
0
LINE
8
VISIBLE
10
745.000000
20
280.480134
30
0.0
11
745.000776
21
280.993156
31
0.0
0
LINE
8
VISIBLE
10
824.392219
20
328.287678
30
0.0
11
824.585320
21
327.937630
31
0.0
0
LINE
8
VISIBLE
10
745.000776
20
280.993156
30
0.0
11
745.067631
21
281.538483
31
0.0
0
LINE
8
VISIBLE
10
824.141762
20
328.566274
30
0.0
11
824.392219
21
328.287678
31
0.0
0
LINE
8
VISIBLE
10
745.067631
20
281.538483
30
0.0
11
745.199074
21
282.103959
31
0.0
0
LINE
8
VISIBLE
10
823.839534
20
328.767206
30
0.0
11
824.141762
21
328.566274
31
0.0
0
LINE
8
VISIBLE
10
745.199074
20
282.103959
30
0.0
11
745.392176
21
282.676982
31
0.0
0
LINE
8
VISIBLE
10
823.492270
20
328.885997
30
0.0
11
823.839534
21
328.767206
31
0.0
0
LINE
8
VISIBLE
10
745.392176
20
282.676982
30
0.0
11
745.642632
21
283.244779
31
0.0
0
LINE
8
VISIBLE
10
823.107709
20
328.920000
30
0.0
11
823.492270
21
328.885997
31
0.0
0
LINE
8
VISIBLE
10
745.642632
20
283.244779
30
0.0
11
745.944860
21
283.794695
31
0.0
0
LINE
8
VISIBLE
10
822.694425
20
328.868456
30
0.0
11
823.107709
21
328.920000
31
0.0
0
LINE
8
VISIBLE
10
745.944860
20
283.794695
30
0.0
11
746.292124
21
284.314473
31
0.0
0
LINE
8
VISIBLE
10
822.261627
20
328.732514
30
0.0
11
822.694425
21
328.868456
31
0.0
0
LINE
8
VISIBLE
10
746.292124
20
284.314473
30
0.0
11
746.676685
21
284.792527
31
0.0
0
LINE
8
VISIBLE
10
821.818963
20
328.515204
30
0.0
11
822.261627
21
328.732514
31
0.0
0
LINE
8
VISIBLE
10
746.676685
20
284.792527
30
0.0
11
747.089969
21
285.218203
31
0.0
0
LINE
8
VISIBLE
10
802.602274
20
317.420443
30
0.0
11
821.818963
21
328.515204
31
0.0
0
LINE
8
VISIBLE
10
747.089969
20
285.218203
30
0.0
11
747.522767
21
285.582013
31
0.0
0
LINE
8
VISIBLE
10
802.025950
20
317.022158
30
0.0
11
802.602274
21
317.420443
31
0.0
0
LINE
8
VISIBLE
10
747.522767
20
285.582013
30
0.0
11
747.965431
21
285.875847
31
0.0
0
LINE
8
VISIBLE
10
801.471773
20
316.508090
30
0.0
11
802.025950
21
317.022158
31
0.0
0
LINE
8
VISIBLE
10
747.965431
20
285.875847
30
0.0
11
778.998685
21
303.792905
31
0.0
0
LINE
8
VISIBLE
10
800.961041
20
315.897995
30
0.0
11
801.471773
21
316.508090
31
0.0
0
LINE
8
VISIBLE
10
778.998685
20
303.792905
30
0.0
11
779.575010
21
304.060102
31
0.0
0
LINE
8
VISIBLE
10
800.513381
20
315.215318
30
0.0
11
800.961041
21
315.897995
31
0.0
0
LINE
8
VISIBLE
10
779.575010
20
304.060102
30
0.0
11
780.129186
21
304.185942
31
0.0
0
LINE
8
VISIBLE
10
800.145995
20
314.486294
30
0.0
11
800.513381
21
315.215318
31
0.0
0
LINE
8
VISIBLE
10
780.129186
20
304.185942
30
0.0
11
780.639918
21
304.165589
31
0.0
0
LINE
8
VISIBLE
10
799.873003
20
313.738939
30
0.0
11
800.145995
21
314.486294
31
0.0
0
LINE
8
VISIBLE
10
780.639918
20
304.165589
30
0.0
11
781.087579
21
303.999826
31
0.0
0
LINE
8
VISIBLE
10
799.704896
20
313.001974
30
0.0
11
799.873003
21
313.738939
31
0.0
0
LINE
8
VISIBLE
10
781.087579
20
303.999826
30
0.0
11
781.454964
21
303.695022
31
0.0
0
LINE
8
VISIBLE
10
799.648133
20
312.303720
30
0.0
11
799.704896
21
313.001974
31
0.0
0
LINE
8
VISIBLE
10
781.454964
20
303.695022
30
0.0
11
781.727956
21
303.262891
31
0.0
0
LINE
8
VISIBLE
10
799.648133
20
311.457755
30
0.0
11
799.648133
21
312.303720
31
0.0
0
LINE
8
VISIBLE
10
781.727956
20
303.262891
30
0.0
11
781.896063
21
302.720040
31
0.0
0
LINE
8
VISIBLE
10
799.597803
20
310.987262
30
0.0
11
799.648133
21
311.457755
31
0.0
0
LINE
8
VISIBLE
10
781.896063
20
302.720040
30
0.0
11
781.952826
21
302.087330
31
0.0
0
LINE
8
VISIBLE
10
799.450243
20
310.490716
30
0.0
11
799.597803
21
310.987262
31
0.0
0
LINE
8
VISIBLE
10
781.952826
20
302.087330
30
0.0
11
781.952826
21
301.241366
31
0.0
0
LINE
8
VISIBLE
10
799.215509
20
310.001957
30
0.0
11
799.450243
21
310.490716
31
0.0
0
LINE
8
VISIBLE
10
781.952826
20
301.241366
30
0.0
11
782.003156
21
300.828989
31
0.0
0
LINE
8
VISIBLE
10
798.909597
20
309.554291
30
0.0
11
799.215509
21
310.001957
31
0.0
0
LINE
8
VISIBLE
10
782.003156
20
300.828989
30
0.0
11
782.150716
21
300.502830
31
0.0
0
LINE
8
VISIBLE
10
798.553356
20
309.178228
30
0.0
11
798.909597
21
309.554291
31
0.0
0
LINE
8
VISIBLE
10
782.150716
20
300.502830
30
0.0
11
782.385450
21
300.285118
31
0.0
0
LINE
8
VISIBLE
10
798.171062
20
308.899394
30
0.0
11
798.553356
21
309.178228
31
0.0
0
LINE
8
VISIBLE
10
782.385450
20
300.285118
30
0.0
11
782.691362
21
300.190689
31
0.0
0
LINE
8
VISIBLE
10
783.429897
20
300.388579
30
0.0
11
798.171062
21
308.899394
31
0.0
0
LINE
8
VISIBLE
10
782.691362
20
300.190689
30
0.0
11
783.047603
21
300.225977
31
0.0
0
LINE
8
VISIBLE
10
783.047603
20
300.225977
30
0.0
11
783.429897
21
300.388579
31
0.0
0
LINE
8
VISIBLE
10
821.818963
20
326.935842
30
0.0
11
820.720468
21
325.799792
31
0.0
0
LINE
8
VISIBLE
10
820.720468
20
325.799792
30
0.0
11
820.213603
21
324.124647
31
0.0
0
LINE
8
VISIBLE
10
820.213603
20
324.124647
30
0.0
11
820.683649
21
323.115462
31
0.0
0
LINE
8
VISIBLE
10
820.683649
20
323.115462
30
0.0
11
821.576161
21
323.109063
31
0.0
0
LINE
8
VISIBLE
10
821.576161
20
323.109063
30
0.0
11
822.687781
21
324.024423
31
0.0
0
LINE
8
VISIBLE
10
822.687781
20
324.024423
30
0.0
11
823.400989
21
325.678895
31
0.0
0
LINE
8
VISIBLE
10
823.400989
20
325.678895
30
0.0
11
822.954276
21
327.048303
31
0.0
0
LINE
8
VISIBLE
10
822.954276
20
327.048303
30
0.0
11
821.818963
21
326.935842
31
0.0
0
LINE
8
VISIBLE
10
808.033463
20
309.306174
30
0.0
11
811.675919
21
311.409147
31
0.0
0
LINE
8
VISIBLE
10
811.675919
20
311.409147
30
0.0
11
811.675919
21
314.762306
31
0.0
0
LINE
8
VISIBLE
10
747.965431
20
284.296485
30
0.0
11
746.866937
21
283.160436
31
0.0
0
LINE
8
VISIBLE
10
746.866937
20
283.160436
30
0.0
11
746.360071
21
281.485291
31
0.0
0
LINE
8
VISIBLE
10
746.360071
20
281.485291
30
0.0
11
746.830118
21
280.476106
31
0.0
0
LINE
8
VISIBLE
10
746.830118
20
280.476106
30
0.0
11
747.722630
21
280.469707
31
0.0
0
LINE
8
VISIBLE
10
747.722630
20
280.469707
30
0.0
11
748.834250
21
281.385067
31
0.0
0
LINE
8
VISIBLE
10
748.834250
20
281.385067
30
0.0
11
749.547457
21
283.039539
31
0.0
0
LINE
8
VISIBLE
10
749.547457
20
283.039539
30
0.0
11
749.100745
21
284.408947
31
0.0
0
LINE
8
VISIBLE
10
749.100745
20
284.408947
30
0.0
11
747.965431
21
284.296485
31
0.0
0
LINE
8
VISIBLE
10
758.108475
20
280.481969
30
0.0
11
761.750931
21
282.584942
31
0.0
0
LINE
8
VISIBLE
10
761.750931
20
282.584942
30
0.0
11
761.750931
21
285.938101
31
0.0
0
LINE
8
VISIBLE
10
826.363846
20
323.013583
30
0.0
11
826.062757
21
322.463107
31
0.0
0
LINE
8
VISIBLE
10
826.613019
20
323.581648
30
0.0
11
826.363846
21
323.013583
31
0.0
0
LINE
8
VISIBLE
10
826.804721
20
324.154640
30
0.0
11
826.613019
21
323.581648
31
0.0
0
LINE
8
VISIBLE
10
826.934681
20
324.719788
30
0.0
11
826.804721
21
324.154640
31
0.0
0
LINE
8
VISIBLE
10
827.000000
20
325.264495
30
0.0
11
826.934681
21
324.719788
31
0.0
0
LINE
8
VISIBLE
10
826.999224
20
325.776621
30
0.0
11
827.000000
21
325.264495
31
0.0
0
LINE
8
VISIBLE
10
826.932369
20
326.244750
30
0.0
11
826.999224
21
325.776621
31
0.0
0
LINE
8
VISIBLE
10
826.800926
20
326.658449
30
0.0
11
826.932369
21
326.244750
31
0.0
0
LINE
8
VISIBLE
10
826.607824
20
327.008498
30
0.0
11
826.800926
21
326.658449
31
0.0
0
LINE
8
VISIBLE
10
826.357368
20
327.287093
30
0.0
11
826.607824
21
327.008498
31
0.0
0
LINE
8
VISIBLE
10
826.055140
20
327.488025
30
0.0
11
826.357368
21
327.287093
31
0.0
0
LINE
8
VISIBLE
10
783.303184
20
302.720645
30
0.0
11
783.670570
21
302.415841
31
0.0
0
LINE
8
VISIBLE
10
783.670570
20
302.415841
30
0.0
11
783.943562
21
301.983711
31
0.0
0
LINE
8
VISIBLE
10
783.943562
20
301.983711
30
0.0
11
784.111669
21
301.440860
31
0.0
0
LINE
8
VISIBLE
10
784.111669
20
301.440860
30
0.0
11
784.167851
21
300.814636
31
0.0
0
LINE
8
VISIBLE
10
823.175179
20
324.872557
30
0.0
11
822.678352
21
324.012027
31
0.0
0
LINE
8
VISIBLE
10
749.321648
20
282.233201
30
0.0
11
748.824821
21
281.372671
31
0.0
0
LINE
8
VISIBLE
10
824.148240
20
324.292764
30
0.0
11
826.363846
21
323.013583
31
0.0
0
LINE
8
VISIBLE
10
824.397413
20
324.860829
30
0.0
11
826.613019
21
323.581648
31
0.0
0
LINE
8
VISIBLE
10
824.589115
20
325.433821
30
0.0
11
826.804721
21
324.154640
31
0.0
0
LINE
8
VISIBLE
10
824.719075
20
325.998969
30
0.0
11
826.934681
21
324.719788
31
0.0
0
LINE
8
VISIBLE
10
824.784394
20
326.543676
30
0.0
11
827.000000
21
325.264495
31
0.0
0
LINE
8
VISIBLE
10
824.783618
20
327.055801
30
0.0
11
826.999224
21
325.776621
31
0.0
0
LINE
8
VISIBLE
10
824.716763
20
327.523931
30
0.0
11
826.932369
21
326.244750
31
0.0
0
LINE
8
VISIBLE
10
824.585320
20
327.937630
30
0.0
11
826.800926
21
326.658449
31
0.0
0
LINE
8
VISIBLE
10
824.392219
20
328.287678
30
0.0
11
826.607824
21
327.008498
31
0.0
0
LINE
8
VISIBLE
10
824.141762
20
328.566274
30
0.0
11
826.357368
21
327.287093
31
0.0
0
LINE
8
VISIBLE
10
823.839534
20
328.767206
30
0.0
11
826.055140
21
327.488025
31
0.0
0
LINE
8
VISIBLE
10
781.087579
20
303.999826
30
0.0
11
783.303184
21
302.720645
31
0.0
0
LINE
8
VISIBLE
10
781.454964
20
303.695022
30
0.0
11
783.670570
21
302.415841
31
0.0
0
LINE
8
VISIBLE
10
781.727956
20
303.262891
30
0.0
11
783.943562
21
301.983711
31
0.0
0
LINE
8
VISIBLE
10
781.896063
20
302.720040
30
0.0
11
784.111669
21
301.440860
31
0.0
0
LINE
8
VISIBLE
10
781.952826
20
302.087330
30
0.0
11
784.162524
21
300.811561
31
0.0
0
LINE
8
VISIBLE
10
781.952826
20
301.241366
30
0.0
11
783.429897
21
300.388579
31
0.0
0
LINE
8
VISIBLE
10
782.003156
20
300.828989
30
0.0
11
783.047603
21
300.225977
31
0.0
0
LINE
8
VISIBLE
10
782.150716
20
300.502830
30
0.0
11
782.691362
21
300.190689
31
0.0
0
LINE
8
VISIBLE
10
808.278656
20
313.370557
30
0.0
11
811.675919
21
311.409147
31
0.0
0
LINE
8
VISIBLE
10
804.636200
20
311.267584
30
0.0
11
808.033463
21
309.306174
31
0.0
0
LINE
8
VISIBLE
10
808.278656
20
313.370557
30
0.0
11
804.636200
21
311.267584
31
0.0
0
LINE
8
VISIBLE
10
804.636200
20
311.267584
30
0.0
11
804.636200
21
314.620743
31
0.0
0
LINE
8
VISIBLE
10
808.278656
20
316.723716
30
0.0
11
811.675919
21
314.762306
31
0.0
0
LINE
8
VISIBLE
10
808.278656
20
313.370557
30
0.0
11
808.278656
21
316.723716
31
0.0
0
LINE
8
VISIBLE
10
808.278656
20
316.723716
30
0.0
11
804.636200
21
314.620743
31
0.0
0
LINE
8
VISIBLE
10
758.353669
20
284.546352
30
0.0
11
761.750931
21
282.584942
31
0.0
0
LINE
8
VISIBLE
10
754.711213
20
282.443379
30
0.0
11
758.108475
21
280.481969
31
0.0
0
LINE
8
VISIBLE
10
758.353669
20
284.546352
30
0.0
11
754.711213
21
282.443379
31
0.0
0
LINE
8
VISIBLE
10
754.711213
20
282.443379
30
0.0
11
754.711213
21
285.796538
31
0.0
0
LINE
8
VISIBLE
10
758.353669
20
287.899511
30
0.0
11
761.750931
21
285.938101
31
0.0
0
LINE
8
VISIBLE
10
758.353669
20
287.899511
30
0.0
11
754.711213
21
285.796538
31
0.0
0
LINE
8
VISIBLE
10
758.353669
20
284.546352
30
0.0
11
758.353669
21
287.899511
31
0.0
0
LINE
8
VISIBLE
10
821.818963
20
326.935842
30
0.0
11
823.424539
21
326.008862
31
0.0
0
LINE
8
VISIBLE
10
747.965431
20
284.296485
30
0.0
11
749.571007
21
283.369506
31
0.0
0
LINE
8
VISIBLE
10
165.922265
20
59.130000
30
0.0
11
124.030000
21
59.130000
31
0.0
0
LINE
8
VISIBLE
10
124.030000
20
59.130000
30
0.0
11
90.358848
21
90.540205
31
0.0
0
LINE
8
VISIBLE
10
90.358848
20
90.540205
30
0.0
11
88.320426
21
92.748508
31
0.0
0
LINE
8
VISIBLE
10
88.320426
20
92.748508
30
0.0
11
86.633487
21
95.235677
31
0.0
0
LINE
8
VISIBLE
10
86.633487
20
95.235677
30
0.0
11
85.335632
21
97.946275
31
0.0
0
LINE
8
VISIBLE
10
85.335632
20
97.946275
30
0.0
11
84.455788
21
100.819886
31
0.0
0
LINE
8
VISIBLE
10
84.455788
20
100.819886
30
0.0
11
84.013565
21
103.792463
31
0.0
0
LINE
8
VISIBLE
10
84.013565
20
103.792463
30
0.0
11
84.018821
21
106.797748
31
0.0
0
LINE
8
VISIBLE
10
84.018821
20
106.797748
30
0.0
11
84.471438
21
109.768759
31
0.0
0
LINE
8
VISIBLE
10
84.471438
20
109.768759
30
0.0
11
85.361327
21
112.639276
31
0.0
0
LINE
8
VISIBLE
10
85.361327
20
112.639276
30
0.0
11
86.668655
21
115.345318
31
0.0
0
LINE
8
VISIBLE
10
86.668655
20
115.345318
30
0.0
11
88.364282
21
117.826571
31
0.0
0
LINE
8
VISIBLE
10
88.364282
20
117.826571
30
0.0
11
90.410416
21
120.027731
31
0.0
0
LINE
8
VISIBLE
10
90.410416
20
120.027731
30
0.0
11
92.761450
21
121.899737
31
0.0
0
LINE
8
VISIBLE
10
92.761450
20
121.899737
30
0.0
11
95.364984
21
123.400865
31
0.0
0
LINE
8
VISIBLE
10
95.364984
20
123.400865
30
0.0
11
98.162986
21
124.497656
31
0.0
0
LINE
8
VISIBLE
10
98.162986
20
124.497656
30
0.0
11
101.093094
21
125.165664
31
0.0
0
LINE
8
VISIBLE
10
101.093094
20
125.165664
30
0.0
11
104.090000
21
125.390000
31
0.0
0
LINE
8
VISIBLE
10
104.090000
20
125.390000
30
0.0
11
171.165071
21
125.390000
31
0.0
0
CIRCLE
8
VISIBLE
10
104.090000
20
105.260000
30
0.0
40
10.870000
0
LINE
8
VISIBLE
10
172.760000
20
75.463310
30
0.0
11
172.760000
21
79.090000
31
0.0
0
LINE
8
VISIBLE
10
173.732952
20
79.090000
30
0.0
11
172.760000
21
79.090000
31
0.0
0
CIRCLE
8
SECTION
10
96.000000
20
98.000000
30
0.0
40
80.000000
0
LINE
8
CENTER
10
298.726000
20
224.956000
30
0.0
11
301.739100
21
224.956000
31
0.0
0
LINE
8
CENTER
10
303.260900
20
224.956000
30
0.0
11
306.274000
21
224.956000
31
0.0
0
LINE
8
CENTER
10
302.500000
20
221.182000
30
0.0
11
302.500000
21
224.195100
31
0.0
0
LINE
8
CENTER
10
302.500000
20
225.716900
30
0.0
11
302.500000
21
228.730000
31
0.0
0
LINE
8
CENTER
10
398.726000
20
224.956000
30
0.0
11
401.739100
21
224.956000
31
0.0
0
LINE
8
CENTER
10
403.260900
20
224.956000
30
0.0
11
406.274000
21
224.956000
31
0.0
0
LINE
8
CENTER
10
402.500000
20
221.182000
30
0.0
11
402.500000
21
224.195100
31
0.0
0
LINE
8
CENTER
10
402.500000
20
225.716900
30
0.0
11
402.500000
21
228.730000
31
0.0
0
LINE
8
DIM
10
298.484713
20
214.530000
30
0.0
11
298.484713
21
192.730000
31
0.0
0
LINE
8
DIM
10
406.515287
20
214.530000
30
0.0
11
406.515287
21
192.730000
31
0.0
0
LINE
8
DIM
10
298.484713
20
194.730000
30
0.0
11
406.515287
21
194.730000
31
0.0
0
SOLID
8
DIM
10
298.484713
20
194.730000
30
0.0
11
301.684713
21
194.122000
31
0.0
12
301.684713
22
195.338000
32
0.0
13
301.684713
23
195.338000
33
0.0
0
SOLID
8
DIM
10
406.515287
20
194.730000
30
0.0
11
403.315287
21
195.338000
31
0.0
12
403.315287
22
194.122000
32
0.0
13
403.315287
23
194.122000
33
0.0
0
TEXT
8
TEXT
10
352.500000
20
195.730000
30
0.0
40
3.5000
1
54.02
72
1
73
0
11
352.500000
21
195.730000
31
0.0
0
LINE
8
DIM
10
297.284713
20
215.730000
30
0.0
11
275.484713
21
215.730000
31
0.0
0
LINE
8
DIM
10
297.284713
20
228.982000
30
0.0
11
275.484713
21
228.982000
31
0.0
0
LINE
8
DIM
10
277.484713
20
215.730000
30
0.0
11
277.484713
21
228.982000
31
0.0
0
SOLID
8
DIM
10
277.484713
20
215.730000
30
0.0
11
276.876713
21
212.530000
31
0.0
12
278.092713
22
212.530000
32
0.0
13
278.092713
23
212.530000
33
0.0
0
SOLID
8
DIM
10
277.484713
20
228.982000
30
0.0
11
278.092713
21
232.182000
31
0.0
12
276.876713
22
232.182000
32
0.0
13
276.876713
23
232.182000
33
0.0
0
LINE
8
DIM
10
277.484713
20
228.982000
30
0.0
11
277.484713
21
238.582000
31
0.0
0
TEXT
8
TEXT
10
276.484713
20
239.382000
30
0.0
40
3.5000
1
6.63
50
90.0000
0
LINE
8
DIM
10
298.484713
20
216.930000
30
0.0
11
298.484713
21
247.982000
31
0.0
0
LINE
8
DIM
10
302.500000
20
216.930000
30
0.0
11
302.500000
21
247.982000
31
0.0
0
LINE
8
DIM
10
298.484713
20
245.982000
30
0.0
11
302.500000
21
245.982000
31
0.0
0
SOLID
8
DIM
10
298.484713
20
245.982000
30
0.0
11
295.284713
21
246.590000
31
0.0
12
295.284713
22
245.374000
32
0.0
13
295.284713
23
245.374000
33
0.0
0
SOLID
8
DIM
10
302.500000
20
245.982000
30
0.0
11
305.700000
21
245.374000
31
0.0
12
305.700000
22
246.590000
32
0.0
13
305.700000
23
246.590000
33
0.0
0
LINE
8
DIM
10
302.500000
20
245.982000
30
0.0
11
312.100000
21
245.982000
31
0.0
0
TEXT
8
TEXT
10
312.900000
20
246.382000
30
0.0
40
3.5000
1
2.01
0
LINE
8
DIM
10
299.684713
20
215.730000
30
0.0
11
416.515287
21
215.730000
31
0.0
0
LINE
8
DIM
10
299.684713
20
224.956000
30
0.0
11
416.515287
21
224.956000
31
0.0
0
LINE
8
DIM
10
414.515287
20
215.730000
30
0.0
11
414.515287
21
224.956000
31
0.0
0
SOLID
8
DIM
10
414.515287
20
215.730000
30
0.0
11
413.907287
21
212.530000
31
0.0
12
415.123287
22
212.530000
32
0.0
13
415.123287
23
212.530000
33
0.0
0
SOLID
8
DIM
10
414.515287
20
224.956000
30
0.0
11
415.123287
21
228.156000
31
0.0
12
413.907287
22
228.156000
32
0.0
13
413.907287
23
228.156000
33
0.0
0
LINE
8
DIM
10
414.515287
20
224.956000
30
0.0
11
414.515287
21
234.556000
31
0.0
0
TEXT
8
TEXT
10
413.515287
20
235.356000
30
0.0
40
3.5000
1
4.61
50
90.0000
0
LINE
8
DIM
10
298.484713
20
216.930000
30
0.0
11
298.484713
21
254.482000
31
0.0
0
LINE
8
DIM
10
402.500000
20
216.930000
30
0.0
11
402.500000
21
254.482000
31
0.0
0
LINE
8
DIM
10
298.484713
20
252.482000
30
0.0
11
402.500000
21
252.482000
31
0.0
0
SOLID
8
DIM
10
298.484713
20
252.482000
30
0.0
11
301.684713
21
251.874000
31
0.0
12
301.684713
22
253.090000
32
0.0
13
301.684713
23
253.090000
33
0.0
0
SOLID
8
DIM
10
402.500000
20
252.482000
30
0.0
11
399.300000
21
253.090000
31
0.0
12
399.300000
22
251.874000
32
0.0
13
399.300000
23
251.874000
33
0.0
0
TEXT
8
TEXT
10
350.492357
20
253.482000
30
0.0
40
3.5000
1
52.01
72
1
73
0
11
350.492357
21
253.482000
31
0.0
0
LINE
8
DIM
10
299.684713
20
215.730000
30
0.0
11
423.015287
21
215.730000
31
0.0
0
LINE
8
DIM
10
299.684713
20
224.956000
30
0.0
11
423.015287
21
224.956000
31
0.0
0
LINE
8
DIM
10
421.015287
20
215.730000
30
0.0
11
421.015287
21
224.956000
31
0.0
0
SOLID
8
DIM
10
421.015287
20
215.730000
30
0.0
11
420.407287
21
212.530000
31
0.0
12
421.623287
22
212.530000
32
0.0
13
421.623287
23
212.530000
33
0.0
0
SOLID
8
DIM
10
421.015287
20
224.956000
30
0.0
11
421.623287
21
228.156000
31
0.0
12
420.407287
22
228.156000
32
0.0
13
420.407287
23
228.156000
33
0.0
0
LINE
8
DIM
10
421.015287
20
224.956000
30
0.0
11
421.015287
21
234.556000
31
0.0
0
TEXT
8
TEXT
10
420.015287
20
235.356000
30
0.0
40
3.5000
1
4.61
50
90.0000
0
SOLID
8
DIM
10
303.838448
20
226.669135
30
0.0
11
306.287675
21
228.816448
31
0.0
12
305.329454
22
229.565092
32
0.0
13
305.329454
23
229.565092
33
0.0
0
LINE
8
DIM
10
303.838448
20
226.669135
30
0.0
11
331.427882
21
261.982000
31
0.0
0
LINE
8
DIM
10
331.427882
20
261.982000
30
0.0
11
336.427882
21
261.982000
31
0.0
0
TEXT
8
TEXT
10
337.227882
20
262.982000
30
0.0
40
3.5000
1
2x Ø2.17 THRU
0
SOLID
8
DIM
10
302.500000
20
222.782000
30
0.0
11
299.305296
21
223.417241
31
0.0
12
299.294936
22
222.201285
32
0.0
13
299.294936
23
222.201285
33
0.0
0
LINE
8
DIM
10
302.500000
20
222.782000
30
0.0
11
292.500363
21
222.867197
31
0.0
0
LINE
8
DIM
10
292.500363
20
222.867197
30
0.0
11
289.500363
21
222.867197
31
0.0
0
TEXT
8
TEXT
10
288.700363
20
223.867197
30
0.0
40
3.5000
1
R1.09
72
2
73
0
11
288.700363
21
223.867197
31
0.0
0
LINE
8
DIM
10
402.500000
20
223.756000
30
0.0
11
402.500000
21
185.730000
31
0.0
0
LINE
8
DIM
10
302.500000
20
223.756000
30
0.0
11
302.500000
21
185.730000
31
0.0
0
LINE
8
DIM
10
302.500000
20
187.730000
30
0.0
11
402.500000
21
187.730000
31
0.0
0
SOLID
8
DIM
10
302.500000
20
187.730000
30
0.0
11
305.700000
21
187.122000
31
0.0
12
305.700000
22
188.338000
32
0.0
13
305.700000
23
188.338000
33
0.0
0
SOLID
8
DIM
10
402.500000
20
187.730000
30
0.0
11
399.300000
21
188.338000
31
0.0
12
399.300000
22
187.122000
32
0.0
13
399.300000
23
187.122000
33
0.0
0
TEXT
8
TEXT
10
352.500000
20
188.730000
30
0.0
40
3.5000
1
50.00
72
1
73
0
11
352.500000
21
188.730000
31
0.0
0
TEXT
8
TEXT
10
352.500000
20
177.750000
30
0.0
40
5.0000
1
FRONT VIEW
72
1
73
0
11
352.500000
21
177.750000
31
0.0
0
LINE
8
TEXT
10
337.500000
20
176.150000
30
0.0
11
367.500000
21
176.150000
31
0.0
0
TEXT
8
TEXT
10
352.500000
20
171.750000
30
0.0
40
3.5000
1
-X →   Z ↑
72
1
73
0
11
352.500000
21
171.750000
31
0.0
0
LINE
8
DIM
10
298.484713
20
293.357000
30
0.0
11
298.484713
21
280.557000
31
0.0
0
LINE
8
DIM
10
406.515287
20
293.357000
30
0.0
11
406.515287
21
280.557000
31
0.0
0
LINE
8
DIM
10
298.484713
20
282.557000
30
0.0
11
406.515287
21
282.557000
31
0.0
0
SOLID
8
DIM
10
298.484713
20
282.557000
30
0.0
11
301.684713
21
281.949000
31
0.0
12
301.684713
22
283.165000
32
0.0
13
301.684713
23
283.165000
33
0.0
0
SOLID
8
DIM
10
406.515287
20
282.557000
30
0.0
11
403.315287
21
283.165000
31
0.0
12
403.315287
22
281.949000
32
0.0
13
403.315287
23
281.949000
33
0.0
0
TEXT
8
TEXT
10
352.500000
20
283.557000
30
0.0
40
3.5000
1
54.02
72
1
73
0
11
352.500000
21
283.557000
31
0.0
0
LINE
8
DIM
10
297.284713
20
294.557000
30
0.0
11
284.484713
21
294.557000
31
0.0
0
LINE
8
DIM
10
297.284713
20
302.157000
30
0.0
11
284.484713
21
302.157000
31
0.0
0
LINE
8
DIM
10
286.484713
20
294.557000
30
0.0
11
286.484713
21
302.157000
31
0.0
0
SOLID
8
DIM
10
286.484713
20
294.557000
30
0.0
11
285.876713
21
291.357000
31
0.0
12
287.092713
22
291.357000
32
0.0
13
287.092713
23
291.357000
33
0.0
0
SOLID
8
DIM
10
286.484713
20
302.157000
30
0.0
11
287.092713
21
305.357000
31
0.0
12
285.876713
22
305.357000
32
0.0
13
285.876713
23
305.357000
33
0.0
0
LINE
8
DIM
10
286.484713
20
302.157000
30
0.0
11
286.484713
21
311.757000
31
0.0
0
TEXT
8
TEXT
10
285.484713
20
312.557000
30
0.0
40
3.5000
1
3.80
50
90.0000
0
TEXT
8
TEXT
10
352.500000
20
270.557000
30
0.0
40
5.0000
1
TOP VIEW
72
1
73
0
11
352.500000
21
270.557000
31
0.0
0
LINE
8
TEXT
10
340.500000
20
268.957000
30
0.0
11
364.500000
21
268.957000
31
0.0
0
TEXT
8
TEXT
10
352.500000
20
264.557000
30
0.0
40
3.5000
1
X →   Y ↑
72
1
73
0
11
352.500000
21
264.557000
31
0.0
0
LINE
8
DIM
10
449.515287
20
216.390107
30
0.0
11
449.515287
21
203.590107
31
0.0
0
LINE
8
DIM
10
452.515287
20
216.390107
30
0.0
11
452.515287
21
203.590107
31
0.0
0
LINE
8
DIM
10
449.515287
20
205.590107
30
0.0
11
452.515287
21
205.590107
31
0.0
0
SOLID
8
DIM
10
449.515287
20
205.590107
30
0.0
11
446.315287
21
206.198107
31
0.0
12
446.315287
22
204.982107
32
0.0
13
446.315287
23
204.982107
33
0.0
0
SOLID
8
DIM
10
452.515287
20
205.590107
30
0.0
11
455.715287
21
204.982107
31
0.0
12
455.715287
22
206.198107
32
0.0
13
455.715287
23
206.198107
33
0.0
0
LINE
8
DIM
10
452.515287
20
205.590107
30
0.0
11
462.115287
21
205.590107
31
0.0
0
TEXT
8
TEXT
10
462.915287
20
205.990107
30
0.0
40
3.5000
1
1.50
0
LINE
8
DIM
10
448.315287
20
217.590107
30
0.0
11
435.515287
21
217.590107
31
0.0
0
LINE
8
DIM
10
448.315287
20
227.121893
30
0.0
11
435.515287
21
227.121893
31
0.0
0
LINE
8
DIM
10
437.515287
20
217.590107
30
0.0
11
437.515287
21
227.121893
31
0.0
0
SOLID
8
DIM
10
437.515287
20
217.590107
30
0.0
11
436.907287
21
214.390107
31
0.0
12
438.123287
22
214.390107
32
0.0
13
438.123287
23
214.390107
33
0.0
0
SOLID
8
DIM
10
437.515287
20
227.121893
30
0.0
11
438.123287
21
230.321893
31
0.0
12
436.907287
22
230.321893
32
0.0
13
436.907287
23
230.321893
33
0.0
0
LINE
8
DIM
10
437.515287
20
227.121893
30
0.0
11
437.515287
21
236.721893
31
0.0
0
TEXT
8
TEXT
10
436.515287
20
237.521893
30
0.0
40
3.5000
1
4.77
50
90.0000
0
LINE
8
HATCH
10
452.515284
20
217.590107
30
0.0
11
452.515287
21
217.590110
31
0.0
0
LINE
8
HATCH
10
449.515287
20
218.832751
30
0.0
11
451.604429
21
220.921893
31
0.0
0
LINE
8
HATCH
10
452.515284
20
225.269893
30
0.0
11
452.515287
21
225.269896
31
0.0
0
LINE
8
HATCH
10
449.515287
20
226.512536
30
0.0
11
450.124643
21
227.121893
31
0.0
0
LINE
8
DIM
10
453.690285
20
225.269893
30
0.0
11
463.515287
21
225.269893
31
0.0
0
LINE
8
DIM
10
453.690285
20
227.121893
30
0.0
11
463.515287
21
227.121893
31
0.0
0
LINE
8
DIM
10
461.515287
20
225.269893
30
0.0
11
461.515287
21
227.121893
31
0.0
0
SOLID
8
DIM
10
461.515287
20
225.269893
30
0.0
11
460.907287
21
222.069893
31
0.0
12
462.123287
22
222.069893
32
0.0
13
462.123287
23
222.069893
33
0.0
0
SOLID
8
DIM
10
461.515287
20
227.121893
30
0.0
11
462.123287
21
230.321893
31
0.0
12
460.907287
22
230.321893
32
0.0
13
460.907287
23
230.321893
33
0.0
0
LINE
8
DIM
10
461.515287
20
227.121893
30
0.0
11
461.515287
21
236.721893
31
0.0
0
TEXT
8
TEXT
10
460.515287
20
237.521893
30
0.0
40
3.5000
1
0.93 WALL
50
90.0000
0
LINE
8
DIM
10
449.515287
20
226.574398
30
0.0
11
449.515287
21
264.121893
31
0.0
0
LINE
8
DIM
10
452.515287
20
226.574398
30
0.0
11
452.515287
21
264.121893
31
0.0
0
LINE
8
DIM
10
449.515287
20
262.121893
30
0.0
11
452.515287
21
262.121893
31
0.0
0
SOLID
8
DIM
10
449.515287
20
262.121893
30
0.0
11
446.315287
21
262.729893
31
0.0
12
446.315287
22
261.513893
32
0.0
13
446.315287
23
261.513893
33
0.0
0
SOLID
8
DIM
10
452.515287
20
262.121893
30
0.0
11
455.715287
21
261.513893
31
0.0
12
455.715287
22
262.729893
32
0.0
13
455.715287
23
262.729893
33
0.0
0
LINE
8
DIM
10
452.515287
20
262.121893
30
0.0
11
462.115287
21
262.121893
31
0.0
0
TEXT
8
TEXT
10
462.915287
20
262.521893
30
0.0
40
3.5000
1
1.50 WALL
0
TEXT
8
TEXT
10
451.015287
20
193.590107
30
0.0
40
5.0000
1
SECTION A-A
72
1
73
0
11
451.015287
21
193.590107
31
0.0
0
LINE
8
TEXT
10
434.515287
20
191.990107
30
0.0
11
467.515287
21
191.990107
31
0.0
0
TEXT
8
TEXT
10
786.000000
20
268.995989
30
0.0
40
5.0000
1
ISOMETRIC VIEW
72
1
73
0
11
786.000000
21
268.995989
31
0.0
0
LINE
8
TEXT
10
765.000000
20
267.395989
30
0.0
11
807.000000
21
267.395989
31
0.0
0
TEXT
8
TEXT
10
786.000000
20
262.995989
30
0.0
40
3.5000
1
54.02 x 3.80 x 6.63 mm
72
1
73
0
11
786.000000
21
262.995989
31
0.0
0
LINE
8
CENTER
10
91.620000
20
105.260000
30
0.0
11
102.890000
21
105.260000
31
0.0
0
LINE
8
CENTER
10
105.290000
20
105.260000
30
0.0
11
116.560000
21
105.260000
31
0.0
0
LINE
8
CENTER
10
104.090000
20
92.790000
30
0.0
11
104.090000
21
104.060000
31
0.0
0
LINE
8
CENTER
10
104.090000
20
106.460000
30
0.0
11
104.090000
21
117.730000
31
0.0
0
SOLID
8
DIM
10
604.090000
20
94.390000
30
0.0
11
605.108362
21
97.483962
31
0.0
12
603.902657
22
97.641856
32
0.0
13
603.902657
23
97.641856
33
0.0
0
LINE
8
DIM
10
604.090000
20
94.390000
30
0.0
11
614.089748
21
170.750000
31
0.0
0
LINE
8
DIM
10
614.089748
20
170.750000
30
0.0
11
617.089748
21
170.750000
31
0.0
0
TEXT
8
TEXT
10
617.889748
20
171.750000
30
0.0
40
3.5000
1
R1.09
0
TEXT
8
TEXT
10
96.000000
20
183.000000
30
0.0
40
5.0000
1
DETAIL A
72
1
73
0
11
96.000000
21
183.000000
31
0.0
0
LINE
8
TEXT
10
84.000000
20
181.400000
30
0.0
11
108.000000
21
181.400000
31
0.0
0
TEXT
8
TEXT
10
96.000000
20
189.500000
30
0.0
40
3.5000
1
SCALE 10:1
72
1
73
0
11
96.000000
21
189.500000
31
0.0
0
LINE
8
CUT
10
402.500000
20
206.730000
30
0.0
11
402.500000
21
215.480560
31
0.0
0
LINE
8
CUTTHIN
10
402.500000
20
215.480560
30
0.0
11
402.500000
21
229.231440
31
0.0
0
LINE
8
CUT
10
402.500000
20
229.231440
30
0.0
11
402.500000
21
237.982000
31
0.0
0
LINE
8
CUT
10
402.500000
20
206.730000
30
0.0
11
411.500000
21
206.730000
31
0.0
0
SOLID
8
CUT
10
411.500000
20
206.730000
30
0.0
11
407.300000
21
207.528000
31
0.0
12
407.300000
22
205.932000
32
0.0
13
407.300000
23
205.932000
33
0.0
0
TEXT
8
TEXT
10
397.500000
20
206.730000
30
0.0
40
5.0000
1
A
72
1
73
2
11
397.500000
21
206.730000
31
0.0
0
LINE
8
CUT
10
402.500000
20
237.982000
30
0.0
11
411.500000
21
237.982000
31
0.0
0
SOLID
8
CUT
10
411.500000
20
237.982000
30
0.0
11
407.300000
21
238.780000
31
0.0
12
407.300000
22
237.184000
32
0.0
13
407.300000
23
237.184000
33
0.0
0
TEXT
8
TEXT
10
397.500000
20
237.982000
30
0.0
40
5.0000
1
A
72
1
73
2
11
397.500000
21
237.982000
31
0.0
0
CIRCLE
8
CENTER
10
300.882000
20
223.504000
30
0.0
40
16.000000
0
TEXT
8
TEXT
10
318.382000
20
241.004000
30
0.0
40
5.0000
1
A
0
LINE
8
VISIBLE
10
10.000000
20
461.723320
30
0.0
11
368.740000
21
461.723320
31
0.0
0
LINE
8
VISIBLE
10
368.740000
20
461.723320
30
0.0
11
368.740000
21
577.955080
31
0.0
0
LINE
8
VISIBLE
10
368.740000
20
577.955080
30
0.0
11
10.000000
21
577.955080
31
0.0
0
LINE
8
VISIBLE
10
10.000000
20
577.955080
30
0.0
11
10.000000
21
461.723320
31
0.0
0
LINE
8
TITLE
10
10.000000
20
461.723320
30
0.0
11
368.740000
21
461.723320
31
0.0
0
LINE
8
TITLE
10
368.740000
20
461.723320
30
0.0
11
368.740000
21
577.955080
31
0.0
0
LINE
8
TITLE
10
368.740000
20
577.955080
30
0.0
11
10.000000
21
577.955080
31
0.0
0
LINE
8
TITLE
10
10.000000
20
577.955080
30
0.0
11
10.000000
21
461.723320
31
0.0
0
TEXT
8
TEXT
10
189.370000
20
463.323320
30
0.0
40
3.5000
1
ISOMETRIC 1 — FRONT-LEFT — 1000 x 324 px, RENDERED OFF THIS SOLID
72
1
73
0
11
189.370000
21
463.323320
31
0.0
0
LINE
8
VISIBLE
10
371.240000
20
461.516230
30
0.0
11
598.620000
21
461.516230
31
0.0
0
LINE
8
VISIBLE
10
598.620000
20
461.516230
30
0.0
11
598.620000
21
578.162170
31
0.0
0
LINE
8
VISIBLE
10
598.620000
20
578.162170
30
0.0
11
371.240000
21
578.162170
31
0.0
0
LINE
8
VISIBLE
10
371.240000
20
578.162170
30
0.0
11
371.240000
21
461.516230
31
0.0
0
LINE
8
TITLE
10
371.240000
20
461.516230
30
0.0
11
598.620000
21
461.516230
31
0.0
0
LINE
8
TITLE
10
598.620000
20
461.516230
30
0.0
11
598.620000
21
578.162170
31
0.0
0
LINE
8
TITLE
10
598.620000
20
578.162170
30
0.0
11
371.240000
21
578.162170
31
0.0
0
LINE
8
TITLE
10
371.240000
20
578.162170
30
0.0
11
371.240000
21
461.516230
31
0.0
0
TEXT
8
TEXT
10
484.930000
20
463.116230
30
0.0
40
3.5000
1
ISOMETRIC 2 — FRONT-RIGHT — 1000 x 513 px, RENDERED OFF THIS SOLID
72
1
73
0
11
484.930000
21
463.116230
31
0.0
0
LINE
8
VISIBLE
10
601.120000
20
461.516230
30
0.0
11
828.500000
21
461.516230
31
0.0
0
LINE
8
VISIBLE
10
828.500000
20
461.516230
30
0.0
11
828.500000
21
578.162170
31
0.0
0
LINE
8
VISIBLE
10
828.500000
20
578.162170
30
0.0
11
601.120000
21
578.162170
31
0.0
0
LINE
8
VISIBLE
10
601.120000
20
578.162170
30
0.0
11
601.120000
21
461.516230
31
0.0
0
LINE
8
TITLE
10
601.120000
20
461.516230
30
0.0
11
828.500000
21
461.516230
31
0.0
0
LINE
8
TITLE
10
828.500000
20
461.516230
30
0.0
11
828.500000
21
578.162170
31
0.0
0
LINE
8
TITLE
10
828.500000
20
578.162170
30
0.0
11
601.120000
21
578.162170
31
0.0
0
LINE
8
TITLE
10
601.120000
20
578.162170
30
0.0
11
601.120000
21
461.516230
31
0.0
0
TEXT
8
TEXT
10
714.810000
20
463.116230
30
0.0
40
3.5000
1
ISOMETRIC 3 — REAR-RIGHT — 1000 x 513 px, RENDERED OFF THIS SOLID
72
1
73
0
11
714.810000
21
463.116230
31
0.0
0
LINE
8
VISIBLE
10
10.000000
20
346.879367
30
0.0
11
281.166667
21
346.879367
31
0.0
0
LINE
8
VISIBLE
10
281.166667
20
346.879367
30
0.0
11
281.166667
21
453.719033
31
0.0
0
LINE
8
VISIBLE
10
281.166667
20
453.719033
30
0.0
11
10.000000
21
453.719033
31
0.0
0
LINE
8
VISIBLE
10
10.000000
20
453.719033
30
0.0
11
10.000000
21
346.879367
31
0.0
0
LINE
8
TITLE
10
10.000000
20
346.879367
30
0.0
11
281.166667
21
346.879367
31
0.0
0
LINE
8
TITLE
10
281.166667
20
346.879367
30
0.0
11
281.166667
21
453.719033
31
0.0
0
LINE
8
TITLE
10
281.166667
20
453.719033
30
0.0
11
10.000000
21
453.719033
31
0.0
0
LINE
8
TITLE
10
10.000000
20
453.719033
30
0.0
11
10.000000
21
346.879367
31
0.0
0
TEXT
8
TEXT
10
145.583333
20
348.479367
30
0.0
40
3.5000
1
ISOMETRIC 4 — REAR-LEFT — 1000 x 394 px, RENDERED OFF THIS SOLID
72
1
73
0
11
145.583333
21
348.479367
31
0.0
0
LINE
8
VISIBLE
10
283.666667
20
346.879367
30
0.0
11
554.833333
21
346.879367
31
0.0
0
LINE
8
VISIBLE
10
554.833333
20
346.879367
30
0.0
11
554.833333
21
453.719033
31
0.0
0
LINE
8
VISIBLE
10
554.833333
20
453.719033
30
0.0
11
283.666667
21
453.719033
31
0.0
0
LINE
8
VISIBLE
10
283.666667
20
453.719033
30
0.0
11
283.666667
21
346.879367
31
0.0
0
LINE
8
TITLE
10
283.666667
20
346.879367
30
0.0
11
554.833333
21
346.879367
31
0.0
0
LINE
8
TITLE
10
554.833333
20
346.879367
30
0.0
11
554.833333
21
453.719033
31
0.0
0
LINE
8
TITLE
10
554.833333
20
453.719033
30
0.0
11
283.666667
21
453.719033
31
0.0
0
LINE
8
TITLE
10
283.666667
20
453.719033
30
0.0
11
283.666667
21
346.879367
31
0.0
0
TEXT
8
TEXT
10
419.250000
20
348.479367
30
0.0
40
3.5000
1
TOP-DOWN RENDER — 1000 x 394 px, RENDERED OFF THIS SOLID
72
1
73
0
11
419.250000
21
348.479367
31
0.0
0
LINE
8
VISIBLE
10
557.333333
20
346.879367
30
0.0
11
828.500000
21
346.879367
31
0.0
0
LINE
8
VISIBLE
10
828.500000
20
346.879367
30
0.0
11
828.500000
21
453.719033
31
0.0
0
LINE
8
VISIBLE
10
828.500000
20
453.719033
30
0.0
11
557.333333
21
453.719033
31
0.0
0
LINE
8
VISIBLE
10
557.333333
20
453.719033
30
0.0
11
557.333333
21
346.879367
31
0.0
0
LINE
8
TITLE
10
557.333333
20
346.879367
30
0.0
11
828.500000
21
346.879367
31
0.0
0
LINE
8
TITLE
10
828.500000
20
346.879367
30
0.0
11
828.500000
21
453.719033
31
0.0
0
LINE
8
TITLE
10
828.500000
20
453.719033
30
0.0
11
557.333333
21
453.719033
31
0.0
0
LINE
8
TITLE
10
557.333333
20
453.719033
30
0.0
11
557.333333
21
346.879367
31
0.0
0
TEXT
8
TEXT
10
692.916667
20
348.479367
30
0.0
40
3.5000
1
BOTTOM-UP RENDER — 1000 x 394 px, RENDERED OFF THIS SOLID
72
1
73
0
11
692.916667
21
348.479367
31
0.0
0
TEXT
8
TEXT
10
12.000000
20
163.500000
30
0.0
40
4.1000
1
NOTES
0
LINE
8
TEXT
10
12.000000
20
161.900000
30
0.0
11
24.300000
21
161.900000
31
0.0
0
TEXT
8
TEXT
10
12.000000
20
156.937500
30
0.0
40
3.5000
1
1. ALL DIMENSIONS IN mm AND DEGREES. EVERY DIMENSION AND EVERY HOLE CALLOUT
0
TEXT
8
TEXT
10
12.000000
20
151.687500
30
0.0
40
3.5000
1
   WAS MEASURED OFF THE SOLID.
0
TEXT
8
TEXT
10
12.000000
20
146.437500
30
0.0
40
3.5000
1
2. PROCESS: FDM.
0
TEXT
8
TEXT
10
12.000000
20
141.187500
30
0.0
40
3.5000
1
3. THINNEST WALL, WHOLE SOLID (RAY MINIMUM): 0.9210 mm, AT X=25.809
0
TEXT
8
TEXT
10
12.000000
20
135.937500
30
0.0
40
3.5000
1
   Y=35.500 Z=52.874 — MEASURED OVER THE WHOLE SOLID BY RAY+EXACT AT 0.3700 mm
0
TEXT
8
TEXT
10
12.000000
20
130.687500
30
0.0
40
3.5000
1
   SAMPLE SPACING (A FEATURE NARROWER THAN THAT CAN BE MISSED). THIS IS A
0
TEXT
8
TEXT
10
12.000000
20
125.437500
30
0.0
40
3.5000
1
   DISTANCE THROUGH MATERIAL, NOT A WALL: AT AN EDGE, A FILLET RUN-OUT OR A
0
TEXT
8
TEXT
10
12.000000
20
120.187500
30
0.0
40
3.5000
1
   CHAMFER TIP IT IS REAL AND UNPRINTABLE BY DEFINITION. DO NOT JUDGE
0
TEXT
8
TEXT
10
12.000000
20
114.937500
30
0.0
40
3.5000
1
   PRINTABILITY BY IT — THE NEXT NOTE IS THE ONE THAT DOES.
0
TEXT
8
TEXT
10
12.000000
20
109.687500
30
0.0
40
3.5000
1
4. PRINTABLE MINIMUM WALL: 0.9236 mm, AT X=25.925 Y=35.375 Z=54.170 —
0
TEXT
8
TEXT
10
12.000000
20
104.437500
30
0.0
40
3.5000
1
   MEASURED AS THE SMALLEST MEDIAN WALL OVER A NEIGHBOURHOOD OF 1.1100 mm (>=
0
TEXT
8
TEXT
10
12.000000
20
99.187500
30
0.0
40
3.5000
1
   8 SAMPLES), RAYS CAPPED AT 4.000 mm, BY
0
TEXT
8
TEXT
10
12.000000
20
93.937500
30
0.0
40
3.5000
1
   cecad.inspect.printable_wall_detail. AGAINST THE 0.8000 mm FLOOR (2
0
TEXT
8
TEXT
10
12.000000
20
88.687500
30
0.0
40
3.5000
1
   PERIMETERS @ 0.4 mm NOZZLE, cecad/printed.py:801): VERDICT PASS
0
TEXT
8
TEXT
10
12.000000
20
83.437500
30
0.0
40
3.5000
1
5. GENERAL TOLERANCE CANNOT DETERMINE — SEE PRINT / DFM NOTES UNLESS
0
TEXT
8
TEXT
10
12.000000
20
78.187500
30
0.0
40
3.5000
1
   STATED.
0
TEXT
8
TEXT
10
12.000000
20
72.937500
30
0.0
40
3.5000
1
6. SECTION A-A AT X=-25.00: THINNEST MATERIAL IN THIS PLANE ONLY 0.93 mm,
0
TEXT
8
TEXT
10
12.000000
20
67.687500
30
0.0
40
3.5000
1
   AT Y=36.49, Z=55.15 — A SCAN OF ONE CUT, NOT THE PART MINIMUM.
0
TEXT
8
TEXT
10
12.000000
20
62.437500
30
0.0
40
3.5000
1
7. FRONT VIEW: hidden lines SUPPRESSED: all 768 edge samples still land on
0
TEXT
8
TEXT
10
12.000000
20
57.187500
30
0.0
40
3.5000
1
   drawn ink without them.
0
TEXT
8
TEXT
10
12.000000
20
51.937500
30
0.0
40
3.5000
1
8. TOP VIEW: hidden lines KEPT: without them 48 of 764 edge samples have no
0
TEXT
8
TEXT
10
12.000000
20
46.687500
30
0.0
40
3.5000
1
   ink within 0.35 mm (worst 0.563 mm) and the feature would be missing from
0
TEXT
8
TEXT
10
12.000000
20
41.437500
30
0.0
40
3.5000
1
   the sheet.
0
TEXT
8
TEXT
10
12.000000
20
36.187500
30
0.0
40
4.1000
1
PRINT / DFM
0
LINE
8
TEXT
10
12.000000
20
34.587500
30
0.0
11
39.060000
21
34.587500
31
0.0
0
TEXT
8
TEXT
10
12.000000
20
29.625000
30
0.0
40
3.5000
1
1. ORIENTATION: laid flat (54 x 4 x 7 mm)
0
TEXT
8
TEXT
10
12.000000
20
24.375000
30
0.0
40
3.5000
1
2. THINNEST WALL, WHOLE SOLID (RAY MINIMUM): 0.9210 mm — a distance through
0
TEXT
8
TEXT
10
12.000000
20
19.125000
30
0.0
40
3.5000
1
   material, NOT a printable wall where it falls on an edge, a fillet run-out
0
TEXT
8
TEXT
10
12.000000
20
13.875000
30
0.0
40
3.5000
1
   or a chamfer tip. Printability is judged on the next line.
0
TEXT
8
TEXT
10
176.200000
20
163.500000
30
0.0
40
3.5000
1
3. PRINTABLE MINIMUM WALL: 0.9236 mm (smallest median wall over a 1.1100 mm
0
TEXT
8
TEXT
10
176.200000
20
158.250000
30
0.0
40
3.5000
1
   neighbourhood, cecad.inspect.printable_wall_detail) against a 0.8000 mm
0
TEXT
8
TEXT
10
176.200000
20
153.000000
30
0.0
40
3.5000
1
   floor (2 perimeters @ 0.4 mm nozzle): VERDICT PASS
0
TEXT
8
TEXT
10
176.200000
20
147.750000
30
0.0
40
3.5000
1
4. 2 horizontal bore(s) bridge at the crown: ream any bearing or press-fit
0
TEXT
8
TEXT
10
176.200000
20
142.500000
30
0.0
40
3.5000
1
   bore to size
0
TEXT
8
TEXT
10
176.200000
20
137.250000
30
0.0
40
3.5000
1
5. FILAMENT: PLA, ~1 g (modelled), 34 layers @ 0.2 mm
0
TEXT
8
TEXT
10
176.200000
20
132.000000
30
0.0
40
3.5000
1
6. TOLERANCE BASIS, IN-HOUSE: CANNOT DETERMINE. Every Bambu on this farm
0
TEXT
8
TEXT
10
176.200000
20
126.750000
30
0.0
40
3.5000
1
   records tolerance_mm: null, cite "no coupon printed and measured on this
0
TEXT
8
TEXT
10
176.200000
20
121.500000
30
0.0
40
3.5000
1
   machine" (ce-machines/bambu-h2s-*, bambu-h2d-*/capabilities.json, read
0
TEXT
8
TEXT
10
176.200000
20
116.250000
30
0.0
40
3.5000
1
   2026-09-02), and Bambu Lab's own H2D Pro spec sheet carries no
0
TEXT
8
TEXT
10
176.200000
20
111.000000
30
0.0
40
3.5000
1
   dimensional-accuracy line. DIMENSIONS HERE ARE NOMINAL AS MODELLED.
0
TEXT
8
TEXT
10
176.200000
20
105.750000
30
0.0
40
3.5000
1
7. TOLERANCE BASIS, OUTSOURCED: JLC3DP ±0.3 mm FDM (jlc3dp.com,
0
TEXT
8
TEXT
10
176.200000
20
100.500000
30
0.0
40
3.5000
1
   ce-machines/farm-jlc3dp); Hubs ±0.5%, floor ±0.5 mm (hubs.com/3d-printing/,
0
TEXT
8
TEXT
10
176.200000
20
95.250000
30
0.0
40
3.5000
1
   ce-machines/farm-hubs). Apply the route's figure, not both. The ±0.2 mm in
0
TEXT
8
TEXT
10
176.200000
20
90.000000
30
0.0
40
3.5000
1
   cecad/machining.py fdm is a repo planning constant with no vendor cite and
0
TEXT
8
TEXT
10
176.200000
20
84.750000
30
0.0
40
3.5000
1
   is NOT used here. One printed and measured coupon closes this note.
0
TEXT
8
TEXT
10
176.200000
20
79.500000
30
0.0
40
3.5000
1
8. NO ISO 286 CLASS IS DECLARED ON ANY BORE: FDM cannot be sized to one
0
TEXT
8
TEXT
10
176.200000
20
74.250000
30
0.0
40
3.5000
1
   (H7/p6 at Ø3 is a 0.010 mm band). REAM bearing and press-fit bores after
0
TEXT
8
TEXT
10
176.200000
20
69.000000
30
0.0
40
3.5000
1
   printing.
0
TEXT
8
TEXT
10
176.200000
20
63.750000
30
0.0
40
3.5000
1
9. RADII NAMED IN cad/part.py THAT ARE NOT CIRCULAR EDGES ON THIS SOLID:
0
TEXT
8
TEXT
10
176.200000
20
58.500000
30
0.0
40
3.5000
1
   1.00 mm, 2.00 mm. cecad.inspect.arc_radii measures 1 ARC(S) HERE AND EVERY
0
TEXT
8
TEXT
10
176.200000
20
53.250000
30
0.0
40
3.5000
1
   ONE IS DIMENSIONED ABOVE. NO DIMENSION IS MISSING: A LEADER NEEDS AN EDGE.
0
TEXT
8
TEXT
10
176.200000
20
48.000000
30
0.0
40
3.5000
1
   THE GEOMETRY FILE CARRIES THE SURFACE.
0
TEXT
8
TEXT
10
176.200000
20
42.750000
30
0.0
40
3.5000
1
10. ORTHOGRAPHIC VIEWS: 2 (FRONT, TOP) — cecad.autosheet.choose_views ON
0
TEXT
8
TEXT
10
176.200000
20
37.500000
30
0.0
40
3.5000
1
   THE 54.015 x 3.800 x 6.626 mm BBOX, THIN/LONG 0.0704. A THIRD VIEW WOULD BE
0
TEXT
8
TEXT
10
176.200000
20
32.250000
30
0.0
40
3.5000
1
   THIS PART EDGE-ON, WHICH A.2 ORDERS SUPPRESSED; THE SECTION AND THE
0
TEXT
8
TEXT
10
176.200000
20
27.000000
30
0.0
40
3.5000
1
   ISOMETRIC CARRY IT.
0
TEXT
8
TEXT
10
176.200000
20
21.750000
30
0.0
40
4.1000
1
FEATURE SCHEDULE — 23 FEATURE(S) ENUMERATED OFF THE SOLID, GENERAL TOLERANCE CANNOT DETERMINE — SEE PRINT / DFM NOTES
0
LINE
8
TEXT
10
176.200000
20
20.150000
30
0.0
11
334.400000
21
20.150000
31
0.0
0
TEXT
8
TEXT
10
176.200000
20
15.187500
30
0.0
40
3.5000
1
CENSUS cecad.sheetcheck.enumerate_features v2 — 23 ROW(S), 6 CANNOT
0
TEXT
8
TEXT
10
340.400000
20
163.500000
30
0.0
40
3.5000
1
   DETERMINE, LISTED BELOW
0
TEXT
8
TEXT
10
340.400000
20
158.250000
30
0.0
40
3.5000
1
OUTLINE ENVELOPE LENGTH
0
TEXT
8
DIM
10
496.600000
20
158.250000
30
0.0
40
3.5000
1
54.0153
72
2
73
0
11
496.600000
21
158.250000
31
0.0
0
TEXT
8
TEXT
10
340.400000
20
153.000000
30
0.0
40
3.5000
1
OUTLINE ENVELOPE WIDTH
0
TEXT
8
DIM
10
496.600000
20
153.000000
30
0.0
40
3.5000
1
3.8000
72
2
73
0
11
496.600000
21
153.000000
31
0.0
0
TEXT
8
TEXT
10
340.400000
20
147.750000
30
0.0
40
3.5000
1
OUTLINE ENVELOPE HEIGHT
0
TEXT
8
DIM
10
496.600000
20
147.750000
30
0.0
40
3.5000
1
6.6260
72
2
73
0
11
496.600000
21
147.750000
31
0.0
0
TEXT
8
TEXT
10
340.400000
20
142.500000
30
0.0
40
3.5000
1
HOLE 1 DIAMETER (ALONG Y)
0
TEXT
8
DIM
10
496.600000
20
142.500000
30
0.0
40
3.5000
1
Ø2.1740
72
2
73
0
11
496.600000
21
142.500000
31
0.0
0
TEXT
8
TEXT
10
340.400000
20
137.250000
30
0.0
40
3.5000
1
HOLE 1 DEPTH
0
TEXT
8
DIM
10
496.600000
20
137.250000
30
0.0
40
3.5000
1
1.5000
72
2
73
0
11
496.600000
21
137.250000
31
0.0
0
TEXT
8
TEXT
10
340.400000
20
132.000000
30
0.0
40
3.5000
1
HOLE 1 POSITION FROM THE X DATUM FACE
0
TEXT
8
DIM
10
496.600000
20
132.000000
30
0.0
40
3.5000
1
2.0076
72
2
73
0
11
496.600000
21
132.000000
31
0.0
0
TEXT
8
TEXT
10
340.400000
20
126.750000
30
0.0
40
3.5000
1
HOLE 1 POSITION FROM THE Z DATUM FACE
0
TEXT
8
DIM
10
496.600000
20
126.750000
30
0.0
40
3.5000
1
4.6130
72
2
73
0
11
496.600000
21
126.750000
31
0.0
0
TEXT
8
TEXT
10
340.400000
20
121.500000
30
0.0
40
3.5000
1
HOLE 2 DIAMETER (ALONG Y)
0
TEXT
8
DIM
10
496.600000
20
121.500000
30
0.0
40
3.5000
1
Ø2.1740
72
2
73
0
11
496.600000
21
121.500000
31
0.0
0
TEXT
8
TEXT
10
340.400000
20
116.250000
30
0.0
40
3.5000
1
HOLE 2 DEPTH
0
TEXT
8
DIM
10
496.600000
20
116.250000
30
0.0
40
3.5000
1
1.5000
72
2
73
0
11
496.600000
21
116.250000
31
0.0
0
TEXT
8
TEXT
10
340.400000
20
111.000000
30
0.0
40
3.5000
1
HOLE 2 POSITION FROM THE X DATUM FACE
0
TEXT
8
DIM
10
496.600000
20
111.000000
30
0.0
40
3.5000
1
52.0076
72
2
73
0
11
496.600000
21
111.000000
31
0.0
0
TEXT
8
TEXT
10
340.400000
20
105.750000
30
0.0
40
3.5000
1
HOLE 2 POSITION FROM THE Z DATUM FACE
0
TEXT
8
DIM
10
496.600000
20
105.750000
30
0.0
40
3.5000
1
4.6130
72
2
73
0
11
496.600000
21
105.750000
31
0.0
0
TEXT
8
TEXT
10
340.400000
20
100.500000
30
0.0
40
3.5000
1
RADIUS R1.09 (4 EDGES, 4 FULL CIRCLES)
0
TEXT
8
DIM
10
496.600000
20
100.500000
30
0.0
40
3.5000
1
R1.0900
72
2
73
0
11
496.600000
21
100.500000
31
0.0
0
TEXT
8
TEXT
10
340.400000
20
95.250000
30
0.0
40
3.5000
1
THINNEST WALL
0
TEXT
8
DIM
10
496.600000
20
95.250000
30
0.0
40
3.5000
1
0.9210
72
2
73
0
11
496.600000
21
95.250000
31
0.0
0
TEXT
8
TEXT
10
340.400000
20
90.000000
30
0.0
40
3.5000
1
POCKET MOUTH ON A PLANE NORMAL TO Y, 4 EDGE(S) — WIDTH
0
TEXT
8
DIM
10
496.600000
20
90.000000
30
0.0
40
3.5000
1
1.9660
72
2
73
0
11
496.600000
21
90.000000
31
0.0
0
TEXT
8
TEXT
10
340.400000
20
84.750000
30
0.0
40
3.5000
1
POCKET MOUTH ON A PLANE NORMAL TO Y, 4 EDGE(S) — LENGTH
0
TEXT
8
DIM
10
496.600000
20
84.750000
30
0.0
40
3.5000
1
2.4660
72
2
73
0
11
496.600000
21
84.750000
31
0.0
0
TEXT
8
TEXT
10
340.400000
20
79.500000
30
0.0
40
3.5000
1
POCKET MOUTH ON A PLANE NORMAL TO Y, 4 EDGE(S) — DEPTH
0
TEXT
8
DIM
10
496.600000
20
79.500000
30
0.0
40
3.5000
1
2.3000
72
2
73
0
11
496.600000
21
79.500000
31
0.0
0
TEXT
8
TEXT
10
340.400000
20
74.250000
30
0.0
40
3.5000
1
POCKET MOUTH ON A PLANE NORMAL TO Y, 4 EDGE(S) — POSITIO
0
TEXT
8
DIM
10
496.600000
20
74.250000
30
0.0
40
3.5000
1
10.1076
72
2
73
0
11
496.600000
21
74.250000
31
0.0
0
TEXT
8
TEXT
10
340.400000
20
69.000000
30
0.0
40
3.5000
1
POCKET MOUTH ON A PLANE NORMAL TO Y, 4 EDGE(S) — POSITIO
0
TEXT
8
DIM
10
496.600000
20
69.000000
30
0.0
40
3.5000
1
1.0130
72
2
73
0
11
496.600000
21
69.000000
31
0.0
0
TEXT
8
TEXT
10
340.400000
20
63.750000
30
0.0
40
3.5000
1
POCKET MOUTH ON A PLANE NORMAL TO Y, 4 EDGE(S) — WIDTH
0
TEXT
8
DIM
10
496.600000
20
63.750000
30
0.0
40
3.5000
1
1.9660
72
2
73
0
11
496.600000
21
63.750000
31
0.0
0
TEXT
8
TEXT
10
340.400000
20
58.500000
30
0.0
40
3.5000
1
POCKET MOUTH ON A PLANE NORMAL TO Y, 4 EDGE(S) — LENGTH
0
TEXT
8
DIM
10
496.600000
20
58.500000
30
0.0
40
3.5000
1
2.4660
72
2
73
0
11
496.600000
21
58.500000
31
0.0
0
TEXT
8
TEXT
10
340.400000
20
53.250000
30
0.0
40
3.5000
1
POCKET MOUTH ON A PLANE NORMAL TO Y, 4 EDGE(S) — DEPTH
0
TEXT
8
DIM
10
496.600000
20
53.250000
30
0.0
40
3.5000
1
2.3000
72
2
73
0
11
496.600000
21
53.250000
31
0.0
0
TEXT
8
TEXT
10
340.400000
20
48.000000
30
0.0
40
3.5000
1
POCKET MOUTH ON A PLANE NORMAL TO Y, 4 EDGE(S) — POSITIO
0
TEXT
8
DIM
10
496.600000
20
48.000000
30
0.0
40
3.5000
1
43.9076
72
2
73
0
11
496.600000
21
48.000000
31
0.0
0
TEXT
8
TEXT
10
340.400000
20
42.750000
30
0.0
40
3.5000
1
POCKET MOUTH ON A PLANE NORMAL TO Y, 4 EDGE(S) — POSITIO
0
TEXT
8
DIM
10
496.600000
20
42.750000
30
0.0
40
3.5000
1
1.0130
72
2
73
0
11
496.600000
21
42.750000
31
0.0
0
TEXT
8
TEXT
10
340.400000
20
37.500000
30
0.0
40
4.1000
1
CANNOT DETERMINE — FEATURES THIS CENSUS COULD NOT MEASURE (A4)
0
LINE
8
TEXT
10
340.400000
20
35.900000
30
0.0
11
492.920000
21
35.900000
31
0.0
0
TEXT
8
TEXT
10
340.400000
20
30.937500
30
0.0
40
3.5000
1
CANNOT DETERMINE — CHAMFER: A4 requires size and angle on every chamfer;
0
TEXT
8
TEXT
10
340.400000
20
25.687500
30
0.0
40
3.5000
1
   cecad.inspect has no chamfer classifier — a chamfer is a planar face
0
TEXT
8
TEXT
10
340.400000
20
20.437500
30
0.0
40
3.5000
1
   bridging two faces at an angle and nothing here identifies one. SETTLED BY:
0
TEXT
8
TEXT
10
340.400000
20
15.187500
30
0.0
40
3.5000
1
   a chamfer classifier in cecad.inspect (planar face whose two neighbours
0
TEXT
8
TEXT
10
504.600000
20
163.500000
30
0.0
40
3.5000
1
   meet it at equal angles), or the builder declaring its chamfers in the part
0
TEXT
8
TEXT
10
504.600000
20
158.250000
30
0.0
40
3.5000
1
   record
0
TEXT
8
TEXT
10
504.600000
20
153.000000
30
0.0
40
3.5000
1
CANNOT DETERMINE — RIB: A4 requires thickness, height and pitch on every
0
TEXT
8
TEXT
10
504.600000
20
147.750000
30
0.0
40
3.5000
1
   rib; nothing here groups faces into a rib. SETTLED BY: a rib classifier
0
TEXT
8
TEXT
10
504.600000
20
142.500000
30
0.0
40
3.5000
1
   (parallel thin prisms standing off a wall), or the builder declaring its
0
TEXT
8
TEXT
10
504.600000
20
137.250000
30
0.0
40
3.5000
1
   rib pitch
0
TEXT
8
TEXT
10
504.600000
20
132.000000
30
0.0
40
3.5000
1
CANNOT DETERMINE — DRAFT: A4 requires every draft angle; no face here is
0
TEXT
8
TEXT
10
504.600000
20
126.750000
30
0.0
40
3.5000
1
   tested for draft against a pull direction. SETTLED BY: a pull direction on
0
TEXT
8
TEXT
10
504.600000
20
121.500000
30
0.0
40
3.5000
1
   the part record, then the angle of every planar face to it
0
TEXT
8
TEXT
10
504.600000
20
116.250000
30
0.0
40
3.5000
1
CANNOT DETERMINE — STEP: A4 requires every step and shoulder; nothing here
0
TEXT
8
TEXT
10
504.600000
20
111.000000
30
0.0
40
3.5000
1
   classifies a shoulder between two coaxial diameters or two parallel faces.
0
TEXT
8
TEXT
10
504.600000
20
105.750000
30
0.0
40
3.5000
1
   SETTLED BY: a step classifier, or the section views declaring their
0
TEXT
8
TEXT
10
504.600000
20
100.500000
30
0.0
40
3.5000
1
   stations
0
TEXT
8
TEXT
10
504.600000
20
95.250000
30
0.0
40
3.5000
1
CANNOT DETERMINE — MATE: A4 requires every surface that mates with another
0
TEXT
8
TEXT
10
504.600000
20
90.000000
30
0.0
40
3.5000
1
   part, with the mating part named by its triad ref; the mates live in
0
TEXT
8
TEXT
10
668.800000
20
163.500000
30
0.0
40
3.5000
1
   ce-assemblies/*/joints.json and are not read here. SETTLED BY: reading this
0
TEXT
8
TEXT
10
668.800000
20
158.250000
30
0.0
40
3.5000
1
   part's joints out of the assemblies that use it and matching each mate to a
0
TEXT
8
TEXT
10
668.800000
20
153.000000
30
0.0
40
3.5000
1
   face
0
TEXT
8
TEXT
10
668.800000
20
147.750000
30
0.0
40
3.5000
1
CANNOT DETERMINE — WALL: A4 wants a wall thickness at every distinct
0
TEXT
8
TEXT
10
668.800000
20
142.500000
30
0.0
40
3.5000
1
   station; only the thinnest wall is measurable off the solid without a
0
TEXT
8
TEXT
10
668.800000
20
137.250000
30
0.0
40
3.5000
1
   station list. SETTLED BY: the drawer declaring the section stations it
0
TEXT
8
TEXT
10
668.800000
20
132.000000
30
0.0
40
3.5000
1
   dimensions, or a section per shell region
0
LINE
8
FRAME
10
10.000000
20
170.750000
30
0.0
11
831.000000
21
170.750000
31
0.0
0
LINE
8
FRAME
10
601.000000
20
10.000000
30
0.0
11
831.000000
21
10.000000
31
0.0
0
LINE
8
FRAME
10
831.000000
20
10.000000
30
0.0
11
831.000000
21
82.000000
31
0.0
0
LINE
8
FRAME
10
831.000000
20
82.000000
30
0.0
11
601.000000
21
82.000000
31
0.0
0
LINE
8
FRAME
10
601.000000
20
82.000000
30
0.0
11
601.000000
21
10.000000
31
0.0
0
LINE
8
TITLE
10
601.000000
20
67.000000
30
0.0
11
831.000000
21
67.000000
31
0.0
0
LINE
8
TITLE
10
601.000000
20
21.000000
30
0.0
11
831.000000
21
21.000000
31
0.0
0
LINE
8
TITLE
10
601.000000
20
32.500000
30
0.0
11
831.000000
21
32.500000
31
0.0
0
LINE
8
TITLE
10
601.000000
20
44.000000
30
0.0
11
831.000000
21
44.000000
31
0.0
0
LINE
8
TITLE
10
601.000000
20
55.500000
30
0.0
11
831.000000
21
55.500000
31
0.0
0
TEXT
8
TEXT
10
603.500000
20
74.500000
30
0.0
40
7.0000
1
MICRODUCK-BANANA-PCB-LOCKER
72
0
73
2
11
603.500000
21
74.500000
31
0.0
0
LINE
8
TITLE
10
811.000000
20
67.000000
30
0.0
11
811.000000
21
82.000000
31
0.0
0
TEXT
8
TITLE
10
821.000000
20
77.800000
30
0.0
40
3.5000
1
REV
72
1
73
0
11
821.000000
21
77.800000
31
0.0
0
TEXT
8
TEXT
10
821.000000
20
69.000000
30
0.0
40
5.2000
1
A
72
1
73
0
11
821.000000
21
69.000000
31
0.0
0
LINE
8
TITLE
10
781.000000
20
67.000000
30
0.0
11
781.000000
21
82.000000
31
0.0
0
CIRCLE
8
TITLE
10
787.500000
20
74.500000
30
0.0
40
3.500000
0
CIRCLE
8
TITLE
10
787.500000
20
74.500000
30
0.0
40
1.960000
0
LINE
8
TITLE
10
797.300000
20
71.000000
30
0.0
11
797.300000
21
78.000000
31
0.0
0
LINE
8
TITLE
10
797.300000
20
78.000000
30
0.0
11
803.250000
21
76.460000
31
0.0
0
LINE
8
TITLE
10
803.250000
20
76.460000
30
0.0
11
803.250000
21
72.540000
31
0.0
0
LINE
8
TITLE
10
803.250000
20
72.540000
30
0.0
11
797.300000
21
71.000000
31
0.0
0
LINE
8
CENTER
10
782.500000
20
74.500000
30
0.0
11
804.750000
21
74.500000
31
0.0
0
LINE
8
TITLE
10
665.000000
20
21.000000
30
0.0
11
665.000000
21
67.000000
31
0.0
0
LINE
8
TITLE
10
729.000000
20
21.000000
30
0.0
11
729.000000
21
67.000000
31
0.0
0
TEXT
8
TITLE
10
602.600000
20
62.800000
30
0.0
40
3.5000
1
MATERIAL
0
TEXT
8
TEXT
10
602.600000
20
56.900000
30
0.0
40
3.5000
1
PLA
0
TEXT
8
TITLE
10
666.600000
20
62.800000
30
0.0
40
3.5000
1
PROCESS
0
TEXT
8
TEXT
10
666.600000
20
56.900000
30
0.0
40
3.5000
1
FDM
0
TEXT
8
TITLE
10
730.600000
20
62.800000
30
0.0
40
3.5000
1
SCALE
0
TEXT
8
TEXT
10
730.600000
20
56.900000
30
0.0
40
3.5000
1
2:1
0
TEXT
8
TITLE
10
602.600000
20
51.300000
30
0.0
40
3.5000
1
CATEGORY
0
TEXT
8
TEXT
10
602.600000
20
45.400000
30
0.0
40
3.5000
1
bracket
0
TEXT
8
TITLE
10
634.600000
20
51.300000
30
0.0
40
3.5000
1
GENERAL TOL
0
TEXT
8
TEXT
10
634.600000
20
45.400000
30
0.0
40
3.5000
1
CANNOT DETER~
0
LINE
8
TITLE
10
633.000000
20
44.000000
30
0.0
11
633.000000
21
55.500000
31
0.0
0
TEXT
8
TITLE
10
666.600000
20
51.300000
30
0.0
40
3.5000
1
FINISH
0
TEXT
8
TEXT
10
666.600000
20
45.400000
30
0.0
40
3.5000
1
AS PRINTED
0
TEXT
8
TITLE
10
730.600000
20
51.300000
30
0.0
40
3.5000
1
SHEET
0
TEXT
8
TEXT
10
730.600000
20
45.400000
30
0.0
40
3.5000
1
A1  1/1
0
TEXT
8
TITLE
10
602.600000
20
39.800000
30
0.0
40
3.5000
1
VOLUME (MEASURED)
0
TEXT
8
TEXT
10
602.600000
20
33.900000
30
0.0
40
3.5000
1
0.46 cm3
0
TEXT
8
TITLE
10
666.600000
20
39.800000
30
0.0
40
3.5000
1
MASS (ASSUMES PLA)
0
TEXT
8
TEXT
10
666.600000
20
33.900000
30
0.0
40
3.5000
1
0.6 g
0
TEXT
8
TITLE
10
730.600000
20
39.800000
30
0.0
40
3.5000
1
UNITS
0
TEXT
8
TEXT
10
730.600000
20
33.900000
30
0.0
40
3.5000
1
mm / deg
0
TEXT
8
TITLE
10
602.600000
20
28.300000
30
0.0
40
3.5000
1
SIZE (BBOX, MEASURED)
0
TEXT
8
TEXT
10
602.600000
20
22.400000
30
0.0
40
3.5000
1
54.02 x 3.80 x 6.63
0
TEXT
8
TITLE
10
666.600000
20
28.300000
30
0.0
40
3.5000
1
DRAWN
0
TEXT
8
TEXT
10
666.600000
20
22.400000
30
0.0
40
3.5000
1
ce-cad  2026-09-05
0
TEXT
8
TITLE
10
730.600000
20
28.300000
30
0.0
40
3.5000
1
PROJECTION
0
TEXT
8
TEXT
10
730.600000
20
22.400000
30
0.0
40
3.5000
1
THIRD ANGLE
0
TEXT
8
TITLE
10
602.600000
20
16.800000
30
0.0
40
3.5000
1
SOURCE (DESIGN FILE)
0
TEXT
8
TEXT
10
602.600000
20
11.400000
30
0.0
40
3.5000
1
ce-parts/microduck-banana-pcb-locker/current/cad/part.py
0
TEXT
8
TEXT
10
12.500000
20
577.500000
30
0.0
40
4.2000
1
microduck-banana-pcb-locker   SCALE 2:1   A1   THIRD ANGLE
0
ENDSEC
0
EOF
