0
SECTION
2
HEADER
9
$ACADVER
1
AC1009
9
$INSUNITS
70
4
9
$LTSCALE
40
1.0
9
$EXTMIN
10
0.0000
20
0.0000
30
0.0
9
$EXTMAX
10
594.0000
20
420.0000
30
0.0
0
ENDSEC
0
SECTION
2
TABLES
0
TABLE
2
LTYPE
70
4
0
LTYPE
2
CONTINUOUS
70
0
3
Solid line
72
65
73
0
40
0.0000
0
LTYPE
2
HIDDEN
70
0
3
Hidden __ __ __ __
72
65
73
2
40
3.6000
49
2.4000
49
-1.2000
0
LTYPE
2
CENTER
70
0
3
Center ____ _ ____ _
72
65
73
4
40
11.2000
49
7.0000
49
-1.4000
49
1.4000
49
-1.4000
0
LTYPE
2
PHANTOM
70
0
3
Phantom ____ _ _ ____
72
65
73
6
40
21.0000
49
11.0000
49
-2.0000
49
2.0000
49
-2.0000
49
2.0000
49
-2.0000
0
ENDTAB
0
TABLE
2
LAYER
70
12
0
LAYER
2
0
70
0
62
7
6
CONTINUOUS
0
LAYER
2
VISIBLE
70
0
62
7
6
CONTINUOUS
0
LAYER
2
SECTION
70
0
62
7
6
CONTINUOUS
0
LAYER
2
HIDDEN
70
0
62
8
6
HIDDEN
0
LAYER
2
CENTER
70
0
62
4
6
CENTER
0
LAYER
2
DIM
70
0
62
3
6
CONTINUOUS
0
LAYER
2
TEXT
70
0
62
3
6
CONTINUOUS
0
LAYER
2
HATCH
70
0
62
5
6
CONTINUOUS
0
LAYER
2
CUT
70
0
62
1
6
PHANTOM
0
LAYER
2
CUTTHIN
70
0
62
1
6
PHANTOM
0
LAYER
2
FRAME
70
0
62
7
6
CONTINUOUS
0
LAYER
2
TITLE
70
0
62
7
6
CONTINUOUS
0
ENDTAB
0
ENDSEC
0
SECTION
2
ENTITIES
0
LINE
8
TITLE
10
5.000000
20
5.000000
30
0.0
11
589.000000
21
5.000000
31
0.0
0
LINE
8
TITLE
10
589.000000
20
5.000000
30
0.0
11
589.000000
21
415.000000
31
0.0
0
LINE
8
TITLE
10
589.000000
20
415.000000
30
0.0
11
5.000000
21
415.000000
31
0.0
0
LINE
8
TITLE
10
5.000000
20
415.000000
30
0.0
11
5.000000
21
5.000000
31
0.0
0
LINE
8
FRAME
10
10.000000
20
10.000000
30
0.0
11
584.000000
21
10.000000
31
0.0
0
LINE
8
FRAME
10
584.000000
20
10.000000
30
0.0
11
584.000000
21
410.000000
31
0.0
0
LINE
8
FRAME
10
584.000000
20
410.000000
30
0.0
11
10.000000
21
410.000000
31
0.0
0
LINE
8
FRAME
10
10.000000
20
410.000000
30
0.0
11
10.000000
21
10.000000
31
0.0
0
TEXT
8
TITLE
10
67.400000
20
412.500000
30
0.0
40
2.4000
1
1
72
1
73
2
11
67.400000
21
412.500000
31
0.0
0
TEXT
8
TITLE
10
67.400000
20
7.500000
30
0.0
40
2.4000
1
1
72
1
73
2
11
67.400000
21
7.500000
31
0.0
0
TEXT
8
TITLE
10
182.200000
20
412.500000
30
0.0
40
2.4000
1
2
72
1
73
2
11
182.200000
21
412.500000
31
0.0
0
TEXT
8
TITLE
10
182.200000
20
7.500000
30
0.0
40
2.4000
1
2
72
1
73
2
11
182.200000
21
7.500000
31
0.0
0
LINE
8
TITLE
10
124.800000
20
5.000000
30
0.0
11
124.800000
21
10.000000
31
0.0
0
LINE
8
TITLE
10
124.800000
20
410.000000
30
0.0
11
124.800000
21
415.000000
31
0.0
0
TEXT
8
TITLE
10
297.000000
20
412.500000
30
0.0
40
2.4000
1
3
72
1
73
2
11
297.000000
21
412.500000
31
0.0
0
TEXT
8
TITLE
10
297.000000
20
7.500000
30
0.0
40
2.4000
1
3
72
1
73
2
11
297.000000
21
7.500000
31
0.0
0
LINE
8
TITLE
10
239.600000
20
5.000000
30
0.0
11
239.600000
21
10.000000
31
0.0
0
LINE
8
TITLE
10
239.600000
20
410.000000
30
0.0
11
239.600000
21
415.000000
31
0.0
0
TEXT
8
TITLE
10
411.800000
20
412.500000
30
0.0
40
2.4000
1
4
72
1
73
2
11
411.800000
21
412.500000
31
0.0
0
TEXT
8
TITLE
10
411.800000
20
7.500000
30
0.0
40
2.4000
1
4
72
1
73
2
11
411.800000
21
7.500000
31
0.0
0
LINE
8
TITLE
10
354.400000
20
5.000000
30
0.0
11
354.400000
21
10.000000
31
0.0
0
LINE
8
TITLE
10
354.400000
20
410.000000
30
0.0
11
354.400000
21
415.000000
31
0.0
0
TEXT
8
TITLE
10
526.600000
20
412.500000
30
0.0
40
2.4000
1
5
72
1
73
2
11
526.600000
21
412.500000
31
0.0
0
TEXT
8
TITLE
10
526.600000
20
7.500000
30
0.0
40
2.4000
1
5
72
1
73
2
11
526.600000
21
7.500000
31
0.0
0
LINE
8
TITLE
10
469.200000
20
5.000000
30
0.0
11
469.200000
21
10.000000
31
0.0
0
LINE
8
TITLE
10
469.200000
20
410.000000
30
0.0
11
469.200000
21
415.000000
31
0.0
0
TEXT
8
TITLE
10
7.500000
20
60.000000
30
0.0
40
2.4000
1
D
72
1
73
2
11
7.500000
21
60.000000
31
0.0
0
TEXT
8
TITLE
10
586.500000
20
60.000000
30
0.0
40
2.4000
1
D
72
1
73
2
11
586.500000
21
60.000000
31
0.0
0
TEXT
8
TITLE
10
7.500000
20
160.000000
30
0.0
40
2.4000
1
C
72
1
73
2
11
7.500000
21
160.000000
31
0.0
0
TEXT
8
TITLE
10
586.500000
20
160.000000
30
0.0
40
2.4000
1
C
72
1
73
2
11
586.500000
21
160.000000
31
0.0
0
LINE
8
TITLE
10
5.000000
20
110.000000
30
0.0
11
10.000000
21
110.000000
31
0.0
0
LINE
8
TITLE
10
584.000000
20
110.000000
30
0.0
11
589.000000
21
110.000000
31
0.0
0
TEXT
8
TITLE
10
7.500000
20
260.000000
30
0.0
40
2.4000
1
B
72
1
73
2
11
7.500000
21
260.000000
31
0.0
0
TEXT
8
TITLE
10
586.500000
20
260.000000
30
0.0
40
2.4000
1
B
72
1
73
2
11
586.500000
21
260.000000
31
0.0
0
LINE
8
TITLE
10
5.000000
20
210.000000
30
0.0
11
10.000000
21
210.000000
31
0.0
0
LINE
8
TITLE
10
584.000000
20
210.000000
30
0.0
11
589.000000
21
210.000000
31
0.0
0
TEXT
8
TITLE
10
7.500000
20
360.000000
30
0.0
40
2.4000
1
A
72
1
73
2
11
7.500000
21
360.000000
31
0.0
0
TEXT
8
TITLE
10
586.500000
20
360.000000
30
0.0
40
2.4000
1
A
72
1
73
2
11
586.500000
21
360.000000
31
0.0
0
LINE
8
TITLE
10
5.000000
20
310.000000
30
0.0
11
10.000000
21
310.000000
31
0.0
0
LINE
8
TITLE
10
584.000000
20
310.000000
30
0.0
11
589.000000
21
310.000000
31
0.0
0
LINE
8
VISIBLE
10
239.000000
20
262.840000
30
0.0
11
238.864728
21
264.213436
31
0.0
0
LINE
8
VISIBLE
10
239.000000
20
216.840000
30
0.0
11
239.000000
21
262.840000
31
0.0
0
LINE
8
VISIBLE
10
238.864728
20
264.213436
30
0.0
11
238.464112
21
265.534091
31
0.0
0
LINE
8
VISIBLE
10
238.864728
20
215.466564
30
0.0
11
239.000000
21
216.840000
31
0.0
0
LINE
8
VISIBLE
10
238.464112
20
265.534091
30
0.0
11
237.813546
21
266.751214
31
0.0
0
LINE
8
VISIBLE
10
238.464112
20
214.145909
30
0.0
11
238.864728
21
215.466564
31
0.0
0
LINE
8
VISIBLE
10
237.813546
20
266.751214
30
0.0
11
236.938032
21
267.818032
31
0.0
0
LINE
8
VISIBLE
10
237.813546
20
212.928786
30
0.0
11
238.464112
21
214.145909
31
0.0
0
LINE
8
VISIBLE
10
236.938032
20
267.818032
30
0.0
11
235.871214
21
268.693546
31
0.0
0
LINE
8
VISIBLE
10
236.938032
20
211.861968
30
0.0
11
237.813546
21
212.928786
31
0.0
0
LINE
8
VISIBLE
10
235.871214
20
268.693546
30
0.0
11
234.654091
21
269.344112
31
0.0
0
LINE
8
VISIBLE
10
235.871214
20
210.986454
30
0.0
11
236.938032
21
211.861968
31
0.0
0
LINE
8
VISIBLE
10
234.654091
20
269.344112
30
0.0
11
233.333436
21
269.744728
31
0.0
0
LINE
8
VISIBLE
10
234.654091
20
210.335888
30
0.0
11
235.871214
21
210.986454
31
0.0
0
LINE
8
VISIBLE
10
233.333436
20
269.744728
30
0.0
11
231.960000
21
269.880000
31
0.0
0
LINE
8
VISIBLE
10
233.333436
20
209.935272
30
0.0
11
234.654091
21
210.335888
31
0.0
0
LINE
8
VISIBLE
10
231.960000
20
269.880000
30
0.0
11
115.960000
21
269.880000
31
0.0
0
LINE
8
VISIBLE
10
231.960000
20
209.800000
30
0.0
11
233.333436
21
209.935272
31
0.0
0
LINE
8
VISIBLE
10
115.960000
20
269.880000
30
0.0
11
114.586564
21
269.744728
31
0.0
0
LINE
8
VISIBLE
10
115.960000
20
209.800000
30
0.0
11
231.960000
21
209.800000
31
0.0
0
LINE
8
VISIBLE
10
114.586564
20
269.744728
30
0.0
11
113.265909
21
269.344112
31
0.0
0
LINE
8
VISIBLE
10
114.586564
20
209.935272
30
0.0
11
115.960000
21
209.800000
31
0.0
0
LINE
8
VISIBLE
10
113.265909
20
269.344112
30
0.0
11
112.048786
21
268.693546
31
0.0
0
LINE
8
VISIBLE
10
113.265909
20
210.335888
30
0.0
11
114.586564
21
209.935272
31
0.0
0
LINE
8
VISIBLE
10
112.048786
20
268.693546
30
0.0
11
110.981968
21
267.818032
31
0.0
0
LINE
8
VISIBLE
10
112.048786
20
210.986454
30
0.0
11
113.265909
21
210.335888
31
0.0
0
LINE
8
VISIBLE
10
110.981968
20
267.818032
30
0.0
11
110.106454
21
266.751214
31
0.0
0
LINE
8
VISIBLE
10
110.981968
20
211.861968
30
0.0
11
112.048786
21
210.986454
31
0.0
0
LINE
8
VISIBLE
10
110.106454
20
266.751214
30
0.0
11
109.455888
21
265.534091
31
0.0
0
LINE
8
VISIBLE
10
110.106454
20
212.928786
30
0.0
11
110.981968
21
211.861968
31
0.0
0
LINE
8
VISIBLE
10
109.455888
20
265.534091
30
0.0
11
109.055272
21
264.213436
31
0.0
0
LINE
8
VISIBLE
10
109.455888
20
214.145909
30
0.0
11
110.106454
21
212.928786
31
0.0
0
LINE
8
VISIBLE
10
109.055272
20
264.213436
30
0.0
11
108.920000
21
262.840000
31
0.0
0
LINE
8
VISIBLE
10
109.055272
20
215.466564
30
0.0
11
109.455888
21
214.145909
31
0.0
0
LINE
8
VISIBLE
10
108.920000
20
262.840000
30
0.0
11
108.920000
21
216.840000
31
0.0
0
LINE
8
VISIBLE
10
108.920000
20
216.840000
30
0.0
11
109.055272
21
215.466564
31
0.0
0
CIRCLE
8
VISIBLE
10
115.960000
20
216.840000
30
0.0
40
2.700000
0
CIRCLE
8
VISIBLE
10
203.660000
20
216.840000
30
0.0
40
0.950000
0
CIRCLE
8
VISIBLE
10
203.660000
20
221.840000
30
0.0
40
0.950000
0
CIRCLE
8
VISIBLE
10
203.660000
20
226.840000
30
0.0
40
0.950000
0
CIRCLE
8
VISIBLE
10
213.260000
20
216.840000
30
0.0
40
0.950000
0
CIRCLE
8
VISIBLE
10
231.960000
20
216.840000
30
0.0
40
2.700000
0
CIRCLE
8
VISIBLE
10
213.260000
20
221.840000
30
0.0
40
0.950000
0
CIRCLE
8
VISIBLE
10
213.260000
20
226.840000
30
0.0
40
0.950000
0
CIRCLE
8
VISIBLE
10
203.660000
20
231.840000
30
0.0
40
0.950000
0
CIRCLE
8
VISIBLE
10
178.360000
20
239.040000
30
0.0
40
1.000000
0
CIRCLE
8
VISIBLE
10
213.260000
20
231.840000
30
0.0
40
0.950000
0
CIRCLE
8
VISIBLE
10
222.960000
20
227.940000
30
0.0
40
0.950000
0
CIRCLE
8
VISIBLE
10
232.560000
20
227.940000
30
0.0
40
0.950000
0
CIRCLE
8
VISIBLE
10
222.960000
20
232.940000
30
0.0
40
0.950000
0
CIRCLE
8
VISIBLE
10
232.560000
20
232.940000
30
0.0
40
0.950000
0
CIRCLE
8
VISIBLE
10
222.960000
20
237.940000
30
0.0
40
0.950000
0
CIRCLE
8
VISIBLE
10
232.560000
20
237.940000
30
0.0
40
0.950000
0
CIRCLE
8
VISIBLE
10
115.960000
20
262.840000
30
0.0
40
2.700000
0
CIRCLE
8
VISIBLE
10
125.700000
20
260.300000
30
0.0
40
1.020000
0
CIRCLE
8
VISIBLE
10
128.240000
20
262.840000
30
0.0
40
2.000000
0
CIRCLE
8
VISIBLE
10
125.700000
20
265.380000
30
0.0
40
1.020000
0
CIRCLE
8
VISIBLE
10
130.780000
20
260.300000
30
0.0
40
1.020000
0
CIRCLE
8
VISIBLE
10
135.860000
20
260.300000
30
0.0
40
1.020000
0
CIRCLE
8
VISIBLE
10
140.940000
20
260.300000
30
0.0
40
1.020000
0
CIRCLE
8
VISIBLE
10
130.780000
20
265.380000
30
0.0
40
1.020000
0
CIRCLE
8
VISIBLE
10
135.860000
20
265.380000
30
0.0
40
1.020000
0
CIRCLE
8
VISIBLE
10
140.940000
20
265.380000
30
0.0
40
1.020000
0
CIRCLE
8
VISIBLE
10
146.020000
20
260.300000
30
0.0
40
1.020000
0
CIRCLE
8
VISIBLE
10
151.100000
20
260.300000
30
0.0
40
1.020000
0
CIRCLE
8
VISIBLE
10
156.180000
20
260.300000
30
0.0
40
1.020000
0
CIRCLE
8
VISIBLE
10
146.020000
20
265.380000
30
0.0
40
1.020000
0
CIRCLE
8
VISIBLE
10
151.100000
20
265.380000
30
0.0
40
1.020000
0
CIRCLE
8
VISIBLE
10
156.180000
20
265.380000
30
0.0
40
1.020000
0
CIRCLE
8
VISIBLE
10
161.260000
20
260.300000
30
0.0
40
1.020000
0
CIRCLE
8
VISIBLE
10
166.340000
20
260.300000
30
0.0
40
1.020000
0
CIRCLE
8
VISIBLE
10
171.420000
20
260.300000
30
0.0
40
1.020000
0
CIRCLE
8
VISIBLE
10
161.260000
20
265.380000
30
0.0
40
1.020000
0
CIRCLE
8
VISIBLE
10
166.340000
20
265.380000
30
0.0
40
1.020000
0
CIRCLE
8
VISIBLE
10
171.420000
20
265.380000
30
0.0
40
1.020000
0
CIRCLE
8
VISIBLE
10
176.500000
20
260.300000
30
0.0
40
1.020000
0
CIRCLE
8
VISIBLE
10
181.580000
20
260.300000
30
0.0
40
1.020000
0
CIRCLE
8
VISIBLE
10
186.660000
20
260.300000
30
0.0
40
1.020000
0
CIRCLE
8
VISIBLE
10
176.500000
20
265.380000
30
0.0
40
1.020000
0
CIRCLE
8
VISIBLE
10
181.580000
20
265.380000
30
0.0
40
1.020000
0
CIRCLE
8
VISIBLE
10
186.660000
20
265.380000
30
0.0
40
1.020000
0
CIRCLE
8
VISIBLE
10
191.740000
20
260.300000
30
0.0
40
1.020000
0
CIRCLE
8
VISIBLE
10
196.820000
20
260.300000
30
0.0
40
1.020000
0
CIRCLE
8
VISIBLE
10
201.900000
20
260.300000
30
0.0
40
1.020000
0
CIRCLE
8
VISIBLE
10
191.740000
20
265.380000
30
0.0
40
1.020000
0
CIRCLE
8
VISIBLE
10
196.820000
20
265.380000
30
0.0
40
1.020000
0
CIRCLE
8
VISIBLE
10
201.900000
20
265.380000
30
0.0
40
1.020000
0
CIRCLE
8
VISIBLE
10
206.980000
20
260.300000
30
0.0
40
1.020000
0
CIRCLE
8
VISIBLE
10
212.060000
20
260.300000
30
0.0
40
1.020000
0
CIRCLE
8
VISIBLE
10
217.140000
20
260.300000
30
0.0
40
1.020000
0
CIRCLE
8
VISIBLE
10
206.980000
20
265.380000
30
0.0
40
1.020000
0
CIRCLE
8
VISIBLE
10
212.060000
20
265.380000
30
0.0
40
1.020000
0
CIRCLE
8
VISIBLE
10
217.140000
20
265.380000
30
0.0
40
1.020000
0
CIRCLE
8
VISIBLE
10
222.220000
20
260.300000
30
0.0
40
1.020000
0
CIRCLE
8
VISIBLE
10
219.680000
20
262.840000
30
0.0
40
2.000000
0
CIRCLE
8
VISIBLE
10
231.960000
20
262.840000
30
0.0
40
2.700000
0
CIRCLE
8
VISIBLE
10
222.220000
20
265.380000
30
0.0
40
1.020000
0
LINE
8
VISIBLE
10
108.920000
20
150.120000
30
0.0
11
108.920000
21
151.800000
31
0.0
0
LINE
8
VISIBLE
10
109.055272
20
150.120000
30
0.0
11
108.920000
21
150.120000
31
0.0
0
LINE
8
VISIBLE
10
109.455888
20
150.120000
30
0.0
11
109.055272
21
150.120000
31
0.0
0
LINE
8
VISIBLE
10
110.106454
20
150.120000
30
0.0
11
109.455888
21
150.120000
31
0.0
0
LINE
8
VISIBLE
10
110.981968
20
150.120000
30
0.0
11
110.106454
21
150.120000
31
0.0
0
LINE
8
VISIBLE
10
112.048786
20
150.120000
30
0.0
11
110.981968
21
150.120000
31
0.0
0
LINE
8
VISIBLE
10
113.265909
20
150.120000
30
0.0
11
112.048786
21
150.120000
31
0.0
0
LINE
8
VISIBLE
10
114.586564
20
150.120000
30
0.0
11
113.265909
21
150.120000
31
0.0
0
LINE
8
VISIBLE
10
115.960000
20
150.120000
30
0.0
11
114.586564
21
150.120000
31
0.0
0
LINE
8
VISIBLE
10
231.960000
20
150.120000
30
0.0
11
115.960000
21
150.120000
31
0.0
0
LINE
8
VISIBLE
10
233.333436
20
150.120000
30
0.0
11
231.960000
21
150.120000
31
0.0
0
LINE
8
VISIBLE
10
234.654091
20
150.120000
30
0.0
11
233.333436
21
150.120000
31
0.0
0
LINE
8
VISIBLE
10
235.871214
20
150.120000
30
0.0
11
234.654091
21
150.120000
31
0.0
0
LINE
8
VISIBLE
10
236.938032
20
150.120000
30
0.0
11
235.871214
21
150.120000
31
0.0
0
LINE
8
VISIBLE
10
237.813546
20
150.120000
30
0.0
11
236.938032
21
150.120000
31
0.0
0
LINE
8
VISIBLE
10
238.464112
20
150.120000
30
0.0
11
237.813546
21
150.120000
31
0.0
0
LINE
8
VISIBLE
10
238.864728
20
150.120000
30
0.0
11
238.464112
21
150.120000
31
0.0
0
LINE
8
VISIBLE
10
239.000000
20
150.120000
30
0.0
11
238.864728
21
150.120000
31
0.0
0
LINE
8
VISIBLE
10
109.055272
20
151.800000
30
0.0
11
108.920000
21
151.800000
31
0.0
0
LINE
8
VISIBLE
10
109.455888
20
151.800000
30
0.0
11
109.055272
21
151.800000
31
0.0
0
LINE
8
VISIBLE
10
110.106454
20
151.800000
30
0.0
11
109.455888
21
151.800000
31
0.0
0
LINE
8
VISIBLE
10
110.981968
20
151.800000
30
0.0
11
110.106454
21
151.800000
31
0.0
0
LINE
8
VISIBLE
10
112.048786
20
151.800000
30
0.0
11
110.981968
21
151.800000
31
0.0
0
LINE
8
VISIBLE
10
113.265909
20
151.800000
30
0.0
11
112.048786
21
151.800000
31
0.0
0
LINE
8
VISIBLE
10
114.586564
20
151.800000
30
0.0
11
113.265909
21
151.800000
31
0.0
0
LINE
8
VISIBLE
10
115.960000
20
151.800000
30
0.0
11
114.586564
21
151.800000
31
0.0
0
LINE
8
VISIBLE
10
231.960000
20
151.800000
30
0.0
11
115.960000
21
151.800000
31
0.0
0
LINE
8
VISIBLE
10
233.333436
20
151.800000
30
0.0
11
231.960000
21
151.800000
31
0.0
0
LINE
8
VISIBLE
10
234.654091
20
151.800000
30
0.0
11
233.333436
21
151.800000
31
0.0
0
LINE
8
VISIBLE
10
235.871214
20
151.800000
30
0.0
11
234.654091
21
151.800000
31
0.0
0
LINE
8
VISIBLE
10
236.938032
20
151.800000
30
0.0
11
235.871214
21
151.800000
31
0.0
0
LINE
8
VISIBLE
10
237.813546
20
151.800000
30
0.0
11
236.938032
21
151.800000
31
0.0
0
LINE
8
VISIBLE
10
238.464112
20
151.800000
30
0.0
11
237.813546
21
151.800000
31
0.0
0
LINE
8
VISIBLE
10
238.864728
20
151.800000
30
0.0
11
238.464112
21
151.800000
31
0.0
0
LINE
8
VISIBLE
10
239.000000
20
151.800000
30
0.0
11
238.864728
21
151.800000
31
0.0
0
LINE
8
VISIBLE
10
109.055272
20
150.120000
30
0.0
11
109.055272
21
151.800000
31
0.0
0
LINE
8
VISIBLE
10
109.455888
20
150.120000
30
0.0
11
109.455888
21
151.800000
31
0.0
0
LINE
8
VISIBLE
10
110.106454
20
150.120000
30
0.0
11
110.106454
21
151.800000
31
0.0
0
LINE
8
VISIBLE
10
110.981968
20
150.120000
30
0.0
11
110.981968
21
151.800000
31
0.0
0
LINE
8
VISIBLE
10
112.048786
20
150.120000
30
0.0
11
112.048786
21
151.800000
31
0.0
0
LINE
8
VISIBLE
10
113.265909
20
150.120000
30
0.0
11
113.265909
21
151.800000
31
0.0
0
LINE
8
VISIBLE
10
114.586564
20
150.120000
30
0.0
11
114.586564
21
151.800000
31
0.0
0
LINE
8
VISIBLE
10
115.960000
20
150.120000
30
0.0
11
115.960000
21
151.800000
31
0.0
0
LINE
8
VISIBLE
10
231.960000
20
150.120000
30
0.0
11
231.960000
21
151.800000
31
0.0
0
LINE
8
VISIBLE
10
233.333436
20
150.120000
30
0.0
11
233.333436
21
151.800000
31
0.0
0
LINE
8
VISIBLE
10
234.654091
20
150.120000
30
0.0
11
234.654091
21
151.800000
31
0.0
0
LINE
8
VISIBLE
10
235.871214
20
150.120000
30
0.0
11
235.871214
21
151.800000
31
0.0
0
LINE
8
VISIBLE
10
236.938032
20
150.120000
30
0.0
11
236.938032
21
151.800000
31
0.0
0
LINE
8
VISIBLE
10
237.813546
20
150.120000
30
0.0
11
237.813546
21
151.800000
31
0.0
0
LINE
8
VISIBLE
10
238.464112
20
150.120000
30
0.0
11
238.464112
21
151.800000
31
0.0
0
LINE
8
VISIBLE
10
238.864728
20
150.120000
30
0.0
11
238.864728
21
151.800000
31
0.0
0
LINE
8
VISIBLE
10
239.000000
20
150.120000
30
0.0
11
239.000000
21
151.800000
31
0.0
0
LINE
8
HIDDEN
10
229.260000
20
150.120000
30
0.0
11
234.660000
21
150.120000
31
0.0
0
LINE
8
HIDDEN
10
234.660000
20
150.120000
30
0.0
11
229.260000
21
150.120000
31
0.0
0
LINE
8
HIDDEN
10
143.310000
20
150.120000
30
0.0
11
145.210000
21
150.120000
31
0.0
0
LINE
8
HIDDEN
10
145.210000
20
150.120000
30
0.0
11
143.310000
21
150.120000
31
0.0
0
LINE
8
HIDDEN
10
143.310000
20
150.120000
30
0.0
11
145.210000
21
150.120000
31
0.0
0
LINE
8
HIDDEN
10
145.210000
20
150.120000
30
0.0
11
143.310000
21
150.120000
31
0.0
0
LINE
8
HIDDEN
10
143.310000
20
150.120000
30
0.0
11
145.210000
21
150.120000
31
0.0
0
LINE
8
HIDDEN
10
145.210000
20
150.120000
30
0.0
11
143.310000
21
150.120000
31
0.0
0
LINE
8
HIDDEN
10
133.710000
20
150.120000
30
0.0
11
135.610000
21
150.120000
31
0.0
0
LINE
8
HIDDEN
10
135.610000
20
150.120000
30
0.0
11
133.710000
21
150.120000
31
0.0
0
LINE
8
HIDDEN
10
113.260000
20
150.120000
30
0.0
11
118.660000
21
150.120000
31
0.0
0
LINE
8
HIDDEN
10
118.660000
20
150.120000
30
0.0
11
113.260000
21
150.120000
31
0.0
0
LINE
8
HIDDEN
10
133.710000
20
150.120000
30
0.0
11
135.610000
21
150.120000
31
0.0
0
LINE
8
HIDDEN
10
135.610000
20
150.120000
30
0.0
11
133.710000
21
150.120000
31
0.0
0
LINE
8
HIDDEN
10
133.710000
20
150.120000
30
0.0
11
135.610000
21
150.120000
31
0.0
0
LINE
8
HIDDEN
10
135.610000
20
150.120000
30
0.0
11
133.710000
21
150.120000
31
0.0
0
LINE
8
HIDDEN
10
143.310000
20
150.120000
30
0.0
11
145.210000
21
150.120000
31
0.0
0
LINE
8
HIDDEN
10
145.210000
20
150.120000
30
0.0
11
143.310000
21
150.120000
31
0.0
0
LINE
8
HIDDEN
10
168.560000
20
150.120000
30
0.0
11
170.560000
21
150.120000
31
0.0
0
LINE
8
HIDDEN
10
170.560000
20
150.120000
30
0.0
11
168.560000
21
150.120000
31
0.0
0
LINE
8
HIDDEN
10
133.710000
20
150.120000
30
0.0
11
135.610000
21
150.120000
31
0.0
0
LINE
8
HIDDEN
10
135.610000
20
150.120000
30
0.0
11
133.710000
21
150.120000
31
0.0
0
LINE
8
HIDDEN
10
124.010000
20
150.120000
30
0.0
11
125.910000
21
150.120000
31
0.0
0
LINE
8
HIDDEN
10
125.910000
20
150.120000
30
0.0
11
124.010000
21
150.120000
31
0.0
0
LINE
8
HIDDEN
10
114.410000
20
150.120000
30
0.0
11
116.310000
21
150.120000
31
0.0
0
LINE
8
HIDDEN
10
116.310000
20
150.120000
30
0.0
11
114.410000
21
150.120000
31
0.0
0
LINE
8
HIDDEN
10
124.010000
20
150.120000
30
0.0
11
125.910000
21
150.120000
31
0.0
0
LINE
8
HIDDEN
10
125.910000
20
150.120000
30
0.0
11
124.010000
21
150.120000
31
0.0
0
LINE
8
HIDDEN
10
114.410000
20
150.120000
30
0.0
11
116.310000
21
150.120000
31
0.0
0
LINE
8
HIDDEN
10
116.310000
20
150.120000
30
0.0
11
114.410000
21
150.120000
31
0.0
0
LINE
8
HIDDEN
10
124.010000
20
150.120000
30
0.0
11
125.910000
21
150.120000
31
0.0
0
LINE
8
HIDDEN
10
125.910000
20
150.120000
30
0.0
11
124.010000
21
150.120000
31
0.0
0
LINE
8
HIDDEN
10
114.410000
20
150.120000
30
0.0
11
116.310000
21
150.120000
31
0.0
0
LINE
8
HIDDEN
10
116.310000
20
150.120000
30
0.0
11
114.410000
21
150.120000
31
0.0
0
LINE
8
HIDDEN
10
229.260000
20
150.120000
30
0.0
11
234.660000
21
150.120000
31
0.0
0
LINE
8
HIDDEN
10
234.660000
20
150.120000
30
0.0
11
229.260000
21
150.120000
31
0.0
0
LINE
8
HIDDEN
10
221.200000
20
150.120000
30
0.0
11
223.240000
21
150.120000
31
0.0
0
LINE
8
HIDDEN
10
223.240000
20
150.120000
30
0.0
11
221.200000
21
150.120000
31
0.0
0
LINE
8
HIDDEN
10
217.680000
20
150.120000
30
0.0
11
221.680000
21
150.120000
31
0.0
0
LINE
8
HIDDEN
10
221.680000
20
150.120000
30
0.0
11
217.680000
21
150.120000
31
0.0
0
LINE
8
HIDDEN
10
221.200000
20
150.120000
30
0.0
11
223.240000
21
150.120000
31
0.0
0
LINE
8
HIDDEN
10
223.240000
20
150.120000
30
0.0
11
221.200000
21
150.120000
31
0.0
0
LINE
8
HIDDEN
10
216.120000
20
150.120000
30
0.0
11
218.160000
21
150.120000
31
0.0
0
LINE
8
HIDDEN
10
218.160000
20
150.120000
30
0.0
11
216.120000
21
150.120000
31
0.0
0
LINE
8
HIDDEN
10
211.040000
20
150.120000
30
0.0
11
213.080000
21
150.120000
31
0.0
0
LINE
8
HIDDEN
10
213.080000
20
150.120000
30
0.0
11
211.040000
21
150.120000
31
0.0
0
LINE
8
HIDDEN
10
205.960000
20
150.120000
30
0.0
11
208.000000
21
150.120000
31
0.0
0
LINE
8
HIDDEN
10
208.000000
20
150.120000
30
0.0
11
205.960000
21
150.120000
31
0.0
0
LINE
8
HIDDEN
10
216.120000
20
150.120000
30
0.0
11
218.160000
21
150.120000
31
0.0
0
LINE
8
HIDDEN
10
218.160000
20
150.120000
30
0.0
11
216.120000
21
150.120000
31
0.0
0
LINE
8
HIDDEN
10
211.040000
20
150.120000
30
0.0
11
213.080000
21
150.120000
31
0.0
0
LINE
8
HIDDEN
10
213.080000
20
150.120000
30
0.0
11
211.040000
21
150.120000
31
0.0
0
LINE
8
HIDDEN
10
205.960000
20
150.120000
30
0.0
11
208.000000
21
150.120000
31
0.0
0
LINE
8
HIDDEN
10
208.000000
20
150.120000
30
0.0
11
205.960000
21
150.120000
31
0.0
0
LINE
8
HIDDEN
10
200.880000
20
150.120000
30
0.0
11
202.920000
21
150.120000
31
0.0
0
LINE
8
HIDDEN
10
202.920000
20
150.120000
30
0.0
11
200.880000
21
150.120000
31
0.0
0
LINE
8
HIDDEN
10
195.800000
20
150.120000
30
0.0
11
197.840000
21
150.120000
31
0.0
0
LINE
8
HIDDEN
10
197.840000
20
150.120000
30
0.0
11
195.800000
21
150.120000
31
0.0
0
LINE
8
HIDDEN
10
190.720000
20
150.120000
30
0.0
11
192.760000
21
150.120000
31
0.0
0
LINE
8
HIDDEN
10
192.760000
20
150.120000
30
0.0
11
190.720000
21
150.120000
31
0.0
0
LINE
8
HIDDEN
10
200.880000
20
150.120000
30
0.0
11
202.920000
21
150.120000
31
0.0
0
LINE
8
HIDDEN
10
202.920000
20
150.120000
30
0.0
11
200.880000
21
150.120000
31
0.0
0
LINE
8
HIDDEN
10
195.800000
20
150.120000
30
0.0
11
197.840000
21
150.120000
31
0.0
0
LINE
8
HIDDEN
10
197.840000
20
150.120000
30
0.0
11
195.800000
21
150.120000
31
0.0
0
LINE
8
HIDDEN
10
190.720000
20
150.120000
30
0.0
11
192.760000
21
150.120000
31
0.0
0
LINE
8
HIDDEN
10
192.760000
20
150.120000
30
0.0
11
190.720000
21
150.120000
31
0.0
0
LINE
8
HIDDEN
10
185.640000
20
150.120000
30
0.0
11
187.680000
21
150.120000
31
0.0
0
LINE
8
HIDDEN
10
187.680000
20
150.120000
30
0.0
11
185.640000
21
150.120000
31
0.0
0
LINE
8
HIDDEN
10
180.560000
20
150.120000
30
0.0
11
182.600000
21
150.120000
31
0.0
0
LINE
8
HIDDEN
10
182.600000
20
150.120000
30
0.0
11
180.560000
21
150.120000
31
0.0
0
LINE
8
HIDDEN
10
175.480000
20
150.120000
30
0.0
11
177.520000
21
150.120000
31
0.0
0
LINE
8
HIDDEN
10
177.520000
20
150.120000
30
0.0
11
175.480000
21
150.120000
31
0.0
0
LINE
8
HIDDEN
10
185.640000
20
150.120000
30
0.0
11
187.680000
21
150.120000
31
0.0
0
LINE
8
HIDDEN
10
187.680000
20
150.120000
30
0.0
11
185.640000
21
150.120000
31
0.0
0
LINE
8
HIDDEN
10
180.560000
20
150.120000
30
0.0
11
182.600000
21
150.120000
31
0.0
0
LINE
8
HIDDEN
10
182.600000
20
150.120000
30
0.0
11
180.560000
21
150.120000
31
0.0
0
LINE
8
HIDDEN
10
175.480000
20
150.120000
30
0.0
11
177.520000
21
150.120000
31
0.0
0
LINE
8
HIDDEN
10
177.520000
20
150.120000
30
0.0
11
175.480000
21
150.120000
31
0.0
0
LINE
8
HIDDEN
10
170.400000
20
150.120000
30
0.0
11
172.440000
21
150.120000
31
0.0
0
LINE
8
HIDDEN
10
172.440000
20
150.120000
30
0.0
11
170.400000
21
150.120000
31
0.0
0
LINE
8
HIDDEN
10
165.320000
20
150.120000
30
0.0
11
167.360000
21
150.120000
31
0.0
0
LINE
8
HIDDEN
10
167.360000
20
150.120000
30
0.0
11
165.320000
21
150.120000
31
0.0
0
LINE
8
HIDDEN
10
160.240000
20
150.120000
30
0.0
11
162.280000
21
150.120000
31
0.0
0
LINE
8
HIDDEN
10
162.280000
20
150.120000
30
0.0
11
160.240000
21
150.120000
31
0.0
0
LINE
8
HIDDEN
10
170.400000
20
150.120000
30
0.0
11
172.440000
21
150.120000
31
0.0
0
LINE
8
HIDDEN
10
172.440000
20
150.120000
30
0.0
11
170.400000
21
150.120000
31
0.0
0
LINE
8
HIDDEN
10
165.320000
20
150.120000
30
0.0
11
167.360000
21
150.120000
31
0.0
0
LINE
8
HIDDEN
10
167.360000
20
150.120000
30
0.0
11
165.320000
21
150.120000
31
0.0
0
LINE
8
HIDDEN
10
160.240000
20
150.120000
30
0.0
11
162.280000
21
150.120000
31
0.0
0
LINE
8
HIDDEN
10
162.280000
20
150.120000
30
0.0
11
160.240000
21
150.120000
31
0.0
0
LINE
8
HIDDEN
10
155.160000
20
150.120000
30
0.0
11
157.200000
21
150.120000
31
0.0
0
LINE
8
HIDDEN
10
157.200000
20
150.120000
30
0.0
11
155.160000
21
150.120000
31
0.0
0
LINE
8
HIDDEN
10
150.080000
20
150.120000
30
0.0
11
152.120000
21
150.120000
31
0.0
0
LINE
8
HIDDEN
10
152.120000
20
150.120000
30
0.0
11
150.080000
21
150.120000
31
0.0
0
LINE
8
HIDDEN
10
145.000000
20
150.120000
30
0.0
11
147.040000
21
150.120000
31
0.0
0
LINE
8
HIDDEN
10
147.040000
20
150.120000
30
0.0
11
145.000000
21
150.120000
31
0.0
0
LINE
8
HIDDEN
10
155.160000
20
150.120000
30
0.0
11
157.200000
21
150.120000
31
0.0
0
LINE
8
HIDDEN
10
157.200000
20
150.120000
30
0.0
11
155.160000
21
150.120000
31
0.0
0
LINE
8
HIDDEN
10
150.080000
20
150.120000
30
0.0
11
152.120000
21
150.120000
31
0.0
0
LINE
8
HIDDEN
10
152.120000
20
150.120000
30
0.0
11
150.080000
21
150.120000
31
0.0
0
LINE
8
HIDDEN
10
145.000000
20
150.120000
30
0.0
11
147.040000
21
150.120000
31
0.0
0
LINE
8
HIDDEN
10
147.040000
20
150.120000
30
0.0
11
145.000000
21
150.120000
31
0.0
0
LINE
8
HIDDEN
10
139.920000
20
150.120000
30
0.0
11
141.960000
21
150.120000
31
0.0
0
LINE
8
HIDDEN
10
141.960000
20
150.120000
30
0.0
11
139.920000
21
150.120000
31
0.0
0
LINE
8
HIDDEN
10
134.840000
20
150.120000
30
0.0
11
136.880000
21
150.120000
31
0.0
0
LINE
8
HIDDEN
10
136.880000
20
150.120000
30
0.0
11
134.840000
21
150.120000
31
0.0
0
LINE
8
HIDDEN
10
129.760000
20
150.120000
30
0.0
11
131.800000
21
150.120000
31
0.0
0
LINE
8
HIDDEN
10
131.800000
20
150.120000
30
0.0
11
129.760000
21
150.120000
31
0.0
0
LINE
8
HIDDEN
10
139.920000
20
150.120000
30
0.0
11
141.960000
21
150.120000
31
0.0
0
LINE
8
HIDDEN
10
141.960000
20
150.120000
30
0.0
11
139.920000
21
150.120000
31
0.0
0
LINE
8
HIDDEN
10
134.840000
20
150.120000
30
0.0
11
136.880000
21
150.120000
31
0.0
0
LINE
8
HIDDEN
10
136.880000
20
150.120000
30
0.0
11
134.840000
21
150.120000
31
0.0
0
LINE
8
HIDDEN
10
129.760000
20
150.120000
30
0.0
11
131.800000
21
150.120000
31
0.0
0
LINE
8
HIDDEN
10
131.800000
20
150.120000
30
0.0
11
129.760000
21
150.120000
31
0.0
0
LINE
8
HIDDEN
10
124.680000
20
150.120000
30
0.0
11
126.720000
21
150.120000
31
0.0
0
LINE
8
HIDDEN
10
126.720000
20
150.120000
30
0.0
11
124.680000
21
150.120000
31
0.0
0
LINE
8
HIDDEN
10
126.240000
20
150.120000
30
0.0
11
130.240000
21
150.120000
31
0.0
0
LINE
8
HIDDEN
10
130.240000
20
150.120000
30
0.0
11
126.240000
21
150.120000
31
0.0
0
LINE
8
HIDDEN
10
113.260000
20
150.120000
30
0.0
11
118.660000
21
150.120000
31
0.0
0
LINE
8
HIDDEN
10
118.660000
20
150.120000
30
0.0
11
113.260000
21
150.120000
31
0.0
0
LINE
8
HIDDEN
10
124.680000
20
150.120000
30
0.0
11
126.720000
21
150.120000
31
0.0
0
LINE
8
HIDDEN
10
126.720000
20
150.120000
30
0.0
11
124.680000
21
150.120000
31
0.0
0
LINE
8
HIDDEN
10
229.260000
20
151.800000
30
0.0
11
234.660000
21
151.800000
31
0.0
0
LINE
8
HIDDEN
10
234.660000
20
151.800000
30
0.0
11
229.260000
21
151.800000
31
0.0
0
LINE
8
HIDDEN
10
143.310000
20
151.800000
30
0.0
11
145.210000
21
151.800000
31
0.0
0
LINE
8
HIDDEN
10
145.210000
20
151.800000
30
0.0
11
143.310000
21
151.800000
31
0.0
0
LINE
8
HIDDEN
10
143.310000
20
151.800000
30
0.0
11
145.210000
21
151.800000
31
0.0
0
LINE
8
HIDDEN
10
145.210000
20
151.800000
30
0.0
11
143.310000
21
151.800000
31
0.0
0
LINE
8
HIDDEN
10
143.310000
20
151.800000
30
0.0
11
145.210000
21
151.800000
31
0.0
0
LINE
8
HIDDEN
10
145.210000
20
151.800000
30
0.0
11
143.310000
21
151.800000
31
0.0
0
LINE
8
HIDDEN
10
133.710000
20
151.800000
30
0.0
11
135.610000
21
151.800000
31
0.0
0
LINE
8
HIDDEN
10
135.610000
20
151.800000
30
0.0
11
133.710000
21
151.800000
31
0.0
0
LINE
8
HIDDEN
10
113.260000
20
151.800000
30
0.0
11
118.660000
21
151.800000
31
0.0
0
LINE
8
HIDDEN
10
118.660000
20
151.800000
30
0.0
11
113.260000
21
151.800000
31
0.0
0
LINE
8
HIDDEN
10
133.710000
20
151.800000
30
0.0
11
135.610000
21
151.800000
31
0.0
0
LINE
8
HIDDEN
10
135.610000
20
151.800000
30
0.0
11
133.710000
21
151.800000
31
0.0
0
LINE
8
HIDDEN
10
133.710000
20
151.800000
30
0.0
11
135.610000
21
151.800000
31
0.0
0
LINE
8
HIDDEN
10
135.610000
20
151.800000
30
0.0
11
133.710000
21
151.800000
31
0.0
0
LINE
8
HIDDEN
10
143.310000
20
151.800000
30
0.0
11
145.210000
21
151.800000
31
0.0
0
LINE
8
HIDDEN
10
145.210000
20
151.800000
30
0.0
11
143.310000
21
151.800000
31
0.0
0
LINE
8
HIDDEN
10
168.560000
20
151.800000
30
0.0
11
170.560000
21
151.800000
31
0.0
0
LINE
8
HIDDEN
10
170.560000
20
151.800000
30
0.0
11
168.560000
21
151.800000
31
0.0
0
LINE
8
HIDDEN
10
133.710000
20
151.800000
30
0.0
11
135.610000
21
151.800000
31
0.0
0
LINE
8
HIDDEN
10
135.610000
20
151.800000
30
0.0
11
133.710000
21
151.800000
31
0.0
0
LINE
8
HIDDEN
10
124.010000
20
151.800000
30
0.0
11
125.910000
21
151.800000
31
0.0
0
LINE
8
HIDDEN
10
125.910000
20
151.800000
30
0.0
11
124.010000
21
151.800000
31
0.0
0
LINE
8
HIDDEN
10
114.410000
20
151.800000
30
0.0
11
116.310000
21
151.800000
31
0.0
0
LINE
8
HIDDEN
10
116.310000
20
151.800000
30
0.0
11
114.410000
21
151.800000
31
0.0
0
LINE
8
HIDDEN
10
124.010000
20
151.800000
30
0.0
11
125.910000
21
151.800000
31
0.0
0
LINE
8
HIDDEN
10
125.910000
20
151.800000
30
0.0
11
124.010000
21
151.800000
31
0.0
0
LINE
8
HIDDEN
10
114.410000
20
151.800000
30
0.0
11
116.310000
21
151.800000
31
0.0
0
LINE
8
HIDDEN
10
116.310000
20
151.800000
30
0.0
11
114.410000
21
151.800000
31
0.0
0
LINE
8
HIDDEN
10
124.010000
20
151.800000
30
0.0
11
125.910000
21
151.800000
31
0.0
0
LINE
8
HIDDEN
10
125.910000
20
151.800000
30
0.0
11
124.010000
21
151.800000
31
0.0
0
LINE
8
HIDDEN
10
114.410000
20
151.800000
30
0.0
11
116.310000
21
151.800000
31
0.0
0
LINE
8
HIDDEN
10
116.310000
20
151.800000
30
0.0
11
114.410000
21
151.800000
31
0.0
0
LINE
8
HIDDEN
10
229.260000
20
151.800000
30
0.0
11
234.660000
21
151.800000
31
0.0
0
LINE
8
HIDDEN
10
234.660000
20
151.800000
30
0.0
11
229.260000
21
151.800000
31
0.0
0
LINE
8
HIDDEN
10
221.200000
20
151.800000
30
0.0
11
223.240000
21
151.800000
31
0.0
0
LINE
8
HIDDEN
10
223.240000
20
151.800000
30
0.0
11
221.200000
21
151.800000
31
0.0
0
LINE
8
HIDDEN
10
217.680000
20
151.800000
30
0.0
11
221.680000
21
151.800000
31
0.0
0
LINE
8
HIDDEN
10
221.680000
20
151.800000
30
0.0
11
217.680000
21
151.800000
31
0.0
0
LINE
8
HIDDEN
10
221.200000
20
151.800000
30
0.0
11
223.240000
21
151.800000
31
0.0
0
LINE
8
HIDDEN
10
223.240000
20
151.800000
30
0.0
11
221.200000
21
151.800000
31
0.0
0
LINE
8
HIDDEN
10
216.120000
20
151.800000
30
0.0
11
218.160000
21
151.800000
31
0.0
0
LINE
8
HIDDEN
10
218.160000
20
151.800000
30
0.0
11
216.120000
21
151.800000
31
0.0
0
LINE
8
HIDDEN
10
211.040000
20
151.800000
30
0.0
11
213.080000
21
151.800000
31
0.0
0
LINE
8
HIDDEN
10
213.080000
20
151.800000
30
0.0
11
211.040000
21
151.800000
31
0.0
0
LINE
8
HIDDEN
10
205.960000
20
151.800000
30
0.0
11
208.000000
21
151.800000
31
0.0
0
LINE
8
HIDDEN
10
208.000000
20
151.800000
30
0.0
11
205.960000
21
151.800000
31
0.0
0
LINE
8
HIDDEN
10
216.120000
20
151.800000
30
0.0
11
218.160000
21
151.800000
31
0.0
0
LINE
8
HIDDEN
10
218.160000
20
151.800000
30
0.0
11
216.120000
21
151.800000
31
0.0
0
LINE
8
HIDDEN
10
211.040000
20
151.800000
30
0.0
11
213.080000
21
151.800000
31
0.0
0
LINE
8
HIDDEN
10
213.080000
20
151.800000
30
0.0
11
211.040000
21
151.800000
31
0.0
0
LINE
8
HIDDEN
10
205.960000
20
151.800000
30
0.0
11
208.000000
21
151.800000
31
0.0
0
LINE
8
HIDDEN
10
208.000000
20
151.800000
30
0.0
11
205.960000
21
151.800000
31
0.0
0
LINE
8
HIDDEN
10
200.880000
20
151.800000
30
0.0
11
202.920000
21
151.800000
31
0.0
0
LINE
8
HIDDEN
10
202.920000
20
151.800000
30
0.0
11
200.880000
21
151.800000
31
0.0
0
LINE
8
HIDDEN
10
195.800000
20
151.800000
30
0.0
11
197.840000
21
151.800000
31
0.0
0
LINE
8
HIDDEN
10
197.840000
20
151.800000
30
0.0
11
195.800000
21
151.800000
31
0.0
0
LINE
8
HIDDEN
10
190.720000
20
151.800000
30
0.0
11
192.760000
21
151.800000
31
0.0
0
LINE
8
HIDDEN
10
192.760000
20
151.800000
30
0.0
11
190.720000
21
151.800000
31
0.0
0
LINE
8
HIDDEN
10
200.880000
20
151.800000
30
0.0
11
202.920000
21
151.800000
31
0.0
0
LINE
8
HIDDEN
10
202.920000
20
151.800000
30
0.0
11
200.880000
21
151.800000
31
0.0
0
LINE
8
HIDDEN
10
195.800000
20
151.800000
30
0.0
11
197.840000
21
151.800000
31
0.0
0
LINE
8
HIDDEN
10
197.840000
20
151.800000
30
0.0
11
195.800000
21
151.800000
31
0.0
0
LINE
8
HIDDEN
10
190.720000
20
151.800000
30
0.0
11
192.760000
21
151.800000
31
0.0
0
LINE
8
HIDDEN
10
192.760000
20
151.800000
30
0.0
11
190.720000
21
151.800000
31
0.0
0
LINE
8
HIDDEN
10
185.640000
20
151.800000
30
0.0
11
187.680000
21
151.800000
31
0.0
0
LINE
8
HIDDEN
10
187.680000
20
151.800000
30
0.0
11
185.640000
21
151.800000
31
0.0
0
LINE
8
HIDDEN
10
180.560000
20
151.800000
30
0.0
11
182.600000
21
151.800000
31
0.0
0
LINE
8
HIDDEN
10
182.600000
20
151.800000
30
0.0
11
180.560000
21
151.800000
31
0.0
0
LINE
8
HIDDEN
10
175.480000
20
151.800000
30
0.0
11
177.520000
21
151.800000
31
0.0
0
LINE
8
HIDDEN
10
177.520000
20
151.800000
30
0.0
11
175.480000
21
151.800000
31
0.0
0
LINE
8
HIDDEN
10
185.640000
20
151.800000
30
0.0
11
187.680000
21
151.800000
31
0.0
0
LINE
8
HIDDEN
10
187.680000
20
151.800000
30
0.0
11
185.640000
21
151.800000
31
0.0
0
LINE
8
HIDDEN
10
180.560000
20
151.800000
30
0.0
11
182.600000
21
151.800000
31
0.0
0
LINE
8
HIDDEN
10
182.600000
20
151.800000
30
0.0
11
180.560000
21
151.800000
31
0.0
0
LINE
8
HIDDEN
10
175.480000
20
151.800000
30
0.0
11
177.520000
21
151.800000
31
0.0
0
LINE
8
HIDDEN
10
177.520000
20
151.800000
30
0.0
11
175.480000
21
151.800000
31
0.0
0
LINE
8
HIDDEN
10
170.400000
20
151.800000
30
0.0
11
172.440000
21
151.800000
31
0.0
0
LINE
8
HIDDEN
10
172.440000
20
151.800000
30
0.0
11
170.400000
21
151.800000
31
0.0
0
LINE
8
HIDDEN
10
165.320000
20
151.800000
30
0.0
11
167.360000
21
151.800000
31
0.0
0
LINE
8
HIDDEN
10
167.360000
20
151.800000
30
0.0
11
165.320000
21
151.800000
31
0.0
0
LINE
8
HIDDEN
10
160.240000
20
151.800000
30
0.0
11
162.280000
21
151.800000
31
0.0
0
LINE
8
HIDDEN
10
162.280000
20
151.800000
30
0.0
11
160.240000
21
151.800000
31
0.0
0
LINE
8
HIDDEN
10
170.400000
20
151.800000
30
0.0
11
172.440000
21
151.800000
31
0.0
0
LINE
8
HIDDEN
10
172.440000
20
151.800000
30
0.0
11
170.400000
21
151.800000
31
0.0
0
LINE
8
HIDDEN
10
165.320000
20
151.800000
30
0.0
11
167.360000
21
151.800000
31
0.0
0
LINE
8
HIDDEN
10
167.360000
20
151.800000
30
0.0
11
165.320000
21
151.800000
31
0.0
0
LINE
8
HIDDEN
10
160.240000
20
151.800000
30
0.0
11
162.280000
21
151.800000
31
0.0
0
LINE
8
HIDDEN
10
162.280000
20
151.800000
30
0.0
11
160.240000
21
151.800000
31
0.0
0
LINE
8
HIDDEN
10
155.160000
20
151.800000
30
0.0
11
157.200000
21
151.800000
31
0.0
0
LINE
8
HIDDEN
10
157.200000
20
151.800000
30
0.0
11
155.160000
21
151.800000
31
0.0
0
LINE
8
HIDDEN
10
150.080000
20
151.800000
30
0.0
11
152.120000
21
151.800000
31
0.0
0
LINE
8
HIDDEN
10
152.120000
20
151.800000
30
0.0
11
150.080000
21
151.800000
31
0.0
0
LINE
8
HIDDEN
10
145.000000
20
151.800000
30
0.0
11
147.040000
21
151.800000
31
0.0
0
LINE
8
HIDDEN
10
147.040000
20
151.800000
30
0.0
11
145.000000
21
151.800000
31
0.0
0
LINE
8
HIDDEN
10
155.160000
20
151.800000
30
0.0
11
157.200000
21
151.800000
31
0.0
0
LINE
8
HIDDEN
10
157.200000
20
151.800000
30
0.0
11
155.160000
21
151.800000
31
0.0
0
LINE
8
HIDDEN
10
150.080000
20
151.800000
30
0.0
11
152.120000
21
151.800000
31
0.0
0
LINE
8
HIDDEN
10
152.120000
20
151.800000
30
0.0
11
150.080000
21
151.800000
31
0.0
0
LINE
8
HIDDEN
10
145.000000
20
151.800000
30
0.0
11
147.040000
21
151.800000
31
0.0
0
LINE
8
HIDDEN
10
147.040000
20
151.800000
30
0.0
11
145.000000
21
151.800000
31
0.0
0
LINE
8
HIDDEN
10
139.920000
20
151.800000
30
0.0
11
141.960000
21
151.800000
31
0.0
0
LINE
8
HIDDEN
10
141.960000
20
151.800000
30
0.0
11
139.920000
21
151.800000
31
0.0
0
LINE
8
HIDDEN
10
134.840000
20
151.800000
30
0.0
11
136.880000
21
151.800000
31
0.0
0
LINE
8
HIDDEN
10
136.880000
20
151.800000
30
0.0
11
134.840000
21
151.800000
31
0.0
0
LINE
8
HIDDEN
10
129.760000
20
151.800000
30
0.0
11
131.800000
21
151.800000
31
0.0
0
LINE
8
HIDDEN
10
131.800000
20
151.800000
30
0.0
11
129.760000
21
151.800000
31
0.0
0
LINE
8
HIDDEN
10
139.920000
20
151.800000
30
0.0
11
141.960000
21
151.800000
31
0.0
0
LINE
8
HIDDEN
10
141.960000
20
151.800000
30
0.0
11
139.920000
21
151.800000
31
0.0
0
LINE
8
HIDDEN
10
134.840000
20
151.800000
30
0.0
11
136.880000
21
151.800000
31
0.0
0
LINE
8
HIDDEN
10
136.880000
20
151.800000
30
0.0
11
134.840000
21
151.800000
31
0.0
0
LINE
8
HIDDEN
10
129.760000
20
151.800000
30
0.0
11
131.800000
21
151.800000
31
0.0
0
LINE
8
HIDDEN
10
131.800000
20
151.800000
30
0.0
11
129.760000
21
151.800000
31
0.0
0
LINE
8
HIDDEN
10
124.680000
20
151.800000
30
0.0
11
126.720000
21
151.800000
31
0.0
0
LINE
8
HIDDEN
10
126.720000
20
151.800000
30
0.0
11
124.680000
21
151.800000
31
0.0
0
LINE
8
HIDDEN
10
126.240000
20
151.800000
30
0.0
11
130.240000
21
151.800000
31
0.0
0
LINE
8
HIDDEN
10
130.240000
20
151.800000
30
0.0
11
126.240000
21
151.800000
31
0.0
0
LINE
8
HIDDEN
10
113.260000
20
151.800000
30
0.0
11
118.660000
21
151.800000
31
0.0
0
LINE
8
HIDDEN
10
118.660000
20
151.800000
30
0.0
11
113.260000
21
151.800000
31
0.0
0
LINE
8
HIDDEN
10
124.680000
20
151.800000
30
0.0
11
126.720000
21
151.800000
31
0.0
0
LINE
8
HIDDEN
10
126.720000
20
151.800000
30
0.0
11
124.680000
21
151.800000
31
0.0
0
LINE
8
HIDDEN
10
229.260000
20
150.120000
30
0.0
11
229.260000
21
151.800000
31
0.0
0
LINE
8
HIDDEN
10
143.310000
20
150.120000
30
0.0
11
143.310000
21
151.800000
31
0.0
0
LINE
8
HIDDEN
10
143.310000
20
150.120000
30
0.0
11
143.310000
21
151.800000
31
0.0
0
LINE
8
HIDDEN
10
143.310000
20
150.120000
30
0.0
11
143.310000
21
151.800000
31
0.0
0
LINE
8
HIDDEN
10
133.710000
20
150.120000
30
0.0
11
133.710000
21
151.800000
31
0.0
0
LINE
8
HIDDEN
10
113.260000
20
150.120000
30
0.0
11
113.260000
21
151.800000
31
0.0
0
LINE
8
HIDDEN
10
133.710000
20
150.120000
30
0.0
11
133.710000
21
151.800000
31
0.0
0
LINE
8
HIDDEN
10
133.710000
20
150.120000
30
0.0
11
133.710000
21
151.800000
31
0.0
0
LINE
8
HIDDEN
10
143.310000
20
150.120000
30
0.0
11
143.310000
21
151.800000
31
0.0
0
LINE
8
HIDDEN
10
168.560000
20
150.120000
30
0.0
11
168.560000
21
151.800000
31
0.0
0
LINE
8
HIDDEN
10
133.710000
20
150.120000
30
0.0
11
133.710000
21
151.800000
31
0.0
0
LINE
8
HIDDEN
10
124.010000
20
150.120000
30
0.0
11
124.010000
21
151.800000
31
0.0
0
LINE
8
HIDDEN
10
114.410000
20
150.120000
30
0.0
11
114.410000
21
151.800000
31
0.0
0
LINE
8
HIDDEN
10
124.010000
20
150.120000
30
0.0
11
124.010000
21
151.800000
31
0.0
0
LINE
8
HIDDEN
10
114.410000
20
150.120000
30
0.0
11
114.410000
21
151.800000
31
0.0
0
LINE
8
HIDDEN
10
124.010000
20
150.120000
30
0.0
11
124.010000
21
151.800000
31
0.0
0
LINE
8
HIDDEN
10
114.410000
20
150.120000
30
0.0
11
114.410000
21
151.800000
31
0.0
0
LINE
8
HIDDEN
10
229.260000
20
150.120000
30
0.0
11
229.260000
21
151.800000
31
0.0
0
LINE
8
HIDDEN
10
221.200000
20
150.120000
30
0.0
11
221.200000
21
151.800000
31
0.0
0
LINE
8
HIDDEN
10
217.680000
20
150.120000
30
0.0
11
217.680000
21
151.800000
31
0.0
0
LINE
8
HIDDEN
10
221.200000
20
150.120000
30
0.0
11
221.200000
21
151.800000
31
0.0
0
LINE
8
HIDDEN
10
216.120000
20
150.120000
30
0.0
11
216.120000
21
151.800000
31
0.0
0
LINE
8
HIDDEN
10
211.040000
20
150.120000
30
0.0
11
211.040000
21
151.800000
31
0.0
0
LINE
8
HIDDEN
10
205.960000
20
150.120000
30
0.0
11
205.960000
21
151.800000
31
0.0
0
LINE
8
HIDDEN
10
216.120000
20
150.120000
30
0.0
11
216.120000
21
151.800000
31
0.0
0
LINE
8
HIDDEN
10
211.040000
20
150.120000
30
0.0
11
211.040000
21
151.800000
31
0.0
0
LINE
8
HIDDEN
10
205.960000
20
150.120000
30
0.0
11
205.960000
21
151.800000
31
0.0
0
LINE
8
HIDDEN
10
200.880000
20
150.120000
30
0.0
11
200.880000
21
151.800000
31
0.0
0
LINE
8
HIDDEN
10
195.800000
20
150.120000
30
0.0
11
195.800000
21
151.800000
31
0.0
0
LINE
8
HIDDEN
10
190.720000
20
150.120000
30
0.0
11
190.720000
21
151.800000
31
0.0
0
LINE
8
HIDDEN
10
200.880000
20
150.120000
30
0.0
11
200.880000
21
151.800000
31
0.0
0
LINE
8
HIDDEN
10
195.800000
20
150.120000
30
0.0
11
195.800000
21
151.800000
31
0.0
0
LINE
8
HIDDEN
10
190.720000
20
150.120000
30
0.0
11
190.720000
21
151.800000
31
0.0
0
LINE
8
HIDDEN
10
185.640000
20
150.120000
30
0.0
11
185.640000
21
151.800000
31
0.0
0
LINE
8
HIDDEN
10
180.560000
20
150.120000
30
0.0
11
180.560000
21
151.800000
31
0.0
0
LINE
8
HIDDEN
10
175.480000
20
150.120000
30
0.0
11
175.480000
21
151.800000
31
0.0
0
LINE
8
HIDDEN
10
185.640000
20
150.120000
30
0.0
11
185.640000
21
151.800000
31
0.0
0
LINE
8
HIDDEN
10
180.560000
20
150.120000
30
0.0
11
180.560000
21
151.800000
31
0.0
0
LINE
8
HIDDEN
10
175.480000
20
150.120000
30
0.0
11
175.480000
21
151.800000
31
0.0
0
LINE
8
HIDDEN
10
170.400000
20
150.120000
30
0.0
11
170.400000
21
151.800000
31
0.0
0
LINE
8
HIDDEN
10
165.320000
20
150.120000
30
0.0
11
165.320000
21
151.800000
31
0.0
0
LINE
8
HIDDEN
10
160.240000
20
150.120000
30
0.0
11
160.240000
21
151.800000
31
0.0
0
LINE
8
HIDDEN
10
170.400000
20
150.120000
30
0.0
11
170.400000
21
151.800000
31
0.0
0
LINE
8
HIDDEN
10
165.320000
20
150.120000
30
0.0
11
165.320000
21
151.800000
31
0.0
0
LINE
8
HIDDEN
10
160.240000
20
150.120000
30
0.0
11
160.240000
21
151.800000
31
0.0
0
LINE
8
HIDDEN
10
155.160000
20
150.120000
30
0.0
11
155.160000
21
151.800000
31
0.0
0
LINE
8
HIDDEN
10
150.080000
20
150.120000
30
0.0
11
150.080000
21
151.800000
31
0.0
0
LINE
8
HIDDEN
10
145.000000
20
150.120000
30
0.0
11
145.000000
21
151.800000
31
0.0
0
LINE
8
HIDDEN
10
155.160000
20
150.120000
30
0.0
11
155.160000
21
151.800000
31
0.0
0
LINE
8
HIDDEN
10
150.080000
20
150.120000
30
0.0
11
150.080000
21
151.800000
31
0.0
0
LINE
8
HIDDEN
10
145.000000
20
150.120000
30
0.0
11
145.000000
21
151.800000
31
0.0
0
LINE
8
HIDDEN
10
139.920000
20
150.120000
30
0.0
11
139.920000
21
151.800000
31
0.0
0
LINE
8
HIDDEN
10
134.840000
20
150.120000
30
0.0
11
134.840000
21
151.800000
31
0.0
0
LINE
8
HIDDEN
10
129.760000
20
150.120000
30
0.0
11
129.760000
21
151.800000
31
0.0
0
LINE
8
HIDDEN
10
139.920000
20
150.120000
30
0.0
11
139.920000
21
151.800000
31
0.0
0
LINE
8
HIDDEN
10
134.840000
20
150.120000
30
0.0
11
134.840000
21
151.800000
31
0.0
0
LINE
8
HIDDEN
10
129.760000
20
150.120000
30
0.0
11
129.760000
21
151.800000
31
0.0
0
LINE
8
HIDDEN
10
124.680000
20
150.120000
30
0.0
11
124.680000
21
151.800000
31
0.0
0
LINE
8
HIDDEN
10
126.240000
20
150.120000
30
0.0
11
126.240000
21
151.800000
31
0.0
0
LINE
8
HIDDEN
10
113.260000
20
150.120000
30
0.0
11
113.260000
21
151.800000
31
0.0
0
LINE
8
HIDDEN
10
124.680000
20
150.120000
30
0.0
11
124.680000
21
151.800000
31
0.0
0
LINE
8
HIDDEN
10
234.660000
20
150.120000
30
0.0
11
234.660000
21
151.800000
31
0.0
0
LINE
8
HIDDEN
10
145.210000
20
150.120000
30
0.0
11
145.210000
21
151.800000
31
0.0
0
LINE
8
HIDDEN
10
145.210000
20
150.120000
30
0.0
11
145.210000
21
151.800000
31
0.0
0
LINE
8
HIDDEN
10
145.210000
20
150.120000
30
0.0
11
145.210000
21
151.800000
31
0.0
0
LINE
8
HIDDEN
10
135.610000
20
150.120000
30
0.0
11
135.610000
21
151.800000
31
0.0
0
LINE
8
HIDDEN
10
118.660000
20
150.120000
30
0.0
11
118.660000
21
151.800000
31
0.0
0
LINE
8
HIDDEN
10
135.610000
20
150.120000
30
0.0
11
135.610000
21
151.800000
31
0.0
0
LINE
8
HIDDEN
10
135.610000
20
150.120000
30
0.0
11
135.610000
21
151.800000
31
0.0
0
LINE
8
HIDDEN
10
145.210000
20
150.120000
30
0.0
11
145.210000
21
151.800000
31
0.0
0
LINE
8
HIDDEN
10
170.560000
20
150.120000
30
0.0
11
170.560000
21
151.800000
31
0.0
0
LINE
8
HIDDEN
10
135.610000
20
150.120000
30
0.0
11
135.610000
21
151.800000
31
0.0
0
LINE
8
HIDDEN
10
125.910000
20
150.120000
30
0.0
11
125.910000
21
151.800000
31
0.0
0
LINE
8
HIDDEN
10
116.310000
20
150.120000
30
0.0
11
116.310000
21
151.800000
31
0.0
0
LINE
8
HIDDEN
10
125.910000
20
150.120000
30
0.0
11
125.910000
21
151.800000
31
0.0
0
LINE
8
HIDDEN
10
116.310000
20
150.120000
30
0.0
11
116.310000
21
151.800000
31
0.0
0
LINE
8
HIDDEN
10
125.910000
20
150.120000
30
0.0
11
125.910000
21
151.800000
31
0.0
0
LINE
8
HIDDEN
10
116.310000
20
150.120000
30
0.0
11
116.310000
21
151.800000
31
0.0
0
LINE
8
HIDDEN
10
234.660000
20
150.120000
30
0.0
11
234.660000
21
151.800000
31
0.0
0
LINE
8
HIDDEN
10
223.240000
20
150.120000
30
0.0
11
223.240000
21
151.800000
31
0.0
0
LINE
8
HIDDEN
10
221.680000
20
150.120000
30
0.0
11
221.680000
21
151.800000
31
0.0
0
LINE
8
HIDDEN
10
223.240000
20
150.120000
30
0.0
11
223.240000
21
151.800000
31
0.0
0
LINE
8
HIDDEN
10
218.160000
20
150.120000
30
0.0
11
218.160000
21
151.800000
31
0.0
0
LINE
8
HIDDEN
10
213.080000
20
150.120000
30
0.0
11
213.080000
21
151.800000
31
0.0
0
LINE
8
HIDDEN
10
208.000000
20
150.120000
30
0.0
11
208.000000
21
151.800000
31
0.0
0
LINE
8
HIDDEN
10
218.160000
20
150.120000
30
0.0
11
218.160000
21
151.800000
31
0.0
0
LINE
8
HIDDEN
10
213.080000
20
150.120000
30
0.0
11
213.080000
21
151.800000
31
0.0
0
LINE
8
HIDDEN
10
208.000000
20
150.120000
30
0.0
11
208.000000
21
151.800000
31
0.0
0
LINE
8
HIDDEN
10
202.920000
20
150.120000
30
0.0
11
202.920000
21
151.800000
31
0.0
0
LINE
8
HIDDEN
10
197.840000
20
150.120000
30
0.0
11
197.840000
21
151.800000
31
0.0
0
LINE
8
HIDDEN
10
192.760000
20
150.120000
30
0.0
11
192.760000
21
151.800000
31
0.0
0
LINE
8
HIDDEN
10
202.920000
20
150.120000
30
0.0
11
202.920000
21
151.800000
31
0.0
0
LINE
8
HIDDEN
10
197.840000
20
150.120000
30
0.0
11
197.840000
21
151.800000
31
0.0
0
LINE
8
HIDDEN
10
192.760000
20
150.120000
30
0.0
11
192.760000
21
151.800000
31
0.0
0
LINE
8
HIDDEN
10
187.680000
20
150.120000
30
0.0
11
187.680000
21
151.800000
31
0.0
0
LINE
8
HIDDEN
10
182.600000
20
150.120000
30
0.0
11
182.600000
21
151.800000
31
0.0
0
LINE
8
HIDDEN
10
177.520000
20
150.120000
30
0.0
11
177.520000
21
151.800000
31
0.0
0
LINE
8
HIDDEN
10
187.680000
20
150.120000
30
0.0
11
187.680000
21
151.800000
31
0.0
0
LINE
8
HIDDEN
10
182.600000
20
150.120000
30
0.0
11
182.600000
21
151.800000
31
0.0
0
LINE
8
HIDDEN
10
177.520000
20
150.120000
30
0.0
11
177.520000
21
151.800000
31
0.0
0
LINE
8
HIDDEN
10
172.440000
20
150.120000
30
0.0
11
172.440000
21
151.800000
31
0.0
0
LINE
8
HIDDEN
10
167.360000
20
150.120000
30
0.0
11
167.360000
21
151.800000
31
0.0
0
LINE
8
HIDDEN
10
162.280000
20
150.120000
30
0.0
11
162.280000
21
151.800000
31
0.0
0
LINE
8
HIDDEN
10
172.440000
20
150.120000
30
0.0
11
172.440000
21
151.800000
31
0.0
0
LINE
8
HIDDEN
10
167.360000
20
150.120000
30
0.0
11
167.360000
21
151.800000
31
0.0
0
LINE
8
HIDDEN
10
162.280000
20
150.120000
30
0.0
11
162.280000
21
151.800000
31
0.0
0
LINE
8
HIDDEN
10
157.200000
20
150.120000
30
0.0
11
157.200000
21
151.800000
31
0.0
0
LINE
8
HIDDEN
10
152.120000
20
150.120000
30
0.0
11
152.120000
21
151.800000
31
0.0
0
LINE
8
HIDDEN
10
147.040000
20
150.120000
30
0.0
11
147.040000
21
151.800000
31
0.0
0
LINE
8
HIDDEN
10
157.200000
20
150.120000
30
0.0
11
157.200000
21
151.800000
31
0.0
0
LINE
8
HIDDEN
10
152.120000
20
150.120000
30
0.0
11
152.120000
21
151.800000
31
0.0
0
LINE
8
HIDDEN
10
147.040000
20
150.120000
30
0.0
11
147.040000
21
151.800000
31
0.0
0
LINE
8
HIDDEN
10
141.960000
20
150.120000
30
0.0
11
141.960000
21
151.800000
31
0.0
0
LINE
8
HIDDEN
10
136.880000
20
150.120000
30
0.0
11
136.880000
21
151.800000
31
0.0
0
LINE
8
HIDDEN
10
131.800000
20
150.120000
30
0.0
11
131.800000
21
151.800000
31
0.0
0
LINE
8
HIDDEN
10
141.960000
20
150.120000
30
0.0
11
141.960000
21
151.800000
31
0.0
0
LINE
8
HIDDEN
10
136.880000
20
150.120000
30
0.0
11
136.880000
21
151.800000
31
0.0
0
LINE
8
HIDDEN
10
131.800000
20
150.120000
30
0.0
11
131.800000
21
151.800000
31
0.0
0
LINE
8
HIDDEN
10
126.720000
20
150.120000
30
0.0
11
126.720000
21
151.800000
31
0.0
0
LINE
8
HIDDEN
10
130.240000
20
150.120000
30
0.0
11
130.240000
21
151.800000
31
0.0
0
LINE
8
HIDDEN
10
118.660000
20
150.120000
30
0.0
11
118.660000
21
151.800000
31
0.0
0
LINE
8
HIDDEN
10
126.720000
20
150.120000
30
0.0
11
126.720000
21
151.800000
31
0.0
0
LINE
8
SECTION
10
277.000000
20
240.680000
30
0.0
11
283.124358
21
240.680000
31
0.0
0
LINE
8
SECTION
10
283.124358
20
239.000000
30
0.0
11
283.124358
21
240.680000
31
0.0
0
LINE
8
SECTION
10
277.000000
20
239.000000
30
0.0
11
283.124358
21
239.000000
31
0.0
0
LINE
8
SECTION
10
277.000000
20
240.680000
30
0.0
11
277.000000
21
239.000000
31
0.0
0
LINE
8
SECTION
10
400.955642
20
239.000000
30
0.0
11
400.955642
21
240.680000
31
0.0
0
LINE
8
SECTION
10
400.955642
20
240.680000
30
0.0
11
407.080000
21
240.680000
31
0.0
0
LINE
8
SECTION
10
407.080000
20
239.000000
30
0.0
11
407.080000
21
240.680000
31
0.0
0
LINE
8
SECTION
10
400.955642
20
239.000000
30
0.0
11
407.080000
21
239.000000
31
0.0
0
LINE
8
SECTION
10
391.320000
20
239.000000
30
0.0
11
391.320000
21
240.680000
31
0.0
0
LINE
8
SECTION
10
391.320000
20
240.680000
30
0.0
11
399.124358
21
240.680000
31
0.0
0
LINE
8
SECTION
10
399.124358
20
239.000000
30
0.0
11
399.124358
21
240.680000
31
0.0
0
LINE
8
SECTION
10
391.320000
20
239.000000
30
0.0
11
399.124358
21
239.000000
31
0.0
0
LINE
8
SECTION
10
386.240000
20
239.000000
30
0.0
11
389.280000
21
239.000000
31
0.0
0
LINE
8
SECTION
10
386.240000
20
239.000000
30
0.0
11
386.240000
21
240.680000
31
0.0
0
LINE
8
SECTION
10
386.240000
20
240.680000
30
0.0
11
389.280000
21
240.680000
31
0.0
0
LINE
8
SECTION
10
389.280000
20
239.000000
30
0.0
11
389.280000
21
240.680000
31
0.0
0
LINE
8
SECTION
10
381.160000
20
239.000000
30
0.0
11
384.200000
21
239.000000
31
0.0
0
LINE
8
SECTION
10
381.160000
20
239.000000
30
0.0
11
381.160000
21
240.680000
31
0.0
0
LINE
8
SECTION
10
381.160000
20
240.680000
30
0.0
11
384.200000
21
240.680000
31
0.0
0
LINE
8
SECTION
10
384.200000
20
239.000000
30
0.0
11
384.200000
21
240.680000
31
0.0
0
LINE
8
SECTION
10
376.080000
20
239.000000
30
0.0
11
379.120000
21
239.000000
31
0.0
0
LINE
8
SECTION
10
376.080000
20
239.000000
30
0.0
11
376.080000
21
240.680000
31
0.0
0
LINE
8
SECTION
10
376.080000
20
240.680000
30
0.0
11
379.120000
21
240.680000
31
0.0
0
LINE
8
SECTION
10
379.120000
20
239.000000
30
0.0
11
379.120000
21
240.680000
31
0.0
0
LINE
8
SECTION
10
371.000000
20
239.000000
30
0.0
11
374.040000
21
239.000000
31
0.0
0
LINE
8
SECTION
10
371.000000
20
239.000000
30
0.0
11
371.000000
21
240.680000
31
0.0
0
LINE
8
SECTION
10
371.000000
20
240.680000
30
0.0
11
374.040000
21
240.680000
31
0.0
0
LINE
8
SECTION
10
374.040000
20
239.000000
30
0.0
11
374.040000
21
240.680000
31
0.0
0
LINE
8
SECTION
10
365.920000
20
239.000000
30
0.0
11
368.960000
21
239.000000
31
0.0
0
LINE
8
SECTION
10
365.920000
20
239.000000
30
0.0
11
365.920000
21
240.680000
31
0.0
0
LINE
8
SECTION
10
365.920000
20
240.680000
30
0.0
11
368.960000
21
240.680000
31
0.0
0
LINE
8
SECTION
10
368.960000
20
239.000000
30
0.0
11
368.960000
21
240.680000
31
0.0
0
LINE
8
SECTION
10
360.840000
20
239.000000
30
0.0
11
363.880000
21
239.000000
31
0.0
0
LINE
8
SECTION
10
360.840000
20
239.000000
30
0.0
11
360.840000
21
240.680000
31
0.0
0
LINE
8
SECTION
10
360.840000
20
240.680000
30
0.0
11
363.880000
21
240.680000
31
0.0
0
LINE
8
SECTION
10
363.880000
20
239.000000
30
0.0
11
363.880000
21
240.680000
31
0.0
0
LINE
8
SECTION
10
355.760000
20
239.000000
30
0.0
11
358.800000
21
239.000000
31
0.0
0
LINE
8
SECTION
10
355.760000
20
239.000000
30
0.0
11
355.760000
21
240.680000
31
0.0
0
LINE
8
SECTION
10
355.760000
20
240.680000
30
0.0
11
358.800000
21
240.680000
31
0.0
0
LINE
8
SECTION
10
358.800000
20
239.000000
30
0.0
11
358.800000
21
240.680000
31
0.0
0
LINE
8
SECTION
10
350.680000
20
239.000000
30
0.0
11
353.720000
21
239.000000
31
0.0
0
LINE
8
SECTION
10
350.680000
20
239.000000
30
0.0
11
350.680000
21
240.680000
31
0.0
0
LINE
8
SECTION
10
350.680000
20
240.680000
30
0.0
11
353.720000
21
240.680000
31
0.0
0
LINE
8
SECTION
10
353.720000
20
239.000000
30
0.0
11
353.720000
21
240.680000
31
0.0
0
LINE
8
SECTION
10
345.600000
20
239.000000
30
0.0
11
348.640000
21
239.000000
31
0.0
0
LINE
8
SECTION
10
345.600000
20
239.000000
30
0.0
11
345.600000
21
240.680000
31
0.0
0
LINE
8
SECTION
10
345.600000
20
240.680000
30
0.0
11
348.640000
21
240.680000
31
0.0
0
LINE
8
SECTION
10
348.640000
20
239.000000
30
0.0
11
348.640000
21
240.680000
31
0.0
0
LINE
8
SECTION
10
340.520000
20
239.000000
30
0.0
11
343.560000
21
239.000000
31
0.0
0
LINE
8
SECTION
10
340.520000
20
239.000000
30
0.0
11
340.520000
21
240.680000
31
0.0
0
LINE
8
SECTION
10
340.520000
20
240.680000
30
0.0
11
343.560000
21
240.680000
31
0.0
0
LINE
8
SECTION
10
343.560000
20
239.000000
30
0.0
11
343.560000
21
240.680000
31
0.0
0
LINE
8
SECTION
10
335.440000
20
239.000000
30
0.0
11
338.480000
21
239.000000
31
0.0
0
LINE
8
SECTION
10
335.440000
20
239.000000
30
0.0
11
335.440000
21
240.680000
31
0.0
0
LINE
8
SECTION
10
335.440000
20
240.680000
30
0.0
11
338.480000
21
240.680000
31
0.0
0
LINE
8
SECTION
10
338.480000
20
239.000000
30
0.0
11
338.480000
21
240.680000
31
0.0
0
LINE
8
SECTION
10
330.360000
20
239.000000
30
0.0
11
333.400000
21
239.000000
31
0.0
0
LINE
8
SECTION
10
330.360000
20
239.000000
30
0.0
11
330.360000
21
240.680000
31
0.0
0
LINE
8
SECTION
10
330.360000
20
240.680000
30
0.0
11
333.400000
21
240.680000
31
0.0
0
LINE
8
SECTION
10
333.400000
20
239.000000
30
0.0
11
333.400000
21
240.680000
31
0.0
0
LINE
8
SECTION
10
325.280000
20
239.000000
30
0.0
11
328.320000
21
239.000000
31
0.0
0
LINE
8
SECTION
10
325.280000
20
239.000000
30
0.0
11
325.280000
21
240.680000
31
0.0
0
LINE
8
SECTION
10
325.280000
20
240.680000
30
0.0
11
328.320000
21
240.680000
31
0.0
0
LINE
8
SECTION
10
328.320000
20
239.000000
30
0.0
11
328.320000
21
240.680000
31
0.0
0
LINE
8
SECTION
10
320.200000
20
239.000000
30
0.0
11
323.240000
21
239.000000
31
0.0
0
LINE
8
SECTION
10
320.200000
20
239.000000
30
0.0
11
320.200000
21
240.680000
31
0.0
0
LINE
8
SECTION
10
320.200000
20
240.680000
30
0.0
11
323.240000
21
240.680000
31
0.0
0
LINE
8
SECTION
10
323.240000
20
239.000000
30
0.0
11
323.240000
21
240.680000
31
0.0
0
LINE
8
SECTION
10
315.120000
20
239.000000
30
0.0
11
318.160000
21
239.000000
31
0.0
0
LINE
8
SECTION
10
315.120000
20
239.000000
30
0.0
11
315.120000
21
240.680000
31
0.0
0
LINE
8
SECTION
10
315.120000
20
240.680000
30
0.0
11
318.160000
21
240.680000
31
0.0
0
LINE
8
SECTION
10
318.160000
20
239.000000
30
0.0
11
318.160000
21
240.680000
31
0.0
0
LINE
8
SECTION
10
310.040000
20
239.000000
30
0.0
11
313.080000
21
239.000000
31
0.0
0
LINE
8
SECTION
10
310.040000
20
239.000000
30
0.0
11
310.040000
21
240.680000
31
0.0
0
LINE
8
SECTION
10
310.040000
20
240.680000
30
0.0
11
313.080000
21
240.680000
31
0.0
0
LINE
8
SECTION
10
313.080000
20
239.000000
30
0.0
11
313.080000
21
240.680000
31
0.0
0
LINE
8
SECTION
10
304.960000
20
239.000000
30
0.0
11
308.000000
21
239.000000
31
0.0
0
LINE
8
SECTION
10
304.960000
20
239.000000
30
0.0
11
304.960000
21
240.680000
31
0.0
0
LINE
8
SECTION
10
304.960000
20
240.680000
30
0.0
11
308.000000
21
240.680000
31
0.0
0
LINE
8
SECTION
10
308.000000
20
239.000000
30
0.0
11
308.000000
21
240.680000
31
0.0
0
LINE
8
SECTION
10
299.880000
20
239.000000
30
0.0
11
302.920000
21
239.000000
31
0.0
0
LINE
8
SECTION
10
299.880000
20
239.000000
30
0.0
11
299.880000
21
240.680000
31
0.0
0
LINE
8
SECTION
10
299.880000
20
240.680000
30
0.0
11
302.920000
21
240.680000
31
0.0
0
LINE
8
SECTION
10
302.920000
20
239.000000
30
0.0
11
302.920000
21
240.680000
31
0.0
0
LINE
8
SECTION
10
294.800000
20
239.000000
30
0.0
11
297.840000
21
239.000000
31
0.0
0
LINE
8
SECTION
10
294.800000
20
239.000000
30
0.0
11
294.800000
21
240.680000
31
0.0
0
LINE
8
SECTION
10
294.800000
20
240.680000
30
0.0
11
297.840000
21
240.680000
31
0.0
0
LINE
8
SECTION
10
297.840000
20
239.000000
30
0.0
11
297.840000
21
240.680000
31
0.0
0
LINE
8
SECTION
10
284.955642
20
239.000000
30
0.0
11
292.760000
21
239.000000
31
0.0
0
LINE
8
SECTION
10
284.955642
20
239.000000
30
0.0
11
284.955642
21
240.680000
31
0.0
0
LINE
8
SECTION
10
284.955642
20
240.680000
30
0.0
11
292.760000
21
240.680000
31
0.0
0
LINE
8
SECTION
10
292.760000
20
239.000000
30
0.0
11
292.760000
21
240.680000
31
0.0
0
LINE
8
CENTER
10
123.080000
20
265.380000
30
0.0
11
125.343000
21
265.380000
31
0.0
0
LINE
8
CENTER
10
126.057000
20
265.380000
30
0.0
11
128.320000
21
265.380000
31
0.0
0
LINE
8
CENTER
10
125.700000
20
262.760000
30
0.0
11
125.700000
21
265.023000
31
0.0
0
LINE
8
CENTER
10
125.700000
20
265.737000
30
0.0
11
125.700000
21
268.000000
31
0.0
0
LINE
8
CENTER
10
128.160000
20
265.380000
30
0.0
11
130.423000
21
265.380000
31
0.0
0
LINE
8
CENTER
10
131.137000
20
265.380000
30
0.0
11
133.400000
21
265.380000
31
0.0
0
LINE
8
CENTER
10
130.780000
20
262.760000
30
0.0
11
130.780000
21
265.023000
31
0.0
0
LINE
8
CENTER
10
130.780000
20
265.737000
30
0.0
11
130.780000
21
268.000000
31
0.0
0
LINE
8
CENTER
10
133.240000
20
265.380000
30
0.0
11
135.503000
21
265.380000
31
0.0
0
LINE
8
CENTER
10
136.217000
20
265.380000
30
0.0
11
138.480000
21
265.380000
31
0.0
0
LINE
8
CENTER
10
135.860000
20
262.760000
30
0.0
11
135.860000
21
265.023000
31
0.0
0
LINE
8
CENTER
10
135.860000
20
265.737000
30
0.0
11
135.860000
21
268.000000
31
0.0
0
LINE
8
CENTER
10
138.320000
20
265.380000
30
0.0
11
140.583000
21
265.380000
31
0.0
0
LINE
8
CENTER
10
141.297000
20
265.380000
30
0.0
11
143.560000
21
265.380000
31
0.0
0
LINE
8
CENTER
10
140.940000
20
262.760000
30
0.0
11
140.940000
21
265.023000
31
0.0
0
LINE
8
CENTER
10
140.940000
20
265.737000
30
0.0
11
140.940000
21
268.000000
31
0.0
0
LINE
8
CENTER
10
143.400000
20
265.380000
30
0.0
11
145.663000
21
265.380000
31
0.0
0
LINE
8
CENTER
10
146.377000
20
265.380000
30
0.0
11
148.640000
21
265.380000
31
0.0
0
LINE
8
CENTER
10
146.020000
20
262.760000
30
0.0
11
146.020000
21
265.023000
31
0.0
0
LINE
8
CENTER
10
146.020000
20
265.737000
30
0.0
11
146.020000
21
268.000000
31
0.0
0
LINE
8
CENTER
10
148.480000
20
265.380000
30
0.0
11
150.743000
21
265.380000
31
0.0
0
LINE
8
CENTER
10
151.457000
20
265.380000
30
0.0
11
153.720000
21
265.380000
31
0.0
0
LINE
8
CENTER
10
151.100000
20
262.760000
30
0.0
11
151.100000
21
265.023000
31
0.0
0
LINE
8
CENTER
10
151.100000
20
265.737000
30
0.0
11
151.100000
21
268.000000
31
0.0
0
LINE
8
CENTER
10
153.560000
20
265.380000
30
0.0
11
155.823000
21
265.380000
31
0.0
0
LINE
8
CENTER
10
156.537000
20
265.380000
30
0.0
11
158.800000
21
265.380000
31
0.0
0
LINE
8
CENTER
10
156.180000
20
262.760000
30
0.0
11
156.180000
21
265.023000
31
0.0
0
LINE
8
CENTER
10
156.180000
20
265.737000
30
0.0
11
156.180000
21
268.000000
31
0.0
0
LINE
8
CENTER
10
158.640000
20
265.380000
30
0.0
11
160.903000
21
265.380000
31
0.0
0
LINE
8
CENTER
10
161.617000
20
265.380000
30
0.0
11
163.880000
21
265.380000
31
0.0
0
LINE
8
CENTER
10
161.260000
20
262.760000
30
0.0
11
161.260000
21
265.023000
31
0.0
0
LINE
8
CENTER
10
161.260000
20
265.737000
30
0.0
11
161.260000
21
268.000000
31
0.0
0
LINE
8
CENTER
10
163.720000
20
265.380000
30
0.0
11
165.983000
21
265.380000
31
0.0
0
LINE
8
CENTER
10
166.697000
20
265.380000
30
0.0
11
168.960000
21
265.380000
31
0.0
0
LINE
8
CENTER
10
166.340000
20
262.760000
30
0.0
11
166.340000
21
265.023000
31
0.0
0
LINE
8
CENTER
10
166.340000
20
265.737000
30
0.0
11
166.340000
21
268.000000
31
0.0
0
LINE
8
CENTER
10
168.800000
20
265.380000
30
0.0
11
171.063000
21
265.380000
31
0.0
0
LINE
8
CENTER
10
171.777000
20
265.380000
30
0.0
11
174.040000
21
265.380000
31
0.0
0
LINE
8
CENTER
10
171.420000
20
262.760000
30
0.0
11
171.420000
21
265.023000
31
0.0
0
LINE
8
CENTER
10
171.420000
20
265.737000
30
0.0
11
171.420000
21
268.000000
31
0.0
0
LINE
8
CENTER
10
173.880000
20
265.380000
30
0.0
11
176.143000
21
265.380000
31
0.0
0
LINE
8
CENTER
10
176.857000
20
265.380000
30
0.0
11
179.120000
21
265.380000
31
0.0
0
LINE
8
CENTER
10
176.500000
20
262.760000
30
0.0
11
176.500000
21
265.023000
31
0.0
0
LINE
8
CENTER
10
176.500000
20
265.737000
30
0.0
11
176.500000
21
268.000000
31
0.0
0
LINE
8
CENTER
10
178.960000
20
265.380000
30
0.0
11
181.223000
21
265.380000
31
0.0
0
LINE
8
CENTER
10
181.937000
20
265.380000
30
0.0
11
184.200000
21
265.380000
31
0.0
0
LINE
8
CENTER
10
181.580000
20
262.760000
30
0.0
11
181.580000
21
265.023000
31
0.0
0
LINE
8
CENTER
10
181.580000
20
265.737000
30
0.0
11
181.580000
21
268.000000
31
0.0
0
LINE
8
CENTER
10
184.040000
20
265.380000
30
0.0
11
186.303000
21
265.380000
31
0.0
0
LINE
8
CENTER
10
187.017000
20
265.380000
30
0.0
11
189.280000
21
265.380000
31
0.0
0
LINE
8
CENTER
10
186.660000
20
262.760000
30
0.0
11
186.660000
21
265.023000
31
0.0
0
LINE
8
CENTER
10
186.660000
20
265.737000
30
0.0
11
186.660000
21
268.000000
31
0.0
0
LINE
8
CENTER
10
189.120000
20
265.380000
30
0.0
11
191.383000
21
265.380000
31
0.0
0
LINE
8
CENTER
10
192.097000
20
265.380000
30
0.0
11
194.360000
21
265.380000
31
0.0
0
LINE
8
CENTER
10
191.740000
20
262.760000
30
0.0
11
191.740000
21
265.023000
31
0.0
0
LINE
8
CENTER
10
191.740000
20
265.737000
30
0.0
11
191.740000
21
268.000000
31
0.0
0
LINE
8
CENTER
10
194.200000
20
265.380000
30
0.0
11
196.463000
21
265.380000
31
0.0
0
LINE
8
CENTER
10
197.177000
20
265.380000
30
0.0
11
199.440000
21
265.380000
31
0.0
0
LINE
8
CENTER
10
196.820000
20
262.760000
30
0.0
11
196.820000
21
265.023000
31
0.0
0
LINE
8
CENTER
10
196.820000
20
265.737000
30
0.0
11
196.820000
21
268.000000
31
0.0
0
LINE
8
CENTER
10
199.280000
20
265.380000
30
0.0
11
201.543000
21
265.380000
31
0.0
0
LINE
8
CENTER
10
202.257000
20
265.380000
30
0.0
11
204.520000
21
265.380000
31
0.0
0
LINE
8
CENTER
10
201.900000
20
262.760000
30
0.0
11
201.900000
21
265.023000
31
0.0
0
LINE
8
CENTER
10
201.900000
20
265.737000
30
0.0
11
201.900000
21
268.000000
31
0.0
0
LINE
8
CENTER
10
204.360000
20
265.380000
30
0.0
11
206.623000
21
265.380000
31
0.0
0
LINE
8
CENTER
10
207.337000
20
265.380000
30
0.0
11
209.600000
21
265.380000
31
0.0
0
LINE
8
CENTER
10
206.980000
20
262.760000
30
0.0
11
206.980000
21
265.023000
31
0.0
0
LINE
8
CENTER
10
206.980000
20
265.737000
30
0.0
11
206.980000
21
268.000000
31
0.0
0
LINE
8
CENTER
10
209.440000
20
265.380000
30
0.0
11
211.703000
21
265.380000
31
0.0
0
LINE
8
CENTER
10
212.417000
20
265.380000
30
0.0
11
214.680000
21
265.380000
31
0.0
0
LINE
8
CENTER
10
212.060000
20
262.760000
30
0.0
11
212.060000
21
265.023000
31
0.0
0
LINE
8
CENTER
10
212.060000
20
265.737000
30
0.0
11
212.060000
21
268.000000
31
0.0
0
LINE
8
CENTER
10
214.520000
20
265.380000
30
0.0
11
216.783000
21
265.380000
31
0.0
0
LINE
8
CENTER
10
217.497000
20
265.380000
30
0.0
11
219.760000
21
265.380000
31
0.0
0
LINE
8
CENTER
10
217.140000
20
262.760000
30
0.0
11
217.140000
21
265.023000
31
0.0
0
LINE
8
CENTER
10
217.140000
20
265.737000
30
0.0
11
217.140000
21
268.000000
31
0.0
0
LINE
8
CENTER
10
219.600000
20
265.380000
30
0.0
11
221.863000
21
265.380000
31
0.0
0
LINE
8
CENTER
10
222.577000
20
265.380000
30
0.0
11
224.840000
21
265.380000
31
0.0
0
LINE
8
CENTER
10
222.220000
20
262.760000
30
0.0
11
222.220000
21
265.023000
31
0.0
0
LINE
8
CENTER
10
222.220000
20
265.737000
30
0.0
11
222.220000
21
268.000000
31
0.0
0
LINE
8
CENTER
10
111.660000
20
262.840000
30
0.0
11
115.015000
21
262.840000
31
0.0
0
LINE
8
CENTER
10
116.905000
20
262.840000
30
0.0
11
120.260000
21
262.840000
31
0.0
0
LINE
8
CENTER
10
115.960000
20
258.540000
30
0.0
11
115.960000
21
261.895000
31
0.0
0
LINE
8
CENTER
10
115.960000
20
263.785000
30
0.0
11
115.960000
21
267.140000
31
0.0
0
LINE
8
CENTER
10
124.640000
20
262.840000
30
0.0
11
127.540000
21
262.840000
31
0.0
0
LINE
8
CENTER
10
128.940000
20
262.840000
30
0.0
11
131.840000
21
262.840000
31
0.0
0
LINE
8
CENTER
10
128.240000
20
259.240000
30
0.0
11
128.240000
21
262.140000
31
0.0
0
LINE
8
CENTER
10
128.240000
20
263.540000
30
0.0
11
128.240000
21
266.440000
31
0.0
0
LINE
8
CENTER
10
216.080000
20
262.840000
30
0.0
11
218.980000
21
262.840000
31
0.0
0
LINE
8
CENTER
10
220.380000
20
262.840000
30
0.0
11
223.280000
21
262.840000
31
0.0
0
LINE
8
CENTER
10
219.680000
20
259.240000
30
0.0
11
219.680000
21
262.140000
31
0.0
0
LINE
8
CENTER
10
219.680000
20
263.540000
30
0.0
11
219.680000
21
266.440000
31
0.0
0
LINE
8
CENTER
10
227.660000
20
262.840000
30
0.0
11
231.015000
21
262.840000
31
0.0
0
LINE
8
CENTER
10
232.905000
20
262.840000
30
0.0
11
236.260000
21
262.840000
31
0.0
0
LINE
8
CENTER
10
231.960000
20
258.540000
30
0.0
11
231.960000
21
261.895000
31
0.0
0
LINE
8
CENTER
10
231.960000
20
263.785000
30
0.0
11
231.960000
21
267.140000
31
0.0
0
LINE
8
CENTER
10
123.080000
20
260.300000
30
0.0
11
125.343000
21
260.300000
31
0.0
0
LINE
8
CENTER
10
126.057000
20
260.300000
30
0.0
11
128.320000
21
260.300000
31
0.0
0
LINE
8
CENTER
10
125.700000
20
257.680000
30
0.0
11
125.700000
21
259.943000
31
0.0
0
LINE
8
CENTER
10
125.700000
20
260.657000
30
0.0
11
125.700000
21
262.920000
31
0.0
0
LINE
8
CENTER
10
128.160000
20
260.300000
30
0.0
11
130.423000
21
260.300000
31
0.0
0
LINE
8
CENTER
10
131.137000
20
260.300000
30
0.0
11
133.400000
21
260.300000
31
0.0
0
LINE
8
CENTER
10
130.780000
20
257.680000
30
0.0
11
130.780000
21
259.943000
31
0.0
0
LINE
8
CENTER
10
130.780000
20
260.657000
30
0.0
11
130.780000
21
262.920000
31
0.0
0
LINE
8
CENTER
10
133.240000
20
260.300000
30
0.0
11
135.503000
21
260.300000
31
0.0
0
LINE
8
CENTER
10
136.217000
20
260.300000
30
0.0
11
138.480000
21
260.300000
31
0.0
0
LINE
8
CENTER
10
135.860000
20
257.680000
30
0.0
11
135.860000
21
259.943000
31
0.0
0
LINE
8
CENTER
10
135.860000
20
260.657000
30
0.0
11
135.860000
21
262.920000
31
0.0
0
LINE
8
CENTER
10
138.320000
20
260.300000
30
0.0
11
140.583000
21
260.300000
31
0.0
0
LINE
8
CENTER
10
141.297000
20
260.300000
30
0.0
11
143.560000
21
260.300000
31
0.0
0
LINE
8
CENTER
10
140.940000
20
257.680000
30
0.0
11
140.940000
21
259.943000
31
0.0
0
LINE
8
CENTER
10
140.940000
20
260.657000
30
0.0
11
140.940000
21
262.920000
31
0.0
0
LINE
8
CENTER
10
143.400000
20
260.300000
30
0.0
11
145.663000
21
260.300000
31
0.0
0
LINE
8
CENTER
10
146.377000
20
260.300000
30
0.0
11
148.640000
21
260.300000
31
0.0
0
LINE
8
CENTER
10
146.020000
20
257.680000
30
0.0
11
146.020000
21
259.943000
31
0.0
0
LINE
8
CENTER
10
146.020000
20
260.657000
30
0.0
11
146.020000
21
262.920000
31
0.0
0
LINE
8
CENTER
10
148.480000
20
260.300000
30
0.0
11
150.743000
21
260.300000
31
0.0
0
LINE
8
CENTER
10
151.457000
20
260.300000
30
0.0
11
153.720000
21
260.300000
31
0.0
0
LINE
8
CENTER
10
151.100000
20
257.680000
30
0.0
11
151.100000
21
259.943000
31
0.0
0
LINE
8
CENTER
10
151.100000
20
260.657000
30
0.0
11
151.100000
21
262.920000
31
0.0
0
LINE
8
CENTER
10
153.560000
20
260.300000
30
0.0
11
155.823000
21
260.300000
31
0.0
0
LINE
8
CENTER
10
156.537000
20
260.300000
30
0.0
11
158.800000
21
260.300000
31
0.0
0
LINE
8
CENTER
10
156.180000
20
257.680000
30
0.0
11
156.180000
21
259.943000
31
0.0
0
LINE
8
CENTER
10
156.180000
20
260.657000
30
0.0
11
156.180000
21
262.920000
31
0.0
0
LINE
8
CENTER
10
158.640000
20
260.300000
30
0.0
11
160.903000
21
260.300000
31
0.0
0
LINE
8
CENTER
10
161.617000
20
260.300000
30
0.0
11
163.880000
21
260.300000
31
0.0
0
LINE
8
CENTER
10
161.260000
20
257.680000
30
0.0
11
161.260000
21
259.943000
31
0.0
0
LINE
8
CENTER
10
161.260000
20
260.657000
30
0.0
11
161.260000
21
262.920000
31
0.0
0
LINE
8
CENTER
10
163.720000
20
260.300000
30
0.0
11
165.983000
21
260.300000
31
0.0
0
LINE
8
CENTER
10
166.697000
20
260.300000
30
0.0
11
168.960000
21
260.300000
31
0.0
0
LINE
8
CENTER
10
166.340000
20
257.680000
30
0.0
11
166.340000
21
259.943000
31
0.0
0
LINE
8
CENTER
10
166.340000
20
260.657000
30
0.0
11
166.340000
21
262.920000
31
0.0
0
LINE
8
CENTER
10
168.800000
20
260.300000
30
0.0
11
171.063000
21
260.300000
31
0.0
0
LINE
8
CENTER
10
171.777000
20
260.300000
30
0.0
11
174.040000
21
260.300000
31
0.0
0
LINE
8
CENTER
10
171.420000
20
257.680000
30
0.0
11
171.420000
21
259.943000
31
0.0
0
LINE
8
CENTER
10
171.420000
20
260.657000
30
0.0
11
171.420000
21
262.920000
31
0.0
0
LINE
8
CENTER
10
173.880000
20
260.300000
30
0.0
11
176.143000
21
260.300000
31
0.0
0
LINE
8
CENTER
10
176.857000
20
260.300000
30
0.0
11
179.120000
21
260.300000
31
0.0
0
LINE
8
CENTER
10
176.500000
20
257.680000
30
0.0
11
176.500000
21
259.943000
31
0.0
0
LINE
8
CENTER
10
176.500000
20
260.657000
30
0.0
11
176.500000
21
262.920000
31
0.0
0
LINE
8
CENTER
10
178.960000
20
260.300000
30
0.0
11
181.223000
21
260.300000
31
0.0
0
LINE
8
CENTER
10
181.937000
20
260.300000
30
0.0
11
184.200000
21
260.300000
31
0.0
0
LINE
8
CENTER
10
181.580000
20
257.680000
30
0.0
11
181.580000
21
259.943000
31
0.0
0
LINE
8
CENTER
10
181.580000
20
260.657000
30
0.0
11
181.580000
21
262.920000
31
0.0
0
LINE
8
CENTER
10
184.040000
20
260.300000
30
0.0
11
186.303000
21
260.300000
31
0.0
0
LINE
8
CENTER
10
187.017000
20
260.300000
30
0.0
11
189.280000
21
260.300000
31
0.0
0
LINE
8
CENTER
10
186.660000
20
257.680000
30
0.0
11
186.660000
21
259.943000
31
0.0
0
LINE
8
CENTER
10
186.660000
20
260.657000
30
0.0
11
186.660000
21
262.920000
31
0.0
0
LINE
8
CENTER
10
189.120000
20
260.300000
30
0.0
11
191.383000
21
260.300000
31
0.0
0
LINE
8
CENTER
10
192.097000
20
260.300000
30
0.0
11
194.360000
21
260.300000
31
0.0
0
LINE
8
CENTER
10
191.740000
20
257.680000
30
0.0
11
191.740000
21
259.943000
31
0.0
0
LINE
8
CENTER
10
191.740000
20
260.657000
30
0.0
11
191.740000
21
262.920000
31
0.0
0
LINE
8
CENTER
10
194.200000
20
260.300000
30
0.0
11
196.463000
21
260.300000
31
0.0
0
LINE
8
CENTER
10
197.177000
20
260.300000
30
0.0
11
199.440000
21
260.300000
31
0.0
0
LINE
8
CENTER
10
196.820000
20
257.680000
30
0.0
11
196.820000
21
259.943000
31
0.0
0
LINE
8
CENTER
10
196.820000
20
260.657000
30
0.0
11
196.820000
21
262.920000
31
0.0
0
LINE
8
CENTER
10
199.280000
20
260.300000
30
0.0
11
201.543000
21
260.300000
31
0.0
0
LINE
8
CENTER
10
202.257000
20
260.300000
30
0.0
11
204.520000
21
260.300000
31
0.0
0
LINE
8
CENTER
10
201.900000
20
257.680000
30
0.0
11
201.900000
21
259.943000
31
0.0
0
LINE
8
CENTER
10
201.900000
20
260.657000
30
0.0
11
201.900000
21
262.920000
31
0.0
0
LINE
8
CENTER
10
204.360000
20
260.300000
30
0.0
11
206.623000
21
260.300000
31
0.0
0
LINE
8
CENTER
10
207.337000
20
260.300000
30
0.0
11
209.600000
21
260.300000
31
0.0
0
LINE
8
CENTER
10
206.980000
20
257.680000
30
0.0
11
206.980000
21
259.943000
31
0.0
0
LINE
8
CENTER
10
206.980000
20
260.657000
30
0.0
11
206.980000
21
262.920000
31
0.0
0
LINE
8
CENTER
10
209.440000
20
260.300000
30
0.0
11
211.703000
21
260.300000
31
0.0
0
LINE
8
CENTER
10
212.417000
20
260.300000
30
0.0
11
214.680000
21
260.300000
31
0.0
0
LINE
8
CENTER
10
212.060000
20
257.680000
30
0.0
11
212.060000
21
259.943000
31
0.0
0
LINE
8
CENTER
10
212.060000
20
260.657000
30
0.0
11
212.060000
21
262.920000
31
0.0
0
LINE
8
CENTER
10
214.520000
20
260.300000
30
0.0
11
216.783000
21
260.300000
31
0.0
0
LINE
8
CENTER
10
217.497000
20
260.300000
30
0.0
11
219.760000
21
260.300000
31
0.0
0
LINE
8
CENTER
10
217.140000
20
257.680000
30
0.0
11
217.140000
21
259.943000
31
0.0
0
LINE
8
CENTER
10
217.140000
20
260.657000
30
0.0
11
217.140000
21
262.920000
31
0.0
0
LINE
8
CENTER
10
219.600000
20
260.300000
30
0.0
11
221.863000
21
260.300000
31
0.0
0
LINE
8
CENTER
10
222.577000
20
260.300000
30
0.0
11
224.840000
21
260.300000
31
0.0
0
LINE
8
CENTER
10
222.220000
20
257.680000
30
0.0
11
222.220000
21
259.943000
31
0.0
0
LINE
8
CENTER
10
222.220000
20
260.657000
30
0.0
11
222.220000
21
262.920000
31
0.0
0
LINE
8
CENTER
10
175.760000
20
239.040000
30
0.0
11
178.010000
21
239.040000
31
0.0
0
LINE
8
CENTER
10
178.710000
20
239.040000
30
0.0
11
180.960000
21
239.040000
31
0.0
0
LINE
8
CENTER
10
178.360000
20
236.440000
30
0.0
11
178.360000
21
238.690000
31
0.0
0
LINE
8
CENTER
10
178.360000
20
239.390000
30
0.0
11
178.360000
21
241.640000
31
0.0
0
LINE
8
CENTER
10
220.410000
20
237.940000
30
0.0
11
222.627500
21
237.940000
31
0.0
0
LINE
8
CENTER
10
223.292500
20
237.940000
30
0.0
11
225.510000
21
237.940000
31
0.0
0
LINE
8
CENTER
10
222.960000
20
235.390000
30
0.0
11
222.960000
21
237.607500
31
0.0
0
LINE
8
CENTER
10
222.960000
20
238.272500
30
0.0
11
222.960000
21
240.490000
31
0.0
0
LINE
8
CENTER
10
230.010000
20
237.940000
30
0.0
11
232.227500
21
237.940000
31
0.0
0
LINE
8
CENTER
10
232.892500
20
237.940000
30
0.0
11
235.110000
21
237.940000
31
0.0
0
LINE
8
CENTER
10
232.560000
20
235.390000
30
0.0
11
232.560000
21
237.607500
31
0.0
0
LINE
8
CENTER
10
232.560000
20
238.272500
30
0.0
11
232.560000
21
240.490000
31
0.0
0
LINE
8
CENTER
10
220.410000
20
232.940000
30
0.0
11
222.627500
21
232.940000
31
0.0
0
LINE
8
CENTER
10
223.292500
20
232.940000
30
0.0
11
225.510000
21
232.940000
31
0.0
0
LINE
8
CENTER
10
222.960000
20
230.390000
30
0.0
11
222.960000
21
232.607500
31
0.0
0
LINE
8
CENTER
10
222.960000
20
233.272500
30
0.0
11
222.960000
21
235.490000
31
0.0
0
LINE
8
CENTER
10
230.010000
20
232.940000
30
0.0
11
232.227500
21
232.940000
31
0.0
0
LINE
8
CENTER
10
232.892500
20
232.940000
30
0.0
11
235.110000
21
232.940000
31
0.0
0
LINE
8
CENTER
10
232.560000
20
230.390000
30
0.0
11
232.560000
21
232.607500
31
0.0
0
LINE
8
CENTER
10
232.560000
20
233.272500
30
0.0
11
232.560000
21
235.490000
31
0.0
0
LINE
8
CENTER
10
201.110000
20
231.840000
30
0.0
11
203.327500
21
231.840000
31
0.0
0
LINE
8
CENTER
10
203.992500
20
231.840000
30
0.0
11
206.210000
21
231.840000
31
0.0
0
LINE
8
CENTER
10
203.660000
20
229.290000
30
0.0
11
203.660000
21
231.507500
31
0.0
0
LINE
8
CENTER
10
203.660000
20
232.172500
30
0.0
11
203.660000
21
234.390000
31
0.0
0
LINE
8
CENTER
10
210.710000
20
231.840000
30
0.0
11
212.927500
21
231.840000
31
0.0
0
LINE
8
CENTER
10
213.592500
20
231.840000
30
0.0
11
215.810000
21
231.840000
31
0.0
0
LINE
8
CENTER
10
213.260000
20
229.290000
30
0.0
11
213.260000
21
231.507500
31
0.0
0
LINE
8
CENTER
10
213.260000
20
232.172500
30
0.0
11
213.260000
21
234.390000
31
0.0
0
LINE
8
CENTER
10
220.410000
20
227.940000
30
0.0
11
222.627500
21
227.940000
31
0.0
0
LINE
8
CENTER
10
223.292500
20
227.940000
30
0.0
11
225.510000
21
227.940000
31
0.0
0
LINE
8
CENTER
10
222.960000
20
225.390000
30
0.0
11
222.960000
21
227.607500
31
0.0
0
LINE
8
CENTER
10
222.960000
20
228.272500
30
0.0
11
222.960000
21
230.490000
31
0.0
0
LINE
8
CENTER
10
230.010000
20
227.940000
30
0.0
11
232.227500
21
227.940000
31
0.0
0
LINE
8
CENTER
10
232.892500
20
227.940000
30
0.0
11
235.110000
21
227.940000
31
0.0
0
LINE
8
CENTER
10
232.560000
20
225.390000
30
0.0
11
232.560000
21
227.607500
31
0.0
0
LINE
8
CENTER
10
232.560000
20
228.272500
30
0.0
11
232.560000
21
230.490000
31
0.0
0
LINE
8
CENTER
10
201.110000
20
226.840000
30
0.0
11
203.327500
21
226.840000
31
0.0
0
LINE
8
CENTER
10
203.992500
20
226.840000
30
0.0
11
206.210000
21
226.840000
31
0.0
0
LINE
8
CENTER
10
203.660000
20
224.290000
30
0.0
11
203.660000
21
226.507500
31
0.0
0
LINE
8
CENTER
10
203.660000
20
227.172500
30
0.0
11
203.660000
21
229.390000
31
0.0
0
LINE
8
CENTER
10
210.710000
20
226.840000
30
0.0
11
212.927500
21
226.840000
31
0.0
0
LINE
8
CENTER
10
213.592500
20
226.840000
30
0.0
11
215.810000
21
226.840000
31
0.0
0
LINE
8
CENTER
10
213.260000
20
224.290000
30
0.0
11
213.260000
21
226.507500
31
0.0
0
LINE
8
CENTER
10
213.260000
20
227.172500
30
0.0
11
213.260000
21
229.390000
31
0.0
0
LINE
8
CENTER
10
201.110000
20
221.840000
30
0.0
11
203.327500
21
221.840000
31
0.0
0
LINE
8
CENTER
10
203.992500
20
221.840000
30
0.0
11
206.210000
21
221.840000
31
0.0
0
LINE
8
CENTER
10
203.660000
20
219.290000
30
0.0
11
203.660000
21
221.507500
31
0.0
0
LINE
8
CENTER
10
203.660000
20
222.172500
30
0.0
11
203.660000
21
224.390000
31
0.0
0
LINE
8
CENTER
10
210.710000
20
221.840000
30
0.0
11
212.927500
21
221.840000
31
0.0
0
LINE
8
CENTER
10
213.592500
20
221.840000
30
0.0
11
215.810000
21
221.840000
31
0.0
0
LINE
8
CENTER
10
213.260000
20
219.290000
30
0.0
11
213.260000
21
221.507500
31
0.0
0
LINE
8
CENTER
10
213.260000
20
222.172500
30
0.0
11
213.260000
21
224.390000
31
0.0
0
LINE
8
CENTER
10
111.660000
20
216.840000
30
0.0
11
115.015000
21
216.840000
31
0.0
0
LINE
8
CENTER
10
116.905000
20
216.840000
30
0.0
11
120.260000
21
216.840000
31
0.0
0
LINE
8
CENTER
10
115.960000
20
212.540000
30
0.0
11
115.960000
21
215.895000
31
0.0
0
LINE
8
CENTER
10
115.960000
20
217.785000
30
0.0
11
115.960000
21
221.140000
31
0.0
0
LINE
8
CENTER
10
201.110000
20
216.840000
30
0.0
11
203.327500
21
216.840000
31
0.0
0
LINE
8
CENTER
10
203.992500
20
216.840000
30
0.0
11
206.210000
21
216.840000
31
0.0
0
LINE
8
CENTER
10
203.660000
20
214.290000
30
0.0
11
203.660000
21
216.507500
31
0.0
0
LINE
8
CENTER
10
203.660000
20
217.172500
30
0.0
11
203.660000
21
219.390000
31
0.0
0
LINE
8
CENTER
10
210.710000
20
216.840000
30
0.0
11
212.927500
21
216.840000
31
0.0
0
LINE
8
CENTER
10
213.592500
20
216.840000
30
0.0
11
215.810000
21
216.840000
31
0.0
0
LINE
8
CENTER
10
213.260000
20
214.290000
30
0.0
11
213.260000
21
216.507500
31
0.0
0
LINE
8
CENTER
10
213.260000
20
217.172500
30
0.0
11
213.260000
21
219.390000
31
0.0
0
LINE
8
CENTER
10
227.660000
20
216.840000
30
0.0
11
231.015000
21
216.840000
31
0.0
0
LINE
8
CENTER
10
232.905000
20
216.840000
30
0.0
11
236.260000
21
216.840000
31
0.0
0
LINE
8
CENTER
10
231.960000
20
212.540000
30
0.0
11
231.960000
21
215.895000
31
0.0
0
LINE
8
CENTER
10
231.960000
20
217.785000
30
0.0
11
231.960000
21
221.140000
31
0.0
0
LINE
8
DIM
10
108.920000
20
208.600000
30
0.0
11
108.920000
21
186.800000
31
0.0
0
LINE
8
DIM
10
239.000000
20
208.600000
30
0.0
11
239.000000
21
186.800000
31
0.0
0
LINE
8
DIM
10
108.920000
20
188.800000
30
0.0
11
239.000000
21
188.800000
31
0.0
0
SOLID
8
DIM
10
108.920000
20
188.800000
30
0.0
11
112.120000
21
188.192000
31
0.0
12
112.120000
22
189.408000
32
0.0
13
112.120000
23
189.408000
33
0.0
0
SOLID
8
DIM
10
239.000000
20
188.800000
30
0.0
11
235.800000
21
189.408000
31
0.0
12
235.800000
22
188.192000
32
0.0
13
235.800000
23
188.192000
33
0.0
0
TEXT
8
TEXT
10
173.960000
20
189.800000
30
0.0
40
2.5000
1
65.04
72
1
73
0
11
173.960000
21
189.800000
31
0.0
0
LINE
8
DIM
10
107.720000
20
209.800000
30
0.0
11
85.920000
21
209.800000
31
0.0
0
LINE
8
DIM
10
107.720000
20
269.880000
30
0.0
11
85.920000
21
269.880000
31
0.0
0
LINE
8
DIM
10
87.920000
20
209.800000
30
0.0
11
87.920000
21
269.880000
31
0.0
0
SOLID
8
DIM
10
87.920000
20
209.800000
30
0.0
11
88.528000
21
213.000000
31
0.0
12
87.312000
22
213.000000
32
0.0
13
87.312000
23
213.000000
33
0.0
0
SOLID
8
DIM
10
87.920000
20
269.880000
30
0.0
11
87.312000
21
266.680000
31
0.0
12
88.528000
22
266.680000
32
0.0
13
88.528000
23
266.680000
33
0.0
0
TEXT
8
TEXT
10
86.920000
20
239.840000
30
0.0
40
2.5000
1
30.04
50
90.0000
72
1
73
0
11
86.920000
21
239.840000
31
0.0
0
SOLID
8
DIM
10
126.327975
20
266.183771
30
0.0
11
128.777202
21
268.331083
31
0.0
12
127.818981
22
269.079728
32
0.0
13
127.818981
23
269.079728
33
0.0
0
LINE
8
DIM
10
126.327975
20
266.183771
30
0.0
11
134.684785
21
276.880000
31
0.0
0
LINE
8
DIM
10
134.684785
20
276.880000
30
0.0
11
139.684785
21
276.880000
31
0.0
0
TEXT
8
TEXT
10
140.484785
20
277.880000
30
0.0
40
2.5000
1
40x Ø1.02 THRU
0
SOLID
8
DIM
10
223.544878
20
238.688610
30
0.0
11
225.994106
21
240.835922
31
0.0
12
225.035885
22
241.584567
32
0.0
13
225.035885
23
241.584567
33
0.0
0
LINE
8
DIM
10
223.544878
20
238.688610
30
0.0
11
258.168637
21
283.005000
31
0.0
0
LINE
8
DIM
10
258.168637
20
283.005000
30
0.0
11
263.168637
21
283.005000
31
0.0
0
TEXT
8
TEXT
10
263.968637
20
284.005000
30
0.0
40
2.5000
1
14x Ø0.95 THRU
0
SOLID
8
DIM
10
117.622286
20
264.967629
30
0.0
11
120.071513
21
267.114941
31
0.0
12
119.113292
22
267.863586
32
0.0
13
119.113292
23
267.863586
33
0.0
0
LINE
8
DIM
10
117.622286
20
264.967629
30
0.0
11
136.499999
21
289.130000
31
0.0
0
LINE
8
DIM
10
136.499999
20
289.130000
30
0.0
11
141.499999
21
289.130000
31
0.0
0
TEXT
8
TEXT
10
142.299999
20
290.130000
30
0.0
40
2.5000
1
4x Ø2.70 THRU
0
SOLID
8
DIM
10
129.471323
20
264.416022
30
0.0
11
131.920550
21
266.563334
31
0.0
12
130.962329
22
267.311978
32
0.0
13
130.962329
23
267.311978
33
0.0
0
LINE
8
DIM
10
129.471323
20
264.416022
30
0.0
11
153.565374
21
295.255000
31
0.0
0
LINE
8
DIM
10
153.565374
20
295.255000
30
0.0
11
158.565374
21
295.255000
31
0.0
0
TEXT
8
TEXT
10
159.365374
20
296.255000
30
0.0
40
2.5000
1
2x Ø2.00 THRU
0
SOLID
8
DIM
10
178.975661
20
239.828011
30
0.0
11
181.424889
21
241.975323
31
0.0
12
180.466668
22
242.723967
32
0.0
13
180.466668
23
242.723967
33
0.0
0
LINE
8
DIM
10
178.975661
20
239.828011
30
0.0
11
227.065346
21
301.380000
31
0.0
0
LINE
8
DIM
10
227.065346
20
301.380000
30
0.0
11
232.065346
21
301.380000
31
0.0
0
TEXT
8
TEXT
10
232.865346
20
302.380000
30
0.0
40
2.5000
1
Ø1.00 THRU
0
LINE
8
DIM
10
115.960000
20
261.640000
30
0.0
11
115.960000
21
179.800000
31
0.0
0
LINE
8
DIM
10
231.960000
20
261.640000
30
0.0
11
231.960000
21
179.800000
31
0.0
0
LINE
8
DIM
10
115.960000
20
181.800000
30
0.0
11
231.960000
21
181.800000
31
0.0
0
SOLID
8
DIM
10
115.960000
20
181.800000
30
0.0
11
119.160000
21
181.192000
31
0.0
12
119.160000
22
182.408000
32
0.0
13
119.160000
23
182.408000
33
0.0
0
SOLID
8
DIM
10
231.960000
20
181.800000
30
0.0
11
228.760000
21
182.408000
31
0.0
12
228.760000
22
181.192000
32
0.0
13
228.760000
23
181.192000
33
0.0
0
TEXT
8
TEXT
10
173.960000
20
182.800000
30
0.0
40
2.5000
1
58.00
72
1
73
0
11
173.960000
21
182.800000
31
0.0
0
TEXT
8
TEXT
10
173.960000
20
169.800000
30
0.0
40
4.0000
1
TOP VIEW
72
1
73
0
11
173.960000
21
169.800000
31
0.0
0
LINE
8
TEXT
10
164.360000
20
168.200000
30
0.0
11
183.560000
21
168.200000
31
0.0
0
TEXT
8
TEXT
10
173.960000
20
163.800000
30
0.0
40
2.4000
1
X →   Y ↑
72
1
73
0
11
173.960000
21
163.800000
31
0.0
0
LINE
8
DIM
10
108.920000
20
148.920000
30
0.0
11
108.920000
21
136.120000
31
0.0
0
LINE
8
DIM
10
239.000000
20
148.920000
30
0.0
11
239.000000
21
136.120000
31
0.0
0
LINE
8
DIM
10
108.920000
20
138.120000
30
0.0
11
239.000000
21
138.120000
31
0.0
0
SOLID
8
DIM
10
108.920000
20
138.120000
30
0.0
11
112.120000
21
137.512000
31
0.0
12
112.120000
22
138.728000
32
0.0
13
112.120000
23
138.728000
33
0.0
0
SOLID
8
DIM
10
239.000000
20
138.120000
30
0.0
11
235.800000
21
138.728000
31
0.0
12
235.800000
22
137.512000
32
0.0
13
235.800000
23
137.512000
33
0.0
0
TEXT
8
TEXT
10
173.960000
20
139.120000
30
0.0
40
2.5000
1
65.04
72
1
73
0
11
173.960000
21
139.120000
31
0.0
0
LINE
8
DIM
10
107.720000
20
150.120000
30
0.0
11
94.920000
21
150.120000
31
0.0
0
LINE
8
DIM
10
107.720000
20
151.800000
30
0.0
11
94.920000
21
151.800000
31
0.0
0
LINE
8
DIM
10
96.920000
20
150.120000
30
0.0
11
96.920000
21
151.800000
31
0.0
0
SOLID
8
DIM
10
96.920000
20
150.120000
30
0.0
11
96.312000
21
146.920000
31
0.0
12
97.528000
22
146.920000
32
0.0
13
97.528000
23
146.920000
33
0.0
0
SOLID
8
DIM
10
96.920000
20
151.800000
30
0.0
11
97.528000
21
155.000000
31
0.0
12
96.312000
22
155.000000
32
0.0
13
96.312000
23
155.000000
33
0.0
0
LINE
8
DIM
10
96.920000
20
151.800000
30
0.0
11
96.920000
21
161.400000
31
0.0
0
TEXT
8
TEXT
10
95.920000
20
162.200000
30
0.0
40
2.5000
1
0.84
50
90.0000
0
TEXT
8
TEXT
10
173.960000
20
126.120000
30
0.0
40
4.0000
1
FRONT VIEW
72
1
73
0
11
173.960000
21
126.120000
31
0.0
0
LINE
8
TEXT
10
161.960000
20
124.520000
30
0.0
11
185.960000
21
124.520000
31
0.0
0
TEXT
8
TEXT
10
173.960000
20
120.120000
30
0.0
40
2.4000
1
-X →   Z ↑
72
1
73
0
11
173.960000
21
120.120000
31
0.0
0
LINE
8
DIM
10
277.000000
20
237.800000
30
0.0
11
277.000000
21
225.000000
31
0.0
0
LINE
8
DIM
10
407.080000
20
237.800000
30
0.0
11
407.080000
21
225.000000
31
0.0
0
LINE
8
DIM
10
277.000000
20
227.000000
30
0.0
11
407.080000
21
227.000000
31
0.0
0
SOLID
8
DIM
10
277.000000
20
227.000000
30
0.0
11
280.200000
21
226.392000
31
0.0
12
280.200000
22
227.608000
32
0.0
13
280.200000
23
227.608000
33
0.0
0
SOLID
8
DIM
10
407.080000
20
227.000000
30
0.0
11
403.880000
21
227.608000
31
0.0
12
403.880000
22
226.392000
32
0.0
13
403.880000
23
226.392000
33
0.0
0
TEXT
8
TEXT
10
342.040000
20
228.000000
30
0.0
40
2.5000
1
65.04
72
1
73
0
11
342.040000
21
228.000000
31
0.0
0
LINE
8
DIM
10
275.800000
20
239.000000
30
0.0
11
263.000000
21
239.000000
31
0.0
0
LINE
8
DIM
10
275.800000
20
240.680000
30
0.0
11
263.000000
21
240.680000
31
0.0
0
LINE
8
DIM
10
265.000000
20
239.000000
30
0.0
11
265.000000
21
240.680000
31
0.0
0
SOLID
8
DIM
10
265.000000
20
239.000000
30
0.0
11
264.392000
21
235.800000
31
0.0
12
265.608000
22
235.800000
32
0.0
13
265.608000
23
235.800000
33
0.0
0
SOLID
8
DIM
10
265.000000
20
240.680000
30
0.0
11
265.608000
21
243.880000
31
0.0
12
264.392000
22
243.880000
32
0.0
13
264.392000
23
243.880000
33
0.0
0
LINE
8
DIM
10
265.000000
20
240.680000
30
0.0
11
265.000000
21
250.280000
31
0.0
0
TEXT
8
TEXT
10
264.000000
20
251.080000
30
0.0
40
2.5000
1
0.84
50
90.0000
0
LINE
8
HATCH
10
283.124355
20
239.000000
30
0.0
11
283.124358
21
239.000003
31
0.0
0
LINE
8
HATCH
10
278.881715
20
239.000000
30
0.0
11
280.561715
21
240.680000
31
0.0
0
LINE
8
HATCH
10
407.079997
20
239.000000
30
0.0
11
407.080000
21
239.000003
31
0.0
0
LINE
8
HATCH
10
402.837356
20
239.000000
30
0.0
11
404.517356
21
240.680000
31
0.0
0
LINE
8
HATCH
10
399.124355
20
239.000000
30
0.0
11
399.124358
21
239.000003
31
0.0
0
LINE
8
HATCH
10
394.881715
20
239.000000
30
0.0
11
396.561715
21
240.680000
31
0.0
0
LINE
8
HATCH
10
391.320000
20
239.680926
30
0.0
11
392.319074
21
240.680000
31
0.0
0
LINE
8
HATCH
10
389.279997
20
239.000000
30
0.0
11
389.280000
21
239.000003
31
0.0
0
LINE
8
HATCH
10
386.240000
20
240.202644
30
0.0
11
386.717356
21
240.680000
31
0.0
0
LINE
8
HATCH
10
384.199997
20
239.000000
30
0.0
11
384.200000
21
239.000003
31
0.0
0
LINE
8
HATCH
10
381.160000
20
240.202644
30
0.0
11
381.637356
21
240.680000
31
0.0
0
LINE
8
HATCH
10
379.119997
20
239.000000
30
0.0
11
379.120000
21
239.000003
31
0.0
0
LINE
8
HATCH
10
376.080000
20
240.202644
30
0.0
11
376.557356
21
240.680000
31
0.0
0
LINE
8
HATCH
10
374.039997
20
239.000000
30
0.0
11
374.040000
21
239.000003
31
0.0
0
LINE
8
HATCH
10
371.000000
20
240.202644
30
0.0
11
371.477356
21
240.680000
31
0.0
0
LINE
8
HATCH
10
368.959997
20
239.000000
30
0.0
11
368.960000
21
239.000003
31
0.0
0
LINE
8
HATCH
10
365.920000
20
240.202644
30
0.0
11
366.397356
21
240.680000
31
0.0
0
LINE
8
HATCH
10
363.879997
20
239.000000
30
0.0
11
363.880000
21
239.000003
31
0.0
0
LINE
8
HATCH
10
360.840000
20
240.202644
30
0.0
11
361.317356
21
240.680000
31
0.0
0
LINE
8
HATCH
10
358.799997
20
239.000000
30
0.0
11
358.800000
21
239.000003
31
0.0
0
LINE
8
HATCH
10
355.760000
20
240.202644
30
0.0
11
356.237356
21
240.680000
31
0.0
0
LINE
8
HATCH
10
353.719997
20
239.000000
30
0.0
11
353.720000
21
239.000003
31
0.0
0
LINE
8
HATCH
10
350.680000
20
240.202644
30
0.0
11
351.157356
21
240.680000
31
0.0
0
LINE
8
HATCH
10
348.639997
20
239.000000
30
0.0
11
348.640000
21
239.000003
31
0.0
0
LINE
8
HATCH
10
345.600000
20
240.202644
30
0.0
11
346.077356
21
240.680000
31
0.0
0
LINE
8
HATCH
10
343.559997
20
239.000000
30
0.0
11
343.560000
21
239.000003
31
0.0
0
LINE
8
HATCH
10
340.520000
20
240.202644
30
0.0
11
340.997356
21
240.680000
31
0.0
0
LINE
8
HATCH
10
338.479997
20
239.000000
30
0.0
11
338.480000
21
239.000003
31
0.0
0
LINE
8
HATCH
10
335.440000
20
240.202644
30
0.0
11
335.917356
21
240.680000
31
0.0
0
LINE
8
HATCH
10
333.399997
20
239.000000
30
0.0
11
333.400000
21
239.000003
31
0.0
0
LINE
8
HATCH
10
330.360000
20
240.202644
30
0.0
11
330.837356
21
240.680000
31
0.0
0
LINE
8
HATCH
10
328.319997
20
239.000000
30
0.0
11
328.320000
21
239.000003
31
0.0
0
LINE
8
HATCH
10
325.280000
20
240.202644
30
0.0
11
325.757356
21
240.680000
31
0.0
0
LINE
8
HATCH
10
323.239997
20
239.000000
30
0.0
11
323.240000
21
239.000003
31
0.0
0
LINE
8
HATCH
10
320.200000
20
240.202644
30
0.0
11
320.677356
21
240.680000
31
0.0
0
LINE
8
HATCH
10
318.159997
20
239.000000
30
0.0
11
318.160000
21
239.000003
31
0.0
0
LINE
8
HATCH
10
315.120000
20
240.202644
30
0.0
11
315.597356
21
240.680000
31
0.0
0
LINE
8
HATCH
10
313.079997
20
239.000000
30
0.0
11
313.080000
21
239.000003
31
0.0
0
LINE
8
HATCH
10
310.040000
20
240.202644
30
0.0
11
310.517356
21
240.680000
31
0.0
0
LINE
8
HATCH
10
307.999997
20
239.000000
30
0.0
11
308.000000
21
239.000003
31
0.0
0
LINE
8
HATCH
10
304.960000
20
240.202644
30
0.0
11
305.437356
21
240.680000
31
0.0
0
LINE
8
HATCH
10
302.919997
20
239.000000
30
0.0
11
302.920000
21
239.000003
31
0.0
0
LINE
8
HATCH
10
299.880000
20
240.202644
30
0.0
11
300.357356
21
240.680000
31
0.0
0
LINE
8
HATCH
10
297.839997
20
239.000000
30
0.0
11
297.840000
21
239.000003
31
0.0
0
LINE
8
HATCH
10
294.800000
20
240.202644
30
0.0
11
295.277356
21
240.680000
31
0.0
0
LINE
8
HATCH
10
292.759997
20
239.000000
30
0.0
11
292.760000
21
239.000003
31
0.0
0
LINE
8
HATCH
10
288.517356
20
239.000000
30
0.0
11
290.197356
21
240.680000
31
0.0
0
LINE
8
HATCH
10
284.955642
20
239.680926
30
0.0
11
285.954716
21
240.680000
31
0.0
0
LINE
8
DIM
10
283.078002
20
239.000000
30
0.0
11
418.080000
21
239.000000
31
0.0
0
LINE
8
DIM
10
283.078002
20
240.680000
30
0.0
11
418.080000
21
240.680000
31
0.0
0
LINE
8
DIM
10
416.080000
20
239.000000
30
0.0
11
416.080000
21
240.680000
31
0.0
0
SOLID
8
DIM
10
416.080000
20
239.000000
30
0.0
11
415.472000
21
235.800000
31
0.0
12
416.688000
22
235.800000
32
0.0
13
416.688000
23
235.800000
33
0.0
0
SOLID
8
DIM
10
416.080000
20
240.680000
30
0.0
11
416.688000
21
243.880000
31
0.0
12
415.472000
22
243.880000
32
0.0
13
415.472000
23
243.880000
33
0.0
0
LINE
8
DIM
10
416.080000
20
240.680000
30
0.0
11
416.080000
21
250.280000
31
0.0
0
TEXT
8
TEXT
10
415.080000
20
251.080000
30
0.0
40
2.5000
1
0.84 WALL
50
90.0000
0
LINE
8
DIM
10
350.680000
20
240.214002
30
0.0
11
350.680000
21
249.680000
31
0.0
0
LINE
8
DIM
10
353.720000
20
240.214002
30
0.0
11
353.720000
21
249.680000
31
0.0
0
LINE
8
DIM
10
350.680000
20
247.680000
30
0.0
11
353.720000
21
247.680000
31
0.0
0
SOLID
8
DIM
10
350.680000
20
247.680000
30
0.0
11
347.480000
21
248.288000
31
0.0
12
347.480000
22
247.072000
32
0.0
13
347.480000
23
247.072000
33
0.0
0
SOLID
8
DIM
10
353.720000
20
247.680000
30
0.0
11
356.920000
21
247.072000
31
0.0
12
356.920000
22
248.288000
32
0.0
13
356.920000
23
248.288000
33
0.0
0
LINE
8
DIM
10
353.720000
20
247.680000
30
0.0
11
363.320000
21
247.680000
31
0.0
0
TEXT
8
TEXT
10
364.120000
20
248.080000
30
0.0
40
2.5000
1
1.52 WALL
0
TEXT
8
TEXT
10
342.040000
20
215.000000
30
0.0
40
4.0000
1
SECTION A-A
72
1
73
0
11
342.040000
21
215.000000
31
0.0
0
LINE
8
TEXT
10
328.840000
20
213.400000
30
0.0
11
355.240000
21
213.400000
31
0.0
0
LINE
8
CUT
10
99.920000
20
260.300000
30
0.0
11
113.920000
21
260.300000
31
0.0
0
LINE
8
CUTTHIN
10
113.920000
20
260.300000
30
0.0
11
234.000000
21
260.300000
31
0.0
0
LINE
8
CUT
10
234.000000
20
260.300000
30
0.0
11
248.000000
21
260.300000
31
0.0
0
LINE
8
CUT
10
99.920000
20
260.300000
30
0.0
11
99.920000
21
251.300000
31
0.0
0
SOLID
8
CUT
10
99.920000
20
251.300000
30
0.0
11
100.718000
21
255.500000
31
0.0
12
99.122000
22
255.500000
32
0.0
13
99.122000
23
255.500000
33
0.0
0
TEXT
8
TEXT
10
99.920000
20
265.300000
30
0.0
40
4.0000
1
A
72
1
73
2
11
99.920000
21
265.300000
31
0.0
0
LINE
8
CUT
10
248.000000
20
260.300000
30
0.0
11
248.000000
21
251.300000
31
0.0
0
SOLID
8
CUT
10
248.000000
20
251.300000
30
0.0
11
248.798000
21
255.500000
31
0.0
12
247.202000
22
255.500000
32
0.0
13
247.202000
23
255.500000
33
0.0
0
TEXT
8
TEXT
10
248.000000
20
265.300000
30
0.0
40
4.0000
1
A
72
1
73
2
11
248.000000
21
265.300000
31
0.0
0
TEXT
8
TEXT
10
508.000000
20
399.500000
30
0.0
40
3.0000
1
HOLE TABLE — 61 POSITIONS
0
LINE
8
TITLE
10
508.000000
20
397.000000
30
0.0
11
562.600000
21
397.000000
31
0.0
0
TEXT
8
TITLE
10
509.500000
20
394.530000
30
0.0
40
2.2000
1
TAG
0
TEXT
8
TITLE
10
516.460000
20
394.530000
30
0.0
40
2.2000
1
SIZE
0
TEXT
8
TITLE
10
532.660000
20
394.530000
30
0.0
40
2.2000
1
X
0
TEXT
8
TITLE
10
542.260000
20
394.530000
30
0.0
40
2.2000
1
Y
0
TEXT
8
TITLE
10
553.180000
20
394.530000
30
0.0
40
2.2000
1
C'BORE
0
LINE
8
TITLE
10
508.000000
20
392.930000
30
0.0
11
562.600000
21
392.930000
31
0.0
0
TEXT
8
TEXT
10
509.500000
20
390.460000
30
0.0
40
2.2000
1
A1
0
TEXT
8
TEXT
10
516.460000
20
390.460000
30
0.0
40
2.2000
1
Ø1.02 THRU
0
TEXT
8
TEXT
10
532.660000
20
390.460000
30
0.0
40
2.2000
1
4.87
0
TEXT
8
TEXT
10
542.260000
20
390.460000
30
0.0
40
2.2000
1
1.27
0
TEXT
8
TEXT
10
553.180000
20
390.460000
30
0.0
40
2.2000
1
-
0
TEXT
8
TEXT
10
509.500000
20
386.390000
30
0.0
40
2.2000
1
A2
0
TEXT
8
TEXT
10
516.460000
20
386.390000
30
0.0
40
2.2000
1
Ø1.02 THRU
0
TEXT
8
TEXT
10
532.660000
20
386.390000
30
0.0
40
2.2000
1
7.41
0
TEXT
8
TEXT
10
542.260000
20
386.390000
30
0.0
40
2.2000
1
1.27
0
TEXT
8
TEXT
10
553.180000
20
386.390000
30
0.0
40
2.2000
1
-
0
TEXT
8
TEXT
10
509.500000
20
382.320000
30
0.0
40
2.2000
1
A3
0
TEXT
8
TEXT
10
516.460000
20
382.320000
30
0.0
40
2.2000
1
Ø1.02 THRU
0
TEXT
8
TEXT
10
532.660000
20
382.320000
30
0.0
40
2.2000
1
9.95
0
TEXT
8
TEXT
10
542.260000
20
382.320000
30
0.0
40
2.2000
1
1.27
0
TEXT
8
TEXT
10
553.180000
20
382.320000
30
0.0
40
2.2000
1
-
0
TEXT
8
TEXT
10
509.500000
20
378.250000
30
0.0
40
2.2000
1
A4
0
TEXT
8
TEXT
10
516.460000
20
378.250000
30
0.0
40
2.2000
1
Ø1.02 THRU
0
TEXT
8
TEXT
10
532.660000
20
378.250000
30
0.0
40
2.2000
1
12.49
0
TEXT
8
TEXT
10
542.260000
20
378.250000
30
0.0
40
2.2000
1
1.27
0
TEXT
8
TEXT
10
553.180000
20
378.250000
30
0.0
40
2.2000
1
-
0
TEXT
8
TEXT
10
509.500000
20
374.180000
30
0.0
40
2.2000
1
A5
0
TEXT
8
TEXT
10
516.460000
20
374.180000
30
0.0
40
2.2000
1
Ø1.02 THRU
0
TEXT
8
TEXT
10
532.660000
20
374.180000
30
0.0
40
2.2000
1
15.03
0
TEXT
8
TEXT
10
542.260000
20
374.180000
30
0.0
40
2.2000
1
1.27
0
TEXT
8
TEXT
10
553.180000
20
374.180000
30
0.0
40
2.2000
1
-
0
TEXT
8
TEXT
10
509.500000
20
370.110000
30
0.0
40
2.2000
1
A6
0
TEXT
8
TEXT
10
516.460000
20
370.110000
30
0.0
40
2.2000
1
Ø1.02 THRU
0
TEXT
8
TEXT
10
532.660000
20
370.110000
30
0.0
40
2.2000
1
17.57
0
TEXT
8
TEXT
10
542.260000
20
370.110000
30
0.0
40
2.2000
1
1.27
0
TEXT
8
TEXT
10
553.180000
20
370.110000
30
0.0
40
2.2000
1
-
0
TEXT
8
TEXT
10
509.500000
20
366.040000
30
0.0
40
2.2000
1
A7
0
TEXT
8
TEXT
10
516.460000
20
366.040000
30
0.0
40
2.2000
1
Ø1.02 THRU
0
TEXT
8
TEXT
10
532.660000
20
366.040000
30
0.0
40
2.2000
1
20.11
0
TEXT
8
TEXT
10
542.260000
20
366.040000
30
0.0
40
2.2000
1
1.27
0
TEXT
8
TEXT
10
553.180000
20
366.040000
30
0.0
40
2.2000
1
-
0
TEXT
8
TEXT
10
509.500000
20
361.970000
30
0.0
40
2.2000
1
A8
0
TEXT
8
TEXT
10
516.460000
20
361.970000
30
0.0
40
2.2000
1
Ø1.02 THRU
0
TEXT
8
TEXT
10
532.660000
20
361.970000
30
0.0
40
2.2000
1
22.65
0
TEXT
8
TEXT
10
542.260000
20
361.970000
30
0.0
40
2.2000
1
1.27
0
TEXT
8
TEXT
10
553.180000
20
361.970000
30
0.0
40
2.2000
1
-
0
TEXT
8
TEXT
10
509.500000
20
357.900000
30
0.0
40
2.2000
1
A9
0
TEXT
8
TEXT
10
516.460000
20
357.900000
30
0.0
40
2.2000
1
Ø1.02 THRU
0
TEXT
8
TEXT
10
532.660000
20
357.900000
30
0.0
40
2.2000
1
25.19
0
TEXT
8
TEXT
10
542.260000
20
357.900000
30
0.0
40
2.2000
1
1.27
0
TEXT
8
TEXT
10
553.180000
20
357.900000
30
0.0
40
2.2000
1
-
0
TEXT
8
TEXT
10
509.500000
20
353.830000
30
0.0
40
2.2000
1
A10
0
TEXT
8
TEXT
10
516.460000
20
353.830000
30
0.0
40
2.2000
1
Ø1.02 THRU
0
TEXT
8
TEXT
10
532.660000
20
353.830000
30
0.0
40
2.2000
1
27.73
0
TEXT
8
TEXT
10
542.260000
20
353.830000
30
0.0
40
2.2000
1
1.27
0
TEXT
8
TEXT
10
553.180000
20
353.830000
30
0.0
40
2.2000
1
-
0
TEXT
8
TEXT
10
509.500000
20
349.760000
30
0.0
40
2.2000
1
A11
0
TEXT
8
TEXT
10
516.460000
20
349.760000
30
0.0
40
2.2000
1
Ø1.02 THRU
0
TEXT
8
TEXT
10
532.660000
20
349.760000
30
0.0
40
2.2000
1
30.27
0
TEXT
8
TEXT
10
542.260000
20
349.760000
30
0.0
40
2.2000
1
1.27
0
TEXT
8
TEXT
10
553.180000
20
349.760000
30
0.0
40
2.2000
1
-
0
TEXT
8
TEXT
10
509.500000
20
345.690000
30
0.0
40
2.2000
1
A12
0
TEXT
8
TEXT
10
516.460000
20
345.690000
30
0.0
40
2.2000
1
Ø1.02 THRU
0
TEXT
8
TEXT
10
532.660000
20
345.690000
30
0.0
40
2.2000
1
32.81
0
TEXT
8
TEXT
10
542.260000
20
345.690000
30
0.0
40
2.2000
1
1.27
0
TEXT
8
TEXT
10
553.180000
20
345.690000
30
0.0
40
2.2000
1
-
0
TEXT
8
TEXT
10
509.500000
20
341.620000
30
0.0
40
2.2000
1
A13
0
TEXT
8
TEXT
10
516.460000
20
341.620000
30
0.0
40
2.2000
1
Ø1.02 THRU
0
TEXT
8
TEXT
10
532.660000
20
341.620000
30
0.0
40
2.2000
1
35.35
0
TEXT
8
TEXT
10
542.260000
20
341.620000
30
0.0
40
2.2000
1
1.27
0
TEXT
8
TEXT
10
553.180000
20
341.620000
30
0.0
40
2.2000
1
-
0
TEXT
8
TEXT
10
509.500000
20
337.550000
30
0.0
40
2.2000
1
A14
0
TEXT
8
TEXT
10
516.460000
20
337.550000
30
0.0
40
2.2000
1
Ø1.02 THRU
0
TEXT
8
TEXT
10
532.660000
20
337.550000
30
0.0
40
2.2000
1
37.89
0
TEXT
8
TEXT
10
542.260000
20
337.550000
30
0.0
40
2.2000
1
1.27
0
TEXT
8
TEXT
10
553.180000
20
337.550000
30
0.0
40
2.2000
1
-
0
TEXT
8
TEXT
10
509.500000
20
333.480000
30
0.0
40
2.2000
1
A15
0
TEXT
8
TEXT
10
516.460000
20
333.480000
30
0.0
40
2.2000
1
Ø1.02 THRU
0
TEXT
8
TEXT
10
532.660000
20
333.480000
30
0.0
40
2.2000
1
40.43
0
TEXT
8
TEXT
10
542.260000
20
333.480000
30
0.0
40
2.2000
1
1.27
0
TEXT
8
TEXT
10
553.180000
20
333.480000
30
0.0
40
2.2000
1
-
0
TEXT
8
TEXT
10
509.500000
20
329.410000
30
0.0
40
2.2000
1
A16
0
TEXT
8
TEXT
10
516.460000
20
329.410000
30
0.0
40
2.2000
1
Ø1.02 THRU
0
TEXT
8
TEXT
10
532.660000
20
329.410000
30
0.0
40
2.2000
1
42.97
0
TEXT
8
TEXT
10
542.260000
20
329.410000
30
0.0
40
2.2000
1
1.27
0
TEXT
8
TEXT
10
553.180000
20
329.410000
30
0.0
40
2.2000
1
-
0
TEXT
8
TEXT
10
509.500000
20
325.340000
30
0.0
40
2.2000
1
A17
0
TEXT
8
TEXT
10
516.460000
20
325.340000
30
0.0
40
2.2000
1
Ø1.02 THRU
0
TEXT
8
TEXT
10
532.660000
20
325.340000
30
0.0
40
2.2000
1
45.51
0
TEXT
8
TEXT
10
542.260000
20
325.340000
30
0.0
40
2.2000
1
1.27
0
TEXT
8
TEXT
10
553.180000
20
325.340000
30
0.0
40
2.2000
1
-
0
TEXT
8
TEXT
10
509.500000
20
321.270000
30
0.0
40
2.2000
1
A18
0
TEXT
8
TEXT
10
516.460000
20
321.270000
30
0.0
40
2.2000
1
Ø1.02 THRU
0
TEXT
8
TEXT
10
532.660000
20
321.270000
30
0.0
40
2.2000
1
48.05
0
TEXT
8
TEXT
10
542.260000
20
321.270000
30
0.0
40
2.2000
1
1.27
0
TEXT
8
TEXT
10
553.180000
20
321.270000
30
0.0
40
2.2000
1
-
0
TEXT
8
TEXT
10
509.500000
20
317.200000
30
0.0
40
2.2000
1
A19
0
TEXT
8
TEXT
10
516.460000
20
317.200000
30
0.0
40
2.2000
1
Ø1.02 THRU
0
TEXT
8
TEXT
10
532.660000
20
317.200000
30
0.0
40
2.2000
1
50.59
0
TEXT
8
TEXT
10
542.260000
20
317.200000
30
0.0
40
2.2000
1
1.27
0
TEXT
8
TEXT
10
553.180000
20
317.200000
30
0.0
40
2.2000
1
-
0
TEXT
8
TEXT
10
509.500000
20
313.130000
30
0.0
40
2.2000
1
A20
0
TEXT
8
TEXT
10
516.460000
20
313.130000
30
0.0
40
2.2000
1
Ø1.02 THRU
0
TEXT
8
TEXT
10
532.660000
20
313.130000
30
0.0
40
2.2000
1
53.13
0
TEXT
8
TEXT
10
542.260000
20
313.130000
30
0.0
40
2.2000
1
1.27
0
TEXT
8
TEXT
10
553.180000
20
313.130000
30
0.0
40
2.2000
1
-
0
TEXT
8
TEXT
10
509.500000
20
309.060000
30
0.0
40
2.2000
1
A21
0
TEXT
8
TEXT
10
516.460000
20
309.060000
30
0.0
40
2.2000
1
Ø2.70 THRU
0
TEXT
8
TEXT
10
532.660000
20
309.060000
30
0.0
40
2.2000
1
0.00
0
TEXT
8
TEXT
10
542.260000
20
309.060000
30
0.0
40
2.2000
1
0.00
0
TEXT
8
TEXT
10
553.180000
20
309.060000
30
0.0
40
2.2000
1
-
0
TEXT
8
TEXT
10
509.500000
20
304.990000
30
0.0
40
2.2000
1
A22
0
TEXT
8
TEXT
10
516.460000
20
304.990000
30
0.0
40
2.2000
1
Ø2.00 THRU
0
TEXT
8
TEXT
10
532.660000
20
304.990000
30
0.0
40
2.2000
1
6.14
0
TEXT
8
TEXT
10
542.260000
20
304.990000
30
0.0
40
2.2000
1
0.00
0
TEXT
8
TEXT
10
553.180000
20
304.990000
30
0.0
40
2.2000
1
-
0
TEXT
8
TEXT
10
509.500000
20
300.920000
30
0.0
40
2.2000
1
A23
0
TEXT
8
TEXT
10
516.460000
20
300.920000
30
0.0
40
2.2000
1
Ø2.00 THRU
0
TEXT
8
TEXT
10
532.660000
20
300.920000
30
0.0
40
2.2000
1
51.86
0
TEXT
8
TEXT
10
542.260000
20
300.920000
30
0.0
40
2.2000
1
0.00
0
TEXT
8
TEXT
10
553.180000
20
300.920000
30
0.0
40
2.2000
1
-
0
TEXT
8
TEXT
10
509.500000
20
296.850000
30
0.0
40
2.2000
1
A24
0
TEXT
8
TEXT
10
516.460000
20
296.850000
30
0.0
40
2.2000
1
Ø2.70 THRU
0
TEXT
8
TEXT
10
532.660000
20
296.850000
30
0.0
40
2.2000
1
58.00
0
TEXT
8
TEXT
10
542.260000
20
296.850000
30
0.0
40
2.2000
1
0.00
0
TEXT
8
TEXT
10
553.180000
20
296.850000
30
0.0
40
2.2000
1
-
0
TEXT
8
TEXT
10
509.500000
20
292.780000
30
0.0
40
2.2000
1
A25
0
TEXT
8
TEXT
10
516.460000
20
292.780000
30
0.0
40
2.2000
1
Ø1.02 THRU
0
TEXT
8
TEXT
10
532.660000
20
292.780000
30
0.0
40
2.2000
1
4.87
0
TEXT
8
TEXT
10
542.260000
20
292.780000
30
0.0
40
2.2000
1
-1.27
0
TEXT
8
TEXT
10
553.180000
20
292.780000
30
0.0
40
2.2000
1
-
0
TEXT
8
TEXT
10
509.500000
20
288.710000
30
0.0
40
2.2000
1
A26
0
TEXT
8
TEXT
10
516.460000
20
288.710000
30
0.0
40
2.2000
1
Ø1.02 THRU
0
TEXT
8
TEXT
10
532.660000
20
288.710000
30
0.0
40
2.2000
1
7.41
0
TEXT
8
TEXT
10
542.260000
20
288.710000
30
0.0
40
2.2000
1
-1.27
0
TEXT
8
TEXT
10
553.180000
20
288.710000
30
0.0
40
2.2000
1
-
0
TEXT
8
TEXT
10
509.500000
20
284.640000
30
0.0
40
2.2000
1
A27
0
TEXT
8
TEXT
10
516.460000
20
284.640000
30
0.0
40
2.2000
1
Ø1.02 THRU
0
TEXT
8
TEXT
10
532.660000
20
284.640000
30
0.0
40
2.2000
1
9.95
0
TEXT
8
TEXT
10
542.260000
20
284.640000
30
0.0
40
2.2000
1
-1.27
0
TEXT
8
TEXT
10
553.180000
20
284.640000
30
0.0
40
2.2000
1
-
0
TEXT
8
TEXT
10
509.500000
20
280.570000
30
0.0
40
2.2000
1
A28
0
TEXT
8
TEXT
10
516.460000
20
280.570000
30
0.0
40
2.2000
1
Ø1.02 THRU
0
TEXT
8
TEXT
10
532.660000
20
280.570000
30
0.0
40
2.2000
1
12.49
0
TEXT
8
TEXT
10
542.260000
20
280.570000
30
0.0
40
2.2000
1
-1.27
0
TEXT
8
TEXT
10
553.180000
20
280.570000
30
0.0
40
2.2000
1
-
0
TEXT
8
TEXT
10
509.500000
20
276.500000
30
0.0
40
2.2000
1
A29
0
TEXT
8
TEXT
10
516.460000
20
276.500000
30
0.0
40
2.2000
1
Ø1.02 THRU
0
TEXT
8
TEXT
10
532.660000
20
276.500000
30
0.0
40
2.2000
1
15.03
0
TEXT
8
TEXT
10
542.260000
20
276.500000
30
0.0
40
2.2000
1
-1.27
0
TEXT
8
TEXT
10
553.180000
20
276.500000
30
0.0
40
2.2000
1
-
0
TEXT
8
TEXT
10
509.500000
20
272.430000
30
0.0
40
2.2000
1
A30
0
TEXT
8
TEXT
10
516.460000
20
272.430000
30
0.0
40
2.2000
1
Ø1.02 THRU
0
TEXT
8
TEXT
10
532.660000
20
272.430000
30
0.0
40
2.2000
1
17.57
0
TEXT
8
TEXT
10
542.260000
20
272.430000
30
0.0
40
2.2000
1
-1.27
0
TEXT
8
TEXT
10
553.180000
20
272.430000
30
0.0
40
2.2000
1
-
0
TEXT
8
TEXT
10
509.500000
20
268.360000
30
0.0
40
2.2000
1
A31
0
TEXT
8
TEXT
10
516.460000
20
268.360000
30
0.0
40
2.2000
1
Ø1.02 THRU
0
TEXT
8
TEXT
10
532.660000
20
268.360000
30
0.0
40
2.2000
1
20.11
0
TEXT
8
TEXT
10
542.260000
20
268.360000
30
0.0
40
2.2000
1
-1.27
0
TEXT
8
TEXT
10
553.180000
20
268.360000
30
0.0
40
2.2000
1
-
0
TEXT
8
TEXT
10
509.500000
20
264.290000
30
0.0
40
2.2000
1
A32
0
TEXT
8
TEXT
10
516.460000
20
264.290000
30
0.0
40
2.2000
1
Ø1.02 THRU
0
TEXT
8
TEXT
10
532.660000
20
264.290000
30
0.0
40
2.2000
1
22.65
0
TEXT
8
TEXT
10
542.260000
20
264.290000
30
0.0
40
2.2000
1
-1.27
0
TEXT
8
TEXT
10
553.180000
20
264.290000
30
0.0
40
2.2000
1
-
0
TEXT
8
TEXT
10
509.500000
20
260.220000
30
0.0
40
2.2000
1
A33
0
TEXT
8
TEXT
10
516.460000
20
260.220000
30
0.0
40
2.2000
1
Ø1.02 THRU
0
TEXT
8
TEXT
10
532.660000
20
260.220000
30
0.0
40
2.2000
1
25.19
0
TEXT
8
TEXT
10
542.260000
20
260.220000
30
0.0
40
2.2000
1
-1.27
0
TEXT
8
TEXT
10
553.180000
20
260.220000
30
0.0
40
2.2000
1
-
0
TEXT
8
TEXT
10
509.500000
20
256.150000
30
0.0
40
2.2000
1
A34
0
TEXT
8
TEXT
10
516.460000
20
256.150000
30
0.0
40
2.2000
1
Ø1.02 THRU
0
TEXT
8
TEXT
10
532.660000
20
256.150000
30
0.0
40
2.2000
1
27.73
0
TEXT
8
TEXT
10
542.260000
20
256.150000
30
0.0
40
2.2000
1
-1.27
0
TEXT
8
TEXT
10
553.180000
20
256.150000
30
0.0
40
2.2000
1
-
0
TEXT
8
TEXT
10
509.500000
20
252.080000
30
0.0
40
2.2000
1
A35
0
TEXT
8
TEXT
10
516.460000
20
252.080000
30
0.0
40
2.2000
1
Ø1.02 THRU
0
TEXT
8
TEXT
10
532.660000
20
252.080000
30
0.0
40
2.2000
1
30.27
0
TEXT
8
TEXT
10
542.260000
20
252.080000
30
0.0
40
2.2000
1
-1.27
0
TEXT
8
TEXT
10
553.180000
20
252.080000
30
0.0
40
2.2000
1
-
0
TEXT
8
TEXT
10
509.500000
20
248.010000
30
0.0
40
2.2000
1
A36
0
TEXT
8
TEXT
10
516.460000
20
248.010000
30
0.0
40
2.2000
1
Ø1.02 THRU
0
TEXT
8
TEXT
10
532.660000
20
248.010000
30
0.0
40
2.2000
1
32.81
0
TEXT
8
TEXT
10
542.260000
20
248.010000
30
0.0
40
2.2000
1
-1.27
0
TEXT
8
TEXT
10
553.180000
20
248.010000
30
0.0
40
2.2000
1
-
0
TEXT
8
TEXT
10
509.500000
20
243.940000
30
0.0
40
2.2000
1
A37
0
TEXT
8
TEXT
10
516.460000
20
243.940000
30
0.0
40
2.2000
1
Ø1.02 THRU
0
TEXT
8
TEXT
10
532.660000
20
243.940000
30
0.0
40
2.2000
1
35.35
0
TEXT
8
TEXT
10
542.260000
20
243.940000
30
0.0
40
2.2000
1
-1.27
0
TEXT
8
TEXT
10
553.180000
20
243.940000
30
0.0
40
2.2000
1
-
0
TEXT
8
TEXT
10
509.500000
20
239.870000
30
0.0
40
2.2000
1
A38
0
TEXT
8
TEXT
10
516.460000
20
239.870000
30
0.0
40
2.2000
1
Ø1.02 THRU
0
TEXT
8
TEXT
10
532.660000
20
239.870000
30
0.0
40
2.2000
1
37.89
0
TEXT
8
TEXT
10
542.260000
20
239.870000
30
0.0
40
2.2000
1
-1.27
0
TEXT
8
TEXT
10
553.180000
20
239.870000
30
0.0
40
2.2000
1
-
0
TEXT
8
TEXT
10
509.500000
20
235.800000
30
0.0
40
2.2000
1
A39
0
TEXT
8
TEXT
10
516.460000
20
235.800000
30
0.0
40
2.2000
1
Ø1.02 THRU
0
TEXT
8
TEXT
10
532.660000
20
235.800000
30
0.0
40
2.2000
1
40.43
0
TEXT
8
TEXT
10
542.260000
20
235.800000
30
0.0
40
2.2000
1
-1.27
0
TEXT
8
TEXT
10
553.180000
20
235.800000
30
0.0
40
2.2000
1
-
0
TEXT
8
TEXT
10
509.500000
20
231.730000
30
0.0
40
2.2000
1
A40
0
TEXT
8
TEXT
10
516.460000
20
231.730000
30
0.0
40
2.2000
1
Ø1.02 THRU
0
TEXT
8
TEXT
10
532.660000
20
231.730000
30
0.0
40
2.2000
1
42.97
0
TEXT
8
TEXT
10
542.260000
20
231.730000
30
0.0
40
2.2000
1
-1.27
0
TEXT
8
TEXT
10
553.180000
20
231.730000
30
0.0
40
2.2000
1
-
0
TEXT
8
TEXT
10
509.500000
20
227.660000
30
0.0
40
2.2000
1
A41
0
TEXT
8
TEXT
10
516.460000
20
227.660000
30
0.0
40
2.2000
1
Ø1.02 THRU
0
TEXT
8
TEXT
10
532.660000
20
227.660000
30
0.0
40
2.2000
1
45.51
0
TEXT
8
TEXT
10
542.260000
20
227.660000
30
0.0
40
2.2000
1
-1.27
0
TEXT
8
TEXT
10
553.180000
20
227.660000
30
0.0
40
2.2000
1
-
0
TEXT
8
TEXT
10
509.500000
20
223.590000
30
0.0
40
2.2000
1
A42
0
TEXT
8
TEXT
10
516.460000
20
223.590000
30
0.0
40
2.2000
1
Ø1.02 THRU
0
TEXT
8
TEXT
10
532.660000
20
223.590000
30
0.0
40
2.2000
1
48.05
0
TEXT
8
TEXT
10
542.260000
20
223.590000
30
0.0
40
2.2000
1
-1.27
0
TEXT
8
TEXT
10
553.180000
20
223.590000
30
0.0
40
2.2000
1
-
0
TEXT
8
TEXT
10
509.500000
20
219.520000
30
0.0
40
2.2000
1
A43
0
TEXT
8
TEXT
10
516.460000
20
219.520000
30
0.0
40
2.2000
1
Ø1.02 THRU
0
TEXT
8
TEXT
10
532.660000
20
219.520000
30
0.0
40
2.2000
1
50.59
0
TEXT
8
TEXT
10
542.260000
20
219.520000
30
0.0
40
2.2000
1
-1.27
0
TEXT
8
TEXT
10
553.180000
20
219.520000
30
0.0
40
2.2000
1
-
0
TEXT
8
TEXT
10
509.500000
20
215.450000
30
0.0
40
2.2000
1
A44
0
TEXT
8
TEXT
10
516.460000
20
215.450000
30
0.0
40
2.2000
1
Ø1.02 THRU
0
TEXT
8
TEXT
10
532.660000
20
215.450000
30
0.0
40
2.2000
1
53.13
0
TEXT
8
TEXT
10
542.260000
20
215.450000
30
0.0
40
2.2000
1
-1.27
0
TEXT
8
TEXT
10
553.180000
20
215.450000
30
0.0
40
2.2000
1
-
0
TEXT
8
TEXT
10
509.500000
20
211.380000
30
0.0
40
2.2000
1
A45
0
TEXT
8
TEXT
10
516.460000
20
211.380000
30
0.0
40
2.2000
1
Ø1.00 THRU
0
TEXT
8
TEXT
10
532.660000
20
211.380000
30
0.0
40
2.2000
1
31.20
0
TEXT
8
TEXT
10
542.260000
20
211.380000
30
0.0
40
2.2000
1
-11.90
0
TEXT
8
TEXT
10
553.180000
20
211.380000
30
0.0
40
2.2000
1
-
0
TEXT
8
TEXT
10
509.500000
20
207.310000
30
0.0
40
2.2000
1
A46
0
TEXT
8
TEXT
10
516.460000
20
207.310000
30
0.0
40
2.2000
1
Ø0.95 THRU
0
TEXT
8
TEXT
10
532.660000
20
207.310000
30
0.0
40
2.2000
1
53.50
0
TEXT
8
TEXT
10
542.260000
20
207.310000
30
0.0
40
2.2000
1
-12.45
0
TEXT
8
TEXT
10
553.180000
20
207.310000
30
0.0
40
2.2000
1
-
0
TEXT
8
TEXT
10
509.500000
20
203.240000
30
0.0
40
2.2000
1
A47
0
TEXT
8
TEXT
10
516.460000
20
203.240000
30
0.0
40
2.2000
1
Ø0.95 THRU
0
TEXT
8
TEXT
10
532.660000
20
203.240000
30
0.0
40
2.2000
1
58.30
0
TEXT
8
TEXT
10
542.260000
20
203.240000
30
0.0
40
2.2000
1
-12.45
0
TEXT
8
TEXT
10
553.180000
20
203.240000
30
0.0
40
2.2000
1
-
0
TEXT
8
TEXT
10
509.500000
20
199.170000
30
0.0
40
2.2000
1
A48
0
TEXT
8
TEXT
10
516.460000
20
199.170000
30
0.0
40
2.2000
1
Ø0.95 THRU
0
TEXT
8
TEXT
10
532.660000
20
199.170000
30
0.0
40
2.2000
1
53.50
0
TEXT
8
TEXT
10
542.260000
20
199.170000
30
0.0
40
2.2000
1
-14.95
0
TEXT
8
TEXT
10
553.180000
20
199.170000
30
0.0
40
2.2000
1
-
0
TEXT
8
TEXT
10
509.500000
20
195.100000
30
0.0
40
2.2000
1
A49
0
TEXT
8
TEXT
10
516.460000
20
195.100000
30
0.0
40
2.2000
1
Ø0.95 THRU
0
TEXT
8
TEXT
10
532.660000
20
195.100000
30
0.0
40
2.2000
1
58.30
0
TEXT
8
TEXT
10
542.260000
20
195.100000
30
0.0
40
2.2000
1
-14.95
0
TEXT
8
TEXT
10
553.180000
20
195.100000
30
0.0
40
2.2000
1
-
0
TEXT
8
TEXT
10
509.500000
20
191.030000
30
0.0
40
2.2000
1
A50
0
TEXT
8
TEXT
10
516.460000
20
191.030000
30
0.0
40
2.2000
1
Ø0.95 THRU
0
TEXT
8
TEXT
10
532.660000
20
191.030000
30
0.0
40
2.2000
1
43.85
0
TEXT
8
TEXT
10
542.260000
20
191.030000
30
0.0
40
2.2000
1
-15.50
0
TEXT
8
TEXT
10
553.180000
20
191.030000
30
0.0
40
2.2000
1
-
0
TEXT
8
TEXT
10
509.500000
20
186.960000
30
0.0
40
2.2000
1
A51
0
TEXT
8
TEXT
10
516.460000
20
186.960000
30
0.0
40
2.2000
1
Ø0.95 THRU
0
TEXT
8
TEXT
10
532.660000
20
186.960000
30
0.0
40
2.2000
1
48.65
0
TEXT
8
TEXT
10
542.260000
20
186.960000
30
0.0
40
2.2000
1
-15.50
0
TEXT
8
TEXT
10
553.180000
20
186.960000
30
0.0
40
2.2000
1
-
0
TEXT
8
TEXT
10
509.500000
20
182.890000
30
0.0
40
2.2000
1
A52
0
TEXT
8
TEXT
10
516.460000
20
182.890000
30
0.0
40
2.2000
1
Ø0.95 THRU
0
TEXT
8
TEXT
10
532.660000
20
182.890000
30
0.0
40
2.2000
1
53.50
0
TEXT
8
TEXT
10
542.260000
20
182.890000
30
0.0
40
2.2000
1
-17.45
0
TEXT
8
TEXT
10
553.180000
20
182.890000
30
0.0
40
2.2000
1
-
0
TEXT
8
TEXT
10
509.500000
20
178.820000
30
0.0
40
2.2000
1
A53
0
TEXT
8
TEXT
10
516.460000
20
178.820000
30
0.0
40
2.2000
1
Ø0.95 THRU
0
TEXT
8
TEXT
10
532.660000
20
178.820000
30
0.0
40
2.2000
1
58.30
0
TEXT
8
TEXT
10
542.260000
20
178.820000
30
0.0
40
2.2000
1
-17.45
0
TEXT
8
TEXT
10
553.180000
20
178.820000
30
0.0
40
2.2000
1
-
0
TEXT
8
TEXT
10
509.500000
20
174.750000
30
0.0
40
2.2000
1
A54
0
TEXT
8
TEXT
10
516.460000
20
174.750000
30
0.0
40
2.2000
1
Ø0.95 THRU
0
TEXT
8
TEXT
10
532.660000
20
174.750000
30
0.0
40
2.2000
1
43.85
0
TEXT
8
TEXT
10
542.260000
20
174.750000
30
0.0
40
2.2000
1
-18.00
0
TEXT
8
TEXT
10
553.180000
20
174.750000
30
0.0
40
2.2000
1
-
0
TEXT
8
TEXT
10
509.500000
20
170.680000
30
0.0
40
2.2000
1
A55
0
TEXT
8
TEXT
10
516.460000
20
170.680000
30
0.0
40
2.2000
1
Ø0.95 THRU
0
TEXT
8
TEXT
10
532.660000
20
170.680000
30
0.0
40
2.2000
1
48.65
0
TEXT
8
TEXT
10
542.260000
20
170.680000
30
0.0
40
2.2000
1
-18.00
0
TEXT
8
TEXT
10
553.180000
20
170.680000
30
0.0
40
2.2000
1
-
0
TEXT
8
TEXT
10
509.500000
20
166.610000
30
0.0
40
2.2000
1
A56
0
TEXT
8
TEXT
10
516.460000
20
166.610000
30
0.0
40
2.2000
1
Ø0.95 THRU
0
TEXT
8
TEXT
10
532.660000
20
166.610000
30
0.0
40
2.2000
1
43.85
0
TEXT
8
TEXT
10
542.260000
20
166.610000
30
0.0
40
2.2000
1
-20.50
0
TEXT
8
TEXT
10
553.180000
20
166.610000
30
0.0
40
2.2000
1
-
0
TEXT
8
TEXT
10
509.500000
20
162.540000
30
0.0
40
2.2000
1
A57
0
TEXT
8
TEXT
10
516.460000
20
162.540000
30
0.0
40
2.2000
1
Ø0.95 THRU
0
TEXT
8
TEXT
10
532.660000
20
162.540000
30
0.0
40
2.2000
1
48.65
0
TEXT
8
TEXT
10
542.260000
20
162.540000
30
0.0
40
2.2000
1
-20.50
0
TEXT
8
TEXT
10
553.180000
20
162.540000
30
0.0
40
2.2000
1
-
0
TEXT
8
TEXT
10
509.500000
20
158.470000
30
0.0
40
2.2000
1
A58
0
TEXT
8
TEXT
10
516.460000
20
158.470000
30
0.0
40
2.2000
1
Ø2.70 THRU
0
TEXT
8
TEXT
10
532.660000
20
158.470000
30
0.0
40
2.2000
1
0.00
0
TEXT
8
TEXT
10
542.260000
20
158.470000
30
0.0
40
2.2000
1
-23.00
0
TEXT
8
TEXT
10
553.180000
20
158.470000
30
0.0
40
2.2000
1
-
0
TEXT
8
TEXT
10
509.500000
20
154.400000
30
0.0
40
2.2000
1
A59
0
TEXT
8
TEXT
10
516.460000
20
154.400000
30
0.0
40
2.2000
1
Ø0.95 THRU
0
TEXT
8
TEXT
10
532.660000
20
154.400000
30
0.0
40
2.2000
1
43.85
0
TEXT
8
TEXT
10
542.260000
20
154.400000
30
0.0
40
2.2000
1
-23.00
0
TEXT
8
TEXT
10
553.180000
20
154.400000
30
0.0
40
2.2000
1
-
0
TEXT
8
TEXT
10
509.500000
20
150.330000
30
0.0
40
2.2000
1
A60
0
TEXT
8
TEXT
10
516.460000
20
150.330000
30
0.0
40
2.2000
1
Ø0.95 THRU
0
TEXT
8
TEXT
10
532.660000
20
150.330000
30
0.0
40
2.2000
1
48.65
0
TEXT
8
TEXT
10
542.260000
20
150.330000
30
0.0
40
2.2000
1
-23.00
0
TEXT
8
TEXT
10
553.180000
20
150.330000
30
0.0
40
2.2000
1
-
0
TEXT
8
TEXT
10
509.500000
20
146.260000
30
0.0
40
2.2000
1
A61
0
TEXT
8
TEXT
10
516.460000
20
146.260000
30
0.0
40
2.2000
1
Ø2.70 THRU
0
TEXT
8
TEXT
10
532.660000
20
146.260000
30
0.0
40
2.2000
1
58.00
0
TEXT
8
TEXT
10
542.260000
20
146.260000
30
0.0
40
2.2000
1
-23.00
0
TEXT
8
TEXT
10
553.180000
20
146.260000
30
0.0
40
2.2000
1
-
0
LINE
8
TITLE
10
508.000000
20
144.660000
30
0.0
11
562.600000
21
144.660000
31
0.0
0
LINE
8
TITLE
10
514.960000
20
144.660000
30
0.0
11
514.960000
21
397.000000
31
0.0
0
LINE
8
TITLE
10
531.160000
20
144.660000
30
0.0
11
531.160000
21
397.000000
31
0.0
0
LINE
8
TITLE
10
540.760000
20
144.660000
30
0.0
11
540.760000
21
397.000000
31
0.0
0
LINE
8
TITLE
10
551.680000
20
144.660000
30
0.0
11
551.680000
21
397.000000
31
0.0
0
LINE
8
TITLE
10
562.600000
20
144.660000
30
0.0
11
562.600000
21
397.000000
31
0.0
0
LINE
8
TITLE
10
508.000000
20
144.660000
30
0.0
11
508.000000
21
397.000000
31
0.0
0
TEXT
8
TITLE
10
508.000000
20
140.660000
30
0.0
40
1.7170
1
every row measured off the solid; positions are model
0
TEXT
8
TITLE
10
508.000000
20
138.084528
30
0.0
40
1.7170
1
coordinates, mm. C'BORE side is the face it opens on.
0
TEXT
8
TEXT
10
508.000000
20
128.509057
30
0.0
40
3.0000
1
NOTES
0
TEXT
8
TEXT
10
508.000000
20
123.909057
30
0.0
40
2.4000
1
1. ALL DIMENSIONS IN mm AND DEGREES. EVERY
0
TEXT
8
TEXT
10
508.000000
20
120.189057
30
0.0
40
2.4000
1
   DIMENSION AND EVERY HOLE CALLOUT WAS MEASURED
0
TEXT
8
TEXT
10
508.000000
20
116.469057
30
0.0
40
2.4000
1
   OFF THE SOLID.
0
TEXT
8
TEXT
10
508.000000
20
112.749057
30
0.0
40
2.4000
1
2. GENERAL TOLERANCE: CANNOT DETERMINE — THIS PART
0
TEXT
8
TEXT
10
508.000000
20
109.029057
30
0.0
40
2.4000
1
   DECLARES NO PROCESS THIS REPO CAN READ.
0
TEXT
8
TEXT
10
508.000000
20
105.309057
30
0.0
40
2.4000
1
3. SECTION A-A AT Y=-1.27: THINNEST MATERIAL FOUND
0
TEXT
8
TEXT
10
508.000000
20
101.589057
30
0.0
40
2.4000
1
   BY SCAN 0.84 mm, AT X=59.08, Z=0.42.
0
LINE
8
FRAME
10
398.000000
20
10.000000
30
0.0
11
584.000000
21
10.000000
31
0.0
0
LINE
8
FRAME
10
584.000000
20
10.000000
30
0.0
11
584.000000
21
66.000000
31
0.0
0
LINE
8
FRAME
10
584.000000
20
66.000000
30
0.0
11
398.000000
21
66.000000
31
0.0
0
LINE
8
FRAME
10
398.000000
20
66.000000
30
0.0
11
398.000000
21
10.000000
31
0.0
0
LINE
8
TITLE
10
398.000000
20
53.000000
30
0.0
11
584.000000
21
53.000000
31
0.0
0
LINE
8
TITLE
10
398.000000
20
19.000000
30
0.0
11
584.000000
21
19.000000
31
0.0
0
LINE
8
TITLE
10
398.000000
20
27.500000
30
0.0
11
584.000000
21
27.500000
31
0.0
0
LINE
8
TITLE
10
398.000000
20
36.000000
30
0.0
11
584.000000
21
36.000000
31
0.0
0
LINE
8
TITLE
10
398.000000
20
44.500000
30
0.0
11
584.000000
21
44.500000
31
0.0
0
TEXT
8
TEXT
10
400.500000
20
59.500000
30
0.0
40
6.0000
1
MICRODUCK-ROBOT-HAT-PCB
72
0
73
2
11
400.500000
21
59.500000
31
0.0
0
LINE
8
TITLE
10
564.000000
20
53.000000
30
0.0
11
564.000000
21
66.000000
31
0.0
0
TEXT
8
TITLE
10
574.000000
20
63.600000
30
0.0
40
1.7000
1
REV
72
1
73
0
11
574.000000
21
63.600000
31
0.0
0
TEXT
8
TEXT
10
574.000000
20
55.000000
30
0.0
40
5.2000
1
A
72
1
73
0
11
574.000000
21
55.000000
31
0.0
0
LINE
8
TITLE
10
534.000000
20
53.000000
30
0.0
11
534.000000
21
66.000000
31
0.0
0
CIRCLE
8
TITLE
10
540.500000
20
59.500000
30
0.0
40
3.500000
0
CIRCLE
8
TITLE
10
540.500000
20
59.500000
30
0.0
40
1.960000
0
LINE
8
TITLE
10
550.300000
20
56.000000
30
0.0
11
550.300000
21
63.000000
31
0.0
0
LINE
8
TITLE
10
550.300000
20
63.000000
30
0.0
11
556.250000
21
61.460000
31
0.0
0
LINE
8
TITLE
10
556.250000
20
61.460000
30
0.0
11
556.250000
21
57.540000
31
0.0
0
LINE
8
TITLE
10
556.250000
20
57.540000
30
0.0
11
550.300000
21
56.000000
31
0.0
0
LINE
8
CENTER
10
535.500000
20
59.500000
30
0.0
11
557.750000
21
59.500000
31
0.0
0
LINE
8
TITLE
10
462.000000
20
19.000000
30
0.0
11
462.000000
21
53.000000
31
0.0
0
LINE
8
TITLE
10
526.000000
20
19.000000
30
0.0
11
526.000000
21
53.000000
31
0.0
0
TEXT
8
TITLE
10
399.600000
20
50.600000
30
0.0
40
1.7000
1
MATERIAL
0
TEXT
8
TEXT
10
399.600000
20
45.900000
30
0.0
40
2.5000
1
FR4
0
TEXT
8
TITLE
10
463.600000
20
50.600000
30
0.0
40
1.7000
1
PROCESS
0
TEXT
8
TEXT
10
463.600000
20
45.900000
30
0.0
40
2.5000
1
-
0
TEXT
8
TITLE
10
527.600000
20
50.600000
30
0.0
40
1.7000
1
SCALE
0
TEXT
8
TEXT
10
527.600000
20
45.900000
30
0.0
40
2.5000
1
2:1
0
TEXT
8
TITLE
10
399.600000
20
42.100000
30
0.0
40
1.7000
1
CATEGORY
0
TEXT
8
TEXT
10
399.600000
20
37.400000
30
0.0
40
2.5000
1
-
0
TEXT
8
TITLE
10
431.600000
20
42.100000
30
0.0
40
1.7000
1
GENERAL TOL
0
TEXT
8
TEXT
10
431.600000
20
37.400000
30
0.0
40
2.5000
1
SEE NOTES
0
LINE
8
TITLE
10
430.000000
20
36.000000
30
0.0
11
430.000000
21
44.500000
31
0.0
0
TEXT
8
TITLE
10
463.600000
20
42.100000
30
0.0
40
1.7000
1
FINISH
0
TEXT
8
TEXT
10
463.600000
20
37.400000
30
0.0
40
2.5000
1
AS PRINTED
0
TEXT
8
TITLE
10
527.600000
20
42.100000
30
0.0
40
1.7000
1
SHEET
0
TEXT
8
TEXT
10
527.600000
20
37.400000
30
0.0
40
2.5000
1
A2  1/1
0
TEXT
8
TITLE
10
399.600000
20
33.600000
30
0.0
40
1.7000
1
VOLUME (MEASURED)
0
TEXT
8
TEXT
10
399.600000
20
28.900000
30
0.0
40
2.5000
1
1.57 cm3
0
TEXT
8
TITLE
10
463.600000
20
33.600000
30
0.0
40
1.7000
1
MASS (ASSUMES FR4)
0
TEXT
8
TEXT
10
463.600000
20
28.900000
30
0.0
40
2.5000
1
3.0 g
0
TEXT
8
TITLE
10
527.600000
20
33.600000
30
0.0
40
1.7000
1
UNITS
0
TEXT
8
TEXT
10
527.600000
20
28.900000
30
0.0
40
2.5000
1
mm / deg
0
TEXT
8
TITLE
10
399.600000
20
25.100000
30
0.0
40
1.7000
1
SIZE (BBOX, MEASURED)
0
TEXT
8
TEXT
10
399.600000
20
20.400000
30
0.0
40
2.5000
1
65.04 x 30.04 x 0.84
0
TEXT
8
TITLE
10
463.600000
20
25.100000
30
0.0
40
1.7000
1
DRAWN
0
TEXT
8
TEXT
10
463.600000
20
20.400000
30
0.0
40
2.5000
1
ce-cad  2026-09-02
0
TEXT
8
TITLE
10
527.600000
20
25.100000
30
0.0
40
1.7000
1
PROJECTION
0
TEXT
8
TEXT
10
527.600000
20
20.400000
30
0.0
40
2.5000
1
THIRD ANGLE
0
TEXT
8
TITLE
10
399.600000
20
16.600000
30
0.0
40
1.7000
1
SOURCE (DESIGN FILE)
0
TEXT
8
TEXT
10
399.600000
20
11.400000
30
0.0
40
2.6000
1
ce-parts/microduck-robot-hat-pcb/current/cad/part.py
0
TEXT
8
TEXT
10
12.500000
20
403.500000
30
0.0
40
4.2000
1
microduck-robot-hat-pcb   SCALE 2:1   A2   THIRD ANGLE
0
ENDSEC
0
EOF
