0
SECTION
2
HEADER
9
$ACADVER
1
AC1009
9
$INSUNITS
70
4
9
$LTSCALE
40
1.0
9
$EXTMIN
10
0.0000
20
0.0000
30
0.0
9
$EXTMAX
10
841.0000
20
594.0000
30
0.0
0
ENDSEC
0
SECTION
2
TABLES
0
TABLE
2
LTYPE
70
4
0
LTYPE
2
CONTINUOUS
70
0
3
Solid line
72
65
73
0
40
0.0000
0
LTYPE
2
HIDDEN
70
0
3
Hidden __ __ __ __
72
65
73
2
40
3.6000
49
2.4000
49
-1.2000
0
LTYPE
2
CENTER
70
0
3
Center ____ _ ____ _
72
65
73
4
40
11.2000
49
7.0000
49
-1.4000
49
1.4000
49
-1.4000
0
LTYPE
2
PHANTOM
70
0
3
Phantom ____ _ _ ____
72
65
73
6
40
21.0000
49
11.0000
49
-2.0000
49
2.0000
49
-2.0000
49
2.0000
49
-2.0000
0
ENDTAB
0
TABLE
2
LAYER
70
12
0
LAYER
2
0
70
0
62
7
6
CONTINUOUS
0
LAYER
2
VISIBLE
70
0
62
7
6
CONTINUOUS
0
LAYER
2
SECTION
70
0
62
7
6
CONTINUOUS
0
LAYER
2
HIDDEN
70
0
62
8
6
HIDDEN
0
LAYER
2
CENTER
70
0
62
4
6
CENTER
0
LAYER
2
DIM
70
0
62
3
6
CONTINUOUS
0
LAYER
2
TEXT
70
0
62
3
6
CONTINUOUS
0
LAYER
2
HATCH
70
0
62
5
6
CONTINUOUS
0
LAYER
2
CUT
70
0
62
1
6
PHANTOM
0
LAYER
2
CUTTHIN
70
0
62
1
6
PHANTOM
0
LAYER
2
FRAME
70
0
62
7
6
CONTINUOUS
0
LAYER
2
TITLE
70
0
62
7
6
CONTINUOUS
0
ENDTAB
0
ENDSEC
0
SECTION
2
ENTITIES
0
LINE
8
TITLE
10
5.000000
20
5.000000
30
0.0
11
836.000000
21
5.000000
31
0.0
0
LINE
8
TITLE
10
836.000000
20
5.000000
30
0.0
11
836.000000
21
589.000000
31
0.0
0
LINE
8
TITLE
10
836.000000
20
589.000000
30
0.0
11
5.000000
21
589.000000
31
0.0
0
LINE
8
TITLE
10
5.000000
20
589.000000
30
0.0
11
5.000000
21
5.000000
31
0.0
0
LINE
8
FRAME
10
10.000000
20
10.000000
30
0.0
11
831.000000
21
10.000000
31
0.0
0
LINE
8
FRAME
10
831.000000
20
10.000000
30
0.0
11
831.000000
21
584.000000
31
0.0
0
LINE
8
FRAME
10
831.000000
20
584.000000
30
0.0
11
10.000000
21
584.000000
31
0.0
0
LINE
8
FRAME
10
10.000000
20
584.000000
30
0.0
11
10.000000
21
10.000000
31
0.0
0
TEXT
8
TITLE
10
61.312500
20
586.500000
30
0.0
40
2.4000
1
1
72
1
73
2
11
61.312500
21
586.500000
31
0.0
0
TEXT
8
TITLE
10
61.312500
20
7.500000
30
0.0
40
2.4000
1
1
72
1
73
2
11
61.312500
21
7.500000
31
0.0
0
TEXT
8
TITLE
10
163.937500
20
586.500000
30
0.0
40
2.4000
1
2
72
1
73
2
11
163.937500
21
586.500000
31
0.0
0
TEXT
8
TITLE
10
163.937500
20
7.500000
30
0.0
40
2.4000
1
2
72
1
73
2
11
163.937500
21
7.500000
31
0.0
0
LINE
8
TITLE
10
112.625000
20
5.000000
30
0.0
11
112.625000
21
10.000000
31
0.0
0
LINE
8
TITLE
10
112.625000
20
584.000000
30
0.0
11
112.625000
21
589.000000
31
0.0
0
TEXT
8
TITLE
10
266.562500
20
586.500000
30
0.0
40
2.4000
1
3
72
1
73
2
11
266.562500
21
586.500000
31
0.0
0
TEXT
8
TITLE
10
266.562500
20
7.500000
30
0.0
40
2.4000
1
3
72
1
73
2
11
266.562500
21
7.500000
31
0.0
0
LINE
8
TITLE
10
215.250000
20
5.000000
30
0.0
11
215.250000
21
10.000000
31
0.0
0
LINE
8
TITLE
10
215.250000
20
584.000000
30
0.0
11
215.250000
21
589.000000
31
0.0
0
TEXT
8
TITLE
10
369.187500
20
586.500000
30
0.0
40
2.4000
1
4
72
1
73
2
11
369.187500
21
586.500000
31
0.0
0
TEXT
8
TITLE
10
369.187500
20
7.500000
30
0.0
40
2.4000
1
4
72
1
73
2
11
369.187500
21
7.500000
31
0.0
0
LINE
8
TITLE
10
317.875000
20
5.000000
30
0.0
11
317.875000
21
10.000000
31
0.0
0
LINE
8
TITLE
10
317.875000
20
584.000000
30
0.0
11
317.875000
21
589.000000
31
0.0
0
TEXT
8
TITLE
10
471.812500
20
586.500000
30
0.0
40
2.4000
1
5
72
1
73
2
11
471.812500
21
586.500000
31
0.0
0
TEXT
8
TITLE
10
471.812500
20
7.500000
30
0.0
40
2.4000
1
5
72
1
73
2
11
471.812500
21
7.500000
31
0.0
0
LINE
8
TITLE
10
420.500000
20
5.000000
30
0.0
11
420.500000
21
10.000000
31
0.0
0
LINE
8
TITLE
10
420.500000
20
584.000000
30
0.0
11
420.500000
21
589.000000
31
0.0
0
TEXT
8
TITLE
10
574.437500
20
586.500000
30
0.0
40
2.4000
1
6
72
1
73
2
11
574.437500
21
586.500000
31
0.0
0
TEXT
8
TITLE
10
574.437500
20
7.500000
30
0.0
40
2.4000
1
6
72
1
73
2
11
574.437500
21
7.500000
31
0.0
0
LINE
8
TITLE
10
523.125000
20
5.000000
30
0.0
11
523.125000
21
10.000000
31
0.0
0
LINE
8
TITLE
10
523.125000
20
584.000000
30
0.0
11
523.125000
21
589.000000
31
0.0
0
TEXT
8
TITLE
10
677.062500
20
586.500000
30
0.0
40
2.4000
1
7
72
1
73
2
11
677.062500
21
586.500000
31
0.0
0
TEXT
8
TITLE
10
677.062500
20
7.500000
30
0.0
40
2.4000
1
7
72
1
73
2
11
677.062500
21
7.500000
31
0.0
0
LINE
8
TITLE
10
625.750000
20
5.000000
30
0.0
11
625.750000
21
10.000000
31
0.0
0
LINE
8
TITLE
10
625.750000
20
584.000000
30
0.0
11
625.750000
21
589.000000
31
0.0
0
TEXT
8
TITLE
10
779.687500
20
586.500000
30
0.0
40
2.4000
1
8
72
1
73
2
11
779.687500
21
586.500000
31
0.0
0
TEXT
8
TITLE
10
779.687500
20
7.500000
30
0.0
40
2.4000
1
8
72
1
73
2
11
779.687500
21
7.500000
31
0.0
0
LINE
8
TITLE
10
728.375000
20
5.000000
30
0.0
11
728.375000
21
10.000000
31
0.0
0
LINE
8
TITLE
10
728.375000
20
584.000000
30
0.0
11
728.375000
21
589.000000
31
0.0
0
TEXT
8
TITLE
10
7.500000
20
67.400000
30
0.0
40
2.4000
1
E
72
1
73
2
11
7.500000
21
67.400000
31
0.0
0
TEXT
8
TITLE
10
833.500000
20
67.400000
30
0.0
40
2.4000
1
E
72
1
73
2
11
833.500000
21
67.400000
31
0.0
0
TEXT
8
TITLE
10
7.500000
20
182.200000
30
0.0
40
2.4000
1
D
72
1
73
2
11
7.500000
21
182.200000
31
0.0
0
TEXT
8
TITLE
10
833.500000
20
182.200000
30
0.0
40
2.4000
1
D
72
1
73
2
11
833.500000
21
182.200000
31
0.0
0
LINE
8
TITLE
10
5.000000
20
124.800000
30
0.0
11
10.000000
21
124.800000
31
0.0
0
LINE
8
TITLE
10
831.000000
20
124.800000
30
0.0
11
836.000000
21
124.800000
31
0.0
0
TEXT
8
TITLE
10
7.500000
20
297.000000
30
0.0
40
2.4000
1
C
72
1
73
2
11
7.500000
21
297.000000
31
0.0
0
TEXT
8
TITLE
10
833.500000
20
297.000000
30
0.0
40
2.4000
1
C
72
1
73
2
11
833.500000
21
297.000000
31
0.0
0
LINE
8
TITLE
10
5.000000
20
239.600000
30
0.0
11
10.000000
21
239.600000
31
0.0
0
LINE
8
TITLE
10
831.000000
20
239.600000
30
0.0
11
836.000000
21
239.600000
31
0.0
0
TEXT
8
TITLE
10
7.500000
20
411.800000
30
0.0
40
2.4000
1
B
72
1
73
2
11
7.500000
21
411.800000
31
0.0
0
TEXT
8
TITLE
10
833.500000
20
411.800000
30
0.0
40
2.4000
1
B
72
1
73
2
11
833.500000
21
411.800000
31
0.0
0
LINE
8
TITLE
10
5.000000
20
354.400000
30
0.0
11
10.000000
21
354.400000
31
0.0
0
LINE
8
TITLE
10
831.000000
20
354.400000
30
0.0
11
836.000000
21
354.400000
31
0.0
0
TEXT
8
TITLE
10
7.500000
20
526.600000
30
0.0
40
2.4000
1
A
72
1
73
2
11
7.500000
21
526.600000
31
0.0
0
TEXT
8
TITLE
10
833.500000
20
526.600000
30
0.0
40
2.4000
1
A
72
1
73
2
11
833.500000
21
526.600000
31
0.0
0
LINE
8
TITLE
10
5.000000
20
469.200000
30
0.0
11
10.000000
21
469.200000
31
0.0
0
LINE
8
TITLE
10
831.000000
20
469.200000
30
0.0
11
836.000000
21
469.200000
31
0.0
0
LINE
8
VISIBLE
10
362.500000
20
382.100000
30
0.0
11
362.161821
21
385.533590
31
0.0
0
LINE
8
VISIBLE
10
362.500000
20
267.100000
30
0.0
11
362.500000
21
382.100000
31
0.0
0
LINE
8
VISIBLE
10
362.161821
20
385.533590
30
0.0
11
361.160280
21
388.835228
31
0.0
0
LINE
8
VISIBLE
10
362.161821
20
263.666410
30
0.0
11
362.500000
21
267.100000
31
0.0
0
LINE
8
VISIBLE
10
361.160280
20
388.835228
30
0.0
11
359.533865
21
391.878036
31
0.0
0
LINE
8
VISIBLE
10
361.160280
20
260.364772
30
0.0
11
362.161821
21
263.666410
31
0.0
0
LINE
8
VISIBLE
10
359.533865
20
391.878036
30
0.0
11
357.345079
21
394.545079
31
0.0
0
LINE
8
VISIBLE
10
359.533865
20
257.321964
30
0.0
11
361.160280
21
260.364772
31
0.0
0
LINE
8
VISIBLE
10
357.345079
20
394.545079
30
0.0
11
354.678036
21
396.733865
31
0.0
0
LINE
8
VISIBLE
10
357.345079
20
254.654921
30
0.0
11
359.533865
21
257.321964
31
0.0
0
LINE
8
VISIBLE
10
354.678036
20
396.733865
30
0.0
11
351.635228
21
398.360280
31
0.0
0
LINE
8
VISIBLE
10
354.678036
20
252.466135
30
0.0
11
357.345079
21
254.654921
31
0.0
0
LINE
8
VISIBLE
10
351.635228
20
398.360280
30
0.0
11
348.333590
21
399.361821
31
0.0
0
LINE
8
VISIBLE
10
351.635228
20
250.839720
30
0.0
11
354.678036
21
252.466135
31
0.0
0
LINE
8
VISIBLE
10
348.333590
20
399.361821
30
0.0
11
344.900000
21
399.700000
31
0.0
0
LINE
8
VISIBLE
10
348.333590
20
249.838179
30
0.0
11
351.635228
21
250.839720
31
0.0
0
LINE
8
VISIBLE
10
344.900000
20
399.700000
30
0.0
11
54.900000
21
399.700000
31
0.0
0
LINE
8
VISIBLE
10
344.900000
20
249.500000
30
0.0
11
348.333590
21
249.838179
31
0.0
0
LINE
8
VISIBLE
10
54.900000
20
399.700000
30
0.0
11
51.466410
21
399.361821
31
0.0
0
LINE
8
VISIBLE
10
54.900000
20
249.500000
30
0.0
11
344.900000
21
249.500000
31
0.0
0
LINE
8
VISIBLE
10
51.466410
20
399.361821
30
0.0
11
48.164772
21
398.360280
31
0.0
0
LINE
8
VISIBLE
10
51.466410
20
249.838179
30
0.0
11
54.900000
21
249.500000
31
0.0
0
LINE
8
VISIBLE
10
48.164772
20
398.360280
30
0.0
11
45.121964
21
396.733865
31
0.0
0
LINE
8
VISIBLE
10
48.164772
20
250.839720
30
0.0
11
51.466410
21
249.838179
31
0.0
0
LINE
8
VISIBLE
10
45.121964
20
396.733865
30
0.0
11
42.454921
21
394.545079
31
0.0
0
LINE
8
VISIBLE
10
45.121964
20
252.466135
30
0.0
11
48.164772
21
250.839720
31
0.0
0
LINE
8
VISIBLE
10
42.454921
20
394.545079
30
0.0
11
40.266135
21
391.878036
31
0.0
0
LINE
8
VISIBLE
10
42.454921
20
254.654921
30
0.0
11
45.121964
21
252.466135
31
0.0
0
LINE
8
VISIBLE
10
40.266135
20
391.878036
30
0.0
11
38.639720
21
388.835228
31
0.0
0
LINE
8
VISIBLE
10
40.266135
20
257.321964
30
0.0
11
42.454921
21
254.654921
31
0.0
0
LINE
8
VISIBLE
10
38.639720
20
388.835228
30
0.0
11
37.638179
21
385.533590
31
0.0
0
LINE
8
VISIBLE
10
38.639720
20
260.364772
30
0.0
11
40.266135
21
257.321964
31
0.0
0
LINE
8
VISIBLE
10
37.638179
20
385.533590
30
0.0
11
37.300000
21
382.100000
31
0.0
0
LINE
8
VISIBLE
10
37.638179
20
263.666410
30
0.0
11
38.639720
21
260.364772
31
0.0
0
LINE
8
VISIBLE
10
37.300000
20
382.100000
30
0.0
11
37.300000
21
267.100000
31
0.0
0
LINE
8
VISIBLE
10
37.300000
20
267.100000
30
0.0
11
37.638179
21
263.666410
31
0.0
0
CIRCLE
8
VISIBLE
10
54.900000
20
267.100000
30
0.0
40
6.750000
0
CIRCLE
8
VISIBLE
10
274.150000
20
267.100000
30
0.0
40
2.375000
0
CIRCLE
8
VISIBLE
10
274.150000
20
279.600000
30
0.0
40
2.375000
0
CIRCLE
8
VISIBLE
10
274.150000
20
292.100000
30
0.0
40
2.375000
0
CIRCLE
8
VISIBLE
10
298.150000
20
267.100000
30
0.0
40
2.375000
0
CIRCLE
8
VISIBLE
10
344.900000
20
267.100000
30
0.0
40
6.750000
0
CIRCLE
8
VISIBLE
10
298.150000
20
279.600000
30
0.0
40
2.375000
0
CIRCLE
8
VISIBLE
10
298.150000
20
292.100000
30
0.0
40
2.375000
0
CIRCLE
8
VISIBLE
10
274.150000
20
304.600000
30
0.0
40
2.375000
0
CIRCLE
8
VISIBLE
10
210.900000
20
322.600000
30
0.0
40
2.500000
0
CIRCLE
8
VISIBLE
10
298.150000
20
304.600000
30
0.0
40
2.375000
0
CIRCLE
8
VISIBLE
10
322.400000
20
294.850000
30
0.0
40
2.375000
0
CIRCLE
8
VISIBLE
10
346.400000
20
294.850000
30
0.0
40
2.375000
0
CIRCLE
8
VISIBLE
10
322.400000
20
307.350000
30
0.0
40
2.375000
0
CIRCLE
8
VISIBLE
10
346.400000
20
307.350000
30
0.0
40
2.375000
0
CIRCLE
8
VISIBLE
10
322.400000
20
319.850000
30
0.0
40
2.375000
0
CIRCLE
8
VISIBLE
10
346.400000
20
319.850000
30
0.0
40
2.375000
0
CIRCLE
8
VISIBLE
10
54.900000
20
382.100000
30
0.0
40
6.750000
0
CIRCLE
8
VISIBLE
10
79.250000
20
375.750000
30
0.0
40
2.550000
0
CIRCLE
8
VISIBLE
10
85.600000
20
382.100000
30
0.0
40
5.000000
0
CIRCLE
8
VISIBLE
10
79.250000
20
388.450000
30
0.0
40
2.550000
0
CIRCLE
8
VISIBLE
10
91.950000
20
375.750000
30
0.0
40
2.550000
0
CIRCLE
8
VISIBLE
10
104.650000
20
375.750000
30
0.0
40
2.550000
0
CIRCLE
8
VISIBLE
10
117.350000
20
375.750000
30
0.0
40
2.550000
0
CIRCLE
8
VISIBLE
10
91.950000
20
388.450000
30
0.0
40
2.550000
0
CIRCLE
8
VISIBLE
10
104.650000
20
388.450000
30
0.0
40
2.550000
0
CIRCLE
8
VISIBLE
10
117.350000
20
388.450000
30
0.0
40
2.550000
0
CIRCLE
8
VISIBLE
10
130.050000
20
375.750000
30
0.0
40
2.550000
0
CIRCLE
8
VISIBLE
10
142.750000
20
375.750000
30
0.0
40
2.550000
0
CIRCLE
8
VISIBLE
10
155.450000
20
375.750000
30
0.0
40
2.550000
0
CIRCLE
8
VISIBLE
10
130.050000
20
388.450000
30
0.0
40
2.550000
0
CIRCLE
8
VISIBLE
10
142.750000
20
388.450000
30
0.0
40
2.550000
0
CIRCLE
8
VISIBLE
10
155.450000
20
388.450000
30
0.0
40
2.550000
0
CIRCLE
8
VISIBLE
10
168.150000
20
375.750000
30
0.0
40
2.550000
0
CIRCLE
8
VISIBLE
10
180.850000
20
375.750000
30
0.0
40
2.550000
0
CIRCLE
8
VISIBLE
10
193.550000
20
375.750000
30
0.0
40
2.550000
0
CIRCLE
8
VISIBLE
10
168.150000
20
388.450000
30
0.0
40
2.550000
0
CIRCLE
8
VISIBLE
10
180.850000
20
388.450000
30
0.0
40
2.550000
0
CIRCLE
8
VISIBLE
10
193.550000
20
388.450000
30
0.0
40
2.550000
0
CIRCLE
8
VISIBLE
10
206.250000
20
375.750000
30
0.0
40
2.550000
0
CIRCLE
8
VISIBLE
10
218.950000
20
375.750000
30
0.0
40
2.550000
0
CIRCLE
8
VISIBLE
10
231.650000
20
375.750000
30
0.0
40
2.550000
0
CIRCLE
8
VISIBLE
10
206.250000
20
388.450000
30
0.0
40
2.550000
0
CIRCLE
8
VISIBLE
10
218.950000
20
388.450000
30
0.0
40
2.550000
0
CIRCLE
8
VISIBLE
10
231.650000
20
388.450000
30
0.0
40
2.550000
0
CIRCLE
8
VISIBLE
10
244.350000
20
375.750000
30
0.0
40
2.550000
0
CIRCLE
8
VISIBLE
10
257.050000
20
375.750000
30
0.0
40
2.550000
0
CIRCLE
8
VISIBLE
10
269.750000
20
375.750000
30
0.0
40
2.550000
0
CIRCLE
8
VISIBLE
10
244.350000
20
388.450000
30
0.0
40
2.550000
0
CIRCLE
8
VISIBLE
10
257.050000
20
388.450000
30
0.0
40
2.550000
0
CIRCLE
8
VISIBLE
10
269.750000
20
388.450000
30
0.0
40
2.550000
0
CIRCLE
8
VISIBLE
10
282.450000
20
375.750000
30
0.0
40
2.550000
0
CIRCLE
8
VISIBLE
10
295.150000
20
375.750000
30
0.0
40
2.550000
0
CIRCLE
8
VISIBLE
10
307.850000
20
375.750000
30
0.0
40
2.550000
0
CIRCLE
8
VISIBLE
10
282.450000
20
388.450000
30
0.0
40
2.550000
0
CIRCLE
8
VISIBLE
10
295.150000
20
388.450000
30
0.0
40
2.550000
0
CIRCLE
8
VISIBLE
10
307.850000
20
388.450000
30
0.0
40
2.550000
0
CIRCLE
8
VISIBLE
10
320.550000
20
375.750000
30
0.0
40
2.550000
0
CIRCLE
8
VISIBLE
10
314.200000
20
382.100000
30
0.0
40
5.000000
0
CIRCLE
8
VISIBLE
10
344.900000
20
382.100000
30
0.0
40
6.750000
0
CIRCLE
8
VISIBLE
10
320.550000
20
388.450000
30
0.0
40
2.550000
0
LINE
8
VISIBLE
10
37.300000
20
194.300000
30
0.0
11
37.300000
21
198.500000
31
0.0
0
LINE
8
VISIBLE
10
37.638179
20
194.300000
30
0.0
11
37.300000
21
194.300000
31
0.0
0
LINE
8
VISIBLE
10
38.639720
20
194.300000
30
0.0
11
37.638179
21
194.300000
31
0.0
0
LINE
8
VISIBLE
10
40.266135
20
194.300000
30
0.0
11
38.639720
21
194.300000
31
0.0
0
LINE
8
VISIBLE
10
42.454921
20
194.300000
30
0.0
11
40.266135
21
194.300000
31
0.0
0
LINE
8
VISIBLE
10
45.121964
20
194.300000
30
0.0
11
42.454921
21
194.300000
31
0.0
0
LINE
8
VISIBLE
10
48.164772
20
194.300000
30
0.0
11
45.121964
21
194.300000
31
0.0
0
LINE
8
VISIBLE
10
51.466410
20
194.300000
30
0.0
11
48.164772
21
194.300000
31
0.0
0
LINE
8
VISIBLE
10
54.900000
20
194.300000
30
0.0
11
51.466410
21
194.300000
31
0.0
0
LINE
8
VISIBLE
10
344.900000
20
194.300000
30
0.0
11
54.900000
21
194.300000
31
0.0
0
LINE
8
VISIBLE
10
348.333590
20
194.300000
30
0.0
11
344.900000
21
194.300000
31
0.0
0
LINE
8
VISIBLE
10
351.635228
20
194.300000
30
0.0
11
348.333590
21
194.300000
31
0.0
0
LINE
8
VISIBLE
10
354.678036
20
194.300000
30
0.0
11
351.635228
21
194.300000
31
0.0
0
LINE
8
VISIBLE
10
357.345079
20
194.300000
30
0.0
11
354.678036
21
194.300000
31
0.0
0
LINE
8
VISIBLE
10
359.533865
20
194.300000
30
0.0
11
357.345079
21
194.300000
31
0.0
0
LINE
8
VISIBLE
10
361.160280
20
194.300000
30
0.0
11
359.533865
21
194.300000
31
0.0
0
LINE
8
VISIBLE
10
362.161821
20
194.300000
30
0.0
11
361.160280
21
194.300000
31
0.0
0
LINE
8
VISIBLE
10
362.500000
20
194.300000
30
0.0
11
362.161821
21
194.300000
31
0.0
0
LINE
8
VISIBLE
10
37.638179
20
198.500000
30
0.0
11
37.300000
21
198.500000
31
0.0
0
LINE
8
VISIBLE
10
38.639720
20
198.500000
30
0.0
11
37.638179
21
198.500000
31
0.0
0
LINE
8
VISIBLE
10
40.266135
20
198.500000
30
0.0
11
38.639720
21
198.500000
31
0.0
0
LINE
8
VISIBLE
10
42.454921
20
198.500000
30
0.0
11
40.266135
21
198.500000
31
0.0
0
LINE
8
VISIBLE
10
45.121964
20
198.500000
30
0.0
11
42.454921
21
198.500000
31
0.0
0
LINE
8
VISIBLE
10
48.164772
20
198.500000
30
0.0
11
45.121964
21
198.500000
31
0.0
0
LINE
8
VISIBLE
10
51.466410
20
198.500000
30
0.0
11
48.164772
21
198.500000
31
0.0
0
LINE
8
VISIBLE
10
54.900000
20
198.500000
30
0.0
11
51.466410
21
198.500000
31
0.0
0
LINE
8
VISIBLE
10
344.900000
20
198.500000
30
0.0
11
54.900000
21
198.500000
31
0.0
0
LINE
8
VISIBLE
10
348.333590
20
198.500000
30
0.0
11
344.900000
21
198.500000
31
0.0
0
LINE
8
VISIBLE
10
351.635228
20
198.500000
30
0.0
11
348.333590
21
198.500000
31
0.0
0
LINE
8
VISIBLE
10
354.678036
20
198.500000
30
0.0
11
351.635228
21
198.500000
31
0.0
0
LINE
8
VISIBLE
10
357.345079
20
198.500000
30
0.0
11
354.678036
21
198.500000
31
0.0
0
LINE
8
VISIBLE
10
359.533865
20
198.500000
30
0.0
11
357.345079
21
198.500000
31
0.0
0
LINE
8
VISIBLE
10
361.160280
20
198.500000
30
0.0
11
359.533865
21
198.500000
31
0.0
0
LINE
8
VISIBLE
10
362.161821
20
198.500000
30
0.0
11
361.160280
21
198.500000
31
0.0
0
LINE
8
VISIBLE
10
362.500000
20
198.500000
30
0.0
11
362.161821
21
198.500000
31
0.0
0
LINE
8
VISIBLE
10
37.638179
20
194.300000
30
0.0
11
37.638179
21
198.500000
31
0.0
0
LINE
8
VISIBLE
10
38.639720
20
194.300000
30
0.0
11
38.639720
21
198.500000
31
0.0
0
LINE
8
VISIBLE
10
40.266135
20
194.300000
30
0.0
11
40.266135
21
198.500000
31
0.0
0
LINE
8
VISIBLE
10
42.454921
20
194.300000
30
0.0
11
42.454921
21
198.500000
31
0.0
0
LINE
8
VISIBLE
10
45.121964
20
194.300000
30
0.0
11
45.121964
21
198.500000
31
0.0
0
LINE
8
VISIBLE
10
48.164772
20
194.300000
30
0.0
11
48.164772
21
198.500000
31
0.0
0
LINE
8
VISIBLE
10
51.466410
20
194.300000
30
0.0
11
51.466410
21
198.500000
31
0.0
0
LINE
8
VISIBLE
10
54.900000
20
194.300000
30
0.0
11
54.900000
21
198.500000
31
0.0
0
LINE
8
VISIBLE
10
344.900000
20
194.300000
30
0.0
11
344.900000
21
198.500000
31
0.0
0
LINE
8
VISIBLE
10
348.333590
20
194.300000
30
0.0
11
348.333590
21
198.500000
31
0.0
0
LINE
8
VISIBLE
10
351.635228
20
194.300000
30
0.0
11
351.635228
21
198.500000
31
0.0
0
LINE
8
VISIBLE
10
354.678036
20
194.300000
30
0.0
11
354.678036
21
198.500000
31
0.0
0
LINE
8
VISIBLE
10
357.345079
20
194.300000
30
0.0
11
357.345079
21
198.500000
31
0.0
0
LINE
8
VISIBLE
10
359.533865
20
194.300000
30
0.0
11
359.533865
21
198.500000
31
0.0
0
LINE
8
VISIBLE
10
361.160280
20
194.300000
30
0.0
11
361.160280
21
198.500000
31
0.0
0
LINE
8
VISIBLE
10
362.161821
20
194.300000
30
0.0
11
362.161821
21
198.500000
31
0.0
0
LINE
8
VISIBLE
10
362.500000
20
194.300000
30
0.0
11
362.500000
21
198.500000
31
0.0
0
LINE
8
SECTION
10
400.500000
20
326.700000
30
0.0
11
415.810895
21
326.700000
31
0.0
0
LINE
8
SECTION
10
415.810895
20
322.500000
30
0.0
11
415.810895
21
326.700000
31
0.0
0
LINE
8
SECTION
10
400.500000
20
322.500000
30
0.0
11
415.810895
21
322.500000
31
0.0
0
LINE
8
SECTION
10
400.500000
20
326.700000
30
0.0
11
400.500000
21
322.500000
31
0.0
0
LINE
8
SECTION
10
710.389105
20
322.500000
30
0.0
11
710.389105
21
326.700000
31
0.0
0
LINE
8
SECTION
10
710.389105
20
326.700000
30
0.0
11
725.700000
21
326.700000
31
0.0
0
LINE
8
SECTION
10
725.700000
20
322.500000
30
0.0
11
725.700000
21
326.700000
31
0.0
0
LINE
8
SECTION
10
710.389105
20
322.500000
30
0.0
11
725.700000
21
322.500000
31
0.0
0
LINE
8
SECTION
10
686.300000
20
322.500000
30
0.0
11
686.300000
21
326.700000
31
0.0
0
LINE
8
SECTION
10
686.300000
20
326.700000
30
0.0
11
705.810895
21
326.700000
31
0.0
0
LINE
8
SECTION
10
705.810895
20
322.500000
30
0.0
11
705.810895
21
326.700000
31
0.0
0
LINE
8
SECTION
10
686.300000
20
322.500000
30
0.0
11
705.810895
21
322.500000
31
0.0
0
LINE
8
SECTION
10
673.600000
20
322.500000
30
0.0
11
681.200000
21
322.500000
31
0.0
0
LINE
8
SECTION
10
673.600000
20
322.500000
30
0.0
11
673.600000
21
326.700000
31
0.0
0
LINE
8
SECTION
10
673.600000
20
326.700000
30
0.0
11
681.200000
21
326.700000
31
0.0
0
LINE
8
SECTION
10
681.200000
20
322.500000
30
0.0
11
681.200000
21
326.700000
31
0.0
0
LINE
8
SECTION
10
660.900000
20
322.500000
30
0.0
11
668.500000
21
322.500000
31
0.0
0
LINE
8
SECTION
10
660.900000
20
322.500000
30
0.0
11
660.900000
21
326.700000
31
0.0
0
LINE
8
SECTION
10
660.900000
20
326.700000
30
0.0
11
668.500000
21
326.700000
31
0.0
0
LINE
8
SECTION
10
668.500000
20
322.500000
30
0.0
11
668.500000
21
326.700000
31
0.0
0
LINE
8
SECTION
10
648.200000
20
322.500000
30
0.0
11
655.800000
21
322.500000
31
0.0
0
LINE
8
SECTION
10
648.200000
20
322.500000
30
0.0
11
648.200000
21
326.700000
31
0.0
0
LINE
8
SECTION
10
648.200000
20
326.700000
30
0.0
11
655.800000
21
326.700000
31
0.0
0
LINE
8
SECTION
10
655.800000
20
322.500000
30
0.0
11
655.800000
21
326.700000
31
0.0
0
LINE
8
SECTION
10
635.500000
20
322.500000
30
0.0
11
643.100000
21
322.500000
31
0.0
0
LINE
8
SECTION
10
635.500000
20
322.500000
30
0.0
11
635.500000
21
326.700000
31
0.0
0
LINE
8
SECTION
10
635.500000
20
326.700000
30
0.0
11
643.100000
21
326.700000
31
0.0
0
LINE
8
SECTION
10
643.100000
20
322.500000
30
0.0
11
643.100000
21
326.700000
31
0.0
0
LINE
8
SECTION
10
622.800000
20
322.500000
30
0.0
11
630.400000
21
322.500000
31
0.0
0
LINE
8
SECTION
10
622.800000
20
322.500000
30
0.0
11
622.800000
21
326.700000
31
0.0
0
LINE
8
SECTION
10
622.800000
20
326.700000
30
0.0
11
630.400000
21
326.700000
31
0.0
0
LINE
8
SECTION
10
630.400000
20
322.500000
30
0.0
11
630.400000
21
326.700000
31
0.0
0
LINE
8
SECTION
10
610.100000
20
322.500000
30
0.0
11
617.700000
21
322.500000
31
0.0
0
LINE
8
SECTION
10
610.100000
20
322.500000
30
0.0
11
610.100000
21
326.700000
31
0.0
0
LINE
8
SECTION
10
610.100000
20
326.700000
30
0.0
11
617.700000
21
326.700000
31
0.0
0
LINE
8
SECTION
10
617.700000
20
322.500000
30
0.0
11
617.700000
21
326.700000
31
0.0
0
LINE
8
SECTION
10
597.400000
20
322.500000
30
0.0
11
605.000000
21
322.500000
31
0.0
0
LINE
8
SECTION
10
597.400000
20
322.500000
30
0.0
11
597.400000
21
326.700000
31
0.0
0
LINE
8
SECTION
10
597.400000
20
326.700000
30
0.0
11
605.000000
21
326.700000
31
0.0
0
LINE
8
SECTION
10
605.000000
20
322.500000
30
0.0
11
605.000000
21
326.700000
31
0.0
0
LINE
8
SECTION
10
584.700000
20
322.500000
30
0.0
11
592.300000
21
322.500000
31
0.0
0
LINE
8
SECTION
10
584.700000
20
322.500000
30
0.0
11
584.700000
21
326.700000
31
0.0
0
LINE
8
SECTION
10
584.700000
20
326.700000
30
0.0
11
592.300000
21
326.700000
31
0.0
0
LINE
8
SECTION
10
592.300000
20
322.500000
30
0.0
11
592.300000
21
326.700000
31
0.0
0
LINE
8
SECTION
10
572.000000
20
322.500000
30
0.0
11
579.600000
21
322.500000
31
0.0
0
LINE
8
SECTION
10
572.000000
20
322.500000
30
0.0
11
572.000000
21
326.700000
31
0.0
0
LINE
8
SECTION
10
572.000000
20
326.700000
30
0.0
11
579.600000
21
326.700000
31
0.0
0
LINE
8
SECTION
10
579.600000
20
322.500000
30
0.0
11
579.600000
21
326.700000
31
0.0
0
LINE
8
SECTION
10
559.300000
20
322.500000
30
0.0
11
566.900000
21
322.500000
31
0.0
0
LINE
8
SECTION
10
559.300000
20
322.500000
30
0.0
11
559.300000
21
326.700000
31
0.0
0
LINE
8
SECTION
10
559.300000
20
326.700000
30
0.0
11
566.900000
21
326.700000
31
0.0
0
LINE
8
SECTION
10
566.900000
20
322.500000
30
0.0
11
566.900000
21
326.700000
31
0.0
0
LINE
8
SECTION
10
546.600000
20
322.500000
30
0.0
11
554.200000
21
322.500000
31
0.0
0
LINE
8
SECTION
10
546.600000
20
322.500000
30
0.0
11
546.600000
21
326.700000
31
0.0
0
LINE
8
SECTION
10
546.600000
20
326.700000
30
0.0
11
554.200000
21
326.700000
31
0.0
0
LINE
8
SECTION
10
554.200000
20
322.500000
30
0.0
11
554.200000
21
326.700000
31
0.0
0
LINE
8
SECTION
10
533.900000
20
322.500000
30
0.0
11
541.500000
21
322.500000
31
0.0
0
LINE
8
SECTION
10
533.900000
20
322.500000
30
0.0
11
533.900000
21
326.700000
31
0.0
0
LINE
8
SECTION
10
533.900000
20
326.700000
30
0.0
11
541.500000
21
326.700000
31
0.0
0
LINE
8
SECTION
10
541.500000
20
322.500000
30
0.0
11
541.500000
21
326.700000
31
0.0
0
LINE
8
SECTION
10
521.200000
20
322.500000
30
0.0
11
528.800000
21
322.500000
31
0.0
0
LINE
8
SECTION
10
521.200000
20
322.500000
30
0.0
11
521.200000
21
326.700000
31
0.0
0
LINE
8
SECTION
10
521.200000
20
326.700000
30
0.0
11
528.800000
21
326.700000
31
0.0
0
LINE
8
SECTION
10
528.800000
20
322.500000
30
0.0
11
528.800000
21
326.700000
31
0.0
0
LINE
8
SECTION
10
508.500000
20
322.500000
30
0.0
11
516.100000
21
322.500000
31
0.0
0
LINE
8
SECTION
10
508.500000
20
322.500000
30
0.0
11
508.500000
21
326.700000
31
0.0
0
LINE
8
SECTION
10
508.500000
20
326.700000
30
0.0
11
516.100000
21
326.700000
31
0.0
0
LINE
8
SECTION
10
516.100000
20
322.500000
30
0.0
11
516.100000
21
326.700000
31
0.0
0
LINE
8
SECTION
10
495.800000
20
322.500000
30
0.0
11
503.400000
21
322.500000
31
0.0
0
LINE
8
SECTION
10
495.800000
20
322.500000
30
0.0
11
495.800000
21
326.700000
31
0.0
0
LINE
8
SECTION
10
495.800000
20
326.700000
30
0.0
11
503.400000
21
326.700000
31
0.0
0
LINE
8
SECTION
10
503.400000
20
322.500000
30
0.0
11
503.400000
21
326.700000
31
0.0
0
LINE
8
SECTION
10
483.100000
20
322.500000
30
0.0
11
490.700000
21
322.500000
31
0.0
0
LINE
8
SECTION
10
483.100000
20
322.500000
30
0.0
11
483.100000
21
326.700000
31
0.0
0
LINE
8
SECTION
10
483.100000
20
326.700000
30
0.0
11
490.700000
21
326.700000
31
0.0
0
LINE
8
SECTION
10
490.700000
20
322.500000
30
0.0
11
490.700000
21
326.700000
31
0.0
0
LINE
8
SECTION
10
470.400000
20
322.500000
30
0.0
11
478.000000
21
322.500000
31
0.0
0
LINE
8
SECTION
10
470.400000
20
322.500000
30
0.0
11
470.400000
21
326.700000
31
0.0
0
LINE
8
SECTION
10
470.400000
20
326.700000
30
0.0
11
478.000000
21
326.700000
31
0.0
0
LINE
8
SECTION
10
478.000000
20
322.500000
30
0.0
11
478.000000
21
326.700000
31
0.0
0
LINE
8
SECTION
10
457.700000
20
322.500000
30
0.0
11
465.300000
21
322.500000
31
0.0
0
LINE
8
SECTION
10
457.700000
20
322.500000
30
0.0
11
457.700000
21
326.700000
31
0.0
0
LINE
8
SECTION
10
457.700000
20
326.700000
30
0.0
11
465.300000
21
326.700000
31
0.0
0
LINE
8
SECTION
10
465.300000
20
322.500000
30
0.0
11
465.300000
21
326.700000
31
0.0
0
LINE
8
SECTION
10
445.000000
20
322.500000
30
0.0
11
452.600000
21
322.500000
31
0.0
0
LINE
8
SECTION
10
445.000000
20
322.500000
30
0.0
11
445.000000
21
326.700000
31
0.0
0
LINE
8
SECTION
10
445.000000
20
326.700000
30
0.0
11
452.600000
21
326.700000
31
0.0
0
LINE
8
SECTION
10
452.600000
20
322.500000
30
0.0
11
452.600000
21
326.700000
31
0.0
0
LINE
8
SECTION
10
420.389105
20
322.500000
30
0.0
11
439.900000
21
322.500000
31
0.0
0
LINE
8
SECTION
10
420.389105
20
322.500000
30
0.0
11
420.389105
21
326.700000
31
0.0
0
LINE
8
SECTION
10
420.389105
20
326.700000
30
0.0
11
439.900000
21
326.700000
31
0.0
0
LINE
8
SECTION
10
439.900000
20
322.500000
30
0.0
11
439.900000
21
326.700000
31
0.0
0
LINE
8
VISIBLE
10
775.822959
20
529.486854
30
0.0
11
776.403511
21
529.211777
31
0.0
0
LINE
8
VISIBLE
10
758.122105
20
539.706447
30
0.0
11
775.822959
21
529.486854
31
0.0
0
LINE
8
VISIBLE
10
776.403511
20
529.211777
30
0.0
11
777.065859
21
529.007377
31
0.0
0
LINE
8
VISIBLE
10
757.645658
20
540.041629
30
0.0
11
758.122105
21
539.706447
31
0.0
0
LINE
8
VISIBLE
10
777.065859
20
529.007377
30
0.0
11
777.784547
21
528.881507
31
0.0
0
LINE
8
VISIBLE
10
757.291625
20
540.424035
30
0.0
11
757.645658
21
540.041629
31
0.0
0
LINE
8
VISIBLE
10
777.784547
20
528.881507
30
0.0
11
778.531959
21
528.839007
31
0.0
0
LINE
8
VISIBLE
10
757.073614
20
540.838971
30
0.0
11
757.291625
21
540.424035
31
0.0
0
LINE
8
VISIBLE
10
778.531959
20
528.839007
30
0.0
11
779.279370
21
528.881507
31
0.0
0
LINE
8
VISIBLE
10
757.000000
20
541.270489
30
0.0
11
757.073614
21
540.838971
31
0.0
0
LINE
8
VISIBLE
10
779.279370
20
528.881507
30
0.0
11
779.998059
21
529.007377
31
0.0
0
LINE
8
VISIBLE
10
757.073614
20
541.702007
30
0.0
11
757.000000
21
541.270489
31
0.0
0
LINE
8
VISIBLE
10
779.998059
20
529.007377
30
0.0
11
780.660407
21
529.211777
31
0.0
0
LINE
8
VISIBLE
10
757.291625
20
542.116942
30
0.0
11
757.073614
21
541.702007
31
0.0
0
LINE
8
VISIBLE
10
780.660407
20
529.211777
30
0.0
11
781.240959
21
529.486854
31
0.0
0
LINE
8
VISIBLE
10
757.645658
20
542.499349
30
0.0
11
757.291625
21
542.116942
31
0.0
0
LINE
8
VISIBLE
10
781.240959
20
529.486854
30
0.0
11
825.877895
21
555.258001
31
0.0
0
LINE
8
VISIBLE
10
758.122105
20
542.834531
30
0.0
11
757.645658
21
542.499349
31
0.0
0
LINE
8
VISIBLE
10
825.877895
20
555.258001
30
0.0
11
826.354342
21
555.593183
31
0.0
0
LINE
8
VISIBLE
10
802.759041
20
568.605678
30
0.0
11
758.122105
21
542.834531
31
0.0
0
LINE
8
VISIBLE
10
826.354342
20
555.593183
30
0.0
11
826.708375
21
555.975590
31
0.0
0
LINE
8
VISIBLE
10
803.339593
20
568.880755
30
0.0
11
802.759041
21
568.605678
31
0.0
0
LINE
8
VISIBLE
10
826.708375
20
555.975590
30
0.0
11
826.926386
21
556.390525
31
0.0
0
LINE
8
VISIBLE
10
804.001941
20
569.085155
30
0.0
11
803.339593
21
568.880755
31
0.0
0
LINE
8
VISIBLE
10
826.926386
20
556.390525
30
0.0
11
827.000000
21
556.822043
31
0.0
0
LINE
8
VISIBLE
10
804.720630
20
569.211025
30
0.0
11
804.001941
21
569.085155
31
0.0
0
LINE
8
VISIBLE
10
827.000000
20
556.822043
30
0.0
11
826.926386
21
557.253561
31
0.0
0
LINE
8
VISIBLE
10
805.468041
20
569.253525
30
0.0
11
804.720630
21
569.211025
31
0.0
0
LINE
8
VISIBLE
10
826.926386
20
557.253561
30
0.0
11
826.708375
21
557.668497
31
0.0
0
LINE
8
VISIBLE
10
806.215453
20
569.211025
30
0.0
11
805.468041
21
569.253525
31
0.0
0
LINE
8
VISIBLE
10
826.708375
20
557.668497
30
0.0
11
826.354342
21
558.050903
31
0.0
0
LINE
8
VISIBLE
10
806.934141
20
569.085155
30
0.0
11
806.215453
21
569.211025
31
0.0
0
LINE
8
VISIBLE
10
826.354342
20
558.050903
30
0.0
11
825.877895
21
558.386085
31
0.0
0
LINE
8
VISIBLE
10
807.596489
20
568.880755
30
0.0
11
806.934141
21
569.085155
31
0.0
0
LINE
8
VISIBLE
10
825.877895
20
558.386085
30
0.0
11
808.177041
21
568.605678
31
0.0
0
LINE
8
VISIBLE
10
808.177041
20
568.605678
30
0.0
11
807.596489
21
568.880755
31
0.0
0
LINE
8
VISIBLE
10
804.429078
20
566.441790
30
0.0
11
805.307776
21
566.198387
31
0.0
0
LINE
8
VISIBLE
10
805.307776
20
566.198387
30
0.0
11
806.342507
21
566.359923
31
0.0
0
LINE
8
VISIBLE
10
806.342507
20
566.359923
30
0.0
11
806.780244
21
566.659968
31
0.0
0
LINE
8
VISIBLE
10
806.780244
20
566.659968
30
0.0
11
806.937357
21
567.041636
31
0.0
0
LINE
8
VISIBLE
10
806.937357
20
567.041636
30
0.0
11
806.706220
21
567.498365
31
0.0
0
LINE
8
VISIBLE
10
806.706220
20
567.498365
30
0.0
11
805.992338
21
567.834101
31
0.0
0
LINE
8
VISIBLE
10
805.992338
20
567.834101
30
0.0
11
804.940893
21
567.833470
31
0.0
0
LINE
8
VISIBLE
10
804.940893
20
567.833470
30
0.0
11
804.167663
21
567.436564
31
0.0
0
LINE
8
VISIBLE
10
804.167663
20
567.436564
30
0.0
11
803.998725
21
567.041636
31
0.0
0
LINE
8
VISIBLE
10
803.998725
20
567.041636
30
0.0
11
804.429078
21
566.441790
31
0.0
0
LINE
8
VISIBLE
10
771.355417
20
547.346703
30
0.0
11
771.900394
21
547.277832
31
0.0
0
LINE
8
VISIBLE
10
771.900394
20
547.277832
30
0.0
11
772.237960
21
547.557760
31
0.0
0
LINE
8
VISIBLE
10
772.237960
20
547.557760
30
0.0
11
772.018126
21
547.802009
31
0.0
0
LINE
8
VISIBLE
10
772.018126
20
547.802009
30
0.0
11
771.440684
21
547.808562
31
0.0
0
LINE
8
VISIBLE
10
771.440684
20
547.808562
30
0.0
11
771.203997
21
547.557760
31
0.0
0
LINE
8
VISIBLE
10
771.203997
20
547.557760
30
0.0
11
771.355417
21
547.346703
31
0.0
0
LINE
8
VISIBLE
10
773.279423
20
546.235878
30
0.0
11
773.824400
21
546.167006
31
0.0
0
LINE
8
VISIBLE
10
773.824400
20
546.167006
30
0.0
11
774.161965
21
546.446935
31
0.0
0
LINE
8
VISIBLE
10
774.161965
20
546.446935
30
0.0
11
773.942132
21
546.691184
31
0.0
0
LINE
8
VISIBLE
10
773.942132
20
546.691184
30
0.0
11
773.364689
21
546.697737
31
0.0
0
LINE
8
VISIBLE
10
773.364689
20
546.697737
30
0.0
11
773.128003
21
546.446935
31
0.0
0
LINE
8
VISIBLE
10
773.128003
20
546.446935
30
0.0
11
773.279423
21
546.235878
31
0.0
0
LINE
8
VISIBLE
10
775.203429
20
545.125053
30
0.0
11
775.748406
21
545.056181
31
0.0
0
LINE
8
VISIBLE
10
775.748406
20
545.056181
30
0.0
11
776.085971
21
545.336109
31
0.0
0
LINE
8
VISIBLE
10
776.085971
20
545.336109
30
0.0
11
775.866138
21
545.580359
31
0.0
0
LINE
8
VISIBLE
10
775.866138
20
545.580359
30
0.0
11
775.288695
21
545.586911
31
0.0
0
LINE
8
VISIBLE
10
775.288695
20
545.586911
30
0.0
11
775.052008
21
545.336109
31
0.0
0
LINE
8
VISIBLE
10
775.052008
20
545.336109
30
0.0
11
775.203429
21
545.125053
31
0.0
0
LINE
8
VISIBLE
10
767.661326
20
545.213919
30
0.0
11
768.206303
21
545.145047
31
0.0
0
LINE
8
VISIBLE
10
768.206303
20
545.145047
30
0.0
11
768.543868
21
545.424975
31
0.0
0
LINE
8
VISIBLE
10
768.543868
20
545.424975
30
0.0
11
768.324035
21
545.669225
31
0.0
0
LINE
8
VISIBLE
10
768.324035
20
545.669225
30
0.0
11
767.746592
21
545.675777
31
0.0
0
LINE
8
VISIBLE
10
767.746592
20
545.675777
30
0.0
11
767.509905
21
545.424975
31
0.0
0
LINE
8
VISIBLE
10
767.509905
20
545.424975
30
0.0
11
767.661326
21
545.213919
31
0.0
0
LINE
8
VISIBLE
10
759.792142
20
540.670643
30
0.0
11
760.670840
21
540.427240
31
0.0
0
LINE
8
VISIBLE
10
760.670840
20
540.427240
30
0.0
11
761.705571
21
540.588776
31
0.0
0
LINE
8
VISIBLE
10
761.705571
20
540.588776
30
0.0
11
762.143308
21
540.888821
31
0.0
0
LINE
8
VISIBLE
10
762.143308
20
540.888821
30
0.0
11
762.300421
21
541.270489
31
0.0
0
LINE
8
VISIBLE
10
762.300421
20
541.270489
30
0.0
11
762.069283
21
541.727217
31
0.0
0
LINE
8
VISIBLE
10
762.069283
20
541.727217
30
0.0
11
761.355401
21
542.062954
31
0.0
0
LINE
8
VISIBLE
10
761.355401
20
542.062954
30
0.0
11
760.303957
21
542.062323
31
0.0
0
LINE
8
VISIBLE
10
760.303957
20
542.062323
30
0.0
11
759.530726
21
541.665417
31
0.0
0
LINE
8
VISIBLE
10
759.530726
20
541.665417
30
0.0
11
759.361789
21
541.270489
31
0.0
0
LINE
8
VISIBLE
10
759.361789
20
541.270489
30
0.0
11
759.792142
21
540.670643
31
0.0
0
LINE
8
VISIBLE
10
769.585332
20
544.103093
30
0.0
11
770.130309
21
544.034222
31
0.0
0
LINE
8
VISIBLE
10
770.130309
20
544.034222
30
0.0
11
770.467874
21
544.314150
31
0.0
0
LINE
8
VISIBLE
10
770.467874
20
544.314150
30
0.0
11
770.248041
21
544.558399
31
0.0
0
LINE
8
VISIBLE
10
770.248041
20
544.558399
30
0.0
11
769.670598
21
544.564952
31
0.0
0
LINE
8
VISIBLE
10
769.670598
20
544.564952
30
0.0
11
769.433911
21
544.314150
31
0.0
0
LINE
8
VISIBLE
10
769.433911
20
544.314150
30
0.0
11
769.585332
21
544.103093
31
0.0
0
LINE
8
VISIBLE
10
771.509337
20
542.992268
30
0.0
11
772.054314
21
542.923396
31
0.0
0
LINE
8
VISIBLE
10
772.054314
20
542.923396
30
0.0
11
772.391880
21
543.203325
31
0.0
0
LINE
8
VISIBLE
10
772.391880
20
543.203325
30
0.0
11
772.172046
21
543.447574
31
0.0
0
LINE
8
VISIBLE
10
772.172046
20
543.447574
30
0.0
11
771.594604
21
543.454127
31
0.0
0
LINE
8
VISIBLE
10
771.594604
20
543.454127
30
0.0
11
771.357917
21
543.203325
31
0.0
0
LINE
8
VISIBLE
10
771.357917
20
543.203325
30
0.0
11
771.509337
21
542.992268
31
0.0
0
LINE
8
VISIBLE
10
777.127435
20
544.014227
30
0.0
11
777.672412
21
543.945356
31
0.0
0
LINE
8
VISIBLE
10
777.672412
20
543.945356
30
0.0
11
778.009977
21
544.225284
31
0.0
0
LINE
8
VISIBLE
10
778.009977
20
544.225284
30
0.0
11
777.790144
21
544.469533
31
0.0
0
LINE
8
VISIBLE
10
777.790144
20
544.469533
30
0.0
11
777.212701
21
544.476086
31
0.0
0
LINE
8
VISIBLE
10
777.212701
20
544.476086
30
0.0
11
776.976014
21
544.225284
31
0.0
0
LINE
8
VISIBLE
10
776.976014
20
544.225284
30
0.0
11
777.127435
21
544.014227
31
0.0
0
LINE
8
VISIBLE
10
789.614233
20
548.024307
30
0.0
11
790.173086
21
547.948786
31
0.0
0
LINE
8
VISIBLE
10
790.173086
20
547.948786
30
0.0
11
790.543225
21
548.246472
31
0.0
0
LINE
8
VISIBLE
10
790.543225
20
548.246472
30
0.0
11
790.322535
21
548.499118
31
0.0
0
LINE
8
VISIBLE
10
790.322535
20
548.499118
30
0.0
11
789.731942
21
548.520215
31
0.0
0
LINE
8
VISIBLE
10
789.731942
20
548.520215
30
0.0
11
789.454843
21
548.246472
31
0.0
0
LINE
8
VISIBLE
10
789.454843
20
548.246472
30
0.0
11
789.614233
21
548.024307
31
0.0
0
LINE
8
VISIBLE
10
773.433343
20
541.881443
30
0.0
11
773.978320
21
541.812571
31
0.0
0
LINE
8
VISIBLE
10
773.978320
20
541.812571
30
0.0
11
774.315886
21
542.092500
31
0.0
0
LINE
8
VISIBLE
10
774.315886
20
542.092500
30
0.0
11
774.096052
21
542.336749
31
0.0
0
LINE
8
VISIBLE
10
774.096052
20
542.336749
30
0.0
11
773.518610
21
542.343301
31
0.0
0
LINE
8
VISIBLE
10
773.518610
20
542.343301
30
0.0
11
773.281923
21
542.092500
31
0.0
0
LINE
8
VISIBLE
10
773.281923
20
542.092500
30
0.0
11
773.433343
21
541.881443
31
0.0
0
LINE
8
VISIBLE
10
768.200047
20
540.592885
30
0.0
11
768.745024
21
540.524014
31
0.0
0
LINE
8
VISIBLE
10
768.745024
20
540.524014
30
0.0
11
769.082590
21
540.803942
31
0.0
0
LINE
8
VISIBLE
10
769.082590
20
540.803942
30
0.0
11
768.862756
21
541.048191
31
0.0
0
LINE
8
VISIBLE
10
768.862756
20
541.048191
30
0.0
11
768.285314
21
541.054744
31
0.0
0
LINE
8
VISIBLE
10
768.285314
20
541.054744
30
0.0
11
768.048627
21
540.803942
31
0.0
0
LINE
8
VISIBLE
10
768.048627
20
540.803942
30
0.0
11
768.200047
21
540.592885
31
0.0
0
LINE
8
VISIBLE
10
764.505956
20
538.460101
30
0.0
11
765.050933
21
538.391229
31
0.0
0
LINE
8
VISIBLE
10
765.050933
20
538.391229
30
0.0
11
765.388499
21
538.671158
31
0.0
0
LINE
8
VISIBLE
10
765.388499
20
538.671158
30
0.0
11
765.168665
21
538.915407
31
0.0
0
LINE
8
VISIBLE
10
765.168665
20
538.915407
30
0.0
11
764.591223
21
538.921960
31
0.0
0
LINE
8
VISIBLE
10
764.591223
20
538.921960
30
0.0
11
764.354536
21
538.671158
31
0.0
0
LINE
8
VISIBLE
10
764.354536
20
538.671158
30
0.0
11
764.505956
21
538.460101
31
0.0
0
LINE
8
VISIBLE
10
770.124053
20
539.482060
30
0.0
11
770.669030
21
539.413188
31
0.0
0
LINE
8
VISIBLE
10
770.669030
20
539.413188
30
0.0
11
771.006596
21
539.693117
31
0.0
0
LINE
8
VISIBLE
10
771.006596
20
539.693117
30
0.0
11
770.786762
21
539.937366
31
0.0
0
LINE
8
VISIBLE
10
770.786762
20
539.937366
30
0.0
11
770.209320
21
539.943919
31
0.0
0
LINE
8
VISIBLE
10
770.209320
20
539.943919
30
0.0
11
769.972633
21
539.693117
31
0.0
0
LINE
8
VISIBLE
10
769.972633
20
539.693117
30
0.0
11
770.124053
21
539.482060
31
0.0
0
LINE
8
VISIBLE
10
766.429962
20
537.349275
30
0.0
11
766.974939
21
537.280404
31
0.0
0
LINE
8
VISIBLE
10
766.974939
20
537.280404
30
0.0
11
767.312505
21
537.560332
31
0.0
0
LINE
8
VISIBLE
10
767.312505
20
537.560332
30
0.0
11
767.092671
21
537.804582
31
0.0
0
LINE
8
VISIBLE
10
767.092671
20
537.804582
30
0.0
11
766.515229
21
537.811134
31
0.0
0
LINE
8
VISIBLE
10
766.515229
20
537.811134
30
0.0
11
766.278542
21
537.560332
31
0.0
0
LINE
8
VISIBLE
10
766.278542
20
537.560332
30
0.0
11
766.429962
21
537.349275
31
0.0
0
LINE
8
VISIBLE
10
772.048059
20
538.371235
30
0.0
11
772.593036
21
538.302363
31
0.0
0
LINE
8
VISIBLE
10
772.593036
20
538.302363
30
0.0
11
772.930602
21
538.582292
31
0.0
0
LINE
8
VISIBLE
10
772.930602
20
538.582292
30
0.0
11
772.710768
21
538.826541
31
0.0
0
LINE
8
VISIBLE
10
772.710768
20
538.826541
30
0.0
11
772.133326
21
538.833094
31
0.0
0
LINE
8
VISIBLE
10
772.133326
20
538.833094
30
0.0
11
771.896639
21
538.582292
31
0.0
0
LINE
8
VISIBLE
10
771.896639
20
538.582292
30
0.0
11
772.048059
21
538.371235
31
0.0
0
LINE
8
VISIBLE
10
768.353968
20
536.238450
30
0.0
11
768.898945
21
536.169579
31
0.0
0
LINE
8
VISIBLE
10
768.898945
20
536.169579
30
0.0
11
769.236510
21
536.449507
31
0.0
0
LINE
8
VISIBLE
10
769.236510
20
536.449507
30
0.0
11
769.016677
21
536.693756
31
0.0
0
LINE
8
VISIBLE
10
769.016677
20
536.693756
30
0.0
11
768.439234
21
536.700309
31
0.0
0
LINE
8
VISIBLE
10
768.439234
20
536.700309
30
0.0
11
768.202547
21
536.449507
31
0.0
0
LINE
8
VISIBLE
10
768.202547
20
536.449507
30
0.0
11
768.353968
21
536.238450
31
0.0
0
LINE
8
VISIBLE
10
822.129932
20
556.222197
30
0.0
11
823.008630
21
555.978795
31
0.0
0
LINE
8
VISIBLE
10
823.008630
20
555.978795
30
0.0
11
824.043361
21
556.140330
31
0.0
0
LINE
8
VISIBLE
10
824.043361
20
556.140330
30
0.0
11
824.481098
21
556.440375
31
0.0
0
LINE
8
VISIBLE
10
824.481098
20
556.440375
30
0.0
11
824.638211
21
556.822043
31
0.0
0
LINE
8
VISIBLE
10
824.638211
20
556.822043
30
0.0
11
824.407074
21
557.278772
31
0.0
0
LINE
8
VISIBLE
10
824.407074
20
557.278772
30
0.0
11
823.693192
21
557.614508
31
0.0
0
LINE
8
VISIBLE
10
823.693192
20
557.614508
30
0.0
11
822.641747
21
557.613877
31
0.0
0
LINE
8
VISIBLE
10
822.641747
20
557.613877
30
0.0
11
821.868517
21
557.216971
31
0.0
0
LINE
8
VISIBLE
10
821.868517
20
557.216971
30
0.0
11
821.699579
21
556.822043
31
0.0
0
LINE
8
VISIBLE
10
821.699579
20
556.822043
30
0.0
11
822.129932
21
556.222197
31
0.0
0
LINE
8
VISIBLE
10
818.051039
20
554.995846
30
0.0
11
818.615303
21
554.917712
31
0.0
0
LINE
8
VISIBLE
10
818.615303
20
554.917712
30
0.0
11
818.998612
21
555.222455
31
0.0
0
LINE
8
VISIBLE
10
818.998612
20
555.222455
30
0.0
11
818.777602
21
555.478390
31
0.0
0
LINE
8
VISIBLE
10
818.777602
20
555.478390
30
0.0
11
818.182164
21
555.505175
31
0.0
0
LINE
8
VISIBLE
10
818.182164
20
555.505175
30
0.0
11
817.888462
21
555.222455
31
0.0
0
LINE
8
VISIBLE
10
817.888462
20
555.222455
30
0.0
11
818.051039
21
554.995846
31
0.0
0
LINE
8
VISIBLE
10
817.673934
20
553.649526
30
0.0
11
818.443718
21
553.465478
31
0.0
0
LINE
8
VISIBLE
10
818.443718
20
553.465478
30
0.0
11
819.275093
21
553.688439
31
0.0
0
LINE
8
VISIBLE
10
819.275093
20
553.688439
30
0.0
11
819.531919
21
554.093856
31
0.0
0
LINE
8
VISIBLE
10
819.531919
20
554.093856
30
0.0
11
819.302964
21
554.479412
31
0.0
0
LINE
8
VISIBLE
10
819.302964
20
554.479412
30
0.0
11
818.606318
21
554.715166
31
0.0
0
LINE
8
VISIBLE
10
818.606318
20
554.715166
30
0.0
11
817.729166
21
554.567934
31
0.0
0
LINE
8
VISIBLE
10
817.729166
20
554.567934
30
0.0
11
817.355155
21
554.093856
31
0.0
0
LINE
8
VISIBLE
10
817.355155
20
554.093856
30
0.0
11
817.673934
21
553.649526
31
0.0
0
LINE
8
VISIBLE
10
820.005829
20
553.867248
30
0.0
11
820.570093
21
553.789113
31
0.0
0
LINE
8
VISIBLE
10
820.570093
20
553.789113
30
0.0
11
820.953401
21
554.093856
31
0.0
0
LINE
8
VISIBLE
10
820.953401
20
554.093856
30
0.0
11
820.732392
21
554.349791
31
0.0
0
LINE
8
VISIBLE
10
820.732392
20
554.349791
30
0.0
11
820.136954
21
554.376576
31
0.0
0
LINE
8
VISIBLE
10
820.136954
20
554.376576
30
0.0
11
819.843252
21
554.093856
31
0.0
0
LINE
8
VISIBLE
10
819.843252
20
554.093856
30
0.0
11
820.005829
21
553.867248
31
0.0
0
LINE
8
VISIBLE
10
816.096250
20
553.867248
30
0.0
11
816.660513
21
553.789113
31
0.0
0
LINE
8
VISIBLE
10
816.660513
20
553.789113
30
0.0
11
817.043822
21
554.093856
31
0.0
0
LINE
8
VISIBLE
10
817.043822
20
554.093856
30
0.0
11
816.822812
21
554.349791
31
0.0
0
LINE
8
VISIBLE
10
816.822812
20
554.349791
30
0.0
11
816.227374
21
554.376576
31
0.0
0
LINE
8
VISIBLE
10
816.227374
20
554.376576
30
0.0
11
815.933672
21
554.093856
31
0.0
0
LINE
8
VISIBLE
10
815.933672
20
554.093856
30
0.0
11
816.096250
21
553.867248
31
0.0
0
LINE
8
VISIBLE
10
814.141460
20
552.738649
30
0.0
11
814.705723
21
552.660515
31
0.0
0
LINE
8
VISIBLE
10
814.705723
20
552.660515
30
0.0
11
815.089032
21
552.965258
31
0.0
0
LINE
8
VISIBLE
10
815.089032
20
552.965258
30
0.0
11
814.868022
21
553.221193
31
0.0
0
LINE
8
VISIBLE
10
814.868022
20
553.221193
30
0.0
11
814.272584
21
553.247978
31
0.0
0
LINE
8
VISIBLE
10
814.272584
20
553.247978
30
0.0
11
813.978882
21
552.965258
31
0.0
0
LINE
8
VISIBLE
10
813.978882
20
552.965258
30
0.0
11
814.141460
21
552.738649
31
0.0
0
LINE
8
VISIBLE
10
812.186670
20
551.610051
30
0.0
11
812.750933
21
551.531916
31
0.0
0
LINE
8
VISIBLE
10
812.750933
20
551.531916
30
0.0
11
813.134242
21
551.836659
31
0.0
0
LINE
8
VISIBLE
10
813.134242
20
551.836659
30
0.0
11
812.913232
21
552.092594
31
0.0
0
LINE
8
VISIBLE
10
812.913232
20
552.092594
30
0.0
11
812.317794
21
552.119379
31
0.0
0
LINE
8
VISIBLE
10
812.317794
20
552.119379
30
0.0
11
812.024092
21
551.836659
31
0.0
0
LINE
8
VISIBLE
10
812.024092
20
551.836659
30
0.0
11
812.186670
21
551.610051
31
0.0
0
LINE
8
VISIBLE
10
818.051039
20
552.738649
30
0.0
11
818.615303
21
552.660515
31
0.0
0
LINE
8
VISIBLE
10
818.615303
20
552.660515
30
0.0
11
818.998612
21
552.965258
31
0.0
0
LINE
8
VISIBLE
10
818.998612
20
552.965258
30
0.0
11
818.777602
21
553.221193
31
0.0
0
LINE
8
VISIBLE
10
818.777602
20
553.221193
30
0.0
11
818.182164
21
553.247978
31
0.0
0
LINE
8
VISIBLE
10
818.182164
20
553.247978
30
0.0
11
817.888462
21
552.965258
31
0.0
0
LINE
8
VISIBLE
10
817.888462
20
552.965258
30
0.0
11
818.051039
21
552.738649
31
0.0
0
LINE
8
VISIBLE
10
816.096250
20
551.610051
30
0.0
11
816.660513
21
551.531916
31
0.0
0
LINE
8
VISIBLE
10
816.660513
20
551.531916
30
0.0
11
817.043822
21
551.836659
31
0.0
0
LINE
8
VISIBLE
10
817.043822
20
551.836659
30
0.0
11
816.822812
21
552.092594
31
0.0
0
LINE
8
VISIBLE
10
816.822812
20
552.092594
30
0.0
11
816.227374
21
552.119379
31
0.0
0
LINE
8
VISIBLE
10
816.227374
20
552.119379
30
0.0
11
815.933672
21
551.836659
31
0.0
0
LINE
8
VISIBLE
10
815.933672
20
551.836659
30
0.0
11
816.096250
21
551.610051
31
0.0
0
LINE
8
VISIBLE
10
814.141460
20
550.481452
30
0.0
11
814.705723
21
550.403318
31
0.0
0
LINE
8
VISIBLE
10
814.705723
20
550.403318
30
0.0
11
815.089032
21
550.708061
31
0.0
0
LINE
8
VISIBLE
10
815.089032
20
550.708061
30
0.0
11
814.868022
21
550.963996
31
0.0
0
LINE
8
VISIBLE
10
814.868022
20
550.963996
30
0.0
11
814.272584
21
550.990781
31
0.0
0
LINE
8
VISIBLE
10
814.272584
20
550.990781
30
0.0
11
813.978882
21
550.708061
31
0.0
0
LINE
8
VISIBLE
10
813.978882
20
550.708061
30
0.0
11
814.141460
21
550.481452
31
0.0
0
LINE
8
VISIBLE
10
810.231880
20
550.481452
30
0.0
11
810.796143
21
550.403318
31
0.0
0
LINE
8
VISIBLE
10
810.796143
20
550.403318
30
0.0
11
811.179452
21
550.708061
31
0.0
0
LINE
8
VISIBLE
10
811.179452
20
550.708061
30
0.0
11
810.958442
21
550.963996
31
0.0
0
LINE
8
VISIBLE
10
810.958442
20
550.963996
30
0.0
11
810.363004
21
550.990781
31
0.0
0
LINE
8
VISIBLE
10
810.363004
20
550.990781
30
0.0
11
810.069302
21
550.708061
31
0.0
0
LINE
8
VISIBLE
10
810.069302
20
550.708061
30
0.0
11
810.231880
21
550.481452
31
0.0
0
LINE
8
VISIBLE
10
808.277090
20
549.352854
30
0.0
11
808.841353
21
549.274719
31
0.0
0
LINE
8
VISIBLE
10
808.841353
20
549.274719
30
0.0
11
809.224662
21
549.579462
31
0.0
0
LINE
8
VISIBLE
10
809.224662
20
549.579462
30
0.0
11
809.003653
21
549.835397
31
0.0
0
LINE
8
VISIBLE
10
809.003653
20
549.835397
30
0.0
11
808.408214
21
549.862182
31
0.0
0
LINE
8
VISIBLE
10
808.408214
20
549.862182
30
0.0
11
808.114512
21
549.579462
31
0.0
0
LINE
8
VISIBLE
10
808.114512
20
549.579462
30
0.0
11
808.277090
21
549.352854
31
0.0
0
LINE
8
VISIBLE
10
806.322300
20
548.224255
30
0.0
11
806.886563
21
548.146121
31
0.0
0
LINE
8
VISIBLE
10
806.886563
20
548.146121
30
0.0
11
807.269872
21
548.450864
31
0.0
0
LINE
8
VISIBLE
10
807.269872
20
548.450864
30
0.0
11
807.048863
21
548.706799
31
0.0
0
LINE
8
VISIBLE
10
807.048863
20
548.706799
30
0.0
11
806.453424
21
548.733584
31
0.0
0
LINE
8
VISIBLE
10
806.453424
20
548.733584
30
0.0
11
806.159722
21
548.450864
31
0.0
0
LINE
8
VISIBLE
10
806.159722
20
548.450864
30
0.0
11
806.322300
21
548.224255
31
0.0
0
LINE
8
VISIBLE
10
812.186670
20
549.352854
30
0.0
11
812.750933
21
549.274719
31
0.0
0
LINE
8
VISIBLE
10
812.750933
20
549.274719
30
0.0
11
813.134242
21
549.579462
31
0.0
0
LINE
8
VISIBLE
10
813.134242
20
549.579462
30
0.0
11
812.913232
21
549.835397
31
0.0
0
LINE
8
VISIBLE
10
812.913232
20
549.835397
30
0.0
11
812.317794
21
549.862182
31
0.0
0
LINE
8
VISIBLE
10
812.317794
20
549.862182
30
0.0
11
812.024092
21
549.579462
31
0.0
0
LINE
8
VISIBLE
10
812.024092
20
549.579462
30
0.0
11
812.186670
21
549.352854
31
0.0
0
LINE
8
VISIBLE
10
810.231880
20
548.224255
30
0.0
11
810.796143
21
548.146121
31
0.0
0
LINE
8
VISIBLE
10
810.796143
20
548.146121
30
0.0
11
811.179452
21
548.450864
31
0.0
0
LINE
8
VISIBLE
10
811.179452
20
548.450864
30
0.0
11
810.958442
21
548.706799
31
0.0
0
LINE
8
VISIBLE
10
810.958442
20
548.706799
30
0.0
11
810.363004
21
548.733584
31
0.0
0
LINE
8
VISIBLE
10
810.363004
20
548.733584
30
0.0
11
810.069302
21
548.450864
31
0.0
0
LINE
8
VISIBLE
10
810.069302
20
548.450864
30
0.0
11
810.231880
21
548.224255
31
0.0
0
LINE
8
VISIBLE
10
808.277090
20
547.095657
30
0.0
11
808.841353
21
547.017522
31
0.0
0
LINE
8
VISIBLE
10
808.841353
20
547.017522
30
0.0
11
809.224662
21
547.322265
31
0.0
0
LINE
8
VISIBLE
10
809.224662
20
547.322265
30
0.0
11
809.003653
21
547.578200
31
0.0
0
LINE
8
VISIBLE
10
809.003653
20
547.578200
30
0.0
11
808.408214
21
547.604985
31
0.0
0
LINE
8
VISIBLE
10
808.408214
20
547.604985
30
0.0
11
808.114512
21
547.322265
31
0.0
0
LINE
8
VISIBLE
10
808.114512
20
547.322265
30
0.0
11
808.277090
21
547.095657
31
0.0
0
LINE
8
VISIBLE
10
804.367510
20
547.095657
30
0.0
11
804.931773
21
547.017522
31
0.0
0
LINE
8
VISIBLE
10
804.931773
20
547.017522
30
0.0
11
805.315082
21
547.322265
31
0.0
0
LINE
8
VISIBLE
10
805.315082
20
547.322265
30
0.0
11
805.094073
21
547.578200
31
0.0
0
LINE
8
VISIBLE
10
805.094073
20
547.578200
30
0.0
11
804.498634
21
547.604985
31
0.0
0
LINE
8
VISIBLE
10
804.498634
20
547.604985
30
0.0
11
804.204932
21
547.322265
31
0.0
0
LINE
8
VISIBLE
10
804.204932
20
547.322265
30
0.0
11
804.367510
21
547.095657
31
0.0
0
LINE
8
VISIBLE
10
802.412720
20
545.967058
30
0.0
11
802.976983
21
545.888924
31
0.0
0
LINE
8
VISIBLE
10
802.976983
20
545.888924
30
0.0
11
803.360292
21
546.193667
31
0.0
0
LINE
8
VISIBLE
10
803.360292
20
546.193667
30
0.0
11
803.139283
21
546.449602
31
0.0
0
LINE
8
VISIBLE
10
803.139283
20
546.449602
30
0.0
11
802.543844
21
546.476387
31
0.0
0
LINE
8
VISIBLE
10
802.543844
20
546.476387
30
0.0
11
802.250142
21
546.193667
31
0.0
0
LINE
8
VISIBLE
10
802.250142
20
546.193667
30
0.0
11
802.412720
21
545.967058
31
0.0
0
LINE
8
VISIBLE
10
800.457930
20
544.838460
30
0.0
11
801.022194
21
544.760325
31
0.0
0
LINE
8
VISIBLE
10
801.022194
20
544.760325
30
0.0
11
801.405502
21
545.065068
31
0.0
0
LINE
8
VISIBLE
10
801.405502
20
545.065068
30
0.0
11
801.184493
21
545.321003
31
0.0
0
LINE
8
VISIBLE
10
801.184493
20
545.321003
30
0.0
11
800.589054
21
545.347788
31
0.0
0
LINE
8
VISIBLE
10
800.589054
20
545.347788
30
0.0
11
800.295352
21
545.065068
31
0.0
0
LINE
8
VISIBLE
10
800.295352
20
545.065068
30
0.0
11
800.457930
21
544.838460
31
0.0
0
LINE
8
VISIBLE
10
806.322300
20
545.967058
30
0.0
11
806.886563
21
545.888924
31
0.0
0
LINE
8
VISIBLE
10
806.886563
20
545.888924
30
0.0
11
807.269872
21
546.193667
31
0.0
0
LINE
8
VISIBLE
10
807.269872
20
546.193667
30
0.0
11
807.048863
21
546.449602
31
0.0
0
LINE
8
VISIBLE
10
807.048863
20
546.449602
30
0.0
11
806.453424
21
546.476387
31
0.0
0
LINE
8
VISIBLE
10
806.453424
20
546.476387
30
0.0
11
806.159722
21
546.193667
31
0.0
0
LINE
8
VISIBLE
10
806.159722
20
546.193667
30
0.0
11
806.322300
21
545.967058
31
0.0
0
LINE
8
VISIBLE
10
804.367510
20
544.838460
30
0.0
11
804.931773
21
544.760325
31
0.0
0
LINE
8
VISIBLE
10
804.931773
20
544.760325
30
0.0
11
805.315082
21
545.065068
31
0.0
0
LINE
8
VISIBLE
10
805.315082
20
545.065068
30
0.0
11
805.094073
21
545.321003
31
0.0
0
LINE
8
VISIBLE
10
805.094073
20
545.321003
30
0.0
11
804.498634
21
545.347788
31
0.0
0
LINE
8
VISIBLE
10
804.498634
20
545.347788
30
0.0
11
804.204932
21
545.065068
31
0.0
0
LINE
8
VISIBLE
10
804.204932
20
545.065068
30
0.0
11
804.367510
21
544.838460
31
0.0
0
LINE
8
VISIBLE
10
802.412720
20
543.709861
30
0.0
11
802.976983
21
543.631727
31
0.0
0
LINE
8
VISIBLE
10
802.976983
20
543.631727
30
0.0
11
803.360292
21
543.936470
31
0.0
0
LINE
8
VISIBLE
10
803.360292
20
543.936470
30
0.0
11
803.139283
21
544.192405
31
0.0
0
LINE
8
VISIBLE
10
803.139283
20
544.192405
30
0.0
11
802.543844
21
544.219190
31
0.0
0
LINE
8
VISIBLE
10
802.543844
20
544.219190
30
0.0
11
802.250142
21
543.936470
31
0.0
0
LINE
8
VISIBLE
10
802.250142
20
543.936470
30
0.0
11
802.412720
21
543.709861
31
0.0
0
LINE
8
VISIBLE
10
798.503140
20
543.709861
30
0.0
11
799.067404
21
543.631727
31
0.0
0
LINE
8
VISIBLE
10
799.067404
20
543.631727
30
0.0
11
799.450712
21
543.936470
31
0.0
0
LINE
8
VISIBLE
10
799.450712
20
543.936470
30
0.0
11
799.229703
21
544.192405
31
0.0
0
LINE
8
VISIBLE
10
799.229703
20
544.192405
30
0.0
11
798.634264
21
544.219190
31
0.0
0
LINE
8
VISIBLE
10
798.634264
20
544.219190
30
0.0
11
798.340562
21
543.936470
31
0.0
0
LINE
8
VISIBLE
10
798.340562
20
543.936470
30
0.0
11
798.503140
21
543.709861
31
0.0
0
LINE
8
VISIBLE
10
796.548350
20
542.581263
30
0.0
11
797.112614
21
542.503128
31
0.0
0
LINE
8
VISIBLE
10
797.112614
20
542.503128
30
0.0
11
797.495922
21
542.807871
31
0.0
0
LINE
8
VISIBLE
10
797.495922
20
542.807871
30
0.0
11
797.274913
21
543.063806
31
0.0
0
LINE
8
VISIBLE
10
797.274913
20
543.063806
30
0.0
11
796.679474
21
543.090591
31
0.0
0
LINE
8
VISIBLE
10
796.679474
20
543.090591
30
0.0
11
796.385772
21
542.807871
31
0.0
0
LINE
8
VISIBLE
10
796.385772
20
542.807871
30
0.0
11
796.548350
21
542.581263
31
0.0
0
LINE
8
VISIBLE
10
794.593560
20
541.452664
30
0.0
11
795.157824
21
541.374530
31
0.0
0
LINE
8
VISIBLE
10
795.157824
20
541.374530
30
0.0
11
795.541132
21
541.679273
31
0.0
0
LINE
8
VISIBLE
10
795.541132
20
541.679273
30
0.0
11
795.320123
21
541.935208
31
0.0
0
LINE
8
VISIBLE
10
795.320123
20
541.935208
30
0.0
11
794.724684
21
541.961993
31
0.0
0
LINE
8
VISIBLE
10
794.724684
20
541.961993
30
0.0
11
794.430982
21
541.679273
31
0.0
0
LINE
8
VISIBLE
10
794.430982
20
541.679273
30
0.0
11
794.593560
21
541.452664
31
0.0
0
LINE
8
VISIBLE
10
800.457930
20
542.581263
30
0.0
11
801.022194
21
542.503128
31
0.0
0
LINE
8
VISIBLE
10
801.022194
20
542.503128
30
0.0
11
801.405502
21
542.807871
31
0.0
0
LINE
8
VISIBLE
10
801.405502
20
542.807871
30
0.0
11
801.184493
21
543.063806
31
0.0
0
LINE
8
VISIBLE
10
801.184493
20
543.063806
30
0.0
11
800.589054
21
543.090591
31
0.0
0
LINE
8
VISIBLE
10
800.589054
20
543.090591
30
0.0
11
800.295352
21
542.807871
31
0.0
0
LINE
8
VISIBLE
10
800.295352
20
542.807871
30
0.0
11
800.457930
21
542.581263
31
0.0
0
LINE
8
VISIBLE
10
798.503140
20
541.452664
30
0.0
11
799.067404
21
541.374530
31
0.0
0
LINE
8
VISIBLE
10
799.067404
20
541.374530
30
0.0
11
799.450712
21
541.679273
31
0.0
0
LINE
8
VISIBLE
10
799.450712
20
541.679273
30
0.0
11
799.229703
21
541.935208
31
0.0
0
LINE
8
VISIBLE
10
799.229703
20
541.935208
30
0.0
11
798.634264
21
541.961993
31
0.0
0
LINE
8
VISIBLE
10
798.634264
20
541.961993
30
0.0
11
798.340562
21
541.679273
31
0.0
0
LINE
8
VISIBLE
10
798.340562
20
541.679273
30
0.0
11
798.503140
21
541.452664
31
0.0
0
LINE
8
VISIBLE
10
796.548350
20
540.324066
30
0.0
11
797.112614
21
540.245931
31
0.0
0
LINE
8
VISIBLE
10
797.112614
20
540.245931
30
0.0
11
797.495922
21
540.550674
31
0.0
0
LINE
8
VISIBLE
10
797.495922
20
540.550674
30
0.0
11
797.274913
21
540.806609
31
0.0
0
LINE
8
VISIBLE
10
797.274913
20
540.806609
30
0.0
11
796.679474
21
540.833394
31
0.0
0
LINE
8
VISIBLE
10
796.679474
20
540.833394
30
0.0
11
796.385772
21
540.550674
31
0.0
0
LINE
8
VISIBLE
10
796.385772
20
540.550674
30
0.0
11
796.548350
21
540.324066
31
0.0
0
LINE
8
VISIBLE
10
792.638770
20
540.324066
30
0.0
11
793.203034
21
540.245931
31
0.0
0
LINE
8
VISIBLE
10
793.203034
20
540.245931
30
0.0
11
793.586342
21
540.550674
31
0.0
0
LINE
8
VISIBLE
10
793.586342
20
540.550674
30
0.0
11
793.365333
21
540.806609
31
0.0
0
LINE
8
VISIBLE
10
793.365333
20
540.806609
30
0.0
11
792.769894
21
540.833394
31
0.0
0
LINE
8
VISIBLE
10
792.769894
20
540.833394
30
0.0
11
792.476192
21
540.550674
31
0.0
0
LINE
8
VISIBLE
10
792.476192
20
540.550674
30
0.0
11
792.638770
21
540.324066
31
0.0
0
LINE
8
VISIBLE
10
790.683980
20
539.195467
30
0.0
11
791.248244
21
539.117333
31
0.0
0
LINE
8
VISIBLE
10
791.248244
20
539.117333
30
0.0
11
791.631552
21
539.422076
31
0.0
0
LINE
8
VISIBLE
10
791.631552
20
539.422076
30
0.0
11
791.410543
21
539.678011
31
0.0
0
LINE
8
VISIBLE
10
791.410543
20
539.678011
30
0.0
11
790.815104
21
539.704796
31
0.0
0
LINE
8
VISIBLE
10
790.815104
20
539.704796
30
0.0
11
790.521402
21
539.422076
31
0.0
0
LINE
8
VISIBLE
10
790.521402
20
539.422076
30
0.0
11
790.683980
21
539.195467
31
0.0
0
LINE
8
VISIBLE
10
788.729190
20
538.066869
30
0.0
11
789.293454
21
537.988734
31
0.0
0
LINE
8
VISIBLE
10
789.293454
20
537.988734
30
0.0
11
789.676762
21
538.293477
31
0.0
0
LINE
8
VISIBLE
10
789.676762
20
538.293477
30
0.0
11
789.455753
21
538.549412
31
0.0
0
LINE
8
VISIBLE
10
789.455753
20
538.549412
30
0.0
11
788.860314
21
538.576197
31
0.0
0
LINE
8
VISIBLE
10
788.860314
20
538.576197
30
0.0
11
788.566612
21
538.293477
31
0.0
0
LINE
8
VISIBLE
10
788.566612
20
538.293477
30
0.0
11
788.729190
21
538.066869
31
0.0
0
LINE
8
VISIBLE
10
794.593560
20
539.195467
30
0.0
11
795.157824
21
539.117333
31
0.0
0
LINE
8
VISIBLE
10
795.157824
20
539.117333
30
0.0
11
795.541132
21
539.422076
31
0.0
0
LINE
8
VISIBLE
10
795.541132
20
539.422076
30
0.0
11
795.320123
21
539.678011
31
0.0
0
LINE
8
VISIBLE
10
795.320123
20
539.678011
30
0.0
11
794.724684
21
539.704796
31
0.0
0
LINE
8
VISIBLE
10
794.724684
20
539.704796
30
0.0
11
794.430982
21
539.422076
31
0.0
0
LINE
8
VISIBLE
10
794.430982
20
539.422076
30
0.0
11
794.593560
21
539.195467
31
0.0
0
LINE
8
VISIBLE
10
792.638770
20
538.066869
30
0.0
11
793.203034
21
537.988734
31
0.0
0
LINE
8
VISIBLE
10
793.203034
20
537.988734
30
0.0
11
793.586342
21
538.293477
31
0.0
0
LINE
8
VISIBLE
10
793.586342
20
538.293477
30
0.0
11
793.365333
21
538.549412
31
0.0
0
LINE
8
VISIBLE
10
793.365333
20
538.549412
30
0.0
11
792.769894
21
538.576197
31
0.0
0
LINE
8
VISIBLE
10
792.769894
20
538.576197
30
0.0
11
792.476192
21
538.293477
31
0.0
0
LINE
8
VISIBLE
10
792.476192
20
538.293477
30
0.0
11
792.638770
21
538.066869
31
0.0
0
LINE
8
VISIBLE
10
790.683980
20
536.938270
30
0.0
11
791.248244
21
536.860136
31
0.0
0
LINE
8
VISIBLE
10
791.248244
20
536.860136
30
0.0
11
791.631552
21
537.164878
31
0.0
0
LINE
8
VISIBLE
10
791.631552
20
537.164878
30
0.0
11
791.410543
21
537.420814
31
0.0
0
LINE
8
VISIBLE
10
791.410543
20
537.420814
30
0.0
11
790.815104
21
537.447599
31
0.0
0
LINE
8
VISIBLE
10
790.815104
20
537.447599
30
0.0
11
790.521402
21
537.164878
31
0.0
0
LINE
8
VISIBLE
10
790.521402
20
537.164878
30
0.0
11
790.683980
21
536.938270
31
0.0
0
LINE
8
VISIBLE
10
786.774400
20
536.938270
30
0.0
11
787.338664
21
536.860136
31
0.0
0
LINE
8
VISIBLE
10
787.338664
20
536.860136
30
0.0
11
787.721972
21
537.164878
31
0.0
0
LINE
8
VISIBLE
10
787.721972
20
537.164878
30
0.0
11
787.500963
21
537.420814
31
0.0
0
LINE
8
VISIBLE
10
787.500963
20
537.420814
30
0.0
11
786.905524
21
537.447599
31
0.0
0
LINE
8
VISIBLE
10
786.905524
20
537.447599
30
0.0
11
786.611822
21
537.164878
31
0.0
0
LINE
8
VISIBLE
10
786.611822
20
537.164878
30
0.0
11
786.774400
21
536.938270
31
0.0
0
LINE
8
VISIBLE
10
784.819610
20
535.809672
30
0.0
11
785.383874
21
535.731537
31
0.0
0
LINE
8
VISIBLE
10
785.383874
20
535.731537
30
0.0
11
785.767182
21
536.036280
31
0.0
0
LINE
8
VISIBLE
10
785.767182
20
536.036280
30
0.0
11
785.546173
21
536.292215
31
0.0
0
LINE
8
VISIBLE
10
785.546173
20
536.292215
30
0.0
11
784.950734
21
536.319000
31
0.0
0
LINE
8
VISIBLE
10
784.950734
20
536.319000
30
0.0
11
784.657032
21
536.036280
31
0.0
0
LINE
8
VISIBLE
10
784.657032
20
536.036280
30
0.0
11
784.819610
21
535.809672
31
0.0
0
LINE
8
VISIBLE
10
782.864820
20
534.681073
30
0.0
11
783.429084
21
534.602939
31
0.0
0
LINE
8
VISIBLE
10
783.429084
20
534.602939
30
0.0
11
783.812392
21
534.907681
31
0.0
0
LINE
8
VISIBLE
10
783.812392
20
534.907681
30
0.0
11
783.591383
21
535.163617
31
0.0
0
LINE
8
VISIBLE
10
783.591383
20
535.163617
30
0.0
11
782.995944
21
535.190402
31
0.0
0
LINE
8
VISIBLE
10
782.995944
20
535.190402
30
0.0
11
782.702242
21
534.907681
31
0.0
0
LINE
8
VISIBLE
10
782.702242
20
534.907681
30
0.0
11
782.864820
21
534.681073
31
0.0
0
LINE
8
VISIBLE
10
788.729190
20
535.809672
30
0.0
11
789.293454
21
535.731537
31
0.0
0
LINE
8
VISIBLE
10
789.293454
20
535.731537
30
0.0
11
789.676762
21
536.036280
31
0.0
0
LINE
8
VISIBLE
10
789.676762
20
536.036280
30
0.0
11
789.455753
21
536.292215
31
0.0
0
LINE
8
VISIBLE
10
789.455753
20
536.292215
30
0.0
11
788.860314
21
536.319000
31
0.0
0
LINE
8
VISIBLE
10
788.860314
20
536.319000
30
0.0
11
788.566612
21
536.036280
31
0.0
0
LINE
8
VISIBLE
10
788.566612
20
536.036280
30
0.0
11
788.729190
21
535.809672
31
0.0
0
LINE
8
VISIBLE
10
786.774400
20
534.681073
30
0.0
11
787.338664
21
534.602939
31
0.0
0
LINE
8
VISIBLE
10
787.338664
20
534.602939
30
0.0
11
787.721972
21
534.907681
31
0.0
0
LINE
8
VISIBLE
10
787.721972
20
534.907681
30
0.0
11
787.500963
21
535.163617
31
0.0
0
LINE
8
VISIBLE
10
787.500963
20
535.163617
30
0.0
11
786.905524
21
535.190402
31
0.0
0
LINE
8
VISIBLE
10
786.905524
20
535.190402
30
0.0
11
786.611822
21
534.907681
31
0.0
0
LINE
8
VISIBLE
10
786.611822
20
534.907681
30
0.0
11
786.774400
21
534.681073
31
0.0
0
LINE
8
VISIBLE
10
784.819610
20
533.552475
30
0.0
11
785.383874
21
533.474340
31
0.0
0
LINE
8
VISIBLE
10
785.383874
20
533.474340
30
0.0
11
785.767182
21
533.779083
31
0.0
0
LINE
8
VISIBLE
10
785.767182
20
533.779083
30
0.0
11
785.546173
21
534.035018
31
0.0
0
LINE
8
VISIBLE
10
785.546173
20
534.035018
30
0.0
11
784.950734
21
534.061803
31
0.0
0
LINE
8
VISIBLE
10
784.950734
20
534.061803
30
0.0
11
784.657032
21
533.779083
31
0.0
0
LINE
8
VISIBLE
10
784.657032
20
533.779083
30
0.0
11
784.819610
21
533.552475
31
0.0
0
LINE
8
VISIBLE
10
780.910030
20
533.552475
30
0.0
11
781.474294
21
533.474340
31
0.0
0
LINE
8
VISIBLE
10
781.474294
20
533.474340
30
0.0
11
781.857602
21
533.779083
31
0.0
0
LINE
8
VISIBLE
10
781.857602
20
533.779083
30
0.0
11
781.636593
21
534.035018
31
0.0
0
LINE
8
VISIBLE
10
781.636593
20
534.035018
30
0.0
11
781.041154
21
534.061803
31
0.0
0
LINE
8
VISIBLE
10
781.041154
20
534.061803
30
0.0
11
780.747453
21
533.779083
31
0.0
0
LINE
8
VISIBLE
10
780.747453
20
533.779083
30
0.0
11
780.910030
21
533.552475
31
0.0
0
LINE
8
VISIBLE
10
782.487715
20
533.334753
30
0.0
11
783.257498
21
533.150705
31
0.0
0
LINE
8
VISIBLE
10
783.257498
20
533.150705
30
0.0
11
784.088874
21
533.373666
31
0.0
0
LINE
8
VISIBLE
10
784.088874
20
533.373666
30
0.0
11
784.345699
21
533.779083
31
0.0
0
LINE
8
VISIBLE
10
784.345699
20
533.779083
30
0.0
11
784.116745
21
534.164639
31
0.0
0
LINE
8
VISIBLE
10
784.116745
20
534.164639
30
0.0
11
783.420098
21
534.400393
31
0.0
0
LINE
8
VISIBLE
10
783.420098
20
534.400393
30
0.0
11
782.542946
21
534.253161
31
0.0
0
LINE
8
VISIBLE
10
782.542946
20
534.253161
30
0.0
11
782.168935
21
533.779083
31
0.0
0
LINE
8
VISIBLE
10
782.168935
20
533.779083
30
0.0
11
782.487715
21
533.334753
31
0.0
0
LINE
8
VISIBLE
10
777.492996
20
530.451050
30
0.0
11
778.371694
21
530.207648
31
0.0
0
LINE
8
VISIBLE
10
778.371694
20
530.207648
30
0.0
11
779.406425
21
530.369183
31
0.0
0
LINE
8
VISIBLE
10
779.406425
20
530.369183
30
0.0
11
779.844162
21
530.669228
31
0.0
0
LINE
8
VISIBLE
10
779.844162
20
530.669228
30
0.0
11
780.001275
21
531.050896
31
0.0
0
LINE
8
VISIBLE
10
780.001275
20
531.050896
30
0.0
11
779.770137
21
531.507625
31
0.0
0
LINE
8
VISIBLE
10
779.770137
20
531.507625
30
0.0
11
779.056255
21
531.843361
31
0.0
0
LINE
8
VISIBLE
10
779.056255
20
531.843361
30
0.0
11
778.004811
21
531.842730
31
0.0
0
LINE
8
VISIBLE
10
778.004811
20
531.842730
30
0.0
11
777.231580
21
531.445824
31
0.0
0
LINE
8
VISIBLE
10
777.231580
20
531.445824
30
0.0
11
777.062643
21
531.050896
31
0.0
0
LINE
8
VISIBLE
10
777.062643
20
531.050896
30
0.0
11
777.492996
21
530.451050
31
0.0
0
LINE
8
VISIBLE
10
782.864820
20
532.423876
30
0.0
11
783.429084
21
532.345742
31
0.0
0
LINE
8
VISIBLE
10
783.429084
20
532.345742
30
0.0
11
783.812392
21
532.650484
31
0.0
0
LINE
8
VISIBLE
10
783.812392
20
532.650484
30
0.0
11
783.591383
21
532.906419
31
0.0
0
LINE
8
VISIBLE
10
783.591383
20
532.906419
30
0.0
11
782.995944
21
532.933205
31
0.0
0
LINE
8
VISIBLE
10
782.995944
20
532.933205
30
0.0
11
782.702242
21
532.650484
31
0.0
0
LINE
8
VISIBLE
10
782.702242
20
532.650484
30
0.0
11
782.864820
21
532.423876
31
0.0
0
LINE
8
VISIBLE
10
757.073614
20
542.448482
30
0.0
11
757.000000
21
542.016963
31
0.0
0
LINE
8
VISIBLE
10
757.291625
20
542.863417
30
0.0
11
757.073614
21
542.448482
31
0.0
0
LINE
8
VISIBLE
10
757.645658
20
543.245823
30
0.0
11
757.291625
21
542.863417
31
0.0
0
LINE
8
VISIBLE
10
758.122105
20
543.581005
30
0.0
11
757.645658
21
543.245823
31
0.0
0
LINE
8
VISIBLE
10
802.759041
20
569.352153
30
0.0
11
758.122105
21
543.581005
31
0.0
0
LINE
8
VISIBLE
10
803.339593
20
569.627229
30
0.0
11
802.759041
21
569.352153
31
0.0
0
LINE
8
VISIBLE
10
804.001941
20
569.831630
30
0.0
11
803.339593
21
569.627229
31
0.0
0
LINE
8
VISIBLE
10
804.720630
20
569.957499
30
0.0
11
804.001941
21
569.831630
31
0.0
0
LINE
8
VISIBLE
10
827.000000
20
557.568518
30
0.0
11
826.926386
21
558.000036
31
0.0
0
LINE
8
VISIBLE
10
805.468041
20
570.000000
30
0.0
11
804.720630
21
569.957499
31
0.0
0
LINE
8
VISIBLE
10
826.926386
20
558.000036
30
0.0
11
826.708375
21
558.414971
31
0.0
0
LINE
8
VISIBLE
10
806.215453
20
569.957499
30
0.0
11
805.468041
21
570.000000
31
0.0
0
LINE
8
VISIBLE
10
826.708375
20
558.414971
30
0.0
11
826.354342
21
558.797378
31
0.0
0
LINE
8
VISIBLE
10
806.934141
20
569.831630
30
0.0
11
806.215453
21
569.957499
31
0.0
0
LINE
8
VISIBLE
10
826.354342
20
558.797378
30
0.0
11
825.877895
21
559.132560
31
0.0
0
LINE
8
VISIBLE
10
807.596489
20
569.627229
30
0.0
11
806.934141
21
569.831630
31
0.0
0
LINE
8
VISIBLE
10
825.877895
20
559.132560
30
0.0
11
808.177041
21
569.352153
31
0.0
0
LINE
8
VISIBLE
10
808.177041
20
569.352153
30
0.0
11
807.596489
21
569.627229
31
0.0
0
LINE
8
VISIBLE
10
804.429078
20
567.188265
30
0.0
11
805.307776
21
566.944862
31
0.0
0
LINE
8
VISIBLE
10
805.307776
20
566.944862
30
0.0
11
806.342507
21
567.106397
31
0.0
0
LINE
8
VISIBLE
10
806.342507
20
567.106397
30
0.0
11
806.787500
21
567.414873
31
0.0
0
LINE
8
VISIBLE
10
804.148583
20
567.414873
30
0.0
11
804.429078
21
567.188265
31
0.0
0
LINE
8
VISIBLE
10
759.792142
20
541.417118
30
0.0
11
760.670840
21
541.173715
31
0.0
0
LINE
8
VISIBLE
10
760.670840
20
541.173715
30
0.0
11
761.705571
21
541.335250
31
0.0
0
LINE
8
VISIBLE
10
761.705571
20
541.335250
30
0.0
11
762.150563
21
541.643726
31
0.0
0
LINE
8
VISIBLE
10
759.511646
20
541.643726
30
0.0
11
759.792142
21
541.417118
31
0.0
0
LINE
8
VISIBLE
10
822.129932
20
556.968672
30
0.0
11
823.008630
21
556.725269
31
0.0
0
LINE
8
VISIBLE
10
823.008630
20
556.725269
30
0.0
11
824.043361
21
556.886805
31
0.0
0
LINE
8
VISIBLE
10
824.043361
20
556.886805
30
0.0
11
824.488354
21
557.195280
31
0.0
0
LINE
8
VISIBLE
10
821.849437
20
557.195280
30
0.0
11
822.129932
21
556.968672
31
0.0
0
LINE
8
VISIBLE
10
817.673934
20
554.396001
30
0.0
11
818.443718
21
554.211953
31
0.0
0
LINE
8
VISIBLE
10
818.443718
20
554.211953
30
0.0
11
819.319126
21
554.467093
31
0.0
0
LINE
8
VISIBLE
10
817.567947
20
554.467093
30
0.0
11
817.673934
21
554.396001
31
0.0
0
LINE
8
VISIBLE
10
782.487715
20
534.081227
30
0.0
11
783.257498
21
533.897180
31
0.0
0
LINE
8
VISIBLE
10
783.257498
20
533.897180
30
0.0
11
784.132907
21
534.152320
31
0.0
0
LINE
8
VISIBLE
10
782.381728
20
534.152320
30
0.0
11
782.487715
21
534.081227
31
0.0
0
LINE
8
VISIBLE
10
777.492996
20
531.197525
30
0.0
11
778.371694
21
530.954122
31
0.0
0
LINE
8
VISIBLE
10
778.371694
20
530.954122
30
0.0
11
779.406425
21
531.115657
31
0.0
0
LINE
8
VISIBLE
10
779.406425
20
531.115657
30
0.0
11
779.851417
21
531.424133
31
0.0
0
LINE
8
VISIBLE
10
777.212500
20
531.424133
30
0.0
11
777.492996
21
531.197525
31
0.0
0
LINE
8
VISIBLE
10
757.000000
20
541.270489
30
0.0
11
757.000000
21
542.016963
31
0.0
0
LINE
8
VISIBLE
10
757.073614
20
541.702007
30
0.0
11
757.073614
21
542.448482
31
0.0
0
LINE
8
VISIBLE
10
757.291625
20
542.116942
30
0.0
11
757.291625
21
542.863417
31
0.0
0
LINE
8
VISIBLE
10
757.645658
20
542.499349
30
0.0
11
757.645658
21
543.245823
31
0.0
0
LINE
8
VISIBLE
10
758.122105
20
542.834531
30
0.0
11
758.122105
21
543.581005
31
0.0
0
LINE
8
VISIBLE
10
802.759041
20
568.605678
30
0.0
11
802.759041
21
569.352153
31
0.0
0
LINE
8
VISIBLE
10
803.339593
20
568.880755
30
0.0
11
803.339593
21
569.627229
31
0.0
0
LINE
8
VISIBLE
10
804.001941
20
569.085155
30
0.0
11
804.001941
21
569.831630
31
0.0
0
LINE
8
VISIBLE
10
827.000000
20
556.822043
30
0.0
11
827.000000
21
557.568518
31
0.0
0
LINE
8
VISIBLE
10
804.720630
20
569.211025
30
0.0
11
804.720630
21
569.957499
31
0.0
0
LINE
8
VISIBLE
10
826.926386
20
557.253561
30
0.0
11
826.926386
21
558.000036
31
0.0
0
LINE
8
VISIBLE
10
805.468041
20
569.253525
30
0.0
11
805.468041
21
570.000000
31
0.0
0
LINE
8
VISIBLE
10
826.708375
20
557.668497
30
0.0
11
826.708375
21
558.414971
31
0.0
0
LINE
8
VISIBLE
10
806.215453
20
569.211025
30
0.0
11
806.215453
21
569.957499
31
0.0
0
LINE
8
VISIBLE
10
826.354342
20
558.050903
30
0.0
11
826.354342
21
558.797378
31
0.0
0
LINE
8
VISIBLE
10
806.934141
20
569.085155
30
0.0
11
806.934141
21
569.831630
31
0.0
0
LINE
8
VISIBLE
10
825.877895
20
558.386085
30
0.0
11
825.877895
21
559.132560
31
0.0
0
LINE
8
VISIBLE
10
807.596489
20
568.880755
30
0.0
11
807.596489
21
569.627229
31
0.0
0
LINE
8
VISIBLE
10
808.177041
20
568.605678
30
0.0
11
808.177041
21
569.352153
31
0.0
0
LINE
8
VISIBLE
10
804.429078
20
566.441790
30
0.0
11
804.429078
21
567.188265
31
0.0
0
LINE
8
VISIBLE
10
771.355417
20
547.346703
30
0.0
11
771.355417
21
547.768817
31
0.0
0
LINE
8
VISIBLE
10
773.279423
20
546.235878
30
0.0
11
773.279423
21
546.657992
31
0.0
0
LINE
8
VISIBLE
10
775.203429
20
545.125053
30
0.0
11
775.203429
21
545.547166
31
0.0
0
LINE
8
VISIBLE
10
767.661326
20
545.213919
30
0.0
11
767.661326
21
545.636032
31
0.0
0
LINE
8
VISIBLE
10
759.792142
20
540.670643
30
0.0
11
759.792142
21
541.417118
31
0.0
0
LINE
8
VISIBLE
10
769.585332
20
544.103093
30
0.0
11
769.585332
21
544.525207
31
0.0
0
LINE
8
VISIBLE
10
771.509337
20
542.992268
30
0.0
11
771.509337
21
543.414382
31
0.0
0
LINE
8
VISIBLE
10
777.127435
20
544.014227
30
0.0
11
777.127435
21
544.436341
31
0.0
0
LINE
8
VISIBLE
10
789.614233
20
548.024307
30
0.0
11
789.614233
21
548.468637
31
0.0
0
LINE
8
VISIBLE
10
773.433343
20
541.881443
30
0.0
11
773.433343
21
542.303556
31
0.0
0
LINE
8
VISIBLE
10
768.200047
20
540.592885
30
0.0
11
768.200047
21
541.014999
31
0.0
0
LINE
8
VISIBLE
10
764.505956
20
538.460101
30
0.0
11
764.505956
21
538.882214
31
0.0
0
LINE
8
VISIBLE
10
770.124053
20
539.482060
30
0.0
11
770.124053
21
539.904174
31
0.0
0
LINE
8
VISIBLE
10
766.429962
20
537.349275
30
0.0
11
766.429962
21
537.771389
31
0.0
0
LINE
8
VISIBLE
10
772.048059
20
538.371235
30
0.0
11
772.048059
21
538.793348
31
0.0
0
LINE
8
VISIBLE
10
768.353968
20
536.238450
30
0.0
11
768.353968
21
536.660564
31
0.0
0
LINE
8
VISIBLE
10
822.129932
20
556.222197
30
0.0
11
822.129932
21
556.968672
31
0.0
0
LINE
8
VISIBLE
10
818.051039
20
554.995846
30
0.0
11
818.051039
21
555.449063
31
0.0
0
LINE
8
VISIBLE
10
817.673934
20
553.649526
30
0.0
11
817.673934
21
554.396001
31
0.0
0
LINE
8
VISIBLE
10
820.005829
20
553.867248
30
0.0
11
820.005829
21
554.320465
31
0.0
0
LINE
8
VISIBLE
10
816.096250
20
553.867248
30
0.0
11
816.096250
21
554.320465
31
0.0
0
LINE
8
VISIBLE
10
814.141460
20
552.738649
30
0.0
11
814.141460
21
553.191866
31
0.0
0
LINE
8
VISIBLE
10
812.186670
20
551.610051
30
0.0
11
812.186670
21
552.063268
31
0.0
0
LINE
8
VISIBLE
10
818.051039
20
552.738649
30
0.0
11
818.051039
21
553.191866
31
0.0
0
LINE
8
VISIBLE
10
816.096250
20
551.610051
30
0.0
11
816.096250
21
552.063268
31
0.0
0
LINE
8
VISIBLE
10
814.141460
20
550.481452
30
0.0
11
814.141460
21
550.934669
31
0.0
0
LINE
8
VISIBLE
10
810.231880
20
550.481452
30
0.0
11
810.231880
21
550.934669
31
0.0
0
LINE
8
VISIBLE
10
808.277090
20
549.352854
30
0.0
11
808.277090
21
549.806070
31
0.0
0
LINE
8
VISIBLE
10
806.322300
20
548.224255
30
0.0
11
806.322300
21
548.677472
31
0.0
0
LINE
8
VISIBLE
10
812.186670
20
549.352854
30
0.0
11
812.186670
21
549.806070
31
0.0
0
LINE
8
VISIBLE
10
810.231880
20
548.224255
30
0.0
11
810.231880
21
548.677472
31
0.0
0
LINE
8
VISIBLE
10
808.277090
20
547.095657
30
0.0
11
808.277090
21
547.548873
31
0.0
0
LINE
8
VISIBLE
10
804.367510
20
547.095657
30
0.0
11
804.367510
21
547.548873
31
0.0
0
LINE
8
VISIBLE
10
802.412720
20
545.967058
30
0.0
11
802.412720
21
546.420275
31
0.0
0
LINE
8
VISIBLE
10
800.457930
20
544.838460
30
0.0
11
800.457930
21
545.291676
31
0.0
0
LINE
8
VISIBLE
10
806.322300
20
545.967058
30
0.0
11
806.322300
21
546.420275
31
0.0
0
LINE
8
VISIBLE
10
804.367510
20
544.838460
30
0.0
11
804.367510
21
545.291676
31
0.0
0
LINE
8
VISIBLE
10
802.412720
20
543.709861
30
0.0
11
802.412720
21
544.163078
31
0.0
0
LINE
8
VISIBLE
10
798.503140
20
543.709861
30
0.0
11
798.503140
21
544.163078
31
0.0
0
LINE
8
VISIBLE
10
796.548350
20
542.581263
30
0.0
11
796.548350
21
543.034479
31
0.0
0
LINE
8
VISIBLE
10
794.593560
20
541.452664
30
0.0
11
794.593560
21
541.905881
31
0.0
0
LINE
8
VISIBLE
10
800.457930
20
542.581263
30
0.0
11
800.457930
21
543.034479
31
0.0
0
LINE
8
VISIBLE
10
798.503140
20
541.452664
30
0.0
11
798.503140
21
541.905881
31
0.0
0
LINE
8
VISIBLE
10
796.548350
20
540.324066
30
0.0
11
796.548350
21
540.777282
31
0.0
0
LINE
8
VISIBLE
10
792.638770
20
540.324066
30
0.0
11
792.638770
21
540.777282
31
0.0
0
LINE
8
VISIBLE
10
790.683980
20
539.195467
30
0.0
11
790.683980
21
539.648684
31
0.0
0
LINE
8
VISIBLE
10
788.729190
20
538.066869
30
0.0
11
788.729190
21
538.520085
31
0.0
0
LINE
8
VISIBLE
10
794.593560
20
539.195467
30
0.0
11
794.593560
21
539.648684
31
0.0
0
LINE
8
VISIBLE
10
792.638770
20
538.066869
30
0.0
11
792.638770
21
538.520085
31
0.0
0
LINE
8
VISIBLE
10
790.683980
20
536.938270
30
0.0
11
790.683980
21
537.391487
31
0.0
0
LINE
8
VISIBLE
10
786.774400
20
536.938270
30
0.0
11
786.774400
21
537.391487
31
0.0
0
LINE
8
VISIBLE
10
784.819610
20
535.809672
30
0.0
11
784.819610
21
536.262888
31
0.0
0
LINE
8
VISIBLE
10
782.864820
20
534.681073
30
0.0
11
782.864820
21
535.134290
31
0.0
0
LINE
8
VISIBLE
10
788.729190
20
535.809672
30
0.0
11
788.729190
21
536.262888
31
0.0
0
LINE
8
VISIBLE
10
786.774400
20
534.681073
30
0.0
11
786.774400
21
535.134290
31
0.0
0
LINE
8
VISIBLE
10
784.819610
20
533.552475
30
0.0
11
784.819610
21
534.005691
31
0.0
0
LINE
8
VISIBLE
10
780.910030
20
533.552475
30
0.0
11
780.910030
21
534.005691
31
0.0
0
LINE
8
VISIBLE
10
782.487715
20
533.334753
30
0.0
11
782.487715
21
534.081227
31
0.0
0
LINE
8
VISIBLE
10
777.492996
20
530.451050
30
0.0
11
777.492996
21
531.197525
31
0.0
0
LINE
8
VISIBLE
10
782.864820
20
532.423876
30
0.0
11
782.864820
21
532.877093
31
0.0
0
LINE
8
DIM
10
37.300000
20
248.300000
30
0.0
11
37.300000
21
226.500000
31
0.0
0
LINE
8
DIM
10
362.500000
20
248.300000
30
0.0
11
362.500000
21
226.500000
31
0.0
0
LINE
8
DIM
10
37.300000
20
228.500000
30
0.0
11
362.500000
21
228.500000
31
0.0
0
SOLID
8
DIM
10
37.300000
20
228.500000
30
0.0
11
40.500000
21
227.892000
31
0.0
12
40.500000
22
229.108000
32
0.0
13
40.500000
23
229.108000
33
0.0
0
SOLID
8
DIM
10
362.500000
20
228.500000
30
0.0
11
359.300000
21
229.108000
31
0.0
12
359.300000
22
227.892000
32
0.0
13
359.300000
23
227.892000
33
0.0
0
TEXT
8
TEXT
10
199.900000
20
229.500000
30
0.0
40
2.5000
1
65.04
72
1
73
0
11
199.900000
21
229.500000
31
0.0
0
LINE
8
DIM
10
36.100000
20
249.500000
30
0.0
11
14.300000
21
249.500000
31
0.0
0
LINE
8
DIM
10
36.100000
20
399.700000
30
0.0
11
14.300000
21
399.700000
31
0.0
0
LINE
8
DIM
10
16.300000
20
249.500000
30
0.0
11
16.300000
21
399.700000
31
0.0
0
SOLID
8
DIM
10
16.300000
20
249.500000
30
0.0
11
16.908000
21
252.700000
31
0.0
12
15.692000
22
252.700000
32
0.0
13
15.692000
23
252.700000
33
0.0
0
SOLID
8
DIM
10
16.300000
20
399.700000
30
0.0
11
15.692000
21
396.500000
31
0.0
12
16.908000
22
396.500000
32
0.0
13
16.908000
23
396.500000
33
0.0
0
TEXT
8
TEXT
10
15.300000
20
324.600000
30
0.0
40
2.5000
1
30.04
50
90.0000
72
1
73
0
11
15.300000
21
324.600000
31
0.0
0
SOLID
8
DIM
10
48.150000
20
267.100000
30
0.0
11
44.942181
21
266.534700
31
0.0
12
45.373046
22
265.397593
32
0.0
13
45.373046
23
265.397593
33
0.0
0
LINE
8
DIM
10
48.150000
20
267.100000
30
0.0
11
38.798792
21
263.556709
31
0.0
0
LINE
8
DIM
10
38.798792
20
263.556709
30
0.0
11
35.798792
21
263.556709
31
0.0
0
TEXT
8
TEXT
10
34.998792
20
264.556709
30
0.0
40
2.5000
1
R1.35
72
2
73
0
11
34.998792
21
264.556709
31
0.0
0
SOLID
8
DIM
10
80.600000
20
382.100000
30
0.0
11
77.981335
21
384.037075
31
0.0
12
77.453374
22
382.941670
32
0.0
13
77.453374
23
382.941670
33
0.0
0
LINE
8
DIM
10
80.600000
20
382.100000
30
0.0
11
71.591733
21
386.441788
31
0.0
0
LINE
8
DIM
10
71.591733
20
386.441788
30
0.0
11
68.591733
21
386.441788
31
0.0
0
TEXT
8
TEXT
10
67.791733
20
387.441788
30
0.0
40
2.5000
1
R1.00
72
2
73
0
11
67.791733
21
387.441788
31
0.0
0
SOLID
8
DIM
10
76.700000
20
388.450000
30
0.0
11
74.138653
21
390.462254
31
0.0
12
73.579125
22
389.382632
32
0.0
13
73.579125
23
389.382632
33
0.0
0
LINE
8
DIM
10
76.700000
20
388.450000
30
0.0
11
67.821528
21
393.051384
31
0.0
0
LINE
8
DIM
10
67.821528
20
393.051384
30
0.0
11
64.821528
21
393.051384
31
0.0
0
TEXT
8
TEXT
10
64.021528
20
394.051384
30
0.0
40
2.5000
1
R0.51
72
2
73
0
11
64.021528
21
394.051384
31
0.0
0
SOLID
8
DIM
10
208.400000
20
322.600000
30
0.0
11
211.375679
21
321.275236
31
0.0
12
211.654191
22
322.458912
32
0.0
13
211.654191
23
322.458912
33
0.0
0
LINE
8
DIM
10
208.400000
20
322.600000
30
0.0
11
218.134172
21
320.309607
31
0.0
0
LINE
8
DIM
10
218.134172
20
320.309607
30
0.0
11
221.134172
21
320.309607
31
0.0
0
TEXT
8
TEXT
10
221.934172
20
321.309607
30
0.0
40
2.5000
1
R0.50
0
SOLID
8
DIM
10
344.025000
20
294.850000
30
0.0
11
347.036020
21
293.607653
31
0.0
12
347.281842
22
294.798547
32
0.0
13
347.281842
23
294.798547
33
0.0
0
LINE
8
DIM
10
344.025000
20
294.850000
30
0.0
11
353.818533
21
292.828438
31
0.0
0
LINE
8
DIM
10
353.818533
20
292.828438
30
0.0
11
356.818533
21
292.828438
31
0.0
0
TEXT
8
TEXT
10
357.618533
20
293.828438
30
0.0
40
2.5000
1
R0.47
0
TEXT
8
TEXT
10
199.900000
20
216.500000
30
0.0
40
4.0000
1
TOP VIEW
72
1
73
0
11
199.900000
21
216.500000
31
0.0
0
LINE
8
TEXT
10
190.300000
20
214.900000
30
0.0
11
209.500000
21
214.900000
31
0.0
0
TEXT
8
TEXT
10
199.900000
20
210.500000
30
0.0
40
2.4000
1
X →   Y ↑
72
1
73
0
11
199.900000
21
210.500000
31
0.0
0
LINE
8
DIM
10
37.300000
20
193.100000
30
0.0
11
37.300000
21
180.300000
31
0.0
0
LINE
8
DIM
10
362.500000
20
193.100000
30
0.0
11
362.500000
21
180.300000
31
0.0
0
LINE
8
DIM
10
37.300000
20
182.300000
30
0.0
11
362.500000
21
182.300000
31
0.0
0
SOLID
8
DIM
10
37.300000
20
182.300000
30
0.0
11
40.500000
21
181.692000
31
0.0
12
40.500000
22
182.908000
32
0.0
13
40.500000
23
182.908000
33
0.0
0
SOLID
8
DIM
10
362.500000
20
182.300000
30
0.0
11
359.300000
21
182.908000
31
0.0
12
359.300000
22
181.692000
32
0.0
13
359.300000
23
181.692000
33
0.0
0
TEXT
8
TEXT
10
199.900000
20
183.300000
30
0.0
40
2.5000
1
65.04
72
1
73
0
11
199.900000
21
183.300000
31
0.0
0
LINE
8
DIM
10
36.100000
20
194.300000
30
0.0
11
23.300000
21
194.300000
31
0.0
0
LINE
8
DIM
10
36.100000
20
198.500000
30
0.0
11
23.300000
21
198.500000
31
0.0
0
LINE
8
DIM
10
25.300000
20
194.300000
30
0.0
11
25.300000
21
198.500000
31
0.0
0
SOLID
8
DIM
10
25.300000
20
194.300000
30
0.0
11
24.692000
21
191.100000
31
0.0
12
25.908000
22
191.100000
32
0.0
13
25.908000
23
191.100000
33
0.0
0
SOLID
8
DIM
10
25.300000
20
198.500000
30
0.0
11
25.908000
21
201.700000
31
0.0
12
24.692000
22
201.700000
32
0.0
13
24.692000
23
201.700000
33
0.0
0
LINE
8
DIM
10
25.300000
20
198.500000
30
0.0
11
25.300000
21
208.100000
31
0.0
0
TEXT
8
TEXT
10
24.300000
20
208.900000
30
0.0
40
2.5000
1
0.84
50
90.0000
0
TEXT
8
TEXT
10
199.900000
20
170.300000
30
0.0
40
4.0000
1
FRONT VIEW
72
1
73
0
11
199.900000
21
170.300000
31
0.0
0
LINE
8
TEXT
10
187.900000
20
168.700000
30
0.0
11
211.900000
21
168.700000
31
0.0
0
TEXT
8
TEXT
10
199.900000
20
164.300000
30
0.0
40
2.4000
1
-X →   Z ↑
72
1
73
0
11
199.900000
21
164.300000
31
0.0
0
LINE
8
DIM
10
400.500000
20
321.300000
30
0.0
11
400.500000
21
308.500000
31
0.0
0
LINE
8
DIM
10
725.700000
20
321.300000
30
0.0
11
725.700000
21
308.500000
31
0.0
0
LINE
8
DIM
10
400.500000
20
310.500000
30
0.0
11
725.700000
21
310.500000
31
0.0
0
SOLID
8
DIM
10
400.500000
20
310.500000
30
0.0
11
403.700000
21
309.892000
31
0.0
12
403.700000
22
311.108000
32
0.0
13
403.700000
23
311.108000
33
0.0
0
SOLID
8
DIM
10
725.700000
20
310.500000
30
0.0
11
722.500000
21
311.108000
31
0.0
12
722.500000
22
309.892000
32
0.0
13
722.500000
23
309.892000
33
0.0
0
TEXT
8
TEXT
10
563.100000
20
311.500000
30
0.0
40
2.5000
1
65.04
72
1
73
0
11
563.100000
21
311.500000
31
0.0
0
LINE
8
DIM
10
399.300000
20
322.500000
30
0.0
11
386.500000
21
322.500000
31
0.0
0
LINE
8
DIM
10
399.300000
20
326.700000
30
0.0
11
386.500000
21
326.700000
31
0.0
0
LINE
8
DIM
10
388.500000
20
322.500000
30
0.0
11
388.500000
21
326.700000
31
0.0
0
SOLID
8
DIM
10
388.500000
20
322.500000
30
0.0
11
387.892000
21
319.300000
31
0.0
12
389.108000
22
319.300000
32
0.0
13
389.108000
23
319.300000
33
0.0
0
SOLID
8
DIM
10
388.500000
20
326.700000
30
0.0
11
389.108000
21
329.900000
31
0.0
12
387.892000
22
329.900000
32
0.0
13
387.892000
23
329.900000
33
0.0
0
LINE
8
DIM
10
388.500000
20
326.700000
30
0.0
11
388.500000
21
336.300000
31
0.0
0
TEXT
8
TEXT
10
387.500000
20
337.100000
30
0.0
40
2.5000
1
0.84
50
90.0000
0
LINE
8
HATCH
10
415.810888
20
322.500000
30
0.0
11
415.810895
21
322.500007
31
0.0
0
LINE
8
HATCH
10
411.568248
20
322.500000
30
0.0
11
415.768248
21
326.700000
31
0.0
0
LINE
8
HATCH
10
407.325607
20
322.500000
30
0.0
11
411.525607
21
326.700000
31
0.0
0
LINE
8
HATCH
10
403.082966
20
322.500000
30
0.0
11
407.282966
21
326.700000
31
0.0
0
LINE
8
HATCH
10
400.500000
20
324.159674
30
0.0
11
403.040326
21
326.700000
31
0.0
0
LINE
8
HATCH
10
725.699993
20
322.500000
30
0.0
11
725.700000
21
322.500007
31
0.0
0
LINE
8
HATCH
10
721.457352
20
322.500000
30
0.0
11
725.657352
21
326.700000
31
0.0
0
LINE
8
HATCH
10
717.214712
20
322.500000
30
0.0
11
721.414712
21
326.700000
31
0.0
0
LINE
8
HATCH
10
712.972071
20
322.500000
30
0.0
11
717.172071
21
326.700000
31
0.0
0
LINE
8
HATCH
10
710.389105
20
324.159674
30
0.0
11
712.929430
21
326.700000
31
0.0
0
LINE
8
HATCH
10
705.810888
20
322.500000
30
0.0
11
705.810895
21
322.500007
31
0.0
0
LINE
8
HATCH
10
701.568248
20
322.500000
30
0.0
11
705.768248
21
326.700000
31
0.0
0
LINE
8
HATCH
10
697.325607
20
322.500000
30
0.0
11
701.525607
21
326.700000
31
0.0
0
LINE
8
HATCH
10
693.082966
20
322.500000
30
0.0
11
697.282966
21
326.700000
31
0.0
0
LINE
8
HATCH
10
688.840326
20
322.500000
30
0.0
11
693.040326
21
326.700000
31
0.0
0
LINE
8
HATCH
10
686.300000
20
324.202315
30
0.0
11
688.797685
21
326.700000
31
0.0
0
LINE
8
HATCH
10
681.199993
20
322.500000
30
0.0
11
681.200000
21
322.500007
31
0.0
0
LINE
8
HATCH
10
676.957352
20
322.500000
30
0.0
11
681.157352
21
326.700000
31
0.0
0
LINE
8
HATCH
10
673.600000
20
323.385288
30
0.0
11
676.914712
21
326.700000
31
0.0
0
LINE
8
HATCH
10
668.499993
20
322.500000
30
0.0
11
668.500000
21
322.500007
31
0.0
0
LINE
8
HATCH
10
664.257352
20
322.500000
30
0.0
11
668.457352
21
326.700000
31
0.0
0
LINE
8
HATCH
10
660.900000
20
323.385288
30
0.0
11
664.214712
21
326.700000
31
0.0
0
LINE
8
HATCH
10
655.799993
20
322.500000
30
0.0
11
655.800000
21
322.500007
31
0.0
0
LINE
8
HATCH
10
651.557352
20
322.500000
30
0.0
11
655.757352
21
326.700000
31
0.0
0
LINE
8
HATCH
10
648.200000
20
323.385288
30
0.0
11
651.514712
21
326.700000
31
0.0
0
LINE
8
HATCH
10
643.099993
20
322.500000
30
0.0
11
643.100000
21
322.500007
31
0.0
0
LINE
8
HATCH
10
638.857352
20
322.500000
30
0.0
11
643.057352
21
326.700000
31
0.0
0
LINE
8
HATCH
10
635.500000
20
323.385288
30
0.0
11
638.814712
21
326.700000
31
0.0
0
LINE
8
HATCH
10
630.399993
20
322.500000
30
0.0
11
630.400000
21
322.500007
31
0.0
0
LINE
8
HATCH
10
626.157352
20
322.500000
30
0.0
11
630.357352
21
326.700000
31
0.0
0
LINE
8
HATCH
10
622.800000
20
323.385288
30
0.0
11
626.114712
21
326.700000
31
0.0
0
LINE
8
HATCH
10
617.699993
20
322.500000
30
0.0
11
617.700000
21
322.500007
31
0.0
0
LINE
8
HATCH
10
613.457352
20
322.500000
30
0.0
11
617.657352
21
326.700000
31
0.0
0
LINE
8
HATCH
10
610.100000
20
323.385288
30
0.0
11
613.414712
21
326.700000
31
0.0
0
LINE
8
HATCH
10
604.999993
20
322.500000
30
0.0
11
605.000000
21
322.500007
31
0.0
0
LINE
8
HATCH
10
600.757352
20
322.500000
30
0.0
11
604.957352
21
326.700000
31
0.0
0
LINE
8
HATCH
10
597.400000
20
323.385288
30
0.0
11
600.714712
21
326.700000
31
0.0
0
LINE
8
HATCH
10
592.299993
20
322.500000
30
0.0
11
592.300000
21
322.500007
31
0.0
0
LINE
8
HATCH
10
588.057352
20
322.500000
30
0.0
11
592.257352
21
326.700000
31
0.0
0
LINE
8
HATCH
10
584.700000
20
323.385288
30
0.0
11
588.014712
21
326.700000
31
0.0
0
LINE
8
HATCH
10
579.599993
20
322.500000
30
0.0
11
579.600000
21
322.500007
31
0.0
0
LINE
8
HATCH
10
575.357352
20
322.500000
30
0.0
11
579.557352
21
326.700000
31
0.0
0
LINE
8
HATCH
10
572.000000
20
323.385288
30
0.0
11
575.314712
21
326.700000
31
0.0
0
LINE
8
HATCH
10
566.899993
20
322.500000
30
0.0
11
566.900000
21
322.500007
31
0.0
0
LINE
8
HATCH
10
562.657352
20
322.500000
30
0.0
11
566.857352
21
326.700000
31
0.0
0
LINE
8
HATCH
10
559.300000
20
323.385288
30
0.0
11
562.614712
21
326.700000
31
0.0
0
LINE
8
HATCH
10
554.199993
20
322.500000
30
0.0
11
554.200000
21
322.500007
31
0.0
0
LINE
8
HATCH
10
549.957352
20
322.500000
30
0.0
11
554.157352
21
326.700000
31
0.0
0
LINE
8
HATCH
10
546.600000
20
323.385288
30
0.0
11
549.914712
21
326.700000
31
0.0
0
LINE
8
HATCH
10
541.499993
20
322.500000
30
0.0
11
541.500000
21
322.500007
31
0.0
0
LINE
8
HATCH
10
537.257352
20
322.500000
30
0.0
11
541.457352
21
326.700000
31
0.0
0
LINE
8
HATCH
10
533.900000
20
323.385288
30
0.0
11
537.214712
21
326.700000
31
0.0
0
LINE
8
HATCH
10
528.799993
20
322.500000
30
0.0
11
528.800000
21
322.500007
31
0.0
0
LINE
8
HATCH
10
524.557352
20
322.500000
30
0.0
11
528.757352
21
326.700000
31
0.0
0
LINE
8
HATCH
10
521.200000
20
323.385288
30
0.0
11
524.514712
21
326.700000
31
0.0
0
LINE
8
HATCH
10
516.099993
20
322.500000
30
0.0
11
516.100000
21
322.500007
31
0.0
0
LINE
8
HATCH
10
511.857352
20
322.500000
30
0.0
11
516.057352
21
326.700000
31
0.0
0
LINE
8
HATCH
10
508.500000
20
323.385288
30
0.0
11
511.814712
21
326.700000
31
0.0
0
LINE
8
HATCH
10
503.399993
20
322.500000
30
0.0
11
503.400000
21
322.500007
31
0.0
0
LINE
8
HATCH
10
499.157352
20
322.500000
30
0.0
11
503.357352
21
326.700000
31
0.0
0
LINE
8
HATCH
10
495.800000
20
323.385288
30
0.0
11
499.114712
21
326.700000
31
0.0
0
LINE
8
HATCH
10
490.699993
20
322.500000
30
0.0
11
490.700000
21
322.500007
31
0.0
0
LINE
8
HATCH
10
486.457352
20
322.500000
30
0.0
11
490.657352
21
326.700000
31
0.0
0
LINE
8
HATCH
10
483.100000
20
323.385288
30
0.0
11
486.414712
21
326.700000
31
0.0
0
LINE
8
HATCH
10
477.999993
20
322.500000
30
0.0
11
478.000000
21
322.500007
31
0.0
0
LINE
8
HATCH
10
473.757352
20
322.500000
30
0.0
11
477.957352
21
326.700000
31
0.0
0
LINE
8
HATCH
10
470.400000
20
323.385288
30
0.0
11
473.714712
21
326.700000
31
0.0
0
LINE
8
HATCH
10
465.299993
20
322.500000
30
0.0
11
465.300000
21
322.500007
31
0.0
0
LINE
8
HATCH
10
461.057352
20
322.500000
30
0.0
11
465.257352
21
326.700000
31
0.0
0
LINE
8
HATCH
10
457.700000
20
323.385288
30
0.0
11
461.014712
21
326.700000
31
0.0
0
LINE
8
HATCH
10
452.599993
20
322.500000
30
0.0
11
452.600000
21
322.500007
31
0.0
0
LINE
8
HATCH
10
448.357352
20
322.500000
30
0.0
11
452.557352
21
326.700000
31
0.0
0
LINE
8
HATCH
10
445.000000
20
323.385288
30
0.0
11
448.314712
21
326.700000
31
0.0
0
LINE
8
HATCH
10
439.899993
20
322.500000
30
0.0
11
439.900000
21
322.500007
31
0.0
0
LINE
8
HATCH
10
435.657352
20
322.500000
30
0.0
11
439.857352
21
326.700000
31
0.0
0
LINE
8
HATCH
10
431.414712
20
322.500000
30
0.0
11
435.614712
21
326.700000
31
0.0
0
LINE
8
HATCH
10
427.172071
20
322.500000
30
0.0
11
431.372071
21
326.700000
31
0.0
0
LINE
8
HATCH
10
422.929430
20
322.500000
30
0.0
11
427.129430
21
326.700000
31
0.0
0
LINE
8
HATCH
10
420.389105
20
324.202315
30
0.0
11
422.886789
21
326.700000
31
0.0
0
LINE
8
DIM
10
413.895005
20
322.500000
30
0.0
11
736.700000
21
322.500000
31
0.0
0
LINE
8
DIM
10
413.895005
20
326.700000
30
0.0
11
736.700000
21
326.700000
31
0.0
0
LINE
8
DIM
10
734.700000
20
322.500000
30
0.0
11
734.700000
21
326.700000
31
0.0
0
SOLID
8
DIM
10
734.700000
20
322.500000
30
0.0
11
734.092000
21
319.300000
31
0.0
12
735.308000
22
319.300000
32
0.0
13
735.308000
23
319.300000
33
0.0
0
SOLID
8
DIM
10
734.700000
20
326.700000
30
0.0
11
735.308000
21
329.900000
31
0.0
12
734.092000
22
329.900000
32
0.0
13
734.092000
23
329.900000
33
0.0
0
LINE
8
DIM
10
734.700000
20
326.700000
30
0.0
11
734.700000
21
336.300000
31
0.0
0
TEXT
8
TEXT
10
733.700000
20
337.100000
30
0.0
40
2.5000
1
0.84 WALL
50
90.0000
0
LINE
8
DIM
10
584.700000
20
323.735005
30
0.0
11
584.700000
21
335.700000
31
0.0
0
LINE
8
DIM
10
592.300000
20
323.735005
30
0.0
11
592.300000
21
335.700000
31
0.0
0
LINE
8
DIM
10
584.700000
20
333.700000
30
0.0
11
592.300000
21
333.700000
31
0.0
0
SOLID
8
DIM
10
584.700000
20
333.700000
30
0.0
11
581.500000
21
334.308000
31
0.0
12
581.500000
22
333.092000
32
0.0
13
581.500000
23
333.092000
33
0.0
0
SOLID
8
DIM
10
592.300000
20
333.700000
30
0.0
11
595.500000
21
333.092000
31
0.0
12
595.500000
22
334.308000
32
0.0
13
595.500000
23
334.308000
33
0.0
0
LINE
8
DIM
10
592.300000
20
333.700000
30
0.0
11
601.900000
21
333.700000
31
0.0
0
TEXT
8
TEXT
10
602.700000
20
334.100000
30
0.0
40
2.5000
1
1.52 WALL
0
TEXT
8
TEXT
10
563.100000
20
298.500000
30
0.0
40
4.0000
1
SECTION A-A
72
1
73
0
11
563.100000
21
298.500000
31
0.0
0
LINE
8
TEXT
10
549.900000
20
296.900000
30
0.0
11
576.300000
21
296.900000
31
0.0
0
TEXT
8
TEXT
10
792.000000
20
522.839007
30
0.0
40
4.0000
1
ISOMETRIC VIEW
72
1
73
0
11
792.000000
21
522.839007
31
0.0
0
LINE
8
TEXT
10
775.200000
20
521.239007
30
0.0
11
808.800000
21
521.239007
31
0.0
0
TEXT
8
TEXT
10
792.000000
20
516.839007
30
0.0
40
2.6000
1
65.04 x 30.04 x 0.84 mm
72
1
73
0
11
792.000000
21
516.839007
31
0.0
0
LINE
8
CUT
10
28.300000
20
375.750000
30
0.0
11
42.300000
21
375.750000
31
0.0
0
LINE
8
CUTTHIN
10
42.300000
20
375.750000
30
0.0
11
357.500000
21
375.750000
31
0.0
0
LINE
8
CUT
10
357.500000
20
375.750000
30
0.0
11
371.500000
21
375.750000
31
0.0
0
LINE
8
CUT
10
28.300000
20
375.750000
30
0.0
11
28.300000
21
366.750000
31
0.0
0
SOLID
8
CUT
10
28.300000
20
366.750000
30
0.0
11
29.098000
21
370.950000
31
0.0
12
27.502000
22
370.950000
32
0.0
13
27.502000
23
370.950000
33
0.0
0
TEXT
8
TEXT
10
28.300000
20
380.750000
30
0.0
40
4.0000
1
A
72
1
73
2
11
28.300000
21
380.750000
31
0.0
0
LINE
8
CUT
10
371.500000
20
375.750000
30
0.0
11
371.500000
21
366.750000
31
0.0
0
SOLID
8
CUT
10
371.500000
20
366.750000
30
0.0
11
372.298000
21
370.950000
31
0.0
12
370.702000
22
370.950000
32
0.0
13
370.702000
23
370.950000
33
0.0
0
TEXT
8
TEXT
10
371.500000
20
380.750000
30
0.0
40
4.0000
1
A
72
1
73
2
11
371.500000
21
380.750000
31
0.0
0
LINE
8
VISIBLE
10
763.000000
20
463.016784
30
0.0
11
821.000000
21
463.016784
31
0.0
0
LINE
8
VISIBLE
10
821.000000
20
463.016784
30
0.0
11
821.000000
21
506.839007
31
0.0
0
LINE
8
VISIBLE
10
821.000000
20
506.839007
30
0.0
11
763.000000
21
506.839007
31
0.0
0
LINE
8
VISIBLE
10
763.000000
20
506.839007
30
0.0
11
763.000000
21
463.016784
31
0.0
0
LINE
8
TITLE
10
763.000000
20
463.016784
30
0.0
11
821.000000
21
463.016784
31
0.0
0
LINE
8
TITLE
10
821.000000
20
463.016784
30
0.0
11
821.000000
21
506.839007
31
0.0
0
LINE
8
TITLE
10
821.000000
20
506.839007
30
0.0
11
763.000000
21
506.839007
31
0.0
0
LINE
8
TITLE
10
763.000000
20
506.839007
30
0.0
11
763.000000
21
463.016784
31
0.0
0
TEXT
8
TEXT
10
792.000000
20
460.416784
30
0.0
40
2.0000
1
REFERENCE RENDER (ISO2) — rendered off this solid,
72
1
73
0
11
792.000000
21
460.416784
31
0.0
0
TEXT
8
TEXT
10
792.000000
20
457.816784
30
0.0
40
2.0000
1
900 x 680 px
72
1
73
0
11
792.000000
21
457.816784
31
0.0
0
TEXT
8
TEXT
10
755.000000
20
449.016784
30
0.0
40
3.0000
1
NOTES
0
TEXT
8
TEXT
10
755.000000
20
444.416784
30
0.0
40
2.4000
1
1. ALL DIMENSIONS IN mm AND DEGREES. EVERY
0
TEXT
8
TEXT
10
755.000000
20
440.696784
30
0.0
40
2.4000
1
   DIMENSION AND EVERY HOLE CALLOUT WAS MEASURED
0
TEXT
8
TEXT
10
755.000000
20
436.976784
30
0.0
40
2.4000
1
   OFF THE SOLID.
0
TEXT
8
TEXT
10
755.000000
20
433.256784
30
0.0
40
2.4000
1
2. THINNEST WALL, WHOLE SOLID: 0.2860 mm, AT
0
TEXT
8
TEXT
10
755.000000
20
429.536784
30
0.0
40
2.4000
1
   X=52.768 Y=0.911 Z=0.280 — MEASURED OVER THE
0
TEXT
8
TEXT
10
755.000000
20
425.816784
30
0.0
40
2.4000
1
   WHOLE SOLID BY RAY+EXACT AT 1.687 mm SAMPLE
0
TEXT
8
TEXT
10
755.000000
20
422.096784
30
0.0
40
2.4000
1
   SPACING (A FEATURE NARROWER THAN THAT CAN BE
0
TEXT
8
TEXT
10
755.000000
20
418.376784
30
0.0
40
2.4000
1
   MISSED). A RAY MINIMUM AT AN EDGE, A FILLET
0
TEXT
8
TEXT
10
755.000000
20
414.656784
30
0.0
40
2.4000
1
   RUN-OUT OR A CHAMFER TIP IS A REAL DISTANCE
0
TEXT
8
TEXT
10
755.000000
20
410.936784
30
0.0
40
2.4000
1
   THROUGH MATERIAL AND IS NOT A PRINTABLE WALL.
0
TEXT
8
TEXT
10
755.000000
20
407.216784
30
0.0
40
2.4000
1
3. GENERAL TOLERANCE CANNOT DETERMINE — SEE PRINT
0
TEXT
8
TEXT
10
755.000000
20
403.496784
30
0.0
40
2.4000
1
   / DFM NOTES UNLESS STATED.
0
TEXT
8
TEXT
10
755.000000
20
399.776784
30
0.0
40
2.4000
1
4. SECTION A-A AT Y=-1.27: THINNEST MATERIAL IN
0
TEXT
8
TEXT
10
755.000000
20
396.056784
30
0.0
40
2.4000
1
   THIS PLANE ONLY 0.84 mm, AT X=59.08, Z=0.42 — A
0
TEXT
8
TEXT
10
755.000000
20
392.336784
30
0.0
40
2.4000
1
   SCAN OF ONE CUT, NOT THE PART MINIMUM.
0
TEXT
8
TEXT
10
755.000000
20
388.616784
30
0.0
40
2.4000
1
5. TOP VIEW: hidden lines SUPPRESSED: all 566 edge
0
TEXT
8
TEXT
10
755.000000
20
384.896784
30
0.0
40
2.4000
1
   samples still land on drawn ink without them.
0
TEXT
8
TEXT
10
755.000000
20
381.176784
30
0.0
40
2.4000
1
6. FRONT VIEW: hidden lines SUPPRESSED: all 566
0
TEXT
8
TEXT
10
755.000000
20
377.456784
30
0.0
40
2.4000
1
   edge samples still land on drawn ink without
0
TEXT
8
TEXT
10
755.000000
20
373.736784
30
0.0
40
2.4000
1
   them.
0
TEXT
8
TEXT
10
755.000000
20
366.016784
30
0.0
40
3.0000
1
PRINT / DFM
0
TEXT
8
TEXT
10
755.000000
20
361.416784
30
0.0
40
2.4000
1
1. ORIENTATION: laid flat (65 x 30 x 1 mm)
0
TEXT
8
TEXT
10
755.000000
20
357.696784
30
0.0
40
2.4000
1
2. THINNEST WALL: 0.29 mm (floor 0.80 mm = 2
0
TEXT
8
TEXT
10
755.000000
20
353.976784
30
0.0
40
2.4000
1
   perimeters @ 0.4 mm nozzle)
0
TEXT
8
TEXT
10
755.000000
20
350.256784
30
0.0
40
2.4000
1
3. SMALL HOLES O0.95/1.00/1.02 PRINT UNDERSIZE:
0
TEXT
8
TEXT
10
755.000000
20
346.536784
30
0.0
40
2.4000
1
   drill to tapping size and form-tap after
0
TEXT
8
TEXT
10
755.000000
20
342.816784
30
0.0
40
2.4000
1
   printing; heat-set inserts for M2 into PLA
0
TEXT
8
TEXT
10
755.000000
20
339.096784
30
0.0
40
2.4000
1
4. FILAMENT: FR4, ~3 g (modelled), 5 layers @ 0.2
0
TEXT
8
TEXT
10
755.000000
20
335.376784
30
0.0
40
2.4000
1
   mm
0
TEXT
8
TEXT
10
755.000000
20
331.656784
30
0.0
40
2.4000
1
5. TOLERANCE BASIS, IN-HOUSE: CANNOT DETERMINE.
0
TEXT
8
TEXT
10
755.000000
20
327.936784
30
0.0
40
2.4000
1
   Every Bambu on this farm records tolerance_mm:
0
TEXT
8
TEXT
10
755.000000
20
324.216784
30
0.0
40
2.4000
1
   null, cite "no coupon printed and measured on
0
TEXT
8
TEXT
10
755.000000
20
320.496784
30
0.0
40
2.4000
1
   this machine" (ce-machines/bambu-h2s-*,
0
TEXT
8
TEXT
10
755.000000
20
316.776784
30
0.0
40
2.4000
1
   bambu-h2d-*/capabilities.json, read
0
TEXT
8
TEXT
10
755.000000
20
313.056784
30
0.0
40
2.4000
1
   2026-09-02), and Bambu Lab's own H2D Pro spec
0
TEXT
8
TEXT
10
755.000000
20
309.336784
30
0.0
40
2.4000
1
   sheet carries no dimensional-accuracy line.
0
TEXT
8
TEXT
10
755.000000
20
305.616784
30
0.0
40
2.4000
1
   DIMENSIONS HERE ARE NOMINAL AS MODELLED.
0
TEXT
8
TEXT
10
755.000000
20
301.896784
30
0.0
40
2.4000
1
6. TOLERANCE BASIS, OUTSOURCED: JLC3DP +/-0.3 mm
0
TEXT
8
TEXT
10
755.000000
20
298.176784
30
0.0
40
2.4000
1
   FDM (jlc3dp.com, ce-machines/farm-jlc3dp); Hubs
0
TEXT
8
TEXT
10
755.000000
20
294.456784
30
0.0
40
2.4000
1
   +/-0.5%, floor +/-0.5 mm
0
TEXT
8
TEXT
10
755.000000
20
290.736784
30
0.0
40
2.4000
1
   (hubs.com/3d-printing/, ce-machines/farm-hubs).
0
TEXT
8
TEXT
10
755.000000
20
287.016784
30
0.0
40
2.4000
1
   Apply the route's figure, not both. The +/-0.2
0
TEXT
8
TEXT
10
755.000000
20
283.296784
30
0.0
40
2.4000
1
   mm in cecad/machining.py fdm is a repo planning
0
TEXT
8
TEXT
10
755.000000
20
279.576784
30
0.0
40
2.4000
1
   constant with no vendor cite and is NOT used
0
TEXT
8
TEXT
10
755.000000
20
275.856784
30
0.0
40
2.4000
1
   here. One printed and measured coupon closes
0
TEXT
8
TEXT
10
755.000000
20
272.136784
30
0.0
40
2.4000
1
   this note.
0
TEXT
8
TEXT
10
755.000000
20
268.416784
30
0.0
40
2.4000
1
7. NO ISO 286 CLASS IS DECLARED ON ANY BORE: FDM
0
TEXT
8
TEXT
10
755.000000
20
264.696784
30
0.0
40
2.4000
1
   cannot be sized to one (H7/p6 at O3 is a 0.010
0
TEXT
8
TEXT
10
755.000000
20
260.976784
30
0.0
40
2.4000
1
   mm band). REAM bearing and press-fit bores
0
TEXT
8
TEXT
10
755.000000
20
257.256784
30
0.0
40
2.4000
1
   after printing.
0
TEXT
8
TEXT
10
755.000000
20
253.536784
30
0.0
40
2.4000
1
8. THIS IS OUR MODEL OF A BOUGHT PART, NOT A PART
0
TEXT
8
TEXT
10
755.000000
20
249.816784
30
0.0
40
2.4000
1
   WE MAKE. The solid was built parametrically in
0
TEXT
8
TEXT
10
755.000000
20
246.096784
30
0.0
40
2.4000
1
   this repo from the vendor's published figures;
0
TEXT
8
TEXT
10
755.000000
20
242.376784
30
0.0
40
2.4000
1
   the vendor's own drawing governs every
0
TEXT
8
TEXT
10
755.000000
20
238.656784
30
0.0
40
2.4000
1
   dimension, and this sheet exists so the
0
TEXT
8
TEXT
10
755.000000
20
234.936784
30
0.0
40
2.4000
1
   assembly can be checked against a real
0
TEXT
8
TEXT
10
755.000000
20
231.216784
30
0.0
40
2.4000
1
   envelope. Do not send it to a shop as a part to
0
TEXT
8
TEXT
10
755.000000
20
227.496784
30
0.0
40
2.4000
1
   manufacture. Its component.json states origin:
0
TEXT
8
TEXT
10
755.000000
20
223.776784
30
0.0
40
2.4000
1
   vendor and names the source it was measured
0
TEXT
8
TEXT
10
755.000000
20
220.056784
30
0.0
40
2.4000
1
   from.
0
LINE
8
FRAME
10
645.000000
20
10.000000
30
0.0
11
831.000000
21
10.000000
31
0.0
0
LINE
8
FRAME
10
831.000000
20
10.000000
30
0.0
11
831.000000
21
66.000000
31
0.0
0
LINE
8
FRAME
10
831.000000
20
66.000000
30
0.0
11
645.000000
21
66.000000
31
0.0
0
LINE
8
FRAME
10
645.000000
20
66.000000
30
0.0
11
645.000000
21
10.000000
31
0.0
0
LINE
8
TITLE
10
645.000000
20
53.000000
30
0.0
11
831.000000
21
53.000000
31
0.0
0
LINE
8
TITLE
10
645.000000
20
19.000000
30
0.0
11
831.000000
21
19.000000
31
0.0
0
LINE
8
TITLE
10
645.000000
20
27.500000
30
0.0
11
831.000000
21
27.500000
31
0.0
0
LINE
8
TITLE
10
645.000000
20
36.000000
30
0.0
11
831.000000
21
36.000000
31
0.0
0
LINE
8
TITLE
10
645.000000
20
44.500000
30
0.0
11
831.000000
21
44.500000
31
0.0
0
TEXT
8
TEXT
10
647.500000
20
59.500000
30
0.0
40
6.0000
1
MICRODUCK-ROBOT-HAT-PCB
72
0
73
2
11
647.500000
21
59.500000
31
0.0
0
LINE
8
TITLE
10
811.000000
20
53.000000
30
0.0
11
811.000000
21
66.000000
31
0.0
0
TEXT
8
TITLE
10
821.000000
20
63.600000
30
0.0
40
1.7000
1
REV
72
1
73
0
11
821.000000
21
63.600000
31
0.0
0
TEXT
8
TEXT
10
821.000000
20
55.000000
30
0.0
40
5.2000
1
A
72
1
73
0
11
821.000000
21
55.000000
31
0.0
0
LINE
8
TITLE
10
781.000000
20
53.000000
30
0.0
11
781.000000
21
66.000000
31
0.0
0
CIRCLE
8
TITLE
10
787.500000
20
59.500000
30
0.0
40
3.500000
0
CIRCLE
8
TITLE
10
787.500000
20
59.500000
30
0.0
40
1.960000
0
LINE
8
TITLE
10
797.300000
20
56.000000
30
0.0
11
797.300000
21
63.000000
31
0.0
0
LINE
8
TITLE
10
797.300000
20
63.000000
30
0.0
11
803.250000
21
61.460000
31
0.0
0
LINE
8
TITLE
10
803.250000
20
61.460000
30
0.0
11
803.250000
21
57.540000
31
0.0
0
LINE
8
TITLE
10
803.250000
20
57.540000
30
0.0
11
797.300000
21
56.000000
31
0.0
0
LINE
8
CENTER
10
782.500000
20
59.500000
30
0.0
11
804.750000
21
59.500000
31
0.0
0
LINE
8
TITLE
10
709.000000
20
19.000000
30
0.0
11
709.000000
21
53.000000
31
0.0
0
LINE
8
TITLE
10
773.000000
20
19.000000
30
0.0
11
773.000000
21
53.000000
31
0.0
0
TEXT
8
TITLE
10
646.600000
20
50.600000
30
0.0
40
1.7000
1
MATERIAL
0
TEXT
8
TEXT
10
646.600000
20
45.900000
30
0.0
40
2.5000
1
FR4
0
TEXT
8
TITLE
10
710.600000
20
50.600000
30
0.0
40
1.7000
1
PROCESS
0
TEXT
8
TEXT
10
710.600000
20
45.900000
30
0.0
40
2.5000
1
-
0
TEXT
8
TITLE
10
774.600000
20
50.600000
30
0.0
40
1.7000
1
SCALE
0
TEXT
8
TEXT
10
774.600000
20
45.900000
30
0.0
40
2.5000
1
5:1
0
TEXT
8
TITLE
10
646.600000
20
42.100000
30
0.0
40
1.7000
1
CATEGORY
0
TEXT
8
TEXT
10
646.600000
20
37.400000
30
0.0
40
2.5000
1
pcb
0
TEXT
8
TITLE
10
678.600000
20
42.100000
30
0.0
40
1.7000
1
GENERAL TOL
0
TEXT
8
TEXT
10
678.600000
20
37.400000
30
0.0
40
2.5000
1
CANNOT DETERMINE —~
0
LINE
8
TITLE
10
677.000000
20
36.000000
30
0.0
11
677.000000
21
44.500000
31
0.0
0
TEXT
8
TITLE
10
710.600000
20
42.100000
30
0.0
40
1.7000
1
FINISH
0
TEXT
8
TEXT
10
710.600000
20
37.400000
30
0.0
40
2.5000
1
AS PRINTED
0
TEXT
8
TITLE
10
774.600000
20
42.100000
30
0.0
40
1.7000
1
SHEET
0
TEXT
8
TEXT
10
774.600000
20
37.400000
30
0.0
40
2.5000
1
A1  1/1
0
TEXT
8
TITLE
10
646.600000
20
33.600000
30
0.0
40
1.7000
1
VOLUME (MEASURED)
0
TEXT
8
TEXT
10
646.600000
20
28.900000
30
0.0
40
2.5000
1
1.57 cm3
0
TEXT
8
TITLE
10
710.600000
20
33.600000
30
0.0
40
1.7000
1
MASS (ASSUMES FR4)
0
TEXT
8
TEXT
10
710.600000
20
28.900000
30
0.0
40
2.5000
1
3.0 g
0
TEXT
8
TITLE
10
774.600000
20
33.600000
30
0.0
40
1.7000
1
UNITS
0
TEXT
8
TEXT
10
774.600000
20
28.900000
30
0.0
40
2.5000
1
mm / deg
0
TEXT
8
TITLE
10
646.600000
20
25.100000
30
0.0
40
1.7000
1
SIZE (BBOX, MEASURED)
0
TEXT
8
TEXT
10
646.600000
20
20.400000
30
0.0
40
2.5000
1
65.04 x 30.04 x 0.84
0
TEXT
8
TITLE
10
710.600000
20
25.100000
30
0.0
40
1.7000
1
DRAWN
0
TEXT
8
TEXT
10
710.600000
20
20.400000
30
0.0
40
2.5000
1
ce-cad  2026-09-03
0
TEXT
8
TITLE
10
774.600000
20
25.100000
30
0.0
40
1.7000
1
PROJECTION
0
TEXT
8
TEXT
10
774.600000
20
20.400000
30
0.0
40
2.5000
1
THIRD ANGLE
0
TEXT
8
TITLE
10
646.600000
20
16.600000
30
0.0
40
1.7000
1
SOURCE (DESIGN FILE)
0
TEXT
8
TEXT
10
646.600000
20
11.400000
30
0.0
40
2.6000
1
ce-parts/microduck-robot-hat-pcb/current/cad/part.py
0
TEXT
8
TEXT
10
12.500000
20
577.500000
30
0.0
40
4.2000
1
microduck-robot-hat-pcb   SCALE 5:1   A1   THIRD ANGLE
0
ENDSEC
0
EOF
