0
SECTION
2
HEADER
9
$ACADVER
1
AC1009
9
$INSUNITS
70
4
9
$LTSCALE
40
1.0
9
$EXTMIN
10
0.0000
20
0.0000
30
0.0
9
$EXTMAX
10
594.0000
20
420.0000
30
0.0
0
ENDSEC
0
SECTION
2
TABLES
0
TABLE
2
LTYPE
70
4
0
LTYPE
2
CONTINUOUS
70
0
3
Solid line
72
65
73
0
40
0.0000
0
LTYPE
2
HIDDEN
70
0
3
Hidden __ __ __ __
72
65
73
2
40
3.6000
49
2.4000
49
-1.2000
0
LTYPE
2
CENTER
70
0
3
Center ____ _ ____ _
72
65
73
4
40
11.2000
49
7.0000
49
-1.4000
49
1.4000
49
-1.4000
0
LTYPE
2
PHANTOM
70
0
3
Phantom ____ _ _ ____
72
65
73
6
40
21.0000
49
11.0000
49
-2.0000
49
2.0000
49
-2.0000
49
2.0000
49
-2.0000
0
ENDTAB
0
TABLE
2
LAYER
70
12
0
LAYER
2
0
70
0
62
7
6
CONTINUOUS
0
LAYER
2
VISIBLE
70
0
62
7
6
CONTINUOUS
0
LAYER
2
SECTION
70
0
62
7
6
CONTINUOUS
0
LAYER
2
HIDDEN
70
0
62
8
6
HIDDEN
0
LAYER
2
CENTER
70
0
62
4
6
CENTER
0
LAYER
2
DIM
70
0
62
3
6
CONTINUOUS
0
LAYER
2
TEXT
70
0
62
3
6
CONTINUOUS
0
LAYER
2
HATCH
70
0
62
5
6
CONTINUOUS
0
LAYER
2
CUT
70
0
62
1
6
PHANTOM
0
LAYER
2
CUTTHIN
70
0
62
1
6
PHANTOM
0
LAYER
2
FRAME
70
0
62
7
6
CONTINUOUS
0
LAYER
2
TITLE
70
0
62
7
6
CONTINUOUS
0
ENDTAB
0
ENDSEC
0
SECTION
2
ENTITIES
0
LINE
8
TITLE
10
5.000000
20
5.000000
30
0.0
11
589.000000
21
5.000000
31
0.0
0
LINE
8
TITLE
10
589.000000
20
5.000000
30
0.0
11
589.000000
21
415.000000
31
0.0
0
LINE
8
TITLE
10
589.000000
20
415.000000
30
0.0
11
5.000000
21
415.000000
31
0.0
0
LINE
8
TITLE
10
5.000000
20
415.000000
30
0.0
11
5.000000
21
5.000000
31
0.0
0
LINE
8
FRAME
10
10.000000
20
10.000000
30
0.0
11
584.000000
21
10.000000
31
0.0
0
LINE
8
FRAME
10
584.000000
20
10.000000
30
0.0
11
584.000000
21
410.000000
31
0.0
0
LINE
8
FRAME
10
584.000000
20
410.000000
30
0.0
11
10.000000
21
410.000000
31
0.0
0
LINE
8
FRAME
10
10.000000
20
410.000000
30
0.0
11
10.000000
21
10.000000
31
0.0
0
TEXT
8
TITLE
10
67.400000
20
412.500000
30
0.0
40
2.4000
1
1
72
1
73
2
11
67.400000
21
412.500000
31
0.0
0
TEXT
8
TITLE
10
67.400000
20
7.500000
30
0.0
40
2.4000
1
1
72
1
73
2
11
67.400000
21
7.500000
31
0.0
0
TEXT
8
TITLE
10
182.200000
20
412.500000
30
0.0
40
2.4000
1
2
72
1
73
2
11
182.200000
21
412.500000
31
0.0
0
TEXT
8
TITLE
10
182.200000
20
7.500000
30
0.0
40
2.4000
1
2
72
1
73
2
11
182.200000
21
7.500000
31
0.0
0
LINE
8
TITLE
10
124.800000
20
5.000000
30
0.0
11
124.800000
21
10.000000
31
0.0
0
LINE
8
TITLE
10
124.800000
20
410.000000
30
0.0
11
124.800000
21
415.000000
31
0.0
0
TEXT
8
TITLE
10
297.000000
20
412.500000
30
0.0
40
2.4000
1
3
72
1
73
2
11
297.000000
21
412.500000
31
0.0
0
TEXT
8
TITLE
10
297.000000
20
7.500000
30
0.0
40
2.4000
1
3
72
1
73
2
11
297.000000
21
7.500000
31
0.0
0
LINE
8
TITLE
10
239.600000
20
5.000000
30
0.0
11
239.600000
21
10.000000
31
0.0
0
LINE
8
TITLE
10
239.600000
20
410.000000
30
0.0
11
239.600000
21
415.000000
31
0.0
0
TEXT
8
TITLE
10
411.800000
20
412.500000
30
0.0
40
2.4000
1
4
72
1
73
2
11
411.800000
21
412.500000
31
0.0
0
TEXT
8
TITLE
10
411.800000
20
7.500000
30
0.0
40
2.4000
1
4
72
1
73
2
11
411.800000
21
7.500000
31
0.0
0
LINE
8
TITLE
10
354.400000
20
5.000000
30
0.0
11
354.400000
21
10.000000
31
0.0
0
LINE
8
TITLE
10
354.400000
20
410.000000
30
0.0
11
354.400000
21
415.000000
31
0.0
0
TEXT
8
TITLE
10
526.600000
20
412.500000
30
0.0
40
2.4000
1
5
72
1
73
2
11
526.600000
21
412.500000
31
0.0
0
TEXT
8
TITLE
10
526.600000
20
7.500000
30
0.0
40
2.4000
1
5
72
1
73
2
11
526.600000
21
7.500000
31
0.0
0
LINE
8
TITLE
10
469.200000
20
5.000000
30
0.0
11
469.200000
21
10.000000
31
0.0
0
LINE
8
TITLE
10
469.200000
20
410.000000
30
0.0
11
469.200000
21
415.000000
31
0.0
0
TEXT
8
TITLE
10
7.500000
20
60.000000
30
0.0
40
2.4000
1
D
72
1
73
2
11
7.500000
21
60.000000
31
0.0
0
TEXT
8
TITLE
10
586.500000
20
60.000000
30
0.0
40
2.4000
1
D
72
1
73
2
11
586.500000
21
60.000000
31
0.0
0
TEXT
8
TITLE
10
7.500000
20
160.000000
30
0.0
40
2.4000
1
C
72
1
73
2
11
7.500000
21
160.000000
31
0.0
0
TEXT
8
TITLE
10
586.500000
20
160.000000
30
0.0
40
2.4000
1
C
72
1
73
2
11
586.500000
21
160.000000
31
0.0
0
LINE
8
TITLE
10
5.000000
20
110.000000
30
0.0
11
10.000000
21
110.000000
31
0.0
0
LINE
8
TITLE
10
584.000000
20
110.000000
30
0.0
11
589.000000
21
110.000000
31
0.0
0
TEXT
8
TITLE
10
7.500000
20
260.000000
30
0.0
40
2.4000
1
B
72
1
73
2
11
7.500000
21
260.000000
31
0.0
0
TEXT
8
TITLE
10
586.500000
20
260.000000
30
0.0
40
2.4000
1
B
72
1
73
2
11
586.500000
21
260.000000
31
0.0
0
LINE
8
TITLE
10
5.000000
20
210.000000
30
0.0
11
10.000000
21
210.000000
31
0.0
0
LINE
8
TITLE
10
584.000000
20
210.000000
30
0.0
11
589.000000
21
210.000000
31
0.0
0
TEXT
8
TITLE
10
7.500000
20
360.000000
30
0.0
40
2.4000
1
A
72
1
73
2
11
7.500000
21
360.000000
31
0.0
0
TEXT
8
TITLE
10
586.500000
20
360.000000
30
0.0
40
2.4000
1
A
72
1
73
2
11
586.500000
21
360.000000
31
0.0
0
LINE
8
TITLE
10
5.000000
20
310.000000
30
0.0
11
10.000000
21
310.000000
31
0.0
0
LINE
8
TITLE
10
584.000000
20
310.000000
30
0.0
11
589.000000
21
310.000000
31
0.0
0
LINE
8
VISIBLE
10
194.000000
20
172.300000
30
0.0
11
142.000000
21
172.300000
31
0.0
0
LINE
8
VISIBLE
10
142.000000
20
148.300000
30
0.0
11
142.000000
21
172.300000
31
0.0
0
LINE
8
VISIBLE
10
194.000000
20
148.300000
30
0.0
11
142.000000
21
148.300000
31
0.0
0
LINE
8
VISIBLE
10
153.200000
20
136.300000
30
0.0
11
153.200000
21
148.300000
31
0.0
0
LINE
8
VISIBLE
10
182.800000
20
136.300000
30
0.0
11
153.200000
21
136.300000
31
0.0
0
LINE
8
VISIBLE
10
158.600000
20
132.700000
30
0.0
11
158.600000
21
136.300000
31
0.0
0
LINE
8
VISIBLE
10
177.400000
20
132.700000
30
0.0
11
158.600000
21
132.700000
31
0.0
0
LINE
8
VISIBLE
10
194.000000
20
148.300000
30
0.0
11
194.000000
21
172.300000
31
0.0
0
LINE
8
VISIBLE
10
182.800000
20
136.300000
30
0.0
11
182.800000
21
148.300000
31
0.0
0
LINE
8
VISIBLE
10
177.400000
20
132.700000
30
0.0
11
177.400000
21
136.300000
31
0.0
0
CIRCLE
8
VISIBLE
10
168.000000
20
261.300000
30
0.0
40
26.000000
0
CIRCLE
8
VISIBLE
10
168.000000
20
261.300000
30
0.0
40
14.800000
0
CIRCLE
8
VISIBLE
10
168.000000
20
261.300000
30
0.0
40
12.100000
0
CIRCLE
8
VISIBLE
10
168.000000
20
261.300000
30
0.0
40
9.400000
0
LINE
8
VISIBLE
10
258.000000
20
172.300000
30
0.0
11
232.000000
21
172.300000
31
0.0
0
LINE
8
VISIBLE
10
284.000000
20
172.300000
30
0.0
11
258.000000
21
172.300000
31
0.0
0
LINE
8
VISIBLE
10
258.000000
20
148.300000
30
0.0
11
232.000000
21
148.300000
31
0.0
0
LINE
8
VISIBLE
10
284.000000
20
148.300000
30
0.0
11
258.000000
21
148.300000
31
0.0
0
LINE
8
VISIBLE
10
258.000000
20
136.300000
30
0.0
11
243.200000
21
136.300000
31
0.0
0
LINE
8
VISIBLE
10
272.800000
20
136.300000
30
0.0
11
258.000000
21
136.300000
31
0.0
0
LINE
8
VISIBLE
10
258.000000
20
132.700000
30
0.0
11
248.600000
21
132.700000
31
0.0
0
LINE
8
VISIBLE
10
267.400000
20
132.700000
30
0.0
11
258.000000
21
132.700000
31
0.0
0
LINE
8
VISIBLE
10
258.000000
20
148.300000
30
0.0
11
258.000000
21
172.300000
31
0.0
0
LINE
8
VISIBLE
10
258.000000
20
136.300000
30
0.0
11
258.000000
21
148.300000
31
0.0
0
LINE
8
VISIBLE
10
258.000000
20
132.700000
30
0.0
11
258.000000
21
136.300000
31
0.0
0
LINE
8
VISIBLE
10
232.000000
20
148.300000
30
0.0
11
232.000000
21
172.300000
31
0.0
0
LINE
8
VISIBLE
10
284.000000
20
148.300000
30
0.0
11
284.000000
21
172.300000
31
0.0
0
LINE
8
VISIBLE
10
243.200000
20
136.300000
30
0.0
11
243.200000
21
148.300000
31
0.0
0
LINE
8
VISIBLE
10
272.800000
20
136.300000
30
0.0
11
272.800000
21
148.300000
31
0.0
0
LINE
8
VISIBLE
10
248.600000
20
132.700000
30
0.0
11
248.600000
21
136.300000
31
0.0
0
LINE
8
VISIBLE
10
267.400000
20
132.700000
30
0.0
11
267.400000
21
136.300000
31
0.0
0
LINE
8
VISIBLE
10
374.000000
20
148.300000
30
0.0
11
322.000000
21
148.300000
31
0.0
0
LINE
8
VISIBLE
10
362.800000
20
136.300000
30
0.0
11
333.200000
21
136.300000
31
0.0
0
LINE
8
SECTION
10
322.000000
20
148.300000
30
0.0
11
322.000000
21
172.300000
31
0.0
0
LINE
8
SECTION
10
322.000000
20
172.300000
30
0.0
11
374.000000
21
172.300000
31
0.0
0
LINE
8
SECTION
10
374.000000
20
148.300000
30
0.0
11
374.000000
21
172.300000
31
0.0
0
LINE
8
SECTION
10
362.800000
20
148.300000
30
0.0
11
374.000000
21
148.300000
31
0.0
0
LINE
8
SECTION
10
362.800000
20
136.300000
30
0.0
11
362.800000
21
148.300000
31
0.0
0
LINE
8
SECTION
10
360.100000
20
136.300000
30
0.0
11
362.800000
21
136.300000
31
0.0
0
LINE
8
SECTION
10
360.100000
20
136.300000
30
0.0
11
360.100000
21
145.290000
31
0.0
0
LINE
8
SECTION
10
335.900000
20
145.290000
30
0.0
11
360.100000
21
145.290000
31
0.0
0
LINE
8
SECTION
10
335.900000
20
136.300000
30
0.0
11
335.900000
21
145.290000
31
0.0
0
LINE
8
SECTION
10
333.200000
20
136.300000
30
0.0
11
335.900000
21
136.300000
31
0.0
0
LINE
8
SECTION
10
333.200000
20
136.300000
30
0.0
11
333.200000
21
148.300000
31
0.0
0
LINE
8
SECTION
10
322.000000
20
148.300000
30
0.0
11
333.200000
21
148.300000
31
0.0
0
LINE
8
SECTION
10
338.600000
20
132.700000
30
0.0
11
338.600000
21
136.300000
31
0.0
0
LINE
8
SECTION
10
338.600000
20
136.300000
30
0.0
11
357.400000
21
136.300000
31
0.0
0
LINE
8
SECTION
10
357.400000
20
132.700000
30
0.0
11
357.400000
21
136.300000
31
0.0
0
LINE
8
SECTION
10
338.600000
20
132.700000
30
0.0
11
357.400000
21
132.700000
31
0.0
0
LINE
8
VISIBLE
10
577.516229
20
377.359864
30
0.0
11
576.972027
21
380.780130
31
0.0
0
LINE
8
VISIBLE
10
576.972027
20
380.780130
30
0.0
11
575.322929
21
384.137895
31
0.0
0
LINE
8
VISIBLE
10
575.322929
20
384.137895
30
0.0
11
572.488455
21
387.387991
31
0.0
0
LINE
8
VISIBLE
10
572.488455
20
387.387991
30
0.0
11
568.374717
21
390.410123
31
0.0
0
LINE
8
VISIBLE
10
568.374717
20
390.410123
30
0.0
11
562.961080
21
393.009196
31
0.0
0
LINE
8
VISIBLE
10
562.961080
20
393.009196
30
0.0
11
556.375907
21
394.946733
31
0.0
0
LINE
8
VISIBLE
10
556.375907
20
394.946733
30
0.0
11
548.936858
21
395.995013
31
0.0
0
LINE
8
VISIBLE
10
548.936858
20
395.995013
30
0.0
11
541.134621
21
396.000000
31
0.0
0
LINE
8
VISIBLE
10
541.134621
20
396.000000
30
0.0
11
533.554286
21
394.931629
31
0.0
0
LINE
8
VISIBLE
10
533.554286
20
394.931629
30
0.0
11
526.755915
21
392.899689
31
0.0
0
LINE
8
VISIBLE
10
526.755915
20
392.899689
30
0.0
11
521.159102
21
390.125923
31
0.0
0
LINE
8
VISIBLE
10
521.159102
20
390.125923
30
0.0
11
516.977382
21
386.882434
31
0.0
0
LINE
8
VISIBLE
10
516.977382
20
386.882434
30
0.0
11
514.224943
21
383.420695
31
0.0
0
LINE
8
VISIBLE
10
514.224943
20
383.420695
30
0.0
11
512.786847
21
379.917072
31
0.0
0
LINE
8
VISIBLE
10
512.786847
20
379.917072
30
0.0
11
512.483771
21
377.359864
31
0.0
0
LINE
8
VISIBLE
10
522.007554
20
339.578040
30
0.0
11
527.569188
21
337.004792
31
0.0
0
LINE
8
VISIBLE
10
562.430812
20
337.004792
30
0.0
11
568.198571
21
339.698123
31
0.0
0
LINE
8
VISIBLE
10
568.198571
20
339.698123
30
0.0
11
572.566655
21
342.896419
31
0.0
0
LINE
8
VISIBLE
10
572.566655
20
342.896419
30
0.0
11
575.498091
21
346.341934
31
0.0
0
LINE
8
VISIBLE
10
575.498091
20
346.341934
30
0.0
11
577.096675
21
349.846710
31
0.0
0
LINE
8
VISIBLE
10
577.096675
20
349.846710
30
0.0
11
577.516229
21
352.852735
31
0.0
0
LINE
8
VISIBLE
10
577.516229
20
352.852735
30
0.0
11
576.972027
21
356.273001
31
0.0
0
LINE
8
VISIBLE
10
576.972027
20
356.273001
30
0.0
11
575.322929
21
359.630766
31
0.0
0
LINE
8
VISIBLE
10
575.322929
20
359.630766
30
0.0
11
572.488455
21
362.880862
31
0.0
0
LINE
8
VISIBLE
10
572.488455
20
362.880862
30
0.0
11
568.374717
21
365.902994
31
0.0
0
LINE
8
VISIBLE
10
568.374717
20
365.902994
30
0.0
11
562.961080
21
368.502067
31
0.0
0
LINE
8
VISIBLE
10
562.961080
20
368.502067
30
0.0
11
556.375907
21
370.439604
31
0.0
0
LINE
8
VISIBLE
10
556.375907
20
370.439604
30
0.0
11
548.936858
21
371.487884
31
0.0
0
LINE
8
VISIBLE
10
548.936858
20
371.487884
30
0.0
11
541.134621
21
371.492871
31
0.0
0
LINE
8
VISIBLE
10
541.134621
20
371.492871
30
0.0
11
533.554286
21
370.424500
31
0.0
0
LINE
8
VISIBLE
10
533.554286
20
370.424500
30
0.0
11
526.755915
21
368.392560
31
0.0
0
LINE
8
VISIBLE
10
526.755915
20
368.392560
30
0.0
11
521.159102
21
365.618794
31
0.0
0
LINE
8
VISIBLE
10
521.159102
20
365.618794
30
0.0
11
516.977382
21
362.375305
31
0.0
0
LINE
8
VISIBLE
10
516.977382
20
362.375305
30
0.0
11
514.224943
21
358.913566
31
0.0
0
LINE
8
VISIBLE
10
514.224943
20
358.913566
30
0.0
11
512.786847
21
355.409943
31
0.0
0
LINE
8
VISIBLE
10
512.786847
20
355.409943
30
0.0
11
512.483771
21
352.852735
31
0.0
0
LINE
8
VISIBLE
10
512.483771
20
352.852735
30
0.0
11
513.027973
21
349.432470
31
0.0
0
LINE
8
VISIBLE
10
513.027973
20
349.432470
30
0.0
11
514.677071
21
346.074704
31
0.0
0
LINE
8
VISIBLE
10
514.677071
20
346.074704
30
0.0
11
517.511545
21
342.824608
31
0.0
0
LINE
8
VISIBLE
10
517.511545
20
342.824608
30
0.0
11
522.007554
21
339.578040
31
0.0
0
LINE
8
VISIBLE
10
563.509238
20
352.852735
30
0.0
11
562.966187
21
355.422301
31
0.0
0
LINE
8
VISIBLE
10
562.966187
20
355.422301
30
0.0
11
561.310343
21
357.904620
31
0.0
0
LINE
8
VISIBLE
10
561.310343
20
357.904620
30
0.0
11
558.432300
21
360.204951
31
0.0
0
LINE
8
VISIBLE
10
558.432300
20
360.204951
30
0.0
11
554.280710
21
362.098641
31
0.0
0
LINE
8
VISIBLE
10
554.280710
20
362.098641
30
0.0
11
549.038661
21
363.281559
31
0.0
0
LINE
8
VISIBLE
10
549.038661
20
363.281559
30
0.0
11
543.206434
21
363.488759
31
0.0
0
LINE
8
VISIBLE
10
543.206434
20
363.488759
30
0.0
11
537.517977
21
362.627042
31
0.0
0
LINE
8
VISIBLE
10
537.517977
20
362.627042
30
0.0
11
532.703137
21
360.839788
31
0.0
0
LINE
8
VISIBLE
10
532.703137
20
360.839788
30
0.0
11
529.232361
21
358.449564
31
0.0
0
LINE
8
VISIBLE
10
529.232361
20
358.449564
30
0.0
11
527.213350
21
355.809478
31
0.0
0
LINE
8
VISIBLE
10
527.213350
20
355.809478
30
0.0
11
526.490762
21
352.852735
31
0.0
0
LINE
8
VISIBLE
10
531.911992
20
333.042806
30
0.0
11
536.181169
21
331.203780
31
0.0
0
LINE
8
VISIBLE
10
536.181169
20
331.203780
30
0.0
11
541.506588
21
330.104919
31
0.0
0
LINE
8
VISIBLE
10
541.506588
20
330.104919
30
0.0
11
547.358945
21
330.000000
31
0.0
0
LINE
8
VISIBLE
10
547.358945
20
330.000000
30
0.0
11
552.992707
21
330.960559
31
0.0
0
LINE
8
VISIBLE
10
552.992707
20
330.960559
30
0.0
11
557.693162
21
332.821521
31
0.0
0
LINE
8
VISIBLE
10
557.693162
20
332.821521
30
0.0
11
561.023641
21
335.250189
31
0.0
0
LINE
8
VISIBLE
10
561.023641
20
335.250189
30
0.0
11
562.908654
21
337.899047
31
0.0
0
LINE
8
VISIBLE
10
562.908654
20
337.899047
30
0.0
11
563.509238
21
340.599171
31
0.0
0
LINE
8
VISIBLE
10
563.509238
20
340.599171
30
0.0
11
562.966187
21
343.168736
31
0.0
0
LINE
8
VISIBLE
10
562.966187
20
343.168736
30
0.0
11
561.310343
21
345.651055
31
0.0
0
LINE
8
VISIBLE
10
561.310343
20
345.651055
30
0.0
11
558.432300
21
347.951386
31
0.0
0
LINE
8
VISIBLE
10
558.432300
20
347.951386
30
0.0
11
554.280710
21
349.845077
31
0.0
0
LINE
8
VISIBLE
10
554.280710
20
349.845077
30
0.0
11
549.038661
21
351.027995
31
0.0
0
LINE
8
VISIBLE
10
549.038661
20
351.027995
30
0.0
11
543.206434
21
351.235195
31
0.0
0
LINE
8
VISIBLE
10
543.206434
20
351.235195
30
0.0
11
537.517977
21
350.373478
31
0.0
0
LINE
8
VISIBLE
10
537.517977
20
350.373478
30
0.0
11
532.703137
21
348.586224
31
0.0
0
LINE
8
VISIBLE
10
532.703137
20
348.586224
30
0.0
11
529.232361
21
346.195999
31
0.0
0
LINE
8
VISIBLE
10
529.232361
20
346.195999
30
0.0
11
527.213350
21
343.555913
31
0.0
0
LINE
8
VISIBLE
10
527.213350
20
343.555913
30
0.0
11
526.490762
21
340.599171
31
0.0
0
LINE
8
VISIBLE
10
526.490762
20
340.599171
30
0.0
11
527.033813
21
338.029606
31
0.0
0
LINE
8
VISIBLE
10
527.033813
20
338.029606
30
0.0
11
528.689657
21
335.547286
31
0.0
0
LINE
8
VISIBLE
10
528.689657
20
335.547286
30
0.0
11
531.911992
21
333.042806
31
0.0
0
LINE
8
VISIBLE
10
556.073714
20
334.644704
30
0.0
11
558.733693
21
336.930392
31
0.0
0
LINE
8
VISIBLE
10
558.733693
20
336.930392
30
0.0
11
560.132553
21
340.599171
31
0.0
0
LINE
8
VISIBLE
10
560.132553
20
340.599171
30
0.0
11
559.590098
21
342.917445
31
0.0
0
LINE
8
VISIBLE
10
559.590098
20
342.917445
30
0.0
11
557.931470
21
345.136837
31
0.0
0
LINE
8
VISIBLE
10
557.931470
20
345.136837
30
0.0
11
555.040881
21
347.135604
31
0.0
0
LINE
8
VISIBLE
10
555.040881
20
347.135604
30
0.0
11
550.913545
21
348.641230
31
0.0
0
LINE
8
VISIBLE
10
550.913545
20
348.641230
30
0.0
11
545.868046
21
349.321568
31
0.0
0
LINE
8
VISIBLE
10
545.868046
20
349.321568
30
0.0
11
540.587903
21
348.956354
31
0.0
0
LINE
8
VISIBLE
10
540.587903
20
348.956354
30
0.0
11
535.912106
21
347.584974
31
0.0
0
LINE
8
VISIBLE
10
535.912106
20
347.584974
30
0.0
11
532.481925
21
345.508073
31
0.0
0
LINE
8
VISIBLE
10
532.481925
20
345.508073
30
0.0
11
530.512899
21
343.123589
31
0.0
0
LINE
8
VISIBLE
10
530.512899
20
343.123589
30
0.0
11
529.867447
21
340.599171
31
0.0
0
LINE
8
VISIBLE
10
529.867447
20
340.599171
30
0.0
11
530.409902
21
338.280896
31
0.0
0
LINE
8
VISIBLE
10
530.409902
20
338.280896
30
0.0
11
532.068530
21
336.061505
31
0.0
0
LINE
8
VISIBLE
10
532.068530
20
336.061505
30
0.0
11
533.926286
21
334.644704
31
0.0
0
LINE
8
VISIBLE
10
534.299669
20
343.601294
30
0.0
11
534.405577
21
343.540748
31
0.0
0
LINE
8
VISIBLE
10
555.594423
20
343.540748
30
0.0
11
557.875961
21
345.189152
31
0.0
0
LINE
8
VISIBLE
10
532.124039
20
345.189152
30
0.0
11
534.299669
21
343.601294
31
0.0
0
LINE
8
VISIBLE
10
556.755867
20
340.599171
30
0.0
11
556.214350
21
342.635408
31
0.0
0
LINE
8
VISIBLE
10
556.214350
20
342.635408
30
0.0
11
554.552266
21
344.555374
31
0.0
0
LINE
8
VISIBLE
10
554.552266
20
344.555374
30
0.0
11
551.653816
21
346.194620
31
0.0
0
LINE
8
VISIBLE
10
551.653816
20
346.194620
30
0.0
11
547.611482
21
347.216839
31
0.0
0
LINE
8
VISIBLE
10
547.611482
20
347.216839
30
0.0
11
542.968732
21
347.284338
31
0.0
0
LINE
8
VISIBLE
10
542.968732
20
347.284338
30
0.0
11
538.629862
21
346.303606
31
0.0
0
LINE
8
VISIBLE
10
538.629862
20
346.303606
30
0.0
11
535.421114
21
344.533861
31
0.0
0
LINE
8
VISIBLE
10
535.421114
20
344.533861
30
0.0
11
533.679308
21
342.428775
31
0.0
0
LINE
8
VISIBLE
10
533.679308
20
342.428775
30
0.0
11
533.244133
21
340.599171
31
0.0
0
LINE
8
VISIBLE
10
536.687346
20
332.123789
30
0.0
11
540.173766
21
330.734190
31
0.0
0
LINE
8
VISIBLE
10
540.173766
20
330.734190
30
0.0
11
544.602648
21
330.139727
31
0.0
0
LINE
8
VISIBLE
10
544.602648
20
330.139727
30
0.0
11
549.219599
21
330.588135
31
0.0
0
LINE
8
VISIBLE
10
549.219599
20
330.588135
30
0.0
11
553.092347
21
331.999880
31
0.0
0
LINE
8
VISIBLE
10
553.092347
20
331.999880
30
0.0
11
555.598774
21
333.986754
31
0.0
0
LINE
8
VISIBLE
10
555.598774
20
333.986754
30
0.0
11
556.755867
21
336.923102
31
0.0
0
LINE
8
VISIBLE
10
556.755867
20
336.923102
30
0.0
11
556.214350
21
338.959338
31
0.0
0
LINE
8
VISIBLE
10
556.214350
20
338.959338
30
0.0
11
554.552266
21
340.879304
31
0.0
0
LINE
8
VISIBLE
10
554.552266
20
340.879304
30
0.0
11
551.653816
21
342.518550
31
0.0
0
LINE
8
VISIBLE
10
551.653816
20
342.518550
30
0.0
11
547.611482
21
343.540769
31
0.0
0
LINE
8
VISIBLE
10
547.611482
20
343.540769
30
0.0
11
542.968732
21
343.608268
31
0.0
0
LINE
8
VISIBLE
10
542.968732
20
343.608268
30
0.0
11
538.629862
21
342.627537
31
0.0
0
LINE
8
VISIBLE
10
538.629862
20
342.627537
30
0.0
11
535.421114
21
340.857792
31
0.0
0
LINE
8
VISIBLE
10
535.421114
20
340.857792
30
0.0
11
533.679308
21
338.752706
31
0.0
0
LINE
8
VISIBLE
10
533.679308
20
338.752706
30
0.0
11
533.244133
21
336.923102
31
0.0
0
LINE
8
VISIBLE
10
533.244133
20
336.923102
30
0.0
11
533.785650
21
334.886865
31
0.0
0
LINE
8
VISIBLE
10
533.785650
20
334.886865
30
0.0
11
536.687346
21
332.123789
31
0.0
0
LINE
8
VISIBLE
10
534.299669
20
343.410063
30
0.0
11
534.299669
21
343.601294
31
0.0
0
LINE
8
VISIBLE
10
512.483771
20
352.852735
30
0.0
11
512.483771
21
377.359864
31
0.0
0
LINE
8
VISIBLE
10
577.516229
20
352.852735
30
0.0
11
577.516229
21
377.359864
31
0.0
0
LINE
8
VISIBLE
10
526.490762
20
340.599171
30
0.0
11
526.490762
21
352.852735
31
0.0
0
LINE
8
VISIBLE
10
563.509238
20
340.599171
30
0.0
11
563.509238
21
352.852735
31
0.0
0
LINE
8
VISIBLE
10
533.244133
20
336.923102
30
0.0
11
533.244133
21
340.599171
31
0.0
0
LINE
8
VISIBLE
10
556.755867
20
336.923102
30
0.0
11
556.755867
21
340.599171
31
0.0
0
LINE
8
DIM
10
142.000000
20
131.500000
30
0.0
11
142.000000
21
109.700000
31
0.0
0
LINE
8
DIM
10
194.000000
20
131.500000
30
0.0
11
194.000000
21
109.700000
31
0.0
0
LINE
8
DIM
10
142.000000
20
111.700000
30
0.0
11
194.000000
21
111.700000
31
0.0
0
SOLID
8
DIM
10
142.000000
20
111.700000
30
0.0
11
145.200000
21
111.092000
31
0.0
12
145.200000
22
112.308000
32
0.0
13
145.200000
23
112.308000
33
0.0
0
SOLID
8
DIM
10
194.000000
20
111.700000
30
0.0
11
190.800000
21
112.308000
31
0.0
12
190.800000
22
111.092000
32
0.0
13
190.800000
23
111.092000
33
0.0
0
TEXT
8
TEXT
10
168.000000
20
112.700000
30
0.0
40
2.5000
1
26.00
72
1
73
0
11
168.000000
21
112.700000
31
0.0
0
LINE
8
DIM
10
140.800000
20
132.700000
30
0.0
11
119.000000
21
132.700000
31
0.0
0
LINE
8
DIM
10
140.800000
20
172.300000
30
0.0
11
119.000000
21
172.300000
31
0.0
0
LINE
8
DIM
10
121.000000
20
132.700000
30
0.0
11
121.000000
21
172.300000
31
0.0
0
SOLID
8
DIM
10
121.000000
20
132.700000
30
0.0
11
121.608000
21
135.900000
31
0.0
12
120.392000
22
135.900000
32
0.0
13
120.392000
23
135.900000
33
0.0
0
SOLID
8
DIM
10
121.000000
20
172.300000
30
0.0
11
120.392000
21
169.100000
31
0.0
12
121.608000
22
169.100000
32
0.0
13
121.608000
23
169.100000
33
0.0
0
TEXT
8
TEXT
10
120.000000
20
152.500000
30
0.0
40
2.5000
1
19.80
50
90.0000
72
1
73
0
11
120.000000
21
152.500000
31
0.0
0
TEXT
8
TEXT
10
168.000000
20
99.700000
30
0.0
40
4.0000
1
FRONT VIEW
72
1
73
0
11
168.000000
21
99.700000
31
0.0
0
LINE
8
TEXT
10
156.000000
20
98.100000
30
0.0
11
180.000000
21
98.100000
31
0.0
0
TEXT
8
TEXT
10
168.000000
20
93.700000
30
0.0
40
2.4000
1
-X →   Z ↑
72
1
73
0
11
168.000000
21
93.700000
31
0.0
0
LINE
8
CENTER
10
154.300000
20
261.300000
30
0.0
11
166.800000
21
261.300000
31
0.0
0
LINE
8
CENTER
10
169.200000
20
261.300000
30
0.0
11
181.700000
21
261.300000
31
0.0
0
LINE
8
CENTER
10
168.000000
20
247.600000
30
0.0
11
168.000000
21
260.100000
31
0.0
0
LINE
8
CENTER
10
168.000000
20
262.500000
30
0.0
11
168.000000
21
275.000000
31
0.0
0
LINE
8
DIM
10
142.000000
20
234.100000
30
0.0
11
142.000000
21
221.300000
31
0.0
0
LINE
8
DIM
10
194.000000
20
234.100000
30
0.0
11
194.000000
21
221.300000
31
0.0
0
LINE
8
DIM
10
142.000000
20
223.300000
30
0.0
11
194.000000
21
223.300000
31
0.0
0
SOLID
8
DIM
10
142.000000
20
223.300000
30
0.0
11
145.200000
21
222.692000
31
0.0
12
145.200000
22
223.908000
32
0.0
13
145.200000
23
223.908000
33
0.0
0
SOLID
8
DIM
10
194.000000
20
223.300000
30
0.0
11
190.800000
21
223.908000
31
0.0
12
190.800000
22
222.692000
32
0.0
13
190.800000
23
222.692000
33
0.0
0
TEXT
8
TEXT
10
168.000000
20
224.300000
30
0.0
40
2.5000
1
26.00
72
1
73
0
11
168.000000
21
224.300000
31
0.0
0
LINE
8
DIM
10
140.800000
20
235.300000
30
0.0
11
128.000000
21
235.300000
31
0.0
0
LINE
8
DIM
10
140.800000
20
287.300000
30
0.0
11
128.000000
21
287.300000
31
0.0
0
LINE
8
DIM
10
130.000000
20
235.300000
30
0.0
11
130.000000
21
287.300000
31
0.0
0
SOLID
8
DIM
10
130.000000
20
235.300000
30
0.0
11
130.608000
21
238.500000
31
0.0
12
129.392000
22
238.500000
32
0.0
13
129.392000
23
238.500000
33
0.0
0
SOLID
8
DIM
10
130.000000
20
287.300000
30
0.0
11
129.392000
21
284.100000
31
0.0
12
130.608000
22
284.100000
32
0.0
13
130.608000
23
284.100000
33
0.0
0
TEXT
8
TEXT
10
129.000000
20
261.300000
30
0.0
40
2.5000
1
26.00
50
90.0000
72
1
73
0
11
129.000000
21
261.300000
31
0.0
0
SOLID
8
DIM
10
175.449504
20
270.834930
30
0.0
11
177.898731
21
272.982242
31
0.0
12
176.940510
22
273.730887
32
0.0
13
176.940510
23
273.730887
33
0.0
0
LINE
8
DIM
10
175.449504
20
270.834930
30
0.0
11
193.782426
21
294.300000
31
0.0
0
LINE
8
DIM
10
193.782426
20
294.300000
30
0.0
11
198.782426
21
294.300000
31
0.0
0
TEXT
8
TEXT
10
199.582426
20
295.300000
30
0.0
40
2.5000
1
Ø12.10 x 4.50 DP
0
SOLID
8
DIM
10
142.000000
20
261.300000
30
0.0
11
140.408835
21
264.142157
31
0.0
12
139.477325
22
263.360527
32
0.0
13
139.477325
23
263.360527
33
0.0
0
LINE
8
DIM
10
142.000000
20
261.300000
30
0.0
11
135.572124
21
268.960444
31
0.0
0
LINE
8
DIM
10
135.572124
20
268.960444
30
0.0
11
132.572124
21
268.960444
31
0.0
0
TEXT
8
TEXT
10
131.772124
20
269.960444
30
0.0
40
2.5000
1
R13.00
72
2
73
0
11
131.772124
21
269.960444
31
0.0
0
SOLID
8
DIM
10
153.200000
20
261.300000
30
0.0
11
150.042863
21
260.498657
31
0.0
12
150.556767
22
259.396586
32
0.0
13
150.556767
23
259.396586
33
0.0
0
LINE
8
DIM
10
153.200000
20
261.300000
30
0.0
11
144.136922
21
257.073817
31
0.0
0
LINE
8
DIM
10
144.136922
20
257.073817
30
0.0
11
141.136922
21
257.073817
31
0.0
0
TEXT
8
TEXT
10
140.336922
20
258.073817
30
0.0
40
2.5000
1
R7.40
72
2
73
0
11
140.336922
21
258.073817
31
0.0
0
SOLID
8
DIM
10
155.900000
20
261.300000
30
0.0
11
152.700000
21
261.908000
31
0.0
12
152.700000
22
260.692000
32
0.0
13
152.700000
23
260.692000
33
0.0
0
LINE
8
DIM
10
155.900000
20
261.300000
30
0.0
11
145.900000
21
261.300000
31
0.0
0
LINE
8
DIM
10
145.900000
20
261.300000
30
0.0
11
142.900000
21
261.300000
31
0.0
0
TEXT
8
TEXT
10
142.100000
20
262.300000
30
0.0
40
2.5000
1
R6.05
72
2
73
0
11
142.100000
21
262.300000
31
0.0
0
SOLID
8
DIM
10
158.600000
20
261.300000
30
0.0
11
155.956767
21
263.203414
31
0.0
12
155.442863
22
262.101343
32
0.0
13
155.442863
23
262.101343
33
0.0
0
LINE
8
DIM
10
158.600000
20
261.300000
30
0.0
11
149.536922
21
265.526183
31
0.0
0
LINE
8
DIM
10
149.536922
20
265.526183
30
0.0
11
146.536922
21
265.526183
31
0.0
0
TEXT
8
TEXT
10
145.736922
20
266.526183
30
0.0
40
2.5000
1
R4.70
72
2
73
0
11
145.736922
21
266.526183
31
0.0
0
TEXT
8
TEXT
10
168.000000
20
211.300000
30
0.0
40
4.0000
1
TOP VIEW
72
1
73
0
11
168.000000
21
211.300000
31
0.0
0
LINE
8
TEXT
10
158.400000
20
209.700000
30
0.0
11
177.600000
21
209.700000
31
0.0
0
TEXT
8
TEXT
10
168.000000
20
205.300000
30
0.0
40
2.4000
1
X →   Y ↑
72
1
73
0
11
168.000000
21
205.300000
31
0.0
0
LINE
8
DIM
10
232.000000
20
131.500000
30
0.0
11
232.000000
21
118.700000
31
0.0
0
LINE
8
DIM
10
284.000000
20
131.500000
30
0.0
11
284.000000
21
118.700000
31
0.0
0
LINE
8
DIM
10
232.000000
20
120.700000
30
0.0
11
284.000000
21
120.700000
31
0.0
0
SOLID
8
DIM
10
232.000000
20
120.700000
30
0.0
11
235.200000
21
120.092000
31
0.0
12
235.200000
22
121.308000
32
0.0
13
235.200000
23
121.308000
33
0.0
0
SOLID
8
DIM
10
284.000000
20
120.700000
30
0.0
11
280.800000
21
121.308000
31
0.0
12
280.800000
22
120.092000
32
0.0
13
280.800000
23
120.092000
33
0.0
0
TEXT
8
TEXT
10
258.000000
20
121.700000
30
0.0
40
2.5000
1
26.00
72
1
73
0
11
258.000000
21
121.700000
31
0.0
0
LINE
8
DIM
10
230.800000
20
132.700000
30
0.0
11
218.000000
21
132.700000
31
0.0
0
LINE
8
DIM
10
230.800000
20
172.300000
30
0.0
11
218.000000
21
172.300000
31
0.0
0
LINE
8
DIM
10
220.000000
20
132.700000
30
0.0
11
220.000000
21
172.300000
31
0.0
0
SOLID
8
DIM
10
220.000000
20
132.700000
30
0.0
11
220.608000
21
135.900000
31
0.0
12
219.392000
22
135.900000
32
0.0
13
219.392000
23
135.900000
33
0.0
0
SOLID
8
DIM
10
220.000000
20
172.300000
30
0.0
11
219.392000
21
169.100000
31
0.0
12
220.608000
22
169.100000
32
0.0
13
220.608000
23
169.100000
33
0.0
0
TEXT
8
TEXT
10
219.000000
20
152.500000
30
0.0
40
2.5000
1
19.80
50
90.0000
72
1
73
0
11
219.000000
21
152.500000
31
0.0
0
TEXT
8
TEXT
10
258.000000
20
108.700000
30
0.0
40
4.0000
1
RIGHT VIEW
72
1
73
0
11
258.000000
21
108.700000
31
0.0
0
LINE
8
TEXT
10
246.000000
20
107.100000
30
0.0
11
270.000000
21
107.100000
31
0.0
0
TEXT
8
TEXT
10
258.000000
20
102.700000
30
0.0
40
2.4000
1
-Y →   Z ↑
72
1
73
0
11
258.000000
21
102.700000
31
0.0
0
LINE
8
DIM
10
322.000000
20
131.500000
30
0.0
11
322.000000
21
118.700000
31
0.0
0
LINE
8
DIM
10
374.000000
20
131.500000
30
0.0
11
374.000000
21
118.700000
31
0.0
0
LINE
8
DIM
10
322.000000
20
120.700000
30
0.0
11
374.000000
21
120.700000
31
0.0
0
SOLID
8
DIM
10
322.000000
20
120.700000
30
0.0
11
325.200000
21
120.092000
31
0.0
12
325.200000
22
121.308000
32
0.0
13
325.200000
23
121.308000
33
0.0
0
SOLID
8
DIM
10
374.000000
20
120.700000
30
0.0
11
370.800000
21
121.308000
31
0.0
12
370.800000
22
120.092000
32
0.0
13
370.800000
23
120.092000
33
0.0
0
TEXT
8
TEXT
10
348.000000
20
121.700000
30
0.0
40
2.5000
1
26.00
72
1
73
0
11
348.000000
21
121.700000
31
0.0
0
LINE
8
DIM
10
320.800000
20
132.700000
30
0.0
11
308.000000
21
132.700000
31
0.0
0
LINE
8
DIM
10
320.800000
20
172.300000
30
0.0
11
308.000000
21
172.300000
31
0.0
0
LINE
8
DIM
10
310.000000
20
132.700000
30
0.0
11
310.000000
21
172.300000
31
0.0
0
SOLID
8
DIM
10
310.000000
20
132.700000
30
0.0
11
310.608000
21
135.900000
31
0.0
12
309.392000
22
135.900000
32
0.0
13
309.392000
23
135.900000
33
0.0
0
SOLID
8
DIM
10
310.000000
20
172.300000
30
0.0
11
309.392000
21
169.100000
31
0.0
12
310.608000
22
169.100000
32
0.0
13
310.608000
23
169.100000
33
0.0
0
TEXT
8
TEXT
10
309.000000
20
152.500000
30
0.0
40
2.5000
1
19.80
50
90.0000
72
1
73
0
11
309.000000
21
152.500000
31
0.0
0
LINE
8
HATCH
10
362.799997
20
136.300000
30
0.0
11
362.800000
21
136.300003
31
0.0
0
LINE
8
HATCH
10
360.100000
20
137.842644
30
0.0
11
362.800000
21
140.542644
31
0.0
0
LINE
8
HATCH
10
370.557356
20
148.300000
30
0.0
11
374.000000
21
151.742644
31
0.0
0
LINE
8
HATCH
10
360.100000
20
142.085284
30
0.0
11
362.800000
21
144.785284
31
0.0
0
LINE
8
HATCH
10
366.314716
20
148.300000
30
0.0
11
374.000000
21
155.985284
31
0.0
0
LINE
8
HATCH
10
359.062075
20
145.290000
30
0.0
11
374.000000
21
160.227925
31
0.0
0
LINE
8
HATCH
10
354.819434
20
145.290000
30
0.0
11
374.000000
21
164.470566
31
0.0
0
LINE
8
HATCH
10
350.576794
20
145.290000
30
0.0
11
374.000000
21
168.713206
31
0.0
0
LINE
8
HATCH
10
346.334153
20
145.290000
30
0.0
11
373.344153
21
172.300000
31
0.0
0
LINE
8
HATCH
10
333.200000
20
136.398488
30
0.0
11
335.900000
21
139.098488
31
0.0
0
LINE
8
HATCH
10
342.091512
20
145.290000
30
0.0
11
369.101512
21
172.300000
31
0.0
0
LINE
8
HATCH
10
333.200000
20
140.641128
30
0.0
11
335.900000
21
143.341128
31
0.0
0
LINE
8
HATCH
10
337.848872
20
145.290000
30
0.0
11
364.858872
21
172.300000
31
0.0
0
LINE
8
HATCH
10
333.200000
20
144.883769
30
0.0
11
360.616231
21
172.300000
31
0.0
0
LINE
8
HATCH
10
332.373590
20
148.300000
30
0.0
11
356.373590
21
172.300000
31
0.0
0
LINE
8
HATCH
10
328.130950
20
148.300000
30
0.0
11
352.130950
21
172.300000
31
0.0
0
LINE
8
HATCH
10
323.888309
20
148.300000
30
0.0
11
347.888309
21
172.300000
31
0.0
0
LINE
8
HATCH
10
322.000000
20
150.654332
30
0.0
11
343.645668
21
172.300000
31
0.0
0
LINE
8
HATCH
10
322.000000
20
154.896972
30
0.0
11
339.403028
21
172.300000
31
0.0
0
LINE
8
HATCH
10
322.000000
20
159.139613
30
0.0
11
335.160387
21
172.300000
31
0.0
0
LINE
8
HATCH
10
322.000000
20
163.382254
30
0.0
11
330.917746
21
172.300000
31
0.0
0
LINE
8
HATCH
10
322.000000
20
167.624895
30
0.0
11
326.675105
21
172.300000
31
0.0
0
LINE
8
HATCH
10
322.000000
20
171.867535
30
0.0
11
322.432465
21
172.300000
31
0.0
0
LINE
8
HATCH
10
357.399997
20
132.700000
30
0.0
11
357.400000
21
132.700003
31
0.0
0
LINE
8
HATCH
10
353.157356
20
132.700000
30
0.0
11
356.757356
21
136.300000
31
0.0
0
LINE
8
HATCH
10
348.914716
20
132.700000
30
0.0
11
352.514716
21
136.300000
31
0.0
0
LINE
8
HATCH
10
344.672075
20
132.700000
30
0.0
11
348.272075
21
136.300000
31
0.0
0
LINE
8
HATCH
10
340.429434
20
132.700000
30
0.0
11
344.029434
21
136.300000
31
0.0
0
LINE
8
HATCH
10
338.600000
20
135.113206
30
0.0
11
339.786794
21
136.300000
31
0.0
0
LINE
8
DIM
10
333.200000
20
137.860002
30
0.0
11
333.200000
21
181.300000
31
0.0
0
LINE
8
DIM
10
335.900000
20
137.860002
30
0.0
11
335.900000
21
181.300000
31
0.0
0
LINE
8
DIM
10
333.200000
20
179.300000
30
0.0
11
335.900000
21
179.300000
31
0.0
0
SOLID
8
DIM
10
333.200000
20
179.300000
30
0.0
11
330.000000
21
179.908000
31
0.0
12
330.000000
22
178.692000
32
0.0
13
330.000000
23
178.692000
33
0.0
0
SOLID
8
DIM
10
335.900000
20
179.300000
30
0.0
11
339.100000
21
178.692000
31
0.0
12
339.100000
22
179.908000
32
0.0
13
339.100000
23
179.908000
33
0.0
0
LINE
8
DIM
10
335.900000
20
179.300000
30
0.0
11
345.500000
21
179.300000
31
0.0
0
TEXT
8
TEXT
10
346.300000
20
179.700000
30
0.0
40
2.5000
1
1.35 WALL
0
LINE
8
DIM
10
345.516667
20
132.700000
30
0.0
11
385.000000
21
132.700000
31
0.0
0
LINE
8
DIM
10
345.516667
20
136.300000
30
0.0
11
385.000000
21
136.300000
31
0.0
0
LINE
8
DIM
10
383.000000
20
132.700000
30
0.0
11
383.000000
21
136.300000
31
0.0
0
SOLID
8
DIM
10
383.000000
20
132.700000
30
0.0
11
382.392000
21
129.500000
31
0.0
12
383.608000
22
129.500000
32
0.0
13
383.608000
23
129.500000
33
0.0
0
SOLID
8
DIM
10
383.000000
20
136.300000
30
0.0
11
383.608000
21
139.500000
31
0.0
12
382.392000
22
139.500000
32
0.0
13
382.392000
23
139.500000
33
0.0
0
LINE
8
DIM
10
383.000000
20
136.300000
30
0.0
11
383.000000
21
145.900000
31
0.0
0
TEXT
8
TEXT
10
382.000000
20
146.700000
30
0.0
40
2.5000
1
1.80 WALL
50
90.0000
0
TEXT
8
TEXT
10
348.000000
20
108.700000
30
0.0
40
4.0000
1
SECTION A-A
72
1
73
0
11
348.000000
21
108.700000
31
0.0
0
LINE
8
TEXT
10
334.800000
20
107.100000
30
0.0
11
361.200000
21
107.100000
31
0.0
0
TEXT
8
TEXT
10
545.000000
20
324.000000
30
0.0
40
4.0000
1
ISOMETRIC VIEW
72
1
73
0
11
545.000000
21
324.000000
31
0.0
0
LINE
8
TEXT
10
528.200000
20
322.400000
30
0.0
11
561.800000
21
322.400000
31
0.0
0
TEXT
8
TEXT
10
545.000000
20
318.000000
30
0.0
40
2.6000
1
26.00 x 26.00 x 19.80 mm
72
1
73
0
11
545.000000
21
318.000000
31
0.0
0
LINE
8
CUT
10
168.000000
20
123.700000
30
0.0
11
168.000000
21
137.700000
31
0.0
0
LINE
8
CUTTHIN
10
168.000000
20
137.700000
30
0.0
11
168.000000
21
167.300000
31
0.0
0
LINE
8
CUT
10
168.000000
20
167.300000
30
0.0
11
168.000000
21
181.300000
31
0.0
0
LINE
8
CUT
10
168.000000
20
123.700000
30
0.0
11
177.000000
21
123.700000
31
0.0
0
SOLID
8
CUT
10
177.000000
20
123.700000
30
0.0
11
172.800000
21
124.498000
31
0.0
12
172.800000
22
122.902000
32
0.0
13
172.800000
23
122.902000
33
0.0
0
TEXT
8
TEXT
10
163.000000
20
123.700000
30
0.0
40
4.0000
1
A
72
1
73
2
11
163.000000
21
123.700000
31
0.0
0
LINE
8
CUT
10
168.000000
20
181.300000
30
0.0
11
177.000000
21
181.300000
31
0.0
0
SOLID
8
CUT
10
177.000000
20
181.300000
30
0.0
11
172.800000
21
182.098000
31
0.0
12
172.800000
22
180.502000
32
0.0
13
172.800000
23
180.502000
33
0.0
0
TEXT
8
TEXT
10
163.000000
20
181.300000
30
0.0
40
4.0000
1
A
72
1
73
2
11
163.000000
21
181.300000
31
0.0
0
TEXT
8
TEXT
10
508.000000
20
304.000000
30
0.0
40
3.0000
1
NOTES
0
TEXT
8
TEXT
10
508.000000
20
299.400000
30
0.0
40
2.4000
1
1. ALL DIMENSIONS IN mm AND DEGREES. EVERY
0
TEXT
8
TEXT
10
508.000000
20
295.680000
30
0.0
40
2.4000
1
   DIMENSION AND EVERY HOLE CALLOUT WAS MEASURED
0
TEXT
8
TEXT
10
508.000000
20
291.960000
30
0.0
40
2.4000
1
   OFF THE SOLID.
0
TEXT
8
TEXT
10
508.000000
20
288.240000
30
0.0
40
2.4000
1
2. THINNEST WALL, WHOLE SOLID (RAY MINIMUM):
0
TEXT
8
TEXT
10
508.000000
20
284.520000
30
0.0
40
2.4000
1
   1.3500 mm, AT X=0.737 Y=-7.361 Z=1.000 —
0
TEXT
8
TEXT
10
508.000000
20
280.800000
30
0.0
40
2.4000
1
   MEASURED OVER THE WHOLE SOLID BY RAY+EXACT AT
0
TEXT
8
TEXT
10
508.000000
20
277.080000
30
0.0
40
2.4000
1
   0.6690 mm SAMPLE SPACING (A FEATURE NARROWER
0
TEXT
8
TEXT
10
508.000000
20
273.360000
30
0.0
40
2.4000
1
   THAN THAT CAN BE MISSED). THIS IS A DISTANCE
0
TEXT
8
TEXT
10
508.000000
20
269.640000
30
0.0
40
2.4000
1
   THROUGH MATERIAL, NOT A WALL: AT AN EDGE, A
0
TEXT
8
TEXT
10
508.000000
20
265.920000
30
0.0
40
2.4000
1
   FILLET RUN-OUT OR A CHAMFER TIP IT IS REAL AND
0
TEXT
8
TEXT
10
508.000000
20
262.200000
30
0.0
40
2.4000
1
   UNPRINTABLE BY DEFINITION. DO NOT JUDGE
0
TEXT
8
TEXT
10
508.000000
20
258.480000
30
0.0
40
2.4000
1
   PRINTABILITY BY IT — THE NEXT NOTE IS THE ONE
0
TEXT
8
TEXT
10
508.000000
20
254.760000
30
0.0
40
2.4000
1
   THAT DOES.
0
TEXT
8
TEXT
10
508.000000
20
251.040000
30
0.0
40
2.4000
1
3. PRINTABLE MINIMUM WALL: 1.3496 mm, AT X=-5.860
0
TEXT
8
TEXT
10
508.000000
20
247.320000
30
0.0
40
2.4000
1
   Y=4.516 Z=3.000 — MEASURED AS THE SMALLEST
0
TEXT
8
TEXT
10
508.000000
20
243.600000
30
0.0
40
2.4000
1
   MEDIAN WALL OVER A NEIGHBOURHOOD OF 2.0060 mm
0
TEXT
8
TEXT
10
508.000000
20
239.880000
30
0.0
40
2.4000
1
   (>= 8 SAMPLES), RAYS CAPPED AT 4.000 mm, BY
0
TEXT
8
TEXT
10
508.000000
20
236.160000
30
0.0
40
2.4000
1
   cecad.inspect.printable_wall_detail. AGAINST
0
TEXT
8
TEXT
10
508.000000
20
232.440000
30
0.0
40
2.4000
1
   THE 0.8000 mm FLOOR (2 PERIMETERS @ 0.4 mm
0
TEXT
8
TEXT
10
508.000000
20
228.720000
30
0.0
40
2.4000
1
   NOZZLE, cecad/printed.py:801): VERDICT PASS
0
TEXT
8
TEXT
10
508.000000
20
225.000000
30
0.0
40
2.4000
1
4. GENERAL TOLERANCE: CANNOT DETERMINE — THIS PART
0
TEXT
8
TEXT
10
508.000000
20
221.280000
30
0.0
40
2.4000
1
   DECLARES NO PROCESS THIS REPO CAN READ.
0
TEXT
8
TEXT
10
508.000000
20
217.560000
30
0.0
40
2.4000
1
5. SECTION A-A AT X=0.00: THINNEST MATERIAL IN
0
TEXT
8
TEXT
10
508.000000
20
213.840000
30
0.0
40
2.4000
1
   THIS PLANE ONLY 1.35 mm, AT Y=-6.72, Z=0.18 — A
0
TEXT
8
TEXT
10
508.000000
20
210.120000
30
0.0
40
2.4000
1
   SCAN OF ONE CUT, NOT THE PART MINIMUM.
0
TEXT
8
TEXT
10
508.000000
20
206.400000
30
0.0
40
2.4000
1
6. FRONT VIEW: hidden lines SUPPRESSED: all 50
0
TEXT
8
TEXT
10
508.000000
20
202.680000
30
0.0
40
2.4000
1
   edge samples still land on drawn ink without
0
TEXT
8
TEXT
10
508.000000
20
198.960000
30
0.0
40
2.4000
1
   them.
0
TEXT
8
TEXT
10
508.000000
20
195.240000
30
0.0
40
2.4000
1
7. TOP VIEW: hidden lines SUPPRESSED: all 60 edge
0
TEXT
8
TEXT
10
508.000000
20
191.520000
30
0.0
40
2.4000
1
   samples still land on drawn ink without them.
0
TEXT
8
TEXT
10
508.000000
20
187.800000
30
0.0
40
2.4000
1
8. RIGHT VIEW: hidden lines SUPPRESSED: all 56
0
TEXT
8
TEXT
10
508.000000
20
184.080000
30
0.0
40
2.4000
1
   edge samples still land on drawn ink without
0
TEXT
8
TEXT
10
508.000000
20
180.360000
30
0.0
40
2.4000
1
   them.
0
TEXT
8
TEXT
10
508.000000
20
172.640000
30
0.0
40
3.0000
1
PRINT / DFM
0
TEXT
8
TEXT
10
508.000000
20
168.040000
30
0.0
40
2.4000
1
1. ORIENTATION: laid flat (26 x 26 x 20 mm)
0
TEXT
8
TEXT
10
508.000000
20
164.320000
30
0.0
40
2.4000
1
2. THINNEST WALL, WHOLE SOLID (RAY MINIMUM):
0
TEXT
8
TEXT
10
508.000000
20
160.600000
30
0.0
40
2.4000
1
   1.3500 mm — a distance through material, NOT a
0
TEXT
8
TEXT
10
508.000000
20
156.880000
30
0.0
40
2.4000
1
   printable wall where it falls on an edge, a
0
TEXT
8
TEXT
10
508.000000
20
153.160000
30
0.0
40
2.4000
1
   fillet run-out or a chamfer tip. Printability
0
TEXT
8
TEXT
10
508.000000
20
149.440000
30
0.0
40
2.4000
1
   is judged on the next line.
0
TEXT
8
TEXT
10
508.000000
20
145.720000
30
0.0
40
2.4000
1
3. PRINTABLE MINIMUM WALL: 1.3496 mm (smallest
0
TEXT
8
TEXT
10
508.000000
20
142.000000
30
0.0
40
2.4000
1
   median wall over a 2.0060 mm neighbourhood,
0
TEXT
8
TEXT
10
508.000000
20
138.280000
30
0.0
40
2.4000
1
   cecad.inspect.printable_wall_detail) against a
0
TEXT
8
TEXT
10
508.000000
20
134.560000
30
0.0
40
2.4000
1
   0.8000 mm floor (2 perimeters @ 0.4 mm nozzle):
0
TEXT
8
TEXT
10
508.000000
20
130.840000
30
0.0
40
2.4000
1
   VERDICT PASS
0
TEXT
8
TEXT
10
508.000000
20
127.120000
30
0.0
40
2.4000
1
4. FILAMENT: PLA, ~4 g (modelled), 99 layers @ 0.2
0
TEXT
8
TEXT
10
508.000000
20
123.400000
30
0.0
40
2.4000
1
   mm
0
LINE
8
FRAME
10
398.000000
20
10.000000
30
0.0
11
584.000000
21
10.000000
31
0.0
0
LINE
8
FRAME
10
584.000000
20
10.000000
30
0.0
11
584.000000
21
66.000000
31
0.0
0
LINE
8
FRAME
10
584.000000
20
66.000000
30
0.0
11
398.000000
21
66.000000
31
0.0
0
LINE
8
FRAME
10
398.000000
20
66.000000
30
0.0
11
398.000000
21
10.000000
31
0.0
0
LINE
8
TITLE
10
398.000000
20
53.000000
30
0.0
11
584.000000
21
53.000000
31
0.0
0
LINE
8
TITLE
10
398.000000
20
19.000000
30
0.0
11
584.000000
21
19.000000
31
0.0
0
LINE
8
TITLE
10
398.000000
20
27.500000
30
0.0
11
584.000000
21
27.500000
31
0.0
0
LINE
8
TITLE
10
398.000000
20
36.000000
30
0.0
11
584.000000
21
36.000000
31
0.0
0
LINE
8
TITLE
10
398.000000
20
44.500000
30
0.0
11
584.000000
21
44.500000
31
0.0
0
TEXT
8
TEXT
10
400.500000
20
59.500000
30
0.0
40
6.0000
1
MICRODUCK-JIG-PRESS-15-OUTER
72
0
73
2
11
400.500000
21
59.500000
31
0.0
0
LINE
8
TITLE
10
564.000000
20
53.000000
30
0.0
11
564.000000
21
66.000000
31
0.0
0
TEXT
8
TITLE
10
574.000000
20
63.600000
30
0.0
40
1.7000
1
REV
72
1
73
0
11
574.000000
21
63.600000
31
0.0
0
TEXT
8
TEXT
10
574.000000
20
55.000000
30
0.0
40
5.2000
1
A
72
1
73
0
11
574.000000
21
55.000000
31
0.0
0
LINE
8
TITLE
10
534.000000
20
53.000000
30
0.0
11
534.000000
21
66.000000
31
0.0
0
CIRCLE
8
TITLE
10
540.500000
20
59.500000
30
0.0
40
3.500000
0
CIRCLE
8
TITLE
10
540.500000
20
59.500000
30
0.0
40
1.960000
0
LINE
8
TITLE
10
550.300000
20
56.000000
30
0.0
11
550.300000
21
63.000000
31
0.0
0
LINE
8
TITLE
10
550.300000
20
63.000000
30
0.0
11
556.250000
21
61.460000
31
0.0
0
LINE
8
TITLE
10
556.250000
20
61.460000
30
0.0
11
556.250000
21
57.540000
31
0.0
0
LINE
8
TITLE
10
556.250000
20
57.540000
30
0.0
11
550.300000
21
56.000000
31
0.0
0
LINE
8
CENTER
10
535.500000
20
59.500000
30
0.0
11
557.750000
21
59.500000
31
0.0
0
LINE
8
TITLE
10
462.000000
20
19.000000
30
0.0
11
462.000000
21
53.000000
31
0.0
0
LINE
8
TITLE
10
526.000000
20
19.000000
30
0.0
11
526.000000
21
53.000000
31
0.0
0
TEXT
8
TITLE
10
399.600000
20
50.600000
30
0.0
40
1.7000
1
MATERIAL
0
TEXT
8
TEXT
10
399.600000
20
45.900000
30
0.0
40
2.5000
1
PLA
0
TEXT
8
TITLE
10
463.600000
20
50.600000
30
0.0
40
1.7000
1
PROCESS
0
TEXT
8
TEXT
10
463.600000
20
45.900000
30
0.0
40
2.5000
1
-
0
TEXT
8
TITLE
10
527.600000
20
50.600000
30
0.0
40
1.7000
1
SCALE
0
TEXT
8
TEXT
10
527.600000
20
45.900000
30
0.0
40
2.5000
1
2:1
0
TEXT
8
TITLE
10
399.600000
20
42.100000
30
0.0
40
1.7000
1
CATEGORY
0
TEXT
8
TEXT
10
399.600000
20
37.400000
30
0.0
40
2.5000
1
-
0
TEXT
8
TITLE
10
431.600000
20
42.100000
30
0.0
40
1.7000
1
GENERAL TOL
0
TEXT
8
TEXT
10
431.600000
20
37.400000
30
0.0
40
2.5000
1
SEE NOTES
0
LINE
8
TITLE
10
430.000000
20
36.000000
30
0.0
11
430.000000
21
44.500000
31
0.0
0
TEXT
8
TITLE
10
463.600000
20
42.100000
30
0.0
40
1.7000
1
FINISH
0
TEXT
8
TEXT
10
463.600000
20
37.400000
30
0.0
40
2.5000
1
AS PRINTED
0
TEXT
8
TITLE
10
527.600000
20
42.100000
30
0.0
40
1.7000
1
SHEET
0
TEXT
8
TEXT
10
527.600000
20
37.400000
30
0.0
40
2.5000
1
A2  1/1
0
TEXT
8
TITLE
10
399.600000
20
33.600000
30
0.0
40
1.7000
1
VOLUME (MEASURED)
0
TEXT
8
TEXT
10
399.600000
20
28.900000
30
0.0
40
2.5000
1
7.01 cm3
0
TEXT
8
TITLE
10
463.600000
20
33.600000
30
0.0
40
1.7000
1
MASS (ASSUMES PLA)
0
TEXT
8
TEXT
10
463.600000
20
28.900000
30
0.0
40
2.5000
1
8.7 g
0
TEXT
8
TITLE
10
527.600000
20
33.600000
30
0.0
40
1.7000
1
UNITS
0
TEXT
8
TEXT
10
527.600000
20
28.900000
30
0.0
40
2.5000
1
mm / deg
0
TEXT
8
TITLE
10
399.600000
20
25.100000
30
0.0
40
1.7000
1
SIZE (BBOX, MEASURED)
0
TEXT
8
TEXT
10
399.600000
20
20.400000
30
0.0
40
2.5000
1
26.00 x 26.00 x 19.80
0
TEXT
8
TITLE
10
463.600000
20
25.100000
30
0.0
40
1.7000
1
DRAWN
0
TEXT
8
TEXT
10
463.600000
20
20.400000
30
0.0
40
2.5000
1
ce-cad  2026-09-03
0
TEXT
8
TITLE
10
527.600000
20
25.100000
30
0.0
40
1.7000
1
PROJECTION
0
TEXT
8
TEXT
10
527.600000
20
20.400000
30
0.0
40
2.5000
1
THIRD ANGLE
0
TEXT
8
TITLE
10
399.600000
20
16.600000
30
0.0
40
1.7000
1
SOURCE (DESIGN FILE)
0
TEXT
8
TEXT
10
399.600000
20
11.400000
30
0.0
40
2.6000
1
tools/jigs.py
0
TEXT
8
TEXT
10
12.500000
20
403.500000
30
0.0
40
4.2000
1
microduck-jig-press-15-outer   SCALE 2:1   A2   THIRD ANGLE
0
ENDSEC
0
EOF
