0
SECTION
2
HEADER
9
$ACADVER
1
AC1009
9
$INSUNITS
70
4
9
$LTSCALE
40
1.0
9
$EXTMIN
10
0.0000
20
0.0000
30
0.0
9
$EXTMAX
10
420.0000
20
297.0000
30
0.0
0
ENDSEC
0
SECTION
2
TABLES
0
TABLE
2
LTYPE
70
4
0
LTYPE
2
CONTINUOUS
70
0
3
Solid line
72
65
73
0
40
0.0000
0
LTYPE
2
HIDDEN
70
0
3
Hidden __ __ __ __
72
65
73
2
40
3.6000
49
2.4000
49
-1.2000
0
LTYPE
2
CENTER
70
0
3
Center ____ _ ____ _
72
65
73
4
40
11.2000
49
7.0000
49
-1.4000
49
1.4000
49
-1.4000
0
LTYPE
2
PHANTOM
70
0
3
Phantom ____ _ _ ____
72
65
73
6
40
21.0000
49
11.0000
49
-2.0000
49
2.0000
49
-2.0000
49
2.0000
49
-2.0000
0
ENDTAB
0
TABLE
2
LAYER
70
12
0
LAYER
2
0
70
0
62
7
6
CONTINUOUS
0
LAYER
2
VISIBLE
70
0
62
7
6
CONTINUOUS
0
LAYER
2
SECTION
70
0
62
7
6
CONTINUOUS
0
LAYER
2
HIDDEN
70
0
62
8
6
HIDDEN
0
LAYER
2
CENTER
70
0
62
4
6
CENTER
0
LAYER
2
DIM
70
0
62
3
6
CONTINUOUS
0
LAYER
2
TEXT
70
0
62
3
6
CONTINUOUS
0
LAYER
2
HATCH
70
0
62
5
6
CONTINUOUS
0
LAYER
2
CUT
70
0
62
1
6
PHANTOM
0
LAYER
2
CUTTHIN
70
0
62
1
6
PHANTOM
0
LAYER
2
FRAME
70
0
62
7
6
CONTINUOUS
0
LAYER
2
TITLE
70
0
62
7
6
CONTINUOUS
0
ENDTAB
0
ENDSEC
0
SECTION
2
ENTITIES
0
LINE
8
TITLE
10
5.000000
20
5.000000
30
0.0
11
415.000000
21
5.000000
31
0.0
0
LINE
8
TITLE
10
415.000000
20
5.000000
30
0.0
11
415.000000
21
292.000000
31
0.0
0
LINE
8
TITLE
10
415.000000
20
292.000000
30
0.0
11
5.000000
21
292.000000
31
0.0
0
LINE
8
TITLE
10
5.000000
20
292.000000
30
0.0
11
5.000000
21
5.000000
31
0.0
0
LINE
8
FRAME
10
10.000000
20
10.000000
30
0.0
11
410.000000
21
10.000000
31
0.0
0
LINE
8
FRAME
10
410.000000
20
10.000000
30
0.0
11
410.000000
21
287.000000
31
0.0
0
LINE
8
FRAME
10
410.000000
20
287.000000
30
0.0
11
10.000000
21
287.000000
31
0.0
0
LINE
8
FRAME
10
10.000000
20
287.000000
30
0.0
11
10.000000
21
10.000000
31
0.0
0
TEXT
8
TITLE
10
60.000000
20
289.500000
30
0.0
40
2.4000
1
1
72
1
73
2
11
60.000000
21
289.500000
31
0.0
0
TEXT
8
TITLE
10
60.000000
20
7.500000
30
0.0
40
2.4000
1
1
72
1
73
2
11
60.000000
21
7.500000
31
0.0
0
TEXT
8
TITLE
10
160.000000
20
289.500000
30
0.0
40
2.4000
1
2
72
1
73
2
11
160.000000
21
289.500000
31
0.0
0
TEXT
8
TITLE
10
160.000000
20
7.500000
30
0.0
40
2.4000
1
2
72
1
73
2
11
160.000000
21
7.500000
31
0.0
0
LINE
8
TITLE
10
110.000000
20
5.000000
30
0.0
11
110.000000
21
10.000000
31
0.0
0
LINE
8
TITLE
10
110.000000
20
287.000000
30
0.0
11
110.000000
21
292.000000
31
0.0
0
TEXT
8
TITLE
10
260.000000
20
289.500000
30
0.0
40
2.4000
1
3
72
1
73
2
11
260.000000
21
289.500000
31
0.0
0
TEXT
8
TITLE
10
260.000000
20
7.500000
30
0.0
40
2.4000
1
3
72
1
73
2
11
260.000000
21
7.500000
31
0.0
0
LINE
8
TITLE
10
210.000000
20
5.000000
30
0.0
11
210.000000
21
10.000000
31
0.0
0
LINE
8
TITLE
10
210.000000
20
287.000000
30
0.0
11
210.000000
21
292.000000
31
0.0
0
TEXT
8
TITLE
10
360.000000
20
289.500000
30
0.0
40
2.4000
1
4
72
1
73
2
11
360.000000
21
289.500000
31
0.0
0
TEXT
8
TITLE
10
360.000000
20
7.500000
30
0.0
40
2.4000
1
4
72
1
73
2
11
360.000000
21
7.500000
31
0.0
0
LINE
8
TITLE
10
310.000000
20
5.000000
30
0.0
11
310.000000
21
10.000000
31
0.0
0
LINE
8
TITLE
10
310.000000
20
287.000000
30
0.0
11
310.000000
21
292.000000
31
0.0
0
TEXT
8
TITLE
10
7.500000
20
56.166667
30
0.0
40
2.4000
1
C
72
1
73
2
11
7.500000
21
56.166667
31
0.0
0
TEXT
8
TITLE
10
412.500000
20
56.166667
30
0.0
40
2.4000
1
C
72
1
73
2
11
412.500000
21
56.166667
31
0.0
0
TEXT
8
TITLE
10
7.500000
20
148.500000
30
0.0
40
2.4000
1
B
72
1
73
2
11
7.500000
21
148.500000
31
0.0
0
TEXT
8
TITLE
10
412.500000
20
148.500000
30
0.0
40
2.4000
1
B
72
1
73
2
11
412.500000
21
148.500000
31
0.0
0
LINE
8
TITLE
10
5.000000
20
102.333333
30
0.0
11
10.000000
21
102.333333
31
0.0
0
LINE
8
TITLE
10
410.000000
20
102.333333
30
0.0
11
415.000000
21
102.333333
31
0.0
0
TEXT
8
TITLE
10
7.500000
20
240.833333
30
0.0
40
2.4000
1
A
72
1
73
2
11
7.500000
21
240.833333
31
0.0
0
TEXT
8
TITLE
10
412.500000
20
240.833333
30
0.0
40
2.4000
1
A
72
1
73
2
11
412.500000
21
240.833333
31
0.0
0
LINE
8
TITLE
10
5.000000
20
194.666667
30
0.0
11
10.000000
21
194.666667
31
0.0
0
LINE
8
TITLE
10
410.000000
20
194.666667
30
0.0
11
415.000000
21
194.666667
31
0.0
0
CIRCLE
8
VISIBLE
10
171.500000
20
179.700000
30
0.0
40
80.000000
0
CIRCLE
8
VISIBLE
10
111.500000
20
179.700000
30
0.0
40
12.000000
0
CIRCLE
8
VISIBLE
10
171.500000
20
119.700000
30
0.0
40
12.000000
0
CIRCLE
8
VISIBLE
10
171.500000
20
179.700000
30
0.0
40
30.000000
0
CIRCLE
8
VISIBLE
10
171.500000
20
239.700000
30
0.0
40
12.000000
0
CIRCLE
8
VISIBLE
10
231.500000
20
179.700000
30
0.0
40
12.000000
0
LINE
8
VISIBLE
10
32.900000
20
259.700000
30
0.0
11
32.900000
21
99.700000
31
0.0
0
LINE
8
VISIBLE
10
52.500000
20
259.700000
30
0.0
11
32.900000
21
259.700000
31
0.0
0
LINE
8
VISIBLE
10
52.500000
20
259.700000
30
0.0
11
52.500000
21
99.700000
31
0.0
0
LINE
8
VISIBLE
10
52.500000
20
99.700000
30
0.0
11
32.900000
21
99.700000
31
0.0
0
LINE
8
HIDDEN
10
32.900000
20
191.700000
30
0.0
11
32.900000
21
167.700000
31
0.0
0
LINE
8
HIDDEN
10
32.900000
20
167.700000
30
0.0
11
32.900000
21
191.700000
31
0.0
0
LINE
8
HIDDEN
10
32.900000
20
131.700000
30
0.0
11
32.900000
21
107.700000
31
0.0
0
LINE
8
HIDDEN
10
32.900000
20
107.700000
30
0.0
11
32.900000
21
131.700000
31
0.0
0
LINE
8
HIDDEN
10
32.900000
20
209.700000
30
0.0
11
32.900000
21
149.700000
31
0.0
0
LINE
8
HIDDEN
10
32.900000
20
149.700000
30
0.0
11
32.900000
21
209.700000
31
0.0
0
LINE
8
HIDDEN
10
32.900000
20
251.700000
30
0.0
11
32.900000
21
227.700000
31
0.0
0
LINE
8
HIDDEN
10
32.900000
20
227.700000
30
0.0
11
32.900000
21
251.700000
31
0.0
0
LINE
8
HIDDEN
10
32.900000
20
191.700000
30
0.0
11
32.900000
21
167.700000
31
0.0
0
LINE
8
HIDDEN
10
32.900000
20
167.700000
30
0.0
11
32.900000
21
191.700000
31
0.0
0
LINE
8
HIDDEN
10
52.500000
20
191.700000
30
0.0
11
52.500000
21
167.700000
31
0.0
0
LINE
8
HIDDEN
10
52.500000
20
167.700000
30
0.0
11
52.500000
21
191.700000
31
0.0
0
LINE
8
HIDDEN
10
52.500000
20
131.700000
30
0.0
11
52.500000
21
107.700000
31
0.0
0
LINE
8
HIDDEN
10
52.500000
20
107.700000
30
0.0
11
52.500000
21
131.700000
31
0.0
0
LINE
8
HIDDEN
10
52.500000
20
251.700000
30
0.0
11
52.500000
21
227.700000
31
0.0
0
LINE
8
HIDDEN
10
52.500000
20
227.700000
30
0.0
11
52.500000
21
251.700000
31
0.0
0
LINE
8
HIDDEN
10
52.500000
20
191.700000
30
0.0
11
52.500000
21
167.700000
31
0.0
0
LINE
8
HIDDEN
10
52.500000
20
167.700000
30
0.0
11
52.500000
21
191.700000
31
0.0
0
LINE
8
HIDDEN
10
52.500000
20
191.700000
30
0.0
11
32.900000
21
191.700000
31
0.0
0
LINE
8
HIDDEN
10
52.500000
20
131.700000
30
0.0
11
32.900000
21
131.700000
31
0.0
0
LINE
8
HIDDEN
10
52.400000
20
209.700000
30
0.0
11
32.900000
21
209.700000
31
0.0
0
LINE
8
HIDDEN
10
52.400000
20
209.700000
30
0.0
11
52.400000
21
149.700000
31
0.0
0
LINE
8
HIDDEN
10
52.400000
20
149.700000
30
0.0
11
52.400000
21
209.700000
31
0.0
0
LINE
8
HIDDEN
10
52.500000
20
251.700000
30
0.0
11
32.900000
21
251.700000
31
0.0
0
LINE
8
HIDDEN
10
52.500000
20
191.700000
30
0.0
11
32.900000
21
191.700000
31
0.0
0
LINE
8
HIDDEN
10
52.500000
20
167.700000
30
0.0
11
32.900000
21
167.700000
31
0.0
0
LINE
8
HIDDEN
10
52.500000
20
107.700000
30
0.0
11
32.900000
21
107.700000
31
0.0
0
LINE
8
HIDDEN
10
52.400000
20
149.700000
30
0.0
11
32.900000
21
149.700000
31
0.0
0
LINE
8
HIDDEN
10
52.500000
20
227.700000
30
0.0
11
32.900000
21
227.700000
31
0.0
0
LINE
8
HIDDEN
10
52.500000
20
167.700000
30
0.0
11
32.900000
21
167.700000
31
0.0
0
LINE
8
VISIBLE
10
289.500000
20
259.700000
30
0.0
11
289.500000
21
99.700000
31
0.0
0
LINE
8
VISIBLE
10
309.100000
20
259.700000
30
0.0
11
309.100000
21
99.700000
31
0.0
0
LINE
8
SECTION
10
309.100000
20
99.700000
30
0.0
11
289.500000
21
99.700000
31
0.0
0
LINE
8
SECTION
10
289.500000
20
99.700000
30
0.0
11
289.500000
21
107.700000
31
0.0
0
LINE
8
SECTION
10
309.100000
20
107.700000
30
0.0
11
289.500000
21
107.700000
31
0.0
0
LINE
8
SECTION
10
309.100000
20
99.700000
30
0.0
11
309.100000
21
107.700000
31
0.0
0
LINE
8
SECTION
10
309.100000
20
251.700000
30
0.0
11
309.100000
21
259.700000
31
0.0
0
LINE
8
SECTION
10
309.100000
20
251.700000
30
0.0
11
289.500000
21
251.700000
31
0.0
0
LINE
8
SECTION
10
289.500000
20
251.700000
30
0.0
11
289.500000
21
259.700000
31
0.0
0
LINE
8
SECTION
10
309.100000
20
259.700000
30
0.0
11
289.500000
21
259.700000
31
0.0
0
LINE
8
SECTION
10
309.100000
20
131.700000
30
0.0
11
289.500000
21
131.700000
31
0.0
0
LINE
8
SECTION
10
289.500000
20
131.700000
30
0.0
11
289.500000
21
149.700000
31
0.0
0
LINE
8
SECTION
10
309.000000
20
149.700000
30
0.0
11
289.500000
21
149.700000
31
0.0
0
LINE
8
SECTION
10
309.000000
20
149.700000
30
0.0
11
309.000000
21
209.700000
31
0.0
0
LINE
8
SECTION
10
309.000000
20
209.700000
30
0.0
11
289.500000
21
209.700000
31
0.0
0
LINE
8
SECTION
10
289.500000
20
209.700000
30
0.0
11
289.500000
21
227.700000
31
0.0
0
LINE
8
SECTION
10
309.100000
20
227.700000
30
0.0
11
289.500000
21
227.700000
31
0.0
0
LINE
8
SECTION
10
309.100000
20
131.700000
30
0.0
11
309.100000
21
227.700000
31
0.0
0
LINE
8
CENTER
10
157.900000
20
239.700000
30
0.0
11
170.300000
21
239.700000
31
0.0
0
LINE
8
CENTER
10
172.700000
20
239.700000
30
0.0
11
185.100000
21
239.700000
31
0.0
0
LINE
8
CENTER
10
171.500000
20
226.100000
30
0.0
11
171.500000
21
238.500000
31
0.0
0
LINE
8
CENTER
10
171.500000
20
240.900000
30
0.0
11
171.500000
21
253.300000
31
0.0
0
LINE
8
CENTER
10
97.900000
20
179.700000
30
0.0
11
110.300000
21
179.700000
31
0.0
0
LINE
8
CENTER
10
112.700000
20
179.700000
30
0.0
11
125.100000
21
179.700000
31
0.0
0
LINE
8
CENTER
10
111.500000
20
166.100000
30
0.0
11
111.500000
21
178.500000
31
0.0
0
LINE
8
CENTER
10
111.500000
20
180.900000
30
0.0
11
111.500000
21
193.300000
31
0.0
0
LINE
8
CENTER
10
139.900000
20
179.700000
30
0.0
11
170.300000
21
179.700000
31
0.0
0
LINE
8
CENTER
10
172.700000
20
179.700000
30
0.0
11
203.100000
21
179.700000
31
0.0
0
LINE
8
CENTER
10
171.500000
20
148.100000
30
0.0
11
171.500000
21
178.500000
31
0.0
0
LINE
8
CENTER
10
171.500000
20
180.900000
30
0.0
11
171.500000
21
211.300000
31
0.0
0
LINE
8
CENTER
10
217.900000
20
179.700000
30
0.0
11
230.300000
21
179.700000
31
0.0
0
LINE
8
CENTER
10
232.700000
20
179.700000
30
0.0
11
245.100000
21
179.700000
31
0.0
0
LINE
8
CENTER
10
231.500000
20
166.100000
30
0.0
11
231.500000
21
178.500000
31
0.0
0
LINE
8
CENTER
10
231.500000
20
180.900000
30
0.0
11
231.500000
21
193.300000
31
0.0
0
LINE
8
CENTER
10
157.900000
20
119.700000
30
0.0
11
170.300000
21
119.700000
31
0.0
0
LINE
8
CENTER
10
172.700000
20
119.700000
30
0.0
11
185.100000
21
119.700000
31
0.0
0
LINE
8
CENTER
10
171.500000
20
106.100000
30
0.0
11
171.500000
21
118.500000
31
0.0
0
LINE
8
CENTER
10
171.500000
20
120.900000
30
0.0
11
171.500000
21
133.300000
31
0.0
0
LINE
8
DIM
10
91.500000
20
98.500000
30
0.0
11
91.500000
21
76.700000
31
0.0
0
LINE
8
DIM
10
251.500000
20
98.500000
30
0.0
11
251.500000
21
76.700000
31
0.0
0
LINE
8
DIM
10
91.500000
20
78.700000
30
0.0
11
251.500000
21
78.700000
31
0.0
0
SOLID
8
DIM
10
91.500000
20
78.700000
30
0.0
11
94.700000
21
78.092000
31
0.0
12
94.700000
22
79.308000
32
0.0
13
94.700000
23
79.308000
33
0.0
0
SOLID
8
DIM
10
251.500000
20
78.700000
30
0.0
11
248.300000
21
79.308000
31
0.0
12
248.300000
22
78.092000
32
0.0
13
248.300000
23
78.092000
33
0.0
0
TEXT
8
TEXT
10
171.500000
20
79.700000
30
0.0
40
2.5000
1
16.00
72
1
73
0
11
171.500000
21
79.700000
31
0.0
0
LINE
8
DIM
10
90.300000
20
99.700000
30
0.0
11
68.500000
21
99.700000
31
0.0
0
LINE
8
DIM
10
90.300000
20
259.700000
30
0.0
11
68.500000
21
259.700000
31
0.0
0
LINE
8
DIM
10
70.500000
20
99.700000
30
0.0
11
70.500000
21
259.700000
31
0.0
0
SOLID
8
DIM
10
70.500000
20
99.700000
30
0.0
11
71.108000
21
102.900000
31
0.0
12
69.892000
22
102.900000
32
0.0
13
69.892000
23
102.900000
33
0.0
0
SOLID
8
DIM
10
70.500000
20
259.700000
30
0.0
11
69.892000
21
256.500000
31
0.0
12
71.108000
22
256.500000
32
0.0
13
71.108000
23
256.500000
33
0.0
0
TEXT
8
TEXT
10
69.500000
20
179.700000
30
0.0
40
2.5000
1
16.00
50
90.0000
72
1
73
0
11
69.500000
21
179.700000
31
0.0
0
SOLID
8
DIM
10
178.887938
20
249.156129
30
0.0
11
181.337165
21
251.303441
31
0.0
12
180.378944
22
252.052086
32
0.0
13
180.378944
23
252.052086
33
0.0
0
LINE
8
DIM
10
178.887938
20
249.156129
30
0.0
11
192.594712
21
266.700000
31
0.0
0
LINE
8
DIM
10
192.594712
20
266.700000
30
0.0
11
197.594712
21
266.700000
31
0.0
0
TEXT
8
TEXT
10
198.394712
20
267.700000
30
0.0
40
2.5000
1
4x Ø2.40 THRU
0
SOLID
8
DIM
10
189.969844
20
203.340323
30
0.0
11
192.419072
21
205.487635
31
0.0
12
191.460850
22
206.236279
32
0.0
13
191.460850
23
206.236279
33
0.0
0
LINE
8
DIM
10
189.969844
20
203.340323
30
0.0
11
244.257224
21
272.825000
31
0.0
0
LINE
8
DIM
10
244.257224
20
272.825000
30
0.0
11
249.257224
21
272.825000
31
0.0
0
TEXT
8
TEXT
10
250.057224
20
273.825000
30
0.0
40
2.5000
1
Ø6.00 x 1.95 DP
0
LINE
8
DIM
10
171.500000
20
178.500000
30
0.0
11
171.500000
21
69.700000
31
0.0
0
LINE
8
DIM
10
337.000000
20
178.500000
30
0.0
11
337.000000
21
69.700000
31
0.0
0
LINE
8
DIM
10
171.500000
20
71.700000
30
0.0
11
337.000000
21
71.700000
31
0.0
0
SOLID
8
DIM
10
171.500000
20
71.700000
30
0.0
11
174.700000
21
71.092000
31
0.0
12
174.700000
22
72.308000
32
0.0
13
174.700000
23
72.308000
33
0.0
0
SOLID
8
DIM
10
337.000000
20
71.700000
30
0.0
11
333.800000
21
72.308000
31
0.0
12
333.800000
22
71.092000
32
0.0
13
333.800000
23
71.092000
33
0.0
0
TEXT
8
TEXT
10
254.250000
20
72.700000
30
0.0
40
2.5000
1
16.55
72
1
73
0
11
254.250000
21
72.700000
31
0.0
0
TEXT
8
TEXT
10
171.500000
20
59.700000
30
0.0
40
4.0000
1
RIGHT VIEW
72
1
73
0
11
171.500000
21
59.700000
31
0.0
0
LINE
8
TEXT
10
159.500000
20
58.100000
30
0.0
11
183.500000
21
58.100000
31
0.0
0
TEXT
8
TEXT
10
171.500000
20
53.700000
30
0.0
40
2.4000
1
-Y →   Z ↑
72
1
73
0
11
171.500000
21
53.700000
31
0.0
0
LINE
8
DIM
10
32.900000
20
98.500000
30
0.0
11
32.900000
21
85.700000
31
0.0
0
LINE
8
DIM
10
52.500000
20
98.500000
30
0.0
11
52.500000
21
85.700000
31
0.0
0
LINE
8
DIM
10
32.900000
20
87.700000
30
0.0
11
52.500000
21
87.700000
31
0.0
0
SOLID
8
DIM
10
32.900000
20
87.700000
30
0.0
11
36.100000
21
87.092000
31
0.0
12
36.100000
22
88.308000
32
0.0
13
36.100000
23
88.308000
33
0.0
0
SOLID
8
DIM
10
52.500000
20
87.700000
30
0.0
11
49.300000
21
88.308000
31
0.0
12
49.300000
22
87.092000
32
0.0
13
49.300000
23
87.092000
33
0.0
0
TEXT
8
TEXT
10
42.700000
20
88.700000
30
0.0
40
2.5000
1
1.96
72
1
73
0
11
42.700000
21
88.700000
31
0.0
0
LINE
8
DIM
10
31.700000
20
99.700000
30
0.0
11
18.900000
21
99.700000
31
0.0
0
LINE
8
DIM
10
31.700000
20
259.700000
30
0.0
11
18.900000
21
259.700000
31
0.0
0
LINE
8
DIM
10
20.900000
20
99.700000
30
0.0
11
20.900000
21
259.700000
31
0.0
0
SOLID
8
DIM
10
20.900000
20
99.700000
30
0.0
11
21.508000
21
102.900000
31
0.0
12
20.292000
22
102.900000
32
0.0
13
20.292000
23
102.900000
33
0.0
0
SOLID
8
DIM
10
20.900000
20
259.700000
30
0.0
11
20.292000
21
256.500000
31
0.0
12
21.508000
22
256.500000
32
0.0
13
21.508000
23
256.500000
33
0.0
0
TEXT
8
TEXT
10
19.900000
20
179.700000
30
0.0
40
2.5000
1
16.00
50
90.0000
72
1
73
0
11
19.900000
21
179.700000
31
0.0
0
TEXT
8
TEXT
10
42.700000
20
75.700000
30
0.0
40
4.0000
1
FRONT VIEW
72
1
73
0
11
42.700000
21
75.700000
31
0.0
0
LINE
8
TEXT
10
30.700000
20
74.100000
30
0.0
11
54.700000
21
74.100000
31
0.0
0
TEXT
8
TEXT
10
42.700000
20
69.700000
30
0.0
40
2.4000
1
-X →   Z ↑
72
1
73
0
11
42.700000
21
69.700000
31
0.0
0
LINE
8
DIM
10
289.500000
20
98.500000
30
0.0
11
289.500000
21
85.700000
31
0.0
0
LINE
8
DIM
10
309.100000
20
98.500000
30
0.0
11
309.100000
21
85.700000
31
0.0
0
LINE
8
DIM
10
289.500000
20
87.700000
30
0.0
11
309.100000
21
87.700000
31
0.0
0
SOLID
8
DIM
10
289.500000
20
87.700000
30
0.0
11
292.700000
21
87.092000
31
0.0
12
292.700000
22
88.308000
32
0.0
13
292.700000
23
88.308000
33
0.0
0
SOLID
8
DIM
10
309.100000
20
87.700000
30
0.0
11
305.900000
21
88.308000
31
0.0
12
305.900000
22
87.092000
32
0.0
13
305.900000
23
87.092000
33
0.0
0
TEXT
8
TEXT
10
299.300000
20
88.700000
30
0.0
40
2.5000
1
1.96
72
1
73
0
11
299.300000
21
88.700000
31
0.0
0
LINE
8
DIM
10
288.300000
20
99.700000
30
0.0
11
275.500000
21
99.700000
31
0.0
0
LINE
8
DIM
10
288.300000
20
259.700000
30
0.0
11
275.500000
21
259.700000
31
0.0
0
LINE
8
DIM
10
277.500000
20
99.700000
30
0.0
11
277.500000
21
259.700000
31
0.0
0
SOLID
8
DIM
10
277.500000
20
99.700000
30
0.0
11
278.108000
21
102.900000
31
0.0
12
276.892000
22
102.900000
32
0.0
13
276.892000
23
102.900000
33
0.0
0
SOLID
8
DIM
10
277.500000
20
259.700000
30
0.0
11
276.892000
21
256.500000
31
0.0
12
278.108000
22
256.500000
32
0.0
13
278.108000
23
256.500000
33
0.0
0
TEXT
8
TEXT
10
276.500000
20
179.700000
30
0.0
40
2.5000
1
16.00
50
90.0000
72
1
73
0
11
276.500000
21
179.700000
31
0.0
0
LINE
8
HATCH
10
309.099986
20
99.700000
30
0.0
11
309.100000
21
99.700014
31
0.0
0
LINE
8
HATCH
10
304.857345
20
99.700000
30
0.0
11
309.100000
21
103.942655
31
0.0
0
LINE
8
HATCH
10
300.614704
20
99.700000
30
0.0
11
308.614704
21
107.700000
31
0.0
0
LINE
8
HATCH
10
296.372064
20
99.700000
30
0.0
11
304.372064
21
107.700000
31
0.0
0
LINE
8
HATCH
10
292.129423
20
99.700000
30
0.0
11
300.129423
21
107.700000
31
0.0
0
LINE
8
HATCH
10
289.500000
20
101.313218
30
0.0
11
295.886782
21
107.700000
31
0.0
0
LINE
8
HATCH
10
289.500000
20
105.555858
30
0.0
11
291.644142
21
107.700000
31
0.0
0
LINE
8
HATCH
10
309.099986
20
251.700000
30
0.0
11
309.100000
21
251.700014
31
0.0
0
LINE
8
HATCH
10
304.857345
20
251.700000
30
0.0
11
309.100000
21
255.942655
31
0.0
0
LINE
8
HATCH
10
300.614704
20
251.700000
30
0.0
11
308.614704
21
259.700000
31
0.0
0
LINE
8
HATCH
10
296.372064
20
251.700000
30
0.0
11
304.372064
21
259.700000
31
0.0
0
LINE
8
HATCH
10
292.129423
20
251.700000
30
0.0
11
300.129423
21
259.700000
31
0.0
0
LINE
8
HATCH
10
289.500000
20
253.313218
30
0.0
11
295.886782
21
259.700000
31
0.0
0
LINE
8
HATCH
10
289.500000
20
257.555858
30
0.0
11
291.644142
21
259.700000
31
0.0
0
LINE
8
HATCH
10
309.099986
20
131.700000
30
0.0
11
309.100000
21
131.700014
31
0.0
0
LINE
8
HATCH
10
304.857345
20
131.700000
30
0.0
11
309.100000
21
135.942655
31
0.0
0
LINE
8
HATCH
10
300.614704
20
131.700000
30
0.0
11
309.100000
21
140.185296
31
0.0
0
LINE
8
HATCH
10
296.372064
20
131.700000
30
0.0
11
309.100000
21
144.427936
31
0.0
0
LINE
8
HATCH
10
292.129423
20
131.700000
30
0.0
11
309.100000
21
148.670577
31
0.0
0
LINE
8
HATCH
10
289.500000
20
133.313218
30
0.0
11
305.886782
21
149.700000
31
0.0
0
LINE
8
HATCH
10
309.000000
20
152.813218
30
0.0
11
309.100000
21
152.913218
31
0.0
0
LINE
8
HATCH
10
289.500000
20
137.555858
30
0.0
11
301.644142
21
149.700000
31
0.0
0
LINE
8
HATCH
10
309.000000
20
157.055858
30
0.0
11
309.100000
21
157.155858
31
0.0
0
LINE
8
HATCH
10
289.500000
20
141.798499
30
0.0
11
297.401501
21
149.700000
31
0.0
0
LINE
8
HATCH
10
309.000000
20
161.298499
30
0.0
11
309.100000
21
161.398499
31
0.0
0
LINE
8
HATCH
10
289.500000
20
146.041140
30
0.0
11
293.158860
21
149.700000
31
0.0
0
LINE
8
HATCH
10
309.000000
20
165.541140
30
0.0
11
309.100000
21
165.641140
31
0.0
0
LINE
8
HATCH
10
309.000000
20
169.783780
30
0.0
11
309.100000
21
169.883780
31
0.0
0
LINE
8
HATCH
10
309.000000
20
174.026421
30
0.0
11
309.100000
21
174.126421
31
0.0
0
LINE
8
HATCH
10
309.000000
20
178.269062
30
0.0
11
309.100000
21
178.369062
31
0.0
0
LINE
8
HATCH
10
309.000000
20
182.511702
30
0.0
11
309.100000
21
182.611702
31
0.0
0
LINE
8
HATCH
10
309.000000
20
186.754343
30
0.0
11
309.100000
21
186.854343
31
0.0
0
LINE
8
HATCH
10
309.000000
20
190.996984
30
0.0
11
309.100000
21
191.096984
31
0.0
0
LINE
8
HATCH
10
309.000000
20
195.239624
30
0.0
11
309.100000
21
195.339624
31
0.0
0
LINE
8
HATCH
10
309.000000
20
199.482265
30
0.0
11
309.100000
21
199.582265
31
0.0
0
LINE
8
HATCH
10
309.000000
20
203.724906
30
0.0
11
309.100000
21
203.824906
31
0.0
0
LINE
8
HATCH
10
309.000000
20
207.967547
30
0.0
11
309.100000
21
208.067547
31
0.0
0
LINE
8
HATCH
10
306.489813
20
209.700000
30
0.0
11
309.100000
21
212.310187
31
0.0
0
LINE
8
HATCH
10
302.247172
20
209.700000
30
0.0
11
309.100000
21
216.552828
31
0.0
0
LINE
8
HATCH
10
298.004531
20
209.700000
30
0.0
11
309.100000
21
220.795469
31
0.0
0
LINE
8
HATCH
10
293.761891
20
209.700000
30
0.0
11
309.100000
21
225.038109
31
0.0
0
LINE
8
HATCH
10
289.519250
20
209.700000
30
0.0
11
307.519250
21
227.700000
31
0.0
0
LINE
8
HATCH
10
289.500000
20
213.923391
30
0.0
11
303.276609
21
227.700000
31
0.0
0
LINE
8
HATCH
10
289.500000
20
218.166031
30
0.0
11
299.033969
21
227.700000
31
0.0
0
LINE
8
HATCH
10
289.500000
20
222.408672
30
0.0
11
294.791328
21
227.700000
31
0.0
0
LINE
8
HATCH
10
289.500000
20
226.651313
30
0.0
11
290.548687
21
227.700000
31
0.0
0
LINE
8
DIM
10
310.136657
20
251.700000
30
0.0
11
320.100000
21
251.700000
31
0.0
0
LINE
8
DIM
10
310.136657
20
259.700000
30
0.0
11
320.100000
21
259.700000
31
0.0
0
LINE
8
DIM
10
318.100000
20
251.700000
30
0.0
11
318.100000
21
259.700000
31
0.0
0
SOLID
8
DIM
10
318.100000
20
251.700000
30
0.0
11
317.492000
21
248.500000
31
0.0
12
318.708000
22
248.500000
32
0.0
13
318.708000
23
248.500000
33
0.0
0
SOLID
8
DIM
10
318.100000
20
259.700000
30
0.0
11
318.708000
21
262.900000
31
0.0
12
317.492000
22
262.900000
32
0.0
13
317.492000
23
262.900000
33
0.0
0
LINE
8
DIM
10
318.100000
20
259.700000
30
0.0
11
318.100000
21
269.300000
31
0.0
0
TEXT
8
TEXT
10
317.100000
20
270.100000
30
0.0
40
2.5000
1
0.80 WALL
50
90.0000
0
LINE
8
DIM
10
289.500000
20
102.233343
30
0.0
11
289.500000
21
268.700000
31
0.0
0
LINE
8
DIM
10
309.100000
20
102.233343
30
0.0
11
309.100000
21
268.700000
31
0.0
0
LINE
8
DIM
10
289.500000
20
266.700000
30
0.0
11
309.100000
21
266.700000
31
0.0
0
SOLID
8
DIM
10
289.500000
20
266.700000
30
0.0
11
292.700000
21
266.092000
31
0.0
12
292.700000
22
267.308000
32
0.0
13
292.700000
23
267.308000
33
0.0
0
SOLID
8
DIM
10
309.100000
20
266.700000
30
0.0
11
305.900000
21
267.308000
31
0.0
12
305.900000
22
266.092000
32
0.0
13
305.900000
23
266.092000
33
0.0
0
TEXT
8
TEXT
10
299.300000
20
267.700000
30
0.0
40
2.5000
1
1.96 WALL
72
1
73
0
11
299.300000
21
267.700000
31
0.0
0
TEXT
8
TEXT
10
299.300000
20
81.000000
30
0.0
40
4.0000
1
SECTION A-A
72
1
73
0
11
299.300000
21
81.000000
31
0.0
0
LINE
8
TEXT
10
286.100000
20
79.400000
30
0.0
11
312.500000
21
79.400000
31
0.0
0
LINE
8
CUT
10
171.500000
20
90.700000
30
0.0
11
171.500000
21
104.700000
31
0.0
0
LINE
8
CUTTHIN
10
171.500000
20
104.700000
30
0.0
11
171.500000
21
254.700000
31
0.0
0
LINE
8
CUT
10
171.500000
20
254.700000
30
0.0
11
171.500000
21
268.700000
31
0.0
0
LINE
8
CUT
10
171.500000
20
90.700000
30
0.0
11
180.500000
21
90.700000
31
0.0
0
SOLID
8
CUT
10
180.500000
20
90.700000
30
0.0
11
176.300000
21
91.498000
31
0.0
12
176.300000
22
89.902000
32
0.0
13
176.300000
23
89.902000
33
0.0
0
TEXT
8
TEXT
10
166.500000
20
90.700000
30
0.0
40
4.0000
1
A
72
1
73
2
11
166.500000
21
90.700000
31
0.0
0
LINE
8
CUT
10
171.500000
20
268.700000
30
0.0
11
180.500000
21
268.700000
31
0.0
0
SOLID
8
CUT
10
180.500000
20
268.700000
30
0.0
11
176.300000
21
269.498000
31
0.0
12
176.300000
22
267.902000
32
0.0
13
176.300000
23
267.902000
33
0.0
0
TEXT
8
TEXT
10
166.500000
20
268.700000
30
0.0
40
4.0000
1
A
72
1
73
2
11
166.500000
21
268.700000
31
0.0
0
TEXT
8
TEXT
10
334.000000
20
276.500000
30
0.0
40
3.0000
1
HOLE TABLE — 5 POSITIONS
0
LINE
8
TITLE
10
334.000000
20
274.000000
30
0.0
11
393.880000
21
274.000000
31
0.0
0
TEXT
8
TITLE
10
335.500000
20
271.530000
30
0.0
40
2.2000
1
TAG
0
TEXT
8
TITLE
10
342.460000
20
271.530000
30
0.0
40
2.2000
1
SIZE
0
TEXT
8
TITLE
10
365.260000
20
271.530000
30
0.0
40
2.2000
1
Y
0
TEXT
8
TITLE
10
374.860000
20
271.530000
30
0.0
40
2.2000
1
Z
0
TEXT
8
TITLE
10
384.460000
20
271.530000
30
0.0
40
2.2000
1
C'BORE
0
LINE
8
TITLE
10
334.000000
20
269.930000
30
0.0
11
393.880000
21
269.930000
31
0.0
0
TEXT
8
TEXT
10
335.500000
20
267.460000
30
0.0
40
2.2000
1
A1
0
TEXT
8
TEXT
10
342.460000
20
267.460000
30
0.0
40
2.2000
1
Ø2.40 THRU
0
TEXT
8
TEXT
10
365.260000
20
267.460000
30
0.0
40
2.2000
1
0.00
0
TEXT
8
TEXT
10
374.860000
20
267.460000
30
0.0
40
2.2000
1
6.00
0
TEXT
8
TEXT
10
384.460000
20
267.460000
30
0.0
40
2.2000
1
-
0
TEXT
8
TEXT
10
335.500000
20
263.390000
30
0.0
40
2.2000
1
A2
0
TEXT
8
TEXT
10
342.460000
20
263.390000
30
0.0
40
2.2000
1
Ø2.40 THRU
0
TEXT
8
TEXT
10
365.260000
20
263.390000
30
0.0
40
2.2000
1
6.00
0
TEXT
8
TEXT
10
374.860000
20
263.390000
30
0.0
40
2.2000
1
0.00
0
TEXT
8
TEXT
10
384.460000
20
263.390000
30
0.0
40
2.2000
1
-
0
TEXT
8
TEXT
10
335.500000
20
259.320000
30
0.0
40
2.2000
1
A3
0
TEXT
8
TEXT
10
342.460000
20
259.320000
30
0.0
40
2.2000
1
Ø6.00 x 1.95 DP
0
TEXT
8
TEXT
10
365.260000
20
259.320000
30
0.0
40
2.2000
1
0.00
0
TEXT
8
TEXT
10
374.860000
20
259.320000
30
0.0
40
2.2000
1
0.00
0
TEXT
8
TEXT
10
384.460000
20
259.320000
30
0.0
40
2.2000
1
-
0
TEXT
8
TEXT
10
335.500000
20
255.250000
30
0.0
40
2.2000
1
A4
0
TEXT
8
TEXT
10
342.460000
20
255.250000
30
0.0
40
2.2000
1
Ø2.40 THRU
0
TEXT
8
TEXT
10
365.260000
20
255.250000
30
0.0
40
2.2000
1
-6.00
0
TEXT
8
TEXT
10
374.860000
20
255.250000
30
0.0
40
2.2000
1
0.00
0
TEXT
8
TEXT
10
384.460000
20
255.250000
30
0.0
40
2.2000
1
-
0
TEXT
8
TEXT
10
335.500000
20
251.180000
30
0.0
40
2.2000
1
A5
0
TEXT
8
TEXT
10
342.460000
20
251.180000
30
0.0
40
2.2000
1
Ø2.40 THRU
0
TEXT
8
TEXT
10
365.260000
20
251.180000
30
0.0
40
2.2000
1
-0.00
0
TEXT
8
TEXT
10
374.860000
20
251.180000
30
0.0
40
2.2000
1
-6.00
0
TEXT
8
TEXT
10
384.460000
20
251.180000
30
0.0
40
2.2000
1
-
0
LINE
8
TITLE
10
334.000000
20
249.580000
30
0.0
11
393.880000
21
249.580000
31
0.0
0
LINE
8
TITLE
10
340.960000
20
249.580000
30
0.0
11
340.960000
21
274.000000
31
0.0
0
LINE
8
TITLE
10
363.760000
20
249.580000
30
0.0
11
363.760000
21
274.000000
31
0.0
0
LINE
8
TITLE
10
373.360000
20
249.580000
30
0.0
11
373.360000
21
274.000000
31
0.0
0
LINE
8
TITLE
10
382.960000
20
249.580000
30
0.0
11
382.960000
21
274.000000
31
0.0
0
LINE
8
TITLE
10
393.880000
20
249.580000
30
0.0
11
393.880000
21
274.000000
31
0.0
0
LINE
8
TITLE
10
334.000000
20
249.580000
30
0.0
11
334.000000
21
274.000000
31
0.0
0
TEXT
8
TITLE
10
334.000000
20
245.580000
30
0.0
40
1.8830
1
every row measured off the solid; positions are model
0
TEXT
8
TITLE
10
334.000000
20
242.755472
30
0.0
40
1.8830
1
coordinates, mm. C'BORE side is the face it opens on.
0
TEXT
8
TEXT
10
334.000000
20
232.930943
30
0.0
40
3.0000
1
NOTES
0
TEXT
8
TEXT
10
334.000000
20
228.330943
30
0.0
40
2.4000
1
1. ALL DIMENSIONS IN mm AND DEGREES. EVERY
0
TEXT
8
TEXT
10
334.000000
20
224.610943
30
0.0
40
2.4000
1
   DIMENSION AND EVERY HOLE CALLOUT WAS MEASURED
0
TEXT
8
TEXT
10
334.000000
20
220.890943
30
0.0
40
2.4000
1
   OFF THE SOLID.
0
TEXT
8
TEXT
10
334.000000
20
217.170943
30
0.0
40
2.4000
1
2. GENERAL TOLERANCE: CANNOT DETERMINE — THIS PART
0
TEXT
8
TEXT
10
334.000000
20
213.450943
30
0.0
40
2.4000
1
   DECLARES NO PROCESS THIS REPO CAN READ.
0
TEXT
8
TEXT
10
334.000000
20
209.730943
30
0.0
40
2.4000
1
3. SECTION A-A AT Y=0.00: THINNEST MATERIAL FOUND
0
TEXT
8
TEXT
10
334.000000
20
206.010943
30
0.0
40
2.4000
1
   BY SCAN 0.80 mm, AT X=38.51, Z=7.60.
0
LINE
8
FRAME
10
224.000000
20
10.000000
30
0.0
11
410.000000
21
10.000000
31
0.0
0
LINE
8
FRAME
10
410.000000
20
10.000000
30
0.0
11
410.000000
21
66.000000
31
0.0
0
LINE
8
FRAME
10
410.000000
20
66.000000
30
0.0
11
224.000000
21
66.000000
31
0.0
0
LINE
8
FRAME
10
224.000000
20
66.000000
30
0.0
11
224.000000
21
10.000000
31
0.0
0
LINE
8
TITLE
10
224.000000
20
53.000000
30
0.0
11
410.000000
21
53.000000
31
0.0
0
LINE
8
TITLE
10
224.000000
20
19.000000
30
0.0
11
410.000000
21
19.000000
31
0.0
0
LINE
8
TITLE
10
224.000000
20
27.500000
30
0.0
11
410.000000
21
27.500000
31
0.0
0
LINE
8
TITLE
10
224.000000
20
36.000000
30
0.0
11
410.000000
21
36.000000
31
0.0
0
LINE
8
TITLE
10
224.000000
20
44.500000
30
0.0
11
410.000000
21
44.500000
31
0.0
0
TEXT
8
TEXT
10
226.500000
20
59.500000
30
0.0
40
6.0000
1
MICRODUCK-HIP-BRACKET
72
0
73
2
11
226.500000
21
59.500000
31
0.0
0
LINE
8
TITLE
10
390.000000
20
53.000000
30
0.0
11
390.000000
21
66.000000
31
0.0
0
TEXT
8
TITLE
10
400.000000
20
63.600000
30
0.0
40
1.7000
1
REV
72
1
73
0
11
400.000000
21
63.600000
31
0.0
0
TEXT
8
TEXT
10
400.000000
20
55.000000
30
0.0
40
5.2000
1
A
72
1
73
0
11
400.000000
21
55.000000
31
0.0
0
LINE
8
TITLE
10
360.000000
20
53.000000
30
0.0
11
360.000000
21
66.000000
31
0.0
0
CIRCLE
8
TITLE
10
366.500000
20
59.500000
30
0.0
40
3.500000
0
CIRCLE
8
TITLE
10
366.500000
20
59.500000
30
0.0
40
1.960000
0
LINE
8
TITLE
10
376.300000
20
56.000000
30
0.0
11
376.300000
21
63.000000
31
0.0
0
LINE
8
TITLE
10
376.300000
20
63.000000
30
0.0
11
382.250000
21
61.460000
31
0.0
0
LINE
8
TITLE
10
382.250000
20
61.460000
30
0.0
11
382.250000
21
57.540000
31
0.0
0
LINE
8
TITLE
10
382.250000
20
57.540000
30
0.0
11
376.300000
21
56.000000
31
0.0
0
LINE
8
CENTER
10
361.500000
20
59.500000
30
0.0
11
383.750000
21
59.500000
31
0.0
0
LINE
8
TITLE
10
288.000000
20
19.000000
30
0.0
11
288.000000
21
53.000000
31
0.0
0
LINE
8
TITLE
10
352.000000
20
19.000000
30
0.0
11
352.000000
21
53.000000
31
0.0
0
TEXT
8
TITLE
10
225.600000
20
50.600000
30
0.0
40
1.7000
1
MATERIAL
0
TEXT
8
TEXT
10
225.600000
20
45.900000
30
0.0
40
2.5000
1
PLA
0
TEXT
8
TITLE
10
289.600000
20
50.600000
30
0.0
40
1.7000
1
PROCESS
0
TEXT
8
TEXT
10
289.600000
20
45.900000
30
0.0
40
2.5000
1
-
0
TEXT
8
TITLE
10
353.600000
20
50.600000
30
0.0
40
1.7000
1
SCALE
0
TEXT
8
TEXT
10
353.600000
20
45.900000
30
0.0
40
2.5000
1
10:1
0
TEXT
8
TITLE
10
225.600000
20
42.100000
30
0.0
40
1.7000
1
CATEGORY
0
TEXT
8
TEXT
10
225.600000
20
37.400000
30
0.0
40
2.5000
1
-
0
TEXT
8
TITLE
10
257.600000
20
42.100000
30
0.0
40
1.7000
1
GENERAL TOL
0
TEXT
8
TEXT
10
257.600000
20
37.400000
30
0.0
40
2.5000
1
SEE NOTES
0
LINE
8
TITLE
10
256.000000
20
36.000000
30
0.0
11
256.000000
21
44.500000
31
0.0
0
TEXT
8
TITLE
10
289.600000
20
42.100000
30
0.0
40
1.7000
1
FINISH
0
TEXT
8
TEXT
10
289.600000
20
37.400000
30
0.0
40
2.5000
1
AS PRINTED
0
TEXT
8
TITLE
10
353.600000
20
42.100000
30
0.0
40
1.7000
1
SHEET
0
TEXT
8
TEXT
10
353.600000
20
37.400000
30
0.0
40
2.5000
1
A3  1/1
0
TEXT
8
TITLE
10
225.600000
20
33.600000
30
0.0
40
1.7000
1
VOLUME (MEASURED)
0
TEXT
8
TEXT
10
225.600000
20
28.900000
30
0.0
40
2.5000
1
0.30 cm3
0
TEXT
8
TITLE
10
289.600000
20
33.600000
30
0.0
40
1.7000
1
MASS (ASSUMES PLA)
0
TEXT
8
TEXT
10
289.600000
20
28.900000
30
0.0
40
2.5000
1
0.4 g
0
TEXT
8
TITLE
10
353.600000
20
33.600000
30
0.0
40
1.7000
1
UNITS
0
TEXT
8
TEXT
10
353.600000
20
28.900000
30
0.0
40
2.5000
1
mm / deg
0
TEXT
8
TITLE
10
225.600000
20
25.100000
30
0.0
40
1.7000
1
SIZE (BBOX, MEASURED)
0
TEXT
8
TEXT
10
225.600000
20
20.400000
30
0.0
40
2.5000
1
1.96 x 16.00 x 16.00
0
TEXT
8
TITLE
10
289.600000
20
25.100000
30
0.0
40
1.7000
1
DRAWN
0
TEXT
8
TEXT
10
289.600000
20
20.400000
30
0.0
40
2.5000
1
ce-cad  2026-09-02
0
TEXT
8
TITLE
10
353.600000
20
25.100000
30
0.0
40
1.7000
1
PROJECTION
0
TEXT
8
TEXT
10
353.600000
20
20.400000
30
0.0
40
2.5000
1
THIRD ANGLE
0
TEXT
8
TITLE
10
225.600000
20
16.600000
30
0.0
40
1.7000
1
SOURCE (DESIGN FILE)
0
TEXT
8
TEXT
10
225.600000
20
11.400000
30
0.0
40
2.6000
1
ce-parts/microduck-hip-bracket/current/cad/part.py
0
TEXT
8
TEXT
10
12.500000
20
280.500000
30
0.0
40
4.2000
1
microduck-hip-bracket   SCALE 10:1   A3   THIRD ANGLE
0
ENDSEC
0
EOF
