%FSLAX46Y46*%
%MOMM*%
%TF.GenerationSoftware,ce-cad,cecad.pcbfab,1.0*%
%TF.FileFunction,Copper,L2,Bot*%
%TF.FilePolarity,Positive*%
%TF.ProjectId,microduck_robot_hat,,*%
G04 layer B.Cu — ce-cad*
G04 numbers in this file are TRANSCRIBED, not measured; see README.txt*
%LPD*%
G01*
%ADD10R,1.620000X1.620000*%
%ADD11C,1.620000*%
%ADD12C,0.800000*%
%ADD13C,1.800000*%
%ADD14R,1.600000X1.600000*%
%ADD15C,1.600000*%
%ADD16R,1.500000X1.500000*%
%ADD17C,1.500000*%
%ADD18R,1.300000X1.300000*%
%ADD19C,1.300000*%
%ADD20C,0.400000*%
%ADD21C,0.150000*%
%ADD22C,0.300000*%
%ADD23R,0.250000X0.250000*%
D10*
X8370000Y25230000D03*
D11*
X10910000Y25230000D03*
D11*
X13450000Y25230000D03*
D11*
X15990000Y25230000D03*
D11*
X18530000Y25230000D03*
D11*
X21070000Y25230000D03*
D11*
X23610000Y25230000D03*
D11*
X26150000Y25230000D03*
D11*
X28690000Y25230000D03*
D11*
X31230000Y25230000D03*
D11*
X33770000Y25230000D03*
D11*
X36310000Y25230000D03*
D11*
X38850000Y25230000D03*
D11*
X41390000Y25230000D03*
D11*
X43930000Y25230000D03*
D11*
X46470000Y25230000D03*
D11*
X49010000Y25230000D03*
D11*
X51550000Y25230000D03*
D11*
X54090000Y25230000D03*
D11*
X56630000Y25230000D03*
D11*
X8370000Y27770000D03*
D11*
X10910000Y27770000D03*
D11*
X13450000Y27770000D03*
D11*
X15990000Y27770000D03*
D11*
X18530000Y27770000D03*
D11*
X21070000Y27770000D03*
D11*
X23610000Y27770000D03*
D11*
X26150000Y27770000D03*
D11*
X28690000Y27770000D03*
D11*
X31230000Y27770000D03*
D11*
X33770000Y27770000D03*
D11*
X36310000Y27770000D03*
D11*
X38850000Y27770000D03*
D11*
X41390000Y27770000D03*
D11*
X43930000Y27770000D03*
D11*
X46470000Y27770000D03*
D11*
X49010000Y27770000D03*
D11*
X51550000Y27770000D03*
D11*
X54090000Y27770000D03*
D11*
X56630000Y27770000D03*
D12*
X10425000Y14425000D03*
D12*
X10425000Y15575000D03*
D12*
X11575000Y14425000D03*
D12*
X11575000Y15575000D03*
D13*
X41970000Y3120000D03*
D13*
X41970000Y5660000D03*
D13*
X41970000Y8200000D03*
D13*
X41970000Y10740000D03*
D13*
X41970000Y13280000D03*
D13*
X43240000Y15820000D03*
D14*
X8950000Y4200000D03*
D15*
X11450000Y4200000D03*
D16*
X25850000Y3600000D03*
D17*
X28350000Y3600000D03*
D17*
X30850000Y3600000D03*
D18*
X36000000Y3600000D03*
D19*
X38000000Y3600000D03*
D18*
X16650000Y3600000D03*
D19*
X18650000Y3600000D03*
D19*
X20650000Y3600000D03*
D20*
X8370000Y25230000D02*
X8370000Y23300000D01*
X41000000Y23300000D01*
D12*
X8370000Y27770000D02*
X10182338Y28001429D01*
X8370000Y27770000D01*
D12*
X30547013Y10182338D02*
X40729351Y10182338D01*
X41970000Y10740000D01*
D12*
X8370000Y27770000D02*
X6363961Y26728636D01*
X6363961Y21637468D01*
X10182338Y21637468D01*
X26728636Y5091169D01*
X39456558Y5091169D01*
X39456558Y3818377D01*
X40729351Y2545584D01*
X41970000Y3120000D01*
D21*
X7778175Y20506097D02*
X4596194Y17324116D01*
X4596194Y16617009D01*
D21*
X7071068Y16970563D02*
X5656854Y15556349D01*
D21*
X4596194Y16617009D02*
X4596194Y14495689D01*
X7071068Y14495689D01*
D21*
X18650000Y3600000D02*
X18031223Y4596194D01*
X13081475Y9545942D01*
D21*
X20650000Y3600000D02*
X20152543Y4596194D01*
X13081475Y11667262D01*
X12374369Y11667262D01*
D21*
X7071068Y14495689D02*
X8485281Y13081475D01*
X16617009Y13081475D01*
D21*
X10960155Y18738330D02*
X8131728Y15909903D01*
X7778175Y15909903D01*
D21*
X23610000Y25230000D02*
X22627417Y24395184D01*
X22273864Y24041631D01*
X14849242Y24041631D01*
D21*
X9899495Y19798990D02*
X8485281Y18384776D01*
X8485281Y17324116D01*
D21*
X36000000Y3600000D02*
X35001786Y3181981D01*
X34294679Y2474874D01*
X23688077Y2474874D01*
X13788582Y12374369D01*
D21*
X15990000Y27770000D02*
X16970563Y26870058D01*
X17324116Y26516504D01*
X27577164Y26516504D01*
D21*
X18530000Y27770000D02*
X19445436Y28637825D01*
X19798990Y28991378D01*
X30052038Y28991378D01*
X30052038Y24041631D01*
D21*
X37476659Y16617009D02*
X37476659Y11313708D01*
D22*
X5656854Y13576450D02*
X10182338Y9050967D01*
D22*
X31112698Y19798990D02*
X33375440Y22061732D01*
D21*
X11450000Y4200000D02*
X12374369Y4596194D01*
X16263456Y4596194D01*
X16650000Y3600000D01*
D21*
X11450000Y4200000D02*
X12020815Y5303301D01*
X12020815Y9545942D01*
D12*
X38500000Y11650000D03*
D12*
X30627253Y8500000D03*
D12*
X35901575Y8200000D03*
D12*
X35500000Y15877253D03*
D12*
X11727253Y9300000D03*
D12*
X16100000Y12227253D03*
D12*
X8327253Y8400000D03*
D12*
X17227253Y20600000D03*
D12*
X22727253Y20600000D03*
D12*
X30547013Y10182338D03*
D12*
X7778175Y20506097D03*
D12*
X4596194Y16617009D03*
D12*
X7071068Y16970563D03*
D12*
X5656854Y15556349D03*
D12*
X7071068Y14495689D03*
D12*
X13081475Y9545942D03*
D12*
X12374369Y11667262D03*
D12*
X16617009Y13081475D03*
D12*
X10960155Y18738330D03*
D12*
X7778175Y15909903D03*
D12*
X14849242Y24041631D03*
D12*
X9899495Y19798990D03*
D12*
X8485281Y17324116D03*
D12*
X13788582Y12374369D03*
D12*
X27577164Y26516504D03*
D12*
X30052038Y24041631D03*
D12*
X37476659Y16617009D03*
D12*
X37476659Y11313708D03*
D12*
X5656854Y13576450D03*
D12*
X10182338Y9050967D03*
D12*
X31112698Y19798990D03*
D12*
X33375440Y22061732D03*
D12*
X12020815Y9545942D03*
D23*
X3076800Y125000D02*
X61923200Y125000D01*
D23*
X2407500Y375000D02*
X62592500Y375000D01*
D23*
X1962700Y625000D02*
X63037300Y625000D01*
D23*
X1658100Y875000D02*
X63341900Y875000D01*
D23*
X1393200Y1125000D02*
X63606800Y1125000D01*
D23*
X1188000Y1375000D02*
X63812000Y1375000D01*
D23*
X1002700Y1625000D02*
X63997300Y1625000D01*
D23*
X869100Y1875000D02*
X64130900Y1875000D01*
D23*
X735500Y2125000D02*
X40469900Y2125000D01*
D23*
X43220000Y2125000D02*
X64264500Y2125000D01*
D23*
X651400Y2375000D02*
X23106900Y2375000D01*
D23*
X34875900Y2375000D02*
X39759200Y2375000D01*
D23*
X43220000Y2375000D02*
X64348600Y2375000D01*
D23*
X575500Y2625000D02*
X22856900Y2625000D01*
D23*
X35125900Y2625000D02*
X39509200Y2625000D01*
D23*
X43220000Y2625000D02*
X64424500Y2625000D01*
D23*
X511600Y2875000D02*
X17650000Y2875000D01*
D23*
X19650000Y2875000D02*
X19650000Y2875000D01*
D23*
X21650000Y2875000D02*
X22606900Y2875000D01*
D23*
X23969000Y2875000D02*
X27250000Y2875000D01*
D23*
X29450000Y2875000D02*
X29750000Y2875000D01*
D23*
X31950000Y2875000D02*
X34013700Y2875000D01*
D23*
X37000000Y2875000D02*
X37000000Y2875000D01*
D23*
X39000000Y2875000D02*
X39259200Y2875000D01*
D23*
X43220000Y2875000D02*
X64488400Y2875000D01*
D23*
X486900Y3125000D02*
X17650000Y3125000D01*
D23*
X19650000Y3125000D02*
X19650000Y3125000D01*
D23*
X21650000Y3125000D02*
X22356900Y3125000D01*
D23*
X23719000Y3125000D02*
X27250000Y3125000D01*
D23*
X29450000Y3125000D02*
X29750000Y3125000D01*
D23*
X31950000Y3125000D02*
X34263700Y3125000D01*
D23*
X37000000Y3125000D02*
X37000000Y3125000D01*
D23*
X39000000Y3125000D02*
X39009200Y3125000D01*
D23*
X43220000Y3125000D02*
X64513100Y3125000D01*
D23*
X462300Y3375000D02*
X7800000Y3375000D01*
D23*
X10100000Y3375000D02*
X17650000Y3375000D01*
D23*
X19650000Y3375000D02*
X19650000Y3375000D01*
D23*
X21650000Y3375000D02*
X22106900Y3375000D01*
D23*
X23469000Y3375000D02*
X27250000Y3375000D01*
D23*
X29450000Y3375000D02*
X29750000Y3375000D01*
D23*
X31950000Y3375000D02*
X34622800Y3375000D01*
D23*
X37000000Y3375000D02*
X37000000Y3375000D01*
D23*
X43220000Y3375000D02*
X64537700Y3375000D01*
D23*
X450000Y3625000D02*
X7800000Y3625000D01*
D23*
X10100000Y3625000D02*
X17650000Y3625000D01*
D23*
X19650000Y3625000D02*
X19650000Y3625000D01*
D23*
X21650000Y3625000D02*
X21856900Y3625000D01*
D23*
X23219000Y3625000D02*
X27250000Y3625000D01*
D23*
X29450000Y3625000D02*
X29750000Y3625000D01*
D23*
X31950000Y3625000D02*
X34978200Y3625000D01*
D23*
X37000000Y3625000D02*
X37000000Y3625000D01*
D23*
X43220000Y3625000D02*
X64550000Y3625000D01*
D23*
X450000Y3875000D02*
X7800000Y3875000D01*
D23*
X10100000Y3875000D02*
X17650000Y3875000D01*
D23*
X19650000Y3875000D02*
X19650000Y3875000D01*
D23*
X22969000Y3875000D02*
X27250000Y3875000D01*
D23*
X29450000Y3875000D02*
X29750000Y3875000D01*
D23*
X31950000Y3875000D02*
X35000000Y3875000D01*
D23*
X37000000Y3875000D02*
X37000000Y3875000D01*
D23*
X40540600Y3875000D02*
X40720000Y3875000D01*
D23*
X43220000Y3875000D02*
X64550000Y3875000D01*
D23*
X450000Y4125000D02*
X7800000Y4125000D01*
D23*
X10100000Y4125000D02*
X17650000Y4125000D01*
D23*
X19650000Y4125000D02*
X19650000Y4125000D01*
D23*
X22719000Y4125000D02*
X27250000Y4125000D01*
D23*
X29450000Y4125000D02*
X29750000Y4125000D01*
D23*
X31950000Y4125000D02*
X35000000Y4125000D01*
D23*
X37000000Y4125000D02*
X37000000Y4125000D01*
D23*
X40290600Y4125000D02*
X40720000Y4125000D01*
D23*
X43220000Y4125000D02*
X64550000Y4125000D01*
D23*
X450000Y4375000D02*
X7800000Y4375000D01*
D23*
X10100000Y4375000D02*
X17617500Y4375000D01*
D23*
X19650000Y4375000D02*
X19650000Y4375000D01*
D23*
X22469000Y4375000D02*
X27250000Y4375000D01*
D23*
X29450000Y4375000D02*
X29750000Y4375000D01*
D23*
X31950000Y4375000D02*
X35000000Y4375000D01*
D23*
X37000000Y4375000D02*
X37000000Y4375000D01*
D23*
X40206600Y4375000D02*
X64550000Y4375000D01*
D23*
X450000Y4625000D02*
X7800000Y4625000D01*
D23*
X10100000Y4625000D02*
X17321400Y4625000D01*
D23*
X18591400Y4625000D02*
X19442700Y4625000D01*
D23*
X20684300Y4625000D02*
X20856900Y4625000D01*
D23*
X22219000Y4625000D02*
X26378600Y4625000D01*
D23*
X40206600Y4625000D02*
X64550000Y4625000D01*
D23*
X450000Y4875000D02*
X7800000Y4875000D01*
D23*
X10100000Y4875000D02*
X17071400Y4875000D01*
D23*
X18433500Y4875000D02*
X19192700Y4875000D01*
D23*
X20554800Y4875000D02*
X20606900Y4875000D01*
D23*
X21969000Y4875000D02*
X25804100Y4875000D01*
D23*
X40206600Y4875000D02*
X64550000Y4875000D01*
D23*
X450000Y5125000D02*
X7800000Y5125000D01*
D23*
X10100000Y5125000D02*
X16821400Y5125000D01*
D23*
X18183500Y5125000D02*
X18942700Y5125000D01*
D23*
X20304800Y5125000D02*
X20356900Y5125000D01*
D23*
X21719000Y5125000D02*
X25554100Y5125000D01*
D23*
X40206600Y5125000D02*
X64550000Y5125000D01*
D23*
X450000Y5375000D02*
X16571400Y5375000D01*
D23*
X17933500Y5375000D02*
X18692700Y5375000D01*
D23*
X20054800Y5375000D02*
X20106900Y5375000D01*
D23*
X21469000Y5375000D02*
X25304100Y5375000D01*
D23*
X39806600Y5375000D02*
X64550000Y5375000D01*
D23*
X450000Y5625000D02*
X16321400Y5625000D01*
D23*
X17683500Y5625000D02*
X18442700Y5625000D01*
D23*
X19804800Y5625000D02*
X19856900Y5625000D01*
D23*
X21219000Y5625000D02*
X25054100Y5625000D01*
D23*
X27335500Y5625000D02*
X64550000Y5625000D01*
D23*
X450000Y5875000D02*
X16071400Y5875000D01*
D23*
X17433500Y5875000D02*
X18192700Y5875000D01*
D23*
X19554800Y5875000D02*
X19606900Y5875000D01*
D23*
X20969000Y5875000D02*
X24804100Y5875000D01*
D23*
X27085500Y5875000D02*
X64550000Y5875000D01*
D23*
X450000Y6125000D02*
X15821400Y6125000D01*
D23*
X17183500Y6125000D02*
X17942700Y6125000D01*
D23*
X19304800Y6125000D02*
X19356900Y6125000D01*
D23*
X20719000Y6125000D02*
X24554100Y6125000D01*
D23*
X26835500Y6125000D02*
X64550000Y6125000D01*
D23*
X450000Y6375000D02*
X15571400Y6375000D01*
D23*
X16933500Y6375000D02*
X17692700Y6375000D01*
D23*
X19054800Y6375000D02*
X19106900Y6375000D01*
D23*
X20469000Y6375000D02*
X24304100Y6375000D01*
D23*
X26585500Y6375000D02*
X64550000Y6375000D01*
D23*
X450000Y6625000D02*
X15321400Y6625000D01*
D23*
X16683500Y6625000D02*
X17442700Y6625000D01*
D23*
X18804800Y6625000D02*
X18856900Y6625000D01*
D23*
X20219000Y6625000D02*
X24054100Y6625000D01*
D23*
X26335500Y6625000D02*
X64550000Y6625000D01*
D23*
X450000Y6875000D02*
X15071400Y6875000D01*
D23*
X16433500Y6875000D02*
X17192700Y6875000D01*
D23*
X18554800Y6875000D02*
X18606900Y6875000D01*
D23*
X19969000Y6875000D02*
X23804100Y6875000D01*
D23*
X26085500Y6875000D02*
X64550000Y6875000D01*
D23*
X450000Y7125000D02*
X14821400Y7125000D01*
D23*
X16183500Y7125000D02*
X16942700Y7125000D01*
D23*
X18304800Y7125000D02*
X18356900Y7125000D01*
D23*
X19719000Y7125000D02*
X23554100Y7125000D01*
D23*
X25835500Y7125000D02*
X64550000Y7125000D01*
D23*
X450000Y7375000D02*
X14571400Y7375000D01*
D23*
X15933500Y7375000D02*
X16692700Y7375000D01*
D23*
X18054800Y7375000D02*
X18106900Y7375000D01*
D23*
X19469000Y7375000D02*
X23304100Y7375000D01*
D23*
X25585500Y7375000D02*
X64550000Y7375000D01*
D23*
X450000Y7625000D02*
X14321400Y7625000D01*
D23*
X15683500Y7625000D02*
X16442700Y7625000D01*
D23*
X17804800Y7625000D02*
X17856900Y7625000D01*
D23*
X19219000Y7625000D02*
X23054100Y7625000D01*
D23*
X25335500Y7625000D02*
X64550000Y7625000D01*
D23*
X450000Y7875000D02*
X14071400Y7875000D01*
D23*
X15433500Y7875000D02*
X16192700Y7875000D01*
D23*
X17554800Y7875000D02*
X17606900Y7875000D01*
D23*
X18969000Y7875000D02*
X22804100Y7875000D01*
D23*
X25085500Y7875000D02*
X64550000Y7875000D01*
D23*
X450000Y8125000D02*
X13821400Y8125000D01*
D23*
X15183500Y8125000D02*
X15942700Y8125000D01*
D23*
X17304800Y8125000D02*
X17356900Y8125000D01*
D23*
X18719000Y8125000D02*
X22554100Y8125000D01*
D23*
X24835500Y8125000D02*
X64550000Y8125000D01*
D23*
X450000Y8375000D02*
X13571400Y8375000D01*
D23*
X14933500Y8375000D02*
X15692700Y8375000D01*
D23*
X17054800Y8375000D02*
X17106900Y8375000D01*
D23*
X18469000Y8375000D02*
X22304100Y8375000D01*
D23*
X24585500Y8375000D02*
X64550000Y8375000D01*
D23*
X450000Y8625000D02*
X9482600Y8625000D01*
D23*
X10882100Y8625000D02*
X13321400Y8625000D01*
D23*
X14683500Y8625000D02*
X15442700Y8625000D01*
D23*
X16804800Y8625000D02*
X16856900Y8625000D01*
D23*
X18219000Y8625000D02*
X22054100Y8625000D01*
D23*
X24335500Y8625000D02*
X64550000Y8625000D01*
D23*
X450000Y8875000D02*
X9432300Y8875000D01*
D23*
X10932300Y8875000D02*
X13071400Y8875000D01*
D23*
X14433500Y8875000D02*
X15192700Y8875000D01*
D23*
X16554800Y8875000D02*
X16606900Y8875000D01*
D23*
X17969000Y8875000D02*
X21804100Y8875000D01*
D23*
X24085500Y8875000D02*
X64550000Y8875000D01*
D23*
X450000Y9125000D02*
X9321200Y9125000D01*
D23*
X10932300Y9125000D02*
X12379700Y9125000D01*
D23*
X14183500Y9125000D02*
X14942700Y9125000D01*
D23*
X16304800Y9125000D02*
X16356900Y9125000D01*
D23*
X17719000Y9125000D02*
X21554100Y9125000D01*
D23*
X23835500Y9125000D02*
X64550000Y9125000D01*
D23*
X450000Y9375000D02*
X9071200Y9375000D01*
D23*
X10924300Y9375000D02*
X12331500Y9375000D01*
D23*
X13933500Y9375000D02*
X14692700Y9375000D01*
D23*
X16054800Y9375000D02*
X16106900Y9375000D01*
D23*
X17469000Y9375000D02*
X21304100Y9375000D01*
D23*
X23585500Y9375000D02*
X64550000Y9375000D01*
D23*
X450000Y9625000D02*
X8821200Y9625000D01*
D23*
X10395400Y9625000D02*
X12331500Y9625000D01*
D23*
X13831500Y9625000D02*
X14442700Y9625000D01*
D23*
X15804800Y9625000D02*
X15856900Y9625000D01*
D23*
X17219000Y9625000D02*
X21054100Y9625000D01*
D23*
X23335500Y9625000D02*
X64550000Y9625000D01*
D23*
X450000Y9875000D02*
X8571200Y9875000D01*
D23*
X10145400Y9875000D02*
X12341600Y9875000D01*
D23*
X13821300Y9875000D02*
X14192700Y9875000D01*
D23*
X15554800Y9875000D02*
X15606900Y9875000D01*
D23*
X16969000Y9875000D02*
X20804100Y9875000D01*
D23*
X23085500Y9875000D02*
X29798200Y9875000D01*
D23*
X43220000Y9875000D02*
X64550000Y9875000D01*
D23*
X450000Y10125000D02*
X8321200Y10125000D01*
D23*
X9895400Y10125000D02*
X13942700Y10125000D01*
D23*
X15304800Y10125000D02*
X15356900Y10125000D01*
D23*
X16719000Y10125000D02*
X20554100Y10125000D01*
D23*
X22835500Y10125000D02*
X29797000Y10125000D01*
D23*
X43220000Y10125000D02*
X64550000Y10125000D01*
D23*
X450000Y10375000D02*
X8071200Y10375000D01*
D23*
X9645400Y10375000D02*
X13692700Y10375000D01*
D23*
X15054800Y10375000D02*
X15106900Y10375000D01*
D23*
X16469000Y10375000D02*
X20304100Y10375000D01*
D23*
X22585500Y10375000D02*
X29797000Y10375000D01*
D23*
X43220000Y10375000D02*
X64550000Y10375000D01*
D23*
X450000Y10625000D02*
X7821200Y10625000D01*
D23*
X9395400Y10625000D02*
X13442700Y10625000D01*
D23*
X14804800Y10625000D02*
X14856900Y10625000D01*
D23*
X16219000Y10625000D02*
X20054100Y10625000D01*
D23*
X22335500Y10625000D02*
X29854200Y10625000D01*
D23*
X43220000Y10625000D02*
X64550000Y10625000D01*
D23*
X450000Y10875000D02*
X7571200Y10875000D01*
D23*
X9145400Y10875000D02*
X13192700Y10875000D01*
D23*
X14554800Y10875000D02*
X14606900Y10875000D01*
D23*
X15969000Y10875000D02*
X19804100Y10875000D01*
D23*
X22085500Y10875000D02*
X36782200Y10875000D01*
D23*
X38171100Y10875000D02*
X40444100Y10875000D01*
D23*
X43220000Y10875000D02*
X64550000Y10875000D01*
D23*
X450000Y11125000D02*
X7321200Y11125000D01*
D23*
X8895400Y11125000D02*
X12942700Y11125000D01*
D23*
X14304800Y11125000D02*
X14356900Y11125000D01*
D23*
X15719000Y11125000D02*
X19554100Y11125000D01*
D23*
X21835500Y11125000D02*
X36726700Y11125000D01*
D23*
X38226700Y11125000D02*
X40720000Y11125000D01*
D23*
X43220000Y11125000D02*
X64550000Y11125000D01*
D23*
X450000Y11375000D02*
X7071200Y11375000D01*
D23*
X8645400Y11375000D02*
X11624400Y11375000D01*
D23*
X14054800Y11375000D02*
X14106900Y11375000D01*
D23*
X15469000Y11375000D02*
X19304100Y11375000D01*
D23*
X21585500Y11375000D02*
X36726700Y11375000D01*
D23*
X38226700Y11375000D02*
X40720000Y11375000D01*
D23*
X43220000Y11375000D02*
X64550000Y11375000D01*
D23*
X450000Y11625000D02*
X6821200Y11625000D01*
D23*
X8395400Y11625000D02*
X11624400Y11625000D01*
D23*
X13804800Y11625000D02*
X13856900Y11625000D01*
D23*
X15219000Y11625000D02*
X19054100Y11625000D01*
D23*
X21335500Y11625000D02*
X36729400Y11625000D01*
D23*
X38223900Y11625000D02*
X40720000Y11625000D01*
D23*
X43220000Y11625000D02*
X64550000Y11625000D01*
D23*
X450000Y11875000D02*
X6571200Y11875000D01*
D23*
X8145400Y11875000D02*
X11624400Y11875000D01*
D23*
X13124400Y11875000D02*
X13147300Y11875000D01*
D23*
X14969000Y11875000D02*
X18804100Y11875000D01*
D23*
X21085500Y11875000D02*
X37051700Y11875000D01*
D23*
X37901700Y11875000D02*
X64550000Y11875000D01*
D23*
X450000Y12125000D02*
X6321200Y12125000D01*
D23*
X7895400Y12125000D02*
X11691400Y12125000D01*
D23*
X14719000Y12125000D02*
X18554100Y12125000D01*
D23*
X20835500Y12125000D02*
X37051700Y12125000D01*
D23*
X37901700Y12125000D02*
X64550000Y12125000D01*
D23*
X450000Y12375000D02*
X6071200Y12375000D01*
D23*
X7645400Y12375000D02*
X13038600Y12375000D01*
D23*
X14538600Y12375000D02*
X18304100Y12375000D01*
D23*
X20585500Y12375000D02*
X37051700Y12375000D01*
D23*
X37901700Y12375000D02*
X40720000Y12375000D01*
D23*
X43220000Y12375000D02*
X64550000Y12375000D01*
D23*
X450000Y12625000D02*
X5821200Y12625000D01*
D23*
X7395400Y12625000D02*
X13038600Y12625000D01*
D23*
X14538600Y12625000D02*
X15932800Y12625000D01*
D23*
X17301200Y12625000D02*
X18054100Y12625000D01*
D23*
X20335500Y12625000D02*
X37051700Y12625000D01*
D23*
X37901700Y12625000D02*
X40720000Y12625000D01*
D23*
X43220000Y12625000D02*
X64550000Y12625000D01*
D23*
X450000Y12875000D02*
X5571200Y12875000D01*
D23*
X7145400Y12875000D02*
X13148500Y12875000D01*
D23*
X14428600Y12875000D02*
X15867000Y12875000D01*
D23*
X17367000Y12875000D02*
X17804100Y12875000D01*
D23*
X20085500Y12875000D02*
X37051700Y12875000D01*
D23*
X37901700Y12875000D02*
X40720000Y12875000D01*
D23*
X43220000Y12875000D02*
X64550000Y12875000D01*
D23*
X450000Y13125000D02*
X4967700Y13125000D01*
D23*
X6895400Y13125000D02*
X7760700Y13125000D01*
D23*
X17367000Y13125000D02*
X17554100Y13125000D01*
D23*
X19835500Y13125000D02*
X37051700Y13125000D01*
D23*
X37901700Y13125000D02*
X40720000Y13125000D01*
D23*
X43220000Y13125000D02*
X64550000Y13125000D01*
D23*
X450000Y13375000D02*
X4906900Y13375000D01*
D23*
X6645400Y13375000D02*
X7510700Y13375000D01*
D23*
X8872800Y13375000D02*
X15867000Y13375000D01*
D23*
X19585500Y13375000D02*
X37051700Y13375000D01*
D23*
X37901700Y13375000D02*
X40720000Y13375000D01*
D23*
X43220000Y13375000D02*
X64550000Y13375000D01*
D23*
X450000Y13625000D02*
X4906900Y13625000D01*
D23*
X6406900Y13625000D02*
X7260700Y13625000D01*
D23*
X8622800Y13625000D02*
X17054100Y13625000D01*
D23*
X19335500Y13625000D02*
X37051700Y13625000D01*
D23*
X37901700Y13625000D02*
X40720000Y13625000D01*
D23*
X43220000Y13625000D02*
X64550000Y13625000D01*
D23*
X450000Y13875000D02*
X4906900Y13875000D01*
D23*
X6406900Y13875000D02*
X7010700Y13875000D01*
D23*
X8372800Y13875000D02*
X16804100Y13875000D01*
D23*
X19085500Y13875000D02*
X37051700Y13875000D01*
D23*
X37901700Y13875000D02*
X40720000Y13875000D01*
D23*
X43220000Y13875000D02*
X64550000Y13875000D01*
D23*
X450000Y14125000D02*
X6348500Y14125000D01*
D23*
X8122800Y14125000D02*
X16554100Y14125000D01*
D23*
X18835500Y14125000D02*
X37051700Y14125000D01*
D23*
X37901700Y14125000D02*
X40720000Y14125000D01*
D23*
X43220000Y14125000D02*
X64550000Y14125000D01*
D23*
X450000Y14375000D02*
X4171200Y14375000D01*
D23*
X7872800Y14375000D02*
X16304100Y14375000D01*
D23*
X18585500Y14375000D02*
X37051700Y14375000D01*
D23*
X37901700Y14375000D02*
X64550000Y14375000D01*
D23*
X450000Y14625000D02*
X4171200Y14625000D01*
D23*
X7821100Y14625000D02*
X16054100Y14625000D01*
D23*
X18335500Y14625000D02*
X37051700Y14625000D01*
D23*
X37901700Y14625000D02*
X64550000Y14625000D01*
D23*
X450000Y14875000D02*
X4171200Y14875000D01*
D23*
X5021200Y14875000D02*
X6352000Y14875000D01*
D23*
X7790100Y14875000D02*
X15804100Y14875000D01*
D23*
X18085500Y14875000D02*
X37051700Y14875000D01*
D23*
X37901700Y14875000D02*
X41990000Y14875000D01*
D23*
X44490000Y14875000D02*
X64550000Y14875000D01*
D23*
X450000Y15125000D02*
X4171200Y15125000D01*
D23*
X6354300Y15125000D02*
X15554100Y15125000D01*
D23*
X17835500Y15125000D02*
X37051700Y15125000D01*
D23*
X37901700Y15125000D02*
X41990000Y15125000D01*
D23*
X44490000Y15125000D02*
X64550000Y15125000D01*
D23*
X450000Y15375000D02*
X4171200Y15375000D01*
D23*
X6406900Y15375000D02*
X15304100Y15375000D01*
D23*
X17585500Y15375000D02*
X37051700Y15375000D01*
D23*
X37901700Y15375000D02*
X41990000Y15375000D01*
D23*
X44490000Y15375000D02*
X64550000Y15375000D01*
D23*
X450000Y15625000D02*
X4171200Y15625000D01*
D23*
X6406900Y15625000D02*
X7028200Y15625000D01*
D23*
X8528200Y15625000D02*
X15054100Y15625000D01*
D23*
X17335500Y15625000D02*
X37051700Y15625000D01*
D23*
X37901700Y15625000D02*
X41990000Y15625000D01*
D23*
X44490000Y15625000D02*
X64550000Y15625000D01*
D23*
X450000Y15875000D02*
X4171200Y15875000D01*
D23*
X6656600Y15875000D02*
X7028200Y15875000D01*
D23*
X8777900Y15875000D02*
X14804100Y15875000D01*
D23*
X17085500Y15875000D02*
X37051700Y15875000D01*
D23*
X37901700Y15875000D02*
X41990000Y15875000D01*
D23*
X44490000Y15875000D02*
X64550000Y15875000D01*
D23*
X450000Y16125000D02*
X3947500Y16125000D01*
D23*
X5244900Y16125000D02*
X5544400Y16125000D01*
D23*
X6906600Y16125000D02*
X7028200Y16125000D01*
D23*
X9027900Y16125000D02*
X14554100Y16125000D01*
D23*
X16835500Y16125000D02*
X36828000Y16125000D01*
D23*
X38125300Y16125000D02*
X41990000Y16125000D01*
D23*
X44490000Y16125000D02*
X64550000Y16125000D01*
D23*
X450000Y16375000D02*
X3846200Y16375000D01*
D23*
X5346200Y16375000D02*
X5794400Y16375000D01*
D23*
X9277900Y16375000D02*
X14304100Y16375000D01*
D23*
X16585500Y16375000D02*
X36726700Y16375000D01*
D23*
X38226700Y16375000D02*
X41990000Y16375000D01*
D23*
X44490000Y16375000D02*
X64550000Y16375000D01*
D23*
X450000Y16625000D02*
X3846200Y16625000D01*
D23*
X5346200Y16625000D02*
X6044400Y16625000D01*
D23*
X7804100Y16625000D02*
X8165800Y16625000D01*
D23*
X9527900Y16625000D02*
X14054100Y16625000D01*
D23*
X16335500Y16625000D02*
X36726700Y16625000D01*
D23*
X38226700Y16625000D02*
X41990000Y16625000D01*
D23*
X44490000Y16625000D02*
X64550000Y16625000D01*
D23*
X450000Y16875000D02*
X3846200Y16875000D01*
D23*
X5346200Y16875000D02*
X6294400Y16875000D01*
D23*
X9777900Y16875000D02*
X13804100Y16875000D01*
D23*
X16085500Y16875000D02*
X36726700Y16875000D01*
D23*
X38226700Y16875000D02*
X64550000Y16875000D01*
D23*
X450000Y17125000D02*
X3963500Y17125000D01*
D23*
X5228900Y17125000D02*
X6321100Y17125000D01*
D23*
X10027900Y17125000D02*
X13554100Y17125000D01*
D23*
X15835500Y17125000D02*
X36844000Y17125000D01*
D23*
X38109400Y17125000D02*
X64550000Y17125000D01*
D23*
X450000Y17375000D02*
X4171200Y17375000D01*
D23*
X5328100Y17375000D02*
X6362400Y17375000D01*
D23*
X10277900Y17375000D02*
X13304100Y17375000D01*
D23*
X15585500Y17375000D02*
X64550000Y17375000D01*
D23*
X450000Y17625000D02*
X4216000Y17625000D01*
D23*
X5578100Y17625000D02*
X7735300Y17625000D01*
D23*
X10527900Y17625000D02*
X13054100Y17625000D01*
D23*
X15335500Y17625000D02*
X64550000Y17625000D01*
D23*
X450000Y17875000D02*
X4466000Y17875000D01*
D23*
X5828100Y17875000D02*
X8060300Y17875000D01*
D23*
X8910300Y17875000D02*
X9415800Y17875000D01*
D23*
X10777900Y17875000D02*
X12804100Y17875000D01*
D23*
X15085500Y17875000D02*
X64550000Y17875000D01*
D23*
X450000Y18125000D02*
X4716000Y18125000D01*
D23*
X6078100Y18125000D02*
X8060300Y18125000D01*
D23*
X8910300Y18125000D02*
X9665800Y18125000D01*
D23*
X11027900Y18125000D02*
X12554100Y18125000D01*
D23*
X14835500Y18125000D02*
X64550000Y18125000D01*
D23*
X450000Y18375000D02*
X4966000Y18375000D01*
D23*
X6328100Y18375000D02*
X8060300Y18375000D01*
D23*
X9156600Y18375000D02*
X9915800Y18375000D01*
D23*
X11685800Y18375000D02*
X12304100Y18375000D01*
D23*
X14585500Y18375000D02*
X64550000Y18375000D01*
D23*
X450000Y18625000D02*
X5216000Y18625000D01*
D23*
X6578100Y18625000D02*
X8082200Y18625000D01*
D23*
X9406600Y18625000D02*
X10165800Y18625000D01*
D23*
X11710200Y18625000D02*
X12054100Y18625000D01*
D23*
X14335500Y18625000D02*
X64550000Y18625000D01*
D23*
X450000Y18875000D02*
X5466000Y18875000D01*
D23*
X6828100Y18875000D02*
X8294400Y18875000D01*
D23*
X9656600Y18875000D02*
X10210200Y18875000D01*
D23*
X11710200Y18875000D02*
X11804100Y18875000D01*
D23*
X14085500Y18875000D02*
X64550000Y18875000D01*
D23*
X450000Y19125000D02*
X5716000Y19125000D01*
D23*
X7078100Y19125000D02*
X8544400Y19125000D01*
D23*
X9906600Y19125000D02*
X10244200Y19125000D01*
D23*
X13835500Y19125000D02*
X64550000Y19125000D01*
D23*
X450000Y19375000D02*
X5966000Y19375000D01*
D23*
X7328100Y19375000D02*
X8794400Y19375000D01*
D23*
X10600000Y19375000D02*
X11304100Y19375000D01*
D23*
X13585500Y19375000D02*
X30412200Y19375000D01*
D23*
X31813200Y19375000D02*
X64550000Y19375000D01*
D23*
X450000Y19625000D02*
X6216000Y19625000D01*
D23*
X7578100Y19625000D02*
X9044400Y19625000D01*
D23*
X10649500Y19625000D02*
X11054100Y19625000D01*
D23*
X13335500Y19625000D02*
X30362700Y19625000D01*
D23*
X31862700Y19625000D02*
X64550000Y19625000D01*
D23*
X450000Y19875000D02*
X6466000Y19875000D01*
D23*
X7828100Y19875000D02*
X9149500Y19875000D01*
D23*
X10649500Y19875000D02*
X10804100Y19875000D01*
D23*
X13085500Y19875000D02*
X30362700Y19875000D01*
D23*
X31975800Y19875000D02*
X64550000Y19875000D01*
D23*
X450000Y20125000D02*
X6716000Y20125000D01*
D23*
X8496500Y20125000D02*
X9158400Y20125000D01*
D23*
X12835500Y20125000D02*
X30371600Y20125000D01*
D23*
X32225800Y20125000D02*
X64550000Y20125000D01*
D23*
X450000Y20375000D02*
X6966000Y20375000D01*
D23*
X8528200Y20375000D02*
X10304100Y20375000D01*
D23*
X12585500Y20375000D02*
X30901600Y20375000D01*
D23*
X32475800Y20375000D02*
X64550000Y20375000D01*
D23*
X450000Y20625000D02*
X7028200Y20625000D01*
D23*
X8528200Y20625000D02*
X10054100Y20625000D01*
D23*
X12335500Y20625000D02*
X31151600Y20625000D01*
D23*
X32725800Y20625000D02*
X64550000Y20625000D01*
D23*
X450000Y20875000D02*
X7054800Y20875000D01*
D23*
X8501500Y20875000D02*
X9804100Y20875000D01*
D23*
X12085500Y20875000D02*
X31401600Y20875000D01*
D23*
X32975800Y20875000D02*
X64550000Y20875000D01*
D23*
X450000Y21125000D02*
X6014000Y21125000D01*
D23*
X11835500Y21125000D02*
X31651600Y21125000D01*
D23*
X33225800Y21125000D02*
X64550000Y21125000D01*
D23*
X450000Y21375000D02*
X6014000Y21375000D01*
D23*
X11585500Y21375000D02*
X31901600Y21375000D01*
D23*
X33475800Y21375000D02*
X64550000Y21375000D01*
D23*
X450000Y21625000D02*
X5614000Y21625000D01*
D23*
X11335500Y21625000D02*
X32151600Y21625000D01*
D23*
X34070700Y21625000D02*
X64550000Y21625000D01*
D23*
X450000Y21875000D02*
X5614000Y21875000D01*
D23*
X11085500Y21875000D02*
X32401600Y21875000D01*
D23*
X34125400Y21875000D02*
X64550000Y21875000D01*
D23*
X450000Y22125000D02*
X5614000Y22125000D01*
D23*
X10532300Y22125000D02*
X32625400Y22125000D01*
D23*
X34125400Y22125000D02*
X64550000Y22125000D01*
D23*
X450000Y22375000D02*
X5614000Y22375000D01*
D23*
X7114000Y22375000D02*
X32629000Y22375000D01*
D23*
X34121800Y22375000D02*
X64550000Y22375000D01*
D23*
X450000Y22625000D02*
X5614000Y22625000D01*
D23*
X7114000Y22625000D02*
X64550000Y22625000D01*
D23*
X450000Y22875000D02*
X5614000Y22875000D01*
D23*
X7114000Y22875000D02*
X64550000Y22875000D01*
D23*
X450000Y23125000D02*
X5614000Y23125000D01*
D23*
X7114000Y23125000D02*
X8020000Y23125000D01*
D23*
X41350000Y23125000D02*
X64550000Y23125000D01*
D23*
X450000Y23375000D02*
X5614000Y23375000D01*
D23*
X7114000Y23375000D02*
X7820000Y23375000D01*
D23*
X41350000Y23375000D02*
X64550000Y23375000D01*
D23*
X450000Y23625000D02*
X5614000Y23625000D01*
D23*
X7114000Y23625000D02*
X7820000Y23625000D01*
D23*
X41350000Y23625000D02*
X64550000Y23625000D01*
D23*
X450000Y23875000D02*
X5614000Y23875000D01*
D23*
X7114000Y23875000D02*
X7820000Y23875000D01*
D23*
X8920000Y23875000D02*
X14099200Y23875000D01*
D23*
X22788300Y23875000D02*
X29302000Y23875000D01*
D23*
X30802000Y23875000D02*
X64550000Y23875000D01*
D23*
X450000Y24125000D02*
X5614000Y24125000D01*
D23*
X7114000Y24125000D02*
X7820000Y24125000D01*
D23*
X8920000Y24125000D02*
X14099200Y24125000D01*
D23*
X23030500Y24125000D02*
X29302000Y24125000D01*
D23*
X30802000Y24125000D02*
X64550000Y24125000D01*
D23*
X450000Y24375000D02*
X5614000Y24375000D01*
D23*
X7114000Y24375000D02*
X7210000Y24375000D01*
D23*
X9530000Y24375000D02*
X9750000Y24375000D01*
D23*
X12070000Y24375000D02*
X12290000Y24375000D01*
D23*
X17150000Y24375000D02*
X19910000Y24375000D01*
D23*
X24770000Y24375000D02*
X24990000Y24375000D01*
D23*
X27310000Y24375000D02*
X27530000Y24375000D01*
D23*
X32390000Y24375000D02*
X32610000Y24375000D01*
D23*
X34930000Y24375000D02*
X35150000Y24375000D01*
D23*
X37470000Y24375000D02*
X40230000Y24375000D01*
D23*
X42550000Y24375000D02*
X42770000Y24375000D01*
D23*
X45090000Y24375000D02*
X45310000Y24375000D01*
D23*
X47630000Y24375000D02*
X47850000Y24375000D01*
D23*
X50170000Y24375000D02*
X50390000Y24375000D01*
D23*
X52710000Y24375000D02*
X52930000Y24375000D01*
D23*
X55250000Y24375000D02*
X64550000Y24375000D01*
D23*
X450000Y24625000D02*
X5614000Y24625000D01*
D23*
X7114000Y24625000D02*
X7210000Y24625000D01*
D23*
X9530000Y24625000D02*
X9750000Y24625000D01*
D23*
X12070000Y24625000D02*
X12290000Y24625000D01*
D23*
X14610000Y24625000D02*
X14830000Y24625000D01*
D23*
X17150000Y24625000D02*
X19910000Y24625000D01*
D23*
X24770000Y24625000D02*
X24990000Y24625000D01*
D23*
X27310000Y24625000D02*
X27530000Y24625000D01*
D23*
X32390000Y24625000D02*
X32610000Y24625000D01*
D23*
X34930000Y24625000D02*
X35150000Y24625000D01*
D23*
X37470000Y24625000D02*
X40230000Y24625000D01*
D23*
X42550000Y24625000D02*
X42770000Y24625000D01*
D23*
X45090000Y24625000D02*
X45310000Y24625000D01*
D23*
X47630000Y24625000D02*
X47850000Y24625000D01*
D23*
X50170000Y24625000D02*
X50390000Y24625000D01*
D23*
X52710000Y24625000D02*
X52930000Y24625000D01*
D23*
X55250000Y24625000D02*
X64550000Y24625000D01*
D23*
X450000Y24875000D02*
X5614000Y24875000D01*
D23*
X7114000Y24875000D02*
X7210000Y24875000D01*
D23*
X9530000Y24875000D02*
X9750000Y24875000D01*
D23*
X12070000Y24875000D02*
X12290000Y24875000D01*
D23*
X14610000Y24875000D02*
X14830000Y24875000D01*
D23*
X17150000Y24875000D02*
X19910000Y24875000D01*
D23*
X22230000Y24875000D02*
X22450000Y24875000D01*
D23*
X24770000Y24875000D02*
X24990000Y24875000D01*
D23*
X27310000Y24875000D02*
X27530000Y24875000D01*
D23*
X32390000Y24875000D02*
X32610000Y24875000D01*
D23*
X34930000Y24875000D02*
X35150000Y24875000D01*
D23*
X37470000Y24875000D02*
X40230000Y24875000D01*
D23*
X42550000Y24875000D02*
X42770000Y24875000D01*
D23*
X45090000Y24875000D02*
X45310000Y24875000D01*
D23*
X47630000Y24875000D02*
X47850000Y24875000D01*
D23*
X50170000Y24875000D02*
X50390000Y24875000D01*
D23*
X52710000Y24875000D02*
X52930000Y24875000D01*
D23*
X55250000Y24875000D02*
X64550000Y24875000D01*
D23*
X450000Y25125000D02*
X5614000Y25125000D01*
D23*
X7114000Y25125000D02*
X7210000Y25125000D01*
D23*
X9530000Y25125000D02*
X9750000Y25125000D01*
D23*
X12070000Y25125000D02*
X12290000Y25125000D01*
D23*
X14610000Y25125000D02*
X14830000Y25125000D01*
D23*
X17150000Y25125000D02*
X19910000Y25125000D01*
D23*
X22230000Y25125000D02*
X22450000Y25125000D01*
D23*
X24770000Y25125000D02*
X24990000Y25125000D01*
D23*
X27310000Y25125000D02*
X27530000Y25125000D01*
D23*
X32390000Y25125000D02*
X32610000Y25125000D01*
D23*
X34930000Y25125000D02*
X35150000Y25125000D01*
D23*
X37470000Y25125000D02*
X40230000Y25125000D01*
D23*
X42550000Y25125000D02*
X42770000Y25125000D01*
D23*
X45090000Y25125000D02*
X45310000Y25125000D01*
D23*
X47630000Y25125000D02*
X47850000Y25125000D01*
D23*
X50170000Y25125000D02*
X50390000Y25125000D01*
D23*
X52710000Y25125000D02*
X52930000Y25125000D01*
D23*
X55250000Y25125000D02*
X64550000Y25125000D01*
D23*
X450000Y25375000D02*
X5614000Y25375000D01*
D23*
X7114000Y25375000D02*
X7210000Y25375000D01*
D23*
X9530000Y25375000D02*
X9750000Y25375000D01*
D23*
X12070000Y25375000D02*
X12290000Y25375000D01*
D23*
X14610000Y25375000D02*
X14830000Y25375000D01*
D23*
X17150000Y25375000D02*
X19910000Y25375000D01*
D23*
X22230000Y25375000D02*
X22450000Y25375000D01*
D23*
X24770000Y25375000D02*
X24990000Y25375000D01*
D23*
X27310000Y25375000D02*
X27530000Y25375000D01*
D23*
X32390000Y25375000D02*
X32610000Y25375000D01*
D23*
X34930000Y25375000D02*
X35150000Y25375000D01*
D23*
X37470000Y25375000D02*
X40230000Y25375000D01*
D23*
X42550000Y25375000D02*
X42770000Y25375000D01*
D23*
X45090000Y25375000D02*
X45310000Y25375000D01*
D23*
X47630000Y25375000D02*
X47850000Y25375000D01*
D23*
X50170000Y25375000D02*
X50390000Y25375000D01*
D23*
X52710000Y25375000D02*
X52930000Y25375000D01*
D23*
X55250000Y25375000D02*
X64550000Y25375000D01*
D23*
X450000Y25625000D02*
X5614000Y25625000D01*
D23*
X7114000Y25625000D02*
X7210000Y25625000D01*
D23*
X9530000Y25625000D02*
X9750000Y25625000D01*
D23*
X12070000Y25625000D02*
X12290000Y25625000D01*
D23*
X14610000Y25625000D02*
X14830000Y25625000D01*
D23*
X17150000Y25625000D02*
X19910000Y25625000D01*
D23*
X22230000Y25625000D02*
X22450000Y25625000D01*
D23*
X24770000Y25625000D02*
X24990000Y25625000D01*
D23*
X27310000Y25625000D02*
X27530000Y25625000D01*
D23*
X32390000Y25625000D02*
X32610000Y25625000D01*
D23*
X34930000Y25625000D02*
X35150000Y25625000D01*
D23*
X37470000Y25625000D02*
X40230000Y25625000D01*
D23*
X42550000Y25625000D02*
X42770000Y25625000D01*
D23*
X45090000Y25625000D02*
X45310000Y25625000D01*
D23*
X47630000Y25625000D02*
X47850000Y25625000D01*
D23*
X50170000Y25625000D02*
X50390000Y25625000D01*
D23*
X52710000Y25625000D02*
X52930000Y25625000D01*
D23*
X55250000Y25625000D02*
X64550000Y25625000D01*
D23*
X450000Y25875000D02*
X5614000Y25875000D01*
D23*
X7114000Y25875000D02*
X7210000Y25875000D01*
D23*
X9530000Y25875000D02*
X9750000Y25875000D01*
D23*
X12070000Y25875000D02*
X12290000Y25875000D01*
D23*
X14610000Y25875000D02*
X14830000Y25875000D01*
D23*
X17150000Y25875000D02*
X19910000Y25875000D01*
D23*
X22230000Y25875000D02*
X22450000Y25875000D01*
D23*
X24770000Y25875000D02*
X24990000Y25875000D01*
D23*
X27310000Y25875000D02*
X27530000Y25875000D01*
D23*
X32390000Y25875000D02*
X32610000Y25875000D01*
D23*
X34930000Y25875000D02*
X35150000Y25875000D01*
D23*
X37470000Y25875000D02*
X40230000Y25875000D01*
D23*
X42550000Y25875000D02*
X42770000Y25875000D01*
D23*
X45090000Y25875000D02*
X45310000Y25875000D01*
D23*
X47630000Y25875000D02*
X47850000Y25875000D01*
D23*
X50170000Y25875000D02*
X50390000Y25875000D01*
D23*
X52710000Y25875000D02*
X52930000Y25875000D01*
D23*
X55250000Y25875000D02*
X64550000Y25875000D01*
D23*
X450000Y26125000D02*
X5614000Y26125000D01*
D23*
X7114000Y26125000D02*
X7210000Y26125000D01*
D23*
X9530000Y26125000D02*
X9750000Y26125000D01*
D23*
X12070000Y26125000D02*
X12290000Y26125000D01*
D23*
X14610000Y26125000D02*
X14830000Y26125000D01*
D23*
X17150000Y26125000D02*
X19910000Y26125000D01*
D23*
X22230000Y26125000D02*
X22450000Y26125000D01*
D23*
X24770000Y26125000D02*
X24990000Y26125000D01*
D23*
X32390000Y26125000D02*
X32610000Y26125000D01*
D23*
X34930000Y26125000D02*
X35150000Y26125000D01*
D23*
X37470000Y26125000D02*
X40230000Y26125000D01*
D23*
X42550000Y26125000D02*
X42770000Y26125000D01*
D23*
X45090000Y26125000D02*
X45310000Y26125000D01*
D23*
X47630000Y26125000D02*
X47850000Y26125000D01*
D23*
X50170000Y26125000D02*
X50390000Y26125000D01*
D23*
X52710000Y26125000D02*
X52930000Y26125000D01*
D23*
X55250000Y26125000D02*
X64550000Y26125000D01*
D23*
X450000Y26375000D02*
X5614000Y26375000D01*
D23*
X7334300Y26375000D02*
X16784600Y26375000D01*
D23*
X28327200Y26375000D02*
X29627000Y26375000D01*
D23*
X30477000Y26375000D02*
X64550000Y26375000D01*
D23*
X462300Y26625000D02*
X5614000Y26625000D01*
D23*
X7815900Y26625000D02*
X16567500Y26625000D01*
D23*
X28327200Y26625000D02*
X29627000Y26625000D01*
D23*
X30477000Y26625000D02*
X64537700Y26625000D01*
D23*
X486900Y26875000D02*
X5829700Y26875000D01*
D23*
X9530000Y26875000D02*
X9750000Y26875000D01*
D23*
X12070000Y26875000D02*
X14830000Y26875000D01*
D23*
X19690000Y26875000D02*
X19910000Y26875000D01*
D23*
X22230000Y26875000D02*
X24990000Y26875000D01*
D23*
X30477000Y26875000D02*
X32610000Y26875000D01*
D23*
X34930000Y26875000D02*
X35150000Y26875000D01*
D23*
X37470000Y26875000D02*
X37690000Y26875000D01*
D23*
X40010000Y26875000D02*
X40230000Y26875000D01*
D23*
X42550000Y26875000D02*
X45310000Y26875000D01*
D23*
X47630000Y26875000D02*
X50390000Y26875000D01*
D23*
X52710000Y26875000D02*
X52930000Y26875000D01*
D23*
X55250000Y26875000D02*
X55470000Y26875000D01*
D23*
X57790000Y26875000D02*
X64513100Y26875000D01*
D23*
X511600Y27125000D02*
X5829700Y27125000D01*
D23*
X9530000Y27125000D02*
X9750000Y27125000D01*
D23*
X12070000Y27125000D02*
X14830000Y27125000D01*
D23*
X19690000Y27125000D02*
X19910000Y27125000D01*
D23*
X22230000Y27125000D02*
X24990000Y27125000D01*
D23*
X27310000Y27125000D02*
X27530000Y27125000D01*
D23*
X30477000Y27125000D02*
X32610000Y27125000D01*
D23*
X34930000Y27125000D02*
X35150000Y27125000D01*
D23*
X37470000Y27125000D02*
X37690000Y27125000D01*
D23*
X40010000Y27125000D02*
X40230000Y27125000D01*
D23*
X42550000Y27125000D02*
X45310000Y27125000D01*
D23*
X47630000Y27125000D02*
X50390000Y27125000D01*
D23*
X52710000Y27125000D02*
X52930000Y27125000D01*
D23*
X55250000Y27125000D02*
X55470000Y27125000D01*
D23*
X57790000Y27125000D02*
X64488400Y27125000D01*
D23*
X575500Y27375000D02*
X5957500Y27375000D01*
D23*
X12070000Y27375000D02*
X14830000Y27375000D01*
D23*
X17150000Y27375000D02*
X17370000Y27375000D01*
D23*
X19690000Y27375000D02*
X19910000Y27375000D01*
D23*
X22230000Y27375000D02*
X24990000Y27375000D01*
D23*
X27310000Y27375000D02*
X27530000Y27375000D01*
D23*
X30477000Y27375000D02*
X32610000Y27375000D01*
D23*
X34930000Y27375000D02*
X35150000Y27375000D01*
D23*
X37470000Y27375000D02*
X37690000Y27375000D01*
D23*
X40010000Y27375000D02*
X40230000Y27375000D01*
D23*
X42550000Y27375000D02*
X45310000Y27375000D01*
D23*
X47630000Y27375000D02*
X50390000Y27375000D01*
D23*
X52710000Y27375000D02*
X52930000Y27375000D01*
D23*
X55250000Y27375000D02*
X55470000Y27375000D01*
D23*
X57790000Y27375000D02*
X64424500Y27375000D01*
D23*
X651400Y27625000D02*
X6439100Y27625000D01*
D23*
X12070000Y27625000D02*
X14830000Y27625000D01*
D23*
X17150000Y27625000D02*
X17370000Y27625000D01*
D23*
X19690000Y27625000D02*
X19910000Y27625000D01*
D23*
X22230000Y27625000D02*
X24990000Y27625000D01*
D23*
X27310000Y27625000D02*
X27530000Y27625000D01*
D23*
X30477000Y27625000D02*
X32610000Y27625000D01*
D23*
X34930000Y27625000D02*
X35150000Y27625000D01*
D23*
X37470000Y27625000D02*
X37690000Y27625000D01*
D23*
X40010000Y27625000D02*
X40230000Y27625000D01*
D23*
X42550000Y27625000D02*
X45310000Y27625000D01*
D23*
X47630000Y27625000D02*
X50390000Y27625000D01*
D23*
X52710000Y27625000D02*
X52930000Y27625000D01*
D23*
X55250000Y27625000D02*
X55470000Y27625000D01*
D23*
X57790000Y27625000D02*
X64348600Y27625000D01*
D23*
X735500Y27875000D02*
X6920700Y27875000D01*
D23*
X12070000Y27875000D02*
X14830000Y27875000D01*
D23*
X17150000Y27875000D02*
X17370000Y27875000D01*
D23*
X19690000Y27875000D02*
X19910000Y27875000D01*
D23*
X22230000Y27875000D02*
X24990000Y27875000D01*
D23*
X27310000Y27875000D02*
X27530000Y27875000D01*
D23*
X30477000Y27875000D02*
X32610000Y27875000D01*
D23*
X34930000Y27875000D02*
X35150000Y27875000D01*
D23*
X37470000Y27875000D02*
X37690000Y27875000D01*
D23*
X40010000Y27875000D02*
X40230000Y27875000D01*
D23*
X42550000Y27875000D02*
X45310000Y27875000D01*
D23*
X47630000Y27875000D02*
X50390000Y27875000D01*
D23*
X52710000Y27875000D02*
X52930000Y27875000D01*
D23*
X55250000Y27875000D02*
X55470000Y27875000D01*
D23*
X57790000Y27875000D02*
X64264500Y27875000D01*
D23*
X869100Y28125000D02*
X7210000Y28125000D01*
D23*
X12070000Y28125000D02*
X14830000Y28125000D01*
D23*
X17150000Y28125000D02*
X17370000Y28125000D01*
D23*
X19690000Y28125000D02*
X19910000Y28125000D01*
D23*
X22230000Y28125000D02*
X24990000Y28125000D01*
D23*
X27310000Y28125000D02*
X27530000Y28125000D01*
D23*
X30477000Y28125000D02*
X32610000Y28125000D01*
D23*
X34930000Y28125000D02*
X35150000Y28125000D01*
D23*
X37470000Y28125000D02*
X37690000Y28125000D01*
D23*
X40010000Y28125000D02*
X40230000Y28125000D01*
D23*
X42550000Y28125000D02*
X45310000Y28125000D01*
D23*
X47630000Y28125000D02*
X50390000Y28125000D01*
D23*
X52710000Y28125000D02*
X52930000Y28125000D01*
D23*
X55250000Y28125000D02*
X55470000Y28125000D01*
D23*
X57790000Y28125000D02*
X64130900Y28125000D01*
D23*
X1002700Y28375000D02*
X7210000Y28375000D01*
D23*
X12070000Y28375000D02*
X14830000Y28375000D01*
D23*
X17150000Y28375000D02*
X17370000Y28375000D01*
D23*
X19847000Y28375000D02*
X19910000Y28375000D01*
D23*
X22230000Y28375000D02*
X24990000Y28375000D01*
D23*
X27310000Y28375000D02*
X27530000Y28375000D01*
D23*
X30477000Y28375000D02*
X32610000Y28375000D01*
D23*
X34930000Y28375000D02*
X35150000Y28375000D01*
D23*
X37470000Y28375000D02*
X37690000Y28375000D01*
D23*
X40010000Y28375000D02*
X40230000Y28375000D01*
D23*
X42550000Y28375000D02*
X45310000Y28375000D01*
D23*
X47630000Y28375000D02*
X50390000Y28375000D01*
D23*
X52710000Y28375000D02*
X52930000Y28375000D01*
D23*
X55250000Y28375000D02*
X55470000Y28375000D01*
D23*
X57790000Y28375000D02*
X63997300Y28375000D01*
D23*
X1188000Y28625000D02*
X7210000Y28625000D01*
D23*
X9530000Y28625000D02*
X9750000Y28625000D01*
D23*
X12070000Y28625000D02*
X14830000Y28625000D01*
D23*
X17150000Y28625000D02*
X17370000Y28625000D01*
D23*
X22230000Y28625000D02*
X24990000Y28625000D01*
D23*
X27310000Y28625000D02*
X27530000Y28625000D01*
D23*
X30477000Y28625000D02*
X32610000Y28625000D01*
D23*
X34930000Y28625000D02*
X35150000Y28625000D01*
D23*
X37470000Y28625000D02*
X37690000Y28625000D01*
D23*
X40010000Y28625000D02*
X40230000Y28625000D01*
D23*
X42550000Y28625000D02*
X45310000Y28625000D01*
D23*
X47630000Y28625000D02*
X50390000Y28625000D01*
D23*
X52710000Y28625000D02*
X52930000Y28625000D01*
D23*
X55250000Y28625000D02*
X55470000Y28625000D01*
D23*
X57790000Y28625000D02*
X63812000Y28625000D01*
D23*
X1393200Y28875000D02*
X19042400Y28875000D01*
D23*
X30477000Y28875000D02*
X63606800Y28875000D01*
D23*
X1658100Y29125000D02*
X19251500Y29125000D01*
D23*
X30402000Y29125000D02*
X63341900Y29125000D01*
D23*
X1962700Y29375000D02*
X63037300Y29375000D01*
D23*
X2407500Y29625000D02*
X62592500Y29625000D01*
D23*
X3076800Y29875000D02*
X61923200Y29875000D01*
M02*
