M48
;DRILL file {ce-cad} — microduck_robot_hat
;FORMAT={-:-/ absolute / metric / decimal}
;TYPE=PLATED
FMAT,2
METRIC
T1C0.300
T2C0.700
T3C0.900
T4C1.000
T5C1.020
%
G90
G05
T1
X10.425Y14.425
X10.425Y15.575
X11.575Y14.425
X11.575Y15.575
X29.557Y10.889
X11.667Y10.253
X4.596Y16.617
X7.778Y13.789
X8.839Y12.374
X16.617Y12.374
X13.081Y11.667
X18.738Y14.142
X25.102Y20.506
X19.092Y13.081
X8.132Y17.324
X21.920Y15.910
X20.506Y17.324
X14.142Y14.496
X24.749Y26.517
X36.770Y12.374
X3.536Y14.849
X10.253Y23.335
X35.709Y12.021
X16.617Y22.274
X23.335Y16.617
X18.385Y21.567
X7.778Y15.556
X16.971Y4.950
X12.021Y11.667
X9.546Y26.517
X6.364Y19.445
X12.374Y22.274
X7.071Y17.678
T2
X36.700Y3.600
X38.700Y3.600
X17.000Y3.600
X19.000Y3.600
X21.000Y3.600
T3
X26.300Y3.600
X28.800Y3.600
X31.300Y3.600
T4
X8.950Y4.200
X11.450Y4.200
T5
X8.370Y25.230
X10.910Y25.230
X13.450Y25.230
X15.990Y25.230
X18.530Y25.230
X21.070Y25.230
X23.610Y25.230
X26.150Y25.230
X28.690Y25.230
X31.230Y25.230
X33.770Y25.230
X36.310Y25.230
X38.850Y25.230
X41.390Y25.230
X43.930Y25.230
X46.470Y25.230
X49.010Y25.230
X51.550Y25.230
X54.090Y25.230
X56.630Y25.230
X8.370Y27.770
X10.910Y27.770
X13.450Y27.770
X15.990Y27.770
X18.530Y27.770
X21.070Y27.770
X23.610Y27.770
X26.150Y27.770
X28.690Y27.770
X31.230Y27.770
X33.770Y27.770
X36.310Y27.770
X38.850Y27.770
X41.390Y27.770
X43.930Y27.770
X46.470Y27.770
X49.010Y27.770
X51.550Y27.770
X54.090Y27.770
X56.630Y27.770
X42.670Y3.120
X42.670Y5.660
X42.670Y8.200
X42.670Y10.740
X42.670Y13.280
X43.940Y15.820
T0
M30
