%FSLAX46Y46*%
%MOMM*%
%TF.GenerationSoftware,ce-cad,cecad.pcbfab,1.0*%
%TF.FileFunction,Copper,L1,Top*%
%TF.FilePolarity,Positive*%
%TF.ProjectId,microduck_robot_hat,,*%
G04 layer F.Cu — ce-cad*
G04 numbers in this file are TRANSCRIBED, not measured; see README.txt*
%LPD*%
G01*
%ADD10R,1.620000X1.620000*%
%ADD11C,1.620000*%
%ADD12R,0.520711X0.240711*%
%ADD13R,0.240711X0.520711*%
%ADD14R,3.450000X3.450000*%
%ADD15C,0.800000*%
%ADD16C,1.800000*%
%ADD17R,0.675000X0.250000*%
%ADD18R,0.250000X0.675000*%
%ADD19R,0.550000X0.750000*%
%ADD20R,1.600000X1.600000*%
%ADD21C,1.600000*%
%ADD22R,1.500000X1.500000*%
%ADD23C,1.500000*%
%ADD24R,1.200000X0.600000*%
%ADD25R,1.800000X1.200000*%
%ADD26R,1.300000X1.300000*%
%ADD27C,1.300000*%
%ADD28R,1.255071X1.758221*%
%ADD29R,0.912132X0.957625*%
%ADD30R,0.957625X0.912132*%
%ADD31R,1.255071X2.706202*%
%ADD32C,1.000000*%
%ADD33C,0.150000*%
D10*
X8370000Y25230000D03*
D11*
X10910000Y25230000D03*
D11*
X13450000Y25230000D03*
D11*
X15990000Y25230000D03*
D11*
X18530000Y25230000D03*
D11*
X21070000Y25230000D03*
D11*
X23610000Y25230000D03*
D11*
X26150000Y25230000D03*
D11*
X28690000Y25230000D03*
D11*
X31230000Y25230000D03*
D11*
X33770000Y25230000D03*
D11*
X36310000Y25230000D03*
D11*
X38850000Y25230000D03*
D11*
X41390000Y25230000D03*
D11*
X43930000Y25230000D03*
D11*
X46470000Y25230000D03*
D11*
X49010000Y25230000D03*
D11*
X51550000Y25230000D03*
D11*
X54090000Y25230000D03*
D11*
X56630000Y25230000D03*
D11*
X8370000Y27770000D03*
D11*
X10910000Y27770000D03*
D11*
X13450000Y27770000D03*
D11*
X15990000Y27770000D03*
D11*
X18530000Y27770000D03*
D11*
X21070000Y27770000D03*
D11*
X23610000Y27770000D03*
D11*
X26150000Y27770000D03*
D11*
X28690000Y27770000D03*
D11*
X31230000Y27770000D03*
D11*
X33770000Y27770000D03*
D11*
X36310000Y27770000D03*
D11*
X38850000Y27770000D03*
D11*
X41390000Y27770000D03*
D11*
X43930000Y27770000D03*
D11*
X46470000Y27770000D03*
D11*
X49010000Y27770000D03*
D11*
X51550000Y27770000D03*
D11*
X54090000Y27770000D03*
D11*
X56630000Y27770000D03*
D12*
X8675000Y16750000D03*
D12*
X8675000Y16250000D03*
D12*
X8675000Y15750000D03*
D12*
X8675000Y15250000D03*
D12*
X8675000Y14750000D03*
D12*
X8675000Y14250000D03*
D12*
X8675000Y13750000D03*
D12*
X8675000Y13250000D03*
D13*
X9250000Y12675000D03*
D13*
X9750000Y12675000D03*
D13*
X10250000Y12675000D03*
D13*
X10750000Y12675000D03*
D13*
X11250000Y12675000D03*
D13*
X11750000Y12675000D03*
D13*
X12250000Y12675000D03*
D13*
X12750000Y12675000D03*
D12*
X13325000Y13250000D03*
D12*
X13325000Y13750000D03*
D12*
X13325000Y14250000D03*
D12*
X13325000Y14750000D03*
D12*
X13325000Y15250000D03*
D12*
X13325000Y15750000D03*
D12*
X13325000Y16250000D03*
D12*
X13325000Y16750000D03*
D13*
X12750000Y17325000D03*
D13*
X12250000Y17325000D03*
D13*
X11750000Y17325000D03*
D13*
X11250000Y17325000D03*
D13*
X10750000Y17325000D03*
D13*
X10250000Y17325000D03*
D13*
X9750000Y17325000D03*
D13*
X9250000Y17325000D03*
D14*
X11000000Y15000000D03*
D15*
X10425000Y14425000D03*
D15*
X10425000Y15575000D03*
D15*
X11575000Y14425000D03*
D15*
X11575000Y15575000D03*
D16*
X42670000Y3120000D03*
D16*
X42670000Y5660000D03*
D16*
X42670000Y8200000D03*
D16*
X42670000Y10740000D03*
D16*
X42670000Y13280000D03*
D16*
X43940000Y15820000D03*
D17*
X20162500Y16500000D03*
D17*
X20162500Y16000000D03*
D17*
X20162500Y15500000D03*
D17*
X20162500Y15000000D03*
D17*
X20162500Y14500000D03*
D17*
X20162500Y14000000D03*
D17*
X20162500Y13500000D03*
D18*
X19000000Y13087500D03*
D17*
X17837500Y13500000D03*
D17*
X17837500Y14000000D03*
D17*
X17837500Y14500000D03*
D17*
X17837500Y15000000D03*
D17*
X17837500Y15500000D03*
D17*
X17837500Y16000000D03*
D17*
X17837500Y16500000D03*
D18*
X19000000Y16912500D03*
D19*
X37550000Y12650000D03*
D19*
X38500000Y12650000D03*
D19*
X39450000Y12650000D03*
D19*
X39450000Y15350000D03*
D19*
X37550000Y15350000D03*
D20*
X8950000Y4200000D03*
D21*
X11450000Y4200000D03*
D22*
X26300000Y3600000D03*
D23*
X28800000Y3600000D03*
D23*
X31300000Y3600000D03*
D24*
X4500000Y13500000D03*
D24*
X4500000Y14500000D03*
D24*
X4500000Y15500000D03*
D24*
X4500000Y16500000D03*
D25*
X4500000Y12200000D03*
D25*
X4500000Y17800000D03*
D26*
X36700000Y3600000D03*
D27*
X38700000Y3600000D03*
D26*
X17000000Y3600000D03*
D27*
X19000000Y3600000D03*
D27*
X21000000Y3600000D03*
D28*
X22598425Y8500000D03*
D28*
X25401575Y8500000D03*
D29*
X31500000Y10772747D03*
D29*
X31500000Y12227253D03*
D29*
X39800000Y9772747D03*
D29*
X39800000Y11227253D03*
D29*
X26000000Y20772747D03*
D29*
X26000000Y22227253D03*
D29*
X29000000Y20772747D03*
D29*
X29000000Y22227253D03*
D30*
X28272747Y8500000D03*
D30*
X29727253Y8500000D03*
D31*
X32098425Y8200000D03*
D31*
X34901575Y8200000D03*
D29*
X35500000Y13272747D03*
D29*
X35500000Y14727253D03*
D30*
X10272747Y10500000D03*
D30*
X11727253Y10500000D03*
D29*
X15000000Y10772747D03*
D29*
X15000000Y12227253D03*
D30*
X6872747Y9500000D03*
D30*
X8327253Y9500000D03*
D30*
X15772747Y19500000D03*
D30*
X17227253Y19500000D03*
D30*
X21272747Y19500000D03*
D30*
X22727253Y19500000D03*
D23*
X11000000Y21500000D03*
D32*
X28800000Y3600000D02*
X28001429Y4666905D01*
X28001429Y7778175D01*
X28272747Y8500000D01*
D32*
X25401575Y8500000D02*
X26445794Y7778175D01*
X25401575Y8500000D01*
D32*
X25401575Y8500000D02*
X26445794Y7778175D01*
X25401575Y8500000D01*
D32*
X8950000Y4200000D02*
X9333810Y6222540D01*
X21778889Y6222540D01*
X22598425Y8500000D01*
D32*
X22598425Y8500000D02*
X23334524Y10889444D01*
X29557063Y10889444D01*
D32*
X25401575Y8500000D02*
X26445794Y7778175D01*
X25401575Y8500000D01*
D32*
X25401575Y8500000D02*
X26445794Y7778175D01*
X25401575Y8500000D01*
D32*
X25401575Y8500000D02*
X26445794Y7778175D01*
X25401575Y8500000D01*
D32*
X25401575Y8500000D02*
X26445794Y7778175D01*
X25401575Y8500000D01*
D33*
X12750000Y17325000D02*
X13081475Y16970563D01*
X12750000Y17325000D01*
D33*
X11667262Y10253048D02*
X11727253Y10500000D01*
D33*
X11727253Y10500000D02*
X10960155Y9899495D01*
X10960155Y9545942D01*
X8838835Y9545942D01*
X8327253Y9500000D01*
D33*
X12750000Y17325000D02*
X13081475Y16970563D01*
X12750000Y17325000D01*
D33*
X11727253Y10500000D02*
X12374369Y10960155D01*
X13435029Y10960155D01*
X14495689Y12020815D01*
X15000000Y12227253D01*
D33*
X15000000Y12227253D02*
X14495689Y12727922D01*
X13788582Y13435029D01*
X13325000Y13250000D01*
D33*
X12750000Y17325000D02*
X13081475Y16970563D01*
X12750000Y17325000D01*
D33*
X13325000Y13250000D02*
X12727922Y13435029D01*
X13325000Y13250000D01*
D33*
X13325000Y13250000D02*
X12727922Y13435029D01*
X13325000Y13250000D01*
D33*
X13325000Y13250000D02*
X12727922Y13435029D01*
X13325000Y13250000D01*
D33*
X13325000Y13250000D02*
X12727922Y13435029D01*
X13325000Y13250000D01*
D33*
X12750000Y17325000D02*
X13081475Y16970563D01*
X12750000Y17325000D01*
D33*
X13325000Y13250000D02*
X12727922Y13435029D01*
X13325000Y13250000D01*
D33*
X13325000Y13250000D02*
X12727922Y13435029D01*
X12727922Y15202796D01*
X13325000Y15250000D01*
D33*
X12750000Y17325000D02*
X13081475Y16970563D01*
X12750000Y17325000D01*
D33*
X12750000Y17325000D02*
X13081475Y16970563D01*
X12750000Y17325000D01*
D33*
X12750000Y17325000D02*
X13081475Y16970563D01*
X12750000Y17325000D01*
D33*
X12750000Y17325000D02*
X13081475Y16970563D01*
X12750000Y17325000D01*
D33*
X13325000Y15250000D02*
X12727922Y15202796D01*
X13325000Y15250000D01*
D33*
X13325000Y15250000D02*
X12727922Y15202796D01*
X13325000Y15250000D01*
D33*
X13325000Y15250000D02*
X12727922Y15202796D01*
X13325000Y15250000D01*
D33*
X13325000Y15250000D02*
X12727922Y15202796D01*
X13325000Y15250000D01*
D33*
X12750000Y17325000D02*
X13081475Y16970563D01*
X12750000Y17325000D01*
D33*
X28272747Y8500000D02*
X27577164Y8485281D01*
X26162951Y8485281D01*
X25401575Y8500000D01*
D33*
X12750000Y17325000D02*
X13081475Y16970563D01*
X12750000Y17325000D01*
D33*
X13325000Y15250000D02*
X12727922Y15202796D01*
X13325000Y15250000D01*
D33*
X12750000Y17325000D02*
X13081475Y16970563D01*
X12750000Y17325000D01*
D33*
X12750000Y17325000D02*
X13081475Y16970563D01*
X12750000Y17325000D01*
D33*
X12750000Y17325000D02*
X13081475Y16970563D01*
X12750000Y17325000D01*
D33*
X12750000Y17325000D02*
X13081475Y16970563D01*
X12750000Y17325000D01*
D33*
X12750000Y17325000D02*
X13081475Y16970563D01*
X12750000Y17325000D01*
D33*
X13325000Y15250000D02*
X12727922Y15202796D01*
X13325000Y15250000D01*
D33*
X13325000Y15250000D02*
X12727922Y15202796D01*
X13325000Y15250000D01*
D33*
X28272747Y8500000D02*
X28991378Y9192388D01*
X31466252Y9192388D01*
X32098425Y8200000D01*
D33*
X9250000Y17325000D02*
X9192388Y17677670D01*
X9192388Y19091883D01*
X10606602Y20506097D01*
X11000000Y21500000D01*
D33*
X13325000Y15250000D02*
X12727922Y15202796D01*
X13325000Y15250000D01*
D33*
X13325000Y15250000D02*
X12727922Y15202796D01*
X13325000Y15250000D01*
D33*
X4596194Y16617009D02*
X4500000Y16500000D01*
D33*
X12750000Y17325000D02*
X13081475Y16970563D01*
X12750000Y17325000D01*
D33*
X13325000Y15250000D02*
X12727922Y15202796D01*
X13325000Y15250000D01*
D33*
X10910000Y25230000D02*
X9899495Y24395184D01*
X5656854Y20152543D01*
X5656854Y15556349D01*
X5303301Y15556349D01*
X4500000Y15500000D01*
D33*
X13325000Y15250000D02*
X12727922Y15202796D01*
X13325000Y15250000D01*
D33*
X31300000Y3600000D02*
X32173359Y4596194D01*
X33234019Y5656854D01*
X33234019Y9899495D01*
X32173359Y10960155D01*
X31500000Y10772747D01*
D33*
X13325000Y15250000D02*
X12727922Y15202796D01*
X13325000Y15250000D01*
D33*
X13325000Y15250000D02*
X12727922Y15202796D01*
X13325000Y15250000D01*
D33*
X13325000Y15250000D02*
X12727922Y15202796D01*
X13325000Y15250000D01*
D33*
X13325000Y15250000D02*
X12727922Y15202796D01*
X13325000Y15250000D01*
D33*
X13325000Y15250000D02*
X12727922Y15202796D01*
X13325000Y15250000D01*
D33*
X13325000Y15250000D02*
X12727922Y15202796D01*
X13325000Y15250000D01*
D33*
X13325000Y15250000D02*
X12727922Y15202796D01*
X13325000Y15250000D01*
D33*
X33234019Y9899495D02*
X39244426Y9899495D01*
X39800000Y9772747D01*
D33*
X13325000Y15250000D02*
X12727922Y15202796D01*
X13325000Y15250000D01*
D33*
X12750000Y17325000D02*
X13081475Y16970563D01*
X12750000Y17325000D01*
D33*
X13325000Y15250000D02*
X12727922Y15202796D01*
X13325000Y15250000D01*
D33*
X13325000Y15250000D02*
X12727922Y15202796D01*
X13325000Y15250000D01*
D33*
X39800000Y9772747D02*
X40305087Y10253048D01*
X40658640Y10253048D01*
X40658640Y13788582D01*
X39597980Y14849242D01*
X39450000Y15350000D01*
D33*
X4500000Y15500000D02*
X5303301Y15202796D01*
X7778175Y12727922D01*
X8838835Y12727922D01*
X9250000Y12675000D01*
D33*
X11000000Y21500000D02*
X11667262Y20506097D01*
X15909903Y16263456D01*
X15909903Y11313708D01*
X15556349Y10960155D01*
X15000000Y10772747D01*
D33*
X13325000Y15250000D02*
X12727922Y15202796D01*
X13325000Y15250000D01*
D33*
X12750000Y17325000D02*
X13081475Y16970563D01*
X12750000Y17325000D01*
D33*
X7778175Y13788582D02*
X8131728Y13435029D01*
X8675000Y13250000D01*
D33*
X9250000Y12675000D02*
X8838835Y12374369D01*
D33*
X16617009Y12374369D02*
X17324116Y13081475D01*
X17837500Y13500000D01*
D33*
X13081475Y11667262D02*
X13081475Y12374369D01*
X12750000Y12675000D01*
D33*
X17837500Y13500000D02*
X18384776Y13435029D01*
X18384776Y13788582D01*
X18738330Y14142136D01*
D33*
X25102291Y20506097D02*
X25455844Y20506097D01*
X26000000Y20772747D01*
D33*
X19091883Y13081475D02*
X19000000Y13087500D01*
D33*
X19000000Y13087500D02*
X19445436Y13081475D01*
X20859650Y13081475D01*
X28284271Y20506097D01*
X29000000Y20772747D01*
D33*
X8131728Y17324116D02*
X8131728Y16263456D01*
X8675000Y16250000D01*
D33*
X21920310Y15909903D02*
X20506097Y17324116D01*
D33*
X14142136Y14495689D02*
X13788582Y14495689D01*
X13325000Y14250000D01*
D33*
X15990000Y27770000D02*
X16970563Y26870058D01*
X17324116Y26516504D01*
X24748737Y26516504D01*
D33*
X36769553Y12374369D02*
X37123106Y12374369D01*
X37550000Y12650000D01*
D33*
X4500000Y14500000D02*
X3889087Y14849242D01*
X3535534Y14849242D01*
D33*
X10253048Y23334524D02*
X26516504Y23334524D01*
X27577164Y24395184D01*
X28690000Y25230000D01*
D33*
X35708892Y12020815D02*
X35708892Y11313708D01*
X39244426Y11313708D01*
X39800000Y11227253D01*
D33*
X16617009Y22273864D02*
X20506097Y18384776D01*
X21566757Y18384776D01*
X23334524Y16617009D01*
D33*
X51550000Y25230000D02*
X50558135Y24395184D01*
X47729708Y21566757D01*
X18384776Y21566757D01*
D33*
X7778175Y15556349D02*
X8131728Y15556349D01*
X8675000Y15750000D01*
D33*
X12750000Y17325000D02*
X13081475Y16970563D01*
X12750000Y17325000D01*
D33*
X13325000Y15250000D02*
X12727922Y15202796D01*
X13325000Y15250000D01*
D33*
X13325000Y15250000D02*
X12727922Y15202796D01*
X13325000Y15250000D01*
D33*
X13325000Y15250000D02*
X12727922Y15202796D01*
X13325000Y15250000D01*
D33*
X12750000Y17325000D02*
X13081475Y16970563D01*
X12750000Y17325000D01*
D33*
X12750000Y17325000D02*
X13081475Y16970563D01*
X12750000Y17325000D01*
D33*
X13325000Y15250000D02*
X12727922Y15202796D01*
X13325000Y15250000D01*
D33*
X13325000Y15250000D02*
X12727922Y15202796D01*
X13325000Y15250000D01*
D33*
X12750000Y17325000D02*
X13081475Y16970563D01*
X12750000Y17325000D01*
D33*
X13325000Y15250000D02*
X12727922Y15202796D01*
X13325000Y15250000D01*
D33*
X13325000Y15250000D02*
X12727922Y15202796D01*
X13325000Y15250000D01*
D33*
X13325000Y15250000D02*
X12727922Y15202796D01*
X13325000Y15250000D01*
D33*
X13325000Y15250000D02*
X12727922Y15202796D01*
X13325000Y15250000D01*
D33*
X12750000Y17325000D02*
X13081475Y16970563D01*
X12750000Y17325000D01*
D33*
X12750000Y17325000D02*
X13081475Y16970563D01*
X12750000Y17325000D01*
D33*
X12750000Y17325000D02*
X13081475Y16970563D01*
X12750000Y17325000D01*
D33*
X13325000Y15250000D02*
X12727922Y15202796D01*
X13325000Y15250000D01*
D33*
X12750000Y17325000D02*
X13081475Y16970563D01*
X12750000Y17325000D01*
D33*
X12750000Y17325000D02*
X13081475Y16970563D01*
X12750000Y17325000D01*
D33*
X12750000Y17325000D02*
X13081475Y16970563D01*
X12750000Y17325000D01*
D33*
X13325000Y15250000D02*
X12727922Y15202796D01*
X13325000Y15250000D01*
D33*
X12750000Y17325000D02*
X13081475Y16970563D01*
X12750000Y17325000D01*
D33*
X12750000Y17325000D02*
X13081475Y16970563D01*
X12750000Y17325000D01*
D33*
X12750000Y17325000D02*
X13081475Y16970563D01*
X12750000Y17325000D01*
D33*
X12750000Y17325000D02*
X13081475Y16970563D01*
X12750000Y17325000D01*
D33*
X12750000Y17325000D02*
X13081475Y16970563D01*
X12750000Y17325000D01*
D33*
X13325000Y15250000D02*
X12727922Y15202796D01*
X13325000Y15250000D01*
D33*
X13325000Y15250000D02*
X12727922Y15202796D01*
X13325000Y15250000D01*
D33*
X13325000Y15250000D02*
X12727922Y15202796D01*
X13325000Y15250000D01*
D33*
X13325000Y15250000D02*
X12727922Y15202796D01*
X13325000Y15250000D01*
D33*
X13325000Y15250000D02*
X12727922Y15202796D01*
X13325000Y15250000D01*
D33*
X12750000Y17325000D02*
X13081475Y16970563D01*
X12750000Y17325000D01*
D33*
X13325000Y15250000D02*
X12727922Y15202796D01*
X13325000Y15250000D01*
D33*
X13325000Y15250000D02*
X12727922Y15202796D01*
X13325000Y15250000D01*
D33*
X13325000Y15250000D02*
X12727922Y15202796D01*
X13325000Y15250000D01*
D33*
X13325000Y15250000D02*
X12727922Y15202796D01*
X13325000Y15250000D01*
D33*
X13325000Y15250000D02*
X12727922Y15202796D01*
X13325000Y15250000D01*
D33*
X13325000Y15250000D02*
X12727922Y15202796D01*
X13325000Y15250000D01*
D33*
X13325000Y15250000D02*
X12727922Y15202796D01*
X13325000Y15250000D01*
D33*
X13325000Y15250000D02*
X12727922Y15202796D01*
X13325000Y15250000D01*
D33*
X12750000Y17325000D02*
X13081475Y16970563D01*
X12750000Y17325000D01*
D33*
X13325000Y15250000D02*
X12727922Y15202796D01*
X13325000Y15250000D01*
D33*
X13325000Y15250000D02*
X12727922Y15202796D01*
X13325000Y15250000D01*
D33*
X12750000Y17325000D02*
X13081475Y16970563D01*
X12750000Y17325000D01*
D33*
X13325000Y15250000D02*
X12727922Y15202796D01*
X13325000Y15250000D01*
D33*
X21000000Y3600000D02*
X20506097Y4596194D01*
X20152543Y4949747D01*
X16970563Y4949747D01*
D33*
X12020815Y11667262D02*
X12374369Y12020815D01*
X12374369Y12374369D01*
X12250000Y12675000D01*
D33*
X23610000Y25230000D02*
X22627417Y24395184D01*
X22273864Y24041631D01*
X12020815Y24041631D01*
X12020815Y26516504D01*
X9545942Y26516504D01*
D33*
X6363961Y19445436D02*
X7424621Y19445436D01*
X8838835Y18031223D01*
X8838835Y16970563D01*
X8675000Y16750000D01*
D33*
X54090000Y27770000D02*
X53033009Y26870058D01*
X52679455Y26516504D01*
X30052038Y26516504D01*
X30052038Y24395184D01*
X28637825Y22980970D01*
X13081475Y22980970D01*
X12374369Y22273864D01*
D33*
X7071068Y17677670D02*
X7071068Y14849242D01*
X8131728Y14849242D01*
X8675000Y14750000D01*
D33*
X12750000Y17325000D02*
X13081475Y16970563D01*
X12750000Y17325000D01*
D33*
X13325000Y15250000D02*
X12727922Y15202796D01*
X13325000Y15250000D01*
D33*
X13325000Y15250000D02*
X12727922Y15202796D01*
X13325000Y15250000D01*
D33*
X13325000Y15250000D02*
X12727922Y15202796D01*
X13325000Y15250000D01*
D33*
X12750000Y17325000D02*
X13081475Y16970563D01*
X12750000Y17325000D01*
D33*
X12750000Y17325000D02*
X13081475Y16970563D01*
X12750000Y17325000D01*
D33*
X13325000Y15250000D02*
X12727922Y15202796D01*
X13325000Y15250000D01*
D33*
X13325000Y15250000D02*
X12727922Y15202796D01*
X13325000Y15250000D01*
D33*
X13325000Y15250000D02*
X12727922Y15202796D01*
X13325000Y15250000D01*
D33*
X12750000Y17325000D02*
X13081475Y16970563D01*
X12750000Y17325000D01*
D33*
X13325000Y15250000D02*
X12727922Y15202796D01*
X13325000Y15250000D01*
D33*
X13325000Y15250000D02*
X12727922Y15202796D01*
X13325000Y15250000D01*
D33*
X13325000Y15250000D02*
X12727922Y15202796D01*
X13325000Y15250000D01*
D33*
X12750000Y17325000D02*
X13081475Y16970563D01*
X12750000Y17325000D01*
D33*
X12750000Y17325000D02*
X13081475Y16970563D01*
X12750000Y17325000D01*
D33*
X12750000Y17325000D02*
X13081475Y16970563D01*
X12750000Y17325000D01*
D33*
X13325000Y15250000D02*
X12727922Y15202796D01*
X13325000Y15250000D01*
D33*
X12750000Y17325000D02*
X13081475Y16970563D01*
X12750000Y17325000D01*
D33*
X12750000Y17325000D02*
X13081475Y16970563D01*
X12750000Y17325000D01*
D33*
X12750000Y17325000D02*
X13081475Y16970563D01*
X12750000Y17325000D01*
D33*
X13325000Y15250000D02*
X12727922Y15202796D01*
X13325000Y15250000D01*
D33*
X12750000Y17325000D02*
X13081475Y16970563D01*
X12750000Y17325000D01*
D33*
X12750000Y17325000D02*
X13081475Y16970563D01*
X12750000Y17325000D01*
D33*
X12750000Y17325000D02*
X13081475Y16970563D01*
X12750000Y17325000D01*
D33*
X12750000Y17325000D02*
X13081475Y16970563D01*
X12750000Y17325000D01*
D33*
X12750000Y17325000D02*
X13081475Y16970563D01*
X12750000Y17325000D01*
D33*
X13325000Y15250000D02*
X12727922Y15202796D01*
X13325000Y15250000D01*
D33*
X13325000Y15250000D02*
X12727922Y15202796D01*
X13325000Y15250000D01*
D33*
X13325000Y15250000D02*
X12727922Y15202796D01*
X13325000Y15250000D01*
D33*
X13325000Y15250000D02*
X12727922Y15202796D01*
X13325000Y15250000D01*
D33*
X13325000Y15250000D02*
X12727922Y15202796D01*
X13325000Y15250000D01*
D33*
X12750000Y17325000D02*
X13081475Y16970563D01*
X12750000Y17325000D01*
D33*
X13325000Y15250000D02*
X12727922Y15202796D01*
X13325000Y15250000D01*
D33*
X13325000Y15250000D02*
X12727922Y15202796D01*
X13325000Y15250000D01*
D33*
X13325000Y15250000D02*
X12727922Y15202796D01*
X13325000Y15250000D01*
D33*
X13325000Y15250000D02*
X12727922Y15202796D01*
X13325000Y15250000D01*
D33*
X13325000Y15250000D02*
X12727922Y15202796D01*
X13325000Y15250000D01*
D33*
X13325000Y15250000D02*
X12727922Y15202796D01*
X13325000Y15250000D01*
D33*
X13325000Y15250000D02*
X12727922Y15202796D01*
X13325000Y15250000D01*
D33*
X13325000Y15250000D02*
X12727922Y15202796D01*
X13325000Y15250000D01*
D33*
X12750000Y17325000D02*
X13081475Y16970563D01*
X12750000Y17325000D01*
D33*
X13325000Y15250000D02*
X12727922Y15202796D01*
X13325000Y15250000D01*
D33*
X13325000Y15250000D02*
X12727922Y15202796D01*
X13325000Y15250000D01*
D33*
X12750000Y17325000D02*
X13081475Y16970563D01*
X12750000Y17325000D01*
D33*
X13325000Y15250000D02*
X12727922Y15202796D01*
X13325000Y15250000D01*
D33*
X12750000Y17325000D02*
X13081475Y16970563D01*
X12750000Y17325000D01*
D33*
X13325000Y15250000D02*
X12727922Y15202796D01*
X13325000Y15250000D01*
D33*
X13325000Y15250000D02*
X12727922Y15202796D01*
X13325000Y15250000D01*
D33*
X13325000Y15250000D02*
X12727922Y15202796D01*
X13325000Y15250000D01*
D33*
X12750000Y17325000D02*
X13081475Y16970563D01*
X12750000Y17325000D01*
D33*
X12750000Y17325000D02*
X13081475Y16970563D01*
X12750000Y17325000D01*
D33*
X13325000Y15250000D02*
X12727922Y15202796D01*
X13325000Y15250000D01*
D33*
X13325000Y15250000D02*
X12727922Y15202796D01*
X13325000Y15250000D01*
D33*
X13325000Y15250000D02*
X12727922Y15202796D01*
X13325000Y15250000D01*
D33*
X12750000Y17325000D02*
X13081475Y16970563D01*
X12750000Y17325000D01*
D33*
X13325000Y15250000D02*
X12727922Y15202796D01*
X13325000Y15250000D01*
D33*
X13325000Y15250000D02*
X12727922Y15202796D01*
X13325000Y15250000D01*
D33*
X13325000Y15250000D02*
X12727922Y15202796D01*
X13325000Y15250000D01*
D33*
X12750000Y17325000D02*
X13081475Y16970563D01*
X12750000Y17325000D01*
D33*
X12750000Y17325000D02*
X13081475Y16970563D01*
X12750000Y17325000D01*
D33*
X12750000Y17325000D02*
X13081475Y16970563D01*
X12750000Y17325000D01*
D33*
X13325000Y15250000D02*
X12727922Y15202796D01*
X13325000Y15250000D01*
D33*
X12750000Y17325000D02*
X13081475Y16970563D01*
X12750000Y17325000D01*
D33*
X12750000Y17325000D02*
X13081475Y16970563D01*
X12750000Y17325000D01*
D33*
X12750000Y17325000D02*
X13081475Y16970563D01*
X12750000Y17325000D01*
D33*
X13325000Y15250000D02*
X12727922Y15202796D01*
X13325000Y15250000D01*
D33*
X12750000Y17325000D02*
X13081475Y16970563D01*
X12750000Y17325000D01*
D33*
X12750000Y17325000D02*
X13081475Y16970563D01*
X12750000Y17325000D01*
D33*
X12750000Y17325000D02*
X13081475Y16970563D01*
X12750000Y17325000D01*
D33*
X12750000Y17325000D02*
X13081475Y16970563D01*
X12750000Y17325000D01*
D33*
X12750000Y17325000D02*
X13081475Y16970563D01*
X12750000Y17325000D01*
D33*
X13325000Y15250000D02*
X12727922Y15202796D01*
X13325000Y15250000D01*
D33*
X13325000Y15250000D02*
X12727922Y15202796D01*
X13325000Y15250000D01*
D33*
X13325000Y15250000D02*
X12727922Y15202796D01*
X13325000Y15250000D01*
D33*
X13325000Y15250000D02*
X12727922Y15202796D01*
X13325000Y15250000D01*
D33*
X13325000Y15250000D02*
X12727922Y15202796D01*
X13325000Y15250000D01*
D33*
X12750000Y17325000D02*
X13081475Y16970563D01*
X12750000Y17325000D01*
D33*
X13325000Y15250000D02*
X12727922Y15202796D01*
X13325000Y15250000D01*
D33*
X13325000Y15250000D02*
X12727922Y15202796D01*
X13325000Y15250000D01*
D33*
X13325000Y15250000D02*
X12727922Y15202796D01*
X13325000Y15250000D01*
D33*
X13325000Y15250000D02*
X12727922Y15202796D01*
X13325000Y15250000D01*
D33*
X13325000Y15250000D02*
X12727922Y15202796D01*
X13325000Y15250000D01*
D33*
X13325000Y15250000D02*
X12727922Y15202796D01*
X13325000Y15250000D01*
D33*
X13325000Y15250000D02*
X12727922Y15202796D01*
X13325000Y15250000D01*
D33*
X13325000Y15250000D02*
X12727922Y15202796D01*
X13325000Y15250000D01*
D33*
X12750000Y17325000D02*
X13081475Y16970563D01*
X12750000Y17325000D01*
D33*
X13325000Y15250000D02*
X12727922Y15202796D01*
X13325000Y15250000D01*
D33*
X13325000Y15250000D02*
X12727922Y15202796D01*
X13325000Y15250000D01*
D33*
X12750000Y17325000D02*
X13081475Y16970563D01*
X12750000Y17325000D01*
D33*
X13325000Y15250000D02*
X12727922Y15202796D01*
X13325000Y15250000D01*
D15*
X29557063Y10889444D03*
D15*
X11667262Y10253048D03*
D15*
X4596194Y16617009D03*
D15*
X7778175Y13788582D03*
D15*
X8838835Y12374369D03*
D15*
X16617009Y12374369D03*
D15*
X13081475Y11667262D03*
D15*
X18738330Y14142136D03*
D15*
X25102291Y20506097D03*
D15*
X19091883Y13081475D03*
D15*
X8131728Y17324116D03*
D15*
X21920310Y15909903D03*
D15*
X20506097Y17324116D03*
D15*
X14142136Y14495689D03*
D15*
X24748737Y26516504D03*
D15*
X36769553Y12374369D03*
D15*
X3535534Y14849242D03*
D15*
X10253048Y23334524D03*
D15*
X35708892Y12020815D03*
D15*
X16617009Y22273864D03*
D15*
X23334524Y16617009D03*
D15*
X18384776Y21566757D03*
D15*
X7778175Y15556349D03*
D15*
X16970563Y4949747D03*
D15*
X12020815Y11667262D03*
D15*
X9545942Y26516504D03*
D15*
X6363961Y19445436D03*
D15*
X12374369Y22273864D03*
D15*
X7071068Y17677670D03*
M02*
