M48
;DRILL file {ce-cad} — microduck_robot_hat
;FORMAT={-:-/ absolute / metric / decimal}
;TYPE=PLATED
FMAT,2
METRIC
T1C0.300
T2C0.700
T3C0.900
T4C1.000
T5C1.020
%
G90
G05
T1
X10.425Y14.425
X10.425Y15.575
X11.575Y14.425
X11.575Y15.575
X38.500Y11.650
X30.627Y8.500
X35.902Y8.200
X35.500Y15.877
X11.727Y9.300
X16.100Y12.227
X8.327Y8.400
X17.227Y20.600
X22.727Y20.600
X15.556Y20.506
X4.596Y16.617
X9.899Y19.799
X5.657Y15.556
X31.466Y6.010
X31.466Y10.607
X13.081Y9.546
X12.374Y11.667
X7.778Y13.789
X19.092Y13.081
X19.445Y21.213
X10.607Y18.385
X13.789Y12.374
X37.123Y5.657
X25.456Y11.667
X24.749Y24.042
X27.931Y21.920
X38.891Y9.899
X5.657Y13.576
X22.062Y12.445
X12.021Y9.546
X12.374Y10.253
X14.142Y9.546
X14.496Y13.789
X14.496Y15.203
T2
X36.000Y3.600
X38.000Y3.600
X16.650Y3.600
X18.650Y3.600
X20.650Y3.600
T3
X25.850Y3.600
X28.350Y3.600
X30.850Y3.600
T4
X8.950Y4.200
X11.450Y4.200
T5
X8.370Y25.230
X10.910Y25.230
X13.450Y25.230
X15.990Y25.230
X18.530Y25.230
X21.070Y25.230
X23.610Y25.230
X26.150Y25.230
X28.690Y25.230
X31.230Y25.230
X33.770Y25.230
X36.310Y25.230
X38.850Y25.230
X41.390Y25.230
X43.930Y25.230
X46.470Y25.230
X49.010Y25.230
X51.550Y25.230
X54.090Y25.230
X56.630Y25.230
X8.370Y27.770
X10.910Y27.770
X13.450Y27.770
X15.990Y27.770
X18.530Y27.770
X21.070Y27.770
X23.610Y27.770
X26.150Y27.770
X28.690Y27.770
X31.230Y27.770
X33.770Y27.770
X36.310Y27.770
X38.850Y27.770
X41.390Y27.770
X43.930Y27.770
X46.470Y27.770
X49.010Y27.770
X51.550Y27.770
X54.090Y27.770
X56.630Y27.770
X41.970Y3.120
X41.970Y5.660
X41.970Y8.200
X41.970Y10.740
X41.970Y13.280
X43.240Y15.820
T0
M30
