%FSLAX46Y46*%
%MOMM*%
%TF.GenerationSoftware,ce-cad,cecad.pcbfab,1.0*%
%TF.FileFunction,Legend,Top*%
%TF.FilePolarity,Positive*%
%TF.ProjectId,microduck_robot_hat,,*%
G04 layer F.Silk — ce-cad*
G04 numbers in this file are TRANSCRIBED, not measured; see README.txt*
%LPD*%
G01*
%ADD10C,0.150000*%
D10*
X58000000Y23860000D02*
X58000000Y29140000D01*
D10*
X7000000Y23860000D02*
X7000000Y29140000D01*
D10*
X7200000Y23510000D02*
X7600000Y23510000D01*
D10*
X8400000Y12400000D02*
X13600000Y12400000D01*
D10*
X8400000Y17600000D02*
X13600000Y17600000D01*
D10*
X8050000Y17400000D02*
X8050000Y17000000D01*
D10*
X21970890Y9579110D02*
X26029110Y9579110D01*
D10*
X21970890Y7420890D02*
X26029110Y7420890D01*
D10*
X30843934Y10293934D02*
X30843934Y12706066D01*
D10*
X32156066Y10293934D02*
X32156066Y12706066D01*
D10*
X39143934Y9293934D02*
X39143934Y11706066D01*
D10*
X40456066Y9293934D02*
X40456066Y11706066D01*
D10*
X25343934Y20293934D02*
X25343934Y22706066D01*
D10*
X26656066Y20293934D02*
X26656066Y22706066D01*
D10*
X28343934Y20293934D02*
X28343934Y22706066D01*
D10*
X29656066Y20293934D02*
X29656066Y22706066D01*
D10*
X27793934Y9156066D02*
X30206066Y9156066D01*
D10*
X27793934Y7843934D02*
X30206066Y7843934D01*
D10*
X31470890Y9753101D02*
X35529110Y9753101D01*
D10*
X31470890Y6646899D02*
X35529110Y6646899D01*
D10*
X34843934Y12793934D02*
X34843934Y15206066D01*
D10*
X36156066Y12793934D02*
X36156066Y15206066D01*
D10*
X9793934Y11156066D02*
X12206066Y11156066D01*
D10*
X9793934Y9843934D02*
X12206066Y9843934D01*
D10*
X14343934Y10293934D02*
X14343934Y12706066D01*
D10*
X15656066Y10293934D02*
X15656066Y12706066D01*
D10*
X6393934Y10156066D02*
X8806066Y10156066D01*
D10*
X6393934Y8843934D02*
X8806066Y8843934D01*
D10*
X15293934Y20156066D02*
X17706066Y20156066D01*
D10*
X15293934Y18843934D02*
X17706066Y18843934D01*
D10*
X20793934Y20156066D02*
X23206066Y20156066D01*
D10*
X20793934Y18843934D02*
X23206066Y18843934D01*
D10*
X32500000Y19500000D02*
X32500000Y20700000D01*
D10*
X32500000Y20700000D02*
X32860000Y19980000D01*
D10*
X32860000Y19980000D02*
X33220000Y20700000D01*
D10*
X33220000Y20700000D02*
X33220000Y19500000D01*
D10*
X33880000Y19500000D02*
X33880000Y20700000D01*
D10*
X33664000Y20700000D02*
X34096000Y20700000D01*
D10*
X33664000Y19500000D02*
X34096000Y19500000D01*
D10*
X35260000Y20700000D02*
X34540000Y20700000D01*
D10*
X34540000Y20700000D02*
X34540000Y19500000D01*
D10*
X34540000Y19500000D02*
X35260000Y19500000D01*
D10*
X35560000Y19500000D02*
X35560000Y20700000D01*
D10*
X35560000Y20700000D02*
X36280000Y20700000D01*
D10*
X36280000Y20700000D02*
X36280000Y20100000D01*
D10*
X36280000Y20100000D02*
X35560000Y20100000D01*
D10*
X35848000Y20100000D02*
X36280000Y19500000D01*
D10*
X36580000Y19500000D02*
X37300000Y19500000D01*
D10*
X37300000Y19500000D02*
X37300000Y20700000D01*
D10*
X37300000Y20700000D02*
X36580000Y20700000D01*
D10*
X36580000Y20700000D02*
X36580000Y19500000D01*
D10*
X37600000Y19500000D02*
X37600000Y20700000D01*
D10*
X37600000Y20700000D02*
X38248000Y20220000D01*
D10*
X38248000Y20220000D02*
X38248000Y19980000D01*
D10*
X38248000Y19980000D02*
X37600000Y19500000D01*
D10*
X38620000Y20700000D02*
X38620000Y19500000D01*
D10*
X38620000Y19500000D02*
X39340000Y19500000D01*
D10*
X39340000Y19500000D02*
X39340000Y20700000D01*
D10*
X40360000Y20700000D02*
X39640000Y20700000D01*
D10*
X39640000Y20700000D02*
X39640000Y19500000D01*
D10*
X39640000Y19500000D02*
X40360000Y19500000D01*
D10*
X40660000Y19500000D02*
X40660000Y20700000D01*
D10*
X41380000Y20700000D02*
X40660000Y20100000D01*
D10*
X40660000Y20100000D02*
X41380000Y19500000D01*
D10*
X42700000Y19500000D02*
X42700000Y20700000D01*
D10*
X42700000Y20700000D02*
X43420000Y20700000D01*
D10*
X43420000Y20700000D02*
X43420000Y20100000D01*
D10*
X43420000Y20100000D02*
X42700000Y20100000D01*
D10*
X42988000Y20100000D02*
X43420000Y19500000D01*
D10*
X43720000Y19500000D02*
X44440000Y19500000D01*
D10*
X44440000Y19500000D02*
X44440000Y20700000D01*
D10*
X44440000Y20700000D02*
X43720000Y20700000D01*
D10*
X43720000Y20700000D02*
X43720000Y19500000D01*
D10*
X44740000Y19500000D02*
X44740000Y20700000D01*
D10*
X44740000Y20700000D02*
X45316000Y20460000D01*
D10*
X45316000Y20460000D02*
X44740000Y20100000D01*
D10*
X44740000Y20100000D02*
X45388000Y19740000D01*
D10*
X45388000Y19740000D02*
X44740000Y19500000D01*
D10*
X45760000Y19500000D02*
X46480000Y19500000D01*
D10*
X46480000Y19500000D02*
X46480000Y20700000D01*
D10*
X46480000Y20700000D02*
X45760000Y20700000D01*
D10*
X45760000Y20700000D02*
X45760000Y19500000D01*
D10*
X46780000Y20700000D02*
X47500000Y20700000D01*
D10*
X47140000Y20700000D02*
X47140000Y19500000D01*
D10*
X47944000Y20100000D02*
X48376000Y20100000D01*
D10*
X48820000Y19500000D02*
X48820000Y20700000D01*
D10*
X49540000Y19500000D02*
X49540000Y20700000D01*
D10*
X48820000Y20100000D02*
X49540000Y20100000D01*
D10*
X49840000Y19500000D02*
X50200000Y20700000D01*
D10*
X50200000Y20700000D02*
X50560000Y19500000D01*
D10*
X50020000Y20100000D02*
X50380000Y20100000D01*
D10*
X50860000Y20700000D02*
X51580000Y20700000D01*
D10*
X51220000Y20700000D02*
X51220000Y19500000D01*
D10*
X32500000Y17500000D02*
X33100000Y17500000D01*
D10*
X33100000Y17500000D02*
X33100000Y18500000D01*
D10*
X33100000Y18500000D02*
X32500000Y18500000D01*
D10*
X32500000Y18500000D02*
X32500000Y17500000D01*
D10*
X33350000Y18500000D02*
X33350000Y17500000D01*
D10*
X33350000Y17500000D02*
X33950000Y17500000D01*
D10*
X33950000Y17500000D02*
X33950000Y18500000D01*
D10*
X34200000Y17500000D02*
X34200000Y18500000D01*
D10*
X34200000Y18500000D02*
X34800000Y18500000D01*
D10*
X34800000Y18500000D02*
X34800000Y18000000D01*
D10*
X34800000Y18000000D02*
X34200000Y18000000D01*
D10*
X34440000Y18000000D02*
X34800000Y17500000D01*
D10*
X35900000Y17500000D02*
X35900000Y18500000D01*
D10*
X35900000Y18500000D02*
X36500000Y18500000D01*
D10*
X36500000Y18500000D02*
X36500000Y18000000D01*
D10*
X36500000Y18000000D02*
X35900000Y18000000D01*
D10*
X36140000Y18000000D02*
X36500000Y17500000D01*
D10*
X37350000Y18500000D02*
X36750000Y18500000D01*
D10*
X36750000Y18500000D02*
X36750000Y17500000D01*
D10*
X36750000Y17500000D02*
X37350000Y17500000D01*
D10*
X36750000Y18000000D02*
X37170000Y18000000D01*
D10*
X38200000Y18500000D02*
X37600000Y18500000D01*
D10*
X37600000Y18500000D02*
X37600000Y17500000D01*
D10*
X37600000Y17500000D02*
X38200000Y17500000D01*
D10*
X38450000Y17500000D02*
X39050000Y17500000D01*
D10*
X39050000Y17500000D02*
X39050000Y18500000D01*
D10*
X39050000Y18500000D02*
X38450000Y18500000D01*
D10*
X38450000Y18500000D02*
X38450000Y17500000D01*
D10*
X39300000Y17500000D02*
X39300000Y18500000D01*
D10*
X39300000Y18500000D02*
X39900000Y17500000D01*
D10*
X39900000Y17500000D02*
X39900000Y18500000D01*
D10*
X40750000Y18500000D02*
X40150000Y18500000D01*
D10*
X40150000Y18500000D02*
X40150000Y18000000D01*
D10*
X40150000Y18000000D02*
X40750000Y18000000D01*
D10*
X40750000Y18000000D02*
X40750000Y17500000D01*
D10*
X40750000Y17500000D02*
X40150000Y17500000D01*
D10*
X41000000Y18500000D02*
X41600000Y18500000D01*
D10*
X41300000Y18500000D02*
X41300000Y17500000D01*
D10*
X41850000Y17500000D02*
X41850000Y18500000D01*
D10*
X41850000Y18500000D02*
X42450000Y18500000D01*
D10*
X42450000Y18500000D02*
X42450000Y18000000D01*
D10*
X42450000Y18000000D02*
X41850000Y18000000D01*
D10*
X42090000Y18000000D02*
X42450000Y17500000D01*
D10*
X42700000Y18500000D02*
X42700000Y17500000D01*
D10*
X42700000Y17500000D02*
X43300000Y17500000D01*
D10*
X43300000Y17500000D02*
X43300000Y18500000D01*
D10*
X44150000Y18500000D02*
X43550000Y18500000D01*
D10*
X43550000Y18500000D02*
X43550000Y17500000D01*
D10*
X43550000Y17500000D02*
X44150000Y17500000D01*
D10*
X44400000Y18500000D02*
X45000000Y18500000D01*
D10*
X44700000Y18500000D02*
X44700000Y17500000D01*
D10*
X45550000Y17500000D02*
X45550000Y18500000D01*
D10*
X45370000Y18500000D02*
X45730000Y18500000D01*
D10*
X45370000Y17500000D02*
X45730000Y17500000D01*
D10*
X46100000Y17500000D02*
X46700000Y17500000D01*
D10*
X46700000Y17500000D02*
X46700000Y18500000D01*
D10*
X46700000Y18500000D02*
X46100000Y18500000D01*
D10*
X46100000Y18500000D02*
X46100000Y17500000D01*
D10*
X46950000Y17500000D02*
X46950000Y18500000D01*
D10*
X46950000Y18500000D02*
X47550000Y17500000D01*
D10*
X47550000Y17500000D02*
X47550000Y18500000D01*
D10*
X48770000Y18000000D02*
X49130000Y18000000D01*
D10*
X50350000Y17500000D02*
X50350000Y18500000D01*
D10*
X50350000Y18500000D02*
X50950000Y17500000D01*
D10*
X50950000Y17500000D02*
X50950000Y18500000D01*
D10*
X51200000Y17500000D02*
X51800000Y17500000D01*
D10*
X51800000Y17500000D02*
X51800000Y18500000D01*
D10*
X51800000Y18500000D02*
X51200000Y18500000D01*
D10*
X51200000Y18500000D02*
X51200000Y17500000D01*
D10*
X52050000Y18500000D02*
X52650000Y18500000D01*
D10*
X52350000Y18500000D02*
X52350000Y17500000D01*
D10*
X53750000Y17500000D02*
X53750000Y18500000D01*
D10*
X53750000Y18500000D02*
X54350000Y18500000D01*
D10*
X54350000Y18500000D02*
X54350000Y18000000D01*
D10*
X54350000Y18000000D02*
X53750000Y18000000D01*
D10*
X54600000Y17500000D02*
X55200000Y17500000D01*
D10*
X55200000Y17500000D02*
X55200000Y18500000D01*
D10*
X55200000Y18500000D02*
X54600000Y18500000D01*
D10*
X54600000Y18500000D02*
X54600000Y17500000D01*
D10*
X55450000Y18500000D02*
X55450000Y17500000D01*
D10*
X55450000Y17500000D02*
X56050000Y17500000D01*
D10*
X56300000Y18500000D02*
X56300000Y17500000D01*
D10*
X56300000Y17500000D02*
X56900000Y17500000D01*
D10*
X57750000Y18500000D02*
X57150000Y18500000D01*
D10*
X57150000Y18500000D02*
X57150000Y17500000D01*
D10*
X57150000Y17500000D02*
X57750000Y17500000D01*
D10*
X57150000Y18000000D02*
X57570000Y18000000D01*
D10*
X58000000Y17500000D02*
X58000000Y18500000D01*
D10*
X58000000Y18500000D02*
X58600000Y17500000D01*
D10*
X58600000Y17500000D02*
X58600000Y18500000D01*
D10*
X60300000Y18500000D02*
X59700000Y18500000D01*
D10*
X59700000Y18500000D02*
X59700000Y18000000D01*
D10*
X59700000Y18000000D02*
X60300000Y18000000D01*
D10*
X60300000Y18000000D02*
X60300000Y17500000D01*
D10*
X60300000Y17500000D02*
X59700000Y17500000D01*
D10*
X61400000Y17500000D02*
X61400000Y18500000D01*
D10*
X61400000Y18500000D02*
X61880000Y18300000D01*
D10*
X61880000Y18300000D02*
X61400000Y18000000D01*
D10*
X61400000Y18000000D02*
X61940000Y17700000D01*
D10*
X61940000Y17700000D02*
X61400000Y17500000D01*
D10*
X62250000Y17500000D02*
X62850000Y17500000D01*
D10*
X62850000Y17500000D02*
X62850000Y18500000D01*
D10*
X62850000Y18500000D02*
X62250000Y18500000D01*
D10*
X62250000Y18500000D02*
X62250000Y17500000D01*
D10*
X63100000Y17500000D02*
X63400000Y18500000D01*
D10*
X63400000Y18500000D02*
X63700000Y17500000D01*
D10*
X63250000Y18000000D02*
X63550000Y18000000D01*
D10*
X63950000Y17500000D02*
X63950000Y18500000D01*
D10*
X63950000Y18500000D02*
X64550000Y18500000D01*
D10*
X64550000Y18500000D02*
X64550000Y18000000D01*
D10*
X64550000Y18000000D02*
X63950000Y18000000D01*
D10*
X64190000Y18000000D02*
X64550000Y17500000D01*
D10*
X64800000Y17500000D02*
X64800000Y18500000D01*
D10*
X64800000Y18500000D02*
X65340000Y18100000D01*
D10*
X65340000Y18100000D02*
X65340000Y17900000D01*
D10*
X65340000Y17900000D02*
X64800000Y17500000D01*
M02*
