%FSLAX46Y46*%
%MOMM*%
%TF.GenerationSoftware,ce-cad,cecad.pcbfab,1.0*%
%TF.FileFunction,Copper,L2,Bot*%
%TF.FilePolarity,Positive*%
%TF.ProjectId,microduck_robot_hat,,*%
G04 layer B.Cu — ce-cad*
G04 numbers in this file are TRANSCRIBED, not measured; see README.txt*
%LPD*%
G01*
%ADD10R,1.620000X1.620000*%
%ADD11C,1.620000*%
%ADD12C,0.800000*%
%ADD13C,1.800000*%
%ADD14R,1.600000X1.600000*%
%ADD15C,1.600000*%
%ADD16R,1.500000X1.500000*%
%ADD17C,1.500000*%
%ADD18R,1.300000X1.300000*%
%ADD19C,1.300000*%
%ADD20C,1.000000*%
%ADD21C,0.150000*%
%ADD22R,0.250000X0.250000*%
D10*
X8370000Y25230000D03*
D11*
X10910000Y25230000D03*
D11*
X13450000Y25230000D03*
D11*
X15990000Y25230000D03*
D11*
X18530000Y25230000D03*
D11*
X21070000Y25230000D03*
D11*
X23610000Y25230000D03*
D11*
X26150000Y25230000D03*
D11*
X28690000Y25230000D03*
D11*
X31230000Y25230000D03*
D11*
X33770000Y25230000D03*
D11*
X36310000Y25230000D03*
D11*
X38850000Y25230000D03*
D11*
X41390000Y25230000D03*
D11*
X43930000Y25230000D03*
D11*
X46470000Y25230000D03*
D11*
X49010000Y25230000D03*
D11*
X51550000Y25230000D03*
D11*
X54090000Y25230000D03*
D11*
X56630000Y25230000D03*
D11*
X8370000Y27770000D03*
D11*
X10910000Y27770000D03*
D11*
X13450000Y27770000D03*
D11*
X15990000Y27770000D03*
D11*
X18530000Y27770000D03*
D11*
X21070000Y27770000D03*
D11*
X23610000Y27770000D03*
D11*
X26150000Y27770000D03*
D11*
X28690000Y27770000D03*
D11*
X31230000Y27770000D03*
D11*
X33770000Y27770000D03*
D11*
X36310000Y27770000D03*
D11*
X38850000Y27770000D03*
D11*
X41390000Y27770000D03*
D11*
X43930000Y27770000D03*
D11*
X46470000Y27770000D03*
D11*
X49010000Y27770000D03*
D11*
X51550000Y27770000D03*
D11*
X54090000Y27770000D03*
D11*
X56630000Y27770000D03*
D12*
X10425000Y14425000D03*
D12*
X10425000Y15575000D03*
D12*
X11575000Y14425000D03*
D12*
X11575000Y15575000D03*
D13*
X42670000Y3120000D03*
D13*
X42670000Y5660000D03*
D13*
X42670000Y8200000D03*
D13*
X42670000Y10740000D03*
D13*
X42670000Y13280000D03*
D13*
X43940000Y15820000D03*
D14*
X8950000Y4200000D03*
D15*
X11450000Y4200000D03*
D16*
X26300000Y3600000D03*
D17*
X28800000Y3600000D03*
D17*
X31300000Y3600000D03*
D18*
X36700000Y3600000D03*
D19*
X38700000Y3600000D03*
D18*
X17000000Y3600000D03*
D19*
X19000000Y3600000D03*
D19*
X21000000Y3600000D03*
D20*
X8370000Y27770000D02*
X9333810Y28001429D01*
X8370000Y27770000D01*
D20*
X29557063Y10889444D02*
X40446508Y10889444D01*
X42670000Y10740000D01*
D20*
X8370000Y27770000D02*
X9333810Y28001429D01*
X8370000Y27770000D01*
D20*
X8370000Y27770000D02*
X9333810Y28001429D01*
X8370000Y27770000D01*
D20*
X8370000Y27770000D02*
X9333810Y28001429D01*
X8370000Y27770000D01*
D20*
X8370000Y27770000D02*
X9333810Y28001429D01*
X8370000Y27770000D01*
D20*
X8370000Y27770000D02*
X9333810Y28001429D01*
X8370000Y27770000D01*
D21*
X11450000Y4200000D02*
X12374369Y3535534D01*
X16263456Y3535534D01*
X17000000Y3600000D01*
D21*
X11450000Y4200000D02*
X11667262Y5303301D01*
X11667262Y10253048D01*
D21*
X8370000Y27770000D02*
X9192388Y27930718D01*
X9899495Y27930718D01*
X10910000Y27770000D01*
D21*
X13450000Y25230000D02*
X12374369Y24395184D01*
X4596194Y16617009D01*
D21*
X4596194Y16617009D02*
X7424621Y13788582D01*
X7778175Y13788582D01*
D21*
X8838835Y12374369D02*
X16617009Y12374369D01*
D21*
X19000000Y3600000D02*
X18384776Y4596194D01*
X13081475Y9899495D01*
X13081475Y11667262D01*
D21*
X18738330Y14142136D02*
X25102291Y20506097D01*
D21*
X7778175Y13788582D02*
X17677670Y13788582D01*
X17677670Y13081475D01*
X19091883Y13081475D01*
D21*
X21070000Y27770000D02*
X20152543Y26870058D01*
X19798990Y26516504D01*
X19798990Y24041631D01*
X13081475Y17324116D01*
X8131728Y17324116D01*
D21*
X36700000Y3600000D02*
X35708892Y4242641D01*
X33587572Y4242641D01*
X21920310Y15909903D01*
D21*
X20506097Y17324116D02*
X16970563Y17324116D01*
X14142136Y14495689D01*
D21*
X24748737Y26516504D02*
X24748737Y24395184D01*
X36769553Y12374369D01*
D21*
X3535534Y14849242D02*
X3535534Y17677670D01*
X9192388Y23334524D01*
X10253048Y23334524D01*
D21*
X18530000Y27770000D02*
X19445436Y28637825D01*
X19798990Y28991378D01*
X22273864Y28991378D01*
X22273864Y24041631D01*
X23688077Y24041631D01*
X35708892Y12020815D01*
D21*
X10910000Y27770000D02*
X12020815Y26870058D01*
X12374369Y26516504D01*
X14495689Y26516504D01*
X14495689Y24395184D01*
X16617009Y22273864D01*
D21*
X23334524Y16617009D02*
X23334524Y15909903D01*
X34648232Y4596194D01*
X40658640Y4596194D01*
X41719300Y3535534D01*
X42670000Y3120000D01*
D21*
X18384776Y21566757D02*
X13081475Y16263456D01*
X8485281Y16263456D01*
X7778175Y15556349D01*
D21*
X16970563Y4949747D02*
X12374369Y9545942D01*
X12374369Y11313708D01*
X12020815Y11667262D01*
D21*
X9545942Y26516504D02*
X9545942Y24041631D01*
X8838835Y24041631D01*
X2828427Y18031223D01*
X2828427Y14142136D01*
X4242641Y14142136D01*
X4242641Y15556349D01*
X3889087Y15909903D01*
X3889087Y17324116D01*
X4242641Y17324116D01*
X6363961Y19445436D01*
D21*
X12374369Y22273864D02*
X11667262Y22273864D01*
X7071068Y17677670D01*
D12*
X29557063Y10889444D03*
D12*
X11667262Y10253048D03*
D12*
X4596194Y16617009D03*
D12*
X7778175Y13788582D03*
D12*
X8838835Y12374369D03*
D12*
X16617009Y12374369D03*
D12*
X13081475Y11667262D03*
D12*
X18738330Y14142136D03*
D12*
X25102291Y20506097D03*
D12*
X19091883Y13081475D03*
D12*
X8131728Y17324116D03*
D12*
X21920310Y15909903D03*
D12*
X20506097Y17324116D03*
D12*
X14142136Y14495689D03*
D12*
X24748737Y26516504D03*
D12*
X36769553Y12374369D03*
D12*
X3535534Y14849242D03*
D12*
X10253048Y23334524D03*
D12*
X35708892Y12020815D03*
D12*
X16617009Y22273864D03*
D12*
X23334524Y16617009D03*
D12*
X18384776Y21566757D03*
D12*
X7778175Y15556349D03*
D12*
X16970563Y4949747D03*
D12*
X12020815Y11667262D03*
D12*
X9545942Y26516504D03*
D12*
X6363961Y19445436D03*
D12*
X12374369Y22273864D03*
D12*
X7071068Y17677670D03*
D22*
X2642700Y125000D02*
X62357300Y125000D01*
D22*
X2027600Y375000D02*
X62972400Y375000D01*
D22*
X1637800Y625000D02*
X63362200Y625000D01*
D22*
X1333200Y875000D02*
X63666800Y875000D01*
D22*
X1126500Y1125000D02*
X63873500Y1125000D01*
D22*
X933300Y1375000D02*
X64066700Y1375000D01*
D22*
X799700Y1625000D02*
X64200300Y1625000D01*
D22*
X671400Y1875000D02*
X64328600Y1875000D01*
D22*
X595500Y2125000D02*
X41420000Y2125000D01*
D22*
X43920000Y2125000D02*
X64404500Y2125000D01*
D22*
X519700Y2375000D02*
X41420000Y2375000D01*
D22*
X43920000Y2375000D02*
X64480300Y2375000D01*
D22*
X486900Y2625000D02*
X41420000Y2625000D01*
D22*
X43920000Y2625000D02*
X64513100Y2625000D01*
D22*
X462300Y2875000D02*
X18000000Y2875000D01*
D22*
X20000000Y2875000D02*
X20000000Y2875000D01*
D22*
X22000000Y2875000D02*
X27700000Y2875000D01*
D22*
X29900000Y2875000D02*
X30200000Y2875000D01*
D22*
X32400000Y2875000D02*
X35700000Y2875000D01*
D22*
X37700000Y2875000D02*
X37700000Y2875000D01*
D22*
X39700000Y2875000D02*
X41420000Y2875000D01*
D22*
X43920000Y2875000D02*
X64537700Y2875000D01*
D22*
X450000Y3125000D02*
X18000000Y3125000D01*
D22*
X20000000Y3125000D02*
X20000000Y3125000D01*
D22*
X22000000Y3125000D02*
X27700000Y3125000D01*
D22*
X29900000Y3125000D02*
X30200000Y3125000D01*
D22*
X32400000Y3125000D02*
X35700000Y3125000D01*
D22*
X37700000Y3125000D02*
X37700000Y3125000D01*
D22*
X39700000Y3125000D02*
X41420000Y3125000D01*
D22*
X43920000Y3125000D02*
X64550000Y3125000D01*
D22*
X450000Y3375000D02*
X7800000Y3375000D01*
D22*
X10100000Y3375000D02*
X18000000Y3375000D01*
D22*
X20000000Y3375000D02*
X20000000Y3375000D01*
D22*
X22000000Y3375000D02*
X27700000Y3375000D01*
D22*
X29900000Y3375000D02*
X30200000Y3375000D01*
D22*
X32400000Y3375000D02*
X35700000Y3375000D01*
D22*
X37700000Y3375000D02*
X37700000Y3375000D01*
D22*
X39700000Y3375000D02*
X41198800Y3375000D01*
D22*
X43920000Y3375000D02*
X64550000Y3375000D01*
D22*
X450000Y3625000D02*
X7800000Y3625000D01*
D22*
X10100000Y3625000D02*
X18000000Y3625000D01*
D22*
X20000000Y3625000D02*
X20000000Y3625000D01*
D22*
X22000000Y3625000D02*
X27700000Y3625000D01*
D22*
X29900000Y3625000D02*
X30200000Y3625000D01*
D22*
X32400000Y3625000D02*
X35700000Y3625000D01*
D22*
X37700000Y3625000D02*
X37700000Y3625000D01*
D22*
X39700000Y3625000D02*
X40948800Y3625000D01*
D22*
X43920000Y3625000D02*
X64550000Y3625000D01*
D22*
X450000Y3875000D02*
X7800000Y3875000D01*
D22*
X10100000Y3875000D02*
X18000000Y3875000D01*
D22*
X20000000Y3875000D02*
X20000000Y3875000D01*
D22*
X22000000Y3875000D02*
X27700000Y3875000D01*
D22*
X29900000Y3875000D02*
X30200000Y3875000D01*
D22*
X32400000Y3875000D02*
X35441000Y3875000D01*
D22*
X37700000Y3875000D02*
X37700000Y3875000D01*
D22*
X39700000Y3875000D02*
X40698800Y3875000D01*
D22*
X43920000Y3875000D02*
X64550000Y3875000D01*
D22*
X450000Y4125000D02*
X7800000Y4125000D01*
D22*
X10100000Y4125000D02*
X18000000Y4125000D01*
D22*
X20000000Y4125000D02*
X20000000Y4125000D01*
D22*
X22000000Y4125000D02*
X27700000Y4125000D01*
D22*
X29900000Y4125000D02*
X30200000Y4125000D01*
D22*
X32400000Y4125000D02*
X33024100Y4125000D01*
D22*
X37700000Y4125000D02*
X37700000Y4125000D01*
D22*
X39700000Y4125000D02*
X40448800Y4125000D01*
D22*
X43920000Y4125000D02*
X64550000Y4125000D01*
D22*
X450000Y4375000D02*
X7800000Y4375000D01*
D22*
X10100000Y4375000D02*
X17971000Y4375000D01*
D22*
X20000000Y4375000D02*
X20000000Y4375000D01*
D22*
X22000000Y4375000D02*
X27700000Y4375000D01*
D22*
X29900000Y4375000D02*
X30200000Y4375000D01*
D22*
X32400000Y4375000D02*
X32774100Y4375000D01*
D22*
X37700000Y4375000D02*
X37700000Y4375000D01*
D22*
X39700000Y4375000D02*
X40255600Y4375000D01*
D22*
X41560900Y4375000D02*
X64550000Y4375000D01*
D22*
X450000Y4625000D02*
X7800000Y4625000D01*
D22*
X10100000Y4625000D02*
X16228900Y4625000D01*
D22*
X18944100Y4625000D02*
X32524100Y4625000D01*
D22*
X33886300Y4625000D02*
X33938400Y4625000D01*
D22*
X41310900Y4625000D02*
X64550000Y4625000D01*
D22*
X450000Y4875000D02*
X7800000Y4875000D01*
D22*
X10100000Y4875000D02*
X16220600Y4875000D01*
D22*
X18787000Y4875000D02*
X32274100Y4875000D01*
D22*
X33636300Y4875000D02*
X33688400Y4875000D01*
D22*
X35050500Y4875000D02*
X64550000Y4875000D01*
D22*
X450000Y5125000D02*
X7800000Y5125000D01*
D22*
X10100000Y5125000D02*
X16114200Y5125000D01*
D22*
X18537000Y5125000D02*
X32024100Y5125000D01*
D22*
X33386300Y5125000D02*
X33438400Y5125000D01*
D22*
X34800500Y5125000D02*
X64550000Y5125000D01*
D22*
X450000Y5375000D02*
X15864200Y5375000D01*
D22*
X18287000Y5375000D02*
X31774100Y5375000D01*
D22*
X33136300Y5375000D02*
X33188400Y5375000D01*
D22*
X34550500Y5375000D02*
X64550000Y5375000D01*
D22*
X450000Y5625000D02*
X15614200Y5625000D01*
D22*
X18037000Y5625000D02*
X31524100Y5625000D01*
D22*
X32886300Y5625000D02*
X32938400Y5625000D01*
D22*
X34300500Y5625000D02*
X64550000Y5625000D01*
D22*
X450000Y5875000D02*
X15364200Y5875000D01*
D22*
X17787000Y5875000D02*
X31274100Y5875000D01*
D22*
X32636300Y5875000D02*
X32688400Y5875000D01*
D22*
X34050500Y5875000D02*
X64550000Y5875000D01*
D22*
X450000Y6125000D02*
X15114200Y6125000D01*
D22*
X17537000Y6125000D02*
X31024100Y6125000D01*
D22*
X32386300Y6125000D02*
X32438400Y6125000D01*
D22*
X33800500Y6125000D02*
X64550000Y6125000D01*
D22*
X450000Y6375000D02*
X14864200Y6375000D01*
D22*
X17287000Y6375000D02*
X30774100Y6375000D01*
D22*
X32136300Y6375000D02*
X32188400Y6375000D01*
D22*
X33550500Y6375000D02*
X64550000Y6375000D01*
D22*
X450000Y6625000D02*
X14614200Y6625000D01*
D22*
X17037000Y6625000D02*
X30524100Y6625000D01*
D22*
X31886300Y6625000D02*
X31938400Y6625000D01*
D22*
X33300500Y6625000D02*
X64550000Y6625000D01*
D22*
X450000Y6875000D02*
X14364200Y6875000D01*
D22*
X16787000Y6875000D02*
X30274100Y6875000D01*
D22*
X31636300Y6875000D02*
X31688400Y6875000D01*
D22*
X33050500Y6875000D02*
X64550000Y6875000D01*
D22*
X450000Y7125000D02*
X14114200Y7125000D01*
D22*
X16537000Y7125000D02*
X30024100Y7125000D01*
D22*
X31386300Y7125000D02*
X31438400Y7125000D01*
D22*
X32800500Y7125000D02*
X64550000Y7125000D01*
D22*
X450000Y7375000D02*
X13864200Y7375000D01*
D22*
X16287000Y7375000D02*
X29774100Y7375000D01*
D22*
X31136300Y7375000D02*
X31188400Y7375000D01*
D22*
X32550500Y7375000D02*
X64550000Y7375000D01*
D22*
X450000Y7625000D02*
X13614200Y7625000D01*
D22*
X16037000Y7625000D02*
X29524100Y7625000D01*
D22*
X30886300Y7625000D02*
X30938400Y7625000D01*
D22*
X32300500Y7625000D02*
X64550000Y7625000D01*
D22*
X450000Y7875000D02*
X13364200Y7875000D01*
D22*
X15787000Y7875000D02*
X29274100Y7875000D01*
D22*
X30636300Y7875000D02*
X30688400Y7875000D01*
D22*
X32050500Y7875000D02*
X64550000Y7875000D01*
D22*
X450000Y8125000D02*
X13114200Y8125000D01*
D22*
X15537000Y8125000D02*
X29024100Y8125000D01*
D22*
X30386300Y8125000D02*
X30438400Y8125000D01*
D22*
X31800500Y8125000D02*
X64550000Y8125000D01*
D22*
X450000Y8375000D02*
X12864200Y8375000D01*
D22*
X15287000Y8375000D02*
X28774100Y8375000D01*
D22*
X30136300Y8375000D02*
X30188400Y8375000D01*
D22*
X31550500Y8375000D02*
X64550000Y8375000D01*
D22*
X450000Y8625000D02*
X12614200Y8625000D01*
D22*
X15037000Y8625000D02*
X28524100Y8625000D01*
D22*
X29886300Y8625000D02*
X29938400Y8625000D01*
D22*
X31300500Y8625000D02*
X64550000Y8625000D01*
D22*
X450000Y8875000D02*
X12364200Y8875000D01*
D22*
X14787000Y8875000D02*
X28274100Y8875000D01*
D22*
X29636300Y8875000D02*
X29688400Y8875000D01*
D22*
X31050500Y8875000D02*
X64550000Y8875000D01*
D22*
X450000Y9125000D02*
X12114200Y9125000D01*
D22*
X14537000Y9125000D02*
X28024100Y9125000D01*
D22*
X29386300Y9125000D02*
X29438400Y9125000D01*
D22*
X30800500Y9125000D02*
X64550000Y9125000D01*
D22*
X450000Y9375000D02*
X11971300Y9375000D01*
D22*
X14287000Y9375000D02*
X27774100Y9375000D01*
D22*
X29136300Y9375000D02*
X29188400Y9375000D01*
D22*
X30550500Y9375000D02*
X64550000Y9375000D01*
D22*
X450000Y9625000D02*
X11949400Y9625000D01*
D22*
X14037000Y9625000D02*
X27524100Y9625000D01*
D22*
X28886300Y9625000D02*
X28938400Y9625000D01*
D22*
X30300500Y9625000D02*
X64550000Y9625000D01*
D22*
X450000Y9875000D02*
X11949400Y9875000D01*
D22*
X13787000Y9875000D02*
X27274100Y9875000D01*
D22*
X28636300Y9875000D02*
X28688400Y9875000D01*
D22*
X30050500Y9875000D02*
X41420000Y9875000D01*
D22*
X43920000Y9875000D02*
X64550000Y9875000D01*
D22*
X450000Y10125000D02*
X11949400Y10125000D01*
D22*
X13506500Y10125000D02*
X27024100Y10125000D01*
D22*
X28386300Y10125000D02*
X28438400Y10125000D01*
D22*
X29800500Y10125000D02*
X40666600Y10125000D01*
D22*
X43920000Y10125000D02*
X64550000Y10125000D01*
D22*
X450000Y10375000D02*
X11949400Y10375000D01*
D22*
X13506500Y10375000D02*
X26774100Y10375000D01*
D22*
X28136300Y10375000D02*
X28188400Y10375000D01*
D22*
X43920000Y10375000D02*
X64550000Y10375000D01*
D22*
X450000Y10625000D02*
X11949400Y10625000D01*
D22*
X13506500Y10625000D02*
X26524100Y10625000D01*
D22*
X27886300Y10625000D02*
X27938400Y10625000D01*
D22*
X43920000Y10625000D02*
X64550000Y10625000D01*
D22*
X450000Y10875000D02*
X11949400Y10875000D01*
D22*
X13506500Y10875000D02*
X26274100Y10875000D01*
D22*
X27636300Y10875000D02*
X27688400Y10875000D01*
D22*
X43920000Y10875000D02*
X64550000Y10875000D01*
D22*
X450000Y11125000D02*
X11949400Y11125000D01*
D22*
X13506500Y11125000D02*
X26024100Y11125000D01*
D22*
X27386300Y11125000D02*
X27438400Y11125000D01*
D22*
X28800500Y11125000D02*
X28807100Y11125000D01*
D22*
X43920000Y11125000D02*
X64550000Y11125000D01*
D22*
X450000Y11375000D02*
X11270800Y11375000D01*
D22*
X13831500Y11375000D02*
X25774100Y11375000D01*
D22*
X27136300Y11375000D02*
X27188400Y11375000D01*
D22*
X28550500Y11375000D02*
X28901900Y11375000D01*
D22*
X43920000Y11375000D02*
X64550000Y11375000D01*
D22*
X450000Y11625000D02*
X11270800Y11625000D01*
D22*
X13831500Y11625000D02*
X25524100Y11625000D01*
D22*
X26886300Y11625000D02*
X26938400Y11625000D01*
D22*
X28300500Y11625000D02*
X34996700Y11625000D01*
D22*
X36421100Y11625000D02*
X41420000Y11625000D01*
D22*
X43920000Y11625000D02*
X64550000Y11625000D01*
D22*
X450000Y11875000D02*
X8197500Y11875000D01*
D22*
X9480200Y11875000D02*
X11270800Y11875000D01*
D22*
X13831500Y11875000D02*
X15975700Y11875000D01*
D22*
X17258300Y11875000D02*
X25274100Y11875000D01*
D22*
X26636300Y11875000D02*
X26688400Y11875000D01*
D22*
X28050500Y11875000D02*
X34958900Y11875000D01*
D22*
X37410900Y11875000D02*
X64550000Y11875000D01*
D22*
X450000Y12125000D02*
X8088800Y12125000D01*
D22*
X9588800Y12125000D02*
X11337900Y12125000D01*
D22*
X13764400Y12125000D02*
X15867000Y12125000D01*
D22*
X17367000Y12125000D02*
X25024100Y12125000D01*
D22*
X26386300Y12125000D02*
X26438400Y12125000D01*
D22*
X27800500Y12125000D02*
X34923600Y12125000D01*
D22*
X37519600Y12125000D02*
X64550000Y12125000D01*
D22*
X450000Y12375000D02*
X8088800Y12375000D01*
D22*
X17367000Y12375000D02*
X24774100Y12375000D01*
D22*
X26136300Y12375000D02*
X26188400Y12375000D01*
D22*
X27550500Y12375000D02*
X34673600Y12375000D01*
D22*
X37519600Y12375000D02*
X41420000Y12375000D01*
D22*
X43920000Y12375000D02*
X64550000Y12375000D01*
D22*
X450000Y12625000D02*
X8088800Y12625000D01*
D22*
X9588800Y12625000D02*
X15867000Y12625000D01*
D22*
X17367000Y12625000D02*
X18407700Y12625000D01*
D22*
X19776100Y12625000D02*
X24524100Y12625000D01*
D22*
X25886300Y12625000D02*
X25938400Y12625000D01*
D22*
X27300500Y12625000D02*
X34423600Y12625000D01*
D22*
X35785800Y12625000D02*
X35837900Y12625000D01*
D22*
X37519600Y12625000D02*
X41420000Y12625000D01*
D22*
X43920000Y12625000D02*
X64550000Y12625000D01*
D22*
X450000Y12875000D02*
X8198800Y12875000D01*
D22*
X9478900Y12875000D02*
X15977000Y12875000D01*
D22*
X17257100Y12875000D02*
X18341900Y12875000D01*
D22*
X19841900Y12875000D02*
X24274100Y12875000D01*
D22*
X25636300Y12875000D02*
X25688400Y12875000D01*
D22*
X27050500Y12875000D02*
X34173600Y12875000D01*
D22*
X35535800Y12875000D02*
X35587900Y12875000D01*
D22*
X37409600Y12875000D02*
X41420000Y12875000D01*
D22*
X43920000Y12875000D02*
X64550000Y12875000D01*
D22*
X450000Y13125000D02*
X17252700Y13125000D01*
D22*
X19841900Y13125000D02*
X24024100Y13125000D01*
D22*
X25386300Y13125000D02*
X25438400Y13125000D01*
D22*
X26800500Y13125000D02*
X33923600Y13125000D01*
D22*
X35285800Y13125000D02*
X35337900Y13125000D01*
D22*
X36700000Y13125000D02*
X41420000Y13125000D01*
D22*
X43920000Y13125000D02*
X64550000Y13125000D01*
D22*
X450000Y13375000D02*
X7073300Y13375000D01*
D22*
X8483000Y13375000D02*
X17252700Y13375000D01*
D22*
X18102700Y13375000D02*
X18341900Y13375000D01*
D22*
X19841900Y13375000D02*
X23774100Y13375000D01*
D22*
X25136300Y13375000D02*
X25188400Y13375000D01*
D22*
X26550500Y13375000D02*
X33673600Y13375000D01*
D22*
X35035800Y13375000D02*
X35087900Y13375000D01*
D22*
X36450000Y13375000D02*
X41420000Y13375000D01*
D22*
X43920000Y13375000D02*
X64550000Y13375000D01*
D22*
X450000Y13625000D02*
X6907100Y13625000D01*
D22*
X18102700Y13625000D02*
X18114800Y13625000D01*
D22*
X19361900Y13625000D02*
X23524100Y13625000D01*
D22*
X24886300Y13625000D02*
X24938400Y13625000D01*
D22*
X26300500Y13625000D02*
X33423600Y13625000D01*
D22*
X34785800Y13625000D02*
X34837900Y13625000D01*
D22*
X36200000Y13625000D02*
X41420000Y13625000D01*
D22*
X43920000Y13625000D02*
X64550000Y13625000D01*
D22*
X450000Y13875000D02*
X6657100Y13875000D01*
D22*
X19488300Y13875000D02*
X23274100Y13875000D01*
D22*
X24636300Y13875000D02*
X24688400Y13875000D01*
D22*
X26050500Y13875000D02*
X33173600Y13875000D01*
D22*
X34535800Y13875000D02*
X34587900Y13875000D01*
D22*
X35950000Y13875000D02*
X41420000Y13875000D01*
D22*
X43920000Y13875000D02*
X64550000Y13875000D01*
D22*
X450000Y14125000D02*
X2403400Y14125000D01*
D22*
X4667600Y14125000D02*
X6407100Y14125000D01*
D22*
X8515000Y14125000D02*
X13419500Y14125000D01*
D22*
X14864700Y14125000D02*
X17988300Y14125000D01*
D22*
X19488300Y14125000D02*
X23024100Y14125000D01*
D22*
X24386300Y14125000D02*
X24438400Y14125000D01*
D22*
X25800500Y14125000D02*
X32923600Y14125000D01*
D22*
X34285800Y14125000D02*
X34337900Y14125000D01*
D22*
X35700000Y14125000D02*
X41420000Y14125000D01*
D22*
X43920000Y14125000D02*
X64550000Y14125000D01*
D22*
X450000Y14375000D02*
X2403400Y14375000D01*
D22*
X4667600Y14375000D02*
X6157100Y14375000D01*
D22*
X7519300Y14375000D02*
X13392100Y14375000D01*
D22*
X14892100Y14375000D02*
X17988300Y14375000D01*
D22*
X19652300Y14375000D02*
X22774100Y14375000D01*
D22*
X24136300Y14375000D02*
X24188400Y14375000D01*
D22*
X25550500Y14375000D02*
X32673600Y14375000D01*
D22*
X34035800Y14375000D02*
X34087900Y14375000D01*
D22*
X35450000Y14375000D02*
X64550000Y14375000D01*
D22*
X450000Y14625000D02*
X2403400Y14625000D01*
D22*
X4667600Y14625000D02*
X5907100Y14625000D01*
D22*
X7269300Y14625000D02*
X13392100Y14625000D01*
D22*
X14952500Y14625000D02*
X18080500Y14625000D01*
D22*
X19902300Y14625000D02*
X22524100Y14625000D01*
D22*
X23886300Y14625000D02*
X23938400Y14625000D01*
D22*
X25300500Y14625000D02*
X32423600Y14625000D01*
D22*
X33785800Y14625000D02*
X33837900Y14625000D01*
D22*
X35200000Y14625000D02*
X64550000Y14625000D01*
D22*
X450000Y14875000D02*
X2403400Y14875000D01*
D22*
X4667600Y14875000D02*
X5657100Y14875000D01*
D22*
X7019300Y14875000D02*
X13423100Y14875000D01*
D22*
X15202500Y14875000D02*
X18790100Y14875000D01*
D22*
X20152300Y14875000D02*
X22274100Y14875000D01*
D22*
X23636300Y14875000D02*
X23688400Y14875000D01*
D22*
X25050500Y14875000D02*
X32173600Y14875000D01*
D22*
X33535800Y14875000D02*
X33587900Y14875000D01*
D22*
X34950000Y14875000D02*
X42690000Y14875000D01*
D22*
X45190000Y14875000D02*
X64550000Y14875000D01*
D22*
X450000Y15125000D02*
X2403400Y15125000D01*
D22*
X4667600Y15125000D02*
X5407100Y15125000D01*
D22*
X6769300Y15125000D02*
X7080700Y15125000D01*
D22*
X8475700Y15125000D02*
X14090400Y15125000D01*
D22*
X15452500Y15125000D02*
X19040100Y15125000D01*
D22*
X20402300Y15125000D02*
X22024100Y15125000D01*
D22*
X23386300Y15125000D02*
X23438400Y15125000D01*
D22*
X24800500Y15125000D02*
X31923600Y15125000D01*
D22*
X33285800Y15125000D02*
X33337900Y15125000D01*
D22*
X34700000Y15125000D02*
X42690000Y15125000D01*
D22*
X45190000Y15125000D02*
X64550000Y15125000D01*
D22*
X450000Y15375000D02*
X2403400Y15375000D01*
D22*
X4667600Y15375000D02*
X5157100Y15375000D01*
D22*
X6519300Y15375000D02*
X7028200Y15375000D01*
D22*
X8528200Y15375000D02*
X14340400Y15375000D01*
D22*
X15702500Y15375000D02*
X19290100Y15375000D01*
D22*
X20652300Y15375000D02*
X21774100Y15375000D01*
D22*
X23136300Y15375000D02*
X23188400Y15375000D01*
D22*
X24550500Y15375000D02*
X31673600Y15375000D01*
D22*
X33035800Y15375000D02*
X33087900Y15375000D01*
D22*
X34450000Y15375000D02*
X42690000Y15375000D01*
D22*
X45190000Y15375000D02*
X64550000Y15375000D01*
D22*
X450000Y15625000D02*
X2403400Y15625000D01*
D22*
X4667600Y15625000D02*
X4907100Y15625000D01*
D22*
X6269300Y15625000D02*
X7028200Y15625000D01*
D22*
X8528200Y15625000D02*
X14590400Y15625000D01*
D22*
X15952500Y15625000D02*
X19540100Y15625000D01*
D22*
X20902300Y15625000D02*
X21170300Y15625000D01*
D22*
X22886300Y15625000D02*
X22938400Y15625000D01*
D22*
X24300500Y15625000D02*
X31423600Y15625000D01*
D22*
X32785800Y15625000D02*
X32837900Y15625000D01*
D22*
X34200000Y15625000D02*
X42690000Y15625000D01*
D22*
X45190000Y15625000D02*
X64550000Y15625000D01*
D22*
X450000Y15875000D02*
X2403400Y15875000D01*
D22*
X4605100Y15875000D02*
X4657100Y15875000D01*
D22*
X6019300Y15875000D02*
X7034000Y15875000D01*
D22*
X8777900Y15875000D02*
X14840400Y15875000D01*
D22*
X16202500Y15875000D02*
X19790100Y15875000D01*
D22*
X21152300Y15875000D02*
X21170300Y15875000D01*
D22*
X22670300Y15875000D02*
X22909500Y15875000D01*
D22*
X24050500Y15875000D02*
X31173600Y15875000D01*
D22*
X32535800Y15875000D02*
X32587900Y15875000D01*
D22*
X33950000Y15875000D02*
X42690000Y15875000D01*
D22*
X45190000Y15875000D02*
X64550000Y15875000D01*
D22*
X450000Y16125000D02*
X2403400Y16125000D01*
D22*
X5769300Y16125000D02*
X7665800Y16125000D01*
D22*
X13624100Y16125000D02*
X15090400Y16125000D01*
D22*
X16452500Y16125000D02*
X20040100Y16125000D01*
D22*
X22670300Y16125000D02*
X22685800Y16125000D01*
D22*
X23983200Y16125000D02*
X30923600Y16125000D01*
D22*
X32285800Y16125000D02*
X32337900Y16125000D01*
D22*
X33700000Y16125000D02*
X42690000Y16125000D01*
D22*
X45190000Y16125000D02*
X64550000Y16125000D01*
D22*
X450000Y16375000D02*
X2403400Y16375000D01*
D22*
X5519300Y16375000D02*
X7915800Y16375000D01*
D22*
X13874100Y16375000D02*
X15340400Y16375000D01*
D22*
X16702500Y16375000D02*
X20290100Y16375000D01*
D22*
X24084500Y16375000D02*
X30673600Y16375000D01*
D22*
X32035800Y16375000D02*
X32087900Y16375000D01*
D22*
X33450000Y16375000D02*
X42690000Y16375000D01*
D22*
X45190000Y16375000D02*
X64550000Y16375000D01*
D22*
X450000Y16625000D02*
X2403400Y16625000D01*
D22*
X5346200Y16625000D02*
X12762000Y16625000D01*
D22*
X14124100Y16625000D02*
X15590400Y16625000D01*
D22*
X16952500Y16625000D02*
X20540100Y16625000D01*
D22*
X21902300Y16625000D02*
X22584500Y16625000D01*
D22*
X24084500Y16625000D02*
X30423600Y16625000D01*
D22*
X31785800Y16625000D02*
X31837900Y16625000D01*
D22*
X33200000Y16625000D02*
X42690000Y16625000D01*
D22*
X45190000Y16625000D02*
X64550000Y16625000D01*
D22*
X450000Y16875000D02*
X2403400Y16875000D01*
D22*
X5535300Y16875000D02*
X7441600Y16875000D01*
D22*
X8821900Y16875000D02*
X13012000Y16875000D01*
D22*
X14374100Y16875000D02*
X15840400Y16875000D01*
D22*
X17202500Y16875000D02*
X19816000Y16875000D01*
D22*
X22152300Y16875000D02*
X22584500Y16875000D01*
D22*
X24084500Y16875000D02*
X30173600Y16875000D01*
D22*
X31535800Y16875000D02*
X31587900Y16875000D01*
D22*
X32950000Y16875000D02*
X64550000Y16875000D01*
D22*
X450000Y17125000D02*
X2403400Y17125000D01*
D22*
X5785300Y17125000D02*
X7381700Y17125000D01*
D22*
X14624100Y17125000D02*
X16090400Y17125000D01*
D22*
X22402300Y17125000D02*
X22701800Y17125000D01*
D22*
X23967200Y17125000D02*
X29923600Y17125000D01*
D22*
X31285800Y17125000D02*
X31337900Y17125000D01*
D22*
X32700000Y17125000D02*
X64550000Y17125000D01*
D22*
X450000Y17375000D02*
X2403400Y17375000D01*
D22*
X6035300Y17375000D02*
X6321100Y17375000D01*
D22*
X14874100Y17375000D02*
X16340400Y17375000D01*
D22*
X21256100Y17375000D02*
X21290100Y17375000D01*
D22*
X22652300Y17375000D02*
X29673600Y17375000D01*
D22*
X31035800Y17375000D02*
X31087900Y17375000D01*
D22*
X32450000Y17375000D02*
X64550000Y17375000D01*
D22*
X450000Y17625000D02*
X2403400Y17625000D01*
D22*
X6285300Y17625000D02*
X6321100Y17625000D01*
D22*
X8881700Y17625000D02*
X12701300Y17625000D01*
D22*
X15124100Y17625000D02*
X19756100Y17625000D01*
D22*
X21256100Y17625000D02*
X21540100Y17625000D01*
D22*
X22902300Y17625000D02*
X29423600Y17625000D01*
D22*
X30785800Y17625000D02*
X30837900Y17625000D01*
D22*
X32200000Y17625000D02*
X64550000Y17625000D01*
D22*
X450000Y17875000D02*
X2403400Y17875000D01*
D22*
X7949500Y17875000D02*
X12951300Y17875000D01*
D22*
X15374100Y17875000D02*
X21790100Y17875000D01*
D22*
X23152300Y17875000D02*
X29173600Y17875000D01*
D22*
X30535800Y17875000D02*
X30587900Y17875000D01*
D22*
X31950000Y17875000D02*
X64550000Y17875000D01*
D22*
X450000Y18125000D02*
X2403400Y18125000D01*
D22*
X8199500Y18125000D02*
X13201300Y18125000D01*
D22*
X15624100Y18125000D02*
X22040100Y18125000D01*
D22*
X23402300Y18125000D02*
X28923600Y18125000D01*
D22*
X30285800Y18125000D02*
X30337900Y18125000D01*
D22*
X31700000Y18125000D02*
X64550000Y18125000D01*
D22*
X450000Y18375000D02*
X2491100Y18375000D01*
D22*
X7035300Y18375000D02*
X7087300Y18375000D01*
D22*
X8449500Y18375000D02*
X13451300Y18375000D01*
D22*
X15874100Y18375000D02*
X22290100Y18375000D01*
D22*
X23652300Y18375000D02*
X28673600Y18375000D01*
D22*
X30035800Y18375000D02*
X30087900Y18375000D01*
D22*
X31450000Y18375000D02*
X64550000Y18375000D01*
D22*
X450000Y18625000D02*
X2741100Y18625000D01*
D22*
X7285300Y18625000D02*
X7337300Y18625000D01*
D22*
X8699500Y18625000D02*
X13701300Y18625000D01*
D22*
X16124100Y18625000D02*
X22540100Y18625000D01*
D22*
X23902300Y18625000D02*
X28423600Y18625000D01*
D22*
X29785800Y18625000D02*
X29837900Y18625000D01*
D22*
X31200000Y18625000D02*
X64550000Y18625000D01*
D22*
X450000Y18875000D02*
X2991100Y18875000D01*
D22*
X7535300Y18875000D02*
X7587300Y18875000D01*
D22*
X8949500Y18875000D02*
X13951300Y18875000D01*
D22*
X16374100Y18875000D02*
X22790100Y18875000D01*
D22*
X24152300Y18875000D02*
X28173600Y18875000D01*
D22*
X29535800Y18875000D02*
X29587900Y18875000D01*
D22*
X30950000Y18875000D02*
X64550000Y18875000D01*
D22*
X450000Y19125000D02*
X3241100Y19125000D01*
D22*
X7785300Y19125000D02*
X7837300Y19125000D01*
D22*
X9199500Y19125000D02*
X14201300Y19125000D01*
D22*
X16624100Y19125000D02*
X23040100Y19125000D01*
D22*
X24402300Y19125000D02*
X27923600Y19125000D01*
D22*
X29285800Y19125000D02*
X29337900Y19125000D01*
D22*
X30700000Y19125000D02*
X64550000Y19125000D01*
D22*
X450000Y19375000D02*
X3491100Y19375000D01*
D22*
X8035300Y19375000D02*
X8087300Y19375000D01*
D22*
X9449500Y19375000D02*
X14451300Y19375000D01*
D22*
X16874100Y19375000D02*
X23290100Y19375000D01*
D22*
X24652300Y19375000D02*
X27673600Y19375000D01*
D22*
X29035800Y19375000D02*
X29087900Y19375000D01*
D22*
X30450000Y19375000D02*
X64550000Y19375000D01*
D22*
X450000Y19625000D02*
X3741100Y19625000D01*
D22*
X8285300Y19625000D02*
X8337300Y19625000D01*
D22*
X9699500Y19625000D02*
X14701300Y19625000D01*
D22*
X17124100Y19625000D02*
X23540100Y19625000D01*
D22*
X24902300Y19625000D02*
X27423600Y19625000D01*
D22*
X28785800Y19625000D02*
X28837900Y19625000D01*
D22*
X30200000Y19625000D02*
X64550000Y19625000D01*
D22*
X450000Y19875000D02*
X3991100Y19875000D01*
D22*
X7062200Y19875000D02*
X7173100Y19875000D01*
D22*
X8535300Y19875000D02*
X8587300Y19875000D01*
D22*
X9949500Y19875000D02*
X14951300Y19875000D01*
D22*
X17374100Y19875000D02*
X23790100Y19875000D01*
D22*
X25152300Y19875000D02*
X27173600Y19875000D01*
D22*
X28535800Y19875000D02*
X28587900Y19875000D01*
D22*
X29950000Y19875000D02*
X64550000Y19875000D01*
D22*
X450000Y20125000D02*
X4241100Y20125000D01*
D22*
X6663900Y20125000D02*
X7423100Y20125000D01*
D22*
X8785300Y20125000D02*
X8837300Y20125000D01*
D22*
X10199500Y20125000D02*
X15201300Y20125000D01*
D22*
X17624100Y20125000D02*
X24040100Y20125000D01*
D22*
X25820600Y20125000D02*
X26923600Y20125000D01*
D22*
X28285800Y20125000D02*
X28337900Y20125000D01*
D22*
X29700000Y20125000D02*
X64550000Y20125000D01*
D22*
X450000Y20375000D02*
X4491100Y20375000D01*
D22*
X6913900Y20375000D02*
X7673100Y20375000D01*
D22*
X9035300Y20375000D02*
X9087300Y20375000D01*
D22*
X10449500Y20375000D02*
X15451300Y20375000D01*
D22*
X17874100Y20375000D02*
X24290100Y20375000D01*
D22*
X25852300Y20375000D02*
X26673600Y20375000D01*
D22*
X28035800Y20375000D02*
X28087900Y20375000D01*
D22*
X29450000Y20375000D02*
X64550000Y20375000D01*
D22*
X450000Y20625000D02*
X4741100Y20625000D01*
D22*
X7163900Y20625000D02*
X7923100Y20625000D01*
D22*
X9285300Y20625000D02*
X9337300Y20625000D01*
D22*
X10699500Y20625000D02*
X15701300Y20625000D01*
D22*
X18124100Y20625000D02*
X24352300Y20625000D01*
D22*
X25852300Y20625000D02*
X26423600Y20625000D01*
D22*
X27785800Y20625000D02*
X27837900Y20625000D01*
D22*
X29200000Y20625000D02*
X64550000Y20625000D01*
D22*
X450000Y20875000D02*
X4991100Y20875000D01*
D22*
X7413900Y20875000D02*
X8173100Y20875000D01*
D22*
X9535300Y20875000D02*
X9587300Y20875000D01*
D22*
X10949500Y20875000D02*
X15951300Y20875000D01*
D22*
X18374100Y20875000D02*
X24378900Y20875000D01*
D22*
X25825600Y20875000D02*
X26173600Y20875000D01*
D22*
X27535800Y20875000D02*
X27587900Y20875000D01*
D22*
X28950000Y20875000D02*
X64550000Y20875000D01*
D22*
X450000Y21125000D02*
X5241100Y21125000D01*
D22*
X7663900Y21125000D02*
X8423100Y21125000D01*
D22*
X9785300Y21125000D02*
X9837300Y21125000D01*
D22*
X11199500Y21125000D02*
X16201300Y21125000D01*
D22*
X19077900Y21125000D02*
X25923600Y21125000D01*
D22*
X27285800Y21125000D02*
X27337900Y21125000D01*
D22*
X28700000Y21125000D02*
X64550000Y21125000D01*
D22*
X450000Y21375000D02*
X5491100Y21375000D01*
D22*
X7913900Y21375000D02*
X8673100Y21375000D01*
D22*
X10035300Y21375000D02*
X10087300Y21375000D01*
D22*
X11449500Y21375000D02*
X16451300Y21375000D01*
D22*
X19134800Y21375000D02*
X25673600Y21375000D01*
D22*
X27035800Y21375000D02*
X27087900Y21375000D01*
D22*
X28450000Y21375000D02*
X64550000Y21375000D01*
D22*
X450000Y21625000D02*
X5741100Y21625000D01*
D22*
X8163900Y21625000D02*
X8923100Y21625000D01*
D22*
X10285300Y21625000D02*
X10337300Y21625000D01*
D22*
X11699500Y21625000D02*
X16701300Y21625000D01*
D22*
X19134800Y21625000D02*
X25423600Y21625000D01*
D22*
X26785800Y21625000D02*
X26837900Y21625000D01*
D22*
X28200000Y21625000D02*
X64550000Y21625000D01*
D22*
X450000Y21875000D02*
X5991100Y21875000D01*
D22*
X8413900Y21875000D02*
X9173100Y21875000D01*
D22*
X10535300Y21875000D02*
X10587300Y21875000D01*
D22*
X13085300Y21875000D02*
X15906100Y21875000D01*
D22*
X19133300Y21875000D02*
X25173600Y21875000D01*
D22*
X26535800Y21875000D02*
X26587900Y21875000D01*
D22*
X27950000Y21875000D02*
X64550000Y21875000D01*
D22*
X450000Y22125000D02*
X6241100Y22125000D01*
D22*
X8663900Y22125000D02*
X9423100Y22125000D01*
D22*
X10785300Y22125000D02*
X10837300Y22125000D01*
D22*
X13124400Y22125000D02*
X15867000Y22125000D01*
D22*
X18563400Y22125000D02*
X24923600Y22125000D01*
D22*
X26285800Y22125000D02*
X26337900Y22125000D01*
D22*
X27700000Y22125000D02*
X64550000Y22125000D01*
D22*
X450000Y22375000D02*
X6491100Y22375000D01*
D22*
X8913900Y22375000D02*
X9673100Y22375000D01*
D22*
X11035300Y22375000D02*
X11087300Y22375000D01*
D22*
X13124400Y22375000D02*
X15834800Y22375000D01*
D22*
X17367000Y22375000D02*
X17451300Y22375000D01*
D22*
X18813400Y22375000D02*
X24673600Y22375000D01*
D22*
X26035800Y22375000D02*
X26087900Y22375000D01*
D22*
X27450000Y22375000D02*
X64550000Y22375000D01*
D22*
X450000Y22625000D02*
X6741100Y22625000D01*
D22*
X9163900Y22625000D02*
X9923100Y22625000D01*
D22*
X11285300Y22625000D02*
X11643700Y22625000D01*
D22*
X13105100Y22625000D02*
X15584800Y22625000D01*
D22*
X17347700Y22625000D02*
X17701300Y22625000D01*
D22*
X19063400Y22625000D02*
X24423600Y22625000D01*
D22*
X25785800Y22625000D02*
X25837900Y22625000D01*
D22*
X27200000Y22625000D02*
X64550000Y22625000D01*
D22*
X450000Y22875000D02*
X6991100Y22875000D01*
D22*
X9413900Y22875000D02*
X9571900Y22875000D01*
D22*
X11535300Y22875000D02*
X15334800Y22875000D01*
D22*
X16696900Y22875000D02*
X17951300Y22875000D01*
D22*
X19313400Y22875000D02*
X24173600Y22875000D01*
D22*
X25535800Y22875000D02*
X25587900Y22875000D01*
D22*
X26950000Y22875000D02*
X64550000Y22875000D01*
D22*
X450000Y23125000D02*
X7241100Y23125000D01*
D22*
X11785300Y23125000D02*
X15084800Y23125000D01*
D22*
X16446900Y23125000D02*
X18201300Y23125000D01*
D22*
X19563400Y23125000D02*
X23923600Y23125000D01*
D22*
X25285800Y23125000D02*
X25337900Y23125000D01*
D22*
X26700000Y23125000D02*
X64550000Y23125000D01*
D22*
X450000Y23375000D02*
X7491100Y23375000D01*
D22*
X12035300Y23375000D02*
X14834800Y23375000D01*
D22*
X16196900Y23375000D02*
X18451300Y23375000D01*
D22*
X19813400Y23375000D02*
X23673600Y23375000D01*
D22*
X25035800Y23375000D02*
X25087900Y23375000D01*
D22*
X26450000Y23375000D02*
X64550000Y23375000D01*
D22*
X450000Y23625000D02*
X7741100Y23625000D01*
D22*
X9103300Y23625000D02*
X9503000Y23625000D01*
D22*
X12285300Y23625000D02*
X14584800Y23625000D01*
D22*
X15946900Y23625000D02*
X18701300Y23625000D01*
D22*
X20063400Y23625000D02*
X23423600Y23625000D01*
D22*
X24785800Y23625000D02*
X24837900Y23625000D01*
D22*
X26200000Y23625000D02*
X64550000Y23625000D01*
D22*
X450000Y23875000D02*
X7991100Y23875000D01*
D22*
X9895900Y23875000D02*
X11173100Y23875000D01*
D22*
X12535300Y23875000D02*
X14334800Y23875000D01*
D22*
X15696900Y23875000D02*
X18951300Y23875000D01*
D22*
X20202000Y23875000D02*
X21923900Y23875000D01*
D22*
X24535800Y23875000D02*
X24587900Y23875000D01*
D22*
X25950000Y23875000D02*
X64550000Y23875000D01*
D22*
X450000Y24125000D02*
X8241100Y24125000D01*
D22*
X9970900Y24125000D02*
X11423100Y24125000D01*
D22*
X12777400Y24125000D02*
X14092700Y24125000D01*
D22*
X15446900Y24125000D02*
X19201300Y24125000D01*
D22*
X20224000Y24125000D02*
X21848900Y24125000D01*
D22*
X24285800Y24125000D02*
X24345700Y24125000D01*
D22*
X25700000Y24125000D02*
X64550000Y24125000D01*
D22*
X450000Y24375000D02*
X7210000Y24375000D01*
D22*
X17150000Y24375000D02*
X19374000Y24375000D01*
D22*
X27310000Y24375000D02*
X27530000Y24375000D01*
D22*
X29850000Y24375000D02*
X30070000Y24375000D01*
D22*
X32390000Y24375000D02*
X32610000Y24375000D01*
D22*
X34930000Y24375000D02*
X35150000Y24375000D01*
D22*
X37470000Y24375000D02*
X40230000Y24375000D01*
D22*
X42550000Y24375000D02*
X42770000Y24375000D01*
D22*
X45090000Y24375000D02*
X45310000Y24375000D01*
D22*
X47630000Y24375000D02*
X47850000Y24375000D01*
D22*
X50170000Y24375000D02*
X50390000Y24375000D01*
D22*
X52710000Y24375000D02*
X52930000Y24375000D01*
D22*
X55250000Y24375000D02*
X64550000Y24375000D01*
D22*
X450000Y24625000D02*
X7210000Y24625000D01*
D22*
X17150000Y24625000D02*
X19374000Y24625000D01*
D22*
X27310000Y24625000D02*
X27530000Y24625000D01*
D22*
X29850000Y24625000D02*
X30070000Y24625000D01*
D22*
X32390000Y24625000D02*
X32610000Y24625000D01*
D22*
X34930000Y24625000D02*
X35150000Y24625000D01*
D22*
X37470000Y24625000D02*
X40230000Y24625000D01*
D22*
X42550000Y24625000D02*
X42770000Y24625000D01*
D22*
X45090000Y24625000D02*
X45310000Y24625000D01*
D22*
X47630000Y24625000D02*
X47850000Y24625000D01*
D22*
X50170000Y24625000D02*
X50390000Y24625000D01*
D22*
X52710000Y24625000D02*
X52930000Y24625000D01*
D22*
X55250000Y24625000D02*
X64550000Y24625000D01*
D22*
X450000Y24875000D02*
X7210000Y24875000D01*
D22*
X12070000Y24875000D02*
X12230400Y24875000D01*
D22*
X17150000Y24875000D02*
X19374000Y24875000D01*
D22*
X27310000Y24875000D02*
X27530000Y24875000D01*
D22*
X29850000Y24875000D02*
X30070000Y24875000D01*
D22*
X32390000Y24875000D02*
X32610000Y24875000D01*
D22*
X34930000Y24875000D02*
X35150000Y24875000D01*
D22*
X37470000Y24875000D02*
X40230000Y24875000D01*
D22*
X42550000Y24875000D02*
X42770000Y24875000D01*
D22*
X45090000Y24875000D02*
X45310000Y24875000D01*
D22*
X47630000Y24875000D02*
X47850000Y24875000D01*
D22*
X50170000Y24875000D02*
X50390000Y24875000D01*
D22*
X52710000Y24875000D02*
X52930000Y24875000D01*
D22*
X55250000Y24875000D02*
X64550000Y24875000D01*
D22*
X450000Y25125000D02*
X7210000Y25125000D01*
D22*
X12070000Y25125000D02*
X12290000Y25125000D01*
D22*
X17150000Y25125000D02*
X19374000Y25125000D01*
D22*
X27310000Y25125000D02*
X27530000Y25125000D01*
D22*
X29850000Y25125000D02*
X30070000Y25125000D01*
D22*
X32390000Y25125000D02*
X32610000Y25125000D01*
D22*
X34930000Y25125000D02*
X35150000Y25125000D01*
D22*
X37470000Y25125000D02*
X40230000Y25125000D01*
D22*
X42550000Y25125000D02*
X42770000Y25125000D01*
D22*
X45090000Y25125000D02*
X45310000Y25125000D01*
D22*
X47630000Y25125000D02*
X47850000Y25125000D01*
D22*
X50170000Y25125000D02*
X50390000Y25125000D01*
D22*
X52710000Y25125000D02*
X52930000Y25125000D01*
D22*
X55250000Y25125000D02*
X64550000Y25125000D01*
D22*
X450000Y25375000D02*
X7210000Y25375000D01*
D22*
X12070000Y25375000D02*
X12290000Y25375000D01*
D22*
X17150000Y25375000D02*
X19374000Y25375000D01*
D22*
X27310000Y25375000D02*
X27530000Y25375000D01*
D22*
X29850000Y25375000D02*
X30070000Y25375000D01*
D22*
X32390000Y25375000D02*
X32610000Y25375000D01*
D22*
X34930000Y25375000D02*
X35150000Y25375000D01*
D22*
X37470000Y25375000D02*
X40230000Y25375000D01*
D22*
X42550000Y25375000D02*
X42770000Y25375000D01*
D22*
X45090000Y25375000D02*
X45310000Y25375000D01*
D22*
X47630000Y25375000D02*
X47850000Y25375000D01*
D22*
X50170000Y25375000D02*
X50390000Y25375000D01*
D22*
X52710000Y25375000D02*
X52930000Y25375000D01*
D22*
X55250000Y25375000D02*
X64550000Y25375000D01*
D22*
X450000Y25625000D02*
X7210000Y25625000D01*
D22*
X12070000Y25625000D02*
X12290000Y25625000D01*
D22*
X17150000Y25625000D02*
X19374000Y25625000D01*
D22*
X27310000Y25625000D02*
X27530000Y25625000D01*
D22*
X29850000Y25625000D02*
X30070000Y25625000D01*
D22*
X32390000Y25625000D02*
X32610000Y25625000D01*
D22*
X34930000Y25625000D02*
X35150000Y25625000D01*
D22*
X37470000Y25625000D02*
X40230000Y25625000D01*
D22*
X42550000Y25625000D02*
X42770000Y25625000D01*
D22*
X45090000Y25625000D02*
X45310000Y25625000D01*
D22*
X47630000Y25625000D02*
X47850000Y25625000D01*
D22*
X50170000Y25625000D02*
X50390000Y25625000D01*
D22*
X52710000Y25625000D02*
X52930000Y25625000D01*
D22*
X55250000Y25625000D02*
X64550000Y25625000D01*
D22*
X450000Y25875000D02*
X7210000Y25875000D01*
D22*
X12070000Y25875000D02*
X12290000Y25875000D01*
D22*
X17150000Y25875000D02*
X19374000Y25875000D01*
D22*
X27310000Y25875000D02*
X27530000Y25875000D01*
D22*
X29850000Y25875000D02*
X30070000Y25875000D01*
D22*
X32390000Y25875000D02*
X32610000Y25875000D01*
D22*
X34930000Y25875000D02*
X35150000Y25875000D01*
D22*
X37470000Y25875000D02*
X40230000Y25875000D01*
D22*
X42550000Y25875000D02*
X42770000Y25875000D01*
D22*
X45090000Y25875000D02*
X45310000Y25875000D01*
D22*
X47630000Y25875000D02*
X47850000Y25875000D01*
D22*
X50170000Y25875000D02*
X50390000Y25875000D01*
D22*
X52710000Y25875000D02*
X52930000Y25875000D01*
D22*
X55250000Y25875000D02*
X64550000Y25875000D01*
D22*
X450000Y26125000D02*
X7210000Y26125000D01*
D22*
X12070000Y26125000D02*
X12290000Y26125000D01*
D22*
X17150000Y26125000D02*
X19374000Y26125000D01*
D22*
X27310000Y26125000D02*
X27530000Y26125000D01*
D22*
X29850000Y26125000D02*
X30070000Y26125000D01*
D22*
X32390000Y26125000D02*
X32610000Y26125000D01*
D22*
X34930000Y26125000D02*
X35150000Y26125000D01*
D22*
X37470000Y26125000D02*
X40230000Y26125000D01*
D22*
X42550000Y26125000D02*
X42770000Y26125000D01*
D22*
X45090000Y26125000D02*
X45310000Y26125000D01*
D22*
X47630000Y26125000D02*
X47850000Y26125000D01*
D22*
X50170000Y26125000D02*
X50390000Y26125000D01*
D22*
X52710000Y26125000D02*
X52930000Y26125000D01*
D22*
X55250000Y26125000D02*
X64550000Y26125000D01*
D22*
X450000Y26375000D02*
X8795900Y26375000D01*
D22*
X10295900Y26375000D02*
X11834800Y26375000D01*
D22*
X14920700Y26375000D02*
X19374000Y26375000D01*
D22*
X20338600Y26375000D02*
X21848900Y26375000D01*
D22*
X22698900Y26375000D02*
X23998700Y26375000D01*
D22*
X25498700Y26375000D02*
X64550000Y26375000D01*
D22*
X450000Y26625000D02*
X8795900Y26625000D01*
D22*
X10295900Y26625000D02*
X11617800Y26625000D01*
D22*
X14920700Y26625000D02*
X19374000Y26625000D01*
D22*
X20555600Y26625000D02*
X21848900Y26625000D01*
D22*
X22698900Y26625000D02*
X23998700Y26625000D01*
D22*
X25498700Y26625000D02*
X64550000Y26625000D01*
D22*
X450000Y26875000D02*
X7210000Y26875000D01*
D22*
X12696900Y26875000D02*
X14830000Y26875000D01*
D22*
X17150000Y26875000D02*
X17370000Y26875000D01*
D22*
X22698900Y26875000D02*
X24021100Y26875000D01*
D22*
X27310000Y26875000D02*
X27530000Y26875000D01*
D22*
X29850000Y26875000D02*
X32610000Y26875000D01*
D22*
X34930000Y26875000D02*
X35150000Y26875000D01*
D22*
X37470000Y26875000D02*
X37690000Y26875000D01*
D22*
X40010000Y26875000D02*
X40230000Y26875000D01*
D22*
X42550000Y26875000D02*
X45310000Y26875000D01*
D22*
X47630000Y26875000D02*
X50390000Y26875000D01*
D22*
X52710000Y26875000D02*
X52930000Y26875000D01*
D22*
X55250000Y26875000D02*
X55470000Y26875000D01*
D22*
X57790000Y26875000D02*
X64550000Y26875000D01*
D22*
X462300Y27125000D02*
X7210000Y27125000D01*
D22*
X9530000Y27125000D02*
X9750000Y27125000D01*
D22*
X12418000Y27125000D02*
X14830000Y27125000D01*
D22*
X17150000Y27125000D02*
X17370000Y27125000D01*
D22*
X19690000Y27125000D02*
X19750000Y27125000D01*
D22*
X22698900Y27125000D02*
X24990000Y27125000D01*
D22*
X27310000Y27125000D02*
X27530000Y27125000D01*
D22*
X29850000Y27125000D02*
X32610000Y27125000D01*
D22*
X34930000Y27125000D02*
X35150000Y27125000D01*
D22*
X37470000Y27125000D02*
X37690000Y27125000D01*
D22*
X40010000Y27125000D02*
X40230000Y27125000D01*
D22*
X42550000Y27125000D02*
X45310000Y27125000D01*
D22*
X47630000Y27125000D02*
X50390000Y27125000D01*
D22*
X52710000Y27125000D02*
X52930000Y27125000D01*
D22*
X55250000Y27125000D02*
X55470000Y27125000D01*
D22*
X57790000Y27125000D02*
X64537700Y27125000D01*
D22*
X486900Y27375000D02*
X7210000Y27375000D01*
D22*
X12144400Y27375000D02*
X14830000Y27375000D01*
D22*
X17150000Y27375000D02*
X17370000Y27375000D01*
D22*
X19690000Y27375000D02*
X19910000Y27375000D01*
D22*
X22698900Y27375000D02*
X24990000Y27375000D01*
D22*
X27310000Y27375000D02*
X27530000Y27375000D01*
D22*
X29850000Y27375000D02*
X32610000Y27375000D01*
D22*
X34930000Y27375000D02*
X35150000Y27375000D01*
D22*
X37470000Y27375000D02*
X37690000Y27375000D01*
D22*
X40010000Y27375000D02*
X40230000Y27375000D01*
D22*
X42550000Y27375000D02*
X45310000Y27375000D01*
D22*
X47630000Y27375000D02*
X50390000Y27375000D01*
D22*
X52710000Y27375000D02*
X52930000Y27375000D01*
D22*
X55250000Y27375000D02*
X55470000Y27375000D01*
D22*
X57790000Y27375000D02*
X64513100Y27375000D01*
D22*
X519700Y27625000D02*
X7210000Y27625000D01*
D22*
X12070000Y27625000D02*
X14830000Y27625000D01*
D22*
X17150000Y27625000D02*
X17370000Y27625000D01*
D22*
X19690000Y27625000D02*
X19910000Y27625000D01*
D22*
X22698900Y27625000D02*
X24990000Y27625000D01*
D22*
X27310000Y27625000D02*
X27530000Y27625000D01*
D22*
X29850000Y27625000D02*
X32610000Y27625000D01*
D22*
X34930000Y27625000D02*
X35150000Y27625000D01*
D22*
X37470000Y27625000D02*
X37690000Y27625000D01*
D22*
X40010000Y27625000D02*
X40230000Y27625000D01*
D22*
X42550000Y27625000D02*
X45310000Y27625000D01*
D22*
X47630000Y27625000D02*
X50390000Y27625000D01*
D22*
X52710000Y27625000D02*
X52930000Y27625000D01*
D22*
X55250000Y27625000D02*
X55470000Y27625000D01*
D22*
X57790000Y27625000D02*
X64480300Y27625000D01*
D22*
X595500Y27875000D02*
X7210000Y27875000D01*
D22*
X12070000Y27875000D02*
X14830000Y27875000D01*
D22*
X17150000Y27875000D02*
X17370000Y27875000D01*
D22*
X19690000Y27875000D02*
X19910000Y27875000D01*
D22*
X22698900Y27875000D02*
X24990000Y27875000D01*
D22*
X27310000Y27875000D02*
X27530000Y27875000D01*
D22*
X29850000Y27875000D02*
X32610000Y27875000D01*
D22*
X34930000Y27875000D02*
X35150000Y27875000D01*
D22*
X37470000Y27875000D02*
X37690000Y27875000D01*
D22*
X40010000Y27875000D02*
X40230000Y27875000D01*
D22*
X42550000Y27875000D02*
X45310000Y27875000D01*
D22*
X47630000Y27875000D02*
X50390000Y27875000D01*
D22*
X52710000Y27875000D02*
X52930000Y27875000D01*
D22*
X55250000Y27875000D02*
X55470000Y27875000D01*
D22*
X57790000Y27875000D02*
X64404500Y27875000D01*
D22*
X671400Y28125000D02*
X7210000Y28125000D01*
D22*
X12070000Y28125000D02*
X14830000Y28125000D01*
D22*
X17150000Y28125000D02*
X17370000Y28125000D01*
D22*
X19690000Y28125000D02*
X19910000Y28125000D01*
D22*
X22698900Y28125000D02*
X24990000Y28125000D01*
D22*
X27310000Y28125000D02*
X27530000Y28125000D01*
D22*
X29850000Y28125000D02*
X32610000Y28125000D01*
D22*
X34930000Y28125000D02*
X35150000Y28125000D01*
D22*
X37470000Y28125000D02*
X37690000Y28125000D01*
D22*
X40010000Y28125000D02*
X40230000Y28125000D01*
D22*
X42550000Y28125000D02*
X45310000Y28125000D01*
D22*
X47630000Y28125000D02*
X50390000Y28125000D01*
D22*
X52710000Y28125000D02*
X52930000Y28125000D01*
D22*
X55250000Y28125000D02*
X55470000Y28125000D01*
D22*
X57790000Y28125000D02*
X64328600Y28125000D01*
D22*
X799700Y28375000D02*
X7210000Y28375000D01*
D22*
X9648100Y28375000D02*
X9750000Y28375000D01*
D22*
X12070000Y28375000D02*
X14830000Y28375000D01*
D22*
X17150000Y28375000D02*
X17370000Y28375000D01*
D22*
X19847000Y28375000D02*
X19910000Y28375000D01*
D22*
X22698900Y28375000D02*
X24990000Y28375000D01*
D22*
X27310000Y28375000D02*
X27530000Y28375000D01*
D22*
X29850000Y28375000D02*
X32610000Y28375000D01*
D22*
X34930000Y28375000D02*
X35150000Y28375000D01*
D22*
X37470000Y28375000D02*
X37690000Y28375000D01*
D22*
X40010000Y28375000D02*
X40230000Y28375000D01*
D22*
X42550000Y28375000D02*
X45310000Y28375000D01*
D22*
X47630000Y28375000D02*
X50390000Y28375000D01*
D22*
X52710000Y28375000D02*
X52930000Y28375000D01*
D22*
X55250000Y28375000D02*
X55470000Y28375000D01*
D22*
X57790000Y28375000D02*
X64200300Y28375000D01*
D22*
X933300Y28625000D02*
X7210000Y28625000D01*
D22*
X9530000Y28625000D02*
X9750000Y28625000D01*
D22*
X12070000Y28625000D02*
X14830000Y28625000D01*
D22*
X17150000Y28625000D02*
X17370000Y28625000D01*
D22*
X22698900Y28625000D02*
X24990000Y28625000D01*
D22*
X27310000Y28625000D02*
X27530000Y28625000D01*
D22*
X29850000Y28625000D02*
X32610000Y28625000D01*
D22*
X34930000Y28625000D02*
X35150000Y28625000D01*
D22*
X37470000Y28625000D02*
X37690000Y28625000D01*
D22*
X40010000Y28625000D02*
X40230000Y28625000D01*
D22*
X42550000Y28625000D02*
X45310000Y28625000D01*
D22*
X47630000Y28625000D02*
X50390000Y28625000D01*
D22*
X52710000Y28625000D02*
X52930000Y28625000D01*
D22*
X55250000Y28625000D02*
X55470000Y28625000D01*
D22*
X57790000Y28625000D02*
X64066700Y28625000D01*
D22*
X1126500Y28875000D02*
X19042400Y28875000D01*
D22*
X22698900Y28875000D02*
X63873500Y28875000D01*
D22*
X1333200Y29125000D02*
X19251500Y29125000D01*
D22*
X22623900Y29125000D02*
X63666800Y29125000D01*
D22*
X1637800Y29375000D02*
X63362200Y29375000D01*
D22*
X2027600Y29625000D02*
X62972400Y29625000D01*
D22*
X2642700Y29875000D02*
X62357300Y29875000D01*
M02*
