%FSLAX46Y46*%
%MOMM*%
%TF.GenerationSoftware,ce-cad,cecad.pcbfab,1.0*%
%TF.FileFunction,Copper,L2,Bot*%
%TF.FilePolarity,Positive*%
%TF.ProjectId,microduck_robot_hat,,*%
G04 layer B.Cu — ce-cad*
G04 numbers in this file are TRANSCRIBED, not measured; see README.txt*
%LPD*%
G01*
%ADD10R,1.620000X1.620000*%
%ADD11C,1.620000*%
%ADD12C,0.800000*%
%ADD13C,1.800000*%
%ADD14R,1.600000X1.600000*%
%ADD15C,1.600000*%
%ADD16R,1.500000X1.500000*%
%ADD17C,1.500000*%
%ADD18R,1.300000X1.300000*%
%ADD19C,1.300000*%
%ADD20C,0.400000*%
%ADD21C,0.150000*%
%ADD22C,0.300000*%
%ADD23R,0.250000X0.250000*%
D10*
X8370000Y25230000D03*
D11*
X10910000Y25230000D03*
D11*
X13450000Y25230000D03*
D11*
X15990000Y25230000D03*
D11*
X18530000Y25230000D03*
D11*
X21070000Y25230000D03*
D11*
X23610000Y25230000D03*
D11*
X26150000Y25230000D03*
D11*
X28690000Y25230000D03*
D11*
X31230000Y25230000D03*
D11*
X33770000Y25230000D03*
D11*
X36310000Y25230000D03*
D11*
X38850000Y25230000D03*
D11*
X41390000Y25230000D03*
D11*
X43930000Y25230000D03*
D11*
X46470000Y25230000D03*
D11*
X49010000Y25230000D03*
D11*
X51550000Y25230000D03*
D11*
X54090000Y25230000D03*
D11*
X56630000Y25230000D03*
D11*
X8370000Y27770000D03*
D11*
X10910000Y27770000D03*
D11*
X13450000Y27770000D03*
D11*
X15990000Y27770000D03*
D11*
X18530000Y27770000D03*
D11*
X21070000Y27770000D03*
D11*
X23610000Y27770000D03*
D11*
X26150000Y27770000D03*
D11*
X28690000Y27770000D03*
D11*
X31230000Y27770000D03*
D11*
X33770000Y27770000D03*
D11*
X36310000Y27770000D03*
D11*
X38850000Y27770000D03*
D11*
X41390000Y27770000D03*
D11*
X43930000Y27770000D03*
D11*
X46470000Y27770000D03*
D11*
X49010000Y27770000D03*
D11*
X51550000Y27770000D03*
D11*
X54090000Y27770000D03*
D11*
X56630000Y27770000D03*
D12*
X10425000Y14425000D03*
D12*
X10425000Y15575000D03*
D12*
X11575000Y14425000D03*
D12*
X11575000Y15575000D03*
D13*
X41970000Y3120000D03*
D13*
X41970000Y5660000D03*
D13*
X41970000Y8200000D03*
D13*
X41970000Y10740000D03*
D13*
X41970000Y13280000D03*
D13*
X43240000Y15820000D03*
D14*
X8950000Y4200000D03*
D15*
X11450000Y4200000D03*
D16*
X25850000Y3600000D03*
D17*
X28350000Y3600000D03*
D17*
X30850000Y3600000D03*
D18*
X36000000Y3600000D03*
D19*
X38000000Y3600000D03*
D18*
X16650000Y3600000D03*
D19*
X18650000Y3600000D03*
D19*
X20650000Y3600000D03*
D20*
X8370000Y25230000D02*
X8370000Y23300000D01*
X41000000Y23300000D01*
D20*
X8370000Y27770000D02*
X9192388Y27577164D01*
X9899495Y27577164D01*
X10910000Y27770000D01*
D20*
X15556349Y20506097D02*
X31112698Y4949747D01*
X39597980Y4949747D01*
X41012193Y3535534D01*
X41970000Y3120000D01*
D21*
X13450000Y25230000D02*
X12374369Y26162951D01*
X12020815Y26516504D01*
X7424621Y26516504D01*
X4596194Y23688077D01*
X4596194Y16617009D01*
D21*
X9899495Y19798990D02*
X5656854Y15556349D01*
D21*
X31466252Y6010408D02*
X31466252Y10606602D01*
D21*
X18650000Y3600000D02*
X18031223Y4596194D01*
X13081475Y9545942D01*
D21*
X20650000Y3600000D02*
X20152543Y4596194D01*
X13081475Y11667262D01*
X12374369Y11667262D01*
D21*
X7778175Y13788582D02*
X8485281Y13081475D01*
X19091883Y13081475D01*
D21*
X19445436Y21213203D02*
X13435029Y21213203D01*
X10606602Y18384776D01*
D21*
X36000000Y3600000D02*
X35001786Y3181981D01*
X34294679Y2474874D01*
X23688077Y2474874D01*
X13788582Y12374369D01*
D21*
X37123106Y5656854D02*
X32526912Y10253048D01*
X32526912Y11667262D01*
X25455844Y11667262D01*
D21*
X18530000Y27770000D02*
X19445436Y26870058D01*
X19798990Y26516504D01*
X19798990Y24041631D01*
X24748737Y24041631D01*
D21*
X27930718Y21920310D02*
X27930718Y20859650D01*
X38890873Y9899495D01*
D22*
X5656854Y13576450D02*
X8485281Y16404877D01*
X18101934Y16404877D01*
X22061732Y12445079D01*
D21*
X11450000Y4200000D02*
X12374369Y4596194D01*
X16263456Y4596194D01*
X16650000Y3600000D01*
D21*
X11450000Y4200000D02*
X12020815Y5303301D01*
X12020815Y9545942D01*
D21*
X12374369Y10253048D02*
X13788582Y10253048D01*
X13788582Y9899495D01*
X14142136Y9545942D01*
D21*
X14495689Y13788582D02*
X14495689Y15202796D01*
D12*
X38500000Y11650000D03*
D12*
X30627253Y8500000D03*
D12*
X35901575Y8200000D03*
D12*
X35500000Y15877253D03*
D12*
X11727253Y9300000D03*
D12*
X16100000Y12227253D03*
D12*
X8327253Y8400000D03*
D12*
X17227253Y20600000D03*
D12*
X22727253Y20600000D03*
D12*
X15556349Y20506097D03*
D12*
X4596194Y16617009D03*
D12*
X9899495Y19798990D03*
D12*
X5656854Y15556349D03*
D12*
X31466252Y6010408D03*
D12*
X31466252Y10606602D03*
D12*
X13081475Y9545942D03*
D12*
X12374369Y11667262D03*
D12*
X7778175Y13788582D03*
D12*
X19091883Y13081475D03*
D12*
X19445436Y21213203D03*
D12*
X10606602Y18384776D03*
D12*
X13788582Y12374369D03*
D12*
X37123106Y5656854D03*
D12*
X25455844Y11667262D03*
D12*
X24748737Y24041631D03*
D12*
X27930718Y21920310D03*
D12*
X38890873Y9899495D03*
D12*
X5656854Y13576450D03*
D12*
X22061732Y12445079D03*
D12*
X12020815Y9545942D03*
D12*
X12374369Y10253048D03*
D12*
X14142136Y9545942D03*
D12*
X14495689Y13788582D03*
D12*
X14495689Y15202796D03*
D23*
X2642700Y125000D02*
X62357300Y125000D01*
D23*
X2027600Y375000D02*
X62972400Y375000D01*
D23*
X1637800Y625000D02*
X63362200Y625000D01*
D23*
X1333200Y875000D02*
X63666800Y875000D01*
D23*
X1126500Y1125000D02*
X63873500Y1125000D01*
D23*
X933300Y1375000D02*
X64066700Y1375000D01*
D23*
X799700Y1625000D02*
X64200300Y1625000D01*
D23*
X671400Y1875000D02*
X64328600Y1875000D01*
D23*
X595500Y2125000D02*
X40720000Y2125000D01*
D23*
X43220000Y2125000D02*
X64404500Y2125000D01*
D23*
X519700Y2375000D02*
X23106900Y2375000D01*
D23*
X34875900Y2375000D02*
X40720000Y2375000D01*
D23*
X43220000Y2375000D02*
X64480300Y2375000D01*
D23*
X486900Y2625000D02*
X22856900Y2625000D01*
D23*
X35125900Y2625000D02*
X40720000Y2625000D01*
D23*
X43220000Y2625000D02*
X64513100Y2625000D01*
D23*
X462300Y2875000D02*
X17650000Y2875000D01*
D23*
X19650000Y2875000D02*
X19650000Y2875000D01*
D23*
X21650000Y2875000D02*
X22606900Y2875000D01*
D23*
X23969000Y2875000D02*
X27250000Y2875000D01*
D23*
X29450000Y2875000D02*
X29750000Y2875000D01*
D23*
X31950000Y2875000D02*
X34013700Y2875000D01*
D23*
X37000000Y2875000D02*
X37000000Y2875000D01*
D23*
X39000000Y2875000D02*
X40720000Y2875000D01*
D23*
X43220000Y2875000D02*
X64537700Y2875000D01*
D23*
X450000Y3125000D02*
X17650000Y3125000D01*
D23*
X19650000Y3125000D02*
X19650000Y3125000D01*
D23*
X21650000Y3125000D02*
X22356900Y3125000D01*
D23*
X23719000Y3125000D02*
X27250000Y3125000D01*
D23*
X29450000Y3125000D02*
X29750000Y3125000D01*
D23*
X31950000Y3125000D02*
X34263700Y3125000D01*
D23*
X37000000Y3125000D02*
X37000000Y3125000D01*
D23*
X39000000Y3125000D02*
X40587300Y3125000D01*
D23*
X43220000Y3125000D02*
X64550000Y3125000D01*
D23*
X450000Y3375000D02*
X7800000Y3375000D01*
D23*
X10100000Y3375000D02*
X17650000Y3375000D01*
D23*
X19650000Y3375000D02*
X19650000Y3375000D01*
D23*
X21650000Y3375000D02*
X22106900Y3375000D01*
D23*
X23469000Y3375000D02*
X27250000Y3375000D01*
D23*
X29450000Y3375000D02*
X29750000Y3375000D01*
D23*
X31950000Y3375000D02*
X34622800Y3375000D01*
D23*
X37000000Y3375000D02*
X37000000Y3375000D01*
D23*
X39000000Y3375000D02*
X40314900Y3375000D01*
D23*
X43220000Y3375000D02*
X64550000Y3375000D01*
D23*
X450000Y3625000D02*
X7800000Y3625000D01*
D23*
X10100000Y3625000D02*
X17650000Y3625000D01*
D23*
X19650000Y3625000D02*
X19650000Y3625000D01*
D23*
X21650000Y3625000D02*
X21856900Y3625000D01*
D23*
X23219000Y3625000D02*
X27250000Y3625000D01*
D23*
X29450000Y3625000D02*
X29750000Y3625000D01*
D23*
X31950000Y3625000D02*
X34978200Y3625000D01*
D23*
X37000000Y3625000D02*
X37000000Y3625000D01*
D23*
X39000000Y3625000D02*
X40064900Y3625000D01*
D23*
X43220000Y3625000D02*
X64550000Y3625000D01*
D23*
X450000Y3875000D02*
X7800000Y3875000D01*
D23*
X10100000Y3875000D02*
X17650000Y3875000D01*
D23*
X19650000Y3875000D02*
X19650000Y3875000D01*
D23*
X22969000Y3875000D02*
X27250000Y3875000D01*
D23*
X29450000Y3875000D02*
X29750000Y3875000D01*
D23*
X31950000Y3875000D02*
X35000000Y3875000D01*
D23*
X37000000Y3875000D02*
X37000000Y3875000D01*
D23*
X39000000Y3875000D02*
X39814900Y3875000D01*
D23*
X43220000Y3875000D02*
X64550000Y3875000D01*
D23*
X450000Y4125000D02*
X7800000Y4125000D01*
D23*
X10100000Y4125000D02*
X17650000Y4125000D01*
D23*
X19650000Y4125000D02*
X19650000Y4125000D01*
D23*
X22719000Y4125000D02*
X27250000Y4125000D01*
D23*
X29450000Y4125000D02*
X29750000Y4125000D01*
D23*
X31950000Y4125000D02*
X35000000Y4125000D01*
D23*
X37000000Y4125000D02*
X37000000Y4125000D01*
D23*
X39000000Y4125000D02*
X39564900Y4125000D01*
D23*
X43220000Y4125000D02*
X64550000Y4125000D01*
D23*
X450000Y4375000D02*
X7800000Y4375000D01*
D23*
X10100000Y4375000D02*
X17617500Y4375000D01*
D23*
X19650000Y4375000D02*
X19650000Y4375000D01*
D23*
X22469000Y4375000D02*
X27250000Y4375000D01*
D23*
X29450000Y4375000D02*
X29750000Y4375000D01*
D23*
X31950000Y4375000D02*
X35000000Y4375000D01*
D23*
X37000000Y4375000D02*
X37000000Y4375000D01*
D23*
X39000000Y4375000D02*
X39314900Y4375000D01*
D23*
X41030600Y4375000D02*
X64550000Y4375000D01*
D23*
X450000Y4625000D02*
X7800000Y4625000D01*
D23*
X10100000Y4625000D02*
X17321400Y4625000D01*
D23*
X18591400Y4625000D02*
X19442700Y4625000D01*
D23*
X20684300Y4625000D02*
X20856900Y4625000D01*
D23*
X22219000Y4625000D02*
X30762700Y4625000D01*
D23*
X40780600Y4625000D02*
X64550000Y4625000D01*
D23*
X450000Y4875000D02*
X7800000Y4875000D01*
D23*
X10100000Y4875000D02*
X17071400Y4875000D01*
D23*
X18433500Y4875000D02*
X19192700Y4875000D01*
D23*
X20554800Y4875000D02*
X20606900Y4875000D01*
D23*
X21969000Y4875000D02*
X30329600Y4875000D01*
D23*
X40530600Y4875000D02*
X64550000Y4875000D01*
D23*
X450000Y5125000D02*
X7800000Y5125000D01*
D23*
X10100000Y5125000D02*
X16821400Y5125000D01*
D23*
X18183500Y5125000D02*
X18942700Y5125000D01*
D23*
X20304800Y5125000D02*
X20356900Y5125000D01*
D23*
X21719000Y5125000D02*
X30079600Y5125000D01*
D23*
X40280600Y5125000D02*
X64550000Y5125000D01*
D23*
X450000Y5375000D02*
X16571400Y5375000D01*
D23*
X17933500Y5375000D02*
X18692700Y5375000D01*
D23*
X20054800Y5375000D02*
X20106900Y5375000D01*
D23*
X21469000Y5375000D02*
X29829600Y5375000D01*
D23*
X31545300Y5375000D02*
X36373100Y5375000D01*
D23*
X37873100Y5375000D02*
X64550000Y5375000D01*
D23*
X450000Y5625000D02*
X16321400Y5625000D01*
D23*
X17683500Y5625000D02*
X18442700Y5625000D01*
D23*
X19804800Y5625000D02*
X19856900Y5625000D01*
D23*
X21219000Y5625000D02*
X29579600Y5625000D01*
D23*
X32182800Y5625000D02*
X36373100Y5625000D01*
D23*
X37873100Y5625000D02*
X64550000Y5625000D01*
D23*
X450000Y5875000D02*
X16071400Y5875000D01*
D23*
X17433500Y5875000D02*
X18192700Y5875000D01*
D23*
X19554800Y5875000D02*
X19606900Y5875000D01*
D23*
X20969000Y5875000D02*
X29329600Y5875000D01*
D23*
X32216300Y5875000D02*
X36223900Y5875000D01*
D23*
X37873100Y5875000D02*
X64550000Y5875000D01*
D23*
X450000Y6125000D02*
X15821400Y6125000D01*
D23*
X17183500Y6125000D02*
X17942700Y6125000D01*
D23*
X19304800Y6125000D02*
X19356900Y6125000D01*
D23*
X20719000Y6125000D02*
X29079600Y6125000D01*
D23*
X32216300Y6125000D02*
X35973900Y6125000D01*
D23*
X37795600Y6125000D02*
X64550000Y6125000D01*
D23*
X450000Y6375000D02*
X15571400Y6375000D01*
D23*
X16933500Y6375000D02*
X17692700Y6375000D01*
D23*
X19054800Y6375000D02*
X19106900Y6375000D01*
D23*
X20469000Y6375000D02*
X28829600Y6375000D01*
D23*
X30545300Y6375000D02*
X30741100Y6375000D01*
D23*
X32191400Y6375000D02*
X35723900Y6375000D01*
D23*
X37086000Y6375000D02*
X64550000Y6375000D01*
D23*
X450000Y6625000D02*
X15321400Y6625000D01*
D23*
X16683500Y6625000D02*
X17442700Y6625000D01*
D23*
X18804800Y6625000D02*
X18856900Y6625000D01*
D23*
X20219000Y6625000D02*
X28579600Y6625000D01*
D23*
X30295300Y6625000D02*
X31041300Y6625000D01*
D23*
X31891300Y6625000D02*
X35473900Y6625000D01*
D23*
X36836000Y6625000D02*
X64550000Y6625000D01*
D23*
X450000Y6875000D02*
X15071400Y6875000D01*
D23*
X16433500Y6875000D02*
X17192700Y6875000D01*
D23*
X18554800Y6875000D02*
X18606900Y6875000D01*
D23*
X19969000Y6875000D02*
X28329600Y6875000D01*
D23*
X30045300Y6875000D02*
X31041300Y6875000D01*
D23*
X31891300Y6875000D02*
X35223900Y6875000D01*
D23*
X36586000Y6875000D02*
X64550000Y6875000D01*
D23*
X450000Y7125000D02*
X14821400Y7125000D01*
D23*
X16183500Y7125000D02*
X16942700Y7125000D01*
D23*
X18304800Y7125000D02*
X18356900Y7125000D01*
D23*
X19719000Y7125000D02*
X28079600Y7125000D01*
D23*
X29795300Y7125000D02*
X31041300Y7125000D01*
D23*
X31891300Y7125000D02*
X34973900Y7125000D01*
D23*
X36336000Y7125000D02*
X64550000Y7125000D01*
D23*
X450000Y7375000D02*
X14571400Y7375000D01*
D23*
X15933500Y7375000D02*
X16692700Y7375000D01*
D23*
X18054800Y7375000D02*
X18106900Y7375000D01*
D23*
X19469000Y7375000D02*
X27829600Y7375000D01*
D23*
X29545300Y7375000D02*
X31041300Y7375000D01*
D23*
X31891300Y7375000D02*
X34723900Y7375000D01*
D23*
X36086000Y7375000D02*
X64550000Y7375000D01*
D23*
X450000Y7625000D02*
X14321400Y7625000D01*
D23*
X15683500Y7625000D02*
X16442700Y7625000D01*
D23*
X17804800Y7625000D02*
X17856900Y7625000D01*
D23*
X19219000Y7625000D02*
X27579600Y7625000D01*
D23*
X29295300Y7625000D02*
X31041300Y7625000D01*
D23*
X31891300Y7625000D02*
X34473900Y7625000D01*
D23*
X35836000Y7625000D02*
X64550000Y7625000D01*
D23*
X450000Y7875000D02*
X14071400Y7875000D01*
D23*
X15433500Y7875000D02*
X16192700Y7875000D01*
D23*
X17554800Y7875000D02*
X17606900Y7875000D01*
D23*
X18969000Y7875000D02*
X27329600Y7875000D01*
D23*
X29045300Y7875000D02*
X31041300Y7875000D01*
D23*
X31891300Y7875000D02*
X34223900Y7875000D01*
D23*
X35586000Y7875000D02*
X64550000Y7875000D01*
D23*
X450000Y8125000D02*
X13821400Y8125000D01*
D23*
X15183500Y8125000D02*
X15942700Y8125000D01*
D23*
X17304800Y8125000D02*
X17356900Y8125000D01*
D23*
X18719000Y8125000D02*
X27079600Y8125000D01*
D23*
X28795300Y8125000D02*
X31041300Y8125000D01*
D23*
X31891300Y8125000D02*
X33973900Y8125000D01*
D23*
X35336000Y8125000D02*
X64550000Y8125000D01*
D23*
X450000Y8375000D02*
X13571400Y8375000D01*
D23*
X14933500Y8375000D02*
X15692700Y8375000D01*
D23*
X17054800Y8375000D02*
X17106900Y8375000D01*
D23*
X18469000Y8375000D02*
X26829600Y8375000D01*
D23*
X28545300Y8375000D02*
X31041300Y8375000D01*
D23*
X31891300Y8375000D02*
X33723900Y8375000D01*
D23*
X35086000Y8375000D02*
X64550000Y8375000D01*
D23*
X450000Y8625000D02*
X13321400Y8625000D01*
D23*
X14683500Y8625000D02*
X15442700Y8625000D01*
D23*
X16804800Y8625000D02*
X16856900Y8625000D01*
D23*
X18219000Y8625000D02*
X26579600Y8625000D01*
D23*
X28295300Y8625000D02*
X31041300Y8625000D01*
D23*
X31891300Y8625000D02*
X33473900Y8625000D01*
D23*
X34836000Y8625000D02*
X64550000Y8625000D01*
D23*
X450000Y8875000D02*
X13071400Y8875000D01*
D23*
X14433500Y8875000D02*
X15192700Y8875000D01*
D23*
X16554800Y8875000D02*
X16606900Y8875000D01*
D23*
X17969000Y8875000D02*
X26329600Y8875000D01*
D23*
X28045300Y8875000D02*
X31041300Y8875000D01*
D23*
X31891300Y8875000D02*
X33223900Y8875000D01*
D23*
X34586000Y8875000D02*
X64550000Y8875000D01*
D23*
X450000Y9125000D02*
X12379700Y9125000D01*
D23*
X14183500Y9125000D02*
X14942700Y9125000D01*
D23*
X16304800Y9125000D02*
X16356900Y9125000D01*
D23*
X17719000Y9125000D02*
X26079600Y9125000D01*
D23*
X27795300Y9125000D02*
X31041300Y9125000D01*
D23*
X31891300Y9125000D02*
X32973900Y9125000D01*
D23*
X34336000Y9125000D02*
X64550000Y9125000D01*
D23*
X450000Y9375000D02*
X12331500Y9375000D01*
D23*
X13933500Y9375000D02*
X14692700Y9375000D01*
D23*
X16054800Y9375000D02*
X16106900Y9375000D01*
D23*
X17469000Y9375000D02*
X25829600Y9375000D01*
D23*
X27545300Y9375000D02*
X31041300Y9375000D01*
D23*
X31891300Y9375000D02*
X32723900Y9375000D01*
D23*
X34086000Y9375000D02*
X38274700Y9375000D01*
D23*
X39507100Y9375000D02*
X64550000Y9375000D01*
D23*
X450000Y9625000D02*
X12331500Y9625000D01*
D23*
X13831500Y9625000D02*
X14442700Y9625000D01*
D23*
X15804800Y9625000D02*
X15856900Y9625000D01*
D23*
X17219000Y9625000D02*
X25579600Y9625000D01*
D23*
X27295300Y9625000D02*
X31041300Y9625000D01*
D23*
X31891300Y9625000D02*
X32473900Y9625000D01*
D23*
X33836000Y9625000D02*
X38140900Y9625000D01*
D23*
X39640900Y9625000D02*
X64550000Y9625000D01*
D23*
X450000Y9875000D02*
X12341600Y9875000D01*
D23*
X13821300Y9875000D02*
X14192700Y9875000D01*
D23*
X15554800Y9875000D02*
X15606900Y9875000D01*
D23*
X16969000Y9875000D02*
X25329600Y9875000D01*
D23*
X27045300Y9875000D02*
X31041300Y9875000D01*
D23*
X31891300Y9875000D02*
X32223900Y9875000D01*
D23*
X33586000Y9875000D02*
X38140900Y9875000D01*
D23*
X39640900Y9875000D02*
X40720000Y9875000D01*
D23*
X43220000Y9875000D02*
X64550000Y9875000D01*
D23*
X450000Y10125000D02*
X13942700Y10125000D01*
D23*
X15304800Y10125000D02*
X15356900Y10125000D01*
D23*
X16719000Y10125000D02*
X25079600Y10125000D01*
D23*
X26795300Y10125000D02*
X30807200Y10125000D01*
D23*
X33336000Y10125000D02*
X37984300Y10125000D01*
D23*
X39640900Y10125000D02*
X40720000Y10125000D01*
D23*
X43220000Y10125000D02*
X64550000Y10125000D01*
D23*
X450000Y10375000D02*
X13692700Y10375000D01*
D23*
X15054800Y10375000D02*
X15106900Y10375000D01*
D23*
X16469000Y10375000D02*
X24829600Y10375000D01*
D23*
X26545300Y10375000D02*
X30716300Y10375000D01*
D23*
X33086000Y10375000D02*
X37734300Y10375000D01*
D23*
X39556100Y10375000D02*
X40720000Y10375000D01*
D23*
X43220000Y10375000D02*
X64550000Y10375000D01*
D23*
X450000Y10625000D02*
X13442700Y10625000D01*
D23*
X14804800Y10625000D02*
X14856900Y10625000D01*
D23*
X16219000Y10625000D02*
X24579600Y10625000D01*
D23*
X26295300Y10625000D02*
X30716300Y10625000D01*
D23*
X32951900Y10625000D02*
X37484300Y10625000D01*
D23*
X38846400Y10625000D02*
X40720000Y10625000D01*
D23*
X43220000Y10625000D02*
X64550000Y10625000D01*
D23*
X450000Y10875000D02*
X13192700Y10875000D01*
D23*
X14554800Y10875000D02*
X14606900Y10875000D01*
D23*
X15969000Y10875000D02*
X24329600Y10875000D01*
D23*
X26045300Y10875000D02*
X30716300Y10875000D01*
D23*
X32951900Y10875000D02*
X37234300Y10875000D01*
D23*
X38596400Y10875000D02*
X40720000Y10875000D01*
D23*
X43220000Y10875000D02*
X64550000Y10875000D01*
D23*
X450000Y11125000D02*
X12942700Y11125000D01*
D23*
X14304800Y11125000D02*
X14356900Y11125000D01*
D23*
X15719000Y11125000D02*
X24079600Y11125000D01*
D23*
X25795300Y11125000D02*
X30844000Y11125000D01*
D23*
X32088500Y11125000D02*
X32101900Y11125000D01*
D23*
X32951900Y11125000D02*
X36984300Y11125000D01*
D23*
X38346400Y11125000D02*
X40720000Y11125000D01*
D23*
X43220000Y11125000D02*
X64550000Y11125000D01*
D23*
X450000Y11375000D02*
X11624400Y11375000D01*
D23*
X14054800Y11375000D02*
X14106900Y11375000D01*
D23*
X15469000Y11375000D02*
X23829600Y11375000D01*
D23*
X26205800Y11375000D02*
X32101900Y11375000D01*
D23*
X32951900Y11375000D02*
X36734300Y11375000D01*
D23*
X38096400Y11375000D02*
X40720000Y11375000D01*
D23*
X43220000Y11375000D02*
X64550000Y11375000D01*
D23*
X450000Y11625000D02*
X11624400Y11625000D01*
D23*
X13804800Y11625000D02*
X13856900Y11625000D01*
D23*
X15219000Y11625000D02*
X23579600Y11625000D01*
D23*
X32951900Y11625000D02*
X36484300Y11625000D01*
D23*
X37846400Y11625000D02*
X40720000Y11625000D01*
D23*
X43220000Y11625000D02*
X64550000Y11625000D01*
D23*
X450000Y11875000D02*
X11624400Y11875000D01*
D23*
X13124400Y11875000D02*
X13147300Y11875000D01*
D23*
X14969000Y11875000D02*
X23329600Y11875000D01*
D23*
X26205800Y11875000D02*
X36234300Y11875000D01*
D23*
X37596400Y11875000D02*
X64550000Y11875000D01*
D23*
X450000Y12125000D02*
X11691400Y12125000D01*
D23*
X14719000Y12125000D02*
X21318200Y12125000D01*
D23*
X22805300Y12125000D02*
X23079600Y12125000D01*
D23*
X26138800Y12125000D02*
X35984300Y12125000D01*
D23*
X37346400Y12125000D02*
X64550000Y12125000D01*
D23*
X450000Y12375000D02*
X13038600Y12375000D01*
D23*
X14538600Y12375000D02*
X21311700Y12375000D01*
D23*
X22811700Y12375000D02*
X22829600Y12375000D01*
D23*
X24545300Y12375000D02*
X35734300Y12375000D01*
D23*
X37096400Y12375000D02*
X40720000Y12375000D01*
D23*
X43220000Y12375000D02*
X64550000Y12375000D01*
D23*
X450000Y12625000D02*
X13038600Y12625000D01*
D23*
X14538600Y12625000D02*
X18407700Y12625000D01*
D23*
X19776100Y12625000D02*
X21094700Y12625000D01*
D23*
X24295300Y12625000D02*
X35484300Y12625000D01*
D23*
X36846400Y12625000D02*
X40720000Y12625000D01*
D23*
X43220000Y12625000D02*
X64550000Y12625000D01*
D23*
X450000Y12875000D02*
X13148500Y12875000D01*
D23*
X14428600Y12875000D02*
X18341900Y12875000D01*
D23*
X19841900Y12875000D02*
X20844700Y12875000D01*
D23*
X24045300Y12875000D02*
X35234300Y12875000D01*
D23*
X36596400Y12875000D02*
X40720000Y12875000D01*
D23*
X43220000Y12875000D02*
X64550000Y12875000D01*
D23*
X450000Y13125000D02*
X4967700Y13125000D01*
D23*
X6346000Y13125000D02*
X7760700Y13125000D01*
D23*
X19841900Y13125000D02*
X20594700Y13125000D01*
D23*
X23795300Y13125000D02*
X34984300Y13125000D01*
D23*
X36346400Y13125000D02*
X40720000Y13125000D01*
D23*
X43220000Y13125000D02*
X64550000Y13125000D01*
D23*
X450000Y13375000D02*
X4906900Y13375000D01*
D23*
X6406900Y13375000D02*
X7073300Y13375000D01*
D23*
X8872800Y13375000D02*
X18341900Y13375000D01*
D23*
X19841900Y13375000D02*
X20344700Y13375000D01*
D23*
X23545300Y13375000D02*
X34734300Y13375000D01*
D23*
X36096400Y13375000D02*
X40720000Y13375000D01*
D23*
X43220000Y13375000D02*
X64550000Y13375000D01*
D23*
X450000Y13625000D02*
X4906900Y13625000D01*
D23*
X6492500Y13625000D02*
X7028200Y13625000D01*
D23*
X8622800Y13625000D02*
X20094700Y13625000D01*
D23*
X23295300Y13625000D02*
X34484300Y13625000D01*
D23*
X35846400Y13625000D02*
X40720000Y13625000D01*
D23*
X43220000Y13625000D02*
X64550000Y13625000D01*
D23*
X450000Y13875000D02*
X4906900Y13875000D01*
D23*
X6742500Y13875000D02*
X7028200Y13875000D01*
D23*
X8528200Y13875000D02*
X19844700Y13875000D01*
D23*
X23045300Y13875000D02*
X34234300Y13875000D01*
D23*
X35596400Y13875000D02*
X40720000Y13875000D01*
D23*
X43220000Y13875000D02*
X64550000Y13875000D01*
D23*
X450000Y14125000D02*
X5418300Y14125000D01*
D23*
X6992500Y14125000D02*
X7041400Y14125000D01*
D23*
X8515000Y14125000D02*
X19594700Y14125000D01*
D23*
X22795300Y14125000D02*
X33984300Y14125000D01*
D23*
X35346400Y14125000D02*
X40720000Y14125000D01*
D23*
X43220000Y14125000D02*
X64550000Y14125000D01*
D23*
X450000Y14375000D02*
X5668300Y14375000D01*
D23*
X7242500Y14375000D02*
X19344700Y14375000D01*
D23*
X22545300Y14375000D02*
X33734300Y14375000D01*
D23*
X35096400Y14375000D02*
X64550000Y14375000D01*
D23*
X450000Y14625000D02*
X5918300Y14625000D01*
D23*
X7492500Y14625000D02*
X19094700Y14625000D01*
D23*
X22295300Y14625000D02*
X33484300Y14625000D01*
D23*
X34846400Y14625000D02*
X64550000Y14625000D01*
D23*
X450000Y14875000D02*
X6168300Y14875000D01*
D23*
X7742500Y14875000D02*
X18844700Y14875000D01*
D23*
X22045300Y14875000D02*
X33234300Y14875000D01*
D23*
X34596400Y14875000D02*
X41990000Y14875000D01*
D23*
X44490000Y14875000D02*
X64550000Y14875000D01*
D23*
X450000Y15125000D02*
X4959400Y15125000D01*
D23*
X6354300Y15125000D02*
X6418300Y15125000D01*
D23*
X7992500Y15125000D02*
X18594700Y15125000D01*
D23*
X21795300Y15125000D02*
X32984300Y15125000D01*
D23*
X34346400Y15125000D02*
X41990000Y15125000D01*
D23*
X44490000Y15125000D02*
X64550000Y15125000D01*
D23*
X450000Y15375000D02*
X4906900Y15375000D01*
D23*
X6406900Y15375000D02*
X6668300Y15375000D01*
D23*
X8242500Y15375000D02*
X18344700Y15375000D01*
D23*
X21545300Y15375000D02*
X32734300Y15375000D01*
D23*
X34096400Y15375000D02*
X41990000Y15375000D01*
D23*
X44490000Y15375000D02*
X64550000Y15375000D01*
D23*
X450000Y15625000D02*
X4906900Y15625000D01*
D23*
X6406900Y15625000D02*
X6918300Y15625000D01*
D23*
X8492500Y15625000D02*
X18094700Y15625000D01*
D23*
X21295300Y15625000D02*
X32484300Y15625000D01*
D23*
X33846400Y15625000D02*
X41990000Y15625000D01*
D23*
X44490000Y15625000D02*
X64550000Y15625000D01*
D23*
X450000Y15875000D02*
X4912700Y15875000D01*
D23*
X6656600Y15875000D02*
X7168300Y15875000D01*
D23*
X8742500Y15875000D02*
X17844700Y15875000D01*
D23*
X21045300Y15875000D02*
X32234300Y15875000D01*
D23*
X33596400Y15875000D02*
X41990000Y15875000D01*
D23*
X44490000Y15875000D02*
X64550000Y15875000D01*
D23*
X450000Y16125000D02*
X3947500Y16125000D01*
D23*
X5244900Y16125000D02*
X5544400Y16125000D01*
D23*
X6906600Y16125000D02*
X7418300Y16125000D01*
D23*
X8941300Y16125000D02*
X17645900Y16125000D01*
D23*
X20795300Y16125000D02*
X31984300Y16125000D01*
D23*
X33346400Y16125000D02*
X41990000Y16125000D01*
D23*
X44490000Y16125000D02*
X64550000Y16125000D01*
D23*
X450000Y16375000D02*
X3846200Y16375000D01*
D23*
X5346200Y16375000D02*
X5794400Y16375000D01*
D23*
X7156600Y16375000D02*
X7668300Y16375000D01*
D23*
X20545300Y16375000D02*
X31734300Y16375000D01*
D23*
X33096400Y16375000D02*
X41990000Y16375000D01*
D23*
X44490000Y16375000D02*
X64550000Y16375000D01*
D23*
X450000Y16625000D02*
X3846200Y16625000D01*
D23*
X5346200Y16625000D02*
X6044400Y16625000D01*
D23*
X7406600Y16625000D02*
X7918300Y16625000D01*
D23*
X20295300Y16625000D02*
X31484300Y16625000D01*
D23*
X32846400Y16625000D02*
X41990000Y16625000D01*
D23*
X44490000Y16625000D02*
X64550000Y16625000D01*
D23*
X450000Y16875000D02*
X3846200Y16875000D01*
D23*
X5346200Y16875000D02*
X6294400Y16875000D01*
D23*
X7656600Y16875000D02*
X18329600Y16875000D01*
D23*
X20045300Y16875000D02*
X31234300Y16875000D01*
D23*
X32596400Y16875000D02*
X64550000Y16875000D01*
D23*
X450000Y17125000D02*
X3963500Y17125000D01*
D23*
X5228900Y17125000D02*
X6544400Y17125000D01*
D23*
X7906600Y17125000D02*
X18079600Y17125000D01*
D23*
X19795300Y17125000D02*
X30984300Y17125000D01*
D23*
X32346400Y17125000D02*
X64550000Y17125000D01*
D23*
X450000Y17375000D02*
X4171200Y17375000D01*
D23*
X5021200Y17375000D02*
X6794400Y17375000D01*
D23*
X8156600Y17375000D02*
X17829600Y17375000D01*
D23*
X19545300Y17375000D02*
X30734300Y17375000D01*
D23*
X32096400Y17375000D02*
X64550000Y17375000D01*
D23*
X450000Y17625000D02*
X4171200Y17625000D01*
D23*
X5021200Y17625000D02*
X7044400Y17625000D01*
D23*
X8406600Y17625000D02*
X17579600Y17625000D01*
D23*
X19295300Y17625000D02*
X30484300Y17625000D01*
D23*
X31846400Y17625000D02*
X64550000Y17625000D01*
D23*
X450000Y17875000D02*
X4171200Y17875000D01*
D23*
X5021200Y17875000D02*
X7294400Y17875000D01*
D23*
X8656600Y17875000D02*
X9975700Y17875000D01*
D23*
X11237500Y17875000D02*
X17329600Y17875000D01*
D23*
X19045300Y17875000D02*
X30234300Y17875000D01*
D23*
X31596400Y17875000D02*
X64550000Y17875000D01*
D23*
X450000Y18125000D02*
X4171200Y18125000D01*
D23*
X5021200Y18125000D02*
X7544400Y18125000D01*
D23*
X8906600Y18125000D02*
X9856600Y18125000D01*
D23*
X11356600Y18125000D02*
X17079600Y18125000D01*
D23*
X18795300Y18125000D02*
X29984300Y18125000D01*
D23*
X31346400Y18125000D02*
X64550000Y18125000D01*
D23*
X450000Y18375000D02*
X4171200Y18375000D01*
D23*
X5021200Y18375000D02*
X7794400Y18375000D01*
D23*
X9156600Y18375000D02*
X9856600Y18375000D01*
D23*
X11356600Y18375000D02*
X16829600Y18375000D01*
D23*
X18545300Y18375000D02*
X29734300Y18375000D01*
D23*
X31096400Y18375000D02*
X64550000Y18375000D01*
D23*
X450000Y18625000D02*
X4171200Y18625000D01*
D23*
X5021200Y18625000D02*
X8044400Y18625000D01*
D23*
X9406600Y18625000D02*
X9856600Y18625000D01*
D23*
X11527900Y18625000D02*
X16579600Y18625000D01*
D23*
X18295300Y18625000D02*
X29484300Y18625000D01*
D23*
X30846400Y18625000D02*
X64550000Y18625000D01*
D23*
X450000Y18875000D02*
X4171200Y18875000D01*
D23*
X5021200Y18875000D02*
X8294400Y18875000D01*
D23*
X9656600Y18875000D02*
X9956100Y18875000D01*
D23*
X11777900Y18875000D02*
X16329600Y18875000D01*
D23*
X18045300Y18875000D02*
X29234300Y18875000D01*
D23*
X30596400Y18875000D02*
X64550000Y18875000D01*
D23*
X450000Y19125000D02*
X4171200Y19125000D01*
D23*
X5021200Y19125000D02*
X8544400Y19125000D01*
D23*
X9906600Y19125000D02*
X10665800Y19125000D01*
D23*
X12027900Y19125000D02*
X16079600Y19125000D01*
D23*
X17795300Y19125000D02*
X28984300Y19125000D01*
D23*
X30346400Y19125000D02*
X64550000Y19125000D01*
D23*
X450000Y19375000D02*
X4171200Y19375000D01*
D23*
X5021200Y19375000D02*
X8794400Y19375000D01*
D23*
X10600000Y19375000D02*
X10915800Y19375000D01*
D23*
X12277900Y19375000D02*
X15829600Y19375000D01*
D23*
X17545300Y19375000D02*
X28734300Y19375000D01*
D23*
X30096400Y19375000D02*
X64550000Y19375000D01*
D23*
X450000Y19625000D02*
X4171200Y19625000D01*
D23*
X5021200Y19625000D02*
X9044400Y19625000D01*
D23*
X10649500Y19625000D02*
X11165800Y19625000D01*
D23*
X12527900Y19625000D02*
X15579600Y19625000D01*
D23*
X17295300Y19625000D02*
X28484300Y19625000D01*
D23*
X29846400Y19625000D02*
X64550000Y19625000D01*
D23*
X450000Y19875000D02*
X4171200Y19875000D01*
D23*
X5021200Y19875000D02*
X9149500Y19875000D01*
D23*
X10649500Y19875000D02*
X11415800Y19875000D01*
D23*
X12777900Y19875000D02*
X15329600Y19875000D01*
D23*
X17045300Y19875000D02*
X28234300Y19875000D01*
D23*
X29596400Y19875000D02*
X64550000Y19875000D01*
D23*
X450000Y20125000D02*
X4171200Y20125000D01*
D23*
X5021200Y20125000D02*
X9158400Y20125000D01*
D23*
X10640600Y20125000D02*
X11665800Y20125000D01*
D23*
X13027900Y20125000D02*
X14838000Y20125000D01*
D23*
X16795300Y20125000D02*
X27984300Y20125000D01*
D23*
X29346400Y20125000D02*
X64550000Y20125000D01*
D23*
X450000Y20375000D02*
X4171200Y20375000D01*
D23*
X5021200Y20375000D02*
X11915800Y20375000D01*
D23*
X13277900Y20375000D02*
X14806300Y20375000D01*
D23*
X16545300Y20375000D02*
X27734300Y20375000D01*
D23*
X29096400Y20375000D02*
X64550000Y20375000D01*
D23*
X450000Y20625000D02*
X4171200Y20625000D01*
D23*
X5021200Y20625000D02*
X12165800Y20625000D01*
D23*
X13527900Y20625000D02*
X14806300Y20625000D01*
D23*
X16306300Y20625000D02*
X27527700Y20625000D01*
D23*
X28846400Y20625000D02*
X64550000Y20625000D01*
D23*
X450000Y20875000D02*
X4171200Y20875000D01*
D23*
X5021200Y20875000D02*
X12415800Y20875000D01*
D23*
X13777900Y20875000D02*
X14833000Y20875000D01*
D23*
X16279700Y20875000D02*
X18709400Y20875000D01*
D23*
X20181500Y20875000D02*
X27505700Y20875000D01*
D23*
X28596400Y20875000D02*
X64550000Y20875000D01*
D23*
X450000Y21125000D02*
X4171200Y21125000D01*
D23*
X5021200Y21125000D02*
X12665800Y21125000D01*
D23*
X20195400Y21125000D02*
X27505700Y21125000D01*
D23*
X28355700Y21125000D02*
X64550000Y21125000D01*
D23*
X450000Y21375000D02*
X4171200Y21375000D01*
D23*
X5021200Y21375000D02*
X12915800Y21375000D01*
D23*
X20195400Y21375000D02*
X27505700Y21375000D01*
D23*
X28355700Y21375000D02*
X64550000Y21375000D01*
D23*
X450000Y21625000D02*
X4171200Y21625000D01*
D23*
X5021200Y21625000D02*
X18739900Y21625000D01*
D23*
X20151000Y21625000D02*
X27180700Y21625000D01*
D23*
X28680700Y21625000D02*
X64550000Y21625000D01*
D23*
X450000Y21875000D02*
X4171200Y21875000D01*
D23*
X5021200Y21875000D02*
X27180700Y21875000D01*
D23*
X28680700Y21875000D02*
X64550000Y21875000D01*
D23*
X450000Y22125000D02*
X4171200Y22125000D01*
D23*
X5021200Y22125000D02*
X27180700Y22125000D01*
D23*
X28680700Y22125000D02*
X64550000Y22125000D01*
D23*
X450000Y22375000D02*
X4171200Y22375000D01*
D23*
X5021200Y22375000D02*
X27244700Y22375000D01*
D23*
X28616700Y22375000D02*
X64550000Y22375000D01*
D23*
X450000Y22625000D02*
X4171200Y22625000D01*
D23*
X5021200Y22625000D02*
X64550000Y22625000D01*
D23*
X450000Y22875000D02*
X4171200Y22875000D01*
D23*
X5021200Y22875000D02*
X64550000Y22875000D01*
D23*
X450000Y23125000D02*
X4171200Y23125000D01*
D23*
X5021200Y23125000D02*
X8020000Y23125000D01*
D23*
X41350000Y23125000D02*
X64550000Y23125000D01*
D23*
X450000Y23375000D02*
X4171200Y23375000D01*
D23*
X5021200Y23375000D02*
X7820000Y23375000D01*
D23*
X41350000Y23375000D02*
X64550000Y23375000D01*
D23*
X450000Y23625000D02*
X4171200Y23625000D01*
D23*
X5214200Y23625000D02*
X7820000Y23625000D01*
D23*
X41350000Y23625000D02*
X64550000Y23625000D01*
D23*
X450000Y23875000D02*
X4193200Y23875000D01*
D23*
X5464200Y23875000D02*
X7820000Y23875000D01*
D23*
X8920000Y23875000D02*
X19449000Y23875000D01*
D23*
X25498700Y23875000D02*
X64550000Y23875000D01*
D23*
X450000Y24125000D02*
X4352100Y24125000D01*
D23*
X5714200Y24125000D02*
X7820000Y24125000D01*
D23*
X8920000Y24125000D02*
X19374000Y24125000D01*
D23*
X25498700Y24125000D02*
X64550000Y24125000D01*
D23*
X450000Y24375000D02*
X4602100Y24375000D01*
D23*
X5964200Y24375000D02*
X7210000Y24375000D01*
D23*
X9530000Y24375000D02*
X9750000Y24375000D01*
D23*
X12070000Y24375000D02*
X12290000Y24375000D01*
D23*
X14610000Y24375000D02*
X14830000Y24375000D01*
D23*
X17150000Y24375000D02*
X19374000Y24375000D01*
D23*
X22230000Y24375000D02*
X22450000Y24375000D01*
D23*
X27310000Y24375000D02*
X27530000Y24375000D01*
D23*
X29850000Y24375000D02*
X30070000Y24375000D01*
D23*
X32390000Y24375000D02*
X32610000Y24375000D01*
D23*
X34930000Y24375000D02*
X35150000Y24375000D01*
D23*
X37470000Y24375000D02*
X40230000Y24375000D01*
D23*
X42550000Y24375000D02*
X42770000Y24375000D01*
D23*
X45090000Y24375000D02*
X45310000Y24375000D01*
D23*
X47630000Y24375000D02*
X47850000Y24375000D01*
D23*
X50170000Y24375000D02*
X50390000Y24375000D01*
D23*
X52710000Y24375000D02*
X52930000Y24375000D01*
D23*
X55250000Y24375000D02*
X64550000Y24375000D01*
D23*
X450000Y24625000D02*
X4852100Y24625000D01*
D23*
X6214200Y24625000D02*
X7210000Y24625000D01*
D23*
X9530000Y24625000D02*
X9750000Y24625000D01*
D23*
X12070000Y24625000D02*
X12290000Y24625000D01*
D23*
X14610000Y24625000D02*
X14830000Y24625000D01*
D23*
X17150000Y24625000D02*
X19374000Y24625000D01*
D23*
X22230000Y24625000D02*
X22450000Y24625000D01*
D23*
X24770000Y24625000D02*
X24990000Y24625000D01*
D23*
X27310000Y24625000D02*
X27530000Y24625000D01*
D23*
X29850000Y24625000D02*
X30070000Y24625000D01*
D23*
X32390000Y24625000D02*
X32610000Y24625000D01*
D23*
X34930000Y24625000D02*
X35150000Y24625000D01*
D23*
X37470000Y24625000D02*
X40230000Y24625000D01*
D23*
X42550000Y24625000D02*
X42770000Y24625000D01*
D23*
X45090000Y24625000D02*
X45310000Y24625000D01*
D23*
X47630000Y24625000D02*
X47850000Y24625000D01*
D23*
X50170000Y24625000D02*
X50390000Y24625000D01*
D23*
X52710000Y24625000D02*
X52930000Y24625000D01*
D23*
X55250000Y24625000D02*
X64550000Y24625000D01*
D23*
X450000Y24875000D02*
X5102100Y24875000D01*
D23*
X6464200Y24875000D02*
X7210000Y24875000D01*
D23*
X9530000Y24875000D02*
X9750000Y24875000D01*
D23*
X12070000Y24875000D02*
X12290000Y24875000D01*
D23*
X14610000Y24875000D02*
X14830000Y24875000D01*
D23*
X17150000Y24875000D02*
X19374000Y24875000D01*
D23*
X22230000Y24875000D02*
X22450000Y24875000D01*
D23*
X24770000Y24875000D02*
X24990000Y24875000D01*
D23*
X27310000Y24875000D02*
X27530000Y24875000D01*
D23*
X29850000Y24875000D02*
X30070000Y24875000D01*
D23*
X32390000Y24875000D02*
X32610000Y24875000D01*
D23*
X34930000Y24875000D02*
X35150000Y24875000D01*
D23*
X37470000Y24875000D02*
X40230000Y24875000D01*
D23*
X42550000Y24875000D02*
X42770000Y24875000D01*
D23*
X45090000Y24875000D02*
X45310000Y24875000D01*
D23*
X47630000Y24875000D02*
X47850000Y24875000D01*
D23*
X50170000Y24875000D02*
X50390000Y24875000D01*
D23*
X52710000Y24875000D02*
X52930000Y24875000D01*
D23*
X55250000Y24875000D02*
X64550000Y24875000D01*
D23*
X450000Y25125000D02*
X5352100Y25125000D01*
D23*
X6714200Y25125000D02*
X7210000Y25125000D01*
D23*
X9530000Y25125000D02*
X9750000Y25125000D01*
D23*
X12070000Y25125000D02*
X12290000Y25125000D01*
D23*
X14610000Y25125000D02*
X14830000Y25125000D01*
D23*
X17150000Y25125000D02*
X19374000Y25125000D01*
D23*
X22230000Y25125000D02*
X22450000Y25125000D01*
D23*
X24770000Y25125000D02*
X24990000Y25125000D01*
D23*
X27310000Y25125000D02*
X27530000Y25125000D01*
D23*
X29850000Y25125000D02*
X30070000Y25125000D01*
D23*
X32390000Y25125000D02*
X32610000Y25125000D01*
D23*
X34930000Y25125000D02*
X35150000Y25125000D01*
D23*
X37470000Y25125000D02*
X40230000Y25125000D01*
D23*
X42550000Y25125000D02*
X42770000Y25125000D01*
D23*
X45090000Y25125000D02*
X45310000Y25125000D01*
D23*
X47630000Y25125000D02*
X47850000Y25125000D01*
D23*
X50170000Y25125000D02*
X50390000Y25125000D01*
D23*
X52710000Y25125000D02*
X52930000Y25125000D01*
D23*
X55250000Y25125000D02*
X64550000Y25125000D01*
D23*
X450000Y25375000D02*
X5602100Y25375000D01*
D23*
X6964200Y25375000D02*
X7210000Y25375000D01*
D23*
X9530000Y25375000D02*
X9750000Y25375000D01*
D23*
X12070000Y25375000D02*
X12290000Y25375000D01*
D23*
X14610000Y25375000D02*
X14830000Y25375000D01*
D23*
X17150000Y25375000D02*
X19374000Y25375000D01*
D23*
X22230000Y25375000D02*
X22450000Y25375000D01*
D23*
X24770000Y25375000D02*
X24990000Y25375000D01*
D23*
X27310000Y25375000D02*
X27530000Y25375000D01*
D23*
X29850000Y25375000D02*
X30070000Y25375000D01*
D23*
X32390000Y25375000D02*
X32610000Y25375000D01*
D23*
X34930000Y25375000D02*
X35150000Y25375000D01*
D23*
X37470000Y25375000D02*
X40230000Y25375000D01*
D23*
X42550000Y25375000D02*
X42770000Y25375000D01*
D23*
X45090000Y25375000D02*
X45310000Y25375000D01*
D23*
X47630000Y25375000D02*
X47850000Y25375000D01*
D23*
X50170000Y25375000D02*
X50390000Y25375000D01*
D23*
X52710000Y25375000D02*
X52930000Y25375000D01*
D23*
X55250000Y25375000D02*
X64550000Y25375000D01*
D23*
X450000Y25625000D02*
X5852100Y25625000D01*
D23*
X9530000Y25625000D02*
X9750000Y25625000D01*
D23*
X12070000Y25625000D02*
X12270700Y25625000D01*
D23*
X14610000Y25625000D02*
X14830000Y25625000D01*
D23*
X17150000Y25625000D02*
X19374000Y25625000D01*
D23*
X22230000Y25625000D02*
X22450000Y25625000D01*
D23*
X24770000Y25625000D02*
X24990000Y25625000D01*
D23*
X27310000Y25625000D02*
X27530000Y25625000D01*
D23*
X29850000Y25625000D02*
X30070000Y25625000D01*
D23*
X32390000Y25625000D02*
X32610000Y25625000D01*
D23*
X34930000Y25625000D02*
X35150000Y25625000D01*
D23*
X37470000Y25625000D02*
X40230000Y25625000D01*
D23*
X42550000Y25625000D02*
X42770000Y25625000D01*
D23*
X45090000Y25625000D02*
X45310000Y25625000D01*
D23*
X47630000Y25625000D02*
X47850000Y25625000D01*
D23*
X50170000Y25625000D02*
X50390000Y25625000D01*
D23*
X52710000Y25625000D02*
X52930000Y25625000D01*
D23*
X55250000Y25625000D02*
X64550000Y25625000D01*
D23*
X450000Y25875000D02*
X6102100Y25875000D01*
D23*
X9530000Y25875000D02*
X9750000Y25875000D01*
D23*
X14610000Y25875000D02*
X14830000Y25875000D01*
D23*
X17150000Y25875000D02*
X19374000Y25875000D01*
D23*
X22230000Y25875000D02*
X22450000Y25875000D01*
D23*
X24770000Y25875000D02*
X24990000Y25875000D01*
D23*
X27310000Y25875000D02*
X27530000Y25875000D01*
D23*
X29850000Y25875000D02*
X30070000Y25875000D01*
D23*
X32390000Y25875000D02*
X32610000Y25875000D01*
D23*
X34930000Y25875000D02*
X35150000Y25875000D01*
D23*
X37470000Y25875000D02*
X40230000Y25875000D01*
D23*
X42550000Y25875000D02*
X42770000Y25875000D01*
D23*
X45090000Y25875000D02*
X45310000Y25875000D01*
D23*
X47630000Y25875000D02*
X47850000Y25875000D01*
D23*
X50170000Y25875000D02*
X50390000Y25875000D01*
D23*
X52710000Y25875000D02*
X52930000Y25875000D01*
D23*
X55250000Y25875000D02*
X64550000Y25875000D01*
D23*
X450000Y26125000D02*
X6352100Y26125000D01*
D23*
X9530000Y26125000D02*
X9750000Y26125000D01*
D23*
X14610000Y26125000D02*
X14830000Y26125000D01*
D23*
X17150000Y26125000D02*
X19374000Y26125000D01*
D23*
X22230000Y26125000D02*
X22450000Y26125000D01*
D23*
X24770000Y26125000D02*
X24990000Y26125000D01*
D23*
X27310000Y26125000D02*
X27530000Y26125000D01*
D23*
X29850000Y26125000D02*
X30070000Y26125000D01*
D23*
X32390000Y26125000D02*
X32610000Y26125000D01*
D23*
X34930000Y26125000D02*
X35150000Y26125000D01*
D23*
X37470000Y26125000D02*
X40230000Y26125000D01*
D23*
X42550000Y26125000D02*
X42770000Y26125000D01*
D23*
X45090000Y26125000D02*
X45310000Y26125000D01*
D23*
X47630000Y26125000D02*
X47850000Y26125000D01*
D23*
X50170000Y26125000D02*
X50390000Y26125000D01*
D23*
X52710000Y26125000D02*
X52930000Y26125000D01*
D23*
X55250000Y26125000D02*
X64550000Y26125000D01*
D23*
X450000Y26375000D02*
X6602100Y26375000D01*
D23*
X12777400Y26375000D02*
X19259400Y26375000D01*
D23*
X20224000Y26375000D02*
X64550000Y26375000D01*
D23*
X450000Y26625000D02*
X6852100Y26625000D01*
D23*
X12593400Y26625000D02*
X19042400Y26625000D01*
D23*
X20224000Y26625000D02*
X64550000Y26625000D01*
D23*
X450000Y26875000D02*
X7210000Y26875000D01*
D23*
X9530000Y26875000D02*
X9750000Y26875000D01*
D23*
X12070000Y26875000D02*
X14830000Y26875000D01*
D23*
X17150000Y26875000D02*
X17370000Y26875000D01*
D23*
X22230000Y26875000D02*
X24990000Y26875000D01*
D23*
X27310000Y26875000D02*
X27530000Y26875000D01*
D23*
X29850000Y26875000D02*
X32610000Y26875000D01*
D23*
X34930000Y26875000D02*
X35150000Y26875000D01*
D23*
X37470000Y26875000D02*
X37690000Y26875000D01*
D23*
X40010000Y26875000D02*
X40230000Y26875000D01*
D23*
X42550000Y26875000D02*
X45310000Y26875000D01*
D23*
X47630000Y26875000D02*
X50390000Y26875000D01*
D23*
X52710000Y26875000D02*
X52930000Y26875000D01*
D23*
X55250000Y26875000D02*
X55470000Y26875000D01*
D23*
X57790000Y26875000D02*
X64550000Y26875000D01*
D23*
X462300Y27125000D02*
X7210000Y27125000D01*
D23*
X9530000Y27125000D02*
X9750000Y27125000D01*
D23*
X12070000Y27125000D02*
X14830000Y27125000D01*
D23*
X17150000Y27125000D02*
X17370000Y27125000D01*
D23*
X19848000Y27125000D02*
X19910000Y27125000D01*
D23*
X22230000Y27125000D02*
X24990000Y27125000D01*
D23*
X27310000Y27125000D02*
X27530000Y27125000D01*
D23*
X29850000Y27125000D02*
X32610000Y27125000D01*
D23*
X34930000Y27125000D02*
X35150000Y27125000D01*
D23*
X37470000Y27125000D02*
X37690000Y27125000D01*
D23*
X40010000Y27125000D02*
X40230000Y27125000D01*
D23*
X42550000Y27125000D02*
X45310000Y27125000D01*
D23*
X47630000Y27125000D02*
X50390000Y27125000D01*
D23*
X52710000Y27125000D02*
X52930000Y27125000D01*
D23*
X55250000Y27125000D02*
X55470000Y27125000D01*
D23*
X57790000Y27125000D02*
X64537700Y27125000D01*
D23*
X486900Y27375000D02*
X7210000Y27375000D01*
D23*
X12070000Y27375000D02*
X14830000Y27375000D01*
D23*
X17150000Y27375000D02*
X17370000Y27375000D01*
D23*
X19690000Y27375000D02*
X19910000Y27375000D01*
D23*
X22230000Y27375000D02*
X24990000Y27375000D01*
D23*
X27310000Y27375000D02*
X27530000Y27375000D01*
D23*
X29850000Y27375000D02*
X32610000Y27375000D01*
D23*
X34930000Y27375000D02*
X35150000Y27375000D01*
D23*
X37470000Y27375000D02*
X37690000Y27375000D01*
D23*
X40010000Y27375000D02*
X40230000Y27375000D01*
D23*
X42550000Y27375000D02*
X45310000Y27375000D01*
D23*
X47630000Y27375000D02*
X50390000Y27375000D01*
D23*
X52710000Y27375000D02*
X52930000Y27375000D01*
D23*
X55250000Y27375000D02*
X55470000Y27375000D01*
D23*
X57790000Y27375000D02*
X64513100Y27375000D01*
D23*
X519700Y27625000D02*
X7210000Y27625000D01*
D23*
X12070000Y27625000D02*
X14830000Y27625000D01*
D23*
X17150000Y27625000D02*
X17370000Y27625000D01*
D23*
X19690000Y27625000D02*
X19910000Y27625000D01*
D23*
X22230000Y27625000D02*
X24990000Y27625000D01*
D23*
X27310000Y27625000D02*
X27530000Y27625000D01*
D23*
X29850000Y27625000D02*
X32610000Y27625000D01*
D23*
X34930000Y27625000D02*
X35150000Y27625000D01*
D23*
X37470000Y27625000D02*
X37690000Y27625000D01*
D23*
X40010000Y27625000D02*
X40230000Y27625000D01*
D23*
X42550000Y27625000D02*
X45310000Y27625000D01*
D23*
X47630000Y27625000D02*
X50390000Y27625000D01*
D23*
X52710000Y27625000D02*
X52930000Y27625000D01*
D23*
X55250000Y27625000D02*
X55470000Y27625000D01*
D23*
X57790000Y27625000D02*
X64480300Y27625000D01*
D23*
X595500Y27875000D02*
X7210000Y27875000D01*
D23*
X12070000Y27875000D02*
X14830000Y27875000D01*
D23*
X17150000Y27875000D02*
X17370000Y27875000D01*
D23*
X19690000Y27875000D02*
X19910000Y27875000D01*
D23*
X22230000Y27875000D02*
X24990000Y27875000D01*
D23*
X27310000Y27875000D02*
X27530000Y27875000D01*
D23*
X29850000Y27875000D02*
X32610000Y27875000D01*
D23*
X34930000Y27875000D02*
X35150000Y27875000D01*
D23*
X37470000Y27875000D02*
X37690000Y27875000D01*
D23*
X40010000Y27875000D02*
X40230000Y27875000D01*
D23*
X42550000Y27875000D02*
X45310000Y27875000D01*
D23*
X47630000Y27875000D02*
X50390000Y27875000D01*
D23*
X52710000Y27875000D02*
X52930000Y27875000D01*
D23*
X55250000Y27875000D02*
X55470000Y27875000D01*
D23*
X57790000Y27875000D02*
X64404500Y27875000D01*
D23*
X671400Y28125000D02*
X7210000Y28125000D01*
D23*
X9530000Y28125000D02*
X9750000Y28125000D01*
D23*
X12070000Y28125000D02*
X14830000Y28125000D01*
D23*
X17150000Y28125000D02*
X17370000Y28125000D01*
D23*
X19690000Y28125000D02*
X19910000Y28125000D01*
D23*
X22230000Y28125000D02*
X24990000Y28125000D01*
D23*
X27310000Y28125000D02*
X27530000Y28125000D01*
D23*
X29850000Y28125000D02*
X32610000Y28125000D01*
D23*
X34930000Y28125000D02*
X35150000Y28125000D01*
D23*
X37470000Y28125000D02*
X37690000Y28125000D01*
D23*
X40010000Y28125000D02*
X40230000Y28125000D01*
D23*
X42550000Y28125000D02*
X45310000Y28125000D01*
D23*
X47630000Y28125000D02*
X50390000Y28125000D01*
D23*
X52710000Y28125000D02*
X52930000Y28125000D01*
D23*
X55250000Y28125000D02*
X55470000Y28125000D01*
D23*
X57790000Y28125000D02*
X64328600Y28125000D01*
D23*
X799700Y28375000D02*
X7210000Y28375000D01*
D23*
X9530000Y28375000D02*
X9750000Y28375000D01*
D23*
X12070000Y28375000D02*
X14830000Y28375000D01*
D23*
X17150000Y28375000D02*
X17370000Y28375000D01*
D23*
X19690000Y28375000D02*
X19910000Y28375000D01*
D23*
X22230000Y28375000D02*
X24990000Y28375000D01*
D23*
X27310000Y28375000D02*
X27530000Y28375000D01*
D23*
X29850000Y28375000D02*
X32610000Y28375000D01*
D23*
X34930000Y28375000D02*
X35150000Y28375000D01*
D23*
X37470000Y28375000D02*
X37690000Y28375000D01*
D23*
X40010000Y28375000D02*
X40230000Y28375000D01*
D23*
X42550000Y28375000D02*
X45310000Y28375000D01*
D23*
X47630000Y28375000D02*
X50390000Y28375000D01*
D23*
X52710000Y28375000D02*
X52930000Y28375000D01*
D23*
X55250000Y28375000D02*
X55470000Y28375000D01*
D23*
X57790000Y28375000D02*
X64200300Y28375000D01*
D23*
X933300Y28625000D02*
X7210000Y28625000D01*
D23*
X9530000Y28625000D02*
X9750000Y28625000D01*
D23*
X12070000Y28625000D02*
X14830000Y28625000D01*
D23*
X17150000Y28625000D02*
X17370000Y28625000D01*
D23*
X19690000Y28625000D02*
X19910000Y28625000D01*
D23*
X22230000Y28625000D02*
X24990000Y28625000D01*
D23*
X27310000Y28625000D02*
X27530000Y28625000D01*
D23*
X29850000Y28625000D02*
X32610000Y28625000D01*
D23*
X34930000Y28625000D02*
X35150000Y28625000D01*
D23*
X37470000Y28625000D02*
X37690000Y28625000D01*
D23*
X40010000Y28625000D02*
X40230000Y28625000D01*
D23*
X42550000Y28625000D02*
X45310000Y28625000D01*
D23*
X47630000Y28625000D02*
X50390000Y28625000D01*
D23*
X52710000Y28625000D02*
X52930000Y28625000D01*
D23*
X55250000Y28625000D02*
X55470000Y28625000D01*
D23*
X57790000Y28625000D02*
X64066700Y28625000D01*
D23*
X1126500Y28875000D02*
X63873500Y28875000D01*
D23*
X1333200Y29125000D02*
X63666800Y29125000D01*
D23*
X1637800Y29375000D02*
X63362200Y29375000D01*
D23*
X2027600Y29625000D02*
X62972400Y29625000D01*
D23*
X2642700Y29875000D02*
X62357300Y29875000D01*
M02*
