<svg xmlns="http://www.w3.org/2000/svg" xmlns:xlink="http://www.w3.org/1999/xlink" version="1.1" width="594mm" height="420mm" viewBox="0 0 594 420">
<title>microduck-jig-horn-zero — 5:1</title>
<rect x="0" y="0" width="594" height="420" fill="#ffffff"/>
<style>@page{size:594mm 420mm;margin:0}html,body{margin:0;padding:0}text{font-family:"DejaVu Sans Mono","Menlo","Consolas",monospace;white-space:pre}</style>
<g id="VISIBLE" stroke="#101418" stroke-width="0.50" fill="none" stroke-linecap="round">
<line x1="154.0000" y1="329.5000" x2="154.0000" y2="274.5000"/>
<line x1="204.0000" y1="329.5000" x2="154.0000" y2="329.5000"/>
<line x1="204.0000" y1="329.5000" x2="204.0000" y2="274.5000"/>
<line x1="189.0000" y1="297.0000" x2="169.0000" y2="297.0000"/>
<line x1="169.0000" y1="297.0000" x2="169.0000" y2="317.0000"/>
<line x1="189.0000" y1="317.0000" x2="169.0000" y2="317.0000"/>
<line x1="189.0000" y1="297.0000" x2="189.0000" y2="317.0000"/>
<line x1="234.0000" y1="274.5000" x2="124.0000" y2="274.5000"/>
<line x1="175.2500" y1="292.0000" x2="175.2500" y2="274.5000"/>
<line x1="182.7500" y1="292.0000" x2="175.2500" y2="292.0000"/>
<line x1="234.0000" y1="259.5000" x2="124.0000" y2="259.5000"/>
<line x1="182.7500" y1="292.0000" x2="182.7500" y2="274.5000"/>
<line x1="124.0000" y1="274.5000" x2="124.0000" y2="259.5000"/>
<line x1="234.0000" y1="274.5000" x2="234.0000" y2="259.5000"/>
<line x1="154.0000" y1="108.0000" x2="204.0000" y2="108.0000"/>
<line x1="154.0000" y1="108.0000" x2="154.0000" y2="90.5000"/>
<line x1="154.0000" y1="90.5000" x2="204.0000" y2="90.5000"/>
<line x1="204.0000" y1="108.0000" x2="204.0000" y2="90.5000"/>
<circle cx="179.0000" cy="125.5000" r="3.7500"/>
<circle cx="179.0000" cy="185.5000" r="3.7500"/>
<path d="M 154.0000 106.5102 A 55.0000 55.0000 0 1 0 204.0000 106.5102"/>
<line x1="289.5000" y1="329.5000" x2="289.5000" y2="274.5000"/>
<line x1="289.5000" y1="329.5000" x2="272.0000" y2="329.5000"/>
<line x1="392.0000" y1="274.5000" x2="337.0000" y2="274.5000"/>
<line x1="337.0000" y1="274.5000" x2="288.0102" y2="274.5000"/>
<line x1="307.0000" y1="292.0000" x2="303.2500" y2="292.0000"/>
<line x1="310.7500" y1="292.0000" x2="307.0000" y2="292.0000"/>
<line x1="367.0000" y1="292.0000" x2="363.2500" y2="292.0000"/>
<line x1="370.7500" y1="292.0000" x2="367.0000" y2="292.0000"/>
<line x1="392.0000" y1="259.5000" x2="337.0000" y2="259.5000"/>
<line x1="337.0000" y1="259.5000" x2="288.0102" y2="259.5000"/>
<line x1="288.0102" y1="259.5000" x2="272.0000" y2="259.5000"/>
<line x1="288.0102" y1="274.5000" x2="288.0102" y2="259.5000"/>
<line x1="272.0000" y1="329.5000" x2="272.0000" y2="259.5000"/>
<line x1="307.0000" y1="292.0000" x2="307.0000" y2="274.5000"/>
<line x1="367.0000" y1="292.0000" x2="367.0000" y2="274.5000"/>
<line x1="303.2500" y1="292.0000" x2="303.2500" y2="274.5000"/>
<line x1="310.7500" y1="292.0000" x2="310.7500" y2="274.5000"/>
<line x1="363.2500" y1="292.0000" x2="363.2500" y2="274.5000"/>
<line x1="370.7500" y1="292.0000" x2="370.7500" y2="274.5000"/>
<line x1="392.0000" y1="274.5000" x2="392.0000" y2="259.5000"/>
<line x1="551.0882" y1="86.2471" x2="551.0882" y2="62.6575"/>
<line x1="569.6602" y1="75.5246" x2="551.0882" y2="86.2471"/>
<line x1="551.0882" y1="62.6575" x2="552.4811" y2="61.8533"/>
<line x1="555.8439" y1="59.9118" x2="569.6602" y2="51.9349"/>
<line x1="569.6602" y1="75.5246" x2="569.6602" y2="51.9349"/>
<line x1="564.0886" y1="64.8020" x2="556.6598" y2="69.0910"/>
<line x1="556.6598" y1="69.0910" x2="556.6598" y2="77.6691"/>
<line x1="564.0886" y1="73.3800" x2="556.6598" y2="77.6691"/>
<line x1="564.0886" y1="64.8020" x2="564.0886" y2="73.3800"/>
<line x1="569.6602" y1="75.5246" x2="576.1604" y2="79.2774"/>
<line x1="576.1604" y1="79.2774" x2="557.5884" y2="90.0000"/>
<line x1="551.0882" y1="86.2471" x2="557.5884" y2="90.0000"/>
<line x1="564.0886" y1="72.3078" x2="563.1600" y2="72.8439"/>
<line x1="556.6598" y1="69.0910" x2="563.1600" y2="72.8439"/>
<line x1="563.1600" y1="72.8439" x2="563.1600" y2="73.9162"/>
<line x1="570.2136" y1="52.2544" x2="571.6221" y2="47.1098"/>
<line x1="571.6221" y1="47.1098" x2="571.0509" y2="43.8095"/>
<line x1="571.0509" y1="43.8095" x2="569.3174" y2="40.5814"/>
<line x1="569.3174" y1="40.5814" x2="566.3273" y2="37.4850"/>
<line x1="566.3273" y1="37.4850" x2="561.9858" y2="34.6739"/>
<line x1="561.9858" y1="34.6739" x2="556.3114" y2="32.3871"/>
<line x1="556.3114" y1="32.3871" x2="549.5274" y2="30.8975"/>
<line x1="549.5274" y1="30.8975" x2="542.0894" y2="30.4335"/>
<line x1="542.0894" y1="30.4335" x2="534.6271" y2="31.0990"/>
<line x1="534.6271" y1="31.0990" x2="527.8044" y2="32.8280"/>
<line x1="527.8044" y1="32.8280" x2="522.1567" y2="35.3993"/>
<line x1="522.1567" y1="35.3993" x2="517.9780" y2="38.5074"/>
<line x1="517.9780" y1="38.5074" x2="515.3086" y2="41.8586"/>
<line x1="515.3086" y1="41.8586" x2="514.0202" y2="45.2475"/>
<line x1="514.0202" y1="45.2475" x2="513.8396" y2="47.1098"/>
<line x1="513.8396" y1="47.1098" x2="514.4107" y2="50.4101"/>
<line x1="514.4107" y1="50.4101" x2="516.1443" y2="53.6382"/>
<line x1="516.1443" y1="53.6382" x2="519.1343" y2="56.7346"/>
<line x1="519.1343" y1="56.7346" x2="522.3016" y2="58.9046"/>
<line x1="569.6602" y1="51.9349" x2="570.2136" y2="52.2544"/>
<line x1="522.3016" y1="58.9046" x2="527.6657" y2="61.3429"/>
<line x1="527.6657" y1="61.3429" x2="534.2149" y2="63.0491"/>
<line x1="534.2149" y1="63.0491" x2="541.5479" y2="63.7762"/>
<line x1="541.5479" y1="63.7762" x2="551.0882" y2="63.0770"/>
<line x1="555.2669" y1="52.7391" x2="553.6349" y2="52.4144"/>
<line x1="553.6349" y1="52.4144" x2="551.9042" y2="53.5433"/>
<line x1="555.8439" y1="53.5433" x2="555.2669" y2="52.7391"/>
<line x1="533.5575" y1="40.6763" x2="533.0117" y2="39.8905"/>
<line x1="533.0117" y1="39.8905" x2="531.4029" y2="39.5440"/>
<line x1="531.4029" y1="39.5440" x2="530.1309" y2="39.9107"/>
<line x1="530.1309" y1="39.9107" x2="529.6178" y2="40.6763"/>
<line x1="552.4811" y1="61.8533" x2="554.1132" y2="62.1780"/>
<line x1="554.1132" y1="62.1780" x2="555.8439" y2="61.0491"/>
<line x1="555.8439" y1="61.0491" x2="555.2981" y2="60.2633"/>
<line x1="555.2981" y1="60.2633" x2="553.6893" y2="59.9168"/>
<line x1="553.6893" y1="59.9168" x2="552.4173" y2="60.2835"/>
<line x1="552.4173" y1="60.2835" x2="551.9042" y2="61.0491"/>
<line x1="551.9042" y1="61.0491" x2="552.4811" y2="61.8533"/>
<line x1="530.1947" y1="48.9862" x2="531.8268" y2="49.3109"/>
<line x1="531.8268" y1="49.3109" x2="533.5575" y2="48.1821"/>
<line x1="533.5575" y1="48.1821" x2="533.0117" y2="47.3963"/>
<line x1="533.0117" y1="47.3963" x2="531.4029" y2="47.0498"/>
<line x1="531.4029" y1="47.0498" x2="530.1309" y2="47.4165"/>
<line x1="530.1309" y1="47.4165" x2="529.6178" y2="48.1821"/>
<line x1="529.6178" y1="48.1821" x2="530.1947" y2="48.9862"/>
<line x1="571.6221" y1="46.6341" x2="576.1604" y2="49.2543"/>
<line x1="576.1604" y1="79.2774" x2="576.1604" y2="49.2543"/>
<line x1="571.6221" y1="40.6763" x2="571.0509" y2="37.3759"/>
<line x1="571.0509" y1="37.3759" x2="569.3174" y2="34.1479"/>
<line x1="569.3174" y1="34.1479" x2="566.3273" y2="31.0515"/>
<line x1="566.3273" y1="31.0515" x2="561.9858" y2="28.2404"/>
<line x1="561.9858" y1="28.2404" x2="556.3114" y2="25.9536"/>
<line x1="556.3114" y1="25.9536" x2="549.5274" y2="24.4640"/>
<line x1="549.5274" y1="24.4640" x2="542.0894" y2="24.0000"/>
<line x1="542.0894" y1="24.0000" x2="534.6271" y2="24.6655"/>
<line x1="534.6271" y1="24.6655" x2="527.8044" y2="26.3945"/>
<line x1="527.8044" y1="26.3945" x2="522.1567" y2="28.9657"/>
<line x1="522.1567" y1="28.9657" x2="517.9780" y2="32.0739"/>
<line x1="517.9780" y1="32.0739" x2="515.3086" y2="35.4250"/>
<line x1="515.3086" y1="35.4250" x2="514.0202" y2="38.8140"/>
<line x1="514.0202" y1="38.8140" x2="513.8396" y2="40.6763"/>
<line x1="551.9042" y1="61.0491" x2="551.9042" y2="53.5433"/>
<line x1="555.8439" y1="61.0491" x2="555.8439" y2="53.5433"/>
<line x1="529.6178" y1="48.1821" x2="529.6178" y2="40.6763"/>
<line x1="533.5575" y1="48.1821" x2="533.5575" y2="40.6763"/>
<line x1="513.8396" y1="47.1098" x2="513.8396" y2="40.6763"/>
<line x1="571.6221" y1="47.1098" x2="571.6221" y2="40.6763"/>
</g>
<g id="HIDDEN" stroke="#8892a0" stroke-width="0.25" fill="none" stroke-linecap="round" stroke-dasharray="2.4 1.2">
<line x1="154.0000" y1="274.5000" x2="204.0000" y2="274.5000"/>
<line x1="204.0000" y1="274.5000" x2="234.0000" y2="274.5000"/>
<line x1="124.0000" y1="274.5000" x2="154.0000" y2="274.5000"/>
<line x1="182.7500" y1="274.5000" x2="175.2500" y2="274.5000"/>
<line x1="175.2500" y1="274.5000" x2="182.7500" y2="274.5000"/>
<line x1="175.2500" y1="274.5000" x2="182.7500" y2="274.5000"/>
<line x1="182.7500" y1="274.5000" x2="175.2500" y2="274.5000"/>
<line x1="204.0000" y1="274.5000" x2="204.0000" y2="259.5000"/>
<line x1="204.0000" y1="329.5000" x2="204.0000" y2="259.5000"/>
<line x1="204.0000" y1="259.5000" x2="234.0000" y2="259.5000"/>
<line x1="124.0000" y1="259.5000" x2="154.0000" y2="259.5000"/>
<line x1="204.0000" y1="259.5000" x2="154.0000" y2="259.5000"/>
<line x1="154.0000" y1="274.5000" x2="154.0000" y2="259.5000"/>
<line x1="154.0000" y1="329.5000" x2="154.0000" y2="259.5000"/>
</g>
<g id="CENTER" stroke="#3a7d8c" stroke-width="0.18" fill="none" stroke-linecap="round" stroke-dasharray="7 1.4 1.4 1.4">
<line x1="535.5000" y1="360.5000" x2="557.7500" y2="360.5000"/>
</g>
<g id="DIM" stroke="#1d5c8a" stroke-width="0.18" fill="none" stroke-linecap="round">
<line x1="124.0000" y1="330.7000" x2="124.0000" y2="343.5000"/>
<line x1="234.0000" y1="330.7000" x2="234.0000" y2="343.5000"/>
<line x1="124.0000" y1="341.5000" x2="234.0000" y2="341.5000"/>
<polygon points="124.0000,341.5000 127.2000,342.1080 127.2000,340.8920" fill="#1d5c8a" stroke="none"/>
<polygon points="234.0000,341.5000 230.8000,340.8920 230.8000,342.1080" fill="#1d5c8a" stroke="none"/>
<line x1="122.8000" y1="329.5000" x2="110.0000" y2="329.5000"/>
<line x1="122.8000" y1="259.5000" x2="110.0000" y2="259.5000"/>
<line x1="112.0000" y1="329.5000" x2="112.0000" y2="259.5000"/>
<polygon points="112.0000,329.5000 112.6080,326.3000 111.3920,326.3000" fill="#1d5c8a" stroke="none"/>
<polygon points="112.0000,259.5000 111.3920,262.7000 112.6080,262.7000" fill="#1d5c8a" stroke="none"/>
<line x1="177.8000" y1="292.0000" x2="103.0000" y2="292.0000"/>
<line x1="177.8000" y1="274.5000" x2="103.0000" y2="274.5000"/>
<line x1="105.0000" y1="292.0000" x2="105.0000" y2="274.5000"/>
<polygon points="105.0000,292.0000 105.6080,288.8000 104.3920,288.8000" fill="#1d5c8a" stroke="none"/>
<polygon points="105.0000,274.5000 104.3920,277.7000 105.6080,277.7000" fill="#1d5c8a" stroke="none"/>
<line x1="124.0000" y1="211.7000" x2="124.0000" y2="224.5000"/>
<line x1="234.0000" y1="211.7000" x2="234.0000" y2="224.5000"/>
<line x1="124.0000" y1="222.5000" x2="234.0000" y2="222.5000"/>
<polygon points="124.0000,222.5000 127.2000,223.1080 127.2000,221.8920" fill="#1d5c8a" stroke="none"/>
<polygon points="234.0000,222.5000 230.8000,221.8920 230.8000,223.1080" fill="#1d5c8a" stroke="none"/>
<line x1="122.8000" y1="210.5000" x2="110.0000" y2="210.5000"/>
<line x1="122.8000" y1="90.5000" x2="110.0000" y2="90.5000"/>
<line x1="112.0000" y1="210.5000" x2="112.0000" y2="90.5000"/>
<polygon points="112.0000,210.5000 112.6080,207.3000 111.3920,207.3000" fill="#1d5c8a" stroke="none"/>
<polygon points="112.0000,90.5000 111.3920,93.7000 112.6080,93.7000" fill="#1d5c8a" stroke="none"/>
<polygon points="150.2772,202.4042 148.1958,204.9097 149.2598,205.4984" fill="#1d5c8a" stroke="none"/>
<line x1="150.2772" y1="202.4042" x2="145.4353" y2="211.1538"/>
<line x1="145.4353" y1="211.1538" x2="142.4353" y2="211.1538"/>
<polygon points="175.2500,185.5000 174.3046,188.6170 175.5136,188.7466" fill="#1d5c8a" stroke="none"/>
<line x1="175.2500" y1="185.5000" x2="174.1847" y2="195.4431"/>
<line x1="174.1847" y1="195.4431" x2="171.1847" y2="195.4431"/>
<line x1="177.8000" y1="125.5000" x2="103.0000" y2="125.5000"/>
<line x1="177.8000" y1="185.5000" x2="103.0000" y2="185.5000"/>
<line x1="105.0000" y1="185.5000" x2="105.0000" y2="125.5000"/>
<polygon points="105.0000,185.5000 105.6080,182.3000 104.3920,182.3000" fill="#1d5c8a" stroke="none"/>
<polygon points="105.0000,125.5000 104.3920,128.7000 105.6080,128.7000" fill="#1d5c8a" stroke="none"/>
<line x1="175.2500" y1="126.7000" x2="175.2500" y2="231.5000"/>
<line x1="182.7500" y1="126.7000" x2="182.7500" y2="231.5000"/>
<line x1="175.2500" y1="229.5000" x2="182.7500" y2="229.5000"/>
<polygon points="175.2500,229.5000 172.0500,228.8920 172.0500,230.1080" fill="#1d5c8a" stroke="none"/>
<polygon points="182.7500,229.5000 185.9500,230.1080 185.9500,228.8920" fill="#1d5c8a" stroke="none"/>
<line x1="182.7500" y1="229.5000" x2="192.3500" y2="229.5000"/>
<line x1="177.8000" y1="155.5000" x2="96.0000" y2="155.5000"/>
<line x1="177.8000" y1="108.0000" x2="96.0000" y2="108.0000"/>
<line x1="98.0000" y1="155.5000" x2="98.0000" y2="108.0000"/>
<polygon points="98.0000,155.5000 98.6080,152.3000 97.3920,152.3000" fill="#1d5c8a" stroke="none"/>
<polygon points="98.0000,108.0000 97.3920,111.2000 98.6080,111.2000" fill="#1d5c8a" stroke="none"/>
<line x1="272.0000" y1="330.7000" x2="272.0000" y2="343.5000"/>
<line x1="392.0000" y1="330.7000" x2="392.0000" y2="343.5000"/>
<line x1="272.0000" y1="341.5000" x2="392.0000" y2="341.5000"/>
<polygon points="272.0000,341.5000 275.2000,342.1080 275.2000,340.8920" fill="#1d5c8a" stroke="none"/>
<polygon points="392.0000,341.5000 388.8000,340.8920 388.8000,342.1080" fill="#1d5c8a" stroke="none"/>
<line x1="270.8000" y1="329.5000" x2="258.0000" y2="329.5000"/>
<line x1="270.8000" y1="259.5000" x2="258.0000" y2="259.5000"/>
<line x1="260.0000" y1="329.5000" x2="260.0000" y2="259.5000"/>
<polygon points="260.0000,329.5000 260.6080,326.3000 259.3920,326.3000" fill="#1d5c8a" stroke="none"/>
<polygon points="260.0000,259.5000 259.3920,262.7000 260.6080,262.7000" fill="#1d5c8a" stroke="none"/>
</g>
<g id="TEXT" stroke="#12283c" stroke-width="0.00" fill="none" stroke-linecap="round">
<text x="179.0000" y="340.5000" font-size="2.500" fill="#12283c" text-anchor="middle" stroke="none">22.00</text>
<text x="111.0000" y="294.5000" font-size="2.500" fill="#12283c" text-anchor="middle" stroke="none" transform="rotate(-90.0000 111.0000 294.5000)">14.00</text>
<text x="104.0000" y="283.2500" font-size="2.500" fill="#12283c" text-anchor="middle" stroke="none" transform="rotate(-90.0000 104.0000 283.2500)">3.500 PIN PROJECTION</text>
<text x="179.0000" y="353.5000" font-size="4.000" fill="#12283c" text-anchor="middle" stroke="none">FRONT VIEW</text>
<line x1="167.0000" y1="355.1000" x2="191.0000" y2="355.1000"/>
<text x="179.0000" y="359.5000" font-size="2.400" fill="#12283c" text-anchor="middle" stroke="none">-X →   Z ↑</text>
<text x="179.0000" y="221.5000" font-size="2.500" fill="#12283c" text-anchor="middle" stroke="none">22.00</text>
<text x="111.0000" y="150.5000" font-size="2.500" fill="#12283c" text-anchor="middle" stroke="none" transform="rotate(-90.0000 111.0000 150.5000)">24.00</text>
<text x="141.6353" y="210.1538" font-size="2.500" fill="#12283c" text-anchor="end" stroke="none">R11.00</text>
<text x="170.3847" y="194.4431" font-size="2.500" fill="#12283c" text-anchor="end" stroke="none">R0.75</text>
<text x="104.0000" y="155.5000" font-size="2.500" fill="#12283c" text-anchor="middle" stroke="none" transform="rotate(-90.0000 104.0000 155.5000)">12.000 PIN CENTRES</text>
<text x="193.1500" y="229.1000" font-size="2.500" fill="#12283c" text-anchor="start" stroke="none">2x Ø1.500 PIN</text>
<text x="97.0000" y="131.7500" font-size="2.500" fill="#12283c" text-anchor="middle" stroke="none" transform="rotate(-90.0000 97.0000 131.7500)">9.500 REF FACE</text>
<text x="179.0000" y="241.5000" font-size="4.000" fill="#12283c" text-anchor="middle" stroke="none">TOP VIEW</text>
<line x1="169.4000" y1="243.1000" x2="188.6000" y2="243.1000"/>
<text x="179.0000" y="247.5000" font-size="2.400" fill="#12283c" text-anchor="middle" stroke="none">X →   Y ↑</text>
<text x="332.0000" y="340.5000" font-size="2.500" fill="#12283c" text-anchor="middle" stroke="none">24.00</text>
<text x="259.0000" y="294.5000" font-size="2.500" fill="#12283c" text-anchor="middle" stroke="none" transform="rotate(-90.0000 259.0000 294.5000)">14.00</text>
<text x="332.0000" y="353.5000" font-size="4.000" fill="#12283c" text-anchor="middle" stroke="none">RIGHT VIEW</text>
<line x1="320.0000" y1="355.1000" x2="344.0000" y2="355.1000"/>
<text x="332.0000" y="359.5000" font-size="2.400" fill="#12283c" text-anchor="middle" stroke="none">-Y →   Z ↑</text>
<text x="545.0000" y="96.0000" font-size="4.000" fill="#12283c" text-anchor="middle" stroke="none">ISOMETRIC VIEW</text>
<line x1="528.2000" y1="97.6000" x2="561.8000" y2="97.6000"/>
<text x="545.0000" y="102.0000" font-size="2.600" fill="#12283c" text-anchor="middle" stroke="none">22.00 x 24.00 x 14.00 mm</text>
<text x="508.0000" y="116.0000" font-size="3.000" fill="#12283c" text-anchor="start" stroke="none">NOTES</text>
<text x="508.0000" y="120.6000" font-size="2.400" fill="#12283c" text-anchor="start" stroke="none">1. ALL DIMENSIONS IN mm AND DEGREES. EVERY</text>
<text x="508.0000" y="124.3200" font-size="2.400" fill="#12283c" text-anchor="start" stroke="none">   DIMENSION AND EVERY HOLE CALLOUT WAS MEASURED</text>
<text x="508.0000" y="128.0400" font-size="2.400" fill="#12283c" text-anchor="start" stroke="none">   OFF THE SOLID.</text>
<text x="508.0000" y="131.7600" font-size="2.400" fill="#12283c" text-anchor="start" stroke="none">2. THINNEST WALL, WHOLE SOLID (RAY MINIMUM):</text>
<text x="508.0000" y="135.4800" font-size="2.400" fill="#12283c" text-anchor="start" stroke="none">   1.5000 mm, AT X=-0.254 Y=-6.706 Z=-3.208 —</text>
<text x="508.0000" y="139.2000" font-size="2.400" fill="#12283c" text-anchor="start" stroke="none">   MEASURED OVER THE WHOLE SOLID BY RAY+EXACT AT</text>
<text x="508.0000" y="142.9200" font-size="2.400" fill="#12283c" text-anchor="start" stroke="none">   0.4810 mm SAMPLE SPACING (A FEATURE NARROWER</text>
<text x="508.0000" y="146.6400" font-size="2.400" fill="#12283c" text-anchor="start" stroke="none">   THAN THAT CAN BE MISSED). THIS IS A DISTANCE</text>
<text x="508.0000" y="150.3600" font-size="2.400" fill="#12283c" text-anchor="start" stroke="none">   THROUGH MATERIAL, NOT A WALL: AT AN EDGE, A</text>
<text x="508.0000" y="154.0800" font-size="2.400" fill="#12283c" text-anchor="start" stroke="none">   FILLET RUN-OUT OR A CHAMFER TIP IT IS REAL AND</text>
<text x="508.0000" y="157.8000" font-size="2.400" fill="#12283c" text-anchor="start" stroke="none">   UNPRINTABLE BY DEFINITION. DO NOT JUDGE</text>
<text x="508.0000" y="161.5200" font-size="2.400" fill="#12283c" text-anchor="start" stroke="none">   PRINTABILITY BY IT — THE NEXT NOTE IS THE ONE</text>
<text x="508.0000" y="165.2400" font-size="2.400" fill="#12283c" text-anchor="start" stroke="none">   THAT DOES.</text>
<text x="508.0000" y="168.9600" font-size="2.400" fill="#12283c" text-anchor="start" stroke="none">3. PRINTABLE MINIMUM WALL: 1.4995 mm, AT X=0.669</text>
<text x="508.0000" y="172.6800" font-size="2.400" fill="#12283c" text-anchor="start" stroke="none">   Y=6.339 Z=-0.875 — MEASURED AS THE SMALLEST</text>
<text x="508.0000" y="176.4000" font-size="2.400" fill="#12283c" text-anchor="start" stroke="none">   MEDIAN WALL OVER A NEIGHBOURHOOD OF 1.4430 mm</text>
<text x="508.0000" y="180.1200" font-size="2.400" fill="#12283c" text-anchor="start" stroke="none">   (&gt;= 8 SAMPLES), RAYS CAPPED AT 4.000 mm, BY</text>
<text x="508.0000" y="183.8400" font-size="2.400" fill="#12283c" text-anchor="start" stroke="none">   cecad.inspect.printable_wall_detail. AGAINST</text>
<text x="508.0000" y="187.5600" font-size="2.400" fill="#12283c" text-anchor="start" stroke="none">   THE 0.8000 mm FLOOR (2 PERIMETERS @ 0.4 mm</text>
<text x="508.0000" y="191.2800" font-size="2.400" fill="#12283c" text-anchor="start" stroke="none">   NOZZLE, cecad/printed.py:801): VERDICT PASS</text>
<text x="508.0000" y="195.0000" font-size="2.400" fill="#12283c" text-anchor="start" stroke="none">4. GENERAL TOLERANCE: CANNOT DETERMINE — THIS PART</text>
<text x="508.0000" y="198.7200" font-size="2.400" fill="#12283c" text-anchor="start" stroke="none">   DECLARES NO PROCESS THIS REPO CAN READ.</text>
<text x="508.0000" y="202.4400" font-size="2.400" fill="#12283c" text-anchor="start" stroke="none">5. FRONT VIEW: hidden lines KEPT: without them 2</text>
<text x="508.0000" y="206.1600" font-size="2.400" fill="#12283c" text-anchor="start" stroke="none">   of 189 edge samples have no ink within 0.35 mm</text>
<text x="508.0000" y="209.8800" font-size="2.400" fill="#12283c" text-anchor="start" stroke="none">   (worst 1.400 mm) and the feature would be</text>
<text x="508.0000" y="213.6000" font-size="2.400" fill="#12283c" text-anchor="start" stroke="none">   missing from the sheet.</text>
<text x="508.0000" y="217.3200" font-size="2.400" fill="#12283c" text-anchor="start" stroke="none">6. TOP VIEW: hidden lines SUPPRESSED: all 183 edge</text>
<text x="508.0000" y="221.0400" font-size="2.400" fill="#12283c" text-anchor="start" stroke="none">   samples still land on drawn ink without them.</text>
<text x="508.0000" y="224.7600" font-size="2.400" fill="#12283c" text-anchor="start" stroke="none">7. RIGHT VIEW: hidden lines SUPPRESSED: all 183</text>
<text x="508.0000" y="228.4800" font-size="2.400" fill="#12283c" text-anchor="start" stroke="none">   edge samples still land on drawn ink without</text>
<text x="508.0000" y="232.2000" font-size="2.400" fill="#12283c" text-anchor="start" stroke="none">   them.</text>
<text x="508.0000" y="235.9200" font-size="2.400" fill="#12283c" text-anchor="start" stroke="none">8. PINS ARE BOSSES, NOT HOLES, so they carry no</text>
<text x="508.0000" y="239.6400" font-size="2.400" fill="#12283c" text-anchor="start" stroke="none">   hole-table row: 2x Ø1.500 x 3.500 into the</text>
<text x="508.0000" y="243.3600" font-size="2.400" fill="#12283c" text-anchor="start" stroke="none">   horn's 1.60 tapped holes = 0.100 mm play =</text>
<text x="508.0000" y="247.0800" font-size="2.400" fill="#12283c" text-anchor="start" stroke="none">   0.955 deg of index play. INDEX GAUGE, NOT AN</text>
<text x="508.0000" y="250.8000" font-size="2.400" fill="#12283c" text-anchor="start" stroke="none">   ABSOLUTE ZERO.</text>
<text x="508.0000" y="258.5200" font-size="3.000" fill="#12283c" text-anchor="start" stroke="none">PRINT / DFM</text>
<text x="508.0000" y="263.1200" font-size="2.400" fill="#12283c" text-anchor="start" stroke="none">1. ORIENTATION: laid flat (22 x 24 x 14 mm)</text>
<text x="508.0000" y="266.8400" font-size="2.400" fill="#12283c" text-anchor="start" stroke="none">2. THINNEST WALL, WHOLE SOLID (RAY MINIMUM):</text>
<text x="508.0000" y="270.5600" font-size="2.400" fill="#12283c" text-anchor="start" stroke="none">   1.5000 mm — a distance through material, NOT a</text>
<text x="508.0000" y="274.2800" font-size="2.400" fill="#12283c" text-anchor="start" stroke="none">   printable wall where it falls on an edge, a</text>
<text x="508.0000" y="278.0000" font-size="2.400" fill="#12283c" text-anchor="start" stroke="none">   fillet run-out or a chamfer tip. Printability</text>
<text x="508.0000" y="281.7200" font-size="2.400" fill="#12283c" text-anchor="start" stroke="none">   is judged on the next line.</text>
<text x="508.0000" y="285.4400" font-size="2.400" fill="#12283c" text-anchor="start" stroke="none">3. PRINTABLE MINIMUM WALL: 1.4995 mm (smallest</text>
<text x="508.0000" y="289.1600" font-size="2.400" fill="#12283c" text-anchor="start" stroke="none">   median wall over a 1.4430 mm neighbourhood,</text>
<text x="508.0000" y="292.8800" font-size="2.400" fill="#12283c" text-anchor="start" stroke="none">   cecad.inspect.printable_wall_detail) against a</text>
<text x="508.0000" y="296.6000" font-size="2.400" fill="#12283c" text-anchor="start" stroke="none">   0.8000 mm floor (2 perimeters @ 0.4 mm nozzle):</text>
<text x="508.0000" y="300.3200" font-size="2.400" fill="#12283c" text-anchor="start" stroke="none">   VERDICT PASS</text>
<text x="508.0000" y="304.0400" font-size="2.400" fill="#12283c" text-anchor="start" stroke="none">4. FILAMENT: PLA, ~2 g (modelled), 70 layers @ 0.2</text>
<text x="508.0000" y="307.7600" font-size="2.400" fill="#12283c" text-anchor="start" stroke="none">   mm</text>
<text x="400.5000" y="360.5000" font-size="6.000" fill="#12283c" text-anchor="start" stroke="none" dominant-baseline="central">MICRODUCK-JIG-HORN-ZERO</text>
<text x="574.0000" y="365.0000" font-size="5.200" fill="#12283c" text-anchor="middle" stroke="none">A</text>
<text x="399.6000" y="374.1000" font-size="2.500" fill="#12283c" text-anchor="start" stroke="none">PLA</text>
<text x="463.6000" y="374.1000" font-size="2.500" fill="#12283c" text-anchor="start" stroke="none">-</text>
<text x="527.6000" y="374.1000" font-size="2.500" fill="#12283c" text-anchor="start" stroke="none">5:1</text>
<text x="399.6000" y="382.6000" font-size="2.500" fill="#12283c" text-anchor="start" stroke="none">-</text>
<text x="431.6000" y="382.6000" font-size="2.500" fill="#12283c" text-anchor="start" stroke="none">SEE NOTES</text>
<text x="463.6000" y="382.6000" font-size="2.500" fill="#12283c" text-anchor="start" stroke="none">AS PRINTED</text>
<text x="527.6000" y="382.6000" font-size="2.500" fill="#12283c" text-anchor="start" stroke="none">A2  1/1</text>
<text x="399.6000" y="391.1000" font-size="2.500" fill="#12283c" text-anchor="start" stroke="none">1.55 cm3</text>
<text x="463.6000" y="391.1000" font-size="2.500" fill="#12283c" text-anchor="start" stroke="none">1.9 g</text>
<text x="527.6000" y="391.1000" font-size="2.500" fill="#12283c" text-anchor="start" stroke="none">mm / deg</text>
<text x="399.6000" y="399.6000" font-size="2.500" fill="#12283c" text-anchor="start" stroke="none">22.00 x 24.00 x 14.00</text>
<text x="463.6000" y="399.6000" font-size="2.500" fill="#12283c" text-anchor="start" stroke="none">ce-cad  2026-09-03</text>
<text x="527.6000" y="399.6000" font-size="2.500" fill="#12283c" text-anchor="start" stroke="none">THIRD ANGLE</text>
<text x="399.6000" y="408.6000" font-size="2.600" fill="#12283c" text-anchor="start" stroke="none">tools/jigs.py</text>
<text x="12.5000" y="16.5000" font-size="4.200" fill="#12283c" text-anchor="start" stroke="none">microduck-jig-horn-zero   SCALE 5:1   A2   THIRD ANGLE</text>
</g>
<g id="FRAME" stroke="#101418" stroke-width="0.70" fill="none" stroke-linecap="round">
<line x1="10.0000" y1="410.0000" x2="584.0000" y2="410.0000"/>
<line x1="584.0000" y1="410.0000" x2="584.0000" y2="10.0000"/>
<line x1="584.0000" y1="10.0000" x2="10.0000" y2="10.0000"/>
<line x1="10.0000" y1="10.0000" x2="10.0000" y2="410.0000"/>
<line x1="398.0000" y1="410.0000" x2="584.0000" y2="410.0000"/>
<line x1="584.0000" y1="410.0000" x2="584.0000" y2="354.0000"/>
<line x1="584.0000" y1="354.0000" x2="398.0000" y2="354.0000"/>
<line x1="398.0000" y1="354.0000" x2="398.0000" y2="410.0000"/>
</g>
<g id="TITLE" stroke="#101418" stroke-width="0.35" fill="none" stroke-linecap="round">
<line x1="5.0000" y1="415.0000" x2="589.0000" y2="415.0000"/>
<line x1="589.0000" y1="415.0000" x2="589.0000" y2="5.0000"/>
<line x1="589.0000" y1="5.0000" x2="5.0000" y2="5.0000"/>
<line x1="5.0000" y1="5.0000" x2="5.0000" y2="415.0000"/>
<text x="67.4000" y="7.5000" font-size="2.400" fill="#101418" text-anchor="middle" stroke="none" dominant-baseline="central">1</text>
<text x="67.4000" y="412.5000" font-size="2.400" fill="#101418" text-anchor="middle" stroke="none" dominant-baseline="central">1</text>
<text x="182.2000" y="7.5000" font-size="2.400" fill="#101418" text-anchor="middle" stroke="none" dominant-baseline="central">2</text>
<text x="182.2000" y="412.5000" font-size="2.400" fill="#101418" text-anchor="middle" stroke="none" dominant-baseline="central">2</text>
<line x1="124.8000" y1="415.0000" x2="124.8000" y2="410.0000"/>
<line x1="124.8000" y1="10.0000" x2="124.8000" y2="5.0000"/>
<text x="297.0000" y="7.5000" font-size="2.400" fill="#101418" text-anchor="middle" stroke="none" dominant-baseline="central">3</text>
<text x="297.0000" y="412.5000" font-size="2.400" fill="#101418" text-anchor="middle" stroke="none" dominant-baseline="central">3</text>
<line x1="239.6000" y1="415.0000" x2="239.6000" y2="410.0000"/>
<line x1="239.6000" y1="10.0000" x2="239.6000" y2="5.0000"/>
<text x="411.8000" y="7.5000" font-size="2.400" fill="#101418" text-anchor="middle" stroke="none" dominant-baseline="central">4</text>
<text x="411.8000" y="412.5000" font-size="2.400" fill="#101418" text-anchor="middle" stroke="none" dominant-baseline="central">4</text>
<line x1="354.4000" y1="415.0000" x2="354.4000" y2="410.0000"/>
<line x1="354.4000" y1="10.0000" x2="354.4000" y2="5.0000"/>
<text x="526.6000" y="7.5000" font-size="2.400" fill="#101418" text-anchor="middle" stroke="none" dominant-baseline="central">5</text>
<text x="526.6000" y="412.5000" font-size="2.400" fill="#101418" text-anchor="middle" stroke="none" dominant-baseline="central">5</text>
<line x1="469.2000" y1="415.0000" x2="469.2000" y2="410.0000"/>
<line x1="469.2000" y1="10.0000" x2="469.2000" y2="5.0000"/>
<text x="7.5000" y="360.0000" font-size="2.400" fill="#101418" text-anchor="middle" stroke="none" dominant-baseline="central">D</text>
<text x="586.5000" y="360.0000" font-size="2.400" fill="#101418" text-anchor="middle" stroke="none" dominant-baseline="central">D</text>
<text x="7.5000" y="260.0000" font-size="2.400" fill="#101418" text-anchor="middle" stroke="none" dominant-baseline="central">C</text>
<text x="586.5000" y="260.0000" font-size="2.400" fill="#101418" text-anchor="middle" stroke="none" dominant-baseline="central">C</text>
<line x1="5.0000" y1="310.0000" x2="10.0000" y2="310.0000"/>
<line x1="584.0000" y1="310.0000" x2="589.0000" y2="310.0000"/>
<text x="7.5000" y="160.0000" font-size="2.400" fill="#101418" text-anchor="middle" stroke="none" dominant-baseline="central">B</text>
<text x="586.5000" y="160.0000" font-size="2.400" fill="#101418" text-anchor="middle" stroke="none" dominant-baseline="central">B</text>
<line x1="5.0000" y1="210.0000" x2="10.0000" y2="210.0000"/>
<line x1="584.0000" y1="210.0000" x2="589.0000" y2="210.0000"/>
<text x="7.5000" y="60.0000" font-size="2.400" fill="#101418" text-anchor="middle" stroke="none" dominant-baseline="central">A</text>
<text x="586.5000" y="60.0000" font-size="2.400" fill="#101418" text-anchor="middle" stroke="none" dominant-baseline="central">A</text>
<line x1="5.0000" y1="110.0000" x2="10.0000" y2="110.0000"/>
<line x1="584.0000" y1="110.0000" x2="589.0000" y2="110.0000"/>
<line x1="398.0000" y1="367.0000" x2="584.0000" y2="367.0000"/>
<line x1="398.0000" y1="401.0000" x2="584.0000" y2="401.0000"/>
<line x1="398.0000" y1="392.5000" x2="584.0000" y2="392.5000"/>
<line x1="398.0000" y1="384.0000" x2="584.0000" y2="384.0000"/>
<line x1="398.0000" y1="375.5000" x2="584.0000" y2="375.5000"/>
<line x1="564.0000" y1="367.0000" x2="564.0000" y2="354.0000"/>
<text x="574.0000" y="356.4000" font-size="1.700" fill="#101418" text-anchor="middle" stroke="none">REV</text>
<line x1="534.0000" y1="367.0000" x2="534.0000" y2="354.0000"/>
<circle cx="540.5000" cy="360.5000" r="3.5000"/>
<circle cx="540.5000" cy="360.5000" r="1.9600"/>
<line x1="550.3000" y1="364.0000" x2="550.3000" y2="357.0000"/>
<line x1="550.3000" y1="357.0000" x2="556.2500" y2="358.5400"/>
<line x1="556.2500" y1="358.5400" x2="556.2500" y2="362.4600"/>
<line x1="556.2500" y1="362.4600" x2="550.3000" y2="364.0000"/>
<line x1="462.0000" y1="401.0000" x2="462.0000" y2="367.0000"/>
<line x1="526.0000" y1="401.0000" x2="526.0000" y2="367.0000"/>
<text x="399.6000" y="369.4000" font-size="1.700" fill="#101418" text-anchor="start" stroke="none">MATERIAL</text>
<text x="463.6000" y="369.4000" font-size="1.700" fill="#101418" text-anchor="start" stroke="none">PROCESS</text>
<text x="527.6000" y="369.4000" font-size="1.700" fill="#101418" text-anchor="start" stroke="none">SCALE</text>
<text x="399.6000" y="377.9000" font-size="1.700" fill="#101418" text-anchor="start" stroke="none">CATEGORY</text>
<text x="431.6000" y="377.9000" font-size="1.700" fill="#101418" text-anchor="start" stroke="none">GENERAL TOL</text>
<line x1="430.0000" y1="384.0000" x2="430.0000" y2="375.5000"/>
<text x="463.6000" y="377.9000" font-size="1.700" fill="#101418" text-anchor="start" stroke="none">FINISH</text>
<text x="527.6000" y="377.9000" font-size="1.700" fill="#101418" text-anchor="start" stroke="none">SHEET</text>
<text x="399.6000" y="386.4000" font-size="1.700" fill="#101418" text-anchor="start" stroke="none">VOLUME (MEASURED)</text>
<text x="463.6000" y="386.4000" font-size="1.700" fill="#101418" text-anchor="start" stroke="none">MASS (ASSUMES PLA)</text>
<text x="527.6000" y="386.4000" font-size="1.700" fill="#101418" text-anchor="start" stroke="none">UNITS</text>
<text x="399.6000" y="394.9000" font-size="1.700" fill="#101418" text-anchor="start" stroke="none">SIZE (BBOX, MEASURED)</text>
<text x="463.6000" y="394.9000" font-size="1.700" fill="#101418" text-anchor="start" stroke="none">DRAWN</text>
<text x="527.6000" y="394.9000" font-size="1.700" fill="#101418" text-anchor="start" stroke="none">PROJECTION</text>
<text x="399.6000" y="403.4000" font-size="1.700" fill="#101418" text-anchor="start" stroke="none">SOURCE (DESIGN FILE)</text>
</g>
</svg>
