0
SECTION
2
HEADER
9
$ACADVER
1
AC1009
9
$INSUNITS
70
4
9
$LTSCALE
40
1.0
9
$EXTMIN
10
0.0000
20
0.0000
30
0.0
9
$EXTMAX
10
420.0000
20
297.0000
30
0.0
0
ENDSEC
0
SECTION
2
TABLES
0
TABLE
2
LTYPE
70
4
0
LTYPE
2
CONTINUOUS
70
0
3
Solid line
72
65
73
0
40
0.0000
0
LTYPE
2
HIDDEN
70
0
3
Hidden __ __ __ __
72
65
73
2
40
3.6000
49
2.4000
49
-1.2000
0
LTYPE
2
CENTER
70
0
3
Center ____ _ ____ _
72
65
73
4
40
11.2000
49
7.0000
49
-1.4000
49
1.4000
49
-1.4000
0
LTYPE
2
PHANTOM
70
0
3
Phantom ____ _ _ ____
72
65
73
6
40
21.0000
49
11.0000
49
-2.0000
49
2.0000
49
-2.0000
49
2.0000
49
-2.0000
0
ENDTAB
0
TABLE
2
LAYER
70
12
0
LAYER
2
0
70
0
62
7
6
CONTINUOUS
0
LAYER
2
VISIBLE
70
0
62
7
6
CONTINUOUS
0
LAYER
2
SECTION
70
0
62
7
6
CONTINUOUS
0
LAYER
2
HIDDEN
70
0
62
8
6
HIDDEN
0
LAYER
2
CENTER
70
0
62
4
6
CENTER
0
LAYER
2
DIM
70
0
62
3
6
CONTINUOUS
0
LAYER
2
TEXT
70
0
62
3
6
CONTINUOUS
0
LAYER
2
HATCH
70
0
62
5
6
CONTINUOUS
0
LAYER
2
CUT
70
0
62
1
6
PHANTOM
0
LAYER
2
CUTTHIN
70
0
62
1
6
PHANTOM
0
LAYER
2
FRAME
70
0
62
7
6
CONTINUOUS
0
LAYER
2
TITLE
70
0
62
7
6
CONTINUOUS
0
ENDTAB
0
ENDSEC
0
SECTION
2
ENTITIES
0
LINE
8
TITLE
10
5.000000
20
5.000000
30
0.0
11
415.000000
21
5.000000
31
0.0
0
LINE
8
TITLE
10
415.000000
20
5.000000
30
0.0
11
415.000000
21
292.000000
31
0.0
0
LINE
8
TITLE
10
415.000000
20
292.000000
30
0.0
11
5.000000
21
292.000000
31
0.0
0
LINE
8
TITLE
10
5.000000
20
292.000000
30
0.0
11
5.000000
21
5.000000
31
0.0
0
LINE
8
FRAME
10
10.000000
20
10.000000
30
0.0
11
410.000000
21
10.000000
31
0.0
0
LINE
8
FRAME
10
410.000000
20
10.000000
30
0.0
11
410.000000
21
287.000000
31
0.0
0
LINE
8
FRAME
10
410.000000
20
287.000000
30
0.0
11
10.000000
21
287.000000
31
0.0
0
LINE
8
FRAME
10
10.000000
20
287.000000
30
0.0
11
10.000000
21
10.000000
31
0.0
0
TEXT
8
TITLE
10
60.000000
20
289.500000
30
0.0
40
2.4000
1
1
72
1
73
2
11
60.000000
21
289.500000
31
0.0
0
TEXT
8
TITLE
10
60.000000
20
7.500000
30
0.0
40
2.4000
1
1
72
1
73
2
11
60.000000
21
7.500000
31
0.0
0
TEXT
8
TITLE
10
160.000000
20
289.500000
30
0.0
40
2.4000
1
2
72
1
73
2
11
160.000000
21
289.500000
31
0.0
0
TEXT
8
TITLE
10
160.000000
20
7.500000
30
0.0
40
2.4000
1
2
72
1
73
2
11
160.000000
21
7.500000
31
0.0
0
LINE
8
TITLE
10
110.000000
20
5.000000
30
0.0
11
110.000000
21
10.000000
31
0.0
0
LINE
8
TITLE
10
110.000000
20
287.000000
30
0.0
11
110.000000
21
292.000000
31
0.0
0
TEXT
8
TITLE
10
260.000000
20
289.500000
30
0.0
40
2.4000
1
3
72
1
73
2
11
260.000000
21
289.500000
31
0.0
0
TEXT
8
TITLE
10
260.000000
20
7.500000
30
0.0
40
2.4000
1
3
72
1
73
2
11
260.000000
21
7.500000
31
0.0
0
LINE
8
TITLE
10
210.000000
20
5.000000
30
0.0
11
210.000000
21
10.000000
31
0.0
0
LINE
8
TITLE
10
210.000000
20
287.000000
30
0.0
11
210.000000
21
292.000000
31
0.0
0
TEXT
8
TITLE
10
360.000000
20
289.500000
30
0.0
40
2.4000
1
4
72
1
73
2
11
360.000000
21
289.500000
31
0.0
0
TEXT
8
TITLE
10
360.000000
20
7.500000
30
0.0
40
2.4000
1
4
72
1
73
2
11
360.000000
21
7.500000
31
0.0
0
LINE
8
TITLE
10
310.000000
20
5.000000
30
0.0
11
310.000000
21
10.000000
31
0.0
0
LINE
8
TITLE
10
310.000000
20
287.000000
30
0.0
11
310.000000
21
292.000000
31
0.0
0
TEXT
8
TITLE
10
7.500000
20
56.166667
30
0.0
40
2.4000
1
C
72
1
73
2
11
7.500000
21
56.166667
31
0.0
0
TEXT
8
TITLE
10
412.500000
20
56.166667
30
0.0
40
2.4000
1
C
72
1
73
2
11
412.500000
21
56.166667
31
0.0
0
TEXT
8
TITLE
10
7.500000
20
148.500000
30
0.0
40
2.4000
1
B
72
1
73
2
11
7.500000
21
148.500000
31
0.0
0
TEXT
8
TITLE
10
412.500000
20
148.500000
30
0.0
40
2.4000
1
B
72
1
73
2
11
412.500000
21
148.500000
31
0.0
0
LINE
8
TITLE
10
5.000000
20
102.333333
30
0.0
11
10.000000
21
102.333333
31
0.0
0
LINE
8
TITLE
10
410.000000
20
102.333333
30
0.0
11
415.000000
21
102.333333
31
0.0
0
TEXT
8
TITLE
10
7.500000
20
240.833333
30
0.0
40
2.4000
1
A
72
1
73
2
11
7.500000
21
240.833333
31
0.0
0
TEXT
8
TITLE
10
412.500000
20
240.833333
30
0.0
40
2.4000
1
A
72
1
73
2
11
412.500000
21
240.833333
31
0.0
0
LINE
8
TITLE
10
5.000000
20
194.666667
30
0.0
11
10.000000
21
194.666667
31
0.0
0
LINE
8
TITLE
10
410.000000
20
194.666667
30
0.0
11
415.000000
21
194.666667
31
0.0
0
LINE
8
VISIBLE
10
118.000000
20
120.500000
30
0.0
11
118.000000
21
142.500000
31
0.0
0
LINE
8
VISIBLE
10
138.000000
20
120.500000
30
0.0
11
118.000000
21
120.500000
31
0.0
0
LINE
8
VISIBLE
10
138.000000
20
120.500000
30
0.0
11
138.000000
21
142.500000
31
0.0
0
LINE
8
VISIBLE
10
132.000000
20
133.500000
30
0.0
11
124.000000
21
133.500000
31
0.0
0
LINE
8
VISIBLE
10
124.000000
20
133.500000
30
0.0
11
124.000000
21
125.500000
31
0.0
0
LINE
8
VISIBLE
10
132.000000
20
125.500000
30
0.0
11
124.000000
21
125.500000
31
0.0
0
LINE
8
VISIBLE
10
132.000000
20
133.500000
30
0.0
11
132.000000
21
125.500000
31
0.0
0
LINE
8
VISIBLE
10
150.000000
20
142.500000
30
0.0
11
106.000000
21
142.500000
31
0.0
0
LINE
8
VISIBLE
10
126.500000
20
135.500000
30
0.0
11
126.500000
21
142.500000
31
0.0
0
LINE
8
VISIBLE
10
129.500000
20
135.500000
30
0.0
11
126.500000
21
135.500000
31
0.0
0
LINE
8
VISIBLE
10
150.000000
20
148.500000
30
0.0
11
106.000000
21
148.500000
31
0.0
0
LINE
8
VISIBLE
10
129.500000
20
135.500000
30
0.0
11
129.500000
21
142.500000
31
0.0
0
LINE
8
VISIBLE
10
106.000000
20
142.500000
30
0.0
11
106.000000
21
148.500000
31
0.0
0
LINE
8
VISIBLE
10
150.000000
20
142.500000
30
0.0
11
150.000000
21
148.500000
31
0.0
0
LINE
8
HIDDEN
10
118.000000
20
142.500000
30
0.0
11
138.000000
21
142.500000
31
0.0
0
LINE
8
HIDDEN
10
138.000000
20
142.500000
30
0.0
11
150.000000
21
142.500000
31
0.0
0
LINE
8
HIDDEN
10
106.000000
20
142.500000
30
0.0
11
118.000000
21
142.500000
31
0.0
0
LINE
8
HIDDEN
10
129.500000
20
142.500000
30
0.0
11
126.500000
21
142.500000
31
0.0
0
LINE
8
HIDDEN
10
126.500000
20
142.500000
30
0.0
11
129.500000
21
142.500000
31
0.0
0
LINE
8
HIDDEN
10
126.500000
20
142.500000
30
0.0
11
129.500000
21
142.500000
31
0.0
0
LINE
8
HIDDEN
10
129.500000
20
142.500000
30
0.0
11
126.500000
21
142.500000
31
0.0
0
LINE
8
HIDDEN
10
138.000000
20
142.500000
30
0.0
11
138.000000
21
148.500000
31
0.0
0
LINE
8
HIDDEN
10
138.000000
20
120.500000
30
0.0
11
138.000000
21
148.500000
31
0.0
0
LINE
8
HIDDEN
10
138.000000
20
148.500000
30
0.0
11
150.000000
21
148.500000
31
0.0
0
LINE
8
HIDDEN
10
106.000000
20
148.500000
30
0.0
11
118.000000
21
148.500000
31
0.0
0
LINE
8
HIDDEN
10
138.000000
20
148.500000
30
0.0
11
118.000000
21
148.500000
31
0.0
0
LINE
8
HIDDEN
10
118.000000
20
142.500000
30
0.0
11
118.000000
21
148.500000
31
0.0
0
LINE
8
HIDDEN
10
118.000000
20
120.500000
30
0.0
11
118.000000
21
148.500000
31
0.0
0
LINE
8
VISIBLE
10
118.000000
20
231.500000
30
0.0
11
138.000000
21
231.500000
31
0.0
0
LINE
8
VISIBLE
10
118.000000
20
231.500000
30
0.0
11
118.000000
21
238.500000
31
0.0
0
LINE
8
VISIBLE
10
118.000000
20
238.500000
30
0.0
11
138.000000
21
238.500000
31
0.0
0
LINE
8
VISIBLE
10
138.000000
20
231.500000
30
0.0
11
138.000000
21
238.500000
31
0.0
0
CIRCLE
8
VISIBLE
10
128.000000
20
224.500000
30
0.0
40
1.500000
0
CIRCLE
8
VISIBLE
10
128.000000
20
200.500000
30
0.0
40
1.500000
0
ARC
8
VISIBLE
10
128.000000
20
212.500000
30
0.0
40
22.000000
50
117.035692
51
62.964308
0
LINE
8
HIDDEN
10
124.000000
20
231.500000
30
0.0
11
132.000000
21
231.500000
31
0.0
0
LINE
8
HIDDEN
10
124.000000
20
231.500000
30
0.0
11
132.000000
21
231.500000
31
0.0
0
LINE
8
HIDDEN
10
124.000000
20
231.500000
30
0.0
11
124.000000
21
238.500000
31
0.0
0
LINE
8
HIDDEN
10
124.000000
20
238.500000
30
0.0
11
132.000000
21
238.500000
31
0.0
0
LINE
8
HIDDEN
10
132.000000
20
231.500000
30
0.0
11
132.000000
21
238.500000
31
0.0
0
LINE
8
HIDDEN
10
132.000000
20
231.500000
30
0.0
11
132.000000
21
238.500000
31
0.0
0
LINE
8
HIDDEN
10
124.000000
20
231.500000
30
0.0
11
124.000000
21
238.500000
31
0.0
0
LINE
8
HIDDEN
10
124.000000
20
238.500000
30
0.0
11
132.000000
21
238.500000
31
0.0
0
LINE
8
HIDDEN
10
118.000000
20
231.500000
30
0.0
11
118.000000
21
232.095918
31
0.0
0
LINE
8
HIDDEN
10
138.000000
20
231.500000
30
0.0
11
138.000000
21
232.095918
31
0.0
0
LINE
8
HIDDEN
10
118.000000
20
232.095918
30
0.0
11
118.000000
21
238.500000
31
0.0
0
ARC
8
HIDDEN
10
128.000000
20
212.500000
30
0.0
40
22.000000
50
117.035692
51
360.000000
0
ARC
8
HIDDEN
10
128.000000
20
212.500000
30
0.0
40
22.000000
50
0.000000
51
62.964308
0
LINE
8
HIDDEN
10
138.000000
20
232.095918
30
0.0
11
138.000000
21
238.500000
31
0.0
0
LINE
8
VISIBLE
10
195.000000
20
120.500000
30
0.0
11
195.000000
21
142.500000
31
0.0
0
LINE
8
VISIBLE
10
195.000000
20
120.500000
30
0.0
11
188.000000
21
120.500000
31
0.0
0
LINE
8
VISIBLE
10
236.000000
20
142.500000
30
0.0
11
214.000000
21
142.500000
31
0.0
0
LINE
8
VISIBLE
10
214.000000
20
142.500000
30
0.0
11
194.404082
21
142.500000
31
0.0
0
LINE
8
VISIBLE
10
202.000000
20
135.500000
30
0.0
11
200.500000
21
135.500000
31
0.0
0
LINE
8
VISIBLE
10
203.500000
20
135.500000
30
0.0
11
202.000000
21
135.500000
31
0.0
0
LINE
8
VISIBLE
10
226.000000
20
135.500000
30
0.0
11
224.500000
21
135.500000
31
0.0
0
LINE
8
VISIBLE
10
227.500000
20
135.500000
30
0.0
11
226.000000
21
135.500000
31
0.0
0
LINE
8
VISIBLE
10
236.000000
20
148.500000
30
0.0
11
214.000000
21
148.500000
31
0.0
0
LINE
8
VISIBLE
10
214.000000
20
148.500000
30
0.0
11
194.404082
21
148.500000
31
0.0
0
LINE
8
VISIBLE
10
194.404082
20
148.500000
30
0.0
11
188.000000
21
148.500000
31
0.0
0
LINE
8
VISIBLE
10
194.404082
20
142.500000
30
0.0
11
194.404082
21
148.500000
31
0.0
0
LINE
8
VISIBLE
10
188.000000
20
120.500000
30
0.0
11
188.000000
21
148.500000
31
0.0
0
LINE
8
VISIBLE
10
202.000000
20
135.500000
30
0.0
11
202.000000
21
142.500000
31
0.0
0
LINE
8
VISIBLE
10
226.000000
20
135.500000
30
0.0
11
226.000000
21
142.500000
31
0.0
0
LINE
8
VISIBLE
10
200.500000
20
135.500000
30
0.0
11
200.500000
21
142.500000
31
0.0
0
LINE
8
VISIBLE
10
203.500000
20
135.500000
30
0.0
11
203.500000
21
142.500000
31
0.0
0
LINE
8
VISIBLE
10
224.500000
20
135.500000
30
0.0
11
224.500000
21
142.500000
31
0.0
0
LINE
8
VISIBLE
10
227.500000
20
135.500000
30
0.0
11
227.500000
21
142.500000
31
0.0
0
LINE
8
VISIBLE
10
236.000000
20
142.500000
30
0.0
11
236.000000
21
148.500000
31
0.0
0
LINE
8
HIDDEN
10
195.000000
20
133.500000
30
0.0
11
195.000000
21
125.500000
31
0.0
0
LINE
8
HIDDEN
10
195.000000
20
133.500000
30
0.0
11
195.000000
21
125.500000
31
0.0
0
LINE
8
HIDDEN
10
195.000000
20
133.500000
30
0.0
11
188.000000
21
133.500000
31
0.0
0
LINE
8
HIDDEN
10
195.000000
20
133.500000
30
0.0
11
188.000000
21
133.500000
31
0.0
0
LINE
8
HIDDEN
10
188.000000
20
133.500000
30
0.0
11
188.000000
21
125.500000
31
0.0
0
LINE
8
HIDDEN
10
195.000000
20
125.500000
30
0.0
11
188.000000
21
125.500000
31
0.0
0
LINE
8
HIDDEN
10
195.000000
20
125.500000
30
0.0
11
188.000000
21
125.500000
31
0.0
0
LINE
8
HIDDEN
10
188.000000
20
133.500000
30
0.0
11
188.000000
21
125.500000
31
0.0
0
LINE
8
HIDDEN
10
194.404082
20
142.500000
30
0.0
11
236.000000
21
142.500000
31
0.0
0
LINE
8
HIDDEN
10
195.000000
20
142.500000
30
0.0
11
194.404082
21
142.500000
31
0.0
0
LINE
8
HIDDEN
10
195.000000
20
142.500000
30
0.0
11
194.404082
21
142.500000
31
0.0
0
LINE
8
HIDDEN
10
202.000000
20
142.500000
30
0.0
11
203.500000
21
142.500000
31
0.0
0
LINE
8
HIDDEN
10
203.500000
20
142.500000
30
0.0
11
202.000000
21
142.500000
31
0.0
0
LINE
8
HIDDEN
10
202.000000
20
142.500000
30
0.0
11
200.500000
21
142.500000
31
0.0
0
LINE
8
HIDDEN
10
200.500000
20
142.500000
30
0.0
11
202.000000
21
142.500000
31
0.0
0
LINE
8
HIDDEN
10
226.000000
20
142.500000
30
0.0
11
224.500000
21
142.500000
31
0.0
0
LINE
8
HIDDEN
10
224.500000
20
142.500000
30
0.0
11
227.500000
21
142.500000
31
0.0
0
LINE
8
HIDDEN
10
227.500000
20
142.500000
30
0.0
11
226.000000
21
142.500000
31
0.0
0
LINE
8
HIDDEN
10
200.500000
20
135.500000
30
0.0
11
203.500000
21
135.500000
31
0.0
0
LINE
8
HIDDEN
10
224.500000
20
135.500000
30
0.0
11
227.500000
21
135.500000
31
0.0
0
LINE
8
HIDDEN
10
194.404082
20
148.500000
30
0.0
11
236.000000
21
148.500000
31
0.0
0
LINE
8
DIM
10
106.000000
20
119.300000
30
0.0
11
106.000000
21
106.500000
31
0.0
0
LINE
8
DIM
10
150.000000
20
119.300000
30
0.0
11
150.000000
21
106.500000
31
0.0
0
LINE
8
DIM
10
106.000000
20
108.500000
30
0.0
11
150.000000
21
108.500000
31
0.0
0
SOLID
8
DIM
10
106.000000
20
108.500000
30
0.0
11
109.200000
21
107.892000
31
0.0
12
109.200000
22
109.108000
32
0.0
13
109.200000
23
109.108000
33
0.0
0
SOLID
8
DIM
10
150.000000
20
108.500000
30
0.0
11
146.800000
21
109.108000
31
0.0
12
146.800000
22
107.892000
32
0.0
13
146.800000
23
107.892000
33
0.0
0
TEXT
8
TEXT
10
128.000000
20
109.500000
30
0.0
40
2.5000
1
22.00
72
1
73
0
11
128.000000
21
109.500000
31
0.0
0
LINE
8
DIM
10
104.800000
20
120.500000
30
0.0
11
92.000000
21
120.500000
31
0.0
0
LINE
8
DIM
10
104.800000
20
148.500000
30
0.0
11
92.000000
21
148.500000
31
0.0
0
LINE
8
DIM
10
94.000000
20
120.500000
30
0.0
11
94.000000
21
148.500000
31
0.0
0
SOLID
8
DIM
10
94.000000
20
120.500000
30
0.0
11
94.608000
21
123.700000
31
0.0
12
93.392000
22
123.700000
32
0.0
13
93.392000
23
123.700000
33
0.0
0
SOLID
8
DIM
10
94.000000
20
148.500000
30
0.0
11
93.392000
21
145.300000
31
0.0
12
94.608000
22
145.300000
32
0.0
13
94.608000
23
145.300000
33
0.0
0
TEXT
8
TEXT
10
93.000000
20
134.500000
30
0.0
40
2.5000
1
14.00
50
90.0000
72
1
73
0
11
93.000000
21
134.500000
31
0.0
0
TEXT
8
TEXT
10
128.000000
20
96.500000
30
0.0
40
4.0000
1
FRONT VIEW
72
1
73
0
11
128.000000
21
96.500000
31
0.0
0
LINE
8
TEXT
10
116.000000
20
94.900000
30
0.0
11
140.000000
21
94.900000
31
0.0
0
TEXT
8
TEXT
10
128.000000
20
90.500000
30
0.0
40
2.4000
1
-X →   Z ↑
72
1
73
0
11
128.000000
21
90.500000
31
0.0
0
LINE
8
DIM
10
106.000000
20
189.300000
30
0.0
11
106.000000
21
176.500000
31
0.0
0
LINE
8
DIM
10
150.000000
20
189.300000
30
0.0
11
150.000000
21
176.500000
31
0.0
0
LINE
8
DIM
10
106.000000
20
178.500000
30
0.0
11
150.000000
21
178.500000
31
0.0
0
SOLID
8
DIM
10
106.000000
20
178.500000
30
0.0
11
109.200000
21
177.892000
31
0.0
12
109.200000
22
179.108000
32
0.0
13
109.200000
23
179.108000
33
0.0
0
SOLID
8
DIM
10
150.000000
20
178.500000
30
0.0
11
146.800000
21
179.108000
31
0.0
12
146.800000
22
177.892000
32
0.0
13
146.800000
23
177.892000
33
0.0
0
TEXT
8
TEXT
10
128.000000
20
179.500000
30
0.0
40
2.5000
1
22.00
72
1
73
0
11
128.000000
21
179.500000
31
0.0
0
LINE
8
DIM
10
104.800000
20
190.500000
30
0.0
11
92.000000
21
190.500000
31
0.0
0
LINE
8
DIM
10
104.800000
20
238.500000
30
0.0
11
92.000000
21
238.500000
31
0.0
0
LINE
8
DIM
10
94.000000
20
190.500000
30
0.0
11
94.000000
21
238.500000
31
0.0
0
SOLID
8
DIM
10
94.000000
20
190.500000
30
0.0
11
94.608000
21
193.700000
31
0.0
12
93.392000
22
193.700000
32
0.0
13
93.392000
23
193.700000
33
0.0
0
SOLID
8
DIM
10
94.000000
20
238.500000
30
0.0
11
93.392000
21
235.300000
31
0.0
12
94.608000
22
235.300000
32
0.0
13
94.608000
23
235.300000
33
0.0
0
TEXT
8
TEXT
10
93.000000
20
214.500000
30
0.0
40
2.5000
1
24.00
50
90.0000
72
1
73
0
11
93.000000
21
214.500000
31
0.0
0
TEXT
8
TEXT
10
128.000000
20
166.500000
30
0.0
40
4.0000
1
TOP VIEW
72
1
73
0
11
128.000000
21
166.500000
31
0.0
0
LINE
8
TEXT
10
118.400000
20
164.900000
30
0.0
11
137.600000
21
164.900000
31
0.0
0
TEXT
8
TEXT
10
128.000000
20
160.500000
30
0.0
40
2.4000
1
X →   Y ↑
72
1
73
0
11
128.000000
21
160.500000
31
0.0
0
LINE
8
DIM
10
188.000000
20
119.300000
30
0.0
11
188.000000
21
106.500000
31
0.0
0
LINE
8
DIM
10
236.000000
20
119.300000
30
0.0
11
236.000000
21
106.500000
31
0.0
0
LINE
8
DIM
10
188.000000
20
108.500000
30
0.0
11
236.000000
21
108.500000
31
0.0
0
SOLID
8
DIM
10
188.000000
20
108.500000
30
0.0
11
191.200000
21
107.892000
31
0.0
12
191.200000
22
109.108000
32
0.0
13
191.200000
23
109.108000
33
0.0
0
SOLID
8
DIM
10
236.000000
20
108.500000
30
0.0
11
232.800000
21
109.108000
31
0.0
12
232.800000
22
107.892000
32
0.0
13
232.800000
23
107.892000
33
0.0
0
TEXT
8
TEXT
10
212.000000
20
109.500000
30
0.0
40
2.5000
1
24.00
72
1
73
0
11
212.000000
21
109.500000
31
0.0
0
LINE
8
DIM
10
186.800000
20
120.500000
30
0.0
11
174.000000
21
120.500000
31
0.0
0
LINE
8
DIM
10
186.800000
20
148.500000
30
0.0
11
174.000000
21
148.500000
31
0.0
0
LINE
8
DIM
10
176.000000
20
120.500000
30
0.0
11
176.000000
21
148.500000
31
0.0
0
SOLID
8
DIM
10
176.000000
20
120.500000
30
0.0
11
176.608000
21
123.700000
31
0.0
12
175.392000
22
123.700000
32
0.0
13
175.392000
23
123.700000
33
0.0
0
SOLID
8
DIM
10
176.000000
20
148.500000
30
0.0
11
175.392000
21
145.300000
31
0.0
12
176.608000
22
145.300000
32
0.0
13
176.608000
23
145.300000
33
0.0
0
TEXT
8
TEXT
10
175.000000
20
134.500000
30
0.0
40
2.5000
1
14.00
50
90.0000
72
1
73
0
11
175.000000
21
134.500000
31
0.0
0
TEXT
8
TEXT
10
212.000000
20
96.500000
30
0.0
40
4.0000
1
RIGHT VIEW
72
1
73
0
11
212.000000
21
96.500000
31
0.0
0
LINE
8
TEXT
10
200.000000
20
94.900000
30
0.0
11
224.000000
21
94.900000
31
0.0
0
TEXT
8
TEXT
10
212.000000
20
90.500000
30
0.0
40
2.4000
1
-Y →   Z ↑
72
1
73
0
11
212.000000
21
90.500000
31
0.0
0
TEXT
8
TEXT
10
334.000000
20
275.000000
30
0.0
40
3.0000
1
NOTES
0
TEXT
8
TEXT
10
334.000000
20
270.400000
30
0.0
40
2.4000
1
1. ALL DIMENSIONS IN mm AND DEGREES. EVERY
0
TEXT
8
TEXT
10
334.000000
20
266.680000
30
0.0
40
2.4000
1
   DIMENSION AND EVERY HOLE CALLOUT WAS MEASURED
0
TEXT
8
TEXT
10
334.000000
20
262.960000
30
0.0
40
2.4000
1
   OFF THE SOLID.
0
TEXT
8
TEXT
10
334.000000
20
259.240000
30
0.0
40
2.4000
1
2. THINNEST WALL, WHOLE SOLID: 1.5000 mm, AT
0
TEXT
8
TEXT
10
334.000000
20
255.520000
30
0.0
40
2.4000
1
   X=-0.254 Y=-6.706 Z=-3.208 — MEASURED OVER THE
0
TEXT
8
TEXT
10
334.000000
20
251.800000
30
0.0
40
2.4000
1
   WHOLE SOLID BY RAY+EXACT AT 0.481 mm SAMPLE
0
TEXT
8
TEXT
10
334.000000
20
248.080000
30
0.0
40
2.4000
1
   SPACING (A FEATURE NARROWER THAN THAT CAN BE
0
TEXT
8
TEXT
10
334.000000
20
244.360000
30
0.0
40
2.4000
1
   MISSED). A RAY MINIMUM AT AN EDGE, A FILLET
0
TEXT
8
TEXT
10
334.000000
20
240.640000
30
0.0
40
2.4000
1
   RUN-OUT OR A CHAMFER TIP IS A REAL DISTANCE
0
TEXT
8
TEXT
10
334.000000
20
236.920000
30
0.0
40
2.4000
1
   THROUGH MATERIAL AND IS NOT A PRINTABLE WALL.
0
TEXT
8
TEXT
10
334.000000
20
233.200000
30
0.0
40
2.4000
1
3. GENERAL TOLERANCE: CANNOT DETERMINE — THIS PART
0
TEXT
8
TEXT
10
334.000000
20
229.480000
30
0.0
40
2.4000
1
   DECLARES NO PROCESS THIS REPO CAN READ.
0
LINE
8
FRAME
10
224.000000
20
10.000000
30
0.0
11
410.000000
21
10.000000
31
0.0
0
LINE
8
FRAME
10
410.000000
20
10.000000
30
0.0
11
410.000000
21
66.000000
31
0.0
0
LINE
8
FRAME
10
410.000000
20
66.000000
30
0.0
11
224.000000
21
66.000000
31
0.0
0
LINE
8
FRAME
10
224.000000
20
66.000000
30
0.0
11
224.000000
21
10.000000
31
0.0
0
LINE
8
TITLE
10
224.000000
20
53.000000
30
0.0
11
410.000000
21
53.000000
31
0.0
0
LINE
8
TITLE
10
224.000000
20
19.000000
30
0.0
11
410.000000
21
19.000000
31
0.0
0
LINE
8
TITLE
10
224.000000
20
27.500000
30
0.0
11
410.000000
21
27.500000
31
0.0
0
LINE
8
TITLE
10
224.000000
20
36.000000
30
0.0
11
410.000000
21
36.000000
31
0.0
0
LINE
8
TITLE
10
224.000000
20
44.500000
30
0.0
11
410.000000
21
44.500000
31
0.0
0
TEXT
8
TEXT
10
226.500000
20
59.500000
30
0.0
40
6.0000
1
MICRODUCK-JIG-HORN-ZERO
72
0
73
2
11
226.500000
21
59.500000
31
0.0
0
LINE
8
TITLE
10
390.000000
20
53.000000
30
0.0
11
390.000000
21
66.000000
31
0.0
0
TEXT
8
TITLE
10
400.000000
20
63.600000
30
0.0
40
1.7000
1
REV
72
1
73
0
11
400.000000
21
63.600000
31
0.0
0
TEXT
8
TEXT
10
400.000000
20
55.000000
30
0.0
40
5.2000
1
A
72
1
73
0
11
400.000000
21
55.000000
31
0.0
0
LINE
8
TITLE
10
360.000000
20
53.000000
30
0.0
11
360.000000
21
66.000000
31
0.0
0
CIRCLE
8
TITLE
10
366.500000
20
59.500000
30
0.0
40
3.500000
0
CIRCLE
8
TITLE
10
366.500000
20
59.500000
30
0.0
40
1.960000
0
LINE
8
TITLE
10
376.300000
20
56.000000
30
0.0
11
376.300000
21
63.000000
31
0.0
0
LINE
8
TITLE
10
376.300000
20
63.000000
30
0.0
11
382.250000
21
61.460000
31
0.0
0
LINE
8
TITLE
10
382.250000
20
61.460000
30
0.0
11
382.250000
21
57.540000
31
0.0
0
LINE
8
TITLE
10
382.250000
20
57.540000
30
0.0
11
376.300000
21
56.000000
31
0.0
0
LINE
8
CENTER
10
361.500000
20
59.500000
30
0.0
11
383.750000
21
59.500000
31
0.0
0
LINE
8
TITLE
10
288.000000
20
19.000000
30
0.0
11
288.000000
21
53.000000
31
0.0
0
LINE
8
TITLE
10
352.000000
20
19.000000
30
0.0
11
352.000000
21
53.000000
31
0.0
0
TEXT
8
TITLE
10
225.600000
20
50.600000
30
0.0
40
1.7000
1
MATERIAL
0
TEXT
8
TEXT
10
225.600000
20
45.900000
30
0.0
40
2.5000
1
PLA
0
TEXT
8
TITLE
10
289.600000
20
50.600000
30
0.0
40
1.7000
1
PROCESS
0
TEXT
8
TEXT
10
289.600000
20
45.900000
30
0.0
40
2.5000
1
-
0
TEXT
8
TITLE
10
353.600000
20
50.600000
30
0.0
40
1.7000
1
SCALE
0
TEXT
8
TEXT
10
353.600000
20
45.900000
30
0.0
40
2.5000
1
2:1
0
TEXT
8
TITLE
10
225.600000
20
42.100000
30
0.0
40
1.7000
1
CATEGORY
0
TEXT
8
TEXT
10
225.600000
20
37.400000
30
0.0
40
2.5000
1
-
0
TEXT
8
TITLE
10
257.600000
20
42.100000
30
0.0
40
1.7000
1
GENERAL TOL
0
TEXT
8
TEXT
10
257.600000
20
37.400000
30
0.0
40
2.5000
1
SEE NOTES
0
LINE
8
TITLE
10
256.000000
20
36.000000
30
0.0
11
256.000000
21
44.500000
31
0.0
0
TEXT
8
TITLE
10
289.600000
20
42.100000
30
0.0
40
1.7000
1
FINISH
0
TEXT
8
TEXT
10
289.600000
20
37.400000
30
0.0
40
2.5000
1
AS PRINTED
0
TEXT
8
TITLE
10
353.600000
20
42.100000
30
0.0
40
1.7000
1
SHEET
0
TEXT
8
TEXT
10
353.600000
20
37.400000
30
0.0
40
2.5000
1
A3  1/1
0
TEXT
8
TITLE
10
225.600000
20
33.600000
30
0.0
40
1.7000
1
VOLUME (MEASURED)
0
TEXT
8
TEXT
10
225.600000
20
28.900000
30
0.0
40
2.5000
1
1.55 cm3
0
TEXT
8
TITLE
10
289.600000
20
33.600000
30
0.0
40
1.7000
1
MASS (ASSUMES PLA)
0
TEXT
8
TEXT
10
289.600000
20
28.900000
30
0.0
40
2.5000
1
1.9 g
0
TEXT
8
TITLE
10
353.600000
20
33.600000
30
0.0
40
1.7000
1
UNITS
0
TEXT
8
TEXT
10
353.600000
20
28.900000
30
0.0
40
2.5000
1
mm / deg
0
TEXT
8
TITLE
10
225.600000
20
25.100000
30
0.0
40
1.7000
1
SIZE (BBOX, MEASURED)
0
TEXT
8
TEXT
10
225.600000
20
20.400000
30
0.0
40
2.5000
1
22.00 x 24.00 x 14.00
0
TEXT
8
TITLE
10
289.600000
20
25.100000
30
0.0
40
1.7000
1
DRAWN
0
TEXT
8
TEXT
10
289.600000
20
20.400000
30
0.0
40
2.5000
1
ce-cad  2026-09-02
0
TEXT
8
TITLE
10
353.600000
20
25.100000
30
0.0
40
1.7000
1
PROJECTION
0
TEXT
8
TEXT
10
353.600000
20
20.400000
30
0.0
40
2.5000
1
THIRD ANGLE
0
TEXT
8
TITLE
10
225.600000
20
16.600000
30
0.0
40
1.7000
1
SOURCE (DESIGN FILE)
0
TEXT
8
TEXT
10
225.600000
20
11.400000
30
0.0
40
2.6000
1
tools/jigs.py
0
TEXT
8
TEXT
10
12.500000
20
280.500000
30
0.0
40
4.2000
1
microduck-jig-horn-zero   SCALE 2:1   A3   THIRD ANGLE
0
ENDSEC
0
EOF
