ISO-10303-21;
HEADER;
FILE_DESCRIPTION(('FreeCAD Model'),'2;1');
FILE_NAME('Open CASCADE Shape Model','2026-09-04T23:28:07',('FreeCAD'),(
    'FreeCAD'),'Open CASCADE STEP processor 7.8','FreeCAD','Unknown');
FILE_SCHEMA(('AUTOMOTIVE_DESIGN { 1 0 10303 214 1 1 1 1 }'));
ENDSEC;
DATA;
#1 = APPLICATION_PROTOCOL_DEFINITION('international standard',
  'automotive_design',2000,#2);
#2 = APPLICATION_CONTEXT(
  'core data for automotive mechanical design processes');
#3 = SHAPE_DEFINITION_REPRESENTATION(#4,#10);
#4 = PRODUCT_DEFINITION_SHAPE('','',#5);
#5 = PRODUCT_DEFINITION('design','',#6,#9);
#6 = PRODUCT_DEFINITION_FORMATION('','',#7);
#7 = PRODUCT('Open CASCADE STEP translator 7.8 50',
  'Open CASCADE STEP translator 7.8 50','',(#8));
#8 = PRODUCT_CONTEXT('',#2,'mechanical');
#9 = PRODUCT_DEFINITION_CONTEXT('part definition',#2,'design');
#10 = ADVANCED_BREP_SHAPE_REPRESENTATION('',(#11,#15),#721);
#11 = AXIS2_PLACEMENT_3D('',#12,#13,#14);
#12 = CARTESIAN_POINT('',(0.,0.,0.));
#13 = DIRECTION('',(0.,0.,1.));
#14 = DIRECTION('',(1.,0.,-0.));
#15 = MANIFOLD_SOLID_BREP('',#16);
#16 = CLOSED_SHELL('',(#17,#34,#59,#360,#386,#687,#712));
#17 = ADVANCED_FACE('',(#18),#29,.F.);
#18 = FACE_BOUND('',#19,.F.);
#19 = EDGE_LOOP('',(#20));
#20 = ORIENTED_EDGE('',*,*,#21,.T.);
#21 = EDGE_CURVE('',#22,#22,#24,.T.);
#22 = VERTEX_POINT('',#23);
#23 = CARTESIAN_POINT('',(0.,0.,-2.880000340985));
#24 = CIRCLE('',#25,0.25);
#25 = AXIS2_PLACEMENT_3D('',#26,#27,#28);
#26 = CARTESIAN_POINT('',(-0.25,-5.07334389267E-18,-2.880000340985));
#27 = DIRECTION('',(0.,-0.,1.));
#28 = DIRECTION('',(1.,2.029307271514E-17,0.));
#29 = PLANE('',#30);
#30 = AXIS2_PLACEMENT_3D('',#31,#32,#33);
#31 = CARTESIAN_POINT('',(-0.25,1.677070731574E-17,-2.880000340985));
#32 = DIRECTION('',(0.,0.,1.));
#33 = DIRECTION('',(1.,2.029307271514E-17,0.));
#34 = ADVANCED_FACE('',(#35),#54,.T.);
#35 = FACE_BOUND('',#36,.T.);
#36 = EDGE_LOOP('',(#37,#45,#52,#53));
#37 = ORIENTED_EDGE('',*,*,#38,.T.);
#38 = EDGE_CURVE('',#22,#39,#41,.T.);
#39 = VERTEX_POINT('',#40);
#40 = CARTESIAN_POINT('',(0.,0.,0.119999916303));
#41 = LINE('',#42,#43);
#42 = CARTESIAN_POINT('',(1.536467373597E-39,-7.571388498749E-23,
    -2.880000340985));
#43 = VECTOR('',#44,1.);
#44 = DIRECTION('',(-4.505967313747E-33,2.22044604925E-16,1.));
#45 = ORIENTED_EDGE('',*,*,#46,.F.);
#46 = EDGE_CURVE('',#39,#39,#47,.T.);
#47 = CIRCLE('',#48,0.25);
#48 = AXIS2_PLACEMENT_3D('',#49,#50,#51);
#49 = CARTESIAN_POINT('',(-0.25,6.610605280117E-16,0.119999916303));
#50 = DIRECTION('',(-4.505967313747E-33,2.22044604925E-16,1.));
#51 = DIRECTION('',(1.,2.029307271514E-17,0.));
#52 = ORIENTED_EDGE('',*,*,#38,.F.);
#53 = ORIENTED_EDGE('',*,*,#21,.T.);
#54 = CYLINDRICAL_SURFACE('',#55,0.25);
#55 = AXIS2_PLACEMENT_3D('',#56,#57,#58);
#56 = CARTESIAN_POINT('',(-0.25,-5.07334389267E-18,-2.880000340985));
#57 = DIRECTION('',(-4.505967313747E-33,2.22044604925E-16,1.));
#58 = DIRECTION('',(1.,2.029307271514E-17,0.));
#59 = ADVANCED_FACE('',(#60),#114,.T.);
#60 = FACE_BOUND('',#61,.T.);
#61 = EDGE_LOOP('',(#62,#102,#112,#113));
#62 = ORIENTED_EDGE('',*,*,#63,.T.);
#63 = EDGE_CURVE('',#39,#64,#66,.T.);
#64 = VERTEX_POINT('',#65);
#65 = CARTESIAN_POINT('',(-0.750000101797,0.,1.219999054481));
#66 = ( BOUNDED_CURVE() B_SPLINE_CURVE(10,(#67,#68,#69,#70,#71,#72,#73,
    #74,#75,#76,#77,#78,#79,#80,#81,#82,#83,#84,#85,#86,#87,#88,#89,#90,
    #91,#92,#93,#94,#95,#96,#97,#98,#99,#100,#101),.UNSPECIFIED.,.F.,.F.
) B_SPLINE_CURVE_WITH_KNOTS((11,8,8,8,11),(0.,0.249999916901,
0.499999833802,0.749999916901,1.),.UNSPECIFIED.) CURVE() 
GEOMETRIC_REPRESENTATION_ITEM() RATIONAL_B_SPLINE_CURVE((1.669078461068,
    1.669078461068,1.669078461068,1.669078461069,1.669078461068,
    1.669078461069,1.669078461068,1.669078461068,1.669078461068,
    1.669078461068,1.669078461068,1.669078461068,1.669078461068,
    1.669078461069,1.669078461068,1.669078461068,1.669078461068,
    1.669078461068,1.669078461068,1.669078461068,1.669078461068,
    1.669078461068,1.669078461068,1.669078461068,1.669078461068,
    1.669078461068,1.669078461068,1.669078461068,1.669078461069,
    1.669078461067,1.669078461069,1.669078461068,1.669078461069,
1.669078461068,1.669078461068)) REPRESENTATION_ITEM('') );
#67 = CARTESIAN_POINT('',(1.110223024625E-16,6.355176262119E-16,
    0.119999916303));
#68 = CARTESIAN_POINT('',(-1.110223024625E-15,6.483320192074E-16,
    0.178295318767));
#69 = CARTESIAN_POINT('',(-4.416324248061E-03,6.615709214255E-16,
    0.235246030142));
#70 = CARTESIAN_POINT('',(-1.329632943722E-02,6.717294017999E-16,
    0.290665479109));
#71 = CARTESIAN_POINT('',(-2.660350594367E-02,6.873904012191E-16,
    0.344196613737));
#72 = CARTESIAN_POINT('',(-4.414593276078E-02,6.919644941238E-16,
    0.395347791971));
#73 = CARTESIAN_POINT('',(-6.540752522543E-02,7.103699561754E-16,
    0.443526868642));
#74 = CARTESIAN_POINT('',(-8.962938051776E-02,7.116056876624E-16,
    0.488501932984));
#75 = CARTESIAN_POINT('',(-0.116138262205,7.269291369236E-16,
    0.530266073593));
#76 = CARTESIAN_POINT('',(-0.172518710935,7.352972665233E-16,
    0.607684182439));
#77 = CARTESIAN_POINT('',(-0.233617167313,7.610997589916E-16,
    0.673851241791));
#78 = CARTESIAN_POINT('',(-0.264843465153,7.25846443765E-16,
    0.704364185211));
#79 = CARTESIAN_POINT('',(-0.296342716761,8.436344605439E-16,
    0.732636705406));
#80 = CARTESIAN_POINT('',(-0.327818926696,6.474723074178E-16,
    0.759009814072));
#81 = CARTESIAN_POINT('',(-0.35903396148,9.204393040926E-16,
    0.783787850767));
#82 = CARTESIAN_POINT('',(-0.389774708562,6.535593978116E-16,
    0.807232054549));
#83 = CARTESIAN_POINT('',(-0.419840846461,8.59321886154E-16,
    0.829567082377));
#84 = CARTESIAN_POINT('',(-0.478227282772,6.90564872934E-16,
    0.872383763729));
#85 = CARTESIAN_POINT('',(-0.532340864427,8.07977435405E-16,
    0.912067021158));
#86 = CARTESIAN_POINT('',(-0.55813410856,7.19184837959E-16,
    0.931268419415));
#87 = CARTESIAN_POINT('',(-0.582471492451,8.356824173846E-16,
    0.949933557083));
#88 = CARTESIAN_POINT('',(-0.605162712781,7.329446973747E-16,
    0.968124235289));
#89 = CARTESIAN_POINT('',(-0.626030257318,8.142921630356E-16,
    0.985865673043));
#90 = CARTESIAN_POINT('',(-0.644921634833,7.75049436589E-16,
    1.003139988869));
#91 = CARTESIAN_POINT('',(-0.661742216182,7.940418622943E-16,
    1.019892629248));
#92 = CARTESIAN_POINT('',(-0.691268769227,7.960013209546E-16,
    1.052267149973));
#93 = CARTESIAN_POINT('',(-0.713013333111,8.051641829204E-16,
    1.082557280842));
#94 = CARTESIAN_POINT('',(-0.722051333807,8.057680492746E-16,
    1.097225383666));
#95 = CARTESIAN_POINT('',(-0.729470112063,8.118938148743E-16,
    1.111547145247));
#96 = CARTESIAN_POINT('',(-0.735552279062,8.11887505827E-16,
    1.125815935905));
#97 = CARTESIAN_POINT('',(-0.740666111707,8.174650442582E-16,
    1.140550125622));
#98 = CARTESIAN_POINT('',(-0.744937067831,8.194321383857E-16,
    1.156628317155));
#99 = CARTESIAN_POINT('',(-0.748166442675,8.241452435971E-16,
    1.174828609496));
#100 = CARTESIAN_POINT('',(-0.750000120504,8.28507380293E-16,
    1.195794511539));
#101 = CARTESIAN_POINT('',(-0.750000119661,8.339305228477E-16,
    1.219999051776));
#102 = ORIENTED_EDGE('',*,*,#103,.F.);
#103 = EDGE_CURVE('',#64,#64,#104,.T.);
#104 = ( BOUNDED_CURVE() B_SPLINE_CURVE(6,(#105,#106,#107,#108,#109,#110
,#111),.UNSPECIFIED.,.T.,.F.) B_SPLINE_CURVE_WITH_KNOTS((1,6,6,1),(
-6.28318530718,0.,6.28318530718,12.56637061436),.UNSPECIFIED.) CURVE() 
GEOMETRIC_REPRESENTATION_ITEM() RATIONAL_B_SPLINE_CURVE((1.669078461068,
    1.03672962321,1.038346699848,0.853534330196,1.038346699848,
1.03672962321,1.669078461068)) REPRESENTATION_ITEM('') );
#105 = CARTESIAN_POINT('',(-0.750000119661,8.339305228477E-16,
    1.219999051776));
#106 = CARTESIAN_POINT('',(-0.750000119661,0.415385768893,1.219999051776
    ));
#107 = CARTESIAN_POINT('',(-1.263637167298,0.475028095811,1.219999069669
    ));
#108 = CARTESIAN_POINT('',(-1.687279349913,1.824919192817E-15,
    1.219999084428));
#109 = CARTESIAN_POINT('',(-1.263637167298,-0.475028095811,
    1.219999069669));
#110 = CARTESIAN_POINT('',(-0.750000119661,-0.415385768893,
    1.219999051776));
#111 = CARTESIAN_POINT('',(-0.750000119661,8.339305228477E-16,
    1.219999051776));
#112 = ORIENTED_EDGE('',*,*,#63,.F.);
#113 = ORIENTED_EDGE('',*,*,#46,.T.);
#114 = ( BOUNDED_SURFACE() B_SPLINE_SURFACE(6,10,(
    (#115,#116,#117,#118,#119,#120,#121,#122,#123,#124,#125,#126,#127
      ,#128,#129,#130,#131,#132,#133,#134,#135,#136,#137,#138,#139,#140
      ,#141,#142,#143,#144,#145,#146,#147,#148,#149)
    ,(#150,#151,#152,#153,#154,#155,#156,#157,#158,#159,#160,#161,#162
      ,#163,#164,#165,#166,#167,#168,#169,#170,#171,#172,#173,#174,#175
      ,#176,#177,#178,#179,#180,#181,#182,#183,#184)
    ,(#185,#186,#187,#188,#189,#190,#191,#192,#193,#194,#195,#196,#197
      ,#198,#199,#200,#201,#202,#203,#204,#205,#206,#207,#208,#209,#210
      ,#211,#212,#213,#214,#215,#216,#217,#218,#219)
    ,(#220,#221,#222,#223,#224,#225,#226,#227,#228,#229,#230,#231,#232
      ,#233,#234,#235,#236,#237,#238,#239,#240,#241,#242,#243,#244,#245
      ,#246,#247,#248,#249,#250,#251,#252,#253,#254)
    ,(#255,#256,#257,#258,#259,#260,#261,#262,#263,#264,#265,#266,#267
      ,#268,#269,#270,#271,#272,#273,#274,#275,#276,#277,#278,#279,#280
      ,#281,#282,#283,#284,#285,#286,#287,#288,#289)
    ,(#290,#291,#292,#293,#294,#295,#296,#297,#298,#299,#300,#301,#302
      ,#303,#304,#305,#306,#307,#308,#309,#310,#311,#312,#313,#314,#315
      ,#316,#317,#318,#319,#320,#321,#322,#323,#324)
    ,(#325,#326,#327,#328,#329,#330,#331,#332,#333,#334,#335,#336,#337
      ,#338,#339,#340,#341,#342,#343,#344,#345,#346,#347,#348,#349,#350
      ,#351,#352,#353,#354,#355,#356,#357,#358,#359
)),.UNSPECIFIED.,.T.,.F.,.F.) B_SPLINE_SURFACE_WITH_KNOTS((1,6,6,1),(11,
    8,8,8,11),(-6.28318530718,0.,6.28318530718,12.56637061436),(0.,
    0.249999916901,0.499999833802,0.749999916901,1.),.UNSPECIFIED.) 
GEOMETRIC_REPRESENTATION_ITEM() RATIONAL_B_SPLINE_SURFACE((
    (1.669078461068,1.669078461068,1.669078461068,1.669078461069
      ,1.669078461068,1.669078461069,1.669078461068,1.669078461068
      ,1.669078461068,1.669078461068,1.669078461068,1.669078461068
      ,1.669078461068,1.669078461069,1.669078461068,1.669078461068
      ,1.669078461068,1.669078461068,1.669078461068,1.669078461068
      ,1.669078461068,1.669078461068,1.669078461068,1.669078461068
      ,1.669078461068,1.669078461068,1.669078461068,1.669078461068
      ,1.669078461069,1.669078461067,1.669078461069,1.669078461068
      ,1.669078461069,1.669078461068,1.669078461068)
    ,(1.03672962321,1.03672962321,1.036729623209,1.03672962321
      ,1.036729623209,1.03672962321,1.036729623209,1.03672962321
      ,1.03672962321,1.03672962321,1.03672962321,1.03672962321
      ,1.036729623209,1.03672962321,1.036729623209,1.03672962321
      ,1.03672962321,1.03672962321,1.03672962321,1.03672962321
      ,1.03672962321,1.03672962321,1.03672962321,1.03672962321
      ,1.03672962321,1.03672962321,1.03672962321,1.036729623209
      ,1.03672962321,1.036729623209,1.03672962321,1.036729623209
      ,1.03672962321,1.03672962321,1.03672962321)
    ,(1.038346699848,1.038346699848,1.038346699847,1.038346699848
      ,1.038346699847,1.038346699848,1.038346699847,1.038346699848
      ,1.038346699847,1.038346699848,1.038346699847,1.038346699848
      ,1.038346699847,1.038346699848,1.038346699847,1.038346699848
      ,1.038346699847,1.038346699848,1.038346699848,1.038346699847
      ,1.038346699848,1.038346699847,1.038346699848,1.038346699847
      ,1.038346699848,1.038346699847,1.038346699848,1.038346699847
      ,1.038346699848,1.038346699847,1.038346699848,1.038346699847
      ,1.038346699848,1.038346699847,1.038346699848)
    ,(0.853534330196,0.853534330196,0.853534330196,0.853534330196
      ,0.853534330196,0.853534330196,0.853534330196,0.853534330196
      ,0.853534330196,0.853534330196,0.853534330196,0.853534330196
      ,0.853534330196,0.853534330196,0.853534330196,0.853534330196
      ,0.853534330196,0.853534330196,0.853534330196,0.853534330196
      ,0.853534330196,0.853534330196,0.853534330196,0.853534330196
      ,0.853534330196,0.853534330196,0.853534330196,0.853534330196
      ,0.853534330196,0.853534330196,0.853534330196,0.853534330196
      ,0.853534330196,0.853534330196,0.853534330196)
    ,(1.038346699848,1.038346699848,1.038346699847,1.038346699848
      ,1.038346699847,1.038346699848,1.038346699847,1.038346699848
      ,1.038346699847,1.038346699848,1.038346699847,1.038346699848
      ,1.038346699847,1.038346699848,1.038346699847,1.038346699848
      ,1.038346699848,1.038346699848,1.038346699848,1.038346699848
      ,1.038346699848,1.038346699847,1.038346699848,1.038346699847
      ,1.038346699848,1.038346699847,1.038346699848,1.038346699847
      ,1.038346699848,1.038346699847,1.038346699848,1.038346699847
      ,1.038346699848,1.038346699847,1.038346699848)
    ,(1.03672962321,1.03672962321,1.036729623209,1.03672962321
      ,1.036729623209,1.03672962321,1.036729623209,1.03672962321
      ,1.03672962321,1.03672962321,1.03672962321,1.03672962321
      ,1.036729623209,1.03672962321,1.036729623209,1.03672962321
      ,1.03672962321,1.03672962321,1.03672962321,1.03672962321
      ,1.03672962321,1.03672962321,1.03672962321,1.03672962321
      ,1.03672962321,1.03672962321,1.03672962321,1.036729623209
      ,1.03672962321,1.036729623209,1.03672962321,1.036729623209
      ,1.03672962321,1.03672962321,1.03672962321)
    ,(1.669078461068,1.669078461068,1.669078461068,1.669078461069
      ,1.669078461068,1.669078461069,1.669078461068,1.669078461068
      ,1.669078461068,1.669078461068,1.669078461068,1.669078461068
      ,1.669078461068,1.669078461069,1.669078461068,1.669078461068
      ,1.669078461068,1.669078461068,1.669078461068,1.669078461068
      ,1.669078461068,1.669078461068,1.669078461068,1.669078461068
      ,1.669078461068,1.669078461068,1.669078461068,1.669078461068
      ,1.669078461069,1.669078461067,1.669078461069,1.669078461068
      ,1.669078461069,1.669078461068,1.669078461068
))) REPRESENTATION_ITEM('') SURFACE() );
#115 = CARTESIAN_POINT('',(1.110223024625E-16,6.355176262119E-16,
    0.119999916303));
#116 = CARTESIAN_POINT('',(-1.110223024625E-15,6.483320192074E-16,
    0.178295318767));
#117 = CARTESIAN_POINT('',(-4.416324248061E-03,6.615709214255E-16,
    0.235246030142));
#118 = CARTESIAN_POINT('',(-1.329632943722E-02,6.717294017999E-16,
    0.290665479109));
#119 = CARTESIAN_POINT('',(-2.660350594367E-02,6.873904012191E-16,
    0.344196613737));
#120 = CARTESIAN_POINT('',(-4.414593276078E-02,6.919644941238E-16,
    0.395347791971));
#121 = CARTESIAN_POINT('',(-6.540752522543E-02,7.103699561754E-16,
    0.443526868642));
#122 = CARTESIAN_POINT('',(-8.962938051776E-02,7.116056876624E-16,
    0.488501932984));
#123 = CARTESIAN_POINT('',(-0.116138262205,7.269291369236E-16,
    0.530266073593));
#124 = CARTESIAN_POINT('',(-0.172518710935,7.352972665233E-16,
    0.607684182439));
#125 = CARTESIAN_POINT('',(-0.233617167313,7.610997589916E-16,
    0.673851241791));
#126 = CARTESIAN_POINT('',(-0.264843465153,7.25846443765E-16,
    0.704364185211));
#127 = CARTESIAN_POINT('',(-0.296342716761,8.436344605439E-16,
    0.732636705406));
#128 = CARTESIAN_POINT('',(-0.327818926696,6.474723074178E-16,
    0.759009814072));
#129 = CARTESIAN_POINT('',(-0.35903396148,9.204393040926E-16,
    0.783787850767));
#130 = CARTESIAN_POINT('',(-0.389774708562,6.535593978116E-16,
    0.807232054549));
#131 = CARTESIAN_POINT('',(-0.419840846461,8.59321886154E-16,
    0.829567082377));
#132 = CARTESIAN_POINT('',(-0.478227282772,6.90564872934E-16,
    0.872383763729));
#133 = CARTESIAN_POINT('',(-0.532340864427,8.07977435405E-16,
    0.912067021158));
#134 = CARTESIAN_POINT('',(-0.55813410856,7.19184837959E-16,
    0.931268419415));
#135 = CARTESIAN_POINT('',(-0.582471492451,8.356824173846E-16,
    0.949933557083));
#136 = CARTESIAN_POINT('',(-0.605162712781,7.329446973747E-16,
    0.968124235289));
#137 = CARTESIAN_POINT('',(-0.626030257318,8.142921630356E-16,
    0.985865673043));
#138 = CARTESIAN_POINT('',(-0.644921634833,7.75049436589E-16,
    1.003139988869));
#139 = CARTESIAN_POINT('',(-0.661742216182,7.940418622943E-16,
    1.019892629248));
#140 = CARTESIAN_POINT('',(-0.691268769227,7.960013209546E-16,
    1.052267149973));
#141 = CARTESIAN_POINT('',(-0.713013333111,8.051641829204E-16,
    1.082557280842));
#142 = CARTESIAN_POINT('',(-0.722051333807,8.057680492746E-16,
    1.097225383666));
#143 = CARTESIAN_POINT('',(-0.729470112063,8.118938148743E-16,
    1.111547145247));
#144 = CARTESIAN_POINT('',(-0.735552279062,8.11887505827E-16,
    1.125815935905));
#145 = CARTESIAN_POINT('',(-0.740666111707,8.174650442582E-16,
    1.140550125622));
#146 = CARTESIAN_POINT('',(-0.744937067831,8.194321383857E-16,
    1.156628317155));
#147 = CARTESIAN_POINT('',(-0.748166442675,8.241452435971E-16,
    1.174828609496));
#148 = CARTESIAN_POINT('',(-0.750000120504,8.28507380293E-16,
    1.195794511539));
#149 = CARTESIAN_POINT('',(-0.750000119661,8.339305228477E-16,
    1.219999051776));
#150 = CARTESIAN_POINT('',(-5.635409659256E-16,0.415385768893,
    0.119999916303));
#151 = CARTESIAN_POINT('',(-5.635409659256E-16,0.415385768893,
    0.178295318767));
#152 = CARTESIAN_POINT('',(-4.416324248067E-03,0.415385768893,
    0.235246030142));
#153 = CARTESIAN_POINT('',(-1.329632943721E-02,0.415385768893,
    0.290665479109));
#154 = CARTESIAN_POINT('',(-2.660350594369E-02,0.415385768893,
    0.344196613737));
#155 = CARTESIAN_POINT('',(-4.414593276076E-02,0.415385768893,
    0.395347791971));
#156 = CARTESIAN_POINT('',(-6.540752522545E-02,0.415385768893,
    0.443526868642));
#157 = CARTESIAN_POINT('',(-8.962938051775E-02,0.415385768893,
    0.488501932984));
#158 = CARTESIAN_POINT('',(-0.116138262205,0.415385768893,0.530266073593
    ));
#159 = CARTESIAN_POINT('',(-0.172518710935,0.415385768893,0.607684182439
    ));
#160 = CARTESIAN_POINT('',(-0.233617167313,0.415385768893,0.673851241791
    ));
#161 = CARTESIAN_POINT('',(-0.264843465153,0.415385768893,0.704364185211
    ));
#162 = CARTESIAN_POINT('',(-0.296342716761,0.415385768893,0.732636705406
    ));
#163 = CARTESIAN_POINT('',(-0.327818926696,0.415385768893,0.759009814072
    ));
#164 = CARTESIAN_POINT('',(-0.359033961479,0.415385768893,0.783787850767
    ));
#165 = CARTESIAN_POINT('',(-0.389774708562,0.415385768893,0.807232054549
    ));
#166 = CARTESIAN_POINT('',(-0.419840846461,0.415385768893,0.829567082377
    ));
#167 = CARTESIAN_POINT('',(-0.478227282772,0.415385768893,0.872383763729
    ));
#168 = CARTESIAN_POINT('',(-0.532340864427,0.415385768893,0.912067021158
    ));
#169 = CARTESIAN_POINT('',(-0.55813410856,0.415385768893,0.931268419415)
  );
#170 = CARTESIAN_POINT('',(-0.582471492451,0.415385768893,0.949933557083
    ));
#171 = CARTESIAN_POINT('',(-0.605162712781,0.415385768893,0.968124235289
    ));
#172 = CARTESIAN_POINT('',(-0.626030257318,0.415385768893,0.985865673043
    ));
#173 = CARTESIAN_POINT('',(-0.644921634833,0.415385768893,1.003139988869
    ));
#174 = CARTESIAN_POINT('',(-0.661742216182,0.415385768893,1.019892629248
    ));
#175 = CARTESIAN_POINT('',(-0.691268769227,0.415385768893,1.052267149973
    ));
#176 = CARTESIAN_POINT('',(-0.713013333111,0.415385768893,1.082557280842
    ));
#177 = CARTESIAN_POINT('',(-0.722051333807,0.415385768893,1.097225383666
    ));
#178 = CARTESIAN_POINT('',(-0.729470112063,0.415385768893,1.111547145247
    ));
#179 = CARTESIAN_POINT('',(-0.735552279062,0.415385768893,1.125815935905
    ));
#180 = CARTESIAN_POINT('',(-0.740666111707,0.415385768893,1.140550125622
    ));
#181 = CARTESIAN_POINT('',(-0.744937067831,0.415385768893,1.156628317155
    ));
#182 = CARTESIAN_POINT('',(-0.748166442675,0.415385768893,1.174828609496
    ));
#183 = CARTESIAN_POINT('',(-0.750000120504,0.415385768893,1.195794511539
    ));
#184 = CARTESIAN_POINT('',(-0.750000119661,0.415385768893,1.219999051776
    ));
#185 = CARTESIAN_POINT('',(-0.513637047637,0.475028095811,0.119999916303
    ));
#186 = CARTESIAN_POINT('',(-0.513637047637,0.475028095811,0.143274564349
    ));
#187 = CARTESIAN_POINT('',(-0.515400280897,0.475028095811,0.163258924889
    ));
#188 = CARTESIAN_POINT('',(-0.518475528878,0.475028095811,0.180444017031
    ));
#189 = CARTESIAN_POINT('',(-0.522500014112,0.475028095811,0.195500639908
    ));
#190 = CARTESIAN_POINT('',(-0.527274847928,0.475028095811,0.209241524424
    ));
#191 = CARTESIAN_POINT('',(-0.532942987853,0.475028095811,0.222585386861
    ));
#192 = CARTESIAN_POINT('',(-0.539903454865,0.475028095811,0.236071058962
    ));
#193 = CARTESIAN_POINT('',(-0.548464930607,0.475028095811,0.250000099796
    ));
#194 = CARTESIAN_POINT('',(-0.569264787648,0.475028095811,0.279004783846
    ));
#195 = CARTESIAN_POINT('',(-0.597930202409,0.475028095811,0.310457586738
    ));
#196 = CARTESIAN_POINT('',(-0.614357859632,0.475028095811,0.326834902167
    ));
#197 = CARTESIAN_POINT('',(-0.632905347748,0.475028095811,0.343809229413
    ));
#198 = CARTESIAN_POINT('',(-0.653483529593,0.475028095811,0.361315225864
    ));
#199 = CARTESIAN_POINT('',(-0.675942249772,0.475028095811,0.37932622145)
  );
#200 = CARTESIAN_POINT('',(-0.700104967118,0.475028095811,0.397860997653
    ));
#201 = CARTESIAN_POINT('',(-0.725781651665,0.475028095811,0.416976913543
    ));
#202 = CARTESIAN_POINT('',(-0.779778692411,0.475028095811,0.456574707716
    ));
#203 = CARTESIAN_POINT('',(-0.838281672549,0.475028095811,0.499476854464
    ));
#204 = CARTESIAN_POINT('',(-0.868464375343,0.475028095811,0.521897368553
    ));
#205 = CARTESIAN_POINT('',(-0.899379796136,0.475028095811,0.545471939279
    ));
#206 = CARTESIAN_POINT('',(-0.930827339525,0.475028095811,0.570429665626
    ));
#207 = CARTESIAN_POINT('',(-0.962592921292,0.475028095811,0.59703822418)
  );
#208 = CARTESIAN_POINT('',(-0.99443607136,0.475028095811,0.625610743067)
  );
#209 = CARTESIAN_POINT('',(-1.026055301301,0.475028095811,0.656499022849
    ));
#210 = CARTESIAN_POINT('',(-1.08801490754,0.475028095811,0.723587823852)
  );
#211 = CARTESIAN_POINT('',(-1.145340063052,0.475028095811,0.802291400379
    ));
#212 = CARTESIAN_POINT('',(-1.172325466022,0.475028095811,0.844794611442
    ));
#213 = CARTESIAN_POINT('',(-1.197005624906,0.475028095811,0.890605770023
    ));
#214 = CARTESIAN_POINT('',(-1.218681233164,0.475028095811,0.93970977423)
  );
#215 = CARTESIAN_POINT('',(-1.236562645629,0.475028095811,0.991854249177
    ));
#216 = CARTESIAN_POINT('',(-1.25011628154,0.475028095811,1.046406937159)
  );
#217 = CARTESIAN_POINT('',(-1.259150405223,0.475028095811,1.102841566533
    ));
#218 = CARTESIAN_POINT('',(-1.263637169361,0.475028095811,1.160773797402
    ));
#219 = CARTESIAN_POINT('',(-1.263637167298,0.475028095811,1.219999069669
    ));
#220 = CARTESIAN_POINT('',(-0.937279230252,1.511722688008E-15,
    0.119999916303));
#221 = CARTESIAN_POINT('',(-0.937279230252,1.51083379755E-15,
    0.114389831625));
#222 = CARTESIAN_POINT('',(-0.936854223271,1.506632386066E-15,
    0.103884752933));
#223 = CARTESIAN_POINT('',(-0.935141771407,1.508888012417E-15,
    8.953456846042E-02));
#224 = CARTESIAN_POINT('',(-0.931509995067,1.494139261945E-15,
    7.285783758484E-02));
#225 = CARTESIAN_POINT('',(-0.925754258725,1.508126498924E-15,
    5.574312366605E-02));
#226 = CARTESIAN_POINT('',(-0.918561090653,1.482480563214E-15,
    4.035528488085E-02));
#227 = CARTESIAN_POINT('',(-0.91128455463,1.50256119658E-15,
    2.786885290643E-02));
#228 = CARTESIAN_POINT('',(-0.90504320752,1.48257211191E-15,
    1.8839809864E-02));
#229 = CARTESIAN_POINT('',(-0.896496584217,1.501427201533E-15,
    7.913634091E-03));
#230 = CARTESIAN_POINT('',(-0.898411583285,1.468062198922E-15,
    1.0734500402E-02));
#231 = CARTESIAN_POINT('',(-0.902633484634,1.582823564096E-15,
    1.5452905472E-02));
#232 = CARTESIAN_POINT('',(-0.910498500801,1.276051851003E-15,
    2.310860754713E-02));
#233 = CARTESIAN_POINT('',(-0.922088109046,1.831695400175E-15,
    3.330110745468E-02));
#234 = CARTESIAN_POINT('',(-0.937324717332,1.097111684818E-15,
    4.573072202787E-02));
#235 = CARTESIAN_POINT('',(-0.956061948163,1.846227953426E-15,
    6.021625640827E-02));
#236 = CARTESIAN_POINT('',(-0.978118259905,1.295726823671E-15,
    7.667708420891E-02));
#237 = CARTESIAN_POINT('',(-1.028494975509,1.789719434509E-15,
    0.113619975672));
#238 = CARTESIAN_POINT('',(-1.090618283196,1.496998420286E-15,
    0.159177026895));
#239 = CARTESIAN_POINT('',(-1.124421363173,1.756263677949E-15,
    0.184252632285));
#240 = CARTESIAN_POINT('',(-1.160762276389,1.451430421588E-15,
    0.211876449353));
#241 = CARTESIAN_POINT('',(-1.199431938646,1.749702921797E-15,
    0.242415562514));
#242 = CARTESIAN_POINT('',(-1.240186101551,1.542440095969E-15,
    0.27633762469));
#243 = CARTESIAN_POINT('',(-1.282711731044,1.667364279011E-15,
    0.314228777089));
#244 = CARTESIAN_POINT('',(-1.326536723435,1.632997782145E-15,
    0.356775976642));
#245 = CARTESIAN_POINT('',(-1.415246754916,1.665180119632E-15,
    0.452496733871));
#246 = CARTESIAN_POINT('',(-1.50191839072,1.681850461914E-15,
    0.571131187428));
#247 = CARTESIAN_POINT('',(-1.543706613516,1.70232726782E-15,
    0.636592489348));
#248 = CARTESIAN_POINT('',(-1.582623769124,1.708964665237E-15,
    0.70837575593));
#249 = CARTESIAN_POINT('',(-1.617160676074,1.733934884943E-15,
    0.786211460794));
#250 = CARTESIAN_POINT('',(-1.645572647824,1.745163580767E-15,
    0.869211527175));
#251 = CARTESIAN_POINT('',(-1.666782535838,1.768061029738E-15,
    0.955497556289));
#252 = CARTESIAN_POINT('',(-1.680604352464,1.785286686466E-15,
    1.043467445953));
#253 = CARTESIAN_POINT('',(-1.687279352982,1.80548860379E-15,
    1.1318890979));
#254 = CARTESIAN_POINT('',(-1.687279349913,1.824919192817E-15,
    1.219999084428));
#255 = CARTESIAN_POINT('',(-0.513637047637,-0.475028095811,
    0.119999916303));
#256 = CARTESIAN_POINT('',(-0.513637047637,-0.475028095811,
    0.143274564349));
#257 = CARTESIAN_POINT('',(-0.515400280897,-0.475028095811,
    0.163258924889));
#258 = CARTESIAN_POINT('',(-0.518475528878,-0.475028095811,
    0.180444017031));
#259 = CARTESIAN_POINT('',(-0.522500014112,-0.475028095811,
    0.195500639908));
#260 = CARTESIAN_POINT('',(-0.527274847928,-0.475028095811,
    0.209241524424));
#261 = CARTESIAN_POINT('',(-0.532942987853,-0.475028095811,
    0.222585386861));
#262 = CARTESIAN_POINT('',(-0.539903454865,-0.475028095811,
    0.236071058962));
#263 = CARTESIAN_POINT('',(-0.548464930607,-0.475028095811,
    0.250000099796));
#264 = CARTESIAN_POINT('',(-0.569264787648,-0.475028095811,
    0.279004783846));
#265 = CARTESIAN_POINT('',(-0.597930202409,-0.475028095811,
    0.310457586738));
#266 = CARTESIAN_POINT('',(-0.614357859632,-0.475028095811,
    0.326834902167));
#267 = CARTESIAN_POINT('',(-0.632905347748,-0.475028095811,
    0.343809229413));
#268 = CARTESIAN_POINT('',(-0.653483529593,-0.475028095811,
    0.361315225864));
#269 = CARTESIAN_POINT('',(-0.675942249772,-0.475028095811,0.37932622145
    ));
#270 = CARTESIAN_POINT('',(-0.700104967118,-0.475028095811,
    0.397860997653));
#271 = CARTESIAN_POINT('',(-0.725781651665,-0.475028095811,
    0.416976913543));
#272 = CARTESIAN_POINT('',(-0.779778692411,-0.475028095811,
    0.456574707716));
#273 = CARTESIAN_POINT('',(-0.838281672549,-0.475028095811,
    0.499476854464));
#274 = CARTESIAN_POINT('',(-0.868464375343,-0.475028095811,
    0.521897368553));
#275 = CARTESIAN_POINT('',(-0.899379796136,-0.475028095811,
    0.545471939279));
#276 = CARTESIAN_POINT('',(-0.930827339525,-0.475028095811,
    0.570429665626));
#277 = CARTESIAN_POINT('',(-0.962592921292,-0.475028095811,0.59703822418
    ));
#278 = CARTESIAN_POINT('',(-0.99443607136,-0.475028095811,0.625610743067
    ));
#279 = CARTESIAN_POINT('',(-1.026055301301,-0.475028095811,
    0.656499022849));
#280 = CARTESIAN_POINT('',(-1.08801490754,-0.475028095811,0.723587823852
    ));
#281 = CARTESIAN_POINT('',(-1.145340063052,-0.475028095811,
    0.802291400379));
#282 = CARTESIAN_POINT('',(-1.172325466022,-0.475028095811,
    0.844794611442));
#283 = CARTESIAN_POINT('',(-1.197005624906,-0.475028095811,
    0.890605770024));
#284 = CARTESIAN_POINT('',(-1.218681233164,-0.475028095811,0.93970977423
    ));
#285 = CARTESIAN_POINT('',(-1.236562645629,-0.475028095811,
    0.991854249177));
#286 = CARTESIAN_POINT('',(-1.25011628154,-0.475028095811,1.046406937159
    ));
#287 = CARTESIAN_POINT('',(-1.259150405223,-0.475028095811,
    1.102841566533));
#288 = CARTESIAN_POINT('',(-1.263637169361,-0.475028095811,
    1.160773797402));
#289 = CARTESIAN_POINT('',(-1.263637167298,-0.475028095811,
    1.219999069669));
#290 = CARTESIAN_POINT('',(-5.466820586996E-16,-0.415385768893,
    0.119999916303));
#291 = CARTESIAN_POINT('',(2.783987015176E-15,-0.415385768893,
    0.178295318767));
#292 = CARTESIAN_POINT('',(-4.41632424808E-03,-0.415385768893,
    0.235246030142));
#293 = CARTESIAN_POINT('',(-1.329632943718E-02,-0.415385768893,
    0.290665479109));
#294 = CARTESIAN_POINT('',(-2.660350594374E-02,-0.415385768893,
    0.344196613737));
#295 = CARTESIAN_POINT('',(-4.41459327607E-02,-0.415385768893,
    0.395347791971));
#296 = CARTESIAN_POINT('',(-6.540752522549E-02,-0.415385768893,
    0.443526868642));
#297 = CARTESIAN_POINT('',(-8.962938051773E-02,-0.415385768893,
    0.488501932984));
#298 = CARTESIAN_POINT('',(-0.116138262205,-0.415385768893,
    0.530266073593));
#299 = CARTESIAN_POINT('',(-0.172518710935,-0.415385768893,
    0.607684182439));
#300 = CARTESIAN_POINT('',(-0.233617167313,-0.415385768893,
    0.673851241791));
#301 = CARTESIAN_POINT('',(-0.264843465153,-0.415385768893,
    0.704364185211));
#302 = CARTESIAN_POINT('',(-0.296342716761,-0.415385768893,
    0.732636705406));
#303 = CARTESIAN_POINT('',(-0.327818926696,-0.415385768893,
    0.759009814072));
#304 = CARTESIAN_POINT('',(-0.359033961479,-0.415385768893,
    0.783787850767));
#305 = CARTESIAN_POINT('',(-0.389774708562,-0.415385768893,
    0.807232054549));
#306 = CARTESIAN_POINT('',(-0.419840846461,-0.415385768893,
    0.829567082377));
#307 = CARTESIAN_POINT('',(-0.478227282772,-0.415385768893,
    0.872383763729));
#308 = CARTESIAN_POINT('',(-0.532340864427,-0.415385768893,
    0.912067021158));
#309 = CARTESIAN_POINT('',(-0.55813410856,-0.415385768893,0.931268419415
    ));
#310 = CARTESIAN_POINT('',(-0.582471492451,-0.415385768893,
    0.949933557083));
#311 = CARTESIAN_POINT('',(-0.605162712781,-0.415385768893,
    0.968124235289));
#312 = CARTESIAN_POINT('',(-0.626030257318,-0.415385768893,
    0.985865673043));
#313 = CARTESIAN_POINT('',(-0.644921634833,-0.415385768893,
    1.003139988869));
#314 = CARTESIAN_POINT('',(-0.661742216182,-0.415385768893,
    1.019892629248));
#315 = CARTESIAN_POINT('',(-0.691268769227,-0.415385768893,
    1.052267149973));
#316 = CARTESIAN_POINT('',(-0.713013333111,-0.415385768893,
    1.082557280842));
#317 = CARTESIAN_POINT('',(-0.722051333807,-0.415385768893,
    1.097225383666));
#318 = CARTESIAN_POINT('',(-0.729470112063,-0.415385768893,
    1.111547145247));
#319 = CARTESIAN_POINT('',(-0.735552279062,-0.415385768893,
    1.125815935905));
#320 = CARTESIAN_POINT('',(-0.740666111707,-0.415385768893,
    1.140550125622));
#321 = CARTESIAN_POINT('',(-0.744937067831,-0.415385768893,
    1.156628317155));
#322 = CARTESIAN_POINT('',(-0.748166442675,-0.415385768893,
    1.174828609496));
#323 = CARTESIAN_POINT('',(-0.750000120504,-0.415385768893,
    1.195794511539));
#324 = CARTESIAN_POINT('',(-0.750000119661,-0.415385768893,
    1.219999051776));
#325 = CARTESIAN_POINT('',(1.110223024625E-16,6.355176262119E-16,
    0.119999916303));
#326 = CARTESIAN_POINT('',(-1.110223024625E-15,6.483320192074E-16,
    0.178295318767));
#327 = CARTESIAN_POINT('',(-4.416324248061E-03,6.615709214255E-16,
    0.235246030142));
#328 = CARTESIAN_POINT('',(-1.329632943722E-02,6.717294017999E-16,
    0.290665479109));
#329 = CARTESIAN_POINT('',(-2.660350594367E-02,6.873904012191E-16,
    0.344196613737));
#330 = CARTESIAN_POINT('',(-4.414593276078E-02,6.919644941238E-16,
    0.395347791971));
#331 = CARTESIAN_POINT('',(-6.540752522543E-02,7.103699561754E-16,
    0.443526868642));
#332 = CARTESIAN_POINT('',(-8.962938051776E-02,7.116056876624E-16,
    0.488501932984));
#333 = CARTESIAN_POINT('',(-0.116138262205,7.269291369236E-16,
    0.530266073593));
#334 = CARTESIAN_POINT('',(-0.172518710935,7.352972665233E-16,
    0.607684182439));
#335 = CARTESIAN_POINT('',(-0.233617167313,7.610997589916E-16,
    0.673851241791));
#336 = CARTESIAN_POINT('',(-0.264843465153,7.25846443765E-16,
    0.704364185211));
#337 = CARTESIAN_POINT('',(-0.296342716761,8.436344605439E-16,
    0.732636705406));
#338 = CARTESIAN_POINT('',(-0.327818926696,6.474723074178E-16,
    0.759009814072));
#339 = CARTESIAN_POINT('',(-0.35903396148,9.204393040926E-16,
    0.783787850767));
#340 = CARTESIAN_POINT('',(-0.389774708562,6.535593978116E-16,
    0.807232054549));
#341 = CARTESIAN_POINT('',(-0.419840846461,8.59321886154E-16,
    0.829567082377));
#342 = CARTESIAN_POINT('',(-0.478227282772,6.90564872934E-16,
    0.872383763729));
#343 = CARTESIAN_POINT('',(-0.532340864427,8.07977435405E-16,
    0.912067021158));
#344 = CARTESIAN_POINT('',(-0.55813410856,7.19184837959E-16,
    0.931268419415));
#345 = CARTESIAN_POINT('',(-0.582471492451,8.356824173846E-16,
    0.949933557083));
#346 = CARTESIAN_POINT('',(-0.605162712781,7.329446973747E-16,
    0.968124235289));
#347 = CARTESIAN_POINT('',(-0.626030257318,8.142921630356E-16,
    0.985865673043));
#348 = CARTESIAN_POINT('',(-0.644921634833,7.75049436589E-16,
    1.003139988869));
#349 = CARTESIAN_POINT('',(-0.661742216182,7.940418622943E-16,
    1.019892629248));
#350 = CARTESIAN_POINT('',(-0.691268769227,7.960013209546E-16,
    1.052267149973));
#351 = CARTESIAN_POINT('',(-0.713013333111,8.051641829204E-16,
    1.082557280842));
#352 = CARTESIAN_POINT('',(-0.722051333807,8.057680492746E-16,
    1.097225383666));
#353 = CARTESIAN_POINT('',(-0.729470112063,8.118938148743E-16,
    1.111547145247));
#354 = CARTESIAN_POINT('',(-0.735552279062,8.11887505827E-16,
    1.125815935905));
#355 = CARTESIAN_POINT('',(-0.740666111707,8.174650442582E-16,
    1.140550125622));
#356 = CARTESIAN_POINT('',(-0.744937067831,8.194321383857E-16,
    1.156628317155));
#357 = CARTESIAN_POINT('',(-0.748166442675,8.241452435971E-16,
    1.174828609496));
#358 = CARTESIAN_POINT('',(-0.750000120504,8.28507380293E-16,
    1.195794511539));
#359 = CARTESIAN_POINT('',(-0.750000119661,8.339305228477E-16,
    1.219999051776));
#360 = ADVANCED_FACE('',(#361),#381,.T.);
#361 = FACE_BOUND('',#362,.T.);
#362 = EDGE_LOOP('',(#363,#372,#379,#380));
#363 = ORIENTED_EDGE('',*,*,#364,.T.);
#364 = EDGE_CURVE('',#64,#365,#367,.T.);
#365 = VERTEX_POINT('',#366);
#366 = CARTESIAN_POINT('',(0.750000101797,0.,1.219999032387));
#367 = CIRCLE('',#368,0.750000083934);
#368 = AXIS2_PLACEMENT_3D('',#369,#370,#371);
#369 = CARTESIAN_POINT('',(-1.504507822096E-19,-1.104667546022E-08,
    1.219998986871));
#370 = DIRECTION('',(-2.029307271514E-17,1.,-2.22044604925E-16));
#371 = DIRECTION('',(1.,2.029307271514E-17,0.));
#372 = ORIENTED_EDGE('',*,*,#373,.T.);
#373 = EDGE_CURVE('',#365,#365,#374,.T.);
#374 = CIRCLE('',#375,0.25);
#375 = AXIS2_PLACEMENT_3D('',#376,#377,#378);
#376 = CARTESIAN_POINT('',(1.000000083934,9.306757473231E-16,
    1.219999065895));
#377 = DIRECTION('',(-7.90234751198E-08,2.220446033214E-16,1.));
#378 = DIRECTION('',(1.,2.029309026188E-17,7.90234751198E-08));
#379 = ORIENTED_EDGE('',*,*,#364,.F.);
#380 = ORIENTED_EDGE('',*,*,#103,.T.);
#381 = TOROIDAL_SURFACE('',#382,1.000000083934,0.25);
#382 = AXIS2_PLACEMENT_3D('',#383,#384,#385);
#383 = CARTESIAN_POINT('',(-1.504510063806E-19,9.10382655358E-16,
    1.219998986871));
#384 = DIRECTION('',(-2.029307271514E-17,1.,-2.22044604925E-16));
#385 = DIRECTION('',(1.,2.029307271514E-17,0.));
#386 = ADVANCED_FACE('',(#387),#441,.T.);
#387 = FACE_BOUND('',#388,.T.);
#388 = EDGE_LOOP('',(#389,#429,#439,#440));
#389 = ORIENTED_EDGE('',*,*,#390,.T.);
#390 = EDGE_CURVE('',#365,#391,#393,.T.);
#391 = VERTEX_POINT('',#392);
#392 = CARTESIAN_POINT('',(2.725872860765E-09,0.,0.119999743278));
#393 = ( BOUNDED_CURVE() B_SPLINE_CURVE(10,(#394,#395,#396,#397,#398,
    #399,#400,#401,#402,#403,#404,#405,#406,#407,#408,#409,#410,#411,
    #412,#413,#414,#415,#416,#417,#418,#419,#420,#421,#422,#423,#424,
    #425,#426,#427,#428),.UNSPECIFIED.,.F.,.F.) 
B_SPLINE_CURVE_WITH_KNOTS((11,8,8,8,11),(0.,0.250000048074,
0.500000096149,0.750000048074,1.),.UNSPECIFIED.) CURVE() 
GEOMETRIC_REPRESENTATION_ITEM() RATIONAL_B_SPLINE_CURVE((1.669078461068,
    1.669078461068,1.669078461068,1.669078461069,1.669078461068,
    1.669078461069,1.669078461068,1.669078461068,1.669078461068,
    1.669078461068,1.669078461068,1.669078461068,1.669078461068,
    1.669078461069,1.669078461068,1.669078461068,1.669078461068,
    1.669078461068,1.669078461068,1.669078461068,1.669078461069,
    1.669078461068,1.669078461069,1.669078461068,1.669078461068,
    1.669078461068,1.669078461068,1.669078461068,1.669078461069,
    1.669078461067,1.669078461069,1.669078461068,1.669078461068,
1.669078461068,1.669078461068)) REPRESENTATION_ITEM('') );
#394 = CARTESIAN_POINT('',(0.750000119661,8.643701318712E-16,
    1.219999029682));
#395 = CARTESIAN_POINT('',(0.750000118998,8.590748511761E-16,
    1.195794492775));
#396 = CARTESIAN_POINT('',(0.748166440094,8.539655003531E-16,
    1.174828594461));
#397 = CARTESIAN_POINT('',(0.744937064589,8.510590541314E-16,
    1.156628306445));
#398 = CARTESIAN_POINT('',(0.740666108302,8.4493388348E-16,
    1.140550120014));
#399 = CARTESIAN_POINT('',(0.735552276174,8.454811947515E-16,
    1.125815936297));
#400 = CARTESIAN_POINT('',(0.729470110691,8.372223819954E-16,
    1.111547152376));
#401 = CARTESIAN_POINT('',(0.722051334931,8.389321890044E-16,
    1.097225397876));
#402 = CARTESIAN_POINT('',(0.713013337595,8.314713499922E-16,
    1.082557302222));
#403 = CARTESIAN_POINT('',(0.691268781802,8.289900645833E-16,
    1.05226718545));
#404 = CARTESIAN_POINT('',(0.661742238851,8.136651385624E-16,
    1.019892677798));
#405 = CARTESIAN_POINT('',(0.644921662865,8.350221248135E-16,
    1.003140043565));
#406 = CARTESIAN_POINT('',(0.626030290832,7.612992046952E-16,
    0.985865733429));
#407 = CARTESIAN_POINT('',(0.605162751745,8.836394957977E-16,
    0.9681243009));
#408 = CARTESIAN_POINT('',(0.582471536717,7.060658230322E-16,
    0.949933627461));
#409 = CARTESIAN_POINT('',(0.558134157893,8.85132733615E-16,
    0.931268494105));
#410 = CARTESIAN_POINT('',(0.532340918525,7.297103022198E-16,
    0.912067099715));
#411 = CARTESIAN_POINT('',(0.478227338124,8.983817730755E-16,
    0.87238384358));
#412 = CARTESIAN_POINT('',(0.41984090037,5.994194833388E-16,
    0.829567160971));
#413 = CARTESIAN_POINT('',(0.389774756824,9.217337109832E-16,
    0.807232128557));
#414 = CARTESIAN_POINT('',(0.359034003417,4.739874783626E-16,
    0.7837879191));
#415 = CARTESIAN_POINT('',(0.327818961818,9.042940613662E-16,
    0.759009875481));
#416 = CARTESIAN_POINT('',(0.296342744792,5.69970663423E-16,
    0.73263675848));
#417 = CARTESIAN_POINT('',(0.264843486089,7.456235356179E-16,
    0.704364228385));
#418 = CARTESIAN_POINT('',(0.233617181512,6.708272719106E-16,
    0.673851273401));
#419 = CARTESIAN_POINT('',(0.1725187132,6.750006429043E-16,
    0.607684187759));
#420 = CARTESIAN_POINT('',(0.1161382569,6.441670771951E-16,
    0.530266047225));
#421 = CARTESIAN_POINT('',(8.962937284045E-02,6.450801582779E-16,
    0.488501889653));
#422 = CARTESIAN_POINT('',(6.540751681598E-02,6.211568644437E-16,
    0.443526807635));
#423 = CARTESIAN_POINT('',(4.414592527743E-02,6.232771309157E-16,
    0.395347713017));
#424 = CARTESIAN_POINT('',(2.660350067672E-02,6.010994439754E-16,
    0.34419651725));
#425 = CARTESIAN_POINT('',(1.329632661387E-02,5.955275968109E-16,
    0.290665365243));
#426 = CARTESIAN_POINT('',(4.416323646927E-03,5.798398429732E-16,
    0.235245898261));
#427 = CARTESIAN_POINT('',(1.219502498984E-09,5.682163634727E-16,
    0.178295167411));
#428 = CARTESIAN_POINT('',(2.725872194631E-09,5.550608974587E-16,
    0.119999743278));
#429 = ORIENTED_EDGE('',*,*,#430,.F.);
#430 = EDGE_CURVE('',#391,#391,#431,.T.);
#431 = ( BOUNDED_CURVE() B_SPLINE_CURVE(6,(#432,#433,#434,#435,#436,#437
,#438),.UNSPECIFIED.,.T.,.F.) B_SPLINE_CURVE_WITH_KNOTS((1,6,6,1),(
-6.28318530718,0.,6.28318530718,12.56637061436),.UNSPECIFIED.) CURVE() 
GEOMETRIC_REPRESENTATION_ITEM() RATIONAL_B_SPLINE_CURVE((1.669078461068,
    1.03672962321,1.038346699848,0.853534330196,1.038346699848,
1.03672962321,1.669078461068)) REPRESENTATION_ITEM('') );
#432 = CARTESIAN_POINT('',(2.725872194631E-09,5.550608974587E-16,
    0.119999743278));
#433 = CARTESIAN_POINT('',(2.725872741314E-09,0.415385768893,
    0.119999743278));
#434 = CARTESIAN_POINT('',(0.513637050363,0.475028095811,0.11999978867)
  );
#435 = CARTESIAN_POINT('',(0.937279232978,1.770948069374E-15,
    0.119999826108));
#436 = CARTESIAN_POINT('',(0.513637050363,-0.475028095811,0.11999978867)
  );
#437 = CARTESIAN_POINT('',(2.725872647149E-09,-0.415385768893,
    0.119999743278));
#438 = CARTESIAN_POINT('',(2.725872194631E-09,5.550608974587E-16,
    0.119999743278));
#439 = ORIENTED_EDGE('',*,*,#390,.F.);
#440 = ORIENTED_EDGE('',*,*,#373,.F.);
#441 = ( BOUNDED_SURFACE() B_SPLINE_SURFACE(6,10,(
    (#442,#443,#444,#445,#446,#447,#448,#449,#450,#451,#452,#453,#454
      ,#455,#456,#457,#458,#459,#460,#461,#462,#463,#464,#465,#466,#467
      ,#468,#469,#470,#471,#472,#473,#474,#475,#476)
    ,(#477,#478,#479,#480,#481,#482,#483,#484,#485,#486,#487,#488,#489
      ,#490,#491,#492,#493,#494,#495,#496,#497,#498,#499,#500,#501,#502
      ,#503,#504,#505,#506,#507,#508,#509,#510,#511)
    ,(#512,#513,#514,#515,#516,#517,#518,#519,#520,#521,#522,#523,#524
      ,#525,#526,#527,#528,#529,#530,#531,#532,#533,#534,#535,#536,#537
      ,#538,#539,#540,#541,#542,#543,#544,#545,#546)
    ,(#547,#548,#549,#550,#551,#552,#553,#554,#555,#556,#557,#558,#559
      ,#560,#561,#562,#563,#564,#565,#566,#567,#568,#569,#570,#571,#572
      ,#573,#574,#575,#576,#577,#578,#579,#580,#581)
    ,(#582,#583,#584,#585,#586,#587,#588,#589,#590,#591,#592,#593,#594
      ,#595,#596,#597,#598,#599,#600,#601,#602,#603,#604,#605,#606,#607
      ,#608,#609,#610,#611,#612,#613,#614,#615,#616)
    ,(#617,#618,#619,#620,#621,#622,#623,#624,#625,#626,#627,#628,#629
      ,#630,#631,#632,#633,#634,#635,#636,#637,#638,#639,#640,#641,#642
      ,#643,#644,#645,#646,#647,#648,#649,#650,#651)
    ,(#652,#653,#654,#655,#656,#657,#658,#659,#660,#661,#662,#663,#664
      ,#665,#666,#667,#668,#669,#670,#671,#672,#673,#674,#675,#676,#677
      ,#678,#679,#680,#681,#682,#683,#684,#685,#686
)),.UNSPECIFIED.,.T.,.F.,.F.) B_SPLINE_SURFACE_WITH_KNOTS((1,6,6,1),(11,
    8,8,8,11),(-6.28318530718,0.,6.28318530718,12.56637061436),(0.,
    0.250000048074,0.500000096149,0.750000048074,1.),.UNSPECIFIED.) 
GEOMETRIC_REPRESENTATION_ITEM() RATIONAL_B_SPLINE_SURFACE((
    (1.669078461068,1.669078461068,1.669078461068,1.669078461069
      ,1.669078461068,1.669078461069,1.669078461068,1.669078461068
      ,1.669078461068,1.669078461068,1.669078461068,1.669078461068
      ,1.669078461068,1.669078461069,1.669078461068,1.669078461068
      ,1.669078461068,1.669078461068,1.669078461068,1.669078461068
      ,1.669078461069,1.669078461068,1.669078461069,1.669078461068
      ,1.669078461068,1.669078461068,1.669078461068,1.669078461068
      ,1.669078461069,1.669078461067,1.669078461069,1.669078461068
      ,1.669078461068,1.669078461068,1.669078461068)
    ,(1.03672962321,1.03672962321,1.03672962321,1.03672962321
      ,1.036729623209,1.03672962321,1.036729623209,1.03672962321
      ,1.03672962321,1.03672962321,1.03672962321,1.03672962321
      ,1.036729623209,1.03672962321,1.036729623209,1.03672962321
      ,1.03672962321,1.03672962321,1.03672962321,1.036729623209
      ,1.03672962321,1.036729623209,1.03672962321,1.036729623209
      ,1.03672962321,1.03672962321,1.03672962321,1.036729623209
      ,1.03672962321,1.036729623209,1.03672962321,1.036729623209
      ,1.03672962321,1.03672962321,1.03672962321)
    ,(1.038346699848,1.038346699848,1.038346699847,1.038346699848
      ,1.038346699847,1.038346699848,1.038346699847,1.038346699848
      ,1.038346699847,1.038346699848,1.038346699847,1.038346699848
      ,1.038346699847,1.038346699848,1.038346699847,1.038346699848
      ,1.038346699848,1.038346699847,1.038346699848,1.038346699847
      ,1.038346699848,1.038346699847,1.038346699848,1.038346699847
      ,1.038346699848,1.038346699847,1.038346699848,1.038346699847
      ,1.038346699848,1.038346699847,1.038346699848,1.038346699847
      ,1.038346699848,1.038346699847,1.038346699848)
    ,(0.853534330196,0.853534330196,0.853534330196,0.853534330196
      ,0.853534330196,0.853534330196,0.853534330196,0.853534330196
      ,0.853534330196,0.853534330196,0.853534330196,0.853534330196
      ,0.853534330196,0.853534330196,0.853534330196,0.853534330196
      ,0.853534330196,0.853534330196,0.853534330196,0.853534330196
      ,0.853534330196,0.853534330196,0.853534330196,0.853534330196
      ,0.853534330196,0.853534330196,0.853534330196,0.853534330196
      ,0.853534330197,0.853534330196,0.853534330197,0.853534330196
      ,0.853534330196,0.853534330196,0.853534330196)
    ,(1.038346699848,1.038346699848,1.038346699847,1.038346699848
      ,1.038346699847,1.038346699848,1.038346699847,1.038346699848
      ,1.038346699847,1.038346699848,1.038346699847,1.038346699848
      ,1.038346699847,1.038346699848,1.038346699847,1.038346699848
      ,1.038346699848,1.038346699847,1.038346699848,1.038346699847
      ,1.038346699848,1.038346699847,1.038346699848,1.038346699847
      ,1.038346699848,1.038346699847,1.038346699848,1.038346699847
      ,1.038346699848,1.038346699847,1.038346699848,1.038346699847
      ,1.038346699848,1.038346699847,1.038346699848)
    ,(1.03672962321,1.03672962321,1.03672962321,1.03672962321
      ,1.036729623209,1.03672962321,1.036729623209,1.03672962321
      ,1.03672962321,1.03672962321,1.03672962321,1.03672962321
      ,1.036729623209,1.03672962321,1.036729623209,1.03672962321
      ,1.03672962321,1.03672962321,1.03672962321,1.036729623209
      ,1.03672962321,1.036729623209,1.03672962321,1.036729623209
      ,1.03672962321,1.03672962321,1.03672962321,1.036729623209
      ,1.03672962321,1.036729623209,1.03672962321,1.036729623209
      ,1.03672962321,1.03672962321,1.03672962321)
    ,(1.669078461068,1.669078461068,1.669078461068,1.669078461069
      ,1.669078461068,1.669078461069,1.669078461068,1.669078461068
      ,1.669078461068,1.669078461068,1.669078461068,1.669078461068
      ,1.669078461068,1.669078461069,1.669078461068,1.669078461068
      ,1.669078461068,1.669078461068,1.669078461068,1.669078461068
      ,1.669078461069,1.669078461068,1.669078461069,1.669078461068
      ,1.669078461068,1.669078461068,1.669078461068,1.669078461068
      ,1.669078461069,1.669078461067,1.669078461069,1.669078461068
      ,1.669078461068,1.669078461068,1.669078461068
))) REPRESENTATION_ITEM('') SURFACE() );
#442 = CARTESIAN_POINT('',(0.750000119661,8.643701318712E-16,
    1.219999029682));
#443 = CARTESIAN_POINT('',(0.750000118998,8.590748511761E-16,
    1.195794492775));
#444 = CARTESIAN_POINT('',(0.748166440094,8.539655003531E-16,
    1.174828594461));
#445 = CARTESIAN_POINT('',(0.744937064589,8.510590541314E-16,
    1.156628306445));
#446 = CARTESIAN_POINT('',(0.740666108302,8.4493388348E-16,
    1.140550120014));
#447 = CARTESIAN_POINT('',(0.735552276174,8.454811947515E-16,
    1.125815936297));
#448 = CARTESIAN_POINT('',(0.729470110691,8.372223819954E-16,
    1.111547152376));
#449 = CARTESIAN_POINT('',(0.722051334931,8.389321890044E-16,
    1.097225397876));
#450 = CARTESIAN_POINT('',(0.713013337595,8.314713499922E-16,
    1.082557302222));
#451 = CARTESIAN_POINT('',(0.691268781802,8.289900645833E-16,
    1.05226718545));
#452 = CARTESIAN_POINT('',(0.661742238851,8.136651385624E-16,
    1.019892677798));
#453 = CARTESIAN_POINT('',(0.644921662865,8.350221248135E-16,
    1.003140043565));
#454 = CARTESIAN_POINT('',(0.626030290832,7.612992046952E-16,
    0.985865733429));
#455 = CARTESIAN_POINT('',(0.605162751745,8.836394957977E-16,
    0.9681243009));
#456 = CARTESIAN_POINT('',(0.582471536717,7.060658230322E-16,
    0.949933627461));
#457 = CARTESIAN_POINT('',(0.558134157893,8.85132733615E-16,
    0.931268494105));
#458 = CARTESIAN_POINT('',(0.532340918525,7.297103022198E-16,
    0.912067099715));
#459 = CARTESIAN_POINT('',(0.478227338124,8.983817730755E-16,
    0.87238384358));
#460 = CARTESIAN_POINT('',(0.41984090037,5.994194833388E-16,
    0.829567160971));
#461 = CARTESIAN_POINT('',(0.389774756824,9.217337109832E-16,
    0.807232128557));
#462 = CARTESIAN_POINT('',(0.359034003417,4.739874783626E-16,
    0.7837879191));
#463 = CARTESIAN_POINT('',(0.327818961818,9.042940613662E-16,
    0.759009875481));
#464 = CARTESIAN_POINT('',(0.296342744792,5.69970663423E-16,
    0.73263675848));
#465 = CARTESIAN_POINT('',(0.264843486089,7.456235356179E-16,
    0.704364228385));
#466 = CARTESIAN_POINT('',(0.233617181512,6.708272719106E-16,
    0.673851273401));
#467 = CARTESIAN_POINT('',(0.1725187132,6.750006429043E-16,
    0.607684187759));
#468 = CARTESIAN_POINT('',(0.1161382569,6.441670771951E-16,
    0.530266047225));
#469 = CARTESIAN_POINT('',(8.962937284045E-02,6.450801582779E-16,
    0.488501889653));
#470 = CARTESIAN_POINT('',(6.540751681598E-02,6.211568644437E-16,
    0.443526807635));
#471 = CARTESIAN_POINT('',(4.414592527743E-02,6.232771309157E-16,
    0.395347713017));
#472 = CARTESIAN_POINT('',(2.660350067672E-02,6.010994439754E-16,
    0.34419651725));
#473 = CARTESIAN_POINT('',(1.329632661387E-02,5.955275968109E-16,
    0.290665365243));
#474 = CARTESIAN_POINT('',(4.416323646927E-03,5.798398429732E-16,
    0.235245898261));
#475 = CARTESIAN_POINT('',(1.219502498984E-09,5.682163634727E-16,
    0.178295167411));
#476 = CARTESIAN_POINT('',(2.725872194631E-09,5.550608974587E-16,
    0.119999743278));
#477 = CARTESIAN_POINT('',(0.750000119661,0.415385768893,1.219999029682)
  );
#478 = CARTESIAN_POINT('',(0.750000118998,0.415385768893,1.195794492775)
  );
#479 = CARTESIAN_POINT('',(0.748166440094,0.415385768893,1.174828594461)
  );
#480 = CARTESIAN_POINT('',(0.744937064589,0.415385768893,1.156628306445)
  );
#481 = CARTESIAN_POINT('',(0.740666108302,0.415385768893,1.140550120014)
  );
#482 = CARTESIAN_POINT('',(0.735552276174,0.415385768893,1.125815936297)
  );
#483 = CARTESIAN_POINT('',(0.729470110691,0.415385768893,1.111547152376)
  );
#484 = CARTESIAN_POINT('',(0.722051334931,0.415385768893,1.097225397876)
  );
#485 = CARTESIAN_POINT('',(0.713013337595,0.415385768893,1.082557302222)
  );
#486 = CARTESIAN_POINT('',(0.691268781802,0.415385768893,1.05226718545)
  );
#487 = CARTESIAN_POINT('',(0.661742238851,0.415385768893,1.019892677798)
  );
#488 = CARTESIAN_POINT('',(0.644921662865,0.415385768893,1.003140043565)
  );
#489 = CARTESIAN_POINT('',(0.626030290832,0.415385768893,0.985865733429)
  );
#490 = CARTESIAN_POINT('',(0.605162751745,0.415385768893,0.9681243009));
#491 = CARTESIAN_POINT('',(0.582471536717,0.415385768893,0.949933627461)
  );
#492 = CARTESIAN_POINT('',(0.558134157893,0.415385768893,0.931268494105)
  );
#493 = CARTESIAN_POINT('',(0.532340918525,0.415385768893,0.912067099715)
  );
#494 = CARTESIAN_POINT('',(0.478227338124,0.415385768893,0.87238384358)
  );
#495 = CARTESIAN_POINT('',(0.41984090037,0.415385768893,0.829567160971)
  );
#496 = CARTESIAN_POINT('',(0.389774756824,0.415385768893,0.807232128557)
  );
#497 = CARTESIAN_POINT('',(0.359034003417,0.415385768893,0.7837879191));
#498 = CARTESIAN_POINT('',(0.327818961818,0.415385768893,0.759009875481)
  );
#499 = CARTESIAN_POINT('',(0.296342744792,0.415385768893,0.73263675848)
  );
#500 = CARTESIAN_POINT('',(0.264843486089,0.415385768893,0.704364228385)
  );
#501 = CARTESIAN_POINT('',(0.233617181512,0.415385768893,0.673851273401)
  );
#502 = CARTESIAN_POINT('',(0.1725187132,0.415385768893,0.607684187759));
#503 = CARTESIAN_POINT('',(0.1161382569,0.415385768893,0.530266047225));
#504 = CARTESIAN_POINT('',(8.962937284043E-02,0.415385768893,
    0.488501889653));
#505 = CARTESIAN_POINT('',(6.540751681604E-02,0.415385768893,
    0.443526807635));
#506 = CARTESIAN_POINT('',(4.414592527733E-02,0.415385768893,
    0.395347713017));
#507 = CARTESIAN_POINT('',(2.660350067684E-02,0.415385768893,
    0.34419651725));
#508 = CARTESIAN_POINT('',(1.329632661377E-02,0.415385768893,
    0.290665365243));
#509 = CARTESIAN_POINT('',(4.416323646974E-03,0.415385768893,
    0.235245898261));
#510 = CARTESIAN_POINT('',(1.219489500945E-09,0.415385768893,
    0.178295167411));
#511 = CARTESIAN_POINT('',(2.725872741314E-09,0.415385768893,
    0.119999743278));
#512 = CARTESIAN_POINT('',(1.263637167298,0.475028095811,1.219999092968)
  );
#513 = CARTESIAN_POINT('',(1.263637170949,0.475028095811,1.160773829063)
  );
#514 = CARTESIAN_POINT('',(1.259150409767,0.475028095811,1.102841606162)
  );
#515 = CARTESIAN_POINT('',(1.250116290256,0.475028095811,1.046406984112)
  );
#516 = CARTESIAN_POINT('',(1.236562659472,0.475028095811,0.991854302576)
  );
#517 = CARTESIAN_POINT('',(1.218681252732,0.475028095811,0.939709833026)
  );
#518 = CARTESIAN_POINT('',(1.197005650285,0.475028095811,0.890605833295)
  );
#519 = CARTESIAN_POINT('',(1.172325497152,0.475028095811,0.844794678639)
  );
#520 = CARTESIAN_POINT('',(1.145340099822,0.475028095811,0.802291471178)
  );
#521 = CARTESIAN_POINT('',(1.088014955408,0.475028095811,0.723587901563)
  );
#522 = CARTESIAN_POINT('',(1.026055360001,0.475028095811,0.656499107286)
  );
#523 = CARTESIAN_POINT('',(0.994436135436,0.475028095811,0.62561083092)
  );
#524 = CARTESIAN_POINT('',(0.962592990736,0.475028095811,0.597038315528)
  );
#525 = CARTESIAN_POINT('',(0.930827414325,0.475028095811,0.570429760515)
  );
#526 = CARTESIAN_POINT('',(0.899379876227,0.475028095811,0.545472037703)
  );
#527 = CARTESIAN_POINT('',(0.868464460584,0.475028095811,0.521897470461)
  );
#528 = CARTESIAN_POINT('',(0.838281762699,0.475028095811,0.499476959753)
  );
#529 = CARTESIAN_POINT('',(0.779778783458,0.475028095811,0.456574813449)
  );
#530 = CARTESIAN_POINT('',(0.725781742855,0.475028095811,0.416977019772)
  );
#531 = CARTESIAN_POINT('',(0.700105054746,0.475028095811,0.397861101416)
  );
#532 = CARTESIAN_POINT('',(0.675942333988,0.475028095811,0.379326322656)
  );
#533 = CARTESIAN_POINT('',(0.653483610514,0.475028095811,0.3613153243));
#534 = CARTESIAN_POINT('',(0.632905425437,0.475028095811,0.343809324745)
  );
#535 = CARTESIAN_POINT('',(0.614357934028,0.475028095811,0.326834993936)
  );
#536 = CARTESIAN_POINT('',(0.59793027324,0.475028095811,0.310457674296)
  );
#537 = CARTESIAN_POINT('',(0.569264850264,0.475028095811,0.279004860934)
  );
#538 = CARTESIAN_POINT('',(0.548464982158,0.475028095811,0.250000160179)
  );
#539 = CARTESIAN_POINT('',(0.539903499999,0.475028095811,0.2360711089));
#540 = CARTESIAN_POINT('',(0.532943025613,0.475028095811,0.222585423543)
  );
#541 = CARTESIAN_POINT('',(0.527274877505,0.475028095811,0.209241544283)
  );
#542 = CARTESIAN_POINT('',(0.522500035252,0.475028095811,0.195500638365)
  );
#543 = CARTESIAN_POINT('',(0.518475542615,0.475028095811,0.18044398949)
  );
#544 = CARTESIAN_POINT('',(0.515400288907,0.475028095811,0.163258867297)
  );
#545 = CARTESIAN_POINT('',(0.513637051951,0.475028095811,0.143274473232)
  );
#546 = CARTESIAN_POINT('',(0.513637050363,0.475028095811,0.11999978867)
  );
#547 = CARTESIAN_POINT('',(1.687279349913,1.893399371382E-15,
    1.219999145165));
#548 = CARTESIAN_POINT('',(1.687279357123,1.87361728018E-15,
    1.131889171152));
#549 = CARTESIAN_POINT('',(1.680604362884,1.854994039667E-15,
    1.043467530669));
#550 = CARTESIAN_POINT('',(1.666782554416,1.831880375877E-15,
    0.955497650802));
#551 = CARTESIAN_POINT('',(1.645572675894,1.81907660642E-15,
    0.869211629242));
#552 = CARTESIAN_POINT('',(1.617160714164,1.789286273815E-15,
    0.786211567761));
#553 = CARTESIAN_POINT('',(1.582623816567,1.784957501249E-15,
    0.708375865508));
#554 = CARTESIAN_POINT('',(1.543706669394,1.75437194801E-15,
    0.636592600249));
#555 = CARTESIAN_POINT('',(1.50191845412,1.750041319241E-15,
    0.571131298985));
#556 = CARTESIAN_POINT('',(1.415246831894,1.709058710858E-15,
    0.452496846416));
#557 = CARTESIAN_POINT('',(1.326536811854,1.706724760476E-15,
    0.356776090678));
#558 = CARTESIAN_POINT('',(1.282711824849,1.626510548276E-15,
    0.31422889229));
#559 = CARTESIAN_POINT('',(1.240186200631,1.80830836484E-15,
    0.276337741577));
#560 = CARTESIAN_POINT('',(1.199432043003,1.451627360124E-15,
    0.24241568155));
#561 = CARTESIAN_POINT('',(1.16076238603,1.919862411622E-15,
    0.211876570909));
#562 = CARTESIAN_POINT('',(1.124421478031,1.407963919375E-15,
    0.184252756642));
#563 = CARTESIAN_POINT('',(1.090618403081,1.815824491727E-15,
    0.159177154233));
#564 = CARTESIAN_POINT('',(1.028495095998,1.313507919709E-15,
    0.113620102752));
#565 = CARTESIAN_POINT('',(0.978118381845,2.096771240479E-15,
    7.667721323044E-02));
#566 = CARTESIAN_POINT('',(0.956062068261,1.191277881445E-15,
    6.021638471217E-02));
#567 = CARTESIAN_POINT('',(0.937324836417,2.402562027194E-15,
    4.573085034674E-02));
#568 = CARTESIAN_POINT('',(0.922088227741,1.199663183525E-15,
    3.33012364307E-02));
#569 = CARTESIAN_POINT('',(0.910498619446,2.098404073055E-15,
    2.310873773408E-02));
#570 = CARTESIAN_POINT('',(0.902633603124,1.594638689314E-15,
    1.5453037322E-02));
#571 = CARTESIAN_POINT('',(0.898411700825,1.778761020405E-15,
    1.0734634103E-02));
#572 = CARTESIAN_POINT('',(0.89649669661,1.722824005392E-15,
    7.913770372E-03));
#573 = CARTESIAN_POINT('',(0.905043305964,1.759785171825E-15,
    1.8839941798E-02));
#574 = CARTESIAN_POINT('',(0.911284643321,1.732433679781E-15,
    2.786897977185E-02));
#575 = CARTESIAN_POINT('',(0.918561166493,1.772316542458E-15,
    4.03554021346E-02));
#576 = CARTESIAN_POINT('',(0.925754318868,1.739454493755E-15,
    5.574322502645E-02));
#577 = CARTESIAN_POINT('',(0.931510037987,1.772137867179E-15,
    7.285791434978E-02));
#578 = CARTESIAN_POINT('',(0.935141798803,1.757812977657E-15,
    8.953461211962E-02));
#579 = CARTESIAN_POINT('',(0.936854238384,1.769836656462E-15,
    0.103884756614));
#580 = CARTESIAN_POINT('',(0.937279237119,1.769121553359E-15,
    0.114389790191));
#581 = CARTESIAN_POINT('',(0.937279232978,1.770948069374E-15,
    0.119999826108));
#582 = CARTESIAN_POINT('',(1.263637167298,-0.475028095811,1.219999092968
    ));
#583 = CARTESIAN_POINT('',(1.263637170949,-0.475028095811,1.160773829063
    ));
#584 = CARTESIAN_POINT('',(1.259150409767,-0.475028095811,1.102841606162
    ));
#585 = CARTESIAN_POINT('',(1.250116290256,-0.475028095811,1.046406984112
    ));
#586 = CARTESIAN_POINT('',(1.236562659472,-0.475028095811,0.991854302576
    ));
#587 = CARTESIAN_POINT('',(1.218681252732,-0.475028095811,0.939709833026
    ));
#588 = CARTESIAN_POINT('',(1.197005650285,-0.475028095811,0.890605833295
    ));
#589 = CARTESIAN_POINT('',(1.172325497152,-0.475028095811,0.844794678639
    ));
#590 = CARTESIAN_POINT('',(1.145340099822,-0.475028095811,0.802291471178
    ));
#591 = CARTESIAN_POINT('',(1.088014955408,-0.475028095811,0.723587901563
    ));
#592 = CARTESIAN_POINT('',(1.026055360001,-0.475028095811,0.656499107286
    ));
#593 = CARTESIAN_POINT('',(0.994436135436,-0.475028095811,0.62561083092)
  );
#594 = CARTESIAN_POINT('',(0.962592990736,-0.475028095811,0.597038315528
    ));
#595 = CARTESIAN_POINT('',(0.930827414325,-0.475028095811,0.570429760515
    ));
#596 = CARTESIAN_POINT('',(0.899379876227,-0.475028095811,0.545472037703
    ));
#597 = CARTESIAN_POINT('',(0.868464460584,-0.475028095811,0.521897470461
    ));
#598 = CARTESIAN_POINT('',(0.838281762699,-0.475028095811,0.499476959753
    ));
#599 = CARTESIAN_POINT('',(0.779778783458,-0.475028095811,0.456574813449
    ));
#600 = CARTESIAN_POINT('',(0.725781742855,-0.475028095811,0.416977019772
    ));
#601 = CARTESIAN_POINT('',(0.700105054746,-0.475028095811,0.397861101416
    ));
#602 = CARTESIAN_POINT('',(0.675942333988,-0.475028095811,0.379326322656
    ));
#603 = CARTESIAN_POINT('',(0.653483610514,-0.475028095811,0.3613153243)
  );
#604 = CARTESIAN_POINT('',(0.632905425437,-0.475028095811,0.343809324745
    ));
#605 = CARTESIAN_POINT('',(0.614357934028,-0.475028095811,0.326834993936
    ));
#606 = CARTESIAN_POINT('',(0.59793027324,-0.475028095811,0.310457674296)
  );
#607 = CARTESIAN_POINT('',(0.569264850264,-0.475028095811,0.279004860934
    ));
#608 = CARTESIAN_POINT('',(0.548464982158,-0.475028095811,0.250000160179
    ));
#609 = CARTESIAN_POINT('',(0.539903499999,-0.475028095811,0.2360711089)
  );
#610 = CARTESIAN_POINT('',(0.532943025613,-0.475028095811,0.222585423543
    ));
#611 = CARTESIAN_POINT('',(0.527274877505,-0.475028095811,0.209241544283
    ));
#612 = CARTESIAN_POINT('',(0.522500035252,-0.475028095811,0.195500638365
    ));
#613 = CARTESIAN_POINT('',(0.518475542615,-0.475028095811,0.18044398949)
  );
#614 = CARTESIAN_POINT('',(0.515400288907,-0.475028095811,0.163258867297
    ));
#615 = CARTESIAN_POINT('',(0.513637051951,-0.475028095811,0.143274473232
    ));
#616 = CARTESIAN_POINT('',(0.513637050363,-0.475028095811,0.11999978867)
  );
#617 = CARTESIAN_POINT('',(0.750000119661,-0.415385768893,1.219999029682
    ));
#618 = CARTESIAN_POINT('',(0.750000118998,-0.415385768893,1.195794492775
    ));
#619 = CARTESIAN_POINT('',(0.748166440094,-0.415385768893,1.174828594461
    ));
#620 = CARTESIAN_POINT('',(0.744937064589,-0.415385768893,1.156628306445
    ));
#621 = CARTESIAN_POINT('',(0.740666108302,-0.415385768893,1.140550120014
    ));
#622 = CARTESIAN_POINT('',(0.735552276174,-0.415385768893,1.125815936297
    ));
#623 = CARTESIAN_POINT('',(0.729470110691,-0.415385768893,1.111547152376
    ));
#624 = CARTESIAN_POINT('',(0.722051334931,-0.415385768893,1.097225397876
    ));
#625 = CARTESIAN_POINT('',(0.713013337595,-0.415385768893,1.082557302222
    ));
#626 = CARTESIAN_POINT('',(0.691268781802,-0.415385768893,1.05226718545)
  );
#627 = CARTESIAN_POINT('',(0.661742238851,-0.415385768893,1.019892677798
    ));
#628 = CARTESIAN_POINT('',(0.644921662865,-0.415385768893,1.003140043565
    ));
#629 = CARTESIAN_POINT('',(0.626030290832,-0.415385768893,0.985865733429
    ));
#630 = CARTESIAN_POINT('',(0.605162751745,-0.415385768893,0.9681243009)
  );
#631 = CARTESIAN_POINT('',(0.582471536717,-0.415385768893,0.949933627461
    ));
#632 = CARTESIAN_POINT('',(0.558134157893,-0.415385768893,0.931268494105
    ));
#633 = CARTESIAN_POINT('',(0.532340918525,-0.415385768893,0.912067099715
    ));
#634 = CARTESIAN_POINT('',(0.478227338124,-0.415385768893,0.87238384358)
  );
#635 = CARTESIAN_POINT('',(0.41984090037,-0.415385768893,0.829567160971)
  );
#636 = CARTESIAN_POINT('',(0.389774756824,-0.415385768893,0.807232128557
    ));
#637 = CARTESIAN_POINT('',(0.359034003417,-0.415385768893,0.7837879191)
  );
#638 = CARTESIAN_POINT('',(0.327818961818,-0.415385768893,0.759009875481
    ));
#639 = CARTESIAN_POINT('',(0.296342744792,-0.415385768893,0.73263675848)
  );
#640 = CARTESIAN_POINT('',(0.264843486089,-0.415385768893,0.704364228385
    ));
#641 = CARTESIAN_POINT('',(0.233617181512,-0.415385768893,0.673851273401
    ));
#642 = CARTESIAN_POINT('',(0.1725187132,-0.415385768893,0.607684187759)
  );
#643 = CARTESIAN_POINT('',(0.1161382569,-0.415385768893,0.530266047225)
  );
#644 = CARTESIAN_POINT('',(8.962937284042E-02,-0.415385768893,
    0.488501889653));
#645 = CARTESIAN_POINT('',(6.540751681606E-02,-0.415385768893,
    0.443526807635));
#646 = CARTESIAN_POINT('',(4.414592527731E-02,-0.415385768893,
    0.395347713017));
#647 = CARTESIAN_POINT('',(2.660350067685E-02,-0.415385768893,
    0.34419651725));
#648 = CARTESIAN_POINT('',(1.329632661377E-02,-0.415385768893,
    0.290665365243));
#649 = CARTESIAN_POINT('',(4.416323646975E-03,-0.415385768893,
    0.235245898261));
#650 = CARTESIAN_POINT('',(1.21948985087E-09,-0.415385768893,
    0.178295167411));
#651 = CARTESIAN_POINT('',(2.725872647149E-09,-0.415385768893,
    0.119999743278));
#652 = CARTESIAN_POINT('',(0.750000119661,8.643701318712E-16,
    1.219999029682));
#653 = CARTESIAN_POINT('',(0.750000118998,8.590748511761E-16,
    1.195794492775));
#654 = CARTESIAN_POINT('',(0.748166440094,8.539655003531E-16,
    1.174828594461));
#655 = CARTESIAN_POINT('',(0.744937064589,8.510590541314E-16,
    1.156628306445));
#656 = CARTESIAN_POINT('',(0.740666108302,8.4493388348E-16,
    1.140550120014));
#657 = CARTESIAN_POINT('',(0.735552276174,8.454811947515E-16,
    1.125815936297));
#658 = CARTESIAN_POINT('',(0.729470110691,8.372223819954E-16,
    1.111547152376));
#659 = CARTESIAN_POINT('',(0.722051334931,8.389321890044E-16,
    1.097225397876));
#660 = CARTESIAN_POINT('',(0.713013337595,8.314713499922E-16,
    1.082557302222));
#661 = CARTESIAN_POINT('',(0.691268781802,8.289900645833E-16,
    1.05226718545));
#662 = CARTESIAN_POINT('',(0.661742238851,8.136651385624E-16,
    1.019892677798));
#663 = CARTESIAN_POINT('',(0.644921662865,8.350221248135E-16,
    1.003140043565));
#664 = CARTESIAN_POINT('',(0.626030290832,7.612992046952E-16,
    0.985865733429));
#665 = CARTESIAN_POINT('',(0.605162751745,8.836394957977E-16,
    0.9681243009));
#666 = CARTESIAN_POINT('',(0.582471536717,7.060658230322E-16,
    0.949933627461));
#667 = CARTESIAN_POINT('',(0.558134157893,8.85132733615E-16,
    0.931268494105));
#668 = CARTESIAN_POINT('',(0.532340918525,7.297103022198E-16,
    0.912067099715));
#669 = CARTESIAN_POINT('',(0.478227338124,8.983817730755E-16,
    0.87238384358));
#670 = CARTESIAN_POINT('',(0.41984090037,5.994194833388E-16,
    0.829567160971));
#671 = CARTESIAN_POINT('',(0.389774756824,9.217337109832E-16,
    0.807232128557));
#672 = CARTESIAN_POINT('',(0.359034003417,4.739874783626E-16,
    0.7837879191));
#673 = CARTESIAN_POINT('',(0.327818961818,9.042940613662E-16,
    0.759009875481));
#674 = CARTESIAN_POINT('',(0.296342744792,5.69970663423E-16,
    0.73263675848));
#675 = CARTESIAN_POINT('',(0.264843486089,7.456235356179E-16,
    0.704364228385));
#676 = CARTESIAN_POINT('',(0.233617181512,6.708272719106E-16,
    0.673851273401));
#677 = CARTESIAN_POINT('',(0.1725187132,6.750006429043E-16,
    0.607684187759));
#678 = CARTESIAN_POINT('',(0.1161382569,6.441670771951E-16,
    0.530266047225));
#679 = CARTESIAN_POINT('',(8.962937284045E-02,6.450801582779E-16,
    0.488501889653));
#680 = CARTESIAN_POINT('',(6.540751681598E-02,6.211568644437E-16,
    0.443526807635));
#681 = CARTESIAN_POINT('',(4.414592527743E-02,6.232771309157E-16,
    0.395347713017));
#682 = CARTESIAN_POINT('',(2.660350067672E-02,6.010994439754E-16,
    0.34419651725));
#683 = CARTESIAN_POINT('',(1.329632661387E-02,5.955275968109E-16,
    0.290665365243));
#684 = CARTESIAN_POINT('',(4.416323646927E-03,5.798398429732E-16,
    0.235245898261));
#685 = CARTESIAN_POINT('',(1.219502498984E-09,5.682163634727E-16,
    0.178295167411));
#686 = CARTESIAN_POINT('',(2.725872194631E-09,5.550608974587E-16,
    0.119999743278));
#687 = ADVANCED_FACE('',(#688),#707,.T.);
#688 = FACE_BOUND('',#689,.T.);
#689 = EDGE_LOOP('',(#690,#698,#705,#706));
#690 = ORIENTED_EDGE('',*,*,#691,.T.);
#691 = EDGE_CURVE('',#391,#692,#694,.T.);
#692 = VERTEX_POINT('',#693);
#693 = CARTESIAN_POINT('',(2.725871084408E-09,0.,-2.880000660802));
#694 = LINE('',#695,#696);
#695 = CARTESIAN_POINT('',(2.725871306453E-09,5.856770723431E-16,
    0.119999765371));
#696 = VECTOR('',#697,1.);
#697 = DIRECTION('',(4.505967313747E-33,-2.22044604925E-16,-1.));
#698 = ORIENTED_EDGE('',*,*,#699,.F.);
#699 = EDGE_CURVE('',#692,#692,#700,.T.);
#700 = CIRCLE('',#701,0.25);
#701 = AXIS2_PLACEMENT_3D('',#702,#703,#704);
#702 = CARTESIAN_POINT('',(0.250000002726,5.073121835438E-18,
    -2.880000660802));
#703 = DIRECTION('',(8.837341451453E-08,-4.440891904384E-16,-1.));
#704 = DIRECTION('',(-1.,-3.421198552104E-16,-8.837341451453E-08));
#705 = ORIENTED_EDGE('',*,*,#691,.F.);
#706 = ORIENTED_EDGE('',*,*,#430,.T.);
#707 = CYLINDRICAL_SURFACE('',#708,0.25);
#708 = AXIS2_PLACEMENT_3D('',#709,#710,#711);
#709 = CARTESIAN_POINT('',(0.250000002726,6.7120703124E-16,
    0.119999765371));
#710 = DIRECTION('',(4.505967313747E-33,-2.22044604925E-16,-1.));
#711 = DIRECTION('',(-1.,-3.421198355876E-16,7.145989641632E-32));
#712 = ADVANCED_FACE('',(#713),#716,.T.);
#713 = FACE_BOUND('',#714,.T.);
#714 = EDGE_LOOP('',(#715));
#715 = ORIENTED_EDGE('',*,*,#699,.T.);
#716 = PLANE('',#717);
#717 = AXIS2_PLACEMENT_3D('',#718,#719,#720);
#718 = CARTESIAN_POINT('',(0.250000002726,1.350778267719E-17,
    -2.880000660802));
#719 = DIRECTION('',(8.837341451453E-08,-4.440891611289E-16,-1.));
#720 = DIRECTION('',(-1.,-2.029307271514E-17,-8.837341451453E-08));
#721 = ( GEOMETRIC_REPRESENTATION_CONTEXT(3) 
GLOBAL_UNCERTAINTY_ASSIGNED_CONTEXT((#725)) GLOBAL_UNIT_ASSIGNED_CONTEXT
((#722,#723,#724)) REPRESENTATION_CONTEXT('Context #1',
  '3D Context with UNIT and UNCERTAINTY') );
#722 = ( LENGTH_UNIT() NAMED_UNIT(*) SI_UNIT(.MILLI.,.METRE.) );
#723 = ( NAMED_UNIT(*) PLANE_ANGLE_UNIT() SI_UNIT($,.RADIAN.) );
#724 = ( NAMED_UNIT(*) SI_UNIT($,.STERADIAN.) SOLID_ANGLE_UNIT() );
#725 = UNCERTAINTY_MEASURE_WITH_UNIT(LENGTH_MEASURE(1.E-07),#722,
  'distance_accuracy_value','confusion accuracy');
#726 = PRODUCT_RELATED_PRODUCT_CATEGORY('part',$,(#7));
ENDSEC;
END-ISO-10303-21;
