0
SECTION
2
HEADER
9
$ACADVER
1
AC1009
9
$INSUNITS
70
4
9
$LTSCALE
40
1.0
9
$EXTMIN
10
0.0000
20
0.0000
30
0.0
9
$EXTMAX
10
420.0000
20
297.0000
30
0.0
0
ENDSEC
0
SECTION
2
TABLES
0
TABLE
2
LTYPE
70
4
0
LTYPE
2
CONTINUOUS
70
0
3
Solid line
72
65
73
0
40
0.0000
0
LTYPE
2
HIDDEN
70
0
3
Hidden __ __ __ __
72
65
73
2
40
3.6000
49
2.4000
49
-1.2000
0
LTYPE
2
CENTER
70
0
3
Center ____ _ ____ _
72
65
73
4
40
11.2000
49
7.0000
49
-1.4000
49
1.4000
49
-1.4000
0
LTYPE
2
PHANTOM
70
0
3
Phantom ____ _ _ ____
72
65
73
6
40
21.0000
49
11.0000
49
-2.0000
49
2.0000
49
-2.0000
49
2.0000
49
-2.0000
0
ENDTAB
0
TABLE
2
LAYER
70
12
0
LAYER
2
0
70
0
62
7
6
CONTINUOUS
0
LAYER
2
VISIBLE
70
0
62
7
6
CONTINUOUS
0
LAYER
2
SECTION
70
0
62
7
6
CONTINUOUS
0
LAYER
2
HIDDEN
70
0
62
8
6
HIDDEN
0
LAYER
2
CENTER
70
0
62
4
6
CENTER
0
LAYER
2
DIM
70
0
62
3
6
CONTINUOUS
0
LAYER
2
TEXT
70
0
62
3
6
CONTINUOUS
0
LAYER
2
HATCH
70
0
62
5
6
CONTINUOUS
0
LAYER
2
CUT
70
0
62
1
6
PHANTOM
0
LAYER
2
CUTTHIN
70
0
62
1
6
PHANTOM
0
LAYER
2
FRAME
70
0
62
7
6
CONTINUOUS
0
LAYER
2
TITLE
70
0
62
7
6
CONTINUOUS
0
ENDTAB
0
ENDSEC
0
SECTION
2
ENTITIES
0
LINE
8
TITLE
10
5.000000
20
5.000000
30
0.0
11
415.000000
21
5.000000
31
0.0
0
LINE
8
TITLE
10
415.000000
20
5.000000
30
0.0
11
415.000000
21
292.000000
31
0.0
0
LINE
8
TITLE
10
415.000000
20
292.000000
30
0.0
11
5.000000
21
292.000000
31
0.0
0
LINE
8
TITLE
10
5.000000
20
292.000000
30
0.0
11
5.000000
21
5.000000
31
0.0
0
LINE
8
FRAME
10
10.000000
20
10.000000
30
0.0
11
410.000000
21
10.000000
31
0.0
0
LINE
8
FRAME
10
410.000000
20
10.000000
30
0.0
11
410.000000
21
287.000000
31
0.0
0
LINE
8
FRAME
10
410.000000
20
287.000000
30
0.0
11
10.000000
21
287.000000
31
0.0
0
LINE
8
FRAME
10
10.000000
20
287.000000
30
0.0
11
10.000000
21
10.000000
31
0.0
0
TEXT
8
TITLE
10
60.000000
20
289.500000
30
0.0
40
2.4000
1
1
72
1
73
2
11
60.000000
21
289.500000
31
0.0
0
TEXT
8
TITLE
10
60.000000
20
7.500000
30
0.0
40
2.4000
1
1
72
1
73
2
11
60.000000
21
7.500000
31
0.0
0
TEXT
8
TITLE
10
160.000000
20
289.500000
30
0.0
40
2.4000
1
2
72
1
73
2
11
160.000000
21
289.500000
31
0.0
0
TEXT
8
TITLE
10
160.000000
20
7.500000
30
0.0
40
2.4000
1
2
72
1
73
2
11
160.000000
21
7.500000
31
0.0
0
LINE
8
TITLE
10
110.000000
20
5.000000
30
0.0
11
110.000000
21
10.000000
31
0.0
0
LINE
8
TITLE
10
110.000000
20
287.000000
30
0.0
11
110.000000
21
292.000000
31
0.0
0
TEXT
8
TITLE
10
260.000000
20
289.500000
30
0.0
40
2.4000
1
3
72
1
73
2
11
260.000000
21
289.500000
31
0.0
0
TEXT
8
TITLE
10
260.000000
20
7.500000
30
0.0
40
2.4000
1
3
72
1
73
2
11
260.000000
21
7.500000
31
0.0
0
LINE
8
TITLE
10
210.000000
20
5.000000
30
0.0
11
210.000000
21
10.000000
31
0.0
0
LINE
8
TITLE
10
210.000000
20
287.000000
30
0.0
11
210.000000
21
292.000000
31
0.0
0
TEXT
8
TITLE
10
360.000000
20
289.500000
30
0.0
40
2.4000
1
4
72
1
73
2
11
360.000000
21
289.500000
31
0.0
0
TEXT
8
TITLE
10
360.000000
20
7.500000
30
0.0
40
2.4000
1
4
72
1
73
2
11
360.000000
21
7.500000
31
0.0
0
LINE
8
TITLE
10
310.000000
20
5.000000
30
0.0
11
310.000000
21
10.000000
31
0.0
0
LINE
8
TITLE
10
310.000000
20
287.000000
30
0.0
11
310.000000
21
292.000000
31
0.0
0
TEXT
8
TITLE
10
7.500000
20
56.166667
30
0.0
40
2.4000
1
C
72
1
73
2
11
7.500000
21
56.166667
31
0.0
0
TEXT
8
TITLE
10
412.500000
20
56.166667
30
0.0
40
2.4000
1
C
72
1
73
2
11
412.500000
21
56.166667
31
0.0
0
TEXT
8
TITLE
10
7.500000
20
148.500000
30
0.0
40
2.4000
1
B
72
1
73
2
11
7.500000
21
148.500000
31
0.0
0
TEXT
8
TITLE
10
412.500000
20
148.500000
30
0.0
40
2.4000
1
B
72
1
73
2
11
412.500000
21
148.500000
31
0.0
0
LINE
8
TITLE
10
5.000000
20
102.333333
30
0.0
11
10.000000
21
102.333333
31
0.0
0
LINE
8
TITLE
10
410.000000
20
102.333333
30
0.0
11
415.000000
21
102.333333
31
0.0
0
TEXT
8
TITLE
10
7.500000
20
240.833333
30
0.0
40
2.4000
1
A
72
1
73
2
11
7.500000
21
240.833333
31
0.0
0
TEXT
8
TITLE
10
412.500000
20
240.833333
30
0.0
40
2.4000
1
A
72
1
73
2
11
412.500000
21
240.833333
31
0.0
0
LINE
8
TITLE
10
5.000000
20
194.666667
30
0.0
11
10.000000
21
194.666667
31
0.0
0
LINE
8
TITLE
10
410.000000
20
194.666667
30
0.0
11
415.000000
21
194.666667
31
0.0
0
LINE
8
VISIBLE
10
107.000000
20
142.500000
30
0.0
11
55.000000
21
142.500000
31
0.0
0
LINE
8
VISIBLE
10
55.000000
20
118.500000
30
0.0
11
55.000000
21
142.500000
31
0.0
0
LINE
8
VISIBLE
10
107.000000
20
118.500000
30
0.0
11
55.000000
21
118.500000
31
0.0
0
LINE
8
VISIBLE
10
59.200000
20
106.500000
30
0.0
11
59.200000
21
118.500000
31
0.0
0
LINE
8
VISIBLE
10
102.800000
20
106.500000
30
0.0
11
59.200000
21
106.500000
31
0.0
0
LINE
8
VISIBLE
10
65.600000
20
101.500000
30
0.0
11
65.600000
21
106.500000
31
0.0
0
LINE
8
VISIBLE
10
96.400000
20
101.500000
30
0.0
11
65.600000
21
101.500000
31
0.0
0
LINE
8
VISIBLE
10
107.000000
20
118.500000
30
0.0
11
107.000000
21
142.500000
31
0.0
0
LINE
8
VISIBLE
10
102.800000
20
106.500000
30
0.0
11
102.800000
21
118.500000
31
0.0
0
LINE
8
VISIBLE
10
96.400000
20
101.500000
30
0.0
11
96.400000
21
106.500000
31
0.0
0
LINE
8
HIDDEN
10
59.200000
20
118.500000
30
0.0
11
102.800000
21
118.500000
31
0.0
0
LINE
8
HIDDEN
10
102.800000
20
118.500000
30
0.0
11
59.200000
21
118.500000
31
0.0
0
LINE
8
HIDDEN
10
62.400000
20
106.500000
30
0.0
11
99.600000
21
106.500000
31
0.0
0
LINE
8
HIDDEN
10
99.600000
20
106.500000
30
0.0
11
62.400000
21
106.500000
31
0.0
0
LINE
8
HIDDEN
10
62.400000
20
106.500000
30
0.0
11
62.400000
21
115.490000
31
0.0
0
LINE
8
HIDDEN
10
62.400000
20
115.490000
30
0.0
11
99.600000
21
115.490000
31
0.0
0
LINE
8
HIDDEN
10
99.600000
20
115.490000
30
0.0
11
62.400000
21
115.490000
31
0.0
0
LINE
8
HIDDEN
10
65.600000
20
106.500000
30
0.0
11
96.400000
21
106.500000
31
0.0
0
LINE
8
HIDDEN
10
96.400000
20
106.500000
30
0.0
11
65.600000
21
106.500000
31
0.0
0
LINE
8
HIDDEN
10
99.600000
20
106.500000
30
0.0
11
99.600000
21
115.490000
31
0.0
0
CIRCLE
8
VISIBLE
10
81.000000
20
231.500000
30
0.0
40
26.000000
0
CIRCLE
8
VISIBLE
10
81.000000
20
231.500000
30
0.0
40
21.800000
0
CIRCLE
8
VISIBLE
10
81.000000
20
231.500000
30
0.0
40
18.600000
0
CIRCLE
8
VISIBLE
10
81.000000
20
231.500000
30
0.0
40
15.400000
0
LINE
8
VISIBLE
10
171.000000
20
142.500000
30
0.0
11
145.000000
21
142.500000
31
0.0
0
LINE
8
VISIBLE
10
197.000000
20
142.500000
30
0.0
11
171.000000
21
142.500000
31
0.0
0
LINE
8
VISIBLE
10
171.000000
20
118.500000
30
0.0
11
145.000000
21
118.500000
31
0.0
0
LINE
8
VISIBLE
10
197.000000
20
118.500000
30
0.0
11
171.000000
21
118.500000
31
0.0
0
LINE
8
VISIBLE
10
171.000000
20
106.500000
30
0.0
11
149.200000
21
106.500000
31
0.0
0
LINE
8
VISIBLE
10
192.800000
20
106.500000
30
0.0
11
171.000000
21
106.500000
31
0.0
0
LINE
8
VISIBLE
10
171.000000
20
101.500000
30
0.0
11
155.600000
21
101.500000
31
0.0
0
LINE
8
VISIBLE
10
186.400000
20
101.500000
30
0.0
11
171.000000
21
101.500000
31
0.0
0
LINE
8
VISIBLE
10
171.000000
20
118.500000
30
0.0
11
171.000000
21
142.500000
31
0.0
0
LINE
8
VISIBLE
10
171.000000
20
106.500000
30
0.0
11
171.000000
21
118.500000
31
0.0
0
LINE
8
VISIBLE
10
171.000000
20
101.500000
30
0.0
11
171.000000
21
106.500000
31
0.0
0
LINE
8
VISIBLE
10
145.000000
20
118.500000
30
0.0
11
145.000000
21
142.500000
31
0.0
0
LINE
8
VISIBLE
10
197.000000
20
118.500000
30
0.0
11
197.000000
21
142.500000
31
0.0
0
LINE
8
VISIBLE
10
149.200000
20
106.500000
30
0.0
11
149.200000
21
118.500000
31
0.0
0
LINE
8
VISIBLE
10
192.800000
20
106.500000
30
0.0
11
192.800000
21
118.500000
31
0.0
0
LINE
8
VISIBLE
10
155.600000
20
101.500000
30
0.0
11
155.600000
21
106.500000
31
0.0
0
LINE
8
VISIBLE
10
186.400000
20
101.500000
30
0.0
11
186.400000
21
106.500000
31
0.0
0
LINE
8
HIDDEN
10
145.000000
20
142.500000
30
0.0
11
197.000000
21
142.500000
31
0.0
0
LINE
8
HIDDEN
10
145.000000
20
118.500000
30
0.0
11
197.000000
21
118.500000
31
0.0
0
LINE
8
HIDDEN
10
171.000000
20
118.500000
30
0.0
11
149.200000
21
118.500000
31
0.0
0
LINE
8
HIDDEN
10
149.200000
20
118.500000
30
0.0
11
192.800000
21
118.500000
31
0.0
0
LINE
8
HIDDEN
10
192.800000
20
118.500000
30
0.0
11
171.000000
21
118.500000
31
0.0
0
LINE
8
HIDDEN
10
149.200000
20
106.500000
30
0.0
11
192.800000
21
106.500000
31
0.0
0
LINE
8
HIDDEN
10
171.000000
20
106.500000
30
0.0
11
152.400000
21
106.500000
31
0.0
0
LINE
8
HIDDEN
10
152.400000
20
106.500000
30
0.0
11
189.600000
21
106.500000
31
0.0
0
LINE
8
HIDDEN
10
189.600000
20
106.500000
30
0.0
11
171.000000
21
106.500000
31
0.0
0
LINE
8
HIDDEN
10
171.000000
20
115.490000
30
0.0
11
152.400000
21
115.490000
31
0.0
0
LINE
8
HIDDEN
10
152.400000
20
115.490000
30
0.0
11
189.600000
21
115.490000
31
0.0
0
LINE
8
HIDDEN
10
189.600000
20
115.490000
30
0.0
11
171.000000
21
115.490000
31
0.0
0
LINE
8
HIDDEN
10
171.000000
20
106.500000
30
0.0
11
155.600000
21
106.500000
31
0.0
0
LINE
8
HIDDEN
10
155.600000
20
106.500000
30
0.0
11
186.400000
21
106.500000
31
0.0
0
LINE
8
HIDDEN
10
186.400000
20
106.500000
30
0.0
11
171.000000
21
106.500000
31
0.0
0
LINE
8
HIDDEN
10
155.600000
20
101.500000
30
0.0
11
186.400000
21
101.500000
31
0.0
0
LINE
8
HIDDEN
10
171.000000
20
106.500000
30
0.0
11
171.000000
21
115.490000
31
0.0
0
LINE
8
HIDDEN
10
152.400000
20
106.500000
30
0.0
11
152.400000
21
115.490000
31
0.0
0
LINE
8
HIDDEN
10
189.600000
20
106.500000
30
0.0
11
189.600000
21
115.490000
31
0.0
0
LINE
8
VISIBLE
10
287.000000
20
118.500000
30
0.0
11
235.000000
21
118.500000
31
0.0
0
LINE
8
VISIBLE
10
282.800000
20
106.500000
30
0.0
11
239.200000
21
106.500000
31
0.0
0
LINE
8
SECTION
10
235.000000
20
118.500000
30
0.0
11
235.000000
21
142.500000
31
0.0
0
LINE
8
SECTION
10
235.000000
20
142.500000
30
0.0
11
287.000000
21
142.500000
31
0.0
0
LINE
8
SECTION
10
287.000000
20
118.500000
30
0.0
11
287.000000
21
142.500000
31
0.0
0
LINE
8
SECTION
10
282.800000
20
118.500000
30
0.0
11
287.000000
21
118.500000
31
0.0
0
LINE
8
SECTION
10
282.800000
20
106.500000
30
0.0
11
282.800000
21
118.500000
31
0.0
0
LINE
8
SECTION
10
279.600000
20
106.500000
30
0.0
11
282.800000
21
106.500000
31
0.0
0
LINE
8
SECTION
10
279.600000
20
106.500000
30
0.0
11
279.600000
21
115.490000
31
0.0
0
LINE
8
SECTION
10
242.400000
20
115.490000
30
0.0
11
279.600000
21
115.490000
31
0.0
0
LINE
8
SECTION
10
242.400000
20
106.500000
30
0.0
11
242.400000
21
115.490000
31
0.0
0
LINE
8
SECTION
10
239.200000
20
106.500000
30
0.0
11
242.400000
21
106.500000
31
0.0
0
LINE
8
SECTION
10
239.200000
20
106.500000
30
0.0
11
239.200000
21
118.500000
31
0.0
0
LINE
8
SECTION
10
235.000000
20
118.500000
30
0.0
11
239.200000
21
118.500000
31
0.0
0
LINE
8
SECTION
10
245.600000
20
101.500000
30
0.0
11
245.600000
21
106.500000
31
0.0
0
LINE
8
SECTION
10
245.600000
20
106.500000
30
0.0
11
276.400000
21
106.500000
31
0.0
0
LINE
8
SECTION
10
276.400000
20
101.500000
30
0.0
11
276.400000
21
106.500000
31
0.0
0
LINE
8
SECTION
10
245.600000
20
101.500000
30
0.0
11
276.400000
21
101.500000
31
0.0
0
LINE
8
DIM
10
55.000000
20
100.300000
30
0.0
11
55.000000
21
78.500000
31
0.0
0
LINE
8
DIM
10
107.000000
20
100.300000
30
0.0
11
107.000000
21
78.500000
31
0.0
0
LINE
8
DIM
10
55.000000
20
80.500000
30
0.0
11
107.000000
21
80.500000
31
0.0
0
SOLID
8
DIM
10
55.000000
20
80.500000
30
0.0
11
58.200000
21
79.892000
31
0.0
12
58.200000
22
81.108000
32
0.0
13
58.200000
23
81.108000
33
0.0
0
SOLID
8
DIM
10
107.000000
20
80.500000
30
0.0
11
103.800000
21
81.108000
31
0.0
12
103.800000
22
79.892000
32
0.0
13
103.800000
23
79.892000
33
0.0
0
TEXT
8
TEXT
10
81.000000
20
81.500000
30
0.0
40
2.5000
1
26.00
72
1
73
0
11
81.000000
21
81.500000
31
0.0
0
LINE
8
DIM
10
53.800000
20
101.500000
30
0.0
11
32.000000
21
101.500000
31
0.0
0
LINE
8
DIM
10
53.800000
20
142.500000
30
0.0
11
32.000000
21
142.500000
31
0.0
0
LINE
8
DIM
10
34.000000
20
101.500000
30
0.0
11
34.000000
21
142.500000
31
0.0
0
SOLID
8
DIM
10
34.000000
20
101.500000
30
0.0
11
34.608000
21
104.700000
31
0.0
12
33.392000
22
104.700000
32
0.0
13
33.392000
23
104.700000
33
0.0
0
SOLID
8
DIM
10
34.000000
20
142.500000
30
0.0
11
33.392000
21
139.300000
31
0.0
12
34.608000
22
139.300000
32
0.0
13
34.608000
23
139.300000
33
0.0
0
TEXT
8
TEXT
10
33.000000
20
122.000000
30
0.0
40
2.5000
1
20.50
50
90.0000
72
1
73
0
11
33.000000
21
122.000000
31
0.0
0
TEXT
8
TEXT
10
81.000000
20
68.500000
30
0.0
40
4.0000
1
FRONT VIEW
72
1
73
0
11
81.000000
21
68.500000
31
0.0
0
LINE
8
TEXT
10
69.000000
20
66.900000
30
0.0
11
93.000000
21
66.900000
31
0.0
0
TEXT
8
TEXT
10
81.000000
20
62.500000
30
0.0
40
2.4000
1
-X →   Z ↑
72
1
73
0
11
81.000000
21
62.500000
31
0.0
0
LINE
8
CENTER
10
60.800000
20
231.500000
30
0.0
11
79.800000
21
231.500000
31
0.0
0
LINE
8
CENTER
10
82.200000
20
231.500000
30
0.0
11
101.200000
21
231.500000
31
0.0
0
LINE
8
CENTER
10
81.000000
20
211.300000
30
0.0
11
81.000000
21
230.300000
31
0.0
0
LINE
8
CENTER
10
81.000000
20
232.700000
30
0.0
11
81.000000
21
251.700000
31
0.0
0
LINE
8
DIM
10
55.000000
20
204.300000
30
0.0
11
55.000000
21
191.500000
31
0.0
0
LINE
8
DIM
10
107.000000
20
204.300000
30
0.0
11
107.000000
21
191.500000
31
0.0
0
LINE
8
DIM
10
55.000000
20
193.500000
30
0.0
11
107.000000
21
193.500000
31
0.0
0
SOLID
8
DIM
10
55.000000
20
193.500000
30
0.0
11
58.200000
21
192.892000
31
0.0
12
58.200000
22
194.108000
32
0.0
13
58.200000
23
194.108000
33
0.0
0
SOLID
8
DIM
10
107.000000
20
193.500000
30
0.0
11
103.800000
21
194.108000
31
0.0
12
103.800000
22
192.892000
32
0.0
13
103.800000
23
192.892000
33
0.0
0
TEXT
8
TEXT
10
81.000000
20
194.500000
30
0.0
40
2.5000
1
26.00
72
1
73
0
11
81.000000
21
194.500000
31
0.0
0
LINE
8
DIM
10
53.800000
20
205.500000
30
0.0
11
41.000000
21
205.500000
31
0.0
0
LINE
8
DIM
10
53.800000
20
257.500000
30
0.0
11
41.000000
21
257.500000
31
0.0
0
LINE
8
DIM
10
43.000000
20
205.500000
30
0.0
11
43.000000
21
257.500000
31
0.0
0
SOLID
8
DIM
10
43.000000
20
205.500000
30
0.0
11
43.608000
21
208.700000
31
0.0
12
42.392000
22
208.700000
32
0.0
13
42.392000
23
208.700000
33
0.0
0
SOLID
8
DIM
10
43.000000
20
257.500000
30
0.0
11
42.392000
21
254.300000
31
0.0
12
43.608000
22
254.300000
32
0.0
13
43.608000
23
254.300000
33
0.0
0
TEXT
8
TEXT
10
42.000000
20
231.500000
30
0.0
40
2.5000
1
26.00
50
90.0000
72
1
73
0
11
42.000000
21
231.500000
31
0.0
0
SOLID
8
DIM
10
92.451303
20
246.157000
30
0.0
11
94.900531
21
248.304312
31
0.0
12
93.942310
22
249.052957
32
0.0
13
93.942310
23
249.052957
33
0.0
0
LINE
8
DIM
10
92.451303
20
246.157000
30
0.0
11
106.782426
21
264.500000
31
0.0
0
LINE
8
DIM
10
106.782426
20
264.500000
30
0.0
11
111.782426
21
264.500000
31
0.0
0
TEXT
8
TEXT
10
112.582426
20
265.500000
30
0.0
40
2.5000
1
Ø18.60 x 4.50 DP
0
TEXT
8
TEXT
10
81.000000
20
181.500000
30
0.0
40
4.0000
1
TOP VIEW
72
1
73
0
11
81.000000
21
181.500000
31
0.0
0
LINE
8
TEXT
10
71.400000
20
179.900000
30
0.0
11
90.600000
21
179.900000
31
0.0
0
TEXT
8
TEXT
10
81.000000
20
175.500000
30
0.0
40
2.4000
1
X →   Y ↑
72
1
73
0
11
81.000000
21
175.500000
31
0.0
0
LINE
8
DIM
10
145.000000
20
100.300000
30
0.0
11
145.000000
21
87.500000
31
0.0
0
LINE
8
DIM
10
197.000000
20
100.300000
30
0.0
11
197.000000
21
87.500000
31
0.0
0
LINE
8
DIM
10
145.000000
20
89.500000
30
0.0
11
197.000000
21
89.500000
31
0.0
0
SOLID
8
DIM
10
145.000000
20
89.500000
30
0.0
11
148.200000
21
88.892000
31
0.0
12
148.200000
22
90.108000
32
0.0
13
148.200000
23
90.108000
33
0.0
0
SOLID
8
DIM
10
197.000000
20
89.500000
30
0.0
11
193.800000
21
90.108000
31
0.0
12
193.800000
22
88.892000
32
0.0
13
193.800000
23
88.892000
33
0.0
0
TEXT
8
TEXT
10
171.000000
20
90.500000
30
0.0
40
2.5000
1
26.00
72
1
73
0
11
171.000000
21
90.500000
31
0.0
0
LINE
8
DIM
10
143.800000
20
101.500000
30
0.0
11
131.000000
21
101.500000
31
0.0
0
LINE
8
DIM
10
143.800000
20
142.500000
30
0.0
11
131.000000
21
142.500000
31
0.0
0
LINE
8
DIM
10
133.000000
20
101.500000
30
0.0
11
133.000000
21
142.500000
31
0.0
0
SOLID
8
DIM
10
133.000000
20
101.500000
30
0.0
11
133.608000
21
104.700000
31
0.0
12
132.392000
22
104.700000
32
0.0
13
132.392000
23
104.700000
33
0.0
0
SOLID
8
DIM
10
133.000000
20
142.500000
30
0.0
11
132.392000
21
139.300000
31
0.0
12
133.608000
22
139.300000
32
0.0
13
133.608000
23
139.300000
33
0.0
0
TEXT
8
TEXT
10
132.000000
20
122.000000
30
0.0
40
2.5000
1
20.50
50
90.0000
72
1
73
0
11
132.000000
21
122.000000
31
0.0
0
TEXT
8
TEXT
10
171.000000
20
77.500000
30
0.0
40
4.0000
1
RIGHT VIEW
72
1
73
0
11
171.000000
21
77.500000
31
0.0
0
LINE
8
TEXT
10
159.000000
20
75.900000
30
0.0
11
183.000000
21
75.900000
31
0.0
0
TEXT
8
TEXT
10
171.000000
20
71.500000
30
0.0
40
2.4000
1
-Y →   Z ↑
72
1
73
0
11
171.000000
21
71.500000
31
0.0
0
LINE
8
DIM
10
235.000000
20
100.300000
30
0.0
11
235.000000
21
87.500000
31
0.0
0
LINE
8
DIM
10
287.000000
20
100.300000
30
0.0
11
287.000000
21
87.500000
31
0.0
0
LINE
8
DIM
10
235.000000
20
89.500000
30
0.0
11
287.000000
21
89.500000
31
0.0
0
SOLID
8
DIM
10
235.000000
20
89.500000
30
0.0
11
238.200000
21
88.892000
31
0.0
12
238.200000
22
90.108000
32
0.0
13
238.200000
23
90.108000
33
0.0
0
SOLID
8
DIM
10
287.000000
20
89.500000
30
0.0
11
283.800000
21
90.108000
31
0.0
12
283.800000
22
88.892000
32
0.0
13
283.800000
23
88.892000
33
0.0
0
TEXT
8
TEXT
10
261.000000
20
90.500000
30
0.0
40
2.5000
1
26.00
72
1
73
0
11
261.000000
21
90.500000
31
0.0
0
LINE
8
DIM
10
233.800000
20
101.500000
30
0.0
11
221.000000
21
101.500000
31
0.0
0
LINE
8
DIM
10
233.800000
20
142.500000
30
0.0
11
221.000000
21
142.500000
31
0.0
0
LINE
8
DIM
10
223.000000
20
101.500000
30
0.0
11
223.000000
21
142.500000
31
0.0
0
SOLID
8
DIM
10
223.000000
20
101.500000
30
0.0
11
223.608000
21
104.700000
31
0.0
12
222.392000
22
104.700000
32
0.0
13
222.392000
23
104.700000
33
0.0
0
SOLID
8
DIM
10
223.000000
20
142.500000
30
0.0
11
222.392000
21
139.300000
31
0.0
12
223.608000
22
139.300000
32
0.0
13
223.608000
23
139.300000
33
0.0
0
TEXT
8
TEXT
10
222.000000
20
122.000000
30
0.0
40
2.5000
1
20.50
50
90.0000
72
1
73
0
11
222.000000
21
122.000000
31
0.0
0
LINE
8
HATCH
10
282.799997
20
106.500000
30
0.0
11
282.800000
21
106.500003
31
0.0
0
LINE
8
HATCH
10
279.600000
20
107.542644
30
0.0
11
282.800000
21
110.742644
31
0.0
0
LINE
8
HATCH
10
279.600000
20
111.785284
30
0.0
11
282.800000
21
114.985284
31
0.0
0
LINE
8
HATCH
10
286.314716
20
118.500000
30
0.0
11
287.000000
21
119.185284
31
0.0
0
LINE
8
HATCH
10
279.062075
20
115.490000
30
0.0
11
287.000000
21
123.427925
31
0.0
0
LINE
8
HATCH
10
274.819434
20
115.490000
30
0.0
11
287.000000
21
127.670566
31
0.0
0
LINE
8
HATCH
10
270.576794
20
115.490000
30
0.0
11
287.000000
21
131.913206
31
0.0
0
LINE
8
HATCH
10
266.334153
20
115.490000
30
0.0
11
287.000000
21
136.155847
31
0.0
0
LINE
8
HATCH
10
262.091512
20
115.490000
30
0.0
11
287.000000
21
140.398488
31
0.0
0
LINE
8
HATCH
10
257.848872
20
115.490000
30
0.0
11
284.858872
21
142.500000
31
0.0
0
LINE
8
HATCH
10
253.606231
20
115.490000
30
0.0
11
280.616231
21
142.500000
31
0.0
0
LINE
8
HATCH
10
240.373590
20
106.500000
30
0.0
11
242.400000
21
108.526410
31
0.0
0
LINE
8
HATCH
10
249.363590
20
115.490000
30
0.0
11
276.373590
21
142.500000
31
0.0
0
LINE
8
HATCH
10
239.200000
20
109.569050
30
0.0
11
242.400000
21
112.769050
31
0.0
0
LINE
8
HATCH
10
245.120950
20
115.490000
30
0.0
11
272.130950
21
142.500000
31
0.0
0
LINE
8
HATCH
10
239.200000
20
113.811691
30
0.0
11
267.888309
21
142.500000
31
0.0
0
LINE
8
HATCH
10
239.200000
20
118.054332
30
0.0
11
263.645668
21
142.500000
31
0.0
0
LINE
8
HATCH
10
235.403028
20
118.500000
30
0.0
11
259.403028
21
142.500000
31
0.0
0
LINE
8
HATCH
10
235.000000
20
122.339613
30
0.0
11
255.160387
21
142.500000
31
0.0
0
LINE
8
HATCH
10
235.000000
20
126.582254
30
0.0
11
250.917746
21
142.500000
31
0.0
0
LINE
8
HATCH
10
235.000000
20
130.824895
30
0.0
11
246.675105
21
142.500000
31
0.0
0
LINE
8
HATCH
10
235.000000
20
135.067535
30
0.0
11
242.432465
21
142.500000
31
0.0
0
LINE
8
HATCH
10
235.000000
20
139.310176
30
0.0
11
238.189824
21
142.500000
31
0.0
0
LINE
8
HATCH
10
276.399997
20
101.500000
30
0.0
11
276.400000
21
101.500003
31
0.0
0
LINE
8
HATCH
10
272.157356
20
101.500000
30
0.0
11
276.400000
21
105.742644
31
0.0
0
LINE
8
HATCH
10
267.914716
20
101.500000
30
0.0
11
272.914716
21
106.500000
31
0.0
0
LINE
8
HATCH
10
263.672075
20
101.500000
30
0.0
11
268.672075
21
106.500000
31
0.0
0
LINE
8
HATCH
10
259.429434
20
101.500000
30
0.0
11
264.429434
21
106.500000
31
0.0
0
LINE
8
HATCH
10
255.186794
20
101.500000
30
0.0
11
260.186794
21
106.500000
31
0.0
0
LINE
8
HATCH
10
250.944153
20
101.500000
30
0.0
11
255.944153
21
106.500000
31
0.0
0
LINE
8
HATCH
10
246.701512
20
101.500000
30
0.0
11
251.701512
21
106.500000
31
0.0
0
LINE
8
HATCH
10
245.600000
20
104.641128
30
0.0
11
247.458872
21
106.500000
31
0.0
0
LINE
8
DIM
10
239.200000
20
108.166668
30
0.0
11
239.200000
21
151.500000
31
0.0
0
LINE
8
DIM
10
242.400000
20
108.166668
30
0.0
11
242.400000
21
151.500000
31
0.0
0
LINE
8
DIM
10
239.200000
20
149.500000
30
0.0
11
242.400000
21
149.500000
31
0.0
0
SOLID
8
DIM
10
239.200000
20
149.500000
30
0.0
11
236.000000
21
150.108000
31
0.0
12
236.000000
22
148.892000
32
0.0
13
236.000000
23
148.892000
33
0.0
0
SOLID
8
DIM
10
242.400000
20
149.500000
30
0.0
11
245.600000
21
148.892000
31
0.0
12
245.600000
22
150.108000
32
0.0
13
245.600000
23
150.108000
33
0.0
0
LINE
8
DIM
10
242.400000
20
149.500000
30
0.0
11
252.000000
21
149.500000
31
0.0
0
TEXT
8
TEXT
10
252.800000
20
149.900000
30
0.0
40
2.5000
1
1.60 WALL
0
LINE
8
DIM
10
277.149999
20
101.500000
30
0.0
11
298.000000
21
101.500000
31
0.0
0
LINE
8
DIM
10
277.149999
20
106.500000
30
0.0
11
298.000000
21
106.500000
31
0.0
0
LINE
8
DIM
10
296.000000
20
101.500000
30
0.0
11
296.000000
21
106.500000
31
0.0
0
SOLID
8
DIM
10
296.000000
20
101.500000
30
0.0
11
295.392000
21
98.300000
31
0.0
12
296.608000
22
98.300000
32
0.0
13
296.608000
23
98.300000
33
0.0
0
SOLID
8
DIM
10
296.000000
20
106.500000
30
0.0
11
296.608000
21
109.700000
31
0.0
12
295.392000
22
109.700000
32
0.0
13
295.392000
23
109.700000
33
0.0
0
LINE
8
DIM
10
296.000000
20
106.500000
30
0.0
11
296.000000
21
116.100000
31
0.0
0
TEXT
8
TEXT
10
295.000000
20
116.900000
30
0.0
40
2.5000
1
2.50 WALL
50
90.0000
0
TEXT
8
TEXT
10
261.000000
20
81.000000
30
0.0
40
4.0000
1
SECTION A-A
72
1
73
0
11
261.000000
21
81.000000
31
0.0
0
LINE
8
TEXT
10
247.800000
20
79.400000
30
0.0
11
274.200000
21
79.400000
31
0.0
0
LINE
8
CUT
10
81.000000
20
92.500000
30
0.0
11
81.000000
21
106.500000
31
0.0
0
LINE
8
CUTTHIN
10
81.000000
20
106.500000
30
0.0
11
81.000000
21
137.500000
31
0.0
0
LINE
8
CUT
10
81.000000
20
137.500000
30
0.0
11
81.000000
21
151.500000
31
0.0
0
LINE
8
CUT
10
81.000000
20
92.500000
30
0.0
11
90.000000
21
92.500000
31
0.0
0
SOLID
8
CUT
10
90.000000
20
92.500000
30
0.0
11
85.800000
21
93.298000
31
0.0
12
85.800000
22
91.702000
32
0.0
13
85.800000
23
91.702000
33
0.0
0
TEXT
8
TEXT
10
76.000000
20
92.500000
30
0.0
40
4.0000
1
A
72
1
73
2
11
76.000000
21
92.500000
31
0.0
0
LINE
8
CUT
10
81.000000
20
151.500000
30
0.0
11
90.000000
21
151.500000
31
0.0
0
SOLID
8
CUT
10
90.000000
20
151.500000
30
0.0
11
85.800000
21
152.298000
31
0.0
12
85.800000
22
150.702000
32
0.0
13
85.800000
23
150.702000
33
0.0
0
TEXT
8
TEXT
10
76.000000
20
151.500000
30
0.0
40
4.0000
1
A
72
1
73
2
11
76.000000
21
151.500000
31
0.0
0
TEXT
8
TEXT
10
334.000000
20
275.000000
30
0.0
40
3.0000
1
NOTES
0
TEXT
8
TEXT
10
334.000000
20
270.400000
30
0.0
40
2.4000
1
1. ALL DIMENSIONS IN mm AND DEGREES. EVERY
0
TEXT
8
TEXT
10
334.000000
20
266.680000
30
0.0
40
2.4000
1
   DIMENSION AND EVERY HOLE CALLOUT WAS MEASURED
0
TEXT
8
TEXT
10
334.000000
20
262.960000
30
0.0
40
2.4000
1
   OFF THE SOLID.
0
TEXT
8
TEXT
10
334.000000
20
259.240000
30
0.0
40
2.4000
1
2. THINNEST WALL, WHOLE SOLID: 1.6000 mm, AT
0
TEXT
8
TEXT
10
334.000000
20
255.520000
30
0.0
40
2.4000
1
   X=-0.905 Y=10.861 Z=3.000 — MEASURED OVER THE
0
TEXT
8
TEXT
10
334.000000
20
251.800000
30
0.0
40
2.4000
1
   WHOLE SOLID BY RAY+EXACT AT 0.731 mm SAMPLE
0
TEXT
8
TEXT
10
334.000000
20
248.080000
30
0.0
40
2.4000
1
   SPACING (A FEATURE NARROWER THAN THAT CAN BE
0
TEXT
8
TEXT
10
334.000000
20
244.360000
30
0.0
40
2.4000
1
   MISSED). A RAY MINIMUM AT AN EDGE, A FILLET
0
TEXT
8
TEXT
10
334.000000
20
240.640000
30
0.0
40
2.4000
1
   RUN-OUT OR A CHAMFER TIP IS A REAL DISTANCE
0
TEXT
8
TEXT
10
334.000000
20
236.920000
30
0.0
40
2.4000
1
   THROUGH MATERIAL AND IS NOT A PRINTABLE WALL.
0
TEXT
8
TEXT
10
334.000000
20
233.200000
30
0.0
40
2.4000
1
3. GENERAL TOLERANCE: CANNOT DETERMINE — THIS PART
0
TEXT
8
TEXT
10
334.000000
20
229.480000
30
0.0
40
2.4000
1
   DECLARES NO PROCESS THIS REPO CAN READ.
0
TEXT
8
TEXT
10
334.000000
20
225.760000
30
0.0
40
2.4000
1
4. SECTION A-A AT X=0.00: THINNEST MATERIAL IN
0
TEXT
8
TEXT
10
334.000000
20
222.040000
30
0.0
40
2.4000
1
   THIS PLANE ONLY 1.60 mm, AT Y=-10.10, Z=0.23 —
0
TEXT
8
TEXT
10
334.000000
20
218.320000
30
0.0
40
2.4000
1
   A SCAN OF ONE CUT, NOT THE PART MINIMUM.
0
LINE
8
FRAME
10
224.000000
20
10.000000
30
0.0
11
410.000000
21
10.000000
31
0.0
0
LINE
8
FRAME
10
410.000000
20
10.000000
30
0.0
11
410.000000
21
66.000000
31
0.0
0
LINE
8
FRAME
10
410.000000
20
66.000000
30
0.0
11
224.000000
21
66.000000
31
0.0
0
LINE
8
FRAME
10
224.000000
20
66.000000
30
0.0
11
224.000000
21
10.000000
31
0.0
0
LINE
8
TITLE
10
224.000000
20
53.000000
30
0.0
11
410.000000
21
53.000000
31
0.0
0
LINE
8
TITLE
10
224.000000
20
19.000000
30
0.0
11
410.000000
21
19.000000
31
0.0
0
LINE
8
TITLE
10
224.000000
20
27.500000
30
0.0
11
410.000000
21
27.500000
31
0.0
0
LINE
8
TITLE
10
224.000000
20
36.000000
30
0.0
11
410.000000
21
36.000000
31
0.0
0
LINE
8
TITLE
10
224.000000
20
44.500000
30
0.0
11
410.000000
21
44.500000
31
0.0
0
TEXT
8
TEXT
10
226.500000
20
59.500000
30
0.0
40
6.0000
1
MICRODUCK-JIG-PRESS-22-OUTER
72
0
73
2
11
226.500000
21
59.500000
31
0.0
0
LINE
8
TITLE
10
390.000000
20
53.000000
30
0.0
11
390.000000
21
66.000000
31
0.0
0
TEXT
8
TITLE
10
400.000000
20
63.600000
30
0.0
40
1.7000
1
REV
72
1
73
0
11
400.000000
21
63.600000
31
0.0
0
TEXT
8
TEXT
10
400.000000
20
55.000000
30
0.0
40
5.2000
1
A
72
1
73
0
11
400.000000
21
55.000000
31
0.0
0
LINE
8
TITLE
10
360.000000
20
53.000000
30
0.0
11
360.000000
21
66.000000
31
0.0
0
CIRCLE
8
TITLE
10
366.500000
20
59.500000
30
0.0
40
3.500000
0
CIRCLE
8
TITLE
10
366.500000
20
59.500000
30
0.0
40
1.960000
0
LINE
8
TITLE
10
376.300000
20
56.000000
30
0.0
11
376.300000
21
63.000000
31
0.0
0
LINE
8
TITLE
10
376.300000
20
63.000000
30
0.0
11
382.250000
21
61.460000
31
0.0
0
LINE
8
TITLE
10
382.250000
20
61.460000
30
0.0
11
382.250000
21
57.540000
31
0.0
0
LINE
8
TITLE
10
382.250000
20
57.540000
30
0.0
11
376.300000
21
56.000000
31
0.0
0
LINE
8
CENTER
10
361.500000
20
59.500000
30
0.0
11
383.750000
21
59.500000
31
0.0
0
LINE
8
TITLE
10
288.000000
20
19.000000
30
0.0
11
288.000000
21
53.000000
31
0.0
0
LINE
8
TITLE
10
352.000000
20
19.000000
30
0.0
11
352.000000
21
53.000000
31
0.0
0
TEXT
8
TITLE
10
225.600000
20
50.600000
30
0.0
40
1.7000
1
MATERIAL
0
TEXT
8
TEXT
10
225.600000
20
45.900000
30
0.0
40
2.5000
1
PLA
0
TEXT
8
TITLE
10
289.600000
20
50.600000
30
0.0
40
1.7000
1
PROCESS
0
TEXT
8
TEXT
10
289.600000
20
45.900000
30
0.0
40
2.5000
1
-
0
TEXT
8
TITLE
10
353.600000
20
50.600000
30
0.0
40
1.7000
1
SCALE
0
TEXT
8
TEXT
10
353.600000
20
45.900000
30
0.0
40
2.5000
1
2:1
0
TEXT
8
TITLE
10
225.600000
20
42.100000
30
0.0
40
1.7000
1
CATEGORY
0
TEXT
8
TEXT
10
225.600000
20
37.400000
30
0.0
40
2.5000
1
-
0
TEXT
8
TITLE
10
257.600000
20
42.100000
30
0.0
40
1.7000
1
GENERAL TOL
0
TEXT
8
TEXT
10
257.600000
20
37.400000
30
0.0
40
2.5000
1
SEE NOTES
0
LINE
8
TITLE
10
256.000000
20
36.000000
30
0.0
11
256.000000
21
44.500000
31
0.0
0
TEXT
8
TITLE
10
289.600000
20
42.100000
30
0.0
40
1.7000
1
FINISH
0
TEXT
8
TEXT
10
289.600000
20
37.400000
30
0.0
40
2.5000
1
AS PRINTED
0
TEXT
8
TITLE
10
353.600000
20
42.100000
30
0.0
40
1.7000
1
SHEET
0
TEXT
8
TEXT
10
353.600000
20
37.400000
30
0.0
40
2.5000
1
A3  1/1
0
TEXT
8
TITLE
10
225.600000
20
33.600000
30
0.0
40
1.7000
1
VOLUME (MEASURED)
0
TEXT
8
TEXT
10
225.600000
20
28.900000
30
0.0
40
2.5000
1
7.85 cm3
0
TEXT
8
TITLE
10
289.600000
20
33.600000
30
0.0
40
1.7000
1
MASS (ASSUMES PLA)
0
TEXT
8
TEXT
10
289.600000
20
28.900000
30
0.0
40
2.5000
1
9.7 g
0
TEXT
8
TITLE
10
353.600000
20
33.600000
30
0.0
40
1.7000
1
UNITS
0
TEXT
8
TEXT
10
353.600000
20
28.900000
30
0.0
40
2.5000
1
mm / deg
0
TEXT
8
TITLE
10
225.600000
20
25.100000
30
0.0
40
1.7000
1
SIZE (BBOX, MEASURED)
0
TEXT
8
TEXT
10
225.600000
20
20.400000
30
0.0
40
2.5000
1
26.00 x 26.00 x 20.50
0
TEXT
8
TITLE
10
289.600000
20
25.100000
30
0.0
40
1.7000
1
DRAWN
0
TEXT
8
TEXT
10
289.600000
20
20.400000
30
0.0
40
2.5000
1
ce-cad  2026-09-02
0
TEXT
8
TITLE
10
353.600000
20
25.100000
30
0.0
40
1.7000
1
PROJECTION
0
TEXT
8
TEXT
10
353.600000
20
20.400000
30
0.0
40
2.5000
1
THIRD ANGLE
0
TEXT
8
TITLE
10
225.600000
20
16.600000
30
0.0
40
1.7000
1
SOURCE (DESIGN FILE)
0
TEXT
8
TEXT
10
225.600000
20
11.400000
30
0.0
40
2.6000
1
tools/jigs.py
0
TEXT
8
TEXT
10
12.500000
20
280.500000
30
0.0
40
4.2000
1
microduck-jig-press-22-outer   SCALE 2:1   A3   THIRD ANGLE
0
ENDSEC
0
EOF
