<svg xmlns="http://www.w3.org/2000/svg" xmlns:xlink="http://www.w3.org/1999/xlink" version="1.1" width="420mm" height="297mm" viewBox="0 0 420 297">
<title>microduck-jig-press-22-outer — 2:1</title>
<rect x="0" y="0" width="420" height="297" fill="#ffffff"/>
<style>@page{size:420mm 297mm;margin:0}html,body{margin:0;padding:0}text{font-family:"DejaVu Sans Mono","Menlo","Consolas",monospace;white-space:pre}</style>
<g id="VISIBLE" stroke="#101418" stroke-width="0.50" fill="none" stroke-linecap="round">
<line x1="107.0000" y1="154.5000" x2="55.0000" y2="154.5000"/>
<line x1="55.0000" y1="178.5000" x2="55.0000" y2="154.5000"/>
<line x1="107.0000" y1="178.5000" x2="55.0000" y2="178.5000"/>
<line x1="59.2000" y1="190.5000" x2="59.2000" y2="178.5000"/>
<line x1="102.8000" y1="190.5000" x2="59.2000" y2="190.5000"/>
<line x1="65.6000" y1="195.5000" x2="65.6000" y2="190.5000"/>
<line x1="96.4000" y1="195.5000" x2="65.6000" y2="195.5000"/>
<line x1="107.0000" y1="178.5000" x2="107.0000" y2="154.5000"/>
<line x1="102.8000" y1="190.5000" x2="102.8000" y2="178.5000"/>
<line x1="96.4000" y1="195.5000" x2="96.4000" y2="190.5000"/>
<circle cx="81.0000" cy="65.5000" r="26.0000"/>
<circle cx="81.0000" cy="65.5000" r="21.8000"/>
<circle cx="81.0000" cy="65.5000" r="18.6000"/>
<circle cx="81.0000" cy="65.5000" r="15.4000"/>
<line x1="171.0000" y1="154.5000" x2="145.0000" y2="154.5000"/>
<line x1="197.0000" y1="154.5000" x2="171.0000" y2="154.5000"/>
<line x1="171.0000" y1="178.5000" x2="145.0000" y2="178.5000"/>
<line x1="197.0000" y1="178.5000" x2="171.0000" y2="178.5000"/>
<line x1="171.0000" y1="190.5000" x2="149.2000" y2="190.5000"/>
<line x1="192.8000" y1="190.5000" x2="171.0000" y2="190.5000"/>
<line x1="171.0000" y1="195.5000" x2="155.6000" y2="195.5000"/>
<line x1="186.4000" y1="195.5000" x2="171.0000" y2="195.5000"/>
<line x1="171.0000" y1="178.5000" x2="171.0000" y2="154.5000"/>
<line x1="171.0000" y1="190.5000" x2="171.0000" y2="178.5000"/>
<line x1="171.0000" y1="195.5000" x2="171.0000" y2="190.5000"/>
<line x1="145.0000" y1="178.5000" x2="145.0000" y2="154.5000"/>
<line x1="197.0000" y1="178.5000" x2="197.0000" y2="154.5000"/>
<line x1="149.2000" y1="190.5000" x2="149.2000" y2="178.5000"/>
<line x1="192.8000" y1="190.5000" x2="192.8000" y2="178.5000"/>
<line x1="155.6000" y1="195.5000" x2="155.6000" y2="190.5000"/>
<line x1="186.4000" y1="195.5000" x2="186.4000" y2="190.5000"/>
<line x1="287.0000" y1="178.5000" x2="235.0000" y2="178.5000"/>
<line x1="282.8000" y1="190.5000" x2="239.2000" y2="190.5000"/>
</g>
<g id="SECTION" stroke="#101418" stroke-width="0.70" fill="none" stroke-linecap="round">
<line x1="235.0000" y1="178.5000" x2="235.0000" y2="154.5000"/>
<line x1="235.0000" y1="154.5000" x2="287.0000" y2="154.5000"/>
<line x1="287.0000" y1="178.5000" x2="287.0000" y2="154.5000"/>
<line x1="282.8000" y1="178.5000" x2="287.0000" y2="178.5000"/>
<line x1="282.8000" y1="190.5000" x2="282.8000" y2="178.5000"/>
<line x1="279.6000" y1="190.5000" x2="282.8000" y2="190.5000"/>
<line x1="279.6000" y1="190.5000" x2="279.6000" y2="181.5100"/>
<line x1="242.4000" y1="181.5100" x2="279.6000" y2="181.5100"/>
<line x1="242.4000" y1="190.5000" x2="242.4000" y2="181.5100"/>
<line x1="239.2000" y1="190.5000" x2="242.4000" y2="190.5000"/>
<line x1="239.2000" y1="190.5000" x2="239.2000" y2="178.5000"/>
<line x1="235.0000" y1="178.5000" x2="239.2000" y2="178.5000"/>
<line x1="245.6000" y1="195.5000" x2="245.6000" y2="190.5000"/>
<line x1="245.6000" y1="190.5000" x2="276.4000" y2="190.5000"/>
<line x1="276.4000" y1="195.5000" x2="276.4000" y2="190.5000"/>
<line x1="245.6000" y1="195.5000" x2="276.4000" y2="195.5000"/>
</g>
<g id="HIDDEN" stroke="#8892a0" stroke-width="0.25" fill="none" stroke-linecap="round" stroke-dasharray="2.4 1.2">
<line x1="59.2000" y1="178.5000" x2="102.8000" y2="178.5000"/>
<line x1="102.8000" y1="178.5000" x2="59.2000" y2="178.5000"/>
<line x1="62.4000" y1="190.5000" x2="99.6000" y2="190.5000"/>
<line x1="99.6000" y1="190.5000" x2="62.4000" y2="190.5000"/>
<line x1="62.4000" y1="190.5000" x2="62.4000" y2="181.5100"/>
<line x1="62.4000" y1="181.5100" x2="99.6000" y2="181.5100"/>
<line x1="99.6000" y1="181.5100" x2="62.4000" y2="181.5100"/>
<line x1="65.6000" y1="190.5000" x2="96.4000" y2="190.5000"/>
<line x1="96.4000" y1="190.5000" x2="65.6000" y2="190.5000"/>
<line x1="99.6000" y1="190.5000" x2="99.6000" y2="181.5100"/>
<line x1="145.0000" y1="154.5000" x2="197.0000" y2="154.5000"/>
<line x1="145.0000" y1="178.5000" x2="197.0000" y2="178.5000"/>
<line x1="171.0000" y1="178.5000" x2="149.2000" y2="178.5000"/>
<line x1="149.2000" y1="178.5000" x2="192.8000" y2="178.5000"/>
<line x1="192.8000" y1="178.5000" x2="171.0000" y2="178.5000"/>
<line x1="149.2000" y1="190.5000" x2="192.8000" y2="190.5000"/>
<line x1="171.0000" y1="190.5000" x2="152.4000" y2="190.5000"/>
<line x1="152.4000" y1="190.5000" x2="189.6000" y2="190.5000"/>
<line x1="189.6000" y1="190.5000" x2="171.0000" y2="190.5000"/>
<line x1="171.0000" y1="181.5100" x2="152.4000" y2="181.5100"/>
<line x1="152.4000" y1="181.5100" x2="189.6000" y2="181.5100"/>
<line x1="189.6000" y1="181.5100" x2="171.0000" y2="181.5100"/>
<line x1="171.0000" y1="190.5000" x2="155.6000" y2="190.5000"/>
<line x1="155.6000" y1="190.5000" x2="186.4000" y2="190.5000"/>
<line x1="186.4000" y1="190.5000" x2="171.0000" y2="190.5000"/>
<line x1="155.6000" y1="195.5000" x2="186.4000" y2="195.5000"/>
<line x1="171.0000" y1="190.5000" x2="171.0000" y2="181.5100"/>
<line x1="152.4000" y1="190.5000" x2="152.4000" y2="181.5100"/>
<line x1="189.6000" y1="190.5000" x2="189.6000" y2="181.5100"/>
</g>
<g id="CENTER" stroke="#3a7d8c" stroke-width="0.18" fill="none" stroke-linecap="round" stroke-dasharray="7 1.4 1.4 1.4">
<line x1="60.8000" y1="65.5000" x2="79.8000" y2="65.5000"/>
<line x1="82.2000" y1="65.5000" x2="101.2000" y2="65.5000"/>
<line x1="81.0000" y1="85.7000" x2="81.0000" y2="66.7000"/>
<line x1="81.0000" y1="64.3000" x2="81.0000" y2="45.3000"/>
<line x1="361.5000" y1="237.5000" x2="383.7500" y2="237.5000"/>
</g>
<g id="DIM" stroke="#1d5c8a" stroke-width="0.18" fill="none" stroke-linecap="round">
<line x1="55.0000" y1="196.7000" x2="55.0000" y2="218.5000"/>
<line x1="107.0000" y1="196.7000" x2="107.0000" y2="218.5000"/>
<line x1="55.0000" y1="216.5000" x2="107.0000" y2="216.5000"/>
<polygon points="55.0000,216.5000 58.2000,217.1080 58.2000,215.8920" fill="#1d5c8a" stroke="none"/>
<polygon points="107.0000,216.5000 103.8000,215.8920 103.8000,217.1080" fill="#1d5c8a" stroke="none"/>
<line x1="53.8000" y1="195.5000" x2="32.0000" y2="195.5000"/>
<line x1="53.8000" y1="154.5000" x2="32.0000" y2="154.5000"/>
<line x1="34.0000" y1="195.5000" x2="34.0000" y2="154.5000"/>
<polygon points="34.0000,195.5000 34.6080,192.3000 33.3920,192.3000" fill="#1d5c8a" stroke="none"/>
<polygon points="34.0000,154.5000 33.3920,157.7000 34.6080,157.7000" fill="#1d5c8a" stroke="none"/>
<line x1="55.0000" y1="92.7000" x2="55.0000" y2="105.5000"/>
<line x1="107.0000" y1="92.7000" x2="107.0000" y2="105.5000"/>
<line x1="55.0000" y1="103.5000" x2="107.0000" y2="103.5000"/>
<polygon points="55.0000,103.5000 58.2000,104.1080 58.2000,102.8920" fill="#1d5c8a" stroke="none"/>
<polygon points="107.0000,103.5000 103.8000,102.8920 103.8000,104.1080" fill="#1d5c8a" stroke="none"/>
<line x1="53.8000" y1="91.5000" x2="41.0000" y2="91.5000"/>
<line x1="53.8000" y1="39.5000" x2="41.0000" y2="39.5000"/>
<line x1="43.0000" y1="91.5000" x2="43.0000" y2="39.5000"/>
<polygon points="43.0000,91.5000 43.6080,88.3000 42.3920,88.3000" fill="#1d5c8a" stroke="none"/>
<polygon points="43.0000,39.5000 42.3920,42.7000 43.6080,42.7000" fill="#1d5c8a" stroke="none"/>
<polygon points="92.4513,50.8430 94.9005,48.6957 93.9423,47.9470" fill="#1d5c8a" stroke="none"/>
<line x1="92.4513" y1="50.8430" x2="106.7824" y2="32.5000"/>
<line x1="106.7824" y1="32.5000" x2="111.7824" y2="32.5000"/>
<line x1="145.0000" y1="196.7000" x2="145.0000" y2="209.5000"/>
<line x1="197.0000" y1="196.7000" x2="197.0000" y2="209.5000"/>
<line x1="145.0000" y1="207.5000" x2="197.0000" y2="207.5000"/>
<polygon points="145.0000,207.5000 148.2000,208.1080 148.2000,206.8920" fill="#1d5c8a" stroke="none"/>
<polygon points="197.0000,207.5000 193.8000,206.8920 193.8000,208.1080" fill="#1d5c8a" stroke="none"/>
<line x1="143.8000" y1="195.5000" x2="131.0000" y2="195.5000"/>
<line x1="143.8000" y1="154.5000" x2="131.0000" y2="154.5000"/>
<line x1="133.0000" y1="195.5000" x2="133.0000" y2="154.5000"/>
<polygon points="133.0000,195.5000 133.6080,192.3000 132.3920,192.3000" fill="#1d5c8a" stroke="none"/>
<polygon points="133.0000,154.5000 132.3920,157.7000 133.6080,157.7000" fill="#1d5c8a" stroke="none"/>
<line x1="235.0000" y1="196.7000" x2="235.0000" y2="209.5000"/>
<line x1="287.0000" y1="196.7000" x2="287.0000" y2="209.5000"/>
<line x1="235.0000" y1="207.5000" x2="287.0000" y2="207.5000"/>
<polygon points="235.0000,207.5000 238.2000,208.1080 238.2000,206.8920" fill="#1d5c8a" stroke="none"/>
<polygon points="287.0000,207.5000 283.8000,206.8920 283.8000,208.1080" fill="#1d5c8a" stroke="none"/>
<line x1="233.8000" y1="195.5000" x2="221.0000" y2="195.5000"/>
<line x1="233.8000" y1="154.5000" x2="221.0000" y2="154.5000"/>
<line x1="223.0000" y1="195.5000" x2="223.0000" y2="154.5000"/>
<polygon points="223.0000,195.5000 223.6080,192.3000 222.3920,192.3000" fill="#1d5c8a" stroke="none"/>
<polygon points="223.0000,154.5000 222.3920,157.7000 223.6080,157.7000" fill="#1d5c8a" stroke="none"/>
<line x1="239.2000" y1="188.8333" x2="239.2000" y2="145.5000"/>
<line x1="242.4000" y1="188.8333" x2="242.4000" y2="145.5000"/>
<line x1="239.2000" y1="147.5000" x2="242.4000" y2="147.5000"/>
<polygon points="239.2000,147.5000 236.0000,146.8920 236.0000,148.1080" fill="#1d5c8a" stroke="none"/>
<polygon points="242.4000,147.5000 245.6000,148.1080 245.6000,146.8920" fill="#1d5c8a" stroke="none"/>
<line x1="242.4000" y1="147.5000" x2="252.0000" y2="147.5000"/>
<line x1="277.1500" y1="195.5000" x2="298.0000" y2="195.5000"/>
<line x1="277.1500" y1="190.5000" x2="298.0000" y2="190.5000"/>
<line x1="296.0000" y1="195.5000" x2="296.0000" y2="190.5000"/>
<polygon points="296.0000,195.5000 295.3920,198.7000 296.6080,198.7000" fill="#1d5c8a" stroke="none"/>
<polygon points="296.0000,190.5000 296.6080,187.3000 295.3920,187.3000" fill="#1d5c8a" stroke="none"/>
<line x1="296.0000" y1="190.5000" x2="296.0000" y2="180.9000"/>
</g>
<g id="TEXT" stroke="#12283c" stroke-width="0.00" fill="none" stroke-linecap="round">
<text x="81.0000" y="215.5000" font-size="2.500" fill="#12283c" text-anchor="middle" stroke="none">26.00</text>
<text x="33.0000" y="175.0000" font-size="2.500" fill="#12283c" text-anchor="middle" stroke="none" transform="rotate(-90.0000 33.0000 175.0000)">20.50</text>
<text x="81.0000" y="228.5000" font-size="4.000" fill="#12283c" text-anchor="middle" stroke="none">FRONT VIEW</text>
<line x1="69.0000" y1="230.1000" x2="93.0000" y2="230.1000"/>
<text x="81.0000" y="234.5000" font-size="2.400" fill="#12283c" text-anchor="middle" stroke="none">-X →   Z ↑</text>
<text x="81.0000" y="102.5000" font-size="2.500" fill="#12283c" text-anchor="middle" stroke="none">26.00</text>
<text x="42.0000" y="65.5000" font-size="2.500" fill="#12283c" text-anchor="middle" stroke="none" transform="rotate(-90.0000 42.0000 65.5000)">26.00</text>
<text x="112.5824" y="31.5000" font-size="2.500" fill="#12283c" text-anchor="start" stroke="none">Ø18.60 x 4.50 DP</text>
<text x="81.0000" y="115.5000" font-size="4.000" fill="#12283c" text-anchor="middle" stroke="none">TOP VIEW</text>
<line x1="71.4000" y1="117.1000" x2="90.6000" y2="117.1000"/>
<text x="81.0000" y="121.5000" font-size="2.400" fill="#12283c" text-anchor="middle" stroke="none">X →   Y ↑</text>
<text x="171.0000" y="206.5000" font-size="2.500" fill="#12283c" text-anchor="middle" stroke="none">26.00</text>
<text x="132.0000" y="175.0000" font-size="2.500" fill="#12283c" text-anchor="middle" stroke="none" transform="rotate(-90.0000 132.0000 175.0000)">20.50</text>
<text x="171.0000" y="219.5000" font-size="4.000" fill="#12283c" text-anchor="middle" stroke="none">RIGHT VIEW</text>
<line x1="159.0000" y1="221.1000" x2="183.0000" y2="221.1000"/>
<text x="171.0000" y="225.5000" font-size="2.400" fill="#12283c" text-anchor="middle" stroke="none">-Y →   Z ↑</text>
<text x="261.0000" y="206.5000" font-size="2.500" fill="#12283c" text-anchor="middle" stroke="none">26.00</text>
<text x="222.0000" y="175.0000" font-size="2.500" fill="#12283c" text-anchor="middle" stroke="none" transform="rotate(-90.0000 222.0000 175.0000)">20.50</text>
<text x="252.8000" y="147.1000" font-size="2.500" fill="#12283c" text-anchor="start" stroke="none">1.60 WALL</text>
<text x="295.0000" y="180.1000" font-size="2.500" fill="#12283c" text-anchor="start" stroke="none" transform="rotate(-90.0000 295.0000 180.1000)">2.50 WALL</text>
<text x="261.0000" y="216.0000" font-size="4.000" fill="#12283c" text-anchor="middle" stroke="none">SECTION A-A</text>
<line x1="247.8000" y1="217.6000" x2="274.2000" y2="217.6000"/>
<text x="76.0000" y="204.5000" font-size="4.000" fill="#12283c" text-anchor="middle" stroke="none" dominant-baseline="central">A</text>
<text x="76.0000" y="145.5000" font-size="4.000" fill="#12283c" text-anchor="middle" stroke="none" dominant-baseline="central">A</text>
<text x="334.0000" y="22.0000" font-size="3.000" fill="#12283c" text-anchor="start" stroke="none">NOTES</text>
<text x="334.0000" y="26.6000" font-size="2.400" fill="#12283c" text-anchor="start" stroke="none">1. ALL DIMENSIONS IN mm AND DEGREES. EVERY</text>
<text x="334.0000" y="30.3200" font-size="2.400" fill="#12283c" text-anchor="start" stroke="none">   DIMENSION AND EVERY HOLE CALLOUT WAS MEASURED</text>
<text x="334.0000" y="34.0400" font-size="2.400" fill="#12283c" text-anchor="start" stroke="none">   OFF THE SOLID.</text>
<text x="334.0000" y="37.7600" font-size="2.400" fill="#12283c" text-anchor="start" stroke="none">2. THINNEST WALL, WHOLE SOLID: 1.6000 mm, AT</text>
<text x="334.0000" y="41.4800" font-size="2.400" fill="#12283c" text-anchor="start" stroke="none">   X=-0.905 Y=10.861 Z=3.000 — MEASURED OVER THE</text>
<text x="334.0000" y="45.2000" font-size="2.400" fill="#12283c" text-anchor="start" stroke="none">   WHOLE SOLID BY RAY+EXACT AT 0.731 mm SAMPLE</text>
<text x="334.0000" y="48.9200" font-size="2.400" fill="#12283c" text-anchor="start" stroke="none">   SPACING (A FEATURE NARROWER THAN THAT CAN BE</text>
<text x="334.0000" y="52.6400" font-size="2.400" fill="#12283c" text-anchor="start" stroke="none">   MISSED). A RAY MINIMUM AT AN EDGE, A FILLET</text>
<text x="334.0000" y="56.3600" font-size="2.400" fill="#12283c" text-anchor="start" stroke="none">   RUN-OUT OR A CHAMFER TIP IS A REAL DISTANCE</text>
<text x="334.0000" y="60.0800" font-size="2.400" fill="#12283c" text-anchor="start" stroke="none">   THROUGH MATERIAL AND IS NOT A PRINTABLE WALL.</text>
<text x="334.0000" y="63.8000" font-size="2.400" fill="#12283c" text-anchor="start" stroke="none">3. GENERAL TOLERANCE: CANNOT DETERMINE — THIS PART</text>
<text x="334.0000" y="67.5200" font-size="2.400" fill="#12283c" text-anchor="start" stroke="none">   DECLARES NO PROCESS THIS REPO CAN READ.</text>
<text x="334.0000" y="71.2400" font-size="2.400" fill="#12283c" text-anchor="start" stroke="none">4. SECTION A-A AT X=0.00: THINNEST MATERIAL IN</text>
<text x="334.0000" y="74.9600" font-size="2.400" fill="#12283c" text-anchor="start" stroke="none">   THIS PLANE ONLY 1.60 mm, AT Y=-10.10, Z=0.23 —</text>
<text x="334.0000" y="78.6800" font-size="2.400" fill="#12283c" text-anchor="start" stroke="none">   A SCAN OF ONE CUT, NOT THE PART MINIMUM.</text>
<text x="226.5000" y="237.5000" font-size="6.000" fill="#12283c" text-anchor="start" stroke="none" dominant-baseline="central">MICRODUCK-JIG-PRESS-22-OUTER</text>
<text x="400.0000" y="242.0000" font-size="5.200" fill="#12283c" text-anchor="middle" stroke="none">A</text>
<text x="225.6000" y="251.1000" font-size="2.500" fill="#12283c" text-anchor="start" stroke="none">PLA</text>
<text x="289.6000" y="251.1000" font-size="2.500" fill="#12283c" text-anchor="start" stroke="none">-</text>
<text x="353.6000" y="251.1000" font-size="2.500" fill="#12283c" text-anchor="start" stroke="none">2:1</text>
<text x="225.6000" y="259.6000" font-size="2.500" fill="#12283c" text-anchor="start" stroke="none">-</text>
<text x="257.6000" y="259.6000" font-size="2.500" fill="#12283c" text-anchor="start" stroke="none">SEE NOTES</text>
<text x="289.6000" y="259.6000" font-size="2.500" fill="#12283c" text-anchor="start" stroke="none">AS PRINTED</text>
<text x="353.6000" y="259.6000" font-size="2.500" fill="#12283c" text-anchor="start" stroke="none">A3  1/1</text>
<text x="225.6000" y="268.1000" font-size="2.500" fill="#12283c" text-anchor="start" stroke="none">7.85 cm3</text>
<text x="289.6000" y="268.1000" font-size="2.500" fill="#12283c" text-anchor="start" stroke="none">9.7 g</text>
<text x="353.6000" y="268.1000" font-size="2.500" fill="#12283c" text-anchor="start" stroke="none">mm / deg</text>
<text x="225.6000" y="276.6000" font-size="2.500" fill="#12283c" text-anchor="start" stroke="none">26.00 x 26.00 x 20.50</text>
<text x="289.6000" y="276.6000" font-size="2.500" fill="#12283c" text-anchor="start" stroke="none">ce-cad  2026-09-02</text>
<text x="353.6000" y="276.6000" font-size="2.500" fill="#12283c" text-anchor="start" stroke="none">THIRD ANGLE</text>
<text x="225.6000" y="285.6000" font-size="2.600" fill="#12283c" text-anchor="start" stroke="none">tools/jigs.py</text>
<text x="12.5000" y="16.5000" font-size="4.200" fill="#12283c" text-anchor="start" stroke="none">microduck-jig-press-22-outer   SCALE 2:1   A3   THIRD ANGLE</text>
</g>
<g id="HATCH" stroke="#9aa4b2" stroke-width="0.15" fill="none" stroke-linecap="round">
<line x1="282.8000" y1="190.5000" x2="282.8000" y2="190.5000"/>
<line x1="279.6000" y1="189.4574" x2="282.8000" y2="186.2574"/>
<line x1="279.6000" y1="185.2147" x2="282.8000" y2="182.0147"/>
<line x1="286.3147" y1="178.5000" x2="287.0000" y2="177.8147"/>
<line x1="279.0621" y1="181.5100" x2="287.0000" y2="173.5721"/>
<line x1="274.8194" y1="181.5100" x2="287.0000" y2="169.3294"/>
<line x1="270.5768" y1="181.5100" x2="287.0000" y2="165.0868"/>
<line x1="266.3342" y1="181.5100" x2="287.0000" y2="160.8442"/>
<line x1="262.0915" y1="181.5100" x2="287.0000" y2="156.6015"/>
<line x1="257.8489" y1="181.5100" x2="284.8589" y2="154.5000"/>
<line x1="253.6062" y1="181.5100" x2="280.6162" y2="154.5000"/>
<line x1="240.3736" y1="190.5000" x2="242.4000" y2="188.4736"/>
<line x1="249.3636" y1="181.5100" x2="276.3736" y2="154.5000"/>
<line x1="239.2000" y1="187.4309" x2="242.4000" y2="184.2309"/>
<line x1="245.1209" y1="181.5100" x2="272.1309" y2="154.5000"/>
<line x1="239.2000" y1="183.1883" x2="267.8883" y2="154.5000"/>
<line x1="239.2000" y1="178.9457" x2="263.6457" y2="154.5000"/>
<line x1="235.4030" y1="178.5000" x2="259.4030" y2="154.5000"/>
<line x1="235.0000" y1="174.6604" x2="255.1604" y2="154.5000"/>
<line x1="235.0000" y1="170.4177" x2="250.9177" y2="154.5000"/>
<line x1="235.0000" y1="166.1751" x2="246.6751" y2="154.5000"/>
<line x1="235.0000" y1="161.9325" x2="242.4325" y2="154.5000"/>
<line x1="235.0000" y1="157.6898" x2="238.1898" y2="154.5000"/>
<line x1="276.4000" y1="195.5000" x2="276.4000" y2="195.5000"/>
<line x1="272.1574" y1="195.5000" x2="276.4000" y2="191.2574"/>
<line x1="267.9147" y1="195.5000" x2="272.9147" y2="190.5000"/>
<line x1="263.6721" y1="195.5000" x2="268.6721" y2="190.5000"/>
<line x1="259.4294" y1="195.5000" x2="264.4294" y2="190.5000"/>
<line x1="255.1868" y1="195.5000" x2="260.1868" y2="190.5000"/>
<line x1="250.9442" y1="195.5000" x2="255.9442" y2="190.5000"/>
<line x1="246.7015" y1="195.5000" x2="251.7015" y2="190.5000"/>
<line x1="245.6000" y1="192.3589" x2="247.4589" y2="190.5000"/>
</g>
<g id="CUT" stroke="#b3261e" stroke-width="0.60" fill="none" stroke-linecap="round" stroke-dasharray="11 2 2 2">
<line x1="81.0000" y1="204.5000" x2="81.0000" y2="190.5000"/>
<line x1="81.0000" y1="159.5000" x2="81.0000" y2="145.5000"/>
<line x1="81.0000" y1="204.5000" x2="90.0000" y2="204.5000"/>
<polygon points="90.0000,204.5000 85.8000,203.7020 85.8000,205.2980" fill="#b3261e" stroke="none"/>
<line x1="81.0000" y1="145.5000" x2="90.0000" y2="145.5000"/>
<polygon points="90.0000,145.5000 85.8000,144.7020 85.8000,146.2980" fill="#b3261e" stroke="none"/>
</g>
<g id="CUTTHIN" stroke="#b3261e" stroke-width="0.22" fill="none" stroke-linecap="round" stroke-dasharray="11 2 2 2">
<line x1="81.0000" y1="190.5000" x2="81.0000" y2="159.5000"/>
</g>
<g id="FRAME" stroke="#101418" stroke-width="0.70" fill="none" stroke-linecap="round">
<line x1="10.0000" y1="287.0000" x2="410.0000" y2="287.0000"/>
<line x1="410.0000" y1="287.0000" x2="410.0000" y2="10.0000"/>
<line x1="410.0000" y1="10.0000" x2="10.0000" y2="10.0000"/>
<line x1="10.0000" y1="10.0000" x2="10.0000" y2="287.0000"/>
<line x1="224.0000" y1="287.0000" x2="410.0000" y2="287.0000"/>
<line x1="410.0000" y1="287.0000" x2="410.0000" y2="231.0000"/>
<line x1="410.0000" y1="231.0000" x2="224.0000" y2="231.0000"/>
<line x1="224.0000" y1="231.0000" x2="224.0000" y2="287.0000"/>
</g>
<g id="TITLE" stroke="#101418" stroke-width="0.35" fill="none" stroke-linecap="round">
<line x1="5.0000" y1="292.0000" x2="415.0000" y2="292.0000"/>
<line x1="415.0000" y1="292.0000" x2="415.0000" y2="5.0000"/>
<line x1="415.0000" y1="5.0000" x2="5.0000" y2="5.0000"/>
<line x1="5.0000" y1="5.0000" x2="5.0000" y2="292.0000"/>
<text x="60.0000" y="7.5000" font-size="2.400" fill="#101418" text-anchor="middle" stroke="none" dominant-baseline="central">1</text>
<text x="60.0000" y="289.5000" font-size="2.400" fill="#101418" text-anchor="middle" stroke="none" dominant-baseline="central">1</text>
<text x="160.0000" y="7.5000" font-size="2.400" fill="#101418" text-anchor="middle" stroke="none" dominant-baseline="central">2</text>
<text x="160.0000" y="289.5000" font-size="2.400" fill="#101418" text-anchor="middle" stroke="none" dominant-baseline="central">2</text>
<line x1="110.0000" y1="292.0000" x2="110.0000" y2="287.0000"/>
<line x1="110.0000" y1="10.0000" x2="110.0000" y2="5.0000"/>
<text x="260.0000" y="7.5000" font-size="2.400" fill="#101418" text-anchor="middle" stroke="none" dominant-baseline="central">3</text>
<text x="260.0000" y="289.5000" font-size="2.400" fill="#101418" text-anchor="middle" stroke="none" dominant-baseline="central">3</text>
<line x1="210.0000" y1="292.0000" x2="210.0000" y2="287.0000"/>
<line x1="210.0000" y1="10.0000" x2="210.0000" y2="5.0000"/>
<text x="360.0000" y="7.5000" font-size="2.400" fill="#101418" text-anchor="middle" stroke="none" dominant-baseline="central">4</text>
<text x="360.0000" y="289.5000" font-size="2.400" fill="#101418" text-anchor="middle" stroke="none" dominant-baseline="central">4</text>
<line x1="310.0000" y1="292.0000" x2="310.0000" y2="287.0000"/>
<line x1="310.0000" y1="10.0000" x2="310.0000" y2="5.0000"/>
<text x="7.5000" y="240.8333" font-size="2.400" fill="#101418" text-anchor="middle" stroke="none" dominant-baseline="central">C</text>
<text x="412.5000" y="240.8333" font-size="2.400" fill="#101418" text-anchor="middle" stroke="none" dominant-baseline="central">C</text>
<text x="7.5000" y="148.5000" font-size="2.400" fill="#101418" text-anchor="middle" stroke="none" dominant-baseline="central">B</text>
<text x="412.5000" y="148.5000" font-size="2.400" fill="#101418" text-anchor="middle" stroke="none" dominant-baseline="central">B</text>
<line x1="5.0000" y1="194.6667" x2="10.0000" y2="194.6667"/>
<line x1="410.0000" y1="194.6667" x2="415.0000" y2="194.6667"/>
<text x="7.5000" y="56.1667" font-size="2.400" fill="#101418" text-anchor="middle" stroke="none" dominant-baseline="central">A</text>
<text x="412.5000" y="56.1667" font-size="2.400" fill="#101418" text-anchor="middle" stroke="none" dominant-baseline="central">A</text>
<line x1="5.0000" y1="102.3333" x2="10.0000" y2="102.3333"/>
<line x1="410.0000" y1="102.3333" x2="415.0000" y2="102.3333"/>
<line x1="224.0000" y1="244.0000" x2="410.0000" y2="244.0000"/>
<line x1="224.0000" y1="278.0000" x2="410.0000" y2="278.0000"/>
<line x1="224.0000" y1="269.5000" x2="410.0000" y2="269.5000"/>
<line x1="224.0000" y1="261.0000" x2="410.0000" y2="261.0000"/>
<line x1="224.0000" y1="252.5000" x2="410.0000" y2="252.5000"/>
<line x1="390.0000" y1="244.0000" x2="390.0000" y2="231.0000"/>
<text x="400.0000" y="233.4000" font-size="1.700" fill="#101418" text-anchor="middle" stroke="none">REV</text>
<line x1="360.0000" y1="244.0000" x2="360.0000" y2="231.0000"/>
<circle cx="366.5000" cy="237.5000" r="3.5000"/>
<circle cx="366.5000" cy="237.5000" r="1.9600"/>
<line x1="376.3000" y1="241.0000" x2="376.3000" y2="234.0000"/>
<line x1="376.3000" y1="234.0000" x2="382.2500" y2="235.5400"/>
<line x1="382.2500" y1="235.5400" x2="382.2500" y2="239.4600"/>
<line x1="382.2500" y1="239.4600" x2="376.3000" y2="241.0000"/>
<line x1="288.0000" y1="278.0000" x2="288.0000" y2="244.0000"/>
<line x1="352.0000" y1="278.0000" x2="352.0000" y2="244.0000"/>
<text x="225.6000" y="246.4000" font-size="1.700" fill="#101418" text-anchor="start" stroke="none">MATERIAL</text>
<text x="289.6000" y="246.4000" font-size="1.700" fill="#101418" text-anchor="start" stroke="none">PROCESS</text>
<text x="353.6000" y="246.4000" font-size="1.700" fill="#101418" text-anchor="start" stroke="none">SCALE</text>
<text x="225.6000" y="254.9000" font-size="1.700" fill="#101418" text-anchor="start" stroke="none">CATEGORY</text>
<text x="257.6000" y="254.9000" font-size="1.700" fill="#101418" text-anchor="start" stroke="none">GENERAL TOL</text>
<line x1="256.0000" y1="261.0000" x2="256.0000" y2="252.5000"/>
<text x="289.6000" y="254.9000" font-size="1.700" fill="#101418" text-anchor="start" stroke="none">FINISH</text>
<text x="353.6000" y="254.9000" font-size="1.700" fill="#101418" text-anchor="start" stroke="none">SHEET</text>
<text x="225.6000" y="263.4000" font-size="1.700" fill="#101418" text-anchor="start" stroke="none">VOLUME (MEASURED)</text>
<text x="289.6000" y="263.4000" font-size="1.700" fill="#101418" text-anchor="start" stroke="none">MASS (ASSUMES PLA)</text>
<text x="353.6000" y="263.4000" font-size="1.700" fill="#101418" text-anchor="start" stroke="none">UNITS</text>
<text x="225.6000" y="271.9000" font-size="1.700" fill="#101418" text-anchor="start" stroke="none">SIZE (BBOX, MEASURED)</text>
<text x="289.6000" y="271.9000" font-size="1.700" fill="#101418" text-anchor="start" stroke="none">DRAWN</text>
<text x="353.6000" y="271.9000" font-size="1.700" fill="#101418" text-anchor="start" stroke="none">PROJECTION</text>
<text x="225.6000" y="280.4000" font-size="1.700" fill="#101418" text-anchor="start" stroke="none">SOURCE (DESIGN FILE)</text>
</g>
</svg>
