DBRep_DrawableShape

CASCADE Topology V1, (c) Matra-Datavision
Locations 0
Curve2ds 218
1 0 0 1 0 
1 0 0 1 0 
1 34 0 0 -1 
1 0 0 0 1 
1 0 0 0 -1 
1 0 0 0 1 
1 0 -20 1 0 
1 0 0 1 0 
2 2 -18 1 0 -0 1 1
1 0 0.0099999999999997868 1 0 
2 32 -18 1 0 -0 1 1
1 0 0.0099999999999997868 1 0 
2 2 -2 1 0 -0 1 1
1 0 0.0099999999999997868 1 0 
2 24.5 -10 1 0 -0 1 8
1 0 3 1 0 
2 32 -2 1 0 -0 1 1
1 0 0.0099999999999997868 1 0 
1 0 0 1 0 
1 0 23 1 0 
8 6.8500000000000005 16.149999999999999
1 10.199999999999999 6.8499999999999996 0 1 
8 6.8500000000000005 16.149999999999999
1 -6.8500000000000005 1 1 0 
8 -15.699999999999999 -5.0999999999999979
1 5.1000000000000014 13.699999999999999 -1 0 
8 -15.699999999999999 -5.0999999999999979
1 -5.0999999999999979 -1 -1 -0 
8 6.8500000000000005 16.149999999999999
1 20.800000000000001 6.8499999999999996 0 1 
8 6.8500000000000005 16.149999999999999
1 -6.8500000000000005 1 1 0 
1 34 0 0 1 
1 0 0 1 0 
1 0 0 0 1 
1 0 0 1 0 
1 34 0 0 1 
1 0 20 1 0 
1 34 0 0 -1 
1 23 0 0 1 
1 0 0 0 1 
1 0 20 1 0 
1 0 0 0 -1 
1 23 0 0 1 
1 0 -20 1 0 
1 0 23 1 0 
8 6.8500000000000005 16.149999999999999
1 10.199999999999999 6.8499999999999996 0 1 
8 6.8500000000000005 16.149999999999999
1 -6.8500000000000005 4 1 0 
8 -15.699999999999999 -5.0999999999999979
1 5.1000000000000014 13.699999999999999 -1 0 
8 -15.699999999999999 -5.0999999999999979
1 -5.0999999999999979 -4 -1 -0 
8 6.8500000000000005 16.149999999999999
1 20.800000000000001 6.8499999999999996 0 1 
8 6.8500000000000005 16.149999999999999
1 -6.8500000000000005 4 1 0 
1 6.2831853071795862 -0 0 1 
1 0 -0 0 1 
1 0 4.5099999999999998 1 0 
2 0 0 1 0 -0 1 1
1 6.2831853071795862 -0 0 1 
1 0 -0 0 1 
1 0 4.5099999999999998 1 0 
2 0 0 1 0 -0 1 1
1 6.2831853071795862 -0 0 1 
1 0 -0 0 1 
1 0 4.5099999999999998 1 0 
2 0 0 1 0 -0 1 1
1 6.2831853071795862 -0 0 1 
1 0 -0 0 1 
1 0 0 1 0 
2 0 0 1 0 -0 1 8
1 6.2831853071795862 -0 0 1 
1 0 -0 0 1 
1 0 4.5099999999999998 1 0 
2 0 0 1 0 -0 1 1
8 5.0999999999999979 15.699999999999999
1 5.1000000000000014 -16 1 0 
8 5.0999999999999979 15.699999999999999
1 -5.0999999999999979 9.3000000000000007 1 0 
8 -12 -8
1 10.199999999999999 -8 0 1 
8 -12 -8
1 9.3000000000000007 -8 0 -1 
2 24.5 -10 1 0 -0 1 8
1 0 0.0099999999999997868 1 0 
8 5.0999999999999979 15.699999999999999
1 5.1000000000000014 -3.0099999999999998 1 0 
8 5.0999999999999979 15.699999999999999
1 -5.0999999999999979 9.3000000000000007 1 0 
8 -3.5099999999999998 -0.5
1 10.199999999999999 0.5 0 1 
8 -3.5099999999999998 -0.5
1 9.3000000000000007 0.5 0 -1 
2 2 -18 1 0 -0 1 1
1 0 3.5 1 0 
2 2 -2 1 0 -0 1 1
1 0 3.5 1 0 
1 0 0 0 -1 
1 0 0 0 1 
1 0 0 0 1 
1 0 4.0099999999999998 1 0 
1 10.600000000000001 0 0 -1 
1 0 0 0 1 
1 0 -4.0099999999999998 1 0 
1 0 0 1 0 
1 10.600000000000001 0 0 1 
1 0 4.0099999999999998 1 0 
8 -2.5 -1.4900000000000002
1 9.2899999999999991 5.5 0 1 
8 -2.5 -1.4900000000000002
1 -3.6999999999999993 5.5 0 -1 
8 -5.999999999062311e-07 0.9399999999999995
1 9.2899999999999991 3.9070457494778665 1 0 
8 -5.999999999062311e-07 0.9399999999999995
1 2.051609157924875 0 0 1 
8 -3.5099999999999998 -0.5
1 20.800000000000001 0.5 0 1 
8 -3.5099999999999998 -0.5
1 9.3000000000000007 0.5 0 -1 
8 -12 -8
1 20.800000000000001 -8 0 1 
8 -12 -8
1 9.3000000000000007 -8 0 -1 
2 32 -18 1 0 -0 1 1
1 0 3.5 1 0 
2 32 -2 1 0 -0 1 1
1 0 3.5 1 0 
1 0 0 0 -1 
1 0 0 0 1 
1 0 0 0 1 
1 0 0 1 0 
1 10.600000000000001 0 0 -1 
1 0 0 0 1 
1 0 0 1 0 
1 0 0 1 0 
8 -5.999999999062311e-07 0.9399999999999995
1 9.2899999999999991 1.0929542505221335 1 0 
8 -5.999999999062311e-07 0.9399999999999995
1 4.2315761492547113 0 0 1 
8 3 5
1 9.2899999999999991 -3 0 1 
8 3 5
1 -3.6999999999999993 -3 0 -1 
1 10.600000000000001 0 0 1 
1 0 0 1 0 
1 0 13 1 0 
2 0 0 1 0 -0 1 0.80000000000000004
1 0 13 1 0 
2 0 0 1 0 -0 1 0.80000000000000004
1 0 13 1 0 
2 0 0 1 0 -0 1 0.80000000000000004
2 0 -6 1 0 -0 1 0.80000000000000004
1 0 0.0099999999999997868 1 0 
2 -6 0 1 0 -0 1 0.80000000000000004
1 0 0.0099999999999997868 1 0 
2 6 0 1 0 -0 1 0.80000000000000004
1 0 0.0099999999999997868 1 0 
2 0 6 1 0 -0 1 0.80000000000000004
1 0 0.0099999999999997868 1 0 
1 0 13 1 0 
2 0 0 1 0 -0 1 0.80000000000000004
8 -5.999999999062311e-07 0.9399999999999995
1 9.0084973778708193 9.2899999999999991 0 1 
8 -5.999999999062311e-07 0.9399999999999995
1 3.9896547325712741 0 0 1 
8 -3.4500000000000011 0.84999999999999964
1 7.1500000000000004 9.2899999999999991 -1 0 
8 -3.4500000000000011 0.84999999999999964
1 -7.1500000000000004 -6 -1 0 
1 6.2831853071795862 -0 0 1 
1 0 -0 0 1 
1 0 0 1 0 
2 0 0 1 0 -0 1 8
8 -5.999999999062311e-07 0.9399999999999995
1 10.408997558469027 9.2899999999999991 0 1 
8 -5.999999999062311e-07 0.9399999999999995
1 2.0787328321268554 0 0 1 
1 0 3.0099999999999998 1 0 
2 0 0 1 0 -0 1 8
8 -3.4500000000000011 0.84999999999999964
1 7.1500000000000004 9.2899999999999991 -1 0 
8 -3.4500000000000011 0.84999999999999964
1 -7.1500000000000004 6.9900000000000002 -1 0 
1 6.2831853071795862 -0 0 1 
1 0 -0 0 1 
1 0 0 1 0 
2 0 0 1 0 -0 1 1
1 6.2831853071795862 -0 0 1 
1 0 -0 0 1 
1 0 0 1 0 
2 0 0 1 0 -0 1 1
1 6.2831853071795862 -0 0 1 
1 0 -0 0 1 
1 0 0 1 0 
2 0 0 1 0 -0 1 1
1 6.2831853071795862 -0 0 1 
1 0 -0 0 1 
1 0 0 1 0 
2 0 0 1 0 -0 1 1
1 6.2831853071795862 -0 0 1 
1 0 -0 0 1 
1 0 28 1 0 
2 0 0 1 0 -0 1 0.80000000000000004
1 6.2831853071795862 -0 0 1 
1 0 -0 0 1 
1 0 28 1 0 
2 0 0 1 0 -0 1 0.80000000000000004
1 6.2831853071795862 -0 0 1 
1 0 -0 0 1 
1 0 28 1 0 
2 0 0 1 0 -0 1 0.80000000000000004
1 6.2831853071795862 -0 0 1 
1 0 -0 0 1 
1 0 2.9099999999999997 1 0 
2 0 0 1 0 -0 1 0.80000000000000004
1 6.2831853071795862 -0 0 1 
1 0 -0 0 1 
1 0 2.9099999999999997 1 0 
2 0 0 1 0 -0 1 0.80000000000000004
1 6.2831853071795862 -0 0 1 
1 0 -0 0 1 
1 0 2.9099999999999997 1 0 
2 0 0 1 0 -0 1 0.80000000000000004
1 6.2831853071795862 -0 0 1 
1 0 -0 0 1 
1 0 2.9099999999999997 1 0 
2 0 0 1 0 -0 1 0.80000000000000004
1 6.2831853071795862 -0 0 1 
1 0 -0 0 1 
1 0 28 1 0 
2 0 0 1 0 -0 1 0.80000000000000004
2 0 -6 1 0 -0 1 0.80000000000000004
1 0 2.9000000000000004 1 0 
2 -6 0 1 0 -0 1 0.80000000000000004
1 0 2.9000000000000004 1 0 
2 6 0 1 0 -0 1 0.80000000000000004
1 0 2.9000000000000004 1 0 
2 0 6 1 0 -0 1 0.80000000000000004
1 0 2.9000000000000004 1 0 
1 6.2831853071795862 -0 0 1 
1 0 -0 0 1 
1 0 0 1 0 
2 0 0 1 0 -0 1 0.80000000000000004
1 6.2831853071795862 -0 0 1 
1 0 -0 0 1 
1 0 0 1 0 
2 0 0 1 0 -0 1 0.80000000000000004
1 6.2831853071795862 -0 0 1 
1 0 -0 0 1 
1 0 0 1 0 
2 0 0 1 0 -0 1 0.80000000000000004
1 6.2831853071795862 -0 0 1 
1 0 -0 0 1 
1 0 0 1 0 
2 0 0 1 0 -0 1 0.80000000000000004
Curves 109
1 -11.5 -10 -24.5 0 0 1 
1 -11.5 -10 9.5 -0 1 0 
1 -11.5 -10 -24.5 -0 1 0 
1 -11.5 10 -24.5 0 0 1 
2 -11.5 8 -22.5 1 0 0 -0 0 1 0 -1 0 1
2 -11.5 8 7.5 1 0 0 -0 0 1 0 -1 0 1
2 -11.5 -8 -22.5 1 0 0 -0 0 1 0 -1 0 1
2 -11.5 0 0 1 0 0 -0 0 1 0 -1 0 8
2 -11.5 -8 7.5 1 0 0 -0 0 1 0 -1 0 1
1 11.5 -10 -24.5 0 0 1 
1 -4.6500000000000004 -10 -14.300000000000001 1 0 -0 
1 2.1999999999999997 -10 -19.399999999999999 -0 0 -1 
1 -4.6500000000000004 -10 -3.6999999999999993 1 0 -0 
1 -11.5 -10 9.5 1 0 -0 
1 -11.5 -10 -24.5 1 0 -0 
1 -11.5 10 9.5 1 0 -0 
1 11.5 -10 9.5 -0 1 0 
1 -11.5 10 -24.5 1 0 -0 
1 11.5 -10 -24.5 -0 1 0 
1 11.5 10 -24.5 0 0 1 
1 -4.6500000000000004 10 -14.300000000000001 1 0 -0 
1 2.1999999999999997 10 -19.399999999999999 -0 0 -1 
1 -4.6500000000000004 10 -3.6999999999999993 1 0 -0 
1 -11.51 8 -21.5 1 0 0 
2 -7 8 -22.5 1 0 0 -0 0 1 0 -1 0 1
1 -11.51 8 8.5 1 0 0 
2 -7 8 7.5 1 0 0 -0 0 1 0 -1 0 1
1 -11.51 -8 -21.5 1 0 0 
2 -7 -8 -22.5 1 0 0 -0 0 1 0 -1 0 1
1 -14.5 1.9594348786357651e-15 8 1 0 0 
2 -14.5 0 0 1 0 0 -0 0 1 0 -1 0 8
1 -11.51 -8 8.5 1 0 0 
2 -7 -8 7.5 1 0 0 -0 0 1 0 -1 0 1
1 11.5 6 -19.399999999999999 0 0 1 
1 11.5 -2 -14.300000000000001 0 -1 0 
2 11.5 0 0 1 0 0 -0 0 1 0 -1 0 8
1 11.5 -6.9900000000000002 -19.399999999999999 0 0 1 
1 11.5 -10.5 -14.300000000000001 0 -1 0 
2 11.5 8 -22.5 1 0 0 -0 0 1 0 -1 0 1
2 11.5 -8 -22.5 1 0 0 -0 0 1 0 -1 0 1
1 2.2000000000000002 -11 -14.300000000000001 -0 1 0 
1 2.2000000000000002 -6.9900000000000002 -14.300000000000001 1 0 -0 
1 2.2000000000000002 -11 -3.6999999999999993 -0 1 0 
1 2.2000000000000002 -6.9900000000000002 -14.300000000000001 0 0 1 
1 2.2000000000000002 -6.9900000000000002 -3.6999999999999993 1 0 -0 
1 11.489999999999998 -5.5 -3.6999999999999993 0 1 0 
1 11.49 -7.0929542505221335 -3.6999999999999993 1 0 0 
1 11.5 -10.5 -3.6999999999999993 0 -1 0 
1 11.5 -2 -3.6999999999999993 0 -1 0 
2 11.5 8 7.5 1 0 0 -0 0 1 0 -1 0 1
2 11.5 -8 7.5 1 0 0 -0 0 1 0 -1 0 1
1 2.2000000000000002 6 -14.300000000000001 -0 1 0 
1 2.2000000000000002 6 -14.300000000000001 1 0 -0 
1 2.2000000000000002 6 -3.6999999999999993 -0 1 0 
1 2.2000000000000002 6 -14.300000000000001 0 0 1 
1 11.49 7.0929542505221335 -3.6999999999999993 1 0 0 
1 11.489999999999998 3 -3.6999999999999993 0 1 0 
1 2.2000000000000002 6 -3.6999999999999993 1 0 -0 
2 -7 8 -22.5 1 0 0 -0 0 1 0 -1 0 0.80000000000000004
2 -7 8 7.5 1 0 0 -0 0 1 0 -1 0 0.80000000000000004
2 -7 -8 -22.5 1 0 0 -0 0 1 0 -1 0 0.80000000000000004
2 -14.5 6 0 1 0 0 -0 0 1 0 -1 0 0.80000000000000004
2 -14.5 0 -6 1 0 0 -0 0 1 0 -1 0 0.80000000000000004
2 -14.5 0 6 1 0 0 -0 0 1 0 -1 0 0.80000000000000004
2 -14.5 -6 0 1 0 0 -0 0 1 0 -1 0 0.80000000000000004
2 -7 -8 7.5 1 0 0 -0 0 1 0 -1 0 0.80000000000000004
1 11.49 6 -5.2915026221291814 1 0 0 
1 11.489999999999998 6 -7.1500000000000004 0 0 -1 
1 11.49 1.9594348786357651e-15 8 1 0 0 
2 11.49 0 0 1 0 0 -0 0 1 0 -1 0 8
1 11.49 -6.9900000000000002 -3.8910024415309734 1 0 0 
2 14.5 0 0 1 0 0 -0 0 1 0 -1 0 8
1 11.489999999999998 -6.9900000000000002 -7.1500000000000004 0 0 -1 
1 8 8 -21.5 1 0 0 
2 8 8 -22.5 1 0 0 -0 0 1 0 -1 0 1
1 8 -8 -21.5 1 0 0 
2 8 -8 -22.5 1 0 0 -0 0 1 0 -1 0 1
1 8 8 8.5 1 0 0 
2 8 8 7.5 1 0 0 -0 0 1 0 -1 0 1
1 8 -8 8.5 1 0 0 
2 8 -8 7.5 1 0 0 -0 0 1 0 -1 0 1
1 -20 8 -21.699999999999999 1 0 0 
2 8 8 -22.5 1 0 0 -0 0 1 0 -1 0 0.80000000000000004
1 -20 8 8.3000000000000007 1 0 0 
2 8 8 7.5 1 0 0 -0 0 1 0 -1 0 0.80000000000000004
1 -20 -8 -21.699999999999999 1 0 0 
2 8 -8 -22.5 1 0 0 -0 0 1 0 -1 0 0.80000000000000004
1 -14.51 6 0.80000000000000004 1 0 0 
2 -11.6 6 0 1 0 0 -0 0 1 0 -1 0 0.80000000000000004
1 -14.51 1.9594348786357628e-16 -5.2000000000000002 1 0 0 
2 -11.6 0 -6 1 0 0 -0 0 1 0 -1 0 0.80000000000000004
1 -14.51 1.9594348786357647e-16 6.7999999999999998 1 0 0 
2 -11.6 0 6 1 0 0 -0 0 1 0 -1 0 0.80000000000000004
1 -14.51 -6 0.80000000000000004 1 0 0 
2 -11.6 -6 0 1 0 0 -0 0 1 0 -1 0 0.80000000000000004
1 -20 -8 8.3000000000000007 1 0 0 
2 8 -8 7.5 1 0 0 -0 0 1 0 -1 0 0.80000000000000004
2 14.5 6 0 1 0 0 -0 0 1 0 -1 0 0.80000000000000004
2 14.5 0 -6 1 0 0 -0 0 1 0 -1 0 0.80000000000000004
2 14.5 0 6 1 0 0 -0 0 1 0 -1 0 0.80000000000000004
2 14.5 -6 0 1 0 0 -0 0 1 0 -1 0 0.80000000000000004
1 11.6 6 0.80000000000000004 1 0 0 
2 11.6 6 0 1 0 0 -0 0 1 0 -1 0 0.80000000000000004
1 11.6 1.9594348786357628e-16 -5.2000000000000002 1 0 0 
2 11.6 0 -6 1 0 0 -0 0 1 0 -1 0 0.80000000000000004
1 11.6 1.9594348786357647e-16 6.7999999999999998 1 0 0 
2 11.6 0 6 1 0 0 -0 0 1 0 -1 0 0.80000000000000004
1 11.6 -6 0.80000000000000004 1 0 0 
2 11.6 -6 0 1 0 0 -0 0 1 0 -1 0 0.80000000000000004
Polygon3D 0
PolygonOnTriangulations 0
Surfaces 55
1 -11.5 -10 -24.5 1 0 -0 0 0 1 0 -1 0 
1 -11.5 -10 -24.5 -0 1 0 0 0 1 1 0 -0 
1 -11.5 -10 9.5 0 0 1 1 0 -0 -0 1 0 
1 -11.5 -10 -24.5 0 0 1 1 0 -0 -0 1 0 
1 -11.5 10 -24.5 -0 1 0 0 0 1 1 0 -0 
2 -11.51 8 -22.5 1 0 0 -0 0 1 0 -1 0 1
2 -11.51 8 7.5 1 0 0 -0 0 1 0 -1 0 1
2 -11.51 -8 -22.5 1 0 0 -0 0 1 0 -1 0 1
2 -14.5 0 0 1 0 0 -0 0 1 0 -1 0 8
2 -11.51 -8 7.5 1 0 0 -0 0 1 0 -1 0 1
1 11.5 -10 -24.5 1 0 -0 0 0 1 0 -1 0 
1 2.2000000000000002 -11 -14.300000000000001 0 0 1 1 0 -0 -0 1 0 
1 2.2000000000000002 -11 -14.300000000000001 1 0 -0 0 0 1 0 -1 0 
1 2.2000000000000002 -11 -3.6999999999999993 0 0 1 1 0 -0 -0 1 0 
1 2.2000000000000002 6 -14.300000000000001 0 0 1 1 0 -0 -0 1 0 
1 2.2000000000000002 6 -14.300000000000001 1 0 -0 0 0 1 0 -1 0 
1 2.2000000000000002 6 -3.6999999999999993 0 0 1 1 0 -0 -0 1 0 
1 -7 8 -22.5 1 0 0 -0 0 1 0 -1 0 
1 -7 8 7.5 1 0 0 -0 0 1 0 -1 0 
1 -7 -8 -22.5 1 0 0 -0 0 1 0 -1 0 
1 -14.5 0 0 1 0 0 -0 0 1 0 -1 0 
1 -7 -8 7.5 1 0 0 -0 0 1 0 -1 0 
1 2.2000000000000002 6 -14.300000000000001 -0 1 0 0 0 1 1 0 -0 
2 11.49 0 0 1 0 0 -0 0 1 0 -1 0 8
1 2.2000000000000002 -6.9900000000000002 -14.300000000000001 -0 1 0 0 0 1 1 0 -0 
2 8 8 -22.5 1 0 0 -0 0 1 0 -1 0 1
2 8 -8 -22.5 1 0 0 -0 0 1 0 -1 0 1
1 11.49 0 0 1 0 0 -0 0 1 0 -1 0 
2 8 8 7.5 1 0 0 -0 0 1 0 -1 0 1
2 8 -8 7.5 1 0 0 -0 0 1 0 -1 0 1
2 -20 8 -22.5 1 0 0 -0 0 1 0 -1 0 0.80000000000000004
2 -20 8 7.5 1 0 0 -0 0 1 0 -1 0 0.80000000000000004
2 -20 -8 -22.5 1 0 0 -0 0 1 0 -1 0 0.80000000000000004
2 -14.51 6 0 1 0 0 -0 0 1 0 -1 0 0.80000000000000004
2 -14.51 0 -6 1 0 0 -0 0 1 0 -1 0 0.80000000000000004
2 -14.51 0 6 1 0 0 -0 0 1 0 -1 0 0.80000000000000004
2 -14.51 -6 0 1 0 0 -0 0 1 0 -1 0 0.80000000000000004
2 -20 -8 7.5 1 0 0 -0 0 1 0 -1 0 0.80000000000000004
1 14.5 0 0 1 0 0 -0 0 1 0 -1 0 
1 8 8 -22.5 1 0 0 -0 0 1 0 -1 0 
1 8 -8 -22.5 1 0 0 -0 0 1 0 -1 0 
1 8 8 7.5 1 0 0 -0 0 1 0 -1 0 
1 8 -8 7.5 1 0 0 -0 0 1 0 -1 0 
1 -11.6 6 0 1 0 0 -0 0 1 0 -1 0 
1 -11.6 0 -6 1 0 0 -0 0 1 0 -1 0 
1 -11.6 0 6 1 0 0 -0 0 1 0 -1 0 
1 -11.6 -6 0 1 0 0 -0 0 1 0 -1 0 
2 11.6 6 0 1 0 0 -0 0 1 0 -1 0 0.80000000000000004
2 11.6 0 -6 1 0 0 -0 0 1 0 -1 0 0.80000000000000004
2 11.6 0 6 1 0 0 -0 0 1 0 -1 0 0.80000000000000004
2 11.6 -6 0 1 0 0 -0 0 1 0 -1 0 0.80000000000000004
1 11.6 6 0 1 0 0 -0 0 1 0 -1 0 
1 11.6 0 -6 1 0 0 -0 0 1 0 -1 0 
1 11.6 0 6 1 0 0 -0 0 1 0 -1 0 
1 11.6 -6 0 1 0 0 -0 0 1 0 -1 0 
Triangulations 0

TShapes 332
Ve
1e-07
-11.5 -10 9.5
0 0

0101101
*
Ve
1e-07
-11.5 -10 -24.5
0 0

0101101
*
Ed
 1e-07 1 1 0
1  1 0 0 34
2  1 1 0 0 34
2  2 2 0 0 34
0

0101000
-332 0 +331 0 *
Ve
1e-07
-11.5 10 9.5
0 0

0101101
*
Ed
 1e-07 1 1 0
1  2 0 0 20
2  3 1 0 0 20
2  4 3 0 0 20
0

0101000
-329 0 +332 0 *
Ve
1e-07
-11.5 10 -24.5
0 0

0101101
*
Ed
 1e-07 1 1 0
1  3 0 0 20
2  5 1 0 0 20
2  6 4 0 0 20
0

0101000
-327 0 +331 0 *
Ed
 1e-07 1 1 0
1  4 0 0 34
2  7 1 0 0 34
2  8 5 0 0 34
0

0101000
-329 0 +327 0 *
Wi

0101100
-330 0 -328 0 +326 0 +325 0 *
Ve
1e-07
-11.5 8 -21.5
0 0

0101101
*
Ed
 1e-07 1 1 0
1  5 0 0 6.28318530717959
2  9 1 0 0 6.28318530717959
2  10 6 0 0 6.28318530717959
0

0101100
+323 0 -323 0 *
Wi

0101100
-322 0 *
Ve
1e-07
-11.5 8 8.5
0 0

0101101
*
Ed
 1e-07 1 1 0
1  6 0 0 6.28318530717959
2  11 1 0 0 6.28318530717959
2  12 7 0 0 6.28318530717959
0

0101100
+320 0 -320 0 *
Wi

0101100
-319 0 *
Ve
1e-07
-11.5 -8 -21.5
0 0

0101101
*
Ed
 1e-07 1 1 0
1  7 0 0 6.28318530717959
2  13 1 0 0 6.28318530717959
2  14 8 0 0 6.28318530717959
0

0101100
+317 0 -317 0 *
Wi

0101100
-316 0 *
Ve
1.00000001959435e-07
-11.5 1.95943487863577e-15 8
0 0

0101101
*
Ed
 1e-07 1 1 0
1  8 0 0 6.28318530717959
2  15 1 0 0 6.28318530717959
2  16 9 0 0 6.28318530717959
0

0101100
+314 0 -314 0 *
Wi

0101100
-313 0 *
Ve
1e-07
-11.5 -8 8.5
0 0

0101101
*
Ed
 1e-07 1 1 0
1  9 0 0 6.28318530717959
2  17 1 0 0 6.28318530717959
2  18 10 0 0 6.28318530717959
0

0101100
+311 0 -311 0 *
Wi

0101100
-310 0 *
Fa
0  1e-07 1 0

0101000
+324 0 +321 0 +318 0 +315 0 +312 0 +309 0 *
Ve
1e-07
11.5 -10 -24.5
0 0

0101101
*
Ve
1.50000001776357e-07
11.5 -10 -14.3
0 0

0101101
*
Ed
 1e-07 1 1 0
1  10 0 0 10.2
2  19 11 0 0 10.2
2  20 2 0 0 10.2
0

0101000
+307 0 -306 0 *
Ve
1.50000000444089e-07
2.2 -10 -14.3
0 0

0101101
*
Ed
 1.5e-07 1 1 0
1  11 0 6.85 16.15
2  21 2 0 6.85 16.15
2  22 12 0 6.85 16.15
0

0101000
+304 0 -306 0 *
Ve
1.50000000444089e-07
2.2 -10 -3.7
0 0

0101101
*
Ed
 1.5e-07 1 1 0
1  12 0 -15.7 -5.1
2  23 2 0 -15.7 -5.1
2  24 13 0 -15.7 -5.1
0

0101000
+302 0 -304 0 *
Ve
1.50000001776357e-07
11.5 -10 -3.7
0 0

0101101
*
Ed
 1.5e-07 1 1 0
1  13 0 6.85 16.15
2  25 2 0 6.85 16.15
2  26 14 0 6.85 16.15
0

0101000
+302 0 -300 0 *
Ve
1e-07
11.5 -10 9.5
0 0

0101101
*
Ed
 1e-07 1 1 0
1  10 0 20.8 34
2  19 11 0 20.8 34
2  20 2 0 20.8 34
0

0101000
+300 0 -298 0 *
Ed
 1e-07 1 1 0
1  14 0 0 23
2  27 2 0 0 23
2  28 3 0 0 23
0

0101000
-298 0 +332 0 *
Ed
 1e-07 1 1 0
1  15 0 0 23
2  29 2 0 0 23
2  30 4 0 0 23
0

0101000
-307 0 +331 0 *
Wi

0101100
-305 0 +303 0 +301 0 -299 0 -297 0 +296 0 +330 0 -295 0 *
Fa
0  1e-07 2 0

0101000
+294 0 *
Ve
1e-07
11.5 10 9.5
0 0

0101101
*
Ed
 1e-07 1 1 0
1  16 0 0 23
2  31 5 0 0 23
2  32 3 0 0 23
0

0101000
-292 0 +329 0 *
Ed
 1e-07 1 1 0
1  17 0 0 20
2  33 11 0 0 20
2  34 3 0 0 20
0

0101000
-292 0 +298 0 *
Wi

0101100
-328 0 -291 0 +290 0 +296 0 *
Fa
0  1e-07 3 0

0111000
+289 0 *
Ve
1e-07
11.5 10 -24.5
0 0

0101101
*
Ed
 1e-07 1 1 0
1  18 0 0 23
2  35 5 0 0 23
2  36 4 0 0 23
0

0101000
-287 0 +327 0 *
Ed
 1e-07 1 1 0
1  19 0 0 20
2  37 11 0 0 20
2  38 4 0 0 20
0

0101000
-287 0 +307 0 *
Wi

0101100
-326 0 -286 0 +285 0 +295 0 *
Fa
0  1e-07 4 0

0111000
+284 0 *
Ve
1.50000001776357e-07
11.5 10 -14.3
0 0

0101101
*
Ed
 1e-07 1 1 0
1  20 0 0 10.2
2  39 11 0 0 10.2
2  40 5 0 0 10.2
0

0101000
+287 0 -282 0 *
Ve
1.50000000444089e-07
2.2 10 -14.3
0 0

0101101
*
Ed
 1.5e-07 1 1 0
1  21 0 6.85 16.15
2  41 5 0 6.85 16.15
2  42 15 0 6.85 16.15
0

0101000
+280 0 -282 0 *
Ve
1.50000000444089e-07
2.2 10 -3.7
0 0

0101101
*
Ed
 1.5e-07 1 1 0
1  22 0 -15.7 -5.1
2  43 5 0 -15.7 -5.1
2  44 16 0 -15.7 -5.1
0

0101000
+278 0 -280 0 *
Ve
1.50000001776357e-07
11.5 10 -3.7
0 0

0101101
*
Ed
 1.5e-07 1 1 0
1  23 0 6.85 16.15
2  45 5 0 6.85 16.15
2  46 17 0 6.85 16.15
0

0101000
+278 0 -276 0 *
Ed
 1e-07 1 1 0
1  20 0 20.8 34
2  39 11 0 20.8 34
2  40 5 0 20.8 34
0

0101000
+276 0 -292 0 *
Wi

0101100
-281 0 +279 0 +277 0 -275 0 -274 0 +291 0 +325 0 -286 0 *
Fa
0  1e-07 5 0

0101000
+273 0 *
Ve
1e-07
-7 8 -21.5
0 0

0101101
*
Ed
 1e-07 1 1 0
1  24 0 0.00999999999999979 4.51
3  47 48CN 6 0 0.00999999999999979 4.51
0

0101000
+323 0 -271 0 *
Ed
 1e-07 1 1 0
1  25 0 0 6.28318530717959
2  49 6 0 0 6.28318530717959
2  50 18 0 0 6.28318530717959
0

0101000
+271 0 -271 0 *
Wi

0101100
+270 0 +322 0 -270 0 -269 0 *
Fa
0  1e-07 6 0

0101000
+268 0 *
Ve
1e-07
-7 8 8.5
0 0

0101101
*
Ed
 1e-07 1 1 0
1  26 0 0.00999999999999979 4.51
3  51 52CN 7 0 0.00999999999999979 4.51
0

0101000
+320 0 -266 0 *
Ed
 1e-07 1 1 0
1  27 0 0 6.28318530717959
2  53 7 0 0 6.28318530717959
2  54 19 0 0 6.28318530717959
0

0101000
+266 0 -266 0 *
Wi

0101100
+265 0 +319 0 -265 0 -264 0 *
Fa
0  1e-07 7 0

0101000
+263 0 *
Ve
1e-07
-7 -8 -21.5
0 0

0101101
*
Ed
 1e-07 1 1 0
1  28 0 0.00999999999999979 4.51
3  55 56CN 8 0 0.00999999999999979 4.51
0

0101000
+317 0 -261 0 *
Ed
 1e-07 1 1 0
1  29 0 0 6.28318530717959
2  57 8 0 0 6.28318530717959
2  58 20 0 0 6.28318530717959
0

0101000
+261 0 -261 0 *
Wi

0101100
+260 0 +316 0 -260 0 -259 0 *
Fa
0  1e-07 8 0

0101000
+258 0 *
Ve
1e-07
-14.5 1.95943487863577e-15 8
0 0

0101101
*
Ed
 1e-07 1 1 0
1  30 0 0 3
3  59 60CN 9 0 0 3
0

0101000
+256 0 -314 0 *
Ed
 1e-07 1 1 0
1  31 0 0 6.28318530717959
2  61 9 0 0 6.28318530717959
2  62 21 0 0 6.28318530717959
0

0101000
+256 0 -256 0 *
Wi

0101100
-313 0 +255 0 +254 0 -255 0 *
Fa
0  1e-07 9 0

0101000
+253 0 *
Ve
1e-07
-7 -8 8.5
0 0

0101101
*
Ed
 1e-07 1 1 0
1  32 0 0.00999999999999979 4.51
3  63 64CN 10 0 0.00999999999999979 4.51
0

0101000
+311 0 -251 0 *
Ed
 1e-07 1 1 0
1  33 0 0 6.28318530717959
2  65 10 0 0 6.28318530717959
2  66 22 0 0 6.28318530717959
0

0101000
+251 0 -251 0 *
Wi

0101100
+250 0 +310 0 -250 0 -249 0 *
Fa
0  1e-07 10 0

0101000
+248 0 *
Ve
1.5e-07
11.5 6 -14.3
0 0

0101101
*
Ve
1.5e-07
11.5 6 -5.29150262212918
0 0

0101101
*
Ed
 1.5e-07 1 1 0
1  34 0 5.1 14.1084973778708
2  67 11 0 5.1 14.1084973778708
2  68 23 0 5.1 14.1084973778708
0

0101000
+246 0 -245 0 *
Ed
 1.5e-07 1 1 0
1  35 0 -12 -8
2  69 11 0 -12 -8
2  70 15 0 -12 -8
0

0101000
+282 0 -246 0 *
Ve
1.5e-07
11.5 -6.99 -3.89100244153097
0 0

0101101
*
Ed
 1e-07 1 1 0
1  36 0 2.07873283212686 3.98965473257127
2  71 11 0 2.07873283212686 3.98965473257127
2  72 24 0 2.07873283212686 3.98965473257127
0

0101000
+242 0 -245 0 *
Ve
1.5e-07
11.5 -6.99 -14.3
0 0

0101101
*
Ed
 1.5e-07 1 1 0
1  37 0 5.1 15.508997558469
2  73 11 0 5.1 15.508997558469
2  74 25 0 5.1 15.508997558469
0

0101000
+240 0 -242 0 *
Ed
 1.5e-07 1 1 0
1  38 0 -3.51 -0.5
2  75 11 0 -3.51 -0.5
2  76 12 0 -3.51 -0.5
0

0101000
+240 0 -306 0 *
Wi

0101100
+244 0 +243 0 -241 0 +281 0 -239 0 +285 0 +238 0 -305 0 *
Ve
1e-07
11.5 8 -21.5
0 0

0101101
*
Ed
 1e-07 1 1 0
1  39 0 0 6.28318530717959
2  77 11 0 0 6.28318530717959
2  78 26 0 0 6.28318530717959
0

0101100
+236 0 -236 0 *
Wi

0101100
-235 0 *
Ve
1e-07
11.5 -8 -21.5
0 0

0101101
*
Ed
 1e-07 1 1 0
1  40 0 0 6.28318530717959
2  79 11 0 0 6.28318530717959
2  80 27 0 0 6.28318530717959
0

0101100
+233 0 -233 0 *
Wi

0101100
-232 0 *
Fa
0  1e-07 11 0

0101000
+237 0 +234 0 +231 0 *
Ve
1e-07
2.2 -6.99 -14.3
0 0

0101101
*
Ed
 1e-07 1 1 0
1  41 0 1 4.01
2  81 13 0 1 4.01
2  82 12 0 1 4.01
0

0101000
+304 0 -229 0 *
Ed
 1e-07 1 1 0
1  42 0 0 9.3
2  83 25 0 0 9.3
2  84 12 0 0 9.3
0

0101000
+229 0 -240 0 *
Wi

0101100
-228 0 -227 0 -238 0 +303 0 *
Fa
0  1e-07 12 0

0101000
+226 0 *
Ve
1e-07
2.2 -6.99 -3.7
0 0

0101101
*
Ed
 1e-07 1 1 0
1  43 0 1 4.01
2  85 13 0 1 4.01
2  86 14 0 1 4.01
0

0101000
+302 0 -224 0 *
Ed
 1e-07 1 1 0
1  44 0 0 10.6
2  87 13 0 0 10.6
2  88 25 0 0 10.6
0

0101000
-224 0 +229 0 *
Wi

0101100
-223 0 +222 0 +228 0 +301 0 *
Fa
0  1e-07 13 0

0101000
+221 0 *
Ve
1.50000003552714e-07
11.49 -6.99 -3.7
0 0

0101101
*
Ed
 1e-07 1 1 0
1  45 0 0 9.29
2  89 25 0 0 9.29
2  90 14 0 0 9.29
0

0101000
+224 0 -219 0 *
Ve
1.50000001831027e-07
11.49 -7.09295425052213 -3.7
0 0

0101101
*
Ed
 1.5e-07 1 1 0
1  46 0 -1.59295425052213 -1.49
2  91 14 0 -1.59295425052213 -1.49
2  92 28 0 -1.59295425052213 -1.49
0

0101000
+217 0 -219 0 *
Ve
1.5e-07
11.5 -7.09295425052213 -3.7
0 0

0101101
*
Ed
 1e-07 1 1 0
1  47 0 0 0.00999999999999979
2  93 14 0 0 0.00999999999999979
2  94 24 0 0 0.00999999999999979
0

0101000
+217 0 -215 0 *
Ed
 1.5e-07 1 1 0
1  48 0 -3.40704574947787 -0.5
2  95 11 0 -3.40704574947787 -0.5
2  96 14 0 -3.40704574947787 -0.5
0

0101000
+215 0 -300 0 *
Wi

0101100
-223 0 -218 0 +216 0 -214 0 -213 0 +299 0 *
Fa
0  1e-07 14 0

0101000
+212 0 *
Ve
1.5e-07
11.5 7.09295425052213 -3.7
0 0

0101101
*
Ed
 1.5e-07 1 1 0
1  49 0 -12 -9.09295425052213
2  97 11 0 -12 -9.09295425052213
2  98 17 0 -12 -9.09295425052213
0

0101000
+276 0 -210 0 *
Ve
1.00000001959435e-07
11.5 1.95943487863577e-15 8
0 0

0101101
*
Ed
 1e-07 1 1 0
1  36 0 4.23157614925471 6.28318530717959
2  71 11 0 4.23157614925471 6.28318530717959
2  72 24 0 4.23157614925471 6.28318530717959
0

0101000
+210 0 -208 0 *
Ed
 1e-07 1 1 0
1  36 0 0 2.05160915792487
2  71 11 0 0 2.05160915792487
2  72 24 0 0 2.05160915792487
0

0101000
+208 0 -215 0 *
Wi

0101100
-209 0 +274 0 -207 0 -290 0 -206 0 -297 0 -213 0 *
Ve
1e-07
11.5 8 8.5
0 0

0101101
*
Ed
 1e-07 1 1 0
1  50 0 0 6.28318530717959
2  99 11 0 0 6.28318530717959
2  100 29 0 0 6.28318530717959
0

0101100
+204 0 -204 0 *
Wi

0101100
-203 0 *
Ve
1e-07
11.5 -8 8.5
0 0

0101101
*
Ed
 1e-07 1 1 0
1  51 0 0 6.28318530717959
2  101 11 0 0 6.28318530717959
2  102 30 0 0 6.28318530717959
0

0101100
+201 0 -201 0 *
Wi

0101100
-200 0 *
Fa
0  1e-07 11 0

0101000
+205 0 +202 0 +199 0 *
Ve
1e-07
2.2 6 -14.3
0 0

0101101
*
Ed
 1e-07 1 1 0
1  52 0 0 4
2  103 16 0 0 4
2  104 15 0 0 4
0

0101000
+197 0 -280 0 *
Ed
 1e-07 1 1 0
1  53 0 0 9.3
2  105 23 0 0 9.3
2  106 15 0 0 9.3
0

0101000
+197 0 -246 0 *
Wi

0101100
-196 0 -279 0 -243 0 +195 0 *
Fa
0  1e-07 15 0

0101000
+194 0 *
Ve
1e-07
2.2 6 -3.7
0 0

0101101
*
Ed
 1e-07 1 1 0
1  54 0 0 4
2  107 16 0 0 4
2  108 17 0 0 4
0

0101000
+192 0 -278 0 *
Ed
 1e-07 1 1 0
1  55 0 0 10.6
2  109 16 0 0 10.6
2  110 23 0 0 10.6
0

0101000
-192 0 +197 0 *
Wi

0101100
-191 0 -277 0 +196 0 -190 0 *
Fa
0  1e-07 16 0

0101000
+189 0 *
Ve
1.50000002220446e-07
11.49 7.09295425052213 -3.7
0 0

0101101
*
Ed
 1e-07 1 1 0
1  56 0 0 0.00999999999999979
2  111 17 0 0 0.00999999999999979
2  112 24 0 0 0.00999999999999979
0

0101000
+187 0 -210 0 *
Ve
1.50000003552714e-07
11.49 6 -3.7
0 0

0101101
*
Ed
 1.5e-07 1 1 0
1  57 0 3 4.09295425052213
2  113 17 0 3 4.09295425052213
2  114 28 0 3 4.09295425052213
0

0101000
+185 0 -187 0 *
Ed
 1e-07 1 1 0
1  58 0 0 9.29
2  115 23 0 0 9.29
2  116 17 0 0 9.29
0

0101000
+192 0 -185 0 *
Wi

0101100
-191 0 -275 0 -209 0 +186 0 +184 0 +183 0 *
Fa
0  1e-07 17 0

0101000
+182 0 *
Wi

0101100
+269 0 *
Ve
1e-07
-7 8 -21.7
0 0

0101101
*
Ed
 1e-07 1 1 0
1  59 0 0 6.28318530717959
2  117 31 0 0 6.28318530717959
2  118 18 0 0 6.28318530717959
0

0101100
+179 0 -179 0 *
Wi

0101100
-178 0 *
Fa
0  1e-07 18 0

0101000
+180 0 +177 0 *
Wi

0101100
+264 0 *
Ve
1e-07
-7 8 8.3
0 0

0101101
*
Ed
 1e-07 1 1 0
1  60 0 0 6.28318530717959
2  119 32 0 0 6.28318530717959
2  120 19 0 0 6.28318530717959
0

0101100
+174 0 -174 0 *
Wi

0101100
-173 0 *
Fa
0  1e-07 19 0

0101000
+175 0 +172 0 *
Wi

0101100
+259 0 *
Ve
1e-07
-7 -8 -21.7
0 0

0101101
*
Ed
 1e-07 1 1 0
1  61 0 0 6.28318530717959
2  121 33 0 0 6.28318530717959
2  122 20 0 0 6.28318530717959
0

0101100
+169 0 -169 0 *
Wi

0101100
-168 0 *
Fa
0  1e-07 20 0

0101000
+170 0 +167 0 *
Wi

0101100
+254 0 *
Ve
1e-07
-14.5 6 0.8
0 0

0101101
*
Ed
 1e-07 1 1 0
1  62 0 0 6.28318530717959
2  123 21 0 0 6.28318530717959
2  124 34 0 0 6.28318530717959
0

0101100
+164 0 -164 0 *
Wi

0101100
-163 0 *
Ve
1.00000000195943e-07
-14.5 1.95943487863576e-16 -5.2
0 0

0101101
*
Ed
 1e-07 1 1 0
1  63 0 0 6.28318530717959
2  125 21 0 0 6.28318530717959
2  126 35 0 0 6.28318530717959
0

0101100
+161 0 -161 0 *
Wi

0101100
-160 0 *
Ve
1.00000000195943e-07
-14.5 1.95943487863576e-16 6.8
0 0

0101101
*
Ed
 1e-07 1 1 0
1  64 0 0 6.28318530717959
2  127 21 0 0 6.28318530717959
2  128 36 0 0 6.28318530717959
0

0101100
+158 0 -158 0 *
Wi

0101100
-157 0 *
Ve
1e-07
-14.5 -6 0.8
0 0

0101101
*
Ed
 1e-07 1 1 0
1  65 0 0 6.28318530717959
2  129 21 0 0 6.28318530717959
2  130 37 0 0 6.28318530717959
0

0101100
+155 0 -155 0 *
Wi

0101100
-154 0 *
Fa
0  1e-07 21 0

0101000
+165 0 +162 0 +159 0 +156 0 +153 0 *
Wi

0101100
+249 0 *
Ve
1e-07
-7 -8 8.3
0 0

0101101
*
Ed
 1e-07 1 1 0
1  66 0 0 6.28318530717959
2  131 38 0 0 6.28318530717959
2  132 22 0 0 6.28318530717959
0

0101100
+150 0 -150 0 *
Wi

0101100
-149 0 *
Fa
0  1e-07 22 0

0101000
+151 0 +148 0 *
Ve
1.50000001986027e-07
11.49 6 -5.29150262212918
0 0

0101101
*
Ed
 1e-07 1 1 0
1  67 0 0 0.00999999999999979
2  133 23 0 0 0.00999999999999979
2  134 24 0 0 0.00999999999999979
0

0101000
+146 0 -245 0 *
Ed
 1.5e-07 1 1 0
1  68 0 -3.45 -1.85849737787082
2  135 23 0 -3.45 -1.85849737787082
2  136 28 0 -3.45 -1.85849737787082
0

0101000
+185 0 -146 0 *
Wi

0101100
-195 0 -244 0 +145 0 +144 0 +183 0 +190 0 *
Fa
0  1e-07 23 0

0101000
+143 0 *
Ve
1e-07
14.5 1.95943487863577e-15 8
0 0

0101101
*
Ed
 1e-07 1 1 0
1  69 0 0.00999999999999979 3.01
3  137 138CN 24 0 0.00999999999999979 3.01
0

0101000
+208 0 -141 0 *
Ed
 1e-07 1 1 0
1  70 0 3.98965473257127 4.23157614925471
2  139 24 0 3.98965473257127 4.23157614925471
2  140 28 0 3.98965473257127 4.23157614925471
0

0101000
+146 0 -187 0 *
Ve
1.50000001986027e-07
11.49 -6.99 -3.89100244153097
0 0

0101101
*
Ed
 1e-07 1 1 0
1  71 0 0 0.00999999999999979
2  141 25 0 0 0.00999999999999979
2  142 24 0 0 0.00999999999999979
0

0101000
+138 0 -242 0 *
Ed
 1e-07 1 1 0
1  70 0 2.05160915792487 2.07873283212686
2  139 24 0 2.05160915792487 2.07873283212686
2  140 28 0 2.05160915792487 2.07873283212686
0

0101000
+217 0 -138 0 *
Ed
 1e-07 1 1 0
1  72 0 0 6.28318530717959
2  143 24 0 0 6.28318530717959
2  144 39 0 0 6.28318530717959
0

0101000
+141 0 -141 0 *
Wi

0101100
+140 0 +207 0 +186 0 +139 0 -145 0 +241 0 +137 0 +136 0 -214 0 +206 0 
-140 0 -135 0 *
Fa
0  1e-07 24 0

0101000
+134 0 *
Ed
 1.5e-07 1 1 0
1  73 0 -3.45 -3.25899755846903
2  145 25 0 -3.45 -3.25899755846903
2  146 28 0 -3.45 -3.25899755846903
0

0101000
+219 0 -138 0 *
Wi

0101100
-227 0 -239 0 +137 0 +132 0 +218 0 +222 0 *
Fa
0  1e-07 25 0

0101000
+131 0 *
Ve
1e-07
8 8 -21.5
0 0

0101101
*
Ed
 1e-07 1 1 0
1  74 0 0 3.5
3  147 148CN 26 0 0 3.5
0

0101000
+129 0 -236 0 *
Ed
 1e-07 1 1 0
1  75 0 0 6.28318530717959
2  149 26 0 0 6.28318530717959
2  150 40 0 0 6.28318530717959
0

0101000
+129 0 -129 0 *
Wi

0101100
-235 0 +128 0 +127 0 -128 0 *
Fa
0  1e-07 26 0

0101000
+126 0 *
Ve
1e-07
8 -8 -21.5
0 0

0101101
*
Ed
 1e-07 1 1 0
1  76 0 0 3.5
3  151 152CN 27 0 0 3.5
0

0101000
+124 0 -233 0 *
Ed
 1e-07 1 1 0
1  77 0 0 6.28318530717959
2  153 27 0 0 6.28318530717959
2  154 41 0 0 6.28318530717959
0

0101000
+124 0 -124 0 *
Wi

0101100
-232 0 +123 0 +122 0 -123 0 *
Fa
0  1e-07 27 0

0101000
+121 0 *
Wi

0101100
-216 0 -132 0 +136 0 *
Fa
0  1e-07 28 0

0101000
+119 0 *
Ve
1e-07
8 8 8.5
0 0

0101101
*
Ed
 1e-07 1 1 0
1  78 0 0 3.5
3  155 156CN 29 0 0 3.5
0

0101000
+117 0 -204 0 *
Ed
 1e-07 1 1 0
1  79 0 0 6.28318530717959
2  157 29 0 0 6.28318530717959
2  158 42 0 0 6.28318530717959
0

0101000
+117 0 -117 0 *
Wi

0101100
-203 0 +116 0 +115 0 -116 0 *
Fa
0  1e-07 29 0

0101000
+114 0 *
Ve
1e-07
8 -8 8.5
0 0

0101101
*
Ed
 1e-07 1 1 0
1  80 0 0 3.5
3  159 160CN 30 0 0 3.5
0

0101000
+112 0 -201 0 *
Ed
 1e-07 1 1 0
1  81 0 0 6.28318530717959
2  161 30 0 0 6.28318530717959
2  162 43 0 0 6.28318530717959
0

0101000
+112 0 -112 0 *
Wi

0101100
-200 0 +111 0 +110 0 -111 0 *
Fa
0  1e-07 30 0

0101000
+109 0 *
Wi

0101100
+139 0 +144 0 -184 0 *
Fa
0  1e-07 28 0

0101000
+107 0 *
Ve
1e-07
8 8 -21.7
0 0

0101101
*
Ed
 1e-07 1 1 0
1  82 0 13 28
3  163 164CN 31 0 13 28
0

0101000
+179 0 -105 0 *
Ed
 1e-07 1 1 0
1  83 0 0 6.28318530717959
2  165 31 0 0 6.28318530717959
2  166 40 0 0 6.28318530717959
0

0101100
+105 0 -105 0 *
Wi

0101100
+104 0 +178 0 -104 0 -103 0 *
Fa
0  1e-07 31 0

0101000
+102 0 *
Ve
1e-07
8 8 8.3
0 0

0101101
*
Ed
 1e-07 1 1 0
1  84 0 13 28
3  167 168CN 32 0 13 28
0

0101000
+174 0 -100 0 *
Ed
 1e-07 1 1 0
1  85 0 0 6.28318530717959
2  169 32 0 0 6.28318530717959
2  170 42 0 0 6.28318530717959
0

0101100
+100 0 -100 0 *
Wi

0101100
+99 0 +173 0 -99 0 -98 0 *
Fa
0  1e-07 32 0

0101000
+97 0 *
Ve
1e-07
8 -8 -21.7
0 0

0101101
*
Ed
 1e-07 1 1 0
1  86 0 13 28
3  171 172CN 33 0 13 28
0

0101000
+169 0 -95 0 *
Ed
 1e-07 1 1 0
1  87 0 0 6.28318530717959
2  173 33 0 0 6.28318530717959
2  174 41 0 0 6.28318530717959
0

0101100
+95 0 -95 0 *
Wi

0101100
+94 0 +168 0 -94 0 -93 0 *
Fa
0  1e-07 33 0

0101000
+92 0 *
Ve
1e-07
-11.6 6 0.8
0 0

0101101
*
Ed
 1e-07 1 1 0
1  88 0 0.00999999999999979 2.91
3  175 176CN 34 0 0.00999999999999979 2.91
0

0101000
+164 0 -90 0 *
Ed
 1e-07 1 1 0
1  89 0 0 6.28318530717959
2  177 34 0 0 6.28318530717959
2  178 44 0 0 6.28318530717959
0

0101000
+90 0 -90 0 *
Wi

0101100
+89 0 +163 0 -89 0 -88 0 *
Fa
0  1e-07 34 0

0101000
+87 0 *
Ve
1e-07
-11.6 1.95943487863576e-16 -5.2
0 0

0101101
*
Ed
 1e-07 1 1 0
1  90 0 0.00999999999999979 2.91
3  179 180CN 35 0 0.00999999999999979 2.91
0

0101000
+161 0 -85 0 *
Ed
 1e-07 1 1 0
1  91 0 0 6.28318530717959
2  181 35 0 0 6.28318530717959
2  182 45 0 0 6.28318530717959
0

0101000
+85 0 -85 0 *
Wi

0101100
+84 0 +160 0 -84 0 -83 0 *
Fa
0  1e-07 35 0

0101000
+82 0 *
Ve
1e-07
-11.6 1.95943487863576e-16 6.8
0 0

0101101
*
Ed
 1e-07 1 1 0
1  92 0 0.00999999999999979 2.91
3  183 184CN 36 0 0.00999999999999979 2.91
0

0101000
+158 0 -80 0 *
Ed
 1e-07 1 1 0
1  93 0 0 6.28318530717959
2  185 36 0 0 6.28318530717959
2  186 46 0 0 6.28318530717959
0

0101000
+80 0 -80 0 *
Wi

0101100
+79 0 +157 0 -79 0 -78 0 *
Fa
0  1e-07 36 0

0101000
+77 0 *
Ve
1e-07
-11.6 -6 0.8
0 0

0101101
*
Ed
 1e-07 1 1 0
1  94 0 0.00999999999999979 2.91
3  187 188CN 37 0 0.00999999999999979 2.91
0

0101000
+155 0 -75 0 *
Ed
 1e-07 1 1 0
1  95 0 0 6.28318530717959
2  189 37 0 0 6.28318530717959
2  190 47 0 0 6.28318530717959
0

0101000
+75 0 -75 0 *
Wi

0101100
+74 0 +154 0 -74 0 -73 0 *
Fa
0  1e-07 37 0

0101000
+72 0 *
Ve
1e-07
8 -8 8.3
0 0

0101101
*
Ed
 1e-07 1 1 0
1  96 0 13 28
3  191 192CN 38 0 13 28
0

0101000
+150 0 -70 0 *
Ed
 1e-07 1 1 0
1  97 0 0 6.28318530717959
2  193 38 0 0 6.28318530717959
2  194 43 0 0 6.28318530717959
0

0101100
+70 0 -70 0 *
Wi

0101100
+69 0 +149 0 -69 0 -68 0 *
Fa
0  1e-07 38 0

0101000
+67 0 *
Wi

0101100
+135 0 *
Ve
1e-07
14.5 6 0.8
0 0

0101101
*
Ed
 1e-07 1 1 0
1  98 0 0 6.28318530717959
2  195 39 0 0 6.28318530717959
2  196 48 0 0 6.28318530717959
0

0101100
+64 0 -64 0 *
Wi

0101100
-63 0 *
Ve
1.00000000195943e-07
14.5 1.95943487863576e-16 -5.2
0 0

0101101
*
Ed
 1e-07 1 1 0
1  99 0 0 6.28318530717959
2  197 39 0 0 6.28318530717959
2  198 49 0 0 6.28318530717959
0

0101100
+61 0 -61 0 *
Wi

0101100
-60 0 *
Ve
1.00000000195943e-07
14.5 1.95943487863576e-16 6.8
0 0

0101101
*
Ed
 1e-07 1 1 0
1  100 0 0 6.28318530717959
2  199 39 0 0 6.28318530717959
2  200 50 0 0 6.28318530717959
0

0101100
+58 0 -58 0 *
Wi

0101100
-57 0 *
Ve
1e-07
14.5 -6 0.8
0 0

0101101
*
Ed
 1e-07 1 1 0
1  101 0 0 6.28318530717959
2  201 39 0 0 6.28318530717959
2  202 51 0 0 6.28318530717959
0

0101100
+55 0 -55 0 *
Wi

0101100
-54 0 *
Fa
0  1e-07 39 0

0101000
+65 0 +62 0 +59 0 +56 0 +53 0 *
Wi

0101100
+127 0 *
Wi

0101100
-103 0 *
Fa
0  1e-07 40 0

0101000
+51 0 +50 0 *
Wi

0101100
+122 0 *
Wi

0101100
-93 0 *
Fa
0  1e-07 41 0

0101000
+48 0 +47 0 *
Wi

0101100
+115 0 *
Wi

0101100
-98 0 *
Fa
0  1e-07 42 0

0101000
+45 0 +44 0 *
Wi

0101100
+110 0 *
Wi

0101100
-68 0 *
Fa
0  1e-07 43 0

0101000
+42 0 +41 0 *
Wi

0101100
+88 0 *
Fa
0  1e-07 44 0

0111000
+39 0 *
Wi

0101100
+83 0 *
Fa
0  1e-07 45 0

0111000
+37 0 *
Wi

0101100
+78 0 *
Fa
0  1e-07 46 0

0111000
+35 0 *
Wi

0101100
+73 0 *
Fa
0  1e-07 47 0

0111000
+33 0 *
Ve
1e-07
11.6 6 0.8
0 0

0101101
*
Ed
 1e-07 1 1 0
1  102 0 0 2.9
3  203 204CN 48 0 0 2.9
0

0101000
+31 0 -64 0 *
Ed
 1e-07 1 1 0
1  103 0 0 6.28318530717959
2  205 48 0 0 6.28318530717959
2  206 52 0 0 6.28318530717959
0

0101000
+31 0 -31 0 *
Wi

0101100
-63 0 +30 0 +29 0 -30 0 *
Fa
0  1e-07 48 0

0101000
+28 0 *
Ve
1e-07
11.6 1.95943487863576e-16 -5.2
0 0

0101101
*
Ed
 1e-07 1 1 0
1  104 0 0 2.9
3  207 208CN 49 0 0 2.9
0

0101000
+26 0 -61 0 *
Ed
 1e-07 1 1 0
1  105 0 0 6.28318530717959
2  209 49 0 0 6.28318530717959
2  210 53 0 0 6.28318530717959
0

0101000
+26 0 -26 0 *
Wi

0101100
-60 0 +25 0 +24 0 -25 0 *
Fa
0  1e-07 49 0

0101000
+23 0 *
Ve
1e-07
11.6 1.95943487863576e-16 6.8
0 0

0101101
*
Ed
 1e-07 1 1 0
1  106 0 0 2.9
3  211 212CN 50 0 0 2.9
0

0101000
+21 0 -58 0 *
Ed
 1e-07 1 1 0
1  107 0 0 6.28318530717959
2  213 50 0 0 6.28318530717959
2  214 54 0 0 6.28318530717959
0

0101000
+21 0 -21 0 *
Wi

0101100
-57 0 +20 0 +19 0 -20 0 *
Fa
0  1e-07 50 0

0101000
+18 0 *
Ve
1e-07
11.6 -6 0.8
0 0

0101101
*
Ed
 1e-07 1 1 0
1  108 0 0 2.9
3  215 216CN 51 0 0 2.9
0

0101000
+16 0 -55 0 *
Ed
 1e-07 1 1 0
1  109 0 0 6.28318530717959
2  217 51 0 0 6.28318530717959
2  218 55 0 0 6.28318530717959
0

0101000
+16 0 -16 0 *
Wi

0101100
-54 0 +15 0 +14 0 -15 0 *
Fa
0  1e-07 51 0

0101000
+13 0 *
Wi

0101100
-29 0 *
Fa
0  1e-07 52 0

0111000
-11 0 *
Wi

0101100
-24 0 *
Fa
0  1e-07 53 0

0111000
-9 0 *
Wi

0101100
-19 0 *
Fa
0  1e-07 54 0

0111000
-7 0 *
Wi

0101100
-14 0 *
Fa
0  1e-07 55 0

0111000
-5 0 *
Sh

0101100
-308 0 -293 0 +288 0 -283 0 +272 0 -267 0 -262 0 -257 0 +252 0 -247 0 
+230 0 +225 0 +220 0 -211 0 +198 0 +193 0 +188 0 -181 0 -176 0 -171 0 
-166 0 -152 0 -147 0 +142 0 +133 0 -130 0 -125 0 -120 0 -118 0 -113 0 
-108 0 -106 0 -101 0 -96 0 -91 0 -86 0 -81 0 -76 0 -71 0 -66 0 
+52 0 +49 0 +46 0 +43 0 +40 0 -38 0 -36 0 -34 0 -32 0 -27 0 
-22 0 -17 0 -12 0 +10 0 +8 0 +6 0 +4 0 *
So

0100000
+3 0 *
Co

1100000
+2 0 *

+1 0 