0
SECTION
2
HEADER
9
$ACADVER
1
AC1009
9
$INSUNITS
70
4
9
$LTSCALE
40
1.0
9
$EXTMIN
10
0.0000
20
0.0000
30
0.0
9
$EXTMAX
10
420.0000
20
297.0000
30
0.0
0
ENDSEC
0
SECTION
2
TABLES
0
TABLE
2
LTYPE
70
4
0
LTYPE
2
CONTINUOUS
70
0
3
Solid line
72
65
73
0
40
0.0000
0
LTYPE
2
HIDDEN
70
0
3
Hidden __ __ __ __
72
65
73
2
40
3.6000
49
2.4000
49
-1.2000
0
LTYPE
2
CENTER
70
0
3
Center ____ _ ____ _
72
65
73
4
40
11.2000
49
7.0000
49
-1.4000
49
1.4000
49
-1.4000
0
LTYPE
2
PHANTOM
70
0
3
Phantom ____ _ _ ____
72
65
73
6
40
21.0000
49
11.0000
49
-2.0000
49
2.0000
49
-2.0000
49
2.0000
49
-2.0000
0
ENDTAB
0
TABLE
2
LAYER
70
12
0
LAYER
2
0
70
0
62
7
6
CONTINUOUS
0
LAYER
2
VISIBLE
70
0
62
7
6
CONTINUOUS
0
LAYER
2
SECTION
70
0
62
7
6
CONTINUOUS
0
LAYER
2
HIDDEN
70
0
62
8
6
HIDDEN
0
LAYER
2
CENTER
70
0
62
4
6
CENTER
0
LAYER
2
DIM
70
0
62
3
6
CONTINUOUS
0
LAYER
2
TEXT
70
0
62
3
6
CONTINUOUS
0
LAYER
2
HATCH
70
0
62
5
6
CONTINUOUS
0
LAYER
2
CUT
70
0
62
1
6
PHANTOM
0
LAYER
2
CUTTHIN
70
0
62
1
6
PHANTOM
0
LAYER
2
FRAME
70
0
62
7
6
CONTINUOUS
0
LAYER
2
TITLE
70
0
62
7
6
CONTINUOUS
0
ENDTAB
0
ENDSEC
0
SECTION
2
ENTITIES
0
LINE
8
TITLE
10
5.000000
20
5.000000
30
0.0
11
415.000000
21
5.000000
31
0.0
0
LINE
8
TITLE
10
415.000000
20
5.000000
30
0.0
11
415.000000
21
292.000000
31
0.0
0
LINE
8
TITLE
10
415.000000
20
292.000000
30
0.0
11
5.000000
21
292.000000
31
0.0
0
LINE
8
TITLE
10
5.000000
20
292.000000
30
0.0
11
5.000000
21
5.000000
31
0.0
0
LINE
8
FRAME
10
10.000000
20
10.000000
30
0.0
11
410.000000
21
10.000000
31
0.0
0
LINE
8
FRAME
10
410.000000
20
10.000000
30
0.0
11
410.000000
21
287.000000
31
0.0
0
LINE
8
FRAME
10
410.000000
20
287.000000
30
0.0
11
10.000000
21
287.000000
31
0.0
0
LINE
8
FRAME
10
10.000000
20
287.000000
30
0.0
11
10.000000
21
10.000000
31
0.0
0
TEXT
8
TITLE
10
60.000000
20
289.500000
30
0.0
40
2.4000
1
1
72
1
73
2
11
60.000000
21
289.500000
31
0.0
0
TEXT
8
TITLE
10
60.000000
20
7.500000
30
0.0
40
2.4000
1
1
72
1
73
2
11
60.000000
21
7.500000
31
0.0
0
TEXT
8
TITLE
10
160.000000
20
289.500000
30
0.0
40
2.4000
1
2
72
1
73
2
11
160.000000
21
289.500000
31
0.0
0
TEXT
8
TITLE
10
160.000000
20
7.500000
30
0.0
40
2.4000
1
2
72
1
73
2
11
160.000000
21
7.500000
31
0.0
0
LINE
8
TITLE
10
110.000000
20
5.000000
30
0.0
11
110.000000
21
10.000000
31
0.0
0
LINE
8
TITLE
10
110.000000
20
287.000000
30
0.0
11
110.000000
21
292.000000
31
0.0
0
TEXT
8
TITLE
10
260.000000
20
289.500000
30
0.0
40
2.4000
1
3
72
1
73
2
11
260.000000
21
289.500000
31
0.0
0
TEXT
8
TITLE
10
260.000000
20
7.500000
30
0.0
40
2.4000
1
3
72
1
73
2
11
260.000000
21
7.500000
31
0.0
0
LINE
8
TITLE
10
210.000000
20
5.000000
30
0.0
11
210.000000
21
10.000000
31
0.0
0
LINE
8
TITLE
10
210.000000
20
287.000000
30
0.0
11
210.000000
21
292.000000
31
0.0
0
TEXT
8
TITLE
10
360.000000
20
289.500000
30
0.0
40
2.4000
1
4
72
1
73
2
11
360.000000
21
289.500000
31
0.0
0
TEXT
8
TITLE
10
360.000000
20
7.500000
30
0.0
40
2.4000
1
4
72
1
73
2
11
360.000000
21
7.500000
31
0.0
0
LINE
8
TITLE
10
310.000000
20
5.000000
30
0.0
11
310.000000
21
10.000000
31
0.0
0
LINE
8
TITLE
10
310.000000
20
287.000000
30
0.0
11
310.000000
21
292.000000
31
0.0
0
TEXT
8
TITLE
10
7.500000
20
56.166667
30
0.0
40
2.4000
1
C
72
1
73
2
11
7.500000
21
56.166667
31
0.0
0
TEXT
8
TITLE
10
412.500000
20
56.166667
30
0.0
40
2.4000
1
C
72
1
73
2
11
412.500000
21
56.166667
31
0.0
0
TEXT
8
TITLE
10
7.500000
20
148.500000
30
0.0
40
2.4000
1
B
72
1
73
2
11
7.500000
21
148.500000
31
0.0
0
TEXT
8
TITLE
10
412.500000
20
148.500000
30
0.0
40
2.4000
1
B
72
1
73
2
11
412.500000
21
148.500000
31
0.0
0
LINE
8
TITLE
10
5.000000
20
102.333333
30
0.0
11
10.000000
21
102.333333
31
0.0
0
LINE
8
TITLE
10
410.000000
20
102.333333
30
0.0
11
415.000000
21
102.333333
31
0.0
0
TEXT
8
TITLE
10
7.500000
20
240.833333
30
0.0
40
2.4000
1
A
72
1
73
2
11
7.500000
21
240.833333
31
0.0
0
TEXT
8
TITLE
10
412.500000
20
240.833333
30
0.0
40
2.4000
1
A
72
1
73
2
11
412.500000
21
240.833333
31
0.0
0
LINE
8
TITLE
10
5.000000
20
194.666667
30
0.0
11
10.000000
21
194.666667
31
0.0
0
LINE
8
TITLE
10
410.000000
20
194.666667
30
0.0
11
415.000000
21
194.666667
31
0.0
0
LINE
8
VISIBLE
10
139.091139
20
106.011500
30
0.0
11
47.067139
21
106.011500
31
0.0
0
LINE
8
VISIBLE
10
145.825370
20
112.293541
30
0.0
11
139.091139
21
106.011500
31
0.0
0
LINE
8
VISIBLE
10
47.067139
20
106.011500
30
0.0
11
40.332909
21
112.293541
31
0.0
0
LINE
8
VISIBLE
10
146.233054
20
112.735202
30
0.0
11
145.825370
21
112.293541
31
0.0
0
LINE
8
VISIBLE
10
146.570442
20
113.232635
30
0.0
11
146.233054
21
112.735202
31
0.0
0
LINE
8
VISIBLE
10
146.830013
20
113.774755
30
0.0
11
146.570442
21
113.232635
31
0.0
0
LINE
8
VISIBLE
10
40.332909
20
112.293541
30
0.0
11
39.925224
21
112.735202
31
0.0
0
LINE
8
VISIBLE
10
147.005982
20
114.349477
30
0.0
11
146.830013
21
113.774755
31
0.0
0
LINE
8
VISIBLE
10
39.925224
20
112.735202
30
0.0
11
39.587837
21
113.232635
31
0.0
0
LINE
8
VISIBLE
10
147.094426
20
114.943993
30
0.0
11
147.005982
21
114.349477
31
0.0
0
LINE
8
VISIBLE
10
39.587837
20
113.232635
30
0.0
11
39.328265
21
113.774755
31
0.0
0
LINE
8
VISIBLE
10
147.093375
20
115.545050
30
0.0
11
147.094426
21
114.943993
31
0.0
0
LINE
8
VISIBLE
10
39.328265
20
113.774755
30
0.0
11
39.152297
21
114.349477
31
0.0
0
LINE
8
VISIBLE
10
147.002852
20
116.139252
30
0.0
11
147.093375
21
115.545050
31
0.0
0
LINE
8
VISIBLE
10
39.152297
20
114.349477
30
0.0
11
39.063852
21
114.943993
31
0.0
0
LINE
8
VISIBLE
10
146.824874
20
116.713355
30
0.0
11
147.002852
21
116.139252
31
0.0
0
LINE
8
VISIBLE
10
39.063852
20
114.943993
30
0.0
11
39.064903
21
115.545050
31
0.0
0
LINE
8
VISIBLE
10
146.563408
20
117.254564
30
0.0
11
146.824874
21
116.713355
31
0.0
0
LINE
8
VISIBLE
10
39.064903
20
115.545050
30
0.0
11
39.155427
21
116.139252
31
0.0
0
LINE
8
VISIBLE
10
146.224283
20
117.750814
30
0.0
11
146.563408
21
117.254564
31
0.0
0
LINE
8
VISIBLE
10
39.155427
20
116.139252
30
0.0
11
39.333405
21
116.713355
31
0.0
0
LINE
8
VISIBLE
10
145.815056
20
118.191046
30
0.0
11
146.224283
21
117.750814
31
0.0
0
LINE
8
VISIBLE
10
39.333405
20
116.713355
30
0.0
11
39.594870
21
117.254564
31
0.0
0
LINE
8
VISIBLE
10
145.344849
20
118.565447
30
0.0
11
145.815056
21
118.191046
31
0.0
0
LINE
8
VISIBLE
10
39.594870
20
117.254564
30
0.0
11
39.933996
21
117.750814
31
0.0
0
LINE
8
VISIBLE
10
144.824142
20
118.865673
30
0.0
11
145.344849
21
118.565447
31
0.0
0
LINE
8
VISIBLE
10
39.933996
20
117.750814
30
0.0
11
40.343222
21
118.191046
31
0.0
0
LINE
8
VISIBLE
10
144.264542
20
119.085031
30
0.0
11
144.824142
21
118.865673
31
0.0
0
LINE
8
VISIBLE
10
40.343222
20
118.191046
30
0.0
11
40.813429
21
118.565447
31
0.0
0
LINE
8
VISIBLE
10
143.678520
20
119.218633
30
0.0
11
144.264542
21
119.085031
31
0.0
0
LINE
8
VISIBLE
10
40.813429
20
118.565447
30
0.0
11
41.334136
21
118.865673
31
0.0
0
LINE
8
VISIBLE
10
143.079139
20
119.263500
30
0.0
11
143.678520
21
119.218633
31
0.0
0
LINE
8
VISIBLE
10
41.334136
20
118.865673
30
0.0
11
41.893736
21
119.085031
31
0.0
0
LINE
8
VISIBLE
10
117.059139
20
119.263500
30
0.0
11
143.079139
21
119.263500
31
0.0
0
LINE
8
VISIBLE
10
41.893736
20
119.085031
30
0.0
11
42.479758
21
119.218633
31
0.0
0
LINE
8
VISIBLE
10
116.278778
20
119.186641
30
0.0
11
117.059139
21
119.263500
31
0.0
0
LINE
8
VISIBLE
10
42.479758
20
119.218633
30
0.0
11
43.079139
21
119.263500
31
0.0
0
LINE
8
VISIBLE
10
115.528405
20
118.959018
30
0.0
11
116.278778
21
119.186641
31
0.0
0
LINE
8
VISIBLE
10
43.079139
20
119.263500
30
0.0
11
85.099139
21
119.263500
31
0.0
0
LINE
8
VISIBLE
10
114.836858
20
118.589378
30
0.0
11
115.528405
21
118.959018
31
0.0
0
LINE
8
VISIBLE
10
85.099139
20
119.263500
30
0.0
11
85.879500
21
119.186641
31
0.0
0
LINE
8
VISIBLE
10
114.230712
20
118.091927
30
0.0
11
114.836858
21
118.589378
31
0.0
0
LINE
8
VISIBLE
10
85.879500
20
119.186641
30
0.0
11
86.629873
21
118.959018
31
0.0
0
LINE
8
VISIBLE
10
113.733261
20
117.485781
30
0.0
11
114.230712
21
118.091927
31
0.0
0
LINE
8
VISIBLE
10
86.629873
20
118.959018
30
0.0
11
87.321420
21
118.589378
31
0.0
0
LINE
8
VISIBLE
10
113.363621
20
116.794234
30
0.0
11
113.733261
21
117.485781
31
0.0
0
LINE
8
VISIBLE
10
87.321420
20
118.589378
30
0.0
11
87.927566
21
118.091927
31
0.0
0
LINE
8
VISIBLE
10
113.135998
20
116.043861
30
0.0
11
113.363621
21
116.794234
31
0.0
0
LINE
8
VISIBLE
10
87.927566
20
118.091927
30
0.0
11
88.425018
21
117.485781
31
0.0
0
LINE
8
VISIBLE
10
113.059139
20
115.263500
30
0.0
11
113.135998
21
116.043861
31
0.0
0
LINE
8
VISIBLE
10
88.425018
20
117.485781
30
0.0
11
88.794657
21
116.794234
31
0.0
0
LINE
8
VISIBLE
10
113.059139
20
114.271500
30
0.0
11
113.059139
21
115.263500
31
0.0
0
LINE
8
VISIBLE
10
88.794657
20
116.794234
30
0.0
11
89.022280
21
116.043861
31
0.0
0
LINE
8
VISIBLE
10
112.990991
20
113.753862
30
0.0
11
113.059139
21
114.271500
31
0.0
0
LINE
8
VISIBLE
10
89.022280
20
116.043861
30
0.0
11
89.099139
21
115.263500
31
0.0
0
LINE
8
VISIBLE
10
112.791190
20
113.271500
30
0.0
11
112.990991
21
113.753862
31
0.0
0
LINE
8
VISIBLE
10
89.099139
20
115.263500
30
0.0
11
89.099139
21
114.271500
31
0.0
0
LINE
8
VISIBLE
10
112.473353
20
112.857286
30
0.0
11
112.791190
21
113.271500
31
0.0
0
LINE
8
VISIBLE
10
89.099139
20
114.271500
30
0.0
11
89.167287
21
113.753862
31
0.0
0
LINE
8
VISIBLE
10
112.059139
20
112.539449
30
0.0
11
112.473353
21
112.857286
31
0.0
0
LINE
8
VISIBLE
10
89.167287
20
113.753862
30
0.0
11
89.367088
21
113.271500
31
0.0
0
LINE
8
VISIBLE
10
111.576777
20
112.339648
30
0.0
11
112.059139
21
112.539449
31
0.0
0
LINE
8
VISIBLE
10
89.367088
20
113.271500
30
0.0
11
89.684926
21
112.857286
31
0.0
0
LINE
8
VISIBLE
10
111.059139
20
112.271500
30
0.0
11
111.576777
21
112.339648
31
0.0
0
LINE
8
VISIBLE
10
89.684926
20
112.857286
30
0.0
11
90.099139
21
112.539449
31
0.0
0
LINE
8
VISIBLE
10
91.099139
20
112.271500
30
0.0
11
111.059139
21
112.271500
31
0.0
0
LINE
8
VISIBLE
10
90.099139
20
112.539449
30
0.0
11
90.581501
21
112.339648
31
0.0
0
LINE
8
VISIBLE
10
90.581501
20
112.339648
30
0.0
11
91.099139
21
112.271500
31
0.0
0
CIRCLE
8
VISIBLE
10
143.079139
20
115.237500
30
0.0
40
2.174000
0
CIRCLE
8
VISIBLE
10
43.079139
20
115.237500
30
0.0
40
2.174000
0
LINE
8
VISIBLE
10
129.345139
20
106.071500
30
0.0
11
124.413139
21
106.071500
31
0.0
0
LINE
8
VISIBLE
10
124.413139
20
106.071500
30
0.0
11
124.413139
21
110.003500
31
0.0
0
LINE
8
VISIBLE
10
129.345139
20
106.071500
30
0.0
11
129.345139
21
110.003500
31
0.0
0
LINE
8
VISIBLE
10
129.345139
20
110.003500
30
0.0
11
124.413139
21
110.003500
31
0.0
0
LINE
8
VISIBLE
10
61.745139
20
106.071500
30
0.0
11
56.813139
21
106.071500
31
0.0
0
LINE
8
VISIBLE
10
56.813139
20
106.071500
30
0.0
11
56.813139
21
110.003500
31
0.0
0
LINE
8
VISIBLE
10
61.745139
20
110.003500
30
0.0
11
56.813139
21
110.003500
31
0.0
0
LINE
8
VISIBLE
10
61.745139
20
106.071500
30
0.0
11
61.745139
21
110.003500
31
0.0
0
LINE
8
VISIBLE
10
47.067139
20
187.988500
30
0.0
11
47.067139
21
190.988500
31
0.0
0
LINE
8
VISIBLE
10
139.091139
20
187.988500
30
0.0
11
139.091139
21
190.988500
31
0.0
0
LINE
8
VISIBLE
10
47.067139
20
187.988500
30
0.0
11
139.091139
21
187.988500
31
0.0
0
LINE
8
VISIBLE
10
47.067139
20
190.988500
30
0.0
11
139.091139
21
190.988500
31
0.0
0
LINE
8
VISIBLE
10
40.332909
20
187.988500
30
0.0
11
40.332909
21
190.988500
31
0.0
0
LINE
8
VISIBLE
10
40.332909
20
187.988500
30
0.0
11
47.067139
21
187.988500
31
0.0
0
LINE
8
VISIBLE
10
40.332909
20
190.988500
30
0.0
11
47.067139
21
190.988500
31
0.0
0
LINE
8
VISIBLE
10
145.825370
20
187.988500
30
0.0
11
145.825370
21
190.988500
31
0.0
0
LINE
8
VISIBLE
10
139.091139
20
187.988500
30
0.0
11
145.825370
21
187.988500
31
0.0
0
LINE
8
VISIBLE
10
139.091139
20
190.988500
30
0.0
11
145.825370
21
190.988500
31
0.0
0
LINE
8
VISIBLE
10
39.925224
20
187.988500
30
0.0
11
40.332909
21
187.988500
31
0.0
0
LINE
8
VISIBLE
10
39.587837
20
187.988500
30
0.0
11
39.925224
21
187.988500
31
0.0
0
LINE
8
VISIBLE
10
39.328265
20
187.988500
30
0.0
11
39.587837
21
187.988500
31
0.0
0
LINE
8
VISIBLE
10
145.825370
20
187.988500
30
0.0
11
146.233054
21
187.988500
31
0.0
0
LINE
8
VISIBLE
10
39.152297
20
187.988500
30
0.0
11
39.328265
21
187.988500
31
0.0
0
LINE
8
VISIBLE
10
146.233054
20
187.988500
30
0.0
11
146.570442
21
187.988500
31
0.0
0
LINE
8
VISIBLE
10
39.063852
20
187.988500
30
0.0
11
39.152297
21
187.988500
31
0.0
0
LINE
8
VISIBLE
10
146.570442
20
187.988500
30
0.0
11
146.830013
21
187.988500
31
0.0
0
LINE
8
VISIBLE
10
146.830013
20
187.988500
30
0.0
11
147.005982
21
187.988500
31
0.0
0
LINE
8
VISIBLE
10
147.005982
20
187.988500
30
0.0
11
147.094426
21
187.988500
31
0.0
0
LINE
8
VISIBLE
10
39.925224
20
190.988500
30
0.0
11
40.332909
21
190.988500
31
0.0
0
LINE
8
VISIBLE
10
39.587837
20
190.988500
30
0.0
11
39.925224
21
190.988500
31
0.0
0
LINE
8
VISIBLE
10
39.328265
20
190.988500
30
0.0
11
39.587837
21
190.988500
31
0.0
0
LINE
8
VISIBLE
10
145.825370
20
190.988500
30
0.0
11
146.233054
21
190.988500
31
0.0
0
LINE
8
VISIBLE
10
39.152297
20
190.988500
30
0.0
11
39.328265
21
190.988500
31
0.0
0
LINE
8
VISIBLE
10
146.233054
20
190.988500
30
0.0
11
146.570442
21
190.988500
31
0.0
0
LINE
8
VISIBLE
10
39.063852
20
190.988500
30
0.0
11
39.152297
21
190.988500
31
0.0
0
LINE
8
VISIBLE
10
146.570442
20
190.988500
30
0.0
11
146.830013
21
190.988500
31
0.0
0
LINE
8
VISIBLE
10
146.830013
20
190.988500
30
0.0
11
147.005982
21
190.988500
31
0.0
0
LINE
8
VISIBLE
10
147.005982
20
190.988500
30
0.0
11
147.094426
21
190.988500
31
0.0
0
LINE
8
VISIBLE
10
39.925224
20
187.988500
30
0.0
11
39.925224
21
190.988500
31
0.0
0
LINE
8
VISIBLE
10
146.233054
20
187.988500
30
0.0
11
146.233054
21
190.988500
31
0.0
0
LINE
8
VISIBLE
10
39.587837
20
187.988500
30
0.0
11
39.587837
21
190.988500
31
0.0
0
LINE
8
VISIBLE
10
39.328265
20
187.988500
30
0.0
11
39.328265
21
190.988500
31
0.0
0
LINE
8
VISIBLE
10
39.152297
20
187.988500
30
0.0
11
39.152297
21
190.988500
31
0.0
0
LINE
8
VISIBLE
10
146.570442
20
187.988500
30
0.0
11
146.570442
21
190.988500
31
0.0
0
LINE
8
VISIBLE
10
39.063852
20
187.988500
30
0.0
11
39.063852
21
190.988500
31
0.0
0
LINE
8
VISIBLE
10
146.830013
20
187.988500
30
0.0
11
146.830013
21
190.988500
31
0.0
0
LINE
8
VISIBLE
10
147.005982
20
187.988500
30
0.0
11
147.005982
21
190.988500
31
0.0
0
LINE
8
VISIBLE
10
147.094426
20
187.988500
30
0.0
11
147.094426
21
190.988500
31
0.0
0
LINE
8
VISIBLE
10
56.813139
20
183.388500
30
0.0
11
56.813139
21
187.988500
31
0.0
0
LINE
8
VISIBLE
10
61.745139
20
183.388500
30
0.0
11
61.745139
21
187.988500
31
0.0
0
LINE
8
VISIBLE
10
56.813139
20
183.388500
30
0.0
11
61.745139
21
183.388500
31
0.0
0
LINE
8
VISIBLE
10
124.413139
20
183.388500
30
0.0
11
124.413139
21
187.988500
31
0.0
0
LINE
8
VISIBLE
10
129.345139
20
183.388500
30
0.0
11
129.345139
21
187.988500
31
0.0
0
LINE
8
VISIBLE
10
124.413139
20
183.388500
30
0.0
11
129.345139
21
183.388500
31
0.0
0
LINE
8
HIDDEN
10
39.064903
20
187.988500
30
0.0
11
39.063852
21
187.988500
31
0.0
0
LINE
8
HIDDEN
10
39.155427
20
187.988500
30
0.0
11
39.064903
21
187.988500
31
0.0
0
LINE
8
HIDDEN
10
39.333405
20
187.988500
30
0.0
11
39.155427
21
187.988500
31
0.0
0
LINE
8
HIDDEN
10
147.094426
20
187.988500
30
0.0
11
147.093375
21
187.988500
31
0.0
0
LINE
8
HIDDEN
10
39.594870
20
187.988500
30
0.0
11
39.333405
21
187.988500
31
0.0
0
LINE
8
HIDDEN
10
147.093375
20
187.988500
30
0.0
11
147.002852
21
187.988500
31
0.0
0
LINE
8
HIDDEN
10
39.933996
20
187.988500
30
0.0
11
39.594870
21
187.988500
31
0.0
0
LINE
8
HIDDEN
10
147.002852
20
187.988500
30
0.0
11
146.824874
21
187.988500
31
0.0
0
LINE
8
HIDDEN
10
40.343222
20
187.988500
30
0.0
11
39.933996
21
187.988500
31
0.0
0
LINE
8
HIDDEN
10
146.824874
20
187.988500
30
0.0
11
146.563408
21
187.988500
31
0.0
0
LINE
8
HIDDEN
10
40.813429
20
187.988500
30
0.0
11
40.343222
21
187.988500
31
0.0
0
LINE
8
HIDDEN
10
146.563408
20
187.988500
30
0.0
11
146.224283
21
187.988500
31
0.0
0
LINE
8
HIDDEN
10
41.334136
20
187.988500
30
0.0
11
40.813429
21
187.988500
31
0.0
0
LINE
8
HIDDEN
10
146.224283
20
187.988500
30
0.0
11
145.815056
21
187.988500
31
0.0
0
LINE
8
HIDDEN
10
41.893736
20
187.988500
30
0.0
11
41.334136
21
187.988500
31
0.0
0
LINE
8
HIDDEN
10
145.815056
20
187.988500
30
0.0
11
145.344849
21
187.988500
31
0.0
0
LINE
8
HIDDEN
10
42.479758
20
187.988500
30
0.0
11
41.893736
21
187.988500
31
0.0
0
LINE
8
HIDDEN
10
145.344849
20
187.988500
30
0.0
11
144.824142
21
187.988500
31
0.0
0
LINE
8
HIDDEN
10
43.079139
20
187.988500
30
0.0
11
42.479758
21
187.988500
31
0.0
0
LINE
8
HIDDEN
10
144.824142
20
187.988500
30
0.0
11
144.264542
21
187.988500
31
0.0
0
LINE
8
HIDDEN
10
69.099139
20
187.988500
30
0.0
11
43.079139
21
187.988500
31
0.0
0
LINE
8
HIDDEN
10
144.264542
20
187.988500
30
0.0
11
143.678520
21
187.988500
31
0.0
0
LINE
8
HIDDEN
10
69.879500
20
187.988500
30
0.0
11
69.099139
21
187.988500
31
0.0
0
LINE
8
HIDDEN
10
143.678520
20
187.988500
30
0.0
11
143.079139
21
187.988500
31
0.0
0
LINE
8
HIDDEN
10
70.629873
20
187.988500
30
0.0
11
69.879500
21
187.988500
31
0.0
0
LINE
8
HIDDEN
10
143.079139
20
187.988500
30
0.0
11
101.059139
21
187.988500
31
0.0
0
LINE
8
HIDDEN
10
71.321420
20
187.988500
30
0.0
11
70.629873
21
187.988500
31
0.0
0
LINE
8
HIDDEN
10
101.059139
20
187.988500
30
0.0
11
100.278778
21
187.988500
31
0.0
0
LINE
8
HIDDEN
10
71.927566
20
187.988500
30
0.0
11
71.321420
21
187.988500
31
0.0
0
LINE
8
HIDDEN
10
100.278778
20
187.988500
30
0.0
11
99.528405
21
187.988500
31
0.0
0
LINE
8
HIDDEN
10
72.425018
20
187.988500
30
0.0
11
71.927566
21
187.988500
31
0.0
0
LINE
8
HIDDEN
10
99.528405
20
187.988500
30
0.0
11
98.836858
21
187.988500
31
0.0
0
LINE
8
HIDDEN
10
72.794657
20
187.988500
30
0.0
11
72.425018
21
187.988500
31
0.0
0
LINE
8
HIDDEN
10
98.836858
20
187.988500
30
0.0
11
98.230712
21
187.988500
31
0.0
0
LINE
8
HIDDEN
10
73.022280
20
187.988500
30
0.0
11
72.794657
21
187.988500
31
0.0
0
LINE
8
HIDDEN
10
98.230712
20
187.988500
30
0.0
11
97.733261
21
187.988500
31
0.0
0
LINE
8
HIDDEN
10
73.099139
20
187.988500
30
0.0
11
73.022280
21
187.988500
31
0.0
0
LINE
8
HIDDEN
10
97.733261
20
187.988500
30
0.0
11
97.363621
21
187.988500
31
0.0
0
LINE
8
HIDDEN
10
97.363621
20
187.988500
30
0.0
11
97.135998
21
187.988500
31
0.0
0
LINE
8
HIDDEN
10
73.167287
20
187.988500
30
0.0
11
73.099139
21
187.988500
31
0.0
0
LINE
8
HIDDEN
10
97.135998
20
187.988500
30
0.0
11
97.059139
21
187.988500
31
0.0
0
LINE
8
HIDDEN
10
73.367088
20
187.988500
30
0.0
11
73.167287
21
187.988500
31
0.0
0
LINE
8
HIDDEN
10
73.684926
20
187.988500
30
0.0
11
73.367088
21
187.988500
31
0.0
0
LINE
8
HIDDEN
10
97.059139
20
187.988500
30
0.0
11
96.990991
21
187.988500
31
0.0
0
LINE
8
HIDDEN
10
74.099139
20
187.988500
30
0.0
11
73.684926
21
187.988500
31
0.0
0
LINE
8
HIDDEN
10
96.990991
20
187.988500
30
0.0
11
96.791190
21
187.988500
31
0.0
0
LINE
8
HIDDEN
10
74.581501
20
187.988500
30
0.0
11
74.099139
21
187.988500
31
0.0
0
LINE
8
HIDDEN
10
96.791190
20
187.988500
30
0.0
11
96.473353
21
187.988500
31
0.0
0
LINE
8
HIDDEN
10
75.099139
20
187.988500
30
0.0
11
74.581501
21
187.988500
31
0.0
0
LINE
8
HIDDEN
10
96.473353
20
187.988500
30
0.0
11
96.059139
21
187.988500
31
0.0
0
LINE
8
HIDDEN
10
95.059139
20
187.988500
30
0.0
11
75.099139
21
187.988500
31
0.0
0
LINE
8
HIDDEN
10
96.059139
20
187.988500
30
0.0
11
95.576777
21
187.988500
31
0.0
0
LINE
8
HIDDEN
10
95.576777
20
187.988500
30
0.0
11
95.059139
21
187.988500
31
0.0
0
LINE
8
HIDDEN
10
43.079139
20
187.988500
30
0.0
11
45.253139
21
187.988500
31
0.0
0
LINE
8
HIDDEN
10
45.253139
20
187.988500
30
0.0
11
40.905139
21
187.988500
31
0.0
0
LINE
8
HIDDEN
10
40.905139
20
187.988500
30
0.0
11
43.079139
21
187.988500
31
0.0
0
LINE
8
HIDDEN
10
61.745139
20
187.988500
30
0.0
11
56.813139
21
187.988500
31
0.0
0
LINE
8
HIDDEN
10
61.745139
20
187.988500
30
0.0
11
56.813139
21
187.988500
31
0.0
0
LINE
8
HIDDEN
10
143.079139
20
187.988500
30
0.0
11
145.253139
21
187.988500
31
0.0
0
LINE
8
HIDDEN
10
145.253139
20
187.988500
30
0.0
11
140.905139
21
187.988500
31
0.0
0
LINE
8
HIDDEN
10
140.905139
20
187.988500
30
0.0
11
143.079139
21
187.988500
31
0.0
0
LINE
8
HIDDEN
10
129.345139
20
187.988500
30
0.0
11
124.413139
21
187.988500
31
0.0
0
LINE
8
HIDDEN
10
129.345139
20
187.988500
30
0.0
11
124.413139
21
187.988500
31
0.0
0
LINE
8
HIDDEN
10
39.064903
20
190.988500
30
0.0
11
39.063852
21
190.988500
31
0.0
0
LINE
8
HIDDEN
10
39.155427
20
190.988500
30
0.0
11
39.064903
21
190.988500
31
0.0
0
LINE
8
HIDDEN
10
39.333405
20
190.988500
30
0.0
11
39.155427
21
190.988500
31
0.0
0
LINE
8
HIDDEN
10
147.094426
20
190.988500
30
0.0
11
147.093375
21
190.988500
31
0.0
0
LINE
8
HIDDEN
10
39.594870
20
190.988500
30
0.0
11
39.333405
21
190.988500
31
0.0
0
LINE
8
HIDDEN
10
147.093375
20
190.988500
30
0.0
11
147.002852
21
190.988500
31
0.0
0
LINE
8
HIDDEN
10
39.933996
20
190.988500
30
0.0
11
39.594870
21
190.988500
31
0.0
0
LINE
8
HIDDEN
10
147.002852
20
190.988500
30
0.0
11
146.824874
21
190.988500
31
0.0
0
LINE
8
HIDDEN
10
40.343222
20
190.988500
30
0.0
11
39.933996
21
190.988500
31
0.0
0
LINE
8
HIDDEN
10
146.824874
20
190.988500
30
0.0
11
146.563408
21
190.988500
31
0.0
0
LINE
8
HIDDEN
10
40.813429
20
190.988500
30
0.0
11
40.343222
21
190.988500
31
0.0
0
LINE
8
HIDDEN
10
146.563408
20
190.988500
30
0.0
11
146.224283
21
190.988500
31
0.0
0
LINE
8
HIDDEN
10
41.334136
20
190.988500
30
0.0
11
40.813429
21
190.988500
31
0.0
0
LINE
8
HIDDEN
10
146.224283
20
190.988500
30
0.0
11
145.815056
21
190.988500
31
0.0
0
LINE
8
HIDDEN
10
41.893736
20
190.988500
30
0.0
11
41.334136
21
190.988500
31
0.0
0
LINE
8
HIDDEN
10
145.815056
20
190.988500
30
0.0
11
145.344849
21
190.988500
31
0.0
0
LINE
8
HIDDEN
10
42.479758
20
190.988500
30
0.0
11
41.893736
21
190.988500
31
0.0
0
LINE
8
HIDDEN
10
145.344849
20
190.988500
30
0.0
11
144.824142
21
190.988500
31
0.0
0
LINE
8
HIDDEN
10
43.079139
20
190.988500
30
0.0
11
42.479758
21
190.988500
31
0.0
0
LINE
8
HIDDEN
10
144.824142
20
190.988500
30
0.0
11
144.264542
21
190.988500
31
0.0
0
LINE
8
HIDDEN
10
69.099139
20
190.988500
30
0.0
11
43.079139
21
190.988500
31
0.0
0
LINE
8
HIDDEN
10
144.264542
20
190.988500
30
0.0
11
143.678520
21
190.988500
31
0.0
0
LINE
8
HIDDEN
10
69.879500
20
190.988500
30
0.0
11
69.099139
21
190.988500
31
0.0
0
LINE
8
HIDDEN
10
143.678520
20
190.988500
30
0.0
11
143.079139
21
190.988500
31
0.0
0
LINE
8
HIDDEN
10
70.629873
20
190.988500
30
0.0
11
69.879500
21
190.988500
31
0.0
0
LINE
8
HIDDEN
10
143.079139
20
190.988500
30
0.0
11
101.059139
21
190.988500
31
0.0
0
LINE
8
HIDDEN
10
71.321420
20
190.988500
30
0.0
11
70.629873
21
190.988500
31
0.0
0
LINE
8
HIDDEN
10
101.059139
20
190.988500
30
0.0
11
100.278778
21
190.988500
31
0.0
0
LINE
8
HIDDEN
10
71.927566
20
190.988500
30
0.0
11
71.321420
21
190.988500
31
0.0
0
LINE
8
HIDDEN
10
100.278778
20
190.988500
30
0.0
11
99.528405
21
190.988500
31
0.0
0
LINE
8
HIDDEN
10
72.425018
20
190.988500
30
0.0
11
71.927566
21
190.988500
31
0.0
0
LINE
8
HIDDEN
10
99.528405
20
190.988500
30
0.0
11
98.836858
21
190.988500
31
0.0
0
LINE
8
HIDDEN
10
72.794657
20
190.988500
30
0.0
11
72.425018
21
190.988500
31
0.0
0
LINE
8
HIDDEN
10
98.836858
20
190.988500
30
0.0
11
98.230712
21
190.988500
31
0.0
0
LINE
8
HIDDEN
10
73.022280
20
190.988500
30
0.0
11
72.794657
21
190.988500
31
0.0
0
LINE
8
HIDDEN
10
98.230712
20
190.988500
30
0.0
11
97.733261
21
190.988500
31
0.0
0
LINE
8
HIDDEN
10
73.099139
20
190.988500
30
0.0
11
73.022280
21
190.988500
31
0.0
0
LINE
8
HIDDEN
10
97.733261
20
190.988500
30
0.0
11
97.363621
21
190.988500
31
0.0
0
LINE
8
HIDDEN
10
97.363621
20
190.988500
30
0.0
11
97.135998
21
190.988500
31
0.0
0
LINE
8
HIDDEN
10
73.167287
20
190.988500
30
0.0
11
73.099139
21
190.988500
31
0.0
0
LINE
8
HIDDEN
10
97.135998
20
190.988500
30
0.0
11
97.059139
21
190.988500
31
0.0
0
LINE
8
HIDDEN
10
73.367088
20
190.988500
30
0.0
11
73.167287
21
190.988500
31
0.0
0
LINE
8
HIDDEN
10
73.684926
20
190.988500
30
0.0
11
73.367088
21
190.988500
31
0.0
0
LINE
8
HIDDEN
10
97.059139
20
190.988500
30
0.0
11
96.990991
21
190.988500
31
0.0
0
LINE
8
HIDDEN
10
74.099139
20
190.988500
30
0.0
11
73.684926
21
190.988500
31
0.0
0
LINE
8
HIDDEN
10
96.990991
20
190.988500
30
0.0
11
96.791190
21
190.988500
31
0.0
0
LINE
8
HIDDEN
10
74.581501
20
190.988500
30
0.0
11
74.099139
21
190.988500
31
0.0
0
LINE
8
HIDDEN
10
96.791190
20
190.988500
30
0.0
11
96.473353
21
190.988500
31
0.0
0
LINE
8
HIDDEN
10
75.099139
20
190.988500
30
0.0
11
74.581501
21
190.988500
31
0.0
0
LINE
8
HIDDEN
10
96.473353
20
190.988500
30
0.0
11
96.059139
21
190.988500
31
0.0
0
LINE
8
HIDDEN
10
95.059139
20
190.988500
30
0.0
11
75.099139
21
190.988500
31
0.0
0
LINE
8
HIDDEN
10
96.059139
20
190.988500
30
0.0
11
95.576777
21
190.988500
31
0.0
0
LINE
8
HIDDEN
10
95.576777
20
190.988500
30
0.0
11
95.059139
21
190.988500
31
0.0
0
LINE
8
HIDDEN
10
43.079139
20
190.988500
30
0.0
11
45.253139
21
190.988500
31
0.0
0
LINE
8
HIDDEN
10
45.253139
20
190.988500
30
0.0
11
40.905139
21
190.988500
31
0.0
0
LINE
8
HIDDEN
10
40.905139
20
190.988500
30
0.0
11
43.079139
21
190.988500
31
0.0
0
LINE
8
HIDDEN
10
143.079139
20
190.988500
30
0.0
11
145.253139
21
190.988500
31
0.0
0
LINE
8
HIDDEN
10
145.253139
20
190.988500
30
0.0
11
140.905139
21
190.988500
31
0.0
0
LINE
8
HIDDEN
10
140.905139
20
190.988500
30
0.0
11
143.079139
21
190.988500
31
0.0
0
LINE
8
HIDDEN
10
39.064903
20
187.988500
30
0.0
11
39.064903
21
190.988500
31
0.0
0
LINE
8
HIDDEN
10
39.155427
20
187.988500
30
0.0
11
39.155427
21
190.988500
31
0.0
0
LINE
8
HIDDEN
10
39.333405
20
187.988500
30
0.0
11
39.333405
21
190.988500
31
0.0
0
LINE
8
HIDDEN
10
147.093375
20
187.988500
30
0.0
11
147.093375
21
190.988500
31
0.0
0
LINE
8
HIDDEN
10
39.594870
20
187.988500
30
0.0
11
39.594870
21
190.988500
31
0.0
0
LINE
8
HIDDEN
10
147.002852
20
187.988500
30
0.0
11
147.002852
21
190.988500
31
0.0
0
LINE
8
HIDDEN
10
39.933996
20
187.988500
30
0.0
11
39.933996
21
190.988500
31
0.0
0
LINE
8
HIDDEN
10
146.824874
20
187.988500
30
0.0
11
146.824874
21
190.988500
31
0.0
0
LINE
8
HIDDEN
10
40.343222
20
187.988500
30
0.0
11
40.343222
21
190.988500
31
0.0
0
LINE
8
HIDDEN
10
146.563408
20
187.988500
30
0.0
11
146.563408
21
190.988500
31
0.0
0
LINE
8
HIDDEN
10
40.813429
20
187.988500
30
0.0
11
40.813429
21
190.988500
31
0.0
0
LINE
8
HIDDEN
10
146.224283
20
187.988500
30
0.0
11
146.224283
21
190.988500
31
0.0
0
LINE
8
HIDDEN
10
41.334136
20
187.988500
30
0.0
11
41.334136
21
190.988500
31
0.0
0
LINE
8
HIDDEN
10
145.815056
20
187.988500
30
0.0
11
145.815056
21
190.988500
31
0.0
0
LINE
8
HIDDEN
10
41.893736
20
187.988500
30
0.0
11
41.893736
21
190.988500
31
0.0
0
LINE
8
HIDDEN
10
145.344849
20
187.988500
30
0.0
11
145.344849
21
190.988500
31
0.0
0
LINE
8
HIDDEN
10
42.479758
20
187.988500
30
0.0
11
42.479758
21
190.988500
31
0.0
0
LINE
8
HIDDEN
10
144.824142
20
187.988500
30
0.0
11
144.824142
21
190.988500
31
0.0
0
LINE
8
HIDDEN
10
43.079139
20
187.988500
30
0.0
11
43.079139
21
190.988500
31
0.0
0
LINE
8
HIDDEN
10
144.264542
20
187.988500
30
0.0
11
144.264542
21
190.988500
31
0.0
0
LINE
8
HIDDEN
10
69.099139
20
187.988500
30
0.0
11
69.099139
21
190.988500
31
0.0
0
LINE
8
HIDDEN
10
143.678520
20
187.988500
30
0.0
11
143.678520
21
190.988500
31
0.0
0
LINE
8
HIDDEN
10
69.879500
20
187.988500
30
0.0
11
69.879500
21
190.988500
31
0.0
0
LINE
8
HIDDEN
10
143.079139
20
187.988500
30
0.0
11
143.079139
21
190.988500
31
0.0
0
LINE
8
HIDDEN
10
70.629873
20
187.988500
30
0.0
11
70.629873
21
190.988500
31
0.0
0
LINE
8
HIDDEN
10
101.059139
20
187.988500
30
0.0
11
101.059139
21
190.988500
31
0.0
0
LINE
8
HIDDEN
10
71.321420
20
187.988500
30
0.0
11
71.321420
21
190.988500
31
0.0
0
LINE
8
HIDDEN
10
100.278778
20
187.988500
30
0.0
11
100.278778
21
190.988500
31
0.0
0
LINE
8
HIDDEN
10
71.927566
20
187.988500
30
0.0
11
71.927566
21
190.988500
31
0.0
0
LINE
8
HIDDEN
10
99.528405
20
187.988500
30
0.0
11
99.528405
21
190.988500
31
0.0
0
LINE
8
HIDDEN
10
72.425018
20
187.988500
30
0.0
11
72.425018
21
190.988500
31
0.0
0
LINE
8
HIDDEN
10
98.836858
20
187.988500
30
0.0
11
98.836858
21
190.988500
31
0.0
0
LINE
8
HIDDEN
10
72.794657
20
187.988500
30
0.0
11
72.794657
21
190.988500
31
0.0
0
LINE
8
HIDDEN
10
98.230712
20
187.988500
30
0.0
11
98.230712
21
190.988500
31
0.0
0
LINE
8
HIDDEN
10
73.022280
20
187.988500
30
0.0
11
73.022280
21
190.988500
31
0.0
0
LINE
8
HIDDEN
10
97.733261
20
187.988500
30
0.0
11
97.733261
21
190.988500
31
0.0
0
LINE
8
HIDDEN
10
73.099139
20
187.988500
30
0.0
11
73.099139
21
190.988500
31
0.0
0
LINE
8
HIDDEN
10
97.363621
20
187.988500
30
0.0
11
97.363621
21
190.988500
31
0.0
0
LINE
8
HIDDEN
10
73.099139
20
187.988500
30
0.0
11
73.099139
21
190.988500
31
0.0
0
LINE
8
HIDDEN
10
97.135998
20
187.988500
30
0.0
11
97.135998
21
190.988500
31
0.0
0
LINE
8
HIDDEN
10
73.167287
20
187.988500
30
0.0
11
73.167287
21
190.988500
31
0.0
0
LINE
8
HIDDEN
10
97.059139
20
187.988500
30
0.0
11
97.059139
21
190.988500
31
0.0
0
LINE
8
HIDDEN
10
73.367088
20
187.988500
30
0.0
11
73.367088
21
190.988500
31
0.0
0
LINE
8
HIDDEN
10
97.059139
20
187.988500
30
0.0
11
97.059139
21
190.988500
31
0.0
0
LINE
8
HIDDEN
10
73.684926
20
187.988500
30
0.0
11
73.684926
21
190.988500
31
0.0
0
LINE
8
HIDDEN
10
96.990991
20
187.988500
30
0.0
11
96.990991
21
190.988500
31
0.0
0
LINE
8
HIDDEN
10
74.099139
20
187.988500
30
0.0
11
74.099139
21
190.988500
31
0.0
0
LINE
8
HIDDEN
10
96.791190
20
187.988500
30
0.0
11
96.791190
21
190.988500
31
0.0
0
LINE
8
HIDDEN
10
74.581501
20
187.988500
30
0.0
11
74.581501
21
190.988500
31
0.0
0
LINE
8
HIDDEN
10
96.473353
20
187.988500
30
0.0
11
96.473353
21
190.988500
31
0.0
0
LINE
8
HIDDEN
10
75.099139
20
187.988500
30
0.0
11
75.099139
21
190.988500
31
0.0
0
LINE
8
HIDDEN
10
96.059139
20
187.988500
30
0.0
11
96.059139
21
190.988500
31
0.0
0
LINE
8
HIDDEN
10
95.059139
20
187.988500
30
0.0
11
95.059139
21
190.988500
31
0.0
0
LINE
8
HIDDEN
10
95.576777
20
187.988500
30
0.0
11
95.576777
21
190.988500
31
0.0
0
LINE
8
HIDDEN
10
43.079139
20
187.988500
30
0.0
11
43.079139
21
190.988500
31
0.0
0
LINE
8
HIDDEN
10
143.079139
20
187.988500
30
0.0
11
143.079139
21
190.988500
31
0.0
0
LINE
8
HIDDEN
10
40.905139
20
187.988500
30
0.0
11
40.905139
21
190.988500
31
0.0
0
LINE
8
HIDDEN
10
45.253139
20
187.988500
30
0.0
11
45.253139
21
190.988500
31
0.0
0
LINE
8
HIDDEN
10
140.905139
20
187.988500
30
0.0
11
140.905139
21
190.988500
31
0.0
0
LINE
8
HIDDEN
10
145.253139
20
187.988500
30
0.0
11
145.253139
21
190.988500
31
0.0
0
LINE
8
VISIBLE
10
198.097713
20
113.437500
30
0.0
11
198.097713
21
116.437500
31
0.0
0
LINE
8
VISIBLE
10
290.121713
20
113.437500
30
0.0
11
290.121713
21
116.437500
31
0.0
0
LINE
8
VISIBLE
10
198.097713
20
113.437500
30
0.0
11
290.121713
21
113.437500
31
0.0
0
LINE
8
VISIBLE
10
198.097713
20
116.437500
30
0.0
11
290.121713
21
116.437500
31
0.0
0
LINE
8
VISIBLE
10
191.363483
20
113.437500
30
0.0
11
191.363483
21
116.437500
31
0.0
0
LINE
8
VISIBLE
10
191.363483
20
113.437500
30
0.0
11
198.097713
21
113.437500
31
0.0
0
LINE
8
VISIBLE
10
191.363483
20
116.437500
30
0.0
11
198.097713
21
116.437500
31
0.0
0
LINE
8
VISIBLE
10
296.855943
20
113.437500
30
0.0
11
296.855943
21
116.437500
31
0.0
0
LINE
8
VISIBLE
10
290.121713
20
113.437500
30
0.0
11
296.855943
21
113.437500
31
0.0
0
LINE
8
VISIBLE
10
290.121713
20
116.437500
30
0.0
11
296.855943
21
116.437500
31
0.0
0
LINE
8
VISIBLE
10
190.955798
20
113.437500
30
0.0
11
191.363483
21
113.437500
31
0.0
0
LINE
8
VISIBLE
10
190.618410
20
113.437500
30
0.0
11
190.955798
21
113.437500
31
0.0
0
LINE
8
VISIBLE
10
190.358839
20
113.437500
30
0.0
11
190.618410
21
113.437500
31
0.0
0
LINE
8
VISIBLE
10
190.182871
20
113.437500
30
0.0
11
190.358839
21
113.437500
31
0.0
0
LINE
8
VISIBLE
10
190.094426
20
113.437500
30
0.0
11
190.182871
21
113.437500
31
0.0
0
LINE
8
VISIBLE
10
298.036555
20
113.437500
30
0.0
11
298.125000
21
113.437500
31
0.0
0
LINE
8
VISIBLE
10
297.860587
20
113.437500
30
0.0
11
298.036555
21
113.437500
31
0.0
0
LINE
8
VISIBLE
10
297.601016
20
113.437500
30
0.0
11
297.860587
21
113.437500
31
0.0
0
LINE
8
VISIBLE
10
297.263628
20
113.437500
30
0.0
11
297.601016
21
113.437500
31
0.0
0
LINE
8
VISIBLE
10
296.855943
20
113.437500
30
0.0
11
297.263628
21
113.437500
31
0.0
0
LINE
8
VISIBLE
10
190.955798
20
116.437500
30
0.0
11
191.363483
21
116.437500
31
0.0
0
LINE
8
VISIBLE
10
190.618410
20
116.437500
30
0.0
11
190.955798
21
116.437500
31
0.0
0
LINE
8
VISIBLE
10
190.358839
20
116.437500
30
0.0
11
190.618410
21
116.437500
31
0.0
0
LINE
8
VISIBLE
10
190.182871
20
116.437500
30
0.0
11
190.358839
21
116.437500
31
0.0
0
LINE
8
VISIBLE
10
190.094426
20
116.437500
30
0.0
11
190.182871
21
116.437500
31
0.0
0
LINE
8
VISIBLE
10
298.036555
20
116.437500
30
0.0
11
298.125000
21
116.437500
31
0.0
0
LINE
8
VISIBLE
10
297.860587
20
116.437500
30
0.0
11
298.036555
21
116.437500
31
0.0
0
LINE
8
VISIBLE
10
297.601016
20
116.437500
30
0.0
11
297.860587
21
116.437500
31
0.0
0
LINE
8
VISIBLE
10
297.263628
20
116.437500
30
0.0
11
297.601016
21
116.437500
31
0.0
0
LINE
8
VISIBLE
10
296.855943
20
116.437500
30
0.0
11
297.263628
21
116.437500
31
0.0
0
LINE
8
VISIBLE
10
190.955798
20
113.437500
30
0.0
11
190.955798
21
116.437500
31
0.0
0
LINE
8
VISIBLE
10
297.263628
20
113.437500
30
0.0
11
297.263628
21
116.437500
31
0.0
0
LINE
8
VISIBLE
10
190.618410
20
113.437500
30
0.0
11
190.618410
21
116.437500
31
0.0
0
LINE
8
VISIBLE
10
190.358839
20
113.437500
30
0.0
11
190.358839
21
116.437500
31
0.0
0
LINE
8
VISIBLE
10
190.182871
20
113.437500
30
0.0
11
190.182871
21
116.437500
31
0.0
0
LINE
8
VISIBLE
10
190.094426
20
113.437500
30
0.0
11
190.094426
21
116.437500
31
0.0
0
LINE
8
VISIBLE
10
298.125000
20
113.437500
30
0.0
11
298.125000
21
116.437500
31
0.0
0
LINE
8
VISIBLE
10
298.036555
20
113.437500
30
0.0
11
298.036555
21
116.437500
31
0.0
0
LINE
8
VISIBLE
10
297.860587
20
113.437500
30
0.0
11
297.860587
21
116.437500
31
0.0
0
LINE
8
VISIBLE
10
297.601016
20
113.437500
30
0.0
11
297.601016
21
116.437500
31
0.0
0
LINE
8
VISIBLE
10
207.843713
20
108.837500
30
0.0
11
207.843713
21
113.437500
31
0.0
0
LINE
8
VISIBLE
10
212.775713
20
108.837500
30
0.0
11
212.775713
21
113.437500
31
0.0
0
LINE
8
VISIBLE
10
207.843713
20
108.837500
30
0.0
11
212.775713
21
108.837500
31
0.0
0
LINE
8
VISIBLE
10
275.443713
20
108.837500
30
0.0
11
275.443713
21
113.437500
31
0.0
0
LINE
8
VISIBLE
10
280.375713
20
108.837500
30
0.0
11
280.375713
21
113.437500
31
0.0
0
LINE
8
VISIBLE
10
275.443713
20
108.837500
30
0.0
11
280.375713
21
108.837500
31
0.0
0
LINE
8
SECTION
10
191.935713
20
113.437500
30
0.0
11
190.094939
21
113.437500
31
0.0
0
LINE
8
SECTION
10
190.094939
20
113.437500
30
0.0
11
190.094939
21
116.437500
31
0.0
0
LINE
8
SECTION
10
191.935713
20
116.437500
30
0.0
11
190.094939
21
116.437500
31
0.0
0
LINE
8
SECTION
10
191.935713
20
113.437500
30
0.0
11
191.935713
21
116.437500
31
0.0
0
LINE
8
SECTION
10
224.129713
20
113.437500
30
0.0
11
196.283713
21
113.437500
31
0.0
0
LINE
8
SECTION
10
196.283713
20
113.437500
30
0.0
11
196.283713
21
116.437500
31
0.0
0
LINE
8
SECTION
10
224.129713
20
116.437500
30
0.0
11
196.283713
21
116.437500
31
0.0
0
LINE
8
SECTION
10
224.129713
20
116.437500
30
0.0
11
224.129713
21
113.437500
31
0.0
0
LINE
8
SECTION
10
291.935713
20
113.437500
30
0.0
11
248.089713
21
113.437500
31
0.0
0
LINE
8
SECTION
10
248.089713
20
113.437500
30
0.0
11
248.089713
21
116.437500
31
0.0
0
LINE
8
SECTION
10
291.935713
20
116.437500
30
0.0
11
248.089713
21
116.437500
31
0.0
0
LINE
8
SECTION
10
291.935713
20
113.437500
30
0.0
11
291.935713
21
116.437500
31
0.0
0
LINE
8
SECTION
10
298.124487
20
113.437500
30
0.0
11
296.283713
21
113.437500
31
0.0
0
LINE
8
SECTION
10
296.283713
20
113.437500
30
0.0
11
296.283713
21
116.437500
31
0.0
0
LINE
8
SECTION
10
298.124487
20
116.437500
30
0.0
11
296.283713
21
116.437500
31
0.0
0
LINE
8
SECTION
10
298.124487
20
116.437500
30
0.0
11
298.124487
21
113.437500
31
0.0
0
LINE
8
CENTER
10
39.305139
20
115.237500
30
0.0
11
42.318239
21
115.237500
31
0.0
0
LINE
8
CENTER
10
43.840039
20
115.237500
30
0.0
11
46.853139
21
115.237500
31
0.0
0
LINE
8
CENTER
10
43.079139
20
111.463500
30
0.0
11
43.079139
21
114.476600
31
0.0
0
LINE
8
CENTER
10
43.079139
20
115.998400
30
0.0
11
43.079139
21
119.011500
31
0.0
0
LINE
8
CENTER
10
139.305139
20
115.237500
30
0.0
11
142.318239
21
115.237500
31
0.0
0
LINE
8
CENTER
10
143.840039
20
115.237500
30
0.0
11
146.853139
21
115.237500
31
0.0
0
LINE
8
CENTER
10
143.079139
20
111.463500
30
0.0
11
143.079139
21
114.476600
31
0.0
0
LINE
8
CENTER
10
143.079139
20
115.998400
30
0.0
11
143.079139
21
119.011500
31
0.0
0
LINE
8
DIM
10
39.063852
20
104.811500
30
0.0
11
39.063852
21
83.011500
31
0.0
0
LINE
8
DIM
10
147.094426
20
104.811500
30
0.0
11
147.094426
21
83.011500
31
0.0
0
LINE
8
DIM
10
39.063852
20
85.011500
30
0.0
11
147.094426
21
85.011500
31
0.0
0
SOLID
8
DIM
10
39.063852
20
85.011500
30
0.0
11
42.263852
21
84.403500
31
0.0
12
42.263852
22
85.619500
32
0.0
13
42.263852
23
85.619500
33
0.0
0
SOLID
8
DIM
10
147.094426
20
85.011500
30
0.0
11
143.894426
21
85.619500
31
0.0
12
143.894426
22
84.403500
32
0.0
13
143.894426
23
84.403500
33
0.0
0
TEXT
8
TEXT
10
93.079139
20
86.011500
30
0.0
40
2.5000
1
54.02
72
1
73
0
11
93.079139
21
86.011500
31
0.0
0
LINE
8
DIM
10
37.863852
20
106.011500
30
0.0
11
16.063852
21
106.011500
31
0.0
0
LINE
8
DIM
10
37.863852
20
119.263500
30
0.0
11
16.063852
21
119.263500
31
0.0
0
LINE
8
DIM
10
18.063852
20
106.011500
30
0.0
11
18.063852
21
119.263500
31
0.0
0
SOLID
8
DIM
10
18.063852
20
106.011500
30
0.0
11
17.455852
21
102.811500
31
0.0
12
18.671852
22
102.811500
32
0.0
13
18.671852
23
102.811500
33
0.0
0
SOLID
8
DIM
10
18.063852
20
119.263500
30
0.0
11
18.671852
21
122.463500
31
0.0
12
17.455852
22
122.463500
32
0.0
13
17.455852
23
122.463500
33
0.0
0
LINE
8
DIM
10
18.063852
20
119.263500
30
0.0
11
18.063852
21
128.863500
31
0.0
0
TEXT
8
TEXT
10
17.063852
20
129.663500
30
0.0
40
2.5000
1
6.63
50
90.0000
0
LINE
8
DIM
10
39.063852
20
107.211500
30
0.0
11
39.063852
21
128.263500
31
0.0
0
LINE
8
DIM
10
43.079139
20
107.211500
30
0.0
11
43.079139
21
128.263500
31
0.0
0
LINE
8
DIM
10
39.063852
20
126.263500
30
0.0
11
43.079139
21
126.263500
31
0.0
0
SOLID
8
DIM
10
39.063852
20
126.263500
30
0.0
11
35.863852
21
126.871500
31
0.0
12
35.863852
22
125.655500
32
0.0
13
35.863852
23
125.655500
33
0.0
0
SOLID
8
DIM
10
43.079139
20
126.263500
30
0.0
11
46.279139
21
125.655500
31
0.0
12
46.279139
22
126.871500
32
0.0
13
46.279139
23
126.871500
33
0.0
0
LINE
8
DIM
10
43.079139
20
126.263500
30
0.0
11
52.679139
21
126.263500
31
0.0
0
TEXT
8
TEXT
10
53.479139
20
126.663500
30
0.0
40
2.5000
1
2.01
0
LINE
8
DIM
10
40.263852
20
106.011500
30
0.0
11
157.094426
21
106.011500
31
0.0
0
LINE
8
DIM
10
40.263852
20
115.237500
30
0.0
11
157.094426
21
115.237500
31
0.0
0
LINE
8
DIM
10
155.094426
20
106.011500
30
0.0
11
155.094426
21
115.237500
31
0.0
0
SOLID
8
DIM
10
155.094426
20
106.011500
30
0.0
11
154.486426
21
102.811500
31
0.0
12
155.702426
22
102.811500
32
0.0
13
155.702426
23
102.811500
33
0.0
0
SOLID
8
DIM
10
155.094426
20
115.237500
30
0.0
11
155.702426
21
118.437500
31
0.0
12
154.486426
22
118.437500
32
0.0
13
154.486426
23
118.437500
33
0.0
0
LINE
8
DIM
10
155.094426
20
115.237500
30
0.0
11
155.094426
21
124.837500
31
0.0
0
TEXT
8
TEXT
10
154.094426
20
125.637500
30
0.0
40
2.5000
1
4.61
50
90.0000
0
LINE
8
DIM
10
39.063852
20
107.211500
30
0.0
11
39.063852
21
134.763500
31
0.0
0
LINE
8
DIM
10
143.079139
20
107.211500
30
0.0
11
143.079139
21
134.763500
31
0.0
0
LINE
8
DIM
10
39.063852
20
132.763500
30
0.0
11
143.079139
21
132.763500
31
0.0
0
SOLID
8
DIM
10
39.063852
20
132.763500
30
0.0
11
42.263852
21
132.155500
31
0.0
12
42.263852
22
133.371500
32
0.0
13
42.263852
23
133.371500
33
0.0
0
SOLID
8
DIM
10
143.079139
20
132.763500
30
0.0
11
139.879139
21
133.371500
31
0.0
12
139.879139
22
132.155500
32
0.0
13
139.879139
23
132.155500
33
0.0
0
TEXT
8
TEXT
10
91.071496
20
133.763500
30
0.0
40
2.5000
1
52.01
72
1
73
0
11
91.071496
21
133.763500
31
0.0
0
LINE
8
DIM
10
40.263852
20
106.011500
30
0.0
11
163.594426
21
106.011500
31
0.0
0
LINE
8
DIM
10
40.263852
20
115.237500
30
0.0
11
163.594426
21
115.237500
31
0.0
0
LINE
8
DIM
10
161.594426
20
106.011500
30
0.0
11
161.594426
21
115.237500
31
0.0
0
SOLID
8
DIM
10
161.594426
20
106.011500
30
0.0
11
160.986426
21
102.811500
31
0.0
12
162.202426
22
102.811500
32
0.0
13
162.202426
23
102.811500
33
0.0
0
SOLID
8
DIM
10
161.594426
20
115.237500
30
0.0
11
162.202426
21
118.437500
31
0.0
12
160.986426
22
118.437500
32
0.0
13
160.986426
23
118.437500
33
0.0
0
LINE
8
DIM
10
161.594426
20
115.237500
30
0.0
11
161.594426
21
124.837500
31
0.0
0
TEXT
8
TEXT
10
160.594426
20
125.637500
30
0.0
40
2.5000
1
4.61
50
90.0000
0
SOLID
8
DIM
10
44.417587
20
116.950635
30
0.0
11
46.866814
21
119.097948
31
0.0
12
45.908593
22
119.846592
32
0.0
13
45.908593
23
119.846592
33
0.0
0
LINE
8
DIM
10
44.417587
20
116.950635
30
0.0
11
64.194164
21
142.263500
31
0.0
0
LINE
8
DIM
10
64.194164
20
142.263500
30
0.0
11
69.194164
21
142.263500
31
0.0
0
TEXT
8
TEXT
10
69.994164
20
143.263500
30
0.0
40
2.5000
1
2x Ø2.17 THRU
0
LINE
8
DIM
10
143.079139
20
114.037500
30
0.0
11
143.079139
21
76.011500
31
0.0
0
LINE
8
DIM
10
43.079139
20
114.037500
30
0.0
11
43.079139
21
76.011500
31
0.0
0
LINE
8
DIM
10
43.079139
20
78.011500
30
0.0
11
143.079139
21
78.011500
31
0.0
0
SOLID
8
DIM
10
43.079139
20
78.011500
30
0.0
11
46.279139
21
77.403500
31
0.0
12
46.279139
22
78.619500
32
0.0
13
46.279139
23
78.619500
33
0.0
0
SOLID
8
DIM
10
143.079139
20
78.011500
30
0.0
11
139.879139
21
78.619500
31
0.0
12
139.879139
22
77.403500
32
0.0
13
139.879139
23
77.403500
33
0.0
0
TEXT
8
TEXT
10
93.079139
20
79.011500
30
0.0
40
2.5000
1
50.00
72
1
73
0
11
93.079139
21
79.011500
31
0.0
0
TEXT
8
TEXT
10
93.079139
20
66.011500
30
0.0
40
4.0000
1
FRONT VIEW
72
1
73
0
11
93.079139
21
66.011500
31
0.0
0
LINE
8
TEXT
10
81.079139
20
64.411500
30
0.0
11
105.079139
21
64.411500
31
0.0
0
TEXT
8
TEXT
10
93.079139
20
60.011500
30
0.0
40
2.4000
1
-X →   Z ↑
72
1
73
0
11
93.079139
21
60.011500
31
0.0
0
LINE
8
DIM
10
39.063852
20
182.188500
30
0.0
11
39.063852
21
169.388500
31
0.0
0
LINE
8
DIM
10
147.094426
20
182.188500
30
0.0
11
147.094426
21
169.388500
31
0.0
0
LINE
8
DIM
10
39.063852
20
171.388500
30
0.0
11
147.094426
21
171.388500
31
0.0
0
SOLID
8
DIM
10
39.063852
20
171.388500
30
0.0
11
42.263852
21
170.780500
31
0.0
12
42.263852
22
171.996500
32
0.0
13
42.263852
23
171.996500
33
0.0
0
SOLID
8
DIM
10
147.094426
20
171.388500
30
0.0
11
143.894426
21
171.996500
31
0.0
12
143.894426
22
170.780500
32
0.0
13
143.894426
23
170.780500
33
0.0
0
TEXT
8
TEXT
10
93.079139
20
172.388500
30
0.0
40
2.5000
1
54.02
72
1
73
0
11
93.079139
21
172.388500
31
0.0
0
LINE
8
DIM
10
37.863852
20
183.388500
30
0.0
11
25.063852
21
183.388500
31
0.0
0
LINE
8
DIM
10
37.863852
20
190.988500
30
0.0
11
25.063852
21
190.988500
31
0.0
0
LINE
8
DIM
10
27.063852
20
183.388500
30
0.0
11
27.063852
21
190.988500
31
0.0
0
SOLID
8
DIM
10
27.063852
20
183.388500
30
0.0
11
26.455852
21
180.188500
31
0.0
12
27.671852
22
180.188500
32
0.0
13
27.671852
23
180.188500
33
0.0
0
SOLID
8
DIM
10
27.063852
20
190.988500
30
0.0
11
27.671852
21
194.188500
31
0.0
12
26.455852
22
194.188500
32
0.0
13
26.455852
23
194.188500
33
0.0
0
LINE
8
DIM
10
27.063852
20
190.988500
30
0.0
11
27.063852
21
200.588500
31
0.0
0
TEXT
8
TEXT
10
26.063852
20
201.388500
30
0.0
40
2.5000
1
3.80
50
90.0000
0
TEXT
8
TEXT
10
93.079139
20
159.388500
30
0.0
40
4.0000
1
TOP VIEW
72
1
73
0
11
93.079139
21
159.388500
31
0.0
0
LINE
8
TEXT
10
83.479139
20
157.788500
30
0.0
11
102.679139
21
157.788500
31
0.0
0
TEXT
8
TEXT
10
93.079139
20
153.388500
30
0.0
40
2.4000
1
X →   Y ↑
72
1
73
0
11
93.079139
21
153.388500
31
0.0
0
LINE
8
DIM
10
190.094426
20
107.637500
30
0.0
11
190.094426
21
94.837500
31
0.0
0
LINE
8
DIM
10
298.125000
20
107.637500
30
0.0
11
298.125000
21
94.837500
31
0.0
0
LINE
8
DIM
10
190.094426
20
96.837500
30
0.0
11
298.125000
21
96.837500
31
0.0
0
SOLID
8
DIM
10
190.094426
20
96.837500
30
0.0
11
193.294426
21
96.229500
31
0.0
12
193.294426
22
97.445500
32
0.0
13
193.294426
23
97.445500
33
0.0
0
SOLID
8
DIM
10
298.125000
20
96.837500
30
0.0
11
294.925000
21
97.445500
31
0.0
12
294.925000
22
96.229500
32
0.0
13
294.925000
23
96.229500
33
0.0
0
TEXT
8
TEXT
10
244.109713
20
97.837500
30
0.0
40
2.5000
1
54.02
72
1
73
0
11
244.109713
21
97.837500
31
0.0
0
LINE
8
DIM
10
188.894426
20
108.837500
30
0.0
11
176.094426
21
108.837500
31
0.0
0
LINE
8
DIM
10
188.894426
20
116.437500
30
0.0
11
176.094426
21
116.437500
31
0.0
0
LINE
8
DIM
10
178.094426
20
108.837500
30
0.0
11
178.094426
21
116.437500
31
0.0
0
SOLID
8
DIM
10
178.094426
20
108.837500
30
0.0
11
177.486426
21
105.637500
31
0.0
12
178.702426
22
105.637500
32
0.0
13
178.702426
23
105.637500
33
0.0
0
SOLID
8
DIM
10
178.094426
20
116.437500
30
0.0
11
178.702426
21
119.637500
31
0.0
12
177.486426
22
119.637500
32
0.0
13
177.486426
23
119.637500
33
0.0
0
LINE
8
DIM
10
178.094426
20
116.437500
30
0.0
11
178.094426
21
126.037500
31
0.0
0
TEXT
8
TEXT
10
177.094426
20
126.837500
30
0.0
40
2.5000
1
3.80
50
90.0000
0
LINE
8
HATCH
10
191.935710
20
113.437500
30
0.0
11
191.935713
21
113.437503
31
0.0
0
LINE
8
HATCH
10
190.094939
20
115.839370
30
0.0
11
190.693070
21
116.437500
31
0.0
0
LINE
8
HATCH
10
224.129710
20
113.437500
30
0.0
11
224.129713
21
113.437503
31
0.0
0
LINE
8
HATCH
10
219.887070
20
113.437500
30
0.0
11
222.887070
21
116.437500
31
0.0
0
LINE
8
HATCH
10
215.644429
20
113.437500
30
0.0
11
218.644429
21
116.437500
31
0.0
0
LINE
8
HATCH
10
211.401788
20
113.437500
30
0.0
11
214.401788
21
116.437500
31
0.0
0
LINE
8
HATCH
10
207.159147
20
113.437500
30
0.0
11
210.159147
21
116.437500
31
0.0
0
LINE
8
HATCH
10
202.916507
20
113.437500
30
0.0
11
205.916507
21
116.437500
31
0.0
0
LINE
8
HATCH
10
198.673866
20
113.437500
30
0.0
11
201.673866
21
116.437500
31
0.0
0
LINE
8
HATCH
10
196.283713
20
115.289988
30
0.0
11
197.431225
21
116.437500
31
0.0
0
LINE
8
HATCH
10
291.935710
20
113.437500
30
0.0
11
291.935713
21
113.437503
31
0.0
0
LINE
8
HATCH
10
287.693070
20
113.437500
30
0.0
11
290.693070
21
116.437500
31
0.0
0
LINE
8
HATCH
10
283.450429
20
113.437500
30
0.0
11
286.450429
21
116.437500
31
0.0
0
LINE
8
HATCH
10
279.207788
20
113.437500
30
0.0
11
282.207788
21
116.437500
31
0.0
0
LINE
8
HATCH
10
274.965147
20
113.437500
30
0.0
11
277.965147
21
116.437500
31
0.0
0
LINE
8
HATCH
10
270.722507
20
113.437500
30
0.0
11
273.722507
21
116.437500
31
0.0
0
LINE
8
HATCH
10
266.479866
20
113.437500
30
0.0
11
269.479866
21
116.437500
31
0.0
0
LINE
8
HATCH
10
262.237225
20
113.437500
30
0.0
11
265.237225
21
116.437500
31
0.0
0
LINE
8
HATCH
10
257.994585
20
113.437500
30
0.0
11
260.994585
21
116.437500
31
0.0
0
LINE
8
HATCH
10
253.751944
20
113.437500
30
0.0
11
256.751944
21
116.437500
31
0.0
0
LINE
8
HATCH
10
249.509303
20
113.437500
30
0.0
11
252.509303
21
116.437500
31
0.0
0
LINE
8
HATCH
10
248.089713
20
116.260550
30
0.0
11
248.266663
21
116.437500
31
0.0
0
LINE
8
HATCH
10
298.124484
20
113.437500
30
0.0
11
298.124487
21
113.437503
31
0.0
0
LINE
8
HATCH
10
296.283713
20
115.839370
30
0.0
11
296.881843
21
116.437500
31
0.0
0
LINE
8
DIM
10
296.283713
20
114.662502
30
0.0
11
296.283713
21
125.437500
31
0.0
0
LINE
8
DIM
10
298.124487
20
114.662502
30
0.0
11
298.124487
21
125.437500
31
0.0
0
LINE
8
DIM
10
296.283713
20
123.437500
30
0.0
11
298.124487
21
123.437500
31
0.0
0
SOLID
8
DIM
10
296.283713
20
123.437500
30
0.0
11
293.083713
21
124.045500
31
0.0
12
293.083713
22
122.829500
32
0.0
13
293.083713
23
122.829500
33
0.0
0
SOLID
8
DIM
10
298.124487
20
123.437500
30
0.0
11
301.324487
21
122.829500
31
0.0
12
301.324487
22
124.045500
32
0.0
13
301.324487
23
124.045500
33
0.0
0
LINE
8
DIM
10
298.124487
20
123.437500
30
0.0
11
307.724487
21
123.437500
31
0.0
0
TEXT
8
TEXT
10
308.524487
20
123.837500
30
0.0
40
2.5000
1
0.92 WALL
0
LINE
8
DIM
10
192.195188
20
113.437500
30
0.0
11
333.125000
21
113.437500
31
0.0
0
LINE
8
DIM
10
192.195188
20
116.437500
30
0.0
11
333.125000
21
116.437500
31
0.0
0
LINE
8
DIM
10
331.125000
20
113.437500
30
0.0
11
331.125000
21
116.437500
31
0.0
0
SOLID
8
DIM
10
331.125000
20
113.437500
30
0.0
11
330.517000
21
110.237500
31
0.0
12
331.733000
22
110.237500
32
0.0
13
331.733000
23
110.237500
33
0.0
0
SOLID
8
DIM
10
331.125000
20
116.437500
30
0.0
11
331.733000
21
119.637500
31
0.0
12
330.517000
22
119.637500
32
0.0
13
330.517000
23
119.637500
33
0.0
0
LINE
8
DIM
10
331.125000
20
116.437500
30
0.0
11
331.125000
21
126.037500
31
0.0
0
TEXT
8
TEXT
10
330.125000
20
126.837500
30
0.0
40
2.5000
1
1.50 WALL
50
90.0000
0
TEXT
8
TEXT
10
244.109713
20
84.837500
30
0.0
40
4.0000
1
SECTION A-A
72
1
73
0
11
244.109713
21
84.837500
31
0.0
0
LINE
8
TEXT
10
230.909713
20
83.237500
30
0.0
11
257.309713
21
83.237500
31
0.0
0
LINE
8
CUT
10
30.063852
20
115.237500
30
0.0
11
44.063852
21
115.237500
31
0.0
0
LINE
8
CUTTHIN
10
44.063852
20
115.237500
30
0.0
11
142.094426
21
115.237500
31
0.0
0
LINE
8
CUT
10
142.094426
20
115.237500
30
0.0
11
156.094426
21
115.237500
31
0.0
0
LINE
8
CUT
10
30.063852
20
115.237500
30
0.0
11
30.063852
21
106.237500
31
0.0
0
SOLID
8
CUT
10
30.063852
20
106.237500
30
0.0
11
30.861852
21
110.437500
31
0.0
12
29.265852
22
110.437500
32
0.0
13
29.265852
23
110.437500
33
0.0
0
TEXT
8
TEXT
10
30.063852
20
120.237500
30
0.0
40
4.0000
1
A
72
1
73
2
11
30.063852
21
120.237500
31
0.0
0
LINE
8
CUT
10
156.094426
20
115.237500
30
0.0
11
156.094426
21
106.237500
31
0.0
0
SOLID
8
CUT
10
156.094426
20
106.237500
30
0.0
11
156.892426
21
110.437500
31
0.0
12
155.296426
22
110.437500
32
0.0
13
155.296426
23
110.437500
33
0.0
0
TEXT
8
TEXT
10
156.094426
20
120.237500
30
0.0
40
4.0000
1
A
72
1
73
2
11
156.094426
21
120.237500
31
0.0
0
TEXT
8
TEXT
10
334.000000
20
275.000000
30
0.0
40
3.0000
1
NOTES
0
TEXT
8
TEXT
10
334.000000
20
270.400000
30
0.0
40
2.4000
1
1. ALL DIMENSIONS IN mm AND DEGREES. EVERY
0
TEXT
8
TEXT
10
334.000000
20
266.680000
30
0.0
40
2.4000
1
   DIMENSION AND EVERY HOLE CALLOUT WAS MEASURED
0
TEXT
8
TEXT
10
334.000000
20
262.960000
30
0.0
40
2.4000
1
   OFF THE SOLID.
0
TEXT
8
TEXT
10
334.000000
20
259.240000
30
0.0
40
2.4000
1
2. GENERAL TOLERANCE: CANNOT DETERMINE — THIS PART
0
TEXT
8
TEXT
10
334.000000
20
255.520000
30
0.0
40
2.4000
1
   DECLARES NO PROCESS THIS REPO CAN READ.
0
TEXT
8
TEXT
10
334.000000
20
251.800000
30
0.0
40
2.4000
1
3. SECTION A-A AT Z=53.60: THINNEST MATERIAL FOUND
0
TEXT
8
TEXT
10
334.000000
20
248.080000
30
0.0
40
2.4000
1
   BY SCAN 0.92 mm, AT X=26.55, Y=35.01.
0
LINE
8
FRAME
10
224.000000
20
10.000000
30
0.0
11
410.000000
21
10.000000
31
0.0
0
LINE
8
FRAME
10
410.000000
20
10.000000
30
0.0
11
410.000000
21
66.000000
31
0.0
0
LINE
8
FRAME
10
410.000000
20
66.000000
30
0.0
11
224.000000
21
66.000000
31
0.0
0
LINE
8
FRAME
10
224.000000
20
66.000000
30
0.0
11
224.000000
21
10.000000
31
0.0
0
LINE
8
TITLE
10
224.000000
20
53.000000
30
0.0
11
410.000000
21
53.000000
31
0.0
0
LINE
8
TITLE
10
224.000000
20
19.000000
30
0.0
11
410.000000
21
19.000000
31
0.0
0
LINE
8
TITLE
10
224.000000
20
27.500000
30
0.0
11
410.000000
21
27.500000
31
0.0
0
LINE
8
TITLE
10
224.000000
20
36.000000
30
0.0
11
410.000000
21
36.000000
31
0.0
0
LINE
8
TITLE
10
224.000000
20
44.500000
30
0.0
11
410.000000
21
44.500000
31
0.0
0
TEXT
8
TEXT
10
226.500000
20
59.500000
30
0.0
40
6.0000
1
MICRODUCK-BANANA-PCB-LOCKER
72
0
73
2
11
226.500000
21
59.500000
31
0.0
0
LINE
8
TITLE
10
390.000000
20
53.000000
30
0.0
11
390.000000
21
66.000000
31
0.0
0
TEXT
8
TITLE
10
400.000000
20
63.600000
30
0.0
40
1.7000
1
REV
72
1
73
0
11
400.000000
21
63.600000
31
0.0
0
TEXT
8
TEXT
10
400.000000
20
55.000000
30
0.0
40
5.2000
1
A
72
1
73
0
11
400.000000
21
55.000000
31
0.0
0
LINE
8
TITLE
10
360.000000
20
53.000000
30
0.0
11
360.000000
21
66.000000
31
0.0
0
CIRCLE
8
TITLE
10
366.500000
20
59.500000
30
0.0
40
3.500000
0
CIRCLE
8
TITLE
10
366.500000
20
59.500000
30
0.0
40
1.960000
0
LINE
8
TITLE
10
376.300000
20
56.000000
30
0.0
11
376.300000
21
63.000000
31
0.0
0
LINE
8
TITLE
10
376.300000
20
63.000000
30
0.0
11
382.250000
21
61.460000
31
0.0
0
LINE
8
TITLE
10
382.250000
20
61.460000
30
0.0
11
382.250000
21
57.540000
31
0.0
0
LINE
8
TITLE
10
382.250000
20
57.540000
30
0.0
11
376.300000
21
56.000000
31
0.0
0
LINE
8
CENTER
10
361.500000
20
59.500000
30
0.0
11
383.750000
21
59.500000
31
0.0
0
LINE
8
TITLE
10
288.000000
20
19.000000
30
0.0
11
288.000000
21
53.000000
31
0.0
0
LINE
8
TITLE
10
352.000000
20
19.000000
30
0.0
11
352.000000
21
53.000000
31
0.0
0
TEXT
8
TITLE
10
225.600000
20
50.600000
30
0.0
40
1.7000
1
MATERIAL
0
TEXT
8
TEXT
10
225.600000
20
45.900000
30
0.0
40
2.5000
1
PLA
0
TEXT
8
TITLE
10
289.600000
20
50.600000
30
0.0
40
1.7000
1
PROCESS
0
TEXT
8
TEXT
10
289.600000
20
45.900000
30
0.0
40
2.5000
1
-
0
TEXT
8
TITLE
10
353.600000
20
50.600000
30
0.0
40
1.7000
1
SCALE
0
TEXT
8
TEXT
10
353.600000
20
45.900000
30
0.0
40
2.5000
1
2:1
0
TEXT
8
TITLE
10
225.600000
20
42.100000
30
0.0
40
1.7000
1
CATEGORY
0
TEXT
8
TEXT
10
225.600000
20
37.400000
30
0.0
40
2.5000
1
-
0
TEXT
8
TITLE
10
257.600000
20
42.100000
30
0.0
40
1.7000
1
GENERAL TOL
0
TEXT
8
TEXT
10
257.600000
20
37.400000
30
0.0
40
2.5000
1
SEE NOTES
0
LINE
8
TITLE
10
256.000000
20
36.000000
30
0.0
11
256.000000
21
44.500000
31
0.0
0
TEXT
8
TITLE
10
289.600000
20
42.100000
30
0.0
40
1.7000
1
FINISH
0
TEXT
8
TEXT
10
289.600000
20
37.400000
30
0.0
40
2.5000
1
AS PRINTED
0
TEXT
8
TITLE
10
353.600000
20
42.100000
30
0.0
40
1.7000
1
SHEET
0
TEXT
8
TEXT
10
353.600000
20
37.400000
30
0.0
40
2.5000
1
A3  1/1
0
TEXT
8
TITLE
10
225.600000
20
33.600000
30
0.0
40
1.7000
1
VOLUME (MEASURED)
0
TEXT
8
TEXT
10
225.600000
20
28.900000
30
0.0
40
2.5000
1
0.46 cm3
0
TEXT
8
TITLE
10
289.600000
20
33.600000
30
0.0
40
1.7000
1
MASS (ASSUMES PLA)
0
TEXT
8
TEXT
10
289.600000
20
28.900000
30
0.0
40
2.5000
1
0.6 g
0
TEXT
8
TITLE
10
353.600000
20
33.600000
30
0.0
40
1.7000
1
UNITS
0
TEXT
8
TEXT
10
353.600000
20
28.900000
30
0.0
40
2.5000
1
mm / deg
0
TEXT
8
TITLE
10
225.600000
20
25.100000
30
0.0
40
1.7000
1
SIZE (BBOX, MEASURED)
0
TEXT
8
TEXT
10
225.600000
20
20.400000
30
0.0
40
2.5000
1
54.02 x 3.80 x 6.63
0
TEXT
8
TITLE
10
289.600000
20
25.100000
30
0.0
40
1.7000
1
DRAWN
0
TEXT
8
TEXT
10
289.600000
20
20.400000
30
0.0
40
2.5000
1
ce-cad  2026-09-02
0
TEXT
8
TITLE
10
353.600000
20
25.100000
30
0.0
40
1.7000
1
PROJECTION
0
TEXT
8
TEXT
10
353.600000
20
20.400000
30
0.0
40
2.5000
1
THIRD ANGLE
0
TEXT
8
TITLE
10
225.600000
20
16.600000
30
0.0
40
1.7000
1
SOURCE (DESIGN FILE)
0
TEXT
8
TEXT
10
225.600000
20
11.400000
30
0.0
40
2.6000
1
ce-parts/microduck-banana-pcb-locker/current/cad/part.py
0
TEXT
8
TEXT
10
12.500000
20
280.500000
30
0.0
40
4.2000
1
microduck-banana-pcb-locker   SCALE 2:1   A3   THIRD ANGLE
0
ENDSEC
0
EOF
