0
SECTION
2
HEADER
9
$ACADVER
1
AC1009
9
$INSUNITS
70
4
9
$LTSCALE
40
1.0
9
$EXTMIN
10
0.0000
20
0.0000
30
0.0
9
$EXTMAX
10
594.0000
20
420.0000
30
0.0
0
ENDSEC
0
SECTION
2
TABLES
0
TABLE
2
LTYPE
70
4
0
LTYPE
2
CONTINUOUS
70
0
3
Solid line
72
65
73
0
40
0.0000
0
LTYPE
2
HIDDEN
70
0
3
Hidden __ __ __ __
72
65
73
2
40
3.6000
49
2.4000
49
-1.2000
0
LTYPE
2
CENTER
70
0
3
Center ____ _ ____ _
72
65
73
4
40
11.2000
49
7.0000
49
-1.4000
49
1.4000
49
-1.4000
0
LTYPE
2
PHANTOM
70
0
3
Phantom ____ _ _ ____
72
65
73
6
40
21.0000
49
11.0000
49
-2.0000
49
2.0000
49
-2.0000
49
2.0000
49
-2.0000
0
ENDTAB
0
TABLE
2
LAYER
70
12
0
LAYER
2
0
70
0
62
7
6
CONTINUOUS
0
LAYER
2
VISIBLE
70
0
62
7
6
CONTINUOUS
0
LAYER
2
SECTION
70
0
62
7
6
CONTINUOUS
0
LAYER
2
HIDDEN
70
0
62
8
6
HIDDEN
0
LAYER
2
CENTER
70
0
62
4
6
CENTER
0
LAYER
2
DIM
70
0
62
3
6
CONTINUOUS
0
LAYER
2
TEXT
70
0
62
3
6
CONTINUOUS
0
LAYER
2
HATCH
70
0
62
5
6
CONTINUOUS
0
LAYER
2
CUT
70
0
62
1
6
PHANTOM
0
LAYER
2
CUTTHIN
70
0
62
1
6
PHANTOM
0
LAYER
2
FRAME
70
0
62
7
6
CONTINUOUS
0
LAYER
2
TITLE
70
0
62
7
6
CONTINUOUS
0
ENDTAB
0
ENDSEC
0
SECTION
2
ENTITIES
0
LINE
8
TITLE
10
5.000000
20
5.000000
30
0.0
11
589.000000
21
5.000000
31
0.0
0
LINE
8
TITLE
10
589.000000
20
5.000000
30
0.0
11
589.000000
21
415.000000
31
0.0
0
LINE
8
TITLE
10
589.000000
20
415.000000
30
0.0
11
5.000000
21
415.000000
31
0.0
0
LINE
8
TITLE
10
5.000000
20
415.000000
30
0.0
11
5.000000
21
5.000000
31
0.0
0
LINE
8
FRAME
10
10.000000
20
10.000000
30
0.0
11
584.000000
21
10.000000
31
0.0
0
LINE
8
FRAME
10
584.000000
20
10.000000
30
0.0
11
584.000000
21
410.000000
31
0.0
0
LINE
8
FRAME
10
584.000000
20
410.000000
30
0.0
11
10.000000
21
410.000000
31
0.0
0
LINE
8
FRAME
10
10.000000
20
410.000000
30
0.0
11
10.000000
21
10.000000
31
0.0
0
TEXT
8
TITLE
10
67.400000
20
412.500000
30
0.0
40
2.4000
1
1
72
1
73
2
11
67.400000
21
412.500000
31
0.0
0
TEXT
8
TITLE
10
67.400000
20
7.500000
30
0.0
40
2.4000
1
1
72
1
73
2
11
67.400000
21
7.500000
31
0.0
0
TEXT
8
TITLE
10
182.200000
20
412.500000
30
0.0
40
2.4000
1
2
72
1
73
2
11
182.200000
21
412.500000
31
0.0
0
TEXT
8
TITLE
10
182.200000
20
7.500000
30
0.0
40
2.4000
1
2
72
1
73
2
11
182.200000
21
7.500000
31
0.0
0
LINE
8
TITLE
10
124.800000
20
5.000000
30
0.0
11
124.800000
21
10.000000
31
0.0
0
LINE
8
TITLE
10
124.800000
20
410.000000
30
0.0
11
124.800000
21
415.000000
31
0.0
0
TEXT
8
TITLE
10
297.000000
20
412.500000
30
0.0
40
2.4000
1
3
72
1
73
2
11
297.000000
21
412.500000
31
0.0
0
TEXT
8
TITLE
10
297.000000
20
7.500000
30
0.0
40
2.4000
1
3
72
1
73
2
11
297.000000
21
7.500000
31
0.0
0
LINE
8
TITLE
10
239.600000
20
5.000000
30
0.0
11
239.600000
21
10.000000
31
0.0
0
LINE
8
TITLE
10
239.600000
20
410.000000
30
0.0
11
239.600000
21
415.000000
31
0.0
0
TEXT
8
TITLE
10
411.800000
20
412.500000
30
0.0
40
2.4000
1
4
72
1
73
2
11
411.800000
21
412.500000
31
0.0
0
TEXT
8
TITLE
10
411.800000
20
7.500000
30
0.0
40
2.4000
1
4
72
1
73
2
11
411.800000
21
7.500000
31
0.0
0
LINE
8
TITLE
10
354.400000
20
5.000000
30
0.0
11
354.400000
21
10.000000
31
0.0
0
LINE
8
TITLE
10
354.400000
20
410.000000
30
0.0
11
354.400000
21
415.000000
31
0.0
0
TEXT
8
TITLE
10
526.600000
20
412.500000
30
0.0
40
2.4000
1
5
72
1
73
2
11
526.600000
21
412.500000
31
0.0
0
TEXT
8
TITLE
10
526.600000
20
7.500000
30
0.0
40
2.4000
1
5
72
1
73
2
11
526.600000
21
7.500000
31
0.0
0
LINE
8
TITLE
10
469.200000
20
5.000000
30
0.0
11
469.200000
21
10.000000
31
0.0
0
LINE
8
TITLE
10
469.200000
20
410.000000
30
0.0
11
469.200000
21
415.000000
31
0.0
0
TEXT
8
TITLE
10
7.500000
20
60.000000
30
0.0
40
2.4000
1
D
72
1
73
2
11
7.500000
21
60.000000
31
0.0
0
TEXT
8
TITLE
10
586.500000
20
60.000000
30
0.0
40
2.4000
1
D
72
1
73
2
11
586.500000
21
60.000000
31
0.0
0
TEXT
8
TITLE
10
7.500000
20
160.000000
30
0.0
40
2.4000
1
C
72
1
73
2
11
7.500000
21
160.000000
31
0.0
0
TEXT
8
TITLE
10
586.500000
20
160.000000
30
0.0
40
2.4000
1
C
72
1
73
2
11
586.500000
21
160.000000
31
0.0
0
LINE
8
TITLE
10
5.000000
20
110.000000
30
0.0
11
10.000000
21
110.000000
31
0.0
0
LINE
8
TITLE
10
584.000000
20
110.000000
30
0.0
11
589.000000
21
110.000000
31
0.0
0
TEXT
8
TITLE
10
7.500000
20
260.000000
30
0.0
40
2.4000
1
B
72
1
73
2
11
7.500000
21
260.000000
31
0.0
0
TEXT
8
TITLE
10
586.500000
20
260.000000
30
0.0
40
2.4000
1
B
72
1
73
2
11
586.500000
21
260.000000
31
0.0
0
LINE
8
TITLE
10
5.000000
20
210.000000
30
0.0
11
10.000000
21
210.000000
31
0.0
0
LINE
8
TITLE
10
584.000000
20
210.000000
30
0.0
11
589.000000
21
210.000000
31
0.0
0
TEXT
8
TITLE
10
7.500000
20
360.000000
30
0.0
40
2.4000
1
A
72
1
73
2
11
7.500000
21
360.000000
31
0.0
0
TEXT
8
TITLE
10
586.500000
20
360.000000
30
0.0
40
2.4000
1
A
72
1
73
2
11
586.500000
21
360.000000
31
0.0
0
LINE
8
TITLE
10
5.000000
20
310.000000
30
0.0
11
10.000000
21
310.000000
31
0.0
0
LINE
8
TITLE
10
584.000000
20
310.000000
30
0.0
11
589.000000
21
310.000000
31
0.0
0
LINE
8
VISIBLE
10
226.498357
20
172.724500
30
0.0
11
180.486357
21
172.724500
31
0.0
0
LINE
8
VISIBLE
10
229.865472
20
175.865521
30
0.0
11
226.498357
21
172.724500
31
0.0
0
LINE
8
VISIBLE
10
180.486357
20
172.724500
30
0.0
11
177.119241
21
175.865521
31
0.0
0
LINE
8
VISIBLE
10
230.069314
20
176.086351
30
0.0
11
229.865472
21
175.865521
31
0.0
0
LINE
8
VISIBLE
10
230.238008
20
176.335068
30
0.0
11
230.069314
21
176.086351
31
0.0
0
LINE
8
VISIBLE
10
230.367793
20
176.606127
30
0.0
11
230.238008
21
176.335068
31
0.0
0
LINE
8
VISIBLE
10
177.119241
20
175.865521
30
0.0
11
176.915399
21
176.086351
31
0.0
0
LINE
8
VISIBLE
10
230.455778
20
176.893489
30
0.0
11
230.367793
21
176.606127
31
0.0
0
LINE
8
VISIBLE
10
176.915399
20
176.086351
30
0.0
11
176.746705
21
176.335068
31
0.0
0
LINE
8
VISIBLE
10
230.500000
20
177.190746
30
0.0
11
230.455778
21
176.893489
31
0.0
0
LINE
8
VISIBLE
10
176.746705
20
176.335068
30
0.0
11
176.616920
21
176.606127
31
0.0
0
LINE
8
VISIBLE
10
230.499474
20
177.491275
30
0.0
11
230.500000
21
177.190746
31
0.0
0
LINE
8
VISIBLE
10
176.616920
20
176.606127
30
0.0
11
176.528935
21
176.893489
31
0.0
0
LINE
8
VISIBLE
10
230.454213
20
177.788376
30
0.0
11
230.499474
21
177.491275
31
0.0
0
LINE
8
VISIBLE
10
176.528935
20
176.893489
30
0.0
11
176.484713
21
177.190746
31
0.0
0
LINE
8
VISIBLE
10
230.365224
20
178.075428
30
0.0
11
230.454213
21
177.788376
31
0.0
0
LINE
8
VISIBLE
10
176.484713
20
177.190746
30
0.0
11
176.485239
21
177.491275
31
0.0
0
LINE
8
VISIBLE
10
230.234491
20
178.346032
30
0.0
11
230.365224
21
178.075428
31
0.0
0
LINE
8
VISIBLE
10
176.485239
20
177.491275
30
0.0
11
176.530500
21
177.788376
31
0.0
0
LINE
8
VISIBLE
10
230.064928
20
178.594157
30
0.0
11
230.234491
21
178.346032
31
0.0
0
LINE
8
VISIBLE
10
176.530500
20
177.788376
30
0.0
11
176.619489
21
178.075428
31
0.0
0
LINE
8
VISIBLE
10
229.860315
20
178.814273
30
0.0
11
230.064928
21
178.594157
31
0.0
0
LINE
8
VISIBLE
10
176.619489
20
178.075428
30
0.0
11
176.750222
21
178.346032
31
0.0
0
LINE
8
VISIBLE
10
229.625211
20
179.001474
30
0.0
11
229.860315
21
178.814273
31
0.0
0
LINE
8
VISIBLE
10
176.750222
20
178.346032
30
0.0
11
176.919785
21
178.594157
31
0.0
0
LINE
8
VISIBLE
10
229.364858
20
179.151587
30
0.0
11
229.625211
21
179.001474
31
0.0
0
LINE
8
VISIBLE
10
176.919785
20
178.594157
30
0.0
11
177.124398
21
178.814273
31
0.0
0
LINE
8
VISIBLE
10
229.085058
20
179.261266
30
0.0
11
229.364858
21
179.151587
31
0.0
0
LINE
8
VISIBLE
10
177.124398
20
178.814273
30
0.0
11
177.359502
21
179.001474
31
0.0
0
LINE
8
VISIBLE
10
228.792047
20
179.328066
30
0.0
11
229.085058
21
179.261266
31
0.0
0
LINE
8
VISIBLE
10
177.359502
20
179.001474
30
0.0
11
177.619855
21
179.151587
31
0.0
0
LINE
8
VISIBLE
10
228.492357
20
179.350500
30
0.0
11
228.792047
21
179.328066
31
0.0
0
LINE
8
VISIBLE
10
177.619855
20
179.151587
30
0.0
11
177.899655
21
179.261266
31
0.0
0
LINE
8
VISIBLE
10
215.482357
20
179.350500
30
0.0
11
228.492357
21
179.350500
31
0.0
0
LINE
8
VISIBLE
10
177.899655
20
179.261266
30
0.0
11
178.192666
21
179.328066
31
0.0
0
LINE
8
VISIBLE
10
215.092176
20
179.312071
30
0.0
11
215.482357
21
179.350500
31
0.0
0
LINE
8
VISIBLE
10
178.192666
20
179.328066
30
0.0
11
178.492357
21
179.350500
31
0.0
0
LINE
8
VISIBLE
10
214.716990
20
179.198259
30
0.0
11
215.092176
21
179.312071
31
0.0
0
LINE
8
VISIBLE
10
178.492357
20
179.350500
30
0.0
11
199.502357
21
179.350500
31
0.0
0
LINE
8
VISIBLE
10
214.371216
20
179.013439
30
0.0
11
214.716990
21
179.198259
31
0.0
0
LINE
8
VISIBLE
10
199.502357
20
179.350500
30
0.0
11
199.892537
21
179.312071
31
0.0
0
LINE
8
VISIBLE
10
214.068143
20
178.764714
30
0.0
11
214.371216
21
179.013439
31
0.0
0
LINE
8
VISIBLE
10
199.892537
20
179.312071
30
0.0
11
200.267723
21
179.198259
31
0.0
0
LINE
8
VISIBLE
10
213.819417
20
178.461640
30
0.0
11
214.068143
21
178.764714
31
0.0
0
LINE
8
VISIBLE
10
200.267723
20
179.198259
30
0.0
11
200.613497
21
179.013439
31
0.0
0
LINE
8
VISIBLE
10
213.634597
20
178.115867
30
0.0
11
213.819417
21
178.461640
31
0.0
0
LINE
8
VISIBLE
10
200.613497
20
179.013439
30
0.0
11
200.916570
21
178.764714
31
0.0
0
LINE
8
VISIBLE
10
213.520786
20
177.740681
30
0.0
11
213.634597
21
178.115867
31
0.0
0
LINE
8
VISIBLE
10
200.916570
20
178.764714
30
0.0
11
201.165296
21
178.461640
31
0.0
0
LINE
8
VISIBLE
10
213.482357
20
177.350500
30
0.0
11
213.520786
21
177.740681
31
0.0
0
LINE
8
VISIBLE
10
201.165296
20
178.461640
30
0.0
11
201.350116
21
178.115867
31
0.0
0
LINE
8
VISIBLE
10
213.482357
20
176.854500
30
0.0
11
213.482357
21
177.350500
31
0.0
0
LINE
8
VISIBLE
10
201.350116
20
178.115867
30
0.0
11
201.463927
21
177.740681
31
0.0
0
LINE
8
VISIBLE
10
213.448282
20
176.595681
30
0.0
11
213.482357
21
176.854500
31
0.0
0
LINE
8
VISIBLE
10
201.463927
20
177.740681
30
0.0
11
201.502357
21
177.350500
31
0.0
0
LINE
8
VISIBLE
10
213.348382
20
176.354500
30
0.0
11
213.448282
21
176.595681
31
0.0
0
LINE
8
VISIBLE
10
201.502357
20
177.350500
30
0.0
11
201.502357
21
176.854500
31
0.0
0
LINE
8
VISIBLE
10
213.189463
20
176.147393
30
0.0
11
213.348382
21
176.354500
31
0.0
0
LINE
8
VISIBLE
10
201.502357
20
176.854500
30
0.0
11
201.536431
21
176.595681
31
0.0
0
LINE
8
VISIBLE
10
212.982357
20
175.988475
30
0.0
11
213.189463
21
176.147393
31
0.0
0
LINE
8
VISIBLE
10
201.536431
20
176.595681
30
0.0
11
201.636331
21
176.354500
31
0.0
0
LINE
8
VISIBLE
10
212.741176
20
175.888574
30
0.0
11
212.982357
21
175.988475
31
0.0
0
LINE
8
VISIBLE
10
201.636331
20
176.354500
30
0.0
11
201.795250
21
176.147393
31
0.0
0
LINE
8
VISIBLE
10
212.482357
20
175.854500
30
0.0
11
212.741176
21
175.888574
31
0.0
0
LINE
8
VISIBLE
10
201.795250
20
176.147393
30
0.0
11
202.002357
21
175.988475
31
0.0
0
LINE
8
VISIBLE
10
202.502357
20
175.854500
30
0.0
11
212.482357
21
175.854500
31
0.0
0
LINE
8
VISIBLE
10
202.002357
20
175.988475
30
0.0
11
202.243537
21
175.888574
31
0.0
0
LINE
8
VISIBLE
10
202.243537
20
175.888574
30
0.0
11
202.502357
21
175.854500
31
0.0
0
CIRCLE
8
VISIBLE
10
228.492357
20
177.337500
30
0.0
40
1.087000
0
CIRCLE
8
VISIBLE
10
178.492357
20
177.337500
30
0.0
40
1.087000
0
LINE
8
VISIBLE
10
221.625357
20
172.754500
30
0.0
11
219.159357
21
172.754500
31
0.0
0
LINE
8
VISIBLE
10
219.159357
20
172.754500
30
0.0
11
219.159357
21
174.720500
31
0.0
0
LINE
8
VISIBLE
10
221.625357
20
172.754500
30
0.0
11
221.625357
21
174.720500
31
0.0
0
LINE
8
VISIBLE
10
221.625357
20
174.720500
30
0.0
11
219.159357
21
174.720500
31
0.0
0
LINE
8
VISIBLE
10
187.825357
20
172.754500
30
0.0
11
185.359357
21
172.754500
31
0.0
0
LINE
8
VISIBLE
10
185.359357
20
172.754500
30
0.0
11
185.359357
21
174.720500
31
0.0
0
LINE
8
VISIBLE
10
187.825357
20
174.720500
30
0.0
11
185.359357
21
174.720500
31
0.0
0
LINE
8
VISIBLE
10
187.825357
20
172.754500
30
0.0
11
187.825357
21
174.720500
31
0.0
0
LINE
8
VISIBLE
10
180.486357
20
245.775500
30
0.0
11
180.486357
21
247.275500
31
0.0
0
LINE
8
VISIBLE
10
226.498357
20
245.775500
30
0.0
11
226.498357
21
247.275500
31
0.0
0
LINE
8
VISIBLE
10
180.486357
20
245.775500
30
0.0
11
226.498357
21
245.775500
31
0.0
0
LINE
8
VISIBLE
10
180.486357
20
247.275500
30
0.0
11
226.498357
21
247.275500
31
0.0
0
LINE
8
VISIBLE
10
177.119241
20
245.775500
30
0.0
11
177.119241
21
247.275500
31
0.0
0
LINE
8
VISIBLE
10
177.119241
20
245.775500
30
0.0
11
180.486357
21
245.775500
31
0.0
0
LINE
8
VISIBLE
10
177.119241
20
247.275500
30
0.0
11
180.486357
21
247.275500
31
0.0
0
LINE
8
VISIBLE
10
229.865472
20
245.775500
30
0.0
11
229.865472
21
247.275500
31
0.0
0
LINE
8
VISIBLE
10
226.498357
20
245.775500
30
0.0
11
229.865472
21
245.775500
31
0.0
0
LINE
8
VISIBLE
10
226.498357
20
247.275500
30
0.0
11
229.865472
21
247.275500
31
0.0
0
LINE
8
VISIBLE
10
176.915399
20
245.775500
30
0.0
11
177.119241
21
245.775500
31
0.0
0
LINE
8
VISIBLE
10
176.746705
20
245.775500
30
0.0
11
176.915399
21
245.775500
31
0.0
0
LINE
8
VISIBLE
10
176.616920
20
245.775500
30
0.0
11
176.746705
21
245.775500
31
0.0
0
LINE
8
VISIBLE
10
229.865472
20
245.775500
30
0.0
11
230.069314
21
245.775500
31
0.0
0
LINE
8
VISIBLE
10
176.528935
20
245.775500
30
0.0
11
176.616920
21
245.775500
31
0.0
0
LINE
8
VISIBLE
10
230.069314
20
245.775500
30
0.0
11
230.238008
21
245.775500
31
0.0
0
LINE
8
VISIBLE
10
176.484713
20
245.775500
30
0.0
11
176.528935
21
245.775500
31
0.0
0
LINE
8
VISIBLE
10
230.238008
20
245.775500
30
0.0
11
230.367793
21
245.775500
31
0.0
0
LINE
8
VISIBLE
10
230.367793
20
245.775500
30
0.0
11
230.455778
21
245.775500
31
0.0
0
LINE
8
VISIBLE
10
230.455778
20
245.775500
30
0.0
11
230.500000
21
245.775500
31
0.0
0
LINE
8
VISIBLE
10
176.915399
20
247.275500
30
0.0
11
177.119241
21
247.275500
31
0.0
0
LINE
8
VISIBLE
10
176.746705
20
247.275500
30
0.0
11
176.915399
21
247.275500
31
0.0
0
LINE
8
VISIBLE
10
176.616920
20
247.275500
30
0.0
11
176.746705
21
247.275500
31
0.0
0
LINE
8
VISIBLE
10
229.865472
20
247.275500
30
0.0
11
230.069314
21
247.275500
31
0.0
0
LINE
8
VISIBLE
10
176.528935
20
247.275500
30
0.0
11
176.616920
21
247.275500
31
0.0
0
LINE
8
VISIBLE
10
230.069314
20
247.275500
30
0.0
11
230.238008
21
247.275500
31
0.0
0
LINE
8
VISIBLE
10
176.484713
20
247.275500
30
0.0
11
176.528935
21
247.275500
31
0.0
0
LINE
8
VISIBLE
10
230.238008
20
247.275500
30
0.0
11
230.367793
21
247.275500
31
0.0
0
LINE
8
VISIBLE
10
230.367793
20
247.275500
30
0.0
11
230.455778
21
247.275500
31
0.0
0
LINE
8
VISIBLE
10
230.455778
20
247.275500
30
0.0
11
230.500000
21
247.275500
31
0.0
0
LINE
8
VISIBLE
10
176.915399
20
245.775500
30
0.0
11
176.915399
21
247.275500
31
0.0
0
LINE
8
VISIBLE
10
230.069314
20
245.775500
30
0.0
11
230.069314
21
247.275500
31
0.0
0
LINE
8
VISIBLE
10
176.746705
20
245.775500
30
0.0
11
176.746705
21
247.275500
31
0.0
0
LINE
8
VISIBLE
10
176.616920
20
245.775500
30
0.0
11
176.616920
21
247.275500
31
0.0
0
LINE
8
VISIBLE
10
176.528935
20
245.775500
30
0.0
11
176.528935
21
247.275500
31
0.0
0
LINE
8
VISIBLE
10
230.238008
20
245.775500
30
0.0
11
230.238008
21
247.275500
31
0.0
0
LINE
8
VISIBLE
10
176.484713
20
245.775500
30
0.0
11
176.484713
21
247.275500
31
0.0
0
LINE
8
VISIBLE
10
230.367793
20
245.775500
30
0.0
11
230.367793
21
247.275500
31
0.0
0
LINE
8
VISIBLE
10
230.455778
20
245.775500
30
0.0
11
230.455778
21
247.275500
31
0.0
0
LINE
8
VISIBLE
10
230.500000
20
245.775500
30
0.0
11
230.500000
21
247.275500
31
0.0
0
LINE
8
VISIBLE
10
185.359357
20
243.475500
30
0.0
11
185.359357
21
245.775500
31
0.0
0
LINE
8
VISIBLE
10
187.825357
20
243.475500
30
0.0
11
187.825357
21
245.775500
31
0.0
0
LINE
8
VISIBLE
10
185.359357
20
243.475500
30
0.0
11
187.825357
21
243.475500
31
0.0
0
LINE
8
VISIBLE
10
219.159357
20
243.475500
30
0.0
11
219.159357
21
245.775500
31
0.0
0
LINE
8
VISIBLE
10
221.625357
20
243.475500
30
0.0
11
221.625357
21
245.775500
31
0.0
0
LINE
8
VISIBLE
10
219.159357
20
243.475500
30
0.0
11
221.625357
21
243.475500
31
0.0
0
LINE
8
HIDDEN
10
176.485239
20
245.775500
30
0.0
11
176.484713
21
245.775500
31
0.0
0
LINE
8
HIDDEN
10
176.530500
20
245.775500
30
0.0
11
176.485239
21
245.775500
31
0.0
0
LINE
8
HIDDEN
10
176.619489
20
245.775500
30
0.0
11
176.530500
21
245.775500
31
0.0
0
LINE
8
HIDDEN
10
230.500000
20
245.775500
30
0.0
11
230.499474
21
245.775500
31
0.0
0
LINE
8
HIDDEN
10
176.750222
20
245.775500
30
0.0
11
176.619489
21
245.775500
31
0.0
0
LINE
8
HIDDEN
10
230.499474
20
245.775500
30
0.0
11
230.454213
21
245.775500
31
0.0
0
LINE
8
HIDDEN
10
176.919785
20
245.775500
30
0.0
11
176.750222
21
245.775500
31
0.0
0
LINE
8
HIDDEN
10
230.454213
20
245.775500
30
0.0
11
230.365224
21
245.775500
31
0.0
0
LINE
8
HIDDEN
10
177.124398
20
245.775500
30
0.0
11
176.919785
21
245.775500
31
0.0
0
LINE
8
HIDDEN
10
230.365224
20
245.775500
30
0.0
11
230.234491
21
245.775500
31
0.0
0
LINE
8
HIDDEN
10
177.359502
20
245.775500
30
0.0
11
177.124398
21
245.775500
31
0.0
0
LINE
8
HIDDEN
10
230.234491
20
245.775500
30
0.0
11
230.064928
21
245.775500
31
0.0
0
LINE
8
HIDDEN
10
177.619855
20
245.775500
30
0.0
11
177.359502
21
245.775500
31
0.0
0
LINE
8
HIDDEN
10
230.064928
20
245.775500
30
0.0
11
229.860315
21
245.775500
31
0.0
0
LINE
8
HIDDEN
10
177.899655
20
245.775500
30
0.0
11
177.619855
21
245.775500
31
0.0
0
LINE
8
HIDDEN
10
229.860315
20
245.775500
30
0.0
11
229.625211
21
245.775500
31
0.0
0
LINE
8
HIDDEN
10
178.192666
20
245.775500
30
0.0
11
177.899655
21
245.775500
31
0.0
0
LINE
8
HIDDEN
10
229.625211
20
245.775500
30
0.0
11
229.364858
21
245.775500
31
0.0
0
LINE
8
HIDDEN
10
178.492357
20
245.775500
30
0.0
11
178.192666
21
245.775500
31
0.0
0
LINE
8
HIDDEN
10
229.364858
20
245.775500
30
0.0
11
229.085058
21
245.775500
31
0.0
0
LINE
8
HIDDEN
10
191.502357
20
245.775500
30
0.0
11
178.492357
21
245.775500
31
0.0
0
LINE
8
HIDDEN
10
229.085058
20
245.775500
30
0.0
11
228.792047
21
245.775500
31
0.0
0
LINE
8
HIDDEN
10
191.892537
20
245.775500
30
0.0
11
191.502357
21
245.775500
31
0.0
0
LINE
8
HIDDEN
10
228.792047
20
245.775500
30
0.0
11
228.492357
21
245.775500
31
0.0
0
LINE
8
HIDDEN
10
192.267723
20
245.775500
30
0.0
11
191.892537
21
245.775500
31
0.0
0
LINE
8
HIDDEN
10
228.492357
20
245.775500
30
0.0
11
207.482357
21
245.775500
31
0.0
0
LINE
8
HIDDEN
10
192.613497
20
245.775500
30
0.0
11
192.267723
21
245.775500
31
0.0
0
LINE
8
HIDDEN
10
207.482357
20
245.775500
30
0.0
11
207.092176
21
245.775500
31
0.0
0
LINE
8
HIDDEN
10
192.916570
20
245.775500
30
0.0
11
192.613497
21
245.775500
31
0.0
0
LINE
8
HIDDEN
10
207.092176
20
245.775500
30
0.0
11
206.716990
21
245.775500
31
0.0
0
LINE
8
HIDDEN
10
193.165296
20
245.775500
30
0.0
11
192.916570
21
245.775500
31
0.0
0
LINE
8
HIDDEN
10
206.716990
20
245.775500
30
0.0
11
206.371216
21
245.775500
31
0.0
0
LINE
8
HIDDEN
10
193.350116
20
245.775500
30
0.0
11
193.165296
21
245.775500
31
0.0
0
LINE
8
HIDDEN
10
206.371216
20
245.775500
30
0.0
11
206.068143
21
245.775500
31
0.0
0
LINE
8
HIDDEN
10
193.463927
20
245.775500
30
0.0
11
193.350116
21
245.775500
31
0.0
0
LINE
8
HIDDEN
10
206.068143
20
245.775500
30
0.0
11
205.819417
21
245.775500
31
0.0
0
LINE
8
HIDDEN
10
193.502357
20
245.775500
30
0.0
11
193.463927
21
245.775500
31
0.0
0
LINE
8
HIDDEN
10
205.819417
20
245.775500
30
0.0
11
205.634597
21
245.775500
31
0.0
0
LINE
8
HIDDEN
10
205.634597
20
245.775500
30
0.0
11
205.520786
21
245.775500
31
0.0
0
LINE
8
HIDDEN
10
193.536431
20
245.775500
30
0.0
11
193.502357
21
245.775500
31
0.0
0
LINE
8
HIDDEN
10
205.520786
20
245.775500
30
0.0
11
205.482357
21
245.775500
31
0.0
0
LINE
8
HIDDEN
10
193.636331
20
245.775500
30
0.0
11
193.536431
21
245.775500
31
0.0
0
LINE
8
HIDDEN
10
193.795250
20
245.775500
30
0.0
11
193.636331
21
245.775500
31
0.0
0
LINE
8
HIDDEN
10
205.482357
20
245.775500
30
0.0
11
205.448282
21
245.775500
31
0.0
0
LINE
8
HIDDEN
10
194.002357
20
245.775500
30
0.0
11
193.795250
21
245.775500
31
0.0
0
LINE
8
HIDDEN
10
205.448282
20
245.775500
30
0.0
11
205.348382
21
245.775500
31
0.0
0
LINE
8
HIDDEN
10
194.243537
20
245.775500
30
0.0
11
194.002357
21
245.775500
31
0.0
0
LINE
8
HIDDEN
10
205.348382
20
245.775500
30
0.0
11
205.189463
21
245.775500
31
0.0
0
LINE
8
HIDDEN
10
194.502357
20
245.775500
30
0.0
11
194.243537
21
245.775500
31
0.0
0
LINE
8
HIDDEN
10
205.189463
20
245.775500
30
0.0
11
204.982357
21
245.775500
31
0.0
0
LINE
8
HIDDEN
10
204.482357
20
245.775500
30
0.0
11
194.502357
21
245.775500
31
0.0
0
LINE
8
HIDDEN
10
204.982357
20
245.775500
30
0.0
11
204.741176
21
245.775500
31
0.0
0
LINE
8
HIDDEN
10
204.741176
20
245.775500
30
0.0
11
204.482357
21
245.775500
31
0.0
0
LINE
8
HIDDEN
10
178.492357
20
245.775500
30
0.0
11
179.579357
21
245.775500
31
0.0
0
LINE
8
HIDDEN
10
179.579357
20
245.775500
30
0.0
11
177.405357
21
245.775500
31
0.0
0
LINE
8
HIDDEN
10
177.405357
20
245.775500
30
0.0
11
178.492357
21
245.775500
31
0.0
0
LINE
8
HIDDEN
10
187.825357
20
245.775500
30
0.0
11
185.359357
21
245.775500
31
0.0
0
LINE
8
HIDDEN
10
187.825357
20
245.775500
30
0.0
11
185.359357
21
245.775500
31
0.0
0
LINE
8
HIDDEN
10
228.492357
20
245.775500
30
0.0
11
229.579357
21
245.775500
31
0.0
0
LINE
8
HIDDEN
10
229.579357
20
245.775500
30
0.0
11
227.405357
21
245.775500
31
0.0
0
LINE
8
HIDDEN
10
227.405357
20
245.775500
30
0.0
11
228.492357
21
245.775500
31
0.0
0
LINE
8
HIDDEN
10
221.625357
20
245.775500
30
0.0
11
219.159357
21
245.775500
31
0.0
0
LINE
8
HIDDEN
10
221.625357
20
245.775500
30
0.0
11
219.159357
21
245.775500
31
0.0
0
LINE
8
HIDDEN
10
176.485239
20
247.275500
30
0.0
11
176.484713
21
247.275500
31
0.0
0
LINE
8
HIDDEN
10
176.530500
20
247.275500
30
0.0
11
176.485239
21
247.275500
31
0.0
0
LINE
8
HIDDEN
10
176.619489
20
247.275500
30
0.0
11
176.530500
21
247.275500
31
0.0
0
LINE
8
HIDDEN
10
230.500000
20
247.275500
30
0.0
11
230.499474
21
247.275500
31
0.0
0
LINE
8
HIDDEN
10
176.750222
20
247.275500
30
0.0
11
176.619489
21
247.275500
31
0.0
0
LINE
8
HIDDEN
10
230.499474
20
247.275500
30
0.0
11
230.454213
21
247.275500
31
0.0
0
LINE
8
HIDDEN
10
176.919785
20
247.275500
30
0.0
11
176.750222
21
247.275500
31
0.0
0
LINE
8
HIDDEN
10
230.454213
20
247.275500
30
0.0
11
230.365224
21
247.275500
31
0.0
0
LINE
8
HIDDEN
10
177.124398
20
247.275500
30
0.0
11
176.919785
21
247.275500
31
0.0
0
LINE
8
HIDDEN
10
230.365224
20
247.275500
30
0.0
11
230.234491
21
247.275500
31
0.0
0
LINE
8
HIDDEN
10
177.359502
20
247.275500
30
0.0
11
177.124398
21
247.275500
31
0.0
0
LINE
8
HIDDEN
10
230.234491
20
247.275500
30
0.0
11
230.064928
21
247.275500
31
0.0
0
LINE
8
HIDDEN
10
177.619855
20
247.275500
30
0.0
11
177.359502
21
247.275500
31
0.0
0
LINE
8
HIDDEN
10
230.064928
20
247.275500
30
0.0
11
229.860315
21
247.275500
31
0.0
0
LINE
8
HIDDEN
10
177.899655
20
247.275500
30
0.0
11
177.619855
21
247.275500
31
0.0
0
LINE
8
HIDDEN
10
229.860315
20
247.275500
30
0.0
11
229.625211
21
247.275500
31
0.0
0
LINE
8
HIDDEN
10
178.192666
20
247.275500
30
0.0
11
177.899655
21
247.275500
31
0.0
0
LINE
8
HIDDEN
10
229.625211
20
247.275500
30
0.0
11
229.364858
21
247.275500
31
0.0
0
LINE
8
HIDDEN
10
178.492357
20
247.275500
30
0.0
11
178.192666
21
247.275500
31
0.0
0
LINE
8
HIDDEN
10
229.364858
20
247.275500
30
0.0
11
229.085058
21
247.275500
31
0.0
0
LINE
8
HIDDEN
10
191.502357
20
247.275500
30
0.0
11
178.492357
21
247.275500
31
0.0
0
LINE
8
HIDDEN
10
229.085058
20
247.275500
30
0.0
11
228.792047
21
247.275500
31
0.0
0
LINE
8
HIDDEN
10
191.892537
20
247.275500
30
0.0
11
191.502357
21
247.275500
31
0.0
0
LINE
8
HIDDEN
10
228.792047
20
247.275500
30
0.0
11
228.492357
21
247.275500
31
0.0
0
LINE
8
HIDDEN
10
192.267723
20
247.275500
30
0.0
11
191.892537
21
247.275500
31
0.0
0
LINE
8
HIDDEN
10
228.492357
20
247.275500
30
0.0
11
207.482357
21
247.275500
31
0.0
0
LINE
8
HIDDEN
10
192.613497
20
247.275500
30
0.0
11
192.267723
21
247.275500
31
0.0
0
LINE
8
HIDDEN
10
207.482357
20
247.275500
30
0.0
11
207.092176
21
247.275500
31
0.0
0
LINE
8
HIDDEN
10
192.916570
20
247.275500
30
0.0
11
192.613497
21
247.275500
31
0.0
0
LINE
8
HIDDEN
10
207.092176
20
247.275500
30
0.0
11
206.716990
21
247.275500
31
0.0
0
LINE
8
HIDDEN
10
193.165296
20
247.275500
30
0.0
11
192.916570
21
247.275500
31
0.0
0
LINE
8
HIDDEN
10
206.716990
20
247.275500
30
0.0
11
206.371216
21
247.275500
31
0.0
0
LINE
8
HIDDEN
10
193.350116
20
247.275500
30
0.0
11
193.165296
21
247.275500
31
0.0
0
LINE
8
HIDDEN
10
206.371216
20
247.275500
30
0.0
11
206.068143
21
247.275500
31
0.0
0
LINE
8
HIDDEN
10
193.463927
20
247.275500
30
0.0
11
193.350116
21
247.275500
31
0.0
0
LINE
8
HIDDEN
10
206.068143
20
247.275500
30
0.0
11
205.819417
21
247.275500
31
0.0
0
LINE
8
HIDDEN
10
193.502357
20
247.275500
30
0.0
11
193.463927
21
247.275500
31
0.0
0
LINE
8
HIDDEN
10
205.819417
20
247.275500
30
0.0
11
205.634597
21
247.275500
31
0.0
0
LINE
8
HIDDEN
10
205.634597
20
247.275500
30
0.0
11
205.520786
21
247.275500
31
0.0
0
LINE
8
HIDDEN
10
193.536431
20
247.275500
30
0.0
11
193.502357
21
247.275500
31
0.0
0
LINE
8
HIDDEN
10
205.520786
20
247.275500
30
0.0
11
205.482357
21
247.275500
31
0.0
0
LINE
8
HIDDEN
10
193.636331
20
247.275500
30
0.0
11
193.536431
21
247.275500
31
0.0
0
LINE
8
HIDDEN
10
193.795250
20
247.275500
30
0.0
11
193.636331
21
247.275500
31
0.0
0
LINE
8
HIDDEN
10
205.482357
20
247.275500
30
0.0
11
205.448282
21
247.275500
31
0.0
0
LINE
8
HIDDEN
10
194.002357
20
247.275500
30
0.0
11
193.795250
21
247.275500
31
0.0
0
LINE
8
HIDDEN
10
205.448282
20
247.275500
30
0.0
11
205.348382
21
247.275500
31
0.0
0
LINE
8
HIDDEN
10
194.243537
20
247.275500
30
0.0
11
194.002357
21
247.275500
31
0.0
0
LINE
8
HIDDEN
10
205.348382
20
247.275500
30
0.0
11
205.189463
21
247.275500
31
0.0
0
LINE
8
HIDDEN
10
194.502357
20
247.275500
30
0.0
11
194.243537
21
247.275500
31
0.0
0
LINE
8
HIDDEN
10
205.189463
20
247.275500
30
0.0
11
204.982357
21
247.275500
31
0.0
0
LINE
8
HIDDEN
10
204.482357
20
247.275500
30
0.0
11
194.502357
21
247.275500
31
0.0
0
LINE
8
HIDDEN
10
204.982357
20
247.275500
30
0.0
11
204.741176
21
247.275500
31
0.0
0
LINE
8
HIDDEN
10
204.741176
20
247.275500
30
0.0
11
204.482357
21
247.275500
31
0.0
0
LINE
8
HIDDEN
10
178.492357
20
247.275500
30
0.0
11
179.579357
21
247.275500
31
0.0
0
LINE
8
HIDDEN
10
179.579357
20
247.275500
30
0.0
11
177.405357
21
247.275500
31
0.0
0
LINE
8
HIDDEN
10
177.405357
20
247.275500
30
0.0
11
178.492357
21
247.275500
31
0.0
0
LINE
8
HIDDEN
10
228.492357
20
247.275500
30
0.0
11
229.579357
21
247.275500
31
0.0
0
LINE
8
HIDDEN
10
229.579357
20
247.275500
30
0.0
11
227.405357
21
247.275500
31
0.0
0
LINE
8
HIDDEN
10
227.405357
20
247.275500
30
0.0
11
228.492357
21
247.275500
31
0.0
0
LINE
8
HIDDEN
10
176.485239
20
245.775500
30
0.0
11
176.485239
21
247.275500
31
0.0
0
LINE
8
HIDDEN
10
176.530500
20
245.775500
30
0.0
11
176.530500
21
247.275500
31
0.0
0
LINE
8
HIDDEN
10
176.619489
20
245.775500
30
0.0
11
176.619489
21
247.275500
31
0.0
0
LINE
8
HIDDEN
10
230.499474
20
245.775500
30
0.0
11
230.499474
21
247.275500
31
0.0
0
LINE
8
HIDDEN
10
176.750222
20
245.775500
30
0.0
11
176.750222
21
247.275500
31
0.0
0
LINE
8
HIDDEN
10
230.454213
20
245.775500
30
0.0
11
230.454213
21
247.275500
31
0.0
0
LINE
8
HIDDEN
10
176.919785
20
245.775500
30
0.0
11
176.919785
21
247.275500
31
0.0
0
LINE
8
HIDDEN
10
230.365224
20
245.775500
30
0.0
11
230.365224
21
247.275500
31
0.0
0
LINE
8
HIDDEN
10
177.124398
20
245.775500
30
0.0
11
177.124398
21
247.275500
31
0.0
0
LINE
8
HIDDEN
10
230.234491
20
245.775500
30
0.0
11
230.234491
21
247.275500
31
0.0
0
LINE
8
HIDDEN
10
177.359502
20
245.775500
30
0.0
11
177.359502
21
247.275500
31
0.0
0
LINE
8
HIDDEN
10
230.064928
20
245.775500
30
0.0
11
230.064928
21
247.275500
31
0.0
0
LINE
8
HIDDEN
10
177.619855
20
245.775500
30
0.0
11
177.619855
21
247.275500
31
0.0
0
LINE
8
HIDDEN
10
229.860315
20
245.775500
30
0.0
11
229.860315
21
247.275500
31
0.0
0
LINE
8
HIDDEN
10
177.899655
20
245.775500
30
0.0
11
177.899655
21
247.275500
31
0.0
0
LINE
8
HIDDEN
10
229.625211
20
245.775500
30
0.0
11
229.625211
21
247.275500
31
0.0
0
LINE
8
HIDDEN
10
178.192666
20
245.775500
30
0.0
11
178.192666
21
247.275500
31
0.0
0
LINE
8
HIDDEN
10
229.364858
20
245.775500
30
0.0
11
229.364858
21
247.275500
31
0.0
0
LINE
8
HIDDEN
10
178.492357
20
245.775500
30
0.0
11
178.492357
21
247.275500
31
0.0
0
LINE
8
HIDDEN
10
229.085058
20
245.775500
30
0.0
11
229.085058
21
247.275500
31
0.0
0
LINE
8
HIDDEN
10
191.502357
20
245.775500
30
0.0
11
191.502357
21
247.275500
31
0.0
0
LINE
8
HIDDEN
10
228.792047
20
245.775500
30
0.0
11
228.792047
21
247.275500
31
0.0
0
LINE
8
HIDDEN
10
191.892537
20
245.775500
30
0.0
11
191.892537
21
247.275500
31
0.0
0
LINE
8
HIDDEN
10
228.492357
20
245.775500
30
0.0
11
228.492357
21
247.275500
31
0.0
0
LINE
8
HIDDEN
10
192.267723
20
245.775500
30
0.0
11
192.267723
21
247.275500
31
0.0
0
LINE
8
HIDDEN
10
207.482357
20
245.775500
30
0.0
11
207.482357
21
247.275500
31
0.0
0
LINE
8
HIDDEN
10
192.613497
20
245.775500
30
0.0
11
192.613497
21
247.275500
31
0.0
0
LINE
8
HIDDEN
10
207.092176
20
245.775500
30
0.0
11
207.092176
21
247.275500
31
0.0
0
LINE
8
HIDDEN
10
192.916570
20
245.775500
30
0.0
11
192.916570
21
247.275500
31
0.0
0
LINE
8
HIDDEN
10
206.716990
20
245.775500
30
0.0
11
206.716990
21
247.275500
31
0.0
0
LINE
8
HIDDEN
10
193.165296
20
245.775500
30
0.0
11
193.165296
21
247.275500
31
0.0
0
LINE
8
HIDDEN
10
206.371216
20
245.775500
30
0.0
11
206.371216
21
247.275500
31
0.0
0
LINE
8
HIDDEN
10
193.350116
20
245.775500
30
0.0
11
193.350116
21
247.275500
31
0.0
0
LINE
8
HIDDEN
10
206.068143
20
245.775500
30
0.0
11
206.068143
21
247.275500
31
0.0
0
LINE
8
HIDDEN
10
193.463927
20
245.775500
30
0.0
11
193.463927
21
247.275500
31
0.0
0
LINE
8
HIDDEN
10
205.819417
20
245.775500
30
0.0
11
205.819417
21
247.275500
31
0.0
0
LINE
8
HIDDEN
10
193.502357
20
245.775500
30
0.0
11
193.502357
21
247.275500
31
0.0
0
LINE
8
HIDDEN
10
205.634597
20
245.775500
30
0.0
11
205.634597
21
247.275500
31
0.0
0
LINE
8
HIDDEN
10
193.502357
20
245.775500
30
0.0
11
193.502357
21
247.275500
31
0.0
0
LINE
8
HIDDEN
10
205.520786
20
245.775500
30
0.0
11
205.520786
21
247.275500
31
0.0
0
LINE
8
HIDDEN
10
193.536431
20
245.775500
30
0.0
11
193.536431
21
247.275500
31
0.0
0
LINE
8
HIDDEN
10
205.482357
20
245.775500
30
0.0
11
205.482357
21
247.275500
31
0.0
0
LINE
8
HIDDEN
10
193.636331
20
245.775500
30
0.0
11
193.636331
21
247.275500
31
0.0
0
LINE
8
HIDDEN
10
205.482357
20
245.775500
30
0.0
11
205.482357
21
247.275500
31
0.0
0
LINE
8
HIDDEN
10
193.795250
20
245.775500
30
0.0
11
193.795250
21
247.275500
31
0.0
0
LINE
8
HIDDEN
10
205.448282
20
245.775500
30
0.0
11
205.448282
21
247.275500
31
0.0
0
LINE
8
HIDDEN
10
194.002357
20
245.775500
30
0.0
11
194.002357
21
247.275500
31
0.0
0
LINE
8
HIDDEN
10
205.348382
20
245.775500
30
0.0
11
205.348382
21
247.275500
31
0.0
0
LINE
8
HIDDEN
10
194.243537
20
245.775500
30
0.0
11
194.243537
21
247.275500
31
0.0
0
LINE
8
HIDDEN
10
205.189463
20
245.775500
30
0.0
11
205.189463
21
247.275500
31
0.0
0
LINE
8
HIDDEN
10
194.502357
20
245.775500
30
0.0
11
194.502357
21
247.275500
31
0.0
0
LINE
8
HIDDEN
10
204.982357
20
245.775500
30
0.0
11
204.982357
21
247.275500
31
0.0
0
LINE
8
HIDDEN
10
204.482357
20
245.775500
30
0.0
11
204.482357
21
247.275500
31
0.0
0
LINE
8
HIDDEN
10
204.741176
20
245.775500
30
0.0
11
204.741176
21
247.275500
31
0.0
0
LINE
8
HIDDEN
10
178.492357
20
245.775500
30
0.0
11
178.492357
21
247.275500
31
0.0
0
LINE
8
HIDDEN
10
228.492357
20
245.775500
30
0.0
11
228.492357
21
247.275500
31
0.0
0
LINE
8
HIDDEN
10
177.405357
20
245.775500
30
0.0
11
177.405357
21
247.275500
31
0.0
0
LINE
8
HIDDEN
10
179.579357
20
245.775500
30
0.0
11
179.579357
21
247.275500
31
0.0
0
LINE
8
HIDDEN
10
227.405357
20
245.775500
30
0.0
11
227.405357
21
247.275500
31
0.0
0
LINE
8
HIDDEN
10
229.579357
20
245.775500
30
0.0
11
229.579357
21
247.275500
31
0.0
0
LINE
8
VISIBLE
10
277.501643
20
176.437500
30
0.0
11
277.501643
21
177.937500
31
0.0
0
LINE
8
VISIBLE
10
323.513643
20
176.437500
30
0.0
11
323.513643
21
177.937500
31
0.0
0
LINE
8
VISIBLE
10
277.501643
20
176.437500
30
0.0
11
323.513643
21
176.437500
31
0.0
0
LINE
8
VISIBLE
10
277.501643
20
177.937500
30
0.0
11
323.513643
21
177.937500
31
0.0
0
LINE
8
VISIBLE
10
274.134528
20
176.437500
30
0.0
11
274.134528
21
177.937500
31
0.0
0
LINE
8
VISIBLE
10
274.134528
20
176.437500
30
0.0
11
277.501643
21
176.437500
31
0.0
0
LINE
8
VISIBLE
10
274.134528
20
177.937500
30
0.0
11
277.501643
21
177.937500
31
0.0
0
LINE
8
VISIBLE
10
326.880759
20
176.437500
30
0.0
11
326.880759
21
177.937500
31
0.0
0
LINE
8
VISIBLE
10
323.513643
20
176.437500
30
0.0
11
326.880759
21
176.437500
31
0.0
0
LINE
8
VISIBLE
10
323.513643
20
177.937500
30
0.0
11
326.880759
21
177.937500
31
0.0
0
LINE
8
VISIBLE
10
273.930686
20
176.437500
30
0.0
11
274.134528
21
176.437500
31
0.0
0
LINE
8
VISIBLE
10
273.761992
20
176.437500
30
0.0
11
273.930686
21
176.437500
31
0.0
0
LINE
8
VISIBLE
10
273.632207
20
176.437500
30
0.0
11
273.761992
21
176.437500
31
0.0
0
LINE
8
VISIBLE
10
273.544222
20
176.437500
30
0.0
11
273.632207
21
176.437500
31
0.0
0
LINE
8
VISIBLE
10
273.500000
20
176.437500
30
0.0
11
273.544222
21
176.437500
31
0.0
0
LINE
8
VISIBLE
10
327.471065
20
176.437500
30
0.0
11
327.515287
21
176.437500
31
0.0
0
LINE
8
VISIBLE
10
327.383080
20
176.437500
30
0.0
11
327.471065
21
176.437500
31
0.0
0
LINE
8
VISIBLE
10
327.253295
20
176.437500
30
0.0
11
327.383080
21
176.437500
31
0.0
0
LINE
8
VISIBLE
10
327.084601
20
176.437500
30
0.0
11
327.253295
21
176.437500
31
0.0
0
LINE
8
VISIBLE
10
326.880759
20
176.437500
30
0.0
11
327.084601
21
176.437500
31
0.0
0
LINE
8
VISIBLE
10
273.930686
20
177.937500
30
0.0
11
274.134528
21
177.937500
31
0.0
0
LINE
8
VISIBLE
10
273.761992
20
177.937500
30
0.0
11
273.930686
21
177.937500
31
0.0
0
LINE
8
VISIBLE
10
273.632207
20
177.937500
30
0.0
11
273.761992
21
177.937500
31
0.0
0
LINE
8
VISIBLE
10
273.544222
20
177.937500
30
0.0
11
273.632207
21
177.937500
31
0.0
0
LINE
8
VISIBLE
10
273.500000
20
177.937500
30
0.0
11
273.544222
21
177.937500
31
0.0
0
LINE
8
VISIBLE
10
327.471065
20
177.937500
30
0.0
11
327.515287
21
177.937500
31
0.0
0
LINE
8
VISIBLE
10
327.383080
20
177.937500
30
0.0
11
327.471065
21
177.937500
31
0.0
0
LINE
8
VISIBLE
10
327.253295
20
177.937500
30
0.0
11
327.383080
21
177.937500
31
0.0
0
LINE
8
VISIBLE
10
327.084601
20
177.937500
30
0.0
11
327.253295
21
177.937500
31
0.0
0
LINE
8
VISIBLE
10
326.880759
20
177.937500
30
0.0
11
327.084601
21
177.937500
31
0.0
0
LINE
8
VISIBLE
10
273.930686
20
176.437500
30
0.0
11
273.930686
21
177.937500
31
0.0
0
LINE
8
VISIBLE
10
327.084601
20
176.437500
30
0.0
11
327.084601
21
177.937500
31
0.0
0
LINE
8
VISIBLE
10
273.761992
20
176.437500
30
0.0
11
273.761992
21
177.937500
31
0.0
0
LINE
8
VISIBLE
10
273.632207
20
176.437500
30
0.0
11
273.632207
21
177.937500
31
0.0
0
LINE
8
VISIBLE
10
273.544222
20
176.437500
30
0.0
11
273.544222
21
177.937500
31
0.0
0
LINE
8
VISIBLE
10
273.500000
20
176.437500
30
0.0
11
273.500000
21
177.937500
31
0.0
0
LINE
8
VISIBLE
10
327.515287
20
176.437500
30
0.0
11
327.515287
21
177.937500
31
0.0
0
LINE
8
VISIBLE
10
327.471065
20
176.437500
30
0.0
11
327.471065
21
177.937500
31
0.0
0
LINE
8
VISIBLE
10
327.383080
20
176.437500
30
0.0
11
327.383080
21
177.937500
31
0.0
0
LINE
8
VISIBLE
10
327.253295
20
176.437500
30
0.0
11
327.253295
21
177.937500
31
0.0
0
LINE
8
VISIBLE
10
282.374643
20
174.137500
30
0.0
11
282.374643
21
176.437500
31
0.0
0
LINE
8
VISIBLE
10
284.840643
20
174.137500
30
0.0
11
284.840643
21
176.437500
31
0.0
0
LINE
8
VISIBLE
10
282.374643
20
174.137500
30
0.0
11
284.840643
21
174.137500
31
0.0
0
LINE
8
VISIBLE
10
316.174643
20
174.137500
30
0.0
11
316.174643
21
176.437500
31
0.0
0
LINE
8
VISIBLE
10
318.640643
20
174.137500
30
0.0
11
318.640643
21
176.437500
31
0.0
0
LINE
8
VISIBLE
10
316.174643
20
174.137500
30
0.0
11
318.640643
21
174.137500
31
0.0
0
LINE
8
SECTION
10
274.420643
20
176.437500
30
0.0
11
273.500257
21
176.437500
31
0.0
0
LINE
8
SECTION
10
273.500257
20
176.437500
30
0.0
11
273.500257
21
177.937500
31
0.0
0
LINE
8
SECTION
10
274.420643
20
177.937500
30
0.0
11
273.500257
21
177.937500
31
0.0
0
LINE
8
SECTION
10
274.420643
20
176.437500
30
0.0
11
274.420643
21
177.937500
31
0.0
0
LINE
8
SECTION
10
290.517643
20
176.437500
30
0.0
11
276.594643
21
176.437500
31
0.0
0
LINE
8
SECTION
10
276.594643
20
176.437500
30
0.0
11
276.594643
21
177.937500
31
0.0
0
LINE
8
SECTION
10
290.517643
20
177.937500
30
0.0
11
276.594643
21
177.937500
31
0.0
0
LINE
8
SECTION
10
290.517643
20
177.937500
30
0.0
11
290.517643
21
176.437500
31
0.0
0
LINE
8
SECTION
10
324.420643
20
176.437500
30
0.0
11
302.497643
21
176.437500
31
0.0
0
LINE
8
SECTION
10
302.497643
20
176.437500
30
0.0
11
302.497643
21
177.937500
31
0.0
0
LINE
8
SECTION
10
324.420643
20
177.937500
30
0.0
11
302.497643
21
177.937500
31
0.0
0
LINE
8
SECTION
10
324.420643
20
176.437500
30
0.0
11
324.420643
21
177.937500
31
0.0
0
LINE
8
SECTION
10
327.515030
20
176.437500
30
0.0
11
326.594643
21
176.437500
31
0.0
0
LINE
8
SECTION
10
326.594643
20
176.437500
30
0.0
11
326.594643
21
177.937500
31
0.0
0
LINE
8
SECTION
10
327.515030
20
177.937500
30
0.0
11
326.594643
21
177.937500
31
0.0
0
LINE
8
SECTION
10
327.515030
20
177.937500
30
0.0
11
327.515030
21
176.437500
31
0.0
0
LINE
8
VISIBLE
10
571.873684
20
382.593611
30
0.0
11
574.089290
21
381.314430
31
0.0
0
LINE
8
VISIBLE
10
503.910710
20
343.355170
30
0.0
11
506.126316
21
342.075989
31
0.0
0
LINE
8
VISIBLE
10
571.873684
20
382.593611
30
0.0
11
503.910710
21
343.355170
31
0.0
0
LINE
8
VISIBLE
10
574.089290
20
381.314430
30
0.0
11
506.126316
21
342.075989
31
0.0
0
LINE
8
VISIBLE
10
576.847151
20
390.822287
30
0.0
11
579.062757
21
389.543107
31
0.0
0
LINE
8
VISIBLE
10
576.847151
20
390.822287
30
0.0
11
571.873684
21
382.593611
31
0.0
0
LINE
8
VISIBLE
10
579.062757
20
389.543107
30
0.0
11
574.089290
21
381.314430
31
0.0
0
LINE
8
VISIBLE
10
498.937243
20
345.840981
30
0.0
11
501.152849
21
344.561800
31
0.0
0
LINE
8
VISIBLE
10
503.910710
20
343.355170
30
0.0
11
498.937243
21
345.840981
31
0.0
0
LINE
8
VISIBLE
10
506.126316
20
342.075989
30
0.0
11
501.152849
21
344.561800
31
0.0
0
LINE
8
VISIBLE
10
577.148240
20
391.372764
30
0.0
11
576.847151
21
390.822287
31
0.0
0
LINE
8
VISIBLE
10
577.397413
20
391.940829
30
0.0
11
577.148240
21
391.372764
31
0.0
0
LINE
8
VISIBLE
10
577.589115
20
392.513821
30
0.0
11
577.397413
21
391.940829
31
0.0
0
LINE
8
VISIBLE
10
498.937243
20
345.840981
30
0.0
11
498.636154
21
346.043789
31
0.0
0
LINE
8
VISIBLE
10
577.719075
20
393.078969
30
0.0
11
577.589115
21
392.513821
31
0.0
0
LINE
8
VISIBLE
10
498.636154
20
346.043789
30
0.0
11
498.386981
21
346.324135
31
0.0
0
LINE
8
VISIBLE
10
577.784394
20
393.623676
30
0.0
11
577.719075
21
393.078969
31
0.0
0
LINE
8
VISIBLE
10
498.386981
20
346.324135
30
0.0
11
498.195279
21
346.675768
31
0.0
0
LINE
8
VISIBLE
10
577.783618
20
394.135801
30
0.0
11
577.784394
21
393.623676
31
0.0
0
LINE
8
VISIBLE
10
498.195279
20
346.675768
30
0.0
11
498.065319
21
347.090852
31
0.0
0
LINE
8
VISIBLE
10
577.716763
20
394.603931
30
0.0
11
577.783618
21
394.135801
31
0.0
0
LINE
8
VISIBLE
10
498.065319
20
347.090852
30
0.0
11
498.000000
21
347.560134
31
0.0
0
LINE
8
VISIBLE
10
577.585320
20
395.017630
30
0.0
11
577.716763
21
394.603931
31
0.0
0
LINE
8
VISIBLE
10
498.000000
20
347.560134
30
0.0
11
498.000776
21
348.073156
31
0.0
0
LINE
8
VISIBLE
10
577.392219
20
395.367678
30
0.0
11
577.585320
21
395.017630
31
0.0
0
LINE
8
VISIBLE
10
498.000776
20
348.073156
30
0.0
11
498.067631
21
348.618483
31
0.0
0
LINE
8
VISIBLE
10
577.141762
20
395.646274
30
0.0
11
577.392219
21
395.367678
31
0.0
0
LINE
8
VISIBLE
10
498.067631
20
348.618483
30
0.0
11
498.199074
21
349.183959
31
0.0
0
LINE
8
VISIBLE
10
576.839534
20
395.847206
30
0.0
11
577.141762
21
395.646274
31
0.0
0
LINE
8
VISIBLE
10
498.199074
20
349.183959
30
0.0
11
498.392176
21
349.756982
31
0.0
0
LINE
8
VISIBLE
10
576.492270
20
395.965997
30
0.0
11
576.839534
21
395.847206
31
0.0
0
LINE
8
VISIBLE
10
498.392176
20
349.756982
30
0.0
11
498.642632
21
350.324779
31
0.0
0
LINE
8
VISIBLE
10
576.107709
20
396.000000
30
0.0
11
576.492270
21
395.965997
31
0.0
0
LINE
8
VISIBLE
10
498.642632
20
350.324779
30
0.0
11
498.944860
21
350.874695
31
0.0
0
LINE
8
VISIBLE
10
575.694425
20
395.948456
30
0.0
11
576.107709
21
396.000000
31
0.0
0
LINE
8
VISIBLE
10
498.944860
20
350.874695
30
0.0
11
499.292124
21
351.394473
31
0.0
0
LINE
8
VISIBLE
10
575.261627
20
395.812514
30
0.0
11
575.694425
21
395.948456
31
0.0
0
LINE
8
VISIBLE
10
499.292124
20
351.394473
30
0.0
11
499.676685
21
351.872527
31
0.0
0
LINE
8
VISIBLE
10
574.818963
20
395.595204
30
0.0
11
575.261627
21
395.812514
31
0.0
0
LINE
8
VISIBLE
10
499.676685
20
351.872527
30
0.0
11
500.089969
21
352.298203
31
0.0
0
LINE
8
VISIBLE
10
555.602274
20
384.500443
30
0.0
11
574.818963
21
395.595204
31
0.0
0
LINE
8
VISIBLE
10
500.089969
20
352.298203
30
0.0
11
500.522767
21
352.662013
31
0.0
0
LINE
8
VISIBLE
10
555.025950
20
384.102158
30
0.0
11
555.602274
21
384.500443
31
0.0
0
LINE
8
VISIBLE
10
500.522767
20
352.662013
30
0.0
11
500.965431
21
352.955847
31
0.0
0
LINE
8
VISIBLE
10
554.471773
20
383.588090
30
0.0
11
555.025950
21
384.102158
31
0.0
0
LINE
8
VISIBLE
10
500.965431
20
352.955847
30
0.0
11
531.998685
21
370.872905
31
0.0
0
LINE
8
VISIBLE
10
553.961041
20
382.977995
30
0.0
11
554.471773
21
383.588090
31
0.0
0
LINE
8
VISIBLE
10
531.998685
20
370.872905
30
0.0
11
532.575010
21
371.140102
31
0.0
0
LINE
8
VISIBLE
10
553.513381
20
382.295318
30
0.0
11
553.961041
21
382.977995
31
0.0
0
LINE
8
VISIBLE
10
532.575010
20
371.140102
30
0.0
11
533.129186
21
371.265942
31
0.0
0
LINE
8
VISIBLE
10
553.145995
20
381.566294
30
0.0
11
553.513381
21
382.295318
31
0.0
0
LINE
8
VISIBLE
10
533.129186
20
371.265942
30
0.0
11
533.639918
21
371.245589
31
0.0
0
LINE
8
VISIBLE
10
552.873003
20
380.818939
30
0.0
11
553.145995
21
381.566294
31
0.0
0
LINE
8
VISIBLE
10
533.639918
20
371.245589
30
0.0
11
534.087579
21
371.079826
31
0.0
0
LINE
8
VISIBLE
10
552.704896
20
380.081974
30
0.0
11
552.873003
21
380.818939
31
0.0
0
LINE
8
VISIBLE
10
534.087579
20
371.079826
30
0.0
11
534.454964
21
370.775022
31
0.0
0
LINE
8
VISIBLE
10
552.648133
20
379.383720
30
0.0
11
552.704896
21
380.081974
31
0.0
0
LINE
8
VISIBLE
10
534.454964
20
370.775022
30
0.0
11
534.727956
21
370.342891
31
0.0
0
LINE
8
VISIBLE
10
552.648133
20
378.537755
30
0.0
11
552.648133
21
379.383720
31
0.0
0
LINE
8
VISIBLE
10
534.727956
20
370.342891
30
0.0
11
534.896063
21
369.800040
31
0.0
0
LINE
8
VISIBLE
10
552.597803
20
378.067262
30
0.0
11
552.648133
21
378.537755
31
0.0
0
LINE
8
VISIBLE
10
534.896063
20
369.800040
30
0.0
11
534.952826
21
369.167330
31
0.0
0
LINE
8
VISIBLE
10
552.450243
20
377.570716
30
0.0
11
552.597803
21
378.067262
31
0.0
0
LINE
8
VISIBLE
10
534.952826
20
369.167330
30
0.0
11
534.952826
21
368.321366
31
0.0
0
LINE
8
VISIBLE
10
552.215509
20
377.081957
30
0.0
11
552.450243
21
377.570716
31
0.0
0
LINE
8
VISIBLE
10
534.952826
20
368.321366
30
0.0
11
535.003156
21
367.908989
31
0.0
0
LINE
8
VISIBLE
10
551.909597
20
376.634291
30
0.0
11
552.215509
21
377.081957
31
0.0
0
LINE
8
VISIBLE
10
535.003156
20
367.908989
30
0.0
11
535.150716
21
367.582830
31
0.0
0
LINE
8
VISIBLE
10
551.553356
20
376.258228
30
0.0
11
551.909597
21
376.634291
31
0.0
0
LINE
8
VISIBLE
10
535.150716
20
367.582830
30
0.0
11
535.385450
21
367.365118
31
0.0
0
LINE
8
VISIBLE
10
551.171062
20
375.979394
30
0.0
11
551.553356
21
376.258228
31
0.0
0
LINE
8
VISIBLE
10
535.385450
20
367.365118
30
0.0
11
535.691362
21
367.270689
31
0.0
0
LINE
8
VISIBLE
10
536.429897
20
367.468579
30
0.0
11
551.171062
21
375.979394
31
0.0
0
LINE
8
VISIBLE
10
535.691362
20
367.270689
30
0.0
11
536.047603
21
367.305977
31
0.0
0
LINE
8
VISIBLE
10
536.047603
20
367.305977
30
0.0
11
536.429897
21
367.468579
31
0.0
0
LINE
8
VISIBLE
10
574.818963
20
394.015842
30
0.0
11
573.720468
21
392.879792
31
0.0
0
LINE
8
VISIBLE
10
573.720468
20
392.879792
30
0.0
11
573.213603
21
391.204647
31
0.0
0
LINE
8
VISIBLE
10
573.213603
20
391.204647
30
0.0
11
573.683649
21
390.195462
31
0.0
0
LINE
8
VISIBLE
10
573.683649
20
390.195462
30
0.0
11
574.576161
21
390.189063
31
0.0
0
LINE
8
VISIBLE
10
574.576161
20
390.189063
30
0.0
11
575.687781
21
391.104423
31
0.0
0
LINE
8
VISIBLE
10
575.687781
20
391.104423
30
0.0
11
576.400989
21
392.758895
31
0.0
0
LINE
8
VISIBLE
10
576.400989
20
392.758895
30
0.0
11
575.954276
21
394.128303
31
0.0
0
LINE
8
VISIBLE
10
575.954276
20
394.128303
30
0.0
11
574.818963
21
394.015842
31
0.0
0
LINE
8
VISIBLE
10
561.033463
20
376.386174
30
0.0
11
564.675919
21
378.489147
31
0.0
0
LINE
8
VISIBLE
10
564.675919
20
378.489147
30
0.0
11
564.675919
21
381.842306
31
0.0
0
LINE
8
VISIBLE
10
500.965431
20
351.376485
30
0.0
11
499.866937
21
350.240436
31
0.0
0
LINE
8
VISIBLE
10
499.866937
20
350.240436
30
0.0
11
499.360071
21
348.565291
31
0.0
0
LINE
8
VISIBLE
10
499.360071
20
348.565291
30
0.0
11
499.830118
21
347.556106
31
0.0
0
LINE
8
VISIBLE
10
499.830118
20
347.556106
30
0.0
11
500.722630
21
347.549707
31
0.0
0
LINE
8
VISIBLE
10
500.722630
20
347.549707
30
0.0
11
501.834250
21
348.465067
31
0.0
0
LINE
8
VISIBLE
10
501.834250
20
348.465067
30
0.0
11
502.547457
21
350.119539
31
0.0
0
LINE
8
VISIBLE
10
502.547457
20
350.119539
30
0.0
11
502.100745
21
351.488947
31
0.0
0
LINE
8
VISIBLE
10
502.100745
20
351.488947
30
0.0
11
500.965431
21
351.376485
31
0.0
0
LINE
8
VISIBLE
10
511.108475
20
347.561969
30
0.0
11
514.750931
21
349.664942
31
0.0
0
LINE
8
VISIBLE
10
514.750931
20
349.664942
30
0.0
11
514.750931
21
353.018101
31
0.0
0
LINE
8
VISIBLE
10
579.363846
20
390.093583
30
0.0
11
579.062757
21
389.543107
31
0.0
0
LINE
8
VISIBLE
10
579.613019
20
390.661648
30
0.0
11
579.363846
21
390.093583
31
0.0
0
LINE
8
VISIBLE
10
579.804721
20
391.234640
30
0.0
11
579.613019
21
390.661648
31
0.0
0
LINE
8
VISIBLE
10
579.934681
20
391.799788
30
0.0
11
579.804721
21
391.234640
31
0.0
0
LINE
8
VISIBLE
10
580.000000
20
392.344495
30
0.0
11
579.934681
21
391.799788
31
0.0
0
LINE
8
VISIBLE
10
579.999224
20
392.856621
30
0.0
11
580.000000
21
392.344495
31
0.0
0
LINE
8
VISIBLE
10
579.932369
20
393.324750
30
0.0
11
579.999224
21
392.856621
31
0.0
0
LINE
8
VISIBLE
10
579.800926
20
393.738449
30
0.0
11
579.932369
21
393.324750
31
0.0
0
LINE
8
VISIBLE
10
579.607824
20
394.088498
30
0.0
11
579.800926
21
393.738449
31
0.0
0
LINE
8
VISIBLE
10
579.357368
20
394.367093
30
0.0
11
579.607824
21
394.088498
31
0.0
0
LINE
8
VISIBLE
10
579.055140
20
394.568025
30
0.0
11
579.357368
21
394.367093
31
0.0
0
LINE
8
VISIBLE
10
536.303184
20
369.800645
30
0.0
11
536.670570
21
369.495841
31
0.0
0
LINE
8
VISIBLE
10
536.670570
20
369.495841
30
0.0
11
536.943562
21
369.063711
31
0.0
0
LINE
8
VISIBLE
10
536.943562
20
369.063711
30
0.0
11
537.111669
21
368.520860
31
0.0
0
LINE
8
VISIBLE
10
537.111669
20
368.520860
30
0.0
11
537.167851
21
367.894636
31
0.0
0
LINE
8
VISIBLE
10
576.175179
20
391.952557
30
0.0
11
575.678352
21
391.092027
31
0.0
0
LINE
8
VISIBLE
10
502.321648
20
349.313201
30
0.0
11
501.824821
21
348.452671
31
0.0
0
LINE
8
VISIBLE
10
577.148240
20
391.372764
30
0.0
11
579.363846
21
390.093583
31
0.0
0
LINE
8
VISIBLE
10
577.397413
20
391.940829
30
0.0
11
579.613019
21
390.661648
31
0.0
0
LINE
8
VISIBLE
10
577.589115
20
392.513821
30
0.0
11
579.804721
21
391.234640
31
0.0
0
LINE
8
VISIBLE
10
577.719075
20
393.078969
30
0.0
11
579.934681
21
391.799788
31
0.0
0
LINE
8
VISIBLE
10
577.784394
20
393.623676
30
0.0
11
580.000000
21
392.344495
31
0.0
0
LINE
8
VISIBLE
10
577.783618
20
394.135801
30
0.0
11
579.999224
21
392.856621
31
0.0
0
LINE
8
VISIBLE
10
577.716763
20
394.603931
30
0.0
11
579.932369
21
393.324750
31
0.0
0
LINE
8
VISIBLE
10
577.585320
20
395.017630
30
0.0
11
579.800926
21
393.738449
31
0.0
0
LINE
8
VISIBLE
10
577.392219
20
395.367678
30
0.0
11
579.607824
21
394.088498
31
0.0
0
LINE
8
VISIBLE
10
577.141762
20
395.646274
30
0.0
11
579.357368
21
394.367093
31
0.0
0
LINE
8
VISIBLE
10
576.839534
20
395.847206
30
0.0
11
579.055140
21
394.568025
31
0.0
0
LINE
8
VISIBLE
10
534.087579
20
371.079826
30
0.0
11
536.303184
21
369.800645
31
0.0
0
LINE
8
VISIBLE
10
534.454964
20
370.775022
30
0.0
11
536.670570
21
369.495841
31
0.0
0
LINE
8
VISIBLE
10
534.727956
20
370.342891
30
0.0
11
536.943562
21
369.063711
31
0.0
0
LINE
8
VISIBLE
10
534.896063
20
369.800040
30
0.0
11
537.111669
21
368.520860
31
0.0
0
LINE
8
VISIBLE
10
534.952826
20
369.167330
30
0.0
11
537.162524
21
367.891561
31
0.0
0
LINE
8
VISIBLE
10
534.952826
20
368.321366
30
0.0
11
536.429897
21
367.468579
31
0.0
0
LINE
8
VISIBLE
10
535.003156
20
367.908989
30
0.0
11
536.047603
21
367.305977
31
0.0
0
LINE
8
VISIBLE
10
535.150716
20
367.582830
30
0.0
11
535.691362
21
367.270689
31
0.0
0
LINE
8
VISIBLE
10
561.278656
20
380.450557
30
0.0
11
564.675919
21
378.489147
31
0.0
0
LINE
8
VISIBLE
10
557.636200
20
378.347584
30
0.0
11
561.033463
21
376.386174
31
0.0
0
LINE
8
VISIBLE
10
561.278656
20
380.450557
30
0.0
11
557.636200
21
378.347584
31
0.0
0
LINE
8
VISIBLE
10
557.636200
20
378.347584
30
0.0
11
557.636200
21
381.700743
31
0.0
0
LINE
8
VISIBLE
10
561.278656
20
383.803716
30
0.0
11
564.675919
21
381.842306
31
0.0
0
LINE
8
VISIBLE
10
561.278656
20
380.450557
30
0.0
11
561.278656
21
383.803716
31
0.0
0
LINE
8
VISIBLE
10
561.278656
20
383.803716
30
0.0
11
557.636200
21
381.700743
31
0.0
0
LINE
8
VISIBLE
10
511.353669
20
351.626352
30
0.0
11
514.750931
21
349.664942
31
0.0
0
LINE
8
VISIBLE
10
507.711213
20
349.523379
30
0.0
11
511.108475
21
347.561969
31
0.0
0
LINE
8
VISIBLE
10
511.353669
20
351.626352
30
0.0
11
507.711213
21
349.523379
31
0.0
0
LINE
8
VISIBLE
10
507.711213
20
349.523379
30
0.0
11
507.711213
21
352.876538
31
0.0
0
LINE
8
VISIBLE
10
511.353669
20
354.979511
30
0.0
11
514.750931
21
353.018101
31
0.0
0
LINE
8
VISIBLE
10
511.353669
20
354.979511
30
0.0
11
507.711213
21
352.876538
31
0.0
0
LINE
8
VISIBLE
10
511.353669
20
351.626352
30
0.0
11
511.353669
21
354.979511
31
0.0
0
LINE
8
VISIBLE
10
574.818963
20
394.015842
30
0.0
11
576.424539
21
393.088862
31
0.0
0
LINE
8
VISIBLE
10
500.965431
20
351.376485
30
0.0
11
502.571007
21
350.449506
31
0.0
0
LINE
8
VISIBLE
10
90.961132
20
38.565000
30
0.0
11
70.015000
21
38.565000
31
0.0
0
LINE
8
VISIBLE
10
70.015000
20
38.565000
30
0.0
11
53.179424
21
54.270103
31
0.0
0
LINE
8
VISIBLE
10
53.179424
20
54.270103
30
0.0
11
52.160213
21
55.374254
31
0.0
0
LINE
8
VISIBLE
10
52.160213
20
55.374254
30
0.0
11
51.316743
21
56.617838
31
0.0
0
LINE
8
VISIBLE
10
51.316743
20
56.617838
30
0.0
11
50.667816
21
57.973137
31
0.0
0
LINE
8
VISIBLE
10
50.667816
20
57.973137
30
0.0
11
50.227894
21
59.409943
31
0.0
0
LINE
8
VISIBLE
10
50.227894
20
59.409943
30
0.0
11
50.006783
21
60.896231
31
0.0
0
LINE
8
VISIBLE
10
50.006783
20
60.896231
30
0.0
11
50.009410
21
62.398874
31
0.0
0
LINE
8
VISIBLE
10
50.009410
20
62.398874
30
0.0
11
50.235719
21
63.884380
31
0.0
0
LINE
8
VISIBLE
10
50.235719
20
63.884380
30
0.0
11
50.680664
21
65.319638
31
0.0
0
LINE
8
VISIBLE
10
50.680664
20
65.319638
30
0.0
11
51.334327
21
66.672659
31
0.0
0
LINE
8
VISIBLE
10
51.334327
20
66.672659
30
0.0
11
52.182141
21
67.913286
31
0.0
0
LINE
8
VISIBLE
10
52.182141
20
67.913286
30
0.0
11
53.205208
21
69.013866
31
0.0
0
LINE
8
VISIBLE
10
53.205208
20
69.013866
30
0.0
11
54.380725
21
69.949869
31
0.0
0
LINE
8
VISIBLE
10
54.380725
20
69.949869
30
0.0
11
55.682492
21
70.700433
31
0.0
0
LINE
8
VISIBLE
10
55.682492
20
70.700433
30
0.0
11
57.081493
21
71.248828
31
0.0
0
LINE
8
VISIBLE
10
57.081493
20
71.248828
30
0.0
11
58.546547
21
71.582832
31
0.0
0
LINE
8
VISIBLE
10
58.546547
20
71.582832
30
0.0
11
60.045000
21
71.695000
31
0.0
0
LINE
8
VISIBLE
10
60.045000
20
71.695000
30
0.0
11
93.582536
21
71.695000
31
0.0
0
CIRCLE
8
VISIBLE
10
60.045000
20
61.630000
30
0.0
40
5.435000
0
LINE
8
VISIBLE
10
94.380000
20
46.731655
30
0.0
11
94.380000
21
48.545000
31
0.0
0
LINE
8
VISIBLE
10
94.866476
20
48.545000
30
0.0
11
94.380000
21
48.545000
31
0.0
0
CIRCLE
8
SECTION
10
56.000000
20
58.000000
30
0.0
40
40.000000
0
LINE
8
CENTER
10
175.805357
20
177.337500
30
0.0
11
178.111907
21
177.337500
31
0.0
0
LINE
8
CENTER
10
178.872807
20
177.337500
30
0.0
11
181.179357
21
177.337500
31
0.0
0
LINE
8
CENTER
10
178.492357
20
174.650500
30
0.0
11
178.492357
21
176.957050
31
0.0
0
LINE
8
CENTER
10
178.492357
20
177.717950
30
0.0
11
178.492357
21
180.024500
31
0.0
0
LINE
8
CENTER
10
225.805357
20
177.337500
30
0.0
11
228.111907
21
177.337500
31
0.0
0
LINE
8
CENTER
10
228.872807
20
177.337500
30
0.0
11
231.179357
21
177.337500
31
0.0
0
LINE
8
CENTER
10
228.492357
20
174.650500
30
0.0
11
228.492357
21
176.957050
31
0.0
0
LINE
8
CENTER
10
228.492357
20
177.717950
30
0.0
11
228.492357
21
180.024500
31
0.0
0
LINE
8
DIM
10
176.484713
20
171.524500
30
0.0
11
176.484713
21
149.724500
31
0.0
0
LINE
8
DIM
10
230.500000
20
171.524500
30
0.0
11
230.500000
21
149.724500
31
0.0
0
LINE
8
DIM
10
176.484713
20
151.724500
30
0.0
11
230.500000
21
151.724500
31
0.0
0
SOLID
8
DIM
10
176.484713
20
151.724500
30
0.0
11
179.684713
21
151.116500
31
0.0
12
179.684713
22
152.332500
32
0.0
13
179.684713
23
152.332500
33
0.0
0
SOLID
8
DIM
10
230.500000
20
151.724500
30
0.0
11
227.300000
21
152.332500
31
0.0
12
227.300000
22
151.116500
32
0.0
13
227.300000
23
151.116500
33
0.0
0
TEXT
8
TEXT
10
203.492357
20
152.724500
30
0.0
40
2.5000
1
54.02
72
1
73
0
11
203.492357
21
152.724500
31
0.0
0
LINE
8
DIM
10
175.284713
20
172.724500
30
0.0
11
153.484713
21
172.724500
31
0.0
0
LINE
8
DIM
10
175.284713
20
179.350500
30
0.0
11
153.484713
21
179.350500
31
0.0
0
LINE
8
DIM
10
155.484713
20
172.724500
30
0.0
11
155.484713
21
179.350500
31
0.0
0
SOLID
8
DIM
10
155.484713
20
172.724500
30
0.0
11
154.876713
21
169.524500
31
0.0
12
156.092713
22
169.524500
32
0.0
13
156.092713
23
169.524500
33
0.0
0
SOLID
8
DIM
10
155.484713
20
179.350500
30
0.0
11
156.092713
21
182.550500
31
0.0
12
154.876713
22
182.550500
32
0.0
13
154.876713
23
182.550500
33
0.0
0
LINE
8
DIM
10
155.484713
20
179.350500
30
0.0
11
155.484713
21
188.950500
31
0.0
0
TEXT
8
TEXT
10
154.484713
20
189.750500
30
0.0
40
2.5000
1
6.63
50
90.0000
0
LINE
8
DIM
10
176.484713
20
173.924500
30
0.0
11
176.484713
21
198.350500
31
0.0
0
LINE
8
DIM
10
178.492357
20
173.924500
30
0.0
11
178.492357
21
198.350500
31
0.0
0
LINE
8
DIM
10
176.484713
20
196.350500
30
0.0
11
178.492357
21
196.350500
31
0.0
0
SOLID
8
DIM
10
176.484713
20
196.350500
30
0.0
11
173.284713
21
196.958500
31
0.0
12
173.284713
22
195.742500
32
0.0
13
173.284713
23
195.742500
33
0.0
0
SOLID
8
DIM
10
178.492357
20
196.350500
30
0.0
11
181.692357
21
195.742500
31
0.0
12
181.692357
22
196.958500
32
0.0
13
181.692357
23
196.958500
33
0.0
0
LINE
8
DIM
10
178.492357
20
196.350500
30
0.0
11
188.092357
21
196.350500
31
0.0
0
TEXT
8
TEXT
10
188.892357
20
196.750500
30
0.0
40
2.5000
1
2.01
0
LINE
8
DIM
10
177.684713
20
172.724500
30
0.0
11
240.500000
21
172.724500
31
0.0
0
LINE
8
DIM
10
177.684713
20
177.337500
30
0.0
11
240.500000
21
177.337500
31
0.0
0
LINE
8
DIM
10
238.500000
20
172.724500
30
0.0
11
238.500000
21
177.337500
31
0.0
0
SOLID
8
DIM
10
238.500000
20
172.724500
30
0.0
11
237.892000
21
169.524500
31
0.0
12
239.108000
22
169.524500
32
0.0
13
239.108000
23
169.524500
33
0.0
0
SOLID
8
DIM
10
238.500000
20
177.337500
30
0.0
11
239.108000
21
180.537500
31
0.0
12
237.892000
22
180.537500
32
0.0
13
237.892000
23
180.537500
33
0.0
0
LINE
8
DIM
10
238.500000
20
177.337500
30
0.0
11
238.500000
21
186.937500
31
0.0
0
TEXT
8
TEXT
10
237.500000
20
187.737500
30
0.0
40
2.5000
1
4.61
50
90.0000
0
LINE
8
DIM
10
176.484713
20
173.924500
30
0.0
11
176.484713
21
204.850500
31
0.0
0
LINE
8
DIM
10
228.492357
20
173.924500
30
0.0
11
228.492357
21
204.850500
31
0.0
0
LINE
8
DIM
10
176.484713
20
202.850500
30
0.0
11
228.492357
21
202.850500
31
0.0
0
SOLID
8
DIM
10
176.484713
20
202.850500
30
0.0
11
179.684713
21
202.242500
31
0.0
12
179.684713
22
203.458500
32
0.0
13
179.684713
23
203.458500
33
0.0
0
SOLID
8
DIM
10
228.492357
20
202.850500
30
0.0
11
225.292357
21
203.458500
31
0.0
12
225.292357
22
202.242500
32
0.0
13
225.292357
23
202.242500
33
0.0
0
TEXT
8
TEXT
10
202.488535
20
203.850500
30
0.0
40
2.5000
1
52.01
72
1
73
0
11
202.488535
21
203.850500
31
0.0
0
LINE
8
DIM
10
177.684713
20
172.724500
30
0.0
11
247.000000
21
172.724500
31
0.0
0
LINE
8
DIM
10
177.684713
20
177.337500
30
0.0
11
247.000000
21
177.337500
31
0.0
0
LINE
8
DIM
10
245.000000
20
172.724500
30
0.0
11
245.000000
21
177.337500
31
0.0
0
SOLID
8
DIM
10
245.000000
20
172.724500
30
0.0
11
244.392000
21
169.524500
31
0.0
12
245.608000
22
169.524500
32
0.0
13
245.608000
23
169.524500
33
0.0
0
SOLID
8
DIM
10
245.000000
20
177.337500
30
0.0
11
245.608000
21
180.537500
31
0.0
12
244.392000
22
180.537500
32
0.0
13
244.392000
23
180.537500
33
0.0
0
LINE
8
DIM
10
245.000000
20
177.337500
30
0.0
11
245.000000
21
186.937500
31
0.0
0
TEXT
8
TEXT
10
244.000000
20
187.737500
30
0.0
40
2.5000
1
4.61
50
90.0000
0
SOLID
8
DIM
10
179.161581
20
178.194068
30
0.0
11
181.610808
21
180.341380
31
0.0
12
180.652587
22
181.090024
32
0.0
13
180.652587
23
181.090024
33
0.0
0
LINE
8
DIM
10
179.161581
20
178.194068
30
0.0
11
205.847510
21
212.350500
31
0.0
0
LINE
8
DIM
10
205.847510
20
212.350500
30
0.0
11
210.847510
21
212.350500
31
0.0
0
TEXT
8
TEXT
10
211.647510
20
213.350500
30
0.0
40
2.5000
1
2x Ø2.17 THRU
0
SOLID
8
DIM
10
178.492357
20
176.250500
30
0.0
11
175.297653
21
176.885741
31
0.0
12
175.287293
22
175.669785
32
0.0
13
175.287293
23
175.669785
33
0.0
0
LINE
8
DIM
10
178.492357
20
176.250500
30
0.0
11
168.492719
21
176.335697
31
0.0
0
LINE
8
DIM
10
168.492719
20
176.335697
30
0.0
11
165.492719
21
176.335697
31
0.0
0
TEXT
8
TEXT
10
164.692719
20
177.335697
30
0.0
40
2.5000
1
R1.09
72
2
73
0
11
164.692719
21
177.335697
31
0.0
0
LINE
8
DIM
10
228.492357
20
176.137500
30
0.0
11
228.492357
21
142.724500
31
0.0
0
LINE
8
DIM
10
178.492357
20
176.137500
30
0.0
11
178.492357
21
142.724500
31
0.0
0
LINE
8
DIM
10
178.492357
20
144.724500
30
0.0
11
228.492357
21
144.724500
31
0.0
0
SOLID
8
DIM
10
178.492357
20
144.724500
30
0.0
11
181.692357
21
144.116500
31
0.0
12
181.692357
22
145.332500
32
0.0
13
181.692357
23
145.332500
33
0.0
0
SOLID
8
DIM
10
228.492357
20
144.724500
30
0.0
11
225.292357
21
145.332500
31
0.0
12
225.292357
22
144.116500
32
0.0
13
225.292357
23
144.116500
33
0.0
0
TEXT
8
TEXT
10
203.492357
20
145.724500
30
0.0
40
2.5000
1
50.00
72
1
73
0
11
203.492357
21
145.724500
31
0.0
0
TEXT
8
TEXT
10
203.492357
20
132.724500
30
0.0
40
4.0000
1
FRONT VIEW
72
1
73
0
11
203.492357
21
132.724500
31
0.0
0
LINE
8
TEXT
10
191.492357
20
131.124500
30
0.0
11
215.492357
21
131.124500
31
0.0
0
TEXT
8
TEXT
10
203.492357
20
126.724500
30
0.0
40
2.4000
1
-X →   Z ↑
72
1
73
0
11
203.492357
21
126.724500
31
0.0
0
LINE
8
DIM
10
176.484713
20
242.275500
30
0.0
11
176.484713
21
229.475500
31
0.0
0
LINE
8
DIM
10
230.500000
20
242.275500
30
0.0
11
230.500000
21
229.475500
31
0.0
0
LINE
8
DIM
10
176.484713
20
231.475500
30
0.0
11
230.500000
21
231.475500
31
0.0
0
SOLID
8
DIM
10
176.484713
20
231.475500
30
0.0
11
179.684713
21
230.867500
31
0.0
12
179.684713
22
232.083500
32
0.0
13
179.684713
23
232.083500
33
0.0
0
SOLID
8
DIM
10
230.500000
20
231.475500
30
0.0
11
227.300000
21
232.083500
31
0.0
12
227.300000
22
230.867500
32
0.0
13
227.300000
23
230.867500
33
0.0
0
TEXT
8
TEXT
10
203.492357
20
232.475500
30
0.0
40
2.5000
1
54.02
72
1
73
0
11
203.492357
21
232.475500
31
0.0
0
LINE
8
DIM
10
175.284713
20
243.475500
30
0.0
11
162.484713
21
243.475500
31
0.0
0
LINE
8
DIM
10
175.284713
20
247.275500
30
0.0
11
162.484713
21
247.275500
31
0.0
0
LINE
8
DIM
10
164.484713
20
243.475500
30
0.0
11
164.484713
21
247.275500
31
0.0
0
SOLID
8
DIM
10
164.484713
20
243.475500
30
0.0
11
163.876713
21
240.275500
31
0.0
12
165.092713
22
240.275500
32
0.0
13
165.092713
23
240.275500
33
0.0
0
SOLID
8
DIM
10
164.484713
20
247.275500
30
0.0
11
165.092713
21
250.475500
31
0.0
12
163.876713
22
250.475500
32
0.0
13
163.876713
23
250.475500
33
0.0
0
LINE
8
DIM
10
164.484713
20
247.275500
30
0.0
11
164.484713
21
256.875500
31
0.0
0
TEXT
8
TEXT
10
163.484713
20
257.675500
30
0.0
40
2.5000
1
3.80
50
90.0000
0
TEXT
8
TEXT
10
203.492357
20
219.475500
30
0.0
40
4.0000
1
TOP VIEW
72
1
73
0
11
203.492357
21
219.475500
31
0.0
0
LINE
8
TEXT
10
193.892357
20
217.875500
30
0.0
11
213.092357
21
217.875500
31
0.0
0
TEXT
8
TEXT
10
203.492357
20
213.475500
30
0.0
40
2.4000
1
X →   Y ↑
72
1
73
0
11
203.492357
21
213.475500
31
0.0
0
LINE
8
DIM
10
273.500000
20
172.937500
30
0.0
11
273.500000
21
160.137500
31
0.0
0
LINE
8
DIM
10
327.515287
20
172.937500
30
0.0
11
327.515287
21
160.137500
31
0.0
0
LINE
8
DIM
10
273.500000
20
162.137500
30
0.0
11
327.515287
21
162.137500
31
0.0
0
SOLID
8
DIM
10
273.500000
20
162.137500
30
0.0
11
276.700000
21
161.529500
31
0.0
12
276.700000
22
162.745500
32
0.0
13
276.700000
23
162.745500
33
0.0
0
SOLID
8
DIM
10
327.515287
20
162.137500
30
0.0
11
324.315287
21
162.745500
31
0.0
12
324.315287
22
161.529500
32
0.0
13
324.315287
23
161.529500
33
0.0
0
TEXT
8
TEXT
10
300.507643
20
163.137500
30
0.0
40
2.5000
1
54.02
72
1
73
0
11
300.507643
21
163.137500
31
0.0
0
LINE
8
DIM
10
272.300000
20
174.137500
30
0.0
11
259.500000
21
174.137500
31
0.0
0
LINE
8
DIM
10
272.300000
20
177.937500
30
0.0
11
259.500000
21
177.937500
31
0.0
0
LINE
8
DIM
10
261.500000
20
174.137500
30
0.0
11
261.500000
21
177.937500
31
0.0
0
SOLID
8
DIM
10
261.500000
20
174.137500
30
0.0
11
260.892000
21
170.937500
31
0.0
12
262.108000
22
170.937500
32
0.0
13
262.108000
23
170.937500
33
0.0
0
SOLID
8
DIM
10
261.500000
20
177.937500
30
0.0
11
262.108000
21
181.137500
31
0.0
12
260.892000
22
181.137500
32
0.0
13
260.892000
23
181.137500
33
0.0
0
LINE
8
DIM
10
261.500000
20
177.937500
30
0.0
11
261.500000
21
187.537500
31
0.0
0
TEXT
8
TEXT
10
260.500000
20
188.337500
30
0.0
40
2.5000
1
3.80
50
90.0000
0
LINE
8
HATCH
10
274.420642
20
176.437500
30
0.0
11
274.420643
21
176.437501
31
0.0
0
LINE
8
HATCH
10
290.517642
20
176.437500
30
0.0
11
290.517643
21
176.437501
31
0.0
0
LINE
8
HATCH
10
286.275001
20
176.437500
30
0.0
11
287.775001
21
177.937500
31
0.0
0
LINE
8
HATCH
10
282.032361
20
176.437500
30
0.0
11
283.532361
21
177.937500
31
0.0
0
LINE
8
HATCH
10
277.789720
20
176.437500
30
0.0
11
279.289720
21
177.937500
31
0.0
0
LINE
8
HATCH
10
324.420642
20
176.437500
30
0.0
11
324.420643
21
176.437501
31
0.0
0
LINE
8
HATCH
10
320.178001
20
176.437500
30
0.0
11
321.678001
21
177.937500
31
0.0
0
LINE
8
HATCH
10
315.935361
20
176.437500
30
0.0
11
317.435361
21
177.937500
31
0.0
0
LINE
8
HATCH
10
311.692720
20
176.437500
30
0.0
11
313.192720
21
177.937500
31
0.0
0
LINE
8
HATCH
10
307.450079
20
176.437500
30
0.0
11
308.950079
21
177.937500
31
0.0
0
LINE
8
HATCH
10
303.207439
20
176.437500
30
0.0
11
304.707439
21
177.937500
31
0.0
0
LINE
8
HATCH
10
327.515029
20
176.437500
30
0.0
11
327.515030
21
176.437501
31
0.0
0
LINE
8
DIM
10
326.594643
20
177.650001
30
0.0
11
326.594643
21
186.937500
31
0.0
0
LINE
8
DIM
10
327.515030
20
177.650001
30
0.0
11
327.515030
21
186.937500
31
0.0
0
LINE
8
DIM
10
326.594643
20
184.937500
30
0.0
11
327.515030
21
184.937500
31
0.0
0
SOLID
8
DIM
10
326.594643
20
184.937500
30
0.0
11
323.394643
21
185.545500
31
0.0
12
323.394643
22
184.329500
32
0.0
13
323.394643
23
184.329500
33
0.0
0
SOLID
8
DIM
10
327.515030
20
184.937500
30
0.0
11
330.715030
21
184.329500
31
0.0
12
330.715030
22
185.545500
32
0.0
13
330.715030
23
185.545500
33
0.0
0
LINE
8
DIM
10
327.515030
20
184.937500
30
0.0
11
337.115030
21
184.937500
31
0.0
0
TEXT
8
TEXT
10
337.915030
20
185.337500
30
0.0
40
2.5000
1
0.92 WALL
0
LINE
8
DIM
10
275.150381
20
176.437500
30
0.0
11
362.515287
21
176.437500
31
0.0
0
LINE
8
DIM
10
275.150381
20
177.937500
30
0.0
11
362.515287
21
177.937500
31
0.0
0
LINE
8
DIM
10
360.515287
20
176.437500
30
0.0
11
360.515287
21
177.937500
31
0.0
0
SOLID
8
DIM
10
360.515287
20
176.437500
30
0.0
11
359.907287
21
173.237500
31
0.0
12
361.123287
22
173.237500
32
0.0
13
361.123287
23
173.237500
33
0.0
0
SOLID
8
DIM
10
360.515287
20
177.937500
30
0.0
11
361.123287
21
181.137500
31
0.0
12
359.907287
22
181.137500
32
0.0
13
359.907287
23
181.137500
33
0.0
0
LINE
8
DIM
10
360.515287
20
177.937500
30
0.0
11
360.515287
21
187.537500
31
0.0
0
TEXT
8
TEXT
10
359.515287
20
188.337500
30
0.0
40
2.5000
1
1.50 WALL
50
90.0000
0
TEXT
8
TEXT
10
300.507643
20
150.137500
30
0.0
40
4.0000
1
SECTION A-A
72
1
73
0
11
300.507643
21
150.137500
31
0.0
0
LINE
8
TEXT
10
287.307643
20
148.537500
30
0.0
11
313.707643
21
148.537500
31
0.0
0
TEXT
8
TEXT
10
539.000000
20
336.075989
30
0.0
40
4.0000
1
ISOMETRIC VIEW
72
1
73
0
11
539.000000
21
336.075989
31
0.0
0
LINE
8
TEXT
10
522.200000
20
334.475989
30
0.0
11
555.800000
21
334.475989
31
0.0
0
TEXT
8
TEXT
10
539.000000
20
330.075989
30
0.0
40
2.6000
1
54.02 x 3.80 x 6.63 mm
72
1
73
0
11
539.000000
21
330.075989
31
0.0
0
LINE
8
CENTER
10
53.010000
20
61.630000
30
0.0
11
58.845000
21
61.630000
31
0.0
0
LINE
8
CENTER
10
61.245000
20
61.630000
30
0.0
11
67.080000
21
61.630000
31
0.0
0
LINE
8
CENTER
10
60.045000
20
54.595000
30
0.0
11
60.045000
21
60.430000
31
0.0
0
LINE
8
CENTER
10
60.045000
20
62.830000
30
0.0
11
60.045000
21
68.665000
31
0.0
0
SOLID
8
DIM
10
310.045000
20
56.195000
30
0.0
11
313.240599
21
55.564280
31
0.0
12
313.249239
22
56.780249
32
0.0
13
313.249239
23
56.780249
33
0.0
0
LINE
8
DIM
10
310.045000
20
56.195000
30
0.0
11
320.044748
21
56.123951
31
0.0
0
LINE
8
DIM
10
320.044748
20
56.123951
30
0.0
11
323.044748
21
56.123951
31
0.0
0
TEXT
8
TEXT
10
323.844748
20
57.123951
30
0.0
40
2.5000
1
R1.09
0
TEXT
8
TEXT
10
56.000000
20
103.000000
30
0.0
40
4.0000
1
DETAIL A
72
1
73
0
11
56.000000
21
103.000000
31
0.0
0
LINE
8
TEXT
10
46.400000
20
101.400000
30
0.0
11
65.600000
21
101.400000
31
0.0
0
TEXT
8
TEXT
10
56.000000
20
108.500000
30
0.0
40
2.8000
1
SCALE 5:1
72
1
73
0
11
56.000000
21
108.500000
31
0.0
0
LINE
8
CUT
10
167.484713
20
177.337500
30
0.0
11
181.484713
21
177.337500
31
0.0
0
LINE
8
CUTTHIN
10
181.484713
20
177.337500
30
0.0
11
225.500000
21
177.337500
31
0.0
0
LINE
8
CUT
10
225.500000
20
177.337500
30
0.0
11
239.500000
21
177.337500
31
0.0
0
LINE
8
CUT
10
167.484713
20
177.337500
30
0.0
11
167.484713
21
168.337500
31
0.0
0
SOLID
8
CUT
10
167.484713
20
168.337500
30
0.0
11
168.282713
21
172.537500
31
0.0
12
166.686713
22
172.537500
32
0.0
13
166.686713
23
172.537500
33
0.0
0
TEXT
8
TEXT
10
167.484713
20
182.337500
30
0.0
40
4.0000
1
A
72
1
73
2
11
167.484713
21
182.337500
31
0.0
0
LINE
8
CUT
10
239.500000
20
177.337500
30
0.0
11
239.500000
21
168.337500
31
0.0
0
SOLID
8
CUT
10
239.500000
20
168.337500
30
0.0
11
240.298000
21
172.537500
31
0.0
12
238.702000
22
172.537500
32
0.0
13
238.702000
23
172.537500
33
0.0
0
TEXT
8
TEXT
10
239.500000
20
182.337500
30
0.0
40
4.0000
1
A
72
1
73
2
11
239.500000
21
182.337500
31
0.0
0
CIRCLE
8
CENTER
10
177.683357
20
176.611500
30
0.0
40
8.000000
0
TEXT
8
TEXT
10
187.183357
20
186.111500
30
0.0
40
4.0000
1
A
0
LINE
8
VISIBLE
10
510.000000
20
276.253767
30
0.0
11
568.000000
21
276.253767
31
0.0
0
LINE
8
VISIBLE
10
568.000000
20
276.253767
30
0.0
11
568.000000
21
320.075989
31
0.0
0
LINE
8
VISIBLE
10
568.000000
20
320.075989
30
0.0
11
510.000000
21
320.075989
31
0.0
0
LINE
8
VISIBLE
10
510.000000
20
320.075989
30
0.0
11
510.000000
21
276.253767
31
0.0
0
LINE
8
TITLE
10
510.000000
20
276.253767
30
0.0
11
568.000000
21
276.253767
31
0.0
0
LINE
8
TITLE
10
568.000000
20
276.253767
30
0.0
11
568.000000
21
320.075989
31
0.0
0
LINE
8
TITLE
10
568.000000
20
320.075989
30
0.0
11
510.000000
21
320.075989
31
0.0
0
LINE
8
TITLE
10
510.000000
20
320.075989
30
0.0
11
510.000000
21
276.253767
31
0.0
0
TEXT
8
TEXT
10
539.000000
20
273.653767
30
0.0
40
2.0000
1
REFERENCE RENDER (ISO2) — rendered off this solid,
72
1
73
0
11
539.000000
21
273.653767
31
0.0
0
TEXT
8
TEXT
10
539.000000
20
271.053767
30
0.0
40
2.0000
1
900 x 680 px
72
1
73
0
11
539.000000
21
271.053767
31
0.0
0
TEXT
8
TEXT
10
496.000000
20
262.253767
30
0.0
40
3.0000
1
NOTES
0
TEXT
8
TEXT
10
496.000000
20
257.653767
30
0.0
40
2.4000
1
1. ALL DIMENSIONS IN mm AND DEGREES. EVERY DIMENSION AND
0
TEXT
8
TEXT
10
496.000000
20
253.933767
30
0.0
40
2.4000
1
   EVERY HOLE CALLOUT WAS MEASURED OFF THE SOLID.
0
TEXT
8
TEXT
10
496.000000
20
250.213767
30
0.0
40
2.4000
1
2. PROCESS: FDM.
0
TEXT
8
TEXT
10
496.000000
20
246.493767
30
0.0
40
2.4000
1
3. THINNEST WALL, WHOLE SOLID: 0.9210 mm, AT X=25.809
0
TEXT
8
TEXT
10
496.000000
20
242.773767
30
0.0
40
2.4000
1
   Y=35.500 Z=52.874 — MEASURED OVER THE WHOLE SOLID BY
0
TEXT
8
TEXT
10
496.000000
20
239.053767
30
0.0
40
2.4000
1
   RAY+EXACT AT 0.370 mm SAMPLE SPACING (A FEATURE
0
TEXT
8
TEXT
10
496.000000
20
235.333767
30
0.0
40
2.4000
1
   NARROWER THAN THAT CAN BE MISSED). A RAY MINIMUM AT AN
0
TEXT
8
TEXT
10
496.000000
20
231.613767
30
0.0
40
2.4000
1
   EDGE, A FILLET RUN-OUT OR A CHAMFER TIP IS A REAL
0
TEXT
8
TEXT
10
496.000000
20
227.893767
30
0.0
40
2.4000
1
   DISTANCE THROUGH MATERIAL AND IS NOT A PRINTABLE WALL.
0
TEXT
8
TEXT
10
496.000000
20
224.173767
30
0.0
40
2.4000
1
4. GENERAL TOLERANCE CANNOT DETERMINE — SEE PRINT / DFM
0
TEXT
8
TEXT
10
496.000000
20
220.453767
30
0.0
40
2.4000
1
   NOTES UNLESS STATED.
0
TEXT
8
TEXT
10
496.000000
20
216.733767
30
0.0
40
2.4000
1
5. SECTION A-A AT Z=53.60: THINNEST MATERIAL IN THIS PLANE
0
TEXT
8
TEXT
10
496.000000
20
213.013767
30
0.0
40
2.4000
1
   ONLY 0.92 mm, AT X=26.55, Y=35.01 — A SCAN OF ONE CUT,
0
TEXT
8
TEXT
10
496.000000
20
209.293767
30
0.0
40
2.4000
1
   NOT THE PART MINIMUM.
0
TEXT
8
TEXT
10
496.000000
20
205.573767
30
0.0
40
2.4000
1
6. FRONT VIEW: hidden lines SUPPRESSED: all 768 edge
0
TEXT
8
TEXT
10
496.000000
20
201.853767
30
0.0
40
2.4000
1
   samples still land on drawn ink without them.
0
TEXT
8
TEXT
10
496.000000
20
198.133767
30
0.0
40
2.4000
1
7. TOP VIEW: hidden lines KEPT: without them 48 of 764
0
TEXT
8
TEXT
10
496.000000
20
194.413767
30
0.0
40
2.4000
1
   edge samples have no ink within 0.35 mm (worst 0.563
0
TEXT
8
TEXT
10
496.000000
20
190.693767
30
0.0
40
2.4000
1
   mm) and the feature would be missing from the sheet.
0
TEXT
8
TEXT
10
496.000000
20
182.973767
30
0.0
40
3.0000
1
PRINT / DFM
0
TEXT
8
TEXT
10
496.000000
20
178.373767
30
0.0
40
2.4000
1
1. ORIENTATION: laid flat (54 x 4 x 7 mm)
0
TEXT
8
TEXT
10
496.000000
20
174.653767
30
0.0
40
2.4000
1
2. THINNEST WALL: 0.92 mm (floor 0.80 mm = 2 perimeters @
0
TEXT
8
TEXT
10
496.000000
20
170.933767
30
0.0
40
2.4000
1
   0.4 mm nozzle)
0
TEXT
8
TEXT
10
496.000000
20
167.213767
30
0.0
40
2.4000
1
3. 2 horizontal bore(s) bridge at the crown: ream any
0
TEXT
8
TEXT
10
496.000000
20
163.493767
30
0.0
40
2.4000
1
   bearing or press-fit bore to size
0
TEXT
8
TEXT
10
496.000000
20
159.773767
30
0.0
40
2.4000
1
4. FILAMENT: PLA, ~1 g (modelled), 34 layers @ 0.2 mm
0
TEXT
8
TEXT
10
496.000000
20
156.053767
30
0.0
40
2.4000
1
5. TOLERANCE BASIS, IN-HOUSE: CANNOT DETERMINE. Every
0
TEXT
8
TEXT
10
496.000000
20
152.333767
30
0.0
40
2.4000
1
   Bambu on this farm records tolerance_mm: null, cite "no
0
TEXT
8
TEXT
10
496.000000
20
148.613767
30
0.0
40
2.4000
1
   coupon printed and measured on this machine"
0
TEXT
8
TEXT
10
496.000000
20
144.893767
30
0.0
40
2.4000
1
   (ce-machines/bambu-h2s-*,
0
TEXT
8
TEXT
10
496.000000
20
141.173767
30
0.0
40
2.4000
1
   bambu-h2d-*/capabilities.json, read 2026-09-02), and
0
TEXT
8
TEXT
10
496.000000
20
137.453767
30
0.0
40
2.4000
1
   Bambu Lab's own H2D Pro spec sheet carries no
0
TEXT
8
TEXT
10
496.000000
20
133.733767
30
0.0
40
2.4000
1
   dimensional-accuracy line. DIMENSIONS HERE ARE NOMINAL
0
TEXT
8
TEXT
10
496.000000
20
130.013767
30
0.0
40
2.4000
1
   AS MODELLED.
0
TEXT
8
TEXT
10
496.000000
20
126.293767
30
0.0
40
2.4000
1
6. TOLERANCE BASIS, OUTSOURCED: JLC3DP +/-0.3 mm FDM
0
TEXT
8
TEXT
10
496.000000
20
122.573767
30
0.0
40
2.4000
1
   (jlc3dp.com, ce-machines/farm-jlc3dp); Hubs +/-0.5%,
0
TEXT
8
TEXT
10
496.000000
20
118.853767
30
0.0
40
2.4000
1
   floor +/-0.5 mm (hubs.com/3d-printing/,
0
TEXT
8
TEXT
10
496.000000
20
115.133767
30
0.0
40
2.4000
1
   ce-machines/farm-hubs). Apply the route's figure, not
0
TEXT
8
TEXT
10
496.000000
20
111.413767
30
0.0
40
2.4000
1
   both. The +/-0.2 mm in cecad/machining.py fdm is a repo
0
TEXT
8
TEXT
10
496.000000
20
107.693767
30
0.0
40
2.4000
1
   planning constant with no vendor cite and is NOT used
0
TEXT
8
TEXT
10
496.000000
20
103.973767
30
0.0
40
2.4000
1
   here. One printed and measured coupon closes this note.
0
TEXT
8
TEXT
10
496.000000
20
100.253767
30
0.0
40
2.4000
1
7. NO ISO 286 CLASS IS DECLARED ON ANY BORE: FDM cannot be
0
TEXT
8
TEXT
10
496.000000
20
96.533767
30
0.0
40
2.4000
1
   sized to one (H7/p6 at O3 is a 0.010 mm band). REAM
0
TEXT
8
TEXT
10
496.000000
20
92.813767
30
0.0
40
2.4000
1
   bearing and press-fit bores after printing.
0
LINE
8
FRAME
10
398.000000
20
10.000000
30
0.0
11
584.000000
21
10.000000
31
0.0
0
LINE
8
FRAME
10
584.000000
20
10.000000
30
0.0
11
584.000000
21
66.000000
31
0.0
0
LINE
8
FRAME
10
584.000000
20
66.000000
30
0.0
11
398.000000
21
66.000000
31
0.0
0
LINE
8
FRAME
10
398.000000
20
66.000000
30
0.0
11
398.000000
21
10.000000
31
0.0
0
LINE
8
TITLE
10
398.000000
20
53.000000
30
0.0
11
584.000000
21
53.000000
31
0.0
0
LINE
8
TITLE
10
398.000000
20
19.000000
30
0.0
11
584.000000
21
19.000000
31
0.0
0
LINE
8
TITLE
10
398.000000
20
27.500000
30
0.0
11
584.000000
21
27.500000
31
0.0
0
LINE
8
TITLE
10
398.000000
20
36.000000
30
0.0
11
584.000000
21
36.000000
31
0.0
0
LINE
8
TITLE
10
398.000000
20
44.500000
30
0.0
11
584.000000
21
44.500000
31
0.0
0
TEXT
8
TEXT
10
400.500000
20
59.500000
30
0.0
40
6.0000
1
MICRODUCK-BANANA-PCB-LOCKER
72
0
73
2
11
400.500000
21
59.500000
31
0.0
0
LINE
8
TITLE
10
564.000000
20
53.000000
30
0.0
11
564.000000
21
66.000000
31
0.0
0
TEXT
8
TITLE
10
574.000000
20
63.600000
30
0.0
40
1.7000
1
REV
72
1
73
0
11
574.000000
21
63.600000
31
0.0
0
TEXT
8
TEXT
10
574.000000
20
55.000000
30
0.0
40
5.2000
1
A
72
1
73
0
11
574.000000
21
55.000000
31
0.0
0
LINE
8
TITLE
10
534.000000
20
53.000000
30
0.0
11
534.000000
21
66.000000
31
0.0
0
CIRCLE
8
TITLE
10
540.500000
20
59.500000
30
0.0
40
3.500000
0
CIRCLE
8
TITLE
10
540.500000
20
59.500000
30
0.0
40
1.960000
0
LINE
8
TITLE
10
550.300000
20
56.000000
30
0.0
11
550.300000
21
63.000000
31
0.0
0
LINE
8
TITLE
10
550.300000
20
63.000000
30
0.0
11
556.250000
21
61.460000
31
0.0
0
LINE
8
TITLE
10
556.250000
20
61.460000
30
0.0
11
556.250000
21
57.540000
31
0.0
0
LINE
8
TITLE
10
556.250000
20
57.540000
30
0.0
11
550.300000
21
56.000000
31
0.0
0
LINE
8
CENTER
10
535.500000
20
59.500000
30
0.0
11
557.750000
21
59.500000
31
0.0
0
LINE
8
TITLE
10
462.000000
20
19.000000
30
0.0
11
462.000000
21
53.000000
31
0.0
0
LINE
8
TITLE
10
526.000000
20
19.000000
30
0.0
11
526.000000
21
53.000000
31
0.0
0
TEXT
8
TITLE
10
399.600000
20
50.600000
30
0.0
40
1.7000
1
MATERIAL
0
TEXT
8
TEXT
10
399.600000
20
45.900000
30
0.0
40
2.5000
1
PLA
0
TEXT
8
TITLE
10
463.600000
20
50.600000
30
0.0
40
1.7000
1
PROCESS
0
TEXT
8
TEXT
10
463.600000
20
45.900000
30
0.0
40
2.5000
1
FDM
0
TEXT
8
TITLE
10
527.600000
20
50.600000
30
0.0
40
1.7000
1
SCALE
0
TEXT
8
TEXT
10
527.600000
20
45.900000
30
0.0
40
2.5000
1
1:1
0
TEXT
8
TITLE
10
399.600000
20
42.100000
30
0.0
40
1.7000
1
CATEGORY
0
TEXT
8
TEXT
10
399.600000
20
37.400000
30
0.0
40
2.5000
1
bracket
0
TEXT
8
TITLE
10
431.600000
20
42.100000
30
0.0
40
1.7000
1
GENERAL TOL
0
TEXT
8
TEXT
10
431.600000
20
37.400000
30
0.0
40
2.5000
1
CANNOT DETERMINE —~
0
LINE
8
TITLE
10
430.000000
20
36.000000
30
0.0
11
430.000000
21
44.500000
31
0.0
0
TEXT
8
TITLE
10
463.600000
20
42.100000
30
0.0
40
1.7000
1
FINISH
0
TEXT
8
TEXT
10
463.600000
20
37.400000
30
0.0
40
2.5000
1
AS PRINTED
0
TEXT
8
TITLE
10
527.600000
20
42.100000
30
0.0
40
1.7000
1
SHEET
0
TEXT
8
TEXT
10
527.600000
20
37.400000
30
0.0
40
2.5000
1
A2  1/1
0
TEXT
8
TITLE
10
399.600000
20
33.600000
30
0.0
40
1.7000
1
VOLUME (MEASURED)
0
TEXT
8
TEXT
10
399.600000
20
28.900000
30
0.0
40
2.5000
1
0.46 cm3
0
TEXT
8
TITLE
10
463.600000
20
33.600000
30
0.0
40
1.7000
1
MASS (ASSUMES PLA)
0
TEXT
8
TEXT
10
463.600000
20
28.900000
30
0.0
40
2.5000
1
0.6 g
0
TEXT
8
TITLE
10
527.600000
20
33.600000
30
0.0
40
1.7000
1
UNITS
0
TEXT
8
TEXT
10
527.600000
20
28.900000
30
0.0
40
2.5000
1
mm / deg
0
TEXT
8
TITLE
10
399.600000
20
25.100000
30
0.0
40
1.7000
1
SIZE (BBOX, MEASURED)
0
TEXT
8
TEXT
10
399.600000
20
20.400000
30
0.0
40
2.5000
1
54.02 x 3.80 x 6.63
0
TEXT
8
TITLE
10
463.600000
20
25.100000
30
0.0
40
1.7000
1
DRAWN
0
TEXT
8
TEXT
10
463.600000
20
20.400000
30
0.0
40
2.5000
1
ce-cad  2026-09-03
0
TEXT
8
TITLE
10
527.600000
20
25.100000
30
0.0
40
1.7000
1
PROJECTION
0
TEXT
8
TEXT
10
527.600000
20
20.400000
30
0.0
40
2.5000
1
THIRD ANGLE
0
TEXT
8
TITLE
10
399.600000
20
16.600000
30
0.0
40
1.7000
1
SOURCE (DESIGN FILE)
0
TEXT
8
TEXT
10
399.600000
20
11.400000
30
0.0
40
2.6000
1
ce-parts/microduck-banana-pcb-locker/current/cad/part.py
0
TEXT
8
TEXT
10
12.500000
20
403.500000
30
0.0
40
4.2000
1
microduck-banana-pcb-locker   SCALE 1:1   A2   THIRD ANGLE
0
ENDSEC
0
EOF
