ISO-10303-21;
HEADER;
FILE_DESCRIPTION(('FreeCAD Model'),'2;1');
FILE_NAME('Open CASCADE Shape Model','2026-09-04T18:51:58',('Author'),(
    ''),'Open CASCADE STEP processor 7.8','FreeCAD','Unknown');
FILE_SCHEMA(('AUTOMOTIVE_DESIGN { 1 0 10303 214 1 1 1 1 }'));
ENDSEC;
DATA;
#1 = APPLICATION_PROTOCOL_DEFINITION('international standard',
  'automotive_design',2000,#2);
#2 = APPLICATION_CONTEXT(
  'core data for automotive mechanical design processes');
#3 = SHAPE_DEFINITION_REPRESENTATION(#4,#10);
#4 = PRODUCT_DEFINITION_SHAPE('','',#5);
#5 = PRODUCT_DEFINITION('design','',#6,#9);
#6 = PRODUCT_DEFINITION_FORMATION('','',#7);
#7 = PRODUCT('exp_10u_63v_cp_elec_6_3x7_7','exp_10u_63v_cp_elec_6_3x7_7'
  ,'',(#8));
#8 = PRODUCT_CONTEXT('',#2,'mechanical');
#9 = PRODUCT_DEFINITION_CONTEXT('part definition',#2,'design');
#10 = ADVANCED_BREP_SHAPE_REPRESENTATION('',(#11,#15),#1380);
#11 = AXIS2_PLACEMENT_3D('',#12,#13,#14);
#12 = CARTESIAN_POINT('',(0.,0.,0.));
#13 = DIRECTION('',(0.,0.,1.));
#14 = DIRECTION('',(1.,0.,-0.));
#15 = MANIFOLD_SOLID_BREP('',#16);
#16 = CLOSED_SHELL('',(#17,#60,#86,#159,#238,#278,#357,#382,#407,#463,
    #519,#544,#569,#634,#707,#793,#810,#841,#853,#870,#882,#900,#912,
    #930,#942,#973,#1025,#1057,#1082,#1107,#1139,#1164,#1189,#1206,#1223
    ,#1271,#1312,#1330,#1342,#1354,#1370));
#17 = ADVANCED_FACE('',(#18),#55,.T.);
#18 = FACE_BOUND('',#19,.T.);
#19 = EDGE_LOOP('',(#20,#39,#47,#54));
#20 = ORIENTED_EDGE('',*,*,#21,.T.);
#21 = EDGE_CURVE('',#22,#22,#24,.T.);
#22 = VERTEX_POINT('',#23);
#23 = CARTESIAN_POINT('',(-24.450001,-19.657381,1.063268122105));
#24 = ( BOUNDED_CURVE() B_SPLINE_CURVE(13,(#25,#26,#27,#28,#29,#30,#31,
    #32,#33,#34,#35,#36,#37,#38),.UNSPECIFIED.,.T.,.F.) 
B_SPLINE_CURVE_WITH_KNOTS((1,13,13,1),(-19.79203371761,
    3.914259941243E-16,19.792033717616,39.584067435232),.UNSPECIFIED.) 
CURVE() GEOMETRIC_REPRESENTATION_ITEM() RATIONAL_B_SPLINE_CURVE((1.,1.,
    1.000000000001,0.999999999998,1.000000000004,0.999999999994,
    1.000000000007,0.999999999994,1.000000000005,0.999999999997,
1.000000000001,1.,1.,1.)) REPRESENTATION_ITEM('') );
#25 = CARTESIAN_POINT('',(-24.450001,-19.657381,1.063268122105));
#26 = CARTESIAN_POINT('',(-24.450001,-18.15694038267,1.063268122105));
#27 = CARTESIAN_POINT('',(-23.67452378429,-16.621898474,1.063268122105)
  );
#28 = CARTESIAN_POINT('',(-22.07870026013,-15.52427819568,1.063268122105
    ));
#29 = CARTESIAN_POINT('',(-19.8826445324,-15.35570463909,1.063268122105)
  );
#30 = CARTESIAN_POINT('',(-17.98551377158,-16.52559410969,1.063268122105
    ));
#31 = CARTESIAN_POINT('',(-16.59416764277,-18.23337137291,1.063268122105
    ));
#32 = CARTESIAN_POINT('',(-16.59416764274,-21.0813906271,1.063268122105)
  );
#33 = CARTESIAN_POINT('',(-17.98551377158,-22.78916789027,1.063268122105
    ));
#34 = CARTESIAN_POINT('',(-19.88264453241,-23.95905736093,1.063268122105
    ));
#35 = CARTESIAN_POINT('',(-22.07870026012,-23.79048380429,1.063268122105
    ));
#36 = CARTESIAN_POINT('',(-23.6745237843,-22.692863526,1.063268122105));
#37 = CARTESIAN_POINT('',(-24.45000099999,-21.15782161732,1.063268122105
    ));
#38 = CARTESIAN_POINT('',(-24.450001,-19.657381,1.063268122105));
#39 = ORIENTED_EDGE('',*,*,#40,.F.);
#40 = EDGE_CURVE('',#41,#22,#43,.T.);
#41 = VERTEX_POINT('',#42);
#42 = CARTESIAN_POINT('',(-24.450001,-19.657381,0.23));
#43 = LINE('',#44,#45);
#44 = CARTESIAN_POINT('',(-24.450001,-19.657381,-0.19));
#45 = VECTOR('',#46,1.);
#46 = DIRECTION('',(0.,0.,1.));
#47 = ORIENTED_EDGE('',*,*,#48,.F.);
#48 = EDGE_CURVE('',#41,#41,#49,.T.);
#49 = CIRCLE('',#50,3.15);
#50 = AXIS2_PLACEMENT_3D('',#51,#52,#53);
#51 = CARTESIAN_POINT('',(-21.300001,-19.657381,0.23));
#52 = DIRECTION('',(0.,0.,-1.));
#53 = DIRECTION('',(-1.,1.224646799147E-16,0.));
#54 = ORIENTED_EDGE('',*,*,#40,.T.);
#55 = CYLINDRICAL_SURFACE('',#56,3.15);
#56 = AXIS2_PLACEMENT_3D('',#57,#58,#59);
#57 = CARTESIAN_POINT('',(-21.300001,-19.657381,-0.19));
#58 = DIRECTION('',(0.,0.,1.));
#59 = DIRECTION('',(-1.,1.224646799147E-16,0.));
#60 = ADVANCED_FACE('',(#61),#81,.T.);
#61 = FACE_BOUND('',#62,.T.);
#62 = EDGE_LOOP('',(#63,#64,#73,#80));
#63 = ORIENTED_EDGE('',*,*,#48,.T.);
#64 = ORIENTED_EDGE('',*,*,#65,.T.);
#65 = EDGE_CURVE('',#41,#66,#68,.T.);
#66 = VERTEX_POINT('',#67);
#67 = CARTESIAN_POINT('',(-24.030001,-19.657381,-0.19));
#68 = CIRCLE('',#69,0.42);
#69 = AXIS2_PLACEMENT_3D('',#70,#71,#72);
#70 = CARTESIAN_POINT('',(-24.030001,-19.657381,0.23));
#71 = DIRECTION('',(-1.224646799147E-16,-1.,-0.));
#72 = DIRECTION('',(-1.,1.224646799147E-16,0.));
#73 = ORIENTED_EDGE('',*,*,#74,.F.);
#74 = EDGE_CURVE('',#66,#66,#75,.T.);
#75 = CIRCLE('',#76,2.73);
#76 = AXIS2_PLACEMENT_3D('',#77,#78,#79);
#77 = CARTESIAN_POINT('',(-21.300001,-19.657381,-0.19));
#78 = DIRECTION('',(0.,0.,-1.));
#79 = DIRECTION('',(-1.,1.224646799147E-16,0.));
#80 = ORIENTED_EDGE('',*,*,#65,.F.);
#81 = TOROIDAL_SURFACE('',#82,2.73,0.42);
#82 = AXIS2_PLACEMENT_3D('',#83,#84,#85);
#83 = CARTESIAN_POINT('',(-21.300001,-19.657381,0.23));
#84 = DIRECTION('',(0.,0.,-1.));
#85 = DIRECTION('',(-1.,1.224646799147E-16,0.));
#86 = ADVANCED_FACE('',(#87),#116,.T.);
#87 = FACE_BOUND('',#88,.T.);
#88 = EDGE_LOOP('',(#89,#97,#114,#115));
#89 = ORIENTED_EDGE('',*,*,#90,.T.);
#90 = EDGE_CURVE('',#22,#91,#93,.T.);
#91 = VERTEX_POINT('',#92);
#92 = CARTESIAN_POINT('',(-24.42136463636,-19.657381,1.094637686762));
#93 = ( BOUNDED_CURVE() B_SPLINE_CURVE(2,(#94,#95,#96),.UNSPECIFIED.,.F.
,.F.) B_SPLINE_CURVE_WITH_KNOTS((3,3),(0.,19.792033717616),
.PIECEWISE_BEZIER_KNOTS.) CURVE() GEOMETRIC_REPRESENTATION_ITEM() 
RATIONAL_B_SPLINE_CURVE((1.,0.738548945876,1.)) REPRESENTATION_ITEM('') 
  );
#94 = CARTESIAN_POINT('',(-24.450001,-19.657381,1.063268122105));
#95 = CARTESIAN_POINT('',(-24.450001,-19.657381,1.092023556374));
#96 = CARTESIAN_POINT('',(-24.42136463636,-19.657381,1.094637686762));
#97 = ORIENTED_EDGE('',*,*,#98,.T.);
#98 = EDGE_CURVE('',#91,#91,#99,.T.);
#99 = ( BOUNDED_CURVE() B_SPLINE_CURVE(13,(#100,#101,#102,#103,#104,#105
    ,#106,#107,#108,#109,#110,#111,#112,#113),.UNSPECIFIED.,.T.,.F.) 
B_SPLINE_CURVE_WITH_KNOTS((1,13,13,1),(-19.79203371761,
    3.914259941243E-16,19.792033717616,39.584067435232),.UNSPECIFIED.) 
CURVE() GEOMETRIC_REPRESENTATION_ITEM() RATIONAL_B_SPLINE_CURVE((1.,1.,
    1.000000000001,0.999999999998,1.000000000004,0.999999999994,
    1.000000000007,0.999999999994,1.000000000005,0.999999999997,
1.000000000001,1.,1.,1.)) REPRESENTATION_ITEM('') );
#100 = CARTESIAN_POINT('',(-24.42136463636,-19.657381,1.094637686762));
#101 = CARTESIAN_POINT('',(-24.42136463636,-18.17058075192,
    1.094637686762));
#102 = CARTESIAN_POINT('',(-23.65293721353,-16.64949376969,
    1.094637686762));
#103 = CARTESIAN_POINT('',(-22.07162117594,-15.56185185754,
    1.094637686762));
#104 = CARTESIAN_POINT('',(-19.89552959119,-15.39481078782,
    1.094637686762));
#105 = CARTESIAN_POINT('',(-18.01564547365,-16.5540648996,1.094637686762
    ));
#106 = CARTESIAN_POINT('',(-16.63694794601,-18.24631691498,
    1.094637686762));
#107 = CARTESIAN_POINT('',(-16.63694794598,-21.06844508503,
    1.094637686762));
#108 = CARTESIAN_POINT('',(-18.01564547366,-22.76069710036,
    1.094637686762));
#109 = CARTESIAN_POINT('',(-19.8955295912,-23.9199512122,1.094637686762)
  );
#110 = CARTESIAN_POINT('',(-22.07162117594,-23.75291014244,
    1.094637686762));
#111 = CARTESIAN_POINT('',(-23.65293721353,-22.6652682303,1.094637686762
    ));
#112 = CARTESIAN_POINT('',(-24.42136463636,-21.14418124807,
    1.094637686762));
#113 = CARTESIAN_POINT('',(-24.42136463636,-19.657381,1.094637686762));
#114 = ORIENTED_EDGE('',*,*,#90,.F.);
#115 = ORIENTED_EDGE('',*,*,#21,.F.);
#116 = ( BOUNDED_SURFACE() B_SPLINE_SURFACE(2,13,(
    (#117,#118,#119,#120,#121,#122,#123,#124,#125,#126,#127,#128,#129
      ,#130)
    ,(#131,#132,#133,#134,#135,#136,#137,#138,#139,#140,#141,#142,#143
      ,#144)
    ,(#145,#146,#147,#148,#149,#150,#151,#152,#153,#154,#155,#156,#157
,#158
    )),.UNSPECIFIED.,.F.,.T.,.F.) B_SPLINE_SURFACE_WITH_KNOTS((3,3),(1,
    13,13,1),(0.,19.792033717616),(-19.79203371761,3.914259941243E-16,
    19.792033717616,39.584067435232),.UNSPECIFIED.) 
GEOMETRIC_REPRESENTATION_ITEM() RATIONAL_B_SPLINE_SURFACE((
    (1.,1.,1.000000000001,0.999999999998,1.000000000004,0.999999999994
      ,1.000000000007,0.999999999994,1.000000000005,0.999999999997
      ,1.000000000001,1.,1.,1.)
    ,(0.738548945876,0.738548945876,0.738548945876,0.738548945875
      ,0.738548945878,0.738548945873,0.738548945879,0.738548945873
      ,0.738548945878,0.738548945875,0.738548945877,0.738548945876
      ,0.738548945876,0.738548945876)
    ,(1.,1.,1.000000000001,0.999999999998,1.000000000004,0.999999999994
      ,1.000000000007,0.999999999994,1.000000000005,0.999999999997
,1.000000000001,1.,1.,1.))) REPRESENTATION_ITEM('') SURFACE() );
#117 = CARTESIAN_POINT('',(-24.450001,-19.657381,1.063268122105));
#118 = CARTESIAN_POINT('',(-24.450001,-18.15694038267,1.063268122105));
#119 = CARTESIAN_POINT('',(-23.67452378429,-16.621898474,1.063268122105)
  );
#120 = CARTESIAN_POINT('',(-22.07870026013,-15.52427819568,
    1.063268122105));
#121 = CARTESIAN_POINT('',(-19.8826445324,-15.35570463909,1.063268122105
    ));
#122 = CARTESIAN_POINT('',(-17.98551377158,-16.52559410969,
    1.063268122105));
#123 = CARTESIAN_POINT('',(-16.59416764277,-18.23337137291,
    1.063268122105));
#124 = CARTESIAN_POINT('',(-16.59416764274,-21.0813906271,1.063268122105
    ));
#125 = CARTESIAN_POINT('',(-17.98551377158,-22.78916789027,
    1.063268122105));
#126 = CARTESIAN_POINT('',(-19.88264453241,-23.95905736093,
    1.063268122105));
#127 = CARTESIAN_POINT('',(-22.07870026012,-23.79048380429,
    1.063268122105));
#128 = CARTESIAN_POINT('',(-23.6745237843,-22.692863526,1.063268122105)
  );
#129 = CARTESIAN_POINT('',(-24.45000099999,-21.15782161732,
    1.063268122105));
#130 = CARTESIAN_POINT('',(-24.450001,-19.657381,1.063268122105));
#131 = CARTESIAN_POINT('',(-24.450001,-19.657381,1.092023556374));
#132 = CARTESIAN_POINT('',(-24.450001,-18.15694038267,1.092023556374));
#133 = CARTESIAN_POINT('',(-23.67452378429,-16.621898474,1.092023556374)
  );
#134 = CARTESIAN_POINT('',(-22.07870026013,-15.52427819569,
    1.092023556374));
#135 = CARTESIAN_POINT('',(-19.8826445324,-15.35570463908,1.092023556374
    ));
#136 = CARTESIAN_POINT('',(-17.98551377158,-16.5255941097,1.092023556374
    ));
#137 = CARTESIAN_POINT('',(-16.59416764275,-18.2333713729,1.092023556374
    ));
#138 = CARTESIAN_POINT('',(-16.59416764275,-21.0813906271,1.092023556374
    ));
#139 = CARTESIAN_POINT('',(-17.98551377158,-22.78916789027,
    1.092023556374));
#140 = CARTESIAN_POINT('',(-19.88264453241,-23.95905736093,
    1.092023556374));
#141 = CARTESIAN_POINT('',(-22.07870026012,-23.7904838043,1.092023556374
    ));
#142 = CARTESIAN_POINT('',(-23.6745237843,-22.692863526,1.092023556374)
  );
#143 = CARTESIAN_POINT('',(-24.450001,-21.15782161732,1.092023556374));
#144 = CARTESIAN_POINT('',(-24.450001,-19.657381,1.092023556374));
#145 = CARTESIAN_POINT('',(-24.42136463636,-19.657381,1.094637686762));
#146 = CARTESIAN_POINT('',(-24.42136463636,-18.17058075192,
    1.094637686762));
#147 = CARTESIAN_POINT('',(-23.65293721353,-16.64949376969,
    1.094637686762));
#148 = CARTESIAN_POINT('',(-22.07162117594,-15.56185185754,
    1.094637686762));
#149 = CARTESIAN_POINT('',(-19.89552959119,-15.39481078782,
    1.094637686762));
#150 = CARTESIAN_POINT('',(-18.01564547365,-16.5540648996,1.094637686762
    ));
#151 = CARTESIAN_POINT('',(-16.63694794601,-18.24631691498,
    1.094637686762));
#152 = CARTESIAN_POINT('',(-16.63694794598,-21.06844508503,
    1.094637686762));
#153 = CARTESIAN_POINT('',(-18.01564547366,-22.76069710036,
    1.094637686762));
#154 = CARTESIAN_POINT('',(-19.8955295912,-23.9199512122,1.094637686762)
  );
#155 = CARTESIAN_POINT('',(-22.07162117594,-23.75291014244,
    1.094637686762));
#156 = CARTESIAN_POINT('',(-23.65293721353,-22.6652682303,1.094637686762
    ));
#157 = CARTESIAN_POINT('',(-24.42136463636,-21.14418124807,
    1.094637686762));
#158 = CARTESIAN_POINT('',(-24.42136463636,-19.657381,1.094637686762));
#159 = ADVANCED_FACE('',(#160,#230),#233,.T.);
#160 = FACE_BOUND('',#161,.T.);
#161 = EDGE_LOOP('',(#162,#172,#181,#189,#198,#206,#215,#223));
#162 = ORIENTED_EDGE('',*,*,#163,.T.);
#163 = EDGE_CURVE('',#164,#166,#168,.T.);
#164 = VERTEX_POINT('',#165);
#165 = CARTESIAN_POINT('',(-24.600001,-19.08075287026,-0.19));
#166 = VERTEX_POINT('',#167);
#167 = CARTESIAN_POINT('',(-24.600001,-20.23400912973,-0.19));
#168 = LINE('',#169,#170);
#169 = CARTESIAN_POINT('',(-24.600001,-18.507381,-0.19));
#170 = VECTOR('',#171,1.);
#171 = DIRECTION('',(-1.224646799147E-16,-1.,0.));
#172 = ORIENTED_EDGE('',*,*,#173,.T.);
#173 = EDGE_CURVE('',#166,#174,#176,.T.);
#174 = VERTEX_POINT('',#175);
#175 = CARTESIAN_POINT('',(-21.87662912973,-22.957381,-0.19));
#176 = CIRCLE('',#177,3.35);
#177 = AXIS2_PLACEMENT_3D('',#178,#179,#180);
#178 = CARTESIAN_POINT('',(-21.300001,-19.657381,-0.19));
#179 = DIRECTION('',(0.,0.,1.));
#180 = DIRECTION('',(-1.,1.224646799147E-16,0.));
#181 = ORIENTED_EDGE('',*,*,#182,.T.);
#182 = EDGE_CURVE('',#174,#183,#185,.T.);
#183 = VERTEX_POINT('',#184);
#184 = CARTESIAN_POINT('',(-20.72337287026,-22.957381,-0.19));
#185 = LINE('',#186,#187);
#186 = CARTESIAN_POINT('',(-22.450001,-22.957381,-0.19));
#187 = VECTOR('',#188,1.);
#188 = DIRECTION('',(1.,-1.224646799147E-16,0.));
#189 = ORIENTED_EDGE('',*,*,#190,.T.);
#190 = EDGE_CURVE('',#183,#191,#193,.T.);
#191 = VERTEX_POINT('',#192);
#192 = CARTESIAN_POINT('',(-18.000001,-20.23400912973,-0.19));
#193 = CIRCLE('',#194,3.35);
#194 = AXIS2_PLACEMENT_3D('',#195,#196,#197);
#195 = CARTESIAN_POINT('',(-21.300001,-19.657381,-0.19));
#196 = DIRECTION('',(0.,0.,1.));
#197 = DIRECTION('',(-1.,1.224646799147E-16,0.));
#198 = ORIENTED_EDGE('',*,*,#199,.T.);
#199 = EDGE_CURVE('',#191,#200,#202,.T.);
#200 = VERTEX_POINT('',#201);
#201 = CARTESIAN_POINT('',(-18.000001,-19.08075287026,-0.19));
#202 = LINE('',#203,#204);
#203 = CARTESIAN_POINT('',(-18.000001,-21.307381,-0.19));
#204 = VECTOR('',#205,1.);
#205 = DIRECTION('',(1.224646799147E-16,1.,0.));
#206 = ORIENTED_EDGE('',*,*,#207,.T.);
#207 = EDGE_CURVE('',#200,#208,#210,.T.);
#208 = VERTEX_POINT('',#209);
#209 = CARTESIAN_POINT('',(-20.72337287026,-16.357381,-0.19));
#210 = CIRCLE('',#211,3.35);
#211 = AXIS2_PLACEMENT_3D('',#212,#213,#214);
#212 = CARTESIAN_POINT('',(-21.300001,-19.657381,-0.19));
#213 = DIRECTION('',(0.,0.,1.));
#214 = DIRECTION('',(-1.,1.224646799147E-16,0.));
#215 = ORIENTED_EDGE('',*,*,#216,.T.);
#216 = EDGE_CURVE('',#208,#217,#219,.T.);
#217 = VERTEX_POINT('',#218);
#218 = CARTESIAN_POINT('',(-21.87662912973,-16.357381,-0.19));
#219 = LINE('',#220,#221);
#220 = CARTESIAN_POINT('',(-19.650001,-16.357381,-0.19));
#221 = VECTOR('',#222,1.);
#222 = DIRECTION('',(-1.,1.224646799147E-16,0.));
#223 = ORIENTED_EDGE('',*,*,#224,.T.);
#224 = EDGE_CURVE('',#217,#164,#225,.T.);
#225 = CIRCLE('',#226,3.35);
#226 = AXIS2_PLACEMENT_3D('',#227,#228,#229);
#227 = CARTESIAN_POINT('',(-21.300001,-19.657381,-0.19));
#228 = DIRECTION('',(0.,0.,1.));
#229 = DIRECTION('',(-1.,1.224646799147E-16,0.));
#230 = FACE_BOUND('',#231,.T.);
#231 = EDGE_LOOP('',(#232));
#232 = ORIENTED_EDGE('',*,*,#74,.T.);
#233 = PLANE('',#234);
#234 = AXIS2_PLACEMENT_3D('',#235,#236,#237);
#235 = CARTESIAN_POINT('',(-21.300001,-19.657381,-0.19));
#236 = DIRECTION('',(0.,0.,1.));
#237 = DIRECTION('',(-1.,1.224646799147E-16,0.));
#238 = ADVANCED_FACE('',(#239),#269,.F.);
#239 = FACE_BOUND('',#240,.F.);
#240 = EDGE_LOOP('',(#241,#250,#251,#252));
#241 = ORIENTED_EDGE('',*,*,#242,.F.);
#242 = EDGE_CURVE('',#91,#243,#245,.T.);
#243 = VERTEX_POINT('',#244);
#244 = CARTESIAN_POINT('',(-24.42136463636,-19.657381,1.722028979904));
#245 = CIRCLE('',#246,0.315);
#246 = AXIS2_PLACEMENT_3D('',#247,#248,#249);
#247 = CARTESIAN_POINT('',(-24.450001,-19.657381,1.408333333333));
#248 = DIRECTION('',(-1.224646799147E-16,-1.,-0.));
#249 = DIRECTION('',(0.,0.,-1.));
#250 = ORIENTED_EDGE('',*,*,#98,.T.);
#251 = ORIENTED_EDGE('',*,*,#242,.T.);
#252 = ORIENTED_EDGE('',*,*,#253,.F.);
#253 = EDGE_CURVE('',#243,#243,#254,.T.);
#254 = ( BOUNDED_CURVE() B_SPLINE_CURVE(13,(#255,#256,#257,#258,#259,
    #260,#261,#262,#263,#264,#265,#266,#267,#268),.UNSPECIFIED.,.T.,.F.)
 B_SPLINE_CURVE_WITH_KNOTS((1,13,13,1),(-19.79203371761,
    3.914259941243E-16,19.792033717616,39.584067435232),.UNSPECIFIED.) 
CURVE() GEOMETRIC_REPRESENTATION_ITEM() RATIONAL_B_SPLINE_CURVE((1.,1.,
    1.000000000001,0.999999999998,1.000000000004,0.999999999994,
    1.000000000007,0.999999999994,1.000000000005,0.999999999997,
1.000000000001,1.,1.,1.)) REPRESENTATION_ITEM('') );
#255 = CARTESIAN_POINT('',(-24.42136463636,-19.657381,1.722028979904));
#256 = CARTESIAN_POINT('',(-24.42136463636,-18.17058075192,
    1.722028979904));
#257 = CARTESIAN_POINT('',(-23.65293721353,-16.64949376969,
    1.722028979904));
#258 = CARTESIAN_POINT('',(-22.07162117594,-15.56185185754,
    1.722028979904));
#259 = CARTESIAN_POINT('',(-19.8955295912,-15.39481078782,1.722028979904
    ));
#260 = CARTESIAN_POINT('',(-18.01564547365,-16.5540648996,1.722028979904
    ));
#261 = CARTESIAN_POINT('',(-16.63694794602,-18.24631691498,
    1.722028979904));
#262 = CARTESIAN_POINT('',(-16.63694794598,-21.06844508503,
    1.722028979904));
#263 = CARTESIAN_POINT('',(-18.01564547367,-22.76069710036,
    1.722028979904));
#264 = CARTESIAN_POINT('',(-19.8955295912,-23.91995121219,1.722028979904
    ));
#265 = CARTESIAN_POINT('',(-22.07162117594,-23.75291014244,
    1.722028979904));
#266 = CARTESIAN_POINT('',(-23.65293721353,-22.6652682303,1.722028979904
    ));
#267 = CARTESIAN_POINT('',(-24.42136463636,-21.14418124807,
    1.722028979904));
#268 = CARTESIAN_POINT('',(-24.42136463636,-19.657381,1.722028979904));
#269 = SURFACE_OF_REVOLUTION('',#270,#275);
#270 = CIRCLE('',#271,0.315);
#271 = AXIS2_PLACEMENT_3D('',#272,#273,#274);
#272 = CARTESIAN_POINT('',(-24.450001,-19.657381,1.408333333333));
#273 = DIRECTION('',(-1.224646799147E-16,-1.,-0.));
#274 = DIRECTION('',(0.,0.,-1.));
#275 = AXIS1_PLACEMENT('',#276,#277);
#276 = CARTESIAN_POINT('',(-21.300001,-19.657381,-0.19));
#277 = DIRECTION('',(0.,0.,-1.));
#278 = ADVANCED_FACE('',(#279),#352,.F.);
#279 = FACE_BOUND('',#280,.F.);
#280 = EDGE_LOOP('',(#281,#291,#299,#307,#313,#314,#322,#330,#338,#346)
  );
#281 = ORIENTED_EDGE('',*,*,#282,.F.);
#282 = EDGE_CURVE('',#283,#285,#287,.T.);
#283 = VERTEX_POINT('',#284);
#284 = CARTESIAN_POINT('',(-24.600001,-17.357381,-0.69));
#285 = VERTEX_POINT('',#286);
#286 = CARTESIAN_POINT('',(-24.600001,-19.332381,-0.69));
#287 = LINE('',#288,#289);
#288 = CARTESIAN_POINT('',(-24.600001,-17.357381,-0.69));
#289 = VECTOR('',#290,1.);
#290 = DIRECTION('',(-1.224646799147E-16,-1.,0.));
#291 = ORIENTED_EDGE('',*,*,#292,.T.);
#292 = EDGE_CURVE('',#283,#293,#295,.T.);
#293 = VERTEX_POINT('',#294);
#294 = CARTESIAN_POINT('',(-24.600001,-17.357381,1.E-02));
#295 = LINE('',#296,#297);
#296 = CARTESIAN_POINT('',(-24.600001,-17.357381,-0.69));
#297 = VECTOR('',#298,1.);
#298 = DIRECTION('',(0.,0.,1.));
#299 = ORIENTED_EDGE('',*,*,#300,.T.);
#300 = EDGE_CURVE('',#293,#301,#303,.T.);
#301 = VERTEX_POINT('',#302);
#302 = CARTESIAN_POINT('',(-24.600001,-19.08075287026,1.E-02));
#303 = LINE('',#304,#305);
#304 = CARTESIAN_POINT('',(-24.600001,-16.357381,1.E-02));
#305 = VECTOR('',#306,1.);
#306 = DIRECTION('',(-1.224646799147E-16,-1.,0.));
#307 = ORIENTED_EDGE('',*,*,#308,.T.);
#308 = EDGE_CURVE('',#301,#164,#309,.T.);
#309 = LINE('',#310,#311);
#310 = CARTESIAN_POINT('',(-24.600001,-19.08075287026,-0.19));
#311 = VECTOR('',#312,1.);
#312 = DIRECTION('',(0.,0.,-1.));
#313 = ORIENTED_EDGE('',*,*,#163,.T.);
#314 = ORIENTED_EDGE('',*,*,#315,.F.);
#315 = EDGE_CURVE('',#316,#166,#318,.T.);
#316 = VERTEX_POINT('',#317);
#317 = CARTESIAN_POINT('',(-24.600001,-20.23400912973,1.E-02));
#318 = LINE('',#319,#320);
#319 = CARTESIAN_POINT('',(-24.600001,-20.23400912973,-0.19));
#320 = VECTOR('',#321,1.);
#321 = DIRECTION('',(0.,0.,-1.));
#322 = ORIENTED_EDGE('',*,*,#323,.T.);
#323 = EDGE_CURVE('',#316,#324,#326,.T.);
#324 = VERTEX_POINT('',#325);
#325 = CARTESIAN_POINT('',(-24.600001,-21.957381,1.E-02));
#326 = LINE('',#327,#328);
#327 = CARTESIAN_POINT('',(-24.600001,-16.357381,1.E-02));
#328 = VECTOR('',#329,1.);
#329 = DIRECTION('',(-1.224646799147E-16,-1.,0.));
#330 = ORIENTED_EDGE('',*,*,#331,.F.);
#331 = EDGE_CURVE('',#332,#324,#334,.T.);
#332 = VERTEX_POINT('',#333);
#333 = CARTESIAN_POINT('',(-24.600001,-21.957381,-0.69));
#334 = LINE('',#335,#336);
#335 = CARTESIAN_POINT('',(-24.600001,-21.957381,-0.69));
#336 = VECTOR('',#337,1.);
#337 = DIRECTION('',(0.,0.,1.));
#338 = ORIENTED_EDGE('',*,*,#339,.F.);
#339 = EDGE_CURVE('',#340,#332,#342,.T.);
#340 = VERTEX_POINT('',#341);
#341 = CARTESIAN_POINT('',(-24.600001,-19.982381,-0.69));
#342 = LINE('',#343,#344);
#343 = CARTESIAN_POINT('',(-24.600001,-17.357381,-0.69));
#344 = VECTOR('',#345,1.);
#345 = DIRECTION('',(-1.224646799147E-16,-1.,0.));
#346 = ORIENTED_EDGE('',*,*,#347,.F.);
#347 = EDGE_CURVE('',#285,#340,#348,.T.);
#348 = LINE('',#349,#350);
#349 = CARTESIAN_POINT('',(-24.600001,-17.357381,-0.69));
#350 = VECTOR('',#351,1.);
#351 = DIRECTION('',(-1.224646799147E-16,-1.,0.));
#352 = PLANE('',#353);
#353 = AXIS2_PLACEMENT_3D('',#354,#355,#356);
#354 = CARTESIAN_POINT('',(-24.600001,-17.357381,-0.69));
#355 = DIRECTION('',(1.,-1.224646799147E-16,0.));
#356 = DIRECTION('',(-1.224646799147E-16,-1.,0.));
#357 = ADVANCED_FACE('',(#358),#377,.F.);
#358 = FACE_BOUND('',#359,.F.);
#359 = EDGE_LOOP('',(#360,#368,#369,#370));
#360 = ORIENTED_EDGE('',*,*,#361,.T.);
#361 = EDGE_CURVE('',#362,#217,#364,.T.);
#362 = VERTEX_POINT('',#363);
#363 = CARTESIAN_POINT('',(-21.87662912973,-16.357381,1.E-02));
#364 = LINE('',#365,#366);
#365 = CARTESIAN_POINT('',(-21.87662912973,-16.357381,-0.19));
#366 = VECTOR('',#367,1.);
#367 = DIRECTION('',(0.,0.,-1.));
#368 = ORIENTED_EDGE('',*,*,#224,.T.);
#369 = ORIENTED_EDGE('',*,*,#308,.F.);
#370 = ORIENTED_EDGE('',*,*,#371,.T.);
#371 = EDGE_CURVE('',#301,#362,#372,.T.);
#372 = CIRCLE('',#373,3.35);
#373 = AXIS2_PLACEMENT_3D('',#374,#375,#376);
#374 = CARTESIAN_POINT('',(-21.300001,-19.657381,1.E-02));
#375 = DIRECTION('',(0.,0.,-1.));
#376 = DIRECTION('',(-1.,1.224646799147E-16,0.));
#377 = CYLINDRICAL_SURFACE('',#378,3.35);
#378 = AXIS2_PLACEMENT_3D('',#379,#380,#381);
#379 = CARTESIAN_POINT('',(-21.300001,-19.657381,-0.19));
#380 = DIRECTION('',(0.,0.,-1.));
#381 = DIRECTION('',(-1.,1.224646799147E-16,0.));
#382 = ADVANCED_FACE('',(#383),#402,.F.);
#383 = FACE_BOUND('',#384,.F.);
#384 = EDGE_LOOP('',(#385,#393,#400,#401));
#385 = ORIENTED_EDGE('',*,*,#386,.F.);
#386 = EDGE_CURVE('',#387,#174,#389,.T.);
#387 = VERTEX_POINT('',#388);
#388 = CARTESIAN_POINT('',(-21.87662912973,-22.957381,1.E-02));
#389 = LINE('',#390,#391);
#390 = CARTESIAN_POINT('',(-21.87662912973,-22.957381,-0.19));
#391 = VECTOR('',#392,1.);
#392 = DIRECTION('',(0.,0.,-1.));
#393 = ORIENTED_EDGE('',*,*,#394,.T.);
#394 = EDGE_CURVE('',#387,#316,#395,.T.);
#395 = CIRCLE('',#396,3.35);
#396 = AXIS2_PLACEMENT_3D('',#397,#398,#399);
#397 = CARTESIAN_POINT('',(-21.300001,-19.657381,1.E-02));
#398 = DIRECTION('',(0.,0.,-1.));
#399 = DIRECTION('',(-1.,1.224646799147E-16,0.));
#400 = ORIENTED_EDGE('',*,*,#315,.T.);
#401 = ORIENTED_EDGE('',*,*,#173,.T.);
#402 = CYLINDRICAL_SURFACE('',#403,3.35);
#403 = AXIS2_PLACEMENT_3D('',#404,#405,#406);
#404 = CARTESIAN_POINT('',(-21.300001,-19.657381,-0.19));
#405 = DIRECTION('',(0.,0.,-1.));
#406 = DIRECTION('',(-1.,1.224646799147E-16,0.));
#407 = ADVANCED_FACE('',(#408),#458,.F.);
#408 = FACE_BOUND('',#409,.F.);
#409 = EDGE_LOOP('',(#410,#420,#428,#436,#442,#443,#444,#452));
#410 = ORIENTED_EDGE('',*,*,#411,.F.);
#411 = EDGE_CURVE('',#412,#414,#416,.T.);
#412 = VERTEX_POINT('',#413);
#413 = CARTESIAN_POINT('',(-18.400001,-16.357381,-0.69));
#414 = VERTEX_POINT('',#415);
#415 = CARTESIAN_POINT('',(-23.600001,-16.357381,-0.69));
#416 = LINE('',#417,#418);
#417 = CARTESIAN_POINT('',(-18.000001,-16.357381,-0.69));
#418 = VECTOR('',#419,1.);
#419 = DIRECTION('',(-1.,1.224646799147E-16,0.));
#420 = ORIENTED_EDGE('',*,*,#421,.T.);
#421 = EDGE_CURVE('',#412,#422,#424,.T.);
#422 = VERTEX_POINT('',#423);
#423 = CARTESIAN_POINT('',(-18.400001,-16.357381,0.31));
#424 = LINE('',#425,#426);
#425 = CARTESIAN_POINT('',(-18.400001,-16.357381,-0.69));
#426 = VECTOR('',#427,1.);
#427 = DIRECTION('',(0.,0.,1.));
#428 = ORIENTED_EDGE('',*,*,#429,.T.);
#429 = EDGE_CURVE('',#422,#430,#432,.T.);
#430 = VERTEX_POINT('',#431);
#431 = CARTESIAN_POINT('',(-20.72337287026,-16.357381,0.31));
#432 = LINE('',#433,#434);
#433 = CARTESIAN_POINT('',(-18.000001,-16.357381,0.31));
#434 = VECTOR('',#435,1.);
#435 = DIRECTION('',(-1.,1.224646799147E-16,0.));
#436 = ORIENTED_EDGE('',*,*,#437,.T.);
#437 = EDGE_CURVE('',#430,#208,#438,.T.);
#438 = LINE('',#439,#440);
#439 = CARTESIAN_POINT('',(-20.72337287026,-16.357381,-0.19));
#440 = VECTOR('',#441,1.);
#441 = DIRECTION('',(0.,0.,-1.));
#442 = ORIENTED_EDGE('',*,*,#216,.T.);
#443 = ORIENTED_EDGE('',*,*,#361,.F.);
#444 = ORIENTED_EDGE('',*,*,#445,.T.);
#445 = EDGE_CURVE('',#362,#446,#448,.T.);
#446 = VERTEX_POINT('',#447);
#447 = CARTESIAN_POINT('',(-23.600001,-16.357381,1.E-02));
#448 = LINE('',#449,#450);
#449 = CARTESIAN_POINT('',(-21.300001,-16.357381,1.E-02));
#450 = VECTOR('',#451,1.);
#451 = DIRECTION('',(-1.,1.224646799147E-16,0.));
#452 = ORIENTED_EDGE('',*,*,#453,.F.);
#453 = EDGE_CURVE('',#414,#446,#454,.T.);
#454 = LINE('',#455,#456);
#455 = CARTESIAN_POINT('',(-23.600001,-16.357381,-0.69));
#456 = VECTOR('',#457,1.);
#457 = DIRECTION('',(0.,0.,1.));
#458 = PLANE('',#459);
#459 = AXIS2_PLACEMENT_3D('',#460,#461,#462);
#460 = CARTESIAN_POINT('',(-18.000001,-16.357381,-0.69));
#461 = DIRECTION('',(-1.224646799147E-16,-1.,0.));
#462 = DIRECTION('',(-1.,1.224646799147E-16,0.));
#463 = ADVANCED_FACE('',(#464),#514,.F.);
#464 = FACE_BOUND('',#465,.F.);
#465 = EDGE_LOOP('',(#466,#476,#484,#492,#498,#499,#500,#508));
#466 = ORIENTED_EDGE('',*,*,#467,.F.);
#467 = EDGE_CURVE('',#468,#470,#472,.T.);
#468 = VERTEX_POINT('',#469);
#469 = CARTESIAN_POINT('',(-18.400001,-22.957381,-0.69));
#470 = VERTEX_POINT('',#471);
#471 = CARTESIAN_POINT('',(-18.400001,-22.957381,0.31));
#472 = LINE('',#473,#474);
#473 = CARTESIAN_POINT('',(-18.400001,-22.957381,-0.69));
#474 = VECTOR('',#475,1.);
#475 = DIRECTION('',(0.,0.,1.));
#476 = ORIENTED_EDGE('',*,*,#477,.F.);
#477 = EDGE_CURVE('',#478,#468,#480,.T.);
#478 = VERTEX_POINT('',#479);
#479 = CARTESIAN_POINT('',(-23.600001,-22.957381,-0.69));
#480 = LINE('',#481,#482);
#481 = CARTESIAN_POINT('',(-23.600001,-22.957381,-0.69));
#482 = VECTOR('',#483,1.);
#483 = DIRECTION('',(1.,-1.224646799147E-16,0.));
#484 = ORIENTED_EDGE('',*,*,#485,.T.);
#485 = EDGE_CURVE('',#478,#486,#488,.T.);
#486 = VERTEX_POINT('',#487);
#487 = CARTESIAN_POINT('',(-23.600001,-22.957381,1.E-02));
#488 = LINE('',#489,#490);
#489 = CARTESIAN_POINT('',(-23.600001,-22.957381,-0.69));
#490 = VECTOR('',#491,1.);
#491 = DIRECTION('',(0.,0.,1.));
#492 = ORIENTED_EDGE('',*,*,#493,.F.);
#493 = EDGE_CURVE('',#387,#486,#494,.T.);
#494 = LINE('',#495,#496);
#495 = CARTESIAN_POINT('',(-21.300001,-22.957381,1.E-02));
#496 = VECTOR('',#497,1.);
#497 = DIRECTION('',(-1.,1.224646799147E-16,0.));
#498 = ORIENTED_EDGE('',*,*,#386,.T.);
#499 = ORIENTED_EDGE('',*,*,#182,.T.);
#500 = ORIENTED_EDGE('',*,*,#501,.F.);
#501 = EDGE_CURVE('',#502,#183,#504,.T.);
#502 = VERTEX_POINT('',#503);
#503 = CARTESIAN_POINT('',(-20.72337287026,-22.957381,0.31));
#504 = LINE('',#505,#506);
#505 = CARTESIAN_POINT('',(-20.72337287026,-22.957381,-0.19));
#506 = VECTOR('',#507,1.);
#507 = DIRECTION('',(0.,0.,-1.));
#508 = ORIENTED_EDGE('',*,*,#509,.T.);
#509 = EDGE_CURVE('',#502,#470,#510,.T.);
#510 = LINE('',#511,#512);
#511 = CARTESIAN_POINT('',(-23.600001,-22.957381,0.31));
#512 = VECTOR('',#513,1.);
#513 = DIRECTION('',(1.,-1.224646799147E-16,0.));
#514 = PLANE('',#515);
#515 = AXIS2_PLACEMENT_3D('',#516,#517,#518);
#516 = CARTESIAN_POINT('',(-23.600001,-22.957381,-0.69));
#517 = DIRECTION('',(1.224646799147E-16,1.,0.));
#518 = DIRECTION('',(1.,-1.224646799147E-16,0.));
#519 = ADVANCED_FACE('',(#520),#539,.F.);
#520 = FACE_BOUND('',#521,.F.);
#521 = EDGE_LOOP('',(#522,#531,#537,#538));
#522 = ORIENTED_EDGE('',*,*,#523,.F.);
#523 = EDGE_CURVE('',#524,#430,#526,.T.);
#524 = VERTEX_POINT('',#525);
#525 = CARTESIAN_POINT('',(-18.000001,-19.08075287026,0.31));
#526 = CIRCLE('',#527,3.35);
#527 = AXIS2_PLACEMENT_3D('',#528,#529,#530);
#528 = CARTESIAN_POINT('',(-21.300001,-19.657381,0.31));
#529 = DIRECTION('',(0.,0.,1.));
#530 = DIRECTION('',(-1.,1.224646799147E-16,0.));
#531 = ORIENTED_EDGE('',*,*,#532,.T.);
#532 = EDGE_CURVE('',#524,#200,#533,.T.);
#533 = LINE('',#534,#535);
#534 = CARTESIAN_POINT('',(-18.000001,-19.08075287026,-0.19));
#535 = VECTOR('',#536,1.);
#536 = DIRECTION('',(0.,0.,-1.));
#537 = ORIENTED_EDGE('',*,*,#207,.T.);
#538 = ORIENTED_EDGE('',*,*,#437,.F.);
#539 = CYLINDRICAL_SURFACE('',#540,3.35);
#540 = AXIS2_PLACEMENT_3D('',#541,#542,#543);
#541 = CARTESIAN_POINT('',(-21.300001,-19.657381,-0.19));
#542 = DIRECTION('',(0.,0.,-1.));
#543 = DIRECTION('',(-1.,1.224646799147E-16,0.));
#544 = ADVANCED_FACE('',(#545),#564,.F.);
#545 = FACE_BOUND('',#546,.F.);
#546 = EDGE_LOOP('',(#547,#555,#562,#563));
#547 = ORIENTED_EDGE('',*,*,#548,.F.);
#548 = EDGE_CURVE('',#549,#191,#551,.T.);
#549 = VERTEX_POINT('',#550);
#550 = CARTESIAN_POINT('',(-18.000001,-20.23400912973,0.31));
#551 = LINE('',#552,#553);
#552 = CARTESIAN_POINT('',(-18.000001,-20.23400912973,-0.19));
#553 = VECTOR('',#554,1.);
#554 = DIRECTION('',(0.,0.,-1.));
#555 = ORIENTED_EDGE('',*,*,#556,.F.);
#556 = EDGE_CURVE('',#502,#549,#557,.T.);
#557 = CIRCLE('',#558,3.35);
#558 = AXIS2_PLACEMENT_3D('',#559,#560,#561);
#559 = CARTESIAN_POINT('',(-21.300001,-19.657381,0.31));
#560 = DIRECTION('',(0.,0.,1.));
#561 = DIRECTION('',(-1.,1.224646799147E-16,0.));
#562 = ORIENTED_EDGE('',*,*,#501,.T.);
#563 = ORIENTED_EDGE('',*,*,#190,.T.);
#564 = CYLINDRICAL_SURFACE('',#565,3.35);
#565 = AXIS2_PLACEMENT_3D('',#566,#567,#568);
#566 = CARTESIAN_POINT('',(-21.300001,-19.657381,-0.19));
#567 = DIRECTION('',(0.,0.,-1.));
#568 = DIRECTION('',(-1.,1.224646799147E-16,0.));
#569 = ADVANCED_FACE('',(#570),#629,.F.);
#570 = FACE_BOUND('',#571,.F.);
#571 = EDGE_LOOP('',(#572,#582,#590,#596,#597,#598,#599,#607,#615,#623)
  );
#572 = ORIENTED_EDGE('',*,*,#573,.F.);
#573 = EDGE_CURVE('',#574,#576,#578,.T.);
#574 = VERTEX_POINT('',#575);
#575 = CARTESIAN_POINT('',(-18.000001,-22.557381,-0.69));
#576 = VERTEX_POINT('',#577);
#577 = CARTESIAN_POINT('',(-18.000001,-19.982381,-0.69));
#578 = LINE('',#579,#580);
#579 = CARTESIAN_POINT('',(-18.000001,-22.957381,-0.69));
#580 = VECTOR('',#581,1.);
#581 = DIRECTION('',(1.224646799147E-16,1.,0.));
#582 = ORIENTED_EDGE('',*,*,#583,.T.);
#583 = EDGE_CURVE('',#574,#584,#586,.T.);
#584 = VERTEX_POINT('',#585);
#585 = CARTESIAN_POINT('',(-18.000001,-22.557381,0.31));
#586 = LINE('',#587,#588);
#587 = CARTESIAN_POINT('',(-18.000001,-22.557381,-0.69));
#588 = VECTOR('',#589,1.);
#589 = DIRECTION('',(0.,0.,1.));
#590 = ORIENTED_EDGE('',*,*,#591,.T.);
#591 = EDGE_CURVE('',#584,#549,#592,.T.);
#592 = LINE('',#593,#594);
#593 = CARTESIAN_POINT('',(-18.000001,-22.957381,0.31));
#594 = VECTOR('',#595,1.);
#595 = DIRECTION('',(1.224646799147E-16,1.,0.));
#596 = ORIENTED_EDGE('',*,*,#548,.T.);
#597 = ORIENTED_EDGE('',*,*,#199,.T.);
#598 = ORIENTED_EDGE('',*,*,#532,.F.);
#599 = ORIENTED_EDGE('',*,*,#600,.T.);
#600 = EDGE_CURVE('',#524,#601,#603,.T.);
#601 = VERTEX_POINT('',#602);
#602 = CARTESIAN_POINT('',(-18.000001,-16.757381,0.31));
#603 = LINE('',#604,#605);
#604 = CARTESIAN_POINT('',(-18.000001,-22.957381,0.31));
#605 = VECTOR('',#606,1.);
#606 = DIRECTION('',(1.224646799147E-16,1.,0.));
#607 = ORIENTED_EDGE('',*,*,#608,.F.);
#608 = EDGE_CURVE('',#609,#601,#611,.T.);
#609 = VERTEX_POINT('',#610);
#610 = CARTESIAN_POINT('',(-18.000001,-16.757381,-0.69));
#611 = LINE('',#612,#613);
#612 = CARTESIAN_POINT('',(-18.000001,-16.757381,-0.69));
#613 = VECTOR('',#614,1.);
#614 = DIRECTION('',(0.,0.,1.));
#615 = ORIENTED_EDGE('',*,*,#616,.F.);
#616 = EDGE_CURVE('',#617,#609,#619,.T.);
#617 = VERTEX_POINT('',#618);
#618 = CARTESIAN_POINT('',(-18.000001,-19.332381,-0.69));
#619 = LINE('',#620,#621);
#620 = CARTESIAN_POINT('',(-18.000001,-22.957381,-0.69));
#621 = VECTOR('',#622,1.);
#622 = DIRECTION('',(1.224646799147E-16,1.,0.));
#623 = ORIENTED_EDGE('',*,*,#624,.F.);
#624 = EDGE_CURVE('',#576,#617,#625,.T.);
#625 = LINE('',#626,#627);
#626 = CARTESIAN_POINT('',(-18.000001,-22.957381,-0.69));
#627 = VECTOR('',#628,1.);
#628 = DIRECTION('',(1.224646799147E-16,1.,0.));
#629 = PLANE('',#630);
#630 = AXIS2_PLACEMENT_3D('',#631,#632,#633);
#631 = CARTESIAN_POINT('',(-18.000001,-22.957381,-0.69));
#632 = DIRECTION('',(-1.,1.224646799147E-16,0.));
#633 = DIRECTION('',(1.224646799147E-16,1.,0.));
#634 = ADVANCED_FACE('',(#635),#664,.T.);
#635 = FACE_BOUND('',#636,.T.);
#636 = EDGE_LOOP('',(#637,#645,#662,#663));
#637 = ORIENTED_EDGE('',*,*,#638,.T.);
#638 = EDGE_CURVE('',#243,#639,#641,.T.);
#639 = VERTEX_POINT('',#640);
#640 = CARTESIAN_POINT('',(-24.450001,-19.657381,1.753398544562));
#641 = ( BOUNDED_CURVE() B_SPLINE_CURVE(2,(#642,#643,#644),
.UNSPECIFIED.,.F.,.F.) B_SPLINE_CURVE_WITH_KNOTS((3,3),(0.,
19.792033717616),.PIECEWISE_BEZIER_KNOTS.) CURVE() 
GEOMETRIC_REPRESENTATION_ITEM() RATIONAL_B_SPLINE_CURVE((1.,
0.738548945876,1.)) REPRESENTATION_ITEM('') );
#642 = CARTESIAN_POINT('',(-24.42136463636,-19.657381,1.722028979904));
#643 = CARTESIAN_POINT('',(-24.450001,-19.657381,1.724643110293));
#644 = CARTESIAN_POINT('',(-24.450001,-19.657381,1.753398544562));
#645 = ORIENTED_EDGE('',*,*,#646,.T.);
#646 = EDGE_CURVE('',#639,#639,#647,.T.);
#647 = ( BOUNDED_CURVE() B_SPLINE_CURVE(13,(#648,#649,#650,#651,#652,
    #653,#654,#655,#656,#657,#658,#659,#660,#661),.UNSPECIFIED.,.T.,.F.)
 B_SPLINE_CURVE_WITH_KNOTS((1,13,13,1),(-19.79203371761,
    3.914259941243E-16,19.792033717616,39.584067435232),.UNSPECIFIED.) 
CURVE() GEOMETRIC_REPRESENTATION_ITEM() RATIONAL_B_SPLINE_CURVE((1.,1.,
    1.000000000001,0.999999999998,1.000000000004,0.999999999994,
    1.000000000007,0.999999999994,1.000000000005,0.999999999997,
1.000000000001,1.,1.,1.)) REPRESENTATION_ITEM('') );
#648 = CARTESIAN_POINT('',(-24.450001,-19.657381,1.753398544562));
#649 = CARTESIAN_POINT('',(-24.450001,-18.15694038267,1.753398544562));
#650 = CARTESIAN_POINT('',(-23.67452378429,-16.621898474,1.753398544562)
  );
#651 = CARTESIAN_POINT('',(-22.07870026013,-15.52427819568,
    1.753398544562));
#652 = CARTESIAN_POINT('',(-19.8826445324,-15.35570463909,1.753398544562
    ));
#653 = CARTESIAN_POINT('',(-17.98551377157,-16.52559410968,
    1.753398544561));
#654 = CARTESIAN_POINT('',(-16.59416764277,-18.23337137292,
    1.753398544562));
#655 = CARTESIAN_POINT('',(-16.59416764274,-21.08139062709,
    1.753398544561));
#656 = CARTESIAN_POINT('',(-17.98551377159,-22.78916789027,
    1.753398544562));
#657 = CARTESIAN_POINT('',(-19.8826445324,-23.95905736093,1.753398544562
    ));
#658 = CARTESIAN_POINT('',(-22.07870026012,-23.7904838043,1.753398544562
    ));
#659 = CARTESIAN_POINT('',(-23.6745237843,-22.69286352599,1.753398544562
    ));
#660 = CARTESIAN_POINT('',(-24.450001,-21.15782161732,1.753398544562));
#661 = CARTESIAN_POINT('',(-24.450001,-19.657381,1.753398544562));
#662 = ORIENTED_EDGE('',*,*,#638,.F.);
#663 = ORIENTED_EDGE('',*,*,#253,.F.);
#664 = ( BOUNDED_SURFACE() B_SPLINE_SURFACE(2,13,(
    (#665,#666,#667,#668,#669,#670,#671,#672,#673,#674,#675,#676,#677
      ,#678)
    ,(#679,#680,#681,#682,#683,#684,#685,#686,#687,#688,#689,#690,#691
      ,#692)
    ,(#693,#694,#695,#696,#697,#698,#699,#700,#701,#702,#703,#704,#705
,#706
    )),.UNSPECIFIED.,.F.,.T.,.F.) B_SPLINE_SURFACE_WITH_KNOTS((3,3),(1,
    13,13,1),(0.,19.792033717616),(-19.79203371761,3.914259941243E-16,
    19.792033717616,39.584067435232),.UNSPECIFIED.) 
GEOMETRIC_REPRESENTATION_ITEM() RATIONAL_B_SPLINE_SURFACE((
    (1.,1.,1.000000000001,0.999999999998,1.000000000004,0.999999999994
      ,1.000000000007,0.999999999994,1.000000000005,0.999999999997
      ,1.000000000001,1.,1.,1.)
    ,(0.738548945876,0.738548945876,0.738548945876,0.738548945875
      ,0.738548945878,0.738548945873,0.738548945879,0.738548945873
      ,0.738548945878,0.738548945875,0.738548945877,0.738548945876
      ,0.738548945876,0.738548945876)
    ,(1.,1.,1.000000000001,0.999999999998,1.000000000004,0.999999999994
      ,1.000000000007,0.999999999994,1.000000000005,0.999999999997
,1.000000000001,1.,1.,1.))) REPRESENTATION_ITEM('') SURFACE() );
#665 = CARTESIAN_POINT('',(-24.42136463636,-19.657381,1.722028979904));
#666 = CARTESIAN_POINT('',(-24.42136463636,-18.17058075192,
    1.722028979904));
#667 = CARTESIAN_POINT('',(-23.65293721353,-16.64949376969,
    1.722028979904));
#668 = CARTESIAN_POINT('',(-22.07162117594,-15.56185185754,
    1.722028979904));
#669 = CARTESIAN_POINT('',(-19.8955295912,-15.39481078782,1.722028979904
    ));
#670 = CARTESIAN_POINT('',(-18.01564547365,-16.5540648996,1.722028979904
    ));
#671 = CARTESIAN_POINT('',(-16.63694794602,-18.24631691498,
    1.722028979904));
#672 = CARTESIAN_POINT('',(-16.63694794598,-21.06844508503,
    1.722028979904));
#673 = CARTESIAN_POINT('',(-18.01564547367,-22.76069710036,
    1.722028979904));
#674 = CARTESIAN_POINT('',(-19.8955295912,-23.91995121219,1.722028979904
    ));
#675 = CARTESIAN_POINT('',(-22.07162117594,-23.75291014244,
    1.722028979904));
#676 = CARTESIAN_POINT('',(-23.65293721353,-22.6652682303,1.722028979904
    ));
#677 = CARTESIAN_POINT('',(-24.42136463636,-21.14418124807,
    1.722028979904));
#678 = CARTESIAN_POINT('',(-24.42136463636,-19.657381,1.722028979904));
#679 = CARTESIAN_POINT('',(-24.450001,-19.657381,1.724643110293));
#680 = CARTESIAN_POINT('',(-24.450001,-18.15694038267,1.724643110293));
#681 = CARTESIAN_POINT('',(-23.67452378429,-16.621898474,1.724643110293)
  );
#682 = CARTESIAN_POINT('',(-22.07870026013,-15.52427819568,
    1.724643110292));
#683 = CARTESIAN_POINT('',(-19.88264453239,-15.35570463909,
    1.724643110293));
#684 = CARTESIAN_POINT('',(-17.9855137716,-16.52559410969,1.724643110292
    ));
#685 = CARTESIAN_POINT('',(-16.59416764274,-18.23337137291,
    1.724643110293));
#686 = CARTESIAN_POINT('',(-16.59416764277,-21.08139062709,
    1.724643110292));
#687 = CARTESIAN_POINT('',(-17.98551377156,-22.78916789028,
    1.724643110293));
#688 = CARTESIAN_POINT('',(-19.88264453242,-23.95905736092,
    1.724643110292));
#689 = CARTESIAN_POINT('',(-22.07870026011,-23.7904838043,1.724643110293
    ));
#690 = CARTESIAN_POINT('',(-23.6745237843,-22.69286352599,1.724643110293
    ));
#691 = CARTESIAN_POINT('',(-24.45000099999,-21.15782161732,
    1.724643110293));
#692 = CARTESIAN_POINT('',(-24.450001,-19.657381,1.724643110293));
#693 = CARTESIAN_POINT('',(-24.450001,-19.657381,1.753398544562));
#694 = CARTESIAN_POINT('',(-24.450001,-18.15694038267,1.753398544562));
#695 = CARTESIAN_POINT('',(-23.67452378429,-16.621898474,1.753398544562)
  );
#696 = CARTESIAN_POINT('',(-22.07870026013,-15.52427819568,
    1.753398544562));
#697 = CARTESIAN_POINT('',(-19.8826445324,-15.35570463909,1.753398544562
    ));
#698 = CARTESIAN_POINT('',(-17.98551377157,-16.52559410968,
    1.753398544561));
#699 = CARTESIAN_POINT('',(-16.59416764277,-18.23337137292,
    1.753398544562));
#700 = CARTESIAN_POINT('',(-16.59416764274,-21.08139062709,
    1.753398544561));
#701 = CARTESIAN_POINT('',(-17.98551377159,-22.78916789027,
    1.753398544562));
#702 = CARTESIAN_POINT('',(-19.8826445324,-23.95905736093,1.753398544562
    ));
#703 = CARTESIAN_POINT('',(-22.07870026012,-23.7904838043,1.753398544562
    ));
#704 = CARTESIAN_POINT('',(-23.6745237843,-22.69286352599,1.753398544562
    ));
#705 = CARTESIAN_POINT('',(-24.450001,-21.15782161732,1.753398544562));
#706 = CARTESIAN_POINT('',(-24.450001,-19.657381,1.753398544562));
#707 = ADVANCED_FACE('',(#708),#788,.F.);
#708 = FACE_BOUND('',#709,.F.);
#709 = EDGE_LOOP('',(#710,#717,#718,#726,#735,#741,#742,#749,#750,#756,
    #757,#765,#774,#780,#781,#787));
#710 = ORIENTED_EDGE('',*,*,#711,.F.);
#711 = EDGE_CURVE('',#574,#468,#712,.T.);
#712 = CIRCLE('',#713,0.4);
#713 = AXIS2_PLACEMENT_3D('',#714,#715,#716);
#714 = CARTESIAN_POINT('',(-18.400001,-22.557381,-0.69));
#715 = DIRECTION('',(0.,0.,-1.));
#716 = DIRECTION('',(1.224646799147E-16,1.,0.));
#717 = ORIENTED_EDGE('',*,*,#573,.T.);
#718 = ORIENTED_EDGE('',*,*,#719,.F.);
#719 = EDGE_CURVE('',#720,#576,#722,.T.);
#720 = VERTEX_POINT('',#721);
#721 = CARTESIAN_POINT('',(-20.075001,-19.982381,-0.69));
#722 = LINE('',#723,#724);
#723 = CARTESIAN_POINT('',(-20.075001,-19.982381,-0.69));
#724 = VECTOR('',#725,1.);
#725 = DIRECTION('',(1.,-2.656811920655E-16,0.));
#726 = ORIENTED_EDGE('',*,*,#727,.F.);
#727 = EDGE_CURVE('',#728,#720,#730,.T.);
#728 = VERTEX_POINT('',#729);
#729 = CARTESIAN_POINT('',(-20.075001,-19.332381,-0.69));
#730 = CIRCLE('',#731,0.325);
#731 = AXIS2_PLACEMENT_3D('',#732,#733,#734);
#732 = CARTESIAN_POINT('',(-20.075001,-19.657381,-0.69));
#733 = DIRECTION('',(0.,-0.,1.));
#734 = DIRECTION('',(9.281435288296E-16,1.,0.));
#735 = ORIENTED_EDGE('',*,*,#736,.F.);
#736 = EDGE_CURVE('',#617,#728,#737,.T.);
#737 = LINE('',#738,#739);
#738 = CARTESIAN_POINT('',(-17.400001,-19.332381,-0.69));
#739 = VECTOR('',#740,1.);
#740 = DIRECTION('',(-1.,2.449293598295E-16,0.));
#741 = ORIENTED_EDGE('',*,*,#616,.T.);
#742 = ORIENTED_EDGE('',*,*,#743,.F.);
#743 = EDGE_CURVE('',#412,#609,#744,.T.);
#744 = CIRCLE('',#745,0.4);
#745 = AXIS2_PLACEMENT_3D('',#746,#747,#748);
#746 = CARTESIAN_POINT('',(-18.400001,-16.757381,-0.69));
#747 = DIRECTION('',(0.,0.,-1.));
#748 = DIRECTION('',(1.224646799147E-16,1.,0.));
#749 = ORIENTED_EDGE('',*,*,#411,.T.);
#750 = ORIENTED_EDGE('',*,*,#751,.T.);
#751 = EDGE_CURVE('',#414,#283,#752,.T.);
#752 = LINE('',#753,#754);
#753 = CARTESIAN_POINT('',(-23.600001,-16.357381,-0.69));
#754 = VECTOR('',#755,1.);
#755 = DIRECTION('',(-0.707106781187,-0.707106781187,0.));
#756 = ORIENTED_EDGE('',*,*,#282,.T.);
#757 = ORIENTED_EDGE('',*,*,#758,.F.);
#758 = EDGE_CURVE('',#759,#285,#761,.T.);
#759 = VERTEX_POINT('',#760);
#760 = CARTESIAN_POINT('',(-22.525001,-19.332381,-0.69));
#761 = LINE('',#762,#763);
#762 = CARTESIAN_POINT('',(-22.525001,-19.332381,-0.69));
#763 = VECTOR('',#764,1.);
#764 = DIRECTION('',(-1.,1.432165121507E-16,0.));
#765 = ORIENTED_EDGE('',*,*,#766,.F.);
#766 = EDGE_CURVE('',#767,#759,#769,.T.);
#767 = VERTEX_POINT('',#768);
#768 = CARTESIAN_POINT('',(-22.525001,-19.982381,-0.69));
#769 = CIRCLE('',#770,0.325);
#770 = AXIS2_PLACEMENT_3D('',#771,#772,#773);
#771 = CARTESIAN_POINT('',(-22.525001,-19.657381,-0.69));
#772 = DIRECTION('',(0.,0.,1.));
#773 = DIRECTION('',(-8.056788489148E-16,-1.,0.));
#774 = ORIENTED_EDGE('',*,*,#775,.F.);
#775 = EDGE_CURVE('',#340,#767,#776,.T.);
#776 = LINE('',#777,#778);
#777 = CARTESIAN_POINT('',(-25.200001,-19.982381,-0.69));
#778 = VECTOR('',#779,1.);
#779 = DIRECTION('',(1.,-1.224646799147E-16,0.));
#780 = ORIENTED_EDGE('',*,*,#339,.T.);
#781 = ORIENTED_EDGE('',*,*,#782,.T.);
#782 = EDGE_CURVE('',#332,#478,#783,.T.);
#783 = LINE('',#784,#785);
#784 = CARTESIAN_POINT('',(-24.600001,-21.957381,-0.69));
#785 = VECTOR('',#786,1.);
#786 = DIRECTION('',(0.707106781187,-0.707106781187,0.));
#787 = ORIENTED_EDGE('',*,*,#477,.T.);
#788 = PLANE('',#789);
#789 = AXIS2_PLACEMENT_3D('',#790,#791,#792);
#790 = CARTESIAN_POINT('',(-21.13033508981,-19.657381,-0.69));
#791 = DIRECTION('',(0.,0.,1.));
#792 = DIRECTION('',(-1.,1.224646799147E-16,0.));
#793 = ADVANCED_FACE('',(#794),#805,.F.);
#794 = FACE_BOUND('',#795,.F.);
#795 = EDGE_LOOP('',(#796,#797,#798,#804));
#796 = ORIENTED_EDGE('',*,*,#751,.F.);
#797 = ORIENTED_EDGE('',*,*,#453,.T.);
#798 = ORIENTED_EDGE('',*,*,#799,.T.);
#799 = EDGE_CURVE('',#446,#293,#800,.T.);
#800 = LINE('',#801,#802);
#801 = CARTESIAN_POINT('',(-23.025001,-15.782381,1.E-02));
#802 = VECTOR('',#803,1.);
#803 = DIRECTION('',(-0.707106781187,-0.707106781187,0.));
#804 = ORIENTED_EDGE('',*,*,#292,.F.);
#805 = PLANE('',#806);
#806 = AXIS2_PLACEMENT_3D('',#807,#808,#809);
#807 = CARTESIAN_POINT('',(-23.600001,-16.357381,-0.69));
#808 = DIRECTION('',(0.707106781187,-0.707106781187,0.));
#809 = DIRECTION('',(-0.707106781187,-0.707106781187,0.));
#810 = ADVANCED_FACE('',(#811),#836,.T.);
#811 = FACE_BOUND('',#812,.T.);
#812 = EDGE_LOOP('',(#813,#821,#829,#835));
#813 = ORIENTED_EDGE('',*,*,#814,.T.);
#814 = EDGE_CURVE('',#285,#815,#817,.T.);
#815 = VERTEX_POINT('',#816);
#816 = CARTESIAN_POINT('',(-25.200001,-19.332381,-0.69));
#817 = LINE('',#818,#819);
#818 = CARTESIAN_POINT('',(-22.525001,-19.332381,-0.69));
#819 = VECTOR('',#820,1.);
#820 = DIRECTION('',(-1.,1.432165121507E-16,0.));
#821 = ORIENTED_EDGE('',*,*,#822,.T.);
#822 = EDGE_CURVE('',#815,#823,#825,.T.);
#823 = VERTEX_POINT('',#824);
#824 = CARTESIAN_POINT('',(-25.200001,-19.982381,-0.69));
#825 = LINE('',#826,#827);
#826 = CARTESIAN_POINT('',(-25.200001,-19.332381,-0.69));
#827 = VECTOR('',#828,1.);
#828 = DIRECTION('',(-1.224646799147E-16,-1.,0.));
#829 = ORIENTED_EDGE('',*,*,#830,.T.);
#830 = EDGE_CURVE('',#823,#340,#831,.T.);
#831 = LINE('',#832,#833);
#832 = CARTESIAN_POINT('',(-25.200001,-19.982381,-0.69));
#833 = VECTOR('',#834,1.);
#834 = DIRECTION('',(1.,-1.224646799147E-16,0.));
#835 = ORIENTED_EDGE('',*,*,#347,.F.);
#836 = PLANE('',#837);
#837 = AXIS2_PLACEMENT_3D('',#838,#839,#840);
#838 = CARTESIAN_POINT('',(-23.77395112666,-19.657381,-0.69));
#839 = DIRECTION('',(0.,0.,1.));
#840 = DIRECTION('',(-1.,1.224646799147E-16,0.));
#841 = ADVANCED_FACE('',(#842),#848,.T.);
#842 = FACE_BOUND('',#843,.T.);
#843 = EDGE_LOOP('',(#844,#845,#846,#847));
#844 = ORIENTED_EDGE('',*,*,#371,.T.);
#845 = ORIENTED_EDGE('',*,*,#445,.T.);
#846 = ORIENTED_EDGE('',*,*,#799,.T.);
#847 = ORIENTED_EDGE('',*,*,#300,.T.);
#848 = PLANE('',#849);
#849 = AXIS2_PLACEMENT_3D('',#850,#851,#852);
#850 = CARTESIAN_POINT('',(-21.300001,-16.357381,1.E-02));
#851 = DIRECTION('',(0.,0.,1.));
#852 = DIRECTION('',(-1.,1.224646799147E-16,0.));
#853 = ADVANCED_FACE('',(#854),#865,.F.);
#854 = FACE_BOUND('',#855,.F.);
#855 = EDGE_LOOP('',(#856,#857,#858,#864));
#856 = ORIENTED_EDGE('',*,*,#782,.F.);
#857 = ORIENTED_EDGE('',*,*,#331,.T.);
#858 = ORIENTED_EDGE('',*,*,#859,.T.);
#859 = EDGE_CURVE('',#324,#486,#860,.T.);
#860 = LINE('',#861,#862);
#861 = CARTESIAN_POINT('',(-25.175001,-21.382381,1.E-02));
#862 = VECTOR('',#863,1.);
#863 = DIRECTION('',(0.707106781187,-0.707106781187,0.));
#864 = ORIENTED_EDGE('',*,*,#485,.F.);
#865 = PLANE('',#866);
#866 = AXIS2_PLACEMENT_3D('',#867,#868,#869);
#867 = CARTESIAN_POINT('',(-24.600001,-21.957381,-0.69));
#868 = DIRECTION('',(0.707106781187,0.707106781187,0.));
#869 = DIRECTION('',(0.707106781187,-0.707106781187,0.));
#870 = ADVANCED_FACE('',(#871),#877,.T.);
#871 = FACE_BOUND('',#872,.T.);
#872 = EDGE_LOOP('',(#873,#874,#875,#876));
#873 = ORIENTED_EDGE('',*,*,#493,.F.);
#874 = ORIENTED_EDGE('',*,*,#394,.T.);
#875 = ORIENTED_EDGE('',*,*,#323,.T.);
#876 = ORIENTED_EDGE('',*,*,#859,.T.);
#877 = PLANE('',#878);
#878 = AXIS2_PLACEMENT_3D('',#879,#880,#881);
#879 = CARTESIAN_POINT('',(-21.300001,-16.357381,1.E-02));
#880 = DIRECTION('',(0.,0.,1.));
#881 = DIRECTION('',(-1.,1.224646799147E-16,0.));
#882 = ADVANCED_FACE('',(#883),#895,.T.);
#883 = FACE_BOUND('',#884,.T.);
#884 = EDGE_LOOP('',(#885,#886,#887,#894));
#885 = ORIENTED_EDGE('',*,*,#523,.F.);
#886 = ORIENTED_EDGE('',*,*,#600,.T.);
#887 = ORIENTED_EDGE('',*,*,#888,.F.);
#888 = EDGE_CURVE('',#422,#601,#889,.T.);
#889 = CIRCLE('',#890,0.4);
#890 = AXIS2_PLACEMENT_3D('',#891,#892,#893);
#891 = CARTESIAN_POINT('',(-18.400001,-16.757381,0.31));
#892 = DIRECTION('',(0.,0.,-1.));
#893 = DIRECTION('',(1.224646799147E-16,1.,0.));
#894 = ORIENTED_EDGE('',*,*,#429,.T.);
#895 = PLANE('',#896);
#896 = AXIS2_PLACEMENT_3D('',#897,#898,#899);
#897 = CARTESIAN_POINT('',(-21.13033508981,-19.657381,0.31));
#898 = DIRECTION('',(0.,0.,1.));
#899 = DIRECTION('',(-1.,1.224646799147E-16,0.));
#900 = ADVANCED_FACE('',(#901),#907,.T.);
#901 = FACE_BOUND('',#902,.T.);
#902 = EDGE_LOOP('',(#903,#904,#905,#906));
#903 = ORIENTED_EDGE('',*,*,#421,.T.);
#904 = ORIENTED_EDGE('',*,*,#888,.T.);
#905 = ORIENTED_EDGE('',*,*,#608,.F.);
#906 = ORIENTED_EDGE('',*,*,#743,.F.);
#907 = CYLINDRICAL_SURFACE('',#908,0.4);
#908 = AXIS2_PLACEMENT_3D('',#909,#910,#911);
#909 = CARTESIAN_POINT('',(-18.400001,-16.757381,-0.69));
#910 = DIRECTION('',(0.,0.,1.));
#911 = DIRECTION('',(1.224646799147E-16,1.,0.));
#912 = ADVANCED_FACE('',(#913),#925,.T.);
#913 = FACE_BOUND('',#914,.T.);
#914 = EDGE_LOOP('',(#915,#916,#923,#924));
#915 = ORIENTED_EDGE('',*,*,#583,.T.);
#916 = ORIENTED_EDGE('',*,*,#917,.T.);
#917 = EDGE_CURVE('',#584,#470,#918,.T.);
#918 = CIRCLE('',#919,0.4);
#919 = AXIS2_PLACEMENT_3D('',#920,#921,#922);
#920 = CARTESIAN_POINT('',(-18.400001,-22.557381,0.31));
#921 = DIRECTION('',(0.,0.,-1.));
#922 = DIRECTION('',(1.224646799147E-16,1.,0.));
#923 = ORIENTED_EDGE('',*,*,#467,.F.);
#924 = ORIENTED_EDGE('',*,*,#711,.F.);
#925 = CYLINDRICAL_SURFACE('',#926,0.4);
#926 = AXIS2_PLACEMENT_3D('',#927,#928,#929);
#927 = CARTESIAN_POINT('',(-18.400001,-22.557381,-0.69));
#928 = DIRECTION('',(0.,0.,1.));
#929 = DIRECTION('',(1.,-1.224646799147E-16,0.));
#930 = ADVANCED_FACE('',(#931),#937,.T.);
#931 = FACE_BOUND('',#932,.T.);
#932 = EDGE_LOOP('',(#933,#934,#935,#936));
#933 = ORIENTED_EDGE('',*,*,#917,.F.);
#934 = ORIENTED_EDGE('',*,*,#591,.T.);
#935 = ORIENTED_EDGE('',*,*,#556,.F.);
#936 = ORIENTED_EDGE('',*,*,#509,.T.);
#937 = PLANE('',#938);
#938 = AXIS2_PLACEMENT_3D('',#939,#940,#941);
#939 = CARTESIAN_POINT('',(-21.13033508981,-19.657381,0.31));
#940 = DIRECTION('',(0.,0.,1.));
#941 = DIRECTION('',(-1.,1.224646799147E-16,0.));
#942 = ADVANCED_FACE('',(#943),#968,.T.);
#943 = FACE_BOUND('',#944,.T.);
#944 = EDGE_LOOP('',(#945,#953,#961,#967));
#945 = ORIENTED_EDGE('',*,*,#946,.T.);
#946 = EDGE_CURVE('',#576,#947,#949,.T.);
#947 = VERTEX_POINT('',#948);
#948 = CARTESIAN_POINT('',(-17.400001,-19.982381,-0.69));
#949 = LINE('',#950,#951);
#950 = CARTESIAN_POINT('',(-20.075001,-19.982381,-0.69));
#951 = VECTOR('',#952,1.);
#952 = DIRECTION('',(1.,-2.656811920655E-16,0.));
#953 = ORIENTED_EDGE('',*,*,#954,.T.);
#954 = EDGE_CURVE('',#947,#955,#957,.T.);
#955 = VERTEX_POINT('',#956);
#956 = CARTESIAN_POINT('',(-17.400001,-19.332381,-0.69));
#957 = LINE('',#958,#959);
#958 = CARTESIAN_POINT('',(-17.400001,-19.982381,-0.69));
#959 = VECTOR('',#960,1.);
#960 = DIRECTION('',(2.449293598295E-16,1.,0.));
#961 = ORIENTED_EDGE('',*,*,#962,.T.);
#962 = EDGE_CURVE('',#955,#617,#963,.T.);
#963 = LINE('',#964,#965);
#964 = CARTESIAN_POINT('',(-17.400001,-19.332381,-0.69));
#965 = VECTOR('',#966,1.);
#966 = DIRECTION('',(-1.,2.449293598295E-16,0.));
#967 = ORIENTED_EDGE('',*,*,#624,.F.);
#968 = PLANE('',#969);
#969 = AXIS2_PLACEMENT_3D('',#970,#971,#972);
#970 = CARTESIAN_POINT('',(-18.82605087334,-19.657381,-0.69));
#971 = DIRECTION('',(0.,0.,1.));
#972 = DIRECTION('',(1.,-2.449293598295E-16,0.));
#973 = ADVANCED_FACE('',(#974),#1020,.T.);
#974 = FACE_BOUND('',#975,.T.);
#975 = EDGE_LOOP('',(#976,#977,#985,#994,#1003,#1012,#1019));
#976 = ORIENTED_EDGE('',*,*,#646,.F.);
#977 = ORIENTED_EDGE('',*,*,#978,.T.);
#978 = EDGE_CURVE('',#639,#979,#981,.T.);
#979 = VERTEX_POINT('',#980);
#980 = CARTESIAN_POINT('',(-24.450001,-19.657381,6.44));
#981 = LINE('',#982,#983);
#982 = CARTESIAN_POINT('',(-24.450001,-19.657381,1.723333333333));
#983 = VECTOR('',#984,1.);
#984 = DIRECTION('',(0.,0.,1.));
#985 = ORIENTED_EDGE('',*,*,#986,.T.);
#986 = EDGE_CURVE('',#979,#987,#989,.T.);
#987 = VERTEX_POINT('',#988);
#988 = CARTESIAN_POINT('',(-20.355001,-16.65247251553,6.44));
#989 = CIRCLE('',#990,3.15);
#990 = AXIS2_PLACEMENT_3D('',#991,#992,#993);
#991 = CARTESIAN_POINT('',(-21.300001,-19.657381,6.44));
#992 = DIRECTION('',(0.,0.,-1.));
#993 = DIRECTION('',(-1.,1.224646799147E-16,0.));
#994 = ORIENTED_EDGE('',*,*,#995,.T.);
#995 = EDGE_CURVE('',#987,#996,#998,.T.);
#996 = VERTEX_POINT('',#997);
#997 = CARTESIAN_POINT('',(-18.150001,-19.65738096799,6.44));
#998 = CIRCLE('',#999,3.15);
#999 = AXIS2_PLACEMENT_3D('',#1000,#1001,#1002);
#1000 = CARTESIAN_POINT('',(-21.300001,-19.657381,6.44));
#1001 = DIRECTION('',(0.,0.,-1.));
#1002 = DIRECTION('',(-1.,1.224646799147E-16,0.));
#1003 = ORIENTED_EDGE('',*,*,#1004,.T.);
#1004 = EDGE_CURVE('',#996,#1005,#1007,.T.);
#1005 = VERTEX_POINT('',#1006);
#1006 = CARTESIAN_POINT('',(-20.355001,-22.66228948446,6.44));
#1007 = CIRCLE('',#1008,3.15);
#1008 = AXIS2_PLACEMENT_3D('',#1009,#1010,#1011);
#1009 = CARTESIAN_POINT('',(-21.300001,-19.657381,6.44));
#1010 = DIRECTION('',(0.,0.,-1.));
#1011 = DIRECTION('',(-1.,1.224646799147E-16,0.));
#1012 = ORIENTED_EDGE('',*,*,#1013,.T.);
#1013 = EDGE_CURVE('',#1005,#979,#1014,.T.);
#1014 = CIRCLE('',#1015,3.15);
#1015 = AXIS2_PLACEMENT_3D('',#1016,#1017,#1018);
#1016 = CARTESIAN_POINT('',(-21.300001,-19.657381,6.44));
#1017 = DIRECTION('',(0.,0.,-1.));
#1018 = DIRECTION('',(-1.,1.224646799147E-16,0.));
#1019 = ORIENTED_EDGE('',*,*,#978,.F.);
#1020 = CYLINDRICAL_SURFACE('',#1021,3.15);
#1021 = AXIS2_PLACEMENT_3D('',#1022,#1023,#1024);
#1022 = CARTESIAN_POINT('',(-21.300001,-19.657381,1.723333333333));
#1023 = DIRECTION('',(0.,0.,1.));
#1024 = DIRECTION('',(-1.,1.224646799147E-16,0.));
#1025 = ADVANCED_FACE('',(#1026),#1052,.F.);
#1026 = FACE_BOUND('',#1027,.F.);
#1027 = EDGE_LOOP('',(#1028,#1036,#1037,#1038,#1046));
#1028 = ORIENTED_EDGE('',*,*,#1029,.T.);
#1029 = EDGE_CURVE('',#1030,#823,#1032,.T.);
#1030 = VERTEX_POINT('',#1031);
#1031 = CARTESIAN_POINT('',(-25.200001,-19.982381,-0.84));
#1032 = LINE('',#1033,#1034);
#1033 = CARTESIAN_POINT('',(-25.200001,-19.982381,-0.84));
#1034 = VECTOR('',#1035,1.);
#1035 = DIRECTION('',(0.,0.,1.));
#1036 = ORIENTED_EDGE('',*,*,#830,.T.);
#1037 = ORIENTED_EDGE('',*,*,#775,.T.);
#1038 = ORIENTED_EDGE('',*,*,#1039,.F.);
#1039 = EDGE_CURVE('',#1040,#767,#1042,.T.);
#1040 = VERTEX_POINT('',#1041);
#1041 = CARTESIAN_POINT('',(-22.525001,-19.982381,-0.84));
#1042 = LINE('',#1043,#1044);
#1043 = CARTESIAN_POINT('',(-22.525001,-19.982381,-0.84));
#1044 = VECTOR('',#1045,1.);
#1045 = DIRECTION('',(0.,0.,1.));
#1046 = ORIENTED_EDGE('',*,*,#1047,.F.);
#1047 = EDGE_CURVE('',#1030,#1040,#1048,.T.);
#1048 = LINE('',#1049,#1050);
#1049 = CARTESIAN_POINT('',(-25.200001,-19.982381,-0.84));
#1050 = VECTOR('',#1051,1.);
#1051 = DIRECTION('',(1.,-1.224646799147E-16,0.));
#1052 = PLANE('',#1053);
#1053 = AXIS2_PLACEMENT_3D('',#1054,#1055,#1056);
#1054 = CARTESIAN_POINT('',(-25.200001,-19.982381,-0.84));
#1055 = DIRECTION('',(1.224646799147E-16,1.,0.));
#1056 = DIRECTION('',(1.,-1.224646799147E-16,0.));
#1057 = ADVANCED_FACE('',(#1058),#1077,.T.);
#1058 = FACE_BOUND('',#1059,.T.);
#1059 = EDGE_LOOP('',(#1060,#1069,#1075,#1076));
#1060 = ORIENTED_EDGE('',*,*,#1061,.T.);
#1061 = EDGE_CURVE('',#1040,#1062,#1064,.T.);
#1062 = VERTEX_POINT('',#1063);
#1063 = CARTESIAN_POINT('',(-22.525001,-19.332381,-0.84));
#1064 = CIRCLE('',#1065,0.325);
#1065 = AXIS2_PLACEMENT_3D('',#1066,#1067,#1068);
#1066 = CARTESIAN_POINT('',(-22.525001,-19.657381,-0.84));
#1067 = DIRECTION('',(0.,0.,1.));
#1068 = DIRECTION('',(-8.056788489148E-16,-1.,0.));
#1069 = ORIENTED_EDGE('',*,*,#1070,.T.);
#1070 = EDGE_CURVE('',#1062,#759,#1071,.T.);
#1071 = LINE('',#1072,#1073);
#1072 = CARTESIAN_POINT('',(-22.525001,-19.332381,-0.84));
#1073 = VECTOR('',#1074,1.);
#1074 = DIRECTION('',(0.,0.,1.));
#1075 = ORIENTED_EDGE('',*,*,#766,.F.);
#1076 = ORIENTED_EDGE('',*,*,#1039,.F.);
#1077 = CYLINDRICAL_SURFACE('',#1078,0.325);
#1078 = AXIS2_PLACEMENT_3D('',#1079,#1080,#1081);
#1079 = CARTESIAN_POINT('',(-22.525001,-19.657381,-0.84));
#1080 = DIRECTION('',(0.,0.,-1.));
#1081 = DIRECTION('',(-8.056788489148E-16,-1.,-0.));
#1082 = ADVANCED_FACE('',(#1083),#1102,.F.);
#1083 = FACE_BOUND('',#1084,.F.);
#1084 = EDGE_LOOP('',(#1085,#1086,#1087,#1088,#1096));
#1085 = ORIENTED_EDGE('',*,*,#1070,.T.);
#1086 = ORIENTED_EDGE('',*,*,#758,.T.);
#1087 = ORIENTED_EDGE('',*,*,#814,.T.);
#1088 = ORIENTED_EDGE('',*,*,#1089,.F.);
#1089 = EDGE_CURVE('',#1090,#815,#1092,.T.);
#1090 = VERTEX_POINT('',#1091);
#1091 = CARTESIAN_POINT('',(-25.200001,-19.332381,-0.84));
#1092 = LINE('',#1093,#1094);
#1093 = CARTESIAN_POINT('',(-25.200001,-19.332381,-0.84));
#1094 = VECTOR('',#1095,1.);
#1095 = DIRECTION('',(0.,0.,1.));
#1096 = ORIENTED_EDGE('',*,*,#1097,.F.);
#1097 = EDGE_CURVE('',#1062,#1090,#1098,.T.);
#1098 = LINE('',#1099,#1100);
#1099 = CARTESIAN_POINT('',(-22.525001,-19.332381,-0.84));
#1100 = VECTOR('',#1101,1.);
#1101 = DIRECTION('',(-1.,1.432165121507E-16,0.));
#1102 = PLANE('',#1103);
#1103 = AXIS2_PLACEMENT_3D('',#1104,#1105,#1106);
#1104 = CARTESIAN_POINT('',(-22.525001,-19.332381,-0.84));
#1105 = DIRECTION('',(-1.432165121507E-16,-1.,0.));
#1106 = DIRECTION('',(-1.,1.432165121507E-16,0.));
#1107 = ADVANCED_FACE('',(#1108),#1134,.F.);
#1108 = FACE_BOUND('',#1109,.F.);
#1109 = EDGE_LOOP('',(#1110,#1118,#1119,#1120,#1128));
#1110 = ORIENTED_EDGE('',*,*,#1111,.T.);
#1111 = EDGE_CURVE('',#1112,#955,#1114,.T.);
#1112 = VERTEX_POINT('',#1113);
#1113 = CARTESIAN_POINT('',(-17.400001,-19.332381,-0.84));
#1114 = LINE('',#1115,#1116);
#1115 = CARTESIAN_POINT('',(-17.400001,-19.332381,-0.84));
#1116 = VECTOR('',#1117,1.);
#1117 = DIRECTION('',(0.,0.,1.));
#1118 = ORIENTED_EDGE('',*,*,#962,.T.);
#1119 = ORIENTED_EDGE('',*,*,#736,.T.);
#1120 = ORIENTED_EDGE('',*,*,#1121,.F.);
#1121 = EDGE_CURVE('',#1122,#728,#1124,.T.);
#1122 = VERTEX_POINT('',#1123);
#1123 = CARTESIAN_POINT('',(-20.075001,-19.332381,-0.84));
#1124 = LINE('',#1125,#1126);
#1125 = CARTESIAN_POINT('',(-20.075001,-19.332381,-0.84));
#1126 = VECTOR('',#1127,1.);
#1127 = DIRECTION('',(0.,0.,1.));
#1128 = ORIENTED_EDGE('',*,*,#1129,.F.);
#1129 = EDGE_CURVE('',#1112,#1122,#1130,.T.);
#1130 = LINE('',#1131,#1132);
#1131 = CARTESIAN_POINT('',(-17.400001,-19.332381,-0.84));
#1132 = VECTOR('',#1133,1.);
#1133 = DIRECTION('',(-1.,2.449293598295E-16,0.));
#1134 = PLANE('',#1135);
#1135 = AXIS2_PLACEMENT_3D('',#1136,#1137,#1138);
#1136 = CARTESIAN_POINT('',(-17.400001,-19.332381,-0.84));
#1137 = DIRECTION('',(-2.449293598295E-16,-1.,0.));
#1138 = DIRECTION('',(-1.,2.449293598295E-16,0.));
#1139 = ADVANCED_FACE('',(#1140),#1159,.T.);
#1140 = FACE_BOUND('',#1141,.T.);
#1141 = EDGE_LOOP('',(#1142,#1151,#1157,#1158));
#1142 = ORIENTED_EDGE('',*,*,#1143,.T.);
#1143 = EDGE_CURVE('',#1122,#1144,#1146,.T.);
#1144 = VERTEX_POINT('',#1145);
#1145 = CARTESIAN_POINT('',(-20.075001,-19.982381,-0.84));
#1146 = CIRCLE('',#1147,0.325);
#1147 = AXIS2_PLACEMENT_3D('',#1148,#1149,#1150);
#1148 = CARTESIAN_POINT('',(-20.075001,-19.657381,-0.84));
#1149 = DIRECTION('',(0.,-0.,1.));
#1150 = DIRECTION('',(9.281435288296E-16,1.,0.));
#1151 = ORIENTED_EDGE('',*,*,#1152,.T.);
#1152 = EDGE_CURVE('',#1144,#720,#1153,.T.);
#1153 = LINE('',#1154,#1155);
#1154 = CARTESIAN_POINT('',(-20.075001,-19.982381,-0.84));
#1155 = VECTOR('',#1156,1.);
#1156 = DIRECTION('',(0.,0.,1.));
#1157 = ORIENTED_EDGE('',*,*,#727,.F.);
#1158 = ORIENTED_EDGE('',*,*,#1121,.F.);
#1159 = CYLINDRICAL_SURFACE('',#1160,0.325);
#1160 = AXIS2_PLACEMENT_3D('',#1161,#1162,#1163);
#1161 = CARTESIAN_POINT('',(-20.075001,-19.657381,-0.84));
#1162 = DIRECTION('',(0.,0.,-1.));
#1163 = DIRECTION('',(9.281435288296E-16,1.,0.));
#1164 = ADVANCED_FACE('',(#1165),#1184,.F.);
#1165 = FACE_BOUND('',#1166,.F.);
#1166 = EDGE_LOOP('',(#1167,#1168,#1169,#1170,#1178));
#1167 = ORIENTED_EDGE('',*,*,#1152,.T.);
#1168 = ORIENTED_EDGE('',*,*,#719,.T.);
#1169 = ORIENTED_EDGE('',*,*,#946,.T.);
#1170 = ORIENTED_EDGE('',*,*,#1171,.F.);
#1171 = EDGE_CURVE('',#1172,#947,#1174,.T.);
#1172 = VERTEX_POINT('',#1173);
#1173 = CARTESIAN_POINT('',(-17.400001,-19.982381,-0.84));
#1174 = LINE('',#1175,#1176);
#1175 = CARTESIAN_POINT('',(-17.400001,-19.982381,-0.84));
#1176 = VECTOR('',#1177,1.);
#1177 = DIRECTION('',(0.,0.,1.));
#1178 = ORIENTED_EDGE('',*,*,#1179,.F.);
#1179 = EDGE_CURVE('',#1144,#1172,#1180,.T.);
#1180 = LINE('',#1181,#1182);
#1181 = CARTESIAN_POINT('',(-20.075001,-19.982381,-0.84));
#1182 = VECTOR('',#1183,1.);
#1183 = DIRECTION('',(1.,-2.656811920655E-16,0.));
#1184 = PLANE('',#1185);
#1185 = AXIS2_PLACEMENT_3D('',#1186,#1187,#1188);
#1186 = CARTESIAN_POINT('',(-20.075001,-19.982381,-0.84));
#1187 = DIRECTION('',(2.656811920655E-16,1.,0.));
#1188 = DIRECTION('',(1.,-2.656811920655E-16,0.));
#1189 = ADVANCED_FACE('',(#1190),#1201,.F.);
#1190 = FACE_BOUND('',#1191,.F.);
#1191 = EDGE_LOOP('',(#1192,#1193,#1194,#1195));
#1192 = ORIENTED_EDGE('',*,*,#1089,.T.);
#1193 = ORIENTED_EDGE('',*,*,#822,.T.);
#1194 = ORIENTED_EDGE('',*,*,#1029,.F.);
#1195 = ORIENTED_EDGE('',*,*,#1196,.F.);
#1196 = EDGE_CURVE('',#1090,#1030,#1197,.T.);
#1197 = LINE('',#1198,#1199);
#1198 = CARTESIAN_POINT('',(-25.200001,-19.332381,-0.84));
#1199 = VECTOR('',#1200,1.);
#1200 = DIRECTION('',(-1.224646799147E-16,-1.,0.));
#1201 = PLANE('',#1202);
#1202 = AXIS2_PLACEMENT_3D('',#1203,#1204,#1205);
#1203 = CARTESIAN_POINT('',(-25.200001,-19.332381,-0.84));
#1204 = DIRECTION('',(1.,-1.224646799147E-16,0.));
#1205 = DIRECTION('',(-1.224646799147E-16,-1.,0.));
#1206 = ADVANCED_FACE('',(#1207),#1218,.F.);
#1207 = FACE_BOUND('',#1208,.F.);
#1208 = EDGE_LOOP('',(#1209,#1210,#1211,#1212));
#1209 = ORIENTED_EDGE('',*,*,#1171,.T.);
#1210 = ORIENTED_EDGE('',*,*,#954,.T.);
#1211 = ORIENTED_EDGE('',*,*,#1111,.F.);
#1212 = ORIENTED_EDGE('',*,*,#1213,.F.);
#1213 = EDGE_CURVE('',#1172,#1112,#1214,.T.);
#1214 = LINE('',#1215,#1216);
#1215 = CARTESIAN_POINT('',(-17.400001,-19.982381,-0.84));
#1216 = VECTOR('',#1217,1.);
#1217 = DIRECTION('',(2.449293598295E-16,1.,0.));
#1218 = PLANE('',#1219);
#1219 = AXIS2_PLACEMENT_3D('',#1220,#1221,#1222);
#1220 = CARTESIAN_POINT('',(-17.400001,-19.982381,-0.84));
#1221 = DIRECTION('',(-1.,2.449293598295E-16,0.));
#1222 = DIRECTION('',(2.449293598295E-16,1.,0.));
#1223 = ADVANCED_FACE('',(#1224),#1266,.T.);
#1224 = FACE_BOUND('',#1225,.T.);
#1225 = EDGE_LOOP('',(#1226,#1237,#1258,#1259));
#1226 = ORIENTED_EDGE('',*,*,#1227,.T.);
#1227 = EDGE_CURVE('',#1228,#1230,#1232,.T.);
#1228 = VERTEX_POINT('',#1229);
#1229 = CARTESIAN_POINT('',(-24.030001,-19.657381,6.86));
#1230 = VERTEX_POINT('',#1231);
#1231 = CARTESIAN_POINT('',(-20.355001,-17.09615570729,6.86));
#1232 = CIRCLE('',#1233,2.73);
#1233 = AXIS2_PLACEMENT_3D('',#1234,#1235,#1236);
#1234 = CARTESIAN_POINT('',(-21.300001,-19.657381,6.86));
#1235 = DIRECTION('',(0.,0.,-1.));
#1236 = DIRECTION('',(-1.,1.224646799147E-16,0.));
#1237 = ORIENTED_EDGE('',*,*,#1238,.F.);
#1238 = EDGE_CURVE('',#987,#1230,#1239,.T.);
#1239 = B_SPLINE_CURVE_WITH_KNOTS('',5,(#1240,#1241,#1242,#1243,#1244,
    #1245,#1246,#1247,#1248,#1249,#1250,#1251,#1252,#1253,#1254,#1255,
    #1256,#1257),.UNSPECIFIED.,.F.,.F.,(6,4,4,4,6),(0.,0.249577466955,
    0.497599275591,0.74730978514,1.),.UNSPECIFIED.);
#1240 = CARTESIAN_POINT('',(-20.355001,-16.65247251553,6.44));
#1241 = CARTESIAN_POINT('',(-20.355001,-16.65247251902,6.473228015972));
#1242 = CARTESIAN_POINT('',(-20.355001,-16.65591717805,6.506456730622));
#1243 = CARTESIAN_POINT('',(-20.355001,-16.66280688002,6.539237505919));
#1244 = CARTESIAN_POINT('',(-20.355001,-16.67304270371,6.571126992482));
#1245 = CARTESIAN_POINT('',(-20.355001,-16.69974983989,6.632127049006));
#1246 = CARTESIAN_POINT('',(-20.355001,-16.71618240013,6.661254840031));
#1247 = CARTESIAN_POINT('',(-20.355001,-16.7355531275,6.688710244247));
#1248 = CARTESIAN_POINT('',(-20.355001,-16.75759821498,6.714145479611));
#1249 = CARTESIAN_POINT('',(-20.355001,-16.80656584482,6.760572655349));
#1250 = CARTESIAN_POINT('',(-20.355001,-16.83352128092,6.78153380299));
#1251 = CARTESIAN_POINT('',(-20.355001,-16.86254034611,6.79987747649));
#1252 = CARTESIAN_POINT('',(-20.355001,-16.89324742834,6.815390822856));
#1253 = CARTESIAN_POINT('',(-20.355001,-16.95762346897,6.840632446489));
#1254 = CARTESIAN_POINT('',(-20.355001,-16.99132393425,6.850289667083));
#1255 = CARTESIAN_POINT('',(-20.355001,-17.02593372461,6.856766294835));
#1256 = CARTESIAN_POINT('',(-20.355001,-17.06102110797,6.859999996714));
#1257 = CARTESIAN_POINT('',(-20.355001,-17.09615570729,6.86));
#1258 = ORIENTED_EDGE('',*,*,#986,.F.);
#1259 = ORIENTED_EDGE('',*,*,#1260,.T.);
#1260 = EDGE_CURVE('',#979,#1228,#1261,.T.);
#1261 = CIRCLE('',#1262,0.42);
#1262 = AXIS2_PLACEMENT_3D('',#1263,#1264,#1265);
#1263 = CARTESIAN_POINT('',(-24.030001,-19.657381,6.44));
#1264 = DIRECTION('',(1.224646799147E-16,1.,-0.));
#1265 = DIRECTION('',(-1.,1.224646799147E-16,0.));
#1266 = TOROIDAL_SURFACE('',#1267,2.73,0.42);
#1267 = AXIS2_PLACEMENT_3D('',#1268,#1269,#1270);
#1268 = CARTESIAN_POINT('',(-21.300001,-19.657381,6.44));
#1269 = DIRECTION('',(0.,0.,1.));
#1270 = DIRECTION('',(-1.,1.224646799147E-16,0.));
#1271 = ADVANCED_FACE('',(#1272),#1307,.T.);
#1272 = FACE_BOUND('',#1273,.T.);
#1273 = EDGE_LOOP('',(#1274,#1283,#1304,#1305,#1306));
#1274 = ORIENTED_EDGE('',*,*,#1275,.T.);
#1275 = EDGE_CURVE('',#1230,#1276,#1278,.T.);
#1276 = VERTEX_POINT('',#1277);
#1277 = CARTESIAN_POINT('',(-20.355001,-22.2186062927,6.86));
#1278 = CIRCLE('',#1279,2.73);
#1279 = AXIS2_PLACEMENT_3D('',#1280,#1281,#1282);
#1280 = CARTESIAN_POINT('',(-21.300001,-19.657381,6.86));
#1281 = DIRECTION('',(0.,0.,-1.));
#1282 = DIRECTION('',(-1.,1.224646799147E-16,0.));
#1283 = ORIENTED_EDGE('',*,*,#1284,.F.);
#1284 = EDGE_CURVE('',#1005,#1276,#1285,.T.);
#1285 = B_SPLINE_CURVE_WITH_KNOTS('',5,(#1286,#1287,#1288,#1289,#1290,
    #1291,#1292,#1293,#1294,#1295,#1296,#1297,#1298,#1299,#1300,#1301,
    #1302,#1303),.UNSPECIFIED.,.F.,.F.,(6,4,4,4,6),(0.,0.249577466959,
    0.497599275595,0.747309785144,1.),.UNSPECIFIED.);
#1286 = CARTESIAN_POINT('',(-20.355001,-22.66228948446,6.44));
#1287 = CARTESIAN_POINT('',(-20.355001,-22.66228948098,6.473228015972));
#1288 = CARTESIAN_POINT('',(-20.355001,-22.65884482194,6.506456730623));
#1289 = CARTESIAN_POINT('',(-20.355001,-22.65195511997,6.53923750592));
#1290 = CARTESIAN_POINT('',(-20.355001,-22.64171929628,6.571126992484));
#1291 = CARTESIAN_POINT('',(-20.355001,-22.6150121601,6.632127049008));
#1292 = CARTESIAN_POINT('',(-20.355001,-22.59857959986,6.661254840033));
#1293 = CARTESIAN_POINT('',(-20.355001,-22.57920887248,6.688710244249));
#1294 = CARTESIAN_POINT('',(-20.355001,-22.55716378501,6.714145479613));
#1295 = CARTESIAN_POINT('',(-20.355001,-22.50819615517,6.760572655351));
#1296 = CARTESIAN_POINT('',(-20.355001,-22.48124071907,6.781533802992));
#1297 = CARTESIAN_POINT('',(-20.355001,-22.45222165388,6.799877476491));
#1298 = CARTESIAN_POINT('',(-20.355001,-22.42151457165,6.815390822857));
#1299 = CARTESIAN_POINT('',(-20.355001,-22.35713853102,6.840632446489));
#1300 = CARTESIAN_POINT('',(-20.355001,-22.32343806574,6.850289667083));
#1301 = CARTESIAN_POINT('',(-20.355001,-22.28882827538,6.856766294835));
#1302 = CARTESIAN_POINT('',(-20.355001,-22.25374089202,6.859999996714));
#1303 = CARTESIAN_POINT('',(-20.355001,-22.2186062927,6.86));
#1304 = ORIENTED_EDGE('',*,*,#1004,.F.);
#1305 = ORIENTED_EDGE('',*,*,#995,.F.);
#1306 = ORIENTED_EDGE('',*,*,#1238,.T.);
#1307 = TOROIDAL_SURFACE('',#1308,2.73,0.42);
#1308 = AXIS2_PLACEMENT_3D('',#1309,#1310,#1311);
#1309 = CARTESIAN_POINT('',(-21.300001,-19.657381,6.44));
#1310 = DIRECTION('',(0.,0.,1.));
#1311 = DIRECTION('',(-1.,1.224646799147E-16,0.));
#1312 = ADVANCED_FACE('',(#1313),#1325,.T.);
#1313 = FACE_BOUND('',#1314,.T.);
#1314 = EDGE_LOOP('',(#1315,#1316,#1323,#1324));
#1315 = ORIENTED_EDGE('',*,*,#1284,.T.);
#1316 = ORIENTED_EDGE('',*,*,#1317,.T.);
#1317 = EDGE_CURVE('',#1276,#1228,#1318,.T.);
#1318 = CIRCLE('',#1319,2.73);
#1319 = AXIS2_PLACEMENT_3D('',#1320,#1321,#1322);
#1320 = CARTESIAN_POINT('',(-21.300001,-19.657381,6.86));
#1321 = DIRECTION('',(0.,0.,-1.));
#1322 = DIRECTION('',(-1.,1.224646799147E-16,0.));
#1323 = ORIENTED_EDGE('',*,*,#1260,.F.);
#1324 = ORIENTED_EDGE('',*,*,#1013,.F.);
#1325 = TOROIDAL_SURFACE('',#1326,2.73,0.42);
#1326 = AXIS2_PLACEMENT_3D('',#1327,#1328,#1329);
#1327 = CARTESIAN_POINT('',(-21.300001,-19.657381,6.44));
#1328 = DIRECTION('',(0.,0.,1.));
#1329 = DIRECTION('',(-1.,1.224646799147E-16,0.));
#1330 = ADVANCED_FACE('',(#1331),#1337,.F.);
#1331 = FACE_BOUND('',#1332,.F.);
#1332 = EDGE_LOOP('',(#1333,#1334,#1335,#1336));
#1333 = ORIENTED_EDGE('',*,*,#1196,.T.);
#1334 = ORIENTED_EDGE('',*,*,#1047,.T.);
#1335 = ORIENTED_EDGE('',*,*,#1061,.T.);
#1336 = ORIENTED_EDGE('',*,*,#1097,.T.);
#1337 = PLANE('',#1338);
#1338 = AXIS2_PLACEMENT_3D('',#1339,#1340,#1341);
#1339 = CARTESIAN_POINT('',(-23.77395112666,-19.657381,-0.84));
#1340 = DIRECTION('',(0.,0.,1.));
#1341 = DIRECTION('',(-1.,1.224646799147E-16,0.));
#1342 = ADVANCED_FACE('',(#1343),#1349,.F.);
#1343 = FACE_BOUND('',#1344,.F.);
#1344 = EDGE_LOOP('',(#1345,#1346,#1347,#1348));
#1345 = ORIENTED_EDGE('',*,*,#1213,.T.);
#1346 = ORIENTED_EDGE('',*,*,#1129,.T.);
#1347 = ORIENTED_EDGE('',*,*,#1143,.T.);
#1348 = ORIENTED_EDGE('',*,*,#1179,.T.);
#1349 = PLANE('',#1350);
#1350 = AXIS2_PLACEMENT_3D('',#1351,#1352,#1353);
#1351 = CARTESIAN_POINT('',(-18.82605087334,-19.657381,-0.84));
#1352 = DIRECTION('',(0.,0.,1.));
#1353 = DIRECTION('',(1.,-2.449293598295E-16,0.));
#1354 = ADVANCED_FACE('',(#1355),#1365,.F.);
#1355 = FACE_BOUND('',#1356,.F.);
#1356 = EDGE_LOOP('',(#1357,#1358,#1359));
#1357 = ORIENTED_EDGE('',*,*,#1317,.T.);
#1358 = ORIENTED_EDGE('',*,*,#1227,.T.);
#1359 = ORIENTED_EDGE('',*,*,#1360,.T.);
#1360 = EDGE_CURVE('',#1230,#1276,#1361,.T.);
#1361 = LINE('',#1362,#1363);
#1362 = CARTESIAN_POINT('',(-20.355001,-16.507381,6.86));
#1363 = VECTOR('',#1364,1.);
#1364 = DIRECTION('',(-1.224646799147E-16,-1.,0.));
#1365 = PLANE('',#1366);
#1366 = AXIS2_PLACEMENT_3D('',#1367,#1368,#1369);
#1367 = CARTESIAN_POINT('',(-21.300001,-19.657381,6.86));
#1368 = DIRECTION('',(0.,0.,-1.));
#1369 = DIRECTION('',(-1.,1.224646799147E-16,0.));
#1370 = ADVANCED_FACE('',(#1371),#1375,.T.);
#1371 = FACE_BOUND('',#1372,.T.);
#1372 = EDGE_LOOP('',(#1373,#1374));
#1373 = ORIENTED_EDGE('',*,*,#1275,.F.);
#1374 = ORIENTED_EDGE('',*,*,#1360,.T.);
#1375 = PLANE('',#1376);
#1376 = AXIS2_PLACEMENT_3D('',#1377,#1378,#1379);
#1377 = CARTESIAN_POINT('',(-18.150001,-16.507381,6.86));
#1378 = DIRECTION('',(0.,0.,1.));
#1379 = DIRECTION('',(-1.,1.224646799147E-16,0.));
#1380 = ( GEOMETRIC_REPRESENTATION_CONTEXT(3) 
GLOBAL_UNCERTAINTY_ASSIGNED_CONTEXT((#1384)) 
GLOBAL_UNIT_ASSIGNED_CONTEXT((#1381,#1382,#1383)) REPRESENTATION_CONTEXT
('Context #1','3D Context with UNIT and UNCERTAINTY') );
#1381 = ( LENGTH_UNIT() NAMED_UNIT(*) SI_UNIT(.MILLI.,.METRE.) );
#1382 = ( NAMED_UNIT(*) PLANE_ANGLE_UNIT() SI_UNIT($,.RADIAN.) );
#1383 = ( NAMED_UNIT(*) SI_UNIT($,.STERADIAN.) SOLID_ANGLE_UNIT() );
#1384 = UNCERTAINTY_MEASURE_WITH_UNIT(LENGTH_MEASURE(1.E-06),#1381,
  'distance_accuracy_value','confusion accuracy');
#1385 = PRODUCT_RELATED_PRODUCT_CATEGORY('part',$,(#7));
ENDSEC;
END-ISO-10303-21;
