0
SECTION
2
HEADER
9
$ACADVER
1
AC1009
9
$INSUNITS
70
4
9
$LTSCALE
40
1.0
9
$EXTMIN
10
0.0000
20
0.0000
30
0.0
9
$EXTMAX
10
841.0000
20
594.0000
30
0.0
0
ENDSEC
0
SECTION
2
TABLES
0
TABLE
2
LTYPE
70
4
0
LTYPE
2
CONTINUOUS
70
0
3
Solid line
72
65
73
0
40
0.0000
0
LTYPE
2
HIDDEN
70
0
3
Hidden __ __ __ __
72
65
73
2
40
3.6000
49
2.4000
49
-1.2000
0
LTYPE
2
CENTER
70
0
3
Center ____ _ ____ _
72
65
73
4
40
11.2000
49
7.0000
49
-1.4000
49
1.4000
49
-1.4000
0
LTYPE
2
PHANTOM
70
0
3
Phantom ____ _ _ ____
72
65
73
6
40
21.0000
49
11.0000
49
-2.0000
49
2.0000
49
-2.0000
49
2.0000
49
-2.0000
0
ENDTAB
0
TABLE
2
LAYER
70
12
0
LAYER
2
0
70
0
62
7
6
CONTINUOUS
0
LAYER
2
VISIBLE
70
0
62
7
6
CONTINUOUS
0
LAYER
2
SECTION
70
0
62
7
6
CONTINUOUS
0
LAYER
2
HIDDEN
70
0
62
8
6
HIDDEN
0
LAYER
2
CENTER
70
0
62
4
6
CENTER
0
LAYER
2
DIM
70
0
62
3
6
CONTINUOUS
0
LAYER
2
TEXT
70
0
62
3
6
CONTINUOUS
0
LAYER
2
HATCH
70
0
62
5
6
CONTINUOUS
0
LAYER
2
CUT
70
0
62
1
6
PHANTOM
0
LAYER
2
CUTTHIN
70
0
62
1
6
PHANTOM
0
LAYER
2
FRAME
70
0
62
7
6
CONTINUOUS
0
LAYER
2
TITLE
70
0
62
7
6
CONTINUOUS
0
ENDTAB
0
ENDSEC
0
SECTION
2
ENTITIES
0
LINE
8
TITLE
10
5.000000
20
5.000000
30
0.0
11
836.000000
21
5.000000
31
0.0
0
LINE
8
TITLE
10
836.000000
20
5.000000
30
0.0
11
836.000000
21
589.000000
31
0.0
0
LINE
8
TITLE
10
836.000000
20
589.000000
30
0.0
11
5.000000
21
589.000000
31
0.0
0
LINE
8
TITLE
10
5.000000
20
589.000000
30
0.0
11
5.000000
21
5.000000
31
0.0
0
LINE
8
FRAME
10
10.000000
20
10.000000
30
0.0
11
831.000000
21
10.000000
31
0.0
0
LINE
8
FRAME
10
831.000000
20
10.000000
30
0.0
11
831.000000
21
584.000000
31
0.0
0
LINE
8
FRAME
10
831.000000
20
584.000000
30
0.0
11
10.000000
21
584.000000
31
0.0
0
LINE
8
FRAME
10
10.000000
20
584.000000
30
0.0
11
10.000000
21
10.000000
31
0.0
0
TEXT
8
TITLE
10
61.312500
20
586.500000
30
0.0
40
2.4000
1
1
72
1
73
2
11
61.312500
21
586.500000
31
0.0
0
TEXT
8
TITLE
10
61.312500
20
7.500000
30
0.0
40
2.4000
1
1
72
1
73
2
11
61.312500
21
7.500000
31
0.0
0
TEXT
8
TITLE
10
163.937500
20
586.500000
30
0.0
40
2.4000
1
2
72
1
73
2
11
163.937500
21
586.500000
31
0.0
0
TEXT
8
TITLE
10
163.937500
20
7.500000
30
0.0
40
2.4000
1
2
72
1
73
2
11
163.937500
21
7.500000
31
0.0
0
LINE
8
TITLE
10
112.625000
20
5.000000
30
0.0
11
112.625000
21
10.000000
31
0.0
0
LINE
8
TITLE
10
112.625000
20
584.000000
30
0.0
11
112.625000
21
589.000000
31
0.0
0
TEXT
8
TITLE
10
266.562500
20
586.500000
30
0.0
40
2.4000
1
3
72
1
73
2
11
266.562500
21
586.500000
31
0.0
0
TEXT
8
TITLE
10
266.562500
20
7.500000
30
0.0
40
2.4000
1
3
72
1
73
2
11
266.562500
21
7.500000
31
0.0
0
LINE
8
TITLE
10
215.250000
20
5.000000
30
0.0
11
215.250000
21
10.000000
31
0.0
0
LINE
8
TITLE
10
215.250000
20
584.000000
30
0.0
11
215.250000
21
589.000000
31
0.0
0
TEXT
8
TITLE
10
369.187500
20
586.500000
30
0.0
40
2.4000
1
4
72
1
73
2
11
369.187500
21
586.500000
31
0.0
0
TEXT
8
TITLE
10
369.187500
20
7.500000
30
0.0
40
2.4000
1
4
72
1
73
2
11
369.187500
21
7.500000
31
0.0
0
LINE
8
TITLE
10
317.875000
20
5.000000
30
0.0
11
317.875000
21
10.000000
31
0.0
0
LINE
8
TITLE
10
317.875000
20
584.000000
30
0.0
11
317.875000
21
589.000000
31
0.0
0
TEXT
8
TITLE
10
471.812500
20
586.500000
30
0.0
40
2.4000
1
5
72
1
73
2
11
471.812500
21
586.500000
31
0.0
0
TEXT
8
TITLE
10
471.812500
20
7.500000
30
0.0
40
2.4000
1
5
72
1
73
2
11
471.812500
21
7.500000
31
0.0
0
LINE
8
TITLE
10
420.500000
20
5.000000
30
0.0
11
420.500000
21
10.000000
31
0.0
0
LINE
8
TITLE
10
420.500000
20
584.000000
30
0.0
11
420.500000
21
589.000000
31
0.0
0
TEXT
8
TITLE
10
574.437500
20
586.500000
30
0.0
40
2.4000
1
6
72
1
73
2
11
574.437500
21
586.500000
31
0.0
0
TEXT
8
TITLE
10
574.437500
20
7.500000
30
0.0
40
2.4000
1
6
72
1
73
2
11
574.437500
21
7.500000
31
0.0
0
LINE
8
TITLE
10
523.125000
20
5.000000
30
0.0
11
523.125000
21
10.000000
31
0.0
0
LINE
8
TITLE
10
523.125000
20
584.000000
30
0.0
11
523.125000
21
589.000000
31
0.0
0
TEXT
8
TITLE
10
677.062500
20
586.500000
30
0.0
40
2.4000
1
7
72
1
73
2
11
677.062500
21
586.500000
31
0.0
0
TEXT
8
TITLE
10
677.062500
20
7.500000
30
0.0
40
2.4000
1
7
72
1
73
2
11
677.062500
21
7.500000
31
0.0
0
LINE
8
TITLE
10
625.750000
20
5.000000
30
0.0
11
625.750000
21
10.000000
31
0.0
0
LINE
8
TITLE
10
625.750000
20
584.000000
30
0.0
11
625.750000
21
589.000000
31
0.0
0
TEXT
8
TITLE
10
779.687500
20
586.500000
30
0.0
40
2.4000
1
8
72
1
73
2
11
779.687500
21
586.500000
31
0.0
0
TEXT
8
TITLE
10
779.687500
20
7.500000
30
0.0
40
2.4000
1
8
72
1
73
2
11
779.687500
21
7.500000
31
0.0
0
LINE
8
TITLE
10
728.375000
20
5.000000
30
0.0
11
728.375000
21
10.000000
31
0.0
0
LINE
8
TITLE
10
728.375000
20
584.000000
30
0.0
11
728.375000
21
589.000000
31
0.0
0
TEXT
8
TITLE
10
7.500000
20
67.400000
30
0.0
40
2.4000
1
E
72
1
73
2
11
7.500000
21
67.400000
31
0.0
0
TEXT
8
TITLE
10
833.500000
20
67.400000
30
0.0
40
2.4000
1
E
72
1
73
2
11
833.500000
21
67.400000
31
0.0
0
TEXT
8
TITLE
10
7.500000
20
182.200000
30
0.0
40
2.4000
1
D
72
1
73
2
11
7.500000
21
182.200000
31
0.0
0
TEXT
8
TITLE
10
833.500000
20
182.200000
30
0.0
40
2.4000
1
D
72
1
73
2
11
833.500000
21
182.200000
31
0.0
0
LINE
8
TITLE
10
5.000000
20
124.800000
30
0.0
11
10.000000
21
124.800000
31
0.0
0
LINE
8
TITLE
10
831.000000
20
124.800000
30
0.0
11
836.000000
21
124.800000
31
0.0
0
TEXT
8
TITLE
10
7.500000
20
297.000000
30
0.0
40
2.4000
1
C
72
1
73
2
11
7.500000
21
297.000000
31
0.0
0
TEXT
8
TITLE
10
833.500000
20
297.000000
30
0.0
40
2.4000
1
C
72
1
73
2
11
833.500000
21
297.000000
31
0.0
0
LINE
8
TITLE
10
5.000000
20
239.600000
30
0.0
11
10.000000
21
239.600000
31
0.0
0
LINE
8
TITLE
10
831.000000
20
239.600000
30
0.0
11
836.000000
21
239.600000
31
0.0
0
TEXT
8
TITLE
10
7.500000
20
411.800000
30
0.0
40
2.4000
1
B
72
1
73
2
11
7.500000
21
411.800000
31
0.0
0
TEXT
8
TITLE
10
833.500000
20
411.800000
30
0.0
40
2.4000
1
B
72
1
73
2
11
833.500000
21
411.800000
31
0.0
0
LINE
8
TITLE
10
5.000000
20
354.400000
30
0.0
11
10.000000
21
354.400000
31
0.0
0
LINE
8
TITLE
10
831.000000
20
354.400000
30
0.0
11
836.000000
21
354.400000
31
0.0
0
TEXT
8
TITLE
10
7.500000
20
526.600000
30
0.0
40
2.4000
1
A
72
1
73
2
11
7.500000
21
526.600000
31
0.0
0
TEXT
8
TITLE
10
833.500000
20
526.600000
30
0.0
40
2.4000
1
A
72
1
73
2
11
833.500000
21
526.600000
31
0.0
0
LINE
8
TITLE
10
5.000000
20
469.200000
30
0.0
11
10.000000
21
469.200000
31
0.0
0
LINE
8
TITLE
10
831.000000
20
469.200000
30
0.0
11
836.000000
21
469.200000
31
0.0
0
LINE
8
VISIBLE
10
157.500000
20
450.500000
30
0.0
11
152.622742
21
450.019632
31
0.0
0
LINE
8
VISIBLE
10
337.500000
20
450.500000
30
0.0
11
157.500000
21
450.500000
31
0.0
0
LINE
8
VISIBLE
10
152.622742
20
450.019632
30
0.0
11
147.932914
21
448.596988
31
0.0
0
LINE
8
VISIBLE
10
342.377258
20
450.019632
30
0.0
11
337.500000
21
450.500000
31
0.0
0
LINE
8
VISIBLE
10
147.932914
20
448.596988
30
0.0
11
143.610744
21
446.286740
31
0.0
0
LINE
8
VISIBLE
10
347.067086
20
448.596988
30
0.0
11
342.377258
21
450.019632
31
0.0
0
LINE
8
VISIBLE
10
143.610744
20
446.286740
30
0.0
11
139.822330
21
443.177670
31
0.0
0
LINE
8
VISIBLE
10
351.389256
20
446.286740
30
0.0
11
347.067086
21
448.596988
31
0.0
0
LINE
8
VISIBLE
10
139.822330
20
443.177670
30
0.0
11
136.713260
21
439.389256
31
0.0
0
LINE
8
VISIBLE
10
355.177670
20
443.177670
30
0.0
11
351.389256
21
446.286740
31
0.0
0
LINE
8
VISIBLE
10
136.713260
20
439.389256
30
0.0
11
134.403012
21
435.067086
31
0.0
0
LINE
8
VISIBLE
10
358.286740
20
439.389256
30
0.0
11
355.177670
21
443.177670
31
0.0
0
LINE
8
VISIBLE
10
134.403012
20
435.067086
30
0.0
11
132.980368
21
430.377258
31
0.0
0
LINE
8
VISIBLE
10
360.596988
20
435.067086
30
0.0
11
358.286740
21
439.389256
31
0.0
0
LINE
8
VISIBLE
10
132.980368
20
430.377258
30
0.0
11
132.500000
21
425.500000
31
0.0
0
LINE
8
VISIBLE
10
362.019632
20
430.377258
30
0.0
11
360.596988
21
435.067086
31
0.0
0
LINE
8
VISIBLE
10
132.500000
20
425.500000
30
0.0
11
132.500000
21
75.500000
31
0.0
0
LINE
8
VISIBLE
10
362.500000
20
425.500000
30
0.0
11
362.019632
21
430.377258
31
0.0
0
LINE
8
VISIBLE
10
132.500000
20
75.500000
30
0.0
11
132.980368
21
70.622742
31
0.0
0
LINE
8
VISIBLE
10
362.500000
20
75.500000
30
0.0
11
362.500000
21
425.500000
31
0.0
0
LINE
8
VISIBLE
10
132.980368
20
70.622742
30
0.0
11
134.403012
21
65.932914
31
0.0
0
LINE
8
VISIBLE
10
362.019632
20
70.622742
30
0.0
11
362.500000
21
75.500000
31
0.0
0
LINE
8
VISIBLE
10
134.403012
20
65.932914
30
0.0
11
136.713260
21
61.610744
31
0.0
0
LINE
8
VISIBLE
10
360.596988
20
65.932914
30
0.0
11
362.019632
21
70.622742
31
0.0
0
LINE
8
VISIBLE
10
136.713260
20
61.610744
30
0.0
11
139.822330
21
57.822330
31
0.0
0
LINE
8
VISIBLE
10
358.286740
20
61.610744
30
0.0
11
360.596988
21
65.932914
31
0.0
0
LINE
8
VISIBLE
10
139.822330
20
57.822330
30
0.0
11
143.610744
21
54.713260
31
0.0
0
LINE
8
VISIBLE
10
355.177670
20
57.822330
30
0.0
11
358.286740
21
61.610744
31
0.0
0
LINE
8
VISIBLE
10
143.610744
20
54.713260
30
0.0
11
147.932914
21
52.403012
31
0.0
0
LINE
8
VISIBLE
10
351.389256
20
54.713260
30
0.0
11
355.177670
21
57.822330
31
0.0
0
LINE
8
VISIBLE
10
147.932914
20
52.403012
30
0.0
11
152.622742
21
50.980368
31
0.0
0
LINE
8
VISIBLE
10
347.067086
20
52.403012
30
0.0
11
351.389256
21
54.713260
31
0.0
0
LINE
8
VISIBLE
10
152.622742
20
50.980368
30
0.0
11
157.500000
21
50.500000
31
0.0
0
LINE
8
VISIBLE
10
342.377258
20
50.980368
30
0.0
11
347.067086
21
52.403012
31
0.0
0
LINE
8
VISIBLE
10
157.500000
20
50.500000
30
0.0
11
337.500000
21
50.500000
31
0.0
0
LINE
8
VISIBLE
10
337.500000
20
50.500000
30
0.0
11
342.377258
21
50.980368
31
0.0
0
CIRCLE
8
VISIBLE
10
327.500000
20
70.500000
30
0.0
40
11.000000
0
CIRCLE
8
VISIBLE
10
337.500000
20
420.500000
30
0.0
40
11.000000
0
CIRCLE
8
VISIBLE
10
247.500000
20
295.500000
30
0.0
40
95.000000
0
CIRCLE
8
VISIBLE
10
167.500000
20
70.500000
30
0.0
40
11.000000
0
CIRCLE
8
VISIBLE
10
157.500000
20
420.500000
30
0.0
40
11.000000
0
CIRCLE
8
HIDDEN
10
327.500000
20
370.500000
30
0.0
40
8.995025
0
CIRCLE
8
HIDDEN
10
167.500000
20
370.500000
30
0.0
40
8.995025
0
CIRCLE
8
HIDDEN
10
327.500000
20
370.500000
30
0.0
40
8.000000
0
CIRCLE
8
HIDDEN
10
167.500000
20
370.500000
30
0.0
40
8.000000
0
LINE
8
HIDDEN
10
327.500000
20
379.495025
30
0.0
11
327.500000
21
378.500000
31
0.0
0
LINE
8
HIDDEN
10
167.500000
20
379.495025
30
0.0
11
167.500000
21
378.500000
31
0.0
0
LINE
8
VISIBLE
10
362.500000
20
513.500000
30
0.0
11
362.019632
21
513.500000
31
0.0
0
LINE
8
VISIBLE
10
362.019632
20
513.500000
30
0.0
11
360.596988
21
513.500000
31
0.0
0
LINE
8
VISIBLE
10
132.980368
20
513.500000
30
0.0
11
132.500000
21
513.500000
31
0.0
0
LINE
8
VISIBLE
10
360.596988
20
513.500000
30
0.0
11
358.286740
21
513.500000
31
0.0
0
LINE
8
VISIBLE
10
134.403012
20
513.500000
30
0.0
11
132.980368
21
513.500000
31
0.0
0
LINE
8
VISIBLE
10
358.286740
20
513.500000
30
0.0
11
355.177670
21
513.500000
31
0.0
0
LINE
8
VISIBLE
10
136.713260
20
513.500000
30
0.0
11
134.403012
21
513.500000
31
0.0
0
LINE
8
VISIBLE
10
355.177670
20
513.500000
30
0.0
11
351.389256
21
513.500000
31
0.0
0
LINE
8
VISIBLE
10
139.822330
20
513.500000
30
0.0
11
136.713260
21
513.500000
31
0.0
0
LINE
8
VISIBLE
10
351.389256
20
513.500000
30
0.0
11
347.067086
21
513.500000
31
0.0
0
LINE
8
VISIBLE
10
143.610744
20
513.500000
30
0.0
11
139.822330
21
513.500000
31
0.0
0
LINE
8
VISIBLE
10
347.067086
20
513.500000
30
0.0
11
342.377258
21
513.500000
31
0.0
0
LINE
8
VISIBLE
10
147.932914
20
513.500000
30
0.0
11
143.610744
21
513.500000
31
0.0
0
LINE
8
VISIBLE
10
342.377258
20
513.500000
30
0.0
11
337.500000
21
513.500000
31
0.0
0
LINE
8
VISIBLE
10
152.622742
20
513.500000
30
0.0
11
147.932914
21
513.500000
31
0.0
0
LINE
8
VISIBLE
10
337.500000
20
513.500000
30
0.0
11
157.500000
21
513.500000
31
0.0
0
LINE
8
VISIBLE
10
157.500000
20
513.500000
30
0.0
11
152.622742
21
513.500000
31
0.0
0
LINE
8
VISIBLE
10
362.500000
20
523.500000
30
0.0
11
362.019632
21
523.500000
31
0.0
0
LINE
8
VISIBLE
10
362.019632
20
523.500000
30
0.0
11
360.596988
21
523.500000
31
0.0
0
LINE
8
VISIBLE
10
132.980368
20
523.500000
30
0.0
11
132.500000
21
523.500000
31
0.0
0
LINE
8
VISIBLE
10
360.596988
20
523.500000
30
0.0
11
358.286740
21
523.500000
31
0.0
0
LINE
8
VISIBLE
10
134.403012
20
523.500000
30
0.0
11
132.980368
21
523.500000
31
0.0
0
LINE
8
VISIBLE
10
358.286740
20
523.500000
30
0.0
11
355.177670
21
523.500000
31
0.0
0
LINE
8
VISIBLE
10
136.713260
20
523.500000
30
0.0
11
134.403012
21
523.500000
31
0.0
0
LINE
8
VISIBLE
10
355.177670
20
523.500000
30
0.0
11
351.389256
21
523.500000
31
0.0
0
LINE
8
VISIBLE
10
139.822330
20
523.500000
30
0.0
11
136.713260
21
523.500000
31
0.0
0
LINE
8
VISIBLE
10
351.389256
20
523.500000
30
0.0
11
347.067086
21
523.500000
31
0.0
0
LINE
8
VISIBLE
10
143.610744
20
523.500000
30
0.0
11
139.822330
21
523.500000
31
0.0
0
LINE
8
VISIBLE
10
347.067086
20
523.500000
30
0.0
11
342.377258
21
523.500000
31
0.0
0
LINE
8
VISIBLE
10
147.932914
20
523.500000
30
0.0
11
143.610744
21
523.500000
31
0.0
0
LINE
8
VISIBLE
10
342.377258
20
523.500000
30
0.0
11
337.500000
21
523.500000
31
0.0
0
LINE
8
VISIBLE
10
152.622742
20
523.500000
30
0.0
11
147.932914
21
523.500000
31
0.0
0
LINE
8
VISIBLE
10
337.500000
20
523.500000
30
0.0
11
157.500000
21
523.500000
31
0.0
0
LINE
8
VISIBLE
10
157.500000
20
523.500000
30
0.0
11
152.622742
21
523.500000
31
0.0
0
LINE
8
VISIBLE
10
362.500000
20
513.500000
30
0.0
11
362.500000
21
523.500000
31
0.0
0
LINE
8
VISIBLE
10
362.019632
20
513.500000
30
0.0
11
362.019632
21
523.500000
31
0.0
0
LINE
8
VISIBLE
10
132.500000
20
513.500000
30
0.0
11
132.500000
21
523.500000
31
0.0
0
LINE
8
VISIBLE
10
360.596988
20
513.500000
30
0.0
11
360.596988
21
523.500000
31
0.0
0
LINE
8
VISIBLE
10
132.980368
20
513.500000
30
0.0
11
132.980368
21
523.500000
31
0.0
0
LINE
8
VISIBLE
10
358.286740
20
513.500000
30
0.0
11
358.286740
21
523.500000
31
0.0
0
LINE
8
VISIBLE
10
134.403012
20
513.500000
30
0.0
11
134.403012
21
523.500000
31
0.0
0
LINE
8
VISIBLE
10
355.177670
20
513.500000
30
0.0
11
355.177670
21
523.500000
31
0.0
0
LINE
8
VISIBLE
10
136.713260
20
513.500000
30
0.0
11
136.713260
21
523.500000
31
0.0
0
LINE
8
VISIBLE
10
351.389256
20
513.500000
30
0.0
11
351.389256
21
523.500000
31
0.0
0
LINE
8
VISIBLE
10
139.822330
20
513.500000
30
0.0
11
139.822330
21
523.500000
31
0.0
0
LINE
8
VISIBLE
10
347.067086
20
513.500000
30
0.0
11
347.067086
21
523.500000
31
0.0
0
LINE
8
VISIBLE
10
143.610744
20
513.500000
30
0.0
11
143.610744
21
523.500000
31
0.0
0
LINE
8
VISIBLE
10
342.377258
20
513.500000
30
0.0
11
342.377258
21
523.500000
31
0.0
0
LINE
8
VISIBLE
10
147.932914
20
513.500000
30
0.0
11
147.932914
21
523.500000
31
0.0
0
LINE
8
VISIBLE
10
337.500000
20
513.500000
30
0.0
11
337.500000
21
523.500000
31
0.0
0
LINE
8
VISIBLE
10
152.622742
20
513.500000
30
0.0
11
152.622742
21
523.500000
31
0.0
0
LINE
8
VISIBLE
10
157.500000
20
513.500000
30
0.0
11
157.500000
21
523.500000
31
0.0
0
LINE
8
VISIBLE
10
175.500000
20
543.500000
30
0.0
11
159.500000
21
543.500000
31
0.0
0
LINE
8
VISIBLE
10
335.500000
20
543.500000
30
0.0
11
319.500000
21
543.500000
31
0.0
0
LINE
8
VISIBLE
10
159.500000
20
543.500000
30
0.0
11
158.504975
21
523.500000
31
0.0
0
LINE
8
VISIBLE
10
175.500000
20
543.500000
30
0.0
11
176.495025
21
523.500000
31
0.0
0
LINE
8
VISIBLE
10
319.500000
20
543.500000
30
0.0
11
318.504975
21
523.500000
31
0.0
0
LINE
8
VISIBLE
10
335.500000
20
543.500000
30
0.0
11
336.495025
21
523.500000
31
0.0
0
LINE
8
HIDDEN
10
167.500000
20
513.500000
30
0.0
11
178.500000
21
513.500000
31
0.0
0
LINE
8
HIDDEN
10
178.500000
20
513.500000
30
0.0
11
156.500000
21
513.500000
31
0.0
0
LINE
8
HIDDEN
10
156.500000
20
513.500000
30
0.0
11
167.500000
21
513.500000
31
0.0
0
LINE
8
HIDDEN
10
157.500000
20
513.500000
30
0.0
11
168.500000
21
513.500000
31
0.0
0
LINE
8
HIDDEN
10
168.500000
20
513.500000
30
0.0
11
146.500000
21
513.500000
31
0.0
0
LINE
8
HIDDEN
10
146.500000
20
513.500000
30
0.0
11
157.500000
21
513.500000
31
0.0
0
LINE
8
HIDDEN
10
247.500000
20
513.500000
30
0.0
11
342.500000
21
513.500000
31
0.0
0
LINE
8
HIDDEN
10
342.500000
20
513.500000
30
0.0
11
152.500000
21
513.500000
31
0.0
0
LINE
8
HIDDEN
10
152.500000
20
513.500000
30
0.0
11
247.500000
21
513.500000
31
0.0
0
LINE
8
HIDDEN
10
327.500000
20
513.500000
30
0.0
11
338.500000
21
513.500000
31
0.0
0
LINE
8
HIDDEN
10
338.500000
20
513.500000
30
0.0
11
316.500000
21
513.500000
31
0.0
0
LINE
8
HIDDEN
10
316.500000
20
513.500000
30
0.0
11
327.500000
21
513.500000
31
0.0
0
LINE
8
HIDDEN
10
337.500000
20
513.500000
30
0.0
11
348.500000
21
513.500000
31
0.0
0
LINE
8
HIDDEN
10
348.500000
20
513.500000
30
0.0
11
326.500000
21
513.500000
31
0.0
0
LINE
8
HIDDEN
10
326.500000
20
513.500000
30
0.0
11
337.500000
21
513.500000
31
0.0
0
LINE
8
HIDDEN
10
167.500000
20
523.500000
30
0.0
11
178.500000
21
523.500000
31
0.0
0
LINE
8
HIDDEN
10
178.500000
20
523.500000
30
0.0
11
156.500000
21
523.500000
31
0.0
0
LINE
8
HIDDEN
10
156.500000
20
523.500000
30
0.0
11
167.500000
21
523.500000
31
0.0
0
LINE
8
HIDDEN
10
167.500000
20
523.500000
30
0.0
11
176.495025
21
523.500000
31
0.0
0
LINE
8
HIDDEN
10
176.495025
20
523.500000
30
0.0
11
158.504975
21
523.500000
31
0.0
0
LINE
8
HIDDEN
10
158.504975
20
523.500000
30
0.0
11
167.500000
21
523.500000
31
0.0
0
LINE
8
HIDDEN
10
157.500000
20
523.500000
30
0.0
11
168.500000
21
523.500000
31
0.0
0
LINE
8
HIDDEN
10
168.500000
20
523.500000
30
0.0
11
146.500000
21
523.500000
31
0.0
0
LINE
8
HIDDEN
10
146.500000
20
523.500000
30
0.0
11
157.500000
21
523.500000
31
0.0
0
LINE
8
HIDDEN
10
247.500000
20
523.500000
30
0.0
11
342.500000
21
523.500000
31
0.0
0
LINE
8
HIDDEN
10
342.500000
20
523.500000
30
0.0
11
152.500000
21
523.500000
31
0.0
0
LINE
8
HIDDEN
10
152.500000
20
523.500000
30
0.0
11
247.500000
21
523.500000
31
0.0
0
LINE
8
HIDDEN
10
327.500000
20
523.500000
30
0.0
11
338.500000
21
523.500000
31
0.0
0
LINE
8
HIDDEN
10
338.500000
20
523.500000
30
0.0
11
316.500000
21
523.500000
31
0.0
0
LINE
8
HIDDEN
10
316.500000
20
523.500000
30
0.0
11
327.500000
21
523.500000
31
0.0
0
LINE
8
HIDDEN
10
327.500000
20
523.500000
30
0.0
11
336.495025
21
523.500000
31
0.0
0
LINE
8
HIDDEN
10
336.495025
20
523.500000
30
0.0
11
318.504975
21
523.500000
31
0.0
0
LINE
8
HIDDEN
10
318.504975
20
523.500000
30
0.0
11
327.500000
21
523.500000
31
0.0
0
LINE
8
HIDDEN
10
337.500000
20
523.500000
30
0.0
11
348.500000
21
523.500000
31
0.0
0
LINE
8
HIDDEN
10
348.500000
20
523.500000
30
0.0
11
326.500000
21
523.500000
31
0.0
0
LINE
8
HIDDEN
10
326.500000
20
523.500000
30
0.0
11
337.500000
21
523.500000
31
0.0
0
LINE
8
HIDDEN
10
167.500000
20
543.500000
30
0.0
11
175.500000
21
543.500000
31
0.0
0
LINE
8
HIDDEN
10
159.500000
20
543.500000
30
0.0
11
167.500000
21
543.500000
31
0.0
0
LINE
8
HIDDEN
10
327.500000
20
543.500000
30
0.0
11
335.500000
21
543.500000
31
0.0
0
LINE
8
HIDDEN
10
319.500000
20
543.500000
30
0.0
11
327.500000
21
543.500000
31
0.0
0
LINE
8
HIDDEN
10
167.500000
20
513.500000
30
0.0
11
167.500000
21
523.500000
31
0.0
0
LINE
8
HIDDEN
10
247.500000
20
513.500000
30
0.0
11
247.500000
21
523.500000
31
0.0
0
LINE
8
HIDDEN
10
327.500000
20
513.500000
30
0.0
11
327.500000
21
523.500000
31
0.0
0
LINE
8
HIDDEN
10
167.500000
20
523.500000
30
0.0
11
167.500000
21
543.500000
31
0.0
0
LINE
8
HIDDEN
10
327.500000
20
523.500000
30
0.0
11
327.500000
21
543.500000
31
0.0
0
LINE
8
HIDDEN
10
156.500000
20
513.500000
30
0.0
11
156.500000
21
523.500000
31
0.0
0
LINE
8
HIDDEN
10
178.500000
20
513.500000
30
0.0
11
178.500000
21
523.500000
31
0.0
0
LINE
8
HIDDEN
10
146.500000
20
513.500000
30
0.0
11
146.500000
21
523.500000
31
0.0
0
LINE
8
HIDDEN
10
168.500000
20
513.500000
30
0.0
11
168.500000
21
523.500000
31
0.0
0
LINE
8
HIDDEN
10
152.500000
20
513.500000
30
0.0
11
152.500000
21
523.500000
31
0.0
0
LINE
8
HIDDEN
10
342.500000
20
513.500000
30
0.0
11
342.500000
21
523.500000
31
0.0
0
LINE
8
HIDDEN
10
316.500000
20
513.500000
30
0.0
11
316.500000
21
523.500000
31
0.0
0
LINE
8
HIDDEN
10
338.500000
20
513.500000
30
0.0
11
338.500000
21
523.500000
31
0.0
0
LINE
8
HIDDEN
10
326.500000
20
513.500000
30
0.0
11
326.500000
21
523.500000
31
0.0
0
LINE
8
HIDDEN
10
348.500000
20
513.500000
30
0.0
11
348.500000
21
523.500000
31
0.0
0
LINE
8
VISIBLE
10
400.980368
20
235.500000
30
0.0
11
400.500000
21
235.500000
31
0.0
0
LINE
8
VISIBLE
10
402.403012
20
235.500000
30
0.0
11
400.980368
21
235.500000
31
0.0
0
LINE
8
VISIBLE
10
404.713260
20
235.500000
30
0.0
11
402.403012
21
235.500000
31
0.0
0
LINE
8
VISIBLE
10
407.822330
20
235.500000
30
0.0
11
404.713260
21
235.500000
31
0.0
0
LINE
8
VISIBLE
10
411.610744
20
235.500000
30
0.0
11
407.822330
21
235.500000
31
0.0
0
LINE
8
VISIBLE
10
415.932914
20
235.500000
30
0.0
11
411.610744
21
235.500000
31
0.0
0
LINE
8
VISIBLE
10
420.622742
20
235.500000
30
0.0
11
415.932914
21
235.500000
31
0.0
0
LINE
8
VISIBLE
10
425.500000
20
235.500000
30
0.0
11
420.622742
21
235.500000
31
0.0
0
LINE
8
VISIBLE
10
605.500000
20
235.500000
30
0.0
11
425.500000
21
235.500000
31
0.0
0
LINE
8
VISIBLE
10
610.377258
20
235.500000
30
0.0
11
605.500000
21
235.500000
31
0.0
0
LINE
8
VISIBLE
10
615.067086
20
235.500000
30
0.0
11
610.377258
21
235.500000
31
0.0
0
LINE
8
VISIBLE
10
619.389256
20
235.500000
30
0.0
11
615.067086
21
235.500000
31
0.0
0
LINE
8
VISIBLE
10
623.177670
20
235.500000
30
0.0
11
619.389256
21
235.500000
31
0.0
0
LINE
8
VISIBLE
10
626.286740
20
235.500000
30
0.0
11
623.177670
21
235.500000
31
0.0
0
LINE
8
VISIBLE
10
628.596988
20
235.500000
30
0.0
11
626.286740
21
235.500000
31
0.0
0
LINE
8
VISIBLE
10
630.019632
20
235.500000
30
0.0
11
628.596988
21
235.500000
31
0.0
0
LINE
8
VISIBLE
10
630.500000
20
235.500000
30
0.0
11
630.019632
21
235.500000
31
0.0
0
LINE
8
VISIBLE
10
400.980368
20
235.500000
30
0.0
11
400.980368
21
245.500000
31
0.0
0
LINE
8
VISIBLE
10
400.980368
20
245.500000
30
0.0
11
400.500000
21
245.500000
31
0.0
0
LINE
8
VISIBLE
10
402.403012
20
235.500000
30
0.0
11
402.403012
21
245.500000
31
0.0
0
LINE
8
VISIBLE
10
402.403012
20
245.500000
30
0.0
11
400.980368
21
245.500000
31
0.0
0
LINE
8
VISIBLE
10
404.713260
20
235.500000
30
0.0
11
404.713260
21
245.500000
31
0.0
0
LINE
8
VISIBLE
10
404.713260
20
245.500000
30
0.0
11
402.403012
21
245.500000
31
0.0
0
LINE
8
VISIBLE
10
407.822330
20
235.500000
30
0.0
11
407.822330
21
245.500000
31
0.0
0
LINE
8
VISIBLE
10
407.822330
20
245.500000
30
0.0
11
404.713260
21
245.500000
31
0.0
0
LINE
8
VISIBLE
10
411.610744
20
235.500000
30
0.0
11
411.610744
21
245.500000
31
0.0
0
LINE
8
VISIBLE
10
411.610744
20
245.500000
30
0.0
11
407.822330
21
245.500000
31
0.0
0
LINE
8
VISIBLE
10
415.932914
20
235.500000
30
0.0
11
415.932914
21
245.500000
31
0.0
0
LINE
8
VISIBLE
10
415.932914
20
245.500000
30
0.0
11
411.610744
21
245.500000
31
0.0
0
LINE
8
VISIBLE
10
420.622742
20
235.500000
30
0.0
11
420.622742
21
245.500000
31
0.0
0
LINE
8
VISIBLE
10
420.622742
20
245.500000
30
0.0
11
415.932914
21
245.500000
31
0.0
0
LINE
8
VISIBLE
10
425.500000
20
235.500000
30
0.0
11
425.500000
21
245.500000
31
0.0
0
LINE
8
VISIBLE
10
425.500000
20
245.500000
30
0.0
11
420.622742
21
245.500000
31
0.0
0
LINE
8
VISIBLE
10
605.500000
20
235.500000
30
0.0
11
605.500000
21
245.500000
31
0.0
0
LINE
8
VISIBLE
10
605.500000
20
245.500000
30
0.0
11
425.500000
21
245.500000
31
0.0
0
LINE
8
VISIBLE
10
610.377258
20
235.500000
30
0.0
11
610.377258
21
245.500000
31
0.0
0
LINE
8
VISIBLE
10
610.377258
20
245.500000
30
0.0
11
605.500000
21
245.500000
31
0.0
0
LINE
8
VISIBLE
10
615.067086
20
235.500000
30
0.0
11
615.067086
21
245.500000
31
0.0
0
LINE
8
VISIBLE
10
615.067086
20
245.500000
30
0.0
11
610.377258
21
245.500000
31
0.0
0
LINE
8
VISIBLE
10
619.389256
20
235.500000
30
0.0
11
619.389256
21
245.500000
31
0.0
0
LINE
8
VISIBLE
10
619.389256
20
245.500000
30
0.0
11
615.067086
21
245.500000
31
0.0
0
LINE
8
VISIBLE
10
623.177670
20
235.500000
30
0.0
11
623.177670
21
245.500000
31
0.0
0
LINE
8
VISIBLE
10
623.177670
20
245.500000
30
0.0
11
619.389256
21
245.500000
31
0.0
0
LINE
8
VISIBLE
10
626.286740
20
235.500000
30
0.0
11
626.286740
21
245.500000
31
0.0
0
LINE
8
VISIBLE
10
626.286740
20
245.500000
30
0.0
11
623.177670
21
245.500000
31
0.0
0
LINE
8
VISIBLE
10
628.596988
20
235.500000
30
0.0
11
628.596988
21
245.500000
31
0.0
0
LINE
8
VISIBLE
10
628.596988
20
245.500000
30
0.0
11
626.286740
21
245.500000
31
0.0
0
LINE
8
VISIBLE
10
630.019632
20
235.500000
30
0.0
11
630.019632
21
245.500000
31
0.0
0
LINE
8
VISIBLE
10
630.019632
20
245.500000
30
0.0
11
628.596988
21
245.500000
31
0.0
0
LINE
8
VISIBLE
10
630.500000
20
245.500000
30
0.0
11
630.019632
21
245.500000
31
0.0
0
LINE
8
VISIBLE
10
443.500000
20
265.500000
30
0.0
11
427.500000
21
265.500000
31
0.0
0
LINE
8
VISIBLE
10
603.500000
20
265.500000
30
0.0
11
587.500000
21
265.500000
31
0.0
0
LINE
8
VISIBLE
10
427.500000
20
265.500000
30
0.0
11
426.504975
21
245.500000
31
0.0
0
LINE
8
VISIBLE
10
443.500000
20
265.500000
30
0.0
11
444.495025
21
245.500000
31
0.0
0
LINE
8
VISIBLE
10
587.500000
20
265.500000
30
0.0
11
586.504975
21
245.500000
31
0.0
0
LINE
8
VISIBLE
10
603.500000
20
265.500000
30
0.0
11
604.495025
21
245.500000
31
0.0
0
LINE
8
SECTION
10
616.500000
20
235.500000
30
0.0
11
616.500000
21
245.500000
31
0.0
0
LINE
8
SECTION
10
616.500000
20
245.500000
30
0.0
11
630.500000
21
245.500000
31
0.0
0
LINE
8
SECTION
10
630.500000
20
235.500000
30
0.0
11
630.500000
21
245.500000
31
0.0
0
LINE
8
SECTION
10
616.500000
20
235.500000
30
0.0
11
630.500000
21
235.500000
31
0.0
0
LINE
8
SECTION
10
436.500000
20
235.500000
30
0.0
11
436.500000
21
245.500000
31
0.0
0
LINE
8
SECTION
10
436.500000
20
245.500000
30
0.0
11
594.500000
21
245.500000
31
0.0
0
LINE
8
SECTION
10
594.500000
20
235.500000
30
0.0
11
594.500000
21
245.500000
31
0.0
0
LINE
8
SECTION
10
436.500000
20
235.500000
30
0.0
11
594.500000
21
235.500000
31
0.0
0
LINE
8
SECTION
10
400.500000
20
245.500000
30
0.0
11
400.500000
21
235.500000
31
0.0
0
LINE
8
SECTION
10
400.500000
20
245.500000
30
0.0
11
414.500000
21
245.500000
31
0.0
0
LINE
8
SECTION
10
414.500000
20
235.500000
30
0.0
11
414.500000
21
245.500000
31
0.0
0
LINE
8
SECTION
10
400.500000
20
235.500000
30
0.0
11
414.500000
21
235.500000
31
0.0
0
LINE
8
VISIBLE
10
781.156547
20
557.758403
30
0.0
11
780.599848
21
557.373681
31
0.0
0
LINE
8
VISIBLE
10
801.702037
20
569.620348
30
0.0
11
781.156547
21
557.758403
31
0.0
0
LINE
8
VISIBLE
10
780.599848
20
557.373681
30
0.0
11
780.064544
21
556.877119
31
0.0
0
LINE
8
VISIBLE
10
802.258735
20
569.878445
30
0.0
11
801.702037
21
569.620348
31
0.0
0
LINE
8
VISIBLE
10
780.064544
20
556.877119
30
0.0
11
779.571204
21
556.287800
31
0.0
0
LINE
8
VISIBLE
10
802.794040
20
570.000000
30
0.0
11
802.258735
21
569.878445
31
0.0
0
LINE
8
VISIBLE
10
779.571204
20
556.287800
30
0.0
11
779.138789
21
555.628371
31
0.0
0
LINE
8
VISIBLE
10
803.287379
20
569.980340
30
0.0
11
802.794040
21
570.000000
31
0.0
0
LINE
8
VISIBLE
10
779.138789
20
555.628371
30
0.0
11
778.783914
21
554.924174
31
0.0
0
LINE
8
VISIBLE
10
803.719795
20
569.820222
30
0.0
11
803.287379
21
569.980340
31
0.0
0
LINE
8
VISIBLE
10
778.783914
20
554.924174
30
0.0
11
778.520219
21
554.202270
31
0.0
0
LINE
8
VISIBLE
10
804.074669
20
569.525798
30
0.0
11
803.719795
21
569.820222
31
0.0
0
LINE
8
VISIBLE
10
778.520219
20
554.202270
30
0.0
11
778.357836
21
553.490402
31
0.0
0
LINE
8
VISIBLE
10
804.338365
20
569.108384
30
0.0
11
804.074669
21
569.525798
31
0.0
0
LINE
8
VISIBLE
10
778.357836
20
553.490402
30
0.0
11
778.303006
21
552.815926
31
0.0
0
LINE
8
VISIBLE
10
804.500748
20
568.584019
30
0.0
11
804.338365
21
569.108384
31
0.0
0
LINE
8
VISIBLE
10
778.303006
20
552.815926
30
0.0
11
778.303006
21
506.686141
31
0.0
0
LINE
8
VISIBLE
10
804.555578
20
567.972855
30
0.0
11
804.500748
21
568.584019
31
0.0
0
LINE
8
VISIBLE
10
778.303006
20
506.686141
30
0.0
11
778.357836
21
506.074978
31
0.0
0
LINE
8
VISIBLE
10
804.555578
20
521.843071
30
0.0
11
804.555578
21
567.972855
31
0.0
0
LINE
8
VISIBLE
10
778.357836
20
506.074978
30
0.0
11
778.520219
21
505.550613
31
0.0
0
LINE
8
VISIBLE
10
804.500748
20
521.168595
30
0.0
11
804.555578
21
521.843071
31
0.0
0
LINE
8
VISIBLE
10
778.520219
20
505.550613
30
0.0
11
778.783914
21
505.133199
31
0.0
0
LINE
8
VISIBLE
10
804.338365
20
520.456727
30
0.0
11
804.500748
21
521.168595
31
0.0
0
LINE
8
VISIBLE
10
778.783914
20
505.133199
30
0.0
11
779.138789
21
504.838775
31
0.0
0
LINE
8
VISIBLE
10
804.074669
20
519.734823
30
0.0
11
804.338365
21
520.456727
31
0.0
0
LINE
8
VISIBLE
10
779.138789
20
504.838775
30
0.0
11
779.571204
21
504.678657
31
0.0
0
LINE
8
VISIBLE
10
803.719795
20
519.030625
30
0.0
11
804.074669
21
519.734823
31
0.0
0
LINE
8
VISIBLE
10
779.571204
20
504.678657
30
0.0
11
780.064544
21
504.658997
31
0.0
0
LINE
8
VISIBLE
10
803.287379
20
518.371197
30
0.0
11
803.719795
21
519.030625
31
0.0
0
LINE
8
VISIBLE
10
780.064544
20
504.658997
30
0.0
11
780.599848
21
504.780552
31
0.0
0
LINE
8
VISIBLE
10
802.794040
20
517.781878
30
0.0
11
803.287379
21
518.371197
31
0.0
0
LINE
8
VISIBLE
10
780.599848
20
504.780552
30
0.0
11
781.156547
21
505.038649
31
0.0
0
LINE
8
VISIBLE
10
802.258735
20
517.285316
30
0.0
11
802.794040
21
517.781878
31
0.0
0
LINE
8
VISIBLE
10
781.156547
20
505.038649
30
0.0
11
801.702037
21
516.900594
31
0.0
0
LINE
8
VISIBLE
10
801.702037
20
516.900594
30
0.0
11
802.258735
21
517.285316
31
0.0
0
LINE
8
VISIBLE
10
800.560621
20
520.327378
30
0.0
11
799.705698
21
519.445773
31
0.0
0
LINE
8
VISIBLE
10
799.705698
20
519.445773
30
0.0
11
799.305094
21
518.142646
31
0.0
0
LINE
8
VISIBLE
10
799.305094
20
518.142646
30
0.0
11
799.672808
21
517.339847
31
0.0
0
LINE
8
VISIBLE
10
799.672808
20
517.339847
30
0.0
11
800.366092
21
517.332986
31
0.0
0
LINE
8
VISIBLE
10
800.366092
20
517.332986
30
0.0
11
801.230717
21
518.038415
31
0.0
0
LINE
8
VISIBLE
10
801.230717
20
518.038415
30
0.0
11
801.794588
21
519.322310
31
0.0
0
LINE
8
VISIBLE
10
801.794588
20
519.322310
30
0.0
11
801.448435
21
520.415323
31
0.0
0
LINE
8
VISIBLE
10
801.448435
20
520.415323
30
0.0
11
800.560621
21
520.327378
31
0.0
0
LINE
8
VISIBLE
10
801.702037
20
567.116159
30
0.0
11
800.847114
21
566.234555
31
0.0
0
LINE
8
VISIBLE
10
800.847114
20
566.234555
30
0.0
11
800.446510
21
564.931428
31
0.0
0
LINE
8
VISIBLE
10
800.446510
20
564.931428
30
0.0
11
800.814224
21
564.128628
31
0.0
0
LINE
8
VISIBLE
10
800.814224
20
564.128628
30
0.0
11
801.507508
21
564.121768
31
0.0
0
LINE
8
VISIBLE
10
801.507508
20
564.121768
30
0.0
11
802.372133
21
564.827197
31
0.0
0
LINE
8
VISIBLE
10
802.372133
20
564.827197
30
0.0
11
802.936005
21
566.111091
31
0.0
0
LINE
8
VISIBLE
10
802.936005
20
566.111091
30
0.0
11
802.589851
21
567.204104
31
0.0
0
LINE
8
VISIBLE
10
802.589851
20
567.204104
30
0.0
11
801.702037
21
567.116159
31
0.0
0
LINE
8
VISIBLE
10
791.429292
20
555.781412
30
0.0
11
788.695437
21
553.798543
31
0.0
0
LINE
8
VISIBLE
10
788.695437
20
553.798543
30
0.0
11
786.003437
21
550.968552
31
0.0
0
LINE
8
VISIBLE
10
786.003437
20
550.968552
30
0.0
11
783.628748
21
547.454104
31
0.0
0
LINE
8
VISIBLE
10
783.628748
20
547.454104
30
0.0
11
781.840626
21
543.571157
31
0.0
0
LINE
8
VISIBLE
10
781.840626
20
543.571157
30
0.0
11
780.819489
21
539.720127
31
0.0
0
LINE
8
VISIBLE
10
780.819489
20
539.720127
30
0.0
11
780.604643
21
536.273790
31
0.0
0
LINE
8
VISIBLE
10
780.604643
20
536.273790
30
0.0
11
781.102514
21
533.479377
31
0.0
0
LINE
8
VISIBLE
10
781.102514
20
533.479377
30
0.0
11
782.150352
21
531.424409
31
0.0
0
LINE
8
VISIBLE
10
782.150352
20
531.424409
30
0.0
11
783.761812
21
529.980007
31
0.0
0
LINE
8
VISIBLE
10
783.761812
20
529.980007
30
0.0
11
785.567977
21
529.342338
31
0.0
0
LINE
8
VISIBLE
10
785.567977
20
529.342338
30
0.0
11
787.690045
21
529.348686
31
0.0
0
LINE
8
VISIBLE
10
787.690045
20
529.348686
30
0.0
11
790.121110
21
530.075703
31
0.0
0
LINE
8
VISIBLE
10
790.121110
20
530.075703
30
0.0
11
792.791244
21
531.625008
31
0.0
0
LINE
8
VISIBLE
10
792.791244
20
531.625008
30
0.0
11
795.535777
21
534.043008
31
0.0
0
LINE
8
VISIBLE
10
795.535777
20
534.043008
30
0.0
11
798.104562
21
537.247239
31
0.0
0
LINE
8
VISIBLE
10
798.104562
20
537.247239
30
0.0
11
800.214771
21
540.993756
31
0.0
0
LINE
8
VISIBLE
10
800.214771
20
540.993756
30
0.0
11
801.632288
21
544.911777
31
0.0
0
LINE
8
VISIBLE
10
801.632288
20
544.911777
30
0.0
11
802.244420
21
548.600161
31
0.0
0
LINE
8
VISIBLE
10
802.244420
20
548.600161
30
0.0
11
802.083612
21
551.740106
31
0.0
0
LINE
8
VISIBLE
10
802.083612
20
551.740106
30
0.0
11
801.288422
21
554.165196
31
0.0
0
LINE
8
VISIBLE
10
801.288422
20
554.165196
30
0.0
11
800.024204
21
555.856702
31
0.0
0
LINE
8
VISIBLE
10
800.024204
20
555.856702
30
0.0
11
799.096771
21
556.540935
31
0.0
0
LINE
8
VISIBLE
10
799.096771
20
556.540935
30
0.0
11
797.290607
21
557.178604
31
0.0
0
LINE
8
VISIBLE
10
797.290607
20
557.178604
30
0.0
11
795.168539
21
557.172256
31
0.0
0
LINE
8
VISIBLE
10
795.168539
20
557.172256
30
0.0
11
791.429292
21
555.781412
31
0.0
0
LINE
8
VISIBLE
10
782.297963
20
509.783427
30
0.0
11
781.443039
21
508.901823
31
0.0
0
LINE
8
VISIBLE
10
781.443039
20
508.901823
30
0.0
11
781.042435
21
507.598695
31
0.0
0
LINE
8
VISIBLE
10
781.042435
20
507.598695
30
0.0
11
781.410149
21
506.795896
31
0.0
0
LINE
8
VISIBLE
10
781.410149
20
506.795896
30
0.0
11
782.103433
21
506.789036
31
0.0
0
LINE
8
VISIBLE
10
782.103433
20
506.789036
30
0.0
11
782.968058
21
507.494464
31
0.0
0
LINE
8
VISIBLE
10
782.968058
20
507.494464
30
0.0
11
783.531930
21
508.778359
31
0.0
0
LINE
8
VISIBLE
10
783.531930
20
508.778359
30
0.0
11
783.185776
21
509.871372
31
0.0
0
LINE
8
VISIBLE
10
783.185776
20
509.871372
30
0.0
11
782.297963
21
509.783427
31
0.0
0
LINE
8
VISIBLE
10
781.156547
20
555.254215
30
0.0
11
780.301623
21
554.372610
31
0.0
0
LINE
8
VISIBLE
10
780.301623
20
554.372610
30
0.0
11
779.901019
21
553.069483
31
0.0
0
LINE
8
VISIBLE
10
779.901019
20
553.069483
30
0.0
11
780.268733
21
552.266684
31
0.0
0
LINE
8
VISIBLE
10
780.268733
20
552.266684
30
0.0
11
780.962017
21
552.259823
31
0.0
0
LINE
8
VISIBLE
10
780.962017
20
552.259823
30
0.0
11
781.826642
21
552.965252
31
0.0
0
LINE
8
VISIBLE
10
781.826642
20
552.965252
30
0.0
11
782.390514
21
554.249147
31
0.0
0
LINE
8
VISIBLE
10
782.390514
20
554.249147
30
0.0
11
782.044360
21
555.342160
31
0.0
0
LINE
8
VISIBLE
10
782.044360
20
555.342160
30
0.0
11
781.156547
21
555.254215
31
0.0
0
LINE
8
VISIBLE
10
805.216086
20
568.866801
30
0.0
11
804.861211
21
569.161225
31
0.0
0
LINE
8
VISIBLE
10
805.479781
20
568.449387
30
0.0
11
805.216086
21
568.866801
31
0.0
0
LINE
8
VISIBLE
10
805.642164
20
567.925022
30
0.0
11
805.479781
21
568.449387
31
0.0
0
LINE
8
VISIBLE
10
805.696994
20
567.313859
30
0.0
11
805.642164
21
567.925022
31
0.0
0
LINE
8
VISIBLE
10
805.696994
20
521.184074
30
0.0
11
805.696994
21
567.313859
31
0.0
0
LINE
8
VISIBLE
10
805.642164
20
520.509598
30
0.0
11
805.696994
21
521.184074
31
0.0
0
LINE
8
VISIBLE
10
805.479781
20
519.797730
30
0.0
11
805.642164
21
520.509598
31
0.0
0
LINE
8
VISIBLE
10
805.216086
20
519.075826
30
0.0
11
805.479781
21
519.797730
31
0.0
0
LINE
8
VISIBLE
10
780.280205
20
504.179778
30
0.0
11
780.712621
21
504.019660
31
0.0
0
LINE
8
VISIBLE
10
804.861211
20
518.371629
30
0.0
11
805.216086
21
519.075826
31
0.0
0
LINE
8
VISIBLE
10
780.712621
20
504.019660
30
0.0
11
781.205960
21
504.000000
31
0.0
0
LINE
8
VISIBLE
10
804.428796
20
517.712200
30
0.0
11
804.861211
21
518.371629
31
0.0
0
LINE
8
VISIBLE
10
781.205960
20
504.000000
30
0.0
11
781.741265
21
504.121555
31
0.0
0
LINE
8
VISIBLE
10
803.935456
20
517.122881
30
0.0
11
804.428796
21
517.712200
31
0.0
0
LINE
8
VISIBLE
10
781.741265
20
504.121555
30
0.0
11
782.297963
21
504.379652
31
0.0
0
LINE
8
VISIBLE
10
803.400152
20
516.626319
30
0.0
11
803.935456
21
517.122881
31
0.0
0
LINE
8
VISIBLE
10
782.297963
20
504.379652
30
0.0
11
802.843453
21
516.241597
31
0.0
0
LINE
8
VISIBLE
10
802.843453
20
516.241597
30
0.0
11
803.400152
21
516.626319
31
0.0
0
LINE
8
VISIBLE
10
801.702037
20
519.668381
30
0.0
11
800.847114
21
518.786776
31
0.0
0
LINE
8
VISIBLE
10
800.847114
20
518.786776
30
0.0
11
800.451252
21
517.370158
31
0.0
0
LINE
8
VISIBLE
10
801.811406
20
519.726014
30
0.0
11
801.702037
21
519.668381
31
0.0
0
LINE
8
VISIBLE
10
802.843453
20
566.457163
30
0.0
11
801.988530
21
565.575558
31
0.0
0
LINE
8
VISIBLE
10
801.988530
20
565.575558
30
0.0
11
801.592668
21
564.158940
31
0.0
0
LINE
8
VISIBLE
10
802.952823
20
566.514796
30
0.0
11
802.843453
21
566.457163
31
0.0
0
LINE
8
VISIBLE
10
792.570708
20
555.122415
30
0.0
11
789.836853
21
553.139546
31
0.0
0
LINE
8
VISIBLE
10
789.836853
20
553.139546
30
0.0
11
787.144853
21
550.309555
31
0.0
0
LINE
8
VISIBLE
10
787.144853
20
550.309555
30
0.0
11
784.770164
21
546.795107
31
0.0
0
LINE
8
VISIBLE
10
784.770164
20
546.795107
30
0.0
11
782.982042
21
542.912160
31
0.0
0
LINE
8
VISIBLE
10
782.982042
20
542.912160
30
0.0
11
781.960905
21
539.061130
31
0.0
0
LINE
8
VISIBLE
10
781.960905
20
539.061130
30
0.0
11
781.746059
21
535.614793
31
0.0
0
LINE
8
VISIBLE
10
781.746059
20
535.614793
30
0.0
11
782.243930
21
532.820380
31
0.0
0
LINE
8
VISIBLE
10
782.243930
20
532.820380
30
0.0
11
783.291768
21
530.765412
31
0.0
0
LINE
8
VISIBLE
10
783.291768
20
530.765412
30
0.0
11
784.353790
21
529.687347
31
0.0
0
LINE
8
VISIBLE
10
799.646210
20
556.174597
30
0.0
11
797.731096
21
556.592993
31
0.0
0
LINE
8
VISIBLE
10
797.731096
20
556.592993
30
0.0
11
795.498781
21
556.347805
31
0.0
0
LINE
8
VISIBLE
10
795.498781
20
556.347805
30
0.0
11
792.570708
21
555.122415
31
0.0
0
LINE
8
VISIBLE
10
783.439379
20
509.124430
30
0.0
11
782.584455
21
508.242826
31
0.0
0
LINE
8
VISIBLE
10
782.584455
20
508.242826
30
0.0
11
782.188594
21
506.826207
31
0.0
0
LINE
8
VISIBLE
10
783.548748
20
509.182064
30
0.0
11
783.439379
21
509.124430
31
0.0
0
LINE
8
VISIBLE
10
782.297963
20
554.595218
30
0.0
11
781.443039
21
553.713613
31
0.0
0
LINE
8
VISIBLE
10
781.443039
20
553.713613
30
0.0
11
781.047177
21
552.296995
31
0.0
0
LINE
8
VISIBLE
10
782.407332
20
554.652851
30
0.0
11
782.297963
21
554.595218
31
0.0
0
LINE
8
VISIBLE
10
803.719795
20
569.820222
30
0.0
11
804.861211
21
569.161225
31
0.0
0
LINE
8
VISIBLE
10
804.074669
20
569.525798
30
0.0
11
805.216086
21
568.866801
31
0.0
0
LINE
8
VISIBLE
10
804.338365
20
569.108384
30
0.0
11
805.479781
21
568.449387
31
0.0
0
LINE
8
VISIBLE
10
804.500748
20
568.584019
30
0.0
11
805.642164
21
567.925022
31
0.0
0
LINE
8
VISIBLE
10
804.555578
20
567.972855
30
0.0
11
805.696994
21
567.313859
31
0.0
0
LINE
8
VISIBLE
10
804.555578
20
521.843071
30
0.0
11
805.696994
21
521.184074
31
0.0
0
LINE
8
VISIBLE
10
804.500748
20
521.168595
30
0.0
11
805.642164
21
520.509598
31
0.0
0
LINE
8
VISIBLE
10
804.338365
20
520.456727
30
0.0
11
805.479781
21
519.797730
31
0.0
0
LINE
8
VISIBLE
10
779.138789
20
504.838775
30
0.0
11
780.280205
21
504.179778
31
0.0
0
LINE
8
VISIBLE
10
804.074669
20
519.734823
30
0.0
11
805.216086
21
519.075826
31
0.0
0
LINE
8
VISIBLE
10
779.571204
20
504.678657
30
0.0
11
780.712621
21
504.019660
31
0.0
0
LINE
8
VISIBLE
10
803.719795
20
519.030625
30
0.0
11
804.861211
21
518.371629
31
0.0
0
LINE
8
VISIBLE
10
780.064544
20
504.658997
30
0.0
11
781.205960
21
504.000000
31
0.0
0
LINE
8
VISIBLE
10
803.287379
20
518.371197
30
0.0
11
804.428796
21
517.712200
31
0.0
0
LINE
8
VISIBLE
10
780.599848
20
504.780552
30
0.0
11
781.741265
21
504.121555
31
0.0
0
LINE
8
VISIBLE
10
802.794040
20
517.781878
30
0.0
11
803.935456
21
517.122881
31
0.0
0
LINE
8
VISIBLE
10
781.156547
20
505.038649
30
0.0
11
782.297963
21
504.379652
31
0.0
0
LINE
8
VISIBLE
10
802.258735
20
517.285316
30
0.0
11
803.400152
21
516.626319
31
0.0
0
LINE
8
VISIBLE
10
801.702037
20
516.900594
30
0.0
11
802.843453
21
516.241597
31
0.0
0
LINE
8
VISIBLE
10
785.099643
20
544.765681
30
0.0
11
785.711979
21
544.836222
31
0.0
0
LINE
8
VISIBLE
10
785.711979
20
544.836222
30
0.0
11
786.416962
21
545.613338
31
0.0
0
LINE
8
VISIBLE
10
786.416962
20
545.613338
30
0.0
11
786.603521
21
546.681219
31
0.0
0
LINE
8
VISIBLE
10
786.603521
20
546.681219
30
0.0
11
786.390209
21
547.001007
31
0.0
0
LINE
8
VISIBLE
10
800.560621
20
520.327378
30
0.0
11
801.702037
21
519.668381
31
0.0
0
LINE
8
VISIBLE
10
801.702037
20
567.116159
30
0.0
11
802.843453
21
566.457163
31
0.0
0
LINE
8
VISIBLE
10
791.429292
20
555.781412
30
0.0
11
792.570708
21
555.122415
31
0.0
0
LINE
8
VISIBLE
10
782.297963
20
509.783427
30
0.0
11
783.439379
21
509.124430
31
0.0
0
LINE
8
VISIBLE
10
781.156547
20
555.254215
30
0.0
11
782.297963
21
554.595218
31
0.0
0
LINE
8
VISIBLE
10
786.390209
20
547.001007
30
0.0
11
785.312866
21
547.713788
31
0.0
0
LINE
8
VISIBLE
10
785.099643
20
544.765681
30
0.0
11
783.996447
21
545.315979
31
0.0
0
LINE
8
CENTER
10
144.900000
20
420.500000
30
0.0
11
156.300000
21
420.500000
31
0.0
0
LINE
8
CENTER
10
158.700000
20
420.500000
30
0.0
11
170.100000
21
420.500000
31
0.0
0
LINE
8
CENTER
10
157.500000
20
407.900000
30
0.0
11
157.500000
21
419.300000
31
0.0
0
LINE
8
CENTER
10
157.500000
20
421.700000
30
0.0
11
157.500000
21
433.100000
31
0.0
0
LINE
8
CENTER
10
324.900000
20
420.500000
30
0.0
11
336.300000
21
420.500000
31
0.0
0
LINE
8
CENTER
10
338.700000
20
420.500000
30
0.0
11
350.100000
21
420.500000
31
0.0
0
LINE
8
CENTER
10
337.500000
20
407.900000
30
0.0
11
337.500000
21
419.300000
31
0.0
0
LINE
8
CENTER
10
337.500000
20
421.700000
30
0.0
11
337.500000
21
433.100000
31
0.0
0
LINE
8
CENTER
10
150.900000
20
295.500000
30
0.0
11
246.300000
21
295.500000
31
0.0
0
LINE
8
CENTER
10
248.700000
20
295.500000
30
0.0
11
344.100000
21
295.500000
31
0.0
0
LINE
8
CENTER
10
247.500000
20
198.900000
30
0.0
11
247.500000
21
294.300000
31
0.0
0
LINE
8
CENTER
10
247.500000
20
296.700000
30
0.0
11
247.500000
21
392.100000
31
0.0
0
LINE
8
CENTER
10
154.900000
20
70.500000
30
0.0
11
166.300000
21
70.500000
31
0.0
0
LINE
8
CENTER
10
168.700000
20
70.500000
30
0.0
11
180.100000
21
70.500000
31
0.0
0
LINE
8
CENTER
10
167.500000
20
57.900000
30
0.0
11
167.500000
21
69.300000
31
0.0
0
LINE
8
CENTER
10
167.500000
20
71.700000
30
0.0
11
167.500000
21
83.100000
31
0.0
0
LINE
8
CENTER
10
314.900000
20
70.500000
30
0.0
11
326.300000
21
70.500000
31
0.0
0
LINE
8
CENTER
10
328.700000
20
70.500000
30
0.0
11
340.100000
21
70.500000
31
0.0
0
LINE
8
CENTER
10
327.500000
20
57.900000
30
0.0
11
327.500000
21
69.300000
31
0.0
0
LINE
8
CENTER
10
327.500000
20
71.700000
30
0.0
11
327.500000
21
83.100000
31
0.0
0
LINE
8
DIM
10
132.500000
20
49.300000
30
0.0
11
132.500000
21
27.500000
31
0.0
0
LINE
8
DIM
10
362.500000
20
49.300000
30
0.0
11
362.500000
21
27.500000
31
0.0
0
LINE
8
DIM
10
132.500000
20
29.500000
30
0.0
11
362.500000
21
29.500000
31
0.0
0
SOLID
8
DIM
10
132.500000
20
29.500000
30
0.0
11
135.700000
21
28.892000
31
0.0
12
135.700000
22
30.108000
32
0.0
13
135.700000
23
30.108000
33
0.0
0
SOLID
8
DIM
10
362.500000
20
29.500000
30
0.0
11
359.300000
21
30.108000
31
0.0
12
359.300000
22
28.892000
32
0.0
13
359.300000
23
28.892000
33
0.0
0
TEXT
8
TEXT
10
247.500000
20
30.500000
30
0.0
40
2.5000
1
23.00
72
1
73
0
11
247.500000
21
30.500000
31
0.0
0
LINE
8
DIM
10
131.300000
20
50.500000
30
0.0
11
109.500000
21
50.500000
31
0.0
0
LINE
8
DIM
10
131.300000
20
450.500000
30
0.0
11
109.500000
21
450.500000
31
0.0
0
LINE
8
DIM
10
111.500000
20
50.500000
30
0.0
11
111.500000
21
450.500000
31
0.0
0
SOLID
8
DIM
10
111.500000
20
50.500000
30
0.0
11
112.108000
21
53.700000
31
0.0
12
110.892000
22
53.700000
32
0.0
13
110.892000
23
53.700000
33
0.0
0
SOLID
8
DIM
10
111.500000
20
450.500000
30
0.0
11
110.892000
21
447.300000
31
0.0
12
112.108000
22
447.300000
32
0.0
13
112.108000
23
447.300000
33
0.0
0
TEXT
8
TEXT
10
110.500000
20
250.500000
30
0.0
40
2.5000
1
40.00
50
90.0000
72
1
73
0
11
110.500000
21
250.500000
31
0.0
0
SOLID
8
DIM
10
164.272276
20
429.168118
30
0.0
11
166.721503
21
431.315431
31
0.0
12
165.763282
22
432.064075
32
0.0
13
165.763282
23
432.064075
33
0.0
0
LINE
8
DIM
10
164.272276
20
429.168118
30
0.0
11
194.220424
21
467.500000
31
0.0
0
LINE
8
DIM
10
194.220424
20
467.500000
30
0.0
11
199.220424
21
467.500000
31
0.0
0
TEXT
8
TEXT
10
200.020424
20
468.500000
30
0.0
40
2.5000
1
4x Ø2.20 THRU
0
SOLID
8
DIM
10
305.987840
20
370.361022
30
0.0
11
308.437067
21
372.508334
31
0.0
12
307.478846
22
373.256978
32
0.0
13
307.478846
23
373.256978
33
0.0
0
LINE
8
DIM
10
305.987840
20
370.361022
30
0.0
11
386.666502
21
473.625000
31
0.0
0
LINE
8
DIM
10
386.666502
20
473.625000
30
0.0
11
391.666502
21
473.625000
31
0.0
0
TEXT
8
TEXT
10
392.466502
20
474.625000
30
0.0
40
2.5000
1
Ø19.00 THRU
0
SOLID
8
DIM
10
247.500000
20
200.500000
30
0.0
11
246.892000
21
197.300000
31
0.0
12
248.108000
22
197.300000
32
0.0
13
248.108000
23
197.300000
33
0.0
0
LINE
8
DIM
10
247.500000
20
200.500000
30
0.0
11
247.500000
21
190.500000
31
0.0
0
LINE
8
DIM
10
247.500000
20
190.500000
30
0.0
11
250.500000
21
190.500000
31
0.0
0
TEXT
8
TEXT
10
251.300000
20
191.500000
30
0.0
40
2.5000
1
R9.50
0
SOLID
8
DIM
10
327.500000
20
59.500000
30
0.0
11
328.175458
21
56.313557
31
0.0
12
329.297049
22
56.783333
32
0.0
13
329.297049
23
56.783333
33
0.0
0
LINE
8
DIM
10
327.500000
20
59.500000
30
0.0
11
331.363292
21
50.276390
31
0.0
0
LINE
8
DIM
10
331.363292
20
50.276390
30
0.0
11
334.363292
21
50.276390
31
0.0
0
TEXT
8
TEXT
10
335.163292
20
51.276390
30
0.0
40
2.5000
1
R1.10
0
SOLID
8
DIM
10
327.500000
20
361.504975
30
0.0
11
329.864204
21
363.745556
31
0.0
12
328.877700
22
364.456518
32
0.0
13
328.877700
23
364.456518
33
0.0
0
LINE
8
DIM
10
327.500000
20
361.504975
30
0.0
11
333.346725
21
369.617669
31
0.0
0
LINE
8
DIM
10
333.346725
20
369.617669
30
0.0
11
336.346725
21
369.617669
31
0.0
0
TEXT
8
TEXT
10
337.146725
20
370.617669
30
0.0
40
2.5000
1
R0.90
0
SOLID
8
DIM
10
327.500000
20
362.500000
30
0.0
11
327.289555
21
365.750443
31
0.0
12
326.112088
22
365.446755
32
0.0
13
326.112088
23
365.446755
33
0.0
0
LINE
8
DIM
10
327.500000
20
362.500000
30
0.0
11
325.002567
21
372.183121
31
0.0
0
LINE
8
DIM
10
325.002567
20
372.183121
30
0.0
11
322.002567
21
372.183121
31
0.0
0
TEXT
8
TEXT
10
321.202567
20
373.183121
30
0.0
40
2.5000
1
R0.80
72
2
73
0
11
321.202567
21
373.183121
31
0.0
0
LINE
8
DIM
10
336.300000
20
420.500000
30
0.0
11
102.500000
21
420.500000
31
0.0
0
LINE
8
DIM
10
326.300000
20
70.500000
30
0.0
11
102.500000
21
70.500000
31
0.0
0
LINE
8
DIM
10
104.500000
20
70.500000
30
0.0
11
104.500000
21
420.500000
31
0.0
0
SOLID
8
DIM
10
104.500000
20
70.500000
30
0.0
11
105.108000
21
73.700000
31
0.0
12
103.892000
22
73.700000
32
0.0
13
103.892000
23
73.700000
33
0.0
0
SOLID
8
DIM
10
104.500000
20
420.500000
30
0.0
11
103.892000
21
417.300000
31
0.0
12
105.108000
22
417.300000
32
0.0
13
105.108000
23
417.300000
33
0.0
0
TEXT
8
TEXT
10
103.500000
20
245.500000
30
0.0
40
2.5000
1
35.00
50
90.0000
72
1
73
0
11
103.500000
21
245.500000
31
0.0
0
TEXT
8
TEXT
10
247.500000
20
19.000000
30
0.0
40
4.0000
1
FRONT VIEW
72
1
73
0
11
247.500000
21
19.000000
31
0.0
0
LINE
8
TEXT
10
235.500000
20
17.400000
30
0.0
11
259.500000
21
17.400000
31
0.0
0
TEXT
8
TEXT
10
247.500000
20
13.000000
30
0.0
40
2.4000
1
-X →   Z ↑
72
1
73
0
11
247.500000
21
13.000000
31
0.0
0
LINE
8
DIM
10
132.500000
20
512.300000
30
0.0
11
132.500000
21
499.500000
31
0.0
0
LINE
8
DIM
10
362.500000
20
512.300000
30
0.0
11
362.500000
21
499.500000
31
0.0
0
LINE
8
DIM
10
132.500000
20
501.500000
30
0.0
11
362.500000
21
501.500000
31
0.0
0
SOLID
8
DIM
10
132.500000
20
501.500000
30
0.0
11
135.700000
21
500.892000
31
0.0
12
135.700000
22
502.108000
32
0.0
13
135.700000
23
502.108000
33
0.0
0
SOLID
8
DIM
10
362.500000
20
501.500000
30
0.0
11
359.300000
21
502.108000
31
0.0
12
359.300000
22
500.892000
32
0.0
13
359.300000
23
500.892000
33
0.0
0
TEXT
8
TEXT
10
247.500000
20
502.500000
30
0.0
40
2.5000
1
23.00
72
1
73
0
11
247.500000
21
502.500000
31
0.0
0
LINE
8
DIM
10
131.300000
20
513.500000
30
0.0
11
118.500000
21
513.500000
31
0.0
0
LINE
8
DIM
10
131.300000
20
543.500000
30
0.0
11
118.500000
21
543.500000
31
0.0
0
LINE
8
DIM
10
120.500000
20
513.500000
30
0.0
11
120.500000
21
543.500000
31
0.0
0
SOLID
8
DIM
10
120.500000
20
513.500000
30
0.0
11
121.108000
21
516.700000
31
0.0
12
119.892000
22
516.700000
32
0.0
13
119.892000
23
516.700000
33
0.0
0
SOLID
8
DIM
10
120.500000
20
543.500000
30
0.0
11
119.892000
21
540.300000
31
0.0
12
121.108000
22
540.300000
32
0.0
13
121.108000
23
540.300000
33
0.0
0
TEXT
8
TEXT
10
119.500000
20
528.500000
30
0.0
40
2.5000
1
3.00
50
90.0000
72
1
73
0
11
119.500000
21
528.500000
31
0.0
0
TEXT
8
TEXT
10
247.500000
20
489.500000
30
0.0
40
4.0000
1
TOP VIEW
72
1
73
0
11
247.500000
21
489.500000
31
0.0
0
LINE
8
TEXT
10
237.900000
20
487.900000
30
0.0
11
257.100000
21
487.900000
31
0.0
0
TEXT
8
TEXT
10
247.500000
20
483.500000
30
0.0
40
2.4000
1
X →   Y ↑
72
1
73
0
11
247.500000
21
483.500000
31
0.0
0
LINE
8
DIM
10
400.500000
20
234.300000
30
0.0
11
400.500000
21
221.500000
31
0.0
0
LINE
8
DIM
10
630.500000
20
234.300000
30
0.0
11
630.500000
21
221.500000
31
0.0
0
LINE
8
DIM
10
400.500000
20
223.500000
30
0.0
11
630.500000
21
223.500000
31
0.0
0
SOLID
8
DIM
10
400.500000
20
223.500000
30
0.0
11
403.700000
21
222.892000
31
0.0
12
403.700000
22
224.108000
32
0.0
13
403.700000
23
224.108000
33
0.0
0
SOLID
8
DIM
10
630.500000
20
223.500000
30
0.0
11
627.300000
21
224.108000
31
0.0
12
627.300000
22
222.892000
32
0.0
13
627.300000
23
222.892000
33
0.0
0
TEXT
8
TEXT
10
515.500000
20
224.500000
30
0.0
40
2.5000
1
23.00
72
1
73
0
11
515.500000
21
224.500000
31
0.0
0
LINE
8
DIM
10
399.300000
20
235.500000
30
0.0
11
386.500000
21
235.500000
31
0.0
0
LINE
8
DIM
10
399.300000
20
265.500000
30
0.0
11
386.500000
21
265.500000
31
0.0
0
LINE
8
DIM
10
388.500000
20
235.500000
30
0.0
11
388.500000
21
265.500000
31
0.0
0
SOLID
8
DIM
10
388.500000
20
235.500000
30
0.0
11
389.108000
21
238.700000
31
0.0
12
387.892000
22
238.700000
32
0.0
13
387.892000
23
238.700000
33
0.0
0
SOLID
8
DIM
10
388.500000
20
265.500000
30
0.0
11
387.892000
21
262.300000
31
0.0
12
389.108000
22
262.300000
32
0.0
13
389.108000
23
262.300000
33
0.0
0
TEXT
8
TEXT
10
387.500000
20
250.500000
30
0.0
40
2.5000
1
3.00
50
90.0000
72
1
73
0
11
387.500000
21
250.500000
31
0.0
0
LINE
8
HATCH
10
630.499986
20
235.500000
30
0.0
11
630.500000
21
235.500014
31
0.0
0
LINE
8
HATCH
10
626.257345
20
235.500000
30
0.0
11
630.500000
21
239.742655
31
0.0
0
LINE
8
HATCH
10
622.014704
20
235.500000
30
0.0
11
630.500000
21
243.985296
31
0.0
0
LINE
8
HATCH
10
617.772064
20
235.500000
30
0.0
11
627.772064
21
245.500000
31
0.0
0
LINE
8
HATCH
10
616.500000
20
238.470577
30
0.0
11
623.529423
21
245.500000
31
0.0
0
LINE
8
HATCH
10
616.500000
20
242.713218
30
0.0
11
619.286782
21
245.500000
31
0.0
0
LINE
8
HATCH
10
594.499986
20
235.500000
30
0.0
11
594.500000
21
235.500014
31
0.0
0
LINE
8
HATCH
10
590.257345
20
235.500000
30
0.0
11
594.500000
21
239.742655
31
0.0
0
LINE
8
HATCH
10
586.014704
20
235.500000
30
0.0
11
594.500000
21
243.985296
31
0.0
0
LINE
8
HATCH
10
581.772064
20
235.500000
30
0.0
11
591.772064
21
245.500000
31
0.0
0
LINE
8
HATCH
10
577.529423
20
235.500000
30
0.0
11
587.529423
21
245.500000
31
0.0
0
LINE
8
HATCH
10
573.286782
20
235.500000
30
0.0
11
583.286782
21
245.500000
31
0.0
0
LINE
8
HATCH
10
569.044142
20
235.500000
30
0.0
11
579.044142
21
245.500000
31
0.0
0
LINE
8
HATCH
10
564.801501
20
235.500000
30
0.0
11
574.801501
21
245.500000
31
0.0
0
LINE
8
HATCH
10
560.558860
20
235.500000
30
0.0
11
570.558860
21
245.500000
31
0.0
0
LINE
8
HATCH
10
556.316220
20
235.500000
30
0.0
11
566.316220
21
245.500000
31
0.0
0
LINE
8
HATCH
10
552.073579
20
235.500000
30
0.0
11
562.073579
21
245.500000
31
0.0
0
LINE
8
HATCH
10
547.830938
20
235.500000
30
0.0
11
557.830938
21
245.500000
31
0.0
0
LINE
8
HATCH
10
543.588298
20
235.500000
30
0.0
11
553.588298
21
245.500000
31
0.0
0
LINE
8
HATCH
10
539.345657
20
235.500000
30
0.0
11
549.345657
21
245.500000
31
0.0
0
LINE
8
HATCH
10
535.103016
20
235.500000
30
0.0
11
545.103016
21
245.500000
31
0.0
0
LINE
8
HATCH
10
530.860376
20
235.500000
30
0.0
11
540.860376
21
245.500000
31
0.0
0
LINE
8
HATCH
10
526.617735
20
235.500000
30
0.0
11
536.617735
21
245.500000
31
0.0
0
LINE
8
HATCH
10
522.375094
20
235.500000
30
0.0
11
532.375094
21
245.500000
31
0.0
0
LINE
8
HATCH
10
518.132453
20
235.500000
30
0.0
11
528.132453
21
245.500000
31
0.0
0
LINE
8
HATCH
10
513.889813
20
235.500000
30
0.0
11
523.889813
21
245.500000
31
0.0
0
LINE
8
HATCH
10
509.647172
20
235.500000
30
0.0
11
519.647172
21
245.500000
31
0.0
0
LINE
8
HATCH
10
505.404531
20
235.500000
30
0.0
11
515.404531
21
245.500000
31
0.0
0
LINE
8
HATCH
10
501.161891
20
235.500000
30
0.0
11
511.161891
21
245.500000
31
0.0
0
LINE
8
HATCH
10
496.919250
20
235.500000
30
0.0
11
506.919250
21
245.500000
31
0.0
0
LINE
8
HATCH
10
492.676609
20
235.500000
30
0.0
11
502.676609
21
245.500000
31
0.0
0
LINE
8
HATCH
10
488.433969
20
235.500000
30
0.0
11
498.433969
21
245.500000
31
0.0
0
LINE
8
HATCH
10
484.191328
20
235.500000
30
0.0
11
494.191328
21
245.500000
31
0.0
0
LINE
8
HATCH
10
479.948687
20
235.500000
30
0.0
11
489.948687
21
245.500000
31
0.0
0
LINE
8
HATCH
10
475.706047
20
235.500000
30
0.0
11
485.706047
21
245.500000
31
0.0
0
LINE
8
HATCH
10
471.463406
20
235.500000
30
0.0
11
481.463406
21
245.500000
31
0.0
0
LINE
8
HATCH
10
467.220765
20
235.500000
30
0.0
11
477.220765
21
245.500000
31
0.0
0
LINE
8
HATCH
10
462.978125
20
235.500000
30
0.0
11
472.978125
21
245.500000
31
0.0
0
LINE
8
HATCH
10
458.735484
20
235.500000
30
0.0
11
468.735484
21
245.500000
31
0.0
0
LINE
8
HATCH
10
454.492843
20
235.500000
30
0.0
11
464.492843
21
245.500000
31
0.0
0
LINE
8
HATCH
10
450.250202
20
235.500000
30
0.0
11
460.250202
21
245.500000
31
0.0
0
LINE
8
HATCH
10
446.007562
20
235.500000
30
0.0
11
456.007562
21
245.500000
31
0.0
0
LINE
8
HATCH
10
441.764921
20
235.500000
30
0.0
11
451.764921
21
245.500000
31
0.0
0
LINE
8
HATCH
10
437.522280
20
235.500000
30
0.0
11
447.522280
21
245.500000
31
0.0
0
LINE
8
HATCH
10
436.500000
20
238.720360
30
0.0
11
443.279640
21
245.500000
31
0.0
0
LINE
8
HATCH
10
436.500000
20
242.963001
30
0.0
11
439.036999
21
245.500000
31
0.0
0
LINE
8
HATCH
10
414.499986
20
235.500000
30
0.0
11
414.500000
21
235.500014
31
0.0
0
LINE
8
HATCH
10
410.257345
20
235.500000
30
0.0
11
414.500000
21
239.742655
31
0.0
0
LINE
8
HATCH
10
406.014704
20
235.500000
30
0.0
11
414.500000
21
243.985296
31
0.0
0
LINE
8
HATCH
10
401.772064
20
235.500000
30
0.0
11
411.772064
21
245.500000
31
0.0
0
LINE
8
HATCH
10
400.500000
20
238.470577
30
0.0
11
407.529423
21
245.500000
31
0.0
0
LINE
8
HATCH
10
400.500000
20
242.713218
30
0.0
11
403.286782
21
245.500000
31
0.0
0
LINE
8
DIM
10
629.783324
20
235.500000
30
0.0
11
641.500000
21
235.500000
31
0.0
0
LINE
8
DIM
10
629.783324
20
245.500000
30
0.0
11
641.500000
21
245.500000
31
0.0
0
LINE
8
DIM
10
639.500000
20
235.500000
30
0.0
11
639.500000
21
245.500000
31
0.0
0
SOLID
8
DIM
10
639.500000
20
235.500000
30
0.0
11
638.892000
21
232.300000
31
0.0
12
640.108000
22
232.300000
32
0.0
13
640.108000
23
232.300000
33
0.0
0
SOLID
8
DIM
10
639.500000
20
245.500000
30
0.0
11
640.108000
21
248.700000
31
0.0
12
638.892000
22
248.700000
32
0.0
13
638.892000
23
248.700000
33
0.0
0
LINE
8
DIM
10
639.500000
20
245.500000
30
0.0
11
639.500000
21
255.100000
31
0.0
0
TEXT
8
TEXT
10
638.500000
20
255.900000
30
0.0
40
2.5000
1
1.00 WALL
50
90.0000
0
LINE
8
DIM
10
400.500000
20
236.783343
30
0.0
11
400.500000
21
274.500000
31
0.0
0
LINE
8
DIM
10
414.500000
20
236.783343
30
0.0
11
414.500000
21
274.500000
31
0.0
0
LINE
8
DIM
10
400.500000
20
272.500000
30
0.0
11
414.500000
21
272.500000
31
0.0
0
SOLID
8
DIM
10
400.500000
20
272.500000
30
0.0
11
403.700000
21
271.892000
31
0.0
12
403.700000
22
273.108000
32
0.0
13
403.700000
23
273.108000
33
0.0
0
SOLID
8
DIM
10
414.500000
20
272.500000
30
0.0
11
411.300000
21
273.108000
31
0.0
12
411.300000
22
271.892000
32
0.0
13
411.300000
23
271.892000
33
0.0
0
TEXT
8
TEXT
10
407.500000
20
273.500000
30
0.0
40
2.5000
1
1.40 WALL
72
1
73
0
11
407.500000
21
273.500000
31
0.0
0
TEXT
8
TEXT
10
515.500000
20
211.500000
30
0.0
40
4.0000
1
SECTION A-A
72
1
73
0
11
515.500000
21
211.500000
31
0.0
0
LINE
8
TEXT
10
502.300000
20
209.900000
30
0.0
11
528.700000
21
209.900000
31
0.0
0
TEXT
8
TEXT
10
792.000000
20
498.000000
30
0.0
40
4.0000
1
ISOMETRIC VIEW
72
1
73
0
11
792.000000
21
498.000000
31
0.0
0
LINE
8
TEXT
10
775.200000
20
496.400000
30
0.0
11
808.800000
21
496.400000
31
0.0
0
TEXT
8
TEXT
10
792.000000
20
492.000000
30
0.0
40
2.6000
1
23.00 x 3.00 x 40.00 mm
72
1
73
0
11
792.000000
21
492.000000
31
0.0
0
LINE
8
CUT
10
123.500000
20
420.500000
30
0.0
11
137.500000
21
420.500000
31
0.0
0
LINE
8
CUTTHIN
10
137.500000
20
420.500000
30
0.0
11
357.500000
21
420.500000
31
0.0
0
LINE
8
CUT
10
357.500000
20
420.500000
30
0.0
11
371.500000
21
420.500000
31
0.0
0
LINE
8
CUT
10
123.500000
20
420.500000
30
0.0
11
123.500000
21
411.500000
31
0.0
0
SOLID
8
CUT
10
123.500000
20
411.500000
30
0.0
11
124.298000
21
415.700000
31
0.0
12
122.702000
22
415.700000
32
0.0
13
122.702000
23
415.700000
33
0.0
0
TEXT
8
TEXT
10
123.500000
20
425.500000
30
0.0
40
4.0000
1
A
72
1
73
2
11
123.500000
21
425.500000
31
0.0
0
LINE
8
CUT
10
371.500000
20
420.500000
30
0.0
11
371.500000
21
411.500000
31
0.0
0
SOLID
8
CUT
10
371.500000
20
411.500000
30
0.0
11
372.298000
21
415.700000
31
0.0
12
370.702000
22
415.700000
32
0.0
13
370.702000
23
415.700000
33
0.0
0
TEXT
8
TEXT
10
371.500000
20
425.500000
30
0.0
40
4.0000
1
A
72
1
73
2
11
371.500000
21
425.500000
31
0.0
0
LINE
8
VISIBLE
10
763.000000
20
438.177778
30
0.0
11
821.000000
21
438.177778
31
0.0
0
LINE
8
VISIBLE
10
821.000000
20
438.177778
30
0.0
11
821.000000
21
482.000000
31
0.0
0
LINE
8
VISIBLE
10
821.000000
20
482.000000
30
0.0
11
763.000000
21
482.000000
31
0.0
0
LINE
8
VISIBLE
10
763.000000
20
482.000000
30
0.0
11
763.000000
21
438.177778
31
0.0
0
LINE
8
TITLE
10
763.000000
20
438.177778
30
0.0
11
821.000000
21
438.177778
31
0.0
0
LINE
8
TITLE
10
821.000000
20
438.177778
30
0.0
11
821.000000
21
482.000000
31
0.0
0
LINE
8
TITLE
10
821.000000
20
482.000000
30
0.0
11
763.000000
21
482.000000
31
0.0
0
LINE
8
TITLE
10
763.000000
20
482.000000
30
0.0
11
763.000000
21
438.177778
31
0.0
0
TEXT
8
TEXT
10
792.000000
20
435.577778
30
0.0
40
2.0000
1
REFERENCE RENDER (ISO2) — rendered off this solid,
72
1
73
0
11
792.000000
21
435.577778
31
0.0
0
TEXT
8
TEXT
10
792.000000
20
432.977778
30
0.0
40
2.0000
1
900 x 680 px
72
1
73
0
11
792.000000
21
432.977778
31
0.0
0
TEXT
8
TEXT
10
755.000000
20
425.677778
30
0.0
40
3.0000
1
HOLE TABLE — 5 POSITIONS
0
LINE
8
TITLE
10
755.000000
20
423.177778
30
0.0
11
810.920000
21
423.177778
31
0.0
0
TEXT
8
TITLE
10
756.500000
20
420.707778
30
0.0
40
2.2000
1
TAG
0
TEXT
8
TITLE
10
763.460000
20
420.707778
30
0.0
40
2.2000
1
SIZE
0
TEXT
8
TITLE
10
780.980000
20
420.707778
30
0.0
40
2.2000
1
X
0
TEXT
8
TITLE
10
790.580000
20
420.707778
30
0.0
40
2.2000
1
Z
0
TEXT
8
TITLE
10
801.500000
20
420.707778
30
0.0
40
2.2000
1
C'BORE
0
LINE
8
TITLE
10
755.000000
20
419.107778
30
0.0
11
810.920000
21
419.107778
31
0.0
0
TEXT
8
TEXT
10
756.500000
20
416.637778
30
0.0
40
2.2000
1
A1
0
TEXT
8
TEXT
10
763.460000
20
416.637778
30
0.0
40
2.2000
1
Ø2.20 THRU
0
TEXT
8
TEXT
10
780.980000
20
416.637778
30
0.0
40
2.2000
1
26.50
0
TEXT
8
TEXT
10
790.580000
20
416.637778
30
0.0
40
2.2000
1
12.50
0
TEXT
8
TEXT
10
801.500000
20
416.637778
30
0.0
40
2.2000
1
-
0
TEXT
8
TEXT
10
756.500000
20
412.567778
30
0.0
40
2.2000
1
A2
0
TEXT
8
TEXT
10
763.460000
20
412.567778
30
0.0
40
2.2000
1
Ø2.20 THRU
0
TEXT
8
TEXT
10
780.980000
20
412.567778
30
0.0
40
2.2000
1
8.50
0
TEXT
8
TEXT
10
790.580000
20
412.567778
30
0.0
40
2.2000
1
12.50
0
TEXT
8
TEXT
10
801.500000
20
412.567778
30
0.0
40
2.2000
1
-
0
TEXT
8
TEXT
10
756.500000
20
408.497778
30
0.0
40
2.2000
1
A3
0
TEXT
8
TEXT
10
763.460000
20
408.497778
30
0.0
40
2.2000
1
Ø19.00 THRU
0
TEXT
8
TEXT
10
780.980000
20
408.497778
30
0.0
40
2.2000
1
17.50
0
TEXT
8
TEXT
10
790.580000
20
408.497778
30
0.0
40
2.2000
1
0.00
0
TEXT
8
TEXT
10
801.500000
20
408.497778
30
0.0
40
2.2000
1
-
0
TEXT
8
TEXT
10
756.500000
20
404.427778
30
0.0
40
2.2000
1
A4
0
TEXT
8
TEXT
10
763.460000
20
404.427778
30
0.0
40
2.2000
1
Ø2.20 THRU
0
TEXT
8
TEXT
10
780.980000
20
404.427778
30
0.0
40
2.2000
1
25.50
0
TEXT
8
TEXT
10
790.580000
20
404.427778
30
0.0
40
2.2000
1
-22.50
0
TEXT
8
TEXT
10
801.500000
20
404.427778
30
0.0
40
2.2000
1
-
0
TEXT
8
TEXT
10
756.500000
20
400.357778
30
0.0
40
2.2000
1
A5
0
TEXT
8
TEXT
10
763.460000
20
400.357778
30
0.0
40
2.2000
1
Ø2.20 THRU
0
TEXT
8
TEXT
10
780.980000
20
400.357778
30
0.0
40
2.2000
1
9.50
0
TEXT
8
TEXT
10
790.580000
20
400.357778
30
0.0
40
2.2000
1
-22.50
0
TEXT
8
TEXT
10
801.500000
20
400.357778
30
0.0
40
2.2000
1
-
0
LINE
8
TITLE
10
755.000000
20
398.757778
30
0.0
11
810.920000
21
398.757778
31
0.0
0
LINE
8
TITLE
10
761.960000
20
398.757778
30
0.0
11
761.960000
21
423.177778
31
0.0
0
LINE
8
TITLE
10
779.480000
20
398.757778
30
0.0
11
779.480000
21
423.177778
31
0.0
0
LINE
8
TITLE
10
789.080000
20
398.757778
30
0.0
11
789.080000
21
423.177778
31
0.0
0
LINE
8
TITLE
10
800.000000
20
398.757778
30
0.0
11
800.000000
21
423.177778
31
0.0
0
LINE
8
TITLE
10
810.920000
20
398.757778
30
0.0
11
810.920000
21
423.177778
31
0.0
0
LINE
8
TITLE
10
755.000000
20
398.757778
30
0.0
11
755.000000
21
423.177778
31
0.0
0
TEXT
8
TITLE
10
755.000000
20
394.757778
30
0.0
40
1.7585
1
every row measured off the solid; positions are model
0
TEXT
8
TITLE
10
755.000000
20
392.120042
30
0.0
40
1.7585
1
coordinates, mm. C'BORE side is the face it opens on;
0
TEXT
8
TITLE
10
755.000000
20
389.482306
30
0.0
40
1.7585
1
INT = centred in the bore, opening on neither face.
0
TEXT
8
TEXT
10
755.000000
20
379.844570
30
0.0
40
3.0000
1
NOTES
0
TEXT
8
TEXT
10
755.000000
20
375.244570
30
0.0
40
2.4000
1
1. ALL DIMENSIONS IN mm AND DEGREES. EVERY
0
TEXT
8
TEXT
10
755.000000
20
371.524570
30
0.0
40
2.4000
1
   DIMENSION AND EVERY HOLE CALLOUT WAS MEASURED
0
TEXT
8
TEXT
10
755.000000
20
367.804570
30
0.0
40
2.4000
1
   OFF THE SOLID.
0
TEXT
8
TEXT
10
755.000000
20
364.084570
30
0.0
40
2.4000
1
2. PROCESS: FDM.
0
TEXT
8
TEXT
10
755.000000
20
360.364570
30
0.0
40
2.4000
1
3. THINNEST WALL, WHOLE SOLID (RAY MINIMUM):
0
TEXT
8
TEXT
10
755.000000
20
356.644570
30
0.0
40
2.4000
1
   0.9000 mm, AT X=25.518 Y=-14.167 Z=-23.600 —
0
TEXT
8
TEXT
10
755.000000
20
352.924570
30
0.0
40
2.4000
1
   MEASURED OVER THE WHOLE SOLID BY RAY+EXACT AT
0
TEXT
8
TEXT
10
755.000000
20
349.204570
30
0.0
40
2.4000
1
   0.4930 mm SAMPLE SPACING (A FEATURE NARROWER
0
TEXT
8
TEXT
10
755.000000
20
345.484570
30
0.0
40
2.4000
1
   THAN THAT CAN BE MISSED). THIS IS A DISTANCE
0
TEXT
8
TEXT
10
755.000000
20
341.764570
30
0.0
40
2.4000
1
   THROUGH MATERIAL, NOT A WALL: AT AN EDGE, A
0
TEXT
8
TEXT
10
755.000000
20
338.044570
30
0.0
40
2.4000
1
   FILLET RUN-OUT OR A CHAMFER TIP IT IS REAL AND
0
TEXT
8
TEXT
10
755.000000
20
334.324570
30
0.0
40
2.4000
1
   UNPRINTABLE BY DEFINITION. DO NOT JUDGE
0
TEXT
8
TEXT
10
755.000000
20
330.604570
30
0.0
40
2.4000
1
   PRINTABILITY BY IT — THE NEXT NOTE IS THE ONE
0
TEXT
8
TEXT
10
755.000000
20
326.884570
30
0.0
40
2.4000
1
   THAT DOES.
0
TEXT
8
TEXT
10
755.000000
20
323.164570
30
0.0
40
2.4000
1
4. PRINTABLE MINIMUM WALL: 1.0000 mm, AT X=12.792
0
TEXT
8
TEXT
10
755.000000
20
319.444570
30
0.0
40
2.4000
1
   Y=-14.500 Z=-17.784 — MEASURED AS THE SMALLEST
0
TEXT
8
TEXT
10
755.000000
20
315.724570
30
0.0
40
2.4000
1
   MEDIAN WALL OVER A NEIGHBOURHOOD OF 1.4800 mm
0
TEXT
8
TEXT
10
755.000000
20
312.004570
30
0.0
40
2.4000
1
   (>= 8 SAMPLES), RAYS CAPPED AT 4.000 mm, BY
0
TEXT
8
TEXT
10
755.000000
20
308.284570
30
0.0
40
2.4000
1
   cecad.inspect.printable_wall_detail. AGAINST
0
TEXT
8
TEXT
10
755.000000
20
304.564570
30
0.0
40
2.4000
1
   THE 0.8000 mm FLOOR (2 PERIMETERS @ 0.4 mm
0
TEXT
8
TEXT
10
755.000000
20
300.844570
30
0.0
40
2.4000
1
   NOZZLE, cecad/printed.py:801): VERDICT PASS
0
TEXT
8
TEXT
10
755.000000
20
297.124570
30
0.0
40
2.4000
1
5. DETAIL CALLOUTS (MANUFACTURING-REQUIREMENTS
0
TEXT
8
TEXT
10
755.000000
20
293.404570
30
0.0
40
2.4000
1
   A.7): NONE ON THIS SHEET. DETAIL A dropped: a
0
TEXT
8
TEXT
10
755.000000
20
289.684570
30
0.0
40
2.4000
1
   Ø21.2 mm region needs 20:1 to beat the sheet's
0
TEXT
8
TEXT
10
755.000000
20
285.964570
30
0.0
40
2.4000
1
   10:1 by 2x and only 5 mm of the bottom band is
0
TEXT
8
TEXT
10
755.000000
20
282.244570
30
0.0
40
2.4000
1
   free — it would be drawn the same size as the
0
TEXT
8
TEXT
10
755.000000
20
278.524570
30
0.0
40
2.4000
1
   view it points at. THE REGIONS ARE DRAWN AT THE
0
TEXT
8
TEXT
10
755.000000
20
274.804570
30
0.0
40
2.4000
1
   SHEET SCALE IN THE VIEWS ABOVE; NOTHING IS
0
TEXT
8
TEXT
10
755.000000
20
271.084570
30
0.0
40
2.4000
1
   HIDDEN, NOTHING IS ENLARGED. WHAT SETTLES IT:
0
TEXT
8
TEXT
10
755.000000
20
267.364570
30
0.0
40
2.4000
1
   BIGGER PAPER, OR A SECOND SHEET FOR THE
0
TEXT
8
TEXT
10
755.000000
20
263.644570
30
0.0
40
2.4000
1
   DETAILS.
0
TEXT
8
TEXT
10
755.000000
20
259.924570
30
0.0
40
2.4000
1
6. GENERAL TOLERANCE CANNOT DETERMINE — SEE PRINT
0
TEXT
8
TEXT
10
755.000000
20
256.204570
30
0.0
40
2.4000
1
   / DFM NOTES UNLESS STATED.
0
TEXT
8
TEXT
10
755.000000
20
252.484570
30
0.0
40
2.4000
1
7. SECTION A-A AT Z=12.50: THINNEST MATERIAL IN
0
TEXT
8
TEXT
10
755.000000
20
248.764570
30
0.0
40
2.4000
1
   THIS PLANE ONLY 1.00 mm, AT X=28.81, Y=-14.00 —
0
TEXT
8
TEXT
10
755.000000
20
245.044570
30
0.0
40
2.4000
1
   A SCAN OF ONE CUT, NOT THE PART MINIMUM.
0
TEXT
8
TEXT
10
755.000000
20
241.324570
30
0.0
40
2.4000
1
8. FRONT VIEW: hidden lines KEPT: without them 30
0
TEXT
8
TEXT
10
755.000000
20
237.604570
30
0.0
40
2.4000
1
   of 605 edge samples have no ink within 0.35 mm
0
TEXT
8
TEXT
10
755.000000
20
233.884570
30
0.0
40
2.4000
1
   (worst 2.362 mm) and the feature would be
0
TEXT
8
TEXT
10
755.000000
20
230.164570
30
0.0
40
2.4000
1
   missing from the sheet.
0
TEXT
8
TEXT
10
755.000000
20
226.444570
30
0.0
40
2.4000
1
9. TOP VIEW: hidden lines KEPT: without them 6 of
0
TEXT
8
TEXT
10
755.000000
20
222.724570
30
0.0
40
2.4000
1
   602 edge samples have no ink within 0.35 mm
0
TEXT
8
TEXT
10
755.000000
20
219.004570
30
0.0
40
2.4000
1
   (worst 0.849 mm) and the feature would be
0
TEXT
8
TEXT
10
755.000000
20
215.284570
30
0.0
40
2.4000
1
   missing from the sheet.
0
TEXT
8
TEXT
10
755.000000
20
207.564570
30
0.0
40
3.0000
1
PRINT / DFM
0
TEXT
8
TEXT
10
755.000000
20
202.964570
30
0.0
40
2.4000
1
1. ORIENTATION: upright, Z-up (23 x 3 x 40 mm)
0
TEXT
8
TEXT
10
755.000000
20
199.244570
30
0.0
40
2.4000
1
2. THINNEST WALL, WHOLE SOLID (RAY MINIMUM):
0
TEXT
8
TEXT
10
755.000000
20
195.524570
30
0.0
40
2.4000
1
   0.9000 mm — a distance through material, NOT a
0
TEXT
8
TEXT
10
755.000000
20
191.804570
30
0.0
40
2.4000
1
   printable wall where it falls on an edge, a
0
TEXT
8
TEXT
10
755.000000
20
188.084570
30
0.0
40
2.4000
1
   fillet run-out or a chamfer tip. Printability
0
TEXT
8
TEXT
10
755.000000
20
184.364570
30
0.0
40
2.4000
1
   is judged on the next line.
0
TEXT
8
TEXT
10
755.000000
20
180.644570
30
0.0
40
2.4000
1
3. PRINTABLE MINIMUM WALL: 1.0000 mm (smallest
0
TEXT
8
TEXT
10
755.000000
20
176.924570
30
0.0
40
2.4000
1
   median wall over a 1.4800 mm neighbourhood,
0
TEXT
8
TEXT
10
755.000000
20
173.204570
30
0.0
40
2.4000
1
   cecad.inspect.printable_wall_detail) against a
0
TEXT
8
TEXT
10
755.000000
20
169.484570
30
0.0
40
2.4000
1
   0.8000 mm floor (2 perimeters @ 0.4 mm nozzle):
0
TEXT
8
TEXT
10
755.000000
20
165.764570
30
0.0
40
2.4000
1
   VERDICT PASS
0
TEXT
8
TEXT
10
755.000000
20
162.044570
30
0.0
40
2.4000
1
4. 5 horizontal bore(s) bridge at the crown: ream
0
TEXT
8
TEXT
10
755.000000
20
158.324570
30
0.0
40
2.4000
1
   any bearing or press-fit bore to size
0
TEXT
8
TEXT
10
755.000000
20
154.604570
30
0.0
40
2.4000
1
5. FILAMENT: PLA, ~1 g (modelled), 200 layers @
0
TEXT
8
TEXT
10
755.000000
20
150.884570
30
0.0
40
2.4000
1
   0.2 mm
0
TEXT
8
TEXT
10
755.000000
20
147.164570
30
0.0
40
2.4000
1
6. TOLERANCE BASIS, IN-HOUSE: CANNOT DETERMINE.
0
TEXT
8
TEXT
10
755.000000
20
143.444570
30
0.0
40
2.4000
1
   Every Bambu on this farm records tolerance_mm:
0
TEXT
8
TEXT
10
755.000000
20
139.724570
30
0.0
40
2.4000
1
   null, cite "no coupon printed and measured on
0
TEXT
8
TEXT
10
755.000000
20
136.004570
30
0.0
40
2.4000
1
   this machine" (ce-machines/bambu-h2s-*,
0
TEXT
8
TEXT
10
755.000000
20
132.284570
30
0.0
40
2.4000
1
   bambu-h2d-*/capabilities.json, read
0
TEXT
8
TEXT
10
755.000000
20
128.564570
30
0.0
40
2.4000
1
   2026-09-02), and Bambu Lab's own H2D Pro spec
0
TEXT
8
TEXT
10
755.000000
20
124.844570
30
0.0
40
2.4000
1
   sheet carries no dimensional-accuracy line.
0
TEXT
8
TEXT
10
755.000000
20
121.124570
30
0.0
40
2.4000
1
   DIMENSIONS HERE ARE NOMINAL AS MODELLED.
0
TEXT
8
TEXT
10
755.000000
20
117.404570
30
0.0
40
2.4000
1
7. TOLERANCE BASIS, OUTSOURCED: JLC3DP ±0.3 mm FDM
0
TEXT
8
TEXT
10
755.000000
20
113.684570
30
0.0
40
2.4000
1
   (jlc3dp.com, ce-machines/farm-jlc3dp); Hubs
0
TEXT
8
TEXT
10
755.000000
20
109.964570
30
0.0
40
2.4000
1
   ±0.5%, floor ±0.5 mm (hubs.com/3d-printing/,
0
TEXT
8
TEXT
10
755.000000
20
106.244570
30
0.0
40
2.4000
1
   ce-machines/farm-hubs). Apply the route's
0
TEXT
8
TEXT
10
755.000000
20
102.524570
30
0.0
40
2.4000
1
   figure, not both. The ±0.2 mm in
0
TEXT
8
TEXT
10
755.000000
20
98.804570
30
0.0
40
2.4000
1
   cecad/machining.py fdm is a repo planning
0
TEXT
8
TEXT
10
755.000000
20
95.084570
30
0.0
40
2.4000
1
   constant with no vendor cite and is NOT used
0
TEXT
8
TEXT
10
755.000000
20
91.364570
30
0.0
40
2.4000
1
   here. One printed and measured coupon closes
0
TEXT
8
TEXT
10
755.000000
20
87.644570
30
0.0
40
2.4000
1
   this note.
0
TEXT
8
TEXT
10
755.000000
20
83.924570
30
0.0
40
2.4000
1
8. NO ISO 286 CLASS IS DECLARED ON ANY BORE: FDM
0
TEXT
8
TEXT
10
755.000000
20
80.204570
30
0.0
40
2.4000
1
   cannot be sized to one (H7/p6 at Ø3 is a 0.010
0
TEXT
8
TEXT
10
755.000000
20
76.484570
30
0.0
40
2.4000
1
   mm band). REAM bearing and press-fit bores
0
TEXT
8
TEXT
10
755.000000
20
72.764570
30
0.0
40
2.4000
1
   after printing.
0
LINE
8
FRAME
10
645.000000
20
10.000000
30
0.0
11
831.000000
21
10.000000
31
0.0
0
LINE
8
FRAME
10
831.000000
20
10.000000
30
0.0
11
831.000000
21
66.000000
31
0.0
0
LINE
8
FRAME
10
831.000000
20
66.000000
30
0.0
11
645.000000
21
66.000000
31
0.0
0
LINE
8
FRAME
10
645.000000
20
66.000000
30
0.0
11
645.000000
21
10.000000
31
0.0
0
LINE
8
TITLE
10
645.000000
20
53.000000
30
0.0
11
831.000000
21
53.000000
31
0.0
0
LINE
8
TITLE
10
645.000000
20
19.000000
30
0.0
11
831.000000
21
19.000000
31
0.0
0
LINE
8
TITLE
10
645.000000
20
27.500000
30
0.0
11
831.000000
21
27.500000
31
0.0
0
LINE
8
TITLE
10
645.000000
20
36.000000
30
0.0
11
831.000000
21
36.000000
31
0.0
0
LINE
8
TITLE
10
645.000000
20
44.500000
30
0.0
11
831.000000
21
44.500000
31
0.0
0
TEXT
8
TEXT
10
647.500000
20
59.500000
30
0.0
40
6.0000
1
MICRODUCK-BEARING-ROLL
72
0
73
2
11
647.500000
21
59.500000
31
0.0
0
LINE
8
TITLE
10
811.000000
20
53.000000
30
0.0
11
811.000000
21
66.000000
31
0.0
0
TEXT
8
TITLE
10
821.000000
20
63.600000
30
0.0
40
1.7000
1
REV
72
1
73
0
11
821.000000
21
63.600000
31
0.0
0
TEXT
8
TEXT
10
821.000000
20
55.000000
30
0.0
40
5.2000
1
A
72
1
73
0
11
821.000000
21
55.000000
31
0.0
0
LINE
8
TITLE
10
781.000000
20
53.000000
30
0.0
11
781.000000
21
66.000000
31
0.0
0
CIRCLE
8
TITLE
10
787.500000
20
59.500000
30
0.0
40
3.500000
0
CIRCLE
8
TITLE
10
787.500000
20
59.500000
30
0.0
40
1.960000
0
LINE
8
TITLE
10
797.300000
20
56.000000
30
0.0
11
797.300000
21
63.000000
31
0.0
0
LINE
8
TITLE
10
797.300000
20
63.000000
30
0.0
11
803.250000
21
61.460000
31
0.0
0
LINE
8
TITLE
10
803.250000
20
61.460000
30
0.0
11
803.250000
21
57.540000
31
0.0
0
LINE
8
TITLE
10
803.250000
20
57.540000
30
0.0
11
797.300000
21
56.000000
31
0.0
0
LINE
8
CENTER
10
782.500000
20
59.500000
30
0.0
11
804.750000
21
59.500000
31
0.0
0
LINE
8
TITLE
10
709.000000
20
19.000000
30
0.0
11
709.000000
21
53.000000
31
0.0
0
LINE
8
TITLE
10
773.000000
20
19.000000
30
0.0
11
773.000000
21
53.000000
31
0.0
0
TEXT
8
TITLE
10
646.600000
20
50.600000
30
0.0
40
1.7000
1
MATERIAL
0
TEXT
8
TEXT
10
646.600000
20
45.900000
30
0.0
40
2.5000
1
PLA
0
TEXT
8
TITLE
10
710.600000
20
50.600000
30
0.0
40
1.7000
1
PROCESS
0
TEXT
8
TEXT
10
710.600000
20
45.900000
30
0.0
40
2.5000
1
FDM
0
TEXT
8
TITLE
10
774.600000
20
50.600000
30
0.0
40
1.7000
1
SCALE
0
TEXT
8
TEXT
10
774.600000
20
45.900000
30
0.0
40
2.5000
1
10:1
0
TEXT
8
TITLE
10
646.600000
20
42.100000
30
0.0
40
1.7000
1
CATEGORY
0
TEXT
8
TEXT
10
646.600000
20
37.400000
30
0.0
40
2.5000
1
plate
0
TEXT
8
TITLE
10
678.600000
20
42.100000
30
0.0
40
1.7000
1
GENERAL TOL
0
TEXT
8
TEXT
10
678.600000
20
37.400000
30
0.0
40
2.5000
1
CANNOT DETERMINE —~
0
LINE
8
TITLE
10
677.000000
20
36.000000
30
0.0
11
677.000000
21
44.500000
31
0.0
0
TEXT
8
TITLE
10
710.600000
20
42.100000
30
0.0
40
1.7000
1
FINISH
0
TEXT
8
TEXT
10
710.600000
20
37.400000
30
0.0
40
2.5000
1
AS PRINTED
0
TEXT
8
TITLE
10
774.600000
20
42.100000
30
0.0
40
1.7000
1
SHEET
0
TEXT
8
TEXT
10
774.600000
20
37.400000
30
0.0
40
2.5000
1
A1  1/1
0
TEXT
8
TITLE
10
646.600000
20
33.600000
30
0.0
40
1.7000
1
VOLUME (MEASURED)
0
TEXT
8
TEXT
10
646.600000
20
28.900000
30
0.0
40
2.5000
1
0.62 cm3
0
TEXT
8
TITLE
10
710.600000
20
33.600000
30
0.0
40
1.7000
1
MASS (ASSUMES PLA)
0
TEXT
8
TEXT
10
710.600000
20
28.900000
30
0.0
40
2.5000
1
0.8 g
0
TEXT
8
TITLE
10
774.600000
20
33.600000
30
0.0
40
1.7000
1
UNITS
0
TEXT
8
TEXT
10
774.600000
20
28.900000
30
0.0
40
2.5000
1
mm / deg
0
TEXT
8
TITLE
10
646.600000
20
25.100000
30
0.0
40
1.7000
1
SIZE (BBOX, MEASURED)
0
TEXT
8
TEXT
10
646.600000
20
20.400000
30
0.0
40
2.5000
1
23.00 x 3.00 x 40.00
0
TEXT
8
TITLE
10
710.600000
20
25.100000
30
0.0
40
1.7000
1
DRAWN
0
TEXT
8
TEXT
10
710.600000
20
20.400000
30
0.0
40
2.5000
1
ce-cad  2026-09-03
0
TEXT
8
TITLE
10
774.600000
20
25.100000
30
0.0
40
1.7000
1
PROJECTION
0
TEXT
8
TEXT
10
774.600000
20
20.400000
30
0.0
40
2.5000
1
THIRD ANGLE
0
TEXT
8
TITLE
10
646.600000
20
16.600000
30
0.0
40
1.7000
1
SOURCE (DESIGN FILE)
0
TEXT
8
TEXT
10
646.600000
20
11.400000
30
0.0
40
2.6000
1
ce-parts/microduck-bearing-roll/current/cad/part.py
0
TEXT
8
TEXT
10
12.500000
20
577.500000
30
0.0
40
4.2000
1
microduck-bearing-roll   SCALE 10:1   A1   THIRD ANGLE
0
ENDSEC
0
EOF
