0
SECTION
2
HEADER
9
$ACADVER
1
AC1009
9
$INSUNITS
70
4
9
$LTSCALE
40
1.0
9
$EXTMIN
10
0.0000
20
0.0000
30
0.0
9
$EXTMAX
10
420.0000
20
297.0000
30
0.0
0
ENDSEC
0
SECTION
2
TABLES
0
TABLE
2
LTYPE
70
4
0
LTYPE
2
CONTINUOUS
70
0
3
Solid line
72
65
73
0
40
0.0000
0
LTYPE
2
HIDDEN
70
0
3
Hidden __ __ __ __
72
65
73
2
40
3.6000
49
2.4000
49
-1.2000
0
LTYPE
2
CENTER
70
0
3
Center ____ _ ____ _
72
65
73
4
40
11.2000
49
7.0000
49
-1.4000
49
1.4000
49
-1.4000
0
LTYPE
2
PHANTOM
70
0
3
Phantom ____ _ _ ____
72
65
73
6
40
21.0000
49
11.0000
49
-2.0000
49
2.0000
49
-2.0000
49
2.0000
49
-2.0000
0
ENDTAB
0
TABLE
2
LAYER
70
12
0
LAYER
2
0
70
0
62
7
6
CONTINUOUS
0
LAYER
2
VISIBLE
70
0
62
7
6
CONTINUOUS
0
LAYER
2
SECTION
70
0
62
7
6
CONTINUOUS
0
LAYER
2
HIDDEN
70
0
62
8
6
HIDDEN
0
LAYER
2
CENTER
70
0
62
4
6
CENTER
0
LAYER
2
DIM
70
0
62
3
6
CONTINUOUS
0
LAYER
2
TEXT
70
0
62
3
6
CONTINUOUS
0
LAYER
2
HATCH
70
0
62
5
6
CONTINUOUS
0
LAYER
2
CUT
70
0
62
1
6
PHANTOM
0
LAYER
2
CUTTHIN
70
0
62
1
6
PHANTOM
0
LAYER
2
FRAME
70
0
62
7
6
CONTINUOUS
0
LAYER
2
TITLE
70
0
62
7
6
CONTINUOUS
0
ENDTAB
0
ENDSEC
0
SECTION
2
ENTITIES
0
LINE
8
TITLE
10
5.000000
20
5.000000
30
0.0
11
415.000000
21
5.000000
31
0.0
0
LINE
8
TITLE
10
415.000000
20
5.000000
30
0.0
11
415.000000
21
292.000000
31
0.0
0
LINE
8
TITLE
10
415.000000
20
292.000000
30
0.0
11
5.000000
21
292.000000
31
0.0
0
LINE
8
TITLE
10
5.000000
20
292.000000
30
0.0
11
5.000000
21
5.000000
31
0.0
0
LINE
8
FRAME
10
10.000000
20
10.000000
30
0.0
11
410.000000
21
10.000000
31
0.0
0
LINE
8
FRAME
10
410.000000
20
10.000000
30
0.0
11
410.000000
21
287.000000
31
0.0
0
LINE
8
FRAME
10
410.000000
20
287.000000
30
0.0
11
10.000000
21
287.000000
31
0.0
0
LINE
8
FRAME
10
10.000000
20
287.000000
30
0.0
11
10.000000
21
10.000000
31
0.0
0
TEXT
8
TITLE
10
60.000000
20
289.500000
30
0.0
40
2.4000
1
1
72
1
73
2
11
60.000000
21
289.500000
31
0.0
0
TEXT
8
TITLE
10
60.000000
20
7.500000
30
0.0
40
2.4000
1
1
72
1
73
2
11
60.000000
21
7.500000
31
0.0
0
TEXT
8
TITLE
10
160.000000
20
289.500000
30
0.0
40
2.4000
1
2
72
1
73
2
11
160.000000
21
289.500000
31
0.0
0
TEXT
8
TITLE
10
160.000000
20
7.500000
30
0.0
40
2.4000
1
2
72
1
73
2
11
160.000000
21
7.500000
31
0.0
0
LINE
8
TITLE
10
110.000000
20
5.000000
30
0.0
11
110.000000
21
10.000000
31
0.0
0
LINE
8
TITLE
10
110.000000
20
287.000000
30
0.0
11
110.000000
21
292.000000
31
0.0
0
TEXT
8
TITLE
10
260.000000
20
289.500000
30
0.0
40
2.4000
1
3
72
1
73
2
11
260.000000
21
289.500000
31
0.0
0
TEXT
8
TITLE
10
260.000000
20
7.500000
30
0.0
40
2.4000
1
3
72
1
73
2
11
260.000000
21
7.500000
31
0.0
0
LINE
8
TITLE
10
210.000000
20
5.000000
30
0.0
11
210.000000
21
10.000000
31
0.0
0
LINE
8
TITLE
10
210.000000
20
287.000000
30
0.0
11
210.000000
21
292.000000
31
0.0
0
TEXT
8
TITLE
10
360.000000
20
289.500000
30
0.0
40
2.4000
1
4
72
1
73
2
11
360.000000
21
289.500000
31
0.0
0
TEXT
8
TITLE
10
360.000000
20
7.500000
30
0.0
40
2.4000
1
4
72
1
73
2
11
360.000000
21
7.500000
31
0.0
0
LINE
8
TITLE
10
310.000000
20
5.000000
30
0.0
11
310.000000
21
10.000000
31
0.0
0
LINE
8
TITLE
10
310.000000
20
287.000000
30
0.0
11
310.000000
21
292.000000
31
0.0
0
TEXT
8
TITLE
10
7.500000
20
56.166667
30
0.0
40
2.4000
1
C
72
1
73
2
11
7.500000
21
56.166667
31
0.0
0
TEXT
8
TITLE
10
412.500000
20
56.166667
30
0.0
40
2.4000
1
C
72
1
73
2
11
412.500000
21
56.166667
31
0.0
0
TEXT
8
TITLE
10
7.500000
20
148.500000
30
0.0
40
2.4000
1
B
72
1
73
2
11
7.500000
21
148.500000
31
0.0
0
TEXT
8
TITLE
10
412.500000
20
148.500000
30
0.0
40
2.4000
1
B
72
1
73
2
11
412.500000
21
148.500000
31
0.0
0
LINE
8
TITLE
10
5.000000
20
102.333333
30
0.0
11
10.000000
21
102.333333
31
0.0
0
LINE
8
TITLE
10
410.000000
20
102.333333
30
0.0
11
415.000000
21
102.333333
31
0.0
0
TEXT
8
TITLE
10
7.500000
20
240.833333
30
0.0
40
2.4000
1
A
72
1
73
2
11
7.500000
21
240.833333
31
0.0
0
TEXT
8
TITLE
10
412.500000
20
240.833333
30
0.0
40
2.4000
1
A
72
1
73
2
11
412.500000
21
240.833333
31
0.0
0
LINE
8
TITLE
10
5.000000
20
194.666667
30
0.0
11
10.000000
21
194.666667
31
0.0
0
LINE
8
TITLE
10
410.000000
20
194.666667
30
0.0
11
415.000000
21
194.666667
31
0.0
0
LINE
8
VISIBLE
10
111.000000
20
154.000000
30
0.0
11
110.024548
21
153.903926
31
0.0
0
LINE
8
VISIBLE
10
147.000000
20
154.000000
30
0.0
11
111.000000
21
154.000000
31
0.0
0
LINE
8
VISIBLE
10
110.024548
20
153.903926
30
0.0
11
109.086583
21
153.619398
31
0.0
0
LINE
8
VISIBLE
10
147.975452
20
153.903926
30
0.0
11
147.000000
21
154.000000
31
0.0
0
LINE
8
VISIBLE
10
109.086583
20
153.619398
30
0.0
11
108.222149
21
153.157348
31
0.0
0
LINE
8
VISIBLE
10
148.913417
20
153.619398
30
0.0
11
147.975452
21
153.903926
31
0.0
0
LINE
8
VISIBLE
10
108.222149
20
153.157348
30
0.0
11
107.464466
21
152.535534
31
0.0
0
LINE
8
VISIBLE
10
149.777851
20
153.157348
30
0.0
11
148.913417
21
153.619398
31
0.0
0
LINE
8
VISIBLE
10
107.464466
20
152.535534
30
0.0
11
106.842652
21
151.777851
31
0.0
0
LINE
8
VISIBLE
10
150.535534
20
152.535534
30
0.0
11
149.777851
21
153.157348
31
0.0
0
LINE
8
VISIBLE
10
106.842652
20
151.777851
30
0.0
11
106.380602
21
150.913417
31
0.0
0
LINE
8
VISIBLE
10
151.157348
20
151.777851
30
0.0
11
150.535534
21
152.535534
31
0.0
0
LINE
8
VISIBLE
10
106.380602
20
150.913417
30
0.0
11
106.096074
21
149.975452
31
0.0
0
LINE
8
VISIBLE
10
151.619398
20
150.913417
30
0.0
11
151.157348
21
151.777851
31
0.0
0
LINE
8
VISIBLE
10
106.096074
20
149.975452
30
0.0
11
106.000000
21
149.000000
31
0.0
0
LINE
8
VISIBLE
10
151.903926
20
149.975452
30
0.0
11
151.619398
21
150.913417
31
0.0
0
LINE
8
VISIBLE
10
106.000000
20
149.000000
30
0.0
11
106.000000
21
79.000000
31
0.0
0
LINE
8
VISIBLE
10
152.000000
20
149.000000
30
0.0
11
151.903926
21
149.975452
31
0.0
0
LINE
8
VISIBLE
10
106.000000
20
79.000000
30
0.0
11
106.096074
21
78.024548
31
0.0
0
LINE
8
VISIBLE
10
152.000000
20
79.000000
30
0.0
11
152.000000
21
149.000000
31
0.0
0
LINE
8
VISIBLE
10
106.096074
20
78.024548
30
0.0
11
106.380602
21
77.086583
31
0.0
0
LINE
8
VISIBLE
10
151.903926
20
78.024548
30
0.0
11
152.000000
21
79.000000
31
0.0
0
LINE
8
VISIBLE
10
106.380602
20
77.086583
30
0.0
11
106.842652
21
76.222149
31
0.0
0
LINE
8
VISIBLE
10
151.619398
20
77.086583
30
0.0
11
151.903926
21
78.024548
31
0.0
0
LINE
8
VISIBLE
10
106.842652
20
76.222149
30
0.0
11
107.464466
21
75.464466
31
0.0
0
LINE
8
VISIBLE
10
151.157348
20
76.222149
30
0.0
11
151.619398
21
77.086583
31
0.0
0
LINE
8
VISIBLE
10
107.464466
20
75.464466
30
0.0
11
108.222149
21
74.842652
31
0.0
0
LINE
8
VISIBLE
10
150.535534
20
75.464466
30
0.0
11
151.157348
21
76.222149
31
0.0
0
LINE
8
VISIBLE
10
108.222149
20
74.842652
30
0.0
11
109.086583
21
74.380602
31
0.0
0
LINE
8
VISIBLE
10
149.777851
20
74.842652
30
0.0
11
150.535534
21
75.464466
31
0.0
0
LINE
8
VISIBLE
10
109.086583
20
74.380602
30
0.0
11
110.024548
21
74.096074
31
0.0
0
LINE
8
VISIBLE
10
148.913417
20
74.380602
30
0.0
11
149.777851
21
74.842652
31
0.0
0
LINE
8
VISIBLE
10
110.024548
20
74.096074
30
0.0
11
111.000000
21
74.000000
31
0.0
0
LINE
8
VISIBLE
10
147.975452
20
74.096074
30
0.0
11
148.913417
21
74.380602
31
0.0
0
LINE
8
VISIBLE
10
111.000000
20
74.000000
30
0.0
11
147.000000
21
74.000000
31
0.0
0
LINE
8
VISIBLE
10
147.000000
20
74.000000
30
0.0
11
147.975452
21
74.096074
31
0.0
0
CIRCLE
8
VISIBLE
10
145.000000
20
78.000000
30
0.0
40
2.200000
0
CIRCLE
8
VISIBLE
10
147.000000
20
148.000000
30
0.0
40
2.200000
0
CIRCLE
8
VISIBLE
10
129.000000
20
123.000000
30
0.0
40
19.000000
0
CIRCLE
8
VISIBLE
10
113.000000
20
78.000000
30
0.0
40
2.200000
0
CIRCLE
8
VISIBLE
10
111.000000
20
148.000000
30
0.0
40
2.200000
0
CIRCLE
8
HIDDEN
10
145.000000
20
138.000000
30
0.0
40
1.799005
0
CIRCLE
8
HIDDEN
10
113.000000
20
138.000000
30
0.0
40
1.799005
0
CIRCLE
8
HIDDEN
10
145.000000
20
138.000000
30
0.0
40
1.600000
0
CIRCLE
8
HIDDEN
10
113.000000
20
138.000000
30
0.0
40
1.600000
0
LINE
8
HIDDEN
10
145.000000
20
139.799005
30
0.0
11
145.000000
21
139.600000
31
0.0
0
LINE
8
HIDDEN
10
113.000000
20
139.799005
30
0.0
11
113.000000
21
139.600000
31
0.0
0
LINE
8
VISIBLE
10
152.000000
20
217.000000
30
0.0
11
151.903926
21
217.000000
31
0.0
0
LINE
8
VISIBLE
10
151.903926
20
217.000000
30
0.0
11
151.619398
21
217.000000
31
0.0
0
LINE
8
VISIBLE
10
106.096074
20
217.000000
30
0.0
11
106.000000
21
217.000000
31
0.0
0
LINE
8
VISIBLE
10
151.619398
20
217.000000
30
0.0
11
151.157348
21
217.000000
31
0.0
0
LINE
8
VISIBLE
10
106.380602
20
217.000000
30
0.0
11
106.096074
21
217.000000
31
0.0
0
LINE
8
VISIBLE
10
151.157348
20
217.000000
30
0.0
11
150.535534
21
217.000000
31
0.0
0
LINE
8
VISIBLE
10
106.842652
20
217.000000
30
0.0
11
106.380602
21
217.000000
31
0.0
0
LINE
8
VISIBLE
10
150.535534
20
217.000000
30
0.0
11
149.777851
21
217.000000
31
0.0
0
LINE
8
VISIBLE
10
107.464466
20
217.000000
30
0.0
11
106.842652
21
217.000000
31
0.0
0
LINE
8
VISIBLE
10
149.777851
20
217.000000
30
0.0
11
148.913417
21
217.000000
31
0.0
0
LINE
8
VISIBLE
10
108.222149
20
217.000000
30
0.0
11
107.464466
21
217.000000
31
0.0
0
LINE
8
VISIBLE
10
148.913417
20
217.000000
30
0.0
11
147.975452
21
217.000000
31
0.0
0
LINE
8
VISIBLE
10
109.086583
20
217.000000
30
0.0
11
108.222149
21
217.000000
31
0.0
0
LINE
8
VISIBLE
10
147.975452
20
217.000000
30
0.0
11
147.000000
21
217.000000
31
0.0
0
LINE
8
VISIBLE
10
110.024548
20
217.000000
30
0.0
11
109.086583
21
217.000000
31
0.0
0
LINE
8
VISIBLE
10
147.000000
20
217.000000
30
0.0
11
111.000000
21
217.000000
31
0.0
0
LINE
8
VISIBLE
10
111.000000
20
217.000000
30
0.0
11
110.024548
21
217.000000
31
0.0
0
LINE
8
VISIBLE
10
152.000000
20
219.000000
30
0.0
11
151.903926
21
219.000000
31
0.0
0
LINE
8
VISIBLE
10
151.903926
20
219.000000
30
0.0
11
151.619398
21
219.000000
31
0.0
0
LINE
8
VISIBLE
10
106.096074
20
219.000000
30
0.0
11
106.000000
21
219.000000
31
0.0
0
LINE
8
VISIBLE
10
151.619398
20
219.000000
30
0.0
11
151.157348
21
219.000000
31
0.0
0
LINE
8
VISIBLE
10
106.380602
20
219.000000
30
0.0
11
106.096074
21
219.000000
31
0.0
0
LINE
8
VISIBLE
10
151.157348
20
219.000000
30
0.0
11
150.535534
21
219.000000
31
0.0
0
LINE
8
VISIBLE
10
106.842652
20
219.000000
30
0.0
11
106.380602
21
219.000000
31
0.0
0
LINE
8
VISIBLE
10
150.535534
20
219.000000
30
0.0
11
149.777851
21
219.000000
31
0.0
0
LINE
8
VISIBLE
10
107.464466
20
219.000000
30
0.0
11
106.842652
21
219.000000
31
0.0
0
LINE
8
VISIBLE
10
149.777851
20
219.000000
30
0.0
11
148.913417
21
219.000000
31
0.0
0
LINE
8
VISIBLE
10
108.222149
20
219.000000
30
0.0
11
107.464466
21
219.000000
31
0.0
0
LINE
8
VISIBLE
10
148.913417
20
219.000000
30
0.0
11
147.975452
21
219.000000
31
0.0
0
LINE
8
VISIBLE
10
109.086583
20
219.000000
30
0.0
11
108.222149
21
219.000000
31
0.0
0
LINE
8
VISIBLE
10
147.975452
20
219.000000
30
0.0
11
147.000000
21
219.000000
31
0.0
0
LINE
8
VISIBLE
10
110.024548
20
219.000000
30
0.0
11
109.086583
21
219.000000
31
0.0
0
LINE
8
VISIBLE
10
147.000000
20
219.000000
30
0.0
11
111.000000
21
219.000000
31
0.0
0
LINE
8
VISIBLE
10
111.000000
20
219.000000
30
0.0
11
110.024548
21
219.000000
31
0.0
0
LINE
8
VISIBLE
10
152.000000
20
217.000000
30
0.0
11
152.000000
21
219.000000
31
0.0
0
LINE
8
VISIBLE
10
151.903926
20
217.000000
30
0.0
11
151.903926
21
219.000000
31
0.0
0
LINE
8
VISIBLE
10
106.000000
20
217.000000
30
0.0
11
106.000000
21
219.000000
31
0.0
0
LINE
8
VISIBLE
10
151.619398
20
217.000000
30
0.0
11
151.619398
21
219.000000
31
0.0
0
LINE
8
VISIBLE
10
106.096074
20
217.000000
30
0.0
11
106.096074
21
219.000000
31
0.0
0
LINE
8
VISIBLE
10
151.157348
20
217.000000
30
0.0
11
151.157348
21
219.000000
31
0.0
0
LINE
8
VISIBLE
10
106.380602
20
217.000000
30
0.0
11
106.380602
21
219.000000
31
0.0
0
LINE
8
VISIBLE
10
150.535534
20
217.000000
30
0.0
11
150.535534
21
219.000000
31
0.0
0
LINE
8
VISIBLE
10
106.842652
20
217.000000
30
0.0
11
106.842652
21
219.000000
31
0.0
0
LINE
8
VISIBLE
10
149.777851
20
217.000000
30
0.0
11
149.777851
21
219.000000
31
0.0
0
LINE
8
VISIBLE
10
107.464466
20
217.000000
30
0.0
11
107.464466
21
219.000000
31
0.0
0
LINE
8
VISIBLE
10
148.913417
20
217.000000
30
0.0
11
148.913417
21
219.000000
31
0.0
0
LINE
8
VISIBLE
10
108.222149
20
217.000000
30
0.0
11
108.222149
21
219.000000
31
0.0
0
LINE
8
VISIBLE
10
147.975452
20
217.000000
30
0.0
11
147.975452
21
219.000000
31
0.0
0
LINE
8
VISIBLE
10
109.086583
20
217.000000
30
0.0
11
109.086583
21
219.000000
31
0.0
0
LINE
8
VISIBLE
10
147.000000
20
217.000000
30
0.0
11
147.000000
21
219.000000
31
0.0
0
LINE
8
VISIBLE
10
110.024548
20
217.000000
30
0.0
11
110.024548
21
219.000000
31
0.0
0
LINE
8
VISIBLE
10
111.000000
20
217.000000
30
0.0
11
111.000000
21
219.000000
31
0.0
0
LINE
8
VISIBLE
10
114.600000
20
223.000000
30
0.0
11
111.400000
21
223.000000
31
0.0
0
LINE
8
VISIBLE
10
146.600000
20
223.000000
30
0.0
11
143.400000
21
223.000000
31
0.0
0
LINE
8
VISIBLE
10
111.400000
20
223.000000
30
0.0
11
111.200995
21
219.000000
31
0.0
0
LINE
8
VISIBLE
10
114.600000
20
223.000000
30
0.0
11
114.799005
21
219.000000
31
0.0
0
LINE
8
VISIBLE
10
143.400000
20
223.000000
30
0.0
11
143.200995
21
219.000000
31
0.0
0
LINE
8
VISIBLE
10
146.600000
20
223.000000
30
0.0
11
146.799005
21
219.000000
31
0.0
0
LINE
8
HIDDEN
10
113.000000
20
217.000000
30
0.0
11
115.200000
21
217.000000
31
0.0
0
LINE
8
HIDDEN
10
115.200000
20
217.000000
30
0.0
11
110.800000
21
217.000000
31
0.0
0
LINE
8
HIDDEN
10
110.800000
20
217.000000
30
0.0
11
113.000000
21
217.000000
31
0.0
0
LINE
8
HIDDEN
10
111.000000
20
217.000000
30
0.0
11
113.200000
21
217.000000
31
0.0
0
LINE
8
HIDDEN
10
113.200000
20
217.000000
30
0.0
11
108.800000
21
217.000000
31
0.0
0
LINE
8
HIDDEN
10
108.800000
20
217.000000
30
0.0
11
111.000000
21
217.000000
31
0.0
0
LINE
8
HIDDEN
10
129.000000
20
217.000000
30
0.0
11
148.000000
21
217.000000
31
0.0
0
LINE
8
HIDDEN
10
148.000000
20
217.000000
30
0.0
11
110.000000
21
217.000000
31
0.0
0
LINE
8
HIDDEN
10
110.000000
20
217.000000
30
0.0
11
129.000000
21
217.000000
31
0.0
0
LINE
8
HIDDEN
10
145.000000
20
217.000000
30
0.0
11
147.200000
21
217.000000
31
0.0
0
LINE
8
HIDDEN
10
147.200000
20
217.000000
30
0.0
11
142.800000
21
217.000000
31
0.0
0
LINE
8
HIDDEN
10
142.800000
20
217.000000
30
0.0
11
145.000000
21
217.000000
31
0.0
0
LINE
8
HIDDEN
10
147.000000
20
217.000000
30
0.0
11
149.200000
21
217.000000
31
0.0
0
LINE
8
HIDDEN
10
149.200000
20
217.000000
30
0.0
11
144.800000
21
217.000000
31
0.0
0
LINE
8
HIDDEN
10
144.800000
20
217.000000
30
0.0
11
147.000000
21
217.000000
31
0.0
0
LINE
8
HIDDEN
10
113.000000
20
219.000000
30
0.0
11
115.200000
21
219.000000
31
0.0
0
LINE
8
HIDDEN
10
115.200000
20
219.000000
30
0.0
11
110.800000
21
219.000000
31
0.0
0
LINE
8
HIDDEN
10
110.800000
20
219.000000
30
0.0
11
113.000000
21
219.000000
31
0.0
0
LINE
8
HIDDEN
10
113.000000
20
219.000000
30
0.0
11
114.799005
21
219.000000
31
0.0
0
LINE
8
HIDDEN
10
114.799005
20
219.000000
30
0.0
11
111.200995
21
219.000000
31
0.0
0
LINE
8
HIDDEN
10
111.200995
20
219.000000
30
0.0
11
113.000000
21
219.000000
31
0.0
0
LINE
8
HIDDEN
10
111.000000
20
219.000000
30
0.0
11
113.200000
21
219.000000
31
0.0
0
LINE
8
HIDDEN
10
113.200000
20
219.000000
30
0.0
11
108.800000
21
219.000000
31
0.0
0
LINE
8
HIDDEN
10
108.800000
20
219.000000
30
0.0
11
111.000000
21
219.000000
31
0.0
0
LINE
8
HIDDEN
10
129.000000
20
219.000000
30
0.0
11
148.000000
21
219.000000
31
0.0
0
LINE
8
HIDDEN
10
148.000000
20
219.000000
30
0.0
11
110.000000
21
219.000000
31
0.0
0
LINE
8
HIDDEN
10
110.000000
20
219.000000
30
0.0
11
129.000000
21
219.000000
31
0.0
0
LINE
8
HIDDEN
10
145.000000
20
219.000000
30
0.0
11
147.200000
21
219.000000
31
0.0
0
LINE
8
HIDDEN
10
147.200000
20
219.000000
30
0.0
11
142.800000
21
219.000000
31
0.0
0
LINE
8
HIDDEN
10
142.800000
20
219.000000
30
0.0
11
145.000000
21
219.000000
31
0.0
0
LINE
8
HIDDEN
10
145.000000
20
219.000000
30
0.0
11
146.799005
21
219.000000
31
0.0
0
LINE
8
HIDDEN
10
146.799005
20
219.000000
30
0.0
11
143.200995
21
219.000000
31
0.0
0
LINE
8
HIDDEN
10
143.200995
20
219.000000
30
0.0
11
145.000000
21
219.000000
31
0.0
0
LINE
8
HIDDEN
10
147.000000
20
219.000000
30
0.0
11
149.200000
21
219.000000
31
0.0
0
LINE
8
HIDDEN
10
149.200000
20
219.000000
30
0.0
11
144.800000
21
219.000000
31
0.0
0
LINE
8
HIDDEN
10
144.800000
20
219.000000
30
0.0
11
147.000000
21
219.000000
31
0.0
0
LINE
8
HIDDEN
10
113.000000
20
223.000000
30
0.0
11
114.600000
21
223.000000
31
0.0
0
LINE
8
HIDDEN
10
111.400000
20
223.000000
30
0.0
11
113.000000
21
223.000000
31
0.0
0
LINE
8
HIDDEN
10
145.000000
20
223.000000
30
0.0
11
146.600000
21
223.000000
31
0.0
0
LINE
8
HIDDEN
10
143.400000
20
223.000000
30
0.0
11
145.000000
21
223.000000
31
0.0
0
LINE
8
HIDDEN
10
113.000000
20
217.000000
30
0.0
11
113.000000
21
219.000000
31
0.0
0
LINE
8
HIDDEN
10
129.000000
20
217.000000
30
0.0
11
129.000000
21
219.000000
31
0.0
0
LINE
8
HIDDEN
10
145.000000
20
217.000000
30
0.0
11
145.000000
21
219.000000
31
0.0
0
LINE
8
HIDDEN
10
113.000000
20
219.000000
30
0.0
11
113.000000
21
223.000000
31
0.0
0
LINE
8
HIDDEN
10
145.000000
20
219.000000
30
0.0
11
145.000000
21
223.000000
31
0.0
0
LINE
8
HIDDEN
10
110.800000
20
217.000000
30
0.0
11
110.800000
21
219.000000
31
0.0
0
LINE
8
HIDDEN
10
115.200000
20
217.000000
30
0.0
11
115.200000
21
219.000000
31
0.0
0
LINE
8
HIDDEN
10
108.800000
20
217.000000
30
0.0
11
108.800000
21
219.000000
31
0.0
0
LINE
8
HIDDEN
10
113.200000
20
217.000000
30
0.0
11
113.200000
21
219.000000
31
0.0
0
LINE
8
HIDDEN
10
110.000000
20
217.000000
30
0.0
11
110.000000
21
219.000000
31
0.0
0
LINE
8
HIDDEN
10
148.000000
20
217.000000
30
0.0
11
148.000000
21
219.000000
31
0.0
0
LINE
8
HIDDEN
10
142.800000
20
217.000000
30
0.0
11
142.800000
21
219.000000
31
0.0
0
LINE
8
HIDDEN
10
147.200000
20
217.000000
30
0.0
11
147.200000
21
219.000000
31
0.0
0
LINE
8
HIDDEN
10
144.800000
20
217.000000
30
0.0
11
144.800000
21
219.000000
31
0.0
0
LINE
8
HIDDEN
10
149.200000
20
217.000000
30
0.0
11
149.200000
21
219.000000
31
0.0
0
LINE
8
VISIBLE
10
190.096074
20
111.000000
30
0.0
11
190.000000
21
111.000000
31
0.0
0
LINE
8
VISIBLE
10
190.380602
20
111.000000
30
0.0
11
190.096074
21
111.000000
31
0.0
0
LINE
8
VISIBLE
10
190.842652
20
111.000000
30
0.0
11
190.380602
21
111.000000
31
0.0
0
LINE
8
VISIBLE
10
191.464466
20
111.000000
30
0.0
11
190.842652
21
111.000000
31
0.0
0
LINE
8
VISIBLE
10
192.222149
20
111.000000
30
0.0
11
191.464466
21
111.000000
31
0.0
0
LINE
8
VISIBLE
10
193.086583
20
111.000000
30
0.0
11
192.222149
21
111.000000
31
0.0
0
LINE
8
VISIBLE
10
194.024548
20
111.000000
30
0.0
11
193.086583
21
111.000000
31
0.0
0
LINE
8
VISIBLE
10
195.000000
20
111.000000
30
0.0
11
194.024548
21
111.000000
31
0.0
0
LINE
8
VISIBLE
10
231.000000
20
111.000000
30
0.0
11
195.000000
21
111.000000
31
0.0
0
LINE
8
VISIBLE
10
231.975452
20
111.000000
30
0.0
11
231.000000
21
111.000000
31
0.0
0
LINE
8
VISIBLE
10
232.913417
20
111.000000
30
0.0
11
231.975452
21
111.000000
31
0.0
0
LINE
8
VISIBLE
10
233.777851
20
111.000000
30
0.0
11
232.913417
21
111.000000
31
0.0
0
LINE
8
VISIBLE
10
234.535534
20
111.000000
30
0.0
11
233.777851
21
111.000000
31
0.0
0
LINE
8
VISIBLE
10
235.157348
20
111.000000
30
0.0
11
234.535534
21
111.000000
31
0.0
0
LINE
8
VISIBLE
10
235.619398
20
111.000000
30
0.0
11
235.157348
21
111.000000
31
0.0
0
LINE
8
VISIBLE
10
235.903926
20
111.000000
30
0.0
11
235.619398
21
111.000000
31
0.0
0
LINE
8
VISIBLE
10
236.000000
20
111.000000
30
0.0
11
235.903926
21
111.000000
31
0.0
0
LINE
8
VISIBLE
10
190.096074
20
111.000000
30
0.0
11
190.096074
21
113.000000
31
0.0
0
LINE
8
VISIBLE
10
190.096074
20
113.000000
30
0.0
11
190.000000
21
113.000000
31
0.0
0
LINE
8
VISIBLE
10
190.380602
20
111.000000
30
0.0
11
190.380602
21
113.000000
31
0.0
0
LINE
8
VISIBLE
10
190.380602
20
113.000000
30
0.0
11
190.096074
21
113.000000
31
0.0
0
LINE
8
VISIBLE
10
190.842652
20
111.000000
30
0.0
11
190.842652
21
113.000000
31
0.0
0
LINE
8
VISIBLE
10
190.842652
20
113.000000
30
0.0
11
190.380602
21
113.000000
31
0.0
0
LINE
8
VISIBLE
10
191.464466
20
111.000000
30
0.0
11
191.464466
21
113.000000
31
0.0
0
LINE
8
VISIBLE
10
191.464466
20
113.000000
30
0.0
11
190.842652
21
113.000000
31
0.0
0
LINE
8
VISIBLE
10
192.222149
20
111.000000
30
0.0
11
192.222149
21
113.000000
31
0.0
0
LINE
8
VISIBLE
10
192.222149
20
113.000000
30
0.0
11
191.464466
21
113.000000
31
0.0
0
LINE
8
VISIBLE
10
193.086583
20
111.000000
30
0.0
11
193.086583
21
113.000000
31
0.0
0
LINE
8
VISIBLE
10
193.086583
20
113.000000
30
0.0
11
192.222149
21
113.000000
31
0.0
0
LINE
8
VISIBLE
10
194.024548
20
111.000000
30
0.0
11
194.024548
21
113.000000
31
0.0
0
LINE
8
VISIBLE
10
194.024548
20
113.000000
30
0.0
11
193.086583
21
113.000000
31
0.0
0
LINE
8
VISIBLE
10
195.000000
20
111.000000
30
0.0
11
195.000000
21
113.000000
31
0.0
0
LINE
8
VISIBLE
10
195.000000
20
113.000000
30
0.0
11
194.024548
21
113.000000
31
0.0
0
LINE
8
VISIBLE
10
231.000000
20
111.000000
30
0.0
11
231.000000
21
113.000000
31
0.0
0
LINE
8
VISIBLE
10
231.000000
20
113.000000
30
0.0
11
195.000000
21
113.000000
31
0.0
0
LINE
8
VISIBLE
10
231.975452
20
111.000000
30
0.0
11
231.975452
21
113.000000
31
0.0
0
LINE
8
VISIBLE
10
231.975452
20
113.000000
30
0.0
11
231.000000
21
113.000000
31
0.0
0
LINE
8
VISIBLE
10
232.913417
20
111.000000
30
0.0
11
232.913417
21
113.000000
31
0.0
0
LINE
8
VISIBLE
10
232.913417
20
113.000000
30
0.0
11
231.975452
21
113.000000
31
0.0
0
LINE
8
VISIBLE
10
233.777851
20
111.000000
30
0.0
11
233.777851
21
113.000000
31
0.0
0
LINE
8
VISIBLE
10
233.777851
20
113.000000
30
0.0
11
232.913417
21
113.000000
31
0.0
0
LINE
8
VISIBLE
10
234.535534
20
111.000000
30
0.0
11
234.535534
21
113.000000
31
0.0
0
LINE
8
VISIBLE
10
234.535534
20
113.000000
30
0.0
11
233.777851
21
113.000000
31
0.0
0
LINE
8
VISIBLE
10
235.157348
20
111.000000
30
0.0
11
235.157348
21
113.000000
31
0.0
0
LINE
8
VISIBLE
10
235.157348
20
113.000000
30
0.0
11
234.535534
21
113.000000
31
0.0
0
LINE
8
VISIBLE
10
235.619398
20
111.000000
30
0.0
11
235.619398
21
113.000000
31
0.0
0
LINE
8
VISIBLE
10
235.619398
20
113.000000
30
0.0
11
235.157348
21
113.000000
31
0.0
0
LINE
8
VISIBLE
10
235.903926
20
111.000000
30
0.0
11
235.903926
21
113.000000
31
0.0
0
LINE
8
VISIBLE
10
235.903926
20
113.000000
30
0.0
11
235.619398
21
113.000000
31
0.0
0
LINE
8
VISIBLE
10
236.000000
20
113.000000
30
0.0
11
235.903926
21
113.000000
31
0.0
0
LINE
8
VISIBLE
10
198.600000
20
117.000000
30
0.0
11
195.400000
21
117.000000
31
0.0
0
LINE
8
VISIBLE
10
230.600000
20
117.000000
30
0.0
11
227.400000
21
117.000000
31
0.0
0
LINE
8
VISIBLE
10
195.400000
20
117.000000
30
0.0
11
195.200995
21
113.000000
31
0.0
0
LINE
8
VISIBLE
10
198.600000
20
117.000000
30
0.0
11
198.799005
21
113.000000
31
0.0
0
LINE
8
VISIBLE
10
227.400000
20
117.000000
30
0.0
11
227.200995
21
113.000000
31
0.0
0
LINE
8
VISIBLE
10
230.600000
20
117.000000
30
0.0
11
230.799005
21
113.000000
31
0.0
0
LINE
8
SECTION
10
233.200000
20
111.000000
30
0.0
11
233.200000
21
113.000000
31
0.0
0
LINE
8
SECTION
10
233.200000
20
113.000000
30
0.0
11
236.000000
21
113.000000
31
0.0
0
LINE
8
SECTION
10
236.000000
20
111.000000
30
0.0
11
236.000000
21
113.000000
31
0.0
0
LINE
8
SECTION
10
233.200000
20
111.000000
30
0.0
11
236.000000
21
111.000000
31
0.0
0
LINE
8
SECTION
10
197.200000
20
111.000000
30
0.0
11
197.200000
21
113.000000
31
0.0
0
LINE
8
SECTION
10
197.200000
20
113.000000
30
0.0
11
228.800000
21
113.000000
31
0.0
0
LINE
8
SECTION
10
228.800000
20
111.000000
30
0.0
11
228.800000
21
113.000000
31
0.0
0
LINE
8
SECTION
10
197.200000
20
111.000000
30
0.0
11
228.800000
21
111.000000
31
0.0
0
LINE
8
SECTION
10
190.000000
20
113.000000
30
0.0
11
190.000000
21
111.000000
31
0.0
0
LINE
8
SECTION
10
190.000000
20
113.000000
30
0.0
11
192.800000
21
113.000000
31
0.0
0
LINE
8
SECTION
10
192.800000
20
111.000000
30
0.0
11
192.800000
21
113.000000
31
0.0
0
LINE
8
SECTION
10
190.000000
20
111.000000
30
0.0
11
192.800000
21
111.000000
31
0.0
0
LINE
8
CENTER
10
107.200000
20
148.000000
30
0.0
11
110.230000
21
148.000000
31
0.0
0
LINE
8
CENTER
10
111.770000
20
148.000000
30
0.0
11
114.800000
21
148.000000
31
0.0
0
LINE
8
CENTER
10
111.000000
20
144.200000
30
0.0
11
111.000000
21
147.230000
31
0.0
0
LINE
8
CENTER
10
111.000000
20
148.770000
30
0.0
11
111.000000
21
151.800000
31
0.0
0
LINE
8
CENTER
10
143.200000
20
148.000000
30
0.0
11
146.230000
21
148.000000
31
0.0
0
LINE
8
CENTER
10
147.770000
20
148.000000
30
0.0
11
150.800000
21
148.000000
31
0.0
0
LINE
8
CENTER
10
147.000000
20
144.200000
30
0.0
11
147.000000
21
147.230000
31
0.0
0
LINE
8
CENTER
10
147.000000
20
148.770000
30
0.0
11
147.000000
21
151.800000
31
0.0
0
LINE
8
CENTER
10
108.400000
20
123.000000
30
0.0
11
127.800000
21
123.000000
31
0.0
0
LINE
8
CENTER
10
130.200000
20
123.000000
30
0.0
11
149.600000
21
123.000000
31
0.0
0
LINE
8
CENTER
10
129.000000
20
102.400000
30
0.0
11
129.000000
21
121.800000
31
0.0
0
LINE
8
CENTER
10
129.000000
20
124.200000
30
0.0
11
129.000000
21
143.600000
31
0.0
0
LINE
8
CENTER
10
109.200000
20
78.000000
30
0.0
11
112.230000
21
78.000000
31
0.0
0
LINE
8
CENTER
10
113.770000
20
78.000000
30
0.0
11
116.800000
21
78.000000
31
0.0
0
LINE
8
CENTER
10
113.000000
20
74.200000
30
0.0
11
113.000000
21
77.230000
31
0.0
0
LINE
8
CENTER
10
113.000000
20
78.770000
30
0.0
11
113.000000
21
81.800000
31
0.0
0
LINE
8
CENTER
10
141.200000
20
78.000000
30
0.0
11
144.230000
21
78.000000
31
0.0
0
LINE
8
CENTER
10
145.770000
20
78.000000
30
0.0
11
148.800000
21
78.000000
31
0.0
0
LINE
8
CENTER
10
145.000000
20
74.200000
30
0.0
11
145.000000
21
77.230000
31
0.0
0
LINE
8
CENTER
10
145.000000
20
78.770000
30
0.0
11
145.000000
21
81.800000
31
0.0
0
LINE
8
DIM
10
106.000000
20
72.800000
30
0.0
11
106.000000
21
51.000000
31
0.0
0
LINE
8
DIM
10
152.000000
20
72.800000
30
0.0
11
152.000000
21
51.000000
31
0.0
0
LINE
8
DIM
10
106.000000
20
53.000000
30
0.0
11
152.000000
21
53.000000
31
0.0
0
SOLID
8
DIM
10
106.000000
20
53.000000
30
0.0
11
109.200000
21
52.392000
31
0.0
12
109.200000
22
53.608000
32
0.0
13
109.200000
23
53.608000
33
0.0
0
SOLID
8
DIM
10
152.000000
20
53.000000
30
0.0
11
148.800000
21
53.608000
31
0.0
12
148.800000
22
52.392000
32
0.0
13
148.800000
23
52.392000
33
0.0
0
TEXT
8
TEXT
10
129.000000
20
54.000000
30
0.0
40
2.5000
1
23.00
72
1
73
0
11
129.000000
21
54.000000
31
0.0
0
LINE
8
DIM
10
104.800000
20
74.000000
30
0.0
11
83.000000
21
74.000000
31
0.0
0
LINE
8
DIM
10
104.800000
20
154.000000
30
0.0
11
83.000000
21
154.000000
31
0.0
0
LINE
8
DIM
10
85.000000
20
74.000000
30
0.0
11
85.000000
21
154.000000
31
0.0
0
SOLID
8
DIM
10
85.000000
20
74.000000
30
0.0
11
85.608000
21
77.200000
31
0.0
12
84.392000
22
77.200000
32
0.0
13
84.392000
23
77.200000
33
0.0
0
SOLID
8
DIM
10
85.000000
20
154.000000
30
0.0
11
84.392000
21
150.800000
31
0.0
12
85.608000
22
150.800000
32
0.0
13
85.608000
23
150.800000
33
0.0
0
TEXT
8
TEXT
10
84.000000
20
114.000000
30
0.0
40
2.5000
1
40.00
50
90.0000
72
1
73
0
11
84.000000
21
114.000000
31
0.0
0
SOLID
8
DIM
10
112.354455
20
149.733624
30
0.0
11
114.803683
21
151.880936
31
0.0
12
113.845461
22
152.629580
32
0.0
13
113.845461
23
152.629580
33
0.0
0
LINE
8
DIM
10
112.354455
20
149.733624
30
0.0
11
121.156713
21
161.000000
31
0.0
0
LINE
8
DIM
10
121.156713
20
161.000000
30
0.0
11
126.156713
21
161.000000
31
0.0
0
TEXT
8
TEXT
10
126.956713
20
162.000000
30
0.0
40
2.5000
1
4x Ø2.20 THRU
0
SOLID
8
DIM
10
140.697568
20
137.972204
30
0.0
11
143.146795
21
140.119517
31
0.0
12
142.188574
22
140.868161
32
0.0
13
142.188574
23
140.868161
33
0.0
0
LINE
8
DIM
10
140.697568
20
137.972204
30
0.0
11
163.474228
21
167.125000
31
0.0
0
LINE
8
DIM
10
163.474228
20
167.125000
30
0.0
11
168.474228
21
167.125000
31
0.0
0
TEXT
8
TEXT
10
169.274228
20
168.125000
30
0.0
40
2.5000
1
Ø19.00 THRU
0
LINE
8
DIM
10
145.800000
20
148.000000
30
0.0
11
76.000000
21
148.000000
31
0.0
0
LINE
8
DIM
10
143.800000
20
78.000000
30
0.0
11
76.000000
21
78.000000
31
0.0
0
LINE
8
DIM
10
78.000000
20
78.000000
30
0.0
11
78.000000
21
148.000000
31
0.0
0
SOLID
8
DIM
10
78.000000
20
78.000000
30
0.0
11
78.608000
21
81.200000
31
0.0
12
77.392000
22
81.200000
32
0.0
13
77.392000
23
81.200000
33
0.0
0
SOLID
8
DIM
10
78.000000
20
148.000000
30
0.0
11
77.392000
21
144.800000
31
0.0
12
78.608000
22
144.800000
32
0.0
13
78.608000
23
144.800000
33
0.0
0
TEXT
8
TEXT
10
77.000000
20
113.000000
30
0.0
40
2.5000
1
35.00
50
90.0000
72
1
73
0
11
77.000000
21
113.000000
31
0.0
0
TEXT
8
TEXT
10
129.000000
20
41.000000
30
0.0
40
4.0000
1
FRONT VIEW
72
1
73
0
11
129.000000
21
41.000000
31
0.0
0
LINE
8
TEXT
10
117.000000
20
39.400000
30
0.0
11
141.000000
21
39.400000
31
0.0
0
TEXT
8
TEXT
10
129.000000
20
35.000000
30
0.0
40
2.4000
1
-X →   Z ↑
72
1
73
0
11
129.000000
21
35.000000
31
0.0
0
LINE
8
DIM
10
106.000000
20
215.800000
30
0.0
11
106.000000
21
203.000000
31
0.0
0
LINE
8
DIM
10
152.000000
20
215.800000
30
0.0
11
152.000000
21
203.000000
31
0.0
0
LINE
8
DIM
10
106.000000
20
205.000000
30
0.0
11
152.000000
21
205.000000
31
0.0
0
SOLID
8
DIM
10
106.000000
20
205.000000
30
0.0
11
109.200000
21
204.392000
31
0.0
12
109.200000
22
205.608000
32
0.0
13
109.200000
23
205.608000
33
0.0
0
SOLID
8
DIM
10
152.000000
20
205.000000
30
0.0
11
148.800000
21
205.608000
31
0.0
12
148.800000
22
204.392000
32
0.0
13
148.800000
23
204.392000
33
0.0
0
TEXT
8
TEXT
10
129.000000
20
206.000000
30
0.0
40
2.5000
1
23.00
72
1
73
0
11
129.000000
21
206.000000
31
0.0
0
LINE
8
DIM
10
104.800000
20
217.000000
30
0.0
11
92.000000
21
217.000000
31
0.0
0
LINE
8
DIM
10
104.800000
20
223.000000
30
0.0
11
92.000000
21
223.000000
31
0.0
0
LINE
8
DIM
10
94.000000
20
217.000000
30
0.0
11
94.000000
21
223.000000
31
0.0
0
SOLID
8
DIM
10
94.000000
20
217.000000
30
0.0
11
93.392000
21
213.800000
31
0.0
12
94.608000
22
213.800000
32
0.0
13
94.608000
23
213.800000
33
0.0
0
SOLID
8
DIM
10
94.000000
20
223.000000
30
0.0
11
94.608000
21
226.200000
31
0.0
12
93.392000
22
226.200000
32
0.0
13
93.392000
23
226.200000
33
0.0
0
LINE
8
DIM
10
94.000000
20
223.000000
30
0.0
11
94.000000
21
232.600000
31
0.0
0
TEXT
8
TEXT
10
93.000000
20
233.400000
30
0.0
40
2.5000
1
3.00
50
90.0000
0
TEXT
8
TEXT
10
129.000000
20
193.000000
30
0.0
40
4.0000
1
TOP VIEW
72
1
73
0
11
129.000000
21
193.000000
31
0.0
0
LINE
8
TEXT
10
119.400000
20
191.400000
30
0.0
11
138.600000
21
191.400000
31
0.0
0
TEXT
8
TEXT
10
129.000000
20
187.000000
30
0.0
40
2.4000
1
X →   Y ↑
72
1
73
0
11
129.000000
21
187.000000
31
0.0
0
LINE
8
DIM
10
190.000000
20
109.800000
30
0.0
11
190.000000
21
97.000000
31
0.0
0
LINE
8
DIM
10
236.000000
20
109.800000
30
0.0
11
236.000000
21
97.000000
31
0.0
0
LINE
8
DIM
10
190.000000
20
99.000000
30
0.0
11
236.000000
21
99.000000
31
0.0
0
SOLID
8
DIM
10
190.000000
20
99.000000
30
0.0
11
193.200000
21
98.392000
31
0.0
12
193.200000
22
99.608000
32
0.0
13
193.200000
23
99.608000
33
0.0
0
SOLID
8
DIM
10
236.000000
20
99.000000
30
0.0
11
232.800000
21
99.608000
31
0.0
12
232.800000
22
98.392000
32
0.0
13
232.800000
23
98.392000
33
0.0
0
TEXT
8
TEXT
10
213.000000
20
100.000000
30
0.0
40
2.5000
1
23.00
72
1
73
0
11
213.000000
21
100.000000
31
0.0
0
LINE
8
DIM
10
188.800000
20
111.000000
30
0.0
11
176.000000
21
111.000000
31
0.0
0
LINE
8
DIM
10
188.800000
20
117.000000
30
0.0
11
176.000000
21
117.000000
31
0.0
0
LINE
8
DIM
10
178.000000
20
111.000000
30
0.0
11
178.000000
21
117.000000
31
0.0
0
SOLID
8
DIM
10
178.000000
20
111.000000
30
0.0
11
177.392000
21
107.800000
31
0.0
12
178.608000
22
107.800000
32
0.0
13
178.608000
23
107.800000
33
0.0
0
SOLID
8
DIM
10
178.000000
20
117.000000
30
0.0
11
178.608000
21
120.200000
31
0.0
12
177.392000
22
120.200000
32
0.0
13
177.392000
23
120.200000
33
0.0
0
LINE
8
DIM
10
178.000000
20
117.000000
30
0.0
11
178.000000
21
126.600000
31
0.0
0
TEXT
8
TEXT
10
177.000000
20
127.400000
30
0.0
40
2.5000
1
3.00
50
90.0000
0
LINE
8
HATCH
10
235.999997
20
111.000000
30
0.0
11
236.000000
21
111.000003
31
0.0
0
LINE
8
HATCH
10
233.200000
20
112.442644
30
0.0
11
233.757356
21
113.000000
31
0.0
0
LINE
8
HATCH
10
228.799997
20
111.000000
30
0.0
11
228.800000
21
111.000003
31
0.0
0
LINE
8
HATCH
10
224.557356
20
111.000000
30
0.0
11
226.557356
21
113.000000
31
0.0
0
LINE
8
HATCH
10
220.314716
20
111.000000
30
0.0
11
222.314716
21
113.000000
31
0.0
0
LINE
8
HATCH
10
216.072075
20
111.000000
30
0.0
11
218.072075
21
113.000000
31
0.0
0
LINE
8
HATCH
10
211.829434
20
111.000000
30
0.0
11
213.829434
21
113.000000
31
0.0
0
LINE
8
HATCH
10
207.586794
20
111.000000
30
0.0
11
209.586794
21
113.000000
31
0.0
0
LINE
8
HATCH
10
203.344153
20
111.000000
30
0.0
11
205.344153
21
113.000000
31
0.0
0
LINE
8
HATCH
10
199.101512
20
111.000000
30
0.0
11
201.101512
21
113.000000
31
0.0
0
LINE
8
HATCH
10
192.799997
20
111.000000
30
0.0
11
192.800000
21
111.000003
31
0.0
0
LINE
8
HATCH
10
190.000000
20
112.442644
30
0.0
11
190.557356
21
113.000000
31
0.0
0
LINE
8
DIM
10
236.816665
20
111.000000
30
0.0
11
247.000000
21
111.000000
31
0.0
0
LINE
8
DIM
10
236.816665
20
113.000000
30
0.0
11
247.000000
21
113.000000
31
0.0
0
LINE
8
DIM
10
245.000000
20
111.000000
30
0.0
11
245.000000
21
113.000000
31
0.0
0
SOLID
8
DIM
10
245.000000
20
111.000000
30
0.0
11
244.392000
21
107.800000
31
0.0
12
245.608000
22
107.800000
32
0.0
13
245.608000
23
107.800000
33
0.0
0
SOLID
8
DIM
10
245.000000
20
113.000000
30
0.0
11
245.608000
21
116.200000
31
0.0
12
244.392000
22
116.200000
32
0.0
13
244.392000
23
116.200000
33
0.0
0
LINE
8
DIM
10
245.000000
20
113.000000
30
0.0
11
245.000000
21
122.600000
31
0.0
0
TEXT
8
TEXT
10
244.000000
20
123.400000
30
0.0
40
2.5000
1
1.00 WALL
50
90.0000
0
LINE
8
DIM
10
190.000000
20
112.216669
30
0.0
11
190.000000
21
126.000000
31
0.0
0
LINE
8
DIM
10
192.800000
20
112.216669
30
0.0
11
192.800000
21
126.000000
31
0.0
0
LINE
8
DIM
10
190.000000
20
124.000000
30
0.0
11
192.800000
21
124.000000
31
0.0
0
SOLID
8
DIM
10
190.000000
20
124.000000
30
0.0
11
186.800000
21
124.608000
31
0.0
12
186.800000
22
123.392000
32
0.0
13
186.800000
23
123.392000
33
0.0
0
SOLID
8
DIM
10
192.800000
20
124.000000
30
0.0
11
196.000000
21
123.392000
31
0.0
12
196.000000
22
124.608000
32
0.0
13
196.000000
23
124.608000
33
0.0
0
LINE
8
DIM
10
192.800000
20
124.000000
30
0.0
11
202.400000
21
124.000000
31
0.0
0
TEXT
8
TEXT
10
203.200000
20
124.400000
30
0.0
40
2.5000
1
1.40 WALL
0
TEXT
8
TEXT
10
213.000000
20
87.000000
30
0.0
40
4.0000
1
SECTION A-A
72
1
73
0
11
213.000000
21
87.000000
31
0.0
0
LINE
8
TEXT
10
199.800000
20
85.400000
30
0.0
11
226.200000
21
85.400000
31
0.0
0
LINE
8
CUT
10
97.000000
20
148.000000
30
0.0
11
111.000000
21
148.000000
31
0.0
0
LINE
8
CUTTHIN
10
111.000000
20
148.000000
30
0.0
11
147.000000
21
148.000000
31
0.0
0
LINE
8
CUT
10
147.000000
20
148.000000
30
0.0
11
161.000000
21
148.000000
31
0.0
0
LINE
8
CUT
10
97.000000
20
148.000000
30
0.0
11
97.000000
21
139.000000
31
0.0
0
SOLID
8
CUT
10
97.000000
20
139.000000
30
0.0
11
97.798000
21
143.200000
31
0.0
12
96.202000
22
143.200000
32
0.0
13
96.202000
23
143.200000
33
0.0
0
TEXT
8
TEXT
10
97.000000
20
153.000000
30
0.0
40
4.0000
1
A
72
1
73
2
11
97.000000
21
153.000000
31
0.0
0
LINE
8
CUT
10
161.000000
20
148.000000
30
0.0
11
161.000000
21
139.000000
31
0.0
0
SOLID
8
CUT
10
161.000000
20
139.000000
30
0.0
11
161.798000
21
143.200000
31
0.0
12
160.202000
22
143.200000
32
0.0
13
160.202000
23
143.200000
33
0.0
0
TEXT
8
TEXT
10
161.000000
20
153.000000
30
0.0
40
4.0000
1
A
72
1
73
2
11
161.000000
21
153.000000
31
0.0
0
TEXT
8
TEXT
10
334.000000
20
276.500000
30
0.0
40
3.0000
1
HOLE TABLE — 5 POSITIONS
0
LINE
8
TITLE
10
334.000000
20
274.000000
30
0.0
11
389.920000
21
274.000000
31
0.0
0
TEXT
8
TITLE
10
335.500000
20
271.530000
30
0.0
40
2.2000
1
TAG
0
TEXT
8
TITLE
10
342.460000
20
271.530000
30
0.0
40
2.2000
1
SIZE
0
TEXT
8
TITLE
10
359.980000
20
271.530000
30
0.0
40
2.2000
1
X
0
TEXT
8
TITLE
10
369.580000
20
271.530000
30
0.0
40
2.2000
1
Z
0
TEXT
8
TITLE
10
380.500000
20
271.530000
30
0.0
40
2.2000
1
C'BORE
0
LINE
8
TITLE
10
334.000000
20
269.930000
30
0.0
11
389.920000
21
269.930000
31
0.0
0
TEXT
8
TEXT
10
335.500000
20
267.460000
30
0.0
40
2.2000
1
A1
0
TEXT
8
TEXT
10
342.460000
20
267.460000
30
0.0
40
2.2000
1
Ø2.20 THRU
0
TEXT
8
TEXT
10
359.980000
20
267.460000
30
0.0
40
2.2000
1
26.50
0
TEXT
8
TEXT
10
369.580000
20
267.460000
30
0.0
40
2.2000
1
12.50
0
TEXT
8
TEXT
10
380.500000
20
267.460000
30
0.0
40
2.2000
1
-
0
TEXT
8
TEXT
10
335.500000
20
263.390000
30
0.0
40
2.2000
1
A2
0
TEXT
8
TEXT
10
342.460000
20
263.390000
30
0.0
40
2.2000
1
Ø2.20 THRU
0
TEXT
8
TEXT
10
359.980000
20
263.390000
30
0.0
40
2.2000
1
8.50
0
TEXT
8
TEXT
10
369.580000
20
263.390000
30
0.0
40
2.2000
1
12.50
0
TEXT
8
TEXT
10
380.500000
20
263.390000
30
0.0
40
2.2000
1
-
0
TEXT
8
TEXT
10
335.500000
20
259.320000
30
0.0
40
2.2000
1
A3
0
TEXT
8
TEXT
10
342.460000
20
259.320000
30
0.0
40
2.2000
1
Ø19.00 THRU
0
TEXT
8
TEXT
10
359.980000
20
259.320000
30
0.0
40
2.2000
1
17.50
0
TEXT
8
TEXT
10
369.580000
20
259.320000
30
0.0
40
2.2000
1
0.00
0
TEXT
8
TEXT
10
380.500000
20
259.320000
30
0.0
40
2.2000
1
-
0
TEXT
8
TEXT
10
335.500000
20
255.250000
30
0.0
40
2.2000
1
A4
0
TEXT
8
TEXT
10
342.460000
20
255.250000
30
0.0
40
2.2000
1
Ø2.20 THRU
0
TEXT
8
TEXT
10
359.980000
20
255.250000
30
0.0
40
2.2000
1
25.50
0
TEXT
8
TEXT
10
369.580000
20
255.250000
30
0.0
40
2.2000
1
-22.50
0
TEXT
8
TEXT
10
380.500000
20
255.250000
30
0.0
40
2.2000
1
-
0
TEXT
8
TEXT
10
335.500000
20
251.180000
30
0.0
40
2.2000
1
A5
0
TEXT
8
TEXT
10
342.460000
20
251.180000
30
0.0
40
2.2000
1
Ø2.20 THRU
0
TEXT
8
TEXT
10
359.980000
20
251.180000
30
0.0
40
2.2000
1
9.50
0
TEXT
8
TEXT
10
369.580000
20
251.180000
30
0.0
40
2.2000
1
-22.50
0
TEXT
8
TEXT
10
380.500000
20
251.180000
30
0.0
40
2.2000
1
-
0
LINE
8
TITLE
10
334.000000
20
249.580000
30
0.0
11
389.920000
21
249.580000
31
0.0
0
LINE
8
TITLE
10
340.960000
20
249.580000
30
0.0
11
340.960000
21
274.000000
31
0.0
0
LINE
8
TITLE
10
358.480000
20
249.580000
30
0.0
11
358.480000
21
274.000000
31
0.0
0
LINE
8
TITLE
10
368.080000
20
249.580000
30
0.0
11
368.080000
21
274.000000
31
0.0
0
LINE
8
TITLE
10
379.000000
20
249.580000
30
0.0
11
379.000000
21
274.000000
31
0.0
0
LINE
8
TITLE
10
389.920000
20
249.580000
30
0.0
11
389.920000
21
274.000000
31
0.0
0
LINE
8
TITLE
10
334.000000
20
249.580000
30
0.0
11
334.000000
21
274.000000
31
0.0
0
TEXT
8
TITLE
10
334.000000
20
245.580000
30
0.0
40
1.7585
1
every row measured off the solid; positions are model
0
TEXT
8
TITLE
10
334.000000
20
242.942264
30
0.0
40
1.7585
1
coordinates, mm. C'BORE side is the face it opens on.
0
TEXT
8
TEXT
10
334.000000
20
233.304528
30
0.0
40
3.0000
1
NOTES
0
TEXT
8
TEXT
10
334.000000
20
228.704528
30
0.0
40
2.4000
1
1. ALL DIMENSIONS IN mm AND DEGREES. EVERY
0
TEXT
8
TEXT
10
334.000000
20
224.984528
30
0.0
40
2.4000
1
   DIMENSION AND EVERY HOLE CALLOUT WAS MEASURED
0
TEXT
8
TEXT
10
334.000000
20
221.264528
30
0.0
40
2.4000
1
   OFF THE SOLID.
0
TEXT
8
TEXT
10
334.000000
20
217.544528
30
0.0
40
2.4000
1
2. GENERAL TOLERANCE: CANNOT DETERMINE — THIS PART
0
TEXT
8
TEXT
10
334.000000
20
213.824528
30
0.0
40
2.4000
1
   DECLARES NO PROCESS THIS REPO CAN READ.
0
TEXT
8
TEXT
10
334.000000
20
210.104528
30
0.0
40
2.4000
1
3. SECTION A-A AT Z=12.50: THINNEST MATERIAL FOUND
0
TEXT
8
TEXT
10
334.000000
20
206.384528
30
0.0
40
2.4000
1
   BY SCAN 1.00 mm, AT X=28.81, Y=-14.00.
0
LINE
8
FRAME
10
224.000000
20
10.000000
30
0.0
11
410.000000
21
10.000000
31
0.0
0
LINE
8
FRAME
10
410.000000
20
10.000000
30
0.0
11
410.000000
21
66.000000
31
0.0
0
LINE
8
FRAME
10
410.000000
20
66.000000
30
0.0
11
224.000000
21
66.000000
31
0.0
0
LINE
8
FRAME
10
224.000000
20
66.000000
30
0.0
11
224.000000
21
10.000000
31
0.0
0
LINE
8
TITLE
10
224.000000
20
53.000000
30
0.0
11
410.000000
21
53.000000
31
0.0
0
LINE
8
TITLE
10
224.000000
20
19.000000
30
0.0
11
410.000000
21
19.000000
31
0.0
0
LINE
8
TITLE
10
224.000000
20
27.500000
30
0.0
11
410.000000
21
27.500000
31
0.0
0
LINE
8
TITLE
10
224.000000
20
36.000000
30
0.0
11
410.000000
21
36.000000
31
0.0
0
LINE
8
TITLE
10
224.000000
20
44.500000
30
0.0
11
410.000000
21
44.500000
31
0.0
0
TEXT
8
TEXT
10
226.500000
20
59.500000
30
0.0
40
6.0000
1
MICRODUCK-BEARING-ROLL
72
0
73
2
11
226.500000
21
59.500000
31
0.0
0
LINE
8
TITLE
10
390.000000
20
53.000000
30
0.0
11
390.000000
21
66.000000
31
0.0
0
TEXT
8
TITLE
10
400.000000
20
63.600000
30
0.0
40
1.7000
1
REV
72
1
73
0
11
400.000000
21
63.600000
31
0.0
0
TEXT
8
TEXT
10
400.000000
20
55.000000
30
0.0
40
5.2000
1
A
72
1
73
0
11
400.000000
21
55.000000
31
0.0
0
LINE
8
TITLE
10
360.000000
20
53.000000
30
0.0
11
360.000000
21
66.000000
31
0.0
0
CIRCLE
8
TITLE
10
366.500000
20
59.500000
30
0.0
40
3.500000
0
CIRCLE
8
TITLE
10
366.500000
20
59.500000
30
0.0
40
1.960000
0
LINE
8
TITLE
10
376.300000
20
56.000000
30
0.0
11
376.300000
21
63.000000
31
0.0
0
LINE
8
TITLE
10
376.300000
20
63.000000
30
0.0
11
382.250000
21
61.460000
31
0.0
0
LINE
8
TITLE
10
382.250000
20
61.460000
30
0.0
11
382.250000
21
57.540000
31
0.0
0
LINE
8
TITLE
10
382.250000
20
57.540000
30
0.0
11
376.300000
21
56.000000
31
0.0
0
LINE
8
CENTER
10
361.500000
20
59.500000
30
0.0
11
383.750000
21
59.500000
31
0.0
0
LINE
8
TITLE
10
288.000000
20
19.000000
30
0.0
11
288.000000
21
53.000000
31
0.0
0
LINE
8
TITLE
10
352.000000
20
19.000000
30
0.0
11
352.000000
21
53.000000
31
0.0
0
TEXT
8
TITLE
10
225.600000
20
50.600000
30
0.0
40
1.7000
1
MATERIAL
0
TEXT
8
TEXT
10
225.600000
20
45.900000
30
0.0
40
2.5000
1
PLA
0
TEXT
8
TITLE
10
289.600000
20
50.600000
30
0.0
40
1.7000
1
PROCESS
0
TEXT
8
TEXT
10
289.600000
20
45.900000
30
0.0
40
2.5000
1
-
0
TEXT
8
TITLE
10
353.600000
20
50.600000
30
0.0
40
1.7000
1
SCALE
0
TEXT
8
TEXT
10
353.600000
20
45.900000
30
0.0
40
2.5000
1
2:1
0
TEXT
8
TITLE
10
225.600000
20
42.100000
30
0.0
40
1.7000
1
CATEGORY
0
TEXT
8
TEXT
10
225.600000
20
37.400000
30
0.0
40
2.5000
1
-
0
TEXT
8
TITLE
10
257.600000
20
42.100000
30
0.0
40
1.7000
1
GENERAL TOL
0
TEXT
8
TEXT
10
257.600000
20
37.400000
30
0.0
40
2.5000
1
SEE NOTES
0
LINE
8
TITLE
10
256.000000
20
36.000000
30
0.0
11
256.000000
21
44.500000
31
0.0
0
TEXT
8
TITLE
10
289.600000
20
42.100000
30
0.0
40
1.7000
1
FINISH
0
TEXT
8
TEXT
10
289.600000
20
37.400000
30
0.0
40
2.5000
1
AS PRINTED
0
TEXT
8
TITLE
10
353.600000
20
42.100000
30
0.0
40
1.7000
1
SHEET
0
TEXT
8
TEXT
10
353.600000
20
37.400000
30
0.0
40
2.5000
1
A3  1/1
0
TEXT
8
TITLE
10
225.600000
20
33.600000
30
0.0
40
1.7000
1
VOLUME (MEASURED)
0
TEXT
8
TEXT
10
225.600000
20
28.900000
30
0.0
40
2.5000
1
0.62 cm3
0
TEXT
8
TITLE
10
289.600000
20
33.600000
30
0.0
40
1.7000
1
MASS (ASSUMES PLA)
0
TEXT
8
TEXT
10
289.600000
20
28.900000
30
0.0
40
2.5000
1
0.8 g
0
TEXT
8
TITLE
10
353.600000
20
33.600000
30
0.0
40
1.7000
1
UNITS
0
TEXT
8
TEXT
10
353.600000
20
28.900000
30
0.0
40
2.5000
1
mm / deg
0
TEXT
8
TITLE
10
225.600000
20
25.100000
30
0.0
40
1.7000
1
SIZE (BBOX, MEASURED)
0
TEXT
8
TEXT
10
225.600000
20
20.400000
30
0.0
40
2.5000
1
23.00 x 3.00 x 40.00
0
TEXT
8
TITLE
10
289.600000
20
25.100000
30
0.0
40
1.7000
1
DRAWN
0
TEXT
8
TEXT
10
289.600000
20
20.400000
30
0.0
40
2.5000
1
ce-cad  2026-09-02
0
TEXT
8
TITLE
10
353.600000
20
25.100000
30
0.0
40
1.7000
1
PROJECTION
0
TEXT
8
TEXT
10
353.600000
20
20.400000
30
0.0
40
2.5000
1
THIRD ANGLE
0
TEXT
8
TITLE
10
225.600000
20
16.600000
30
0.0
40
1.7000
1
SOURCE (DESIGN FILE)
0
TEXT
8
TEXT
10
225.600000
20
11.400000
30
0.0
40
2.6000
1
ce-parts/microduck-bearing-roll/current/cad/part.py
0
TEXT
8
TEXT
10
12.500000
20
280.500000
30
0.0
40
4.2000
1
microduck-bearing-roll   SCALE 2:1   A3   THIRD ANGLE
0
ENDSEC
0
EOF
