0
SECTION
2
HEADER
9
$ACADVER
1
AC1009
9
$INSUNITS
70
4
9
$LTSCALE
40
1.0
9
$EXTMIN
10
0.0000
20
0.0000
30
0.0
9
$EXTMAX
10
841.0000
20
594.0000
30
0.0
0
ENDSEC
0
SECTION
2
TABLES
0
TABLE
2
LTYPE
70
4
0
LTYPE
2
CONTINUOUS
70
0
3
Solid line
72
65
73
0
40
0.0000
0
LTYPE
2
HIDDEN
70
0
3
Hidden __ __ __ __
72
65
73
2
40
3.6000
49
2.4000
49
-1.2000
0
LTYPE
2
CENTER
70
0
3
Center ____ _ ____ _
72
65
73
4
40
11.2000
49
7.0000
49
-1.4000
49
1.4000
49
-1.4000
0
LTYPE
2
PHANTOM
70
0
3
Phantom ____ _ _ ____
72
65
73
6
40
21.0000
49
11.0000
49
-2.0000
49
2.0000
49
-2.0000
49
2.0000
49
-2.0000
0
ENDTAB
0
TABLE
2
LAYER
70
12
0
LAYER
2
0
70
0
62
7
6
CONTINUOUS
0
LAYER
2
VISIBLE
70
0
62
7
6
CONTINUOUS
0
LAYER
2
SECTION
70
0
62
7
6
CONTINUOUS
0
LAYER
2
HIDDEN
70
0
62
8
6
HIDDEN
0
LAYER
2
CENTER
70
0
62
4
6
CENTER
0
LAYER
2
DIM
70
0
62
3
6
CONTINUOUS
0
LAYER
2
TEXT
70
0
62
3
6
CONTINUOUS
0
LAYER
2
HATCH
70
0
62
5
6
CONTINUOUS
0
LAYER
2
CUT
70
0
62
1
6
PHANTOM
0
LAYER
2
CUTTHIN
70
0
62
1
6
PHANTOM
0
LAYER
2
FRAME
70
0
62
7
6
CONTINUOUS
0
LAYER
2
TITLE
70
0
62
7
6
CONTINUOUS
0
ENDTAB
0
ENDSEC
0
SECTION
2
ENTITIES
0
LINE
8
TITLE
10
5.000000
20
5.000000
30
0.0
11
836.000000
21
5.000000
31
0.0
0
LINE
8
TITLE
10
836.000000
20
5.000000
30
0.0
11
836.000000
21
589.000000
31
0.0
0
LINE
8
TITLE
10
836.000000
20
589.000000
30
0.0
11
5.000000
21
589.000000
31
0.0
0
LINE
8
TITLE
10
5.000000
20
589.000000
30
0.0
11
5.000000
21
5.000000
31
0.0
0
LINE
8
FRAME
10
10.000000
20
10.000000
30
0.0
11
831.000000
21
10.000000
31
0.0
0
LINE
8
FRAME
10
831.000000
20
10.000000
30
0.0
11
831.000000
21
584.000000
31
0.0
0
LINE
8
FRAME
10
831.000000
20
584.000000
30
0.0
11
10.000000
21
584.000000
31
0.0
0
LINE
8
FRAME
10
10.000000
20
584.000000
30
0.0
11
10.000000
21
10.000000
31
0.0
0
TEXT
8
TITLE
10
61.312500
20
586.500000
30
0.0
40
2.4000
1
1
72
1
73
2
11
61.312500
21
586.500000
31
0.0
0
TEXT
8
TITLE
10
61.312500
20
7.500000
30
0.0
40
2.4000
1
1
72
1
73
2
11
61.312500
21
7.500000
31
0.0
0
TEXT
8
TITLE
10
163.937500
20
586.500000
30
0.0
40
2.4000
1
2
72
1
73
2
11
163.937500
21
586.500000
31
0.0
0
TEXT
8
TITLE
10
163.937500
20
7.500000
30
0.0
40
2.4000
1
2
72
1
73
2
11
163.937500
21
7.500000
31
0.0
0
LINE
8
TITLE
10
112.625000
20
5.000000
30
0.0
11
112.625000
21
10.000000
31
0.0
0
LINE
8
TITLE
10
112.625000
20
584.000000
30
0.0
11
112.625000
21
589.000000
31
0.0
0
TEXT
8
TITLE
10
266.562500
20
586.500000
30
0.0
40
2.4000
1
3
72
1
73
2
11
266.562500
21
586.500000
31
0.0
0
TEXT
8
TITLE
10
266.562500
20
7.500000
30
0.0
40
2.4000
1
3
72
1
73
2
11
266.562500
21
7.500000
31
0.0
0
LINE
8
TITLE
10
215.250000
20
5.000000
30
0.0
11
215.250000
21
10.000000
31
0.0
0
LINE
8
TITLE
10
215.250000
20
584.000000
30
0.0
11
215.250000
21
589.000000
31
0.0
0
TEXT
8
TITLE
10
369.187500
20
586.500000
30
0.0
40
2.4000
1
4
72
1
73
2
11
369.187500
21
586.500000
31
0.0
0
TEXT
8
TITLE
10
369.187500
20
7.500000
30
0.0
40
2.4000
1
4
72
1
73
2
11
369.187500
21
7.500000
31
0.0
0
LINE
8
TITLE
10
317.875000
20
5.000000
30
0.0
11
317.875000
21
10.000000
31
0.0
0
LINE
8
TITLE
10
317.875000
20
584.000000
30
0.0
11
317.875000
21
589.000000
31
0.0
0
TEXT
8
TITLE
10
471.812500
20
586.500000
30
0.0
40
2.4000
1
5
72
1
73
2
11
471.812500
21
586.500000
31
0.0
0
TEXT
8
TITLE
10
471.812500
20
7.500000
30
0.0
40
2.4000
1
5
72
1
73
2
11
471.812500
21
7.500000
31
0.0
0
LINE
8
TITLE
10
420.500000
20
5.000000
30
0.0
11
420.500000
21
10.000000
31
0.0
0
LINE
8
TITLE
10
420.500000
20
584.000000
30
0.0
11
420.500000
21
589.000000
31
0.0
0
TEXT
8
TITLE
10
574.437500
20
586.500000
30
0.0
40
2.4000
1
6
72
1
73
2
11
574.437500
21
586.500000
31
0.0
0
TEXT
8
TITLE
10
574.437500
20
7.500000
30
0.0
40
2.4000
1
6
72
1
73
2
11
574.437500
21
7.500000
31
0.0
0
LINE
8
TITLE
10
523.125000
20
5.000000
30
0.0
11
523.125000
21
10.000000
31
0.0
0
LINE
8
TITLE
10
523.125000
20
584.000000
30
0.0
11
523.125000
21
589.000000
31
0.0
0
TEXT
8
TITLE
10
677.062500
20
586.500000
30
0.0
40
2.4000
1
7
72
1
73
2
11
677.062500
21
586.500000
31
0.0
0
TEXT
8
TITLE
10
677.062500
20
7.500000
30
0.0
40
2.4000
1
7
72
1
73
2
11
677.062500
21
7.500000
31
0.0
0
LINE
8
TITLE
10
625.750000
20
5.000000
30
0.0
11
625.750000
21
10.000000
31
0.0
0
LINE
8
TITLE
10
625.750000
20
584.000000
30
0.0
11
625.750000
21
589.000000
31
0.0
0
TEXT
8
TITLE
10
779.687500
20
586.500000
30
0.0
40
2.4000
1
8
72
1
73
2
11
779.687500
21
586.500000
31
0.0
0
TEXT
8
TITLE
10
779.687500
20
7.500000
30
0.0
40
2.4000
1
8
72
1
73
2
11
779.687500
21
7.500000
31
0.0
0
LINE
8
TITLE
10
728.375000
20
5.000000
30
0.0
11
728.375000
21
10.000000
31
0.0
0
LINE
8
TITLE
10
728.375000
20
584.000000
30
0.0
11
728.375000
21
589.000000
31
0.0
0
TEXT
8
TITLE
10
7.500000
20
67.400000
30
0.0
40
2.4000
1
E
72
1
73
2
11
7.500000
21
67.400000
31
0.0
0
TEXT
8
TITLE
10
833.500000
20
67.400000
30
0.0
40
2.4000
1
E
72
1
73
2
11
833.500000
21
67.400000
31
0.0
0
TEXT
8
TITLE
10
7.500000
20
182.200000
30
0.0
40
2.4000
1
D
72
1
73
2
11
7.500000
21
182.200000
31
0.0
0
TEXT
8
TITLE
10
833.500000
20
182.200000
30
0.0
40
2.4000
1
D
72
1
73
2
11
833.500000
21
182.200000
31
0.0
0
LINE
8
TITLE
10
5.000000
20
124.800000
30
0.0
11
10.000000
21
124.800000
31
0.0
0
LINE
8
TITLE
10
831.000000
20
124.800000
30
0.0
11
836.000000
21
124.800000
31
0.0
0
TEXT
8
TITLE
10
7.500000
20
297.000000
30
0.0
40
2.4000
1
C
72
1
73
2
11
7.500000
21
297.000000
31
0.0
0
TEXT
8
TITLE
10
833.500000
20
297.000000
30
0.0
40
2.4000
1
C
72
1
73
2
11
833.500000
21
297.000000
31
0.0
0
LINE
8
TITLE
10
5.000000
20
239.600000
30
0.0
11
10.000000
21
239.600000
31
0.0
0
LINE
8
TITLE
10
831.000000
20
239.600000
30
0.0
11
836.000000
21
239.600000
31
0.0
0
TEXT
8
TITLE
10
7.500000
20
411.800000
30
0.0
40
2.4000
1
B
72
1
73
2
11
7.500000
21
411.800000
31
0.0
0
TEXT
8
TITLE
10
833.500000
20
411.800000
30
0.0
40
2.4000
1
B
72
1
73
2
11
833.500000
21
411.800000
31
0.0
0
LINE
8
TITLE
10
5.000000
20
354.400000
30
0.0
11
10.000000
21
354.400000
31
0.0
0
LINE
8
TITLE
10
831.000000
20
354.400000
30
0.0
11
836.000000
21
354.400000
31
0.0
0
TEXT
8
TITLE
10
7.500000
20
526.600000
30
0.0
40
2.4000
1
A
72
1
73
2
11
7.500000
21
526.600000
31
0.0
0
TEXT
8
TITLE
10
833.500000
20
526.600000
30
0.0
40
2.4000
1
A
72
1
73
2
11
833.500000
21
526.600000
31
0.0
0
LINE
8
TITLE
10
5.000000
20
469.200000
30
0.0
11
10.000000
21
469.200000
31
0.0
0
LINE
8
TITLE
10
831.000000
20
469.200000
30
0.0
11
836.000000
21
469.200000
31
0.0
0
LINE
8
VISIBLE
10
234.050000
20
221.525000
30
0.0
11
225.550000
21
221.525000
31
0.0
0
LINE
8
VISIBLE
10
224.050000
20
221.525000
30
0.0
11
224.050000
21
226.525000
31
0.0
0
LINE
8
VISIBLE
10
224.050000
20
226.525000
30
0.0
11
229.050000
21
231.525000
31
0.0
0
LINE
8
VISIBLE
10
234.050000
20
231.525000
30
0.0
11
229.050000
21
231.525000
31
0.0
0
LINE
8
VISIBLE
10
234.050000
20
221.525000
30
0.0
11
234.050000
21
231.525000
31
0.0
0
LINE
8
VISIBLE
10
224.050000
20
221.525000
30
0.0
11
225.550000
21
221.525000
31
0.0
0
LINE
8
VISIBLE
10
224.050000
20
221.525000
30
0.0
11
64.050000
21
221.525000
31
0.0
0
LINE
8
VISIBLE
10
64.050000
20
221.525000
30
0.0
11
64.050000
21
226.525000
31
0.0
0
LINE
8
VISIBLE
10
224.050000
20
226.525000
30
0.0
11
64.050000
21
226.525000
31
0.0
0
LINE
8
VISIBLE
10
69.050000
20
231.525000
30
0.0
11
64.050000
21
226.525000
31
0.0
0
LINE
8
VISIBLE
10
229.050000
20
231.525000
30
0.0
11
69.050000
21
231.525000
31
0.0
0
CIRCLE
8
VISIBLE
10
111.550000
20
164.025000
30
0.0
40
15.000000
0
LINE
8
VISIBLE
10
64.050000
20
206.525000
30
0.0
11
64.050000
21
208.025000
31
0.0
0
LINE
8
VISIBLE
10
64.115769
20
206.525000
30
0.0
11
64.050000
21
206.525000
31
0.0
0
LINE
8
VISIBLE
10
225.550000
20
221.525000
30
0.0
11
225.550000
21
199.423800
31
0.0
0
LINE
8
VISIBLE
10
231.550000
20
206.525000
30
0.0
11
231.550000
21
221.525000
31
0.0
0
LINE
8
VISIBLE
10
231.550000
20
206.525000
30
0.0
11
225.550000
21
206.525000
31
0.0
0
LINE
8
VISIBLE
10
64.050000
20
208.025000
30
0.0
11
64.050000
21
221.525000
31
0.0
0
LINE
8
VISIBLE
10
64.335000
20
201.525000
30
0.0
11
64.050000
21
208.025000
31
0.0
0
LINE
8
VISIBLE
10
66.550000
20
164.025000
30
0.0
11
64.335000
21
201.525000
31
0.0
0
LINE
8
VISIBLE
10
140.150000
20
129.225000
30
0.0
11
139.387176
21
128.668365
31
0.0
0
LINE
8
VISIBLE
10
225.550000
20
199.423800
30
0.0
11
140.150000
21
129.225000
31
0.0
0
CIRCLE
8
VISIBLE
10
111.550000
20
164.025000
30
0.0
40
45.000000
0
CIRCLE
8
VISIBLE
10
111.550000
20
164.025000
30
0.0
40
40.000000
0
CIRCLE
8
VISIBLE
10
111.550000
20
164.025000
30
0.0
40
30.000000
0
ARC
8
VISIBLE
10
141.550000
20
164.025000
30
0.0
40
11.000000
50
100.563978
51
259.436022
0
ARC
8
VISIBLE
10
111.550000
20
134.025000
30
0.0
40
11.000000
50
10.563978
51
169.436022
0
ARC
8
VISIBLE
10
111.550000
20
194.025000
30
0.0
40
11.000000
50
190.563978
51
349.436022
0
ARC
8
VISIBLE
10
81.550000
20
164.025000
30
0.0
40
11.000000
50
280.563978
51
79.436022
0
ARC
8
VISIBLE
10
141.550000
20
164.025000
30
0.0
40
5.500000
50
95.259496
51
264.740504
0
ARC
8
VISIBLE
10
111.550000
20
134.025000
30
0.0
40
5.500000
50
5.259496
51
174.740504
0
ARC
8
VISIBLE
10
111.550000
20
194.025000
30
0.0
40
5.500000
50
185.259496
51
354.740504
0
ARC
8
VISIBLE
10
81.550000
20
164.025000
30
0.0
40
5.500000
50
275.259496
51
84.740504
0
LINE
8
HIDDEN
10
123.990000
20
221.525000
30
0.0
11
130.300000
21
221.525000
31
0.0
0
LINE
8
HIDDEN
10
70.360000
20
221.525000
30
0.0
11
123.990000
21
221.525000
31
0.0
0
LINE
8
HIDDEN
10
64.050000
20
221.525000
30
0.0
11
70.360000
21
221.525000
31
0.0
0
LINE
8
HIDDEN
10
64.050000
20
221.525000
30
0.0
11
130.300000
21
221.525000
31
0.0
0
LINE
8
HIDDEN
10
130.300000
20
221.525000
30
0.0
11
182.800000
21
221.525000
31
0.0
0
LINE
8
HIDDEN
10
182.800000
20
221.525000
30
0.0
11
225.550000
21
221.525000
31
0.0
0
LINE
8
HIDDEN
10
231.550000
20
221.525000
30
0.0
11
234.050000
21
221.525000
31
0.0
0
LINE
8
HIDDEN
10
182.800000
20
221.525000
30
0.0
11
231.550000
21
221.525000
31
0.0
0
LINE
8
HIDDEN
10
130.300000
20
221.525000
30
0.0
11
182.800000
21
221.525000
31
0.0
0
LINE
8
HIDDEN
10
217.800000
20
221.525000
30
0.0
11
230.300000
21
221.525000
31
0.0
0
LINE
8
HIDDEN
10
230.300000
20
221.525000
30
0.0
11
217.800000
21
221.525000
31
0.0
0
LINE
8
HIDDEN
10
67.800000
20
221.525000
30
0.0
11
80.300000
21
221.525000
31
0.0
0
LINE
8
HIDDEN
10
80.300000
20
221.525000
30
0.0
11
67.800000
21
221.525000
31
0.0
0
LINE
8
HIDDEN
10
217.800000
20
221.525000
30
0.0
11
230.300000
21
221.525000
31
0.0
0
LINE
8
HIDDEN
10
230.300000
20
221.525000
30
0.0
11
217.800000
21
221.525000
31
0.0
0
LINE
8
HIDDEN
10
67.800000
20
221.525000
30
0.0
11
80.300000
21
221.525000
31
0.0
0
LINE
8
HIDDEN
10
80.300000
20
221.525000
30
0.0
11
67.800000
21
221.525000
31
0.0
0
LINE
8
HIDDEN
10
194.140000
20
231.525000
30
0.0
11
182.800000
21
231.525000
31
0.0
0
LINE
8
HIDDEN
10
130.300000
20
231.525000
30
0.0
11
182.800000
21
231.525000
31
0.0
0
LINE
8
HIDDEN
10
130.300000
20
231.525000
30
0.0
11
172.800000
21
231.525000
31
0.0
0
LINE
8
HIDDEN
10
172.800000
20
231.525000
30
0.0
11
69.050000
21
231.525000
31
0.0
0
LINE
8
HIDDEN
10
69.050000
20
231.525000
30
0.0
11
85.550000
21
231.525000
31
0.0
0
LINE
8
HIDDEN
10
85.550000
20
231.525000
30
0.0
11
69.050000
21
231.525000
31
0.0
0
LINE
8
HIDDEN
10
69.050000
20
231.525000
30
0.0
11
85.550000
21
231.525000
31
0.0
0
LINE
8
HIDDEN
10
85.550000
20
231.525000
30
0.0
11
69.050000
21
231.525000
31
0.0
0
LINE
8
HIDDEN
10
224.050000
20
231.525000
30
0.0
11
234.050000
21
231.525000
31
0.0
0
LINE
8
HIDDEN
10
194.140000
20
231.525000
30
0.0
11
224.050000
21
231.525000
31
0.0
0
LINE
8
HIDDEN
10
217.800000
20
231.525000
30
0.0
11
230.300000
21
231.525000
31
0.0
0
LINE
8
HIDDEN
10
230.300000
20
231.525000
30
0.0
11
217.800000
21
231.525000
31
0.0
0
LINE
8
HIDDEN
10
130.300000
20
231.525000
30
0.0
11
182.800000
21
231.525000
31
0.0
0
LINE
8
HIDDEN
10
130.300000
20
231.525000
30
0.0
11
182.800000
21
231.525000
31
0.0
0
LINE
8
HIDDEN
10
217.800000
20
231.525000
30
0.0
11
230.300000
21
231.525000
31
0.0
0
LINE
8
HIDDEN
10
230.300000
20
231.525000
30
0.0
11
217.800000
21
231.525000
31
0.0
0
LINE
8
HIDDEN
10
130.300000
20
221.525000
30
0.0
11
130.300000
21
231.525000
31
0.0
0
LINE
8
HIDDEN
10
130.300000
20
221.575000
30
0.0
11
130.300000
21
231.525000
31
0.0
0
LINE
8
HIDDEN
10
130.300000
20
221.525000
30
0.0
11
130.300000
21
221.575000
31
0.0
0
LINE
8
HIDDEN
10
123.990000
20
206.525000
30
0.0
11
123.990000
21
221.525000
31
0.0
0
LINE
8
HIDDEN
10
130.300000
20
206.525000
30
0.0
11
130.300000
21
221.525000
31
0.0
0
LINE
8
HIDDEN
10
130.300000
20
206.525000
30
0.0
11
123.990000
21
206.525000
31
0.0
0
LINE
8
HIDDEN
10
123.990000
20
221.525000
30
0.0
11
123.990000
21
206.525000
31
0.0
0
LINE
8
HIDDEN
10
130.300000
20
221.525000
30
0.0
11
172.800000
21
221.525000
31
0.0
0
LINE
8
HIDDEN
10
130.300000
20
221.525000
30
0.0
11
130.300000
21
206.525000
31
0.0
0
LINE
8
HIDDEN
10
172.800000
20
221.525000
30
0.0
11
172.800000
21
156.063300
31
0.0
0
LINE
8
HIDDEN
10
130.300000
20
206.525000
30
0.0
11
123.990000
21
206.525000
31
0.0
0
LINE
8
HIDDEN
10
172.800000
20
156.063300
30
0.0
11
140.150000
21
129.225000
31
0.0
0
LINE
8
HIDDEN
10
140.150000
20
129.225000
30
0.0
11
136.728279
21
126.728160
31
0.0
0
LINE
8
HIDDEN
10
136.728279
20
126.728160
30
0.0
11
133.111917
21
124.527104
31
0.0
0
LINE
8
HIDDEN
10
70.360000
20
221.525000
30
0.0
11
70.360000
21
206.525000
31
0.0
0
LINE
8
HIDDEN
10
133.111917
20
124.527104
30
0.0
11
129.304716
21
122.675634
31
0.0
0
LINE
8
HIDDEN
10
70.360000
20
206.525000
30
0.0
11
64.115769
21
206.525000
31
0.0
0
LINE
8
HIDDEN
10
129.304716
20
122.675634
30
0.0
11
125.340373
21
121.190136
31
0.0
0
LINE
8
HIDDEN
10
64.335000
20
201.525000
30
0.0
11
64.115769
21
206.525000
31
0.0
0
LINE
8
HIDDEN
10
125.340373
20
121.190136
30
0.0
11
121.253975
21
120.083757
31
0.0
0
LINE
8
HIDDEN
10
121.253975
20
120.083757
30
0.0
11
117.081690
21
119.366290
31
0.0
0
LINE
8
HIDDEN
10
66.749141
20
159.796163
30
0.0
11
66.550000
21
164.025000
31
0.0
0
LINE
8
HIDDEN
10
117.081690
20
119.366290
30
0.0
11
112.860446
21
119.044085
31
0.0
0
LINE
8
HIDDEN
10
67.344803
20
155.604754
30
0.0
11
66.749141
21
159.796163
31
0.0
0
LINE
8
HIDDEN
10
112.860446
20
119.044085
30
0.0
11
108.627603
21
119.119994
31
0.0
0
LINE
8
HIDDEN
10
68.331712
20
151.487871
30
0.0
11
67.344803
21
155.604754
31
0.0
0
LINE
8
HIDDEN
10
108.627603
20
119.119994
30
0.0
11
104.420625
21
119.593344
31
0.0
0
LINE
8
HIDDEN
10
69.701135
20
147.481950
30
0.0
11
68.331712
21
151.487871
31
0.0
0
LINE
8
HIDDEN
10
104.420625
20
119.593344
30
0.0
11
100.276748
21
120.459948
31
0.0
0
LINE
8
HIDDEN
10
71.440951
20
143.622447
30
0.0
11
69.701135
21
147.481950
31
0.0
0
LINE
8
HIDDEN
10
100.276748
20
120.459948
30
0.0
11
96.232647
21
121.712133
31
0.0
0
LINE
8
HIDDEN
10
73.535761
20
139.943521
30
0.0
11
71.440951
21
143.622447
31
0.0
0
LINE
8
HIDDEN
10
96.232647
20
121.712133
30
0.0
11
92.324116
21
123.338818
31
0.0
0
LINE
8
HIDDEN
10
75.967024
20
136.477735
30
0.0
11
73.535761
21
139.943521
31
0.0
0
LINE
8
HIDDEN
10
92.324116
20
123.338818
30
0.0
11
88.585748
21
125.325606
31
0.0
0
LINE
8
HIDDEN
10
78.713223
20
133.255761
30
0.0
11
75.967024
21
136.477735
31
0.0
0
LINE
8
HIDDEN
10
88.585748
20
125.325606
30
0.0
11
85.050630
21
127.654911
31
0.0
0
LINE
8
HIDDEN
10
81.750051
20
130.306118
30
0.0
11
78.713223
21
133.255761
31
0.0
0
LINE
8
HIDDEN
10
85.050630
20
127.654911
30
0.0
11
81.750051
21
130.306118
31
0.0
0
LINE
8
HIDDEN
10
70.360000
20
206.525000
30
0.0
11
70.360000
21
221.525000
31
0.0
0
LINE
8
HIDDEN
10
70.360000
20
206.525000
30
0.0
11
64.115769
21
206.525000
31
0.0
0
LINE
8
HIDDEN
10
64.050000
20
221.525000
30
0.0
11
64.050000
21
221.575000
31
0.0
0
LINE
8
HIDDEN
10
64.050000
20
221.575000
30
0.0
11
64.050000
21
226.525000
31
0.0
0
LINE
8
HIDDEN
10
130.300000
20
221.525000
30
0.0
11
182.800000
21
221.525000
31
0.0
0
ARC
8
HIDDEN
10
111.550000
20
164.025000
30
0.0
40
45.000000
50
308.214256
51
90.000000
0
LINE
8
HIDDEN
10
130.300000
20
221.525000
30
0.0
11
130.300000
21
231.525000
31
0.0
0
LINE
8
HIDDEN
10
130.300000
20
221.525000
30
0.0
11
130.300000
21
231.525000
31
0.0
0
LINE
8
HIDDEN
10
182.800000
20
221.525000
30
0.0
11
182.800000
21
231.525000
31
0.0
0
LINE
8
HIDDEN
10
182.800000
20
221.525000
30
0.0
11
182.800000
21
231.525000
31
0.0
0
LINE
8
HIDDEN
10
224.050000
20
221.575000
30
0.0
11
231.550000
21
221.575000
31
0.0
0
LINE
8
HIDDEN
10
231.550000
20
221.525000
30
0.0
11
231.550000
21
221.575000
31
0.0
0
LINE
8
HIDDEN
10
224.050000
20
221.575000
30
0.0
11
224.050000
21
231.525000
31
0.0
0
LINE
8
HIDDEN
10
231.550000
20
206.525000
30
0.0
11
231.550000
21
221.575000
31
0.0
0
LINE
8
HIDDEN
10
182.800000
20
206.525000
30
0.0
11
182.800000
21
221.525000
31
0.0
0
LINE
8
HIDDEN
10
225.550000
20
206.525000
30
0.0
11
182.800000
21
206.525000
31
0.0
0
LINE
8
HIDDEN
10
182.800000
20
221.525000
30
0.0
11
182.800000
21
231.525000
31
0.0
0
LINE
8
HIDDEN
10
182.800000
20
221.575000
30
0.0
11
182.800000
21
231.525000
31
0.0
0
LINE
8
HIDDEN
10
182.800000
20
221.525000
30
0.0
11
182.800000
21
221.575000
31
0.0
0
LINE
8
HIDDEN
10
217.800000
20
221.525000
30
0.0
11
217.800000
21
231.525000
31
0.0
0
LINE
8
HIDDEN
10
67.800000
20
229.025000
30
0.0
11
80.300000
21
229.025000
31
0.0
0
LINE
8
HIDDEN
10
80.300000
20
229.025000
30
0.0
11
67.800000
21
229.025000
31
0.0
0
LINE
8
HIDDEN
10
67.800000
20
221.525000
30
0.0
11
67.800000
21
229.025000
31
0.0
0
LINE
8
HIDDEN
10
217.800000
20
221.525000
30
0.0
11
217.800000
21
231.525000
31
0.0
0
LINE
8
HIDDEN
10
67.800000
20
229.025000
30
0.0
11
80.300000
21
229.025000
31
0.0
0
LINE
8
HIDDEN
10
80.300000
20
229.025000
30
0.0
11
67.800000
21
229.025000
31
0.0
0
LINE
8
HIDDEN
10
67.800000
20
221.525000
30
0.0
11
67.800000
21
229.025000
31
0.0
0
LINE
8
HIDDEN
10
69.050000
20
231.525000
30
0.0
11
66.550000
21
229.025000
31
0.0
0
LINE
8
HIDDEN
10
66.550000
20
229.025000
30
0.0
11
69.050000
21
231.525000
31
0.0
0
LINE
8
HIDDEN
10
69.050000
20
231.525000
30
0.0
11
66.550000
21
229.025000
31
0.0
0
LINE
8
HIDDEN
10
66.550000
20
229.025000
30
0.0
11
69.050000
21
231.525000
31
0.0
0
LINE
8
HIDDEN
10
194.140000
20
226.525000
30
0.0
11
194.140000
21
231.525000
31
0.0
0
LINE
8
HIDDEN
10
194.140000
20
226.525000
30
0.0
11
182.800000
21
226.525000
31
0.0
0
LINE
8
HIDDEN
10
182.800000
20
226.525000
30
0.0
11
182.800000
21
231.525000
31
0.0
0
LINE
8
HIDDEN
10
182.800000
20
219.025000
30
0.0
11
182.800000
21
221.525000
31
0.0
0
LINE
8
HIDDEN
10
182.800000
20
221.525000
30
0.0
11
182.800000
21
221.575000
31
0.0
0
LINE
8
HIDDEN
10
182.800000
20
221.575000
30
0.0
11
182.800000
21
226.525000
31
0.0
0
LINE
8
HIDDEN
10
182.800000
20
221.525000
30
0.0
11
182.800000
21
221.575000
31
0.0
0
LINE
8
HIDDEN
10
182.800000
20
221.525000
30
0.0
11
182.800000
21
206.525000
31
0.0
0
LINE
8
HIDDEN
10
182.800000
20
206.525000
30
0.0
11
182.800000
21
219.025000
31
0.0
0
LINE
8
HIDDEN
10
130.300000
20
221.525000
30
0.0
11
130.300000
21
221.575000
31
0.0
0
LINE
8
HIDDEN
10
172.800000
20
221.525000
30
0.0
11
172.800000
21
231.525000
31
0.0
0
LINE
8
HIDDEN
10
130.300000
20
221.525000
30
0.0
11
172.800000
21
221.525000
31
0.0
0
LINE
8
HIDDEN
10
172.800000
20
221.525000
30
0.0
11
172.800000
21
206.525000
31
0.0
0
LINE
8
HIDDEN
10
172.800000
20
226.525000
30
0.0
11
172.800000
21
231.525000
31
0.0
0
LINE
8
HIDDEN
10
172.800000
20
221.575000
30
0.0
11
172.800000
21
226.525000
31
0.0
0
LINE
8
HIDDEN
10
172.800000
20
221.525000
30
0.0
11
172.800000
21
221.575000
31
0.0
0
LINE
8
HIDDEN
10
172.800000
20
221.525000
30
0.0
11
172.800000
21
206.525000
31
0.0
0
LINE
8
HIDDEN
10
172.800000
20
226.525000
30
0.0
11
64.050000
21
226.525000
31
0.0
0
LINE
8
HIDDEN
10
66.550000
20
229.025000
30
0.0
11
85.550000
21
229.025000
31
0.0
0
LINE
8
HIDDEN
10
85.550000
20
229.025000
30
0.0
11
66.550000
21
229.025000
31
0.0
0
LINE
8
HIDDEN
10
66.550000
20
229.025000
30
0.0
11
85.550000
21
229.025000
31
0.0
0
LINE
8
HIDDEN
10
85.550000
20
229.025000
30
0.0
11
66.550000
21
229.025000
31
0.0
0
LINE
8
HIDDEN
10
224.050000
20
221.575000
30
0.0
11
194.140000
21
221.575000
31
0.0
0
LINE
8
HIDDEN
10
194.140000
20
221.575000
30
0.0
11
194.140000
21
231.525000
31
0.0
0
LINE
8
HIDDEN
10
194.140000
20
221.575000
30
0.0
11
194.140000
21
226.525000
31
0.0
0
LINE
8
HIDDEN
10
172.800000
20
206.525000
30
0.0
11
172.800000
21
156.063300
31
0.0
0
LINE
8
HIDDEN
10
172.800000
20
206.525000
30
0.0
11
172.800000
21
219.025000
31
0.0
0
LINE
8
HIDDEN
10
172.800000
20
219.025000
30
0.0
11
172.800000
21
221.525000
31
0.0
0
LINE
8
HIDDEN
10
172.800000
20
156.063300
30
0.0
11
140.150000
21
129.225000
31
0.0
0
LINE
8
HIDDEN
10
139.387176
20
128.668365
30
0.0
11
136.728279
21
126.728160
31
0.0
0
LINE
8
HIDDEN
10
136.728279
20
126.728160
30
0.0
11
133.111917
21
124.527104
31
0.0
0
LINE
8
HIDDEN
10
133.111917
20
124.527104
30
0.0
11
129.304716
21
122.675634
31
0.0
0
LINE
8
HIDDEN
10
129.304716
20
122.675634
30
0.0
11
125.340373
21
121.190136
31
0.0
0
LINE
8
HIDDEN
10
64.335000
20
201.525000
30
0.0
11
64.115769
21
206.525000
31
0.0
0
LINE
8
HIDDEN
10
125.340373
20
121.190136
30
0.0
11
121.253975
21
120.083757
31
0.0
0
LINE
8
HIDDEN
10
121.253975
20
120.083757
30
0.0
11
117.081690
21
119.366290
31
0.0
0
LINE
8
HIDDEN
10
66.749141
20
159.796163
30
0.0
11
66.550000
21
164.025000
31
0.0
0
LINE
8
HIDDEN
10
117.081690
20
119.366290
30
0.0
11
112.860446
21
119.044085
31
0.0
0
LINE
8
HIDDEN
10
67.344803
20
155.604754
30
0.0
11
66.749141
21
159.796163
31
0.0
0
LINE
8
HIDDEN
10
112.860446
20
119.044085
30
0.0
11
108.627603
21
119.119994
31
0.0
0
LINE
8
HIDDEN
10
68.331712
20
151.487871
30
0.0
11
67.344803
21
155.604754
31
0.0
0
LINE
8
HIDDEN
10
108.627603
20
119.119994
30
0.0
11
104.420625
21
119.593344
31
0.0
0
LINE
8
HIDDEN
10
69.701135
20
147.481950
30
0.0
11
68.331712
21
151.487871
31
0.0
0
LINE
8
HIDDEN
10
104.420625
20
119.593344
30
0.0
11
100.276748
21
120.459948
31
0.0
0
LINE
8
HIDDEN
10
71.440951
20
143.622447
30
0.0
11
69.701135
21
147.481950
31
0.0
0
LINE
8
HIDDEN
10
100.276748
20
120.459948
30
0.0
11
96.232647
21
121.712133
31
0.0
0
LINE
8
HIDDEN
10
73.535761
20
139.943521
30
0.0
11
71.440951
21
143.622447
31
0.0
0
LINE
8
HIDDEN
10
96.232647
20
121.712133
30
0.0
11
92.324116
21
123.338818
31
0.0
0
LINE
8
HIDDEN
10
75.967024
20
136.477735
30
0.0
11
73.535761
21
139.943521
31
0.0
0
LINE
8
HIDDEN
10
92.324116
20
123.338818
30
0.0
11
88.585748
21
125.325606
31
0.0
0
LINE
8
HIDDEN
10
78.713223
20
133.255761
30
0.0
11
75.967024
21
136.477735
31
0.0
0
LINE
8
HIDDEN
10
88.585748
20
125.325606
30
0.0
11
85.050630
21
127.654911
31
0.0
0
LINE
8
HIDDEN
10
81.750051
20
130.306118
30
0.0
11
78.713223
21
133.255761
31
0.0
0
LINE
8
HIDDEN
10
85.050630
20
127.654911
30
0.0
11
81.750051
21
130.306118
31
0.0
0
CIRCLE
8
HIDDEN
10
141.550000
20
164.025000
30
0.0
40
11.000000
0
CIRCLE
8
HIDDEN
10
111.550000
20
134.025000
30
0.0
40
11.000000
0
CIRCLE
8
HIDDEN
10
111.550000
20
194.025000
30
0.0
40
11.000000
0
CIRCLE
8
HIDDEN
10
81.550000
20
164.025000
30
0.0
40
11.000000
0
LINE
8
HIDDEN
10
64.050000
20
221.525000
30
0.0
11
64.050000
21
221.575000
31
0.0
0
LINE
8
HIDDEN
10
64.050000
20
221.525000
30
0.0
11
64.050000
21
221.575000
31
0.0
0
LINE
8
HIDDEN
10
172.800000
20
221.575000
30
0.0
11
64.050000
21
221.575000
31
0.0
0
LINE
8
HIDDEN
10
231.550000
20
221.575000
30
0.0
11
224.050000
21
221.575000
31
0.0
0
LINE
8
HIDDEN
10
231.550000
20
206.525000
30
0.0
11
194.140000
21
206.525000
31
0.0
0
LINE
8
HIDDEN
10
194.140000
20
206.525000
30
0.0
11
194.140000
21
221.525000
31
0.0
0
LINE
8
HIDDEN
10
194.140000
20
221.525000
30
0.0
11
224.050000
21
221.525000
31
0.0
0
LINE
8
HIDDEN
10
224.050000
20
221.525000
30
0.0
11
224.050000
21
221.575000
31
0.0
0
LINE
8
HIDDEN
10
194.140000
20
206.525000
30
0.0
11
182.800000
21
206.525000
31
0.0
0
LINE
8
HIDDEN
10
194.140000
20
221.575000
30
0.0
11
182.800000
21
221.575000
31
0.0
0
LINE
8
HIDDEN
10
182.800000
20
221.525000
30
0.0
11
194.140000
21
221.525000
31
0.0
0
LINE
8
HIDDEN
10
194.140000
20
221.525000
30
0.0
11
194.140000
21
221.575000
31
0.0
0
LINE
8
HIDDEN
10
194.140000
20
206.525000
30
0.0
11
194.140000
21
221.525000
31
0.0
0
LINE
8
HIDDEN
10
194.140000
20
206.525000
30
0.0
11
182.800000
21
206.525000
31
0.0
0
LINE
8
HIDDEN
10
64.050000
20
221.525000
30
0.0
11
172.800000
21
221.525000
31
0.0
0
LINE
8
HIDDEN
10
64.050000
20
206.525000
30
0.0
11
64.050000
21
221.525000
31
0.0
0
LINE
8
HIDDEN
10
172.800000
20
206.525000
30
0.0
11
126.340199
21
206.525000
31
0.0
0
LINE
8
HIDDEN
10
96.759801
20
206.525000
30
0.0
11
64.050000
21
206.525000
31
0.0
0
LINE
8
HIDDEN
10
172.800000
20
206.525000
30
0.0
11
126.340199
21
206.525000
31
0.0
0
LINE
8
HIDDEN
10
194.140000
20
221.525000
30
0.0
11
194.140000
21
221.575000
31
0.0
0
LINE
8
HIDDEN
10
96.759801
20
206.525000
30
0.0
11
64.115769
21
206.525000
31
0.0
0
CIRCLE
8
HIDDEN
10
141.550000
20
164.025000
30
0.0
40
5.500000
0
CIRCLE
8
HIDDEN
10
111.550000
20
134.025000
30
0.0
40
5.500000
0
CIRCLE
8
HIDDEN
10
111.550000
20
194.025000
30
0.0
40
5.500000
0
CIRCLE
8
HIDDEN
10
81.550000
20
164.025000
30
0.0
40
5.500000
0
LINE
8
HIDDEN
10
230.300000
20
221.525000
30
0.0
11
230.300000
21
231.525000
31
0.0
0
LINE
8
HIDDEN
10
80.300000
20
221.525000
30
0.0
11
80.300000
21
229.025000
31
0.0
0
LINE
8
HIDDEN
10
230.300000
20
221.525000
30
0.0
11
230.300000
21
231.525000
31
0.0
0
LINE
8
HIDDEN
10
80.300000
20
221.525000
30
0.0
11
80.300000
21
229.025000
31
0.0
0
LINE
8
HIDDEN
10
85.550000
20
229.025000
30
0.0
11
85.550000
21
231.525000
31
0.0
0
LINE
8
HIDDEN
10
85.550000
20
229.025000
30
0.0
11
85.550000
21
231.525000
31
0.0
0
ARC
8
HIDDEN
10
141.550000
20
164.025000
30
0.0
40
11.000000
50
259.436022
51
100.563978
0
ARC
8
HIDDEN
10
111.550000
20
134.025000
30
0.0
40
11.000000
50
169.436022
51
10.563978
0
ARC
8
HIDDEN
10
111.550000
20
194.025000
30
0.0
40
11.000000
50
349.436022
51
190.563978
0
ARC
8
HIDDEN
10
81.550000
20
164.025000
30
0.0
40
11.000000
50
79.436022
51
280.563978
0
ARC
8
HIDDEN
10
111.550000
20
164.025000
30
0.0
40
45.000000
50
90.000000
51
180.000000
0
ARC
8
HIDDEN
10
111.550000
20
164.025000
30
0.0
40
45.000000
50
90.000000
51
180.000000
0
ARC
8
HIDDEN
10
111.550000
20
164.025000
30
0.0
40
45.000000
50
308.214256
51
90.000000
0
ARC
8
HIDDEN
10
141.550000
20
164.025000
30
0.0
40
5.500000
50
264.740504
51
95.259496
0
ARC
8
HIDDEN
10
111.550000
20
134.025000
30
0.0
40
5.500000
50
174.740504
51
5.259496
0
ARC
8
HIDDEN
10
111.550000
20
194.025000
30
0.0
40
5.500000
50
354.740504
51
185.259496
0
ARC
8
HIDDEN
10
81.550000
20
164.025000
30
0.0
40
5.500000
50
84.740504
51
275.259496
0
LINE
8
VISIBLE
10
64.050000
20
330.525000
30
0.0
11
72.550000
21
322.025000
31
0.0
0
LINE
8
VISIBLE
10
167.800000
20
415.525000
30
0.0
11
167.800000
21
435.525000
31
0.0
0
LINE
8
VISIBLE
10
234.050000
20
335.525000
30
0.0
11
234.050000
21
435.525000
31
0.0
0
LINE
8
VISIBLE
10
167.800000
20
335.575000
30
0.0
11
167.800000
21
355.525000
31
0.0
0
LINE
8
VISIBLE
10
167.800000
20
355.525000
30
0.0
11
115.300000
21
355.525000
31
0.0
0
LINE
8
VISIBLE
10
115.300000
20
335.525000
30
0.0
11
115.300000
21
355.525000
31
0.0
0
LINE
8
VISIBLE
10
64.050000
20
440.525000
30
0.0
11
64.050000
21
330.525000
31
0.0
0
LINE
8
VISIBLE
10
66.550000
20
443.025000
30
0.0
11
64.050000
21
440.525000
31
0.0
0
LINE
8
VISIBLE
10
115.300000
20
415.525000
30
0.0
11
115.300000
21
435.525000
31
0.0
0
LINE
8
VISIBLE
10
167.800000
20
415.525000
30
0.0
11
115.300000
21
415.525000
31
0.0
0
CIRCLE
8
VISIBLE
10
74.050000
20
345.525000
30
0.0
40
6.250000
0
CIRCLE
8
VISIBLE
10
224.050000
20
345.525000
30
0.0
40
6.250000
0
CIRCLE
8
VISIBLE
10
74.050000
20
425.525000
30
0.0
40
6.250000
0
CIRCLE
8
VISIBLE
10
224.050000
20
425.525000
30
0.0
40
6.250000
0
LINE
8
VISIBLE
10
167.800000
20
435.525000
30
0.0
11
174.110000
21
435.525000
31
0.0
0
LINE
8
VISIBLE
10
174.110000
20
435.525000
30
0.0
11
174.110000
21
445.525000
31
0.0
0
LINE
8
VISIBLE
10
125.300000
20
445.525000
30
0.0
11
157.950000
21
445.525000
31
0.0
0
LINE
8
VISIBLE
10
157.950000
20
445.525000
30
0.0
11
161.371721
21
445.525000
31
0.0
0
LINE
8
VISIBLE
10
161.371721
20
445.525000
30
0.0
11
164.988083
21
445.525000
31
0.0
0
LINE
8
VISIBLE
10
164.988083
20
445.525000
30
0.0
11
168.795284
21
445.525000
31
0.0
0
LINE
8
VISIBLE
10
168.795284
20
445.525000
30
0.0
11
172.759627
21
445.525000
31
0.0
0
LINE
8
VISIBLE
10
233.765000
20
445.525000
30
0.0
11
233.984231
21
445.525000
31
0.0
0
LINE
8
VISIBLE
10
172.759627
20
445.525000
30
0.0
11
176.846025
21
445.525000
31
0.0
0
LINE
8
VISIBLE
10
231.550000
20
445.525000
30
0.0
11
233.765000
21
445.525000
31
0.0
0
LINE
8
VISIBLE
10
176.846025
20
445.525000
30
0.0
11
181.018310
21
445.525000
31
0.0
0
LINE
8
VISIBLE
10
231.350859
20
445.525000
30
0.0
11
231.550000
21
445.525000
31
0.0
0
LINE
8
VISIBLE
10
181.018310
20
445.525000
30
0.0
11
185.239554
21
445.525000
31
0.0
0
LINE
8
VISIBLE
10
230.755197
20
445.525000
30
0.0
11
231.350859
21
445.525000
31
0.0
0
LINE
8
VISIBLE
10
185.239554
20
445.525000
30
0.0
11
189.472397
21
445.525000
31
0.0
0
LINE
8
VISIBLE
10
229.768288
20
445.525000
30
0.0
11
230.755197
21
445.525000
31
0.0
0
LINE
8
VISIBLE
10
189.472397
20
445.525000
30
0.0
11
193.679375
21
445.525000
31
0.0
0
LINE
8
VISIBLE
10
228.398865
20
445.525000
30
0.0
11
229.768288
21
445.525000
31
0.0
0
LINE
8
VISIBLE
10
193.679375
20
445.525000
30
0.0
11
197.823252
21
445.525000
31
0.0
0
LINE
8
VISIBLE
10
226.659049
20
445.525000
30
0.0
11
228.398865
21
445.525000
31
0.0
0
LINE
8
VISIBLE
10
197.823252
20
445.525000
30
0.0
11
201.867353
21
445.525000
31
0.0
0
LINE
8
VISIBLE
10
224.564239
20
445.525000
30
0.0
11
226.659049
21
445.525000
31
0.0
0
LINE
8
VISIBLE
10
201.867353
20
445.525000
30
0.0
11
205.775884
21
445.525000
31
0.0
0
LINE
8
VISIBLE
10
222.132976
20
445.525000
30
0.0
11
224.564239
21
445.525000
31
0.0
0
LINE
8
VISIBLE
10
205.775884
20
445.525000
30
0.0
11
209.514252
21
445.525000
31
0.0
0
LINE
8
VISIBLE
10
219.386777
20
445.525000
30
0.0
11
222.132976
21
445.525000
31
0.0
0
LINE
8
VISIBLE
10
209.514252
20
445.525000
30
0.0
11
213.049370
21
445.525000
31
0.0
0
LINE
8
VISIBLE
10
216.349949
20
445.525000
30
0.0
11
219.386777
21
445.525000
31
0.0
0
LINE
8
VISIBLE
10
213.049370
20
445.525000
30
0.0
11
216.349949
21
445.525000
31
0.0
0
LINE
8
VISIBLE
10
227.740000
20
435.525000
30
0.0
11
227.740000
21
445.525000
31
0.0
0
LINE
8
VISIBLE
10
227.740000
20
435.525000
30
0.0
11
234.050000
21
435.525000
31
0.0
0
LINE
8
VISIBLE
10
233.765000
20
335.525000
30
0.0
11
234.050000
21
335.525000
31
0.0
0
LINE
8
VISIBLE
10
231.550000
20
335.525000
30
0.0
11
233.765000
21
335.525000
31
0.0
0
LINE
8
VISIBLE
10
157.950000
20
335.525000
30
0.0
11
158.712824
21
335.525000
31
0.0
0
LINE
8
VISIBLE
10
72.550000
20
335.525000
30
0.0
11
157.950000
21
335.525000
31
0.0
0
LINE
8
VISIBLE
10
72.550000
20
320.525000
30
0.0
11
72.550000
21
335.525000
31
0.0
0
LINE
8
VISIBLE
10
66.550000
20
435.525000
30
0.0
11
66.550000
21
450.525000
31
0.0
0
LINE
8
VISIBLE
10
66.550000
20
435.525000
30
0.0
11
115.300000
21
435.525000
31
0.0
0
LINE
8
VISIBLE
10
233.765000
20
320.525000
30
0.0
11
234.050000
21
320.525000
31
0.0
0
LINE
8
VISIBLE
10
231.550000
20
320.525000
30
0.0
11
233.765000
21
320.525000
31
0.0
0
LINE
8
VISIBLE
10
157.950000
20
320.525000
30
0.0
11
158.712824
21
320.525000
31
0.0
0
LINE
8
VISIBLE
10
72.550000
20
320.525000
30
0.0
11
157.950000
21
320.525000
31
0.0
0
LINE
8
VISIBLE
10
115.300000
20
450.525000
30
0.0
11
115.300000
21
460.525000
31
0.0
0
LINE
8
VISIBLE
10
125.300000
20
458.025000
30
0.0
11
125.300000
21
460.525000
31
0.0
0
LINE
8
VISIBLE
10
167.800000
20
435.525000
30
0.0
11
167.800000
21
445.525000
31
0.0
0
LINE
8
VISIBLE
10
125.300000
20
445.525000
30
0.0
11
125.300000
21
458.025000
31
0.0
0
LINE
8
VISIBLE
10
157.950000
20
445.525000
30
0.0
11
157.950000
21
458.025000
31
0.0
0
LINE
8
VISIBLE
10
125.300000
20
458.025000
30
0.0
11
157.950000
21
458.025000
31
0.0
0
LINE
8
VISIBLE
10
161.371721
20
445.525000
30
0.0
11
161.371721
21
457.975000
31
0.0
0
LINE
8
VISIBLE
10
158.712824
20
457.975000
30
0.0
11
158.712824
21
458.025000
31
0.0
0
LINE
8
VISIBLE
10
157.950000
20
458.025000
30
0.0
11
158.712824
21
458.025000
31
0.0
0
LINE
8
VISIBLE
10
164.988083
20
445.525000
30
0.0
11
164.988083
21
457.975000
31
0.0
0
LINE
8
VISIBLE
10
168.795284
20
445.525000
30
0.0
11
168.795284
21
457.975000
31
0.0
0
LINE
8
VISIBLE
10
233.984231
20
445.525000
30
0.0
11
233.984231
21
450.525000
31
0.0
0
LINE
8
VISIBLE
10
233.984231
20
450.525000
30
0.0
11
234.050000
21
450.525000
31
0.0
0
LINE
8
VISIBLE
10
234.050000
20
435.525000
30
0.0
11
234.050000
21
450.525000
31
0.0
0
LINE
8
VISIBLE
10
172.759627
20
445.525000
30
0.0
11
172.759627
21
457.975000
31
0.0
0
LINE
8
VISIBLE
10
233.984231
20
450.525000
30
0.0
11
233.984231
21
458.025000
31
0.0
0
LINE
8
VISIBLE
10
233.765000
20
458.025000
30
0.0
11
233.984231
21
458.025000
31
0.0
0
LINE
8
VISIBLE
10
233.765000
20
445.525000
30
0.0
11
233.765000
21
458.025000
31
0.0
0
LINE
8
VISIBLE
10
176.846025
20
445.525000
30
0.0
11
176.846025
21
457.975000
31
0.0
0
LINE
8
VISIBLE
10
231.550000
20
445.525000
30
0.0
11
231.550000
21
457.975000
31
0.0
0
LINE
8
VISIBLE
10
231.550000
20
457.975000
30
0.0
11
231.550000
21
458.025000
31
0.0
0
LINE
8
VISIBLE
10
231.550000
20
458.025000
30
0.0
11
233.765000
21
458.025000
31
0.0
0
LINE
8
VISIBLE
10
181.018310
20
445.525000
30
0.0
11
181.018310
21
457.975000
31
0.0
0
LINE
8
VISIBLE
10
231.350859
20
445.525000
30
0.0
11
231.350859
21
457.975000
31
0.0
0
LINE
8
VISIBLE
10
185.239554
20
445.525000
30
0.0
11
185.239554
21
457.975000
31
0.0
0
LINE
8
VISIBLE
10
230.755197
20
445.525000
30
0.0
11
230.755197
21
457.975000
31
0.0
0
LINE
8
VISIBLE
10
189.472397
20
445.525000
30
0.0
11
189.472397
21
457.975000
31
0.0
0
LINE
8
VISIBLE
10
229.768288
20
445.525000
30
0.0
11
229.768288
21
457.975000
31
0.0
0
LINE
8
VISIBLE
10
193.679375
20
445.525000
30
0.0
11
193.679375
21
457.975000
31
0.0
0
LINE
8
VISIBLE
10
228.398865
20
445.525000
30
0.0
11
228.398865
21
457.975000
31
0.0
0
LINE
8
VISIBLE
10
197.823252
20
445.525000
30
0.0
11
197.823252
21
457.975000
31
0.0
0
LINE
8
VISIBLE
10
226.659049
20
445.525000
30
0.0
11
226.659049
21
457.975000
31
0.0
0
LINE
8
VISIBLE
10
201.867353
20
445.525000
30
0.0
11
201.867353
21
457.975000
31
0.0
0
LINE
8
VISIBLE
10
224.564239
20
445.525000
30
0.0
11
224.564239
21
457.975000
31
0.0
0
LINE
8
VISIBLE
10
205.775884
20
445.525000
30
0.0
11
205.775884
21
457.975000
31
0.0
0
LINE
8
VISIBLE
10
222.132976
20
445.525000
30
0.0
11
222.132976
21
457.975000
31
0.0
0
LINE
8
VISIBLE
10
209.514252
20
445.525000
30
0.0
11
209.514252
21
457.975000
31
0.0
0
LINE
8
VISIBLE
10
219.386777
20
445.525000
30
0.0
11
219.386777
21
457.975000
31
0.0
0
LINE
8
VISIBLE
10
213.049370
20
445.525000
30
0.0
11
213.049370
21
457.975000
31
0.0
0
LINE
8
VISIBLE
10
216.349949
20
445.525000
30
0.0
11
216.349949
21
457.975000
31
0.0
0
LINE
8
VISIBLE
10
234.050000
20
320.525000
30
0.0
11
234.050000
21
335.525000
31
0.0
0
LINE
8
VISIBLE
10
233.765000
20
320.525000
30
0.0
11
233.765000
21
335.525000
31
0.0
0
LINE
8
VISIBLE
10
231.550000
20
320.525000
30
0.0
11
231.550000
21
335.525000
31
0.0
0
LINE
8
VISIBLE
10
158.712824
20
320.525000
30
0.0
11
158.712824
21
335.525000
31
0.0
0
LINE
8
VISIBLE
10
231.550000
20
315.525000
30
0.0
11
141.550000
21
315.525000
31
0.0
0
LINE
8
VISIBLE
10
231.550000
20
335.575000
30
0.0
11
141.550000
21
335.575000
31
0.0
0
LINE
8
VISIBLE
10
231.350859
20
320.525000
30
0.0
11
231.350859
21
335.525000
31
0.0
0
LINE
8
VISIBLE
10
230.755197
20
320.525000
30
0.0
11
230.755197
21
335.525000
31
0.0
0
LINE
8
VISIBLE
10
229.768288
20
320.525000
30
0.0
11
229.768288
21
335.525000
31
0.0
0
LINE
8
VISIBLE
10
228.398865
20
320.525000
30
0.0
11
228.398865
21
335.525000
31
0.0
0
LINE
8
VISIBLE
10
226.659049
20
320.525000
30
0.0
11
226.659049
21
335.525000
31
0.0
0
LINE
8
VISIBLE
10
224.564239
20
320.525000
30
0.0
11
224.564239
21
335.525000
31
0.0
0
LINE
8
VISIBLE
10
222.132976
20
320.525000
30
0.0
11
222.132976
21
335.525000
31
0.0
0
LINE
8
VISIBLE
10
219.386777
20
320.525000
30
0.0
11
219.386777
21
335.525000
31
0.0
0
LINE
8
VISIBLE
10
216.349949
20
320.525000
30
0.0
11
216.349949
21
335.525000
31
0.0
0
LINE
8
VISIBLE
10
213.049370
20
320.525000
30
0.0
11
213.049370
21
335.525000
31
0.0
0
LINE
8
VISIBLE
10
209.514252
20
320.525000
30
0.0
11
209.514252
21
335.525000
31
0.0
0
LINE
8
VISIBLE
10
205.775884
20
320.525000
30
0.0
11
205.775884
21
335.525000
31
0.0
0
LINE
8
VISIBLE
10
201.867353
20
320.525000
30
0.0
11
201.867353
21
335.525000
31
0.0
0
LINE
8
VISIBLE
10
197.823252
20
320.525000
30
0.0
11
197.823252
21
335.525000
31
0.0
0
LINE
8
VISIBLE
10
193.679375
20
320.525000
30
0.0
11
193.679375
21
335.525000
31
0.0
0
LINE
8
VISIBLE
10
189.472397
20
320.525000
30
0.0
11
189.472397
21
335.525000
31
0.0
0
LINE
8
VISIBLE
10
185.239554
20
320.525000
30
0.0
11
185.239554
21
335.525000
31
0.0
0
LINE
8
VISIBLE
10
181.018310
20
320.525000
30
0.0
11
181.018310
21
335.525000
31
0.0
0
LINE
8
VISIBLE
10
176.846025
20
320.525000
30
0.0
11
176.846025
21
335.525000
31
0.0
0
LINE
8
VISIBLE
10
172.759627
20
320.525000
30
0.0
11
172.759627
21
335.525000
31
0.0
0
LINE
8
VISIBLE
10
168.795284
20
320.525000
30
0.0
11
168.795284
21
335.525000
31
0.0
0
LINE
8
VISIBLE
10
164.988083
20
320.525000
30
0.0
11
164.988083
21
335.525000
31
0.0
0
LINE
8
VISIBLE
10
161.371721
20
320.525000
30
0.0
11
161.371721
21
335.525000
31
0.0
0
LINE
8
VISIBLE
10
157.950000
20
320.525000
30
0.0
11
157.950000
21
335.525000
31
0.0
0
LINE
8
VISIBLE
10
66.550000
20
450.525000
30
0.0
11
103.960000
21
450.525000
31
0.0
0
LINE
8
VISIBLE
10
103.960000
20
450.525000
30
0.0
11
115.300000
21
450.525000
31
0.0
0
LINE
8
VISIBLE
10
115.300000
20
435.525000
30
0.0
11
115.300000
21
450.525000
31
0.0
0
LINE
8
VISIBLE
10
103.960000
20
460.525000
30
0.0
11
115.300000
21
460.525000
31
0.0
0
LINE
8
VISIBLE
10
103.960000
20
450.525000
30
0.0
11
103.960000
21
460.525000
31
0.0
0
LINE
8
VISIBLE
10
125.300000
20
460.525000
30
0.0
11
141.550000
21
460.525000
31
0.0
0
LINE
8
VISIBLE
10
231.550000
20
460.525000
30
0.0
11
234.050000
21
460.525000
31
0.0
0
LINE
8
VISIBLE
10
161.371721
20
457.975000
30
0.0
11
158.712824
21
457.975000
31
0.0
0
LINE
8
VISIBLE
10
164.988083
20
457.975000
30
0.0
11
161.371721
21
457.975000
31
0.0
0
LINE
8
VISIBLE
10
168.795284
20
457.975000
30
0.0
11
164.988083
21
457.975000
31
0.0
0
LINE
8
VISIBLE
10
172.759627
20
457.975000
30
0.0
11
168.795284
21
457.975000
31
0.0
0
LINE
8
VISIBLE
10
176.846025
20
457.975000
30
0.0
11
172.759627
21
457.975000
31
0.0
0
LINE
8
VISIBLE
10
181.018310
20
457.975000
30
0.0
11
176.846025
21
457.975000
31
0.0
0
LINE
8
VISIBLE
10
185.239554
20
457.975000
30
0.0
11
181.018310
21
457.975000
31
0.0
0
LINE
8
VISIBLE
10
189.472397
20
457.975000
30
0.0
11
185.239554
21
457.975000
31
0.0
0
LINE
8
VISIBLE
10
193.679375
20
457.975000
30
0.0
11
189.472397
21
457.975000
31
0.0
0
LINE
8
VISIBLE
10
197.823252
20
457.975000
30
0.0
11
193.679375
21
457.975000
31
0.0
0
LINE
8
VISIBLE
10
201.867353
20
457.975000
30
0.0
11
197.823252
21
457.975000
31
0.0
0
LINE
8
VISIBLE
10
205.775884
20
457.975000
30
0.0
11
201.867353
21
457.975000
31
0.0
0
LINE
8
VISIBLE
10
209.514252
20
457.975000
30
0.0
11
205.775884
21
457.975000
31
0.0
0
LINE
8
VISIBLE
10
213.049370
20
457.975000
30
0.0
11
209.514252
21
457.975000
31
0.0
0
LINE
8
VISIBLE
10
216.349949
20
457.975000
30
0.0
11
213.049370
21
457.975000
31
0.0
0
LINE
8
VISIBLE
10
219.386777
20
457.975000
30
0.0
11
216.349949
21
457.975000
31
0.0
0
LINE
8
VISIBLE
10
222.132976
20
457.975000
30
0.0
11
219.386777
21
457.975000
31
0.0
0
LINE
8
VISIBLE
10
224.564239
20
457.975000
30
0.0
11
222.132976
21
457.975000
31
0.0
0
LINE
8
VISIBLE
10
226.659049
20
457.975000
30
0.0
11
224.564239
21
457.975000
31
0.0
0
LINE
8
VISIBLE
10
228.398865
20
457.975000
30
0.0
11
226.659049
21
457.975000
31
0.0
0
LINE
8
VISIBLE
10
229.768288
20
457.975000
30
0.0
11
228.398865
21
457.975000
31
0.0
0
LINE
8
VISIBLE
10
230.755197
20
457.975000
30
0.0
11
229.768288
21
457.975000
31
0.0
0
LINE
8
VISIBLE
10
231.350859
20
457.975000
30
0.0
11
230.755197
21
457.975000
31
0.0
0
LINE
8
VISIBLE
10
231.550000
20
457.975000
30
0.0
11
231.350859
21
457.975000
31
0.0
0
LINE
8
VISIBLE
10
231.550000
20
465.525000
30
0.0
11
141.550000
21
465.525000
31
0.0
0
LINE
8
VISIBLE
10
231.350859
20
457.975000
30
0.0
11
231.350859
21
458.025000
31
0.0
0
LINE
8
VISIBLE
10
230.755197
20
457.975000
30
0.0
11
230.755197
21
458.025000
31
0.0
0
LINE
8
VISIBLE
10
229.768288
20
457.975000
30
0.0
11
229.768288
21
458.025000
31
0.0
0
LINE
8
VISIBLE
10
228.398865
20
457.975000
30
0.0
11
228.398865
21
458.025000
31
0.0
0
LINE
8
VISIBLE
10
226.659049
20
457.975000
30
0.0
11
226.659049
21
458.025000
31
0.0
0
LINE
8
VISIBLE
10
224.564239
20
457.975000
30
0.0
11
224.564239
21
458.025000
31
0.0
0
LINE
8
VISIBLE
10
222.132976
20
457.975000
30
0.0
11
222.132976
21
458.025000
31
0.0
0
LINE
8
VISIBLE
10
219.386777
20
457.975000
30
0.0
11
219.386777
21
458.025000
31
0.0
0
LINE
8
VISIBLE
10
216.349949
20
457.975000
30
0.0
11
216.349949
21
458.025000
31
0.0
0
LINE
8
VISIBLE
10
213.049370
20
457.975000
30
0.0
11
213.049370
21
458.025000
31
0.0
0
LINE
8
VISIBLE
10
209.514252
20
457.975000
30
0.0
11
209.514252
21
458.025000
31
0.0
0
LINE
8
VISIBLE
10
205.775884
20
457.975000
30
0.0
11
205.775884
21
458.025000
31
0.0
0
LINE
8
VISIBLE
10
201.867353
20
457.975000
30
0.0
11
201.867353
21
458.025000
31
0.0
0
LINE
8
VISIBLE
10
197.823252
20
457.975000
30
0.0
11
197.823252
21
458.025000
31
0.0
0
LINE
8
VISIBLE
10
193.679375
20
457.975000
30
0.0
11
193.679375
21
458.025000
31
0.0
0
LINE
8
VISIBLE
10
189.472397
20
457.975000
30
0.0
11
189.472397
21
458.025000
31
0.0
0
LINE
8
VISIBLE
10
185.239554
20
457.975000
30
0.0
11
185.239554
21
458.025000
31
0.0
0
LINE
8
VISIBLE
10
181.018310
20
457.975000
30
0.0
11
181.018310
21
458.025000
31
0.0
0
LINE
8
VISIBLE
10
176.846025
20
457.975000
30
0.0
11
176.846025
21
458.025000
31
0.0
0
LINE
8
VISIBLE
10
172.759627
20
457.975000
30
0.0
11
172.759627
21
458.025000
31
0.0
0
LINE
8
VISIBLE
10
168.795284
20
457.975000
30
0.0
11
168.795284
21
458.025000
31
0.0
0
LINE
8
VISIBLE
10
164.988083
20
457.975000
30
0.0
11
164.988083
21
458.025000
31
0.0
0
LINE
8
VISIBLE
10
161.371721
20
457.975000
30
0.0
11
161.371721
21
458.025000
31
0.0
0
LINE
8
VISIBLE
10
234.050000
20
450.525000
30
0.0
11
234.050000
21
460.525000
31
0.0
0
LINE
8
VISIBLE
10
226.550000
20
474.975000
30
0.0
11
146.550000
21
474.975000
31
0.0
0
LINE
8
VISIBLE
10
226.550000
20
295.525000
30
0.0
11
146.550000
21
295.525000
31
0.0
0
LINE
8
VISIBLE
10
141.550000
20
315.525000
30
0.0
11
141.550000
21
320.525000
31
0.0
0
LINE
8
VISIBLE
10
141.550000
20
335.525000
30
0.0
11
141.550000
21
335.575000
31
0.0
0
LINE
8
VISIBLE
10
231.550000
20
315.525000
30
0.0
11
231.550000
21
320.525000
31
0.0
0
LINE
8
VISIBLE
10
231.550000
20
335.525000
30
0.0
11
231.550000
21
335.575000
31
0.0
0
LINE
8
VISIBLE
10
141.550000
20
458.025000
30
0.0
11
141.550000
21
465.525000
31
0.0
0
LINE
8
VISIBLE
10
231.550000
20
458.025000
30
0.0
11
231.550000
21
465.525000
31
0.0
0
LINE
8
VISIBLE
10
146.550000
20
465.525000
30
0.0
11
146.550000
21
474.975000
31
0.0
0
LINE
8
VISIBLE
10
226.550000
20
465.525000
30
0.0
11
226.550000
21
474.975000
31
0.0
0
LINE
8
VISIBLE
10
146.550000
20
295.525000
30
0.0
11
146.550000
21
315.525000
31
0.0
0
LINE
8
VISIBLE
10
226.550000
20
295.525000
30
0.0
11
226.550000
21
315.525000
31
0.0
0
LINE
8
HIDDEN
10
72.550000
20
322.025000
30
0.0
11
74.050000
21
320.525000
31
0.0
0
LINE
8
HIDDEN
10
74.050000
20
320.525000
30
0.0
11
69.050000
21
325.525000
31
0.0
0
LINE
8
HIDDEN
10
64.050000
20
330.525000
30
0.0
11
69.050000
21
325.525000
31
0.0
0
LINE
8
HIDDEN
10
227.740000
20
445.525000
30
0.0
11
174.110000
21
445.525000
31
0.0
0
LINE
8
HIDDEN
10
234.050000
20
335.525000
30
0.0
11
167.800000
21
335.525000
31
0.0
0
LINE
8
HIDDEN
10
167.800000
20
335.525000
30
0.0
11
167.800000
21
335.575000
31
0.0
0
LINE
8
HIDDEN
10
115.300000
20
335.525000
30
0.0
11
72.550000
21
335.525000
31
0.0
0
LINE
8
HIDDEN
10
72.550000
20
322.025000
30
0.0
11
72.550000
21
335.525000
31
0.0
0
LINE
8
HIDDEN
10
66.550000
20
435.525000
30
0.0
11
66.550000
21
443.025000
31
0.0
0
LINE
8
HIDDEN
10
74.050000
20
320.525000
30
0.0
11
72.550000
21
320.525000
31
0.0
0
LINE
8
HIDDEN
10
72.550000
20
320.525000
30
0.0
11
72.550000
21
322.025000
31
0.0
0
LINE
8
HIDDEN
10
74.050000
20
320.525000
30
0.0
11
234.050000
21
320.525000
31
0.0
0
LINE
8
HIDDEN
10
74.050000
20
320.525000
30
0.0
11
234.050000
21
320.525000
31
0.0
0
LINE
8
HIDDEN
10
229.050000
20
325.525000
30
0.0
11
234.050000
21
320.525000
31
0.0
0
LINE
8
HIDDEN
10
69.050000
20
325.525000
30
0.0
11
229.050000
21
325.525000
31
0.0
0
LINE
8
HIDDEN
10
103.960000
20
455.525000
30
0.0
11
115.300000
21
455.525000
31
0.0
0
LINE
8
HIDDEN
10
115.300000
20
450.525000
30
0.0
11
115.300000
21
455.525000
31
0.0
0
LINE
8
HIDDEN
10
115.300000
20
415.525000
30
0.0
11
115.300000
21
450.525000
31
0.0
0
LINE
8
HIDDEN
10
167.800000
20
415.525000
30
0.0
11
167.800000
21
450.525000
31
0.0
0
LINE
8
HIDDEN
10
167.800000
20
450.525000
30
0.0
11
125.300000
21
450.525000
31
0.0
0
LINE
8
HIDDEN
10
125.300000
20
450.525000
30
0.0
11
125.300000
21
455.525000
31
0.0
0
LINE
8
HIDDEN
10
125.300000
20
455.525000
30
0.0
11
229.050000
21
455.525000
31
0.0
0
LINE
8
HIDDEN
10
229.050000
20
435.881158
30
0.0
11
229.050000
21
455.525000
31
0.0
0
LINE
8
HIDDEN
10
229.050000
20
355.881158
30
0.0
11
229.050000
21
415.168842
31
0.0
0
LINE
8
HIDDEN
10
229.050000
20
325.525000
30
0.0
11
229.050000
21
335.168842
31
0.0
0
LINE
8
HIDDEN
10
74.050000
20
450.525000
30
0.0
11
64.050000
21
440.525000
31
0.0
0
LINE
8
HIDDEN
10
103.960000
20
450.525000
30
0.0
11
74.050000
21
450.525000
31
0.0
0
LINE
8
HIDDEN
10
103.960000
20
455.525000
30
0.0
11
103.960000
21
450.525000
31
0.0
0
LINE
8
HIDDEN
10
167.800000
20
335.525000
30
0.0
11
115.300000
21
335.525000
31
0.0
0
LINE
8
HIDDEN
10
167.800000
20
335.525000
30
0.0
11
167.800000
21
355.525000
31
0.0
0
LINE
8
HIDDEN
10
167.800000
20
435.525000
30
0.0
11
167.800000
21
450.525000
31
0.0
0
LINE
8
HIDDEN
10
167.800000
20
445.525000
30
0.0
11
125.300000
21
445.525000
31
0.0
0
LINE
8
HIDDEN
10
167.800000
20
445.525000
30
0.0
11
174.110000
21
445.525000
31
0.0
0
LINE
8
HIDDEN
10
227.740000
20
445.525000
30
0.0
11
233.984231
21
445.525000
31
0.0
0
LINE
8
HIDDEN
10
156.550000
20
445.525000
30
0.0
11
167.550000
21
445.525000
31
0.0
0
LINE
8
HIDDEN
10
167.550000
20
445.525000
30
0.0
11
145.550000
21
445.525000
31
0.0
0
LINE
8
HIDDEN
10
145.550000
20
445.525000
30
0.0
11
156.550000
21
445.525000
31
0.0
0
LINE
8
HIDDEN
10
186.550000
20
445.525000
30
0.0
11
197.550000
21
445.525000
31
0.0
0
LINE
8
HIDDEN
10
197.550000
20
445.525000
30
0.0
11
175.550000
21
445.525000
31
0.0
0
LINE
8
HIDDEN
10
175.550000
20
445.525000
30
0.0
11
186.550000
21
445.525000
31
0.0
0
LINE
8
HIDDEN
10
186.550000
20
445.525000
30
0.0
11
197.550000
21
445.525000
31
0.0
0
LINE
8
HIDDEN
10
197.550000
20
445.525000
30
0.0
11
175.550000
21
445.525000
31
0.0
0
LINE
8
HIDDEN
10
175.550000
20
445.525000
30
0.0
11
186.550000
21
445.525000
31
0.0
0
LINE
8
HIDDEN
10
186.550000
20
445.525000
30
0.0
11
201.550000
21
445.525000
31
0.0
0
LINE
8
HIDDEN
10
201.550000
20
445.525000
30
0.0
11
171.550000
21
445.525000
31
0.0
0
LINE
8
HIDDEN
10
171.550000
20
445.525000
30
0.0
11
186.550000
21
445.525000
31
0.0
0
LINE
8
HIDDEN
10
216.550000
20
445.525000
30
0.0
11
227.550000
21
445.525000
31
0.0
0
LINE
8
HIDDEN
10
227.550000
20
445.525000
30
0.0
11
205.550000
21
445.525000
31
0.0
0
LINE
8
HIDDEN
10
205.550000
20
445.525000
30
0.0
11
216.550000
21
445.525000
31
0.0
0
LINE
8
HIDDEN
10
234.050000
20
320.525000
30
0.0
11
234.050000
21
460.525000
31
0.0
0
LINE
8
HIDDEN
10
167.800000
20
335.525000
30
0.0
11
115.300000
21
335.525000
31
0.0
0
LINE
8
HIDDEN
10
186.550000
20
335.525000
30
0.0
11
231.550000
21
335.525000
31
0.0
0
LINE
8
HIDDEN
10
158.712824
20
335.525000
30
0.0
11
141.550000
21
335.525000
31
0.0
0
LINE
8
HIDDEN
10
141.550000
20
335.525000
30
0.0
11
186.550000
21
335.525000
31
0.0
0
LINE
8
HIDDEN
10
74.050000
20
450.525000
30
0.0
11
66.550000
21
443.025000
31
0.0
0
LINE
8
HIDDEN
10
66.550000
20
443.025000
30
0.0
11
66.550000
21
450.525000
31
0.0
0
LINE
8
HIDDEN
10
186.550000
20
320.525000
30
0.0
11
231.550000
21
320.525000
31
0.0
0
LINE
8
HIDDEN
10
158.712824
20
320.525000
30
0.0
11
141.550000
21
320.525000
31
0.0
0
LINE
8
HIDDEN
10
141.550000
20
320.525000
30
0.0
11
186.550000
21
320.525000
31
0.0
0
LINE
8
HIDDEN
10
231.550000
20
336.807202
30
0.0
11
231.550000
21
354.242798
31
0.0
0
LINE
8
HIDDEN
10
229.050000
20
415.168842
30
0.0
11
231.550000
21
416.807202
31
0.0
0
LINE
8
HIDDEN
10
231.550000
20
416.807202
30
0.0
11
231.550000
21
434.242798
31
0.0
0
LINE
8
HIDDEN
10
229.050000
20
455.525000
30
0.0
11
234.050000
21
460.525000
31
0.0
0
LINE
8
HIDDEN
10
103.960000
20
460.525000
30
0.0
11
103.960000
21
455.525000
31
0.0
0
LINE
8
HIDDEN
10
115.300000
20
460.525000
30
0.0
11
115.300000
21
455.525000
31
0.0
0
LINE
8
HIDDEN
10
167.800000
20
450.525000
30
0.0
11
125.300000
21
450.525000
31
0.0
0
LINE
8
HIDDEN
10
125.300000
20
450.525000
30
0.0
11
125.300000
21
458.025000
31
0.0
0
LINE
8
HIDDEN
10
125.300000
20
460.525000
30
0.0
11
125.300000
21
455.525000
31
0.0
0
LINE
8
HIDDEN
10
125.300000
20
460.525000
30
0.0
11
234.050000
21
460.525000
31
0.0
0
ARC
8
HIDDEN
10
224.050000
20
425.525000
30
0.0
40
11.500000
50
49.294293
51
310.705707
0
ARC
8
HIDDEN
10
224.050000
20
345.525000
30
0.0
40
11.500000
50
49.294293
51
310.705707
0
LINE
8
HIDDEN
10
74.050000
20
450.525000
30
0.0
11
103.960000
21
450.525000
31
0.0
0
LINE
8
HIDDEN
10
167.800000
20
445.525000
30
0.0
11
167.800000
21
450.525000
31
0.0
0
LINE
8
HIDDEN
10
125.300000
20
445.525000
30
0.0
11
125.300000
21
450.525000
31
0.0
0
LINE
8
HIDDEN
10
125.300000
20
450.525000
30
0.0
11
125.300000
21
458.025000
31
0.0
0
LINE
8
HIDDEN
10
156.550000
20
458.525000
30
0.0
11
167.550000
21
458.525000
31
0.0
0
LINE
8
HIDDEN
10
167.550000
20
458.525000
30
0.0
11
145.550000
21
458.525000
31
0.0
0
LINE
8
HIDDEN
10
145.550000
20
458.525000
30
0.0
11
156.550000
21
458.525000
31
0.0
0
LINE
8
HIDDEN
10
186.550000
20
458.525000
30
0.0
11
197.550000
21
458.525000
31
0.0
0
LINE
8
HIDDEN
10
197.550000
20
458.525000
30
0.0
11
175.550000
21
458.525000
31
0.0
0
LINE
8
HIDDEN
10
175.550000
20
458.525000
30
0.0
11
186.550000
21
458.525000
31
0.0
0
LINE
8
HIDDEN
10
186.550000
20
458.525000
30
0.0
11
197.550000
21
458.525000
31
0.0
0
LINE
8
HIDDEN
10
197.550000
20
458.525000
30
0.0
11
175.550000
21
458.525000
31
0.0
0
LINE
8
HIDDEN
10
175.550000
20
458.525000
30
0.0
11
186.550000
21
458.525000
31
0.0
0
LINE
8
HIDDEN
10
186.550000
20
474.975000
30
0.0
11
201.550000
21
474.975000
31
0.0
0
LINE
8
HIDDEN
10
201.550000
20
474.975000
30
0.0
11
171.550000
21
474.975000
31
0.0
0
LINE
8
HIDDEN
10
171.550000
20
474.975000
30
0.0
11
186.550000
21
474.975000
31
0.0
0
LINE
8
HIDDEN
10
216.550000
20
458.525000
30
0.0
11
227.550000
21
458.525000
31
0.0
0
LINE
8
HIDDEN
10
227.550000
20
458.525000
30
0.0
11
205.550000
21
458.525000
31
0.0
0
LINE
8
HIDDEN
10
205.550000
20
458.525000
30
0.0
11
216.550000
21
458.525000
31
0.0
0
LINE
8
HIDDEN
10
234.050000
20
435.525000
30
0.0
11
234.050000
21
445.525000
31
0.0
0
LINE
8
HIDDEN
10
234.050000
20
445.525000
30
0.0
11
234.050000
21
450.525000
31
0.0
0
LINE
8
HIDDEN
10
234.050000
20
445.525000
30
0.0
11
234.050000
21
450.525000
31
0.0
0
LINE
8
HIDDEN
10
234.050000
20
450.525000
30
0.0
11
234.050000
21
458.025000
31
0.0
0
LINE
8
HIDDEN
10
234.050000
20
458.025000
30
0.0
11
234.050000
21
460.525000
31
0.0
0
LINE
8
HIDDEN
10
125.300000
20
460.525000
30
0.0
11
234.050000
21
460.525000
31
0.0
0
LINE
8
HIDDEN
10
186.550000
20
315.525000
30
0.0
11
231.550000
21
315.525000
31
0.0
0
LINE
8
HIDDEN
10
141.550000
20
315.525000
30
0.0
11
186.550000
21
315.525000
31
0.0
0
LINE
8
HIDDEN
10
186.550000
20
335.575000
30
0.0
11
231.550000
21
335.575000
31
0.0
0
LINE
8
HIDDEN
10
141.550000
20
335.575000
30
0.0
11
186.550000
21
335.575000
31
0.0
0
LINE
8
HIDDEN
10
66.550000
20
450.525000
30
0.0
11
74.050000
21
450.525000
31
0.0
0
LINE
8
HIDDEN
10
103.960000
20
450.525000
30
0.0
11
74.050000
21
450.525000
31
0.0
0
LINE
8
HIDDEN
10
234.050000
20
460.525000
30
0.0
11
125.300000
21
460.525000
31
0.0
0
LINE
8
HIDDEN
10
141.550000
20
460.525000
30
0.0
11
171.759801
21
460.525000
31
0.0
0
LINE
8
HIDDEN
10
171.759801
20
460.525000
30
0.0
11
186.550000
21
460.525000
31
0.0
0
LINE
8
HIDDEN
10
186.550000
20
460.525000
30
0.0
11
201.340199
21
460.525000
31
0.0
0
LINE
8
HIDDEN
10
201.340199
20
460.525000
30
0.0
11
231.550000
21
460.525000
31
0.0
0
LINE
8
HIDDEN
10
171.759801
20
458.025000
30
0.0
11
171.759801
21
460.525000
31
0.0
0
LINE
8
HIDDEN
10
125.300000
20
458.025000
30
0.0
11
171.759801
21
458.025000
31
0.0
0
LINE
8
HIDDEN
10
158.712824
20
458.025000
30
0.0
11
141.550000
21
458.025000
31
0.0
0
LINE
8
HIDDEN
10
141.550000
20
458.025000
30
0.0
11
171.759801
21
458.025000
31
0.0
0
LINE
8
HIDDEN
10
201.340199
20
458.025000
30
0.0
11
231.550000
21
458.025000
31
0.0
0
LINE
8
HIDDEN
10
201.340199
20
458.025000
30
0.0
11
201.340199
21
460.525000
31
0.0
0
LINE
8
HIDDEN
10
186.550000
20
465.525000
30
0.0
11
231.550000
21
465.525000
31
0.0
0
LINE
8
HIDDEN
10
141.550000
20
465.525000
30
0.0
11
186.550000
21
465.525000
31
0.0
0
LINE
8
HIDDEN
10
201.340199
20
458.025000
30
0.0
11
233.984231
21
458.025000
31
0.0
0
LINE
8
HIDDEN
10
156.550000
20
458.525000
30
0.0
11
162.050000
21
458.525000
31
0.0
0
LINE
8
HIDDEN
10
162.050000
20
458.525000
30
0.0
11
151.050000
21
458.525000
31
0.0
0
LINE
8
HIDDEN
10
151.050000
20
458.525000
30
0.0
11
156.550000
21
458.525000
31
0.0
0
LINE
8
HIDDEN
10
186.550000
20
458.525000
30
0.0
11
192.050000
21
458.525000
31
0.0
0
LINE
8
HIDDEN
10
192.050000
20
458.525000
30
0.0
11
181.050000
21
458.525000
31
0.0
0
LINE
8
HIDDEN
10
181.050000
20
458.525000
30
0.0
11
186.550000
21
458.525000
31
0.0
0
LINE
8
HIDDEN
10
186.550000
20
458.525000
30
0.0
11
192.050000
21
458.525000
31
0.0
0
LINE
8
HIDDEN
10
192.050000
20
458.525000
30
0.0
11
181.050000
21
458.525000
31
0.0
0
LINE
8
HIDDEN
10
181.050000
20
458.525000
30
0.0
11
186.550000
21
458.525000
31
0.0
0
LINE
8
HIDDEN
10
186.550000
20
474.975000
30
0.0
11
226.550000
21
474.975000
31
0.0
0
LINE
8
HIDDEN
10
146.550000
20
474.975000
30
0.0
11
186.550000
21
474.975000
31
0.0
0
LINE
8
HIDDEN
10
156.550000
20
474.975000
30
0.0
11
162.050000
21
474.975000
31
0.0
0
LINE
8
HIDDEN
10
162.050000
20
474.975000
30
0.0
11
151.050000
21
474.975000
31
0.0
0
LINE
8
HIDDEN
10
151.050000
20
474.975000
30
0.0
11
156.550000
21
474.975000
31
0.0
0
LINE
8
HIDDEN
10
186.550000
20
474.975000
30
0.0
11
192.050000
21
474.975000
31
0.0
0
LINE
8
HIDDEN
10
192.050000
20
474.975000
30
0.0
11
181.050000
21
474.975000
31
0.0
0
LINE
8
HIDDEN
10
181.050000
20
474.975000
30
0.0
11
186.550000
21
474.975000
31
0.0
0
LINE
8
HIDDEN
10
186.550000
20
474.975000
30
0.0
11
192.050000
21
474.975000
31
0.0
0
LINE
8
HIDDEN
10
192.050000
20
474.975000
30
0.0
11
181.050000
21
474.975000
31
0.0
0
LINE
8
HIDDEN
10
181.050000
20
474.975000
30
0.0
11
186.550000
21
474.975000
31
0.0
0
LINE
8
HIDDEN
10
216.550000
20
474.975000
30
0.0
11
222.050000
21
474.975000
31
0.0
0
LINE
8
HIDDEN
10
222.050000
20
474.975000
30
0.0
11
211.050000
21
474.975000
31
0.0
0
LINE
8
HIDDEN
10
211.050000
20
474.975000
30
0.0
11
216.550000
21
474.975000
31
0.0
0
LINE
8
HIDDEN
10
216.550000
20
458.525000
30
0.0
11
222.050000
21
458.525000
31
0.0
0
LINE
8
HIDDEN
10
222.050000
20
458.525000
30
0.0
11
211.050000
21
458.525000
31
0.0
0
LINE
8
HIDDEN
10
211.050000
20
458.525000
30
0.0
11
216.550000
21
458.525000
31
0.0
0
LINE
8
HIDDEN
10
234.050000
20
450.525000
30
0.0
11
234.050000
21
458.025000
31
0.0
0
LINE
8
HIDDEN
10
186.550000
20
315.525000
30
0.0
11
226.550000
21
315.525000
31
0.0
0
LINE
8
HIDDEN
10
226.550000
20
315.525000
30
0.0
11
146.550000
21
315.525000
31
0.0
0
LINE
8
HIDDEN
10
146.550000
20
315.525000
30
0.0
11
186.550000
21
315.525000
31
0.0
0
LINE
8
HIDDEN
10
186.550000
20
335.575000
30
0.0
11
216.550000
21
335.575000
31
0.0
0
LINE
8
HIDDEN
10
216.550000
20
335.575000
30
0.0
11
156.550000
21
335.575000
31
0.0
0
LINE
8
HIDDEN
10
156.550000
20
335.575000
30
0.0
11
186.550000
21
335.575000
31
0.0
0
LINE
8
HIDDEN
10
186.550000
20
465.525000
30
0.0
11
226.550000
21
465.525000
31
0.0
0
LINE
8
HIDDEN
10
226.550000
20
465.525000
30
0.0
11
146.550000
21
465.525000
31
0.0
0
LINE
8
HIDDEN
10
146.550000
20
465.525000
30
0.0
11
186.550000
21
465.525000
31
0.0
0
LINE
8
HIDDEN
10
186.550000
20
295.525000
30
0.0
11
226.550000
21
295.525000
31
0.0
0
LINE
8
HIDDEN
10
146.550000
20
295.525000
30
0.0
11
186.550000
21
295.525000
31
0.0
0
LINE
8
HIDDEN
10
186.550000
20
295.525000
30
0.0
11
216.550000
21
295.525000
31
0.0
0
LINE
8
HIDDEN
10
216.550000
20
295.525000
30
0.0
11
156.550000
21
295.525000
31
0.0
0
LINE
8
HIDDEN
10
156.550000
20
295.525000
30
0.0
11
186.550000
21
295.525000
31
0.0
0
LINE
8
HIDDEN
10
156.550000
20
445.525000
30
0.0
11
156.550000
21
458.525000
31
0.0
0
LINE
8
HIDDEN
10
186.550000
20
445.525000
30
0.0
11
186.550000
21
458.525000
31
0.0
0
LINE
8
HIDDEN
10
186.550000
20
445.525000
30
0.0
11
186.550000
21
458.525000
31
0.0
0
LINE
8
HIDDEN
10
186.550000
20
445.525000
30
0.0
11
186.550000
21
474.975000
31
0.0
0
LINE
8
HIDDEN
10
216.550000
20
445.525000
30
0.0
11
216.550000
21
458.525000
31
0.0
0
LINE
8
HIDDEN
10
186.550000
20
335.525000
30
0.0
11
186.550000
21
335.575000
31
0.0
0
LINE
8
HIDDEN
10
186.550000
20
315.525000
30
0.0
11
186.550000
21
320.525000
31
0.0
0
LINE
8
HIDDEN
10
186.550000
20
460.525000
30
0.0
11
186.550000
21
465.525000
31
0.0
0
LINE
8
HIDDEN
10
156.550000
20
458.525000
30
0.0
11
156.550000
21
474.975000
31
0.0
0
LINE
8
HIDDEN
10
186.550000
20
458.525000
30
0.0
11
186.550000
21
474.975000
31
0.0
0
LINE
8
HIDDEN
10
186.550000
20
458.525000
30
0.0
11
186.550000
21
474.975000
31
0.0
0
LINE
8
HIDDEN
10
186.550000
20
465.525000
30
0.0
11
186.550000
21
474.975000
31
0.0
0
LINE
8
HIDDEN
10
216.550000
20
458.525000
30
0.0
11
216.550000
21
474.975000
31
0.0
0
LINE
8
HIDDEN
10
186.550000
20
295.525000
30
0.0
11
186.550000
21
315.525000
31
0.0
0
LINE
8
HIDDEN
10
186.550000
20
295.525000
30
0.0
11
186.550000
21
335.575000
31
0.0
0
LINE
8
HIDDEN
10
145.550000
20
445.525000
30
0.0
11
145.550000
21
458.525000
31
0.0
0
LINE
8
HIDDEN
10
167.550000
20
445.525000
30
0.0
11
167.550000
21
458.525000
31
0.0
0
LINE
8
HIDDEN
10
175.550000
20
445.525000
30
0.0
11
175.550000
21
458.525000
31
0.0
0
LINE
8
HIDDEN
10
197.550000
20
445.525000
30
0.0
11
197.550000
21
458.525000
31
0.0
0
LINE
8
HIDDEN
10
175.550000
20
445.525000
30
0.0
11
175.550000
21
458.525000
31
0.0
0
LINE
8
HIDDEN
10
197.550000
20
445.525000
30
0.0
11
197.550000
21
458.525000
31
0.0
0
LINE
8
HIDDEN
10
171.550000
20
445.525000
30
0.0
11
171.550000
21
474.975000
31
0.0
0
LINE
8
HIDDEN
10
201.550000
20
445.525000
30
0.0
11
201.550000
21
474.975000
31
0.0
0
LINE
8
HIDDEN
10
205.550000
20
445.525000
30
0.0
11
205.550000
21
458.525000
31
0.0
0
LINE
8
HIDDEN
10
227.550000
20
445.525000
30
0.0
11
227.550000
21
458.525000
31
0.0
0
LINE
8
HIDDEN
10
151.050000
20
458.525000
30
0.0
11
151.050000
21
474.975000
31
0.0
0
LINE
8
HIDDEN
10
162.050000
20
458.525000
30
0.0
11
162.050000
21
474.975000
31
0.0
0
LINE
8
HIDDEN
10
181.050000
20
458.525000
30
0.0
11
181.050000
21
474.975000
31
0.0
0
LINE
8
HIDDEN
10
192.050000
20
458.525000
30
0.0
11
192.050000
21
474.975000
31
0.0
0
LINE
8
HIDDEN
10
181.050000
20
458.525000
30
0.0
11
181.050000
21
474.975000
31
0.0
0
LINE
8
HIDDEN
10
192.050000
20
458.525000
30
0.0
11
192.050000
21
474.975000
31
0.0
0
LINE
8
HIDDEN
10
211.050000
20
458.525000
30
0.0
11
211.050000
21
474.975000
31
0.0
0
LINE
8
HIDDEN
10
222.050000
20
458.525000
30
0.0
11
222.050000
21
474.975000
31
0.0
0
LINE
8
HIDDEN
10
156.550000
20
295.525000
30
0.0
11
156.550000
21
335.575000
31
0.0
0
LINE
8
HIDDEN
10
216.550000
20
295.525000
30
0.0
11
216.550000
21
335.575000
31
0.0
0
ARC
8
HIDDEN
10
224.050000
20
425.525000
30
0.0
40
11.500000
50
49.294293
51
295.771462
0
ARC
8
HIDDEN
10
224.050000
20
345.525000
30
0.0
40
11.500000
50
49.294293
51
310.705707
0
LINE
8
VISIBLE
10
429.500000
20
221.525000
30
0.0
11
329.500000
21
221.525000
31
0.0
0
LINE
8
VISIBLE
10
444.500000
20
221.525000
30
0.0
11
444.500000
21
226.525000
31
0.0
0
LINE
8
VISIBLE
10
439.500000
20
231.525000
30
0.0
11
444.500000
21
226.525000
31
0.0
0
LINE
8
VISIBLE
10
329.143842
20
231.525000
30
0.0
11
309.500000
21
231.525000
31
0.0
0
LINE
8
VISIBLE
10
329.143842
20
231.525000
30
0.0
11
349.856158
21
231.525000
31
0.0
0
LINE
8
VISIBLE
10
409.143842
20
231.525000
30
0.0
11
349.856158
21
231.525000
31
0.0
0
LINE
8
VISIBLE
10
409.143842
20
231.525000
30
0.0
11
429.856158
21
231.525000
31
0.0
0
LINE
8
VISIBLE
10
439.500000
20
231.525000
30
0.0
11
429.856158
21
231.525000
31
0.0
0
LINE
8
VISIBLE
10
319.500000
20
201.525000
30
0.0
11
319.500000
21
206.525000
31
0.0
0
LINE
8
VISIBLE
10
319.500000
20
164.025000
30
0.0
11
319.500000
21
201.525000
31
0.0
0
LINE
8
VISIBLE
10
319.500000
20
159.796163
30
0.0
11
319.500000
21
164.025000
31
0.0
0
LINE
8
VISIBLE
10
319.500000
20
155.604754
30
0.0
11
319.500000
21
159.796163
31
0.0
0
LINE
8
VISIBLE
10
319.500000
20
119.044085
30
0.0
11
319.500000
21
119.119994
31
0.0
0
LINE
8
VISIBLE
10
319.500000
20
151.487871
30
0.0
11
319.500000
21
155.604754
31
0.0
0
LINE
8
VISIBLE
10
319.500000
20
119.119994
30
0.0
11
319.500000
21
119.593344
31
0.0
0
LINE
8
VISIBLE
10
319.500000
20
147.481950
30
0.0
11
319.500000
21
151.487871
31
0.0
0
LINE
8
VISIBLE
10
319.500000
20
119.593344
30
0.0
11
319.500000
21
120.459948
31
0.0
0
LINE
8
VISIBLE
10
319.500000
20
143.622447
30
0.0
11
319.500000
21
147.481950
31
0.0
0
LINE
8
VISIBLE
10
319.500000
20
120.459948
30
0.0
11
319.500000
21
121.712133
31
0.0
0
LINE
8
VISIBLE
10
319.500000
20
139.943521
30
0.0
11
319.500000
21
143.622447
31
0.0
0
LINE
8
VISIBLE
10
319.500000
20
121.712133
30
0.0
11
319.500000
21
123.338818
31
0.0
0
LINE
8
VISIBLE
10
319.500000
20
136.477735
30
0.0
11
319.500000
21
139.943521
31
0.0
0
LINE
8
VISIBLE
10
319.500000
20
123.338818
30
0.0
11
319.500000
21
125.325606
31
0.0
0
LINE
8
VISIBLE
10
319.500000
20
133.255761
30
0.0
11
319.500000
21
136.477735
31
0.0
0
LINE
8
VISIBLE
10
319.500000
20
125.325606
30
0.0
11
319.500000
21
127.654911
31
0.0
0
LINE
8
VISIBLE
10
319.500000
20
130.306118
30
0.0
11
319.500000
21
133.255761
31
0.0
0
LINE
8
VISIBLE
10
319.500000
20
127.654911
30
0.0
11
319.500000
21
130.306118
31
0.0
0
LINE
8
VISIBLE
10
329.500000
20
206.525000
30
0.0
11
329.500000
21
221.525000
31
0.0
0
LINE
8
VISIBLE
10
444.500000
20
221.525000
30
0.0
11
429.500000
21
221.525000
31
0.0
0
LINE
8
VISIBLE
10
329.500000
20
221.525000
30
0.0
11
329.500000
21
221.575000
31
0.0
0
LINE
8
VISIBLE
10
329.500000
20
221.575000
30
0.0
11
314.500000
21
221.575000
31
0.0
0
LINE
8
VISIBLE
10
314.500000
20
221.575000
30
0.0
11
304.500000
21
221.575000
31
0.0
0
LINE
8
VISIBLE
10
304.500000
20
221.575000
30
0.0
11
304.500000
21
226.525000
31
0.0
0
LINE
8
VISIBLE
10
444.500000
20
226.525000
30
0.0
11
304.500000
21
226.525000
31
0.0
0
LINE
8
VISIBLE
10
429.500000
20
208.025000
30
0.0
11
429.500000
21
221.525000
31
0.0
0
LINE
8
VISIBLE
10
429.500000
20
201.525000
30
0.0
11
429.500000
21
208.025000
31
0.0
0
LINE
8
VISIBLE
10
429.500000
20
164.025000
30
0.0
11
429.500000
21
201.525000
31
0.0
0
LINE
8
VISIBLE
10
444.500000
20
208.025000
30
0.0
11
444.500000
21
221.525000
31
0.0
0
LINE
8
VISIBLE
10
444.500000
20
201.525000
30
0.0
11
444.500000
21
208.025000
31
0.0
0
LINE
8
VISIBLE
10
444.500000
20
164.025000
30
0.0
11
444.500000
21
201.525000
31
0.0
0
LINE
8
VISIBLE
10
429.856158
20
231.525000
30
0.0
11
428.217798
21
229.025000
31
0.0
0
LINE
8
VISIBLE
10
428.217798
20
229.025000
30
0.0
11
410.782202
21
229.025000
31
0.0
0
LINE
8
VISIBLE
10
410.782202
20
229.025000
30
0.0
11
409.143842
21
231.525000
31
0.0
0
LINE
8
VISIBLE
10
349.856158
20
231.525000
30
0.0
11
348.217798
21
229.025000
31
0.0
0
LINE
8
VISIBLE
10
348.217798
20
229.025000
30
0.0
11
330.782202
21
229.025000
31
0.0
0
LINE
8
VISIBLE
10
330.782202
20
229.025000
30
0.0
11
329.143842
21
231.525000
31
0.0
0
LINE
8
VISIBLE
10
309.500000
20
231.525000
30
0.0
11
304.500000
21
226.525000
31
0.0
0
LINE
8
VISIBLE
10
330.782202
20
229.025000
30
0.0
11
333.250000
21
229.025000
31
0.0
0
LINE
8
VISIBLE
10
345.750000
20
229.025000
30
0.0
11
348.217798
21
229.025000
31
0.0
0
LINE
8
VISIBLE
10
410.782202
20
229.025000
30
0.0
11
413.250000
21
229.025000
31
0.0
0
LINE
8
VISIBLE
10
425.750000
20
229.025000
30
0.0
11
428.217798
21
229.025000
31
0.0
0
LINE
8
VISIBLE
10
329.500000
20
206.525000
30
0.0
11
314.500000
21
206.525000
31
0.0
0
LINE
8
VISIBLE
10
307.000000
20
201.525000
30
0.0
11
307.000000
21
206.525000
31
0.0
0
LINE
8
VISIBLE
10
319.500000
20
201.525000
30
0.0
11
307.000000
21
201.525000
31
0.0
0
LINE
8
VISIBLE
10
319.500000
20
164.025000
30
0.0
11
307.050000
21
164.025000
31
0.0
0
LINE
8
VISIBLE
10
307.050000
20
164.025000
30
0.0
11
307.000000
21
164.025000
31
0.0
0
LINE
8
VISIBLE
10
307.000000
20
164.025000
30
0.0
11
307.000000
21
201.525000
31
0.0
0
LINE
8
VISIBLE
10
319.500000
20
159.796163
30
0.0
11
307.050000
21
159.796163
31
0.0
0
LINE
8
VISIBLE
10
319.500000
20
119.044085
30
0.0
11
307.050000
21
119.044085
31
0.0
0
LINE
8
VISIBLE
10
319.500000
20
155.604754
30
0.0
11
307.050000
21
155.604754
31
0.0
0
LINE
8
VISIBLE
10
319.500000
20
119.119994
30
0.0
11
307.050000
21
119.119994
31
0.0
0
LINE
8
VISIBLE
10
319.500000
20
151.487871
30
0.0
11
307.050000
21
151.487871
31
0.0
0
LINE
8
VISIBLE
10
319.500000
20
119.593344
30
0.0
11
307.050000
21
119.593344
31
0.0
0
LINE
8
VISIBLE
10
319.500000
20
147.481950
30
0.0
11
307.050000
21
147.481950
31
0.0
0
LINE
8
VISIBLE
10
319.500000
20
120.459948
30
0.0
11
307.050000
21
120.459948
31
0.0
0
LINE
8
VISIBLE
10
319.500000
20
143.622447
30
0.0
11
307.050000
21
143.622447
31
0.0
0
LINE
8
VISIBLE
10
319.500000
20
121.712133
30
0.0
11
307.050000
21
121.712133
31
0.0
0
LINE
8
VISIBLE
10
319.500000
20
139.943521
30
0.0
11
307.050000
21
139.943521
31
0.0
0
LINE
8
VISIBLE
10
319.500000
20
123.338818
30
0.0
11
307.050000
21
123.338818
31
0.0
0
LINE
8
VISIBLE
10
319.500000
20
136.477735
30
0.0
11
307.050000
21
136.477735
31
0.0
0
LINE
8
VISIBLE
10
319.500000
20
125.325606
30
0.0
11
307.050000
21
125.325606
31
0.0
0
LINE
8
VISIBLE
10
319.500000
20
133.255761
30
0.0
11
307.050000
21
133.255761
31
0.0
0
LINE
8
VISIBLE
10
319.500000
20
127.654911
30
0.0
11
307.050000
21
127.654911
31
0.0
0
LINE
8
VISIBLE
10
319.500000
20
130.306118
30
0.0
11
307.050000
21
130.306118
31
0.0
0
LINE
8
VISIBLE
10
329.500000
20
221.525000
30
0.0
11
319.500000
21
221.525000
31
0.0
0
LINE
8
VISIBLE
10
319.500000
20
208.025000
30
0.0
11
319.500000
21
221.525000
31
0.0
0
LINE
8
VISIBLE
10
319.500000
20
208.025000
30
0.0
11
314.500000
21
208.025000
31
0.0
0
LINE
8
VISIBLE
10
314.500000
20
206.525000
30
0.0
11
314.500000
21
208.025000
31
0.0
0
LINE
8
VISIBLE
10
444.500000
20
208.025000
30
0.0
11
429.500000
21
208.025000
31
0.0
0
LINE
8
VISIBLE
10
319.500000
20
221.525000
30
0.0
11
314.500000
21
221.525000
31
0.0
0
LINE
8
VISIBLE
10
314.500000
20
221.525000
30
0.0
11
314.500000
21
221.575000
31
0.0
0
LINE
8
VISIBLE
10
314.500000
20
221.525000
30
0.0
11
307.000000
21
221.525000
31
0.0
0
LINE
8
VISIBLE
10
307.000000
20
221.525000
30
0.0
11
304.500000
21
221.525000
31
0.0
0
LINE
8
VISIBLE
10
304.500000
20
221.525000
30
0.0
11
304.500000
21
221.575000
31
0.0
0
LINE
8
VISIBLE
10
444.500000
20
201.525000
30
0.0
11
429.500000
21
201.525000
31
0.0
0
LINE
8
VISIBLE
10
444.500000
20
164.025000
30
0.0
11
429.500000
21
164.025000
31
0.0
0
LINE
8
VISIBLE
10
429.500000
20
209.025000
30
0.0
11
429.450000
21
209.025000
31
0.0
0
LINE
8
VISIBLE
10
449.500000
20
209.025000
30
0.0
11
444.500000
21
209.025000
31
0.0
0
LINE
8
VISIBLE
10
449.500000
20
209.025000
30
0.0
11
449.500000
21
119.025000
31
0.0
0
LINE
8
VISIBLE
10
429.450000
20
209.025000
30
0.0
11
429.450000
21
119.025000
31
0.0
0
LINE
8
VISIBLE
10
444.500000
20
159.796163
30
0.0
11
429.500000
21
159.796163
31
0.0
0
LINE
8
VISIBLE
10
444.500000
20
155.604754
30
0.0
11
429.500000
21
155.604754
31
0.0
0
LINE
8
VISIBLE
10
444.500000
20
151.487871
30
0.0
11
429.500000
21
151.487871
31
0.0
0
LINE
8
VISIBLE
10
444.500000
20
147.481950
30
0.0
11
429.500000
21
147.481950
31
0.0
0
LINE
8
VISIBLE
10
444.500000
20
143.622447
30
0.0
11
429.500000
21
143.622447
31
0.0
0
LINE
8
VISIBLE
10
444.500000
20
139.943521
30
0.0
11
429.500000
21
139.943521
31
0.0
0
LINE
8
VISIBLE
10
444.500000
20
136.477735
30
0.0
11
429.500000
21
136.477735
31
0.0
0
LINE
8
VISIBLE
10
444.500000
20
133.255761
30
0.0
11
429.500000
21
133.255761
31
0.0
0
LINE
8
VISIBLE
10
444.500000
20
130.306118
30
0.0
11
429.500000
21
130.306118
31
0.0
0
LINE
8
VISIBLE
10
444.500000
20
127.654911
30
0.0
11
429.500000
21
127.654911
31
0.0
0
LINE
8
VISIBLE
10
444.500000
20
125.325606
30
0.0
11
429.500000
21
125.325606
31
0.0
0
LINE
8
VISIBLE
10
444.500000
20
123.338818
30
0.0
11
429.500000
21
123.338818
31
0.0
0
LINE
8
VISIBLE
10
444.500000
20
121.712133
30
0.0
11
429.500000
21
121.712133
31
0.0
0
LINE
8
VISIBLE
10
444.500000
20
120.459948
30
0.0
11
429.500000
21
120.459948
31
0.0
0
LINE
8
VISIBLE
10
444.500000
20
119.593344
30
0.0
11
429.500000
21
119.593344
31
0.0
0
LINE
8
VISIBLE
10
444.500000
20
119.119994
30
0.0
11
429.500000
21
119.119994
31
0.0
0
LINE
8
VISIBLE
10
304.500000
20
206.525000
30
0.0
11
304.500000
21
221.525000
31
0.0
0
LINE
8
VISIBLE
10
304.500000
20
209.025000
30
0.0
11
299.500000
21
209.025000
31
0.0
0
LINE
8
VISIBLE
10
307.050000
20
119.119994
30
0.0
11
307.050000
21
119.025000
31
0.0
0
LINE
8
VISIBLE
10
307.050000
20
119.593344
30
0.0
11
307.050000
21
119.119994
31
0.0
0
LINE
8
VISIBLE
10
307.050000
20
120.459948
30
0.0
11
307.050000
21
119.593344
31
0.0
0
LINE
8
VISIBLE
10
307.050000
20
121.712133
30
0.0
11
307.050000
21
120.459948
31
0.0
0
LINE
8
VISIBLE
10
307.050000
20
123.338818
30
0.0
11
307.050000
21
121.712133
31
0.0
0
LINE
8
VISIBLE
10
307.050000
20
125.325606
30
0.0
11
307.050000
21
123.338818
31
0.0
0
LINE
8
VISIBLE
10
307.050000
20
127.654911
30
0.0
11
307.050000
21
125.325606
31
0.0
0
LINE
8
VISIBLE
10
307.050000
20
130.306118
30
0.0
11
307.050000
21
127.654911
31
0.0
0
LINE
8
VISIBLE
10
307.050000
20
133.255761
30
0.0
11
307.050000
21
130.306118
31
0.0
0
LINE
8
VISIBLE
10
307.050000
20
136.477735
30
0.0
11
307.050000
21
133.255761
31
0.0
0
LINE
8
VISIBLE
10
307.050000
20
139.943521
30
0.0
11
307.050000
21
136.477735
31
0.0
0
LINE
8
VISIBLE
10
307.050000
20
143.622447
30
0.0
11
307.050000
21
139.943521
31
0.0
0
LINE
8
VISIBLE
10
307.050000
20
147.481950
30
0.0
11
307.050000
21
143.622447
31
0.0
0
LINE
8
VISIBLE
10
307.050000
20
151.487871
30
0.0
11
307.050000
21
147.481950
31
0.0
0
LINE
8
VISIBLE
10
307.050000
20
155.604754
30
0.0
11
307.050000
21
151.487871
31
0.0
0
LINE
8
VISIBLE
10
307.050000
20
159.796163
30
0.0
11
307.050000
21
155.604754
31
0.0
0
LINE
8
VISIBLE
10
307.050000
20
164.025000
30
0.0
11
307.050000
21
159.796163
31
0.0
0
LINE
8
VISIBLE
10
299.500000
20
209.025000
30
0.0
11
299.500000
21
119.025000
31
0.0
0
LINE
8
VISIBLE
10
307.050000
20
159.796163
30
0.0
11
307.000000
21
159.796163
31
0.0
0
LINE
8
VISIBLE
10
307.050000
20
155.604754
30
0.0
11
307.000000
21
155.604754
31
0.0
0
LINE
8
VISIBLE
10
307.050000
20
151.487871
30
0.0
11
307.000000
21
151.487871
31
0.0
0
LINE
8
VISIBLE
10
307.050000
20
147.481950
30
0.0
11
307.000000
21
147.481950
31
0.0
0
LINE
8
VISIBLE
10
307.050000
20
143.622447
30
0.0
11
307.000000
21
143.622447
31
0.0
0
LINE
8
VISIBLE
10
307.050000
20
139.943521
30
0.0
11
307.000000
21
139.943521
31
0.0
0
LINE
8
VISIBLE
10
307.050000
20
136.477735
30
0.0
11
307.000000
21
136.477735
31
0.0
0
LINE
8
VISIBLE
10
307.050000
20
133.255761
30
0.0
11
307.000000
21
133.255761
31
0.0
0
LINE
8
VISIBLE
10
307.050000
20
130.306118
30
0.0
11
307.000000
21
130.306118
31
0.0
0
LINE
8
VISIBLE
10
307.050000
20
127.654911
30
0.0
11
307.000000
21
127.654911
31
0.0
0
LINE
8
VISIBLE
10
307.050000
20
125.325606
30
0.0
11
307.000000
21
125.325606
31
0.0
0
LINE
8
VISIBLE
10
307.050000
20
123.338818
30
0.0
11
307.000000
21
123.338818
31
0.0
0
LINE
8
VISIBLE
10
307.050000
20
121.712133
30
0.0
11
307.000000
21
121.712133
31
0.0
0
LINE
8
VISIBLE
10
307.050000
20
120.459948
30
0.0
11
307.000000
21
120.459948
31
0.0
0
LINE
8
VISIBLE
10
307.050000
20
119.593344
30
0.0
11
307.000000
21
119.593344
31
0.0
0
LINE
8
VISIBLE
10
307.050000
20
119.119994
30
0.0
11
307.000000
21
119.119994
31
0.0
0
LINE
8
VISIBLE
10
314.500000
20
206.525000
30
0.0
11
304.500000
21
206.525000
31
0.0
0
LINE
8
VISIBLE
10
290.050000
20
204.025000
30
0.0
11
290.050000
21
124.025000
31
0.0
0
LINE
8
VISIBLE
10
314.500000
20
208.025000
30
0.0
11
314.500000
21
221.525000
31
0.0
0
LINE
8
VISIBLE
10
314.500000
20
208.025000
30
0.0
11
307.000000
21
208.025000
31
0.0
0
LINE
8
VISIBLE
10
307.000000
20
208.025000
30
0.0
11
307.000000
21
221.525000
31
0.0
0
LINE
8
VISIBLE
10
299.500000
20
204.025000
30
0.0
11
290.050000
21
204.025000
31
0.0
0
LINE
8
VISIBLE
10
469.500000
20
204.025000
30
0.0
11
449.500000
21
204.025000
31
0.0
0
LINE
8
VISIBLE
10
469.500000
20
204.025000
30
0.0
11
469.500000
21
124.025000
31
0.0
0
LINE
8
VISIBLE
10
449.500000
20
119.025000
30
0.0
11
429.450000
21
119.025000
31
0.0
0
LINE
8
VISIBLE
10
307.050000
20
119.025000
30
0.0
11
299.500000
21
119.025000
31
0.0
0
LINE
8
VISIBLE
10
299.500000
20
124.025000
30
0.0
11
290.050000
21
124.025000
31
0.0
0
LINE
8
VISIBLE
10
469.500000
20
124.025000
30
0.0
11
449.500000
21
124.025000
31
0.0
0
LINE
8
HIDDEN
10
434.500000
20
221.525000
30
0.0
11
443.000000
21
221.525000
31
0.0
0
LINE
8
HIDDEN
10
443.000000
20
221.525000
30
0.0
11
444.500000
21
221.525000
31
0.0
0
LINE
8
HIDDEN
10
434.500000
20
231.525000
30
0.0
11
439.500000
21
231.525000
31
0.0
0
LINE
8
HIDDEN
10
434.500000
20
221.525000
30
0.0
11
434.500000
21
231.525000
31
0.0
0
LINE
8
HIDDEN
10
349.500000
20
221.525000
30
0.0
11
329.500000
21
221.525000
31
0.0
0
LINE
8
HIDDEN
10
429.500000
20
221.525000
30
0.0
11
409.500000
21
221.525000
31
0.0
0
LINE
8
HIDDEN
10
429.500000
20
221.525000
30
0.0
11
409.500000
21
221.525000
31
0.0
0
LINE
8
HIDDEN
10
443.000000
20
221.525000
30
0.0
11
429.500000
21
221.525000
31
0.0
0
LINE
8
HIDDEN
10
324.500000
20
221.525000
30
0.0
11
434.500000
21
221.525000
31
0.0
0
LINE
8
HIDDEN
10
322.000000
20
221.525000
30
0.0
11
324.500000
21
221.525000
31
0.0
0
LINE
8
HIDDEN
10
329.500000
20
221.525000
30
0.0
11
322.000000
21
221.525000
31
0.0
0
LINE
8
HIDDEN
10
349.500000
20
221.525000
30
0.0
11
329.500000
21
221.525000
31
0.0
0
LINE
8
HIDDEN
10
419.500000
20
221.525000
30
0.0
11
413.250000
21
221.525000
31
0.0
0
LINE
8
HIDDEN
10
413.250000
20
221.525000
30
0.0
11
425.750000
21
221.525000
31
0.0
0
LINE
8
HIDDEN
10
425.750000
20
221.525000
30
0.0
11
419.500000
21
221.525000
31
0.0
0
LINE
8
HIDDEN
10
419.500000
20
221.525000
30
0.0
11
413.250000
21
221.525000
31
0.0
0
LINE
8
HIDDEN
10
413.250000
20
221.525000
30
0.0
11
425.750000
21
221.525000
31
0.0
0
LINE
8
HIDDEN
10
425.750000
20
221.525000
30
0.0
11
419.500000
21
221.525000
31
0.0
0
LINE
8
HIDDEN
10
339.500000
20
221.525000
30
0.0
11
333.250000
21
221.525000
31
0.0
0
LINE
8
HIDDEN
10
333.250000
20
221.525000
30
0.0
11
345.750000
21
221.525000
31
0.0
0
LINE
8
HIDDEN
10
345.750000
20
221.525000
30
0.0
11
339.500000
21
221.525000
31
0.0
0
LINE
8
HIDDEN
10
339.500000
20
221.525000
30
0.0
11
333.250000
21
221.525000
31
0.0
0
LINE
8
HIDDEN
10
333.250000
20
221.525000
30
0.0
11
345.750000
21
221.525000
31
0.0
0
LINE
8
HIDDEN
10
345.750000
20
221.525000
30
0.0
11
339.500000
21
221.525000
31
0.0
0
LINE
8
HIDDEN
10
444.500000
20
221.525000
30
0.0
11
443.000000
21
221.525000
31
0.0
0
LINE
8
HIDDEN
10
314.500000
20
231.525000
30
0.0
11
309.500000
21
231.525000
31
0.0
0
LINE
8
HIDDEN
10
349.500000
20
231.525000
30
0.0
11
314.500000
21
231.525000
31
0.0
0
LINE
8
HIDDEN
10
349.500000
20
231.525000
30
0.0
11
314.500000
21
231.525000
31
0.0
0
LINE
8
HIDDEN
10
314.500000
20
231.525000
30
0.0
11
309.500000
21
231.525000
31
0.0
0
LINE
8
HIDDEN
10
329.143842
20
231.525000
30
0.0
11
328.000000
21
231.525000
31
0.0
0
LINE
8
HIDDEN
10
328.000000
20
231.525000
30
0.0
11
329.143842
21
231.525000
31
0.0
0
LINE
8
HIDDEN
10
349.856158
20
231.525000
30
0.0
11
351.000000
21
231.525000
31
0.0
0
LINE
8
HIDDEN
10
351.000000
20
231.525000
30
0.0
11
349.856158
21
231.525000
31
0.0
0
LINE
8
HIDDEN
10
409.143842
20
231.525000
30
0.0
11
408.000000
21
231.525000
31
0.0
0
LINE
8
HIDDEN
10
408.000000
20
231.525000
30
0.0
11
409.143842
21
231.525000
31
0.0
0
LINE
8
HIDDEN
10
429.856158
20
231.525000
30
0.0
11
431.000000
21
231.525000
31
0.0
0
LINE
8
HIDDEN
10
431.000000
20
231.525000
30
0.0
11
429.856158
21
231.525000
31
0.0
0
LINE
8
HIDDEN
10
324.500000
20
231.525000
30
0.0
11
434.500000
21
231.525000
31
0.0
0
LINE
8
HIDDEN
10
314.500000
20
231.525000
30
0.0
11
324.500000
21
231.525000
31
0.0
0
LINE
8
HIDDEN
10
309.500000
20
231.525000
30
0.0
11
314.500000
21
231.525000
31
0.0
0
LINE
8
HIDDEN
10
419.500000
20
231.525000
30
0.0
11
413.250000
21
231.525000
31
0.0
0
LINE
8
HIDDEN
10
413.250000
20
231.525000
30
0.0
11
425.750000
21
231.525000
31
0.0
0
LINE
8
HIDDEN
10
425.750000
20
231.525000
30
0.0
11
419.500000
21
231.525000
31
0.0
0
LINE
8
HIDDEN
10
429.500000
20
231.525000
30
0.0
11
409.500000
21
231.525000
31
0.0
0
LINE
8
HIDDEN
10
429.500000
20
231.525000
30
0.0
11
409.500000
21
231.525000
31
0.0
0
LINE
8
HIDDEN
10
339.500000
20
231.525000
30
0.0
11
333.250000
21
231.525000
31
0.0
0
LINE
8
HIDDEN
10
333.250000
20
231.525000
30
0.0
11
345.750000
21
231.525000
31
0.0
0
LINE
8
HIDDEN
10
345.750000
20
231.525000
30
0.0
11
339.500000
21
231.525000
31
0.0
0
LINE
8
HIDDEN
10
324.500000
20
221.525000
30
0.0
11
324.500000
21
231.525000
31
0.0
0
LINE
8
HIDDEN
10
349.500000
20
221.525000
30
0.0
11
349.500000
21
231.525000
31
0.0
0
LINE
8
HIDDEN
10
314.500000
20
221.575000
30
0.0
11
314.500000
21
231.525000
31
0.0
0
LINE
8
HIDDEN
10
319.500000
20
221.525000
30
0.0
11
319.500000
21
206.525000
31
0.0
0
LINE
8
HIDDEN
10
329.500000
20
206.525000
30
0.0
11
319.500000
21
206.525000
31
0.0
0
LINE
8
HIDDEN
10
319.500000
20
221.525000
30
0.0
11
319.500000
21
206.525000
31
0.0
0
LINE
8
HIDDEN
10
319.500000
20
221.525000
30
0.0
11
319.500000
21
156.063300
31
0.0
0
LINE
8
HIDDEN
10
319.500000
20
156.063300
30
0.0
11
319.500000
21
129.225000
31
0.0
0
LINE
8
HIDDEN
10
319.500000
20
129.225000
30
0.0
11
319.500000
21
126.728160
31
0.0
0
LINE
8
HIDDEN
10
319.500000
20
126.728160
30
0.0
11
319.500000
21
124.527104
31
0.0
0
LINE
8
HIDDEN
10
319.500000
20
221.525000
30
0.0
11
319.500000
21
206.525000
31
0.0
0
LINE
8
HIDDEN
10
319.500000
20
124.527104
30
0.0
11
319.500000
21
122.675634
31
0.0
0
LINE
8
HIDDEN
10
319.500000
20
122.675634
30
0.0
11
319.500000
21
121.190136
31
0.0
0
LINE
8
HIDDEN
10
319.500000
20
121.190136
30
0.0
11
319.500000
21
120.083757
31
0.0
0
LINE
8
HIDDEN
10
319.500000
20
120.083757
30
0.0
11
319.500000
21
119.366290
31
0.0
0
LINE
8
HIDDEN
10
319.500000
20
119.366290
30
0.0
11
319.500000
21
119.044085
31
0.0
0
LINE
8
HIDDEN
10
319.500000
20
175.025000
30
0.0
11
319.500000
21
153.025000
31
0.0
0
LINE
8
HIDDEN
10
319.500000
20
153.025000
30
0.0
11
319.500000
21
175.025000
31
0.0
0
LINE
8
HIDDEN
10
319.500000
20
145.025000
30
0.0
11
319.500000
21
123.025000
31
0.0
0
LINE
8
HIDDEN
10
319.500000
20
123.025000
30
0.0
11
319.500000
21
145.025000
31
0.0
0
LINE
8
HIDDEN
10
319.500000
20
205.025000
30
0.0
11
319.500000
21
183.025000
31
0.0
0
LINE
8
HIDDEN
10
319.500000
20
183.025000
30
0.0
11
319.500000
21
205.025000
31
0.0
0
LINE
8
HIDDEN
10
319.500000
20
179.025000
30
0.0
11
319.500000
21
149.025000
31
0.0
0
LINE
8
HIDDEN
10
319.500000
20
149.025000
30
0.0
11
319.500000
21
179.025000
31
0.0
0
LINE
8
HIDDEN
10
319.500000
20
175.025000
30
0.0
11
319.500000
21
153.025000
31
0.0
0
LINE
8
HIDDEN
10
319.500000
20
153.025000
30
0.0
11
319.500000
21
175.025000
31
0.0
0
LINE
8
HIDDEN
10
329.500000
20
206.525000
30
0.0
11
319.500000
21
206.525000
31
0.0
0
LINE
8
HIDDEN
10
429.500000
20
209.025000
30
0.0
11
429.500000
21
164.025000
31
0.0
0
LINE
8
HIDDEN
10
429.500000
20
128.668365
30
0.0
11
429.500000
21
209.025000
31
0.0
0
LINE
8
HIDDEN
10
429.500000
20
129.225000
30
0.0
11
429.500000
21
128.668365
31
0.0
0
LINE
8
HIDDEN
10
429.500000
20
199.423800
30
0.0
11
429.500000
21
129.225000
31
0.0
0
LINE
8
HIDDEN
10
429.500000
20
221.525000
30
0.0
11
429.500000
21
199.423800
31
0.0
0
LINE
8
HIDDEN
10
429.500000
20
221.525000
30
0.0
11
429.500000
21
231.525000
31
0.0
0
LINE
8
HIDDEN
10
409.500000
20
221.525000
30
0.0
11
409.500000
21
231.525000
31
0.0
0
LINE
8
HIDDEN
10
409.500000
20
221.525000
30
0.0
11
409.500000
21
231.525000
31
0.0
0
LINE
8
HIDDEN
10
429.500000
20
221.525000
30
0.0
11
429.500000
21
231.525000
31
0.0
0
LINE
8
HIDDEN
10
444.500000
20
199.423800
30
0.0
11
429.500000
21
199.423800
31
0.0
0
LINE
8
HIDDEN
10
444.500000
20
221.525000
30
0.0
11
444.500000
21
199.423800
31
0.0
0
LINE
8
HIDDEN
10
314.500000
20
221.575000
30
0.0
11
322.000000
21
221.575000
31
0.0
0
LINE
8
HIDDEN
10
322.000000
20
221.525000
30
0.0
11
322.000000
21
221.575000
31
0.0
0
LINE
8
HIDDEN
10
314.500000
20
221.575000
30
0.0
11
314.500000
21
231.525000
31
0.0
0
LINE
8
HIDDEN
10
322.000000
20
221.575000
30
0.0
11
314.500000
21
221.575000
31
0.0
0
LINE
8
HIDDEN
10
314.500000
20
206.525000
30
0.0
11
314.500000
21
221.575000
31
0.0
0
LINE
8
HIDDEN
10
349.500000
20
221.525000
30
0.0
11
349.500000
21
231.525000
31
0.0
0
LINE
8
HIDDEN
10
314.500000
20
221.575000
30
0.0
11
314.500000
21
231.525000
31
0.0
0
LINE
8
HIDDEN
10
419.500000
20
229.025000
30
0.0
11
413.250000
21
229.025000
31
0.0
0
LINE
8
HIDDEN
10
413.250000
20
229.025000
30
0.0
11
425.750000
21
229.025000
31
0.0
0
LINE
8
HIDDEN
10
425.750000
20
229.025000
30
0.0
11
419.500000
21
229.025000
31
0.0
0
LINE
8
HIDDEN
10
339.500000
20
229.025000
30
0.0
11
333.250000
21
229.025000
31
0.0
0
LINE
8
HIDDEN
10
333.250000
20
229.025000
30
0.0
11
345.750000
21
229.025000
31
0.0
0
LINE
8
HIDDEN
10
345.750000
20
229.025000
30
0.0
11
339.500000
21
229.025000
31
0.0
0
LINE
8
HIDDEN
10
444.500000
20
209.025000
30
0.0
11
444.500000
21
164.025000
31
0.0
0
LINE
8
HIDDEN
10
444.500000
20
128.668365
30
0.0
11
444.500000
21
209.025000
31
0.0
0
LINE
8
HIDDEN
10
444.500000
20
129.225000
30
0.0
11
444.500000
21
128.668365
31
0.0
0
LINE
8
HIDDEN
10
444.500000
20
199.423800
30
0.0
11
444.500000
21
129.225000
31
0.0
0
LINE
8
HIDDEN
10
314.500000
20
219.025000
30
0.0
11
314.500000
21
221.525000
31
0.0
0
LINE
8
HIDDEN
10
314.500000
20
206.525000
30
0.0
11
314.500000
21
219.025000
31
0.0
0
LINE
8
HIDDEN
10
314.500000
20
221.525000
30
0.0
11
314.500000
21
231.525000
31
0.0
0
LINE
8
HIDDEN
10
307.000000
20
221.525000
30
0.0
11
307.000000
21
206.525000
31
0.0
0
LINE
8
HIDDEN
10
307.000000
20
206.525000
30
0.0
11
304.500000
21
206.525000
31
0.0
0
LINE
8
HIDDEN
10
330.782202
20
229.025000
30
0.0
11
328.000000
21
229.025000
31
0.0
0
LINE
8
HIDDEN
10
328.000000
20
229.025000
30
0.0
11
330.782202
21
229.025000
31
0.0
0
LINE
8
HIDDEN
10
333.250000
20
229.025000
30
0.0
11
345.750000
21
229.025000
31
0.0
0
LINE
8
HIDDEN
10
348.217798
20
229.025000
30
0.0
11
351.000000
21
229.025000
31
0.0
0
LINE
8
HIDDEN
10
351.000000
20
229.025000
30
0.0
11
348.217798
21
229.025000
31
0.0
0
LINE
8
HIDDEN
10
410.782202
20
229.025000
30
0.0
11
408.000000
21
229.025000
31
0.0
0
LINE
8
HIDDEN
10
408.000000
20
229.025000
30
0.0
11
410.782202
21
229.025000
31
0.0
0
LINE
8
HIDDEN
10
413.250000
20
229.025000
30
0.0
11
425.750000
21
229.025000
31
0.0
0
LINE
8
HIDDEN
10
428.217798
20
229.025000
30
0.0
11
431.000000
21
229.025000
31
0.0
0
LINE
8
HIDDEN
10
431.000000
20
229.025000
30
0.0
11
428.217798
21
229.025000
31
0.0
0
LINE
8
HIDDEN
10
314.500000
20
221.575000
30
0.0
11
314.500000
21
231.525000
31
0.0
0
LINE
8
HIDDEN
10
329.500000
20
206.525000
30
0.0
11
319.500000
21
206.525000
31
0.0
0
LINE
8
HIDDEN
10
319.500000
20
156.063300
30
0.0
11
307.000000
21
156.063300
31
0.0
0
LINE
8
HIDDEN
10
307.000000
20
206.525000
30
0.0
11
307.000000
21
156.063300
31
0.0
0
LINE
8
HIDDEN
10
314.500000
20
206.525000
30
0.0
11
307.000000
21
206.525000
31
0.0
0
LINE
8
HIDDEN
10
314.500000
20
206.525000
30
0.0
11
314.500000
21
219.025000
31
0.0
0
LINE
8
HIDDEN
10
314.500000
20
219.025000
30
0.0
11
314.500000
21
221.525000
31
0.0
0
LINE
8
HIDDEN
10
319.500000
20
129.225000
30
0.0
11
307.000000
21
129.225000
31
0.0
0
LINE
8
HIDDEN
10
307.000000
20
156.063300
30
0.0
11
307.000000
21
129.225000
31
0.0
0
LINE
8
HIDDEN
10
319.500000
20
126.728160
30
0.0
11
307.050000
21
126.728160
31
0.0
0
LINE
8
HIDDEN
10
307.050000
20
128.668365
30
0.0
11
307.050000
21
126.728160
31
0.0
0
LINE
8
HIDDEN
10
307.050000
20
128.668365
30
0.0
11
307.000000
21
128.668365
31
0.0
0
LINE
8
HIDDEN
10
307.000000
20
129.225000
30
0.0
11
307.000000
21
128.668365
31
0.0
0
LINE
8
HIDDEN
10
319.500000
20
124.527104
30
0.0
11
307.050000
21
124.527104
31
0.0
0
LINE
8
HIDDEN
10
307.050000
20
126.728160
30
0.0
11
307.050000
21
124.527104
31
0.0
0
LINE
8
HIDDEN
10
319.500000
20
122.675634
30
0.0
11
307.050000
21
122.675634
31
0.0
0
LINE
8
HIDDEN
10
307.050000
20
124.527104
30
0.0
11
307.050000
21
122.675634
31
0.0
0
LINE
8
HIDDEN
10
319.500000
20
206.525000
30
0.0
11
314.500000
21
206.525000
31
0.0
0
LINE
8
HIDDEN
10
319.500000
20
121.190136
30
0.0
11
307.050000
21
121.190136
31
0.0
0
LINE
8
HIDDEN
10
307.050000
20
122.675634
30
0.0
11
307.050000
21
121.190136
31
0.0
0
LINE
8
HIDDEN
10
314.500000
20
206.525000
30
0.0
11
307.000000
21
206.525000
31
0.0
0
LINE
8
HIDDEN
10
319.500000
20
120.083757
30
0.0
11
307.050000
21
120.083757
31
0.0
0
LINE
8
HIDDEN
10
307.050000
20
121.190136
30
0.0
11
307.050000
21
120.083757
31
0.0
0
LINE
8
HIDDEN
10
319.500000
20
119.366290
30
0.0
11
307.050000
21
119.366290
31
0.0
0
LINE
8
HIDDEN
10
307.050000
20
120.083757
30
0.0
11
307.050000
21
119.366290
31
0.0
0
LINE
8
HIDDEN
10
307.050000
20
119.366290
30
0.0
11
307.050000
21
119.044085
31
0.0
0
LINE
8
HIDDEN
10
307.050000
20
119.044085
30
0.0
11
307.050000
21
119.119994
31
0.0
0
LINE
8
HIDDEN
10
319.500000
20
175.025000
30
0.0
11
306.500000
21
175.025000
31
0.0
0
LINE
8
HIDDEN
10
306.500000
20
175.025000
30
0.0
11
306.500000
21
153.025000
31
0.0
0
LINE
8
HIDDEN
10
306.500000
20
153.025000
30
0.0
11
306.500000
21
175.025000
31
0.0
0
LINE
8
HIDDEN
10
319.500000
20
145.025000
30
0.0
11
306.500000
21
145.025000
31
0.0
0
LINE
8
HIDDEN
10
306.500000
20
145.025000
30
0.0
11
306.500000
21
123.025000
31
0.0
0
LINE
8
HIDDEN
10
306.500000
20
123.025000
30
0.0
11
306.500000
21
145.025000
31
0.0
0
LINE
8
HIDDEN
10
319.500000
20
205.025000
30
0.0
11
306.500000
21
205.025000
31
0.0
0
LINE
8
HIDDEN
10
306.500000
20
205.025000
30
0.0
11
306.500000
21
183.025000
31
0.0
0
LINE
8
HIDDEN
10
306.500000
20
183.025000
30
0.0
11
306.500000
21
205.025000
31
0.0
0
LINE
8
HIDDEN
10
290.050000
20
179.025000
30
0.0
11
290.050000
21
149.025000
31
0.0
0
LINE
8
HIDDEN
10
290.050000
20
149.025000
30
0.0
11
290.050000
21
179.025000
31
0.0
0
LINE
8
HIDDEN
10
319.500000
20
179.025000
30
0.0
11
290.050000
21
179.025000
31
0.0
0
LINE
8
HIDDEN
10
319.500000
20
175.025000
30
0.0
11
306.500000
21
175.025000
31
0.0
0
LINE
8
HIDDEN
10
306.500000
20
175.025000
30
0.0
11
306.500000
21
153.025000
31
0.0
0
LINE
8
HIDDEN
10
306.500000
20
153.025000
30
0.0
11
306.500000
21
175.025000
31
0.0
0
LINE
8
HIDDEN
10
444.500000
20
128.668365
30
0.0
11
429.500000
21
128.668365
31
0.0
0
LINE
8
HIDDEN
10
444.500000
20
119.044085
30
0.0
11
429.500000
21
119.044085
31
0.0
0
LINE
8
HIDDEN
10
444.500000
20
119.366290
30
0.0
11
429.500000
21
119.366290
31
0.0
0
LINE
8
HIDDEN
10
444.500000
20
120.083757
30
0.0
11
429.500000
21
120.083757
31
0.0
0
LINE
8
HIDDEN
10
444.500000
20
121.190136
30
0.0
11
429.500000
21
121.190136
31
0.0
0
LINE
8
HIDDEN
10
444.500000
20
122.675634
30
0.0
11
429.500000
21
122.675634
31
0.0
0
LINE
8
HIDDEN
10
444.500000
20
124.527104
30
0.0
11
429.500000
21
124.527104
31
0.0
0
LINE
8
HIDDEN
10
444.500000
20
126.728160
30
0.0
11
429.500000
21
126.728160
31
0.0
0
LINE
8
HIDDEN
10
444.500000
20
129.225000
30
0.0
11
429.500000
21
129.225000
31
0.0
0
LINE
8
HIDDEN
10
314.500000
20
206.525000
30
0.0
11
314.500000
21
221.525000
31
0.0
0
LINE
8
HIDDEN
10
329.500000
20
221.525000
30
0.0
11
314.500000
21
221.525000
31
0.0
0
LINE
8
HIDDEN
10
304.500000
20
206.525000
30
0.0
11
304.500000
21
209.025000
31
0.0
0
LINE
8
HIDDEN
10
304.500000
20
209.025000
30
0.0
11
304.500000
21
206.525000
31
0.0
0
LINE
8
HIDDEN
10
307.000000
20
206.525000
30
0.0
11
304.500000
21
206.525000
31
0.0
0
LINE
8
HIDDEN
10
304.500000
20
221.525000
30
0.0
11
314.500000
21
221.525000
31
0.0
0
LINE
8
HIDDEN
10
307.000000
20
128.668365
30
0.0
11
307.000000
21
206.525000
31
0.0
0
LINE
8
HIDDEN
10
307.050000
20
126.728160
30
0.0
11
307.050000
21
128.668365
31
0.0
0
LINE
8
HIDDEN
10
307.050000
20
124.527104
30
0.0
11
307.050000
21
126.728160
31
0.0
0
LINE
8
HIDDEN
10
307.050000
20
122.675634
30
0.0
11
307.050000
21
124.527104
31
0.0
0
LINE
8
HIDDEN
10
307.050000
20
121.190136
30
0.0
11
307.050000
21
122.675634
31
0.0
0
LINE
8
HIDDEN
10
307.050000
20
120.083757
30
0.0
11
307.050000
21
121.190136
31
0.0
0
LINE
8
HIDDEN
10
307.050000
20
119.366290
30
0.0
11
307.050000
21
120.083757
31
0.0
0
LINE
8
HIDDEN
10
307.050000
20
119.044085
30
0.0
11
307.050000
21
119.366290
31
0.0
0
LINE
8
HIDDEN
10
307.050000
20
119.025000
30
0.0
11
307.050000
21
119.044085
31
0.0
0
LINE
8
HIDDEN
10
307.000000
20
206.525000
30
0.0
11
307.000000
21
164.025000
31
0.0
0
LINE
8
HIDDEN
10
307.000000
20
206.525000
30
0.0
11
304.500000
21
206.525000
31
0.0
0
LINE
8
HIDDEN
10
307.050000
20
119.044085
30
0.0
11
307.000000
21
119.044085
31
0.0
0
LINE
8
HIDDEN
10
307.050000
20
119.366290
30
0.0
11
307.000000
21
119.366290
31
0.0
0
LINE
8
HIDDEN
10
307.050000
20
120.083757
30
0.0
11
307.000000
21
120.083757
31
0.0
0
LINE
8
HIDDEN
10
307.050000
20
121.190136
30
0.0
11
307.000000
21
121.190136
31
0.0
0
LINE
8
HIDDEN
10
307.050000
20
122.675634
30
0.0
11
307.000000
21
122.675634
31
0.0
0
LINE
8
HIDDEN
10
307.050000
20
124.527104
30
0.0
11
307.000000
21
124.527104
31
0.0
0
LINE
8
HIDDEN
10
307.050000
20
126.728160
30
0.0
11
307.000000
21
126.728160
31
0.0
0
LINE
8
HIDDEN
10
306.500000
20
169.525000
30
0.0
11
306.500000
21
158.525000
31
0.0
0
LINE
8
HIDDEN
10
306.500000
20
158.525000
30
0.0
11
306.500000
21
169.525000
31
0.0
0
LINE
8
HIDDEN
10
306.500000
20
139.525000
30
0.0
11
306.500000
21
128.525000
31
0.0
0
LINE
8
HIDDEN
10
306.500000
20
128.525000
30
0.0
11
306.500000
21
139.525000
31
0.0
0
LINE
8
HIDDEN
10
306.500000
20
199.525000
30
0.0
11
306.500000
21
188.525000
31
0.0
0
LINE
8
HIDDEN
10
306.500000
20
188.525000
30
0.0
11
306.500000
21
199.525000
31
0.0
0
LINE
8
HIDDEN
10
290.050000
20
169.525000
30
0.0
11
290.050000
21
158.525000
31
0.0
0
LINE
8
HIDDEN
10
290.050000
20
158.525000
30
0.0
11
290.050000
21
169.525000
31
0.0
0
LINE
8
HIDDEN
10
290.050000
20
139.525000
30
0.0
11
290.050000
21
128.525000
31
0.0
0
LINE
8
HIDDEN
10
290.050000
20
128.525000
30
0.0
11
290.050000
21
139.525000
31
0.0
0
LINE
8
HIDDEN
10
290.050000
20
199.525000
30
0.0
11
290.050000
21
188.525000
31
0.0
0
LINE
8
HIDDEN
10
290.050000
20
188.525000
30
0.0
11
290.050000
21
199.525000
31
0.0
0
LINE
8
HIDDEN
10
290.050000
20
169.525000
30
0.0
11
290.050000
21
158.525000
31
0.0
0
LINE
8
HIDDEN
10
290.050000
20
158.525000
30
0.0
11
290.050000
21
169.525000
31
0.0
0
LINE
8
HIDDEN
10
306.500000
20
169.525000
30
0.0
11
306.500000
21
158.525000
31
0.0
0
LINE
8
HIDDEN
10
306.500000
20
158.525000
30
0.0
11
306.500000
21
169.525000
31
0.0
0
LINE
8
HIDDEN
10
449.500000
20
204.025000
30
0.0
11
449.500000
21
124.025000
31
0.0
0
LINE
8
HIDDEN
10
449.500000
20
124.025000
30
0.0
11
449.500000
21
204.025000
31
0.0
0
LINE
8
HIDDEN
10
429.450000
20
194.025000
30
0.0
11
429.450000
21
134.025000
31
0.0
0
LINE
8
HIDDEN
10
429.450000
20
134.025000
30
0.0
11
429.450000
21
194.025000
31
0.0
0
LINE
8
HIDDEN
10
299.500000
20
204.025000
30
0.0
11
299.500000
21
124.025000
31
0.0
0
LINE
8
HIDDEN
10
299.500000
20
124.025000
30
0.0
11
299.500000
21
204.025000
31
0.0
0
LINE
8
HIDDEN
10
306.500000
20
169.525000
30
0.0
11
290.050000
21
169.525000
31
0.0
0
LINE
8
HIDDEN
10
306.500000
20
139.525000
30
0.0
11
290.050000
21
139.525000
31
0.0
0
LINE
8
HIDDEN
10
306.500000
20
199.525000
30
0.0
11
290.050000
21
199.525000
31
0.0
0
LINE
8
HIDDEN
10
306.500000
20
169.525000
30
0.0
11
290.050000
21
169.525000
31
0.0
0
LINE
8
HIDDEN
10
469.500000
20
194.025000
30
0.0
11
429.450000
21
194.025000
31
0.0
0
LINE
8
HIDDEN
10
469.500000
20
194.025000
30
0.0
11
469.500000
21
134.025000
31
0.0
0
LINE
8
HIDDEN
10
469.500000
20
134.025000
30
0.0
11
469.500000
21
194.025000
31
0.0
0
LINE
8
HIDDEN
10
419.500000
20
221.525000
30
0.0
11
419.500000
21
231.525000
31
0.0
0
LINE
8
HIDDEN
10
419.500000
20
221.525000
30
0.0
11
419.500000
21
229.025000
31
0.0
0
LINE
8
HIDDEN
10
339.500000
20
221.525000
30
0.0
11
339.500000
21
231.525000
31
0.0
0
LINE
8
HIDDEN
10
339.500000
20
221.525000
30
0.0
11
339.500000
21
229.025000
31
0.0
0
LINE
8
HIDDEN
10
413.250000
20
221.525000
30
0.0
11
413.250000
21
231.525000
31
0.0
0
LINE
8
HIDDEN
10
425.750000
20
221.525000
30
0.0
11
425.750000
21
231.525000
31
0.0
0
LINE
8
HIDDEN
10
413.250000
20
221.525000
30
0.0
11
413.250000
21
229.025000
31
0.0
0
LINE
8
HIDDEN
10
425.750000
20
221.525000
30
0.0
11
425.750000
21
229.025000
31
0.0
0
LINE
8
HIDDEN
10
333.250000
20
221.525000
30
0.0
11
333.250000
21
231.525000
31
0.0
0
LINE
8
HIDDEN
10
345.750000
20
221.525000
30
0.0
11
345.750000
21
231.525000
31
0.0
0
LINE
8
HIDDEN
10
333.250000
20
221.525000
30
0.0
11
333.250000
21
229.025000
31
0.0
0
LINE
8
HIDDEN
10
345.750000
20
221.525000
30
0.0
11
345.750000
21
229.025000
31
0.0
0
LINE
8
HIDDEN
10
328.000000
20
229.025000
30
0.0
11
328.000000
21
231.525000
31
0.0
0
LINE
8
HIDDEN
10
351.000000
20
229.025000
30
0.0
11
351.000000
21
231.525000
31
0.0
0
LINE
8
HIDDEN
10
408.000000
20
229.025000
30
0.0
11
408.000000
21
231.525000
31
0.0
0
LINE
8
HIDDEN
10
431.000000
20
229.025000
30
0.0
11
431.000000
21
231.525000
31
0.0
0
LINE
8
HIDDEN
10
319.500000
20
153.025000
30
0.0
11
306.500000
21
153.025000
31
0.0
0
LINE
8
HIDDEN
10
319.500000
20
123.025000
30
0.0
11
306.500000
21
123.025000
31
0.0
0
LINE
8
HIDDEN
10
319.500000
20
183.025000
30
0.0
11
306.500000
21
183.025000
31
0.0
0
LINE
8
HIDDEN
10
319.500000
20
149.025000
30
0.0
11
290.050000
21
149.025000
31
0.0
0
LINE
8
HIDDEN
10
319.500000
20
153.025000
30
0.0
11
306.500000
21
153.025000
31
0.0
0
LINE
8
HIDDEN
10
306.500000
20
158.525000
30
0.0
11
290.050000
21
158.525000
31
0.0
0
LINE
8
HIDDEN
10
306.500000
20
128.525000
30
0.0
11
290.050000
21
128.525000
31
0.0
0
LINE
8
HIDDEN
10
306.500000
20
188.525000
30
0.0
11
290.050000
21
188.525000
31
0.0
0
LINE
8
HIDDEN
10
306.500000
20
158.525000
30
0.0
11
290.050000
21
158.525000
31
0.0
0
LINE
8
HIDDEN
10
469.500000
20
134.025000
30
0.0
11
429.450000
21
134.025000
31
0.0
0
LINE
8
VISIBLE
10
542.500000
20
221.525000
30
0.0
11
534.000000
21
221.525000
31
0.0
0
LINE
8
VISIBLE
10
542.500000
20
231.525000
30
0.0
11
537.500000
21
231.525000
31
0.0
0
LINE
8
VISIBLE
10
542.500000
20
221.525000
30
0.0
11
542.500000
21
231.525000
31
0.0
0
LINE
8
VISIBLE
10
652.500000
20
221.525000
30
0.0
11
542.500000
21
221.525000
31
0.0
0
LINE
8
VISIBLE
10
655.000000
20
221.525000
30
0.0
11
652.500000
21
221.525000
31
0.0
0
LINE
8
VISIBLE
10
532.500000
20
221.525000
30
0.0
11
534.000000
21
221.525000
31
0.0
0
LINE
8
VISIBLE
10
652.500000
20
231.525000
30
0.0
11
542.500000
21
231.525000
31
0.0
0
LINE
8
VISIBLE
10
662.500000
20
231.525000
30
0.0
11
652.500000
21
231.525000
31
0.0
0
LINE
8
VISIBLE
10
667.500000
20
231.525000
30
0.0
11
662.500000
21
231.525000
31
0.0
0
LINE
8
VISIBLE
10
652.500000
20
221.525000
30
0.0
11
652.500000
21
231.525000
31
0.0
0
LINE
8
VISIBLE
10
657.500000
20
119.366290
30
0.0
11
657.500000
21
119.044085
31
0.0
0
LINE
8
VISIBLE
10
657.500000
20
120.083757
30
0.0
11
657.500000
21
119.366290
31
0.0
0
LINE
8
VISIBLE
10
657.500000
20
121.190136
30
0.0
11
657.500000
21
120.083757
31
0.0
0
LINE
8
VISIBLE
10
657.500000
20
122.675634
30
0.0
11
657.500000
21
121.190136
31
0.0
0
LINE
8
VISIBLE
10
657.500000
20
124.527104
30
0.0
11
657.500000
21
122.675634
31
0.0
0
LINE
8
VISIBLE
10
657.500000
20
126.728160
30
0.0
11
657.500000
21
124.527104
31
0.0
0
LINE
8
VISIBLE
10
657.500000
20
129.225000
30
0.0
11
657.500000
21
126.728160
31
0.0
0
LINE
8
VISIBLE
10
657.500000
20
156.063300
30
0.0
11
657.500000
21
129.225000
31
0.0
0
LINE
8
VISIBLE
10
657.500000
20
206.525000
30
0.0
11
657.500000
21
156.063300
31
0.0
0
LINE
8
VISIBLE
10
547.500000
20
129.225000
30
0.0
11
547.500000
21
128.668365
31
0.0
0
LINE
8
VISIBLE
10
547.500000
20
199.423800
30
0.0
11
547.500000
21
129.225000
31
0.0
0
LINE
8
VISIBLE
10
547.500000
20
221.525000
30
0.0
11
547.500000
21
199.423800
31
0.0
0
LINE
8
VISIBLE
10
532.500000
20
199.423800
30
0.0
11
547.500000
21
199.423800
31
0.0
0
LINE
8
VISIBLE
10
532.500000
20
221.525000
30
0.0
11
532.500000
21
199.423800
31
0.0
0
LINE
8
VISIBLE
10
655.000000
20
221.525000
30
0.0
11
655.000000
21
221.575000
31
0.0
0
LINE
8
VISIBLE
10
662.500000
20
221.575000
30
0.0
11
662.500000
21
231.525000
31
0.0
0
LINE
8
VISIBLE
10
647.500000
20
206.525000
30
0.0
11
647.500000
21
221.525000
31
0.0
0
LINE
8
VISIBLE
10
655.000000
20
221.575000
30
0.0
11
662.500000
21
221.575000
31
0.0
0
LINE
8
VISIBLE
10
662.500000
20
206.525000
30
0.0
11
662.500000
21
221.575000
31
0.0
0
LINE
8
VISIBLE
10
647.500000
20
206.525000
30
0.0
11
662.500000
21
206.525000
31
0.0
0
LINE
8
VISIBLE
10
532.500000
20
129.225000
30
0.0
11
532.500000
21
128.668365
31
0.0
0
LINE
8
VISIBLE
10
532.500000
20
199.423800
30
0.0
11
532.500000
21
129.225000
31
0.0
0
LINE
8
VISIBLE
10
662.500000
20
221.575000
30
0.0
11
672.500000
21
221.575000
31
0.0
0
LINE
8
VISIBLE
10
657.500000
20
119.044085
30
0.0
11
669.950000
21
119.044085
31
0.0
0
LINE
8
VISIBLE
10
657.500000
20
119.366290
30
0.0
11
669.950000
21
119.366290
31
0.0
0
LINE
8
VISIBLE
10
657.500000
20
120.083757
30
0.0
11
669.950000
21
120.083757
31
0.0
0
LINE
8
VISIBLE
10
657.500000
20
121.190136
30
0.0
11
669.950000
21
121.190136
31
0.0
0
LINE
8
VISIBLE
10
657.500000
20
122.675634
30
0.0
11
669.950000
21
122.675634
31
0.0
0
LINE
8
VISIBLE
10
657.500000
20
124.527104
30
0.0
11
669.950000
21
124.527104
31
0.0
0
LINE
8
VISIBLE
10
657.500000
20
126.728160
30
0.0
11
669.950000
21
126.728160
31
0.0
0
LINE
8
VISIBLE
10
669.950000
20
128.668365
30
0.0
11
670.000000
21
128.668365
31
0.0
0
LINE
8
VISIBLE
10
670.000000
20
129.225000
30
0.0
11
670.000000
21
128.668365
31
0.0
0
LINE
8
VISIBLE
10
657.500000
20
129.225000
30
0.0
11
670.000000
21
129.225000
31
0.0
0
LINE
8
VISIBLE
10
657.500000
20
156.063300
30
0.0
11
670.000000
21
156.063300
31
0.0
0
LINE
8
VISIBLE
10
670.000000
20
156.063300
30
0.0
11
670.000000
21
129.225000
31
0.0
0
LINE
8
VISIBLE
10
670.000000
20
206.525000
30
0.0
11
670.000000
21
156.063300
31
0.0
0
LINE
8
VISIBLE
10
532.500000
20
128.668365
30
0.0
11
547.500000
21
128.668365
31
0.0
0
LINE
8
VISIBLE
10
527.500000
20
119.025000
30
0.0
11
527.500000
21
209.025000
31
0.0
0
LINE
8
VISIBLE
10
547.550000
20
119.025000
30
0.0
11
547.550000
21
209.025000
31
0.0
0
LINE
8
VISIBLE
10
532.500000
20
119.044085
30
0.0
11
547.500000
21
119.044085
31
0.0
0
LINE
8
VISIBLE
10
532.500000
20
119.366290
30
0.0
11
547.500000
21
119.366290
31
0.0
0
LINE
8
VISIBLE
10
532.500000
20
120.083757
30
0.0
11
547.500000
21
120.083757
31
0.0
0
LINE
8
VISIBLE
10
532.500000
20
121.190136
30
0.0
11
547.500000
21
121.190136
31
0.0
0
LINE
8
VISIBLE
10
532.500000
20
122.675634
30
0.0
11
547.500000
21
122.675634
31
0.0
0
LINE
8
VISIBLE
10
532.500000
20
124.527104
30
0.0
11
547.500000
21
124.527104
31
0.0
0
LINE
8
VISIBLE
10
532.500000
20
126.728160
30
0.0
11
547.500000
21
126.728160
31
0.0
0
LINE
8
VISIBLE
10
507.500000
20
124.025000
30
0.0
11
507.500000
21
204.025000
31
0.0
0
LINE
8
VISIBLE
10
669.950000
20
126.728160
30
0.0
11
669.950000
21
128.668365
31
0.0
0
LINE
8
VISIBLE
10
669.950000
20
124.527104
30
0.0
11
669.950000
21
126.728160
31
0.0
0
LINE
8
VISIBLE
10
669.950000
20
122.675634
30
0.0
11
669.950000
21
124.527104
31
0.0
0
LINE
8
VISIBLE
10
669.950000
20
121.190136
30
0.0
11
669.950000
21
122.675634
31
0.0
0
LINE
8
VISIBLE
10
669.950000
20
120.083757
30
0.0
11
669.950000
21
121.190136
31
0.0
0
LINE
8
VISIBLE
10
669.950000
20
119.366290
30
0.0
11
669.950000
21
120.083757
31
0.0
0
LINE
8
VISIBLE
10
669.950000
20
119.044085
30
0.0
11
669.950000
21
119.366290
31
0.0
0
LINE
8
VISIBLE
10
669.950000
20
119.025000
30
0.0
11
669.950000
21
119.044085
31
0.0
0
LINE
8
VISIBLE
10
677.500000
20
119.025000
30
0.0
11
677.500000
21
209.025000
31
0.0
0
LINE
8
VISIBLE
10
669.950000
20
119.044085
30
0.0
11
670.000000
21
119.044085
31
0.0
0
LINE
8
VISIBLE
10
669.950000
20
119.366290
30
0.0
11
670.000000
21
119.366290
31
0.0
0
LINE
8
VISIBLE
10
669.950000
20
120.083757
30
0.0
11
670.000000
21
120.083757
31
0.0
0
LINE
8
VISIBLE
10
669.950000
20
121.190136
30
0.0
11
670.000000
21
121.190136
31
0.0
0
LINE
8
VISIBLE
10
669.950000
20
122.675634
30
0.0
11
670.000000
21
122.675634
31
0.0
0
LINE
8
VISIBLE
10
669.950000
20
124.527104
30
0.0
11
670.000000
21
124.527104
31
0.0
0
LINE
8
VISIBLE
10
669.950000
20
126.728160
30
0.0
11
670.000000
21
126.728160
31
0.0
0
LINE
8
VISIBLE
10
686.950000
20
124.025000
30
0.0
11
686.950000
21
204.025000
31
0.0
0
LINE
8
VISIBLE
10
532.500000
20
129.225000
30
0.0
11
547.500000
21
129.225000
31
0.0
0
LINE
8
VISIBLE
10
672.500000
20
206.525000
30
0.0
11
672.500000
21
221.525000
31
0.0
0
LINE
8
VISIBLE
10
662.500000
20
206.525000
30
0.0
11
672.500000
21
206.525000
31
0.0
0
LINE
8
VISIBLE
10
672.500000
20
221.525000
30
0.0
11
662.500000
21
221.525000
31
0.0
0
LINE
8
SECTION
10
657.500000
20
205.025000
30
0.0
11
657.500000
21
221.525000
31
0.0
0
LINE
8
SECTION
10
547.500000
20
221.525000
30
0.0
11
657.500000
21
221.525000
31
0.0
0
LINE
8
SECTION
10
547.500000
20
209.025000
30
0.0
11
547.500000
21
221.525000
31
0.0
0
LINE
8
SECTION
10
547.500000
20
209.025000
30
0.0
11
547.550000
21
209.025000
31
0.0
0
LINE
8
SECTION
10
547.550000
20
209.025000
30
0.0
11
547.550000
21
194.025000
31
0.0
0
LINE
8
SECTION
10
507.500000
20
194.025000
30
0.0
11
547.550000
21
194.025000
31
0.0
0
LINE
8
SECTION
10
507.500000
20
204.025000
30
0.0
11
507.500000
21
194.025000
31
0.0
0
LINE
8
SECTION
10
507.500000
20
204.025000
30
0.0
11
527.500000
21
204.025000
31
0.0
0
LINE
8
SECTION
10
527.500000
20
209.025000
30
0.0
11
527.500000
21
204.025000
31
0.0
0
LINE
8
SECTION
10
527.500000
20
209.025000
30
0.0
11
532.500000
21
209.025000
31
0.0
0
LINE
8
SECTION
10
532.500000
20
209.025000
30
0.0
11
532.500000
21
221.525000
31
0.0
0
LINE
8
SECTION
10
532.500000
20
226.525000
30
0.0
11
532.500000
21
221.525000
31
0.0
0
LINE
8
SECTION
10
537.500000
20
231.525000
30
0.0
11
532.500000
21
226.525000
31
0.0
0
LINE
8
SECTION
10
537.500000
20
231.525000
30
0.0
11
667.500000
21
231.525000
31
0.0
0
LINE
8
SECTION
10
667.500000
20
231.525000
30
0.0
11
672.500000
21
226.525000
31
0.0
0
LINE
8
SECTION
10
672.500000
20
221.575000
30
0.0
11
672.500000
21
226.525000
31
0.0
0
LINE
8
SECTION
10
672.500000
20
221.525000
30
0.0
11
672.500000
21
221.575000
31
0.0
0
LINE
8
SECTION
10
672.500000
20
221.525000
30
0.0
11
672.500000
21
209.025000
31
0.0
0
LINE
8
SECTION
10
672.500000
20
209.025000
30
0.0
11
677.500000
21
209.025000
31
0.0
0
LINE
8
SECTION
10
677.500000
20
209.025000
30
0.0
11
677.500000
21
204.025000
31
0.0
0
LINE
8
SECTION
10
677.500000
20
204.025000
30
0.0
11
686.950000
21
204.025000
31
0.0
0
LINE
8
SECTION
10
686.950000
20
204.025000
30
0.0
11
686.950000
21
199.525000
31
0.0
0
LINE
8
SECTION
10
670.500000
20
199.525000
30
0.0
11
686.950000
21
199.525000
31
0.0
0
LINE
8
SECTION
10
670.500000
20
205.025000
30
0.0
11
670.500000
21
199.525000
31
0.0
0
LINE
8
SECTION
10
657.500000
20
205.025000
30
0.0
11
670.500000
21
205.025000
31
0.0
0
LINE
8
SECTION
10
657.500000
20
179.025000
30
0.0
11
657.500000
21
183.025000
31
0.0
0
LINE
8
SECTION
10
657.500000
20
183.025000
30
0.0
11
670.500000
21
183.025000
31
0.0
0
LINE
8
SECTION
10
670.500000
20
188.525000
30
0.0
11
670.500000
21
183.025000
31
0.0
0
LINE
8
SECTION
10
670.500000
20
188.525000
30
0.0
11
686.950000
21
188.525000
31
0.0
0
LINE
8
SECTION
10
686.950000
20
188.525000
30
0.0
11
686.950000
21
179.025000
31
0.0
0
LINE
8
SECTION
10
657.500000
20
179.025000
30
0.0
11
686.950000
21
179.025000
31
0.0
0
LINE
8
SECTION
10
657.500000
20
145.025000
30
0.0
11
657.500000
21
149.025000
31
0.0
0
LINE
8
SECTION
10
657.500000
20
149.025000
30
0.0
11
686.950000
21
149.025000
31
0.0
0
LINE
8
SECTION
10
686.950000
20
149.025000
30
0.0
11
686.950000
21
139.525000
31
0.0
0
LINE
8
SECTION
10
670.500000
20
139.525000
30
0.0
11
686.950000
21
139.525000
31
0.0
0
LINE
8
SECTION
10
670.500000
20
145.025000
30
0.0
11
670.500000
21
139.525000
31
0.0
0
LINE
8
SECTION
10
657.500000
20
145.025000
30
0.0
11
670.500000
21
145.025000
31
0.0
0
LINE
8
SECTION
10
657.500000
20
119.067585
30
0.0
11
657.500000
21
123.025000
31
0.0
0
LINE
8
SECTION
10
657.500000
20
123.025000
30
0.0
11
670.500000
21
123.025000
31
0.0
0
LINE
8
SECTION
10
670.500000
20
128.525000
30
0.0
11
670.500000
21
123.025000
31
0.0
0
LINE
8
SECTION
10
670.500000
20
128.525000
30
0.0
11
686.950000
21
128.525000
31
0.0
0
LINE
8
SECTION
10
686.950000
20
128.525000
30
0.0
11
686.950000
21
124.025000
31
0.0
0
LINE
8
SECTION
10
677.500000
20
124.025000
30
0.0
11
686.950000
21
124.025000
31
0.0
0
LINE
8
SECTION
10
677.500000
20
124.025000
30
0.0
11
677.500000
21
119.025000
31
0.0
0
LINE
8
SECTION
10
669.950000
20
119.025000
30
0.0
11
677.500000
21
119.025000
31
0.0
0
LINE
8
SECTION
10
669.950000
20
119.067585
30
0.0
11
669.950000
21
119.025000
31
0.0
0
LINE
8
SECTION
10
669.950000
20
119.067585
30
0.0
11
657.500000
21
119.067585
31
0.0
0
LINE
8
SECTION
10
527.500000
20
124.025000
30
0.0
11
527.500000
21
119.025000
31
0.0
0
LINE
8
SECTION
10
507.500000
20
124.025000
30
0.0
11
527.500000
21
124.025000
31
0.0
0
LINE
8
SECTION
10
507.500000
20
134.025000
30
0.0
11
507.500000
21
124.025000
31
0.0
0
LINE
8
SECTION
10
507.500000
20
134.025000
30
0.0
11
547.550000
21
134.025000
31
0.0
0
LINE
8
SECTION
10
547.550000
20
134.025000
30
0.0
11
547.550000
21
119.025000
31
0.0
0
LINE
8
SECTION
10
527.500000
20
119.025000
30
0.0
11
547.550000
21
119.025000
31
0.0
0
LINE
8
VISIBLE
10
795.264864
20
567.320366
30
0.0
11
791.319791
21
567.320366
31
0.0
0
LINE
8
VISIBLE
10
790.623602
20
567.320366
30
0.0
11
790.623602
21
568.660183
31
0.0
0
LINE
8
VISIBLE
10
790.623602
20
568.660183
30
0.0
11
792.944233
21
570.000000
31
0.0
0
LINE
8
VISIBLE
10
795.264864
20
570.000000
30
0.0
11
792.944233
21
570.000000
31
0.0
0
LINE
8
VISIBLE
10
795.264864
20
567.320366
30
0.0
11
795.264864
21
570.000000
31
0.0
0
LINE
8
VISIBLE
10
790.913681
20
542.031320
30
0.0
11
795.554943
21
539.351686
31
0.0
0
LINE
8
VISIBLE
10
794.090625
20
538.506262
30
0.0
11
795.554943
21
539.351686
31
0.0
0
LINE
8
VISIBLE
10
783.965711
20
529.981006
30
0.0
11
794.090625
21
535.826628
31
0.0
0
LINE
8
VISIBLE
10
781.645080
20
531.320823
30
0.0
11
783.965711
21
529.981006
31
0.0
0
LINE
8
VISIBLE
10
780.180762
20
530.475399
30
0.0
11
781.645080
21
531.320823
31
0.0
0
LINE
8
VISIBLE
10
764.385264
20
539.594934
30
0.0
11
764.659344
21
539.436694
31
0.0
0
LINE
8
VISIBLE
10
776.697803
20
532.486286
30
0.0
11
780.180762
21
530.475399
31
0.0
0
LINE
8
VISIBLE
10
791.319791
20
567.320366
30
0.0
11
794.452643
21
565.511613
31
0.0
0
LINE
8
VISIBLE
10
820.791806
20
552.582379
30
0.0
11
795.264864
21
567.320366
31
0.0
0
LINE
8
VISIBLE
10
820.791806
20
551.912471
30
0.0
11
820.791806
21
552.582379
31
0.0
0
LINE
8
VISIBLE
10
819.051333
20
552.917333
30
0.0
11
820.791806
21
551.912471
31
0.0
0
LINE
8
VISIBLE
10
807.738256
20
546.385726
30
0.0
11
819.051333
21
552.917333
31
0.0
0
LINE
8
VISIBLE
10
803.096994
20
549.065360
30
0.0
11
807.738256
21
546.385726
31
0.0
0
LINE
8
VISIBLE
10
790.913681
20
542.031320
30
0.0
11
803.096994
21
549.065360
31
0.0
0
LINE
8
VISIBLE
10
794.974785
20
563.133438
30
0.0
11
796.255602
21
562.790636
31
0.0
0
LINE
8
VISIBLE
10
796.255602
20
562.790636
30
0.0
11
797.737035
21
563.060453
31
0.0
0
LINE
8
VISIBLE
10
797.737035
20
563.060453
30
0.0
11
798.476347
21
563.970824
31
0.0
0
LINE
8
VISIBLE
10
798.476347
20
563.970824
30
0.0
11
798.128620
21
564.630515
31
0.0
0
LINE
8
VISIBLE
10
798.128620
20
564.630515
30
0.0
11
797.057386
21
565.097412
31
0.0
0
LINE
8
VISIBLE
10
797.057386
20
565.097412
30
0.0
11
795.529940
21
565.036318
31
0.0
0
LINE
8
VISIBLE
10
795.529940
20
565.036318
30
0.0
11
794.452643
21
564.295574
31
0.0
0
LINE
8
VISIBLE
10
794.452643
20
563.646073
30
0.0
11
794.974785
21
563.133438
31
0.0
0
LINE
8
VISIBLE
10
813.539834
20
552.414902
30
0.0
11
814.820651
21
552.072100
31
0.0
0
LINE
8
VISIBLE
10
814.820651
20
552.072100
30
0.0
11
816.302084
21
552.341917
31
0.0
0
LINE
8
VISIBLE
10
816.302084
20
552.341917
30
0.0
11
817.041396
21
553.252288
31
0.0
0
LINE
8
VISIBLE
10
817.041396
20
553.252288
30
0.0
11
816.693669
21
553.911979
31
0.0
0
LINE
8
VISIBLE
10
816.693669
20
553.911979
30
0.0
11
815.622435
21
554.378876
31
0.0
0
LINE
8
VISIBLE
10
815.622435
20
554.378876
30
0.0
11
814.094988
21
554.317782
31
0.0
0
LINE
8
VISIBLE
10
814.094988
20
554.317782
30
0.0
11
813.092199
21
553.701277
31
0.0
0
LINE
8
VISIBLE
10
813.092199
20
553.701277
30
0.0
11
812.939061
21
553.252288
31
0.0
0
LINE
8
VISIBLE
10
812.939061
20
553.252288
30
0.0
11
813.539834
21
552.414902
31
0.0
0
LINE
8
VISIBLE
10
778.730368
20
532.317647
30
0.0
11
780.011185
21
531.974845
31
0.0
0
LINE
8
VISIBLE
10
780.011185
20
531.974845
30
0.0
11
781.492618
21
532.244662
31
0.0
0
LINE
8
VISIBLE
10
781.492618
20
532.244662
30
0.0
11
782.231929
21
533.155033
31
0.0
0
LINE
8
VISIBLE
10
782.231929
20
533.155033
30
0.0
11
781.884202
21
533.814725
31
0.0
0
LINE
8
VISIBLE
10
781.884202
20
533.814725
30
0.0
11
780.812969
21
534.281621
31
0.0
0
LINE
8
VISIBLE
10
780.812969
20
534.281621
30
0.0
11
779.285522
21
534.220527
31
0.0
0
LINE
8
VISIBLE
10
779.285522
20
534.220527
30
0.0
11
778.282733
21
533.604022
31
0.0
0
LINE
8
VISIBLE
10
778.282733
20
533.604022
30
0.0
11
778.129595
21
533.155033
31
0.0
0
LINE
8
VISIBLE
10
778.129595
20
533.155033
30
0.0
11
778.730368
21
532.317647
31
0.0
0
LINE
8
VISIBLE
10
790.623602
20
567.320366
30
0.0
11
790.971697
21
567.521339
31
0.0
0
LINE
8
VISIBLE
10
790.971697
20
567.521339
30
0.0
11
791.319791
21
567.320366
31
0.0
0
LINE
8
VISIBLE
10
790.623602
20
567.320366
30
0.0
11
764.126276
21
552.022128
31
0.0
0
LINE
8
VISIBLE
10
753.493504
20
546.036540
30
0.0
11
753.493504
21
547.223111
31
0.0
0
LINE
8
VISIBLE
10
790.623602
20
568.660183
30
0.0
11
761.945106
21
552.102646
31
0.0
0
LINE
8
VISIBLE
10
755.484743
20
548.372753
30
0.0
11
753.493504
21
547.223111
31
0.0
0
LINE
8
VISIBLE
10
793.234312
20
543.371137
30
0.0
11
799.035890
21
540.021595
31
0.0
0
LINE
8
VISIBLE
10
799.035890
20
540.021595
30
0.0
11
807.738256
21
545.045909
31
0.0
0
LINE
8
VISIBLE
10
820.791806
20
555.262013
30
0.0
11
795.264864
21
570.000000
31
0.0
0
LINE
8
VISIBLE
10
820.791806
20
552.582379
30
0.0
11
820.791806
21
555.262013
31
0.0
0
LINE
8
VISIBLE
10
799.035890
20
538.681778
30
0.0
11
799.035890
21
540.021595
31
0.0
0
LINE
8
VISIBLE
10
795.554943
20
539.365085
30
0.0
11
797.887177
21
538.018569
31
0.0
0
LINE
8
VISIBLE
10
795.554943
20
539.351686
30
0.0
11
795.554943
21
539.365085
31
0.0
0
LINE
8
VISIBLE
10
794.090625
20
534.486811
30
0.0
11
794.090625
21
538.506262
31
0.0
0
LINE
8
VISIBLE
10
795.554943
20
535.332236
30
0.0
11
795.554943
21
539.351686
31
0.0
0
LINE
8
VISIBLE
10
795.554943
20
535.332236
30
0.0
11
794.090625
21
534.486811
31
0.0
0
LINE
8
VISIBLE
10
794.090625
20
534.486811
30
0.0
11
796.411256
21
533.146994
31
0.0
0
LINE
8
VISIBLE
10
797.875574
20
538.011869
30
0.0
11
807.738256
21
543.706092
31
0.0
0
LINE
8
VISIBLE
10
797.875574
20
538.011869
30
0.0
11
797.875574
21
533.992419
31
0.0
0
LINE
8
VISIBLE
10
807.738256
20
542.366275
30
0.0
11
807.738256
21
526.164752
31
0.0
0
LINE
8
VISIBLE
10
797.875574
20
533.992419
30
0.0
11
796.411256
21
533.146994
31
0.0
0
LINE
8
VISIBLE
10
807.738256
20
526.164752
30
0.0
11
800.161396
21
514.598568
31
0.0
0
LINE
8
VISIBLE
10
800.161396
20
514.598568
30
0.0
11
799.367340
21
513.471058
31
0.0
0
LINE
8
VISIBLE
10
799.367340
20
513.471058
30
0.0
11
798.528116
21
512.396729
31
0.0
0
LINE
8
VISIBLE
10
783.965711
20
529.981006
30
0.0
11
783.965711
21
525.961556
31
0.0
0
LINE
8
VISIBLE
10
798.528116
20
512.396729
30
0.0
11
797.644605
21
511.390508
31
0.0
0
LINE
8
VISIBLE
10
783.965711
20
525.961556
30
0.0
11
782.516656
21
525.124943
31
0.0
0
LINE
8
VISIBLE
10
797.644605
20
511.390508
30
0.0
11
796.724628
21
510.461299
31
0.0
0
LINE
8
VISIBLE
10
782.567531
20
523.814499
30
0.0
11
782.516656
21
525.124943
31
0.0
0
LINE
8
VISIBLE
10
796.724628
20
510.461299
30
0.0
11
795.776325
21
509.617328
31
0.0
0
LINE
8
VISIBLE
10
783.081551
20
514.062641
30
0.0
11
782.567531
21
523.814499
31
0.0
0
LINE
8
VISIBLE
10
795.776325
20
509.617328
30
0.0
11
794.808092
21
508.866063
31
0.0
0
LINE
8
VISIBLE
10
783.127764
20
512.956149
30
0.0
11
783.081551
21
514.062641
31
0.0
0
LINE
8
VISIBLE
10
794.808092
20
508.866063
30
0.0
11
793.828497
21
508.214154
31
0.0
0
LINE
8
VISIBLE
10
783.265995
20
511.912812
30
0.0
11
783.127764
21
512.956149
31
0.0
0
LINE
8
VISIBLE
10
793.828497
20
508.214154
30
0.0
11
792.846210
21
507.667372
31
0.0
0
LINE
8
VISIBLE
10
783.495021
20
510.941866
30
0.0
11
783.265995
21
511.912812
31
0.0
0
LINE
8
VISIBLE
10
792.846210
20
507.667372
30
0.0
11
791.869926
21
507.230554
31
0.0
0
LINE
8
VISIBLE
10
783.812813
20
510.051903
30
0.0
11
783.495021
21
510.941866
31
0.0
0
LINE
8
VISIBLE
10
791.869926
20
507.230554
30
0.0
11
790.908285
21
506.907568
31
0.0
0
LINE
8
VISIBLE
10
784.216560
20
509.250801
30
0.0
11
783.812813
21
510.051903
31
0.0
0
LINE
8
VISIBLE
10
790.908285
20
506.907568
30
0.0
11
789.969798
21
506.701273
31
0.0
0
LINE
8
VISIBLE
10
784.702688
20
508.545650
30
0.0
11
784.216560
21
509.250801
31
0.0
0
LINE
8
VISIBLE
10
789.969798
20
506.701273
30
0.0
11
789.062772
21
506.613493
31
0.0
0
LINE
8
VISIBLE
10
785.266895
20
507.942691
30
0.0
11
784.702688
21
508.545650
31
0.0
0
LINE
8
VISIBLE
10
789.062772
20
506.613493
30
0.0
11
788.195235
21
506.645007
31
0.0
0
LINE
8
VISIBLE
10
785.904186
20
507.447260
30
0.0
11
785.266895
21
507.942691
31
0.0
0
LINE
8
VISIBLE
10
788.195235
20
506.645007
30
0.0
11
787.374865
21
506.795534
31
0.0
0
LINE
8
VISIBLE
10
786.608922
20
507.063743
30
0.0
11
785.904186
21
507.447260
31
0.0
0
LINE
8
VISIBLE
10
787.374865
20
506.795534
30
0.0
11
786.608922
21
507.063743
31
0.0
0
LINE
8
VISIBLE
10
800.486284
20
527.058866
30
0.0
11
799.196633
21
525.910451
31
0.0
0
LINE
8
VISIBLE
10
799.196633
20
525.910451
30
0.0
11
798.200519
21
524.103845
31
0.0
0
LINE
8
VISIBLE
10
798.200519
20
524.103845
30
0.0
11
797.950326
21
522.310160
31
0.0
0
LINE
8
VISIBLE
10
797.950326
20
522.310160
30
0.0
11
798.681257
21
520.984869
31
0.0
0
LINE
8
VISIBLE
10
798.681257
20
520.984869
30
0.0
11
799.634906
21
520.840899
31
0.0
0
LINE
8
VISIBLE
10
799.634906
20
520.840899
30
0.0
11
800.847282
21
521.401716
31
0.0
0
LINE
8
VISIBLE
10
800.847282
20
521.401716
30
0.0
11
802.109509
21
522.773534
31
0.0
0
LINE
8
VISIBLE
10
802.109509
20
522.773534
30
0.0
11
802.927655
21
524.659823
31
0.0
0
LINE
8
VISIBLE
10
802.927655
20
524.659823
30
0.0
11
802.952372
21
526.296344
31
0.0
0
LINE
8
VISIBLE
10
802.952372
20
526.296344
30
0.0
11
802.291311
21
527.237667
31
0.0
0
LINE
8
VISIBLE
10
802.291311
20
527.237667
30
0.0
11
801.337662
21
527.381637
31
0.0
0
LINE
8
VISIBLE
10
801.337662
20
527.381637
30
0.0
11
800.486284
21
527.058866
31
0.0
0
LINE
8
VISIBLE
10
793.524391
20
515.000513
30
0.0
11
792.234740
21
513.852098
31
0.0
0
LINE
8
VISIBLE
10
792.234740
20
513.852098
30
0.0
11
791.238626
21
512.045492
31
0.0
0
LINE
8
VISIBLE
10
791.238626
20
512.045492
30
0.0
11
790.988432
21
510.251807
31
0.0
0
LINE
8
VISIBLE
10
790.988432
20
510.251807
30
0.0
11
791.719363
21
508.926516
31
0.0
0
LINE
8
VISIBLE
10
791.719363
20
508.926516
30
0.0
11
792.673013
21
508.782547
31
0.0
0
LINE
8
VISIBLE
10
792.673013
20
508.782547
30
0.0
11
793.885388
21
509.343364
31
0.0
0
LINE
8
VISIBLE
10
793.885388
20
509.343364
30
0.0
11
795.147616
21
510.715182
31
0.0
0
LINE
8
VISIBLE
10
795.147616
20
510.715182
30
0.0
11
795.965762
21
512.601470
31
0.0
0
LINE
8
VISIBLE
10
795.965762
20
512.601470
30
0.0
11
795.990478
21
514.237991
31
0.0
0
LINE
8
VISIBLE
10
795.990478
20
514.237991
30
0.0
11
795.329418
21
515.179315
31
0.0
0
LINE
8
VISIBLE
10
795.329418
20
515.179315
30
0.0
11
794.375769
21
515.323284
31
0.0
0
LINE
8
VISIBLE
10
794.375769
20
515.323284
30
0.0
11
793.524391
21
515.000513
31
0.0
0
LINE
8
VISIBLE
10
793.524391
20
531.078317
30
0.0
11
792.234740
21
529.929902
31
0.0
0
LINE
8
VISIBLE
10
792.234740
20
529.929902
30
0.0
11
791.238626
21
528.123296
31
0.0
0
LINE
8
VISIBLE
10
791.238626
20
528.123296
30
0.0
11
790.988432
21
526.329610
31
0.0
0
LINE
8
VISIBLE
10
790.988432
20
526.329610
30
0.0
11
791.719363
21
525.004320
31
0.0
0
LINE
8
VISIBLE
10
791.719363
20
525.004320
30
0.0
11
792.673013
21
524.860350
31
0.0
0
LINE
8
VISIBLE
10
792.673013
20
524.860350
30
0.0
11
793.885388
21
525.421167
31
0.0
0
LINE
8
VISIBLE
10
793.885388
20
525.421167
30
0.0
11
795.147616
21
526.792985
31
0.0
0
LINE
8
VISIBLE
10
795.147616
20
526.792985
30
0.0
11
795.965762
21
528.679274
31
0.0
0
LINE
8
VISIBLE
10
795.965762
20
528.679274
30
0.0
11
795.990478
21
530.315794
31
0.0
0
LINE
8
VISIBLE
10
795.990478
20
530.315794
30
0.0
11
795.329418
21
531.257118
31
0.0
0
LINE
8
VISIBLE
10
795.329418
20
531.257118
30
0.0
11
794.375769
21
531.401088
31
0.0
0
LINE
8
VISIBLE
10
794.375769
20
531.401088
30
0.0
11
793.524391
21
531.078317
31
0.0
0
LINE
8
VISIBLE
10
793.524391
20
524.111268
30
0.0
11
791.999195
21
522.824326
31
0.0
0
LINE
8
VISIBLE
10
791.999195
20
522.824326
30
0.0
11
790.700341
21
520.811311
31
0.0
0
LINE
8
VISIBLE
10
790.700341
20
520.811311
30
0.0
11
790.070463
21
518.597524
31
0.0
0
LINE
8
VISIBLE
10
790.070463
20
518.597524
30
0.0
11
790.239619
21
516.865060
31
0.0
0
LINE
8
VISIBLE
10
790.239619
20
516.865060
30
0.0
11
791.062990
21
515.828546
31
0.0
0
LINE
8
VISIBLE
10
791.062990
20
515.828546
30
0.0
11
792.155991
21
515.605923
31
0.0
0
LINE
8
VISIBLE
10
792.155991
20
515.605923
30
0.0
11
793.529329
21
516.075221
31
0.0
0
LINE
8
VISIBLE
10
793.529329
20
516.075221
30
0.0
11
795.054527
21
517.364947
31
0.0
0
LINE
8
VISIBLE
10
795.054527
20
517.364947
30
0.0
11
796.351825
21
519.379711
31
0.0
0
LINE
8
VISIBLE
10
796.351825
20
519.379711
30
0.0
11
796.979015
21
521.592975
31
0.0
0
LINE
8
VISIBLE
10
796.979015
20
521.592975
30
0.0
11
796.807519
21
523.323026
31
0.0
0
LINE
8
VISIBLE
10
796.807519
20
523.323026
30
0.0
11
795.985792
21
524.355089
31
0.0
0
LINE
8
VISIBLE
10
795.985792
20
524.355089
30
0.0
11
794.892791
21
524.577712
31
0.0
0
LINE
8
VISIBLE
10
794.892791
20
524.577712
30
0.0
11
793.524391
21
524.111268
31
0.0
0
LINE
8
VISIBLE
10
786.562498
20
519.019964
30
0.0
11
785.272846
21
517.871549
31
0.0
0
LINE
8
VISIBLE
10
785.272846
20
517.871549
30
0.0
11
784.276733
21
516.064943
31
0.0
0
LINE
8
VISIBLE
10
784.276733
20
516.064943
30
0.0
11
784.026539
21
514.271258
31
0.0
0
LINE
8
VISIBLE
10
784.026539
20
514.271258
30
0.0
11
784.757470
21
512.945967
31
0.0
0
LINE
8
VISIBLE
10
784.757470
20
512.945967
30
0.0
11
785.711119
21
512.801998
31
0.0
0
LINE
8
VISIBLE
10
785.711119
20
512.801998
30
0.0
11
786.923495
21
513.362814
31
0.0
0
LINE
8
VISIBLE
10
786.923495
20
513.362814
30
0.0
11
788.185722
21
514.734633
31
0.0
0
LINE
8
VISIBLE
10
788.185722
20
514.734633
30
0.0
11
789.003869
21
516.620921
31
0.0
0
LINE
8
VISIBLE
10
789.003869
20
516.620921
30
0.0
11
789.028585
21
518.257442
31
0.0
0
LINE
8
VISIBLE
10
789.028585
20
518.257442
30
0.0
11
788.367525
21
519.198765
31
0.0
0
LINE
8
VISIBLE
10
788.367525
20
519.198765
30
0.0
11
787.413876
21
519.342735
31
0.0
0
LINE
8
VISIBLE
10
787.413876
20
519.342735
30
0.0
11
786.562498
21
519.019964
31
0.0
0
LINE
8
VISIBLE
10
781.645080
20
527.301372
30
0.0
11
781.645080
21
531.320823
31
0.0
0
LINE
8
VISIBLE
10
781.645080
20
527.301372
30
0.0
11
783.965711
21
525.961556
31
0.0
0
LINE
8
VISIBLE
10
780.180762
20
526.455948
30
0.0
11
780.180762
21
530.475399
31
0.0
0
LINE
8
VISIBLE
10
781.645080
20
527.301372
30
0.0
11
780.180762
21
526.455948
31
0.0
0
LINE
8
VISIBLE
10
774.634454
20
529.336554
30
0.0
11
774.457430
21
529.085192
31
0.0
0
LINE
8
VISIBLE
10
794.452643
20
559.589300
30
0.0
11
774.634454
21
529.336554
31
0.0
0
LINE
8
VISIBLE
10
794.452643
20
565.511613
30
0.0
11
794.452643
21
559.589300
31
0.0
0
LINE
8
VISIBLE
10
790.971697
20
561.599026
30
0.0
11
794.452643
21
559.589300
31
0.0
0
LINE
8
VISIBLE
10
790.971697
20
567.521339
30
0.0
11
790.971697
21
561.599026
31
0.0
0
LINE
8
VISIBLE
10
819.051333
20
548.897882
30
0.0
11
819.051333
21
552.917333
31
0.0
0
LINE
8
VISIBLE
10
820.791806
20
551.925869
30
0.0
11
822.532279
21
550.921006
31
0.0
0
LINE
8
VISIBLE
10
822.532279
20
546.888157
30
0.0
11
822.532279
21
550.921006
31
0.0
0
LINE
8
VISIBLE
10
819.051333
20
548.897882
30
0.0
11
822.532279
21
546.888157
31
0.0
0
LINE
8
VISIBLE
10
807.738256
20
542.366275
30
0.0
11
807.738256
21
546.385726
31
0.0
0
LINE
8
VISIBLE
10
819.051333
20
548.897882
30
0.0
11
807.738256
21
542.366275
31
0.0
0
LINE
8
VISIBLE
10
779.095386
20
534.159896
30
0.0
11
781.266138
21
534.159896
31
0.0
0
LINE
8
VISIBLE
10
770.976484
20
531.094918
30
0.0
11
773.047633
21
534.810584
31
0.0
0
LINE
8
VISIBLE
10
773.047633
20
534.810584
30
0.0
11
774.408217
21
538.684958
31
0.0
0
LINE
8
VISIBLE
10
774.408217
20
538.684958
30
0.0
11
774.948040
21
542.301309
31
0.0
0
LINE
8
VISIBLE
10
774.948040
20
542.301309
30
0.0
11
774.711469
21
545.337252
31
0.0
0
LINE
8
VISIBLE
10
774.711469
20
545.337252
30
0.0
11
773.850203
21
547.636355
31
0.0
0
LINE
8
VISIBLE
10
773.850203
20
547.636355
30
0.0
11
771.900705
21
549.629344
31
0.0
0
LINE
8
VISIBLE
10
771.153507
20
531.346280
30
0.0
11
770.976484
21
531.094918
31
0.0
0
LINE
8
VISIBLE
10
790.971697
20
561.599026
30
0.0
11
771.153507
21
531.346280
31
0.0
0
LINE
8
VISIBLE
10
811.219203
20
540.356549
30
0.0
11
813.539834
21
539.016732
31
0.0
0
LINE
8
VISIBLE
10
810.639045
20
540.691503
30
0.0
11
810.639045
21
538.011869
31
0.0
0
LINE
8
VISIBLE
10
811.219203
20
540.356549
30
0.0
11
811.219203
21
537.676915
31
0.0
0
LINE
8
VISIBLE
10
810.639045
20
538.011869
30
0.0
11
811.219203
21
537.676915
31
0.0
0
LINE
8
VISIBLE
10
795.554943
20
539.351686
30
0.0
11
797.875574
21
538.011869
31
0.0
0
LINE
8
VISIBLE
10
795.554943
20
535.332236
30
0.0
11
797.875574
21
533.992419
31
0.0
0
LINE
8
VISIBLE
10
807.738256
20
526.164752
30
0.0
11
810.639045
21
524.489981
31
0.0
0
LINE
8
VISIBLE
10
810.639045
20
538.011869
30
0.0
11
810.639045
21
524.489981
31
0.0
0
LINE
8
VISIBLE
10
808.898572
20
539.016732
30
0.0
11
810.639045
21
538.011869
31
0.0
0
LINE
8
VISIBLE
10
808.898572
20
539.016732
30
0.0
11
808.898572
21
541.696366
31
0.0
0
LINE
8
VISIBLE
10
800.161396
20
514.598568
30
0.0
11
803.062185
21
512.923796
31
0.0
0
LINE
8
VISIBLE
10
810.639045
20
524.489981
30
0.0
11
803.062185
21
512.923796
31
0.0
0
LINE
8
VISIBLE
10
799.367340
20
513.471058
30
0.0
11
802.256526
21
511.802986
31
0.0
0
LINE
8
VISIBLE
10
802.873558
20
512.679133
30
0.0
11
802.256526
21
511.802986
31
0.0
0
LINE
8
VISIBLE
10
802.873558
20
512.679133
30
0.0
11
802.885161
21
512.672434
31
0.0
0
LINE
8
VISIBLE
10
803.062185
20
512.923796
30
0.0
11
802.885161
21
512.672434
31
0.0
0
LINE
8
VISIBLE
10
798.528116
20
512.396729
30
0.0
11
801.417302
21
510.728657
31
0.0
0
LINE
8
VISIBLE
10
802.256526
20
511.802986
30
0.0
11
801.417302
21
510.728657
31
0.0
0
LINE
8
VISIBLE
10
797.644605
20
511.390508
30
0.0
11
800.533791
21
509.722436
31
0.0
0
LINE
8
VISIBLE
10
801.417302
20
510.728657
30
0.0
11
800.533791
21
509.722436
31
0.0
0
LINE
8
VISIBLE
10
780.180762
20
526.455948
30
0.0
11
782.517356
21
525.106915
31
0.0
0
LINE
8
VISIBLE
10
796.724628
20
510.461299
30
0.0
11
799.613813
21
508.793227
31
0.0
0
LINE
8
VISIBLE
10
800.533791
20
509.722436
30
0.0
11
799.613813
21
508.793227
31
0.0
0
LINE
8
VISIBLE
10
795.776325
20
509.617328
30
0.0
11
798.665511
21
507.949255
31
0.0
0
LINE
8
VISIBLE
10
799.613813
20
508.793227
30
0.0
11
798.665511
21
507.949255
31
0.0
0
LINE
8
VISIBLE
10
794.808092
20
508.866063
30
0.0
11
797.697278
21
507.197991
31
0.0
0
LINE
8
VISIBLE
10
798.665511
20
507.949255
30
0.0
11
797.697278
21
507.197991
31
0.0
0
LINE
8
VISIBLE
10
793.828497
20
508.214154
30
0.0
11
796.717683
21
506.546082
31
0.0
0
LINE
8
VISIBLE
10
797.697278
20
507.197991
30
0.0
11
796.717683
21
506.546082
31
0.0
0
LINE
8
VISIBLE
10
792.846210
20
507.667372
30
0.0
11
795.735396
21
505.999299
31
0.0
0
LINE
8
VISIBLE
10
796.717683
20
506.546082
30
0.0
11
795.735396
21
505.999299
31
0.0
0
LINE
8
VISIBLE
10
791.869926
20
507.230554
30
0.0
11
794.759112
21
505.562482
31
0.0
0
LINE
8
VISIBLE
10
795.735396
20
505.999299
30
0.0
11
794.759112
21
505.562482
31
0.0
0
LINE
8
VISIBLE
10
790.908285
20
506.907568
30
0.0
11
793.797471
21
505.239496
31
0.0
0
LINE
8
VISIBLE
10
794.759112
20
505.562482
30
0.0
11
793.797471
21
505.239496
31
0.0
0
LINE
8
VISIBLE
10
789.969798
20
506.701273
30
0.0
11
792.858984
21
505.033201
31
0.0
0
LINE
8
VISIBLE
10
793.797471
20
505.239496
30
0.0
11
792.858984
21
505.033201
31
0.0
0
LINE
8
VISIBLE
10
789.062772
20
506.613493
30
0.0
11
791.951958
21
504.945421
31
0.0
0
LINE
8
VISIBLE
10
792.858984
20
505.033201
30
0.0
11
791.951958
21
504.945421
31
0.0
0
LINE
8
VISIBLE
10
788.195235
20
506.645007
30
0.0
11
791.084421
21
504.976934
31
0.0
0
LINE
8
VISIBLE
10
791.951958
20
504.945421
30
0.0
11
791.084421
21
504.976934
31
0.0
0
LINE
8
VISIBLE
10
785.904186
20
507.447260
30
0.0
11
788.793372
21
505.779188
31
0.0
0
LINE
8
VISIBLE
10
787.374865
20
506.795534
30
0.0
11
790.264050
21
505.127462
31
0.0
0
LINE
8
VISIBLE
10
791.084421
20
504.976934
30
0.0
11
790.264050
21
505.127462
31
0.0
0
LINE
8
VISIBLE
10
789.498108
20
505.395671
30
0.0
11
788.793372
21
505.779188
31
0.0
0
LINE
8
VISIBLE
10
786.608922
20
507.063743
30
0.0
11
789.498108
21
505.395671
31
0.0
0
LINE
8
VISIBLE
10
790.264050
20
505.127462
30
0.0
11
789.498108
21
505.395671
31
0.0
0
LINE
8
VISIBLE
10
802.986068
20
524.957497
30
0.0
11
801.748032
21
523.496610
31
0.0
0
LINE
8
VISIBLE
10
801.748032
20
523.496610
30
0.0
11
801.003320
21
521.523277
31
0.0
0
LINE
8
VISIBLE
10
796.024175
20
512.899145
30
0.0
11
794.786139
21
511.438257
31
0.0
0
LINE
8
VISIBLE
10
794.786139
20
511.438257
30
0.0
11
794.041427
21
509.464924
31
0.0
0
LINE
8
VISIBLE
10
796.024175
20
528.976948
30
0.0
11
794.786139
21
527.516061
31
0.0
0
LINE
8
VISIBLE
10
794.786139
20
527.516061
30
0.0
11
794.041427
21
525.542728
31
0.0
0
LINE
8
VISIBLE
10
789.062282
20
516.918595
30
0.0
11
787.824246
21
515.457708
31
0.0
0
LINE
8
VISIBLE
10
787.824246
20
515.457708
30
0.0
11
787.079534
21
513.484375
31
0.0
0
LINE
8
VISIBLE
10
770.976484
20
531.094918
30
0.0
11
774.457430
21
529.085192
31
0.0
0
LINE
8
VISIBLE
10
753.409579
20
528.093816
30
0.0
11
754.452714
21
526.067579
31
0.0
0
LINE
8
VISIBLE
10
754.452714
20
526.067579
30
0.0
11
755.971984
21
524.719623
31
0.0
0
LINE
8
VISIBLE
10
755.971984
20
524.719623
30
0.0
11
757.763113
21
524.097255
31
0.0
0
LINE
8
VISIBLE
10
757.763113
20
524.097255
30
0.0
11
759.874240
21
524.130819
31
0.0
0
LINE
8
VISIBLE
10
759.874240
20
524.130819
30
0.0
11
762.296404
21
524.901475
31
0.0
0
LINE
8
VISIBLE
10
762.296404
20
524.901475
30
0.0
11
764.951021
21
526.513314
31
0.0
0
LINE
8
VISIBLE
10
764.951021
20
526.513314
30
0.0
11
767.657618
21
529.004963
31
0.0
0
LINE
8
VISIBLE
10
767.657618
20
529.004963
30
0.0
11
770.148223
21
532.271408
31
0.0
0
LINE
8
VISIBLE
10
770.148223
20
532.271408
30
0.0
11
772.130047
21
536.035683
31
0.0
0
LINE
8
VISIBLE
10
772.130047
20
536.035683
30
0.0
11
773.376137
21
539.897694
31
0.0
0
LINE
8
VISIBLE
10
773.376137
20
539.897694
30
0.0
11
773.798728
21
543.447225
31
0.0
0
LINE
8
VISIBLE
10
773.798728
20
543.447225
30
0.0
11
773.461909
21
546.383122
31
0.0
0
LINE
8
VISIBLE
10
773.461909
20
546.383122
30
0.0
11
772.525837
21
548.573624
31
0.0
0
LINE
8
VISIBLE
10
772.525837
20
548.573624
30
0.0
11
770.740390
21
550.299253
31
0.0
0
LINE
8
VISIBLE
10
770.740390
20
550.299253
30
0.0
11
768.949260
21
550.921621
31
0.0
0
LINE
8
VISIBLE
10
768.949260
20
550.921621
30
0.0
11
766.537050
21
550.831264
31
0.0
0
LINE
8
VISIBLE
10
760.624849
20
522.033290
30
0.0
11
762.415979
21
521.410922
31
0.0
0
LINE
8
VISIBLE
10
762.415979
20
521.410922
30
0.0
11
764.527105
21
521.444486
31
0.0
0
LINE
8
VISIBLE
10
764.527105
20
521.444486
30
0.0
11
766.949269
21
522.215142
31
0.0
0
LINE
8
VISIBLE
10
766.949269
20
522.215142
30
0.0
11
769.603886
21
523.826981
31
0.0
0
LINE
8
VISIBLE
10
769.603886
20
523.826981
30
0.0
11
772.310484
21
526.318630
31
0.0
0
LINE
8
VISIBLE
10
772.310484
20
526.318630
30
0.0
11
774.910408
21
529.757802
31
0.0
0
LINE
8
VISIBLE
10
757.601033
20
523.811456
30
0.0
11
761.081980
21
521.801730
31
0.0
0
LINE
8
VISIBLE
10
758.366976
20
523.543246
30
0.0
11
761.847923
21
521.533521
31
0.0
0
LINE
8
VISIBLE
10
759.187346
20
523.392719
30
0.0
11
762.668293
21
521.382993
31
0.0
0
LINE
8
VISIBLE
10
760.054884
20
523.361206
30
0.0
11
763.535830
21
521.351480
31
0.0
0
LINE
8
VISIBLE
10
760.961910
20
523.448985
30
0.0
11
764.442856
21
521.439260
31
0.0
0
LINE
8
VISIBLE
10
761.900396
20
523.655281
30
0.0
11
765.381343
21
521.645555
31
0.0
0
LINE
8
VISIBLE
10
762.862037
20
523.978267
30
0.0
11
766.342984
21
521.968541
31
0.0
0
LINE
8
VISIBLE
10
763.838322
20
524.415084
30
0.0
11
767.319268
21
522.405358
31
0.0
0
LINE
8
VISIBLE
10
764.820608
20
524.961867
30
0.0
11
768.301555
21
522.952141
31
0.0
0
LINE
8
VISIBLE
10
765.800203
20
525.613775
30
0.0
11
769.281150
21
523.604050
31
0.0
0
LINE
8
VISIBLE
10
766.768437
20
526.365040
30
0.0
11
770.249383
21
524.355314
31
0.0
0
LINE
8
VISIBLE
10
767.716739
20
527.209011
30
0.0
11
771.197686
21
525.199286
31
0.0
0
LINE
8
VISIBLE
10
768.636717
20
528.138220
30
0.0
11
772.117663
21
526.128495
31
0.0
0
LINE
8
VISIBLE
10
769.520228
20
529.144442
30
0.0
11
773.001174
21
527.134716
31
0.0
0
LINE
8
VISIBLE
10
770.359452
20
530.218770
30
0.0
11
773.840398
21
528.209045
31
0.0
0
LINE
8
VISIBLE
10
771.153507
20
531.346280
30
0.0
11
774.634454
21
529.336554
31
0.0
0
LINE
8
VISIBLE
10
822.532279
20
546.888157
30
0.0
11
813.850799
21
541.875902
31
0.0
0
LINE
8
VISIBLE
10
813.850799
20
541.875902
30
0.0
11
811.219203
21
540.356549
31
0.0
0
LINE
8
VISIBLE
10
807.738256
20
542.366275
30
0.0
11
811.219203
21
540.356549
31
0.0
0
LINE
8
VISIBLE
10
816.171430
20
540.536085
30
0.0
11
816.171430
21
543.215719
31
0.0
0
LINE
8
VISIBLE
10
816.171430
20
540.536085
30
0.0
11
813.539834
21
539.016732
31
0.0
0
LINE
8
VISIBLE
10
813.850799
20
541.875902
30
0.0
11
816.171430
21
540.536085
31
0.0
0
LINE
8
VISIBLE
10
811.219203
20
537.676915
30
0.0
11
810.639045
21
537.341961
31
0.0
0
LINE
8
VISIBLE
10
802.256526
20
511.802986
30
0.0
11
802.873558
21
512.679133
31
0.0
0
LINE
8
VISIBLE
10
801.417302
20
510.728657
30
0.0
11
802.256526
21
511.802986
31
0.0
0
LINE
8
VISIBLE
10
800.533791
20
509.722436
30
0.0
11
801.417302
21
510.728657
31
0.0
0
LINE
8
VISIBLE
10
799.613813
20
508.793227
30
0.0
11
800.533791
21
509.722436
31
0.0
0
LINE
8
VISIBLE
10
798.665511
20
507.949255
30
0.0
11
799.613813
21
508.793227
31
0.0
0
LINE
8
VISIBLE
10
797.697278
20
507.197991
30
0.0
11
798.665511
21
507.949255
31
0.0
0
LINE
8
VISIBLE
10
796.717683
20
506.546082
30
0.0
11
797.697278
21
507.197991
31
0.0
0
LINE
8
VISIBLE
10
795.735396
20
505.999299
30
0.0
11
796.717683
21
506.546082
31
0.0
0
LINE
8
VISIBLE
10
794.759112
20
505.562482
30
0.0
11
795.735396
21
505.999299
31
0.0
0
LINE
8
VISIBLE
10
793.797471
20
505.239496
30
0.0
11
794.759112
21
505.562482
31
0.0
0
LINE
8
VISIBLE
10
792.858984
20
505.033201
30
0.0
11
793.797471
21
505.239496
31
0.0
0
LINE
8
VISIBLE
10
791.951958
20
504.945421
30
0.0
11
792.858984
21
505.033201
31
0.0
0
LINE
8
VISIBLE
10
791.084421
20
504.976934
30
0.0
11
791.951958
21
504.945421
31
0.0
0
LINE
8
VISIBLE
10
790.264050
20
505.127462
30
0.0
11
791.084421
21
504.976934
31
0.0
0
LINE
8
VISIBLE
10
789.498108
20
505.395671
30
0.0
11
790.264050
21
505.127462
31
0.0
0
LINE
8
VISIBLE
10
788.793372
20
505.779188
30
0.0
11
789.029374
21
505.633931
31
0.0
0
LINE
8
VISIBLE
10
789.029374
20
505.633931
30
0.0
11
789.498108
21
505.395671
31
0.0
0
LINE
8
VISIBLE
10
790.781450
20
504.622369
30
0.0
11
792.572580
21
504.000000
31
0.0
0
LINE
8
VISIBLE
10
792.572580
20
504.000000
30
0.0
11
794.683706
21
504.033565
31
0.0
0
LINE
8
VISIBLE
10
794.683706
20
504.033565
30
0.0
11
797.105870
21
504.804220
31
0.0
0
LINE
8
VISIBLE
10
797.105870
20
504.804220
30
0.0
11
799.760487
21
506.416060
31
0.0
0
LINE
8
VISIBLE
10
799.760487
20
506.416060
30
0.0
11
802.467085
21
508.907708
31
0.0
0
LINE
8
VISIBLE
10
802.467085
20
508.907708
30
0.0
11
804.957689
21
512.174153
31
0.0
0
LINE
8
VISIBLE
10
804.957689
20
512.174153
30
0.0
11
806.939513
21
515.938428
31
0.0
0
LINE
8
VISIBLE
10
806.939513
20
515.938428
30
0.0
11
808.429899
21
521.117688
31
0.0
0
LINE
8
VISIBLE
10
789.498108
20
505.395671
30
0.0
11
789.509711
21
505.388972
31
0.0
0
LINE
8
VISIBLE
10
790.264050
20
505.127462
30
0.0
11
790.275653
21
505.120763
31
0.0
0
LINE
8
VISIBLE
10
791.084421
20
504.976934
30
0.0
11
791.096024
21
504.970235
31
0.0
0
LINE
8
VISIBLE
10
791.951958
20
504.945421
30
0.0
11
791.963561
21
504.938722
31
0.0
0
LINE
8
VISIBLE
10
792.858984
20
505.033201
30
0.0
11
792.870587
21
505.026502
31
0.0
0
LINE
8
VISIBLE
10
793.797471
20
505.239496
30
0.0
11
793.809074
21
505.232797
31
0.0
0
LINE
8
VISIBLE
10
794.759112
20
505.562482
30
0.0
11
794.770715
21
505.555783
31
0.0
0
LINE
8
VISIBLE
10
795.735396
20
505.999299
30
0.0
11
795.746999
21
505.992600
31
0.0
0
LINE
8
VISIBLE
10
796.717683
20
506.546082
30
0.0
11
796.729286
21
506.539383
31
0.0
0
LINE
8
VISIBLE
10
797.697278
20
507.197991
30
0.0
11
797.708881
21
507.191292
31
0.0
0
LINE
8
VISIBLE
10
798.665511
20
507.949255
30
0.0
11
798.677114
21
507.942556
31
0.0
0
LINE
8
VISIBLE
10
799.613813
20
508.793227
30
0.0
11
799.625416
21
508.786528
31
0.0
0
LINE
8
VISIBLE
10
800.533791
20
509.722436
30
0.0
11
800.545394
21
509.715736
31
0.0
0
LINE
8
VISIBLE
10
801.417302
20
510.728657
30
0.0
11
801.428905
21
510.721958
31
0.0
0
LINE
8
VISIBLE
10
802.256526
20
511.802986
30
0.0
11
802.268129
21
511.796287
31
0.0
0
LINE
8
VISIBLE
10
795.484274
20
504.210013
30
0.0
11
797.497522
21
504.297504
31
0.0
0
LINE
8
VISIBLE
10
797.497522
20
504.297504
30
0.0
11
799.814349
21
505.131711
31
0.0
0
LINE
8
VISIBLE
10
799.814349
20
505.131711
30
0.0
11
802.338248
21
506.817019
31
0.0
0
LINE
8
VISIBLE
10
802.338248
20
506.817019
30
0.0
11
804.858597
21
509.369261
31
0.0
0
LINE
8
VISIBLE
10
804.858597
20
509.369261
30
0.0
11
807.078704
21
512.631639
31
0.0
0
LINE
8
VISIBLE
10
807.078704
20
512.631639
30
0.0
11
808.701055
21
516.262258
31
0.0
0
LINE
8
VISIBLE
10
808.701055
20
516.262258
30
0.0
11
809.533928
21
519.818795
31
0.0
0
LINE
8
VISIBLE
10
809.533928
20
519.818795
30
0.0
11
809.563096
21
522.847530
31
0.0
0
LINE
8
VISIBLE
10
756.792451
20
526.140714
30
0.0
11
758.489710
21
525.572333
31
0.0
0
LINE
8
VISIBLE
10
758.489710
20
525.572333
30
0.0
11
760.504317
21
525.662773
31
0.0
0
LINE
8
VISIBLE
10
760.504317
20
525.662773
30
0.0
11
762.822308
21
526.500410
31
0.0
0
LINE
8
VISIBLE
10
762.822308
20
526.500410
30
0.0
11
765.346719
21
528.189477
31
0.0
0
LINE
8
VISIBLE
10
765.346719
20
528.189477
30
0.0
11
767.866456
21
530.745218
31
0.0
0
LINE
8
VISIBLE
10
767.866456
20
530.745218
30
0.0
11
770.084609
21
534.010004
31
0.0
0
LINE
8
VISIBLE
10
770.084609
20
534.010004
30
0.0
11
771.703894
21
537.641269
31
0.0
0
LINE
8
VISIBLE
10
771.703894
20
537.641269
30
0.0
11
772.533232
21
541.196555
31
0.0
0
LINE
8
VISIBLE
10
772.533232
20
541.196555
30
0.0
11
772.552201
21
544.278705
31
0.0
0
LINE
8
VISIBLE
10
772.552201
20
544.278705
30
0.0
11
771.889654
21
546.654483
31
0.0
0
LINE
8
VISIBLE
10
771.889654
20
546.654483
30
0.0
11
770.730490
21
548.276977
31
0.0
0
LINE
8
VISIBLE
10
770.730490
20
548.276977
30
0.0
11
769.919923
21
548.878162
31
0.0
0
LINE
8
VISIBLE
10
764.986420
20
540.319686
30
0.0
11
763.027478
21
537.562671
31
0.0
0
LINE
8
VISIBLE
10
763.027478
20
537.562671
30
0.0
11
761.737557
21
534.692491
31
0.0
0
LINE
8
VISIBLE
10
758.714924
20
550.907608
30
0.0
11
756.169824
21
549.027436
31
0.0
0
LINE
8
VISIBLE
10
756.169824
20
549.027436
30
0.0
11
753.688502
21
546.298195
31
0.0
0
LINE
8
VISIBLE
10
753.688502
20
546.298195
30
0.0
11
751.576746
21
542.919769
31
0.0
0
LINE
8
VISIBLE
10
751.576746
20
542.919769
30
0.0
11
750.117478
21
539.266650
31
0.0
0
LINE
8
VISIBLE
10
750.117478
20
539.266650
30
0.0
11
749.467721
21
535.784348
31
0.0
0
LINE
8
VISIBLE
10
749.467721
20
535.784348
30
0.0
11
749.610702
21
532.842008
31
0.0
0
LINE
8
VISIBLE
10
749.610702
20
532.842008
30
0.0
11
750.396045
21
530.630607
31
0.0
0
LINE
8
VISIBLE
10
750.396045
20
530.630607
30
0.0
11
752.151188
21
528.820348
31
0.0
0
LINE
8
VISIBLE
10
752.151188
20
528.820348
30
0.0
11
753.848448
21
528.251967
31
0.0
0
LINE
8
VISIBLE
10
753.848448
20
528.251967
30
0.0
11
755.863055
21
528.342407
31
0.0
0
LINE
8
VISIBLE
10
755.863055
20
528.342407
30
0.0
11
758.181046
21
529.180044
31
0.0
0
LINE
8
VISIBLE
10
758.181046
20
529.180044
30
0.0
11
760.705457
21
530.869111
31
0.0
0
LINE
8
VISIBLE
10
760.705457
20
530.869111
30
0.0
11
763.225193
21
533.424852
31
0.0
0
LINE
8
VISIBLE
10
763.225193
20
533.424852
30
0.0
11
765.443347
21
536.689638
31
0.0
0
LINE
8
VISIBLE
10
765.443347
20
536.689638
30
0.0
11
767.062632
21
540.320903
31
0.0
0
LINE
8
VISIBLE
10
767.062632
20
540.320903
30
0.0
11
767.891970
21
543.876189
31
0.0
0
LINE
8
VISIBLE
10
767.891970
20
543.876189
30
0.0
11
767.910939
21
546.958339
31
0.0
0
LINE
8
VISIBLE
10
767.910939
20
546.958339
30
0.0
11
767.248391
21
549.334117
31
0.0
0
LINE
8
VISIBLE
10
767.248391
20
549.334117
30
0.0
11
766.089228
21
550.956611
31
0.0
0
LINE
8
VISIBLE
10
766.089228
20
550.956611
30
0.0
11
765.278660
21
551.557796
31
0.0
0
LINE
8
VISIBLE
10
765.278660
20
551.557796
30
0.0
11
763.581401
21
552.126177
31
0.0
0
LINE
8
VISIBLE
10
763.581401
20
552.126177
30
0.0
11
761.566794
21
552.035737
31
0.0
0
LINE
8
VISIBLE
10
761.566794
20
552.035737
30
0.0
11
758.714924
21
550.907608
31
0.0
0
LINE
8
VISIBLE
10
758.714924
20
548.227974
30
0.0
11
756.520285
21
546.551021
31
0.0
0
LINE
8
VISIBLE
10
756.520285
20
546.551021
30
0.0
11
754.429463
21
544.050239
31
0.0
0
LINE
8
VISIBLE
10
754.429463
20
544.050239
30
0.0
11
752.793117
21
540.997036
31
0.0
0
LINE
8
VISIBLE
10
752.793117
20
540.997036
30
0.0
11
751.894458
21
537.863390
31
0.0
0
LINE
8
VISIBLE
10
751.894458
20
537.863390
30
0.0
11
751.814982
21
535.135336
31
0.0
0
LINE
8
VISIBLE
10
751.814982
20
535.135336
30
0.0
11
752.425261
21
533.111364
31
0.0
0
LINE
8
VISIBLE
10
752.425261
20
533.111364
30
0.0
11
753.792122
21
531.662529
31
0.0
0
LINE
8
VISIBLE
10
753.792122
20
531.662529
30
0.0
11
755.281599
21
531.213488
31
0.0
0
LINE
8
VISIBLE
10
755.281599
20
531.213488
30
0.0
11
757.080777
21
531.431292
31
0.0
0
LINE
8
VISIBLE
10
757.080777
20
531.431292
30
0.0
11
759.157820
21
532.422160
31
0.0
0
LINE
8
VISIBLE
10
759.157820
20
532.422160
30
0.0
11
761.357498
21
534.277490
31
0.0
0
LINE
8
VISIBLE
10
761.357498
20
534.277490
30
0.0
11
763.384027
21
536.921846
31
0.0
0
LINE
8
VISIBLE
10
763.384027
20
536.921846
30
0.0
11
764.887124
21
540.033828
31
0.0
0
LINE
8
VISIBLE
10
764.887124
20
540.033828
30
0.0
11
765.616763
21
543.120235
31
0.0
0
LINE
8
VISIBLE
10
765.616763
20
543.120235
30
0.0
11
765.539137
21
545.719875
31
0.0
0
LINE
8
VISIBLE
10
765.539137
20
545.719875
30
0.0
11
764.814247
21
547.586292
31
0.0
0
LINE
8
VISIBLE
10
764.814247
20
547.586292
30
0.0
11
763.637726
21
548.715615
31
0.0
0
LINE
8
VISIBLE
10
763.637726
20
548.715615
30
0.0
11
762.148250
21
549.164656
31
0.0
0
LINE
8
VISIBLE
10
762.148250
20
549.164656
30
0.0
11
760.349072
21
548.946852
31
0.0
0
LINE
8
VISIBLE
10
760.349072
20
548.946852
30
0.0
11
758.714924
21
548.227974
31
0.0
0
LINE
8
VISIBLE
10
794.974785
20
563.133438
30
0.0
11
794.974785
21
564.808209
31
0.0
0
LINE
8
VISIBLE
10
813.539834
20
552.414902
30
0.0
11
813.539834
21
554.089673
31
0.0
0
LINE
8
VISIBLE
10
778.730368
20
532.317647
30
0.0
11
778.730368
21
533.992419
31
0.0
0
LINE
8
VISIBLE
10
800.486284
20
527.058866
30
0.0
11
803.038978
21
525.585067
31
0.0
0
LINE
8
VISIBLE
10
793.524391
20
515.000513
30
0.0
11
796.077085
21
513.526714
31
0.0
0
LINE
8
VISIBLE
10
793.524391
20
531.078317
30
0.0
11
796.077085
21
529.604518
31
0.0
0
LINE
8
VISIBLE
10
793.524391
20
524.111268
30
0.0
11
797.005337
21
522.101543
31
0.0
0
LINE
8
VISIBLE
10
786.562498
20
519.019964
30
0.0
11
789.115192
21
517.546165
31
0.0
0
LINE
8
VISIBLE
10
758.714924
20
548.227974
30
0.0
11
765.676818
21
544.208523
31
0.0
0
LINE
8
VISIBLE
10
770.740390
20
550.299253
30
0.0
11
771.900705
21
549.629344
31
0.0
0
LINE
8
VISIBLE
10
755.971984
20
524.719623
30
0.0
11
760.624849
21
522.033290
31
0.0
0
LINE
8
VISIBLE
10
789.029374
20
505.633931
30
0.0
11
790.781450
21
504.622369
31
0.0
0
LINE
8
VISIBLE
10
765.278660
20
551.557796
30
0.0
11
769.919923
21
548.878162
31
0.0
0
LINE
8
VISIBLE
10
752.151188
20
528.820348
30
0.0
11
756.792451
21
526.140714
31
0.0
0
LINE
8
CENTER
10
98.950000
20
194.025000
30
0.0
11
110.350000
21
194.025000
31
0.0
0
LINE
8
CENTER
10
112.750000
20
194.025000
30
0.0
11
124.150000
21
194.025000
31
0.0
0
LINE
8
CENTER
10
111.550000
20
181.425000
30
0.0
11
111.550000
21
192.825000
31
0.0
0
LINE
8
CENTER
10
111.550000
20
195.225000
30
0.0
11
111.550000
21
206.625000
31
0.0
0
LINE
8
CENTER
10
68.950000
20
164.025000
30
0.0
11
80.350000
21
164.025000
31
0.0
0
LINE
8
CENTER
10
82.750000
20
164.025000
30
0.0
11
94.150000
21
164.025000
31
0.0
0
LINE
8
CENTER
10
81.550000
20
151.425000
30
0.0
11
81.550000
21
162.825000
31
0.0
0
LINE
8
CENTER
10
81.550000
20
165.225000
30
0.0
11
81.550000
21
176.625000
31
0.0
0
LINE
8
CENTER
10
79.950000
20
164.025000
30
0.0
11
110.350000
21
164.025000
31
0.0
0
LINE
8
CENTER
10
112.750000
20
164.025000
30
0.0
11
143.150000
21
164.025000
31
0.0
0
LINE
8
CENTER
10
111.550000
20
132.425000
30
0.0
11
111.550000
21
162.825000
31
0.0
0
LINE
8
CENTER
10
111.550000
20
165.225000
30
0.0
11
111.550000
21
195.625000
31
0.0
0
LINE
8
CENTER
10
94.950000
20
164.025000
30
0.0
11
110.350000
21
164.025000
31
0.0
0
LINE
8
CENTER
10
112.750000
20
164.025000
30
0.0
11
128.150000
21
164.025000
31
0.0
0
LINE
8
CENTER
10
111.550000
20
147.425000
30
0.0
11
111.550000
21
162.825000
31
0.0
0
LINE
8
CENTER
10
111.550000
20
165.225000
30
0.0
11
111.550000
21
180.625000
31
0.0
0
LINE
8
CENTER
10
128.950000
20
164.025000
30
0.0
11
140.350000
21
164.025000
31
0.0
0
LINE
8
CENTER
10
142.750000
20
164.025000
30
0.0
11
154.150000
21
164.025000
31
0.0
0
LINE
8
CENTER
10
141.550000
20
151.425000
30
0.0
11
141.550000
21
162.825000
31
0.0
0
LINE
8
CENTER
10
141.550000
20
165.225000
30
0.0
11
141.550000
21
176.625000
31
0.0
0
LINE
8
CENTER
10
98.950000
20
134.025000
30
0.0
11
110.350000
21
134.025000
31
0.0
0
LINE
8
CENTER
10
112.750000
20
134.025000
30
0.0
11
124.150000
21
134.025000
31
0.0
0
LINE
8
CENTER
10
111.550000
20
121.425000
30
0.0
11
111.550000
21
132.825000
31
0.0
0
LINE
8
CENTER
10
111.550000
20
135.225000
30
0.0
11
111.550000
21
146.625000
31
0.0
0
LINE
8
DIM
10
64.050000
20
117.825000
30
0.0
11
64.050000
21
96.025000
31
0.0
0
LINE
8
DIM
10
234.050000
20
117.825000
30
0.0
11
234.050000
21
96.025000
31
0.0
0
LINE
8
DIM
10
64.050000
20
98.025000
30
0.0
11
234.050000
21
98.025000
31
0.0
0
SOLID
8
DIM
10
64.050000
20
98.025000
30
0.0
11
67.250000
21
97.417000
31
0.0
12
67.250000
22
98.633000
32
0.0
13
67.250000
23
98.633000
33
0.0
0
SOLID
8
DIM
10
234.050000
20
98.025000
30
0.0
11
230.850000
21
98.633000
31
0.0
12
230.850000
22
97.417000
32
0.0
13
230.850000
23
97.417000
33
0.0
0
TEXT
8
TEXT
10
149.050000
20
99.025000
30
0.0
40
2.5000
1
34.00
72
1
73
0
11
149.050000
21
99.025000
31
0.0
0
LINE
8
DIM
10
62.850000
20
119.025000
30
0.0
11
41.050000
21
119.025000
31
0.0
0
LINE
8
DIM
10
62.850000
20
231.525000
30
0.0
11
41.050000
21
231.525000
31
0.0
0
LINE
8
DIM
10
43.050000
20
119.025000
30
0.0
11
43.050000
21
231.525000
31
0.0
0
SOLID
8
DIM
10
43.050000
20
119.025000
30
0.0
11
43.658000
21
122.225000
31
0.0
12
42.442000
22
122.225000
32
0.0
13
42.442000
23
122.225000
33
0.0
0
SOLID
8
DIM
10
43.050000
20
231.525000
30
0.0
11
42.442000
21
228.325000
31
0.0
12
43.658000
22
228.325000
32
0.0
13
43.658000
23
228.325000
33
0.0
0
TEXT
8
TEXT
10
42.050000
20
175.275000
30
0.0
40
2.5000
1
22.50
50
90.0000
72
1
73
0
11
42.050000
21
175.275000
31
0.0
0
SOLID
8
DIM
10
118.322276
20
202.693118
30
0.0
11
120.771503
21
204.840431
31
0.0
12
119.813282
22
205.589075
32
0.0
13
119.813282
23
205.589075
33
0.0
0
LINE
8
DIM
10
118.322276
20
202.693118
30
0.0
11
154.130067
21
248.525000
31
0.0
0
LINE
8
DIM
10
154.130067
20
248.525000
30
0.0
11
159.130067
21
248.525000
31
0.0
0
TEXT
8
TEXT
10
159.930067
20
253.150000
30
0.0
40
2.5000
1
4x Ø2.20 THRU
0
TEXT
8
TEXT
10
159.930067
20
249.525000
30
0.0
40
2.5000
1
C'BORE Ø4.40x2.60 -Y
0
SOLID
8
DIM
10
130.019844
20
187.665323
30
0.0
11
132.469072
21
189.812635
31
0.0
12
131.510850
22
190.561279
32
0.0
13
131.510850
23
190.561279
33
0.0
0
LINE
8
DIM
10
130.019844
20
187.665323
30
0.0
11
185.186170
21
258.275000
31
0.0
0
LINE
8
DIM
10
185.186170
20
258.275000
30
0.0
11
190.186170
21
258.275000
31
0.0
0
TEXT
8
TEXT
10
190.986170
20
259.275000
30
0.0
40
2.5000
1
Ø12.00 THRU
0
SOLID
8
DIM
10
120.784922
20
175.845161
30
0.0
11
123.234149
21
177.992474
31
0.0
12
122.275928
22
178.741118
32
0.0
13
122.275928
23
178.741118
33
0.0
0
LINE
8
DIM
10
120.784922
20
175.845161
30
0.0
11
189.971545
21
264.400000
31
0.0
0
LINE
8
DIM
10
189.971545
20
264.400000
30
0.0
11
194.971545
21
264.400000
31
0.0
0
TEXT
8
TEXT
10
195.771545
20
265.400000
30
0.0
40
2.5000
1
Ø6.00 THRU
0
SOLID
8
DIM
10
79.730195
20
195.844805
30
0.0
11
76.835372
21
197.338012
31
0.0
12
76.489448
22
196.172254
32
0.0
13
76.489448
23
196.172254
33
0.0
0
LINE
8
DIM
10
79.730195
20
195.844805
30
0.0
11
70.143367
21
198.689579
31
0.0
0
LINE
8
DIM
10
70.143367
20
198.689579
30
0.0
11
67.143367
21
198.689579
31
0.0
0
TEXT
8
TEXT
10
66.343367
20
199.689579
30
0.0
40
2.5000
1
R9.00
72
2
73
0
11
66.343367
21
199.689579
31
0.0
0
SOLID
8
DIM
10
111.550000
20
124.025000
30
0.0
11
109.169694
21
121.801533
31
0.0
12
110.151042
22
121.083473
32
0.0
13
110.151042
23
121.083473
33
0.0
0
LINE
8
DIM
10
111.550000
20
124.025000
30
0.0
11
105.644900
21
115.954697
31
0.0
0
LINE
8
DIM
10
105.644900
20
115.954697
30
0.0
11
102.644900
21
115.954697
31
0.0
0
TEXT
8
TEXT
10
101.844900
20
116.954697
30
0.0
40
2.5000
1
R8.00
72
2
73
0
11
101.844900
21
116.954697
31
0.0
0
SOLID
8
DIM
10
111.550000
20
134.025000
30
0.0
11
108.947563
21
132.066177
31
0.0
12
109.847331
22
131.248207
32
0.0
13
109.847331
23
131.248207
33
0.0
0
LINE
8
DIM
10
111.550000
20
134.025000
30
0.0
11
104.823272
21
126.625599
31
0.0
0
LINE
8
DIM
10
104.823272
20
126.625599
30
0.0
11
101.823272
21
126.625599
31
0.0
0
TEXT
8
TEXT
10
101.023272
20
127.625599
30
0.0
40
2.5000
1
R6.00
72
2
73
0
11
101.023272
21
127.625599
31
0.0
0
SOLID
8
DIM
10
111.550000
20
149.025000
30
0.0
11
108.579793
21
147.688014
31
0.0
12
109.277123
22
146.691827
32
0.0
13
109.277123
23
146.691827
33
0.0
0
LINE
8
DIM
10
111.550000
20
149.025000
30
0.0
11
103.357681
21
143.290377
31
0.0
0
LINE
8
DIM
10
103.357681
20
143.290377
30
0.0
11
100.357681
21
143.290377
31
0.0
0
TEXT
8
TEXT
10
99.557681
20
144.290377
30
0.0
40
2.5000
1
R3.00
72
2
73
0
11
99.557681
21
144.290377
31
0.0
0
SOLID
8
DIM
10
81.550000
20
153.025000
30
0.0
11
78.320513
21
152.600645
31
0.0
12
78.701194
22
151.445769
32
0.0
13
78.701194
23
151.445769
33
0.0
0
LINE
8
DIM
10
81.550000
20
153.025000
30
0.0
11
72.052667
21
149.894398
31
0.0
0
LINE
8
DIM
10
72.052667
20
149.894398
30
0.0
11
69.052667
21
149.894398
31
0.0
0
TEXT
8
TEXT
10
68.252667
20
150.894398
30
0.0
40
2.5000
1
R2.20
72
2
73
0
11
68.252667
21
150.894398
31
0.0
0
SOLID
8
DIM
10
81.550000
20
158.525000
30
0.0
11
78.297762
21
158.344403
31
0.0
12
78.590628
22
157.164197
32
0.0
13
78.590628
23
157.164197
33
0.0
0
LINE
8
DIM
10
81.550000
20
158.525000
30
0.0
11
71.844361
21
156.116564
31
0.0
0
LINE
8
DIM
10
71.844361
20
156.116564
30
0.0
11
68.844361
21
156.116564
31
0.0
0
TEXT
8
TEXT
10
68.044361
20
157.116564
30
0.0
40
2.5000
1
R1.10
72
2
73
0
11
68.044361
21
157.116564
31
0.0
0
LINE
8
DIM
10
110.350000
20
164.025000
30
0.0
11
34.050000
21
164.025000
31
0.0
0
LINE
8
DIM
10
147.850000
20
221.525000
30
0.0
11
34.050000
21
221.525000
31
0.0
0
LINE
8
DIM
10
36.050000
20
164.025000
30
0.0
11
36.050000
21
221.525000
31
0.0
0
SOLID
8
DIM
10
36.050000
20
164.025000
30
0.0
11
36.658000
21
167.225000
31
0.0
12
35.442000
22
167.225000
32
0.0
13
35.442000
23
167.225000
33
0.0
0
SOLID
8
DIM
10
36.050000
20
221.525000
30
0.0
11
35.442000
21
218.325000
31
0.0
12
36.658000
22
218.325000
32
0.0
13
36.658000
23
218.325000
33
0.0
0
TEXT
8
TEXT
10
35.050000
20
192.775000
30
0.0
40
2.5000
1
11.50
50
90.0000
72
1
73
0
11
35.050000
21
192.775000
31
0.0
0
TEXT
8
TEXT
10
149.050000
20
86.025000
30
0.0
40
4.0000
1
FRONT VIEW
72
1
73
0
11
149.050000
21
86.025000
31
0.0
0
LINE
8
TEXT
10
137.050000
20
84.425000
30
0.0
11
161.050000
21
84.425000
31
0.0
0
TEXT
8
TEXT
10
149.050000
20
80.025000
30
0.0
40
2.4000
1
-X →   Z ↑
72
1
73
0
11
149.050000
21
80.025000
31
0.0
0
LINE
8
CENTER
10
66.200000
20
425.525000
30
0.0
11
72.850000
21
425.525000
31
0.0
0
LINE
8
CENTER
10
75.250000
20
425.525000
30
0.0
11
81.900000
21
425.525000
31
0.0
0
LINE
8
CENTER
10
74.050000
20
417.675000
30
0.0
11
74.050000
21
424.325000
31
0.0
0
LINE
8
CENTER
10
74.050000
20
426.725000
30
0.0
11
74.050000
21
433.375000
31
0.0
0
LINE
8
CENTER
10
210.950000
20
425.525000
30
0.0
11
222.850000
21
425.525000
31
0.0
0
LINE
8
CENTER
10
225.250000
20
425.525000
30
0.0
11
237.150000
21
425.525000
31
0.0
0
LINE
8
CENTER
10
224.050000
20
412.425000
30
0.0
11
224.050000
21
424.325000
31
0.0
0
LINE
8
CENTER
10
224.050000
20
426.725000
30
0.0
11
224.050000
21
438.625000
31
0.0
0
LINE
8
CENTER
10
66.200000
20
345.525000
30
0.0
11
72.850000
21
345.525000
31
0.0
0
LINE
8
CENTER
10
75.250000
20
345.525000
30
0.0
11
81.900000
21
345.525000
31
0.0
0
LINE
8
CENTER
10
74.050000
20
337.675000
30
0.0
11
74.050000
21
344.325000
31
0.0
0
LINE
8
CENTER
10
74.050000
20
346.725000
30
0.0
11
74.050000
21
353.375000
31
0.0
0
LINE
8
CENTER
10
210.950000
20
345.525000
30
0.0
11
222.850000
21
345.525000
31
0.0
0
LINE
8
CENTER
10
225.250000
20
345.525000
30
0.0
11
237.150000
21
345.525000
31
0.0
0
LINE
8
CENTER
10
224.050000
20
332.425000
30
0.0
11
224.050000
21
344.325000
31
0.0
0
LINE
8
CENTER
10
224.050000
20
346.725000
30
0.0
11
224.050000
21
358.625000
31
0.0
0
LINE
8
DIM
10
64.050000
20
294.325000
30
0.0
11
64.050000
21
281.525000
31
0.0
0
LINE
8
DIM
10
234.050000
20
294.325000
30
0.0
11
234.050000
21
281.525000
31
0.0
0
LINE
8
DIM
10
64.050000
20
283.525000
30
0.0
11
234.050000
21
283.525000
31
0.0
0
SOLID
8
DIM
10
64.050000
20
283.525000
30
0.0
11
67.250000
21
282.917000
31
0.0
12
67.250000
22
284.133000
32
0.0
13
67.250000
23
284.133000
33
0.0
0
SOLID
8
DIM
10
234.050000
20
283.525000
30
0.0
11
230.850000
21
284.133000
31
0.0
12
230.850000
22
282.917000
32
0.0
13
230.850000
23
282.917000
33
0.0
0
TEXT
8
TEXT
10
149.050000
20
284.525000
30
0.0
40
2.5000
1
34.00
72
1
73
0
11
149.050000
21
284.525000
31
0.0
0
LINE
8
DIM
10
62.850000
20
295.525000
30
0.0
11
50.050000
21
295.525000
31
0.0
0
LINE
8
DIM
10
62.850000
20
474.975000
30
0.0
11
50.050000
21
474.975000
31
0.0
0
LINE
8
DIM
10
52.050000
20
295.525000
30
0.0
11
52.050000
21
474.975000
31
0.0
0
SOLID
8
DIM
10
52.050000
20
295.525000
30
0.0
11
52.658000
21
298.725000
31
0.0
12
51.442000
22
298.725000
32
0.0
13
51.442000
23
298.725000
33
0.0
0
SOLID
8
DIM
10
52.050000
20
474.975000
30
0.0
11
51.442000
21
471.775000
31
0.0
12
52.658000
22
471.775000
32
0.0
13
52.658000
23
471.775000
33
0.0
0
TEXT
8
TEXT
10
51.050000
20
385.250000
30
0.0
40
2.5000
1
35.89
50
90.0000
72
1
73
0
11
51.050000
21
385.250000
31
0.0
0
LINE
8
DIM
10
64.050000
20
296.725000
30
0.0
11
64.050000
21
483.975000
31
0.0
0
LINE
8
DIM
10
74.050000
20
296.725000
30
0.0
11
74.050000
21
483.975000
31
0.0
0
LINE
8
DIM
10
64.050000
20
481.975000
30
0.0
11
74.050000
21
481.975000
31
0.0
0
SOLID
8
DIM
10
64.050000
20
481.975000
30
0.0
11
60.850000
21
482.583000
31
0.0
12
60.850000
22
481.367000
32
0.0
13
60.850000
23
481.367000
33
0.0
0
SOLID
8
DIM
10
74.050000
20
481.975000
30
0.0
11
77.250000
21
481.367000
31
0.0
12
77.250000
22
482.583000
32
0.0
13
77.250000
23
482.583000
33
0.0
0
LINE
8
DIM
10
74.050000
20
481.975000
30
0.0
11
83.650000
21
481.975000
31
0.0
0
TEXT
8
TEXT
10
84.450000
20
482.375000
30
0.0
40
2.5000
1
2.00
0
LINE
8
DIM
10
65.250000
20
295.525000
30
0.0
11
244.050000
21
295.525000
31
0.0
0
LINE
8
DIM
10
65.250000
20
425.525000
30
0.0
11
244.050000
21
425.525000
31
0.0
0
LINE
8
DIM
10
242.050000
20
295.525000
30
0.0
11
242.050000
21
425.525000
31
0.0
0
SOLID
8
DIM
10
242.050000
20
295.525000
30
0.0
11
242.658000
21
298.725000
31
0.0
12
241.442000
22
298.725000
32
0.0
13
241.442000
23
298.725000
33
0.0
0
SOLID
8
DIM
10
242.050000
20
425.525000
30
0.0
11
241.442000
21
422.325000
31
0.0
12
242.658000
22
422.325000
32
0.0
13
242.658000
23
422.325000
33
0.0
0
TEXT
8
TEXT
10
241.050000
20
360.525000
30
0.0
40
2.5000
1
26.00
50
90.0000
72
1
73
0
11
241.050000
21
360.525000
31
0.0
0
LINE
8
DIM
10
64.050000
20
296.725000
30
0.0
11
64.050000
21
490.475000
31
0.0
0
LINE
8
DIM
10
74.050000
20
296.725000
30
0.0
11
74.050000
21
490.475000
31
0.0
0
LINE
8
DIM
10
64.050000
20
488.475000
30
0.0
11
74.050000
21
488.475000
31
0.0
0
SOLID
8
DIM
10
64.050000
20
488.475000
30
0.0
11
60.850000
21
489.083000
31
0.0
12
60.850000
22
487.867000
32
0.0
13
60.850000
23
487.867000
33
0.0
0
SOLID
8
DIM
10
74.050000
20
488.475000
30
0.0
11
77.250000
21
487.867000
31
0.0
12
77.250000
22
489.083000
32
0.0
13
77.250000
23
489.083000
33
0.0
0
LINE
8
DIM
10
74.050000
20
488.475000
30
0.0
11
83.650000
21
488.475000
31
0.0
0
TEXT
8
TEXT
10
84.450000
20
488.875000
30
0.0
40
2.5000
1
2.00
0
LINE
8
DIM
10
65.250000
20
295.525000
30
0.0
11
250.550000
21
295.525000
31
0.0
0
LINE
8
DIM
10
65.250000
20
345.525000
30
0.0
11
250.550000
21
345.525000
31
0.0
0
LINE
8
DIM
10
248.550000
20
295.525000
30
0.0
11
248.550000
21
345.525000
31
0.0
0
SOLID
8
DIM
10
248.550000
20
295.525000
30
0.0
11
249.158000
21
298.725000
31
0.0
12
247.942000
22
298.725000
32
0.0
13
247.942000
23
298.725000
33
0.0
0
SOLID
8
DIM
10
248.550000
20
345.525000
30
0.0
11
247.942000
21
342.325000
31
0.0
12
249.158000
22
342.325000
32
0.0
13
249.158000
23
342.325000
33
0.0
0
TEXT
8
TEXT
10
247.550000
20
320.525000
30
0.0
40
2.5000
1
10.00
50
90.0000
72
1
73
0
11
247.550000
21
320.525000
31
0.0
0
LINE
8
DIM
10
64.050000
20
296.725000
30
0.0
11
64.050000
21
496.975000
31
0.0
0
LINE
8
DIM
10
224.050000
20
296.725000
30
0.0
11
224.050000
21
496.975000
31
0.0
0
LINE
8
DIM
10
64.050000
20
494.975000
30
0.0
11
224.050000
21
494.975000
31
0.0
0
SOLID
8
DIM
10
64.050000
20
494.975000
30
0.0
11
67.250000
21
494.367000
31
0.0
12
67.250000
22
495.583000
32
0.0
13
67.250000
23
495.583000
33
0.0
0
SOLID
8
DIM
10
224.050000
20
494.975000
30
0.0
11
220.850000
21
495.583000
31
0.0
12
220.850000
22
494.367000
32
0.0
13
220.850000
23
494.367000
33
0.0
0
TEXT
8
TEXT
10
144.050000
20
495.975000
30
0.0
40
2.5000
1
32.00
72
1
73
0
11
144.050000
21
495.975000
31
0.0
0
LINE
8
DIM
10
65.250000
20
295.525000
30
0.0
11
257.050000
21
295.525000
31
0.0
0
LINE
8
DIM
10
65.250000
20
425.525000
30
0.0
11
257.050000
21
425.525000
31
0.0
0
LINE
8
DIM
10
255.050000
20
295.525000
30
0.0
11
255.050000
21
425.525000
31
0.0
0
SOLID
8
DIM
10
255.050000
20
295.525000
30
0.0
11
255.658000
21
298.725000
31
0.0
12
254.442000
22
298.725000
32
0.0
13
254.442000
23
298.725000
33
0.0
0
SOLID
8
DIM
10
255.050000
20
425.525000
30
0.0
11
254.442000
21
422.325000
31
0.0
12
255.658000
22
422.325000
32
0.0
13
255.658000
23
422.325000
33
0.0
0
TEXT
8
TEXT
10
254.050000
20
360.525000
30
0.0
40
2.5000
1
26.00
50
90.0000
72
1
73
0
11
254.050000
21
360.525000
31
0.0
0
LINE
8
DIM
10
64.050000
20
296.725000
30
0.0
11
64.050000
21
503.475000
31
0.0
0
LINE
8
DIM
10
224.050000
20
296.725000
30
0.0
11
224.050000
21
503.475000
31
0.0
0
LINE
8
DIM
10
64.050000
20
501.475000
30
0.0
11
224.050000
21
501.475000
31
0.0
0
SOLID
8
DIM
10
64.050000
20
501.475000
30
0.0
11
67.250000
21
500.867000
31
0.0
12
67.250000
22
502.083000
32
0.0
13
67.250000
23
502.083000
33
0.0
0
SOLID
8
DIM
10
224.050000
20
501.475000
30
0.0
11
220.850000
21
502.083000
31
0.0
12
220.850000
22
500.867000
32
0.0
13
220.850000
23
500.867000
33
0.0
0
TEXT
8
TEXT
10
144.050000
20
502.475000
30
0.0
40
2.5000
1
32.00
72
1
73
0
11
144.050000
21
502.475000
31
0.0
0
LINE
8
DIM
10
65.250000
20
295.525000
30
0.0
11
263.550000
21
295.525000
31
0.0
0
LINE
8
DIM
10
65.250000
20
345.525000
30
0.0
11
263.550000
21
345.525000
31
0.0
0
LINE
8
DIM
10
261.550000
20
295.525000
30
0.0
11
261.550000
21
345.525000
31
0.0
0
SOLID
8
DIM
10
261.550000
20
295.525000
30
0.0
11
262.158000
21
298.725000
31
0.0
12
260.942000
22
298.725000
32
0.0
13
260.942000
23
298.725000
33
0.0
0
SOLID
8
DIM
10
261.550000
20
345.525000
30
0.0
11
260.942000
21
342.325000
31
0.0
12
262.158000
22
342.325000
32
0.0
13
262.158000
23
342.325000
33
0.0
0
TEXT
8
TEXT
10
260.550000
20
320.525000
30
0.0
40
2.5000
1
10.00
50
90.0000
72
1
73
0
11
260.550000
21
320.525000
31
0.0
0
SOLID
8
DIM
10
77.897884
20
430.450067
30
0.0
11
80.347111
21
432.597379
31
0.0
12
79.388890
22
433.346024
32
0.0
13
79.388890
23
433.346024
33
0.0
0
LINE
8
DIM
10
77.897884
20
430.450067
30
0.0
11
140.810857
21
510.975000
31
0.0
0
LINE
8
DIM
10
140.810857
20
510.975000
30
0.0
11
145.810857
21
510.975000
31
0.0
0
TEXT
8
TEXT
10
146.610857
20
511.975000
30
0.0
40
2.5000
1
2x Ø2.50 THRU
0
SOLID
8
DIM
10
228.257443
20
436.227683
30
0.0
11
229.994056
21
438.983375
31
0.0
12
228.862363
22
439.428267
32
0.0
13
228.862363
23
439.428267
33
0.0
0
LINE
8
DIM
10
228.257443
20
436.227683
30
0.0
11
260.050000
21
517.100000
31
0.0
0
LINE
8
DIM
10
260.050000
20
517.100000
30
0.0
11
265.050000
21
517.100000
31
0.0
0
TEXT
8
TEXT
10
265.850000
20
521.725000
30
0.0
40
2.5000
1
2x Ø2.50 THRU
0
TEXT
8
TEXT
10
265.850000
20
518.100000
30
0.0
40
2.5000
1
C'BORE Ø4.60x0.50 +Z
0
SOLID
8
DIM
10
212.550000
20
425.525000
30
0.0
11
215.577947
21
426.725501
31
0.0
12
214.926650
22
427.752375
32
0.0
13
214.926650
23
427.752375
33
0.0
0
LINE
8
DIM
10
212.550000
20
425.525000
30
0.0
11
220.994682
21
430.881056
31
0.0
0
LINE
8
DIM
10
220.994682
20
430.881056
30
0.0
11
223.994682
21
430.881056
31
0.0
0
TEXT
8
TEXT
10
224.794682
20
431.881056
30
0.0
40
2.5000
1
R2.30
0
SOLID
8
DIM
10
67.800000
20
425.525000
30
0.0
11
65.202937
21
427.490942
31
0.0
12
64.662883
22
426.401447
32
0.0
13
64.662883
23
426.401447
33
0.0
0
LINE
8
DIM
10
67.800000
20
425.525000
30
0.0
11
58.840343
21
429.966233
31
0.0
0
LINE
8
DIM
10
58.840343
20
429.966233
30
0.0
11
55.840343
21
429.966233
31
0.0
0
TEXT
8
TEXT
10
55.040343
20
430.966233
30
0.0
40
2.5000
1
R1.25
72
2
73
0
11
55.040343
21
430.966233
31
0.0
0
TEXT
8
TEXT
10
149.050000
20
271.525000
30
0.0
40
4.0000
1
TOP VIEW
72
1
73
0
11
149.050000
21
271.525000
31
0.0
0
LINE
8
TEXT
10
139.450000
20
269.925000
30
0.0
11
158.650000
21
269.925000
31
0.0
0
TEXT
8
TEXT
10
149.050000
20
265.525000
30
0.0
40
2.4000
1
X →   Y ↑
72
1
73
0
11
149.050000
21
265.525000
31
0.0
0
LINE
8
DIM
10
290.050000
20
117.825000
30
0.0
11
290.050000
21
105.025000
31
0.0
0
LINE
8
DIM
10
469.500000
20
117.825000
30
0.0
11
469.500000
21
105.025000
31
0.0
0
LINE
8
DIM
10
290.050000
20
107.025000
30
0.0
11
469.500000
21
107.025000
31
0.0
0
SOLID
8
DIM
10
290.050000
20
107.025000
30
0.0
11
293.250000
21
106.417000
31
0.0
12
293.250000
22
107.633000
32
0.0
13
293.250000
23
107.633000
33
0.0
0
SOLID
8
DIM
10
469.500000
20
107.025000
30
0.0
11
466.300000
21
107.633000
31
0.0
12
466.300000
22
106.417000
32
0.0
13
466.300000
23
106.417000
33
0.0
0
TEXT
8
TEXT
10
379.775000
20
108.025000
30
0.0
40
2.5000
1
35.89
72
1
73
0
11
379.775000
21
108.025000
31
0.0
0
LINE
8
DIM
10
288.850000
20
119.025000
30
0.0
11
276.050000
21
119.025000
31
0.0
0
LINE
8
DIM
10
288.850000
20
231.525000
30
0.0
11
276.050000
21
231.525000
31
0.0
0
LINE
8
DIM
10
278.050000
20
119.025000
30
0.0
11
278.050000
21
231.525000
31
0.0
0
SOLID
8
DIM
10
278.050000
20
119.025000
30
0.0
11
278.658000
21
122.225000
31
0.0
12
277.442000
22
122.225000
32
0.0
13
277.442000
23
122.225000
33
0.0
0
SOLID
8
DIM
10
278.050000
20
231.525000
30
0.0
11
277.442000
21
228.325000
31
0.0
12
278.658000
22
228.325000
32
0.0
13
278.658000
23
228.325000
33
0.0
0
TEXT
8
TEXT
10
277.050000
20
175.275000
30
0.0
40
2.5000
1
22.50
50
90.0000
72
1
73
0
11
277.050000
21
175.275000
31
0.0
0
TEXT
8
TEXT
10
379.775000
20
95.025000
30
0.0
40
4.0000
1
RIGHT VIEW
72
1
73
0
11
379.775000
21
95.025000
31
0.0
0
LINE
8
TEXT
10
367.775000
20
93.425000
30
0.0
11
391.775000
21
93.425000
31
0.0
0
TEXT
8
TEXT
10
379.775000
20
89.025000
30
0.0
40
2.4000
1
-Y →   Z ↑
72
1
73
0
11
379.775000
21
89.025000
31
0.0
0
LINE
8
DIM
10
507.500000
20
117.825000
30
0.0
11
507.500000
21
105.025000
31
0.0
0
LINE
8
DIM
10
686.950000
20
117.825000
30
0.0
11
686.950000
21
105.025000
31
0.0
0
LINE
8
DIM
10
507.500000
20
107.025000
30
0.0
11
686.950000
21
107.025000
31
0.0
0
SOLID
8
DIM
10
507.500000
20
107.025000
30
0.0
11
510.700000
21
106.417000
31
0.0
12
510.700000
22
107.633000
32
0.0
13
510.700000
23
107.633000
33
0.0
0
SOLID
8
DIM
10
686.950000
20
107.025000
30
0.0
11
683.750000
21
107.633000
31
0.0
12
683.750000
22
106.417000
32
0.0
13
683.750000
23
106.417000
33
0.0
0
TEXT
8
TEXT
10
597.225000
20
108.025000
30
0.0
40
2.5000
1
35.89
72
1
73
0
11
597.225000
21
108.025000
31
0.0
0
LINE
8
DIM
10
506.300000
20
119.025000
30
0.0
11
493.500000
21
119.025000
31
0.0
0
LINE
8
DIM
10
506.300000
20
231.525000
30
0.0
11
493.500000
21
231.525000
31
0.0
0
LINE
8
DIM
10
495.500000
20
119.025000
30
0.0
11
495.500000
21
231.525000
31
0.0
0
SOLID
8
DIM
10
495.500000
20
119.025000
30
0.0
11
496.108000
21
122.225000
31
0.0
12
494.892000
22
122.225000
32
0.0
13
494.892000
23
122.225000
33
0.0
0
SOLID
8
DIM
10
495.500000
20
231.525000
30
0.0
11
494.892000
21
228.325000
31
0.0
12
496.108000
22
228.325000
32
0.0
13
496.108000
23
228.325000
33
0.0
0
TEXT
8
TEXT
10
494.500000
20
175.275000
30
0.0
40
2.5000
1
22.50
50
90.0000
72
1
73
0
11
494.500000
21
175.275000
31
0.0
0
LINE
8
HATCH
10
686.949993
20
199.525000
30
0.0
11
686.950000
21
199.525007
31
0.0
0
LINE
8
HATCH
10
682.707352
20
199.525000
30
0.0
11
686.950000
21
203.767648
31
0.0
0
LINE
8
HATCH
10
678.464712
20
199.525000
30
0.0
11
682.964712
21
204.025000
31
0.0
0
LINE
8
HATCH
10
674.222071
20
199.525000
30
0.0
11
678.722071
21
204.025000
31
0.0
0
LINE
8
HATCH
10
670.500000
20
200.045570
30
0.0
11
677.500000
21
207.045570
31
0.0
0
LINE
8
HATCH
10
670.500000
20
204.288211
30
0.0
11
675.236789
21
209.025000
31
0.0
0
LINE
8
HATCH
10
666.994149
20
205.025000
30
0.0
11
672.500000
21
210.530851
31
0.0
0
LINE
8
HATCH
10
662.751508
20
205.025000
30
0.0
11
672.500000
21
214.773492
31
0.0
0
LINE
8
HATCH
10
658.508867
20
205.025000
30
0.0
11
672.500000
21
219.016133
31
0.0
0
LINE
8
HATCH
10
657.500000
20
208.258773
30
0.0
11
672.500000
21
223.258773
31
0.0
0
LINE
8
HATCH
10
657.500000
20
212.501414
30
0.0
11
672.011793
21
227.013207
31
0.0
0
LINE
8
HATCH
10
657.500000
20
216.744055
30
0.0
11
669.890473
21
229.134527
31
0.0
0
LINE
8
HATCH
10
657.500000
20
220.986695
30
0.0
11
667.769152
21
231.255848
31
0.0
0
LINE
8
HATCH
10
653.795664
20
221.525000
30
0.0
11
663.795664
21
231.525000
31
0.0
0
LINE
8
HATCH
10
649.553023
20
221.525000
30
0.0
11
659.553023
21
231.525000
31
0.0
0
LINE
8
HATCH
10
645.310383
20
221.525000
30
0.0
11
655.310383
21
231.525000
31
0.0
0
LINE
8
HATCH
10
641.067742
20
221.525000
30
0.0
11
651.067742
21
231.525000
31
0.0
0
LINE
8
HATCH
10
636.825101
20
221.525000
30
0.0
11
646.825101
21
231.525000
31
0.0
0
LINE
8
HATCH
10
632.582461
20
221.525000
30
0.0
11
642.582461
21
231.525000
31
0.0
0
LINE
8
HATCH
10
628.339820
20
221.525000
30
0.0
11
638.339820
21
231.525000
31
0.0
0
LINE
8
HATCH
10
624.097179
20
221.525000
30
0.0
11
634.097179
21
231.525000
31
0.0
0
LINE
8
HATCH
10
619.854538
20
221.525000
30
0.0
11
629.854538
21
231.525000
31
0.0
0
LINE
8
HATCH
10
615.611898
20
221.525000
30
0.0
11
625.611898
21
231.525000
31
0.0
0
LINE
8
HATCH
10
611.369257
20
221.525000
30
0.0
11
621.369257
21
231.525000
31
0.0
0
LINE
8
HATCH
10
607.126616
20
221.525000
30
0.0
11
617.126616
21
231.525000
31
0.0
0
LINE
8
HATCH
10
602.883976
20
221.525000
30
0.0
11
612.883976
21
231.525000
31
0.0
0
LINE
8
HATCH
10
598.641335
20
221.525000
30
0.0
11
608.641335
21
231.525000
31
0.0
0
LINE
8
HATCH
10
594.398694
20
221.525000
30
0.0
11
604.398694
21
231.525000
31
0.0
0
LINE
8
HATCH
10
590.156054
20
221.525000
30
0.0
11
600.156054
21
231.525000
31
0.0
0
LINE
8
HATCH
10
585.913413
20
221.525000
30
0.0
11
595.913413
21
231.525000
31
0.0
0
LINE
8
HATCH
10
581.670772
20
221.525000
30
0.0
11
591.670772
21
231.525000
31
0.0
0
LINE
8
HATCH
10
577.428132
20
221.525000
30
0.0
11
587.428132
21
231.525000
31
0.0
0
LINE
8
HATCH
10
545.685491
20
194.025000
30
0.0
11
547.550000
21
195.889509
31
0.0
0
LINE
8
HATCH
10
573.185491
20
221.525000
30
0.0
11
583.185491
21
231.525000
31
0.0
0
LINE
8
HATCH
10
541.442850
20
194.025000
30
0.0
11
547.550000
21
200.132150
31
0.0
0
LINE
8
HATCH
10
568.942850
20
221.525000
30
0.0
11
578.942850
21
231.525000
31
0.0
0
LINE
8
HATCH
10
537.200210
20
194.025000
30
0.0
11
547.550000
21
204.374790
31
0.0
0
LINE
8
HATCH
10
564.700210
20
221.525000
30
0.0
11
574.700210
21
231.525000
31
0.0
0
LINE
8
HATCH
10
532.957569
20
194.025000
30
0.0
11
547.550000
21
208.617431
31
0.0
0
LINE
8
HATCH
10
560.457569
20
221.525000
30
0.0
11
570.457569
21
231.525000
31
0.0
0
LINE
8
HATCH
10
528.714928
20
194.025000
30
0.0
11
547.500000
21
212.810072
31
0.0
0
LINE
8
HATCH
10
556.214928
20
221.525000
30
0.0
11
566.214928
21
231.525000
31
0.0
0
LINE
8
HATCH
10
524.472288
20
194.025000
30
0.0
11
547.500000
21
217.052712
31
0.0
0
LINE
8
HATCH
10
551.972288
20
221.525000
30
0.0
11
561.972288
21
231.525000
31
0.0
0
LINE
8
HATCH
10
520.229647
20
194.025000
30
0.0
11
547.500000
21
221.295353
31
0.0
0
LINE
8
HATCH
10
547.729647
20
221.525000
30
0.0
11
557.729647
21
231.525000
31
0.0
0
LINE
8
HATCH
10
515.987006
20
194.025000
30
0.0
11
525.987006
21
204.025000
31
0.0
0
LINE
8
HATCH
10
527.500000
20
205.537994
30
0.0
11
530.987006
21
209.025000
31
0.0
0
LINE
8
HATCH
10
532.500000
20
210.537994
30
0.0
11
553.487006
21
231.525000
31
0.0
0
LINE
8
HATCH
10
511.744365
20
194.025000
30
0.0
11
521.744365
21
204.025000
31
0.0
0
LINE
8
HATCH
10
532.500000
20
214.780635
30
0.0
11
549.244365
21
231.525000
31
0.0
0
LINE
8
HATCH
10
507.501725
20
194.025000
30
0.0
11
517.501725
21
204.025000
31
0.0
0
LINE
8
HATCH
10
532.500000
20
219.023275
30
0.0
11
545.001725
21
231.525000
31
0.0
0
LINE
8
HATCH
10
507.500000
20
198.265916
30
0.0
11
513.259084
21
204.025000
31
0.0
0
LINE
8
HATCH
10
532.500000
20
223.265916
30
0.0
11
540.759084
21
231.525000
31
0.0
0
LINE
8
HATCH
10
507.500000
20
202.508557
30
0.0
11
509.016443
21
204.025000
31
0.0
0
LINE
8
HATCH
10
686.949993
20
179.025000
30
0.0
11
686.950000
21
179.025007
31
0.0
0
LINE
8
HATCH
10
682.707352
20
179.025000
30
0.0
11
686.950000
21
183.267648
31
0.0
0
LINE
8
HATCH
10
678.464712
20
179.025000
30
0.0
11
686.950000
21
187.510288
31
0.0
0
LINE
8
HATCH
10
674.222071
20
179.025000
30
0.0
11
683.722071
21
188.525000
31
0.0
0
LINE
8
HATCH
10
669.979430
20
179.025000
30
0.0
11
679.479430
21
188.525000
31
0.0
0
LINE
8
HATCH
10
665.736789
20
179.025000
30
0.0
11
669.736789
21
183.025000
31
0.0
0
LINE
8
HATCH
10
670.500000
20
183.788211
30
0.0
11
675.236789
21
188.525000
31
0.0
0
LINE
8
HATCH
10
661.494149
20
179.025000
30
0.0
11
665.494149
21
183.025000
31
0.0
0
LINE
8
HATCH
10
670.500000
20
188.030851
30
0.0
11
670.994149
21
188.525000
31
0.0
0
LINE
8
HATCH
10
657.500000
20
179.273492
30
0.0
11
661.251508
21
183.025000
31
0.0
0
LINE
8
HATCH
10
686.949993
20
139.525000
30
0.0
11
686.950000
21
139.525007
31
0.0
0
LINE
8
HATCH
10
682.707352
20
139.525000
30
0.0
11
686.950000
21
143.767648
31
0.0
0
LINE
8
HATCH
10
678.464712
20
139.525000
30
0.0
11
686.950000
21
148.010288
31
0.0
0
LINE
8
HATCH
10
674.222071
20
139.525000
30
0.0
11
683.722071
21
149.025000
31
0.0
0
LINE
8
HATCH
10
670.500000
20
140.045570
30
0.0
11
679.479430
21
149.025000
31
0.0
0
LINE
8
HATCH
10
670.500000
20
144.288211
30
0.0
11
675.236789
21
149.025000
31
0.0
0
LINE
8
HATCH
10
666.994149
20
145.025000
30
0.0
11
670.994149
21
149.025000
31
0.0
0
LINE
8
HATCH
10
662.751508
20
145.025000
30
0.0
11
666.751508
21
149.025000
31
0.0
0
LINE
8
HATCH
10
658.508867
20
145.025000
30
0.0
11
662.508867
21
149.025000
31
0.0
0
LINE
8
HATCH
10
657.500000
20
148.258773
30
0.0
11
658.266227
21
149.025000
31
0.0
0
LINE
8
HATCH
10
686.949993
20
124.025000
30
0.0
11
686.950000
21
124.025007
31
0.0
0
LINE
8
HATCH
10
682.707352
20
124.025000
30
0.0
11
686.950000
21
128.267648
31
0.0
0
LINE
8
HATCH
10
673.464712
20
119.025000
30
0.0
11
677.500000
21
123.060288
31
0.0
0
LINE
8
HATCH
10
678.464712
20
124.025000
30
0.0
11
682.964712
21
128.525000
31
0.0
0
LINE
8
HATCH
10
669.264656
20
119.067585
30
0.0
11
678.722071
21
128.525000
31
0.0
0
LINE
8
HATCH
10
665.022016
20
119.067585
30
0.0
11
668.979430
21
123.025000
31
0.0
0
LINE
8
HATCH
10
670.500000
20
124.545570
30
0.0
11
674.479430
21
128.525000
31
0.0
0
LINE
8
HATCH
10
660.779375
20
119.067585
30
0.0
11
664.736789
21
123.025000
31
0.0
0
LINE
8
HATCH
10
657.500000
20
120.030851
30
0.0
11
660.494149
21
123.025000
31
0.0
0
LINE
8
HATCH
10
547.549993
20
119.025000
30
0.0
11
547.550000
21
119.025007
31
0.0
0
LINE
8
HATCH
10
543.307352
20
119.025000
30
0.0
11
547.550000
21
123.267648
31
0.0
0
LINE
8
HATCH
10
539.064712
20
119.025000
30
0.0
11
547.550000
21
127.510288
31
0.0
0
LINE
8
HATCH
10
534.822071
20
119.025000
30
0.0
11
547.550000
21
131.752929
31
0.0
0
LINE
8
HATCH
10
530.579430
20
119.025000
30
0.0
11
545.579430
21
134.025000
31
0.0
0
LINE
8
HATCH
10
527.500000
20
120.188211
30
0.0
11
541.336789
21
134.025000
31
0.0
0
LINE
8
HATCH
10
527.094149
20
124.025000
30
0.0
11
537.094149
21
134.025000
31
0.0
0
LINE
8
HATCH
10
522.851508
20
124.025000
30
0.0
11
532.851508
21
134.025000
31
0.0
0
LINE
8
HATCH
10
518.608867
20
124.025000
30
0.0
11
528.608867
21
134.025000
31
0.0
0
LINE
8
HATCH
10
514.366227
20
124.025000
30
0.0
11
524.366227
21
134.025000
31
0.0
0
LINE
8
HATCH
10
510.123586
20
124.025000
30
0.0
11
520.123586
21
134.025000
31
0.0
0
LINE
8
HATCH
10
507.500000
20
125.644055
30
0.0
11
515.880945
21
134.025000
31
0.0
0
LINE
8
HATCH
10
507.500000
20
129.886695
30
0.0
11
511.638305
21
134.025000
31
0.0
0
LINE
8
DIM
10
670.952704
20
119.067585
30
0.0
11
697.950000
21
119.067585
31
0.0
0
LINE
8
DIM
10
670.952704
20
123.025000
30
0.0
11
697.950000
21
123.025000
31
0.0
0
LINE
8
DIM
10
695.950000
20
119.067585
30
0.0
11
695.950000
21
123.025000
31
0.0
0
SOLID
8
DIM
10
695.950000
20
119.067585
30
0.0
11
695.342000
21
115.867585
31
0.0
12
696.558000
22
115.867585
32
0.0
13
696.558000
23
115.867585
33
0.0
0
SOLID
8
DIM
10
695.950000
20
123.025000
30
0.0
11
696.558000
21
126.225000
31
0.0
12
695.342000
22
126.225000
32
0.0
13
695.342000
23
126.225000
33
0.0
0
LINE
8
DIM
10
695.950000
20
123.025000
30
0.0
11
695.950000
21
132.625000
31
0.0
0
TEXT
8
TEXT
10
694.950000
20
133.425000
30
0.0
40
2.5000
1
0.79 WALL
50
90.0000
0
LINE
8
DIM
10
670.500000
20
206.006247
30
0.0
11
670.500000
21
240.525000
31
0.0
0
LINE
8
DIM
10
677.500000
20
206.006247
30
0.0
11
677.500000
21
240.525000
31
0.0
0
LINE
8
DIM
10
670.500000
20
238.525000
30
0.0
11
677.500000
21
238.525000
31
0.0
0
SOLID
8
DIM
10
670.500000
20
238.525000
30
0.0
11
667.300000
21
239.133000
31
0.0
12
667.300000
22
237.917000
32
0.0
13
667.300000
23
237.917000
33
0.0
0
SOLID
8
DIM
10
677.500000
20
238.525000
30
0.0
11
680.700000
21
237.917000
31
0.0
12
680.700000
22
239.133000
32
0.0
13
680.700000
23
239.133000
33
0.0
0
LINE
8
DIM
10
677.500000
20
238.525000
30
0.0
11
687.100000
21
238.525000
31
0.0
0
TEXT
8
TEXT
10
687.900000
20
238.925000
30
0.0
40
2.5000
1
1.40 WALL
0
TEXT
8
TEXT
10
597.225000
20
95.025000
30
0.0
40
4.0000
1
SECTION A-A
72
1
73
0
11
597.225000
21
95.025000
31
0.0
0
LINE
8
TEXT
10
584.025000
20
93.425000
30
0.0
11
610.425000
21
93.425000
31
0.0
0
TEXT
8
TEXT
10
786.000000
20
498.000000
30
0.0
40
4.0000
1
ISOMETRIC VIEW
72
1
73
0
11
786.000000
21
498.000000
31
0.0
0
LINE
8
TEXT
10
769.200000
20
496.400000
30
0.0
11
802.800000
21
496.400000
31
0.0
0
TEXT
8
TEXT
10
786.000000
20
492.000000
30
0.0
40
2.6000
1
34.00 x 35.89 x 22.50 mm
72
1
73
0
11
786.000000
21
492.000000
31
0.0
0
LINE
8
CUT
10
111.550000
20
110.025000
30
0.0
11
111.550000
21
124.025000
31
0.0
0
LINE
8
CUTTHIN
10
111.550000
20
124.025000
30
0.0
11
111.550000
21
226.525000
31
0.0
0
LINE
8
CUT
10
111.550000
20
226.525000
30
0.0
11
111.550000
21
240.525000
31
0.0
0
LINE
8
CUT
10
111.550000
20
110.025000
30
0.0
11
120.550000
21
110.025000
31
0.0
0
SOLID
8
CUT
10
120.550000
20
110.025000
30
0.0
11
116.350000
21
110.823000
31
0.0
12
116.350000
22
109.227000
32
0.0
13
116.350000
23
109.227000
33
0.0
0
TEXT
8
TEXT
10
106.550000
20
110.025000
30
0.0
40
4.0000
1
A
72
1
73
2
11
106.550000
21
110.025000
31
0.0
0
LINE
8
CUT
10
111.550000
20
240.525000
30
0.0
11
120.550000
21
240.525000
31
0.0
0
SOLID
8
CUT
10
120.550000
20
240.525000
30
0.0
11
116.350000
21
241.323000
31
0.0
12
116.350000
22
239.727000
32
0.0
13
116.350000
23
239.727000
33
0.0
0
TEXT
8
TEXT
10
106.550000
20
240.525000
30
0.0
40
4.0000
1
A
72
1
73
2
11
106.550000
21
240.525000
31
0.0
0
LINE
8
VISIBLE
10
757.000000
20
438.177778
30
0.0
11
815.000000
21
438.177778
31
0.0
0
LINE
8
VISIBLE
10
815.000000
20
438.177778
30
0.0
11
815.000000
21
482.000000
31
0.0
0
LINE
8
VISIBLE
10
815.000000
20
482.000000
30
0.0
11
757.000000
21
482.000000
31
0.0
0
LINE
8
VISIBLE
10
757.000000
20
482.000000
30
0.0
11
757.000000
21
438.177778
31
0.0
0
LINE
8
TITLE
10
757.000000
20
438.177778
30
0.0
11
815.000000
21
438.177778
31
0.0
0
LINE
8
TITLE
10
815.000000
20
438.177778
30
0.0
11
815.000000
21
482.000000
31
0.0
0
LINE
8
TITLE
10
815.000000
20
482.000000
30
0.0
11
757.000000
21
482.000000
31
0.0
0
LINE
8
TITLE
10
757.000000
20
482.000000
30
0.0
11
757.000000
21
438.177778
31
0.0
0
TEXT
8
TEXT
10
786.000000
20
435.577778
30
0.0
40
2.0000
1
REFERENCE RENDER (ISO2) — rendered off this solid,
72
1
73
0
11
786.000000
21
435.577778
31
0.0
0
TEXT
8
TEXT
10
786.000000
20
432.977778
30
0.0
40
2.0000
1
900 x 680 px
72
1
73
0
11
786.000000
21
432.977778
31
0.0
0
TEXT
8
TEXT
10
743.000000
20
425.677778
30
0.0
40
3.0000
1
HOLE TABLE — 6 POSITIONS
0
LINE
8
TITLE
10
743.000000
20
423.177778
30
0.0
11
806.840000
21
423.177778
31
0.0
0
TEXT
8
TITLE
10
744.500000
20
420.707778
30
0.0
40
2.2000
1
TAG
0
TEXT
8
TITLE
10
751.460000
20
420.707778
30
0.0
40
2.2000
1
SIZE
0
TEXT
8
TITLE
10
768.980000
20
420.707778
30
0.0
40
2.2000
1
X
0
TEXT
8
TITLE
10
778.580000
20
420.707778
30
0.0
40
2.2000
1
Z
0
TEXT
8
TITLE
10
788.180000
20
420.707778
30
0.0
40
2.2000
1
C'BORE
0
LINE
8
TITLE
10
743.000000
20
419.107778
30
0.0
11
806.840000
21
419.107778
31
0.0
0
TEXT
8
TEXT
10
744.500000
20
416.637778
30
0.0
40
2.2000
1
A1
0
TEXT
8
TEXT
10
751.460000
20
416.637778
30
0.0
40
2.2000
1
Ø2.20 THRU
0
TEXT
8
TEXT
10
768.980000
20
416.637778
30
0.0
40
2.2000
1
0.00
0
TEXT
8
TEXT
10
778.580000
20
416.637778
30
0.0
40
2.2000
1
10.50
0
TEXT
8
TEXT
10
788.180000
20
416.637778
30
0.0
40
2.2000
1
Ø4.40x2.60 -Y
0
TEXT
8
TEXT
10
744.500000
20
412.567778
30
0.0
40
2.2000
1
A2
0
TEXT
8
TEXT
10
751.460000
20
412.567778
30
0.0
40
2.2000
1
Ø2.20 THRU
0
TEXT
8
TEXT
10
768.980000
20
412.567778
30
0.0
40
2.2000
1
6.00
0
TEXT
8
TEXT
10
778.580000
20
412.567778
30
0.0
40
2.2000
1
4.50
0
TEXT
8
TEXT
10
788.180000
20
412.567778
30
0.0
40
2.2000
1
Ø4.40x2.60 -Y
0
TEXT
8
TEXT
10
744.500000
20
408.497778
30
0.0
40
2.2000
1
A3
0
TEXT
8
TEXT
10
751.460000
20
408.497778
30
0.0
40
2.2000
1
Ø12.00 THRU
0
TEXT
8
TEXT
10
768.980000
20
408.497778
30
0.0
40
2.2000
1
0.00
0
TEXT
8
TEXT
10
778.580000
20
408.497778
30
0.0
40
2.2000
1
4.50
0
TEXT
8
TEXT
10
788.180000
20
408.497778
30
0.0
40
2.2000
1
-
0
TEXT
8
TEXT
10
744.500000
20
404.427778
30
0.0
40
2.2000
1
A4
0
TEXT
8
TEXT
10
751.460000
20
404.427778
30
0.0
40
2.2000
1
Ø6.00 THRU
0
TEXT
8
TEXT
10
768.980000
20
404.427778
30
0.0
40
2.2000
1
0.00
0
TEXT
8
TEXT
10
778.580000
20
404.427778
30
0.0
40
2.2000
1
4.50
0
TEXT
8
TEXT
10
788.180000
20
404.427778
30
0.0
40
2.2000
1
-
0
TEXT
8
TEXT
10
744.500000
20
400.357778
30
0.0
40
2.2000
1
A5
0
TEXT
8
TEXT
10
751.460000
20
400.357778
30
0.0
40
2.2000
1
Ø2.20 THRU
0
TEXT
8
TEXT
10
768.980000
20
400.357778
30
0.0
40
2.2000
1
-6.00
0
TEXT
8
TEXT
10
778.580000
20
400.357778
30
0.0
40
2.2000
1
4.50
0
TEXT
8
TEXT
10
788.180000
20
400.357778
30
0.0
40
2.2000
1
Ø4.40x2.60 -Y
0
TEXT
8
TEXT
10
744.500000
20
396.287778
30
0.0
40
2.2000
1
A6
0
TEXT
8
TEXT
10
751.460000
20
396.287778
30
0.0
40
2.2000
1
Ø2.20 THRU
0
TEXT
8
TEXT
10
768.980000
20
396.287778
30
0.0
40
2.2000
1
0.00
0
TEXT
8
TEXT
10
778.580000
20
396.287778
30
0.0
40
2.2000
1
-1.50
0
TEXT
8
TEXT
10
788.180000
20
396.287778
30
0.0
40
2.2000
1
Ø4.40x2.60 -Y
0
LINE
8
TITLE
10
743.000000
20
394.687778
30
0.0
11
806.840000
21
394.687778
31
0.0
0
LINE
8
TITLE
10
749.960000
20
394.687778
30
0.0
11
749.960000
21
423.177778
31
0.0
0
LINE
8
TITLE
10
767.480000
20
394.687778
30
0.0
11
767.480000
21
423.177778
31
0.0
0
LINE
8
TITLE
10
777.080000
20
394.687778
30
0.0
11
777.080000
21
423.177778
31
0.0
0
LINE
8
TITLE
10
786.680000
20
394.687778
30
0.0
11
786.680000
21
423.177778
31
0.0
0
LINE
8
TITLE
10
806.840000
20
394.687778
30
0.0
11
806.840000
21
423.177778
31
0.0
0
LINE
8
TITLE
10
743.000000
20
394.687778
30
0.0
11
743.000000
21
423.177778
31
0.0
0
TEXT
8
TITLE
10
743.000000
20
390.687778
30
0.0
40
2.0075
1
every row measured off the solid; positions are model
0
TEXT
8
TITLE
10
743.000000
20
387.676457
30
0.0
40
2.0075
1
coordinates, mm. C'BORE side is the face it opens on;
0
TEXT
8
TITLE
10
743.000000
20
384.665136
30
0.0
40
2.0075
1
INT = centred in the bore, opening on neither face.
0
TEXT
8
TEXT
10
743.000000
20
374.653816
30
0.0
40
3.0000
1
NOTES
0
TEXT
8
TEXT
10
743.000000
20
370.053816
30
0.0
40
2.4000
1
1. ALL DIMENSIONS IN mm AND DEGREES. EVERY DIMENSION AND
0
TEXT
8
TEXT
10
743.000000
20
366.333816
30
0.0
40
2.4000
1
   EVERY HOLE CALLOUT WAS MEASURED OFF THE SOLID.
0
TEXT
8
TEXT
10
743.000000
20
362.613816
30
0.0
40
2.4000
1
2. PROCESS: FDM.
0
TEXT
8
TEXT
10
743.000000
20
358.893816
30
0.0
40
2.4000
1
3. THINNEST WALL, WHOLE SOLID (RAY MINIMUM): 0.7500 mm, AT
0
TEXT
8
TEXT
10
743.000000
20
355.173816
30
0.0
40
2.4000
1
   X=8.749 Y=8.021 Z=17.000 — MEASURED OVER THE WHOLE
0
TEXT
8
TEXT
10
743.000000
20
351.453816
30
0.0
40
2.4000
1
   SOLID BY RAY+EXACT AT 1.2760 mm SAMPLE SPACING (A
0
TEXT
8
TEXT
10
743.000000
20
347.733816
30
0.0
40
2.4000
1
   FEATURE NARROWER THAN THAT CAN BE MISSED). THIS IS A
0
TEXT
8
TEXT
10
743.000000
20
344.013816
30
0.0
40
2.4000
1
   DISTANCE THROUGH MATERIAL, NOT A WALL: AT AN EDGE, A
0
TEXT
8
TEXT
10
743.000000
20
340.293816
30
0.0
40
2.4000
1
   FILLET RUN-OUT OR A CHAMFER TIP IT IS REAL AND
0
TEXT
8
TEXT
10
743.000000
20
336.573816
30
0.0
40
2.4000
1
   UNPRINTABLE BY DEFINITION. DO NOT JUDGE PRINTABILITY BY
0
TEXT
8
TEXT
10
743.000000
20
332.853816
30
0.0
40
2.4000
1
   IT — THE NEXT NOTE IS THE ONE THAT DOES.
0
TEXT
8
TEXT
10
743.000000
20
329.133816
30
0.0
40
2.4000
1
4. PRINTABLE MINIMUM WALL: 1.5170 mm, AT X=6.911 Y=6.898
0
TEXT
8
TEXT
10
743.000000
20
325.413816
30
0.0
40
2.4000
1
   Z=17.000 — MEASURED AS THE SMALLEST MEDIAN WALL OVER A
0
TEXT
8
TEXT
10
743.000000
20
321.693816
30
0.0
40
2.4000
1
   NEIGHBOURHOOD OF 3.8270 mm (>= 8 SAMPLES), RAYS CAPPED
0
TEXT
8
TEXT
10
743.000000
20
317.973816
30
0.0
40
2.4000
1
   AT 4.000 mm, BY cecad.inspect.printable_wall_detail.
0
TEXT
8
TEXT
10
743.000000
20
314.253816
30
0.0
40
2.4000
1
   AGAINST THE 0.8000 mm FLOOR (2 PERIMETERS @ 0.4 mm
0
TEXT
8
TEXT
10
743.000000
20
310.533816
30
0.0
40
2.4000
1
   NOZZLE, cecad/printed.py:801): VERDICT PASS
0
TEXT
8
TEXT
10
743.000000
20
306.813816
30
0.0
40
2.4000
1
5. DETAIL CALLOUTS (A.7): NONE. DETAIL A dropped: a Ø17.2
0
TEXT
8
TEXT
10
743.000000
20
303.093816
30
0.0
40
2.4000
1
   mm region needs 10:1 to beat the sheet's 5:1 by 2x and
0
TEXT
8
TEXT
10
743.000000
20
299.373816
30
0.0
40
2.4000
1
   only 74 mm of the bottom band is free — it would be
0
TEXT
8
TEXT
10
743.000000
20
295.653816
30
0.0
40
2.4000
1
   drawn the same size as the view it points at; DETAIL B
0
TEXT
8
TEXT
10
743.000000
20
291.933816
30
0.0
40
2.4000
1
   dropped: a Ø16.0 mm region needs 10:1 to beat the
0
TEXT
8
TEXT
10
743.000000
20
288.213816
30
0.0
40
2.4000
1
   sheet's 5:1 by 2x and only 74 mm of the bottom band is
0
TEXT
8
TEXT
10
743.000000
20
284.493816
30
0.0
40
2.4000
1
   free — it would be drawn the same size as the view it
0
TEXT
8
TEXT
10
743.000000
20
280.773816
30
0.0
40
2.4000
1
   points at. THE REGIONS ARE DRAWN AT THE SHEET SCALE
0
TEXT
8
TEXT
10
743.000000
20
277.053816
30
0.0
40
2.4000
1
   ABOVE; NOTHING IS HIDDEN.
0
TEXT
8
TEXT
10
743.000000
20
273.333816
30
0.0
40
2.4000
1
6. GENERAL TOLERANCE CANNOT DETERMINE — SEE PRINT / DFM
0
TEXT
8
TEXT
10
743.000000
20
269.613816
30
0.0
40
2.4000
1
   NOTES UNLESS STATED.
0
TEXT
8
TEXT
10
743.000000
20
265.893816
30
0.0
40
2.4000
1
7. SECTION A-A AT X=0.00: THINNEST MATERIAL IN THIS PLANE
0
TEXT
8
TEXT
10
743.000000
20
262.173816
30
0.0
40
2.4000
1
   ONLY 0.79 mm, AT Y=14.45, Z=-4.10 — A SCAN OF ONE CUT,
0
TEXT
8
TEXT
10
743.000000
20
258.453816
30
0.0
40
2.4000
1
   NOT THE PART MINIMUM.
0
TEXT
8
TEXT
10
743.000000
20
254.733816
30
0.0
40
2.4000
1
8. FRONT VIEW: hidden lines KEPT: without them 19 of 532
0
TEXT
8
TEXT
10
743.000000
20
251.013816
30
0.0
40
2.4000
1
   edge samples have no ink within 0.35 mm (worst 4.641
0
TEXT
8
TEXT
10
743.000000
20
247.293816
30
0.0
40
2.4000
1
   mm) and the feature would be missing from the sheet.
0
TEXT
8
TEXT
10
743.000000
20
243.573816
30
0.0
40
2.4000
1
9. TOP VIEW: hidden lines KEPT: without them 27 of 590
0
TEXT
8
TEXT
10
743.000000
20
239.853816
30
0.0
40
2.4000
1
   edge samples have no ink within 0.35 mm (worst 1.051
0
TEXT
8
TEXT
10
743.000000
20
236.133816
30
0.0
40
2.4000
1
   mm) and the feature would be missing from the sheet.
0
TEXT
8
TEXT
10
743.000000
20
232.413816
30
0.0
40
2.4000
1
10. RIGHT VIEW: hidden lines KEPT: without them 8 of 584
0
TEXT
8
TEXT
10
743.000000
20
228.693816
30
0.0
40
2.4000
1
   edge samples have no ink within 0.35 mm (worst 0.500
0
TEXT
8
TEXT
10
743.000000
20
224.973816
30
0.0
40
2.4000
1
   mm) and the feature would be missing from the sheet.
0
TEXT
8
TEXT
10
743.000000
20
217.253816
30
0.0
40
3.0000
1
PRINT / DFM
0
TEXT
8
TEXT
10
743.000000
20
212.653816
30
0.0
40
2.4000
1
1. ORIENTATION: laid flat (34 x 36 x 22 mm)
0
TEXT
8
TEXT
10
743.000000
20
208.933816
30
0.0
40
2.4000
1
2. THINNEST WALL, WHOLE SOLID (RAY MINIMUM): 0.7500 mm — a
0
TEXT
8
TEXT
10
743.000000
20
205.213816
30
0.0
40
2.4000
1
   distance through material, NOT a printable wall where
0
TEXT
8
TEXT
10
743.000000
20
201.493816
30
0.0
40
2.4000
1
   it falls on an edge, a fillet run-out or a chamfer tip.
0
TEXT
8
TEXT
10
743.000000
20
197.773816
30
0.0
40
2.4000
1
   Printability is judged on the next line.
0
TEXT
8
TEXT
10
743.000000
20
194.053816
30
0.0
40
2.4000
1
3. PRINTABLE MINIMUM WALL: 1.5170 mm (smallest median wall
0
TEXT
8
TEXT
10
743.000000
20
190.333816
30
0.0
40
2.4000
1
   over a 3.8270 mm neighbourhood,
0
TEXT
8
TEXT
10
743.000000
20
186.613816
30
0.0
40
2.4000
1
   cecad.inspect.printable_wall_detail) against a 0.8000
0
TEXT
8
TEXT
10
743.000000
20
182.893816
30
0.0
40
2.4000
1
   mm floor (2 perimeters @ 0.4 mm nozzle): VERDICT PASS
0
TEXT
8
TEXT
10
743.000000
20
179.173816
30
0.0
40
2.4000
1
4. 10 horizontal bore(s) bridge at the crown: ream any
0
TEXT
8
TEXT
10
743.000000
20
175.453816
30
0.0
40
2.4000
1
   bearing or press-fit bore to size
0
TEXT
8
TEXT
10
743.000000
20
171.733816
30
0.0
40
2.4000
1
5. FILAMENT: PLA, ~5 g (modelled), 113 layers @ 0.2 mm
0
TEXT
8
TEXT
10
743.000000
20
168.013816
30
0.0
40
2.4000
1
6. TOLERANCE BASIS, IN-HOUSE: CANNOT DETERMINE. Every
0
TEXT
8
TEXT
10
743.000000
20
164.293816
30
0.0
40
2.4000
1
   Bambu on this farm records tolerance_mm: null, cite "no
0
TEXT
8
TEXT
10
743.000000
20
160.573816
30
0.0
40
2.4000
1
   coupon printed and measured on this machine"
0
TEXT
8
TEXT
10
743.000000
20
156.853816
30
0.0
40
2.4000
1
   (ce-machines/bambu-h2s-*,
0
TEXT
8
TEXT
10
743.000000
20
153.133816
30
0.0
40
2.4000
1
   bambu-h2d-*/capabilities.json, read 2026-09-02), and
0
TEXT
8
TEXT
10
743.000000
20
149.413816
30
0.0
40
2.4000
1
   Bambu Lab's own H2D Pro spec sheet carries no
0
TEXT
8
TEXT
10
743.000000
20
145.693816
30
0.0
40
2.4000
1
   dimensional-accuracy line. DIMENSIONS HERE ARE NOMINAL
0
TEXT
8
TEXT
10
743.000000
20
141.973816
30
0.0
40
2.4000
1
   AS MODELLED.
0
TEXT
8
TEXT
10
743.000000
20
138.253816
30
0.0
40
2.4000
1
7. TOLERANCE BASIS, OUTSOURCED: JLC3DP ±0.3 mm FDM
0
TEXT
8
TEXT
10
743.000000
20
134.533816
30
0.0
40
2.4000
1
   (jlc3dp.com, ce-machines/farm-jlc3dp); Hubs ±0.5%,
0
TEXT
8
TEXT
10
743.000000
20
130.813816
30
0.0
40
2.4000
1
   floor ±0.5 mm (hubs.com/3d-printing/,
0
TEXT
8
TEXT
10
743.000000
20
127.093816
30
0.0
40
2.4000
1
   ce-machines/farm-hubs). Apply the route's figure, not
0
TEXT
8
TEXT
10
743.000000
20
123.373816
30
0.0
40
2.4000
1
   both. The ±0.2 mm in cecad/machining.py fdm is a repo
0
TEXT
8
TEXT
10
743.000000
20
119.653816
30
0.0
40
2.4000
1
   planning constant with no vendor cite and is NOT used
0
TEXT
8
TEXT
10
743.000000
20
115.933816
30
0.0
40
2.4000
1
   here. One printed and measured coupon closes this note.
0
TEXT
8
TEXT
10
743.000000
20
112.213816
30
0.0
40
2.4000
1
8. NO ISO 286 CLASS IS DECLARED ON ANY BORE: FDM cannot be
0
TEXT
8
TEXT
10
743.000000
20
108.493816
30
0.0
40
2.4000
1
   sized to one (H7/p6 at Ø3 is a 0.010 mm band). REAM
0
TEXT
8
TEXT
10
743.000000
20
104.773816
30
0.0
40
2.4000
1
   bearing and press-fit bores after printing.
0
TEXT
8
TEXT
10
743.000000
20
101.053816
30
0.0
40
2.4000
1
9. ORTHOGRAPHIC VIEWS: 3 (FRONT, TOP, RIGHT) —
0
TEXT
8
TEXT
10
743.000000
20
97.333816
30
0.0
40
2.4000
1
   cecad.autosheet.choose_views ON THE 34.000 x 35.890 x
0
TEXT
8
TEXT
10
743.000000
20
93.613816
30
0.0
40
2.4000
1
   22.500 mm BBOX, THIN/LONG 0.6269. THE FULL THIRD-ANGLE
0
TEXT
8
TEXT
10
743.000000
20
89.893816
30
0.0
40
2.4000
1
   SET IS DRAWN.
0
LINE
8
FRAME
10
645.000000
20
10.000000
30
0.0
11
831.000000
21
10.000000
31
0.0
0
LINE
8
FRAME
10
831.000000
20
10.000000
30
0.0
11
831.000000
21
66.000000
31
0.0
0
LINE
8
FRAME
10
831.000000
20
66.000000
30
0.0
11
645.000000
21
66.000000
31
0.0
0
LINE
8
FRAME
10
645.000000
20
66.000000
30
0.0
11
645.000000
21
10.000000
31
0.0
0
LINE
8
TITLE
10
645.000000
20
53.000000
30
0.0
11
831.000000
21
53.000000
31
0.0
0
LINE
8
TITLE
10
645.000000
20
19.000000
30
0.0
11
831.000000
21
19.000000
31
0.0
0
LINE
8
TITLE
10
645.000000
20
27.500000
30
0.0
11
831.000000
21
27.500000
31
0.0
0
LINE
8
TITLE
10
645.000000
20
36.000000
30
0.0
11
831.000000
21
36.000000
31
0.0
0
LINE
8
TITLE
10
645.000000
20
44.500000
30
0.0
11
831.000000
21
44.500000
31
0.0
0
TEXT
8
TEXT
10
647.500000
20
59.500000
30
0.0
40
6.0000
1
MICRODUCK-YAW-ROLL-MOTION
72
0
73
2
11
647.500000
21
59.500000
31
0.0
0
LINE
8
TITLE
10
811.000000
20
53.000000
30
0.0
11
811.000000
21
66.000000
31
0.0
0
TEXT
8
TITLE
10
821.000000
20
63.600000
30
0.0
40
1.7000
1
REV
72
1
73
0
11
821.000000
21
63.600000
31
0.0
0
TEXT
8
TEXT
10
821.000000
20
55.000000
30
0.0
40
5.2000
1
A
72
1
73
0
11
821.000000
21
55.000000
31
0.0
0
LINE
8
TITLE
10
781.000000
20
53.000000
30
0.0
11
781.000000
21
66.000000
31
0.0
0
CIRCLE
8
TITLE
10
787.500000
20
59.500000
30
0.0
40
3.500000
0
CIRCLE
8
TITLE
10
787.500000
20
59.500000
30
0.0
40
1.960000
0
LINE
8
TITLE
10
797.300000
20
56.000000
30
0.0
11
797.300000
21
63.000000
31
0.0
0
LINE
8
TITLE
10
797.300000
20
63.000000
30
0.0
11
803.250000
21
61.460000
31
0.0
0
LINE
8
TITLE
10
803.250000
20
61.460000
30
0.0
11
803.250000
21
57.540000
31
0.0
0
LINE
8
TITLE
10
803.250000
20
57.540000
30
0.0
11
797.300000
21
56.000000
31
0.0
0
LINE
8
CENTER
10
782.500000
20
59.500000
30
0.0
11
804.750000
21
59.500000
31
0.0
0
LINE
8
TITLE
10
709.000000
20
19.000000
30
0.0
11
709.000000
21
53.000000
31
0.0
0
LINE
8
TITLE
10
773.000000
20
19.000000
30
0.0
11
773.000000
21
53.000000
31
0.0
0
TEXT
8
TITLE
10
646.600000
20
50.600000
30
0.0
40
1.7000
1
MATERIAL
0
TEXT
8
TEXT
10
646.600000
20
45.900000
30
0.0
40
2.5000
1
PLA
0
TEXT
8
TITLE
10
710.600000
20
50.600000
30
0.0
40
1.7000
1
PROCESS
0
TEXT
8
TEXT
10
710.600000
20
45.900000
30
0.0
40
2.5000
1
FDM
0
TEXT
8
TITLE
10
774.600000
20
50.600000
30
0.0
40
1.7000
1
SCALE
0
TEXT
8
TEXT
10
774.600000
20
45.900000
30
0.0
40
2.5000
1
5:1
0
TEXT
8
TITLE
10
646.600000
20
42.100000
30
0.0
40
1.7000
1
CATEGORY
0
TEXT
8
TEXT
10
646.600000
20
37.400000
30
0.0
40
2.5000
1
bracket
0
TEXT
8
TITLE
10
678.600000
20
42.100000
30
0.0
40
1.7000
1
GENERAL TOL
0
TEXT
8
TEXT
10
678.600000
20
37.400000
30
0.0
40
2.5000
1
CANNOT DETERMINE —~
0
LINE
8
TITLE
10
677.000000
20
36.000000
30
0.0
11
677.000000
21
44.500000
31
0.0
0
TEXT
8
TITLE
10
710.600000
20
42.100000
30
0.0
40
1.7000
1
FINISH
0
TEXT
8
TEXT
10
710.600000
20
37.400000
30
0.0
40
2.5000
1
AS PRINTED
0
TEXT
8
TITLE
10
774.600000
20
42.100000
30
0.0
40
1.7000
1
SHEET
0
TEXT
8
TEXT
10
774.600000
20
37.400000
30
0.0
40
2.5000
1
A1  1/1
0
TEXT
8
TITLE
10
646.600000
20
33.600000
30
0.0
40
1.7000
1
VOLUME (MEASURED)
0
TEXT
8
TEXT
10
646.600000
20
28.900000
30
0.0
40
2.5000
1
4.63 cm3
0
TEXT
8
TITLE
10
710.600000
20
33.600000
30
0.0
40
1.7000
1
MASS (ASSUMES PLA)
0
TEXT
8
TEXT
10
710.600000
20
28.900000
30
0.0
40
2.5000
1
5.7 g
0
TEXT
8
TITLE
10
774.600000
20
33.600000
30
0.0
40
1.7000
1
UNITS
0
TEXT
8
TEXT
10
774.600000
20
28.900000
30
0.0
40
2.5000
1
mm / deg
0
TEXT
8
TITLE
10
646.600000
20
25.100000
30
0.0
40
1.7000
1
SIZE (BBOX, MEASURED)
0
TEXT
8
TEXT
10
646.600000
20
20.400000
30
0.0
40
2.5000
1
34.00 x 35.89 x 22.50
0
TEXT
8
TITLE
10
710.600000
20
25.100000
30
0.0
40
1.7000
1
DRAWN
0
TEXT
8
TEXT
10
710.600000
20
20.400000
30
0.0
40
2.5000
1
ce-cad  2026-09-03
0
TEXT
8
TITLE
10
774.600000
20
25.100000
30
0.0
40
1.7000
1
PROJECTION
0
TEXT
8
TEXT
10
774.600000
20
20.400000
30
0.0
40
2.5000
1
THIRD ANGLE
0
TEXT
8
TITLE
10
646.600000
20
16.600000
30
0.0
40
1.7000
1
SOURCE (DESIGN FILE)
0
TEXT
8
TEXT
10
646.600000
20
11.400000
30
0.0
40
2.6000
1
ce-parts/microduck-yaw-roll-motion/current/cad/part.py
0
TEXT
8
TEXT
10
12.500000
20
577.500000
30
0.0
40
4.2000
1
microduck-yaw-roll-motion   SCALE 5:1   A1   THIRD ANGLE
0
ENDSEC
0
EOF
