0
SECTION
2
HEADER
9
$ACADVER
1
AC1009
9
$INSUNITS
70
4
9
$LTSCALE
40
1.0
9
$EXTMIN
10
0.0000
20
0.0000
30
0.0
9
$EXTMAX
10
594.0000
20
420.0000
30
0.0
0
ENDSEC
0
SECTION
2
TABLES
0
TABLE
2
LTYPE
70
4
0
LTYPE
2
CONTINUOUS
70
0
3
Solid line
72
65
73
0
40
0.0000
0
LTYPE
2
HIDDEN
70
0
3
Hidden __ __ __ __
72
65
73
2
40
3.6000
49
2.4000
49
-1.2000
0
LTYPE
2
CENTER
70
0
3
Center ____ _ ____ _
72
65
73
4
40
11.2000
49
7.0000
49
-1.4000
49
1.4000
49
-1.4000
0
LTYPE
2
PHANTOM
70
0
3
Phantom ____ _ _ ____
72
65
73
6
40
21.0000
49
11.0000
49
-2.0000
49
2.0000
49
-2.0000
49
2.0000
49
-2.0000
0
ENDTAB
0
TABLE
2
LAYER
70
12
0
LAYER
2
0
70
0
62
7
6
CONTINUOUS
0
LAYER
2
VISIBLE
70
0
62
7
6
CONTINUOUS
0
LAYER
2
SECTION
70
0
62
7
6
CONTINUOUS
0
LAYER
2
HIDDEN
70
0
62
8
6
HIDDEN
0
LAYER
2
CENTER
70
0
62
4
6
CENTER
0
LAYER
2
DIM
70
0
62
3
6
CONTINUOUS
0
LAYER
2
TEXT
70
0
62
3
6
CONTINUOUS
0
LAYER
2
HATCH
70
0
62
5
6
CONTINUOUS
0
LAYER
2
CUT
70
0
62
1
6
PHANTOM
0
LAYER
2
CUTTHIN
70
0
62
1
6
PHANTOM
0
LAYER
2
FRAME
70
0
62
7
6
CONTINUOUS
0
LAYER
2
TITLE
70
0
62
7
6
CONTINUOUS
0
ENDTAB
0
ENDSEC
0
SECTION
2
ENTITIES
0
LINE
8
TITLE
10
5.000000
20
5.000000
30
0.0
11
589.000000
21
5.000000
31
0.0
0
LINE
8
TITLE
10
589.000000
20
5.000000
30
0.0
11
589.000000
21
415.000000
31
0.0
0
LINE
8
TITLE
10
589.000000
20
415.000000
30
0.0
11
5.000000
21
415.000000
31
0.0
0
LINE
8
TITLE
10
5.000000
20
415.000000
30
0.0
11
5.000000
21
5.000000
31
0.0
0
LINE
8
FRAME
10
10.000000
20
10.000000
30
0.0
11
584.000000
21
10.000000
31
0.0
0
LINE
8
FRAME
10
584.000000
20
10.000000
30
0.0
11
584.000000
21
410.000000
31
0.0
0
LINE
8
FRAME
10
584.000000
20
410.000000
30
0.0
11
10.000000
21
410.000000
31
0.0
0
LINE
8
FRAME
10
10.000000
20
410.000000
30
0.0
11
10.000000
21
10.000000
31
0.0
0
TEXT
8
TITLE
10
67.400000
20
412.500000
30
0.0
40
2.4000
1
1
72
1
73
2
11
67.400000
21
412.500000
31
0.0
0
TEXT
8
TITLE
10
67.400000
20
7.500000
30
0.0
40
2.4000
1
1
72
1
73
2
11
67.400000
21
7.500000
31
0.0
0
TEXT
8
TITLE
10
182.200000
20
412.500000
30
0.0
40
2.4000
1
2
72
1
73
2
11
182.200000
21
412.500000
31
0.0
0
TEXT
8
TITLE
10
182.200000
20
7.500000
30
0.0
40
2.4000
1
2
72
1
73
2
11
182.200000
21
7.500000
31
0.0
0
LINE
8
TITLE
10
124.800000
20
5.000000
30
0.0
11
124.800000
21
10.000000
31
0.0
0
LINE
8
TITLE
10
124.800000
20
410.000000
30
0.0
11
124.800000
21
415.000000
31
0.0
0
TEXT
8
TITLE
10
297.000000
20
412.500000
30
0.0
40
2.4000
1
3
72
1
73
2
11
297.000000
21
412.500000
31
0.0
0
TEXT
8
TITLE
10
297.000000
20
7.500000
30
0.0
40
2.4000
1
3
72
1
73
2
11
297.000000
21
7.500000
31
0.0
0
LINE
8
TITLE
10
239.600000
20
5.000000
30
0.0
11
239.600000
21
10.000000
31
0.0
0
LINE
8
TITLE
10
239.600000
20
410.000000
30
0.0
11
239.600000
21
415.000000
31
0.0
0
TEXT
8
TITLE
10
411.800000
20
412.500000
30
0.0
40
2.4000
1
4
72
1
73
2
11
411.800000
21
412.500000
31
0.0
0
TEXT
8
TITLE
10
411.800000
20
7.500000
30
0.0
40
2.4000
1
4
72
1
73
2
11
411.800000
21
7.500000
31
0.0
0
LINE
8
TITLE
10
354.400000
20
5.000000
30
0.0
11
354.400000
21
10.000000
31
0.0
0
LINE
8
TITLE
10
354.400000
20
410.000000
30
0.0
11
354.400000
21
415.000000
31
0.0
0
TEXT
8
TITLE
10
526.600000
20
412.500000
30
0.0
40
2.4000
1
5
72
1
73
2
11
526.600000
21
412.500000
31
0.0
0
TEXT
8
TITLE
10
526.600000
20
7.500000
30
0.0
40
2.4000
1
5
72
1
73
2
11
526.600000
21
7.500000
31
0.0
0
LINE
8
TITLE
10
469.200000
20
5.000000
30
0.0
11
469.200000
21
10.000000
31
0.0
0
LINE
8
TITLE
10
469.200000
20
410.000000
30
0.0
11
469.200000
21
415.000000
31
0.0
0
TEXT
8
TITLE
10
7.500000
20
60.000000
30
0.0
40
2.4000
1
D
72
1
73
2
11
7.500000
21
60.000000
31
0.0
0
TEXT
8
TITLE
10
586.500000
20
60.000000
30
0.0
40
2.4000
1
D
72
1
73
2
11
586.500000
21
60.000000
31
0.0
0
TEXT
8
TITLE
10
7.500000
20
160.000000
30
0.0
40
2.4000
1
C
72
1
73
2
11
7.500000
21
160.000000
31
0.0
0
TEXT
8
TITLE
10
586.500000
20
160.000000
30
0.0
40
2.4000
1
C
72
1
73
2
11
586.500000
21
160.000000
31
0.0
0
LINE
8
TITLE
10
5.000000
20
110.000000
30
0.0
11
10.000000
21
110.000000
31
0.0
0
LINE
8
TITLE
10
584.000000
20
110.000000
30
0.0
11
589.000000
21
110.000000
31
0.0
0
TEXT
8
TITLE
10
7.500000
20
260.000000
30
0.0
40
2.4000
1
B
72
1
73
2
11
7.500000
21
260.000000
31
0.0
0
TEXT
8
TITLE
10
586.500000
20
260.000000
30
0.0
40
2.4000
1
B
72
1
73
2
11
586.500000
21
260.000000
31
0.0
0
LINE
8
TITLE
10
5.000000
20
210.000000
30
0.0
11
10.000000
21
210.000000
31
0.0
0
LINE
8
TITLE
10
584.000000
20
210.000000
30
0.0
11
589.000000
21
210.000000
31
0.0
0
TEXT
8
TITLE
10
7.500000
20
360.000000
30
0.0
40
2.4000
1
A
72
1
73
2
11
7.500000
21
360.000000
31
0.0
0
TEXT
8
TITLE
10
586.500000
20
360.000000
30
0.0
40
2.4000
1
A
72
1
73
2
11
586.500000
21
360.000000
31
0.0
0
LINE
8
TITLE
10
5.000000
20
310.000000
30
0.0
11
10.000000
21
310.000000
31
0.0
0
LINE
8
TITLE
10
584.000000
20
310.000000
30
0.0
11
589.000000
21
310.000000
31
0.0
0
LINE
8
VISIBLE
10
188.000000
20
167.000000
30
0.0
11
136.000000
21
167.000000
31
0.0
0
LINE
8
VISIBLE
10
136.000000
20
143.000000
30
0.0
11
136.000000
21
167.000000
31
0.0
0
LINE
8
VISIBLE
10
188.000000
20
143.000000
30
0.0
11
136.000000
21
143.000000
31
0.0
0
LINE
8
VISIBLE
10
150.500000
20
138.000000
30
0.0
11
150.500000
21
143.000000
31
0.0
0
LINE
8
VISIBLE
10
173.500000
20
138.000000
30
0.0
11
150.500000
21
138.000000
31
0.0
0
LINE
8
VISIBLE
10
188.000000
20
143.000000
30
0.0
11
188.000000
21
167.000000
31
0.0
0
LINE
8
VISIBLE
10
173.500000
20
138.000000
30
0.0
11
173.500000
21
143.000000
31
0.0
0
CIRCLE
8
VISIBLE
10
162.000000
20
256.000000
30
0.0
40
26.000000
0
CIRCLE
8
VISIBLE
10
162.000000
20
256.000000
30
0.0
40
11.500000
0
CIRCLE
8
VISIBLE
10
162.000000
20
256.000000
30
0.0
40
10.400000
0
LINE
8
VISIBLE
10
252.000000
20
167.000000
30
0.0
11
226.000000
21
167.000000
31
0.0
0
LINE
8
VISIBLE
10
278.000000
20
167.000000
30
0.0
11
252.000000
21
167.000000
31
0.0
0
LINE
8
VISIBLE
10
252.000000
20
143.000000
30
0.0
11
226.000000
21
143.000000
31
0.0
0
LINE
8
VISIBLE
10
278.000000
20
143.000000
30
0.0
11
252.000000
21
143.000000
31
0.0
0
LINE
8
VISIBLE
10
252.000000
20
138.000000
30
0.0
11
240.500000
21
138.000000
31
0.0
0
LINE
8
VISIBLE
10
263.500000
20
138.000000
30
0.0
11
252.000000
21
138.000000
31
0.0
0
LINE
8
VISIBLE
10
252.000000
20
143.000000
30
0.0
11
252.000000
21
167.000000
31
0.0
0
LINE
8
VISIBLE
10
252.000000
20
138.000000
30
0.0
11
252.000000
21
143.000000
31
0.0
0
LINE
8
VISIBLE
10
226.000000
20
143.000000
30
0.0
11
226.000000
21
167.000000
31
0.0
0
LINE
8
VISIBLE
10
278.000000
20
143.000000
30
0.0
11
278.000000
21
167.000000
31
0.0
0
LINE
8
VISIBLE
10
240.500000
20
138.000000
30
0.0
11
240.500000
21
143.000000
31
0.0
0
LINE
8
VISIBLE
10
263.500000
20
138.000000
30
0.0
11
263.500000
21
143.000000
31
0.0
0
LINE
8
VISIBLE
10
368.000000
20
143.000000
30
0.0
11
316.000000
21
143.000000
31
0.0
0
LINE
8
VISIBLE
10
353.500000
20
138.000000
30
0.0
11
330.500000
21
138.000000
31
0.0
0
LINE
8
SECTION
10
316.000000
20
143.000000
30
0.0
11
316.000000
21
167.000000
31
0.0
0
LINE
8
SECTION
10
316.000000
20
167.000000
30
0.0
11
368.000000
21
167.000000
31
0.0
0
LINE
8
SECTION
10
368.000000
20
143.000000
30
0.0
11
368.000000
21
167.000000
31
0.0
0
LINE
8
SECTION
10
353.500000
20
143.000000
30
0.0
11
368.000000
21
143.000000
31
0.0
0
LINE
8
SECTION
10
353.500000
20
138.000000
30
0.0
11
353.500000
21
143.000000
31
0.0
0
LINE
8
SECTION
10
352.400000
20
138.000000
30
0.0
11
353.500000
21
138.000000
31
0.0
0
LINE
8
SECTION
10
352.400000
20
138.000000
30
0.0
11
352.400000
21
139.990000
31
0.0
0
LINE
8
SECTION
10
331.600000
20
139.990000
30
0.0
11
352.400000
21
139.990000
31
0.0
0
LINE
8
SECTION
10
331.600000
20
138.000000
30
0.0
11
331.600000
21
139.990000
31
0.0
0
LINE
8
SECTION
10
330.500000
20
138.000000
30
0.0
11
331.600000
21
138.000000
31
0.0
0
LINE
8
SECTION
10
330.500000
20
138.000000
30
0.0
11
330.500000
21
143.000000
31
0.0
0
LINE
8
SECTION
10
316.000000
20
143.000000
30
0.0
11
330.500000
21
143.000000
31
0.0
0
LINE
8
VISIBLE
10
573.713626
20
376.100192
30
0.0
11
573.132648
21
379.751594
31
0.0
0
LINE
8
VISIBLE
10
573.132648
20
379.751594
30
0.0
11
571.372107
21
383.336272
31
0.0
0
LINE
8
VISIBLE
10
571.372107
20
383.336272
30
0.0
11
568.346083
21
386.806005
31
0.0
0
LINE
8
VISIBLE
10
568.346083
20
386.806005
30
0.0
11
563.954345
21
390.032367
31
0.0
0
LINE
8
VISIBLE
10
563.954345
20
390.032367
30
0.0
11
558.174863
21
392.807082
31
0.0
0
LINE
8
VISIBLE
10
558.174863
20
392.807082
30
0.0
11
551.144673
21
394.875555
31
0.0
0
LINE
8
VISIBLE
10
551.144673
20
394.875555
30
0.0
11
543.202905
21
395.994676
31
0.0
0
LINE
8
VISIBLE
10
543.202905
20
395.994676
30
0.0
11
534.873405
21
396.000000
31
0.0
0
LINE
8
VISIBLE
10
534.873405
20
396.000000
30
0.0
11
526.780802
21
394.859430
31
0.0
0
LINE
8
VISIBLE
10
526.780802
20
394.859430
30
0.0
11
519.523007
21
392.690175
31
0.0
0
LINE
8
VISIBLE
10
519.523007
20
392.690175
30
0.0
11
513.547971
21
389.728961
31
0.0
0
LINE
8
VISIBLE
10
513.547971
20
389.728961
30
0.0
11
509.083656
21
386.266283
31
0.0
0
LINE
8
VISIBLE
10
509.083656
20
386.266283
30
0.0
11
506.145211
21
382.570604
31
0.0
0
LINE
8
VISIBLE
10
506.145211
20
382.570604
30
0.0
11
504.609931
21
378.830212
31
0.0
0
LINE
8
VISIBLE
10
504.609931
20
378.830212
30
0.0
11
504.286374
21
376.100192
31
0.0
0
LINE
8
VISIBLE
10
514.453759
20
335.765130
30
0.0
11
520.339898
21
333.036845
31
0.0
0
LINE
8
VISIBLE
10
520.339898
20
333.036845
30
0.0
11
527.457437
21
331.035364
31
0.0
0
LINE
8
VISIBLE
10
527.457437
20
331.035364
30
0.0
11
535.451070
21
330.000000
31
0.0
0
LINE
8
VISIBLE
10
535.451070
20
330.000000
30
0.0
11
543.785098
21
330.086311
31
0.0
0
LINE
8
VISIBLE
10
543.785098
20
330.086311
30
0.0
11
551.832070
21
331.314576
31
0.0
0
LINE
8
VISIBLE
10
551.832070
20
331.314576
30
0.0
11
559.001893
21
333.556431
31
0.0
0
LINE
8
VISIBLE
10
559.001893
20
333.556431
30
0.0
11
564.862450
21
336.568170
31
0.0
0
LINE
8
VISIBLE
10
564.862450
20
336.568170
30
0.0
11
569.203941
21
340.058349
31
0.0
0
LINE
8
VISIBLE
10
569.203941
20
340.058349
30
0.0
11
572.025587
21
343.763134
31
0.0
0
LINE
8
VISIBLE
10
572.025587
20
343.763134
30
0.0
11
573.456497
21
347.502045
31
0.0
0
LINE
8
VISIBLE
10
573.456497
20
347.502045
30
0.0
11
573.713626
21
349.936908
31
0.0
0
LINE
8
VISIBLE
10
573.713626
20
349.936908
30
0.0
11
573.132648
21
353.588310
31
0.0
0
LINE
8
VISIBLE
10
573.132648
20
353.588310
30
0.0
11
571.372107
21
357.172989
31
0.0
0
LINE
8
VISIBLE
10
571.372107
20
357.172989
30
0.0
11
568.346083
21
360.642721
31
0.0
0
LINE
8
VISIBLE
10
568.346083
20
360.642721
30
0.0
11
563.954345
21
363.869084
31
0.0
0
LINE
8
VISIBLE
10
563.954345
20
363.869084
30
0.0
11
558.174863
21
366.643798
31
0.0
0
LINE
8
VISIBLE
10
558.174863
20
366.643798
30
0.0
11
551.144673
21
368.712271
31
0.0
0
LINE
8
VISIBLE
10
551.144673
20
368.712271
30
0.0
11
543.202905
21
369.831392
31
0.0
0
LINE
8
VISIBLE
10
543.202905
20
369.831392
30
0.0
11
534.873405
21
369.836716
31
0.0
0
LINE
8
VISIBLE
10
534.873405
20
369.836716
30
0.0
11
526.780802
21
368.696147
31
0.0
0
LINE
8
VISIBLE
10
526.780802
20
368.696147
30
0.0
11
519.523007
21
366.526891
31
0.0
0
LINE
8
VISIBLE
10
519.523007
20
366.526891
30
0.0
11
513.547971
21
363.565678
31
0.0
0
LINE
8
VISIBLE
10
513.547971
20
363.565678
30
0.0
11
509.083656
21
360.102999
31
0.0
0
LINE
8
VISIBLE
10
509.083656
20
360.102999
30
0.0
11
506.145211
21
356.407321
31
0.0
0
LINE
8
VISIBLE
10
506.145211
20
356.407321
30
0.0
11
504.609931
21
352.666929
31
0.0
0
LINE
8
VISIBLE
10
504.609931
20
352.666929
30
0.0
11
504.286374
21
349.936908
31
0.0
0
LINE
8
VISIBLE
10
504.286374
20
349.936908
30
0.0
11
504.867352
21
346.285507
31
0.0
0
LINE
8
VISIBLE
10
504.867352
20
346.285507
30
0.0
11
506.627893
21
342.700828
31
0.0
0
LINE
8
VISIBLE
10
506.627893
20
342.700828
30
0.0
11
509.653917
21
339.231096
31
0.0
0
LINE
8
VISIBLE
10
509.653917
20
339.231096
30
0.0
11
514.453759
21
335.765130
31
0.0
0
LINE
8
VISIBLE
10
554.354104
20
349.936908
30
0.0
11
553.775173
21
352.348186
31
0.0
0
LINE
8
VISIBLE
10
553.775173
20
352.348186
30
0.0
11
552.003699
21
354.650446
31
0.0
0
LINE
8
VISIBLE
10
552.003699
20
354.650446
30
0.0
11
548.915137
21
356.705428
31
0.0
0
LINE
8
VISIBLE
10
548.915137
20
356.705428
30
0.0
11
544.521152
21
358.208655
31
0.0
0
LINE
8
VISIBLE
10
544.521152
20
358.208655
30
0.0
11
539.205023
21
358.800814
31
0.0
0
LINE
8
VISIBLE
10
539.205023
20
358.800814
30
0.0
11
533.746822
21
358.266627
31
0.0
0
LINE
8
VISIBLE
10
533.746822
20
358.266627
30
0.0
11
529.056450
21
356.691520
31
0.0
0
LINE
8
VISIBLE
10
529.056450
20
356.691520
30
0.0
11
525.770514
21
354.436138
31
0.0
0
LINE
8
VISIBLE
10
525.770514
20
354.436138
30
0.0
11
524.038735
21
351.929317
31
0.0
0
LINE
8
VISIBLE
10
524.038735
20
351.929317
30
0.0
11
523.645896
21
349.936908
31
0.0
0
LINE
8
VISIBLE
10
528.143009
20
338.217938
30
0.0
11
532.213925
21
336.534334
31
0.0
0
LINE
8
VISIBLE
10
532.213925
20
336.534334
30
0.0
11
537.350003
21
335.672863
31
0.0
0
LINE
8
VISIBLE
10
537.350003
20
335.672863
30
0.0
11
542.860842
21
335.906356
31
0.0
0
LINE
8
VISIBLE
10
542.860842
20
335.906356
30
0.0
11
547.831715
21
337.234803
31
0.0
0
LINE
8
VISIBLE
10
547.831715
20
337.234803
30
0.0
11
551.520505
21
339.355095
31
0.0
0
LINE
8
VISIBLE
10
551.520505
20
339.355095
30
0.0
11
553.649499
21
341.831626
31
0.0
0
LINE
8
VISIBLE
10
553.649499
20
341.831626
30
0.0
11
554.354104
21
344.486224
31
0.0
0
LINE
8
VISIBLE
10
554.354104
20
344.486224
30
0.0
11
553.775173
21
346.897502
31
0.0
0
LINE
8
VISIBLE
10
553.775173
20
346.897502
30
0.0
11
552.003699
21
349.199762
31
0.0
0
LINE
8
VISIBLE
10
552.003699
20
349.199762
30
0.0
11
548.915137
21
351.254744
31
0.0
0
LINE
8
VISIBLE
10
548.915137
20
351.254744
30
0.0
11
544.521152
21
352.757971
31
0.0
0
LINE
8
VISIBLE
10
544.521152
20
352.757971
30
0.0
11
539.205023
21
353.350130
31
0.0
0
LINE
8
VISIBLE
10
539.205023
20
353.350130
30
0.0
11
533.746822
21
352.815943
31
0.0
0
LINE
8
VISIBLE
10
533.746822
20
352.815943
30
0.0
11
529.056450
21
351.240836
31
0.0
0
LINE
8
VISIBLE
10
529.056450
20
351.240836
30
0.0
11
525.770514
21
348.985454
31
0.0
0
LINE
8
VISIBLE
10
525.770514
20
348.985454
30
0.0
11
524.038735
21
346.478633
31
0.0
0
LINE
8
VISIBLE
10
524.038735
20
346.478633
30
0.0
11
523.645896
21
344.486224
31
0.0
0
LINE
8
VISIBLE
10
523.645896
20
344.486224
30
0.0
11
524.224827
21
342.074947
31
0.0
0
LINE
8
VISIBLE
10
524.224827
20
342.074947
30
0.0
11
525.996301
21
339.772686
31
0.0
0
LINE
8
VISIBLE
10
525.996301
20
339.772686
30
0.0
11
528.143009
21
338.217938
31
0.0
0
LINE
8
VISIBLE
10
529.181504
20
338.817513
30
0.0
11
533.074267
21
337.236134
31
0.0
0
LINE
8
VISIBLE
10
533.074267
20
337.236134
30
0.0
11
538.003863
21
336.490112
31
0.0
0
LINE
8
VISIBLE
10
538.003863
20
336.490112
30
0.0
11
543.224174
21
336.849425
31
0.0
0
LINE
8
VISIBLE
10
543.224174
20
336.849425
30
0.0
11
547.777823
21
338.274527
31
0.0
0
LINE
8
VISIBLE
10
547.777823
20
338.274527
30
0.0
11
550.954911
21
340.408404
31
0.0
0
LINE
8
VISIBLE
10
550.954911
20
340.408404
30
0.0
11
552.574253
21
342.798486
31
0.0
0
LINE
8
VISIBLE
10
552.574253
20
342.798486
30
0.0
11
552.885451
21
344.486224
31
0.0
0
LINE
8
VISIBLE
10
552.885451
20
344.486224
30
0.0
11
552.306907
21
346.776200
31
0.0
0
LINE
8
VISIBLE
10
552.306907
20
346.776200
30
0.0
11
550.533948
21
348.949922
31
0.0
0
LINE
8
VISIBLE
10
550.533948
20
348.949922
30
0.0
11
547.441451
21
350.851433
31
0.0
0
LINE
8
VISIBLE
10
547.441451
20
350.851433
30
0.0
11
543.080126
21
352.149085
31
0.0
0
LINE
8
VISIBLE
10
543.080126
20
352.149085
30
0.0
11
537.926457
21
352.478997
31
0.0
0
LINE
8
VISIBLE
10
537.926457
20
352.478997
30
0.0
11
532.857302
21
351.675869
31
0.0
0
LINE
8
VISIBLE
10
532.857302
20
351.675869
30
0.0
11
528.787250
21
349.917783
31
0.0
0
LINE
8
VISIBLE
10
528.787250
20
349.917783
30
0.0
11
526.230241
21
347.634715
31
0.0
0
LINE
8
VISIBLE
10
526.230241
20
347.634715
30
0.0
11
525.114549
21
344.486224
31
0.0
0
LINE
8
VISIBLE
10
525.114549
20
344.486224
30
0.0
11
525.693093
21
342.196249
31
0.0
0
LINE
8
VISIBLE
10
525.693093
20
342.196249
30
0.0
11
527.466052
21
340.022527
31
0.0
0
LINE
8
VISIBLE
10
527.466052
20
340.022527
30
0.0
11
529.181504
21
338.817513
31
0.0
0
LINE
8
VISIBLE
10
529.181504
20
340.986885
30
0.0
11
533.074267
21
339.405506
31
0.0
0
LINE
8
VISIBLE
10
533.074267
20
339.405506
30
0.0
11
538.003863
21
338.659484
31
0.0
0
LINE
8
VISIBLE
10
538.003863
20
338.659484
30
0.0
11
543.224174
21
339.018798
31
0.0
0
LINE
8
VISIBLE
10
543.224174
20
339.018798
30
0.0
11
547.777823
21
340.443899
31
0.0
0
LINE
8
VISIBLE
10
547.777823
20
340.443899
30
0.0
11
550.954911
21
342.577777
31
0.0
0
LINE
8
VISIBLE
10
550.954911
20
342.577777
30
0.0
11
552.757765
21
345.570910
31
0.0
0
LINE
8
VISIBLE
10
525.242235
20
345.570910
30
0.0
11
526.367148
21
343.328096
31
0.0
0
LINE
8
VISIBLE
10
526.367148
20
343.328096
30
0.0
11
529.181504
21
340.986885
31
0.0
0
LINE
8
VISIBLE
10
529.181504
20
338.817513
30
0.0
11
529.181504
21
340.986885
31
0.0
0
LINE
8
VISIBLE
10
504.286374
20
349.936908
30
0.0
11
504.286374
21
376.100192
31
0.0
0
LINE
8
VISIBLE
10
573.713626
20
349.936908
30
0.0
11
573.713626
21
376.100192
31
0.0
0
LINE
8
VISIBLE
10
523.645896
20
344.486224
30
0.0
11
523.645896
21
349.936908
31
0.0
0
LINE
8
VISIBLE
10
554.354104
20
344.486224
30
0.0
11
554.354104
21
349.936908
31
0.0
0
LINE
8
VISIBLE
10
94.259784
20
69.670000
30
0.0
11
17.740216
21
69.670000
31
0.0
0
LINE
8
VISIBLE
10
58.765000
20
57.170000
30
0.0
11
16.008612
21
57.170000
31
0.0
0
LINE
8
VISIBLE
10
58.765000
20
57.170000
30
0.0
11
58.765000
21
69.670000
31
0.0
0
CIRCLE
8
SECTION
10
56.000000
20
58.000000
30
0.0
40
40.000000
0
LINE
8
DIM
10
136.000000
20
136.800000
30
0.0
11
136.000000
21
115.000000
31
0.0
0
LINE
8
DIM
10
188.000000
20
136.800000
30
0.0
11
188.000000
21
115.000000
31
0.0
0
LINE
8
DIM
10
136.000000
20
117.000000
30
0.0
11
188.000000
21
117.000000
31
0.0
0
SOLID
8
DIM
10
136.000000
20
117.000000
30
0.0
11
139.200000
21
116.392000
31
0.0
12
139.200000
22
117.608000
32
0.0
13
139.200000
23
117.608000
33
0.0
0
SOLID
8
DIM
10
188.000000
20
117.000000
30
0.0
11
184.800000
21
117.608000
31
0.0
12
184.800000
22
116.392000
32
0.0
13
184.800000
23
116.392000
33
0.0
0
TEXT
8
TEXT
10
162.000000
20
118.000000
30
0.0
40
2.5000
1
26.00
72
1
73
0
11
162.000000
21
118.000000
31
0.0
0
LINE
8
DIM
10
134.800000
20
138.000000
30
0.0
11
113.000000
21
138.000000
31
0.0
0
LINE
8
DIM
10
134.800000
20
167.000000
30
0.0
11
113.000000
21
167.000000
31
0.0
0
LINE
8
DIM
10
115.000000
20
138.000000
30
0.0
11
115.000000
21
167.000000
31
0.0
0
SOLID
8
DIM
10
115.000000
20
138.000000
30
0.0
11
115.608000
21
141.200000
31
0.0
12
114.392000
22
141.200000
32
0.0
13
114.392000
23
141.200000
33
0.0
0
SOLID
8
DIM
10
115.000000
20
167.000000
30
0.0
11
114.392000
21
163.800000
31
0.0
12
115.608000
22
163.800000
32
0.0
13
115.608000
23
163.800000
33
0.0
0
TEXT
8
TEXT
10
114.000000
20
152.500000
30
0.0
40
2.5000
1
14.50
50
90.0000
72
1
73
0
11
114.000000
21
152.500000
31
0.0
0
TEXT
8
TEXT
10
162.000000
20
105.000000
30
0.0
40
4.0000
1
FRONT VIEW
72
1
73
0
11
162.000000
21
105.000000
31
0.0
0
LINE
8
TEXT
10
150.000000
20
103.400000
30
0.0
11
174.000000
21
103.400000
31
0.0
0
TEXT
8
TEXT
10
162.000000
20
99.000000
30
0.0
40
2.4000
1
-X →   Z ↑
72
1
73
0
11
162.000000
21
99.000000
31
0.0
0
LINE
8
CENTER
10
150.000000
20
256.000000
30
0.0
11
160.800000
21
256.000000
31
0.0
0
LINE
8
CENTER
10
163.200000
20
256.000000
30
0.0
11
174.000000
21
256.000000
31
0.0
0
LINE
8
CENTER
10
162.000000
20
244.000000
30
0.0
11
162.000000
21
254.800000
31
0.0
0
LINE
8
CENTER
10
162.000000
20
257.200000
30
0.0
11
162.000000
21
268.000000
31
0.0
0
LINE
8
DIM
10
136.000000
20
228.800000
30
0.0
11
136.000000
21
216.000000
31
0.0
0
LINE
8
DIM
10
188.000000
20
228.800000
30
0.0
11
188.000000
21
216.000000
31
0.0
0
LINE
8
DIM
10
136.000000
20
218.000000
30
0.0
11
188.000000
21
218.000000
31
0.0
0
SOLID
8
DIM
10
136.000000
20
218.000000
30
0.0
11
139.200000
21
217.392000
31
0.0
12
139.200000
22
218.608000
32
0.0
13
139.200000
23
218.608000
33
0.0
0
SOLID
8
DIM
10
188.000000
20
218.000000
30
0.0
11
184.800000
21
218.608000
31
0.0
12
184.800000
22
217.392000
32
0.0
13
184.800000
23
217.392000
33
0.0
0
TEXT
8
TEXT
10
162.000000
20
219.000000
30
0.0
40
2.5000
1
26.00
72
1
73
0
11
162.000000
21
219.000000
31
0.0
0
LINE
8
DIM
10
134.800000
20
230.000000
30
0.0
11
122.000000
21
230.000000
31
0.0
0
LINE
8
DIM
10
134.800000
20
282.000000
30
0.0
11
122.000000
21
282.000000
31
0.0
0
LINE
8
DIM
10
124.000000
20
230.000000
30
0.0
11
124.000000
21
282.000000
31
0.0
0
SOLID
8
DIM
10
124.000000
20
230.000000
30
0.0
11
124.608000
21
233.200000
31
0.0
12
123.392000
22
233.200000
32
0.0
13
123.392000
23
233.200000
33
0.0
0
SOLID
8
DIM
10
124.000000
20
282.000000
30
0.0
11
123.392000
21
278.800000
31
0.0
12
124.608000
22
278.800000
32
0.0
13
124.608000
23
278.800000
33
0.0
0
TEXT
8
TEXT
10
123.000000
20
256.000000
30
0.0
40
2.5000
1
26.00
50
90.0000
72
1
73
0
11
123.000000
21
256.000000
31
0.0
0
SOLID
8
DIM
10
168.402879
20
264.195312
30
0.0
11
170.852107
21
266.342624
31
0.0
12
169.893886
22
267.091268
32
0.0
13
169.893886
23
267.091268
33
0.0
0
LINE
8
DIM
10
168.402879
20
264.195312
30
0.0
11
187.782426
21
289.000000
31
0.0
0
LINE
8
DIM
10
187.782426
20
289.000000
30
0.0
11
192.782426
21
289.000000
31
0.0
0
TEXT
8
TEXT
10
193.582426
20
290.000000
30
0.0
40
2.5000
1
Ø10.40 x 0.99 DP
0
SOLID
8
DIM
10
136.000000
20
256.000000
30
0.0
11
134.408835
21
258.842157
31
0.0
12
133.477325
22
258.060527
32
0.0
13
133.477325
23
258.060527
33
0.0
0
LINE
8
DIM
10
136.000000
20
256.000000
30
0.0
11
129.572124
21
263.660444
31
0.0
0
LINE
8
DIM
10
129.572124
20
263.660444
30
0.0
11
126.572124
21
263.660444
31
0.0
0
TEXT
8
TEXT
10
125.772124
20
264.660444
30
0.0
40
2.5000
1
R13.00
72
2
73
0
11
125.772124
21
264.660444
31
0.0
0
SOLID
8
DIM
10
150.500000
20
256.000000
30
0.0
11
147.300000
21
256.608000
31
0.0
12
147.300000
22
255.392000
32
0.0
13
147.300000
23
255.392000
33
0.0
0
LINE
8
DIM
10
150.500000
20
256.000000
30
0.0
11
140.500000
21
256.000000
31
0.0
0
LINE
8
DIM
10
140.500000
20
256.000000
30
0.0
11
137.500000
21
256.000000
31
0.0
0
TEXT
8
TEXT
10
136.700000
20
257.000000
30
0.0
40
2.5000
1
R5.75
72
2
73
0
11
136.700000
21
257.000000
31
0.0
0
SOLID
8
DIM
10
151.600000
20
256.000000
30
0.0
11
148.442863
21
255.198657
31
0.0
12
148.956767
22
254.096586
32
0.0
13
148.956767
23
254.096586
33
0.0
0
LINE
8
DIM
10
151.600000
20
256.000000
30
0.0
11
142.536922
21
251.773817
31
0.0
0
LINE
8
DIM
10
142.536922
20
251.773817
30
0.0
11
139.536922
21
251.773817
31
0.0
0
TEXT
8
TEXT
10
138.736922
20
252.773817
30
0.0
40
2.5000
1
R5.20
72
2
73
0
11
138.736922
21
252.773817
31
0.0
0
TEXT
8
TEXT
10
162.000000
20
206.000000
30
0.0
40
4.0000
1
TOP VIEW
72
1
73
0
11
162.000000
21
206.000000
31
0.0
0
LINE
8
TEXT
10
152.400000
20
204.400000
30
0.0
11
171.600000
21
204.400000
31
0.0
0
TEXT
8
TEXT
10
162.000000
20
200.000000
30
0.0
40
2.4000
1
X →   Y ↑
72
1
73
0
11
162.000000
21
200.000000
31
0.0
0
LINE
8
DIM
10
226.000000
20
136.800000
30
0.0
11
226.000000
21
124.000000
31
0.0
0
LINE
8
DIM
10
278.000000
20
136.800000
30
0.0
11
278.000000
21
124.000000
31
0.0
0
LINE
8
DIM
10
226.000000
20
126.000000
30
0.0
11
278.000000
21
126.000000
31
0.0
0
SOLID
8
DIM
10
226.000000
20
126.000000
30
0.0
11
229.200000
21
125.392000
31
0.0
12
229.200000
22
126.608000
32
0.0
13
229.200000
23
126.608000
33
0.0
0
SOLID
8
DIM
10
278.000000
20
126.000000
30
0.0
11
274.800000
21
126.608000
31
0.0
12
274.800000
22
125.392000
32
0.0
13
274.800000
23
125.392000
33
0.0
0
TEXT
8
TEXT
10
252.000000
20
127.000000
30
0.0
40
2.5000
1
26.00
72
1
73
0
11
252.000000
21
127.000000
31
0.0
0
LINE
8
DIM
10
224.800000
20
138.000000
30
0.0
11
212.000000
21
138.000000
31
0.0
0
LINE
8
DIM
10
224.800000
20
167.000000
30
0.0
11
212.000000
21
167.000000
31
0.0
0
LINE
8
DIM
10
214.000000
20
138.000000
30
0.0
11
214.000000
21
167.000000
31
0.0
0
SOLID
8
DIM
10
214.000000
20
138.000000
30
0.0
11
214.608000
21
141.200000
31
0.0
12
213.392000
22
141.200000
32
0.0
13
213.392000
23
141.200000
33
0.0
0
SOLID
8
DIM
10
214.000000
20
167.000000
30
0.0
11
213.392000
21
163.800000
31
0.0
12
214.608000
22
163.800000
32
0.0
13
214.608000
23
163.800000
33
0.0
0
TEXT
8
TEXT
10
213.000000
20
152.500000
30
0.0
40
2.5000
1
14.50
50
90.0000
72
1
73
0
11
213.000000
21
152.500000
31
0.0
0
TEXT
8
TEXT
10
252.000000
20
114.000000
30
0.0
40
4.0000
1
RIGHT VIEW
72
1
73
0
11
252.000000
21
114.000000
31
0.0
0
LINE
8
TEXT
10
240.000000
20
112.400000
30
0.0
11
264.000000
21
112.400000
31
0.0
0
TEXT
8
TEXT
10
252.000000
20
108.000000
30
0.0
40
2.4000
1
-Y →   Z ↑
72
1
73
0
11
252.000000
21
108.000000
31
0.0
0
LINE
8
DIM
10
316.000000
20
136.800000
30
0.0
11
316.000000
21
124.000000
31
0.0
0
LINE
8
DIM
10
368.000000
20
136.800000
30
0.0
11
368.000000
21
124.000000
31
0.0
0
LINE
8
DIM
10
316.000000
20
126.000000
30
0.0
11
368.000000
21
126.000000
31
0.0
0
SOLID
8
DIM
10
316.000000
20
126.000000
30
0.0
11
319.200000
21
125.392000
31
0.0
12
319.200000
22
126.608000
32
0.0
13
319.200000
23
126.608000
33
0.0
0
SOLID
8
DIM
10
368.000000
20
126.000000
30
0.0
11
364.800000
21
126.608000
31
0.0
12
364.800000
22
125.392000
32
0.0
13
364.800000
23
125.392000
33
0.0
0
TEXT
8
TEXT
10
342.000000
20
127.000000
30
0.0
40
2.5000
1
26.00
72
1
73
0
11
342.000000
21
127.000000
31
0.0
0
LINE
8
DIM
10
314.800000
20
138.000000
30
0.0
11
302.000000
21
138.000000
31
0.0
0
LINE
8
DIM
10
314.800000
20
167.000000
30
0.0
11
302.000000
21
167.000000
31
0.0
0
LINE
8
DIM
10
304.000000
20
138.000000
30
0.0
11
304.000000
21
167.000000
31
0.0
0
SOLID
8
DIM
10
304.000000
20
138.000000
30
0.0
11
304.608000
21
141.200000
31
0.0
12
303.392000
22
141.200000
32
0.0
13
303.392000
23
141.200000
33
0.0
0
SOLID
8
DIM
10
304.000000
20
167.000000
30
0.0
11
303.392000
21
163.800000
31
0.0
12
304.608000
22
163.800000
32
0.0
13
304.608000
23
163.800000
33
0.0
0
TEXT
8
TEXT
10
303.000000
20
152.500000
30
0.0
40
2.5000
1
14.50
50
90.0000
72
1
73
0
11
303.000000
21
152.500000
31
0.0
0
LINE
8
HATCH
10
367.999997
20
143.000000
30
0.0
11
368.000000
21
143.000003
31
0.0
0
LINE
8
HATCH
10
363.757356
20
143.000000
30
0.0
11
368.000000
21
147.242644
31
0.0
0
LINE
8
HATCH
10
359.514716
20
143.000000
30
0.0
11
368.000000
21
151.485284
31
0.0
0
LINE
8
HATCH
10
352.262075
20
139.990000
30
0.0
11
353.500000
21
141.227925
31
0.0
0
LINE
8
HATCH
10
355.272075
20
143.000000
30
0.0
11
368.000000
21
155.727925
31
0.0
0
LINE
8
HATCH
10
348.019434
20
139.990000
30
0.0
11
368.000000
21
159.970566
31
0.0
0
LINE
8
HATCH
10
343.776794
20
139.990000
30
0.0
11
368.000000
21
164.213206
31
0.0
0
LINE
8
HATCH
10
339.534153
20
139.990000
30
0.0
11
366.544153
21
167.000000
31
0.0
0
LINE
8
HATCH
10
335.291512
20
139.990000
30
0.0
11
362.301512
21
167.000000
31
0.0
0
LINE
8
HATCH
10
330.500000
20
139.441128
30
0.0
11
358.058872
21
167.000000
31
0.0
0
LINE
8
HATCH
10
329.816231
20
143.000000
30
0.0
11
353.816231
21
167.000000
31
0.0
0
LINE
8
HATCH
10
325.573590
20
143.000000
30
0.0
11
349.573590
21
167.000000
31
0.0
0
LINE
8
HATCH
10
321.330950
20
143.000000
30
0.0
11
345.330950
21
167.000000
31
0.0
0
LINE
8
HATCH
10
317.088309
20
143.000000
30
0.0
11
341.088309
21
167.000000
31
0.0
0
LINE
8
HATCH
10
316.000000
20
146.154332
30
0.0
11
336.845668
21
167.000000
31
0.0
0
LINE
8
HATCH
10
316.000000
20
150.396972
30
0.0
11
332.603028
21
167.000000
31
0.0
0
LINE
8
HATCH
10
316.000000
20
154.639613
30
0.0
11
328.360387
21
167.000000
31
0.0
0
LINE
8
HATCH
10
316.000000
20
158.882254
30
0.0
11
324.117746
21
167.000000
31
0.0
0
LINE
8
HATCH
10
316.000000
20
163.124895
30
0.0
11
319.875105
21
167.000000
31
0.0
0
LINE
8
DIM
10
352.400000
20
141.133335
30
0.0
11
352.400000
21
176.000000
31
0.0
0
LINE
8
DIM
10
353.500000
20
141.133335
30
0.0
11
353.500000
21
176.000000
31
0.0
0
LINE
8
DIM
10
352.400000
20
174.000000
30
0.0
11
353.500000
21
174.000000
31
0.0
0
SOLID
8
DIM
10
352.400000
20
174.000000
30
0.0
11
349.200000
21
174.608000
31
0.0
12
349.200000
22
173.392000
32
0.0
13
349.200000
23
173.392000
33
0.0
0
SOLID
8
DIM
10
353.500000
20
174.000000
30
0.0
11
356.700000
21
173.392000
31
0.0
12
356.700000
22
174.608000
32
0.0
13
356.700000
23
174.608000
33
0.0
0
LINE
8
DIM
10
353.500000
20
174.000000
30
0.0
11
363.100000
21
174.000000
31
0.0
0
TEXT
8
TEXT
10
363.900000
20
174.400000
30
0.0
40
2.5000
1
0.55 WALL
0
LINE
8
DIM
10
368.766665
20
143.000000
30
0.0
11
379.000000
21
143.000000
31
0.0
0
LINE
8
DIM
10
368.766665
20
167.000000
30
0.0
11
379.000000
21
167.000000
31
0.0
0
LINE
8
DIM
10
377.000000
20
143.000000
30
0.0
11
377.000000
21
167.000000
31
0.0
0
SOLID
8
DIM
10
377.000000
20
143.000000
30
0.0
11
377.608000
21
146.200000
31
0.0
12
376.392000
22
146.200000
32
0.0
13
376.392000
23
146.200000
33
0.0
0
SOLID
8
DIM
10
377.000000
20
167.000000
30
0.0
11
376.392000
21
163.800000
31
0.0
12
377.608000
22
163.800000
32
0.0
13
377.608000
23
163.800000
33
0.0
0
TEXT
8
TEXT
10
376.000000
20
155.000000
30
0.0
40
2.5000
1
12.00 WALL
50
90.0000
72
1
73
0
11
376.000000
21
155.000000
31
0.0
0
TEXT
8
TEXT
10
342.000000
20
114.000000
30
0.0
40
4.0000
1
SECTION A-A
72
1
73
0
11
342.000000
21
114.000000
31
0.0
0
LINE
8
TEXT
10
328.800000
20
112.400000
30
0.0
11
355.200000
21
112.400000
31
0.0
0
TEXT
8
TEXT
10
539.000000
20
324.000000
30
0.0
40
4.0000
1
ISOMETRIC VIEW
72
1
73
0
11
539.000000
21
324.000000
31
0.0
0
LINE
8
TEXT
10
522.200000
20
322.400000
30
0.0
11
555.800000
21
322.400000
31
0.0
0
TEXT
8
TEXT
10
539.000000
20
318.000000
30
0.0
40
2.6000
1
26.00 x 26.00 x 14.50 mm
72
1
73
0
11
539.000000
21
318.000000
31
0.0
0
TEXT
8
TEXT
10
56.000000
20
103.000000
30
0.0
40
4.0000
1
DETAIL A
72
1
73
0
11
56.000000
21
103.000000
31
0.0
0
LINE
8
TEXT
10
46.400000
20
101.400000
30
0.0
11
65.600000
21
101.400000
31
0.0
0
TEXT
8
TEXT
10
56.000000
20
108.500000
30
0.0
40
2.8000
1
SCALE 5:1
72
1
73
0
11
56.000000
21
108.500000
31
0.0
0
LINE
8
CUT
10
162.000000
20
129.000000
30
0.0
11
162.000000
21
142.160000
31
0.0
0
LINE
8
CUTTHIN
10
162.000000
20
142.160000
30
0.0
11
162.000000
21
162.840000
31
0.0
0
LINE
8
CUT
10
162.000000
20
162.840000
30
0.0
11
162.000000
21
176.000000
31
0.0
0
LINE
8
CUT
10
162.000000
20
129.000000
30
0.0
11
171.000000
21
129.000000
31
0.0
0
SOLID
8
CUT
10
171.000000
20
129.000000
30
0.0
11
166.800000
21
129.798000
31
0.0
12
166.800000
22
128.202000
32
0.0
13
166.800000
23
128.202000
33
0.0
0
TEXT
8
TEXT
10
157.000000
20
129.000000
30
0.0
40
4.0000
1
A
72
1
73
2
11
157.000000
21
129.000000
31
0.0
0
LINE
8
CUT
10
162.000000
20
176.000000
30
0.0
11
171.000000
21
176.000000
31
0.0
0
SOLID
8
CUT
10
171.000000
20
176.000000
30
0.0
11
166.800000
21
176.798000
31
0.0
12
166.800000
22
175.202000
32
0.0
13
166.800000
23
175.202000
33
0.0
0
TEXT
8
TEXT
10
157.000000
20
176.000000
30
0.0
40
4.0000
1
A
72
1
73
2
11
157.000000
21
176.000000
31
0.0
0
CIRCLE
8
CENTER
10
172.394000
20
138.332000
30
0.0
40
16.000000
0
TEXT
8
TEXT
10
189.894000
20
155.832000
30
0.0
40
4.0000
1
A
0
TEXT
8
TEXT
10
496.000000
20
304.000000
30
0.0
40
3.0000
1
NOTES
0
TEXT
8
TEXT
10
496.000000
20
299.400000
30
0.0
40
2.4000
1
1. ALL DIMENSIONS IN mm AND DEGREES. EVERY DIMENSION AND
0
TEXT
8
TEXT
10
496.000000
20
295.680000
30
0.0
40
2.4000
1
   EVERY HOLE CALLOUT WAS MEASURED OFF THE SOLID.
0
TEXT
8
TEXT
10
496.000000
20
291.960000
30
0.0
40
2.4000
1
2. THINNEST WALL, WHOLE SOLID (RAY MINIMUM): 0.5500 mm, AT
0
TEXT
8
TEXT
10
496.000000
20
288.240000
30
0.0
40
2.4000
1
   X=-5.197 Y=-0.130 Z=0.166 — MEASURED OVER THE WHOLE
0
TEXT
8
TEXT
10
496.000000
20
284.520000
30
0.0
40
2.4000
1
   SOLID BY RAY+EXACT AT 0.6010 mm SAMPLE SPACING (A
0
TEXT
8
TEXT
10
496.000000
20
280.800000
30
0.0
40
2.4000
1
   FEATURE NARROWER THAN THAT CAN BE MISSED). THIS IS A
0
TEXT
8
TEXT
10
496.000000
20
277.080000
30
0.0
40
2.4000
1
   DISTANCE THROUGH MATERIAL, NOT A WALL: AT AN EDGE, A
0
TEXT
8
TEXT
10
496.000000
20
273.360000
30
0.0
40
2.4000
1
   FILLET RUN-OUT OR A CHAMFER TIP IT IS REAL AND
0
TEXT
8
TEXT
10
496.000000
20
269.640000
30
0.0
40
2.4000
1
   UNPRINTABLE BY DEFINITION. DO NOT JUDGE PRINTABILITY BY
0
TEXT
8
TEXT
10
496.000000
20
265.920000
30
0.0
40
2.4000
1
   IT — THE NEXT NOTE IS THE ONE THAT DOES.
0
TEXT
8
TEXT
10
496.000000
20
262.200000
30
0.0
40
2.4000
1
3. PRINTABLE MINIMUM WALL: 0.5498 mm, AT X=-5.243 Y=-1.572
0
TEXT
8
TEXT
10
496.000000
20
258.480000
30
0.0
40
2.4000
1
   Z=0.000 — MEASURED AS THE SMALLEST MEDIAN WALL OVER A
0
TEXT
8
TEXT
10
496.000000
20
254.760000
30
0.0
40
2.4000
1
   NEIGHBOURHOOD OF 1.8020 mm (>= 8 SAMPLES), RAYS CAPPED
0
TEXT
8
TEXT
10
496.000000
20
251.040000
30
0.0
40
2.4000
1
   AT 4.000 mm, BY cecad.inspect.printable_wall_detail.
0
TEXT
8
TEXT
10
496.000000
20
247.320000
30
0.0
40
2.4000
1
   AGAINST THE 0.8000 mm FLOOR (2 PERIMETERS @ 0.4 mm
0
TEXT
8
TEXT
10
496.000000
20
243.600000
30
0.0
40
2.4000
1
   NOZZLE, cecad/printed.py:801): VERDICT FAIL — THIS
0
TEXT
8
TEXT
10
496.000000
20
239.880000
30
0.0
40
2.4000
1
   REGION IS BELOW THE FLOOR AND WILL NOT PRINT SOLID:
0
TEXT
8
TEXT
10
496.000000
20
236.160000
30
0.0
40
2.4000
1
   THICKEN IT, OR PRINT WITH A SMALLER NOZZLE AND SAY SO
0
TEXT
8
TEXT
10
496.000000
20
232.440000
30
0.0
40
2.4000
1
   ON THE ROUTE CARD.
0
TEXT
8
TEXT
10
496.000000
20
228.720000
30
0.0
40
2.4000
1
4. GENERAL TOLERANCE: CANNOT DETERMINE — THIS PART
0
TEXT
8
TEXT
10
496.000000
20
225.000000
30
0.0
40
2.4000
1
   DECLARES NO PROCESS THIS REPO CAN READ.
0
TEXT
8
TEXT
10
496.000000
20
221.280000
30
0.0
40
2.4000
1
5. SECTION A-A AT X=0.00: THINNEST MATERIAL IN THIS PLANE
0
TEXT
8
TEXT
10
496.000000
20
217.560000
30
0.0
40
2.4000
1
   ONLY 0.55 mm, AT Y=5.48, Z=0.97 — A SCAN OF ONE CUT,
0
TEXT
8
TEXT
10
496.000000
20
213.840000
30
0.0
40
2.4000
1
   NOT THE PART MINIMUM.
0
TEXT
8
TEXT
10
496.000000
20
210.120000
30
0.0
40
2.4000
1
6. FRONT VIEW: hidden lines SUPPRESSED: all 37 edge
0
TEXT
8
TEXT
10
496.000000
20
206.400000
30
0.0
40
2.4000
1
   samples still land on drawn ink without them.
0
TEXT
8
TEXT
10
496.000000
20
202.680000
30
0.0
40
2.4000
1
7. TOP VIEW: hidden lines SUPPRESSED: all 45 edge samples
0
TEXT
8
TEXT
10
496.000000
20
198.960000
30
0.0
40
2.4000
1
   still land on drawn ink without them.
0
TEXT
8
TEXT
10
496.000000
20
195.240000
30
0.0
40
2.4000
1
8. RIGHT VIEW: hidden lines SUPPRESSED: all 41 edge
0
TEXT
8
TEXT
10
496.000000
20
191.520000
30
0.0
40
2.4000
1
   samples still land on drawn ink without them.
0
TEXT
8
TEXT
10
496.000000
20
183.800000
30
0.0
40
3.0000
1
PRINT / DFM
0
TEXT
8
TEXT
10
496.000000
20
179.200000
30
0.0
40
2.4000
1
1. ORIENTATION: laid flat (26 x 26 x 14 mm)
0
TEXT
8
TEXT
10
496.000000
20
175.480000
30
0.0
40
2.4000
1
2. THINNEST WALL, WHOLE SOLID (RAY MINIMUM): 0.5500 mm — a
0
TEXT
8
TEXT
10
496.000000
20
171.760000
30
0.0
40
2.4000
1
   distance through material, NOT a printable wall where
0
TEXT
8
TEXT
10
496.000000
20
168.040000
30
0.0
40
2.4000
1
   it falls on an edge, a fillet run-out or a chamfer tip.
0
TEXT
8
TEXT
10
496.000000
20
164.320000
30
0.0
40
2.4000
1
   Printability is judged on the next line.
0
TEXT
8
TEXT
10
496.000000
20
160.600000
30
0.0
40
2.4000
1
3. PRINTABLE MINIMUM WALL: 0.5498 mm (smallest median wall
0
TEXT
8
TEXT
10
496.000000
20
156.880000
30
0.0
40
2.4000
1
   over a 1.8020 mm neighbourhood,
0
TEXT
8
TEXT
10
496.000000
20
153.160000
30
0.0
40
2.4000
1
   cecad.inspect.printable_wall_detail) against a 0.8000
0
TEXT
8
TEXT
10
496.000000
20
149.440000
30
0.0
40
2.4000
1
   mm floor (2 perimeters @ 0.4 mm nozzle): VERDICT FAIL —
0
TEXT
8
TEXT
10
496.000000
20
145.720000
30
0.0
40
2.4000
1
   thicken this region or print it with a smaller nozzle
0
TEXT
8
TEXT
10
496.000000
20
142.000000
30
0.0
40
2.4000
1
   and say so on the route card.
0
TEXT
8
TEXT
10
496.000000
20
138.280000
30
0.0
40
2.4000
1
4. FILAMENT: PLA, ~3 g (modelled), 73 layers @ 0.2 mm
0
LINE
8
FRAME
10
398.000000
20
10.000000
30
0.0
11
584.000000
21
10.000000
31
0.0
0
LINE
8
FRAME
10
584.000000
20
10.000000
30
0.0
11
584.000000
21
66.000000
31
0.0
0
LINE
8
FRAME
10
584.000000
20
66.000000
30
0.0
11
398.000000
21
66.000000
31
0.0
0
LINE
8
FRAME
10
398.000000
20
66.000000
30
0.0
11
398.000000
21
10.000000
31
0.0
0
LINE
8
TITLE
10
398.000000
20
53.000000
30
0.0
11
584.000000
21
53.000000
31
0.0
0
LINE
8
TITLE
10
398.000000
20
19.000000
30
0.0
11
584.000000
21
19.000000
31
0.0
0
LINE
8
TITLE
10
398.000000
20
27.500000
30
0.0
11
584.000000
21
27.500000
31
0.0
0
LINE
8
TITLE
10
398.000000
20
36.000000
30
0.0
11
584.000000
21
36.000000
31
0.0
0
LINE
8
TITLE
10
398.000000
20
44.500000
30
0.0
11
584.000000
21
44.500000
31
0.0
0
TEXT
8
TEXT
10
400.500000
20
59.500000
30
0.0
40
6.0000
1
MICRODUCK-JIG-PRESS-15-INNER
72
0
73
2
11
400.500000
21
59.500000
31
0.0
0
LINE
8
TITLE
10
564.000000
20
53.000000
30
0.0
11
564.000000
21
66.000000
31
0.0
0
TEXT
8
TITLE
10
574.000000
20
63.600000
30
0.0
40
1.7000
1
REV
72
1
73
0
11
574.000000
21
63.600000
31
0.0
0
TEXT
8
TEXT
10
574.000000
20
55.000000
30
0.0
40
5.2000
1
A
72
1
73
0
11
574.000000
21
55.000000
31
0.0
0
LINE
8
TITLE
10
534.000000
20
53.000000
30
0.0
11
534.000000
21
66.000000
31
0.0
0
CIRCLE
8
TITLE
10
540.500000
20
59.500000
30
0.0
40
3.500000
0
CIRCLE
8
TITLE
10
540.500000
20
59.500000
30
0.0
40
1.960000
0
LINE
8
TITLE
10
550.300000
20
56.000000
30
0.0
11
550.300000
21
63.000000
31
0.0
0
LINE
8
TITLE
10
550.300000
20
63.000000
30
0.0
11
556.250000
21
61.460000
31
0.0
0
LINE
8
TITLE
10
556.250000
20
61.460000
30
0.0
11
556.250000
21
57.540000
31
0.0
0
LINE
8
TITLE
10
556.250000
20
57.540000
30
0.0
11
550.300000
21
56.000000
31
0.0
0
LINE
8
CENTER
10
535.500000
20
59.500000
30
0.0
11
557.750000
21
59.500000
31
0.0
0
LINE
8
TITLE
10
462.000000
20
19.000000
30
0.0
11
462.000000
21
53.000000
31
0.0
0
LINE
8
TITLE
10
526.000000
20
19.000000
30
0.0
11
526.000000
21
53.000000
31
0.0
0
TEXT
8
TITLE
10
399.600000
20
50.600000
30
0.0
40
1.7000
1
MATERIAL
0
TEXT
8
TEXT
10
399.600000
20
45.900000
30
0.0
40
2.5000
1
PLA
0
TEXT
8
TITLE
10
463.600000
20
50.600000
30
0.0
40
1.7000
1
PROCESS
0
TEXT
8
TEXT
10
463.600000
20
45.900000
30
0.0
40
2.5000
1
-
0
TEXT
8
TITLE
10
527.600000
20
50.600000
30
0.0
40
1.7000
1
SCALE
0
TEXT
8
TEXT
10
527.600000
20
45.900000
30
0.0
40
2.5000
1
2:1
0
TEXT
8
TITLE
10
399.600000
20
42.100000
30
0.0
40
1.7000
1
CATEGORY
0
TEXT
8
TEXT
10
399.600000
20
37.400000
30
0.0
40
2.5000
1
-
0
TEXT
8
TITLE
10
431.600000
20
42.100000
30
0.0
40
1.7000
1
GENERAL TOL
0
TEXT
8
TEXT
10
431.600000
20
37.400000
30
0.0
40
2.5000
1
SEE NOTES
0
LINE
8
TITLE
10
430.000000
20
36.000000
30
0.0
11
430.000000
21
44.500000
31
0.0
0
TEXT
8
TITLE
10
463.600000
20
42.100000
30
0.0
40
1.7000
1
FINISH
0
TEXT
8
TEXT
10
463.600000
20
37.400000
30
0.0
40
2.5000
1
AS PRINTED
0
TEXT
8
TITLE
10
527.600000
20
42.100000
30
0.0
40
1.7000
1
SHEET
0
TEXT
8
TEXT
10
527.600000
20
37.400000
30
0.0
40
2.5000
1
A2  1/1
0
TEXT
8
TITLE
10
399.600000
20
33.600000
30
0.0
40
1.7000
1
VOLUME (MEASURED)
0
TEXT
8
TEXT
10
399.600000
20
28.900000
30
0.0
40
2.5000
1
6.55 cm3
0
TEXT
8
TITLE
10
463.600000
20
33.600000
30
0.0
40
1.7000
1
MASS (ASSUMES PLA)
0
TEXT
8
TEXT
10
463.600000
20
28.900000
30
0.0
40
2.5000
1
8.1 g
0
TEXT
8
TITLE
10
527.600000
20
33.600000
30
0.0
40
1.7000
1
UNITS
0
TEXT
8
TEXT
10
527.600000
20
28.900000
30
0.0
40
2.5000
1
mm / deg
0
TEXT
8
TITLE
10
399.600000
20
25.100000
30
0.0
40
1.7000
1
SIZE (BBOX, MEASURED)
0
TEXT
8
TEXT
10
399.600000
20
20.400000
30
0.0
40
2.5000
1
26.00 x 26.00 x 14.50
0
TEXT
8
TITLE
10
463.600000
20
25.100000
30
0.0
40
1.7000
1
DRAWN
0
TEXT
8
TEXT
10
463.600000
20
20.400000
30
0.0
40
2.5000
1
ce-cad  2026-09-03
0
TEXT
8
TITLE
10
527.600000
20
25.100000
30
0.0
40
1.7000
1
PROJECTION
0
TEXT
8
TEXT
10
527.600000
20
20.400000
30
0.0
40
2.5000
1
THIRD ANGLE
0
TEXT
8
TITLE
10
399.600000
20
16.600000
30
0.0
40
1.7000
1
SOURCE (DESIGN FILE)
0
TEXT
8
TEXT
10
399.600000
20
11.400000
30
0.0
40
2.6000
1
tools/jigs.py
0
TEXT
8
TEXT
10
12.500000
20
403.500000
30
0.0
40
4.2000
1
microduck-jig-press-15-inner   SCALE 2:1   A2   THIRD ANGLE
0
ENDSEC
0
EOF
