0
SECTION
2
HEADER
9
$ACADVER
1
AC1009
9
$INSUNITS
70
4
9
$LTSCALE
40
1.0
9
$EXTMIN
10
0.0000
20
0.0000
30
0.0
9
$EXTMAX
10
841.0000
20
594.0000
30
0.0
0
ENDSEC
0
SECTION
2
TABLES
0
TABLE
2
LTYPE
70
4
0
LTYPE
2
CONTINUOUS
70
0
3
Solid line
72
65
73
0
40
0.0000
0
LTYPE
2
HIDDEN
70
0
3
Hidden __ __ __ __
72
65
73
2
40
3.6000
49
2.4000
49
-1.2000
0
LTYPE
2
CENTER
70
0
3
Center ____ _ ____ _
72
65
73
4
40
11.2000
49
7.0000
49
-1.4000
49
1.4000
49
-1.4000
0
LTYPE
2
PHANTOM
70
0
3
Phantom ____ _ _ ____
72
65
73
6
40
21.0000
49
11.0000
49
-2.0000
49
2.0000
49
-2.0000
49
2.0000
49
-2.0000
0
ENDTAB
0
TABLE
2
LAYER
70
12
0
LAYER
2
0
70
0
62
7
6
CONTINUOUS
0
LAYER
2
VISIBLE
70
0
62
7
6
CONTINUOUS
0
LAYER
2
SECTION
70
0
62
7
6
CONTINUOUS
0
LAYER
2
HIDDEN
70
0
62
8
6
HIDDEN
0
LAYER
2
CENTER
70
0
62
4
6
CENTER
0
LAYER
2
DIM
70
0
62
3
6
CONTINUOUS
0
LAYER
2
TEXT
70
0
62
3
6
CONTINUOUS
0
LAYER
2
HATCH
70
0
62
5
6
CONTINUOUS
0
LAYER
2
CUT
70
0
62
1
6
PHANTOM
0
LAYER
2
CUTTHIN
70
0
62
1
6
PHANTOM
0
LAYER
2
FRAME
70
0
62
7
6
CONTINUOUS
0
LAYER
2
TITLE
70
0
62
7
6
CONTINUOUS
0
ENDTAB
0
ENDSEC
0
SECTION
2
ENTITIES
0
LINE
8
TITLE
10
5.000000
20
5.000000
30
0.0
11
836.000000
21
5.000000
31
0.0
0
LINE
8
TITLE
10
836.000000
20
5.000000
30
0.0
11
836.000000
21
589.000000
31
0.0
0
LINE
8
TITLE
10
836.000000
20
589.000000
30
0.0
11
5.000000
21
589.000000
31
0.0
0
LINE
8
TITLE
10
5.000000
20
589.000000
30
0.0
11
5.000000
21
5.000000
31
0.0
0
LINE
8
FRAME
10
10.000000
20
10.000000
30
0.0
11
831.000000
21
10.000000
31
0.0
0
LINE
8
FRAME
10
831.000000
20
10.000000
30
0.0
11
831.000000
21
584.000000
31
0.0
0
LINE
8
FRAME
10
831.000000
20
584.000000
30
0.0
11
10.000000
21
584.000000
31
0.0
0
LINE
8
FRAME
10
10.000000
20
584.000000
30
0.0
11
10.000000
21
10.000000
31
0.0
0
TEXT
8
TITLE
10
61.312500
20
586.500000
30
0.0
40
2.4000
1
1
72
1
73
2
11
61.312500
21
586.500000
31
0.0
0
TEXT
8
TITLE
10
61.312500
20
7.500000
30
0.0
40
2.4000
1
1
72
1
73
2
11
61.312500
21
7.500000
31
0.0
0
TEXT
8
TITLE
10
163.937500
20
586.500000
30
0.0
40
2.4000
1
2
72
1
73
2
11
163.937500
21
586.500000
31
0.0
0
TEXT
8
TITLE
10
163.937500
20
7.500000
30
0.0
40
2.4000
1
2
72
1
73
2
11
163.937500
21
7.500000
31
0.0
0
LINE
8
TITLE
10
112.625000
20
5.000000
30
0.0
11
112.625000
21
10.000000
31
0.0
0
LINE
8
TITLE
10
112.625000
20
584.000000
30
0.0
11
112.625000
21
589.000000
31
0.0
0
TEXT
8
TITLE
10
266.562500
20
586.500000
30
0.0
40
2.4000
1
3
72
1
73
2
11
266.562500
21
586.500000
31
0.0
0
TEXT
8
TITLE
10
266.562500
20
7.500000
30
0.0
40
2.4000
1
3
72
1
73
2
11
266.562500
21
7.500000
31
0.0
0
LINE
8
TITLE
10
215.250000
20
5.000000
30
0.0
11
215.250000
21
10.000000
31
0.0
0
LINE
8
TITLE
10
215.250000
20
584.000000
30
0.0
11
215.250000
21
589.000000
31
0.0
0
TEXT
8
TITLE
10
369.187500
20
586.500000
30
0.0
40
2.4000
1
4
72
1
73
2
11
369.187500
21
586.500000
31
0.0
0
TEXT
8
TITLE
10
369.187500
20
7.500000
30
0.0
40
2.4000
1
4
72
1
73
2
11
369.187500
21
7.500000
31
0.0
0
LINE
8
TITLE
10
317.875000
20
5.000000
30
0.0
11
317.875000
21
10.000000
31
0.0
0
LINE
8
TITLE
10
317.875000
20
584.000000
30
0.0
11
317.875000
21
589.000000
31
0.0
0
TEXT
8
TITLE
10
471.812500
20
586.500000
30
0.0
40
2.4000
1
5
72
1
73
2
11
471.812500
21
586.500000
31
0.0
0
TEXT
8
TITLE
10
471.812500
20
7.500000
30
0.0
40
2.4000
1
5
72
1
73
2
11
471.812500
21
7.500000
31
0.0
0
LINE
8
TITLE
10
420.500000
20
5.000000
30
0.0
11
420.500000
21
10.000000
31
0.0
0
LINE
8
TITLE
10
420.500000
20
584.000000
30
0.0
11
420.500000
21
589.000000
31
0.0
0
TEXT
8
TITLE
10
574.437500
20
586.500000
30
0.0
40
2.4000
1
6
72
1
73
2
11
574.437500
21
586.500000
31
0.0
0
TEXT
8
TITLE
10
574.437500
20
7.500000
30
0.0
40
2.4000
1
6
72
1
73
2
11
574.437500
21
7.500000
31
0.0
0
LINE
8
TITLE
10
523.125000
20
5.000000
30
0.0
11
523.125000
21
10.000000
31
0.0
0
LINE
8
TITLE
10
523.125000
20
584.000000
30
0.0
11
523.125000
21
589.000000
31
0.0
0
TEXT
8
TITLE
10
677.062500
20
586.500000
30
0.0
40
2.4000
1
7
72
1
73
2
11
677.062500
21
586.500000
31
0.0
0
TEXT
8
TITLE
10
677.062500
20
7.500000
30
0.0
40
2.4000
1
7
72
1
73
2
11
677.062500
21
7.500000
31
0.0
0
LINE
8
TITLE
10
625.750000
20
5.000000
30
0.0
11
625.750000
21
10.000000
31
0.0
0
LINE
8
TITLE
10
625.750000
20
584.000000
30
0.0
11
625.750000
21
589.000000
31
0.0
0
TEXT
8
TITLE
10
779.687500
20
586.500000
30
0.0
40
2.4000
1
8
72
1
73
2
11
779.687500
21
586.500000
31
0.0
0
TEXT
8
TITLE
10
779.687500
20
7.500000
30
0.0
40
2.4000
1
8
72
1
73
2
11
779.687500
21
7.500000
31
0.0
0
LINE
8
TITLE
10
728.375000
20
5.000000
30
0.0
11
728.375000
21
10.000000
31
0.0
0
LINE
8
TITLE
10
728.375000
20
584.000000
30
0.0
11
728.375000
21
589.000000
31
0.0
0
TEXT
8
TITLE
10
7.500000
20
67.400000
30
0.0
40
2.4000
1
E
72
1
73
2
11
7.500000
21
67.400000
31
0.0
0
TEXT
8
TITLE
10
833.500000
20
67.400000
30
0.0
40
2.4000
1
E
72
1
73
2
11
833.500000
21
67.400000
31
0.0
0
TEXT
8
TITLE
10
7.500000
20
182.200000
30
0.0
40
2.4000
1
D
72
1
73
2
11
7.500000
21
182.200000
31
0.0
0
TEXT
8
TITLE
10
833.500000
20
182.200000
30
0.0
40
2.4000
1
D
72
1
73
2
11
833.500000
21
182.200000
31
0.0
0
LINE
8
TITLE
10
5.000000
20
124.800000
30
0.0
11
10.000000
21
124.800000
31
0.0
0
LINE
8
TITLE
10
831.000000
20
124.800000
30
0.0
11
836.000000
21
124.800000
31
0.0
0
TEXT
8
TITLE
10
7.500000
20
297.000000
30
0.0
40
2.4000
1
C
72
1
73
2
11
7.500000
21
297.000000
31
0.0
0
TEXT
8
TITLE
10
833.500000
20
297.000000
30
0.0
40
2.4000
1
C
72
1
73
2
11
833.500000
21
297.000000
31
0.0
0
LINE
8
TITLE
10
5.000000
20
239.600000
30
0.0
11
10.000000
21
239.600000
31
0.0
0
LINE
8
TITLE
10
831.000000
20
239.600000
30
0.0
11
836.000000
21
239.600000
31
0.0
0
TEXT
8
TITLE
10
7.500000
20
411.800000
30
0.0
40
2.4000
1
B
72
1
73
2
11
7.500000
21
411.800000
31
0.0
0
TEXT
8
TITLE
10
833.500000
20
411.800000
30
0.0
40
2.4000
1
B
72
1
73
2
11
833.500000
21
411.800000
31
0.0
0
LINE
8
TITLE
10
5.000000
20
354.400000
30
0.0
11
10.000000
21
354.400000
31
0.0
0
LINE
8
TITLE
10
831.000000
20
354.400000
30
0.0
11
836.000000
21
354.400000
31
0.0
0
TEXT
8
TITLE
10
7.500000
20
526.600000
30
0.0
40
2.4000
1
A
72
1
73
2
11
7.500000
21
526.600000
31
0.0
0
TEXT
8
TITLE
10
833.500000
20
526.600000
30
0.0
40
2.4000
1
A
72
1
73
2
11
833.500000
21
526.600000
31
0.0
0
LINE
8
TITLE
10
5.000000
20
469.200000
30
0.0
11
10.000000
21
469.200000
31
0.0
0
LINE
8
TITLE
10
831.000000
20
469.200000
30
0.0
11
836.000000
21
469.200000
31
0.0
0
LINE
8
VISIBLE
10
277.500000
20
270.732500
30
0.0
11
205.000000
21
270.732500
31
0.0
0
LINE
8
VISIBLE
10
277.500000
20
270.732500
30
0.0
11
292.500000
21
255.732500
31
0.0
0
LINE
8
VISIBLE
10
262.500000
20
244.028109
30
0.0
11
147.500000
21
244.028109
31
0.0
0
LINE
8
VISIBLE
10
132.500000
20
221.553759
30
0.0
11
147.500000
21
244.028109
31
0.0
0
LINE
8
VISIBLE
10
160.000000
20
270.732500
30
0.0
11
160.000000
21
275.732500
31
0.0
0
LINE
8
VISIBLE
10
250.000000
20
275.732500
30
0.0
11
160.000000
21
275.732500
31
0.0
0
LINE
8
VISIBLE
10
262.500000
20
244.028109
30
0.0
11
277.500000
21
221.553759
31
0.0
0
LINE
8
VISIBLE
10
262.500000
20
244.028109
30
0.0
11
147.500000
21
244.028109
31
0.0
0
LINE
8
VISIBLE
10
277.500000
20
221.553759
30
0.0
11
277.500000
21
270.732500
31
0.0
0
LINE
8
VISIBLE
10
132.500000
20
221.553759
30
0.0
11
147.500000
21
244.028109
31
0.0
0
LINE
8
VISIBLE
10
132.500000
20
221.553759
30
0.0
11
132.500000
21
270.732500
31
0.0
0
LINE
8
VISIBLE
10
205.000000
20
270.732500
30
0.0
11
132.500000
21
270.732500
31
0.0
0
LINE
8
VISIBLE
10
205.000000
20
268.232500
30
0.0
11
205.000000
21
270.732500
31
0.0
0
LINE
8
VISIBLE
10
292.500000
20
191.767500
30
0.0
11
292.500000
21
255.732500
31
0.0
0
LINE
8
VISIBLE
10
277.500000
20
220.732500
30
0.0
11
277.500000
21
221.553759
31
0.0
0
LINE
8
VISIBLE
10
277.500000
20
191.767500
30
0.0
11
277.500000
21
220.732500
31
0.0
0
LINE
8
VISIBLE
10
292.500000
20
191.767500
30
0.0
11
277.500000
21
191.767500
31
0.0
0
LINE
8
VISIBLE
10
292.500000
20
185.893821
30
0.0
11
292.500000
21
191.767500
31
0.0
0
LINE
8
VISIBLE
10
292.500000
20
180.120643
30
0.0
11
292.500000
21
185.893821
31
0.0
0
LINE
8
VISIBLE
10
292.500000
20
174.546746
30
0.0
11
292.500000
21
180.120643
31
0.0
0
LINE
8
VISIBLE
10
292.500000
20
169.267500
30
0.0
11
292.500000
21
174.546746
31
0.0
0
LINE
8
VISIBLE
10
292.500000
20
164.373236
30
0.0
11
292.500000
21
169.267500
31
0.0
0
LINE
8
VISIBLE
10
292.500000
20
159.947695
30
0.0
11
292.500000
21
164.373236
31
0.0
0
LINE
8
VISIBLE
10
292.500000
20
156.066600
30
0.0
11
292.500000
21
159.947695
31
0.0
0
LINE
8
VISIBLE
10
292.500000
20
152.796357
30
0.0
11
292.500000
21
156.066600
31
0.0
0
LINE
8
VISIBLE
10
292.500000
20
150.192921
30
0.0
11
292.500000
21
152.796357
31
0.0
0
LINE
8
VISIBLE
10
292.500000
20
148.300838
30
0.0
11
292.500000
21
150.192921
31
0.0
0
LINE
8
VISIBLE
10
292.500000
20
147.152481
30
0.0
11
292.500000
21
148.300838
31
0.0
0
LINE
8
VISIBLE
10
292.500000
20
146.767500
30
0.0
11
292.500000
21
147.152481
31
0.0
0
LINE
8
VISIBLE
10
132.500000
20
191.767500
30
0.0
11
132.500000
21
220.732500
31
0.0
0
LINE
8
VISIBLE
10
132.500000
20
220.732500
30
0.0
11
132.500000
21
221.553759
31
0.0
0
LINE
8
VISIBLE
10
132.500000
20
270.732500
30
0.0
11
117.500000
21
255.732500
31
0.0
0
LINE
8
VISIBLE
10
117.500000
20
191.767500
30
0.0
11
117.500000
21
255.732500
31
0.0
0
LINE
8
VISIBLE
10
132.500000
20
191.767500
30
0.0
11
117.500000
21
191.767500
31
0.0
0
LINE
8
VISIBLE
10
277.500000
20
185.893821
30
0.0
11
277.500000
21
191.767500
31
0.0
0
LINE
8
VISIBLE
10
277.500000
20
180.120643
30
0.0
11
277.500000
21
185.893821
31
0.0
0
LINE
8
VISIBLE
10
277.500000
20
174.546746
30
0.0
11
277.500000
21
180.120643
31
0.0
0
LINE
8
VISIBLE
10
277.500000
20
169.267500
30
0.0
11
277.500000
21
174.546746
31
0.0
0
LINE
8
VISIBLE
10
277.500000
20
164.373236
30
0.0
11
277.500000
21
169.267500
31
0.0
0
LINE
8
VISIBLE
10
277.500000
20
159.947695
30
0.0
11
277.500000
21
164.373236
31
0.0
0
LINE
8
VISIBLE
10
277.500000
20
156.066600
30
0.0
11
277.500000
21
159.947695
31
0.0
0
LINE
8
VISIBLE
10
277.500000
20
152.796357
30
0.0
11
277.500000
21
156.066600
31
0.0
0
LINE
8
VISIBLE
10
277.500000
20
150.192921
30
0.0
11
277.500000
21
152.796357
31
0.0
0
LINE
8
VISIBLE
10
277.500000
20
148.300838
30
0.0
11
277.500000
21
150.192921
31
0.0
0
LINE
8
VISIBLE
10
277.500000
20
147.152481
30
0.0
11
277.500000
21
148.300838
31
0.0
0
LINE
8
VISIBLE
10
277.500000
20
146.767500
30
0.0
11
277.500000
21
147.152481
31
0.0
0
LINE
8
VISIBLE
10
292.500000
20
185.893821
30
0.0
11
277.500000
21
185.893821
31
0.0
0
LINE
8
VISIBLE
10
292.500000
20
180.120643
30
0.0
11
277.500000
21
180.120643
31
0.0
0
LINE
8
VISIBLE
10
292.500000
20
174.546746
30
0.0
11
277.500000
21
174.546746
31
0.0
0
LINE
8
VISIBLE
10
292.500000
20
169.267500
30
0.0
11
277.500000
21
169.267500
31
0.0
0
LINE
8
VISIBLE
10
292.500000
20
164.373236
30
0.0
11
277.500000
21
164.373236
31
0.0
0
LINE
8
VISIBLE
10
292.500000
20
159.947695
30
0.0
11
277.500000
21
159.947695
31
0.0
0
LINE
8
VISIBLE
10
292.500000
20
156.066600
30
0.0
11
277.500000
21
156.066600
31
0.0
0
LINE
8
VISIBLE
10
292.500000
20
152.796357
30
0.0
11
277.500000
21
152.796357
31
0.0
0
LINE
8
VISIBLE
10
292.500000
20
150.192921
30
0.0
11
277.500000
21
150.192921
31
0.0
0
LINE
8
VISIBLE
10
292.500000
20
148.300838
30
0.0
11
277.500000
21
148.300838
31
0.0
0
LINE
8
VISIBLE
10
292.500000
20
147.152481
30
0.0
11
277.500000
21
147.152481
31
0.0
0
LINE
8
VISIBLE
10
292.500000
20
146.767500
30
0.0
11
277.500000
21
146.767500
31
0.0
0
LINE
8
VISIBLE
10
132.500000
20
185.893821
30
0.0
11
132.500000
21
191.767500
31
0.0
0
LINE
8
VISIBLE
10
132.500000
20
180.120643
30
0.0
11
132.500000
21
185.893821
31
0.0
0
LINE
8
VISIBLE
10
132.500000
20
174.546746
30
0.0
11
132.500000
21
180.120643
31
0.0
0
LINE
8
VISIBLE
10
132.500000
20
169.267500
30
0.0
11
132.500000
21
174.546746
31
0.0
0
LINE
8
VISIBLE
10
132.500000
20
164.373236
30
0.0
11
132.500000
21
169.267500
31
0.0
0
LINE
8
VISIBLE
10
132.500000
20
159.947695
30
0.0
11
132.500000
21
164.373236
31
0.0
0
LINE
8
VISIBLE
10
132.500000
20
156.066600
30
0.0
11
132.500000
21
159.947695
31
0.0
0
LINE
8
VISIBLE
10
132.500000
20
152.796357
30
0.0
11
132.500000
21
156.066600
31
0.0
0
LINE
8
VISIBLE
10
132.500000
20
150.192921
30
0.0
11
132.500000
21
152.796357
31
0.0
0
LINE
8
VISIBLE
10
132.500000
20
148.300838
30
0.0
11
132.500000
21
150.192921
31
0.0
0
LINE
8
VISIBLE
10
132.500000
20
147.152481
30
0.0
11
132.500000
21
148.300838
31
0.0
0
LINE
8
VISIBLE
10
132.500000
20
146.767500
30
0.0
11
132.500000
21
147.152481
31
0.0
0
LINE
8
VISIBLE
10
117.500000
20
185.893821
30
0.0
11
117.500000
21
191.767500
31
0.0
0
LINE
8
VISIBLE
10
117.500000
20
180.120643
30
0.0
11
117.500000
21
185.893821
31
0.0
0
LINE
8
VISIBLE
10
117.500000
20
174.546746
30
0.0
11
117.500000
21
180.120643
31
0.0
0
LINE
8
VISIBLE
10
117.500000
20
169.267500
30
0.0
11
117.500000
21
174.546746
31
0.0
0
LINE
8
VISIBLE
10
117.500000
20
164.373236
30
0.0
11
117.500000
21
169.267500
31
0.0
0
LINE
8
VISIBLE
10
117.500000
20
159.947695
30
0.0
11
117.500000
21
164.373236
31
0.0
0
LINE
8
VISIBLE
10
117.500000
20
156.066600
30
0.0
11
117.500000
21
159.947695
31
0.0
0
LINE
8
VISIBLE
10
117.500000
20
152.796357
30
0.0
11
117.500000
21
156.066600
31
0.0
0
LINE
8
VISIBLE
10
117.500000
20
150.192921
30
0.0
11
117.500000
21
152.796357
31
0.0
0
LINE
8
VISIBLE
10
117.500000
20
148.300838
30
0.0
11
117.500000
21
150.192921
31
0.0
0
LINE
8
VISIBLE
10
117.500000
20
147.152481
30
0.0
11
117.500000
21
148.300838
31
0.0
0
LINE
8
VISIBLE
10
117.500000
20
146.767500
30
0.0
11
117.500000
21
147.152481
31
0.0
0
LINE
8
VISIBLE
10
165.000000
20
275.732500
30
0.0
11
165.000000
21
285.232500
31
0.0
0
LINE
8
VISIBLE
10
245.000000
20
285.232500
30
0.0
11
165.000000
21
285.232500
31
0.0
0
LINE
8
VISIBLE
10
132.500000
20
185.893821
30
0.0
11
117.500000
21
185.893821
31
0.0
0
LINE
8
VISIBLE
10
132.500000
20
180.120643
30
0.0
11
117.500000
21
180.120643
31
0.0
0
LINE
8
VISIBLE
10
132.500000
20
174.546746
30
0.0
11
117.500000
21
174.546746
31
0.0
0
LINE
8
VISIBLE
10
132.500000
20
169.267500
30
0.0
11
117.500000
21
169.267500
31
0.0
0
LINE
8
VISIBLE
10
132.500000
20
164.373236
30
0.0
11
117.500000
21
164.373236
31
0.0
0
LINE
8
VISIBLE
10
132.500000
20
159.947695
30
0.0
11
117.500000
21
159.947695
31
0.0
0
LINE
8
VISIBLE
10
132.500000
20
156.066600
30
0.0
11
117.500000
21
156.066600
31
0.0
0
LINE
8
VISIBLE
10
132.500000
20
152.796357
30
0.0
11
117.500000
21
152.796357
31
0.0
0
LINE
8
VISIBLE
10
132.500000
20
150.192921
30
0.0
11
117.500000
21
150.192921
31
0.0
0
LINE
8
VISIBLE
10
132.500000
20
148.300838
30
0.0
11
117.500000
21
148.300838
31
0.0
0
LINE
8
VISIBLE
10
132.500000
20
147.152481
30
0.0
11
117.500000
21
147.152481
31
0.0
0
LINE
8
VISIBLE
10
132.500000
20
146.767500
30
0.0
11
117.500000
21
146.767500
31
0.0
0
LINE
8
VISIBLE
10
250.000000
20
270.732500
30
0.0
11
250.000000
21
275.732500
31
0.0
0
LINE
8
VISIBLE
10
245.000000
20
275.732500
30
0.0
11
245.000000
21
285.232500
31
0.0
0
LINE
8
VISIBLE
10
147.500000
20
447.232500
30
0.0
11
132.500000
21
447.232500
31
0.0
0
LINE
8
VISIBLE
10
147.500000
20
447.232500
30
0.0
11
262.500000
21
447.232500
31
0.0
0
LINE
8
VISIBLE
10
277.500000
20
447.232500
30
0.0
11
262.500000
21
447.232500
31
0.0
0
LINE
8
VISIBLE
10
147.500000
20
357.232500
30
0.0
11
132.500000
21
357.232500
31
0.0
0
LINE
8
VISIBLE
10
147.500000
20
357.232500
30
0.0
11
262.500000
21
357.232500
31
0.0
0
LINE
8
VISIBLE
10
277.500000
20
357.232500
30
0.0
11
262.500000
21
357.232500
31
0.0
0
LINE
8
VISIBLE
10
117.500000
20
357.232500
30
0.0
11
132.500000
21
357.232500
31
0.0
0
LINE
8
VISIBLE
10
117.500000
20
357.617481
30
0.0
11
117.500000
21
357.232500
31
0.0
0
LINE
8
VISIBLE
10
117.500000
20
358.765838
30
0.0
11
117.500000
21
357.617481
31
0.0
0
LINE
8
VISIBLE
10
117.500000
20
360.657921
30
0.0
11
117.500000
21
358.765838
31
0.0
0
LINE
8
VISIBLE
10
117.500000
20
447.232500
30
0.0
11
117.500000
21
446.847519
31
0.0
0
LINE
8
VISIBLE
10
117.500000
20
363.261357
30
0.0
11
117.500000
21
360.657921
31
0.0
0
LINE
8
VISIBLE
10
117.500000
20
446.847519
30
0.0
11
117.500000
21
445.699162
31
0.0
0
LINE
8
VISIBLE
10
117.500000
20
366.531600
30
0.0
11
117.500000
21
363.261357
31
0.0
0
LINE
8
VISIBLE
10
117.500000
20
445.699162
30
0.0
11
117.500000
21
443.807079
31
0.0
0
LINE
8
VISIBLE
10
117.500000
20
370.412695
30
0.0
11
117.500000
21
366.531600
31
0.0
0
LINE
8
VISIBLE
10
117.500000
20
443.807079
30
0.0
11
117.500000
21
441.203643
31
0.0
0
LINE
8
VISIBLE
10
117.500000
20
374.838236
30
0.0
11
117.500000
21
370.412695
31
0.0
0
LINE
8
VISIBLE
10
117.500000
20
441.203643
30
0.0
11
117.500000
21
437.933400
31
0.0
0
LINE
8
VISIBLE
10
117.500000
20
379.732500
30
0.0
11
117.500000
21
374.838236
31
0.0
0
LINE
8
VISIBLE
10
117.500000
20
437.933400
30
0.0
11
117.500000
21
434.052305
31
0.0
0
LINE
8
VISIBLE
10
117.500000
20
385.011746
30
0.0
11
117.500000
21
379.732500
31
0.0
0
LINE
8
VISIBLE
10
117.500000
20
434.052305
30
0.0
11
117.500000
21
429.626764
31
0.0
0
LINE
8
VISIBLE
10
117.500000
20
390.585643
30
0.0
11
117.500000
21
385.011746
31
0.0
0
LINE
8
VISIBLE
10
117.500000
20
429.626764
30
0.0
11
117.500000
21
424.732500
31
0.0
0
LINE
8
VISIBLE
10
117.500000
20
396.358821
30
0.0
11
117.500000
21
390.585643
31
0.0
0
LINE
8
VISIBLE
10
117.500000
20
424.732500
30
0.0
11
117.500000
21
419.453254
31
0.0
0
LINE
8
VISIBLE
10
117.500000
20
402.232500
30
0.0
11
117.500000
21
396.358821
31
0.0
0
LINE
8
VISIBLE
10
117.500000
20
419.453254
30
0.0
11
117.500000
21
413.879357
31
0.0
0
LINE
8
VISIBLE
10
117.500000
20
408.106179
30
0.0
11
117.500000
21
402.232500
31
0.0
0
LINE
8
VISIBLE
10
117.500000
20
413.879357
30
0.0
11
117.500000
21
408.106179
31
0.0
0
LINE
8
VISIBLE
10
117.500000
20
447.232500
30
0.0
11
132.500000
21
447.232500
31
0.0
0
LINE
8
VISIBLE
10
147.500000
20
447.232500
30
0.0
11
147.500000
21
402.232500
31
0.0
0
LINE
8
VISIBLE
10
223.982343
20
403.051446
30
0.0
11
221.982283
21
410.753185
31
0.0
0
LINE
8
VISIBLE
10
221.982283
20
410.753185
30
0.0
11
216.375808
21
417.450614
31
0.0
0
LINE
8
VISIBLE
10
193.624192
20
417.450614
30
0.0
11
216.375808
21
417.450614
31
0.0
0
LINE
8
VISIBLE
10
262.500000
20
447.232500
30
0.0
11
262.500000
21
402.232500
31
0.0
0
LINE
8
VISIBLE
10
186.000000
20
402.232500
30
0.0
11
185.007193
21
406.799348
31
0.0
0
LINE
8
VISIBLE
10
185.007193
20
406.799348
30
0.0
11
182.530018
21
410.251155
31
0.0
0
LINE
8
VISIBLE
10
182.530018
20
410.251155
30
0.0
11
178.573372
21
412.635914
31
0.0
0
LINE
8
VISIBLE
10
178.573372
20
412.635914
30
0.0
11
175.000000
21
413.232500
31
0.0
0
LINE
8
VISIBLE
10
175.000000
20
413.232500
30
0.0
11
170.199701
21
412.129830
31
0.0
0
LINE
8
VISIBLE
10
170.199701
20
412.129830
30
0.0
11
167.469982
21
410.251155
31
0.0
0
LINE
8
VISIBLE
10
167.469982
20
410.251155
30
0.0
11
164.669928
21
406.012661
31
0.0
0
LINE
8
VISIBLE
10
164.669928
20
406.012661
30
0.0
11
164.000000
21
402.232500
31
0.0
0
LINE
8
VISIBLE
10
277.500000
20
447.232500
30
0.0
11
292.500000
21
447.232500
31
0.0
0
LINE
8
VISIBLE
10
147.500000
20
402.232500
30
0.0
11
147.500000
21
357.232500
31
0.0
0
LINE
8
VISIBLE
10
262.500000
20
402.232500
30
0.0
11
262.500000
21
357.232500
31
0.0
0
LINE
8
VISIBLE
10
216.375808
20
387.014386
30
0.0
11
221.982283
21
393.711815
31
0.0
0
LINE
8
VISIBLE
10
221.982283
20
393.711815
30
0.0
11
223.982343
21
401.413554
31
0.0
0
LINE
8
VISIBLE
10
193.624192
20
387.014386
30
0.0
11
216.375808
21
387.014386
31
0.0
0
LINE
8
VISIBLE
10
164.000000
20
402.232500
30
0.0
11
164.992807
21
397.665652
31
0.0
0
LINE
8
VISIBLE
10
164.992807
20
397.665652
30
0.0
11
167.469982
21
394.213845
31
0.0
0
LINE
8
VISIBLE
10
167.469982
20
394.213845
30
0.0
11
171.426749
21
391.829045
31
0.0
0
LINE
8
VISIBLE
10
171.426749
20
391.829045
30
0.0
11
175.000000
21
391.232500
31
0.0
0
LINE
8
VISIBLE
10
175.000000
20
391.232500
30
0.0
11
179.800299
21
392.335170
31
0.0
0
LINE
8
VISIBLE
10
179.800299
20
392.335170
30
0.0
11
182.530018
21
394.213845
31
0.0
0
LINE
8
VISIBLE
10
182.530018
20
394.213845
30
0.0
11
185.330048
21
398.452275
31
0.0
0
LINE
8
VISIBLE
10
185.330048
20
398.452275
30
0.0
11
186.000000
21
402.232500
31
0.0
0
LINE
8
VISIBLE
10
186.017657
20
401.413554
30
0.0
11
188.017717
21
393.711815
31
0.0
0
LINE
8
VISIBLE
10
188.017717
20
393.711815
30
0.0
11
193.624192
21
387.014386
31
0.0
0
LINE
8
VISIBLE
10
277.500000
20
357.232500
30
0.0
11
292.500000
21
357.232500
31
0.0
0
LINE
8
VISIBLE
10
132.500000
20
357.617481
30
0.0
11
132.500000
21
357.232500
31
0.0
0
LINE
8
VISIBLE
10
132.500000
20
358.765838
30
0.0
11
132.500000
21
357.617481
31
0.0
0
LINE
8
VISIBLE
10
132.500000
20
360.657921
30
0.0
11
132.500000
21
358.765838
31
0.0
0
LINE
8
VISIBLE
10
132.500000
20
363.261357
30
0.0
11
132.500000
21
360.657921
31
0.0
0
LINE
8
VISIBLE
10
132.500000
20
366.531600
30
0.0
11
132.500000
21
363.261357
31
0.0
0
LINE
8
VISIBLE
10
132.500000
20
370.412695
30
0.0
11
132.500000
21
366.531600
31
0.0
0
LINE
8
VISIBLE
10
132.500000
20
374.838236
30
0.0
11
132.500000
21
370.412695
31
0.0
0
LINE
8
VISIBLE
10
132.500000
20
447.232500
30
0.0
11
132.500000
21
446.847519
31
0.0
0
LINE
8
VISIBLE
10
132.500000
20
379.732500
30
0.0
11
132.500000
21
374.838236
31
0.0
0
LINE
8
VISIBLE
10
132.500000
20
446.847519
30
0.0
11
132.500000
21
445.699162
31
0.0
0
LINE
8
VISIBLE
10
132.500000
20
385.011746
30
0.0
11
132.500000
21
379.732500
31
0.0
0
LINE
8
VISIBLE
10
132.500000
20
445.699162
30
0.0
11
132.500000
21
443.807079
31
0.0
0
LINE
8
VISIBLE
10
132.500000
20
390.585643
30
0.0
11
132.500000
21
385.011746
31
0.0
0
LINE
8
VISIBLE
10
132.500000
20
443.807079
30
0.0
11
132.500000
21
441.203643
31
0.0
0
LINE
8
VISIBLE
10
132.500000
20
396.358821
30
0.0
11
132.500000
21
390.585643
31
0.0
0
LINE
8
VISIBLE
10
132.500000
20
441.203643
30
0.0
11
132.500000
21
437.933400
31
0.0
0
LINE
8
VISIBLE
10
132.500000
20
402.232500
30
0.0
11
132.500000
21
396.358821
31
0.0
0
LINE
8
VISIBLE
10
132.500000
20
437.933400
30
0.0
11
132.500000
21
434.052305
31
0.0
0
LINE
8
VISIBLE
10
132.500000
20
408.106179
30
0.0
11
132.500000
21
402.232500
31
0.0
0
LINE
8
VISIBLE
10
132.500000
20
434.052305
30
0.0
11
132.500000
21
429.626764
31
0.0
0
LINE
8
VISIBLE
10
132.500000
20
413.879357
30
0.0
11
132.500000
21
408.106179
31
0.0
0
LINE
8
VISIBLE
10
132.500000
20
429.626764
30
0.0
11
132.500000
21
424.732500
31
0.0
0
LINE
8
VISIBLE
10
132.500000
20
419.453254
30
0.0
11
132.500000
21
413.879357
31
0.0
0
LINE
8
VISIBLE
10
132.500000
20
424.732500
30
0.0
11
132.500000
21
419.453254
31
0.0
0
LINE
8
VISIBLE
10
117.500000
20
357.617481
30
0.0
11
132.500000
21
357.617481
31
0.0
0
LINE
8
VISIBLE
10
117.500000
20
358.765838
30
0.0
11
132.500000
21
358.765838
31
0.0
0
LINE
8
VISIBLE
10
117.500000
20
360.657921
30
0.0
11
132.500000
21
360.657921
31
0.0
0
LINE
8
VISIBLE
10
117.500000
20
446.847519
30
0.0
11
132.500000
21
446.847519
31
0.0
0
LINE
8
VISIBLE
10
117.500000
20
363.261357
30
0.0
11
132.500000
21
363.261357
31
0.0
0
LINE
8
VISIBLE
10
117.500000
20
445.699162
30
0.0
11
132.500000
21
445.699162
31
0.0
0
LINE
8
VISIBLE
10
117.500000
20
366.531600
30
0.0
11
132.500000
21
366.531600
31
0.0
0
LINE
8
VISIBLE
10
117.500000
20
443.807079
30
0.0
11
132.500000
21
443.807079
31
0.0
0
LINE
8
VISIBLE
10
117.500000
20
370.412695
30
0.0
11
132.500000
21
370.412695
31
0.0
0
LINE
8
VISIBLE
10
117.500000
20
441.203643
30
0.0
11
132.500000
21
441.203643
31
0.0
0
LINE
8
VISIBLE
10
117.500000
20
374.838236
30
0.0
11
132.500000
21
374.838236
31
0.0
0
LINE
8
VISIBLE
10
117.500000
20
437.933400
30
0.0
11
132.500000
21
437.933400
31
0.0
0
LINE
8
VISIBLE
10
117.500000
20
379.732500
30
0.0
11
132.500000
21
379.732500
31
0.0
0
LINE
8
VISIBLE
10
117.500000
20
434.052305
30
0.0
11
132.500000
21
434.052305
31
0.0
0
LINE
8
VISIBLE
10
117.500000
20
385.011746
30
0.0
11
132.500000
21
385.011746
31
0.0
0
LINE
8
VISIBLE
10
117.500000
20
429.626764
30
0.0
11
132.500000
21
429.626764
31
0.0
0
LINE
8
VISIBLE
10
117.500000
20
390.585643
30
0.0
11
132.500000
21
390.585643
31
0.0
0
LINE
8
VISIBLE
10
117.500000
20
424.732500
30
0.0
11
132.500000
21
424.732500
31
0.0
0
LINE
8
VISIBLE
10
117.500000
20
396.358821
30
0.0
11
132.500000
21
396.358821
31
0.0
0
LINE
8
VISIBLE
10
117.500000
20
419.453254
30
0.0
11
132.500000
21
419.453254
31
0.0
0
LINE
8
VISIBLE
10
117.500000
20
402.232500
30
0.0
11
132.500000
21
402.232500
31
0.0
0
LINE
8
VISIBLE
10
117.500000
20
413.879357
30
0.0
11
132.500000
21
413.879357
31
0.0
0
LINE
8
VISIBLE
10
117.500000
20
408.106179
30
0.0
11
132.500000
21
408.106179
31
0.0
0
ARC
8
VISIBLE
10
205.000000
20
402.232500
30
0.0
40
19.000000
50
0.000000
51
53.221240
0
ARC
8
VISIBLE
10
235.000000
20
402.232500
30
0.0
40
11.000000
50
179.999999
51
360.000000
0
ARC
8
VISIBLE
10
205.000000
20
402.232500
30
0.0
40
19.000000
50
306.778760
51
360.000000
0
ARC
8
VISIBLE
10
205.000000
20
402.232500
30
0.0
40
19.000000
50
180.000000
51
233.221240
0
CIRCLE
8
VISIBLE
10
205.000000
20
402.232500
30
0.0
40
15.000000
0
LINE
8
VISIBLE
10
277.500000
20
357.617481
30
0.0
11
277.500000
21
357.232500
31
0.0
0
LINE
8
VISIBLE
10
277.500000
20
358.765838
30
0.0
11
277.500000
21
357.617481
31
0.0
0
LINE
8
VISIBLE
10
277.500000
20
360.657921
30
0.0
11
277.500000
21
358.765838
31
0.0
0
LINE
8
VISIBLE
10
277.500000
20
363.261357
30
0.0
11
277.500000
21
360.657921
31
0.0
0
LINE
8
VISIBLE
10
277.500000
20
366.531600
30
0.0
11
277.500000
21
363.261357
31
0.0
0
LINE
8
VISIBLE
10
277.500000
20
370.412695
30
0.0
11
277.500000
21
366.531600
31
0.0
0
LINE
8
VISIBLE
10
277.500000
20
374.838236
30
0.0
11
277.500000
21
370.412695
31
0.0
0
LINE
8
VISIBLE
10
277.500000
20
447.232500
30
0.0
11
277.500000
21
446.847519
31
0.0
0
LINE
8
VISIBLE
10
277.500000
20
379.732500
30
0.0
11
277.500000
21
374.838236
31
0.0
0
LINE
8
VISIBLE
10
277.500000
20
446.847519
30
0.0
11
277.500000
21
445.699162
31
0.0
0
LINE
8
VISIBLE
10
277.500000
20
385.011746
30
0.0
11
277.500000
21
379.732500
31
0.0
0
LINE
8
VISIBLE
10
277.500000
20
445.699162
30
0.0
11
277.500000
21
443.807079
31
0.0
0
LINE
8
VISIBLE
10
277.500000
20
390.585643
30
0.0
11
277.500000
21
385.011746
31
0.0
0
LINE
8
VISIBLE
10
277.500000
20
443.807079
30
0.0
11
277.500000
21
441.203643
31
0.0
0
LINE
8
VISIBLE
10
277.500000
20
396.358821
30
0.0
11
277.500000
21
390.585643
31
0.0
0
LINE
8
VISIBLE
10
277.500000
20
441.203643
30
0.0
11
277.500000
21
437.933400
31
0.0
0
LINE
8
VISIBLE
10
277.500000
20
402.232500
30
0.0
11
277.500000
21
396.358821
31
0.0
0
LINE
8
VISIBLE
10
277.500000
20
437.933400
30
0.0
11
277.500000
21
434.052305
31
0.0
0
LINE
8
VISIBLE
10
277.500000
20
408.106179
30
0.0
11
277.500000
21
402.232500
31
0.0
0
LINE
8
VISIBLE
10
277.500000
20
434.052305
30
0.0
11
277.500000
21
429.626764
31
0.0
0
LINE
8
VISIBLE
10
277.500000
20
413.879357
30
0.0
11
277.500000
21
408.106179
31
0.0
0
LINE
8
VISIBLE
10
277.500000
20
429.626764
30
0.0
11
277.500000
21
424.732500
31
0.0
0
LINE
8
VISIBLE
10
277.500000
20
419.453254
30
0.0
11
277.500000
21
413.879357
31
0.0
0
LINE
8
VISIBLE
10
277.500000
20
424.732500
30
0.0
11
277.500000
21
419.453254
31
0.0
0
LINE
8
VISIBLE
10
277.500000
20
446.847519
30
0.0
11
292.500000
21
446.847519
31
0.0
0
LINE
8
VISIBLE
10
292.500000
20
447.232500
30
0.0
11
292.500000
21
446.847519
31
0.0
0
LINE
8
VISIBLE
10
292.500000
20
357.617481
30
0.0
11
292.500000
21
357.232500
31
0.0
0
LINE
8
VISIBLE
10
292.500000
20
358.765838
30
0.0
11
292.500000
21
357.617481
31
0.0
0
LINE
8
VISIBLE
10
292.500000
20
360.657921
30
0.0
11
292.500000
21
358.765838
31
0.0
0
LINE
8
VISIBLE
10
292.500000
20
363.261357
30
0.0
11
292.500000
21
360.657921
31
0.0
0
LINE
8
VISIBLE
10
292.500000
20
446.847519
30
0.0
11
292.500000
21
445.699162
31
0.0
0
LINE
8
VISIBLE
10
292.500000
20
366.531600
30
0.0
11
292.500000
21
363.261357
31
0.0
0
LINE
8
VISIBLE
10
292.500000
20
445.699162
30
0.0
11
292.500000
21
443.807079
31
0.0
0
LINE
8
VISIBLE
10
292.500000
20
370.412695
30
0.0
11
292.500000
21
366.531600
31
0.0
0
LINE
8
VISIBLE
10
292.500000
20
443.807079
30
0.0
11
292.500000
21
441.203643
31
0.0
0
LINE
8
VISIBLE
10
292.500000
20
374.838236
30
0.0
11
292.500000
21
370.412695
31
0.0
0
LINE
8
VISIBLE
10
292.500000
20
441.203643
30
0.0
11
292.500000
21
437.933400
31
0.0
0
LINE
8
VISIBLE
10
292.500000
20
379.732500
30
0.0
11
292.500000
21
374.838236
31
0.0
0
LINE
8
VISIBLE
10
292.500000
20
437.933400
30
0.0
11
292.500000
21
434.052305
31
0.0
0
LINE
8
VISIBLE
10
292.500000
20
385.011746
30
0.0
11
292.500000
21
379.732500
31
0.0
0
LINE
8
VISIBLE
10
292.500000
20
434.052305
30
0.0
11
292.500000
21
429.626764
31
0.0
0
LINE
8
VISIBLE
10
292.500000
20
390.585643
30
0.0
11
292.500000
21
385.011746
31
0.0
0
LINE
8
VISIBLE
10
292.500000
20
429.626764
30
0.0
11
292.500000
21
424.732500
31
0.0
0
LINE
8
VISIBLE
10
292.500000
20
396.358821
30
0.0
11
292.500000
21
390.585643
31
0.0
0
LINE
8
VISIBLE
10
292.500000
20
424.732500
30
0.0
11
292.500000
21
419.453254
31
0.0
0
LINE
8
VISIBLE
10
292.500000
20
402.232500
30
0.0
11
292.500000
21
396.358821
31
0.0
0
LINE
8
VISIBLE
10
292.500000
20
419.453254
30
0.0
11
292.500000
21
413.879357
31
0.0
0
LINE
8
VISIBLE
10
292.500000
20
408.106179
30
0.0
11
292.500000
21
402.232500
31
0.0
0
LINE
8
VISIBLE
10
292.500000
20
413.879357
30
0.0
11
292.500000
21
408.106179
31
0.0
0
LINE
8
VISIBLE
10
277.500000
20
357.617481
30
0.0
11
292.500000
21
357.617481
31
0.0
0
CIRCLE
8
VISIBLE
10
235.000000
20
402.232500
30
0.0
40
5.500000
0
CIRCLE
8
VISIBLE
10
175.000000
20
402.232500
30
0.0
40
5.500000
0
CIRCLE
8
VISIBLE
10
205.000000
20
432.232500
30
0.0
40
5.500000
0
LINE
8
VISIBLE
10
277.500000
20
358.765838
30
0.0
11
292.500000
21
358.765838
31
0.0
0
LINE
8
VISIBLE
10
277.500000
20
360.657921
30
0.0
11
292.500000
21
360.657921
31
0.0
0
LINE
8
VISIBLE
10
277.500000
20
363.261357
30
0.0
11
292.500000
21
363.261357
31
0.0
0
LINE
8
VISIBLE
10
277.500000
20
366.531600
30
0.0
11
292.500000
21
366.531600
31
0.0
0
LINE
8
VISIBLE
10
277.500000
20
370.412695
30
0.0
11
292.500000
21
370.412695
31
0.0
0
LINE
8
VISIBLE
10
277.500000
20
374.838236
30
0.0
11
292.500000
21
374.838236
31
0.0
0
LINE
8
VISIBLE
10
277.500000
20
379.732500
30
0.0
11
292.500000
21
379.732500
31
0.0
0
LINE
8
VISIBLE
10
277.500000
20
445.699162
30
0.0
11
292.500000
21
445.699162
31
0.0
0
LINE
8
VISIBLE
10
277.500000
20
385.011746
30
0.0
11
292.500000
21
385.011746
31
0.0
0
LINE
8
VISIBLE
10
277.500000
20
443.807079
30
0.0
11
292.500000
21
443.807079
31
0.0
0
LINE
8
VISIBLE
10
277.500000
20
390.585643
30
0.0
11
292.500000
21
390.585643
31
0.0
0
LINE
8
VISIBLE
10
277.500000
20
441.203643
30
0.0
11
292.500000
21
441.203643
31
0.0
0
LINE
8
VISIBLE
10
277.500000
20
396.358821
30
0.0
11
292.500000
21
396.358821
31
0.0
0
LINE
8
VISIBLE
10
277.500000
20
437.933400
30
0.0
11
292.500000
21
437.933400
31
0.0
0
LINE
8
VISIBLE
10
277.500000
20
402.232500
30
0.0
11
292.500000
21
402.232500
31
0.0
0
LINE
8
VISIBLE
10
277.500000
20
434.052305
30
0.0
11
292.500000
21
434.052305
31
0.0
0
LINE
8
VISIBLE
10
277.500000
20
408.106179
30
0.0
11
292.500000
21
408.106179
31
0.0
0
LINE
8
VISIBLE
10
277.500000
20
429.626764
30
0.0
11
292.500000
21
429.626764
31
0.0
0
LINE
8
VISIBLE
10
277.500000
20
413.879357
30
0.0
11
292.500000
21
413.879357
31
0.0
0
LINE
8
VISIBLE
10
277.500000
20
424.732500
30
0.0
11
292.500000
21
424.732500
31
0.0
0
LINE
8
VISIBLE
10
277.500000
20
419.453254
30
0.0
11
292.500000
21
419.453254
31
0.0
0
CIRCLE
8
VISIBLE
10
205.000000
20
372.232500
30
0.0
40
5.500000
0
LINE
8
VISIBLE
10
132.500000
20
402.232500
30
0.0
11
147.500000
21
402.232500
31
0.0
0
LINE
8
VISIBLE
10
246.000000
20
402.232500
30
0.0
11
262.500000
21
402.232500
31
0.0
0
LINE
8
VISIBLE
10
147.500000
20
402.232500
30
0.0
11
164.000000
21
402.232500
31
0.0
0
LINE
8
VISIBLE
10
262.500000
20
402.232500
30
0.0
11
277.500000
21
402.232500
31
0.0
0
ARC
8
VISIBLE
10
235.000000
20
402.232500
30
0.0
40
11.000000
50
360.000000
51
180.000000
0
ARC
8
VISIBLE
10
205.000000
20
402.232500
30
0.0
40
19.000000
50
126.778760
51
180.000000
0
CIRCLE
8
VISIBLE
10
205.000000
20
432.232500
30
0.0
40
11.000000
0
ARC
8
VISIBLE
10
235.000000
20
402.232500
30
0.0
40
11.000000
50
180.000000
51
0.000000
0
CIRCLE
8
VISIBLE
10
205.000000
20
372.232500
30
0.0
40
11.000000
0
LINE
8
HIDDEN
10
132.500000
20
357.232500
30
0.0
11
132.500000
21
447.232500
31
0.0
0
LINE
8
HIDDEN
10
132.500000
20
447.232500
30
0.0
11
205.000000
21
447.232500
31
0.0
0
LINE
8
HIDDEN
10
132.500000
20
357.232500
30
0.0
11
205.000000
21
357.232500
31
0.0
0
LINE
8
HIDDEN
10
117.500000
20
357.232500
30
0.0
11
117.500000
21
447.232500
31
0.0
0
LINE
8
HIDDEN
10
205.000000
20
447.232500
30
0.0
11
277.500000
21
447.232500
31
0.0
0
ARC
8
HIDDEN
10
205.000000
20
402.232500
30
0.0
40
45.000000
50
270.000000
51
360.000000
0
ARC
8
HIDDEN
10
205.000000
20
402.232500
30
0.0
40
45.000000
50
0.000000
51
90.000000
0
CIRCLE
8
HIDDEN
10
205.000000
20
402.232500
30
0.0
40
45.000000
0
LINE
8
HIDDEN
10
205.000000
20
357.232500
30
0.0
11
277.500000
21
357.232500
31
0.0
0
LINE
8
HIDDEN
10
117.500000
20
402.232500
30
0.0
11
117.500000
21
396.732500
31
0.0
0
LINE
8
HIDDEN
10
117.500000
20
396.732500
30
0.0
11
117.500000
21
407.732500
31
0.0
0
LINE
8
HIDDEN
10
117.500000
20
407.732500
30
0.0
11
117.500000
21
402.232500
31
0.0
0
LINE
8
HIDDEN
10
117.500000
20
432.232500
30
0.0
11
117.500000
21
426.732500
31
0.0
0
LINE
8
HIDDEN
10
117.500000
20
426.732500
30
0.0
11
117.500000
21
437.732500
31
0.0
0
LINE
8
HIDDEN
10
117.500000
20
437.732500
30
0.0
11
117.500000
21
432.232500
31
0.0
0
LINE
8
HIDDEN
10
117.500000
20
402.232500
30
0.0
11
117.500000
21
387.232500
31
0.0
0
LINE
8
HIDDEN
10
117.500000
20
387.232500
30
0.0
11
117.500000
21
417.232500
31
0.0
0
LINE
8
HIDDEN
10
117.500000
20
417.232500
30
0.0
11
117.500000
21
402.232500
31
0.0
0
LINE
8
HIDDEN
10
117.500000
20
402.232500
30
0.0
11
117.500000
21
396.732500
31
0.0
0
LINE
8
HIDDEN
10
117.500000
20
396.732500
30
0.0
11
117.500000
21
407.732500
31
0.0
0
LINE
8
HIDDEN
10
117.500000
20
407.732500
30
0.0
11
117.500000
21
402.232500
31
0.0
0
LINE
8
HIDDEN
10
117.500000
20
372.232500
30
0.0
11
117.500000
21
366.732500
31
0.0
0
LINE
8
HIDDEN
10
117.500000
20
366.732500
30
0.0
11
117.500000
21
377.732500
31
0.0
0
LINE
8
HIDDEN
10
117.500000
20
377.732500
30
0.0
11
117.500000
21
372.232500
31
0.0
0
LINE
8
HIDDEN
10
132.500000
20
447.232500
30
0.0
11
132.500000
21
402.232500
31
0.0
0
LINE
8
HIDDEN
10
224.000000
20
402.232500
30
0.0
11
223.982343
21
403.051446
31
0.0
0
LINE
8
HIDDEN
10
186.017657
20
403.051446
30
0.0
11
186.000000
21
402.232500
31
0.0
0
LINE
8
HIDDEN
10
277.500000
20
447.232500
30
0.0
11
277.500000
21
402.232500
31
0.0
0
LINE
8
HIDDEN
10
277.500000
20
357.232500
30
0.0
11
277.500000
21
447.232500
31
0.0
0
CIRCLE
8
HIDDEN
10
205.000000
20
402.232500
30
0.0
40
40.000000
0
LINE
8
HIDDEN
10
132.500000
20
402.232500
30
0.0
11
132.500000
21
357.232500
31
0.0
0
LINE
8
HIDDEN
10
186.000000
20
402.232500
30
0.0
11
186.017657
21
401.413554
31
0.0
0
LINE
8
HIDDEN
10
277.500000
20
402.232500
30
0.0
11
277.500000
21
357.232500
31
0.0
0
LINE
8
HIDDEN
10
132.500000
20
407.634238
30
0.0
11
132.500000
21
447.232500
31
0.0
0
LINE
8
HIDDEN
10
132.500000
20
407.634238
30
0.0
11
132.500000
21
407.732500
31
0.0
0
LINE
8
HIDDEN
10
132.500000
20
407.732500
30
0.0
11
132.500000
21
402.232500
31
0.0
0
LINE
8
HIDDEN
10
132.500000
20
402.232500
30
0.0
11
132.500000
21
396.732500
31
0.0
0
LINE
8
HIDDEN
10
132.500000
20
396.732500
30
0.0
11
132.500000
21
396.830762
31
0.0
0
LINE
8
HIDDEN
10
132.500000
20
357.232500
30
0.0
11
132.500000
21
396.830762
31
0.0
0
LINE
8
HIDDEN
10
132.500000
20
396.830762
30
0.0
11
132.500000
21
407.634238
31
0.0
0
LINE
8
HIDDEN
10
132.500000
20
402.232500
30
0.0
11
132.500000
21
396.732500
31
0.0
0
LINE
8
HIDDEN
10
132.500000
20
396.732500
30
0.0
11
132.500000
21
407.732500
31
0.0
0
LINE
8
HIDDEN
10
132.500000
20
407.732500
30
0.0
11
132.500000
21
402.232500
31
0.0
0
LINE
8
HIDDEN
10
132.500000
20
432.232500
30
0.0
11
132.500000
21
426.732500
31
0.0
0
LINE
8
HIDDEN
10
132.500000
20
426.732500
30
0.0
11
132.500000
21
437.732500
31
0.0
0
LINE
8
HIDDEN
10
132.500000
20
437.732500
30
0.0
11
132.500000
21
432.232500
31
0.0
0
LINE
8
HIDDEN
10
132.500000
20
402.232500
30
0.0
11
132.500000
21
387.232500
31
0.0
0
LINE
8
HIDDEN
10
132.500000
20
387.232500
30
0.0
11
132.500000
21
417.232500
31
0.0
0
LINE
8
HIDDEN
10
132.500000
20
417.232500
30
0.0
11
132.500000
21
402.232500
31
0.0
0
LINE
8
HIDDEN
10
132.500000
20
372.232500
30
0.0
11
132.500000
21
366.732500
31
0.0
0
LINE
8
HIDDEN
10
132.500000
20
366.732500
30
0.0
11
132.500000
21
377.732500
31
0.0
0
LINE
8
HIDDEN
10
132.500000
20
377.732500
30
0.0
11
132.500000
21
372.232500
31
0.0
0
CIRCLE
8
HIDDEN
10
175.000000
20
402.232500
30
0.0
40
11.000000
0
LINE
8
HIDDEN
10
277.500000
20
407.634238
30
0.0
11
277.500000
21
447.232500
31
0.0
0
LINE
8
HIDDEN
10
277.500000
20
407.634238
30
0.0
11
277.500000
21
407.732500
31
0.0
0
LINE
8
HIDDEN
10
277.500000
20
407.732500
30
0.0
11
277.500000
21
402.232500
31
0.0
0
LINE
8
HIDDEN
10
277.500000
20
402.232500
30
0.0
11
277.500000
21
396.732500
31
0.0
0
LINE
8
HIDDEN
10
277.500000
20
396.732500
30
0.0
11
277.500000
21
396.830762
31
0.0
0
LINE
8
HIDDEN
10
277.500000
20
357.232500
30
0.0
11
277.500000
21
396.830762
31
0.0
0
LINE
8
HIDDEN
10
277.500000
20
396.830762
30
0.0
11
277.500000
21
407.634238
31
0.0
0
LINE
8
HIDDEN
10
277.500000
20
402.232500
30
0.0
11
277.500000
21
396.732500
31
0.0
0
LINE
8
HIDDEN
10
277.500000
20
396.732500
30
0.0
11
277.500000
21
407.732500
31
0.0
0
LINE
8
HIDDEN
10
277.500000
20
407.732500
30
0.0
11
277.500000
21
402.232500
31
0.0
0
LINE
8
HIDDEN
10
277.500000
20
432.232500
30
0.0
11
277.500000
21
426.732500
31
0.0
0
LINE
8
HIDDEN
10
277.500000
20
426.732500
30
0.0
11
277.500000
21
437.732500
31
0.0
0
LINE
8
HIDDEN
10
277.500000
20
437.732500
30
0.0
11
277.500000
21
432.232500
31
0.0
0
LINE
8
HIDDEN
10
277.500000
20
402.232500
30
0.0
11
277.500000
21
387.232500
31
0.0
0
LINE
8
HIDDEN
10
277.500000
20
387.232500
30
0.0
11
277.500000
21
417.232500
31
0.0
0
LINE
8
HIDDEN
10
277.500000
20
417.232500
30
0.0
11
277.500000
21
402.232500
31
0.0
0
LINE
8
HIDDEN
10
277.500000
20
372.232500
30
0.0
11
277.500000
21
366.732500
31
0.0
0
LINE
8
HIDDEN
10
277.500000
20
366.732500
30
0.0
11
277.500000
21
377.732500
31
0.0
0
LINE
8
HIDDEN
10
277.500000
20
377.732500
30
0.0
11
277.500000
21
372.232500
31
0.0
0
LINE
8
HIDDEN
10
292.500000
20
357.232500
30
0.0
11
292.500000
21
447.232500
31
0.0
0
LINE
8
HIDDEN
10
292.500000
20
402.232500
30
0.0
11
292.500000
21
396.732500
31
0.0
0
LINE
8
HIDDEN
10
292.500000
20
396.732500
30
0.0
11
292.500000
21
407.732500
31
0.0
0
LINE
8
HIDDEN
10
292.500000
20
407.732500
30
0.0
11
292.500000
21
402.232500
31
0.0
0
LINE
8
HIDDEN
10
292.500000
20
432.232500
30
0.0
11
292.500000
21
426.732500
31
0.0
0
LINE
8
HIDDEN
10
292.500000
20
426.732500
30
0.0
11
292.500000
21
437.732500
31
0.0
0
LINE
8
HIDDEN
10
292.500000
20
437.732500
30
0.0
11
292.500000
21
432.232500
31
0.0
0
LINE
8
HIDDEN
10
292.500000
20
402.232500
30
0.0
11
292.500000
21
387.232500
31
0.0
0
LINE
8
HIDDEN
10
292.500000
20
387.232500
30
0.0
11
292.500000
21
417.232500
31
0.0
0
LINE
8
HIDDEN
10
292.500000
20
417.232500
30
0.0
11
292.500000
21
402.232500
31
0.0
0
LINE
8
HIDDEN
10
292.500000
20
402.232500
30
0.0
11
292.500000
21
396.732500
31
0.0
0
LINE
8
HIDDEN
10
292.500000
20
396.732500
30
0.0
11
292.500000
21
407.732500
31
0.0
0
LINE
8
HIDDEN
10
292.500000
20
407.732500
30
0.0
11
292.500000
21
402.232500
31
0.0
0
LINE
8
HIDDEN
10
292.500000
20
372.232500
30
0.0
11
292.500000
21
366.732500
31
0.0
0
LINE
8
HIDDEN
10
292.500000
20
366.732500
30
0.0
11
292.500000
21
377.732500
31
0.0
0
LINE
8
HIDDEN
10
292.500000
20
377.732500
30
0.0
11
292.500000
21
372.232500
31
0.0
0
CIRCLE
8
HIDDEN
10
205.000000
20
402.232500
30
0.0
40
40.000000
0
LINE
8
HIDDEN
10
117.500000
20
432.232500
30
0.0
11
132.500000
21
432.232500
31
0.0
0
LINE
8
HIDDEN
10
117.500000
20
372.232500
30
0.0
11
132.500000
21
372.232500
31
0.0
0
LINE
8
HIDDEN
10
277.500000
20
432.232500
30
0.0
11
292.500000
21
432.232500
31
0.0
0
LINE
8
HIDDEN
10
277.500000
20
372.232500
30
0.0
11
292.500000
21
372.232500
31
0.0
0
LINE
8
HIDDEN
10
117.500000
20
407.732500
30
0.0
11
132.500000
21
407.732500
31
0.0
0
LINE
8
HIDDEN
10
117.500000
20
396.732500
30
0.0
11
132.500000
21
396.732500
31
0.0
0
LINE
8
HIDDEN
10
117.500000
20
437.732500
30
0.0
11
132.500000
21
437.732500
31
0.0
0
LINE
8
HIDDEN
10
117.500000
20
426.732500
30
0.0
11
132.500000
21
426.732500
31
0.0
0
LINE
8
HIDDEN
10
117.500000
20
417.232500
30
0.0
11
132.500000
21
417.232500
31
0.0
0
LINE
8
HIDDEN
10
117.500000
20
387.232500
30
0.0
11
132.500000
21
387.232500
31
0.0
0
LINE
8
HIDDEN
10
117.500000
20
407.732500
30
0.0
11
132.500000
21
407.732500
31
0.0
0
LINE
8
HIDDEN
10
117.500000
20
396.732500
30
0.0
11
132.500000
21
396.732500
31
0.0
0
LINE
8
HIDDEN
10
117.500000
20
377.732500
30
0.0
11
132.500000
21
377.732500
31
0.0
0
LINE
8
HIDDEN
10
117.500000
20
366.732500
30
0.0
11
132.500000
21
366.732500
31
0.0
0
LINE
8
HIDDEN
10
277.500000
20
407.732500
30
0.0
11
292.500000
21
407.732500
31
0.0
0
LINE
8
HIDDEN
10
277.500000
20
396.732500
30
0.0
11
292.500000
21
396.732500
31
0.0
0
LINE
8
HIDDEN
10
277.500000
20
407.732500
30
0.0
11
292.500000
21
407.732500
31
0.0
0
LINE
8
HIDDEN
10
277.500000
20
396.732500
30
0.0
11
292.500000
21
396.732500
31
0.0
0
LINE
8
HIDDEN
10
277.500000
20
437.732500
30
0.0
11
292.500000
21
437.732500
31
0.0
0
LINE
8
HIDDEN
10
277.500000
20
426.732500
30
0.0
11
292.500000
21
426.732500
31
0.0
0
LINE
8
HIDDEN
10
277.500000
20
417.232500
30
0.0
11
292.500000
21
417.232500
31
0.0
0
LINE
8
HIDDEN
10
277.500000
20
387.232500
30
0.0
11
292.500000
21
387.232500
31
0.0
0
LINE
8
HIDDEN
10
277.500000
20
377.732500
30
0.0
11
292.500000
21
377.732500
31
0.0
0
LINE
8
HIDDEN
10
277.500000
20
366.732500
30
0.0
11
292.500000
21
366.732500
31
0.0
0
ARC
8
HIDDEN
10
205.000000
20
402.232500
30
0.0
40
45.000000
50
90.000000
51
270.000000
0
ARC
8
HIDDEN
10
234.997571
20
402.224276
30
0.0
40
11.006315
50
0.042826
51
184.209388
0
ARC
8
HIDDEN
10
205.000000
20
432.232500
30
0.0
40
11.000000
50
2.133486
51
360.000000
0
ARC
8
HIDDEN
10
205.000000
20
372.232500
30
0.0
40
11.000000
50
181.066503
51
360.000000
0
LINE
8
VISIBLE
10
375.500000
20
275.732500
30
0.0
11
330.500000
21
275.732500
31
0.0
0
LINE
8
VISIBLE
10
420.500000
20
275.732500
30
0.0
11
375.500000
21
275.732500
31
0.0
0
LINE
8
VISIBLE
10
330.500000
20
255.732500
30
0.0
11
330.500000
21
191.767500
31
0.0
0
LINE
8
VISIBLE
10
330.500000
20
255.732500
30
0.0
11
330.500000
21
270.732500
31
0.0
0
LINE
8
VISIBLE
10
420.500000
20
270.732500
30
0.0
11
330.500000
21
270.732500
31
0.0
0
LINE
8
VISIBLE
10
420.500000
20
270.732500
30
0.0
11
420.500000
21
255.732500
31
0.0
0
LINE
8
VISIBLE
10
420.500000
20
191.767500
30
0.0
11
420.500000
21
255.732500
31
0.0
0
LINE
8
VISIBLE
10
330.500000
20
191.767500
30
0.0
11
330.884981
21
185.893821
31
0.0
0
LINE
8
VISIBLE
10
420.115019
20
185.893821
30
0.0
11
420.500000
21
191.767500
31
0.0
0
LINE
8
VISIBLE
10
420.500000
20
255.732500
30
0.0
11
330.500000
21
255.732500
31
0.0
0
LINE
8
VISIBLE
10
418.966662
20
180.120643
30
0.0
11
420.115019
21
185.893821
31
0.0
0
LINE
8
VISIBLE
10
417.074579
20
174.546746
30
0.0
11
418.966662
21
180.120643
31
0.0
0
LINE
8
VISIBLE
10
414.471143
20
169.267500
30
0.0
11
417.074579
21
174.546746
31
0.0
0
LINE
8
VISIBLE
10
330.884981
20
185.893821
30
0.0
11
332.033338
21
180.120643
31
0.0
0
LINE
8
VISIBLE
10
411.200900
20
164.373236
30
0.0
11
414.471143
21
169.267500
31
0.0
0
LINE
8
VISIBLE
10
332.033338
20
180.120643
30
0.0
11
333.925421
21
174.546746
31
0.0
0
LINE
8
VISIBLE
10
407.319805
20
159.947695
30
0.0
11
411.200900
21
164.373236
31
0.0
0
LINE
8
VISIBLE
10
333.925421
20
174.546746
30
0.0
11
336.528857
21
169.267500
31
0.0
0
LINE
8
VISIBLE
10
402.894264
20
156.066600
30
0.0
11
407.319805
21
159.947695
31
0.0
0
LINE
8
VISIBLE
10
336.528857
20
169.267500
30
0.0
11
339.799100
21
164.373236
31
0.0
0
LINE
8
VISIBLE
10
398.000000
20
152.796357
30
0.0
11
402.894264
21
156.066600
31
0.0
0
LINE
8
VISIBLE
10
339.799100
20
164.373236
30
0.0
11
343.680195
21
159.947695
31
0.0
0
LINE
8
VISIBLE
10
392.720754
20
150.192921
30
0.0
11
398.000000
21
152.796357
31
0.0
0
LINE
8
VISIBLE
10
343.680195
20
159.947695
30
0.0
11
348.105736
21
156.066600
31
0.0
0
LINE
8
VISIBLE
10
387.146857
20
148.300838
30
0.0
11
392.720754
21
150.192921
31
0.0
0
LINE
8
VISIBLE
10
348.105736
20
156.066600
30
0.0
11
353.000000
21
152.796357
31
0.0
0
LINE
8
VISIBLE
10
381.373679
20
147.152481
30
0.0
11
387.146857
21
148.300838
31
0.0
0
LINE
8
VISIBLE
10
353.000000
20
152.796357
30
0.0
11
358.279246
21
150.192921
31
0.0
0
LINE
8
VISIBLE
10
375.500000
20
146.767500
30
0.0
11
381.373679
21
147.152481
31
0.0
0
LINE
8
VISIBLE
10
358.279246
20
150.192921
30
0.0
11
363.853143
21
148.300838
31
0.0
0
LINE
8
VISIBLE
10
369.626321
20
147.152481
30
0.0
11
375.500000
21
146.767500
31
0.0
0
LINE
8
VISIBLE
10
363.853143
20
148.300838
30
0.0
11
369.626321
21
147.152481
31
0.0
0
CIRCLE
8
VISIBLE
10
375.500000
20
161.767500
30
0.0
40
5.500000
0
CIRCLE
8
VISIBLE
10
345.500000
20
191.767500
30
0.0
40
5.500000
0
CIRCLE
8
VISIBLE
10
375.500000
20
191.767500
30
0.0
40
15.000000
0
CIRCLE
8
VISIBLE
10
375.500000
20
221.767500
30
0.0
40
5.500000
0
CIRCLE
8
VISIBLE
10
405.500000
20
191.767500
30
0.0
40
5.500000
0
LINE
8
VISIBLE
10
375.500000
20
285.232500
30
0.0
11
335.500000
21
285.232500
31
0.0
0
LINE
8
VISIBLE
10
415.500000
20
285.232500
30
0.0
11
375.500000
21
285.232500
31
0.0
0
LINE
8
VISIBLE
10
375.500000
20
270.732500
30
0.0
11
375.500000
21
275.732500
31
0.0
0
LINE
8
VISIBLE
10
375.500000
20
275.732500
30
0.0
11
375.500000
21
285.232500
31
0.0
0
LINE
8
VISIBLE
10
330.500000
20
270.732500
30
0.0
11
330.500000
21
275.732500
31
0.0
0
LINE
8
VISIBLE
10
420.500000
20
270.732500
30
0.0
11
420.500000
21
275.732500
31
0.0
0
LINE
8
VISIBLE
10
335.500000
20
275.732500
30
0.0
11
335.500000
21
285.232500
31
0.0
0
LINE
8
VISIBLE
10
415.500000
20
275.732500
30
0.0
11
415.500000
21
285.232500
31
0.0
0
LINE
8
SECTION
10
618.500000
20
245.732500
30
0.0
11
603.500000
21
260.732500
31
0.0
0
LINE
8
SECTION
10
603.500000
20
260.732500
30
0.0
11
587.000000
21
260.732500
31
0.0
0
LINE
8
SECTION
10
587.000000
20
260.732500
30
0.0
11
587.000000
21
270.732500
31
0.0
0
LINE
8
SECTION
10
581.500000
20
270.732500
30
0.0
11
587.000000
21
270.732500
31
0.0
0
LINE
8
SECTION
10
581.500000
20
270.732500
30
0.0
11
581.500000
21
285.232500
31
0.0
0
LINE
8
SECTION
10
581.500000
20
285.232500
30
0.0
11
586.000000
21
285.232500
31
0.0
0
LINE
8
SECTION
10
586.000000
20
275.732500
30
0.0
11
586.000000
21
285.232500
31
0.0
0
LINE
8
SECTION
10
586.000000
20
275.732500
30
0.0
11
591.000000
21
275.732500
31
0.0
0
LINE
8
SECTION
10
591.000000
20
270.732500
30
0.0
11
591.000000
21
275.732500
31
0.0
0
LINE
8
SECTION
10
591.000000
20
270.732500
30
0.0
11
618.500000
21
270.732500
31
0.0
0
LINE
8
SECTION
10
618.500000
20
270.732500
30
0.0
11
633.500000
21
255.732500
31
0.0
0
LINE
8
SECTION
10
633.500000
20
255.732500
30
0.0
11
633.500000
21
227.267500
31
0.0
0
LINE
8
SECTION
10
633.500000
20
227.267500
30
0.0
11
618.500000
21
227.267500
31
0.0
0
LINE
8
SECTION
10
618.500000
20
227.267500
30
0.0
11
618.500000
21
245.732500
31
0.0
0
LINE
8
SECTION
10
501.000000
20
270.732500
30
0.0
11
501.000000
21
275.732500
31
0.0
0
LINE
8
SECTION
10
501.000000
20
275.732500
30
0.0
11
506.000000
21
275.732500
31
0.0
0
LINE
8
SECTION
10
506.000000
20
275.732500
30
0.0
11
506.000000
21
285.232500
31
0.0
0
LINE
8
SECTION
10
506.000000
20
285.232500
30
0.0
11
510.500000
21
285.232500
31
0.0
0
LINE
8
SECTION
10
510.500000
20
270.732500
30
0.0
11
510.500000
21
285.232500
31
0.0
0
LINE
8
SECTION
10
505.000000
20
270.732500
30
0.0
11
510.500000
21
270.732500
31
0.0
0
LINE
8
SECTION
10
505.000000
20
260.732500
30
0.0
11
505.000000
21
270.732500
31
0.0
0
LINE
8
SECTION
10
505.000000
20
260.732500
30
0.0
11
488.500000
21
260.732500
31
0.0
0
LINE
8
SECTION
10
488.500000
20
260.732500
30
0.0
11
473.500000
21
245.732500
31
0.0
0
LINE
8
SECTION
10
473.500000
20
227.267500
30
0.0
11
473.500000
21
245.732500
31
0.0
0
LINE
8
SECTION
10
473.500000
20
227.267500
30
0.0
11
458.500000
21
227.267500
31
0.0
0
LINE
8
SECTION
10
458.500000
20
255.732500
30
0.0
11
458.500000
21
227.267500
31
0.0
0
LINE
8
SECTION
10
473.500000
20
270.732500
30
0.0
11
458.500000
21
255.732500
31
0.0
0
LINE
8
SECTION
10
473.500000
20
270.732500
30
0.0
11
501.000000
21
270.732500
31
0.0
0
LINE
8
SECTION
10
633.500000
20
146.767500
30
0.0
11
618.500000
21
146.767500
31
0.0
0
LINE
8
SECTION
10
618.500000
20
156.267500
30
0.0
11
618.500000
21
146.767500
31
0.0
0
LINE
8
SECTION
10
633.500000
20
156.267500
30
0.0
11
618.500000
21
156.267500
31
0.0
0
LINE
8
SECTION
10
633.500000
20
156.267500
30
0.0
11
633.500000
21
146.767500
31
0.0
0
LINE
8
SECTION
10
633.500000
20
167.267500
30
0.0
11
618.500000
21
167.267500
31
0.0
0
LINE
8
SECTION
10
618.500000
20
176.767500
30
0.0
11
618.500000
21
167.267500
31
0.0
0
LINE
8
SECTION
10
633.500000
20
176.767500
30
0.0
11
618.500000
21
176.767500
31
0.0
0
LINE
8
SECTION
10
633.500000
20
176.767500
30
0.0
11
633.500000
21
167.267500
31
0.0
0
LINE
8
SECTION
10
633.500000
20
206.767500
30
0.0
11
618.500000
21
206.767500
31
0.0
0
LINE
8
SECTION
10
618.500000
20
216.267500
30
0.0
11
618.500000
21
206.767500
31
0.0
0
LINE
8
SECTION
10
633.500000
20
216.267500
30
0.0
11
618.500000
21
216.267500
31
0.0
0
LINE
8
SECTION
10
633.500000
20
216.267500
30
0.0
11
633.500000
21
206.767500
31
0.0
0
LINE
8
SECTION
10
561.000000
20
259.032500
30
0.0
11
565.000000
21
259.032500
31
0.0
0
LINE
8
SECTION
10
561.000000
20
259.032500
30
0.0
11
561.000000
21
285.232500
31
0.0
0
LINE
8
SECTION
10
561.000000
20
285.232500
30
0.0
11
570.500000
21
285.232500
31
0.0
0
LINE
8
SECTION
10
570.500000
20
270.732500
30
0.0
11
570.500000
21
285.232500
31
0.0
0
LINE
8
SECTION
10
565.000000
20
270.732500
30
0.0
11
570.500000
21
270.732500
31
0.0
0
LINE
8
SECTION
10
565.000000
20
260.732500
30
0.0
11
565.000000
21
270.732500
31
0.0
0
LINE
8
SECTION
10
565.000000
20
259.032500
30
0.0
11
565.000000
21
260.732500
31
0.0
0
LINE
8
SECTION
10
527.000000
20
259.032500
30
0.0
11
527.000000
21
260.732500
31
0.0
0
LINE
8
SECTION
10
527.000000
20
260.732500
30
0.0
11
527.000000
21
270.732500
31
0.0
0
LINE
8
SECTION
10
521.500000
20
270.732500
30
0.0
11
527.000000
21
270.732500
31
0.0
0
LINE
8
SECTION
10
521.500000
20
270.732500
30
0.0
11
521.500000
21
285.232500
31
0.0
0
LINE
8
SECTION
10
521.500000
20
285.232500
30
0.0
11
531.000000
21
285.232500
31
0.0
0
LINE
8
SECTION
10
531.000000
20
259.032500
30
0.0
11
531.000000
21
285.232500
31
0.0
0
LINE
8
SECTION
10
527.000000
20
259.032500
30
0.0
11
531.000000
21
259.032500
31
0.0
0
LINE
8
SECTION
10
473.500000
20
206.767500
30
0.0
11
458.500000
21
206.767500
31
0.0
0
LINE
8
SECTION
10
458.500000
20
216.267500
30
0.0
11
458.500000
21
206.767500
31
0.0
0
LINE
8
SECTION
10
473.500000
20
216.267500
30
0.0
11
458.500000
21
216.267500
31
0.0
0
LINE
8
SECTION
10
473.500000
20
216.267500
30
0.0
11
473.500000
21
206.767500
31
0.0
0
LINE
8
SECTION
10
473.500000
20
146.767500
30
0.0
11
458.500000
21
146.767500
31
0.0
0
LINE
8
SECTION
10
458.500000
20
156.267500
30
0.0
11
458.500000
21
146.767500
31
0.0
0
LINE
8
SECTION
10
473.500000
20
156.267500
30
0.0
11
458.500000
21
156.267500
31
0.0
0
LINE
8
SECTION
10
473.500000
20
156.267500
30
0.0
11
473.500000
21
146.767500
31
0.0
0
LINE
8
SECTION
10
473.500000
20
167.267500
30
0.0
11
458.500000
21
167.267500
31
0.0
0
LINE
8
SECTION
10
458.500000
20
176.767500
30
0.0
11
458.500000
21
167.267500
31
0.0
0
LINE
8
SECTION
10
473.500000
20
176.767500
30
0.0
11
458.500000
21
176.767500
31
0.0
0
LINE
8
SECTION
10
473.500000
20
176.767500
30
0.0
11
473.500000
21
167.267500
31
0.0
0
LINE
8
VISIBLE
10
792.784334
20
570.000000
30
0.0
11
774.898363
21
559.673530
31
0.0
0
LINE
8
VISIBLE
10
792.784334
20
570.000000
30
0.0
11
796.484879
21
567.863489
31
0.0
0
LINE
8
VISIBLE
10
796.484879
20
567.863489
30
0.0
11
818.688153
21
555.044423
31
0.0
0
LINE
8
VISIBLE
10
805.449003
20
544.066588
30
0.0
11
804.232270
21
543.364107
31
0.0
0
LINE
8
VISIBLE
10
795.199022
20
538.148758
30
0.0
11
782.916212
21
531.057275
31
0.0
0
LINE
8
VISIBLE
10
779.215666
20
522.518538
30
0.0
11
782.916212
21
531.057275
31
0.0
0
LINE
8
VISIBLE
10
781.217792
20
563.322054
30
0.0
11
777.203646
21
562.196485
31
0.0
0
LINE
8
VISIBLE
10
777.203646
20
562.196485
30
0.0
11
774.020386
21
560.547278
31
0.0
0
LINE
8
VISIBLE
10
774.020386
20
560.547278
30
0.0
11
771.839170
21
558.602568
31
0.0
0
LINE
8
VISIBLE
10
771.839170
20
558.602568
30
0.0
11
771.045965
21
557.449347
31
0.0
0
LINE
8
VISIBLE
10
789.083788
20
560.256259
30
0.0
11
792.784334
21
555.990544
31
0.0
0
LINE
8
VISIBLE
10
789.083788
20
560.256259
30
0.0
11
760.712938
21
543.876341
31
0.0
0
LINE
8
VISIBLE
10
792.784334
20
555.990544
30
0.0
11
792.784334
21
570.000000
31
0.0
0
LINE
8
VISIBLE
10
757.012392
20
535.337604
30
0.0
11
760.712938
21
543.876341
31
0.0
0
LINE
8
VISIBLE
10
757.012392
20
535.337604
30
0.0
11
757.012392
21
549.347060
31
0.0
0
LINE
8
VISIBLE
10
774.898363
20
559.673530
30
0.0
11
757.012392
21
549.347060
31
0.0
0
LINE
8
VISIBLE
10
774.898363
20
558.961360
30
0.0
11
774.898363
21
559.673530
31
0.0
0
LINE
8
VISIBLE
10
796.484879
20
549.641899
30
0.0
11
796.484879
21
567.863489
31
0.0
0
LINE
8
VISIBLE
10
792.784334
20
555.756593
30
0.0
11
792.784334
21
555.990544
31
0.0
0
LINE
8
VISIBLE
10
792.784334
20
547.505388
30
0.0
11
792.784334
21
555.756593
31
0.0
0
LINE
8
VISIBLE
10
796.484879
20
549.641899
30
0.0
11
792.784334
21
547.505388
31
0.0
0
LINE
8
VISIBLE
10
796.579855
20
547.913840
30
0.0
11
796.484879
21
549.641899
31
0.0
0
LINE
8
VISIBLE
10
796.863158
20
546.105681
30
0.0
11
796.579855
21
547.913840
31
0.0
0
LINE
8
VISIBLE
10
818.688153
20
555.044423
30
0.0
11
818.688153
21
536.822832
31
0.0
0
LINE
8
VISIBLE
10
797.329941
20
544.248358
30
0.0
11
796.863158
21
546.105681
31
0.0
0
LINE
8
VISIBLE
10
818.688153
20
536.822832
30
0.0
11
818.593177
21
535.204443
31
0.0
0
LINE
8
VISIBLE
10
797.972217
20
542.373651
30
0.0
11
797.329941
21
544.248358
31
0.0
0
LINE
8
VISIBLE
10
818.593177
20
535.204443
30
0.0
11
818.309874
21
533.723413
31
0.0
0
LINE
8
VISIBLE
10
798.778996
20
540.513637
30
0.0
11
797.972217
21
542.373651
31
0.0
0
LINE
8
VISIBLE
10
818.309874
20
533.723413
30
0.0
11
817.843091
21
532.405085
31
0.0
0
LINE
8
VISIBLE
10
799.736474
20
538.700141
30
0.0
11
798.778996
21
540.513637
31
0.0
0
LINE
8
VISIBLE
10
817.843091
20
532.405085
30
0.0
11
817.200816
21
531.272014
31
0.0
0
LINE
8
VISIBLE
10
800.828268
20
536.964193
30
0.0
11
799.736474
21
538.700141
31
0.0
0
LINE
8
VISIBLE
10
817.200816
20
531.272014
30
0.0
11
816.394037
21
530.343588
31
0.0
0
LINE
8
VISIBLE
10
802.035698
20
535.335495
30
0.0
11
800.828268
21
536.964193
31
0.0
0
LINE
8
VISIBLE
10
816.394037
20
530.343588
30
0.0
11
815.436559
21
529.635693
31
0.0
0
LINE
8
VISIBLE
10
803.338104
20
533.841915
30
0.0
11
802.035698
21
535.335495
31
0.0
0
LINE
8
VISIBLE
10
815.436559
20
529.635693
30
0.0
11
814.344765
21
529.160440
31
0.0
0
LINE
8
VISIBLE
10
804.713201
20
532.509008
30
0.0
11
803.338104
21
533.841915
31
0.0
0
LINE
8
VISIBLE
10
814.344765
20
529.160440
30
0.0
11
813.137335
21
528.925962
31
0.0
0
LINE
8
VISIBLE
10
806.137462
20
531.359580
30
0.0
11
804.713201
21
532.509008
31
0.0
0
LINE
8
VISIBLE
10
813.137335
20
528.925962
30
0.0
11
811.834929
21
528.936271
31
0.0
0
LINE
8
VISIBLE
10
807.586516
20
530.413299
30
0.0
11
806.137462
21
531.359580
31
0.0
0
LINE
8
VISIBLE
10
811.834929
20
528.936271
30
0.0
11
810.459831
21
529.191189
31
0.0
0
LINE
8
VISIBLE
10
809.035571
20
529.686356
30
0.0
11
807.586516
21
530.413299
31
0.0
0
LINE
8
VISIBLE
10
810.459831
20
529.191189
30
0.0
11
809.035571
21
529.686356
31
0.0
0
LINE
8
VISIBLE
10
807.586516
20
536.253096
30
0.0
11
806.627067
21
536.348137
31
0.0
0
LINE
8
VISIBLE
10
806.627067
20
536.348137
30
0.0
11
806.246034
21
535.702997
31
0.0
0
LINE
8
VISIBLE
10
806.246034
20
535.702997
30
0.0
11
806.439052
21
534.512617
31
0.0
0
LINE
8
VISIBLE
10
806.439052
20
534.512617
30
0.0
11
807.335969
21
533.291142
31
0.0
0
LINE
8
VISIBLE
10
807.335969
20
533.291142
30
0.0
11
808.545966
21
533.024506
31
0.0
0
LINE
8
VISIBLE
10
808.545966
20
533.024506
30
0.0
11
808.926998
21
533.669646
31
0.0
0
LINE
8
VISIBLE
10
808.926998
20
533.669646
30
0.0
11
808.733980
21
534.860026
31
0.0
0
LINE
8
VISIBLE
10
808.733980
20
534.860026
30
0.0
11
807.586516
21
536.253096
31
0.0
0
LINE
8
VISIBLE
10
814.987608
20
540.526118
30
0.0
11
814.028158
21
540.621159
31
0.0
0
LINE
8
VISIBLE
10
814.028158
20
540.621159
30
0.0
11
813.647125
21
539.976019
31
0.0
0
LINE
8
VISIBLE
10
813.647125
20
539.976019
30
0.0
11
813.840144
21
538.785639
31
0.0
0
LINE
8
VISIBLE
10
813.840144
20
538.785639
30
0.0
11
814.737060
21
537.564164
31
0.0
0
LINE
8
VISIBLE
10
814.737060
20
537.564164
30
0.0
11
815.947057
21
537.297528
31
0.0
0
LINE
8
VISIBLE
10
815.947057
20
537.297528
30
0.0
11
816.328090
21
537.942668
31
0.0
0
LINE
8
VISIBLE
10
816.328090
20
537.942668
30
0.0
11
816.135071
21
539.133048
31
0.0
0
LINE
8
VISIBLE
10
816.135071
20
539.133048
30
0.0
11
814.987608
21
540.526118
31
0.0
0
LINE
8
VISIBLE
10
807.586516
20
547.505388
30
0.0
11
805.987592
21
548.009071
31
0.0
0
LINE
8
VISIBLE
10
805.987592
20
548.009071
30
0.0
11
804.969835
21
547.764590
31
0.0
0
LINE
8
VISIBLE
10
804.969835
20
547.764590
30
0.0
11
804.183899
21
546.876642
31
0.0
0
LINE
8
VISIBLE
10
804.183899
20
546.876642
30
0.0
11
803.885974
21
545.362813
31
0.0
0
LINE
8
VISIBLE
10
803.885974
20
545.362813
30
0.0
11
804.262664
21
543.273080
31
0.0
0
LINE
8
VISIBLE
10
804.262664
20
543.273080
30
0.0
11
805.428006
21
541.007776
31
0.0
0
LINE
8
VISIBLE
10
805.428006
20
541.007776
30
0.0
11
807.132290
21
539.253903
31
0.0
0
LINE
8
VISIBLE
10
807.132290
20
539.253903
30
0.0
11
808.816235
21
538.492196
31
0.0
0
LINE
8
VISIBLE
10
808.816235
20
538.492196
30
0.0
11
810.203197
21
538.700141
31
0.0
0
LINE
8
VISIBLE
10
810.203197
20
538.700141
30
0.0
11
810.989134
21
539.588089
31
0.0
0
LINE
8
VISIBLE
10
810.989134
20
539.588089
30
0.0
11
811.287058
21
541.101918
31
0.0
0
LINE
8
VISIBLE
10
811.287058
20
541.101918
30
0.0
11
810.910369
21
543.191651
31
0.0
0
LINE
8
VISIBLE
10
810.910369
20
543.191651
30
0.0
11
809.745027
21
545.456955
31
0.0
0
LINE
8
VISIBLE
10
809.745027
20
545.456955
30
0.0
11
807.586516
21
547.505388
31
0.0
0
LINE
8
VISIBLE
10
807.586516
20
553.345184
30
0.0
11
806.627067
21
553.440225
31
0.0
0
LINE
8
VISIBLE
10
806.627067
20
553.440225
30
0.0
11
806.246034
21
552.795085
31
0.0
0
LINE
8
VISIBLE
10
806.246034
20
552.795085
30
0.0
11
806.439052
21
551.604705
31
0.0
0
LINE
8
VISIBLE
10
806.439052
20
551.604705
30
0.0
11
807.335969
21
550.383230
31
0.0
0
LINE
8
VISIBLE
10
807.335969
20
550.383230
30
0.0
11
808.545966
21
550.116594
31
0.0
0
LINE
8
VISIBLE
10
808.545966
20
550.116594
30
0.0
11
808.926998
21
550.761734
31
0.0
0
LINE
8
VISIBLE
10
808.926998
20
550.761734
30
0.0
11
808.733980
21
551.952114
31
0.0
0
LINE
8
VISIBLE
10
808.733980
20
551.952114
30
0.0
11
807.586516
21
553.345184
31
0.0
0
LINE
8
VISIBLE
10
800.185425
20
549.072162
30
0.0
11
799.225975
21
549.167203
31
0.0
0
LINE
8
VISIBLE
10
799.225975
20
549.167203
30
0.0
11
798.844943
21
548.522063
31
0.0
0
LINE
8
VISIBLE
10
798.844943
20
548.522063
30
0.0
11
799.037961
21
547.331683
31
0.0
0
LINE
8
VISIBLE
10
799.037961
20
547.331683
30
0.0
11
799.934878
21
546.110208
31
0.0
0
LINE
8
VISIBLE
10
799.934878
20
546.110208
30
0.0
11
801.144875
21
545.843572
31
0.0
0
LINE
8
VISIBLE
10
801.144875
20
545.843572
30
0.0
11
801.525907
21
546.488712
31
0.0
0
LINE
8
VISIBLE
10
801.525907
20
546.488712
30
0.0
11
801.332889
21
547.679092
31
0.0
0
LINE
8
VISIBLE
10
801.332889
20
547.679092
30
0.0
11
800.185425
21
549.072162
31
0.0
0
LINE
8
VISIBLE
10
775.885175
20
544.575519
30
0.0
11
778.719457
21
543.794384
31
0.0
0
LINE
8
VISIBLE
10
778.719457
20
543.794384
30
0.0
11
780.701241
21
544.047610
31
0.0
0
LINE
8
VISIBLE
10
780.701241
20
544.047610
30
0.0
11
782.271714
21
545.304299
31
0.0
0
LINE
8
VISIBLE
10
782.271714
20
545.304299
30
0.0
11
782.436707
21
546.016942
31
0.0
0
LINE
8
VISIBLE
10
782.436707
20
546.016942
30
0.0
11
782.248803
21
546.775559
31
0.0
0
LINE
8
VISIBLE
10
792.560801
20
549.383764
30
0.0
11
786.947909
21
546.143159
31
0.0
0
LINE
8
VISIBLE
10
792.628925
20
550.038922
30
0.0
11
792.291660
21
551.470013
31
0.0
0
LINE
8
VISIBLE
10
792.291660
20
551.470013
30
0.0
11
790.687358
21
553.121563
31
0.0
0
LINE
8
VISIBLE
10
782.916212
20
531.057275
30
0.0
11
779.626160
21
535.522240
31
0.0
0
LINE
8
VISIBLE
10
779.626160
20
535.522240
30
0.0
11
775.967968
21
539.233017
31
0.0
0
LINE
8
VISIBLE
10
775.967968
20
539.233017
30
0.0
11
771.814575
21
542.225357
31
0.0
0
LINE
8
VISIBLE
10
790.687358
20
553.121563
30
0.0
11
792.784334
21
552.415885
31
0.0
0
LINE
8
VISIBLE
10
790.687358
20
542.619351
30
0.0
11
792.369631
21
541.222154
31
0.0
0
LINE
8
VISIBLE
10
792.369631
20
541.222154
30
0.0
11
794.184890
21
540.490442
31
0.0
0
LINE
8
VISIBLE
10
792.790717
20
547.389246
30
0.0
11
790.687358
21
546.948780
31
0.0
0
LINE
8
VISIBLE
10
790.687358
20
546.948780
30
0.0
11
789.754423
21
545.972498
31
0.0
0
LINE
8
VISIBLE
10
789.754423
20
545.972498
30
0.0
11
789.563293
21
545.094482
31
0.0
0
LINE
8
VISIBLE
10
789.563293
20
545.094482
30
0.0
11
789.968099
21
543.641245
31
0.0
0
LINE
8
VISIBLE
10
789.968099
20
543.641245
30
0.0
11
790.687358
21
542.619351
31
0.0
0
LINE
8
VISIBLE
10
779.215666
20
522.518538
30
0.0
11
776.924948
21
526.880537
31
0.0
0
LINE
8
VISIBLE
10
776.924948
20
526.880537
30
0.0
11
774.009860
21
530.822226
31
0.0
0
LINE
8
VISIBLE
10
774.009860
20
530.822226
30
0.0
11
770.743478
21
533.994893
31
0.0
0
LINE
8
VISIBLE
10
770.743478
20
533.994893
30
0.0
11
768.114029
21
535.815824
31
0.0
0
LINE
8
VISIBLE
10
779.215666
20
522.518538
30
0.0
11
779.215666
21
522.284587
31
0.0
0
LINE
8
VISIBLE
10
779.215666
20
522.284587
30
0.0
11
779.215666
21
514.033381
31
0.0
0
LINE
8
VISIBLE
10
771.814575
20
542.225357
30
0.0
11
768.242568
21
543.849804
31
0.0
0
LINE
8
VISIBLE
10
768.242568
20
543.849804
30
0.0
11
765.013435
21
544.514081
31
0.0
0
LINE
8
VISIBLE
10
765.013435
20
544.514081
30
0.0
11
762.208549
21
544.340531
31
0.0
0
LINE
8
VISIBLE
10
762.208549
20
544.340531
30
0.0
11
760.712938
21
543.876341
31
0.0
0
LINE
8
VISIBLE
10
780.143864
20
548.137689
30
0.0
11
778.478361
21
548.223705
31
0.0
0
LINE
8
VISIBLE
10
778.478361
20
548.223705
30
0.0
11
776.478931
21
547.747801
31
0.0
0
LINE
8
VISIBLE
10
776.478931
20
547.747801
30
0.0
11
774.878945
21
546.501750
31
0.0
0
LINE
8
VISIBLE
10
774.878945
20
546.501750
30
0.0
11
774.761110
21
546.016942
31
0.0
0
LINE
8
VISIBLE
10
774.761110
20
546.016942
30
0.0
11
775.198942
21
545.092254
31
0.0
0
LINE
8
VISIBLE
10
775.198942
20
545.092254
30
0.0
11
775.885175
21
544.575519
31
0.0
0
LINE
8
VISIBLE
10
779.439199
20
550.478315
30
0.0
11
779.371075
21
550.038922
31
0.0
0
LINE
8
VISIBLE
10
785.052091
20
553.718920
30
0.0
11
779.439199
21
550.478315
31
0.0
0
LINE
8
VISIBLE
10
792.343854
20
556.626287
30
0.0
11
790.687358
21
556.003600
31
0.0
0
LINE
8
VISIBLE
10
790.687358
20
556.003600
30
0.0
11
789.563293
21
554.562987
31
0.0
0
LINE
8
VISIBLE
10
789.563293
20
554.562987
30
0.0
11
790.001124
21
553.638298
31
0.0
0
LINE
8
VISIBLE
10
790.001124
20
553.638298
30
0.0
11
790.687358
21
553.121563
31
0.0
0
LINE
8
VISIBLE
10
790.687358
20
553.121563
30
0.0
11
788.087502
21
553.897285
31
0.0
0
LINE
8
VISIBLE
10
788.087502
20
553.897285
30
0.0
11
785.052091
21
553.718920
31
0.0
0
LINE
8
VISIBLE
10
775.885175
20
551.165395
30
0.0
11
778.719457
21
551.449042
31
0.0
0
LINE
8
VISIBLE
10
778.719457
20
551.449042
30
0.0
11
781.312642
21
552.361275
31
0.0
0
LINE
8
VISIBLE
10
781.312642
20
552.361275
30
0.0
11
782.436708
21
553.640526
31
0.0
0
LINE
8
VISIBLE
10
782.436708
20
553.640526
30
0.0
11
781.884743
21
554.221082
31
0.0
0
LINE
8
VISIBLE
10
781.884743
20
554.221082
30
0.0
11
780.552507
21
554.241242
31
0.0
0
LINE
8
VISIBLE
10
780.552507
20
554.241242
30
0.0
11
778.301029
21
553.578178
31
0.0
0
LINE
8
VISIBLE
10
778.301029
20
553.578178
30
0.0
11
775.885175
21
552.406323
31
0.0
0
LINE
8
VISIBLE
10
775.885175
20
552.406323
30
0.0
11
774.761110
21
551.478535
31
0.0
0
LINE
8
VISIBLE
10
774.761110
20
551.478535
30
0.0
11
775.885175
21
551.165395
31
0.0
0
LINE
8
VISIBLE
10
768.114029
20
535.815824
30
0.0
11
764.960834
21
537.198923
31
0.0
0
LINE
8
VISIBLE
10
764.960834
20
537.198923
30
0.0
11
762.166627
21
537.630347
31
0.0
0
LINE
8
VISIBLE
10
762.166627
20
537.630347
30
0.0
11
759.809329
21
537.252998
31
0.0
0
LINE
8
VISIBLE
10
759.809329
20
537.252998
30
0.0
11
757.012392
21
535.337604
31
0.0
0
LINE
8
VISIBLE
10
757.012392
20
526.852448
30
0.0
11
757.012392
21
535.103653
31
0.0
0
LINE
8
VISIBLE
10
757.012392
20
535.103653
30
0.0
11
757.012392
21
535.337604
31
0.0
0
LINE
8
VISIBLE
10
757.012392
20
549.347060
30
0.0
11
753.311847
21
542.937527
31
0.0
0
LINE
8
VISIBLE
10
753.311847
20
524.715937
30
0.0
11
753.311847
21
542.937527
31
0.0
0
LINE
8
VISIBLE
10
757.012392
20
526.852448
30
0.0
11
753.311847
21
524.715937
31
0.0
0
LINE
8
VISIBLE
10
792.879310
20
545.777329
30
0.0
11
792.784334
21
547.505388
31
0.0
0
LINE
8
VISIBLE
10
793.162613
20
543.969170
30
0.0
11
792.879310
21
545.777329
31
0.0
0
LINE
8
VISIBLE
10
793.629395
20
542.111847
30
0.0
11
793.162613
21
543.969170
31
0.0
0
LINE
8
VISIBLE
10
794.271671
20
540.237140
30
0.0
11
793.629395
21
542.111847
31
0.0
0
LINE
8
VISIBLE
10
795.078450
20
538.377126
30
0.0
11
794.271671
21
540.237140
31
0.0
0
LINE
8
VISIBLE
10
796.035928
20
536.563630
30
0.0
11
795.078450
21
538.377126
31
0.0
0
LINE
8
VISIBLE
10
797.127722
20
534.827682
30
0.0
11
796.035928
21
536.563630
31
0.0
0
LINE
8
VISIBLE
10
798.335152
20
533.198984
30
0.0
11
797.127722
21
534.827682
31
0.0
0
LINE
8
VISIBLE
10
799.637558
20
531.705404
30
0.0
11
798.335152
21
533.198984
31
0.0
0
LINE
8
VISIBLE
10
801.012656
20
530.372497
30
0.0
11
799.637558
21
531.705404
31
0.0
0
LINE
8
VISIBLE
10
802.436916
20
529.223069
30
0.0
11
801.012656
21
530.372497
31
0.0
0
LINE
8
VISIBLE
10
803.885971
20
528.276788
30
0.0
11
802.436916
21
529.223069
31
0.0
0
LINE
8
VISIBLE
10
805.335025
20
527.549845
30
0.0
11
803.885971
21
528.276788
31
0.0
0
LINE
8
VISIBLE
10
811.736013
20
527.499182
30
0.0
11
810.644219
21
527.023929
31
0.0
0
LINE
8
VISIBLE
10
806.759286
20
527.054678
30
0.0
11
805.335025
21
527.549845
31
0.0
0
LINE
8
VISIBLE
10
810.644219
20
527.023929
30
0.0
11
809.436789
21
526.789451
31
0.0
0
LINE
8
VISIBLE
10
808.134383
20
526.799759
30
0.0
11
806.759286
21
527.054678
31
0.0
0
LINE
8
VISIBLE
10
809.436789
20
526.789451
30
0.0
11
808.134383
21
526.799759
31
0.0
0
LINE
8
VISIBLE
10
807.586516
20
538.959343
30
0.0
11
807.212388
21
541.047595
31
0.0
0
LINE
8
VISIBLE
10
807.212388
20
541.047595
30
0.0
11
806.049483
21
543.313401
31
0.0
0
LINE
8
VISIBLE
10
806.049483
20
543.313401
30
0.0
11
803.885971
21
545.368877
31
0.0
0
LINE
8
VISIBLE
10
796.579855
20
547.913840
30
0.0
11
792.879310
21
545.777329
31
0.0
0
LINE
8
VISIBLE
10
796.863158
20
546.105681
30
0.0
11
793.162613
21
543.969170
31
0.0
0
LINE
8
VISIBLE
10
797.329941
20
544.248358
30
0.0
11
793.629395
21
542.111847
31
0.0
0
LINE
8
VISIBLE
10
797.972217
20
542.373651
30
0.0
11
794.271671
21
540.237140
31
0.0
0
LINE
8
VISIBLE
10
798.778996
20
540.513637
30
0.0
11
795.078450
21
538.377126
31
0.0
0
LINE
8
VISIBLE
10
799.736474
20
538.700141
30
0.0
11
796.035928
21
536.563630
31
0.0
0
LINE
8
VISIBLE
10
800.828268
20
536.964193
30
0.0
11
797.127722
21
534.827682
31
0.0
0
LINE
8
VISIBLE
10
802.035698
20
535.335495
30
0.0
11
798.335152
21
533.198984
31
0.0
0
LINE
8
VISIBLE
10
815.436559
20
529.635693
30
0.0
11
811.736013
21
527.499182
31
0.0
0
LINE
8
VISIBLE
10
803.338104
20
533.841915
30
0.0
11
799.637558
21
531.705404
31
0.0
0
LINE
8
VISIBLE
10
814.344765
20
529.160440
30
0.0
11
810.644219
21
527.023929
31
0.0
0
LINE
8
VISIBLE
10
804.713201
20
532.509008
30
0.0
11
801.012656
21
530.372497
31
0.0
0
LINE
8
VISIBLE
10
813.137335
20
528.925962
30
0.0
11
809.436789
21
526.789451
31
0.0
0
LINE
8
VISIBLE
10
806.137462
20
531.359580
30
0.0
11
802.436916
21
529.223069
31
0.0
0
LINE
8
VISIBLE
10
811.834929
20
528.936271
30
0.0
11
808.134383
21
526.799759
31
0.0
0
LINE
8
VISIBLE
10
807.586516
20
530.413299
30
0.0
11
803.885971
21
528.276788
31
0.0
0
LINE
8
VISIBLE
10
810.459831
20
529.191189
30
0.0
11
806.759286
21
527.054678
31
0.0
0
LINE
8
VISIBLE
10
809.035571
20
529.686356
30
0.0
11
805.335025
21
527.549845
31
0.0
0
LINE
8
VISIBLE
10
781.312642
20
547.224792
30
0.0
11
783.526354
21
546.380278
31
0.0
0
LINE
8
VISIBLE
10
783.526354
20
546.380278
30
0.0
11
786.947909
21
546.143159
31
0.0
0
LINE
8
VISIBLE
10
775.885175
20
547.424200
30
0.0
11
777.627979
21
546.847302
31
0.0
0
LINE
8
VISIBLE
10
777.627979
20
546.847302
30
0.0
11
779.820726
21
546.890510
31
0.0
0
LINE
8
VISIBLE
10
779.820726
20
546.890510
30
0.0
11
781.138043
21
547.329500
31
0.0
0
LINE
8
VISIBLE
10
775.856568
20
547.440892
30
0.0
11
775.885175
21
547.424200
31
0.0
0
LINE
8
VISIBLE
10
779.439199
20
550.478315
30
0.0
11
779.371075
21
549.931040
31
0.0
0
LINE
8
VISIBLE
10
779.371075
20
549.931040
30
0.0
11
779.748055
21
548.658794
31
0.0
0
LINE
8
VISIBLE
10
779.748055
20
548.658794
30
0.0
11
781.312642
21
547.224792
31
0.0
0
LINE
8
VISIBLE
10
792.560801
20
549.383764
30
0.0
11
792.628925
21
549.931040
31
0.0
0
LINE
8
VISIBLE
10
792.628925
20
549.931040
30
0.0
11
792.251945
21
551.203286
31
0.0
0
LINE
8
VISIBLE
10
792.251945
20
551.203286
30
0.0
11
790.687358
21
552.637287
31
0.0
0
LINE
8
VISIBLE
10
790.687358
20
552.637287
30
0.0
11
788.473646
21
553.481801
31
0.0
0
LINE
8
VISIBLE
10
788.473646
20
553.481801
30
0.0
11
785.052091
21
553.718920
31
0.0
0
LINE
8
VISIBLE
10
782.299454
20
547.794529
30
0.0
11
784.294997
21
547.074408
31
0.0
0
LINE
8
VISIBLE
10
784.294997
20
547.074408
30
0.0
11
786.838695
21
546.948610
31
0.0
0
LINE
8
VISIBLE
10
786.838695
20
546.948610
30
0.0
11
789.211646
21
547.545430
31
0.0
0
LINE
8
VISIBLE
10
789.211646
20
547.545430
30
0.0
11
790.716743
21
548.622043
31
0.0
0
LINE
8
VISIBLE
10
790.716743
20
548.622043
30
0.0
11
791.233362
21
549.931040
31
0.0
0
LINE
8
VISIBLE
10
791.233362
20
549.931040
30
0.0
11
790.857345
21
551.055655
31
0.0
0
LINE
8
VISIBLE
10
790.857345
20
551.055655
30
0.0
11
789.695292
21
552.070580
31
0.0
0
LINE
8
VISIBLE
10
789.695292
20
552.070580
30
0.0
11
787.697186
21
552.789223
31
0.0
0
LINE
8
VISIBLE
10
787.697186
20
552.789223
30
0.0
11
785.152704
21
552.912659
31
0.0
0
LINE
8
VISIBLE
10
785.152704
20
552.912659
30
0.0
11
782.781663
21
552.313642
31
0.0
0
LINE
8
VISIBLE
10
782.781663
20
552.313642
30
0.0
11
781.280033
21
551.236157
31
0.0
0
LINE
8
VISIBLE
10
781.280033
20
551.236157
30
0.0
11
780.766638
21
549.931040
31
0.0
0
LINE
8
VISIBLE
10
780.766638
20
549.931040
30
0.0
11
781.142655
21
548.806425
31
0.0
0
LINE
8
VISIBLE
10
781.142655
20
548.806425
30
0.0
11
782.299454
21
547.794529
31
0.0
0
LINE
8
VISIBLE
10
790.687358
20
552.637287
30
0.0
11
790.687358
21
553.121563
31
0.0
0
LINE
8
VISIBLE
10
790.687358
20
555.970244
30
0.0
11
792.784334
21
555.350065
31
0.0
0
LINE
8
VISIBLE
10
790.658751
20
555.986936
30
0.0
11
790.687358
21
555.970244
31
0.0
0
LINE
8
VISIBLE
10
791.190101
20
547.179877
30
0.0
11
792.823075
21
546.800496
31
0.0
0
LINE
8
VISIBLE
10
769.446655
20
527.924729
30
0.0
11
779.215666
21
522.284587
31
0.0
0
LINE
8
VISIBLE
10
769.446655
20
527.924729
30
0.0
11
769.289928
21
529.091803
31
0.0
0
LINE
8
VISIBLE
10
769.289928
20
529.091803
30
0.0
11
768.114029
21
530.555733
31
0.0
0
LINE
8
VISIBLE
10
768.114029
20
530.555733
30
0.0
11
767.154580
21
530.650774
31
0.0
0
LINE
8
VISIBLE
10
767.154580
20
530.650774
30
0.0
11
766.781404
21
529.463512
31
0.0
0
LINE
8
VISIBLE
10
757.012392
20
535.103653
30
0.0
11
766.781404
21
529.463512
31
0.0
0
LINE
8
VISIBLE
10
757.107368
20
525.124389
30
0.0
11
757.012392
21
526.852448
31
0.0
0
LINE
8
VISIBLE
10
757.390671
20
523.316230
30
0.0
11
757.107368
21
525.124389
31
0.0
0
LINE
8
VISIBLE
10
757.857454
20
521.458907
30
0.0
11
757.390671
21
523.316230
31
0.0
0
LINE
8
VISIBLE
10
758.499730
20
519.584200
30
0.0
11
757.857454
21
521.458907
31
0.0
0
LINE
8
VISIBLE
10
766.781404
20
529.463512
30
0.0
11
767.347839
21
528.138240
31
0.0
0
LINE
8
VISIBLE
10
767.347839
20
528.138240
30
0.0
11
768.413357
21
527.287966
31
0.0
0
LINE
8
VISIBLE
10
768.413357
20
527.287966
30
0.0
11
769.073479
21
527.327143
31
0.0
0
LINE
8
VISIBLE
10
769.073479
20
527.327143
30
0.0
11
769.446655
21
527.924729
31
0.0
0
LINE
8
VISIBLE
10
759.306509
20
517.724186
30
0.0
11
758.499730
21
519.584200
31
0.0
0
LINE
8
VISIBLE
10
760.263987
20
515.910690
30
0.0
11
759.306509
21
517.724186
31
0.0
0
LINE
8
VISIBLE
10
761.355781
20
514.174742
30
0.0
11
760.263987
21
515.910690
31
0.0
0
LINE
8
VISIBLE
10
779.215666
20
514.033381
30
0.0
11
779.120690
21
512.414992
31
0.0
0
LINE
8
VISIBLE
10
762.563211
20
512.546044
30
0.0
11
761.355781
21
514.174742
31
0.0
0
LINE
8
VISIBLE
10
779.120690
20
512.414992
30
0.0
11
778.837387
21
510.933963
31
0.0
0
LINE
8
VISIBLE
10
763.865617
20
511.052464
30
0.0
11
762.563211
21
512.546044
31
0.0
0
LINE
8
VISIBLE
10
778.837387
20
510.933963
30
0.0
11
778.370605
21
509.615634
31
0.0
0
LINE
8
VISIBLE
10
765.240714
20
509.719557
30
0.0
11
763.865617
21
511.052464
31
0.0
0
LINE
8
VISIBLE
10
778.370605
20
509.615634
30
0.0
11
777.728329
21
508.482563
31
0.0
0
LINE
8
VISIBLE
10
766.664975
20
508.570129
30
0.0
11
765.240714
21
509.719557
31
0.0
0
LINE
8
VISIBLE
10
777.728329
20
508.482563
30
0.0
11
776.921550
21
507.554137
31
0.0
0
LINE
8
VISIBLE
10
768.114029
20
507.623848
30
0.0
11
766.664975
21
508.570129
31
0.0
0
LINE
8
VISIBLE
10
776.921550
20
507.554137
30
0.0
11
775.964072
21
506.846242
31
0.0
0
LINE
8
VISIBLE
10
769.563084
20
506.896905
30
0.0
11
768.114029
21
507.623848
31
0.0
0
LINE
8
VISIBLE
10
775.964072
20
506.846242
30
0.0
11
774.872278
21
506.370989
31
0.0
0
LINE
8
VISIBLE
10
770.987344
20
506.401738
30
0.0
11
769.563084
21
506.896905
31
0.0
0
LINE
8
VISIBLE
10
774.872278
20
506.370989
30
0.0
11
773.664848
21
506.136511
31
0.0
0
LINE
8
VISIBLE
10
772.362442
20
506.146820
30
0.0
11
770.987344
21
506.401738
31
0.0
0
LINE
8
VISIBLE
10
773.664848
20
506.136511
30
0.0
11
772.362442
21
506.146820
31
0.0
0
LINE
8
VISIBLE
10
768.114029
20
513.463645
30
0.0
11
767.154580
21
513.558686
31
0.0
0
LINE
8
VISIBLE
10
767.154580
20
513.558686
30
0.0
11
766.773547
21
512.913546
31
0.0
0
LINE
8
VISIBLE
10
766.773547
20
512.913546
30
0.0
11
766.966565
21
511.723166
31
0.0
0
LINE
8
VISIBLE
10
766.966565
20
511.723166
30
0.0
11
767.863482
21
510.501691
31
0.0
0
LINE
8
VISIBLE
10
767.863482
20
510.501691
30
0.0
11
769.073479
21
510.235055
31
0.0
0
LINE
8
VISIBLE
10
769.073479
20
510.235055
30
0.0
11
769.454512
21
510.880195
31
0.0
0
LINE
8
VISIBLE
10
769.454512
20
510.880195
30
0.0
11
769.261493
21
512.070575
31
0.0
0
LINE
8
VISIBLE
10
769.261493
20
512.070575
30
0.0
11
768.114029
21
513.463645
31
0.0
0
LINE
8
VISIBLE
10
775.515121
20
517.736667
30
0.0
11
774.555671
21
517.831708
31
0.0
0
LINE
8
VISIBLE
10
774.555671
20
517.831708
30
0.0
11
774.174639
21
517.186568
31
0.0
0
LINE
8
VISIBLE
10
774.174639
20
517.186568
30
0.0
11
774.367657
21
515.996188
31
0.0
0
LINE
8
VISIBLE
10
774.367657
20
515.996188
30
0.0
11
775.264573
21
514.774713
31
0.0
0
LINE
8
VISIBLE
10
775.264573
20
514.774713
30
0.0
11
776.474570
21
514.508077
31
0.0
0
LINE
8
VISIBLE
10
776.474570
20
514.508077
30
0.0
11
776.855603
21
515.153217
31
0.0
0
LINE
8
VISIBLE
10
776.855603
20
515.153217
30
0.0
11
776.662585
21
516.343597
31
0.0
0
LINE
8
VISIBLE
10
776.662585
20
516.343597
30
0.0
11
775.515121
21
517.736667
31
0.0
0
LINE
8
VISIBLE
10
768.114029
20
524.715937
30
0.0
11
766.515105
21
525.219620
31
0.0
0
LINE
8
VISIBLE
10
766.515105
20
525.219620
30
0.0
11
765.497348
21
524.975139
31
0.0
0
LINE
8
VISIBLE
10
765.497348
20
524.975139
30
0.0
11
764.711412
21
524.087191
31
0.0
0
LINE
8
VISIBLE
10
764.711412
20
524.087191
30
0.0
11
764.413487
21
522.573362
31
0.0
0
LINE
8
VISIBLE
10
764.413487
20
522.573362
30
0.0
11
764.790177
21
520.483629
31
0.0
0
LINE
8
VISIBLE
10
764.790177
20
520.483629
30
0.0
11
765.955519
21
518.218325
31
0.0
0
LINE
8
VISIBLE
10
765.955519
20
518.218325
30
0.0
11
767.659803
21
516.464452
31
0.0
0
LINE
8
VISIBLE
10
767.659803
20
516.464452
30
0.0
11
769.343748
21
515.702745
31
0.0
0
LINE
8
VISIBLE
10
769.343748
20
515.702745
30
0.0
11
770.730710
21
515.910690
31
0.0
0
LINE
8
VISIBLE
10
770.730710
20
515.910690
30
0.0
11
771.516647
21
516.798638
31
0.0
0
LINE
8
VISIBLE
10
771.516647
20
516.798638
30
0.0
11
771.814571
21
518.312467
31
0.0
0
LINE
8
VISIBLE
10
771.814571
20
518.312467
30
0.0
11
771.437882
21
520.402200
31
0.0
0
LINE
8
VISIBLE
10
771.437882
20
520.402200
30
0.0
11
770.272540
21
522.667504
31
0.0
0
LINE
8
VISIBLE
10
770.272540
20
522.667504
30
0.0
11
768.114029
21
524.715937
31
0.0
0
LINE
8
VISIBLE
10
760.712938
20
526.282711
30
0.0
11
759.753488
21
526.377752
31
0.0
0
LINE
8
VISIBLE
10
759.753488
20
526.377752
30
0.0
11
759.372456
21
525.732612
31
0.0
0
LINE
8
VISIBLE
10
759.372456
20
525.732612
30
0.0
11
759.565474
21
524.542232
31
0.0
0
LINE
8
VISIBLE
10
759.565474
20
524.542232
30
0.0
11
760.462391
21
523.320757
31
0.0
0
LINE
8
VISIBLE
10
760.462391
20
523.320757
30
0.0
11
761.672388
21
523.054121
31
0.0
0
LINE
8
VISIBLE
10
761.672388
20
523.054121
30
0.0
11
762.053420
21
523.699261
31
0.0
0
LINE
8
VISIBLE
10
762.053420
20
523.699261
30
0.0
11
761.860402
21
524.889641
31
0.0
0
LINE
8
VISIBLE
10
761.860402
20
524.889641
30
0.0
11
760.712938
21
526.282711
31
0.0
0
LINE
8
VISIBLE
10
753.406823
20
522.987878
30
0.0
11
753.311847
21
524.715937
31
0.0
0
LINE
8
VISIBLE
10
753.690126
20
521.179719
30
0.0
11
753.406823
21
522.987878
31
0.0
0
LINE
8
VISIBLE
10
754.156909
20
519.322396
30
0.0
11
753.690126
21
521.179719
31
0.0
0
LINE
8
VISIBLE
10
754.799184
20
517.447689
30
0.0
11
754.156909
21
519.322396
31
0.0
0
LINE
8
VISIBLE
10
755.605963
20
515.587675
30
0.0
11
754.799184
21
517.447689
31
0.0
0
LINE
8
VISIBLE
10
756.563441
20
513.774179
30
0.0
11
755.605963
21
515.587675
31
0.0
0
LINE
8
VISIBLE
10
757.655235
20
512.038231
30
0.0
11
756.563441
21
513.774179
31
0.0
0
LINE
8
VISIBLE
10
758.862665
20
510.409533
30
0.0
11
757.655235
21
512.038231
31
0.0
0
LINE
8
VISIBLE
10
760.165071
20
508.915953
30
0.0
11
758.862665
21
510.409533
31
0.0
0
LINE
8
VISIBLE
10
772.263526
20
504.709731
30
0.0
11
771.171732
21
504.234478
31
0.0
0
LINE
8
VISIBLE
10
761.540169
20
507.583046
30
0.0
11
760.165071
21
508.915953
31
0.0
0
LINE
8
VISIBLE
10
771.171732
20
504.234478
30
0.0
11
769.964302
21
504.000000
31
0.0
0
LINE
8
VISIBLE
10
762.964429
20
506.433618
30
0.0
11
761.540169
21
507.583046
31
0.0
0
LINE
8
VISIBLE
10
769.964302
20
504.000000
30
0.0
11
768.661896
21
504.010309
31
0.0
0
LINE
8
VISIBLE
10
764.413484
20
505.487337
30
0.0
11
762.964429
21
506.433618
31
0.0
0
LINE
8
VISIBLE
10
768.661896
20
504.010309
30
0.0
11
767.286799
21
504.265227
31
0.0
0
LINE
8
VISIBLE
10
765.862538
20
504.760394
30
0.0
11
764.413484
21
505.487337
31
0.0
0
LINE
8
VISIBLE
10
767.286799
20
504.265227
30
0.0
11
765.862538
21
504.760394
31
0.0
0
LINE
8
VISIBLE
10
768.114029
20
516.169892
30
0.0
11
767.739901
21
518.258144
31
0.0
0
LINE
8
VISIBLE
10
767.739901
20
518.258144
30
0.0
11
766.576996
21
520.523950
31
0.0
0
LINE
8
VISIBLE
10
766.576996
20
520.523950
30
0.0
11
764.413484
21
522.579426
31
0.0
0
LINE
8
VISIBLE
10
784.860116
20
565.424951
30
0.0
11
780.709768
21
564.850524
31
0.0
0
LINE
8
VISIBLE
10
780.709768
20
564.850524
30
0.0
11
777.132622
21
563.616301
31
0.0
0
LINE
8
VISIBLE
10
777.132622
20
563.616301
30
0.0
11
774.466796
21
561.931282
31
0.0
0
LINE
8
VISIBLE
10
774.466796
20
561.931282
30
0.0
11
772.410259
21
559.227486
31
0.0
0
LINE
8
VISIBLE
10
757.107368
20
525.124389
30
0.0
11
753.406823
21
522.987878
31
0.0
0
LINE
8
VISIBLE
10
777.519089
20
548.075157
30
0.0
11
778.949087
21
547.901701
31
0.0
0
LINE
8
VISIBLE
10
778.949087
20
547.901701
30
0.0
11
779.907055
21
548.180434
31
0.0
0
LINE
8
VISIBLE
10
792.321272
20
556.621202
30
0.0
11
792.357640
21
556.607255
31
0.0
0
LINE
8
VISIBLE
10
757.390671
20
523.316230
30
0.0
11
753.690126
21
521.179719
31
0.0
0
LINE
8
VISIBLE
10
757.857454
20
521.458907
30
0.0
11
754.156909
21
519.322396
31
0.0
0
LINE
8
VISIBLE
10
758.499730
20
519.584200
30
0.0
11
754.799184
21
517.447689
31
0.0
0
LINE
8
VISIBLE
10
759.306509
20
517.724186
30
0.0
11
755.605963
21
515.587675
31
0.0
0
LINE
8
VISIBLE
10
760.263987
20
515.910690
30
0.0
11
756.563441
21
513.774179
31
0.0
0
LINE
8
VISIBLE
10
761.355781
20
514.174742
30
0.0
11
757.655235
21
512.038231
31
0.0
0
LINE
8
VISIBLE
10
762.563211
20
512.546044
30
0.0
11
758.862665
21
510.409533
31
0.0
0
LINE
8
VISIBLE
10
763.865617
20
511.052464
30
0.0
11
760.165071
21
508.915953
31
0.0
0
LINE
8
VISIBLE
10
765.240714
20
509.719557
30
0.0
11
761.540169
21
507.583046
31
0.0
0
LINE
8
VISIBLE
10
766.664975
20
508.570129
30
0.0
11
762.964429
21
506.433618
31
0.0
0
LINE
8
VISIBLE
10
768.114029
20
507.623848
30
0.0
11
764.413484
21
505.487337
31
0.0
0
LINE
8
VISIBLE
10
775.964072
20
506.846242
30
0.0
11
772.263526
21
504.709731
31
0.0
0
LINE
8
VISIBLE
10
769.563084
20
506.896905
30
0.0
11
765.862538
21
504.760394
31
0.0
0
LINE
8
VISIBLE
10
774.872278
20
506.370989
30
0.0
11
771.171732
21
504.234478
31
0.0
0
LINE
8
VISIBLE
10
770.987344
20
506.401738
30
0.0
11
767.286799
21
504.265227
31
0.0
0
LINE
8
VISIBLE
10
773.664848
20
506.136511
30
0.0
11
769.964302
21
504.000000
31
0.0
0
LINE
8
VISIBLE
10
772.362442
20
506.146820
30
0.0
11
768.661896
21
504.010309
31
0.0
0
LINE
8
VISIBLE
10
775.885175
20
544.575519
30
0.0
11
771.814575
21
542.225357
31
0.0
0
LINE
8
VISIBLE
10
771.814575
20
542.225357
30
0.0
11
768.114029
21
535.815824
31
0.0
0
LINE
8
VISIBLE
10
807.586516
20
536.253096
30
0.0
11
806.229650
21
535.469709
31
0.0
0
LINE
8
VISIBLE
10
814.987608
20
540.526118
30
0.0
11
813.630741
21
539.742731
31
0.0
0
LINE
8
VISIBLE
10
807.586516
20
547.505388
30
0.0
11
803.885971
21
545.368877
31
0.0
0
LINE
8
VISIBLE
10
807.586516
20
553.345184
30
0.0
11
806.229650
21
552.561797
31
0.0
0
LINE
8
VISIBLE
10
800.185425
20
549.072162
30
0.0
11
798.828558
21
548.288775
31
0.0
0
LINE
8
VISIBLE
10
775.885175
20
544.575519
30
0.0
11
775.885175
21
547.424200
31
0.0
0
LINE
8
VISIBLE
10
790.687358
20
553.121563
30
0.0
11
790.687358
21
555.970244
31
0.0
0
LINE
8
VISIBLE
10
790.687358
20
542.619351
30
0.0
11
790.687358
21
546.948780
31
0.0
0
LINE
8
VISIBLE
10
775.885175
20
551.165395
30
0.0
11
775.885175
21
552.406323
31
0.0
0
LINE
8
VISIBLE
10
782.299454
20
547.794529
30
0.0
11
782.299454
21
552.067551
31
0.0
0
LINE
8
VISIBLE
10
768.114029
20
530.555733
30
0.0
11
766.757163
21
529.772346
31
0.0
0
LINE
8
VISIBLE
10
768.114029
20
513.463645
30
0.0
11
766.757163
21
512.680258
31
0.0
0
LINE
8
VISIBLE
10
775.515121
20
517.736667
30
0.0
11
774.158254
21
516.953280
31
0.0
0
LINE
8
VISIBLE
10
768.114029
20
524.715937
30
0.0
11
764.413484
21
522.579426
31
0.0
0
LINE
8
VISIBLE
10
760.712938
20
526.282711
30
0.0
11
759.356071
21
525.499324
31
0.0
0
LINE
8
VISIBLE
10
792.628925
20
549.931040
30
0.0
11
792.628925
21
550.038922
31
0.0
0
LINE
8
VISIBLE
10
779.371075
20
549.931040
30
0.0
11
779.371075
21
550.038922
31
0.0
0
LINE
8
DIM
10
117.500000
20
145.567500
30
0.0
11
117.500000
21
132.767500
31
0.0
0
LINE
8
DIM
10
292.500000
20
145.567500
30
0.0
11
292.500000
21
132.767500
31
0.0
0
LINE
8
DIM
10
117.500000
20
134.767500
30
0.0
11
292.500000
21
134.767500
31
0.0
0
SOLID
8
DIM
10
117.500000
20
134.767500
30
0.0
11
120.700000
21
134.159500
31
0.0
12
120.700000
22
135.375500
32
0.0
13
120.700000
23
135.375500
33
0.0
0
SOLID
8
DIM
10
292.500000
20
134.767500
30
0.0
11
289.300000
21
135.375500
31
0.0
12
289.300000
22
134.159500
32
0.0
13
289.300000
23
134.159500
33
0.0
0
TEXT
8
TEXT
10
205.000000
20
135.767500
30
0.0
40
2.5000
1
35.00
72
1
73
0
11
205.000000
21
135.767500
31
0.0
0
LINE
8
DIM
10
116.300000
20
146.767500
30
0.0
11
103.500000
21
146.767500
31
0.0
0
LINE
8
DIM
10
116.300000
20
285.232500
30
0.0
11
103.500000
21
285.232500
31
0.0
0
LINE
8
DIM
10
105.500000
20
146.767500
30
0.0
11
105.500000
21
285.232500
31
0.0
0
SOLID
8
DIM
10
105.500000
20
146.767500
30
0.0
11
106.108000
21
149.967500
31
0.0
12
104.892000
22
149.967500
32
0.0
13
104.892000
23
149.967500
33
0.0
0
SOLID
8
DIM
10
105.500000
20
285.232500
30
0.0
11
104.892000
21
282.032500
31
0.0
12
106.108000
22
282.032500
32
0.0
13
106.108000
23
282.032500
33
0.0
0
TEXT
8
TEXT
10
104.500000
20
216.000000
30
0.0
40
2.5000
1
27.69
50
90.0000
72
1
73
0
11
104.500000
21
216.000000
31
0.0
0
TEXT
8
TEXT
10
205.000000
20
122.767500
30
0.0
40
4.0000
1
FRONT VIEW
72
1
73
0
11
205.000000
21
122.767500
31
0.0
0
LINE
8
TEXT
10
193.000000
20
121.167500
30
0.0
11
217.000000
21
121.167500
31
0.0
0
TEXT
8
TEXT
10
205.000000
20
116.767500
30
0.0
40
2.4000
1
-X →   Z ↑
72
1
73
0
11
205.000000
21
116.767500
31
0.0
0
LINE
8
CENTER
10
192.400000
20
432.232500
30
0.0
11
203.800000
21
432.232500
31
0.0
0
LINE
8
CENTER
10
206.200000
20
432.232500
30
0.0
11
217.600000
21
432.232500
31
0.0
0
LINE
8
CENTER
10
205.000000
20
419.632500
30
0.0
11
205.000000
21
431.032500
31
0.0
0
LINE
8
CENTER
10
205.000000
20
433.432500
30
0.0
11
205.000000
21
444.832500
31
0.0
0
LINE
8
CENTER
10
162.400000
20
402.232500
30
0.0
11
173.800000
21
402.232500
31
0.0
0
LINE
8
CENTER
10
176.200000
20
402.232500
30
0.0
11
187.600000
21
402.232500
31
0.0
0
LINE
8
CENTER
10
175.000000
20
389.632500
30
0.0
11
175.000000
21
401.032500
31
0.0
0
LINE
8
CENTER
10
175.000000
20
403.432500
30
0.0
11
175.000000
21
414.832500
31
0.0
0
LINE
8
CENTER
10
188.400000
20
402.232500
30
0.0
11
203.800000
21
402.232500
31
0.0
0
LINE
8
CENTER
10
206.200000
20
402.232500
30
0.0
11
221.600000
21
402.232500
31
0.0
0
LINE
8
CENTER
10
205.000000
20
385.632500
30
0.0
11
205.000000
21
401.032500
31
0.0
0
LINE
8
CENTER
10
205.000000
20
403.432500
30
0.0
11
205.000000
21
418.832500
31
0.0
0
LINE
8
CENTER
10
222.400000
20
402.232500
30
0.0
11
233.800000
21
402.232500
31
0.0
0
LINE
8
CENTER
10
236.200000
20
402.232500
30
0.0
11
247.600000
21
402.232500
31
0.0
0
LINE
8
CENTER
10
235.000000
20
389.632500
30
0.0
11
235.000000
21
401.032500
31
0.0
0
LINE
8
CENTER
10
235.000000
20
403.432500
30
0.0
11
235.000000
21
414.832500
31
0.0
0
LINE
8
CENTER
10
192.400000
20
372.232500
30
0.0
11
203.800000
21
372.232500
31
0.0
0
LINE
8
CENTER
10
206.200000
20
372.232500
30
0.0
11
217.600000
21
372.232500
31
0.0
0
LINE
8
CENTER
10
205.000000
20
359.632500
30
0.0
11
205.000000
21
371.032500
31
0.0
0
LINE
8
CENTER
10
205.000000
20
373.432500
30
0.0
11
205.000000
21
384.832500
31
0.0
0
LINE
8
DIM
10
117.500000
20
356.032500
30
0.0
11
117.500000
21
334.232500
31
0.0
0
LINE
8
DIM
10
292.500000
20
356.032500
30
0.0
11
292.500000
21
334.232500
31
0.0
0
LINE
8
DIM
10
117.500000
20
336.232500
30
0.0
11
292.500000
21
336.232500
31
0.0
0
SOLID
8
DIM
10
117.500000
20
336.232500
30
0.0
11
120.700000
21
335.624500
31
0.0
12
120.700000
22
336.840500
32
0.0
13
120.700000
23
336.840500
33
0.0
0
SOLID
8
DIM
10
292.500000
20
336.232500
30
0.0
11
289.300000
21
336.840500
31
0.0
12
289.300000
22
335.624500
32
0.0
13
289.300000
23
335.624500
33
0.0
0
TEXT
8
TEXT
10
205.000000
20
337.232500
30
0.0
40
2.5000
1
35.00
72
1
73
0
11
205.000000
21
337.232500
31
0.0
0
LINE
8
DIM
10
116.300000
20
357.232500
30
0.0
11
94.500000
21
357.232500
31
0.0
0
LINE
8
DIM
10
116.300000
20
447.232500
30
0.0
11
94.500000
21
447.232500
31
0.0
0
LINE
8
DIM
10
96.500000
20
357.232500
30
0.0
11
96.500000
21
447.232500
31
0.0
0
SOLID
8
DIM
10
96.500000
20
357.232500
30
0.0
11
97.108000
21
360.432500
31
0.0
12
95.892000
22
360.432500
32
0.0
13
95.892000
23
360.432500
33
0.0
0
SOLID
8
DIM
10
96.500000
20
447.232500
30
0.0
11
95.892000
21
444.032500
31
0.0
12
97.108000
22
444.032500
32
0.0
13
97.108000
23
444.032500
33
0.0
0
TEXT
8
TEXT
10
95.500000
20
402.232500
30
0.0
40
2.5000
1
18.00
50
90.0000
72
1
73
0
11
95.500000
21
402.232500
31
0.0
0
SOLID
8
DIM
10
211.772276
20
440.900618
30
0.0
11
214.221503
21
443.047931
31
0.0
12
213.263282
22
443.796575
32
0.0
13
213.263282
23
443.796575
33
0.0
0
LINE
8
DIM
10
211.772276
20
440.900618
30
0.0
11
230.001140
21
464.232500
31
0.0
0
LINE
8
DIM
10
230.001140
20
464.232500
30
0.0
11
235.001140
21
464.232500
31
0.0
0
TEXT
8
TEXT
10
235.801140
20
468.857500
30
0.0
40
2.5000
1
2x Ø2.20 THRU
0
TEXT
8
TEXT
10
235.801140
20
465.232500
30
0.0
40
2.5000
1
C'BORE Ø4.40x3.37 +Z
0
SOLID
8
DIM
10
181.772276
20
410.900618
30
0.0
11
184.221503
21
413.047931
31
0.0
12
183.263282
22
413.796575
32
0.0
13
183.263282
23
413.796575
33
0.0
0
LINE
8
DIM
10
181.772276
20
410.900618
30
0.0
11
231.057244
21
473.982500
31
0.0
0
LINE
8
DIM
10
231.057244
20
473.982500
30
0.0
11
236.057244
21
473.982500
31
0.0
0
TEXT
8
TEXT
10
236.857244
20
478.607500
30
0.0
40
2.5000
1
2x Ø2.20 THRU
0
TEXT
8
TEXT
10
236.857244
20
474.982500
30
0.0
40
2.5000
1
C'BORE Ø4.40x2.00 -Z
0
SOLID
8
DIM
10
214.234922
20
414.052661
30
0.0
11
216.684149
21
416.199974
31
0.0
12
215.725928
22
416.948618
32
0.0
13
215.725928
23
416.948618
33
0.0
0
LINE
8
DIM
10
214.234922
20
414.052661
30
0.0
11
268.674779
21
483.732500
31
0.0
0
LINE
8
DIM
10
268.674779
20
483.732500
30
0.0
11
273.674779
21
483.732500
31
0.0
0
TEXT
8
TEXT
10
274.474779
20
484.732500
30
0.0
40
2.5000
1
Ø6.00 THRU
0
SOLID
8
DIM
10
160.000000
20
402.232500
30
0.0
11
156.842863
21
401.431157
31
0.0
12
157.356767
22
400.329086
32
0.0
13
157.356767
23
400.329086
33
0.0
0
LINE
8
DIM
10
160.000000
20
402.232500
30
0.0
11
150.936922
21
398.006317
31
0.0
0
LINE
8
DIM
10
150.936922
20
398.006317
30
0.0
11
147.936922
21
398.006317
31
0.0
0
TEXT
8
TEXT
10
147.136922
20
399.006317
30
0.0
40
2.5000
1
R9.00
72
2
73
0
11
147.136922
21
399.006317
31
0.0
0
SOLID
8
DIM
10
165.000000
20
402.232500
30
0.0
11
162.356767
21
404.135914
31
0.0
12
161.842863
22
403.033843
32
0.0
13
161.842863
23
403.033843
33
0.0
0
LINE
8
DIM
10
165.000000
20
402.232500
30
0.0
11
155.936922
21
406.458683
31
0.0
0
LINE
8
DIM
10
155.936922
20
406.458683
30
0.0
11
152.936922
21
406.458683
31
0.0
0
TEXT
8
TEXT
10
152.136922
20
407.458683
30
0.0
40
2.5000
1
R8.00
72
2
73
0
11
152.136922
21
407.458683
31
0.0
0
SOLID
8
DIM
10
221.987353
20
410.743071
30
0.0
11
225.120720
21
411.632836
31
0.0
12
224.576043
22
412.720026
32
0.0
13
224.576043
23
412.720026
33
0.0
0
LINE
8
DIM
10
221.987353
20
410.743071
30
0.0
11
230.928066
21
415.222320
31
0.0
0
LINE
8
DIM
10
230.928066
20
415.222320
30
0.0
11
233.928066
21
415.222320
31
0.0
0
TEXT
8
TEXT
10
234.728066
20
416.222320
30
0.0
40
2.5000
1
R3.80
0
SOLID
8
DIM
10
190.000000
20
402.232500
30
0.0
11
186.842863
21
401.431157
31
0.0
12
187.356767
22
400.329086
32
0.0
13
187.356767
23
400.329086
33
0.0
0
LINE
8
DIM
10
190.000000
20
402.232500
30
0.0
11
180.936922
21
398.006317
31
0.0
0
LINE
8
DIM
10
180.936922
20
398.006317
30
0.0
11
177.936922
21
398.006317
31
0.0
0
TEXT
8
TEXT
10
177.136922
20
399.006317
30
0.0
40
2.5000
1
R3.00
72
2
73
0
11
177.136922
21
399.006317
31
0.0
0
SOLID
8
DIM
10
164.000000
20
402.232500
30
0.0
11
162.845563
21
399.186693
31
0.0
12
164.043089
22
398.975537
32
0.0
13
164.043089
23
398.975537
33
0.0
0
LINE
8
DIM
10
164.000000
20
402.232500
30
0.0
11
162.263518
21
392.384422
31
0.0
0
LINE
8
DIM
10
162.263518
20
392.384422
30
0.0
11
159.263518
21
392.384422
31
0.0
0
TEXT
8
TEXT
10
158.463518
20
393.384422
30
0.0
40
2.5000
1
R2.20
72
2
73
0
11
158.463518
21
393.384422
31
0.0
0
SOLID
8
DIM
10
169.500000
20
402.232500
30
0.0
11
166.342863
21
401.431157
31
0.0
12
166.856767
22
400.329086
32
0.0
13
166.856767
23
400.329086
33
0.0
0
LINE
8
DIM
10
169.500000
20
402.232500
30
0.0
11
160.436922
21
398.006317
31
0.0
0
LINE
8
DIM
10
160.436922
20
398.006317
30
0.0
11
157.436922
21
398.006317
31
0.0
0
TEXT
8
TEXT
10
156.636922
20
399.006317
30
0.0
40
2.5000
1
R1.10
72
2
73
0
11
156.636922
21
399.006317
31
0.0
0
TEXT
8
TEXT
10
205.000000
20
324.232500
30
0.0
40
4.0000
1
TOP VIEW
72
1
73
0
11
205.000000
21
324.232500
31
0.0
0
LINE
8
TEXT
10
195.400000
20
322.632500
30
0.0
11
214.600000
21
322.632500
31
0.0
0
TEXT
8
TEXT
10
205.000000
20
318.232500
30
0.0
40
2.4000
1
X →   Y ↑
72
1
73
0
11
205.000000
21
318.232500
31
0.0
0
LINE
8
CENTER
10
368.400000
20
221.767500
30
0.0
11
374.300000
21
221.767500
31
0.0
0
LINE
8
CENTER
10
376.700000
20
221.767500
30
0.0
11
382.600000
21
221.767500
31
0.0
0
LINE
8
CENTER
10
375.500000
20
214.667500
30
0.0
11
375.500000
21
220.567500
31
0.0
0
LINE
8
CENTER
10
375.500000
20
222.967500
30
0.0
11
375.500000
21
228.867500
31
0.0
0
LINE
8
CENTER
10
368.400000
20
221.767500
30
0.0
11
374.300000
21
221.767500
31
0.0
0
LINE
8
CENTER
10
376.700000
20
221.767500
30
0.0
11
382.600000
21
221.767500
31
0.0
0
LINE
8
CENTER
10
375.500000
20
214.667500
30
0.0
11
375.500000
21
220.567500
31
0.0
0
LINE
8
CENTER
10
375.500000
20
222.967500
30
0.0
11
375.500000
21
228.867500
31
0.0
0
LINE
8
CENTER
10
338.400000
20
191.767500
30
0.0
11
344.300000
21
191.767500
31
0.0
0
LINE
8
CENTER
10
346.700000
20
191.767500
30
0.0
11
352.600000
21
191.767500
31
0.0
0
LINE
8
CENTER
10
345.500000
20
184.667500
30
0.0
11
345.500000
21
190.567500
31
0.0
0
LINE
8
CENTER
10
345.500000
20
192.967500
30
0.0
11
345.500000
21
198.867500
31
0.0
0
LINE
8
CENTER
10
338.400000
20
191.767500
30
0.0
11
344.300000
21
191.767500
31
0.0
0
LINE
8
CENTER
10
346.700000
20
191.767500
30
0.0
11
352.600000
21
191.767500
31
0.0
0
LINE
8
CENTER
10
345.500000
20
184.667500
30
0.0
11
345.500000
21
190.567500
31
0.0
0
LINE
8
CENTER
10
345.500000
20
192.967500
30
0.0
11
345.500000
21
198.867500
31
0.0
0
LINE
8
CENTER
10
358.900000
20
191.767500
30
0.0
11
374.300000
21
191.767500
31
0.0
0
LINE
8
CENTER
10
376.700000
20
191.767500
30
0.0
11
392.100000
21
191.767500
31
0.0
0
LINE
8
CENTER
10
375.500000
20
175.167500
30
0.0
11
375.500000
21
190.567500
31
0.0
0
LINE
8
CENTER
10
375.500000
20
192.967500
30
0.0
11
375.500000
21
208.367500
31
0.0
0
LINE
8
CENTER
10
358.900000
20
191.767500
30
0.0
11
374.300000
21
191.767500
31
0.0
0
LINE
8
CENTER
10
376.700000
20
191.767500
30
0.0
11
392.100000
21
191.767500
31
0.0
0
LINE
8
CENTER
10
375.500000
20
175.167500
30
0.0
11
375.500000
21
190.567500
31
0.0
0
LINE
8
CENTER
10
375.500000
20
192.967500
30
0.0
11
375.500000
21
208.367500
31
0.0
0
LINE
8
CENTER
10
398.400000
20
191.767500
30
0.0
11
404.300000
21
191.767500
31
0.0
0
LINE
8
CENTER
10
406.700000
20
191.767500
30
0.0
11
412.600000
21
191.767500
31
0.0
0
LINE
8
CENTER
10
405.500000
20
184.667500
30
0.0
11
405.500000
21
190.567500
31
0.0
0
LINE
8
CENTER
10
405.500000
20
192.967500
30
0.0
11
405.500000
21
198.867500
31
0.0
0
LINE
8
CENTER
10
398.400000
20
191.767500
30
0.0
11
404.300000
21
191.767500
31
0.0
0
LINE
8
CENTER
10
406.700000
20
191.767500
30
0.0
11
412.600000
21
191.767500
31
0.0
0
LINE
8
CENTER
10
405.500000
20
184.667500
30
0.0
11
405.500000
21
190.567500
31
0.0
0
LINE
8
CENTER
10
405.500000
20
192.967500
30
0.0
11
405.500000
21
198.867500
31
0.0
0
LINE
8
CENTER
10
368.400000
20
161.767500
30
0.0
11
374.300000
21
161.767500
31
0.0
0
LINE
8
CENTER
10
376.700000
20
161.767500
30
0.0
11
382.600000
21
161.767500
31
0.0
0
LINE
8
CENTER
10
375.500000
20
154.667500
30
0.0
11
375.500000
21
160.567500
31
0.0
0
LINE
8
CENTER
10
375.500000
20
162.967500
30
0.0
11
375.500000
21
168.867500
31
0.0
0
LINE
8
CENTER
10
368.400000
20
161.767500
30
0.0
11
374.300000
21
161.767500
31
0.0
0
LINE
8
CENTER
10
376.700000
20
161.767500
30
0.0
11
382.600000
21
161.767500
31
0.0
0
LINE
8
CENTER
10
375.500000
20
154.667500
30
0.0
11
375.500000
21
160.567500
31
0.0
0
LINE
8
CENTER
10
375.500000
20
162.967500
30
0.0
11
375.500000
21
168.867500
31
0.0
0
LINE
8
DIM
10
330.500000
20
145.567500
30
0.0
11
330.500000
21
132.767500
31
0.0
0
LINE
8
DIM
10
420.500000
20
145.567500
30
0.0
11
420.500000
21
132.767500
31
0.0
0
LINE
8
DIM
10
330.500000
20
134.767500
30
0.0
11
420.500000
21
134.767500
31
0.0
0
SOLID
8
DIM
10
330.500000
20
134.767500
30
0.0
11
333.700000
21
134.159500
31
0.0
12
333.700000
22
135.375500
32
0.0
13
333.700000
23
135.375500
33
0.0
0
SOLID
8
DIM
10
420.500000
20
134.767500
30
0.0
11
417.300000
21
135.375500
31
0.0
12
417.300000
22
134.159500
32
0.0
13
417.300000
23
134.159500
33
0.0
0
TEXT
8
TEXT
10
375.500000
20
135.767500
30
0.0
40
2.5000
1
18.00
72
1
73
0
11
375.500000
21
135.767500
31
0.0
0
LINE
8
DIM
10
329.300000
20
146.767500
30
0.0
11
316.500000
21
146.767500
31
0.0
0
LINE
8
DIM
10
329.300000
20
285.232500
30
0.0
11
316.500000
21
285.232500
31
0.0
0
LINE
8
DIM
10
318.500000
20
146.767500
30
0.0
11
318.500000
21
285.232500
31
0.0
0
SOLID
8
DIM
10
318.500000
20
146.767500
30
0.0
11
319.108000
21
149.967500
31
0.0
12
317.892000
22
149.967500
32
0.0
13
317.892000
23
149.967500
33
0.0
0
SOLID
8
DIM
10
318.500000
20
285.232500
30
0.0
11
317.892000
21
282.032500
31
0.0
12
319.108000
22
282.032500
32
0.0
13
319.108000
23
282.032500
33
0.0
0
TEXT
8
TEXT
10
317.500000
20
216.000000
30
0.0
40
2.5000
1
27.69
50
90.0000
72
1
73
0
11
317.500000
21
216.000000
31
0.0
0
SOLID
8
DIM
10
378.886138
20
226.101559
30
0.0
11
381.335365
21
228.248871
31
0.0
12
380.377144
22
228.997516
32
0.0
13
380.377144
23
228.997516
33
0.0
0
LINE
8
DIM
10
378.886138
20
226.101559
30
0.0
11
430.553292
21
292.232500
31
0.0
0
LINE
8
DIM
10
430.553292
20
292.232500
30
0.0
11
435.553292
21
292.232500
31
0.0
0
TEXT
8
TEXT
10
436.353292
20
293.232500
30
0.0
40
2.5000
1
8x Ø2.20 THRU
0
SOLID
8
DIM
10
383.815637
20
204.251497
30
0.0
11
386.095658
21
206.577689
31
0.0
12
385.083622
22
207.251810
32
0.0
13
385.083622
23
207.251810
33
0.0
0
LINE
8
DIM
10
383.815637
20
204.251497
30
0.0
11
446.500000
21
298.357500
31
0.0
0
LINE
8
DIM
10
446.500000
20
298.357500
30
0.0
11
451.500000
21
298.357500
31
0.0
0
TEXT
8
TEXT
10
452.300000
20
299.357500
30
0.0
40
2.5000
1
2x Ø6.00 THRU
0
SOLID
8
DIM
10
351.499809
20
256.421673
30
0.0
11
350.388887
21
259.483619
31
0.0
12
349.343301
22
258.862807
32
0.0
13
349.343301
23
258.862807
33
0.0
0
LINE
8
DIM
10
351.499809
20
256.421673
30
0.0
11
346.394449
21
265.020237
31
0.0
0
LINE
8
DIM
10
346.394449
20
265.020237
30
0.0
11
343.394449
21
265.020237
31
0.0
0
TEXT
8
TEXT
10
342.594449
20
266.020237
30
0.0
40
2.5000
1
R13.79
72
2
73
0
11
342.594449
21
266.020237
31
0.0
0
SOLID
8
DIM
10
349.957822
20
239.305047
30
0.0
11
348.003729
21
241.911037
31
0.0
12
347.184126
22
241.012757
32
0.0
13
347.184126
23
241.012757
33
0.0
0
LINE
8
DIM
10
349.957822
20
239.305047
30
0.0
11
342.570652
21
246.045205
31
0.0
0
LINE
8
DIM
10
342.570652
20
246.045205
30
0.0
11
339.570652
21
246.045205
31
0.0
0
TEXT
8
TEXT
10
338.770652
20
247.045205
30
0.0
40
2.5000
1
R10.79
72
2
73
0
11
338.770652
21
247.045205
31
0.0
0
SOLID
8
DIM
10
375.500000
20
176.767500
30
0.0
11
374.892000
21
173.567500
31
0.0
12
376.108000
22
173.567500
32
0.0
13
376.108000
23
173.567500
33
0.0
0
LINE
8
DIM
10
375.500000
20
176.767500
30
0.0
11
375.500000
21
166.767500
31
0.0
0
LINE
8
DIM
10
375.500000
20
166.767500
30
0.0
11
378.500000
21
166.767500
31
0.0
0
TEXT
8
TEXT
10
379.300000
20
167.767500
30
0.0
40
2.5000
1
R3.00
0
SOLID
8
DIM
10
375.500000
20
156.267500
30
0.0
11
374.892000
21
153.067500
31
0.0
12
376.108000
22
153.067500
32
0.0
13
376.108000
23
153.067500
33
0.0
0
LINE
8
DIM
10
375.500000
20
156.267500
30
0.0
11
375.500000
21
146.267500
31
0.0
0
LINE
8
DIM
10
375.500000
20
146.267500
30
0.0
11
378.500000
21
146.267500
31
0.0
0
TEXT
8
TEXT
10
379.300000
20
147.267500
30
0.0
40
2.5000
1
R1.10
0
TEXT
8
TEXT
10
375.500000
20
122.767500
30
0.0
40
4.0000
1
RIGHT VIEW
72
1
73
0
11
375.500000
21
122.767500
31
0.0
0
LINE
8
TEXT
10
363.500000
20
121.167500
30
0.0
11
387.500000
21
121.167500
31
0.0
0
TEXT
8
TEXT
10
375.500000
20
116.767500
30
0.0
40
2.4000
1
-Y →   Z ↑
72
1
73
0
11
375.500000
21
116.767500
31
0.0
0
LINE
8
DIM
10
458.500000
20
145.567500
30
0.0
11
458.500000
21
132.767500
31
0.0
0
LINE
8
DIM
10
633.500000
20
145.567500
30
0.0
11
633.500000
21
132.767500
31
0.0
0
LINE
8
DIM
10
458.500000
20
134.767500
30
0.0
11
633.500000
21
134.767500
31
0.0
0
SOLID
8
DIM
10
458.500000
20
134.767500
30
0.0
11
461.700000
21
134.159500
31
0.0
12
461.700000
22
135.375500
32
0.0
13
461.700000
23
135.375500
33
0.0
0
SOLID
8
DIM
10
633.500000
20
134.767500
30
0.0
11
630.300000
21
135.375500
31
0.0
12
630.300000
22
134.159500
32
0.0
13
630.300000
23
134.159500
33
0.0
0
TEXT
8
TEXT
10
546.000000
20
135.767500
30
0.0
40
2.5000
1
35.00
72
1
73
0
11
546.000000
21
135.767500
31
0.0
0
LINE
8
DIM
10
457.300000
20
146.767500
30
0.0
11
444.500000
21
146.767500
31
0.0
0
LINE
8
DIM
10
457.300000
20
285.232500
30
0.0
11
444.500000
21
285.232500
31
0.0
0
LINE
8
DIM
10
446.500000
20
146.767500
30
0.0
11
446.500000
21
285.232500
31
0.0
0
SOLID
8
DIM
10
446.500000
20
146.767500
30
0.0
11
447.108000
21
149.967500
31
0.0
12
445.892000
22
149.967500
32
0.0
13
445.892000
23
149.967500
33
0.0
0
SOLID
8
DIM
10
446.500000
20
285.232500
30
0.0
11
445.892000
21
282.032500
31
0.0
12
447.108000
22
282.032500
32
0.0
13
447.108000
23
282.032500
33
0.0
0
TEXT
8
TEXT
10
445.500000
20
216.000000
30
0.0
40
2.5000
1
27.69
50
90.0000
72
1
73
0
11
445.500000
21
216.000000
31
0.0
0
LINE
8
HATCH
10
633.499993
20
227.267500
30
0.0
11
633.500000
21
227.267507
31
0.0
0
LINE
8
HATCH
10
629.257352
20
227.267500
30
0.0
11
633.500000
21
231.510148
31
0.0
0
LINE
8
HATCH
10
625.014712
20
227.267500
30
0.0
11
633.500000
21
235.752788
31
0.0
0
LINE
8
HATCH
10
620.772071
20
227.267500
30
0.0
11
633.500000
21
239.995429
31
0.0
0
LINE
8
HATCH
10
618.500000
20
229.238070
30
0.0
11
633.500000
21
244.238070
31
0.0
0
LINE
8
HATCH
10
618.500000
20
233.480711
30
0.0
11
633.500000
21
248.480711
31
0.0
0
LINE
8
HATCH
10
618.500000
20
237.723351
30
0.0
11
633.500000
21
252.723351
31
0.0
0
LINE
8
HATCH
10
618.500000
20
241.965992
30
0.0
11
632.883254
21
256.349246
31
0.0
0
LINE
8
HATCH
10
618.261934
20
245.970566
30
0.0
11
630.761934
21
258.470566
31
0.0
0
LINE
8
HATCH
10
616.140613
20
248.091887
30
0.0
11
628.640613
21
260.591887
31
0.0
0
LINE
8
HATCH
10
614.019293
20
250.213207
30
0.0
11
626.519293
21
262.713207
31
0.0
0
LINE
8
HATCH
10
611.897973
20
252.334527
30
0.0
11
624.397973
21
264.834527
31
0.0
0
LINE
8
HATCH
10
609.776652
20
254.455848
30
0.0
11
622.276652
21
266.955848
31
0.0
0
LINE
8
HATCH
10
607.655332
20
256.577168
30
0.0
11
620.155332
21
269.077168
31
0.0
0
LINE
8
HATCH
10
605.534012
20
258.698488
30
0.0
11
617.568023
21
270.732500
31
0.0
0
LINE
8
HATCH
10
603.325383
20
260.732500
30
0.0
11
613.325383
21
270.732500
31
0.0
0
LINE
8
HATCH
10
599.082742
20
260.732500
30
0.0
11
609.082742
21
270.732500
31
0.0
0
LINE
8
HATCH
10
594.840101
20
260.732500
30
0.0
11
604.840101
21
270.732500
31
0.0
0
LINE
8
HATCH
10
590.597461
20
260.732500
30
0.0
11
600.597461
21
270.732500
31
0.0
0
LINE
8
HATCH
10
587.000000
20
261.377680
30
0.0
11
596.354820
21
270.732500
31
0.0
0
LINE
8
HATCH
10
587.000000
20
265.620321
30
0.0
11
592.112179
21
270.732500
31
0.0
0
LINE
8
HATCH
10
587.000000
20
269.862962
30
0.0
11
591.000000
21
273.862962
31
0.0
0
LINE
8
HATCH
10
583.626898
20
270.732500
30
0.0
11
588.626898
21
275.732500
31
0.0
0
LINE
8
HATCH
10
581.500000
20
272.848243
30
0.0
11
586.000000
21
277.348243
31
0.0
0
LINE
8
HATCH
10
581.500000
20
277.090884
30
0.0
11
586.000000
21
281.590884
31
0.0
0
LINE
8
HATCH
10
581.500000
20
281.333524
30
0.0
11
585.398976
21
285.232500
31
0.0
0
LINE
8
HATCH
10
473.499993
20
227.267500
30
0.0
11
473.500000
21
227.267507
31
0.0
0
LINE
8
HATCH
10
469.257352
20
227.267500
30
0.0
11
473.500000
21
231.510148
31
0.0
0
LINE
8
HATCH
10
502.722352
20
260.732500
30
0.0
11
505.000000
21
263.010148
31
0.0
0
LINE
8
HATCH
10
465.014712
20
227.267500
30
0.0
11
473.500000
21
235.752788
31
0.0
0
LINE
8
HATCH
10
498.479712
20
260.732500
30
0.0
11
505.000000
21
267.252788
31
0.0
0
LINE
8
HATCH
10
508.479712
20
270.732500
30
0.0
11
510.500000
21
272.752788
31
0.0
0
LINE
8
HATCH
10
460.772071
20
227.267500
30
0.0
11
473.500000
21
239.995429
31
0.0
0
LINE
8
HATCH
10
494.237071
20
260.732500
30
0.0
11
510.500000
21
276.995429
31
0.0
0
LINE
8
HATCH
10
458.500000
20
229.238070
30
0.0
11
473.500000
21
244.238070
31
0.0
0
LINE
8
HATCH
10
489.994430
20
260.732500
30
0.0
11
499.994430
21
270.732500
31
0.0
0
LINE
8
HATCH
10
501.000000
20
271.738070
30
0.0
11
504.994430
21
275.732500
31
0.0
0
LINE
8
HATCH
10
506.000000
20
276.738070
30
0.0
11
510.500000
21
281.238070
31
0.0
0
LINE
8
HATCH
10
458.500000
20
233.480711
30
0.0
11
495.751789
21
270.732500
31
0.0
0
LINE
8
HATCH
10
506.000000
20
280.980711
30
0.0
11
510.251789
21
285.232500
31
0.0
0
LINE
8
HATCH
10
458.500000
20
237.723351
30
0.0
11
491.509149
21
270.732500
31
0.0
0
LINE
8
HATCH
10
506.000000
20
285.223351
30
0.0
11
506.009149
21
285.232500
31
0.0
0
LINE
8
HATCH
10
458.500000
20
241.965992
30
0.0
11
487.266508
21
270.732500
31
0.0
0
LINE
8
HATCH
10
458.500000
20
246.208633
30
0.0
11
483.023867
21
270.732500
31
0.0
0
LINE
8
HATCH
10
458.500000
20
250.451273
30
0.0
11
478.781227
21
270.732500
31
0.0
0
LINE
8
HATCH
10
458.500000
20
254.693914
30
0.0
11
474.538586
21
270.732500
31
0.0
0
LINE
8
HATCH
10
633.499993
20
146.767500
30
0.0
11
633.500000
21
146.767507
31
0.0
0
LINE
8
HATCH
10
629.257352
20
146.767500
30
0.0
11
633.500000
21
151.010148
31
0.0
0
LINE
8
HATCH
10
625.014712
20
146.767500
30
0.0
11
633.500000
21
155.252788
31
0.0
0
LINE
8
HATCH
10
620.772071
20
146.767500
30
0.0
11
630.272071
21
156.267500
31
0.0
0
LINE
8
HATCH
10
618.500000
20
148.738070
30
0.0
11
626.029430
21
156.267500
31
0.0
0
LINE
8
HATCH
10
618.500000
20
152.980711
30
0.0
11
621.786789
21
156.267500
31
0.0
0
LINE
8
HATCH
10
633.499993
20
167.267500
30
0.0
11
633.500000
21
167.267507
31
0.0
0
LINE
8
HATCH
10
629.257352
20
167.267500
30
0.0
11
633.500000
21
171.510148
31
0.0
0
LINE
8
HATCH
10
625.014712
20
167.267500
30
0.0
11
633.500000
21
175.752788
31
0.0
0
LINE
8
HATCH
10
620.772071
20
167.267500
30
0.0
11
630.272071
21
176.767500
31
0.0
0
LINE
8
HATCH
10
618.500000
20
169.238070
30
0.0
11
626.029430
21
176.767500
31
0.0
0
LINE
8
HATCH
10
618.500000
20
173.480711
30
0.0
11
621.786789
21
176.767500
31
0.0
0
LINE
8
HATCH
10
633.499993
20
206.767500
30
0.0
11
633.500000
21
206.767507
31
0.0
0
LINE
8
HATCH
10
629.257352
20
206.767500
30
0.0
11
633.500000
21
211.010148
31
0.0
0
LINE
8
HATCH
10
625.014712
20
206.767500
30
0.0
11
633.500000
21
215.252788
31
0.0
0
LINE
8
HATCH
10
620.772071
20
206.767500
30
0.0
11
630.272071
21
216.267500
31
0.0
0
LINE
8
HATCH
10
618.500000
20
208.738070
30
0.0
11
626.029430
21
216.267500
31
0.0
0
LINE
8
HATCH
10
618.500000
20
212.980711
30
0.0
11
621.786789
21
216.267500
31
0.0
0
LINE
8
HATCH
10
564.999993
20
259.032500
30
0.0
11
565.000000
21
259.032507
31
0.0
0
LINE
8
HATCH
10
561.000000
20
259.275148
30
0.0
11
565.000000
21
263.275148
31
0.0
0
LINE
8
HATCH
10
561.000000
20
263.517788
30
0.0
11
565.000000
21
267.517788
31
0.0
0
LINE
8
HATCH
10
568.214712
20
270.732500
30
0.0
11
570.500000
21
273.017788
31
0.0
0
LINE
8
HATCH
10
561.000000
20
267.760429
30
0.0
11
570.500000
21
277.260429
31
0.0
0
LINE
8
HATCH
10
561.000000
20
272.003070
30
0.0
11
570.500000
21
281.503070
31
0.0
0
LINE
8
HATCH
10
561.000000
20
276.245711
30
0.0
11
569.986789
21
285.232500
31
0.0
0
LINE
8
HATCH
10
561.000000
20
280.488351
30
0.0
11
565.744149
21
285.232500
31
0.0
0
LINE
8
HATCH
10
561.000000
20
284.730992
30
0.0
11
561.501508
21
285.232500
31
0.0
0
LINE
8
HATCH
10
530.999993
20
259.032500
30
0.0
11
531.000000
21
259.032507
31
0.0
0
LINE
8
HATCH
10
527.000000
20
259.275148
30
0.0
11
531.000000
21
263.275148
31
0.0
0
LINE
8
HATCH
10
527.000000
20
263.517788
30
0.0
11
531.000000
21
267.517788
31
0.0
0
LINE
8
HATCH
10
527.000000
20
267.760429
30
0.0
11
531.000000
21
271.760429
31
0.0
0
LINE
8
HATCH
10
525.729430
20
270.732500
30
0.0
11
531.000000
21
276.003070
31
0.0
0
LINE
8
HATCH
10
521.500000
20
270.745711
30
0.0
11
531.000000
21
280.245711
31
0.0
0
LINE
8
HATCH
10
521.500000
20
274.988351
30
0.0
11
531.000000
21
284.488351
31
0.0
0
LINE
8
HATCH
10
521.500000
20
279.230992
30
0.0
11
527.501508
21
285.232500
31
0.0
0
LINE
8
HATCH
10
521.500000
20
283.473633
30
0.0
11
523.258867
21
285.232500
31
0.0
0
LINE
8
HATCH
10
473.499993
20
206.767500
30
0.0
11
473.500000
21
206.767507
31
0.0
0
LINE
8
HATCH
10
469.257352
20
206.767500
30
0.0
11
473.500000
21
211.010148
31
0.0
0
LINE
8
HATCH
10
465.014712
20
206.767500
30
0.0
11
473.500000
21
215.252788
31
0.0
0
LINE
8
HATCH
10
460.772071
20
206.767500
30
0.0
11
470.272071
21
216.267500
31
0.0
0
LINE
8
HATCH
10
458.500000
20
208.738070
30
0.0
11
466.029430
21
216.267500
31
0.0
0
LINE
8
HATCH
10
458.500000
20
212.980711
30
0.0
11
461.786789
21
216.267500
31
0.0
0
LINE
8
HATCH
10
473.499993
20
146.767500
30
0.0
11
473.500000
21
146.767507
31
0.0
0
LINE
8
HATCH
10
469.257352
20
146.767500
30
0.0
11
473.500000
21
151.010148
31
0.0
0
LINE
8
HATCH
10
465.014712
20
146.767500
30
0.0
11
473.500000
21
155.252788
31
0.0
0
LINE
8
HATCH
10
460.772071
20
146.767500
30
0.0
11
470.272071
21
156.267500
31
0.0
0
LINE
8
HATCH
10
458.500000
20
148.738070
30
0.0
11
466.029430
21
156.267500
31
0.0
0
LINE
8
HATCH
10
458.500000
20
152.980711
30
0.0
11
461.786789
21
156.267500
31
0.0
0
LINE
8
HATCH
10
473.499993
20
167.267500
30
0.0
11
473.500000
21
167.267507
31
0.0
0
LINE
8
HATCH
10
469.257352
20
167.267500
30
0.0
11
473.500000
21
171.510148
31
0.0
0
LINE
8
HATCH
10
465.014712
20
167.267500
30
0.0
11
473.500000
21
175.752788
31
0.0
0
LINE
8
HATCH
10
460.772071
20
167.267500
30
0.0
11
470.272071
21
176.767500
31
0.0
0
LINE
8
HATCH
10
458.500000
20
169.238070
30
0.0
11
466.029430
21
176.767500
31
0.0
0
LINE
8
HATCH
10
458.500000
20
173.480711
30
0.0
11
461.786789
21
176.767500
31
0.0
0
LINE
8
DIM
10
527.000000
20
271.432121
30
0.0
11
527.000000
21
294.232500
31
0.0
0
LINE
8
DIM
10
531.000000
20
271.432121
30
0.0
11
531.000000
21
294.232500
31
0.0
0
LINE
8
DIM
10
527.000000
20
292.232500
30
0.0
11
531.000000
21
292.232500
31
0.0
0
SOLID
8
DIM
10
527.000000
20
292.232500
30
0.0
11
523.800000
21
292.840500
31
0.0
12
523.800000
22
291.624500
32
0.0
13
523.800000
23
291.624500
33
0.0
0
SOLID
8
DIM
10
531.000000
20
292.232500
30
0.0
11
534.200000
21
291.624500
31
0.0
12
534.200000
22
292.840500
32
0.0
13
534.200000
23
292.840500
33
0.0
0
LINE
8
DIM
10
531.000000
20
292.232500
30
0.0
11
540.600000
21
292.232500
31
0.0
0
TEXT
8
TEXT
10
541.400000
20
292.632500
30
0.0
40
2.5000
1
0.80 WALL
0
TEXT
8
TEXT
10
546.000000
20
122.767500
30
0.0
40
4.0000
1
SECTION A-A
72
1
73
0
11
546.000000
21
122.767500
31
0.0
0
LINE
8
TEXT
10
532.800000
20
121.167500
30
0.0
11
559.200000
21
121.167500
31
0.0
0
TEXT
8
TEXT
10
786.000000
20
498.000000
30
0.0
40
4.0000
1
ISOMETRIC VIEW
72
1
73
0
11
786.000000
21
498.000000
31
0.0
0
LINE
8
TEXT
10
769.200000
20
496.400000
30
0.0
11
802.800000
21
496.400000
31
0.0
0
TEXT
8
TEXT
10
786.000000
20
492.000000
30
0.0
40
2.6000
1
35.00 x 18.00 x 27.69 mm
72
1
73
0
11
786.000000
21
492.000000
31
0.0
0
LINE
8
CUT
10
108.500000
20
402.232500
30
0.0
11
122.500000
21
402.232500
31
0.0
0
LINE
8
CUTTHIN
10
122.500000
20
402.232500
30
0.0
11
287.500000
21
402.232500
31
0.0
0
LINE
8
CUT
10
287.500000
20
402.232500
30
0.0
11
301.500000
21
402.232500
31
0.0
0
LINE
8
CUT
10
108.500000
20
402.232500
30
0.0
11
108.500000
21
393.232500
31
0.0
0
SOLID
8
CUT
10
108.500000
20
393.232500
30
0.0
11
109.298000
21
397.432500
31
0.0
12
107.702000
22
397.432500
32
0.0
13
107.702000
23
397.432500
33
0.0
0
TEXT
8
TEXT
10
108.500000
20
407.232500
30
0.0
40
4.0000
1
A
72
1
73
2
11
108.500000
21
407.232500
31
0.0
0
LINE
8
CUT
10
301.500000
20
402.232500
30
0.0
11
301.500000
21
393.232500
31
0.0
0
SOLID
8
CUT
10
301.500000
20
393.232500
30
0.0
11
302.298000
21
397.432500
31
0.0
12
300.702000
22
397.432500
32
0.0
13
300.702000
23
397.432500
33
0.0
0
TEXT
8
TEXT
10
301.500000
20
407.232500
30
0.0
40
4.0000
1
A
72
1
73
2
11
301.500000
21
407.232500
31
0.0
0
LINE
8
VISIBLE
10
757.000000
20
438.177778
30
0.0
11
815.000000
21
438.177778
31
0.0
0
LINE
8
VISIBLE
10
815.000000
20
438.177778
30
0.0
11
815.000000
21
482.000000
31
0.0
0
LINE
8
VISIBLE
10
815.000000
20
482.000000
30
0.0
11
757.000000
21
482.000000
31
0.0
0
LINE
8
VISIBLE
10
757.000000
20
482.000000
30
0.0
11
757.000000
21
438.177778
31
0.0
0
LINE
8
TITLE
10
757.000000
20
438.177778
30
0.0
11
815.000000
21
438.177778
31
0.0
0
LINE
8
TITLE
10
815.000000
20
438.177778
30
0.0
11
815.000000
21
482.000000
31
0.0
0
LINE
8
TITLE
10
815.000000
20
482.000000
30
0.0
11
757.000000
21
482.000000
31
0.0
0
LINE
8
TITLE
10
757.000000
20
482.000000
30
0.0
11
757.000000
21
438.177778
31
0.0
0
TEXT
8
TEXT
10
786.000000
20
435.577778
30
0.0
40
2.0000
1
REFERENCE RENDER (ISO2) — rendered off this solid,
72
1
73
0
11
786.000000
21
435.577778
31
0.0
0
TEXT
8
TEXT
10
786.000000
20
432.977778
30
0.0
40
2.0000
1
900 x 680 px
72
1
73
0
11
786.000000
21
432.977778
31
0.0
0
TEXT
8
TEXT
10
743.000000
20
425.677778
30
0.0
40
3.0000
1
HOLE TABLE — 10 POSITIONS
0
LINE
8
TITLE
10
743.000000
20
423.177778
30
0.0
11
797.600000
21
423.177778
31
0.0
0
TEXT
8
TITLE
10
744.500000
20
420.707778
30
0.0
40
2.2000
1
TAG
0
TEXT
8
TITLE
10
751.460000
20
420.707778
30
0.0
40
2.2000
1
SIZE
0
TEXT
8
TITLE
10
767.660000
20
420.707778
30
0.0
40
2.2000
1
Y
0
TEXT
8
TITLE
10
777.260000
20
420.707778
30
0.0
40
2.2000
1
Z
0
TEXT
8
TITLE
10
788.180000
20
420.707778
30
0.0
40
2.2000
1
C'BORE
0
LINE
8
TITLE
10
743.000000
20
419.107778
30
0.0
11
797.600000
21
419.107778
31
0.0
0
TEXT
8
TEXT
10
744.500000
20
416.637778
30
0.0
40
2.2000
1
A1
0
TEXT
8
TEXT
10
751.460000
20
416.637778
30
0.0
40
2.2000
1
Ø2.20 THRU
0
TEXT
8
TEXT
10
767.660000
20
416.637778
30
0.0
40
2.2000
1
0.00
0
TEXT
8
TEXT
10
777.260000
20
416.637778
30
0.0
40
2.2000
1
-22.79
0
TEXT
8
TEXT
10
788.180000
20
416.637778
30
0.0
40
2.2000
1
-
0
TEXT
8
TEXT
10
744.500000
20
412.567778
30
0.0
40
2.2000
1
A2
0
TEXT
8
TEXT
10
751.460000
20
412.567778
30
0.0
40
2.2000
1
Ø2.20 THRU
0
TEXT
8
TEXT
10
767.660000
20
412.567778
30
0.0
40
2.2000
1
0.00
0
TEXT
8
TEXT
10
777.260000
20
412.567778
30
0.0
40
2.2000
1
-22.79
0
TEXT
8
TEXT
10
788.180000
20
412.567778
30
0.0
40
2.2000
1
-
0
TEXT
8
TEXT
10
744.500000
20
408.497778
30
0.0
40
2.2000
1
A3
0
TEXT
8
TEXT
10
751.460000
20
408.497778
30
0.0
40
2.2000
1
Ø2.20 THRU
0
TEXT
8
TEXT
10
767.660000
20
408.497778
30
0.0
40
2.2000
1
6.00
0
TEXT
8
TEXT
10
777.260000
20
408.497778
30
0.0
40
2.2000
1
-28.79
0
TEXT
8
TEXT
10
788.180000
20
408.497778
30
0.0
40
2.2000
1
-
0
TEXT
8
TEXT
10
744.500000
20
404.427778
30
0.0
40
2.2000
1
A4
0
TEXT
8
TEXT
10
751.460000
20
404.427778
30
0.0
40
2.2000
1
Ø2.20 THRU
0
TEXT
8
TEXT
10
767.660000
20
404.427778
30
0.0
40
2.2000
1
6.00
0
TEXT
8
TEXT
10
777.260000
20
404.427778
30
0.0
40
2.2000
1
-28.79
0
TEXT
8
TEXT
10
788.180000
20
404.427778
30
0.0
40
2.2000
1
-
0
TEXT
8
TEXT
10
744.500000
20
400.357778
30
0.0
40
2.2000
1
A5
0
TEXT
8
TEXT
10
751.460000
20
400.357778
30
0.0
40
2.2000
1
Ø6.00 THRU
0
TEXT
8
TEXT
10
767.660000
20
400.357778
30
0.0
40
2.2000
1
0.00
0
TEXT
8
TEXT
10
777.260000
20
400.357778
30
0.0
40
2.2000
1
-28.79
0
TEXT
8
TEXT
10
788.180000
20
400.357778
30
0.0
40
2.2000
1
-
0
TEXT
8
TEXT
10
744.500000
20
396.287778
30
0.0
40
2.2000
1
A6
0
TEXT
8
TEXT
10
751.460000
20
396.287778
30
0.0
40
2.2000
1
Ø6.00 THRU
0
TEXT
8
TEXT
10
767.660000
20
396.287778
30
0.0
40
2.2000
1
0.00
0
TEXT
8
TEXT
10
777.260000
20
396.287778
30
0.0
40
2.2000
1
-28.79
0
TEXT
8
TEXT
10
788.180000
20
396.287778
30
0.0
40
2.2000
1
-
0
TEXT
8
TEXT
10
744.500000
20
392.217778
30
0.0
40
2.2000
1
A7
0
TEXT
8
TEXT
10
751.460000
20
392.217778
30
0.0
40
2.2000
1
Ø2.20 THRU
0
TEXT
8
TEXT
10
767.660000
20
392.217778
30
0.0
40
2.2000
1
-6.00
0
TEXT
8
TEXT
10
777.260000
20
392.217778
30
0.0
40
2.2000
1
-28.79
0
TEXT
8
TEXT
10
788.180000
20
392.217778
30
0.0
40
2.2000
1
-
0
TEXT
8
TEXT
10
744.500000
20
388.147778
30
0.0
40
2.2000
1
A8
0
TEXT
8
TEXT
10
751.460000
20
388.147778
30
0.0
40
2.2000
1
Ø2.20 THRU
0
TEXT
8
TEXT
10
767.660000
20
388.147778
30
0.0
40
2.2000
1
-6.00
0
TEXT
8
TEXT
10
777.260000
20
388.147778
30
0.0
40
2.2000
1
-28.79
0
TEXT
8
TEXT
10
788.180000
20
388.147778
30
0.0
40
2.2000
1
-
0
TEXT
8
TEXT
10
744.500000
20
384.077778
30
0.0
40
2.2000
1
A9
0
TEXT
8
TEXT
10
751.460000
20
384.077778
30
0.0
40
2.2000
1
Ø2.20 THRU
0
TEXT
8
TEXT
10
767.660000
20
384.077778
30
0.0
40
2.2000
1
0.00
0
TEXT
8
TEXT
10
777.260000
20
384.077778
30
0.0
40
2.2000
1
-34.79
0
TEXT
8
TEXT
10
788.180000
20
384.077778
30
0.0
40
2.2000
1
-
0
TEXT
8
TEXT
10
744.500000
20
380.007778
30
0.0
40
2.2000
1
A10
0
TEXT
8
TEXT
10
751.460000
20
380.007778
30
0.0
40
2.2000
1
Ø2.20 THRU
0
TEXT
8
TEXT
10
767.660000
20
380.007778
30
0.0
40
2.2000
1
0.00
0
TEXT
8
TEXT
10
777.260000
20
380.007778
30
0.0
40
2.2000
1
-34.79
0
TEXT
8
TEXT
10
788.180000
20
380.007778
30
0.0
40
2.2000
1
-
0
LINE
8
TITLE
10
743.000000
20
378.407778
30
0.0
11
797.600000
21
378.407778
31
0.0
0
LINE
8
TITLE
10
749.960000
20
378.407778
30
0.0
11
749.960000
21
423.177778
31
0.0
0
LINE
8
TITLE
10
766.160000
20
378.407778
30
0.0
11
766.160000
21
423.177778
31
0.0
0
LINE
8
TITLE
10
775.760000
20
378.407778
30
0.0
11
775.760000
21
423.177778
31
0.0
0
LINE
8
TITLE
10
786.680000
20
378.407778
30
0.0
11
786.680000
21
423.177778
31
0.0
0
LINE
8
TITLE
10
797.600000
20
378.407778
30
0.0
11
797.600000
21
423.177778
31
0.0
0
LINE
8
TITLE
10
743.000000
20
378.407778
30
0.0
11
743.000000
21
423.177778
31
0.0
0
TEXT
8
TITLE
10
743.000000
20
374.407778
30
0.0
40
1.7170
1
every row measured off the solid; positions are model
0
TEXT
8
TITLE
10
743.000000
20
371.832306
30
0.0
40
1.7170
1
coordinates, mm. C'BORE side is the face it opens on.
0
TEXT
8
TEXT
10
743.000000
20
362.256834
30
0.0
40
3.0000
1
NOTES
0
TEXT
8
TEXT
10
743.000000
20
357.656834
30
0.0
40
2.4000
1
1. ALL DIMENSIONS IN mm AND DEGREES. EVERY DIMENSION AND
0
TEXT
8
TEXT
10
743.000000
20
353.936834
30
0.0
40
2.4000
1
   EVERY HOLE CALLOUT WAS MEASURED OFF THE SOLID.
0
TEXT
8
TEXT
10
743.000000
20
350.216834
30
0.0
40
2.4000
1
2. PROCESS: FDM.
0
TEXT
8
TEXT
10
743.000000
20
346.496834
30
0.0
40
2.4000
1
3. THINNEST WALL, WHOLE SOLID: 0.3760 mm, AT X=-14.098
0
TEXT
8
TEXT
10
743.000000
20
342.776834
30
0.0
40
2.4000
1
   Y=-8.790 Z=-21.865 — MEASURED OVER THE WHOLE SOLID BY
0
TEXT
8
TEXT
10
743.000000
20
339.056834
30
0.0
40
2.4000
1
   RAY+EXACT AT 1.133 mm SAMPLE SPACING (A FEATURE
0
TEXT
8
TEXT
10
743.000000
20
335.336834
30
0.0
40
2.4000
1
   NARROWER THAN THAT CAN BE MISSED). A RAY MINIMUM AT AN
0
TEXT
8
TEXT
10
743.000000
20
331.616834
30
0.0
40
2.4000
1
   EDGE, A FILLET RUN-OUT OR A CHAMFER TIP IS A REAL
0
TEXT
8
TEXT
10
743.000000
20
327.896834
30
0.0
40
2.4000
1
   DISTANCE THROUGH MATERIAL AND IS NOT A PRINTABLE WALL.
0
TEXT
8
TEXT
10
743.000000
20
324.176834
30
0.0
40
2.4000
1
4. GENERAL TOLERANCE CANNOT DETERMINE — SEE PRINT / DFM
0
TEXT
8
TEXT
10
743.000000
20
320.456834
30
0.0
40
2.4000
1
   NOTES UNLESS STATED.
0
TEXT
8
TEXT
10
743.000000
20
316.736834
30
0.0
40
2.4000
1
5. SECTION A-A AT Y=0.00: THINNEST MATERIAL IN THIS PLANE
0
TEXT
8
TEXT
10
743.000000
20
313.016834
30
0.0
40
2.4000
1
   ONLY 0.80 mm, AT X=3.40, Z=-13.10 — A SCAN OF ONE CUT,
0
TEXT
8
TEXT
10
743.000000
20
309.296834
30
0.0
40
2.4000
1
   NOT THE PART MINIMUM.
0
TEXT
8
TEXT
10
743.000000
20
305.576834
30
0.0
40
2.4000
1
6. FRONT VIEW: hidden lines SUPPRESSED: all 534 edge
0
TEXT
8
TEXT
10
743.000000
20
301.856834
30
0.0
40
2.4000
1
   samples still land on drawn ink without them.
0
TEXT
8
TEXT
10
743.000000
20
298.136834
30
0.0
40
2.4000
1
7. TOP VIEW: hidden lines KEPT: without them 4 of 631 edge
0
TEXT
8
TEXT
10
743.000000
20
294.416834
30
0.0
40
2.4000
1
   samples have no ink within 0.35 mm (worst 1.907 mm) and
0
TEXT
8
TEXT
10
743.000000
20
290.696834
30
0.0
40
2.4000
1
   the feature would be missing from the sheet.
0
TEXT
8
TEXT
10
743.000000
20
286.976834
30
0.0
40
2.4000
1
8. RIGHT VIEW: hidden lines SUPPRESSED: all 565 edge
0
TEXT
8
TEXT
10
743.000000
20
283.256834
30
0.0
40
2.4000
1
   samples still land on drawn ink without them.
0
TEXT
8
TEXT
10
743.000000
20
275.536834
30
0.0
40
3.0000
1
PRINT / DFM
0
TEXT
8
TEXT
10
743.000000
20
270.936834
30
0.0
40
2.4000
1
1. ORIENTATION: laid flat (35 x 18 x 28 mm)
0
TEXT
8
TEXT
10
743.000000
20
267.216834
30
0.0
40
2.4000
1
2. THINNEST WALL: 0.38 mm (floor 0.80 mm = 2 perimeters @
0
TEXT
8
TEXT
10
743.000000
20
263.496834
30
0.0
40
2.4000
1
   0.4 mm nozzle)
0
TEXT
8
TEXT
10
743.000000
20
259.776834
30
0.0
40
2.4000
1
3. 10 horizontal bore(s) bridge at the crown: ream any
0
TEXT
8
TEXT
10
743.000000
20
256.056834
30
0.0
40
2.4000
1
   bearing or press-fit bore to size
0
TEXT
8
TEXT
10
743.000000
20
252.336834
30
0.0
40
2.4000
1
4. FILAMENT: PLA, ~4 g (modelled), 139 layers @ 0.2 mm
0
TEXT
8
TEXT
10
743.000000
20
248.616834
30
0.0
40
2.4000
1
5. TOLERANCE BASIS, IN-HOUSE: CANNOT DETERMINE. Every
0
TEXT
8
TEXT
10
743.000000
20
244.896834
30
0.0
40
2.4000
1
   Bambu on this farm records tolerance_mm: null, cite "no
0
TEXT
8
TEXT
10
743.000000
20
241.176834
30
0.0
40
2.4000
1
   coupon printed and measured on this machine"
0
TEXT
8
TEXT
10
743.000000
20
237.456834
30
0.0
40
2.4000
1
   (ce-machines/bambu-h2s-*,
0
TEXT
8
TEXT
10
743.000000
20
233.736834
30
0.0
40
2.4000
1
   bambu-h2d-*/capabilities.json, read 2026-09-02), and
0
TEXT
8
TEXT
10
743.000000
20
230.016834
30
0.0
40
2.4000
1
   Bambu Lab's own H2D Pro spec sheet carries no
0
TEXT
8
TEXT
10
743.000000
20
226.296834
30
0.0
40
2.4000
1
   dimensional-accuracy line. DIMENSIONS HERE ARE NOMINAL
0
TEXT
8
TEXT
10
743.000000
20
222.576834
30
0.0
40
2.4000
1
   AS MODELLED.
0
TEXT
8
TEXT
10
743.000000
20
218.856834
30
0.0
40
2.4000
1
6. TOLERANCE BASIS, OUTSOURCED: JLC3DP +/-0.3 mm FDM
0
TEXT
8
TEXT
10
743.000000
20
215.136834
30
0.0
40
2.4000
1
   (jlc3dp.com, ce-machines/farm-jlc3dp); Hubs +/-0.5%,
0
TEXT
8
TEXT
10
743.000000
20
211.416834
30
0.0
40
2.4000
1
   floor +/-0.5 mm (hubs.com/3d-printing/,
0
TEXT
8
TEXT
10
743.000000
20
207.696834
30
0.0
40
2.4000
1
   ce-machines/farm-hubs). Apply the route's figure, not
0
TEXT
8
TEXT
10
743.000000
20
203.976834
30
0.0
40
2.4000
1
   both. The +/-0.2 mm in cecad/machining.py fdm is a repo
0
TEXT
8
TEXT
10
743.000000
20
200.256834
30
0.0
40
2.4000
1
   planning constant with no vendor cite and is NOT used
0
TEXT
8
TEXT
10
743.000000
20
196.536834
30
0.0
40
2.4000
1
   here. One printed and measured coupon closes this note.
0
TEXT
8
TEXT
10
743.000000
20
192.816834
30
0.0
40
2.4000
1
7. NO ISO 286 CLASS IS DECLARED ON ANY BORE: FDM cannot be
0
TEXT
8
TEXT
10
743.000000
20
189.096834
30
0.0
40
2.4000
1
   sized to one (H7/p6 at O3 is a 0.010 mm band). REAM
0
TEXT
8
TEXT
10
743.000000
20
185.376834
30
0.0
40
2.4000
1
   bearing and press-fit bores after printing.
0
LINE
8
FRAME
10
645.000000
20
10.000000
30
0.0
11
831.000000
21
10.000000
31
0.0
0
LINE
8
FRAME
10
831.000000
20
10.000000
30
0.0
11
831.000000
21
66.000000
31
0.0
0
LINE
8
FRAME
10
831.000000
20
66.000000
30
0.0
11
645.000000
21
66.000000
31
0.0
0
LINE
8
FRAME
10
645.000000
20
66.000000
30
0.0
11
645.000000
21
10.000000
31
0.0
0
LINE
8
TITLE
10
645.000000
20
53.000000
30
0.0
11
831.000000
21
53.000000
31
0.0
0
LINE
8
TITLE
10
645.000000
20
19.000000
30
0.0
11
831.000000
21
19.000000
31
0.0
0
LINE
8
TITLE
10
645.000000
20
27.500000
30
0.0
11
831.000000
21
27.500000
31
0.0
0
LINE
8
TITLE
10
645.000000
20
36.000000
30
0.0
11
831.000000
21
36.000000
31
0.0
0
LINE
8
TITLE
10
645.000000
20
44.500000
30
0.0
11
831.000000
21
44.500000
31
0.0
0
TEXT
8
TEXT
10
647.500000
20
59.500000
30
0.0
40
6.0000
1
MICRODUCK-NECK-PITCH-BRACKET
72
0
73
2
11
647.500000
21
59.500000
31
0.0
0
LINE
8
TITLE
10
811.000000
20
53.000000
30
0.0
11
811.000000
21
66.000000
31
0.0
0
TEXT
8
TITLE
10
821.000000
20
63.600000
30
0.0
40
1.7000
1
REV
72
1
73
0
11
821.000000
21
63.600000
31
0.0
0
TEXT
8
TEXT
10
821.000000
20
55.000000
30
0.0
40
5.2000
1
A
72
1
73
0
11
821.000000
21
55.000000
31
0.0
0
LINE
8
TITLE
10
781.000000
20
53.000000
30
0.0
11
781.000000
21
66.000000
31
0.0
0
CIRCLE
8
TITLE
10
787.500000
20
59.500000
30
0.0
40
3.500000
0
CIRCLE
8
TITLE
10
787.500000
20
59.500000
30
0.0
40
1.960000
0
LINE
8
TITLE
10
797.300000
20
56.000000
30
0.0
11
797.300000
21
63.000000
31
0.0
0
LINE
8
TITLE
10
797.300000
20
63.000000
30
0.0
11
803.250000
21
61.460000
31
0.0
0
LINE
8
TITLE
10
803.250000
20
61.460000
30
0.0
11
803.250000
21
57.540000
31
0.0
0
LINE
8
TITLE
10
803.250000
20
57.540000
30
0.0
11
797.300000
21
56.000000
31
0.0
0
LINE
8
CENTER
10
782.500000
20
59.500000
30
0.0
11
804.750000
21
59.500000
31
0.0
0
LINE
8
TITLE
10
709.000000
20
19.000000
30
0.0
11
709.000000
21
53.000000
31
0.0
0
LINE
8
TITLE
10
773.000000
20
19.000000
30
0.0
11
773.000000
21
53.000000
31
0.0
0
TEXT
8
TITLE
10
646.600000
20
50.600000
30
0.0
40
1.7000
1
MATERIAL
0
TEXT
8
TEXT
10
646.600000
20
45.900000
30
0.0
40
2.5000
1
PLA
0
TEXT
8
TITLE
10
710.600000
20
50.600000
30
0.0
40
1.7000
1
PROCESS
0
TEXT
8
TEXT
10
710.600000
20
45.900000
30
0.0
40
2.5000
1
FDM
0
TEXT
8
TITLE
10
774.600000
20
50.600000
30
0.0
40
1.7000
1
SCALE
0
TEXT
8
TEXT
10
774.600000
20
45.900000
30
0.0
40
2.5000
1
5:1
0
TEXT
8
TITLE
10
646.600000
20
42.100000
30
0.0
40
1.7000
1
CATEGORY
0
TEXT
8
TEXT
10
646.600000
20
37.400000
30
0.0
40
2.5000
1
bracket
0
TEXT
8
TITLE
10
678.600000
20
42.100000
30
0.0
40
1.7000
1
GENERAL TOL
0
TEXT
8
TEXT
10
678.600000
20
37.400000
30
0.0
40
2.5000
1
CANNOT DETERMINE —~
0
LINE
8
TITLE
10
677.000000
20
36.000000
30
0.0
11
677.000000
21
44.500000
31
0.0
0
TEXT
8
TITLE
10
710.600000
20
42.100000
30
0.0
40
1.7000
1
FINISH
0
TEXT
8
TEXT
10
710.600000
20
37.400000
30
0.0
40
2.5000
1
AS PRINTED
0
TEXT
8
TITLE
10
774.600000
20
42.100000
30
0.0
40
1.7000
1
SHEET
0
TEXT
8
TEXT
10
774.600000
20
37.400000
30
0.0
40
2.5000
1
A1  1/1
0
TEXT
8
TITLE
10
646.600000
20
33.600000
30
0.0
40
1.7000
1
VOLUME (MEASURED)
0
TEXT
8
TEXT
10
646.600000
20
28.900000
30
0.0
40
2.5000
1
4.11 cm3
0
TEXT
8
TITLE
10
710.600000
20
33.600000
30
0.0
40
1.7000
1
MASS (ASSUMES PLA)
0
TEXT
8
TEXT
10
710.600000
20
28.900000
30
0.0
40
2.5000
1
5.1 g
0
TEXT
8
TITLE
10
774.600000
20
33.600000
30
0.0
40
1.7000
1
UNITS
0
TEXT
8
TEXT
10
774.600000
20
28.900000
30
0.0
40
2.5000
1
mm / deg
0
TEXT
8
TITLE
10
646.600000
20
25.100000
30
0.0
40
1.7000
1
SIZE (BBOX, MEASURED)
0
TEXT
8
TEXT
10
646.600000
20
20.400000
30
0.0
40
2.5000
1
35.00 x 18.00 x 27.69
0
TEXT
8
TITLE
10
710.600000
20
25.100000
30
0.0
40
1.7000
1
DRAWN
0
TEXT
8
TEXT
10
710.600000
20
20.400000
30
0.0
40
2.5000
1
ce-cad  2026-09-03
0
TEXT
8
TITLE
10
774.600000
20
25.100000
30
0.0
40
1.7000
1
PROJECTION
0
TEXT
8
TEXT
10
774.600000
20
20.400000
30
0.0
40
2.5000
1
THIRD ANGLE
0
TEXT
8
TITLE
10
646.600000
20
16.600000
30
0.0
40
1.7000
1
SOURCE (DESIGN FILE)
0
TEXT
8
TEXT
10
646.600000
20
11.400000
30
0.0
40
2.6000
1
ce-parts/microduck-neck-pitch-bracket/current/cad/part.py
0
TEXT
8
TEXT
10
12.500000
20
577.500000
30
0.0
40
4.2000
1
microduck-neck-pitch-bracket   SCALE 5:1   A1   THIRD ANGLE
0
ENDSEC
0
EOF
