0
SECTION
2
HEADER
9
$ACADVER
1
AC1009
9
$INSUNITS
70
4
9
$LTSCALE
40
1.0
9
$EXTMIN
10
0.0000
20
0.0000
30
0.0
9
$EXTMAX
10
420.0000
20
297.0000
30
0.0
0
ENDSEC
0
SECTION
2
TABLES
0
TABLE
2
LTYPE
70
4
0
LTYPE
2
CONTINUOUS
70
0
3
Solid line
72
65
73
0
40
0.0000
0
LTYPE
2
HIDDEN
70
0
3
Hidden __ __ __ __
72
65
73
2
40
3.6000
49
2.4000
49
-1.2000
0
LTYPE
2
CENTER
70
0
3
Center ____ _ ____ _
72
65
73
4
40
11.2000
49
7.0000
49
-1.4000
49
1.4000
49
-1.4000
0
LTYPE
2
PHANTOM
70
0
3
Phantom ____ _ _ ____
72
65
73
6
40
21.0000
49
11.0000
49
-2.0000
49
2.0000
49
-2.0000
49
2.0000
49
-2.0000
0
ENDTAB
0
TABLE
2
LAYER
70
12
0
LAYER
2
0
70
0
62
7
6
CONTINUOUS
0
LAYER
2
VISIBLE
70
0
62
7
6
CONTINUOUS
0
LAYER
2
SECTION
70
0
62
7
6
CONTINUOUS
0
LAYER
2
HIDDEN
70
0
62
8
6
HIDDEN
0
LAYER
2
CENTER
70
0
62
4
6
CENTER
0
LAYER
2
DIM
70
0
62
3
6
CONTINUOUS
0
LAYER
2
TEXT
70
0
62
3
6
CONTINUOUS
0
LAYER
2
HATCH
70
0
62
5
6
CONTINUOUS
0
LAYER
2
CUT
70
0
62
1
6
PHANTOM
0
LAYER
2
CUTTHIN
70
0
62
1
6
PHANTOM
0
LAYER
2
FRAME
70
0
62
7
6
CONTINUOUS
0
LAYER
2
TITLE
70
0
62
7
6
CONTINUOUS
0
ENDTAB
0
ENDSEC
0
SECTION
2
ENTITIES
0
LINE
8
FRAME
10
10.000000
20
10.000000
30
0.0
11
410.000000
21
10.000000
31
0.0
0
LINE
8
FRAME
10
410.000000
20
10.000000
30
0.0
11
410.000000
21
287.000000
31
0.0
0
LINE
8
FRAME
10
410.000000
20
287.000000
30
0.0
11
10.000000
21
287.000000
31
0.0
0
LINE
8
FRAME
10
10.000000
20
287.000000
30
0.0
11
10.000000
21
10.000000
31
0.0
0
TEXT
8
TEXT
10
13.000000
20
280.000000
30
0.0
40
5.0000
1
MICRODUCK-JAW   PRINT SHEET   A3
0
TEXT
8
TEXT
10
13.000000
20
274.000000
30
0.0
40
3.0000
1
NOT A DIMENSIONED DRAWING — READ NOTE 1
0
LINE
8
FRAME
10
10.000000
20
271.000000
30
0.0
11
410.000000
21
271.000000
31
0.0
0
LINE
8
VISIBLE
10
14.000000
20
177.000000
30
0.0
11
132.000000
21
177.000000
31
0.0
0
LINE
8
VISIBLE
10
132.000000
20
177.000000
30
0.0
11
132.000000
21
265.000000
31
0.0
0
LINE
8
VISIBLE
10
132.000000
20
265.000000
30
0.0
11
14.000000
21
265.000000
31
0.0
0
LINE
8
VISIBLE
10
14.000000
20
265.000000
30
0.0
11
14.000000
21
177.000000
31
0.0
0
LINE
8
TITLE
10
14.000000
20
177.000000
30
0.0
11
132.000000
21
177.000000
31
0.0
0
LINE
8
TITLE
10
132.000000
20
177.000000
30
0.0
11
132.000000
21
265.000000
31
0.0
0
LINE
8
TITLE
10
132.000000
20
265.000000
30
0.0
11
14.000000
21
265.000000
31
0.0
0
LINE
8
TITLE
10
14.000000
20
265.000000
30
0.0
11
14.000000
21
177.000000
31
0.0
0
TEXT
8
TEXT
10
73.000000
20
172.800000
30
0.0
40
2.8000
1
ISO — 900 x 660 px, rendered off this shape
72
1
73
0
11
73.000000
21
172.800000
31
0.0
0
LINE
8
VISIBLE
10
138.000000
20
177.000000
30
0.0
11
256.000000
21
177.000000
31
0.0
0
LINE
8
VISIBLE
10
256.000000
20
177.000000
30
0.0
11
256.000000
21
265.000000
31
0.0
0
LINE
8
VISIBLE
10
256.000000
20
265.000000
30
0.0
11
138.000000
21
265.000000
31
0.0
0
LINE
8
VISIBLE
10
138.000000
20
265.000000
30
0.0
11
138.000000
21
177.000000
31
0.0
0
LINE
8
TITLE
10
138.000000
20
177.000000
30
0.0
11
256.000000
21
177.000000
31
0.0
0
LINE
8
TITLE
10
256.000000
20
177.000000
30
0.0
11
256.000000
21
265.000000
31
0.0
0
LINE
8
TITLE
10
256.000000
20
265.000000
30
0.0
11
138.000000
21
265.000000
31
0.0
0
LINE
8
TITLE
10
138.000000
20
265.000000
30
0.0
11
138.000000
21
177.000000
31
0.0
0
TEXT
8
TEXT
10
197.000000
20
172.800000
30
0.0
40
2.8000
1
ISO2 — 900 x 660 px, rendered off this shape
72
1
73
0
11
197.000000
21
172.800000
31
0.0
0
LINE
8
VISIBLE
10
14.000000
20
77.000000
30
0.0
11
132.000000
21
77.000000
31
0.0
0
LINE
8
VISIBLE
10
132.000000
20
77.000000
30
0.0
11
132.000000
21
165.000000
31
0.0
0
LINE
8
VISIBLE
10
132.000000
20
165.000000
30
0.0
11
14.000000
21
165.000000
31
0.0
0
LINE
8
VISIBLE
10
14.000000
20
165.000000
30
0.0
11
14.000000
21
77.000000
31
0.0
0
LINE
8
TITLE
10
14.000000
20
77.000000
30
0.0
11
132.000000
21
77.000000
31
0.0
0
LINE
8
TITLE
10
132.000000
20
77.000000
30
0.0
11
132.000000
21
165.000000
31
0.0
0
LINE
8
TITLE
10
132.000000
20
165.000000
30
0.0
11
14.000000
21
165.000000
31
0.0
0
LINE
8
TITLE
10
14.000000
20
165.000000
30
0.0
11
14.000000
21
77.000000
31
0.0
0
TEXT
8
TEXT
10
73.000000
20
72.800000
30
0.0
40
2.8000
1
FRONT — 900 x 660 px, rendered off this shape
72
1
73
0
11
73.000000
21
72.800000
31
0.0
0
LINE
8
VISIBLE
10
138.000000
20
77.000000
30
0.0
11
256.000000
21
77.000000
31
0.0
0
LINE
8
VISIBLE
10
256.000000
20
77.000000
30
0.0
11
256.000000
21
165.000000
31
0.0
0
LINE
8
VISIBLE
10
256.000000
20
165.000000
30
0.0
11
138.000000
21
165.000000
31
0.0
0
LINE
8
VISIBLE
10
138.000000
20
165.000000
30
0.0
11
138.000000
21
77.000000
31
0.0
0
LINE
8
TITLE
10
138.000000
20
77.000000
30
0.0
11
256.000000
21
77.000000
31
0.0
0
LINE
8
TITLE
10
256.000000
20
77.000000
30
0.0
11
256.000000
21
165.000000
31
0.0
0
LINE
8
TITLE
10
256.000000
20
165.000000
30
0.0
11
138.000000
21
165.000000
31
0.0
0
LINE
8
TITLE
10
138.000000
20
165.000000
30
0.0
11
138.000000
21
77.000000
31
0.0
0
TEXT
8
TEXT
10
197.000000
20
72.800000
30
0.0
40
2.8000
1
RIGHT — 900 x 660 px, rendered off this shape
72
1
73
0
11
197.000000
21
72.800000
31
0.0
0
TEXT
8
TEXT
10
266.000000
20
263.000000
30
0.0
40
3.0000
1
MEASURED FACTS
0
TEXT
8
TEXT
10
266.000000
20
258.000000
30
0.0
40
2.6000
1
ENVELOPE X
0
TEXT
8
TEXT
10
322.000000
20
258.000000
30
0.0
40
2.6000
1
91.4158 mm
0
TEXT
8
TEXT
10
266.000000
20
254.100000
30
0.0
40
2.6000
1
ENVELOPE Y
0
TEXT
8
TEXT
10
322.000000
20
254.100000
30
0.0
40
2.6000
1
68.7105 mm
0
TEXT
8
TEXT
10
266.000000
20
250.200000
30
0.0
40
2.6000
1
ENVELOPE Z
0
TEXT
8
TEXT
10
322.000000
20
250.200000
30
0.0
40
2.6000
1
29.4477 mm
0
TEXT
8
TEXT
10
266.000000
20
246.300000
30
0.0
40
2.6000
1
MATERIAL
0
TEXT
8
TEXT
10
322.000000
20
246.300000
30
0.0
40
2.6000
1
PLA
0
TEXT
8
TEXT
10
266.000000
20
242.400000
30
0.0
40
2.6000
1
ORIENTATION
0
TEXT
8
TEXT
10
322.000000
20
242.400000
30
0.0
40
2.6000
1
as modelled, Z up (X is the long axis, 91.4158 mm)
0
TEXT
8
TEXT
10
266.000000
20
238.500000
30
0.0
40
2.6000
1
SUPPORT
0
TEXT
8
TEXT
10
322.000000
20
238.500000
30
0.0
40
2.6000
1
CANNOT DETERMINE — no tool in this repo measures
0
TEXT
8
TEXT
10
322.000000
20
234.600000
30
0.0
40
2.6000
1
overhang angle; the slicer decides
0
TEXT
8
TEXT
10
266.000000
20
230.700000
30
0.0
40
2.6000
1
SURFACE FINISH
0
TEXT
8
TEXT
10
322.000000
20
230.700000
30
0.0
40
2.6000
1
AS PRINTED, layer lines along the build axis
0
TEXT
8
TEXT
10
266.000000
20
226.800000
30
0.0
40
2.6000
1
SOLID?
0
TEXT
8
TEXT
10
322.000000
20
226.800000
30
0.0
40
2.6000
1
closed solid
0
TEXT
8
TEXT
10
266.000000
20
222.900000
30
0.0
40
2.6000
1
VOLUME
0
TEXT
8
TEXT
10
322.000000
20
222.900000
30
0.0
40
2.6000
1
9360.1081 mm3
0
TEXT
8
TEXT
10
266.000000
20
219.000000
30
0.0
40
2.6000
1
MASS
0
TEXT
8
TEXT
10
322.000000
20
219.000000
30
0.0
40
2.6000
1
11.6065 g (assumes PLA)
0
TEXT
8
TEXT
10
266.000000
20
215.100000
30
0.0
40
2.6000
1
SURFACE AREA
0
TEXT
8
TEXT
10
322.000000
20
215.100000
30
0.0
40
2.6000
1
11074.0838 mm2
0
TEXT
8
TEXT
10
266.000000
20
211.200000
30
0.0
40
2.6000
1
FACES
0
TEXT
8
TEXT
10
322.000000
20
211.200000
30
0.0
40
2.6000
1
9918
0
TEXT
8
TEXT
10
266.000000
20
207.300000
30
0.0
40
2.6000
1
SHELLS / SOLIDS
0
TEXT
8
TEXT
10
322.000000
20
207.300000
30
0.0
40
2.6000
1
1 / 1
0
TEXT
8
TEXT
10
266.000000
20
203.400000
30
0.0
40
2.6000
1
PRINT THIS FILE
0
TEXT
8
TEXT
10
322.000000
20
203.400000
30
0.0
40
2.6000
1
/Users/leifrydenfalk/dev/ce-workshop/ce-designs/micro
0
TEXT
8
TEXT
10
322.000000
20
199.500000
30
0.0
40
2.6000
1
duck/ce-parts/microduck-jaw/iterations/v0.0.1/geometr
0
TEXT
8
TEXT
10
322.000000
20
195.600000
30
0.0
40
2.6000
1
y/jaw.stl
0
TEXT
8
TEXT
10
266.000000
20
191.700000
30
0.0
40
2.6000
1
SHA-256
0
TEXT
8
TEXT
10
322.000000
20
191.700000
30
0.0
40
2.6000
1
65c300349113d3c6cd4a2cc587f76f7228115565a854492e42358
0
TEXT
8
TEXT
10
322.000000
20
187.800000
30
0.0
40
2.6000
1
ba8df71796a
0
TEXT
8
TEXT
10
266.000000
20
183.900000
30
0.0
40
2.6000
1
BYTES
0
TEXT
8
TEXT
10
322.000000
20
183.900000
30
0.0
40
2.6000
1
495984
0
TEXT
8
TEXT
10
266.000000
20
106.000000
30
0.0
40
3.0000
1
NOTES
0
TEXT
8
TEXT
10
266.000000
20
101.000000
30
0.0
40
2.4000
1
1. THIS PART IS BACKED BY A PUBLISHED MESH, NOT BY A PARAMETRIC SOLID, SO IT CARRIES NO
0
TEXT
8
TEXT
10
266.000000
20
97.500000
30
0.0
40
2.4000
1
   DIMENSIONED DRAWING. Every number a drawing would call out — a hole diameter, a wall, a
0
TEXT
8
TEXT
10
266.000000
20
94.000000
30
0.0
40
2.4000
1
   radius, a fit — would be a measurement of a DECIMATED TRIANGULATION and not of the part. The
0
TEXT
8
TEXT
10
266.000000
20
90.500000
30
0.0
40
2.4000
1
   envelope above is exact because a bound on a triangle soup is exact; a diameter through one
0
TEXT
8
TEXT
10
266.000000
20
87.000000
30
0.0
40
2.4000
1
   is not. A parametric rebuild, graded against this mesh by cad-refcheck, is what restores the
0
TEXT
8
TEXT
10
266.000000
20
83.500000
30
0.0
40
2.4000
1
   drawing.
0
TEXT
8
TEXT
10
266.000000
20
80.000000
30
0.0
40
2.4000
1
2. PRINT THE NAMED FILE. Its sha256 is on this sheet so the shop can prove the bytes it sliced
0
TEXT
8
TEXT
10
266.000000
20
76.500000
30
0.0
40
2.4000
1
   are the bytes this sheet describes.
0
TEXT
8
TEXT
10
266.000000
20
73.000000
30
0.0
40
2.4000
1
3. NO TOLERANCE IS STATED because none was measured. See the manufacturing document for the
0
TEXT
8
TEXT
10
266.000000
20
69.500000
30
0.0
40
2.4000
1
   tolerance basis of this programme.
0
TEXT
8
TEXT
10
266.000000
20
66.000000
30
0.0
40
2.4000
1
4. Origin: vendor. cad/part.py is a published-mesh loader (meshshelve, from_mesh,
0
TEXT
8
TEXT
10
266.000000
20
62.500000
30
0.0
40
2.4000
1
   Part.from_mesh); a decimated triangulation carries no dimension a shop can work to
0
TEXT
8
TEXT
10
266.000000
20
59.000000
30
0.0
40
2.4000
1
   (docs/MANUFACTURING-REQUIREMENTS.md A.3)
0
TEXT
8
TEXT
10
13.000000
20
13.000000
30
0.0
40
2.4000
1
ce-cad printsheet   microduck-jaw   source: ce-parts/microduck-jaw/current/cad/part.py
0
ENDSEC
0
EOF
