0
SECTION
2
HEADER
9
$ACADVER
1
AC1009
9
$INSUNITS
70
4
9
$LTSCALE
40
1.0
9
$EXTMIN
10
0.0000
20
0.0000
30
0.0
9
$EXTMAX
10
841.0000
20
594.0000
30
0.0
0
ENDSEC
0
SECTION
2
TABLES
0
TABLE
2
LTYPE
70
4
0
LTYPE
2
CONTINUOUS
70
0
3
Solid line
72
65
73
0
40
0.0000
0
LTYPE
2
HIDDEN
70
0
3
Hidden __ __ __ __
72
65
73
2
40
3.6000
49
2.4000
49
-1.2000
0
LTYPE
2
CENTER
70
0
3
Center ____ _ ____ _
72
65
73
4
40
11.2000
49
7.0000
49
-1.4000
49
1.4000
49
-1.4000
0
LTYPE
2
PHANTOM
70
0
3
Phantom ____ _ _ ____
72
65
73
6
40
21.0000
49
11.0000
49
-2.0000
49
2.0000
49
-2.0000
49
2.0000
49
-2.0000
0
ENDTAB
0
TABLE
2
LAYER
70
12
0
LAYER
2
0
70
0
62
7
6
CONTINUOUS
0
LAYER
2
VISIBLE
70
0
62
7
6
CONTINUOUS
0
LAYER
2
SECTION
70
0
62
7
6
CONTINUOUS
0
LAYER
2
HIDDEN
70
0
62
8
6
HIDDEN
0
LAYER
2
CENTER
70
0
62
4
6
CENTER
0
LAYER
2
DIM
70
0
62
3
6
CONTINUOUS
0
LAYER
2
TEXT
70
0
62
3
6
CONTINUOUS
0
LAYER
2
HATCH
70
0
62
5
6
CONTINUOUS
0
LAYER
2
CUT
70
0
62
1
6
PHANTOM
0
LAYER
2
CUTTHIN
70
0
62
1
6
PHANTOM
0
LAYER
2
FRAME
70
0
62
7
6
CONTINUOUS
0
LAYER
2
TITLE
70
0
62
7
6
CONTINUOUS
0
ENDTAB
0
ENDSEC
0
SECTION
2
ENTITIES
0
LINE
8
TITLE
10
5.000000
20
5.000000
30
0.0
11
836.000000
21
5.000000
31
0.0
0
LINE
8
TITLE
10
836.000000
20
5.000000
30
0.0
11
836.000000
21
589.000000
31
0.0
0
LINE
8
TITLE
10
836.000000
20
589.000000
30
0.0
11
5.000000
21
589.000000
31
0.0
0
LINE
8
TITLE
10
5.000000
20
589.000000
30
0.0
11
5.000000
21
5.000000
31
0.0
0
LINE
8
FRAME
10
10.000000
20
10.000000
30
0.0
11
831.000000
21
10.000000
31
0.0
0
LINE
8
FRAME
10
831.000000
20
10.000000
30
0.0
11
831.000000
21
584.000000
31
0.0
0
LINE
8
FRAME
10
831.000000
20
584.000000
30
0.0
11
10.000000
21
584.000000
31
0.0
0
LINE
8
FRAME
10
10.000000
20
584.000000
30
0.0
11
10.000000
21
10.000000
31
0.0
0
TEXT
8
TITLE
10
61.312500
20
586.500000
30
0.0
40
2.4000
1
1
72
1
73
2
11
61.312500
21
586.500000
31
0.0
0
TEXT
8
TITLE
10
61.312500
20
7.500000
30
0.0
40
2.4000
1
1
72
1
73
2
11
61.312500
21
7.500000
31
0.0
0
TEXT
8
TITLE
10
163.937500
20
586.500000
30
0.0
40
2.4000
1
2
72
1
73
2
11
163.937500
21
586.500000
31
0.0
0
TEXT
8
TITLE
10
163.937500
20
7.500000
30
0.0
40
2.4000
1
2
72
1
73
2
11
163.937500
21
7.500000
31
0.0
0
LINE
8
TITLE
10
112.625000
20
5.000000
30
0.0
11
112.625000
21
10.000000
31
0.0
0
LINE
8
TITLE
10
112.625000
20
584.000000
30
0.0
11
112.625000
21
589.000000
31
0.0
0
TEXT
8
TITLE
10
266.562500
20
586.500000
30
0.0
40
2.4000
1
3
72
1
73
2
11
266.562500
21
586.500000
31
0.0
0
TEXT
8
TITLE
10
266.562500
20
7.500000
30
0.0
40
2.4000
1
3
72
1
73
2
11
266.562500
21
7.500000
31
0.0
0
LINE
8
TITLE
10
215.250000
20
5.000000
30
0.0
11
215.250000
21
10.000000
31
0.0
0
LINE
8
TITLE
10
215.250000
20
584.000000
30
0.0
11
215.250000
21
589.000000
31
0.0
0
TEXT
8
TITLE
10
369.187500
20
586.500000
30
0.0
40
2.4000
1
4
72
1
73
2
11
369.187500
21
586.500000
31
0.0
0
TEXT
8
TITLE
10
369.187500
20
7.500000
30
0.0
40
2.4000
1
4
72
1
73
2
11
369.187500
21
7.500000
31
0.0
0
LINE
8
TITLE
10
317.875000
20
5.000000
30
0.0
11
317.875000
21
10.000000
31
0.0
0
LINE
8
TITLE
10
317.875000
20
584.000000
30
0.0
11
317.875000
21
589.000000
31
0.0
0
TEXT
8
TITLE
10
471.812500
20
586.500000
30
0.0
40
2.4000
1
5
72
1
73
2
11
471.812500
21
586.500000
31
0.0
0
TEXT
8
TITLE
10
471.812500
20
7.500000
30
0.0
40
2.4000
1
5
72
1
73
2
11
471.812500
21
7.500000
31
0.0
0
LINE
8
TITLE
10
420.500000
20
5.000000
30
0.0
11
420.500000
21
10.000000
31
0.0
0
LINE
8
TITLE
10
420.500000
20
584.000000
30
0.0
11
420.500000
21
589.000000
31
0.0
0
TEXT
8
TITLE
10
574.437500
20
586.500000
30
0.0
40
2.4000
1
6
72
1
73
2
11
574.437500
21
586.500000
31
0.0
0
TEXT
8
TITLE
10
574.437500
20
7.500000
30
0.0
40
2.4000
1
6
72
1
73
2
11
574.437500
21
7.500000
31
0.0
0
LINE
8
TITLE
10
523.125000
20
5.000000
30
0.0
11
523.125000
21
10.000000
31
0.0
0
LINE
8
TITLE
10
523.125000
20
584.000000
30
0.0
11
523.125000
21
589.000000
31
0.0
0
TEXT
8
TITLE
10
677.062500
20
586.500000
30
0.0
40
2.4000
1
7
72
1
73
2
11
677.062500
21
586.500000
31
0.0
0
TEXT
8
TITLE
10
677.062500
20
7.500000
30
0.0
40
2.4000
1
7
72
1
73
2
11
677.062500
21
7.500000
31
0.0
0
LINE
8
TITLE
10
625.750000
20
5.000000
30
0.0
11
625.750000
21
10.000000
31
0.0
0
LINE
8
TITLE
10
625.750000
20
584.000000
30
0.0
11
625.750000
21
589.000000
31
0.0
0
TEXT
8
TITLE
10
779.687500
20
586.500000
30
0.0
40
2.4000
1
8
72
1
73
2
11
779.687500
21
586.500000
31
0.0
0
TEXT
8
TITLE
10
779.687500
20
7.500000
30
0.0
40
2.4000
1
8
72
1
73
2
11
779.687500
21
7.500000
31
0.0
0
LINE
8
TITLE
10
728.375000
20
5.000000
30
0.0
11
728.375000
21
10.000000
31
0.0
0
LINE
8
TITLE
10
728.375000
20
584.000000
30
0.0
11
728.375000
21
589.000000
31
0.0
0
TEXT
8
TITLE
10
7.500000
20
67.400000
30
0.0
40
2.4000
1
E
72
1
73
2
11
7.500000
21
67.400000
31
0.0
0
TEXT
8
TITLE
10
833.500000
20
67.400000
30
0.0
40
2.4000
1
E
72
1
73
2
11
833.500000
21
67.400000
31
0.0
0
TEXT
8
TITLE
10
7.500000
20
182.200000
30
0.0
40
2.4000
1
D
72
1
73
2
11
7.500000
21
182.200000
31
0.0
0
TEXT
8
TITLE
10
833.500000
20
182.200000
30
0.0
40
2.4000
1
D
72
1
73
2
11
833.500000
21
182.200000
31
0.0
0
LINE
8
TITLE
10
5.000000
20
124.800000
30
0.0
11
10.000000
21
124.800000
31
0.0
0
LINE
8
TITLE
10
831.000000
20
124.800000
30
0.0
11
836.000000
21
124.800000
31
0.0
0
TEXT
8
TITLE
10
7.500000
20
297.000000
30
0.0
40
2.4000
1
C
72
1
73
2
11
7.500000
21
297.000000
31
0.0
0
TEXT
8
TITLE
10
833.500000
20
297.000000
30
0.0
40
2.4000
1
C
72
1
73
2
11
833.500000
21
297.000000
31
0.0
0
LINE
8
TITLE
10
5.000000
20
239.600000
30
0.0
11
10.000000
21
239.600000
31
0.0
0
LINE
8
TITLE
10
831.000000
20
239.600000
30
0.0
11
836.000000
21
239.600000
31
0.0
0
TEXT
8
TITLE
10
7.500000
20
411.800000
30
0.0
40
2.4000
1
B
72
1
73
2
11
7.500000
21
411.800000
31
0.0
0
TEXT
8
TITLE
10
833.500000
20
411.800000
30
0.0
40
2.4000
1
B
72
1
73
2
11
833.500000
21
411.800000
31
0.0
0
LINE
8
TITLE
10
5.000000
20
354.400000
30
0.0
11
10.000000
21
354.400000
31
0.0
0
LINE
8
TITLE
10
831.000000
20
354.400000
30
0.0
11
836.000000
21
354.400000
31
0.0
0
TEXT
8
TITLE
10
7.500000
20
526.600000
30
0.0
40
2.4000
1
A
72
1
73
2
11
7.500000
21
526.600000
31
0.0
0
TEXT
8
TITLE
10
833.500000
20
526.600000
30
0.0
40
2.4000
1
A
72
1
73
2
11
833.500000
21
526.600000
31
0.0
0
LINE
8
TITLE
10
5.000000
20
469.200000
30
0.0
11
10.000000
21
469.200000
31
0.0
0
LINE
8
TITLE
10
831.000000
20
469.200000
30
0.0
11
836.000000
21
469.200000
31
0.0
0
LINE
8
VISIBLE
10
333.571325
20
345.615000
30
0.0
11
333.571325
21
392.000000
31
0.0
0
LINE
8
VISIBLE
10
333.571325
20
345.615000
30
0.0
11
433.571325
21
345.615000
31
0.0
0
LINE
8
VISIBLE
10
333.571325
20
392.000000
30
0.0
11
333.999082
21
398.526310
31
0.0
0
LINE
8
VISIBLE
10
433.571325
20
392.000000
30
0.0
11
433.571325
21
345.615000
31
0.0
0
LINE
8
VISIBLE
10
333.999082
20
398.526310
30
0.0
11
335.275034
21
404.940952
31
0.0
0
LINE
8
VISIBLE
10
433.143568
20
398.526310
30
0.0
11
433.571325
21
392.000000
31
0.0
0
LINE
8
VISIBLE
10
335.275034
20
404.940952
30
0.0
11
337.377348
21
411.134172
31
0.0
0
LINE
8
VISIBLE
10
431.867616
20
404.940952
30
0.0
11
433.143568
21
398.526310
31
0.0
0
LINE
8
VISIBLE
10
337.377348
20
411.134172
30
0.0
11
340.270055
21
417.000000
31
0.0
0
LINE
8
VISIBLE
10
429.765302
20
411.134172
30
0.0
11
431.867616
21
404.940952
31
0.0
0
LINE
8
VISIBLE
10
340.270055
20
417.000000
30
0.0
11
343.903658
21
422.438071
31
0.0
0
LINE
8
VISIBLE
10
426.872595
20
417.000000
30
0.0
11
429.765302
21
411.134172
31
0.0
0
LINE
8
VISIBLE
10
343.903658
20
422.438071
30
0.0
11
348.215986
21
427.355339
31
0.0
0
LINE
8
VISIBLE
10
423.238992
20
422.438071
30
0.0
11
426.872595
21
417.000000
31
0.0
0
LINE
8
VISIBLE
10
348.215986
20
427.355339
30
0.0
11
353.133254
21
431.667667
31
0.0
0
LINE
8
VISIBLE
10
418.926664
20
427.355339
30
0.0
11
423.238992
21
422.438071
31
0.0
0
LINE
8
VISIBLE
10
353.133254
20
431.667667
30
0.0
11
358.571325
21
435.301270
31
0.0
0
LINE
8
VISIBLE
10
414.009396
20
431.667667
30
0.0
11
418.926664
21
427.355339
31
0.0
0
LINE
8
VISIBLE
10
358.571325
20
435.301270
30
0.0
11
364.437153
21
438.193977
31
0.0
0
LINE
8
VISIBLE
10
408.571325
20
435.301270
30
0.0
11
414.009396
21
431.667667
31
0.0
0
LINE
8
VISIBLE
10
364.437153
20
438.193977
30
0.0
11
370.630373
21
440.296291
31
0.0
0
LINE
8
VISIBLE
10
402.705497
20
438.193977
30
0.0
11
408.571325
21
435.301270
31
0.0
0
LINE
8
VISIBLE
10
370.630373
20
440.296291
30
0.0
11
377.045015
21
441.572243
31
0.0
0
LINE
8
VISIBLE
10
396.512277
20
440.296291
30
0.0
11
402.705497
21
438.193977
31
0.0
0
LINE
8
VISIBLE
10
377.045015
20
441.572243
30
0.0
11
383.571325
21
442.000000
31
0.0
0
LINE
8
VISIBLE
10
390.097635
20
441.572243
30
0.0
11
396.512277
21
440.296291
31
0.0
0
LINE
8
VISIBLE
10
383.571325
20
442.000000
30
0.0
11
390.097635
21
441.572243
31
0.0
0
CIRCLE
8
VISIBLE
10
383.571325
20
392.000000
30
0.0
40
39.750000
0
CIRCLE
8
VISIBLE
10
362.356325
20
370.785000
30
0.0
40
5.500000
0
CIRCLE
8
VISIBLE
10
362.356325
20
413.215000
30
0.0
40
5.500000
0
CIRCLE
8
VISIBLE
10
404.786325
20
370.785000
30
0.0
40
5.500000
0
CIRCLE
8
VISIBLE
10
383.571325
20
392.000000
30
0.0
40
15.000000
0
CIRCLE
8
VISIBLE
10
404.786325
20
413.215000
30
0.0
40
5.500000
0
ARC
8
VISIBLE
10
423.571325
20
294.500000
30
0.0
40
6.000000
50
294.624318
51
65.375682
0
ARC
8
VISIBLE
10
423.571325
20
294.500000
30
0.0
40
6.000000
50
245.375682
51
294.624318
0
ARC
8
VISIBLE
10
423.571325
20
294.500000
30
0.0
40
6.000000
50
114.624318
51
245.375682
0
LINE
8
VISIBLE
10
371.642228
20
340.985126
30
0.0
11
371.215435
21
339.578177
31
0.0
0
ARC
8
VISIBLE
10
343.571325
20
294.500000
30
0.0
40
6.000000
50
294.624318
51
65.375682
0
ARC
8
VISIBLE
10
343.571325
20
294.500000
30
0.0
40
6.000000
50
245.375682
51
294.624318
0
ARC
8
VISIBLE
10
343.571325
20
294.500000
30
0.0
40
6.000000
50
114.624318
51
245.375682
0
LINE
8
VISIBLE
10
433.571325
20
345.615000
30
0.0
11
433.571325
21
253.115000
31
0.0
0
LINE
8
VISIBLE
10
390.034502
20
345.470890
30
0.0
11
388.571325
21
345.615000
31
0.0
0
LINE
8
VISIBLE
10
433.571325
20
253.115000
30
0.0
11
414.821325
21
182.000000
31
0.0
0
LINE
8
VISIBLE
10
391.441451
20
345.044096
30
0.0
11
390.034502
21
345.470890
31
0.0
0
LINE
8
VISIBLE
10
414.821325
20
182.000000
30
0.0
11
413.571325
21
182.000000
31
0.0
0
LINE
8
VISIBLE
10
392.738102
20
344.351022
30
0.0
11
391.441451
21
345.044096
31
0.0
0
LINE
8
VISIBLE
10
413.571325
20
182.000000
30
0.0
11
413.314671
21
178.084214
31
0.0
0
LINE
8
VISIBLE
10
393.874626
20
343.418301
30
0.0
11
392.738102
21
344.351022
31
0.0
0
LINE
8
VISIBLE
10
413.314671
20
178.084214
30
0.0
11
412.549100
21
174.235429
31
0.0
0
LINE
8
VISIBLE
10
394.807347
20
342.281777
30
0.0
11
393.874626
21
343.418301
31
0.0
0
LINE
8
VISIBLE
10
412.549100
20
174.235429
30
0.0
11
411.287711
21
170.519497
31
0.0
0
LINE
8
VISIBLE
10
395.500421
20
340.985126
30
0.0
11
394.807347
21
342.281777
31
0.0
0
LINE
8
VISIBLE
10
411.287711
20
170.519497
30
0.0
11
409.552087
21
167.000000
31
0.0
0
LINE
8
VISIBLE
10
395.927215
20
339.578177
30
0.0
11
395.500421
21
340.985126
31
0.0
0
LINE
8
VISIBLE
10
409.552087
20
167.000000
30
0.0
11
407.371925
21
163.737157
31
0.0
0
LINE
8
VISIBLE
10
396.071325
20
338.115000
30
0.0
11
395.927215
21
339.578177
31
0.0
0
LINE
8
VISIBLE
10
407.371925
20
163.737157
30
0.0
11
404.784528
21
160.786797
31
0.0
0
LINE
8
VISIBLE
10
396.071325
20
295.615000
30
0.0
11
396.071325
21
338.115000
31
0.0
0
LINE
8
VISIBLE
10
404.784528
20
160.786797
30
0.0
11
401.834168
21
158.199400
31
0.0
0
LINE
8
VISIBLE
10
395.927215
20
294.151823
30
0.0
11
396.071325
21
295.615000
31
0.0
0
LINE
8
VISIBLE
10
401.834168
20
158.199400
30
0.0
11
398.571325
21
156.019238
31
0.0
0
LINE
8
VISIBLE
10
395.500421
20
292.744874
30
0.0
11
395.927215
21
294.151823
31
0.0
0
LINE
8
VISIBLE
10
398.571325
20
156.019238
30
0.0
11
395.051828
21
154.283614
31
0.0
0
LINE
8
VISIBLE
10
394.807347
20
291.448223
30
0.0
11
395.500421
21
292.744874
31
0.0
0
LINE
8
VISIBLE
10
395.051828
20
154.283614
30
0.0
11
391.335896
21
153.022225
31
0.0
0
LINE
8
VISIBLE
10
393.874626
20
290.311699
30
0.0
11
394.807347
21
291.448223
31
0.0
0
LINE
8
VISIBLE
10
391.335896
20
153.022225
30
0.0
11
387.487111
21
152.256654
31
0.0
0
LINE
8
VISIBLE
10
392.738102
20
289.378978
30
0.0
11
393.874626
21
290.311699
31
0.0
0
LINE
8
VISIBLE
10
387.487111
20
152.256654
30
0.0
11
383.571325
21
152.000000
31
0.0
0
LINE
8
VISIBLE
10
391.441451
20
288.685904
30
0.0
11
392.738102
21
289.378978
31
0.0
0
LINE
8
VISIBLE
10
383.571325
20
152.000000
30
0.0
11
379.655539
21
152.256654
31
0.0
0
LINE
8
VISIBLE
10
390.034502
20
288.259110
30
0.0
11
391.441451
21
288.685904
31
0.0
0
LINE
8
VISIBLE
10
379.655539
20
152.256654
30
0.0
11
375.806754
21
153.022225
31
0.0
0
LINE
8
VISIBLE
10
388.571325
20
288.115000
30
0.0
11
390.034502
21
288.259110
31
0.0
0
LINE
8
VISIBLE
10
375.806754
20
153.022225
30
0.0
11
372.090822
21
154.283614
31
0.0
0
LINE
8
VISIBLE
10
378.571325
20
288.115000
30
0.0
11
388.571325
21
288.115000
31
0.0
0
LINE
8
VISIBLE
10
372.090822
20
154.283614
30
0.0
11
368.571325
21
156.019238
31
0.0
0
LINE
8
VISIBLE
10
377.108148
20
288.259110
30
0.0
11
378.571325
21
288.115000
31
0.0
0
LINE
8
VISIBLE
10
368.571325
20
156.019238
30
0.0
11
365.308482
21
158.199400
31
0.0
0
LINE
8
VISIBLE
10
375.701199
20
288.685904
30
0.0
11
377.108148
21
288.259110
31
0.0
0
LINE
8
VISIBLE
10
365.308482
20
158.199400
30
0.0
11
362.358122
21
160.786797
31
0.0
0
LINE
8
VISIBLE
10
374.404548
20
289.378978
30
0.0
11
375.701199
21
288.685904
31
0.0
0
LINE
8
VISIBLE
10
362.358122
20
160.786797
30
0.0
11
359.770725
21
163.737157
31
0.0
0
LINE
8
VISIBLE
10
373.268024
20
290.311699
30
0.0
11
374.404548
21
289.378978
31
0.0
0
LINE
8
VISIBLE
10
359.770725
20
163.737157
30
0.0
11
357.590563
21
167.000000
31
0.0
0
LINE
8
VISIBLE
10
372.335303
20
291.448223
30
0.0
11
373.268024
21
290.311699
31
0.0
0
LINE
8
VISIBLE
10
357.590563
20
167.000000
30
0.0
11
355.854939
21
170.519497
31
0.0
0
LINE
8
VISIBLE
10
371.642228
20
292.744874
30
0.0
11
372.335303
21
291.448223
31
0.0
0
LINE
8
VISIBLE
10
355.854939
20
170.519497
30
0.0
11
354.593550
21
174.235429
31
0.0
0
LINE
8
VISIBLE
10
371.215435
20
294.151823
30
0.0
11
371.642228
21
292.744874
31
0.0
0
LINE
8
VISIBLE
10
354.593550
20
174.235429
30
0.0
11
353.827979
21
178.084214
31
0.0
0
LINE
8
VISIBLE
10
371.071325
20
295.615000
30
0.0
11
371.215435
21
294.151823
31
0.0
0
LINE
8
VISIBLE
10
353.827979
20
178.084214
30
0.0
11
353.571325
21
182.000000
31
0.0
0
LINE
8
VISIBLE
10
371.071325
20
338.115000
30
0.0
11
371.071325
21
295.615000
31
0.0
0
LINE
8
VISIBLE
10
353.571325
20
182.000000
30
0.0
11
352.321325
21
182.000000
31
0.0
0
LINE
8
VISIBLE
10
371.215435
20
339.578177
30
0.0
11
371.071325
21
338.115000
31
0.0
0
LINE
8
VISIBLE
10
352.321325
20
182.000000
30
0.0
11
333.571325
21
253.115000
31
0.0
0
LINE
8
VISIBLE
10
333.571325
20
253.115000
30
0.0
11
333.571325
21
345.615000
31
0.0
0
LINE
8
VISIBLE
10
372.335303
20
342.281777
30
0.0
11
371.642228
21
340.985126
31
0.0
0
LINE
8
VISIBLE
10
373.268024
20
343.418301
30
0.0
11
372.335303
21
342.281777
31
0.0
0
LINE
8
VISIBLE
10
378.571325
20
345.615000
30
0.0
11
377.108148
21
345.470890
31
0.0
0
LINE
8
VISIBLE
10
374.404548
20
344.351022
30
0.0
11
373.268024
21
343.418301
31
0.0
0
LINE
8
VISIBLE
10
377.108148
20
345.470890
30
0.0
11
375.701199
21
345.044096
31
0.0
0
LINE
8
VISIBLE
10
375.701199
20
345.044096
30
0.0
11
374.404548
21
344.351022
31
0.0
0
LINE
8
VISIBLE
10
341.071325
20
258.115000
30
0.0
11
341.071325
21
289.045644
31
0.0
0
LINE
8
VISIBLE
10
346.071325
20
258.115000
30
0.0
11
341.071325
21
258.115000
31
0.0
0
LINE
8
VISIBLE
10
346.071325
20
258.115000
30
0.0
11
346.071325
21
289.045644
31
0.0
0
LINE
8
VISIBLE
10
366.071325
20
300.615000
30
0.0
11
361.071325
21
300.615000
31
0.0
0
LINE
8
VISIBLE
10
361.071325
20
300.615000
30
0.0
11
361.071325
21
328.115000
31
0.0
0
LINE
8
VISIBLE
10
366.071325
20
300.615000
30
0.0
11
366.071325
21
328.115000
31
0.0
0
LINE
8
VISIBLE
10
366.071325
20
328.115000
30
0.0
11
361.071325
21
328.115000
31
0.0
0
CIRCLE
8
VISIBLE
10
383.571325
20
182.000000
30
0.0
40
25.000000
0
LINE
8
VISIBLE
10
406.071325
20
300.615000
30
0.0
11
401.071325
21
300.615000
31
0.0
0
LINE
8
VISIBLE
10
401.071325
20
300.615000
30
0.0
11
401.071325
21
328.115000
31
0.0
0
LINE
8
VISIBLE
10
406.071325
20
300.615000
30
0.0
11
406.071325
21
328.115000
31
0.0
0
LINE
8
VISIBLE
10
406.071325
20
328.115000
30
0.0
11
401.071325
21
328.115000
31
0.0
0
LINE
8
VISIBLE
10
421.071325
20
258.115000
30
0.0
11
421.071325
21
289.045644
31
0.0
0
LINE
8
VISIBLE
10
426.071325
20
258.115000
30
0.0
11
421.071325
21
258.115000
31
0.0
0
LINE
8
VISIBLE
10
426.071325
20
258.115000
30
0.0
11
426.071325
21
289.045644
31
0.0
0
LINE
8
VISIBLE
10
346.071325
20
299.954356
30
0.0
11
346.071325
21
300.615000
31
0.0
0
LINE
8
VISIBLE
10
341.071325
20
299.954356
30
0.0
11
341.071325
21
300.615000
31
0.0
0
LINE
8
VISIBLE
10
426.071325
20
299.954356
30
0.0
11
426.071325
21
300.615000
31
0.0
0
LINE
8
VISIBLE
10
421.071325
20
299.954356
30
0.0
11
421.071325
21
300.615000
31
0.0
0
CIRCLE
8
VISIBLE
10
383.571325
20
182.000000
30
0.0
40
20.000000
0
LINE
8
VISIBLE
10
346.071325
20
300.615000
30
0.0
11
341.071325
21
300.615000
31
0.0
0
LINE
8
VISIBLE
10
426.071325
20
300.615000
30
0.0
11
421.071325
21
300.615000
31
0.0
0
LINE
8
VISIBLE
10
346.071325
20
300.615000
30
0.0
11
346.071325
21
328.115000
31
0.0
0
LINE
8
VISIBLE
10
346.071325
20
328.115000
30
0.0
11
341.071325
21
328.115000
31
0.0
0
LINE
8
VISIBLE
10
341.071325
20
300.615000
30
0.0
11
341.071325
21
328.115000
31
0.0
0
LINE
8
VISIBLE
10
426.071325
20
300.615000
30
0.0
11
426.071325
21
328.115000
31
0.0
0
LINE
8
VISIBLE
10
426.071325
20
328.115000
30
0.0
11
421.071325
21
328.115000
31
0.0
0
LINE
8
VISIBLE
10
421.071325
20
300.615000
30
0.0
11
421.071325
21
328.115000
31
0.0
0
CIRCLE
8
VISIBLE
10
383.571325
20
182.000000
30
0.0
40
6.750000
0
CIRCLE
8
VISIBLE
10
383.571325
20
182.000000
30
0.0
40
12.300000
0
ARC
8
VISIBLE
10
423.571328
20
294.500002
30
0.0
40
5.999998
50
65.375699
51
114.624352
0
ARC
8
VISIBLE
10
343.571361
20
294.499959
30
0.0
40
6.000040
50
65.376160
51
114.624469
0
LINE
8
HIDDEN
10
433.571325
20
301.312489
30
0.0
11
433.571325
21
287.687511
31
0.0
0
ARC
8
HIDDEN
10
423.571325
20
294.500000
30
0.0
40
12.100000
50
34.264603
51
90.000000
0
CIRCLE
8
HIDDEN
10
423.571325
20
294.500000
30
0.0
40
6.000000
0
ARC
8
HIDDEN
10
343.571325
20
294.500000
30
0.0
40
12.100000
50
90.000000
51
145.735397
0
LINE
8
HIDDEN
10
352.571325
20
365.759687
30
0.0
11
352.571325
21
302.587645
31
0.0
0
LINE
8
HIDDEN
10
352.571325
20
389.665000
30
0.0
11
352.571325
21
375.810313
31
0.0
0
LINE
8
HIDDEN
10
353.166021
20
395.703045
30
0.0
11
352.571325
21
389.665000
31
0.0
0
LINE
8
HIDDEN
10
354.927253
20
401.509052
30
0.0
11
353.166021
21
395.703045
31
0.0
0
LINE
8
HIDDEN
10
356.282256
20
404.044084
30
0.0
11
354.927253
21
401.509052
31
0.0
0
LINE
8
HIDDEN
10
377.483279
20
420.020304
30
0.0
11
372.069372
21
418.378014
31
0.0
0
LINE
8
HIDDEN
10
383.521325
20
420.615000
30
0.0
11
377.483279
21
420.020304
31
0.0
0
LINE
8
HIDDEN
10
383.621325
20
420.615000
30
0.0
11
383.521325
21
420.615000
31
0.0
0
LINE
8
HIDDEN
10
389.659370
20
420.020304
30
0.0
11
383.621325
21
420.615000
31
0.0
0
LINE
8
HIDDEN
10
395.073278
20
418.378014
30
0.0
11
389.659370
21
420.020304
31
0.0
0
LINE
8
HIDDEN
10
412.215396
20
401.509052
30
0.0
11
410.860394
21
404.044084
31
0.0
0
LINE
8
HIDDEN
10
413.976629
20
395.703045
30
0.0
11
412.215396
21
401.509052
31
0.0
0
LINE
8
HIDDEN
10
414.571325
20
389.665000
30
0.0
11
413.976629
21
395.703045
31
0.0
0
LINE
8
HIDDEN
10
414.571325
20
375.810313
30
0.0
11
414.571325
21
389.665000
31
0.0
0
LINE
8
HIDDEN
10
414.571325
20
302.587645
30
0.0
11
414.571325
21
365.759687
31
0.0
0
ARC
8
HIDDEN
10
423.571325
20
294.500000
30
0.0
40
12.100000
50
90.000000
51
138.056273
0
ARC
8
HIDDEN
10
423.571325
20
294.500000
30
0.0
40
12.100000
50
34.264603
51
90.000000
0
LINE
8
HIDDEN
10
433.571325
20
392.000000
30
0.0
11
433.571325
21
301.312489
31
0.0
0
LINE
8
HIDDEN
10
333.571325
20
301.312489
30
0.0
11
333.571325
21
392.000000
31
0.0
0
LINE
8
HIDDEN
10
352.571325
20
302.587645
30
0.0
11
352.571325
21
365.759687
31
0.0
0
ARC
8
HIDDEN
10
362.356325
20
370.785000
30
0.0
40
11.000000
50
90.000000
51
152.816184
0
ARC
8
HIDDEN
10
362.356325
20
370.785000
30
0.0
40
11.000000
50
207.183816
51
90.000000
0
CIRCLE
8
HIDDEN
10
362.356325
20
370.785000
30
0.0
40
11.000000
0
LINE
8
HIDDEN
10
352.571325
20
375.810313
30
0.0
11
352.571325
21
389.665000
31
0.0
0
LINE
8
HIDDEN
10
352.571325
20
389.665000
30
0.0
11
353.166021
21
395.703045
31
0.0
0
LINE
8
HIDDEN
10
353.166021
20
395.703045
30
0.0
11
354.927253
21
401.509052
31
0.0
0
LINE
8
HIDDEN
10
354.927253
20
401.509052
30
0.0
11
356.282256
21
404.044084
31
0.0
0
ARC
8
HIDDEN
10
362.356325
20
413.215000
30
0.0
40
11.000000
50
236.482748
51
27.993077
0
CIRCLE
8
HIDDEN
10
362.356325
20
413.215000
30
0.0
40
11.000000
0
LINE
8
HIDDEN
10
372.069372
20
418.378014
30
0.0
11
377.483279
21
420.020304
31
0.0
0
LINE
8
HIDDEN
10
377.483279
20
420.020304
30
0.0
11
383.521325
21
420.615000
31
0.0
0
LINE
8
HIDDEN
10
383.521325
20
420.615000
30
0.0
11
383.621325
21
420.615000
31
0.0
0
LINE
8
HIDDEN
10
383.621325
20
420.615000
30
0.0
11
389.659370
21
420.020304
31
0.0
0
LINE
8
HIDDEN
10
389.659370
20
420.020304
30
0.0
11
395.073278
21
418.378014
31
0.0
0
ARC
8
HIDDEN
10
404.786325
20
413.215000
30
0.0
40
11.000000
50
152.006923
51
303.517252
0
CIRCLE
8
HIDDEN
10
404.786325
20
413.215000
30
0.0
40
11.000000
0
LINE
8
HIDDEN
10
410.860394
20
404.044084
30
0.0
11
412.215396
21
401.509052
31
0.0
0
LINE
8
HIDDEN
10
412.215396
20
401.509052
30
0.0
11
413.976629
21
395.703045
31
0.0
0
LINE
8
HIDDEN
10
413.976629
20
395.703045
30
0.0
11
414.571325
21
389.665000
31
0.0
0
LINE
8
HIDDEN
10
414.571325
20
389.665000
30
0.0
11
414.571325
21
375.810313
31
0.0
0
ARC
8
HIDDEN
10
404.786325
20
370.785000
30
0.0
40
11.000000
50
90.000000
51
332.816184
0
ARC
8
HIDDEN
10
404.786325
20
370.785000
30
0.0
40
11.000000
50
27.183816
51
90.000000
0
CIRCLE
8
HIDDEN
10
404.786325
20
370.785000
30
0.0
40
11.000000
0
LINE
8
HIDDEN
10
414.571325
20
365.759687
30
0.0
11
414.571325
21
302.587645
31
0.0
0
LINE
8
HIDDEN
10
377.483279
20
238.709696
30
0.0
11
371.677273
21
240.470928
31
0.0
0
LINE
8
HIDDEN
10
383.521325
20
238.115000
30
0.0
11
377.483279
21
238.709696
31
0.0
0
LINE
8
HIDDEN
10
383.621325
20
238.115000
30
0.0
11
383.521325
21
238.115000
31
0.0
0
LINE
8
HIDDEN
10
389.659370
20
238.709696
30
0.0
11
383.621325
21
238.115000
31
0.0
0
LINE
8
HIDDEN
10
395.465377
20
240.470928
30
0.0
11
389.659370
21
238.709696
31
0.0
0
LINE
8
HIDDEN
10
400.816224
20
243.331015
30
0.0
11
395.465377
21
240.470928
31
0.0
0
LINE
8
HIDDEN
10
405.506280
20
247.180045
30
0.0
11
400.816224
21
243.331015
31
0.0
0
LINE
8
HIDDEN
10
409.355309
20
251.870101
30
0.0
11
405.506280
21
247.180045
31
0.0
0
LINE
8
HIDDEN
10
412.215396
20
257.220948
30
0.0
11
409.355309
21
251.870101
31
0.0
0
LINE
8
HIDDEN
10
413.976629
20
263.026955
30
0.0
11
412.215396
21
257.220948
31
0.0
0
LINE
8
HIDDEN
10
414.571325
20
269.065000
30
0.0
11
413.976629
21
263.026955
31
0.0
0
LINE
8
HIDDEN
10
414.571325
20
286.412355
30
0.0
11
414.571325
21
269.065000
31
0.0
0
ARC
8
HIDDEN
10
423.571325
20
294.500000
30
0.0
40
12.100000
50
138.056273
51
221.943727
0
ARC
8
HIDDEN
10
343.571325
20
294.500000
30
0.0
40
12.100000
50
318.056273
51
41.943727
0
LINE
8
HIDDEN
10
352.571325
20
269.065000
30
0.0
11
352.571325
21
286.412355
31
0.0
0
LINE
8
HIDDEN
10
353.166021
20
263.026955
30
0.0
11
352.571325
21
269.065000
31
0.0
0
LINE
8
HIDDEN
10
354.927253
20
257.220948
30
0.0
11
353.166021
21
263.026955
31
0.0
0
LINE
8
HIDDEN
10
357.787340
20
251.870101
30
0.0
11
354.927253
21
257.220948
31
0.0
0
LINE
8
HIDDEN
10
361.636370
20
247.180045
30
0.0
11
357.787340
21
251.870101
31
0.0
0
LINE
8
HIDDEN
10
366.326426
20
243.331015
30
0.0
11
361.636370
21
247.180045
31
0.0
0
LINE
8
HIDDEN
10
371.677273
20
240.470928
30
0.0
11
366.326426
21
243.331015
31
0.0
0
LINE
8
HIDDEN
10
388.571325
20
345.615000
30
0.0
11
378.571325
21
345.615000
31
0.0
0
LINE
8
HIDDEN
10
333.571325
20
253.115000
30
0.0
11
333.571325
21
287.687511
31
0.0
0
ARC
8
HIDDEN
10
343.571325
20
294.500000
30
0.0
40
12.100000
50
214.264603
51
318.056273
0
LINE
8
HIDDEN
10
352.571325
20
286.412355
30
0.0
11
352.571325
21
269.065000
31
0.0
0
LINE
8
HIDDEN
10
352.571325
20
269.065000
30
0.0
11
353.166021
21
263.026955
31
0.0
0
LINE
8
HIDDEN
10
353.166021
20
263.026955
30
0.0
11
354.927253
21
257.220948
31
0.0
0
LINE
8
HIDDEN
10
354.927253
20
257.220948
30
0.0
11
357.787340
21
251.870101
31
0.0
0
LINE
8
HIDDEN
10
357.787340
20
251.870101
30
0.0
11
361.636370
21
247.180045
31
0.0
0
LINE
8
HIDDEN
10
361.636370
20
247.180045
30
0.0
11
366.326426
21
243.331015
31
0.0
0
LINE
8
HIDDEN
10
366.326426
20
243.331015
30
0.0
11
371.677273
21
240.470928
31
0.0
0
LINE
8
HIDDEN
10
371.677273
20
240.470928
30
0.0
11
377.483279
21
238.709696
31
0.0
0
LINE
8
HIDDEN
10
377.483279
20
238.709696
30
0.0
11
383.521325
21
238.115000
31
0.0
0
LINE
8
HIDDEN
10
383.521325
20
238.115000
30
0.0
11
383.621325
21
238.115000
31
0.0
0
LINE
8
HIDDEN
10
383.621325
20
238.115000
30
0.0
11
389.659370
21
238.709696
31
0.0
0
LINE
8
HIDDEN
10
389.659370
20
238.709696
30
0.0
11
395.465377
21
240.470928
31
0.0
0
LINE
8
HIDDEN
10
395.465377
20
240.470928
30
0.0
11
400.816224
21
243.331015
31
0.0
0
LINE
8
HIDDEN
10
400.816224
20
243.331015
30
0.0
11
405.506280
21
247.180045
31
0.0
0
LINE
8
HIDDEN
10
405.506280
20
247.180045
30
0.0
11
409.355309
21
251.870101
31
0.0
0
LINE
8
HIDDEN
10
409.355309
20
251.870101
30
0.0
11
412.215396
21
257.220948
31
0.0
0
LINE
8
HIDDEN
10
412.215396
20
257.220948
30
0.0
11
413.976629
21
263.026955
31
0.0
0
LINE
8
HIDDEN
10
413.976629
20
263.026955
30
0.0
11
414.571325
21
269.065000
31
0.0
0
LINE
8
HIDDEN
10
414.571325
20
269.065000
30
0.0
11
414.571325
21
286.412355
31
0.0
0
ARC
8
HIDDEN
10
423.571325
20
294.500000
30
0.0
40
12.100000
50
221.943727
51
325.735397
0
LINE
8
HIDDEN
10
433.571325
20
287.687511
30
0.0
11
433.571325
21
253.115000
31
0.0
0
ARC
8
HIDDEN
10
343.571325
20
294.500000
30
0.0
40
12.100000
50
90.000000
51
145.735397
0
LINE
8
HIDDEN
10
333.571325
20
287.687511
30
0.0
11
333.571325
21
301.312489
31
0.0
0
ARC
8
HIDDEN
10
343.571325
20
294.500000
30
0.0
40
12.100000
50
214.264603
51
90.000000
0
CIRCLE
8
HIDDEN
10
343.571325
20
294.500000
30
0.0
40
6.000000
0
LINE
8
HIDDEN
10
433.571325
20
345.615000
30
0.0
11
388.571325
21
345.615000
31
0.0
0
LINE
8
HIDDEN
10
378.571325
20
345.615000
30
0.0
11
333.571325
21
345.615000
31
0.0
0
LINE
8
HIDDEN
10
341.071325
20
299.954356
30
0.0
11
341.071325
21
328.115000
31
0.0
0
LINE
8
HIDDEN
10
346.071325
20
299.954356
30
0.0
11
346.071325
21
328.115000
31
0.0
0
LINE
8
HIDDEN
10
421.071325
20
299.954356
30
0.0
11
421.071325
21
328.115000
31
0.0
0
LINE
8
HIDDEN
10
426.071325
20
299.954356
30
0.0
11
426.071325
21
328.115000
31
0.0
0
CIRCLE
8
HIDDEN
10
383.571325
20
182.000000
30
0.0
40
13.750000
0
CIRCLE
8
HIDDEN
10
383.571325
20
182.000000
30
0.0
40
13.750000
0
ARC
8
HIDDEN
10
423.571325
20
294.500000
30
0.0
40
12.100000
50
90.000000
51
325.735397
0
ARC
8
HIDDEN
10
343.571322
20
294.499999
30
0.0
40
12.100002
50
41.943721
51
89.999984
0
ARC
8
HIDDEN
10
362.356329
20
370.784997
30
0.0
40
11.000004
50
152.816181
51
207.183793
0
ARC
8
HIDDEN
10
362.356325
20
413.215000
30
0.0
40
11.000000
50
27.993077
51
236.482748
0
ARC
8
HIDDEN
10
404.786325
20
413.215000
30
0.0
40
11.000000
50
303.517252
51
152.006923
0
ARC
8
HIDDEN
10
404.786328
20
370.784998
30
0.0
40
10.999998
50
332.816186
51
27.183830
0
LINE
8
VISIBLE
10
257.571325
20
392.000000
30
0.0
11
257.571325
21
345.615000
31
0.0
0
LINE
8
VISIBLE
10
257.571325
20
398.526310
30
0.0
11
257.571325
21
392.000000
31
0.0
0
LINE
8
VISIBLE
10
257.571325
20
404.940952
30
0.0
11
257.571325
21
398.526310
31
0.0
0
LINE
8
VISIBLE
10
257.571325
20
411.134172
30
0.0
11
257.571325
21
404.940952
31
0.0
0
LINE
8
VISIBLE
10
257.571325
20
417.000000
30
0.0
11
257.571325
21
411.134172
31
0.0
0
LINE
8
VISIBLE
10
257.571325
20
422.438071
30
0.0
11
257.571325
21
417.000000
31
0.0
0
LINE
8
VISIBLE
10
257.571325
20
427.355339
30
0.0
11
257.571325
21
422.438071
31
0.0
0
LINE
8
VISIBLE
10
257.571325
20
431.667667
30
0.0
11
257.571325
21
427.355339
31
0.0
0
LINE
8
VISIBLE
10
257.571325
20
435.301270
30
0.0
11
257.571325
21
431.667667
31
0.0
0
LINE
8
VISIBLE
10
257.571325
20
438.193977
30
0.0
11
257.571325
21
435.301270
31
0.0
0
LINE
8
VISIBLE
10
257.571325
20
440.296291
30
0.0
11
257.571325
21
438.193977
31
0.0
0
LINE
8
VISIBLE
10
257.571325
20
441.572243
30
0.0
11
257.571325
21
440.296291
31
0.0
0
LINE
8
VISIBLE
10
257.571325
20
442.000000
30
0.0
11
257.571325
21
441.572243
31
0.0
0
LINE
8
VISIBLE
10
257.571325
20
431.750000
30
0.0
11
247.821325
21
431.750000
31
0.0
0
LINE
8
VISIBLE
10
247.821325
20
431.750000
30
0.0
11
247.821325
21
352.250000
31
0.0
0
LINE
8
VISIBLE
10
269.071325
20
287.687511
30
0.0
11
269.071325
21
288.500000
31
0.0
0
LINE
8
VISIBLE
10
269.071325
20
300.500000
30
0.0
11
269.071325
21
301.312489
31
0.0
0
LINE
8
VISIBLE
10
269.071325
20
301.312489
30
0.0
11
269.071325
21
287.687511
31
0.0
0
LINE
8
VISIBLE
10
260.071325
20
299.954356
30
0.0
11
257.571325
21
299.954356
31
0.0
0
LINE
8
VISIBLE
10
260.071325
20
289.045644
30
0.0
11
257.571325
21
289.045644
31
0.0
0
LINE
8
VISIBLE
10
271.571325
20
392.000000
30
0.0
11
271.571325
21
301.312489
31
0.0
0
LINE
8
VISIBLE
10
271.571325
20
398.526310
30
0.0
11
271.571325
21
392.000000
31
0.0
0
LINE
8
VISIBLE
10
271.571325
20
404.940952
30
0.0
11
271.571325
21
398.526310
31
0.0
0
LINE
8
VISIBLE
10
271.571325
20
411.134172
30
0.0
11
271.571325
21
404.940952
31
0.0
0
LINE
8
VISIBLE
10
271.571325
20
417.000000
30
0.0
11
271.571325
21
411.134172
31
0.0
0
LINE
8
VISIBLE
10
271.571325
20
422.438071
30
0.0
11
271.571325
21
417.000000
31
0.0
0
LINE
8
VISIBLE
10
271.571325
20
427.355339
30
0.0
11
271.571325
21
422.438071
31
0.0
0
LINE
8
VISIBLE
10
271.571325
20
431.667667
30
0.0
11
271.571325
21
427.355339
31
0.0
0
LINE
8
VISIBLE
10
271.571325
20
435.301270
30
0.0
11
271.571325
21
431.667667
31
0.0
0
LINE
8
VISIBLE
10
271.571325
20
438.193977
30
0.0
11
271.571325
21
435.301270
31
0.0
0
LINE
8
VISIBLE
10
271.571325
20
440.296291
30
0.0
11
271.571325
21
438.193977
31
0.0
0
LINE
8
VISIBLE
10
271.571325
20
441.572243
30
0.0
11
271.571325
21
440.296291
31
0.0
0
LINE
8
VISIBLE
10
271.571325
20
442.000000
30
0.0
11
271.571325
21
441.572243
31
0.0
0
LINE
8
VISIBLE
10
284.071325
20
420.615000
30
0.0
11
271.571325
21
420.615000
31
0.0
0
LINE
8
VISIBLE
10
284.071325
20
420.615000
30
0.0
11
284.071325
21
420.020304
31
0.0
0
LINE
8
VISIBLE
10
284.071325
20
420.020304
30
0.0
11
271.571325
21
420.020304
31
0.0
0
LINE
8
VISIBLE
10
284.071325
20
420.020304
30
0.0
11
284.071325
21
418.378014
31
0.0
0
LINE
8
VISIBLE
10
284.071325
20
418.378014
30
0.0
11
271.571325
21
418.378014
31
0.0
0
LINE
8
VISIBLE
10
284.071325
20
404.044084
30
0.0
11
284.071325
21
418.378014
31
0.0
0
LINE
8
VISIBLE
10
284.071325
20
404.044084
30
0.0
11
271.571325
21
404.044084
31
0.0
0
LINE
8
VISIBLE
10
284.071325
20
404.044084
30
0.0
11
284.071325
21
401.509052
31
0.0
0
LINE
8
VISIBLE
10
284.071325
20
401.509052
30
0.0
11
271.571325
21
401.509052
31
0.0
0
LINE
8
VISIBLE
10
284.071325
20
401.509052
30
0.0
11
284.071325
21
395.703045
31
0.0
0
LINE
8
VISIBLE
10
284.071325
20
395.703045
30
0.0
11
271.571325
21
395.703045
31
0.0
0
LINE
8
VISIBLE
10
284.071325
20
395.703045
30
0.0
11
284.071325
21
389.665000
31
0.0
0
LINE
8
VISIBLE
10
284.071325
20
389.665000
30
0.0
11
271.571325
21
389.665000
31
0.0
0
LINE
8
VISIBLE
10
284.071325
20
389.665000
30
0.0
11
284.071325
21
375.810313
31
0.0
0
LINE
8
VISIBLE
10
284.071325
20
375.810313
30
0.0
11
271.571325
21
375.810313
31
0.0
0
LINE
8
VISIBLE
10
284.071325
20
365.759687
30
0.0
11
284.071325
21
375.810313
31
0.0
0
LINE
8
VISIBLE
10
284.071325
20
365.759687
30
0.0
11
271.571325
21
365.759687
31
0.0
0
LINE
8
VISIBLE
10
284.071325
20
365.759687
30
0.0
11
284.071325
21
302.587645
31
0.0
0
LINE
8
VISIBLE
10
284.071325
20
302.587645
30
0.0
11
271.571325
21
302.587645
31
0.0
0
LINE
8
VISIBLE
10
284.071325
20
238.709696
30
0.0
11
284.071325
21
238.115000
31
0.0
0
LINE
8
VISIBLE
10
284.071325
20
240.470928
30
0.0
11
284.071325
21
238.709696
31
0.0
0
LINE
8
VISIBLE
10
284.071325
20
243.331015
30
0.0
11
284.071325
21
240.470928
31
0.0
0
LINE
8
VISIBLE
10
284.071325
20
247.180045
30
0.0
11
284.071325
21
243.331015
31
0.0
0
LINE
8
VISIBLE
10
284.071325
20
251.870101
30
0.0
11
284.071325
21
247.180045
31
0.0
0
LINE
8
VISIBLE
10
284.071325
20
257.220948
30
0.0
11
284.071325
21
251.870101
31
0.0
0
LINE
8
VISIBLE
10
284.071325
20
263.026955
30
0.0
11
284.071325
21
257.220948
31
0.0
0
LINE
8
VISIBLE
10
284.071325
20
269.065000
30
0.0
11
284.071325
21
263.026955
31
0.0
0
LINE
8
VISIBLE
10
284.071325
20
286.412355
30
0.0
11
284.071325
21
269.065000
31
0.0
0
LINE
8
VISIBLE
10
284.071325
20
286.412355
30
0.0
11
284.071325
21
302.587645
31
0.0
0
LINE
8
VISIBLE
10
271.571325
20
152.256654
30
0.0
11
271.571325
21
152.000000
31
0.0
0
LINE
8
VISIBLE
10
271.571325
20
153.022225
30
0.0
11
271.571325
21
152.256654
31
0.0
0
LINE
8
VISIBLE
10
271.571325
20
154.283614
30
0.0
11
271.571325
21
153.022225
31
0.0
0
LINE
8
VISIBLE
10
271.571325
20
156.019238
30
0.0
11
271.571325
21
154.283614
31
0.0
0
LINE
8
VISIBLE
10
271.571325
20
158.199400
30
0.0
11
271.571325
21
156.019238
31
0.0
0
LINE
8
VISIBLE
10
271.571325
20
160.786797
30
0.0
11
271.571325
21
158.199400
31
0.0
0
LINE
8
VISIBLE
10
271.571325
20
163.737157
30
0.0
11
271.571325
21
160.786797
31
0.0
0
LINE
8
VISIBLE
10
271.571325
20
167.000000
30
0.0
11
271.571325
21
163.737157
31
0.0
0
LINE
8
VISIBLE
10
271.571325
20
170.519497
30
0.0
11
271.571325
21
167.000000
31
0.0
0
LINE
8
VISIBLE
10
271.571325
20
174.235429
30
0.0
11
271.571325
21
170.519497
31
0.0
0
LINE
8
VISIBLE
10
271.571325
20
287.687511
30
0.0
11
271.571325
21
253.115000
31
0.0
0
LINE
8
VISIBLE
10
271.571325
20
178.084214
30
0.0
11
271.571325
21
174.235429
31
0.0
0
LINE
8
VISIBLE
10
271.571325
20
253.115000
30
0.0
11
271.571325
21
182.000000
31
0.0
0
LINE
8
VISIBLE
10
271.571325
20
182.000000
30
0.0
11
271.571325
21
178.084214
31
0.0
0
LINE
8
VISIBLE
10
284.071325
20
269.065000
30
0.0
11
271.571325
21
269.065000
31
0.0
0
LINE
8
VISIBLE
10
284.071325
20
286.412355
30
0.0
11
271.571325
21
286.412355
31
0.0
0
LINE
8
VISIBLE
10
284.071325
20
238.115000
30
0.0
11
271.571325
21
238.115000
31
0.0
0
LINE
8
VISIBLE
10
284.071325
20
238.709696
30
0.0
11
271.571325
21
238.709696
31
0.0
0
LINE
8
VISIBLE
10
284.071325
20
240.470928
30
0.0
11
271.571325
21
240.470928
31
0.0
0
LINE
8
VISIBLE
10
284.071325
20
243.331015
30
0.0
11
271.571325
21
243.331015
31
0.0
0
LINE
8
VISIBLE
10
284.071325
20
247.180045
30
0.0
11
271.571325
21
247.180045
31
0.0
0
LINE
8
VISIBLE
10
284.071325
20
251.870101
30
0.0
11
271.571325
21
251.870101
31
0.0
0
LINE
8
VISIBLE
10
284.071325
20
257.220948
30
0.0
11
271.571325
21
257.220948
31
0.0
0
LINE
8
VISIBLE
10
284.071325
20
263.026955
30
0.0
11
271.571325
21
263.026955
31
0.0
0
LINE
8
VISIBLE
10
287.571325
20
207.000000
30
0.0
11
271.571325
21
207.000000
31
0.0
0
LINE
8
VISIBLE
10
287.571325
20
207.000000
30
0.0
11
287.571325
21
157.000000
31
0.0
0
LINE
8
VISIBLE
10
260.071325
20
345.615000
30
0.0
11
260.071325
21
253.115000
31
0.0
0
LINE
8
VISIBLE
10
260.071325
20
253.115000
30
0.0
11
260.071325
21
182.000000
31
0.0
0
LINE
8
VISIBLE
10
260.071325
20
182.000000
30
0.0
11
260.071325
21
178.084214
31
0.0
0
LINE
8
VISIBLE
10
260.071325
20
178.084214
30
0.0
11
260.071325
21
174.235429
31
0.0
0
LINE
8
VISIBLE
10
260.071325
20
174.235429
30
0.0
11
260.071325
21
170.519497
31
0.0
0
LINE
8
VISIBLE
10
260.071325
20
170.519497
30
0.0
11
260.071325
21
167.000000
31
0.0
0
LINE
8
VISIBLE
10
260.071325
20
167.000000
30
0.0
11
260.071325
21
163.737157
31
0.0
0
LINE
8
VISIBLE
10
260.071325
20
163.737157
30
0.0
11
260.071325
21
160.786797
31
0.0
0
LINE
8
VISIBLE
10
260.071325
20
160.786797
30
0.0
11
260.071325
21
158.199400
31
0.0
0
LINE
8
VISIBLE
10
260.071325
20
158.199400
30
0.0
11
260.071325
21
156.019238
31
0.0
0
LINE
8
VISIBLE
10
260.071325
20
156.019238
30
0.0
11
260.071325
21
154.283614
31
0.0
0
LINE
8
VISIBLE
10
260.071325
20
154.283614
30
0.0
11
260.071325
21
153.022225
31
0.0
0
LINE
8
VISIBLE
10
260.071325
20
153.022225
30
0.0
11
260.071325
21
152.256654
31
0.0
0
LINE
8
VISIBLE
10
260.071325
20
152.256654
30
0.0
11
260.071325
21
152.000000
31
0.0
0
LINE
8
VISIBLE
10
260.071325
20
345.615000
30
0.0
11
260.071325
21
345.470890
31
0.0
0
LINE
8
VISIBLE
10
260.071325
20
207.000000
30
0.0
11
257.571325
21
207.000000
31
0.0
0
LINE
8
VISIBLE
10
257.571325
20
207.000000
30
0.0
11
257.571325
21
157.000000
31
0.0
0
LINE
8
VISIBLE
10
260.071325
20
258.115000
30
0.0
11
257.571325
21
258.115000
31
0.0
0
LINE
8
VISIBLE
10
257.571325
20
258.115000
30
0.0
11
257.571325
21
289.045644
31
0.0
0
LINE
8
VISIBLE
10
257.571325
20
299.954356
30
0.0
11
257.571325
21
300.615000
31
0.0
0
LINE
8
VISIBLE
10
257.571325
20
300.615000
30
0.0
11
247.821325
21
300.615000
31
0.0
0
LINE
8
VISIBLE
10
247.821325
20
300.615000
30
0.0
11
247.821325
21
328.115000
31
0.0
0
LINE
8
VISIBLE
10
257.571325
20
194.300000
30
0.0
11
248.621325
21
194.300000
31
0.0
0
LINE
8
VISIBLE
10
248.621325
20
194.300000
30
0.0
11
248.621325
21
169.700000
31
0.0
0
LINE
8
VISIBLE
10
271.571325
20
301.312489
30
0.0
11
269.071325
21
301.312489
31
0.0
0
LINE
8
VISIBLE
10
271.571325
20
287.687511
30
0.0
11
269.071325
21
287.687511
31
0.0
0
LINE
8
VISIBLE
10
271.571325
20
253.115000
30
0.0
11
260.071325
21
253.115000
31
0.0
0
LINE
8
VISIBLE
10
260.071325
20
345.615000
30
0.0
11
257.571325
21
345.615000
31
0.0
0
LINE
8
VISIBLE
10
271.571325
20
392.000000
30
0.0
11
257.571325
21
392.000000
31
0.0
0
LINE
8
VISIBLE
10
271.571325
20
398.526310
30
0.0
11
257.571325
21
398.526310
31
0.0
0
LINE
8
VISIBLE
10
271.571325
20
404.940952
30
0.0
11
257.571325
21
404.940952
31
0.0
0
LINE
8
VISIBLE
10
271.571325
20
411.134172
30
0.0
11
257.571325
21
411.134172
31
0.0
0
LINE
8
VISIBLE
10
271.571325
20
417.000000
30
0.0
11
257.571325
21
417.000000
31
0.0
0
LINE
8
VISIBLE
10
271.571325
20
422.438071
30
0.0
11
257.571325
21
422.438071
31
0.0
0
LINE
8
VISIBLE
10
271.571325
20
427.355339
30
0.0
11
257.571325
21
427.355339
31
0.0
0
LINE
8
VISIBLE
10
271.571325
20
431.667667
30
0.0
11
257.571325
21
431.667667
31
0.0
0
LINE
8
VISIBLE
10
271.571325
20
435.301270
30
0.0
11
257.571325
21
435.301270
31
0.0
0
LINE
8
VISIBLE
10
271.571325
20
438.193977
30
0.0
11
257.571325
21
438.193977
31
0.0
0
LINE
8
VISIBLE
10
271.571325
20
440.296291
30
0.0
11
257.571325
21
440.296291
31
0.0
0
LINE
8
VISIBLE
10
271.571325
20
441.572243
30
0.0
11
257.571325
21
441.572243
31
0.0
0
LINE
8
VISIBLE
10
271.571325
20
442.000000
30
0.0
11
257.571325
21
442.000000
31
0.0
0
LINE
8
VISIBLE
10
271.571325
20
182.000000
30
0.0
11
260.071325
21
182.000000
31
0.0
0
LINE
8
VISIBLE
10
271.571325
20
152.000000
30
0.0
11
260.071325
21
152.000000
31
0.0
0
LINE
8
VISIBLE
10
271.571325
20
152.256654
30
0.0
11
260.071325
21
152.256654
31
0.0
0
LINE
8
VISIBLE
10
271.571325
20
153.022225
30
0.0
11
260.071325
21
153.022225
31
0.0
0
LINE
8
VISIBLE
10
271.571325
20
154.283614
30
0.0
11
260.071325
21
154.283614
31
0.0
0
LINE
8
VISIBLE
10
271.571325
20
156.019238
30
0.0
11
260.071325
21
156.019238
31
0.0
0
LINE
8
VISIBLE
10
271.571325
20
158.199400
30
0.0
11
260.071325
21
158.199400
31
0.0
0
LINE
8
VISIBLE
10
271.571325
20
160.786797
30
0.0
11
260.071325
21
160.786797
31
0.0
0
LINE
8
VISIBLE
10
271.571325
20
163.737157
30
0.0
11
260.071325
21
163.737157
31
0.0
0
LINE
8
VISIBLE
10
271.571325
20
167.000000
30
0.0
11
260.071325
21
167.000000
31
0.0
0
LINE
8
VISIBLE
10
271.571325
20
170.519497
30
0.0
11
260.071325
21
170.519497
31
0.0
0
LINE
8
VISIBLE
10
271.571325
20
174.235429
30
0.0
11
260.071325
21
174.235429
31
0.0
0
LINE
8
VISIBLE
10
271.571325
20
178.084214
30
0.0
11
260.071325
21
178.084214
31
0.0
0
LINE
8
VISIBLE
10
260.071325
20
328.115000
30
0.0
11
247.821325
21
328.115000
31
0.0
0
LINE
8
VISIBLE
10
257.571325
20
352.250000
30
0.0
11
247.821325
21
352.250000
31
0.0
0
LINE
8
VISIBLE
10
287.571325
20
157.000000
30
0.0
11
271.571325
21
157.000000
31
0.0
0
LINE
8
VISIBLE
10
260.071325
20
157.000000
30
0.0
11
257.571325
21
157.000000
31
0.0
0
LINE
8
VISIBLE
10
257.571325
20
169.700000
30
0.0
11
248.621325
21
169.700000
31
0.0
0
LINE
8
VISIBLE
10
481.321325
20
390.021665
30
0.0
11
481.321325
21
343.636665
31
0.0
0
LINE
8
VISIBLE
10
481.321325
20
396.547974
30
0.0
11
481.321325
21
390.021665
31
0.0
0
LINE
8
VISIBLE
10
481.321325
20
402.962617
30
0.0
11
481.321325
21
396.547974
31
0.0
0
LINE
8
VISIBLE
10
481.321325
20
409.155836
30
0.0
11
481.321325
21
402.962617
31
0.0
0
LINE
8
VISIBLE
10
481.321325
20
415.021665
30
0.0
11
481.321325
21
409.155836
31
0.0
0
LINE
8
VISIBLE
10
481.321325
20
420.459736
30
0.0
11
481.321325
21
415.021665
31
0.0
0
LINE
8
VISIBLE
10
481.321325
20
425.377004
30
0.0
11
481.321325
21
420.459736
31
0.0
0
LINE
8
VISIBLE
10
481.321325
20
429.689332
30
0.0
11
481.321325
21
425.377004
31
0.0
0
LINE
8
VISIBLE
10
481.321325
20
433.322935
30
0.0
11
481.321325
21
429.689332
31
0.0
0
LINE
8
VISIBLE
10
481.321325
20
435.189490
30
0.0
11
481.321325
21
433.322935
31
0.0
0
LINE
8
VISIBLE
10
495.321325
20
390.021665
30
0.0
11
495.321325
21
299.334153
31
0.0
0
LINE
8
VISIBLE
10
495.321325
20
299.334153
30
0.0
11
492.821325
21
299.334153
31
0.0
0
LINE
8
VISIBLE
10
492.821325
20
299.334153
30
0.0
11
492.821325
21
285.709176
31
0.0
0
LINE
8
VISIBLE
10
495.321325
20
285.709176
30
0.0
11
492.821325
21
285.709176
31
0.0
0
LINE
8
VISIBLE
10
495.321325
20
285.709176
30
0.0
11
495.321325
21
251.136665
31
0.0
0
LINE
8
VISIBLE
10
495.321325
20
251.136665
30
0.0
11
483.821325
21
251.136665
31
0.0
0
LINE
8
VISIBLE
10
483.821325
20
343.636665
30
0.0
11
483.821325
21
251.136665
31
0.0
0
LINE
8
VISIBLE
10
495.321325
20
390.021665
30
0.0
11
481.321325
21
390.021665
31
0.0
0
LINE
8
VISIBLE
10
495.321325
20
396.547974
30
0.0
11
495.321325
21
390.021665
31
0.0
0
LINE
8
VISIBLE
10
495.321325
20
396.547974
30
0.0
11
481.321325
21
396.547974
31
0.0
0
LINE
8
VISIBLE
10
495.321325
20
402.962617
30
0.0
11
495.321325
21
396.547974
31
0.0
0
LINE
8
VISIBLE
10
495.321325
20
402.962617
30
0.0
11
481.321325
21
402.962617
31
0.0
0
LINE
8
VISIBLE
10
495.321325
20
409.155836
30
0.0
11
495.321325
21
402.962617
31
0.0
0
LINE
8
VISIBLE
10
495.321325
20
409.155836
30
0.0
11
481.321325
21
409.155836
31
0.0
0
LINE
8
VISIBLE
10
495.321325
20
415.021665
30
0.0
11
495.321325
21
409.155836
31
0.0
0
LINE
8
VISIBLE
10
495.321325
20
415.021665
30
0.0
11
481.321325
21
415.021665
31
0.0
0
LINE
8
VISIBLE
10
495.321325
20
420.459736
30
0.0
11
495.321325
21
415.021665
31
0.0
0
LINE
8
VISIBLE
10
495.321325
20
420.459736
30
0.0
11
481.321325
21
420.459736
31
0.0
0
LINE
8
VISIBLE
10
495.321325
20
425.377004
30
0.0
11
495.321325
21
420.459736
31
0.0
0
LINE
8
VISIBLE
10
495.321325
20
425.377004
30
0.0
11
481.321325
21
425.377004
31
0.0
0
LINE
8
VISIBLE
10
495.321325
20
429.689332
30
0.0
11
495.321325
21
425.377004
31
0.0
0
LINE
8
VISIBLE
10
495.321325
20
429.689332
30
0.0
11
481.321325
21
429.689332
31
0.0
0
LINE
8
VISIBLE
10
495.321325
20
433.322935
30
0.0
11
495.321325
21
429.689332
31
0.0
0
LINE
8
VISIBLE
10
495.321325
20
433.322935
30
0.0
11
481.321325
21
433.322935
31
0.0
0
LINE
8
VISIBLE
10
495.321325
20
435.189490
30
0.0
11
495.321325
21
433.322935
31
0.0
0
LINE
8
VISIBLE
10
471.571325
20
423.636933
30
0.0
11
471.571325
21
356.406396
31
0.0
0
LINE
8
VISIBLE
10
483.821325
20
161.758822
30
0.0
11
483.821325
21
158.810510
31
0.0
0
LINE
8
VISIBLE
10
483.821325
20
165.021665
30
0.0
11
483.821325
21
161.758822
31
0.0
0
LINE
8
VISIBLE
10
483.821325
20
168.541162
30
0.0
11
483.821325
21
165.021665
31
0.0
0
LINE
8
VISIBLE
10
483.821325
20
172.257093
30
0.0
11
483.821325
21
168.541162
31
0.0
0
LINE
8
VISIBLE
10
483.821325
20
176.105879
30
0.0
11
483.821325
21
172.257093
31
0.0
0
LINE
8
VISIBLE
10
483.821325
20
180.021665
30
0.0
11
483.821325
21
176.105879
31
0.0
0
LINE
8
VISIBLE
10
483.821325
20
251.136665
30
0.0
11
483.821325
21
180.021665
31
0.0
0
LINE
8
VISIBLE
10
492.821325
20
285.709176
30
0.0
11
492.821325
21
286.521665
31
0.0
0
LINE
8
VISIBLE
10
492.821325
20
298.521665
30
0.0
11
492.821325
21
299.334153
31
0.0
0
LINE
8
VISIBLE
10
507.821325
20
284.434020
30
0.0
11
495.321325
21
284.434020
31
0.0
0
LINE
8
VISIBLE
10
507.821325
20
284.434020
30
0.0
11
507.821325
21
300.609310
31
0.0
0
LINE
8
VISIBLE
10
507.821325
20
300.609310
30
0.0
11
495.321325
21
300.609310
31
0.0
0
LINE
8
VISIBLE
10
495.321325
20
161.758822
30
0.0
11
495.321325
21
158.810510
31
0.0
0
LINE
8
VISIBLE
10
495.321325
20
165.021665
30
0.0
11
495.321325
21
161.758822
31
0.0
0
LINE
8
VISIBLE
10
495.321325
20
168.541162
30
0.0
11
495.321325
21
165.021665
31
0.0
0
LINE
8
VISIBLE
10
495.321325
20
172.257093
30
0.0
11
495.321325
21
168.541162
31
0.0
0
LINE
8
VISIBLE
10
495.321325
20
176.105879
30
0.0
11
495.321325
21
172.257093
31
0.0
0
LINE
8
VISIBLE
10
495.321325
20
180.021665
30
0.0
11
495.321325
21
176.105879
31
0.0
0
LINE
8
VISIBLE
10
495.321325
20
251.136665
30
0.0
11
495.321325
21
180.021665
31
0.0
0
LINE
8
VISIBLE
10
495.321325
20
180.021665
30
0.0
11
483.821325
21
180.021665
31
0.0
0
LINE
8
VISIBLE
10
507.821325
20
402.065749
30
0.0
11
495.321325
21
402.065749
31
0.0
0
LINE
8
VISIBLE
10
507.821325
20
363.781351
30
0.0
11
495.321325
21
363.781351
31
0.0
0
LINE
8
VISIBLE
10
507.821325
20
373.831978
30
0.0
11
495.321325
21
373.831978
31
0.0
0
LINE
8
VISIBLE
10
507.821325
20
245.201710
30
0.0
11
507.821325
21
244.610858
31
0.0
0
LINE
8
VISIBLE
10
507.821325
20
249.891766
30
0.0
11
507.821325
21
245.201710
31
0.0
0
LINE
8
VISIBLE
10
507.821325
20
255.242612
30
0.0
11
507.821325
21
249.891766
31
0.0
0
LINE
8
VISIBLE
10
507.821325
20
261.048619
30
0.0
11
507.821325
21
255.242612
31
0.0
0
LINE
8
VISIBLE
10
507.821325
20
267.086665
30
0.0
11
507.821325
21
261.048619
31
0.0
0
LINE
8
VISIBLE
10
507.821325
20
284.434020
30
0.0
11
507.821325
21
267.086665
31
0.0
0
LINE
8
VISIBLE
10
507.821325
20
363.781351
30
0.0
11
507.821325
21
300.609310
31
0.0
0
LINE
8
VISIBLE
10
507.821325
20
245.201710
30
0.0
11
495.321325
21
245.201710
31
0.0
0
LINE
8
VISIBLE
10
495.321325
20
161.758822
30
0.0
11
483.821325
21
161.758822
31
0.0
0
LINE
8
VISIBLE
10
495.321325
20
165.021665
30
0.0
11
483.821325
21
165.021665
31
0.0
0
LINE
8
VISIBLE
10
495.321325
20
168.541162
30
0.0
11
483.821325
21
168.541162
31
0.0
0
LINE
8
VISIBLE
10
495.321325
20
172.257093
30
0.0
11
483.821325
21
172.257093
31
0.0
0
LINE
8
VISIBLE
10
495.321325
20
176.105879
30
0.0
11
483.821325
21
176.105879
31
0.0
0
LINE
8
VISIBLE
10
483.821325
20
256.136665
30
0.0
11
481.321325
21
256.136665
31
0.0
0
LINE
8
VISIBLE
10
483.821325
20
297.976021
30
0.0
11
481.321325
21
297.976021
31
0.0
0
LINE
8
VISIBLE
10
483.821325
20
287.067309
30
0.0
11
481.321325
21
287.067309
31
0.0
0
LINE
8
VISIBLE
10
481.321325
20
256.136665
30
0.0
11
481.321325
21
287.067309
31
0.0
0
LINE
8
VISIBLE
10
481.321325
20
297.976021
30
0.0
11
481.321325
21
298.636665
31
0.0
0
LINE
8
VISIBLE
10
481.321325
20
298.636665
30
0.0
11
471.571325
21
298.636665
31
0.0
0
LINE
8
VISIBLE
10
507.821325
20
402.065749
30
0.0
11
507.821325
21
399.530717
31
0.0
0
LINE
8
VISIBLE
10
507.821325
20
399.530717
30
0.0
11
495.321325
21
399.530717
31
0.0
0
LINE
8
VISIBLE
10
507.821325
20
399.530717
30
0.0
11
507.821325
21
393.724710
31
0.0
0
LINE
8
VISIBLE
10
507.821325
20
393.724710
30
0.0
11
495.321325
21
393.724710
31
0.0
0
LINE
8
VISIBLE
10
507.821325
20
393.724710
30
0.0
11
507.821325
21
387.686665
31
0.0
0
LINE
8
VISIBLE
10
507.821325
20
387.686665
30
0.0
11
495.321325
21
387.686665
31
0.0
0
LINE
8
VISIBLE
10
507.821325
20
387.686665
30
0.0
11
507.821325
21
373.831978
31
0.0
0
LINE
8
VISIBLE
10
507.821325
20
267.086665
30
0.0
11
495.321325
21
267.086665
31
0.0
0
LINE
8
VISIBLE
10
507.821325
20
261.048619
30
0.0
11
495.321325
21
261.048619
31
0.0
0
LINE
8
VISIBLE
10
507.821325
20
255.242612
30
0.0
11
495.321325
21
255.242612
31
0.0
0
LINE
8
VISIBLE
10
507.821325
20
249.891766
30
0.0
11
495.321325
21
249.891766
31
0.0
0
LINE
8
SECTION
10
495.321325
20
422.236665
30
0.0
11
485.371325
21
422.236665
31
0.0
0
LINE
8
SECTION
10
485.371325
20
416.736665
30
0.0
11
485.371325
21
422.236665
31
0.0
0
LINE
8
SECTION
10
485.371325
20
416.736665
30
0.0
11
471.571325
21
416.736665
31
0.0
0
LINE
8
SECTION
10
471.571325
20
416.736665
30
0.0
11
471.571325
21
423.636933
31
0.0
0
LINE
8
SECTION
10
481.321325
20
423.636933
30
0.0
11
471.571325
21
423.636933
31
0.0
0
LINE
8
SECTION
10
481.321325
20
423.636933
30
0.0
11
481.321325
21
435.189490
31
0.0
0
LINE
8
SECTION
10
481.321325
20
435.189490
30
0.0
11
495.321325
21
435.189490
31
0.0
0
LINE
8
SECTION
10
495.321325
20
422.236665
30
0.0
11
495.321325
21
435.189490
31
0.0
0
LINE
8
SECTION
10
481.321325
20
343.636665
30
0.0
11
481.321325
21
356.406396
31
0.0
0
LINE
8
SECTION
10
481.321325
20
356.406396
30
0.0
11
471.571325
21
356.406396
31
0.0
0
LINE
8
SECTION
10
471.571325
20
356.406396
30
0.0
11
471.571325
21
363.306665
31
0.0
0
LINE
8
SECTION
10
485.371325
20
363.306665
30
0.0
11
471.571325
21
363.306665
31
0.0
0
LINE
8
SECTION
10
485.371325
20
357.806665
30
0.0
11
485.371325
21
363.306665
31
0.0
0
LINE
8
SECTION
10
507.821325
20
357.806665
30
0.0
11
485.371325
21
357.806665
31
0.0
0
LINE
8
SECTION
10
507.821325
20
244.610858
30
0.0
11
507.821325
21
357.806665
31
0.0
0
LINE
8
SECTION
10
495.321325
20
244.610858
30
0.0
11
507.821325
21
244.610858
31
0.0
0
LINE
8
SECTION
10
495.321325
20
193.247540
30
0.0
11
495.321325
21
244.610858
31
0.0
0
LINE
8
SECTION
10
511.321325
20
193.247540
30
0.0
11
495.321325
21
193.247540
31
0.0
0
LINE
8
SECTION
10
511.321325
20
166.795789
30
0.0
11
511.321325
21
193.247540
31
0.0
0
LINE
8
SECTION
10
511.321325
20
166.795789
30
0.0
11
495.321325
21
166.795789
31
0.0
0
LINE
8
SECTION
10
495.321325
20
158.810510
30
0.0
11
495.321325
21
166.795789
31
0.0
0
LINE
8
SECTION
10
495.321325
20
158.810510
30
0.0
11
483.821325
21
158.810510
31
0.0
0
LINE
8
SECTION
10
483.821325
20
158.810510
30
0.0
11
483.821325
21
166.795789
31
0.0
0
LINE
8
SECTION
10
483.821325
20
166.795789
30
0.0
11
481.321325
21
166.795789
31
0.0
0
LINE
8
SECTION
10
481.321325
20
166.795789
30
0.0
11
481.321325
21
193.247540
31
0.0
0
LINE
8
SECTION
10
483.821325
20
193.247540
30
0.0
11
481.321325
21
193.247540
31
0.0
0
LINE
8
SECTION
10
483.821325
20
193.247540
30
0.0
11
483.821325
21
298.636665
31
0.0
0
LINE
8
SECTION
10
471.571325
20
298.636665
30
0.0
11
483.821325
21
298.636665
31
0.0
0
LINE
8
SECTION
10
471.571325
20
298.636665
30
0.0
11
471.571325
21
326.136665
31
0.0
0
LINE
8
SECTION
10
471.571325
20
326.136665
30
0.0
11
483.821325
21
326.136665
31
0.0
0
LINE
8
SECTION
10
483.821325
20
326.136665
30
0.0
11
483.821325
21
343.636665
31
0.0
0
LINE
8
SECTION
10
483.821325
20
343.636665
30
0.0
11
481.321325
21
343.636665
31
0.0
0
LINE
8
SECTION
10
507.821325
20
379.806665
30
0.0
11
485.371325
21
379.806665
31
0.0
0
LINE
8
SECTION
10
485.371325
20
374.306665
30
0.0
11
485.371325
21
379.806665
31
0.0
0
LINE
8
SECTION
10
485.371325
20
374.306665
30
0.0
11
471.571325
21
374.306665
31
0.0
0
LINE
8
SECTION
10
471.571325
20
374.306665
30
0.0
11
471.571325
21
405.736665
31
0.0
0
LINE
8
SECTION
10
485.371325
20
405.736665
30
0.0
11
471.571325
21
405.736665
31
0.0
0
LINE
8
SECTION
10
485.371325
20
400.236665
30
0.0
11
485.371325
21
405.736665
31
0.0
0
LINE
8
SECTION
10
507.821325
20
400.236665
30
0.0
11
485.371325
21
400.236665
31
0.0
0
LINE
8
SECTION
10
507.821325
20
379.806665
30
0.0
11
507.821325
21
400.236665
31
0.0
0
LINE
8
VISIBLE
10
780.069782
20
551.514093
30
0.0
11
779.601326
21
551.784556
31
0.0
0
LINE
8
VISIBLE
10
779.601326
20
561.820912
30
0.0
11
779.601326
21
551.784556
31
0.0
0
LINE
8
VISIBLE
10
779.681480
20
563.186737
30
0.0
11
779.601326
21
561.820912
31
0.0
0
LINE
8
VISIBLE
10
779.920571
20
564.436639
30
0.0
11
779.681480
21
563.186737
31
0.0
0
LINE
8
VISIBLE
10
780.314508
20
565.549230
30
0.0
11
779.920571
21
564.436639
31
0.0
0
LINE
8
VISIBLE
10
780.856551
20
566.505475
30
0.0
11
780.314508
21
565.549230
31
0.0
0
LINE
8
VISIBLE
10
781.537424
20
567.289012
30
0.0
11
780.856551
21
566.505475
31
0.0
0
LINE
8
VISIBLE
10
782.345479
20
567.886434
30
0.0
11
781.537424
21
567.289012
31
0.0
0
LINE
8
VISIBLE
10
785.450320
20
538.275173
30
0.0
11
785.847719
21
539.061726
31
0.0
0
LINE
8
VISIBLE
10
785.847719
20
539.061726
30
0.0
11
785.816822
21
540.316183
31
0.0
0
LINE
8
VISIBLE
10
785.816822
20
540.316183
30
0.0
11
785.206739
21
541.858173
31
0.0
0
LINE
8
VISIBLE
10
785.206739
20
541.858173
30
0.0
11
783.630050
21
543.505131
31
0.0
0
LINE
8
VISIBLE
10
781.756225
20
543.442922
30
0.0
11
781.756225
21
540.494876
31
0.0
0
LINE
8
VISIBLE
10
783.630050
20
543.505131
30
0.0
11
782.278237
21
543.769381
31
0.0
0
LINE
8
VISIBLE
10
783.630050
20
542.185269
30
0.0
11
782.835053
21
542.264020
31
0.0
0
LINE
8
VISIBLE
10
782.835053
20
542.264020
30
0.0
11
782.524401
21
541.760846
31
0.0
0
LINE
8
VISIBLE
10
782.524401
20
541.760846
30
0.0
11
782.643590
21
540.833749
31
0.0
0
LINE
8
VISIBLE
10
782.643590
20
540.833749
30
0.0
11
783.311282
21
539.826135
31
0.0
0
LINE
8
VISIBLE
10
783.311282
20
539.826135
30
0.0
11
783.907077
21
539.468906
31
0.0
0
LINE
8
VISIBLE
10
783.907077
20
539.468906
30
0.0
11
784.425047
21
539.510070
31
0.0
0
LINE
8
VISIBLE
10
784.425047
20
539.510070
30
0.0
11
784.735700
21
540.013244
31
0.0
0
LINE
8
VISIBLE
10
784.735700
20
540.013244
30
0.0
11
784.616510
21
540.940341
31
0.0
0
LINE
8
VISIBLE
10
784.616510
20
540.940341
30
0.0
11
783.630050
21
542.185269
31
0.0
0
LINE
8
VISIBLE
10
800.962935
20
532.894849
30
0.0
11
800.007783
21
534.365835
31
0.0
0
LINE
8
VISIBLE
10
800.007783
20
534.365835
30
0.0
11
799.165345
21
535.075271
31
0.0
0
LINE
8
VISIBLE
10
797.607863
20
550.214225
30
0.0
11
797.402667
21
551.069519
31
0.0
0
LINE
8
VISIBLE
10
797.607863
20
559.394834
30
0.0
11
797.151262
21
560.833478
31
0.0
0
LINE
8
VISIBLE
10
797.151262
20
560.833478
30
0.0
11
795.872676
21
562.400266
31
0.0
0
LINE
8
VISIBLE
10
789.438543
20
564.878012
30
0.0
11
788.615062
21
566.319724
31
0.0
0
LINE
8
VISIBLE
10
788.615062
20
566.319724
30
0.0
11
787.618488
21
567.191774
31
0.0
0
LINE
8
VISIBLE
10
787.618488
20
567.191774
30
0.0
11
786.601091
21
567.469028
31
0.0
0
LINE
8
VISIBLE
10
786.601091
20
567.469028
30
0.0
11
786.160993
21
567.336150
31
0.0
0
LINE
8
VISIBLE
10
786.160993
20
567.336150
30
0.0
11
785.675299
21
566.727404
31
0.0
0
LINE
8
VISIBLE
10
785.675299
20
566.727404
30
0.0
11
785.577995
21
565.653189
31
0.0
0
LINE
8
VISIBLE
10
785.577995
20
565.653189
30
0.0
11
786.480313
21
563.484504
31
0.0
0
LINE
8
VISIBLE
10
786.226409
20
563.082589
30
0.0
11
786.480313
21
563.484504
31
0.0
0
LINE
8
VISIBLE
10
785.896385
20
562.016878
30
0.0
11
786.226409
21
563.082589
31
0.0
0
LINE
8
VISIBLE
10
785.784949
20
560.774760
30
0.0
11
785.896385
21
562.016878
31
0.0
0
LINE
8
VISIBLE
10
785.784949
20
557.777011
30
0.0
11
785.784949
21
560.774760
31
0.0
0
LINE
8
VISIBLE
10
785.784949
20
557.777011
30
0.0
11
785.557374
21
556.843827
31
0.0
0
LINE
8
VISIBLE
10
785.557374
20
556.843827
30
0.0
11
785.784949
21
555.602350
31
0.0
0
LINE
8
VISIBLE
10
785.784949
20
541.933770
30
0.0
11
785.784949
21
555.602350
31
0.0
0
LINE
8
VISIBLE
10
785.784949
20
541.933770
30
0.0
11
784.098507
21
543.775594
31
0.0
0
LINE
8
VISIBLE
10
784.098507
20
543.775594
30
0.0
11
783.023675
21
544.083279
31
0.0
0
LINE
8
VISIBLE
10
783.023675
20
544.083279
30
0.0
11
782.495263
21
543.934408
31
0.0
0
LINE
8
VISIBLE
10
782.495263
20
543.934408
30
0.0
11
782.224681
21
543.713385
31
0.0
0
LINE
8
VISIBLE
10
782.224681
20
563.335507
30
0.0
11
782.224681
21
543.713385
31
0.0
0
LINE
8
VISIBLE
10
782.304835
20
564.701332
30
0.0
11
782.224681
21
563.335507
31
0.0
0
LINE
8
VISIBLE
10
782.543926
20
565.951234
30
0.0
11
782.304835
21
564.701332
31
0.0
0
LINE
8
VISIBLE
10
782.937863
20
567.063825
30
0.0
11
782.543926
21
565.951234
31
0.0
0
LINE
8
VISIBLE
10
783.479906
20
568.020071
30
0.0
11
782.937863
21
567.063825
31
0.0
0
LINE
8
VISIBLE
10
784.160780
20
568.803607
30
0.0
11
783.479906
21
568.020071
31
0.0
0
LINE
8
VISIBLE
10
784.968835
20
569.401029
30
0.0
11
784.160780
21
568.803607
31
0.0
0
LINE
8
VISIBLE
10
785.890245
20
569.802114
30
0.0
11
784.968835
21
569.401029
31
0.0
0
LINE
8
VISIBLE
10
786.909245
20
570.000000
30
0.0
11
785.890245
21
569.802114
31
0.0
0
LINE
8
VISIBLE
10
788.008398
20
569.991300
30
0.0
11
786.909245
21
570.000000
31
0.0
0
LINE
8
VISIBLE
10
789.168900
20
569.776164
30
0.0
11
788.008398
21
569.991300
31
0.0
0
LINE
8
VISIBLE
10
790.370892
20
569.358272
30
0.0
11
789.168900
21
569.776164
31
0.0
0
LINE
8
VISIBLE
10
791.593808
20
568.744775
30
0.0
11
790.370892
21
569.358272
31
0.0
0
LINE
8
VISIBLE
10
792.816725
20
567.946170
30
0.0
11
791.593808
21
568.744775
31
0.0
0
LINE
8
VISIBLE
10
794.018717
20
566.976121
30
0.0
11
792.816725
21
567.946170
31
0.0
0
LINE
8
VISIBLE
10
795.179218
20
565.851226
30
0.0
11
794.018717
21
566.976121
31
0.0
0
LINE
8
VISIBLE
10
796.278372
20
564.590732
30
0.0
11
795.179218
21
565.851226
31
0.0
0
LINE
8
VISIBLE
10
797.297371
20
563.216207
30
0.0
11
796.278372
21
564.590732
31
0.0
0
LINE
8
VISIBLE
10
798.218781
20
561.751169
30
0.0
11
797.297371
21
563.216207
31
0.0
0
LINE
8
VISIBLE
10
799.026836
20
560.220686
30
0.0
11
798.218781
21
561.751169
31
0.0
0
LINE
8
VISIBLE
10
799.707710
20
558.650944
30
0.0
11
799.026836
21
560.220686
31
0.0
0
LINE
8
VISIBLE
10
800.249753
20
557.068802
30
0.0
11
799.707710
21
558.650944
31
0.0
0
LINE
8
VISIBLE
10
800.643690
20
555.501331
30
0.0
11
800.249753
21
557.068802
31
0.0
0
LINE
8
VISIBLE
10
800.882781
20
553.975350
30
0.0
11
800.643690
21
555.501331
31
0.0
0
LINE
8
VISIBLE
10
800.962935
20
552.516971
30
0.0
11
800.882781
21
553.975350
31
0.0
0
LINE
8
VISIBLE
10
800.962935
20
532.894849
30
0.0
11
800.962935
21
552.516971
31
0.0
0
LINE
8
VISIBLE
10
799.744949
20
536.578594
30
0.0
11
799.744949
21
550.247174
31
0.0
0
LINE
8
VISIBLE
10
799.744949
20
550.247174
30
0.0
11
798.853066
21
549.732246
31
0.0
0
LINE
8
VISIBLE
10
799.744949
20
552.421836
30
0.0
11
798.934845
21
553.868183
31
0.0
0
LINE
8
VISIBLE
10
798.934845
20
553.868183
30
0.0
11
797.911410
21
554.773177
31
0.0
0
LINE
8
VISIBLE
10
799.744949
20
552.421836
30
0.0
11
797.402667
21
551.069519
31
0.0
0
LINE
8
VISIBLE
10
797.911410
20
554.773177
30
0.0
11
796.894014
21
555.050431
31
0.0
0
LINE
8
VISIBLE
10
796.894014
20
555.050431
30
0.0
11
796.453916
21
554.917553
31
0.0
0
LINE
8
VISIBLE
10
796.453916
20
554.917553
30
0.0
11
795.968222
21
554.308806
31
0.0
0
LINE
8
VISIBLE
10
795.968222
20
554.308806
30
0.0
11
795.870918
21
553.234591
31
0.0
0
LINE
8
VISIBLE
10
795.870918
20
553.234591
30
0.0
11
796.320607
21
551.798089
31
0.0
0
LINE
8
VISIBLE
10
796.320607
20
551.798089
30
0.0
11
797.309347
21
550.464418
31
0.0
0
LINE
8
VISIBLE
10
797.309347
20
550.464418
30
0.0
11
798.443761
21
549.786419
31
0.0
0
LINE
8
VISIBLE
10
798.443761
20
549.786419
30
0.0
11
799.368904
21
549.868645
31
0.0
0
LINE
8
VISIBLE
10
799.368904
20
549.868645
30
0.0
11
799.744949
21
550.247174
31
0.0
0
LINE
8
VISIBLE
10
799.744949
20
552.421836
30
0.0
11
799.744949
21
555.419584
31
0.0
0
LINE
8
VISIBLE
10
799.744949
20
555.419584
30
0.0
11
799.633513
21
556.790378
31
0.0
0
LINE
8
VISIBLE
10
799.633513
20
556.790378
30
0.0
11
799.303489
21
558.237167
31
0.0
0
LINE
8
VISIBLE
10
799.303489
20
558.237167
30
0.0
11
799.049585
21
558.932266
31
0.0
0
LINE
8
VISIBLE
10
796.091355
20
563.741643
30
0.0
11
795.850861
21
562.823512
31
0.0
0
LINE
8
VISIBLE
10
795.850861
20
562.823512
30
0.0
11
796.103497
21
561.474395
31
0.0
0
LINE
8
VISIBLE
10
796.103497
20
561.474395
30
0.0
11
796.938558
21
560.037089
31
0.0
0
LINE
8
VISIBLE
10
796.938558
20
560.037089
30
0.0
11
798.088904
21
559.099995
31
0.0
0
LINE
8
VISIBLE
10
798.088904
20
559.099995
30
0.0
11
799.049585
21
558.932266
31
0.0
0
LINE
8
VISIBLE
10
796.091355
20
563.741643
30
0.0
11
795.076883
21
564.682692
31
0.0
0
LINE
8
VISIBLE
10
795.076883
20
564.682692
30
0.0
11
793.945459
21
565.464595
31
0.0
0
LINE
8
VISIBLE
10
793.945459
20
565.464595
30
0.0
11
793.926721
21
565.475413
31
0.0
0
LINE
8
VISIBLE
10
793.926721
20
565.475413
30
0.0
11
792.795296
21
565.999967
31
0.0
0
LINE
8
VISIBLE
10
792.795296
20
565.999967
30
0.0
11
791.780825
21
566.230329
31
0.0
0
LINE
8
VISIBLE
10
791.780825
20
566.230329
30
0.0
11
789.438543
21
564.878012
31
0.0
0
LINE
8
VISIBLE
10
788.822595
20
564.836821
30
0.0
11
789.955064
21
563.787238
31
0.0
0
LINE
8
VISIBLE
10
789.955064
20
563.787238
30
0.0
11
790.973893
21
563.506356
31
0.0
0
LINE
8
VISIBLE
10
790.973893
20
563.506356
30
0.0
11
791.418263
21
563.639559
31
0.0
0
LINE
8
VISIBLE
10
791.418263
20
563.639559
30
0.0
11
791.903958
21
564.248306
31
0.0
0
LINE
8
VISIBLE
10
791.903958
20
564.248306
30
0.0
11
792.001262
21
565.322521
31
0.0
0
LINE
8
VISIBLE
10
792.001262
20
565.322521
30
0.0
11
791.780825
21
566.230329
31
0.0
0
LINE
8
VISIBLE
10
788.822595
20
564.836821
30
0.0
11
786.480313
21
563.484504
31
0.0
0
LINE
8
VISIBLE
10
785.754031
20
566.115330
30
0.0
11
785.565885
21
566.214020
31
0.0
0
LINE
8
VISIBLE
10
787.472501
20
564.057344
30
0.0
11
786.563516
21
565.456750
31
0.0
0
LINE
8
VISIBLE
10
786.563516
20
565.456750
30
0.0
11
785.754031
21
566.115330
31
0.0
0
LINE
8
VISIBLE
10
788.822595
20
564.836821
30
0.0
11
788.568691
21
564.434906
31
0.0
0
LINE
8
VISIBLE
10
788.568691
20
564.434906
30
0.0
11
786.226409
21
563.082589
31
0.0
0
LINE
8
VISIBLE
10
788.568691
20
564.434906
30
0.0
11
788.238667
21
563.369195
31
0.0
0
LINE
8
VISIBLE
10
788.238667
20
563.369195
30
0.0
11
785.896385
21
562.016878
31
0.0
0
LINE
8
VISIBLE
10
788.238667
20
563.369195
30
0.0
11
788.127231
21
562.127077
31
0.0
0
LINE
8
VISIBLE
10
788.127231
20
562.127077
30
0.0
11
785.784949
21
560.774760
31
0.0
0
LINE
8
VISIBLE
10
788.127231
20
562.127077
30
0.0
11
788.127231
21
559.129328
31
0.0
0
LINE
8
VISIBLE
10
788.127231
20
559.129328
30
0.0
11
785.784949
21
557.777011
31
0.0
0
LINE
8
VISIBLE
10
788.127231
20
556.954667
30
0.0
11
788.937334
21
555.508319
31
0.0
0
LINE
8
VISIBLE
10
788.937334
20
555.508319
30
0.0
11
790.083711
21
554.536583
31
0.0
0
LINE
8
VISIBLE
10
790.083711
20
554.536583
30
0.0
11
790.806025
21
554.324644
31
0.0
0
LINE
8
VISIBLE
10
790.806025
20
554.324644
30
0.0
11
791.418263
21
554.458950
31
0.0
0
LINE
8
VISIBLE
10
791.418263
20
554.458950
30
0.0
11
791.903958
21
555.067696
31
0.0
0
LINE
8
VISIBLE
10
791.903958
20
555.067696
30
0.0
11
792.001262
21
556.141911
31
0.0
0
LINE
8
VISIBLE
10
792.001262
20
556.141911
30
0.0
11
791.551573
21
557.578413
31
0.0
0
LINE
8
VISIBLE
10
791.551573
20
557.578413
30
0.0
11
789.960769
21
559.363482
31
0.0
0
LINE
8
VISIBLE
10
788.127231
20
556.954667
30
0.0
11
785.784949
21
555.602350
31
0.0
0
LINE
8
VISIBLE
10
789.960769
20
559.363482
30
0.0
11
788.943373
21
559.640736
31
0.0
0
LINE
8
VISIBLE
10
788.943373
20
559.640736
30
0.0
11
788.503275
21
559.507858
31
0.0
0
LINE
8
VISIBLE
10
788.503275
20
559.507858
30
0.0
11
788.127231
21
559.129328
31
0.0
0
LINE
8
VISIBLE
10
785.754031
20
556.934720
30
0.0
11
785.565885
21
557.033411
31
0.0
0
LINE
8
VISIBLE
10
786.695687
20
556.128164
30
0.0
11
785.754031
21
556.934720
31
0.0
0
LINE
8
VISIBLE
10
788.127231
20
556.954667
30
0.0
11
788.127231
21
543.286087
31
0.0
0
LINE
8
VISIBLE
10
788.127231
20
543.286087
30
0.0
11
785.784949
21
541.933770
31
0.0
0
LINE
8
VISIBLE
10
795.076883
20
525.452385
30
0.0
11
796.164828
21
525.205340
31
0.0
0
LINE
8
VISIBLE
10
793.945459
20
525.976939
30
0.0
11
795.076883
21
525.452385
31
0.0
0
LINE
8
VISIBLE
10
793.926721
20
525.987757
30
0.0
11
793.945459
21
525.976939
31
0.0
0
LINE
8
VISIBLE
10
792.795296
20
526.769660
30
0.0
11
793.926721
21
525.987757
31
0.0
0
LINE
8
VISIBLE
10
791.707352
20
527.778864
30
0.0
11
792.795296
21
526.769660
31
0.0
0
LINE
8
VISIBLE
10
790.704697
20
528.976587
30
0.0
11
791.707352
21
527.778864
31
0.0
0
LINE
8
VISIBLE
10
789.825862
20
530.316799
30
0.0
11
790.704697
21
528.976587
31
0.0
0
LINE
8
VISIBLE
10
789.104621
20
531.747999
30
0.0
11
789.825862
21
530.316799
31
0.0
0
LINE
8
VISIBLE
10
788.568691
20
533.215185
30
0.0
11
789.104621
21
531.747999
31
0.0
0
LINE
8
VISIBLE
10
788.238667
20
534.661974
30
0.0
11
788.568691
21
533.215185
31
0.0
0
LINE
8
VISIBLE
10
788.127231
20
536.032768
30
0.0
11
788.238667
21
534.661974
31
0.0
0
LINE
8
VISIBLE
10
788.127231
20
539.786228
30
0.0
11
788.127231
21
536.032768
31
0.0
0
LINE
8
VISIBLE
10
788.127231
20
539.786228
30
0.0
11
788.602231
21
540.471183
31
0.0
0
LINE
8
VISIBLE
10
788.602231
20
540.471183
30
0.0
11
788.680209
21
541.626409
31
0.0
0
LINE
8
VISIBLE
10
788.680209
20
541.626409
30
0.0
11
788.127231
21
543.286087
31
0.0
0
LINE
8
VISIBLE
10
799.744949
20
536.578594
30
0.0
11
799.269948
21
535.893639
31
0.0
0
LINE
8
VISIBLE
10
799.269948
20
535.893639
30
0.0
11
799.191971
21
534.738413
31
0.0
0
LINE
8
VISIBLE
10
799.191971
20
534.738413
30
0.0
11
799.744949
21
533.078735
31
0.0
0
LINE
8
VISIBLE
10
799.744949
20
529.325276
30
0.0
11
799.744949
21
533.078735
31
0.0
0
LINE
8
VISIBLE
10
799.633513
20
528.083157
30
0.0
11
799.744949
21
529.325276
31
0.0
0
LINE
8
VISIBLE
10
799.303489
20
527.017447
30
0.0
11
799.633513
21
528.083157
31
0.0
0
LINE
8
VISIBLE
10
798.767558
20
526.169100
30
0.0
11
799.303489
21
527.017447
31
0.0
0
LINE
8
VISIBLE
10
798.046317
20
525.570717
30
0.0
11
798.767558
21
526.169100
31
0.0
0
LINE
8
VISIBLE
10
797.167483
20
525.245296
30
0.0
11
798.046317
21
525.570717
31
0.0
0
LINE
8
VISIBLE
10
796.164828
20
525.205340
30
0.0
11
797.167483
21
525.245296
31
0.0
0
LINE
8
VISIBLE
10
796.171394
20
546.949877
30
0.0
11
796.251368
21
546.599282
31
0.0
0
LINE
8
VISIBLE
10
796.041524
20
547.305415
30
0.0
11
796.171394
21
546.949877
31
0.0
0
LINE
8
VISIBLE
10
796.251368
20
546.599282
30
0.0
11
796.278372
21
546.267103
31
0.0
0
LINE
8
VISIBLE
10
795.866748
20
547.652233
30
0.0
11
796.041524
21
547.305415
31
0.0
0
LINE
8
VISIBLE
10
796.278372
20
546.267103
30
0.0
11
796.278372
21
537.071347
31
0.0
0
LINE
8
VISIBLE
10
795.653784
20
547.977001
30
0.0
11
795.866748
21
547.652233
31
0.0
0
LINE
8
VISIBLE
10
796.278372
20
537.071347
30
0.0
11
796.251368
21
536.770349
31
0.0
0
LINE
8
VISIBLE
10
795.410814
20
548.267241
30
0.0
11
795.653784
21
547.977001
31
0.0
0
LINE
8
VISIBLE
10
796.251368
20
536.770349
30
0.0
11
796.171394
21
536.512100
31
0.0
0
LINE
8
VISIBLE
10
795.147176
20
548.511798
30
0.0
11
795.410814
21
548.267241
31
0.0
0
LINE
8
VISIBLE
10
796.171394
20
536.512100
30
0.0
11
796.041524
21
536.306523
31
0.0
0
LINE
8
VISIBLE
10
794.873003
20
548.701273
30
0.0
11
795.147176
21
548.511798
31
0.0
0
LINE
8
VISIBLE
10
796.041524
20
536.306523
30
0.0
11
795.866748
21
536.161519
31
0.0
0
LINE
8
VISIBLE
10
792.999177
20
549.783127
30
0.0
11
794.873003
21
548.701273
31
0.0
0
LINE
8
VISIBLE
10
795.866748
20
536.161519
30
0.0
11
795.653784
21
536.082661
31
0.0
0
LINE
8
VISIBLE
10
792.725003
20
549.910240
30
0.0
11
792.999177
21
549.783127
31
0.0
0
LINE
8
VISIBLE
10
795.653784
20
536.082661
30
0.0
11
795.410814
21
536.072978
31
0.0
0
LINE
8
VISIBLE
10
792.461366
20
549.970106
30
0.0
11
792.725003
21
549.910240
31
0.0
0
LINE
8
VISIBLE
10
795.410814
20
536.072978
30
0.0
11
795.147176
21
536.132844
31
0.0
0
LINE
8
VISIBLE
10
792.218396
20
549.960424
30
0.0
11
792.461366
21
549.970106
31
0.0
0
LINE
8
VISIBLE
10
795.147176
20
536.132844
30
0.0
11
794.873003
21
536.259957
31
0.0
0
LINE
8
VISIBLE
10
792.005431
20
549.881565
30
0.0
11
792.218396
21
549.960424
31
0.0
0
LINE
8
VISIBLE
10
794.873003
20
536.259957
30
0.0
11
792.999177
21
537.341811
31
0.0
0
LINE
8
VISIBLE
10
791.830655
20
549.736561
30
0.0
11
792.005431
21
549.881565
31
0.0
0
LINE
8
VISIBLE
10
792.999177
20
537.341811
30
0.0
11
792.725003
21
537.531286
31
0.0
0
LINE
8
VISIBLE
10
791.700785
20
549.530985
30
0.0
11
791.830655
21
549.736561
31
0.0
0
LINE
8
VISIBLE
10
792.725003
20
537.531286
30
0.0
11
792.461366
21
537.775843
31
0.0
0
LINE
8
VISIBLE
10
791.620812
20
549.272735
30
0.0
11
791.700785
21
549.530985
31
0.0
0
LINE
8
VISIBLE
10
792.461366
20
537.775843
30
0.0
11
792.218396
21
538.066083
31
0.0
0
LINE
8
VISIBLE
10
791.593808
20
548.971737
30
0.0
11
791.620812
21
549.272735
31
0.0
0
LINE
8
VISIBLE
10
792.218396
20
538.066083
30
0.0
11
792.005431
21
538.390852
31
0.0
0
LINE
8
VISIBLE
10
791.593808
20
539.775981
30
0.0
11
791.593808
21
548.971737
31
0.0
0
LINE
8
VISIBLE
10
792.005431
20
538.390852
30
0.0
11
791.830655
21
538.737669
31
0.0
0
LINE
8
VISIBLE
10
791.620812
20
539.443802
30
0.0
11
791.593808
21
539.775981
31
0.0
0
LINE
8
VISIBLE
10
791.830655
20
538.737669
30
0.0
11
791.700785
21
539.093207
31
0.0
0
LINE
8
VISIBLE
10
791.700785
20
539.093207
30
0.0
11
791.620812
21
539.443802
31
0.0
0
LINE
8
VISIBLE
10
793.936090
20
562.524117
30
0.0
11
792.721632
21
562.906688
31
0.0
0
LINE
8
VISIBLE
10
792.721632
20
562.906688
30
0.0
11
791.948598
21
562.720993
31
0.0
0
LINE
8
VISIBLE
10
791.948598
20
562.720993
30
0.0
11
791.351642
21
562.046555
31
0.0
0
LINE
8
VISIBLE
10
791.351642
20
562.046555
30
0.0
11
791.125355
21
560.896731
31
0.0
0
LINE
8
VISIBLE
10
791.125355
20
560.896731
30
0.0
11
791.411468
21
559.309481
31
0.0
0
LINE
8
VISIBLE
10
791.411468
20
559.309481
30
0.0
11
792.296600
21
557.588876
31
0.0
0
LINE
8
VISIBLE
10
792.296600
20
557.588876
30
0.0
11
793.591084
21
556.256727
31
0.0
0
LINE
8
VISIBLE
10
793.591084
20
556.256727
30
0.0
11
794.870119
21
555.678175
31
0.0
0
LINE
8
VISIBLE
10
794.870119
20
555.678175
30
0.0
11
795.923582
21
555.836119
31
0.0
0
LINE
8
VISIBLE
10
795.923582
20
555.836119
30
0.0
11
796.520538
21
556.510557
31
0.0
0
LINE
8
VISIBLE
10
796.520538
20
556.510557
30
0.0
11
796.746825
21
557.660382
31
0.0
0
LINE
8
VISIBLE
10
796.746825
20
557.660382
30
0.0
11
796.460712
21
559.247632
31
0.0
0
LINE
8
VISIBLE
10
796.460712
20
559.247632
30
0.0
11
795.575580
21
560.968236
31
0.0
0
LINE
8
VISIBLE
10
795.575580
20
560.968236
30
0.0
11
793.936090
21
562.524117
31
0.0
0
LINE
8
VISIBLE
10
798.788744
20
514.199619
30
0.0
11
800.962935
21
522.466324
31
0.0
0
LINE
8
VISIBLE
10
800.962935
20
522.466324
30
0.0
11
800.962935
21
529.946803
31
0.0
0
LINE
8
VISIBLE
10
799.744949
20
529.617864
30
0.0
11
800.692353
21
529.725780
31
0.0
0
LINE
8
VISIBLE
10
800.692353
20
529.725780
30
0.0
11
800.962935
21
529.946803
31
0.0
0
LINE
8
VISIBLE
10
797.023737
20
507.673391
30
0.0
11
797.088271
21
508.010758
31
0.0
0
LINE
8
VISIBLE
10
796.787375
20
507.005836
30
0.0
11
797.023737
21
507.673391
31
0.0
0
LINE
8
VISIBLE
10
796.462149
20
506.432089
30
0.0
11
796.787375
21
507.005836
31
0.0
0
LINE
8
VISIBLE
10
796.053625
20
505.961967
30
0.0
11
796.462149
21
506.432089
31
0.0
0
LINE
8
VISIBLE
10
795.568792
20
505.603514
30
0.0
11
796.053625
21
505.961967
31
0.0
0
LINE
8
VISIBLE
10
795.015946
20
505.362863
30
0.0
11
795.568792
21
505.603514
31
0.0
0
LINE
8
VISIBLE
10
795.704036
20
524.218400
30
0.0
11
794.825201
21
523.892979
31
0.0
0
LINE
8
VISIBLE
10
794.404546
20
505.244132
30
0.0
11
795.015946
21
505.362863
31
0.0
0
LINE
8
VISIBLE
10
794.825201
20
523.892979
30
0.0
11
793.822546
21
523.853023
31
0.0
0
LINE
8
VISIBLE
10
793.745054
20
505.249351
30
0.0
11
794.404546
21
505.244132
31
0.0
0
LINE
8
VISIBLE
10
793.822546
20
523.853023
30
0.0
11
792.734601
21
524.100068
31
0.0
0
LINE
8
VISIBLE
10
793.048753
20
505.378433
30
0.0
11
793.745054
21
505.249351
31
0.0
0
LINE
8
VISIBLE
10
792.734601
20
524.100068
30
0.0
11
791.603177
21
524.624622
31
0.0
0
LINE
8
VISIBLE
10
792.327558
20
505.629168
30
0.0
11
793.048753
21
505.378433
31
0.0
0
LINE
8
VISIBLE
10
791.603177
20
524.624622
30
0.0
11
791.584439
21
524.635440
31
0.0
0
LINE
8
VISIBLE
10
791.593808
20
505.997267
30
0.0
11
792.327558
21
505.629168
31
0.0
0
LINE
8
VISIBLE
10
791.584439
20
524.635440
30
0.0
11
790.453015
21
525.417343
31
0.0
0
LINE
8
VISIBLE
10
790.860058
20
506.476430
30
0.0
11
791.593808
21
505.997267
31
0.0
0
LINE
8
VISIBLE
10
790.453015
20
525.417343
30
0.0
11
789.365070
21
526.426547
31
0.0
0
LINE
8
VISIBLE
10
790.138863
20
507.058459
30
0.0
11
790.860058
21
506.476430
31
0.0
0
LINE
8
VISIBLE
10
789.365070
20
526.426547
30
0.0
11
788.362415
21
527.624270
31
0.0
0
LINE
8
VISIBLE
10
789.442562
20
507.733396
30
0.0
11
790.138863
21
507.058459
31
0.0
0
LINE
8
VISIBLE
10
788.362415
20
527.624270
30
0.0
11
787.483581
21
528.964482
31
0.0
0
LINE
8
VISIBLE
10
788.783070
20
508.489692
30
0.0
11
789.442562
21
507.733396
31
0.0
0
LINE
8
VISIBLE
10
787.483581
20
528.964482
30
0.0
11
786.762340
21
530.395682
31
0.0
0
LINE
8
VISIBLE
10
788.171670
20
509.314407
30
0.0
11
788.783070
21
508.489692
31
0.0
0
LINE
8
VISIBLE
10
786.762340
20
530.395682
30
0.0
11
786.226409
21
531.862868
31
0.0
0
LINE
8
VISIBLE
10
787.618824
20
510.193430
30
0.0
11
788.171670
21
509.314407
31
0.0
0
LINE
8
VISIBLE
10
786.226409
20
531.862868
30
0.0
11
785.896385
21
533.309657
31
0.0
0
LINE
8
VISIBLE
10
787.133991
20
511.111720
30
0.0
11
787.618824
21
510.193430
31
0.0
0
LINE
8
VISIBLE
10
785.896385
20
533.309657
30
0.0
11
785.784949
21
534.680451
31
0.0
0
LINE
8
VISIBLE
10
786.725467
20
512.053565
30
0.0
11
787.133991
21
511.111720
31
0.0
0
LINE
8
VISIBLE
10
785.784949
20
534.680451
30
0.0
11
785.784949
21
538.433911
31
0.0
0
LINE
8
VISIBLE
10
786.400241
20
513.002851
30
0.0
11
786.725467
21
512.053565
31
0.0
0
LINE
8
VISIBLE
10
782.224681
20
540.765339
30
0.0
11
783.179833
21
539.294353
31
0.0
0
LINE
8
VISIBLE
10
783.179833
20
539.294353
30
0.0
11
784.390625
21
538.392588
31
0.0
0
LINE
8
VISIBLE
10
784.390625
20
538.392588
30
0.0
11
785.701750
21
538.380609
31
0.0
0
LINE
8
VISIBLE
10
785.701750
20
538.380609
30
0.0
11
785.784949
21
538.433911
31
0.0
0
LINE
8
VISIBLE
10
786.163879
20
513.943333
30
0.0
11
786.400241
21
513.002851
31
0.0
0
LINE
8
VISIBLE
10
782.224681
20
540.765339
30
0.0
11
782.224681
21
533.284860
31
0.0
0
LINE
8
VISIBLE
10
786.020424
20
514.858921
30
0.0
11
786.163879
21
513.943333
31
0.0
0
LINE
8
VISIBLE
10
782.224681
20
533.284860
30
0.0
11
785.738104
21
515.869181
31
0.0
0
LINE
8
VISIBLE
10
785.972332
20
515.733949
30
0.0
11
786.020424
21
514.858921
31
0.0
0
LINE
8
VISIBLE
10
785.738104
20
515.869181
30
0.0
11
785.972332
21
515.733949
31
0.0
0
LINE
8
VISIBLE
10
788.281321
20
518.225783
30
0.0
11
787.460417
21
517.420442
31
0.0
0
LINE
8
VISIBLE
10
787.460417
20
517.420442
30
0.0
11
786.987266
21
516.131102
31
0.0
0
LINE
8
VISIBLE
10
786.987266
20
516.131102
30
0.0
11
786.963028
21
514.344652
31
0.0
0
LINE
8
VISIBLE
10
786.963028
20
514.344652
30
0.0
11
787.517867
21
512.175340
31
0.0
0
LINE
8
VISIBLE
10
787.517867
20
512.175340
30
0.0
11
788.680128
21
509.934943
31
0.0
0
LINE
8
VISIBLE
10
788.680128
20
509.934943
30
0.0
11
790.284302
21
508.050804
31
0.0
0
LINE
8
VISIBLE
10
790.284302
20
508.050804
30
0.0
11
792.012602
21
506.858989
31
0.0
0
LINE
8
VISIBLE
10
792.012602
20
506.858989
30
0.0
11
793.555653
21
506.443650
31
0.0
0
LINE
8
VISIBLE
10
793.555653
20
506.443650
30
0.0
11
794.906295
21
506.750993
31
0.0
0
LINE
8
VISIBLE
10
785.754031
20
564.925291
30
0.0
11
785.733566
21
564.936872
31
0.0
0
LINE
8
VISIBLE
10
786.712675
20
563.618658
30
0.0
11
785.754031
21
564.925291
31
0.0
0
LINE
8
VISIBLE
10
785.754031
20
555.744681
30
0.0
11
785.733566
21
555.756262
31
0.0
0
LINE
8
VISIBLE
10
785.884466
20
555.659806
30
0.0
11
785.754031
21
555.744681
31
0.0
0
LINE
8
VISIBLE
10
788.127231
20
536.032768
30
0.0
11
785.784949
21
534.680451
31
0.0
0
LINE
8
VISIBLE
10
788.127231
20
539.786228
30
0.0
11
785.784949
21
538.433911
31
0.0
0
LINE
8
VISIBLE
10
798.046317
20
525.570717
30
0.0
11
795.704036
21
524.218400
31
0.0
0
LINE
8
VISIBLE
10
797.167483
20
525.245296
30
0.0
11
794.825201
21
523.892979
31
0.0
0
LINE
8
VISIBLE
10
796.164828
20
525.205340
30
0.0
11
793.822546
21
523.853023
31
0.0
0
LINE
8
VISIBLE
10
795.076883
20
525.452385
30
0.0
11
792.734601
21
524.100068
31
0.0
0
LINE
8
VISIBLE
10
793.945459
20
525.976939
30
0.0
11
791.603177
21
524.624622
31
0.0
0
LINE
8
VISIBLE
10
793.926721
20
525.987757
30
0.0
11
791.584439
21
524.635440
31
0.0
0
LINE
8
VISIBLE
10
792.795296
20
526.769660
30
0.0
11
790.453015
21
525.417343
31
0.0
0
LINE
8
VISIBLE
10
791.707352
20
527.778864
30
0.0
11
789.365070
21
526.426547
31
0.0
0
LINE
8
VISIBLE
10
790.704697
20
528.976587
30
0.0
11
788.362415
21
527.624270
31
0.0
0
LINE
8
VISIBLE
10
789.825862
20
530.316799
30
0.0
11
787.483581
21
528.964482
31
0.0
0
LINE
8
VISIBLE
10
789.104621
20
531.747999
30
0.0
11
786.762340
21
530.395682
31
0.0
0
LINE
8
VISIBLE
10
788.568691
20
533.215185
30
0.0
11
786.226409
21
531.862868
31
0.0
0
LINE
8
VISIBLE
10
788.238667
20
534.661974
30
0.0
11
785.896385
21
533.309657
31
0.0
0
LINE
8
VISIBLE
10
794.591929
20
519.628622
30
0.0
11
792.980698
21
520.228846
31
0.0
0
LINE
8
VISIBLE
10
792.980698
20
520.228846
30
0.0
11
791.279442
21
519.956749
31
0.0
0
LINE
8
VISIBLE
10
791.279442
20
519.956749
30
0.0
11
790.458537
21
519.151408
31
0.0
0
LINE
8
VISIBLE
10
790.458537
20
519.151408
30
0.0
11
789.985386
21
517.862068
31
0.0
0
LINE
8
VISIBLE
10
789.985386
20
517.862068
30
0.0
11
789.961148
21
516.075618
31
0.0
0
LINE
8
VISIBLE
10
789.961148
20
516.075618
30
0.0
11
790.515988
21
513.906306
31
0.0
0
LINE
8
VISIBLE
10
790.515988
20
513.906306
30
0.0
11
791.678249
21
511.665909
31
0.0
0
LINE
8
VISIBLE
10
791.678249
20
511.665909
30
0.0
11
793.282423
21
509.781770
31
0.0
0
LINE
8
VISIBLE
10
793.282423
20
509.781770
30
0.0
11
795.010723
21
508.589954
31
0.0
0
LINE
8
VISIBLE
10
795.010723
20
508.589954
30
0.0
11
796.553773
21
508.174616
31
0.0
0
LINE
8
VISIBLE
10
796.553773
20
508.174616
30
0.0
11
797.904415
21
508.481959
31
0.0
0
LINE
8
VISIBLE
10
797.904415
20
508.481959
30
0.0
11
798.725320
21
509.287300
31
0.0
0
LINE
8
VISIBLE
10
798.725320
20
509.287300
30
0.0
11
799.198471
21
510.576640
31
0.0
0
LINE
8
VISIBLE
10
799.198471
20
510.576640
30
0.0
11
799.222709
21
512.363090
31
0.0
0
LINE
8
VISIBLE
10
799.222709
20
512.363090
30
0.0
11
798.667870
21
514.532402
31
0.0
0
LINE
8
VISIBLE
10
798.667870
20
514.532402
30
0.0
11
797.505609
21
516.772799
31
0.0
0
LINE
8
VISIBLE
10
797.505609
20
516.772799
30
0.0
11
795.901435
21
518.656938
31
0.0
0
LINE
8
VISIBLE
10
795.901435
20
518.656938
30
0.0
11
794.591929
21
519.628622
31
0.0
0
LINE
8
VISIBLE
10
796.171394
20
546.949877
30
0.0
11
791.674213
21
544.353429
31
0.0
0
LINE
8
VISIBLE
10
791.674213
20
544.353429
30
0.0
11
791.754187
21
544.002834
31
0.0
0
LINE
8
VISIBLE
10
796.251368
20
546.599282
30
0.0
11
791.754187
21
544.002834
31
0.0
0
LINE
8
VISIBLE
10
800.494479
20
532.624386
30
0.0
11
799.254448
21
534.380013
31
0.0
0
LINE
8
VISIBLE
10
800.494479
20
529.676340
30
0.0
11
800.494479
21
532.624386
31
0.0
0
LINE
8
VISIBLE
10
800.440923
20
529.620344
30
0.0
11
800.494479
21
529.676340
31
0.0
0
LINE
8
VISIBLE
10
780.069782
20
552.055020
30
0.0
11
780.069782
21
532.040728
31
0.0
0
LINE
8
VISIBLE
10
780.069782
20
532.040728
30
0.0
11
783.583205
21
514.625049
31
0.0
0
LINE
8
VISIBLE
10
783.583205
20
514.625049
30
0.0
11
783.817433
21
514.489817
31
0.0
0
LINE
8
VISIBLE
10
783.817433
20
514.489817
30
0.0
11
783.865525
21
513.614790
31
0.0
0
LINE
8
VISIBLE
10
783.865525
20
513.614790
30
0.0
11
784.008980
21
512.699202
31
0.0
0
LINE
8
VISIBLE
10
784.008980
20
512.699202
30
0.0
11
784.245342
21
511.758719
31
0.0
0
LINE
8
VISIBLE
10
784.245342
20
511.758719
30
0.0
11
784.570568
21
510.809434
31
0.0
0
LINE
8
VISIBLE
10
784.570568
20
510.809434
30
0.0
11
784.979092
21
509.867589
31
0.0
0
LINE
8
VISIBLE
10
784.979092
20
509.867589
30
0.0
11
785.463925
21
508.949299
31
0.0
0
LINE
8
VISIBLE
10
785.463925
20
508.949299
30
0.0
11
786.016771
21
508.070276
31
0.0
0
LINE
8
VISIBLE
10
786.016771
20
508.070276
30
0.0
11
786.628171
21
507.245561
31
0.0
0
LINE
8
VISIBLE
10
786.628171
20
507.245561
30
0.0
11
787.287663
21
506.489265
31
0.0
0
LINE
8
VISIBLE
10
787.287663
20
506.489265
30
0.0
11
787.983964
21
505.814328
31
0.0
0
LINE
8
VISIBLE
10
787.983964
20
505.814328
30
0.0
11
788.705159
21
505.232298
31
0.0
0
LINE
8
VISIBLE
10
788.705159
20
505.232298
30
0.0
11
789.438909
21
504.753135
31
0.0
0
LINE
8
VISIBLE
10
789.438909
20
504.753135
30
0.0
11
790.172659
21
504.385037
31
0.0
0
LINE
8
VISIBLE
10
790.172659
20
504.385037
30
0.0
11
790.893854
21
504.134302
31
0.0
0
LINE
8
VISIBLE
10
790.893854
20
504.134302
30
0.0
11
791.590155
21
504.005220
31
0.0
0
LINE
8
VISIBLE
10
791.590155
20
504.005220
30
0.0
11
792.249647
21
504.000000
31
0.0
0
LINE
8
VISIBLE
10
792.249647
20
504.000000
30
0.0
11
792.861047
21
504.118731
31
0.0
0
LINE
8
VISIBLE
10
792.861047
20
504.118731
30
0.0
11
793.413893
21
504.359382
31
0.0
0
LINE
8
VISIBLE
10
791.781191
20
543.670654
30
0.0
11
791.781191
21
538.873086
31
0.0
0
LINE
8
VISIBLE
10
791.754187
20
544.002834
30
0.0
11
791.781191
21
543.670654
31
0.0
0
LINE
8
VISIBLE
10
791.593808
20
544.573550
30
0.0
11
791.674213
21
544.353429
31
0.0
0
LINE
8
VISIBLE
10
796.041524
20
547.305415
30
0.0
11
791.593808
21
544.737525
31
0.0
0
LINE
8
VISIBLE
10
796.278372
20
546.267103
30
0.0
11
791.781191
21
543.670654
31
0.0
0
LINE
8
VISIBLE
10
795.866748
20
547.652233
30
0.0
11
791.593808
21
545.185249
31
0.0
0
LINE
8
VISIBLE
10
796.278372
20
537.071347
30
0.0
11
794.873003
21
536.259957
31
0.0
0
LINE
8
VISIBLE
10
795.653784
20
547.977001
30
0.0
11
791.593808
21
545.632973
31
0.0
0
LINE
8
VISIBLE
10
796.251368
20
536.770349
30
0.0
11
795.147176
21
536.132844
31
0.0
0
LINE
8
VISIBLE
10
795.410814
20
548.267241
30
0.0
11
791.593808
21
546.063492
31
0.0
0
LINE
8
VISIBLE
10
796.171394
20
536.512100
30
0.0
11
795.410814
21
536.072978
31
0.0
0
LINE
8
VISIBLE
10
795.147176
20
548.511798
30
0.0
11
791.593808
21
546.460260
31
0.0
0
LINE
8
VISIBLE
10
796.041524
20
536.306523
30
0.0
11
795.653784
21
536.082661
31
0.0
0
LINE
8
VISIBLE
10
794.873003
20
548.701273
30
0.0
11
791.593808
21
546.808030
31
0.0
0
LINE
8
VISIBLE
10
792.999177
20
549.783127
30
0.0
11
791.593808
21
548.971737
31
0.0
0
LINE
8
VISIBLE
10
792.725003
20
549.910240
30
0.0
11
791.620812
21
549.272735
31
0.0
0
LINE
8
VISIBLE
10
792.461366
20
549.970106
30
0.0
11
791.700785
21
549.530985
31
0.0
0
LINE
8
VISIBLE
10
792.218396
20
549.960424
30
0.0
11
791.830655
21
549.736561
31
0.0
0
LINE
8
VISIBLE
10
791.781191
20
540.425094
30
0.0
11
791.593808
21
540.316908
31
0.0
0
LINE
8
VISIBLE
10
794.591929
20
517.194451
30
0.0
11
793.435776
21
517.545609
31
0.0
0
LINE
8
VISIBLE
10
793.435776
20
517.545609
30
0.0
11
792.770061
21
517.374921
31
0.0
0
LINE
8
VISIBLE
10
792.770061
20
517.374921
30
0.0
11
792.206016
21
516.719849
31
0.0
0
LINE
8
VISIBLE
10
792.206016
20
516.719849
30
0.0
11
792.017315
21
515.591687
31
0.0
0
LINE
8
VISIBLE
10
792.017315
20
515.591687
30
0.0
11
792.351589
21
514.043446
31
0.0
0
LINE
8
VISIBLE
10
792.351589
20
514.043446
30
0.0
11
793.275514
21
512.421926
31
0.0
0
LINE
8
VISIBLE
10
793.275514
20
512.421926
30
0.0
11
794.547072
21
511.270605
31
0.0
0
LINE
8
VISIBLE
10
794.547072
20
511.270605
30
0.0
11
795.712943
21
510.893397
31
0.0
0
LINE
8
VISIBLE
10
795.712943
20
510.893397
30
0.0
11
796.413796
21
511.063787
31
0.0
0
LINE
8
VISIBLE
10
796.413796
20
511.063787
30
0.0
11
796.977841
21
511.718859
31
0.0
0
LINE
8
VISIBLE
10
796.977841
20
511.718859
30
0.0
11
797.166542
21
512.847021
31
0.0
0
LINE
8
VISIBLE
10
797.166542
20
512.847021
30
0.0
11
796.832268
21
514.395262
31
0.0
0
LINE
8
VISIBLE
10
796.832268
20
514.395262
30
0.0
11
795.908344
21
516.016782
31
0.0
0
LINE
8
VISIBLE
10
795.908344
20
516.016782
30
0.0
11
794.591929
21
517.194451
31
0.0
0
LINE
8
VISIBLE
10
793.760920
20
511.883033
30
0.0
11
793.051888
21
513.537747
31
0.0
0
LINE
8
VISIBLE
10
793.051888
20
513.537747
30
0.0
11
792.153112
21
514.667840
31
0.0
0
LINE
8
VISIBLE
10
779.179715
20
540.181676
30
0.0
11
780.069782
21
539.667796
31
0.0
0
LINE
8
VISIBLE
10
780.069782
20
540.695557
30
0.0
11
779.179715
21
540.181676
31
0.0
0
LINE
8
VISIBLE
10
779.179715
20
540.181676
30
0.0
11
779.179715
21
546.131871
31
0.0
0
LINE
8
VISIBLE
10
800.962935
20
529.946803
30
0.0
11
800.494479
21
529.676340
31
0.0
0
LINE
8
VISIBLE
10
800.962935
20
532.894849
30
0.0
11
800.494479
21
532.624386
31
0.0
0
LINE
8
VISIBLE
10
782.224681
20
543.713385
30
0.0
11
781.756225
21
543.442922
31
0.0
0
LINE
8
VISIBLE
10
782.224681
20
540.765339
30
0.0
11
781.756225
21
540.494876
31
0.0
0
LINE
8
VISIBLE
10
782.224681
20
533.284860
30
0.0
11
780.069782
21
532.040728
31
0.0
0
LINE
8
VISIBLE
10
780.069782
20
552.055020
30
0.0
11
779.601326
21
551.784556
31
0.0
0
LINE
8
VISIBLE
10
782.224681
20
563.335507
30
0.0
11
779.601326
21
561.820912
31
0.0
0
LINE
8
VISIBLE
10
782.304835
20
564.701332
30
0.0
11
779.681480
21
563.186737
31
0.0
0
LINE
8
VISIBLE
10
782.543926
20
565.951234
30
0.0
11
779.920571
21
564.436639
31
0.0
0
LINE
8
VISIBLE
10
782.937863
20
567.063825
30
0.0
11
780.314508
21
565.549230
31
0.0
0
LINE
8
VISIBLE
10
783.479906
20
568.020071
30
0.0
11
780.856551
21
566.505475
31
0.0
0
LINE
8
VISIBLE
10
784.160780
20
568.803607
30
0.0
11
781.537424
21
567.289012
31
0.0
0
LINE
8
VISIBLE
10
784.968835
20
569.401029
30
0.0
11
782.345479
21
567.886434
31
0.0
0
LINE
8
VISIBLE
10
785.738104
20
515.869181
30
0.0
11
783.583205
21
514.625049
31
0.0
0
LINE
8
VISIBLE
10
785.972332
20
515.733949
30
0.0
11
783.817433
21
514.489817
31
0.0
0
LINE
8
VISIBLE
10
795.568792
20
505.603514
30
0.0
11
793.413893
21
504.359382
31
0.0
0
LINE
8
VISIBLE
10
795.015946
20
505.362863
30
0.0
11
792.861047
21
504.118731
31
0.0
0
LINE
8
VISIBLE
10
794.404546
20
505.244132
30
0.0
11
792.249647
21
504.000000
31
0.0
0
LINE
8
VISIBLE
10
793.745054
20
505.249351
30
0.0
11
791.590155
21
504.005220
31
0.0
0
LINE
8
VISIBLE
10
793.048753
20
505.378433
30
0.0
11
790.893854
21
504.134302
31
0.0
0
LINE
8
VISIBLE
10
792.327558
20
505.629168
30
0.0
11
790.172659
21
504.385037
31
0.0
0
LINE
8
VISIBLE
10
791.593808
20
505.997267
30
0.0
11
789.438909
21
504.753135
31
0.0
0
LINE
8
VISIBLE
10
790.860058
20
506.476430
30
0.0
11
788.705159
21
505.232298
31
0.0
0
LINE
8
VISIBLE
10
790.138863
20
507.058459
30
0.0
11
787.983964
21
505.814328
31
0.0
0
LINE
8
VISIBLE
10
789.442562
20
507.733396
30
0.0
11
787.287663
21
506.489265
31
0.0
0
LINE
8
VISIBLE
10
788.783070
20
508.489692
30
0.0
11
786.628171
21
507.245561
31
0.0
0
LINE
8
VISIBLE
10
788.171670
20
509.314407
30
0.0
11
786.016771
21
508.070276
31
0.0
0
LINE
8
VISIBLE
10
787.618824
20
510.193430
30
0.0
11
785.463925
21
508.949299
31
0.0
0
LINE
8
VISIBLE
10
787.133991
20
511.111720
30
0.0
11
784.979092
21
509.867589
31
0.0
0
LINE
8
VISIBLE
10
786.725467
20
512.053565
30
0.0
11
784.570568
21
510.809434
31
0.0
0
LINE
8
VISIBLE
10
786.400241
20
513.002851
30
0.0
11
784.245342
21
511.758719
31
0.0
0
LINE
8
VISIBLE
10
786.163879
20
513.943333
30
0.0
11
784.008980
21
512.699202
31
0.0
0
LINE
8
VISIBLE
10
786.020424
20
514.858921
30
0.0
11
783.865525
21
513.614790
31
0.0
0
LINE
8
VISIBLE
10
780.069782
20
546.645752
30
0.0
11
779.179715
21
546.131871
31
0.0
0
LINE
8
VISIBLE
10
783.630050
20
542.185269
30
0.0
11
782.505755
21
541.536157
31
0.0
0
LINE
8
VISIBLE
10
797.911410
20
554.773177
30
0.0
11
795.850202
21
553.583138
31
0.0
0
LINE
8
VISIBLE
10
787.618488
20
567.191774
30
0.0
11
785.754031
21
566.115330
31
0.0
0
LINE
8
VISIBLE
10
789.960769
20
559.363482
30
0.0
11
785.754031
21
556.934720
31
0.0
0
LINE
8
VISIBLE
10
793.936090
20
562.524117
30
0.0
11
791.125352
21
560.901336
31
0.0
0
LINE
8
VISIBLE
10
785.754031
20
564.925291
30
0.0
11
785.739825
21
564.917089
31
0.0
0
LINE
8
VISIBLE
10
785.754031
20
555.744681
30
0.0
11
785.739825
21
555.736479
31
0.0
0
LINE
8
VISIBLE
10
794.591929
20
517.194451
30
0.0
11
792.015419
21
515.706903
31
0.0
0
LINE
8
VISIBLE
10
797.904415
20
508.481959
30
0.0
11
794.906295
21
506.750993
31
0.0
0
LINE
8
VISIBLE
10
791.279442
20
519.956749
30
0.0
11
788.281321
21
518.225783
31
0.0
0
LINE
8
CENTER
10
349.756325
20
413.215000
30
0.0
11
361.156325
21
413.215000
31
0.0
0
LINE
8
CENTER
10
363.556325
20
413.215000
30
0.0
11
374.956325
21
413.215000
31
0.0
0
LINE
8
CENTER
10
362.356325
20
400.615000
30
0.0
11
362.356325
21
412.015000
31
0.0
0
LINE
8
CENTER
10
362.356325
20
414.415000
30
0.0
11
362.356325
21
425.815000
31
0.0
0
LINE
8
CENTER
10
392.186325
20
413.215000
30
0.0
11
403.586325
21
413.215000
31
0.0
0
LINE
8
CENTER
10
405.986325
20
413.215000
30
0.0
11
417.386325
21
413.215000
31
0.0
0
LINE
8
CENTER
10
404.786325
20
400.615000
30
0.0
11
404.786325
21
412.015000
31
0.0
0
LINE
8
CENTER
10
404.786325
20
414.415000
30
0.0
11
404.786325
21
425.815000
31
0.0
0
LINE
8
CENTER
10
366.971325
20
392.000000
30
0.0
11
382.371325
21
392.000000
31
0.0
0
LINE
8
CENTER
10
384.771325
20
392.000000
30
0.0
11
400.171325
21
392.000000
31
0.0
0
LINE
8
CENTER
10
383.571325
20
375.400000
30
0.0
11
383.571325
21
390.800000
31
0.0
0
LINE
8
CENTER
10
383.571325
20
393.200000
30
0.0
11
383.571325
21
408.600000
31
0.0
0
LINE
8
CENTER
10
349.756325
20
370.785000
30
0.0
11
361.156325
21
370.785000
31
0.0
0
LINE
8
CENTER
10
363.556325
20
370.785000
30
0.0
11
374.956325
21
370.785000
31
0.0
0
LINE
8
CENTER
10
362.356325
20
358.185000
30
0.0
11
362.356325
21
369.585000
31
0.0
0
LINE
8
CENTER
10
362.356325
20
371.985000
30
0.0
11
362.356325
21
383.385000
31
0.0
0
LINE
8
CENTER
10
392.186325
20
370.785000
30
0.0
11
403.586325
21
370.785000
31
0.0
0
LINE
8
CENTER
10
405.986325
20
370.785000
30
0.0
11
417.386325
21
370.785000
31
0.0
0
LINE
8
CENTER
10
404.786325
20
358.185000
30
0.0
11
404.786325
21
369.585000
31
0.0
0
LINE
8
CENTER
10
404.786325
20
371.985000
30
0.0
11
404.786325
21
383.385000
31
0.0
0
LINE
8
CENTER
10
329.871325
20
294.500000
30
0.0
11
342.371325
21
294.500000
31
0.0
0
LINE
8
CENTER
10
344.771325
20
294.500000
30
0.0
11
357.271325
21
294.500000
31
0.0
0
LINE
8
CENTER
10
343.571325
20
280.800000
30
0.0
11
343.571325
21
293.300000
31
0.0
0
LINE
8
CENTER
10
343.571325
20
295.700000
30
0.0
11
343.571325
21
308.200000
31
0.0
0
LINE
8
CENTER
10
409.871325
20
294.500000
30
0.0
11
422.371325
21
294.500000
31
0.0
0
LINE
8
CENTER
10
424.771325
20
294.500000
30
0.0
11
437.271325
21
294.500000
31
0.0
0
LINE
8
CENTER
10
423.571325
20
280.800000
30
0.0
11
423.571325
21
293.300000
31
0.0
0
LINE
8
CENTER
10
423.571325
20
295.700000
30
0.0
11
423.571325
21
308.200000
31
0.0
0
LINE
8
CENTER
10
368.221325
20
182.000000
30
0.0
11
382.371325
21
182.000000
31
0.0
0
LINE
8
CENTER
10
384.771325
20
182.000000
30
0.0
11
398.921325
21
182.000000
31
0.0
0
LINE
8
CENTER
10
383.571325
20
166.650000
30
0.0
11
383.571325
21
180.800000
31
0.0
0
LINE
8
CENTER
10
383.571325
20
183.200000
30
0.0
11
383.571325
21
197.350000
31
0.0
0
LINE
8
DIM
10
333.571325
20
150.800000
30
0.0
11
333.571325
21
129.000000
31
0.0
0
LINE
8
DIM
10
433.571325
20
150.800000
30
0.0
11
433.571325
21
129.000000
31
0.0
0
LINE
8
DIM
10
333.571325
20
131.000000
30
0.0
11
433.571325
21
131.000000
31
0.0
0
SOLID
8
DIM
10
333.571325
20
131.000000
30
0.0
11
336.771325
21
130.392000
31
0.0
12
336.771325
22
131.608000
32
0.0
13
336.771325
23
131.608000
33
0.0
0
SOLID
8
DIM
10
433.571325
20
131.000000
30
0.0
11
430.371325
21
131.608000
31
0.0
12
430.371325
22
130.392000
32
0.0
13
430.371325
23
130.392000
33
0.0
0
TEXT
8
TEXT
10
383.571325
20
132.000000
30
0.0
40
2.5000
1
20.00
72
1
73
0
11
383.571325
21
132.000000
31
0.0
0
LINE
8
DIM
10
332.371325
20
152.000000
30
0.0
11
310.571325
21
152.000000
31
0.0
0
LINE
8
DIM
10
332.371325
20
442.000000
30
0.0
11
310.571325
21
442.000000
31
0.0
0
LINE
8
DIM
10
312.571325
20
152.000000
30
0.0
11
312.571325
21
442.000000
31
0.0
0
SOLID
8
DIM
10
312.571325
20
152.000000
30
0.0
11
313.179325
21
155.200000
31
0.0
12
311.963325
22
155.200000
32
0.0
13
311.963325
23
155.200000
33
0.0
0
SOLID
8
DIM
10
312.571325
20
442.000000
30
0.0
11
311.963325
21
438.800000
31
0.0
12
313.179325
22
438.800000
32
0.0
13
313.179325
23
438.800000
33
0.0
0
TEXT
8
TEXT
10
311.571325
20
297.000000
30
0.0
40
2.5000
1
58.00
50
90.0000
72
1
73
0
11
311.571325
21
297.000000
31
0.0
0
SOLID
8
DIM
10
369.128601
20
421.883118
30
0.0
11
371.577828
21
424.030431
31
0.0
12
370.619607
22
424.779075
32
0.0
13
370.619607
23
424.779075
33
0.0
0
LINE
8
DIM
10
369.128601
20
421.883118
30
0.0
11
398.127487
21
459.000000
31
0.0
0
LINE
8
DIM
10
398.127487
20
459.000000
30
0.0
11
403.127487
21
459.000000
31
0.0
0
TEXT
8
TEXT
10
403.927487
20
463.625000
30
0.0
40
2.5000
1
4x Ø2.20 THRU
0
TEXT
8
TEXT
10
403.927487
20
460.000000
30
0.0
40
2.5000
1
C'BORE Ø4.40x4.49 +X
0
SOLID
8
DIM
10
350.276526
20
304.572253
30
0.0
11
352.555912
21
306.899067
31
0.0
12
351.543693
22
307.572912
32
0.0
13
351.543693
23
307.572912
33
0.0
0
LINE
8
DIM
10
350.276526
20
304.572253
30
0.0
11
459.571325
21
468.750000
31
0.0
0
LINE
8
DIM
10
459.571325
20
468.750000
30
0.0
11
464.571325
21
468.750000
31
0.0
0
TEXT
8
TEXT
10
465.371325
20
473.375000
30
0.0
40
2.5000
1
2x Ø2.40 THRU
0
TEXT
8
TEXT
10
465.371325
20
469.750000
30
0.0
40
2.5000
1
C'BORE Ø4.84x3.00 +X
0
SOLID
8
DIM
10
392.806247
20
403.820161
30
0.0
11
395.255474
21
405.967474
31
0.0
12
394.297253
22
406.716118
32
0.0
13
394.297253
23
406.716118
33
0.0
0
LINE
8
DIM
10
392.806247
20
403.820161
30
0.0
11
451.152532
21
478.500000
31
0.0
0
LINE
8
DIM
10
451.152532
20
478.500000
30
0.0
11
456.152532
21
478.500000
31
0.0
0
TEXT
8
TEXT
10
456.952532
20
479.500000
30
0.0
40
2.5000
1
Ø6.00 THRU
0
SOLID
8
DIM
10
386.920445
20
195.335887
30
0.0
11
388.289565
21
198.291420
31
0.0
12
387.110188
22
198.587604
32
0.0
13
387.110188
23
198.587604
33
0.0
0
LINE
8
DIM
10
386.920445
20
195.335887
30
0.0
11
459.571325
21
484.625000
31
0.0
0
LINE
8
DIM
10
459.571325
20
484.625000
30
0.0
11
464.571325
21
484.625000
31
0.0
0
TEXT
8
TEXT
10
465.371325
20
489.250000
30
0.0
40
2.5000
1
Ø2.70 THRU
0
TEXT
8
TEXT
10
465.371325
20
485.625000
30
0.0
40
2.5000
1
C'BORE Ø5.50x3.49 -X
0
SOLID
8
DIM
10
383.571325
20
352.250000
30
0.0
11
384.179325
21
355.450000
31
0.0
12
382.963325
22
355.450000
32
0.0
13
382.963325
23
355.450000
33
0.0
0
LINE
8
DIM
10
383.571325
20
352.250000
30
0.0
11
383.571325
21
362.250000
31
0.0
0
LINE
8
DIM
10
383.571325
20
362.250000
30
0.0
11
380.571325
21
362.250000
31
0.0
0
TEXT
8
TEXT
10
379.771325
20
363.250000
30
0.0
40
2.5000
1
R7.95
72
2
73
0
11
379.771325
21
363.250000
31
0.0
0
SOLID
8
DIM
10
383.571325
20
157.000000
30
0.0
11
382.963325
21
153.800000
31
0.0
12
384.179325
22
153.800000
32
0.0
13
384.179325
23
153.800000
33
0.0
0
LINE
8
DIM
10
383.571325
20
157.000000
30
0.0
11
383.571325
21
147.000000
31
0.0
0
LINE
8
DIM
10
383.571325
20
147.000000
30
0.0
11
380.571325
21
147.000000
31
0.0
0
TEXT
8
TEXT
10
379.771325
20
148.000000
30
0.0
40
2.5000
1
R5.00
72
2
73
0
11
379.771325
21
148.000000
31
0.0
0
SOLID
8
DIM
10
383.571325
20
162.000000
30
0.0
11
382.963325
21
158.800000
31
0.0
12
384.179325
22
158.800000
32
0.0
13
384.179325
23
158.800000
33
0.0
0
LINE
8
DIM
10
383.571325
20
162.000000
30
0.0
11
383.571325
21
152.000000
31
0.0
0
LINE
8
DIM
10
383.571325
20
152.000000
30
0.0
11
380.571325
21
152.000000
31
0.0
0
TEXT
8
TEXT
10
379.771325
20
153.000000
30
0.0
40
2.5000
1
R4.00
72
2
73
0
11
379.771325
21
153.000000
31
0.0
0
SOLID
8
DIM
10
383.571325
20
377.000000
30
0.0
11
384.179325
21
380.200000
31
0.0
12
382.963325
22
380.200000
32
0.0
13
382.963325
23
380.200000
33
0.0
0
LINE
8
DIM
10
383.571325
20
377.000000
30
0.0
11
383.571325
21
387.000000
31
0.0
0
LINE
8
DIM
10
383.571325
20
387.000000
30
0.0
11
380.571325
21
387.000000
31
0.0
0
TEXT
8
TEXT
10
379.771325
20
388.000000
30
0.0
40
2.5000
1
R3.00
72
2
73
0
11
379.771325
21
388.000000
31
0.0
0
SOLID
8
DIM
10
383.571325
20
168.250000
30
0.0
11
382.963325
21
165.050000
31
0.0
12
384.179325
22
165.050000
32
0.0
13
384.179325
23
165.050000
33
0.0
0
LINE
8
DIM
10
383.571325
20
168.250000
30
0.0
11
383.571325
21
158.250000
31
0.0
0
LINE
8
DIM
10
383.571325
20
158.250000
30
0.0
11
380.571325
21
158.250000
31
0.0
0
TEXT
8
TEXT
10
379.771325
20
159.250000
30
0.0
40
2.5000
1
R2.75
72
2
73
0
11
379.771325
21
159.250000
31
0.0
0
SOLID
8
DIM
10
383.571325
20
169.700000
30
0.0
11
384.372668
21
166.542863
31
0.0
12
385.474739
22
167.056767
32
0.0
13
385.474739
23
167.056767
33
0.0
0
LINE
8
DIM
10
383.571325
20
169.700000
30
0.0
11
387.797508
21
160.636922
31
0.0
0
LINE
8
DIM
10
387.797508
20
160.636922
30
0.0
11
390.797508
21
160.636922
31
0.0
0
TEXT
8
TEXT
10
391.597508
20
161.636922
30
0.0
40
2.5000
1
R2.46
0
SOLID
8
DIM
10
337.915404
20
305.196754
30
0.0
11
334.873200
21
306.360652
31
0.0
12
334.658323
22
305.163788
32
0.0
13
334.658323
23
305.163788
33
0.0
0
LINE
8
DIM
10
337.915404
20
305.196754
30
0.0
11
328.072771
21
306.963834
31
0.0
0
LINE
8
DIM
10
328.072771
20
306.963834
30
0.0
11
325.072771
21
306.963834
31
0.0
0
TEXT
8
TEXT
10
324.272771
20
307.963834
30
0.0
40
2.5000
1
R2.42
72
2
73
0
11
324.272771
21
307.963834
31
0.0
0
SOLID
8
DIM
10
399.120337
20
422.643498
30
0.0
11
398.712814
21
425.875152
31
0.0
12
397.555970
22
425.500493
32
0.0
13
397.555970
23
425.500493
33
0.0
0
LINE
8
DIM
10
399.120337
20
422.643498
30
0.0
11
396.039259
21
432.157013
31
0.0
0
LINE
8
DIM
10
396.039259
20
432.157013
30
0.0
11
393.039259
21
432.157013
31
0.0
0
TEXT
8
TEXT
10
392.239259
20
433.157013
30
0.0
40
2.5000
1
R2.20
72
2
73
0
11
392.239259
21
433.157013
31
0.0
0
SOLID
8
DIM
10
383.571325
20
175.250000
30
0.0
11
382.963325
21
172.050000
31
0.0
12
384.179325
22
172.050000
32
0.0
13
384.179325
23
172.050000
33
0.0
0
LINE
8
DIM
10
383.571325
20
175.250000
30
0.0
11
383.571325
21
165.250000
31
0.0
0
LINE
8
DIM
10
383.571325
20
165.250000
30
0.0
11
380.571325
21
165.250000
31
0.0
0
TEXT
8
TEXT
10
379.771325
20
166.250000
30
0.0
40
2.5000
1
R1.35
72
2
73
0
11
379.771325
21
166.250000
31
0.0
0
SOLID
8
DIM
10
429.571325
20
294.500000
30
0.0
11
432.733615
21
293.719239
31
0.0
12
432.799604
22
294.933447
32
0.0
13
432.799604
23
294.933447
33
0.0
0
LINE
8
DIM
10
429.571325
20
294.500000
30
0.0
11
439.556589
21
293.957323
31
0.0
0
LINE
8
DIM
10
439.556589
20
293.957323
30
0.0
11
442.556589
21
293.957323
31
0.0
0
TEXT
8
TEXT
10
443.356589
20
294.957323
30
0.0
40
2.5000
1
R1.20
0
SOLID
8
DIM
10
362.356325
20
407.715000
30
0.0
11
362.351239
21
410.972244
31
0.0
12
361.156967
22
410.743400
32
0.0
13
361.156967
23
410.743400
33
0.0
0
LINE
8
DIM
10
362.356325
20
407.715000
30
0.0
11
360.474382
21
417.536318
31
0.0
0
LINE
8
DIM
10
360.474382
20
417.536318
30
0.0
11
357.474382
21
417.536318
31
0.0
0
TEXT
8
TEXT
10
356.674382
20
418.536318
30
0.0
40
2.5000
1
R1.10
72
2
73
0
11
356.674382
21
418.536318
31
0.0
0
LINE
8
DIM
10
382.371325
20
182.000000
30
0.0
11
303.571325
21
182.000000
31
0.0
0
LINE
8
DIM
10
382.371325
20
392.000000
30
0.0
11
303.571325
21
392.000000
31
0.0
0
LINE
8
DIM
10
305.571325
20
182.000000
30
0.0
11
305.571325
21
392.000000
31
0.0
0
SOLID
8
DIM
10
305.571325
20
182.000000
30
0.0
11
306.179325
21
185.200000
31
0.0
12
304.963325
22
185.200000
32
0.0
13
304.963325
23
185.200000
33
0.0
0
SOLID
8
DIM
10
305.571325
20
392.000000
30
0.0
11
304.963325
21
388.800000
31
0.0
12
306.179325
22
388.800000
32
0.0
13
306.179325
23
388.800000
33
0.0
0
TEXT
8
TEXT
10
304.571325
20
287.000000
30
0.0
40
2.5000
1
42.00
50
90.0000
72
1
73
0
11
304.571325
21
287.000000
31
0.0
0
TEXT
8
TEXT
10
383.571325
20
119.000000
30
0.0
40
4.0000
1
RIGHT VIEW
72
1
73
0
11
383.571325
21
119.000000
31
0.0
0
LINE
8
TEXT
10
371.571325
20
117.400000
30
0.0
11
395.571325
21
117.400000
31
0.0
0
TEXT
8
TEXT
10
383.571325
20
113.000000
30
0.0
40
2.4000
1
-Y →   Z ↑
72
1
73
0
11
383.571325
21
113.000000
31
0.0
0
LINE
8
DIM
10
247.821325
20
150.800000
30
0.0
11
247.821325
21
138.000000
31
0.0
0
LINE
8
DIM
10
287.571325
20
150.800000
30
0.0
11
287.571325
21
138.000000
31
0.0
0
LINE
8
DIM
10
247.821325
20
140.000000
30
0.0
11
287.571325
21
140.000000
31
0.0
0
SOLID
8
DIM
10
247.821325
20
140.000000
30
0.0
11
251.021325
21
139.392000
31
0.0
12
251.021325
22
140.608000
32
0.0
13
251.021325
23
140.608000
33
0.0
0
SOLID
8
DIM
10
287.571325
20
140.000000
30
0.0
11
284.371325
21
140.608000
31
0.0
12
284.371325
22
139.392000
32
0.0
13
284.371325
23
139.392000
33
0.0
0
TEXT
8
TEXT
10
267.696325
20
141.000000
30
0.0
40
2.5000
1
7.95
72
1
73
0
11
267.696325
21
141.000000
31
0.0
0
LINE
8
DIM
10
246.621325
20
152.000000
30
0.0
11
233.821325
21
152.000000
31
0.0
0
LINE
8
DIM
10
246.621325
20
442.000000
30
0.0
11
233.821325
21
442.000000
31
0.0
0
LINE
8
DIM
10
235.821325
20
152.000000
30
0.0
11
235.821325
21
442.000000
31
0.0
0
SOLID
8
DIM
10
235.821325
20
152.000000
30
0.0
11
236.429325
21
155.200000
31
0.0
12
235.213325
22
155.200000
32
0.0
13
235.213325
23
155.200000
33
0.0
0
SOLID
8
DIM
10
235.821325
20
442.000000
30
0.0
11
235.213325
21
438.800000
31
0.0
12
236.429325
22
438.800000
32
0.0
13
236.429325
23
438.800000
33
0.0
0
TEXT
8
TEXT
10
234.821325
20
297.000000
30
0.0
40
2.5000
1
58.00
50
90.0000
72
1
73
0
11
234.821325
21
297.000000
31
0.0
0
TEXT
8
TEXT
10
267.696325
20
128.000000
30
0.0
40
4.0000
1
FRONT VIEW
72
1
73
0
11
267.696325
21
128.000000
31
0.0
0
LINE
8
TEXT
10
255.696325
20
126.400000
30
0.0
11
279.696325
21
126.400000
31
0.0
0
TEXT
8
TEXT
10
267.696325
20
122.000000
30
0.0
40
2.4000
1
-X →   Z ↑
72
1
73
0
11
267.696325
21
122.000000
31
0.0
0
LINE
8
DIM
10
471.571325
20
157.610510
30
0.0
11
471.571325
21
144.810510
31
0.0
0
LINE
8
DIM
10
511.321325
20
157.610510
30
0.0
11
511.321325
21
144.810510
31
0.0
0
LINE
8
DIM
10
471.571325
20
146.810510
30
0.0
11
511.321325
21
146.810510
31
0.0
0
SOLID
8
DIM
10
471.571325
20
146.810510
30
0.0
11
474.771325
21
146.202510
31
0.0
12
474.771325
22
147.418510
32
0.0
13
474.771325
23
147.418510
33
0.0
0
SOLID
8
DIM
10
511.321325
20
146.810510
30
0.0
11
508.121325
21
147.418510
31
0.0
12
508.121325
22
146.202510
32
0.0
13
508.121325
23
146.202510
33
0.0
0
TEXT
8
TEXT
10
491.446325
20
147.810510
30
0.0
40
2.5000
1
7.95
72
1
73
0
11
491.446325
21
147.810510
31
0.0
0
LINE
8
DIM
10
470.371325
20
158.810510
30
0.0
11
457.571325
21
158.810510
31
0.0
0
LINE
8
DIM
10
470.371325
20
435.189490
30
0.0
11
457.571325
21
435.189490
31
0.0
0
LINE
8
DIM
10
459.571325
20
158.810510
30
0.0
11
459.571325
21
435.189490
31
0.0
0
SOLID
8
DIM
10
459.571325
20
158.810510
30
0.0
11
460.179325
21
162.010510
31
0.0
12
458.963325
22
162.010510
32
0.0
13
458.963325
23
162.010510
33
0.0
0
SOLID
8
DIM
10
459.571325
20
435.189490
30
0.0
11
458.963325
21
431.989490
31
0.0
12
460.179325
22
431.989490
32
0.0
13
460.179325
23
431.989490
33
0.0
0
TEXT
8
TEXT
10
458.571325
20
297.000000
30
0.0
40
2.5000
1
55.28
50
90.0000
72
1
73
0
11
458.571325
21
297.000000
31
0.0
0
LINE
8
HATCH
10
495.321318
20
422.236665
30
0.0
11
495.321325
21
422.236672
31
0.0
0
LINE
8
HATCH
10
491.078677
20
422.236665
30
0.0
11
495.321325
21
426.479312
31
0.0
0
LINE
8
HATCH
10
481.336037
20
416.736665
30
0.0
11
485.371325
21
420.771953
31
0.0
0
LINE
8
HATCH
10
486.836037
20
422.236665
30
0.0
11
495.321325
21
430.721953
31
0.0
0
LINE
8
HATCH
10
477.093396
20
416.736665
30
0.0
11
495.321325
21
434.964594
31
0.0
0
LINE
8
HATCH
10
472.850755
20
416.736665
30
0.0
11
479.751024
21
423.636933
31
0.0
0
LINE
8
HATCH
10
481.321325
20
425.207234
30
0.0
11
491.303581
21
435.189490
31
0.0
0
LINE
8
HATCH
10
471.571325
20
419.699875
30
0.0
11
475.508383
21
423.636933
31
0.0
0
LINE
8
HATCH
10
481.321325
20
429.449875
30
0.0
11
487.060940
21
435.189490
31
0.0
0
LINE
8
HATCH
10
481.321325
20
433.692516
30
0.0
11
482.818299
21
435.189490
31
0.0
0
LINE
8
HATCH
10
511.321318
20
166.795789
30
0.0
11
511.321325
21
166.795796
31
0.0
0
LINE
8
HATCH
10
507.078677
20
166.795789
30
0.0
11
511.321325
21
171.038437
31
0.0
0
LINE
8
HATCH
10
494.850757
20
158.810510
30
0.0
11
495.321325
21
159.281078
31
0.0
0
LINE
8
HATCH
10
502.836037
20
166.795789
30
0.0
11
511.321325
21
175.281078
31
0.0
0
LINE
8
HATCH
10
490.608116
20
158.810510
30
0.0
11
495.321325
21
163.523719
31
0.0
0
LINE
8
HATCH
10
498.593396
20
166.795789
30
0.0
11
511.321325
21
179.523719
31
0.0
0
LINE
8
HATCH
10
486.365475
20
158.810510
30
0.0
11
511.321325
21
183.766359
31
0.0
0
LINE
8
HATCH
10
483.821325
20
160.509000
30
0.0
11
511.321325
21
188.009000
31
0.0
0
LINE
8
HATCH
10
483.821325
20
164.751641
30
0.0
11
511.321325
21
192.251641
31
0.0
0
LINE
8
HATCH
10
481.622833
20
166.795789
30
0.0
11
508.074583
21
193.247540
31
0.0
0
LINE
8
HATCH
10
481.321325
20
170.736922
30
0.0
11
503.831943
21
193.247540
31
0.0
0
LINE
8
HATCH
10
481.321325
20
174.979563
30
0.0
11
499.589302
21
193.247540
31
0.0
0
LINE
8
HATCH
10
481.321325
20
179.222203
30
0.0
11
495.346661
21
193.247540
31
0.0
0
LINE
8
HATCH
10
481.321325
20
183.464844
30
0.0
11
495.321325
21
197.464844
31
0.0
0
LINE
8
HATCH
10
481.321325
20
187.707485
30
0.0
11
495.321325
21
201.707485
31
0.0
0
LINE
8
HATCH
10
481.321325
20
191.950125
30
0.0
11
482.618739
21
193.247540
31
0.0
0
LINE
8
HATCH
10
483.821325
20
194.450125
30
0.0
11
495.321325
21
205.950125
31
0.0
0
LINE
8
HATCH
10
483.821325
20
198.692766
30
0.0
11
495.321325
21
210.192766
31
0.0
0
LINE
8
HATCH
10
483.821325
20
202.935407
30
0.0
11
495.321325
21
214.435407
31
0.0
0
LINE
8
HATCH
10
483.821325
20
207.178047
30
0.0
11
495.321325
21
218.678047
31
0.0
0
LINE
8
HATCH
10
483.821325
20
211.420688
30
0.0
11
495.321325
21
222.920688
31
0.0
0
LINE
8
HATCH
10
483.821325
20
215.663329
30
0.0
11
495.321325
21
227.163329
31
0.0
0
LINE
8
HATCH
10
483.821325
20
219.905970
30
0.0
11
495.321325
21
231.405970
31
0.0
0
LINE
8
HATCH
10
483.821325
20
224.148610
30
0.0
11
495.321325
21
235.648610
31
0.0
0
LINE
8
HATCH
10
504.283573
20
244.610858
30
0.0
11
507.821325
21
248.148610
31
0.0
0
LINE
8
HATCH
10
483.821325
20
228.391251
30
0.0
11
495.321325
21
239.891251
31
0.0
0
LINE
8
HATCH
10
500.040932
20
244.610858
30
0.0
11
507.821325
21
252.391251
31
0.0
0
LINE
8
HATCH
10
483.821325
20
232.633892
30
0.0
11
495.321325
21
244.133892
31
0.0
0
LINE
8
HATCH
10
495.798291
20
244.610858
30
0.0
11
507.821325
21
256.633892
31
0.0
0
LINE
8
HATCH
10
483.821325
20
236.876532
30
0.0
11
507.821325
21
260.876532
31
0.0
0
LINE
8
HATCH
10
483.821325
20
241.119173
30
0.0
11
507.821325
21
265.119173
31
0.0
0
LINE
8
HATCH
10
483.821325
20
245.361814
30
0.0
11
507.821325
21
269.361814
31
0.0
0
LINE
8
HATCH
10
483.821325
20
249.604454
30
0.0
11
507.821325
21
273.604454
31
0.0
0
LINE
8
HATCH
10
483.821325
20
253.847095
30
0.0
11
507.821325
21
277.847095
31
0.0
0
LINE
8
HATCH
10
483.821325
20
258.089736
30
0.0
11
507.821325
21
282.089736
31
0.0
0
LINE
8
HATCH
10
483.821325
20
262.332376
30
0.0
11
507.821325
21
286.332376
31
0.0
0
LINE
8
HATCH
10
483.821325
20
266.575017
30
0.0
11
507.821325
21
290.575017
31
0.0
0
LINE
8
HATCH
10
483.821325
20
270.817658
30
0.0
11
507.821325
21
294.817658
31
0.0
0
LINE
8
HATCH
10
483.821325
20
275.060298
30
0.0
11
507.821325
21
299.060298
31
0.0
0
LINE
8
HATCH
10
483.821325
20
279.302939
30
0.0
11
507.821325
21
303.302939
31
0.0
0
LINE
8
HATCH
10
483.821325
20
283.545580
30
0.0
11
507.821325
21
307.545580
31
0.0
0
LINE
8
HATCH
10
483.821325
20
287.788221
30
0.0
11
507.821325
21
311.788221
31
0.0
0
LINE
8
HATCH
10
483.821325
20
292.030861
30
0.0
11
507.821325
21
316.030861
31
0.0
0
LINE
8
HATCH
10
483.821325
20
296.273502
30
0.0
11
507.821325
21
320.273502
31
0.0
0
LINE
8
HATCH
10
481.941847
20
298.636665
30
0.0
11
507.821325
21
324.516143
31
0.0
0
LINE
8
HATCH
10
477.699206
20
298.636665
30
0.0
11
507.821325
21
328.758783
31
0.0
0
LINE
8
HATCH
10
473.456566
20
298.636665
30
0.0
11
507.821325
21
333.001424
31
0.0
0
LINE
8
HATCH
10
471.571325
20
300.994065
30
0.0
11
507.821325
21
337.244065
31
0.0
0
LINE
8
HATCH
10
471.571325
20
305.236705
30
0.0
11
507.821325
21
341.486705
31
0.0
0
LINE
8
HATCH
10
471.571325
20
309.479346
30
0.0
11
507.821325
21
345.729346
31
0.0
0
LINE
8
HATCH
10
471.571325
20
313.721987
30
0.0
11
507.821325
21
349.971987
31
0.0
0
LINE
8
HATCH
10
471.571325
20
317.964627
30
0.0
11
479.743362
21
326.136665
31
0.0
0
LINE
8
HATCH
10
483.821325
20
330.214627
30
0.0
11
507.821325
21
354.214627
31
0.0
0
LINE
8
HATCH
10
471.571325
20
322.207268
30
0.0
11
475.500721
21
326.136665
31
0.0
0
LINE
8
HATCH
10
483.821325
20
334.457268
30
0.0
11
507.170721
21
357.806665
31
0.0
0
LINE
8
HATCH
10
483.821325
20
338.699909
30
0.0
11
502.928081
21
357.806665
31
0.0
0
LINE
8
HATCH
10
483.821325
20
342.942549
30
0.0
11
498.685440
21
357.806665
31
0.0
0
LINE
8
HATCH
10
481.321325
20
344.685190
30
0.0
11
494.442799
21
357.806665
31
0.0
0
LINE
8
HATCH
10
481.321325
20
348.927831
30
0.0
11
490.200159
21
357.806665
31
0.0
0
LINE
8
HATCH
10
481.321325
20
353.170472
30
0.0
11
485.957518
21
357.806665
31
0.0
0
LINE
8
HATCH
10
480.314609
20
356.406396
30
0.0
11
485.371325
21
361.463112
31
0.0
0
LINE
8
HATCH
10
476.071968
20
356.406396
30
0.0
11
482.972237
21
363.306665
31
0.0
0
LINE
8
HATCH
10
471.829328
20
356.406396
30
0.0
11
478.729596
21
363.306665
31
0.0
0
LINE
8
HATCH
10
471.571325
20
360.391034
30
0.0
11
474.486955
21
363.306665
31
0.0
0
LINE
8
HATCH
10
507.821318
20
379.806665
30
0.0
11
507.821325
21
379.806672
31
0.0
0
LINE
8
HATCH
10
503.578677
20
379.806665
30
0.0
11
507.821325
21
384.049312
31
0.0
0
LINE
8
HATCH
10
499.336037
20
379.806665
30
0.0
11
507.821325
21
388.291953
31
0.0
0
LINE
8
HATCH
10
495.093396
20
379.806665
30
0.0
11
507.821325
21
392.534594
31
0.0
0
LINE
8
HATCH
10
485.350755
20
374.306665
30
0.0
11
485.371325
21
374.327234
31
0.0
0
LINE
8
HATCH
10
490.850755
20
379.806665
30
0.0
11
507.821325
21
396.777234
31
0.0
0
LINE
8
HATCH
10
481.108114
20
374.306665
30
0.0
11
485.371325
21
378.569875
31
0.0
0
LINE
8
HATCH
10
486.608114
20
379.806665
30
0.0
11
507.038114
21
400.236665
31
0.0
0
LINE
8
HATCH
10
476.865474
20
374.306665
30
0.0
11
502.795474
21
400.236665
31
0.0
0
LINE
8
HATCH
10
472.622833
20
374.306665
30
0.0
11
498.552833
21
400.236665
31
0.0
0
LINE
8
HATCH
10
471.571325
20
377.497797
30
0.0
11
494.310192
21
400.236665
31
0.0
0
LINE
8
HATCH
10
471.571325
20
381.740438
30
0.0
11
490.067552
21
400.236665
31
0.0
0
LINE
8
HATCH
10
471.571325
20
385.983079
30
0.0
11
485.824911
21
400.236665
31
0.0
0
LINE
8
HATCH
10
471.571325
20
390.225719
30
0.0
11
485.371325
21
404.025719
31
0.0
0
LINE
8
HATCH
10
471.571325
20
394.468360
30
0.0
11
482.839630
21
405.736665
31
0.0
0
LINE
8
HATCH
10
471.571325
20
398.711001
30
0.0
11
478.596989
21
405.736665
31
0.0
0
LINE
8
HATCH
10
471.571325
20
402.953641
30
0.0
11
474.354348
21
405.736665
31
0.0
0
LINE
8
DIM
10
482.377578
20
416.736665
30
0.0
11
522.321325
21
416.736665
31
0.0
0
LINE
8
DIM
10
482.377578
20
423.636933
30
0.0
11
522.321325
21
423.636933
31
0.0
0
LINE
8
DIM
10
520.321325
20
416.736665
30
0.0
11
520.321325
21
423.636933
31
0.0
0
SOLID
8
DIM
10
520.321325
20
416.736665
30
0.0
11
519.713325
21
413.536665
31
0.0
12
520.929325
22
413.536665
32
0.0
13
520.929325
23
413.536665
33
0.0
0
SOLID
8
DIM
10
520.321325
20
423.636933
30
0.0
11
520.929325
21
426.836933
31
0.0
12
519.713325
22
426.836933
32
0.0
13
519.713325
23
426.836933
33
0.0
0
LINE
8
DIM
10
520.321325
20
423.636933
30
0.0
11
520.321325
21
433.236933
31
0.0
0
TEXT
8
TEXT
10
519.321325
20
434.036933
30
0.0
40
2.5000
1
1.38 WALL
50
90.0000
0
LINE
8
DIM
10
483.821325
20
162.313673
30
0.0
11
483.821325
21
458.189490
31
0.0
0
LINE
8
DIM
10
495.321325
20
162.313673
30
0.0
11
495.321325
21
458.189490
31
0.0
0
LINE
8
DIM
10
483.821325
20
456.189490
30
0.0
11
495.321325
21
456.189490
31
0.0
0
SOLID
8
DIM
10
483.821325
20
456.189490
30
0.0
11
480.621325
21
456.797490
31
0.0
12
480.621325
22
455.581490
32
0.0
13
480.621325
23
455.581490
33
0.0
0
SOLID
8
DIM
10
495.321325
20
456.189490
30
0.0
11
498.521325
21
455.581490
31
0.0
12
498.521325
22
456.797490
32
0.0
13
498.521325
23
456.797490
33
0.0
0
LINE
8
DIM
10
495.321325
20
456.189490
30
0.0
11
504.921325
21
456.189490
31
0.0
0
TEXT
8
TEXT
10
505.721325
20
456.589490
30
0.0
40
2.5000
1
2.30 WALL
0
TEXT
8
TEXT
10
491.446325
20
134.810510
30
0.0
40
4.0000
1
SECTION A-A
72
1
73
0
11
491.446325
21
134.810510
31
0.0
0
LINE
8
TEXT
10
478.246325
20
133.210510
30
0.0
11
504.646325
21
133.210510
31
0.0
0
TEXT
8
TEXT
10
790.071325
20
498.000000
30
0.0
40
4.0000
1
ISOMETRIC VIEW
72
1
73
0
11
790.071325
21
498.000000
31
0.0
0
LINE
8
TEXT
10
773.271325
20
496.400000
30
0.0
11
806.871325
21
496.400000
31
0.0
0
TEXT
8
TEXT
10
790.071325
20
492.000000
30
0.0
40
2.6000
1
7.95 x 20.00 x 58.00 mm
72
1
73
0
11
790.071325
21
492.000000
31
0.0
0
LINE
8
CUT
10
404.786325
20
143.000000
30
0.0
11
404.786325
21
157.000000
31
0.0
0
LINE
8
CUTTHIN
10
404.786325
20
157.000000
30
0.0
11
404.786325
21
437.000000
31
0.0
0
LINE
8
CUT
10
404.786325
20
437.000000
30
0.0
11
404.786325
21
451.000000
31
0.0
0
LINE
8
CUT
10
404.786325
20
143.000000
30
0.0
11
413.786325
21
143.000000
31
0.0
0
SOLID
8
CUT
10
413.786325
20
143.000000
30
0.0
11
409.586325
21
143.798000
31
0.0
12
409.586325
22
142.202000
32
0.0
13
409.586325
23
142.202000
33
0.0
0
TEXT
8
TEXT
10
399.786325
20
143.000000
30
0.0
40
4.0000
1
A
72
1
73
2
11
399.786325
21
143.000000
31
0.0
0
LINE
8
CUT
10
404.786325
20
451.000000
30
0.0
11
413.786325
21
451.000000
31
0.0
0
SOLID
8
CUT
10
413.786325
20
451.000000
30
0.0
11
409.586325
21
451.798000
31
0.0
12
409.586325
22
450.202000
32
0.0
13
409.586325
23
450.202000
33
0.0
0
TEXT
8
TEXT
10
399.786325
20
451.000000
30
0.0
40
4.0000
1
A
72
1
73
2
11
399.786325
21
451.000000
31
0.0
0
LINE
8
VISIBLE
10
761.071325
20
438.177778
30
0.0
11
819.071325
21
438.177778
31
0.0
0
LINE
8
VISIBLE
10
819.071325
20
438.177778
30
0.0
11
819.071325
21
482.000000
31
0.0
0
LINE
8
VISIBLE
10
819.071325
20
482.000000
30
0.0
11
761.071325
21
482.000000
31
0.0
0
LINE
8
VISIBLE
10
761.071325
20
482.000000
30
0.0
11
761.071325
21
438.177778
31
0.0
0
LINE
8
TITLE
10
761.071325
20
438.177778
30
0.0
11
819.071325
21
438.177778
31
0.0
0
LINE
8
TITLE
10
819.071325
20
438.177778
30
0.0
11
819.071325
21
482.000000
31
0.0
0
LINE
8
TITLE
10
819.071325
20
482.000000
30
0.0
11
761.071325
21
482.000000
31
0.0
0
LINE
8
TITLE
10
761.071325
20
482.000000
30
0.0
11
761.071325
21
438.177778
31
0.0
0
TEXT
8
TEXT
10
790.071325
20
435.577778
30
0.0
40
2.0000
1
REFERENCE RENDER (ISO2) — rendered off this solid,
72
1
73
0
11
790.071325
21
435.577778
31
0.0
0
TEXT
8
TEXT
10
790.071325
20
432.977778
30
0.0
40
2.0000
1
900 x 680 px
72
1
73
0
11
790.071325
21
432.977778
31
0.0
0
TEXT
8
TEXT
10
751.142650
20
425.677778
30
0.0
40
3.0000
1
HOLE TABLE — 8 POSITIONS
0
LINE
8
TITLE
10
751.142650
20
423.177778
30
0.0
11
813.662650
21
423.177778
31
0.0
0
TEXT
8
TITLE
10
752.642650
20
420.707778
30
0.0
40
2.2000
1
TAG
0
TEXT
8
TITLE
10
759.602650
20
420.707778
30
0.0
40
2.2000
1
SIZE
0
TEXT
8
TITLE
10
775.802650
20
420.707778
30
0.0
40
2.2000
1
Y
0
TEXT
8
TITLE
10
785.402650
20
420.707778
30
0.0
40
2.2000
1
Z
0
TEXT
8
TITLE
10
795.002650
20
420.707778
30
0.0
40
2.2000
1
C'BORE
0
LINE
8
TITLE
10
751.142650
20
419.107778
30
0.0
11
813.662650
21
419.107778
31
0.0
0
TEXT
8
TEXT
10
752.642650
20
416.637778
30
0.0
40
2.2000
1
A1
0
TEXT
8
TEXT
10
759.602650
20
416.637778
30
0.0
40
2.2000
1
Ø2.20 THRU
0
TEXT
8
TEXT
10
775.802650
20
416.637778
30
0.0
40
2.2000
1
26.24
0
TEXT
8
TEXT
10
785.402650
20
416.637778
30
0.0
40
2.2000
1
40.02
0
TEXT
8
TEXT
10
795.002650
20
416.637778
30
0.0
40
2.2000
1
Ø4.40x4.49 +X
0
TEXT
8
TEXT
10
752.642650
20
412.567778
30
0.0
40
2.2000
1
A2
0
TEXT
8
TEXT
10
759.602650
20
412.567778
30
0.0
40
2.2000
1
Ø2.20 THRU
0
TEXT
8
TEXT
10
775.802650
20
412.567778
30
0.0
40
2.2000
1
17.76
0
TEXT
8
TEXT
10
785.402650
20
412.567778
30
0.0
40
2.2000
1
40.02
0
TEXT
8
TEXT
10
795.002650
20
412.567778
30
0.0
40
2.2000
1
Ø4.40x4.49 +X
0
TEXT
8
TEXT
10
752.642650
20
408.497778
30
0.0
40
2.2000
1
A3
0
TEXT
8
TEXT
10
759.602650
20
408.497778
30
0.0
40
2.2000
1
Ø6.00 THRU
0
TEXT
8
TEXT
10
775.802650
20
408.497778
30
0.0
40
2.2000
1
22.00
0
TEXT
8
TEXT
10
785.402650
20
408.497778
30
0.0
40
2.2000
1
35.78
0
TEXT
8
TEXT
10
795.002650
20
408.497778
30
0.0
40
2.2000
1
-
0
TEXT
8
TEXT
10
752.642650
20
404.427778
30
0.0
40
2.2000
1
A4
0
TEXT
8
TEXT
10
759.602650
20
404.427778
30
0.0
40
2.2000
1
Ø2.20 THRU
0
TEXT
8
TEXT
10
775.802650
20
404.427778
30
0.0
40
2.2000
1
26.24
0
TEXT
8
TEXT
10
785.402650
20
404.427778
30
0.0
40
2.2000
1
31.53
0
TEXT
8
TEXT
10
795.002650
20
404.427778
30
0.0
40
2.2000
1
Ø4.40x4.49 +X
0
TEXT
8
TEXT
10
752.642650
20
400.357778
30
0.0
40
2.2000
1
A5
0
TEXT
8
TEXT
10
759.602650
20
400.357778
30
0.0
40
2.2000
1
Ø2.20 THRU
0
TEXT
8
TEXT
10
775.802650
20
400.357778
30
0.0
40
2.2000
1
17.76
0
TEXT
8
TEXT
10
785.402650
20
400.357778
30
0.0
40
2.2000
1
31.53
0
TEXT
8
TEXT
10
795.002650
20
400.357778
30
0.0
40
2.2000
1
Ø4.40x4.49 +X
0
TEXT
8
TEXT
10
752.642650
20
396.287778
30
0.0
40
2.2000
1
A6
0
TEXT
8
TEXT
10
759.602650
20
396.287778
30
0.0
40
2.2000
1
Ø2.40 THRU
0
TEXT
8
TEXT
10
775.802650
20
396.287778
30
0.0
40
2.2000
1
30.00
0
TEXT
8
TEXT
10
785.402650
20
396.287778
30
0.0
40
2.2000
1
16.28
0
TEXT
8
TEXT
10
795.002650
20
396.287778
30
0.0
40
2.2000
1
Ø4.84x3.00 +X
0
TEXT
8
TEXT
10
752.642650
20
392.217778
30
0.0
40
2.2000
1
A7
0
TEXT
8
TEXT
10
759.602650
20
392.217778
30
0.0
40
2.2000
1
Ø2.40 THRU
0
TEXT
8
TEXT
10
775.802650
20
392.217778
30
0.0
40
2.2000
1
14.00
0
TEXT
8
TEXT
10
785.402650
20
392.217778
30
0.0
40
2.2000
1
16.28
0
TEXT
8
TEXT
10
795.002650
20
392.217778
30
0.0
40
2.2000
1
Ø4.84x3.00 +X
0
TEXT
8
TEXT
10
752.642650
20
388.147778
30
0.0
40
2.2000
1
A8
0
TEXT
8
TEXT
10
759.602650
20
388.147778
30
0.0
40
2.2000
1
Ø2.70 THRU
0
TEXT
8
TEXT
10
775.802650
20
388.147778
30
0.0
40
2.2000
1
22.00
0
TEXT
8
TEXT
10
785.402650
20
388.147778
30
0.0
40
2.2000
1
-6.22
0
TEXT
8
TEXT
10
795.002650
20
388.147778
30
0.0
40
2.2000
1
Ø5.50x3.49 -X
0
LINE
8
TITLE
10
751.142650
20
386.547778
30
0.0
11
813.662650
21
386.547778
31
0.0
0
LINE
8
TITLE
10
758.102650
20
386.547778
30
0.0
11
758.102650
21
423.177778
31
0.0
0
LINE
8
TITLE
10
774.302650
20
386.547778
30
0.0
11
774.302650
21
423.177778
31
0.0
0
LINE
8
TITLE
10
783.902650
20
386.547778
30
0.0
11
783.902650
21
423.177778
31
0.0
0
LINE
8
TITLE
10
793.502650
20
386.547778
30
0.0
11
793.502650
21
423.177778
31
0.0
0
LINE
8
TITLE
10
813.662650
20
386.547778
30
0.0
11
813.662650
21
423.177778
31
0.0
0
LINE
8
TITLE
10
751.142650
20
386.547778
30
0.0
11
751.142650
21
423.177778
31
0.0
0
TEXT
8
TITLE
10
751.142650
20
382.547778
30
0.0
40
1.9660
1
every row measured off the solid; positions are model
0
TEXT
8
TITLE
10
751.142650
20
379.598721
30
0.0
40
1.9660
1
coordinates, mm. C'BORE side is the face it opens on.
0
TEXT
8
TEXT
10
751.142650
20
369.649665
30
0.0
40
3.0000
1
NOTES
0
TEXT
8
TEXT
10
751.142650
20
365.049665
30
0.0
40
2.4000
1
1. ALL DIMENSIONS IN mm AND DEGREES. EVERY DIMENSION
0
TEXT
8
TEXT
10
751.142650
20
361.329665
30
0.0
40
2.4000
1
   AND EVERY HOLE CALLOUT WAS MEASURED OFF THE
0
TEXT
8
TEXT
10
751.142650
20
357.609665
30
0.0
40
2.4000
1
   SOLID.
0
TEXT
8
TEXT
10
751.142650
20
353.889665
30
0.0
40
2.4000
1
2. PROCESS: FDM.
0
TEXT
8
TEXT
10
751.142650
20
350.169665
30
0.0
40
2.4000
1
3. THINNEST WALL, WHOLE SOLID: 0.0280 mm, AT
0
TEXT
8
TEXT
10
751.142650
20
346.449665
30
0.0
40
2.4000
1
   X=35.867 Y=31.977 Z=14.882 — MEASURED OVER THE
0
TEXT
8
TEXT
10
751.142650
20
342.729665
30
0.0
40
2.4000
1
   WHOLE SOLID BY RAY+EXACT AT 1.045 mm SAMPLE
0
TEXT
8
TEXT
10
751.142650
20
339.009665
30
0.0
40
2.4000
1
   SPACING (A FEATURE NARROWER THAN THAT CAN BE
0
TEXT
8
TEXT
10
751.142650
20
335.289665
30
0.0
40
2.4000
1
   MISSED). A RAY MINIMUM AT AN EDGE, A FILLET
0
TEXT
8
TEXT
10
751.142650
20
331.569665
30
0.0
40
2.4000
1
   RUN-OUT OR A CHAMFER TIP IS A REAL DISTANCE
0
TEXT
8
TEXT
10
751.142650
20
327.849665
30
0.0
40
2.4000
1
   THROUGH MATERIAL AND IS NOT A PRINTABLE WALL.
0
TEXT
8
TEXT
10
751.142650
20
324.129665
30
0.0
40
2.4000
1
4. GENERAL TOLERANCE CANNOT DETERMINE — SEE PRINT /
0
TEXT
8
TEXT
10
751.142650
20
320.409665
30
0.0
40
2.4000
1
   DFM NOTES UNLESS STATED.
0
TEXT
8
TEXT
10
751.142650
20
316.689665
30
0.0
40
2.4000
1
5. SECTION A-A AT Y=17.76: THINNEST MATERIAL IN THIS
0
TEXT
8
TEXT
10
751.142650
20
312.969665
30
0.0
40
2.4000
1
   PLANE ONLY 1.38 mm, AT X=38.53, Z=41.81 — A SCAN
0
TEXT
8
TEXT
10
751.142650
20
309.249665
30
0.0
40
2.4000
1
   OF ONE CUT, NOT THE PART MINIMUM.
0
TEXT
8
TEXT
10
751.142650
20
305.529665
30
0.0
40
2.4000
1
6. RIGHT VIEW: hidden lines KEPT: without them 94 of
0
TEXT
8
TEXT
10
751.142650
20
301.809665
30
0.0
40
2.4000
1
   826 edge samples have no ink within 0.35 mm
0
TEXT
8
TEXT
10
751.142650
20
298.089665
30
0.0
40
2.4000
1
   (worst 6.509 mm) and the feature would be missing
0
TEXT
8
TEXT
10
751.142650
20
294.369665
30
0.0
40
2.4000
1
   from the sheet.
0
TEXT
8
TEXT
10
751.142650
20
290.649665
30
0.0
40
2.4000
1
7. FRONT VIEW: hidden lines SUPPRESSED: all 867 edge
0
TEXT
8
TEXT
10
751.142650
20
286.929665
30
0.0
40
2.4000
1
   samples still land on drawn ink without them.
0
TEXT
8
TEXT
10
751.142650
20
279.209665
30
0.0
40
3.0000
1
PRINT / DFM
0
TEXT
8
TEXT
10
751.142650
20
274.609665
30
0.0
40
2.4000
1
1. ORIENTATION: upright, Z-up (8 x 20 x 58 mm)
0
TEXT
8
TEXT
10
751.142650
20
270.889665
30
0.0
40
2.4000
1
2. THINNEST WALL: 0.03 mm (floor 0.80 mm = 2
0
TEXT
8
TEXT
10
751.142650
20
267.169665
30
0.0
40
2.4000
1
   perimeters @ 0.4 mm nozzle)
0
TEXT
8
TEXT
10
751.142650
20
263.449665
30
0.0
40
2.4000
1
3. 15 horizontal bore(s) bridge at the crown: ream
0
TEXT
8
TEXT
10
751.142650
20
259.729665
30
0.0
40
2.4000
1
   any bearing or press-fit bore to size
0
TEXT
8
TEXT
10
751.142650
20
256.009665
30
0.0
40
2.4000
1
4. FILAMENT: PLA, ~4 g (modelled), 290 layers @ 0.2
0
TEXT
8
TEXT
10
751.142650
20
252.289665
30
0.0
40
2.4000
1
   mm
0
TEXT
8
TEXT
10
751.142650
20
248.569665
30
0.0
40
2.4000
1
5. TOLERANCE BASIS, IN-HOUSE: CANNOT DETERMINE.
0
TEXT
8
TEXT
10
751.142650
20
244.849665
30
0.0
40
2.4000
1
   Every Bambu on this farm records tolerance_mm:
0
TEXT
8
TEXT
10
751.142650
20
241.129665
30
0.0
40
2.4000
1
   null, cite "no coupon printed and measured on
0
TEXT
8
TEXT
10
751.142650
20
237.409665
30
0.0
40
2.4000
1
   this machine" (ce-machines/bambu-h2s-*,
0
TEXT
8
TEXT
10
751.142650
20
233.689665
30
0.0
40
2.4000
1
   bambu-h2d-*/capabilities.json, read 2026-09-02),
0
TEXT
8
TEXT
10
751.142650
20
229.969665
30
0.0
40
2.4000
1
   and Bambu Lab's own H2D Pro spec sheet carries no
0
TEXT
8
TEXT
10
751.142650
20
226.249665
30
0.0
40
2.4000
1
   dimensional-accuracy line. DIMENSIONS HERE ARE
0
TEXT
8
TEXT
10
751.142650
20
222.529665
30
0.0
40
2.4000
1
   NOMINAL AS MODELLED.
0
TEXT
8
TEXT
10
751.142650
20
218.809665
30
0.0
40
2.4000
1
6. TOLERANCE BASIS, OUTSOURCED: JLC3DP +/-0.3 mm FDM
0
TEXT
8
TEXT
10
751.142650
20
215.089665
30
0.0
40
2.4000
1
   (jlc3dp.com, ce-machines/farm-jlc3dp); Hubs
0
TEXT
8
TEXT
10
751.142650
20
211.369665
30
0.0
40
2.4000
1
   +/-0.5%, floor +/-0.5 mm (hubs.com/3d-printing/,
0
TEXT
8
TEXT
10
751.142650
20
207.649665
30
0.0
40
2.4000
1
   ce-machines/farm-hubs). Apply the route's figure,
0
TEXT
8
TEXT
10
751.142650
20
203.929665
30
0.0
40
2.4000
1
   not both. The +/-0.2 mm in cecad/machining.py fdm
0
TEXT
8
TEXT
10
751.142650
20
200.209665
30
0.0
40
2.4000
1
   is a repo planning constant with no vendor cite
0
TEXT
8
TEXT
10
751.142650
20
196.489665
30
0.0
40
2.4000
1
   and is NOT used here. One printed and measured
0
TEXT
8
TEXT
10
751.142650
20
192.769665
30
0.0
40
2.4000
1
   coupon closes this note.
0
TEXT
8
TEXT
10
751.142650
20
189.049665
30
0.0
40
2.4000
1
7. NO ISO 286 CLASS IS DECLARED ON ANY BORE: FDM
0
TEXT
8
TEXT
10
751.142650
20
185.329665
30
0.0
40
2.4000
1
   cannot be sized to one (H7/p6 at O3 is a 0.010 mm
0
TEXT
8
TEXT
10
751.142650
20
181.609665
30
0.0
40
2.4000
1
   band). REAM bearing and press-fit bores after
0
TEXT
8
TEXT
10
751.142650
20
177.889665
30
0.0
40
2.4000
1
   printing.
0
LINE
8
FRAME
10
645.000000
20
10.000000
30
0.0
11
831.000000
21
10.000000
31
0.0
0
LINE
8
FRAME
10
831.000000
20
10.000000
30
0.0
11
831.000000
21
66.000000
31
0.0
0
LINE
8
FRAME
10
831.000000
20
66.000000
30
0.0
11
645.000000
21
66.000000
31
0.0
0
LINE
8
FRAME
10
645.000000
20
66.000000
30
0.0
11
645.000000
21
10.000000
31
0.0
0
LINE
8
TITLE
10
645.000000
20
53.000000
30
0.0
11
831.000000
21
53.000000
31
0.0
0
LINE
8
TITLE
10
645.000000
20
19.000000
30
0.0
11
831.000000
21
19.000000
31
0.0
0
LINE
8
TITLE
10
645.000000
20
27.500000
30
0.0
11
831.000000
21
27.500000
31
0.0
0
LINE
8
TITLE
10
645.000000
20
36.000000
30
0.0
11
831.000000
21
36.000000
31
0.0
0
LINE
8
TITLE
10
645.000000
20
44.500000
30
0.0
11
831.000000
21
44.500000
31
0.0
0
TEXT
8
TEXT
10
647.500000
20
59.500000
30
0.0
40
6.0000
1
MICRODUCK-SHIN
72
0
73
2
11
647.500000
21
59.500000
31
0.0
0
LINE
8
TITLE
10
811.000000
20
53.000000
30
0.0
11
811.000000
21
66.000000
31
0.0
0
TEXT
8
TITLE
10
821.000000
20
63.600000
30
0.0
40
1.7000
1
REV
72
1
73
0
11
821.000000
21
63.600000
31
0.0
0
TEXT
8
TEXT
10
821.000000
20
55.000000
30
0.0
40
5.2000
1
A
72
1
73
0
11
821.000000
21
55.000000
31
0.0
0
LINE
8
TITLE
10
781.000000
20
53.000000
30
0.0
11
781.000000
21
66.000000
31
0.0
0
CIRCLE
8
TITLE
10
787.500000
20
59.500000
30
0.0
40
3.500000
0
CIRCLE
8
TITLE
10
787.500000
20
59.500000
30
0.0
40
1.960000
0
LINE
8
TITLE
10
797.300000
20
56.000000
30
0.0
11
797.300000
21
63.000000
31
0.0
0
LINE
8
TITLE
10
797.300000
20
63.000000
30
0.0
11
803.250000
21
61.460000
31
0.0
0
LINE
8
TITLE
10
803.250000
20
61.460000
30
0.0
11
803.250000
21
57.540000
31
0.0
0
LINE
8
TITLE
10
803.250000
20
57.540000
30
0.0
11
797.300000
21
56.000000
31
0.0
0
LINE
8
CENTER
10
782.500000
20
59.500000
30
0.0
11
804.750000
21
59.500000
31
0.0
0
LINE
8
TITLE
10
709.000000
20
19.000000
30
0.0
11
709.000000
21
53.000000
31
0.0
0
LINE
8
TITLE
10
773.000000
20
19.000000
30
0.0
11
773.000000
21
53.000000
31
0.0
0
TEXT
8
TITLE
10
646.600000
20
50.600000
30
0.0
40
1.7000
1
MATERIAL
0
TEXT
8
TEXT
10
646.600000
20
45.900000
30
0.0
40
2.5000
1
PLA
0
TEXT
8
TITLE
10
710.600000
20
50.600000
30
0.0
40
1.7000
1
PROCESS
0
TEXT
8
TEXT
10
710.600000
20
45.900000
30
0.0
40
2.5000
1
FDM
0
TEXT
8
TITLE
10
774.600000
20
50.600000
30
0.0
40
1.7000
1
SCALE
0
TEXT
8
TEXT
10
774.600000
20
45.900000
30
0.0
40
2.5000
1
5:1
0
TEXT
8
TITLE
10
646.600000
20
42.100000
30
0.0
40
1.7000
1
CATEGORY
0
TEXT
8
TEXT
10
646.600000
20
37.400000
30
0.0
40
2.5000
1
bracket
0
TEXT
8
TITLE
10
678.600000
20
42.100000
30
0.0
40
1.7000
1
GENERAL TOL
0
TEXT
8
TEXT
10
678.600000
20
37.400000
30
0.0
40
2.5000
1
CANNOT DETERMINE —~
0
LINE
8
TITLE
10
677.000000
20
36.000000
30
0.0
11
677.000000
21
44.500000
31
0.0
0
TEXT
8
TITLE
10
710.600000
20
42.100000
30
0.0
40
1.7000
1
FINISH
0
TEXT
8
TEXT
10
710.600000
20
37.400000
30
0.0
40
2.5000
1
AS PRINTED
0
TEXT
8
TITLE
10
774.600000
20
42.100000
30
0.0
40
1.7000
1
SHEET
0
TEXT
8
TEXT
10
774.600000
20
37.400000
30
0.0
40
2.5000
1
A1  1/1
0
TEXT
8
TITLE
10
646.600000
20
33.600000
30
0.0
40
1.7000
1
VOLUME (MEASURED)
0
TEXT
8
TEXT
10
646.600000
20
28.900000
30
0.0
40
2.5000
1
3.39 cm3
0
TEXT
8
TITLE
10
710.600000
20
33.600000
30
0.0
40
1.7000
1
MASS (ASSUMES PLA)
0
TEXT
8
TEXT
10
710.600000
20
28.900000
30
0.0
40
2.5000
1
4.2 g
0
TEXT
8
TITLE
10
774.600000
20
33.600000
30
0.0
40
1.7000
1
UNITS
0
TEXT
8
TEXT
10
774.600000
20
28.900000
30
0.0
40
2.5000
1
mm / deg
0
TEXT
8
TITLE
10
646.600000
20
25.100000
30
0.0
40
1.7000
1
SIZE (BBOX, MEASURED)
0
TEXT
8
TEXT
10
646.600000
20
20.400000
30
0.0
40
2.5000
1
7.95 x 20.00 x 58.00
0
TEXT
8
TITLE
10
710.600000
20
25.100000
30
0.0
40
1.7000
1
DRAWN
0
TEXT
8
TEXT
10
710.600000
20
20.400000
30
0.0
40
2.5000
1
ce-cad  2026-09-03
0
TEXT
8
TITLE
10
774.600000
20
25.100000
30
0.0
40
1.7000
1
PROJECTION
0
TEXT
8
TEXT
10
774.600000
20
20.400000
30
0.0
40
2.5000
1
THIRD ANGLE
0
TEXT
8
TITLE
10
646.600000
20
16.600000
30
0.0
40
1.7000
1
SOURCE (DESIGN FILE)
0
TEXT
8
TEXT
10
646.600000
20
11.400000
30
0.0
40
2.6000
1
ce-parts/microduck-shin/current/cad/part.py
0
TEXT
8
TEXT
10
12.500000
20
577.500000
30
0.0
40
4.2000
1
microduck-shin   SCALE 5:1   A1   THIRD ANGLE
0
ENDSEC
0
EOF
