0
SECTION
2
HEADER
9
$ACADVER
1
AC1009
9
$INSUNITS
70
4
9
$LTSCALE
40
1.0
9
$EXTMIN
10
0.0000
20
0.0000
30
0.0
9
$EXTMAX
10
594.0000
20
420.0000
30
0.0
0
ENDSEC
0
SECTION
2
TABLES
0
TABLE
2
LTYPE
70
4
0
LTYPE
2
CONTINUOUS
70
0
3
Solid line
72
65
73
0
40
0.0000
0
LTYPE
2
HIDDEN
70
0
3
Hidden __ __ __ __
72
65
73
2
40
3.6000
49
2.4000
49
-1.2000
0
LTYPE
2
CENTER
70
0
3
Center ____ _ ____ _
72
65
73
4
40
11.2000
49
7.0000
49
-1.4000
49
1.4000
49
-1.4000
0
LTYPE
2
PHANTOM
70
0
3
Phantom ____ _ _ ____
72
65
73
6
40
21.0000
49
11.0000
49
-2.0000
49
2.0000
49
-2.0000
49
2.0000
49
-2.0000
0
ENDTAB
0
TABLE
2
LAYER
70
12
0
LAYER
2
0
70
0
62
7
6
CONTINUOUS
0
LAYER
2
VISIBLE
70
0
62
7
6
CONTINUOUS
0
LAYER
2
SECTION
70
0
62
7
6
CONTINUOUS
0
LAYER
2
HIDDEN
70
0
62
8
6
HIDDEN
0
LAYER
2
CENTER
70
0
62
4
6
CENTER
0
LAYER
2
DIM
70
0
62
3
6
CONTINUOUS
0
LAYER
2
TEXT
70
0
62
3
6
CONTINUOUS
0
LAYER
2
HATCH
70
0
62
5
6
CONTINUOUS
0
LAYER
2
CUT
70
0
62
1
6
PHANTOM
0
LAYER
2
CUTTHIN
70
0
62
1
6
PHANTOM
0
LAYER
2
FRAME
70
0
62
7
6
CONTINUOUS
0
LAYER
2
TITLE
70
0
62
7
6
CONTINUOUS
0
ENDTAB
0
ENDSEC
0
SECTION
2
ENTITIES
0
LINE
8
TITLE
10
5.000000
20
5.000000
30
0.0
11
589.000000
21
5.000000
31
0.0
0
LINE
8
TITLE
10
589.000000
20
5.000000
30
0.0
11
589.000000
21
415.000000
31
0.0
0
LINE
8
TITLE
10
589.000000
20
415.000000
30
0.0
11
5.000000
21
415.000000
31
0.0
0
LINE
8
TITLE
10
5.000000
20
415.000000
30
0.0
11
5.000000
21
5.000000
31
0.0
0
LINE
8
FRAME
10
10.000000
20
10.000000
30
0.0
11
584.000000
21
10.000000
31
0.0
0
LINE
8
FRAME
10
584.000000
20
10.000000
30
0.0
11
584.000000
21
410.000000
31
0.0
0
LINE
8
FRAME
10
584.000000
20
410.000000
30
0.0
11
10.000000
21
410.000000
31
0.0
0
LINE
8
FRAME
10
10.000000
20
410.000000
30
0.0
11
10.000000
21
10.000000
31
0.0
0
TEXT
8
TITLE
10
67.400000
20
412.500000
30
0.0
40
2.4000
1
1
72
1
73
2
11
67.400000
21
412.500000
31
0.0
0
TEXT
8
TITLE
10
67.400000
20
7.500000
30
0.0
40
2.4000
1
1
72
1
73
2
11
67.400000
21
7.500000
31
0.0
0
TEXT
8
TITLE
10
182.200000
20
412.500000
30
0.0
40
2.4000
1
2
72
1
73
2
11
182.200000
21
412.500000
31
0.0
0
TEXT
8
TITLE
10
182.200000
20
7.500000
30
0.0
40
2.4000
1
2
72
1
73
2
11
182.200000
21
7.500000
31
0.0
0
LINE
8
TITLE
10
124.800000
20
5.000000
30
0.0
11
124.800000
21
10.000000
31
0.0
0
LINE
8
TITLE
10
124.800000
20
410.000000
30
0.0
11
124.800000
21
415.000000
31
0.0
0
TEXT
8
TITLE
10
297.000000
20
412.500000
30
0.0
40
2.4000
1
3
72
1
73
2
11
297.000000
21
412.500000
31
0.0
0
TEXT
8
TITLE
10
297.000000
20
7.500000
30
0.0
40
2.4000
1
3
72
1
73
2
11
297.000000
21
7.500000
31
0.0
0
LINE
8
TITLE
10
239.600000
20
5.000000
30
0.0
11
239.600000
21
10.000000
31
0.0
0
LINE
8
TITLE
10
239.600000
20
410.000000
30
0.0
11
239.600000
21
415.000000
31
0.0
0
TEXT
8
TITLE
10
411.800000
20
412.500000
30
0.0
40
2.4000
1
4
72
1
73
2
11
411.800000
21
412.500000
31
0.0
0
TEXT
8
TITLE
10
411.800000
20
7.500000
30
0.0
40
2.4000
1
4
72
1
73
2
11
411.800000
21
7.500000
31
0.0
0
LINE
8
TITLE
10
354.400000
20
5.000000
30
0.0
11
354.400000
21
10.000000
31
0.0
0
LINE
8
TITLE
10
354.400000
20
410.000000
30
0.0
11
354.400000
21
415.000000
31
0.0
0
TEXT
8
TITLE
10
526.600000
20
412.500000
30
0.0
40
2.4000
1
5
72
1
73
2
11
526.600000
21
412.500000
31
0.0
0
TEXT
8
TITLE
10
526.600000
20
7.500000
30
0.0
40
2.4000
1
5
72
1
73
2
11
526.600000
21
7.500000
31
0.0
0
LINE
8
TITLE
10
469.200000
20
5.000000
30
0.0
11
469.200000
21
10.000000
31
0.0
0
LINE
8
TITLE
10
469.200000
20
410.000000
30
0.0
11
469.200000
21
415.000000
31
0.0
0
TEXT
8
TITLE
10
7.500000
20
60.000000
30
0.0
40
2.4000
1
D
72
1
73
2
11
7.500000
21
60.000000
31
0.0
0
TEXT
8
TITLE
10
586.500000
20
60.000000
30
0.0
40
2.4000
1
D
72
1
73
2
11
586.500000
21
60.000000
31
0.0
0
TEXT
8
TITLE
10
7.500000
20
160.000000
30
0.0
40
2.4000
1
C
72
1
73
2
11
7.500000
21
160.000000
31
0.0
0
TEXT
8
TITLE
10
586.500000
20
160.000000
30
0.0
40
2.4000
1
C
72
1
73
2
11
586.500000
21
160.000000
31
0.0
0
LINE
8
TITLE
10
5.000000
20
110.000000
30
0.0
11
10.000000
21
110.000000
31
0.0
0
LINE
8
TITLE
10
584.000000
20
110.000000
30
0.0
11
589.000000
21
110.000000
31
0.0
0
TEXT
8
TITLE
10
7.500000
20
260.000000
30
0.0
40
2.4000
1
B
72
1
73
2
11
7.500000
21
260.000000
31
0.0
0
TEXT
8
TITLE
10
586.500000
20
260.000000
30
0.0
40
2.4000
1
B
72
1
73
2
11
586.500000
21
260.000000
31
0.0
0
LINE
8
TITLE
10
5.000000
20
210.000000
30
0.0
11
10.000000
21
210.000000
31
0.0
0
LINE
8
TITLE
10
584.000000
20
210.000000
30
0.0
11
589.000000
21
210.000000
31
0.0
0
TEXT
8
TITLE
10
7.500000
20
360.000000
30
0.0
40
2.4000
1
A
72
1
73
2
11
7.500000
21
360.000000
31
0.0
0
TEXT
8
TITLE
10
586.500000
20
360.000000
30
0.0
40
2.4000
1
A
72
1
73
2
11
586.500000
21
360.000000
31
0.0
0
LINE
8
TITLE
10
5.000000
20
310.000000
30
0.0
11
10.000000
21
310.000000
31
0.0
0
LINE
8
TITLE
10
584.000000
20
310.000000
30
0.0
11
589.000000
21
310.000000
31
0.0
0
LINE
8
VISIBLE
10
240.071325
20
229.446000
30
0.0
11
240.071325
21
248.000000
31
0.0
0
LINE
8
VISIBLE
10
240.071325
20
229.446000
30
0.0
11
280.071325
21
229.446000
31
0.0
0
LINE
8
VISIBLE
10
240.071325
20
248.000000
30
0.0
11
240.242428
21
250.610524
31
0.0
0
LINE
8
VISIBLE
10
280.071325
20
248.000000
30
0.0
11
280.071325
21
229.446000
31
0.0
0
LINE
8
VISIBLE
10
240.242428
20
250.610524
30
0.0
11
240.752808
21
253.176381
31
0.0
0
LINE
8
VISIBLE
10
279.900222
20
250.610524
30
0.0
11
280.071325
21
248.000000
31
0.0
0
LINE
8
VISIBLE
10
240.752808
20
253.176381
30
0.0
11
241.593734
21
255.653669
31
0.0
0
LINE
8
VISIBLE
10
279.389841
20
253.176381
30
0.0
11
279.900222
21
250.610524
31
0.0
0
LINE
8
VISIBLE
10
241.593734
20
255.653669
30
0.0
11
242.750817
21
258.000000
31
0.0
0
LINE
8
VISIBLE
10
278.548916
20
255.653669
30
0.0
11
279.389841
21
253.176381
31
0.0
0
LINE
8
VISIBLE
10
242.750817
20
258.000000
30
0.0
11
244.204258
21
260.175229
31
0.0
0
LINE
8
VISIBLE
10
277.391833
20
258.000000
30
0.0
11
278.548916
21
255.653669
31
0.0
0
LINE
8
VISIBLE
10
244.204258
20
260.175229
30
0.0
11
245.929189
21
262.142136
31
0.0
0
LINE
8
VISIBLE
10
275.938392
20
260.175229
30
0.0
11
277.391833
21
258.000000
31
0.0
0
LINE
8
VISIBLE
10
245.929189
20
262.142136
30
0.0
11
247.896096
21
263.867067
31
0.0
0
LINE
8
VISIBLE
10
274.213461
20
262.142136
30
0.0
11
275.938392
21
260.175229
31
0.0
0
LINE
8
VISIBLE
10
247.896096
20
263.867067
30
0.0
11
250.071325
21
265.320508
31
0.0
0
LINE
8
VISIBLE
10
272.246554
20
263.867067
30
0.0
11
274.213461
21
262.142136
31
0.0
0
LINE
8
VISIBLE
10
250.071325
20
265.320508
30
0.0
11
252.417656
21
266.477591
31
0.0
0
LINE
8
VISIBLE
10
270.071325
20
265.320508
30
0.0
11
272.246554
21
263.867067
31
0.0
0
LINE
8
VISIBLE
10
252.417656
20
266.477591
30
0.0
11
254.894944
21
267.318517
31
0.0
0
LINE
8
VISIBLE
10
267.724994
20
266.477591
30
0.0
11
270.071325
21
265.320508
31
0.0
0
LINE
8
VISIBLE
10
254.894944
20
267.318517
30
0.0
11
257.460801
21
267.828897
31
0.0
0
LINE
8
VISIBLE
10
265.247706
20
267.318517
30
0.0
11
267.724994
21
266.477591
31
0.0
0
LINE
8
VISIBLE
10
257.460801
20
267.828897
30
0.0
11
260.071325
21
268.000000
31
0.0
0
LINE
8
VISIBLE
10
262.681849
20
267.828897
30
0.0
11
265.247706
21
267.318517
31
0.0
0
LINE
8
VISIBLE
10
260.071325
20
268.000000
30
0.0
11
262.681849
21
267.828897
31
0.0
0
CIRCLE
8
VISIBLE
10
260.071325
20
248.000000
30
0.0
40
15.900000
0
CIRCLE
8
VISIBLE
10
251.585325
20
239.514000
30
0.0
40
2.200000
0
CIRCLE
8
VISIBLE
10
251.585325
20
256.486000
30
0.0
40
2.200000
0
CIRCLE
8
VISIBLE
10
268.557325
20
239.514000
30
0.0
40
2.200000
0
CIRCLE
8
VISIBLE
10
260.071325
20
248.000000
30
0.0
40
6.000000
0
CIRCLE
8
VISIBLE
10
268.557325
20
256.486000
30
0.0
40
2.200000
0
ARC
8
VISIBLE
10
276.071325
20
209.000000
30
0.0
40
2.400000
50
294.624318
51
65.375682
0
ARC
8
VISIBLE
10
276.071325
20
209.000000
30
0.0
40
2.400000
50
245.375682
51
294.624318
0
ARC
8
VISIBLE
10
276.071325
20
209.000000
30
0.0
40
2.400000
50
114.624318
51
245.375682
0
LINE
8
VISIBLE
10
255.299686
20
227.594050
30
0.0
11
255.128969
21
227.031271
31
0.0
0
ARC
8
VISIBLE
10
244.071325
20
209.000000
30
0.0
40
2.400000
50
294.624318
51
65.375682
0
ARC
8
VISIBLE
10
244.071325
20
209.000000
30
0.0
40
2.400000
50
245.375682
51
294.624318
0
ARC
8
VISIBLE
10
244.071325
20
209.000000
30
0.0
40
2.400000
50
114.624318
51
245.375682
0
LINE
8
VISIBLE
10
280.071325
20
229.446000
30
0.0
11
280.071325
21
192.446000
31
0.0
0
LINE
8
VISIBLE
10
262.656596
20
229.388356
30
0.0
11
262.071325
21
229.446000
31
0.0
0
LINE
8
VISIBLE
10
280.071325
20
192.446000
30
0.0
11
272.571325
21
164.000000
31
0.0
0
LINE
8
VISIBLE
10
263.219375
20
229.217639
30
0.0
11
262.656596
21
229.388356
31
0.0
0
LINE
8
VISIBLE
10
272.571325
20
164.000000
30
0.0
11
272.071325
21
164.000000
31
0.0
0
LINE
8
VISIBLE
10
263.738036
20
228.940409
30
0.0
11
263.219375
21
229.217639
31
0.0
0
LINE
8
VISIBLE
10
272.071325
20
164.000000
30
0.0
11
271.968663
21
162.433686
31
0.0
0
LINE
8
VISIBLE
10
264.192645
20
228.567320
30
0.0
11
263.738036
21
228.940409
31
0.0
0
LINE
8
VISIBLE
10
271.968663
20
162.433686
30
0.0
11
271.662435
21
160.894171
31
0.0
0
LINE
8
VISIBLE
10
264.565734
20
228.112711
30
0.0
11
264.192645
21
228.567320
31
0.0
0
LINE
8
VISIBLE
10
271.662435
20
160.894171
30
0.0
11
271.157879
21
159.407799
31
0.0
0
LINE
8
VISIBLE
10
264.842964
20
227.594050
30
0.0
11
264.565734
21
228.112711
31
0.0
0
LINE
8
VISIBLE
10
271.157879
20
159.407799
30
0.0
11
270.463630
21
158.000000
31
0.0
0
LINE
8
VISIBLE
10
265.013681
20
227.031271
30
0.0
11
264.842964
21
227.594050
31
0.0
0
LINE
8
VISIBLE
10
270.463630
20
158.000000
30
0.0
11
269.591565
21
156.694863
31
0.0
0
LINE
8
VISIBLE
10
265.071325
20
226.446000
30
0.0
11
265.013681
21
227.031271
31
0.0
0
LINE
8
VISIBLE
10
269.591565
20
156.694863
30
0.0
11
268.556606
21
155.514719
31
0.0
0
LINE
8
VISIBLE
10
265.071325
20
209.446000
30
0.0
11
265.071325
21
226.446000
31
0.0
0
LINE
8
VISIBLE
10
268.556606
20
155.514719
30
0.0
11
267.376462
21
154.479760
31
0.0
0
LINE
8
VISIBLE
10
265.013681
20
208.860729
30
0.0
11
265.071325
21
209.446000
31
0.0
0
LINE
8
VISIBLE
10
267.376462
20
154.479760
30
0.0
11
266.071325
21
153.607695
31
0.0
0
LINE
8
VISIBLE
10
264.842964
20
208.297950
30
0.0
11
265.013681
21
208.860729
31
0.0
0
LINE
8
VISIBLE
10
266.071325
20
153.607695
30
0.0
11
264.663526
21
152.913446
31
0.0
0
LINE
8
VISIBLE
10
264.565734
20
207.779289
30
0.0
11
264.842964
21
208.297950
31
0.0
0
LINE
8
VISIBLE
10
264.663526
20
152.913446
30
0.0
11
263.177153
21
152.408890
31
0.0
0
LINE
8
VISIBLE
10
264.192645
20
207.324680
30
0.0
11
264.565734
21
207.779289
31
0.0
0
LINE
8
VISIBLE
10
263.177153
20
152.408890
30
0.0
11
261.637639
21
152.102662
31
0.0
0
LINE
8
VISIBLE
10
263.738036
20
206.951591
30
0.0
11
264.192645
21
207.324680
31
0.0
0
LINE
8
VISIBLE
10
261.637639
20
152.102662
30
0.0
11
260.071325
21
152.000000
31
0.0
0
LINE
8
VISIBLE
10
263.219375
20
206.674361
30
0.0
11
263.738036
21
206.951591
31
0.0
0
LINE
8
VISIBLE
10
260.071325
20
152.000000
30
0.0
11
258.505011
21
152.102662
31
0.0
0
LINE
8
VISIBLE
10
262.656596
20
206.503644
30
0.0
11
263.219375
21
206.674361
31
0.0
0
LINE
8
VISIBLE
10
258.505011
20
152.102662
30
0.0
11
256.965496
21
152.408890
31
0.0
0
LINE
8
VISIBLE
10
262.071325
20
206.446000
30
0.0
11
262.656596
21
206.503644
31
0.0
0
LINE
8
VISIBLE
10
256.965496
20
152.408890
30
0.0
11
255.479124
21
152.913446
31
0.0
0
LINE
8
VISIBLE
10
258.071325
20
206.446000
30
0.0
11
262.071325
21
206.446000
31
0.0
0
LINE
8
VISIBLE
10
255.479124
20
152.913446
30
0.0
11
254.071325
21
153.607695
31
0.0
0
LINE
8
VISIBLE
10
257.486054
20
206.503644
30
0.0
11
258.071325
21
206.446000
31
0.0
0
LINE
8
VISIBLE
10
254.071325
20
153.607695
30
0.0
11
252.766188
21
154.479760
31
0.0
0
LINE
8
VISIBLE
10
256.923275
20
206.674361
30
0.0
11
257.486054
21
206.503644
31
0.0
0
LINE
8
VISIBLE
10
252.766188
20
154.479760
30
0.0
11
251.586044
21
155.514719
31
0.0
0
LINE
8
VISIBLE
10
256.404614
20
206.951591
30
0.0
11
256.923275
21
206.674361
31
0.0
0
LINE
8
VISIBLE
10
251.586044
20
155.514719
30
0.0
11
250.551085
21
156.694863
31
0.0
0
LINE
8
VISIBLE
10
255.950005
20
207.324680
30
0.0
11
256.404614
21
206.951591
31
0.0
0
LINE
8
VISIBLE
10
250.551085
20
156.694863
30
0.0
11
249.679020
21
158.000000
31
0.0
0
LINE
8
VISIBLE
10
255.576916
20
207.779289
30
0.0
11
255.950005
21
207.324680
31
0.0
0
LINE
8
VISIBLE
10
249.679020
20
158.000000
30
0.0
11
248.984771
21
159.407799
31
0.0
0
LINE
8
VISIBLE
10
255.299686
20
208.297950
30
0.0
11
255.576916
21
207.779289
31
0.0
0
LINE
8
VISIBLE
10
248.984771
20
159.407799
30
0.0
11
248.480215
21
160.894171
31
0.0
0
LINE
8
VISIBLE
10
255.128969
20
208.860729
30
0.0
11
255.299686
21
208.297950
31
0.0
0
LINE
8
VISIBLE
10
248.480215
20
160.894171
30
0.0
11
248.173987
21
162.433686
31
0.0
0
LINE
8
VISIBLE
10
255.071325
20
209.446000
30
0.0
11
255.128969
21
208.860729
31
0.0
0
LINE
8
VISIBLE
10
248.173987
20
162.433686
30
0.0
11
248.071325
21
164.000000
31
0.0
0
LINE
8
VISIBLE
10
255.071325
20
226.446000
30
0.0
11
255.071325
21
209.446000
31
0.0
0
LINE
8
VISIBLE
10
248.071325
20
164.000000
30
0.0
11
247.571325
21
164.000000
31
0.0
0
LINE
8
VISIBLE
10
255.128969
20
227.031271
30
0.0
11
255.071325
21
226.446000
31
0.0
0
LINE
8
VISIBLE
10
247.571325
20
164.000000
30
0.0
11
240.071325
21
192.446000
31
0.0
0
LINE
8
VISIBLE
10
240.071325
20
192.446000
30
0.0
11
240.071325
21
229.446000
31
0.0
0
LINE
8
VISIBLE
10
255.576916
20
228.112711
30
0.0
11
255.299686
21
227.594050
31
0.0
0
LINE
8
VISIBLE
10
255.950005
20
228.567320
30
0.0
11
255.576916
21
228.112711
31
0.0
0
LINE
8
VISIBLE
10
258.071325
20
229.446000
30
0.0
11
257.486054
21
229.388356
31
0.0
0
LINE
8
VISIBLE
10
256.404614
20
228.940409
30
0.0
11
255.950005
21
228.567320
31
0.0
0
LINE
8
VISIBLE
10
257.486054
20
229.388356
30
0.0
11
256.923275
21
229.217639
31
0.0
0
LINE
8
VISIBLE
10
256.923275
20
229.217639
30
0.0
11
256.404614
21
228.940409
31
0.0
0
LINE
8
VISIBLE
10
243.071325
20
194.446000
30
0.0
11
243.071325
21
206.818258
31
0.0
0
LINE
8
VISIBLE
10
245.071325
20
194.446000
30
0.0
11
243.071325
21
194.446000
31
0.0
0
LINE
8
VISIBLE
10
245.071325
20
194.446000
30
0.0
11
245.071325
21
206.818258
31
0.0
0
LINE
8
VISIBLE
10
253.071325
20
211.446000
30
0.0
11
251.071325
21
211.446000
31
0.0
0
LINE
8
VISIBLE
10
251.071325
20
211.446000
30
0.0
11
251.071325
21
222.446000
31
0.0
0
LINE
8
VISIBLE
10
253.071325
20
211.446000
30
0.0
11
253.071325
21
222.446000
31
0.0
0
LINE
8
VISIBLE
10
253.071325
20
222.446000
30
0.0
11
251.071325
21
222.446000
31
0.0
0
CIRCLE
8
VISIBLE
10
260.071325
20
164.000000
30
0.0
40
10.000000
0
LINE
8
VISIBLE
10
269.071325
20
211.446000
30
0.0
11
267.071325
21
211.446000
31
0.0
0
LINE
8
VISIBLE
10
267.071325
20
211.446000
30
0.0
11
267.071325
21
222.446000
31
0.0
0
LINE
8
VISIBLE
10
269.071325
20
211.446000
30
0.0
11
269.071325
21
222.446000
31
0.0
0
LINE
8
VISIBLE
10
269.071325
20
222.446000
30
0.0
11
267.071325
21
222.446000
31
0.0
0
LINE
8
VISIBLE
10
275.071325
20
194.446000
30
0.0
11
275.071325
21
206.818258
31
0.0
0
LINE
8
VISIBLE
10
277.071325
20
194.446000
30
0.0
11
275.071325
21
194.446000
31
0.0
0
LINE
8
VISIBLE
10
277.071325
20
194.446000
30
0.0
11
277.071325
21
206.818258
31
0.0
0
LINE
8
VISIBLE
10
245.071325
20
211.181742
30
0.0
11
245.071325
21
211.446000
31
0.0
0
LINE
8
VISIBLE
10
243.071325
20
211.181742
30
0.0
11
243.071325
21
211.446000
31
0.0
0
LINE
8
VISIBLE
10
277.071325
20
211.181742
30
0.0
11
277.071325
21
211.446000
31
0.0
0
LINE
8
VISIBLE
10
275.071325
20
211.181742
30
0.0
11
275.071325
21
211.446000
31
0.0
0
CIRCLE
8
VISIBLE
10
260.071325
20
164.000000
30
0.0
40
8.000000
0
LINE
8
VISIBLE
10
245.071325
20
211.446000
30
0.0
11
243.071325
21
211.446000
31
0.0
0
LINE
8
VISIBLE
10
277.071325
20
211.446000
30
0.0
11
275.071325
21
211.446000
31
0.0
0
LINE
8
VISIBLE
10
245.071325
20
211.446000
30
0.0
11
245.071325
21
222.446000
31
0.0
0
LINE
8
VISIBLE
10
245.071325
20
222.446000
30
0.0
11
243.071325
21
222.446000
31
0.0
0
LINE
8
VISIBLE
10
243.071325
20
211.446000
30
0.0
11
243.071325
21
222.446000
31
0.0
0
LINE
8
VISIBLE
10
277.071325
20
211.446000
30
0.0
11
277.071325
21
222.446000
31
0.0
0
LINE
8
VISIBLE
10
277.071325
20
222.446000
30
0.0
11
275.071325
21
222.446000
31
0.0
0
LINE
8
VISIBLE
10
275.071325
20
211.446000
30
0.0
11
275.071325
21
222.446000
31
0.0
0
CIRCLE
8
VISIBLE
10
260.071325
20
164.000000
30
0.0
40
2.700000
0
CIRCLE
8
VISIBLE
10
260.071325
20
164.000000
30
0.0
40
4.920000
0
ARC
8
VISIBLE
10
276.071326
20
209.000001
30
0.0
40
2.399999
50
65.375699
51
114.624352
0
ARC
8
VISIBLE
10
244.071339
20
208.999984
30
0.0
40
2.400016
50
65.376160
51
114.624469
0
LINE
8
HIDDEN
10
280.071325
20
211.724995
30
0.0
11
280.071325
21
206.275005
31
0.0
0
ARC
8
HIDDEN
10
276.071325
20
209.000000
30
0.0
40
4.840000
50
34.264603
51
90.000000
0
CIRCLE
8
HIDDEN
10
276.071325
20
209.000000
30
0.0
40
2.400000
0
ARC
8
HIDDEN
10
244.071325
20
209.000000
30
0.0
40
4.840000
50
90.000000
51
145.735397
0
LINE
8
HIDDEN
10
247.671325
20
237.503875
30
0.0
11
247.671325
21
212.235058
31
0.0
0
LINE
8
HIDDEN
10
247.671325
20
247.066000
30
0.0
11
247.671325
21
241.524125
31
0.0
0
LINE
8
HIDDEN
10
247.909203
20
249.481218
30
0.0
11
247.671325
21
247.066000
31
0.0
0
LINE
8
HIDDEN
10
248.613696
20
251.803621
30
0.0
11
247.909203
21
249.481218
31
0.0
0
LINE
8
HIDDEN
10
249.155698
20
252.817634
30
0.0
11
248.613696
21
251.803621
31
0.0
0
LINE
8
HIDDEN
10
257.636107
20
259.208122
30
0.0
11
255.470544
21
258.551205
31
0.0
0
LINE
8
HIDDEN
10
260.051325
20
259.446000
30
0.0
11
257.636107
21
259.208122
31
0.0
0
LINE
8
HIDDEN
10
260.091325
20
259.446000
30
0.0
11
260.051325
21
259.446000
31
0.0
0
LINE
8
HIDDEN
10
262.506543
20
259.208122
30
0.0
11
260.091325
21
259.446000
31
0.0
0
LINE
8
HIDDEN
10
264.672106
20
258.551205
30
0.0
11
262.506543
21
259.208122
31
0.0
0
LINE
8
HIDDEN
10
271.528954
20
251.803621
30
0.0
11
270.986952
21
252.817634
31
0.0
0
LINE
8
HIDDEN
10
272.233447
20
249.481218
30
0.0
11
271.528954
21
251.803621
31
0.0
0
LINE
8
HIDDEN
10
272.471325
20
247.066000
30
0.0
11
272.233447
21
249.481218
31
0.0
0
LINE
8
HIDDEN
10
272.471325
20
241.524125
30
0.0
11
272.471325
21
247.066000
31
0.0
0
LINE
8
HIDDEN
10
272.471325
20
212.235058
30
0.0
11
272.471325
21
237.503875
31
0.0
0
ARC
8
HIDDEN
10
276.071325
20
209.000000
30
0.0
40
4.840000
50
90.000000
51
138.056273
0
ARC
8
HIDDEN
10
276.071325
20
209.000000
30
0.0
40
4.840000
50
34.264603
51
90.000000
0
LINE
8
HIDDEN
10
280.071325
20
248.000000
30
0.0
11
280.071325
21
211.724995
31
0.0
0
LINE
8
HIDDEN
10
240.071325
20
211.724995
30
0.0
11
240.071325
21
248.000000
31
0.0
0
LINE
8
HIDDEN
10
247.671325
20
212.235058
30
0.0
11
247.671325
21
237.503875
31
0.0
0
ARC
8
HIDDEN
10
251.585325
20
239.514000
30
0.0
40
4.400000
50
90.000000
51
152.816184
0
ARC
8
HIDDEN
10
251.585325
20
239.514000
30
0.0
40
4.400000
50
207.183816
51
90.000000
0
CIRCLE
8
HIDDEN
10
251.585325
20
239.514000
30
0.0
40
4.400000
0
LINE
8
HIDDEN
10
247.671325
20
241.524125
30
0.0
11
247.671325
21
247.066000
31
0.0
0
LINE
8
HIDDEN
10
247.671325
20
247.066000
30
0.0
11
247.909203
21
249.481218
31
0.0
0
LINE
8
HIDDEN
10
247.909203
20
249.481218
30
0.0
11
248.613696
21
251.803621
31
0.0
0
LINE
8
HIDDEN
10
248.613696
20
251.803621
30
0.0
11
249.155698
21
252.817634
31
0.0
0
ARC
8
HIDDEN
10
251.585325
20
256.486000
30
0.0
40
4.400000
50
236.482748
51
27.993077
0
CIRCLE
8
HIDDEN
10
251.585325
20
256.486000
30
0.0
40
4.400000
0
LINE
8
HIDDEN
10
255.470544
20
258.551205
30
0.0
11
257.636107
21
259.208122
31
0.0
0
LINE
8
HIDDEN
10
257.636107
20
259.208122
30
0.0
11
260.051325
21
259.446000
31
0.0
0
LINE
8
HIDDEN
10
260.051325
20
259.446000
30
0.0
11
260.091325
21
259.446000
31
0.0
0
LINE
8
HIDDEN
10
260.091325
20
259.446000
30
0.0
11
262.506543
21
259.208122
31
0.0
0
LINE
8
HIDDEN
10
262.506543
20
259.208122
30
0.0
11
264.672106
21
258.551205
31
0.0
0
ARC
8
HIDDEN
10
268.557325
20
256.486000
30
0.0
40
4.400000
50
152.006923
51
303.517252
0
CIRCLE
8
HIDDEN
10
268.557325
20
256.486000
30
0.0
40
4.400000
0
LINE
8
HIDDEN
10
270.986952
20
252.817634
30
0.0
11
271.528954
21
251.803621
31
0.0
0
LINE
8
HIDDEN
10
271.528954
20
251.803621
30
0.0
11
272.233447
21
249.481218
31
0.0
0
LINE
8
HIDDEN
10
272.233447
20
249.481218
30
0.0
11
272.471325
21
247.066000
31
0.0
0
LINE
8
HIDDEN
10
272.471325
20
247.066000
30
0.0
11
272.471325
21
241.524125
31
0.0
0
ARC
8
HIDDEN
10
268.557325
20
239.514000
30
0.0
40
4.400000
50
90.000000
51
332.816184
0
ARC
8
HIDDEN
10
268.557325
20
239.514000
30
0.0
40
4.400000
50
27.183816
51
90.000000
0
CIRCLE
8
HIDDEN
10
268.557325
20
239.514000
30
0.0
40
4.400000
0
LINE
8
HIDDEN
10
272.471325
20
237.503875
30
0.0
11
272.471325
21
212.235058
31
0.0
0
LINE
8
HIDDEN
10
257.636107
20
186.683878
30
0.0
11
255.313704
21
187.388371
31
0.0
0
LINE
8
HIDDEN
10
260.051325
20
186.446000
30
0.0
11
257.636107
21
186.683878
31
0.0
0
LINE
8
HIDDEN
10
260.091325
20
186.446000
30
0.0
11
260.051325
21
186.446000
31
0.0
0
LINE
8
HIDDEN
10
262.506543
20
186.683878
30
0.0
11
260.091325
21
186.446000
31
0.0
0
LINE
8
HIDDEN
10
264.828946
20
187.388371
30
0.0
11
262.506543
21
186.683878
31
0.0
0
LINE
8
HIDDEN
10
266.969284
20
188.532406
30
0.0
11
264.828946
21
187.388371
31
0.0
0
LINE
8
HIDDEN
10
268.845307
20
190.072018
30
0.0
11
266.969284
21
188.532406
31
0.0
0
LINE
8
HIDDEN
10
270.384919
20
191.948041
30
0.0
11
268.845307
21
190.072018
31
0.0
0
LINE
8
HIDDEN
10
271.528954
20
194.088379
30
0.0
11
270.384919
21
191.948041
31
0.0
0
LINE
8
HIDDEN
10
272.233447
20
196.410782
30
0.0
11
271.528954
21
194.088379
31
0.0
0
LINE
8
HIDDEN
10
272.471325
20
198.826000
30
0.0
11
272.233447
21
196.410782
31
0.0
0
LINE
8
HIDDEN
10
272.471325
20
205.764942
30
0.0
11
272.471325
21
198.826000
31
0.0
0
ARC
8
HIDDEN
10
276.071325
20
209.000000
30
0.0
40
4.840000
50
138.056273
51
221.943727
0
ARC
8
HIDDEN
10
244.071325
20
209.000000
30
0.0
40
4.840000
50
318.056273
51
41.943727
0
LINE
8
HIDDEN
10
247.671325
20
198.826000
30
0.0
11
247.671325
21
205.764942
31
0.0
0
LINE
8
HIDDEN
10
247.909203
20
196.410782
30
0.0
11
247.671325
21
198.826000
31
0.0
0
LINE
8
HIDDEN
10
248.613696
20
194.088379
30
0.0
11
247.909203
21
196.410782
31
0.0
0
LINE
8
HIDDEN
10
249.757731
20
191.948041
30
0.0
11
248.613696
21
194.088379
31
0.0
0
LINE
8
HIDDEN
10
251.297343
20
190.072018
30
0.0
11
249.757731
21
191.948041
31
0.0
0
LINE
8
HIDDEN
10
253.173365
20
188.532406
30
0.0
11
251.297343
21
190.072018
31
0.0
0
LINE
8
HIDDEN
10
255.313704
20
187.388371
30
0.0
11
253.173365
21
188.532406
31
0.0
0
LINE
8
HIDDEN
10
262.071325
20
229.446000
30
0.0
11
258.071325
21
229.446000
31
0.0
0
LINE
8
HIDDEN
10
240.071325
20
192.446000
30
0.0
11
240.071325
21
206.275005
31
0.0
0
ARC
8
HIDDEN
10
244.071325
20
209.000000
30
0.0
40
4.840000
50
214.264603
51
318.056273
0
LINE
8
HIDDEN
10
247.671325
20
205.764942
30
0.0
11
247.671325
21
198.826000
31
0.0
0
LINE
8
HIDDEN
10
247.671325
20
198.826000
30
0.0
11
247.909203
21
196.410782
31
0.0
0
LINE
8
HIDDEN
10
247.909203
20
196.410782
30
0.0
11
248.613696
21
194.088379
31
0.0
0
LINE
8
HIDDEN
10
248.613696
20
194.088379
30
0.0
11
249.757731
21
191.948041
31
0.0
0
LINE
8
HIDDEN
10
249.757731
20
191.948041
30
0.0
11
251.297343
21
190.072018
31
0.0
0
LINE
8
HIDDEN
10
251.297343
20
190.072018
30
0.0
11
253.173365
21
188.532406
31
0.0
0
LINE
8
HIDDEN
10
253.173365
20
188.532406
30
0.0
11
255.313704
21
187.388371
31
0.0
0
LINE
8
HIDDEN
10
255.313704
20
187.388371
30
0.0
11
257.636107
21
186.683878
31
0.0
0
LINE
8
HIDDEN
10
257.636107
20
186.683878
30
0.0
11
260.051325
21
186.446000
31
0.0
0
LINE
8
HIDDEN
10
260.051325
20
186.446000
30
0.0
11
260.091325
21
186.446000
31
0.0
0
LINE
8
HIDDEN
10
260.091325
20
186.446000
30
0.0
11
262.506543
21
186.683878
31
0.0
0
LINE
8
HIDDEN
10
262.506543
20
186.683878
30
0.0
11
264.828946
21
187.388371
31
0.0
0
LINE
8
HIDDEN
10
264.828946
20
187.388371
30
0.0
11
266.969284
21
188.532406
31
0.0
0
LINE
8
HIDDEN
10
266.969284
20
188.532406
30
0.0
11
268.845307
21
190.072018
31
0.0
0
LINE
8
HIDDEN
10
268.845307
20
190.072018
30
0.0
11
270.384919
21
191.948041
31
0.0
0
LINE
8
HIDDEN
10
270.384919
20
191.948041
30
0.0
11
271.528954
21
194.088379
31
0.0
0
LINE
8
HIDDEN
10
271.528954
20
194.088379
30
0.0
11
272.233447
21
196.410782
31
0.0
0
LINE
8
HIDDEN
10
272.233447
20
196.410782
30
0.0
11
272.471325
21
198.826000
31
0.0
0
LINE
8
HIDDEN
10
272.471325
20
198.826000
30
0.0
11
272.471325
21
205.764942
31
0.0
0
ARC
8
HIDDEN
10
276.071325
20
209.000000
30
0.0
40
4.840000
50
221.943727
51
325.735397
0
LINE
8
HIDDEN
10
280.071325
20
206.275005
30
0.0
11
280.071325
21
192.446000
31
0.0
0
ARC
8
HIDDEN
10
244.071325
20
209.000000
30
0.0
40
4.840000
50
90.000000
51
145.735397
0
LINE
8
HIDDEN
10
240.071325
20
206.275005
30
0.0
11
240.071325
21
211.724995
31
0.0
0
ARC
8
HIDDEN
10
244.071325
20
209.000000
30
0.0
40
4.840000
50
214.264603
51
90.000000
0
CIRCLE
8
HIDDEN
10
244.071325
20
209.000000
30
0.0
40
2.400000
0
LINE
8
HIDDEN
10
280.071325
20
229.446000
30
0.0
11
262.071325
21
229.446000
31
0.0
0
LINE
8
HIDDEN
10
258.071325
20
229.446000
30
0.0
11
240.071325
21
229.446000
31
0.0
0
LINE
8
HIDDEN
10
243.071325
20
211.181742
30
0.0
11
243.071325
21
222.446000
31
0.0
0
LINE
8
HIDDEN
10
245.071325
20
211.181742
30
0.0
11
245.071325
21
222.446000
31
0.0
0
LINE
8
HIDDEN
10
275.071325
20
211.181742
30
0.0
11
275.071325
21
222.446000
31
0.0
0
LINE
8
HIDDEN
10
277.071325
20
211.181742
30
0.0
11
277.071325
21
222.446000
31
0.0
0
CIRCLE
8
HIDDEN
10
260.071325
20
164.000000
30
0.0
40
5.500000
0
CIRCLE
8
HIDDEN
10
260.071325
20
164.000000
30
0.0
40
5.500000
0
ARC
8
HIDDEN
10
276.071325
20
209.000000
30
0.0
40
4.840000
50
90.000000
51
325.735397
0
ARC
8
HIDDEN
10
244.071324
20
209.000000
30
0.0
40
4.840001
50
41.943721
51
89.999984
0
ARC
8
HIDDEN
10
251.585327
20
239.513999
30
0.0
40
4.400002
50
152.816181
51
207.183793
0
ARC
8
HIDDEN
10
251.585325
20
256.486000
30
0.0
40
4.400000
50
27.993077
51
236.482748
0
ARC
8
HIDDEN
10
268.557325
20
256.486000
30
0.0
40
4.400000
50
303.517252
51
152.006923
0
ARC
8
HIDDEN
10
268.557326
20
239.513999
30
0.0
40
4.399999
50
332.816186
51
27.183830
0
LINE
8
VISIBLE
10
182.071325
20
248.000000
30
0.0
11
182.071325
21
229.446000
31
0.0
0
LINE
8
VISIBLE
10
182.071325
20
250.610524
30
0.0
11
182.071325
21
248.000000
31
0.0
0
LINE
8
VISIBLE
10
182.071325
20
253.176381
30
0.0
11
182.071325
21
250.610524
31
0.0
0
LINE
8
VISIBLE
10
182.071325
20
255.653669
30
0.0
11
182.071325
21
253.176381
31
0.0
0
LINE
8
VISIBLE
10
182.071325
20
258.000000
30
0.0
11
182.071325
21
255.653669
31
0.0
0
LINE
8
VISIBLE
10
182.071325
20
260.175229
30
0.0
11
182.071325
21
258.000000
31
0.0
0
LINE
8
VISIBLE
10
182.071325
20
262.142136
30
0.0
11
182.071325
21
260.175229
31
0.0
0
LINE
8
VISIBLE
10
182.071325
20
263.867067
30
0.0
11
182.071325
21
262.142136
31
0.0
0
LINE
8
VISIBLE
10
182.071325
20
265.320508
30
0.0
11
182.071325
21
263.867067
31
0.0
0
LINE
8
VISIBLE
10
182.071325
20
266.477591
30
0.0
11
182.071325
21
265.320508
31
0.0
0
LINE
8
VISIBLE
10
182.071325
20
267.318517
30
0.0
11
182.071325
21
266.477591
31
0.0
0
LINE
8
VISIBLE
10
182.071325
20
267.828897
30
0.0
11
182.071325
21
267.318517
31
0.0
0
LINE
8
VISIBLE
10
182.071325
20
268.000000
30
0.0
11
182.071325
21
267.828897
31
0.0
0
LINE
8
VISIBLE
10
182.071325
20
263.900000
30
0.0
11
178.171325
21
263.900000
31
0.0
0
LINE
8
VISIBLE
10
178.171325
20
263.900000
30
0.0
11
178.171325
21
232.100000
31
0.0
0
LINE
8
VISIBLE
10
186.671325
20
206.275005
30
0.0
11
186.671325
21
206.600000
31
0.0
0
LINE
8
VISIBLE
10
186.671325
20
211.400000
30
0.0
11
186.671325
21
211.724995
31
0.0
0
LINE
8
VISIBLE
10
186.671325
20
211.724995
30
0.0
11
186.671325
21
206.275005
31
0.0
0
LINE
8
VISIBLE
10
183.071325
20
211.181742
30
0.0
11
182.071325
21
211.181742
31
0.0
0
LINE
8
VISIBLE
10
183.071325
20
206.818258
30
0.0
11
182.071325
21
206.818258
31
0.0
0
LINE
8
VISIBLE
10
187.671325
20
248.000000
30
0.0
11
187.671325
21
211.724995
31
0.0
0
LINE
8
VISIBLE
10
187.671325
20
250.610524
30
0.0
11
187.671325
21
248.000000
31
0.0
0
LINE
8
VISIBLE
10
187.671325
20
253.176381
30
0.0
11
187.671325
21
250.610524
31
0.0
0
LINE
8
VISIBLE
10
187.671325
20
255.653669
30
0.0
11
187.671325
21
253.176381
31
0.0
0
LINE
8
VISIBLE
10
187.671325
20
258.000000
30
0.0
11
187.671325
21
255.653669
31
0.0
0
LINE
8
VISIBLE
10
187.671325
20
260.175229
30
0.0
11
187.671325
21
258.000000
31
0.0
0
LINE
8
VISIBLE
10
187.671325
20
262.142136
30
0.0
11
187.671325
21
260.175229
31
0.0
0
LINE
8
VISIBLE
10
187.671325
20
263.867067
30
0.0
11
187.671325
21
262.142136
31
0.0
0
LINE
8
VISIBLE
10
187.671325
20
265.320508
30
0.0
11
187.671325
21
263.867067
31
0.0
0
LINE
8
VISIBLE
10
187.671325
20
266.477591
30
0.0
11
187.671325
21
265.320508
31
0.0
0
LINE
8
VISIBLE
10
187.671325
20
267.318517
30
0.0
11
187.671325
21
266.477591
31
0.0
0
LINE
8
VISIBLE
10
187.671325
20
267.828897
30
0.0
11
187.671325
21
267.318517
31
0.0
0
LINE
8
VISIBLE
10
187.671325
20
268.000000
30
0.0
11
187.671325
21
267.828897
31
0.0
0
LINE
8
VISIBLE
10
192.671325
20
259.446000
30
0.0
11
187.671325
21
259.446000
31
0.0
0
LINE
8
VISIBLE
10
192.671325
20
259.446000
30
0.0
11
192.671325
21
259.208122
31
0.0
0
LINE
8
VISIBLE
10
192.671325
20
259.208122
30
0.0
11
187.671325
21
259.208122
31
0.0
0
LINE
8
VISIBLE
10
192.671325
20
259.208122
30
0.0
11
192.671325
21
258.551205
31
0.0
0
LINE
8
VISIBLE
10
192.671325
20
258.551205
30
0.0
11
187.671325
21
258.551205
31
0.0
0
LINE
8
VISIBLE
10
192.671325
20
252.817634
30
0.0
11
192.671325
21
258.551205
31
0.0
0
LINE
8
VISIBLE
10
192.671325
20
252.817634
30
0.0
11
187.671325
21
252.817634
31
0.0
0
LINE
8
VISIBLE
10
192.671325
20
252.817634
30
0.0
11
192.671325
21
251.803621
31
0.0
0
LINE
8
VISIBLE
10
192.671325
20
251.803621
30
0.0
11
187.671325
21
251.803621
31
0.0
0
LINE
8
VISIBLE
10
192.671325
20
251.803621
30
0.0
11
192.671325
21
249.481218
31
0.0
0
LINE
8
VISIBLE
10
192.671325
20
249.481218
30
0.0
11
187.671325
21
249.481218
31
0.0
0
LINE
8
VISIBLE
10
192.671325
20
249.481218
30
0.0
11
192.671325
21
247.066000
31
0.0
0
LINE
8
VISIBLE
10
192.671325
20
247.066000
30
0.0
11
187.671325
21
247.066000
31
0.0
0
LINE
8
VISIBLE
10
192.671325
20
247.066000
30
0.0
11
192.671325
21
241.524125
31
0.0
0
LINE
8
VISIBLE
10
192.671325
20
241.524125
30
0.0
11
187.671325
21
241.524125
31
0.0
0
LINE
8
VISIBLE
10
192.671325
20
237.503875
30
0.0
11
192.671325
21
241.524125
31
0.0
0
LINE
8
VISIBLE
10
192.671325
20
237.503875
30
0.0
11
187.671325
21
237.503875
31
0.0
0
LINE
8
VISIBLE
10
192.671325
20
237.503875
30
0.0
11
192.671325
21
212.235058
31
0.0
0
LINE
8
VISIBLE
10
192.671325
20
212.235058
30
0.0
11
187.671325
21
212.235058
31
0.0
0
LINE
8
VISIBLE
10
192.671325
20
186.683878
30
0.0
11
192.671325
21
186.446000
31
0.0
0
LINE
8
VISIBLE
10
192.671325
20
187.388371
30
0.0
11
192.671325
21
186.683878
31
0.0
0
LINE
8
VISIBLE
10
192.671325
20
188.532406
30
0.0
11
192.671325
21
187.388371
31
0.0
0
LINE
8
VISIBLE
10
192.671325
20
190.072018
30
0.0
11
192.671325
21
188.532406
31
0.0
0
LINE
8
VISIBLE
10
192.671325
20
191.948041
30
0.0
11
192.671325
21
190.072018
31
0.0
0
LINE
8
VISIBLE
10
192.671325
20
194.088379
30
0.0
11
192.671325
21
191.948041
31
0.0
0
LINE
8
VISIBLE
10
192.671325
20
196.410782
30
0.0
11
192.671325
21
194.088379
31
0.0
0
LINE
8
VISIBLE
10
192.671325
20
198.826000
30
0.0
11
192.671325
21
196.410782
31
0.0
0
LINE
8
VISIBLE
10
192.671325
20
205.764942
30
0.0
11
192.671325
21
198.826000
31
0.0
0
LINE
8
VISIBLE
10
192.671325
20
205.764942
30
0.0
11
192.671325
21
212.235058
31
0.0
0
LINE
8
VISIBLE
10
187.671325
20
152.102662
30
0.0
11
187.671325
21
152.000000
31
0.0
0
LINE
8
VISIBLE
10
187.671325
20
152.408890
30
0.0
11
187.671325
21
152.102662
31
0.0
0
LINE
8
VISIBLE
10
187.671325
20
152.913446
30
0.0
11
187.671325
21
152.408890
31
0.0
0
LINE
8
VISIBLE
10
187.671325
20
153.607695
30
0.0
11
187.671325
21
152.913446
31
0.0
0
LINE
8
VISIBLE
10
187.671325
20
154.479760
30
0.0
11
187.671325
21
153.607695
31
0.0
0
LINE
8
VISIBLE
10
187.671325
20
155.514719
30
0.0
11
187.671325
21
154.479760
31
0.0
0
LINE
8
VISIBLE
10
187.671325
20
156.694863
30
0.0
11
187.671325
21
155.514719
31
0.0
0
LINE
8
VISIBLE
10
187.671325
20
158.000000
30
0.0
11
187.671325
21
156.694863
31
0.0
0
LINE
8
VISIBLE
10
187.671325
20
159.407799
30
0.0
11
187.671325
21
158.000000
31
0.0
0
LINE
8
VISIBLE
10
187.671325
20
160.894171
30
0.0
11
187.671325
21
159.407799
31
0.0
0
LINE
8
VISIBLE
10
187.671325
20
206.275005
30
0.0
11
187.671325
21
192.446000
31
0.0
0
LINE
8
VISIBLE
10
187.671325
20
162.433686
30
0.0
11
187.671325
21
160.894171
31
0.0
0
LINE
8
VISIBLE
10
187.671325
20
192.446000
30
0.0
11
187.671325
21
164.000000
31
0.0
0
LINE
8
VISIBLE
10
187.671325
20
164.000000
30
0.0
11
187.671325
21
162.433686
31
0.0
0
LINE
8
VISIBLE
10
192.671325
20
198.826000
30
0.0
11
187.671325
21
198.826000
31
0.0
0
LINE
8
VISIBLE
10
192.671325
20
205.764942
30
0.0
11
187.671325
21
205.764942
31
0.0
0
LINE
8
VISIBLE
10
192.671325
20
186.446000
30
0.0
11
187.671325
21
186.446000
31
0.0
0
LINE
8
VISIBLE
10
192.671325
20
186.683878
30
0.0
11
187.671325
21
186.683878
31
0.0
0
LINE
8
VISIBLE
10
192.671325
20
187.388371
30
0.0
11
187.671325
21
187.388371
31
0.0
0
LINE
8
VISIBLE
10
192.671325
20
188.532406
30
0.0
11
187.671325
21
188.532406
31
0.0
0
LINE
8
VISIBLE
10
192.671325
20
190.072018
30
0.0
11
187.671325
21
190.072018
31
0.0
0
LINE
8
VISIBLE
10
192.671325
20
191.948041
30
0.0
11
187.671325
21
191.948041
31
0.0
0
LINE
8
VISIBLE
10
192.671325
20
194.088379
30
0.0
11
187.671325
21
194.088379
31
0.0
0
LINE
8
VISIBLE
10
192.671325
20
196.410782
30
0.0
11
187.671325
21
196.410782
31
0.0
0
LINE
8
VISIBLE
10
194.071325
20
174.000000
30
0.0
11
187.671325
21
174.000000
31
0.0
0
LINE
8
VISIBLE
10
194.071325
20
174.000000
30
0.0
11
194.071325
21
154.000000
31
0.0
0
LINE
8
VISIBLE
10
183.071325
20
229.446000
30
0.0
11
183.071325
21
192.446000
31
0.0
0
LINE
8
VISIBLE
10
183.071325
20
192.446000
30
0.0
11
183.071325
21
164.000000
31
0.0
0
LINE
8
VISIBLE
10
183.071325
20
164.000000
30
0.0
11
183.071325
21
162.433686
31
0.0
0
LINE
8
VISIBLE
10
183.071325
20
162.433686
30
0.0
11
183.071325
21
160.894171
31
0.0
0
LINE
8
VISIBLE
10
183.071325
20
160.894171
30
0.0
11
183.071325
21
159.407799
31
0.0
0
LINE
8
VISIBLE
10
183.071325
20
159.407799
30
0.0
11
183.071325
21
158.000000
31
0.0
0
LINE
8
VISIBLE
10
183.071325
20
158.000000
30
0.0
11
183.071325
21
156.694863
31
0.0
0
LINE
8
VISIBLE
10
183.071325
20
156.694863
30
0.0
11
183.071325
21
155.514719
31
0.0
0
LINE
8
VISIBLE
10
183.071325
20
155.514719
30
0.0
11
183.071325
21
154.479760
31
0.0
0
LINE
8
VISIBLE
10
183.071325
20
154.479760
30
0.0
11
183.071325
21
153.607695
31
0.0
0
LINE
8
VISIBLE
10
183.071325
20
153.607695
30
0.0
11
183.071325
21
152.913446
31
0.0
0
LINE
8
VISIBLE
10
183.071325
20
152.913446
30
0.0
11
183.071325
21
152.408890
31
0.0
0
LINE
8
VISIBLE
10
183.071325
20
152.408890
30
0.0
11
183.071325
21
152.102662
31
0.0
0
LINE
8
VISIBLE
10
183.071325
20
152.102662
30
0.0
11
183.071325
21
152.000000
31
0.0
0
LINE
8
VISIBLE
10
183.071325
20
229.446000
30
0.0
11
183.071325
21
229.388356
31
0.0
0
LINE
8
VISIBLE
10
183.071325
20
174.000000
30
0.0
11
182.071325
21
174.000000
31
0.0
0
LINE
8
VISIBLE
10
182.071325
20
174.000000
30
0.0
11
182.071325
21
154.000000
31
0.0
0
LINE
8
VISIBLE
10
183.071325
20
194.446000
30
0.0
11
182.071325
21
194.446000
31
0.0
0
LINE
8
VISIBLE
10
182.071325
20
194.446000
30
0.0
11
182.071325
21
206.818258
31
0.0
0
LINE
8
VISIBLE
10
182.071325
20
211.181742
30
0.0
11
182.071325
21
211.446000
31
0.0
0
LINE
8
VISIBLE
10
182.071325
20
211.446000
30
0.0
11
178.171325
21
211.446000
31
0.0
0
LINE
8
VISIBLE
10
178.171325
20
211.446000
30
0.0
11
178.171325
21
222.446000
31
0.0
0
LINE
8
VISIBLE
10
182.071325
20
168.920000
30
0.0
11
178.491325
21
168.920000
31
0.0
0
LINE
8
VISIBLE
10
178.491325
20
168.920000
30
0.0
11
178.491325
21
159.080000
31
0.0
0
LINE
8
VISIBLE
10
187.671325
20
211.724995
30
0.0
11
186.671325
21
211.724995
31
0.0
0
LINE
8
VISIBLE
10
187.671325
20
206.275005
30
0.0
11
186.671325
21
206.275005
31
0.0
0
LINE
8
VISIBLE
10
187.671325
20
192.446000
30
0.0
11
183.071325
21
192.446000
31
0.0
0
LINE
8
VISIBLE
10
183.071325
20
229.446000
30
0.0
11
182.071325
21
229.446000
31
0.0
0
LINE
8
VISIBLE
10
187.671325
20
248.000000
30
0.0
11
182.071325
21
248.000000
31
0.0
0
LINE
8
VISIBLE
10
187.671325
20
250.610524
30
0.0
11
182.071325
21
250.610524
31
0.0
0
LINE
8
VISIBLE
10
187.671325
20
253.176381
30
0.0
11
182.071325
21
253.176381
31
0.0
0
LINE
8
VISIBLE
10
187.671325
20
255.653669
30
0.0
11
182.071325
21
255.653669
31
0.0
0
LINE
8
VISIBLE
10
187.671325
20
258.000000
30
0.0
11
182.071325
21
258.000000
31
0.0
0
LINE
8
VISIBLE
10
187.671325
20
260.175229
30
0.0
11
182.071325
21
260.175229
31
0.0
0
LINE
8
VISIBLE
10
187.671325
20
262.142136
30
0.0
11
182.071325
21
262.142136
31
0.0
0
LINE
8
VISIBLE
10
187.671325
20
263.867067
30
0.0
11
182.071325
21
263.867067
31
0.0
0
LINE
8
VISIBLE
10
187.671325
20
265.320508
30
0.0
11
182.071325
21
265.320508
31
0.0
0
LINE
8
VISIBLE
10
187.671325
20
266.477591
30
0.0
11
182.071325
21
266.477591
31
0.0
0
LINE
8
VISIBLE
10
187.671325
20
267.318517
30
0.0
11
182.071325
21
267.318517
31
0.0
0
LINE
8
VISIBLE
10
187.671325
20
267.828897
30
0.0
11
182.071325
21
267.828897
31
0.0
0
LINE
8
VISIBLE
10
187.671325
20
268.000000
30
0.0
11
182.071325
21
268.000000
31
0.0
0
LINE
8
VISIBLE
10
187.671325
20
164.000000
30
0.0
11
183.071325
21
164.000000
31
0.0
0
LINE
8
VISIBLE
10
187.671325
20
152.000000
30
0.0
11
183.071325
21
152.000000
31
0.0
0
LINE
8
VISIBLE
10
187.671325
20
152.102662
30
0.0
11
183.071325
21
152.102662
31
0.0
0
LINE
8
VISIBLE
10
187.671325
20
152.408890
30
0.0
11
183.071325
21
152.408890
31
0.0
0
LINE
8
VISIBLE
10
187.671325
20
152.913446
30
0.0
11
183.071325
21
152.913446
31
0.0
0
LINE
8
VISIBLE
10
187.671325
20
153.607695
30
0.0
11
183.071325
21
153.607695
31
0.0
0
LINE
8
VISIBLE
10
187.671325
20
154.479760
30
0.0
11
183.071325
21
154.479760
31
0.0
0
LINE
8
VISIBLE
10
187.671325
20
155.514719
30
0.0
11
183.071325
21
155.514719
31
0.0
0
LINE
8
VISIBLE
10
187.671325
20
156.694863
30
0.0
11
183.071325
21
156.694863
31
0.0
0
LINE
8
VISIBLE
10
187.671325
20
158.000000
30
0.0
11
183.071325
21
158.000000
31
0.0
0
LINE
8
VISIBLE
10
187.671325
20
159.407799
30
0.0
11
183.071325
21
159.407799
31
0.0
0
LINE
8
VISIBLE
10
187.671325
20
160.894171
30
0.0
11
183.071325
21
160.894171
31
0.0
0
LINE
8
VISIBLE
10
187.671325
20
162.433686
30
0.0
11
183.071325
21
162.433686
31
0.0
0
LINE
8
VISIBLE
10
183.071325
20
222.446000
30
0.0
11
178.171325
21
222.446000
31
0.0
0
LINE
8
VISIBLE
10
182.071325
20
232.100000
30
0.0
11
178.171325
21
232.100000
31
0.0
0
LINE
8
VISIBLE
10
194.071325
20
154.000000
30
0.0
11
187.671325
21
154.000000
31
0.0
0
LINE
8
VISIBLE
10
183.071325
20
154.000000
30
0.0
11
182.071325
21
154.000000
31
0.0
0
LINE
8
VISIBLE
10
182.071325
20
159.080000
30
0.0
11
178.491325
21
159.080000
31
0.0
0
LINE
8
HIDDEN
10
182.071325
20
263.900000
30
0.0
11
182.071325
21
232.100000
31
0.0
0
LINE
8
HIDDEN
10
182.071325
20
232.100000
30
0.0
11
182.071325
21
263.900000
31
0.0
0
LINE
8
HIDDEN
10
178.171325
20
241.714000
30
0.0
11
178.171325
21
237.314000
31
0.0
0
LINE
8
HIDDEN
10
178.171325
20
237.314000
30
0.0
11
178.171325
21
241.714000
31
0.0
0
LINE
8
HIDDEN
10
178.171325
20
258.686000
30
0.0
11
178.171325
21
254.286000
31
0.0
0
LINE
8
HIDDEN
10
178.171325
20
254.286000
30
0.0
11
178.171325
21
258.686000
31
0.0
0
LINE
8
HIDDEN
10
178.171325
20
241.714000
30
0.0
11
178.171325
21
237.314000
31
0.0
0
LINE
8
HIDDEN
10
178.171325
20
237.314000
30
0.0
11
178.171325
21
241.714000
31
0.0
0
LINE
8
HIDDEN
10
178.171325
20
254.000000
30
0.0
11
178.171325
21
242.000000
31
0.0
0
LINE
8
HIDDEN
10
178.171325
20
242.000000
30
0.0
11
178.171325
21
254.000000
31
0.0
0
LINE
8
HIDDEN
10
178.171325
20
258.686000
30
0.0
11
178.171325
21
254.286000
31
0.0
0
LINE
8
HIDDEN
10
178.171325
20
254.286000
30
0.0
11
178.171325
21
258.686000
31
0.0
0
LINE
8
HIDDEN
10
186.671325
20
206.275005
30
0.0
11
186.671325
21
204.160000
31
0.0
0
LINE
8
HIDDEN
10
186.671325
20
204.160000
30
0.0
11
186.671325
21
206.275005
31
0.0
0
LINE
8
HIDDEN
10
186.671325
20
206.600000
30
0.0
11
186.671325
21
211.400000
31
0.0
0
LINE
8
HIDDEN
10
186.671325
20
211.724995
30
0.0
11
186.671325
21
213.840000
31
0.0
0
LINE
8
HIDDEN
10
186.671325
20
213.840000
30
0.0
11
186.671325
21
211.724995
31
0.0
0
LINE
8
HIDDEN
10
186.671325
20
211.400000
30
0.0
11
186.671325
21
206.600000
31
0.0
0
LINE
8
HIDDEN
10
186.671325
20
206.600000
30
0.0
11
186.671325
21
211.400000
31
0.0
0
LINE
8
HIDDEN
10
186.671325
20
211.400000
30
0.0
11
182.071325
21
211.400000
31
0.0
0
LINE
8
HIDDEN
10
182.071325
20
211.400000
30
0.0
11
182.071325
21
211.181742
31
0.0
0
LINE
8
HIDDEN
10
183.071325
20
211.181742
30
0.0
11
183.071325
21
206.818258
31
0.0
0
LINE
8
HIDDEN
10
182.071325
20
206.818258
30
0.0
11
182.071325
21
206.600000
31
0.0
0
LINE
8
HIDDEN
10
182.071325
20
206.600000
30
0.0
11
182.071325
21
206.818258
31
0.0
0
LINE
8
HIDDEN
10
183.071325
20
206.818258
30
0.0
11
183.071325
21
211.181742
31
0.0
0
LINE
8
HIDDEN
10
182.071325
20
211.181742
30
0.0
11
182.071325
21
211.400000
31
0.0
0
LINE
8
HIDDEN
10
187.671325
20
211.724995
30
0.0
11
187.671325
21
213.840000
31
0.0
0
LINE
8
HIDDEN
10
187.671325
20
213.840000
30
0.0
11
187.671325
21
212.235058
31
0.0
0
LINE
8
HIDDEN
10
187.671325
20
237.503875
30
0.0
11
187.671325
21
212.235058
31
0.0
0
LINE
8
HIDDEN
10
187.671325
20
237.503875
30
0.0
11
187.671325
21
241.524125
31
0.0
0
LINE
8
HIDDEN
10
187.671325
20
247.066000
30
0.0
11
187.671325
21
241.524125
31
0.0
0
LINE
8
HIDDEN
10
187.671325
20
249.481218
30
0.0
11
187.671325
21
247.066000
31
0.0
0
LINE
8
HIDDEN
10
187.671325
20
251.803621
30
0.0
11
187.671325
21
249.481218
31
0.0
0
LINE
8
HIDDEN
10
187.671325
20
252.817634
30
0.0
11
187.671325
21
251.803621
31
0.0
0
LINE
8
HIDDEN
10
187.671325
20
252.817634
30
0.0
11
187.671325
21
260.886000
31
0.0
0
LINE
8
HIDDEN
10
187.671325
20
260.886000
30
0.0
11
187.671325
21
258.551205
31
0.0
0
LINE
8
HIDDEN
10
187.671325
20
259.208122
30
0.0
11
187.671325
21
258.551205
31
0.0
0
LINE
8
HIDDEN
10
187.671325
20
259.446000
30
0.0
11
187.671325
21
259.208122
31
0.0
0
LINE
8
HIDDEN
10
187.671325
20
259.208122
30
0.0
11
187.671325
21
259.446000
31
0.0
0
LINE
8
HIDDEN
10
187.671325
20
258.551205
30
0.0
11
187.671325
21
259.208122
31
0.0
0
LINE
8
HIDDEN
10
187.671325
20
258.551205
30
0.0
11
187.671325
21
260.886000
31
0.0
0
LINE
8
HIDDEN
10
187.671325
20
260.886000
30
0.0
11
187.671325
21
252.817634
31
0.0
0
LINE
8
HIDDEN
10
187.671325
20
251.803621
30
0.0
11
187.671325
21
252.817634
31
0.0
0
LINE
8
HIDDEN
10
187.671325
20
249.481218
30
0.0
11
187.671325
21
251.803621
31
0.0
0
LINE
8
HIDDEN
10
187.671325
20
247.066000
30
0.0
11
187.671325
21
249.481218
31
0.0
0
LINE
8
HIDDEN
10
187.671325
20
241.524125
30
0.0
11
187.671325
21
247.066000
31
0.0
0
LINE
8
HIDDEN
10
187.671325
20
241.524125
30
0.0
11
187.671325
21
237.503875
31
0.0
0
LINE
8
HIDDEN
10
187.671325
20
212.235058
30
0.0
11
187.671325
21
237.503875
31
0.0
0
LINE
8
HIDDEN
10
187.671325
20
212.235058
30
0.0
11
187.671325
21
213.840000
31
0.0
0
LINE
8
HIDDEN
10
187.671325
20
213.840000
30
0.0
11
187.671325
21
211.724995
31
0.0
0
LINE
8
HIDDEN
10
192.671325
20
243.914000
30
0.0
11
183.691325
21
243.914000
31
0.0
0
LINE
8
HIDDEN
10
192.671325
20
241.524125
30
0.0
11
192.671325
21
243.914000
31
0.0
0
LINE
8
HIDDEN
10
192.671325
20
243.914000
30
0.0
11
192.671325
21
235.114000
31
0.0
0
LINE
8
HIDDEN
10
192.671325
20
235.114000
30
0.0
11
192.671325
21
237.503875
31
0.0
0
LINE
8
HIDDEN
10
183.691325
20
243.914000
30
0.0
11
183.691325
21
235.114000
31
0.0
0
LINE
8
HIDDEN
10
183.691325
20
235.114000
30
0.0
11
183.691325
21
243.914000
31
0.0
0
LINE
8
HIDDEN
10
187.671325
20
260.886000
30
0.0
11
183.691325
21
260.886000
31
0.0
0
LINE
8
HIDDEN
10
192.671325
20
258.551205
30
0.0
11
192.671325
21
252.086000
31
0.0
0
LINE
8
HIDDEN
10
192.671325
20
252.086000
30
0.0
11
192.671325
21
252.817634
31
0.0
0
LINE
8
HIDDEN
10
183.691325
20
260.886000
30
0.0
11
183.691325
21
252.086000
31
0.0
0
LINE
8
HIDDEN
10
183.691325
20
252.086000
30
0.0
11
183.691325
21
260.886000
31
0.0
0
LINE
8
HIDDEN
10
187.671325
20
260.886000
30
0.0
11
183.691325
21
260.886000
31
0.0
0
LINE
8
HIDDEN
10
192.671325
20
252.817634
30
0.0
11
192.671325
21
252.086000
31
0.0
0
LINE
8
HIDDEN
10
192.671325
20
252.086000
30
0.0
11
192.671325
21
252.817634
31
0.0
0
LINE
8
HIDDEN
10
183.691325
20
260.886000
30
0.0
11
183.691325
21
252.086000
31
0.0
0
LINE
8
HIDDEN
10
183.691325
20
252.086000
30
0.0
11
183.691325
21
260.886000
31
0.0
0
LINE
8
HIDDEN
10
192.671325
20
243.914000
30
0.0
11
183.691325
21
243.914000
31
0.0
0
LINE
8
HIDDEN
10
192.671325
20
237.503875
30
0.0
11
192.671325
21
235.114000
31
0.0
0
LINE
8
HIDDEN
10
192.671325
20
235.114000
30
0.0
11
192.671325
21
237.503875
31
0.0
0
LINE
8
HIDDEN
10
192.671325
20
241.524125
30
0.0
11
192.671325
21
243.914000
31
0.0
0
LINE
8
HIDDEN
10
192.671325
20
243.914000
30
0.0
11
192.671325
21
241.524125
31
0.0
0
LINE
8
HIDDEN
10
183.691325
20
243.914000
30
0.0
11
183.691325
21
235.114000
31
0.0
0
LINE
8
HIDDEN
10
183.691325
20
235.114000
30
0.0
11
183.691325
21
243.914000
31
0.0
0
LINE
8
HIDDEN
10
192.671325
20
227.594050
30
0.0
11
192.671325
21
227.031271
31
0.0
0
LINE
8
HIDDEN
10
192.671325
20
228.112711
30
0.0
11
192.671325
21
227.594050
31
0.0
0
LINE
8
HIDDEN
10
192.671325
20
227.031271
30
0.0
11
192.671325
21
226.446000
31
0.0
0
LINE
8
HIDDEN
10
192.671325
20
228.567320
30
0.0
11
192.671325
21
228.112711
31
0.0
0
LINE
8
HIDDEN
10
192.671325
20
226.446000
30
0.0
11
192.671325
21
209.446000
31
0.0
0
LINE
8
HIDDEN
10
192.671325
20
228.940409
30
0.0
11
192.671325
21
228.567320
31
0.0
0
LINE
8
HIDDEN
10
192.671325
20
209.446000
30
0.0
11
192.671325
21
208.860729
31
0.0
0
LINE
8
HIDDEN
10
192.671325
20
229.217639
30
0.0
11
192.671325
21
228.940409
31
0.0
0
LINE
8
HIDDEN
10
192.671325
20
208.860729
30
0.0
11
192.671325
21
208.297950
31
0.0
0
LINE
8
HIDDEN
10
192.671325
20
229.388356
30
0.0
11
192.671325
21
229.217639
31
0.0
0
LINE
8
HIDDEN
10
192.671325
20
208.297950
30
0.0
11
192.671325
21
207.779289
31
0.0
0
LINE
8
HIDDEN
10
192.671325
20
229.446000
30
0.0
11
192.671325
21
229.388356
31
0.0
0
LINE
8
HIDDEN
10
192.671325
20
207.779289
30
0.0
11
192.671325
21
207.324680
31
0.0
0
LINE
8
HIDDEN
10
192.671325
20
207.324680
30
0.0
11
192.671325
21
206.951591
31
0.0
0
LINE
8
HIDDEN
10
192.671325
20
229.388356
30
0.0
11
192.671325
21
229.446000
31
0.0
0
LINE
8
HIDDEN
10
192.671325
20
206.951591
30
0.0
11
192.671325
21
206.674361
31
0.0
0
LINE
8
HIDDEN
10
192.671325
20
229.217639
30
0.0
11
192.671325
21
229.388356
31
0.0
0
LINE
8
HIDDEN
10
192.671325
20
206.674361
30
0.0
11
192.671325
21
206.503644
31
0.0
0
LINE
8
HIDDEN
10
192.671325
20
228.940409
30
0.0
11
192.671325
21
229.217639
31
0.0
0
LINE
8
HIDDEN
10
192.671325
20
206.503644
30
0.0
11
192.671325
21
206.446000
31
0.0
0
LINE
8
HIDDEN
10
192.671325
20
228.567320
30
0.0
11
192.671325
21
228.940409
31
0.0
0
LINE
8
HIDDEN
10
192.671325
20
228.112711
30
0.0
11
192.671325
21
228.567320
31
0.0
0
LINE
8
HIDDEN
10
192.671325
20
206.446000
30
0.0
11
192.671325
21
206.503644
31
0.0
0
LINE
8
HIDDEN
10
192.671325
20
227.594050
30
0.0
11
192.671325
21
228.112711
31
0.0
0
LINE
8
HIDDEN
10
192.671325
20
206.503644
30
0.0
11
192.671325
21
206.674361
31
0.0
0
LINE
8
HIDDEN
10
192.671325
20
227.031271
30
0.0
11
192.671325
21
227.594050
31
0.0
0
LINE
8
HIDDEN
10
192.671325
20
206.674361
30
0.0
11
192.671325
21
206.951591
31
0.0
0
LINE
8
HIDDEN
10
192.671325
20
226.446000
30
0.0
11
192.671325
21
227.031271
31
0.0
0
LINE
8
HIDDEN
10
192.671325
20
206.951591
30
0.0
11
192.671325
21
207.324680
31
0.0
0
LINE
8
HIDDEN
10
192.671325
20
209.446000
30
0.0
11
192.671325
21
226.446000
31
0.0
0
LINE
8
HIDDEN
10
192.671325
20
207.324680
30
0.0
11
192.671325
21
207.779289
31
0.0
0
LINE
8
HIDDEN
10
192.671325
20
208.860729
30
0.0
11
192.671325
21
209.446000
31
0.0
0
LINE
8
HIDDEN
10
192.671325
20
207.779289
30
0.0
11
192.671325
21
208.297950
31
0.0
0
LINE
8
HIDDEN
10
192.671325
20
208.297950
30
0.0
11
192.671325
21
208.860729
31
0.0
0
LINE
8
HIDDEN
10
192.671325
20
254.000000
30
0.0
11
192.671325
21
242.000000
31
0.0
0
LINE
8
HIDDEN
10
192.671325
20
242.000000
30
0.0
11
192.671325
21
254.000000
31
0.0
0
LINE
8
HIDDEN
10
187.671325
20
205.764942
30
0.0
11
187.671325
21
204.160000
31
0.0
0
LINE
8
HIDDEN
10
187.671325
20
204.160000
30
0.0
11
187.671325
21
206.275005
31
0.0
0
LINE
8
HIDDEN
10
187.671325
20
205.764942
30
0.0
11
187.671325
21
198.826000
31
0.0
0
LINE
8
HIDDEN
10
187.671325
20
198.826000
30
0.0
11
187.671325
21
196.410782
31
0.0
0
LINE
8
HIDDEN
10
187.671325
20
196.410782
30
0.0
11
187.671325
21
194.088379
31
0.0
0
LINE
8
HIDDEN
10
187.671325
20
194.088379
30
0.0
11
187.671325
21
191.948041
31
0.0
0
LINE
8
HIDDEN
10
187.671325
20
191.948041
30
0.0
11
187.671325
21
190.072018
31
0.0
0
LINE
8
HIDDEN
10
187.671325
20
190.072018
30
0.0
11
187.671325
21
188.532406
31
0.0
0
LINE
8
HIDDEN
10
187.671325
20
188.532406
30
0.0
11
187.671325
21
187.388371
31
0.0
0
LINE
8
HIDDEN
10
187.671325
20
187.388371
30
0.0
11
187.671325
21
186.683878
31
0.0
0
LINE
8
HIDDEN
10
187.671325
20
186.683878
30
0.0
11
187.671325
21
186.446000
31
0.0
0
LINE
8
HIDDEN
10
187.671325
20
186.446000
30
0.0
11
187.671325
21
186.683878
31
0.0
0
LINE
8
HIDDEN
10
187.671325
20
186.683878
30
0.0
11
187.671325
21
187.388371
31
0.0
0
LINE
8
HIDDEN
10
187.671325
20
187.388371
30
0.0
11
187.671325
21
188.532406
31
0.0
0
LINE
8
HIDDEN
10
187.671325
20
188.532406
30
0.0
11
187.671325
21
190.072018
31
0.0
0
LINE
8
HIDDEN
10
187.671325
20
190.072018
30
0.0
11
187.671325
21
191.948041
31
0.0
0
LINE
8
HIDDEN
10
187.671325
20
191.948041
30
0.0
11
187.671325
21
194.088379
31
0.0
0
LINE
8
HIDDEN
10
187.671325
20
194.088379
30
0.0
11
187.671325
21
196.410782
31
0.0
0
LINE
8
HIDDEN
10
187.671325
20
196.410782
30
0.0
11
187.671325
21
198.826000
31
0.0
0
LINE
8
HIDDEN
10
187.671325
20
198.826000
30
0.0
11
187.671325
21
205.764942
31
0.0
0
LINE
8
HIDDEN
10
187.671325
20
206.275005
30
0.0
11
187.671325
21
204.160000
31
0.0
0
LINE
8
HIDDEN
10
187.671325
20
204.160000
30
0.0
11
187.671325
21
205.764942
31
0.0
0
LINE
8
HIDDEN
10
187.671325
20
174.000000
30
0.0
11
187.671325
21
154.000000
31
0.0
0
LINE
8
HIDDEN
10
187.671325
20
154.000000
30
0.0
11
187.671325
21
174.000000
31
0.0
0
LINE
8
HIDDEN
10
183.691325
20
241.714000
30
0.0
11
183.691325
21
237.314000
31
0.0
0
LINE
8
HIDDEN
10
183.691325
20
237.314000
30
0.0
11
183.691325
21
241.714000
31
0.0
0
LINE
8
HIDDEN
10
183.691325
20
258.686000
30
0.0
11
183.691325
21
254.286000
31
0.0
0
LINE
8
HIDDEN
10
183.691325
20
254.286000
30
0.0
11
183.691325
21
258.686000
31
0.0
0
LINE
8
HIDDEN
10
183.691325
20
258.686000
30
0.0
11
183.691325
21
254.286000
31
0.0
0
LINE
8
HIDDEN
10
183.691325
20
254.286000
30
0.0
11
183.691325
21
258.686000
31
0.0
0
LINE
8
HIDDEN
10
183.691325
20
241.714000
30
0.0
11
183.691325
21
237.314000
31
0.0
0
LINE
8
HIDDEN
10
183.691325
20
237.314000
30
0.0
11
183.691325
21
241.714000
31
0.0
0
LINE
8
HIDDEN
10
192.671325
20
227.594050
30
0.0
11
183.071325
21
227.594050
31
0.0
0
LINE
8
HIDDEN
10
183.071325
20
227.594050
30
0.0
11
183.071325
21
227.031271
31
0.0
0
LINE
8
HIDDEN
10
192.671325
20
227.031271
30
0.0
11
183.071325
21
227.031271
31
0.0
0
LINE
8
HIDDEN
10
186.671325
20
211.724995
30
0.0
11
186.671325
21
213.840000
31
0.0
0
LINE
8
HIDDEN
10
186.671325
20
213.840000
30
0.0
11
186.671325
21
204.160000
31
0.0
0
LINE
8
HIDDEN
10
186.671325
20
204.160000
30
0.0
11
186.671325
21
206.275005
31
0.0
0
LINE
8
HIDDEN
10
186.671325
20
211.400000
30
0.0
11
186.671325
21
206.600000
31
0.0
0
LINE
8
HIDDEN
10
186.671325
20
206.600000
30
0.0
11
186.671325
21
211.400000
31
0.0
0
LINE
8
HIDDEN
10
186.671325
20
211.400000
30
0.0
11
182.071325
21
211.400000
31
0.0
0
LINE
8
HIDDEN
10
182.071325
20
211.400000
30
0.0
11
182.071325
21
211.181742
31
0.0
0
LINE
8
HIDDEN
10
183.071325
20
211.181742
30
0.0
11
183.071325
21
206.818258
31
0.0
0
LINE
8
HIDDEN
10
182.071325
20
206.818258
30
0.0
11
182.071325
21
206.600000
31
0.0
0
LINE
8
HIDDEN
10
182.071325
20
206.600000
30
0.0
11
182.071325
21
206.818258
31
0.0
0
LINE
8
HIDDEN
10
183.071325
20
206.818258
30
0.0
11
183.071325
21
211.181742
31
0.0
0
LINE
8
HIDDEN
10
182.071325
20
211.181742
30
0.0
11
182.071325
21
211.400000
31
0.0
0
LINE
8
HIDDEN
10
183.071325
20
229.217639
30
0.0
11
183.071325
21
229.388356
31
0.0
0
LINE
8
HIDDEN
10
183.071325
20
228.940409
30
0.0
11
183.071325
21
229.217639
31
0.0
0
LINE
8
HIDDEN
10
183.071325
20
228.567320
30
0.0
11
183.071325
21
228.940409
31
0.0
0
LINE
8
HIDDEN
10
183.071325
20
228.112711
30
0.0
11
183.071325
21
228.567320
31
0.0
0
LINE
8
HIDDEN
10
183.071325
20
227.594050
30
0.0
11
183.071325
21
228.112711
31
0.0
0
LINE
8
HIDDEN
10
183.071325
20
227.031271
30
0.0
11
183.071325
21
227.594050
31
0.0
0
LINE
8
HIDDEN
10
183.071325
20
226.446000
30
0.0
11
183.071325
21
227.031271
31
0.0
0
LINE
8
HIDDEN
10
183.071325
20
209.446000
30
0.0
11
183.071325
21
226.446000
31
0.0
0
LINE
8
HIDDEN
10
183.071325
20
208.860729
30
0.0
11
183.071325
21
209.446000
31
0.0
0
LINE
8
HIDDEN
10
183.071325
20
208.297950
30
0.0
11
183.071325
21
208.860729
31
0.0
0
LINE
8
HIDDEN
10
183.071325
20
207.779289
30
0.0
11
183.071325
21
208.297950
31
0.0
0
LINE
8
HIDDEN
10
183.071325
20
207.324680
30
0.0
11
183.071325
21
207.779289
31
0.0
0
LINE
8
HIDDEN
10
183.071325
20
206.951591
30
0.0
11
183.071325
21
207.324680
31
0.0
0
LINE
8
HIDDEN
10
183.071325
20
206.674361
30
0.0
11
183.071325
21
206.951591
31
0.0
0
LINE
8
HIDDEN
10
183.071325
20
206.503644
30
0.0
11
183.071325
21
206.674361
31
0.0
0
LINE
8
HIDDEN
10
183.071325
20
206.446000
30
0.0
11
183.071325
21
206.503644
31
0.0
0
LINE
8
HIDDEN
10
183.071325
20
206.503644
30
0.0
11
183.071325
21
206.446000
31
0.0
0
LINE
8
HIDDEN
10
183.071325
20
206.674361
30
0.0
11
183.071325
21
206.503644
31
0.0
0
LINE
8
HIDDEN
10
183.071325
20
206.951591
30
0.0
11
183.071325
21
206.674361
31
0.0
0
LINE
8
HIDDEN
10
183.071325
20
207.324680
30
0.0
11
183.071325
21
206.951591
31
0.0
0
LINE
8
HIDDEN
10
183.071325
20
207.779289
30
0.0
11
183.071325
21
207.324680
31
0.0
0
LINE
8
HIDDEN
10
183.071325
20
208.297950
30
0.0
11
183.071325
21
207.779289
31
0.0
0
LINE
8
HIDDEN
10
183.071325
20
208.860729
30
0.0
11
183.071325
21
208.297950
31
0.0
0
LINE
8
HIDDEN
10
183.071325
20
209.446000
30
0.0
11
183.071325
21
208.860729
31
0.0
0
LINE
8
HIDDEN
10
183.071325
20
226.446000
30
0.0
11
183.071325
21
209.446000
31
0.0
0
LINE
8
HIDDEN
10
183.071325
20
227.031271
30
0.0
11
183.071325
21
226.446000
31
0.0
0
LINE
8
HIDDEN
10
183.071325
20
228.112711
30
0.0
11
183.071325
21
227.594050
31
0.0
0
LINE
8
HIDDEN
10
183.071325
20
228.567320
30
0.0
11
183.071325
21
228.112711
31
0.0
0
LINE
8
HIDDEN
10
183.071325
20
228.940409
30
0.0
11
183.071325
21
228.567320
31
0.0
0
LINE
8
HIDDEN
10
183.071325
20
229.388356
30
0.0
11
183.071325
21
229.217639
31
0.0
0
LINE
8
HIDDEN
10
183.071325
20
229.217639
30
0.0
11
183.071325
21
228.940409
31
0.0
0
LINE
8
HIDDEN
10
183.071325
20
194.446000
30
0.0
11
183.071325
21
206.818258
31
0.0
0
LINE
8
HIDDEN
10
183.071325
20
194.446000
30
0.0
11
183.071325
21
206.818258
31
0.0
0
LINE
8
HIDDEN
10
183.071325
20
211.181742
30
0.0
11
183.071325
21
222.446000
31
0.0
0
LINE
8
HIDDEN
10
183.071325
20
211.181742
30
0.0
11
183.071325
21
222.446000
31
0.0
0
LINE
8
HIDDEN
10
183.071325
20
211.446000
30
0.0
11
183.071325
21
222.446000
31
0.0
0
LINE
8
HIDDEN
10
183.071325
20
211.446000
30
0.0
11
183.071325
21
222.446000
31
0.0
0
LINE
8
HIDDEN
10
183.071325
20
174.000000
30
0.0
11
183.071325
21
154.000000
31
0.0
0
LINE
8
HIDDEN
10
183.071325
20
154.000000
30
0.0
11
183.071325
21
174.000000
31
0.0
0
LINE
8
HIDDEN
10
183.071325
20
211.446000
30
0.0
11
183.071325
21
222.446000
31
0.0
0
LINE
8
HIDDEN
10
183.071325
20
211.446000
30
0.0
11
183.071325
21
222.446000
31
0.0
0
LINE
8
HIDDEN
10
183.071325
20
194.446000
30
0.0
11
183.071325
21
206.818258
31
0.0
0
LINE
8
HIDDEN
10
183.071325
20
194.446000
30
0.0
11
183.071325
21
206.818258
31
0.0
0
LINE
8
HIDDEN
10
183.071325
20
211.181742
30
0.0
11
183.071325
21
222.446000
31
0.0
0
LINE
8
HIDDEN
10
183.071325
20
211.181742
30
0.0
11
183.071325
21
222.446000
31
0.0
0
LINE
8
HIDDEN
10
192.671325
20
228.112711
30
0.0
11
183.071325
21
228.112711
31
0.0
0
LINE
8
HIDDEN
10
192.671325
20
226.446000
30
0.0
11
183.071325
21
226.446000
31
0.0
0
LINE
8
HIDDEN
10
192.671325
20
228.567320
30
0.0
11
183.071325
21
228.567320
31
0.0
0
LINE
8
HIDDEN
10
192.671325
20
209.446000
30
0.0
11
183.071325
21
209.446000
31
0.0
0
LINE
8
HIDDEN
10
192.671325
20
228.940409
30
0.0
11
183.071325
21
228.940409
31
0.0
0
LINE
8
HIDDEN
10
192.671325
20
208.860729
30
0.0
11
183.071325
21
208.860729
31
0.0
0
LINE
8
HIDDEN
10
192.671325
20
229.217639
30
0.0
11
183.071325
21
229.217639
31
0.0
0
LINE
8
HIDDEN
10
192.671325
20
208.297950
30
0.0
11
183.071325
21
208.297950
31
0.0
0
LINE
8
HIDDEN
10
192.671325
20
229.388356
30
0.0
11
183.071325
21
229.388356
31
0.0
0
LINE
8
HIDDEN
10
192.671325
20
207.779289
30
0.0
11
183.071325
21
207.779289
31
0.0
0
LINE
8
HIDDEN
10
192.671325
20
229.446000
30
0.0
11
183.071325
21
229.446000
31
0.0
0
LINE
8
HIDDEN
10
192.671325
20
207.324680
30
0.0
11
183.071325
21
207.324680
31
0.0
0
LINE
8
HIDDEN
10
192.671325
20
206.951591
30
0.0
11
183.071325
21
206.951591
31
0.0
0
LINE
8
HIDDEN
10
192.671325
20
229.446000
30
0.0
11
183.071325
21
229.446000
31
0.0
0
LINE
8
HIDDEN
10
192.671325
20
229.388356
30
0.0
11
183.071325
21
229.388356
31
0.0
0
LINE
8
HIDDEN
10
192.671325
20
206.674361
30
0.0
11
183.071325
21
206.674361
31
0.0
0
LINE
8
HIDDEN
10
192.671325
20
229.217639
30
0.0
11
183.071325
21
229.217639
31
0.0
0
LINE
8
HIDDEN
10
192.671325
20
206.503644
30
0.0
11
183.071325
21
206.503644
31
0.0
0
LINE
8
HIDDEN
10
192.671325
20
228.940409
30
0.0
11
183.071325
21
228.940409
31
0.0
0
LINE
8
HIDDEN
10
192.671325
20
206.446000
30
0.0
11
183.071325
21
206.446000
31
0.0
0
LINE
8
HIDDEN
10
192.671325
20
228.567320
30
0.0
11
183.071325
21
228.567320
31
0.0
0
LINE
8
HIDDEN
10
192.671325
20
206.446000
30
0.0
11
183.071325
21
206.446000
31
0.0
0
LINE
8
HIDDEN
10
192.671325
20
228.112711
30
0.0
11
183.071325
21
228.112711
31
0.0
0
LINE
8
HIDDEN
10
192.671325
20
206.503644
30
0.0
11
183.071325
21
206.503644
31
0.0
0
LINE
8
HIDDEN
10
192.671325
20
227.594050
30
0.0
11
183.071325
21
227.594050
31
0.0
0
LINE
8
HIDDEN
10
192.671325
20
206.674361
30
0.0
11
183.071325
21
206.674361
31
0.0
0
LINE
8
HIDDEN
10
192.671325
20
227.031271
30
0.0
11
183.071325
21
227.031271
31
0.0
0
LINE
8
HIDDEN
10
192.671325
20
206.951591
30
0.0
11
183.071325
21
206.951591
31
0.0
0
LINE
8
HIDDEN
10
192.671325
20
226.446000
30
0.0
11
183.071325
21
226.446000
31
0.0
0
LINE
8
HIDDEN
10
192.671325
20
207.324680
30
0.0
11
183.071325
21
207.324680
31
0.0
0
LINE
8
HIDDEN
10
192.671325
20
209.446000
30
0.0
11
183.071325
21
209.446000
31
0.0
0
LINE
8
HIDDEN
10
192.671325
20
207.779289
30
0.0
11
183.071325
21
207.779289
31
0.0
0
LINE
8
HIDDEN
10
192.671325
20
208.860729
30
0.0
11
183.071325
21
208.860729
31
0.0
0
LINE
8
HIDDEN
10
192.671325
20
208.297950
30
0.0
11
183.071325
21
208.297950
31
0.0
0
LINE
8
HIDDEN
10
192.671325
20
254.000000
30
0.0
11
178.171325
21
254.000000
31
0.0
0
LINE
8
HIDDEN
10
183.691325
20
241.714000
30
0.0
11
178.171325
21
241.714000
31
0.0
0
LINE
8
HIDDEN
10
183.691325
20
258.686000
30
0.0
11
178.171325
21
258.686000
31
0.0
0
LINE
8
HIDDEN
10
183.691325
20
258.686000
30
0.0
11
178.171325
21
258.686000
31
0.0
0
LINE
8
HIDDEN
10
183.691325
20
241.714000
30
0.0
11
178.171325
21
241.714000
31
0.0
0
LINE
8
HIDDEN
10
183.071325
20
211.446000
30
0.0
11
178.171325
21
211.446000
31
0.0
0
LINE
8
HIDDEN
10
183.071325
20
211.446000
30
0.0
11
178.171325
21
211.446000
31
0.0
0
LINE
8
HIDDEN
10
183.071325
20
211.446000
30
0.0
11
178.171325
21
211.446000
31
0.0
0
LINE
8
HIDDEN
10
183.071325
20
211.446000
30
0.0
11
178.171325
21
211.446000
31
0.0
0
LINE
8
HIDDEN
10
194.071325
20
169.500000
30
0.0
11
194.071325
21
158.500000
31
0.0
0
LINE
8
HIDDEN
10
194.071325
20
158.500000
30
0.0
11
194.071325
21
169.500000
31
0.0
0
LINE
8
HIDDEN
10
182.071325
20
172.000000
30
0.0
11
182.071325
21
156.000000
31
0.0
0
LINE
8
HIDDEN
10
182.071325
20
156.000000
30
0.0
11
182.071325
21
172.000000
31
0.0
0
LINE
8
HIDDEN
10
194.071325
20
169.500000
30
0.0
11
187.091325
21
169.500000
31
0.0
0
LINE
8
HIDDEN
10
187.091325
20
169.500000
30
0.0
11
187.091325
21
158.500000
31
0.0
0
LINE
8
HIDDEN
10
187.091325
20
158.500000
30
0.0
11
187.091325
21
169.500000
31
0.0
0
LINE
8
HIDDEN
10
183.071325
20
172.000000
30
0.0
11
182.071325
21
172.000000
31
0.0
0
LINE
8
HIDDEN
10
183.071325
20
172.000000
30
0.0
11
183.071325
21
156.000000
31
0.0
0
LINE
8
HIDDEN
10
183.071325
20
156.000000
30
0.0
11
183.071325
21
172.000000
31
0.0
0
LINE
8
HIDDEN
10
187.091325
20
166.700000
30
0.0
11
187.091325
21
161.300000
31
0.0
0
LINE
8
HIDDEN
10
187.091325
20
161.300000
30
0.0
11
187.091325
21
166.700000
31
0.0
0
LINE
8
HIDDEN
10
183.071325
20
168.920000
30
0.0
11
183.071325
21
159.080000
31
0.0
0
LINE
8
HIDDEN
10
183.071325
20
159.080000
30
0.0
11
183.071325
21
168.920000
31
0.0
0
LINE
8
HIDDEN
10
187.091325
20
166.700000
30
0.0
11
178.491325
21
166.700000
31
0.0
0
LINE
8
HIDDEN
10
178.491325
20
166.700000
30
0.0
11
178.491325
21
161.300000
31
0.0
0
LINE
8
HIDDEN
10
178.491325
20
161.300000
30
0.0
11
178.491325
21
166.700000
31
0.0
0
LINE
8
HIDDEN
10
183.071325
20
168.920000
30
0.0
11
182.071325
21
168.920000
31
0.0
0
LINE
8
HIDDEN
10
186.671325
20
206.600000
30
0.0
11
182.071325
21
206.600000
31
0.0
0
LINE
8
HIDDEN
10
192.671325
20
235.114000
30
0.0
11
183.691325
21
235.114000
31
0.0
0
LINE
8
HIDDEN
10
192.671325
20
252.086000
30
0.0
11
183.691325
21
252.086000
31
0.0
0
LINE
8
HIDDEN
10
192.671325
20
252.086000
30
0.0
11
183.691325
21
252.086000
31
0.0
0
LINE
8
HIDDEN
10
192.671325
20
235.114000
30
0.0
11
183.691325
21
235.114000
31
0.0
0
LINE
8
HIDDEN
10
186.671325
20
206.600000
30
0.0
11
182.071325
21
206.600000
31
0.0
0
LINE
8
HIDDEN
10
192.671325
20
242.000000
30
0.0
11
178.171325
21
242.000000
31
0.0
0
LINE
8
HIDDEN
10
183.691325
20
237.314000
30
0.0
11
178.171325
21
237.314000
31
0.0
0
LINE
8
HIDDEN
10
183.691325
20
254.286000
30
0.0
11
178.171325
21
254.286000
31
0.0
0
LINE
8
HIDDEN
10
183.691325
20
254.286000
30
0.0
11
178.171325
21
254.286000
31
0.0
0
LINE
8
HIDDEN
10
183.691325
20
237.314000
30
0.0
11
178.171325
21
237.314000
31
0.0
0
LINE
8
HIDDEN
10
194.071325
20
158.500000
30
0.0
11
187.091325
21
158.500000
31
0.0
0
LINE
8
HIDDEN
10
183.071325
20
156.000000
30
0.0
11
182.071325
21
156.000000
31
0.0
0
LINE
8
HIDDEN
10
187.091325
20
161.300000
30
0.0
11
178.491325
21
161.300000
31
0.0
0
LINE
8
HIDDEN
10
183.071325
20
159.080000
30
0.0
11
182.071325
21
159.080000
31
0.0
0
LINE
8
HIDDEN
10
187.671325
20
204.160000
30
0.0
11
186.671325
21
204.160000
31
0.0
0
LINE
8
HIDDEN
10
187.671325
20
213.840000
30
0.0
11
186.671325
21
213.840000
31
0.0
0
LINE
8
HIDDEN
10
187.671325
20
204.160000
30
0.0
11
186.671325
21
204.160000
31
0.0
0
LINE
8
HIDDEN
10
187.671325
20
213.840000
30
0.0
11
186.671325
21
213.840000
31
0.0
0
LINE
8
VISIBLE
10
321.971325
20
248.000000
30
0.0
11
321.971325
21
229.446000
31
0.0
0
LINE
8
VISIBLE
10
321.971325
20
250.610524
30
0.0
11
321.971325
21
248.000000
31
0.0
0
LINE
8
VISIBLE
10
321.971325
20
253.176381
30
0.0
11
321.971325
21
250.610524
31
0.0
0
LINE
8
VISIBLE
10
321.971325
20
255.653669
30
0.0
11
321.971325
21
253.176381
31
0.0
0
LINE
8
VISIBLE
10
321.971325
20
258.000000
30
0.0
11
321.971325
21
255.653669
31
0.0
0
LINE
8
VISIBLE
10
321.971325
20
260.175229
30
0.0
11
321.971325
21
258.000000
31
0.0
0
LINE
8
VISIBLE
10
321.971325
20
262.142136
30
0.0
11
321.971325
21
260.175229
31
0.0
0
LINE
8
VISIBLE
10
321.971325
20
263.867067
30
0.0
11
321.971325
21
262.142136
31
0.0
0
LINE
8
VISIBLE
10
321.971325
20
265.320508
30
0.0
11
321.971325
21
263.867067
31
0.0
0
LINE
8
VISIBLE
10
321.971325
20
266.477591
30
0.0
11
321.971325
21
265.320508
31
0.0
0
LINE
8
VISIBLE
10
321.971325
20
267.318517
30
0.0
11
321.971325
21
266.477591
31
0.0
0
LINE
8
VISIBLE
10
321.971325
20
267.828897
30
0.0
11
321.971325
21
267.318517
31
0.0
0
LINE
8
VISIBLE
10
321.971325
20
268.000000
30
0.0
11
321.971325
21
267.828897
31
0.0
0
LINE
8
VISIBLE
10
327.571325
20
248.000000
30
0.0
11
327.571325
21
211.724995
31
0.0
0
LINE
8
VISIBLE
10
327.571325
20
211.724995
30
0.0
11
326.571325
21
211.724995
31
0.0
0
LINE
8
VISIBLE
10
326.571325
20
211.724995
30
0.0
11
326.571325
21
206.275005
31
0.0
0
LINE
8
VISIBLE
10
327.571325
20
206.275005
30
0.0
11
326.571325
21
206.275005
31
0.0
0
LINE
8
VISIBLE
10
327.571325
20
206.275005
30
0.0
11
327.571325
21
192.446000
31
0.0
0
LINE
8
VISIBLE
10
327.571325
20
192.446000
30
0.0
11
322.971325
21
192.446000
31
0.0
0
LINE
8
VISIBLE
10
322.971325
20
229.446000
30
0.0
11
322.971325
21
192.446000
31
0.0
0
LINE
8
VISIBLE
10
327.571325
20
248.000000
30
0.0
11
321.971325
21
248.000000
31
0.0
0
LINE
8
VISIBLE
10
327.571325
20
250.610524
30
0.0
11
327.571325
21
248.000000
31
0.0
0
LINE
8
VISIBLE
10
327.571325
20
250.610524
30
0.0
11
321.971325
21
250.610524
31
0.0
0
LINE
8
VISIBLE
10
327.571325
20
253.176381
30
0.0
11
327.571325
21
250.610524
31
0.0
0
LINE
8
VISIBLE
10
327.571325
20
253.176381
30
0.0
11
321.971325
21
253.176381
31
0.0
0
LINE
8
VISIBLE
10
327.571325
20
255.653669
30
0.0
11
327.571325
21
253.176381
31
0.0
0
LINE
8
VISIBLE
10
327.571325
20
255.653669
30
0.0
11
321.971325
21
255.653669
31
0.0
0
LINE
8
VISIBLE
10
327.571325
20
258.000000
30
0.0
11
327.571325
21
255.653669
31
0.0
0
LINE
8
VISIBLE
10
327.571325
20
258.000000
30
0.0
11
321.971325
21
258.000000
31
0.0
0
LINE
8
VISIBLE
10
327.571325
20
260.175229
30
0.0
11
327.571325
21
258.000000
31
0.0
0
LINE
8
VISIBLE
10
327.571325
20
260.175229
30
0.0
11
321.971325
21
260.175229
31
0.0
0
LINE
8
VISIBLE
10
327.571325
20
262.142136
30
0.0
11
327.571325
21
260.175229
31
0.0
0
LINE
8
VISIBLE
10
327.571325
20
262.142136
30
0.0
11
321.971325
21
262.142136
31
0.0
0
LINE
8
VISIBLE
10
327.571325
20
263.867067
30
0.0
11
327.571325
21
262.142136
31
0.0
0
LINE
8
VISIBLE
10
327.571325
20
263.867067
30
0.0
11
321.971325
21
263.867067
31
0.0
0
LINE
8
VISIBLE
10
327.571325
20
265.320508
30
0.0
11
327.571325
21
263.867067
31
0.0
0
LINE
8
VISIBLE
10
327.571325
20
265.320508
30
0.0
11
321.971325
21
265.320508
31
0.0
0
LINE
8
VISIBLE
10
327.571325
20
266.477591
30
0.0
11
327.571325
21
265.320508
31
0.0
0
LINE
8
VISIBLE
10
327.571325
20
266.477591
30
0.0
11
321.971325
21
266.477591
31
0.0
0
LINE
8
VISIBLE
10
327.571325
20
267.318517
30
0.0
11
327.571325
21
266.477591
31
0.0
0
LINE
8
VISIBLE
10
327.571325
20
267.318517
30
0.0
11
321.971325
21
267.318517
31
0.0
0
LINE
8
VISIBLE
10
327.571325
20
267.828897
30
0.0
11
327.571325
21
267.318517
31
0.0
0
LINE
8
VISIBLE
10
327.571325
20
267.828897
30
0.0
11
321.971325
21
267.828897
31
0.0
0
LINE
8
VISIBLE
10
327.571325
20
268.000000
30
0.0
11
327.571325
21
267.828897
31
0.0
0
LINE
8
VISIBLE
10
327.571325
20
268.000000
30
0.0
11
321.971325
21
268.000000
31
0.0
0
LINE
8
VISIBLE
10
321.971325
20
263.900000
30
0.0
11
318.071325
21
263.900000
31
0.0
0
LINE
8
VISIBLE
10
318.071325
20
263.900000
30
0.0
11
318.071325
21
232.100000
31
0.0
0
LINE
8
VISIBLE
10
332.571325
20
186.683878
30
0.0
11
332.571325
21
186.446000
31
0.0
0
LINE
8
VISIBLE
10
332.571325
20
187.388371
30
0.0
11
332.571325
21
186.683878
31
0.0
0
LINE
8
VISIBLE
10
332.571325
20
188.532406
30
0.0
11
332.571325
21
187.388371
31
0.0
0
LINE
8
VISIBLE
10
332.571325
20
190.072018
30
0.0
11
332.571325
21
188.532406
31
0.0
0
LINE
8
VISIBLE
10
332.571325
20
191.948041
30
0.0
11
332.571325
21
190.072018
31
0.0
0
LINE
8
VISIBLE
10
332.571325
20
194.088379
30
0.0
11
332.571325
21
191.948041
31
0.0
0
LINE
8
VISIBLE
10
332.571325
20
196.410782
30
0.0
11
332.571325
21
194.088379
31
0.0
0
LINE
8
VISIBLE
10
332.571325
20
198.826000
30
0.0
11
332.571325
21
196.410782
31
0.0
0
LINE
8
VISIBLE
10
332.571325
20
205.764942
30
0.0
11
332.571325
21
198.826000
31
0.0
0
LINE
8
VISIBLE
10
332.571325
20
205.764942
30
0.0
11
332.571325
21
212.235058
31
0.0
0
LINE
8
VISIBLE
10
332.571325
20
237.503875
30
0.0
11
332.571325
21
212.235058
31
0.0
0
LINE
8
VISIBLE
10
332.571325
20
237.503875
30
0.0
11
332.571325
21
241.524125
31
0.0
0
LINE
8
VISIBLE
10
332.571325
20
247.066000
30
0.0
11
332.571325
21
241.524125
31
0.0
0
LINE
8
VISIBLE
10
332.571325
20
249.481218
30
0.0
11
332.571325
21
247.066000
31
0.0
0
LINE
8
VISIBLE
10
332.571325
20
251.803621
30
0.0
11
332.571325
21
249.481218
31
0.0
0
LINE
8
VISIBLE
10
332.571325
20
252.817634
30
0.0
11
332.571325
21
251.803621
31
0.0
0
LINE
8
VISIBLE
10
332.571325
20
252.817634
30
0.0
11
332.571325
21
258.551205
31
0.0
0
LINE
8
VISIBLE
10
332.571325
20
259.208122
30
0.0
11
332.571325
21
258.551205
31
0.0
0
LINE
8
VISIBLE
10
332.571325
20
259.446000
30
0.0
11
332.571325
21
259.208122
31
0.0
0
LINE
8
VISIBLE
10
322.971325
20
229.446000
30
0.0
11
322.971325
21
229.388356
31
0.0
0
LINE
8
VISIBLE
10
322.971325
20
152.102662
30
0.0
11
322.971325
21
152.000000
31
0.0
0
LINE
8
VISIBLE
10
322.971325
20
152.408890
30
0.0
11
322.971325
21
152.102662
31
0.0
0
LINE
8
VISIBLE
10
322.971325
20
152.913446
30
0.0
11
322.971325
21
152.408890
31
0.0
0
LINE
8
VISIBLE
10
322.971325
20
153.607695
30
0.0
11
322.971325
21
152.913446
31
0.0
0
LINE
8
VISIBLE
10
322.971325
20
154.479760
30
0.0
11
322.971325
21
153.607695
31
0.0
0
LINE
8
VISIBLE
10
322.971325
20
155.514719
30
0.0
11
322.971325
21
154.479760
31
0.0
0
LINE
8
VISIBLE
10
322.971325
20
156.694863
30
0.0
11
322.971325
21
155.514719
31
0.0
0
LINE
8
VISIBLE
10
322.971325
20
158.000000
30
0.0
11
322.971325
21
156.694863
31
0.0
0
LINE
8
VISIBLE
10
322.971325
20
159.407799
30
0.0
11
322.971325
21
158.000000
31
0.0
0
LINE
8
VISIBLE
10
322.971325
20
160.894171
30
0.0
11
322.971325
21
159.407799
31
0.0
0
LINE
8
VISIBLE
10
322.971325
20
162.433686
30
0.0
11
322.971325
21
160.894171
31
0.0
0
LINE
8
VISIBLE
10
322.971325
20
164.000000
30
0.0
11
322.971325
21
162.433686
31
0.0
0
LINE
8
VISIBLE
10
322.971325
20
192.446000
30
0.0
11
322.971325
21
164.000000
31
0.0
0
LINE
8
VISIBLE
10
326.571325
20
206.275005
30
0.0
11
326.571325
21
206.600000
31
0.0
0
LINE
8
VISIBLE
10
326.571325
20
211.400000
30
0.0
11
326.571325
21
211.724995
31
0.0
0
LINE
8
VISIBLE
10
332.571325
20
205.764942
30
0.0
11
327.571325
21
205.764942
31
0.0
0
LINE
8
VISIBLE
10
332.571325
20
212.235058
30
0.0
11
327.571325
21
212.235058
31
0.0
0
LINE
8
VISIBLE
10
327.571325
20
152.102662
30
0.0
11
327.571325
21
152.000000
31
0.0
0
LINE
8
VISIBLE
10
327.571325
20
152.408890
30
0.0
11
327.571325
21
152.102662
31
0.0
0
LINE
8
VISIBLE
10
327.571325
20
152.913446
30
0.0
11
327.571325
21
152.408890
31
0.0
0
LINE
8
VISIBLE
10
327.571325
20
153.607695
30
0.0
11
327.571325
21
152.913446
31
0.0
0
LINE
8
VISIBLE
10
327.571325
20
154.479760
30
0.0
11
327.571325
21
153.607695
31
0.0
0
LINE
8
VISIBLE
10
327.571325
20
155.514719
30
0.0
11
327.571325
21
154.479760
31
0.0
0
LINE
8
VISIBLE
10
327.571325
20
156.694863
30
0.0
11
327.571325
21
155.514719
31
0.0
0
LINE
8
VISIBLE
10
327.571325
20
158.000000
30
0.0
11
327.571325
21
156.694863
31
0.0
0
LINE
8
VISIBLE
10
327.571325
20
159.407799
30
0.0
11
327.571325
21
158.000000
31
0.0
0
LINE
8
VISIBLE
10
327.571325
20
160.894171
30
0.0
11
327.571325
21
159.407799
31
0.0
0
LINE
8
VISIBLE
10
327.571325
20
162.433686
30
0.0
11
327.571325
21
160.894171
31
0.0
0
LINE
8
VISIBLE
10
327.571325
20
164.000000
30
0.0
11
327.571325
21
162.433686
31
0.0
0
LINE
8
VISIBLE
10
327.571325
20
192.446000
30
0.0
11
327.571325
21
164.000000
31
0.0
0
LINE
8
VISIBLE
10
327.571325
20
164.000000
30
0.0
11
322.971325
21
164.000000
31
0.0
0
LINE
8
VISIBLE
10
333.971325
20
174.000000
30
0.0
11
327.571325
21
174.000000
31
0.0
0
LINE
8
VISIBLE
10
333.971325
20
174.000000
30
0.0
11
333.971325
21
154.000000
31
0.0
0
LINE
8
VISIBLE
10
322.971325
20
174.000000
30
0.0
11
321.971325
21
174.000000
31
0.0
0
LINE
8
VISIBLE
10
321.971325
20
174.000000
30
0.0
11
321.971325
21
154.000000
31
0.0
0
LINE
8
VISIBLE
10
332.571325
20
186.446000
30
0.0
11
327.571325
21
186.446000
31
0.0
0
LINE
8
VISIBLE
10
332.571325
20
186.683878
30
0.0
11
327.571325
21
186.683878
31
0.0
0
LINE
8
VISIBLE
10
332.571325
20
187.388371
30
0.0
11
327.571325
21
187.388371
31
0.0
0
LINE
8
VISIBLE
10
332.571325
20
188.532406
30
0.0
11
327.571325
21
188.532406
31
0.0
0
LINE
8
VISIBLE
10
332.571325
20
190.072018
30
0.0
11
327.571325
21
190.072018
31
0.0
0
LINE
8
VISIBLE
10
332.571325
20
191.948041
30
0.0
11
327.571325
21
191.948041
31
0.0
0
LINE
8
VISIBLE
10
332.571325
20
194.088379
30
0.0
11
327.571325
21
194.088379
31
0.0
0
LINE
8
VISIBLE
10
332.571325
20
196.410782
30
0.0
11
327.571325
21
196.410782
31
0.0
0
LINE
8
VISIBLE
10
332.571325
20
198.826000
30
0.0
11
327.571325
21
198.826000
31
0.0
0
LINE
8
VISIBLE
10
332.571325
20
237.503875
30
0.0
11
327.571325
21
237.503875
31
0.0
0
LINE
8
VISIBLE
10
332.571325
20
241.524125
30
0.0
11
327.571325
21
241.524125
31
0.0
0
LINE
8
VISIBLE
10
332.571325
20
247.066000
30
0.0
11
327.571325
21
247.066000
31
0.0
0
LINE
8
VISIBLE
10
332.571325
20
249.481218
30
0.0
11
327.571325
21
249.481218
31
0.0
0
LINE
8
VISIBLE
10
332.571325
20
251.803621
30
0.0
11
327.571325
21
251.803621
31
0.0
0
LINE
8
VISIBLE
10
332.571325
20
252.817634
30
0.0
11
327.571325
21
252.817634
31
0.0
0
LINE
8
VISIBLE
10
332.571325
20
258.551205
30
0.0
11
327.571325
21
258.551205
31
0.0
0
LINE
8
VISIBLE
10
332.571325
20
259.208122
30
0.0
11
327.571325
21
259.208122
31
0.0
0
LINE
8
VISIBLE
10
332.571325
20
259.446000
30
0.0
11
327.571325
21
259.446000
31
0.0
0
LINE
8
VISIBLE
10
327.571325
20
152.000000
30
0.0
11
322.971325
21
152.000000
31
0.0
0
LINE
8
VISIBLE
10
327.571325
20
152.102662
30
0.0
11
322.971325
21
152.102662
31
0.0
0
LINE
8
VISIBLE
10
327.571325
20
152.408890
30
0.0
11
322.971325
21
152.408890
31
0.0
0
LINE
8
VISIBLE
10
327.571325
20
152.913446
30
0.0
11
322.971325
21
152.913446
31
0.0
0
LINE
8
VISIBLE
10
327.571325
20
153.607695
30
0.0
11
322.971325
21
153.607695
31
0.0
0
LINE
8
VISIBLE
10
327.571325
20
154.479760
30
0.0
11
322.971325
21
154.479760
31
0.0
0
LINE
8
VISIBLE
10
327.571325
20
155.514719
30
0.0
11
322.971325
21
155.514719
31
0.0
0
LINE
8
VISIBLE
10
327.571325
20
156.694863
30
0.0
11
322.971325
21
156.694863
31
0.0
0
LINE
8
VISIBLE
10
327.571325
20
158.000000
30
0.0
11
322.971325
21
158.000000
31
0.0
0
LINE
8
VISIBLE
10
327.571325
20
159.407799
30
0.0
11
322.971325
21
159.407799
31
0.0
0
LINE
8
VISIBLE
10
327.571325
20
160.894171
30
0.0
11
322.971325
21
160.894171
31
0.0
0
LINE
8
VISIBLE
10
327.571325
20
162.433686
30
0.0
11
322.971325
21
162.433686
31
0.0
0
LINE
8
VISIBLE
10
322.971325
20
194.446000
30
0.0
11
321.971325
21
194.446000
31
0.0
0
LINE
8
VISIBLE
10
322.971325
20
211.181742
30
0.0
11
321.971325
21
211.181742
31
0.0
0
LINE
8
VISIBLE
10
322.971325
20
206.818258
30
0.0
11
321.971325
21
206.818258
31
0.0
0
LINE
8
VISIBLE
10
321.971325
20
194.446000
30
0.0
11
321.971325
21
206.818258
31
0.0
0
LINE
8
VISIBLE
10
321.971325
20
211.181742
30
0.0
11
321.971325
21
211.446000
31
0.0
0
LINE
8
VISIBLE
10
321.971325
20
211.446000
30
0.0
11
318.071325
21
211.446000
31
0.0
0
LINE
8
VISIBLE
10
321.971325
20
168.920000
30
0.0
11
318.391325
21
168.920000
31
0.0
0
LINE
8
VISIBLE
10
318.391325
20
168.920000
30
0.0
11
318.391325
21
159.080000
31
0.0
0
LINE
8
VISIBLE
10
321.971325
20
232.100000
30
0.0
11
318.071325
21
232.100000
31
0.0
0
LINE
8
VISIBLE
10
333.971325
20
154.000000
30
0.0
11
327.571325
21
154.000000
31
0.0
0
LINE
8
VISIBLE
10
322.971325
20
154.000000
30
0.0
11
321.971325
21
154.000000
31
0.0
0
LINE
8
VISIBLE
10
321.971325
20
159.080000
30
0.0
11
318.391325
21
159.080000
31
0.0
0
LINE
8
SECTION
10
327.571325
20
260.886000
30
0.0
11
323.591325
21
260.886000
31
0.0
0
LINE
8
SECTION
10
323.591325
20
258.686000
30
0.0
11
323.591325
21
260.886000
31
0.0
0
LINE
8
SECTION
10
323.591325
20
258.686000
30
0.0
11
318.071325
21
258.686000
31
0.0
0
LINE
8
SECTION
10
318.071325
20
258.686000
30
0.0
11
318.071325
21
261.446107
31
0.0
0
LINE
8
SECTION
10
321.971325
20
261.446107
30
0.0
11
318.071325
21
261.446107
31
0.0
0
LINE
8
SECTION
10
321.971325
20
261.446107
30
0.0
11
321.971325
21
266.067130
31
0.0
0
LINE
8
SECTION
10
321.971325
20
266.067130
30
0.0
11
327.571325
21
266.067130
31
0.0
0
LINE
8
SECTION
10
327.571325
20
260.886000
30
0.0
11
327.571325
21
266.067130
31
0.0
0
LINE
8
SECTION
10
321.971325
20
229.446000
30
0.0
11
321.971325
21
234.553893
31
0.0
0
LINE
8
SECTION
10
321.971325
20
234.553893
30
0.0
11
318.071325
21
234.553893
31
0.0
0
LINE
8
SECTION
10
318.071325
20
234.553893
30
0.0
11
318.071325
21
237.314000
31
0.0
0
LINE
8
SECTION
10
323.591325
20
237.314000
30
0.0
11
318.071325
21
237.314000
31
0.0
0
LINE
8
SECTION
10
323.591325
20
235.114000
30
0.0
11
323.591325
21
237.314000
31
0.0
0
LINE
8
SECTION
10
332.571325
20
235.114000
30
0.0
11
323.591325
21
235.114000
31
0.0
0
LINE
8
SECTION
10
332.571325
20
189.835677
30
0.0
11
332.571325
21
235.114000
31
0.0
0
LINE
8
SECTION
10
327.571325
20
189.835677
30
0.0
11
332.571325
21
189.835677
31
0.0
0
LINE
8
SECTION
10
327.571325
20
169.290350
30
0.0
11
327.571325
21
189.835677
31
0.0
0
LINE
8
SECTION
10
333.971325
20
169.290350
30
0.0
11
327.571325
21
169.290350
31
0.0
0
LINE
8
SECTION
10
333.971325
20
158.709650
30
0.0
11
333.971325
21
169.290350
31
0.0
0
LINE
8
SECTION
10
333.971325
20
158.709650
30
0.0
11
327.571325
21
158.709650
31
0.0
0
LINE
8
SECTION
10
327.571325
20
155.515538
30
0.0
11
327.571325
21
158.709650
31
0.0
0
LINE
8
SECTION
10
327.571325
20
155.515538
30
0.0
11
322.971325
21
155.515538
31
0.0
0
LINE
8
SECTION
10
322.971325
20
155.515538
30
0.0
11
322.971325
21
158.709650
31
0.0
0
LINE
8
SECTION
10
322.971325
20
158.709650
30
0.0
11
321.971325
21
158.709650
31
0.0
0
LINE
8
SECTION
10
321.971325
20
158.709650
30
0.0
11
321.971325
21
169.290350
31
0.0
0
LINE
8
SECTION
10
322.971325
20
169.290350
30
0.0
11
321.971325
21
169.290350
31
0.0
0
LINE
8
SECTION
10
322.971325
20
169.290350
30
0.0
11
322.971325
21
211.446000
31
0.0
0
LINE
8
SECTION
10
318.071325
20
211.446000
30
0.0
11
322.971325
21
211.446000
31
0.0
0
LINE
8
SECTION
10
318.071325
20
211.446000
30
0.0
11
318.071325
21
222.446000
31
0.0
0
LINE
8
SECTION
10
318.071325
20
222.446000
30
0.0
11
322.971325
21
222.446000
31
0.0
0
LINE
8
SECTION
10
322.971325
20
222.446000
30
0.0
11
322.971325
21
229.446000
31
0.0
0
LINE
8
SECTION
10
322.971325
20
229.446000
30
0.0
11
321.971325
21
229.446000
31
0.0
0
LINE
8
SECTION
10
332.571325
20
243.914000
30
0.0
11
323.591325
21
243.914000
31
0.0
0
LINE
8
SECTION
10
323.591325
20
241.714000
30
0.0
11
323.591325
21
243.914000
31
0.0
0
LINE
8
SECTION
10
323.591325
20
241.714000
30
0.0
11
318.071325
21
241.714000
31
0.0
0
LINE
8
SECTION
10
318.071325
20
241.714000
30
0.0
11
318.071325
21
254.286000
31
0.0
0
LINE
8
SECTION
10
323.591325
20
254.286000
30
0.0
11
318.071325
21
254.286000
31
0.0
0
LINE
8
SECTION
10
323.591325
20
252.086000
30
0.0
11
323.591325
21
254.286000
31
0.0
0
LINE
8
SECTION
10
332.571325
20
252.086000
30
0.0
11
323.591325
21
252.086000
31
0.0
0
LINE
8
SECTION
10
332.571325
20
243.914000
30
0.0
11
332.571325
21
252.086000
31
0.0
0
LINE
8
VISIBLE
10
533.069782
20
377.514093
30
0.0
11
532.601326
21
377.784556
31
0.0
0
LINE
8
VISIBLE
10
532.601326
20
387.820912
30
0.0
11
532.601326
21
377.784556
31
0.0
0
LINE
8
VISIBLE
10
532.681480
20
389.186737
30
0.0
11
532.601326
21
387.820912
31
0.0
0
LINE
8
VISIBLE
10
532.920571
20
390.436639
30
0.0
11
532.681480
21
389.186737
31
0.0
0
LINE
8
VISIBLE
10
533.314508
20
391.549230
30
0.0
11
532.920571
21
390.436639
31
0.0
0
LINE
8
VISIBLE
10
533.856551
20
392.505475
30
0.0
11
533.314508
21
391.549230
31
0.0
0
LINE
8
VISIBLE
10
534.537424
20
393.289012
30
0.0
11
533.856551
21
392.505475
31
0.0
0
LINE
8
VISIBLE
10
535.345479
20
393.886434
30
0.0
11
534.537424
21
393.289012
31
0.0
0
LINE
8
VISIBLE
10
538.450320
20
364.275173
30
0.0
11
538.847719
21
365.061726
31
0.0
0
LINE
8
VISIBLE
10
538.847719
20
365.061726
30
0.0
11
538.816822
21
366.316183
31
0.0
0
LINE
8
VISIBLE
10
538.816822
20
366.316183
30
0.0
11
538.206739
21
367.858173
31
0.0
0
LINE
8
VISIBLE
10
538.206739
20
367.858173
30
0.0
11
536.630050
21
369.505131
31
0.0
0
LINE
8
VISIBLE
10
534.756225
20
369.442922
30
0.0
11
534.756225
21
366.494876
31
0.0
0
LINE
8
VISIBLE
10
536.630050
20
369.505131
30
0.0
11
535.278237
21
369.769381
31
0.0
0
LINE
8
VISIBLE
10
536.630050
20
368.185269
30
0.0
11
535.835053
21
368.264020
31
0.0
0
LINE
8
VISIBLE
10
535.835053
20
368.264020
30
0.0
11
535.524401
21
367.760846
31
0.0
0
LINE
8
VISIBLE
10
535.524401
20
367.760846
30
0.0
11
535.643590
21
366.833749
31
0.0
0
LINE
8
VISIBLE
10
535.643590
20
366.833749
30
0.0
11
536.311282
21
365.826135
31
0.0
0
LINE
8
VISIBLE
10
536.311282
20
365.826135
30
0.0
11
536.907077
21
365.468906
31
0.0
0
LINE
8
VISIBLE
10
536.907077
20
365.468906
30
0.0
11
537.425047
21
365.510070
31
0.0
0
LINE
8
VISIBLE
10
537.425047
20
365.510070
30
0.0
11
537.735700
21
366.013244
31
0.0
0
LINE
8
VISIBLE
10
537.735700
20
366.013244
30
0.0
11
537.616510
21
366.940341
31
0.0
0
LINE
8
VISIBLE
10
537.616510
20
366.940341
30
0.0
11
536.630050
21
368.185269
31
0.0
0
LINE
8
VISIBLE
10
553.962935
20
358.894849
30
0.0
11
553.007783
21
360.365835
31
0.0
0
LINE
8
VISIBLE
10
553.007783
20
360.365835
30
0.0
11
552.165345
21
361.075271
31
0.0
0
LINE
8
VISIBLE
10
550.607863
20
376.214225
30
0.0
11
550.402667
21
377.069519
31
0.0
0
LINE
8
VISIBLE
10
550.607863
20
385.394834
30
0.0
11
550.151262
21
386.833478
31
0.0
0
LINE
8
VISIBLE
10
550.151262
20
386.833478
30
0.0
11
548.872676
21
388.400266
31
0.0
0
LINE
8
VISIBLE
10
542.438543
20
390.878012
30
0.0
11
541.615062
21
392.319724
31
0.0
0
LINE
8
VISIBLE
10
541.615062
20
392.319724
30
0.0
11
540.618488
21
393.191774
31
0.0
0
LINE
8
VISIBLE
10
540.618488
20
393.191774
30
0.0
11
539.601091
21
393.469028
31
0.0
0
LINE
8
VISIBLE
10
539.601091
20
393.469028
30
0.0
11
539.160993
21
393.336150
31
0.0
0
LINE
8
VISIBLE
10
539.160993
20
393.336150
30
0.0
11
538.675299
21
392.727404
31
0.0
0
LINE
8
VISIBLE
10
538.675299
20
392.727404
30
0.0
11
538.577995
21
391.653189
31
0.0
0
LINE
8
VISIBLE
10
538.577995
20
391.653189
30
0.0
11
539.480313
21
389.484504
31
0.0
0
LINE
8
VISIBLE
10
539.226409
20
389.082589
30
0.0
11
539.480313
21
389.484504
31
0.0
0
LINE
8
VISIBLE
10
538.896385
20
388.016878
30
0.0
11
539.226409
21
389.082589
31
0.0
0
LINE
8
VISIBLE
10
538.784949
20
386.774760
30
0.0
11
538.896385
21
388.016878
31
0.0
0
LINE
8
VISIBLE
10
538.784949
20
383.777011
30
0.0
11
538.784949
21
386.774760
31
0.0
0
LINE
8
VISIBLE
10
538.784949
20
383.777011
30
0.0
11
538.557374
21
382.843827
31
0.0
0
LINE
8
VISIBLE
10
538.557374
20
382.843827
30
0.0
11
538.784949
21
381.602350
31
0.0
0
LINE
8
VISIBLE
10
538.784949
20
367.933770
30
0.0
11
538.784949
21
381.602350
31
0.0
0
LINE
8
VISIBLE
10
538.784949
20
367.933770
30
0.0
11
537.098507
21
369.775594
31
0.0
0
LINE
8
VISIBLE
10
537.098507
20
369.775594
30
0.0
11
536.023675
21
370.083279
31
0.0
0
LINE
8
VISIBLE
10
536.023675
20
370.083279
30
0.0
11
535.495263
21
369.934408
31
0.0
0
LINE
8
VISIBLE
10
535.495263
20
369.934408
30
0.0
11
535.224681
21
369.713385
31
0.0
0
LINE
8
VISIBLE
10
535.224681
20
389.335507
30
0.0
11
535.224681
21
369.713385
31
0.0
0
LINE
8
VISIBLE
10
535.304835
20
390.701332
30
0.0
11
535.224681
21
389.335507
31
0.0
0
LINE
8
VISIBLE
10
535.543926
20
391.951234
30
0.0
11
535.304835
21
390.701332
31
0.0
0
LINE
8
VISIBLE
10
535.937863
20
393.063825
30
0.0
11
535.543926
21
391.951234
31
0.0
0
LINE
8
VISIBLE
10
536.479906
20
394.020071
30
0.0
11
535.937863
21
393.063825
31
0.0
0
LINE
8
VISIBLE
10
537.160780
20
394.803607
30
0.0
11
536.479906
21
394.020071
31
0.0
0
LINE
8
VISIBLE
10
537.968835
20
395.401029
30
0.0
11
537.160780
21
394.803607
31
0.0
0
LINE
8
VISIBLE
10
538.890245
20
395.802114
30
0.0
11
537.968835
21
395.401029
31
0.0
0
LINE
8
VISIBLE
10
539.909245
20
396.000000
30
0.0
11
538.890245
21
395.802114
31
0.0
0
LINE
8
VISIBLE
10
541.008398
20
395.991300
30
0.0
11
539.909245
21
396.000000
31
0.0
0
LINE
8
VISIBLE
10
542.168900
20
395.776164
30
0.0
11
541.008398
21
395.991300
31
0.0
0
LINE
8
VISIBLE
10
543.370892
20
395.358272
30
0.0
11
542.168900
21
395.776164
31
0.0
0
LINE
8
VISIBLE
10
544.593808
20
394.744775
30
0.0
11
543.370892
21
395.358272
31
0.0
0
LINE
8
VISIBLE
10
545.816725
20
393.946170
30
0.0
11
544.593808
21
394.744775
31
0.0
0
LINE
8
VISIBLE
10
547.018717
20
392.976121
30
0.0
11
545.816725
21
393.946170
31
0.0
0
LINE
8
VISIBLE
10
548.179218
20
391.851226
30
0.0
11
547.018717
21
392.976121
31
0.0
0
LINE
8
VISIBLE
10
549.278372
20
390.590732
30
0.0
11
548.179218
21
391.851226
31
0.0
0
LINE
8
VISIBLE
10
550.297371
20
389.216207
30
0.0
11
549.278372
21
390.590732
31
0.0
0
LINE
8
VISIBLE
10
551.218781
20
387.751169
30
0.0
11
550.297371
21
389.216207
31
0.0
0
LINE
8
VISIBLE
10
552.026836
20
386.220686
30
0.0
11
551.218781
21
387.751169
31
0.0
0
LINE
8
VISIBLE
10
552.707710
20
384.650944
30
0.0
11
552.026836
21
386.220686
31
0.0
0
LINE
8
VISIBLE
10
553.249753
20
383.068802
30
0.0
11
552.707710
21
384.650944
31
0.0
0
LINE
8
VISIBLE
10
553.643690
20
381.501331
30
0.0
11
553.249753
21
383.068802
31
0.0
0
LINE
8
VISIBLE
10
553.882781
20
379.975350
30
0.0
11
553.643690
21
381.501331
31
0.0
0
LINE
8
VISIBLE
10
553.962935
20
378.516971
30
0.0
11
553.882781
21
379.975350
31
0.0
0
LINE
8
VISIBLE
10
553.962935
20
358.894849
30
0.0
11
553.962935
21
378.516971
31
0.0
0
LINE
8
VISIBLE
10
552.744949
20
362.578594
30
0.0
11
552.744949
21
376.247174
31
0.0
0
LINE
8
VISIBLE
10
552.744949
20
376.247174
30
0.0
11
551.853066
21
375.732246
31
0.0
0
LINE
8
VISIBLE
10
552.744949
20
378.421836
30
0.0
11
551.934845
21
379.868183
31
0.0
0
LINE
8
VISIBLE
10
551.934845
20
379.868183
30
0.0
11
550.911410
21
380.773177
31
0.0
0
LINE
8
VISIBLE
10
552.744949
20
378.421836
30
0.0
11
550.402667
21
377.069519
31
0.0
0
LINE
8
VISIBLE
10
550.911410
20
380.773177
30
0.0
11
549.894014
21
381.050431
31
0.0
0
LINE
8
VISIBLE
10
549.894014
20
381.050431
30
0.0
11
549.453916
21
380.917553
31
0.0
0
LINE
8
VISIBLE
10
549.453916
20
380.917553
30
0.0
11
548.968222
21
380.308806
31
0.0
0
LINE
8
VISIBLE
10
548.968222
20
380.308806
30
0.0
11
548.870918
21
379.234591
31
0.0
0
LINE
8
VISIBLE
10
548.870918
20
379.234591
30
0.0
11
549.320607
21
377.798089
31
0.0
0
LINE
8
VISIBLE
10
549.320607
20
377.798089
30
0.0
11
550.309347
21
376.464418
31
0.0
0
LINE
8
VISIBLE
10
550.309347
20
376.464418
30
0.0
11
551.443761
21
375.786419
31
0.0
0
LINE
8
VISIBLE
10
551.443761
20
375.786419
30
0.0
11
552.368904
21
375.868645
31
0.0
0
LINE
8
VISIBLE
10
552.368904
20
375.868645
30
0.0
11
552.744949
21
376.247174
31
0.0
0
LINE
8
VISIBLE
10
552.744949
20
378.421836
30
0.0
11
552.744949
21
381.419584
31
0.0
0
LINE
8
VISIBLE
10
552.744949
20
381.419584
30
0.0
11
552.633513
21
382.790378
31
0.0
0
LINE
8
VISIBLE
10
552.633513
20
382.790378
30
0.0
11
552.303489
21
384.237167
31
0.0
0
LINE
8
VISIBLE
10
552.303489
20
384.237167
30
0.0
11
552.049585
21
384.932266
31
0.0
0
LINE
8
VISIBLE
10
549.091355
20
389.741643
30
0.0
11
548.850861
21
388.823512
31
0.0
0
LINE
8
VISIBLE
10
548.850861
20
388.823512
30
0.0
11
549.103497
21
387.474395
31
0.0
0
LINE
8
VISIBLE
10
549.103497
20
387.474395
30
0.0
11
549.938558
21
386.037089
31
0.0
0
LINE
8
VISIBLE
10
549.938558
20
386.037089
30
0.0
11
551.088904
21
385.099995
31
0.0
0
LINE
8
VISIBLE
10
551.088904
20
385.099995
30
0.0
11
552.049585
21
384.932266
31
0.0
0
LINE
8
VISIBLE
10
549.091355
20
389.741643
30
0.0
11
548.076883
21
390.682692
31
0.0
0
LINE
8
VISIBLE
10
548.076883
20
390.682692
30
0.0
11
546.945459
21
391.464595
31
0.0
0
LINE
8
VISIBLE
10
546.945459
20
391.464595
30
0.0
11
546.926721
21
391.475413
31
0.0
0
LINE
8
VISIBLE
10
546.926721
20
391.475413
30
0.0
11
545.795296
21
391.999967
31
0.0
0
LINE
8
VISIBLE
10
545.795296
20
391.999967
30
0.0
11
544.780825
21
392.230329
31
0.0
0
LINE
8
VISIBLE
10
544.780825
20
392.230329
30
0.0
11
542.438543
21
390.878012
31
0.0
0
LINE
8
VISIBLE
10
541.822595
20
390.836821
30
0.0
11
542.955064
21
389.787238
31
0.0
0
LINE
8
VISIBLE
10
542.955064
20
389.787238
30
0.0
11
543.973893
21
389.506356
31
0.0
0
LINE
8
VISIBLE
10
543.973893
20
389.506356
30
0.0
11
544.418263
21
389.639559
31
0.0
0
LINE
8
VISIBLE
10
544.418263
20
389.639559
30
0.0
11
544.903958
21
390.248306
31
0.0
0
LINE
8
VISIBLE
10
544.903958
20
390.248306
30
0.0
11
545.001262
21
391.322521
31
0.0
0
LINE
8
VISIBLE
10
545.001262
20
391.322521
30
0.0
11
544.780825
21
392.230329
31
0.0
0
LINE
8
VISIBLE
10
541.822595
20
390.836821
30
0.0
11
539.480313
21
389.484504
31
0.0
0
LINE
8
VISIBLE
10
538.754031
20
392.115330
30
0.0
11
538.565885
21
392.214020
31
0.0
0
LINE
8
VISIBLE
10
540.472501
20
390.057344
30
0.0
11
539.563516
21
391.456750
31
0.0
0
LINE
8
VISIBLE
10
539.563516
20
391.456750
30
0.0
11
538.754031
21
392.115330
31
0.0
0
LINE
8
VISIBLE
10
541.822595
20
390.836821
30
0.0
11
541.568691
21
390.434906
31
0.0
0
LINE
8
VISIBLE
10
541.568691
20
390.434906
30
0.0
11
539.226409
21
389.082589
31
0.0
0
LINE
8
VISIBLE
10
541.568691
20
390.434906
30
0.0
11
541.238667
21
389.369195
31
0.0
0
LINE
8
VISIBLE
10
541.238667
20
389.369195
30
0.0
11
538.896385
21
388.016878
31
0.0
0
LINE
8
VISIBLE
10
541.238667
20
389.369195
30
0.0
11
541.127231
21
388.127077
31
0.0
0
LINE
8
VISIBLE
10
541.127231
20
388.127077
30
0.0
11
538.784949
21
386.774760
31
0.0
0
LINE
8
VISIBLE
10
541.127231
20
388.127077
30
0.0
11
541.127231
21
385.129328
31
0.0
0
LINE
8
VISIBLE
10
541.127231
20
385.129328
30
0.0
11
538.784949
21
383.777011
31
0.0
0
LINE
8
VISIBLE
10
541.127231
20
382.954667
30
0.0
11
541.937334
21
381.508319
31
0.0
0
LINE
8
VISIBLE
10
541.937334
20
381.508319
30
0.0
11
543.083711
21
380.536583
31
0.0
0
LINE
8
VISIBLE
10
543.083711
20
380.536583
30
0.0
11
543.806025
21
380.324644
31
0.0
0
LINE
8
VISIBLE
10
543.806025
20
380.324644
30
0.0
11
544.418263
21
380.458950
31
0.0
0
LINE
8
VISIBLE
10
544.418263
20
380.458950
30
0.0
11
544.903958
21
381.067696
31
0.0
0
LINE
8
VISIBLE
10
544.903958
20
381.067696
30
0.0
11
545.001262
21
382.141911
31
0.0
0
LINE
8
VISIBLE
10
545.001262
20
382.141911
30
0.0
11
544.551573
21
383.578413
31
0.0
0
LINE
8
VISIBLE
10
544.551573
20
383.578413
30
0.0
11
542.960769
21
385.363482
31
0.0
0
LINE
8
VISIBLE
10
541.127231
20
382.954667
30
0.0
11
538.784949
21
381.602350
31
0.0
0
LINE
8
VISIBLE
10
542.960769
20
385.363482
30
0.0
11
541.943373
21
385.640736
31
0.0
0
LINE
8
VISIBLE
10
541.943373
20
385.640736
30
0.0
11
541.503275
21
385.507858
31
0.0
0
LINE
8
VISIBLE
10
541.503275
20
385.507858
30
0.0
11
541.127231
21
385.129328
31
0.0
0
LINE
8
VISIBLE
10
538.754031
20
382.934720
30
0.0
11
538.565885
21
383.033411
31
0.0
0
LINE
8
VISIBLE
10
539.695687
20
382.128164
30
0.0
11
538.754031
21
382.934720
31
0.0
0
LINE
8
VISIBLE
10
541.127231
20
382.954667
30
0.0
11
541.127231
21
369.286087
31
0.0
0
LINE
8
VISIBLE
10
541.127231
20
369.286087
30
0.0
11
538.784949
21
367.933770
31
0.0
0
LINE
8
VISIBLE
10
548.076883
20
351.452385
30
0.0
11
549.164828
21
351.205340
31
0.0
0
LINE
8
VISIBLE
10
546.945459
20
351.976939
30
0.0
11
548.076883
21
351.452385
31
0.0
0
LINE
8
VISIBLE
10
546.926721
20
351.987757
30
0.0
11
546.945459
21
351.976939
31
0.0
0
LINE
8
VISIBLE
10
545.795296
20
352.769660
30
0.0
11
546.926721
21
351.987757
31
0.0
0
LINE
8
VISIBLE
10
544.707352
20
353.778864
30
0.0
11
545.795296
21
352.769660
31
0.0
0
LINE
8
VISIBLE
10
543.704697
20
354.976587
30
0.0
11
544.707352
21
353.778864
31
0.0
0
LINE
8
VISIBLE
10
542.825862
20
356.316799
30
0.0
11
543.704697
21
354.976587
31
0.0
0
LINE
8
VISIBLE
10
542.104621
20
357.747999
30
0.0
11
542.825862
21
356.316799
31
0.0
0
LINE
8
VISIBLE
10
541.568691
20
359.215185
30
0.0
11
542.104621
21
357.747999
31
0.0
0
LINE
8
VISIBLE
10
541.238667
20
360.661974
30
0.0
11
541.568691
21
359.215185
31
0.0
0
LINE
8
VISIBLE
10
541.127231
20
362.032768
30
0.0
11
541.238667
21
360.661974
31
0.0
0
LINE
8
VISIBLE
10
541.127231
20
365.786228
30
0.0
11
541.127231
21
362.032768
31
0.0
0
LINE
8
VISIBLE
10
541.127231
20
365.786228
30
0.0
11
541.602231
21
366.471183
31
0.0
0
LINE
8
VISIBLE
10
541.602231
20
366.471183
30
0.0
11
541.680209
21
367.626409
31
0.0
0
LINE
8
VISIBLE
10
541.680209
20
367.626409
30
0.0
11
541.127231
21
369.286087
31
0.0
0
LINE
8
VISIBLE
10
552.744949
20
362.578594
30
0.0
11
552.269948
21
361.893639
31
0.0
0
LINE
8
VISIBLE
10
552.269948
20
361.893639
30
0.0
11
552.191971
21
360.738413
31
0.0
0
LINE
8
VISIBLE
10
552.191971
20
360.738413
30
0.0
11
552.744949
21
359.078735
31
0.0
0
LINE
8
VISIBLE
10
552.744949
20
355.325276
30
0.0
11
552.744949
21
359.078735
31
0.0
0
LINE
8
VISIBLE
10
552.633513
20
354.083157
30
0.0
11
552.744949
21
355.325276
31
0.0
0
LINE
8
VISIBLE
10
552.303489
20
353.017447
30
0.0
11
552.633513
21
354.083157
31
0.0
0
LINE
8
VISIBLE
10
551.767558
20
352.169100
30
0.0
11
552.303489
21
353.017447
31
0.0
0
LINE
8
VISIBLE
10
551.046317
20
351.570717
30
0.0
11
551.767558
21
352.169100
31
0.0
0
LINE
8
VISIBLE
10
550.167483
20
351.245296
30
0.0
11
551.046317
21
351.570717
31
0.0
0
LINE
8
VISIBLE
10
549.164828
20
351.205340
30
0.0
11
550.167483
21
351.245296
31
0.0
0
LINE
8
VISIBLE
10
549.171394
20
372.949877
30
0.0
11
549.251368
21
372.599282
31
0.0
0
LINE
8
VISIBLE
10
549.041524
20
373.305415
30
0.0
11
549.171394
21
372.949877
31
0.0
0
LINE
8
VISIBLE
10
549.251368
20
372.599282
30
0.0
11
549.278372
21
372.267103
31
0.0
0
LINE
8
VISIBLE
10
548.866748
20
373.652233
30
0.0
11
549.041524
21
373.305415
31
0.0
0
LINE
8
VISIBLE
10
549.278372
20
372.267103
30
0.0
11
549.278372
21
363.071347
31
0.0
0
LINE
8
VISIBLE
10
548.653784
20
373.977001
30
0.0
11
548.866748
21
373.652233
31
0.0
0
LINE
8
VISIBLE
10
549.278372
20
363.071347
30
0.0
11
549.251368
21
362.770349
31
0.0
0
LINE
8
VISIBLE
10
548.410814
20
374.267241
30
0.0
11
548.653784
21
373.977001
31
0.0
0
LINE
8
VISIBLE
10
549.251368
20
362.770349
30
0.0
11
549.171394
21
362.512100
31
0.0
0
LINE
8
VISIBLE
10
548.147176
20
374.511798
30
0.0
11
548.410814
21
374.267241
31
0.0
0
LINE
8
VISIBLE
10
549.171394
20
362.512100
30
0.0
11
549.041524
21
362.306523
31
0.0
0
LINE
8
VISIBLE
10
547.873003
20
374.701273
30
0.0
11
548.147176
21
374.511798
31
0.0
0
LINE
8
VISIBLE
10
549.041524
20
362.306523
30
0.0
11
548.866748
21
362.161519
31
0.0
0
LINE
8
VISIBLE
10
545.999177
20
375.783127
30
0.0
11
547.873003
21
374.701273
31
0.0
0
LINE
8
VISIBLE
10
548.866748
20
362.161519
30
0.0
11
548.653784
21
362.082661
31
0.0
0
LINE
8
VISIBLE
10
545.725003
20
375.910240
30
0.0
11
545.999177
21
375.783127
31
0.0
0
LINE
8
VISIBLE
10
548.653784
20
362.082661
30
0.0
11
548.410814
21
362.072978
31
0.0
0
LINE
8
VISIBLE
10
545.461366
20
375.970106
30
0.0
11
545.725003
21
375.910240
31
0.0
0
LINE
8
VISIBLE
10
548.410814
20
362.072978
30
0.0
11
548.147176
21
362.132844
31
0.0
0
LINE
8
VISIBLE
10
545.218396
20
375.960424
30
0.0
11
545.461366
21
375.970106
31
0.0
0
LINE
8
VISIBLE
10
548.147176
20
362.132844
30
0.0
11
547.873003
21
362.259957
31
0.0
0
LINE
8
VISIBLE
10
545.005431
20
375.881565
30
0.0
11
545.218396
21
375.960424
31
0.0
0
LINE
8
VISIBLE
10
547.873003
20
362.259957
30
0.0
11
545.999177
21
363.341811
31
0.0
0
LINE
8
VISIBLE
10
544.830655
20
375.736561
30
0.0
11
545.005431
21
375.881565
31
0.0
0
LINE
8
VISIBLE
10
545.999177
20
363.341811
30
0.0
11
545.725003
21
363.531286
31
0.0
0
LINE
8
VISIBLE
10
544.700785
20
375.530985
30
0.0
11
544.830655
21
375.736561
31
0.0
0
LINE
8
VISIBLE
10
545.725003
20
363.531286
30
0.0
11
545.461366
21
363.775843
31
0.0
0
LINE
8
VISIBLE
10
544.620812
20
375.272735
30
0.0
11
544.700785
21
375.530985
31
0.0
0
LINE
8
VISIBLE
10
545.461366
20
363.775843
30
0.0
11
545.218396
21
364.066083
31
0.0
0
LINE
8
VISIBLE
10
544.593808
20
374.971737
30
0.0
11
544.620812
21
375.272735
31
0.0
0
LINE
8
VISIBLE
10
545.218396
20
364.066083
30
0.0
11
545.005431
21
364.390852
31
0.0
0
LINE
8
VISIBLE
10
544.593808
20
365.775981
30
0.0
11
544.593808
21
374.971737
31
0.0
0
LINE
8
VISIBLE
10
545.005431
20
364.390852
30
0.0
11
544.830655
21
364.737669
31
0.0
0
LINE
8
VISIBLE
10
544.620812
20
365.443802
30
0.0
11
544.593808
21
365.775981
31
0.0
0
LINE
8
VISIBLE
10
544.830655
20
364.737669
30
0.0
11
544.700785
21
365.093207
31
0.0
0
LINE
8
VISIBLE
10
544.700785
20
365.093207
30
0.0
11
544.620812
21
365.443802
31
0.0
0
LINE
8
VISIBLE
10
546.936090
20
388.524117
30
0.0
11
545.721632
21
388.906688
31
0.0
0
LINE
8
VISIBLE
10
545.721632
20
388.906688
30
0.0
11
544.948598
21
388.720993
31
0.0
0
LINE
8
VISIBLE
10
544.948598
20
388.720993
30
0.0
11
544.351642
21
388.046555
31
0.0
0
LINE
8
VISIBLE
10
544.351642
20
388.046555
30
0.0
11
544.125355
21
386.896731
31
0.0
0
LINE
8
VISIBLE
10
544.125355
20
386.896731
30
0.0
11
544.411468
21
385.309481
31
0.0
0
LINE
8
VISIBLE
10
544.411468
20
385.309481
30
0.0
11
545.296600
21
383.588876
31
0.0
0
LINE
8
VISIBLE
10
545.296600
20
383.588876
30
0.0
11
546.591084
21
382.256727
31
0.0
0
LINE
8
VISIBLE
10
546.591084
20
382.256727
30
0.0
11
547.870119
21
381.678175
31
0.0
0
LINE
8
VISIBLE
10
547.870119
20
381.678175
30
0.0
11
548.923582
21
381.836119
31
0.0
0
LINE
8
VISIBLE
10
548.923582
20
381.836119
30
0.0
11
549.520538
21
382.510557
31
0.0
0
LINE
8
VISIBLE
10
549.520538
20
382.510557
30
0.0
11
549.746825
21
383.660382
31
0.0
0
LINE
8
VISIBLE
10
549.746825
20
383.660382
30
0.0
11
549.460712
21
385.247632
31
0.0
0
LINE
8
VISIBLE
10
549.460712
20
385.247632
30
0.0
11
548.575580
21
386.968236
31
0.0
0
LINE
8
VISIBLE
10
548.575580
20
386.968236
30
0.0
11
546.936090
21
388.524117
31
0.0
0
LINE
8
VISIBLE
10
551.788744
20
340.199619
30
0.0
11
553.962935
21
348.466324
31
0.0
0
LINE
8
VISIBLE
10
553.962935
20
348.466324
30
0.0
11
553.962935
21
355.946803
31
0.0
0
LINE
8
VISIBLE
10
552.744949
20
355.617864
30
0.0
11
553.692353
21
355.725780
31
0.0
0
LINE
8
VISIBLE
10
553.692353
20
355.725780
30
0.0
11
553.962935
21
355.946803
31
0.0
0
LINE
8
VISIBLE
10
550.023737
20
333.673391
30
0.0
11
550.088271
21
334.010758
31
0.0
0
LINE
8
VISIBLE
10
549.787375
20
333.005836
30
0.0
11
550.023737
21
333.673391
31
0.0
0
LINE
8
VISIBLE
10
549.462149
20
332.432089
30
0.0
11
549.787375
21
333.005836
31
0.0
0
LINE
8
VISIBLE
10
549.053625
20
331.961967
30
0.0
11
549.462149
21
332.432089
31
0.0
0
LINE
8
VISIBLE
10
548.568792
20
331.603514
30
0.0
11
549.053625
21
331.961967
31
0.0
0
LINE
8
VISIBLE
10
548.015946
20
331.362863
30
0.0
11
548.568792
21
331.603514
31
0.0
0
LINE
8
VISIBLE
10
548.704036
20
350.218400
30
0.0
11
547.825201
21
349.892979
31
0.0
0
LINE
8
VISIBLE
10
547.404546
20
331.244132
30
0.0
11
548.015946
21
331.362863
31
0.0
0
LINE
8
VISIBLE
10
547.825201
20
349.892979
30
0.0
11
546.822546
21
349.853023
31
0.0
0
LINE
8
VISIBLE
10
546.745054
20
331.249351
30
0.0
11
547.404546
21
331.244132
31
0.0
0
LINE
8
VISIBLE
10
546.822546
20
349.853023
30
0.0
11
545.734601
21
350.100068
31
0.0
0
LINE
8
VISIBLE
10
546.048753
20
331.378433
30
0.0
11
546.745054
21
331.249351
31
0.0
0
LINE
8
VISIBLE
10
545.734601
20
350.100068
30
0.0
11
544.603177
21
350.624622
31
0.0
0
LINE
8
VISIBLE
10
545.327558
20
331.629168
30
0.0
11
546.048753
21
331.378433
31
0.0
0
LINE
8
VISIBLE
10
544.603177
20
350.624622
30
0.0
11
544.584439
21
350.635440
31
0.0
0
LINE
8
VISIBLE
10
544.593808
20
331.997267
30
0.0
11
545.327558
21
331.629168
31
0.0
0
LINE
8
VISIBLE
10
544.584439
20
350.635440
30
0.0
11
543.453015
21
351.417343
31
0.0
0
LINE
8
VISIBLE
10
543.860058
20
332.476430
30
0.0
11
544.593808
21
331.997267
31
0.0
0
LINE
8
VISIBLE
10
543.453015
20
351.417343
30
0.0
11
542.365070
21
352.426547
31
0.0
0
LINE
8
VISIBLE
10
543.138863
20
333.058459
30
0.0
11
543.860058
21
332.476430
31
0.0
0
LINE
8
VISIBLE
10
542.365070
20
352.426547
30
0.0
11
541.362415
21
353.624270
31
0.0
0
LINE
8
VISIBLE
10
542.442562
20
333.733396
30
0.0
11
543.138863
21
333.058459
31
0.0
0
LINE
8
VISIBLE
10
541.362415
20
353.624270
30
0.0
11
540.483581
21
354.964482
31
0.0
0
LINE
8
VISIBLE
10
541.783070
20
334.489692
30
0.0
11
542.442562
21
333.733396
31
0.0
0
LINE
8
VISIBLE
10
540.483581
20
354.964482
30
0.0
11
539.762340
21
356.395682
31
0.0
0
LINE
8
VISIBLE
10
541.171670
20
335.314407
30
0.0
11
541.783070
21
334.489692
31
0.0
0
LINE
8
VISIBLE
10
539.762340
20
356.395682
30
0.0
11
539.226409
21
357.862868
31
0.0
0
LINE
8
VISIBLE
10
540.618824
20
336.193430
30
0.0
11
541.171670
21
335.314407
31
0.0
0
LINE
8
VISIBLE
10
539.226409
20
357.862868
30
0.0
11
538.896385
21
359.309657
31
0.0
0
LINE
8
VISIBLE
10
540.133991
20
337.111720
30
0.0
11
540.618824
21
336.193430
31
0.0
0
LINE
8
VISIBLE
10
538.896385
20
359.309657
30
0.0
11
538.784949
21
360.680451
31
0.0
0
LINE
8
VISIBLE
10
539.725467
20
338.053565
30
0.0
11
540.133991
21
337.111720
31
0.0
0
LINE
8
VISIBLE
10
538.784949
20
360.680451
30
0.0
11
538.784949
21
364.433911
31
0.0
0
LINE
8
VISIBLE
10
539.400241
20
339.002851
30
0.0
11
539.725467
21
338.053565
31
0.0
0
LINE
8
VISIBLE
10
535.224681
20
366.765339
30
0.0
11
536.179833
21
365.294353
31
0.0
0
LINE
8
VISIBLE
10
536.179833
20
365.294353
30
0.0
11
537.390625
21
364.392588
31
0.0
0
LINE
8
VISIBLE
10
537.390625
20
364.392588
30
0.0
11
538.701750
21
364.380609
31
0.0
0
LINE
8
VISIBLE
10
538.701750
20
364.380609
30
0.0
11
538.784949
21
364.433911
31
0.0
0
LINE
8
VISIBLE
10
539.163879
20
339.943333
30
0.0
11
539.400241
21
339.002851
31
0.0
0
LINE
8
VISIBLE
10
535.224681
20
366.765339
30
0.0
11
535.224681
21
359.284860
31
0.0
0
LINE
8
VISIBLE
10
539.020424
20
340.858921
30
0.0
11
539.163879
21
339.943333
31
0.0
0
LINE
8
VISIBLE
10
535.224681
20
359.284860
30
0.0
11
538.738104
21
341.869181
31
0.0
0
LINE
8
VISIBLE
10
538.972332
20
341.733949
30
0.0
11
539.020424
21
340.858921
31
0.0
0
LINE
8
VISIBLE
10
538.738104
20
341.869181
30
0.0
11
538.972332
21
341.733949
31
0.0
0
LINE
8
VISIBLE
10
541.281321
20
344.225783
30
0.0
11
540.460417
21
343.420442
31
0.0
0
LINE
8
VISIBLE
10
540.460417
20
343.420442
30
0.0
11
539.987266
21
342.131102
31
0.0
0
LINE
8
VISIBLE
10
539.987266
20
342.131102
30
0.0
11
539.963028
21
340.344652
31
0.0
0
LINE
8
VISIBLE
10
539.963028
20
340.344652
30
0.0
11
540.517867
21
338.175340
31
0.0
0
LINE
8
VISIBLE
10
540.517867
20
338.175340
30
0.0
11
541.680128
21
335.934943
31
0.0
0
LINE
8
VISIBLE
10
541.680128
20
335.934943
30
0.0
11
543.284302
21
334.050804
31
0.0
0
LINE
8
VISIBLE
10
543.284302
20
334.050804
30
0.0
11
545.012602
21
332.858989
31
0.0
0
LINE
8
VISIBLE
10
545.012602
20
332.858989
30
0.0
11
546.555653
21
332.443650
31
0.0
0
LINE
8
VISIBLE
10
546.555653
20
332.443650
30
0.0
11
547.906295
21
332.750993
31
0.0
0
LINE
8
VISIBLE
10
538.754031
20
390.925291
30
0.0
11
538.733566
21
390.936872
31
0.0
0
LINE
8
VISIBLE
10
539.712675
20
389.618658
30
0.0
11
538.754031
21
390.925291
31
0.0
0
LINE
8
VISIBLE
10
538.754031
20
381.744681
30
0.0
11
538.733566
21
381.756262
31
0.0
0
LINE
8
VISIBLE
10
538.884466
20
381.659806
30
0.0
11
538.754031
21
381.744681
31
0.0
0
LINE
8
VISIBLE
10
541.127231
20
362.032768
30
0.0
11
538.784949
21
360.680451
31
0.0
0
LINE
8
VISIBLE
10
541.127231
20
365.786228
30
0.0
11
538.784949
21
364.433911
31
0.0
0
LINE
8
VISIBLE
10
551.046317
20
351.570717
30
0.0
11
548.704036
21
350.218400
31
0.0
0
LINE
8
VISIBLE
10
550.167483
20
351.245296
30
0.0
11
547.825201
21
349.892979
31
0.0
0
LINE
8
VISIBLE
10
549.164828
20
351.205340
30
0.0
11
546.822546
21
349.853023
31
0.0
0
LINE
8
VISIBLE
10
548.076883
20
351.452385
30
0.0
11
545.734601
21
350.100068
31
0.0
0
LINE
8
VISIBLE
10
546.945459
20
351.976939
30
0.0
11
544.603177
21
350.624622
31
0.0
0
LINE
8
VISIBLE
10
546.926721
20
351.987757
30
0.0
11
544.584439
21
350.635440
31
0.0
0
LINE
8
VISIBLE
10
545.795296
20
352.769660
30
0.0
11
543.453015
21
351.417343
31
0.0
0
LINE
8
VISIBLE
10
544.707352
20
353.778864
30
0.0
11
542.365070
21
352.426547
31
0.0
0
LINE
8
VISIBLE
10
543.704697
20
354.976587
30
0.0
11
541.362415
21
353.624270
31
0.0
0
LINE
8
VISIBLE
10
542.825862
20
356.316799
30
0.0
11
540.483581
21
354.964482
31
0.0
0
LINE
8
VISIBLE
10
542.104621
20
357.747999
30
0.0
11
539.762340
21
356.395682
31
0.0
0
LINE
8
VISIBLE
10
541.568691
20
359.215185
30
0.0
11
539.226409
21
357.862868
31
0.0
0
LINE
8
VISIBLE
10
541.238667
20
360.661974
30
0.0
11
538.896385
21
359.309657
31
0.0
0
LINE
8
VISIBLE
10
547.591929
20
345.628622
30
0.0
11
545.980698
21
346.228846
31
0.0
0
LINE
8
VISIBLE
10
545.980698
20
346.228846
30
0.0
11
544.279442
21
345.956749
31
0.0
0
LINE
8
VISIBLE
10
544.279442
20
345.956749
30
0.0
11
543.458537
21
345.151408
31
0.0
0
LINE
8
VISIBLE
10
543.458537
20
345.151408
30
0.0
11
542.985386
21
343.862068
31
0.0
0
LINE
8
VISIBLE
10
542.985386
20
343.862068
30
0.0
11
542.961148
21
342.075618
31
0.0
0
LINE
8
VISIBLE
10
542.961148
20
342.075618
30
0.0
11
543.515988
21
339.906306
31
0.0
0
LINE
8
VISIBLE
10
543.515988
20
339.906306
30
0.0
11
544.678249
21
337.665909
31
0.0
0
LINE
8
VISIBLE
10
544.678249
20
337.665909
30
0.0
11
546.282423
21
335.781770
31
0.0
0
LINE
8
VISIBLE
10
546.282423
20
335.781770
30
0.0
11
548.010723
21
334.589954
31
0.0
0
LINE
8
VISIBLE
10
548.010723
20
334.589954
30
0.0
11
549.553773
21
334.174616
31
0.0
0
LINE
8
VISIBLE
10
549.553773
20
334.174616
30
0.0
11
550.904415
21
334.481959
31
0.0
0
LINE
8
VISIBLE
10
550.904415
20
334.481959
30
0.0
11
551.725320
21
335.287300
31
0.0
0
LINE
8
VISIBLE
10
551.725320
20
335.287300
30
0.0
11
552.198471
21
336.576640
31
0.0
0
LINE
8
VISIBLE
10
552.198471
20
336.576640
30
0.0
11
552.222709
21
338.363090
31
0.0
0
LINE
8
VISIBLE
10
552.222709
20
338.363090
30
0.0
11
551.667870
21
340.532402
31
0.0
0
LINE
8
VISIBLE
10
551.667870
20
340.532402
30
0.0
11
550.505609
21
342.772799
31
0.0
0
LINE
8
VISIBLE
10
550.505609
20
342.772799
30
0.0
11
548.901435
21
344.656938
31
0.0
0
LINE
8
VISIBLE
10
548.901435
20
344.656938
30
0.0
11
547.591929
21
345.628622
31
0.0
0
LINE
8
VISIBLE
10
549.171394
20
372.949877
30
0.0
11
544.674213
21
370.353429
31
0.0
0
LINE
8
VISIBLE
10
544.674213
20
370.353429
30
0.0
11
544.754187
21
370.002834
31
0.0
0
LINE
8
VISIBLE
10
549.251368
20
372.599282
30
0.0
11
544.754187
21
370.002834
31
0.0
0
LINE
8
VISIBLE
10
553.494479
20
358.624386
30
0.0
11
552.254448
21
360.380013
31
0.0
0
LINE
8
VISIBLE
10
553.494479
20
355.676340
30
0.0
11
553.494479
21
358.624386
31
0.0
0
LINE
8
VISIBLE
10
553.440923
20
355.620344
30
0.0
11
553.494479
21
355.676340
31
0.0
0
LINE
8
VISIBLE
10
533.069782
20
378.055020
30
0.0
11
533.069782
21
358.040728
31
0.0
0
LINE
8
VISIBLE
10
533.069782
20
358.040728
30
0.0
11
536.583205
21
340.625049
31
0.0
0
LINE
8
VISIBLE
10
536.583205
20
340.625049
30
0.0
11
536.817433
21
340.489817
31
0.0
0
LINE
8
VISIBLE
10
536.817433
20
340.489817
30
0.0
11
536.865525
21
339.614790
31
0.0
0
LINE
8
VISIBLE
10
536.865525
20
339.614790
30
0.0
11
537.008980
21
338.699202
31
0.0
0
LINE
8
VISIBLE
10
537.008980
20
338.699202
30
0.0
11
537.245342
21
337.758719
31
0.0
0
LINE
8
VISIBLE
10
537.245342
20
337.758719
30
0.0
11
537.570568
21
336.809434
31
0.0
0
LINE
8
VISIBLE
10
537.570568
20
336.809434
30
0.0
11
537.979092
21
335.867589
31
0.0
0
LINE
8
VISIBLE
10
537.979092
20
335.867589
30
0.0
11
538.463925
21
334.949299
31
0.0
0
LINE
8
VISIBLE
10
538.463925
20
334.949299
30
0.0
11
539.016771
21
334.070276
31
0.0
0
LINE
8
VISIBLE
10
539.016771
20
334.070276
30
0.0
11
539.628171
21
333.245561
31
0.0
0
LINE
8
VISIBLE
10
539.628171
20
333.245561
30
0.0
11
540.287663
21
332.489265
31
0.0
0
LINE
8
VISIBLE
10
540.287663
20
332.489265
30
0.0
11
540.983964
21
331.814328
31
0.0
0
LINE
8
VISIBLE
10
540.983964
20
331.814328
30
0.0
11
541.705159
21
331.232298
31
0.0
0
LINE
8
VISIBLE
10
541.705159
20
331.232298
30
0.0
11
542.438909
21
330.753135
31
0.0
0
LINE
8
VISIBLE
10
542.438909
20
330.753135
30
0.0
11
543.172659
21
330.385037
31
0.0
0
LINE
8
VISIBLE
10
543.172659
20
330.385037
30
0.0
11
543.893854
21
330.134302
31
0.0
0
LINE
8
VISIBLE
10
543.893854
20
330.134302
30
0.0
11
544.590155
21
330.005220
31
0.0
0
LINE
8
VISIBLE
10
544.590155
20
330.005220
30
0.0
11
545.249647
21
330.000000
31
0.0
0
LINE
8
VISIBLE
10
545.249647
20
330.000000
30
0.0
11
545.861047
21
330.118731
31
0.0
0
LINE
8
VISIBLE
10
545.861047
20
330.118731
30
0.0
11
546.413893
21
330.359382
31
0.0
0
LINE
8
VISIBLE
10
544.781191
20
369.670654
30
0.0
11
544.781191
21
364.873086
31
0.0
0
LINE
8
VISIBLE
10
544.754187
20
370.002834
30
0.0
11
544.781191
21
369.670654
31
0.0
0
LINE
8
VISIBLE
10
544.593808
20
370.573550
30
0.0
11
544.674213
21
370.353429
31
0.0
0
LINE
8
VISIBLE
10
549.041524
20
373.305415
30
0.0
11
544.593808
21
370.737525
31
0.0
0
LINE
8
VISIBLE
10
549.278372
20
372.267103
30
0.0
11
544.781191
21
369.670654
31
0.0
0
LINE
8
VISIBLE
10
548.866748
20
373.652233
30
0.0
11
544.593808
21
371.185249
31
0.0
0
LINE
8
VISIBLE
10
549.278372
20
363.071347
30
0.0
11
547.873003
21
362.259957
31
0.0
0
LINE
8
VISIBLE
10
548.653784
20
373.977001
30
0.0
11
544.593808
21
371.632973
31
0.0
0
LINE
8
VISIBLE
10
549.251368
20
362.770349
30
0.0
11
548.147176
21
362.132844
31
0.0
0
LINE
8
VISIBLE
10
548.410814
20
374.267241
30
0.0
11
544.593808
21
372.063492
31
0.0
0
LINE
8
VISIBLE
10
549.171394
20
362.512100
30
0.0
11
548.410814
21
362.072978
31
0.0
0
LINE
8
VISIBLE
10
548.147176
20
374.511798
30
0.0
11
544.593808
21
372.460260
31
0.0
0
LINE
8
VISIBLE
10
549.041524
20
362.306523
30
0.0
11
548.653784
21
362.082661
31
0.0
0
LINE
8
VISIBLE
10
547.873003
20
374.701273
30
0.0
11
544.593808
21
372.808030
31
0.0
0
LINE
8
VISIBLE
10
545.999177
20
375.783127
30
0.0
11
544.593808
21
374.971737
31
0.0
0
LINE
8
VISIBLE
10
545.725003
20
375.910240
30
0.0
11
544.620812
21
375.272735
31
0.0
0
LINE
8
VISIBLE
10
545.461366
20
375.970106
30
0.0
11
544.700785
21
375.530985
31
0.0
0
LINE
8
VISIBLE
10
545.218396
20
375.960424
30
0.0
11
544.830655
21
375.736561
31
0.0
0
LINE
8
VISIBLE
10
544.781191
20
366.425094
30
0.0
11
544.593808
21
366.316908
31
0.0
0
LINE
8
VISIBLE
10
547.591929
20
343.194451
30
0.0
11
546.435776
21
343.545609
31
0.0
0
LINE
8
VISIBLE
10
546.435776
20
343.545609
30
0.0
11
545.770061
21
343.374921
31
0.0
0
LINE
8
VISIBLE
10
545.770061
20
343.374921
30
0.0
11
545.206016
21
342.719849
31
0.0
0
LINE
8
VISIBLE
10
545.206016
20
342.719849
30
0.0
11
545.017315
21
341.591687
31
0.0
0
LINE
8
VISIBLE
10
545.017315
20
341.591687
30
0.0
11
545.351589
21
340.043446
31
0.0
0
LINE
8
VISIBLE
10
545.351589
20
340.043446
30
0.0
11
546.275514
21
338.421926
31
0.0
0
LINE
8
VISIBLE
10
546.275514
20
338.421926
30
0.0
11
547.547072
21
337.270605
31
0.0
0
LINE
8
VISIBLE
10
547.547072
20
337.270605
30
0.0
11
548.712943
21
336.893397
31
0.0
0
LINE
8
VISIBLE
10
548.712943
20
336.893397
30
0.0
11
549.413796
21
337.063787
31
0.0
0
LINE
8
VISIBLE
10
549.413796
20
337.063787
30
0.0
11
549.977841
21
337.718859
31
0.0
0
LINE
8
VISIBLE
10
549.977841
20
337.718859
30
0.0
11
550.166542
21
338.847021
31
0.0
0
LINE
8
VISIBLE
10
550.166542
20
338.847021
30
0.0
11
549.832268
21
340.395262
31
0.0
0
LINE
8
VISIBLE
10
549.832268
20
340.395262
30
0.0
11
548.908344
21
342.016782
31
0.0
0
LINE
8
VISIBLE
10
548.908344
20
342.016782
30
0.0
11
547.591929
21
343.194451
31
0.0
0
LINE
8
VISIBLE
10
546.760920
20
337.883033
30
0.0
11
546.051888
21
339.537747
31
0.0
0
LINE
8
VISIBLE
10
546.051888
20
339.537747
30
0.0
11
545.153112
21
340.667840
31
0.0
0
LINE
8
VISIBLE
10
532.179715
20
366.181676
30
0.0
11
533.069782
21
365.667796
31
0.0
0
LINE
8
VISIBLE
10
533.069782
20
366.695557
30
0.0
11
532.179715
21
366.181676
31
0.0
0
LINE
8
VISIBLE
10
532.179715
20
366.181676
30
0.0
11
532.179715
21
372.131871
31
0.0
0
LINE
8
VISIBLE
10
553.962935
20
355.946803
30
0.0
11
553.494479
21
355.676340
31
0.0
0
LINE
8
VISIBLE
10
553.962935
20
358.894849
30
0.0
11
553.494479
21
358.624386
31
0.0
0
LINE
8
VISIBLE
10
535.224681
20
369.713385
30
0.0
11
534.756225
21
369.442922
31
0.0
0
LINE
8
VISIBLE
10
535.224681
20
366.765339
30
0.0
11
534.756225
21
366.494876
31
0.0
0
LINE
8
VISIBLE
10
535.224681
20
359.284860
30
0.0
11
533.069782
21
358.040728
31
0.0
0
LINE
8
VISIBLE
10
533.069782
20
378.055020
30
0.0
11
532.601326
21
377.784556
31
0.0
0
LINE
8
VISIBLE
10
535.224681
20
389.335507
30
0.0
11
532.601326
21
387.820912
31
0.0
0
LINE
8
VISIBLE
10
535.304835
20
390.701332
30
0.0
11
532.681480
21
389.186737
31
0.0
0
LINE
8
VISIBLE
10
535.543926
20
391.951234
30
0.0
11
532.920571
21
390.436639
31
0.0
0
LINE
8
VISIBLE
10
535.937863
20
393.063825
30
0.0
11
533.314508
21
391.549230
31
0.0
0
LINE
8
VISIBLE
10
536.479906
20
394.020071
30
0.0
11
533.856551
21
392.505475
31
0.0
0
LINE
8
VISIBLE
10
537.160780
20
394.803607
30
0.0
11
534.537424
21
393.289012
31
0.0
0
LINE
8
VISIBLE
10
537.968835
20
395.401029
30
0.0
11
535.345479
21
393.886434
31
0.0
0
LINE
8
VISIBLE
10
538.738104
20
341.869181
30
0.0
11
536.583205
21
340.625049
31
0.0
0
LINE
8
VISIBLE
10
538.972332
20
341.733949
30
0.0
11
536.817433
21
340.489817
31
0.0
0
LINE
8
VISIBLE
10
548.568792
20
331.603514
30
0.0
11
546.413893
21
330.359382
31
0.0
0
LINE
8
VISIBLE
10
548.015946
20
331.362863
30
0.0
11
545.861047
21
330.118731
31
0.0
0
LINE
8
VISIBLE
10
547.404546
20
331.244132
30
0.0
11
545.249647
21
330.000000
31
0.0
0
LINE
8
VISIBLE
10
546.745054
20
331.249351
30
0.0
11
544.590155
21
330.005220
31
0.0
0
LINE
8
VISIBLE
10
546.048753
20
331.378433
30
0.0
11
543.893854
21
330.134302
31
0.0
0
LINE
8
VISIBLE
10
545.327558
20
331.629168
30
0.0
11
543.172659
21
330.385037
31
0.0
0
LINE
8
VISIBLE
10
544.593808
20
331.997267
30
0.0
11
542.438909
21
330.753135
31
0.0
0
LINE
8
VISIBLE
10
543.860058
20
332.476430
30
0.0
11
541.705159
21
331.232298
31
0.0
0
LINE
8
VISIBLE
10
543.138863
20
333.058459
30
0.0
11
540.983964
21
331.814328
31
0.0
0
LINE
8
VISIBLE
10
542.442562
20
333.733396
30
0.0
11
540.287663
21
332.489265
31
0.0
0
LINE
8
VISIBLE
10
541.783070
20
334.489692
30
0.0
11
539.628171
21
333.245561
31
0.0
0
LINE
8
VISIBLE
10
541.171670
20
335.314407
30
0.0
11
539.016771
21
334.070276
31
0.0
0
LINE
8
VISIBLE
10
540.618824
20
336.193430
30
0.0
11
538.463925
21
334.949299
31
0.0
0
LINE
8
VISIBLE
10
540.133991
20
337.111720
30
0.0
11
537.979092
21
335.867589
31
0.0
0
LINE
8
VISIBLE
10
539.725467
20
338.053565
30
0.0
11
537.570568
21
336.809434
31
0.0
0
LINE
8
VISIBLE
10
539.400241
20
339.002851
30
0.0
11
537.245342
21
337.758719
31
0.0
0
LINE
8
VISIBLE
10
539.163879
20
339.943333
30
0.0
11
537.008980
21
338.699202
31
0.0
0
LINE
8
VISIBLE
10
539.020424
20
340.858921
30
0.0
11
536.865525
21
339.614790
31
0.0
0
LINE
8
VISIBLE
10
533.069782
20
372.645752
30
0.0
11
532.179715
21
372.131871
31
0.0
0
LINE
8
VISIBLE
10
536.630050
20
368.185269
30
0.0
11
535.505755
21
367.536157
31
0.0
0
LINE
8
VISIBLE
10
550.911410
20
380.773177
30
0.0
11
548.850202
21
379.583138
31
0.0
0
LINE
8
VISIBLE
10
540.618488
20
393.191774
30
0.0
11
538.754031
21
392.115330
31
0.0
0
LINE
8
VISIBLE
10
542.960769
20
385.363482
30
0.0
11
538.754031
21
382.934720
31
0.0
0
LINE
8
VISIBLE
10
546.936090
20
388.524117
30
0.0
11
544.125352
21
386.901336
31
0.0
0
LINE
8
VISIBLE
10
538.754031
20
390.925291
30
0.0
11
538.739825
21
390.917089
31
0.0
0
LINE
8
VISIBLE
10
538.754031
20
381.744681
30
0.0
11
538.739825
21
381.736479
31
0.0
0
LINE
8
VISIBLE
10
547.591929
20
343.194451
30
0.0
11
545.015419
21
341.706903
31
0.0
0
LINE
8
VISIBLE
10
550.904415
20
334.481959
30
0.0
11
547.906295
21
332.750993
31
0.0
0
LINE
8
VISIBLE
10
544.279442
20
345.956749
30
0.0
11
541.281321
21
344.225783
31
0.0
0
LINE
8
VISIBLE
10
31.928675
20
48.374675
30
0.0
11
31.928675
21
66.928675
31
0.0
0
LINE
8
VISIBLE
10
31.928675
20
48.374675
30
0.0
11
71.928675
21
48.374675
31
0.0
0
LINE
8
VISIBLE
10
31.928675
20
66.928675
30
0.0
11
32.099778
21
69.539199
31
0.0
0
LINE
8
VISIBLE
10
71.928675
20
66.928675
30
0.0
11
71.928675
21
48.374675
31
0.0
0
LINE
8
VISIBLE
10
32.099778
20
69.539199
30
0.0
11
32.610159
21
72.105056
31
0.0
0
LINE
8
VISIBLE
10
71.757572
20
69.539199
30
0.0
11
71.928675
21
66.928675
31
0.0
0
LINE
8
VISIBLE
10
32.610159
20
72.105056
30
0.0
11
33.451084
21
74.582344
31
0.0
0
LINE
8
VISIBLE
10
71.247192
20
72.105056
30
0.0
11
71.757572
21
69.539199
31
0.0
0
LINE
8
VISIBLE
10
33.451084
20
74.582344
30
0.0
11
34.608167
21
76.928675
31
0.0
0
LINE
8
VISIBLE
10
70.406266
20
74.582344
30
0.0
11
71.247192
21
72.105056
31
0.0
0
LINE
8
VISIBLE
10
34.608167
20
76.928675
30
0.0
11
36.061608
21
79.103904
31
0.0
0
LINE
8
VISIBLE
10
69.249183
20
76.928675
30
0.0
11
70.406266
21
74.582344
31
0.0
0
LINE
8
VISIBLE
10
36.061608
20
79.103904
30
0.0
11
37.786539
21
81.070811
31
0.0
0
LINE
8
VISIBLE
10
67.795742
20
79.103904
30
0.0
11
69.249183
21
76.928675
31
0.0
0
LINE
8
VISIBLE
10
37.786539
20
81.070811
30
0.0
11
39.753446
21
82.795742
31
0.0
0
LINE
8
VISIBLE
10
66.070811
20
81.070811
30
0.0
11
67.795742
21
79.103904
31
0.0
0
LINE
8
VISIBLE
10
39.753446
20
82.795742
30
0.0
11
41.928675
21
84.249183
31
0.0
0
LINE
8
VISIBLE
10
64.103904
20
82.795742
30
0.0
11
66.070811
21
81.070811
31
0.0
0
LINE
8
VISIBLE
10
41.928675
20
84.249183
30
0.0
11
44.275006
21
85.406266
31
0.0
0
LINE
8
VISIBLE
10
61.928675
20
84.249183
30
0.0
11
64.103904
21
82.795742
31
0.0
0
LINE
8
VISIBLE
10
44.275006
20
85.406266
30
0.0
11
46.752294
21
86.247192
31
0.0
0
LINE
8
VISIBLE
10
59.582344
20
85.406266
30
0.0
11
61.928675
21
84.249183
31
0.0
0
LINE
8
VISIBLE
10
46.752294
20
86.247192
30
0.0
11
49.318151
21
86.757572
31
0.0
0
LINE
8
VISIBLE
10
57.105056
20
86.247192
30
0.0
11
59.582344
21
85.406266
31
0.0
0
LINE
8
VISIBLE
10
49.318151
20
86.757572
30
0.0
11
51.928675
21
86.928675
31
0.0
0
LINE
8
VISIBLE
10
54.539199
20
86.757572
30
0.0
11
57.105056
21
86.247192
31
0.0
0
LINE
8
VISIBLE
10
51.928675
20
86.928675
30
0.0
11
54.539199
21
86.757572
31
0.0
0
CIRCLE
8
VISIBLE
10
51.928675
20
66.928675
30
0.0
40
15.900000
0
CIRCLE
8
VISIBLE
10
43.442675
20
58.442675
30
0.0
40
2.200000
0
CIRCLE
8
VISIBLE
10
43.442675
20
75.414675
30
0.0
40
2.200000
0
CIRCLE
8
VISIBLE
10
60.414675
20
58.442675
30
0.0
40
2.200000
0
CIRCLE
8
VISIBLE
10
51.928675
20
66.928675
30
0.0
40
6.000000
0
CIRCLE
8
VISIBLE
10
60.414675
20
75.414675
30
0.0
40
2.200000
0
ARC
8
VISIBLE
10
67.928675
20
27.928675
30
0.0
40
2.400000
50
294.624318
51
65.375682
0
ARC
8
VISIBLE
10
67.928675
20
27.928675
30
0.0
40
2.400000
50
245.375682
51
294.624318
0
ARC
8
VISIBLE
10
67.928675
20
27.928675
30
0.0
40
2.400000
50
114.624318
51
245.375682
0
LINE
8
VISIBLE
10
47.157036
20
46.522725
30
0.0
11
46.986319
21
45.959946
31
0.0
0
ARC
8
VISIBLE
10
35.928675
20
27.928675
30
0.0
40
2.400000
50
294.624318
51
65.375682
0
ARC
8
VISIBLE
10
35.928675
20
27.928675
30
0.0
40
2.400000
50
245.375682
51
294.624318
0
ARC
8
VISIBLE
10
35.928675
20
27.928675
30
0.0
40
2.400000
50
114.624318
51
245.375682
0
LINE
8
VISIBLE
10
71.928675
20
48.374675
30
0.0
11
71.928675
21
24.081235
31
0.0
0
LINE
8
VISIBLE
10
54.513946
20
48.317031
30
0.0
11
53.928675
21
48.374675
31
0.0
0
LINE
8
VISIBLE
10
55.076725
20
48.146314
30
0.0
11
54.513946
21
48.317031
31
0.0
0
LINE
8
VISIBLE
10
55.595386
20
47.869084
30
0.0
11
55.076725
21
48.146314
31
0.0
0
LINE
8
VISIBLE
10
56.049995
20
47.495995
30
0.0
11
55.595386
21
47.869084
31
0.0
0
LINE
8
VISIBLE
10
56.423084
20
47.041386
30
0.0
11
56.049995
21
47.495995
31
0.0
0
LINE
8
VISIBLE
10
56.700314
20
46.522725
30
0.0
11
56.423084
21
47.041386
31
0.0
0
LINE
8
VISIBLE
10
56.871031
20
45.959946
30
0.0
11
56.700314
21
46.522725
31
0.0
0
LINE
8
VISIBLE
10
56.928675
20
45.374675
30
0.0
11
56.871031
21
45.959946
31
0.0
0
LINE
8
VISIBLE
10
56.928675
20
28.374675
30
0.0
11
56.928675
21
45.374675
31
0.0
0
LINE
8
VISIBLE
10
56.871031
20
27.789404
30
0.0
11
56.928675
21
28.374675
31
0.0
0
LINE
8
VISIBLE
10
56.700314
20
27.226625
30
0.0
11
56.871031
21
27.789404
31
0.0
0
LINE
8
VISIBLE
10
56.423084
20
26.707964
30
0.0
11
56.700314
21
27.226625
31
0.0
0
LINE
8
VISIBLE
10
56.049995
20
26.253355
30
0.0
11
56.423084
21
26.707964
31
0.0
0
LINE
8
VISIBLE
10
55.595386
20
25.880266
30
0.0
11
56.049995
21
26.253355
31
0.0
0
LINE
8
VISIBLE
10
55.076725
20
25.603036
30
0.0
11
55.595386
21
25.880266
31
0.0
0
LINE
8
VISIBLE
10
54.513946
20
25.432319
30
0.0
11
55.076725
21
25.603036
31
0.0
0
LINE
8
VISIBLE
10
53.928675
20
25.374675
30
0.0
11
54.513946
21
25.432319
31
0.0
0
LINE
8
VISIBLE
10
49.928675
20
25.374675
30
0.0
11
53.928675
21
25.374675
31
0.0
0
LINE
8
VISIBLE
10
49.343404
20
25.432319
30
0.0
11
49.928675
21
25.374675
31
0.0
0
LINE
8
VISIBLE
10
48.780625
20
25.603036
30
0.0
11
49.343404
21
25.432319
31
0.0
0
LINE
8
VISIBLE
10
48.261964
20
25.880266
30
0.0
11
48.780625
21
25.603036
31
0.0
0
LINE
8
VISIBLE
10
47.807355
20
26.253355
30
0.0
11
48.261964
21
25.880266
31
0.0
0
LINE
8
VISIBLE
10
47.434266
20
26.707964
30
0.0
11
47.807355
21
26.253355
31
0.0
0
LINE
8
VISIBLE
10
47.157036
20
27.226625
30
0.0
11
47.434266
21
26.707964
31
0.0
0
LINE
8
VISIBLE
10
46.986319
20
27.789404
30
0.0
11
47.157036
21
27.226625
31
0.0
0
LINE
8
VISIBLE
10
46.928675
20
28.374675
30
0.0
11
46.986319
21
27.789404
31
0.0
0
LINE
8
VISIBLE
10
46.928675
20
45.374675
30
0.0
11
46.928675
21
28.374675
31
0.0
0
LINE
8
VISIBLE
10
46.986319
20
45.959946
30
0.0
11
46.928675
21
45.374675
31
0.0
0
LINE
8
VISIBLE
10
31.928675
20
24.081235
30
0.0
11
31.928675
21
48.374675
31
0.0
0
LINE
8
VISIBLE
10
47.434266
20
47.041386
30
0.0
11
47.157036
21
46.522725
31
0.0
0
LINE
8
VISIBLE
10
47.807355
20
47.495995
30
0.0
11
47.434266
21
47.041386
31
0.0
0
LINE
8
VISIBLE
10
49.928675
20
48.374675
30
0.0
11
49.343404
21
48.317031
31
0.0
0
LINE
8
VISIBLE
10
48.261964
20
47.869084
30
0.0
11
47.807355
21
47.495995
31
0.0
0
LINE
8
VISIBLE
10
49.343404
20
48.317031
30
0.0
11
48.780625
21
48.146314
31
0.0
0
LINE
8
VISIBLE
10
48.780625
20
48.146314
30
0.0
11
48.261964
21
47.869084
31
0.0
0
LINE
8
VISIBLE
10
34.928675
20
22.276350
30
0.0
11
34.928675
21
25.746933
31
0.0
0
LINE
8
VISIBLE
10
36.928675
20
21.281015
30
0.0
11
36.928675
21
25.746933
31
0.0
0
LINE
8
VISIBLE
10
44.928675
20
30.374675
30
0.0
11
42.928675
21
30.374675
31
0.0
0
LINE
8
VISIBLE
10
42.928675
20
30.374675
30
0.0
11
42.928675
21
41.374675
31
0.0
0
LINE
8
VISIBLE
10
44.928675
20
30.374675
30
0.0
11
44.928675
21
41.374675
31
0.0
0
LINE
8
VISIBLE
10
44.928675
20
41.374675
30
0.0
11
42.928675
21
41.374675
31
0.0
0
LINE
8
VISIBLE
10
60.928675
20
30.374675
30
0.0
11
58.928675
21
30.374675
31
0.0
0
LINE
8
VISIBLE
10
58.928675
20
30.374675
30
0.0
11
58.928675
21
41.374675
31
0.0
0
LINE
8
VISIBLE
10
60.928675
20
30.374675
30
0.0
11
60.928675
21
41.374675
31
0.0
0
LINE
8
VISIBLE
10
60.928675
20
41.374675
30
0.0
11
58.928675
21
41.374675
31
0.0
0
LINE
8
VISIBLE
10
66.928675
20
21.281015
30
0.0
11
66.928675
21
25.746933
31
0.0
0
LINE
8
VISIBLE
10
68.928675
20
22.276350
30
0.0
11
68.928675
21
25.746933
31
0.0
0
LINE
8
VISIBLE
10
36.928675
20
30.110417
30
0.0
11
36.928675
21
30.374675
31
0.0
0
LINE
8
VISIBLE
10
34.928675
20
30.110417
30
0.0
11
34.928675
21
30.374675
31
0.0
0
LINE
8
VISIBLE
10
68.928675
20
30.110417
30
0.0
11
68.928675
21
30.374675
31
0.0
0
LINE
8
VISIBLE
10
66.928675
20
30.110417
30
0.0
11
66.928675
21
30.374675
31
0.0
0
LINE
8
VISIBLE
10
36.928675
20
30.374675
30
0.0
11
34.928675
21
30.374675
31
0.0
0
LINE
8
VISIBLE
10
68.928675
20
30.374675
30
0.0
11
66.928675
21
30.374675
31
0.0
0
LINE
8
VISIBLE
10
36.928675
20
30.374675
30
0.0
11
36.928675
21
41.374675
31
0.0
0
LINE
8
VISIBLE
10
36.928675
20
41.374675
30
0.0
11
34.928675
21
41.374675
31
0.0
0
LINE
8
VISIBLE
10
34.928675
20
30.374675
30
0.0
11
34.928675
21
41.374675
31
0.0
0
LINE
8
VISIBLE
10
68.928675
20
30.374675
30
0.0
11
68.928675
21
41.374675
31
0.0
0
LINE
8
VISIBLE
10
68.928675
20
41.374675
30
0.0
11
66.928675
21
41.374675
31
0.0
0
LINE
8
VISIBLE
10
66.928675
20
30.374675
30
0.0
11
66.928675
21
41.374675
31
0.0
0
ARC
8
VISIBLE
10
67.928676
20
27.928676
30
0.0
40
2.399999
50
65.375699
51
114.624352
0
ARC
8
VISIBLE
10
35.928690
20
27.928659
30
0.0
40
2.400016
50
65.376160
51
114.624469
0
CIRCLE
8
SECTION
10
51.928675
20
53.928675
30
0.0
40
35.928675
0
LINE
8
CENTER
10
245.585325
20
256.486000
30
0.0
11
250.385325
21
256.486000
31
0.0
0
LINE
8
CENTER
10
252.785325
20
256.486000
30
0.0
11
257.585325
21
256.486000
31
0.0
0
LINE
8
CENTER
10
251.585325
20
250.486000
30
0.0
11
251.585325
21
255.286000
31
0.0
0
LINE
8
CENTER
10
251.585325
20
257.686000
30
0.0
11
251.585325
21
262.486000
31
0.0
0
LINE
8
CENTER
10
262.557325
20
256.486000
30
0.0
11
267.357325
21
256.486000
31
0.0
0
LINE
8
CENTER
10
269.757325
20
256.486000
30
0.0
11
274.557325
21
256.486000
31
0.0
0
LINE
8
CENTER
10
268.557325
20
250.486000
30
0.0
11
268.557325
21
255.286000
31
0.0
0
LINE
8
CENTER
10
268.557325
20
257.686000
30
0.0
11
268.557325
21
262.486000
31
0.0
0
LINE
8
CENTER
10
252.471325
20
248.000000
30
0.0
11
258.871325
21
248.000000
31
0.0
0
LINE
8
CENTER
10
261.271325
20
248.000000
30
0.0
11
267.671325
21
248.000000
31
0.0
0
LINE
8
CENTER
10
260.071325
20
240.400000
30
0.0
11
260.071325
21
246.800000
31
0.0
0
LINE
8
CENTER
10
260.071325
20
249.200000
30
0.0
11
260.071325
21
255.600000
31
0.0
0
LINE
8
CENTER
10
245.585325
20
239.514000
30
0.0
11
250.385325
21
239.514000
31
0.0
0
LINE
8
CENTER
10
252.785325
20
239.514000
30
0.0
11
257.585325
21
239.514000
31
0.0
0
LINE
8
CENTER
10
251.585325
20
233.514000
30
0.0
11
251.585325
21
238.314000
31
0.0
0
LINE
8
CENTER
10
251.585325
20
240.714000
30
0.0
11
251.585325
21
245.514000
31
0.0
0
LINE
8
CENTER
10
262.557325
20
239.514000
30
0.0
11
267.357325
21
239.514000
31
0.0
0
LINE
8
CENTER
10
269.757325
20
239.514000
30
0.0
11
274.557325
21
239.514000
31
0.0
0
LINE
8
CENTER
10
268.557325
20
233.514000
30
0.0
11
268.557325
21
238.314000
31
0.0
0
LINE
8
CENTER
10
268.557325
20
240.714000
30
0.0
11
268.557325
21
245.514000
31
0.0
0
LINE
8
CENTER
10
237.631325
20
209.000000
30
0.0
11
242.871325
21
209.000000
31
0.0
0
LINE
8
CENTER
10
245.271325
20
209.000000
30
0.0
11
250.511325
21
209.000000
31
0.0
0
LINE
8
CENTER
10
244.071325
20
202.560000
30
0.0
11
244.071325
21
207.800000
31
0.0
0
LINE
8
CENTER
10
244.071325
20
210.200000
30
0.0
11
244.071325
21
215.440000
31
0.0
0
LINE
8
CENTER
10
269.631325
20
209.000000
30
0.0
11
274.871325
21
209.000000
31
0.0
0
LINE
8
CENTER
10
277.271325
20
209.000000
30
0.0
11
282.511325
21
209.000000
31
0.0
0
LINE
8
CENTER
10
276.071325
20
202.560000
30
0.0
11
276.071325
21
207.800000
31
0.0
0
LINE
8
CENTER
10
276.071325
20
210.200000
30
0.0
11
276.071325
21
215.440000
31
0.0
0
LINE
8
CENTER
10
252.971325
20
164.000000
30
0.0
11
258.871325
21
164.000000
31
0.0
0
LINE
8
CENTER
10
261.271325
20
164.000000
30
0.0
11
267.171325
21
164.000000
31
0.0
0
LINE
8
CENTER
10
260.071325
20
156.900000
30
0.0
11
260.071325
21
162.800000
31
0.0
0
LINE
8
CENTER
10
260.071325
20
165.200000
30
0.0
11
260.071325
21
171.100000
31
0.0
0
LINE
8
DIM
10
240.071325
20
150.800000
30
0.0
11
240.071325
21
129.000000
31
0.0
0
LINE
8
DIM
10
280.071325
20
150.800000
30
0.0
11
280.071325
21
129.000000
31
0.0
0
LINE
8
DIM
10
240.071325
20
131.000000
30
0.0
11
280.071325
21
131.000000
31
0.0
0
SOLID
8
DIM
10
240.071325
20
131.000000
30
0.0
11
243.271325
21
130.392000
31
0.0
12
243.271325
22
131.608000
32
0.0
13
243.271325
23
131.608000
33
0.0
0
SOLID
8
DIM
10
280.071325
20
131.000000
30
0.0
11
276.871325
21
131.608000
31
0.0
12
276.871325
22
130.392000
32
0.0
13
276.871325
23
130.392000
33
0.0
0
TEXT
8
TEXT
10
260.071325
20
132.000000
30
0.0
40
2.5000
1
20.00
72
1
73
0
11
260.071325
21
132.000000
31
0.0
0
LINE
8
DIM
10
238.871325
20
152.000000
30
0.0
11
217.071325
21
152.000000
31
0.0
0
LINE
8
DIM
10
238.871325
20
268.000000
30
0.0
11
217.071325
21
268.000000
31
0.0
0
LINE
8
DIM
10
219.071325
20
152.000000
30
0.0
11
219.071325
21
268.000000
31
0.0
0
SOLID
8
DIM
10
219.071325
20
152.000000
30
0.0
11
219.679325
21
155.200000
31
0.0
12
218.463325
22
155.200000
32
0.0
13
218.463325
23
155.200000
33
0.0
0
SOLID
8
DIM
10
219.071325
20
268.000000
30
0.0
11
218.463325
21
264.800000
31
0.0
12
219.679325
22
264.800000
32
0.0
13
219.679325
23
264.800000
33
0.0
0
TEXT
8
TEXT
10
218.071325
20
210.000000
30
0.0
40
2.5000
1
58.00
50
90.0000
72
1
73
0
11
218.071325
21
210.000000
31
0.0
0
SOLID
8
DIM
10
254.294235
20
259.953247
30
0.0
11
256.743463
21
262.100560
31
0.0
12
255.785242
22
262.849204
32
0.0
13
255.785242
23
262.849204
33
0.0
0
LINE
8
DIM
10
254.294235
20
259.953247
30
0.0
11
266.050047
21
275.000000
31
0.0
0
LINE
8
DIM
10
266.050047
20
275.000000
30
0.0
11
271.050047
21
275.000000
31
0.0
0
TEXT
8
TEXT
10
271.850047
20
279.625000
30
0.0
40
2.5000
1
4x Ø2.20 THRU
0
TEXT
8
TEXT
10
271.850047
20
276.000000
30
0.0
40
2.5000
1
C'BORE Ø4.40x4.49 +X
0
SOLID
8
DIM
10
247.051126
20
212.813972
30
0.0
11
249.500354
21
214.961284
31
0.0
12
248.542133
22
215.709929
32
0.0
13
248.542133
23
215.709929
33
0.0
0
LINE
8
DIM
10
247.051126
20
212.813972
30
0.0
11
303.253711
21
284.750000
31
0.0
0
LINE
8
DIM
10
303.253711
20
284.750000
30
0.0
11
308.253711
21
284.750000
31
0.0
0
TEXT
8
TEXT
10
309.053711
20
289.375000
30
0.0
40
2.5000
1
2x Ø2.40 THRU
0
TEXT
8
TEXT
10
309.053711
20
285.750000
30
0.0
40
2.5000
1
C'BORE Ø4.84x3.00 +X
0
SOLID
8
DIM
10
263.765294
20
252.728065
30
0.0
11
266.214521
21
254.875377
31
0.0
12
265.256300
22
255.624021
32
0.0
13
265.256300
23
255.624021
33
0.0
0
LINE
8
DIM
10
263.765294
20
252.728065
30
0.0
11
296.401107
21
294.500000
31
0.0
0
LINE
8
DIM
10
296.401107
20
294.500000
30
0.0
11
301.401107
21
294.500000
31
0.0
0
TEXT
8
TEXT
10
302.201107
20
295.500000
30
0.0
40
2.5000
1
Ø6.00 THRU
0
SOLID
8
DIM
10
261.826307
20
169.212489
30
0.0
11
263.423605
21
172.051204
31
0.0
12
262.271171
22
172.439214
32
0.0
13
262.271171
23
172.439214
33
0.0
0
LINE
8
DIM
10
261.826307
20
169.212489
30
0.0
11
306.071325
21
300.625000
31
0.0
0
LINE
8
DIM
10
306.071325
20
300.625000
30
0.0
11
311.071325
21
300.625000
31
0.0
0
TEXT
8
TEXT
10
311.871325
20
305.250000
30
0.0
40
2.5000
1
Ø2.70 THRU
0
TEXT
8
TEXT
10
311.871325
20
301.625000
30
0.0
40
2.5000
1
C'BORE Ø5.50x3.49 -X
0
SOLID
8
DIM
10
241.808956
20
213.278702
30
0.0
11
238.766752
21
214.442599
31
0.0
12
238.551875
22
213.245735
32
0.0
13
238.551875
23
213.245735
33
0.0
0
LINE
8
DIM
10
241.808956
20
213.278702
30
0.0
11
231.966323
21
215.045781
31
0.0
0
LINE
8
DIM
10
231.966323
20
215.045781
30
0.0
11
228.966323
21
215.045781
31
0.0
0
TEXT
8
TEXT
10
228.166323
20
216.045781
30
0.0
40
2.5000
1
R2.42
72
2
73
0
11
228.166323
21
216.045781
31
0.0
0
SOLID
8
DIM
10
271.515052
20
259.743584
30
0.0
11
272.825008
21
262.725811
31
0.0
12
271.639963
22
262.998436
32
0.0
13
271.639963
23
262.998436
33
0.0
0
LINE
8
DIM
10
271.515052
20
259.743584
30
0.0
11
273.757032
21
269.489020
31
0.0
0
LINE
8
DIM
10
273.757032
20
269.489020
30
0.0
11
276.757032
21
269.489020
31
0.0
0
TEXT
8
TEXT
10
277.557032
20
270.489020
30
0.0
40
2.5000
1
R2.20
0
SOLID
8
DIM
10
241.671325
20
209.000000
30
0.0
11
238.443046
21
209.433447
31
0.0
12
238.509035
22
208.219239
32
0.0
13
238.509035
23
208.219239
33
0.0
0
LINE
8
DIM
10
241.671325
20
209.000000
30
0.0
11
214.711112
21
207.534771
31
0.0
0
LINE
8
DIM
10
214.711112
20
207.534771
30
0.0
11
211.711112
21
207.534771
31
0.0
0
TEXT
8
TEXT
10
210.911112
20
208.534771
30
0.0
40
2.5000
1
R1.20
72
2
73
0
11
210.911112
21
208.534771
31
0.0
0
LINE
8
DIM
10
258.871325
20
164.000000
30
0.0
11
210.071325
21
164.000000
31
0.0
0
LINE
8
DIM
10
258.871325
20
248.000000
30
0.0
11
210.071325
21
248.000000
31
0.0
0
LINE
8
DIM
10
212.071325
20
164.000000
30
0.0
11
212.071325
21
248.000000
31
0.0
0
SOLID
8
DIM
10
212.071325
20
164.000000
30
0.0
11
212.679325
21
167.200000
31
0.0
12
211.463325
22
167.200000
32
0.0
13
211.463325
23
167.200000
33
0.0
0
SOLID
8
DIM
10
212.071325
20
248.000000
30
0.0
11
211.463325
21
244.800000
31
0.0
12
212.679325
22
244.800000
32
0.0
13
212.679325
23
244.800000
33
0.0
0
TEXT
8
TEXT
10
211.071325
20
206.000000
30
0.0
40
2.5000
1
42.00
50
90.0000
72
1
73
0
11
211.071325
21
206.000000
31
0.0
0
TEXT
8
TEXT
10
260.071325
20
119.000000
30
0.0
40
4.0000
1
RIGHT VIEW
72
1
73
0
11
260.071325
21
119.000000
31
0.0
0
LINE
8
TEXT
10
248.071325
20
117.400000
30
0.0
11
272.071325
21
117.400000
31
0.0
0
TEXT
8
TEXT
10
260.071325
20
113.000000
30
0.0
40
2.4000
1
-Y →   Z ↑
72
1
73
0
11
260.071325
21
113.000000
31
0.0
0
LINE
8
DIM
10
178.171325
20
150.800000
30
0.0
11
178.171325
21
138.000000
31
0.0
0
LINE
8
DIM
10
194.071325
20
150.800000
30
0.0
11
194.071325
21
138.000000
31
0.0
0
LINE
8
DIM
10
178.171325
20
140.000000
30
0.0
11
194.071325
21
140.000000
31
0.0
0
SOLID
8
DIM
10
178.171325
20
140.000000
30
0.0
11
181.371325
21
139.392000
31
0.0
12
181.371325
22
140.608000
32
0.0
13
181.371325
23
140.608000
33
0.0
0
SOLID
8
DIM
10
194.071325
20
140.000000
30
0.0
11
190.871325
21
140.608000
31
0.0
12
190.871325
22
139.392000
32
0.0
13
190.871325
23
139.392000
33
0.0
0
TEXT
8
TEXT
10
186.121325
20
141.000000
30
0.0
40
2.5000
1
7.95
72
1
73
0
11
186.121325
21
141.000000
31
0.0
0
LINE
8
DIM
10
176.971325
20
152.000000
30
0.0
11
164.171325
21
152.000000
31
0.0
0
LINE
8
DIM
10
176.971325
20
268.000000
30
0.0
11
164.171325
21
268.000000
31
0.0
0
LINE
8
DIM
10
166.171325
20
152.000000
30
0.0
11
166.171325
21
268.000000
31
0.0
0
SOLID
8
DIM
10
166.171325
20
152.000000
30
0.0
11
166.779325
21
155.200000
31
0.0
12
165.563325
22
155.200000
32
0.0
13
165.563325
23
155.200000
33
0.0
0
SOLID
8
DIM
10
166.171325
20
268.000000
30
0.0
11
165.563325
21
264.800000
31
0.0
12
166.779325
22
264.800000
32
0.0
13
166.779325
23
264.800000
33
0.0
0
TEXT
8
TEXT
10
165.171325
20
210.000000
30
0.0
40
2.5000
1
58.00
50
90.0000
72
1
73
0
11
165.171325
21
210.000000
31
0.0
0
TEXT
8
TEXT
10
186.121325
20
128.000000
30
0.0
40
4.0000
1
FRONT VIEW
72
1
73
0
11
186.121325
21
128.000000
31
0.0
0
LINE
8
TEXT
10
174.121325
20
126.400000
30
0.0
11
198.121325
21
126.400000
31
0.0
0
TEXT
8
TEXT
10
186.121325
20
122.000000
30
0.0
40
2.4000
1
-X →   Z ↑
72
1
73
0
11
186.121325
21
122.000000
31
0.0
0
LINE
8
DIM
10
318.071325
20
150.800000
30
0.0
11
318.071325
21
138.000000
31
0.0
0
LINE
8
DIM
10
333.971325
20
150.800000
30
0.0
11
333.971325
21
138.000000
31
0.0
0
LINE
8
DIM
10
318.071325
20
140.000000
30
0.0
11
333.971325
21
140.000000
31
0.0
0
SOLID
8
DIM
10
318.071325
20
140.000000
30
0.0
11
321.271325
21
139.392000
31
0.0
12
321.271325
22
140.608000
32
0.0
13
321.271325
23
140.608000
33
0.0
0
SOLID
8
DIM
10
333.971325
20
140.000000
30
0.0
11
330.771325
21
140.608000
31
0.0
12
330.771325
22
139.392000
32
0.0
13
330.771325
23
139.392000
33
0.0
0
TEXT
8
TEXT
10
326.021325
20
141.000000
30
0.0
40
2.5000
1
7.95
72
1
73
0
11
326.021325
21
141.000000
31
0.0
0
LINE
8
DIM
10
316.871325
20
152.000000
30
0.0
11
304.071325
21
152.000000
31
0.0
0
LINE
8
DIM
10
316.871325
20
268.000000
30
0.0
11
304.071325
21
268.000000
31
0.0
0
LINE
8
DIM
10
306.071325
20
152.000000
30
0.0
11
306.071325
21
268.000000
31
0.0
0
SOLID
8
DIM
10
306.071325
20
152.000000
30
0.0
11
306.679325
21
155.200000
31
0.0
12
305.463325
22
155.200000
32
0.0
13
305.463325
23
155.200000
33
0.0
0
SOLID
8
DIM
10
306.071325
20
268.000000
30
0.0
11
305.463325
21
264.800000
31
0.0
12
306.679325
22
264.800000
32
0.0
13
306.679325
23
264.800000
33
0.0
0
TEXT
8
TEXT
10
305.071325
20
210.000000
30
0.0
40
2.5000
1
58.00
50
90.0000
72
1
73
0
11
305.071325
21
210.000000
31
0.0
0
LINE
8
HATCH
10
327.571322
20
260.886000
30
0.0
11
327.571325
21
260.886003
31
0.0
0
LINE
8
HATCH
10
321.128681
20
258.686000
30
0.0
11
327.571325
21
265.128644
31
0.0
0
LINE
8
HATCH
10
318.071325
20
259.871284
30
0.0
11
319.646148
21
261.446107
31
0.0
0
LINE
8
HATCH
10
321.971325
20
263.771284
30
0.0
11
324.267171
21
266.067130
31
0.0
0
LINE
8
HATCH
10
333.971322
20
158.709650
30
0.0
11
333.971325
21
158.709653
31
0.0
0
LINE
8
HATCH
10
326.534570
20
155.515538
30
0.0
11
327.571325
21
156.552293
31
0.0
0
LINE
8
HATCH
10
329.728681
20
158.709650
30
0.0
11
333.971325
21
162.952293
31
0.0
0
LINE
8
HATCH
10
322.971325
20
156.194934
30
0.0
11
333.971325
21
167.194934
31
0.0
0
LINE
8
HATCH
10
321.971325
20
159.437575
30
0.0
11
331.824100
21
169.290350
31
0.0
0
LINE
8
HATCH
10
321.971325
20
163.680215
30
0.0
11
327.581460
21
169.290350
31
0.0
0
LINE
8
HATCH
10
321.971325
20
167.922856
30
0.0
11
327.571325
21
173.522856
31
0.0
0
LINE
8
HATCH
10
322.971325
20
173.165497
30
0.0
11
327.571325
21
177.765497
31
0.0
0
LINE
8
HATCH
10
322.971325
20
177.408138
30
0.0
11
327.571325
21
182.008138
31
0.0
0
LINE
8
HATCH
10
322.971325
20
181.650778
30
0.0
11
327.571325
21
186.250778
31
0.0
0
LINE
8
HATCH
10
331.156224
20
189.835677
30
0.0
11
332.571325
21
191.250778
31
0.0
0
LINE
8
HATCH
10
322.971325
20
185.893419
30
0.0
11
332.571325
21
195.493419
31
0.0
0
LINE
8
HATCH
10
322.971325
20
190.136060
30
0.0
11
332.571325
21
199.736060
31
0.0
0
LINE
8
HATCH
10
322.971325
20
194.378700
30
0.0
11
332.571325
21
203.978700
31
0.0
0
LINE
8
HATCH
10
322.971325
20
198.621341
30
0.0
11
332.571325
21
208.221341
31
0.0
0
LINE
8
HATCH
10
322.971325
20
202.863982
30
0.0
11
332.571325
21
212.463982
31
0.0
0
LINE
8
HATCH
10
322.971325
20
207.106622
30
0.0
11
332.571325
21
216.706622
31
0.0
0
LINE
8
HATCH
10
322.971325
20
211.349263
30
0.0
11
332.571325
21
220.949263
31
0.0
0
LINE
8
HATCH
10
318.825421
20
211.446000
30
0.0
11
332.571325
21
225.191904
31
0.0
0
LINE
8
HATCH
10
318.071325
20
214.934544
30
0.0
11
332.571325
21
229.434544
31
0.0
0
LINE
8
HATCH
10
318.071325
20
219.177185
30
0.0
11
321.340140
21
222.446000
31
0.0
0
LINE
8
HATCH
10
322.971325
20
224.077185
30
0.0
11
332.571325
21
233.677185
31
0.0
0
LINE
8
HATCH
10
322.971325
20
228.319826
30
0.0
11
329.765499
21
235.114000
31
0.0
0
LINE
8
HATCH
10
321.971325
20
231.562466
30
0.0
11
325.522858
21
235.114000
31
0.0
0
LINE
8
HATCH
10
320.720110
20
234.553893
30
0.0
11
323.480218
21
237.314000
31
0.0
0
LINE
8
HATCH
10
318.071325
20
236.147748
30
0.0
11
319.237577
21
237.314000
31
0.0
0
LINE
8
HATCH
10
332.571322
20
243.914000
30
0.0
11
332.571325
21
243.914003
31
0.0
0
LINE
8
HATCH
10
328.328681
20
243.914000
30
0.0
11
332.571325
21
248.156644
31
0.0
0
LINE
8
HATCH
10
321.886041
20
241.714000
30
0.0
11
323.591325
21
243.419284
31
0.0
0
LINE
8
HATCH
10
324.086041
20
243.914000
30
0.0
11
332.258041
21
252.086000
31
0.0
0
LINE
8
HATCH
10
318.071325
20
242.141925
30
0.0
11
328.015400
21
252.086000
31
0.0
0
LINE
8
HATCH
10
318.071325
20
246.384566
30
0.0
11
323.772759
21
252.086000
31
0.0
0
LINE
8
HATCH
10
318.071325
20
250.627206
30
0.0
11
321.730119
21
254.286000
31
0.0
0
LINE
8
DIM
10
323.113826
20
258.686000
30
0.0
11
344.971325
21
258.686000
31
0.0
0
LINE
8
DIM
10
323.113826
20
261.446107
30
0.0
11
344.971325
21
261.446107
31
0.0
0
LINE
8
DIM
10
342.971325
20
258.686000
30
0.0
11
342.971325
21
261.446107
31
0.0
0
SOLID
8
DIM
10
342.971325
20
258.686000
30
0.0
11
342.363325
21
255.486000
31
0.0
12
343.579325
22
255.486000
32
0.0
13
343.579325
23
255.486000
33
0.0
0
SOLID
8
DIM
10
342.971325
20
261.446107
30
0.0
11
343.579325
21
264.646107
31
0.0
12
342.363325
22
264.646107
32
0.0
13
342.363325
23
264.646107
33
0.0
0
LINE
8
DIM
10
342.971325
20
261.446107
30
0.0
11
342.971325
21
271.046107
31
0.0
0
TEXT
8
TEXT
10
341.971325
20
271.846107
30
0.0
40
2.5000
1
1.38 WALL
50
90.0000
0
LINE
8
DIM
10
322.971325
20
157.636803
30
0.0
11
322.971325
21
291.000000
31
0.0
0
LINE
8
DIM
10
327.571325
20
157.636803
30
0.0
11
327.571325
21
291.000000
31
0.0
0
LINE
8
DIM
10
322.971325
20
289.000000
30
0.0
11
327.571325
21
289.000000
31
0.0
0
SOLID
8
DIM
10
322.971325
20
289.000000
30
0.0
11
319.771325
21
289.608000
31
0.0
12
319.771325
22
288.392000
32
0.0
13
319.771325
23
288.392000
33
0.0
0
SOLID
8
DIM
10
327.571325
20
289.000000
30
0.0
11
330.771325
21
288.392000
31
0.0
12
330.771325
22
289.608000
32
0.0
13
330.771325
23
289.608000
33
0.0
0
LINE
8
DIM
10
327.571325
20
289.000000
30
0.0
11
337.171325
21
289.000000
31
0.0
0
TEXT
8
TEXT
10
337.971325
20
289.400000
30
0.0
40
2.5000
1
2.30 WALL
0
TEXT
8
TEXT
10
326.021325
20
128.000000
30
0.0
40
4.0000
1
SECTION A-A
72
1
73
0
11
326.021325
21
128.000000
31
0.0
0
LINE
8
TEXT
10
312.821325
20
126.400000
30
0.0
11
339.221325
21
126.400000
31
0.0
0
TEXT
8
TEXT
10
543.071325
20
324.000000
30
0.0
40
4.0000
1
ISOMETRIC VIEW
72
1
73
0
11
543.071325
21
324.000000
31
0.0
0
LINE
8
TEXT
10
526.271325
20
322.400000
30
0.0
11
559.871325
21
322.400000
31
0.0
0
TEXT
8
TEXT
10
543.071325
20
318.000000
30
0.0
40
2.6000
1
7.95 x 20.00 x 58.00 mm
72
1
73
0
11
543.071325
21
318.000000
31
0.0
0
LINE
8
CENTER
10
37.442675
20
75.414675
30
0.0
11
42.242675
21
75.414675
31
0.0
0
LINE
8
CENTER
10
44.642675
20
75.414675
30
0.0
11
49.442675
21
75.414675
31
0.0
0
LINE
8
CENTER
10
43.442675
20
69.414675
30
0.0
11
43.442675
21
74.214675
31
0.0
0
LINE
8
CENTER
10
43.442675
20
76.614675
30
0.0
11
43.442675
21
81.414675
31
0.0
0
LINE
8
CENTER
10
54.414675
20
75.414675
30
0.0
11
59.214675
21
75.414675
31
0.0
0
LINE
8
CENTER
10
61.614675
20
75.414675
30
0.0
11
66.414675
21
75.414675
31
0.0
0
LINE
8
CENTER
10
60.414675
20
69.414675
30
0.0
11
60.414675
21
74.214675
31
0.0
0
LINE
8
CENTER
10
60.414675
20
76.614675
30
0.0
11
60.414675
21
81.414675
31
0.0
0
LINE
8
CENTER
10
44.328675
20
66.928675
30
0.0
11
50.728675
21
66.928675
31
0.0
0
LINE
8
CENTER
10
53.128675
20
66.928675
30
0.0
11
59.528675
21
66.928675
31
0.0
0
LINE
8
CENTER
10
51.928675
20
59.328675
30
0.0
11
51.928675
21
65.728675
31
0.0
0
LINE
8
CENTER
10
51.928675
20
68.128675
30
0.0
11
51.928675
21
74.528675
31
0.0
0
LINE
8
CENTER
10
37.442675
20
58.442675
30
0.0
11
42.242675
21
58.442675
31
0.0
0
LINE
8
CENTER
10
44.642675
20
58.442675
30
0.0
11
49.442675
21
58.442675
31
0.0
0
LINE
8
CENTER
10
43.442675
20
52.442675
30
0.0
11
43.442675
21
57.242675
31
0.0
0
LINE
8
CENTER
10
43.442675
20
59.642675
30
0.0
11
43.442675
21
64.442675
31
0.0
0
LINE
8
CENTER
10
54.414675
20
58.442675
30
0.0
11
59.214675
21
58.442675
31
0.0
0
LINE
8
CENTER
10
61.614675
20
58.442675
30
0.0
11
66.414675
21
58.442675
31
0.0
0
LINE
8
CENTER
10
60.414675
20
52.442675
30
0.0
11
60.414675
21
57.242675
31
0.0
0
LINE
8
CENTER
10
60.414675
20
59.642675
30
0.0
11
60.414675
21
64.442675
31
0.0
0
LINE
8
CENTER
10
29.488675
20
27.928675
30
0.0
11
34.728675
21
27.928675
31
0.0
0
LINE
8
CENTER
10
37.128675
20
27.928675
30
0.0
11
42.368675
21
27.928675
31
0.0
0
LINE
8
CENTER
10
35.928675
20
21.488675
30
0.0
11
35.928675
21
26.728675
31
0.0
0
LINE
8
CENTER
10
35.928675
20
29.128675
30
0.0
11
35.928675
21
34.368675
31
0.0
0
LINE
8
CENTER
10
61.488675
20
27.928675
30
0.0
11
66.728675
21
27.928675
31
0.0
0
LINE
8
CENTER
10
69.128675
20
27.928675
30
0.0
11
74.368675
21
27.928675
31
0.0
0
LINE
8
CENTER
10
67.928675
20
21.488675
30
0.0
11
67.928675
21
26.728675
31
0.0
0
LINE
8
CENTER
10
67.928675
20
29.128675
30
0.0
11
67.928675
21
34.368675
31
0.0
0
SOLID
8
DIM
10
67.928675
20
25.528675
30
0.0
11
68.969656
21
22.442250
31
0.0
12
70.029094
22
23.039116
32
0.0
13
70.029094
23
23.039116
33
0.0
0
LINE
8
DIM
10
67.928675
20
25.528675
30
0.0
11
72.837112
21
16.816199
31
0.0
0
LINE
8
DIM
10
72.837112
20
16.816199
30
0.0
11
75.837112
21
16.816199
31
0.0
0
TEXT
8
TEXT
10
76.637112
20
17.816199
30
0.0
40
2.5000
1
R1.20
0
TEXT
8
TEXT
10
51.928675
20
94.857350
30
0.0
40
4.0000
1
DETAIL A
72
1
73
0
11
51.928675
21
94.857350
31
0.0
0
LINE
8
TEXT
10
42.328675
20
93.257350
30
0.0
11
61.528675
21
93.257350
31
0.0
0
TEXT
8
TEXT
10
51.928675
20
100.357350
30
0.0
40
2.8000
1
SCALE 2:1
72
1
73
0
11
51.928675
21
100.357350
31
0.0
0
LINE
8
CUT
10
251.585325
20
143.000000
30
0.0
11
251.585325
21
157.000000
31
0.0
0
LINE
8
CUTTHIN
10
251.585325
20
157.000000
30
0.0
11
251.585325
21
263.000000
31
0.0
0
LINE
8
CUT
10
251.585325
20
263.000000
30
0.0
11
251.585325
21
277.000000
31
0.0
0
LINE
8
CUT
10
251.585325
20
143.000000
30
0.0
11
260.585325
21
143.000000
31
0.0
0
SOLID
8
CUT
10
260.585325
20
143.000000
30
0.0
11
256.385325
21
143.798000
31
0.0
12
256.385325
22
142.202000
32
0.0
13
256.385325
23
142.202000
33
0.0
0
TEXT
8
TEXT
10
246.585325
20
143.000000
30
0.0
40
4.0000
1
A
72
1
73
2
11
246.585325
21
143.000000
31
0.0
0
LINE
8
CUT
10
251.585325
20
277.000000
30
0.0
11
260.585325
21
277.000000
31
0.0
0
SOLID
8
CUT
10
260.585325
20
277.000000
30
0.0
11
256.385325
21
277.798000
31
0.0
12
256.385325
22
276.202000
32
0.0
13
256.385325
23
276.202000
33
0.0
0
TEXT
8
TEXT
10
246.585325
20
277.000000
30
0.0
40
4.0000
1
A
72
1
73
2
11
246.585325
21
277.000000
31
0.0
0
CIRCLE
8
CENTER
10
260.071325
20
235.000000
30
0.0
40
35.928675
0
TEXT
8
TEXT
10
297.500000
20
272.428675
30
0.0
40
4.0000
1
A
0
LINE
8
VISIBLE
10
514.071325
20
264.177778
30
0.0
11
572.071325
21
264.177778
31
0.0
0
LINE
8
VISIBLE
10
572.071325
20
264.177778
30
0.0
11
572.071325
21
308.000000
31
0.0
0
LINE
8
VISIBLE
10
572.071325
20
308.000000
30
0.0
11
514.071325
21
308.000000
31
0.0
0
LINE
8
VISIBLE
10
514.071325
20
308.000000
30
0.0
11
514.071325
21
264.177778
31
0.0
0
LINE
8
TITLE
10
514.071325
20
264.177778
30
0.0
11
572.071325
21
264.177778
31
0.0
0
LINE
8
TITLE
10
572.071325
20
264.177778
30
0.0
11
572.071325
21
308.000000
31
0.0
0
LINE
8
TITLE
10
572.071325
20
308.000000
30
0.0
11
514.071325
21
308.000000
31
0.0
0
LINE
8
TITLE
10
514.071325
20
308.000000
30
0.0
11
514.071325
21
264.177778
31
0.0
0
TEXT
8
TEXT
10
543.071325
20
261.577778
30
0.0
40
2.0000
1
REFERENCE RENDER (ISO2) — rendered off this solid,
72
1
73
0
11
543.071325
21
261.577778
31
0.0
0
TEXT
8
TEXT
10
543.071325
20
258.977778
30
0.0
40
2.0000
1
900 x 680 px
72
1
73
0
11
543.071325
21
258.977778
31
0.0
0
TEXT
8
TEXT
10
504.142650
20
251.677778
30
0.0
40
3.0000
1
HOLE TABLE — 8 POSITIONS
0
LINE
8
TITLE
10
504.142650
20
249.177778
30
0.0
11
566.662650
21
249.177778
31
0.0
0
TEXT
8
TITLE
10
505.642650
20
246.707778
30
0.0
40
2.2000
1
TAG
0
TEXT
8
TITLE
10
512.602650
20
246.707778
30
0.0
40
2.2000
1
SIZE
0
TEXT
8
TITLE
10
528.802650
20
246.707778
30
0.0
40
2.2000
1
Y
0
TEXT
8
TITLE
10
538.402650
20
246.707778
30
0.0
40
2.2000
1
Z
0
TEXT
8
TITLE
10
548.002650
20
246.707778
30
0.0
40
2.2000
1
C'BORE
0
LINE
8
TITLE
10
504.142650
20
245.107778
30
0.0
11
566.662650
21
245.107778
31
0.0
0
TEXT
8
TEXT
10
505.642650
20
242.637778
30
0.0
40
2.2000
1
A1
0
TEXT
8
TEXT
10
512.602650
20
242.637778
30
0.0
40
2.2000
1
Ø2.20 THRU
0
TEXT
8
TEXT
10
528.802650
20
242.637778
30
0.0
40
2.2000
1
26.24
0
TEXT
8
TEXT
10
538.402650
20
242.637778
30
0.0
40
2.2000
1
40.02
0
TEXT
8
TEXT
10
548.002650
20
242.637778
30
0.0
40
2.2000
1
Ø4.40x4.49 +X
0
TEXT
8
TEXT
10
505.642650
20
238.567778
30
0.0
40
2.2000
1
A2
0
TEXT
8
TEXT
10
512.602650
20
238.567778
30
0.0
40
2.2000
1
Ø2.20 THRU
0
TEXT
8
TEXT
10
528.802650
20
238.567778
30
0.0
40
2.2000
1
17.76
0
TEXT
8
TEXT
10
538.402650
20
238.567778
30
0.0
40
2.2000
1
40.02
0
TEXT
8
TEXT
10
548.002650
20
238.567778
30
0.0
40
2.2000
1
Ø4.40x4.49 +X
0
TEXT
8
TEXT
10
505.642650
20
234.497778
30
0.0
40
2.2000
1
A3
0
TEXT
8
TEXT
10
512.602650
20
234.497778
30
0.0
40
2.2000
1
Ø6.00 THRU
0
TEXT
8
TEXT
10
528.802650
20
234.497778
30
0.0
40
2.2000
1
22.00
0
TEXT
8
TEXT
10
538.402650
20
234.497778
30
0.0
40
2.2000
1
35.78
0
TEXT
8
TEXT
10
548.002650
20
234.497778
30
0.0
40
2.2000
1
-
0
TEXT
8
TEXT
10
505.642650
20
230.427778
30
0.0
40
2.2000
1
A4
0
TEXT
8
TEXT
10
512.602650
20
230.427778
30
0.0
40
2.2000
1
Ø2.20 THRU
0
TEXT
8
TEXT
10
528.802650
20
230.427778
30
0.0
40
2.2000
1
26.24
0
TEXT
8
TEXT
10
538.402650
20
230.427778
30
0.0
40
2.2000
1
31.53
0
TEXT
8
TEXT
10
548.002650
20
230.427778
30
0.0
40
2.2000
1
Ø4.40x4.49 +X
0
TEXT
8
TEXT
10
505.642650
20
226.357778
30
0.0
40
2.2000
1
A5
0
TEXT
8
TEXT
10
512.602650
20
226.357778
30
0.0
40
2.2000
1
Ø2.20 THRU
0
TEXT
8
TEXT
10
528.802650
20
226.357778
30
0.0
40
2.2000
1
17.76
0
TEXT
8
TEXT
10
538.402650
20
226.357778
30
0.0
40
2.2000
1
31.53
0
TEXT
8
TEXT
10
548.002650
20
226.357778
30
0.0
40
2.2000
1
Ø4.40x4.49 +X
0
TEXT
8
TEXT
10
505.642650
20
222.287778
30
0.0
40
2.2000
1
A6
0
TEXT
8
TEXT
10
512.602650
20
222.287778
30
0.0
40
2.2000
1
Ø2.40 THRU
0
TEXT
8
TEXT
10
528.802650
20
222.287778
30
0.0
40
2.2000
1
30.00
0
TEXT
8
TEXT
10
538.402650
20
222.287778
30
0.0
40
2.2000
1
16.28
0
TEXT
8
TEXT
10
548.002650
20
222.287778
30
0.0
40
2.2000
1
Ø4.84x3.00 +X
0
TEXT
8
TEXT
10
505.642650
20
218.217778
30
0.0
40
2.2000
1
A7
0
TEXT
8
TEXT
10
512.602650
20
218.217778
30
0.0
40
2.2000
1
Ø2.40 THRU
0
TEXT
8
TEXT
10
528.802650
20
218.217778
30
0.0
40
2.2000
1
14.00
0
TEXT
8
TEXT
10
538.402650
20
218.217778
30
0.0
40
2.2000
1
16.28
0
TEXT
8
TEXT
10
548.002650
20
218.217778
30
0.0
40
2.2000
1
Ø4.84x3.00 +X
0
TEXT
8
TEXT
10
505.642650
20
214.147778
30
0.0
40
2.2000
1
A8
0
TEXT
8
TEXT
10
512.602650
20
214.147778
30
0.0
40
2.2000
1
Ø2.70 THRU
0
TEXT
8
TEXT
10
528.802650
20
214.147778
30
0.0
40
2.2000
1
22.00
0
TEXT
8
TEXT
10
538.402650
20
214.147778
30
0.0
40
2.2000
1
-6.22
0
TEXT
8
TEXT
10
548.002650
20
214.147778
30
0.0
40
2.2000
1
Ø5.50x3.49 -X
0
LINE
8
TITLE
10
504.142650
20
212.547778
30
0.0
11
566.662650
21
212.547778
31
0.0
0
LINE
8
TITLE
10
511.102650
20
212.547778
30
0.0
11
511.102650
21
249.177778
31
0.0
0
LINE
8
TITLE
10
527.302650
20
212.547778
30
0.0
11
527.302650
21
249.177778
31
0.0
0
LINE
8
TITLE
10
536.902650
20
212.547778
30
0.0
11
536.902650
21
249.177778
31
0.0
0
LINE
8
TITLE
10
546.502650
20
212.547778
30
0.0
11
546.502650
21
249.177778
31
0.0
0
LINE
8
TITLE
10
566.662650
20
212.547778
30
0.0
11
566.662650
21
249.177778
31
0.0
0
LINE
8
TITLE
10
504.142650
20
212.547778
30
0.0
11
504.142650
21
249.177778
31
0.0
0
TEXT
8
TITLE
10
504.142650
20
208.547778
30
0.0
40
1.9660
1
every row measured off the solid; positions are model
0
TEXT
8
TITLE
10
504.142650
20
205.598721
30
0.0
40
1.9660
1
coordinates, mm. C'BORE side is the face it opens on.
0
TEXT
8
TEXT
10
504.142650
20
195.649665
30
0.0
40
3.0000
1
NOTES
0
TEXT
8
TEXT
10
504.142650
20
191.049665
30
0.0
40
2.4000
1
1. ALL DIMENSIONS IN mm AND DEGREES. EVERY DIMENSION
0
TEXT
8
TEXT
10
504.142650
20
187.329665
30
0.0
40
2.4000
1
   AND EVERY HOLE CALLOUT WAS MEASURED OFF THE
0
TEXT
8
TEXT
10
504.142650
20
183.609665
30
0.0
40
2.4000
1
   SOLID.
0
TEXT
8
TEXT
10
504.142650
20
179.889665
30
0.0
40
2.4000
1
2. PROCESS: FDM.
0
TEXT
8
TEXT
10
504.142650
20
176.169665
30
0.0
40
2.4000
1
3. THINNEST WALL, WHOLE SOLID: 0.0280 mm, AT
0
TEXT
8
TEXT
10
504.142650
20
172.449665
30
0.0
40
2.4000
1
   X=35.867 Y=31.977 Z=14.882 — MEASURED OVER THE
0
TEXT
8
TEXT
10
504.142650
20
168.729665
30
0.0
40
2.4000
1
   WHOLE SOLID BY RAY+EXACT AT 1.045 mm SAMPLE
0
TEXT
8
TEXT
10
504.142650
20
165.009665
30
0.0
40
2.4000
1
   SPACING (A FEATURE NARROWER THAN THAT CAN BE
0
TEXT
8
TEXT
10
504.142650
20
161.289665
30
0.0
40
2.4000
1
   MISSED). A RAY MINIMUM AT AN EDGE, A FILLET
0
TEXT
8
TEXT
10
504.142650
20
157.569665
30
0.0
40
2.4000
1
   RUN-OUT OR A CHAMFER TIP IS A REAL DISTANCE
0
TEXT
8
TEXT
10
504.142650
20
153.849665
30
0.0
40
2.4000
1
   THROUGH MATERIAL AND IS NOT A PRINTABLE WALL.
0
TEXT
8
TEXT
10
504.142650
20
150.129665
30
0.0
40
2.4000
1
4. GENERAL TOLERANCE CANNOT DETERMINE — SEE PRINT /
0
TEXT
8
TEXT
10
504.142650
20
146.409665
30
0.0
40
2.4000
1
   DFM NOTES UNLESS STATED.
0
TEXT
8
TEXT
10
504.142650
20
142.689665
30
0.0
40
2.4000
1
5. SECTION A-A AT Y=26.24: THINNEST MATERIAL IN THIS
0
TEXT
8
TEXT
10
504.142650
20
138.969665
30
0.0
40
2.4000
1
   PLANE ONLY 1.38 mm, AT X=38.53, Z=41.81 — A SCAN
0
TEXT
8
TEXT
10
504.142650
20
135.249665
30
0.0
40
2.4000
1
   OF ONE CUT, NOT THE PART MINIMUM.
0
TEXT
8
TEXT
10
504.142650
20
131.529665
30
0.0
40
2.4000
1
6. RIGHT VIEW: the suppression probe could not run
0
TEXT
8
TEXT
10
504.142650
20
127.809665
30
0.0
40
2.4000
1
   (AttributeError: 'list' object has no attribute
0
TEXT
8
TEXT
10
504.142650
20
124.089665
30
0.0
40
2.4000
1
   'get'), so hidden lines are KEPT.
0
TEXT
8
TEXT
10
504.142650
20
120.369665
30
0.0
40
2.4000
1
7. FRONT VIEW: the suppression probe could not run
0
TEXT
8
TEXT
10
504.142650
20
116.649665
30
0.0
40
2.4000
1
   (AttributeError: 'list' object has no attribute
0
TEXT
8
TEXT
10
504.142650
20
112.929665
30
0.0
40
2.4000
1
   'get'), so hidden lines are KEPT.
0
TEXT
8
TEXT
10
504.142650
20
105.209665
30
0.0
40
3.0000
1
PRINT / DFM
0
TEXT
8
TEXT
10
504.142650
20
100.609665
30
0.0
40
2.4000
1
1. ORIENTATION: upright, Z-up (8 x 20 x 58 mm)
0
TEXT
8
TEXT
10
504.142650
20
96.889665
30
0.0
40
2.4000
1
2. THINNEST WALL: 0.03 mm (floor 0.80 mm = 2
0
TEXT
8
TEXT
10
504.142650
20
93.169665
30
0.0
40
2.4000
1
   perimeters @ 0.4 mm nozzle)
0
TEXT
8
TEXT
10
504.142650
20
89.449665
30
0.0
40
2.4000
1
3. 15 horizontal bore(s) bridge at the crown: ream
0
TEXT
8
TEXT
10
504.142650
20
85.729665
30
0.0
40
2.4000
1
   any bearing or press-fit bore to size
0
TEXT
8
TEXT
10
504.142650
20
82.009665
30
0.0
40
2.4000
1
4. FILAMENT: PLA, ~4 g (modelled), 290 layers @ 0.2
0
TEXT
8
TEXT
10
504.142650
20
78.289665
30
0.0
40
2.4000
1
   mm
0
TEXT
8
TEXT
10
504.142650
20
74.569665
30
0.0
40
2.4000
1
5. TOLERANCE BASIS (IN-HOUSE): CANNOT DETERMINE.
0
TEXT
8
TEXT
10
504.142650
20
70.849665
30
0.0
40
2.4000
1
   Every Bambu machine on this farm records
0
TEXT
8
TEXT
10
504.142650
20
67.129665
30
0.0
40
2.4000
1
   tolerance_mm: null with the cite "no coupon
0
TEXT
8
TEXT
10
504.142650
20
63.409665
30
0.0
40
2.4000
1
   printed and measured on this machine"
0
TEXT
8
TEXT
10
504.142650
20
59.689665
30
0.0
40
2.4000
1
   (ce-machines/bambu-h2s-*/capabilities.json,
0
TEXT
8
TEXT
10
504.142650
20
55.969665
30
0.0
40
2.4000
1
   ce-machines/bambu-h2d-*/capabilities.json, read
0
TEXT
8
TEXT
10
504.142650
20
52.249665
30
0.0
40
2.4000
1
   2026-09-02), and Bambu Lab's own H2D Pro
0
TEXT
8
TEXT
10
504.142650
20
48.529665
30
0.0
40
2.4000
1
   technical specification carries no
0
TEXT
8
TEXT
10
504.142650
20
44.809665
30
0.0
40
2.4000
1
   dimensional-accuracy line at all. Dimensions on
0
TEXT
8
TEXT
10
504.142650
20
41.089665
30
0.0
40
2.4000
1
   this sheet are NOMINAL AS MODELLED.
0
TEXT
8
TEXT
10
504.142650
20
37.369665
30
0.0
40
2.4000
1
6. TOLERANCE BASIS (OUTSOURCED): JLC3DP publishes
0
TEXT
8
TEXT
10
504.142650
20
33.649665
30
0.0
40
2.4000
1
   +/-0.3 mm for FDM (jlc3dp.com,
0
TEXT
8
TEXT
10
504.142650
20
29.929665
30
0.0
40
2.4000
1
   ce-machines/farm-jlc3dp/capabilities.json) and
0
TEXT
8
TEXT
10
504.142650
20
26.209665
30
0.0
40
2.4000
1
   Hubs publishes +/-0.5% with a +/-0.5 mm floor
0
TEXT
8
TEXT
10
504.142650
20
22.489665
30
0.0
40
2.4000
1
   (hubs.com/3d-printing/,
0
TEXT
8
TEXT
10
504.142650
20
18.769665
30
0.0
40
2.4000
1
   ce-machines/farm-hubs/capabilities.json). Quote
0
TEXT
8
TEXT
10
504.142650
20
15.049665
30
0.0
40
2.4000
1
   whichever route makes the part; do not apply
0
TEXT
8
TEXT
10
504.142650
20
11.329665
30
0.0
40
2.4000
1
   both.
0
TEXT
8
TEXT
10
504.142650
20
7.609665
30
0.0
40
2.4000
1
7. THE +/-0.2 mm IN cecad/machining.py
0
TEXT
8
TEXT
10
504.142650
20
3.889665
30
0.0
40
2.4000
1
   PROCESSES['fdm'].tolerance_mm IS A REPO PLANNING
0
TEXT
8
TEXT
10
504.142650
20
0.169665
30
0.0
40
2.4000
1
   CONSTANT WITH NO VENDOR CITE and is deliberately
0
TEXT
8
TEXT
10
504.142650
20
-3.550335
30
0.0
40
2.4000
1
   not used as this sheet's general tolerance. One
0
TEXT
8
TEXT
10
504.142650
20
-7.270335
30
0.0
40
2.4000
1
   printed and measured calibration coupon on the
0
TEXT
8
TEXT
10
504.142650
20
-10.990335
30
0.0
40
2.4000
1
   machine that will make this part closes this
0
TEXT
8
TEXT
10
504.142650
20
-14.710335
30
0.0
40
2.4000
1
   note.
0
TEXT
8
TEXT
10
504.142650
20
-18.430335
30
0.0
40
2.4000
1
8. FITS: no bore on this part carries a declared ISO
0
TEXT
8
TEXT
10
504.142650
20
-22.150335
30
0.0
40
2.4000
1
   286 class, because FDM cannot be sized to one —
0
TEXT
8
TEXT
10
504.142650
20
-25.870335
30
0.0
40
2.4000
1
   H7/p6 at O3 is a 0.010 mm band against a process
0
TEXT
8
TEXT
10
504.142650
20
-29.590335
30
0.0
40
2.4000
1
   nobody here has measured. Bearing and press-fit
0
TEXT
8
TEXT
10
504.142650
20
-33.310335
30
0.0
40
2.4000
1
   bores are called out to REAM AFTER PRINTING in
0
TEXT
8
TEXT
10
504.142650
20
-37.030335
30
0.0
40
2.4000
1
   the note above.
0
LINE
8
FRAME
10
398.000000
20
10.000000
30
0.0
11
584.000000
21
10.000000
31
0.0
0
LINE
8
FRAME
10
584.000000
20
10.000000
30
0.0
11
584.000000
21
66.000000
31
0.0
0
LINE
8
FRAME
10
584.000000
20
66.000000
30
0.0
11
398.000000
21
66.000000
31
0.0
0
LINE
8
FRAME
10
398.000000
20
66.000000
30
0.0
11
398.000000
21
10.000000
31
0.0
0
LINE
8
TITLE
10
398.000000
20
53.000000
30
0.0
11
584.000000
21
53.000000
31
0.0
0
LINE
8
TITLE
10
398.000000
20
19.000000
30
0.0
11
584.000000
21
19.000000
31
0.0
0
LINE
8
TITLE
10
398.000000
20
27.500000
30
0.0
11
584.000000
21
27.500000
31
0.0
0
LINE
8
TITLE
10
398.000000
20
36.000000
30
0.0
11
584.000000
21
36.000000
31
0.0
0
LINE
8
TITLE
10
398.000000
20
44.500000
30
0.0
11
584.000000
21
44.500000
31
0.0
0
TEXT
8
TEXT
10
400.500000
20
59.500000
30
0.0
40
6.0000
1
MICRODUCK-SHIN
72
0
73
2
11
400.500000
21
59.500000
31
0.0
0
LINE
8
TITLE
10
564.000000
20
53.000000
30
0.0
11
564.000000
21
66.000000
31
0.0
0
TEXT
8
TITLE
10
574.000000
20
63.600000
30
0.0
40
1.7000
1
REV
72
1
73
0
11
574.000000
21
63.600000
31
0.0
0
TEXT
8
TEXT
10
574.000000
20
55.000000
30
0.0
40
5.2000
1
A
72
1
73
0
11
574.000000
21
55.000000
31
0.0
0
LINE
8
TITLE
10
534.000000
20
53.000000
30
0.0
11
534.000000
21
66.000000
31
0.0
0
CIRCLE
8
TITLE
10
540.500000
20
59.500000
30
0.0
40
3.500000
0
CIRCLE
8
TITLE
10
540.500000
20
59.500000
30
0.0
40
1.960000
0
LINE
8
TITLE
10
550.300000
20
56.000000
30
0.0
11
550.300000
21
63.000000
31
0.0
0
LINE
8
TITLE
10
550.300000
20
63.000000
30
0.0
11
556.250000
21
61.460000
31
0.0
0
LINE
8
TITLE
10
556.250000
20
61.460000
30
0.0
11
556.250000
21
57.540000
31
0.0
0
LINE
8
TITLE
10
556.250000
20
57.540000
30
0.0
11
550.300000
21
56.000000
31
0.0
0
LINE
8
CENTER
10
535.500000
20
59.500000
30
0.0
11
557.750000
21
59.500000
31
0.0
0
LINE
8
TITLE
10
462.000000
20
19.000000
30
0.0
11
462.000000
21
53.000000
31
0.0
0
LINE
8
TITLE
10
526.000000
20
19.000000
30
0.0
11
526.000000
21
53.000000
31
0.0
0
TEXT
8
TITLE
10
399.600000
20
50.600000
30
0.0
40
1.7000
1
MATERIAL
0
TEXT
8
TEXT
10
399.600000
20
45.900000
30
0.0
40
2.5000
1
PLA
0
TEXT
8
TITLE
10
463.600000
20
50.600000
30
0.0
40
1.7000
1
PROCESS
0
TEXT
8
TEXT
10
463.600000
20
45.900000
30
0.0
40
2.5000
1
FDM
0
TEXT
8
TITLE
10
527.600000
20
50.600000
30
0.0
40
1.7000
1
SCALE
0
TEXT
8
TEXT
10
527.600000
20
45.900000
30
0.0
40
2.5000
1
2:1
0
TEXT
8
TITLE
10
399.600000
20
42.100000
30
0.0
40
1.7000
1
CATEGORY
0
TEXT
8
TEXT
10
399.600000
20
37.400000
30
0.0
40
2.5000
1
bracket
0
TEXT
8
TITLE
10
431.600000
20
42.100000
30
0.0
40
1.7000
1
GENERAL TOL
0
TEXT
8
TEXT
10
431.600000
20
37.400000
30
0.0
40
2.5000
1
CANNOT DETERMINE —~
0
LINE
8
TITLE
10
430.000000
20
36.000000
30
0.0
11
430.000000
21
44.500000
31
0.0
0
TEXT
8
TITLE
10
463.600000
20
42.100000
30
0.0
40
1.7000
1
FINISH
0
TEXT
8
TEXT
10
463.600000
20
37.400000
30
0.0
40
2.5000
1
AS PRINTED
0
TEXT
8
TITLE
10
527.600000
20
42.100000
30
0.0
40
1.7000
1
SHEET
0
TEXT
8
TEXT
10
527.600000
20
37.400000
30
0.0
40
2.5000
1
A2  1/1
0
TEXT
8
TITLE
10
399.600000
20
33.600000
30
0.0
40
1.7000
1
VOLUME (MEASURED)
0
TEXT
8
TEXT
10
399.600000
20
28.900000
30
0.0
40
2.5000
1
3.39 cm3
0
TEXT
8
TITLE
10
463.600000
20
33.600000
30
0.0
40
1.7000
1
MASS (ASSUMES PLA)
0
TEXT
8
TEXT
10
463.600000
20
28.900000
30
0.0
40
2.5000
1
4.2 g
0
TEXT
8
TITLE
10
527.600000
20
33.600000
30
0.0
40
1.7000
1
UNITS
0
TEXT
8
TEXT
10
527.600000
20
28.900000
30
0.0
40
2.5000
1
mm / deg
0
TEXT
8
TITLE
10
399.600000
20
25.100000
30
0.0
40
1.7000
1
SIZE (BBOX, MEASURED)
0
TEXT
8
TEXT
10
399.600000
20
20.400000
30
0.0
40
2.5000
1
7.95 x 20.00 x 58.00
0
TEXT
8
TITLE
10
463.600000
20
25.100000
30
0.0
40
1.7000
1
DRAWN
0
TEXT
8
TEXT
10
463.600000
20
20.400000
30
0.0
40
2.5000
1
ce-cad  2026-09-02
0
TEXT
8
TITLE
10
527.600000
20
25.100000
30
0.0
40
1.7000
1
PROJECTION
0
TEXT
8
TEXT
10
527.600000
20
20.400000
30
0.0
40
2.5000
1
THIRD ANGLE
0
TEXT
8
TITLE
10
399.600000
20
16.600000
30
0.0
40
1.7000
1
SOURCE (DESIGN FILE)
0
TEXT
8
TEXT
10
399.600000
20
11.400000
30
0.0
40
2.6000
1
ce-parts/microduck-shin/current/cad/part.py
0
TEXT
8
TEXT
10
12.500000
20
403.500000
30
0.0
40
4.2000
1
microduck-shin   SCALE 2:1   A2   THIRD ANGLE
0
ENDSEC
0
EOF
