0
SECTION
2
HEADER
9
$ACADVER
1
AC1009
9
$INSUNITS
70
4
9
$LTSCALE
40
1.0
9
$EXTMIN
10
0.0000
20
0.0000
30
0.0
9
$EXTMAX
10
420.0000
20
297.0000
30
0.0
0
ENDSEC
0
SECTION
2
TABLES
0
TABLE
2
LTYPE
70
4
0
LTYPE
2
CONTINUOUS
70
0
3
Solid line
72
65
73
0
40
0.0000
0
LTYPE
2
HIDDEN
70
0
3
Hidden __ __ __ __
72
65
73
2
40
3.6000
49
2.4000
49
-1.2000
0
LTYPE
2
CENTER
70
0
3
Center ____ _ ____ _
72
65
73
4
40
11.2000
49
7.0000
49
-1.4000
49
1.4000
49
-1.4000
0
LTYPE
2
PHANTOM
70
0
3
Phantom ____ _ _ ____
72
65
73
6
40
21.0000
49
11.0000
49
-2.0000
49
2.0000
49
-2.0000
49
2.0000
49
-2.0000
0
ENDTAB
0
TABLE
2
LAYER
70
12
0
LAYER
2
0
70
0
62
7
6
CONTINUOUS
0
LAYER
2
VISIBLE
70
0
62
7
6
CONTINUOUS
0
LAYER
2
SECTION
70
0
62
7
6
CONTINUOUS
0
LAYER
2
HIDDEN
70
0
62
8
6
HIDDEN
0
LAYER
2
CENTER
70
0
62
4
6
CENTER
0
LAYER
2
DIM
70
0
62
3
6
CONTINUOUS
0
LAYER
2
TEXT
70
0
62
3
6
CONTINUOUS
0
LAYER
2
HATCH
70
0
62
5
6
CONTINUOUS
0
LAYER
2
CUT
70
0
62
1
6
PHANTOM
0
LAYER
2
CUTTHIN
70
0
62
1
6
PHANTOM
0
LAYER
2
FRAME
70
0
62
7
6
CONTINUOUS
0
LAYER
2
TITLE
70
0
62
7
6
CONTINUOUS
0
ENDTAB
0
ENDSEC
0
SECTION
2
ENTITIES
0
LINE
8
TITLE
10
5.000000
20
5.000000
30
0.0
11
415.000000
21
5.000000
31
0.0
0
LINE
8
TITLE
10
415.000000
20
5.000000
30
0.0
11
415.000000
21
292.000000
31
0.0
0
LINE
8
TITLE
10
415.000000
20
292.000000
30
0.0
11
5.000000
21
292.000000
31
0.0
0
LINE
8
TITLE
10
5.000000
20
292.000000
30
0.0
11
5.000000
21
5.000000
31
0.0
0
LINE
8
FRAME
10
10.000000
20
10.000000
30
0.0
11
410.000000
21
10.000000
31
0.0
0
LINE
8
FRAME
10
410.000000
20
10.000000
30
0.0
11
410.000000
21
287.000000
31
0.0
0
LINE
8
FRAME
10
410.000000
20
287.000000
30
0.0
11
10.000000
21
287.000000
31
0.0
0
LINE
8
FRAME
10
10.000000
20
287.000000
30
0.0
11
10.000000
21
10.000000
31
0.0
0
TEXT
8
TITLE
10
60.000000
20
289.500000
30
0.0
40
2.4000
1
1
72
1
73
2
11
60.000000
21
289.500000
31
0.0
0
TEXT
8
TITLE
10
60.000000
20
7.500000
30
0.0
40
2.4000
1
1
72
1
73
2
11
60.000000
21
7.500000
31
0.0
0
TEXT
8
TITLE
10
160.000000
20
289.500000
30
0.0
40
2.4000
1
2
72
1
73
2
11
160.000000
21
289.500000
31
0.0
0
TEXT
8
TITLE
10
160.000000
20
7.500000
30
0.0
40
2.4000
1
2
72
1
73
2
11
160.000000
21
7.500000
31
0.0
0
LINE
8
TITLE
10
110.000000
20
5.000000
30
0.0
11
110.000000
21
10.000000
31
0.0
0
LINE
8
TITLE
10
110.000000
20
287.000000
30
0.0
11
110.000000
21
292.000000
31
0.0
0
TEXT
8
TITLE
10
260.000000
20
289.500000
30
0.0
40
2.4000
1
3
72
1
73
2
11
260.000000
21
289.500000
31
0.0
0
TEXT
8
TITLE
10
260.000000
20
7.500000
30
0.0
40
2.4000
1
3
72
1
73
2
11
260.000000
21
7.500000
31
0.0
0
LINE
8
TITLE
10
210.000000
20
5.000000
30
0.0
11
210.000000
21
10.000000
31
0.0
0
LINE
8
TITLE
10
210.000000
20
287.000000
30
0.0
11
210.000000
21
292.000000
31
0.0
0
TEXT
8
TITLE
10
360.000000
20
289.500000
30
0.0
40
2.4000
1
4
72
1
73
2
11
360.000000
21
289.500000
31
0.0
0
TEXT
8
TITLE
10
360.000000
20
7.500000
30
0.0
40
2.4000
1
4
72
1
73
2
11
360.000000
21
7.500000
31
0.0
0
LINE
8
TITLE
10
310.000000
20
5.000000
30
0.0
11
310.000000
21
10.000000
31
0.0
0
LINE
8
TITLE
10
310.000000
20
287.000000
30
0.0
11
310.000000
21
292.000000
31
0.0
0
TEXT
8
TITLE
10
7.500000
20
56.166667
30
0.0
40
2.4000
1
C
72
1
73
2
11
7.500000
21
56.166667
31
0.0
0
TEXT
8
TITLE
10
412.500000
20
56.166667
30
0.0
40
2.4000
1
C
72
1
73
2
11
412.500000
21
56.166667
31
0.0
0
TEXT
8
TITLE
10
7.500000
20
148.500000
30
0.0
40
2.4000
1
B
72
1
73
2
11
7.500000
21
148.500000
31
0.0
0
TEXT
8
TITLE
10
412.500000
20
148.500000
30
0.0
40
2.4000
1
B
72
1
73
2
11
412.500000
21
148.500000
31
0.0
0
LINE
8
TITLE
10
5.000000
20
102.333333
30
0.0
11
10.000000
21
102.333333
31
0.0
0
LINE
8
TITLE
10
410.000000
20
102.333333
30
0.0
11
415.000000
21
102.333333
31
0.0
0
TEXT
8
TITLE
10
7.500000
20
240.833333
30
0.0
40
2.4000
1
A
72
1
73
2
11
7.500000
21
240.833333
31
0.0
0
TEXT
8
TITLE
10
412.500000
20
240.833333
30
0.0
40
2.4000
1
A
72
1
73
2
11
412.500000
21
240.833333
31
0.0
0
LINE
8
TITLE
10
5.000000
20
194.666667
30
0.0
11
10.000000
21
194.666667
31
0.0
0
LINE
8
TITLE
10
410.000000
20
194.666667
30
0.0
11
415.000000
21
194.666667
31
0.0
0
LINE
8
VISIBLE
10
155.000000
20
198.946000
30
0.0
11
155.000000
21
217.500000
31
0.0
0
LINE
8
VISIBLE
10
155.000000
20
198.946000
30
0.0
11
195.000000
21
198.946000
31
0.0
0
LINE
8
VISIBLE
10
155.000000
20
217.500000
30
0.0
11
155.171103
21
220.110524
31
0.0
0
LINE
8
VISIBLE
10
195.000000
20
217.500000
30
0.0
11
195.000000
21
198.946000
31
0.0
0
LINE
8
VISIBLE
10
155.171103
20
220.110524
30
0.0
11
155.681483
21
222.676381
31
0.0
0
LINE
8
VISIBLE
10
194.828897
20
220.110524
30
0.0
11
195.000000
21
217.500000
31
0.0
0
LINE
8
VISIBLE
10
155.681483
20
222.676381
30
0.0
11
156.522409
21
225.153669
31
0.0
0
LINE
8
VISIBLE
10
194.318517
20
222.676381
30
0.0
11
194.828897
21
220.110524
31
0.0
0
LINE
8
VISIBLE
10
156.522409
20
225.153669
30
0.0
11
157.679492
21
227.500000
31
0.0
0
LINE
8
VISIBLE
10
193.477591
20
225.153669
30
0.0
11
194.318517
21
222.676381
31
0.0
0
LINE
8
VISIBLE
10
157.679492
20
227.500000
30
0.0
11
159.132933
21
229.675229
31
0.0
0
LINE
8
VISIBLE
10
192.320508
20
227.500000
30
0.0
11
193.477591
21
225.153669
31
0.0
0
LINE
8
VISIBLE
10
159.132933
20
229.675229
30
0.0
11
160.857864
21
231.642136
31
0.0
0
LINE
8
VISIBLE
10
190.867067
20
229.675229
30
0.0
11
192.320508
21
227.500000
31
0.0
0
LINE
8
VISIBLE
10
160.857864
20
231.642136
30
0.0
11
162.824771
21
233.367067
31
0.0
0
LINE
8
VISIBLE
10
189.142136
20
231.642136
30
0.0
11
190.867067
21
229.675229
31
0.0
0
LINE
8
VISIBLE
10
162.824771
20
233.367067
30
0.0
11
165.000000
21
234.820508
31
0.0
0
LINE
8
VISIBLE
10
187.175229
20
233.367067
30
0.0
11
189.142136
21
231.642136
31
0.0
0
LINE
8
VISIBLE
10
165.000000
20
234.820508
30
0.0
11
167.346331
21
235.977591
31
0.0
0
LINE
8
VISIBLE
10
185.000000
20
234.820508
30
0.0
11
187.175229
21
233.367067
31
0.0
0
LINE
8
VISIBLE
10
167.346331
20
235.977591
30
0.0
11
169.823619
21
236.818517
31
0.0
0
LINE
8
VISIBLE
10
182.653669
20
235.977591
30
0.0
11
185.000000
21
234.820508
31
0.0
0
LINE
8
VISIBLE
10
169.823619
20
236.818517
30
0.0
11
172.389476
21
237.328897
31
0.0
0
LINE
8
VISIBLE
10
180.176381
20
236.818517
30
0.0
11
182.653669
21
235.977591
31
0.0
0
LINE
8
VISIBLE
10
172.389476
20
237.328897
30
0.0
11
175.000000
21
237.500000
31
0.0
0
LINE
8
VISIBLE
10
177.610524
20
237.328897
30
0.0
11
180.176381
21
236.818517
31
0.0
0
LINE
8
VISIBLE
10
175.000000
20
237.500000
30
0.0
11
177.610524
21
237.328897
31
0.0
0
CIRCLE
8
VISIBLE
10
175.000000
20
217.500000
30
0.0
40
15.900000
0
CIRCLE
8
VISIBLE
10
166.514000
20
209.014000
30
0.0
40
2.200000
0
CIRCLE
8
VISIBLE
10
166.514000
20
225.986000
30
0.0
40
2.200000
0
CIRCLE
8
VISIBLE
10
183.486000
20
209.014000
30
0.0
40
2.200000
0
CIRCLE
8
VISIBLE
10
175.000000
20
217.500000
30
0.0
40
6.000000
0
CIRCLE
8
VISIBLE
10
183.486000
20
225.986000
30
0.0
40
2.200000
0
ARC
8
VISIBLE
10
191.000000
20
178.500000
30
0.0
40
2.400000
50
294.624318
51
65.375682
0
ARC
8
VISIBLE
10
191.000000
20
178.500000
30
0.0
40
2.400000
50
245.375682
51
294.624318
0
ARC
8
VISIBLE
10
191.000000
20
178.500000
30
0.0
40
2.400000
50
114.624318
51
245.375682
0
LINE
8
VISIBLE
10
170.228361
20
197.094050
30
0.0
11
170.057644
21
196.531271
31
0.0
0
ARC
8
VISIBLE
10
159.000000
20
178.500000
30
0.0
40
2.400000
50
294.624318
51
65.375682
0
ARC
8
VISIBLE
10
159.000000
20
178.500000
30
0.0
40
2.400000
50
245.375682
51
294.624318
0
ARC
8
VISIBLE
10
159.000000
20
178.500000
30
0.0
40
2.400000
50
114.624318
51
245.375682
0
LINE
8
VISIBLE
10
195.000000
20
198.946000
30
0.0
11
195.000000
21
161.946000
31
0.0
0
LINE
8
VISIBLE
10
177.585271
20
198.888356
30
0.0
11
177.000000
21
198.946000
31
0.0
0
LINE
8
VISIBLE
10
195.000000
20
161.946000
30
0.0
11
187.500000
21
133.500000
31
0.0
0
LINE
8
VISIBLE
10
178.148050
20
198.717639
30
0.0
11
177.585271
21
198.888356
31
0.0
0
LINE
8
VISIBLE
10
187.500000
20
133.500000
30
0.0
11
187.000000
21
133.500000
31
0.0
0
LINE
8
VISIBLE
10
178.666711
20
198.440409
30
0.0
11
178.148050
21
198.717639
31
0.0
0
LINE
8
VISIBLE
10
187.000000
20
133.500000
30
0.0
11
186.897338
21
131.933686
31
0.0
0
LINE
8
VISIBLE
10
179.121320
20
198.067320
30
0.0
11
178.666711
21
198.440409
31
0.0
0
LINE
8
VISIBLE
10
186.897338
20
131.933686
30
0.0
11
186.591110
21
130.394171
31
0.0
0
LINE
8
VISIBLE
10
179.494409
20
197.612711
30
0.0
11
179.121320
21
198.067320
31
0.0
0
LINE
8
VISIBLE
10
186.591110
20
130.394171
30
0.0
11
186.086554
21
128.907799
31
0.0
0
LINE
8
VISIBLE
10
179.771639
20
197.094050
30
0.0
11
179.494409
21
197.612711
31
0.0
0
LINE
8
VISIBLE
10
186.086554
20
128.907799
30
0.0
11
185.392305
21
127.500000
31
0.0
0
LINE
8
VISIBLE
10
179.942356
20
196.531271
30
0.0
11
179.771639
21
197.094050
31
0.0
0
LINE
8
VISIBLE
10
185.392305
20
127.500000
30
0.0
11
184.520240
21
126.194863
31
0.0
0
LINE
8
VISIBLE
10
180.000000
20
195.946000
30
0.0
11
179.942356
21
196.531271
31
0.0
0
LINE
8
VISIBLE
10
184.520240
20
126.194863
30
0.0
11
183.485281
21
125.014719
31
0.0
0
LINE
8
VISIBLE
10
180.000000
20
178.946000
30
0.0
11
180.000000
21
195.946000
31
0.0
0
LINE
8
VISIBLE
10
183.485281
20
125.014719
30
0.0
11
182.305137
21
123.979760
31
0.0
0
LINE
8
VISIBLE
10
179.942356
20
178.360729
30
0.0
11
180.000000
21
178.946000
31
0.0
0
LINE
8
VISIBLE
10
182.305137
20
123.979760
30
0.0
11
181.000000
21
123.107695
31
0.0
0
LINE
8
VISIBLE
10
179.771639
20
177.797950
30
0.0
11
179.942356
21
178.360729
31
0.0
0
LINE
8
VISIBLE
10
181.000000
20
123.107695
30
0.0
11
179.592201
21
122.413446
31
0.0
0
LINE
8
VISIBLE
10
179.494409
20
177.279289
30
0.0
11
179.771639
21
177.797950
31
0.0
0
LINE
8
VISIBLE
10
179.592201
20
122.413446
30
0.0
11
178.105829
21
121.908890
31
0.0
0
LINE
8
VISIBLE
10
179.121320
20
176.824680
30
0.0
11
179.494409
21
177.279289
31
0.0
0
LINE
8
VISIBLE
10
178.105829
20
121.908890
30
0.0
11
176.566314
21
121.602662
31
0.0
0
LINE
8
VISIBLE
10
178.666711
20
176.451591
30
0.0
11
179.121320
21
176.824680
31
0.0
0
LINE
8
VISIBLE
10
176.566314
20
121.602662
30
0.0
11
175.000000
21
121.500000
31
0.0
0
LINE
8
VISIBLE
10
178.148050
20
176.174361
30
0.0
11
178.666711
21
176.451591
31
0.0
0
LINE
8
VISIBLE
10
175.000000
20
121.500000
30
0.0
11
173.433686
21
121.602662
31
0.0
0
LINE
8
VISIBLE
10
177.585271
20
176.003644
30
0.0
11
178.148050
21
176.174361
31
0.0
0
LINE
8
VISIBLE
10
173.433686
20
121.602662
30
0.0
11
171.894171
21
121.908890
31
0.0
0
LINE
8
VISIBLE
10
177.000000
20
175.946000
30
0.0
11
177.585271
21
176.003644
31
0.0
0
LINE
8
VISIBLE
10
171.894171
20
121.908890
30
0.0
11
170.407799
21
122.413446
31
0.0
0
LINE
8
VISIBLE
10
173.000000
20
175.946000
30
0.0
11
177.000000
21
175.946000
31
0.0
0
LINE
8
VISIBLE
10
170.407799
20
122.413446
30
0.0
11
169.000000
21
123.107695
31
0.0
0
LINE
8
VISIBLE
10
172.414729
20
176.003644
30
0.0
11
173.000000
21
175.946000
31
0.0
0
LINE
8
VISIBLE
10
169.000000
20
123.107695
30
0.0
11
167.694863
21
123.979760
31
0.0
0
LINE
8
VISIBLE
10
171.851950
20
176.174361
30
0.0
11
172.414729
21
176.003644
31
0.0
0
LINE
8
VISIBLE
10
167.694863
20
123.979760
30
0.0
11
166.514719
21
125.014719
31
0.0
0
LINE
8
VISIBLE
10
171.333289
20
176.451591
30
0.0
11
171.851950
21
176.174361
31
0.0
0
LINE
8
VISIBLE
10
166.514719
20
125.014719
30
0.0
11
165.479760
21
126.194863
31
0.0
0
LINE
8
VISIBLE
10
170.878680
20
176.824680
30
0.0
11
171.333289
21
176.451591
31
0.0
0
LINE
8
VISIBLE
10
165.479760
20
126.194863
30
0.0
11
164.607695
21
127.500000
31
0.0
0
LINE
8
VISIBLE
10
170.505591
20
177.279289
30
0.0
11
170.878680
21
176.824680
31
0.0
0
LINE
8
VISIBLE
10
164.607695
20
127.500000
30
0.0
11
163.913446
21
128.907799
31
0.0
0
LINE
8
VISIBLE
10
170.228361
20
177.797950
30
0.0
11
170.505591
21
177.279289
31
0.0
0
LINE
8
VISIBLE
10
163.913446
20
128.907799
30
0.0
11
163.408890
21
130.394171
31
0.0
0
LINE
8
VISIBLE
10
170.057644
20
178.360729
30
0.0
11
170.228361
21
177.797950
31
0.0
0
LINE
8
VISIBLE
10
163.408890
20
130.394171
30
0.0
11
163.102662
21
131.933686
31
0.0
0
LINE
8
VISIBLE
10
170.000000
20
178.946000
30
0.0
11
170.057644
21
178.360729
31
0.0
0
LINE
8
VISIBLE
10
163.102662
20
131.933686
30
0.0
11
163.000000
21
133.500000
31
0.0
0
LINE
8
VISIBLE
10
170.000000
20
195.946000
30
0.0
11
170.000000
21
178.946000
31
0.0
0
LINE
8
VISIBLE
10
163.000000
20
133.500000
30
0.0
11
162.500000
21
133.500000
31
0.0
0
LINE
8
VISIBLE
10
170.057644
20
196.531271
30
0.0
11
170.000000
21
195.946000
31
0.0
0
LINE
8
VISIBLE
10
162.500000
20
133.500000
30
0.0
11
155.000000
21
161.946000
31
0.0
0
LINE
8
VISIBLE
10
155.000000
20
161.946000
30
0.0
11
155.000000
21
198.946000
31
0.0
0
LINE
8
VISIBLE
10
170.505591
20
197.612711
30
0.0
11
170.228361
21
197.094050
31
0.0
0
LINE
8
VISIBLE
10
170.878680
20
198.067320
30
0.0
11
170.505591
21
197.612711
31
0.0
0
LINE
8
VISIBLE
10
173.000000
20
198.946000
30
0.0
11
172.414729
21
198.888356
31
0.0
0
LINE
8
VISIBLE
10
171.333289
20
198.440409
30
0.0
11
170.878680
21
198.067320
31
0.0
0
LINE
8
VISIBLE
10
172.414729
20
198.888356
30
0.0
11
171.851950
21
198.717639
31
0.0
0
LINE
8
VISIBLE
10
171.851950
20
198.717639
30
0.0
11
171.333289
21
198.440409
31
0.0
0
LINE
8
VISIBLE
10
158.000000
20
163.946000
30
0.0
11
158.000000
21
176.318258
31
0.0
0
LINE
8
VISIBLE
10
160.000000
20
163.946000
30
0.0
11
158.000000
21
163.946000
31
0.0
0
LINE
8
VISIBLE
10
160.000000
20
163.946000
30
0.0
11
160.000000
21
176.318258
31
0.0
0
LINE
8
VISIBLE
10
168.000000
20
180.946000
30
0.0
11
166.000000
21
180.946000
31
0.0
0
LINE
8
VISIBLE
10
166.000000
20
180.946000
30
0.0
11
166.000000
21
191.946000
31
0.0
0
LINE
8
VISIBLE
10
168.000000
20
180.946000
30
0.0
11
168.000000
21
191.946000
31
0.0
0
LINE
8
VISIBLE
10
168.000000
20
191.946000
30
0.0
11
166.000000
21
191.946000
31
0.0
0
CIRCLE
8
VISIBLE
10
175.000000
20
133.500000
30
0.0
40
10.000000
0
LINE
8
VISIBLE
10
184.000000
20
180.946000
30
0.0
11
182.000000
21
180.946000
31
0.0
0
LINE
8
VISIBLE
10
182.000000
20
180.946000
30
0.0
11
182.000000
21
191.946000
31
0.0
0
LINE
8
VISIBLE
10
184.000000
20
180.946000
30
0.0
11
184.000000
21
191.946000
31
0.0
0
LINE
8
VISIBLE
10
184.000000
20
191.946000
30
0.0
11
182.000000
21
191.946000
31
0.0
0
LINE
8
VISIBLE
10
190.000000
20
163.946000
30
0.0
11
190.000000
21
176.318258
31
0.0
0
LINE
8
VISIBLE
10
192.000000
20
163.946000
30
0.0
11
190.000000
21
163.946000
31
0.0
0
LINE
8
VISIBLE
10
192.000000
20
163.946000
30
0.0
11
192.000000
21
176.318258
31
0.0
0
LINE
8
VISIBLE
10
160.000000
20
180.681742
30
0.0
11
160.000000
21
180.946000
31
0.0
0
LINE
8
VISIBLE
10
158.000000
20
180.681742
30
0.0
11
158.000000
21
180.946000
31
0.0
0
LINE
8
VISIBLE
10
192.000000
20
180.681742
30
0.0
11
192.000000
21
180.946000
31
0.0
0
LINE
8
VISIBLE
10
190.000000
20
180.681742
30
0.0
11
190.000000
21
180.946000
31
0.0
0
CIRCLE
8
VISIBLE
10
175.000000
20
133.500000
30
0.0
40
8.000000
0
LINE
8
VISIBLE
10
160.000000
20
180.946000
30
0.0
11
158.000000
21
180.946000
31
0.0
0
LINE
8
VISIBLE
10
192.000000
20
180.946000
30
0.0
11
190.000000
21
180.946000
31
0.0
0
LINE
8
VISIBLE
10
160.000000
20
180.946000
30
0.0
11
160.000000
21
191.946000
31
0.0
0
LINE
8
VISIBLE
10
160.000000
20
191.946000
30
0.0
11
158.000000
21
191.946000
31
0.0
0
LINE
8
VISIBLE
10
158.000000
20
180.946000
30
0.0
11
158.000000
21
191.946000
31
0.0
0
LINE
8
VISIBLE
10
192.000000
20
180.946000
30
0.0
11
192.000000
21
191.946000
31
0.0
0
LINE
8
VISIBLE
10
192.000000
20
191.946000
30
0.0
11
190.000000
21
191.946000
31
0.0
0
LINE
8
VISIBLE
10
190.000000
20
180.946000
30
0.0
11
190.000000
21
191.946000
31
0.0
0
CIRCLE
8
VISIBLE
10
175.000000
20
133.500000
30
0.0
40
2.700000
0
CIRCLE
8
VISIBLE
10
175.000000
20
133.500000
30
0.0
40
4.920000
0
ARC
8
VISIBLE
10
191.000001
20
178.500001
30
0.0
40
2.399999
50
65.375699
51
114.624352
0
ARC
8
VISIBLE
10
159.000014
20
178.499984
30
0.0
40
2.400016
50
65.376160
51
114.624469
0
LINE
8
HIDDEN
10
195.000000
20
181.224995
30
0.0
11
195.000000
21
175.775005
31
0.0
0
ARC
8
HIDDEN
10
191.000000
20
178.500000
30
0.0
40
4.840000
50
34.264603
51
90.000000
0
CIRCLE
8
HIDDEN
10
191.000000
20
178.500000
30
0.0
40
2.400000
0
ARC
8
HIDDEN
10
159.000000
20
178.500000
30
0.0
40
4.840000
50
90.000000
51
145.735397
0
LINE
8
HIDDEN
10
162.600000
20
207.003875
30
0.0
11
162.600000
21
181.735058
31
0.0
0
LINE
8
HIDDEN
10
162.600000
20
216.566000
30
0.0
11
162.600000
21
211.024125
31
0.0
0
LINE
8
HIDDEN
10
162.837878
20
218.981218
30
0.0
11
162.600000
21
216.566000
31
0.0
0
LINE
8
HIDDEN
10
163.542371
20
221.303621
30
0.0
11
162.837878
21
218.981218
31
0.0
0
LINE
8
HIDDEN
10
164.084373
20
222.317634
30
0.0
11
163.542371
21
221.303621
31
0.0
0
LINE
8
HIDDEN
10
172.564782
20
228.708122
30
0.0
11
170.399219
21
228.051205
31
0.0
0
LINE
8
HIDDEN
10
174.980000
20
228.946000
30
0.0
11
172.564782
21
228.708122
31
0.0
0
LINE
8
HIDDEN
10
175.020000
20
228.946000
30
0.0
11
174.980000
21
228.946000
31
0.0
0
LINE
8
HIDDEN
10
177.435218
20
228.708122
30
0.0
11
175.020000
21
228.946000
31
0.0
0
LINE
8
HIDDEN
10
179.600781
20
228.051205
30
0.0
11
177.435218
21
228.708122
31
0.0
0
LINE
8
HIDDEN
10
186.457629
20
221.303621
30
0.0
11
185.915627
21
222.317634
31
0.0
0
LINE
8
HIDDEN
10
187.162122
20
218.981218
30
0.0
11
186.457629
21
221.303621
31
0.0
0
LINE
8
HIDDEN
10
187.400000
20
216.566000
30
0.0
11
187.162122
21
218.981218
31
0.0
0
LINE
8
HIDDEN
10
187.400000
20
211.024125
30
0.0
11
187.400000
21
216.566000
31
0.0
0
LINE
8
HIDDEN
10
187.400000
20
181.735058
30
0.0
11
187.400000
21
207.003875
31
0.0
0
ARC
8
HIDDEN
10
191.000000
20
178.500000
30
0.0
40
4.840000
50
90.000000
51
138.056273
0
ARC
8
HIDDEN
10
191.000000
20
178.500000
30
0.0
40
4.840000
50
34.264603
51
90.000000
0
LINE
8
HIDDEN
10
195.000000
20
217.500000
30
0.0
11
195.000000
21
181.224995
31
0.0
0
LINE
8
HIDDEN
10
155.000000
20
181.224995
30
0.0
11
155.000000
21
217.500000
31
0.0
0
LINE
8
HIDDEN
10
162.600000
20
181.735058
30
0.0
11
162.600000
21
207.003875
31
0.0
0
ARC
8
HIDDEN
10
166.514000
20
209.014000
30
0.0
40
4.400000
50
90.000000
51
152.816184
0
ARC
8
HIDDEN
10
166.514000
20
209.014000
30
0.0
40
4.400000
50
207.183816
51
90.000000
0
CIRCLE
8
HIDDEN
10
166.514000
20
209.014000
30
0.0
40
4.400000
0
LINE
8
HIDDEN
10
162.600000
20
211.024125
30
0.0
11
162.600000
21
216.566000
31
0.0
0
LINE
8
HIDDEN
10
162.600000
20
216.566000
30
0.0
11
162.837878
21
218.981218
31
0.0
0
LINE
8
HIDDEN
10
162.837878
20
218.981218
30
0.0
11
163.542371
21
221.303621
31
0.0
0
LINE
8
HIDDEN
10
163.542371
20
221.303621
30
0.0
11
164.084373
21
222.317634
31
0.0
0
ARC
8
HIDDEN
10
166.514000
20
225.986000
30
0.0
40
4.400000
50
236.482748
51
27.993077
0
CIRCLE
8
HIDDEN
10
166.514000
20
225.986000
30
0.0
40
4.400000
0
LINE
8
HIDDEN
10
170.399219
20
228.051205
30
0.0
11
172.564782
21
228.708122
31
0.0
0
LINE
8
HIDDEN
10
172.564782
20
228.708122
30
0.0
11
174.980000
21
228.946000
31
0.0
0
LINE
8
HIDDEN
10
174.980000
20
228.946000
30
0.0
11
175.020000
21
228.946000
31
0.0
0
LINE
8
HIDDEN
10
175.020000
20
228.946000
30
0.0
11
177.435218
21
228.708122
31
0.0
0
LINE
8
HIDDEN
10
177.435218
20
228.708122
30
0.0
11
179.600781
21
228.051205
31
0.0
0
ARC
8
HIDDEN
10
183.486000
20
225.986000
30
0.0
40
4.400000
50
152.006923
51
303.517252
0
CIRCLE
8
HIDDEN
10
183.486000
20
225.986000
30
0.0
40
4.400000
0
LINE
8
HIDDEN
10
185.915627
20
222.317634
30
0.0
11
186.457629
21
221.303621
31
0.0
0
LINE
8
HIDDEN
10
186.457629
20
221.303621
30
0.0
11
187.162122
21
218.981218
31
0.0
0
LINE
8
HIDDEN
10
187.162122
20
218.981218
30
0.0
11
187.400000
21
216.566000
31
0.0
0
LINE
8
HIDDEN
10
187.400000
20
216.566000
30
0.0
11
187.400000
21
211.024125
31
0.0
0
ARC
8
HIDDEN
10
183.486000
20
209.014000
30
0.0
40
4.400000
50
90.000000
51
332.816184
0
ARC
8
HIDDEN
10
183.486000
20
209.014000
30
0.0
40
4.400000
50
27.183816
51
90.000000
0
CIRCLE
8
HIDDEN
10
183.486000
20
209.014000
30
0.0
40
4.400000
0
LINE
8
HIDDEN
10
187.400000
20
207.003875
30
0.0
11
187.400000
21
181.735058
31
0.0
0
LINE
8
HIDDEN
10
172.564782
20
156.183878
30
0.0
11
170.242379
21
156.888371
31
0.0
0
LINE
8
HIDDEN
10
174.980000
20
155.946000
30
0.0
11
172.564782
21
156.183878
31
0.0
0
LINE
8
HIDDEN
10
175.020000
20
155.946000
30
0.0
11
174.980000
21
155.946000
31
0.0
0
LINE
8
HIDDEN
10
177.435218
20
156.183878
30
0.0
11
175.020000
21
155.946000
31
0.0
0
LINE
8
HIDDEN
10
179.757621
20
156.888371
30
0.0
11
177.435218
21
156.183878
31
0.0
0
LINE
8
HIDDEN
10
181.897959
20
158.032406
30
0.0
11
179.757621
21
156.888371
31
0.0
0
LINE
8
HIDDEN
10
183.773982
20
159.572018
30
0.0
11
181.897959
21
158.032406
31
0.0
0
LINE
8
HIDDEN
10
185.313594
20
161.448041
30
0.0
11
183.773982
21
159.572018
31
0.0
0
LINE
8
HIDDEN
10
186.457629
20
163.588379
30
0.0
11
185.313594
21
161.448041
31
0.0
0
LINE
8
HIDDEN
10
187.162122
20
165.910782
30
0.0
11
186.457629
21
163.588379
31
0.0
0
LINE
8
HIDDEN
10
187.400000
20
168.326000
30
0.0
11
187.162122
21
165.910782
31
0.0
0
LINE
8
HIDDEN
10
187.400000
20
175.264942
30
0.0
11
187.400000
21
168.326000
31
0.0
0
ARC
8
HIDDEN
10
191.000000
20
178.500000
30
0.0
40
4.840000
50
138.056273
51
221.943727
0
ARC
8
HIDDEN
10
159.000000
20
178.500000
30
0.0
40
4.840000
50
318.056273
51
41.943727
0
LINE
8
HIDDEN
10
162.600000
20
168.326000
30
0.0
11
162.600000
21
175.264942
31
0.0
0
LINE
8
HIDDEN
10
162.837878
20
165.910782
30
0.0
11
162.600000
21
168.326000
31
0.0
0
LINE
8
HIDDEN
10
163.542371
20
163.588379
30
0.0
11
162.837878
21
165.910782
31
0.0
0
LINE
8
HIDDEN
10
164.686406
20
161.448041
30
0.0
11
163.542371
21
163.588379
31
0.0
0
LINE
8
HIDDEN
10
166.226018
20
159.572018
30
0.0
11
164.686406
21
161.448041
31
0.0
0
LINE
8
HIDDEN
10
168.102041
20
158.032406
30
0.0
11
166.226018
21
159.572018
31
0.0
0
LINE
8
HIDDEN
10
170.242379
20
156.888371
30
0.0
11
168.102041
21
158.032406
31
0.0
0
LINE
8
HIDDEN
10
177.000000
20
198.946000
30
0.0
11
173.000000
21
198.946000
31
0.0
0
LINE
8
HIDDEN
10
155.000000
20
161.946000
30
0.0
11
155.000000
21
175.775005
31
0.0
0
ARC
8
HIDDEN
10
159.000000
20
178.500000
30
0.0
40
4.840000
50
214.264603
51
318.056273
0
LINE
8
HIDDEN
10
162.600000
20
175.264942
30
0.0
11
162.600000
21
168.326000
31
0.0
0
LINE
8
HIDDEN
10
162.600000
20
168.326000
30
0.0
11
162.837878
21
165.910782
31
0.0
0
LINE
8
HIDDEN
10
162.837878
20
165.910782
30
0.0
11
163.542371
21
163.588379
31
0.0
0
LINE
8
HIDDEN
10
163.542371
20
163.588379
30
0.0
11
164.686406
21
161.448041
31
0.0
0
LINE
8
HIDDEN
10
164.686406
20
161.448041
30
0.0
11
166.226018
21
159.572018
31
0.0
0
LINE
8
HIDDEN
10
166.226018
20
159.572018
30
0.0
11
168.102041
21
158.032406
31
0.0
0
LINE
8
HIDDEN
10
168.102041
20
158.032406
30
0.0
11
170.242379
21
156.888371
31
0.0
0
LINE
8
HIDDEN
10
170.242379
20
156.888371
30
0.0
11
172.564782
21
156.183878
31
0.0
0
LINE
8
HIDDEN
10
172.564782
20
156.183878
30
0.0
11
174.980000
21
155.946000
31
0.0
0
LINE
8
HIDDEN
10
174.980000
20
155.946000
30
0.0
11
175.020000
21
155.946000
31
0.0
0
LINE
8
HIDDEN
10
175.020000
20
155.946000
30
0.0
11
177.435218
21
156.183878
31
0.0
0
LINE
8
HIDDEN
10
177.435218
20
156.183878
30
0.0
11
179.757621
21
156.888371
31
0.0
0
LINE
8
HIDDEN
10
179.757621
20
156.888371
30
0.0
11
181.897959
21
158.032406
31
0.0
0
LINE
8
HIDDEN
10
181.897959
20
158.032406
30
0.0
11
183.773982
21
159.572018
31
0.0
0
LINE
8
HIDDEN
10
183.773982
20
159.572018
30
0.0
11
185.313594
21
161.448041
31
0.0
0
LINE
8
HIDDEN
10
185.313594
20
161.448041
30
0.0
11
186.457629
21
163.588379
31
0.0
0
LINE
8
HIDDEN
10
186.457629
20
163.588379
30
0.0
11
187.162122
21
165.910782
31
0.0
0
LINE
8
HIDDEN
10
187.162122
20
165.910782
30
0.0
11
187.400000
21
168.326000
31
0.0
0
LINE
8
HIDDEN
10
187.400000
20
168.326000
30
0.0
11
187.400000
21
175.264942
31
0.0
0
ARC
8
HIDDEN
10
191.000000
20
178.500000
30
0.0
40
4.840000
50
221.943727
51
325.735397
0
LINE
8
HIDDEN
10
195.000000
20
175.775005
30
0.0
11
195.000000
21
161.946000
31
0.0
0
ARC
8
HIDDEN
10
159.000000
20
178.500000
30
0.0
40
4.840000
50
90.000000
51
145.735397
0
LINE
8
HIDDEN
10
155.000000
20
175.775005
30
0.0
11
155.000000
21
181.224995
31
0.0
0
ARC
8
HIDDEN
10
159.000000
20
178.500000
30
0.0
40
4.840000
50
214.264603
51
90.000000
0
CIRCLE
8
HIDDEN
10
159.000000
20
178.500000
30
0.0
40
2.400000
0
LINE
8
HIDDEN
10
195.000000
20
198.946000
30
0.0
11
177.000000
21
198.946000
31
0.0
0
LINE
8
HIDDEN
10
173.000000
20
198.946000
30
0.0
11
155.000000
21
198.946000
31
0.0
0
LINE
8
HIDDEN
10
158.000000
20
180.681742
30
0.0
11
158.000000
21
191.946000
31
0.0
0
LINE
8
HIDDEN
10
160.000000
20
180.681742
30
0.0
11
160.000000
21
191.946000
31
0.0
0
LINE
8
HIDDEN
10
190.000000
20
180.681742
30
0.0
11
190.000000
21
191.946000
31
0.0
0
LINE
8
HIDDEN
10
192.000000
20
180.681742
30
0.0
11
192.000000
21
191.946000
31
0.0
0
CIRCLE
8
HIDDEN
10
175.000000
20
133.500000
30
0.0
40
5.500000
0
CIRCLE
8
HIDDEN
10
175.000000
20
133.500000
30
0.0
40
5.500000
0
ARC
8
HIDDEN
10
191.000000
20
178.500000
30
0.0
40
4.840000
50
90.000000
51
325.735397
0
ARC
8
HIDDEN
10
158.999999
20
178.500000
30
0.0
40
4.840001
50
41.943721
51
89.999984
0
ARC
8
HIDDEN
10
166.514002
20
209.013999
30
0.0
40
4.400002
50
152.816181
51
207.183793
0
ARC
8
HIDDEN
10
166.514000
20
225.986000
30
0.0
40
4.400000
50
27.993077
51
236.482748
0
ARC
8
HIDDEN
10
183.486000
20
225.986000
30
0.0
40
4.400000
50
303.517252
51
152.006923
0
ARC
8
HIDDEN
10
183.486001
20
209.013999
30
0.0
40
4.399999
50
332.816186
51
27.183830
0
LINE
8
VISIBLE
10
97.000000
20
217.500000
30
0.0
11
97.000000
21
198.946000
31
0.0
0
LINE
8
VISIBLE
10
97.000000
20
220.110524
30
0.0
11
97.000000
21
217.500000
31
0.0
0
LINE
8
VISIBLE
10
97.000000
20
222.676381
30
0.0
11
97.000000
21
220.110524
31
0.0
0
LINE
8
VISIBLE
10
97.000000
20
225.153669
30
0.0
11
97.000000
21
222.676381
31
0.0
0
LINE
8
VISIBLE
10
97.000000
20
227.500000
30
0.0
11
97.000000
21
225.153669
31
0.0
0
LINE
8
VISIBLE
10
97.000000
20
229.675229
30
0.0
11
97.000000
21
227.500000
31
0.0
0
LINE
8
VISIBLE
10
97.000000
20
231.642136
30
0.0
11
97.000000
21
229.675229
31
0.0
0
LINE
8
VISIBLE
10
97.000000
20
233.367067
30
0.0
11
97.000000
21
231.642136
31
0.0
0
LINE
8
VISIBLE
10
97.000000
20
234.820508
30
0.0
11
97.000000
21
233.367067
31
0.0
0
LINE
8
VISIBLE
10
97.000000
20
235.977591
30
0.0
11
97.000000
21
234.820508
31
0.0
0
LINE
8
VISIBLE
10
97.000000
20
236.818517
30
0.0
11
97.000000
21
235.977591
31
0.0
0
LINE
8
VISIBLE
10
97.000000
20
237.328897
30
0.0
11
97.000000
21
236.818517
31
0.0
0
LINE
8
VISIBLE
10
97.000000
20
237.500000
30
0.0
11
97.000000
21
237.328897
31
0.0
0
LINE
8
VISIBLE
10
97.000000
20
233.400000
30
0.0
11
93.100000
21
233.400000
31
0.0
0
LINE
8
VISIBLE
10
93.100000
20
233.400000
30
0.0
11
93.100000
21
201.600000
31
0.0
0
LINE
8
VISIBLE
10
101.600000
20
175.775005
30
0.0
11
101.600000
21
176.100000
31
0.0
0
LINE
8
VISIBLE
10
101.600000
20
180.900000
30
0.0
11
101.600000
21
181.224995
31
0.0
0
LINE
8
VISIBLE
10
101.600000
20
181.224995
30
0.0
11
101.600000
21
175.775005
31
0.0
0
LINE
8
VISIBLE
10
98.000000
20
180.681742
30
0.0
11
97.000000
21
180.681742
31
0.0
0
LINE
8
VISIBLE
10
98.000000
20
176.318258
30
0.0
11
97.000000
21
176.318258
31
0.0
0
LINE
8
VISIBLE
10
102.600000
20
217.500000
30
0.0
11
102.600000
21
181.224995
31
0.0
0
LINE
8
VISIBLE
10
102.600000
20
220.110524
30
0.0
11
102.600000
21
217.500000
31
0.0
0
LINE
8
VISIBLE
10
102.600000
20
222.676381
30
0.0
11
102.600000
21
220.110524
31
0.0
0
LINE
8
VISIBLE
10
102.600000
20
225.153669
30
0.0
11
102.600000
21
222.676381
31
0.0
0
LINE
8
VISIBLE
10
102.600000
20
227.500000
30
0.0
11
102.600000
21
225.153669
31
0.0
0
LINE
8
VISIBLE
10
102.600000
20
229.675229
30
0.0
11
102.600000
21
227.500000
31
0.0
0
LINE
8
VISIBLE
10
102.600000
20
231.642136
30
0.0
11
102.600000
21
229.675229
31
0.0
0
LINE
8
VISIBLE
10
102.600000
20
233.367067
30
0.0
11
102.600000
21
231.642136
31
0.0
0
LINE
8
VISIBLE
10
102.600000
20
234.820508
30
0.0
11
102.600000
21
233.367067
31
0.0
0
LINE
8
VISIBLE
10
102.600000
20
235.977591
30
0.0
11
102.600000
21
234.820508
31
0.0
0
LINE
8
VISIBLE
10
102.600000
20
236.818517
30
0.0
11
102.600000
21
235.977591
31
0.0
0
LINE
8
VISIBLE
10
102.600000
20
237.328897
30
0.0
11
102.600000
21
236.818517
31
0.0
0
LINE
8
VISIBLE
10
102.600000
20
237.500000
30
0.0
11
102.600000
21
237.328897
31
0.0
0
LINE
8
VISIBLE
10
107.600000
20
228.946000
30
0.0
11
102.600000
21
228.946000
31
0.0
0
LINE
8
VISIBLE
10
107.600000
20
228.946000
30
0.0
11
107.600000
21
228.708122
31
0.0
0
LINE
8
VISIBLE
10
107.600000
20
228.708122
30
0.0
11
102.600000
21
228.708122
31
0.0
0
LINE
8
VISIBLE
10
107.600000
20
228.708122
30
0.0
11
107.600000
21
228.051205
31
0.0
0
LINE
8
VISIBLE
10
107.600000
20
228.051205
30
0.0
11
102.600000
21
228.051205
31
0.0
0
LINE
8
VISIBLE
10
107.600000
20
222.317634
30
0.0
11
107.600000
21
228.051205
31
0.0
0
LINE
8
VISIBLE
10
107.600000
20
222.317634
30
0.0
11
102.600000
21
222.317634
31
0.0
0
LINE
8
VISIBLE
10
107.600000
20
222.317634
30
0.0
11
107.600000
21
221.303621
31
0.0
0
LINE
8
VISIBLE
10
107.600000
20
221.303621
30
0.0
11
102.600000
21
221.303621
31
0.0
0
LINE
8
VISIBLE
10
107.600000
20
221.303621
30
0.0
11
107.600000
21
218.981218
31
0.0
0
LINE
8
VISIBLE
10
107.600000
20
218.981218
30
0.0
11
102.600000
21
218.981218
31
0.0
0
LINE
8
VISIBLE
10
107.600000
20
218.981218
30
0.0
11
107.600000
21
216.566000
31
0.0
0
LINE
8
VISIBLE
10
107.600000
20
216.566000
30
0.0
11
102.600000
21
216.566000
31
0.0
0
LINE
8
VISIBLE
10
107.600000
20
216.566000
30
0.0
11
107.600000
21
211.024125
31
0.0
0
LINE
8
VISIBLE
10
107.600000
20
211.024125
30
0.0
11
102.600000
21
211.024125
31
0.0
0
LINE
8
VISIBLE
10
107.600000
20
207.003875
30
0.0
11
107.600000
21
211.024125
31
0.0
0
LINE
8
VISIBLE
10
107.600000
20
207.003875
30
0.0
11
102.600000
21
207.003875
31
0.0
0
LINE
8
VISIBLE
10
107.600000
20
207.003875
30
0.0
11
107.600000
21
181.735058
31
0.0
0
LINE
8
VISIBLE
10
107.600000
20
181.735058
30
0.0
11
102.600000
21
181.735058
31
0.0
0
LINE
8
VISIBLE
10
107.600000
20
156.183878
30
0.0
11
107.600000
21
155.946000
31
0.0
0
LINE
8
VISIBLE
10
107.600000
20
156.888371
30
0.0
11
107.600000
21
156.183878
31
0.0
0
LINE
8
VISIBLE
10
107.600000
20
158.032406
30
0.0
11
107.600000
21
156.888371
31
0.0
0
LINE
8
VISIBLE
10
107.600000
20
159.572018
30
0.0
11
107.600000
21
158.032406
31
0.0
0
LINE
8
VISIBLE
10
107.600000
20
161.448041
30
0.0
11
107.600000
21
159.572018
31
0.0
0
LINE
8
VISIBLE
10
107.600000
20
163.588379
30
0.0
11
107.600000
21
161.448041
31
0.0
0
LINE
8
VISIBLE
10
107.600000
20
165.910782
30
0.0
11
107.600000
21
163.588379
31
0.0
0
LINE
8
VISIBLE
10
107.600000
20
168.326000
30
0.0
11
107.600000
21
165.910782
31
0.0
0
LINE
8
VISIBLE
10
107.600000
20
175.264942
30
0.0
11
107.600000
21
168.326000
31
0.0
0
LINE
8
VISIBLE
10
107.600000
20
175.264942
30
0.0
11
107.600000
21
181.735058
31
0.0
0
LINE
8
VISIBLE
10
102.600000
20
121.602662
30
0.0
11
102.600000
21
121.500000
31
0.0
0
LINE
8
VISIBLE
10
102.600000
20
121.908890
30
0.0
11
102.600000
21
121.602662
31
0.0
0
LINE
8
VISIBLE
10
102.600000
20
122.413446
30
0.0
11
102.600000
21
121.908890
31
0.0
0
LINE
8
VISIBLE
10
102.600000
20
123.107695
30
0.0
11
102.600000
21
122.413446
31
0.0
0
LINE
8
VISIBLE
10
102.600000
20
123.979760
30
0.0
11
102.600000
21
123.107695
31
0.0
0
LINE
8
VISIBLE
10
102.600000
20
125.014719
30
0.0
11
102.600000
21
123.979760
31
0.0
0
LINE
8
VISIBLE
10
102.600000
20
126.194863
30
0.0
11
102.600000
21
125.014719
31
0.0
0
LINE
8
VISIBLE
10
102.600000
20
127.500000
30
0.0
11
102.600000
21
126.194863
31
0.0
0
LINE
8
VISIBLE
10
102.600000
20
128.907799
30
0.0
11
102.600000
21
127.500000
31
0.0
0
LINE
8
VISIBLE
10
102.600000
20
130.394171
30
0.0
11
102.600000
21
128.907799
31
0.0
0
LINE
8
VISIBLE
10
102.600000
20
175.775005
30
0.0
11
102.600000
21
161.946000
31
0.0
0
LINE
8
VISIBLE
10
102.600000
20
131.933686
30
0.0
11
102.600000
21
130.394171
31
0.0
0
LINE
8
VISIBLE
10
102.600000
20
161.946000
30
0.0
11
102.600000
21
133.500000
31
0.0
0
LINE
8
VISIBLE
10
102.600000
20
133.500000
30
0.0
11
102.600000
21
131.933686
31
0.0
0
LINE
8
VISIBLE
10
107.600000
20
168.326000
30
0.0
11
102.600000
21
168.326000
31
0.0
0
LINE
8
VISIBLE
10
107.600000
20
175.264942
30
0.0
11
102.600000
21
175.264942
31
0.0
0
LINE
8
VISIBLE
10
107.600000
20
155.946000
30
0.0
11
102.600000
21
155.946000
31
0.0
0
LINE
8
VISIBLE
10
107.600000
20
156.183878
30
0.0
11
102.600000
21
156.183878
31
0.0
0
LINE
8
VISIBLE
10
107.600000
20
156.888371
30
0.0
11
102.600000
21
156.888371
31
0.0
0
LINE
8
VISIBLE
10
107.600000
20
158.032406
30
0.0
11
102.600000
21
158.032406
31
0.0
0
LINE
8
VISIBLE
10
107.600000
20
159.572018
30
0.0
11
102.600000
21
159.572018
31
0.0
0
LINE
8
VISIBLE
10
107.600000
20
161.448041
30
0.0
11
102.600000
21
161.448041
31
0.0
0
LINE
8
VISIBLE
10
107.600000
20
163.588379
30
0.0
11
102.600000
21
163.588379
31
0.0
0
LINE
8
VISIBLE
10
107.600000
20
165.910782
30
0.0
11
102.600000
21
165.910782
31
0.0
0
LINE
8
VISIBLE
10
109.000000
20
143.500000
30
0.0
11
102.600000
21
143.500000
31
0.0
0
LINE
8
VISIBLE
10
109.000000
20
143.500000
30
0.0
11
109.000000
21
123.500000
31
0.0
0
LINE
8
VISIBLE
10
98.000000
20
198.946000
30
0.0
11
98.000000
21
161.946000
31
0.0
0
LINE
8
VISIBLE
10
98.000000
20
161.946000
30
0.0
11
98.000000
21
133.500000
31
0.0
0
LINE
8
VISIBLE
10
98.000000
20
133.500000
30
0.0
11
98.000000
21
131.933686
31
0.0
0
LINE
8
VISIBLE
10
98.000000
20
131.933686
30
0.0
11
98.000000
21
130.394171
31
0.0
0
LINE
8
VISIBLE
10
98.000000
20
130.394171
30
0.0
11
98.000000
21
128.907799
31
0.0
0
LINE
8
VISIBLE
10
98.000000
20
128.907799
30
0.0
11
98.000000
21
127.500000
31
0.0
0
LINE
8
VISIBLE
10
98.000000
20
127.500000
30
0.0
11
98.000000
21
126.194863
31
0.0
0
LINE
8
VISIBLE
10
98.000000
20
126.194863
30
0.0
11
98.000000
21
125.014719
31
0.0
0
LINE
8
VISIBLE
10
98.000000
20
125.014719
30
0.0
11
98.000000
21
123.979760
31
0.0
0
LINE
8
VISIBLE
10
98.000000
20
123.979760
30
0.0
11
98.000000
21
123.107695
31
0.0
0
LINE
8
VISIBLE
10
98.000000
20
123.107695
30
0.0
11
98.000000
21
122.413446
31
0.0
0
LINE
8
VISIBLE
10
98.000000
20
122.413446
30
0.0
11
98.000000
21
121.908890
31
0.0
0
LINE
8
VISIBLE
10
98.000000
20
121.908890
30
0.0
11
98.000000
21
121.602662
31
0.0
0
LINE
8
VISIBLE
10
98.000000
20
121.602662
30
0.0
11
98.000000
21
121.500000
31
0.0
0
LINE
8
VISIBLE
10
98.000000
20
198.946000
30
0.0
11
98.000000
21
198.888356
31
0.0
0
LINE
8
VISIBLE
10
98.000000
20
143.500000
30
0.0
11
97.000000
21
143.500000
31
0.0
0
LINE
8
VISIBLE
10
97.000000
20
143.500000
30
0.0
11
97.000000
21
123.500000
31
0.0
0
LINE
8
VISIBLE
10
98.000000
20
163.946000
30
0.0
11
97.000000
21
163.946000
31
0.0
0
LINE
8
VISIBLE
10
97.000000
20
163.946000
30
0.0
11
97.000000
21
176.318258
31
0.0
0
LINE
8
VISIBLE
10
97.000000
20
180.681742
30
0.0
11
97.000000
21
180.946000
31
0.0
0
LINE
8
VISIBLE
10
97.000000
20
180.946000
30
0.0
11
93.100000
21
180.946000
31
0.0
0
LINE
8
VISIBLE
10
93.100000
20
180.946000
30
0.0
11
93.100000
21
191.946000
31
0.0
0
LINE
8
VISIBLE
10
97.000000
20
138.420000
30
0.0
11
93.420000
21
138.420000
31
0.0
0
LINE
8
VISIBLE
10
93.420000
20
138.420000
30
0.0
11
93.420000
21
128.580000
31
0.0
0
LINE
8
VISIBLE
10
102.600000
20
181.224995
30
0.0
11
101.600000
21
181.224995
31
0.0
0
LINE
8
VISIBLE
10
102.600000
20
175.775005
30
0.0
11
101.600000
21
175.775005
31
0.0
0
LINE
8
VISIBLE
10
102.600000
20
161.946000
30
0.0
11
98.000000
21
161.946000
31
0.0
0
LINE
8
VISIBLE
10
98.000000
20
198.946000
30
0.0
11
97.000000
21
198.946000
31
0.0
0
LINE
8
VISIBLE
10
102.600000
20
217.500000
30
0.0
11
97.000000
21
217.500000
31
0.0
0
LINE
8
VISIBLE
10
102.600000
20
220.110524
30
0.0
11
97.000000
21
220.110524
31
0.0
0
LINE
8
VISIBLE
10
102.600000
20
222.676381
30
0.0
11
97.000000
21
222.676381
31
0.0
0
LINE
8
VISIBLE
10
102.600000
20
225.153669
30
0.0
11
97.000000
21
225.153669
31
0.0
0
LINE
8
VISIBLE
10
102.600000
20
227.500000
30
0.0
11
97.000000
21
227.500000
31
0.0
0
LINE
8
VISIBLE
10
102.600000
20
229.675229
30
0.0
11
97.000000
21
229.675229
31
0.0
0
LINE
8
VISIBLE
10
102.600000
20
231.642136
30
0.0
11
97.000000
21
231.642136
31
0.0
0
LINE
8
VISIBLE
10
102.600000
20
233.367067
30
0.0
11
97.000000
21
233.367067
31
0.0
0
LINE
8
VISIBLE
10
102.600000
20
234.820508
30
0.0
11
97.000000
21
234.820508
31
0.0
0
LINE
8
VISIBLE
10
102.600000
20
235.977591
30
0.0
11
97.000000
21
235.977591
31
0.0
0
LINE
8
VISIBLE
10
102.600000
20
236.818517
30
0.0
11
97.000000
21
236.818517
31
0.0
0
LINE
8
VISIBLE
10
102.600000
20
237.328897
30
0.0
11
97.000000
21
237.328897
31
0.0
0
LINE
8
VISIBLE
10
102.600000
20
237.500000
30
0.0
11
97.000000
21
237.500000
31
0.0
0
LINE
8
VISIBLE
10
102.600000
20
133.500000
30
0.0
11
98.000000
21
133.500000
31
0.0
0
LINE
8
VISIBLE
10
102.600000
20
121.500000
30
0.0
11
98.000000
21
121.500000
31
0.0
0
LINE
8
VISIBLE
10
102.600000
20
121.602662
30
0.0
11
98.000000
21
121.602662
31
0.0
0
LINE
8
VISIBLE
10
102.600000
20
121.908890
30
0.0
11
98.000000
21
121.908890
31
0.0
0
LINE
8
VISIBLE
10
102.600000
20
122.413446
30
0.0
11
98.000000
21
122.413446
31
0.0
0
LINE
8
VISIBLE
10
102.600000
20
123.107695
30
0.0
11
98.000000
21
123.107695
31
0.0
0
LINE
8
VISIBLE
10
102.600000
20
123.979760
30
0.0
11
98.000000
21
123.979760
31
0.0
0
LINE
8
VISIBLE
10
102.600000
20
125.014719
30
0.0
11
98.000000
21
125.014719
31
0.0
0
LINE
8
VISIBLE
10
102.600000
20
126.194863
30
0.0
11
98.000000
21
126.194863
31
0.0
0
LINE
8
VISIBLE
10
102.600000
20
127.500000
30
0.0
11
98.000000
21
127.500000
31
0.0
0
LINE
8
VISIBLE
10
102.600000
20
128.907799
30
0.0
11
98.000000
21
128.907799
31
0.0
0
LINE
8
VISIBLE
10
102.600000
20
130.394171
30
0.0
11
98.000000
21
130.394171
31
0.0
0
LINE
8
VISIBLE
10
102.600000
20
131.933686
30
0.0
11
98.000000
21
131.933686
31
0.0
0
LINE
8
VISIBLE
10
98.000000
20
191.946000
30
0.0
11
93.100000
21
191.946000
31
0.0
0
LINE
8
VISIBLE
10
97.000000
20
201.600000
30
0.0
11
93.100000
21
201.600000
31
0.0
0
LINE
8
VISIBLE
10
109.000000
20
123.500000
30
0.0
11
102.600000
21
123.500000
31
0.0
0
LINE
8
VISIBLE
10
98.000000
20
123.500000
30
0.0
11
97.000000
21
123.500000
31
0.0
0
LINE
8
VISIBLE
10
97.000000
20
128.580000
30
0.0
11
93.420000
21
128.580000
31
0.0
0
LINE
8
HIDDEN
10
97.000000
20
233.400000
30
0.0
11
97.000000
21
201.600000
31
0.0
0
LINE
8
HIDDEN
10
97.000000
20
201.600000
30
0.0
11
97.000000
21
233.400000
31
0.0
0
LINE
8
HIDDEN
10
93.100000
20
211.214000
30
0.0
11
93.100000
21
206.814000
31
0.0
0
LINE
8
HIDDEN
10
93.100000
20
206.814000
30
0.0
11
93.100000
21
211.214000
31
0.0
0
LINE
8
HIDDEN
10
93.100000
20
228.186000
30
0.0
11
93.100000
21
223.786000
31
0.0
0
LINE
8
HIDDEN
10
93.100000
20
223.786000
30
0.0
11
93.100000
21
228.186000
31
0.0
0
LINE
8
HIDDEN
10
93.100000
20
211.214000
30
0.0
11
93.100000
21
206.814000
31
0.0
0
LINE
8
HIDDEN
10
93.100000
20
206.814000
30
0.0
11
93.100000
21
211.214000
31
0.0
0
LINE
8
HIDDEN
10
93.100000
20
223.500000
30
0.0
11
93.100000
21
211.500000
31
0.0
0
LINE
8
HIDDEN
10
93.100000
20
211.500000
30
0.0
11
93.100000
21
223.500000
31
0.0
0
LINE
8
HIDDEN
10
93.100000
20
228.186000
30
0.0
11
93.100000
21
223.786000
31
0.0
0
LINE
8
HIDDEN
10
93.100000
20
223.786000
30
0.0
11
93.100000
21
228.186000
31
0.0
0
LINE
8
HIDDEN
10
101.600000
20
175.775005
30
0.0
11
101.600000
21
173.660000
31
0.0
0
LINE
8
HIDDEN
10
101.600000
20
173.660000
30
0.0
11
101.600000
21
175.775005
31
0.0
0
LINE
8
HIDDEN
10
101.600000
20
176.100000
30
0.0
11
101.600000
21
180.900000
31
0.0
0
LINE
8
HIDDEN
10
101.600000
20
181.224995
30
0.0
11
101.600000
21
183.340000
31
0.0
0
LINE
8
HIDDEN
10
101.600000
20
183.340000
30
0.0
11
101.600000
21
181.224995
31
0.0
0
LINE
8
HIDDEN
10
101.600000
20
180.900000
30
0.0
11
101.600000
21
176.100000
31
0.0
0
LINE
8
HIDDEN
10
101.600000
20
176.100000
30
0.0
11
101.600000
21
180.900000
31
0.0
0
LINE
8
HIDDEN
10
101.600000
20
180.900000
30
0.0
11
97.000000
21
180.900000
31
0.0
0
LINE
8
HIDDEN
10
97.000000
20
180.900000
30
0.0
11
97.000000
21
180.681742
31
0.0
0
LINE
8
HIDDEN
10
98.000000
20
180.681742
30
0.0
11
98.000000
21
176.318258
31
0.0
0
LINE
8
HIDDEN
10
97.000000
20
176.318258
30
0.0
11
97.000000
21
176.100000
31
0.0
0
LINE
8
HIDDEN
10
97.000000
20
176.100000
30
0.0
11
97.000000
21
176.318258
31
0.0
0
LINE
8
HIDDEN
10
98.000000
20
176.318258
30
0.0
11
98.000000
21
180.681742
31
0.0
0
LINE
8
HIDDEN
10
97.000000
20
180.681742
30
0.0
11
97.000000
21
180.900000
31
0.0
0
LINE
8
HIDDEN
10
102.600000
20
181.224995
30
0.0
11
102.600000
21
183.340000
31
0.0
0
LINE
8
HIDDEN
10
102.600000
20
183.340000
30
0.0
11
102.600000
21
181.735058
31
0.0
0
LINE
8
HIDDEN
10
102.600000
20
207.003875
30
0.0
11
102.600000
21
181.735058
31
0.0
0
LINE
8
HIDDEN
10
102.600000
20
207.003875
30
0.0
11
102.600000
21
211.024125
31
0.0
0
LINE
8
HIDDEN
10
102.600000
20
216.566000
30
0.0
11
102.600000
21
211.024125
31
0.0
0
LINE
8
HIDDEN
10
102.600000
20
218.981218
30
0.0
11
102.600000
21
216.566000
31
0.0
0
LINE
8
HIDDEN
10
102.600000
20
221.303621
30
0.0
11
102.600000
21
218.981218
31
0.0
0
LINE
8
HIDDEN
10
102.600000
20
222.317634
30
0.0
11
102.600000
21
221.303621
31
0.0
0
LINE
8
HIDDEN
10
102.600000
20
222.317634
30
0.0
11
102.600000
21
230.386000
31
0.0
0
LINE
8
HIDDEN
10
102.600000
20
230.386000
30
0.0
11
102.600000
21
228.051205
31
0.0
0
LINE
8
HIDDEN
10
102.600000
20
228.708122
30
0.0
11
102.600000
21
228.051205
31
0.0
0
LINE
8
HIDDEN
10
102.600000
20
228.946000
30
0.0
11
102.600000
21
228.708122
31
0.0
0
LINE
8
HIDDEN
10
102.600000
20
228.708122
30
0.0
11
102.600000
21
228.946000
31
0.0
0
LINE
8
HIDDEN
10
102.600000
20
228.051205
30
0.0
11
102.600000
21
228.708122
31
0.0
0
LINE
8
HIDDEN
10
102.600000
20
228.051205
30
0.0
11
102.600000
21
230.386000
31
0.0
0
LINE
8
HIDDEN
10
102.600000
20
230.386000
30
0.0
11
102.600000
21
222.317634
31
0.0
0
LINE
8
HIDDEN
10
102.600000
20
221.303621
30
0.0
11
102.600000
21
222.317634
31
0.0
0
LINE
8
HIDDEN
10
102.600000
20
218.981218
30
0.0
11
102.600000
21
221.303621
31
0.0
0
LINE
8
HIDDEN
10
102.600000
20
216.566000
30
0.0
11
102.600000
21
218.981218
31
0.0
0
LINE
8
HIDDEN
10
102.600000
20
211.024125
30
0.0
11
102.600000
21
216.566000
31
0.0
0
LINE
8
HIDDEN
10
102.600000
20
211.024125
30
0.0
11
102.600000
21
207.003875
31
0.0
0
LINE
8
HIDDEN
10
102.600000
20
181.735058
30
0.0
11
102.600000
21
207.003875
31
0.0
0
LINE
8
HIDDEN
10
102.600000
20
181.735058
30
0.0
11
102.600000
21
183.340000
31
0.0
0
LINE
8
HIDDEN
10
102.600000
20
183.340000
30
0.0
11
102.600000
21
181.224995
31
0.0
0
LINE
8
HIDDEN
10
107.600000
20
213.414000
30
0.0
11
98.620000
21
213.414000
31
0.0
0
LINE
8
HIDDEN
10
107.600000
20
211.024125
30
0.0
11
107.600000
21
213.414000
31
0.0
0
LINE
8
HIDDEN
10
107.600000
20
213.414000
30
0.0
11
107.600000
21
204.614000
31
0.0
0
LINE
8
HIDDEN
10
107.600000
20
204.614000
30
0.0
11
107.600000
21
207.003875
31
0.0
0
LINE
8
HIDDEN
10
98.620000
20
213.414000
30
0.0
11
98.620000
21
204.614000
31
0.0
0
LINE
8
HIDDEN
10
98.620000
20
204.614000
30
0.0
11
98.620000
21
213.414000
31
0.0
0
LINE
8
HIDDEN
10
102.600000
20
230.386000
30
0.0
11
98.620000
21
230.386000
31
0.0
0
LINE
8
HIDDEN
10
107.600000
20
228.051205
30
0.0
11
107.600000
21
221.586000
31
0.0
0
LINE
8
HIDDEN
10
107.600000
20
221.586000
30
0.0
11
107.600000
21
222.317634
31
0.0
0
LINE
8
HIDDEN
10
98.620000
20
230.386000
30
0.0
11
98.620000
21
221.586000
31
0.0
0
LINE
8
HIDDEN
10
98.620000
20
221.586000
30
0.0
11
98.620000
21
230.386000
31
0.0
0
LINE
8
HIDDEN
10
102.600000
20
230.386000
30
0.0
11
98.620000
21
230.386000
31
0.0
0
LINE
8
HIDDEN
10
107.600000
20
222.317634
30
0.0
11
107.600000
21
221.586000
31
0.0
0
LINE
8
HIDDEN
10
107.600000
20
221.586000
30
0.0
11
107.600000
21
222.317634
31
0.0
0
LINE
8
HIDDEN
10
98.620000
20
230.386000
30
0.0
11
98.620000
21
221.586000
31
0.0
0
LINE
8
HIDDEN
10
98.620000
20
221.586000
30
0.0
11
98.620000
21
230.386000
31
0.0
0
LINE
8
HIDDEN
10
107.600000
20
213.414000
30
0.0
11
98.620000
21
213.414000
31
0.0
0
LINE
8
HIDDEN
10
107.600000
20
207.003875
30
0.0
11
107.600000
21
204.614000
31
0.0
0
LINE
8
HIDDEN
10
107.600000
20
204.614000
30
0.0
11
107.600000
21
207.003875
31
0.0
0
LINE
8
HIDDEN
10
107.600000
20
211.024125
30
0.0
11
107.600000
21
213.414000
31
0.0
0
LINE
8
HIDDEN
10
107.600000
20
213.414000
30
0.0
11
107.600000
21
211.024125
31
0.0
0
LINE
8
HIDDEN
10
98.620000
20
213.414000
30
0.0
11
98.620000
21
204.614000
31
0.0
0
LINE
8
HIDDEN
10
98.620000
20
204.614000
30
0.0
11
98.620000
21
213.414000
31
0.0
0
LINE
8
HIDDEN
10
107.600000
20
197.094050
30
0.0
11
107.600000
21
196.531271
31
0.0
0
LINE
8
HIDDEN
10
107.600000
20
197.612711
30
0.0
11
107.600000
21
197.094050
31
0.0
0
LINE
8
HIDDEN
10
107.600000
20
196.531271
30
0.0
11
107.600000
21
195.946000
31
0.0
0
LINE
8
HIDDEN
10
107.600000
20
198.067320
30
0.0
11
107.600000
21
197.612711
31
0.0
0
LINE
8
HIDDEN
10
107.600000
20
195.946000
30
0.0
11
107.600000
21
178.946000
31
0.0
0
LINE
8
HIDDEN
10
107.600000
20
198.440409
30
0.0
11
107.600000
21
198.067320
31
0.0
0
LINE
8
HIDDEN
10
107.600000
20
178.946000
30
0.0
11
107.600000
21
178.360729
31
0.0
0
LINE
8
HIDDEN
10
107.600000
20
198.717639
30
0.0
11
107.600000
21
198.440409
31
0.0
0
LINE
8
HIDDEN
10
107.600000
20
178.360729
30
0.0
11
107.600000
21
177.797950
31
0.0
0
LINE
8
HIDDEN
10
107.600000
20
198.888356
30
0.0
11
107.600000
21
198.717639
31
0.0
0
LINE
8
HIDDEN
10
107.600000
20
177.797950
30
0.0
11
107.600000
21
177.279289
31
0.0
0
LINE
8
HIDDEN
10
107.600000
20
198.946000
30
0.0
11
107.600000
21
198.888356
31
0.0
0
LINE
8
HIDDEN
10
107.600000
20
177.279289
30
0.0
11
107.600000
21
176.824680
31
0.0
0
LINE
8
HIDDEN
10
107.600000
20
176.824680
30
0.0
11
107.600000
21
176.451591
31
0.0
0
LINE
8
HIDDEN
10
107.600000
20
198.888356
30
0.0
11
107.600000
21
198.946000
31
0.0
0
LINE
8
HIDDEN
10
107.600000
20
176.451591
30
0.0
11
107.600000
21
176.174361
31
0.0
0
LINE
8
HIDDEN
10
107.600000
20
198.717639
30
0.0
11
107.600000
21
198.888356
31
0.0
0
LINE
8
HIDDEN
10
107.600000
20
176.174361
30
0.0
11
107.600000
21
176.003644
31
0.0
0
LINE
8
HIDDEN
10
107.600000
20
198.440409
30
0.0
11
107.600000
21
198.717639
31
0.0
0
LINE
8
HIDDEN
10
107.600000
20
176.003644
30
0.0
11
107.600000
21
175.946000
31
0.0
0
LINE
8
HIDDEN
10
107.600000
20
198.067320
30
0.0
11
107.600000
21
198.440409
31
0.0
0
LINE
8
HIDDEN
10
107.600000
20
197.612711
30
0.0
11
107.600000
21
198.067320
31
0.0
0
LINE
8
HIDDEN
10
107.600000
20
175.946000
30
0.0
11
107.600000
21
176.003644
31
0.0
0
LINE
8
HIDDEN
10
107.600000
20
197.094050
30
0.0
11
107.600000
21
197.612711
31
0.0
0
LINE
8
HIDDEN
10
107.600000
20
176.003644
30
0.0
11
107.600000
21
176.174361
31
0.0
0
LINE
8
HIDDEN
10
107.600000
20
196.531271
30
0.0
11
107.600000
21
197.094050
31
0.0
0
LINE
8
HIDDEN
10
107.600000
20
176.174361
30
0.0
11
107.600000
21
176.451591
31
0.0
0
LINE
8
HIDDEN
10
107.600000
20
195.946000
30
0.0
11
107.600000
21
196.531271
31
0.0
0
LINE
8
HIDDEN
10
107.600000
20
176.451591
30
0.0
11
107.600000
21
176.824680
31
0.0
0
LINE
8
HIDDEN
10
107.600000
20
178.946000
30
0.0
11
107.600000
21
195.946000
31
0.0
0
LINE
8
HIDDEN
10
107.600000
20
176.824680
30
0.0
11
107.600000
21
177.279289
31
0.0
0
LINE
8
HIDDEN
10
107.600000
20
178.360729
30
0.0
11
107.600000
21
178.946000
31
0.0
0
LINE
8
HIDDEN
10
107.600000
20
177.279289
30
0.0
11
107.600000
21
177.797950
31
0.0
0
LINE
8
HIDDEN
10
107.600000
20
177.797950
30
0.0
11
107.600000
21
178.360729
31
0.0
0
LINE
8
HIDDEN
10
107.600000
20
223.500000
30
0.0
11
107.600000
21
211.500000
31
0.0
0
LINE
8
HIDDEN
10
107.600000
20
211.500000
30
0.0
11
107.600000
21
223.500000
31
0.0
0
LINE
8
HIDDEN
10
102.600000
20
175.264942
30
0.0
11
102.600000
21
173.660000
31
0.0
0
LINE
8
HIDDEN
10
102.600000
20
173.660000
30
0.0
11
102.600000
21
175.775005
31
0.0
0
LINE
8
HIDDEN
10
102.600000
20
175.264942
30
0.0
11
102.600000
21
168.326000
31
0.0
0
LINE
8
HIDDEN
10
102.600000
20
168.326000
30
0.0
11
102.600000
21
165.910782
31
0.0
0
LINE
8
HIDDEN
10
102.600000
20
165.910782
30
0.0
11
102.600000
21
163.588379
31
0.0
0
LINE
8
HIDDEN
10
102.600000
20
163.588379
30
0.0
11
102.600000
21
161.448041
31
0.0
0
LINE
8
HIDDEN
10
102.600000
20
161.448041
30
0.0
11
102.600000
21
159.572018
31
0.0
0
LINE
8
HIDDEN
10
102.600000
20
159.572018
30
0.0
11
102.600000
21
158.032406
31
0.0
0
LINE
8
HIDDEN
10
102.600000
20
158.032406
30
0.0
11
102.600000
21
156.888371
31
0.0
0
LINE
8
HIDDEN
10
102.600000
20
156.888371
30
0.0
11
102.600000
21
156.183878
31
0.0
0
LINE
8
HIDDEN
10
102.600000
20
156.183878
30
0.0
11
102.600000
21
155.946000
31
0.0
0
LINE
8
HIDDEN
10
102.600000
20
155.946000
30
0.0
11
102.600000
21
156.183878
31
0.0
0
LINE
8
HIDDEN
10
102.600000
20
156.183878
30
0.0
11
102.600000
21
156.888371
31
0.0
0
LINE
8
HIDDEN
10
102.600000
20
156.888371
30
0.0
11
102.600000
21
158.032406
31
0.0
0
LINE
8
HIDDEN
10
102.600000
20
158.032406
30
0.0
11
102.600000
21
159.572018
31
0.0
0
LINE
8
HIDDEN
10
102.600000
20
159.572018
30
0.0
11
102.600000
21
161.448041
31
0.0
0
LINE
8
HIDDEN
10
102.600000
20
161.448041
30
0.0
11
102.600000
21
163.588379
31
0.0
0
LINE
8
HIDDEN
10
102.600000
20
163.588379
30
0.0
11
102.600000
21
165.910782
31
0.0
0
LINE
8
HIDDEN
10
102.600000
20
165.910782
30
0.0
11
102.600000
21
168.326000
31
0.0
0
LINE
8
HIDDEN
10
102.600000
20
168.326000
30
0.0
11
102.600000
21
175.264942
31
0.0
0
LINE
8
HIDDEN
10
102.600000
20
175.775005
30
0.0
11
102.600000
21
173.660000
31
0.0
0
LINE
8
HIDDEN
10
102.600000
20
173.660000
30
0.0
11
102.600000
21
175.264942
31
0.0
0
LINE
8
HIDDEN
10
102.600000
20
143.500000
30
0.0
11
102.600000
21
123.500000
31
0.0
0
LINE
8
HIDDEN
10
102.600000
20
123.500000
30
0.0
11
102.600000
21
143.500000
31
0.0
0
LINE
8
HIDDEN
10
98.620000
20
211.214000
30
0.0
11
98.620000
21
206.814000
31
0.0
0
LINE
8
HIDDEN
10
98.620000
20
206.814000
30
0.0
11
98.620000
21
211.214000
31
0.0
0
LINE
8
HIDDEN
10
98.620000
20
228.186000
30
0.0
11
98.620000
21
223.786000
31
0.0
0
LINE
8
HIDDEN
10
98.620000
20
223.786000
30
0.0
11
98.620000
21
228.186000
31
0.0
0
LINE
8
HIDDEN
10
98.620000
20
228.186000
30
0.0
11
98.620000
21
223.786000
31
0.0
0
LINE
8
HIDDEN
10
98.620000
20
223.786000
30
0.0
11
98.620000
21
228.186000
31
0.0
0
LINE
8
HIDDEN
10
98.620000
20
211.214000
30
0.0
11
98.620000
21
206.814000
31
0.0
0
LINE
8
HIDDEN
10
98.620000
20
206.814000
30
0.0
11
98.620000
21
211.214000
31
0.0
0
LINE
8
HIDDEN
10
107.600000
20
197.094050
30
0.0
11
98.000000
21
197.094050
31
0.0
0
LINE
8
HIDDEN
10
98.000000
20
197.094050
30
0.0
11
98.000000
21
196.531271
31
0.0
0
LINE
8
HIDDEN
10
107.600000
20
196.531271
30
0.0
11
98.000000
21
196.531271
31
0.0
0
LINE
8
HIDDEN
10
101.600000
20
181.224995
30
0.0
11
101.600000
21
183.340000
31
0.0
0
LINE
8
HIDDEN
10
101.600000
20
183.340000
30
0.0
11
101.600000
21
173.660000
31
0.0
0
LINE
8
HIDDEN
10
101.600000
20
173.660000
30
0.0
11
101.600000
21
175.775005
31
0.0
0
LINE
8
HIDDEN
10
101.600000
20
180.900000
30
0.0
11
101.600000
21
176.100000
31
0.0
0
LINE
8
HIDDEN
10
101.600000
20
176.100000
30
0.0
11
101.600000
21
180.900000
31
0.0
0
LINE
8
HIDDEN
10
101.600000
20
180.900000
30
0.0
11
97.000000
21
180.900000
31
0.0
0
LINE
8
HIDDEN
10
97.000000
20
180.900000
30
0.0
11
97.000000
21
180.681742
31
0.0
0
LINE
8
HIDDEN
10
98.000000
20
180.681742
30
0.0
11
98.000000
21
176.318258
31
0.0
0
LINE
8
HIDDEN
10
97.000000
20
176.318258
30
0.0
11
97.000000
21
176.100000
31
0.0
0
LINE
8
HIDDEN
10
97.000000
20
176.100000
30
0.0
11
97.000000
21
176.318258
31
0.0
0
LINE
8
HIDDEN
10
98.000000
20
176.318258
30
0.0
11
98.000000
21
180.681742
31
0.0
0
LINE
8
HIDDEN
10
97.000000
20
180.681742
30
0.0
11
97.000000
21
180.900000
31
0.0
0
LINE
8
HIDDEN
10
98.000000
20
198.717639
30
0.0
11
98.000000
21
198.888356
31
0.0
0
LINE
8
HIDDEN
10
98.000000
20
198.440409
30
0.0
11
98.000000
21
198.717639
31
0.0
0
LINE
8
HIDDEN
10
98.000000
20
198.067320
30
0.0
11
98.000000
21
198.440409
31
0.0
0
LINE
8
HIDDEN
10
98.000000
20
197.612711
30
0.0
11
98.000000
21
198.067320
31
0.0
0
LINE
8
HIDDEN
10
98.000000
20
197.094050
30
0.0
11
98.000000
21
197.612711
31
0.0
0
LINE
8
HIDDEN
10
98.000000
20
196.531271
30
0.0
11
98.000000
21
197.094050
31
0.0
0
LINE
8
HIDDEN
10
98.000000
20
195.946000
30
0.0
11
98.000000
21
196.531271
31
0.0
0
LINE
8
HIDDEN
10
98.000000
20
178.946000
30
0.0
11
98.000000
21
195.946000
31
0.0
0
LINE
8
HIDDEN
10
98.000000
20
178.360729
30
0.0
11
98.000000
21
178.946000
31
0.0
0
LINE
8
HIDDEN
10
98.000000
20
177.797950
30
0.0
11
98.000000
21
178.360729
31
0.0
0
LINE
8
HIDDEN
10
98.000000
20
177.279289
30
0.0
11
98.000000
21
177.797950
31
0.0
0
LINE
8
HIDDEN
10
98.000000
20
176.824680
30
0.0
11
98.000000
21
177.279289
31
0.0
0
LINE
8
HIDDEN
10
98.000000
20
176.451591
30
0.0
11
98.000000
21
176.824680
31
0.0
0
LINE
8
HIDDEN
10
98.000000
20
176.174361
30
0.0
11
98.000000
21
176.451591
31
0.0
0
LINE
8
HIDDEN
10
98.000000
20
176.003644
30
0.0
11
98.000000
21
176.174361
31
0.0
0
LINE
8
HIDDEN
10
98.000000
20
175.946000
30
0.0
11
98.000000
21
176.003644
31
0.0
0
LINE
8
HIDDEN
10
98.000000
20
176.003644
30
0.0
11
98.000000
21
175.946000
31
0.0
0
LINE
8
HIDDEN
10
98.000000
20
176.174361
30
0.0
11
98.000000
21
176.003644
31
0.0
0
LINE
8
HIDDEN
10
98.000000
20
176.451591
30
0.0
11
98.000000
21
176.174361
31
0.0
0
LINE
8
HIDDEN
10
98.000000
20
176.824680
30
0.0
11
98.000000
21
176.451591
31
0.0
0
LINE
8
HIDDEN
10
98.000000
20
177.279289
30
0.0
11
98.000000
21
176.824680
31
0.0
0
LINE
8
HIDDEN
10
98.000000
20
177.797950
30
0.0
11
98.000000
21
177.279289
31
0.0
0
LINE
8
HIDDEN
10
98.000000
20
178.360729
30
0.0
11
98.000000
21
177.797950
31
0.0
0
LINE
8
HIDDEN
10
98.000000
20
178.946000
30
0.0
11
98.000000
21
178.360729
31
0.0
0
LINE
8
HIDDEN
10
98.000000
20
195.946000
30
0.0
11
98.000000
21
178.946000
31
0.0
0
LINE
8
HIDDEN
10
98.000000
20
196.531271
30
0.0
11
98.000000
21
195.946000
31
0.0
0
LINE
8
HIDDEN
10
98.000000
20
197.612711
30
0.0
11
98.000000
21
197.094050
31
0.0
0
LINE
8
HIDDEN
10
98.000000
20
198.067320
30
0.0
11
98.000000
21
197.612711
31
0.0
0
LINE
8
HIDDEN
10
98.000000
20
198.440409
30
0.0
11
98.000000
21
198.067320
31
0.0
0
LINE
8
HIDDEN
10
98.000000
20
198.888356
30
0.0
11
98.000000
21
198.717639
31
0.0
0
LINE
8
HIDDEN
10
98.000000
20
198.717639
30
0.0
11
98.000000
21
198.440409
31
0.0
0
LINE
8
HIDDEN
10
98.000000
20
163.946000
30
0.0
11
98.000000
21
176.318258
31
0.0
0
LINE
8
HIDDEN
10
98.000000
20
163.946000
30
0.0
11
98.000000
21
176.318258
31
0.0
0
LINE
8
HIDDEN
10
98.000000
20
180.681742
30
0.0
11
98.000000
21
191.946000
31
0.0
0
LINE
8
HIDDEN
10
98.000000
20
180.681742
30
0.0
11
98.000000
21
191.946000
31
0.0
0
LINE
8
HIDDEN
10
98.000000
20
180.946000
30
0.0
11
98.000000
21
191.946000
31
0.0
0
LINE
8
HIDDEN
10
98.000000
20
180.946000
30
0.0
11
98.000000
21
191.946000
31
0.0
0
LINE
8
HIDDEN
10
98.000000
20
143.500000
30
0.0
11
98.000000
21
123.500000
31
0.0
0
LINE
8
HIDDEN
10
98.000000
20
123.500000
30
0.0
11
98.000000
21
143.500000
31
0.0
0
LINE
8
HIDDEN
10
98.000000
20
180.946000
30
0.0
11
98.000000
21
191.946000
31
0.0
0
LINE
8
HIDDEN
10
98.000000
20
180.946000
30
0.0
11
98.000000
21
191.946000
31
0.0
0
LINE
8
HIDDEN
10
98.000000
20
163.946000
30
0.0
11
98.000000
21
176.318258
31
0.0
0
LINE
8
HIDDEN
10
98.000000
20
163.946000
30
0.0
11
98.000000
21
176.318258
31
0.0
0
LINE
8
HIDDEN
10
98.000000
20
180.681742
30
0.0
11
98.000000
21
191.946000
31
0.0
0
LINE
8
HIDDEN
10
98.000000
20
180.681742
30
0.0
11
98.000000
21
191.946000
31
0.0
0
LINE
8
HIDDEN
10
107.600000
20
197.612711
30
0.0
11
98.000000
21
197.612711
31
0.0
0
LINE
8
HIDDEN
10
107.600000
20
195.946000
30
0.0
11
98.000000
21
195.946000
31
0.0
0
LINE
8
HIDDEN
10
107.600000
20
198.067320
30
0.0
11
98.000000
21
198.067320
31
0.0
0
LINE
8
HIDDEN
10
107.600000
20
178.946000
30
0.0
11
98.000000
21
178.946000
31
0.0
0
LINE
8
HIDDEN
10
107.600000
20
198.440409
30
0.0
11
98.000000
21
198.440409
31
0.0
0
LINE
8
HIDDEN
10
107.600000
20
178.360729
30
0.0
11
98.000000
21
178.360729
31
0.0
0
LINE
8
HIDDEN
10
107.600000
20
198.717639
30
0.0
11
98.000000
21
198.717639
31
0.0
0
LINE
8
HIDDEN
10
107.600000
20
177.797950
30
0.0
11
98.000000
21
177.797950
31
0.0
0
LINE
8
HIDDEN
10
107.600000
20
198.888356
30
0.0
11
98.000000
21
198.888356
31
0.0
0
LINE
8
HIDDEN
10
107.600000
20
177.279289
30
0.0
11
98.000000
21
177.279289
31
0.0
0
LINE
8
HIDDEN
10
107.600000
20
198.946000
30
0.0
11
98.000000
21
198.946000
31
0.0
0
LINE
8
HIDDEN
10
107.600000
20
176.824680
30
0.0
11
98.000000
21
176.824680
31
0.0
0
LINE
8
HIDDEN
10
107.600000
20
176.451591
30
0.0
11
98.000000
21
176.451591
31
0.0
0
LINE
8
HIDDEN
10
107.600000
20
198.946000
30
0.0
11
98.000000
21
198.946000
31
0.0
0
LINE
8
HIDDEN
10
107.600000
20
198.888356
30
0.0
11
98.000000
21
198.888356
31
0.0
0
LINE
8
HIDDEN
10
107.600000
20
176.174361
30
0.0
11
98.000000
21
176.174361
31
0.0
0
LINE
8
HIDDEN
10
107.600000
20
198.717639
30
0.0
11
98.000000
21
198.717639
31
0.0
0
LINE
8
HIDDEN
10
107.600000
20
176.003644
30
0.0
11
98.000000
21
176.003644
31
0.0
0
LINE
8
HIDDEN
10
107.600000
20
198.440409
30
0.0
11
98.000000
21
198.440409
31
0.0
0
LINE
8
HIDDEN
10
107.600000
20
175.946000
30
0.0
11
98.000000
21
175.946000
31
0.0
0
LINE
8
HIDDEN
10
107.600000
20
198.067320
30
0.0
11
98.000000
21
198.067320
31
0.0
0
LINE
8
HIDDEN
10
107.600000
20
175.946000
30
0.0
11
98.000000
21
175.946000
31
0.0
0
LINE
8
HIDDEN
10
107.600000
20
197.612711
30
0.0
11
98.000000
21
197.612711
31
0.0
0
LINE
8
HIDDEN
10
107.600000
20
176.003644
30
0.0
11
98.000000
21
176.003644
31
0.0
0
LINE
8
HIDDEN
10
107.600000
20
197.094050
30
0.0
11
98.000000
21
197.094050
31
0.0
0
LINE
8
HIDDEN
10
107.600000
20
176.174361
30
0.0
11
98.000000
21
176.174361
31
0.0
0
LINE
8
HIDDEN
10
107.600000
20
196.531271
30
0.0
11
98.000000
21
196.531271
31
0.0
0
LINE
8
HIDDEN
10
107.600000
20
176.451591
30
0.0
11
98.000000
21
176.451591
31
0.0
0
LINE
8
HIDDEN
10
107.600000
20
195.946000
30
0.0
11
98.000000
21
195.946000
31
0.0
0
LINE
8
HIDDEN
10
107.600000
20
176.824680
30
0.0
11
98.000000
21
176.824680
31
0.0
0
LINE
8
HIDDEN
10
107.600000
20
178.946000
30
0.0
11
98.000000
21
178.946000
31
0.0
0
LINE
8
HIDDEN
10
107.600000
20
177.279289
30
0.0
11
98.000000
21
177.279289
31
0.0
0
LINE
8
HIDDEN
10
107.600000
20
178.360729
30
0.0
11
98.000000
21
178.360729
31
0.0
0
LINE
8
HIDDEN
10
107.600000
20
177.797950
30
0.0
11
98.000000
21
177.797950
31
0.0
0
LINE
8
HIDDEN
10
107.600000
20
223.500000
30
0.0
11
93.100000
21
223.500000
31
0.0
0
LINE
8
HIDDEN
10
98.620000
20
211.214000
30
0.0
11
93.100000
21
211.214000
31
0.0
0
LINE
8
HIDDEN
10
98.620000
20
228.186000
30
0.0
11
93.100000
21
228.186000
31
0.0
0
LINE
8
HIDDEN
10
98.620000
20
228.186000
30
0.0
11
93.100000
21
228.186000
31
0.0
0
LINE
8
HIDDEN
10
98.620000
20
211.214000
30
0.0
11
93.100000
21
211.214000
31
0.0
0
LINE
8
HIDDEN
10
98.000000
20
180.946000
30
0.0
11
93.100000
21
180.946000
31
0.0
0
LINE
8
HIDDEN
10
98.000000
20
180.946000
30
0.0
11
93.100000
21
180.946000
31
0.0
0
LINE
8
HIDDEN
10
98.000000
20
180.946000
30
0.0
11
93.100000
21
180.946000
31
0.0
0
LINE
8
HIDDEN
10
98.000000
20
180.946000
30
0.0
11
93.100000
21
180.946000
31
0.0
0
LINE
8
HIDDEN
10
109.000000
20
139.000000
30
0.0
11
109.000000
21
128.000000
31
0.0
0
LINE
8
HIDDEN
10
109.000000
20
128.000000
30
0.0
11
109.000000
21
139.000000
31
0.0
0
LINE
8
HIDDEN
10
97.000000
20
141.500000
30
0.0
11
97.000000
21
125.500000
31
0.0
0
LINE
8
HIDDEN
10
97.000000
20
125.500000
30
0.0
11
97.000000
21
141.500000
31
0.0
0
LINE
8
HIDDEN
10
109.000000
20
139.000000
30
0.0
11
102.020000
21
139.000000
31
0.0
0
LINE
8
HIDDEN
10
102.020000
20
139.000000
30
0.0
11
102.020000
21
128.000000
31
0.0
0
LINE
8
HIDDEN
10
102.020000
20
128.000000
30
0.0
11
102.020000
21
139.000000
31
0.0
0
LINE
8
HIDDEN
10
98.000000
20
141.500000
30
0.0
11
97.000000
21
141.500000
31
0.0
0
LINE
8
HIDDEN
10
98.000000
20
141.500000
30
0.0
11
98.000000
21
125.500000
31
0.0
0
LINE
8
HIDDEN
10
98.000000
20
125.500000
30
0.0
11
98.000000
21
141.500000
31
0.0
0
LINE
8
HIDDEN
10
102.020000
20
136.200000
30
0.0
11
102.020000
21
130.800000
31
0.0
0
LINE
8
HIDDEN
10
102.020000
20
130.800000
30
0.0
11
102.020000
21
136.200000
31
0.0
0
LINE
8
HIDDEN
10
98.000000
20
138.420000
30
0.0
11
98.000000
21
128.580000
31
0.0
0
LINE
8
HIDDEN
10
98.000000
20
128.580000
30
0.0
11
98.000000
21
138.420000
31
0.0
0
LINE
8
HIDDEN
10
102.020000
20
136.200000
30
0.0
11
93.420000
21
136.200000
31
0.0
0
LINE
8
HIDDEN
10
93.420000
20
136.200000
30
0.0
11
93.420000
21
130.800000
31
0.0
0
LINE
8
HIDDEN
10
93.420000
20
130.800000
30
0.0
11
93.420000
21
136.200000
31
0.0
0
LINE
8
HIDDEN
10
98.000000
20
138.420000
30
0.0
11
97.000000
21
138.420000
31
0.0
0
LINE
8
HIDDEN
10
101.600000
20
176.100000
30
0.0
11
97.000000
21
176.100000
31
0.0
0
LINE
8
HIDDEN
10
107.600000
20
204.614000
30
0.0
11
98.620000
21
204.614000
31
0.0
0
LINE
8
HIDDEN
10
107.600000
20
221.586000
30
0.0
11
98.620000
21
221.586000
31
0.0
0
LINE
8
HIDDEN
10
107.600000
20
221.586000
30
0.0
11
98.620000
21
221.586000
31
0.0
0
LINE
8
HIDDEN
10
107.600000
20
204.614000
30
0.0
11
98.620000
21
204.614000
31
0.0
0
LINE
8
HIDDEN
10
101.600000
20
176.100000
30
0.0
11
97.000000
21
176.100000
31
0.0
0
LINE
8
HIDDEN
10
107.600000
20
211.500000
30
0.0
11
93.100000
21
211.500000
31
0.0
0
LINE
8
HIDDEN
10
98.620000
20
206.814000
30
0.0
11
93.100000
21
206.814000
31
0.0
0
LINE
8
HIDDEN
10
98.620000
20
223.786000
30
0.0
11
93.100000
21
223.786000
31
0.0
0
LINE
8
HIDDEN
10
98.620000
20
223.786000
30
0.0
11
93.100000
21
223.786000
31
0.0
0
LINE
8
HIDDEN
10
98.620000
20
206.814000
30
0.0
11
93.100000
21
206.814000
31
0.0
0
LINE
8
HIDDEN
10
109.000000
20
128.000000
30
0.0
11
102.020000
21
128.000000
31
0.0
0
LINE
8
HIDDEN
10
98.000000
20
125.500000
30
0.0
11
97.000000
21
125.500000
31
0.0
0
LINE
8
HIDDEN
10
102.020000
20
130.800000
30
0.0
11
93.420000
21
130.800000
31
0.0
0
LINE
8
HIDDEN
10
98.000000
20
128.580000
30
0.0
11
97.000000
21
128.580000
31
0.0
0
LINE
8
HIDDEN
10
102.600000
20
173.660000
30
0.0
11
101.600000
21
173.660000
31
0.0
0
LINE
8
HIDDEN
10
102.600000
20
183.340000
30
0.0
11
101.600000
21
183.340000
31
0.0
0
LINE
8
HIDDEN
10
102.600000
20
173.660000
30
0.0
11
101.600000
21
173.660000
31
0.0
0
LINE
8
HIDDEN
10
102.600000
20
183.340000
30
0.0
11
101.600000
21
183.340000
31
0.0
0
LINE
8
VISIBLE
10
236.900000
20
217.500000
30
0.0
11
236.900000
21
198.946000
31
0.0
0
LINE
8
VISIBLE
10
236.900000
20
220.110524
30
0.0
11
236.900000
21
217.500000
31
0.0
0
LINE
8
VISIBLE
10
236.900000
20
222.676381
30
0.0
11
236.900000
21
220.110524
31
0.0
0
LINE
8
VISIBLE
10
236.900000
20
225.153669
30
0.0
11
236.900000
21
222.676381
31
0.0
0
LINE
8
VISIBLE
10
236.900000
20
227.500000
30
0.0
11
236.900000
21
225.153669
31
0.0
0
LINE
8
VISIBLE
10
236.900000
20
229.675229
30
0.0
11
236.900000
21
227.500000
31
0.0
0
LINE
8
VISIBLE
10
236.900000
20
231.642136
30
0.0
11
236.900000
21
229.675229
31
0.0
0
LINE
8
VISIBLE
10
236.900000
20
233.367067
30
0.0
11
236.900000
21
231.642136
31
0.0
0
LINE
8
VISIBLE
10
236.900000
20
234.820508
30
0.0
11
236.900000
21
233.367067
31
0.0
0
LINE
8
VISIBLE
10
236.900000
20
235.977591
30
0.0
11
236.900000
21
234.820508
31
0.0
0
LINE
8
VISIBLE
10
236.900000
20
236.818517
30
0.0
11
236.900000
21
235.977591
31
0.0
0
LINE
8
VISIBLE
10
236.900000
20
237.328897
30
0.0
11
236.900000
21
236.818517
31
0.0
0
LINE
8
VISIBLE
10
236.900000
20
237.500000
30
0.0
11
236.900000
21
237.328897
31
0.0
0
LINE
8
VISIBLE
10
242.500000
20
217.500000
30
0.0
11
242.500000
21
181.224995
31
0.0
0
LINE
8
VISIBLE
10
242.500000
20
181.224995
30
0.0
11
241.500000
21
181.224995
31
0.0
0
LINE
8
VISIBLE
10
241.500000
20
181.224995
30
0.0
11
241.500000
21
175.775005
31
0.0
0
LINE
8
VISIBLE
10
242.500000
20
175.775005
30
0.0
11
241.500000
21
175.775005
31
0.0
0
LINE
8
VISIBLE
10
242.500000
20
175.775005
30
0.0
11
242.500000
21
161.946000
31
0.0
0
LINE
8
VISIBLE
10
242.500000
20
161.946000
30
0.0
11
237.900000
21
161.946000
31
0.0
0
LINE
8
VISIBLE
10
237.900000
20
198.946000
30
0.0
11
237.900000
21
161.946000
31
0.0
0
LINE
8
VISIBLE
10
242.500000
20
217.500000
30
0.0
11
236.900000
21
217.500000
31
0.0
0
LINE
8
VISIBLE
10
242.500000
20
220.110524
30
0.0
11
242.500000
21
217.500000
31
0.0
0
LINE
8
VISIBLE
10
242.500000
20
220.110524
30
0.0
11
236.900000
21
220.110524
31
0.0
0
LINE
8
VISIBLE
10
242.500000
20
222.676381
30
0.0
11
242.500000
21
220.110524
31
0.0
0
LINE
8
VISIBLE
10
242.500000
20
222.676381
30
0.0
11
236.900000
21
222.676381
31
0.0
0
LINE
8
VISIBLE
10
242.500000
20
225.153669
30
0.0
11
242.500000
21
222.676381
31
0.0
0
LINE
8
VISIBLE
10
242.500000
20
225.153669
30
0.0
11
236.900000
21
225.153669
31
0.0
0
LINE
8
VISIBLE
10
242.500000
20
227.500000
30
0.0
11
242.500000
21
225.153669
31
0.0
0
LINE
8
VISIBLE
10
242.500000
20
227.500000
30
0.0
11
236.900000
21
227.500000
31
0.0
0
LINE
8
VISIBLE
10
242.500000
20
229.675229
30
0.0
11
242.500000
21
227.500000
31
0.0
0
LINE
8
VISIBLE
10
242.500000
20
229.675229
30
0.0
11
236.900000
21
229.675229
31
0.0
0
LINE
8
VISIBLE
10
242.500000
20
231.642136
30
0.0
11
242.500000
21
229.675229
31
0.0
0
LINE
8
VISIBLE
10
242.500000
20
231.642136
30
0.0
11
236.900000
21
231.642136
31
0.0
0
LINE
8
VISIBLE
10
242.500000
20
233.367067
30
0.0
11
242.500000
21
231.642136
31
0.0
0
LINE
8
VISIBLE
10
242.500000
20
233.367067
30
0.0
11
236.900000
21
233.367067
31
0.0
0
LINE
8
VISIBLE
10
242.500000
20
234.820508
30
0.0
11
242.500000
21
233.367067
31
0.0
0
LINE
8
VISIBLE
10
242.500000
20
234.820508
30
0.0
11
236.900000
21
234.820508
31
0.0
0
LINE
8
VISIBLE
10
242.500000
20
235.977591
30
0.0
11
242.500000
21
234.820508
31
0.0
0
LINE
8
VISIBLE
10
242.500000
20
235.977591
30
0.0
11
236.900000
21
235.977591
31
0.0
0
LINE
8
VISIBLE
10
242.500000
20
236.818517
30
0.0
11
242.500000
21
235.977591
31
0.0
0
LINE
8
VISIBLE
10
242.500000
20
236.818517
30
0.0
11
236.900000
21
236.818517
31
0.0
0
LINE
8
VISIBLE
10
242.500000
20
237.328897
30
0.0
11
242.500000
21
236.818517
31
0.0
0
LINE
8
VISIBLE
10
242.500000
20
237.328897
30
0.0
11
236.900000
21
237.328897
31
0.0
0
LINE
8
VISIBLE
10
242.500000
20
237.500000
30
0.0
11
242.500000
21
237.328897
31
0.0
0
LINE
8
VISIBLE
10
242.500000
20
237.500000
30
0.0
11
236.900000
21
237.500000
31
0.0
0
LINE
8
VISIBLE
10
236.900000
20
233.400000
30
0.0
11
233.000000
21
233.400000
31
0.0
0
LINE
8
VISIBLE
10
233.000000
20
233.400000
30
0.0
11
233.000000
21
201.600000
31
0.0
0
LINE
8
VISIBLE
10
247.500000
20
156.183878
30
0.0
11
247.500000
21
155.946000
31
0.0
0
LINE
8
VISIBLE
10
247.500000
20
156.888371
30
0.0
11
247.500000
21
156.183878
31
0.0
0
LINE
8
VISIBLE
10
247.500000
20
158.032406
30
0.0
11
247.500000
21
156.888371
31
0.0
0
LINE
8
VISIBLE
10
247.500000
20
159.572018
30
0.0
11
247.500000
21
158.032406
31
0.0
0
LINE
8
VISIBLE
10
247.500000
20
161.448041
30
0.0
11
247.500000
21
159.572018
31
0.0
0
LINE
8
VISIBLE
10
247.500000
20
163.588379
30
0.0
11
247.500000
21
161.448041
31
0.0
0
LINE
8
VISIBLE
10
247.500000
20
165.910782
30
0.0
11
247.500000
21
163.588379
31
0.0
0
LINE
8
VISIBLE
10
247.500000
20
168.326000
30
0.0
11
247.500000
21
165.910782
31
0.0
0
LINE
8
VISIBLE
10
247.500000
20
175.264942
30
0.0
11
247.500000
21
168.326000
31
0.0
0
LINE
8
VISIBLE
10
247.500000
20
175.264942
30
0.0
11
247.500000
21
181.735058
31
0.0
0
LINE
8
VISIBLE
10
247.500000
20
207.003875
30
0.0
11
247.500000
21
181.735058
31
0.0
0
LINE
8
VISIBLE
10
247.500000
20
207.003875
30
0.0
11
247.500000
21
211.024125
31
0.0
0
LINE
8
VISIBLE
10
247.500000
20
216.566000
30
0.0
11
247.500000
21
211.024125
31
0.0
0
LINE
8
VISIBLE
10
247.500000
20
218.981218
30
0.0
11
247.500000
21
216.566000
31
0.0
0
LINE
8
VISIBLE
10
247.500000
20
221.303621
30
0.0
11
247.500000
21
218.981218
31
0.0
0
LINE
8
VISIBLE
10
247.500000
20
222.317634
30
0.0
11
247.500000
21
221.303621
31
0.0
0
LINE
8
VISIBLE
10
247.500000
20
222.317634
30
0.0
11
247.500000
21
228.051205
31
0.0
0
LINE
8
VISIBLE
10
247.500000
20
228.708122
30
0.0
11
247.500000
21
228.051205
31
0.0
0
LINE
8
VISIBLE
10
247.500000
20
228.946000
30
0.0
11
247.500000
21
228.708122
31
0.0
0
LINE
8
VISIBLE
10
237.900000
20
198.946000
30
0.0
11
237.900000
21
198.888356
31
0.0
0
LINE
8
VISIBLE
10
237.900000
20
121.602662
30
0.0
11
237.900000
21
121.500000
31
0.0
0
LINE
8
VISIBLE
10
237.900000
20
121.908890
30
0.0
11
237.900000
21
121.602662
31
0.0
0
LINE
8
VISIBLE
10
237.900000
20
122.413446
30
0.0
11
237.900000
21
121.908890
31
0.0
0
LINE
8
VISIBLE
10
237.900000
20
123.107695
30
0.0
11
237.900000
21
122.413446
31
0.0
0
LINE
8
VISIBLE
10
237.900000
20
123.979760
30
0.0
11
237.900000
21
123.107695
31
0.0
0
LINE
8
VISIBLE
10
237.900000
20
125.014719
30
0.0
11
237.900000
21
123.979760
31
0.0
0
LINE
8
VISIBLE
10
237.900000
20
126.194863
30
0.0
11
237.900000
21
125.014719
31
0.0
0
LINE
8
VISIBLE
10
237.900000
20
127.500000
30
0.0
11
237.900000
21
126.194863
31
0.0
0
LINE
8
VISIBLE
10
237.900000
20
128.907799
30
0.0
11
237.900000
21
127.500000
31
0.0
0
LINE
8
VISIBLE
10
237.900000
20
130.394171
30
0.0
11
237.900000
21
128.907799
31
0.0
0
LINE
8
VISIBLE
10
237.900000
20
131.933686
30
0.0
11
237.900000
21
130.394171
31
0.0
0
LINE
8
VISIBLE
10
237.900000
20
133.500000
30
0.0
11
237.900000
21
131.933686
31
0.0
0
LINE
8
VISIBLE
10
237.900000
20
161.946000
30
0.0
11
237.900000
21
133.500000
31
0.0
0
LINE
8
VISIBLE
10
241.500000
20
175.775005
30
0.0
11
241.500000
21
176.100000
31
0.0
0
LINE
8
VISIBLE
10
241.500000
20
180.900000
30
0.0
11
241.500000
21
181.224995
31
0.0
0
LINE
8
VISIBLE
10
247.500000
20
175.264942
30
0.0
11
242.500000
21
175.264942
31
0.0
0
LINE
8
VISIBLE
10
247.500000
20
181.735058
30
0.0
11
242.500000
21
181.735058
31
0.0
0
LINE
8
VISIBLE
10
242.500000
20
121.602662
30
0.0
11
242.500000
21
121.500000
31
0.0
0
LINE
8
VISIBLE
10
242.500000
20
121.908890
30
0.0
11
242.500000
21
121.602662
31
0.0
0
LINE
8
VISIBLE
10
242.500000
20
122.413446
30
0.0
11
242.500000
21
121.908890
31
0.0
0
LINE
8
VISIBLE
10
242.500000
20
123.107695
30
0.0
11
242.500000
21
122.413446
31
0.0
0
LINE
8
VISIBLE
10
242.500000
20
123.979760
30
0.0
11
242.500000
21
123.107695
31
0.0
0
LINE
8
VISIBLE
10
242.500000
20
125.014719
30
0.0
11
242.500000
21
123.979760
31
0.0
0
LINE
8
VISIBLE
10
242.500000
20
126.194863
30
0.0
11
242.500000
21
125.014719
31
0.0
0
LINE
8
VISIBLE
10
242.500000
20
127.500000
30
0.0
11
242.500000
21
126.194863
31
0.0
0
LINE
8
VISIBLE
10
242.500000
20
128.907799
30
0.0
11
242.500000
21
127.500000
31
0.0
0
LINE
8
VISIBLE
10
242.500000
20
130.394171
30
0.0
11
242.500000
21
128.907799
31
0.0
0
LINE
8
VISIBLE
10
242.500000
20
131.933686
30
0.0
11
242.500000
21
130.394171
31
0.0
0
LINE
8
VISIBLE
10
242.500000
20
133.500000
30
0.0
11
242.500000
21
131.933686
31
0.0
0
LINE
8
VISIBLE
10
242.500000
20
161.946000
30
0.0
11
242.500000
21
133.500000
31
0.0
0
LINE
8
VISIBLE
10
242.500000
20
133.500000
30
0.0
11
237.900000
21
133.500000
31
0.0
0
LINE
8
VISIBLE
10
248.900000
20
143.500000
30
0.0
11
242.500000
21
143.500000
31
0.0
0
LINE
8
VISIBLE
10
248.900000
20
143.500000
30
0.0
11
248.900000
21
123.500000
31
0.0
0
LINE
8
VISIBLE
10
237.900000
20
143.500000
30
0.0
11
236.900000
21
143.500000
31
0.0
0
LINE
8
VISIBLE
10
236.900000
20
143.500000
30
0.0
11
236.900000
21
123.500000
31
0.0
0
LINE
8
VISIBLE
10
247.500000
20
155.946000
30
0.0
11
242.500000
21
155.946000
31
0.0
0
LINE
8
VISIBLE
10
247.500000
20
156.183878
30
0.0
11
242.500000
21
156.183878
31
0.0
0
LINE
8
VISIBLE
10
247.500000
20
156.888371
30
0.0
11
242.500000
21
156.888371
31
0.0
0
LINE
8
VISIBLE
10
247.500000
20
158.032406
30
0.0
11
242.500000
21
158.032406
31
0.0
0
LINE
8
VISIBLE
10
247.500000
20
159.572018
30
0.0
11
242.500000
21
159.572018
31
0.0
0
LINE
8
VISIBLE
10
247.500000
20
161.448041
30
0.0
11
242.500000
21
161.448041
31
0.0
0
LINE
8
VISIBLE
10
247.500000
20
163.588379
30
0.0
11
242.500000
21
163.588379
31
0.0
0
LINE
8
VISIBLE
10
247.500000
20
165.910782
30
0.0
11
242.500000
21
165.910782
31
0.0
0
LINE
8
VISIBLE
10
247.500000
20
168.326000
30
0.0
11
242.500000
21
168.326000
31
0.0
0
LINE
8
VISIBLE
10
247.500000
20
207.003875
30
0.0
11
242.500000
21
207.003875
31
0.0
0
LINE
8
VISIBLE
10
247.500000
20
211.024125
30
0.0
11
242.500000
21
211.024125
31
0.0
0
LINE
8
VISIBLE
10
247.500000
20
216.566000
30
0.0
11
242.500000
21
216.566000
31
0.0
0
LINE
8
VISIBLE
10
247.500000
20
218.981218
30
0.0
11
242.500000
21
218.981218
31
0.0
0
LINE
8
VISIBLE
10
247.500000
20
221.303621
30
0.0
11
242.500000
21
221.303621
31
0.0
0
LINE
8
VISIBLE
10
247.500000
20
222.317634
30
0.0
11
242.500000
21
222.317634
31
0.0
0
LINE
8
VISIBLE
10
247.500000
20
228.051205
30
0.0
11
242.500000
21
228.051205
31
0.0
0
LINE
8
VISIBLE
10
247.500000
20
228.708122
30
0.0
11
242.500000
21
228.708122
31
0.0
0
LINE
8
VISIBLE
10
247.500000
20
228.946000
30
0.0
11
242.500000
21
228.946000
31
0.0
0
LINE
8
VISIBLE
10
242.500000
20
121.500000
30
0.0
11
237.900000
21
121.500000
31
0.0
0
LINE
8
VISIBLE
10
242.500000
20
121.602662
30
0.0
11
237.900000
21
121.602662
31
0.0
0
LINE
8
VISIBLE
10
242.500000
20
121.908890
30
0.0
11
237.900000
21
121.908890
31
0.0
0
LINE
8
VISIBLE
10
242.500000
20
122.413446
30
0.0
11
237.900000
21
122.413446
31
0.0
0
LINE
8
VISIBLE
10
242.500000
20
123.107695
30
0.0
11
237.900000
21
123.107695
31
0.0
0
LINE
8
VISIBLE
10
242.500000
20
123.979760
30
0.0
11
237.900000
21
123.979760
31
0.0
0
LINE
8
VISIBLE
10
242.500000
20
125.014719
30
0.0
11
237.900000
21
125.014719
31
0.0
0
LINE
8
VISIBLE
10
242.500000
20
126.194863
30
0.0
11
237.900000
21
126.194863
31
0.0
0
LINE
8
VISIBLE
10
242.500000
20
127.500000
30
0.0
11
237.900000
21
127.500000
31
0.0
0
LINE
8
VISIBLE
10
242.500000
20
128.907799
30
0.0
11
237.900000
21
128.907799
31
0.0
0
LINE
8
VISIBLE
10
242.500000
20
130.394171
30
0.0
11
237.900000
21
130.394171
31
0.0
0
LINE
8
VISIBLE
10
242.500000
20
131.933686
30
0.0
11
237.900000
21
131.933686
31
0.0
0
LINE
8
VISIBLE
10
237.900000
20
163.946000
30
0.0
11
236.900000
21
163.946000
31
0.0
0
LINE
8
VISIBLE
10
237.900000
20
180.681742
30
0.0
11
236.900000
21
180.681742
31
0.0
0
LINE
8
VISIBLE
10
237.900000
20
176.318258
30
0.0
11
236.900000
21
176.318258
31
0.0
0
LINE
8
VISIBLE
10
236.900000
20
163.946000
30
0.0
11
236.900000
21
176.318258
31
0.0
0
LINE
8
VISIBLE
10
236.900000
20
180.681742
30
0.0
11
236.900000
21
180.946000
31
0.0
0
LINE
8
VISIBLE
10
236.900000
20
180.946000
30
0.0
11
233.000000
21
180.946000
31
0.0
0
LINE
8
VISIBLE
10
236.900000
20
138.420000
30
0.0
11
233.320000
21
138.420000
31
0.0
0
LINE
8
VISIBLE
10
233.320000
20
138.420000
30
0.0
11
233.320000
21
128.580000
31
0.0
0
LINE
8
VISIBLE
10
236.900000
20
201.600000
30
0.0
11
233.000000
21
201.600000
31
0.0
0
LINE
8
VISIBLE
10
248.900000
20
123.500000
30
0.0
11
242.500000
21
123.500000
31
0.0
0
LINE
8
VISIBLE
10
237.900000
20
123.500000
30
0.0
11
236.900000
21
123.500000
31
0.0
0
LINE
8
VISIBLE
10
236.900000
20
128.580000
30
0.0
11
233.320000
21
128.580000
31
0.0
0
LINE
8
SECTION
10
242.500000
20
230.386000
30
0.0
11
238.520000
21
230.386000
31
0.0
0
LINE
8
SECTION
10
238.520000
20
228.186000
30
0.0
11
238.520000
21
230.386000
31
0.0
0
LINE
8
SECTION
10
238.520000
20
228.186000
30
0.0
11
233.000000
21
228.186000
31
0.0
0
LINE
8
SECTION
10
233.000000
20
228.186000
30
0.0
11
233.000000
21
230.946107
31
0.0
0
LINE
8
SECTION
10
236.900000
20
230.946107
30
0.0
11
233.000000
21
230.946107
31
0.0
0
LINE
8
SECTION
10
236.900000
20
230.946107
30
0.0
11
236.900000
21
235.567130
31
0.0
0
LINE
8
SECTION
10
236.900000
20
235.567130
30
0.0
11
242.500000
21
235.567130
31
0.0
0
LINE
8
SECTION
10
242.500000
20
230.386000
30
0.0
11
242.500000
21
235.567130
31
0.0
0
LINE
8
SECTION
10
236.900000
20
198.946000
30
0.0
11
236.900000
21
204.053893
31
0.0
0
LINE
8
SECTION
10
236.900000
20
204.053893
30
0.0
11
233.000000
21
204.053893
31
0.0
0
LINE
8
SECTION
10
233.000000
20
204.053893
30
0.0
11
233.000000
21
206.814000
31
0.0
0
LINE
8
SECTION
10
238.520000
20
206.814000
30
0.0
11
233.000000
21
206.814000
31
0.0
0
LINE
8
SECTION
10
238.520000
20
204.614000
30
0.0
11
238.520000
21
206.814000
31
0.0
0
LINE
8
SECTION
10
247.500000
20
204.614000
30
0.0
11
238.520000
21
204.614000
31
0.0
0
LINE
8
SECTION
10
247.500000
20
159.335677
30
0.0
11
247.500000
21
204.614000
31
0.0
0
LINE
8
SECTION
10
242.500000
20
159.335677
30
0.0
11
247.500000
21
159.335677
31
0.0
0
LINE
8
SECTION
10
242.500000
20
138.790350
30
0.0
11
242.500000
21
159.335677
31
0.0
0
LINE
8
SECTION
10
248.900000
20
138.790350
30
0.0
11
242.500000
21
138.790350
31
0.0
0
LINE
8
SECTION
10
248.900000
20
128.209650
30
0.0
11
248.900000
21
138.790350
31
0.0
0
LINE
8
SECTION
10
248.900000
20
128.209650
30
0.0
11
242.500000
21
128.209650
31
0.0
0
LINE
8
SECTION
10
242.500000
20
125.015538
30
0.0
11
242.500000
21
128.209650
31
0.0
0
LINE
8
SECTION
10
242.500000
20
125.015538
30
0.0
11
237.900000
21
125.015538
31
0.0
0
LINE
8
SECTION
10
237.900000
20
125.015538
30
0.0
11
237.900000
21
128.209650
31
0.0
0
LINE
8
SECTION
10
237.900000
20
128.209650
30
0.0
11
236.900000
21
128.209650
31
0.0
0
LINE
8
SECTION
10
236.900000
20
128.209650
30
0.0
11
236.900000
21
138.790350
31
0.0
0
LINE
8
SECTION
10
237.900000
20
138.790350
30
0.0
11
236.900000
21
138.790350
31
0.0
0
LINE
8
SECTION
10
237.900000
20
138.790350
30
0.0
11
237.900000
21
180.946000
31
0.0
0
LINE
8
SECTION
10
233.000000
20
180.946000
30
0.0
11
237.900000
21
180.946000
31
0.0
0
LINE
8
SECTION
10
233.000000
20
180.946000
30
0.0
11
233.000000
21
191.946000
31
0.0
0
LINE
8
SECTION
10
233.000000
20
191.946000
30
0.0
11
237.900000
21
191.946000
31
0.0
0
LINE
8
SECTION
10
237.900000
20
191.946000
30
0.0
11
237.900000
21
198.946000
31
0.0
0
LINE
8
SECTION
10
237.900000
20
198.946000
30
0.0
11
236.900000
21
198.946000
31
0.0
0
LINE
8
SECTION
10
247.500000
20
213.414000
30
0.0
11
238.520000
21
213.414000
31
0.0
0
LINE
8
SECTION
10
238.520000
20
211.214000
30
0.0
11
238.520000
21
213.414000
31
0.0
0
LINE
8
SECTION
10
238.520000
20
211.214000
30
0.0
11
233.000000
21
211.214000
31
0.0
0
LINE
8
SECTION
10
233.000000
20
211.214000
30
0.0
11
233.000000
21
223.786000
31
0.0
0
LINE
8
SECTION
10
238.520000
20
223.786000
30
0.0
11
233.000000
21
223.786000
31
0.0
0
LINE
8
SECTION
10
238.520000
20
221.586000
30
0.0
11
238.520000
21
223.786000
31
0.0
0
LINE
8
SECTION
10
247.500000
20
221.586000
30
0.0
11
238.520000
21
221.586000
31
0.0
0
LINE
8
SECTION
10
247.500000
20
213.414000
30
0.0
11
247.500000
21
221.586000
31
0.0
0
LINE
8
CENTER
10
160.514000
20
225.986000
30
0.0
11
165.314000
21
225.986000
31
0.0
0
LINE
8
CENTER
10
167.714000
20
225.986000
30
0.0
11
172.514000
21
225.986000
31
0.0
0
LINE
8
CENTER
10
166.514000
20
219.986000
30
0.0
11
166.514000
21
224.786000
31
0.0
0
LINE
8
CENTER
10
166.514000
20
227.186000
30
0.0
11
166.514000
21
231.986000
31
0.0
0
LINE
8
CENTER
10
177.486000
20
225.986000
30
0.0
11
182.286000
21
225.986000
31
0.0
0
LINE
8
CENTER
10
184.686000
20
225.986000
30
0.0
11
189.486000
21
225.986000
31
0.0
0
LINE
8
CENTER
10
183.486000
20
219.986000
30
0.0
11
183.486000
21
224.786000
31
0.0
0
LINE
8
CENTER
10
183.486000
20
227.186000
30
0.0
11
183.486000
21
231.986000
31
0.0
0
LINE
8
CENTER
10
167.400000
20
217.500000
30
0.0
11
173.800000
21
217.500000
31
0.0
0
LINE
8
CENTER
10
176.200000
20
217.500000
30
0.0
11
182.600000
21
217.500000
31
0.0
0
LINE
8
CENTER
10
175.000000
20
209.900000
30
0.0
11
175.000000
21
216.300000
31
0.0
0
LINE
8
CENTER
10
175.000000
20
218.700000
30
0.0
11
175.000000
21
225.100000
31
0.0
0
LINE
8
CENTER
10
160.514000
20
209.014000
30
0.0
11
165.314000
21
209.014000
31
0.0
0
LINE
8
CENTER
10
167.714000
20
209.014000
30
0.0
11
172.514000
21
209.014000
31
0.0
0
LINE
8
CENTER
10
166.514000
20
203.014000
30
0.0
11
166.514000
21
207.814000
31
0.0
0
LINE
8
CENTER
10
166.514000
20
210.214000
30
0.0
11
166.514000
21
215.014000
31
0.0
0
LINE
8
CENTER
10
177.486000
20
209.014000
30
0.0
11
182.286000
21
209.014000
31
0.0
0
LINE
8
CENTER
10
184.686000
20
209.014000
30
0.0
11
189.486000
21
209.014000
31
0.0
0
LINE
8
CENTER
10
183.486000
20
203.014000
30
0.0
11
183.486000
21
207.814000
31
0.0
0
LINE
8
CENTER
10
183.486000
20
210.214000
30
0.0
11
183.486000
21
215.014000
31
0.0
0
LINE
8
CENTER
10
152.560000
20
178.500000
30
0.0
11
157.800000
21
178.500000
31
0.0
0
LINE
8
CENTER
10
160.200000
20
178.500000
30
0.0
11
165.440000
21
178.500000
31
0.0
0
LINE
8
CENTER
10
159.000000
20
172.060000
30
0.0
11
159.000000
21
177.300000
31
0.0
0
LINE
8
CENTER
10
159.000000
20
179.700000
30
0.0
11
159.000000
21
184.940000
31
0.0
0
LINE
8
CENTER
10
184.560000
20
178.500000
30
0.0
11
189.800000
21
178.500000
31
0.0
0
LINE
8
CENTER
10
192.200000
20
178.500000
30
0.0
11
197.440000
21
178.500000
31
0.0
0
LINE
8
CENTER
10
191.000000
20
172.060000
30
0.0
11
191.000000
21
177.300000
31
0.0
0
LINE
8
CENTER
10
191.000000
20
179.700000
30
0.0
11
191.000000
21
184.940000
31
0.0
0
LINE
8
CENTER
10
167.900000
20
133.500000
30
0.0
11
173.800000
21
133.500000
31
0.0
0
LINE
8
CENTER
10
176.200000
20
133.500000
30
0.0
11
182.100000
21
133.500000
31
0.0
0
LINE
8
CENTER
10
175.000000
20
126.400000
30
0.0
11
175.000000
21
132.300000
31
0.0
0
LINE
8
CENTER
10
175.000000
20
134.700000
30
0.0
11
175.000000
21
140.600000
31
0.0
0
LINE
8
DIM
10
155.000000
20
120.300000
30
0.0
11
155.000000
21
98.500000
31
0.0
0
LINE
8
DIM
10
195.000000
20
120.300000
30
0.0
11
195.000000
21
98.500000
31
0.0
0
LINE
8
DIM
10
155.000000
20
100.500000
30
0.0
11
195.000000
21
100.500000
31
0.0
0
SOLID
8
DIM
10
155.000000
20
100.500000
30
0.0
11
158.200000
21
99.892000
31
0.0
12
158.200000
22
101.108000
32
0.0
13
158.200000
23
101.108000
33
0.0
0
SOLID
8
DIM
10
195.000000
20
100.500000
30
0.0
11
191.800000
21
101.108000
31
0.0
12
191.800000
22
99.892000
32
0.0
13
191.800000
23
99.892000
33
0.0
0
TEXT
8
TEXT
10
175.000000
20
101.500000
30
0.0
40
2.5000
1
20.00
72
1
73
0
11
175.000000
21
101.500000
31
0.0
0
LINE
8
DIM
10
153.800000
20
121.500000
30
0.0
11
132.000000
21
121.500000
31
0.0
0
LINE
8
DIM
10
153.800000
20
237.500000
30
0.0
11
132.000000
21
237.500000
31
0.0
0
LINE
8
DIM
10
134.000000
20
121.500000
30
0.0
11
134.000000
21
237.500000
31
0.0
0
SOLID
8
DIM
10
134.000000
20
121.500000
30
0.0
11
134.608000
21
124.700000
31
0.0
12
133.392000
22
124.700000
32
0.0
13
133.392000
23
124.700000
33
0.0
0
SOLID
8
DIM
10
134.000000
20
237.500000
30
0.0
11
133.392000
21
234.300000
31
0.0
12
134.608000
22
234.300000
32
0.0
13
134.608000
23
234.300000
33
0.0
0
TEXT
8
TEXT
10
133.000000
20
179.500000
30
0.0
40
2.5000
1
58.00
50
90.0000
72
1
73
0
11
133.000000
21
179.500000
31
0.0
0
SOLID
8
DIM
10
169.222910
20
229.453247
30
0.0
11
171.672138
21
231.600560
31
0.0
12
170.713917
22
232.349204
32
0.0
13
170.713917
23
232.349204
33
0.0
0
LINE
8
DIM
10
169.222910
20
229.453247
30
0.0
11
180.978722
21
244.500000
31
0.0
0
LINE
8
DIM
10
180.978722
20
244.500000
30
0.0
11
185.978722
21
244.500000
31
0.0
0
TEXT
8
TEXT
10
186.778722
20
249.125000
30
0.0
40
2.5000
1
4x Ø2.20 THRU
0
TEXT
8
TEXT
10
186.778722
20
245.500000
30
0.0
40
2.5000
1
C'BORE Ø4.40x4.49 +X
0
SOLID
8
DIM
10
161.979802
20
182.313972
30
0.0
11
164.429029
21
184.461284
31
0.0
12
163.470808
22
185.209929
32
0.0
13
163.470808
23
185.209929
33
0.0
0
LINE
8
DIM
10
161.979802
20
182.313972
30
0.0
11
218.182386
21
254.250000
31
0.0
0
LINE
8
DIM
10
218.182386
20
254.250000
30
0.0
11
223.182386
21
254.250000
31
0.0
0
TEXT
8
TEXT
10
223.982386
20
258.875000
30
0.0
40
2.5000
1
2x Ø2.40 THRU
0
TEXT
8
TEXT
10
223.982386
20
255.250000
30
0.0
40
2.5000
1
C'BORE Ø4.84x3.00 +X
0
SOLID
8
DIM
10
178.693969
20
222.228065
30
0.0
11
181.143196
21
224.375377
31
0.0
12
180.184975
22
225.124021
32
0.0
13
180.184975
23
225.124021
33
0.0
0
LINE
8
DIM
10
178.693969
20
222.228065
30
0.0
11
211.329782
21
264.000000
31
0.0
0
LINE
8
DIM
10
211.329782
20
264.000000
30
0.0
11
216.329782
21
264.000000
31
0.0
0
TEXT
8
TEXT
10
217.129782
20
265.000000
30
0.0
40
2.5000
1
Ø6.00 THRU
0
SOLID
8
DIM
10
176.754982
20
138.712489
30
0.0
11
178.352280
21
141.551204
31
0.0
12
177.199846
22
141.939214
32
0.0
13
177.199846
23
141.939214
33
0.0
0
LINE
8
DIM
10
176.754982
20
138.712489
30
0.0
11
221.000000
21
270.125000
31
0.0
0
LINE
8
DIM
10
221.000000
20
270.125000
30
0.0
11
226.000000
21
270.125000
31
0.0
0
TEXT
8
TEXT
10
226.800000
20
274.750000
30
0.0
40
2.5000
1
Ø2.70 THRU
0
TEXT
8
TEXT
10
226.800000
20
271.125000
30
0.0
40
2.5000
1
C'BORE Ø5.50x3.49 -X
0
LINE
8
DIM
10
173.800000
20
133.500000
30
0.0
11
125.000000
21
133.500000
31
0.0
0
LINE
8
DIM
10
173.800000
20
217.500000
30
0.0
11
125.000000
21
217.500000
31
0.0
0
LINE
8
DIM
10
127.000000
20
133.500000
30
0.0
11
127.000000
21
217.500000
31
0.0
0
SOLID
8
DIM
10
127.000000
20
133.500000
30
0.0
11
127.608000
21
136.700000
31
0.0
12
126.392000
22
136.700000
32
0.0
13
126.392000
23
136.700000
33
0.0
0
SOLID
8
DIM
10
127.000000
20
217.500000
30
0.0
11
126.392000
21
214.300000
31
0.0
12
127.608000
22
214.300000
32
0.0
13
127.608000
23
214.300000
33
0.0
0
TEXT
8
TEXT
10
126.000000
20
175.500000
30
0.0
40
2.5000
1
42.00
50
90.0000
72
1
73
0
11
126.000000
21
175.500000
31
0.0
0
TEXT
8
TEXT
10
175.000000
20
88.500000
30
0.0
40
4.0000
1
RIGHT VIEW
72
1
73
0
11
175.000000
21
88.500000
31
0.0
0
LINE
8
TEXT
10
163.000000
20
86.900000
30
0.0
11
187.000000
21
86.900000
31
0.0
0
TEXT
8
TEXT
10
175.000000
20
82.500000
30
0.0
40
2.4000
1
-Y →   Z ↑
72
1
73
0
11
175.000000
21
82.500000
31
0.0
0
LINE
8
DIM
10
93.100000
20
120.300000
30
0.0
11
93.100000
21
107.500000
31
0.0
0
LINE
8
DIM
10
109.000000
20
120.300000
30
0.0
11
109.000000
21
107.500000
31
0.0
0
LINE
8
DIM
10
93.100000
20
109.500000
30
0.0
11
109.000000
21
109.500000
31
0.0
0
SOLID
8
DIM
10
93.100000
20
109.500000
30
0.0
11
96.300000
21
108.892000
31
0.0
12
96.300000
22
110.108000
32
0.0
13
96.300000
23
110.108000
33
0.0
0
SOLID
8
DIM
10
109.000000
20
109.500000
30
0.0
11
105.800000
21
110.108000
31
0.0
12
105.800000
22
108.892000
32
0.0
13
105.800000
23
108.892000
33
0.0
0
TEXT
8
TEXT
10
101.050000
20
110.500000
30
0.0
40
2.5000
1
7.95
72
1
73
0
11
101.050000
21
110.500000
31
0.0
0
LINE
8
DIM
10
91.900000
20
121.500000
30
0.0
11
79.100000
21
121.500000
31
0.0
0
LINE
8
DIM
10
91.900000
20
237.500000
30
0.0
11
79.100000
21
237.500000
31
0.0
0
LINE
8
DIM
10
81.100000
20
121.500000
30
0.0
11
81.100000
21
237.500000
31
0.0
0
SOLID
8
DIM
10
81.100000
20
121.500000
30
0.0
11
81.708000
21
124.700000
31
0.0
12
80.492000
22
124.700000
32
0.0
13
80.492000
23
124.700000
33
0.0
0
SOLID
8
DIM
10
81.100000
20
237.500000
30
0.0
11
80.492000
21
234.300000
31
0.0
12
81.708000
22
234.300000
32
0.0
13
81.708000
23
234.300000
33
0.0
0
TEXT
8
TEXT
10
80.100000
20
179.500000
30
0.0
40
2.5000
1
58.00
50
90.0000
72
1
73
0
11
80.100000
21
179.500000
31
0.0
0
TEXT
8
TEXT
10
101.050000
20
97.500000
30
0.0
40
4.0000
1
FRONT VIEW
72
1
73
0
11
101.050000
21
97.500000
31
0.0
0
LINE
8
TEXT
10
89.050000
20
95.900000
30
0.0
11
113.050000
21
95.900000
31
0.0
0
TEXT
8
TEXT
10
101.050000
20
91.500000
30
0.0
40
2.4000
1
-X →   Z ↑
72
1
73
0
11
101.050000
21
91.500000
31
0.0
0
LINE
8
DIM
10
233.000000
20
120.300000
30
0.0
11
233.000000
21
107.500000
31
0.0
0
LINE
8
DIM
10
248.900000
20
120.300000
30
0.0
11
248.900000
21
107.500000
31
0.0
0
LINE
8
DIM
10
233.000000
20
109.500000
30
0.0
11
248.900000
21
109.500000
31
0.0
0
SOLID
8
DIM
10
233.000000
20
109.500000
30
0.0
11
236.200000
21
108.892000
31
0.0
12
236.200000
22
110.108000
32
0.0
13
236.200000
23
110.108000
33
0.0
0
SOLID
8
DIM
10
248.900000
20
109.500000
30
0.0
11
245.700000
21
110.108000
31
0.0
12
245.700000
22
108.892000
32
0.0
13
245.700000
23
108.892000
33
0.0
0
TEXT
8
TEXT
10
240.950000
20
110.500000
30
0.0
40
2.5000
1
7.95
72
1
73
0
11
240.950000
21
110.500000
31
0.0
0
LINE
8
DIM
10
231.800000
20
121.500000
30
0.0
11
219.000000
21
121.500000
31
0.0
0
LINE
8
DIM
10
231.800000
20
237.500000
30
0.0
11
219.000000
21
237.500000
31
0.0
0
LINE
8
DIM
10
221.000000
20
121.500000
30
0.0
11
221.000000
21
237.500000
31
0.0
0
SOLID
8
DIM
10
221.000000
20
121.500000
30
0.0
11
221.608000
21
124.700000
31
0.0
12
220.392000
22
124.700000
32
0.0
13
220.392000
23
124.700000
33
0.0
0
SOLID
8
DIM
10
221.000000
20
237.500000
30
0.0
11
220.392000
21
234.300000
31
0.0
12
221.608000
22
234.300000
32
0.0
13
221.608000
23
234.300000
33
0.0
0
TEXT
8
TEXT
10
220.000000
20
179.500000
30
0.0
40
2.5000
1
58.00
50
90.0000
72
1
73
0
11
220.000000
21
179.500000
31
0.0
0
LINE
8
HATCH
10
242.499997
20
230.386000
30
0.0
11
242.500000
21
230.386003
31
0.0
0
LINE
8
HATCH
10
236.057356
20
228.186000
30
0.0
11
242.500000
21
234.628644
31
0.0
0
LINE
8
HATCH
10
233.000000
20
229.371284
30
0.0
11
234.574823
21
230.946107
31
0.0
0
LINE
8
HATCH
10
236.900000
20
233.271284
30
0.0
11
239.195846
21
235.567130
31
0.0
0
LINE
8
HATCH
10
248.899997
20
128.209650
30
0.0
11
248.900000
21
128.209653
31
0.0
0
LINE
8
HATCH
10
241.463245
20
125.015538
30
0.0
11
242.500000
21
126.052293
31
0.0
0
LINE
8
HATCH
10
244.657356
20
128.209650
30
0.0
11
248.900000
21
132.452293
31
0.0
0
LINE
8
HATCH
10
237.900000
20
125.694934
30
0.0
11
248.900000
21
136.694934
31
0.0
0
LINE
8
HATCH
10
236.900000
20
128.937575
30
0.0
11
246.752775
21
138.790350
31
0.0
0
LINE
8
HATCH
10
236.900000
20
133.180215
30
0.0
11
242.510135
21
138.790350
31
0.0
0
LINE
8
HATCH
10
236.900000
20
137.422856
30
0.0
11
242.500000
21
143.022856
31
0.0
0
LINE
8
HATCH
10
237.900000
20
142.665497
30
0.0
11
242.500000
21
147.265497
31
0.0
0
LINE
8
HATCH
10
237.900000
20
146.908138
30
0.0
11
242.500000
21
151.508138
31
0.0
0
LINE
8
HATCH
10
237.900000
20
151.150778
30
0.0
11
242.500000
21
155.750778
31
0.0
0
LINE
8
HATCH
10
246.084899
20
159.335677
30
0.0
11
247.500000
21
160.750778
31
0.0
0
LINE
8
HATCH
10
237.900000
20
155.393419
30
0.0
11
247.500000
21
164.993419
31
0.0
0
LINE
8
HATCH
10
237.900000
20
159.636060
30
0.0
11
247.500000
21
169.236060
31
0.0
0
LINE
8
HATCH
10
237.900000
20
163.878700
30
0.0
11
247.500000
21
173.478700
31
0.0
0
LINE
8
HATCH
10
237.900000
20
168.121341
30
0.0
11
247.500000
21
177.721341
31
0.0
0
LINE
8
HATCH
10
237.900000
20
172.363982
30
0.0
11
247.500000
21
181.963982
31
0.0
0
LINE
8
HATCH
10
237.900000
20
176.606622
30
0.0
11
247.500000
21
186.206622
31
0.0
0
LINE
8
HATCH
10
237.900000
20
180.849263
30
0.0
11
247.500000
21
190.449263
31
0.0
0
LINE
8
HATCH
10
233.754096
20
180.946000
30
0.0
11
247.500000
21
194.691904
31
0.0
0
LINE
8
HATCH
10
233.000000
20
184.434544
30
0.0
11
247.500000
21
198.934544
31
0.0
0
LINE
8
HATCH
10
233.000000
20
188.677185
30
0.0
11
236.268815
21
191.946000
31
0.0
0
LINE
8
HATCH
10
237.900000
20
193.577185
30
0.0
11
247.500000
21
203.177185
31
0.0
0
LINE
8
HATCH
10
237.900000
20
197.819826
30
0.0
11
244.694174
21
204.614000
31
0.0
0
LINE
8
HATCH
10
236.900000
20
201.062466
30
0.0
11
240.451534
21
204.614000
31
0.0
0
LINE
8
HATCH
10
235.648785
20
204.053893
30
0.0
11
238.408893
21
206.814000
31
0.0
0
LINE
8
HATCH
10
233.000000
20
205.647748
30
0.0
11
234.166252
21
206.814000
31
0.0
0
LINE
8
HATCH
10
247.499997
20
213.414000
30
0.0
11
247.500000
21
213.414003
31
0.0
0
LINE
8
HATCH
10
243.257356
20
213.414000
30
0.0
11
247.500000
21
217.656644
31
0.0
0
LINE
8
HATCH
10
236.814716
20
211.214000
30
0.0
11
238.520000
21
212.919284
31
0.0
0
LINE
8
HATCH
10
239.014716
20
213.414000
30
0.0
11
247.186716
21
221.586000
31
0.0
0
LINE
8
HATCH
10
233.000000
20
211.641925
30
0.0
11
242.944075
21
221.586000
31
0.0
0
LINE
8
HATCH
10
233.000000
20
215.884566
30
0.0
11
238.701434
21
221.586000
31
0.0
0
LINE
8
HATCH
10
233.000000
20
220.127206
30
0.0
11
236.658794
21
223.786000
31
0.0
0
LINE
8
DIM
10
238.042501
20
228.186000
30
0.0
11
259.900000
21
228.186000
31
0.0
0
LINE
8
DIM
10
238.042501
20
230.946107
30
0.0
11
259.900000
21
230.946107
31
0.0
0
LINE
8
DIM
10
257.900000
20
228.186000
30
0.0
11
257.900000
21
230.946107
31
0.0
0
SOLID
8
DIM
10
257.900000
20
228.186000
30
0.0
11
257.292000
21
224.986000
31
0.0
12
258.508000
22
224.986000
32
0.0
13
258.508000
23
224.986000
33
0.0
0
SOLID
8
DIM
10
257.900000
20
230.946107
30
0.0
11
258.508000
21
234.146107
31
0.0
12
257.292000
22
234.146107
32
0.0
13
257.292000
23
234.146107
33
0.0
0
LINE
8
DIM
10
257.900000
20
230.946107
30
0.0
11
257.900000
21
240.546107
31
0.0
0
TEXT
8
TEXT
10
256.900000
20
241.346107
30
0.0
40
2.5000
1
1.38 WALL
50
90.0000
0
LINE
8
DIM
10
237.900000
20
127.136803
30
0.0
11
237.900000
21
260.500000
31
0.0
0
LINE
8
DIM
10
242.500000
20
127.136803
30
0.0
11
242.500000
21
260.500000
31
0.0
0
LINE
8
DIM
10
237.900000
20
258.500000
30
0.0
11
242.500000
21
258.500000
31
0.0
0
SOLID
8
DIM
10
237.900000
20
258.500000
30
0.0
11
234.700000
21
259.108000
31
0.0
12
234.700000
22
257.892000
32
0.0
13
234.700000
23
257.892000
33
0.0
0
SOLID
8
DIM
10
242.500000
20
258.500000
30
0.0
11
245.700000
21
257.892000
31
0.0
12
245.700000
22
259.108000
32
0.0
13
245.700000
23
259.108000
33
0.0
0
LINE
8
DIM
10
242.500000
20
258.500000
30
0.0
11
252.100000
21
258.500000
31
0.0
0
TEXT
8
TEXT
10
252.900000
20
258.900000
30
0.0
40
2.5000
1
2.30 WALL
0
TEXT
8
TEXT
10
240.950000
20
97.500000
30
0.0
40
4.0000
1
SECTION A-A
72
1
73
0
11
240.950000
21
97.500000
31
0.0
0
LINE
8
TEXT
10
227.750000
20
95.900000
30
0.0
11
254.150000
21
95.900000
31
0.0
0
LINE
8
CUT
10
166.514000
20
112.500000
30
0.0
11
166.514000
21
126.500000
31
0.0
0
LINE
8
CUTTHIN
10
166.514000
20
126.500000
30
0.0
11
166.514000
21
232.500000
31
0.0
0
LINE
8
CUT
10
166.514000
20
232.500000
30
0.0
11
166.514000
21
246.500000
31
0.0
0
LINE
8
CUT
10
166.514000
20
112.500000
30
0.0
11
175.514000
21
112.500000
31
0.0
0
SOLID
8
CUT
10
175.514000
20
112.500000
30
0.0
11
171.314000
21
113.298000
31
0.0
12
171.314000
22
111.702000
32
0.0
13
171.314000
23
111.702000
33
0.0
0
TEXT
8
TEXT
10
161.514000
20
112.500000
30
0.0
40
4.0000
1
A
72
1
73
2
11
161.514000
21
112.500000
31
0.0
0
LINE
8
CUT
10
166.514000
20
246.500000
30
0.0
11
175.514000
21
246.500000
31
0.0
0
SOLID
8
CUT
10
175.514000
20
246.500000
30
0.0
11
171.314000
21
247.298000
31
0.0
12
171.314000
22
245.702000
32
0.0
13
171.314000
23
245.702000
33
0.0
0
TEXT
8
TEXT
10
161.514000
20
246.500000
30
0.0
40
4.0000
1
A
72
1
73
2
11
161.514000
21
246.500000
31
0.0
0
TEXT
8
TEXT
10
334.000000
20
276.500000
30
0.0
40
3.0000
1
HOLE TABLE — 8 POSITIONS
0
LINE
8
TITLE
10
334.000000
20
274.000000
30
0.0
11
396.520000
21
274.000000
31
0.0
0
TEXT
8
TITLE
10
335.500000
20
271.530000
30
0.0
40
2.2000
1
TAG
0
TEXT
8
TITLE
10
342.460000
20
271.530000
30
0.0
40
2.2000
1
SIZE
0
TEXT
8
TITLE
10
358.660000
20
271.530000
30
0.0
40
2.2000
1
Y
0
TEXT
8
TITLE
10
368.260000
20
271.530000
30
0.0
40
2.2000
1
Z
0
TEXT
8
TITLE
10
377.860000
20
271.530000
30
0.0
40
2.2000
1
C'BORE
0
LINE
8
TITLE
10
334.000000
20
269.930000
30
0.0
11
396.520000
21
269.930000
31
0.0
0
TEXT
8
TEXT
10
335.500000
20
267.460000
30
0.0
40
2.2000
1
A1
0
TEXT
8
TEXT
10
342.460000
20
267.460000
30
0.0
40
2.2000
1
Ø2.20 THRU
0
TEXT
8
TEXT
10
358.660000
20
267.460000
30
0.0
40
2.2000
1
26.24
0
TEXT
8
TEXT
10
368.260000
20
267.460000
30
0.0
40
2.2000
1
40.02
0
TEXT
8
TEXT
10
377.860000
20
267.460000
30
0.0
40
2.2000
1
Ø4.40x4.49 +X
0
TEXT
8
TEXT
10
335.500000
20
263.390000
30
0.0
40
2.2000
1
A2
0
TEXT
8
TEXT
10
342.460000
20
263.390000
30
0.0
40
2.2000
1
Ø2.20 THRU
0
TEXT
8
TEXT
10
358.660000
20
263.390000
30
0.0
40
2.2000
1
17.76
0
TEXT
8
TEXT
10
368.260000
20
263.390000
30
0.0
40
2.2000
1
40.02
0
TEXT
8
TEXT
10
377.860000
20
263.390000
30
0.0
40
2.2000
1
Ø4.40x4.49 +X
0
TEXT
8
TEXT
10
335.500000
20
259.320000
30
0.0
40
2.2000
1
A3
0
TEXT
8
TEXT
10
342.460000
20
259.320000
30
0.0
40
2.2000
1
Ø6.00 THRU
0
TEXT
8
TEXT
10
358.660000
20
259.320000
30
0.0
40
2.2000
1
22.00
0
TEXT
8
TEXT
10
368.260000
20
259.320000
30
0.0
40
2.2000
1
35.78
0
TEXT
8
TEXT
10
377.860000
20
259.320000
30
0.0
40
2.2000
1
-
0
TEXT
8
TEXT
10
335.500000
20
255.250000
30
0.0
40
2.2000
1
A4
0
TEXT
8
TEXT
10
342.460000
20
255.250000
30
0.0
40
2.2000
1
Ø2.20 THRU
0
TEXT
8
TEXT
10
358.660000
20
255.250000
30
0.0
40
2.2000
1
26.24
0
TEXT
8
TEXT
10
368.260000
20
255.250000
30
0.0
40
2.2000
1
31.53
0
TEXT
8
TEXT
10
377.860000
20
255.250000
30
0.0
40
2.2000
1
Ø4.40x4.49 +X
0
TEXT
8
TEXT
10
335.500000
20
251.180000
30
0.0
40
2.2000
1
A5
0
TEXT
8
TEXT
10
342.460000
20
251.180000
30
0.0
40
2.2000
1
Ø2.20 THRU
0
TEXT
8
TEXT
10
358.660000
20
251.180000
30
0.0
40
2.2000
1
17.76
0
TEXT
8
TEXT
10
368.260000
20
251.180000
30
0.0
40
2.2000
1
31.53
0
TEXT
8
TEXT
10
377.860000
20
251.180000
30
0.0
40
2.2000
1
Ø4.40x4.49 +X
0
TEXT
8
TEXT
10
335.500000
20
247.110000
30
0.0
40
2.2000
1
A6
0
TEXT
8
TEXT
10
342.460000
20
247.110000
30
0.0
40
2.2000
1
Ø2.40 THRU
0
TEXT
8
TEXT
10
358.660000
20
247.110000
30
0.0
40
2.2000
1
30.00
0
TEXT
8
TEXT
10
368.260000
20
247.110000
30
0.0
40
2.2000
1
16.28
0
TEXT
8
TEXT
10
377.860000
20
247.110000
30
0.0
40
2.2000
1
Ø4.84x3.00 +X
0
TEXT
8
TEXT
10
335.500000
20
243.040000
30
0.0
40
2.2000
1
A7
0
TEXT
8
TEXT
10
342.460000
20
243.040000
30
0.0
40
2.2000
1
Ø2.40 THRU
0
TEXT
8
TEXT
10
358.660000
20
243.040000
30
0.0
40
2.2000
1
14.00
0
TEXT
8
TEXT
10
368.260000
20
243.040000
30
0.0
40
2.2000
1
16.28
0
TEXT
8
TEXT
10
377.860000
20
243.040000
30
0.0
40
2.2000
1
Ø4.84x3.00 +X
0
TEXT
8
TEXT
10
335.500000
20
238.970000
30
0.0
40
2.2000
1
A8
0
TEXT
8
TEXT
10
342.460000
20
238.970000
30
0.0
40
2.2000
1
Ø2.70 THRU
0
TEXT
8
TEXT
10
358.660000
20
238.970000
30
0.0
40
2.2000
1
22.00
0
TEXT
8
TEXT
10
368.260000
20
238.970000
30
0.0
40
2.2000
1
-6.22
0
TEXT
8
TEXT
10
377.860000
20
238.970000
30
0.0
40
2.2000
1
Ø5.50x3.49 -X
0
LINE
8
TITLE
10
334.000000
20
237.370000
30
0.0
11
396.520000
21
237.370000
31
0.0
0
LINE
8
TITLE
10
340.960000
20
237.370000
30
0.0
11
340.960000
21
274.000000
31
0.0
0
LINE
8
TITLE
10
357.160000
20
237.370000
30
0.0
11
357.160000
21
274.000000
31
0.0
0
LINE
8
TITLE
10
366.760000
20
237.370000
30
0.0
11
366.760000
21
274.000000
31
0.0
0
LINE
8
TITLE
10
376.360000
20
237.370000
30
0.0
11
376.360000
21
274.000000
31
0.0
0
LINE
8
TITLE
10
396.520000
20
237.370000
30
0.0
11
396.520000
21
274.000000
31
0.0
0
LINE
8
TITLE
10
334.000000
20
237.370000
30
0.0
11
334.000000
21
274.000000
31
0.0
0
TEXT
8
TITLE
10
334.000000
20
233.370000
30
0.0
40
1.9660
1
every row measured off the solid; positions are model
0
TEXT
8
TITLE
10
334.000000
20
230.420943
30
0.0
40
1.9660
1
coordinates, mm. C'BORE side is the face it opens on.
0
TEXT
8
TEXT
10
334.000000
20
220.471887
30
0.0
40
3.0000
1
NOTES
0
TEXT
8
TEXT
10
334.000000
20
215.871887
30
0.0
40
2.4000
1
1. ALL DIMENSIONS IN mm AND DEGREES. EVERY
0
TEXT
8
TEXT
10
334.000000
20
212.151887
30
0.0
40
2.4000
1
   DIMENSION AND EVERY HOLE CALLOUT WAS MEASURED
0
TEXT
8
TEXT
10
334.000000
20
208.431887
30
0.0
40
2.4000
1
   OFF THE SOLID.
0
TEXT
8
TEXT
10
334.000000
20
204.711887
30
0.0
40
2.4000
1
2. GENERAL TOLERANCE: CANNOT DETERMINE — THIS PART
0
TEXT
8
TEXT
10
334.000000
20
200.991887
30
0.0
40
2.4000
1
   DECLARES NO PROCESS THIS REPO CAN READ.
0
TEXT
8
TEXT
10
334.000000
20
197.271887
30
0.0
40
2.4000
1
3. SECTION A-A AT Y=26.24: THINNEST MATERIAL FOUND
0
TEXT
8
TEXT
10
334.000000
20
193.551887
30
0.0
40
2.4000
1
   BY SCAN 1.38 mm, AT X=38.53, Z=41.81.
0
LINE
8
FRAME
10
224.000000
20
10.000000
30
0.0
11
410.000000
21
10.000000
31
0.0
0
LINE
8
FRAME
10
410.000000
20
10.000000
30
0.0
11
410.000000
21
66.000000
31
0.0
0
LINE
8
FRAME
10
410.000000
20
66.000000
30
0.0
11
224.000000
21
66.000000
31
0.0
0
LINE
8
FRAME
10
224.000000
20
66.000000
30
0.0
11
224.000000
21
10.000000
31
0.0
0
LINE
8
TITLE
10
224.000000
20
53.000000
30
0.0
11
410.000000
21
53.000000
31
0.0
0
LINE
8
TITLE
10
224.000000
20
19.000000
30
0.0
11
410.000000
21
19.000000
31
0.0
0
LINE
8
TITLE
10
224.000000
20
27.500000
30
0.0
11
410.000000
21
27.500000
31
0.0
0
LINE
8
TITLE
10
224.000000
20
36.000000
30
0.0
11
410.000000
21
36.000000
31
0.0
0
LINE
8
TITLE
10
224.000000
20
44.500000
30
0.0
11
410.000000
21
44.500000
31
0.0
0
TEXT
8
TEXT
10
226.500000
20
59.500000
30
0.0
40
6.0000
1
MICRODUCK-SHIN
72
0
73
2
11
226.500000
21
59.500000
31
0.0
0
LINE
8
TITLE
10
390.000000
20
53.000000
30
0.0
11
390.000000
21
66.000000
31
0.0
0
TEXT
8
TITLE
10
400.000000
20
63.600000
30
0.0
40
1.7000
1
REV
72
1
73
0
11
400.000000
21
63.600000
31
0.0
0
TEXT
8
TEXT
10
400.000000
20
55.000000
30
0.0
40
5.2000
1
A
72
1
73
0
11
400.000000
21
55.000000
31
0.0
0
LINE
8
TITLE
10
360.000000
20
53.000000
30
0.0
11
360.000000
21
66.000000
31
0.0
0
CIRCLE
8
TITLE
10
366.500000
20
59.500000
30
0.0
40
3.500000
0
CIRCLE
8
TITLE
10
366.500000
20
59.500000
30
0.0
40
1.960000
0
LINE
8
TITLE
10
376.300000
20
56.000000
30
0.0
11
376.300000
21
63.000000
31
0.0
0
LINE
8
TITLE
10
376.300000
20
63.000000
30
0.0
11
382.250000
21
61.460000
31
0.0
0
LINE
8
TITLE
10
382.250000
20
61.460000
30
0.0
11
382.250000
21
57.540000
31
0.0
0
LINE
8
TITLE
10
382.250000
20
57.540000
30
0.0
11
376.300000
21
56.000000
31
0.0
0
LINE
8
CENTER
10
361.500000
20
59.500000
30
0.0
11
383.750000
21
59.500000
31
0.0
0
LINE
8
TITLE
10
288.000000
20
19.000000
30
0.0
11
288.000000
21
53.000000
31
0.0
0
LINE
8
TITLE
10
352.000000
20
19.000000
30
0.0
11
352.000000
21
53.000000
31
0.0
0
TEXT
8
TITLE
10
225.600000
20
50.600000
30
0.0
40
1.7000
1
MATERIAL
0
TEXT
8
TEXT
10
225.600000
20
45.900000
30
0.0
40
2.5000
1
PLA
0
TEXT
8
TITLE
10
289.600000
20
50.600000
30
0.0
40
1.7000
1
PROCESS
0
TEXT
8
TEXT
10
289.600000
20
45.900000
30
0.0
40
2.5000
1
-
0
TEXT
8
TITLE
10
353.600000
20
50.600000
30
0.0
40
1.7000
1
SCALE
0
TEXT
8
TEXT
10
353.600000
20
45.900000
30
0.0
40
2.5000
1
2:1
0
TEXT
8
TITLE
10
225.600000
20
42.100000
30
0.0
40
1.7000
1
CATEGORY
0
TEXT
8
TEXT
10
225.600000
20
37.400000
30
0.0
40
2.5000
1
-
0
TEXT
8
TITLE
10
257.600000
20
42.100000
30
0.0
40
1.7000
1
GENERAL TOL
0
TEXT
8
TEXT
10
257.600000
20
37.400000
30
0.0
40
2.5000
1
SEE NOTES
0
LINE
8
TITLE
10
256.000000
20
36.000000
30
0.0
11
256.000000
21
44.500000
31
0.0
0
TEXT
8
TITLE
10
289.600000
20
42.100000
30
0.0
40
1.7000
1
FINISH
0
TEXT
8
TEXT
10
289.600000
20
37.400000
30
0.0
40
2.5000
1
AS PRINTED
0
TEXT
8
TITLE
10
353.600000
20
42.100000
30
0.0
40
1.7000
1
SHEET
0
TEXT
8
TEXT
10
353.600000
20
37.400000
30
0.0
40
2.5000
1
A3  1/1
0
TEXT
8
TITLE
10
225.600000
20
33.600000
30
0.0
40
1.7000
1
VOLUME (MEASURED)
0
TEXT
8
TEXT
10
225.600000
20
28.900000
30
0.0
40
2.5000
1
3.39 cm3
0
TEXT
8
TITLE
10
289.600000
20
33.600000
30
0.0
40
1.7000
1
MASS (ASSUMES PLA)
0
TEXT
8
TEXT
10
289.600000
20
28.900000
30
0.0
40
2.5000
1
4.2 g
0
TEXT
8
TITLE
10
353.600000
20
33.600000
30
0.0
40
1.7000
1
UNITS
0
TEXT
8
TEXT
10
353.600000
20
28.900000
30
0.0
40
2.5000
1
mm / deg
0
TEXT
8
TITLE
10
225.600000
20
25.100000
30
0.0
40
1.7000
1
SIZE (BBOX, MEASURED)
0
TEXT
8
TEXT
10
225.600000
20
20.400000
30
0.0
40
2.5000
1
7.95 x 20.00 x 58.00
0
TEXT
8
TITLE
10
289.600000
20
25.100000
30
0.0
40
1.7000
1
DRAWN
0
TEXT
8
TEXT
10
289.600000
20
20.400000
30
0.0
40
2.5000
1
ce-cad  2026-09-02
0
TEXT
8
TITLE
10
353.600000
20
25.100000
30
0.0
40
1.7000
1
PROJECTION
0
TEXT
8
TEXT
10
353.600000
20
20.400000
30
0.0
40
2.5000
1
THIRD ANGLE
0
TEXT
8
TITLE
10
225.600000
20
16.600000
30
0.0
40
1.7000
1
SOURCE (DESIGN FILE)
0
TEXT
8
TEXT
10
225.600000
20
11.400000
30
0.0
40
2.6000
1
ce-parts/microduck-shin/current/cad/part.py
0
TEXT
8
TEXT
10
12.500000
20
280.500000
30
0.0
40
4.2000
1
microduck-shin   SCALE 2:1   A3   THIRD ANGLE
0
ENDSEC
0
EOF
