0
SECTION
2
HEADER
9
$ACADVER
1
AC1009
9
$INSUNITS
70
4
9
$LTSCALE
40
1.0
9
$EXTMIN
10
0.0000
20
0.0000
30
0.0
9
$EXTMAX
10
420.0000
20
297.0000
30
0.0
0
ENDSEC
0
SECTION
2
TABLES
0
TABLE
2
LTYPE
70
4
0
LTYPE
2
CONTINUOUS
70
0
3
Solid line
72
65
73
0
40
0.0000
0
LTYPE
2
HIDDEN
70
0
3
Hidden __ __ __ __
72
65
73
2
40
3.6000
49
2.4000
49
-1.2000
0
LTYPE
2
CENTER
70
0
3
Center ____ _ ____ _
72
65
73
4
40
11.2000
49
7.0000
49
-1.4000
49
1.4000
49
-1.4000
0
LTYPE
2
PHANTOM
70
0
3
Phantom ____ _ _ ____
72
65
73
6
40
21.0000
49
11.0000
49
-2.0000
49
2.0000
49
-2.0000
49
2.0000
49
-2.0000
0
ENDTAB
0
TABLE
2
LAYER
70
12
0
LAYER
2
0
70
0
62
7
6
CONTINUOUS
0
LAYER
2
VISIBLE
70
0
62
7
6
CONTINUOUS
0
LAYER
2
SECTION
70
0
62
7
6
CONTINUOUS
0
LAYER
2
HIDDEN
70
0
62
8
6
HIDDEN
0
LAYER
2
CENTER
70
0
62
4
6
CENTER
0
LAYER
2
DIM
70
0
62
3
6
CONTINUOUS
0
LAYER
2
TEXT
70
0
62
3
6
CONTINUOUS
0
LAYER
2
HATCH
70
0
62
5
6
CONTINUOUS
0
LAYER
2
CUT
70
0
62
1
6
PHANTOM
0
LAYER
2
CUTTHIN
70
0
62
1
6
PHANTOM
0
LAYER
2
FRAME
70
0
62
7
6
CONTINUOUS
0
LAYER
2
TITLE
70
0
62
7
6
CONTINUOUS
0
ENDTAB
0
ENDSEC
0
SECTION
2
ENTITIES
0
LINE
8
TITLE
10
5.000000
20
5.000000
30
0.0
11
415.000000
21
5.000000
31
0.0
0
LINE
8
TITLE
10
415.000000
20
5.000000
30
0.0
11
415.000000
21
292.000000
31
0.0
0
LINE
8
TITLE
10
415.000000
20
292.000000
30
0.0
11
5.000000
21
292.000000
31
0.0
0
LINE
8
TITLE
10
5.000000
20
292.000000
30
0.0
11
5.000000
21
5.000000
31
0.0
0
LINE
8
FRAME
10
10.000000
20
10.000000
30
0.0
11
410.000000
21
10.000000
31
0.0
0
LINE
8
FRAME
10
410.000000
20
10.000000
30
0.0
11
410.000000
21
287.000000
31
0.0
0
LINE
8
FRAME
10
410.000000
20
287.000000
30
0.0
11
10.000000
21
287.000000
31
0.0
0
LINE
8
FRAME
10
10.000000
20
287.000000
30
0.0
11
10.000000
21
10.000000
31
0.0
0
TEXT
8
TITLE
10
60.000000
20
289.500000
30
0.0
40
2.4000
1
1
72
1
73
2
11
60.000000
21
289.500000
31
0.0
0
TEXT
8
TITLE
10
60.000000
20
7.500000
30
0.0
40
2.4000
1
1
72
1
73
2
11
60.000000
21
7.500000
31
0.0
0
TEXT
8
TITLE
10
160.000000
20
289.500000
30
0.0
40
2.4000
1
2
72
1
73
2
11
160.000000
21
289.500000
31
0.0
0
TEXT
8
TITLE
10
160.000000
20
7.500000
30
0.0
40
2.4000
1
2
72
1
73
2
11
160.000000
21
7.500000
31
0.0
0
LINE
8
TITLE
10
110.000000
20
5.000000
30
0.0
11
110.000000
21
10.000000
31
0.0
0
LINE
8
TITLE
10
110.000000
20
287.000000
30
0.0
11
110.000000
21
292.000000
31
0.0
0
TEXT
8
TITLE
10
260.000000
20
289.500000
30
0.0
40
2.4000
1
3
72
1
73
2
11
260.000000
21
289.500000
31
0.0
0
TEXT
8
TITLE
10
260.000000
20
7.500000
30
0.0
40
2.4000
1
3
72
1
73
2
11
260.000000
21
7.500000
31
0.0
0
LINE
8
TITLE
10
210.000000
20
5.000000
30
0.0
11
210.000000
21
10.000000
31
0.0
0
LINE
8
TITLE
10
210.000000
20
287.000000
30
0.0
11
210.000000
21
292.000000
31
0.0
0
TEXT
8
TITLE
10
360.000000
20
289.500000
30
0.0
40
2.4000
1
4
72
1
73
2
11
360.000000
21
289.500000
31
0.0
0
TEXT
8
TITLE
10
360.000000
20
7.500000
30
0.0
40
2.4000
1
4
72
1
73
2
11
360.000000
21
7.500000
31
0.0
0
LINE
8
TITLE
10
310.000000
20
5.000000
30
0.0
11
310.000000
21
10.000000
31
0.0
0
LINE
8
TITLE
10
310.000000
20
287.000000
30
0.0
11
310.000000
21
292.000000
31
0.0
0
TEXT
8
TITLE
10
7.500000
20
56.166667
30
0.0
40
2.4000
1
C
72
1
73
2
11
7.500000
21
56.166667
31
0.0
0
TEXT
8
TITLE
10
412.500000
20
56.166667
30
0.0
40
2.4000
1
C
72
1
73
2
11
412.500000
21
56.166667
31
0.0
0
TEXT
8
TITLE
10
7.500000
20
148.500000
30
0.0
40
2.4000
1
B
72
1
73
2
11
7.500000
21
148.500000
31
0.0
0
TEXT
8
TITLE
10
412.500000
20
148.500000
30
0.0
40
2.4000
1
B
72
1
73
2
11
412.500000
21
148.500000
31
0.0
0
LINE
8
TITLE
10
5.000000
20
102.333333
30
0.0
11
10.000000
21
102.333333
31
0.0
0
LINE
8
TITLE
10
410.000000
20
102.333333
30
0.0
11
415.000000
21
102.333333
31
0.0
0
TEXT
8
TITLE
10
7.500000
20
240.833333
30
0.0
40
2.4000
1
A
72
1
73
2
11
7.500000
21
240.833333
31
0.0
0
TEXT
8
TITLE
10
412.500000
20
240.833333
30
0.0
40
2.4000
1
A
72
1
73
2
11
412.500000
21
240.833333
31
0.0
0
LINE
8
TITLE
10
5.000000
20
194.666667
30
0.0
11
10.000000
21
194.666667
31
0.0
0
LINE
8
TITLE
10
410.000000
20
194.666667
30
0.0
11
415.000000
21
194.666667
31
0.0
0
LINE
8
VISIBLE
10
152.000000
20
212.500000
30
0.0
11
151.923141
21
213.280361
31
0.0
0
LINE
8
VISIBLE
10
152.000000
20
148.500000
30
0.0
11
152.000000
21
212.500000
31
0.0
0
LINE
8
VISIBLE
10
151.923141
20
213.280361
30
0.0
11
151.695518
21
214.030734
31
0.0
0
LINE
8
VISIBLE
10
151.923141
20
147.719639
30
0.0
11
152.000000
21
148.500000
31
0.0
0
LINE
8
VISIBLE
10
151.695518
20
214.030734
30
0.0
11
151.325878
21
214.722281
31
0.0
0
LINE
8
VISIBLE
10
151.695518
20
146.969266
30
0.0
11
151.923141
21
147.719639
31
0.0
0
LINE
8
VISIBLE
10
151.325878
20
214.722281
30
0.0
11
150.828427
21
215.328427
31
0.0
0
LINE
8
VISIBLE
10
151.325878
20
146.277719
30
0.0
11
151.695518
21
146.969266
31
0.0
0
LINE
8
VISIBLE
10
150.828427
20
215.328427
30
0.0
11
150.222281
21
215.825878
31
0.0
0
LINE
8
VISIBLE
10
150.828427
20
145.671573
30
0.0
11
151.325878
21
146.277719
31
0.0
0
LINE
8
VISIBLE
10
150.222281
20
215.825878
30
0.0
11
149.530734
21
216.195518
31
0.0
0
LINE
8
VISIBLE
10
150.222281
20
145.174122
30
0.0
11
150.828427
21
145.671573
31
0.0
0
LINE
8
VISIBLE
10
149.530734
20
216.195518
30
0.0
11
148.780361
21
216.423141
31
0.0
0
LINE
8
VISIBLE
10
149.530734
20
144.804482
30
0.0
11
150.222281
21
145.174122
31
0.0
0
LINE
8
VISIBLE
10
148.780361
20
216.423141
30
0.0
11
148.000000
21
216.500000
31
0.0
0
LINE
8
VISIBLE
10
148.780361
20
144.576859
30
0.0
11
149.530734
21
144.804482
31
0.0
0
LINE
8
VISIBLE
10
148.000000
20
216.500000
30
0.0
11
42.000000
21
216.500000
31
0.0
0
LINE
8
VISIBLE
10
148.000000
20
144.500000
30
0.0
11
148.780361
21
144.576859
31
0.0
0
LINE
8
VISIBLE
10
42.000000
20
216.500000
30
0.0
11
41.219639
21
216.423141
31
0.0
0
LINE
8
VISIBLE
10
42.000000
20
144.500000
30
0.0
11
148.000000
21
144.500000
31
0.0
0
LINE
8
VISIBLE
10
41.219639
20
216.423141
30
0.0
11
40.469266
21
216.195518
31
0.0
0
LINE
8
VISIBLE
10
41.219639
20
144.576859
30
0.0
11
42.000000
21
144.500000
31
0.0
0
LINE
8
VISIBLE
10
40.469266
20
216.195518
30
0.0
11
39.777719
21
215.825878
31
0.0
0
LINE
8
VISIBLE
10
40.469266
20
144.804482
30
0.0
11
41.219639
21
144.576859
31
0.0
0
LINE
8
VISIBLE
10
39.777719
20
215.825878
30
0.0
11
39.171573
21
215.328427
31
0.0
0
LINE
8
VISIBLE
10
39.777719
20
145.174122
30
0.0
11
40.469266
21
144.804482
31
0.0
0
LINE
8
VISIBLE
10
39.171573
20
215.328427
30
0.0
11
38.674122
21
214.722281
31
0.0
0
LINE
8
VISIBLE
10
39.171573
20
145.671573
30
0.0
11
39.777719
21
145.174122
31
0.0
0
LINE
8
VISIBLE
10
38.674122
20
214.722281
30
0.0
11
38.304482
21
214.030734
31
0.0
0
LINE
8
VISIBLE
10
38.674122
20
146.277719
30
0.0
11
39.171573
21
145.671573
31
0.0
0
LINE
8
VISIBLE
10
38.304482
20
214.030734
30
0.0
11
38.076859
21
213.280361
31
0.0
0
LINE
8
VISIBLE
10
38.304482
20
146.969266
30
0.0
11
38.674122
21
146.277719
31
0.0
0
LINE
8
VISIBLE
10
38.076859
20
213.280361
30
0.0
11
38.000000
21
212.500000
31
0.0
0
LINE
8
VISIBLE
10
38.076859
20
147.719639
30
0.0
11
38.304482
21
146.969266
31
0.0
0
LINE
8
VISIBLE
10
38.000000
20
212.500000
30
0.0
11
38.000000
21
148.500000
31
0.0
0
LINE
8
VISIBLE
10
38.000000
20
148.500000
30
0.0
11
38.076859
21
147.719639
31
0.0
0
CIRCLE
8
VISIBLE
10
60.000000
20
166.500000
30
0.0
40
19.000000
0
LINE
8
VISIBLE
10
100.695518
20
188.030734
30
0.0
11
100.923141
21
187.280361
31
0.0
0
LINE
8
VISIBLE
10
100.325878
20
188.722281
30
0.0
11
100.695518
21
188.030734
31
0.0
0
LINE
8
VISIBLE
10
99.828427
20
189.328427
30
0.0
11
100.325878
21
188.722281
31
0.0
0
LINE
8
VISIBLE
10
99.222281
20
189.825878
30
0.0
11
99.828427
21
189.328427
31
0.0
0
LINE
8
VISIBLE
10
98.530734
20
190.195518
30
0.0
11
99.222281
21
189.825878
31
0.0
0
LINE
8
VISIBLE
10
97.780361
20
190.423141
30
0.0
11
98.530734
21
190.195518
31
0.0
0
LINE
8
VISIBLE
10
97.000000
20
190.500000
30
0.0
11
97.780361
21
190.423141
31
0.0
0
LINE
8
VISIBLE
10
93.000000
20
190.500000
30
0.0
11
97.000000
21
190.500000
31
0.0
0
LINE
8
VISIBLE
10
92.219639
20
190.423141
30
0.0
11
93.000000
21
190.500000
31
0.0
0
LINE
8
VISIBLE
10
91.469266
20
190.195518
30
0.0
11
92.219639
21
190.423141
31
0.0
0
LINE
8
VISIBLE
10
90.777719
20
189.825878
30
0.0
11
91.469266
21
190.195518
31
0.0
0
LINE
8
VISIBLE
10
90.171573
20
189.328427
30
0.0
11
90.777719
21
189.825878
31
0.0
0
LINE
8
VISIBLE
10
89.674122
20
188.722281
30
0.0
11
90.171573
21
189.328427
31
0.0
0
LINE
8
VISIBLE
10
89.304482
20
188.030734
30
0.0
11
89.674122
21
188.722281
31
0.0
0
LINE
8
VISIBLE
10
89.076859
20
187.280361
30
0.0
11
89.304482
21
188.030734
31
0.0
0
LINE
8
VISIBLE
10
89.000000
20
186.500000
30
0.0
11
89.076859
21
187.280361
31
0.0
0
LINE
8
VISIBLE
10
89.000000
20
170.500000
30
0.0
11
89.000000
21
186.500000
31
0.0
0
LINE
8
VISIBLE
10
89.076859
20
169.719639
30
0.0
11
89.000000
21
170.500000
31
0.0
0
LINE
8
VISIBLE
10
89.304482
20
168.969266
30
0.0
11
89.076859
21
169.719639
31
0.0
0
LINE
8
VISIBLE
10
89.674122
20
168.277719
30
0.0
11
89.304482
21
168.969266
31
0.0
0
LINE
8
VISIBLE
10
90.171573
20
167.671573
30
0.0
11
89.674122
21
168.277719
31
0.0
0
LINE
8
VISIBLE
10
90.777719
20
167.174122
30
0.0
11
90.171573
21
167.671573
31
0.0
0
LINE
8
VISIBLE
10
91.469266
20
166.804482
30
0.0
11
90.777719
21
167.174122
31
0.0
0
LINE
8
VISIBLE
10
92.219639
20
166.576859
30
0.0
11
91.469266
21
166.804482
31
0.0
0
LINE
8
VISIBLE
10
93.000000
20
166.500000
30
0.0
11
92.219639
21
166.576859
31
0.0
0
LINE
8
VISIBLE
10
97.000000
20
166.500000
30
0.0
11
93.000000
21
166.500000
31
0.0
0
LINE
8
VISIBLE
10
97.780361
20
166.576859
30
0.0
11
97.000000
21
166.500000
31
0.0
0
LINE
8
VISIBLE
10
98.530734
20
166.804482
30
0.0
11
97.780361
21
166.576859
31
0.0
0
LINE
8
VISIBLE
10
99.222281
20
167.174122
30
0.0
11
98.530734
21
166.804482
31
0.0
0
LINE
8
VISIBLE
10
99.828427
20
167.671573
30
0.0
11
99.222281
21
167.174122
31
0.0
0
LINE
8
VISIBLE
10
100.325878
20
168.277719
30
0.0
11
99.828427
21
167.671573
31
0.0
0
LINE
8
VISIBLE
10
100.695518
20
168.969266
30
0.0
11
100.325878
21
168.277719
31
0.0
0
LINE
8
VISIBLE
10
100.923141
20
169.719639
30
0.0
11
100.695518
21
168.969266
31
0.0
0
LINE
8
VISIBLE
10
101.000000
20
170.500000
30
0.0
11
100.923141
21
169.719639
31
0.0
0
LINE
8
VISIBLE
10
101.000000
20
186.500000
30
0.0
11
101.000000
21
170.500000
31
0.0
0
LINE
8
VISIBLE
10
100.923141
20
187.280361
30
0.0
11
101.000000
21
186.500000
31
0.0
0
CIRCLE
8
VISIBLE
10
130.000000
20
166.500000
30
0.0
40
19.000000
0
CIRCLE
8
VISIBLE
10
44.000000
20
211.500000
30
0.0
40
2.300000
0
CIRCLE
8
VISIBLE
10
76.000000
20
211.500000
30
0.0
40
2.300000
0
CIRCLE
8
VISIBLE
10
114.000000
20
211.500000
30
0.0
40
2.300000
0
CIRCLE
8
VISIBLE
10
146.000000
20
211.500000
30
0.0
40
2.300000
0
CIRCLE
8
HIDDEN
10
44.000000
20
151.500000
30
0.0
40
1.798955
0
CIRCLE
8
HIDDEN
10
76.000000
20
151.500000
30
0.0
40
1.798955
0
CIRCLE
8
HIDDEN
10
114.000000
20
151.500000
30
0.0
40
1.798955
0
CIRCLE
8
HIDDEN
10
146.000000
20
151.500000
30
0.0
40
1.798955
0
CIRCLE
8
HIDDEN
10
44.000000
20
151.500000
30
0.0
40
1.590000
0
CIRCLE
8
HIDDEN
10
76.000000
20
151.500000
30
0.0
40
1.590000
0
CIRCLE
8
HIDDEN
10
114.000000
20
151.500000
30
0.0
40
1.590000
0
CIRCLE
8
HIDDEN
10
146.000000
20
151.500000
30
0.0
40
1.590000
0
LINE
8
HIDDEN
10
45.798955
20
151.500000
30
0.0
11
45.590000
21
151.500000
31
0.0
0
LINE
8
HIDDEN
10
77.798955
20
151.500000
30
0.0
11
77.590000
21
151.500000
31
0.0
0
LINE
8
HIDDEN
10
115.798955
20
151.500000
30
0.0
11
115.590000
21
151.500000
31
0.0
0
LINE
8
HIDDEN
10
147.798955
20
151.500000
30
0.0
11
147.590000
21
151.500000
31
0.0
0
LINE
8
VISIBLE
10
38.000000
20
80.500000
30
0.0
11
38.000000
21
82.500000
31
0.0
0
LINE
8
VISIBLE
10
38.076859
20
80.500000
30
0.0
11
38.000000
21
80.500000
31
0.0
0
LINE
8
VISIBLE
10
38.304482
20
80.500000
30
0.0
11
38.076859
21
80.500000
31
0.0
0
LINE
8
VISIBLE
10
38.674122
20
80.500000
30
0.0
11
38.304482
21
80.500000
31
0.0
0
LINE
8
VISIBLE
10
39.171573
20
80.500000
30
0.0
11
38.674122
21
80.500000
31
0.0
0
LINE
8
VISIBLE
10
39.777719
20
80.500000
30
0.0
11
39.171573
21
80.500000
31
0.0
0
LINE
8
VISIBLE
10
40.469266
20
80.500000
30
0.0
11
39.777719
21
80.500000
31
0.0
0
LINE
8
VISIBLE
10
41.219639
20
80.500000
30
0.0
11
40.469266
21
80.500000
31
0.0
0
LINE
8
VISIBLE
10
42.000000
20
80.500000
30
0.0
11
41.219639
21
80.500000
31
0.0
0
LINE
8
VISIBLE
10
148.000000
20
80.500000
30
0.0
11
42.000000
21
80.500000
31
0.0
0
LINE
8
VISIBLE
10
148.780361
20
80.500000
30
0.0
11
148.000000
21
80.500000
31
0.0
0
LINE
8
VISIBLE
10
149.530734
20
80.500000
30
0.0
11
148.780361
21
80.500000
31
0.0
0
LINE
8
VISIBLE
10
150.222281
20
80.500000
30
0.0
11
149.530734
21
80.500000
31
0.0
0
LINE
8
VISIBLE
10
150.828427
20
80.500000
30
0.0
11
150.222281
21
80.500000
31
0.0
0
LINE
8
VISIBLE
10
151.325878
20
80.500000
30
0.0
11
150.828427
21
80.500000
31
0.0
0
LINE
8
VISIBLE
10
151.695518
20
80.500000
30
0.0
11
151.325878
21
80.500000
31
0.0
0
LINE
8
VISIBLE
10
151.923141
20
80.500000
30
0.0
11
151.695518
21
80.500000
31
0.0
0
LINE
8
VISIBLE
10
152.000000
20
80.500000
30
0.0
11
151.923141
21
80.500000
31
0.0
0
LINE
8
VISIBLE
10
38.076859
20
82.500000
30
0.0
11
38.000000
21
82.500000
31
0.0
0
LINE
8
VISIBLE
10
38.304482
20
82.500000
30
0.0
11
38.076859
21
82.500000
31
0.0
0
LINE
8
VISIBLE
10
38.674122
20
82.500000
30
0.0
11
38.304482
21
82.500000
31
0.0
0
LINE
8
VISIBLE
10
39.171573
20
82.500000
30
0.0
11
38.674122
21
82.500000
31
0.0
0
LINE
8
VISIBLE
10
39.777719
20
82.500000
30
0.0
11
39.171573
21
82.500000
31
0.0
0
LINE
8
VISIBLE
10
40.469266
20
82.500000
30
0.0
11
39.777719
21
82.500000
31
0.0
0
LINE
8
VISIBLE
10
41.219639
20
82.500000
30
0.0
11
40.469266
21
82.500000
31
0.0
0
LINE
8
VISIBLE
10
42.000000
20
82.500000
30
0.0
11
41.219639
21
82.500000
31
0.0
0
LINE
8
VISIBLE
10
148.000000
20
82.500000
30
0.0
11
42.000000
21
82.500000
31
0.0
0
LINE
8
VISIBLE
10
148.780361
20
82.500000
30
0.0
11
148.000000
21
82.500000
31
0.0
0
LINE
8
VISIBLE
10
149.530734
20
82.500000
30
0.0
11
148.780361
21
82.500000
31
0.0
0
LINE
8
VISIBLE
10
150.222281
20
82.500000
30
0.0
11
149.530734
21
82.500000
31
0.0
0
LINE
8
VISIBLE
10
150.828427
20
82.500000
30
0.0
11
150.222281
21
82.500000
31
0.0
0
LINE
8
VISIBLE
10
151.325878
20
82.500000
30
0.0
11
150.828427
21
82.500000
31
0.0
0
LINE
8
VISIBLE
10
151.695518
20
82.500000
30
0.0
11
151.325878
21
82.500000
31
0.0
0
LINE
8
VISIBLE
10
151.923141
20
82.500000
30
0.0
11
151.695518
21
82.500000
31
0.0
0
LINE
8
VISIBLE
10
152.000000
20
82.500000
30
0.0
11
151.923141
21
82.500000
31
0.0
0
LINE
8
VISIBLE
10
38.076859
20
80.500000
30
0.0
11
38.076859
21
82.500000
31
0.0
0
LINE
8
VISIBLE
10
38.304482
20
80.500000
30
0.0
11
38.304482
21
82.500000
31
0.0
0
LINE
8
VISIBLE
10
38.674122
20
80.500000
30
0.0
11
38.674122
21
82.500000
31
0.0
0
LINE
8
VISIBLE
10
39.171573
20
80.500000
30
0.0
11
39.171573
21
82.500000
31
0.0
0
LINE
8
VISIBLE
10
39.777719
20
80.500000
30
0.0
11
39.777719
21
82.500000
31
0.0
0
LINE
8
VISIBLE
10
40.469266
20
80.500000
30
0.0
11
40.469266
21
82.500000
31
0.0
0
LINE
8
VISIBLE
10
41.219639
20
80.500000
30
0.0
11
41.219639
21
82.500000
31
0.0
0
LINE
8
VISIBLE
10
42.000000
20
80.500000
30
0.0
11
42.000000
21
82.500000
31
0.0
0
LINE
8
VISIBLE
10
148.000000
20
80.500000
30
0.0
11
148.000000
21
82.500000
31
0.0
0
LINE
8
VISIBLE
10
148.780361
20
80.500000
30
0.0
11
148.780361
21
82.500000
31
0.0
0
LINE
8
VISIBLE
10
149.530734
20
80.500000
30
0.0
11
149.530734
21
82.500000
31
0.0
0
LINE
8
VISIBLE
10
150.222281
20
80.500000
30
0.0
11
150.222281
21
82.500000
31
0.0
0
LINE
8
VISIBLE
10
150.828427
20
80.500000
30
0.0
11
150.828427
21
82.500000
31
0.0
0
LINE
8
VISIBLE
10
151.325878
20
80.500000
30
0.0
11
151.325878
21
82.500000
31
0.0
0
LINE
8
VISIBLE
10
151.695518
20
80.500000
30
0.0
11
151.695518
21
82.500000
31
0.0
0
LINE
8
VISIBLE
10
151.923141
20
80.500000
30
0.0
11
151.923141
21
82.500000
31
0.0
0
LINE
8
VISIBLE
10
152.000000
20
80.500000
30
0.0
11
152.000000
21
82.500000
31
0.0
0
LINE
8
VISIBLE
10
144.201045
20
82.500000
30
0.0
11
144.410000
21
86.500000
31
0.0
0
LINE
8
VISIBLE
10
147.590000
20
86.500000
30
0.0
11
144.410000
21
86.500000
31
0.0
0
LINE
8
VISIBLE
10
112.201045
20
82.500000
30
0.0
11
112.410000
21
86.500000
31
0.0
0
LINE
8
VISIBLE
10
115.590000
20
86.500000
30
0.0
11
112.410000
21
86.500000
31
0.0
0
LINE
8
VISIBLE
10
74.201045
20
82.500000
30
0.0
11
74.410000
21
86.500000
31
0.0
0
LINE
8
VISIBLE
10
77.590000
20
86.500000
30
0.0
11
74.410000
21
86.500000
31
0.0
0
LINE
8
VISIBLE
10
42.201045
20
82.500000
30
0.0
11
42.410000
21
86.500000
31
0.0
0
LINE
8
VISIBLE
10
45.590000
20
86.500000
30
0.0
11
42.410000
21
86.500000
31
0.0
0
LINE
8
VISIBLE
10
147.590000
20
86.500000
30
0.0
11
147.798955
21
82.500000
31
0.0
0
LINE
8
VISIBLE
10
115.590000
20
86.500000
30
0.0
11
115.798955
21
82.500000
31
0.0
0
LINE
8
VISIBLE
10
77.590000
20
86.500000
30
0.0
11
77.798955
21
82.500000
31
0.0
0
LINE
8
VISIBLE
10
45.590000
20
86.500000
30
0.0
11
45.798955
21
82.500000
31
0.0
0
LINE
8
HIDDEN
10
111.000000
20
80.500000
30
0.0
11
149.000000
21
80.500000
31
0.0
0
LINE
8
HIDDEN
10
149.000000
20
80.500000
30
0.0
11
111.000000
21
80.500000
31
0.0
0
LINE
8
HIDDEN
10
89.304482
20
80.500000
30
0.0
11
89.076859
21
80.500000
31
0.0
0
LINE
8
HIDDEN
10
89.674122
20
80.500000
30
0.0
11
89.304482
21
80.500000
31
0.0
0
LINE
8
HIDDEN
10
90.171573
20
80.500000
30
0.0
11
89.674122
21
80.500000
31
0.0
0
LINE
8
HIDDEN
10
90.777719
20
80.500000
30
0.0
11
90.171573
21
80.500000
31
0.0
0
LINE
8
HIDDEN
10
91.469266
20
80.500000
30
0.0
11
90.777719
21
80.500000
31
0.0
0
LINE
8
HIDDEN
10
92.219639
20
80.500000
30
0.0
11
91.469266
21
80.500000
31
0.0
0
LINE
8
HIDDEN
10
93.000000
20
80.500000
30
0.0
11
92.219639
21
80.500000
31
0.0
0
LINE
8
HIDDEN
10
97.000000
20
80.500000
30
0.0
11
93.000000
21
80.500000
31
0.0
0
LINE
8
HIDDEN
10
97.780361
20
80.500000
30
0.0
11
97.000000
21
80.500000
31
0.0
0
LINE
8
HIDDEN
10
98.530734
20
80.500000
30
0.0
11
97.780361
21
80.500000
31
0.0
0
LINE
8
HIDDEN
10
99.222281
20
80.500000
30
0.0
11
98.530734
21
80.500000
31
0.0
0
LINE
8
HIDDEN
10
99.828427
20
80.500000
30
0.0
11
99.222281
21
80.500000
31
0.0
0
LINE
8
HIDDEN
10
100.325878
20
80.500000
30
0.0
11
99.828427
21
80.500000
31
0.0
0
LINE
8
HIDDEN
10
100.695518
20
80.500000
30
0.0
11
100.325878
21
80.500000
31
0.0
0
LINE
8
HIDDEN
10
100.923141
20
80.500000
30
0.0
11
100.695518
21
80.500000
31
0.0
0
LINE
8
HIDDEN
10
101.000000
20
80.500000
30
0.0
11
100.923141
21
80.500000
31
0.0
0
LINE
8
HIDDEN
10
100.923141
20
80.500000
30
0.0
11
101.000000
21
80.500000
31
0.0
0
LINE
8
HIDDEN
10
100.695518
20
80.500000
30
0.0
11
100.923141
21
80.500000
31
0.0
0
LINE
8
HIDDEN
10
100.325878
20
80.500000
30
0.0
11
100.695518
21
80.500000
31
0.0
0
LINE
8
HIDDEN
10
99.828427
20
80.500000
30
0.0
11
100.325878
21
80.500000
31
0.0
0
LINE
8
HIDDEN
10
99.222281
20
80.500000
30
0.0
11
99.828427
21
80.500000
31
0.0
0
LINE
8
HIDDEN
10
98.530734
20
80.500000
30
0.0
11
99.222281
21
80.500000
31
0.0
0
LINE
8
HIDDEN
10
97.780361
20
80.500000
30
0.0
11
98.530734
21
80.500000
31
0.0
0
LINE
8
HIDDEN
10
97.000000
20
80.500000
30
0.0
11
97.780361
21
80.500000
31
0.0
0
LINE
8
HIDDEN
10
93.000000
20
80.500000
30
0.0
11
97.000000
21
80.500000
31
0.0
0
LINE
8
HIDDEN
10
92.219639
20
80.500000
30
0.0
11
93.000000
21
80.500000
31
0.0
0
LINE
8
HIDDEN
10
91.469266
20
80.500000
30
0.0
11
92.219639
21
80.500000
31
0.0
0
LINE
8
HIDDEN
10
90.777719
20
80.500000
30
0.0
11
91.469266
21
80.500000
31
0.0
0
LINE
8
HIDDEN
10
90.171573
20
80.500000
30
0.0
11
90.777719
21
80.500000
31
0.0
0
LINE
8
HIDDEN
10
89.674122
20
80.500000
30
0.0
11
90.171573
21
80.500000
31
0.0
0
LINE
8
HIDDEN
10
89.304482
20
80.500000
30
0.0
11
89.674122
21
80.500000
31
0.0
0
LINE
8
HIDDEN
10
89.076859
20
80.500000
30
0.0
11
89.304482
21
80.500000
31
0.0
0
LINE
8
HIDDEN
10
89.000000
20
80.500000
30
0.0
11
89.076859
21
80.500000
31
0.0
0
LINE
8
HIDDEN
10
89.076859
20
80.500000
30
0.0
11
89.000000
21
80.500000
31
0.0
0
LINE
8
HIDDEN
10
41.000000
20
80.500000
30
0.0
11
79.000000
21
80.500000
31
0.0
0
LINE
8
HIDDEN
10
79.000000
20
80.500000
30
0.0
11
41.000000
21
80.500000
31
0.0
0
LINE
8
HIDDEN
10
143.700000
20
80.500000
30
0.0
11
148.300000
21
80.500000
31
0.0
0
LINE
8
HIDDEN
10
148.300000
20
80.500000
30
0.0
11
143.700000
21
80.500000
31
0.0
0
LINE
8
HIDDEN
10
111.700000
20
80.500000
30
0.0
11
116.300000
21
80.500000
31
0.0
0
LINE
8
HIDDEN
10
116.300000
20
80.500000
30
0.0
11
111.700000
21
80.500000
31
0.0
0
LINE
8
HIDDEN
10
73.700000
20
80.500000
30
0.0
11
78.300000
21
80.500000
31
0.0
0
LINE
8
HIDDEN
10
78.300000
20
80.500000
30
0.0
11
73.700000
21
80.500000
31
0.0
0
LINE
8
HIDDEN
10
41.700000
20
80.500000
30
0.0
11
46.300000
21
80.500000
31
0.0
0
LINE
8
HIDDEN
10
46.300000
20
80.500000
30
0.0
11
41.700000
21
80.500000
31
0.0
0
LINE
8
HIDDEN
10
144.201045
20
82.500000
30
0.0
11
147.798955
21
82.500000
31
0.0
0
LINE
8
HIDDEN
10
147.798955
20
82.500000
30
0.0
11
144.201045
21
82.500000
31
0.0
0
LINE
8
HIDDEN
10
112.201045
20
82.500000
30
0.0
11
115.798955
21
82.500000
31
0.0
0
LINE
8
HIDDEN
10
115.798955
20
82.500000
30
0.0
11
112.201045
21
82.500000
31
0.0
0
LINE
8
HIDDEN
10
111.000000
20
82.500000
30
0.0
11
149.000000
21
82.500000
31
0.0
0
LINE
8
HIDDEN
10
149.000000
20
82.500000
30
0.0
11
111.000000
21
82.500000
31
0.0
0
LINE
8
HIDDEN
10
74.201045
20
82.500000
30
0.0
11
77.798955
21
82.500000
31
0.0
0
LINE
8
HIDDEN
10
77.798955
20
82.500000
30
0.0
11
74.201045
21
82.500000
31
0.0
0
LINE
8
HIDDEN
10
42.201045
20
82.500000
30
0.0
11
45.798955
21
82.500000
31
0.0
0
LINE
8
HIDDEN
10
45.798955
20
82.500000
30
0.0
11
42.201045
21
82.500000
31
0.0
0
LINE
8
HIDDEN
10
89.304482
20
82.500000
30
0.0
11
89.076859
21
82.500000
31
0.0
0
LINE
8
HIDDEN
10
89.674122
20
82.500000
30
0.0
11
89.304482
21
82.500000
31
0.0
0
LINE
8
HIDDEN
10
89.076859
20
82.500000
30
0.0
11
89.000000
21
82.500000
31
0.0
0
LINE
8
HIDDEN
10
90.171573
20
82.500000
30
0.0
11
89.674122
21
82.500000
31
0.0
0
LINE
8
HIDDEN
10
90.777719
20
82.500000
30
0.0
11
90.171573
21
82.500000
31
0.0
0
LINE
8
HIDDEN
10
89.000000
20
82.500000
30
0.0
11
89.076859
21
82.500000
31
0.0
0
LINE
8
HIDDEN
10
91.469266
20
82.500000
30
0.0
11
90.777719
21
82.500000
31
0.0
0
LINE
8
HIDDEN
10
89.076859
20
82.500000
30
0.0
11
89.304482
21
82.500000
31
0.0
0
LINE
8
HIDDEN
10
92.219639
20
82.500000
30
0.0
11
91.469266
21
82.500000
31
0.0
0
LINE
8
HIDDEN
10
89.304482
20
82.500000
30
0.0
11
89.674122
21
82.500000
31
0.0
0
LINE
8
HIDDEN
10
93.000000
20
82.500000
30
0.0
11
92.219639
21
82.500000
31
0.0
0
LINE
8
HIDDEN
10
89.674122
20
82.500000
30
0.0
11
90.171573
21
82.500000
31
0.0
0
LINE
8
HIDDEN
10
97.000000
20
82.500000
30
0.0
11
93.000000
21
82.500000
31
0.0
0
LINE
8
HIDDEN
10
90.171573
20
82.500000
30
0.0
11
90.777719
21
82.500000
31
0.0
0
LINE
8
HIDDEN
10
97.780361
20
82.500000
30
0.0
11
97.000000
21
82.500000
31
0.0
0
LINE
8
HIDDEN
10
90.777719
20
82.500000
30
0.0
11
91.469266
21
82.500000
31
0.0
0
LINE
8
HIDDEN
10
98.530734
20
82.500000
30
0.0
11
97.780361
21
82.500000
31
0.0
0
LINE
8
HIDDEN
10
91.469266
20
82.500000
30
0.0
11
92.219639
21
82.500000
31
0.0
0
LINE
8
HIDDEN
10
99.222281
20
82.500000
30
0.0
11
98.530734
21
82.500000
31
0.0
0
LINE
8
HIDDEN
10
92.219639
20
82.500000
30
0.0
11
93.000000
21
82.500000
31
0.0
0
LINE
8
HIDDEN
10
99.828427
20
82.500000
30
0.0
11
99.222281
21
82.500000
31
0.0
0
LINE
8
HIDDEN
10
93.000000
20
82.500000
30
0.0
11
97.000000
21
82.500000
31
0.0
0
LINE
8
HIDDEN
10
100.325878
20
82.500000
30
0.0
11
99.828427
21
82.500000
31
0.0
0
LINE
8
HIDDEN
10
97.000000
20
82.500000
30
0.0
11
97.780361
21
82.500000
31
0.0
0
LINE
8
HIDDEN
10
100.695518
20
82.500000
30
0.0
11
100.325878
21
82.500000
31
0.0
0
LINE
8
HIDDEN
10
97.780361
20
82.500000
30
0.0
11
98.530734
21
82.500000
31
0.0
0
LINE
8
HIDDEN
10
100.923141
20
82.500000
30
0.0
11
100.695518
21
82.500000
31
0.0
0
LINE
8
HIDDEN
10
98.530734
20
82.500000
30
0.0
11
99.222281
21
82.500000
31
0.0
0
LINE
8
HIDDEN
10
101.000000
20
82.500000
30
0.0
11
100.923141
21
82.500000
31
0.0
0
LINE
8
HIDDEN
10
99.222281
20
82.500000
30
0.0
11
99.828427
21
82.500000
31
0.0
0
LINE
8
HIDDEN
10
99.828427
20
82.500000
30
0.0
11
100.325878
21
82.500000
31
0.0
0
LINE
8
HIDDEN
10
100.923141
20
82.500000
30
0.0
11
101.000000
21
82.500000
31
0.0
0
LINE
8
HIDDEN
10
100.325878
20
82.500000
30
0.0
11
100.695518
21
82.500000
31
0.0
0
LINE
8
HIDDEN
10
100.695518
20
82.500000
30
0.0
11
100.923141
21
82.500000
31
0.0
0
LINE
8
HIDDEN
10
41.000000
20
82.500000
30
0.0
11
79.000000
21
82.500000
31
0.0
0
LINE
8
HIDDEN
10
79.000000
20
82.500000
30
0.0
11
41.000000
21
82.500000
31
0.0
0
LINE
8
HIDDEN
10
143.700000
20
82.500000
30
0.0
11
148.300000
21
82.500000
31
0.0
0
LINE
8
HIDDEN
10
148.300000
20
82.500000
30
0.0
11
143.700000
21
82.500000
31
0.0
0
LINE
8
HIDDEN
10
111.700000
20
82.500000
30
0.0
11
116.300000
21
82.500000
31
0.0
0
LINE
8
HIDDEN
10
116.300000
20
82.500000
30
0.0
11
111.700000
21
82.500000
31
0.0
0
LINE
8
HIDDEN
10
73.700000
20
82.500000
30
0.0
11
78.300000
21
82.500000
31
0.0
0
LINE
8
HIDDEN
10
78.300000
20
82.500000
30
0.0
11
73.700000
21
82.500000
31
0.0
0
LINE
8
HIDDEN
10
41.700000
20
82.500000
30
0.0
11
46.300000
21
82.500000
31
0.0
0
LINE
8
HIDDEN
10
46.300000
20
82.500000
30
0.0
11
41.700000
21
82.500000
31
0.0
0
LINE
8
HIDDEN
10
111.000000
20
80.500000
30
0.0
11
111.000000
21
82.500000
31
0.0
0
LINE
8
HIDDEN
10
89.304482
20
80.500000
30
0.0
11
89.304482
21
82.500000
31
0.0
0
LINE
8
HIDDEN
10
89.076859
20
80.500000
30
0.0
11
89.076859
21
82.500000
31
0.0
0
LINE
8
HIDDEN
10
89.674122
20
80.500000
30
0.0
11
89.674122
21
82.500000
31
0.0
0
LINE
8
HIDDEN
10
90.171573
20
80.500000
30
0.0
11
90.171573
21
82.500000
31
0.0
0
LINE
8
HIDDEN
10
90.777719
20
80.500000
30
0.0
11
90.777719
21
82.500000
31
0.0
0
LINE
8
HIDDEN
10
91.469266
20
80.500000
30
0.0
11
91.469266
21
82.500000
31
0.0
0
LINE
8
HIDDEN
10
92.219639
20
80.500000
30
0.0
11
92.219639
21
82.500000
31
0.0
0
LINE
8
HIDDEN
10
93.000000
20
80.500000
30
0.0
11
93.000000
21
82.500000
31
0.0
0
LINE
8
HIDDEN
10
97.000000
20
80.500000
30
0.0
11
97.000000
21
82.500000
31
0.0
0
LINE
8
HIDDEN
10
97.780361
20
80.500000
30
0.0
11
97.780361
21
82.500000
31
0.0
0
LINE
8
HIDDEN
10
98.530734
20
80.500000
30
0.0
11
98.530734
21
82.500000
31
0.0
0
LINE
8
HIDDEN
10
99.222281
20
80.500000
30
0.0
11
99.222281
21
82.500000
31
0.0
0
LINE
8
HIDDEN
10
99.828427
20
80.500000
30
0.0
11
99.828427
21
82.500000
31
0.0
0
LINE
8
HIDDEN
10
100.325878
20
80.500000
30
0.0
11
100.325878
21
82.500000
31
0.0
0
LINE
8
HIDDEN
10
100.695518
20
80.500000
30
0.0
11
100.695518
21
82.500000
31
0.0
0
LINE
8
HIDDEN
10
100.923141
20
80.500000
30
0.0
11
100.923141
21
82.500000
31
0.0
0
LINE
8
HIDDEN
10
101.000000
20
80.500000
30
0.0
11
101.000000
21
82.500000
31
0.0
0
LINE
8
HIDDEN
10
101.000000
20
80.500000
30
0.0
11
101.000000
21
82.500000
31
0.0
0
LINE
8
HIDDEN
10
100.923141
20
80.500000
30
0.0
11
100.923141
21
82.500000
31
0.0
0
LINE
8
HIDDEN
10
100.695518
20
80.500000
30
0.0
11
100.695518
21
82.500000
31
0.0
0
LINE
8
HIDDEN
10
100.325878
20
80.500000
30
0.0
11
100.325878
21
82.500000
31
0.0
0
LINE
8
HIDDEN
10
99.828427
20
80.500000
30
0.0
11
99.828427
21
82.500000
31
0.0
0
LINE
8
HIDDEN
10
99.222281
20
80.500000
30
0.0
11
99.222281
21
82.500000
31
0.0
0
LINE
8
HIDDEN
10
98.530734
20
80.500000
30
0.0
11
98.530734
21
82.500000
31
0.0
0
LINE
8
HIDDEN
10
97.780361
20
80.500000
30
0.0
11
97.780361
21
82.500000
31
0.0
0
LINE
8
HIDDEN
10
97.000000
20
80.500000
30
0.0
11
97.000000
21
82.500000
31
0.0
0
LINE
8
HIDDEN
10
93.000000
20
80.500000
30
0.0
11
93.000000
21
82.500000
31
0.0
0
LINE
8
HIDDEN
10
92.219639
20
80.500000
30
0.0
11
92.219639
21
82.500000
31
0.0
0
LINE
8
HIDDEN
10
91.469266
20
80.500000
30
0.0
11
91.469266
21
82.500000
31
0.0
0
LINE
8
HIDDEN
10
90.777719
20
80.500000
30
0.0
11
90.777719
21
82.500000
31
0.0
0
LINE
8
HIDDEN
10
90.171573
20
80.500000
30
0.0
11
90.171573
21
82.500000
31
0.0
0
LINE
8
HIDDEN
10
89.674122
20
80.500000
30
0.0
11
89.674122
21
82.500000
31
0.0
0
LINE
8
HIDDEN
10
89.304482
20
80.500000
30
0.0
11
89.304482
21
82.500000
31
0.0
0
LINE
8
HIDDEN
10
89.076859
20
80.500000
30
0.0
11
89.076859
21
82.500000
31
0.0
0
LINE
8
HIDDEN
10
89.000000
20
80.500000
30
0.0
11
89.000000
21
82.500000
31
0.0
0
LINE
8
HIDDEN
10
89.000000
20
80.500000
30
0.0
11
89.000000
21
82.500000
31
0.0
0
LINE
8
HIDDEN
10
41.000000
20
80.500000
30
0.0
11
41.000000
21
82.500000
31
0.0
0
LINE
8
HIDDEN
10
143.700000
20
80.500000
30
0.0
11
143.700000
21
82.500000
31
0.0
0
LINE
8
HIDDEN
10
111.700000
20
80.500000
30
0.0
11
111.700000
21
82.500000
31
0.0
0
LINE
8
HIDDEN
10
73.700000
20
80.500000
30
0.0
11
73.700000
21
82.500000
31
0.0
0
LINE
8
HIDDEN
10
41.700000
20
80.500000
30
0.0
11
41.700000
21
82.500000
31
0.0
0
LINE
8
HIDDEN
10
149.000000
20
80.500000
30
0.0
11
149.000000
21
82.500000
31
0.0
0
LINE
8
HIDDEN
10
79.000000
20
80.500000
30
0.0
11
79.000000
21
82.500000
31
0.0
0
LINE
8
HIDDEN
10
148.300000
20
80.500000
30
0.0
11
148.300000
21
82.500000
31
0.0
0
LINE
8
HIDDEN
10
116.300000
20
80.500000
30
0.0
11
116.300000
21
82.500000
31
0.0
0
LINE
8
HIDDEN
10
78.300000
20
80.500000
30
0.0
11
78.300000
21
82.500000
31
0.0
0
LINE
8
HIDDEN
10
46.300000
20
80.500000
30
0.0
11
46.300000
21
82.500000
31
0.0
0
LINE
8
VISIBLE
10
190.076859
20
177.500000
30
0.0
11
190.000000
21
177.500000
31
0.0
0
LINE
8
VISIBLE
10
190.304482
20
177.500000
30
0.0
11
190.076859
21
177.500000
31
0.0
0
LINE
8
VISIBLE
10
190.674122
20
177.500000
30
0.0
11
190.304482
21
177.500000
31
0.0
0
LINE
8
VISIBLE
10
191.171573
20
177.500000
30
0.0
11
190.674122
21
177.500000
31
0.0
0
LINE
8
VISIBLE
10
191.777719
20
177.500000
30
0.0
11
191.171573
21
177.500000
31
0.0
0
LINE
8
VISIBLE
10
192.469266
20
177.500000
30
0.0
11
191.777719
21
177.500000
31
0.0
0
LINE
8
VISIBLE
10
193.219639
20
177.500000
30
0.0
11
192.469266
21
177.500000
31
0.0
0
LINE
8
VISIBLE
10
194.000000
20
177.500000
30
0.0
11
193.219639
21
177.500000
31
0.0
0
LINE
8
VISIBLE
10
300.000000
20
177.500000
30
0.0
11
194.000000
21
177.500000
31
0.0
0
LINE
8
VISIBLE
10
300.780361
20
177.500000
30
0.0
11
300.000000
21
177.500000
31
0.0
0
LINE
8
VISIBLE
10
301.530734
20
177.500000
30
0.0
11
300.780361
21
177.500000
31
0.0
0
LINE
8
VISIBLE
10
302.222281
20
177.500000
30
0.0
11
301.530734
21
177.500000
31
0.0
0
LINE
8
VISIBLE
10
302.828427
20
177.500000
30
0.0
11
302.222281
21
177.500000
31
0.0
0
LINE
8
VISIBLE
10
303.325878
20
177.500000
30
0.0
11
302.828427
21
177.500000
31
0.0
0
LINE
8
VISIBLE
10
303.695518
20
177.500000
30
0.0
11
303.325878
21
177.500000
31
0.0
0
LINE
8
VISIBLE
10
303.923141
20
177.500000
30
0.0
11
303.695518
21
177.500000
31
0.0
0
LINE
8
VISIBLE
10
304.000000
20
177.500000
30
0.0
11
303.923141
21
177.500000
31
0.0
0
LINE
8
VISIBLE
10
190.076859
20
179.500000
30
0.0
11
190.000000
21
179.500000
31
0.0
0
LINE
8
VISIBLE
10
190.304482
20
179.500000
30
0.0
11
190.076859
21
179.500000
31
0.0
0
LINE
8
VISIBLE
10
190.674122
20
179.500000
30
0.0
11
190.304482
21
179.500000
31
0.0
0
LINE
8
VISIBLE
10
191.171573
20
179.500000
30
0.0
11
190.674122
21
179.500000
31
0.0
0
LINE
8
VISIBLE
10
191.777719
20
179.500000
30
0.0
11
191.171573
21
179.500000
31
0.0
0
LINE
8
VISIBLE
10
192.469266
20
179.500000
30
0.0
11
191.777719
21
179.500000
31
0.0
0
LINE
8
VISIBLE
10
193.219639
20
179.500000
30
0.0
11
192.469266
21
179.500000
31
0.0
0
LINE
8
VISIBLE
10
194.000000
20
179.500000
30
0.0
11
193.219639
21
179.500000
31
0.0
0
LINE
8
VISIBLE
10
300.000000
20
179.500000
30
0.0
11
194.000000
21
179.500000
31
0.0
0
LINE
8
VISIBLE
10
300.780361
20
179.500000
30
0.0
11
300.000000
21
179.500000
31
0.0
0
LINE
8
VISIBLE
10
301.530734
20
179.500000
30
0.0
11
300.780361
21
179.500000
31
0.0
0
LINE
8
VISIBLE
10
302.222281
20
179.500000
30
0.0
11
301.530734
21
179.500000
31
0.0
0
LINE
8
VISIBLE
10
302.828427
20
179.500000
30
0.0
11
302.222281
21
179.500000
31
0.0
0
LINE
8
VISIBLE
10
303.325878
20
179.500000
30
0.0
11
302.828427
21
179.500000
31
0.0
0
LINE
8
VISIBLE
10
303.695518
20
179.500000
30
0.0
11
303.325878
21
179.500000
31
0.0
0
LINE
8
VISIBLE
10
303.923141
20
179.500000
30
0.0
11
303.695518
21
179.500000
31
0.0
0
LINE
8
VISIBLE
10
304.000000
20
179.500000
30
0.0
11
303.923141
21
179.500000
31
0.0
0
LINE
8
VISIBLE
10
190.076859
20
177.500000
30
0.0
11
190.076859
21
179.500000
31
0.0
0
LINE
8
VISIBLE
10
190.304482
20
177.500000
30
0.0
11
190.304482
21
179.500000
31
0.0
0
LINE
8
VISIBLE
10
190.674122
20
177.500000
30
0.0
11
190.674122
21
179.500000
31
0.0
0
LINE
8
VISIBLE
10
191.171573
20
177.500000
30
0.0
11
191.171573
21
179.500000
31
0.0
0
LINE
8
VISIBLE
10
191.777719
20
177.500000
30
0.0
11
191.777719
21
179.500000
31
0.0
0
LINE
8
VISIBLE
10
192.469266
20
177.500000
30
0.0
11
192.469266
21
179.500000
31
0.0
0
LINE
8
VISIBLE
10
193.219639
20
177.500000
30
0.0
11
193.219639
21
179.500000
31
0.0
0
LINE
8
VISIBLE
10
194.000000
20
177.500000
30
0.0
11
194.000000
21
179.500000
31
0.0
0
LINE
8
VISIBLE
10
300.000000
20
177.500000
30
0.0
11
300.000000
21
179.500000
31
0.0
0
LINE
8
VISIBLE
10
300.780361
20
177.500000
30
0.0
11
300.780361
21
179.500000
31
0.0
0
LINE
8
VISIBLE
10
301.530734
20
177.500000
30
0.0
11
301.530734
21
179.500000
31
0.0
0
LINE
8
VISIBLE
10
302.222281
20
177.500000
30
0.0
11
302.222281
21
179.500000
31
0.0
0
LINE
8
VISIBLE
10
302.828427
20
177.500000
30
0.0
11
302.828427
21
179.500000
31
0.0
0
LINE
8
VISIBLE
10
303.325878
20
177.500000
30
0.0
11
303.325878
21
179.500000
31
0.0
0
LINE
8
VISIBLE
10
303.695518
20
177.500000
30
0.0
11
303.695518
21
179.500000
31
0.0
0
LINE
8
VISIBLE
10
303.923141
20
177.500000
30
0.0
11
303.923141
21
179.500000
31
0.0
0
LINE
8
VISIBLE
10
296.201045
20
179.500000
30
0.0
11
296.410000
21
183.500000
31
0.0
0
LINE
8
VISIBLE
10
299.590000
20
183.500000
30
0.0
11
296.410000
21
183.500000
31
0.0
0
LINE
8
VISIBLE
10
264.201045
20
179.500000
30
0.0
11
264.410000
21
183.500000
31
0.0
0
LINE
8
VISIBLE
10
267.590000
20
183.500000
30
0.0
11
264.410000
21
183.500000
31
0.0
0
LINE
8
VISIBLE
10
226.201045
20
179.500000
30
0.0
11
226.410000
21
183.500000
31
0.0
0
LINE
8
VISIBLE
10
229.590000
20
183.500000
30
0.0
11
226.410000
21
183.500000
31
0.0
0
LINE
8
VISIBLE
10
194.201045
20
179.500000
30
0.0
11
194.410000
21
183.500000
31
0.0
0
LINE
8
VISIBLE
10
197.590000
20
183.500000
30
0.0
11
194.410000
21
183.500000
31
0.0
0
LINE
8
VISIBLE
10
299.590000
20
183.500000
30
0.0
11
299.798955
21
179.500000
31
0.0
0
LINE
8
VISIBLE
10
267.590000
20
183.500000
30
0.0
11
267.798955
21
179.500000
31
0.0
0
LINE
8
VISIBLE
10
229.590000
20
183.500000
30
0.0
11
229.798955
21
179.500000
31
0.0
0
LINE
8
VISIBLE
10
197.590000
20
183.500000
30
0.0
11
197.798955
21
179.500000
31
0.0
0
LINE
8
SECTION
10
190.000000
20
177.500000
30
0.0
11
193.700000
21
177.500000
31
0.0
0
LINE
8
SECTION
10
190.000000
20
179.500000
30
0.0
11
190.000000
21
177.500000
31
0.0
0
LINE
8
SECTION
10
190.000000
20
179.500000
30
0.0
11
193.700000
21
179.500000
31
0.0
0
LINE
8
SECTION
10
193.700000
20
177.500000
30
0.0
11
193.700000
21
179.500000
31
0.0
0
LINE
8
SECTION
10
300.300000
20
177.500000
30
0.0
11
300.300000
21
179.500000
31
0.0
0
LINE
8
SECTION
10
300.300000
20
179.500000
30
0.0
11
304.000000
21
179.500000
31
0.0
0
LINE
8
SECTION
10
304.000000
20
177.500000
30
0.0
11
304.000000
21
179.500000
31
0.0
0
LINE
8
SECTION
10
300.300000
20
177.500000
30
0.0
11
304.000000
21
177.500000
31
0.0
0
LINE
8
SECTION
10
268.300000
20
177.500000
30
0.0
11
295.700000
21
177.500000
31
0.0
0
LINE
8
SECTION
10
268.300000
20
177.500000
30
0.0
11
268.300000
21
179.500000
31
0.0
0
LINE
8
SECTION
10
268.300000
20
179.500000
30
0.0
11
295.700000
21
179.500000
31
0.0
0
LINE
8
SECTION
10
295.700000
20
177.500000
30
0.0
11
295.700000
21
179.500000
31
0.0
0
LINE
8
SECTION
10
230.300000
20
177.500000
30
0.0
11
263.700000
21
177.500000
31
0.0
0
LINE
8
SECTION
10
230.300000
20
177.500000
30
0.0
11
230.300000
21
179.500000
31
0.0
0
LINE
8
SECTION
10
230.300000
20
179.500000
30
0.0
11
263.700000
21
179.500000
31
0.0
0
LINE
8
SECTION
10
263.700000
20
177.500000
30
0.0
11
263.700000
21
179.500000
31
0.0
0
LINE
8
SECTION
10
198.300000
20
177.500000
30
0.0
11
225.700000
21
177.500000
31
0.0
0
LINE
8
SECTION
10
198.300000
20
177.500000
30
0.0
11
198.300000
21
179.500000
31
0.0
0
LINE
8
SECTION
10
198.300000
20
179.500000
30
0.0
11
225.700000
21
179.500000
31
0.0
0
LINE
8
SECTION
10
225.700000
20
177.500000
30
0.0
11
225.700000
21
179.500000
31
0.0
0
LINE
8
CENTER
10
40.100000
20
211.500000
30
0.0
11
43.195000
21
211.500000
31
0.0
0
LINE
8
CENTER
10
44.805000
20
211.500000
30
0.0
11
47.900000
21
211.500000
31
0.0
0
LINE
8
CENTER
10
44.000000
20
207.600000
30
0.0
11
44.000000
21
210.695000
31
0.0
0
LINE
8
CENTER
10
44.000000
20
212.305000
30
0.0
11
44.000000
21
215.400000
31
0.0
0
LINE
8
CENTER
10
72.100000
20
211.500000
30
0.0
11
75.195000
21
211.500000
31
0.0
0
LINE
8
CENTER
10
76.805000
20
211.500000
30
0.0
11
79.900000
21
211.500000
31
0.0
0
LINE
8
CENTER
10
76.000000
20
207.600000
30
0.0
11
76.000000
21
210.695000
31
0.0
0
LINE
8
CENTER
10
76.000000
20
212.305000
30
0.0
11
76.000000
21
215.400000
31
0.0
0
LINE
8
CENTER
10
110.100000
20
211.500000
30
0.0
11
113.195000
21
211.500000
31
0.0
0
LINE
8
CENTER
10
114.805000
20
211.500000
30
0.0
11
117.900000
21
211.500000
31
0.0
0
LINE
8
CENTER
10
114.000000
20
207.600000
30
0.0
11
114.000000
21
210.695000
31
0.0
0
LINE
8
CENTER
10
114.000000
20
212.305000
30
0.0
11
114.000000
21
215.400000
31
0.0
0
LINE
8
CENTER
10
142.100000
20
211.500000
30
0.0
11
145.195000
21
211.500000
31
0.0
0
LINE
8
CENTER
10
146.805000
20
211.500000
30
0.0
11
149.900000
21
211.500000
31
0.0
0
LINE
8
CENTER
10
146.000000
20
207.600000
30
0.0
11
146.000000
21
210.695000
31
0.0
0
LINE
8
CENTER
10
146.000000
20
212.305000
30
0.0
11
146.000000
21
215.400000
31
0.0
0
LINE
8
CENTER
10
39.400000
20
166.500000
30
0.0
11
58.800000
21
166.500000
31
0.0
0
LINE
8
CENTER
10
61.200000
20
166.500000
30
0.0
11
80.600000
21
166.500000
31
0.0
0
LINE
8
CENTER
10
60.000000
20
145.900000
30
0.0
11
60.000000
21
165.300000
31
0.0
0
LINE
8
CENTER
10
60.000000
20
167.700000
30
0.0
11
60.000000
21
187.100000
31
0.0
0
LINE
8
CENTER
10
109.400000
20
166.500000
30
0.0
11
128.800000
21
166.500000
31
0.0
0
LINE
8
CENTER
10
131.200000
20
166.500000
30
0.0
11
150.600000
21
166.500000
31
0.0
0
LINE
8
CENTER
10
130.000000
20
145.900000
30
0.0
11
130.000000
21
165.300000
31
0.0
0
LINE
8
CENTER
10
130.000000
20
167.700000
30
0.0
11
130.000000
21
187.100000
31
0.0
0
LINE
8
DIM
10
38.000000
20
143.300000
30
0.0
11
38.000000
21
121.500000
31
0.0
0
LINE
8
DIM
10
152.000000
20
143.300000
30
0.0
11
152.000000
21
121.500000
31
0.0
0
LINE
8
DIM
10
38.000000
20
123.500000
30
0.0
11
152.000000
21
123.500000
31
0.0
0
SOLID
8
DIM
10
38.000000
20
123.500000
30
0.0
11
41.200000
21
122.892000
31
0.0
12
41.200000
22
124.108000
32
0.0
13
41.200000
23
124.108000
33
0.0
0
SOLID
8
DIM
10
152.000000
20
123.500000
30
0.0
11
148.800000
21
124.108000
31
0.0
12
148.800000
22
122.892000
32
0.0
13
148.800000
23
122.892000
33
0.0
0
TEXT
8
TEXT
10
95.000000
20
124.500000
30
0.0
40
2.5000
1
57.00
72
1
73
0
11
95.000000
21
124.500000
31
0.0
0
LINE
8
DIM
10
36.800000
20
144.500000
30
0.0
11
15.000000
21
144.500000
31
0.0
0
LINE
8
DIM
10
36.800000
20
216.500000
30
0.0
11
15.000000
21
216.500000
31
0.0
0
LINE
8
DIM
10
17.000000
20
144.500000
30
0.0
11
17.000000
21
216.500000
31
0.0
0
SOLID
8
DIM
10
17.000000
20
144.500000
30
0.0
11
17.608000
21
147.700000
31
0.0
12
16.392000
22
147.700000
32
0.0
13
16.392000
23
147.700000
33
0.0
0
SOLID
8
DIM
10
17.000000
20
216.500000
30
0.0
11
16.392000
21
213.300000
31
0.0
12
17.608000
22
213.300000
32
0.0
13
17.608000
23
213.300000
33
0.0
0
TEXT
8
TEXT
10
16.000000
20
180.500000
30
0.0
40
2.5000
1
36.00
50
90.0000
72
1
73
0
11
16.000000
21
180.500000
31
0.0
0
SOLID
8
DIM
10
45.416021
20
213.312425
30
0.0
11
47.865249
21
215.459737
31
0.0
12
46.907028
22
216.208381
32
0.0
13
46.907028
23
216.208381
33
0.0
0
LINE
8
DIM
10
45.416021
20
213.312425
30
0.0
11
53.375428
21
223.500000
31
0.0
0
LINE
8
DIM
10
53.375428
20
223.500000
30
0.0
11
58.375428
21
223.500000
31
0.0
0
TEXT
8
TEXT
10
59.175428
20
224.500000
30
0.0
40
2.5000
1
4x Ø2.30 THRU
0
SOLID
8
DIM
10
71.697568
20
181.472204
30
0.0
11
74.146795
21
183.619517
31
0.0
12
73.188574
22
184.368161
32
0.0
13
73.188574
23
184.368161
33
0.0
0
LINE
8
DIM
10
71.697568
20
181.472204
30
0.0
11
109.318655
21
229.625000
31
0.0
0
LINE
8
DIM
10
109.318655
20
229.625000
30
0.0
11
114.318655
21
229.625000
31
0.0
0
TEXT
8
TEXT
10
115.118655
20
230.625000
30
0.0
40
2.5000
1
2x Ø19.00 THRU
0
LINE
8
DIM
10
60.000000
20
165.300000
30
0.0
11
60.000000
21
114.500000
31
0.0
0
LINE
8
DIM
10
130.000000
20
165.300000
30
0.0
11
130.000000
21
114.500000
31
0.0
0
LINE
8
DIM
10
60.000000
20
116.500000
30
0.0
11
130.000000
21
116.500000
31
0.0
0
SOLID
8
DIM
10
60.000000
20
116.500000
30
0.0
11
63.200000
21
115.892000
31
0.0
12
63.200000
22
117.108000
32
0.0
13
63.200000
23
117.108000
33
0.0
0
SOLID
8
DIM
10
130.000000
20
116.500000
30
0.0
11
126.800000
21
117.108000
31
0.0
12
126.800000
22
115.892000
32
0.0
13
126.800000
23
115.892000
33
0.0
0
TEXT
8
TEXT
10
95.000000
20
117.500000
30
0.0
40
2.5000
1
35.00
72
1
73
0
11
95.000000
21
117.500000
31
0.0
0
TEXT
8
TEXT
10
95.000000
20
104.500000
30
0.0
40
4.0000
1
TOP VIEW
72
1
73
0
11
95.000000
21
104.500000
31
0.0
0
LINE
8
TEXT
10
85.400000
20
102.900000
30
0.0
11
104.600000
21
102.900000
31
0.0
0
TEXT
8
TEXT
10
95.000000
20
98.500000
30
0.0
40
2.4000
1
X →   Y ↑
72
1
73
0
11
95.000000
21
98.500000
31
0.0
0
LINE
8
DIM
10
38.000000
20
79.300000
30
0.0
11
38.000000
21
66.500000
31
0.0
0
LINE
8
DIM
10
152.000000
20
79.300000
30
0.0
11
152.000000
21
66.500000
31
0.0
0
LINE
8
DIM
10
38.000000
20
68.500000
30
0.0
11
152.000000
21
68.500000
31
0.0
0
SOLID
8
DIM
10
38.000000
20
68.500000
30
0.0
11
41.200000
21
67.892000
31
0.0
12
41.200000
22
69.108000
32
0.0
13
41.200000
23
69.108000
33
0.0
0
SOLID
8
DIM
10
152.000000
20
68.500000
30
0.0
11
148.800000
21
69.108000
31
0.0
12
148.800000
22
67.892000
32
0.0
13
148.800000
23
67.892000
33
0.0
0
TEXT
8
TEXT
10
95.000000
20
69.500000
30
0.0
40
2.5000
1
57.00
72
1
73
0
11
95.000000
21
69.500000
31
0.0
0
LINE
8
DIM
10
36.800000
20
80.500000
30
0.0
11
24.000000
21
80.500000
31
0.0
0
LINE
8
DIM
10
36.800000
20
86.500000
30
0.0
11
24.000000
21
86.500000
31
0.0
0
LINE
8
DIM
10
26.000000
20
80.500000
30
0.0
11
26.000000
21
86.500000
31
0.0
0
SOLID
8
DIM
10
26.000000
20
80.500000
30
0.0
11
25.392000
21
77.300000
31
0.0
12
26.608000
22
77.300000
32
0.0
13
26.608000
23
77.300000
33
0.0
0
SOLID
8
DIM
10
26.000000
20
86.500000
30
0.0
11
26.608000
21
89.700000
31
0.0
12
25.392000
22
89.700000
32
0.0
13
25.392000
23
89.700000
33
0.0
0
LINE
8
DIM
10
26.000000
20
86.500000
30
0.0
11
26.000000
21
96.100000
31
0.0
0
TEXT
8
TEXT
10
25.000000
20
96.900000
30
0.0
40
2.5000
1
3.00
50
90.0000
0
TEXT
8
TEXT
10
95.000000
20
56.500000
30
0.0
40
4.0000
1
FRONT VIEW
72
1
73
0
11
95.000000
21
56.500000
31
0.0
0
LINE
8
TEXT
10
83.000000
20
54.900000
30
0.0
11
107.000000
21
54.900000
31
0.0
0
TEXT
8
TEXT
10
95.000000
20
50.500000
30
0.0
40
2.4000
1
-X →   Z ↑
72
1
73
0
11
95.000000
21
50.500000
31
0.0
0
LINE
8
DIM
10
190.000000
20
176.300000
30
0.0
11
190.000000
21
163.500000
31
0.0
0
LINE
8
DIM
10
304.000000
20
176.300000
30
0.0
11
304.000000
21
163.500000
31
0.0
0
LINE
8
DIM
10
190.000000
20
165.500000
30
0.0
11
304.000000
21
165.500000
31
0.0
0
SOLID
8
DIM
10
190.000000
20
165.500000
30
0.0
11
193.200000
21
164.892000
31
0.0
12
193.200000
22
166.108000
32
0.0
13
193.200000
23
166.108000
33
0.0
0
SOLID
8
DIM
10
304.000000
20
165.500000
30
0.0
11
300.800000
21
166.108000
31
0.0
12
300.800000
22
164.892000
32
0.0
13
300.800000
23
164.892000
33
0.0
0
TEXT
8
TEXT
10
247.000000
20
166.500000
30
0.0
40
2.5000
1
57.00
72
1
73
0
11
247.000000
21
166.500000
31
0.0
0
LINE
8
DIM
10
188.800000
20
177.500000
30
0.0
11
176.000000
21
177.500000
31
0.0
0
LINE
8
DIM
10
188.800000
20
183.500000
30
0.0
11
176.000000
21
183.500000
31
0.0
0
LINE
8
DIM
10
178.000000
20
177.500000
30
0.0
11
178.000000
21
183.500000
31
0.0
0
SOLID
8
DIM
10
178.000000
20
177.500000
30
0.0
11
177.392000
21
174.300000
31
0.0
12
178.608000
22
174.300000
32
0.0
13
178.608000
23
174.300000
33
0.0
0
SOLID
8
DIM
10
178.000000
20
183.500000
30
0.0
11
178.608000
21
186.700000
31
0.0
12
177.392000
22
186.700000
32
0.0
13
177.392000
23
186.700000
33
0.0
0
LINE
8
DIM
10
178.000000
20
183.500000
30
0.0
11
178.000000
21
193.100000
31
0.0
0
TEXT
8
TEXT
10
177.000000
20
193.900000
30
0.0
40
2.5000
1
3.00
50
90.0000
0
LINE
8
HATCH
10
193.699997
20
177.500000
30
0.0
11
193.700000
21
177.500003
31
0.0
0
LINE
8
HATCH
10
190.000000
20
178.042644
30
0.0
11
191.457356
21
179.500000
31
0.0
0
LINE
8
HATCH
10
303.999997
20
177.500000
30
0.0
11
304.000000
21
177.500003
31
0.0
0
LINE
8
HATCH
10
300.300000
20
178.042644
30
0.0
11
301.757356
21
179.500000
31
0.0
0
LINE
8
HATCH
10
295.699997
20
177.500000
30
0.0
11
295.700000
21
177.500003
31
0.0
0
LINE
8
HATCH
10
291.457356
20
177.500000
30
0.0
11
293.457356
21
179.500000
31
0.0
0
LINE
8
HATCH
10
287.214716
20
177.500000
30
0.0
11
289.214716
21
179.500000
31
0.0
0
LINE
8
HATCH
10
282.972075
20
177.500000
30
0.0
11
284.972075
21
179.500000
31
0.0
0
LINE
8
HATCH
10
278.729434
20
177.500000
30
0.0
11
280.729434
21
179.500000
31
0.0
0
LINE
8
HATCH
10
274.486794
20
177.500000
30
0.0
11
276.486794
21
179.500000
31
0.0
0
LINE
8
HATCH
10
270.244153
20
177.500000
30
0.0
11
272.244153
21
179.500000
31
0.0
0
LINE
8
HATCH
10
263.699997
20
177.500000
30
0.0
11
263.700000
21
177.500003
31
0.0
0
LINE
8
HATCH
10
259.457356
20
177.500000
30
0.0
11
261.457356
21
179.500000
31
0.0
0
LINE
8
HATCH
10
255.214716
20
177.500000
30
0.0
11
257.214716
21
179.500000
31
0.0
0
LINE
8
HATCH
10
250.972075
20
177.500000
30
0.0
11
252.972075
21
179.500000
31
0.0
0
LINE
8
HATCH
10
246.729434
20
177.500000
30
0.0
11
248.729434
21
179.500000
31
0.0
0
LINE
8
HATCH
10
242.486794
20
177.500000
30
0.0
11
244.486794
21
179.500000
31
0.0
0
LINE
8
HATCH
10
238.244153
20
177.500000
30
0.0
11
240.244153
21
179.500000
31
0.0
0
LINE
8
HATCH
10
234.001512
20
177.500000
30
0.0
11
236.001512
21
179.500000
31
0.0
0
LINE
8
HATCH
10
230.300000
20
178.041128
30
0.0
11
231.758872
21
179.500000
31
0.0
0
LINE
8
HATCH
10
225.699997
20
177.500000
30
0.0
11
225.700000
21
177.500003
31
0.0
0
LINE
8
HATCH
10
221.457356
20
177.500000
30
0.0
11
223.457356
21
179.500000
31
0.0
0
LINE
8
HATCH
10
217.214716
20
177.500000
30
0.0
11
219.214716
21
179.500000
31
0.0
0
LINE
8
HATCH
10
212.972075
20
177.500000
30
0.0
11
214.972075
21
179.500000
31
0.0
0
LINE
8
HATCH
10
208.729434
20
177.500000
30
0.0
11
210.729434
21
179.500000
31
0.0
0
LINE
8
HATCH
10
204.486794
20
177.500000
30
0.0
11
206.486794
21
179.500000
31
0.0
0
LINE
8
HATCH
10
200.244153
20
177.500000
30
0.0
11
202.244153
21
179.500000
31
0.0
0
LINE
8
DIM
10
304.249998
20
177.500000
30
0.0
11
315.000000
21
177.500000
31
0.0
0
LINE
8
DIM
10
304.249998
20
179.500000
30
0.0
11
315.000000
21
179.500000
31
0.0
0
LINE
8
DIM
10
313.000000
20
177.500000
30
0.0
11
313.000000
21
179.500000
31
0.0
0
SOLID
8
DIM
10
313.000000
20
177.500000
30
0.0
11
312.392000
21
174.300000
31
0.0
12
313.608000
22
174.300000
32
0.0
13
313.608000
23
174.300000
33
0.0
0
SOLID
8
DIM
10
313.000000
20
179.500000
30
0.0
11
313.608000
21
182.700000
31
0.0
12
312.392000
22
182.700000
32
0.0
13
312.392000
23
182.700000
33
0.0
0
LINE
8
DIM
10
313.000000
20
179.500000
30
0.0
11
313.000000
21
189.100000
31
0.0
0
TEXT
8
TEXT
10
312.000000
20
189.900000
30
0.0
40
2.5000
1
1.00 WALL
50
90.0000
0
LINE
8
DIM
10
190.000000
20
178.716669
30
0.0
11
190.000000
21
192.500000
31
0.0
0
LINE
8
DIM
10
193.700000
20
178.716669
30
0.0
11
193.700000
21
192.500000
31
0.0
0
LINE
8
DIM
10
190.000000
20
190.500000
30
0.0
11
193.700000
21
190.500000
31
0.0
0
SOLID
8
DIM
10
190.000000
20
190.500000
30
0.0
11
186.800000
21
191.108000
31
0.0
12
186.800000
22
189.892000
32
0.0
13
186.800000
23
189.892000
33
0.0
0
SOLID
8
DIM
10
193.700000
20
190.500000
30
0.0
11
196.900000
21
189.892000
31
0.0
12
196.900000
22
191.108000
32
0.0
13
196.900000
23
191.108000
33
0.0
0
LINE
8
DIM
10
193.700000
20
190.500000
30
0.0
11
203.300000
21
190.500000
31
0.0
0
TEXT
8
TEXT
10
204.100000
20
190.900000
30
0.0
40
2.5000
1
1.85 WALL
0
TEXT
8
TEXT
10
247.000000
20
153.500000
30
0.0
40
4.0000
1
SECTION A-A
72
1
73
0
11
247.000000
21
153.500000
31
0.0
0
LINE
8
TEXT
10
233.800000
20
151.900000
30
0.0
11
260.200000
21
151.900000
31
0.0
0
LINE
8
CUT
10
29.000000
20
211.500000
30
0.0
11
43.000000
21
211.500000
31
0.0
0
LINE
8
CUTTHIN
10
43.000000
20
211.500000
30
0.0
11
147.000000
21
211.500000
31
0.0
0
LINE
8
CUT
10
147.000000
20
211.500000
30
0.0
11
161.000000
21
211.500000
31
0.0
0
LINE
8
CUT
10
29.000000
20
211.500000
30
0.0
11
29.000000
21
202.500000
31
0.0
0
SOLID
8
CUT
10
29.000000
20
202.500000
30
0.0
11
29.798000
21
206.700000
31
0.0
12
28.202000
22
206.700000
32
0.0
13
28.202000
23
206.700000
33
0.0
0
TEXT
8
TEXT
10
29.000000
20
216.500000
30
0.0
40
4.0000
1
A
72
1
73
2
11
29.000000
21
216.500000
31
0.0
0
LINE
8
CUT
10
161.000000
20
211.500000
30
0.0
11
161.000000
21
202.500000
31
0.0
0
SOLID
8
CUT
10
161.000000
20
202.500000
30
0.0
11
161.798000
21
206.700000
31
0.0
12
160.202000
22
206.700000
32
0.0
13
160.202000
23
206.700000
33
0.0
0
TEXT
8
TEXT
10
161.000000
20
216.500000
30
0.0
40
4.0000
1
A
72
1
73
2
11
161.000000
21
216.500000
31
0.0
0
TEXT
8
TEXT
10
334.000000
20
276.500000
30
0.0
40
3.0000
1
HOLE TABLE — 6 POSITIONS
0
LINE
8
TITLE
10
334.000000
20
274.000000
30
0.0
11
389.920000
21
274.000000
31
0.0
0
TEXT
8
TITLE
10
335.500000
20
271.530000
30
0.0
40
2.2000
1
TAG
0
TEXT
8
TITLE
10
342.460000
20
271.530000
30
0.0
40
2.2000
1
SIZE
0
TEXT
8
TITLE
10
359.980000
20
271.530000
30
0.0
40
2.2000
1
X
0
TEXT
8
TITLE
10
370.900000
20
271.530000
30
0.0
40
2.2000
1
Y
0
TEXT
8
TITLE
10
380.500000
20
271.530000
30
0.0
40
2.2000
1
C'BORE
0
LINE
8
TITLE
10
334.000000
20
269.930000
30
0.0
11
389.920000
21
269.930000
31
0.0
0
TEXT
8
TEXT
10
335.500000
20
267.460000
30
0.0
40
2.2000
1
A1
0
TEXT
8
TEXT
10
342.460000
20
267.460000
30
0.0
40
2.2000
1
Ø2.30 THRU
0
TEXT
8
TEXT
10
359.980000
20
267.460000
30
0.0
40
2.2000
1
-25.50
0
TEXT
8
TEXT
10
370.900000
20
267.460000
30
0.0
40
2.2000
1
20.50
0
TEXT
8
TEXT
10
380.500000
20
267.460000
30
0.0
40
2.2000
1
-
0
TEXT
8
TEXT
10
335.500000
20
263.390000
30
0.0
40
2.2000
1
A2
0
TEXT
8
TEXT
10
342.460000
20
263.390000
30
0.0
40
2.2000
1
Ø2.30 THRU
0
TEXT
8
TEXT
10
359.980000
20
263.390000
30
0.0
40
2.2000
1
-9.50
0
TEXT
8
TEXT
10
370.900000
20
263.390000
30
0.0
40
2.2000
1
20.50
0
TEXT
8
TEXT
10
380.500000
20
263.390000
30
0.0
40
2.2000
1
-
0
TEXT
8
TEXT
10
335.500000
20
259.320000
30
0.0
40
2.2000
1
A3
0
TEXT
8
TEXT
10
342.460000
20
259.320000
30
0.0
40
2.2000
1
Ø2.30 THRU
0
TEXT
8
TEXT
10
359.980000
20
259.320000
30
0.0
40
2.2000
1
9.50
0
TEXT
8
TEXT
10
370.900000
20
259.320000
30
0.0
40
2.2000
1
20.50
0
TEXT
8
TEXT
10
380.500000
20
259.320000
30
0.0
40
2.2000
1
-
0
TEXT
8
TEXT
10
335.500000
20
255.250000
30
0.0
40
2.2000
1
A4
0
TEXT
8
TEXT
10
342.460000
20
255.250000
30
0.0
40
2.2000
1
Ø2.30 THRU
0
TEXT
8
TEXT
10
359.980000
20
255.250000
30
0.0
40
2.2000
1
25.50
0
TEXT
8
TEXT
10
370.900000
20
255.250000
30
0.0
40
2.2000
1
20.50
0
TEXT
8
TEXT
10
380.500000
20
255.250000
30
0.0
40
2.2000
1
-
0
TEXT
8
TEXT
10
335.500000
20
251.180000
30
0.0
40
2.2000
1
A5
0
TEXT
8
TEXT
10
342.460000
20
251.180000
30
0.0
40
2.2000
1
Ø19.00 THRU
0
TEXT
8
TEXT
10
359.980000
20
251.180000
30
0.0
40
2.2000
1
-17.50
0
TEXT
8
TEXT
10
370.900000
20
251.180000
30
0.0
40
2.2000
1
-2.00
0
TEXT
8
TEXT
10
380.500000
20
251.180000
30
0.0
40
2.2000
1
-
0
TEXT
8
TEXT
10
335.500000
20
247.110000
30
0.0
40
2.2000
1
A6
0
TEXT
8
TEXT
10
342.460000
20
247.110000
30
0.0
40
2.2000
1
Ø19.00 THRU
0
TEXT
8
TEXT
10
359.980000
20
247.110000
30
0.0
40
2.2000
1
17.50
0
TEXT
8
TEXT
10
370.900000
20
247.110000
30
0.0
40
2.2000
1
-2.00
0
TEXT
8
TEXT
10
380.500000
20
247.110000
30
0.0
40
2.2000
1
-
0
LINE
8
TITLE
10
334.000000
20
245.510000
30
0.0
11
389.920000
21
245.510000
31
0.0
0
LINE
8
TITLE
10
340.960000
20
245.510000
30
0.0
11
340.960000
21
274.000000
31
0.0
0
LINE
8
TITLE
10
358.480000
20
245.510000
30
0.0
11
358.480000
21
274.000000
31
0.0
0
LINE
8
TITLE
10
369.400000
20
245.510000
30
0.0
11
369.400000
21
274.000000
31
0.0
0
LINE
8
TITLE
10
379.000000
20
245.510000
30
0.0
11
379.000000
21
274.000000
31
0.0
0
LINE
8
TITLE
10
389.920000
20
245.510000
30
0.0
11
389.920000
21
274.000000
31
0.0
0
LINE
8
TITLE
10
334.000000
20
245.510000
30
0.0
11
334.000000
21
274.000000
31
0.0
0
TEXT
8
TITLE
10
334.000000
20
241.510000
30
0.0
40
1.7585
1
every row measured off the solid; positions are model
0
TEXT
8
TITLE
10
334.000000
20
238.872264
30
0.0
40
1.7585
1
coordinates, mm. C'BORE side is the face it opens on.
0
TEXT
8
TEXT
10
334.000000
20
229.234528
30
0.0
40
3.0000
1
NOTES
0
TEXT
8
TEXT
10
334.000000
20
224.634528
30
0.0
40
2.4000
1
1. ALL DIMENSIONS IN mm AND DEGREES. EVERY
0
TEXT
8
TEXT
10
334.000000
20
220.914528
30
0.0
40
2.4000
1
   DIMENSION AND EVERY HOLE CALLOUT WAS MEASURED
0
TEXT
8
TEXT
10
334.000000
20
217.194528
30
0.0
40
2.4000
1
   OFF THE SOLID.
0
TEXT
8
TEXT
10
334.000000
20
213.474528
30
0.0
40
2.4000
1
2. GENERAL TOLERANCE: CANNOT DETERMINE — THIS PART
0
TEXT
8
TEXT
10
334.000000
20
209.754528
30
0.0
40
2.4000
1
   DECLARES NO PROCESS THIS REPO CAN READ.
0
TEXT
8
TEXT
10
334.000000
20
206.034528
30
0.0
40
2.4000
1
3. SECTION A-A AT Y=20.50: THINNEST MATERIAL FOUND
0
TEXT
8
TEXT
10
334.000000
20
202.314528
30
0.0
40
2.4000
1
   BY SCAN 1.00 mm, AT X=-28.02, Z=17.00.
0
LINE
8
FRAME
10
224.000000
20
10.000000
30
0.0
11
410.000000
21
10.000000
31
0.0
0
LINE
8
FRAME
10
410.000000
20
10.000000
30
0.0
11
410.000000
21
66.000000
31
0.0
0
LINE
8
FRAME
10
410.000000
20
66.000000
30
0.0
11
224.000000
21
66.000000
31
0.0
0
LINE
8
FRAME
10
224.000000
20
66.000000
30
0.0
11
224.000000
21
10.000000
31
0.0
0
LINE
8
TITLE
10
224.000000
20
53.000000
30
0.0
11
410.000000
21
53.000000
31
0.0
0
LINE
8
TITLE
10
224.000000
20
19.000000
30
0.0
11
410.000000
21
19.000000
31
0.0
0
LINE
8
TITLE
10
224.000000
20
27.500000
30
0.0
11
410.000000
21
27.500000
31
0.0
0
LINE
8
TITLE
10
224.000000
20
36.000000
30
0.0
11
410.000000
21
36.000000
31
0.0
0
LINE
8
TITLE
10
224.000000
20
44.500000
30
0.0
11
410.000000
21
44.500000
31
0.0
0
TEXT
8
TEXT
10
226.500000
20
59.500000
30
0.0
40
6.0000
1
MICRODUCK-TRUNK-BASE
72
0
73
2
11
226.500000
21
59.500000
31
0.0
0
LINE
8
TITLE
10
390.000000
20
53.000000
30
0.0
11
390.000000
21
66.000000
31
0.0
0
TEXT
8
TITLE
10
400.000000
20
63.600000
30
0.0
40
1.7000
1
REV
72
1
73
0
11
400.000000
21
63.600000
31
0.0
0
TEXT
8
TEXT
10
400.000000
20
55.000000
30
0.0
40
5.2000
1
A
72
1
73
0
11
400.000000
21
55.000000
31
0.0
0
LINE
8
TITLE
10
360.000000
20
53.000000
30
0.0
11
360.000000
21
66.000000
31
0.0
0
CIRCLE
8
TITLE
10
366.500000
20
59.500000
30
0.0
40
3.500000
0
CIRCLE
8
TITLE
10
366.500000
20
59.500000
30
0.0
40
1.960000
0
LINE
8
TITLE
10
376.300000
20
56.000000
30
0.0
11
376.300000
21
63.000000
31
0.0
0
LINE
8
TITLE
10
376.300000
20
63.000000
30
0.0
11
382.250000
21
61.460000
31
0.0
0
LINE
8
TITLE
10
382.250000
20
61.460000
30
0.0
11
382.250000
21
57.540000
31
0.0
0
LINE
8
TITLE
10
382.250000
20
57.540000
30
0.0
11
376.300000
21
56.000000
31
0.0
0
LINE
8
CENTER
10
361.500000
20
59.500000
30
0.0
11
383.750000
21
59.500000
31
0.0
0
LINE
8
TITLE
10
288.000000
20
19.000000
30
0.0
11
288.000000
21
53.000000
31
0.0
0
LINE
8
TITLE
10
352.000000
20
19.000000
30
0.0
11
352.000000
21
53.000000
31
0.0
0
TEXT
8
TITLE
10
225.600000
20
50.600000
30
0.0
40
1.7000
1
MATERIAL
0
TEXT
8
TEXT
10
225.600000
20
45.900000
30
0.0
40
2.5000
1
PLA
0
TEXT
8
TITLE
10
289.600000
20
50.600000
30
0.0
40
1.7000
1
PROCESS
0
TEXT
8
TEXT
10
289.600000
20
45.900000
30
0.0
40
2.5000
1
-
0
TEXT
8
TITLE
10
353.600000
20
50.600000
30
0.0
40
1.7000
1
SCALE
0
TEXT
8
TEXT
10
353.600000
20
45.900000
30
0.0
40
2.5000
1
2:1
0
TEXT
8
TITLE
10
225.600000
20
42.100000
30
0.0
40
1.7000
1
CATEGORY
0
TEXT
8
TEXT
10
225.600000
20
37.400000
30
0.0
40
2.5000
1
-
0
TEXT
8
TITLE
10
257.600000
20
42.100000
30
0.0
40
1.7000
1
GENERAL TOL
0
TEXT
8
TEXT
10
257.600000
20
37.400000
30
0.0
40
2.5000
1
SEE NOTES
0
LINE
8
TITLE
10
256.000000
20
36.000000
30
0.0
11
256.000000
21
44.500000
31
0.0
0
TEXT
8
TITLE
10
289.600000
20
42.100000
30
0.0
40
1.7000
1
FINISH
0
TEXT
8
TEXT
10
289.600000
20
37.400000
30
0.0
40
2.5000
1
AS PRINTED
0
TEXT
8
TITLE
10
353.600000
20
42.100000
30
0.0
40
1.7000
1
SHEET
0
TEXT
8
TEXT
10
353.600000
20
37.400000
30
0.0
40
2.5000
1
A3  1/1
0
TEXT
8
TITLE
10
225.600000
20
33.600000
30
0.0
40
1.7000
1
VOLUME (MEASURED)
0
TEXT
8
TEXT
10
225.600000
20
28.900000
30
0.0
40
2.5000
1
1.41 cm3
0
TEXT
8
TITLE
10
289.600000
20
33.600000
30
0.0
40
1.7000
1
MASS (ASSUMES PLA)
0
TEXT
8
TEXT
10
289.600000
20
28.900000
30
0.0
40
2.5000
1
1.8 g
0
TEXT
8
TITLE
10
353.600000
20
33.600000
30
0.0
40
1.7000
1
UNITS
0
TEXT
8
TEXT
10
353.600000
20
28.900000
30
0.0
40
2.5000
1
mm / deg
0
TEXT
8
TITLE
10
225.600000
20
25.100000
30
0.0
40
1.7000
1
SIZE (BBOX, MEASURED)
0
TEXT
8
TEXT
10
225.600000
20
20.400000
30
0.0
40
2.5000
1
57.00 x 36.00 x 3.00
0
TEXT
8
TITLE
10
289.600000
20
25.100000
30
0.0
40
1.7000
1
DRAWN
0
TEXT
8
TEXT
10
289.600000
20
20.400000
30
0.0
40
2.5000
1
ce-cad  2026-09-02
0
TEXT
8
TITLE
10
353.600000
20
25.100000
30
0.0
40
1.7000
1
PROJECTION
0
TEXT
8
TEXT
10
353.600000
20
20.400000
30
0.0
40
2.5000
1
THIRD ANGLE
0
TEXT
8
TITLE
10
225.600000
20
16.600000
30
0.0
40
1.7000
1
SOURCE (DESIGN FILE)
0
TEXT
8
TEXT
10
225.600000
20
11.400000
30
0.0
40
2.6000
1
ce-parts/microduck-trunk-base/current/cad/part.py
0
TEXT
8
TEXT
10
12.500000
20
280.500000
30
0.0
40
4.2000
1
microduck-trunk-base   SCALE 2:1   A3   THIRD ANGLE
0
ENDSEC
0
EOF
