0
SECTION
2
HEADER
9
$ACADVER
1
AC1009
9
$INSUNITS
70
4
9
$LTSCALE
40
1.0
9
$EXTMIN
10
0.0000
20
0.0000
30
0.0
9
$EXTMAX
10
594.0000
20
420.0000
30
0.0
0
ENDSEC
0
SECTION
2
TABLES
0
TABLE
2
LTYPE
70
4
0
LTYPE
2
CONTINUOUS
70
0
3
Solid line
72
65
73
0
40
0.0000
0
LTYPE
2
HIDDEN
70
0
3
Hidden __ __ __ __
72
65
73
2
40
3.6000
49
2.4000
49
-1.2000
0
LTYPE
2
CENTER
70
0
3
Center ____ _ ____ _
72
65
73
4
40
11.2000
49
7.0000
49
-1.4000
49
1.4000
49
-1.4000
0
LTYPE
2
PHANTOM
70
0
3
Phantom ____ _ _ ____
72
65
73
6
40
21.0000
49
11.0000
49
-2.0000
49
2.0000
49
-2.0000
49
2.0000
49
-2.0000
0
ENDTAB
0
TABLE
2
LAYER
70
12
0
LAYER
2
0
70
0
62
7
6
CONTINUOUS
0
LAYER
2
VISIBLE
70
0
62
7
6
CONTINUOUS
0
LAYER
2
SECTION
70
0
62
7
6
CONTINUOUS
0
LAYER
2
HIDDEN
70
0
62
8
6
HIDDEN
0
LAYER
2
CENTER
70
0
62
4
6
CENTER
0
LAYER
2
DIM
70
0
62
3
6
CONTINUOUS
0
LAYER
2
TEXT
70
0
62
3
6
CONTINUOUS
0
LAYER
2
HATCH
70
0
62
5
6
CONTINUOUS
0
LAYER
2
CUT
70
0
62
1
6
PHANTOM
0
LAYER
2
CUTTHIN
70
0
62
1
6
PHANTOM
0
LAYER
2
FRAME
70
0
62
7
6
CONTINUOUS
0
LAYER
2
TITLE
70
0
62
7
6
CONTINUOUS
0
ENDTAB
0
ENDSEC
0
SECTION
2
ENTITIES
0
LINE
8
TITLE
10
5.000000
20
5.000000
30
0.0
11
589.000000
21
5.000000
31
0.0
0
LINE
8
TITLE
10
589.000000
20
5.000000
30
0.0
11
589.000000
21
415.000000
31
0.0
0
LINE
8
TITLE
10
589.000000
20
415.000000
30
0.0
11
5.000000
21
415.000000
31
0.0
0
LINE
8
TITLE
10
5.000000
20
415.000000
30
0.0
11
5.000000
21
5.000000
31
0.0
0
LINE
8
FRAME
10
10.000000
20
10.000000
30
0.0
11
584.000000
21
10.000000
31
0.0
0
LINE
8
FRAME
10
584.000000
20
10.000000
30
0.0
11
584.000000
21
410.000000
31
0.0
0
LINE
8
FRAME
10
584.000000
20
410.000000
30
0.0
11
10.000000
21
410.000000
31
0.0
0
LINE
8
FRAME
10
10.000000
20
410.000000
30
0.0
11
10.000000
21
10.000000
31
0.0
0
TEXT
8
TITLE
10
67.400000
20
412.500000
30
0.0
40
2.4000
1
1
72
1
73
2
11
67.400000
21
412.500000
31
0.0
0
TEXT
8
TITLE
10
67.400000
20
7.500000
30
0.0
40
2.4000
1
1
72
1
73
2
11
67.400000
21
7.500000
31
0.0
0
TEXT
8
TITLE
10
182.200000
20
412.500000
30
0.0
40
2.4000
1
2
72
1
73
2
11
182.200000
21
412.500000
31
0.0
0
TEXT
8
TITLE
10
182.200000
20
7.500000
30
0.0
40
2.4000
1
2
72
1
73
2
11
182.200000
21
7.500000
31
0.0
0
LINE
8
TITLE
10
124.800000
20
5.000000
30
0.0
11
124.800000
21
10.000000
31
0.0
0
LINE
8
TITLE
10
124.800000
20
410.000000
30
0.0
11
124.800000
21
415.000000
31
0.0
0
TEXT
8
TITLE
10
297.000000
20
412.500000
30
0.0
40
2.4000
1
3
72
1
73
2
11
297.000000
21
412.500000
31
0.0
0
TEXT
8
TITLE
10
297.000000
20
7.500000
30
0.0
40
2.4000
1
3
72
1
73
2
11
297.000000
21
7.500000
31
0.0
0
LINE
8
TITLE
10
239.600000
20
5.000000
30
0.0
11
239.600000
21
10.000000
31
0.0
0
LINE
8
TITLE
10
239.600000
20
410.000000
30
0.0
11
239.600000
21
415.000000
31
0.0
0
TEXT
8
TITLE
10
411.800000
20
412.500000
30
0.0
40
2.4000
1
4
72
1
73
2
11
411.800000
21
412.500000
31
0.0
0
TEXT
8
TITLE
10
411.800000
20
7.500000
30
0.0
40
2.4000
1
4
72
1
73
2
11
411.800000
21
7.500000
31
0.0
0
LINE
8
TITLE
10
354.400000
20
5.000000
30
0.0
11
354.400000
21
10.000000
31
0.0
0
LINE
8
TITLE
10
354.400000
20
410.000000
30
0.0
11
354.400000
21
415.000000
31
0.0
0
TEXT
8
TITLE
10
526.600000
20
412.500000
30
0.0
40
2.4000
1
5
72
1
73
2
11
526.600000
21
412.500000
31
0.0
0
TEXT
8
TITLE
10
526.600000
20
7.500000
30
0.0
40
2.4000
1
5
72
1
73
2
11
526.600000
21
7.500000
31
0.0
0
LINE
8
TITLE
10
469.200000
20
5.000000
30
0.0
11
469.200000
21
10.000000
31
0.0
0
LINE
8
TITLE
10
469.200000
20
410.000000
30
0.0
11
469.200000
21
415.000000
31
0.0
0
TEXT
8
TITLE
10
7.500000
20
60.000000
30
0.0
40
2.4000
1
D
72
1
73
2
11
7.500000
21
60.000000
31
0.0
0
TEXT
8
TITLE
10
586.500000
20
60.000000
30
0.0
40
2.4000
1
D
72
1
73
2
11
586.500000
21
60.000000
31
0.0
0
TEXT
8
TITLE
10
7.500000
20
160.000000
30
0.0
40
2.4000
1
C
72
1
73
2
11
7.500000
21
160.000000
31
0.0
0
TEXT
8
TITLE
10
586.500000
20
160.000000
30
0.0
40
2.4000
1
C
72
1
73
2
11
586.500000
21
160.000000
31
0.0
0
LINE
8
TITLE
10
5.000000
20
110.000000
30
0.0
11
10.000000
21
110.000000
31
0.0
0
LINE
8
TITLE
10
584.000000
20
110.000000
30
0.0
11
589.000000
21
110.000000
31
0.0
0
TEXT
8
TITLE
10
7.500000
20
260.000000
30
0.0
40
2.4000
1
B
72
1
73
2
11
7.500000
21
260.000000
31
0.0
0
TEXT
8
TITLE
10
586.500000
20
260.000000
30
0.0
40
2.4000
1
B
72
1
73
2
11
586.500000
21
260.000000
31
0.0
0
LINE
8
TITLE
10
5.000000
20
210.000000
30
0.0
11
10.000000
21
210.000000
31
0.0
0
LINE
8
TITLE
10
584.000000
20
210.000000
30
0.0
11
589.000000
21
210.000000
31
0.0
0
TEXT
8
TITLE
10
7.500000
20
360.000000
30
0.0
40
2.4000
1
A
72
1
73
2
11
7.500000
21
360.000000
31
0.0
0
TEXT
8
TITLE
10
586.500000
20
360.000000
30
0.0
40
2.4000
1
A
72
1
73
2
11
586.500000
21
360.000000
31
0.0
0
LINE
8
TITLE
10
5.000000
20
310.000000
30
0.0
11
10.000000
21
310.000000
31
0.0
0
LINE
8
TITLE
10
584.000000
20
310.000000
30
0.0
11
589.000000
21
310.000000
31
0.0
0
LINE
8
VISIBLE
10
243.500000
20
256.500000
30
0.0
11
243.461571
21
256.890181
31
0.0
0
LINE
8
VISIBLE
10
243.500000
20
224.500000
30
0.0
11
243.500000
21
256.500000
31
0.0
0
LINE
8
VISIBLE
10
243.461571
20
256.890181
30
0.0
11
243.347759
21
257.265367
31
0.0
0
LINE
8
VISIBLE
10
243.461571
20
224.109819
30
0.0
11
243.500000
21
224.500000
31
0.0
0
LINE
8
VISIBLE
10
243.347759
20
257.265367
30
0.0
11
243.162939
21
257.611140
31
0.0
0
LINE
8
VISIBLE
10
243.347759
20
223.734633
30
0.0
11
243.461571
21
224.109819
31
0.0
0
LINE
8
VISIBLE
10
243.162939
20
257.611140
30
0.0
11
242.914214
21
257.914214
31
0.0
0
LINE
8
VISIBLE
10
243.162939
20
223.388860
30
0.0
11
243.347759
21
223.734633
31
0.0
0
LINE
8
VISIBLE
10
242.914214
20
257.914214
30
0.0
11
242.611140
21
258.162939
31
0.0
0
LINE
8
VISIBLE
10
242.914214
20
223.085786
30
0.0
11
243.162939
21
223.388860
31
0.0
0
LINE
8
VISIBLE
10
242.611140
20
258.162939
30
0.0
11
242.265367
21
258.347759
31
0.0
0
LINE
8
VISIBLE
10
242.611140
20
222.837061
30
0.0
11
242.914214
21
223.085786
31
0.0
0
LINE
8
VISIBLE
10
242.265367
20
258.347759
30
0.0
11
241.890181
21
258.461571
31
0.0
0
LINE
8
VISIBLE
10
242.265367
20
222.652241
30
0.0
11
242.611140
21
222.837061
31
0.0
0
LINE
8
VISIBLE
10
241.890181
20
258.461571
30
0.0
11
241.500000
21
258.500000
31
0.0
0
LINE
8
VISIBLE
10
241.890181
20
222.538429
30
0.0
11
242.265367
21
222.652241
31
0.0
0
LINE
8
VISIBLE
10
241.500000
20
258.500000
30
0.0
11
188.500000
21
258.500000
31
0.0
0
LINE
8
VISIBLE
10
241.500000
20
222.500000
30
0.0
11
241.890181
21
222.538429
31
0.0
0
LINE
8
VISIBLE
10
188.500000
20
258.500000
30
0.0
11
188.109819
21
258.461571
31
0.0
0
LINE
8
VISIBLE
10
188.500000
20
222.500000
30
0.0
11
241.500000
21
222.500000
31
0.0
0
LINE
8
VISIBLE
10
188.109819
20
258.461571
30
0.0
11
187.734633
21
258.347759
31
0.0
0
LINE
8
VISIBLE
10
188.109819
20
222.538429
30
0.0
11
188.500000
21
222.500000
31
0.0
0
LINE
8
VISIBLE
10
187.734633
20
258.347759
30
0.0
11
187.388860
21
258.162939
31
0.0
0
LINE
8
VISIBLE
10
187.734633
20
222.652241
30
0.0
11
188.109819
21
222.538429
31
0.0
0
LINE
8
VISIBLE
10
187.388860
20
258.162939
30
0.0
11
187.085786
21
257.914214
31
0.0
0
LINE
8
VISIBLE
10
187.388860
20
222.837061
30
0.0
11
187.734633
21
222.652241
31
0.0
0
LINE
8
VISIBLE
10
187.085786
20
257.914214
30
0.0
11
186.837061
21
257.611140
31
0.0
0
LINE
8
VISIBLE
10
187.085786
20
223.085786
30
0.0
11
187.388860
21
222.837061
31
0.0
0
LINE
8
VISIBLE
10
186.837061
20
257.611140
30
0.0
11
186.652241
21
257.265367
31
0.0
0
LINE
8
VISIBLE
10
186.837061
20
223.388860
30
0.0
11
187.085786
21
223.085786
31
0.0
0
LINE
8
VISIBLE
10
186.652241
20
257.265367
30
0.0
11
186.538429
21
256.890181
31
0.0
0
LINE
8
VISIBLE
10
186.652241
20
223.734633
30
0.0
11
186.837061
21
223.388860
31
0.0
0
LINE
8
VISIBLE
10
186.538429
20
256.890181
30
0.0
11
186.500000
21
256.500000
31
0.0
0
LINE
8
VISIBLE
10
186.538429
20
224.109819
30
0.0
11
186.652241
21
223.734633
31
0.0
0
LINE
8
VISIBLE
10
186.500000
20
256.500000
30
0.0
11
186.500000
21
224.500000
31
0.0
0
LINE
8
VISIBLE
10
186.500000
20
224.500000
30
0.0
11
186.538429
21
224.109819
31
0.0
0
CIRCLE
8
VISIBLE
10
197.500000
20
233.500000
30
0.0
40
9.500000
0
LINE
8
VISIBLE
10
217.847759
20
244.265367
30
0.0
11
217.961571
21
243.890181
31
0.0
0
LINE
8
VISIBLE
10
217.662939
20
244.611140
30
0.0
11
217.847759
21
244.265367
31
0.0
0
LINE
8
VISIBLE
10
217.414214
20
244.914214
30
0.0
11
217.662939
21
244.611140
31
0.0
0
LINE
8
VISIBLE
10
217.111140
20
245.162939
30
0.0
11
217.414214
21
244.914214
31
0.0
0
LINE
8
VISIBLE
10
216.765367
20
245.347759
30
0.0
11
217.111140
21
245.162939
31
0.0
0
LINE
8
VISIBLE
10
216.390181
20
245.461571
30
0.0
11
216.765367
21
245.347759
31
0.0
0
LINE
8
VISIBLE
10
216.000000
20
245.500000
30
0.0
11
216.390181
21
245.461571
31
0.0
0
LINE
8
VISIBLE
10
214.000000
20
245.500000
30
0.0
11
216.000000
21
245.500000
31
0.0
0
LINE
8
VISIBLE
10
213.609819
20
245.461571
30
0.0
11
214.000000
21
245.500000
31
0.0
0
LINE
8
VISIBLE
10
213.234633
20
245.347759
30
0.0
11
213.609819
21
245.461571
31
0.0
0
LINE
8
VISIBLE
10
212.888860
20
245.162939
30
0.0
11
213.234633
21
245.347759
31
0.0
0
LINE
8
VISIBLE
10
212.585786
20
244.914214
30
0.0
11
212.888860
21
245.162939
31
0.0
0
LINE
8
VISIBLE
10
212.337061
20
244.611140
30
0.0
11
212.585786
21
244.914214
31
0.0
0
LINE
8
VISIBLE
10
212.152241
20
244.265367
30
0.0
11
212.337061
21
244.611140
31
0.0
0
LINE
8
VISIBLE
10
212.038429
20
243.890181
30
0.0
11
212.152241
21
244.265367
31
0.0
0
LINE
8
VISIBLE
10
212.000000
20
243.500000
30
0.0
11
212.038429
21
243.890181
31
0.0
0
LINE
8
VISIBLE
10
212.000000
20
235.500000
30
0.0
11
212.000000
21
243.500000
31
0.0
0
LINE
8
VISIBLE
10
212.038429
20
235.109819
30
0.0
11
212.000000
21
235.500000
31
0.0
0
LINE
8
VISIBLE
10
212.152241
20
234.734633
30
0.0
11
212.038429
21
235.109819
31
0.0
0
LINE
8
VISIBLE
10
212.337061
20
234.388860
30
0.0
11
212.152241
21
234.734633
31
0.0
0
LINE
8
VISIBLE
10
212.585786
20
234.085786
30
0.0
11
212.337061
21
234.388860
31
0.0
0
LINE
8
VISIBLE
10
212.888860
20
233.837061
30
0.0
11
212.585786
21
234.085786
31
0.0
0
LINE
8
VISIBLE
10
213.234633
20
233.652241
30
0.0
11
212.888860
21
233.837061
31
0.0
0
LINE
8
VISIBLE
10
213.609819
20
233.538429
30
0.0
11
213.234633
21
233.652241
31
0.0
0
LINE
8
VISIBLE
10
214.000000
20
233.500000
30
0.0
11
213.609819
21
233.538429
31
0.0
0
LINE
8
VISIBLE
10
216.000000
20
233.500000
30
0.0
11
214.000000
21
233.500000
31
0.0
0
LINE
8
VISIBLE
10
216.390181
20
233.538429
30
0.0
11
216.000000
21
233.500000
31
0.0
0
LINE
8
VISIBLE
10
216.765367
20
233.652241
30
0.0
11
216.390181
21
233.538429
31
0.0
0
LINE
8
VISIBLE
10
217.111140
20
233.837061
30
0.0
11
216.765367
21
233.652241
31
0.0
0
LINE
8
VISIBLE
10
217.414214
20
234.085786
30
0.0
11
217.111140
21
233.837061
31
0.0
0
LINE
8
VISIBLE
10
217.662939
20
234.388860
30
0.0
11
217.414214
21
234.085786
31
0.0
0
LINE
8
VISIBLE
10
217.847759
20
234.734633
30
0.0
11
217.662939
21
234.388860
31
0.0
0
LINE
8
VISIBLE
10
217.961571
20
235.109819
30
0.0
11
217.847759
21
234.734633
31
0.0
0
LINE
8
VISIBLE
10
218.000000
20
235.500000
30
0.0
11
217.961571
21
235.109819
31
0.0
0
LINE
8
VISIBLE
10
218.000000
20
243.500000
30
0.0
11
218.000000
21
235.500000
31
0.0
0
LINE
8
VISIBLE
10
217.961571
20
243.890181
30
0.0
11
218.000000
21
243.500000
31
0.0
0
CIRCLE
8
VISIBLE
10
232.500000
20
233.500000
30
0.0
40
9.500000
0
CIRCLE
8
VISIBLE
10
189.500000
20
256.000000
30
0.0
40
1.150000
0
CIRCLE
8
VISIBLE
10
205.500000
20
256.000000
30
0.0
40
1.150000
0
CIRCLE
8
VISIBLE
10
224.500000
20
256.000000
30
0.0
40
1.150000
0
CIRCLE
8
VISIBLE
10
240.500000
20
256.000000
30
0.0
40
1.150000
0
LINE
8
VISIBLE
10
186.500000
20
161.500000
30
0.0
11
186.500000
21
162.500000
31
0.0
0
LINE
8
VISIBLE
10
186.538429
20
161.500000
30
0.0
11
186.500000
21
161.500000
31
0.0
0
LINE
8
VISIBLE
10
186.652241
20
161.500000
30
0.0
11
186.538429
21
161.500000
31
0.0
0
LINE
8
VISIBLE
10
186.837061
20
161.500000
30
0.0
11
186.652241
21
161.500000
31
0.0
0
LINE
8
VISIBLE
10
187.085786
20
161.500000
30
0.0
11
186.837061
21
161.500000
31
0.0
0
LINE
8
VISIBLE
10
187.388860
20
161.500000
30
0.0
11
187.085786
21
161.500000
31
0.0
0
LINE
8
VISIBLE
10
187.734633
20
161.500000
30
0.0
11
187.388860
21
161.500000
31
0.0
0
LINE
8
VISIBLE
10
188.109819
20
161.500000
30
0.0
11
187.734633
21
161.500000
31
0.0
0
LINE
8
VISIBLE
10
188.500000
20
161.500000
30
0.0
11
188.109819
21
161.500000
31
0.0
0
LINE
8
VISIBLE
10
241.500000
20
161.500000
30
0.0
11
188.500000
21
161.500000
31
0.0
0
LINE
8
VISIBLE
10
241.890181
20
161.500000
30
0.0
11
241.500000
21
161.500000
31
0.0
0
LINE
8
VISIBLE
10
242.265367
20
161.500000
30
0.0
11
241.890181
21
161.500000
31
0.0
0
LINE
8
VISIBLE
10
242.611140
20
161.500000
30
0.0
11
242.265367
21
161.500000
31
0.0
0
LINE
8
VISIBLE
10
242.914214
20
161.500000
30
0.0
11
242.611140
21
161.500000
31
0.0
0
LINE
8
VISIBLE
10
243.162939
20
161.500000
30
0.0
11
242.914214
21
161.500000
31
0.0
0
LINE
8
VISIBLE
10
243.347759
20
161.500000
30
0.0
11
243.162939
21
161.500000
31
0.0
0
LINE
8
VISIBLE
10
243.461571
20
161.500000
30
0.0
11
243.347759
21
161.500000
31
0.0
0
LINE
8
VISIBLE
10
243.500000
20
161.500000
30
0.0
11
243.461571
21
161.500000
31
0.0
0
LINE
8
VISIBLE
10
186.538429
20
162.500000
30
0.0
11
186.500000
21
162.500000
31
0.0
0
LINE
8
VISIBLE
10
186.652241
20
162.500000
30
0.0
11
186.538429
21
162.500000
31
0.0
0
LINE
8
VISIBLE
10
186.837061
20
162.500000
30
0.0
11
186.652241
21
162.500000
31
0.0
0
LINE
8
VISIBLE
10
187.085786
20
162.500000
30
0.0
11
186.837061
21
162.500000
31
0.0
0
LINE
8
VISIBLE
10
187.388860
20
162.500000
30
0.0
11
187.085786
21
162.500000
31
0.0
0
LINE
8
VISIBLE
10
187.734633
20
162.500000
30
0.0
11
187.388860
21
162.500000
31
0.0
0
LINE
8
VISIBLE
10
188.109819
20
162.500000
30
0.0
11
187.734633
21
162.500000
31
0.0
0
LINE
8
VISIBLE
10
188.500000
20
162.500000
30
0.0
11
188.109819
21
162.500000
31
0.0
0
LINE
8
VISIBLE
10
241.500000
20
162.500000
30
0.0
11
188.500000
21
162.500000
31
0.0
0
LINE
8
VISIBLE
10
241.890181
20
162.500000
30
0.0
11
241.500000
21
162.500000
31
0.0
0
LINE
8
VISIBLE
10
242.265367
20
162.500000
30
0.0
11
241.890181
21
162.500000
31
0.0
0
LINE
8
VISIBLE
10
242.611140
20
162.500000
30
0.0
11
242.265367
21
162.500000
31
0.0
0
LINE
8
VISIBLE
10
242.914214
20
162.500000
30
0.0
11
242.611140
21
162.500000
31
0.0
0
LINE
8
VISIBLE
10
243.162939
20
162.500000
30
0.0
11
242.914214
21
162.500000
31
0.0
0
LINE
8
VISIBLE
10
243.347759
20
162.500000
30
0.0
11
243.162939
21
162.500000
31
0.0
0
LINE
8
VISIBLE
10
243.461571
20
162.500000
30
0.0
11
243.347759
21
162.500000
31
0.0
0
LINE
8
VISIBLE
10
243.500000
20
162.500000
30
0.0
11
243.461571
21
162.500000
31
0.0
0
LINE
8
VISIBLE
10
186.538429
20
161.500000
30
0.0
11
186.538429
21
162.500000
31
0.0
0
LINE
8
VISIBLE
10
186.652241
20
161.500000
30
0.0
11
186.652241
21
162.500000
31
0.0
0
LINE
8
VISIBLE
10
186.837061
20
161.500000
30
0.0
11
186.837061
21
162.500000
31
0.0
0
LINE
8
VISIBLE
10
187.085786
20
161.500000
30
0.0
11
187.085786
21
162.500000
31
0.0
0
LINE
8
VISIBLE
10
187.388860
20
161.500000
30
0.0
11
187.388860
21
162.500000
31
0.0
0
LINE
8
VISIBLE
10
187.734633
20
161.500000
30
0.0
11
187.734633
21
162.500000
31
0.0
0
LINE
8
VISIBLE
10
188.109819
20
161.500000
30
0.0
11
188.109819
21
162.500000
31
0.0
0
LINE
8
VISIBLE
10
188.500000
20
161.500000
30
0.0
11
188.500000
21
162.500000
31
0.0
0
LINE
8
VISIBLE
10
241.500000
20
161.500000
30
0.0
11
241.500000
21
162.500000
31
0.0
0
LINE
8
VISIBLE
10
241.890181
20
161.500000
30
0.0
11
241.890181
21
162.500000
31
0.0
0
LINE
8
VISIBLE
10
242.265367
20
161.500000
30
0.0
11
242.265367
21
162.500000
31
0.0
0
LINE
8
VISIBLE
10
242.611140
20
161.500000
30
0.0
11
242.611140
21
162.500000
31
0.0
0
LINE
8
VISIBLE
10
242.914214
20
161.500000
30
0.0
11
242.914214
21
162.500000
31
0.0
0
LINE
8
VISIBLE
10
243.162939
20
161.500000
30
0.0
11
243.162939
21
162.500000
31
0.0
0
LINE
8
VISIBLE
10
243.347759
20
161.500000
30
0.0
11
243.347759
21
162.500000
31
0.0
0
LINE
8
VISIBLE
10
243.461571
20
161.500000
30
0.0
11
243.461571
21
162.500000
31
0.0
0
LINE
8
VISIBLE
10
243.500000
20
161.500000
30
0.0
11
243.500000
21
162.500000
31
0.0
0
LINE
8
VISIBLE
10
239.600522
20
162.500000
30
0.0
11
239.705000
21
164.500000
31
0.0
0
LINE
8
VISIBLE
10
241.295000
20
164.500000
30
0.0
11
239.705000
21
164.500000
31
0.0
0
LINE
8
VISIBLE
10
223.600522
20
162.500000
30
0.0
11
223.705000
21
164.500000
31
0.0
0
LINE
8
VISIBLE
10
225.295000
20
164.500000
30
0.0
11
223.705000
21
164.500000
31
0.0
0
LINE
8
VISIBLE
10
204.600522
20
162.500000
30
0.0
11
204.705000
21
164.500000
31
0.0
0
LINE
8
VISIBLE
10
206.295000
20
164.500000
30
0.0
11
204.705000
21
164.500000
31
0.0
0
LINE
8
VISIBLE
10
188.600522
20
162.500000
30
0.0
11
188.705000
21
164.500000
31
0.0
0
LINE
8
VISIBLE
10
190.295000
20
164.500000
30
0.0
11
188.705000
21
164.500000
31
0.0
0
LINE
8
VISIBLE
10
241.295000
20
164.500000
30
0.0
11
241.399478
21
162.500000
31
0.0
0
LINE
8
VISIBLE
10
225.295000
20
164.500000
30
0.0
11
225.399478
21
162.500000
31
0.0
0
LINE
8
VISIBLE
10
206.295000
20
164.500000
30
0.0
11
206.399478
21
162.500000
31
0.0
0
LINE
8
VISIBLE
10
190.295000
20
164.500000
30
0.0
11
190.399478
21
162.500000
31
0.0
0
LINE
8
VISIBLE
10
281.538429
20
239.000000
30
0.0
11
281.500000
21
239.000000
31
0.0
0
LINE
8
VISIBLE
10
281.652241
20
239.000000
30
0.0
11
281.538429
21
239.000000
31
0.0
0
LINE
8
VISIBLE
10
281.837061
20
239.000000
30
0.0
11
281.652241
21
239.000000
31
0.0
0
LINE
8
VISIBLE
10
282.085786
20
239.000000
30
0.0
11
281.837061
21
239.000000
31
0.0
0
LINE
8
VISIBLE
10
282.388860
20
239.000000
30
0.0
11
282.085786
21
239.000000
31
0.0
0
LINE
8
VISIBLE
10
282.734633
20
239.000000
30
0.0
11
282.388860
21
239.000000
31
0.0
0
LINE
8
VISIBLE
10
283.109819
20
239.000000
30
0.0
11
282.734633
21
239.000000
31
0.0
0
LINE
8
VISIBLE
10
283.500000
20
239.000000
30
0.0
11
283.109819
21
239.000000
31
0.0
0
LINE
8
VISIBLE
10
315.500000
20
239.000000
30
0.0
11
283.500000
21
239.000000
31
0.0
0
LINE
8
VISIBLE
10
315.890181
20
239.000000
30
0.0
11
315.500000
21
239.000000
31
0.0
0
LINE
8
VISIBLE
10
316.265367
20
239.000000
30
0.0
11
315.890181
21
239.000000
31
0.0
0
LINE
8
VISIBLE
10
316.611140
20
239.000000
30
0.0
11
316.265367
21
239.000000
31
0.0
0
LINE
8
VISIBLE
10
316.914214
20
239.000000
30
0.0
11
316.611140
21
239.000000
31
0.0
0
LINE
8
VISIBLE
10
317.162939
20
239.000000
30
0.0
11
316.914214
21
239.000000
31
0.0
0
LINE
8
VISIBLE
10
317.347759
20
239.000000
30
0.0
11
317.162939
21
239.000000
31
0.0
0
LINE
8
VISIBLE
10
317.461571
20
239.000000
30
0.0
11
317.347759
21
239.000000
31
0.0
0
LINE
8
VISIBLE
10
317.500000
20
239.000000
30
0.0
11
317.461571
21
239.000000
31
0.0
0
LINE
8
VISIBLE
10
281.538429
20
239.000000
30
0.0
11
281.538429
21
240.000000
31
0.0
0
LINE
8
VISIBLE
10
281.538429
20
240.000000
30
0.0
11
281.500000
21
240.000000
31
0.0
0
LINE
8
VISIBLE
10
281.652241
20
239.000000
30
0.0
11
281.652241
21
240.000000
31
0.0
0
LINE
8
VISIBLE
10
281.652241
20
240.000000
30
0.0
11
281.538429
21
240.000000
31
0.0
0
LINE
8
VISIBLE
10
281.837061
20
239.000000
30
0.0
11
281.837061
21
240.000000
31
0.0
0
LINE
8
VISIBLE
10
281.837061
20
240.000000
30
0.0
11
281.652241
21
240.000000
31
0.0
0
LINE
8
VISIBLE
10
282.085786
20
239.000000
30
0.0
11
282.085786
21
240.000000
31
0.0
0
LINE
8
VISIBLE
10
282.085786
20
240.000000
30
0.0
11
281.837061
21
240.000000
31
0.0
0
LINE
8
VISIBLE
10
282.388860
20
239.000000
30
0.0
11
282.388860
21
240.000000
31
0.0
0
LINE
8
VISIBLE
10
282.388860
20
240.000000
30
0.0
11
282.085786
21
240.000000
31
0.0
0
LINE
8
VISIBLE
10
282.734633
20
239.000000
30
0.0
11
282.734633
21
240.000000
31
0.0
0
LINE
8
VISIBLE
10
282.734633
20
240.000000
30
0.0
11
282.388860
21
240.000000
31
0.0
0
LINE
8
VISIBLE
10
283.109819
20
239.000000
30
0.0
11
283.109819
21
240.000000
31
0.0
0
LINE
8
VISIBLE
10
283.109819
20
240.000000
30
0.0
11
282.734633
21
240.000000
31
0.0
0
LINE
8
VISIBLE
10
283.500000
20
239.000000
30
0.0
11
283.500000
21
240.000000
31
0.0
0
LINE
8
VISIBLE
10
283.500000
20
240.000000
30
0.0
11
283.109819
21
240.000000
31
0.0
0
LINE
8
VISIBLE
10
315.500000
20
239.000000
30
0.0
11
315.500000
21
240.000000
31
0.0
0
LINE
8
VISIBLE
10
315.500000
20
240.000000
30
0.0
11
283.500000
21
240.000000
31
0.0
0
LINE
8
VISIBLE
10
315.890181
20
239.000000
30
0.0
11
315.890181
21
240.000000
31
0.0
0
LINE
8
VISIBLE
10
315.890181
20
240.000000
30
0.0
11
315.500000
21
240.000000
31
0.0
0
LINE
8
VISIBLE
10
316.265367
20
239.000000
30
0.0
11
316.265367
21
240.000000
31
0.0
0
LINE
8
VISIBLE
10
316.265367
20
240.000000
30
0.0
11
315.890181
21
240.000000
31
0.0
0
LINE
8
VISIBLE
10
316.611140
20
239.000000
30
0.0
11
316.611140
21
240.000000
31
0.0
0
LINE
8
VISIBLE
10
316.611140
20
240.000000
30
0.0
11
316.265367
21
240.000000
31
0.0
0
LINE
8
VISIBLE
10
316.914214
20
239.000000
30
0.0
11
316.914214
21
240.000000
31
0.0
0
LINE
8
VISIBLE
10
316.914214
20
240.000000
30
0.0
11
316.611140
21
240.000000
31
0.0
0
LINE
8
VISIBLE
10
317.162939
20
239.000000
30
0.0
11
317.162939
21
240.000000
31
0.0
0
LINE
8
VISIBLE
10
317.162939
20
240.000000
30
0.0
11
316.914214
21
240.000000
31
0.0
0
LINE
8
VISIBLE
10
317.347759
20
239.000000
30
0.0
11
317.347759
21
240.000000
31
0.0
0
LINE
8
VISIBLE
10
317.347759
20
240.000000
30
0.0
11
317.162939
21
240.000000
31
0.0
0
LINE
8
VISIBLE
10
317.461571
20
239.000000
30
0.0
11
317.461571
21
240.000000
31
0.0
0
LINE
8
VISIBLE
10
317.461571
20
240.000000
30
0.0
11
317.347759
21
240.000000
31
0.0
0
LINE
8
VISIBLE
10
317.500000
20
240.000000
30
0.0
11
317.461571
21
240.000000
31
0.0
0
LINE
8
VISIBLE
10
285.795000
20
242.000000
30
0.0
11
284.205000
21
242.000000
31
0.0
0
LINE
8
VISIBLE
10
284.205000
20
242.000000
30
0.0
11
284.100522
21
240.000000
31
0.0
0
LINE
8
VISIBLE
10
285.795000
20
242.000000
30
0.0
11
285.899478
21
240.000000
31
0.0
0
LINE
8
SECTION
10
302.000000
20
239.000000
30
0.0
11
302.000000
21
240.000000
31
0.0
0
LINE
8
SECTION
10
302.000000
20
240.000000
30
0.0
11
317.500000
21
240.000000
31
0.0
0
LINE
8
SECTION
10
317.500000
20
239.000000
30
0.0
11
317.500000
21
240.000000
31
0.0
0
LINE
8
SECTION
10
302.000000
20
239.000000
30
0.0
11
317.500000
21
239.000000
31
0.0
0
LINE
8
SECTION
10
281.500000
20
240.000000
30
0.0
11
281.500000
21
239.000000
31
0.0
0
LINE
8
SECTION
10
281.500000
20
240.000000
30
0.0
11
283.000000
21
240.000000
31
0.0
0
LINE
8
SECTION
10
283.000000
20
239.000000
30
0.0
11
283.000000
21
240.000000
31
0.0
0
LINE
8
SECTION
10
281.500000
20
239.000000
30
0.0
11
283.000000
21
239.000000
31
0.0
0
LINE
8
VISIBLE
10
527.693629
20
348.045460
30
0.0
11
528.081311
21
347.861769
31
0.0
0
LINE
8
VISIBLE
10
498.749320
20
364.756465
30
0.0
11
527.693629
21
348.045460
31
0.0
0
LINE
8
VISIBLE
10
528.081311
20
347.861769
30
0.0
11
528.523614
21
347.725274
31
0.0
0
LINE
8
VISIBLE
10
498.431158
20
364.980293
30
0.0
11
498.749320
21
364.756465
31
0.0
0
LINE
8
VISIBLE
10
528.523614
20
347.725274
30
0.0
11
529.003541
21
347.641221
31
0.0
0
LINE
8
VISIBLE
10
498.194742
20
365.235657
30
0.0
11
498.431158
21
364.980293
31
0.0
0
LINE
8
VISIBLE
10
529.003541
20
347.641221
30
0.0
11
529.502649
21
347.612840
31
0.0
0
LINE
8
VISIBLE
10
498.049158
20
365.512743
30
0.0
11
498.194742
21
365.235657
31
0.0
0
LINE
8
VISIBLE
10
529.502649
20
347.612840
30
0.0
11
530.001756
21
347.641221
31
0.0
0
LINE
8
VISIBLE
10
498.000000
20
365.800903
30
0.0
11
498.049158
21
365.512743
31
0.0
0
LINE
8
VISIBLE
10
530.001756
20
347.641221
30
0.0
11
530.481683
21
347.725274
31
0.0
0
LINE
8
VISIBLE
10
498.049158
20
366.089063
30
0.0
11
498.000000
21
365.800903
31
0.0
0
LINE
8
VISIBLE
10
530.481683
20
347.725274
30
0.0
11
530.923986
21
347.861769
31
0.0
0
LINE
8
VISIBLE
10
498.194742
20
366.366148
30
0.0
11
498.049158
21
366.089063
31
0.0
0
LINE
8
VISIBLE
10
530.923986
20
347.861769
30
0.0
11
531.311668
21
348.045460
31
0.0
0
LINE
8
VISIBLE
10
498.431158
20
366.621512
30
0.0
11
498.194742
21
366.366148
31
0.0
0
LINE
8
VISIBLE
10
531.311668
20
348.045460
30
0.0
11
579.250680
21
375.723062
31
0.0
0
LINE
8
VISIBLE
10
498.749320
20
366.845341
30
0.0
11
498.431158
21
366.621512
31
0.0
0
LINE
8
VISIBLE
10
579.250680
20
375.723062
30
0.0
11
579.568842
21
375.946890
31
0.0
0
LINE
8
VISIBLE
10
546.688332
20
394.522942
30
0.0
11
498.749320
21
366.845341
31
0.0
0
LINE
8
VISIBLE
10
579.568842
20
375.946890
30
0.0
11
579.805258
21
376.202254
31
0.0
0
LINE
8
VISIBLE
10
547.076014
20
394.706633
30
0.0
11
546.688332
21
394.522942
31
0.0
0
LINE
8
VISIBLE
10
579.805258
20
376.202254
30
0.0
11
579.950842
21
376.479340
31
0.0
0
LINE
8
VISIBLE
10
547.518317
20
394.843128
30
0.0
11
547.076014
21
394.706633
31
0.0
0
LINE
8
VISIBLE
10
579.950842
20
376.479340
30
0.0
11
580.000000
21
376.767500
31
0.0
0
LINE
8
VISIBLE
10
547.998244
20
394.927181
30
0.0
11
547.518317
21
394.843128
31
0.0
0
LINE
8
VISIBLE
10
580.000000
20
376.767500
30
0.0
11
579.950842
21
377.055659
31
0.0
0
LINE
8
VISIBLE
10
548.497351
20
394.955562
30
0.0
11
547.998244
21
394.927181
31
0.0
0
LINE
8
VISIBLE
10
579.950842
20
377.055659
30
0.0
11
579.805258
21
377.332745
31
0.0
0
LINE
8
VISIBLE
10
548.996459
20
394.927181
30
0.0
11
548.497351
21
394.955562
31
0.0
0
LINE
8
VISIBLE
10
579.805258
20
377.332745
30
0.0
11
579.568842
21
377.588109
31
0.0
0
LINE
8
VISIBLE
10
549.476386
20
394.843128
30
0.0
11
548.996459
21
394.927181
31
0.0
0
LINE
8
VISIBLE
10
579.568842
20
377.588109
30
0.0
11
579.250680
21
377.811937
31
0.0
0
LINE
8
VISIBLE
10
549.918689
20
394.706633
30
0.0
11
549.476386
21
394.843128
31
0.0
0
LINE
8
VISIBLE
10
579.250680
20
377.811937
30
0.0
11
550.306371
21
394.522942
31
0.0
0
LINE
8
VISIBLE
10
550.306371
20
394.522942
30
0.0
11
549.918689
21
394.706633
31
0.0
0
LINE
8
VISIBLE
10
539.904510
20
379.117485
30
0.0
11
542.348524
21
378.026959
31
0.0
0
LINE
8
VISIBLE
10
542.348524
20
378.026959
30
0.0
11
545.357314
21
377.300806
31
0.0
0
LINE
8
VISIBLE
10
545.357314
20
377.300806
30
0.0
11
548.710107
21
377.063614
31
0.0
0
LINE
8
VISIBLE
10
548.710107
20
377.063614
30
0.0
11
552.083380
21
377.374977
31
0.0
0
LINE
8
VISIBLE
10
552.083380
20
377.374977
30
0.0
11
555.130854
21
378.200058
31
0.0
0
LINE
8
VISIBLE
10
555.130854
20
378.200058
30
0.0
11
557.581124
21
379.418130
31
0.0
0
LINE
8
VISIBLE
10
557.581124
20
379.418130
30
0.0
11
559.301599
21
380.867018
31
0.0
0
LINE
8
VISIBLE
10
559.301599
20
380.867018
30
0.0
11
560.296701
21
382.400350
31
0.0
0
LINE
8
VISIBLE
10
560.296701
20
382.400350
30
0.0
11
560.649465
21
384.078564
31
0.0
0
LINE
8
VISIBLE
10
560.649465
20
384.078564
30
0.0
11
560.371440
21
385.570753
31
0.0
0
LINE
8
VISIBLE
10
560.371440
20
385.570753
30
0.0
11
559.526272
21
387.024566
31
0.0
0
LINE
8
VISIBLE
10
559.526272
20
387.024566
30
0.0
11
558.064093
21
388.404891
31
0.0
0
LINE
8
VISIBLE
10
558.064093
20
388.404891
30
0.0
11
555.942873
21
389.623474
31
0.0
0
LINE
8
VISIBLE
10
555.942873
20
389.623474
30
0.0
11
553.196008
21
390.548919
31
0.0
0
LINE
8
VISIBLE
10
553.196008
20
390.548919
30
0.0
11
549.979205
21
391.042231
31
0.0
0
LINE
8
VISIBLE
10
549.979205
20
391.042231
30
0.0
11
546.571942
21
391.005965
31
0.0
0
LINE
8
VISIBLE
10
546.571942
20
391.005965
30
0.0
11
543.321440
21
390.426367
31
0.0
0
LINE
8
VISIBLE
10
543.321440
20
390.426367
30
0.0
11
540.547644
21
389.385038
31
0.0
0
LINE
8
VISIBLE
10
540.547644
20
389.385038
30
0.0
11
538.456486
21
388.030563
31
0.0
0
LINE
8
VISIBLE
10
538.456486
20
388.030563
30
0.0
11
537.107273
21
386.523966
31
0.0
0
LINE
8
VISIBLE
10
537.107273
20
386.523966
30
0.0
11
536.447342
21
384.986148
31
0.0
0
LINE
8
VISIBLE
10
536.447342
20
384.986148
30
0.0
11
536.345238
21
384.078564
31
0.0
0
LINE
8
VISIBLE
10
536.345238
20
384.078564
30
0.0
11
536.623263
21
382.586375
31
0.0
0
LINE
8
VISIBLE
10
536.623263
20
382.586375
30
0.0
11
537.468431
21
381.132563
31
0.0
0
LINE
8
VISIBLE
10
537.468431
20
381.132563
30
0.0
11
539.904510
21
379.117485
31
0.0
0
LINE
8
VISIBLE
10
539.829985
20
367.830702
30
0.0
11
539.387682
21
367.967197
31
0.0
0
LINE
8
VISIBLE
10
540.309912
20
367.746649
30
0.0
11
539.829985
21
367.830702
31
0.0
0
LINE
8
VISIBLE
10
540.809019
20
367.718268
30
0.0
11
540.309912
21
367.746649
31
0.0
0
LINE
8
VISIBLE
10
541.308127
20
367.746649
30
0.0
11
540.809019
21
367.718268
31
0.0
0
LINE
8
VISIBLE
10
541.788054
20
367.830702
30
0.0
11
541.308127
21
367.746649
31
0.0
0
LINE
8
VISIBLE
10
542.230357
20
367.967197
30
0.0
11
541.788054
21
367.830702
31
0.0
0
LINE
8
VISIBLE
10
542.618039
20
368.150888
30
0.0
11
542.230357
21
367.967197
31
0.0
0
LINE
8
VISIBLE
10
544.427058
20
369.195326
30
0.0
11
542.618039
21
368.150888
31
0.0
0
LINE
8
VISIBLE
10
544.745220
20
369.419154
30
0.0
11
544.427058
21
369.195326
31
0.0
0
LINE
8
VISIBLE
10
544.981636
20
369.674518
30
0.0
11
544.745220
21
369.419154
31
0.0
0
LINE
8
VISIBLE
10
545.127220
20
369.951604
30
0.0
11
544.981636
21
369.674518
31
0.0
0
LINE
8
VISIBLE
10
545.176378
20
370.239763
30
0.0
11
545.127220
21
369.951604
31
0.0
0
LINE
8
VISIBLE
10
545.127220
20
370.527923
30
0.0
11
545.176378
21
370.239763
31
0.0
0
LINE
8
VISIBLE
10
544.981636
20
370.805009
30
0.0
11
545.127220
21
370.527923
31
0.0
0
LINE
8
VISIBLE
10
544.745220
20
371.060373
30
0.0
11
544.981636
21
370.805009
31
0.0
0
LINE
8
VISIBLE
10
544.427058
20
371.284201
30
0.0
11
544.745220
21
371.060373
31
0.0
0
LINE
8
VISIBLE
10
537.190981
20
375.461952
30
0.0
11
544.427058
21
371.284201
31
0.0
0
LINE
8
VISIBLE
10
536.803299
20
375.645643
30
0.0
11
537.190981
21
375.461952
31
0.0
0
LINE
8
VISIBLE
10
536.360996
20
375.782138
30
0.0
11
536.803299
21
375.645643
31
0.0
0
LINE
8
VISIBLE
10
535.881069
20
375.866191
30
0.0
11
536.360996
21
375.782138
31
0.0
0
LINE
8
VISIBLE
10
535.381961
20
375.894573
30
0.0
11
535.881069
21
375.866191
31
0.0
0
LINE
8
VISIBLE
10
534.882854
20
375.866191
30
0.0
11
535.381961
21
375.894573
31
0.0
0
LINE
8
VISIBLE
10
534.402927
20
375.782138
30
0.0
11
534.882854
21
375.866191
31
0.0
0
LINE
8
VISIBLE
10
533.960624
20
375.645643
30
0.0
11
534.402927
21
375.782138
31
0.0
0
LINE
8
VISIBLE
10
533.572942
20
375.461952
30
0.0
11
533.960624
21
375.645643
31
0.0
0
LINE
8
VISIBLE
10
531.763923
20
374.417515
30
0.0
11
533.572942
21
375.461952
31
0.0
0
LINE
8
VISIBLE
10
531.445760
20
374.193686
30
0.0
11
531.763923
21
374.417515
31
0.0
0
LINE
8
VISIBLE
10
531.209344
20
373.938322
30
0.0
11
531.445760
21
374.193686
31
0.0
0
LINE
8
VISIBLE
10
531.063760
20
373.661236
30
0.0
11
531.209344
21
373.938322
31
0.0
0
LINE
8
VISIBLE
10
531.014602
20
373.373077
30
0.0
11
531.063760
21
373.661236
31
0.0
0
LINE
8
VISIBLE
10
531.063760
20
373.084917
30
0.0
11
531.014602
21
373.373077
31
0.0
0
LINE
8
VISIBLE
10
531.209344
20
372.807831
30
0.0
11
531.063760
21
373.084917
31
0.0
0
LINE
8
VISIBLE
10
531.445760
20
372.552467
30
0.0
11
531.209344
21
372.807831
31
0.0
0
LINE
8
VISIBLE
10
531.763923
20
372.328639
30
0.0
11
531.445760
21
372.552467
31
0.0
0
LINE
8
VISIBLE
10
539.000000
20
368.150888
30
0.0
11
531.763923
21
372.328639
31
0.0
0
LINE
8
VISIBLE
10
539.387682
20
367.967197
30
0.0
11
539.000000
21
368.150888
31
0.0
0
LINE
8
VISIBLE
10
508.246672
20
360.839823
30
0.0
11
510.690686
21
359.749298
31
0.0
0
LINE
8
VISIBLE
10
510.690686
20
359.749298
30
0.0
11
513.699476
21
359.023144
31
0.0
0
LINE
8
VISIBLE
10
513.699476
20
359.023144
30
0.0
11
517.052269
21
358.785952
31
0.0
0
LINE
8
VISIBLE
10
517.052269
20
358.785952
30
0.0
11
520.425542
21
359.097315
31
0.0
0
LINE
8
VISIBLE
10
520.425542
20
359.097315
30
0.0
11
523.473016
21
359.922397
31
0.0
0
LINE
8
VISIBLE
10
523.473016
20
359.922397
30
0.0
11
525.923286
21
361.140469
31
0.0
0
LINE
8
VISIBLE
10
525.923286
20
361.140469
30
0.0
11
527.643761
21
362.589357
31
0.0
0
LINE
8
VISIBLE
10
527.643761
20
362.589357
30
0.0
11
528.638863
21
364.122689
31
0.0
0
LINE
8
VISIBLE
10
528.638863
20
364.122689
30
0.0
11
528.991627
21
365.800903
31
0.0
0
LINE
8
VISIBLE
10
528.991627
20
365.800903
30
0.0
11
528.713602
21
367.293092
31
0.0
0
LINE
8
VISIBLE
10
528.713602
20
367.293092
30
0.0
11
527.868434
21
368.746904
31
0.0
0
LINE
8
VISIBLE
10
527.868434
20
368.746904
30
0.0
11
526.406255
21
370.127230
31
0.0
0
LINE
8
VISIBLE
10
526.406255
20
370.127230
30
0.0
11
524.285035
21
371.345813
31
0.0
0
LINE
8
VISIBLE
10
524.285035
20
371.345813
30
0.0
11
521.538170
21
372.271258
31
0.0
0
LINE
8
VISIBLE
10
521.538170
20
372.271258
30
0.0
11
518.321367
21
372.764570
31
0.0
0
LINE
8
VISIBLE
10
518.321367
20
372.764570
30
0.0
11
514.914104
21
372.728304
31
0.0
0
LINE
8
VISIBLE
10
514.914104
20
372.728304
30
0.0
11
511.663602
21
372.148706
31
0.0
0
LINE
8
VISIBLE
10
511.663602
20
372.148706
30
0.0
11
508.889806
21
371.107377
31
0.0
0
LINE
8
VISIBLE
10
508.889806
20
371.107377
30
0.0
11
506.798648
21
369.752901
31
0.0
0
LINE
8
VISIBLE
10
506.798648
20
369.752901
30
0.0
11
505.449435
21
368.246305
31
0.0
0
LINE
8
VISIBLE
10
505.449435
20
368.246305
30
0.0
11
504.789504
21
366.708487
31
0.0
0
LINE
8
VISIBLE
10
504.789504
20
366.708487
30
0.0
11
504.687400
21
365.800903
31
0.0
0
LINE
8
VISIBLE
10
504.687400
20
365.800903
30
0.0
11
504.965425
21
364.308714
31
0.0
0
LINE
8
VISIBLE
10
504.965425
20
364.308714
30
0.0
11
505.810593
21
362.854901
31
0.0
0
LINE
8
VISIBLE
10
505.810593
20
362.854901
30
0.0
11
508.246672
21
360.839823
31
0.0
0
LINE
8
VISIBLE
10
575.044710
20
375.905838
30
0.0
11
576.007179
21
375.658268
31
0.0
0
LINE
8
VISIBLE
10
576.007179
20
375.658268
30
0.0
11
577.095617
21
375.889296
31
0.0
0
LINE
8
VISIBLE
10
577.095617
20
375.889296
30
0.0
11
577.555941
21
376.506390
31
0.0
0
LINE
8
VISIBLE
10
577.555941
20
376.506390
30
0.0
11
577.285564
21
376.997094
31
0.0
0
LINE
8
VISIBLE
10
577.285564
20
376.997094
30
0.0
11
576.455676
21
377.328278
31
0.0
0
LINE
8
VISIBLE
10
576.455676
20
377.328278
30
0.0
11
575.319554
21
377.231701
31
0.0
0
LINE
8
VISIBLE
10
575.319554
20
377.231701
30
0.0
11
574.802354
21
376.922347
31
0.0
0
LINE
8
VISIBLE
10
574.802354
20
376.922347
30
0.0
11
574.613851
21
376.506390
31
0.0
0
LINE
8
VISIBLE
10
574.613851
20
376.506390
30
0.0
11
575.044710
21
375.905838
31
0.0
0
LINE
8
VISIBLE
10
560.572555
20
367.550336
30
0.0
11
561.535025
21
367.302766
31
0.0
0
LINE
8
VISIBLE
10
561.535025
20
367.302766
30
0.0
11
562.623463
21
367.533794
31
0.0
0
LINE
8
VISIBLE
10
562.623463
20
367.533794
30
0.0
11
563.083787
21
368.150888
31
0.0
0
LINE
8
VISIBLE
10
563.083787
20
368.150888
30
0.0
11
562.813409
21
368.641592
31
0.0
0
LINE
8
VISIBLE
10
562.813409
20
368.641592
30
0.0
11
561.983521
21
368.972775
31
0.0
0
LINE
8
VISIBLE
10
561.983521
20
368.972775
30
0.0
11
560.847400
21
368.876198
31
0.0
0
LINE
8
VISIBLE
10
560.847400
20
368.876198
30
0.0
11
560.330200
21
368.566845
31
0.0
0
LINE
8
VISIBLE
10
560.330200
20
368.566845
30
0.0
11
560.141696
21
368.150888
31
0.0
0
LINE
8
VISIBLE
10
560.141696
20
368.150888
30
0.0
11
560.572555
21
367.550336
31
0.0
0
LINE
8
VISIBLE
10
543.386872
20
357.628177
30
0.0
11
544.349341
21
357.380607
31
0.0
0
LINE
8
VISIBLE
10
544.349341
20
357.380607
30
0.0
11
545.437779
21
357.611635
31
0.0
0
LINE
8
VISIBLE
10
545.437779
20
357.611635
30
0.0
11
545.898103
21
358.228729
31
0.0
0
LINE
8
VISIBLE
10
545.898103
20
358.228729
30
0.0
11
545.627726
21
358.719433
31
0.0
0
LINE
8
VISIBLE
10
545.627726
20
358.719433
30
0.0
11
544.797838
21
359.050616
31
0.0
0
LINE
8
VISIBLE
10
544.797838
20
359.050616
30
0.0
11
543.661716
21
358.954039
31
0.0
0
LINE
8
VISIBLE
10
543.661716
20
358.954039
30
0.0
11
543.144516
21
358.644686
31
0.0
0
LINE
8
VISIBLE
10
543.144516
20
358.644686
30
0.0
11
542.956013
21
358.228729
31
0.0
0
LINE
8
VISIBLE
10
542.956013
20
358.228729
30
0.0
11
543.386872
21
357.628177
31
0.0
0
LINE
8
VISIBLE
10
528.914717
20
349.272675
30
0.0
11
529.877187
21
349.025104
31
0.0
0
LINE
8
VISIBLE
10
529.877187
20
349.025104
30
0.0
11
530.965625
21
349.256132
31
0.0
0
LINE
8
VISIBLE
10
530.965625
20
349.256132
30
0.0
11
531.425949
21
349.873227
31
0.0
0
LINE
8
VISIBLE
10
531.425949
20
349.873227
30
0.0
11
531.155571
21
350.363930
31
0.0
0
LINE
8
VISIBLE
10
531.155571
20
350.363930
30
0.0
11
530.325683
21
350.695114
31
0.0
0
LINE
8
VISIBLE
10
530.325683
20
350.695114
30
0.0
11
529.189562
21
350.598537
31
0.0
0
LINE
8
VISIBLE
10
529.189562
20
350.598537
30
0.0
11
528.672362
21
350.289184
31
0.0
0
LINE
8
VISIBLE
10
528.672362
20
350.289184
30
0.0
11
528.483858
21
349.873227
31
0.0
0
LINE
8
VISIBLE
10
528.483858
20
349.873227
30
0.0
11
528.914717
21
349.272675
31
0.0
0
LINE
8
VISIBLE
10
498.049158
20
367.133500
30
0.0
11
498.000000
21
366.845341
31
0.0
0
LINE
8
VISIBLE
10
498.194742
20
367.410586
30
0.0
11
498.049158
21
367.133500
31
0.0
0
LINE
8
VISIBLE
10
498.431158
20
367.665950
30
0.0
11
498.194742
21
367.410586
31
0.0
0
LINE
8
VISIBLE
10
498.749320
20
367.889778
30
0.0
11
498.431158
21
367.665950
31
0.0
0
LINE
8
VISIBLE
10
546.688332
20
395.567380
30
0.0
11
498.749320
21
367.889778
31
0.0
0
LINE
8
VISIBLE
10
547.076014
20
395.751071
30
0.0
11
546.688332
21
395.567380
31
0.0
0
LINE
8
VISIBLE
10
547.518317
20
395.887566
30
0.0
11
547.076014
21
395.751071
31
0.0
0
LINE
8
VISIBLE
10
547.998244
20
395.971619
30
0.0
11
547.518317
21
395.887566
31
0.0
0
LINE
8
VISIBLE
10
580.000000
20
377.811937
30
0.0
11
579.950842
21
378.100097
31
0.0
0
LINE
8
VISIBLE
10
548.497351
20
396.000000
30
0.0
11
547.998244
21
395.971619
31
0.0
0
LINE
8
VISIBLE
10
579.950842
20
378.100097
30
0.0
11
579.805258
21
378.377183
31
0.0
0
LINE
8
VISIBLE
10
548.996459
20
395.971619
30
0.0
11
548.497351
21
396.000000
31
0.0
0
LINE
8
VISIBLE
10
579.805258
20
378.377183
30
0.0
11
579.568842
21
378.632547
31
0.0
0
LINE
8
VISIBLE
10
549.476386
20
395.887566
30
0.0
11
548.996459
21
395.971619
31
0.0
0
LINE
8
VISIBLE
10
579.568842
20
378.632547
30
0.0
11
579.250680
21
378.856375
31
0.0
0
LINE
8
VISIBLE
10
549.918689
20
395.751071
30
0.0
11
549.476386
21
395.887566
31
0.0
0
LINE
8
VISIBLE
10
579.250680
20
378.856375
30
0.0
11
550.306371
21
395.567380
31
0.0
0
LINE
8
VISIBLE
10
550.306371
20
395.567380
30
0.0
11
549.918689
21
395.751071
31
0.0
0
LINE
8
VISIBLE
10
539.904510
20
380.161922
30
0.0
11
542.348524
21
379.071397
31
0.0
0
LINE
8
VISIBLE
10
542.348524
20
379.071397
30
0.0
11
545.357314
21
378.345244
31
0.0
0
LINE
8
VISIBLE
10
545.357314
20
378.345244
30
0.0
11
548.710107
21
378.108051
31
0.0
0
LINE
8
VISIBLE
10
548.710107
20
378.108051
30
0.0
11
552.083380
21
378.419414
31
0.0
0
LINE
8
VISIBLE
10
552.083380
20
378.419414
30
0.0
11
555.130854
21
379.244496
31
0.0
0
LINE
8
VISIBLE
10
555.130854
20
379.244496
30
0.0
11
557.581124
21
380.462568
31
0.0
0
LINE
8
VISIBLE
10
557.581124
20
380.462568
30
0.0
11
559.301599
21
381.911456
31
0.0
0
LINE
8
VISIBLE
10
559.301599
20
381.911456
30
0.0
11
560.296701
21
383.444788
31
0.0
0
LINE
8
VISIBLE
10
560.296701
20
383.444788
30
0.0
11
560.615756
21
384.600783
31
0.0
0
LINE
8
VISIBLE
10
536.378947
20
384.600783
30
0.0
11
536.850623
21
383.120705
31
0.0
0
LINE
8
VISIBLE
10
536.850623
20
383.120705
30
0.0
11
537.903384
21
381.685866
31
0.0
0
LINE
8
VISIBLE
10
537.903384
20
381.685866
30
0.0
11
539.904510
21
380.161922
31
0.0
0
LINE
8
VISIBLE
10
539.829985
20
368.875140
30
0.0
11
539.387682
21
369.011634
31
0.0
0
LINE
8
VISIBLE
10
540.309912
20
368.791087
30
0.0
11
539.829985
21
368.875140
31
0.0
0
LINE
8
VISIBLE
10
539.387682
20
369.011634
30
0.0
11
539.000000
21
369.195326
31
0.0
0
LINE
8
VISIBLE
10
540.809019
20
368.762705
30
0.0
11
540.309912
21
368.791087
31
0.0
0
LINE
8
VISIBLE
10
539.000000
20
369.195326
30
0.0
11
531.763923
21
373.373077
31
0.0
0
LINE
8
VISIBLE
10
541.308127
20
368.791087
30
0.0
11
540.809019
21
368.762705
31
0.0
0
LINE
8
VISIBLE
10
531.763923
20
373.373077
30
0.0
11
531.445760
21
373.596905
31
0.0
0
LINE
8
VISIBLE
10
541.788054
20
368.875140
30
0.0
11
541.308127
21
368.791087
31
0.0
0
LINE
8
VISIBLE
10
531.445760
20
373.596905
30
0.0
11
531.209344
21
373.852269
31
0.0
0
LINE
8
VISIBLE
10
542.230357
20
369.011634
30
0.0
11
541.788054
21
368.875140
31
0.0
0
LINE
8
VISIBLE
10
531.209344
20
373.852269
30
0.0
11
531.186738
21
373.895296
31
0.0
0
LINE
8
VISIBLE
10
542.618039
20
369.195326
30
0.0
11
542.230357
21
369.011634
31
0.0
0
LINE
8
VISIBLE
10
544.427058
20
370.239763
30
0.0
11
542.618039
21
369.195326
31
0.0
0
LINE
8
VISIBLE
10
544.745220
20
370.463592
30
0.0
11
544.427058
21
370.239763
31
0.0
0
LINE
8
VISIBLE
10
544.981636
20
370.718956
30
0.0
11
544.745220
21
370.463592
31
0.0
0
LINE
8
VISIBLE
10
545.004243
20
370.761982
30
0.0
11
544.981636
21
370.718956
31
0.0
0
LINE
8
VISIBLE
10
508.246672
20
361.884261
30
0.0
11
510.690686
21
360.793735
31
0.0
0
LINE
8
VISIBLE
10
510.690686
20
360.793735
30
0.0
11
513.699476
21
360.067582
31
0.0
0
LINE
8
VISIBLE
10
513.699476
20
360.067582
30
0.0
11
517.052269
21
359.830390
31
0.0
0
LINE
8
VISIBLE
10
517.052269
20
359.830390
30
0.0
11
520.425542
21
360.141753
31
0.0
0
LINE
8
VISIBLE
10
520.425542
20
360.141753
30
0.0
11
523.473016
21
360.966834
31
0.0
0
LINE
8
VISIBLE
10
523.473016
20
360.966834
30
0.0
11
525.923286
21
362.184907
31
0.0
0
LINE
8
VISIBLE
10
525.923286
20
362.184907
30
0.0
11
527.643761
21
363.633794
31
0.0
0
LINE
8
VISIBLE
10
527.643761
20
363.633794
30
0.0
11
528.638863
21
365.167126
31
0.0
0
LINE
8
VISIBLE
10
528.638863
20
365.167126
30
0.0
11
528.957918
21
366.323122
31
0.0
0
LINE
8
VISIBLE
10
504.721109
20
366.323122
30
0.0
11
505.192785
21
364.843044
31
0.0
0
LINE
8
VISIBLE
10
505.192785
20
364.843044
30
0.0
11
506.245546
21
363.408205
31
0.0
0
LINE
8
VISIBLE
10
506.245546
20
363.408205
30
0.0
11
508.246672
21
361.884261
31
0.0
0
LINE
8
VISIBLE
10
575.044710
20
376.950276
30
0.0
11
576.007179
21
376.702706
31
0.0
0
LINE
8
VISIBLE
10
576.007179
20
376.702706
30
0.0
11
577.244998
21
377.028609
31
0.0
0
LINE
8
VISIBLE
10
574.924794
20
377.028609
30
0.0
11
575.044710
21
376.950276
31
0.0
0
LINE
8
VISIBLE
10
560.572555
20
368.594774
30
0.0
11
561.535025
21
368.347203
31
0.0
0
LINE
8
VISIBLE
10
561.535025
20
368.347203
30
0.0
11
562.772843
21
368.673107
31
0.0
0
LINE
8
VISIBLE
10
560.452639
20
368.673107
30
0.0
11
560.572555
21
368.594774
31
0.0
0
LINE
8
VISIBLE
10
543.386872
20
358.672615
30
0.0
11
544.349341
21
358.425044
31
0.0
0
LINE
8
VISIBLE
10
544.349341
20
358.425044
30
0.0
11
545.587160
21
358.750948
31
0.0
0
LINE
8
VISIBLE
10
543.266956
20
358.750948
30
0.0
11
543.386872
21
358.672615
31
0.0
0
LINE
8
VISIBLE
10
528.914717
20
350.317113
30
0.0
11
529.877187
21
350.069542
31
0.0
0
LINE
8
VISIBLE
10
529.877187
20
350.069542
30
0.0
11
531.115005
21
350.395445
31
0.0
0
LINE
8
VISIBLE
10
528.794801
20
350.395445
30
0.0
11
528.914717
21
350.317113
31
0.0
0
LINE
8
VISIBLE
10
498.000000
20
365.800903
30
0.0
11
498.000000
21
366.845341
31
0.0
0
LINE
8
VISIBLE
10
498.049158
20
366.089063
30
0.0
11
498.049158
21
367.133500
31
0.0
0
LINE
8
VISIBLE
10
498.194742
20
366.366148
30
0.0
11
498.194742
21
367.410586
31
0.0
0
LINE
8
VISIBLE
10
498.431158
20
366.621512
30
0.0
11
498.431158
21
367.665950
31
0.0
0
LINE
8
VISIBLE
10
498.749320
20
366.845341
30
0.0
11
498.749320
21
367.889778
31
0.0
0
LINE
8
VISIBLE
10
546.688332
20
394.522942
30
0.0
11
546.688332
21
395.567380
31
0.0
0
LINE
8
VISIBLE
10
547.076014
20
394.706633
30
0.0
11
547.076014
21
395.751071
31
0.0
0
LINE
8
VISIBLE
10
547.518317
20
394.843128
30
0.0
11
547.518317
21
395.887566
31
0.0
0
LINE
8
VISIBLE
10
580.000000
20
376.767500
30
0.0
11
580.000000
21
377.811937
31
0.0
0
LINE
8
VISIBLE
10
547.998244
20
394.927181
30
0.0
11
547.998244
21
395.971619
31
0.0
0
LINE
8
VISIBLE
10
579.950842
20
377.055659
30
0.0
11
579.950842
21
378.100097
31
0.0
0
LINE
8
VISIBLE
10
548.497351
20
394.955562
30
0.0
11
548.497351
21
396.000000
31
0.0
0
LINE
8
VISIBLE
10
579.805258
20
377.332745
30
0.0
11
579.805258
21
378.377183
31
0.0
0
LINE
8
VISIBLE
10
548.996459
20
394.927181
30
0.0
11
548.996459
21
395.971619
31
0.0
0
LINE
8
VISIBLE
10
579.568842
20
377.588109
30
0.0
11
579.568842
21
378.632547
31
0.0
0
LINE
8
VISIBLE
10
549.476386
20
394.843128
30
0.0
11
549.476386
21
395.887566
31
0.0
0
LINE
8
VISIBLE
10
579.250680
20
377.811937
30
0.0
11
579.250680
21
378.856375
31
0.0
0
LINE
8
VISIBLE
10
549.918689
20
394.706633
30
0.0
11
549.918689
21
395.751071
31
0.0
0
LINE
8
VISIBLE
10
550.306371
20
394.522942
30
0.0
11
550.306371
21
395.567380
31
0.0
0
LINE
8
VISIBLE
10
539.829985
20
367.830702
30
0.0
11
539.829985
21
368.875140
31
0.0
0
LINE
8
VISIBLE
10
539.387682
20
367.967197
30
0.0
11
539.387682
21
369.011634
31
0.0
0
LINE
8
VISIBLE
10
540.309912
20
367.746649
30
0.0
11
540.309912
21
368.791087
31
0.0
0
LINE
8
VISIBLE
10
540.809019
20
367.718268
30
0.0
11
540.809019
21
368.762705
31
0.0
0
LINE
8
VISIBLE
10
541.308127
20
367.746649
30
0.0
11
541.308127
21
368.791087
31
0.0
0
LINE
8
VISIBLE
10
541.788054
20
367.830702
30
0.0
11
541.788054
21
368.875140
31
0.0
0
LINE
8
VISIBLE
10
542.230357
20
367.967197
30
0.0
11
542.230357
21
369.011634
31
0.0
0
LINE
8
VISIBLE
10
542.618039
20
368.150888
30
0.0
11
542.618039
21
369.195326
31
0.0
0
LINE
8
VISIBLE
10
544.427058
20
369.195326
30
0.0
11
544.427058
21
370.239763
31
0.0
0
LINE
8
VISIBLE
10
544.745220
20
369.419154
30
0.0
11
544.745220
21
370.463592
31
0.0
0
LINE
8
VISIBLE
10
544.981636
20
369.674518
30
0.0
11
544.981636
21
370.718956
31
0.0
0
LINE
8
VISIBLE
10
545.127220
20
369.951604
30
0.0
11
545.127220
21
370.527923
31
0.0
0
LINE
8
VISIBLE
10
531.063760
20
373.084917
30
0.0
11
531.063760
21
373.661236
31
0.0
0
LINE
8
VISIBLE
10
531.209344
20
372.807831
30
0.0
11
531.209344
21
373.852269
31
0.0
0
LINE
8
VISIBLE
10
531.445760
20
372.552467
30
0.0
11
531.445760
21
373.596905
31
0.0
0
LINE
8
VISIBLE
10
531.763923
20
372.328639
30
0.0
11
531.763923
21
373.373077
31
0.0
0
LINE
8
VISIBLE
10
539.000000
20
368.150888
30
0.0
11
539.000000
21
369.195326
31
0.0
0
LINE
8
VISIBLE
10
539.904510
20
379.117485
30
0.0
11
539.904510
21
380.161922
31
0.0
0
LINE
8
VISIBLE
10
508.246672
20
360.839823
30
0.0
11
508.246672
21
361.884261
31
0.0
0
LINE
8
VISIBLE
10
575.044710
20
375.905838
30
0.0
11
575.044710
21
376.950276
31
0.0
0
LINE
8
VISIBLE
10
560.572555
20
367.550336
30
0.0
11
560.572555
21
368.594774
31
0.0
0
LINE
8
VISIBLE
10
543.386872
20
357.628177
30
0.0
11
543.386872
21
358.672615
31
0.0
0
LINE
8
VISIBLE
10
528.914717
20
349.272675
30
0.0
11
528.914717
21
350.317113
31
0.0
0
LINE
8
VISIBLE
10
58.004830
20
44.300000
30
0.0
11
19.300000
21
44.300000
31
0.0
0
LINE
8
VISIBLE
10
19.300000
20
44.300000
30
0.0
11
18.519639
21
44.223141
31
0.0
0
LINE
8
VISIBLE
10
18.519639
20
44.223141
30
0.0
11
17.769266
21
43.995518
31
0.0
0
LINE
8
VISIBLE
10
17.769266
20
43.995518
30
0.0
11
17.077719
21
43.625878
31
0.0
0
LINE
8
VISIBLE
10
17.077719
20
43.625878
30
0.0
11
16.471573
21
43.128427
31
0.0
0
LINE
8
VISIBLE
10
16.471573
20
43.128427
30
0.0
11
16.312362
21
42.934429
31
0.0
0
CIRCLE
8
VISIBLE
10
21.300000
20
39.300000
30
0.0
40
2.300000
0
CIRCLE
8
VISIBLE
10
53.300000
20
39.300000
30
0.0
40
2.300000
0
CIRCLE
8
SECTION
10
37.300000
20
39.300000
30
0.0
40
21.300000
0
LINE
8
VISIBLE
10
118.887638
20
42.934429
30
0.0
11
118.728427
21
43.128427
31
0.0
0
LINE
8
VISIBLE
10
118.728427
20
43.128427
30
0.0
11
118.122281
21
43.625878
31
0.0
0
LINE
8
VISIBLE
10
118.122281
20
43.625878
30
0.0
11
117.430734
21
43.995518
31
0.0
0
LINE
8
VISIBLE
10
117.430734
20
43.995518
30
0.0
11
116.680361
21
44.223141
31
0.0
0
LINE
8
VISIBLE
10
116.680361
20
44.223141
30
0.0
11
115.900000
21
44.300000
31
0.0
0
LINE
8
VISIBLE
10
115.900000
20
44.300000
30
0.0
11
77.195170
21
44.300000
31
0.0
0
CIRCLE
8
VISIBLE
10
81.900000
20
39.300000
30
0.0
40
2.300000
0
CIRCLE
8
VISIBLE
10
113.900000
20
39.300000
30
0.0
40
2.300000
0
CIRCLE
8
SECTION
10
97.900000
20
39.300000
30
0.0
40
21.300000
0
LINE
8
VISIBLE
10
181.710000
20
23.495000
30
0.0
11
197.433758
21
23.495000
31
0.0
0
LINE
8
VISIBLE
10
179.759097
20
23.687147
30
0.0
11
181.710000
21
23.495000
31
0.0
0
LINE
8
VISIBLE
10
177.883166
20
24.256205
30
0.0
11
179.759097
21
23.687147
31
0.0
0
LINE
8
VISIBLE
10
176.154298
20
25.180304
30
0.0
11
177.883166
21
24.256205
31
0.0
0
LINE
8
VISIBLE
10
174.638932
20
26.423932
30
0.0
11
176.154298
21
25.180304
31
0.0
0
LINE
8
VISIBLE
10
173.395304
20
27.939298
30
0.0
11
174.638932
21
26.423932
31
0.0
0
LINE
8
VISIBLE
10
172.471205
20
29.668166
30
0.0
11
173.395304
21
27.939298
31
0.0
0
LINE
8
VISIBLE
10
171.902147
20
31.544097
30
0.0
11
172.471205
21
29.668166
31
0.0
0
LINE
8
VISIBLE
10
171.710000
20
97.621458
30
0.0
11
171.710000
21
33.495000
31
0.0
0
LINE
8
VISIBLE
10
171.710000
20
33.495000
30
0.0
11
171.902147
21
31.544097
31
0.0
0
CIRCLE
8
SECTION
10
177.200000
20
58.000000
30
0.0
40
40.000000
0
LINE
8
CENTER
10
186.750000
20
256.000000
30
0.0
11
189.097500
21
256.000000
31
0.0
0
LINE
8
CENTER
10
189.902500
20
256.000000
30
0.0
11
192.250000
21
256.000000
31
0.0
0
LINE
8
CENTER
10
189.500000
20
253.250000
30
0.0
11
189.500000
21
255.597500
31
0.0
0
LINE
8
CENTER
10
189.500000
20
256.402500
30
0.0
11
189.500000
21
258.750000
31
0.0
0
LINE
8
CENTER
10
202.750000
20
256.000000
30
0.0
11
205.097500
21
256.000000
31
0.0
0
LINE
8
CENTER
10
205.902500
20
256.000000
30
0.0
11
208.250000
21
256.000000
31
0.0
0
LINE
8
CENTER
10
205.500000
20
253.250000
30
0.0
11
205.500000
21
255.597500
31
0.0
0
LINE
8
CENTER
10
205.500000
20
256.402500
30
0.0
11
205.500000
21
258.750000
31
0.0
0
LINE
8
CENTER
10
221.750000
20
256.000000
30
0.0
11
224.097500
21
256.000000
31
0.0
0
LINE
8
CENTER
10
224.902500
20
256.000000
30
0.0
11
227.250000
21
256.000000
31
0.0
0
LINE
8
CENTER
10
224.500000
20
253.250000
30
0.0
11
224.500000
21
255.597500
31
0.0
0
LINE
8
CENTER
10
224.500000
20
256.402500
30
0.0
11
224.500000
21
258.750000
31
0.0
0
LINE
8
CENTER
10
237.750000
20
256.000000
30
0.0
11
240.097500
21
256.000000
31
0.0
0
LINE
8
CENTER
10
240.902500
20
256.000000
30
0.0
11
243.250000
21
256.000000
31
0.0
0
LINE
8
CENTER
10
240.500000
20
253.250000
30
0.0
11
240.500000
21
255.597500
31
0.0
0
LINE
8
CENTER
10
240.500000
20
256.402500
30
0.0
11
240.500000
21
258.750000
31
0.0
0
LINE
8
CENTER
10
186.400000
20
233.500000
30
0.0
11
196.300000
21
233.500000
31
0.0
0
LINE
8
CENTER
10
198.700000
20
233.500000
30
0.0
11
208.600000
21
233.500000
31
0.0
0
LINE
8
CENTER
10
197.500000
20
222.400000
30
0.0
11
197.500000
21
232.300000
31
0.0
0
LINE
8
CENTER
10
197.500000
20
234.700000
30
0.0
11
197.500000
21
244.600000
31
0.0
0
LINE
8
CENTER
10
221.400000
20
233.500000
30
0.0
11
231.300000
21
233.500000
31
0.0
0
LINE
8
CENTER
10
233.700000
20
233.500000
30
0.0
11
243.600000
21
233.500000
31
0.0
0
LINE
8
CENTER
10
232.500000
20
222.400000
30
0.0
11
232.500000
21
232.300000
31
0.0
0
LINE
8
CENTER
10
232.500000
20
234.700000
30
0.0
11
232.500000
21
244.600000
31
0.0
0
LINE
8
DIM
10
186.500000
20
221.300000
30
0.0
11
186.500000
21
199.500000
31
0.0
0
LINE
8
DIM
10
243.500000
20
221.300000
30
0.0
11
243.500000
21
199.500000
31
0.0
0
LINE
8
DIM
10
186.500000
20
201.500000
30
0.0
11
243.500000
21
201.500000
31
0.0
0
SOLID
8
DIM
10
186.500000
20
201.500000
30
0.0
11
189.700000
21
200.892000
31
0.0
12
189.700000
22
202.108000
32
0.0
13
189.700000
23
202.108000
33
0.0
0
SOLID
8
DIM
10
243.500000
20
201.500000
30
0.0
11
240.300000
21
202.108000
31
0.0
12
240.300000
22
200.892000
32
0.0
13
240.300000
23
200.892000
33
0.0
0
TEXT
8
TEXT
10
215.000000
20
202.500000
30
0.0
40
2.5000
1
57.00
72
1
73
0
11
215.000000
21
202.500000
31
0.0
0
LINE
8
DIM
10
185.300000
20
222.500000
30
0.0
11
163.500000
21
222.500000
31
0.0
0
LINE
8
DIM
10
185.300000
20
258.500000
30
0.0
11
163.500000
21
258.500000
31
0.0
0
LINE
8
DIM
10
165.500000
20
222.500000
30
0.0
11
165.500000
21
258.500000
31
0.0
0
SOLID
8
DIM
10
165.500000
20
222.500000
30
0.0
11
166.108000
21
225.700000
31
0.0
12
164.892000
22
225.700000
32
0.0
13
164.892000
23
225.700000
33
0.0
0
SOLID
8
DIM
10
165.500000
20
258.500000
30
0.0
11
164.892000
21
255.300000
31
0.0
12
166.108000
22
255.300000
32
0.0
13
166.108000
23
255.300000
33
0.0
0
TEXT
8
TEXT
10
164.500000
20
240.500000
30
0.0
40
2.5000
1
36.00
50
90.0000
72
1
73
0
11
164.500000
21
240.500000
31
0.0
0
SOLID
8
DIM
10
190.208011
20
256.906212
30
0.0
11
192.657238
21
259.053525
31
0.0
12
191.699017
22
259.802169
32
0.0
13
191.699017
23
259.802169
33
0.0
0
LINE
8
DIM
10
190.208011
20
256.906212
30
0.0
11
196.922213
21
265.500000
31
0.0
0
LINE
8
DIM
10
196.922213
20
265.500000
30
0.0
11
201.922213
21
265.500000
31
0.0
0
TEXT
8
TEXT
10
202.722213
20
266.500000
30
0.0
40
2.5000
1
4x Ø2.30 THRU
0
SOLID
8
DIM
10
203.348784
20
240.986102
30
0.0
11
205.798011
21
243.133414
31
0.0
12
204.839790
22
243.882059
32
0.0
13
204.839790
23
243.882059
33
0.0
0
LINE
8
DIM
10
203.348784
20
240.986102
30
0.0
11
227.286515
21
271.625000
31
0.0
0
LINE
8
DIM
10
227.286515
20
271.625000
30
0.0
11
232.286515
21
271.625000
31
0.0
0
TEXT
8
TEXT
10
233.086515
20
272.625000
30
0.0
40
2.5000
1
2x Ø19.00 THRU
0
LINE
8
DIM
10
232.500000
20
232.300000
30
0.0
11
232.500000
21
192.500000
31
0.0
0
LINE
8
DIM
10
197.500000
20
232.300000
30
0.0
11
197.500000
21
192.500000
31
0.0
0
LINE
8
DIM
10
197.500000
20
194.500000
30
0.0
11
232.500000
21
194.500000
31
0.0
0
SOLID
8
DIM
10
197.500000
20
194.500000
30
0.0
11
200.700000
21
193.892000
31
0.0
12
200.700000
22
195.108000
32
0.0
13
200.700000
23
195.108000
33
0.0
0
SOLID
8
DIM
10
232.500000
20
194.500000
30
0.0
11
229.300000
21
195.108000
31
0.0
12
229.300000
22
193.892000
32
0.0
13
229.300000
23
193.892000
33
0.0
0
TEXT
8
TEXT
10
215.000000
20
195.500000
30
0.0
40
2.5000
1
35.00
72
1
73
0
11
215.000000
21
195.500000
31
0.0
0
TEXT
8
TEXT
10
215.000000
20
182.500000
30
0.0
40
4.0000
1
TOP VIEW
72
1
73
0
11
215.000000
21
182.500000
31
0.0
0
LINE
8
TEXT
10
205.400000
20
180.900000
30
0.0
11
224.600000
21
180.900000
31
0.0
0
TEXT
8
TEXT
10
215.000000
20
176.500000
30
0.0
40
2.4000
1
X →   Y ↑
72
1
73
0
11
215.000000
21
176.500000
31
0.0
0
LINE
8
DIM
10
186.500000
20
160.300000
30
0.0
11
186.500000
21
147.500000
31
0.0
0
LINE
8
DIM
10
243.500000
20
160.300000
30
0.0
11
243.500000
21
147.500000
31
0.0
0
LINE
8
DIM
10
186.500000
20
149.500000
30
0.0
11
243.500000
21
149.500000
31
0.0
0
SOLID
8
DIM
10
186.500000
20
149.500000
30
0.0
11
189.700000
21
148.892000
31
0.0
12
189.700000
22
150.108000
32
0.0
13
189.700000
23
150.108000
33
0.0
0
SOLID
8
DIM
10
243.500000
20
149.500000
30
0.0
11
240.300000
21
150.108000
31
0.0
12
240.300000
22
148.892000
32
0.0
13
240.300000
23
148.892000
33
0.0
0
TEXT
8
TEXT
10
215.000000
20
150.500000
30
0.0
40
2.5000
1
57.00
72
1
73
0
11
215.000000
21
150.500000
31
0.0
0
LINE
8
DIM
10
185.300000
20
161.500000
30
0.0
11
172.500000
21
161.500000
31
0.0
0
LINE
8
DIM
10
185.300000
20
164.500000
30
0.0
11
172.500000
21
164.500000
31
0.0
0
LINE
8
DIM
10
174.500000
20
161.500000
30
0.0
11
174.500000
21
164.500000
31
0.0
0
SOLID
8
DIM
10
174.500000
20
161.500000
30
0.0
11
173.892000
21
158.300000
31
0.0
12
175.108000
22
158.300000
32
0.0
13
175.108000
23
158.300000
33
0.0
0
SOLID
8
DIM
10
174.500000
20
164.500000
30
0.0
11
175.108000
21
167.700000
31
0.0
12
173.892000
22
167.700000
32
0.0
13
173.892000
23
167.700000
33
0.0
0
LINE
8
DIM
10
174.500000
20
164.500000
30
0.0
11
174.500000
21
174.100000
31
0.0
0
TEXT
8
TEXT
10
173.500000
20
174.900000
30
0.0
40
2.5000
1
3.00
50
90.0000
0
TEXT
8
TEXT
10
215.000000
20
137.500000
30
0.0
40
4.0000
1
FRONT VIEW
72
1
73
0
11
215.000000
21
137.500000
31
0.0
0
LINE
8
TEXT
10
203.000000
20
135.900000
30
0.0
11
227.000000
21
135.900000
31
0.0
0
TEXT
8
TEXT
10
215.000000
20
131.500000
30
0.0
40
2.4000
1
-X →   Z ↑
72
1
73
0
11
215.000000
21
131.500000
31
0.0
0
LINE
8
DIM
10
281.500000
20
237.800000
30
0.0
11
281.500000
21
225.000000
31
0.0
0
LINE
8
DIM
10
317.500000
20
237.800000
30
0.0
11
317.500000
21
225.000000
31
0.0
0
LINE
8
DIM
10
281.500000
20
227.000000
30
0.0
11
317.500000
21
227.000000
31
0.0
0
SOLID
8
DIM
10
281.500000
20
227.000000
30
0.0
11
284.700000
21
226.392000
31
0.0
12
284.700000
22
227.608000
32
0.0
13
284.700000
23
227.608000
33
0.0
0
SOLID
8
DIM
10
317.500000
20
227.000000
30
0.0
11
314.300000
21
227.608000
31
0.0
12
314.300000
22
226.392000
32
0.0
13
314.300000
23
226.392000
33
0.0
0
TEXT
8
TEXT
10
299.500000
20
228.000000
30
0.0
40
2.5000
1
36.00
72
1
73
0
11
299.500000
21
228.000000
31
0.0
0
LINE
8
DIM
10
280.300000
20
239.000000
30
0.0
11
267.500000
21
239.000000
31
0.0
0
LINE
8
DIM
10
280.300000
20
242.000000
30
0.0
11
267.500000
21
242.000000
31
0.0
0
LINE
8
DIM
10
269.500000
20
239.000000
30
0.0
11
269.500000
21
242.000000
31
0.0
0
SOLID
8
DIM
10
269.500000
20
239.000000
30
0.0
11
268.892000
21
235.800000
31
0.0
12
270.108000
22
235.800000
32
0.0
13
270.108000
23
235.800000
33
0.0
0
SOLID
8
DIM
10
269.500000
20
242.000000
30
0.0
11
270.108000
21
245.200000
31
0.0
12
268.892000
22
245.200000
32
0.0
13
268.892000
23
245.200000
33
0.0
0
LINE
8
DIM
10
269.500000
20
242.000000
30
0.0
11
269.500000
21
251.600000
31
0.0
0
TEXT
8
TEXT
10
268.500000
20
252.400000
30
0.0
40
2.5000
1
3.00
50
90.0000
0
LINE
8
HATCH
10
317.499999
20
239.000000
30
0.0
11
317.500000
21
239.000001
31
0.0
0
LINE
8
HATCH
10
313.257358
20
239.000000
30
0.0
11
314.257358
21
240.000000
31
0.0
0
LINE
8
HATCH
10
309.014717
20
239.000000
30
0.0
11
310.014717
21
240.000000
31
0.0
0
LINE
8
HATCH
10
304.772077
20
239.000000
30
0.0
11
305.772077
21
240.000000
31
0.0
0
LINE
8
HATCH
10
282.999999
20
239.000000
30
0.0
11
283.000000
21
239.000001
31
0.0
0
LINE
8
DIM
10
318.399999
20
239.000000
30
0.0
11
328.500000
21
239.000000
31
0.0
0
LINE
8
DIM
10
318.399999
20
240.000000
30
0.0
11
328.500000
21
240.000000
31
0.0
0
LINE
8
DIM
10
326.500000
20
239.000000
30
0.0
11
326.500000
21
240.000000
31
0.0
0
SOLID
8
DIM
10
326.500000
20
239.000000
30
0.0
11
325.892000
21
235.800000
31
0.0
12
327.108000
22
235.800000
32
0.0
13
327.108000
23
235.800000
33
0.0
0
SOLID
8
DIM
10
326.500000
20
240.000000
30
0.0
11
327.108000
21
243.200000
31
0.0
12
325.892000
22
243.200000
32
0.0
13
325.892000
23
243.200000
33
0.0
0
LINE
8
DIM
10
326.500000
20
240.000000
30
0.0
11
326.500000
21
249.600000
31
0.0
0
TEXT
8
TEXT
10
325.500000
20
250.400000
30
0.0
40
2.5000
1
1.00 WALL
50
90.0000
0
LINE
8
DIM
10
281.500000
20
240.208334
30
0.0
11
281.500000
21
251.000000
31
0.0
0
LINE
8
DIM
10
283.000000
20
240.208334
30
0.0
11
283.000000
21
251.000000
31
0.0
0
LINE
8
DIM
10
281.500000
20
249.000000
30
0.0
11
283.000000
21
249.000000
31
0.0
0
SOLID
8
DIM
10
281.500000
20
249.000000
30
0.0
11
278.300000
21
249.608000
31
0.0
12
278.300000
22
248.392000
32
0.0
13
278.300000
23
248.392000
33
0.0
0
SOLID
8
DIM
10
283.000000
20
249.000000
30
0.0
11
286.200000
21
248.392000
31
0.0
12
286.200000
22
249.608000
32
0.0
13
286.200000
23
249.608000
33
0.0
0
LINE
8
DIM
10
283.000000
20
249.000000
30
0.0
11
292.600000
21
249.000000
31
0.0
0
TEXT
8
TEXT
10
293.400000
20
249.400000
30
0.0
40
2.5000
1
1.50 WALL
0
TEXT
8
TEXT
10
299.500000
20
215.000000
30
0.0
40
4.0000
1
SECTION A-A
72
1
73
0
11
299.500000
21
215.000000
31
0.0
0
LINE
8
TEXT
10
286.300000
20
213.400000
30
0.0
11
312.700000
21
213.400000
31
0.0
0
TEXT
8
TEXT
10
539.000000
20
341.612840
30
0.0
40
4.0000
1
ISOMETRIC VIEW
72
1
73
0
11
539.000000
21
341.612840
31
0.0
0
LINE
8
TEXT
10
522.200000
20
340.012840
30
0.0
11
555.800000
21
340.012840
31
0.0
0
TEXT
8
TEXT
10
539.000000
20
335.612840
30
0.0
40
2.6000
1
57.00 x 36.00 x 3.00 mm
72
1
73
0
11
539.000000
21
335.612840
31
0.0
0
LINE
8
CENTER
10
17.400000
20
39.300000
30
0.0
11
20.495000
21
39.300000
31
0.0
0
LINE
8
CENTER
10
22.105000
20
39.300000
30
0.0
11
25.200000
21
39.300000
31
0.0
0
LINE
8
CENTER
10
21.300000
20
35.400000
30
0.0
11
21.300000
21
38.495000
31
0.0
0
LINE
8
CENTER
10
21.300000
20
40.105000
30
0.0
11
21.300000
21
43.200000
31
0.0
0
LINE
8
CENTER
10
49.400000
20
39.300000
30
0.0
11
52.495000
21
39.300000
31
0.0
0
LINE
8
CENTER
10
54.105000
20
39.300000
30
0.0
11
57.200000
21
39.300000
31
0.0
0
LINE
8
CENTER
10
53.300000
20
35.400000
30
0.0
11
53.300000
21
38.495000
31
0.0
0
LINE
8
CENTER
10
53.300000
20
40.105000
30
0.0
11
53.300000
21
43.200000
31
0.0
0
TEXT
8
TEXT
10
37.300000
20
65.600000
30
0.0
40
4.0000
1
DETAIL A
72
1
73
0
11
37.300000
21
65.600000
31
0.0
0
LINE
8
TEXT
10
27.700000
20
64.000000
30
0.0
11
46.900000
21
64.000000
31
0.0
0
TEXT
8
TEXT
10
37.300000
20
71.100000
30
0.0
40
2.8000
1
SCALE 2:1
72
1
73
0
11
37.300000
21
71.100000
31
0.0
0
LINE
8
CENTER
10
78.000000
20
39.300000
30
0.0
11
81.095000
21
39.300000
31
0.0
0
LINE
8
CENTER
10
82.705000
20
39.300000
30
0.0
11
85.800000
21
39.300000
31
0.0
0
LINE
8
CENTER
10
81.900000
20
35.400000
30
0.0
11
81.900000
21
38.495000
31
0.0
0
LINE
8
CENTER
10
81.900000
20
40.105000
30
0.0
11
81.900000
21
43.200000
31
0.0
0
LINE
8
CENTER
10
110.000000
20
39.300000
30
0.0
11
113.095000
21
39.300000
31
0.0
0
LINE
8
CENTER
10
114.705000
20
39.300000
30
0.0
11
117.800000
21
39.300000
31
0.0
0
LINE
8
CENTER
10
113.900000
20
35.400000
30
0.0
11
113.900000
21
38.495000
31
0.0
0
LINE
8
CENTER
10
113.900000
20
40.105000
30
0.0
11
113.900000
21
43.200000
31
0.0
0
TEXT
8
TEXT
10
97.900000
20
65.600000
30
0.0
40
4.0000
1
DETAIL B
72
1
73
0
11
97.900000
21
65.600000
31
0.0
0
LINE
8
TEXT
10
88.300000
20
64.000000
30
0.0
11
107.500000
21
64.000000
31
0.0
0
TEXT
8
TEXT
10
97.900000
20
71.100000
30
0.0
40
2.8000
1
SCALE 2:1
72
1
73
0
11
97.900000
21
71.100000
31
0.0
0
TEXT
8
TEXT
10
177.200000
20
103.000000
30
0.0
40
4.0000
1
DETAIL C
72
1
73
0
11
177.200000
21
103.000000
31
0.0
0
LINE
8
TEXT
10
167.600000
20
101.400000
30
0.0
11
186.800000
21
101.400000
31
0.0
0
TEXT
8
TEXT
10
177.200000
20
108.500000
30
0.0
40
2.8000
1
SCALE 5:1
72
1
73
0
11
177.200000
21
108.500000
31
0.0
0
LINE
8
CUT
10
232.500000
20
267.500000
30
0.0
11
232.500000
21
253.500000
31
0.0
0
LINE
8
CUTTHIN
10
232.500000
20
253.500000
30
0.0
11
232.500000
21
227.500000
31
0.0
0
LINE
8
CUT
10
232.500000
20
227.500000
30
0.0
11
232.500000
21
213.500000
31
0.0
0
LINE
8
CUT
10
232.500000
20
267.500000
30
0.0
11
223.500000
21
267.500000
31
0.0
0
SOLID
8
CUT
10
223.500000
20
267.500000
30
0.0
11
227.700000
21
266.702000
31
0.0
12
227.700000
22
268.298000
32
0.0
13
227.700000
23
268.298000
33
0.0
0
TEXT
8
TEXT
10
237.500000
20
267.500000
30
0.0
40
4.0000
1
A
72
1
73
2
11
237.500000
21
267.500000
31
0.0
0
LINE
8
CUT
10
232.500000
20
213.500000
30
0.0
11
223.500000
21
213.500000
31
0.0
0
SOLID
8
CUT
10
223.500000
20
213.500000
30
0.0
11
227.700000
21
212.702000
31
0.0
12
227.700000
22
214.298000
32
0.0
13
227.700000
23
214.298000
33
0.0
0
TEXT
8
TEXT
10
237.500000
20
213.500000
30
0.0
40
4.0000
1
A
72
1
73
2
11
237.500000
21
213.500000
31
0.0
0
CIRCLE
8
CENTER
10
197.500000
20
256.000000
30
0.0
40
10.650000
0
TEXT
8
TEXT
10
209.650000
20
268.150000
30
0.0
40
4.0000
1
A
0
CIRCLE
8
CENTER
10
232.500000
20
256.000000
30
0.0
40
10.650000
0
TEXT
8
TEXT
10
244.650000
20
268.150000
30
0.0
40
4.0000
1
B
0
CIRCLE
8
CENTER
10
187.598000
20
229.401000
30
0.0
40
8.000000
0
TEXT
8
TEXT
10
197.098000
20
238.901000
30
0.0
40
4.0000
1
C
0
LINE
8
VISIBLE
10
510.000000
20
281.790618
30
0.0
11
568.000000
21
281.790618
31
0.0
0
LINE
8
VISIBLE
10
568.000000
20
281.790618
30
0.0
11
568.000000
21
325.612840
31
0.0
0
LINE
8
VISIBLE
10
568.000000
20
325.612840
30
0.0
11
510.000000
21
325.612840
31
0.0
0
LINE
8
VISIBLE
10
510.000000
20
325.612840
30
0.0
11
510.000000
21
281.790618
31
0.0
0
LINE
8
TITLE
10
510.000000
20
281.790618
30
0.0
11
568.000000
21
281.790618
31
0.0
0
LINE
8
TITLE
10
568.000000
20
281.790618
30
0.0
11
568.000000
21
325.612840
31
0.0
0
LINE
8
TITLE
10
568.000000
20
325.612840
30
0.0
11
510.000000
21
325.612840
31
0.0
0
LINE
8
TITLE
10
510.000000
20
325.612840
30
0.0
11
510.000000
21
281.790618
31
0.0
0
TEXT
8
TEXT
10
539.000000
20
279.190618
30
0.0
40
2.0000
1
REFERENCE RENDER (ISO2) — rendered off this solid,
72
1
73
0
11
539.000000
21
279.190618
31
0.0
0
TEXT
8
TEXT
10
539.000000
20
276.590618
30
0.0
40
2.0000
1
900 x 680 px
72
1
73
0
11
539.000000
21
276.590618
31
0.0
0
TEXT
8
TEXT
10
496.000000
20
269.290618
30
0.0
40
3.0000
1
HOLE TABLE — 6 POSITIONS
0
LINE
8
TITLE
10
496.000000
20
266.790618
30
0.0
11
551.920000
21
266.790618
31
0.0
0
TEXT
8
TITLE
10
497.500000
20
264.320618
30
0.0
40
2.2000
1
TAG
0
TEXT
8
TITLE
10
504.460000
20
264.320618
30
0.0
40
2.2000
1
SIZE
0
TEXT
8
TITLE
10
521.980000
20
264.320618
30
0.0
40
2.2000
1
X
0
TEXT
8
TITLE
10
532.900000
20
264.320618
30
0.0
40
2.2000
1
Y
0
TEXT
8
TITLE
10
542.500000
20
264.320618
30
0.0
40
2.2000
1
C'BORE
0
LINE
8
TITLE
10
496.000000
20
262.720618
30
0.0
11
551.920000
21
262.720618
31
0.0
0
TEXT
8
TEXT
10
497.500000
20
260.250618
30
0.0
40
2.2000
1
A1
0
TEXT
8
TEXT
10
504.460000
20
260.250618
30
0.0
40
2.2000
1
Ø2.30 THRU
0
TEXT
8
TEXT
10
521.980000
20
260.250618
30
0.0
40
2.2000
1
-25.50
0
TEXT
8
TEXT
10
532.900000
20
260.250618
30
0.0
40
2.2000
1
20.50
0
TEXT
8
TEXT
10
542.500000
20
260.250618
30
0.0
40
2.2000
1
-
0
TEXT
8
TEXT
10
497.500000
20
256.180618
30
0.0
40
2.2000
1
A2
0
TEXT
8
TEXT
10
504.460000
20
256.180618
30
0.0
40
2.2000
1
Ø2.30 THRU
0
TEXT
8
TEXT
10
521.980000
20
256.180618
30
0.0
40
2.2000
1
-9.50
0
TEXT
8
TEXT
10
532.900000
20
256.180618
30
0.0
40
2.2000
1
20.50
0
TEXT
8
TEXT
10
542.500000
20
256.180618
30
0.0
40
2.2000
1
-
0
TEXT
8
TEXT
10
497.500000
20
252.110618
30
0.0
40
2.2000
1
A3
0
TEXT
8
TEXT
10
504.460000
20
252.110618
30
0.0
40
2.2000
1
Ø2.30 THRU
0
TEXT
8
TEXT
10
521.980000
20
252.110618
30
0.0
40
2.2000
1
9.50
0
TEXT
8
TEXT
10
532.900000
20
252.110618
30
0.0
40
2.2000
1
20.50
0
TEXT
8
TEXT
10
542.500000
20
252.110618
30
0.0
40
2.2000
1
-
0
TEXT
8
TEXT
10
497.500000
20
248.040618
30
0.0
40
2.2000
1
A4
0
TEXT
8
TEXT
10
504.460000
20
248.040618
30
0.0
40
2.2000
1
Ø2.30 THRU
0
TEXT
8
TEXT
10
521.980000
20
248.040618
30
0.0
40
2.2000
1
25.50
0
TEXT
8
TEXT
10
532.900000
20
248.040618
30
0.0
40
2.2000
1
20.50
0
TEXT
8
TEXT
10
542.500000
20
248.040618
30
0.0
40
2.2000
1
-
0
TEXT
8
TEXT
10
497.500000
20
243.970618
30
0.0
40
2.2000
1
A5
0
TEXT
8
TEXT
10
504.460000
20
243.970618
30
0.0
40
2.2000
1
Ø19.00 THRU
0
TEXT
8
TEXT
10
521.980000
20
243.970618
30
0.0
40
2.2000
1
-17.50
0
TEXT
8
TEXT
10
532.900000
20
243.970618
30
0.0
40
2.2000
1
-2.00
0
TEXT
8
TEXT
10
542.500000
20
243.970618
30
0.0
40
2.2000
1
-
0
TEXT
8
TEXT
10
497.500000
20
239.900618
30
0.0
40
2.2000
1
A6
0
TEXT
8
TEXT
10
504.460000
20
239.900618
30
0.0
40
2.2000
1
Ø19.00 THRU
0
TEXT
8
TEXT
10
521.980000
20
239.900618
30
0.0
40
2.2000
1
17.50
0
TEXT
8
TEXT
10
532.900000
20
239.900618
30
0.0
40
2.2000
1
-2.00
0
TEXT
8
TEXT
10
542.500000
20
239.900618
30
0.0
40
2.2000
1
-
0
LINE
8
TITLE
10
496.000000
20
238.300618
30
0.0
11
551.920000
21
238.300618
31
0.0
0
LINE
8
TITLE
10
502.960000
20
238.300618
30
0.0
11
502.960000
21
266.790618
31
0.0
0
LINE
8
TITLE
10
520.480000
20
238.300618
30
0.0
11
520.480000
21
266.790618
31
0.0
0
LINE
8
TITLE
10
531.400000
20
238.300618
30
0.0
11
531.400000
21
266.790618
31
0.0
0
LINE
8
TITLE
10
541.000000
20
238.300618
30
0.0
11
541.000000
21
266.790618
31
0.0
0
LINE
8
TITLE
10
551.920000
20
238.300618
30
0.0
11
551.920000
21
266.790618
31
0.0
0
LINE
8
TITLE
10
496.000000
20
238.300618
30
0.0
11
496.000000
21
266.790618
31
0.0
0
TEXT
8
TITLE
10
496.000000
20
234.300618
30
0.0
40
1.7585
1
every row measured off the solid; positions are model
0
TEXT
8
TITLE
10
496.000000
20
231.662882
30
0.0
40
1.7585
1
coordinates, mm. C'BORE side is the face it opens on.
0
TEXT
8
TEXT
10
496.000000
20
222.025146
30
0.0
40
3.0000
1
NOTES
0
TEXT
8
TEXT
10
496.000000
20
217.425146
30
0.0
40
2.4000
1
1. ALL DIMENSIONS IN mm AND DEGREES. EVERY DIMENSION AND
0
TEXT
8
TEXT
10
496.000000
20
213.705146
30
0.0
40
2.4000
1
   EVERY HOLE CALLOUT WAS MEASURED OFF THE SOLID.
0
TEXT
8
TEXT
10
496.000000
20
209.985146
30
0.0
40
2.4000
1
2. PROCESS: FDM.
0
TEXT
8
TEXT
10
496.000000
20
206.265146
30
0.0
40
2.4000
1
3. THINNEST WALL, WHOLE SOLID: 1.0000 mm, AT X=-27.402
0
TEXT
8
TEXT
10
496.000000
20
202.545146
30
0.0
40
2.4000
1
   Y=-6.099 Z=16.500 — MEASURED OVER THE WHOLE SOLID BY
0
TEXT
8
TEXT
10
496.000000
20
198.825146
30
0.0
40
2.4000
1
   RAY+EXACT AT 1.409 mm SAMPLE SPACING (A FEATURE
0
TEXT
8
TEXT
10
496.000000
20
195.105146
30
0.0
40
2.4000
1
   NARROWER THAN THAT CAN BE MISSED). A RAY MINIMUM AT AN
0
TEXT
8
TEXT
10
496.000000
20
191.385146
30
0.0
40
2.4000
1
   EDGE, A FILLET RUN-OUT OR A CHAMFER TIP IS A REAL
0
TEXT
8
TEXT
10
496.000000
20
187.665146
30
0.0
40
2.4000
1
   DISTANCE THROUGH MATERIAL AND IS NOT A PRINTABLE WALL.
0
TEXT
8
TEXT
10
496.000000
20
183.945146
30
0.0
40
2.4000
1
4. GENERAL TOLERANCE CANNOT DETERMINE — SEE PRINT / DFM
0
TEXT
8
TEXT
10
496.000000
20
180.225146
30
0.0
40
2.4000
1
   NOTES UNLESS STATED.
0
TEXT
8
TEXT
10
496.000000
20
176.505146
30
0.0
40
2.4000
1
5. SECTION A-A AT X=17.50: THINNEST MATERIAL IN THIS PLANE
0
TEXT
8
TEXT
10
496.000000
20
172.785146
30
0.0
40
2.4000
1
   ONLY 1.00 mm, AT Y=22.70, Z=17.00 — A SCAN OF ONE CUT,
0
TEXT
8
TEXT
10
496.000000
20
169.065146
30
0.0
40
2.4000
1
   NOT THE PART MINIMUM.
0
TEXT
8
TEXT
10
496.000000
20
161.345146
30
0.0
40
3.0000
1
PRINT / DFM
0
TEXT
8
TEXT
10
496.000000
20
156.745146
30
0.0
40
2.4000
1
1. ORIENTATION: laid flat (57 x 36 x 3 mm)
0
TEXT
8
TEXT
10
496.000000
20
153.025146
30
0.0
40
2.4000
1
2. THINNEST WALL: 1.00 mm (floor 0.80 mm = 2 perimeters @
0
TEXT
8
TEXT
10
496.000000
20
149.305146
30
0.0
40
2.4000
1
   0.4 mm nozzle)
0
TEXT
8
TEXT
10
496.000000
20
145.585146
30
0.0
40
2.4000
1
3. FILAMENT: PLA, ~2 g (modelled), 15 layers @ 0.2 mm
0
TEXT
8
TEXT
10
496.000000
20
141.865146
30
0.0
40
2.4000
1
4. TOLERANCE BASIS (IN-HOUSE): CANNOT DETERMINE. Every
0
TEXT
8
TEXT
10
496.000000
20
138.145146
30
0.0
40
2.4000
1
   Bambu machine on this farm records tolerance_mm: null
0
TEXT
8
TEXT
10
496.000000
20
134.425146
30
0.0
40
2.4000
1
   with the cite "no coupon printed and measured on this
0
TEXT
8
TEXT
10
496.000000
20
130.705146
30
0.0
40
2.4000
1
   machine" (ce-machines/bambu-h2s-*/capabilities.json,
0
TEXT
8
TEXT
10
496.000000
20
126.985146
30
0.0
40
2.4000
1
   ce-machines/bambu-h2d-*/capabilities.json, read
0
TEXT
8
TEXT
10
496.000000
20
123.265146
30
0.0
40
2.4000
1
   2026-09-02), and Bambu Lab's own H2D Pro technical
0
TEXT
8
TEXT
10
496.000000
20
119.545146
30
0.0
40
2.4000
1
   specification carries no dimensional-accuracy line at
0
TEXT
8
TEXT
10
496.000000
20
115.825146
30
0.0
40
2.4000
1
   all. Dimensions on this sheet are NOMINAL AS MODELLED.
0
TEXT
8
TEXT
10
496.000000
20
112.105146
30
0.0
40
2.4000
1
5. TOLERANCE BASIS (OUTSOURCED): JLC3DP publishes +/-0.3
0
TEXT
8
TEXT
10
496.000000
20
108.385146
30
0.0
40
2.4000
1
   mm for FDM (jlc3dp.com,
0
TEXT
8
TEXT
10
496.000000
20
104.665146
30
0.0
40
2.4000
1
   ce-machines/farm-jlc3dp/capabilities.json) and Hubs
0
TEXT
8
TEXT
10
496.000000
20
100.945146
30
0.0
40
2.4000
1
   publishes +/-0.5% with a +/-0.5 mm floor
0
TEXT
8
TEXT
10
496.000000
20
97.225146
30
0.0
40
2.4000
1
   (hubs.com/3d-printing/,
0
TEXT
8
TEXT
10
496.000000
20
93.505146
30
0.0
40
2.4000
1
   ce-machines/farm-hubs/capabilities.json). Quote
0
TEXT
8
TEXT
10
496.000000
20
89.785146
30
0.0
40
2.4000
1
   whichever route makes the part; do not apply both.
0
TEXT
8
TEXT
10
496.000000
20
86.065146
30
0.0
40
2.4000
1
6. THE +/-0.2 mm IN cecad/machining.py
0
TEXT
8
TEXT
10
496.000000
20
82.345146
30
0.0
40
2.4000
1
   PROCESSES['fdm'].tolerance_mm IS A REPO PLANNING
0
TEXT
8
TEXT
10
496.000000
20
78.625146
30
0.0
40
2.4000
1
   CONSTANT WITH NO VENDOR CITE and is deliberately not
0
TEXT
8
TEXT
10
496.000000
20
74.905146
30
0.0
40
2.4000
1
   used as this sheet's general tolerance. One printed and
0
TEXT
8
TEXT
10
496.000000
20
71.185146
30
0.0
40
2.4000
1
   measured calibration coupon on the machine that will
0
TEXT
8
TEXT
10
496.000000
20
67.465146
30
0.0
40
2.4000
1
   make this part closes this note.
0
TEXT
8
TEXT
10
496.000000
20
63.745146
30
0.0
40
2.4000
1
7. FITS: no bore on this part carries a declared ISO 286
0
TEXT
8
TEXT
10
496.000000
20
60.025146
30
0.0
40
2.4000
1
   class, because FDM cannot be sized to one — H7/p6 at O3
0
TEXT
8
TEXT
10
496.000000
20
56.305146
30
0.0
40
2.4000
1
   is a 0.010 mm band against a process nobody here has
0
TEXT
8
TEXT
10
496.000000
20
52.585146
30
0.0
40
2.4000
1
   measured. Bearing and press-fit bores are called out to
0
TEXT
8
TEXT
10
496.000000
20
48.865146
30
0.0
40
2.4000
1
   REAM AFTER PRINTING in the note above.
0
LINE
8
FRAME
10
398.000000
20
10.000000
30
0.0
11
584.000000
21
10.000000
31
0.0
0
LINE
8
FRAME
10
584.000000
20
10.000000
30
0.0
11
584.000000
21
66.000000
31
0.0
0
LINE
8
FRAME
10
584.000000
20
66.000000
30
0.0
11
398.000000
21
66.000000
31
0.0
0
LINE
8
FRAME
10
398.000000
20
66.000000
30
0.0
11
398.000000
21
10.000000
31
0.0
0
LINE
8
TITLE
10
398.000000
20
53.000000
30
0.0
11
584.000000
21
53.000000
31
0.0
0
LINE
8
TITLE
10
398.000000
20
19.000000
30
0.0
11
584.000000
21
19.000000
31
0.0
0
LINE
8
TITLE
10
398.000000
20
27.500000
30
0.0
11
584.000000
21
27.500000
31
0.0
0
LINE
8
TITLE
10
398.000000
20
36.000000
30
0.0
11
584.000000
21
36.000000
31
0.0
0
LINE
8
TITLE
10
398.000000
20
44.500000
30
0.0
11
584.000000
21
44.500000
31
0.0
0
TEXT
8
TEXT
10
400.500000
20
59.500000
30
0.0
40
6.0000
1
MICRODUCK-TRUNK-BASE
72
0
73
2
11
400.500000
21
59.500000
31
0.0
0
LINE
8
TITLE
10
564.000000
20
53.000000
30
0.0
11
564.000000
21
66.000000
31
0.0
0
TEXT
8
TITLE
10
574.000000
20
63.600000
30
0.0
40
1.7000
1
REV
72
1
73
0
11
574.000000
21
63.600000
31
0.0
0
TEXT
8
TEXT
10
574.000000
20
55.000000
30
0.0
40
5.2000
1
A
72
1
73
0
11
574.000000
21
55.000000
31
0.0
0
LINE
8
TITLE
10
534.000000
20
53.000000
30
0.0
11
534.000000
21
66.000000
31
0.0
0
CIRCLE
8
TITLE
10
540.500000
20
59.500000
30
0.0
40
3.500000
0
CIRCLE
8
TITLE
10
540.500000
20
59.500000
30
0.0
40
1.960000
0
LINE
8
TITLE
10
550.300000
20
56.000000
30
0.0
11
550.300000
21
63.000000
31
0.0
0
LINE
8
TITLE
10
550.300000
20
63.000000
30
0.0
11
556.250000
21
61.460000
31
0.0
0
LINE
8
TITLE
10
556.250000
20
61.460000
30
0.0
11
556.250000
21
57.540000
31
0.0
0
LINE
8
TITLE
10
556.250000
20
57.540000
30
0.0
11
550.300000
21
56.000000
31
0.0
0
LINE
8
CENTER
10
535.500000
20
59.500000
30
0.0
11
557.750000
21
59.500000
31
0.0
0
LINE
8
TITLE
10
462.000000
20
19.000000
30
0.0
11
462.000000
21
53.000000
31
0.0
0
LINE
8
TITLE
10
526.000000
20
19.000000
30
0.0
11
526.000000
21
53.000000
31
0.0
0
TEXT
8
TITLE
10
399.600000
20
50.600000
30
0.0
40
1.7000
1
MATERIAL
0
TEXT
8
TEXT
10
399.600000
20
45.900000
30
0.0
40
2.5000
1
PLA
0
TEXT
8
TITLE
10
463.600000
20
50.600000
30
0.0
40
1.7000
1
PROCESS
0
TEXT
8
TEXT
10
463.600000
20
45.900000
30
0.0
40
2.5000
1
FDM
0
TEXT
8
TITLE
10
527.600000
20
50.600000
30
0.0
40
1.7000
1
SCALE
0
TEXT
8
TEXT
10
527.600000
20
45.900000
30
0.0
40
2.5000
1
1:1
0
TEXT
8
TITLE
10
399.600000
20
42.100000
30
0.0
40
1.7000
1
CATEGORY
0
TEXT
8
TEXT
10
399.600000
20
37.400000
30
0.0
40
2.5000
1
plate
0
TEXT
8
TITLE
10
431.600000
20
42.100000
30
0.0
40
1.7000
1
GENERAL TOL
0
TEXT
8
TEXT
10
431.600000
20
37.400000
30
0.0
40
2.5000
1
CANNOT DETERMINE —~
0
LINE
8
TITLE
10
430.000000
20
36.000000
30
0.0
11
430.000000
21
44.500000
31
0.0
0
TEXT
8
TITLE
10
463.600000
20
42.100000
30
0.0
40
1.7000
1
FINISH
0
TEXT
8
TEXT
10
463.600000
20
37.400000
30
0.0
40
2.5000
1
AS PRINTED
0
TEXT
8
TITLE
10
527.600000
20
42.100000
30
0.0
40
1.7000
1
SHEET
0
TEXT
8
TEXT
10
527.600000
20
37.400000
30
0.0
40
2.5000
1
A2  1/1
0
TEXT
8
TITLE
10
399.600000
20
33.600000
30
0.0
40
1.7000
1
VOLUME (MEASURED)
0
TEXT
8
TEXT
10
399.600000
20
28.900000
30
0.0
40
2.5000
1
1.41 cm3
0
TEXT
8
TITLE
10
463.600000
20
33.600000
30
0.0
40
1.7000
1
MASS (ASSUMES PLA)
0
TEXT
8
TEXT
10
463.600000
20
28.900000
30
0.0
40
2.5000
1
1.8 g
0
TEXT
8
TITLE
10
527.600000
20
33.600000
30
0.0
40
1.7000
1
UNITS
0
TEXT
8
TEXT
10
527.600000
20
28.900000
30
0.0
40
2.5000
1
mm / deg
0
TEXT
8
TITLE
10
399.600000
20
25.100000
30
0.0
40
1.7000
1
SIZE (BBOX, MEASURED)
0
TEXT
8
TEXT
10
399.600000
20
20.400000
30
0.0
40
2.5000
1
57.00 x 36.00 x 3.00
0
TEXT
8
TITLE
10
463.600000
20
25.100000
30
0.0
40
1.7000
1
DRAWN
0
TEXT
8
TEXT
10
463.600000
20
20.400000
30
0.0
40
2.5000
1
ce-cad  2026-09-02
0
TEXT
8
TITLE
10
527.600000
20
25.100000
30
0.0
40
1.7000
1
PROJECTION
0
TEXT
8
TEXT
10
527.600000
20
20.400000
30
0.0
40
2.5000
1
THIRD ANGLE
0
TEXT
8
TITLE
10
399.600000
20
16.600000
30
0.0
40
1.7000
1
SOURCE (DESIGN FILE)
0
TEXT
8
TEXT
10
399.600000
20
11.400000
30
0.0
40
2.6000
1
ce-parts/microduck-trunk-base/current/cad/part.py
0
TEXT
8
TEXT
10
12.500000
20
403.500000
30
0.0
40
4.2000
1
microduck-trunk-base   SCALE 1:1   A2   THIRD ANGLE
0
ENDSEC
0
EOF
