<svg xmlns="http://www.w3.org/2000/svg" width="791" height="1238" viewBox="0 0 791 1238"><rect width="100%" height="100%" fill="#fff"/><path d="M 689.448 186.151 A 83.986 83.986 0 0 0 668.394 130.346" fill="none" stroke="#111" stroke-width="1.2"/><line x1="689.449" y1="990.907" x2="682.984" y2="1023.748" stroke="#111" stroke-width="1.2"/><line x1="682.984" y1="1023.748" x2="668.467" y2="1046.852" stroke="#111" stroke-width="1.2"/><line x1="668.467" y1="1046.852" x2="668.467" y2="1045.049" stroke="#111" stroke-width="1.2"/><line x1="689.449" y1="990.907" x2="689.449" y2="988.669" stroke="#111" stroke-width="1.2"/><line x1="689.449" y1="990.907" x2="682.901" y2="1022.847" stroke="#111" stroke-width="1.2"/><line x1="682.901" y1="1022.847" x2="668.467" y2="1045.049" stroke="#111" stroke-width="1.2"/><line x1="689.449" y1="988.669" x2="689.449" y2="187.363" stroke="#111" stroke-width="1.2"/><line x1="689.449" y1="988.669" x2="682.851" y2="1019.849" stroke="#111" stroke-width="1.2"/><line x1="682.851" y1="1019.849" x2="668.467" y2="1041.061" stroke="#111" stroke-width="1.2"/><line x1="689.449" y1="187.363" x2="689.449" y2="186.151" stroke="#111" stroke-width="1.2"/><line x1="689.449" y1="187.363" x2="683.148" y2="155.612" stroke="#111" stroke-width="1.2"/><line x1="683.148" y1="155.612" x2="668.467" y2="132.017" stroke="#111" stroke-width="1.2"/><line x1="668.467" y1="1045.049" x2="668.467" y2="1041.061" stroke="#111" stroke-width="1.2"/><line x1="668.467" y1="1041.061" x2="668.467" y2="1034.929" stroke="#111" stroke-width="1.2"/><line x1="668.467" y1="1034.929" x2="668.467" y2="132.017" stroke="#111" stroke-width="1.2"/><line x1="668.467" y1="132.017" x2="668.467" y2="130.575" stroke="#111" stroke-width="1.2"/><line x1="605.522" y1="1039.711" x2="605.522" y2="1053.559" stroke="#111" stroke-width="1.2"/><line x1="605.522" y1="1053.559" x2="600.277" y2="1053.844" stroke="#111" stroke-width="1.2"/><line x1="605.522" y1="1039.711" x2="605.522" y2="101.963" stroke="#111" stroke-width="1.2"/><line x1="605.522" y1="101.963" x2="632.201" y2="106.353" stroke="#111" stroke-width="1.2"/><line x1="605.522" y1="1039.711" x2="607.620" y2="1039.711" stroke="#111" stroke-width="1.2"/><line x1="607.620" y1="1039.711" x2="607.620" y2="1055.448" stroke="#111" stroke-width="1.2"/><line x1="661.082" y1="1005.336" x2="668.467" y2="1005.336" stroke="#111" stroke-width="1.2"/><line x1="674.762" y1="1038.837" x2="674.762" y2="1048.103" stroke="#111" stroke-width="1.2"/><line x1="674.762" y1="1048.103" x2="661.084" y2="1048.103" stroke="#111" stroke-width="1.2"/><line x1="661.063" y1="995.649" x2="668.467" y2="995.649" stroke="#111" stroke-width="1.2"/><line x1="661.058" y1="978.864" x2="668.467" y2="978.864" stroke="#111" stroke-width="1.2"/><line x1="661.036" y1="659.943" x2="668.467" y2="659.943" stroke="#111" stroke-width="1.2"/><line x1="661.035" y1="643.158" x2="668.467" y2="643.158" stroke="#111" stroke-width="1.2"/><line x1="661.034" y1="633.471" x2="668.467" y2="633.471" stroke="#111" stroke-width="1.2"/><line x1="661.034" y1="590.704" x2="668.467" y2="590.704" stroke="#111" stroke-width="1.2"/><line x1="667.476" y1="189.124" x2="667.601" y2="159.007" stroke="#111" stroke-width="1.2"/><line x1="667.601" y1="159.007" x2="667.244" y2="129.573" stroke="#111" stroke-width="1.2"/><line x1="667.476" y1="189.124" x2="661.034" y2="231.093" stroke="#111" stroke-width="1.2"/><line x1="667.476" y1="189.124" x2="667.083" y2="227.532" stroke="#111" stroke-width="1.2"/><line x1="661.053" y1="743.136" x2="661.071" y2="671.483" stroke="#111" stroke-width="1.2"/><line x1="661.090" y1="590.704" x2="661.128" y2="434.076" stroke="#111" stroke-width="1.2"/><line x1="101.963" y1="1080.422" x2="101.963" y2="701.207" stroke="#111" stroke-width="1.2"/><line x1="101.963" y1="701.207" x2="112.454" y2="646.305" stroke="#111" stroke-width="1.2"/><line x1="112.454" y1="646.305" x2="133.436" y2="604.342" stroke="#111" stroke-width="1.2"/><line x1="133.436" y1="604.342" x2="154.417" y2="572.870" stroke="#111" stroke-width="1.2"/><line x1="154.417" y1="572.870" x2="175.399" y2="551.888" stroke="#111" stroke-width="1.2"/><line x1="175.399" y1="551.888" x2="196.381" y2="536.152" stroke="#111" stroke-width="1.2"/><line x1="196.381" y1="536.152" x2="238.344" y2="515.170" stroke="#111" stroke-width="1.2"/><line x1="238.344" y1="515.170" x2="259.325" y2="509.925" stroke="#111" stroke-width="1.2"/><line x1="259.325" y1="509.925" x2="280.307" y2="499.434" stroke="#111" stroke-width="1.2"/><line x1="280.307" y1="499.434" x2="301.289" y2="494.189" stroke="#111" stroke-width="1.2"/><line x1="301.289" y1="494.189" x2="322.270" y2="483.698" stroke="#111" stroke-width="1.2"/><line x1="322.270" y1="483.698" x2="364.234" y2="473.207" stroke="#111" stroke-width="1.2"/><line x1="364.234" y1="473.207" x2="385.215" y2="462.716" stroke="#111" stroke-width="1.2"/><line x1="385.215" y1="462.716" x2="469.142" y2="431.244" stroke="#111" stroke-width="1.2"/><line x1="469.142" y1="431.244" x2="511.105" y2="410.262" stroke="#111" stroke-width="1.2"/><line x1="511.105" y1="410.262" x2="553.068" y2="378.790" stroke="#111" stroke-width="1.2"/><line x1="553.068" y1="378.790" x2="567.755" y2="360.431" stroke="#111" stroke-width="1.2"/><line x1="101.963" y1="1080.422" x2="101.963" y2="1080.982" stroke="#111" stroke-width="1.2"/><line x1="101.963" y1="1080.422" x2="605.522" y2="1053.057" stroke="#111" stroke-width="1.2"/><line x1="101.963" y1="1080.982" x2="101.963" y2="1101.963" stroke="#111" stroke-width="1.2"/><line x1="101.963" y1="1101.963" x2="102.173" y2="1101.952" stroke="#111" stroke-width="1.2"/><line x1="101.963" y1="1080.982" x2="102.173" y2="1080.970" stroke="#111" stroke-width="1.2"/><line x1="594.612" y1="311.439" x2="605.522" y2="276.679" stroke="#111" stroke-width="1.2"/><line x1="661.105" y1="1041.085" x2="661.122" y2="1054.097" stroke="#111" stroke-width="1.2"/><line x1="661.122" y1="1054.097" x2="657.847" y2="1056.788" stroke="#111" stroke-width="1.2"/><line x1="661.105" y1="1041.085" x2="661.033" y2="663.483" stroke="#111" stroke-width="1.2"/><line x1="661.033" y1="663.483" x2="661.034" y2="157.632" stroke="#111" stroke-width="1.2"/><line x1="661.034" y1="157.632" x2="666.961" y2="128.907" stroke="#111" stroke-width="1.2"/><line x1="661.105" y1="1041.085" x2="641.930" y2="1050.652" stroke="#111" stroke-width="1.2"/><line x1="641.930" y1="1050.652" x2="607.620" y2="1055.448" stroke="#111" stroke-width="1.2"/><line x1="605.522" y1="1042.201" x2="607.620" y2="1041.657" stroke="#111" stroke-width="1.2"/><line x1="666.961" y1="128.907" x2="667.062" y2="128.821" stroke="#111" stroke-width="1.2"/><line x1="666.961" y1="128.907" x2="650.894" y2="115.410" stroke="#111" stroke-width="1.2"/><line x1="650.894" y1="115.410" x2="632.201" y2="106.353" stroke="#111" stroke-width="1.2"/><line x1="667.062" y1="128.821" x2="666.331" y2="131.927" stroke="#111" stroke-width="1.2"/><line x1="667.062" y1="128.821" x2="667.164" y2="128.841" stroke="#111" stroke-width="1.2"/><line x1="667.164" y1="128.841" x2="667.244" y2="129.573" stroke="#111" stroke-width="1.2"/><line x1="667.164" y1="128.841" x2="632.201" y2="106.353" stroke="#111" stroke-width="1.2"/><line x1="667.244" y1="129.573" x2="661.034" y2="159.146" stroke="#111" stroke-width="1.2"/><line x1="667.083" y1="227.532" x2="661.034" y2="261.125" stroke="#111" stroke-width="1.2"/><line x1="667.083" y1="227.532" x2="665.737" y2="281.540" stroke="#111" stroke-width="1.2"/><line x1="661.170" y1="908.244" x2="661.170" y2="895.672" stroke="#111" stroke-width="1.2"/><line x1="661.170" y1="908.244" x2="661.054" y2="908.246" stroke="#111" stroke-width="1.2"/><line x1="661.170" y1="908.244" x2="661.170" y2="928.839" stroke="#111" stroke-width="1.2"/><line x1="102.173" y1="1101.952" x2="103.012" y2="1101.906" stroke="#111" stroke-width="1.2"/><line x1="102.173" y1="1101.952" x2="102.173" y2="1080.970" stroke="#111" stroke-width="1.2"/><line x1="103.012" y1="1101.906" x2="112.454" y2="1101.392" stroke="#111" stroke-width="1.2"/><line x1="103.012" y1="1101.906" x2="103.012" y2="1080.924" stroke="#111" stroke-width="1.2"/><line x1="112.454" y1="1101.392" x2="122.945" y2="1100.821" stroke="#111" stroke-width="1.2"/><line x1="112.454" y1="1101.392" x2="112.454" y2="1080.410" stroke="#111" stroke-width="1.2"/><line x1="122.945" y1="1100.821" x2="143.926" y2="1099.678" stroke="#111" stroke-width="1.2"/><line x1="122.945" y1="1100.821" x2="122.945" y2="1079.839" stroke="#111" stroke-width="1.2"/><line x1="143.926" y1="1099.678" x2="154.417" y2="1099.107" stroke="#111" stroke-width="1.2"/><line x1="143.926" y1="1099.678" x2="143.926" y2="1078.696" stroke="#111" stroke-width="1.2"/><line x1="154.417" y1="1099.107" x2="164.908" y2="1098.535" stroke="#111" stroke-width="1.2"/><line x1="154.417" y1="1099.107" x2="154.417" y2="1078.125" stroke="#111" stroke-width="1.2"/><line x1="164.908" y1="1098.535" x2="175.399" y2="1097.964" stroke="#111" stroke-width="1.2"/><line x1="164.908" y1="1098.535" x2="164.908" y2="1077.554" stroke="#111" stroke-width="1.2"/><line x1="175.399" y1="1097.964" x2="196.381" y2="1096.821" stroke="#111" stroke-width="1.2"/><line x1="175.399" y1="1097.964" x2="175.399" y2="1076.982" stroke="#111" stroke-width="1.2"/><line x1="196.381" y1="1096.821" x2="217.362" y2="1095.679" stroke="#111" stroke-width="1.2"/><line x1="196.381" y1="1096.821" x2="196.381" y2="1075.840" stroke="#111" stroke-width="1.2"/><line x1="217.362" y1="1095.679" x2="259.325" y2="1093.394" stroke="#111" stroke-width="1.2"/><line x1="259.325" y1="1093.394" x2="259.325" y2="1072.412" stroke="#111" stroke-width="1.2"/><line x1="259.325" y1="1072.412" x2="217.362" y2="1074.697" stroke="#111" stroke-width="1.2"/><line x1="217.362" y1="1095.679" x2="217.362" y2="1074.697" stroke="#111" stroke-width="1.2"/><line x1="259.325" y1="1093.394" x2="469.142" y2="1081.967" stroke="#111" stroke-width="1.2"/><line x1="469.142" y1="1081.967" x2="511.105" y2="1079.682" stroke="#111" stroke-width="1.2"/><line x1="469.142" y1="1081.967" x2="469.142" y2="1060.986" stroke="#111" stroke-width="1.2"/><line x1="511.105" y1="1079.682" x2="532.087" y2="1078.539" stroke="#111" stroke-width="1.2"/><line x1="511.105" y1="1079.682" x2="511.105" y2="1058.700" stroke="#111" stroke-width="1.2"/><line x1="532.087" y1="1078.539" x2="542.577" y2="1077.968" stroke="#111" stroke-width="1.2"/><line x1="532.087" y1="1078.539" x2="532.087" y2="1057.558" stroke="#111" stroke-width="1.2"/><line x1="542.577" y1="1077.968" x2="553.068" y2="1077.397" stroke="#111" stroke-width="1.2"/><line x1="542.577" y1="1077.968" x2="542.577" y2="1056.987" stroke="#111" stroke-width="1.2"/><line x1="553.068" y1="1077.397" x2="563.559" y2="1076.826" stroke="#111" stroke-width="1.2"/><line x1="553.068" y1="1077.397" x2="553.068" y2="1056.415" stroke="#111" stroke-width="1.2"/><line x1="563.559" y1="1076.826" x2="584.541" y2="1075.683" stroke="#111" stroke-width="1.2"/><line x1="563.559" y1="1076.826" x2="563.559" y2="1055.844" stroke="#111" stroke-width="1.2"/><line x1="584.541" y1="1075.683" x2="595.031" y2="1075.112" stroke="#111" stroke-width="1.2"/><line x1="584.541" y1="1075.683" x2="584.541" y2="1054.701" stroke="#111" stroke-width="1.2"/><line x1="595.031" y1="1075.112" x2="600.277" y2="1074.826" stroke="#111" stroke-width="1.2"/><line x1="595.031" y1="1075.112" x2="595.031" y2="1054.130" stroke="#111" stroke-width="1.2"/><line x1="600.277" y1="1074.826" x2="605.522" y2="1074.540" stroke="#111" stroke-width="1.2"/><line x1="600.277" y1="1074.826" x2="600.277" y2="1053.844" stroke="#111" stroke-width="1.2"/><line x1="605.522" y1="1074.540" x2="605.522" y2="1064.340" stroke="#111" stroke-width="1.2"/><line x1="605.522" y1="1064.340" x2="607.620" y2="1063.894" stroke="#111" stroke-width="1.2"/><line x1="607.620" y1="1063.894" x2="607.620" y2="1055.448" stroke="#111" stroke-width="1.2"/><line x1="605.522" y1="1074.540" x2="605.522" y2="1075.353" stroke="#111" stroke-width="1.2"/><line x1="605.522" y1="1075.353" x2="633.857" y2="1070.449" stroke="#111" stroke-width="1.2"/><line x1="633.857" y1="1070.449" x2="657.847" y2="1056.788" stroke="#111" stroke-width="1.2"/><line x1="600.277" y1="1053.844" x2="595.031" y2="1054.130" stroke="#111" stroke-width="1.2"/><line x1="595.031" y1="1054.130" x2="584.541" y2="1054.701" stroke="#111" stroke-width="1.2"/><line x1="584.541" y1="1054.701" x2="574.050" y2="1055.273" stroke="#111" stroke-width="1.2"/><line x1="574.050" y1="1055.273" x2="563.559" y2="1055.844" stroke="#111" stroke-width="1.2"/><line x1="574.050" y1="1055.273" x2="574.050" y2="1076.254" stroke="#111" stroke-width="1.2"/><line x1="563.559" y1="1055.844" x2="553.068" y2="1056.415" stroke="#111" stroke-width="1.2"/><line x1="553.068" y1="1056.415" x2="542.577" y2="1056.987" stroke="#111" stroke-width="1.2"/><line x1="542.577" y1="1056.987" x2="532.087" y2="1057.558" stroke="#111" stroke-width="1.2"/><line x1="532.087" y1="1057.558" x2="511.105" y2="1058.700" stroke="#111" stroke-width="1.2"/><line x1="511.105" y1="1058.700" x2="469.142" y2="1060.986" stroke="#111" stroke-width="1.2"/><line x1="469.142" y1="1060.986" x2="259.325" y2="1072.412" stroke="#111" stroke-width="1.2"/><line x1="217.362" y1="1074.697" x2="175.399" y2="1076.982" stroke="#111" stroke-width="1.2"/><line x1="175.399" y1="1076.982" x2="164.908" y2="1077.554" stroke="#111" stroke-width="1.2"/><line x1="164.908" y1="1077.554" x2="154.417" y2="1078.125" stroke="#111" stroke-width="1.2"/><line x1="154.417" y1="1078.125" x2="143.926" y2="1078.696" stroke="#111" stroke-width="1.2"/><line x1="143.926" y1="1078.696" x2="122.945" y2="1079.839" stroke="#111" stroke-width="1.2"/><line x1="122.945" y1="1079.839" x2="112.454" y2="1080.410" stroke="#111" stroke-width="1.2"/><line x1="112.454" y1="1080.410" x2="103.012" y2="1080.924" stroke="#111" stroke-width="1.2"/><line x1="103.012" y1="1080.924" x2="102.173" y2="1080.970" stroke="#111" stroke-width="1.2"/><line x1="661.170" y1="928.839" x2="661.057" y2="928.841" stroke="#111" stroke-width="1.2"/><line x1="661.170" y1="928.839" x2="661.170" y2="948.380" stroke="#111" stroke-width="1.2"/><line x1="133.436" y1="1100.249" x2="133.436" y2="1079.268" stroke="#111" stroke-width="1.2"/><line x1="661.170" y1="1051.555" x2="661.107" y2="1053.256" stroke="#111" stroke-width="1.2"/><line x1="661.170" y1="1051.555" x2="661.113" y2="1051.557" stroke="#111" stroke-width="1.2"/><line x1="661.170" y1="1051.555" x2="661.170" y2="1050.437" stroke="#111" stroke-width="1.2"/><line x1="605.522" y1="1073.838" x2="635.770" y2="1068.784" stroke="#111" stroke-width="1.2"/><line x1="635.770" y1="1068.784" x2="657.847" y2="1056.788" stroke="#111" stroke-width="1.2"/><line x1="661.120" y1="1053.967" x2="661.128" y2="1053.968" stroke="#111" stroke-width="1.2"/><line x1="661.128" y1="1053.968" x2="661.120" y2="1054.000" stroke="#111" stroke-width="1.2"/><line x1="661.170" y1="948.380" x2="661.060" y2="948.382" stroke="#111" stroke-width="1.2"/><line x1="661.170" y1="948.380" x2="661.170" y2="966.679" stroke="#111" stroke-width="1.2"/><line x1="661.170" y1="1050.437" x2="661.170" y2="1048.103" stroke="#111" stroke-width="1.2"/><line x1="661.170" y1="1050.437" x2="661.104" y2="1050.440" stroke="#111" stroke-width="1.2"/><line x1="661.170" y1="967.324" x2="661.170" y2="966.679" stroke="#111" stroke-width="1.2"/><line x1="661.170" y1="966.679" x2="661.063" y2="966.681" stroke="#111" stroke-width="1.2"/><line x1="661.064" y1="967.324" x2="668.467" y2="967.324" stroke="#111" stroke-width="1.2"/><line x1="661.035" y1="743.136" x2="668.467" y2="743.136" stroke="#111" stroke-width="1.2"/><line x1="661.060" y1="895.672" x2="668.467" y2="895.672" stroke="#111" stroke-width="1.2"/><line x1="661.034" y1="281.540" x2="668.467" y2="281.540" stroke="#111" stroke-width="1.2"/><line x1="661.034" y1="434.076" x2="668.467" y2="434.076" stroke="#111" stroke-width="1.2"/><line x1="661.036" y1="671.483" x2="668.467" y2="671.483" stroke="#111" stroke-width="1.2"/><line x1="605.522" y1="773.034" x2="567.755" y2="773.034" stroke="#111" stroke-width="1.2"/><line x1="567.755" y1="773.034" x2="567.755" y2="865.773" stroke="#111" stroke-width="1.2"/><line x1="567.755" y1="865.773" x2="605.522" y2="865.773" stroke="#111" stroke-width="1.2"/><line x1="605.522" y1="311.439" x2="567.755" y2="311.439" stroke="#111" stroke-width="1.2"/><line x1="567.755" y1="311.439" x2="567.755" y2="404.177" stroke="#111" stroke-width="1.2"/><line x1="567.755" y1="404.177" x2="605.522" y2="404.177" stroke="#111" stroke-width="1.2"/><line x1="605.522" y1="968.424" x2="563.559" y2="970.471" stroke="#111" stroke-width="1.2"/><line x1="563.559" y1="970.471" x2="563.559" y2="1004.042" stroke="#111" stroke-width="1.2"/><line x1="563.559" y1="1004.042" x2="605.522" y2="1006.089" stroke="#111" stroke-width="1.2"/><line x1="567.755" y1="812.905" x2="563.559" y2="813.109" stroke="#111" stroke-width="1.2"/><line x1="563.559" y1="813.109" x2="563.559" y2="846.680" stroke="#111" stroke-width="1.2"/><line x1="563.559" y1="846.680" x2="567.755" y2="846.885" stroke="#111" stroke-width="1.2"/><line x1="605.522" y1="632.718" x2="563.559" y2="634.765" stroke="#111" stroke-width="1.2"/><line x1="563.559" y1="634.765" x2="563.559" y2="668.336" stroke="#111" stroke-width="1.2"/><line x1="563.559" y1="668.336" x2="605.522" y2="670.383" stroke="#111" stroke-width="1.2"/><text x="10" y="1229" font-family="Helvetica" font-size="22" fill="#000">microduck-upper-leg-left  top  AFTER visible-only  185 prims</text></svg>