<svg xmlns="http://www.w3.org/2000/svg" width="645" height="1220" viewBox="0 0 645 1220"><rect width="100%" height="100%" fill="#fff"/><path d="M 92.797 1026.807 A 65.649 65.649 0 0 0 109.254 1070.514" fill="none" stroke="#111" stroke-width="1.2"/><line x1="92.796" y1="1026.807" x2="92.796" y2="174.049" stroke="#111" stroke-width="1.2"/><line x1="92.796" y1="174.049" x2="95.105" y2="156.634" stroke="#111" stroke-width="1.2"/><line x1="95.105" y1="156.634" x2="104.274" y2="136.396" stroke="#111" stroke-width="1.2"/><line x1="109.194" y1="530.438" x2="109.194" y2="1070.325" stroke="#111" stroke-width="1.2"/><line x1="109.194" y1="517.320" x2="109.194" y2="143.057" stroke="#111" stroke-width="1.2"/><line x1="109.194" y1="143.057" x2="104.274" y2="149.633" stroke="#111" stroke-width="1.2"/><line x1="104.274" y1="149.633" x2="104.274" y2="127.427" stroke="#111" stroke-width="1.2"/><line x1="104.274" y1="127.427" x2="127.822" y2="127.427" stroke="#111" stroke-width="1.2"/><line x1="127.822" y1="127.427" x2="114.914" y2="137.026" stroke="#111" stroke-width="1.2"/><line x1="114.914" y1="137.026" x2="114.896" y2="137.196" stroke="#111" stroke-width="1.2"/><line x1="114.896" y1="137.196" x2="114.987" y2="1076.166" stroke="#111" stroke-width="1.2"/><line x1="114.896" y1="530.438" x2="104.274" y2="530.438" stroke="#111" stroke-width="1.2"/><line x1="104.274" y1="530.438" x2="104.274" y2="517.320" stroke="#111" stroke-width="1.2"/><line x1="104.274" y1="517.320" x2="114.896" y2="517.320" stroke="#111" stroke-width="1.2"/><line x1="114.896" y1="538.009" x2="109.194" y2="538.009" stroke="#111" stroke-width="1.2"/><line x1="114.896" y1="571.433" x2="109.194" y2="571.433" stroke="#111" stroke-width="1.2"/><line x1="114.896" y1="476.325" x2="109.194" y2="476.325" stroke="#111" stroke-width="1.2"/><line x1="114.896" y1="509.749" x2="109.194" y2="509.749" stroke="#111" stroke-width="1.2"/><line x1="114.896" y1="160.851" x2="109.194" y2="160.851" stroke="#111" stroke-width="1.2"/><line x1="114.896" y1="168.422" x2="109.194" y2="168.422" stroke="#111" stroke-width="1.2"/><line x1="114.896" y1="181.540" x2="109.194" y2="181.540" stroke="#111" stroke-width="1.2"/><line x1="114.896" y1="189.111" x2="109.194" y2="189.111" stroke="#111" stroke-width="1.2"/><line x1="114.896" y1="222.535" x2="109.194" y2="222.535" stroke="#111" stroke-width="1.2"/><line x1="114.896" y1="833.225" x2="109.194" y2="833.225" stroke="#111" stroke-width="1.2"/><line x1="114.896" y1="246.558" x2="109.194" y2="246.558" stroke="#111" stroke-width="1.2"/><line x1="114.896" y1="423.217" x2="109.194" y2="423.217" stroke="#111" stroke-width="1.2"/><line x1="114.896" y1="389.793" x2="109.194" y2="389.793" stroke="#111" stroke-width="1.2"/><line x1="114.896" y1="430.788" x2="109.194" y2="430.788" stroke="#111" stroke-width="1.2"/><line x1="114.896" y1="443.906" x2="109.194" y2="443.906" stroke="#111" stroke-width="1.2"/><line x1="114.896" y1="451.477" x2="109.194" y2="451.477" stroke="#111" stroke-width="1.2"/><line x1="109.871" y1="222.535" x2="109.898" y2="246.558" stroke="#111" stroke-width="1.2"/><line x1="158.387" y1="106.311" x2="141.680" y2="108.527" stroke="#111" stroke-width="1.2"/><line x1="141.680" y1="108.527" x2="114.051" y2="124.695" stroke="#111" stroke-width="1.2"/><line x1="114.051" y1="124.695" x2="114.910" y2="123.986" stroke="#111" stroke-width="1.2"/><line x1="114.910" y1="123.986" x2="114.936" y2="127.427" stroke="#111" stroke-width="1.2"/><line x1="114.051" y1="124.695" x2="113.497" y2="126.373" stroke="#111" stroke-width="1.2"/><line x1="187.904" y1="904.736" x2="187.904" y2="929.071" stroke="#111" stroke-width="1.2"/><line x1="187.904" y1="929.071" x2="171.160" y2="929.071" stroke="#111" stroke-width="1.2"/><line x1="158.387" y1="994.258" x2="158.387" y2="950.739" stroke="#111" stroke-width="1.2"/><line x1="158.387" y1="994.258" x2="158.387" y2="1092.796" stroke="#111" stroke-width="1.2"/><line x1="158.387" y1="1092.796" x2="136.357" y2="1088.935" stroke="#111" stroke-width="1.2"/><line x1="136.357" y1="1088.935" x2="125.503" y2="1083.821" stroke="#111" stroke-width="1.2"/><line x1="158.387" y1="994.258" x2="156.748" y2="994.167" stroke="#111" stroke-width="1.2"/><line x1="156.748" y1="994.167" x2="156.748" y2="951.864" stroke="#111" stroke-width="1.2"/><line x1="156.748" y1="951.864" x2="158.387" y2="950.739" stroke="#111" stroke-width="1.2"/><line x1="158.387" y1="950.739" x2="162.487" y2="947.928" stroke="#111" stroke-width="1.2"/><line x1="162.487" y1="947.928" x2="166.586" y2="937.761" stroke="#111" stroke-width="1.2"/><line x1="166.586" y1="937.761" x2="174.785" y2="922.184" stroke="#111" stroke-width="1.2"/><line x1="174.785" y1="922.184" x2="182.984" y2="910.541" stroke="#111" stroke-width="1.2"/><line x1="182.984" y1="910.541" x2="191.183" y2="900.866" stroke="#111" stroke-width="1.2"/><line x1="191.183" y1="900.866" x2="199.382" y2="892.995" stroke="#111" stroke-width="1.2"/><line x1="199.382" y1="892.995" x2="207.581" y2="886.436" stroke="#111" stroke-width="1.2"/><line x1="207.581" y1="886.436" x2="215.780" y2="880.697" stroke="#111" stroke-width="1.2"/><line x1="215.780" y1="880.697" x2="232.178" y2="871.842" stroke="#111" stroke-width="1.2"/><line x1="232.178" y1="871.842" x2="264.974" y2="859.380" stroke="#111" stroke-width="1.2"/><line x1="264.974" y1="859.380" x2="428.952" y2="799.691" stroke="#111" stroke-width="1.2"/><line x1="428.952" y1="799.691" x2="461.748" y2="786.409" stroke="#111" stroke-width="1.2"/><line x1="461.748" y1="786.409" x2="478.146" y2="776.898" stroke="#111" stroke-width="1.2"/><line x1="478.146" y1="776.898" x2="494.544" y2="764.600" stroke="#111" stroke-width="1.2"/><line x1="494.544" y1="764.600" x2="502.743" y2="757.057" stroke="#111" stroke-width="1.2"/><line x1="502.743" y1="757.057" x2="510.942" y2="748.530" stroke="#111" stroke-width="1.2"/><line x1="510.942" y1="748.530" x2="519.141" y2="738.363" stroke="#111" stroke-width="1.2"/><line x1="519.141" y1="738.363" x2="527.340" y2="726.393" stroke="#111" stroke-width="1.2"/><line x1="527.340" y1="726.393" x2="535.539" y2="711.471" stroke="#111" stroke-width="1.2"/><line x1="535.539" y1="711.471" x2="543.738" y2="691.137" stroke="#111" stroke-width="1.2"/><line x1="543.738" y1="691.137" x2="551.117" y2="656.210" stroke="#111" stroke-width="1.2"/><line x1="551.117" y1="656.210" x2="551.937" y2="645.074" stroke="#111" stroke-width="1.2"/><line x1="551.937" y1="645.074" x2="551.937" y2="317.757" stroke="#111" stroke-width="1.2"/><line x1="158.387" y1="950.739" x2="158.387" y2="317.757" stroke="#111" stroke-width="1.2"/><line x1="113.497" y1="126.373" x2="113.031" y2="127.427" stroke="#111" stroke-width="1.2"/><line x1="113.497" y1="126.373" x2="114.928" y2="126.435" stroke="#111" stroke-width="1.2"/><line x1="551.937" y1="317.757" x2="551.937" y2="93.929" stroke="#111" stroke-width="1.2"/><line x1="551.937" y1="93.929" x2="543.738" y2="92.978" stroke="#111" stroke-width="1.2"/><line x1="543.738" y1="92.978" x2="527.340" y2="92.796" stroke="#111" stroke-width="1.2"/><line x1="527.340" y1="92.796" x2="510.942" y2="92.877" stroke="#111" stroke-width="1.2"/><line x1="510.942" y1="92.877" x2="478.146" y2="93.700" stroke="#111" stroke-width="1.2"/><line x1="478.146" y1="93.700" x2="445.350" y2="94.921" stroke="#111" stroke-width="1.2"/><line x1="445.350" y1="94.921" x2="379.759" y2="97.621" stroke="#111" stroke-width="1.2"/><line x1="379.759" y1="97.621" x2="346.963" y2="99.103" stroke="#111" stroke-width="1.2"/><line x1="346.963" y1="99.103" x2="264.974" y2="102.388" stroke="#111" stroke-width="1.2"/><line x1="264.974" y1="102.388" x2="232.178" y2="103.586" stroke="#111" stroke-width="1.2"/><line x1="232.178" y1="103.586" x2="199.382" y2="104.503" stroke="#111" stroke-width="1.2"/><line x1="199.382" y1="104.503" x2="182.984" y2="104.682" stroke="#111" stroke-width="1.2"/><line x1="182.984" y1="104.682" x2="166.586" y2="104.442" stroke="#111" stroke-width="1.2"/><line x1="166.586" y1="104.442" x2="158.387" y2="103.977" stroke="#111" stroke-width="1.2"/><line x1="158.387" y1="103.977" x2="158.387" y2="317.757" stroke="#111" stroke-width="1.2"/><line x1="551.937" y1="317.757" x2="158.387" y2="317.757" stroke="#111" stroke-width="1.2"/><line x1="158.387" y1="956.150" x2="156.748" y2="956.121" stroke="#111" stroke-width="1.2"/><line x1="114.987" y1="1076.166" x2="114.999" y2="1076.337" stroke="#111" stroke-width="1.2"/><line x1="114.999" y1="1076.337" x2="114.989" y2="1076.329" stroke="#111" stroke-width="1.2"/><line x1="114.987" y1="1076.166" x2="125.503" y2="1083.821" stroke="#111" stroke-width="1.2"/><line x1="114.989" y1="1076.329" x2="114.990" y2="1076.210" stroke="#111" stroke-width="1.2"/><line x1="114.989" y1="1076.329" x2="125.503" y2="1083.821" stroke="#111" stroke-width="1.2"/><line x1="114.994" y1="1075.629" x2="114.991" y2="1076.166" stroke="#111" stroke-width="1.2"/><line x1="114.994" y1="1073.722" x2="114.993" y2="1074.238" stroke="#111" stroke-width="1.2"/><line x1="114.995" y1="1070.557" x2="114.995" y2="1070.563" stroke="#111" stroke-width="1.2"/><line x1="113.607" y1="384.925" x2="113.944" y2="389.793" stroke="#111" stroke-width="1.2"/><line x1="113.607" y1="384.925" x2="114.896" y2="386.597" stroke="#111" stroke-width="1.2"/><line x1="113.607" y1="384.925" x2="112.826" y2="378.331" stroke="#111" stroke-width="1.2"/><line x1="112.826" y1="378.331" x2="112.555" y2="373.331" stroke="#111" stroke-width="1.2"/><line x1="112.555" y1="373.331" x2="111.936" y2="365.770" stroke="#111" stroke-width="1.2"/><line x1="114.896" y1="368.202" x2="113.880" y2="365.770" stroke="#111" stroke-width="1.2"/><line x1="114.968" y1="952.438" x2="109.194" y2="952.438" stroke="#111" stroke-width="1.2"/><line x1="114.896" y1="365.770" x2="109.194" y2="365.770" stroke="#111" stroke-width="1.2"/><text x="10" y="1211" font-family="Helvetica" font-size="22" fill="#000">microduck-upper-leg-left  front  AFTER visible-only  105 prims</text></svg>