0
SECTION
2
HEADER
9
$ACADVER
1
AC1009
9
$INSUNITS
70
4
9
$LTSCALE
40
1.0
9
$EXTMIN
10
0.0000
20
0.0000
30
0.0
9
$EXTMAX
10
420.0000
20
297.0000
30
0.0
0
ENDSEC
0
SECTION
2
TABLES
0
TABLE
2
LTYPE
70
4
0
LTYPE
2
CONTINUOUS
70
0
3
Solid line
72
65
73
0
40
0.0000
0
LTYPE
2
HIDDEN
70
0
3
Hidden __ __ __ __
72
65
73
2
40
3.6000
49
2.4000
49
-1.2000
0
LTYPE
2
CENTER
70
0
3
Center ____ _ ____ _
72
65
73
4
40
11.2000
49
7.0000
49
-1.4000
49
1.4000
49
-1.4000
0
LTYPE
2
PHANTOM
70
0
3
Phantom ____ _ _ ____
72
65
73
6
40
21.0000
49
11.0000
49
-2.0000
49
2.0000
49
-2.0000
49
2.0000
49
-2.0000
0
ENDTAB
0
TABLE
2
LAYER
70
12
0
LAYER
2
0
70
0
62
7
6
CONTINUOUS
0
LAYER
2
VISIBLE
70
0
62
7
6
CONTINUOUS
0
LAYER
2
SECTION
70
0
62
7
6
CONTINUOUS
0
LAYER
2
HIDDEN
70
0
62
8
6
HIDDEN
0
LAYER
2
CENTER
70
0
62
4
6
CENTER
0
LAYER
2
DIM
70
0
62
3
6
CONTINUOUS
0
LAYER
2
TEXT
70
0
62
3
6
CONTINUOUS
0
LAYER
2
HATCH
70
0
62
5
6
CONTINUOUS
0
LAYER
2
CUT
70
0
62
1
6
PHANTOM
0
LAYER
2
CUTTHIN
70
0
62
1
6
PHANTOM
0
LAYER
2
FRAME
70
0
62
7
6
CONTINUOUS
0
LAYER
2
TITLE
70
0
62
7
6
CONTINUOUS
0
ENDTAB
0
ENDSEC
0
SECTION
2
ENTITIES
0
LINE
8
TITLE
10
5.000000
20
5.000000
30
0.0
11
415.000000
21
5.000000
31
0.0
0
LINE
8
TITLE
10
415.000000
20
5.000000
30
0.0
11
415.000000
21
292.000000
31
0.0
0
LINE
8
TITLE
10
415.000000
20
292.000000
30
0.0
11
5.000000
21
292.000000
31
0.0
0
LINE
8
TITLE
10
5.000000
20
292.000000
30
0.0
11
5.000000
21
5.000000
31
0.0
0
LINE
8
FRAME
10
10.000000
20
10.000000
30
0.0
11
410.000000
21
10.000000
31
0.0
0
LINE
8
FRAME
10
410.000000
20
10.000000
30
0.0
11
410.000000
21
287.000000
31
0.0
0
LINE
8
FRAME
10
410.000000
20
287.000000
30
0.0
11
10.000000
21
287.000000
31
0.0
0
LINE
8
FRAME
10
10.000000
20
287.000000
30
0.0
11
10.000000
21
10.000000
31
0.0
0
TEXT
8
TITLE
10
60.000000
20
289.500000
30
0.0
40
2.4000
1
1
72
1
73
2
11
60.000000
21
289.500000
31
0.0
0
TEXT
8
TITLE
10
60.000000
20
7.500000
30
0.0
40
2.4000
1
1
72
1
73
2
11
60.000000
21
7.500000
31
0.0
0
TEXT
8
TITLE
10
160.000000
20
289.500000
30
0.0
40
2.4000
1
2
72
1
73
2
11
160.000000
21
289.500000
31
0.0
0
TEXT
8
TITLE
10
160.000000
20
7.500000
30
0.0
40
2.4000
1
2
72
1
73
2
11
160.000000
21
7.500000
31
0.0
0
LINE
8
TITLE
10
110.000000
20
5.000000
30
0.0
11
110.000000
21
10.000000
31
0.0
0
LINE
8
TITLE
10
110.000000
20
287.000000
30
0.0
11
110.000000
21
292.000000
31
0.0
0
TEXT
8
TITLE
10
260.000000
20
289.500000
30
0.0
40
2.4000
1
3
72
1
73
2
11
260.000000
21
289.500000
31
0.0
0
TEXT
8
TITLE
10
260.000000
20
7.500000
30
0.0
40
2.4000
1
3
72
1
73
2
11
260.000000
21
7.500000
31
0.0
0
LINE
8
TITLE
10
210.000000
20
5.000000
30
0.0
11
210.000000
21
10.000000
31
0.0
0
LINE
8
TITLE
10
210.000000
20
287.000000
30
0.0
11
210.000000
21
292.000000
31
0.0
0
TEXT
8
TITLE
10
360.000000
20
289.500000
30
0.0
40
2.4000
1
4
72
1
73
2
11
360.000000
21
289.500000
31
0.0
0
TEXT
8
TITLE
10
360.000000
20
7.500000
30
0.0
40
2.4000
1
4
72
1
73
2
11
360.000000
21
7.500000
31
0.0
0
LINE
8
TITLE
10
310.000000
20
5.000000
30
0.0
11
310.000000
21
10.000000
31
0.0
0
LINE
8
TITLE
10
310.000000
20
287.000000
30
0.0
11
310.000000
21
292.000000
31
0.0
0
TEXT
8
TITLE
10
7.500000
20
56.166667
30
0.0
40
2.4000
1
C
72
1
73
2
11
7.500000
21
56.166667
31
0.0
0
TEXT
8
TITLE
10
412.500000
20
56.166667
30
0.0
40
2.4000
1
C
72
1
73
2
11
412.500000
21
56.166667
31
0.0
0
TEXT
8
TITLE
10
7.500000
20
148.500000
30
0.0
40
2.4000
1
B
72
1
73
2
11
7.500000
21
148.500000
31
0.0
0
TEXT
8
TITLE
10
412.500000
20
148.500000
30
0.0
40
2.4000
1
B
72
1
73
2
11
412.500000
21
148.500000
31
0.0
0
LINE
8
TITLE
10
5.000000
20
102.333333
30
0.0
11
10.000000
21
102.333333
31
0.0
0
LINE
8
TITLE
10
410.000000
20
102.333333
30
0.0
11
415.000000
21
102.333333
31
0.0
0
TEXT
8
TITLE
10
7.500000
20
240.833333
30
0.0
40
2.4000
1
A
72
1
73
2
11
7.500000
21
240.833333
31
0.0
0
TEXT
8
TITLE
10
412.500000
20
240.833333
30
0.0
40
2.4000
1
A
72
1
73
2
11
412.500000
21
240.833333
31
0.0
0
LINE
8
TITLE
10
5.000000
20
194.666667
30
0.0
11
10.000000
21
194.666667
31
0.0
0
LINE
8
TITLE
10
410.000000
20
194.666667
30
0.0
11
415.000000
21
194.666667
31
0.0
0
LINE
8
VISIBLE
10
147.875000
20
212.500000
30
0.0
11
147.798141
21
213.280361
31
0.0
0
LINE
8
VISIBLE
10
147.875000
20
148.500000
30
0.0
11
147.875000
21
212.500000
31
0.0
0
LINE
8
VISIBLE
10
147.798141
20
213.280361
30
0.0
11
147.570518
21
214.030734
31
0.0
0
LINE
8
VISIBLE
10
147.798141
20
147.719639
30
0.0
11
147.875000
21
148.500000
31
0.0
0
LINE
8
VISIBLE
10
147.570518
20
214.030734
30
0.0
11
147.200878
21
214.722281
31
0.0
0
LINE
8
VISIBLE
10
147.570518
20
146.969266
30
0.0
11
147.798141
21
147.719639
31
0.0
0
LINE
8
VISIBLE
10
147.200878
20
214.722281
30
0.0
11
146.703427
21
215.328427
31
0.0
0
LINE
8
VISIBLE
10
147.200878
20
146.277719
30
0.0
11
147.570518
21
146.969266
31
0.0
0
LINE
8
VISIBLE
10
146.703427
20
215.328427
30
0.0
11
146.097281
21
215.825878
31
0.0
0
LINE
8
VISIBLE
10
146.703427
20
145.671573
30
0.0
11
147.200878
21
146.277719
31
0.0
0
LINE
8
VISIBLE
10
146.097281
20
215.825878
30
0.0
11
145.405734
21
216.195518
31
0.0
0
LINE
8
VISIBLE
10
146.097281
20
145.174122
30
0.0
11
146.703427
21
145.671573
31
0.0
0
LINE
8
VISIBLE
10
145.405734
20
216.195518
30
0.0
11
144.655361
21
216.423141
31
0.0
0
LINE
8
VISIBLE
10
145.405734
20
144.804482
30
0.0
11
146.097281
21
145.174122
31
0.0
0
LINE
8
VISIBLE
10
144.655361
20
216.423141
30
0.0
11
143.875000
21
216.500000
31
0.0
0
LINE
8
VISIBLE
10
144.655361
20
144.576859
30
0.0
11
145.405734
21
144.804482
31
0.0
0
LINE
8
VISIBLE
10
143.875000
20
216.500000
30
0.0
11
37.875000
21
216.500000
31
0.0
0
LINE
8
VISIBLE
10
143.875000
20
144.500000
30
0.0
11
144.655361
21
144.576859
31
0.0
0
LINE
8
VISIBLE
10
37.875000
20
216.500000
30
0.0
11
37.094639
21
216.423141
31
0.0
0
LINE
8
VISIBLE
10
37.875000
20
144.500000
30
0.0
11
143.875000
21
144.500000
31
0.0
0
LINE
8
VISIBLE
10
37.094639
20
216.423141
30
0.0
11
36.344266
21
216.195518
31
0.0
0
LINE
8
VISIBLE
10
37.094639
20
144.576859
30
0.0
11
37.875000
21
144.500000
31
0.0
0
LINE
8
VISIBLE
10
36.344266
20
216.195518
30
0.0
11
35.652719
21
215.825878
31
0.0
0
LINE
8
VISIBLE
10
36.344266
20
144.804482
30
0.0
11
37.094639
21
144.576859
31
0.0
0
LINE
8
VISIBLE
10
35.652719
20
215.825878
30
0.0
11
35.046573
21
215.328427
31
0.0
0
LINE
8
VISIBLE
10
35.652719
20
145.174122
30
0.0
11
36.344266
21
144.804482
31
0.0
0
LINE
8
VISIBLE
10
35.046573
20
215.328427
30
0.0
11
34.549122
21
214.722281
31
0.0
0
LINE
8
VISIBLE
10
35.046573
20
145.671573
30
0.0
11
35.652719
21
145.174122
31
0.0
0
LINE
8
VISIBLE
10
34.549122
20
214.722281
30
0.0
11
34.179482
21
214.030734
31
0.0
0
LINE
8
VISIBLE
10
34.549122
20
146.277719
30
0.0
11
35.046573
21
145.671573
31
0.0
0
LINE
8
VISIBLE
10
34.179482
20
214.030734
30
0.0
11
33.951859
21
213.280361
31
0.0
0
LINE
8
VISIBLE
10
34.179482
20
146.969266
30
0.0
11
34.549122
21
146.277719
31
0.0
0
LINE
8
VISIBLE
10
33.951859
20
213.280361
30
0.0
11
33.875000
21
212.500000
31
0.0
0
LINE
8
VISIBLE
10
33.951859
20
147.719639
30
0.0
11
34.179482
21
146.969266
31
0.0
0
LINE
8
VISIBLE
10
33.875000
20
212.500000
30
0.0
11
33.875000
21
148.500000
31
0.0
0
LINE
8
VISIBLE
10
33.875000
20
148.500000
30
0.0
11
33.951859
21
147.719639
31
0.0
0
CIRCLE
8
VISIBLE
10
55.875000
20
166.500000
30
0.0
40
19.000000
0
LINE
8
VISIBLE
10
96.570518
20
188.030734
30
0.0
11
96.798141
21
187.280361
31
0.0
0
LINE
8
VISIBLE
10
96.200878
20
188.722281
30
0.0
11
96.570518
21
188.030734
31
0.0
0
LINE
8
VISIBLE
10
95.703427
20
189.328427
30
0.0
11
96.200878
21
188.722281
31
0.0
0
LINE
8
VISIBLE
10
95.097281
20
189.825878
30
0.0
11
95.703427
21
189.328427
31
0.0
0
LINE
8
VISIBLE
10
94.405734
20
190.195518
30
0.0
11
95.097281
21
189.825878
31
0.0
0
LINE
8
VISIBLE
10
93.655361
20
190.423141
30
0.0
11
94.405734
21
190.195518
31
0.0
0
LINE
8
VISIBLE
10
92.875000
20
190.500000
30
0.0
11
93.655361
21
190.423141
31
0.0
0
LINE
8
VISIBLE
10
88.875000
20
190.500000
30
0.0
11
92.875000
21
190.500000
31
0.0
0
LINE
8
VISIBLE
10
88.094639
20
190.423141
30
0.0
11
88.875000
21
190.500000
31
0.0
0
LINE
8
VISIBLE
10
87.344266
20
190.195518
30
0.0
11
88.094639
21
190.423141
31
0.0
0
LINE
8
VISIBLE
10
86.652719
20
189.825878
30
0.0
11
87.344266
21
190.195518
31
0.0
0
LINE
8
VISIBLE
10
86.046573
20
189.328427
30
0.0
11
86.652719
21
189.825878
31
0.0
0
LINE
8
VISIBLE
10
85.549122
20
188.722281
30
0.0
11
86.046573
21
189.328427
31
0.0
0
LINE
8
VISIBLE
10
85.179482
20
188.030734
30
0.0
11
85.549122
21
188.722281
31
0.0
0
LINE
8
VISIBLE
10
84.951859
20
187.280361
30
0.0
11
85.179482
21
188.030734
31
0.0
0
LINE
8
VISIBLE
10
84.875000
20
186.500000
30
0.0
11
84.951859
21
187.280361
31
0.0
0
LINE
8
VISIBLE
10
84.875000
20
170.500000
30
0.0
11
84.875000
21
186.500000
31
0.0
0
LINE
8
VISIBLE
10
84.951859
20
169.719639
30
0.0
11
84.875000
21
170.500000
31
0.0
0
LINE
8
VISIBLE
10
85.179482
20
168.969266
30
0.0
11
84.951859
21
169.719639
31
0.0
0
LINE
8
VISIBLE
10
85.549122
20
168.277719
30
0.0
11
85.179482
21
168.969266
31
0.0
0
LINE
8
VISIBLE
10
86.046573
20
167.671573
30
0.0
11
85.549122
21
168.277719
31
0.0
0
LINE
8
VISIBLE
10
86.652719
20
167.174122
30
0.0
11
86.046573
21
167.671573
31
0.0
0
LINE
8
VISIBLE
10
87.344266
20
166.804482
30
0.0
11
86.652719
21
167.174122
31
0.0
0
LINE
8
VISIBLE
10
88.094639
20
166.576859
30
0.0
11
87.344266
21
166.804482
31
0.0
0
LINE
8
VISIBLE
10
88.875000
20
166.500000
30
0.0
11
88.094639
21
166.576859
31
0.0
0
LINE
8
VISIBLE
10
92.875000
20
166.500000
30
0.0
11
88.875000
21
166.500000
31
0.0
0
LINE
8
VISIBLE
10
93.655361
20
166.576859
30
0.0
11
92.875000
21
166.500000
31
0.0
0
LINE
8
VISIBLE
10
94.405734
20
166.804482
30
0.0
11
93.655361
21
166.576859
31
0.0
0
LINE
8
VISIBLE
10
95.097281
20
167.174122
30
0.0
11
94.405734
21
166.804482
31
0.0
0
LINE
8
VISIBLE
10
95.703427
20
167.671573
30
0.0
11
95.097281
21
167.174122
31
0.0
0
LINE
8
VISIBLE
10
96.200878
20
168.277719
30
0.0
11
95.703427
21
167.671573
31
0.0
0
LINE
8
VISIBLE
10
96.570518
20
168.969266
30
0.0
11
96.200878
21
168.277719
31
0.0
0
LINE
8
VISIBLE
10
96.798141
20
169.719639
30
0.0
11
96.570518
21
168.969266
31
0.0
0
LINE
8
VISIBLE
10
96.875000
20
170.500000
30
0.0
11
96.798141
21
169.719639
31
0.0
0
LINE
8
VISIBLE
10
96.875000
20
186.500000
30
0.0
11
96.875000
21
170.500000
31
0.0
0
LINE
8
VISIBLE
10
96.798141
20
187.280361
30
0.0
11
96.875000
21
186.500000
31
0.0
0
CIRCLE
8
VISIBLE
10
125.875000
20
166.500000
30
0.0
40
19.000000
0
CIRCLE
8
VISIBLE
10
39.875000
20
211.500000
30
0.0
40
2.300000
0
CIRCLE
8
VISIBLE
10
71.875000
20
211.500000
30
0.0
40
2.300000
0
CIRCLE
8
VISIBLE
10
109.875000
20
211.500000
30
0.0
40
2.300000
0
CIRCLE
8
VISIBLE
10
141.875000
20
211.500000
30
0.0
40
2.300000
0
LINE
8
VISIBLE
10
33.875000
20
80.500000
30
0.0
11
33.875000
21
82.500000
31
0.0
0
LINE
8
VISIBLE
10
33.951859
20
80.500000
30
0.0
11
33.875000
21
80.500000
31
0.0
0
LINE
8
VISIBLE
10
34.179482
20
80.500000
30
0.0
11
33.951859
21
80.500000
31
0.0
0
LINE
8
VISIBLE
10
34.549122
20
80.500000
30
0.0
11
34.179482
21
80.500000
31
0.0
0
LINE
8
VISIBLE
10
35.046573
20
80.500000
30
0.0
11
34.549122
21
80.500000
31
0.0
0
LINE
8
VISIBLE
10
35.652719
20
80.500000
30
0.0
11
35.046573
21
80.500000
31
0.0
0
LINE
8
VISIBLE
10
36.344266
20
80.500000
30
0.0
11
35.652719
21
80.500000
31
0.0
0
LINE
8
VISIBLE
10
37.094639
20
80.500000
30
0.0
11
36.344266
21
80.500000
31
0.0
0
LINE
8
VISIBLE
10
37.875000
20
80.500000
30
0.0
11
37.094639
21
80.500000
31
0.0
0
LINE
8
VISIBLE
10
143.875000
20
80.500000
30
0.0
11
37.875000
21
80.500000
31
0.0
0
LINE
8
VISIBLE
10
144.655361
20
80.500000
30
0.0
11
143.875000
21
80.500000
31
0.0
0
LINE
8
VISIBLE
10
145.405734
20
80.500000
30
0.0
11
144.655361
21
80.500000
31
0.0
0
LINE
8
VISIBLE
10
146.097281
20
80.500000
30
0.0
11
145.405734
21
80.500000
31
0.0
0
LINE
8
VISIBLE
10
146.703427
20
80.500000
30
0.0
11
146.097281
21
80.500000
31
0.0
0
LINE
8
VISIBLE
10
147.200878
20
80.500000
30
0.0
11
146.703427
21
80.500000
31
0.0
0
LINE
8
VISIBLE
10
147.570518
20
80.500000
30
0.0
11
147.200878
21
80.500000
31
0.0
0
LINE
8
VISIBLE
10
147.798141
20
80.500000
30
0.0
11
147.570518
21
80.500000
31
0.0
0
LINE
8
VISIBLE
10
147.875000
20
80.500000
30
0.0
11
147.798141
21
80.500000
31
0.0
0
LINE
8
VISIBLE
10
33.951859
20
82.500000
30
0.0
11
33.875000
21
82.500000
31
0.0
0
LINE
8
VISIBLE
10
34.179482
20
82.500000
30
0.0
11
33.951859
21
82.500000
31
0.0
0
LINE
8
VISIBLE
10
34.549122
20
82.500000
30
0.0
11
34.179482
21
82.500000
31
0.0
0
LINE
8
VISIBLE
10
35.046573
20
82.500000
30
0.0
11
34.549122
21
82.500000
31
0.0
0
LINE
8
VISIBLE
10
35.652719
20
82.500000
30
0.0
11
35.046573
21
82.500000
31
0.0
0
LINE
8
VISIBLE
10
36.344266
20
82.500000
30
0.0
11
35.652719
21
82.500000
31
0.0
0
LINE
8
VISIBLE
10
37.094639
20
82.500000
30
0.0
11
36.344266
21
82.500000
31
0.0
0
LINE
8
VISIBLE
10
37.875000
20
82.500000
30
0.0
11
37.094639
21
82.500000
31
0.0
0
LINE
8
VISIBLE
10
143.875000
20
82.500000
30
0.0
11
37.875000
21
82.500000
31
0.0
0
LINE
8
VISIBLE
10
144.655361
20
82.500000
30
0.0
11
143.875000
21
82.500000
31
0.0
0
LINE
8
VISIBLE
10
145.405734
20
82.500000
30
0.0
11
144.655361
21
82.500000
31
0.0
0
LINE
8
VISIBLE
10
146.097281
20
82.500000
30
0.0
11
145.405734
21
82.500000
31
0.0
0
LINE
8
VISIBLE
10
146.703427
20
82.500000
30
0.0
11
146.097281
21
82.500000
31
0.0
0
LINE
8
VISIBLE
10
147.200878
20
82.500000
30
0.0
11
146.703427
21
82.500000
31
0.0
0
LINE
8
VISIBLE
10
147.570518
20
82.500000
30
0.0
11
147.200878
21
82.500000
31
0.0
0
LINE
8
VISIBLE
10
147.798141
20
82.500000
30
0.0
11
147.570518
21
82.500000
31
0.0
0
LINE
8
VISIBLE
10
147.875000
20
82.500000
30
0.0
11
147.798141
21
82.500000
31
0.0
0
LINE
8
VISIBLE
10
33.951859
20
80.500000
30
0.0
11
33.951859
21
82.500000
31
0.0
0
LINE
8
VISIBLE
10
34.179482
20
80.500000
30
0.0
11
34.179482
21
82.500000
31
0.0
0
LINE
8
VISIBLE
10
34.549122
20
80.500000
30
0.0
11
34.549122
21
82.500000
31
0.0
0
LINE
8
VISIBLE
10
35.046573
20
80.500000
30
0.0
11
35.046573
21
82.500000
31
0.0
0
LINE
8
VISIBLE
10
35.652719
20
80.500000
30
0.0
11
35.652719
21
82.500000
31
0.0
0
LINE
8
VISIBLE
10
36.344266
20
80.500000
30
0.0
11
36.344266
21
82.500000
31
0.0
0
LINE
8
VISIBLE
10
37.094639
20
80.500000
30
0.0
11
37.094639
21
82.500000
31
0.0
0
LINE
8
VISIBLE
10
37.875000
20
80.500000
30
0.0
11
37.875000
21
82.500000
31
0.0
0
LINE
8
VISIBLE
10
143.875000
20
80.500000
30
0.0
11
143.875000
21
82.500000
31
0.0
0
LINE
8
VISIBLE
10
144.655361
20
80.500000
30
0.0
11
144.655361
21
82.500000
31
0.0
0
LINE
8
VISIBLE
10
145.405734
20
80.500000
30
0.0
11
145.405734
21
82.500000
31
0.0
0
LINE
8
VISIBLE
10
146.097281
20
80.500000
30
0.0
11
146.097281
21
82.500000
31
0.0
0
LINE
8
VISIBLE
10
146.703427
20
80.500000
30
0.0
11
146.703427
21
82.500000
31
0.0
0
LINE
8
VISIBLE
10
147.200878
20
80.500000
30
0.0
11
147.200878
21
82.500000
31
0.0
0
LINE
8
VISIBLE
10
147.570518
20
80.500000
30
0.0
11
147.570518
21
82.500000
31
0.0
0
LINE
8
VISIBLE
10
147.798141
20
80.500000
30
0.0
11
147.798141
21
82.500000
31
0.0
0
LINE
8
VISIBLE
10
147.875000
20
80.500000
30
0.0
11
147.875000
21
82.500000
31
0.0
0
LINE
8
VISIBLE
10
140.076045
20
82.500000
30
0.0
11
140.285000
21
86.500000
31
0.0
0
LINE
8
VISIBLE
10
143.465000
20
86.500000
30
0.0
11
140.285000
21
86.500000
31
0.0
0
LINE
8
VISIBLE
10
108.076045
20
82.500000
30
0.0
11
108.285000
21
86.500000
31
0.0
0
LINE
8
VISIBLE
10
111.465000
20
86.500000
30
0.0
11
108.285000
21
86.500000
31
0.0
0
LINE
8
VISIBLE
10
70.076045
20
82.500000
30
0.0
11
70.285000
21
86.500000
31
0.0
0
LINE
8
VISIBLE
10
73.465000
20
86.500000
30
0.0
11
70.285000
21
86.500000
31
0.0
0
LINE
8
VISIBLE
10
38.076045
20
82.500000
30
0.0
11
38.285000
21
86.500000
31
0.0
0
LINE
8
VISIBLE
10
41.465000
20
86.500000
30
0.0
11
38.285000
21
86.500000
31
0.0
0
LINE
8
VISIBLE
10
143.465000
20
86.500000
30
0.0
11
143.673955
21
82.500000
31
0.0
0
LINE
8
VISIBLE
10
111.465000
20
86.500000
30
0.0
11
111.673955
21
82.500000
31
0.0
0
LINE
8
VISIBLE
10
73.465000
20
86.500000
30
0.0
11
73.673955
21
82.500000
31
0.0
0
LINE
8
VISIBLE
10
41.465000
20
86.500000
30
0.0
11
41.673955
21
82.500000
31
0.0
0
LINE
8
VISIBLE
10
185.951859
20
177.500000
30
0.0
11
185.875000
21
177.500000
31
0.0
0
LINE
8
VISIBLE
10
186.179482
20
177.500000
30
0.0
11
185.951859
21
177.500000
31
0.0
0
LINE
8
VISIBLE
10
186.549122
20
177.500000
30
0.0
11
186.179482
21
177.500000
31
0.0
0
LINE
8
VISIBLE
10
187.046573
20
177.500000
30
0.0
11
186.549122
21
177.500000
31
0.0
0
LINE
8
VISIBLE
10
187.652719
20
177.500000
30
0.0
11
187.046573
21
177.500000
31
0.0
0
LINE
8
VISIBLE
10
188.344266
20
177.500000
30
0.0
11
187.652719
21
177.500000
31
0.0
0
LINE
8
VISIBLE
10
189.094639
20
177.500000
30
0.0
11
188.344266
21
177.500000
31
0.0
0
LINE
8
VISIBLE
10
189.875000
20
177.500000
30
0.0
11
189.094639
21
177.500000
31
0.0
0
LINE
8
VISIBLE
10
295.875000
20
177.500000
30
0.0
11
189.875000
21
177.500000
31
0.0
0
LINE
8
VISIBLE
10
296.655361
20
177.500000
30
0.0
11
295.875000
21
177.500000
31
0.0
0
LINE
8
VISIBLE
10
297.405734
20
177.500000
30
0.0
11
296.655361
21
177.500000
31
0.0
0
LINE
8
VISIBLE
10
298.097281
20
177.500000
30
0.0
11
297.405734
21
177.500000
31
0.0
0
LINE
8
VISIBLE
10
298.703427
20
177.500000
30
0.0
11
298.097281
21
177.500000
31
0.0
0
LINE
8
VISIBLE
10
299.200878
20
177.500000
30
0.0
11
298.703427
21
177.500000
31
0.0
0
LINE
8
VISIBLE
10
299.570518
20
177.500000
30
0.0
11
299.200878
21
177.500000
31
0.0
0
LINE
8
VISIBLE
10
299.798141
20
177.500000
30
0.0
11
299.570518
21
177.500000
31
0.0
0
LINE
8
VISIBLE
10
299.875000
20
177.500000
30
0.0
11
299.798141
21
177.500000
31
0.0
0
LINE
8
VISIBLE
10
185.951859
20
179.500000
30
0.0
11
185.875000
21
179.500000
31
0.0
0
LINE
8
VISIBLE
10
186.179482
20
179.500000
30
0.0
11
185.951859
21
179.500000
31
0.0
0
LINE
8
VISIBLE
10
186.549122
20
179.500000
30
0.0
11
186.179482
21
179.500000
31
0.0
0
LINE
8
VISIBLE
10
187.046573
20
179.500000
30
0.0
11
186.549122
21
179.500000
31
0.0
0
LINE
8
VISIBLE
10
187.652719
20
179.500000
30
0.0
11
187.046573
21
179.500000
31
0.0
0
LINE
8
VISIBLE
10
188.344266
20
179.500000
30
0.0
11
187.652719
21
179.500000
31
0.0
0
LINE
8
VISIBLE
10
189.094639
20
179.500000
30
0.0
11
188.344266
21
179.500000
31
0.0
0
LINE
8
VISIBLE
10
189.875000
20
179.500000
30
0.0
11
189.094639
21
179.500000
31
0.0
0
LINE
8
VISIBLE
10
295.875000
20
179.500000
30
0.0
11
189.875000
21
179.500000
31
0.0
0
LINE
8
VISIBLE
10
296.655361
20
179.500000
30
0.0
11
295.875000
21
179.500000
31
0.0
0
LINE
8
VISIBLE
10
297.405734
20
179.500000
30
0.0
11
296.655361
21
179.500000
31
0.0
0
LINE
8
VISIBLE
10
298.097281
20
179.500000
30
0.0
11
297.405734
21
179.500000
31
0.0
0
LINE
8
VISIBLE
10
298.703427
20
179.500000
30
0.0
11
298.097281
21
179.500000
31
0.0
0
LINE
8
VISIBLE
10
299.200878
20
179.500000
30
0.0
11
298.703427
21
179.500000
31
0.0
0
LINE
8
VISIBLE
10
299.570518
20
179.500000
30
0.0
11
299.200878
21
179.500000
31
0.0
0
LINE
8
VISIBLE
10
299.798141
20
179.500000
30
0.0
11
299.570518
21
179.500000
31
0.0
0
LINE
8
VISIBLE
10
299.875000
20
179.500000
30
0.0
11
299.798141
21
179.500000
31
0.0
0
LINE
8
VISIBLE
10
185.951859
20
177.500000
30
0.0
11
185.951859
21
179.500000
31
0.0
0
LINE
8
VISIBLE
10
186.179482
20
177.500000
30
0.0
11
186.179482
21
179.500000
31
0.0
0
LINE
8
VISIBLE
10
186.549122
20
177.500000
30
0.0
11
186.549122
21
179.500000
31
0.0
0
LINE
8
VISIBLE
10
187.046573
20
177.500000
30
0.0
11
187.046573
21
179.500000
31
0.0
0
LINE
8
VISIBLE
10
187.652719
20
177.500000
30
0.0
11
187.652719
21
179.500000
31
0.0
0
LINE
8
VISIBLE
10
188.344266
20
177.500000
30
0.0
11
188.344266
21
179.500000
31
0.0
0
LINE
8
VISIBLE
10
189.094639
20
177.500000
30
0.0
11
189.094639
21
179.500000
31
0.0
0
LINE
8
VISIBLE
10
189.875000
20
177.500000
30
0.0
11
189.875000
21
179.500000
31
0.0
0
LINE
8
VISIBLE
10
295.875000
20
177.500000
30
0.0
11
295.875000
21
179.500000
31
0.0
0
LINE
8
VISIBLE
10
296.655361
20
177.500000
30
0.0
11
296.655361
21
179.500000
31
0.0
0
LINE
8
VISIBLE
10
297.405734
20
177.500000
30
0.0
11
297.405734
21
179.500000
31
0.0
0
LINE
8
VISIBLE
10
298.097281
20
177.500000
30
0.0
11
298.097281
21
179.500000
31
0.0
0
LINE
8
VISIBLE
10
298.703427
20
177.500000
30
0.0
11
298.703427
21
179.500000
31
0.0
0
LINE
8
VISIBLE
10
299.200878
20
177.500000
30
0.0
11
299.200878
21
179.500000
31
0.0
0
LINE
8
VISIBLE
10
299.570518
20
177.500000
30
0.0
11
299.570518
21
179.500000
31
0.0
0
LINE
8
VISIBLE
10
299.798141
20
177.500000
30
0.0
11
299.798141
21
179.500000
31
0.0
0
LINE
8
VISIBLE
10
292.076045
20
179.500000
30
0.0
11
292.285000
21
183.500000
31
0.0
0
LINE
8
VISIBLE
10
295.465000
20
183.500000
30
0.0
11
292.285000
21
183.500000
31
0.0
0
LINE
8
VISIBLE
10
260.076045
20
179.500000
30
0.0
11
260.285000
21
183.500000
31
0.0
0
LINE
8
VISIBLE
10
263.465000
20
183.500000
30
0.0
11
260.285000
21
183.500000
31
0.0
0
LINE
8
VISIBLE
10
222.076045
20
179.500000
30
0.0
11
222.285000
21
183.500000
31
0.0
0
LINE
8
VISIBLE
10
225.465000
20
183.500000
30
0.0
11
222.285000
21
183.500000
31
0.0
0
LINE
8
VISIBLE
10
190.076045
20
179.500000
30
0.0
11
190.285000
21
183.500000
31
0.0
0
LINE
8
VISIBLE
10
193.465000
20
183.500000
30
0.0
11
190.285000
21
183.500000
31
0.0
0
LINE
8
VISIBLE
10
295.465000
20
183.500000
30
0.0
11
295.673955
21
179.500000
31
0.0
0
LINE
8
VISIBLE
10
263.465000
20
183.500000
30
0.0
11
263.673955
21
179.500000
31
0.0
0
LINE
8
VISIBLE
10
225.465000
20
183.500000
30
0.0
11
225.673955
21
179.500000
31
0.0
0
LINE
8
VISIBLE
10
193.465000
20
183.500000
30
0.0
11
193.673955
21
179.500000
31
0.0
0
LINE
8
SECTION
10
185.875000
20
177.500000
30
0.0
11
189.575000
21
177.500000
31
0.0
0
LINE
8
SECTION
10
185.875000
20
179.500000
30
0.0
11
185.875000
21
177.500000
31
0.0
0
LINE
8
SECTION
10
185.875000
20
179.500000
30
0.0
11
189.575000
21
179.500000
31
0.0
0
LINE
8
SECTION
10
189.575000
20
177.500000
30
0.0
11
189.575000
21
179.500000
31
0.0
0
LINE
8
SECTION
10
296.175000
20
177.500000
30
0.0
11
296.175000
21
179.500000
31
0.0
0
LINE
8
SECTION
10
296.175000
20
179.500000
30
0.0
11
299.875000
21
179.500000
31
0.0
0
LINE
8
SECTION
10
299.875000
20
177.500000
30
0.0
11
299.875000
21
179.500000
31
0.0
0
LINE
8
SECTION
10
296.175000
20
177.500000
30
0.0
11
299.875000
21
177.500000
31
0.0
0
LINE
8
SECTION
10
264.175000
20
177.500000
30
0.0
11
291.575000
21
177.500000
31
0.0
0
LINE
8
SECTION
10
264.175000
20
177.500000
30
0.0
11
264.175000
21
179.500000
31
0.0
0
LINE
8
SECTION
10
264.175000
20
179.500000
30
0.0
11
291.575000
21
179.500000
31
0.0
0
LINE
8
SECTION
10
291.575000
20
177.500000
30
0.0
11
291.575000
21
179.500000
31
0.0
0
LINE
8
SECTION
10
226.175000
20
177.500000
30
0.0
11
259.575000
21
177.500000
31
0.0
0
LINE
8
SECTION
10
226.175000
20
177.500000
30
0.0
11
226.175000
21
179.500000
31
0.0
0
LINE
8
SECTION
10
226.175000
20
179.500000
30
0.0
11
259.575000
21
179.500000
31
0.0
0
LINE
8
SECTION
10
259.575000
20
177.500000
30
0.0
11
259.575000
21
179.500000
31
0.0
0
LINE
8
SECTION
10
194.175000
20
177.500000
30
0.0
11
221.575000
21
177.500000
31
0.0
0
LINE
8
SECTION
10
194.175000
20
177.500000
30
0.0
11
194.175000
21
179.500000
31
0.0
0
LINE
8
SECTION
10
194.175000
20
179.500000
30
0.0
11
221.575000
21
179.500000
31
0.0
0
LINE
8
SECTION
10
221.575000
20
177.500000
30
0.0
11
221.575000
21
179.500000
31
0.0
0
LINE
8
VISIBLE
10
353.693629
20
225.045460
30
0.0
11
354.081311
21
224.861769
31
0.0
0
LINE
8
VISIBLE
10
324.749320
20
241.756465
30
0.0
11
353.693629
21
225.045460
31
0.0
0
LINE
8
VISIBLE
10
354.081311
20
224.861769
30
0.0
11
354.523614
21
224.725274
31
0.0
0
LINE
8
VISIBLE
10
324.431158
20
241.980293
30
0.0
11
324.749320
21
241.756465
31
0.0
0
LINE
8
VISIBLE
10
354.523614
20
224.725274
30
0.0
11
355.003541
21
224.641221
31
0.0
0
LINE
8
VISIBLE
10
324.194742
20
242.235657
30
0.0
11
324.431158
21
241.980293
31
0.0
0
LINE
8
VISIBLE
10
355.003541
20
224.641221
30
0.0
11
355.502649
21
224.612840
31
0.0
0
LINE
8
VISIBLE
10
324.049158
20
242.512743
30
0.0
11
324.194742
21
242.235657
31
0.0
0
LINE
8
VISIBLE
10
355.502649
20
224.612840
30
0.0
11
356.001756
21
224.641221
31
0.0
0
LINE
8
VISIBLE
10
324.000000
20
242.800903
30
0.0
11
324.049158
21
242.512743
31
0.0
0
LINE
8
VISIBLE
10
356.001756
20
224.641221
30
0.0
11
356.481683
21
224.725274
31
0.0
0
LINE
8
VISIBLE
10
324.049158
20
243.089063
30
0.0
11
324.000000
21
242.800903
31
0.0
0
LINE
8
VISIBLE
10
356.481683
20
224.725274
30
0.0
11
356.923986
21
224.861769
31
0.0
0
LINE
8
VISIBLE
10
324.194742
20
243.366148
30
0.0
11
324.049158
21
243.089063
31
0.0
0
LINE
8
VISIBLE
10
356.923986
20
224.861769
30
0.0
11
357.311668
21
225.045460
31
0.0
0
LINE
8
VISIBLE
10
324.431158
20
243.621512
30
0.0
11
324.194742
21
243.366148
31
0.0
0
LINE
8
VISIBLE
10
357.311668
20
225.045460
30
0.0
11
405.250680
21
252.723062
31
0.0
0
LINE
8
VISIBLE
10
324.749320
20
243.845341
30
0.0
11
324.431158
21
243.621512
31
0.0
0
LINE
8
VISIBLE
10
405.250680
20
252.723062
30
0.0
11
405.568842
21
252.946890
31
0.0
0
LINE
8
VISIBLE
10
372.688332
20
271.522942
30
0.0
11
324.749320
21
243.845341
31
0.0
0
LINE
8
VISIBLE
10
405.568842
20
252.946890
30
0.0
11
405.805258
21
253.202254
31
0.0
0
LINE
8
VISIBLE
10
373.076014
20
271.706633
30
0.0
11
372.688332
21
271.522942
31
0.0
0
LINE
8
VISIBLE
10
405.805258
20
253.202254
30
0.0
11
405.950842
21
253.479340
31
0.0
0
LINE
8
VISIBLE
10
373.518317
20
271.843128
30
0.0
11
373.076014
21
271.706633
31
0.0
0
LINE
8
VISIBLE
10
405.950842
20
253.479340
30
0.0
11
406.000000
21
253.767500
31
0.0
0
LINE
8
VISIBLE
10
373.998244
20
271.927181
30
0.0
11
373.518317
21
271.843128
31
0.0
0
LINE
8
VISIBLE
10
406.000000
20
253.767500
30
0.0
11
405.950842
21
254.055659
31
0.0
0
LINE
8
VISIBLE
10
374.497351
20
271.955562
30
0.0
11
373.998244
21
271.927181
31
0.0
0
LINE
8
VISIBLE
10
405.950842
20
254.055659
30
0.0
11
405.805258
21
254.332745
31
0.0
0
LINE
8
VISIBLE
10
374.996459
20
271.927181
30
0.0
11
374.497351
21
271.955562
31
0.0
0
LINE
8
VISIBLE
10
405.805258
20
254.332745
30
0.0
11
405.568842
21
254.588109
31
0.0
0
LINE
8
VISIBLE
10
375.476386
20
271.843128
30
0.0
11
374.996459
21
271.927181
31
0.0
0
LINE
8
VISIBLE
10
405.568842
20
254.588109
30
0.0
11
405.250680
21
254.811937
31
0.0
0
LINE
8
VISIBLE
10
375.918689
20
271.706633
30
0.0
11
375.476386
21
271.843128
31
0.0
0
LINE
8
VISIBLE
10
405.250680
20
254.811937
30
0.0
11
376.306371
21
271.522942
31
0.0
0
LINE
8
VISIBLE
10
376.306371
20
271.522942
30
0.0
11
375.918689
21
271.706633
31
0.0
0
LINE
8
VISIBLE
10
365.904510
20
256.117485
30
0.0
11
368.348524
21
255.026959
31
0.0
0
LINE
8
VISIBLE
10
368.348524
20
255.026959
30
0.0
11
371.357314
21
254.300806
31
0.0
0
LINE
8
VISIBLE
10
371.357314
20
254.300806
30
0.0
11
374.710107
21
254.063614
31
0.0
0
LINE
8
VISIBLE
10
374.710107
20
254.063614
30
0.0
11
378.083380
21
254.374977
31
0.0
0
LINE
8
VISIBLE
10
378.083380
20
254.374977
30
0.0
11
381.130854
21
255.200058
31
0.0
0
LINE
8
VISIBLE
10
381.130854
20
255.200058
30
0.0
11
383.581124
21
256.418130
31
0.0
0
LINE
8
VISIBLE
10
383.581124
20
256.418130
30
0.0
11
385.301599
21
257.867018
31
0.0
0
LINE
8
VISIBLE
10
385.301599
20
257.867018
30
0.0
11
386.296701
21
259.400350
31
0.0
0
LINE
8
VISIBLE
10
386.296701
20
259.400350
30
0.0
11
386.649465
21
261.078564
31
0.0
0
LINE
8
VISIBLE
10
386.649465
20
261.078564
30
0.0
11
386.371440
21
262.570753
31
0.0
0
LINE
8
VISIBLE
10
386.371440
20
262.570753
30
0.0
11
385.526272
21
264.024566
31
0.0
0
LINE
8
VISIBLE
10
385.526272
20
264.024566
30
0.0
11
384.064093
21
265.404891
31
0.0
0
LINE
8
VISIBLE
10
384.064093
20
265.404891
30
0.0
11
381.942873
21
266.623474
31
0.0
0
LINE
8
VISIBLE
10
381.942873
20
266.623474
30
0.0
11
379.196008
21
267.548919
31
0.0
0
LINE
8
VISIBLE
10
379.196008
20
267.548919
30
0.0
11
375.979205
21
268.042231
31
0.0
0
LINE
8
VISIBLE
10
375.979205
20
268.042231
30
0.0
11
372.571942
21
268.005965
31
0.0
0
LINE
8
VISIBLE
10
372.571942
20
268.005965
30
0.0
11
369.321440
21
267.426367
31
0.0
0
LINE
8
VISIBLE
10
369.321440
20
267.426367
30
0.0
11
366.547644
21
266.385038
31
0.0
0
LINE
8
VISIBLE
10
366.547644
20
266.385038
30
0.0
11
364.456486
21
265.030563
31
0.0
0
LINE
8
VISIBLE
10
364.456486
20
265.030563
30
0.0
11
363.107273
21
263.523966
31
0.0
0
LINE
8
VISIBLE
10
363.107273
20
263.523966
30
0.0
11
362.447342
21
261.986148
31
0.0
0
LINE
8
VISIBLE
10
362.447342
20
261.986148
30
0.0
11
362.345238
21
261.078564
31
0.0
0
LINE
8
VISIBLE
10
362.345238
20
261.078564
30
0.0
11
362.623263
21
259.586375
31
0.0
0
LINE
8
VISIBLE
10
362.623263
20
259.586375
30
0.0
11
363.468431
21
258.132563
31
0.0
0
LINE
8
VISIBLE
10
363.468431
20
258.132563
30
0.0
11
365.904510
21
256.117485
31
0.0
0
LINE
8
VISIBLE
10
365.829985
20
244.830702
30
0.0
11
365.387682
21
244.967197
31
0.0
0
LINE
8
VISIBLE
10
366.309912
20
244.746649
30
0.0
11
365.829985
21
244.830702
31
0.0
0
LINE
8
VISIBLE
10
366.809019
20
244.718268
30
0.0
11
366.309912
21
244.746649
31
0.0
0
LINE
8
VISIBLE
10
367.308127
20
244.746649
30
0.0
11
366.809019
21
244.718268
31
0.0
0
LINE
8
VISIBLE
10
367.788054
20
244.830702
30
0.0
11
367.308127
21
244.746649
31
0.0
0
LINE
8
VISIBLE
10
368.230357
20
244.967197
30
0.0
11
367.788054
21
244.830702
31
0.0
0
LINE
8
VISIBLE
10
368.618039
20
245.150888
30
0.0
11
368.230357
21
244.967197
31
0.0
0
LINE
8
VISIBLE
10
370.427058
20
246.195326
30
0.0
11
368.618039
21
245.150888
31
0.0
0
LINE
8
VISIBLE
10
370.745220
20
246.419154
30
0.0
11
370.427058
21
246.195326
31
0.0
0
LINE
8
VISIBLE
10
370.981636
20
246.674518
30
0.0
11
370.745220
21
246.419154
31
0.0
0
LINE
8
VISIBLE
10
371.127220
20
246.951604
30
0.0
11
370.981636
21
246.674518
31
0.0
0
LINE
8
VISIBLE
10
371.176378
20
247.239763
30
0.0
11
371.127220
21
246.951604
31
0.0
0
LINE
8
VISIBLE
10
371.127220
20
247.527923
30
0.0
11
371.176378
21
247.239763
31
0.0
0
LINE
8
VISIBLE
10
370.981636
20
247.805009
30
0.0
11
371.127220
21
247.527923
31
0.0
0
LINE
8
VISIBLE
10
370.745220
20
248.060373
30
0.0
11
370.981636
21
247.805009
31
0.0
0
LINE
8
VISIBLE
10
370.427058
20
248.284201
30
0.0
11
370.745220
21
248.060373
31
0.0
0
LINE
8
VISIBLE
10
363.190981
20
252.461952
30
0.0
11
370.427058
21
248.284201
31
0.0
0
LINE
8
VISIBLE
10
362.803299
20
252.645643
30
0.0
11
363.190981
21
252.461952
31
0.0
0
LINE
8
VISIBLE
10
362.360996
20
252.782138
30
0.0
11
362.803299
21
252.645643
31
0.0
0
LINE
8
VISIBLE
10
361.881069
20
252.866191
30
0.0
11
362.360996
21
252.782138
31
0.0
0
LINE
8
VISIBLE
10
361.381961
20
252.894573
30
0.0
11
361.881069
21
252.866191
31
0.0
0
LINE
8
VISIBLE
10
360.882854
20
252.866191
30
0.0
11
361.381961
21
252.894573
31
0.0
0
LINE
8
VISIBLE
10
360.402927
20
252.782138
30
0.0
11
360.882854
21
252.866191
31
0.0
0
LINE
8
VISIBLE
10
359.960624
20
252.645643
30
0.0
11
360.402927
21
252.782138
31
0.0
0
LINE
8
VISIBLE
10
359.572942
20
252.461952
30
0.0
11
359.960624
21
252.645643
31
0.0
0
LINE
8
VISIBLE
10
357.763923
20
251.417515
30
0.0
11
359.572942
21
252.461952
31
0.0
0
LINE
8
VISIBLE
10
357.445760
20
251.193686
30
0.0
11
357.763923
21
251.417515
31
0.0
0
LINE
8
VISIBLE
10
357.209344
20
250.938322
30
0.0
11
357.445760
21
251.193686
31
0.0
0
LINE
8
VISIBLE
10
357.063760
20
250.661236
30
0.0
11
357.209344
21
250.938322
31
0.0
0
LINE
8
VISIBLE
10
357.014602
20
250.373077
30
0.0
11
357.063760
21
250.661236
31
0.0
0
LINE
8
VISIBLE
10
357.063760
20
250.084917
30
0.0
11
357.014602
21
250.373077
31
0.0
0
LINE
8
VISIBLE
10
357.209344
20
249.807831
30
0.0
11
357.063760
21
250.084917
31
0.0
0
LINE
8
VISIBLE
10
357.445760
20
249.552467
30
0.0
11
357.209344
21
249.807831
31
0.0
0
LINE
8
VISIBLE
10
357.763923
20
249.328639
30
0.0
11
357.445760
21
249.552467
31
0.0
0
LINE
8
VISIBLE
10
365.000000
20
245.150888
30
0.0
11
357.763923
21
249.328639
31
0.0
0
LINE
8
VISIBLE
10
365.387682
20
244.967197
30
0.0
11
365.000000
21
245.150888
31
0.0
0
LINE
8
VISIBLE
10
334.246672
20
237.839823
30
0.0
11
336.690686
21
236.749298
31
0.0
0
LINE
8
VISIBLE
10
336.690686
20
236.749298
30
0.0
11
339.699476
21
236.023144
31
0.0
0
LINE
8
VISIBLE
10
339.699476
20
236.023144
30
0.0
11
343.052269
21
235.785952
31
0.0
0
LINE
8
VISIBLE
10
343.052269
20
235.785952
30
0.0
11
346.425542
21
236.097315
31
0.0
0
LINE
8
VISIBLE
10
346.425542
20
236.097315
30
0.0
11
349.473016
21
236.922397
31
0.0
0
LINE
8
VISIBLE
10
349.473016
20
236.922397
30
0.0
11
351.923286
21
238.140469
31
0.0
0
LINE
8
VISIBLE
10
351.923286
20
238.140469
30
0.0
11
353.643761
21
239.589357
31
0.0
0
LINE
8
VISIBLE
10
353.643761
20
239.589357
30
0.0
11
354.638863
21
241.122689
31
0.0
0
LINE
8
VISIBLE
10
354.638863
20
241.122689
30
0.0
11
354.991627
21
242.800903
31
0.0
0
LINE
8
VISIBLE
10
354.991627
20
242.800903
30
0.0
11
354.713602
21
244.293092
31
0.0
0
LINE
8
VISIBLE
10
354.713602
20
244.293092
30
0.0
11
353.868434
21
245.746904
31
0.0
0
LINE
8
VISIBLE
10
353.868434
20
245.746904
30
0.0
11
352.406255
21
247.127230
31
0.0
0
LINE
8
VISIBLE
10
352.406255
20
247.127230
30
0.0
11
350.285035
21
248.345813
31
0.0
0
LINE
8
VISIBLE
10
350.285035
20
248.345813
30
0.0
11
347.538170
21
249.271258
31
0.0
0
LINE
8
VISIBLE
10
347.538170
20
249.271258
30
0.0
11
344.321367
21
249.764570
31
0.0
0
LINE
8
VISIBLE
10
344.321367
20
249.764570
30
0.0
11
340.914104
21
249.728304
31
0.0
0
LINE
8
VISIBLE
10
340.914104
20
249.728304
30
0.0
11
337.663602
21
249.148706
31
0.0
0
LINE
8
VISIBLE
10
337.663602
20
249.148706
30
0.0
11
334.889806
21
248.107377
31
0.0
0
LINE
8
VISIBLE
10
334.889806
20
248.107377
30
0.0
11
332.798648
21
246.752901
31
0.0
0
LINE
8
VISIBLE
10
332.798648
20
246.752901
30
0.0
11
331.449435
21
245.246305
31
0.0
0
LINE
8
VISIBLE
10
331.449435
20
245.246305
30
0.0
11
330.789504
21
243.708487
31
0.0
0
LINE
8
VISIBLE
10
330.789504
20
243.708487
30
0.0
11
330.687400
21
242.800903
31
0.0
0
LINE
8
VISIBLE
10
330.687400
20
242.800903
30
0.0
11
330.965425
21
241.308714
31
0.0
0
LINE
8
VISIBLE
10
330.965425
20
241.308714
30
0.0
11
331.810593
21
239.854901
31
0.0
0
LINE
8
VISIBLE
10
331.810593
20
239.854901
30
0.0
11
334.246672
21
237.839823
31
0.0
0
LINE
8
VISIBLE
10
401.044710
20
252.905838
30
0.0
11
402.007179
21
252.658268
31
0.0
0
LINE
8
VISIBLE
10
402.007179
20
252.658268
30
0.0
11
403.095617
21
252.889296
31
0.0
0
LINE
8
VISIBLE
10
403.095617
20
252.889296
30
0.0
11
403.555941
21
253.506390
31
0.0
0
LINE
8
VISIBLE
10
403.555941
20
253.506390
30
0.0
11
403.285564
21
253.997094
31
0.0
0
LINE
8
VISIBLE
10
403.285564
20
253.997094
30
0.0
11
402.455676
21
254.328278
31
0.0
0
LINE
8
VISIBLE
10
402.455676
20
254.328278
30
0.0
11
401.319554
21
254.231701
31
0.0
0
LINE
8
VISIBLE
10
401.319554
20
254.231701
30
0.0
11
400.802354
21
253.922347
31
0.0
0
LINE
8
VISIBLE
10
400.802354
20
253.922347
30
0.0
11
400.613851
21
253.506390
31
0.0
0
LINE
8
VISIBLE
10
400.613851
20
253.506390
30
0.0
11
401.044710
21
252.905838
31
0.0
0
LINE
8
VISIBLE
10
386.572555
20
244.550336
30
0.0
11
387.535025
21
244.302766
31
0.0
0
LINE
8
VISIBLE
10
387.535025
20
244.302766
30
0.0
11
388.623463
21
244.533794
31
0.0
0
LINE
8
VISIBLE
10
388.623463
20
244.533794
30
0.0
11
389.083787
21
245.150888
31
0.0
0
LINE
8
VISIBLE
10
389.083787
20
245.150888
30
0.0
11
388.813409
21
245.641592
31
0.0
0
LINE
8
VISIBLE
10
388.813409
20
245.641592
30
0.0
11
387.983521
21
245.972775
31
0.0
0
LINE
8
VISIBLE
10
387.983521
20
245.972775
30
0.0
11
386.847400
21
245.876198
31
0.0
0
LINE
8
VISIBLE
10
386.847400
20
245.876198
30
0.0
11
386.330200
21
245.566845
31
0.0
0
LINE
8
VISIBLE
10
386.330200
20
245.566845
30
0.0
11
386.141696
21
245.150888
31
0.0
0
LINE
8
VISIBLE
10
386.141696
20
245.150888
30
0.0
11
386.572555
21
244.550336
31
0.0
0
LINE
8
VISIBLE
10
369.386872
20
234.628177
30
0.0
11
370.349341
21
234.380607
31
0.0
0
LINE
8
VISIBLE
10
370.349341
20
234.380607
30
0.0
11
371.437779
21
234.611635
31
0.0
0
LINE
8
VISIBLE
10
371.437779
20
234.611635
30
0.0
11
371.898103
21
235.228729
31
0.0
0
LINE
8
VISIBLE
10
371.898103
20
235.228729
30
0.0
11
371.627726
21
235.719433
31
0.0
0
LINE
8
VISIBLE
10
371.627726
20
235.719433
30
0.0
11
370.797838
21
236.050616
31
0.0
0
LINE
8
VISIBLE
10
370.797838
20
236.050616
30
0.0
11
369.661716
21
235.954039
31
0.0
0
LINE
8
VISIBLE
10
369.661716
20
235.954039
30
0.0
11
369.144516
21
235.644686
31
0.0
0
LINE
8
VISIBLE
10
369.144516
20
235.644686
30
0.0
11
368.956013
21
235.228729
31
0.0
0
LINE
8
VISIBLE
10
368.956013
20
235.228729
30
0.0
11
369.386872
21
234.628177
31
0.0
0
LINE
8
VISIBLE
10
354.914717
20
226.272675
30
0.0
11
355.877187
21
226.025104
31
0.0
0
LINE
8
VISIBLE
10
355.877187
20
226.025104
30
0.0
11
356.965625
21
226.256132
31
0.0
0
LINE
8
VISIBLE
10
356.965625
20
226.256132
30
0.0
11
357.425949
21
226.873227
31
0.0
0
LINE
8
VISIBLE
10
357.425949
20
226.873227
30
0.0
11
357.155571
21
227.363930
31
0.0
0
LINE
8
VISIBLE
10
357.155571
20
227.363930
30
0.0
11
356.325683
21
227.695114
31
0.0
0
LINE
8
VISIBLE
10
356.325683
20
227.695114
30
0.0
11
355.189562
21
227.598537
31
0.0
0
LINE
8
VISIBLE
10
355.189562
20
227.598537
30
0.0
11
354.672362
21
227.289184
31
0.0
0
LINE
8
VISIBLE
10
354.672362
20
227.289184
30
0.0
11
354.483858
21
226.873227
31
0.0
0
LINE
8
VISIBLE
10
354.483858
20
226.873227
30
0.0
11
354.914717
21
226.272675
31
0.0
0
LINE
8
VISIBLE
10
324.049158
20
244.133500
30
0.0
11
324.000000
21
243.845341
31
0.0
0
LINE
8
VISIBLE
10
324.194742
20
244.410586
30
0.0
11
324.049158
21
244.133500
31
0.0
0
LINE
8
VISIBLE
10
324.431158
20
244.665950
30
0.0
11
324.194742
21
244.410586
31
0.0
0
LINE
8
VISIBLE
10
324.749320
20
244.889778
30
0.0
11
324.431158
21
244.665950
31
0.0
0
LINE
8
VISIBLE
10
372.688332
20
272.567380
30
0.0
11
324.749320
21
244.889778
31
0.0
0
LINE
8
VISIBLE
10
373.076014
20
272.751071
30
0.0
11
372.688332
21
272.567380
31
0.0
0
LINE
8
VISIBLE
10
373.518317
20
272.887566
30
0.0
11
373.076014
21
272.751071
31
0.0
0
LINE
8
VISIBLE
10
373.998244
20
272.971619
30
0.0
11
373.518317
21
272.887566
31
0.0
0
LINE
8
VISIBLE
10
406.000000
20
254.811937
30
0.0
11
405.950842
21
255.100097
31
0.0
0
LINE
8
VISIBLE
10
374.497351
20
273.000000
30
0.0
11
373.998244
21
272.971619
31
0.0
0
LINE
8
VISIBLE
10
405.950842
20
255.100097
30
0.0
11
405.805258
21
255.377183
31
0.0
0
LINE
8
VISIBLE
10
374.996459
20
272.971619
30
0.0
11
374.497351
21
273.000000
31
0.0
0
LINE
8
VISIBLE
10
405.805258
20
255.377183
30
0.0
11
405.568842
21
255.632547
31
0.0
0
LINE
8
VISIBLE
10
375.476386
20
272.887566
30
0.0
11
374.996459
21
272.971619
31
0.0
0
LINE
8
VISIBLE
10
405.568842
20
255.632547
30
0.0
11
405.250680
21
255.856375
31
0.0
0
LINE
8
VISIBLE
10
375.918689
20
272.751071
30
0.0
11
375.476386
21
272.887566
31
0.0
0
LINE
8
VISIBLE
10
405.250680
20
255.856375
30
0.0
11
376.306371
21
272.567380
31
0.0
0
LINE
8
VISIBLE
10
376.306371
20
272.567380
30
0.0
11
375.918689
21
272.751071
31
0.0
0
LINE
8
VISIBLE
10
365.904510
20
257.161922
30
0.0
11
368.348524
21
256.071397
31
0.0
0
LINE
8
VISIBLE
10
368.348524
20
256.071397
30
0.0
11
371.357314
21
255.345244
31
0.0
0
LINE
8
VISIBLE
10
371.357314
20
255.345244
30
0.0
11
374.710107
21
255.108051
31
0.0
0
LINE
8
VISIBLE
10
374.710107
20
255.108051
30
0.0
11
378.083380
21
255.419414
31
0.0
0
LINE
8
VISIBLE
10
378.083380
20
255.419414
30
0.0
11
381.130854
21
256.244496
31
0.0
0
LINE
8
VISIBLE
10
381.130854
20
256.244496
30
0.0
11
383.581124
21
257.462568
31
0.0
0
LINE
8
VISIBLE
10
383.581124
20
257.462568
30
0.0
11
385.301599
21
258.911456
31
0.0
0
LINE
8
VISIBLE
10
385.301599
20
258.911456
30
0.0
11
386.296701
21
260.444788
31
0.0
0
LINE
8
VISIBLE
10
386.296701
20
260.444788
30
0.0
11
386.615756
21
261.600783
31
0.0
0
LINE
8
VISIBLE
10
362.378947
20
261.600783
30
0.0
11
362.850623
21
260.120705
31
0.0
0
LINE
8
VISIBLE
10
362.850623
20
260.120705
30
0.0
11
363.903384
21
258.685866
31
0.0
0
LINE
8
VISIBLE
10
363.903384
20
258.685866
30
0.0
11
365.904510
21
257.161922
31
0.0
0
LINE
8
VISIBLE
10
365.829985
20
245.875140
30
0.0
11
365.387682
21
246.011634
31
0.0
0
LINE
8
VISIBLE
10
366.309912
20
245.791087
30
0.0
11
365.829985
21
245.875140
31
0.0
0
LINE
8
VISIBLE
10
365.387682
20
246.011634
30
0.0
11
365.000000
21
246.195326
31
0.0
0
LINE
8
VISIBLE
10
366.809019
20
245.762705
30
0.0
11
366.309912
21
245.791087
31
0.0
0
LINE
8
VISIBLE
10
365.000000
20
246.195326
30
0.0
11
357.763923
21
250.373077
31
0.0
0
LINE
8
VISIBLE
10
367.308127
20
245.791087
30
0.0
11
366.809019
21
245.762705
31
0.0
0
LINE
8
VISIBLE
10
357.763923
20
250.373077
30
0.0
11
357.445760
21
250.596905
31
0.0
0
LINE
8
VISIBLE
10
367.788054
20
245.875140
30
0.0
11
367.308127
21
245.791087
31
0.0
0
LINE
8
VISIBLE
10
357.445760
20
250.596905
30
0.0
11
357.209344
21
250.852269
31
0.0
0
LINE
8
VISIBLE
10
368.230357
20
246.011634
30
0.0
11
367.788054
21
245.875140
31
0.0
0
LINE
8
VISIBLE
10
357.209344
20
250.852269
30
0.0
11
357.186738
21
250.895296
31
0.0
0
LINE
8
VISIBLE
10
368.618039
20
246.195326
30
0.0
11
368.230357
21
246.011634
31
0.0
0
LINE
8
VISIBLE
10
370.427058
20
247.239763
30
0.0
11
368.618039
21
246.195326
31
0.0
0
LINE
8
VISIBLE
10
370.745220
20
247.463592
30
0.0
11
370.427058
21
247.239763
31
0.0
0
LINE
8
VISIBLE
10
370.981636
20
247.718956
30
0.0
11
370.745220
21
247.463592
31
0.0
0
LINE
8
VISIBLE
10
371.004243
20
247.761982
30
0.0
11
370.981636
21
247.718956
31
0.0
0
LINE
8
VISIBLE
10
334.246672
20
238.884261
30
0.0
11
336.690686
21
237.793735
31
0.0
0
LINE
8
VISIBLE
10
336.690686
20
237.793735
30
0.0
11
339.699476
21
237.067582
31
0.0
0
LINE
8
VISIBLE
10
339.699476
20
237.067582
30
0.0
11
343.052269
21
236.830390
31
0.0
0
LINE
8
VISIBLE
10
343.052269
20
236.830390
30
0.0
11
346.425542
21
237.141753
31
0.0
0
LINE
8
VISIBLE
10
346.425542
20
237.141753
30
0.0
11
349.473016
21
237.966834
31
0.0
0
LINE
8
VISIBLE
10
349.473016
20
237.966834
30
0.0
11
351.923286
21
239.184907
31
0.0
0
LINE
8
VISIBLE
10
351.923286
20
239.184907
30
0.0
11
353.643761
21
240.633794
31
0.0
0
LINE
8
VISIBLE
10
353.643761
20
240.633794
30
0.0
11
354.638863
21
242.167126
31
0.0
0
LINE
8
VISIBLE
10
354.638863
20
242.167126
30
0.0
11
354.957918
21
243.323122
31
0.0
0
LINE
8
VISIBLE
10
330.721109
20
243.323122
30
0.0
11
331.192785
21
241.843044
31
0.0
0
LINE
8
VISIBLE
10
331.192785
20
241.843044
30
0.0
11
332.245546
21
240.408205
31
0.0
0
LINE
8
VISIBLE
10
332.245546
20
240.408205
30
0.0
11
334.246672
21
238.884261
31
0.0
0
LINE
8
VISIBLE
10
401.044710
20
253.950276
30
0.0
11
402.007179
21
253.702706
31
0.0
0
LINE
8
VISIBLE
10
402.007179
20
253.702706
30
0.0
11
403.244998
21
254.028609
31
0.0
0
LINE
8
VISIBLE
10
400.924794
20
254.028609
30
0.0
11
401.044710
21
253.950276
31
0.0
0
LINE
8
VISIBLE
10
386.572555
20
245.594774
30
0.0
11
387.535025
21
245.347203
31
0.0
0
LINE
8
VISIBLE
10
387.535025
20
245.347203
30
0.0
11
388.772843
21
245.673107
31
0.0
0
LINE
8
VISIBLE
10
386.452639
20
245.673107
30
0.0
11
386.572555
21
245.594774
31
0.0
0
LINE
8
VISIBLE
10
369.386872
20
235.672615
30
0.0
11
370.349341
21
235.425044
31
0.0
0
LINE
8
VISIBLE
10
370.349341
20
235.425044
30
0.0
11
371.587160
21
235.750948
31
0.0
0
LINE
8
VISIBLE
10
369.266956
20
235.750948
30
0.0
11
369.386872
21
235.672615
31
0.0
0
LINE
8
VISIBLE
10
354.914717
20
227.317113
30
0.0
11
355.877187
21
227.069542
31
0.0
0
LINE
8
VISIBLE
10
355.877187
20
227.069542
30
0.0
11
357.115005
21
227.395445
31
0.0
0
LINE
8
VISIBLE
10
354.794801
20
227.395445
30
0.0
11
354.914717
21
227.317113
31
0.0
0
LINE
8
VISIBLE
10
324.000000
20
242.800903
30
0.0
11
324.000000
21
243.845341
31
0.0
0
LINE
8
VISIBLE
10
324.049158
20
243.089063
30
0.0
11
324.049158
21
244.133500
31
0.0
0
LINE
8
VISIBLE
10
324.194742
20
243.366148
30
0.0
11
324.194742
21
244.410586
31
0.0
0
LINE
8
VISIBLE
10
324.431158
20
243.621512
30
0.0
11
324.431158
21
244.665950
31
0.0
0
LINE
8
VISIBLE
10
324.749320
20
243.845341
30
0.0
11
324.749320
21
244.889778
31
0.0
0
LINE
8
VISIBLE
10
372.688332
20
271.522942
30
0.0
11
372.688332
21
272.567380
31
0.0
0
LINE
8
VISIBLE
10
373.076014
20
271.706633
30
0.0
11
373.076014
21
272.751071
31
0.0
0
LINE
8
VISIBLE
10
373.518317
20
271.843128
30
0.0
11
373.518317
21
272.887566
31
0.0
0
LINE
8
VISIBLE
10
406.000000
20
253.767500
30
0.0
11
406.000000
21
254.811937
31
0.0
0
LINE
8
VISIBLE
10
373.998244
20
271.927181
30
0.0
11
373.998244
21
272.971619
31
0.0
0
LINE
8
VISIBLE
10
405.950842
20
254.055659
30
0.0
11
405.950842
21
255.100097
31
0.0
0
LINE
8
VISIBLE
10
374.497351
20
271.955562
30
0.0
11
374.497351
21
273.000000
31
0.0
0
LINE
8
VISIBLE
10
405.805258
20
254.332745
30
0.0
11
405.805258
21
255.377183
31
0.0
0
LINE
8
VISIBLE
10
374.996459
20
271.927181
30
0.0
11
374.996459
21
272.971619
31
0.0
0
LINE
8
VISIBLE
10
405.568842
20
254.588109
30
0.0
11
405.568842
21
255.632547
31
0.0
0
LINE
8
VISIBLE
10
375.476386
20
271.843128
30
0.0
11
375.476386
21
272.887566
31
0.0
0
LINE
8
VISIBLE
10
405.250680
20
254.811937
30
0.0
11
405.250680
21
255.856375
31
0.0
0
LINE
8
VISIBLE
10
375.918689
20
271.706633
30
0.0
11
375.918689
21
272.751071
31
0.0
0
LINE
8
VISIBLE
10
376.306371
20
271.522942
30
0.0
11
376.306371
21
272.567380
31
0.0
0
LINE
8
VISIBLE
10
365.829985
20
244.830702
30
0.0
11
365.829985
21
245.875140
31
0.0
0
LINE
8
VISIBLE
10
365.387682
20
244.967197
30
0.0
11
365.387682
21
246.011634
31
0.0
0
LINE
8
VISIBLE
10
366.309912
20
244.746649
30
0.0
11
366.309912
21
245.791087
31
0.0
0
LINE
8
VISIBLE
10
366.809019
20
244.718268
30
0.0
11
366.809019
21
245.762705
31
0.0
0
LINE
8
VISIBLE
10
367.308127
20
244.746649
30
0.0
11
367.308127
21
245.791087
31
0.0
0
LINE
8
VISIBLE
10
367.788054
20
244.830702
30
0.0
11
367.788054
21
245.875140
31
0.0
0
LINE
8
VISIBLE
10
368.230357
20
244.967197
30
0.0
11
368.230357
21
246.011634
31
0.0
0
LINE
8
VISIBLE
10
368.618039
20
245.150888
30
0.0
11
368.618039
21
246.195326
31
0.0
0
LINE
8
VISIBLE
10
370.427058
20
246.195326
30
0.0
11
370.427058
21
247.239763
31
0.0
0
LINE
8
VISIBLE
10
370.745220
20
246.419154
30
0.0
11
370.745220
21
247.463592
31
0.0
0
LINE
8
VISIBLE
10
370.981636
20
246.674518
30
0.0
11
370.981636
21
247.718956
31
0.0
0
LINE
8
VISIBLE
10
371.127220
20
246.951604
30
0.0
11
371.127220
21
247.527923
31
0.0
0
LINE
8
VISIBLE
10
357.063760
20
250.084917
30
0.0
11
357.063760
21
250.661236
31
0.0
0
LINE
8
VISIBLE
10
357.209344
20
249.807831
30
0.0
11
357.209344
21
250.852269
31
0.0
0
LINE
8
VISIBLE
10
357.445760
20
249.552467
30
0.0
11
357.445760
21
250.596905
31
0.0
0
LINE
8
VISIBLE
10
357.763923
20
249.328639
30
0.0
11
357.763923
21
250.373077
31
0.0
0
LINE
8
VISIBLE
10
365.000000
20
245.150888
30
0.0
11
365.000000
21
246.195326
31
0.0
0
LINE
8
VISIBLE
10
365.904510
20
256.117485
30
0.0
11
365.904510
21
257.161922
31
0.0
0
LINE
8
VISIBLE
10
334.246672
20
237.839823
30
0.0
11
334.246672
21
238.884261
31
0.0
0
LINE
8
VISIBLE
10
401.044710
20
252.905838
30
0.0
11
401.044710
21
253.950276
31
0.0
0
LINE
8
VISIBLE
10
386.572555
20
244.550336
30
0.0
11
386.572555
21
245.594774
31
0.0
0
LINE
8
VISIBLE
10
369.386872
20
234.628177
30
0.0
11
369.386872
21
235.672615
31
0.0
0
LINE
8
VISIBLE
10
354.914717
20
226.272675
30
0.0
11
354.914717
21
227.317113
31
0.0
0
LINE
8
VISIBLE
10
58.004830
20
40.300000
30
0.0
11
19.300000
21
40.300000
31
0.0
0
LINE
8
VISIBLE
10
19.300000
20
40.300000
30
0.0
11
18.519639
21
40.223141
31
0.0
0
LINE
8
VISIBLE
10
18.519639
20
40.223141
30
0.0
11
17.769266
21
39.995518
31
0.0
0
LINE
8
VISIBLE
10
17.769266
20
39.995518
30
0.0
11
17.077719
21
39.625878
31
0.0
0
LINE
8
VISIBLE
10
17.077719
20
39.625878
30
0.0
11
16.471573
21
39.128427
31
0.0
0
LINE
8
VISIBLE
10
16.471573
20
39.128427
30
0.0
11
16.312362
21
38.934429
31
0.0
0
CIRCLE
8
VISIBLE
10
21.300000
20
35.300000
30
0.0
40
2.300000
0
CIRCLE
8
VISIBLE
10
53.300000
20
35.300000
30
0.0
40
2.300000
0
CIRCLE
8
SECTION
10
37.300000
20
35.300000
30
0.0
40
21.300000
0
LINE
8
VISIBLE
10
118.887638
20
38.934429
30
0.0
11
118.728427
21
39.128427
31
0.0
0
LINE
8
VISIBLE
10
118.728427
20
39.128427
30
0.0
11
118.122281
21
39.625878
31
0.0
0
LINE
8
VISIBLE
10
118.122281
20
39.625878
30
0.0
11
117.430734
21
39.995518
31
0.0
0
LINE
8
VISIBLE
10
117.430734
20
39.995518
30
0.0
11
116.680361
21
40.223141
31
0.0
0
LINE
8
VISIBLE
10
116.680361
20
40.223141
30
0.0
11
115.900000
21
40.300000
31
0.0
0
LINE
8
VISIBLE
10
115.900000
20
40.300000
30
0.0
11
77.195170
21
40.300000
31
0.0
0
CIRCLE
8
VISIBLE
10
81.900000
20
35.300000
30
0.0
40
2.300000
0
CIRCLE
8
VISIBLE
10
113.900000
20
35.300000
30
0.0
40
2.300000
0
CIRCLE
8
SECTION
10
97.900000
20
35.300000
30
0.0
40
21.300000
0
LINE
8
VISIBLE
10
60.510000
20
119.495000
30
0.0
11
76.233758
21
119.495000
31
0.0
0
LINE
8
VISIBLE
10
58.559097
20
119.687147
30
0.0
11
60.510000
21
119.495000
31
0.0
0
LINE
8
VISIBLE
10
56.683166
20
120.256205
30
0.0
11
58.559097
21
119.687147
31
0.0
0
LINE
8
VISIBLE
10
54.954298
20
121.180304
30
0.0
11
56.683166
21
120.256205
31
0.0
0
LINE
8
VISIBLE
10
53.438932
20
122.423932
30
0.0
11
54.954298
21
121.180304
31
0.0
0
LINE
8
VISIBLE
10
52.195304
20
123.939298
30
0.0
11
53.438932
21
122.423932
31
0.0
0
LINE
8
VISIBLE
10
51.271205
20
125.668166
30
0.0
11
52.195304
21
123.939298
31
0.0
0
LINE
8
VISIBLE
10
50.702147
20
127.544097
30
0.0
11
51.271205
21
125.668166
31
0.0
0
LINE
8
VISIBLE
10
50.510000
20
193.621458
30
0.0
11
50.510000
21
129.495000
31
0.0
0
LINE
8
VISIBLE
10
50.510000
20
129.495000
30
0.0
11
50.702147
21
127.544097
31
0.0
0
CIRCLE
8
SECTION
10
56.000000
20
154.000000
30
0.0
40
40.000000
0
LINE
8
CENTER
10
35.975000
20
211.500000
30
0.0
11
39.070000
21
211.500000
31
0.0
0
LINE
8
CENTER
10
40.680000
20
211.500000
30
0.0
11
43.775000
21
211.500000
31
0.0
0
LINE
8
CENTER
10
39.875000
20
207.600000
30
0.0
11
39.875000
21
210.695000
31
0.0
0
LINE
8
CENTER
10
39.875000
20
212.305000
30
0.0
11
39.875000
21
215.400000
31
0.0
0
LINE
8
CENTER
10
67.975000
20
211.500000
30
0.0
11
71.070000
21
211.500000
31
0.0
0
LINE
8
CENTER
10
72.680000
20
211.500000
30
0.0
11
75.775000
21
211.500000
31
0.0
0
LINE
8
CENTER
10
71.875000
20
207.600000
30
0.0
11
71.875000
21
210.695000
31
0.0
0
LINE
8
CENTER
10
71.875000
20
212.305000
30
0.0
11
71.875000
21
215.400000
31
0.0
0
LINE
8
CENTER
10
105.975000
20
211.500000
30
0.0
11
109.070000
21
211.500000
31
0.0
0
LINE
8
CENTER
10
110.680000
20
211.500000
30
0.0
11
113.775000
21
211.500000
31
0.0
0
LINE
8
CENTER
10
109.875000
20
207.600000
30
0.0
11
109.875000
21
210.695000
31
0.0
0
LINE
8
CENTER
10
109.875000
20
212.305000
30
0.0
11
109.875000
21
215.400000
31
0.0
0
LINE
8
CENTER
10
137.975000
20
211.500000
30
0.0
11
141.070000
21
211.500000
31
0.0
0
LINE
8
CENTER
10
142.680000
20
211.500000
30
0.0
11
145.775000
21
211.500000
31
0.0
0
LINE
8
CENTER
10
141.875000
20
207.600000
30
0.0
11
141.875000
21
210.695000
31
0.0
0
LINE
8
CENTER
10
141.875000
20
212.305000
30
0.0
11
141.875000
21
215.400000
31
0.0
0
LINE
8
CENTER
10
35.275000
20
166.500000
30
0.0
11
54.675000
21
166.500000
31
0.0
0
LINE
8
CENTER
10
57.075000
20
166.500000
30
0.0
11
76.475000
21
166.500000
31
0.0
0
LINE
8
CENTER
10
55.875000
20
145.900000
30
0.0
11
55.875000
21
165.300000
31
0.0
0
LINE
8
CENTER
10
55.875000
20
167.700000
30
0.0
11
55.875000
21
187.100000
31
0.0
0
LINE
8
CENTER
10
105.275000
20
166.500000
30
0.0
11
124.675000
21
166.500000
31
0.0
0
LINE
8
CENTER
10
127.075000
20
166.500000
30
0.0
11
146.475000
21
166.500000
31
0.0
0
LINE
8
CENTER
10
125.875000
20
145.900000
30
0.0
11
125.875000
21
165.300000
31
0.0
0
LINE
8
CENTER
10
125.875000
20
167.700000
30
0.0
11
125.875000
21
187.100000
31
0.0
0
LINE
8
DIM
10
33.875000
20
143.300000
30
0.0
11
33.875000
21
121.500000
31
0.0
0
LINE
8
DIM
10
147.875000
20
143.300000
30
0.0
11
147.875000
21
121.500000
31
0.0
0
LINE
8
DIM
10
33.875000
20
123.500000
30
0.0
11
147.875000
21
123.500000
31
0.0
0
SOLID
8
DIM
10
33.875000
20
123.500000
30
0.0
11
37.075000
21
122.892000
31
0.0
12
37.075000
22
124.108000
32
0.0
13
37.075000
23
124.108000
33
0.0
0
SOLID
8
DIM
10
147.875000
20
123.500000
30
0.0
11
144.675000
21
124.108000
31
0.0
12
144.675000
22
122.892000
32
0.0
13
144.675000
23
122.892000
33
0.0
0
TEXT
8
TEXT
10
90.875000
20
124.500000
30
0.0
40
2.5000
1
57.00
72
1
73
0
11
90.875000
21
124.500000
31
0.0
0
LINE
8
DIM
10
32.675000
20
144.500000
30
0.0
11
10.875000
21
144.500000
31
0.0
0
LINE
8
DIM
10
32.675000
20
216.500000
30
0.0
11
10.875000
21
216.500000
31
0.0
0
LINE
8
DIM
10
12.875000
20
144.500000
30
0.0
11
12.875000
21
216.500000
31
0.0
0
SOLID
8
DIM
10
12.875000
20
144.500000
30
0.0
11
13.483000
21
147.700000
31
0.0
12
12.267000
22
147.700000
32
0.0
13
12.267000
23
147.700000
33
0.0
0
SOLID
8
DIM
10
12.875000
20
216.500000
30
0.0
11
12.267000
21
213.300000
31
0.0
12
13.483000
22
213.300000
32
0.0
13
13.483000
23
213.300000
33
0.0
0
TEXT
8
TEXT
10
11.875000
20
180.500000
30
0.0
40
2.5000
1
36.00
50
90.0000
72
1
73
0
11
11.875000
21
180.500000
31
0.0
0
SOLID
8
DIM
10
41.291021
20
213.312425
30
0.0
11
43.740249
21
215.459737
31
0.0
12
42.782028
22
216.208381
32
0.0
13
42.782028
23
216.208381
33
0.0
0
LINE
8
DIM
10
41.291021
20
213.312425
30
0.0
11
49.250428
21
223.500000
31
0.0
0
LINE
8
DIM
10
49.250428
20
223.500000
30
0.0
11
54.250428
21
223.500000
31
0.0
0
TEXT
8
TEXT
10
55.050428
20
224.500000
30
0.0
40
2.5000
1
4x Ø2.30 THRU
0
SOLID
8
DIM
10
67.572568
20
181.472204
30
0.0
11
70.021795
21
183.619517
31
0.0
12
69.063574
22
184.368161
32
0.0
13
69.063574
23
184.368161
33
0.0
0
LINE
8
DIM
10
67.572568
20
181.472204
30
0.0
11
105.193655
21
229.625000
31
0.0
0
LINE
8
DIM
10
105.193655
20
229.625000
30
0.0
11
110.193655
21
229.625000
31
0.0
0
TEXT
8
TEXT
10
110.993655
20
230.625000
30
0.0
40
2.5000
1
2x Ø19.00 THRU
0
LINE
8
DIM
10
125.875000
20
165.300000
30
0.0
11
125.875000
21
114.500000
31
0.0
0
LINE
8
DIM
10
55.875000
20
165.300000
30
0.0
11
55.875000
21
114.500000
31
0.0
0
LINE
8
DIM
10
55.875000
20
116.500000
30
0.0
11
125.875000
21
116.500000
31
0.0
0
SOLID
8
DIM
10
55.875000
20
116.500000
30
0.0
11
59.075000
21
115.892000
31
0.0
12
59.075000
22
117.108000
32
0.0
13
59.075000
23
117.108000
33
0.0
0
SOLID
8
DIM
10
125.875000
20
116.500000
30
0.0
11
122.675000
21
117.108000
31
0.0
12
122.675000
22
115.892000
32
0.0
13
122.675000
23
115.892000
33
0.0
0
TEXT
8
TEXT
10
90.875000
20
117.500000
30
0.0
40
2.5000
1
35.00
72
1
73
0
11
90.875000
21
117.500000
31
0.0
0
TEXT
8
TEXT
10
90.875000
20
104.500000
30
0.0
40
4.0000
1
TOP VIEW
72
1
73
0
11
90.875000
21
104.500000
31
0.0
0
LINE
8
TEXT
10
81.275000
20
102.900000
30
0.0
11
100.475000
21
102.900000
31
0.0
0
TEXT
8
TEXT
10
90.875000
20
98.500000
30
0.0
40
2.4000
1
X →   Y ↑
72
1
73
0
11
90.875000
21
98.500000
31
0.0
0
LINE
8
DIM
10
33.875000
20
79.300000
30
0.0
11
33.875000
21
66.500000
31
0.0
0
LINE
8
DIM
10
147.875000
20
79.300000
30
0.0
11
147.875000
21
66.500000
31
0.0
0
LINE
8
DIM
10
33.875000
20
68.500000
30
0.0
11
147.875000
21
68.500000
31
0.0
0
SOLID
8
DIM
10
33.875000
20
68.500000
30
0.0
11
37.075000
21
67.892000
31
0.0
12
37.075000
22
69.108000
32
0.0
13
37.075000
23
69.108000
33
0.0
0
SOLID
8
DIM
10
147.875000
20
68.500000
30
0.0
11
144.675000
21
69.108000
31
0.0
12
144.675000
22
67.892000
32
0.0
13
144.675000
23
67.892000
33
0.0
0
TEXT
8
TEXT
10
90.875000
20
69.500000
30
0.0
40
2.5000
1
57.00
72
1
73
0
11
90.875000
21
69.500000
31
0.0
0
LINE
8
DIM
10
32.675000
20
80.500000
30
0.0
11
19.875000
21
80.500000
31
0.0
0
LINE
8
DIM
10
32.675000
20
86.500000
30
0.0
11
19.875000
21
86.500000
31
0.0
0
LINE
8
DIM
10
21.875000
20
80.500000
30
0.0
11
21.875000
21
86.500000
31
0.0
0
SOLID
8
DIM
10
21.875000
20
80.500000
30
0.0
11
21.267000
21
77.300000
31
0.0
12
22.483000
22
77.300000
32
0.0
13
22.483000
23
77.300000
33
0.0
0
SOLID
8
DIM
10
21.875000
20
86.500000
30
0.0
11
22.483000
21
89.700000
31
0.0
12
21.267000
22
89.700000
32
0.0
13
21.267000
23
89.700000
33
0.0
0
LINE
8
DIM
10
21.875000
20
86.500000
30
0.0
11
21.875000
21
96.100000
31
0.0
0
TEXT
8
TEXT
10
20.875000
20
96.900000
30
0.0
40
2.5000
1
3.00
50
90.0000
0
TEXT
8
TEXT
10
90.875000
20
56.500000
30
0.0
40
4.0000
1
FRONT VIEW
72
1
73
0
11
90.875000
21
56.500000
31
0.0
0
LINE
8
TEXT
10
78.875000
20
54.900000
30
0.0
11
102.875000
21
54.900000
31
0.0
0
TEXT
8
TEXT
10
90.875000
20
50.500000
30
0.0
40
2.4000
1
-X →   Z ↑
72
1
73
0
11
90.875000
21
50.500000
31
0.0
0
LINE
8
DIM
10
185.875000
20
176.300000
30
0.0
11
185.875000
21
163.500000
31
0.0
0
LINE
8
DIM
10
299.875000
20
176.300000
30
0.0
11
299.875000
21
163.500000
31
0.0
0
LINE
8
DIM
10
185.875000
20
165.500000
30
0.0
11
299.875000
21
165.500000
31
0.0
0
SOLID
8
DIM
10
185.875000
20
165.500000
30
0.0
11
189.075000
21
164.892000
31
0.0
12
189.075000
22
166.108000
32
0.0
13
189.075000
23
166.108000
33
0.0
0
SOLID
8
DIM
10
299.875000
20
165.500000
30
0.0
11
296.675000
21
166.108000
31
0.0
12
296.675000
22
164.892000
32
0.0
13
296.675000
23
164.892000
33
0.0
0
TEXT
8
TEXT
10
242.875000
20
166.500000
30
0.0
40
2.5000
1
57.00
72
1
73
0
11
242.875000
21
166.500000
31
0.0
0
LINE
8
DIM
10
184.675000
20
177.500000
30
0.0
11
171.875000
21
177.500000
31
0.0
0
LINE
8
DIM
10
184.675000
20
183.500000
30
0.0
11
171.875000
21
183.500000
31
0.0
0
LINE
8
DIM
10
173.875000
20
177.500000
30
0.0
11
173.875000
21
183.500000
31
0.0
0
SOLID
8
DIM
10
173.875000
20
177.500000
30
0.0
11
173.267000
21
174.300000
31
0.0
12
174.483000
22
174.300000
32
0.0
13
174.483000
23
174.300000
33
0.0
0
SOLID
8
DIM
10
173.875000
20
183.500000
30
0.0
11
174.483000
21
186.700000
31
0.0
12
173.267000
22
186.700000
32
0.0
13
173.267000
23
186.700000
33
0.0
0
LINE
8
DIM
10
173.875000
20
183.500000
30
0.0
11
173.875000
21
193.100000
31
0.0
0
TEXT
8
TEXT
10
172.875000
20
193.900000
30
0.0
40
2.5000
1
3.00
50
90.0000
0
LINE
8
HATCH
10
189.574997
20
177.500000
30
0.0
11
189.575000
21
177.500003
31
0.0
0
LINE
8
HATCH
10
185.875000
20
178.042644
30
0.0
11
187.332356
21
179.500000
31
0.0
0
LINE
8
HATCH
10
299.874997
20
177.500000
30
0.0
11
299.875000
21
177.500003
31
0.0
0
LINE
8
HATCH
10
296.175000
20
178.042644
30
0.0
11
297.632356
21
179.500000
31
0.0
0
LINE
8
HATCH
10
291.574997
20
177.500000
30
0.0
11
291.575000
21
177.500003
31
0.0
0
LINE
8
HATCH
10
287.332356
20
177.500000
30
0.0
11
289.332356
21
179.500000
31
0.0
0
LINE
8
HATCH
10
283.089716
20
177.500000
30
0.0
11
285.089716
21
179.500000
31
0.0
0
LINE
8
HATCH
10
278.847075
20
177.500000
30
0.0
11
280.847075
21
179.500000
31
0.0
0
LINE
8
HATCH
10
274.604434
20
177.500000
30
0.0
11
276.604434
21
179.500000
31
0.0
0
LINE
8
HATCH
10
270.361794
20
177.500000
30
0.0
11
272.361794
21
179.500000
31
0.0
0
LINE
8
HATCH
10
266.119153
20
177.500000
30
0.0
11
268.119153
21
179.500000
31
0.0
0
LINE
8
HATCH
10
259.574997
20
177.500000
30
0.0
11
259.575000
21
177.500003
31
0.0
0
LINE
8
HATCH
10
255.332356
20
177.500000
30
0.0
11
257.332356
21
179.500000
31
0.0
0
LINE
8
HATCH
10
251.089716
20
177.500000
30
0.0
11
253.089716
21
179.500000
31
0.0
0
LINE
8
HATCH
10
246.847075
20
177.500000
30
0.0
11
248.847075
21
179.500000
31
0.0
0
LINE
8
HATCH
10
242.604434
20
177.500000
30
0.0
11
244.604434
21
179.500000
31
0.0
0
LINE
8
HATCH
10
238.361794
20
177.500000
30
0.0
11
240.361794
21
179.500000
31
0.0
0
LINE
8
HATCH
10
234.119153
20
177.500000
30
0.0
11
236.119153
21
179.500000
31
0.0
0
LINE
8
HATCH
10
229.876512
20
177.500000
30
0.0
11
231.876512
21
179.500000
31
0.0
0
LINE
8
HATCH
10
226.175000
20
178.041128
30
0.0
11
227.633872
21
179.500000
31
0.0
0
LINE
8
HATCH
10
221.574997
20
177.500000
30
0.0
11
221.575000
21
177.500003
31
0.0
0
LINE
8
HATCH
10
217.332356
20
177.500000
30
0.0
11
219.332356
21
179.500000
31
0.0
0
LINE
8
HATCH
10
213.089716
20
177.500000
30
0.0
11
215.089716
21
179.500000
31
0.0
0
LINE
8
HATCH
10
208.847075
20
177.500000
30
0.0
11
210.847075
21
179.500000
31
0.0
0
LINE
8
HATCH
10
204.604434
20
177.500000
30
0.0
11
206.604434
21
179.500000
31
0.0
0
LINE
8
HATCH
10
200.361794
20
177.500000
30
0.0
11
202.361794
21
179.500000
31
0.0
0
LINE
8
HATCH
10
196.119153
20
177.500000
30
0.0
11
198.119153
21
179.500000
31
0.0
0
LINE
8
DIM
10
300.124998
20
177.500000
30
0.0
11
310.875000
21
177.500000
31
0.0
0
LINE
8
DIM
10
300.124998
20
179.500000
30
0.0
11
310.875000
21
179.500000
31
0.0
0
LINE
8
DIM
10
308.875000
20
177.500000
30
0.0
11
308.875000
21
179.500000
31
0.0
0
SOLID
8
DIM
10
308.875000
20
177.500000
30
0.0
11
308.267000
21
174.300000
31
0.0
12
309.483000
22
174.300000
32
0.0
13
309.483000
23
174.300000
33
0.0
0
SOLID
8
DIM
10
308.875000
20
179.500000
30
0.0
11
309.483000
21
182.700000
31
0.0
12
308.267000
22
182.700000
32
0.0
13
308.267000
23
182.700000
33
0.0
0
LINE
8
DIM
10
308.875000
20
179.500000
30
0.0
11
308.875000
21
189.100000
31
0.0
0
TEXT
8
TEXT
10
307.875000
20
189.900000
30
0.0
40
2.5000
1
1.00 WALL
50
90.0000
0
LINE
8
DIM
10
185.875000
20
178.716669
30
0.0
11
185.875000
21
192.500000
31
0.0
0
LINE
8
DIM
10
189.575000
20
178.716669
30
0.0
11
189.575000
21
192.500000
31
0.0
0
LINE
8
DIM
10
185.875000
20
190.500000
30
0.0
11
189.575000
21
190.500000
31
0.0
0
SOLID
8
DIM
10
185.875000
20
190.500000
30
0.0
11
182.675000
21
191.108000
31
0.0
12
182.675000
22
189.892000
32
0.0
13
182.675000
23
189.892000
33
0.0
0
SOLID
8
DIM
10
189.575000
20
190.500000
30
0.0
11
192.775000
21
189.892000
31
0.0
12
192.775000
22
191.108000
32
0.0
13
192.775000
23
191.108000
33
0.0
0
LINE
8
DIM
10
189.575000
20
190.500000
30
0.0
11
199.175000
21
190.500000
31
0.0
0
TEXT
8
TEXT
10
199.975000
20
190.900000
30
0.0
40
2.5000
1
1.85 WALL
0
TEXT
8
TEXT
10
242.875000
20
153.500000
30
0.0
40
4.0000
1
SECTION A-A
72
1
73
0
11
242.875000
21
153.500000
31
0.0
0
LINE
8
TEXT
10
229.675000
20
151.900000
30
0.0
11
256.075000
21
151.900000
31
0.0
0
TEXT
8
TEXT
10
365.000000
20
218.612840
30
0.0
40
4.0000
1
ISOMETRIC VIEW
72
1
73
0
11
365.000000
21
218.612840
31
0.0
0
LINE
8
TEXT
10
348.200000
20
217.012840
30
0.0
11
381.800000
21
217.012840
31
0.0
0
TEXT
8
TEXT
10
365.000000
20
212.612840
30
0.0
40
2.6000
1
57.00 x 36.00 x 3.00 mm
72
1
73
0
11
365.000000
21
212.612840
31
0.0
0
LINE
8
CENTER
10
17.400000
20
35.300000
30
0.0
11
20.495000
21
35.300000
31
0.0
0
LINE
8
CENTER
10
22.105000
20
35.300000
30
0.0
11
25.200000
21
35.300000
31
0.0
0
LINE
8
CENTER
10
21.300000
20
31.400000
30
0.0
11
21.300000
21
34.495000
31
0.0
0
LINE
8
CENTER
10
21.300000
20
36.105000
30
0.0
11
21.300000
21
39.200000
31
0.0
0
LINE
8
CENTER
10
49.400000
20
35.300000
30
0.0
11
52.495000
21
35.300000
31
0.0
0
LINE
8
CENTER
10
54.105000
20
35.300000
30
0.0
11
57.200000
21
35.300000
31
0.0
0
LINE
8
CENTER
10
53.300000
20
31.400000
30
0.0
11
53.300000
21
34.495000
31
0.0
0
LINE
8
CENTER
10
53.300000
20
36.105000
30
0.0
11
53.300000
21
39.200000
31
0.0
0
TEXT
8
TEXT
10
37.300000
20
61.600000
30
0.0
40
4.0000
1
DETAIL A
72
1
73
0
11
37.300000
21
61.600000
31
0.0
0
LINE
8
TEXT
10
27.700000
20
60.000000
30
0.0
11
46.900000
21
60.000000
31
0.0
0
TEXT
8
TEXT
10
37.300000
20
67.100000
30
0.0
40
2.8000
1
SCALE 2:1
72
1
73
0
11
37.300000
21
67.100000
31
0.0
0
LINE
8
CENTER
10
78.000000
20
35.300000
30
0.0
11
81.095000
21
35.300000
31
0.0
0
LINE
8
CENTER
10
82.705000
20
35.300000
30
0.0
11
85.800000
21
35.300000
31
0.0
0
LINE
8
CENTER
10
81.900000
20
31.400000
30
0.0
11
81.900000
21
34.495000
31
0.0
0
LINE
8
CENTER
10
81.900000
20
36.105000
30
0.0
11
81.900000
21
39.200000
31
0.0
0
LINE
8
CENTER
10
110.000000
20
35.300000
30
0.0
11
113.095000
21
35.300000
31
0.0
0
LINE
8
CENTER
10
114.705000
20
35.300000
30
0.0
11
117.800000
21
35.300000
31
0.0
0
LINE
8
CENTER
10
113.900000
20
31.400000
30
0.0
11
113.900000
21
34.495000
31
0.0
0
LINE
8
CENTER
10
113.900000
20
36.105000
30
0.0
11
113.900000
21
39.200000
31
0.0
0
TEXT
8
TEXT
10
97.900000
20
61.600000
30
0.0
40
4.0000
1
DETAIL B
72
1
73
0
11
97.900000
21
61.600000
31
0.0
0
LINE
8
TEXT
10
88.300000
20
60.000000
30
0.0
11
107.500000
21
60.000000
31
0.0
0
TEXT
8
TEXT
10
97.900000
20
67.100000
30
0.0
40
2.8000
1
SCALE 2:1
72
1
73
0
11
97.900000
21
67.100000
31
0.0
0
TEXT
8
TEXT
10
56.000000
20
199.000000
30
0.0
40
4.0000
1
DETAIL C
72
1
73
0
11
56.000000
21
199.000000
31
0.0
0
LINE
8
TEXT
10
46.400000
20
197.400000
30
0.0
11
65.600000
21
197.400000
31
0.0
0
TEXT
8
TEXT
10
56.000000
20
204.500000
30
0.0
40
2.8000
1
SCALE 5:1
72
1
73
0
11
56.000000
21
204.500000
31
0.0
0
LINE
8
CUT
10
24.875000
20
211.500000
30
0.0
11
38.875000
21
211.500000
31
0.0
0
LINE
8
CUTTHIN
10
38.875000
20
211.500000
30
0.0
11
142.875000
21
211.500000
31
0.0
0
LINE
8
CUT
10
142.875000
20
211.500000
30
0.0
11
156.875000
21
211.500000
31
0.0
0
LINE
8
CUT
10
24.875000
20
211.500000
30
0.0
11
24.875000
21
202.500000
31
0.0
0
SOLID
8
CUT
10
24.875000
20
202.500000
30
0.0
11
25.673000
21
206.700000
31
0.0
12
24.077000
22
206.700000
32
0.0
13
24.077000
23
206.700000
33
0.0
0
TEXT
8
TEXT
10
24.875000
20
216.500000
30
0.0
40
4.0000
1
A
72
1
73
2
11
24.875000
21
216.500000
31
0.0
0
LINE
8
CUT
10
156.875000
20
211.500000
30
0.0
11
156.875000
21
202.500000
31
0.0
0
SOLID
8
CUT
10
156.875000
20
202.500000
30
0.0
11
157.673000
21
206.700000
31
0.0
12
156.077000
22
206.700000
32
0.0
13
156.077000
23
206.700000
33
0.0
0
TEXT
8
TEXT
10
156.875000
20
216.500000
30
0.0
40
4.0000
1
A
72
1
73
2
11
156.875000
21
216.500000
31
0.0
0
CIRCLE
8
CENTER
10
55.875000
20
211.500000
30
0.0
40
21.300000
0
TEXT
8
TEXT
10
78.675000
20
234.300000
30
0.0
40
4.0000
1
A
0
CIRCLE
8
CENTER
10
125.875000
20
211.500000
30
0.0
40
21.300000
0
TEXT
8
TEXT
10
148.675000
20
234.300000
30
0.0
40
4.0000
1
B
0
CIRCLE
8
CENTER
10
36.071000
20
158.302000
30
0.0
40
16.000000
0
TEXT
8
TEXT
10
53.571000
20
175.802000
30
0.0
40
4.0000
1
C
0
TEXT
8
TEXT
10
322.000000
20
200.112840
30
0.0
40
3.0000
1
HOLE TABLE — 6 POSITIONS
0
LINE
8
TITLE
10
322.000000
20
197.612840
30
0.0
11
377.920000
21
197.612840
31
0.0
0
TEXT
8
TITLE
10
323.500000
20
195.142840
30
0.0
40
2.2000
1
TAG
0
TEXT
8
TITLE
10
330.460000
20
195.142840
30
0.0
40
2.2000
1
SIZE
0
TEXT
8
TITLE
10
347.980000
20
195.142840
30
0.0
40
2.2000
1
X
0
TEXT
8
TITLE
10
358.900000
20
195.142840
30
0.0
40
2.2000
1
Y
0
TEXT
8
TITLE
10
368.500000
20
195.142840
30
0.0
40
2.2000
1
C'BORE
0
LINE
8
TITLE
10
322.000000
20
193.542840
30
0.0
11
377.920000
21
193.542840
31
0.0
0
TEXT
8
TEXT
10
323.500000
20
191.072840
30
0.0
40
2.2000
1
A1
0
TEXT
8
TEXT
10
330.460000
20
191.072840
30
0.0
40
2.2000
1
Ø2.30 THRU
0
TEXT
8
TEXT
10
347.980000
20
191.072840
30
0.0
40
2.2000
1
-25.50
0
TEXT
8
TEXT
10
358.900000
20
191.072840
30
0.0
40
2.2000
1
20.50
0
TEXT
8
TEXT
10
368.500000
20
191.072840
30
0.0
40
2.2000
1
-
0
TEXT
8
TEXT
10
323.500000
20
187.002840
30
0.0
40
2.2000
1
A2
0
TEXT
8
TEXT
10
330.460000
20
187.002840
30
0.0
40
2.2000
1
Ø2.30 THRU
0
TEXT
8
TEXT
10
347.980000
20
187.002840
30
0.0
40
2.2000
1
-9.50
0
TEXT
8
TEXT
10
358.900000
20
187.002840
30
0.0
40
2.2000
1
20.50
0
TEXT
8
TEXT
10
368.500000
20
187.002840
30
0.0
40
2.2000
1
-
0
TEXT
8
TEXT
10
323.500000
20
182.932840
30
0.0
40
2.2000
1
A3
0
TEXT
8
TEXT
10
330.460000
20
182.932840
30
0.0
40
2.2000
1
Ø2.30 THRU
0
TEXT
8
TEXT
10
347.980000
20
182.932840
30
0.0
40
2.2000
1
9.50
0
TEXT
8
TEXT
10
358.900000
20
182.932840
30
0.0
40
2.2000
1
20.50
0
TEXT
8
TEXT
10
368.500000
20
182.932840
30
0.0
40
2.2000
1
-
0
TEXT
8
TEXT
10
323.500000
20
178.862840
30
0.0
40
2.2000
1
A4
0
TEXT
8
TEXT
10
330.460000
20
178.862840
30
0.0
40
2.2000
1
Ø2.30 THRU
0
TEXT
8
TEXT
10
347.980000
20
178.862840
30
0.0
40
2.2000
1
25.50
0
TEXT
8
TEXT
10
358.900000
20
178.862840
30
0.0
40
2.2000
1
20.50
0
TEXT
8
TEXT
10
368.500000
20
178.862840
30
0.0
40
2.2000
1
-
0
TEXT
8
TEXT
10
323.500000
20
174.792840
30
0.0
40
2.2000
1
A5
0
TEXT
8
TEXT
10
330.460000
20
174.792840
30
0.0
40
2.2000
1
Ø19.00 THRU
0
TEXT
8
TEXT
10
347.980000
20
174.792840
30
0.0
40
2.2000
1
-17.50
0
TEXT
8
TEXT
10
358.900000
20
174.792840
30
0.0
40
2.2000
1
-2.00
0
TEXT
8
TEXT
10
368.500000
20
174.792840
30
0.0
40
2.2000
1
-
0
TEXT
8
TEXT
10
323.500000
20
170.722840
30
0.0
40
2.2000
1
A6
0
TEXT
8
TEXT
10
330.460000
20
170.722840
30
0.0
40
2.2000
1
Ø19.00 THRU
0
TEXT
8
TEXT
10
347.980000
20
170.722840
30
0.0
40
2.2000
1
17.50
0
TEXT
8
TEXT
10
358.900000
20
170.722840
30
0.0
40
2.2000
1
-2.00
0
TEXT
8
TEXT
10
368.500000
20
170.722840
30
0.0
40
2.2000
1
-
0
LINE
8
TITLE
10
322.000000
20
169.122840
30
0.0
11
377.920000
21
169.122840
31
0.0
0
LINE
8
TITLE
10
328.960000
20
169.122840
30
0.0
11
328.960000
21
197.612840
31
0.0
0
LINE
8
TITLE
10
346.480000
20
169.122840
30
0.0
11
346.480000
21
197.612840
31
0.0
0
LINE
8
TITLE
10
357.400000
20
169.122840
30
0.0
11
357.400000
21
197.612840
31
0.0
0
LINE
8
TITLE
10
367.000000
20
169.122840
30
0.0
11
367.000000
21
197.612840
31
0.0
0
LINE
8
TITLE
10
377.920000
20
169.122840
30
0.0
11
377.920000
21
197.612840
31
0.0
0
LINE
8
TITLE
10
322.000000
20
169.122840
30
0.0
11
322.000000
21
197.612840
31
0.0
0
TEXT
8
TITLE
10
322.000000
20
165.122840
30
0.0
40
1.7585
1
every row measured off the solid; positions are model
0
TEXT
8
TITLE
10
322.000000
20
162.485104
30
0.0
40
1.7585
1
coordinates, mm. C'BORE side is the face it opens on.
0
TEXT
8
TEXT
10
322.000000
20
152.847368
30
0.0
40
3.0000
1
NOTES
0
TEXT
8
TEXT
10
322.000000
20
148.247368
30
0.0
40
2.4000
1
1. ALL DIMENSIONS IN mm AND DEGREES. EVERY DIMENSION AND
0
TEXT
8
TEXT
10
322.000000
20
144.527368
30
0.0
40
2.4000
1
   EVERY HOLE CALLOUT WAS MEASURED OFF THE SOLID.
0
TEXT
8
TEXT
10
322.000000
20
140.807368
30
0.0
40
2.4000
1
2. PROCESS: FDM.
0
TEXT
8
TEXT
10
322.000000
20
137.087368
30
0.0
40
2.4000
1
3. THINNEST WALL, WHOLE SOLID: 1.0000 mm, AT X=-27.402
0
TEXT
8
TEXT
10
322.000000
20
133.367368
30
0.0
40
2.4000
1
   Y=-6.099 Z=16.500 — MEASURED OVER THE WHOLE SOLID BY
0
TEXT
8
TEXT
10
322.000000
20
129.647368
30
0.0
40
2.4000
1
   RAY+EXACT AT 1.409 mm SAMPLE SPACING (A FEATURE
0
TEXT
8
TEXT
10
322.000000
20
125.927368
30
0.0
40
2.4000
1
   NARROWER THAN THAT CAN BE MISSED). A RAY MINIMUM AT AN
0
TEXT
8
TEXT
10
322.000000
20
122.207368
30
0.0
40
2.4000
1
   EDGE, A FILLET RUN-OUT OR A CHAMFER TIP IS A REAL
0
TEXT
8
TEXT
10
322.000000
20
118.487368
30
0.0
40
2.4000
1
   DISTANCE THROUGH MATERIAL AND IS NOT A PRINTABLE WALL.
0
TEXT
8
TEXT
10
322.000000
20
114.767368
30
0.0
40
2.4000
1
4. GENERAL TOLERANCE ±0.20 MM (FDM 3D PRINTING) UNLESS
0
TEXT
8
TEXT
10
322.000000
20
111.047368
30
0.0
40
2.4000
1
   OTHERWISE STATED, DERIVED FROM THE DECLARED PROCESS.
0
TEXT
8
TEXT
10
322.000000
20
107.327368
30
0.0
40
2.4000
1
5. SECTION A-A AT Y=20.50: THINNEST MATERIAL IN THIS PLANE
0
TEXT
8
TEXT
10
322.000000
20
103.607368
30
0.0
40
2.4000
1
   ONLY 1.00 mm, AT X=-28.02, Z=17.00 — A SCAN OF ONE CUT,
0
TEXT
8
TEXT
10
322.000000
20
99.887368
30
0.0
40
2.4000
1
   NOT THE PART MINIMUM.
0
TEXT
8
TEXT
10
322.000000
20
92.167368
30
0.0
40
3.0000
1
PRINT / DFM
0
TEXT
8
TEXT
10
322.000000
20
87.567368
30
0.0
40
2.4000
1
1. ORIENTATION: laid flat (57 x 36 x 3 mm)
0
TEXT
8
TEXT
10
322.000000
20
83.847368
30
0.0
40
2.4000
1
2. THINNEST WALL: 1.00 mm (floor 0.80 mm = 2 perimeters @
0
TEXT
8
TEXT
10
322.000000
20
80.127368
30
0.0
40
2.4000
1
   0.4 mm nozzle)
0
TEXT
8
TEXT
10
322.000000
20
76.407368
30
0.0
40
2.4000
1
3. FILAMENT: PLA, ~2 g (modelled), 15 layers @ 0.2 mm
0
LINE
8
FRAME
10
224.000000
20
10.000000
30
0.0
11
410.000000
21
10.000000
31
0.0
0
LINE
8
FRAME
10
410.000000
20
10.000000
30
0.0
11
410.000000
21
66.000000
31
0.0
0
LINE
8
FRAME
10
410.000000
20
66.000000
30
0.0
11
224.000000
21
66.000000
31
0.0
0
LINE
8
FRAME
10
224.000000
20
66.000000
30
0.0
11
224.000000
21
10.000000
31
0.0
0
LINE
8
TITLE
10
224.000000
20
53.000000
30
0.0
11
410.000000
21
53.000000
31
0.0
0
LINE
8
TITLE
10
224.000000
20
19.000000
30
0.0
11
410.000000
21
19.000000
31
0.0
0
LINE
8
TITLE
10
224.000000
20
27.500000
30
0.0
11
410.000000
21
27.500000
31
0.0
0
LINE
8
TITLE
10
224.000000
20
36.000000
30
0.0
11
410.000000
21
36.000000
31
0.0
0
LINE
8
TITLE
10
224.000000
20
44.500000
30
0.0
11
410.000000
21
44.500000
31
0.0
0
TEXT
8
TEXT
10
226.500000
20
59.500000
30
0.0
40
6.0000
1
MICRODUCK-TRUNK-BASE
72
0
73
2
11
226.500000
21
59.500000
31
0.0
0
LINE
8
TITLE
10
390.000000
20
53.000000
30
0.0
11
390.000000
21
66.000000
31
0.0
0
TEXT
8
TITLE
10
400.000000
20
63.600000
30
0.0
40
1.7000
1
REV
72
1
73
0
11
400.000000
21
63.600000
31
0.0
0
TEXT
8
TEXT
10
400.000000
20
55.000000
30
0.0
40
5.2000
1
A
72
1
73
0
11
400.000000
21
55.000000
31
0.0
0
LINE
8
TITLE
10
360.000000
20
53.000000
30
0.0
11
360.000000
21
66.000000
31
0.0
0
CIRCLE
8
TITLE
10
366.500000
20
59.500000
30
0.0
40
3.500000
0
CIRCLE
8
TITLE
10
366.500000
20
59.500000
30
0.0
40
1.960000
0
LINE
8
TITLE
10
376.300000
20
56.000000
30
0.0
11
376.300000
21
63.000000
31
0.0
0
LINE
8
TITLE
10
376.300000
20
63.000000
30
0.0
11
382.250000
21
61.460000
31
0.0
0
LINE
8
TITLE
10
382.250000
20
61.460000
30
0.0
11
382.250000
21
57.540000
31
0.0
0
LINE
8
TITLE
10
382.250000
20
57.540000
30
0.0
11
376.300000
21
56.000000
31
0.0
0
LINE
8
CENTER
10
361.500000
20
59.500000
30
0.0
11
383.750000
21
59.500000
31
0.0
0
LINE
8
TITLE
10
288.000000
20
19.000000
30
0.0
11
288.000000
21
53.000000
31
0.0
0
LINE
8
TITLE
10
352.000000
20
19.000000
30
0.0
11
352.000000
21
53.000000
31
0.0
0
TEXT
8
TITLE
10
225.600000
20
50.600000
30
0.0
40
1.7000
1
MATERIAL
0
TEXT
8
TEXT
10
225.600000
20
45.900000
30
0.0
40
2.5000
1
PLA
0
TEXT
8
TITLE
10
289.600000
20
50.600000
30
0.0
40
1.7000
1
PROCESS
0
TEXT
8
TEXT
10
289.600000
20
45.900000
30
0.0
40
2.5000
1
FDM
0
TEXT
8
TITLE
10
353.600000
20
50.600000
30
0.0
40
1.7000
1
SCALE
0
TEXT
8
TEXT
10
353.600000
20
45.900000
30
0.0
40
2.5000
1
2:1
0
TEXT
8
TITLE
10
225.600000
20
42.100000
30
0.0
40
1.7000
1
CATEGORY
0
TEXT
8
TEXT
10
225.600000
20
37.400000
30
0.0
40
2.5000
1
plate
0
TEXT
8
TITLE
10
257.600000
20
42.100000
30
0.0
40
1.7000
1
GENERAL TOL
0
TEXT
8
TEXT
10
257.600000
20
37.400000
30
0.0
40
2.5000
1
SEE NOTES
0
LINE
8
TITLE
10
256.000000
20
36.000000
30
0.0
11
256.000000
21
44.500000
31
0.0
0
TEXT
8
TITLE
10
289.600000
20
42.100000
30
0.0
40
1.7000
1
FINISH
0
TEXT
8
TEXT
10
289.600000
20
37.400000
30
0.0
40
2.5000
1
AS PRINTED
0
TEXT
8
TITLE
10
353.600000
20
42.100000
30
0.0
40
1.7000
1
SHEET
0
TEXT
8
TEXT
10
353.600000
20
37.400000
30
0.0
40
2.5000
1
A3  1/1
0
TEXT
8
TITLE
10
225.600000
20
33.600000
30
0.0
40
1.7000
1
VOLUME (MEASURED)
0
TEXT
8
TEXT
10
225.600000
20
28.900000
30
0.0
40
2.5000
1
1.41 cm3
0
TEXT
8
TITLE
10
289.600000
20
33.600000
30
0.0
40
1.7000
1
MASS (ASSUMES PLA)
0
TEXT
8
TEXT
10
289.600000
20
28.900000
30
0.0
40
2.5000
1
1.8 g
0
TEXT
8
TITLE
10
353.600000
20
33.600000
30
0.0
40
1.7000
1
UNITS
0
TEXT
8
TEXT
10
353.600000
20
28.900000
30
0.0
40
2.5000
1
mm / deg
0
TEXT
8
TITLE
10
225.600000
20
25.100000
30
0.0
40
1.7000
1
SIZE (BBOX, MEASURED)
0
TEXT
8
TEXT
10
225.600000
20
20.400000
30
0.0
40
2.5000
1
57.00 x 36.00 x 3.00
0
TEXT
8
TITLE
10
289.600000
20
25.100000
30
0.0
40
1.7000
1
DRAWN
0
TEXT
8
TEXT
10
289.600000
20
20.400000
30
0.0
40
2.5000
1
ce-cad  2026-09-02
0
TEXT
8
TITLE
10
353.600000
20
25.100000
30
0.0
40
1.7000
1
PROJECTION
0
TEXT
8
TEXT
10
353.600000
20
20.400000
30
0.0
40
2.5000
1
THIRD ANGLE
0
TEXT
8
TITLE
10
225.600000
20
16.600000
30
0.0
40
1.7000
1
SOURCE (DESIGN FILE)
0
TEXT
8
TEXT
10
225.600000
20
11.400000
30
0.0
40
2.6000
1
x
0
TEXT
8
TEXT
10
12.500000
20
280.500000
30
0.0
40
4.2000
1
microduck-trunk-base   SCALE 2:1   A3   THIRD ANGLE
0
ENDSEC
0
EOF
