0
SECTION
2
HEADER
9
$ACADVER
1
AC1009
9
$INSUNITS
70
4
9
$LTSCALE
40
1.0
9
$EXTMIN
10
0.0000
20
0.0000
30
0.0
9
$EXTMAX
10
420.0000
20
297.0000
30
0.0
0
ENDSEC
0
SECTION
2
TABLES
0
TABLE
2
LTYPE
70
4
0
LTYPE
2
CONTINUOUS
70
0
3
Solid line
72
65
73
0
40
0.0000
0
LTYPE
2
HIDDEN
70
0
3
Hidden __ __ __ __
72
65
73
2
40
3.6000
49
2.4000
49
-1.2000
0
LTYPE
2
CENTER
70
0
3
Center ____ _ ____ _
72
65
73
4
40
11.2000
49
7.0000
49
-1.4000
49
1.4000
49
-1.4000
0
LTYPE
2
PHANTOM
70
0
3
Phantom ____ _ _ ____
72
65
73
6
40
21.0000
49
11.0000
49
-2.0000
49
2.0000
49
-2.0000
49
2.0000
49
-2.0000
0
ENDTAB
0
TABLE
2
LAYER
70
12
0
LAYER
2
0
70
0
62
7
6
CONTINUOUS
0
LAYER
2
VISIBLE
70
0
62
7
6
CONTINUOUS
0
LAYER
2
SECTION
70
0
62
7
6
CONTINUOUS
0
LAYER
2
HIDDEN
70
0
62
8
6
HIDDEN
0
LAYER
2
CENTER
70
0
62
4
6
CENTER
0
LAYER
2
DIM
70
0
62
3
6
CONTINUOUS
0
LAYER
2
TEXT
70
0
62
3
6
CONTINUOUS
0
LAYER
2
HATCH
70
0
62
5
6
CONTINUOUS
0
LAYER
2
CUT
70
0
62
1
6
PHANTOM
0
LAYER
2
CUTTHIN
70
0
62
1
6
PHANTOM
0
LAYER
2
FRAME
70
0
62
7
6
CONTINUOUS
0
LAYER
2
TITLE
70
0
62
7
6
CONTINUOUS
0
ENDTAB
0
ENDSEC
0
SECTION
2
ENTITIES
0
LINE
8
TITLE
10
5.000000
20
5.000000
30
0.0
11
415.000000
21
5.000000
31
0.0
0
LINE
8
TITLE
10
415.000000
20
5.000000
30
0.0
11
415.000000
21
292.000000
31
0.0
0
LINE
8
TITLE
10
415.000000
20
292.000000
30
0.0
11
5.000000
21
292.000000
31
0.0
0
LINE
8
TITLE
10
5.000000
20
292.000000
30
0.0
11
5.000000
21
5.000000
31
0.0
0
LINE
8
FRAME
10
10.000000
20
10.000000
30
0.0
11
410.000000
21
10.000000
31
0.0
0
LINE
8
FRAME
10
410.000000
20
10.000000
30
0.0
11
410.000000
21
287.000000
31
0.0
0
LINE
8
FRAME
10
410.000000
20
287.000000
30
0.0
11
10.000000
21
287.000000
31
0.0
0
LINE
8
FRAME
10
10.000000
20
287.000000
30
0.0
11
10.000000
21
10.000000
31
0.0
0
TEXT
8
TITLE
10
60.000000
20
289.500000
30
0.0
40
2.4000
1
1
72
1
73
2
11
60.000000
21
289.500000
31
0.0
0
TEXT
8
TITLE
10
60.000000
20
7.500000
30
0.0
40
2.4000
1
1
72
1
73
2
11
60.000000
21
7.500000
31
0.0
0
TEXT
8
TITLE
10
160.000000
20
289.500000
30
0.0
40
2.4000
1
2
72
1
73
2
11
160.000000
21
289.500000
31
0.0
0
TEXT
8
TITLE
10
160.000000
20
7.500000
30
0.0
40
2.4000
1
2
72
1
73
2
11
160.000000
21
7.500000
31
0.0
0
LINE
8
TITLE
10
110.000000
20
5.000000
30
0.0
11
110.000000
21
10.000000
31
0.0
0
LINE
8
TITLE
10
110.000000
20
287.000000
30
0.0
11
110.000000
21
292.000000
31
0.0
0
TEXT
8
TITLE
10
260.000000
20
289.500000
30
0.0
40
2.4000
1
3
72
1
73
2
11
260.000000
21
289.500000
31
0.0
0
TEXT
8
TITLE
10
260.000000
20
7.500000
30
0.0
40
2.4000
1
3
72
1
73
2
11
260.000000
21
7.500000
31
0.0
0
LINE
8
TITLE
10
210.000000
20
5.000000
30
0.0
11
210.000000
21
10.000000
31
0.0
0
LINE
8
TITLE
10
210.000000
20
287.000000
30
0.0
11
210.000000
21
292.000000
31
0.0
0
TEXT
8
TITLE
10
360.000000
20
289.500000
30
0.0
40
2.4000
1
4
72
1
73
2
11
360.000000
21
289.500000
31
0.0
0
TEXT
8
TITLE
10
360.000000
20
7.500000
30
0.0
40
2.4000
1
4
72
1
73
2
11
360.000000
21
7.500000
31
0.0
0
LINE
8
TITLE
10
310.000000
20
5.000000
30
0.0
11
310.000000
21
10.000000
31
0.0
0
LINE
8
TITLE
10
310.000000
20
287.000000
30
0.0
11
310.000000
21
292.000000
31
0.0
0
TEXT
8
TITLE
10
7.500000
20
56.166667
30
0.0
40
2.4000
1
C
72
1
73
2
11
7.500000
21
56.166667
31
0.0
0
TEXT
8
TITLE
10
412.500000
20
56.166667
30
0.0
40
2.4000
1
C
72
1
73
2
11
412.500000
21
56.166667
31
0.0
0
TEXT
8
TITLE
10
7.500000
20
148.500000
30
0.0
40
2.4000
1
B
72
1
73
2
11
7.500000
21
148.500000
31
0.0
0
TEXT
8
TITLE
10
412.500000
20
148.500000
30
0.0
40
2.4000
1
B
72
1
73
2
11
412.500000
21
148.500000
31
0.0
0
LINE
8
TITLE
10
5.000000
20
102.333333
30
0.0
11
10.000000
21
102.333333
31
0.0
0
LINE
8
TITLE
10
410.000000
20
102.333333
30
0.0
11
415.000000
21
102.333333
31
0.0
0
TEXT
8
TITLE
10
7.500000
20
240.833333
30
0.0
40
2.4000
1
A
72
1
73
2
11
7.500000
21
240.833333
31
0.0
0
TEXT
8
TITLE
10
412.500000
20
240.833333
30
0.0
40
2.4000
1
A
72
1
73
2
11
412.500000
21
240.833333
31
0.0
0
LINE
8
TITLE
10
5.000000
20
194.666667
30
0.0
11
10.000000
21
194.666667
31
0.0
0
LINE
8
TITLE
10
410.000000
20
194.666667
30
0.0
11
415.000000
21
194.666667
31
0.0
0
LINE
8
VISIBLE
10
118.000000
20
117.000000
30
0.0
11
118.000000
21
129.000000
31
0.0
0
LINE
8
VISIBLE
10
118.000000
20
117.000000
30
0.0
11
113.000000
21
117.000000
31
0.0
0
LINE
8
VISIBLE
10
113.000000
20
129.000000
30
0.0
11
113.000000
21
117.000000
31
0.0
0
LINE
8
VISIBLE
10
118.000000
20
129.000000
30
0.0
11
113.000000
21
129.000000
31
0.0
0
LINE
8
VISIBLE
10
53.000000
20
129.000000
30
0.0
11
48.000000
21
129.000000
31
0.0
0
LINE
8
VISIBLE
10
53.000000
20
129.000000
30
0.0
11
61.000000
21
129.000000
31
0.0
0
LINE
8
VISIBLE
10
105.000000
20
129.000000
30
0.0
11
61.000000
21
129.000000
31
0.0
0
LINE
8
VISIBLE
10
105.000000
20
129.000000
30
0.0
11
113.000000
21
129.000000
31
0.0
0
LINE
8
VISIBLE
10
53.000000
20
117.000000
30
0.0
11
48.000000
21
117.000000
31
0.0
0
LINE
8
VISIBLE
10
53.000000
20
117.000000
30
0.0
11
61.000000
21
117.000000
31
0.0
0
LINE
8
VISIBLE
10
105.000000
20
117.000000
30
0.0
11
61.000000
21
117.000000
31
0.0
0
LINE
8
VISIBLE
10
105.000000
20
117.000000
30
0.0
11
113.000000
21
117.000000
31
0.0
0
LINE
8
VISIBLE
10
48.000000
20
117.000000
30
0.0
11
48.000000
21
129.000000
31
0.0
0
LINE
8
VISIBLE
10
53.000000
20
129.000000
30
0.0
11
53.000000
21
117.000000
31
0.0
0
LINE
8
VISIBLE
10
61.000000
20
129.000000
30
0.0
11
61.000000
21
117.000000
31
0.0
0
LINE
8
VISIBLE
10
105.000000
20
129.000000
30
0.0
11
105.000000
21
117.000000
31
0.0
0
LINE
8
HIDDEN
10
68.000000
20
129.000000
30
0.0
11
98.000000
21
129.000000
31
0.0
0
LINE
8
HIDDEN
10
98.000000
20
129.000000
30
0.0
11
68.000000
21
129.000000
31
0.0
0
LINE
8
HIDDEN
10
71.000000
20
117.000000
30
0.0
11
95.000000
21
117.000000
31
0.0
0
LINE
8
HIDDEN
10
95.000000
20
117.000000
30
0.0
11
71.000000
21
117.000000
31
0.0
0
LINE
8
HIDDEN
10
68.000000
20
127.000000
30
0.0
11
68.000000
21
129.000000
31
0.0
0
LINE
8
HIDDEN
10
68.000000
20
127.000000
30
0.0
11
98.000000
21
127.000000
31
0.0
0
LINE
8
HIDDEN
10
98.000000
20
127.000000
30
0.0
11
68.000000
21
127.000000
31
0.0
0
LINE
8
HIDDEN
10
71.000000
20
127.000000
30
0.0
11
95.000000
21
127.000000
31
0.0
0
LINE
8
HIDDEN
10
95.000000
20
127.000000
30
0.0
11
71.000000
21
127.000000
31
0.0
0
LINE
8
HIDDEN
10
71.000000
20
117.000000
30
0.0
11
71.000000
21
127.000000
31
0.0
0
LINE
8
HIDDEN
10
98.000000
20
127.000000
30
0.0
11
98.000000
21
129.000000
31
0.0
0
LINE
8
HIDDEN
10
95.000000
20
117.000000
30
0.0
11
95.000000
21
127.000000
31
0.0
0
LINE
8
VISIBLE
10
48.000000
20
192.000000
30
0.0
11
48.000000
21
242.000000
31
0.0
0
LINE
8
VISIBLE
10
48.000000
20
192.000000
30
0.0
11
53.000000
21
192.000000
31
0.0
0
LINE
8
VISIBLE
10
48.000000
20
242.000000
30
0.0
11
53.000000
21
242.000000
31
0.0
0
LINE
8
VISIBLE
10
53.000000
20
237.500000
30
0.0
11
53.000000
21
242.000000
31
0.0
0
LINE
8
VISIBLE
10
61.000000
20
237.500000
30
0.0
11
53.000000
21
237.500000
31
0.0
0
LINE
8
VISIBLE
10
61.000000
20
237.500000
30
0.0
11
61.000000
21
242.000000
31
0.0
0
LINE
8
VISIBLE
10
61.000000
20
242.000000
30
0.0
11
105.000000
21
242.000000
31
0.0
0
LINE
8
VISIBLE
10
105.000000
20
237.500000
30
0.0
11
105.000000
21
242.000000
31
0.0
0
LINE
8
VISIBLE
10
113.000000
20
237.500000
30
0.0
11
105.000000
21
237.500000
31
0.0
0
LINE
8
VISIBLE
10
113.000000
20
237.500000
30
0.0
11
113.000000
21
242.000000
31
0.0
0
LINE
8
VISIBLE
10
113.000000
20
242.000000
30
0.0
11
118.000000
21
242.000000
31
0.0
0
LINE
8
VISIBLE
10
118.000000
20
192.000000
30
0.0
11
118.000000
21
242.000000
31
0.0
0
LINE
8
VISIBLE
10
113.000000
20
192.000000
30
0.0
11
118.000000
21
192.000000
31
0.0
0
LINE
8
VISIBLE
10
113.000000
20
192.000000
30
0.0
11
113.000000
21
196.500000
31
0.0
0
LINE
8
VISIBLE
10
113.000000
20
196.500000
30
0.0
11
105.000000
21
196.500000
31
0.0
0
LINE
8
VISIBLE
10
105.000000
20
192.000000
30
0.0
11
105.000000
21
196.500000
31
0.0
0
LINE
8
VISIBLE
10
61.000000
20
192.000000
30
0.0
11
105.000000
21
192.000000
31
0.0
0
LINE
8
VISIBLE
10
61.000000
20
192.000000
30
0.0
11
61.000000
21
196.500000
31
0.0
0
LINE
8
VISIBLE
10
61.000000
20
196.500000
30
0.0
11
53.000000
21
196.500000
31
0.0
0
LINE
8
VISIBLE
10
53.000000
20
192.000000
30
0.0
11
53.000000
21
196.500000
31
0.0
0
CIRCLE
8
VISIBLE
10
83.000000
20
217.000000
30
0.0
40
12.000000
0
CIRCLE
8
HIDDEN
10
83.000000
20
217.000000
30
0.0
40
15.000000
0
CIRCLE
8
HIDDEN
10
83.000000
20
217.000000
30
0.0
40
15.000000
0
LINE
8
VISIBLE
10
206.000000
20
129.000000
30
0.0
11
156.000000
21
129.000000
31
0.0
0
LINE
8
VISIBLE
10
206.000000
20
117.000000
30
0.0
11
156.000000
21
117.000000
31
0.0
0
LINE
8
VISIBLE
10
156.000000
20
117.000000
30
0.0
11
156.000000
21
129.000000
31
0.0
0
LINE
8
VISIBLE
10
206.000000
20
117.000000
30
0.0
11
206.000000
21
129.000000
31
0.0
0
LINE
8
HIDDEN
10
160.500000
20
129.000000
30
0.0
11
156.000000
21
129.000000
31
0.0
0
LINE
8
HIDDEN
10
160.500000
20
129.000000
30
0.0
11
156.000000
21
129.000000
31
0.0
0
LINE
8
HIDDEN
10
160.500000
20
129.000000
30
0.0
11
156.000000
21
129.000000
31
0.0
0
LINE
8
HIDDEN
10
160.500000
20
129.000000
30
0.0
11
156.000000
21
129.000000
31
0.0
0
LINE
8
HIDDEN
10
206.000000
20
129.000000
30
0.0
11
201.500000
21
129.000000
31
0.0
0
LINE
8
HIDDEN
10
206.000000
20
129.000000
30
0.0
11
201.500000
21
129.000000
31
0.0
0
LINE
8
HIDDEN
10
206.000000
20
129.000000
30
0.0
11
201.500000
21
129.000000
31
0.0
0
LINE
8
HIDDEN
10
206.000000
20
129.000000
30
0.0
11
201.500000
21
129.000000
31
0.0
0
LINE
8
HIDDEN
10
181.000000
20
129.000000
30
0.0
11
166.000000
21
129.000000
31
0.0
0
LINE
8
HIDDEN
10
166.000000
20
129.000000
30
0.0
11
196.000000
21
129.000000
31
0.0
0
LINE
8
HIDDEN
10
196.000000
20
129.000000
30
0.0
11
181.000000
21
129.000000
31
0.0
0
LINE
8
HIDDEN
10
160.500000
20
117.000000
30
0.0
11
156.000000
21
117.000000
31
0.0
0
LINE
8
HIDDEN
10
160.500000
20
117.000000
30
0.0
11
156.000000
21
117.000000
31
0.0
0
LINE
8
HIDDEN
10
160.500000
20
117.000000
30
0.0
11
156.000000
21
117.000000
31
0.0
0
LINE
8
HIDDEN
10
160.500000
20
117.000000
30
0.0
11
156.000000
21
117.000000
31
0.0
0
LINE
8
HIDDEN
10
206.000000
20
117.000000
30
0.0
11
201.500000
21
117.000000
31
0.0
0
LINE
8
HIDDEN
10
206.000000
20
117.000000
30
0.0
11
201.500000
21
117.000000
31
0.0
0
LINE
8
HIDDEN
10
206.000000
20
117.000000
30
0.0
11
201.500000
21
117.000000
31
0.0
0
LINE
8
HIDDEN
10
206.000000
20
117.000000
30
0.0
11
201.500000
21
117.000000
31
0.0
0
LINE
8
HIDDEN
10
181.000000
20
117.000000
30
0.0
11
169.000000
21
117.000000
31
0.0
0
LINE
8
HIDDEN
10
169.000000
20
117.000000
30
0.0
11
193.000000
21
117.000000
31
0.0
0
LINE
8
HIDDEN
10
193.000000
20
117.000000
30
0.0
11
181.000000
21
117.000000
31
0.0
0
LINE
8
HIDDEN
10
201.500000
20
117.000000
30
0.0
11
201.500000
21
129.000000
31
0.0
0
LINE
8
HIDDEN
10
160.500000
20
117.000000
30
0.0
11
160.500000
21
129.000000
31
0.0
0
LINE
8
HIDDEN
10
160.500000
20
117.000000
30
0.0
11
160.500000
21
129.000000
31
0.0
0
LINE
8
HIDDEN
10
160.500000
20
117.000000
30
0.0
11
160.500000
21
129.000000
31
0.0
0
LINE
8
HIDDEN
10
160.500000
20
117.000000
30
0.0
11
160.500000
21
129.000000
31
0.0
0
LINE
8
HIDDEN
10
201.500000
20
117.000000
30
0.0
11
201.500000
21
129.000000
31
0.0
0
LINE
8
HIDDEN
10
201.500000
20
117.000000
30
0.0
11
201.500000
21
129.000000
31
0.0
0
LINE
8
HIDDEN
10
201.500000
20
117.000000
30
0.0
11
201.500000
21
129.000000
31
0.0
0
LINE
8
HIDDEN
10
181.000000
20
127.000000
30
0.0
11
166.000000
21
127.000000
31
0.0
0
LINE
8
HIDDEN
10
166.000000
20
127.000000
30
0.0
11
196.000000
21
127.000000
31
0.0
0
LINE
8
HIDDEN
10
196.000000
20
127.000000
30
0.0
11
181.000000
21
127.000000
31
0.0
0
LINE
8
HIDDEN
10
181.000000
20
127.000000
30
0.0
11
169.000000
21
127.000000
31
0.0
0
LINE
8
HIDDEN
10
169.000000
20
127.000000
30
0.0
11
193.000000
21
127.000000
31
0.0
0
LINE
8
HIDDEN
10
193.000000
20
127.000000
30
0.0
11
181.000000
21
127.000000
31
0.0
0
LINE
8
HIDDEN
10
181.000000
20
127.000000
30
0.0
11
181.000000
21
129.000000
31
0.0
0
LINE
8
HIDDEN
10
181.000000
20
117.000000
30
0.0
11
181.000000
21
127.000000
31
0.0
0
LINE
8
HIDDEN
10
166.000000
20
127.000000
30
0.0
11
166.000000
21
129.000000
31
0.0
0
LINE
8
HIDDEN
10
196.000000
20
127.000000
30
0.0
11
196.000000
21
129.000000
31
0.0
0
LINE
8
HIDDEN
10
169.000000
20
117.000000
30
0.0
11
169.000000
21
127.000000
31
0.0
0
LINE
8
HIDDEN
10
193.000000
20
117.000000
30
0.0
11
193.000000
21
127.000000
31
0.0
0
LINE
8
VISIBLE
10
244.000000
20
129.000000
30
0.0
11
294.000000
21
129.000000
31
0.0
0
LINE
8
VISIBLE
10
244.000000
20
117.000000
30
0.0
11
294.000000
21
117.000000
31
0.0
0
LINE
8
SECTION
10
284.000000
20
129.000000
30
0.0
11
294.000000
21
129.000000
31
0.0
0
LINE
8
SECTION
10
294.000000
20
129.000000
30
0.0
11
294.000000
21
117.000000
31
0.0
0
LINE
8
SECTION
10
281.000000
20
117.000000
30
0.0
11
294.000000
21
117.000000
31
0.0
0
LINE
8
SECTION
10
281.000000
20
117.000000
30
0.0
11
281.000000
21
127.000000
31
0.0
0
LINE
8
SECTION
10
281.000000
20
127.000000
30
0.0
11
284.000000
21
127.000000
31
0.0
0
LINE
8
SECTION
10
284.000000
20
127.000000
30
0.0
11
284.000000
21
129.000000
31
0.0
0
LINE
8
SECTION
10
244.000000
20
129.000000
30
0.0
11
254.000000
21
129.000000
31
0.0
0
LINE
8
SECTION
10
254.000000
20
127.000000
30
0.0
11
254.000000
21
129.000000
31
0.0
0
LINE
8
SECTION
10
254.000000
20
127.000000
30
0.0
11
257.000000
21
127.000000
31
0.0
0
LINE
8
SECTION
10
257.000000
20
117.000000
30
0.0
11
257.000000
21
127.000000
31
0.0
0
LINE
8
SECTION
10
244.000000
20
117.000000
30
0.0
11
257.000000
21
117.000000
31
0.0
0
LINE
8
SECTION
10
244.000000
20
129.000000
30
0.0
11
244.000000
21
117.000000
31
0.0
0
LINE
8
DIM
10
48.000000
20
115.800000
30
0.0
11
48.000000
21
94.000000
31
0.0
0
LINE
8
DIM
10
118.000000
20
115.800000
30
0.0
11
118.000000
21
94.000000
31
0.0
0
LINE
8
DIM
10
48.000000
20
96.000000
30
0.0
11
118.000000
21
96.000000
31
0.0
0
SOLID
8
DIM
10
48.000000
20
96.000000
30
0.0
11
51.200000
21
95.392000
31
0.0
12
51.200000
22
96.608000
32
0.0
13
51.200000
23
96.608000
33
0.0
0
SOLID
8
DIM
10
118.000000
20
96.000000
30
0.0
11
114.800000
21
96.608000
31
0.0
12
114.800000
22
95.392000
32
0.0
13
114.800000
23
95.392000
33
0.0
0
TEXT
8
TEXT
10
83.000000
20
97.000000
30
0.0
40
2.5000
1
70.00
72
1
73
0
11
83.000000
21
97.000000
31
0.0
0
LINE
8
DIM
10
46.800000
20
117.000000
30
0.0
11
25.000000
21
117.000000
31
0.0
0
LINE
8
DIM
10
46.800000
20
129.000000
30
0.0
11
25.000000
21
129.000000
31
0.0
0
LINE
8
DIM
10
27.000000
20
117.000000
30
0.0
11
27.000000
21
129.000000
31
0.0
0
SOLID
8
DIM
10
27.000000
20
117.000000
30
0.0
11
26.392000
21
113.800000
31
0.0
12
27.608000
22
113.800000
32
0.0
13
27.608000
23
113.800000
33
0.0
0
SOLID
8
DIM
10
27.000000
20
129.000000
30
0.0
11
27.608000
21
132.200000
31
0.0
12
26.392000
22
132.200000
32
0.0
13
26.392000
23
132.200000
33
0.0
0
LINE
8
DIM
10
27.000000
20
129.000000
30
0.0
11
27.000000
21
138.600000
31
0.0
0
TEXT
8
TEXT
10
26.000000
20
139.400000
30
0.0
40
2.5000
1
12.00
50
90.0000
0
TEXT
8
TEXT
10
83.000000
20
84.000000
30
0.0
40
4.0000
1
FRONT VIEW
72
1
73
0
11
83.000000
21
84.000000
31
0.0
0
LINE
8
TEXT
10
71.000000
20
82.400000
30
0.0
11
95.000000
21
82.400000
31
0.0
0
TEXT
8
TEXT
10
83.000000
20
78.000000
30
0.0
40
2.4000
1
-X →   Z ↑
72
1
73
0
11
83.000000
21
78.000000
31
0.0
0
LINE
8
CENTER
10
66.400000
20
217.000000
30
0.0
11
81.800000
21
217.000000
31
0.0
0
LINE
8
CENTER
10
84.200000
20
217.000000
30
0.0
11
99.600000
21
217.000000
31
0.0
0
LINE
8
CENTER
10
83.000000
20
200.400000
30
0.0
11
83.000000
21
215.800000
31
0.0
0
LINE
8
CENTER
10
83.000000
20
218.200000
30
0.0
11
83.000000
21
233.600000
31
0.0
0
LINE
8
DIM
10
48.000000
20
190.800000
30
0.0
11
48.000000
21
178.000000
31
0.0
0
LINE
8
DIM
10
118.000000
20
190.800000
30
0.0
11
118.000000
21
178.000000
31
0.0
0
LINE
8
DIM
10
48.000000
20
180.000000
30
0.0
11
118.000000
21
180.000000
31
0.0
0
SOLID
8
DIM
10
48.000000
20
180.000000
30
0.0
11
51.200000
21
179.392000
31
0.0
12
51.200000
22
180.608000
32
0.0
13
51.200000
23
180.608000
33
0.0
0
SOLID
8
DIM
10
118.000000
20
180.000000
30
0.0
11
114.800000
21
180.608000
31
0.0
12
114.800000
22
179.392000
32
0.0
13
114.800000
23
179.392000
33
0.0
0
TEXT
8
TEXT
10
83.000000
20
181.000000
30
0.0
40
2.5000
1
70.00
72
1
73
0
11
83.000000
21
181.000000
31
0.0
0
LINE
8
DIM
10
46.800000
20
192.000000
30
0.0
11
34.000000
21
192.000000
31
0.0
0
LINE
8
DIM
10
46.800000
20
242.000000
30
0.0
11
34.000000
21
242.000000
31
0.0
0
LINE
8
DIM
10
36.000000
20
192.000000
30
0.0
11
36.000000
21
242.000000
31
0.0
0
SOLID
8
DIM
10
36.000000
20
192.000000
30
0.0
11
36.608000
21
195.200000
31
0.0
12
35.392000
22
195.200000
32
0.0
13
35.392000
23
195.200000
33
0.0
0
SOLID
8
DIM
10
36.000000
20
242.000000
30
0.0
11
35.392000
21
238.800000
31
0.0
12
36.608000
22
238.800000
32
0.0
13
36.608000
23
238.800000
33
0.0
0
TEXT
8
TEXT
10
35.000000
20
217.000000
30
0.0
40
2.5000
1
50.00
50
90.0000
72
1
73
0
11
35.000000
21
217.000000
31
0.0
0
SOLID
8
DIM
10
92.234922
20
228.820161
30
0.0
11
94.684149
21
230.967474
31
0.0
12
93.725928
22
231.716118
32
0.0
13
93.725928
23
231.716118
33
0.0
0
LINE
8
DIM
10
92.234922
20
228.820161
30
0.0
11
108.001140
21
249.000000
31
0.0
0
LINE
8
DIM
10
108.001140
20
249.000000
30
0.0
11
113.001140
21
249.000000
31
0.0
0
TEXT
8
TEXT
10
113.801140
20
253.625000
30
0.0
40
2.5000
1
Ø24.00 THRU
0
TEXT
8
TEXT
10
113.801140
20
250.000000
30
0.0
40
2.5000
1
C'BORE Ø30.00x2.00 +Z
0
TEXT
8
TEXT
10
83.000000
20
168.000000
30
0.0
40
4.0000
1
TOP VIEW
72
1
73
0
11
83.000000
21
168.000000
31
0.0
0
LINE
8
TEXT
10
73.400000
20
166.400000
30
0.0
11
92.600000
21
166.400000
31
0.0
0
TEXT
8
TEXT
10
83.000000
20
162.000000
30
0.0
40
2.4000
1
X →   Y ↑
72
1
73
0
11
83.000000
21
162.000000
31
0.0
0
LINE
8
DIM
10
156.000000
20
115.800000
30
0.0
11
156.000000
21
103.000000
31
0.0
0
LINE
8
DIM
10
206.000000
20
115.800000
30
0.0
11
206.000000
21
103.000000
31
0.0
0
LINE
8
DIM
10
156.000000
20
105.000000
30
0.0
11
206.000000
21
105.000000
31
0.0
0
SOLID
8
DIM
10
156.000000
20
105.000000
30
0.0
11
159.200000
21
104.392000
31
0.0
12
159.200000
22
105.608000
32
0.0
13
159.200000
23
105.608000
33
0.0
0
SOLID
8
DIM
10
206.000000
20
105.000000
30
0.0
11
202.800000
21
105.608000
31
0.0
12
202.800000
22
104.392000
32
0.0
13
202.800000
23
104.392000
33
0.0
0
TEXT
8
TEXT
10
181.000000
20
106.000000
30
0.0
40
2.5000
1
50.00
72
1
73
0
11
181.000000
21
106.000000
31
0.0
0
LINE
8
DIM
10
154.800000
20
117.000000
30
0.0
11
142.000000
21
117.000000
31
0.0
0
LINE
8
DIM
10
154.800000
20
129.000000
30
0.0
11
142.000000
21
129.000000
31
0.0
0
LINE
8
DIM
10
144.000000
20
117.000000
30
0.0
11
144.000000
21
129.000000
31
0.0
0
SOLID
8
DIM
10
144.000000
20
117.000000
30
0.0
11
143.392000
21
113.800000
31
0.0
12
144.608000
22
113.800000
32
0.0
13
144.608000
23
113.800000
33
0.0
0
SOLID
8
DIM
10
144.000000
20
129.000000
30
0.0
11
144.608000
21
132.200000
31
0.0
12
143.392000
22
132.200000
32
0.0
13
143.392000
23
132.200000
33
0.0
0
LINE
8
DIM
10
144.000000
20
129.000000
30
0.0
11
144.000000
21
138.600000
31
0.0
0
TEXT
8
TEXT
10
143.000000
20
139.400000
30
0.0
40
2.5000
1
12.00
50
90.0000
0
TEXT
8
TEXT
10
181.000000
20
93.000000
30
0.0
40
4.0000
1
RIGHT VIEW
72
1
73
0
11
181.000000
21
93.000000
31
0.0
0
LINE
8
TEXT
10
169.000000
20
91.400000
30
0.0
11
193.000000
21
91.400000
31
0.0
0
TEXT
8
TEXT
10
181.000000
20
87.000000
30
0.0
40
2.4000
1
-Y →   Z ↑
72
1
73
0
11
181.000000
21
87.000000
31
0.0
0
LINE
8
DIM
10
244.000000
20
115.800000
30
0.0
11
244.000000
21
103.000000
31
0.0
0
LINE
8
DIM
10
294.000000
20
115.800000
30
0.0
11
294.000000
21
103.000000
31
0.0
0
LINE
8
DIM
10
244.000000
20
105.000000
30
0.0
11
294.000000
21
105.000000
31
0.0
0
SOLID
8
DIM
10
244.000000
20
105.000000
30
0.0
11
247.200000
21
104.392000
31
0.0
12
247.200000
22
105.608000
32
0.0
13
247.200000
23
105.608000
33
0.0
0
SOLID
8
DIM
10
294.000000
20
105.000000
30
0.0
11
290.800000
21
105.608000
31
0.0
12
290.800000
22
104.392000
32
0.0
13
290.800000
23
104.392000
33
0.0
0
TEXT
8
TEXT
10
269.000000
20
106.000000
30
0.0
40
2.5000
1
50.00
72
1
73
0
11
269.000000
21
106.000000
31
0.0
0
LINE
8
DIM
10
242.800000
20
117.000000
30
0.0
11
230.000000
21
117.000000
31
0.0
0
LINE
8
DIM
10
242.800000
20
129.000000
30
0.0
11
230.000000
21
129.000000
31
0.0
0
LINE
8
DIM
10
232.000000
20
117.000000
30
0.0
11
232.000000
21
129.000000
31
0.0
0
SOLID
8
DIM
10
232.000000
20
117.000000
30
0.0
11
231.392000
21
113.800000
31
0.0
12
232.608000
22
113.800000
32
0.0
13
232.608000
23
113.800000
33
0.0
0
SOLID
8
DIM
10
232.000000
20
129.000000
30
0.0
11
232.608000
21
132.200000
31
0.0
12
231.392000
22
132.200000
32
0.0
13
231.392000
23
132.200000
33
0.0
0
LINE
8
DIM
10
232.000000
20
129.000000
30
0.0
11
232.000000
21
138.600000
31
0.0
0
TEXT
8
TEXT
10
231.000000
20
139.400000
30
0.0
40
2.5000
1
12.00
50
90.0000
0
LINE
8
HATCH
10
293.999999
20
117.000000
30
0.0
11
294.000000
21
117.000001
31
0.0
0
LINE
8
HATCH
10
289.757358
20
117.000000
30
0.0
11
294.000000
21
121.242642
31
0.0
0
LINE
8
HATCH
10
285.514717
20
117.000000
30
0.0
11
294.000000
21
125.485283
31
0.0
0
LINE
8
HATCH
10
281.272077
20
117.000000
30
0.0
11
293.272077
21
129.000000
31
0.0
0
LINE
8
HATCH
10
281.000000
20
120.970564
30
0.0
11
289.029436
21
129.000000
31
0.0
0
LINE
8
HATCH
10
281.000000
20
125.213205
30
0.0
11
282.786795
21
127.000000
31
0.0
0
LINE
8
HATCH
10
284.000000
20
128.213205
30
0.0
11
284.786795
21
129.000000
31
0.0
0
LINE
8
HATCH
10
256.999999
20
117.000000
30
0.0
11
257.000000
21
117.000001
31
0.0
0
LINE
8
HATCH
10
252.757358
20
117.000000
30
0.0
11
257.000000
21
121.242642
31
0.0
0
LINE
8
HATCH
10
248.514717
20
117.000000
30
0.0
11
257.000000
21
125.485283
31
0.0
0
LINE
8
HATCH
10
244.272077
20
117.000000
30
0.0
11
254.272077
21
127.000000
31
0.0
0
LINE
8
HATCH
10
244.000000
20
120.970564
30
0.0
11
252.029436
21
129.000000
31
0.0
0
LINE
8
HATCH
10
244.000000
20
125.213205
30
0.0
11
247.786795
21
129.000000
31
0.0
0
LINE
8
DIM
10
244.000000
20
128.249999
30
0.0
11
244.000000
21
138.000000
31
0.0
0
LINE
8
DIM
10
254.000000
20
128.249999
30
0.0
11
254.000000
21
138.000000
31
0.0
0
LINE
8
DIM
10
244.000000
20
136.000000
30
0.0
11
254.000000
21
136.000000
31
0.0
0
SOLID
8
DIM
10
244.000000
20
136.000000
30
0.0
11
240.800000
21
136.608000
31
0.0
12
240.800000
22
135.392000
32
0.0
13
240.800000
23
135.392000
33
0.0
0
SOLID
8
DIM
10
254.000000
20
136.000000
30
0.0
11
257.200000
21
135.392000
31
0.0
12
257.200000
22
136.608000
32
0.0
13
257.200000
23
136.608000
33
0.0
0
LINE
8
DIM
10
254.000000
20
136.000000
30
0.0
11
263.600000
21
136.000000
31
0.0
0
TEXT
8
TEXT
10
264.400000
20
136.400000
30
0.0
40
2.5000
1
10.00 WALL
0
TEXT
8
TEXT
10
269.000000
20
93.000000
30
0.0
40
4.0000
1
SECTION A-A
72
1
73
0
11
269.000000
21
93.000000
31
0.0
0
LINE
8
TEXT
10
255.800000
20
91.400000
30
0.0
11
282.200000
21
91.400000
31
0.0
0
LINE
8
CUT
10
83.000000
20
108.000000
30
0.0
11
83.000000
21
116.400000
31
0.0
0
LINE
8
CUTTHIN
10
83.000000
20
116.400000
30
0.0
11
83.000000
21
129.600000
31
0.0
0
LINE
8
CUT
10
83.000000
20
129.600000
30
0.0
11
83.000000
21
138.000000
31
0.0
0
LINE
8
CUT
10
83.000000
20
108.000000
30
0.0
11
92.000000
21
108.000000
31
0.0
0
SOLID
8
CUT
10
92.000000
20
108.000000
30
0.0
11
87.800000
21
108.798000
31
0.0
12
87.800000
22
107.202000
32
0.0
13
87.800000
23
107.202000
33
0.0
0
TEXT
8
TEXT
10
78.000000
20
108.000000
30
0.0
40
4.0000
1
A
72
1
73
2
11
78.000000
21
108.000000
31
0.0
0
LINE
8
CUT
10
83.000000
20
138.000000
30
0.0
11
92.000000
21
138.000000
31
0.0
0
SOLID
8
CUT
10
92.000000
20
138.000000
30
0.0
11
87.800000
21
138.798000
31
0.0
12
87.800000
22
137.202000
32
0.0
13
87.800000
23
137.202000
33
0.0
0
TEXT
8
TEXT
10
78.000000
20
138.000000
30
0.0
40
4.0000
1
A
72
1
73
2
11
78.000000
21
138.000000
31
0.0
0
TEXT
8
TEXT
10
334.000000
20
275.000000
30
0.0
40
3.0000
1
NOTES
0
TEXT
8
TEXT
10
334.000000
20
270.400000
30
0.0
40
2.4000
1
1. ALL DIMENSIONS IN mm AND DEGREES. EVERY
0
TEXT
8
TEXT
10
334.000000
20
266.680000
30
0.0
40
2.4000
1
   DIMENSION AND EVERY HOLE CALLOUT WAS MEASURED
0
TEXT
8
TEXT
10
334.000000
20
262.960000
30
0.0
40
2.4000
1
   OFF THE SOLID.
0
TEXT
8
TEXT
10
334.000000
20
259.240000
30
0.0
40
2.4000
1
2. THINNEST WALL, WHOLE SOLID: 5.0000 mm, AT
0
TEXT
8
TEXT
10
334.000000
20
255.520000
30
0.0
40
2.4000
1
   X=-35.000 Y=-20.833 Z=5.000 — MEASURED OVER THE
0
TEXT
8
TEXT
10
334.000000
20
251.800000
30
0.0
40
2.4000
1
   WHOLE SOLID BY RAY+EXACT AT 1.295 mm SAMPLE
0
TEXT
8
TEXT
10
334.000000
20
248.080000
30
0.0
40
2.4000
1
   SPACING (A FEATURE NARROWER THAN THAT CAN BE
0
TEXT
8
TEXT
10
334.000000
20
244.360000
30
0.0
40
2.4000
1
   MISSED). A RAY MINIMUM AT AN EDGE, A FILLET
0
TEXT
8
TEXT
10
334.000000
20
240.640000
30
0.0
40
2.4000
1
   RUN-OUT OR A CHAMFER TIP IS A REAL DISTANCE
0
TEXT
8
TEXT
10
334.000000
20
236.920000
30
0.0
40
2.4000
1
   THROUGH MATERIAL AND IS NOT A PRINTABLE WALL.
0
TEXT
8
TEXT
10
334.000000
20
233.200000
30
0.0
40
2.4000
1
3. GENERAL TOLERANCE: CANNOT DETERMINE — THIS PART
0
TEXT
8
TEXT
10
334.000000
20
229.480000
30
0.0
40
2.4000
1
   DECLARES NO PROCESS THIS REPO CAN READ.
0
TEXT
8
TEXT
10
334.000000
20
225.760000
30
0.0
40
2.4000
1
4. SECTION A-A AT X=0.00: THINNEST MATERIAL IN
0
TEXT
8
TEXT
10
334.000000
20
222.040000
30
0.0
40
2.4000
1
   THIS PLANE ONLY 10.00 mm, AT Y=-20.00, Z=10.05
0
TEXT
8
TEXT
10
334.000000
20
218.320000
30
0.0
40
2.4000
1
   — A SCAN OF ONE CUT, NOT THE PART MINIMUM.
0
LINE
8
FRAME
10
224.000000
20
10.000000
30
0.0
11
410.000000
21
10.000000
31
0.0
0
LINE
8
FRAME
10
410.000000
20
10.000000
30
0.0
11
410.000000
21
66.000000
31
0.0
0
LINE
8
FRAME
10
410.000000
20
66.000000
30
0.0
11
224.000000
21
66.000000
31
0.0
0
LINE
8
FRAME
10
224.000000
20
66.000000
30
0.0
11
224.000000
21
10.000000
31
0.0
0
LINE
8
TITLE
10
224.000000
20
53.000000
30
0.0
11
410.000000
21
53.000000
31
0.0
0
LINE
8
TITLE
10
224.000000
20
19.000000
30
0.0
11
410.000000
21
19.000000
31
0.0
0
LINE
8
TITLE
10
224.000000
20
27.500000
30
0.0
11
410.000000
21
27.500000
31
0.0
0
LINE
8
TITLE
10
224.000000
20
36.000000
30
0.0
11
410.000000
21
36.000000
31
0.0
0
LINE
8
TITLE
10
224.000000
20
44.500000
30
0.0
11
410.000000
21
44.500000
31
0.0
0
TEXT
8
TEXT
10
226.500000
20
59.500000
30
0.0
40
6.0000
1
MICRODUCK-JIG-PRESS-ANVIL
72
0
73
2
11
226.500000
21
59.500000
31
0.0
0
LINE
8
TITLE
10
390.000000
20
53.000000
30
0.0
11
390.000000
21
66.000000
31
0.0
0
TEXT
8
TITLE
10
400.000000
20
63.600000
30
0.0
40
1.7000
1
REV
72
1
73
0
11
400.000000
21
63.600000
31
0.0
0
TEXT
8
TEXT
10
400.000000
20
55.000000
30
0.0
40
5.2000
1
A
72
1
73
0
11
400.000000
21
55.000000
31
0.0
0
LINE
8
TITLE
10
360.000000
20
53.000000
30
0.0
11
360.000000
21
66.000000
31
0.0
0
CIRCLE
8
TITLE
10
366.500000
20
59.500000
30
0.0
40
3.500000
0
CIRCLE
8
TITLE
10
366.500000
20
59.500000
30
0.0
40
1.960000
0
LINE
8
TITLE
10
376.300000
20
56.000000
30
0.0
11
376.300000
21
63.000000
31
0.0
0
LINE
8
TITLE
10
376.300000
20
63.000000
30
0.0
11
382.250000
21
61.460000
31
0.0
0
LINE
8
TITLE
10
382.250000
20
61.460000
30
0.0
11
382.250000
21
57.540000
31
0.0
0
LINE
8
TITLE
10
382.250000
20
57.540000
30
0.0
11
376.300000
21
56.000000
31
0.0
0
LINE
8
CENTER
10
361.500000
20
59.500000
30
0.0
11
383.750000
21
59.500000
31
0.0
0
LINE
8
TITLE
10
288.000000
20
19.000000
30
0.0
11
288.000000
21
53.000000
31
0.0
0
LINE
8
TITLE
10
352.000000
20
19.000000
30
0.0
11
352.000000
21
53.000000
31
0.0
0
TEXT
8
TITLE
10
225.600000
20
50.600000
30
0.0
40
1.7000
1
MATERIAL
0
TEXT
8
TEXT
10
225.600000
20
45.900000
30
0.0
40
2.5000
1
PLA
0
TEXT
8
TITLE
10
289.600000
20
50.600000
30
0.0
40
1.7000
1
PROCESS
0
TEXT
8
TEXT
10
289.600000
20
45.900000
30
0.0
40
2.5000
1
-
0
TEXT
8
TITLE
10
353.600000
20
50.600000
30
0.0
40
1.7000
1
SCALE
0
TEXT
8
TEXT
10
353.600000
20
45.900000
30
0.0
40
2.5000
1
1:1
0
TEXT
8
TITLE
10
225.600000
20
42.100000
30
0.0
40
1.7000
1
CATEGORY
0
TEXT
8
TEXT
10
225.600000
20
37.400000
30
0.0
40
2.5000
1
-
0
TEXT
8
TITLE
10
257.600000
20
42.100000
30
0.0
40
1.7000
1
GENERAL TOL
0
TEXT
8
TEXT
10
257.600000
20
37.400000
30
0.0
40
2.5000
1
SEE NOTES
0
LINE
8
TITLE
10
256.000000
20
36.000000
30
0.0
11
256.000000
21
44.500000
31
0.0
0
TEXT
8
TITLE
10
289.600000
20
42.100000
30
0.0
40
1.7000
1
FINISH
0
TEXT
8
TEXT
10
289.600000
20
37.400000
30
0.0
40
2.5000
1
AS PRINTED
0
TEXT
8
TITLE
10
353.600000
20
42.100000
30
0.0
40
1.7000
1
SHEET
0
TEXT
8
TEXT
10
353.600000
20
37.400000
30
0.0
40
2.5000
1
A3  1/1
0
TEXT
8
TITLE
10
225.600000
20
33.600000
30
0.0
40
1.7000
1
VOLUME (MEASURED)
0
TEXT
8
TEXT
10
225.600000
20
28.900000
30
0.0
40
2.5000
1
34.33 cm3
0
TEXT
8
TITLE
10
289.600000
20
33.600000
30
0.0
40
1.7000
1
MASS (ASSUMES PLA)
0
TEXT
8
TEXT
10
289.600000
20
28.900000
30
0.0
40
2.5000
1
42.6 g
0
TEXT
8
TITLE
10
353.600000
20
33.600000
30
0.0
40
1.7000
1
UNITS
0
TEXT
8
TEXT
10
353.600000
20
28.900000
30
0.0
40
2.5000
1
mm / deg
0
TEXT
8
TITLE
10
225.600000
20
25.100000
30
0.0
40
1.7000
1
SIZE (BBOX, MEASURED)
0
TEXT
8
TEXT
10
225.600000
20
20.400000
30
0.0
40
2.5000
1
70.00 x 50.00 x 12.00
0
TEXT
8
TITLE
10
289.600000
20
25.100000
30
0.0
40
1.7000
1
DRAWN
0
TEXT
8
TEXT
10
289.600000
20
20.400000
30
0.0
40
2.5000
1
ce-cad  2026-09-02
0
TEXT
8
TITLE
10
353.600000
20
25.100000
30
0.0
40
1.7000
1
PROJECTION
0
TEXT
8
TEXT
10
353.600000
20
20.400000
30
0.0
40
2.5000
1
THIRD ANGLE
0
TEXT
8
TITLE
10
225.600000
20
16.600000
30
0.0
40
1.7000
1
SOURCE (DESIGN FILE)
0
TEXT
8
TEXT
10
225.600000
20
11.400000
30
0.0
40
2.6000
1
tools/jigs.py
0
TEXT
8
TEXT
10
12.500000
20
280.500000
30
0.0
40
4.2000
1
microduck-jig-press-anvil   SCALE 1:1   A3   THIRD ANGLE
0
ENDSEC
0
EOF
