0
SECTION
2
HEADER
9
$ACADVER
1
AC1009
9
$INSUNITS
70
4
9
$LTSCALE
40
1.0
9
$EXTMIN
10
0.0000
20
0.0000
30
0.0
9
$EXTMAX
10
420.0000
20
297.0000
30
0.0
0
ENDSEC
0
SECTION
2
TABLES
0
TABLE
2
LTYPE
70
4
0
LTYPE
2
CONTINUOUS
70
0
3
Solid line
72
65
73
0
40
0.0000
0
LTYPE
2
HIDDEN
70
0
3
Hidden __ __ __ __
72
65
73
2
40
3.6000
49
2.4000
49
-1.2000
0
LTYPE
2
CENTER
70
0
3
Center ____ _ ____ _
72
65
73
4
40
11.2000
49
7.0000
49
-1.4000
49
1.4000
49
-1.4000
0
LTYPE
2
PHANTOM
70
0
3
Phantom ____ _ _ ____
72
65
73
6
40
21.0000
49
11.0000
49
-2.0000
49
2.0000
49
-2.0000
49
2.0000
49
-2.0000
0
ENDTAB
0
TABLE
2
LAYER
70
12
0
LAYER
2
0
70
0
62
7
6
CONTINUOUS
0
LAYER
2
VISIBLE
70
0
62
7
6
CONTINUOUS
0
LAYER
2
SECTION
70
0
62
7
6
CONTINUOUS
0
LAYER
2
HIDDEN
70
0
62
8
6
HIDDEN
0
LAYER
2
CENTER
70
0
62
4
6
CENTER
0
LAYER
2
DIM
70
0
62
3
6
CONTINUOUS
0
LAYER
2
TEXT
70
0
62
3
6
CONTINUOUS
0
LAYER
2
HATCH
70
0
62
5
6
CONTINUOUS
0
LAYER
2
CUT
70
0
62
1
6
PHANTOM
0
LAYER
2
CUTTHIN
70
0
62
1
6
PHANTOM
0
LAYER
2
FRAME
70
0
62
7
6
CONTINUOUS
0
LAYER
2
TITLE
70
0
62
7
6
CONTINUOUS
0
ENDTAB
0
ENDSEC
0
SECTION
2
ENTITIES
0
LINE
8
TITLE
10
5.000000
20
5.000000
30
0.0
11
415.000000
21
5.000000
31
0.0
0
LINE
8
TITLE
10
415.000000
20
5.000000
30
0.0
11
415.000000
21
292.000000
31
0.0
0
LINE
8
TITLE
10
415.000000
20
292.000000
30
0.0
11
5.000000
21
292.000000
31
0.0
0
LINE
8
TITLE
10
5.000000
20
292.000000
30
0.0
11
5.000000
21
5.000000
31
0.0
0
LINE
8
FRAME
10
10.000000
20
10.000000
30
0.0
11
410.000000
21
10.000000
31
0.0
0
LINE
8
FRAME
10
410.000000
20
10.000000
30
0.0
11
410.000000
21
287.000000
31
0.0
0
LINE
8
FRAME
10
410.000000
20
287.000000
30
0.0
11
10.000000
21
287.000000
31
0.0
0
LINE
8
FRAME
10
10.000000
20
287.000000
30
0.0
11
10.000000
21
10.000000
31
0.0
0
TEXT
8
TITLE
10
60.000000
20
289.500000
30
0.0
40
3.5000
1
1
72
1
73
2
11
60.000000
21
289.500000
31
0.0
0
TEXT
8
TITLE
10
60.000000
20
7.500000
30
0.0
40
3.5000
1
1
72
1
73
2
11
60.000000
21
7.500000
31
0.0
0
TEXT
8
TITLE
10
160.000000
20
289.500000
30
0.0
40
3.5000
1
2
72
1
73
2
11
160.000000
21
289.500000
31
0.0
0
TEXT
8
TITLE
10
160.000000
20
7.500000
30
0.0
40
3.5000
1
2
72
1
73
2
11
160.000000
21
7.500000
31
0.0
0
LINE
8
TITLE
10
110.000000
20
5.000000
30
0.0
11
110.000000
21
10.000000
31
0.0
0
LINE
8
TITLE
10
110.000000
20
287.000000
30
0.0
11
110.000000
21
292.000000
31
0.0
0
TEXT
8
TITLE
10
260.000000
20
289.500000
30
0.0
40
3.5000
1
3
72
1
73
2
11
260.000000
21
289.500000
31
0.0
0
TEXT
8
TITLE
10
260.000000
20
7.500000
30
0.0
40
3.5000
1
3
72
1
73
2
11
260.000000
21
7.500000
31
0.0
0
LINE
8
TITLE
10
210.000000
20
5.000000
30
0.0
11
210.000000
21
10.000000
31
0.0
0
LINE
8
TITLE
10
210.000000
20
287.000000
30
0.0
11
210.000000
21
292.000000
31
0.0
0
TEXT
8
TITLE
10
360.000000
20
289.500000
30
0.0
40
3.5000
1
4
72
1
73
2
11
360.000000
21
289.500000
31
0.0
0
TEXT
8
TITLE
10
360.000000
20
7.500000
30
0.0
40
3.5000
1
4
72
1
73
2
11
360.000000
21
7.500000
31
0.0
0
LINE
8
TITLE
10
310.000000
20
5.000000
30
0.0
11
310.000000
21
10.000000
31
0.0
0
LINE
8
TITLE
10
310.000000
20
287.000000
30
0.0
11
310.000000
21
292.000000
31
0.0
0
TEXT
8
TITLE
10
7.500000
20
56.166667
30
0.0
40
3.5000
1
C
72
1
73
2
11
7.500000
21
56.166667
31
0.0
0
TEXT
8
TITLE
10
412.500000
20
56.166667
30
0.0
40
3.5000
1
C
72
1
73
2
11
412.500000
21
56.166667
31
0.0
0
TEXT
8
TITLE
10
7.500000
20
148.500000
30
0.0
40
3.5000
1
B
72
1
73
2
11
7.500000
21
148.500000
31
0.0
0
TEXT
8
TITLE
10
412.500000
20
148.500000
30
0.0
40
3.5000
1
B
72
1
73
2
11
412.500000
21
148.500000
31
0.0
0
LINE
8
TITLE
10
5.000000
20
102.333333
30
0.0
11
10.000000
21
102.333333
31
0.0
0
LINE
8
TITLE
10
410.000000
20
102.333333
30
0.0
11
415.000000
21
102.333333
31
0.0
0
TEXT
8
TITLE
10
7.500000
20
240.833333
30
0.0
40
3.5000
1
A
72
1
73
2
11
7.500000
21
240.833333
31
0.0
0
TEXT
8
TITLE
10
412.500000
20
240.833333
30
0.0
40
3.5000
1
A
72
1
73
2
11
412.500000
21
240.833333
31
0.0
0
LINE
8
TITLE
10
5.000000
20
194.666667
30
0.0
11
10.000000
21
194.666667
31
0.0
0
LINE
8
TITLE
10
410.000000
20
194.666667
30
0.0
11
415.000000
21
194.666667
31
0.0
0
CIRCLE
8
VISIBLE
10
210.000000
20
242.080000
30
0.0
40
40.000000
0
CIRCLE
8
HIDDEN
10
210.000000
20
242.080000
30
0.0
40
20.000000
0
CIRCLE
8
HIDDEN
10
210.000000
20
242.080000
30
0.0
40
20.000000
0
CIRCLE
8
HIDDEN
10
210.000000
20
242.080000
30
0.0
40
10.000000
0
CIRCLE
8
HIDDEN
10
210.000000
20
242.080000
30
0.0
40
10.000000
0
LINE
8
DIM
10
170.000000
20
200.880000
30
0.0
11
170.000000
21
188.080000
31
0.0
0
LINE
8
DIM
10
250.000000
20
200.880000
30
0.0
11
250.000000
21
188.080000
31
0.0
0
LINE
8
DIM
10
170.000000
20
190.080000
30
0.0
11
250.000000
21
190.080000
31
0.0
0
SOLID
8
DIM
10
170.000000
20
190.080000
30
0.0
11
173.200000
21
189.472000
31
0.0
12
173.200000
22
190.688000
32
0.0
13
173.200000
23
190.688000
33
0.0
0
SOLID
8
DIM
10
250.000000
20
190.080000
30
0.0
11
246.800000
21
190.688000
31
0.0
12
246.800000
22
189.472000
32
0.0
13
246.800000
23
189.472000
33
0.0
0
TEXT
8
TEXT
10
210.000000
20
191.080000
30
0.0
40
3.5000
1
40.00
72
1
73
0
11
210.000000
21
191.080000
31
0.0
0
LINE
8
DIM
10
168.800000
20
202.080000
30
0.0
11
156.000000
21
202.080000
31
0.0
0
LINE
8
DIM
10
168.800000
20
282.080000
30
0.0
11
156.000000
21
282.080000
31
0.0
0
LINE
8
DIM
10
158.000000
20
202.080000
30
0.0
11
158.000000
21
282.080000
31
0.0
0
SOLID
8
DIM
10
158.000000
20
202.080000
30
0.0
11
158.608000
21
205.280000
31
0.0
12
157.392000
22
205.280000
32
0.0
13
157.392000
23
205.280000
33
0.0
0
SOLID
8
DIM
10
158.000000
20
282.080000
30
0.0
11
157.392000
21
278.880000
31
0.0
12
158.608000
22
278.880000
32
0.0
13
158.608000
23
278.880000
33
0.0
0
TEXT
8
TEXT
10
157.000000
20
242.080000
30
0.0
40
3.5000
1
40.00
50
90.0000
72
1
73
0
11
157.000000
21
242.080000
31
0.0
0
TEXT
8
TEXT
10
210.000000
20
180.100000
30
0.0
40
5.0000
1
TOP VIEW
72
1
73
0
11
210.000000
21
180.100000
31
0.0
0
LINE
8
TEXT
10
198.000000
20
178.500000
30
0.0
11
222.000000
21
178.500000
31
0.0
0
TEXT
8
TEXT
10
210.000000
20
174.100000
30
0.0
40
3.5000
1
X →   Y ↑
72
1
73
0
11
210.000000
21
174.100000
31
0.0
0
TEXT
8
TEXT
10
12.000000
20
87.850000
30
0.0
40
4.1000
1
NOTES
0
LINE
8
TEXT
10
12.000000
20
86.250000
30
0.0
11
24.300000
21
86.250000
31
0.0
0
TEXT
8
TEXT
10
12.000000
20
81.287500
30
0.0
40
3.5000
1
1. ALL DIMENSIONS IN mm AND DEGREES. EVERY
0
TEXT
8
TEXT
10
12.000000
20
76.037500
30
0.0
40
3.5000
1
   DIMENSION AND EVERY HOLE CALLOUT WAS
0
TEXT
8
TEXT
10
12.000000
20
70.787500
30
0.0
40
3.5000
1
   MEASURED OFF THE SOLID.
0
TEXT
8
TEXT
10
12.000000
20
65.537500
30
0.0
40
3.5000
1
2. THINNEST WALL, WHOLE SOLID (RAY MINIMUM):
0
TEXT
8
TEXT
10
12.000000
20
60.287500
30
0.0
40
3.5000
1
   7.0000 mm, AT X=5.904 Y=4.891 Z=0.000 —
0
TEXT
8
TEXT
10
12.000000
20
55.037500
30
0.0
40
3.5000
1
   MEASURED OVER THE WHOLE SOLID BY RAY+EXACT
0
TEXT
8
TEXT
10
12.000000
20
49.787500
30
0.0
40
3.5000
1
   AT 0.8220 mm SAMPLE SPACING (A FEATURE
0
TEXT
8
TEXT
10
12.000000
20
44.537500
30
0.0
40
3.5000
1
   NARROWER THAN THAT CAN BE MISSED). THIS IS A
0
TEXT
8
TEXT
10
12.000000
20
39.287500
30
0.0
40
3.5000
1
   DISTANCE THROUGH MATERIAL, NOT A WALL: AT AN
0
TEXT
8
TEXT
10
12.000000
20
34.037500
30
0.0
40
3.5000
1
   EDGE, A FILLET RUN-OUT OR A CHAMFER TIP IT
0
TEXT
8
TEXT
10
12.000000
20
28.787500
30
0.0
40
3.5000
1
   IS REAL AND UNPRINTABLE BY DEFINITION. DO
0
TEXT
8
TEXT
10
12.000000
20
23.537500
30
0.0
40
3.5000
1
   NOT JUDGE PRINTABILITY BY IT — THE NEXT NOTE
0
TEXT
8
TEXT
10
12.000000
20
18.287500
30
0.0
40
3.5000
1
   IS THE ONE THAT DOES.
0
TEXT
8
TEXT
10
12.000000
20
13.037500
30
0.0
40
3.5000
1
3. PRINTABLE MINIMUM WALL: CANNOT DETERMINE
0
LINE
8
FRAME
10
10.000000
20
95.100000
30
0.0
11
410.000000
21
95.100000
31
0.0
0
LINE
8
FRAME
10
180.000000
20
10.000000
30
0.0
11
410.000000
21
10.000000
31
0.0
0
LINE
8
FRAME
10
410.000000
20
10.000000
30
0.0
11
410.000000
21
82.000000
31
0.0
0
LINE
8
FRAME
10
410.000000
20
82.000000
30
0.0
11
180.000000
21
82.000000
31
0.0
0
LINE
8
FRAME
10
180.000000
20
82.000000
30
0.0
11
180.000000
21
10.000000
31
0.0
0
LINE
8
TITLE
10
180.000000
20
67.000000
30
0.0
11
410.000000
21
67.000000
31
0.0
0
LINE
8
TITLE
10
180.000000
20
21.000000
30
0.0
11
410.000000
21
21.000000
31
0.0
0
LINE
8
TITLE
10
180.000000
20
32.500000
30
0.0
11
410.000000
21
32.500000
31
0.0
0
LINE
8
TITLE
10
180.000000
20
44.000000
30
0.0
11
410.000000
21
44.000000
31
0.0
0
LINE
8
TITLE
10
180.000000
20
55.500000
30
0.0
11
410.000000
21
55.500000
31
0.0
0
TEXT
8
TEXT
10
182.500000
20
74.500000
30
0.0
40
7.0000
1
ANNULAR_GROOVE_REGRESSION
72
0
73
2
11
182.500000
21
74.500000
31
0.0
0
LINE
8
TITLE
10
390.000000
20
67.000000
30
0.0
11
390.000000
21
82.000000
31
0.0
0
TEXT
8
TITLE
10
400.000000
20
77.800000
30
0.0
40
3.5000
1
REV
72
1
73
0
11
400.000000
21
77.800000
31
0.0
0
TEXT
8
TEXT
10
400.000000
20
69.000000
30
0.0
40
5.2000
1
A
72
1
73
0
11
400.000000
21
69.000000
31
0.0
0
LINE
8
TITLE
10
360.000000
20
67.000000
30
0.0
11
360.000000
21
82.000000
31
0.0
0
CIRCLE
8
TITLE
10
366.500000
20
74.500000
30
0.0
40
3.500000
0
CIRCLE
8
TITLE
10
366.500000
20
74.500000
30
0.0
40
1.960000
0
LINE
8
TITLE
10
376.300000
20
71.000000
30
0.0
11
376.300000
21
78.000000
31
0.0
0
LINE
8
TITLE
10
376.300000
20
78.000000
30
0.0
11
382.250000
21
76.460000
31
0.0
0
LINE
8
TITLE
10
382.250000
20
76.460000
30
0.0
11
382.250000
21
72.540000
31
0.0
0
LINE
8
TITLE
10
382.250000
20
72.540000
30
0.0
11
376.300000
21
71.000000
31
0.0
0
LINE
8
CENTER
10
361.500000
20
74.500000
30
0.0
11
383.750000
21
74.500000
31
0.0
0
LINE
8
TITLE
10
244.000000
20
21.000000
30
0.0
11
244.000000
21
67.000000
31
0.0
0
LINE
8
TITLE
10
308.000000
20
21.000000
30
0.0
11
308.000000
21
67.000000
31
0.0
0
TEXT
8
TITLE
10
181.600000
20
62.800000
30
0.0
40
3.5000
1
MATERIAL
0
TEXT
8
TEXT
10
181.600000
20
56.900000
30
0.0
40
3.5000
1
AL6061
0
TEXT
8
TITLE
10
245.600000
20
62.800000
30
0.0
40
3.5000
1
PROCESS
0
TEXT
8
TEXT
10
245.600000
20
56.900000
30
0.0
40
3.5000
1
-
0
TEXT
8
TITLE
10
309.600000
20
62.800000
30
0.0
40
3.5000
1
SCALE
0
TEXT
8
TEXT
10
309.600000
20
56.900000
30
0.0
40
3.5000
1
2:1
0
TEXT
8
TITLE
10
181.600000
20
51.300000
30
0.0
40
3.5000
1
CATEGORY
0
TEXT
8
TEXT
10
181.600000
20
45.400000
30
0.0
40
3.5000
1
-
0
TEXT
8
TITLE
10
213.600000
20
51.300000
30
0.0
40
3.5000
1
GENERAL TOL
0
TEXT
8
TEXT
10
213.600000
20
45.400000
30
0.0
40
3.5000
1
SEE NOTES
0
LINE
8
TITLE
10
212.000000
20
44.000000
30
0.0
11
212.000000
21
55.500000
31
0.0
0
TEXT
8
TITLE
10
245.600000
20
51.300000
30
0.0
40
3.5000
1
FINISH
0
TEXT
8
TEXT
10
245.600000
20
45.400000
30
0.0
40
3.5000
1
AS PRINTED
0
TEXT
8
TITLE
10
309.600000
20
51.300000
30
0.0
40
3.5000
1
SHEET
0
TEXT
8
TEXT
10
309.600000
20
45.400000
30
0.0
40
3.5000
1
A3  1/1
0
TEXT
8
TITLE
10
181.600000
20
39.800000
30
0.0
40
3.5000
1
VOLUME (MEASURED)
0
TEXT
8
TEXT
10
181.600000
20
33.900000
30
0.0
40
3.5000
1
11.86 cm3
0
TEXT
8
TITLE
10
245.600000
20
39.800000
30
0.0
40
3.5000
1
MASS (ASSUMES AL6061)
0
TEXT
8
TEXT
10
245.600000
20
33.900000
30
0.0
40
3.5000
1
32.0 g
0
TEXT
8
TITLE
10
309.600000
20
39.800000
30
0.0
40
3.5000
1
UNITS
0
TEXT
8
TEXT
10
309.600000
20
33.900000
30
0.0
40
3.5000
1
mm / deg
0
TEXT
8
TITLE
10
181.600000
20
28.300000
30
0.0
40
3.5000
1
SIZE (BBOX, MEASURED)
0
TEXT
8
TEXT
10
181.600000
20
22.400000
30
0.0
40
3.5000
1
40.00 x 40.00 x 10.00
0
TEXT
8
TITLE
10
245.600000
20
28.300000
30
0.0
40
3.5000
1
DRAWN
0
TEXT
8
TEXT
10
245.600000
20
22.400000
30
0.0
40
3.5000
1
ce-cad  2026-09-08
0
TEXT
8
TITLE
10
309.600000
20
28.300000
30
0.0
40
3.5000
1
PROJECTION
0
TEXT
8
TEXT
10
309.600000
20
22.400000
30
0.0
40
3.5000
1
THIRD ANGLE
0
TEXT
8
TITLE
10
181.600000
20
16.800000
30
0.0
40
3.5000
1
SOURCE (DESIGN FILE)
0
TEXT
8
TEXT
10
181.600000
20
11.400000
30
0.0
40
3.5000
1
/Users/leifrydenfalk/dev/ce-workshop/ce-designs/microduck/out/drawings/microduck-shin/check_generator_regre~
0
TEXT
8
TEXT
10
12.500000
20
280.500000
30
0.0
40
4.2000
1
annular_groove_regression   SCALE 2:1   A3   THIRD ANGLE
0
ENDSEC
0
EOF
