0
SECTION
2
HEADER
9
$ACADVER
1
AC1009
9
$INSUNITS
70
4
9
$LTSCALE
40
1.0
9
$EXTMIN
10
0.0000
20
0.0000
30
0.0
9
$EXTMAX
10
841.0000
20
594.0000
30
0.0
0
ENDSEC
0
SECTION
2
TABLES
0
TABLE
2
LTYPE
70
4
0
LTYPE
2
CONTINUOUS
70
0
3
Solid line
72
65
73
0
40
0.0000
0
LTYPE
2
HIDDEN
70
0
3
Hidden __ __ __ __
72
65
73
2
40
3.6000
49
2.4000
49
-1.2000
0
LTYPE
2
CENTER
70
0
3
Center ____ _ ____ _
72
65
73
4
40
11.2000
49
7.0000
49
-1.4000
49
1.4000
49
-1.4000
0
LTYPE
2
PHANTOM
70
0
3
Phantom ____ _ _ ____
72
65
73
6
40
21.0000
49
11.0000
49
-2.0000
49
2.0000
49
-2.0000
49
2.0000
49
-2.0000
0
ENDTAB
0
TABLE
2
LAYER
70
12
0
LAYER
2
0
70
0
62
7
6
CONTINUOUS
0
LAYER
2
VISIBLE
70
0
62
7
6
CONTINUOUS
0
LAYER
2
SECTION
70
0
62
7
6
CONTINUOUS
0
LAYER
2
HIDDEN
70
0
62
8
6
HIDDEN
0
LAYER
2
CENTER
70
0
62
4
6
CENTER
0
LAYER
2
DIM
70
0
62
3
6
CONTINUOUS
0
LAYER
2
TEXT
70
0
62
3
6
CONTINUOUS
0
LAYER
2
HATCH
70
0
62
5
6
CONTINUOUS
0
LAYER
2
CUT
70
0
62
1
6
PHANTOM
0
LAYER
2
CUTTHIN
70
0
62
1
6
PHANTOM
0
LAYER
2
FRAME
70
0
62
7
6
CONTINUOUS
0
LAYER
2
TITLE
70
0
62
7
6
CONTINUOUS
0
ENDTAB
0
ENDSEC
0
SECTION
2
ENTITIES
0
LINE
8
TITLE
10
5.000000
20
5.000000
30
0.0
11
836.000000
21
5.000000
31
0.0
0
LINE
8
TITLE
10
836.000000
20
5.000000
30
0.0
11
836.000000
21
589.000000
31
0.0
0
LINE
8
TITLE
10
836.000000
20
589.000000
30
0.0
11
5.000000
21
589.000000
31
0.0
0
LINE
8
TITLE
10
5.000000
20
589.000000
30
0.0
11
5.000000
21
5.000000
31
0.0
0
LINE
8
FRAME
10
10.000000
20
10.000000
30
0.0
11
831.000000
21
10.000000
31
0.0
0
LINE
8
FRAME
10
831.000000
20
10.000000
30
0.0
11
831.000000
21
584.000000
31
0.0
0
LINE
8
FRAME
10
831.000000
20
584.000000
30
0.0
11
10.000000
21
584.000000
31
0.0
0
LINE
8
FRAME
10
10.000000
20
584.000000
30
0.0
11
10.000000
21
10.000000
31
0.0
0
TEXT
8
TITLE
10
61.312500
20
586.500000
30
0.0
40
2.4000
1
1
72
1
73
2
11
61.312500
21
586.500000
31
0.0
0
TEXT
8
TITLE
10
61.312500
20
7.500000
30
0.0
40
2.4000
1
1
72
1
73
2
11
61.312500
21
7.500000
31
0.0
0
TEXT
8
TITLE
10
163.937500
20
586.500000
30
0.0
40
2.4000
1
2
72
1
73
2
11
163.937500
21
586.500000
31
0.0
0
TEXT
8
TITLE
10
163.937500
20
7.500000
30
0.0
40
2.4000
1
2
72
1
73
2
11
163.937500
21
7.500000
31
0.0
0
LINE
8
TITLE
10
112.625000
20
5.000000
30
0.0
11
112.625000
21
10.000000
31
0.0
0
LINE
8
TITLE
10
112.625000
20
584.000000
30
0.0
11
112.625000
21
589.000000
31
0.0
0
TEXT
8
TITLE
10
266.562500
20
586.500000
30
0.0
40
2.4000
1
3
72
1
73
2
11
266.562500
21
586.500000
31
0.0
0
TEXT
8
TITLE
10
266.562500
20
7.500000
30
0.0
40
2.4000
1
3
72
1
73
2
11
266.562500
21
7.500000
31
0.0
0
LINE
8
TITLE
10
215.250000
20
5.000000
30
0.0
11
215.250000
21
10.000000
31
0.0
0
LINE
8
TITLE
10
215.250000
20
584.000000
30
0.0
11
215.250000
21
589.000000
31
0.0
0
TEXT
8
TITLE
10
369.187500
20
586.500000
30
0.0
40
2.4000
1
4
72
1
73
2
11
369.187500
21
586.500000
31
0.0
0
TEXT
8
TITLE
10
369.187500
20
7.500000
30
0.0
40
2.4000
1
4
72
1
73
2
11
369.187500
21
7.500000
31
0.0
0
LINE
8
TITLE
10
317.875000
20
5.000000
30
0.0
11
317.875000
21
10.000000
31
0.0
0
LINE
8
TITLE
10
317.875000
20
584.000000
30
0.0
11
317.875000
21
589.000000
31
0.0
0
TEXT
8
TITLE
10
471.812500
20
586.500000
30
0.0
40
2.4000
1
5
72
1
73
2
11
471.812500
21
586.500000
31
0.0
0
TEXT
8
TITLE
10
471.812500
20
7.500000
30
0.0
40
2.4000
1
5
72
1
73
2
11
471.812500
21
7.500000
31
0.0
0
LINE
8
TITLE
10
420.500000
20
5.000000
30
0.0
11
420.500000
21
10.000000
31
0.0
0
LINE
8
TITLE
10
420.500000
20
584.000000
30
0.0
11
420.500000
21
589.000000
31
0.0
0
TEXT
8
TITLE
10
574.437500
20
586.500000
30
0.0
40
2.4000
1
6
72
1
73
2
11
574.437500
21
586.500000
31
0.0
0
TEXT
8
TITLE
10
574.437500
20
7.500000
30
0.0
40
2.4000
1
6
72
1
73
2
11
574.437500
21
7.500000
31
0.0
0
LINE
8
TITLE
10
523.125000
20
5.000000
30
0.0
11
523.125000
21
10.000000
31
0.0
0
LINE
8
TITLE
10
523.125000
20
584.000000
30
0.0
11
523.125000
21
589.000000
31
0.0
0
TEXT
8
TITLE
10
677.062500
20
586.500000
30
0.0
40
2.4000
1
7
72
1
73
2
11
677.062500
21
586.500000
31
0.0
0
TEXT
8
TITLE
10
677.062500
20
7.500000
30
0.0
40
2.4000
1
7
72
1
73
2
11
677.062500
21
7.500000
31
0.0
0
LINE
8
TITLE
10
625.750000
20
5.000000
30
0.0
11
625.750000
21
10.000000
31
0.0
0
LINE
8
TITLE
10
625.750000
20
584.000000
30
0.0
11
625.750000
21
589.000000
31
0.0
0
TEXT
8
TITLE
10
779.687500
20
586.500000
30
0.0
40
2.4000
1
8
72
1
73
2
11
779.687500
21
586.500000
31
0.0
0
TEXT
8
TITLE
10
779.687500
20
7.500000
30
0.0
40
2.4000
1
8
72
1
73
2
11
779.687500
21
7.500000
31
0.0
0
LINE
8
TITLE
10
728.375000
20
5.000000
30
0.0
11
728.375000
21
10.000000
31
0.0
0
LINE
8
TITLE
10
728.375000
20
584.000000
30
0.0
11
728.375000
21
589.000000
31
0.0
0
TEXT
8
TITLE
10
7.500000
20
67.400000
30
0.0
40
2.4000
1
E
72
1
73
2
11
7.500000
21
67.400000
31
0.0
0
TEXT
8
TITLE
10
833.500000
20
67.400000
30
0.0
40
2.4000
1
E
72
1
73
2
11
833.500000
21
67.400000
31
0.0
0
TEXT
8
TITLE
10
7.500000
20
182.200000
30
0.0
40
2.4000
1
D
72
1
73
2
11
7.500000
21
182.200000
31
0.0
0
TEXT
8
TITLE
10
833.500000
20
182.200000
30
0.0
40
2.4000
1
D
72
1
73
2
11
833.500000
21
182.200000
31
0.0
0
LINE
8
TITLE
10
5.000000
20
124.800000
30
0.0
11
10.000000
21
124.800000
31
0.0
0
LINE
8
TITLE
10
831.000000
20
124.800000
30
0.0
11
836.000000
21
124.800000
31
0.0
0
TEXT
8
TITLE
10
7.500000
20
297.000000
30
0.0
40
2.4000
1
C
72
1
73
2
11
7.500000
21
297.000000
31
0.0
0
TEXT
8
TITLE
10
833.500000
20
297.000000
30
0.0
40
2.4000
1
C
72
1
73
2
11
833.500000
21
297.000000
31
0.0
0
LINE
8
TITLE
10
5.000000
20
239.600000
30
0.0
11
10.000000
21
239.600000
31
0.0
0
LINE
8
TITLE
10
831.000000
20
239.600000
30
0.0
11
836.000000
21
239.600000
31
0.0
0
TEXT
8
TITLE
10
7.500000
20
411.800000
30
0.0
40
2.4000
1
B
72
1
73
2
11
7.500000
21
411.800000
31
0.0
0
TEXT
8
TITLE
10
833.500000
20
411.800000
30
0.0
40
2.4000
1
B
72
1
73
2
11
833.500000
21
411.800000
31
0.0
0
LINE
8
TITLE
10
5.000000
20
354.400000
30
0.0
11
10.000000
21
354.400000
31
0.0
0
LINE
8
TITLE
10
831.000000
20
354.400000
30
0.0
11
836.000000
21
354.400000
31
0.0
0
TEXT
8
TITLE
10
7.500000
20
526.600000
30
0.0
40
2.4000
1
A
72
1
73
2
11
7.500000
21
526.600000
31
0.0
0
TEXT
8
TITLE
10
833.500000
20
526.600000
30
0.0
40
2.4000
1
A
72
1
73
2
11
833.500000
21
526.600000
31
0.0
0
LINE
8
TITLE
10
5.000000
20
469.200000
30
0.0
11
10.000000
21
469.200000
31
0.0
0
LINE
8
TITLE
10
831.000000
20
469.200000
30
0.0
11
836.000000
21
469.200000
31
0.0
0
LINE
8
VISIBLE
10
356.500000
20
413.500000
30
0.0
11
356.307853
21
415.450903
31
0.0
0
LINE
8
VISIBLE
10
356.500000
20
253.500000
30
0.0
11
356.500000
21
413.500000
31
0.0
0
LINE
8
VISIBLE
10
356.307853
20
415.450903
30
0.0
11
355.738795
21
417.326834
31
0.0
0
LINE
8
VISIBLE
10
356.307853
20
251.549097
30
0.0
11
356.500000
21
253.500000
31
0.0
0
LINE
8
VISIBLE
10
355.738795
20
417.326834
30
0.0
11
354.814696
21
419.055702
31
0.0
0
LINE
8
VISIBLE
10
355.738795
20
249.673166
30
0.0
11
356.307853
21
251.549097
31
0.0
0
LINE
8
VISIBLE
10
354.814696
20
419.055702
30
0.0
11
353.571068
21
420.571068
31
0.0
0
LINE
8
VISIBLE
10
354.814696
20
247.944298
30
0.0
11
355.738795
21
249.673166
31
0.0
0
LINE
8
VISIBLE
10
353.571068
20
420.571068
30
0.0
11
352.055702
21
421.814696
31
0.0
0
LINE
8
VISIBLE
10
353.571068
20
246.428932
30
0.0
11
354.814696
21
247.944298
31
0.0
0
LINE
8
VISIBLE
10
352.055702
20
421.814696
30
0.0
11
350.326834
21
422.738795
31
0.0
0
LINE
8
VISIBLE
10
352.055702
20
245.185304
30
0.0
11
353.571068
21
246.428932
31
0.0
0
LINE
8
VISIBLE
10
350.326834
20
422.738795
30
0.0
11
348.450903
21
423.307853
31
0.0
0
LINE
8
VISIBLE
10
350.326834
20
244.261205
30
0.0
11
352.055702
21
245.185304
31
0.0
0
LINE
8
VISIBLE
10
348.450903
20
423.307853
30
0.0
11
346.500000
21
423.500000
31
0.0
0
LINE
8
VISIBLE
10
348.450903
20
243.692147
30
0.0
11
350.326834
21
244.261205
31
0.0
0
LINE
8
VISIBLE
10
346.500000
20
423.500000
30
0.0
11
81.500000
21
423.500000
31
0.0
0
LINE
8
VISIBLE
10
346.500000
20
243.500000
30
0.0
11
348.450903
21
243.692147
31
0.0
0
LINE
8
VISIBLE
10
81.500000
20
423.500000
30
0.0
11
79.549097
21
423.307853
31
0.0
0
LINE
8
VISIBLE
10
81.500000
20
243.500000
30
0.0
11
346.500000
21
243.500000
31
0.0
0
LINE
8
VISIBLE
10
79.549097
20
423.307853
30
0.0
11
77.673166
21
422.738795
31
0.0
0
LINE
8
VISIBLE
10
79.549097
20
243.692147
30
0.0
11
81.500000
21
243.500000
31
0.0
0
LINE
8
VISIBLE
10
77.673166
20
422.738795
30
0.0
11
75.944298
21
421.814696
31
0.0
0
LINE
8
VISIBLE
10
77.673166
20
244.261205
30
0.0
11
79.549097
21
243.692147
31
0.0
0
LINE
8
VISIBLE
10
75.944298
20
421.814696
30
0.0
11
74.428932
21
420.571068
31
0.0
0
LINE
8
VISIBLE
10
75.944298
20
245.185304
30
0.0
11
77.673166
21
244.261205
31
0.0
0
LINE
8
VISIBLE
10
74.428932
20
420.571068
30
0.0
11
73.185304
21
419.055702
31
0.0
0
LINE
8
VISIBLE
10
74.428932
20
246.428932
30
0.0
11
75.944298
21
245.185304
31
0.0
0
LINE
8
VISIBLE
10
73.185304
20
419.055702
30
0.0
11
72.261205
21
417.326834
31
0.0
0
LINE
8
VISIBLE
10
73.185304
20
247.944298
30
0.0
11
74.428932
21
246.428932
31
0.0
0
LINE
8
VISIBLE
10
72.261205
20
417.326834
30
0.0
11
71.692147
21
415.450903
31
0.0
0
LINE
8
VISIBLE
10
72.261205
20
249.673166
30
0.0
11
73.185304
21
247.944298
31
0.0
0
LINE
8
VISIBLE
10
71.692147
20
415.450903
30
0.0
11
71.500000
21
413.500000
31
0.0
0
LINE
8
VISIBLE
10
71.692147
20
251.549097
30
0.0
11
72.261205
21
249.673166
31
0.0
0
LINE
8
VISIBLE
10
71.500000
20
413.500000
30
0.0
11
71.500000
21
253.500000
31
0.0
0
LINE
8
VISIBLE
10
71.500000
20
253.500000
30
0.0
11
71.692147
21
251.549097
31
0.0
0
CIRCLE
8
VISIBLE
10
126.500000
20
298.500000
30
0.0
40
47.500000
0
LINE
8
VISIBLE
10
228.238795
20
352.326834
30
0.0
11
228.807853
21
350.450903
31
0.0
0
LINE
8
VISIBLE
10
227.314696
20
354.055702
30
0.0
11
228.238795
21
352.326834
31
0.0
0
LINE
8
VISIBLE
10
226.071068
20
355.571068
30
0.0
11
227.314696
21
354.055702
31
0.0
0
LINE
8
VISIBLE
10
224.555702
20
356.814696
30
0.0
11
226.071068
21
355.571068
31
0.0
0
LINE
8
VISIBLE
10
222.826834
20
357.738795
30
0.0
11
224.555702
21
356.814696
31
0.0
0
LINE
8
VISIBLE
10
220.950903
20
358.307853
30
0.0
11
222.826834
21
357.738795
31
0.0
0
LINE
8
VISIBLE
10
219.000000
20
358.500000
30
0.0
11
220.950903
21
358.307853
31
0.0
0
LINE
8
VISIBLE
10
209.000000
20
358.500000
30
0.0
11
219.000000
21
358.500000
31
0.0
0
LINE
8
VISIBLE
10
207.049097
20
358.307853
30
0.0
11
209.000000
21
358.500000
31
0.0
0
LINE
8
VISIBLE
10
205.173166
20
357.738795
30
0.0
11
207.049097
21
358.307853
31
0.0
0
LINE
8
VISIBLE
10
203.444298
20
356.814696
30
0.0
11
205.173166
21
357.738795
31
0.0
0
LINE
8
VISIBLE
10
201.928932
20
355.571068
30
0.0
11
203.444298
21
356.814696
31
0.0
0
LINE
8
VISIBLE
10
200.685304
20
354.055702
30
0.0
11
201.928932
21
355.571068
31
0.0
0
LINE
8
VISIBLE
10
199.761205
20
352.326834
30
0.0
11
200.685304
21
354.055702
31
0.0
0
LINE
8
VISIBLE
10
199.192147
20
350.450903
30
0.0
11
199.761205
21
352.326834
31
0.0
0
LINE
8
VISIBLE
10
199.000000
20
348.500000
30
0.0
11
199.192147
21
350.450903
31
0.0
0
LINE
8
VISIBLE
10
199.000000
20
308.500000
30
0.0
11
199.000000
21
348.500000
31
0.0
0
LINE
8
VISIBLE
10
199.192147
20
306.549097
30
0.0
11
199.000000
21
308.500000
31
0.0
0
LINE
8
VISIBLE
10
199.761205
20
304.673166
30
0.0
11
199.192147
21
306.549097
31
0.0
0
LINE
8
VISIBLE
10
200.685304
20
302.944298
30
0.0
11
199.761205
21
304.673166
31
0.0
0
LINE
8
VISIBLE
10
201.928932
20
301.428932
30
0.0
11
200.685304
21
302.944298
31
0.0
0
LINE
8
VISIBLE
10
203.444298
20
300.185304
30
0.0
11
201.928932
21
301.428932
31
0.0
0
LINE
8
VISIBLE
10
205.173166
20
299.261205
30
0.0
11
203.444298
21
300.185304
31
0.0
0
LINE
8
VISIBLE
10
207.049097
20
298.692147
30
0.0
11
205.173166
21
299.261205
31
0.0
0
LINE
8
VISIBLE
10
209.000000
20
298.500000
30
0.0
11
207.049097
21
298.692147
31
0.0
0
LINE
8
VISIBLE
10
219.000000
20
298.500000
30
0.0
11
209.000000
21
298.500000
31
0.0
0
LINE
8
VISIBLE
10
220.950903
20
298.692147
30
0.0
11
219.000000
21
298.500000
31
0.0
0
LINE
8
VISIBLE
10
222.826834
20
299.261205
30
0.0
11
220.950903
21
298.692147
31
0.0
0
LINE
8
VISIBLE
10
224.555702
20
300.185304
30
0.0
11
222.826834
21
299.261205
31
0.0
0
LINE
8
VISIBLE
10
226.071068
20
301.428932
30
0.0
11
224.555702
21
300.185304
31
0.0
0
LINE
8
VISIBLE
10
227.314696
20
302.944298
30
0.0
11
226.071068
21
301.428932
31
0.0
0
LINE
8
VISIBLE
10
228.238795
20
304.673166
30
0.0
11
227.314696
21
302.944298
31
0.0
0
LINE
8
VISIBLE
10
228.807853
20
306.549097
30
0.0
11
228.238795
21
304.673166
31
0.0
0
LINE
8
VISIBLE
10
229.000000
20
308.500000
30
0.0
11
228.807853
21
306.549097
31
0.0
0
LINE
8
VISIBLE
10
229.000000
20
348.500000
30
0.0
11
229.000000
21
308.500000
31
0.0
0
LINE
8
VISIBLE
10
228.807853
20
350.450903
30
0.0
11
229.000000
21
348.500000
31
0.0
0
CIRCLE
8
VISIBLE
10
301.500000
20
298.500000
30
0.0
40
47.500000
0
CIRCLE
8
VISIBLE
10
86.500000
20
411.000000
30
0.0
40
5.750000
0
CIRCLE
8
VISIBLE
10
166.500000
20
411.000000
30
0.0
40
5.750000
0
CIRCLE
8
VISIBLE
10
261.500000
20
411.000000
30
0.0
40
5.750000
0
CIRCLE
8
VISIBLE
10
341.500000
20
411.000000
30
0.0
40
5.750000
0
CIRCLE
8
HIDDEN
10
86.500000
20
261.000000
30
0.0
40
4.497388
0
CIRCLE
8
HIDDEN
10
166.500000
20
261.000000
30
0.0
40
4.497388
0
CIRCLE
8
HIDDEN
10
261.500000
20
261.000000
30
0.0
40
4.497388
0
CIRCLE
8
HIDDEN
10
341.500000
20
261.000000
30
0.0
40
4.497388
0
CIRCLE
8
HIDDEN
10
86.500000
20
261.000000
30
0.0
40
3.975000
0
CIRCLE
8
HIDDEN
10
166.500000
20
261.000000
30
0.0
40
3.975000
0
CIRCLE
8
HIDDEN
10
261.500000
20
261.000000
30
0.0
40
3.975000
0
CIRCLE
8
HIDDEN
10
341.500000
20
261.000000
30
0.0
40
3.975000
0
LINE
8
HIDDEN
10
90.997388
20
261.000000
30
0.0
11
90.475000
21
261.000000
31
0.0
0
LINE
8
HIDDEN
10
170.997388
20
261.000000
30
0.0
11
170.475000
21
261.000000
31
0.0
0
LINE
8
HIDDEN
10
265.997388
20
261.000000
30
0.0
11
265.475000
21
261.000000
31
0.0
0
LINE
8
HIDDEN
10
345.997388
20
261.000000
30
0.0
11
345.475000
21
261.000000
31
0.0
0
LINE
8
VISIBLE
10
71.500000
20
170.500000
30
0.0
11
71.500000
21
175.500000
31
0.0
0
LINE
8
VISIBLE
10
71.692147
20
170.500000
30
0.0
11
71.500000
21
170.500000
31
0.0
0
LINE
8
VISIBLE
10
72.261205
20
170.500000
30
0.0
11
71.692147
21
170.500000
31
0.0
0
LINE
8
VISIBLE
10
73.185304
20
170.500000
30
0.0
11
72.261205
21
170.500000
31
0.0
0
LINE
8
VISIBLE
10
74.428932
20
170.500000
30
0.0
11
73.185304
21
170.500000
31
0.0
0
LINE
8
VISIBLE
10
75.944298
20
170.500000
30
0.0
11
74.428932
21
170.500000
31
0.0
0
LINE
8
VISIBLE
10
77.673166
20
170.500000
30
0.0
11
75.944298
21
170.500000
31
0.0
0
LINE
8
VISIBLE
10
79.549097
20
170.500000
30
0.0
11
77.673166
21
170.500000
31
0.0
0
LINE
8
VISIBLE
10
81.500000
20
170.500000
30
0.0
11
79.549097
21
170.500000
31
0.0
0
LINE
8
VISIBLE
10
346.500000
20
170.500000
30
0.0
11
81.500000
21
170.500000
31
0.0
0
LINE
8
VISIBLE
10
348.450903
20
170.500000
30
0.0
11
346.500000
21
170.500000
31
0.0
0
LINE
8
VISIBLE
10
350.326834
20
170.500000
30
0.0
11
348.450903
21
170.500000
31
0.0
0
LINE
8
VISIBLE
10
352.055702
20
170.500000
30
0.0
11
350.326834
21
170.500000
31
0.0
0
LINE
8
VISIBLE
10
353.571068
20
170.500000
30
0.0
11
352.055702
21
170.500000
31
0.0
0
LINE
8
VISIBLE
10
354.814696
20
170.500000
30
0.0
11
353.571068
21
170.500000
31
0.0
0
LINE
8
VISIBLE
10
355.738795
20
170.500000
30
0.0
11
354.814696
21
170.500000
31
0.0
0
LINE
8
VISIBLE
10
356.307853
20
170.500000
30
0.0
11
355.738795
21
170.500000
31
0.0
0
LINE
8
VISIBLE
10
356.500000
20
170.500000
30
0.0
11
356.307853
21
170.500000
31
0.0
0
LINE
8
VISIBLE
10
71.692147
20
175.500000
30
0.0
11
71.500000
21
175.500000
31
0.0
0
LINE
8
VISIBLE
10
72.261205
20
175.500000
30
0.0
11
71.692147
21
175.500000
31
0.0
0
LINE
8
VISIBLE
10
73.185304
20
175.500000
30
0.0
11
72.261205
21
175.500000
31
0.0
0
LINE
8
VISIBLE
10
74.428932
20
175.500000
30
0.0
11
73.185304
21
175.500000
31
0.0
0
LINE
8
VISIBLE
10
75.944298
20
175.500000
30
0.0
11
74.428932
21
175.500000
31
0.0
0
LINE
8
VISIBLE
10
77.673166
20
175.500000
30
0.0
11
75.944298
21
175.500000
31
0.0
0
LINE
8
VISIBLE
10
79.549097
20
175.500000
30
0.0
11
77.673166
21
175.500000
31
0.0
0
LINE
8
VISIBLE
10
81.500000
20
175.500000
30
0.0
11
79.549097
21
175.500000
31
0.0
0
LINE
8
VISIBLE
10
346.500000
20
175.500000
30
0.0
11
81.500000
21
175.500000
31
0.0
0
LINE
8
VISIBLE
10
348.450903
20
175.500000
30
0.0
11
346.500000
21
175.500000
31
0.0
0
LINE
8
VISIBLE
10
350.326834
20
175.500000
30
0.0
11
348.450903
21
175.500000
31
0.0
0
LINE
8
VISIBLE
10
352.055702
20
175.500000
30
0.0
11
350.326834
21
175.500000
31
0.0
0
LINE
8
VISIBLE
10
353.571068
20
175.500000
30
0.0
11
352.055702
21
175.500000
31
0.0
0
LINE
8
VISIBLE
10
354.814696
20
175.500000
30
0.0
11
353.571068
21
175.500000
31
0.0
0
LINE
8
VISIBLE
10
355.738795
20
175.500000
30
0.0
11
354.814696
21
175.500000
31
0.0
0
LINE
8
VISIBLE
10
356.307853
20
175.500000
30
0.0
11
355.738795
21
175.500000
31
0.0
0
LINE
8
VISIBLE
10
356.500000
20
175.500000
30
0.0
11
356.307853
21
175.500000
31
0.0
0
LINE
8
VISIBLE
10
71.692147
20
170.500000
30
0.0
11
71.692147
21
175.500000
31
0.0
0
LINE
8
VISIBLE
10
72.261205
20
170.500000
30
0.0
11
72.261205
21
175.500000
31
0.0
0
LINE
8
VISIBLE
10
73.185304
20
170.500000
30
0.0
11
73.185304
21
175.500000
31
0.0
0
LINE
8
VISIBLE
10
74.428932
20
170.500000
30
0.0
11
74.428932
21
175.500000
31
0.0
0
LINE
8
VISIBLE
10
75.944298
20
170.500000
30
0.0
11
75.944298
21
175.500000
31
0.0
0
LINE
8
VISIBLE
10
77.673166
20
170.500000
30
0.0
11
77.673166
21
175.500000
31
0.0
0
LINE
8
VISIBLE
10
79.549097
20
170.500000
30
0.0
11
79.549097
21
175.500000
31
0.0
0
LINE
8
VISIBLE
10
81.500000
20
170.500000
30
0.0
11
81.500000
21
175.500000
31
0.0
0
LINE
8
VISIBLE
10
346.500000
20
170.500000
30
0.0
11
346.500000
21
175.500000
31
0.0
0
LINE
8
VISIBLE
10
348.450903
20
170.500000
30
0.0
11
348.450903
21
175.500000
31
0.0
0
LINE
8
VISIBLE
10
350.326834
20
170.500000
30
0.0
11
350.326834
21
175.500000
31
0.0
0
LINE
8
VISIBLE
10
352.055702
20
170.500000
30
0.0
11
352.055702
21
175.500000
31
0.0
0
LINE
8
VISIBLE
10
353.571068
20
170.500000
30
0.0
11
353.571068
21
175.500000
31
0.0
0
LINE
8
VISIBLE
10
354.814696
20
170.500000
30
0.0
11
354.814696
21
175.500000
31
0.0
0
LINE
8
VISIBLE
10
355.738795
20
170.500000
30
0.0
11
355.738795
21
175.500000
31
0.0
0
LINE
8
VISIBLE
10
356.307853
20
170.500000
30
0.0
11
356.307853
21
175.500000
31
0.0
0
LINE
8
VISIBLE
10
356.500000
20
170.500000
30
0.0
11
356.500000
21
175.500000
31
0.0
0
LINE
8
VISIBLE
10
337.002612
20
175.500000
30
0.0
11
337.525000
21
185.500000
31
0.0
0
LINE
8
VISIBLE
10
345.475000
20
185.500000
30
0.0
11
337.525000
21
185.500000
31
0.0
0
LINE
8
VISIBLE
10
257.002612
20
175.500000
30
0.0
11
257.525000
21
185.500000
31
0.0
0
LINE
8
VISIBLE
10
265.475000
20
185.500000
30
0.0
11
257.525000
21
185.500000
31
0.0
0
LINE
8
VISIBLE
10
162.002612
20
175.500000
30
0.0
11
162.525000
21
185.500000
31
0.0
0
LINE
8
VISIBLE
10
170.475000
20
185.500000
30
0.0
11
162.525000
21
185.500000
31
0.0
0
LINE
8
VISIBLE
10
82.002612
20
175.500000
30
0.0
11
82.525000
21
185.500000
31
0.0
0
LINE
8
VISIBLE
10
90.475000
20
185.500000
30
0.0
11
82.525000
21
185.500000
31
0.0
0
LINE
8
VISIBLE
10
345.475000
20
185.500000
30
0.0
11
345.997388
21
175.500000
31
0.0
0
LINE
8
VISIBLE
10
265.475000
20
185.500000
30
0.0
11
265.997388
21
175.500000
31
0.0
0
LINE
8
VISIBLE
10
170.475000
20
185.500000
30
0.0
11
170.997388
21
175.500000
31
0.0
0
LINE
8
VISIBLE
10
90.475000
20
185.500000
30
0.0
11
90.997388
21
175.500000
31
0.0
0
LINE
8
VISIBLE
10
394.692147
20
326.000000
30
0.0
11
394.500000
21
326.000000
31
0.0
0
LINE
8
VISIBLE
10
395.261205
20
326.000000
30
0.0
11
394.692147
21
326.000000
31
0.0
0
LINE
8
VISIBLE
10
396.185304
20
326.000000
30
0.0
11
395.261205
21
326.000000
31
0.0
0
LINE
8
VISIBLE
10
397.428932
20
326.000000
30
0.0
11
396.185304
21
326.000000
31
0.0
0
LINE
8
VISIBLE
10
398.944298
20
326.000000
30
0.0
11
397.428932
21
326.000000
31
0.0
0
LINE
8
VISIBLE
10
400.673166
20
326.000000
30
0.0
11
398.944298
21
326.000000
31
0.0
0
LINE
8
VISIBLE
10
402.549097
20
326.000000
30
0.0
11
400.673166
21
326.000000
31
0.0
0
LINE
8
VISIBLE
10
404.500000
20
326.000000
30
0.0
11
402.549097
21
326.000000
31
0.0
0
LINE
8
VISIBLE
10
669.500000
20
326.000000
30
0.0
11
404.500000
21
326.000000
31
0.0
0
LINE
8
VISIBLE
10
671.450903
20
326.000000
30
0.0
11
669.500000
21
326.000000
31
0.0
0
LINE
8
VISIBLE
10
673.326834
20
326.000000
30
0.0
11
671.450903
21
326.000000
31
0.0
0
LINE
8
VISIBLE
10
675.055702
20
326.000000
30
0.0
11
673.326834
21
326.000000
31
0.0
0
LINE
8
VISIBLE
10
676.571068
20
326.000000
30
0.0
11
675.055702
21
326.000000
31
0.0
0
LINE
8
VISIBLE
10
677.814696
20
326.000000
30
0.0
11
676.571068
21
326.000000
31
0.0
0
LINE
8
VISIBLE
10
678.738795
20
326.000000
30
0.0
11
677.814696
21
326.000000
31
0.0
0
LINE
8
VISIBLE
10
679.307853
20
326.000000
30
0.0
11
678.738795
21
326.000000
31
0.0
0
LINE
8
VISIBLE
10
679.500000
20
326.000000
30
0.0
11
679.307853
21
326.000000
31
0.0
0
LINE
8
VISIBLE
10
394.692147
20
331.000000
30
0.0
11
394.500000
21
331.000000
31
0.0
0
LINE
8
VISIBLE
10
395.261205
20
331.000000
30
0.0
11
394.692147
21
331.000000
31
0.0
0
LINE
8
VISIBLE
10
396.185304
20
331.000000
30
0.0
11
395.261205
21
331.000000
31
0.0
0
LINE
8
VISIBLE
10
397.428932
20
331.000000
30
0.0
11
396.185304
21
331.000000
31
0.0
0
LINE
8
VISIBLE
10
398.944298
20
331.000000
30
0.0
11
397.428932
21
331.000000
31
0.0
0
LINE
8
VISIBLE
10
400.673166
20
331.000000
30
0.0
11
398.944298
21
331.000000
31
0.0
0
LINE
8
VISIBLE
10
402.549097
20
331.000000
30
0.0
11
400.673166
21
331.000000
31
0.0
0
LINE
8
VISIBLE
10
404.500000
20
331.000000
30
0.0
11
402.549097
21
331.000000
31
0.0
0
LINE
8
VISIBLE
10
669.500000
20
331.000000
30
0.0
11
404.500000
21
331.000000
31
0.0
0
LINE
8
VISIBLE
10
671.450903
20
331.000000
30
0.0
11
669.500000
21
331.000000
31
0.0
0
LINE
8
VISIBLE
10
673.326834
20
331.000000
30
0.0
11
671.450903
21
331.000000
31
0.0
0
LINE
8
VISIBLE
10
675.055702
20
331.000000
30
0.0
11
673.326834
21
331.000000
31
0.0
0
LINE
8
VISIBLE
10
676.571068
20
331.000000
30
0.0
11
675.055702
21
331.000000
31
0.0
0
LINE
8
VISIBLE
10
677.814696
20
331.000000
30
0.0
11
676.571068
21
331.000000
31
0.0
0
LINE
8
VISIBLE
10
678.738795
20
331.000000
30
0.0
11
677.814696
21
331.000000
31
0.0
0
LINE
8
VISIBLE
10
679.307853
20
331.000000
30
0.0
11
678.738795
21
331.000000
31
0.0
0
LINE
8
VISIBLE
10
679.500000
20
331.000000
30
0.0
11
679.307853
21
331.000000
31
0.0
0
LINE
8
VISIBLE
10
394.692147
20
326.000000
30
0.0
11
394.692147
21
331.000000
31
0.0
0
LINE
8
VISIBLE
10
395.261205
20
326.000000
30
0.0
11
395.261205
21
331.000000
31
0.0
0
LINE
8
VISIBLE
10
396.185304
20
326.000000
30
0.0
11
396.185304
21
331.000000
31
0.0
0
LINE
8
VISIBLE
10
397.428932
20
326.000000
30
0.0
11
397.428932
21
331.000000
31
0.0
0
LINE
8
VISIBLE
10
398.944298
20
326.000000
30
0.0
11
398.944298
21
331.000000
31
0.0
0
LINE
8
VISIBLE
10
400.673166
20
326.000000
30
0.0
11
400.673166
21
331.000000
31
0.0
0
LINE
8
VISIBLE
10
402.549097
20
326.000000
30
0.0
11
402.549097
21
331.000000
31
0.0
0
LINE
8
VISIBLE
10
404.500000
20
326.000000
30
0.0
11
404.500000
21
331.000000
31
0.0
0
LINE
8
VISIBLE
10
669.500000
20
326.000000
30
0.0
11
669.500000
21
331.000000
31
0.0
0
LINE
8
VISIBLE
10
671.450903
20
326.000000
30
0.0
11
671.450903
21
331.000000
31
0.0
0
LINE
8
VISIBLE
10
673.326834
20
326.000000
30
0.0
11
673.326834
21
331.000000
31
0.0
0
LINE
8
VISIBLE
10
675.055702
20
326.000000
30
0.0
11
675.055702
21
331.000000
31
0.0
0
LINE
8
VISIBLE
10
676.571068
20
326.000000
30
0.0
11
676.571068
21
331.000000
31
0.0
0
LINE
8
VISIBLE
10
677.814696
20
326.000000
30
0.0
11
677.814696
21
331.000000
31
0.0
0
LINE
8
VISIBLE
10
678.738795
20
326.000000
30
0.0
11
678.738795
21
331.000000
31
0.0
0
LINE
8
VISIBLE
10
679.307853
20
326.000000
30
0.0
11
679.307853
21
331.000000
31
0.0
0
LINE
8
VISIBLE
10
660.002612
20
331.000000
30
0.0
11
660.525000
21
341.000000
31
0.0
0
LINE
8
VISIBLE
10
668.475000
20
341.000000
30
0.0
11
660.525000
21
341.000000
31
0.0
0
LINE
8
VISIBLE
10
580.002612
20
331.000000
30
0.0
11
580.525000
21
341.000000
31
0.0
0
LINE
8
VISIBLE
10
588.475000
20
341.000000
30
0.0
11
580.525000
21
341.000000
31
0.0
0
LINE
8
VISIBLE
10
485.002612
20
331.000000
30
0.0
11
485.525000
21
341.000000
31
0.0
0
LINE
8
VISIBLE
10
493.475000
20
341.000000
30
0.0
11
485.525000
21
341.000000
31
0.0
0
LINE
8
VISIBLE
10
405.002612
20
331.000000
30
0.0
11
405.525000
21
341.000000
31
0.0
0
LINE
8
VISIBLE
10
413.475000
20
341.000000
30
0.0
11
405.525000
21
341.000000
31
0.0
0
LINE
8
VISIBLE
10
668.475000
20
341.000000
30
0.0
11
668.997388
21
331.000000
31
0.0
0
LINE
8
VISIBLE
10
588.475000
20
341.000000
30
0.0
11
588.997388
21
331.000000
31
0.0
0
LINE
8
VISIBLE
10
493.475000
20
341.000000
30
0.0
11
493.997388
21
331.000000
31
0.0
0
LINE
8
VISIBLE
10
413.475000
20
341.000000
30
0.0
11
413.997388
21
331.000000
31
0.0
0
LINE
8
SECTION
10
394.500000
20
326.000000
30
0.0
11
403.750000
21
326.000000
31
0.0
0
LINE
8
SECTION
10
394.500000
20
331.000000
30
0.0
11
394.500000
21
326.000000
31
0.0
0
LINE
8
SECTION
10
394.500000
20
331.000000
30
0.0
11
403.750000
21
331.000000
31
0.0
0
LINE
8
SECTION
10
403.750000
20
326.000000
30
0.0
11
403.750000
21
331.000000
31
0.0
0
LINE
8
SECTION
10
670.250000
20
326.000000
30
0.0
11
670.250000
21
331.000000
31
0.0
0
LINE
8
SECTION
10
670.250000
20
331.000000
30
0.0
11
679.500000
21
331.000000
31
0.0
0
LINE
8
SECTION
10
679.500000
20
326.000000
30
0.0
11
679.500000
21
331.000000
31
0.0
0
LINE
8
SECTION
10
670.250000
20
326.000000
30
0.0
11
679.500000
21
326.000000
31
0.0
0
LINE
8
SECTION
10
590.250000
20
326.000000
30
0.0
11
658.750000
21
326.000000
31
0.0
0
LINE
8
SECTION
10
590.250000
20
326.000000
30
0.0
11
590.250000
21
331.000000
31
0.0
0
LINE
8
SECTION
10
590.250000
20
331.000000
30
0.0
11
658.750000
21
331.000000
31
0.0
0
LINE
8
SECTION
10
658.750000
20
326.000000
30
0.0
11
658.750000
21
331.000000
31
0.0
0
LINE
8
SECTION
10
495.250000
20
326.000000
30
0.0
11
578.750000
21
326.000000
31
0.0
0
LINE
8
SECTION
10
495.250000
20
326.000000
30
0.0
11
495.250000
21
331.000000
31
0.0
0
LINE
8
SECTION
10
495.250000
20
331.000000
30
0.0
11
578.750000
21
331.000000
31
0.0
0
LINE
8
SECTION
10
578.750000
20
326.000000
30
0.0
11
578.750000
21
331.000000
31
0.0
0
LINE
8
SECTION
10
415.250000
20
326.000000
30
0.0
11
483.750000
21
326.000000
31
0.0
0
LINE
8
SECTION
10
415.250000
20
326.000000
30
0.0
11
415.250000
21
331.000000
31
0.0
0
LINE
8
SECTION
10
415.250000
20
331.000000
30
0.0
11
483.750000
21
331.000000
31
0.0
0
LINE
8
SECTION
10
483.750000
20
326.000000
30
0.0
11
483.750000
21
331.000000
31
0.0
0
LINE
8
VISIBLE
10
774.693629
20
522.045460
30
0.0
11
775.081311
21
521.861769
31
0.0
0
LINE
8
VISIBLE
10
745.749320
20
538.756465
30
0.0
11
774.693629
21
522.045460
31
0.0
0
LINE
8
VISIBLE
10
775.081311
20
521.861769
30
0.0
11
775.523614
21
521.725274
31
0.0
0
LINE
8
VISIBLE
10
745.431158
20
538.980293
30
0.0
11
745.749320
21
538.756465
31
0.0
0
LINE
8
VISIBLE
10
775.523614
20
521.725274
30
0.0
11
776.003541
21
521.641221
31
0.0
0
LINE
8
VISIBLE
10
745.194742
20
539.235657
30
0.0
11
745.431158
21
538.980293
31
0.0
0
LINE
8
VISIBLE
10
776.003541
20
521.641221
30
0.0
11
776.502649
21
521.612840
31
0.0
0
LINE
8
VISIBLE
10
745.049158
20
539.512743
30
0.0
11
745.194742
21
539.235657
31
0.0
0
LINE
8
VISIBLE
10
776.502649
20
521.612840
30
0.0
11
777.001756
21
521.641221
31
0.0
0
LINE
8
VISIBLE
10
745.000000
20
539.800903
30
0.0
11
745.049158
21
539.512743
31
0.0
0
LINE
8
VISIBLE
10
777.001756
20
521.641221
30
0.0
11
777.481683
21
521.725274
31
0.0
0
LINE
8
VISIBLE
10
745.049158
20
540.089063
30
0.0
11
745.000000
21
539.800903
31
0.0
0
LINE
8
VISIBLE
10
777.481683
20
521.725274
30
0.0
11
777.923986
21
521.861769
31
0.0
0
LINE
8
VISIBLE
10
745.194742
20
540.366148
30
0.0
11
745.049158
21
540.089063
31
0.0
0
LINE
8
VISIBLE
10
777.923986
20
521.861769
30
0.0
11
778.311668
21
522.045460
31
0.0
0
LINE
8
VISIBLE
10
745.431158
20
540.621512
30
0.0
11
745.194742
21
540.366148
31
0.0
0
LINE
8
VISIBLE
10
778.311668
20
522.045460
30
0.0
11
826.250680
21
549.723062
31
0.0
0
LINE
8
VISIBLE
10
745.749320
20
540.845341
30
0.0
11
745.431158
21
540.621512
31
0.0
0
LINE
8
VISIBLE
10
826.250680
20
549.723062
30
0.0
11
826.568842
21
549.946890
31
0.0
0
LINE
8
VISIBLE
10
793.688332
20
568.522942
30
0.0
11
745.749320
21
540.845341
31
0.0
0
LINE
8
VISIBLE
10
826.568842
20
549.946890
30
0.0
11
826.805258
21
550.202254
31
0.0
0
LINE
8
VISIBLE
10
794.076014
20
568.706633
30
0.0
11
793.688332
21
568.522942
31
0.0
0
LINE
8
VISIBLE
10
826.805258
20
550.202254
30
0.0
11
826.950842
21
550.479340
31
0.0
0
LINE
8
VISIBLE
10
794.518317
20
568.843128
30
0.0
11
794.076014
21
568.706633
31
0.0
0
LINE
8
VISIBLE
10
826.950842
20
550.479340
30
0.0
11
827.000000
21
550.767500
31
0.0
0
LINE
8
VISIBLE
10
794.998244
20
568.927181
30
0.0
11
794.518317
21
568.843128
31
0.0
0
LINE
8
VISIBLE
10
827.000000
20
550.767500
30
0.0
11
826.950842
21
551.055659
31
0.0
0
LINE
8
VISIBLE
10
795.497351
20
568.955562
30
0.0
11
794.998244
21
568.927181
31
0.0
0
LINE
8
VISIBLE
10
826.950842
20
551.055659
30
0.0
11
826.805258
21
551.332745
31
0.0
0
LINE
8
VISIBLE
10
795.996459
20
568.927181
30
0.0
11
795.497351
21
568.955562
31
0.0
0
LINE
8
VISIBLE
10
826.805258
20
551.332745
30
0.0
11
826.568842
21
551.588109
31
0.0
0
LINE
8
VISIBLE
10
796.476386
20
568.843128
30
0.0
11
795.996459
21
568.927181
31
0.0
0
LINE
8
VISIBLE
10
826.568842
20
551.588109
30
0.0
11
826.250680
21
551.811937
31
0.0
0
LINE
8
VISIBLE
10
796.918689
20
568.706633
30
0.0
11
796.476386
21
568.843128
31
0.0
0
LINE
8
VISIBLE
10
826.250680
20
551.811937
30
0.0
11
797.306371
21
568.522942
31
0.0
0
LINE
8
VISIBLE
10
797.306371
20
568.522942
30
0.0
11
796.918689
21
568.706633
31
0.0
0
LINE
8
VISIBLE
10
786.904510
20
553.117485
30
0.0
11
789.348524
21
552.026959
31
0.0
0
LINE
8
VISIBLE
10
789.348524
20
552.026959
30
0.0
11
792.357314
21
551.300806
31
0.0
0
LINE
8
VISIBLE
10
792.357314
20
551.300806
30
0.0
11
795.710107
21
551.063614
31
0.0
0
LINE
8
VISIBLE
10
795.710107
20
551.063614
30
0.0
11
799.083380
21
551.374977
31
0.0
0
LINE
8
VISIBLE
10
799.083380
20
551.374977
30
0.0
11
802.130854
21
552.200058
31
0.0
0
LINE
8
VISIBLE
10
802.130854
20
552.200058
30
0.0
11
804.581124
21
553.418130
31
0.0
0
LINE
8
VISIBLE
10
804.581124
20
553.418130
30
0.0
11
806.301599
21
554.867018
31
0.0
0
LINE
8
VISIBLE
10
806.301599
20
554.867018
30
0.0
11
807.296701
21
556.400350
31
0.0
0
LINE
8
VISIBLE
10
807.296701
20
556.400350
30
0.0
11
807.649465
21
558.078564
31
0.0
0
LINE
8
VISIBLE
10
807.649465
20
558.078564
30
0.0
11
807.371440
21
559.570753
31
0.0
0
LINE
8
VISIBLE
10
807.371440
20
559.570753
30
0.0
11
806.526272
21
561.024566
31
0.0
0
LINE
8
VISIBLE
10
806.526272
20
561.024566
30
0.0
11
805.064093
21
562.404891
31
0.0
0
LINE
8
VISIBLE
10
805.064093
20
562.404891
30
0.0
11
802.942873
21
563.623474
31
0.0
0
LINE
8
VISIBLE
10
802.942873
20
563.623474
30
0.0
11
800.196008
21
564.548919
31
0.0
0
LINE
8
VISIBLE
10
800.196008
20
564.548919
30
0.0
11
796.979205
21
565.042231
31
0.0
0
LINE
8
VISIBLE
10
796.979205
20
565.042231
30
0.0
11
793.571942
21
565.005965
31
0.0
0
LINE
8
VISIBLE
10
793.571942
20
565.005965
30
0.0
11
790.321440
21
564.426367
31
0.0
0
LINE
8
VISIBLE
10
790.321440
20
564.426367
30
0.0
11
787.547644
21
563.385038
31
0.0
0
LINE
8
VISIBLE
10
787.547644
20
563.385038
30
0.0
11
785.456486
21
562.030563
31
0.0
0
LINE
8
VISIBLE
10
785.456486
20
562.030563
30
0.0
11
784.107273
21
560.523966
31
0.0
0
LINE
8
VISIBLE
10
784.107273
20
560.523966
30
0.0
11
783.447342
21
558.986148
31
0.0
0
LINE
8
VISIBLE
10
783.447342
20
558.986148
30
0.0
11
783.345238
21
558.078564
31
0.0
0
LINE
8
VISIBLE
10
783.345238
20
558.078564
30
0.0
11
783.623263
21
556.586375
31
0.0
0
LINE
8
VISIBLE
10
783.623263
20
556.586375
30
0.0
11
784.468431
21
555.132563
31
0.0
0
LINE
8
VISIBLE
10
784.468431
20
555.132563
30
0.0
11
786.904510
21
553.117485
31
0.0
0
LINE
8
VISIBLE
10
786.829985
20
541.830702
30
0.0
11
786.387682
21
541.967197
31
0.0
0
LINE
8
VISIBLE
10
787.309912
20
541.746649
30
0.0
11
786.829985
21
541.830702
31
0.0
0
LINE
8
VISIBLE
10
787.809019
20
541.718268
30
0.0
11
787.309912
21
541.746649
31
0.0
0
LINE
8
VISIBLE
10
788.308127
20
541.746649
30
0.0
11
787.809019
21
541.718268
31
0.0
0
LINE
8
VISIBLE
10
788.788054
20
541.830702
30
0.0
11
788.308127
21
541.746649
31
0.0
0
LINE
8
VISIBLE
10
789.230357
20
541.967197
30
0.0
11
788.788054
21
541.830702
31
0.0
0
LINE
8
VISIBLE
10
789.618039
20
542.150888
30
0.0
11
789.230357
21
541.967197
31
0.0
0
LINE
8
VISIBLE
10
791.427058
20
543.195326
30
0.0
11
789.618039
21
542.150888
31
0.0
0
LINE
8
VISIBLE
10
791.745220
20
543.419154
30
0.0
11
791.427058
21
543.195326
31
0.0
0
LINE
8
VISIBLE
10
791.981636
20
543.674518
30
0.0
11
791.745220
21
543.419154
31
0.0
0
LINE
8
VISIBLE
10
792.127220
20
543.951604
30
0.0
11
791.981636
21
543.674518
31
0.0
0
LINE
8
VISIBLE
10
792.176378
20
544.239763
30
0.0
11
792.127220
21
543.951604
31
0.0
0
LINE
8
VISIBLE
10
792.127220
20
544.527923
30
0.0
11
792.176378
21
544.239763
31
0.0
0
LINE
8
VISIBLE
10
791.981636
20
544.805009
30
0.0
11
792.127220
21
544.527923
31
0.0
0
LINE
8
VISIBLE
10
791.745220
20
545.060373
30
0.0
11
791.981636
21
544.805009
31
0.0
0
LINE
8
VISIBLE
10
791.427058
20
545.284201
30
0.0
11
791.745220
21
545.060373
31
0.0
0
LINE
8
VISIBLE
10
784.190981
20
549.461952
30
0.0
11
791.427058
21
545.284201
31
0.0
0
LINE
8
VISIBLE
10
783.803299
20
549.645643
30
0.0
11
784.190981
21
549.461952
31
0.0
0
LINE
8
VISIBLE
10
783.360996
20
549.782138
30
0.0
11
783.803299
21
549.645643
31
0.0
0
LINE
8
VISIBLE
10
782.881069
20
549.866191
30
0.0
11
783.360996
21
549.782138
31
0.0
0
LINE
8
VISIBLE
10
782.381961
20
549.894573
30
0.0
11
782.881069
21
549.866191
31
0.0
0
LINE
8
VISIBLE
10
781.882854
20
549.866191
30
0.0
11
782.381961
21
549.894573
31
0.0
0
LINE
8
VISIBLE
10
781.402927
20
549.782138
30
0.0
11
781.882854
21
549.866191
31
0.0
0
LINE
8
VISIBLE
10
780.960624
20
549.645643
30
0.0
11
781.402927
21
549.782138
31
0.0
0
LINE
8
VISIBLE
10
780.572942
20
549.461952
30
0.0
11
780.960624
21
549.645643
31
0.0
0
LINE
8
VISIBLE
10
778.763923
20
548.417515
30
0.0
11
780.572942
21
549.461952
31
0.0
0
LINE
8
VISIBLE
10
778.445760
20
548.193686
30
0.0
11
778.763923
21
548.417515
31
0.0
0
LINE
8
VISIBLE
10
778.209344
20
547.938322
30
0.0
11
778.445760
21
548.193686
31
0.0
0
LINE
8
VISIBLE
10
778.063760
20
547.661236
30
0.0
11
778.209344
21
547.938322
31
0.0
0
LINE
8
VISIBLE
10
778.014602
20
547.373077
30
0.0
11
778.063760
21
547.661236
31
0.0
0
LINE
8
VISIBLE
10
778.063760
20
547.084917
30
0.0
11
778.014602
21
547.373077
31
0.0
0
LINE
8
VISIBLE
10
778.209344
20
546.807831
30
0.0
11
778.063760
21
547.084917
31
0.0
0
LINE
8
VISIBLE
10
778.445760
20
546.552467
30
0.0
11
778.209344
21
546.807831
31
0.0
0
LINE
8
VISIBLE
10
778.763923
20
546.328639
30
0.0
11
778.445760
21
546.552467
31
0.0
0
LINE
8
VISIBLE
10
786.000000
20
542.150888
30
0.0
11
778.763923
21
546.328639
31
0.0
0
LINE
8
VISIBLE
10
786.387682
20
541.967197
30
0.0
11
786.000000
21
542.150888
31
0.0
0
LINE
8
VISIBLE
10
755.246672
20
534.839823
30
0.0
11
757.690686
21
533.749298
31
0.0
0
LINE
8
VISIBLE
10
757.690686
20
533.749298
30
0.0
11
760.699476
21
533.023144
31
0.0
0
LINE
8
VISIBLE
10
760.699476
20
533.023144
30
0.0
11
764.052269
21
532.785952
31
0.0
0
LINE
8
VISIBLE
10
764.052269
20
532.785952
30
0.0
11
767.425542
21
533.097315
31
0.0
0
LINE
8
VISIBLE
10
767.425542
20
533.097315
30
0.0
11
770.473016
21
533.922397
31
0.0
0
LINE
8
VISIBLE
10
770.473016
20
533.922397
30
0.0
11
772.923286
21
535.140469
31
0.0
0
LINE
8
VISIBLE
10
772.923286
20
535.140469
30
0.0
11
774.643761
21
536.589357
31
0.0
0
LINE
8
VISIBLE
10
774.643761
20
536.589357
30
0.0
11
775.638863
21
538.122689
31
0.0
0
LINE
8
VISIBLE
10
775.638863
20
538.122689
30
0.0
11
775.991627
21
539.800903
31
0.0
0
LINE
8
VISIBLE
10
775.991627
20
539.800903
30
0.0
11
775.713602
21
541.293092
31
0.0
0
LINE
8
VISIBLE
10
775.713602
20
541.293092
30
0.0
11
774.868434
21
542.746904
31
0.0
0
LINE
8
VISIBLE
10
774.868434
20
542.746904
30
0.0
11
773.406255
21
544.127230
31
0.0
0
LINE
8
VISIBLE
10
773.406255
20
544.127230
30
0.0
11
771.285035
21
545.345813
31
0.0
0
LINE
8
VISIBLE
10
771.285035
20
545.345813
30
0.0
11
768.538170
21
546.271258
31
0.0
0
LINE
8
VISIBLE
10
768.538170
20
546.271258
30
0.0
11
765.321367
21
546.764570
31
0.0
0
LINE
8
VISIBLE
10
765.321367
20
546.764570
30
0.0
11
761.914104
21
546.728304
31
0.0
0
LINE
8
VISIBLE
10
761.914104
20
546.728304
30
0.0
11
758.663602
21
546.148706
31
0.0
0
LINE
8
VISIBLE
10
758.663602
20
546.148706
30
0.0
11
755.889806
21
545.107377
31
0.0
0
LINE
8
VISIBLE
10
755.889806
20
545.107377
30
0.0
11
753.798648
21
543.752901
31
0.0
0
LINE
8
VISIBLE
10
753.798648
20
543.752901
30
0.0
11
752.449435
21
542.246305
31
0.0
0
LINE
8
VISIBLE
10
752.449435
20
542.246305
30
0.0
11
751.789504
21
540.708487
31
0.0
0
LINE
8
VISIBLE
10
751.789504
20
540.708487
30
0.0
11
751.687400
21
539.800903
31
0.0
0
LINE
8
VISIBLE
10
751.687400
20
539.800903
30
0.0
11
751.965425
21
538.308714
31
0.0
0
LINE
8
VISIBLE
10
751.965425
20
538.308714
30
0.0
11
752.810593
21
536.854901
31
0.0
0
LINE
8
VISIBLE
10
752.810593
20
536.854901
30
0.0
11
755.246672
21
534.839823
31
0.0
0
LINE
8
VISIBLE
10
822.044710
20
549.905838
30
0.0
11
823.007179
21
549.658268
31
0.0
0
LINE
8
VISIBLE
10
823.007179
20
549.658268
30
0.0
11
824.095617
21
549.889296
31
0.0
0
LINE
8
VISIBLE
10
824.095617
20
549.889296
30
0.0
11
824.555941
21
550.506390
31
0.0
0
LINE
8
VISIBLE
10
824.555941
20
550.506390
30
0.0
11
824.285564
21
550.997094
31
0.0
0
LINE
8
VISIBLE
10
824.285564
20
550.997094
30
0.0
11
823.455676
21
551.328278
31
0.0
0
LINE
8
VISIBLE
10
823.455676
20
551.328278
30
0.0
11
822.319554
21
551.231701
31
0.0
0
LINE
8
VISIBLE
10
822.319554
20
551.231701
30
0.0
11
821.802354
21
550.922347
31
0.0
0
LINE
8
VISIBLE
10
821.802354
20
550.922347
30
0.0
11
821.613851
21
550.506390
31
0.0
0
LINE
8
VISIBLE
10
821.613851
20
550.506390
30
0.0
11
822.044710
21
549.905838
31
0.0
0
LINE
8
VISIBLE
10
807.572555
20
541.550336
30
0.0
11
808.535025
21
541.302766
31
0.0
0
LINE
8
VISIBLE
10
808.535025
20
541.302766
30
0.0
11
809.623463
21
541.533794
31
0.0
0
LINE
8
VISIBLE
10
809.623463
20
541.533794
30
0.0
11
810.083787
21
542.150888
31
0.0
0
LINE
8
VISIBLE
10
810.083787
20
542.150888
30
0.0
11
809.813409
21
542.641592
31
0.0
0
LINE
8
VISIBLE
10
809.813409
20
542.641592
30
0.0
11
808.983521
21
542.972775
31
0.0
0
LINE
8
VISIBLE
10
808.983521
20
542.972775
30
0.0
11
807.847400
21
542.876198
31
0.0
0
LINE
8
VISIBLE
10
807.847400
20
542.876198
30
0.0
11
807.330200
21
542.566845
31
0.0
0
LINE
8
VISIBLE
10
807.330200
20
542.566845
30
0.0
11
807.141696
21
542.150888
31
0.0
0
LINE
8
VISIBLE
10
807.141696
20
542.150888
30
0.0
11
807.572555
21
541.550336
31
0.0
0
LINE
8
VISIBLE
10
790.386872
20
531.628177
30
0.0
11
791.349341
21
531.380607
31
0.0
0
LINE
8
VISIBLE
10
791.349341
20
531.380607
30
0.0
11
792.437779
21
531.611635
31
0.0
0
LINE
8
VISIBLE
10
792.437779
20
531.611635
30
0.0
11
792.898103
21
532.228729
31
0.0
0
LINE
8
VISIBLE
10
792.898103
20
532.228729
30
0.0
11
792.627726
21
532.719433
31
0.0
0
LINE
8
VISIBLE
10
792.627726
20
532.719433
30
0.0
11
791.797838
21
533.050616
31
0.0
0
LINE
8
VISIBLE
10
791.797838
20
533.050616
30
0.0
11
790.661716
21
532.954039
31
0.0
0
LINE
8
VISIBLE
10
790.661716
20
532.954039
30
0.0
11
790.144516
21
532.644686
31
0.0
0
LINE
8
VISIBLE
10
790.144516
20
532.644686
30
0.0
11
789.956013
21
532.228729
31
0.0
0
LINE
8
VISIBLE
10
789.956013
20
532.228729
30
0.0
11
790.386872
21
531.628177
31
0.0
0
LINE
8
VISIBLE
10
775.914717
20
523.272675
30
0.0
11
776.877187
21
523.025104
31
0.0
0
LINE
8
VISIBLE
10
776.877187
20
523.025104
30
0.0
11
777.965625
21
523.256132
31
0.0
0
LINE
8
VISIBLE
10
777.965625
20
523.256132
30
0.0
11
778.425949
21
523.873227
31
0.0
0
LINE
8
VISIBLE
10
778.425949
20
523.873227
30
0.0
11
778.155571
21
524.363930
31
0.0
0
LINE
8
VISIBLE
10
778.155571
20
524.363930
30
0.0
11
777.325683
21
524.695114
31
0.0
0
LINE
8
VISIBLE
10
777.325683
20
524.695114
30
0.0
11
776.189562
21
524.598537
31
0.0
0
LINE
8
VISIBLE
10
776.189562
20
524.598537
30
0.0
11
775.672362
21
524.289184
31
0.0
0
LINE
8
VISIBLE
10
775.672362
20
524.289184
30
0.0
11
775.483858
21
523.873227
31
0.0
0
LINE
8
VISIBLE
10
775.483858
20
523.873227
30
0.0
11
775.914717
21
523.272675
31
0.0
0
LINE
8
VISIBLE
10
745.049158
20
541.133500
30
0.0
11
745.000000
21
540.845341
31
0.0
0
LINE
8
VISIBLE
10
745.194742
20
541.410586
30
0.0
11
745.049158
21
541.133500
31
0.0
0
LINE
8
VISIBLE
10
745.431158
20
541.665950
30
0.0
11
745.194742
21
541.410586
31
0.0
0
LINE
8
VISIBLE
10
745.749320
20
541.889778
30
0.0
11
745.431158
21
541.665950
31
0.0
0
LINE
8
VISIBLE
10
793.688332
20
569.567380
30
0.0
11
745.749320
21
541.889778
31
0.0
0
LINE
8
VISIBLE
10
794.076014
20
569.751071
30
0.0
11
793.688332
21
569.567380
31
0.0
0
LINE
8
VISIBLE
10
794.518317
20
569.887566
30
0.0
11
794.076014
21
569.751071
31
0.0
0
LINE
8
VISIBLE
10
794.998244
20
569.971619
30
0.0
11
794.518317
21
569.887566
31
0.0
0
LINE
8
VISIBLE
10
827.000000
20
551.811937
30
0.0
11
826.950842
21
552.100097
31
0.0
0
LINE
8
VISIBLE
10
795.497351
20
570.000000
30
0.0
11
794.998244
21
569.971619
31
0.0
0
LINE
8
VISIBLE
10
826.950842
20
552.100097
30
0.0
11
826.805258
21
552.377183
31
0.0
0
LINE
8
VISIBLE
10
795.996459
20
569.971619
30
0.0
11
795.497351
21
570.000000
31
0.0
0
LINE
8
VISIBLE
10
826.805258
20
552.377183
30
0.0
11
826.568842
21
552.632547
31
0.0
0
LINE
8
VISIBLE
10
796.476386
20
569.887566
30
0.0
11
795.996459
21
569.971619
31
0.0
0
LINE
8
VISIBLE
10
826.568842
20
552.632547
30
0.0
11
826.250680
21
552.856375
31
0.0
0
LINE
8
VISIBLE
10
796.918689
20
569.751071
30
0.0
11
796.476386
21
569.887566
31
0.0
0
LINE
8
VISIBLE
10
826.250680
20
552.856375
30
0.0
11
797.306371
21
569.567380
31
0.0
0
LINE
8
VISIBLE
10
797.306371
20
569.567380
30
0.0
11
796.918689
21
569.751071
31
0.0
0
LINE
8
VISIBLE
10
786.904510
20
554.161922
30
0.0
11
789.348524
21
553.071397
31
0.0
0
LINE
8
VISIBLE
10
789.348524
20
553.071397
30
0.0
11
792.357314
21
552.345244
31
0.0
0
LINE
8
VISIBLE
10
792.357314
20
552.345244
30
0.0
11
795.710107
21
552.108051
31
0.0
0
LINE
8
VISIBLE
10
795.710107
20
552.108051
30
0.0
11
799.083380
21
552.419414
31
0.0
0
LINE
8
VISIBLE
10
799.083380
20
552.419414
30
0.0
11
802.130854
21
553.244496
31
0.0
0
LINE
8
VISIBLE
10
802.130854
20
553.244496
30
0.0
11
804.581124
21
554.462568
31
0.0
0
LINE
8
VISIBLE
10
804.581124
20
554.462568
30
0.0
11
806.301599
21
555.911456
31
0.0
0
LINE
8
VISIBLE
10
806.301599
20
555.911456
30
0.0
11
807.296701
21
557.444788
31
0.0
0
LINE
8
VISIBLE
10
807.296701
20
557.444788
30
0.0
11
807.615756
21
558.600783
31
0.0
0
LINE
8
VISIBLE
10
783.378947
20
558.600783
30
0.0
11
783.850623
21
557.120705
31
0.0
0
LINE
8
VISIBLE
10
783.850623
20
557.120705
30
0.0
11
784.903384
21
555.685866
31
0.0
0
LINE
8
VISIBLE
10
784.903384
20
555.685866
30
0.0
11
786.904510
21
554.161922
31
0.0
0
LINE
8
VISIBLE
10
786.829985
20
542.875140
30
0.0
11
786.387682
21
543.011634
31
0.0
0
LINE
8
VISIBLE
10
787.309912
20
542.791087
30
0.0
11
786.829985
21
542.875140
31
0.0
0
LINE
8
VISIBLE
10
786.387682
20
543.011634
30
0.0
11
786.000000
21
543.195326
31
0.0
0
LINE
8
VISIBLE
10
787.809019
20
542.762705
30
0.0
11
787.309912
21
542.791087
31
0.0
0
LINE
8
VISIBLE
10
786.000000
20
543.195326
30
0.0
11
778.763923
21
547.373077
31
0.0
0
LINE
8
VISIBLE
10
788.308127
20
542.791087
30
0.0
11
787.809019
21
542.762705
31
0.0
0
LINE
8
VISIBLE
10
778.763923
20
547.373077
30
0.0
11
778.445760
21
547.596905
31
0.0
0
LINE
8
VISIBLE
10
788.788054
20
542.875140
30
0.0
11
788.308127
21
542.791087
31
0.0
0
LINE
8
VISIBLE
10
778.445760
20
547.596905
30
0.0
11
778.209344
21
547.852269
31
0.0
0
LINE
8
VISIBLE
10
789.230357
20
543.011634
30
0.0
11
788.788054
21
542.875140
31
0.0
0
LINE
8
VISIBLE
10
778.209344
20
547.852269
30
0.0
11
778.186738
21
547.895296
31
0.0
0
LINE
8
VISIBLE
10
789.618039
20
543.195326
30
0.0
11
789.230357
21
543.011634
31
0.0
0
LINE
8
VISIBLE
10
791.427058
20
544.239763
30
0.0
11
789.618039
21
543.195326
31
0.0
0
LINE
8
VISIBLE
10
791.745220
20
544.463592
30
0.0
11
791.427058
21
544.239763
31
0.0
0
LINE
8
VISIBLE
10
791.981636
20
544.718956
30
0.0
11
791.745220
21
544.463592
31
0.0
0
LINE
8
VISIBLE
10
792.004243
20
544.761982
30
0.0
11
791.981636
21
544.718956
31
0.0
0
LINE
8
VISIBLE
10
755.246672
20
535.884261
30
0.0
11
757.690686
21
534.793735
31
0.0
0
LINE
8
VISIBLE
10
757.690686
20
534.793735
30
0.0
11
760.699476
21
534.067582
31
0.0
0
LINE
8
VISIBLE
10
760.699476
20
534.067582
30
0.0
11
764.052269
21
533.830390
31
0.0
0
LINE
8
VISIBLE
10
764.052269
20
533.830390
30
0.0
11
767.425542
21
534.141753
31
0.0
0
LINE
8
VISIBLE
10
767.425542
20
534.141753
30
0.0
11
770.473016
21
534.966834
31
0.0
0
LINE
8
VISIBLE
10
770.473016
20
534.966834
30
0.0
11
772.923286
21
536.184907
31
0.0
0
LINE
8
VISIBLE
10
772.923286
20
536.184907
30
0.0
11
774.643761
21
537.633794
31
0.0
0
LINE
8
VISIBLE
10
774.643761
20
537.633794
30
0.0
11
775.638863
21
539.167126
31
0.0
0
LINE
8
VISIBLE
10
775.638863
20
539.167126
30
0.0
11
775.957918
21
540.323122
31
0.0
0
LINE
8
VISIBLE
10
751.721109
20
540.323122
30
0.0
11
752.192785
21
538.843044
31
0.0
0
LINE
8
VISIBLE
10
752.192785
20
538.843044
30
0.0
11
753.245546
21
537.408205
31
0.0
0
LINE
8
VISIBLE
10
753.245546
20
537.408205
30
0.0
11
755.246672
21
535.884261
31
0.0
0
LINE
8
VISIBLE
10
822.044710
20
550.950276
30
0.0
11
823.007179
21
550.702706
31
0.0
0
LINE
8
VISIBLE
10
823.007179
20
550.702706
30
0.0
11
824.244998
21
551.028609
31
0.0
0
LINE
8
VISIBLE
10
821.924794
20
551.028609
30
0.0
11
822.044710
21
550.950276
31
0.0
0
LINE
8
VISIBLE
10
807.572555
20
542.594774
30
0.0
11
808.535025
21
542.347203
31
0.0
0
LINE
8
VISIBLE
10
808.535025
20
542.347203
30
0.0
11
809.772843
21
542.673107
31
0.0
0
LINE
8
VISIBLE
10
807.452639
20
542.673107
30
0.0
11
807.572555
21
542.594774
31
0.0
0
LINE
8
VISIBLE
10
790.386872
20
532.672615
30
0.0
11
791.349341
21
532.425044
31
0.0
0
LINE
8
VISIBLE
10
791.349341
20
532.425044
30
0.0
11
792.587160
21
532.750948
31
0.0
0
LINE
8
VISIBLE
10
790.266956
20
532.750948
30
0.0
11
790.386872
21
532.672615
31
0.0
0
LINE
8
VISIBLE
10
775.914717
20
524.317113
30
0.0
11
776.877187
21
524.069542
31
0.0
0
LINE
8
VISIBLE
10
776.877187
20
524.069542
30
0.0
11
778.115005
21
524.395445
31
0.0
0
LINE
8
VISIBLE
10
775.794801
20
524.395445
30
0.0
11
775.914717
21
524.317113
31
0.0
0
LINE
8
VISIBLE
10
745.000000
20
539.800903
30
0.0
11
745.000000
21
540.845341
31
0.0
0
LINE
8
VISIBLE
10
745.049158
20
540.089063
30
0.0
11
745.049158
21
541.133500
31
0.0
0
LINE
8
VISIBLE
10
745.194742
20
540.366148
30
0.0
11
745.194742
21
541.410586
31
0.0
0
LINE
8
VISIBLE
10
745.431158
20
540.621512
30
0.0
11
745.431158
21
541.665950
31
0.0
0
LINE
8
VISIBLE
10
745.749320
20
540.845341
30
0.0
11
745.749320
21
541.889778
31
0.0
0
LINE
8
VISIBLE
10
793.688332
20
568.522942
30
0.0
11
793.688332
21
569.567380
31
0.0
0
LINE
8
VISIBLE
10
794.076014
20
568.706633
30
0.0
11
794.076014
21
569.751071
31
0.0
0
LINE
8
VISIBLE
10
794.518317
20
568.843128
30
0.0
11
794.518317
21
569.887566
31
0.0
0
LINE
8
VISIBLE
10
827.000000
20
550.767500
30
0.0
11
827.000000
21
551.811937
31
0.0
0
LINE
8
VISIBLE
10
794.998244
20
568.927181
30
0.0
11
794.998244
21
569.971619
31
0.0
0
LINE
8
VISIBLE
10
826.950842
20
551.055659
30
0.0
11
826.950842
21
552.100097
31
0.0
0
LINE
8
VISIBLE
10
795.497351
20
568.955562
30
0.0
11
795.497351
21
570.000000
31
0.0
0
LINE
8
VISIBLE
10
826.805258
20
551.332745
30
0.0
11
826.805258
21
552.377183
31
0.0
0
LINE
8
VISIBLE
10
795.996459
20
568.927181
30
0.0
11
795.996459
21
569.971619
31
0.0
0
LINE
8
VISIBLE
10
826.568842
20
551.588109
30
0.0
11
826.568842
21
552.632547
31
0.0
0
LINE
8
VISIBLE
10
796.476386
20
568.843128
30
0.0
11
796.476386
21
569.887566
31
0.0
0
LINE
8
VISIBLE
10
826.250680
20
551.811937
30
0.0
11
826.250680
21
552.856375
31
0.0
0
LINE
8
VISIBLE
10
796.918689
20
568.706633
30
0.0
11
796.918689
21
569.751071
31
0.0
0
LINE
8
VISIBLE
10
797.306371
20
568.522942
30
0.0
11
797.306371
21
569.567380
31
0.0
0
LINE
8
VISIBLE
10
786.829985
20
541.830702
30
0.0
11
786.829985
21
542.875140
31
0.0
0
LINE
8
VISIBLE
10
786.387682
20
541.967197
30
0.0
11
786.387682
21
543.011634
31
0.0
0
LINE
8
VISIBLE
10
787.309912
20
541.746649
30
0.0
11
787.309912
21
542.791087
31
0.0
0
LINE
8
VISIBLE
10
787.809019
20
541.718268
30
0.0
11
787.809019
21
542.762705
31
0.0
0
LINE
8
VISIBLE
10
788.308127
20
541.746649
30
0.0
11
788.308127
21
542.791087
31
0.0
0
LINE
8
VISIBLE
10
788.788054
20
541.830702
30
0.0
11
788.788054
21
542.875140
31
0.0
0
LINE
8
VISIBLE
10
789.230357
20
541.967197
30
0.0
11
789.230357
21
543.011634
31
0.0
0
LINE
8
VISIBLE
10
789.618039
20
542.150888
30
0.0
11
789.618039
21
543.195326
31
0.0
0
LINE
8
VISIBLE
10
791.427058
20
543.195326
30
0.0
11
791.427058
21
544.239763
31
0.0
0
LINE
8
VISIBLE
10
791.745220
20
543.419154
30
0.0
11
791.745220
21
544.463592
31
0.0
0
LINE
8
VISIBLE
10
791.981636
20
543.674518
30
0.0
11
791.981636
21
544.718956
31
0.0
0
LINE
8
VISIBLE
10
792.127220
20
543.951604
30
0.0
11
792.127220
21
544.527923
31
0.0
0
LINE
8
VISIBLE
10
778.063760
20
547.084917
30
0.0
11
778.063760
21
547.661236
31
0.0
0
LINE
8
VISIBLE
10
778.209344
20
546.807831
30
0.0
11
778.209344
21
547.852269
31
0.0
0
LINE
8
VISIBLE
10
778.445760
20
546.552467
30
0.0
11
778.445760
21
547.596905
31
0.0
0
LINE
8
VISIBLE
10
778.763923
20
546.328639
30
0.0
11
778.763923
21
547.373077
31
0.0
0
LINE
8
VISIBLE
10
786.000000
20
542.150888
30
0.0
11
786.000000
21
543.195326
31
0.0
0
LINE
8
VISIBLE
10
786.904510
20
553.117485
30
0.0
11
786.904510
21
554.161922
31
0.0
0
LINE
8
VISIBLE
10
755.246672
20
534.839823
30
0.0
11
755.246672
21
535.884261
31
0.0
0
LINE
8
VISIBLE
10
822.044710
20
549.905838
30
0.0
11
822.044710
21
550.950276
31
0.0
0
LINE
8
VISIBLE
10
807.572555
20
541.550336
30
0.0
11
807.572555
21
542.594774
31
0.0
0
LINE
8
VISIBLE
10
790.386872
20
531.628177
30
0.0
11
790.386872
21
532.672615
31
0.0
0
LINE
8
VISIBLE
10
775.914717
20
523.272675
30
0.0
11
775.914717
21
524.317113
31
0.0
0
LINE
8
CENTER
10
79.150000
20
411.000000
30
0.0
11
85.300000
21
411.000000
31
0.0
0
LINE
8
CENTER
10
87.700000
20
411.000000
30
0.0
11
93.850000
21
411.000000
31
0.0
0
LINE
8
CENTER
10
86.500000
20
403.650000
30
0.0
11
86.500000
21
409.800000
31
0.0
0
LINE
8
CENTER
10
86.500000
20
412.200000
30
0.0
11
86.500000
21
418.350000
31
0.0
0
LINE
8
CENTER
10
159.150000
20
411.000000
30
0.0
11
165.300000
21
411.000000
31
0.0
0
LINE
8
CENTER
10
167.700000
20
411.000000
30
0.0
11
173.850000
21
411.000000
31
0.0
0
LINE
8
CENTER
10
166.500000
20
403.650000
30
0.0
11
166.500000
21
409.800000
31
0.0
0
LINE
8
CENTER
10
166.500000
20
412.200000
30
0.0
11
166.500000
21
418.350000
31
0.0
0
LINE
8
CENTER
10
254.150000
20
411.000000
30
0.0
11
260.300000
21
411.000000
31
0.0
0
LINE
8
CENTER
10
262.700000
20
411.000000
30
0.0
11
268.850000
21
411.000000
31
0.0
0
LINE
8
CENTER
10
261.500000
20
403.650000
30
0.0
11
261.500000
21
409.800000
31
0.0
0
LINE
8
CENTER
10
261.500000
20
412.200000
30
0.0
11
261.500000
21
418.350000
31
0.0
0
LINE
8
CENTER
10
334.150000
20
411.000000
30
0.0
11
340.300000
21
411.000000
31
0.0
0
LINE
8
CENTER
10
342.700000
20
411.000000
30
0.0
11
348.850000
21
411.000000
31
0.0
0
LINE
8
CENTER
10
341.500000
20
403.650000
30
0.0
11
341.500000
21
409.800000
31
0.0
0
LINE
8
CENTER
10
341.500000
20
412.200000
30
0.0
11
341.500000
21
418.350000
31
0.0
0
LINE
8
CENTER
10
77.400000
20
298.500000
30
0.0
11
125.300000
21
298.500000
31
0.0
0
LINE
8
CENTER
10
127.700000
20
298.500000
30
0.0
11
175.600000
21
298.500000
31
0.0
0
LINE
8
CENTER
10
126.500000
20
249.400000
30
0.0
11
126.500000
21
297.300000
31
0.0
0
LINE
8
CENTER
10
126.500000
20
299.700000
30
0.0
11
126.500000
21
347.600000
31
0.0
0
LINE
8
CENTER
10
252.400000
20
298.500000
30
0.0
11
300.300000
21
298.500000
31
0.0
0
LINE
8
CENTER
10
302.700000
20
298.500000
30
0.0
11
350.600000
21
298.500000
31
0.0
0
LINE
8
CENTER
10
301.500000
20
249.400000
30
0.0
11
301.500000
21
297.300000
31
0.0
0
LINE
8
CENTER
10
301.500000
20
299.700000
30
0.0
11
301.500000
21
347.600000
31
0.0
0
LINE
8
DIM
10
71.500000
20
242.300000
30
0.0
11
71.500000
21
220.500000
31
0.0
0
LINE
8
DIM
10
356.500000
20
242.300000
30
0.0
11
356.500000
21
220.500000
31
0.0
0
LINE
8
DIM
10
71.500000
20
222.500000
30
0.0
11
356.500000
21
222.500000
31
0.0
0
SOLID
8
DIM
10
71.500000
20
222.500000
30
0.0
11
74.700000
21
221.892000
31
0.0
12
74.700000
22
223.108000
32
0.0
13
74.700000
23
223.108000
33
0.0
0
SOLID
8
DIM
10
356.500000
20
222.500000
30
0.0
11
353.300000
21
223.108000
31
0.0
12
353.300000
22
221.892000
32
0.0
13
353.300000
23
221.892000
33
0.0
0
TEXT
8
TEXT
10
214.000000
20
223.500000
30
0.0
40
2.5000
1
57.00
72
1
73
0
11
214.000000
21
223.500000
31
0.0
0
LINE
8
DIM
10
70.300000
20
243.500000
30
0.0
11
48.500000
21
243.500000
31
0.0
0
LINE
8
DIM
10
70.300000
20
423.500000
30
0.0
11
48.500000
21
423.500000
31
0.0
0
LINE
8
DIM
10
50.500000
20
243.500000
30
0.0
11
50.500000
21
423.500000
31
0.0
0
SOLID
8
DIM
10
50.500000
20
243.500000
30
0.0
11
51.108000
21
246.700000
31
0.0
12
49.892000
22
246.700000
32
0.0
13
49.892000
23
246.700000
33
0.0
0
SOLID
8
DIM
10
50.500000
20
423.500000
30
0.0
11
49.892000
21
420.300000
31
0.0
12
51.108000
22
420.300000
32
0.0
13
51.108000
23
420.300000
33
0.0
0
TEXT
8
TEXT
10
49.500000
20
333.500000
30
0.0
40
2.5000
1
36.00
50
90.0000
72
1
73
0
11
49.500000
21
333.500000
31
0.0
0
SOLID
8
DIM
10
90.040053
20
415.531062
30
0.0
11
92.489281
21
417.678374
31
0.0
12
91.531060
22
418.427018
32
0.0
13
91.531060
23
418.427018
33
0.0
0
LINE
8
DIM
10
90.040053
20
415.531062
30
0.0
11
109.547926
21
440.500000
31
0.0
0
LINE
8
DIM
10
109.547926
20
440.500000
30
0.0
11
114.547926
21
440.500000
31
0.0
0
TEXT
8
TEXT
10
115.347926
20
441.500000
30
0.0
40
2.5000
1
4x Ø2.30 THRU
0
SOLID
8
DIM
10
155.743920
20
335.930511
30
0.0
11
158.193147
21
338.077823
31
0.0
12
157.234926
22
338.826467
32
0.0
13
157.234926
23
338.826467
33
0.0
0
LINE
8
DIM
10
155.743920
20
335.930511
30
0.0
11
242.227933
21
446.625000
31
0.0
0
LINE
8
DIM
10
242.227933
20
446.625000
30
0.0
11
247.227933
21
446.625000
31
0.0
0
TEXT
8
TEXT
10
248.027933
20
447.625000
30
0.0
40
2.5000
1
2x Ø19.00 THRU
0
SOLID
8
DIM
10
79.000000
20
298.500000
30
0.0
11
75.749825
21
298.285463
31
0.0
12
76.054995
22
297.108379
32
0.0
13
76.054995
23
297.108379
33
0.0
0
LINE
8
DIM
10
79.000000
20
298.500000
30
0.0
11
69.320031
21
295.990378
31
0.0
0
LINE
8
DIM
10
69.320031
20
295.990378
30
0.0
11
66.320031
21
295.990378
31
0.0
0
TEXT
8
TEXT
10
65.520031
20
296.990378
30
0.0
40
2.5000
1
R9.50
72
2
73
0
11
65.520031
21
296.990378
31
0.0
0
SOLID
8
DIM
10
80.750000
20
411.000000
30
0.0
11
78.289518
21
413.134407
31
0.0
12
77.678160
22
412.083266
32
0.0
13
77.678160
23
412.083266
33
0.0
0
LINE
8
DIM
10
80.750000
20
411.000000
30
0.0
11
72.105748
21
416.027614
31
0.0
0
LINE
8
DIM
10
72.105748
20
416.027614
30
0.0
11
69.105748
21
416.027614
31
0.0
0
TEXT
8
TEXT
10
68.305748
20
417.027614
30
0.0
40
2.5000
1
R1.15
72
2
73
0
11
68.305748
21
417.027614
31
0.0
0
SOLID
8
DIM
10
82.002612
20
261.000000
30
0.0
11
78.905136
21
259.992375
31
0.0
12
79.490538
22
258.926561
32
0.0
13
79.490538
23
258.926561
33
0.0
0
LINE
8
DIM
10
82.002612
20
261.000000
30
0.0
11
73.237691
21
256.185838
31
0.0
0
LINE
8
DIM
10
73.237691
20
256.185838
30
0.0
11
70.237691
21
256.185838
31
0.0
0
TEXT
8
TEXT
10
69.437691
20
257.185838
30
0.0
40
2.5000
1
R0.90
72
2
73
0
11
69.437691
21
257.185838
31
0.0
0
SOLID
8
DIM
10
82.525000
20
261.000000
30
0.0
11
79.291234
21
261.390416
31
0.0
12
79.373389
22
260.177194
32
0.0
13
79.373389
23
260.177194
33
0.0
0
LINE
8
DIM
10
82.525000
20
261.000000
30
0.0
11
72.547849
21
260.324391
31
0.0
0
LINE
8
DIM
10
72.547849
20
260.324391
30
0.0
11
69.547849
21
260.324391
31
0.0
0
TEXT
8
TEXT
10
68.747849
20
261.324391
30
0.0
40
2.5000
1
R0.80
72
2
73
0
11
68.747849
21
261.324391
31
0.0
0
LINE
8
DIM
10
301.500000
20
297.300000
30
0.0
11
301.500000
21
213.500000
31
0.0
0
LINE
8
DIM
10
126.500000
20
297.300000
30
0.0
11
126.500000
21
213.500000
31
0.0
0
LINE
8
DIM
10
126.500000
20
215.500000
30
0.0
11
301.500000
21
215.500000
31
0.0
0
SOLID
8
DIM
10
126.500000
20
215.500000
30
0.0
11
129.700000
21
214.892000
31
0.0
12
129.700000
22
216.108000
32
0.0
13
129.700000
23
216.108000
33
0.0
0
SOLID
8
DIM
10
301.500000
20
215.500000
30
0.0
11
298.300000
21
216.108000
31
0.0
12
298.300000
22
214.892000
32
0.0
13
298.300000
23
214.892000
33
0.0
0
TEXT
8
TEXT
10
214.000000
20
216.500000
30
0.0
40
2.5000
1
35.00
72
1
73
0
11
214.000000
21
216.500000
31
0.0
0
TEXT
8
TEXT
10
214.000000
20
203.500000
30
0.0
40
4.0000
1
TOP VIEW
72
1
73
0
11
214.000000
21
203.500000
31
0.0
0
LINE
8
TEXT
10
204.400000
20
201.900000
30
0.0
11
223.600000
21
201.900000
31
0.0
0
TEXT
8
TEXT
10
214.000000
20
197.500000
30
0.0
40
2.4000
1
X →   Y ↑
72
1
73
0
11
214.000000
21
197.500000
31
0.0
0
LINE
8
DIM
10
71.500000
20
169.300000
30
0.0
11
71.500000
21
156.500000
31
0.0
0
LINE
8
DIM
10
356.500000
20
169.300000
30
0.0
11
356.500000
21
156.500000
31
0.0
0
LINE
8
DIM
10
71.500000
20
158.500000
30
0.0
11
356.500000
21
158.500000
31
0.0
0
SOLID
8
DIM
10
71.500000
20
158.500000
30
0.0
11
74.700000
21
157.892000
31
0.0
12
74.700000
22
159.108000
32
0.0
13
74.700000
23
159.108000
33
0.0
0
SOLID
8
DIM
10
356.500000
20
158.500000
30
0.0
11
353.300000
21
159.108000
31
0.0
12
353.300000
22
157.892000
32
0.0
13
353.300000
23
157.892000
33
0.0
0
TEXT
8
TEXT
10
214.000000
20
159.500000
30
0.0
40
2.5000
1
57.00
72
1
73
0
11
214.000000
21
159.500000
31
0.0
0
LINE
8
DIM
10
70.300000
20
170.500000
30
0.0
11
57.500000
21
170.500000
31
0.0
0
LINE
8
DIM
10
70.300000
20
185.500000
30
0.0
11
57.500000
21
185.500000
31
0.0
0
LINE
8
DIM
10
59.500000
20
170.500000
30
0.0
11
59.500000
21
185.500000
31
0.0
0
SOLID
8
DIM
10
59.500000
20
170.500000
30
0.0
11
60.108000
21
173.700000
31
0.0
12
58.892000
22
173.700000
32
0.0
13
58.892000
23
173.700000
33
0.0
0
SOLID
8
DIM
10
59.500000
20
185.500000
30
0.0
11
58.892000
21
182.300000
31
0.0
12
60.108000
22
182.300000
32
0.0
13
60.108000
23
182.300000
33
0.0
0
TEXT
8
TEXT
10
58.500000
20
178.000000
30
0.0
40
2.5000
1
3.00
50
90.0000
72
1
73
0
11
58.500000
21
178.000000
31
0.0
0
TEXT
8
TEXT
10
214.000000
20
146.500000
30
0.0
40
4.0000
1
FRONT VIEW
72
1
73
0
11
214.000000
21
146.500000
31
0.0
0
LINE
8
TEXT
10
202.000000
20
144.900000
30
0.0
11
226.000000
21
144.900000
31
0.0
0
TEXT
8
TEXT
10
214.000000
20
140.500000
30
0.0
40
2.4000
1
-X →   Z ↑
72
1
73
0
11
214.000000
21
140.500000
31
0.0
0
LINE
8
DIM
10
394.500000
20
324.800000
30
0.0
11
394.500000
21
312.000000
31
0.0
0
LINE
8
DIM
10
679.500000
20
324.800000
30
0.0
11
679.500000
21
312.000000
31
0.0
0
LINE
8
DIM
10
394.500000
20
314.000000
30
0.0
11
679.500000
21
314.000000
31
0.0
0
SOLID
8
DIM
10
394.500000
20
314.000000
30
0.0
11
397.700000
21
313.392000
31
0.0
12
397.700000
22
314.608000
32
0.0
13
397.700000
23
314.608000
33
0.0
0
SOLID
8
DIM
10
679.500000
20
314.000000
30
0.0
11
676.300000
21
314.608000
31
0.0
12
676.300000
22
313.392000
32
0.0
13
676.300000
23
313.392000
33
0.0
0
TEXT
8
TEXT
10
537.000000
20
315.000000
30
0.0
40
2.5000
1
57.00
72
1
73
0
11
537.000000
21
315.000000
31
0.0
0
LINE
8
DIM
10
393.300000
20
326.000000
30
0.0
11
380.500000
21
326.000000
31
0.0
0
LINE
8
DIM
10
393.300000
20
341.000000
30
0.0
11
380.500000
21
341.000000
31
0.0
0
LINE
8
DIM
10
382.500000
20
326.000000
30
0.0
11
382.500000
21
341.000000
31
0.0
0
SOLID
8
DIM
10
382.500000
20
326.000000
30
0.0
11
383.108000
21
329.200000
31
0.0
12
381.892000
22
329.200000
32
0.0
13
381.892000
23
329.200000
33
0.0
0
SOLID
8
DIM
10
382.500000
20
341.000000
30
0.0
11
381.892000
21
337.800000
31
0.0
12
383.108000
22
337.800000
32
0.0
13
383.108000
23
337.800000
33
0.0
0
TEXT
8
TEXT
10
381.500000
20
333.500000
30
0.0
40
2.5000
1
3.00
50
90.0000
72
1
73
0
11
381.500000
21
333.500000
31
0.0
0
LINE
8
HATCH
10
403.749993
20
326.000000
30
0.0
11
403.750000
21
326.000007
31
0.0
0
LINE
8
HATCH
10
399.507352
20
326.000000
30
0.0
11
403.750000
21
330.242648
31
0.0
0
LINE
8
HATCH
10
395.264712
20
326.000000
30
0.0
11
400.264712
21
331.000000
31
0.0
0
LINE
8
HATCH
10
394.500000
20
329.477929
30
0.0
11
396.022071
21
331.000000
31
0.0
0
LINE
8
HATCH
10
679.499993
20
326.000000
30
0.0
11
679.500000
21
326.000007
31
0.0
0
LINE
8
HATCH
10
675.257352
20
326.000000
30
0.0
11
679.500000
21
330.242648
31
0.0
0
LINE
8
HATCH
10
671.014712
20
326.000000
30
0.0
11
676.014712
21
331.000000
31
0.0
0
LINE
8
HATCH
10
670.250000
20
329.477929
30
0.0
11
671.772071
21
331.000000
31
0.0
0
LINE
8
HATCH
10
658.749993
20
326.000000
30
0.0
11
658.750000
21
326.000007
31
0.0
0
LINE
8
HATCH
10
654.507352
20
326.000000
30
0.0
11
658.750000
21
330.242648
31
0.0
0
LINE
8
HATCH
10
650.264712
20
326.000000
30
0.0
11
655.264712
21
331.000000
31
0.0
0
LINE
8
HATCH
10
646.022071
20
326.000000
30
0.0
11
651.022071
21
331.000000
31
0.0
0
LINE
8
HATCH
10
641.779430
20
326.000000
30
0.0
11
646.779430
21
331.000000
31
0.0
0
LINE
8
HATCH
10
637.536789
20
326.000000
30
0.0
11
642.536789
21
331.000000
31
0.0
0
LINE
8
HATCH
10
633.294149
20
326.000000
30
0.0
11
638.294149
21
331.000000
31
0.0
0
LINE
8
HATCH
10
629.051508
20
326.000000
30
0.0
11
634.051508
21
331.000000
31
0.0
0
LINE
8
HATCH
10
624.808867
20
326.000000
30
0.0
11
629.808867
21
331.000000
31
0.0
0
LINE
8
HATCH
10
620.566227
20
326.000000
30
0.0
11
625.566227
21
331.000000
31
0.0
0
LINE
8
HATCH
10
616.323586
20
326.000000
30
0.0
11
621.323586
21
331.000000
31
0.0
0
LINE
8
HATCH
10
612.080945
20
326.000000
30
0.0
11
617.080945
21
331.000000
31
0.0
0
LINE
8
HATCH
10
607.838305
20
326.000000
30
0.0
11
612.838305
21
331.000000
31
0.0
0
LINE
8
HATCH
10
603.595664
20
326.000000
30
0.0
11
608.595664
21
331.000000
31
0.0
0
LINE
8
HATCH
10
599.353023
20
326.000000
30
0.0
11
604.353023
21
331.000000
31
0.0
0
LINE
8
HATCH
10
595.110383
20
326.000000
30
0.0
11
600.110383
21
331.000000
31
0.0
0
LINE
8
HATCH
10
590.867742
20
326.000000
30
0.0
11
595.867742
21
331.000000
31
0.0
0
LINE
8
HATCH
10
590.250000
20
329.624899
30
0.0
11
591.625101
21
331.000000
31
0.0
0
LINE
8
HATCH
10
578.749993
20
326.000000
30
0.0
11
578.750000
21
326.000007
31
0.0
0
LINE
8
HATCH
10
574.507352
20
326.000000
30
0.0
11
578.750000
21
330.242648
31
0.0
0
LINE
8
HATCH
10
570.264712
20
326.000000
30
0.0
11
575.264712
21
331.000000
31
0.0
0
LINE
8
HATCH
10
566.022071
20
326.000000
30
0.0
11
571.022071
21
331.000000
31
0.0
0
LINE
8
HATCH
10
561.779430
20
326.000000
30
0.0
11
566.779430
21
331.000000
31
0.0
0
LINE
8
HATCH
10
557.536789
20
326.000000
30
0.0
11
562.536789
21
331.000000
31
0.0
0
LINE
8
HATCH
10
553.294149
20
326.000000
30
0.0
11
558.294149
21
331.000000
31
0.0
0
LINE
8
HATCH
10
549.051508
20
326.000000
30
0.0
11
554.051508
21
331.000000
31
0.0
0
LINE
8
HATCH
10
544.808867
20
326.000000
30
0.0
11
549.808867
21
331.000000
31
0.0
0
LINE
8
HATCH
10
540.566227
20
326.000000
30
0.0
11
545.566227
21
331.000000
31
0.0
0
LINE
8
HATCH
10
536.323586
20
326.000000
30
0.0
11
541.323586
21
331.000000
31
0.0
0
LINE
8
HATCH
10
532.080945
20
326.000000
30
0.0
11
537.080945
21
331.000000
31
0.0
0
LINE
8
HATCH
10
527.838305
20
326.000000
30
0.0
11
532.838305
21
331.000000
31
0.0
0
LINE
8
HATCH
10
523.595664
20
326.000000
30
0.0
11
528.595664
21
331.000000
31
0.0
0
LINE
8
HATCH
10
519.353023
20
326.000000
30
0.0
11
524.353023
21
331.000000
31
0.0
0
LINE
8
HATCH
10
515.110383
20
326.000000
30
0.0
11
520.110383
21
331.000000
31
0.0
0
LINE
8
HATCH
10
510.867742
20
326.000000
30
0.0
11
515.867742
21
331.000000
31
0.0
0
LINE
8
HATCH
10
506.625101
20
326.000000
30
0.0
11
511.625101
21
331.000000
31
0.0
0
LINE
8
HATCH
10
502.382461
20
326.000000
30
0.0
11
507.382461
21
331.000000
31
0.0
0
LINE
8
HATCH
10
498.139820
20
326.000000
30
0.0
11
503.139820
21
331.000000
31
0.0
0
LINE
8
HATCH
10
495.250000
20
327.352821
30
0.0
11
498.897179
21
331.000000
31
0.0
0
LINE
8
HATCH
10
483.749993
20
326.000000
30
0.0
11
483.750000
21
326.000007
31
0.0
0
LINE
8
HATCH
10
479.507352
20
326.000000
30
0.0
11
483.750000
21
330.242648
31
0.0
0
LINE
8
HATCH
10
475.264712
20
326.000000
30
0.0
11
480.264712
21
331.000000
31
0.0
0
LINE
8
HATCH
10
471.022071
20
326.000000
30
0.0
11
476.022071
21
331.000000
31
0.0
0
LINE
8
HATCH
10
466.779430
20
326.000000
30
0.0
11
471.779430
21
331.000000
31
0.0
0
LINE
8
HATCH
10
462.536789
20
326.000000
30
0.0
11
467.536789
21
331.000000
31
0.0
0
LINE
8
HATCH
10
458.294149
20
326.000000
30
0.0
11
463.294149
21
331.000000
31
0.0
0
LINE
8
HATCH
10
454.051508
20
326.000000
30
0.0
11
459.051508
21
331.000000
31
0.0
0
LINE
8
HATCH
10
449.808867
20
326.000000
30
0.0
11
454.808867
21
331.000000
31
0.0
0
LINE
8
HATCH
10
445.566227
20
326.000000
30
0.0
11
450.566227
21
331.000000
31
0.0
0
LINE
8
HATCH
10
441.323586
20
326.000000
30
0.0
11
446.323586
21
331.000000
31
0.0
0
LINE
8
HATCH
10
437.080945
20
326.000000
30
0.0
11
442.080945
21
331.000000
31
0.0
0
LINE
8
HATCH
10
432.838305
20
326.000000
30
0.0
11
437.838305
21
331.000000
31
0.0
0
LINE
8
HATCH
10
428.595664
20
326.000000
30
0.0
11
433.595664
21
331.000000
31
0.0
0
LINE
8
HATCH
10
424.353023
20
326.000000
30
0.0
11
429.353023
21
331.000000
31
0.0
0
LINE
8
HATCH
10
420.110383
20
326.000000
30
0.0
11
425.110383
21
331.000000
31
0.0
0
LINE
8
HATCH
10
415.867742
20
326.000000
30
0.0
11
420.867742
21
331.000000
31
0.0
0
LINE
8
HATCH
10
415.250000
20
329.624899
30
0.0
11
416.625101
21
331.000000
31
0.0
0
LINE
8
DIM
10
678.324995
20
326.000000
30
0.0
11
690.500000
21
326.000000
31
0.0
0
LINE
8
DIM
10
678.324995
20
331.000000
30
0.0
11
690.500000
21
331.000000
31
0.0
0
LINE
8
DIM
10
688.500000
20
326.000000
30
0.0
11
688.500000
21
331.000000
31
0.0
0
SOLID
8
DIM
10
688.500000
20
326.000000
30
0.0
11
687.892000
21
322.800000
31
0.0
12
689.108000
22
322.800000
32
0.0
13
689.108000
23
322.800000
33
0.0
0
SOLID
8
DIM
10
688.500000
20
331.000000
30
0.0
11
689.108000
21
334.200000
31
0.0
12
687.892000
22
334.200000
32
0.0
13
687.892000
23
334.200000
33
0.0
0
LINE
8
DIM
10
688.500000
20
331.000000
30
0.0
11
688.500000
21
340.600000
31
0.0
0
TEXT
8
TEXT
10
687.500000
20
341.400000
30
0.0
40
2.5000
1
1.00 WALL
50
90.0000
0
LINE
8
DIM
10
394.500000
20
327.241672
30
0.0
11
394.500000
21
350.000000
31
0.0
0
LINE
8
DIM
10
403.750000
20
327.241672
30
0.0
11
403.750000
21
350.000000
31
0.0
0
LINE
8
DIM
10
394.500000
20
348.000000
30
0.0
11
403.750000
21
348.000000
31
0.0
0
SOLID
8
DIM
10
394.500000
20
348.000000
30
0.0
11
391.300000
21
348.608000
31
0.0
12
391.300000
22
347.392000
32
0.0
13
391.300000
23
347.392000
33
0.0
0
SOLID
8
DIM
10
403.750000
20
348.000000
30
0.0
11
406.950000
21
347.392000
31
0.0
12
406.950000
22
348.608000
32
0.0
13
406.950000
23
348.608000
33
0.0
0
LINE
8
DIM
10
403.750000
20
348.000000
30
0.0
11
413.350000
21
348.000000
31
0.0
0
TEXT
8
TEXT
10
414.150000
20
348.400000
30
0.0
40
2.5000
1
1.85 WALL
0
TEXT
8
TEXT
10
537.000000
20
302.000000
30
0.0
40
4.0000
1
SECTION A-A
72
1
73
0
11
537.000000
21
302.000000
31
0.0
0
LINE
8
TEXT
10
523.800000
20
300.400000
30
0.0
11
550.200000
21
300.400000
31
0.0
0
TEXT
8
TEXT
10
786.000000
20
515.612840
30
0.0
40
4.0000
1
ISOMETRIC VIEW
72
1
73
0
11
786.000000
21
515.612840
31
0.0
0
LINE
8
TEXT
10
769.200000
20
514.012840
30
0.0
11
802.800000
21
514.012840
31
0.0
0
TEXT
8
TEXT
10
786.000000
20
509.612840
30
0.0
40
2.6000
1
57.00 x 36.00 x 3.00 mm
72
1
73
0
11
786.000000
21
509.612840
31
0.0
0
LINE
8
CUT
10
62.500000
20
411.000000
30
0.0
11
76.500000
21
411.000000
31
0.0
0
LINE
8
CUTTHIN
10
76.500000
20
411.000000
30
0.0
11
351.500000
21
411.000000
31
0.0
0
LINE
8
CUT
10
351.500000
20
411.000000
30
0.0
11
365.500000
21
411.000000
31
0.0
0
LINE
8
CUT
10
62.500000
20
411.000000
30
0.0
11
62.500000
21
402.000000
31
0.0
0
SOLID
8
CUT
10
62.500000
20
402.000000
30
0.0
11
63.298000
21
406.200000
31
0.0
12
61.702000
22
406.200000
32
0.0
13
61.702000
23
406.200000
33
0.0
0
TEXT
8
TEXT
10
62.500000
20
425.000000
30
0.0
40
4.0000
1
A
72
1
73
2
11
62.500000
21
425.000000
31
0.0
0
LINE
8
CUT
10
365.500000
20
411.000000
30
0.0
11
365.500000
21
402.000000
31
0.0
0
SOLID
8
CUT
10
365.500000
20
402.000000
30
0.0
11
366.298000
21
406.200000
31
0.0
12
364.702000
22
406.200000
32
0.0
13
364.702000
23
406.200000
33
0.0
0
TEXT
8
TEXT
10
365.500000
20
416.000000
30
0.0
40
4.0000
1
A
72
1
73
2
11
365.500000
21
416.000000
31
0.0
0
LINE
8
VISIBLE
10
757.000000
20
455.790618
30
0.0
11
815.000000
21
455.790618
31
0.0
0
LINE
8
VISIBLE
10
815.000000
20
455.790618
30
0.0
11
815.000000
21
499.612840
31
0.0
0
LINE
8
VISIBLE
10
815.000000
20
499.612840
30
0.0
11
757.000000
21
499.612840
31
0.0
0
LINE
8
VISIBLE
10
757.000000
20
499.612840
30
0.0
11
757.000000
21
455.790618
31
0.0
0
LINE
8
TITLE
10
757.000000
20
455.790618
30
0.0
11
815.000000
21
455.790618
31
0.0
0
LINE
8
TITLE
10
815.000000
20
455.790618
30
0.0
11
815.000000
21
499.612840
31
0.0
0
LINE
8
TITLE
10
815.000000
20
499.612840
30
0.0
11
757.000000
21
499.612840
31
0.0
0
LINE
8
TITLE
10
757.000000
20
499.612840
30
0.0
11
757.000000
21
455.790618
31
0.0
0
TEXT
8
TEXT
10
786.000000
20
453.190618
30
0.0
40
2.0000
1
REFERENCE RENDER (ISO2) — rendered off this solid,
72
1
73
0
11
786.000000
21
453.190618
31
0.0
0
TEXT
8
TEXT
10
786.000000
20
450.590618
30
0.0
40
2.0000
1
900 x 680 px
72
1
73
0
11
786.000000
21
450.590618
31
0.0
0
TEXT
8
TEXT
10
743.000000
20
443.290618
30
0.0
40
3.0000
1
HOLE TABLE — 6 POSITIONS
0
LINE
8
TITLE
10
743.000000
20
440.790618
30
0.0
11
798.920000
21
440.790618
31
0.0
0
TEXT
8
TITLE
10
744.500000
20
438.320618
30
0.0
40
2.2000
1
TAG
0
TEXT
8
TITLE
10
751.460000
20
438.320618
30
0.0
40
2.2000
1
SIZE
0
TEXT
8
TITLE
10
768.980000
20
438.320618
30
0.0
40
2.2000
1
X
0
TEXT
8
TITLE
10
779.900000
20
438.320618
30
0.0
40
2.2000
1
Y
0
TEXT
8
TITLE
10
789.500000
20
438.320618
30
0.0
40
2.2000
1
C'BORE
0
LINE
8
TITLE
10
743.000000
20
436.720618
30
0.0
11
798.920000
21
436.720618
31
0.0
0
TEXT
8
TEXT
10
744.500000
20
434.250618
30
0.0
40
2.2000
1
A1
0
TEXT
8
TEXT
10
751.460000
20
434.250618
30
0.0
40
2.2000
1
Ø2.30 THRU
0
TEXT
8
TEXT
10
768.980000
20
434.250618
30
0.0
40
2.2000
1
-25.50
0
TEXT
8
TEXT
10
779.900000
20
434.250618
30
0.0
40
2.2000
1
20.50
0
TEXT
8
TEXT
10
789.500000
20
434.250618
30
0.0
40
2.2000
1
-
0
TEXT
8
TEXT
10
744.500000
20
430.180618
30
0.0
40
2.2000
1
A2
0
TEXT
8
TEXT
10
751.460000
20
430.180618
30
0.0
40
2.2000
1
Ø2.30 THRU
0
TEXT
8
TEXT
10
768.980000
20
430.180618
30
0.0
40
2.2000
1
-9.50
0
TEXT
8
TEXT
10
779.900000
20
430.180618
30
0.0
40
2.2000
1
20.50
0
TEXT
8
TEXT
10
789.500000
20
430.180618
30
0.0
40
2.2000
1
-
0
TEXT
8
TEXT
10
744.500000
20
426.110618
30
0.0
40
2.2000
1
A3
0
TEXT
8
TEXT
10
751.460000
20
426.110618
30
0.0
40
2.2000
1
Ø2.30 THRU
0
TEXT
8
TEXT
10
768.980000
20
426.110618
30
0.0
40
2.2000
1
9.50
0
TEXT
8
TEXT
10
779.900000
20
426.110618
30
0.0
40
2.2000
1
20.50
0
TEXT
8
TEXT
10
789.500000
20
426.110618
30
0.0
40
2.2000
1
-
0
TEXT
8
TEXT
10
744.500000
20
422.040618
30
0.0
40
2.2000
1
A4
0
TEXT
8
TEXT
10
751.460000
20
422.040618
30
0.0
40
2.2000
1
Ø2.30 THRU
0
TEXT
8
TEXT
10
768.980000
20
422.040618
30
0.0
40
2.2000
1
25.50
0
TEXT
8
TEXT
10
779.900000
20
422.040618
30
0.0
40
2.2000
1
20.50
0
TEXT
8
TEXT
10
789.500000
20
422.040618
30
0.0
40
2.2000
1
-
0
TEXT
8
TEXT
10
744.500000
20
417.970618
30
0.0
40
2.2000
1
A5
0
TEXT
8
TEXT
10
751.460000
20
417.970618
30
0.0
40
2.2000
1
Ø19.00 THRU
0
TEXT
8
TEXT
10
768.980000
20
417.970618
30
0.0
40
2.2000
1
-17.50
0
TEXT
8
TEXT
10
779.900000
20
417.970618
30
0.0
40
2.2000
1
-2.00
0
TEXT
8
TEXT
10
789.500000
20
417.970618
30
0.0
40
2.2000
1
-
0
TEXT
8
TEXT
10
744.500000
20
413.900618
30
0.0
40
2.2000
1
A6
0
TEXT
8
TEXT
10
751.460000
20
413.900618
30
0.0
40
2.2000
1
Ø19.00 THRU
0
TEXT
8
TEXT
10
768.980000
20
413.900618
30
0.0
40
2.2000
1
17.50
0
TEXT
8
TEXT
10
779.900000
20
413.900618
30
0.0
40
2.2000
1
-2.00
0
TEXT
8
TEXT
10
789.500000
20
413.900618
30
0.0
40
2.2000
1
-
0
LINE
8
TITLE
10
743.000000
20
412.300618
30
0.0
11
798.920000
21
412.300618
31
0.0
0
LINE
8
TITLE
10
749.960000
20
412.300618
30
0.0
11
749.960000
21
440.790618
31
0.0
0
LINE
8
TITLE
10
767.480000
20
412.300618
30
0.0
11
767.480000
21
440.790618
31
0.0
0
LINE
8
TITLE
10
778.400000
20
412.300618
30
0.0
11
778.400000
21
440.790618
31
0.0
0
LINE
8
TITLE
10
788.000000
20
412.300618
30
0.0
11
788.000000
21
440.790618
31
0.0
0
LINE
8
TITLE
10
798.920000
20
412.300618
30
0.0
11
798.920000
21
440.790618
31
0.0
0
LINE
8
TITLE
10
743.000000
20
412.300618
30
0.0
11
743.000000
21
440.790618
31
0.0
0
TEXT
8
TITLE
10
743.000000
20
408.300618
30
0.0
40
1.7585
1
every row measured off the solid; positions are model
0
TEXT
8
TITLE
10
743.000000
20
405.662882
30
0.0
40
1.7585
1
coordinates, mm. C'BORE side is the face it opens on.
0
TEXT
8
TEXT
10
743.000000
20
396.025146
30
0.0
40
3.0000
1
NOTES
0
TEXT
8
TEXT
10
743.000000
20
391.425146
30
0.0
40
2.4000
1
1. ALL DIMENSIONS IN mm AND DEGREES. EVERY DIMENSION AND
0
TEXT
8
TEXT
10
743.000000
20
387.705146
30
0.0
40
2.4000
1
   EVERY HOLE CALLOUT WAS MEASURED OFF THE SOLID.
0
TEXT
8
TEXT
10
743.000000
20
383.985146
30
0.0
40
2.4000
1
2. PROCESS: FDM.
0
TEXT
8
TEXT
10
743.000000
20
380.265146
30
0.0
40
2.4000
1
3. THINNEST WALL, WHOLE SOLID: 1.0000 mm, AT X=-27.402
0
TEXT
8
TEXT
10
743.000000
20
376.545146
30
0.0
40
2.4000
1
   Y=-6.099 Z=16.500 — MEASURED OVER THE WHOLE SOLID BY
0
TEXT
8
TEXT
10
743.000000
20
372.825146
30
0.0
40
2.4000
1
   RAY+EXACT AT 1.409 mm SAMPLE SPACING (A FEATURE
0
TEXT
8
TEXT
10
743.000000
20
369.105146
30
0.0
40
2.4000
1
   NARROWER THAN THAT CAN BE MISSED). A RAY MINIMUM AT AN
0
TEXT
8
TEXT
10
743.000000
20
365.385146
30
0.0
40
2.4000
1
   EDGE, A FILLET RUN-OUT OR A CHAMFER TIP IS A REAL
0
TEXT
8
TEXT
10
743.000000
20
361.665146
30
0.0
40
2.4000
1
   DISTANCE THROUGH MATERIAL AND IS NOT A PRINTABLE WALL.
0
TEXT
8
TEXT
10
743.000000
20
357.945146
30
0.0
40
2.4000
1
4. GENERAL TOLERANCE CANNOT DETERMINE — SEE PRINT / DFM
0
TEXT
8
TEXT
10
743.000000
20
354.225146
30
0.0
40
2.4000
1
   NOTES UNLESS STATED.
0
TEXT
8
TEXT
10
743.000000
20
350.505146
30
0.0
40
2.4000
1
5. SECTION A-A AT Y=20.50: THINNEST MATERIAL IN THIS PLANE
0
TEXT
8
TEXT
10
743.000000
20
346.785146
30
0.0
40
2.4000
1
   ONLY 1.00 mm, AT X=-28.02, Z=17.00 — A SCAN OF ONE CUT,
0
TEXT
8
TEXT
10
743.000000
20
343.065146
30
0.0
40
2.4000
1
   NOT THE PART MINIMUM.
0
TEXT
8
TEXT
10
743.000000
20
339.345146
30
0.0
40
2.4000
1
6. TOP VIEW: hidden lines KEPT: without them 36 of 690
0
TEXT
8
TEXT
10
743.000000
20
335.625146
30
0.0
40
2.4000
1
   edge samples have no ink within 0.35 mm (worst 2.342
0
TEXT
8
TEXT
10
743.000000
20
331.905146
30
0.0
40
2.4000
1
   mm) and the feature would be missing from the sheet.
0
TEXT
8
TEXT
10
743.000000
20
328.185146
30
0.0
40
2.4000
1
7. FRONT VIEW: hidden lines SUPPRESSED: all 658 edge
0
TEXT
8
TEXT
10
743.000000
20
324.465146
30
0.0
40
2.4000
1
   samples still land on drawn ink without them.
0
TEXT
8
TEXT
10
743.000000
20
316.745146
30
0.0
40
3.0000
1
PRINT / DFM
0
TEXT
8
TEXT
10
743.000000
20
312.145146
30
0.0
40
2.4000
1
1. ORIENTATION: laid flat (57 x 36 x 3 mm)
0
TEXT
8
TEXT
10
743.000000
20
308.425146
30
0.0
40
2.4000
1
2. THINNEST WALL: 1.00 mm (floor 0.80 mm = 2 perimeters @
0
TEXT
8
TEXT
10
743.000000
20
304.705146
30
0.0
40
2.4000
1
   0.4 mm nozzle)
0
TEXT
8
TEXT
10
743.000000
20
300.985146
30
0.0
40
2.4000
1
3. FILAMENT: PLA, ~2 g (modelled), 15 layers @ 0.2 mm
0
TEXT
8
TEXT
10
743.000000
20
297.265146
30
0.0
40
2.4000
1
4. TOLERANCE BASIS, IN-HOUSE: CANNOT DETERMINE. Every
0
TEXT
8
TEXT
10
743.000000
20
293.545146
30
0.0
40
2.4000
1
   Bambu on this farm records tolerance_mm: null, cite "no
0
TEXT
8
TEXT
10
743.000000
20
289.825146
30
0.0
40
2.4000
1
   coupon printed and measured on this machine"
0
TEXT
8
TEXT
10
743.000000
20
286.105146
30
0.0
40
2.4000
1
   (ce-machines/bambu-h2s-*,
0
TEXT
8
TEXT
10
743.000000
20
282.385146
30
0.0
40
2.4000
1
   bambu-h2d-*/capabilities.json, read 2026-09-02), and
0
TEXT
8
TEXT
10
743.000000
20
278.665146
30
0.0
40
2.4000
1
   Bambu Lab's own H2D Pro spec sheet carries no
0
TEXT
8
TEXT
10
743.000000
20
274.945146
30
0.0
40
2.4000
1
   dimensional-accuracy line. DIMENSIONS HERE ARE NOMINAL
0
TEXT
8
TEXT
10
743.000000
20
271.225146
30
0.0
40
2.4000
1
   AS MODELLED.
0
TEXT
8
TEXT
10
743.000000
20
267.505146
30
0.0
40
2.4000
1
5. TOLERANCE BASIS, OUTSOURCED: JLC3DP +/-0.3 mm FDM
0
TEXT
8
TEXT
10
743.000000
20
263.785146
30
0.0
40
2.4000
1
   (jlc3dp.com, ce-machines/farm-jlc3dp); Hubs +/-0.5%,
0
TEXT
8
TEXT
10
743.000000
20
260.065146
30
0.0
40
2.4000
1
   floor +/-0.5 mm (hubs.com/3d-printing/,
0
TEXT
8
TEXT
10
743.000000
20
256.345146
30
0.0
40
2.4000
1
   ce-machines/farm-hubs). Apply the route's figure, not
0
TEXT
8
TEXT
10
743.000000
20
252.625146
30
0.0
40
2.4000
1
   both. The +/-0.2 mm in cecad/machining.py fdm is a repo
0
TEXT
8
TEXT
10
743.000000
20
248.905146
30
0.0
40
2.4000
1
   planning constant with no vendor cite and is NOT used
0
TEXT
8
TEXT
10
743.000000
20
245.185146
30
0.0
40
2.4000
1
   here. One printed and measured coupon closes this note.
0
TEXT
8
TEXT
10
743.000000
20
241.465146
30
0.0
40
2.4000
1
6. NO ISO 286 CLASS IS DECLARED ON ANY BORE: FDM cannot be
0
TEXT
8
TEXT
10
743.000000
20
237.745146
30
0.0
40
2.4000
1
   sized to one (H7/p6 at O3 is a 0.010 mm band). REAM
0
TEXT
8
TEXT
10
743.000000
20
234.025146
30
0.0
40
2.4000
1
   bearing and press-fit bores after printing.
0
LINE
8
FRAME
10
645.000000
20
10.000000
30
0.0
11
831.000000
21
10.000000
31
0.0
0
LINE
8
FRAME
10
831.000000
20
10.000000
30
0.0
11
831.000000
21
66.000000
31
0.0
0
LINE
8
FRAME
10
831.000000
20
66.000000
30
0.0
11
645.000000
21
66.000000
31
0.0
0
LINE
8
FRAME
10
645.000000
20
66.000000
30
0.0
11
645.000000
21
10.000000
31
0.0
0
LINE
8
TITLE
10
645.000000
20
53.000000
30
0.0
11
831.000000
21
53.000000
31
0.0
0
LINE
8
TITLE
10
645.000000
20
19.000000
30
0.0
11
831.000000
21
19.000000
31
0.0
0
LINE
8
TITLE
10
645.000000
20
27.500000
30
0.0
11
831.000000
21
27.500000
31
0.0
0
LINE
8
TITLE
10
645.000000
20
36.000000
30
0.0
11
831.000000
21
36.000000
31
0.0
0
LINE
8
TITLE
10
645.000000
20
44.500000
30
0.0
11
831.000000
21
44.500000
31
0.0
0
TEXT
8
TEXT
10
647.500000
20
59.500000
30
0.0
40
6.0000
1
MICRODUCK-TRUNK-BASE
72
0
73
2
11
647.500000
21
59.500000
31
0.0
0
LINE
8
TITLE
10
811.000000
20
53.000000
30
0.0
11
811.000000
21
66.000000
31
0.0
0
TEXT
8
TITLE
10
821.000000
20
63.600000
30
0.0
40
1.7000
1
REV
72
1
73
0
11
821.000000
21
63.600000
31
0.0
0
TEXT
8
TEXT
10
821.000000
20
55.000000
30
0.0
40
5.2000
1
A
72
1
73
0
11
821.000000
21
55.000000
31
0.0
0
LINE
8
TITLE
10
781.000000
20
53.000000
30
0.0
11
781.000000
21
66.000000
31
0.0
0
CIRCLE
8
TITLE
10
787.500000
20
59.500000
30
0.0
40
3.500000
0
CIRCLE
8
TITLE
10
787.500000
20
59.500000
30
0.0
40
1.960000
0
LINE
8
TITLE
10
797.300000
20
56.000000
30
0.0
11
797.300000
21
63.000000
31
0.0
0
LINE
8
TITLE
10
797.300000
20
63.000000
30
0.0
11
803.250000
21
61.460000
31
0.0
0
LINE
8
TITLE
10
803.250000
20
61.460000
30
0.0
11
803.250000
21
57.540000
31
0.0
0
LINE
8
TITLE
10
803.250000
20
57.540000
30
0.0
11
797.300000
21
56.000000
31
0.0
0
LINE
8
CENTER
10
782.500000
20
59.500000
30
0.0
11
804.750000
21
59.500000
31
0.0
0
LINE
8
TITLE
10
709.000000
20
19.000000
30
0.0
11
709.000000
21
53.000000
31
0.0
0
LINE
8
TITLE
10
773.000000
20
19.000000
30
0.0
11
773.000000
21
53.000000
31
0.0
0
TEXT
8
TITLE
10
646.600000
20
50.600000
30
0.0
40
1.7000
1
MATERIAL
0
TEXT
8
TEXT
10
646.600000
20
45.900000
30
0.0
40
2.5000
1
PLA
0
TEXT
8
TITLE
10
710.600000
20
50.600000
30
0.0
40
1.7000
1
PROCESS
0
TEXT
8
TEXT
10
710.600000
20
45.900000
30
0.0
40
2.5000
1
FDM
0
TEXT
8
TITLE
10
774.600000
20
50.600000
30
0.0
40
1.7000
1
SCALE
0
TEXT
8
TEXT
10
774.600000
20
45.900000
30
0.0
40
2.5000
1
5:1
0
TEXT
8
TITLE
10
646.600000
20
42.100000
30
0.0
40
1.7000
1
CATEGORY
0
TEXT
8
TEXT
10
646.600000
20
37.400000
30
0.0
40
2.5000
1
plate
0
TEXT
8
TITLE
10
678.600000
20
42.100000
30
0.0
40
1.7000
1
GENERAL TOL
0
TEXT
8
TEXT
10
678.600000
20
37.400000
30
0.0
40
2.5000
1
CANNOT DETERMINE —~
0
LINE
8
TITLE
10
677.000000
20
36.000000
30
0.0
11
677.000000
21
44.500000
31
0.0
0
TEXT
8
TITLE
10
710.600000
20
42.100000
30
0.0
40
1.7000
1
FINISH
0
TEXT
8
TEXT
10
710.600000
20
37.400000
30
0.0
40
2.5000
1
AS PRINTED
0
TEXT
8
TITLE
10
774.600000
20
42.100000
30
0.0
40
1.7000
1
SHEET
0
TEXT
8
TEXT
10
774.600000
20
37.400000
30
0.0
40
2.5000
1
A1  1/1
0
TEXT
8
TITLE
10
646.600000
20
33.600000
30
0.0
40
1.7000
1
VOLUME (MEASURED)
0
TEXT
8
TEXT
10
646.600000
20
28.900000
30
0.0
40
2.5000
1
1.41 cm3
0
TEXT
8
TITLE
10
710.600000
20
33.600000
30
0.0
40
1.7000
1
MASS (ASSUMES PLA)
0
TEXT
8
TEXT
10
710.600000
20
28.900000
30
0.0
40
2.5000
1
1.8 g
0
TEXT
8
TITLE
10
774.600000
20
33.600000
30
0.0
40
1.7000
1
UNITS
0
TEXT
8
TEXT
10
774.600000
20
28.900000
30
0.0
40
2.5000
1
mm / deg
0
TEXT
8
TITLE
10
646.600000
20
25.100000
30
0.0
40
1.7000
1
SIZE (BBOX, MEASURED)
0
TEXT
8
TEXT
10
646.600000
20
20.400000
30
0.0
40
2.5000
1
57.00 x 36.00 x 3.00
0
TEXT
8
TITLE
10
710.600000
20
25.100000
30
0.0
40
1.7000
1
DRAWN
0
TEXT
8
TEXT
10
710.600000
20
20.400000
30
0.0
40
2.5000
1
ce-cad  2026-09-03
0
TEXT
8
TITLE
10
774.600000
20
25.100000
30
0.0
40
1.7000
1
PROJECTION
0
TEXT
8
TEXT
10
774.600000
20
20.400000
30
0.0
40
2.5000
1
THIRD ANGLE
0
TEXT
8
TITLE
10
646.600000
20
16.600000
30
0.0
40
1.7000
1
SOURCE (DESIGN FILE)
0
TEXT
8
TEXT
10
646.600000
20
11.400000
30
0.0
40
2.6000
1
ce-parts/microduck-trunk-base/current/cad/part.py
0
TEXT
8
TEXT
10
12.500000
20
577.500000
30
0.0
40
4.2000
1
microduck-trunk-base   SCALE 5:1   A1   THIRD ANGLE
0
ENDSEC
0
EOF
