0
SECTION
2
HEADER
9
$ACADVER
1
AC1009
9
$INSUNITS
70
4
9
$LTSCALE
40
1.0
9
$EXTMIN
10
0.0000
20
0.0000
30
0.0
9
$EXTMAX
10
1189.0000
20
841.0000
30
0.0
0
ENDSEC
0
SECTION
2
TABLES
0
TABLE
2
LTYPE
70
4
0
LTYPE
2
CONTINUOUS
70
0
3
Solid line
72
65
73
0
40
0.0000
0
LTYPE
2
HIDDEN
70
0
3
Hidden __ __ __ __
72
65
73
2
40
3.6000
49
2.4000
49
-1.2000
0
LTYPE
2
CENTER
70
0
3
Center ____ _ ____ _
72
65
73
4
40
11.2000
49
7.0000
49
-1.4000
49
1.4000
49
-1.4000
0
LTYPE
2
PHANTOM
70
0
3
Phantom ____ _ _ ____
72
65
73
6
40
21.0000
49
11.0000
49
-2.0000
49
2.0000
49
-2.0000
49
2.0000
49
-2.0000
0
ENDTAB
0
TABLE
2
LAYER
70
12
0
LAYER
2
0
70
0
62
7
6
CONTINUOUS
0
LAYER
2
VISIBLE
70
0
62
7
6
CONTINUOUS
0
LAYER
2
SECTION
70
0
62
7
6
CONTINUOUS
0
LAYER
2
HIDDEN
70
0
62
8
6
HIDDEN
0
LAYER
2
CENTER
70
0
62
4
6
CENTER
0
LAYER
2
DIM
70
0
62
3
6
CONTINUOUS
0
LAYER
2
TEXT
70
0
62
3
6
CONTINUOUS
0
LAYER
2
HATCH
70
0
62
5
6
CONTINUOUS
0
LAYER
2
CUT
70
0
62
1
6
PHANTOM
0
LAYER
2
CUTTHIN
70
0
62
1
6
PHANTOM
0
LAYER
2
FRAME
70
0
62
7
6
CONTINUOUS
0
LAYER
2
TITLE
70
0
62
7
6
CONTINUOUS
0
ENDTAB
0
ENDSEC
0
SECTION
2
ENTITIES
0
LINE
8
FRAME
10
10.000000
20
10.000000
30
0.0
11
1179.000000
21
10.000000
31
0.0
0
LINE
8
FRAME
10
1179.000000
20
10.000000
30
0.0
11
1179.000000
21
831.000000
31
0.0
0
LINE
8
FRAME
10
1179.000000
20
831.000000
30
0.0
11
10.000000
21
831.000000
31
0.0
0
LINE
8
FRAME
10
10.000000
20
831.000000
30
0.0
11
10.000000
21
10.000000
31
0.0
0
LINE
8
VISIBLE
10
10.000000
20
388.660000
30
0.0
11
476.600000
21
388.660000
31
0.0
0
LINE
8
VISIBLE
10
476.600000
20
388.660000
30
0.0
11
476.600000
21
831.152333
31
0.0
0
LINE
8
VISIBLE
10
476.600000
20
831.152333
30
0.0
11
10.000000
21
831.152333
31
0.0
0
LINE
8
VISIBLE
10
10.000000
20
831.152333
30
0.0
11
10.000000
21
388.660000
31
0.0
0
LINE
8
TITLE
10
10.000000
20
388.660000
30
0.0
11
476.600000
21
388.660000
31
0.0
0
LINE
8
TITLE
10
476.600000
20
388.660000
30
0.0
11
476.600000
21
831.152333
31
0.0
0
LINE
8
TITLE
10
476.600000
20
831.152333
30
0.0
11
10.000000
21
831.152333
31
0.0
0
LINE
8
TITLE
10
10.000000
20
831.152333
30
0.0
11
10.000000
21
388.660000
31
0.0
0
TEXT
8
TEXT
10
243.300000
20
392.660000
30
0.0
40
5.0000
1
ISOMETRIC 1 FRONT LEFT / DETAIL A
72
1
73
0
11
243.300000
21
392.660000
31
0.0
0
TEXT
8
TEXT
10
243.300000
20
399.660000
30
0.0
40
3.5000
1
RENDER 1 / SCALE 7.94093:1
72
1
73
0
11
243.300000
21
399.660000
31
0.0
0
TEXT
8
TEXT
10
13.000000
20
819.152333
30
0.0
40
3.5000
1
MICRODUCK-SHIN — NOMINAL mm
0
TEXT
8
TEXT
10
13.000000
20
814.152333
30
0.0
40
3.5000
1
outline envelope length
0
TEXT
8
DIM
10
187.307000
20
814.152333
30
0.0
40
3.5000
1
7.9500
72
2
73
0
11
187.307000
21
814.152333
31
0.0
0
TEXT
8
TEXT
10
13.000000
20
809.152333
30
0.0
40
3.5000
1
outline envelope width
0
TEXT
8
DIM
10
187.307000
20
809.152333
30
0.0
40
3.5000
1
20.0000
72
2
73
0
11
187.307000
21
809.152333
31
0.0
0
TEXT
8
TEXT
10
13.000000
20
804.152333
30
0.0
40
3.5000
1
outline envelope height
0
TEXT
8
DIM
10
187.307000
20
804.152333
30
0.0
40
3.5000
1
58.0000
72
2
73
0
11
187.307000
21
804.152333
31
0.0
0
TEXT
8
TEXT
10
13.000000
20
799.152333
30
0.0
40
3.5000
1
hole 1 diameter (along x)
0
TEXT
8
DIM
10
187.307000
20
799.152333
30
0.0
40
3.5000
1
Ø6.0000
72
2
73
0
11
187.307000
21
799.152333
31
0.0
0
TEXT
8
TEXT
10
13.000000
20
794.152333
30
0.0
40
3.5000
1
hole 1 depth
0
TEXT
8
DIM
10
187.307000
20
794.152333
30
0.0
40
3.5000
1
7.2500
72
2
73
0
11
187.307000
21
794.152333
31
0.0
0
TEXT
8
TEXT
10
13.000000
20
789.152333
30
0.0
40
3.5000
1
hole 1 position from the Y datum face
0
TEXT
8
DIM
10
187.307000
20
789.152333
30
0.0
40
3.5000
1
10.0000
72
2
73
0
11
187.307000
21
789.152333
31
0.0
0
TEXT
8
TEXT
10
13.000000
20
784.152333
30
0.0
40
3.5000
1
hole 1 position from the Z datum face
0
TEXT
8
DIM
10
187.307000
20
784.152333
30
0.0
40
3.5000
1
48.0000
72
2
73
0
11
187.307000
21
784.152333
31
0.0
0
TEXT
8
TEXT
10
13.000000
20
779.152333
30
0.0
40
3.5000
1
counterbore 2 diameter (along x)
0
TEXT
8
DIM
10
187.307000
20
779.152333
30
0.0
40
3.5000
1
Ø5.5000
72
2
73
0
11
187.307000
21
779.152333
31
0.0
0
TEXT
8
TEXT
10
13.000000
20
774.152333
30
0.0
40
3.5000
1
counterbore 2 depth
0
TEXT
8
DIM
10
187.307000
20
774.152333
30
0.0
40
3.5000
1
3.4900
72
2
73
0
11
187.307000
21
774.152333
31
0.0
0
TEXT
8
TEXT
10
13.000000
20
769.152333
30
0.0
40
3.5000
1
counterbore 2 position from the Y datum face
0
TEXT
8
DIM
10
187.307000
20
769.152333
30
0.0
40
3.5000
1
10.0000
72
2
73
0
11
187.307000
21
769.152333
31
0.0
0
TEXT
8
TEXT
10
13.000000
20
764.152333
30
0.0
40
3.5000
1
counterbore 2 position from the Z datum face
0
TEXT
8
DIM
10
187.307000
20
764.152333
30
0.0
40
3.5000
1
6.0000
72
2
73
0
11
187.307000
21
764.152333
31
0.0
0
TEXT
8
TEXT
10
13.000000
20
759.152333
30
0.0
40
3.5000
1
counterbore 3 diameter (along x)
0
TEXT
8
DIM
10
187.307000
20
759.152333
30
0.0
40
3.5000
1
Ø4.8400
72
2
73
0
11
187.307000
21
759.152333
31
0.0
0
TEXT
8
TEXT
10
13.000000
20
754.152333
30
0.0
40
3.5000
1
counterbore 3 depth
0
TEXT
8
DIM
10
187.307000
20
754.152333
30
0.0
40
3.5000
1
3.0000
72
2
73
0
11
187.307000
21
754.152333
31
0.0
0
TEXT
8
TEXT
10
13.000000
20
749.152333
30
0.0
40
3.5000
1
counterbore 3 position from the Y datum face
0
TEXT
8
DIM
10
187.307000
20
749.152333
30
0.0
40
3.5000
1
2.0000
72
2
73
0
11
187.307000
21
749.152333
31
0.0
0
TEXT
8
TEXT
10
13.000000
20
744.152333
30
0.0
40
3.5000
1
counterbore 3 position from the Z datum face
0
TEXT
8
DIM
10
187.307000
20
744.152333
30
0.0
40
3.5000
1
28.5000
72
2
73
0
11
187.307000
21
744.152333
31
0.0
0
TEXT
8
TEXT
10
13.000000
20
739.152333
30
0.0
40
3.5000
1
counterbore 4 diameter (along x)
0
TEXT
8
DIM
10
187.307000
20
739.152333
30
0.0
40
3.5000
1
Ø4.8400
72
2
73
0
11
187.307000
21
739.152333
31
0.0
0
TEXT
8
TEXT
10
13.000000
20
734.152333
30
0.0
40
3.5000
1
counterbore 4 depth
0
TEXT
8
DIM
10
187.307000
20
734.152333
30
0.0
40
3.5000
1
3.0000
72
2
73
0
11
187.307000
21
734.152333
31
0.0
0
TEXT
8
TEXT
10
13.000000
20
729.152333
30
0.0
40
3.5000
1
counterbore 4 position from the Y datum face
0
TEXT
8
DIM
10
187.307000
20
729.152333
30
0.0
40
3.5000
1
18.0000
72
2
73
0
11
187.307000
21
729.152333
31
0.0
0
TEXT
8
TEXT
10
13.000000
20
724.152333
30
0.0
40
3.5000
1
counterbore 4 position from the Z datum face
0
TEXT
8
DIM
10
187.307000
20
724.152333
30
0.0
40
3.5000
1
28.5000
72
2
73
0
11
187.307000
21
724.152333
31
0.0
0
TEXT
8
TEXT
10
299.293000
20
819.152333
30
0.0
40
3.5000
1
CANNOT DETERMINE — chamfer: A4 requires size and angle on every chamfer;
0
TEXT
8
TEXT
10
299.293000
20
814.152333
30
0.0
40
3.5000
1
cecad.inspect has no chamfer classifier — a chamfer is a planar face bridging two
0
TEXT
8
TEXT
10
299.293000
20
809.152333
30
0.0
40
3.5000
1
faces at an angle and nothing here identifies one SETTLED BY: a chamfer classifier
0
TEXT
8
TEXT
10
299.293000
20
804.152333
30
0.0
40
3.5000
1
in cecad.inspect (planar face whose two neighbours meet it at equal angles), or the
0
TEXT
8
TEXT
10
299.293000
20
799.152333
30
0.0
40
3.5000
1
builder declaring its chamfers in the part record
0
LINE
8
VISIBLE
10
477.600000
20
388.660000
30
0.0
11
827.300000
21
388.660000
31
0.0
0
LINE
8
VISIBLE
10
827.300000
20
388.660000
30
0.0
11
827.300000
21
831.030500
31
0.0
0
LINE
8
VISIBLE
10
827.300000
20
831.030500
30
0.0
11
477.600000
21
831.030500
31
0.0
0
LINE
8
VISIBLE
10
477.600000
20
831.030500
30
0.0
11
477.600000
21
388.660000
31
0.0
0
LINE
8
TITLE
10
477.600000
20
388.660000
30
0.0
11
827.300000
21
388.660000
31
0.0
0
LINE
8
TITLE
10
827.300000
20
388.660000
30
0.0
11
827.300000
21
831.030500
31
0.0
0
LINE
8
TITLE
10
827.300000
20
831.030500
30
0.0
11
477.600000
21
831.030500
31
0.0
0
LINE
8
TITLE
10
477.600000
20
831.030500
30
0.0
11
477.600000
21
388.660000
31
0.0
0
TEXT
8
TEXT
10
652.450000
20
392.660000
30
0.0
40
5.0000
1
ISOMETRIC 2 FRONT RIGHT / DETAIL A
72
1
73
0
11
652.450000
21
392.660000
31
0.0
0
TEXT
8
TEXT
10
652.450000
20
399.660000
30
0.0
40
3.5000
1
RENDER 2 / SCALE 7.94093:1
72
1
73
0
11
652.450000
21
399.660000
31
0.0
0
TEXT
8
TEXT
10
480.600000
20
819.030500
30
0.0
40
3.5000
1
MEASURED FEATURES — mm
0
TEXT
8
TEXT
10
480.600000
20
814.030500
30
0.0
40
3.5000
1
counterbore 5 diameter (along x)
0
TEXT
8
DIM
10
596.492000
20
814.030500
30
0.0
40
3.5000
1
Ø4.4000
72
2
73
0
11
596.492000
21
814.030500
31
0.0
0
TEXT
8
TEXT
10
480.600000
20
809.030500
30
0.0
40
3.5000
1
counterbore 5 depth
0
TEXT
8
DIM
10
596.492000
20
809.030500
30
0.0
40
3.5000
1
4.4900
72
2
73
0
11
596.492000
21
809.030500
31
0.0
0
TEXT
8
TEXT
10
480.600000
20
804.030500
30
0.0
40
3.5000
1
counterbore 5 position from the Y datum face
0
TEXT
8
DIM
10
596.492000
20
804.030500
30
0.0
40
3.5000
1
5.7570
72
2
73
0
11
596.492000
21
804.030500
31
0.0
0
TEXT
8
TEXT
10
480.600000
20
799.030500
30
0.0
40
3.5000
1
counterbore 5 position from the Z datum face
0
TEXT
8
DIM
10
596.492000
20
799.030500
30
0.0
40
3.5000
1
43.7570
72
2
73
0
11
596.492000
21
799.030500
31
0.0
0
TEXT
8
TEXT
10
480.600000
20
794.030500
30
0.0
40
3.5000
1
counterbore 6 diameter (along x)
0
TEXT
8
DIM
10
596.492000
20
794.030500
30
0.0
40
3.5000
1
Ø4.4000
72
2
73
0
11
596.492000
21
794.030500
31
0.0
0
TEXT
8
TEXT
10
480.600000
20
789.030500
30
0.0
40
3.5000
1
counterbore 6 depth
0
TEXT
8
DIM
10
596.492000
20
789.030500
30
0.0
40
3.5000
1
4.4900
72
2
73
0
11
596.492000
21
789.030500
31
0.0
0
TEXT
8
TEXT
10
480.600000
20
784.030500
30
0.0
40
3.5000
1
counterbore 6 position from the Y datum face
0
TEXT
8
DIM
10
596.492000
20
784.030500
30
0.0
40
3.5000
1
5.7570
72
2
73
0
11
596.492000
21
784.030500
31
0.0
0
TEXT
8
TEXT
10
480.600000
20
779.030500
30
0.0
40
3.5000
1
counterbore 6 position from the Z datum face
0
TEXT
8
DIM
10
596.492000
20
779.030500
30
0.0
40
3.5000
1
52.2430
72
2
73
0
11
596.492000
21
779.030500
31
0.0
0
TEXT
8
TEXT
10
480.600000
20
774.030500
30
0.0
40
3.5000
1
counterbore 7 diameter (along x)
0
TEXT
8
DIM
10
596.492000
20
774.030500
30
0.0
40
3.5000
1
Ø4.4000
72
2
73
0
11
596.492000
21
774.030500
31
0.0
0
TEXT
8
TEXT
10
480.600000
20
769.030500
30
0.0
40
3.5000
1
counterbore 7 depth
0
TEXT
8
DIM
10
596.492000
20
769.030500
30
0.0
40
3.5000
1
4.4900
72
2
73
0
11
596.492000
21
769.030500
31
0.0
0
TEXT
8
TEXT
10
480.600000
20
764.030500
30
0.0
40
3.5000
1
counterbore 7 position from the Y datum face
0
TEXT
8
DIM
10
596.492000
20
764.030500
30
0.0
40
3.5000
1
14.2430
72
2
73
0
11
596.492000
21
764.030500
31
0.0
0
TEXT
8
TEXT
10
480.600000
20
759.030500
30
0.0
40
3.5000
1
counterbore 7 position from the Z datum face
0
TEXT
8
DIM
10
596.492000
20
759.030500
30
0.0
40
3.5000
1
43.7570
72
2
73
0
11
596.492000
21
759.030500
31
0.0
0
TEXT
8
TEXT
10
480.600000
20
754.030500
30
0.0
40
3.5000
1
counterbore 8 diameter (along x)
0
TEXT
8
DIM
10
596.492000
20
754.030500
30
0.0
40
3.5000
1
Ø4.4000
72
2
73
0
11
596.492000
21
754.030500
31
0.0
0
TEXT
8
TEXT
10
480.600000
20
749.030500
30
0.0
40
3.5000
1
counterbore 8 depth
0
TEXT
8
DIM
10
596.492000
20
749.030500
30
0.0
40
3.5000
1
4.4900
72
2
73
0
11
596.492000
21
749.030500
31
0.0
0
TEXT
8
TEXT
10
480.600000
20
744.030500
30
0.0
40
3.5000
1
counterbore 8 position from the Y datum face
0
TEXT
8
DIM
10
596.492000
20
744.030500
30
0.0
40
3.5000
1
14.2430
72
2
73
0
11
596.492000
21
744.030500
31
0.0
0
TEXT
8
TEXT
10
480.600000
20
739.030500
30
0.0
40
3.5000
1
counterbore 8 position from the Z datum face
0
TEXT
8
DIM
10
596.492000
20
739.030500
30
0.0
40
3.5000
1
52.2430
72
2
73
0
11
596.492000
21
739.030500
31
0.0
0
TEXT
8
TEXT
10
480.600000
20
734.030500
30
0.0
40
3.5000
1
hole 9 diameter (along x)
0
TEXT
8
DIM
10
596.492000
20
734.030500
30
0.0
40
3.5000
1
Ø2.7000
72
2
73
0
11
596.492000
21
734.030500
31
0.0
0
TEXT
8
TEXT
10
480.600000
20
729.030500
30
0.0
40
3.5000
1
hole 9 depth
0
TEXT
8
DIM
10
596.492000
20
729.030500
30
0.0
40
3.5000
1
4.3000
72
2
73
0
11
596.492000
21
729.030500
31
0.0
0
TEXT
8
TEXT
10
480.600000
20
724.030500
30
0.0
40
3.5000
1
hole 9 position from the Y datum face
0
TEXT
8
DIM
10
596.492000
20
724.030500
30
0.0
40
3.5000
1
10.0000
72
2
73
0
11
596.492000
21
724.030500
31
0.0
0
TEXT
8
TEXT
10
708.116583
20
819.030500
30
0.0
40
3.5000
1
CANNOT DETERMINE — rib: A4 requires thickness, height
0
TEXT
8
TEXT
10
708.116583
20
814.030500
30
0.0
40
3.5000
1
and pitch on every rib; nothing here groups faces into a
0
TEXT
8
TEXT
10
708.116583
20
809.030500
30
0.0
40
3.5000
1
rib SETTLED BY: a rib classifier (parallel thin prisms
0
TEXT
8
TEXT
10
708.116583
20
804.030500
30
0.0
40
3.5000
1
standing off a wall), or the builder declaring its rib
0
TEXT
8
TEXT
10
708.116583
20
799.030500
30
0.0
40
3.5000
1
pitch
0
LINE
8
VISIBLE
10
828.300000
20
388.660000
30
0.0
11
1178.000000
21
388.660000
31
0.0
0
LINE
8
VISIBLE
10
1178.000000
20
388.660000
30
0.0
11
1178.000000
21
831.030500
31
0.0
0
LINE
8
VISIBLE
10
1178.000000
20
831.030500
30
0.0
11
828.300000
21
831.030500
31
0.0
0
LINE
8
VISIBLE
10
828.300000
20
831.030500
30
0.0
11
828.300000
21
388.660000
31
0.0
0
LINE
8
TITLE
10
828.300000
20
388.660000
30
0.0
11
1178.000000
21
388.660000
31
0.0
0
LINE
8
TITLE
10
1178.000000
20
388.660000
30
0.0
11
1178.000000
21
831.030500
31
0.0
0
LINE
8
TITLE
10
1178.000000
20
831.030500
30
0.0
11
828.300000
21
831.030500
31
0.0
0
LINE
8
TITLE
10
828.300000
20
831.030500
30
0.0
11
828.300000
21
388.660000
31
0.0
0
TEXT
8
TEXT
10
1003.150000
20
392.660000
30
0.0
40
5.0000
1
ISOMETRIC 3 REAR RIGHT / DETAIL A
72
1
73
0
11
1003.150000
21
392.660000
31
0.0
0
TEXT
8
TEXT
10
1003.150000
20
399.660000
30
0.0
40
3.5000
1
RENDER 3 / SCALE 7.94093:1
72
1
73
0
11
1003.150000
21
399.660000
31
0.0
0
TEXT
8
TEXT
10
831.300000
20
819.030500
30
0.0
40
3.5000
1
MEASURED FEATURES — mm
0
TEXT
8
TEXT
10
831.300000
20
814.030500
30
0.0
40
3.5000
1
hole 9 position from the Z datum face
0
TEXT
8
DIM
10
960.305750
20
814.030500
30
0.0
40
3.5000
1
6.0000
72
2
73
0
11
960.305750
21
814.030500
31
0.0
0
TEXT
8
TEXT
10
831.300000
20
809.030500
30
0.0
40
3.5000
1
hole 10 diameter (along x)
0
TEXT
8
DIM
10
960.305750
20
809.030500
30
0.0
40
3.5000
1
Ø2.4000
72
2
73
0
11
960.305750
21
809.030500
31
0.0
0
TEXT
8
TEXT
10
831.300000
20
804.030500
30
0.0
40
3.5000
1
hole 10 depth
0
TEXT
8
DIM
10
960.305750
20
804.030500
30
0.0
40
3.5000
1
2.3000
72
2
73
0
11
960.305750
21
804.030500
31
0.0
0
TEXT
8
TEXT
10
831.300000
20
799.030500
30
0.0
40
3.5000
1
hole 10 position from the Y datum face
0
TEXT
8
DIM
10
960.305750
20
799.030500
30
0.0
40
3.5000
1
2.0000
72
2
73
0
11
960.305750
21
799.030500
31
0.0
0
TEXT
8
TEXT
10
831.300000
20
794.030500
30
0.0
40
3.5000
1
hole 10 position from the Z datum face
0
TEXT
8
DIM
10
960.305750
20
794.030500
30
0.0
40
3.5000
1
28.5000
72
2
73
0
11
960.305750
21
794.030500
31
0.0
0
TEXT
8
TEXT
10
831.300000
20
789.030500
30
0.0
40
3.5000
1
hole 11 diameter (along x)
0
TEXT
8
DIM
10
960.305750
20
789.030500
30
0.0
40
3.5000
1
Ø2.4000
72
2
73
0
11
960.305750
21
789.030500
31
0.0
0
TEXT
8
TEXT
10
831.300000
20
784.030500
30
0.0
40
3.5000
1
hole 11 depth
0
TEXT
8
DIM
10
960.305750
20
784.030500
30
0.0
40
3.5000
1
2.3000
72
2
73
0
11
960.305750
21
784.030500
31
0.0
0
TEXT
8
TEXT
10
831.300000
20
779.030500
30
0.0
40
3.5000
1
hole 11 position from the Y datum face
0
TEXT
8
DIM
10
960.305750
20
779.030500
30
0.0
40
3.5000
1
18.0000
72
2
73
0
11
960.305750
21
779.030500
31
0.0
0
TEXT
8
TEXT
10
831.300000
20
774.030500
30
0.0
40
3.5000
1
hole 11 position from the Z datum face
0
TEXT
8
DIM
10
960.305750
20
774.030500
30
0.0
40
3.5000
1
28.5000
72
2
73
0
11
960.305750
21
774.030500
31
0.0
0
TEXT
8
TEXT
10
831.300000
20
769.030500
30
0.0
40
3.5000
1
hole 12 diameter (along x)
0
TEXT
8
DIM
10
960.305750
20
769.030500
30
0.0
40
3.5000
1
Ø2.2000
72
2
73
0
11
960.305750
21
769.030500
31
0.0
0
TEXT
8
TEXT
10
831.300000
20
764.030500
30
0.0
40
3.5000
1
hole 12 depth
0
TEXT
8
DIM
10
960.305750
20
764.030500
30
0.0
40
3.5000
1
2.7600
72
2
73
0
11
960.305750
21
764.030500
31
0.0
0
TEXT
8
TEXT
10
831.300000
20
759.030500
30
0.0
40
3.5000
1
hole 12 position from the Y datum face
0
TEXT
8
DIM
10
960.305750
20
759.030500
30
0.0
40
3.5000
1
5.7570
72
2
73
0
11
960.305750
21
759.030500
31
0.0
0
TEXT
8
TEXT
10
831.300000
20
754.030500
30
0.0
40
3.5000
1
hole 12 position from the Z datum face
0
TEXT
8
DIM
10
960.305750
20
754.030500
30
0.0
40
3.5000
1
43.7570
72
2
73
0
11
960.305750
21
754.030500
31
0.0
0
TEXT
8
TEXT
10
831.300000
20
749.030500
30
0.0
40
3.5000
1
hole 13 diameter (along x)
0
TEXT
8
DIM
10
960.305750
20
749.030500
30
0.0
40
3.5000
1
Ø2.2000
72
2
73
0
11
960.305750
21
749.030500
31
0.0
0
TEXT
8
TEXT
10
831.300000
20
744.030500
30
0.0
40
3.5000
1
hole 13 depth
0
TEXT
8
DIM
10
960.305750
20
744.030500
30
0.0
40
3.5000
1
2.7600
72
2
73
0
11
960.305750
21
744.030500
31
0.0
0
TEXT
8
TEXT
10
831.300000
20
739.030500
30
0.0
40
3.5000
1
hole 13 position from the Y datum face
0
TEXT
8
DIM
10
960.305750
20
739.030500
30
0.0
40
3.5000
1
5.7570
72
2
73
0
11
960.305750
21
739.030500
31
0.0
0
TEXT
8
TEXT
10
831.300000
20
734.030500
30
0.0
40
3.5000
1
hole 13 position from the Z datum face
0
TEXT
8
DIM
10
960.305750
20
734.030500
30
0.0
40
3.5000
1
52.2430
72
2
73
0
11
960.305750
21
734.030500
31
0.0
0
TEXT
8
TEXT
10
831.300000
20
729.030500
30
0.0
40
3.5000
1
hole 14 diameter (along x)
0
TEXT
8
DIM
10
960.305750
20
729.030500
30
0.0
40
3.5000
1
Ø2.2000
72
2
73
0
11
960.305750
21
729.030500
31
0.0
0
TEXT
8
TEXT
10
831.300000
20
724.030500
30
0.0
40
3.5000
1
hole 14 depth
0
TEXT
8
DIM
10
960.305750
20
724.030500
30
0.0
40
3.5000
1
2.7600
72
2
73
0
11
960.305750
21
724.030500
31
0.0
0
TEXT
8
TEXT
10
1053.279667
20
819.030500
30
0.0
40
3.5000
1
CANNOT DETERMINE — draft: A4 requires every draft angle; no
0
TEXT
8
TEXT
10
1053.279667
20
814.030500
30
0.0
40
3.5000
1
face here is tested for draft against a pull direction
0
TEXT
8
TEXT
10
1053.279667
20
809.030500
30
0.0
40
3.5000
1
SETTLED BY: a pull direction on the part record, then the
0
TEXT
8
TEXT
10
1053.279667
20
804.030500
30
0.0
40
3.5000
1
angle of every planar face to it
0
LINE
8
VISIBLE
10
10.000000
20
10.000000
30
0.0
11
412.305000
21
10.000000
31
0.0
0
LINE
8
VISIBLE
10
412.305000
20
10.000000
30
0.0
11
412.305000
21
386.825683
31
0.0
0
LINE
8
VISIBLE
10
412.305000
20
386.825683
30
0.0
11
10.000000
21
386.825683
31
0.0
0
LINE
8
VISIBLE
10
10.000000
20
386.825683
30
0.0
11
10.000000
21
10.000000
31
0.0
0
LINE
8
TITLE
10
10.000000
20
10.000000
30
0.0
11
412.305000
21
10.000000
31
0.0
0
LINE
8
TITLE
10
412.305000
20
10.000000
30
0.0
11
412.305000
21
386.825683
31
0.0
0
LINE
8
TITLE
10
412.305000
20
386.825683
30
0.0
11
10.000000
21
386.825683
31
0.0
0
LINE
8
TITLE
10
10.000000
20
386.825683
30
0.0
11
10.000000
21
10.000000
31
0.0
0
TEXT
8
TEXT
10
211.152500
20
14.000000
30
0.0
40
5.0000
1
ISOMETRIC 4 REAR LEFT / DETAIL A
72
1
73
0
11
211.152500
21
14.000000
31
0.0
0
TEXT
8
TEXT
10
211.152500
20
21.000000
30
0.0
40
3.5000
1
RENDER 4 / SCALE 7.94093:1
72
1
73
0
11
211.152500
21
21.000000
31
0.0
0
TEXT
8
TEXT
10
13.000000
20
374.825683
30
0.0
40
3.5000
1
MEASURED FEATURES — mm
0
TEXT
8
TEXT
10
13.000000
20
369.825683
30
0.0
40
3.5000
1
hole 14 position from the Y datum face
0
TEXT
8
DIM
10
155.875900
20
369.825683
30
0.0
40
3.5000
1
14.2430
72
2
73
0
11
155.875900
21
369.825683
31
0.0
0
TEXT
8
TEXT
10
13.000000
20
364.825683
30
0.0
40
3.5000
1
hole 14 position from the Z datum face
0
TEXT
8
DIM
10
155.875900
20
364.825683
30
0.0
40
3.5000
1
43.7570
72
2
73
0
11
155.875900
21
364.825683
31
0.0
0
TEXT
8
TEXT
10
13.000000
20
359.825683
30
0.0
40
3.5000
1
hole 15 diameter (along x)
0
TEXT
8
DIM
10
155.875900
20
359.825683
30
0.0
40
3.5000
1
Ø2.2000
72
2
73
0
11
155.875900
21
359.825683
31
0.0
0
TEXT
8
TEXT
10
13.000000
20
354.825683
30
0.0
40
3.5000
1
hole 15 depth
0
TEXT
8
DIM
10
155.875900
20
354.825683
30
0.0
40
3.5000
1
2.7600
72
2
73
0
11
155.875900
21
354.825683
31
0.0
0
TEXT
8
TEXT
10
13.000000
20
349.825683
30
0.0
40
3.5000
1
hole 15 position from the Y datum face
0
TEXT
8
DIM
10
155.875900
20
349.825683
30
0.0
40
3.5000
1
14.2430
72
2
73
0
11
155.875900
21
349.825683
31
0.0
0
TEXT
8
TEXT
10
13.000000
20
344.825683
30
0.0
40
3.5000
1
hole 15 position from the Z datum face
0
TEXT
8
DIM
10
155.875900
20
344.825683
30
0.0
40
3.5000
1
52.2430
72
2
73
0
11
155.875900
21
344.825683
31
0.0
0
TEXT
8
TEXT
10
13.000000
20
339.825683
30
0.0
40
3.5000
1
groove 1 outer Ø
0
TEXT
8
DIM
10
155.875900
20
339.825683
30
0.0
40
3.5000
1
Ø8.0000
72
2
73
0
11
155.875900
21
339.825683
31
0.0
0
TEXT
8
TEXT
10
13.000000
20
334.825683
30
0.0
40
3.5000
1
groove 1 core Ø
0
TEXT
8
DIM
10
155.875900
20
334.825683
30
0.0
40
3.5000
1
Ø4.9200
72
2
73
0
11
155.875900
21
334.825683
31
0.0
0
TEXT
8
TEXT
10
13.000000
20
329.825683
30
0.0
40
3.5000
1
groove 1 depth
0
TEXT
8
DIM
10
155.875900
20
329.825683
30
0.0
40
3.5000
1
0.5000
72
2
73
0
11
155.875900
21
329.825683
31
0.0
0
TEXT
8
TEXT
10
13.000000
20
324.825683
30
0.0
40
3.5000
1
boss / outside diameter 1
0
TEXT
8
DIM
10
155.875900
20
324.825683
30
0.0
40
3.5000
1
Ø15.9000
72
2
73
0
11
155.875900
21
324.825683
31
0.0
0
TEXT
8
TEXT
10
13.000000
20
319.825683
30
0.0
40
3.5000
1
boss 1 length along its axis
0
TEXT
8
DIM
10
155.875900
20
319.825683
30
0.0
40
3.5000
1
1.9500
72
2
73
0
11
155.875900
21
319.825683
31
0.0
0
TEXT
8
TEXT
10
13.000000
20
314.825683
30
0.0
40
3.5000
1
boss / outside diameter 2
0
TEXT
8
DIM
10
155.875900
20
314.825683
30
0.0
40
3.5000
1
Ø10.0000
72
2
73
0
11
155.875900
21
314.825683
31
0.0
0
TEXT
8
TEXT
10
13.000000
20
309.825683
30
0.0
40
3.5000
1
boss 2 length along its axis
0
TEXT
8
DIM
10
155.875900
20
309.825683
30
0.0
40
3.5000
1
3.2000
72
2
73
0
11
155.875900
21
309.825683
31
0.0
0
TEXT
8
TEXT
10
13.000000
20
304.825683
30
0.0
40
3.5000
1
boss / outside diameter 3
0
TEXT
8
DIM
10
155.875900
20
304.825683
30
0.0
40
3.5000
1
Ø10.0000
72
2
73
0
11
155.875900
21
304.825683
31
0.0
0
TEXT
8
TEXT
10
13.000000
20
299.825683
30
0.0
40
3.5000
1
boss 3 length along its axis
0
TEXT
8
DIM
10
155.875900
20
299.825683
30
0.0
40
3.5000
1
0.5000
72
2
73
0
11
155.875900
21
299.825683
31
0.0
0
TEXT
8
TEXT
10
13.000000
20
294.825683
30
0.0
40
3.5000
1
boss / outside diameter 4
0
TEXT
8
DIM
10
155.875900
20
294.825683
30
0.0
40
3.5000
1
Ø4.9200
72
2
73
0
11
155.875900
21
294.825683
31
0.0
0
TEXT
8
TEXT
10
13.000000
20
289.825683
30
0.0
40
3.5000
1
boss 4 length along its axis
0
TEXT
8
DIM
10
155.875900
20
289.825683
30
0.0
40
3.5000
1
2.2900
72
2
73
0
11
155.875900
21
289.825683
31
0.0
0
TEXT
8
TEXT
10
13.000000
20
284.825683
30
0.0
40
3.5000
1
radius R1.10 (8 edges, 8 full circles)
0
TEXT
8
DIM
10
155.875900
20
284.825683
30
0.0
40
3.5000
1
R1.1000
72
2
73
0
11
155.875900
21
284.825683
31
0.0
0
TEXT
8
TEXT
10
13.000000
20
279.825683
30
0.0
40
3.5000
1
radius R1.20 (6 edges, 2 full circles)
0
TEXT
8
DIM
10
155.875900
20
279.825683
30
0.0
40
3.5000
1
R1.2000
72
2
73
0
11
155.875900
21
279.825683
31
0.0
0
TEXT
8
TEXT
10
267.434863
20
374.825683
30
0.0
40
3.5000
1
CANNOT DETERMINE — step: A4 requires every step and shoulder;
0
TEXT
8
TEXT
10
267.434863
20
369.825683
30
0.0
40
3.5000
1
nothing here classifies a shoulder between two coaxial diameters or
0
TEXT
8
TEXT
10
267.434863
20
364.825683
30
0.0
40
3.5000
1
two parallel faces SETTLED BY: a step classifier, or the section
0
TEXT
8
TEXT
10
267.434863
20
359.825683
30
0.0
40
3.5000
1
views declaring their stations
0
LINE
8
VISIBLE
10
413.305000
20
10.000000
30
0.0
11
795.152500
21
10.000000
31
0.0
0
LINE
8
VISIBLE
10
795.152500
20
10.000000
30
0.0
11
795.152500
21
386.756200
31
0.0
0
LINE
8
VISIBLE
10
795.152500
20
386.756200
30
0.0
11
413.305000
21
386.756200
31
0.0
0
LINE
8
VISIBLE
10
413.305000
20
386.756200
30
0.0
11
413.305000
21
10.000000
31
0.0
0
LINE
8
TITLE
10
413.305000
20
10.000000
30
0.0
11
795.152500
21
10.000000
31
0.0
0
LINE
8
TITLE
10
795.152500
20
10.000000
30
0.0
11
795.152500
21
386.756200
31
0.0
0
LINE
8
TITLE
10
795.152500
20
386.756200
30
0.0
11
413.305000
21
386.756200
31
0.0
0
LINE
8
TITLE
10
413.305000
20
386.756200
30
0.0
11
413.305000
21
10.000000
31
0.0
0
TEXT
8
TEXT
10
604.228750
20
14.000000
30
0.0
40
5.0000
1
TOP-DOWN RENDER / DETAIL A
72
1
73
0
11
604.228750
21
14.000000
31
0.0
0
TEXT
8
TEXT
10
604.228750
20
21.000000
30
0.0
40
3.5000
1
RENDER 5 / SCALE 7.94093:1
72
1
73
0
11
604.228750
21
21.000000
31
0.0
0
TEXT
8
TEXT
10
416.305000
20
374.756200
30
0.0
40
3.5000
1
MEASURED FEATURES — mm
0
TEXT
8
TEXT
10
416.305000
20
369.756200
30
0.0
40
3.5000
1
radius R1.35 (2 edges, 2 full circles)
0
TEXT
8
DIM
10
566.362744
20
369.756200
30
0.0
40
3.5000
1
R1.3500
72
2
73
0
11
566.362744
21
369.756200
31
0.0
0
TEXT
8
TEXT
10
416.305000
20
364.756200
30
0.0
40
3.5000
1
radius R2.20 (12 edges, 4 full circles)
0
TEXT
8
DIM
10
566.362744
20
364.756200
30
0.0
40
3.5000
1
R2.2000
72
2
73
0
11
566.362744
21
364.756200
31
0.0
0
TEXT
8
TEXT
10
416.305000
20
359.756200
30
0.0
40
3.5000
1
radius R2.42 (6 edges, 0 full circles)
0
TEXT
8
DIM
10
566.362744
20
359.756200
30
0.0
40
3.5000
1
R2.4200
72
2
73
0
11
566.362744
21
359.756200
31
0.0
0
TEXT
8
TEXT
10
416.305000
20
354.756200
30
0.0
40
3.5000
1
radius R2.46 (2 edges, 2 full circles)
0
TEXT
8
DIM
10
566.362744
20
354.756200
30
0.0
40
3.5000
1
R2.4600
72
2
73
0
11
566.362744
21
354.756200
31
0.0
0
TEXT
8
TEXT
10
416.305000
20
349.756200
30
0.0
40
3.5000
1
radius R2.75 (2 edges, 2 full circles)
0
TEXT
8
DIM
10
566.362744
20
349.756200
30
0.0
40
3.5000
1
R2.7500
72
2
73
0
11
566.362744
21
349.756200
31
0.0
0
TEXT
8
TEXT
10
416.305000
20
344.756200
30
0.0
40
3.5000
1
radius R3.00 (2 edges, 2 full circles)
0
TEXT
8
DIM
10
566.362744
20
344.756200
30
0.0
40
3.5000
1
R3.0000
72
2
73
0
11
566.362744
21
344.756200
31
0.0
0
TEXT
8
TEXT
10
416.305000
20
339.756200
30
0.0
40
3.5000
1
radius R4.00 (2 edges, 2 full circles)
0
TEXT
8
DIM
10
566.362744
20
339.756200
30
0.0
40
3.5000
1
R4.0000
72
2
73
0
11
566.362744
21
339.756200
31
0.0
0
TEXT
8
TEXT
10
416.305000
20
334.756200
30
0.0
40
3.5000
1
radius R5.00 (4 edges, 4 full circles)
0
TEXT
8
DIM
10
566.362744
20
334.756200
30
0.0
40
3.5000
1
R5.0000
72
2
73
0
11
566.362744
21
334.756200
31
0.0
0
TEXT
8
TEXT
10
416.305000
20
329.756200
30
0.0
40
3.5000
1
radius R7.95 (2 edges, 2 full circles)
0
TEXT
8
DIM
10
566.362744
20
329.756200
30
0.0
40
3.5000
1
R7.9500
72
2
73
0
11
566.362744
21
329.756200
31
0.0
0
TEXT
8
TEXT
10
416.305000
20
324.756200
30
0.0
40
3.5000
1
thinnest wall
0
TEXT
8
DIM
10
566.362744
20
324.756200
30
0.0
40
3.5000
1
0.0280
72
2
73
0
11
566.362744
21
324.756200
31
0.0
0
TEXT
8
TEXT
10
416.305000
20
319.756200
30
0.0
40
3.5000
1
slot mouth on a plane normal to x, 8 edge(s) — width
0
TEXT
8
DIM
10
566.362744
20
319.756200
30
0.0
40
3.5000
1
2.4000
72
2
73
0
11
566.362744
21
319.756200
31
0.0
0
TEXT
8
TEXT
10
416.305000
20
314.756200
30
0.0
40
3.5000
1
slot mouth on a plane normal to x, 8 edge(s) — length
0
TEXT
8
DIM
10
566.362744
20
314.756200
30
0.0
40
3.5000
1
14.0000
72
2
73
0
11
566.362744
21
314.756200
31
0.0
0
TEXT
8
TEXT
10
416.305000
20
309.756200
30
0.0
40
3.5000
1
slot mouth on a plane normal to x, 8 edge(s) — depth
0
TEXT
8
DIM
10
566.362744
20
309.756200
30
0.0
40
3.5000
1
2.4500
72
2
73
0
11
566.362744
21
309.756200
31
0.0
0
TEXT
8
TEXT
10
416.305000
20
304.756200
30
0.0
40
3.5000
1
slot mouth on a plane normal to x, 8 edge(s) — position from
0
TEXT
8
TEXT
10
416.305000
20
299.756200
30
0.0
40
3.5000
1
the y datum
0
TEXT
8
DIM
10
566.362744
20
299.756200
30
0.0
40
3.5000
1
2.0000
72
2
73
0
11
566.362744
21
299.756200
31
0.0
0
TEXT
8
TEXT
10
416.305000
20
294.756200
30
0.0
40
3.5000
1
slot mouth on a plane normal to x, 8 edge(s) — position from
0
TEXT
8
TEXT
10
416.305000
20
289.756200
30
0.0
40
3.5000
1
the z datum
0
TEXT
8
DIM
10
566.362744
20
289.756200
30
0.0
40
3.5000
1
28.2230
72
2
73
0
11
566.362744
21
289.756200
31
0.0
0
TEXT
8
TEXT
10
416.305000
20
284.756200
30
0.0
40
3.5000
1
pocket mouth on a plane normal to x, 4 edge(s) — width
0
TEXT
8
DIM
10
566.362744
20
284.756200
30
0.0
40
3.5000
1
1.0000
72
2
73
0
11
566.362744
21
284.756200
31
0.0
0
TEXT
8
TEXT
10
416.305000
20
279.756200
30
0.0
40
3.5000
1
pocket mouth on a plane normal to x, 4 edge(s) — length
0
TEXT
8
DIM
10
566.362744
20
279.756200
30
0.0
40
3.5000
1
5.5000
72
2
73
0
11
566.362744
21
279.756200
31
0.0
0
TEXT
8
TEXT
10
416.305000
20
274.756200
30
0.0
40
3.5000
1
pocket mouth on a plane normal to x, 4 edge(s) — depth
0
TEXT
8
DIM
10
566.362744
20
274.756200
30
0.0
40
3.5000
1
2.4500
72
2
73
0
11
566.362744
21
274.756200
31
0.0
0
TEXT
8
TEXT
10
416.305000
20
269.756200
30
0.0
40
3.5000
1
pocket mouth on a plane normal to x, 4 edge(s) — position
0
TEXT
8
TEXT
10
416.305000
20
264.756200
30
0.0
40
3.5000
1
from the y datum
0
TEXT
8
DIM
10
566.362744
20
264.756200
30
0.0
40
3.5000
1
6.0000
72
2
73
0
11
566.362744
21
264.756200
31
0.0
0
TEXT
8
TEXT
10
642.412962
20
374.756200
30
0.0
40
3.5000
1
CANNOT DETERMINE — mate: A4 requires every surface that mates with
0
TEXT
8
TEXT
10
642.412962
20
369.756200
30
0.0
40
3.5000
1
another part, with the mating part named by its triad ref; the mates
0
TEXT
8
TEXT
10
642.412962
20
364.756200
30
0.0
40
3.5000
1
live in ce-assemblies/*/joints.json and are not read here SETTLED BY:
0
TEXT
8
TEXT
10
642.412962
20
359.756200
30
0.0
40
3.5000
1
reading this part's joints out of the assemblies that use it and
0
TEXT
8
TEXT
10
642.412962
20
354.756200
30
0.0
40
3.5000
1
matching each mate to a face
0
LINE
8
VISIBLE
10
796.152500
20
10.000000
30
0.0
11
1178.000000
21
10.000000
31
0.0
0
LINE
8
VISIBLE
10
1178.000000
20
10.000000
30
0.0
11
1178.000000
21
386.756200
31
0.0
0
LINE
8
VISIBLE
10
1178.000000
20
386.756200
30
0.0
11
796.152500
21
386.756200
31
0.0
0
LINE
8
VISIBLE
10
796.152500
20
386.756200
30
0.0
11
796.152500
21
10.000000
31
0.0
0
LINE
8
TITLE
10
796.152500
20
10.000000
30
0.0
11
1178.000000
21
10.000000
31
0.0
0
LINE
8
TITLE
10
1178.000000
20
10.000000
30
0.0
11
1178.000000
21
386.756200
31
0.0
0
LINE
8
TITLE
10
1178.000000
20
386.756200
30
0.0
11
796.152500
21
386.756200
31
0.0
0
LINE
8
TITLE
10
796.152500
20
386.756200
30
0.0
11
796.152500
21
10.000000
31
0.0
0
TEXT
8
TEXT
10
987.076250
20
14.000000
30
0.0
40
5.0000
1
BOTTOM-UP RENDER / DETAIL A
72
1
73
0
11
987.076250
21
14.000000
31
0.0
0
TEXT
8
TEXT
10
987.076250
20
21.000000
30
0.0
40
3.5000
1
RENDER 6 / SCALE 7.94093:1
72
1
73
0
11
987.076250
21
21.000000
31
0.0
0
TEXT
8
TEXT
10
799.152500
20
374.756200
30
0.0
40
3.5000
1
MEASURED FEATURES — mm
0
TEXT
8
TEXT
10
799.152500
20
369.756200
30
0.0
40
3.5000
1
pocket mouth on a plane normal to x, 4 edge(s) — position
0
TEXT
8
TEXT
10
799.152500
20
364.756200
30
0.0
40
3.5000
1
from the z datum
0
TEXT
8
DIM
10
949.210244
20
364.756200
30
0.0
40
3.5000
1
32.4730
72
2
73
0
11
949.210244
21
364.756200
31
0.0
0
TEXT
8
TEXT
10
799.152500
20
359.756200
30
0.0
40
3.5000
1
pocket mouth on a plane normal to x, 36 edge(s) — width
0
TEXT
8
DIM
10
949.210244
20
359.756200
30
0.0
40
3.5000
1
5.0000
72
2
73
0
11
949.210244
21
359.756200
31
0.0
0
TEXT
8
TEXT
10
799.152500
20
354.756200
30
0.0
40
3.5000
1
pocket mouth on a plane normal to x, 36 edge(s) — length
0
TEXT
8
DIM
10
949.210244
20
354.756200
30
0.0
40
3.5000
1
11.5000
72
2
73
0
11
949.210244
21
354.756200
31
0.0
0
TEXT
8
TEXT
10
799.152500
20
349.756200
30
0.0
40
3.5000
1
pocket mouth on a plane normal to x, 36 edge(s) — depth
0
TEXT
8
DIM
10
949.210244
20
349.756200
30
0.0
40
3.5000
1
5.3000
72
2
73
0
11
949.210244
21
349.756200
31
0.0
0
TEXT
8
TEXT
10
799.152500
20
344.756200
30
0.0
40
3.5000
1
pocket mouth on a plane normal to x, 36 edge(s) — position
0
TEXT
8
TEXT
10
799.152500
20
339.756200
30
0.0
40
3.5000
1
from the y datum
0
TEXT
8
DIM
10
949.210244
20
339.756200
30
0.0
40
3.5000
1
10.0000
72
2
73
0
11
949.210244
21
339.756200
31
0.0
0
TEXT
8
TEXT
10
799.152500
20
334.756200
30
0.0
40
3.5000
1
pocket mouth on a plane normal to x, 36 edge(s) — position
0
TEXT
8
TEXT
10
799.152500
20
329.756200
30
0.0
40
3.5000
1
from the z datum
0
TEXT
8
DIM
10
949.210244
20
329.756200
30
0.0
40
3.5000
1
32.9730
72
2
73
0
11
949.210244
21
329.756200
31
0.0
0
TEXT
8
TEXT
10
799.152500
20
324.756200
30
0.0
40
3.5000
1
pocket mouth on a plane normal to x, 4 edge(s) — width
0
TEXT
8
DIM
10
949.210244
20
324.756200
30
0.0
40
3.5000
1
1.0000
72
2
73
0
11
949.210244
21
324.756200
31
0.0
0
TEXT
8
TEXT
10
799.152500
20
319.756200
30
0.0
40
3.5000
1
pocket mouth on a plane normal to x, 4 edge(s) — length
0
TEXT
8
DIM
10
949.210244
20
319.756200
30
0.0
40
3.5000
1
5.5000
72
2
73
0
11
949.210244
21
319.756200
31
0.0
0
TEXT
8
TEXT
10
799.152500
20
314.756200
30
0.0
40
3.5000
1
pocket mouth on a plane normal to x, 4 edge(s) — depth
0
TEXT
8
DIM
10
949.210244
20
314.756200
30
0.0
40
3.5000
1
2.4500
72
2
73
0
11
949.210244
21
314.756200
31
0.0
0
TEXT
8
TEXT
10
799.152500
20
309.756200
30
0.0
40
3.5000
1
pocket mouth on a plane normal to x, 4 edge(s) — position
0
TEXT
8
TEXT
10
799.152500
20
304.756200
30
0.0
40
3.5000
1
from the y datum
0
TEXT
8
DIM
10
949.210244
20
304.756200
30
0.0
40
3.5000
1
14.0000
72
2
73
0
11
949.210244
21
304.756200
31
0.0
0
TEXT
8
TEXT
10
799.152500
20
299.756200
30
0.0
40
3.5000
1
pocket mouth on a plane normal to x, 4 edge(s) — position
0
TEXT
8
TEXT
10
799.152500
20
294.756200
30
0.0
40
3.5000
1
from the z datum
0
TEXT
8
DIM
10
949.210244
20
294.756200
30
0.0
40
3.5000
1
32.4730
72
2
73
0
11
949.210244
21
294.756200
31
0.0
0
TEXT
8
TEXT
10
799.152500
20
289.756200
30
0.0
40
3.5000
1
slot mouth on a plane normal to x, 8 edge(s) — width
0
TEXT
8
DIM
10
949.210244
20
289.756200
30
0.0
40
3.5000
1
2.4000
72
2
73
0
11
949.210244
21
289.756200
31
0.0
0
TEXT
8
TEXT
10
799.152500
20
284.756200
30
0.0
40
3.5000
1
slot mouth on a plane normal to x, 8 edge(s) — length
0
TEXT
8
DIM
10
949.210244
20
284.756200
30
0.0
40
3.5000
1
14.0000
72
2
73
0
11
949.210244
21
284.756200
31
0.0
0
TEXT
8
TEXT
10
799.152500
20
279.756200
30
0.0
40
3.5000
1
slot mouth on a plane normal to x, 8 edge(s) — depth
0
TEXT
8
DIM
10
949.210244
20
279.756200
30
0.0
40
3.5000
1
2.4500
72
2
73
0
11
949.210244
21
279.756200
31
0.0
0
TEXT
8
TEXT
10
799.152500
20
274.756200
30
0.0
40
3.5000
1
slot mouth on a plane normal to x, 8 edge(s) — position from
0
TEXT
8
TEXT
10
799.152500
20
269.756200
30
0.0
40
3.5000
1
the y datum
0
TEXT
8
DIM
10
949.210244
20
269.756200
30
0.0
40
3.5000
1
18.0000
72
2
73
0
11
949.210244
21
269.756200
31
0.0
0
TEXT
8
TEXT
10
799.152500
20
264.756200
30
0.0
40
3.5000
1
slot mouth on a plane normal to x, 8 edge(s) — position from
0
TEXT
8
TEXT
10
799.152500
20
259.756200
30
0.0
40
3.5000
1
the z datum
0
TEXT
8
DIM
10
949.210244
20
259.756200
30
0.0
40
3.5000
1
28.2230
72
2
73
0
11
949.210244
21
259.756200
31
0.0
0
TEXT
8
TEXT
10
1025.260462
20
374.756200
30
0.0
40
3.5000
1
CANNOT DETERMINE — wall: A4 wants a wall thickness at every distinct
0
TEXT
8
TEXT
10
1025.260462
20
369.756200
30
0.0
40
3.5000
1
station; only the thinnest wall is measurable off the solid without a
0
TEXT
8
TEXT
10
1025.260462
20
364.756200
30
0.0
40
3.5000
1
station list SETTLED BY: the drawer declaring the section stations it
0
TEXT
8
TEXT
10
1025.260462
20
359.756200
30
0.0
40
3.5000
1
dimensions, or a section per shell region
0
LINE
8
VISIBLE
10
367.946500
20
511.106000
30
0.0
11
367.946500
21
529.660000
31
0.0
0
LINE
8
VISIBLE
10
367.946500
20
511.106000
30
0.0
11
407.946500
21
511.106000
31
0.0
0
LINE
8
VISIBLE
10
367.946500
20
529.660000
30
0.0
11
368.117603
21
532.270524
31
0.0
0
LINE
8
VISIBLE
10
407.946500
20
529.660000
30
0.0
11
407.946500
21
511.106000
31
0.0
0
LINE
8
VISIBLE
10
368.117603
20
532.270524
30
0.0
11
368.627983
21
534.836381
31
0.0
0
LINE
8
VISIBLE
10
407.775397
20
532.270524
30
0.0
11
407.946500
21
529.660000
31
0.0
0
LINE
8
VISIBLE
10
368.627983
20
534.836381
30
0.0
11
369.468909
21
537.313669
31
0.0
0
LINE
8
VISIBLE
10
407.265017
20
534.836381
30
0.0
11
407.775397
21
532.270524
31
0.0
0
LINE
8
VISIBLE
10
369.468909
20
537.313669
30
0.0
11
370.625992
21
539.660000
31
0.0
0
LINE
8
VISIBLE
10
406.424091
20
537.313669
30
0.0
11
407.265017
21
534.836381
31
0.0
0
LINE
8
VISIBLE
10
370.625992
20
539.660000
30
0.0
11
372.079433
21
541.835229
31
0.0
0
LINE
8
VISIBLE
10
405.267008
20
539.660000
30
0.0
11
406.424091
21
537.313669
31
0.0
0
LINE
8
VISIBLE
10
372.079433
20
541.835229
30
0.0
11
373.804364
21
543.802136
31
0.0
0
LINE
8
VISIBLE
10
403.813567
20
541.835229
30
0.0
11
405.267008
21
539.660000
31
0.0
0
LINE
8
VISIBLE
10
373.804364
20
543.802136
30
0.0
11
375.771271
21
545.527067
31
0.0
0
LINE
8
VISIBLE
10
402.088636
20
543.802136
30
0.0
11
403.813567
21
541.835229
31
0.0
0
LINE
8
VISIBLE
10
375.771271
20
545.527067
30
0.0
11
377.946500
21
546.980508
31
0.0
0
LINE
8
VISIBLE
10
400.121729
20
545.527067
30
0.0
11
402.088636
21
543.802136
31
0.0
0
LINE
8
VISIBLE
10
377.946500
20
546.980508
30
0.0
11
380.292831
21
548.137591
31
0.0
0
LINE
8
VISIBLE
10
397.946500
20
546.980508
30
0.0
11
400.121729
21
545.527067
31
0.0
0
LINE
8
VISIBLE
10
380.292831
20
548.137591
30
0.0
11
382.770119
21
548.978517
31
0.0
0
LINE
8
VISIBLE
10
395.600169
20
548.137591
30
0.0
11
397.946500
21
546.980508
31
0.0
0
LINE
8
VISIBLE
10
382.770119
20
548.978517
30
0.0
11
385.335976
21
549.488897
31
0.0
0
LINE
8
VISIBLE
10
393.122881
20
548.978517
30
0.0
11
395.600169
21
548.137591
31
0.0
0
LINE
8
VISIBLE
10
385.335976
20
549.488897
30
0.0
11
387.946500
21
549.660000
31
0.0
0
LINE
8
VISIBLE
10
390.557024
20
549.488897
30
0.0
11
393.122881
21
548.978517
31
0.0
0
LINE
8
VISIBLE
10
387.946500
20
549.660000
30
0.0
11
390.557024
21
549.488897
31
0.0
0
CIRCLE
8
VISIBLE
10
387.946500
20
529.660000
30
0.0
40
15.900000
0
CIRCLE
8
VISIBLE
10
379.460500
20
521.174000
30
0.0
40
2.200000
0
CIRCLE
8
VISIBLE
10
379.460500
20
538.146000
30
0.0
40
2.200000
0
CIRCLE
8
VISIBLE
10
396.432500
20
521.174000
30
0.0
40
2.200000
0
CIRCLE
8
VISIBLE
10
387.946500
20
529.660000
30
0.0
40
6.000000
0
CIRCLE
8
VISIBLE
10
396.432500
20
538.146000
30
0.0
40
2.200000
0
ARC
8
VISIBLE
10
403.946500
20
490.660000
30
0.0
40
2.400000
50
294.624318
51
65.375682
0
ARC
8
VISIBLE
10
403.946500
20
490.660000
30
0.0
40
2.400000
50
245.375682
51
294.624318
0
ARC
8
VISIBLE
10
403.946500
20
490.660000
30
0.0
40
2.400000
50
114.624318
51
245.375682
0
LINE
8
VISIBLE
10
383.174861
20
509.254050
30
0.0
11
383.004144
21
508.691271
31
0.0
0
ARC
8
VISIBLE
10
371.946500
20
490.660000
30
0.0
40
2.400000
50
294.624318
51
65.375682
0
ARC
8
VISIBLE
10
371.946500
20
490.660000
30
0.0
40
2.400000
50
245.375682
51
294.624318
0
ARC
8
VISIBLE
10
371.946500
20
490.660000
30
0.0
40
2.400000
50
114.624318
51
245.375682
0
LINE
8
VISIBLE
10
407.946500
20
511.106000
30
0.0
11
407.946500
21
474.106000
31
0.0
0
LINE
8
VISIBLE
10
390.531771
20
511.048356
30
0.0
11
389.946500
21
511.106000
31
0.0
0
LINE
8
VISIBLE
10
407.946500
20
474.106000
30
0.0
11
400.446500
21
445.660000
31
0.0
0
LINE
8
VISIBLE
10
391.094550
20
510.877639
30
0.0
11
390.531771
21
511.048356
31
0.0
0
LINE
8
VISIBLE
10
400.446500
20
445.660000
30
0.0
11
399.946500
21
445.660000
31
0.0
0
LINE
8
VISIBLE
10
391.613211
20
510.600409
30
0.0
11
391.094550
21
510.877639
31
0.0
0
LINE
8
VISIBLE
10
399.946500
20
445.660000
30
0.0
11
399.843838
21
444.093686
31
0.0
0
LINE
8
VISIBLE
10
392.067820
20
510.227320
30
0.0
11
391.613211
21
510.600409
31
0.0
0
LINE
8
VISIBLE
10
399.843838
20
444.093686
30
0.0
11
399.537610
21
442.554171
31
0.0
0
LINE
8
VISIBLE
10
392.440909
20
509.772711
30
0.0
11
392.067820
21
510.227320
31
0.0
0
LINE
8
VISIBLE
10
399.537610
20
442.554171
30
0.0
11
399.033054
21
441.067799
31
0.0
0
LINE
8
VISIBLE
10
392.718139
20
509.254050
30
0.0
11
392.440909
21
509.772711
31
0.0
0
LINE
8
VISIBLE
10
399.033054
20
441.067799
30
0.0
11
398.338805
21
439.660000
31
0.0
0
LINE
8
VISIBLE
10
392.888856
20
508.691271
30
0.0
11
392.718139
21
509.254050
31
0.0
0
LINE
8
VISIBLE
10
398.338805
20
439.660000
30
0.0
11
397.466740
21
438.354863
31
0.0
0
LINE
8
VISIBLE
10
392.946500
20
508.106000
30
0.0
11
392.888856
21
508.691271
31
0.0
0
LINE
8
VISIBLE
10
397.466740
20
438.354863
30
0.0
11
396.431781
21
437.174719
31
0.0
0
LINE
8
VISIBLE
10
392.946500
20
491.106000
30
0.0
11
392.946500
21
508.106000
31
0.0
0
LINE
8
VISIBLE
10
396.431781
20
437.174719
30
0.0
11
395.251637
21
436.139760
31
0.0
0
LINE
8
VISIBLE
10
392.888856
20
490.520729
30
0.0
11
392.946500
21
491.106000
31
0.0
0
LINE
8
VISIBLE
10
395.251637
20
436.139760
30
0.0
11
393.946500
21
435.267695
31
0.0
0
LINE
8
VISIBLE
10
392.718139
20
489.957950
30
0.0
11
392.888856
21
490.520729
31
0.0
0
LINE
8
VISIBLE
10
393.946500
20
435.267695
30
0.0
11
392.538701
21
434.573446
31
0.0
0
LINE
8
VISIBLE
10
392.440909
20
489.439289
30
0.0
11
392.718139
21
489.957950
31
0.0
0
LINE
8
VISIBLE
10
392.538701
20
434.573446
30
0.0
11
391.052329
21
434.068890
31
0.0
0
LINE
8
VISIBLE
10
392.067820
20
488.984680
30
0.0
11
392.440909
21
489.439289
31
0.0
0
LINE
8
VISIBLE
10
391.052329
20
434.068890
30
0.0
11
389.512814
21
433.762662
31
0.0
0
LINE
8
VISIBLE
10
391.613211
20
488.611591
30
0.0
11
392.067820
21
488.984680
31
0.0
0
LINE
8
VISIBLE
10
389.512814
20
433.762662
30
0.0
11
387.946500
21
433.660000
31
0.0
0
LINE
8
VISIBLE
10
391.094550
20
488.334361
30
0.0
11
391.613211
21
488.611591
31
0.0
0
LINE
8
VISIBLE
10
387.946500
20
433.660000
30
0.0
11
386.380186
21
433.762662
31
0.0
0
LINE
8
VISIBLE
10
390.531771
20
488.163644
30
0.0
11
391.094550
21
488.334361
31
0.0
0
LINE
8
VISIBLE
10
386.380186
20
433.762662
30
0.0
11
384.840671
21
434.068890
31
0.0
0
LINE
8
VISIBLE
10
389.946500
20
488.106000
30
0.0
11
390.531771
21
488.163644
31
0.0
0
LINE
8
VISIBLE
10
384.840671
20
434.068890
30
0.0
11
383.354299
21
434.573446
31
0.0
0
LINE
8
VISIBLE
10
385.946500
20
488.106000
30
0.0
11
389.946500
21
488.106000
31
0.0
0
LINE
8
VISIBLE
10
383.354299
20
434.573446
30
0.0
11
381.946500
21
435.267695
31
0.0
0
LINE
8
VISIBLE
10
385.361229
20
488.163644
30
0.0
11
385.946500
21
488.106000
31
0.0
0
LINE
8
VISIBLE
10
381.946500
20
435.267695
30
0.0
11
380.641363
21
436.139760
31
0.0
0
LINE
8
VISIBLE
10
384.798450
20
488.334361
30
0.0
11
385.361229
21
488.163644
31
0.0
0
LINE
8
VISIBLE
10
380.641363
20
436.139760
30
0.0
11
379.461219
21
437.174719
31
0.0
0
LINE
8
VISIBLE
10
384.279789
20
488.611591
30
0.0
11
384.798450
21
488.334361
31
0.0
0
LINE
8
VISIBLE
10
379.461219
20
437.174719
30
0.0
11
378.426260
21
438.354863
31
0.0
0
LINE
8
VISIBLE
10
383.825180
20
488.984680
30
0.0
11
384.279789
21
488.611591
31
0.0
0
LINE
8
VISIBLE
10
378.426260
20
438.354863
30
0.0
11
377.554195
21
439.660000
31
0.0
0
LINE
8
VISIBLE
10
383.452091
20
489.439289
30
0.0
11
383.825180
21
488.984680
31
0.0
0
LINE
8
VISIBLE
10
377.554195
20
439.660000
30
0.0
11
376.859946
21
441.067799
31
0.0
0
LINE
8
VISIBLE
10
383.174861
20
489.957950
30
0.0
11
383.452091
21
489.439289
31
0.0
0
LINE
8
VISIBLE
10
376.859946
20
441.067799
30
0.0
11
376.355390
21
442.554171
31
0.0
0
LINE
8
VISIBLE
10
383.004144
20
490.520729
30
0.0
11
383.174861
21
489.957950
31
0.0
0
LINE
8
VISIBLE
10
376.355390
20
442.554171
30
0.0
11
376.049162
21
444.093686
31
0.0
0
LINE
8
VISIBLE
10
382.946500
20
491.106000
30
0.0
11
383.004144
21
490.520729
31
0.0
0
LINE
8
VISIBLE
10
376.049162
20
444.093686
30
0.0
11
375.946500
21
445.660000
31
0.0
0
LINE
8
VISIBLE
10
382.946500
20
508.106000
30
0.0
11
382.946500
21
491.106000
31
0.0
0
LINE
8
VISIBLE
10
375.946500
20
445.660000
30
0.0
11
375.446500
21
445.660000
31
0.0
0
LINE
8
VISIBLE
10
383.004144
20
508.691271
30
0.0
11
382.946500
21
508.106000
31
0.0
0
LINE
8
VISIBLE
10
375.446500
20
445.660000
30
0.0
11
367.946500
21
474.106000
31
0.0
0
LINE
8
VISIBLE
10
367.946500
20
474.106000
30
0.0
11
367.946500
21
511.106000
31
0.0
0
LINE
8
VISIBLE
10
383.452091
20
509.772711
30
0.0
11
383.174861
21
509.254050
31
0.0
0
LINE
8
VISIBLE
10
383.825180
20
510.227320
30
0.0
11
383.452091
21
509.772711
31
0.0
0
LINE
8
VISIBLE
10
385.946500
20
511.106000
30
0.0
11
385.361229
21
511.048356
31
0.0
0
LINE
8
VISIBLE
10
384.279789
20
510.600409
30
0.0
11
383.825180
21
510.227320
31
0.0
0
LINE
8
VISIBLE
10
385.361229
20
511.048356
30
0.0
11
384.798450
21
510.877639
31
0.0
0
LINE
8
VISIBLE
10
384.798450
20
510.877639
30
0.0
11
384.279789
21
510.600409
31
0.0
0
LINE
8
VISIBLE
10
370.946500
20
476.106000
30
0.0
11
370.946500
21
488.478258
31
0.0
0
LINE
8
VISIBLE
10
372.946500
20
476.106000
30
0.0
11
370.946500
21
476.106000
31
0.0
0
LINE
8
VISIBLE
10
372.946500
20
476.106000
30
0.0
11
372.946500
21
488.478258
31
0.0
0
LINE
8
VISIBLE
10
380.946500
20
493.106000
30
0.0
11
378.946500
21
493.106000
31
0.0
0
LINE
8
VISIBLE
10
378.946500
20
493.106000
30
0.0
11
378.946500
21
504.106000
31
0.0
0
LINE
8
VISIBLE
10
380.946500
20
493.106000
30
0.0
11
380.946500
21
504.106000
31
0.0
0
LINE
8
VISIBLE
10
380.946500
20
504.106000
30
0.0
11
378.946500
21
504.106000
31
0.0
0
CIRCLE
8
VISIBLE
10
387.946500
20
445.660000
30
0.0
40
10.000000
0
LINE
8
VISIBLE
10
396.946500
20
493.106000
30
0.0
11
394.946500
21
493.106000
31
0.0
0
LINE
8
VISIBLE
10
394.946500
20
493.106000
30
0.0
11
394.946500
21
504.106000
31
0.0
0
LINE
8
VISIBLE
10
396.946500
20
493.106000
30
0.0
11
396.946500
21
504.106000
31
0.0
0
LINE
8
VISIBLE
10
396.946500
20
504.106000
30
0.0
11
394.946500
21
504.106000
31
0.0
0
LINE
8
VISIBLE
10
402.946500
20
476.106000
30
0.0
11
402.946500
21
488.478258
31
0.0
0
LINE
8
VISIBLE
10
404.946500
20
476.106000
30
0.0
11
402.946500
21
476.106000
31
0.0
0
LINE
8
VISIBLE
10
404.946500
20
476.106000
30
0.0
11
404.946500
21
488.478258
31
0.0
0
LINE
8
VISIBLE
10
372.946500
20
492.841742
30
0.0
11
372.946500
21
493.106000
31
0.0
0
LINE
8
VISIBLE
10
370.946500
20
492.841742
30
0.0
11
370.946500
21
493.106000
31
0.0
0
LINE
8
VISIBLE
10
404.946500
20
492.841742
30
0.0
11
404.946500
21
493.106000
31
0.0
0
LINE
8
VISIBLE
10
402.946500
20
492.841742
30
0.0
11
402.946500
21
493.106000
31
0.0
0
CIRCLE
8
VISIBLE
10
387.946500
20
445.660000
30
0.0
40
8.000000
0
LINE
8
VISIBLE
10
372.946500
20
493.106000
30
0.0
11
370.946500
21
493.106000
31
0.0
0
LINE
8
VISIBLE
10
404.946500
20
493.106000
30
0.0
11
402.946500
21
493.106000
31
0.0
0
LINE
8
VISIBLE
10
372.946500
20
493.106000
30
0.0
11
372.946500
21
504.106000
31
0.0
0
LINE
8
VISIBLE
10
372.946500
20
504.106000
30
0.0
11
370.946500
21
504.106000
31
0.0
0
LINE
8
VISIBLE
10
370.946500
20
493.106000
30
0.0
11
370.946500
21
504.106000
31
0.0
0
LINE
8
VISIBLE
10
404.946500
20
493.106000
30
0.0
11
404.946500
21
504.106000
31
0.0
0
LINE
8
VISIBLE
10
404.946500
20
504.106000
30
0.0
11
402.946500
21
504.106000
31
0.0
0
LINE
8
VISIBLE
10
402.946500
20
493.106000
30
0.0
11
402.946500
21
504.106000
31
0.0
0
CIRCLE
8
VISIBLE
10
387.946500
20
445.660000
30
0.0
40
2.700000
0
CIRCLE
8
VISIBLE
10
387.946500
20
445.660000
30
0.0
40
4.920000
0
ARC
8
VISIBLE
10
403.946501
20
490.660001
30
0.0
40
2.399999
50
65.375699
51
114.624352
0
ARC
8
VISIBLE
10
371.946514
20
490.659984
30
0.0
40
2.400016
50
65.376160
51
114.624469
0
LINE
8
HIDDEN
10
407.946500
20
493.384995
30
0.0
11
407.946500
21
487.935005
31
0.0
0
ARC
8
HIDDEN
10
403.946500
20
490.660000
30
0.0
40
4.840000
50
34.264603
51
90.000000
0
CIRCLE
8
HIDDEN
10
403.946500
20
490.660000
30
0.0
40
2.400000
0
ARC
8
HIDDEN
10
371.946500
20
490.660000
30
0.0
40
4.840000
50
90.000000
51
145.735397
0
LINE
8
HIDDEN
10
375.546500
20
519.163875
30
0.0
11
375.546500
21
493.895058
31
0.0
0
LINE
8
HIDDEN
10
375.546500
20
528.726000
30
0.0
11
375.546500
21
523.184125
31
0.0
0
LINE
8
HIDDEN
10
375.784378
20
531.141218
30
0.0
11
375.546500
21
528.726000
31
0.0
0
LINE
8
HIDDEN
10
376.488871
20
533.463621
30
0.0
11
375.784378
21
531.141218
31
0.0
0
LINE
8
HIDDEN
10
377.030873
20
534.477634
30
0.0
11
376.488871
21
533.463621
31
0.0
0
LINE
8
HIDDEN
10
385.511282
20
540.868122
30
0.0
11
383.345719
21
540.211205
31
0.0
0
LINE
8
HIDDEN
10
387.926500
20
541.106000
30
0.0
11
385.511282
21
540.868122
31
0.0
0
LINE
8
HIDDEN
10
387.966500
20
541.106000
30
0.0
11
387.926500
21
541.106000
31
0.0
0
LINE
8
HIDDEN
10
390.381718
20
540.868122
30
0.0
11
387.966500
21
541.106000
31
0.0
0
LINE
8
HIDDEN
10
392.547281
20
540.211205
30
0.0
11
390.381718
21
540.868122
31
0.0
0
LINE
8
HIDDEN
10
399.404129
20
533.463621
30
0.0
11
398.862127
21
534.477634
31
0.0
0
LINE
8
HIDDEN
10
400.108622
20
531.141218
30
0.0
11
399.404129
21
533.463621
31
0.0
0
LINE
8
HIDDEN
10
400.346500
20
528.726000
30
0.0
11
400.108622
21
531.141218
31
0.0
0
LINE
8
HIDDEN
10
400.346500
20
523.184125
30
0.0
11
400.346500
21
528.726000
31
0.0
0
LINE
8
HIDDEN
10
400.346500
20
493.895058
30
0.0
11
400.346500
21
519.163875
31
0.0
0
ARC
8
HIDDEN
10
403.946500
20
490.660000
30
0.0
40
4.840000
50
90.000000
51
138.056273
0
ARC
8
HIDDEN
10
403.946500
20
490.660000
30
0.0
40
4.840000
50
34.264603
51
90.000000
0
LINE
8
HIDDEN
10
407.946500
20
529.660000
30
0.0
11
407.946500
21
493.384995
31
0.0
0
LINE
8
HIDDEN
10
367.946500
20
493.384995
30
0.0
11
367.946500
21
529.660000
31
0.0
0
LINE
8
HIDDEN
10
375.546500
20
493.895058
30
0.0
11
375.546500
21
519.163875
31
0.0
0
ARC
8
HIDDEN
10
379.460500
20
521.174000
30
0.0
40
4.400000
50
90.000000
51
152.816184
0
ARC
8
HIDDEN
10
379.460500
20
521.174000
30
0.0
40
4.400000
50
207.183816
51
90.000000
0
CIRCLE
8
HIDDEN
10
379.460500
20
521.174000
30
0.0
40
4.400000
0
LINE
8
HIDDEN
10
375.546500
20
523.184125
30
0.0
11
375.546500
21
528.726000
31
0.0
0
LINE
8
HIDDEN
10
375.546500
20
528.726000
30
0.0
11
375.784378
21
531.141218
31
0.0
0
LINE
8
HIDDEN
10
375.784378
20
531.141218
30
0.0
11
376.488871
21
533.463621
31
0.0
0
LINE
8
HIDDEN
10
376.488871
20
533.463621
30
0.0
11
377.030873
21
534.477634
31
0.0
0
ARC
8
HIDDEN
10
379.460500
20
538.146000
30
0.0
40
4.400000
50
236.482748
51
27.993077
0
CIRCLE
8
HIDDEN
10
379.460500
20
538.146000
30
0.0
40
4.400000
0
LINE
8
HIDDEN
10
383.345719
20
540.211205
30
0.0
11
385.511282
21
540.868122
31
0.0
0
LINE
8
HIDDEN
10
385.511282
20
540.868122
30
0.0
11
387.926500
21
541.106000
31
0.0
0
LINE
8
HIDDEN
10
387.926500
20
541.106000
30
0.0
11
387.966500
21
541.106000
31
0.0
0
LINE
8
HIDDEN
10
387.966500
20
541.106000
30
0.0
11
390.381718
21
540.868122
31
0.0
0
LINE
8
HIDDEN
10
390.381718
20
540.868122
30
0.0
11
392.547281
21
540.211205
31
0.0
0
ARC
8
HIDDEN
10
396.432500
20
538.146000
30
0.0
40
4.400000
50
152.006923
51
303.517252
0
CIRCLE
8
HIDDEN
10
396.432500
20
538.146000
30
0.0
40
4.400000
0
LINE
8
HIDDEN
10
398.862127
20
534.477634
30
0.0
11
399.404129
21
533.463621
31
0.0
0
LINE
8
HIDDEN
10
399.404129
20
533.463621
30
0.0
11
400.108622
21
531.141218
31
0.0
0
LINE
8
HIDDEN
10
400.108622
20
531.141218
30
0.0
11
400.346500
21
528.726000
31
0.0
0
LINE
8
HIDDEN
10
400.346500
20
528.726000
30
0.0
11
400.346500
21
523.184125
31
0.0
0
ARC
8
HIDDEN
10
396.432500
20
521.174000
30
0.0
40
4.400000
50
90.000000
51
332.816184
0
ARC
8
HIDDEN
10
396.432500
20
521.174000
30
0.0
40
4.400000
50
27.183816
51
90.000000
0
CIRCLE
8
HIDDEN
10
396.432500
20
521.174000
30
0.0
40
4.400000
0
LINE
8
HIDDEN
10
400.346500
20
519.163875
30
0.0
11
400.346500
21
493.895058
31
0.0
0
LINE
8
HIDDEN
10
385.511282
20
468.343878
30
0.0
11
383.188879
21
469.048371
31
0.0
0
LINE
8
HIDDEN
10
387.926500
20
468.106000
30
0.0
11
385.511282
21
468.343878
31
0.0
0
LINE
8
HIDDEN
10
387.966500
20
468.106000
30
0.0
11
387.926500
21
468.106000
31
0.0
0
LINE
8
HIDDEN
10
390.381718
20
468.343878
30
0.0
11
387.966500
21
468.106000
31
0.0
0
LINE
8
HIDDEN
10
392.704121
20
469.048371
30
0.0
11
390.381718
21
468.343878
31
0.0
0
LINE
8
HIDDEN
10
394.844459
20
470.192406
30
0.0
11
392.704121
21
469.048371
31
0.0
0
LINE
8
HIDDEN
10
396.720482
20
471.732018
30
0.0
11
394.844459
21
470.192406
31
0.0
0
LINE
8
HIDDEN
10
398.260094
20
473.608041
30
0.0
11
396.720482
21
471.732018
31
0.0
0
LINE
8
HIDDEN
10
399.404129
20
475.748379
30
0.0
11
398.260094
21
473.608041
31
0.0
0
LINE
8
HIDDEN
10
400.108622
20
478.070782
30
0.0
11
399.404129
21
475.748379
31
0.0
0
LINE
8
HIDDEN
10
400.346500
20
480.486000
30
0.0
11
400.108622
21
478.070782
31
0.0
0
LINE
8
HIDDEN
10
400.346500
20
487.424942
30
0.0
11
400.346500
21
480.486000
31
0.0
0
ARC
8
HIDDEN
10
403.946500
20
490.660000
30
0.0
40
4.840000
50
138.056273
51
221.943727
0
ARC
8
HIDDEN
10
371.946500
20
490.660000
30
0.0
40
4.840000
50
318.056273
51
41.943727
0
LINE
8
HIDDEN
10
375.546500
20
480.486000
30
0.0
11
375.546500
21
487.424942
31
0.0
0
LINE
8
HIDDEN
10
375.784378
20
478.070782
30
0.0
11
375.546500
21
480.486000
31
0.0
0
LINE
8
HIDDEN
10
376.488871
20
475.748379
30
0.0
11
375.784378
21
478.070782
31
0.0
0
LINE
8
HIDDEN
10
377.632906
20
473.608041
30
0.0
11
376.488871
21
475.748379
31
0.0
0
LINE
8
HIDDEN
10
379.172518
20
471.732018
30
0.0
11
377.632906
21
473.608041
31
0.0
0
LINE
8
HIDDEN
10
381.048541
20
470.192406
30
0.0
11
379.172518
21
471.732018
31
0.0
0
LINE
8
HIDDEN
10
383.188879
20
469.048371
30
0.0
11
381.048541
21
470.192406
31
0.0
0
LINE
8
HIDDEN
10
389.946500
20
511.106000
30
0.0
11
385.946500
21
511.106000
31
0.0
0
LINE
8
HIDDEN
10
367.946500
20
474.106000
30
0.0
11
367.946500
21
487.935005
31
0.0
0
ARC
8
HIDDEN
10
371.946500
20
490.660000
30
0.0
40
4.840000
50
214.264603
51
318.056273
0
LINE
8
HIDDEN
10
375.546500
20
487.424942
30
0.0
11
375.546500
21
480.486000
31
0.0
0
LINE
8
HIDDEN
10
375.546500
20
480.486000
30
0.0
11
375.784378
21
478.070782
31
0.0
0
LINE
8
HIDDEN
10
375.784378
20
478.070782
30
0.0
11
376.488871
21
475.748379
31
0.0
0
LINE
8
HIDDEN
10
376.488871
20
475.748379
30
0.0
11
377.632906
21
473.608041
31
0.0
0
LINE
8
HIDDEN
10
377.632906
20
473.608041
30
0.0
11
379.172518
21
471.732018
31
0.0
0
LINE
8
HIDDEN
10
379.172518
20
471.732018
30
0.0
11
381.048541
21
470.192406
31
0.0
0
LINE
8
HIDDEN
10
381.048541
20
470.192406
30
0.0
11
383.188879
21
469.048371
31
0.0
0
LINE
8
HIDDEN
10
383.188879
20
469.048371
30
0.0
11
385.511282
21
468.343878
31
0.0
0
LINE
8
HIDDEN
10
385.511282
20
468.343878
30
0.0
11
387.926500
21
468.106000
31
0.0
0
LINE
8
HIDDEN
10
387.926500
20
468.106000
30
0.0
11
387.966500
21
468.106000
31
0.0
0
LINE
8
HIDDEN
10
387.966500
20
468.106000
30
0.0
11
390.381718
21
468.343878
31
0.0
0
LINE
8
HIDDEN
10
390.381718
20
468.343878
30
0.0
11
392.704121
21
469.048371
31
0.0
0
LINE
8
HIDDEN
10
392.704121
20
469.048371
30
0.0
11
394.844459
21
470.192406
31
0.0
0
LINE
8
HIDDEN
10
394.844459
20
470.192406
30
0.0
11
396.720482
21
471.732018
31
0.0
0
LINE
8
HIDDEN
10
396.720482
20
471.732018
30
0.0
11
398.260094
21
473.608041
31
0.0
0
LINE
8
HIDDEN
10
398.260094
20
473.608041
30
0.0
11
399.404129
21
475.748379
31
0.0
0
LINE
8
HIDDEN
10
399.404129
20
475.748379
30
0.0
11
400.108622
21
478.070782
31
0.0
0
LINE
8
HIDDEN
10
400.108622
20
478.070782
30
0.0
11
400.346500
21
480.486000
31
0.0
0
LINE
8
HIDDEN
10
400.346500
20
480.486000
30
0.0
11
400.346500
21
487.424942
31
0.0
0
ARC
8
HIDDEN
10
403.946500
20
490.660000
30
0.0
40
4.840000
50
221.943727
51
325.735397
0
LINE
8
HIDDEN
10
407.946500
20
487.935005
30
0.0
11
407.946500
21
474.106000
31
0.0
0
ARC
8
HIDDEN
10
371.946500
20
490.660000
30
0.0
40
4.840000
50
90.000000
51
145.735397
0
LINE
8
HIDDEN
10
367.946500
20
487.935005
30
0.0
11
367.946500
21
493.384995
31
0.0
0
ARC
8
HIDDEN
10
371.946500
20
490.660000
30
0.0
40
4.840000
50
214.264603
51
90.000000
0
CIRCLE
8
HIDDEN
10
371.946500
20
490.660000
30
0.0
40
2.400000
0
LINE
8
HIDDEN
10
407.946500
20
511.106000
30
0.0
11
389.946500
21
511.106000
31
0.0
0
LINE
8
HIDDEN
10
385.946500
20
511.106000
30
0.0
11
367.946500
21
511.106000
31
0.0
0
LINE
8
HIDDEN
10
370.946500
20
492.841742
30
0.0
11
370.946500
21
504.106000
31
0.0
0
LINE
8
HIDDEN
10
372.946500
20
492.841742
30
0.0
11
372.946500
21
504.106000
31
0.0
0
LINE
8
HIDDEN
10
402.946500
20
492.841742
30
0.0
11
402.946500
21
504.106000
31
0.0
0
LINE
8
HIDDEN
10
404.946500
20
492.841742
30
0.0
11
404.946500
21
504.106000
31
0.0
0
CIRCLE
8
HIDDEN
10
387.946500
20
445.660000
30
0.0
40
5.500000
0
CIRCLE
8
HIDDEN
10
387.946500
20
445.660000
30
0.0
40
5.500000
0
ARC
8
HIDDEN
10
403.946500
20
490.660000
30
0.0
40
4.840000
50
90.000000
51
325.735397
0
ARC
8
HIDDEN
10
371.946499
20
490.660000
30
0.0
40
4.840001
50
41.943721
51
89.999984
0
ARC
8
HIDDEN
10
379.460502
20
521.173999
30
0.0
40
4.400002
50
152.816181
51
207.183793
0
ARC
8
HIDDEN
10
379.460500
20
538.146000
30
0.0
40
4.400000
50
27.993077
51
236.482748
0
ARC
8
HIDDEN
10
396.432500
20
538.146000
30
0.0
40
4.400000
50
303.517252
51
152.006923
0
ARC
8
HIDDEN
10
396.432501
20
521.173999
30
0.0
40
4.399999
50
332.816186
51
27.183830
0
LINE
8
VISIBLE
10
763.658292
20
529.660000
30
0.0
11
763.658292
21
511.106000
31
0.0
0
LINE
8
VISIBLE
10
763.658292
20
532.270524
30
0.0
11
763.658292
21
529.660000
31
0.0
0
LINE
8
VISIBLE
10
763.658292
20
534.836381
30
0.0
11
763.658292
21
532.270524
31
0.0
0
LINE
8
VISIBLE
10
763.658292
20
537.313669
30
0.0
11
763.658292
21
534.836381
31
0.0
0
LINE
8
VISIBLE
10
763.658292
20
539.660000
30
0.0
11
763.658292
21
537.313669
31
0.0
0
LINE
8
VISIBLE
10
763.658292
20
541.835229
30
0.0
11
763.658292
21
539.660000
31
0.0
0
LINE
8
VISIBLE
10
763.658292
20
543.802136
30
0.0
11
763.658292
21
541.835229
31
0.0
0
LINE
8
VISIBLE
10
763.658292
20
545.527067
30
0.0
11
763.658292
21
543.802136
31
0.0
0
LINE
8
VISIBLE
10
763.658292
20
546.980508
30
0.0
11
763.658292
21
545.527067
31
0.0
0
LINE
8
VISIBLE
10
763.658292
20
548.137591
30
0.0
11
763.658292
21
546.980508
31
0.0
0
LINE
8
VISIBLE
10
763.658292
20
548.978517
30
0.0
11
763.658292
21
548.137591
31
0.0
0
LINE
8
VISIBLE
10
763.658292
20
549.488897
30
0.0
11
763.658292
21
548.978517
31
0.0
0
LINE
8
VISIBLE
10
763.658292
20
549.660000
30
0.0
11
763.658292
21
549.488897
31
0.0
0
LINE
8
VISIBLE
10
763.658292
20
545.560000
30
0.0
11
759.758292
21
545.560000
31
0.0
0
LINE
8
VISIBLE
10
759.758292
20
545.560000
30
0.0
11
759.758292
21
513.760000
31
0.0
0
LINE
8
VISIBLE
10
768.258292
20
487.935005
30
0.0
11
768.258292
21
488.260000
31
0.0
0
LINE
8
VISIBLE
10
768.258292
20
493.060000
30
0.0
11
768.258292
21
493.384995
31
0.0
0
LINE
8
VISIBLE
10
768.258292
20
493.384995
30
0.0
11
768.258292
21
487.935005
31
0.0
0
LINE
8
VISIBLE
10
764.658292
20
492.841742
30
0.0
11
763.658292
21
492.841742
31
0.0
0
LINE
8
VISIBLE
10
764.658292
20
488.478258
30
0.0
11
763.658292
21
488.478258
31
0.0
0
LINE
8
VISIBLE
10
769.258292
20
529.660000
30
0.0
11
769.258292
21
493.384995
31
0.0
0
LINE
8
VISIBLE
10
769.258292
20
532.270524
30
0.0
11
769.258292
21
529.660000
31
0.0
0
LINE
8
VISIBLE
10
769.258292
20
534.836381
30
0.0
11
769.258292
21
532.270524
31
0.0
0
LINE
8
VISIBLE
10
769.258292
20
537.313669
30
0.0
11
769.258292
21
534.836381
31
0.0
0
LINE
8
VISIBLE
10
769.258292
20
539.660000
30
0.0
11
769.258292
21
537.313669
31
0.0
0
LINE
8
VISIBLE
10
769.258292
20
541.835229
30
0.0
11
769.258292
21
539.660000
31
0.0
0
LINE
8
VISIBLE
10
769.258292
20
543.802136
30
0.0
11
769.258292
21
541.835229
31
0.0
0
LINE
8
VISIBLE
10
769.258292
20
545.527067
30
0.0
11
769.258292
21
543.802136
31
0.0
0
LINE
8
VISIBLE
10
769.258292
20
546.980508
30
0.0
11
769.258292
21
545.527067
31
0.0
0
LINE
8
VISIBLE
10
769.258292
20
548.137591
30
0.0
11
769.258292
21
546.980508
31
0.0
0
LINE
8
VISIBLE
10
769.258292
20
548.978517
30
0.0
11
769.258292
21
548.137591
31
0.0
0
LINE
8
VISIBLE
10
769.258292
20
549.488897
30
0.0
11
769.258292
21
548.978517
31
0.0
0
LINE
8
VISIBLE
10
769.258292
20
549.660000
30
0.0
11
769.258292
21
549.488897
31
0.0
0
LINE
8
VISIBLE
10
774.258292
20
541.106000
30
0.0
11
769.258292
21
541.106000
31
0.0
0
LINE
8
VISIBLE
10
774.258292
20
541.106000
30
0.0
11
774.258292
21
540.868122
31
0.0
0
LINE
8
VISIBLE
10
774.258292
20
540.868122
30
0.0
11
769.258292
21
540.868122
31
0.0
0
LINE
8
VISIBLE
10
774.258292
20
540.868122
30
0.0
11
774.258292
21
540.211205
31
0.0
0
LINE
8
VISIBLE
10
774.258292
20
540.211205
30
0.0
11
769.258292
21
540.211205
31
0.0
0
LINE
8
VISIBLE
10
774.258292
20
534.477634
30
0.0
11
774.258292
21
540.211205
31
0.0
0
LINE
8
VISIBLE
10
774.258292
20
534.477634
30
0.0
11
769.258292
21
534.477634
31
0.0
0
LINE
8
VISIBLE
10
774.258292
20
534.477634
30
0.0
11
774.258292
21
533.463621
31
0.0
0
LINE
8
VISIBLE
10
774.258292
20
533.463621
30
0.0
11
769.258292
21
533.463621
31
0.0
0
LINE
8
VISIBLE
10
774.258292
20
533.463621
30
0.0
11
774.258292
21
531.141218
31
0.0
0
LINE
8
VISIBLE
10
774.258292
20
531.141218
30
0.0
11
769.258292
21
531.141218
31
0.0
0
LINE
8
VISIBLE
10
774.258292
20
531.141218
30
0.0
11
774.258292
21
528.726000
31
0.0
0
LINE
8
VISIBLE
10
774.258292
20
528.726000
30
0.0
11
769.258292
21
528.726000
31
0.0
0
LINE
8
VISIBLE
10
774.258292
20
528.726000
30
0.0
11
774.258292
21
523.184125
31
0.0
0
LINE
8
VISIBLE
10
774.258292
20
523.184125
30
0.0
11
769.258292
21
523.184125
31
0.0
0
LINE
8
VISIBLE
10
774.258292
20
519.163875
30
0.0
11
774.258292
21
523.184125
31
0.0
0
LINE
8
VISIBLE
10
774.258292
20
519.163875
30
0.0
11
769.258292
21
519.163875
31
0.0
0
LINE
8
VISIBLE
10
774.258292
20
519.163875
30
0.0
11
774.258292
21
493.895058
31
0.0
0
LINE
8
VISIBLE
10
774.258292
20
493.895058
30
0.0
11
769.258292
21
493.895058
31
0.0
0
LINE
8
VISIBLE
10
774.258292
20
468.343878
30
0.0
11
774.258292
21
468.106000
31
0.0
0
LINE
8
VISIBLE
10
774.258292
20
469.048371
30
0.0
11
774.258292
21
468.343878
31
0.0
0
LINE
8
VISIBLE
10
774.258292
20
470.192406
30
0.0
11
774.258292
21
469.048371
31
0.0
0
LINE
8
VISIBLE
10
774.258292
20
471.732018
30
0.0
11
774.258292
21
470.192406
31
0.0
0
LINE
8
VISIBLE
10
774.258292
20
473.608041
30
0.0
11
774.258292
21
471.732018
31
0.0
0
LINE
8
VISIBLE
10
774.258292
20
475.748379
30
0.0
11
774.258292
21
473.608041
31
0.0
0
LINE
8
VISIBLE
10
774.258292
20
478.070782
30
0.0
11
774.258292
21
475.748379
31
0.0
0
LINE
8
VISIBLE
10
774.258292
20
480.486000
30
0.0
11
774.258292
21
478.070782
31
0.0
0
LINE
8
VISIBLE
10
774.258292
20
487.424942
30
0.0
11
774.258292
21
480.486000
31
0.0
0
LINE
8
VISIBLE
10
774.258292
20
487.424942
30
0.0
11
774.258292
21
493.895058
31
0.0
0
LINE
8
VISIBLE
10
769.258292
20
433.762662
30
0.0
11
769.258292
21
433.660000
31
0.0
0
LINE
8
VISIBLE
10
769.258292
20
434.068890
30
0.0
11
769.258292
21
433.762662
31
0.0
0
LINE
8
VISIBLE
10
769.258292
20
434.573446
30
0.0
11
769.258292
21
434.068890
31
0.0
0
LINE
8
VISIBLE
10
769.258292
20
435.267695
30
0.0
11
769.258292
21
434.573446
31
0.0
0
LINE
8
VISIBLE
10
769.258292
20
436.139760
30
0.0
11
769.258292
21
435.267695
31
0.0
0
LINE
8
VISIBLE
10
769.258292
20
437.174719
30
0.0
11
769.258292
21
436.139760
31
0.0
0
LINE
8
VISIBLE
10
769.258292
20
438.354863
30
0.0
11
769.258292
21
437.174719
31
0.0
0
LINE
8
VISIBLE
10
769.258292
20
439.660000
30
0.0
11
769.258292
21
438.354863
31
0.0
0
LINE
8
VISIBLE
10
769.258292
20
441.067799
30
0.0
11
769.258292
21
439.660000
31
0.0
0
LINE
8
VISIBLE
10
769.258292
20
442.554171
30
0.0
11
769.258292
21
441.067799
31
0.0
0
LINE
8
VISIBLE
10
769.258292
20
487.935005
30
0.0
11
769.258292
21
474.106000
31
0.0
0
LINE
8
VISIBLE
10
769.258292
20
444.093686
30
0.0
11
769.258292
21
442.554171
31
0.0
0
LINE
8
VISIBLE
10
769.258292
20
474.106000
30
0.0
11
769.258292
21
445.660000
31
0.0
0
LINE
8
VISIBLE
10
769.258292
20
445.660000
30
0.0
11
769.258292
21
444.093686
31
0.0
0
LINE
8
VISIBLE
10
774.258292
20
480.486000
30
0.0
11
769.258292
21
480.486000
31
0.0
0
LINE
8
VISIBLE
10
774.258292
20
487.424942
30
0.0
11
769.258292
21
487.424942
31
0.0
0
LINE
8
VISIBLE
10
774.258292
20
468.106000
30
0.0
11
769.258292
21
468.106000
31
0.0
0
LINE
8
VISIBLE
10
774.258292
20
468.343878
30
0.0
11
769.258292
21
468.343878
31
0.0
0
LINE
8
VISIBLE
10
774.258292
20
469.048371
30
0.0
11
769.258292
21
469.048371
31
0.0
0
LINE
8
VISIBLE
10
774.258292
20
470.192406
30
0.0
11
769.258292
21
470.192406
31
0.0
0
LINE
8
VISIBLE
10
774.258292
20
471.732018
30
0.0
11
769.258292
21
471.732018
31
0.0
0
LINE
8
VISIBLE
10
774.258292
20
473.608041
30
0.0
11
769.258292
21
473.608041
31
0.0
0
LINE
8
VISIBLE
10
774.258292
20
475.748379
30
0.0
11
769.258292
21
475.748379
31
0.0
0
LINE
8
VISIBLE
10
774.258292
20
478.070782
30
0.0
11
769.258292
21
478.070782
31
0.0
0
LINE
8
VISIBLE
10
775.658292
20
455.660000
30
0.0
11
769.258292
21
455.660000
31
0.0
0
LINE
8
VISIBLE
10
775.658292
20
455.660000
30
0.0
11
775.658292
21
435.660000
31
0.0
0
LINE
8
VISIBLE
10
764.658292
20
511.106000
30
0.0
11
764.658292
21
474.106000
31
0.0
0
LINE
8
VISIBLE
10
764.658292
20
474.106000
30
0.0
11
764.658292
21
445.660000
31
0.0
0
LINE
8
VISIBLE
10
764.658292
20
445.660000
30
0.0
11
764.658292
21
444.093686
31
0.0
0
LINE
8
VISIBLE
10
764.658292
20
444.093686
30
0.0
11
764.658292
21
442.554171
31
0.0
0
LINE
8
VISIBLE
10
764.658292
20
442.554171
30
0.0
11
764.658292
21
441.067799
31
0.0
0
LINE
8
VISIBLE
10
764.658292
20
441.067799
30
0.0
11
764.658292
21
439.660000
31
0.0
0
LINE
8
VISIBLE
10
764.658292
20
439.660000
30
0.0
11
764.658292
21
438.354863
31
0.0
0
LINE
8
VISIBLE
10
764.658292
20
438.354863
30
0.0
11
764.658292
21
437.174719
31
0.0
0
LINE
8
VISIBLE
10
764.658292
20
437.174719
30
0.0
11
764.658292
21
436.139760
31
0.0
0
LINE
8
VISIBLE
10
764.658292
20
436.139760
30
0.0
11
764.658292
21
435.267695
31
0.0
0
LINE
8
VISIBLE
10
764.658292
20
435.267695
30
0.0
11
764.658292
21
434.573446
31
0.0
0
LINE
8
VISIBLE
10
764.658292
20
434.573446
30
0.0
11
764.658292
21
434.068890
31
0.0
0
LINE
8
VISIBLE
10
764.658292
20
434.068890
30
0.0
11
764.658292
21
433.762662
31
0.0
0
LINE
8
VISIBLE
10
764.658292
20
433.762662
30
0.0
11
764.658292
21
433.660000
31
0.0
0
LINE
8
VISIBLE
10
764.658292
20
511.106000
30
0.0
11
764.658292
21
511.048356
31
0.0
0
LINE
8
VISIBLE
10
764.658292
20
455.660000
30
0.0
11
763.658292
21
455.660000
31
0.0
0
LINE
8
VISIBLE
10
763.658292
20
455.660000
30
0.0
11
763.658292
21
435.660000
31
0.0
0
LINE
8
VISIBLE
10
764.658292
20
476.106000
30
0.0
11
763.658292
21
476.106000
31
0.0
0
LINE
8
VISIBLE
10
763.658292
20
476.106000
30
0.0
11
763.658292
21
488.478258
31
0.0
0
LINE
8
VISIBLE
10
763.658292
20
492.841742
30
0.0
11
763.658292
21
493.106000
31
0.0
0
LINE
8
VISIBLE
10
763.658292
20
493.106000
30
0.0
11
759.758292
21
493.106000
31
0.0
0
LINE
8
VISIBLE
10
759.758292
20
493.106000
30
0.0
11
759.758292
21
504.106000
31
0.0
0
LINE
8
VISIBLE
10
763.658292
20
450.580000
30
0.0
11
760.078292
21
450.580000
31
0.0
0
LINE
8
VISIBLE
10
760.078292
20
450.580000
30
0.0
11
760.078292
21
440.740000
31
0.0
0
LINE
8
VISIBLE
10
769.258292
20
493.384995
30
0.0
11
768.258292
21
493.384995
31
0.0
0
LINE
8
VISIBLE
10
769.258292
20
487.935005
30
0.0
11
768.258292
21
487.935005
31
0.0
0
LINE
8
VISIBLE
10
769.258292
20
474.106000
30
0.0
11
764.658292
21
474.106000
31
0.0
0
LINE
8
VISIBLE
10
764.658292
20
511.106000
30
0.0
11
763.658292
21
511.106000
31
0.0
0
LINE
8
VISIBLE
10
769.258292
20
529.660000
30
0.0
11
763.658292
21
529.660000
31
0.0
0
LINE
8
VISIBLE
10
769.258292
20
532.270524
30
0.0
11
763.658292
21
532.270524
31
0.0
0
LINE
8
VISIBLE
10
769.258292
20
534.836381
30
0.0
11
763.658292
21
534.836381
31
0.0
0
LINE
8
VISIBLE
10
769.258292
20
537.313669
30
0.0
11
763.658292
21
537.313669
31
0.0
0
LINE
8
VISIBLE
10
769.258292
20
539.660000
30
0.0
11
763.658292
21
539.660000
31
0.0
0
LINE
8
VISIBLE
10
769.258292
20
541.835229
30
0.0
11
763.658292
21
541.835229
31
0.0
0
LINE
8
VISIBLE
10
769.258292
20
543.802136
30
0.0
11
763.658292
21
543.802136
31
0.0
0
LINE
8
VISIBLE
10
769.258292
20
545.527067
30
0.0
11
763.658292
21
545.527067
31
0.0
0
LINE
8
VISIBLE
10
769.258292
20
546.980508
30
0.0
11
763.658292
21
546.980508
31
0.0
0
LINE
8
VISIBLE
10
769.258292
20
548.137591
30
0.0
11
763.658292
21
548.137591
31
0.0
0
LINE
8
VISIBLE
10
769.258292
20
548.978517
30
0.0
11
763.658292
21
548.978517
31
0.0
0
LINE
8
VISIBLE
10
769.258292
20
549.488897
30
0.0
11
763.658292
21
549.488897
31
0.0
0
LINE
8
VISIBLE
10
769.258292
20
549.660000
30
0.0
11
763.658292
21
549.660000
31
0.0
0
LINE
8
VISIBLE
10
769.258292
20
445.660000
30
0.0
11
764.658292
21
445.660000
31
0.0
0
LINE
8
VISIBLE
10
769.258292
20
433.660000
30
0.0
11
764.658292
21
433.660000
31
0.0
0
LINE
8
VISIBLE
10
769.258292
20
433.762662
30
0.0
11
764.658292
21
433.762662
31
0.0
0
LINE
8
VISIBLE
10
769.258292
20
434.068890
30
0.0
11
764.658292
21
434.068890
31
0.0
0
LINE
8
VISIBLE
10
769.258292
20
434.573446
30
0.0
11
764.658292
21
434.573446
31
0.0
0
LINE
8
VISIBLE
10
769.258292
20
435.267695
30
0.0
11
764.658292
21
435.267695
31
0.0
0
LINE
8
VISIBLE
10
769.258292
20
436.139760
30
0.0
11
764.658292
21
436.139760
31
0.0
0
LINE
8
VISIBLE
10
769.258292
20
437.174719
30
0.0
11
764.658292
21
437.174719
31
0.0
0
LINE
8
VISIBLE
10
769.258292
20
438.354863
30
0.0
11
764.658292
21
438.354863
31
0.0
0
LINE
8
VISIBLE
10
769.258292
20
439.660000
30
0.0
11
764.658292
21
439.660000
31
0.0
0
LINE
8
VISIBLE
10
769.258292
20
441.067799
30
0.0
11
764.658292
21
441.067799
31
0.0
0
LINE
8
VISIBLE
10
769.258292
20
442.554171
30
0.0
11
764.658292
21
442.554171
31
0.0
0
LINE
8
VISIBLE
10
769.258292
20
444.093686
30
0.0
11
764.658292
21
444.093686
31
0.0
0
LINE
8
VISIBLE
10
764.658292
20
504.106000
30
0.0
11
759.758292
21
504.106000
31
0.0
0
LINE
8
VISIBLE
10
763.658292
20
513.760000
30
0.0
11
759.758292
21
513.760000
31
0.0
0
LINE
8
VISIBLE
10
775.658292
20
435.660000
30
0.0
11
769.258292
21
435.660000
31
0.0
0
LINE
8
VISIBLE
10
764.658292
20
435.660000
30
0.0
11
763.658292
21
435.660000
31
0.0
0
LINE
8
VISIBLE
10
763.658292
20
440.740000
30
0.0
11
760.078292
21
440.740000
31
0.0
0
LINE
8
VISIBLE
10
383.896500
20
716.144462
30
0.0
11
383.896500
21
697.590462
31
0.0
0
LINE
8
VISIBLE
10
383.896500
20
718.754986
30
0.0
11
383.896500
21
716.144462
31
0.0
0
LINE
8
VISIBLE
10
383.896500
20
721.320843
30
0.0
11
383.896500
21
718.754986
31
0.0
0
LINE
8
VISIBLE
10
383.896500
20
723.798131
30
0.0
11
383.896500
21
721.320843
31
0.0
0
LINE
8
VISIBLE
10
383.896500
20
726.144462
30
0.0
11
383.896500
21
723.798131
31
0.0
0
LINE
8
VISIBLE
10
383.896500
20
728.319691
30
0.0
11
383.896500
21
726.144462
31
0.0
0
LINE
8
VISIBLE
10
383.896500
20
730.286598
30
0.0
11
383.896500
21
728.319691
31
0.0
0
LINE
8
VISIBLE
10
383.896500
20
732.011529
30
0.0
11
383.896500
21
730.286598
31
0.0
0
LINE
8
VISIBLE
10
383.896500
20
733.464970
30
0.0
11
383.896500
21
732.011529
31
0.0
0
LINE
8
VISIBLE
10
383.896500
20
734.211592
30
0.0
11
383.896500
21
733.464970
31
0.0
0
LINE
8
VISIBLE
10
389.496500
20
716.144462
30
0.0
11
389.496500
21
679.869457
31
0.0
0
LINE
8
VISIBLE
10
389.496500
20
679.869457
30
0.0
11
388.496500
21
679.869457
31
0.0
0
LINE
8
VISIBLE
10
388.496500
20
679.869457
30
0.0
11
388.496500
21
674.419467
31
0.0
0
LINE
8
VISIBLE
10
389.496500
20
674.419467
30
0.0
11
388.496500
21
674.419467
31
0.0
0
LINE
8
VISIBLE
10
389.496500
20
674.419467
30
0.0
11
389.496500
21
660.590462
31
0.0
0
LINE
8
VISIBLE
10
389.496500
20
660.590462
30
0.0
11
384.896500
21
660.590462
31
0.0
0
LINE
8
VISIBLE
10
384.896500
20
697.590462
30
0.0
11
384.896500
21
660.590462
31
0.0
0
LINE
8
VISIBLE
10
389.496500
20
716.144462
30
0.0
11
383.896500
21
716.144462
31
0.0
0
LINE
8
VISIBLE
10
389.496500
20
718.754986
30
0.0
11
389.496500
21
716.144462
31
0.0
0
LINE
8
VISIBLE
10
389.496500
20
718.754986
30
0.0
11
383.896500
21
718.754986
31
0.0
0
LINE
8
VISIBLE
10
389.496500
20
721.320843
30
0.0
11
389.496500
21
718.754986
31
0.0
0
LINE
8
VISIBLE
10
389.496500
20
721.320843
30
0.0
11
383.896500
21
721.320843
31
0.0
0
LINE
8
VISIBLE
10
389.496500
20
723.798131
30
0.0
11
389.496500
21
721.320843
31
0.0
0
LINE
8
VISIBLE
10
389.496500
20
723.798131
30
0.0
11
383.896500
21
723.798131
31
0.0
0
LINE
8
VISIBLE
10
389.496500
20
726.144462
30
0.0
11
389.496500
21
723.798131
31
0.0
0
LINE
8
VISIBLE
10
389.496500
20
726.144462
30
0.0
11
383.896500
21
726.144462
31
0.0
0
LINE
8
VISIBLE
10
389.496500
20
728.319691
30
0.0
11
389.496500
21
726.144462
31
0.0
0
LINE
8
VISIBLE
10
389.496500
20
728.319691
30
0.0
11
383.896500
21
728.319691
31
0.0
0
LINE
8
VISIBLE
10
389.496500
20
730.286598
30
0.0
11
389.496500
21
728.319691
31
0.0
0
LINE
8
VISIBLE
10
389.496500
20
730.286598
30
0.0
11
383.896500
21
730.286598
31
0.0
0
LINE
8
VISIBLE
10
389.496500
20
732.011529
30
0.0
11
389.496500
21
730.286598
31
0.0
0
LINE
8
VISIBLE
10
389.496500
20
732.011529
30
0.0
11
383.896500
21
732.011529
31
0.0
0
LINE
8
VISIBLE
10
389.496500
20
733.464970
30
0.0
11
389.496500
21
732.011529
31
0.0
0
LINE
8
VISIBLE
10
389.496500
20
733.464970
30
0.0
11
383.896500
21
733.464970
31
0.0
0
LINE
8
VISIBLE
10
389.496500
20
734.211592
30
0.0
11
389.496500
21
733.464970
31
0.0
0
LINE
8
VISIBLE
10
379.996500
20
729.590569
30
0.0
11
379.996500
21
702.698355
31
0.0
0
LINE
8
VISIBLE
10
384.896500
20
624.839325
30
0.0
11
384.896500
21
623.660000
31
0.0
0
LINE
8
VISIBLE
10
384.896500
20
626.144462
30
0.0
11
384.896500
21
624.839325
31
0.0
0
LINE
8
VISIBLE
10
384.896500
20
627.552261
30
0.0
11
384.896500
21
626.144462
31
0.0
0
LINE
8
VISIBLE
10
384.896500
20
629.038633
30
0.0
11
384.896500
21
627.552261
31
0.0
0
LINE
8
VISIBLE
10
384.896500
20
630.578148
30
0.0
11
384.896500
21
629.038633
31
0.0
0
LINE
8
VISIBLE
10
384.896500
20
632.144462
30
0.0
11
384.896500
21
630.578148
31
0.0
0
LINE
8
VISIBLE
10
384.896500
20
660.590462
30
0.0
11
384.896500
21
632.144462
31
0.0
0
LINE
8
VISIBLE
10
388.496500
20
674.419467
30
0.0
11
388.496500
21
674.744462
31
0.0
0
LINE
8
VISIBLE
10
388.496500
20
679.544462
30
0.0
11
388.496500
21
679.869457
31
0.0
0
LINE
8
VISIBLE
10
394.496500
20
673.909404
30
0.0
11
389.496500
21
673.909404
31
0.0
0
LINE
8
VISIBLE
10
394.496500
20
673.909404
30
0.0
11
394.496500
21
680.379520
31
0.0
0
LINE
8
VISIBLE
10
394.496500
20
680.379520
30
0.0
11
389.496500
21
680.379520
31
0.0
0
LINE
8
VISIBLE
10
389.496500
20
624.839325
30
0.0
11
389.496500
21
623.660000
31
0.0
0
LINE
8
VISIBLE
10
389.496500
20
626.144462
30
0.0
11
389.496500
21
624.839325
31
0.0
0
LINE
8
VISIBLE
10
389.496500
20
627.552261
30
0.0
11
389.496500
21
626.144462
31
0.0
0
LINE
8
VISIBLE
10
389.496500
20
629.038633
30
0.0
11
389.496500
21
627.552261
31
0.0
0
LINE
8
VISIBLE
10
389.496500
20
630.578148
30
0.0
11
389.496500
21
629.038633
31
0.0
0
LINE
8
VISIBLE
10
389.496500
20
632.144462
30
0.0
11
389.496500
21
630.578148
31
0.0
0
LINE
8
VISIBLE
10
389.496500
20
660.590462
30
0.0
11
389.496500
21
632.144462
31
0.0
0
LINE
8
VISIBLE
10
389.496500
20
632.144462
30
0.0
11
384.896500
21
632.144462
31
0.0
0
LINE
8
VISIBLE
10
394.496500
20
720.962096
30
0.0
11
389.496500
21
720.962096
31
0.0
0
LINE
8
VISIBLE
10
394.496500
20
705.648337
30
0.0
11
389.496500
21
705.648337
31
0.0
0
LINE
8
VISIBLE
10
394.496500
20
709.668587
30
0.0
11
389.496500
21
709.668587
31
0.0
0
LINE
8
VISIBLE
10
394.496500
20
658.216480
30
0.0
11
394.496500
21
657.980139
31
0.0
0
LINE
8
VISIBLE
10
394.496500
20
660.092502
30
0.0
11
394.496500
21
658.216480
31
0.0
0
LINE
8
VISIBLE
10
394.496500
20
662.232841
30
0.0
11
394.496500
21
660.092502
31
0.0
0
LINE
8
VISIBLE
10
394.496500
20
664.555244
30
0.0
11
394.496500
21
662.232841
31
0.0
0
LINE
8
VISIBLE
10
394.496500
20
666.970462
30
0.0
11
394.496500
21
664.555244
31
0.0
0
LINE
8
VISIBLE
10
394.496500
20
673.909404
30
0.0
11
394.496500
21
666.970462
31
0.0
0
LINE
8
VISIBLE
10
394.496500
20
705.648337
30
0.0
11
394.496500
21
680.379520
31
0.0
0
LINE
8
VISIBLE
10
394.496500
20
658.216480
30
0.0
11
389.496500
21
658.216480
31
0.0
0
LINE
8
VISIBLE
10
389.496500
20
624.839325
30
0.0
11
384.896500
21
624.839325
31
0.0
0
LINE
8
VISIBLE
10
389.496500
20
626.144462
30
0.0
11
384.896500
21
626.144462
31
0.0
0
LINE
8
VISIBLE
10
389.496500
20
627.552261
30
0.0
11
384.896500
21
627.552261
31
0.0
0
LINE
8
VISIBLE
10
389.496500
20
629.038633
30
0.0
11
384.896500
21
629.038633
31
0.0
0
LINE
8
VISIBLE
10
389.496500
20
630.578148
30
0.0
11
384.896500
21
630.578148
31
0.0
0
LINE
8
VISIBLE
10
384.896500
20
662.590462
30
0.0
11
383.896500
21
662.590462
31
0.0
0
LINE
8
VISIBLE
10
384.896500
20
679.326204
30
0.0
11
383.896500
21
679.326204
31
0.0
0
LINE
8
VISIBLE
10
384.896500
20
674.962720
30
0.0
11
383.896500
21
674.962720
31
0.0
0
LINE
8
VISIBLE
10
383.896500
20
662.590462
30
0.0
11
383.896500
21
674.962720
31
0.0
0
LINE
8
VISIBLE
10
383.896500
20
679.326204
30
0.0
11
383.896500
21
679.590462
31
0.0
0
LINE
8
VISIBLE
10
383.896500
20
679.590462
30
0.0
11
379.996500
21
679.590462
31
0.0
0
LINE
8
VISIBLE
10
394.496500
20
720.962096
30
0.0
11
394.496500
21
719.948083
31
0.0
0
LINE
8
VISIBLE
10
394.496500
20
719.948083
30
0.0
11
389.496500
21
719.948083
31
0.0
0
LINE
8
VISIBLE
10
394.496500
20
719.948083
30
0.0
11
394.496500
21
717.625680
31
0.0
0
LINE
8
VISIBLE
10
394.496500
20
717.625680
30
0.0
11
389.496500
21
717.625680
31
0.0
0
LINE
8
VISIBLE
10
394.496500
20
717.625680
30
0.0
11
394.496500
21
715.210462
31
0.0
0
LINE
8
VISIBLE
10
394.496500
20
715.210462
30
0.0
11
389.496500
21
715.210462
31
0.0
0
LINE
8
VISIBLE
10
394.496500
20
715.210462
30
0.0
11
394.496500
21
709.668587
31
0.0
0
LINE
8
VISIBLE
10
394.496500
20
666.970462
30
0.0
11
389.496500
21
666.970462
31
0.0
0
LINE
8
VISIBLE
10
394.496500
20
664.555244
30
0.0
11
389.496500
21
664.555244
31
0.0
0
LINE
8
VISIBLE
10
394.496500
20
662.232841
30
0.0
11
389.496500
21
662.232841
31
0.0
0
LINE
8
VISIBLE
10
394.496500
20
660.092502
30
0.0
11
389.496500
21
660.092502
31
0.0
0
LINE
8
SECTION
10
389.496500
20
729.030462
30
0.0
11
385.516500
21
729.030462
31
0.0
0
LINE
8
SECTION
10
385.516500
20
726.830462
30
0.0
11
385.516500
21
729.030462
31
0.0
0
LINE
8
SECTION
10
385.516500
20
726.830462
30
0.0
11
379.996500
21
726.830462
31
0.0
0
LINE
8
SECTION
10
379.996500
20
726.830462
30
0.0
11
379.996500
21
729.590569
31
0.0
0
LINE
8
SECTION
10
383.896500
20
729.590569
30
0.0
11
379.996500
21
729.590569
31
0.0
0
LINE
8
SECTION
10
383.896500
20
729.590569
30
0.0
11
383.896500
21
734.211592
31
0.0
0
LINE
8
SECTION
10
383.896500
20
734.211592
30
0.0
11
389.496500
21
734.211592
31
0.0
0
LINE
8
SECTION
10
389.496500
20
729.030462
30
0.0
11
389.496500
21
734.211592
31
0.0
0
LINE
8
SECTION
10
383.896500
20
697.590462
30
0.0
11
383.896500
21
702.698355
31
0.0
0
LINE
8
SECTION
10
383.896500
20
702.698355
30
0.0
11
379.996500
21
702.698355
31
0.0
0
LINE
8
SECTION
10
379.996500
20
702.698355
30
0.0
11
379.996500
21
705.458462
31
0.0
0
LINE
8
SECTION
10
385.516500
20
705.458462
30
0.0
11
379.996500
21
705.458462
31
0.0
0
LINE
8
SECTION
10
385.516500
20
703.258462
30
0.0
11
385.516500
21
705.458462
31
0.0
0
LINE
8
SECTION
10
394.496500
20
703.258462
30
0.0
11
385.516500
21
703.258462
31
0.0
0
LINE
8
SECTION
10
394.496500
20
657.980139
30
0.0
11
394.496500
21
703.258462
31
0.0
0
LINE
8
SECTION
10
389.496500
20
657.980139
30
0.0
11
394.496500
21
657.980139
31
0.0
0
LINE
8
SECTION
10
389.496500
20
637.434812
30
0.0
11
389.496500
21
657.980139
31
0.0
0
LINE
8
SECTION
10
395.896500
20
637.434812
30
0.0
11
389.496500
21
637.434812
31
0.0
0
LINE
8
SECTION
10
395.896500
20
626.854112
30
0.0
11
395.896500
21
637.434812
31
0.0
0
LINE
8
SECTION
10
395.896500
20
626.854112
30
0.0
11
389.496500
21
626.854112
31
0.0
0
LINE
8
SECTION
10
389.496500
20
623.660000
30
0.0
11
389.496500
21
626.854112
31
0.0
0
LINE
8
SECTION
10
389.496500
20
623.660000
30
0.0
11
384.896500
21
623.660000
31
0.0
0
LINE
8
SECTION
10
384.896500
20
623.660000
30
0.0
11
384.896500
21
626.854112
31
0.0
0
LINE
8
SECTION
10
384.896500
20
626.854112
30
0.0
11
383.896500
21
626.854112
31
0.0
0
LINE
8
SECTION
10
383.896500
20
626.854112
30
0.0
11
383.896500
21
637.434812
31
0.0
0
LINE
8
SECTION
10
384.896500
20
637.434812
30
0.0
11
383.896500
21
637.434812
31
0.0
0
LINE
8
SECTION
10
384.896500
20
637.434812
30
0.0
11
384.896500
21
679.590462
31
0.0
0
LINE
8
SECTION
10
379.996500
20
679.590462
30
0.0
11
384.896500
21
679.590462
31
0.0
0
LINE
8
SECTION
10
379.996500
20
679.590462
30
0.0
11
379.996500
21
690.590462
31
0.0
0
LINE
8
SECTION
10
379.996500
20
690.590462
30
0.0
11
384.896500
21
690.590462
31
0.0
0
LINE
8
SECTION
10
384.896500
20
690.590462
30
0.0
11
384.896500
21
697.590462
31
0.0
0
LINE
8
SECTION
10
384.896500
20
697.590462
30
0.0
11
383.896500
21
697.590462
31
0.0
0
LINE
8
SECTION
10
394.496500
20
712.058462
30
0.0
11
385.516500
21
712.058462
31
0.0
0
LINE
8
SECTION
10
385.516500
20
709.858462
30
0.0
11
385.516500
21
712.058462
31
0.0
0
LINE
8
SECTION
10
385.516500
20
709.858462
30
0.0
11
379.996500
21
709.858462
31
0.0
0
LINE
8
SECTION
10
379.996500
20
709.858462
30
0.0
11
379.996500
21
722.430462
31
0.0
0
LINE
8
SECTION
10
385.516500
20
722.430462
30
0.0
11
379.996500
21
722.430462
31
0.0
0
LINE
8
SECTION
10
385.516500
20
720.230462
30
0.0
11
385.516500
21
722.430462
31
0.0
0
LINE
8
SECTION
10
394.496500
20
720.230462
30
0.0
11
385.516500
21
720.230462
31
0.0
0
LINE
8
SECTION
10
394.496500
20
712.058462
30
0.0
11
394.496500
21
720.230462
31
0.0
0
CIRCLE
8
VISIBLE
10
339.869931
20
117.000000
30
0.0
40
20.000000
0
CIRCLE
8
VISIBLE
10
339.869931
20
117.000000
30
0.0
40
16.000000
0
CIRCLE
8
VISIBLE
10
339.869931
20
117.000000
30
0.0
40
5.400000
0
CIRCLE
8
VISIBLE
10
339.869931
20
117.000000
30
0.0
40
9.840000
0
CIRCLE
8
SECTION
10
339.869931
20
117.000000
30
0.0
40
17.000000
0
LINE
8
VISIBLE
10
694.262806
20
188.572000
30
0.0
11
743.302657
21
188.572000
31
0.0
0
ARC
8
VISIBLE
10
750.782731
20
147.680000
30
0.0
40
4.800000
50
294.624318
51
65.375682
0
ARC
8
VISIBLE
10
750.782731
20
147.680000
30
0.0
40
4.800000
50
245.375682
51
294.624318
0
ARC
8
VISIBLE
10
750.782731
20
147.680000
30
0.0
40
4.800000
50
114.624318
51
245.375682
0
LINE
8
VISIBLE
10
709.239454
20
184.868101
30
0.0
11
708.898020
21
183.742542
31
0.0
0
ARC
8
VISIBLE
10
686.782731
20
147.680000
30
0.0
40
4.800000
50
294.624318
51
65.375682
0
ARC
8
VISIBLE
10
686.782731
20
147.680000
30
0.0
40
4.800000
50
245.375682
51
294.624318
0
ARC
8
VISIBLE
10
686.782731
20
147.680000
30
0.0
40
4.800000
50
114.624318
51
245.375682
0
LINE
8
VISIBLE
10
758.782731
20
173.629613
30
0.0
11
758.782731
21
121.730387
31
0.0
0
LINE
8
VISIBLE
10
723.953273
20
188.456712
30
0.0
11
722.782731
21
188.572000
31
0.0
0
LINE
8
VISIBLE
10
725.078832
20
188.115277
30
0.0
11
723.953273
21
188.456712
31
0.0
0
LINE
8
VISIBLE
10
726.116153
20
187.560818
30
0.0
11
725.078832
21
188.115277
31
0.0
0
LINE
8
VISIBLE
10
727.025372
20
186.814641
30
0.0
11
726.116153
21
187.560818
31
0.0
0
LINE
8
VISIBLE
10
727.771549
20
185.905421
30
0.0
11
727.025372
21
186.814641
31
0.0
0
LINE
8
VISIBLE
10
728.326008
20
184.868101
30
0.0
11
727.771549
21
185.905421
31
0.0
0
LINE
8
VISIBLE
10
728.667443
20
183.742542
30
0.0
11
728.326008
21
184.868101
31
0.0
0
LINE
8
VISIBLE
10
728.782731
20
182.572000
30
0.0
11
728.667443
21
183.742542
31
0.0
0
LINE
8
VISIBLE
10
728.782731
20
148.572000
30
0.0
11
728.782731
21
182.572000
31
0.0
0
LINE
8
VISIBLE
10
728.667443
20
147.401458
30
0.0
11
728.782731
21
148.572000
31
0.0
0
LINE
8
VISIBLE
10
728.326008
20
146.275899
30
0.0
11
728.667443
21
147.401458
31
0.0
0
LINE
8
VISIBLE
10
727.771549
20
145.238579
30
0.0
11
728.326008
21
146.275899
31
0.0
0
LINE
8
VISIBLE
10
727.025372
20
144.329359
30
0.0
11
727.771549
21
145.238579
31
0.0
0
LINE
8
VISIBLE
10
726.116153
20
143.583182
30
0.0
11
727.025372
21
144.329359
31
0.0
0
LINE
8
VISIBLE
10
725.078832
20
143.028723
30
0.0
11
726.116153
21
143.583182
31
0.0
0
LINE
8
VISIBLE
10
723.953273
20
142.687288
30
0.0
11
725.078832
21
143.028723
31
0.0
0
LINE
8
VISIBLE
10
722.782731
20
142.572000
30
0.0
11
723.953273
21
142.687288
31
0.0
0
LINE
8
VISIBLE
10
714.782731
20
142.572000
30
0.0
11
722.782731
21
142.572000
31
0.0
0
LINE
8
VISIBLE
10
713.612189
20
142.687288
30
0.0
11
714.782731
21
142.572000
31
0.0
0
LINE
8
VISIBLE
10
712.486631
20
143.028723
30
0.0
11
713.612189
21
142.687288
31
0.0
0
LINE
8
VISIBLE
10
711.449310
20
143.583182
30
0.0
11
712.486631
21
143.028723
31
0.0
0
LINE
8
VISIBLE
10
710.540091
20
144.329359
30
0.0
11
711.449310
21
143.583182
31
0.0
0
LINE
8
VISIBLE
10
709.793914
20
145.238579
30
0.0
11
710.540091
21
144.329359
31
0.0
0
LINE
8
VISIBLE
10
709.239454
20
146.275899
30
0.0
11
709.793914
21
145.238579
31
0.0
0
LINE
8
VISIBLE
10
708.898020
20
147.401458
30
0.0
11
709.239454
21
146.275899
31
0.0
0
LINE
8
VISIBLE
10
708.782731
20
148.572000
30
0.0
11
708.898020
21
147.401458
31
0.0
0
LINE
8
VISIBLE
10
708.782731
20
182.572000
30
0.0
11
708.782731
21
148.572000
31
0.0
0
LINE
8
VISIBLE
10
708.898020
20
183.742542
30
0.0
11
708.782731
21
182.572000
31
0.0
0
LINE
8
VISIBLE
10
678.782731
20
121.730387
30
0.0
11
678.782731
21
173.629613
31
0.0
0
LINE
8
VISIBLE
10
709.793914
20
185.905421
30
0.0
11
709.239454
21
184.868101
31
0.0
0
LINE
8
VISIBLE
10
710.540091
20
186.814641
30
0.0
11
709.793914
21
185.905421
31
0.0
0
LINE
8
VISIBLE
10
714.782731
20
188.572000
30
0.0
11
713.612189
21
188.456712
31
0.0
0
LINE
8
VISIBLE
10
711.449310
20
187.560818
30
0.0
11
710.540091
21
186.814641
31
0.0
0
LINE
8
VISIBLE
10
713.612189
20
188.456712
30
0.0
11
712.486631
21
188.115277
31
0.0
0
LINE
8
VISIBLE
10
712.486631
20
188.115277
30
0.0
11
711.449310
21
187.560818
31
0.0
0
LINE
8
VISIBLE
10
684.782731
20
118.572000
30
0.0
11
684.782731
21
143.316515
31
0.0
0
LINE
8
VISIBLE
10
688.782731
20
118.572000
30
0.0
11
684.782731
21
118.572000
31
0.0
0
LINE
8
VISIBLE
10
688.782731
20
118.572000
30
0.0
11
688.782731
21
143.316515
31
0.0
0
LINE
8
VISIBLE
10
704.782731
20
152.572000
30
0.0
11
700.782731
21
152.572000
31
0.0
0
LINE
8
VISIBLE
10
700.782731
20
152.572000
30
0.0
11
700.782731
21
174.572000
31
0.0
0
LINE
8
VISIBLE
10
704.782731
20
152.572000
30
0.0
11
704.782731
21
174.572000
31
0.0
0
LINE
8
VISIBLE
10
704.782731
20
174.572000
30
0.0
11
700.782731
21
174.572000
31
0.0
0
LINE
8
VISIBLE
10
736.782731
20
152.572000
30
0.0
11
732.782731
21
152.572000
31
0.0
0
LINE
8
VISIBLE
10
732.782731
20
152.572000
30
0.0
11
732.782731
21
174.572000
31
0.0
0
LINE
8
VISIBLE
10
736.782731
20
152.572000
30
0.0
11
736.782731
21
174.572000
31
0.0
0
LINE
8
VISIBLE
10
736.782731
20
174.572000
30
0.0
11
732.782731
21
174.572000
31
0.0
0
LINE
8
VISIBLE
10
748.782731
20
118.572000
30
0.0
11
748.782731
21
143.316515
31
0.0
0
LINE
8
VISIBLE
10
752.782731
20
118.572000
30
0.0
11
748.782731
21
118.572000
31
0.0
0
LINE
8
VISIBLE
10
752.782731
20
118.572000
30
0.0
11
752.782731
21
143.316515
31
0.0
0
LINE
8
VISIBLE
10
688.782731
20
152.043485
30
0.0
11
688.782731
21
152.572000
31
0.0
0
LINE
8
VISIBLE
10
684.782731
20
152.043485
30
0.0
11
684.782731
21
152.572000
31
0.0
0
LINE
8
VISIBLE
10
752.782731
20
152.043485
30
0.0
11
752.782731
21
152.572000
31
0.0
0
LINE
8
VISIBLE
10
748.782731
20
152.043485
30
0.0
11
748.782731
21
152.572000
31
0.0
0
LINE
8
VISIBLE
10
688.782731
20
152.572000
30
0.0
11
684.782731
21
152.572000
31
0.0
0
LINE
8
VISIBLE
10
752.782731
20
152.572000
30
0.0
11
748.782731
21
152.572000
31
0.0
0
LINE
8
VISIBLE
10
688.782731
20
152.572000
30
0.0
11
688.782731
21
174.572000
31
0.0
0
LINE
8
VISIBLE
10
688.782731
20
174.572000
30
0.0
11
684.782731
21
174.572000
31
0.0
0
LINE
8
VISIBLE
10
684.782731
20
152.572000
30
0.0
11
684.782731
21
174.572000
31
0.0
0
LINE
8
VISIBLE
10
752.782731
20
152.572000
30
0.0
11
752.782731
21
174.572000
31
0.0
0
LINE
8
VISIBLE
10
752.782731
20
174.572000
30
0.0
11
748.782731
21
174.572000
31
0.0
0
LINE
8
VISIBLE
10
748.782731
20
152.572000
30
0.0
11
748.782731
21
174.572000
31
0.0
0
ARC
8
VISIBLE
10
750.782734
20
147.680002
30
0.0
40
4.799998
50
65.375699
51
114.624352
0
ARC
8
VISIBLE
10
686.782760
20
147.679967
30
0.0
40
4.800032
50
65.376160
51
114.624469
0
CIRCLE
8
SECTION
10
718.782731
20
147.680000
30
0.0
40
47.680000
0
LINE
8
VISIBLE
10
1090.290299
20
101.694033
30
0.0
11
1112.970164
21
101.694033
31
0.0
0
CIRCLE
8
VISIBLE
10
1101.630231
20
138.802033
30
0.0
40
31.800000
0
CIRCLE
8
VISIBLE
10
1084.658231
20
121.830033
30
0.0
40
4.400000
0
CIRCLE
8
VISIBLE
10
1084.658231
20
155.774033
30
0.0
40
4.400000
0
CIRCLE
8
VISIBLE
10
1118.602231
20
121.830033
30
0.0
40
4.400000
0
CIRCLE
8
VISIBLE
10
1101.630231
20
138.802033
30
0.0
40
12.000000
0
CIRCLE
8
VISIBLE
10
1118.602231
20
155.774033
30
0.0
40
4.400000
0
LINE
8
VISIBLE
10
1106.800773
20
101.578744
30
0.0
11
1105.630231
21
101.694033
31
0.0
0
LINE
8
VISIBLE
10
1107.926332
20
101.237310
30
0.0
11
1106.800773
21
101.578744
31
0.0
0
LINE
8
VISIBLE
10
1108.941023
20
100.694946
30
0.0
11
1107.926332
21
101.237310
31
0.0
0
LINE
8
VISIBLE
10
1097.630231
20
101.694033
30
0.0
11
1096.459689
21
101.578744
31
0.0
0
LINE
8
VISIBLE
10
1096.459689
20
101.578744
30
0.0
11
1095.334131
21
101.237310
31
0.0
0
LINE
8
VISIBLE
10
1095.334131
20
101.237310
30
0.0
11
1094.319439
21
100.694946
31
0.0
0
CIRCLE
8
SECTION
10
1101.630231
20
138.802033
30
0.0
40
38.802033
0
CIRCLE
8
CENTER
10
387.946500
20
445.660000
30
0.0
40
8.500000
0
TEXT
8
TEXT
10
397.946500
20
455.660000
30
0.0
40
5.0000
1
A
0
CIRCLE
8
CENTER
10
387.946500
20
490.660000
30
0.0
40
23.840000
0
TEXT
8
TEXT
10
413.286500
20
516.000000
30
0.0
40
5.0000
1
B
0
CIRCLE
8
CENTER
10
387.946500
20
529.660000
30
0.0
40
19.401016
0
TEXT
8
TEXT
10
408.847516
20
550.561016
30
0.0
40
5.0000
1
C
0
LINE
8
CENTER
10
373.460500
20
538.146000
30
0.0
11
378.260500
21
538.146000
31
0.0
0
LINE
8
CENTER
10
380.660500
20
538.146000
30
0.0
11
385.460500
21
538.146000
31
0.0
0
LINE
8
CENTER
10
379.460500
20
532.146000
30
0.0
11
379.460500
21
536.946000
31
0.0
0
LINE
8
CENTER
10
379.460500
20
539.346000
30
0.0
11
379.460500
21
544.146000
31
0.0
0
LINE
8
CENTER
10
390.432500
20
538.146000
30
0.0
11
395.232500
21
538.146000
31
0.0
0
LINE
8
CENTER
10
397.632500
20
538.146000
30
0.0
11
402.432500
21
538.146000
31
0.0
0
LINE
8
CENTER
10
396.432500
20
532.146000
30
0.0
11
396.432500
21
536.946000
31
0.0
0
LINE
8
CENTER
10
396.432500
20
539.346000
30
0.0
11
396.432500
21
544.146000
31
0.0
0
LINE
8
CENTER
10
380.346500
20
529.660000
30
0.0
11
386.746500
21
529.660000
31
0.0
0
LINE
8
CENTER
10
389.146500
20
529.660000
30
0.0
11
395.546500
21
529.660000
31
0.0
0
LINE
8
CENTER
10
387.946500
20
522.060000
30
0.0
11
387.946500
21
528.460000
31
0.0
0
LINE
8
CENTER
10
387.946500
20
530.860000
30
0.0
11
387.946500
21
537.260000
31
0.0
0
LINE
8
CENTER
10
373.460500
20
521.174000
30
0.0
11
378.260500
21
521.174000
31
0.0
0
LINE
8
CENTER
10
380.660500
20
521.174000
30
0.0
11
385.460500
21
521.174000
31
0.0
0
LINE
8
CENTER
10
379.460500
20
515.174000
30
0.0
11
379.460500
21
519.974000
31
0.0
0
LINE
8
CENTER
10
379.460500
20
522.374000
30
0.0
11
379.460500
21
527.174000
31
0.0
0
LINE
8
CENTER
10
390.432500
20
521.174000
30
0.0
11
395.232500
21
521.174000
31
0.0
0
LINE
8
CENTER
10
397.632500
20
521.174000
30
0.0
11
402.432500
21
521.174000
31
0.0
0
LINE
8
CENTER
10
396.432500
20
515.174000
30
0.0
11
396.432500
21
519.974000
31
0.0
0
LINE
8
CENTER
10
396.432500
20
522.374000
30
0.0
11
396.432500
21
527.174000
31
0.0
0
LINE
8
CENTER
10
365.506500
20
490.660000
30
0.0
11
370.746500
21
490.660000
31
0.0
0
LINE
8
CENTER
10
373.146500
20
490.660000
30
0.0
11
378.386500
21
490.660000
31
0.0
0
LINE
8
CENTER
10
371.946500
20
484.220000
30
0.0
11
371.946500
21
489.460000
31
0.0
0
LINE
8
CENTER
10
371.946500
20
491.860000
30
0.0
11
371.946500
21
497.100000
31
0.0
0
LINE
8
CENTER
10
397.506500
20
490.660000
30
0.0
11
402.746500
21
490.660000
31
0.0
0
LINE
8
CENTER
10
405.146500
20
490.660000
30
0.0
11
410.386500
21
490.660000
31
0.0
0
LINE
8
CENTER
10
403.946500
20
484.220000
30
0.0
11
403.946500
21
489.460000
31
0.0
0
LINE
8
CENTER
10
403.946500
20
491.860000
30
0.0
11
403.946500
21
497.100000
31
0.0
0
LINE
8
CENTER
10
380.846500
20
445.660000
30
0.0
11
386.746500
21
445.660000
31
0.0
0
LINE
8
CENTER
10
389.146500
20
445.660000
30
0.0
11
395.046500
21
445.660000
31
0.0
0
LINE
8
CENTER
10
387.946500
20
438.560000
30
0.0
11
387.946500
21
444.460000
31
0.0
0
LINE
8
CENTER
10
387.946500
20
446.860000
30
0.0
11
387.946500
21
452.760000
31
0.0
0
LINE
8
DIM
10
367.946500
20
432.460000
30
0.0
11
367.946500
21
410.660000
31
0.0
0
LINE
8
DIM
10
407.946500
20
432.460000
30
0.0
11
407.946500
21
410.660000
31
0.0
0
LINE
8
DIM
10
367.946500
20
412.660000
30
0.0
11
407.946500
21
412.660000
31
0.0
0
SOLID
8
DIM
10
367.946500
20
412.660000
30
0.0
11
371.146500
21
412.052000
31
0.0
12
371.146500
22
413.268000
32
0.0
13
371.146500
23
413.268000
33
0.0
0
SOLID
8
DIM
10
407.946500
20
412.660000
30
0.0
11
404.746500
21
413.268000
31
0.0
12
404.746500
22
412.052000
32
0.0
13
404.746500
23
412.052000
33
0.0
0
TEXT
8
TEXT
10
387.946500
20
413.660000
30
0.0
40
3.5000
1
20.00
72
1
73
0
11
387.946500
21
413.660000
31
0.0
0
LINE
8
DIM
10
366.746500
20
433.660000
30
0.0
11
344.946500
21
433.660000
31
0.0
0
LINE
8
DIM
10
366.746500
20
549.660000
30
0.0
11
344.946500
21
549.660000
31
0.0
0
LINE
8
DIM
10
346.946500
20
433.660000
30
0.0
11
346.946500
21
549.660000
31
0.0
0
SOLID
8
DIM
10
346.946500
20
433.660000
30
0.0
11
347.554500
21
436.860000
31
0.0
12
346.338500
22
436.860000
32
0.0
13
346.338500
23
436.860000
33
0.0
0
SOLID
8
DIM
10
346.946500
20
549.660000
30
0.0
11
346.338500
21
546.460000
31
0.0
12
347.554500
22
546.460000
32
0.0
13
347.554500
23
546.460000
33
0.0
0
TEXT
8
TEXT
10
345.946500
20
491.660000
30
0.0
40
3.5000
1
58.00
50
90.0000
72
1
73
0
11
345.946500
21
491.660000
31
0.0
0
SOLID
8
DIM
10
382.169410
20
541.613247
30
0.0
11
384.618638
21
543.760560
31
0.0
12
383.660417
22
544.509204
32
0.0
13
383.660417
23
544.509204
33
0.0
0
LINE
8
DIM
10
382.169410
20
541.613247
30
0.0
11
401.738078
21
566.660000
31
0.0
0
LINE
8
DIM
10
401.738078
20
566.660000
30
0.0
11
406.738078
21
566.660000
31
0.0
0
TEXT
8
TEXT
10
407.538078
20
572.735000
30
0.0
40
3.5000
1
4x Ø2.20 THRU
0
TEXT
8
TEXT
10
407.538078
20
567.660000
30
0.0
40
3.5000
1
C'BORE Ø4.40x4.49 +X
0
SOLID
8
DIM
10
374.720406
20
494.626238
30
0.0
11
377.052632
21
496.900087
31
0.0
12
376.056155
22
497.597002
32
0.0
13
376.056155
23
497.597002
33
0.0
0
LINE
8
DIM
10
374.720406
20
494.626238
30
0.0
11
433.946500
21
579.310000
31
0.0
0
LINE
8
DIM
10
433.946500
20
579.310000
30
0.0
11
438.946500
21
579.310000
31
0.0
0
TEXT
8
TEXT
10
439.746500
20
585.385000
30
0.0
40
3.5000
1
2x Ø2.40 THRU
0
TEXT
8
TEXT
10
439.746500
20
580.310000
30
0.0
40
3.5000
1
C'BORE Ø4.84x3.00 +X
0
SOLID
8
DIM
10
391.510450
20
534.486827
30
0.0
11
393.900341
21
536.699988
31
0.0
12
392.922104
22
537.422282
32
0.0
13
392.922104
23
537.422282
33
0.0
0
LINE
8
DIM
10
391.510450
20
534.486827
30
0.0
11
433.946500
21
591.960000
31
0.0
0
LINE
8
DIM
10
433.946500
20
591.960000
30
0.0
11
438.946500
21
591.960000
31
0.0
0
TEXT
8
TEXT
10
439.746500
20
592.960000
30
0.0
40
3.5000
1
Ø6.00 THRU
0
SOLID
8
DIM
10
389.521807
20
450.929574
30
0.0
11
391.020877
21
453.821364
31
0.0
12
389.855822
22
454.169651
32
0.0
13
389.855822
23
454.169651
33
0.0
0
LINE
8
DIM
10
389.521807
20
450.929574
30
0.0
11
433.946500
21
599.535000
31
0.0
0
LINE
8
DIM
10
433.946500
20
599.535000
30
0.0
11
438.946500
21
599.535000
31
0.0
0
TEXT
8
TEXT
10
439.746500
20
605.610000
30
0.0
40
3.5000
1
Ø2.70 THRU
0
TEXT
8
TEXT
10
439.746500
20
600.535000
30
0.0
40
3.5000
1
C'BORE Ø5.50x3.49 -X
0
SOLID
8
DIM
10
387.946500
20
513.760000
30
0.0
11
388.554500
21
516.960000
31
0.0
12
387.338500
22
516.960000
32
0.0
13
387.338500
23
516.960000
33
0.0
0
LINE
8
DIM
10
387.946500
20
513.760000
30
0.0
11
387.946500
21
523.760000
31
0.0
0
LINE
8
DIM
10
387.946500
20
523.760000
30
0.0
11
384.946500
21
523.760000
31
0.0
0
TEXT
8
TEXT
10
384.146500
20
524.760000
30
0.0
40
3.5000
1
R7.95
72
2
73
0
11
384.146500
21
524.760000
31
0.0
0
SOLID
8
DIM
10
387.946500
20
435.660000
30
0.0
11
387.338500
21
432.460000
31
0.0
12
388.554500
22
432.460000
32
0.0
13
388.554500
23
432.460000
33
0.0
0
LINE
8
DIM
10
387.946500
20
435.660000
30
0.0
11
387.946500
21
425.660000
31
0.0
0
LINE
8
DIM
10
387.946500
20
425.660000
30
0.0
11
384.946500
21
425.660000
31
0.0
0
TEXT
8
TEXT
10
384.146500
20
426.660000
30
0.0
40
3.5000
1
R5.00
72
2
73
0
11
384.146500
21
426.660000
31
0.0
0
SOLID
8
DIM
10
387.946500
20
437.660000
30
0.0
11
390.007027
21
435.137325
31
0.0
12
390.788657
22
436.068835
32
0.0
13
390.788657
23
436.068835
33
0.0
0
LINE
8
DIM
10
387.946500
20
437.660000
30
0.0
11
395.606944
21
431.232124
31
0.0
0
LINE
8
DIM
10
395.606944
20
431.232124
30
0.0
11
398.606944
21
431.232124
31
0.0
0
TEXT
8
TEXT
10
399.406944
20
432.232124
30
0.0
40
3.5000
1
R4.00
0
SOLID
8
DIM
10
387.946500
20
523.660000
30
0.0
11
388.554500
21
526.860000
31
0.0
12
387.338500
22
526.860000
32
0.0
13
387.338500
23
526.860000
33
0.0
0
LINE
8
DIM
10
387.946500
20
523.660000
30
0.0
11
387.946500
21
533.660000
31
0.0
0
LINE
8
DIM
10
387.946500
20
533.660000
30
0.0
11
384.946500
21
533.660000
31
0.0
0
TEXT
8
TEXT
10
384.146500
20
534.660000
30
0.0
40
3.5000
1
R3.00
72
2
73
0
11
384.146500
21
534.660000
31
0.0
0
SOLID
8
DIM
10
387.946500
20
440.160000
30
0.0
11
386.043086
21
437.516767
31
0.0
12
387.145157
22
437.002863
32
0.0
13
387.145157
23
437.002863
33
0.0
0
LINE
8
DIM
10
387.946500
20
440.160000
30
0.0
11
383.720317
21
431.096922
31
0.0
0
LINE
8
DIM
10
383.720317
20
431.096922
30
0.0
11
380.720317
21
431.096922
31
0.0
0
TEXT
8
TEXT
10
379.920317
20
432.096922
30
0.0
40
3.5000
1
R2.75
72
2
73
0
11
379.920317
21
432.096922
31
0.0
0
SOLID
8
DIM
10
387.946500
20
440.740000
30
0.0
11
390.992307
21
439.585563
31
0.0
12
391.203463
22
440.783089
32
0.0
13
391.203463
23
440.783089
33
0.0
0
LINE
8
DIM
10
387.946500
20
440.740000
30
0.0
11
397.794578
21
439.003518
31
0.0
0
LINE
8
DIM
10
397.794578
20
439.003518
30
0.0
11
400.794578
21
439.003518
31
0.0
0
TEXT
8
TEXT
10
401.594578
20
440.003518
30
0.0
40
3.5000
1
R2.46
0
SOLID
8
DIM
10
369.684132
20
494.938702
30
0.0
11
367.418843
21
497.279242
31
0.0
12
366.718281
22
496.285326
32
0.0
13
366.718281
23
496.285326
33
0.0
0
LINE
8
DIM
10
369.684132
20
494.938702
30
0.0
11
361.510476
21
500.699896
31
0.0
0
LINE
8
DIM
10
361.510476
20
500.699896
30
0.0
11
358.510476
21
500.699896
31
0.0
0
TEXT
8
TEXT
10
357.710476
20
501.699896
30
0.0
40
3.5000
1
R2.42
72
2
73
0
11
357.710476
21
501.699896
31
0.0
0
SOLID
8
DIM
10
394.166105
20
541.917399
30
0.0
11
393.758582
21
545.149053
31
0.0
12
392.601738
22
544.774394
32
0.0
13
392.601738
23
544.774394
33
0.0
0
LINE
8
DIM
10
394.166105
20
541.917399
30
0.0
11
391.085027
21
551.430914
31
0.0
0
LINE
8
DIM
10
391.085027
20
551.430914
30
0.0
11
388.085027
21
551.430914
31
0.0
0
TEXT
8
TEXT
10
387.285027
20
552.430914
30
0.0
40
3.5000
1
R2.20
72
2
73
0
11
387.285027
21
552.430914
31
0.0
0
SOLID
8
DIM
10
387.946500
20
442.960000
30
0.0
11
385.104343
21
441.368835
31
0.0
12
385.885973
22
440.437325
32
0.0
13
385.885973
23
440.437325
33
0.0
0
LINE
8
DIM
10
387.946500
20
442.960000
30
0.0
11
380.286056
21
436.532124
31
0.0
0
LINE
8
DIM
10
380.286056
20
436.532124
30
0.0
11
377.286056
21
436.532124
31
0.0
0
TEXT
8
TEXT
10
376.486056
20
437.532124
30
0.0
40
3.5000
1
R1.35
72
2
73
0
11
376.486056
21
437.532124
31
0.0
0
SOLID
8
DIM
10
406.346500
20
490.660000
30
0.0
11
409.508790
21
489.879239
31
0.0
12
409.574779
22
491.093447
32
0.0
13
409.574779
23
491.093447
33
0.0
0
LINE
8
DIM
10
406.346500
20
490.660000
30
0.0
11
416.331764
21
490.117323
31
0.0
0
LINE
8
DIM
10
416.331764
20
490.117323
30
0.0
11
419.331764
21
490.117323
31
0.0
0
TEXT
8
TEXT
10
420.131764
20
491.117323
30
0.0
40
3.5000
1
R1.20
0
SOLID
8
DIM
10
379.460500
20
535.946000
30
0.0
11
379.455415
21
539.203244
31
0.0
12
378.261142
22
538.974400
32
0.0
13
378.261142
23
538.974400
33
0.0
0
LINE
8
DIM
10
379.460500
20
535.946000
30
0.0
11
377.578557
21
545.767318
31
0.0
0
LINE
8
DIM
10
377.578557
20
545.767318
30
0.0
11
374.578557
21
545.767318
31
0.0
0
TEXT
8
TEXT
10
373.778557
20
546.767318
30
0.0
40
3.5000
1
R1.10
72
2
73
0
11
373.778557
21
546.767318
31
0.0
0
TEXT
8
TEXT
10
387.946500
20
400.660000
30
0.0
40
5.0000
1
RIGHT VIEW
72
1
73
0
11
387.946500
21
400.660000
31
0.0
0
LINE
8
TEXT
10
372.946500
20
399.060000
30
0.0
11
402.946500
21
399.060000
31
0.0
0
TEXT
8
TEXT
10
387.946500
20
394.660000
30
0.0
40
3.5000
1
-Y →   Z ↑
72
1
73
0
11
387.946500
21
394.660000
31
0.0
0
LINE
8
DIM
10
759.758292
20
432.460000
30
0.0
11
759.758292
21
419.660000
31
0.0
0
LINE
8
DIM
10
775.658292
20
432.460000
30
0.0
11
775.658292
21
419.660000
31
0.0
0
LINE
8
DIM
10
759.758292
20
421.660000
30
0.0
11
775.658292
21
421.660000
31
0.0
0
SOLID
8
DIM
10
759.758292
20
421.660000
30
0.0
11
762.958292
21
421.052000
31
0.0
12
762.958292
22
422.268000
32
0.0
13
762.958292
23
422.268000
33
0.0
0
SOLID
8
DIM
10
775.658292
20
421.660000
30
0.0
11
772.458292
21
422.268000
31
0.0
12
772.458292
22
421.052000
32
0.0
13
772.458292
23
421.052000
33
0.0
0
TEXT
8
TEXT
10
767.708292
20
422.660000
30
0.0
40
3.5000
1
7.95
72
1
73
0
11
767.708292
21
422.660000
31
0.0
0
LINE
8
DIM
10
758.558292
20
433.660000
30
0.0
11
745.758292
21
433.660000
31
0.0
0
LINE
8
DIM
10
758.558292
20
549.660000
30
0.0
11
745.758292
21
549.660000
31
0.0
0
LINE
8
DIM
10
747.758292
20
433.660000
30
0.0
11
747.758292
21
549.660000
31
0.0
0
SOLID
8
DIM
10
747.758292
20
433.660000
30
0.0
11
748.366292
21
436.860000
31
0.0
12
747.150292
22
436.860000
32
0.0
13
747.150292
23
436.860000
33
0.0
0
SOLID
8
DIM
10
747.758292
20
549.660000
30
0.0
11
747.150292
21
546.460000
31
0.0
12
748.366292
22
546.460000
32
0.0
13
748.366292
23
546.460000
33
0.0
0
TEXT
8
TEXT
10
746.758292
20
491.660000
30
0.0
40
3.5000
1
58.00
50
90.0000
72
1
73
0
11
746.758292
21
491.660000
31
0.0
0
TEXT
8
TEXT
10
767.708292
20
409.660000
30
0.0
40
5.0000
1
FRONT VIEW
72
1
73
0
11
767.708292
21
409.660000
31
0.0
0
LINE
8
TEXT
10
752.708292
20
408.060000
30
0.0
11
782.708292
21
408.060000
31
0.0
0
TEXT
8
TEXT
10
767.708292
20
403.660000
30
0.0
40
3.5000
1
-X →   Z ↑
72
1
73
0
11
767.708292
21
403.660000
31
0.0
0
LINE
8
DIM
10
379.996500
20
622.460000
30
0.0
11
379.996500
21
609.660000
31
0.0
0
LINE
8
DIM
10
395.896500
20
622.460000
30
0.0
11
395.896500
21
609.660000
31
0.0
0
LINE
8
DIM
10
379.996500
20
611.660000
30
0.0
11
395.896500
21
611.660000
31
0.0
0
SOLID
8
DIM
10
379.996500
20
611.660000
30
0.0
11
383.196500
21
611.052000
31
0.0
12
383.196500
22
612.268000
32
0.0
13
383.196500
23
612.268000
33
0.0
0
SOLID
8
DIM
10
395.896500
20
611.660000
30
0.0
11
392.696500
21
612.268000
31
0.0
12
392.696500
22
611.052000
32
0.0
13
392.696500
23
611.052000
33
0.0
0
TEXT
8
TEXT
10
387.946500
20
612.660000
30
0.0
40
3.5000
1
7.95
72
1
73
0
11
387.946500
21
612.660000
31
0.0
0
LINE
8
DIM
10
378.796500
20
623.660000
30
0.0
11
365.996500
21
623.660000
31
0.0
0
LINE
8
DIM
10
378.796500
20
734.211592
30
0.0
11
365.996500
21
734.211592
31
0.0
0
LINE
8
DIM
10
367.996500
20
623.660000
30
0.0
11
367.996500
21
734.211592
31
0.0
0
SOLID
8
DIM
10
367.996500
20
623.660000
30
0.0
11
368.604500
21
626.860000
31
0.0
12
367.388500
22
626.860000
32
0.0
13
367.388500
23
626.860000
33
0.0
0
SOLID
8
DIM
10
367.996500
20
734.211592
30
0.0
11
367.388500
21
731.011592
31
0.0
12
368.604500
22
731.011592
32
0.0
13
368.604500
23
731.011592
33
0.0
0
TEXT
8
TEXT
10
366.996500
20
678.935796
30
0.0
40
3.5000
1
55.28
50
90.0000
72
1
73
0
11
366.996500
21
678.935796
31
0.0
0
LINE
8
HATCH
10
389.496497
20
729.030462
30
0.0
11
389.496500
21
729.030465
31
0.0
0
LINE
8
HATCH
10
383.053856
20
726.830462
30
0.0
11
389.496500
21
733.273105
31
0.0
0
LINE
8
HATCH
10
379.996500
20
728.015746
30
0.0
11
381.571323
21
729.590569
31
0.0
0
LINE
8
HATCH
10
383.896500
20
731.915746
30
0.0
11
386.192346
21
734.211592
31
0.0
0
LINE
8
HATCH
10
395.896497
20
626.854112
30
0.0
11
395.896500
21
626.854115
31
0.0
0
LINE
8
HATCH
10
388.459745
20
623.660000
30
0.0
11
389.496500
21
624.696755
31
0.0
0
LINE
8
HATCH
10
391.653856
20
626.854112
30
0.0
11
395.896500
21
631.096755
31
0.0
0
LINE
8
HATCH
10
384.896500
20
624.339396
30
0.0
11
395.896500
21
635.339396
31
0.0
0
LINE
8
HATCH
10
383.896500
20
627.582037
30
0.0
11
393.749275
21
637.434812
31
0.0
0
LINE
8
HATCH
10
383.896500
20
631.824677
30
0.0
11
389.506635
21
637.434812
31
0.0
0
LINE
8
HATCH
10
383.896500
20
636.067318
30
0.0
11
389.496500
21
641.667318
31
0.0
0
LINE
8
HATCH
10
384.896500
20
641.309959
30
0.0
11
389.496500
21
645.909959
31
0.0
0
LINE
8
HATCH
10
384.896500
20
645.552599
30
0.0
11
389.496500
21
650.152599
31
0.0
0
LINE
8
HATCH
10
384.896500
20
649.795240
30
0.0
11
389.496500
21
654.395240
31
0.0
0
LINE
8
HATCH
10
393.081399
20
657.980139
30
0.0
11
394.496500
21
659.395240
31
0.0
0
LINE
8
HATCH
10
384.896500
20
654.037881
30
0.0
11
394.496500
21
663.637881
31
0.0
0
LINE
8
HATCH
10
384.896500
20
658.280522
30
0.0
11
394.496500
21
667.880522
31
0.0
0
LINE
8
HATCH
10
384.896500
20
662.523162
30
0.0
11
394.496500
21
672.123162
31
0.0
0
LINE
8
HATCH
10
384.896500
20
666.765803
30
0.0
11
394.496500
21
676.365803
31
0.0
0
LINE
8
HATCH
10
384.896500
20
671.008444
30
0.0
11
394.496500
21
680.608444
31
0.0
0
LINE
8
HATCH
10
384.896500
20
675.251084
30
0.0
11
394.496500
21
684.851084
31
0.0
0
LINE
8
HATCH
10
384.896500
20
679.493725
30
0.0
11
394.496500
21
689.093725
31
0.0
0
LINE
8
HATCH
10
380.750596
20
679.590462
30
0.0
11
394.496500
21
693.336366
31
0.0
0
LINE
8
HATCH
10
379.996500
20
683.079006
30
0.0
11
394.496500
21
697.579006
31
0.0
0
LINE
8
HATCH
10
379.996500
20
687.321647
30
0.0
11
383.265315
21
690.590462
31
0.0
0
LINE
8
HATCH
10
384.896500
20
692.221647
30
0.0
11
394.496500
21
701.821647
31
0.0
0
LINE
8
HATCH
10
384.896500
20
696.464288
30
0.0
11
391.690674
21
703.258462
31
0.0
0
LINE
8
HATCH
10
383.896500
20
699.706928
30
0.0
11
387.448034
21
703.258462
31
0.0
0
LINE
8
HATCH
10
382.645285
20
702.698355
30
0.0
11
385.405393
21
705.458462
31
0.0
0
LINE
8
HATCH
10
379.996500
20
704.292210
30
0.0
11
381.162752
21
705.458462
31
0.0
0
LINE
8
HATCH
10
394.496497
20
712.058462
30
0.0
11
394.496500
21
712.058465
31
0.0
0
LINE
8
HATCH
10
390.253856
20
712.058462
30
0.0
11
394.496500
21
716.301105
31
0.0
0
LINE
8
HATCH
10
383.811216
20
709.858462
30
0.0
11
385.516500
21
711.563746
31
0.0
0
LINE
8
HATCH
10
386.011216
20
712.058462
30
0.0
11
394.183216
21
720.230462
31
0.0
0
LINE
8
HATCH
10
379.996500
20
710.286387
30
0.0
11
389.940575
21
720.230462
31
0.0
0
LINE
8
HATCH
10
379.996500
20
714.529028
30
0.0
11
385.697934
21
720.230462
31
0.0
0
LINE
8
HATCH
10
379.996500
20
718.771668
30
0.0
11
383.655294
21
722.430462
31
0.0
0
LINE
8
DIM
10
385.039001
20
726.830462
30
0.0
11
406.896500
21
726.830462
31
0.0
0
LINE
8
DIM
10
385.039001
20
729.590569
30
0.0
11
406.896500
21
729.590569
31
0.0
0
LINE
8
DIM
10
404.896500
20
726.830462
30
0.0
11
404.896500
21
729.590569
31
0.0
0
SOLID
8
DIM
10
404.896500
20
726.830462
30
0.0
11
404.288500
21
723.630462
31
0.0
12
405.504500
22
723.630462
32
0.0
13
405.504500
23
723.630462
33
0.0
0
SOLID
8
DIM
10
404.896500
20
729.590569
30
0.0
11
405.504500
21
732.790569
31
0.0
12
404.288500
22
732.790569
32
0.0
13
404.288500
23
732.790569
33
0.0
0
LINE
8
DIM
10
404.896500
20
729.590569
30
0.0
11
404.896500
21
739.190569
31
0.0
0
TEXT
8
TEXT
10
403.896500
20
739.990569
30
0.0
40
3.5000
1
1.38 WALL
50
90.0000
0
LINE
8
DIM
10
384.896500
20
625.781265
30
0.0
11
384.896500
21
764.211592
31
0.0
0
LINE
8
DIM
10
389.496500
20
625.781265
30
0.0
11
389.496500
21
764.211592
31
0.0
0
LINE
8
DIM
10
384.896500
20
762.211592
30
0.0
11
389.496500
21
762.211592
31
0.0
0
SOLID
8
DIM
10
384.896500
20
762.211592
30
0.0
11
381.696500
21
762.819592
31
0.0
12
381.696500
22
761.603592
32
0.0
13
381.696500
23
761.603592
33
0.0
0
SOLID
8
DIM
10
389.496500
20
762.211592
30
0.0
11
392.696500
21
761.603592
31
0.0
12
392.696500
22
762.819592
32
0.0
13
392.696500
23
762.819592
33
0.0
0
LINE
8
DIM
10
389.496500
20
762.211592
30
0.0
11
399.096500
21
762.211592
31
0.0
0
TEXT
8
TEXT
10
399.896500
20
762.611592
30
0.0
40
3.5000
1
2.30 WALL
0
TEXT
8
TEXT
10
387.946500
20
599.660000
30
0.0
40
5.0000
1
SECTION A-A
72
1
73
0
11
387.946500
21
599.660000
31
0.0
0
LINE
8
TEXT
10
371.446500
20
598.060000
30
0.0
11
404.446500
21
598.060000
31
0.0
0
LINE
8
CENTER
10
327.269931
20
117.000000
30
0.0
11
338.669931
21
117.000000
31
0.0
0
LINE
8
CENTER
10
341.069931
20
117.000000
30
0.0
11
352.469931
21
117.000000
31
0.0
0
LINE
8
CENTER
10
339.869931
20
104.400000
30
0.0
11
339.869931
21
115.800000
31
0.0
0
LINE
8
CENTER
10
339.869931
20
118.200000
30
0.0
11
339.869931
21
129.600000
31
0.0
0
TEXT
8
TEXT
10
339.869931
20
139.000000
30
0.0
40
5.0000
1
DETAIL A
72
1
73
0
11
339.869931
21
139.000000
31
0.0
0
LINE
8
TEXT
10
327.869931
20
137.400000
30
0.0
11
351.869931
21
137.400000
31
0.0
0
TEXT
8
TEXT
10
339.869931
20
145.500000
30
0.0
40
3.5000
1
SCALE 4:1
72
1
73
0
11
339.869931
21
145.500000
31
0.0
0
SOLID
8
DIM
10
339.869931
20
97.000000
30
0.0
11
339.261931
21
93.800000
31
0.0
12
340.477931
22
93.800000
32
0.0
13
340.477931
23
93.800000
33
0.0
0
LINE
8
DIM
10
339.869931
20
97.000000
30
0.0
11
339.869931
21
87.000000
31
0.0
0
LINE
8
DIM
10
339.869931
20
87.000000
30
0.0
11
342.869931
21
87.000000
31
0.0
0
TEXT
8
TEXT
10
343.669931
20
88.000000
30
0.0
40
3.5000
1
R5.00
0
SOLID
8
DIM
10
339.869931
20
101.000000
30
0.0
11
340.671275
21
97.842863
31
0.0
12
341.773345
22
98.356767
32
0.0
13
341.773345
23
98.356767
33
0.0
0
LINE
8
DIM
10
339.869931
20
101.000000
30
0.0
11
344.096114
21
91.936922
31
0.0
0
LINE
8
DIM
10
344.096114
20
91.936922
30
0.0
11
347.096114
21
91.936922
31
0.0
0
TEXT
8
TEXT
10
347.896114
20
92.936922
30
0.0
40
3.5000
1
R4.00
0
SOLID
8
DIM
10
339.869931
20
106.000000
30
0.0
11
340.671275
21
102.842863
31
0.0
12
341.773345
22
103.356767
32
0.0
13
341.773345
23
103.356767
33
0.0
0
LINE
8
DIM
10
339.869931
20
106.000000
30
0.0
11
344.096114
21
96.936922
31
0.0
0
LINE
8
DIM
10
344.096114
20
96.936922
30
0.0
11
347.096114
21
96.936922
31
0.0
0
TEXT
8
TEXT
10
347.896114
20
97.936922
30
0.0
40
3.5000
1
R2.75
0
SOLID
8
DIM
10
339.869931
20
107.160000
30
0.0
11
337.966518
21
104.516767
31
0.0
12
339.068588
22
104.002863
32
0.0
13
339.068588
23
104.002863
33
0.0
0
LINE
8
DIM
10
339.869931
20
107.160000
30
0.0
11
335.643749
21
98.096922
31
0.0
0
LINE
8
DIM
10
335.643749
20
98.096922
30
0.0
11
332.643749
21
98.096922
31
0.0
0
TEXT
8
TEXT
10
331.843749
20
99.096922
30
0.0
40
3.5000
1
R2.46
72
2
73
0
11
331.843749
21
99.096922
31
0.0
0
SOLID
8
DIM
10
339.869931
20
111.600000
30
0.0
11
340.671275
21
108.442863
31
0.0
12
341.773345
22
108.956767
32
0.0
13
341.773345
23
108.956767
33
0.0
0
LINE
8
DIM
10
339.869931
20
111.600000
30
0.0
11
344.096114
21
102.536922
31
0.0
0
LINE
8
DIM
10
344.096114
20
102.536922
30
0.0
11
347.096114
21
102.536922
31
0.0
0
TEXT
8
TEXT
10
347.896114
20
103.536922
30
0.0
40
3.5000
1
R1.35
0
LINE
8
CENTER
10
675.502731
20
147.680000
30
0.0
11
685.582731
21
147.680000
31
0.0
0
LINE
8
CENTER
10
687.982731
20
147.680000
30
0.0
11
698.062731
21
147.680000
31
0.0
0
LINE
8
CENTER
10
686.782731
20
136.400000
30
0.0
11
686.782731
21
146.480000
31
0.0
0
LINE
8
CENTER
10
686.782731
20
148.880000
30
0.0
11
686.782731
21
158.960000
31
0.0
0
LINE
8
CENTER
10
739.502731
20
147.680000
30
0.0
11
749.582731
21
147.680000
31
0.0
0
LINE
8
CENTER
10
751.982731
20
147.680000
30
0.0
11
762.062731
21
147.680000
31
0.0
0
LINE
8
CENTER
10
750.782731
20
136.400000
30
0.0
11
750.782731
21
146.480000
31
0.0
0
LINE
8
CENTER
10
750.782731
20
148.880000
30
0.0
11
750.782731
21
158.960000
31
0.0
0
TEXT
8
TEXT
10
718.782731
20
200.360000
30
0.0
40
5.0000
1
DETAIL B
72
1
73
0
11
718.782731
21
200.360000
31
0.0
0
LINE
8
TEXT
10
706.782731
20
198.760000
30
0.0
11
730.782731
21
198.760000
31
0.0
0
TEXT
8
TEXT
10
718.782731
20
206.860000
30
0.0
40
3.5000
1
SCALE 4:1
72
1
73
0
11
718.782731
21
206.860000
31
0.0
0
SOLID
8
DIM
10
718.782731
20
193.880000
30
0.0
11
715.736925
21
195.034437
31
0.0
12
715.525768
22
193.836911
32
0.0
13
715.525768
23
193.836911
33
0.0
0
LINE
8
DIM
10
718.782731
20
193.880000
30
0.0
11
708.934654
21
195.616482
31
0.0
0
LINE
8
DIM
10
708.934654
20
195.616482
30
0.0
11
705.934654
21
195.616482
31
0.0
0
TEXT
8
TEXT
10
705.134654
20
196.616482
30
0.0
40
3.5000
1
R7.95
72
2
73
0
11
705.134654
21
196.616482
31
0.0
0
SOLID
8
DIM
10
682.257994
20
156.237404
30
0.0
11
679.281057
21
157.559336
31
0.0
12
679.003671
22
156.375397
32
0.0
13
679.003671
23
156.375397
33
0.0
0
LINE
8
DIM
10
682.257994
20
156.237404
30
0.0
11
672.521649
21
158.518538
31
0.0
0
LINE
8
DIM
10
672.521649
20
158.518538
30
0.0
11
669.521649
21
158.518538
31
0.0
0
TEXT
8
TEXT
10
668.721649
20
159.518538
30
0.0
40
3.5000
1
R2.42
72
2
73
0
11
668.721649
21
159.518538
31
0.0
0
SOLID
8
DIM
10
755.582731
20
147.680000
30
0.0
11
758.782731
21
147.072000
31
0.0
12
758.782731
22
148.288000
32
0.0
13
758.782731
23
148.288000
33
0.0
0
LINE
8
DIM
10
755.582731
20
147.680000
30
0.0
11
765.582731
21
147.680000
31
0.0
0
LINE
8
DIM
10
765.582731
20
147.680000
30
0.0
11
768.582731
21
147.680000
31
0.0
0
TEXT
8
TEXT
10
769.382731
20
148.680000
30
0.0
40
3.5000
1
R1.20
0
LINE
8
CENTER
10
1074.258231
20
155.774033
30
0.0
11
1083.458231
21
155.774033
31
0.0
0
LINE
8
CENTER
10
1085.858231
20
155.774033
30
0.0
11
1095.058231
21
155.774033
31
0.0
0
LINE
8
CENTER
10
1084.658231
20
145.374033
30
0.0
11
1084.658231
21
154.574033
31
0.0
0
LINE
8
CENTER
10
1084.658231
20
156.974033
30
0.0
11
1084.658231
21
166.174033
31
0.0
0
LINE
8
CENTER
10
1108.202231
20
155.774033
30
0.0
11
1117.402231
21
155.774033
31
0.0
0
LINE
8
CENTER
10
1119.802231
20
155.774033
30
0.0
11
1129.002231
21
155.774033
31
0.0
0
LINE
8
CENTER
10
1118.602231
20
145.374033
30
0.0
11
1118.602231
21
154.574033
31
0.0
0
LINE
8
CENTER
10
1118.602231
20
156.974033
30
0.0
11
1118.602231
21
166.174033
31
0.0
0
LINE
8
CENTER
10
1088.030231
20
138.802033
30
0.0
11
1100.430231
21
138.802033
31
0.0
0
LINE
8
CENTER
10
1102.830231
20
138.802033
30
0.0
11
1115.230231
21
138.802033
31
0.0
0
LINE
8
CENTER
10
1101.630231
20
125.202033
30
0.0
11
1101.630231
21
137.602033
31
0.0
0
LINE
8
CENTER
10
1101.630231
20
140.002033
30
0.0
11
1101.630231
21
152.402033
31
0.0
0
LINE
8
CENTER
10
1074.258231
20
121.830033
30
0.0
11
1083.458231
21
121.830033
31
0.0
0
LINE
8
CENTER
10
1085.858231
20
121.830033
30
0.0
11
1095.058231
21
121.830033
31
0.0
0
LINE
8
CENTER
10
1084.658231
20
111.430033
30
0.0
11
1084.658231
21
120.630033
31
0.0
0
LINE
8
CENTER
10
1084.658231
20
123.030033
30
0.0
11
1084.658231
21
132.230033
31
0.0
0
LINE
8
CENTER
10
1108.202231
20
121.830033
30
0.0
11
1117.402231
21
121.830033
31
0.0
0
LINE
8
CENTER
10
1119.802231
20
121.830033
30
0.0
11
1129.002231
21
121.830033
31
0.0
0
LINE
8
CENTER
10
1118.602231
20
111.430033
30
0.0
11
1118.602231
21
120.630033
31
0.0
0
LINE
8
CENTER
10
1118.602231
20
123.030033
30
0.0
11
1118.602231
21
132.230033
31
0.0
0
TEXT
8
TEXT
10
1101.630231
20
182.604065
30
0.0
40
5.0000
1
DETAIL C
72
1
73
0
11
1101.630231
21
182.604065
31
0.0
0
LINE
8
TEXT
10
1089.630231
20
181.004065
30
0.0
11
1113.630231
21
181.004065
31
0.0
0
TEXT
8
TEXT
10
1101.630231
20
189.104065
30
0.0
40
3.5000
1
SCALE 4:1
72
1
73
0
11
1101.630231
21
189.104065
31
0.0
0
SOLID
8
DIM
10
1101.630231
20
107.002033
30
0.0
11
1101.022231
21
103.802033
31
0.0
12
1102.238231
22
103.802033
32
0.0
13
1102.238231
23
103.802033
33
0.0
0
LINE
8
DIM
10
1101.630231
20
107.002033
30
0.0
11
1101.630231
21
97.002033
31
0.0
0
LINE
8
DIM
10
1101.630231
20
97.002033
30
0.0
11
1104.630231
21
97.002033
31
0.0
0
TEXT
8
TEXT
10
1105.430231
20
98.002033
30
0.0
40
3.5000
1
R7.95
0
SOLID
8
DIM
10
1101.630231
20
126.802033
30
0.0
11
1101.022231
21
123.602033
31
0.0
12
1102.238231
22
123.602033
32
0.0
13
1102.238231
23
123.602033
33
0.0
0
LINE
8
DIM
10
1101.630231
20
126.802033
30
0.0
11
1101.630231
21
116.802033
31
0.0
0
LINE
8
DIM
10
1101.630231
20
116.802033
30
0.0
11
1104.630231
21
116.802033
31
0.0
0
TEXT
8
TEXT
10
1105.430231
20
117.802033
30
0.0
40
3.5000
1
R3.00
0
SOLID
8
DIM
10
1076.231985
20
158.311428
30
0.0
11
1074.064624
21
160.742932
31
0.0
12
1073.323877
22
159.778593
32
0.0
13
1073.323877
23
159.778593
33
0.0
0
LINE
8
DIM
10
1076.231985
20
158.311428
30
0.0
11
1068.301565
21
164.403097
31
0.0
0
LINE
8
DIM
10
1068.301565
20
164.403097
30
0.0
11
1065.301565
21
164.403097
31
0.0
0
TEXT
8
TEXT
10
1064.501565
20
165.403097
30
0.0
40
3.5000
1
R2.20
72
2
73
0
11
1064.501565
21
165.403097
31
0.0
0
SOLID
8
DIM
10
1084.658231
20
117.430033
30
0.0
11
1082.192070
21
115.302191
31
0.0
12
1083.144330
22
114.545979
32
0.0
13
1083.144330
23
114.545979
33
0.0
0
LINE
8
DIM
10
1084.658231
20
117.430033
30
0.0
11
1078.439383
21
109.598945
31
0.0
0
LINE
8
DIM
10
1078.439383
20
109.598945
30
0.0
11
1075.439383
21
109.598945
31
0.0
0
TEXT
8
TEXT
10
1074.639383
20
110.598945
30
0.0
40
3.5000
1
R1.10
72
2
73
0
11
1074.639383
21
110.598945
31
0.0
0
LINE
8
CUT
10
396.432500
20
424.660000
30
0.0
11
396.432500
21
438.660000
31
0.0
0
LINE
8
CUTTHIN
10
396.432500
20
438.660000
30
0.0
11
396.432500
21
544.660000
31
0.0
0
LINE
8
CUT
10
396.432500
20
544.660000
30
0.0
11
396.432500
21
558.660000
31
0.0
0
LINE
8
CUT
10
396.432500
20
424.660000
30
0.0
11
405.432500
21
424.660000
31
0.0
0
SOLID
8
CUT
10
405.432500
20
424.660000
30
0.0
11
401.232500
21
425.458000
31
0.0
12
401.232500
22
423.862000
32
0.0
13
401.232500
23
423.862000
33
0.0
0
TEXT
8
TEXT
10
391.432500
20
424.660000
30
0.0
40
5.0000
1
A
72
1
73
2
11
391.432500
21
424.660000
31
0.0
0
LINE
8
CUT
10
396.432500
20
558.660000
30
0.0
11
405.432500
21
558.660000
31
0.0
0
SOLID
8
CUT
10
405.432500
20
558.660000
30
0.0
11
401.232500
21
559.458000
31
0.0
12
401.232500
22
557.862000
32
0.0
13
401.232500
23
557.862000
33
0.0
0
TEXT
8
TEXT
10
391.432500
20
558.660000
30
0.0
40
5.0000
1
A
72
1
73
2
11
391.432500
21
558.660000
31
0.0
0
TEXT
8
TEXT
10
1075.640000
20
620.160000
30
0.0
40
4.5000
1
HOLE TABLE — 8 POSITIONS
0
LINE
8
TITLE
10
1075.640000
20
617.660000
30
0.0
11
1166.240000
21
617.660000
31
0.0
0
TEXT
8
TITLE
10
1077.140000
20
612.785000
30
0.0
40
3.5000
1
TAG
0
TEXT
8
TITLE
10
1086.440000
20
612.785000
30
0.0
40
3.5000
1
SIZE
0
TEXT
8
TITLE
10
1110.440000
20
612.785000
30
0.0
40
3.5000
1
Y
0
TEXT
8
TITLE
10
1123.940000
20
612.785000
30
0.0
40
3.5000
1
Z
0
TEXT
8
TITLE
10
1137.440000
20
612.785000
30
0.0
40
3.5000
1
C'BORE
0
LINE
8
TITLE
10
1075.640000
20
611.185000
30
0.0
11
1166.240000
21
611.185000
31
0.0
0
TEXT
8
TEXT
10
1077.140000
20
606.310000
30
0.0
40
3.5000
1
A1
0
TEXT
8
TEXT
10
1086.440000
20
606.310000
30
0.0
40
3.5000
1
Ø2.20 THRU
0
TEXT
8
TEXT
10
1110.440000
20
606.310000
30
0.0
40
3.5000
1
26.24
0
TEXT
8
TEXT
10
1123.940000
20
606.310000
30
0.0
40
3.5000
1
40.02
0
TEXT
8
TEXT
10
1137.440000
20
606.310000
30
0.0
40
3.5000
1
Ø4.40x4.49 +X
0
TEXT
8
TEXT
10
1077.140000
20
599.835000
30
0.0
40
3.5000
1
A2
0
TEXT
8
TEXT
10
1086.440000
20
599.835000
30
0.0
40
3.5000
1
Ø2.20 THRU
0
TEXT
8
TEXT
10
1110.440000
20
599.835000
30
0.0
40
3.5000
1
17.76
0
TEXT
8
TEXT
10
1123.940000
20
599.835000
30
0.0
40
3.5000
1
40.02
0
TEXT
8
TEXT
10
1137.440000
20
599.835000
30
0.0
40
3.5000
1
Ø4.40x4.49 +X
0
TEXT
8
TEXT
10
1077.140000
20
593.360000
30
0.0
40
3.5000
1
A3
0
TEXT
8
TEXT
10
1086.440000
20
593.360000
30
0.0
40
3.5000
1
Ø6.00 THRU
0
TEXT
8
TEXT
10
1110.440000
20
593.360000
30
0.0
40
3.5000
1
22.00
0
TEXT
8
TEXT
10
1123.940000
20
593.360000
30
0.0
40
3.5000
1
35.78
0
TEXT
8
TEXT
10
1137.440000
20
593.360000
30
0.0
40
3.5000
1
-
0
TEXT
8
TEXT
10
1077.140000
20
586.885000
30
0.0
40
3.5000
1
A4
0
TEXT
8
TEXT
10
1086.440000
20
586.885000
30
0.0
40
3.5000
1
Ø2.20 THRU
0
TEXT
8
TEXT
10
1110.440000
20
586.885000
30
0.0
40
3.5000
1
26.24
0
TEXT
8
TEXT
10
1123.940000
20
586.885000
30
0.0
40
3.5000
1
31.53
0
TEXT
8
TEXT
10
1137.440000
20
586.885000
30
0.0
40
3.5000
1
Ø4.40x4.49 +X
0
TEXT
8
TEXT
10
1077.140000
20
580.410000
30
0.0
40
3.5000
1
A5
0
TEXT
8
TEXT
10
1086.440000
20
580.410000
30
0.0
40
3.5000
1
Ø2.20 THRU
0
TEXT
8
TEXT
10
1110.440000
20
580.410000
30
0.0
40
3.5000
1
17.76
0
TEXT
8
TEXT
10
1123.940000
20
580.410000
30
0.0
40
3.5000
1
31.53
0
TEXT
8
TEXT
10
1137.440000
20
580.410000
30
0.0
40
3.5000
1
Ø4.40x4.49 +X
0
TEXT
8
TEXT
10
1077.140000
20
573.935000
30
0.0
40
3.5000
1
A6
0
TEXT
8
TEXT
10
1086.440000
20
573.935000
30
0.0
40
3.5000
1
Ø2.40 THRU
0
TEXT
8
TEXT
10
1110.440000
20
573.935000
30
0.0
40
3.5000
1
30.00
0
TEXT
8
TEXT
10
1123.940000
20
573.935000
30
0.0
40
3.5000
1
16.28
0
TEXT
8
TEXT
10
1137.440000
20
573.935000
30
0.0
40
3.5000
1
Ø4.84x3.00 +X
0
TEXT
8
TEXT
10
1077.140000
20
567.460000
30
0.0
40
3.5000
1
A7
0
TEXT
8
TEXT
10
1086.440000
20
567.460000
30
0.0
40
3.5000
1
Ø2.40 THRU
0
TEXT
8
TEXT
10
1110.440000
20
567.460000
30
0.0
40
3.5000
1
14.00
0
TEXT
8
TEXT
10
1123.940000
20
567.460000
30
0.0
40
3.5000
1
16.28
0
TEXT
8
TEXT
10
1137.440000
20
567.460000
30
0.0
40
3.5000
1
Ø4.84x3.00 +X
0
TEXT
8
TEXT
10
1077.140000
20
560.985000
30
0.0
40
3.5000
1
A8
0
TEXT
8
TEXT
10
1086.440000
20
560.985000
30
0.0
40
3.5000
1
Ø2.70 THRU
0
TEXT
8
TEXT
10
1110.440000
20
560.985000
30
0.0
40
3.5000
1
22.00
0
TEXT
8
TEXT
10
1123.940000
20
560.985000
30
0.0
40
3.5000
1
-6.22
0
TEXT
8
TEXT
10
1137.440000
20
560.985000
30
0.0
40
3.5000
1
Ø5.50x3.49 -X
0
LINE
8
TITLE
10
1075.640000
20
559.385000
30
0.0
11
1166.240000
21
559.385000
31
0.0
0
LINE
8
TITLE
10
1084.940000
20
559.385000
30
0.0
11
1084.940000
21
617.660000
31
0.0
0
LINE
8
TITLE
10
1108.940000
20
559.385000
30
0.0
11
1108.940000
21
617.660000
31
0.0
0
LINE
8
TITLE
10
1122.440000
20
559.385000
30
0.0
11
1122.440000
21
617.660000
31
0.0
0
LINE
8
TITLE
10
1135.940000
20
559.385000
30
0.0
11
1135.940000
21
617.660000
31
0.0
0
LINE
8
TITLE
10
1166.240000
20
559.385000
30
0.0
11
1166.240000
21
617.660000
31
0.0
0
LINE
8
TITLE
10
1075.640000
20
559.385000
30
0.0
11
1075.640000
21
617.660000
31
0.0
0
TEXT
8
TITLE
10
1075.640000
20
555.385000
30
0.0
40
3.5000
1
every row measured off the solid; positions are model
0
TEXT
8
TITLE
10
1075.640000
20
550.135000
30
0.0
40
3.5000
1
coordinates, mm. C'BORE side is the face it opens on;
0
TEXT
8
TITLE
10
1075.640000
20
544.885000
30
0.0
40
3.5000
1
INT = centred in the bore, opening on neither face.
0
TEXT
8
TEXT
10
13.000000
20
548.660000
30
0.0
40
7.0000
1
MICRODUCK SHIN
0
TEXT
8
TEXT
10
13.000000
20
540.160000
30
0.0
40
3.5000
1
2:1
0
TEXT
8
TEXT
10
13.000000
20
535.160000
30
0.0
40
3.5000
1
A0 / THIRD ANGLE / mm
0
TEXT
8
TEXT
10
13.000000
20
530.160000
30
0.0
40
3.5000
1
7.95 x 20.00 x 58.00
0
TEXT
8
TEXT
10
13.000000
20
525.160000
30
0.0
40
3.5000
1
3.39 cm3
0
TEXT
8
TEXT
10
13.000000
20
520.160000
30
0.0
40
3.5000
1
CAD SOURCE: part:microduck-shin
0
TEXT
8
TEXT
10
13.000000
20
515.160000
30
0.0
40
3.5000
1
DATUM: XYZ MINIMUM ENCLOSING PLANES
0
TEXT
8
TEXT
10
13.000000
20
510.160000
30
0.0
40
3.5000
1
XYZ origin mm: 32.5000, 12.0000, -12.2230
0
TEXT
8
TEXT
10
13.000000
20
505.160000
30
0.0
40
3.5000
1
GENERAL TOLERANCE CANNOT DETERMINE — SEE PRINT / DFM NOTES UNLESS STATED.
0
TEXT
8
TEXT
10
13.000000
20
500.160000
30
0.0
40
3.5000
1
DRAFT — NOT RELEASED
0
TEXT
8
TEXT
10
480.600000
20
508.660000
30
0.0
40
3.5000
1
PRINT / DFM
0
TEXT
8
TEXT
10
480.600000
20
501.660000
30
0.0
40
3.5000
1
ORIENTATION: upright, Z-up (8 x 20 x 58 mm)
0
TEXT
8
TEXT
10
480.600000
20
496.660000
30
0.0
40
3.5000
1
THINNEST WALL, WHOLE SOLID (RAY MINIMUM): 0.0280 mm — a
0
TEXT
8
TEXT
10
480.600000
20
491.660000
30
0.0
40
3.5000
1
distance through material, NOT a printable wall where it
0
TEXT
8
TEXT
10
480.600000
20
486.660000
30
0.0
40
3.5000
1
falls on an edge, a fillet run-out or a chamfer tip.
0
TEXT
8
TEXT
10
480.600000
20
481.660000
30
0.0
40
3.5000
1
Printability is judged on the next line.
0
TEXT
8
TEXT
10
480.600000
20
476.660000
30
0.0
40
3.5000
1
PRINTABLE MINIMUM WALL: 1.0000 mm (smallest median wall
0
TEXT
8
TEXT
10
480.600000
20
471.660000
30
0.0
40
3.5000
1
over a 3.1340 mm neighbourhood,
0
TEXT
8
TEXT
10
480.600000
20
466.660000
30
0.0
40
3.5000
1
cecad.inspect.printable_wall_detail) against a 0.8000 mm
0
TEXT
8
TEXT
10
480.600000
20
461.660000
30
0.0
40
3.5000
1
floor (2 perimeters @ 0.4 mm nozzle): VERDICT PASS
0
TEXT
8
TEXT
10
831.300000
20
508.660000
30
0.0
40
3.5000
1
PRINT / DFM
0
TEXT
8
TEXT
10
831.300000
20
501.660000
30
0.0
40
3.5000
1
15 horizontal bore(s) bridge at the crown: ream any bearing or
0
TEXT
8
TEXT
10
831.300000
20
496.660000
30
0.0
40
3.5000
1
press-fit bore to size
0
TEXT
8
TEXT
10
831.300000
20
491.660000
30
0.0
40
3.5000
1
FILAMENT: PLA, ~4 g (modelled), 290 layers @ 0.2 mm
0
TEXT
8
TEXT
10
13.000000
20
235.000000
30
0.0
40
3.5000
1
SOURCE / PROCESS
0
TEXT
8
TEXT
10
13.000000
20
230.000000
30
0.0
40
3.5000
1
DETAIL A DISPLAY SECTION: Z = -0.2230 mm SOURCE XYZ; KEEP MIN. Raster
0
TEXT
8
TEXT
10
13.000000
20
225.000000
30
0.0
40
3.5000
1
boundaries clip the view; original geometry unchanged.
0
TEXT
8
TEXT
10
13.000000
20
220.000000
30
0.0
40
3.5000
1
RECREATION MATERIAL: PLA
0
TEXT
8
TEXT
10
13.000000
20
215.000000
30
0.0
40
3.5000
1
PROCESS: FDM
0
TEXT
8
TEXT
10
13.000000
20
210.000000
30
0.0
40
3.5000
1
RECORD: ce-parts/microduck-shin/component.json
0
TEXT
8
TEXT
10
13.000000
20
205.000000
30
0.0
40
3.5000
1
GEOMETRY SOURCE: reference/pollen-microduck-rl/assets/leg.stl
0
TEXT
8
TEXT
10
13.000000
20
200.000000
30
0.0
40
3.5000
1
(Onshape doc 804927696f06d877f3f1803e, exported by onshape-to-robot)
0
TEXT
8
TEXT
10
13.000000
20
195.000000
30
0.0
40
3.5000
1
ORIGINAL MATERIAL / SURFACE FINISH: CANNOT DETERMINE; obtain original
0
TEXT
8
TEXT
10
13.000000
20
190.000000
30
0.0
40
3.5000
1
specification or measure original part.
0
TEXT
8
TEXT
10
13.000000
20
185.000000
30
0.0
40
3.5000
1
PART MASS: CANNOT DETERMINE; weigh the produced part or qualify
0
TEXT
8
TEXT
10
13.000000
20
180.000000
30
0.0
40
3.5000
1
material density and actual infill before assigning mass.
0
TEXT
8
TEXT
10
13.000000
20
175.000000
30
0.0
40
3.5000
1
FASTENER LENGTH / TORQUE / FIT CLASS: CANNOT DETERMINE; verify
0
TEXT
8
TEXT
10
13.000000
20
170.000000
30
0.0
40
3.5000
1
interface stack and test production coupon.
0
TEXT
8
TEXT
10
13.000000
20
165.000000
30
0.0
40
3.5000
1
KNEE MATE CONTRACT: connection:spline-xl330-horn
0
TEXT
8
TEXT
10
13.000000
20
160.000000
30
0.0
40
3.5000
1
MATING PART: part:xl330-m288-t
0
TEXT
8
TEXT
10
13.000000
20
155.000000
30
0.0
40
3.5000
1
ANKLE MATE CONTRACT: connection:press-fit-bearing-15x10x3
0
TEXT
8
TEXT
10
13.000000
20
150.000000
30
0.0
40
3.5000
1
MATING PART: part:bearing-15x10x3
0
LINE
8
DIM
10
672.545637
20
594.640128
30
0.0
11
694.945637
21
595.410128
31
0.0
0
CIRCLE
8
DIM
10
672.545637
20
594.640128
30
0.0
40
0.450000
0
TEXT
8
DIM
10
708.545637
20
594.640128
30
0.0
40
3.5000
1
E041 R5.0000
72
1
73
0
11
708.545637
21
594.640128
31
0.0
0
LINE
8
DIM
10
628.076885
20
565.811319
30
0.0
11
631.284581
21
560.581319
31
0.0
0
CIRCLE
8
DIM
10
628.076885
20
565.811319
30
0.0
40
0.450000
0
TEXT
8
DIM
10
617.684581
20
559.811319
30
0.0
40
3.5000
1
E046 R5.0000
72
1
73
0
11
617.684581
21
559.811319
31
0.0
0
LINE
8
DIM
10
228.898724
20
592.750766
30
0.0
11
211.321809
21
575.520766
31
0.0
0
CIRCLE
8
DIM
10
228.898724
20
592.750766
30
0.0
40
0.450000
0
TEXT
8
DIM
10
197.721809
20
574.750766
30
0.0
40
3.5000
1
E055 R5.0000
72
1
73
0
11
197.721809
21
574.750766
31
0.0
0
LINE
8
DIM
10
256.472120
20
569.708499
30
0.0
11
257.344198
21
557.750577
31
0.0
0
CIRCLE
8
DIM
10
256.472120
20
569.708499
30
0.0
40
0.450000
0
TEXT
8
DIM
10
243.744198
20
556.980577
30
0.0
40
3.5000
1
E056 R5.0000
72
1
73
0
11
243.744198
21
556.980577
31
0.0
0
LINE
8
DIM
10
628.076885
20
581.870158
30
0.0
11
612.699111
21
574.875587
31
0.0
0
CIRCLE
8
DIM
10
628.076885
20
581.870158
30
0.0
40
0.450000
0
TEXT
8
DIM
10
599.099111
20
574.105587
30
0.0
40
3.5000
1
E057 R2.7500
72
1
73
0
11
599.099111
21
574.105587
31
0.0
0
LINE
8
DIM
10
256.472120
20
576.845761
30
0.0
11
259.842682
21
560.645198
31
0.0
0
CIRCLE
8
DIM
10
256.472120
20
576.845761
30
0.0
40
0.450000
0
TEXT
8
DIM
10
273.442682
20
559.875198
30
0.0
40
3.5000
1
E058 R4.0000
72
1
73
0
11
273.442682
21
559.875198
31
0.0
0
LINE
8
DIM
10
640.408968
20
600.432678
30
0.0
11
607.644528
21
588.779363
31
0.0
0
CIRCLE
8
DIM
10
640.408968
20
600.432678
30
0.0
40
0.450000
0
TEXT
8
DIM
10
594.044528
20
588.009363
30
0.0
40
3.5000
1
E059 R2.7500
72
1
73
0
11
594.044528
21
588.009363
31
0.0
0
LINE
8
DIM
10
253.343350
20
577.917343
30
0.0
11
268.721125
21
570.922771
31
0.0
0
CIRCLE
8
DIM
10
253.343350
20
577.917343
30
0.0
40
0.450000
0
TEXT
8
DIM
10
282.321125
20
570.152771
30
0.0
40
3.5000
1
E060 R4.0000
72
1
73
0
11
282.321125
21
570.152771
31
0.0
0
LINE
8
DIM
10
241.316594
20
599.718302
30
0.0
11
281.716594
21
600.488302
31
0.0
0
CIRCLE
8
DIM
10
241.316594
20
599.718302
30
0.0
40
0.450000
0
TEXT
8
DIM
10
295.316594
20
599.718302
30
0.0
40
3.5000
1
E062 R2.4600
72
1
73
0
11
295.316594
21
599.718302
31
0.0
0
LINE
8
DIM
10
267.673115
20
591.923241
30
0.0
11
278.073115
21
592.693241
31
0.0
0
CIRCLE
8
DIM
10
267.673115
20
591.923241
30
0.0
40
0.450000
0
TEXT
8
DIM
10
291.673115
20
591.923241
30
0.0
40
3.5000
1
E063 R1.3500
72
1
73
0
11
291.673115
21
591.923241
31
0.0
0
LINE
8
DIM
10
267.673115
20
584.000880
30
0.0
11
278.073115
21
584.770880
31
0.0
0
CIRCLE
8
DIM
10
267.673115
20
584.000880
30
0.0
40
0.450000
0
TEXT
8
DIM
10
291.673115
20
584.000880
30
0.0
40
3.5000
1
E064 R2.4600
72
1
73
0
11
291.673115
21
584.000880
31
0.0
0
TEXT
8
TEXT
10
417.305000
20
196.500000
30
0.0
40
3.5000
1
HIDDEN ARC LOCATORS / DATUM XYZ mm
0
TEXT
8
TEXT
10
417.305000
20
191.500000
30
0.0
40
3.5000
1
E061 R1.3500 / SWEEP 360.0000 deg
0
TEXT
8
TEXT
10
417.305000
20
186.500000
30
0.0
40
3.5000
1
CENTRE 3.4900, 10.0000, 6.0000
0
TEXT
8
TEXT
10
417.305000
20
181.500000
30
0.0
40
3.5000
1
AXIS 1.0000, 0.0000, 0.0000
0
TEXT
8
TEXT
10
417.305000
20
176.500000
30
0.0
40
3.5000
1
START 3.4900, 10.0000, 7.3500
0
TEXT
8
TEXT
10
417.305000
20
171.500000
30
0.0
40
3.5000
1
END 3.4900, 10.0000, 7.3500
0
TEXT
8
TEXT
10
799.152500
20
190.000000
30
0.0
40
3.5000
1
DRAFTING GAPS — NOT RELEASED
0
TEXT
8
TEXT
10
799.152500
20
185.000000
30
0.0
40
3.5000
1
E009 / E047 / E061 have measured coordinate locators; section or detail
0
TEXT
8
TEXT
10
799.152500
20
180.000000
30
0.0
40
3.5000
1
leaders remain required by A.5.
0
TEXT
8
TEXT
10
799.152500
20
175.000000
30
0.0
40
3.5000
1
Enlarged shaded feature-cluster details and non-circular feature locator
0
TEXT
8
TEXT
10
799.152500
20
170.000000
30
0.0
40
3.5000
1
audit remain incomplete.
0
TEXT
8
TEXT
10
13.000000
20
410.660000
30
0.0
40
3.5000
1
FRAME OCCUPANCY 99.88%
0
ENDSEC
0
EOF
