0
SECTION
2
HEADER
9
$ACADVER
1
AC1009
9
$INSUNITS
70
4
9
$LTSCALE
40
1.0
9
$EXTMIN
10
0.0000
20
0.0000
30
0.0
9
$EXTMAX
10
420.0000
20
297.0000
30
0.0
0
ENDSEC
0
SECTION
2
TABLES
0
TABLE
2
LTYPE
70
4
0
LTYPE
2
CONTINUOUS
70
0
3
Solid line
72
65
73
0
40
0.0000
0
LTYPE
2
HIDDEN
70
0
3
Hidden __ __ __ __
72
65
73
2
40
3.6000
49
2.4000
49
-1.2000
0
LTYPE
2
CENTER
70
0
3
Center ____ _ ____ _
72
65
73
4
40
11.2000
49
7.0000
49
-1.4000
49
1.4000
49
-1.4000
0
LTYPE
2
PHANTOM
70
0
3
Phantom ____ _ _ ____
72
65
73
6
40
21.0000
49
11.0000
49
-2.0000
49
2.0000
49
-2.0000
49
2.0000
49
-2.0000
0
ENDTAB
0
TABLE
2
LAYER
70
12
0
LAYER
2
0
70
0
62
7
6
CONTINUOUS
0
LAYER
2
VISIBLE
70
0
62
7
6
CONTINUOUS
0
LAYER
2
SECTION
70
0
62
7
6
CONTINUOUS
0
LAYER
2
HIDDEN
70
0
62
8
6
HIDDEN
0
LAYER
2
CENTER
70
0
62
4
6
CENTER
0
LAYER
2
DIM
70
0
62
3
6
CONTINUOUS
0
LAYER
2
TEXT
70
0
62
3
6
CONTINUOUS
0
LAYER
2
HATCH
70
0
62
5
6
CONTINUOUS
0
LAYER
2
CUT
70
0
62
1
6
PHANTOM
0
LAYER
2
CUTTHIN
70
0
62
1
6
PHANTOM
0
LAYER
2
FRAME
70
0
62
7
6
CONTINUOUS
0
LAYER
2
TITLE
70
0
62
7
6
CONTINUOUS
0
ENDTAB
0
ENDSEC
0
SECTION
2
ENTITIES
0
LINE
8
TITLE
10
5.000000
20
5.000000
30
0.0
11
415.000000
21
5.000000
31
0.0
0
LINE
8
TITLE
10
415.000000
20
5.000000
30
0.0
11
415.000000
21
292.000000
31
0.0
0
LINE
8
TITLE
10
415.000000
20
292.000000
30
0.0
11
5.000000
21
292.000000
31
0.0
0
LINE
8
TITLE
10
5.000000
20
292.000000
30
0.0
11
5.000000
21
5.000000
31
0.0
0
LINE
8
FRAME
10
10.000000
20
10.000000
30
0.0
11
410.000000
21
10.000000
31
0.0
0
LINE
8
FRAME
10
410.000000
20
10.000000
30
0.0
11
410.000000
21
287.000000
31
0.0
0
LINE
8
FRAME
10
410.000000
20
287.000000
30
0.0
11
10.000000
21
287.000000
31
0.0
0
LINE
8
FRAME
10
10.000000
20
287.000000
30
0.0
11
10.000000
21
10.000000
31
0.0
0
TEXT
8
TITLE
10
60.000000
20
289.500000
30
0.0
40
2.4000
1
1
72
1
73
2
11
60.000000
21
289.500000
31
0.0
0
TEXT
8
TITLE
10
60.000000
20
7.500000
30
0.0
40
2.4000
1
1
72
1
73
2
11
60.000000
21
7.500000
31
0.0
0
TEXT
8
TITLE
10
160.000000
20
289.500000
30
0.0
40
2.4000
1
2
72
1
73
2
11
160.000000
21
289.500000
31
0.0
0
TEXT
8
TITLE
10
160.000000
20
7.500000
30
0.0
40
2.4000
1
2
72
1
73
2
11
160.000000
21
7.500000
31
0.0
0
LINE
8
TITLE
10
110.000000
20
5.000000
30
0.0
11
110.000000
21
10.000000
31
0.0
0
LINE
8
TITLE
10
110.000000
20
287.000000
30
0.0
11
110.000000
21
292.000000
31
0.0
0
TEXT
8
TITLE
10
260.000000
20
289.500000
30
0.0
40
2.4000
1
3
72
1
73
2
11
260.000000
21
289.500000
31
0.0
0
TEXT
8
TITLE
10
260.000000
20
7.500000
30
0.0
40
2.4000
1
3
72
1
73
2
11
260.000000
21
7.500000
31
0.0
0
LINE
8
TITLE
10
210.000000
20
5.000000
30
0.0
11
210.000000
21
10.000000
31
0.0
0
LINE
8
TITLE
10
210.000000
20
287.000000
30
0.0
11
210.000000
21
292.000000
31
0.0
0
TEXT
8
TITLE
10
360.000000
20
289.500000
30
0.0
40
2.4000
1
4
72
1
73
2
11
360.000000
21
289.500000
31
0.0
0
TEXT
8
TITLE
10
360.000000
20
7.500000
30
0.0
40
2.4000
1
4
72
1
73
2
11
360.000000
21
7.500000
31
0.0
0
LINE
8
TITLE
10
310.000000
20
5.000000
30
0.0
11
310.000000
21
10.000000
31
0.0
0
LINE
8
TITLE
10
310.000000
20
287.000000
30
0.0
11
310.000000
21
292.000000
31
0.0
0
TEXT
8
TITLE
10
7.500000
20
56.166667
30
0.0
40
2.4000
1
C
72
1
73
2
11
7.500000
21
56.166667
31
0.0
0
TEXT
8
TITLE
10
412.500000
20
56.166667
30
0.0
40
2.4000
1
C
72
1
73
2
11
412.500000
21
56.166667
31
0.0
0
TEXT
8
TITLE
10
7.500000
20
148.500000
30
0.0
40
2.4000
1
B
72
1
73
2
11
7.500000
21
148.500000
31
0.0
0
TEXT
8
TITLE
10
412.500000
20
148.500000
30
0.0
40
2.4000
1
B
72
1
73
2
11
412.500000
21
148.500000
31
0.0
0
LINE
8
TITLE
10
5.000000
20
102.333333
30
0.0
11
10.000000
21
102.333333
31
0.0
0
LINE
8
TITLE
10
410.000000
20
102.333333
30
0.0
11
415.000000
21
102.333333
31
0.0
0
TEXT
8
TITLE
10
7.500000
20
240.833333
30
0.0
40
2.4000
1
A
72
1
73
2
11
7.500000
21
240.833333
31
0.0
0
TEXT
8
TITLE
10
412.500000
20
240.833333
30
0.0
40
2.4000
1
A
72
1
73
2
11
412.500000
21
240.833333
31
0.0
0
LINE
8
TITLE
10
5.000000
20
194.666667
30
0.0
11
10.000000
21
194.666667
31
0.0
0
LINE
8
TITLE
10
410.000000
20
194.666667
30
0.0
11
415.000000
21
194.666667
31
0.0
0
LINE
8
VISIBLE
10
162.000000
20
126.500000
30
0.0
11
162.000000
21
140.500000
31
0.0
0
LINE
8
VISIBLE
10
92.000000
20
126.500000
30
0.0
11
92.000000
21
140.500000
31
0.0
0
LINE
8
VISIBLE
10
162.000000
20
126.500000
30
0.0
11
92.000000
21
126.500000
31
0.0
0
LINE
8
VISIBLE
10
162.000000
20
140.500000
30
0.0
11
92.000000
21
140.500000
31
0.0
0
LINE
8
VISIBLE
10
92.000000
20
182.500000
30
0.0
11
92.000000
21
232.500000
31
0.0
0
LINE
8
VISIBLE
10
162.000000
20
182.500000
30
0.0
11
162.000000
21
232.500000
31
0.0
0
LINE
8
VISIBLE
10
92.000000
20
182.500000
30
0.0
11
162.000000
21
182.500000
31
0.0
0
LINE
8
VISIBLE
10
92.000000
20
232.500000
30
0.0
11
162.000000
21
232.500000
31
0.0
0
LINE
8
VISIBLE
10
250.000000
20
126.500000
30
0.0
11
250.000000
21
140.500000
31
0.0
0
LINE
8
VISIBLE
10
250.000000
20
140.500000
30
0.0
11
200.000000
21
140.500000
31
0.0
0
LINE
8
VISIBLE
10
200.000000
20
126.500000
30
0.0
11
200.000000
21
140.500000
31
0.0
0
LINE
8
VISIBLE
10
250.000000
20
126.500000
30
0.0
11
200.000000
21
126.500000
31
0.0
0
LINE
8
VISIBLE
10
376.833333
20
263.569946
30
0.0
11
376.833333
21
273.000000
31
0.0
0
LINE
8
VISIBLE
10
376.833333
20
273.000000
30
0.0
11
406.000000
21
256.160617
31
0.0
0
LINE
8
VISIBLE
10
406.000000
20
246.730563
30
0.0
11
406.000000
21
256.160617
31
0.0
0
LINE
8
VISIBLE
10
376.833333
20
263.569946
30
0.0
11
406.000000
21
246.730563
31
0.0
0
LINE
8
VISIBLE
10
336.000000
20
239.994810
30
0.0
11
336.000000
21
249.424864
31
0.0
0
LINE
8
VISIBLE
10
336.000000
20
239.994810
30
0.0
11
365.166667
21
223.155427
31
0.0
0
LINE
8
VISIBLE
10
376.833333
20
263.569946
30
0.0
11
336.000000
21
239.994810
31
0.0
0
LINE
8
VISIBLE
10
376.833333
20
273.000000
30
0.0
11
336.000000
21
249.424864
31
0.0
0
LINE
8
VISIBLE
10
406.000000
20
246.730563
30
0.0
11
365.166667
21
223.155427
31
0.0
0
LINE
8
DIM
10
92.000000
20
125.300000
30
0.0
11
92.000000
21
112.500000
31
0.0
0
LINE
8
DIM
10
162.000000
20
125.300000
30
0.0
11
162.000000
21
112.500000
31
0.0
0
LINE
8
DIM
10
92.000000
20
114.500000
30
0.0
11
162.000000
21
114.500000
31
0.0
0
SOLID
8
DIM
10
92.000000
20
114.500000
30
0.0
11
95.200000
21
113.892000
31
0.0
12
95.200000
22
115.108000
32
0.0
13
95.200000
23
115.108000
33
0.0
0
SOLID
8
DIM
10
162.000000
20
114.500000
30
0.0
11
158.800000
21
115.108000
31
0.0
12
158.800000
22
113.892000
32
0.0
13
158.800000
23
113.892000
33
0.0
0
TEXT
8
TEXT
10
127.000000
20
115.500000
30
0.0
40
2.5000
1
35.00
72
1
73
0
11
127.000000
21
115.500000
31
0.0
0
LINE
8
DIM
10
90.800000
20
126.500000
30
0.0
11
78.000000
21
126.500000
31
0.0
0
LINE
8
DIM
10
90.800000
20
140.500000
30
0.0
11
78.000000
21
140.500000
31
0.0
0
LINE
8
DIM
10
80.000000
20
126.500000
30
0.0
11
80.000000
21
140.500000
31
0.0
0
SOLID
8
DIM
10
80.000000
20
126.500000
30
0.0
11
80.608000
21
129.700000
31
0.0
12
79.392000
22
129.700000
32
0.0
13
79.392000
23
129.700000
33
0.0
0
SOLID
8
DIM
10
80.000000
20
140.500000
30
0.0
11
79.392000
21
137.300000
31
0.0
12
80.608000
22
137.300000
32
0.0
13
80.608000
23
137.300000
33
0.0
0
TEXT
8
TEXT
10
79.000000
20
133.500000
30
0.0
40
2.5000
1
7.00
50
90.0000
72
1
73
0
11
79.000000
21
133.500000
31
0.0
0
TEXT
8
TEXT
10
127.000000
20
102.500000
30
0.0
40
4.0000
1
FRONT VIEW
72
1
73
0
11
127.000000
21
102.500000
31
0.0
0
LINE
8
TEXT
10
115.000000
20
100.900000
30
0.0
11
139.000000
21
100.900000
31
0.0
0
TEXT
8
TEXT
10
127.000000
20
96.500000
30
0.0
40
2.4000
1
-X →   Z ↑
72
1
73
0
11
127.000000
21
96.500000
31
0.0
0
LINE
8
DIM
10
92.000000
20
181.300000
30
0.0
11
92.000000
21
168.500000
31
0.0
0
LINE
8
DIM
10
162.000000
20
181.300000
30
0.0
11
162.000000
21
168.500000
31
0.0
0
LINE
8
DIM
10
92.000000
20
170.500000
30
0.0
11
162.000000
21
170.500000
31
0.0
0
SOLID
8
DIM
10
92.000000
20
170.500000
30
0.0
11
95.200000
21
169.892000
31
0.0
12
95.200000
22
171.108000
32
0.0
13
95.200000
23
171.108000
33
0.0
0
SOLID
8
DIM
10
162.000000
20
170.500000
30
0.0
11
158.800000
21
171.108000
31
0.0
12
158.800000
22
169.892000
32
0.0
13
158.800000
23
169.892000
33
0.0
0
TEXT
8
TEXT
10
127.000000
20
171.500000
30
0.0
40
2.5000
1
35.00
72
1
73
0
11
127.000000
21
171.500000
31
0.0
0
LINE
8
DIM
10
90.800000
20
182.500000
30
0.0
11
78.000000
21
182.500000
31
0.0
0
LINE
8
DIM
10
90.800000
20
232.500000
30
0.0
11
78.000000
21
232.500000
31
0.0
0
LINE
8
DIM
10
80.000000
20
182.500000
30
0.0
11
80.000000
21
232.500000
31
0.0
0
SOLID
8
DIM
10
80.000000
20
182.500000
30
0.0
11
80.608000
21
185.700000
31
0.0
12
79.392000
22
185.700000
32
0.0
13
79.392000
23
185.700000
33
0.0
0
SOLID
8
DIM
10
80.000000
20
232.500000
30
0.0
11
79.392000
21
229.300000
31
0.0
12
80.608000
22
229.300000
32
0.0
13
80.608000
23
229.300000
33
0.0
0
TEXT
8
TEXT
10
79.000000
20
207.500000
30
0.0
40
2.5000
1
25.00
50
90.0000
72
1
73
0
11
79.000000
21
207.500000
31
0.0
0
TEXT
8
TEXT
10
127.000000
20
158.500000
30
0.0
40
4.0000
1
TOP VIEW
72
1
73
0
11
127.000000
21
158.500000
31
0.0
0
LINE
8
TEXT
10
117.400000
20
156.900000
30
0.0
11
136.600000
21
156.900000
31
0.0
0
TEXT
8
TEXT
10
127.000000
20
152.500000
30
0.0
40
2.4000
1
X →   Y ↑
72
1
73
0
11
127.000000
21
152.500000
31
0.0
0
LINE
8
DIM
10
200.000000
20
125.300000
30
0.0
11
200.000000
21
112.500000
31
0.0
0
LINE
8
DIM
10
250.000000
20
125.300000
30
0.0
11
250.000000
21
112.500000
31
0.0
0
LINE
8
DIM
10
200.000000
20
114.500000
30
0.0
11
250.000000
21
114.500000
31
0.0
0
SOLID
8
DIM
10
200.000000
20
114.500000
30
0.0
11
203.200000
21
113.892000
31
0.0
12
203.200000
22
115.108000
32
0.0
13
203.200000
23
115.108000
33
0.0
0
SOLID
8
DIM
10
250.000000
20
114.500000
30
0.0
11
246.800000
21
115.108000
31
0.0
12
246.800000
22
113.892000
32
0.0
13
246.800000
23
113.892000
33
0.0
0
TEXT
8
TEXT
10
225.000000
20
115.500000
30
0.0
40
2.5000
1
25.00
72
1
73
0
11
225.000000
21
115.500000
31
0.0
0
LINE
8
DIM
10
198.800000
20
126.500000
30
0.0
11
186.000000
21
126.500000
31
0.0
0
LINE
8
DIM
10
198.800000
20
140.500000
30
0.0
11
186.000000
21
140.500000
31
0.0
0
LINE
8
DIM
10
188.000000
20
126.500000
30
0.0
11
188.000000
21
140.500000
31
0.0
0
SOLID
8
DIM
10
188.000000
20
126.500000
30
0.0
11
188.608000
21
129.700000
31
0.0
12
187.392000
22
129.700000
32
0.0
13
187.392000
23
129.700000
33
0.0
0
SOLID
8
DIM
10
188.000000
20
140.500000
30
0.0
11
187.392000
21
137.300000
31
0.0
12
188.608000
22
137.300000
32
0.0
13
188.608000
23
137.300000
33
0.0
0
TEXT
8
TEXT
10
187.000000
20
133.500000
30
0.0
40
2.5000
1
7.00
50
90.0000
72
1
73
0
11
187.000000
21
133.500000
31
0.0
0
TEXT
8
TEXT
10
225.000000
20
102.500000
30
0.0
40
4.0000
1
RIGHT VIEW
72
1
73
0
11
225.000000
21
102.500000
31
0.0
0
LINE
8
TEXT
10
213.000000
20
100.900000
30
0.0
11
237.000000
21
100.900000
31
0.0
0
TEXT
8
TEXT
10
225.000000
20
96.500000
30
0.0
40
2.4000
1
-Y →   Z ↑
72
1
73
0
11
225.000000
21
96.500000
31
0.0
0
TEXT
8
TEXT
10
371.000000
20
217.155427
30
0.0
40
4.0000
1
ISOMETRIC VIEW
72
1
73
0
11
371.000000
21
217.155427
31
0.0
0
LINE
8
TEXT
10
354.200000
20
215.555427
30
0.0
11
387.800000
21
215.555427
31
0.0
0
TEXT
8
TEXT
10
371.000000
20
211.155427
30
0.0
40
2.6000
1
35.00 x 25.00 x 7.00 mm
72
1
73
0
11
371.000000
21
211.155427
31
0.0
0
LINE
8
VISIBLE
10
342.000000
20
157.333205
30
0.0
11
400.000000
21
157.333205
31
0.0
0
LINE
8
VISIBLE
10
400.000000
20
157.333205
30
0.0
11
400.000000
21
201.155427
31
0.0
0
LINE
8
VISIBLE
10
400.000000
20
201.155427
30
0.0
11
342.000000
21
201.155427
31
0.0
0
LINE
8
VISIBLE
10
342.000000
20
201.155427
30
0.0
11
342.000000
21
157.333205
31
0.0
0
LINE
8
TITLE
10
342.000000
20
157.333205
30
0.0
11
400.000000
21
157.333205
31
0.0
0
LINE
8
TITLE
10
400.000000
20
157.333205
30
0.0
11
400.000000
21
201.155427
31
0.0
0
LINE
8
TITLE
10
400.000000
20
201.155427
30
0.0
11
342.000000
21
201.155427
31
0.0
0
LINE
8
TITLE
10
342.000000
20
201.155427
30
0.0
11
342.000000
21
157.333205
31
0.0
0
TEXT
8
TEXT
10
371.000000
20
154.733205
30
0.0
40
2.0000
1
REFERENCE RENDER (ISO2) — rendered off this solid,
72
1
73
0
11
371.000000
21
154.733205
31
0.0
0
TEXT
8
TEXT
10
371.000000
20
152.133205
30
0.0
40
2.0000
1
900 x 680 px
72
1
73
0
11
371.000000
21
152.133205
31
0.0
0
TEXT
8
TEXT
10
334.000000
20
143.333205
30
0.0
40
3.0000
1
NOTES
0
TEXT
8
TEXT
10
334.000000
20
138.733205
30
0.0
40
2.0000
1
1. ALL DIMENSIONS IN mm AND DEGREES. EVERY DIMENSION AND
0
TEXT
8
TEXT
10
334.000000
20
135.633205
30
0.0
40
2.0000
1
   EVERY HOLE CALLOUT WAS MEASURED OFF THE SOLID.
0
TEXT
8
TEXT
10
334.000000
20
132.533205
30
0.0
40
2.0000
1
2. THINNEST WALL, WHOLE SOLID (RAY MINIMUM): 7.0000 mm, AT
0
TEXT
8
TEXT
10
334.000000
20
129.433205
30
0.0
40
2.0000
1
   X=2.917 Y=-15.104 Z=0.000 — MEASURED OVER THE WHOLE
0
TEXT
8
TEXT
10
334.000000
20
126.333205
30
0.0
40
2.0000
1
   SOLID BY RAY+EXACT AT 0.6570 mm SAMPLE SPACING (A
0
TEXT
8
TEXT
10
334.000000
20
123.233205
30
0.0
40
2.0000
1
   FEATURE NARROWER THAN THAT CAN BE MISSED). THIS IS A
0
TEXT
8
TEXT
10
334.000000
20
120.133205
30
0.0
40
2.0000
1
   DISTANCE THROUGH MATERIAL, NOT A WALL: AT AN EDGE, A
0
TEXT
8
TEXT
10
334.000000
20
117.033205
30
0.0
40
2.0000
1
   FILLET RUN-OUT OR A CHAMFER TIP IT IS REAL AND
0
TEXT
8
TEXT
10
334.000000
20
113.933205
30
0.0
40
2.0000
1
   UNPRINTABLE BY DEFINITION. DO NOT JUDGE PRINTABILITY BY
0
TEXT
8
TEXT
10
334.000000
20
110.833205
30
0.0
40
2.0000
1
   IT — THE NEXT NOTE IS THE ONE THAT DOES.
0
TEXT
8
TEXT
10
334.000000
20
107.733205
30
0.0
40
2.0000
1
3. PRINTABLE MINIMUM WALL: CANNOT DETERMINE — no ray fired
0
TEXT
8
TEXT
10
334.000000
20
104.633205
30
0.0
40
2.0000
1
   into this solid came back out of a wall within 4.000 mm
0
TEXT
8
TEXT
10
334.000000
20
101.533205
30
0.0
40
2.0000
1
   — every wall on it is thicker than the cap, or it is not
0
TEXT
8
TEXT
10
334.000000
20
98.433205
30
0.0
40
2.0000
1
   a closed solid. MEASURED AS THE SMALLEST MEDIAN WALL
0
TEXT
8
TEXT
10
334.000000
20
95.333205
30
0.0
40
2.0000
1
   OVER A NEIGHBOURHOOD OF ? mm (>= ? SAMPLES), RAYS CAPPED
0
TEXT
8
TEXT
10
334.000000
20
92.233205
30
0.0
40
2.0000
1
   AT 4.000 mm, BY cecad.inspect.printable_wall_detail.
0
TEXT
8
TEXT
10
334.000000
20
89.133205
30
0.0
40
2.0000
1
   WHAT SETTLES IT: a printed and sectioned coupon of the
0
TEXT
8
TEXT
10
334.000000
20
86.033205
30
0.0
40
2.0000
1
   thinnest feature.
0
TEXT
8
TEXT
10
334.000000
20
82.933205
30
0.0
40
2.0000
1
4. FEATURE CENSUS, MEASURED OFF THE SOLID: 0 HOLES, 0 ARC
0
TEXT
8
TEXT
10
334.000000
20
79.833205
30
0.0
40
2.0000
1
   RADII IN THE R0.20..R60.00 BAND, 0 SLOTS, 0 GROOVES.
0
TEXT
8
TEXT
10
334.000000
20
76.733205
30
0.0
40
2.0000
1
   THERE IS NO HOLE TABLE, NO SECTION AND NO R LEADER ON
0
TEXT
8
TEXT
10
334.000000
20
73.633205
30
0.0
40
2.0000
1
   THIS SHEET BECAUSE THE PART HAS NONE OF THOSE FEATURES —
0
TEXT
8
TEXT
10
334.000000
20
70.533205
30
0.0
40
2.0000
1
   NOT BECAUSE THE DRAWING DROPPED THEM. THE OUTLINE AND
0
TEXT
8
TEXT
10
334.000000
20
67.433205
30
0.0
40
2.0000
1
   THE ENVELOPE ARE THE WHOLE OF ITS GEOMETRY.
0
TEXT
8
TEXT
10
334.000000
20
64.333205
30
0.0
40
2.0000
1
5. DETAIL CALLOUTS (MANUFACTURING-REQUIREMENTS A.7): NONE
0
TEXT
8
TEXT
10
334.000000
20
61.233205
30
0.0
40
2.0000
1
   ON THIS SHEET, AND NONE WAS PROPOSED —
0
TEXT
8
TEXT
10
334.000000
20
58.133205
30
0.0
40
2.0000
1
   cecad.autosheet.detail_regions FOUND NO CLUSTER OF SMALL
0
TEXT
8
TEXT
10
334.000000
20
55.033205
30
0.0
40
2.0000
1
   FEATURES DENSE ENOUGH TO BE WORTH ENLARGING ON THIS
0
TEXT
8
TEXT
10
334.000000
20
51.933205
30
0.0
40
2.0000
1
   SOLID. EVERY FEATURE IS DIMENSIONED IN THE ORTHOGRAPHIC
0
TEXT
8
TEXT
10
334.000000
20
48.833205
30
0.0
40
2.0000
1
   VIEWS AND THE HOLE TABLE.
0
TEXT
8
TEXT
10
334.000000
20
45.733205
30
0.0
40
2.0000
1
6. GENERAL TOLERANCE CANNOT DETERMINE — SEE PRINT / DFM
0
TEXT
8
TEXT
10
334.000000
20
42.633205
30
0.0
40
2.0000
1
   NOTES UNLESS STATED.
0
TEXT
8
TEXT
10
334.000000
20
39.533205
30
0.0
40
2.0000
1
7. FRONT VIEW: hidden lines SUPPRESSED: all 60 edge samples
0
TEXT
8
TEXT
10
334.000000
20
36.433205
30
0.0
40
2.0000
1
   still land on drawn ink without them.
0
TEXT
8
TEXT
10
334.000000
20
33.333205
30
0.0
40
2.0000
1
8. TOP VIEW: hidden lines SUPPRESSED: all 60 edge samples
0
TEXT
8
TEXT
10
334.000000
20
30.233205
30
0.0
40
2.0000
1
   still land on drawn ink without them.
0
TEXT
8
TEXT
10
334.000000
20
27.133205
30
0.0
40
2.0000
1
9. RIGHT VIEW: hidden lines SUPPRESSED: all 60 edge samples
0
TEXT
8
TEXT
10
334.000000
20
24.033205
30
0.0
40
2.0000
1
   still land on drawn ink without them.
0
TEXT
8
TEXT
10
334.000000
20
16.933205
30
0.0
40
3.0000
1
PRINT / DFM
0
TEXT
8
TEXT
10
334.000000
20
12.333205
30
0.0
40
2.0000
1
1. ORIENTATION: laid flat (35 x 25 x 7 mm)
0
TEXT
8
TEXT
10
334.000000
20
9.233205
30
0.0
40
2.0000
1
2. THINNEST WALL, WHOLE SOLID (RAY MINIMUM): 7.0000 mm — a
0
TEXT
8
TEXT
10
334.000000
20
6.133205
30
0.0
40
2.0000
1
   distance through material, NOT a printable wall where it
0
TEXT
8
TEXT
10
334.000000
20
3.033205
30
0.0
40
2.0000
1
   falls on an edge, a fillet run-out or a chamfer tip.
0
TEXT
8
TEXT
10
334.000000
20
-0.066795
30
0.0
40
2.0000
1
   Printability is judged on the next line.
0
TEXT
8
TEXT
10
334.000000
20
-3.166795
30
0.0
40
2.0000
1
3. PRINTABLE MINIMUM WALL: CANNOT DETERMINE — no ray fired
0
TEXT
8
TEXT
10
334.000000
20
-6.266795
30
0.0
40
2.0000
1
   into this solid came back out of a wall within 4.000 mm
0
TEXT
8
TEXT
10
334.000000
20
-9.366795
30
0.0
40
2.0000
1
   — every wall on it is thicker than the cap, or it is not
0
TEXT
8
TEXT
10
334.000000
20
-12.466795
30
0.0
40
2.0000
1
   a closed solid. Floor is 0.8000 mm (2 perimeters @ 0.4
0
TEXT
8
TEXT
10
334.000000
20
-15.566795
30
0.0
40
2.0000
1
   mm nozzle, cecad/printed.py:801). What settles it: a
0
TEXT
8
TEXT
10
334.000000
20
-18.666795
30
0.0
40
2.0000
1
   printed and sectioned coupon of the thinnest feature.
0
TEXT
8
TEXT
10
334.000000
20
-21.766795
30
0.0
40
2.0000
1
4. FILAMENT: ABS, ~3 g (modelled), 35 layers @ 0.2 mm
0
TEXT
8
TEXT
10
334.000000
20
-24.866795
30
0.0
40
2.0000
1
5. TOLERANCE BASIS, IN-HOUSE: CANNOT DETERMINE. Every Bambu
0
TEXT
8
TEXT
10
334.000000
20
-27.966795
30
0.0
40
2.0000
1
   on this farm records tolerance_mm: null, cite "no coupon
0
TEXT
8
TEXT
10
334.000000
20
-31.066795
30
0.0
40
2.0000
1
   printed and measured on this machine"
0
TEXT
8
TEXT
10
334.000000
20
-34.166795
30
0.0
40
2.0000
1
   (ce-machines/bambu-h2s-*, bambu-h2d-*/capabilities.json,
0
TEXT
8
TEXT
10
334.000000
20
-37.266795
30
0.0
40
2.0000
1
   read 2026-09-02), and Bambu Lab's own H2D Pro spec sheet
0
TEXT
8
TEXT
10
334.000000
20
-40.366795
30
0.0
40
2.0000
1
   carries no dimensional-accuracy line. DIMENSIONS HERE
0
TEXT
8
TEXT
10
334.000000
20
-43.466795
30
0.0
40
2.0000
1
   ARE NOMINAL AS MODELLED.
0
TEXT
8
TEXT
10
334.000000
20
-46.566795
30
0.0
40
2.0000
1
6. TOLERANCE BASIS, OUTSOURCED: JLC3DP ±0.3 mm FDM
0
TEXT
8
TEXT
10
334.000000
20
-49.666795
30
0.0
40
2.0000
1
   (jlc3dp.com, ce-machines/farm-jlc3dp); Hubs ±0.5%, floor
0
TEXT
8
TEXT
10
334.000000
20
-52.766795
30
0.0
40
2.0000
1
   ±0.5 mm (hubs.com/3d-printing/, ce-machines/farm-hubs).
0
TEXT
8
TEXT
10
334.000000
20
-55.866795
30
0.0
40
2.0000
1
   Apply the route's figure, not both. The ±0.2 mm in
0
TEXT
8
TEXT
10
334.000000
20
-58.966795
30
0.0
40
2.0000
1
   cecad/machining.py fdm is a repo planning constant with
0
TEXT
8
TEXT
10
334.000000
20
-62.066795
30
0.0
40
2.0000
1
   no vendor cite and is NOT used here. One printed and
0
TEXT
8
TEXT
10
334.000000
20
-65.166795
30
0.0
40
2.0000
1
   measured coupon closes this note.
0
TEXT
8
TEXT
10
334.000000
20
-68.266795
30
0.0
40
2.0000
1
7. NO ISO 286 CLASS IS DECLARED ON ANY BORE: FDM cannot be
0
TEXT
8
TEXT
10
334.000000
20
-71.366795
30
0.0
40
2.0000
1
   sized to one (H7/p6 at Ø3 is a 0.010 mm band). REAM
0
TEXT
8
TEXT
10
334.000000
20
-74.466795
30
0.0
40
2.0000
1
   bearing and press-fit bores after printing.
0
TEXT
8
TEXT
10
334.000000
20
-77.566795
30
0.0
40
2.0000
1
8. THIS IS OUR MODEL OF A BOUGHT PART, NOT A PART WE MAKE.
0
TEXT
8
TEXT
10
334.000000
20
-80.666795
30
0.0
40
2.0000
1
   The solid was built parametrically in this repo from the
0
TEXT
8
TEXT
10
334.000000
20
-83.766795
30
0.0
40
2.0000
1
   vendor's published figures; the vendor's own drawing
0
TEXT
8
TEXT
10
334.000000
20
-86.866795
30
0.0
40
2.0000
1
   governs every dimension, and this sheet exists so the
0
TEXT
8
TEXT
10
334.000000
20
-89.966795
30
0.0
40
2.0000
1
   assembly can be checked against a real envelope. Do not
0
TEXT
8
TEXT
10
334.000000
20
-93.066795
30
0.0
40
2.0000
1
   send it to a shop as a part to manufacture. Its
0
TEXT
8
TEXT
10
334.000000
20
-96.166795
30
0.0
40
2.0000
1
   component.json states origin: vendor and names the
0
TEXT
8
TEXT
10
334.000000
20
-99.266795
30
0.0
40
2.0000
1
   source it was measured from.
0
LINE
8
FRAME
10
224.000000
20
10.000000
30
0.0
11
410.000000
21
10.000000
31
0.0
0
LINE
8
FRAME
10
410.000000
20
10.000000
30
0.0
11
410.000000
21
66.000000
31
0.0
0
LINE
8
FRAME
10
410.000000
20
66.000000
30
0.0
11
224.000000
21
66.000000
31
0.0
0
LINE
8
FRAME
10
224.000000
20
66.000000
30
0.0
11
224.000000
21
10.000000
31
0.0
0
LINE
8
TITLE
10
224.000000
20
53.000000
30
0.0
11
410.000000
21
53.000000
31
0.0
0
LINE
8
TITLE
10
224.000000
20
19.000000
30
0.0
11
410.000000
21
19.000000
31
0.0
0
LINE
8
TITLE
10
224.000000
20
27.500000
30
0.0
11
410.000000
21
27.500000
31
0.0
0
LINE
8
TITLE
10
224.000000
20
36.000000
30
0.0
11
410.000000
21
36.000000
31
0.0
0
LINE
8
TITLE
10
224.000000
20
44.500000
30
0.0
11
410.000000
21
44.500000
31
0.0
0
TEXT
8
TEXT
10
226.500000
20
59.500000
30
0.0
40
6.0000
1
MICRODUCK-SPEAKER
72
0
73
2
11
226.500000
21
59.500000
31
0.0
0
LINE
8
TITLE
10
390.000000
20
53.000000
30
0.0
11
390.000000
21
66.000000
31
0.0
0
TEXT
8
TITLE
10
400.000000
20
63.600000
30
0.0
40
1.7000
1
REV
72
1
73
0
11
400.000000
21
63.600000
31
0.0
0
TEXT
8
TEXT
10
400.000000
20
55.000000
30
0.0
40
5.2000
1
A
72
1
73
0
11
400.000000
21
55.000000
31
0.0
0
LINE
8
TITLE
10
360.000000
20
53.000000
30
0.0
11
360.000000
21
66.000000
31
0.0
0
CIRCLE
8
TITLE
10
366.500000
20
59.500000
30
0.0
40
3.500000
0
CIRCLE
8
TITLE
10
366.500000
20
59.500000
30
0.0
40
1.960000
0
LINE
8
TITLE
10
376.300000
20
56.000000
30
0.0
11
376.300000
21
63.000000
31
0.0
0
LINE
8
TITLE
10
376.300000
20
63.000000
30
0.0
11
382.250000
21
61.460000
31
0.0
0
LINE
8
TITLE
10
382.250000
20
61.460000
30
0.0
11
382.250000
21
57.540000
31
0.0
0
LINE
8
TITLE
10
382.250000
20
57.540000
30
0.0
11
376.300000
21
56.000000
31
0.0
0
LINE
8
CENTER
10
361.500000
20
59.500000
30
0.0
11
383.750000
21
59.500000
31
0.0
0
LINE
8
TITLE
10
288.000000
20
19.000000
30
0.0
11
288.000000
21
53.000000
31
0.0
0
LINE
8
TITLE
10
352.000000
20
19.000000
30
0.0
11
352.000000
21
53.000000
31
0.0
0
TEXT
8
TITLE
10
225.600000
20
50.600000
30
0.0
40
1.7000
1
MATERIAL
0
TEXT
8
TEXT
10
225.600000
20
45.900000
30
0.0
40
2.5000
1
ABS
0
TEXT
8
TITLE
10
289.600000
20
50.600000
30
0.0
40
1.7000
1
PROCESS
0
TEXT
8
TEXT
10
289.600000
20
45.900000
30
0.0
40
2.5000
1
-
0
TEXT
8
TITLE
10
353.600000
20
50.600000
30
0.0
40
1.7000
1
SCALE
0
TEXT
8
TEXT
10
353.600000
20
45.900000
30
0.0
40
2.5000
1
2:1
0
TEXT
8
TITLE
10
225.600000
20
42.100000
30
0.0
40
1.7000
1
CATEGORY
0
TEXT
8
TEXT
10
225.600000
20
37.400000
30
0.0
40
2.5000
1
speaker
0
TEXT
8
TITLE
10
257.600000
20
42.100000
30
0.0
40
1.7000
1
GENERAL TOL
0
TEXT
8
TEXT
10
257.600000
20
37.400000
30
0.0
40
2.5000
1
CANNOT DETERMINE —~
0
LINE
8
TITLE
10
256.000000
20
36.000000
30
0.0
11
256.000000
21
44.500000
31
0.0
0
TEXT
8
TITLE
10
289.600000
20
42.100000
30
0.0
40
1.7000
1
FINISH
0
TEXT
8
TEXT
10
289.600000
20
37.400000
30
0.0
40
2.5000
1
AS PRINTED
0
TEXT
8
TITLE
10
353.600000
20
42.100000
30
0.0
40
1.7000
1
SHEET
0
TEXT
8
TEXT
10
353.600000
20
37.400000
30
0.0
40
2.5000
1
A3  1/1
0
TEXT
8
TITLE
10
225.600000
20
33.600000
30
0.0
40
1.7000
1
VOLUME (MEASURED)
0
TEXT
8
TEXT
10
225.600000
20
28.900000
30
0.0
40
2.5000
1
6.12 cm3
0
TEXT
8
TITLE
10
289.600000
20
33.600000
30
0.0
40
1.7000
1
MASS (ASSUMES ABS)
0
TEXT
8
TEXT
10
289.600000
20
28.900000
30
0.0
40
2.5000
1
6.4 g
0
TEXT
8
TITLE
10
353.600000
20
33.600000
30
0.0
40
1.7000
1
UNITS
0
TEXT
8
TEXT
10
353.600000
20
28.900000
30
0.0
40
2.5000
1
mm / deg
0
TEXT
8
TITLE
10
225.600000
20
25.100000
30
0.0
40
1.7000
1
SIZE (BBOX, MEASURED)
0
TEXT
8
TEXT
10
225.600000
20
20.400000
30
0.0
40
2.5000
1
35.00 x 25.00 x 7.00
0
TEXT
8
TITLE
10
289.600000
20
25.100000
30
0.0
40
1.7000
1
DRAWN
0
TEXT
8
TEXT
10
289.600000
20
20.400000
30
0.0
40
2.5000
1
ce-cad  2026-09-03
0
TEXT
8
TITLE
10
353.600000
20
25.100000
30
0.0
40
1.7000
1
PROJECTION
0
TEXT
8
TEXT
10
353.600000
20
20.400000
30
0.0
40
2.5000
1
THIRD ANGLE
0
TEXT
8
TITLE
10
225.600000
20
16.600000
30
0.0
40
1.7000
1
SOURCE (DESIGN FILE)
0
TEXT
8
TEXT
10
225.600000
20
11.400000
30
0.0
40
2.6000
1
ce-parts/microduck-speaker/current/cad/part.py
0
TEXT
8
TEXT
10
12.500000
20
280.500000
30
0.0
40
4.2000
1
microduck-speaker   SCALE 2:1   A3   THIRD ANGLE
0
ENDSEC
0
EOF
