0
SECTION
2
HEADER
9
$ACADVER
1
AC1009
9
$INSUNITS
70
4
9
$LTSCALE
40
1.0
9
$EXTMIN
10
0.0000
20
0.0000
30
0.0
9
$EXTMAX
10
841.0000
20
594.0000
30
0.0
0
ENDSEC
0
SECTION
2
TABLES
0
TABLE
2
LTYPE
70
4
0
LTYPE
2
CONTINUOUS
70
0
3
Solid line
72
65
73
0
40
0.0000
0
LTYPE
2
HIDDEN
70
0
3
Hidden __ __ __ __
72
65
73
2
40
3.6000
49
2.4000
49
-1.2000
0
LTYPE
2
CENTER
70
0
3
Center ____ _ ____ _
72
65
73
4
40
11.2000
49
7.0000
49
-1.4000
49
1.4000
49
-1.4000
0
LTYPE
2
PHANTOM
70
0
3
Phantom ____ _ _ ____
72
65
73
6
40
21.0000
49
11.0000
49
-2.0000
49
2.0000
49
-2.0000
49
2.0000
49
-2.0000
0
ENDTAB
0
TABLE
2
LAYER
70
12
0
LAYER
2
0
70
0
62
7
6
CONTINUOUS
0
LAYER
2
VISIBLE
70
0
62
7
6
CONTINUOUS
0
LAYER
2
SECTION
70
0
62
7
6
CONTINUOUS
0
LAYER
2
HIDDEN
70
0
62
8
6
HIDDEN
0
LAYER
2
CENTER
70
0
62
4
6
CENTER
0
LAYER
2
DIM
70
0
62
3
6
CONTINUOUS
0
LAYER
2
TEXT
70
0
62
3
6
CONTINUOUS
0
LAYER
2
HATCH
70
0
62
5
6
CONTINUOUS
0
LAYER
2
CUT
70
0
62
1
6
PHANTOM
0
LAYER
2
CUTTHIN
70
0
62
1
6
PHANTOM
0
LAYER
2
FRAME
70
0
62
7
6
CONTINUOUS
0
LAYER
2
TITLE
70
0
62
7
6
CONTINUOUS
0
ENDTAB
0
ENDSEC
0
SECTION
2
ENTITIES
0
LINE
8
TITLE
10
5.000000
20
5.000000
30
0.0
11
836.000000
21
5.000000
31
0.0
0
LINE
8
TITLE
10
836.000000
20
5.000000
30
0.0
11
836.000000
21
589.000000
31
0.0
0
LINE
8
TITLE
10
836.000000
20
589.000000
30
0.0
11
5.000000
21
589.000000
31
0.0
0
LINE
8
TITLE
10
5.000000
20
589.000000
30
0.0
11
5.000000
21
5.000000
31
0.0
0
LINE
8
FRAME
10
10.000000
20
10.000000
30
0.0
11
831.000000
21
10.000000
31
0.0
0
LINE
8
FRAME
10
831.000000
20
10.000000
30
0.0
11
831.000000
21
584.000000
31
0.0
0
LINE
8
FRAME
10
831.000000
20
584.000000
30
0.0
11
10.000000
21
584.000000
31
0.0
0
LINE
8
FRAME
10
10.000000
20
584.000000
30
0.0
11
10.000000
21
10.000000
31
0.0
0
TEXT
8
TITLE
10
61.312500
20
586.500000
30
0.0
40
2.4000
1
1
72
1
73
2
11
61.312500
21
586.500000
31
0.0
0
TEXT
8
TITLE
10
61.312500
20
7.500000
30
0.0
40
2.4000
1
1
72
1
73
2
11
61.312500
21
7.500000
31
0.0
0
TEXT
8
TITLE
10
163.937500
20
586.500000
30
0.0
40
2.4000
1
2
72
1
73
2
11
163.937500
21
586.500000
31
0.0
0
TEXT
8
TITLE
10
163.937500
20
7.500000
30
0.0
40
2.4000
1
2
72
1
73
2
11
163.937500
21
7.500000
31
0.0
0
LINE
8
TITLE
10
112.625000
20
5.000000
30
0.0
11
112.625000
21
10.000000
31
0.0
0
LINE
8
TITLE
10
112.625000
20
584.000000
30
0.0
11
112.625000
21
589.000000
31
0.0
0
TEXT
8
TITLE
10
266.562500
20
586.500000
30
0.0
40
2.4000
1
3
72
1
73
2
11
266.562500
21
586.500000
31
0.0
0
TEXT
8
TITLE
10
266.562500
20
7.500000
30
0.0
40
2.4000
1
3
72
1
73
2
11
266.562500
21
7.500000
31
0.0
0
LINE
8
TITLE
10
215.250000
20
5.000000
30
0.0
11
215.250000
21
10.000000
31
0.0
0
LINE
8
TITLE
10
215.250000
20
584.000000
30
0.0
11
215.250000
21
589.000000
31
0.0
0
TEXT
8
TITLE
10
369.187500
20
586.500000
30
0.0
40
2.4000
1
4
72
1
73
2
11
369.187500
21
586.500000
31
0.0
0
TEXT
8
TITLE
10
369.187500
20
7.500000
30
0.0
40
2.4000
1
4
72
1
73
2
11
369.187500
21
7.500000
31
0.0
0
LINE
8
TITLE
10
317.875000
20
5.000000
30
0.0
11
317.875000
21
10.000000
31
0.0
0
LINE
8
TITLE
10
317.875000
20
584.000000
30
0.0
11
317.875000
21
589.000000
31
0.0
0
TEXT
8
TITLE
10
471.812500
20
586.500000
30
0.0
40
2.4000
1
5
72
1
73
2
11
471.812500
21
586.500000
31
0.0
0
TEXT
8
TITLE
10
471.812500
20
7.500000
30
0.0
40
2.4000
1
5
72
1
73
2
11
471.812500
21
7.500000
31
0.0
0
LINE
8
TITLE
10
420.500000
20
5.000000
30
0.0
11
420.500000
21
10.000000
31
0.0
0
LINE
8
TITLE
10
420.500000
20
584.000000
30
0.0
11
420.500000
21
589.000000
31
0.0
0
TEXT
8
TITLE
10
574.437500
20
586.500000
30
0.0
40
2.4000
1
6
72
1
73
2
11
574.437500
21
586.500000
31
0.0
0
TEXT
8
TITLE
10
574.437500
20
7.500000
30
0.0
40
2.4000
1
6
72
1
73
2
11
574.437500
21
7.500000
31
0.0
0
LINE
8
TITLE
10
523.125000
20
5.000000
30
0.0
11
523.125000
21
10.000000
31
0.0
0
LINE
8
TITLE
10
523.125000
20
584.000000
30
0.0
11
523.125000
21
589.000000
31
0.0
0
TEXT
8
TITLE
10
677.062500
20
586.500000
30
0.0
40
2.4000
1
7
72
1
73
2
11
677.062500
21
586.500000
31
0.0
0
TEXT
8
TITLE
10
677.062500
20
7.500000
30
0.0
40
2.4000
1
7
72
1
73
2
11
677.062500
21
7.500000
31
0.0
0
LINE
8
TITLE
10
625.750000
20
5.000000
30
0.0
11
625.750000
21
10.000000
31
0.0
0
LINE
8
TITLE
10
625.750000
20
584.000000
30
0.0
11
625.750000
21
589.000000
31
0.0
0
TEXT
8
TITLE
10
779.687500
20
586.500000
30
0.0
40
2.4000
1
8
72
1
73
2
11
779.687500
21
586.500000
31
0.0
0
TEXT
8
TITLE
10
779.687500
20
7.500000
30
0.0
40
2.4000
1
8
72
1
73
2
11
779.687500
21
7.500000
31
0.0
0
LINE
8
TITLE
10
728.375000
20
5.000000
30
0.0
11
728.375000
21
10.000000
31
0.0
0
LINE
8
TITLE
10
728.375000
20
584.000000
30
0.0
11
728.375000
21
589.000000
31
0.0
0
TEXT
8
TITLE
10
7.500000
20
67.400000
30
0.0
40
2.4000
1
E
72
1
73
2
11
7.500000
21
67.400000
31
0.0
0
TEXT
8
TITLE
10
833.500000
20
67.400000
30
0.0
40
2.4000
1
E
72
1
73
2
11
833.500000
21
67.400000
31
0.0
0
TEXT
8
TITLE
10
7.500000
20
182.200000
30
0.0
40
2.4000
1
D
72
1
73
2
11
7.500000
21
182.200000
31
0.0
0
TEXT
8
TITLE
10
833.500000
20
182.200000
30
0.0
40
2.4000
1
D
72
1
73
2
11
833.500000
21
182.200000
31
0.0
0
LINE
8
TITLE
10
5.000000
20
124.800000
30
0.0
11
10.000000
21
124.800000
31
0.0
0
LINE
8
TITLE
10
831.000000
20
124.800000
30
0.0
11
836.000000
21
124.800000
31
0.0
0
TEXT
8
TITLE
10
7.500000
20
297.000000
30
0.0
40
2.4000
1
C
72
1
73
2
11
7.500000
21
297.000000
31
0.0
0
TEXT
8
TITLE
10
833.500000
20
297.000000
30
0.0
40
2.4000
1
C
72
1
73
2
11
833.500000
21
297.000000
31
0.0
0
LINE
8
TITLE
10
5.000000
20
239.600000
30
0.0
11
10.000000
21
239.600000
31
0.0
0
LINE
8
TITLE
10
831.000000
20
239.600000
30
0.0
11
836.000000
21
239.600000
31
0.0
0
TEXT
8
TITLE
10
7.500000
20
411.800000
30
0.0
40
2.4000
1
B
72
1
73
2
11
7.500000
21
411.800000
31
0.0
0
TEXT
8
TITLE
10
833.500000
20
411.800000
30
0.0
40
2.4000
1
B
72
1
73
2
11
833.500000
21
411.800000
31
0.0
0
LINE
8
TITLE
10
5.000000
20
354.400000
30
0.0
11
10.000000
21
354.400000
31
0.0
0
LINE
8
TITLE
10
831.000000
20
354.400000
30
0.0
11
836.000000
21
354.400000
31
0.0
0
TEXT
8
TITLE
10
7.500000
20
526.600000
30
0.0
40
2.4000
1
A
72
1
73
2
11
7.500000
21
526.600000
31
0.0
0
TEXT
8
TITLE
10
833.500000
20
526.600000
30
0.0
40
2.4000
1
A
72
1
73
2
11
833.500000
21
526.600000
31
0.0
0
LINE
8
TITLE
10
5.000000
20
469.200000
30
0.0
11
10.000000
21
469.200000
31
0.0
0
LINE
8
TITLE
10
831.000000
20
469.200000
30
0.0
11
836.000000
21
469.200000
31
0.0
0
LINE
8
VISIBLE
10
405.489925
20
229.744448
30
0.0
11
403.251322
21
224.033124
31
0.0
0
LINE
8
VISIBLE
10
405.497911
20
301.849005
30
0.0
11
405.489925
21
229.744448
31
0.0
0
LINE
8
VISIBLE
10
403.251322
20
224.033124
30
0.0
11
401.662660
21
218.108033
31
0.0
0
LINE
8
VISIBLE
10
404.797911
20
306.049005
30
0.0
11
405.497911
21
301.849005
31
0.0
0
LINE
8
VISIBLE
10
401.662660
20
218.108033
30
0.0
11
400.743700
21
212.042880
31
0.0
0
LINE
8
VISIBLE
10
401.797911
20
313.299005
30
0.0
11
404.797911
21
306.049005
31
0.0
0
LINE
8
VISIBLE
10
400.743700
20
212.042880
30
0.0
11
400.505874
21
205.913117
31
0.0
0
LINE
8
VISIBLE
10
394.597911
20
324.949005
30
0.0
11
401.797911
21
313.299005
31
0.0
0
LINE
8
VISIBLE
10
400.505874
20
205.913117
30
0.0
11
400.952141
21
199.794996
31
0.0
0
LINE
8
VISIBLE
10
389.497911
20
330.449005
30
0.0
11
394.597911
21
324.949005
31
0.0
0
LINE
8
VISIBLE
10
400.952141
20
199.794996
30
0.0
11
402.076950
21
193.764626
31
0.0
0
LINE
8
VISIBLE
10
382.947911
20
334.199005
30
0.0
11
389.497911
21
330.449005
31
0.0
0
LINE
8
VISIBLE
10
402.076950
20
193.764626
30
0.0
11
403.866308
21
187.897023
31
0.0
0
LINE
8
VISIBLE
10
375.597911
20
335.899005
30
0.0
11
382.947911
21
334.199005
31
0.0
0
LINE
8
VISIBLE
10
403.866308
20
187.897023
30
0.0
11
406.297956
21
182.265180
31
0.0
0
LINE
8
VISIBLE
10
367.956086
20
335.528125
30
0.0
11
375.597911
21
335.899005
31
0.0
0
LINE
8
VISIBLE
10
406.297956
20
182.265180
30
0.0
11
409.341643
21
176.939157
31
0.0
0
LINE
8
VISIBLE
10
362.239732
20
333.344011
30
0.0
11
367.956086
21
335.528125
31
0.0
0
LINE
8
VISIBLE
10
409.341643
20
176.939157
30
0.0
11
412.959509
21
171.985208
31
0.0
0
LINE
8
VISIBLE
10
356.316129
20
331.808443
30
0.0
11
362.239732
21
333.344011
31
0.0
0
LINE
8
VISIBLE
10
412.959509
20
171.985208
30
0.0
11
417.106545
21
167.464959
31
0.0
0
LINE
8
VISIBLE
10
350.258604
20
330.940430
30
0.0
11
356.316129
21
331.808443
31
0.0
0
LINE
8
VISIBLE
10
417.106545
20
167.464959
30
0.0
11
421.731165
21
163.434642
31
0.0
0
LINE
8
VISIBLE
10
344.142146
20
330.750717
30
0.0
11
350.258604
21
330.940430
31
0.0
0
LINE
8
VISIBLE
10
421.731165
20
163.434642
30
0.0
11
426.775838
21
159.944394
31
0.0
0
LINE
8
VISIBLE
10
338.042471
20
331.241653
30
0.0
11
344.142146
21
330.750717
31
0.0
0
LINE
8
VISIBLE
10
426.775838
20
159.944394
30
0.0
11
432.177809
21
157.037632
31
0.0
0
LINE
8
VISIBLE
10
332.035088
20
332.407160
30
0.0
11
338.042471
21
331.241653
31
0.0
0
LINE
8
VISIBLE
10
432.177809
20
157.037632
30
0.0
11
437.869879
21
154.750516
31
0.0
0
LINE
8
VISIBLE
10
326.194364
20
334.232810
30
0.0
11
332.035088
21
332.407160
31
0.0
0
LINE
8
VISIBLE
10
437.869879
20
154.750516
30
0.0
11
443.781240
21
153.111498
31
0.0
0
LINE
8
VISIBLE
10
320.592603
20
336.696003
30
0.0
11
326.194364
21
334.232810
31
0.0
0
LINE
8
VISIBLE
10
443.781240
20
153.111498
30
0.0
11
449.838354
21
152.140967
31
0.0
0
LINE
8
VISIBLE
10
315.299149
20
339.766247
30
0.0
11
320.592603
21
336.696003
31
0.0
0
LINE
8
VISIBLE
10
449.838354
20
152.140967
30
0.0
11
455.965872
21
151.850995
31
0.0
0
LINE
8
VISIBLE
10
310.379531
20
343.405534
30
0.0
11
315.299149
21
339.766247
31
0.0
0
LINE
8
VISIBLE
10
455.965872
20
151.850995
30
0.0
11
462.087568
21
152.245191
31
0.0
0
LINE
8
VISIBLE
10
305.894650
20
347.568814
30
0.0
11
310.379531
21
343.405534
31
0.0
0
LINE
8
VISIBLE
10
462.087568
20
152.245191
30
0.0
11
468.127291
21
153.318651
31
0.0
0
LINE
8
VISIBLE
10
301.900026
20
352.204548
30
0.0
11
305.894650
21
347.568814
31
0.0
0
LINE
8
VISIBLE
10
468.127291
20
153.318651
30
0.0
11
474.009905
21
155.058020
31
0.0
0
LINE
8
VISIBLE
10
298.445108
20
357.255350
30
0.0
11
301.900026
21
352.204548
31
0.0
0
LINE
8
VISIBLE
10
474.009905
20
155.058020
30
0.0
11
479.662233
21
157.441662
31
0.0
0
LINE
8
VISIBLE
10
295.572666
20
362.658694
30
0.0
11
298.445108
21
357.255350
31
0.0
0
LINE
8
VISIBLE
10
479.662233
20
157.441662
30
0.0
11
485.013961
21
160.439924
31
0.0
0
LINE
8
VISIBLE
10
293.318258
20
368.347692
30
0.0
11
295.572666
21
362.658694
31
0.0
0
LINE
8
VISIBLE
10
485.013961
20
160.439924
30
0.0
11
489.998513
21
164.015508
31
0.0
0
LINE
8
VISIBLE
10
291.709792
20
374.251918
30
0.0
11
293.318258
21
368.347692
31
0.0
0
LINE
8
VISIBLE
10
489.998513
20
164.015508
30
0.0
11
494.553882
21
168.123934
31
0.0
0
LINE
8
VISIBLE
10
290.767180
20
380.298284
30
0.0
11
291.709792
21
374.251918
31
0.0
0
LINE
8
VISIBLE
10
494.553882
20
168.123934
30
0.0
11
498.623401
21
172.714095
31
0.0
0
LINE
8
VISIBLE
10
290.502089
20
386.411939
30
0.0
11
290.767180
21
380.298284
31
0.0
0
LINE
8
VISIBLE
10
498.623401
20
172.714095
30
0.0
11
502.156446
21
177.728889
31
0.0
0
LINE
8
VISIBLE
10
290.917802
20
392.517202
30
0.0
11
290.502089
21
386.411939
31
0.0
0
LINE
8
VISIBLE
10
502.156446
20
177.728889
30
0.0
11
505.109064
21
183.105933
31
0.0
0
LINE
8
VISIBLE
10
292.009173
20
398.538494
30
0.0
11
290.917802
21
392.517202
31
0.0
0
LINE
8
VISIBLE
10
505.109064
20
183.105933
30
0.0
11
507.444528
21
188.778338
31
0.0
0
LINE
8
VISIBLE
10
293.762691
20
404.401277
30
0.0
11
292.009173
21
398.538494
31
0.0
0
LINE
8
VISIBLE
10
507.444528
20
188.778338
30
0.0
11
509.133782
21
194.675538
31
0.0
0
LINE
8
VISIBLE
10
296.156650
20
410.032975
30
0.0
11
293.762691
21
404.401277
31
0.0
0
LINE
8
VISIBLE
10
509.133782
20
194.675538
30
0.0
11
510.155815
21
200.724176
31
0.0
0
LINE
8
VISIBLE
10
299.161413
20
415.363871
30
0.0
11
296.156650
21
410.032975
31
0.0
0
LINE
8
VISIBLE
10
510.155815
20
200.724176
30
0.0
11
510.497911
21
206.849005
31
0.0
0
LINE
8
VISIBLE
10
302.739784
20
420.327973
30
0.0
11
299.161413
21
415.363871
31
0.0
0
LINE
8
VISIBLE
10
510.497911
20
206.849005
30
0.0
11
515.497911
21
382.149005
31
0.0
0
LINE
8
VISIBLE
10
306.847467
20
424.863829
30
0.0
11
302.739784
21
420.327973
31
0.0
0
LINE
8
VISIBLE
10
515.497911
20
382.149005
30
0.0
11
515.208994
21
388.030033
31
0.0
0
LINE
8
VISIBLE
10
311.433611
20
428.915291
30
0.0
11
306.847467
21
424.863829
31
0.0
0
LINE
8
VISIBLE
10
515.208994
20
388.030033
30
0.0
11
514.345028
21
393.854424
31
0.0
0
LINE
8
VISIBLE
10
316.441443
20
432.432202
30
0.0
11
311.433611
21
428.915291
31
0.0
0
LINE
8
VISIBLE
10
514.345028
20
393.854424
30
0.0
11
512.914331
21
399.566085
31
0.0
0
LINE
8
VISIBLE
10
321.808971
20
435.371028
30
0.0
11
316.441443
21
432.432202
31
0.0
0
LINE
8
VISIBLE
10
512.914331
20
399.566085
30
0.0
11
510.930683
21
405.110011
31
0.0
0
LINE
8
VISIBLE
10
327.469749
20
437.695388
30
0.0
11
321.808971
21
435.371028
31
0.0
0
LINE
8
VISIBLE
10
510.930683
20
405.110011
30
0.0
11
508.413187
21
410.432809
31
0.0
0
LINE
8
VISIBLE
10
333.353700
20
439.376508
30
0.0
11
327.469749
21
437.695388
31
0.0
0
LINE
8
VISIBLE
10
508.413187
20
410.432809
30
0.0
11
505.386088
21
415.483219
31
0.0
0
LINE
8
VISIBLE
10
339.387988
20
440.393577
30
0.0
11
333.353700
21
439.376508
31
0.0
0
LINE
8
VISIBLE
10
505.386088
20
415.483219
30
0.0
11
501.878538
21
420.212602
31
0.0
0
LINE
8
VISIBLE
10
345.497911
20
440.752005
30
0.0
11
339.387988
21
440.393577
31
0.0
0
LINE
8
VISIBLE
10
501.878538
20
420.212602
30
0.0
11
497.924318
21
424.575411
31
0.0
0
LINE
8
VISIBLE
10
455.497911
20
442.149005
30
0.0
11
345.497911
21
440.752005
31
0.0
0
LINE
8
VISIBLE
10
497.924318
20
424.575411
30
0.0
11
493.561508
21
428.529632
31
0.0
0
LINE
8
VISIBLE
10
461.378939
20
441.860088
30
0.0
11
455.497911
21
442.149005
31
0.0
0
LINE
8
VISIBLE
10
493.561508
20
428.529632
30
0.0
11
488.832125
21
432.037181
31
0.0
0
LINE
8
VISIBLE
10
467.203330
20
440.996121
30
0.0
11
461.378939
21
441.860088
31
0.0
0
LINE
8
VISIBLE
10
488.832125
20
432.037181
30
0.0
11
483.781715
21
435.064280
31
0.0
0
LINE
8
VISIBLE
10
472.914991
20
439.565425
30
0.0
11
467.203330
21
440.996121
31
0.0
0
LINE
8
VISIBLE
10
483.781715
20
435.064280
30
0.0
11
478.458917
21
437.581777
31
0.0
0
LINE
8
VISIBLE
10
478.458917
20
437.581777
30
0.0
11
472.914991
21
439.565425
31
0.0
0
CIRCLE
8
VISIBLE
10
455.497911
20
206.849005
30
0.0
40
47.500000
0
LINE
8
VISIBLE
10
412.997911
20
254.349005
30
0.0
11
412.997911
21
296.849005
31
0.0
0
LINE
8
VISIBLE
10
413.253467
20
252.407862
30
0.0
11
412.997911
21
254.349005
31
0.0
0
LINE
8
VISIBLE
10
412.997911
20
296.849005
30
0.0
11
413.253467
21
298.790147
31
0.0
0
LINE
8
VISIBLE
10
414.002720
20
250.599005
30
0.0
11
413.253467
21
252.407862
31
0.0
0
LINE
8
VISIBLE
10
413.253467
20
298.790147
30
0.0
11
414.002720
21
300.599005
31
0.0
0
LINE
8
VISIBLE
10
415.194610
20
249.045704
30
0.0
11
414.002720
21
250.599005
31
0.0
0
LINE
8
VISIBLE
10
414.002720
20
300.599005
30
0.0
11
415.194610
21
302.152305
31
0.0
0
LINE
8
VISIBLE
10
415.878483
20
248.520949
30
0.0
11
415.194610
21
249.045704
31
0.0
0
LINE
8
VISIBLE
10
415.194610
20
302.152305
30
0.0
11
416.747911
21
303.344195
31
0.0
0
ARC
8
VISIBLE
10
455.497911
20
206.849005
30
0.0
40
57.500000
50
90.000000
51
133.553652
0
LINE
8
VISIBLE
10
416.747911
20
303.344195
30
0.0
11
418.556768
21
304.093448
31
0.0
0
ARC
8
VISIBLE
10
455.497911
20
206.849005
30
0.0
40
57.500000
50
46.446348
51
90.000000
0
LINE
8
VISIBLE
10
418.556768
20
304.093448
30
0.0
11
420.497911
21
304.349005
31
0.0
0
LINE
8
VISIBLE
10
495.801212
20
249.045704
30
0.0
11
495.117338
21
248.520949
31
0.0
0
LINE
8
VISIBLE
10
420.497911
20
304.349005
30
0.0
11
490.497911
21
304.349005
31
0.0
0
LINE
8
VISIBLE
10
496.993101
20
250.599005
30
0.0
11
495.801212
21
249.045704
31
0.0
0
LINE
8
VISIBLE
10
490.497911
20
304.349005
30
0.0
11
492.439054
21
304.093448
31
0.0
0
LINE
8
VISIBLE
10
497.742355
20
252.407862
30
0.0
11
496.993101
21
250.599005
31
0.0
0
LINE
8
VISIBLE
10
492.439054
20
304.093448
30
0.0
11
494.247911
21
303.344195
31
0.0
0
LINE
8
VISIBLE
10
497.997911
20
254.349005
30
0.0
11
497.742355
21
252.407862
31
0.0
0
LINE
8
VISIBLE
10
494.247911
20
303.344195
30
0.0
11
495.801212
21
302.152305
31
0.0
0
LINE
8
VISIBLE
10
497.997911
20
296.849005
30
0.0
11
497.997911
21
254.349005
31
0.0
0
LINE
8
VISIBLE
10
495.801212
20
302.152305
30
0.0
11
496.993101
21
300.599005
31
0.0
0
LINE
8
VISIBLE
10
497.742355
20
298.790147
30
0.0
11
497.997911
21
296.849005
31
0.0
0
LINE
8
VISIBLE
10
496.993101
20
300.599005
30
0.0
11
497.742355
21
298.790147
31
0.0
0
CIRCLE
8
VISIBLE
10
345.497911
20
385.734005
30
0.0
40
47.500000
0
CIRCLE
8
VISIBLE
10
415.497911
20
319.349005
30
0.0
40
5.500000
0
CIRCLE
8
VISIBLE
10
495.497911
20
319.349005
30
0.0
40
5.500000
0
CIRCLE
8
VISIBLE
10
457.997911
20
345.734005
30
0.0
40
5.500000
0
LINE
8
VISIBLE
10
442.847911
20
428.249005
30
0.0
11
387.997911
21
428.249005
31
0.0
0
LINE
8
VISIBLE
10
387.997911
20
428.249005
30
0.0
11
387.997911
21
424.463838
31
0.0
0
ARC
8
VISIBLE
10
345.497911
20
385.734005
30
0.0
40
57.500000
50
317.657395
51
42.342605
0
LINE
8
VISIBLE
10
387.997911
20
347.004171
30
0.0
11
387.997911
21
343.249005
31
0.0
0
LINE
8
VISIBLE
10
387.997911
20
343.249005
30
0.0
11
408.847911
21
343.249005
31
0.0
0
LINE
8
VISIBLE
10
408.847911
20
343.249005
30
0.0
11
442.847911
21
428.249005
31
0.0
0
LINE
8
VISIBLE
10
477.997911
20
341.749005
30
0.0
11
477.997911
21
394.749005
31
0.0
0
LINE
8
VISIBLE
10
478.202356
20
340.196090
30
0.0
11
477.997911
21
341.749005
31
0.0
0
LINE
8
VISIBLE
10
477.997911
20
394.749005
30
0.0
11
478.202356
21
396.301919
31
0.0
0
LINE
8
VISIBLE
10
478.801758
20
338.749005
30
0.0
11
478.202356
21
340.196090
31
0.0
0
LINE
8
VISIBLE
10
478.202356
20
396.301919
30
0.0
11
478.801758
21
397.749005
31
0.0
0
LINE
8
VISIBLE
10
479.755270
20
337.506364
30
0.0
11
478.801758
21
338.749005
31
0.0
0
LINE
8
VISIBLE
10
478.801758
20
397.749005
30
0.0
11
479.755270
21
398.991645
31
0.0
0
LINE
8
VISIBLE
10
480.997911
20
336.552852
30
0.0
11
479.755270
21
337.506364
31
0.0
0
LINE
8
VISIBLE
10
479.755270
20
398.991645
30
0.0
11
480.997911
21
399.945157
31
0.0
0
LINE
8
VISIBLE
10
482.444997
20
335.953450
30
0.0
11
480.997911
21
336.552852
31
0.0
0
LINE
8
VISIBLE
10
480.997911
20
399.945157
30
0.0
11
482.444997
21
400.544560
31
0.0
0
LINE
8
VISIBLE
10
483.997911
20
335.749005
30
0.0
11
482.444997
21
335.953450
31
0.0
0
LINE
8
VISIBLE
10
482.444997
20
400.544560
30
0.0
11
483.997911
21
400.749005
31
0.0
0
LINE
8
VISIBLE
10
496.997911
20
335.749005
30
0.0
11
483.997911
21
335.749005
31
0.0
0
LINE
8
VISIBLE
10
483.997911
20
400.749005
30
0.0
11
496.997911
21
400.749005
31
0.0
0
LINE
8
VISIBLE
10
498.550825
20
335.953450
30
0.0
11
496.997911
21
335.749005
31
0.0
0
LINE
8
VISIBLE
10
496.997911
20
400.749005
30
0.0
11
498.550825
21
400.544560
31
0.0
0
LINE
8
VISIBLE
10
499.997911
20
336.552852
30
0.0
11
498.550825
21
335.953450
31
0.0
0
LINE
8
VISIBLE
10
498.550825
20
400.544560
30
0.0
11
499.997911
21
399.945157
31
0.0
0
LINE
8
VISIBLE
10
501.240552
20
337.506364
30
0.0
11
499.997911
21
336.552852
31
0.0
0
LINE
8
VISIBLE
10
499.997911
20
399.945157
30
0.0
11
501.240552
21
398.991645
31
0.0
0
LINE
8
VISIBLE
10
502.194063
20
338.749005
30
0.0
11
501.240552
21
337.506364
31
0.0
0
LINE
8
VISIBLE
10
501.240552
20
398.991645
30
0.0
11
502.194063
21
397.749005
31
0.0
0
LINE
8
VISIBLE
10
502.793466
20
340.196090
30
0.0
11
502.194063
21
338.749005
31
0.0
0
LINE
8
VISIBLE
10
502.194063
20
397.749005
30
0.0
11
502.793466
21
396.301919
31
0.0
0
LINE
8
VISIBLE
10
502.997911
20
341.749005
30
0.0
11
502.793466
21
340.196090
31
0.0
0
LINE
8
VISIBLE
10
502.793466
20
396.301919
30
0.0
11
502.997911
21
394.749005
31
0.0
0
LINE
8
VISIBLE
10
502.997911
20
394.749005
30
0.0
11
502.997911
21
341.749005
31
0.0
0
CIRCLE
8
VISIBLE
10
457.997911
20
425.734005
30
0.0
40
5.500000
0
LINE
8
VISIBLE
10
252.502089
20
151.850995
30
0.0
11
252.502089
21
152.245191
31
0.0
0
LINE
8
VISIBLE
10
252.502089
20
152.245191
30
0.0
11
252.502089
21
153.318651
31
0.0
0
LINE
8
VISIBLE
10
252.502089
20
153.318651
30
0.0
11
252.502089
21
155.058020
31
0.0
0
LINE
8
VISIBLE
10
252.502089
20
155.058020
30
0.0
11
252.502089
21
157.441662
31
0.0
0
LINE
8
VISIBLE
10
252.502089
20
157.441662
30
0.0
11
252.502089
21
160.439924
31
0.0
0
LINE
8
VISIBLE
10
252.502089
20
160.439924
30
0.0
11
252.502089
21
164.015508
31
0.0
0
LINE
8
VISIBLE
10
252.502089
20
164.015508
30
0.0
11
252.502089
21
168.123934
31
0.0
0
LINE
8
VISIBLE
10
252.502089
20
168.123934
30
0.0
11
252.502089
21
172.714095
31
0.0
0
LINE
8
VISIBLE
10
252.502089
20
172.714095
30
0.0
11
252.502089
21
177.728889
31
0.0
0
LINE
8
VISIBLE
10
252.502089
20
177.728889
30
0.0
11
252.502089
21
183.105933
31
0.0
0
LINE
8
VISIBLE
10
252.502089
20
183.105933
30
0.0
11
252.502089
21
188.778338
31
0.0
0
LINE
8
VISIBLE
10
252.502089
20
188.778338
30
0.0
11
252.502089
21
194.675538
31
0.0
0
LINE
8
VISIBLE
10
252.502089
20
194.675538
30
0.0
11
252.502089
21
200.724176
31
0.0
0
LINE
8
VISIBLE
10
252.502089
20
200.724176
30
0.0
11
252.502089
21
206.849005
31
0.0
0
LINE
8
VISIBLE
10
252.502089
20
206.849005
30
0.0
11
252.502089
21
382.149005
31
0.0
0
LINE
8
VISIBLE
10
252.502089
20
382.149005
30
0.0
11
252.502089
21
388.030033
31
0.0
0
LINE
8
VISIBLE
10
252.502089
20
388.030033
30
0.0
11
252.502089
21
393.854424
31
0.0
0
LINE
8
VISIBLE
10
252.502089
20
393.854424
30
0.0
11
252.502089
21
399.566085
31
0.0
0
LINE
8
VISIBLE
10
252.502089
20
399.566085
30
0.0
11
252.502089
21
405.110011
31
0.0
0
LINE
8
VISIBLE
10
252.502089
20
405.110011
30
0.0
11
252.502089
21
410.432809
31
0.0
0
LINE
8
VISIBLE
10
252.502089
20
410.432809
30
0.0
11
252.502089
21
415.483219
31
0.0
0
LINE
8
VISIBLE
10
252.502089
20
415.483219
30
0.0
11
252.502089
21
420.212602
31
0.0
0
LINE
8
VISIBLE
10
252.502089
20
420.212602
30
0.0
11
252.502089
21
424.575411
31
0.0
0
LINE
8
VISIBLE
10
252.502089
20
424.575411
30
0.0
11
252.502089
21
428.529632
31
0.0
0
LINE
8
VISIBLE
10
252.502089
20
441.860088
30
0.0
11
252.502089
21
442.149005
31
0.0
0
LINE
8
VISIBLE
10
252.502089
20
428.529632
30
0.0
11
252.502089
21
432.037181
31
0.0
0
LINE
8
VISIBLE
10
252.502089
20
440.996121
30
0.0
11
252.502089
21
441.860088
31
0.0
0
LINE
8
VISIBLE
10
252.502089
20
432.037181
30
0.0
11
252.502089
21
435.064280
31
0.0
0
LINE
8
VISIBLE
10
252.502089
20
439.565425
30
0.0
11
252.502089
21
440.996121
31
0.0
0
LINE
8
VISIBLE
10
252.502089
20
435.064280
30
0.0
11
252.502089
21
437.581777
31
0.0
0
LINE
8
VISIBLE
10
252.502089
20
437.581777
30
0.0
11
252.502089
21
439.565425
31
0.0
0
LINE
8
VISIBLE
10
247.502089
20
151.850995
30
0.0
11
247.502089
21
152.245191
31
0.0
0
LINE
8
VISIBLE
10
247.502089
20
152.245191
30
0.0
11
247.502089
21
153.318651
31
0.0
0
LINE
8
VISIBLE
10
247.502089
20
153.318651
30
0.0
11
247.502089
21
155.058020
31
0.0
0
LINE
8
VISIBLE
10
247.502089
20
155.058020
30
0.0
11
247.502089
21
157.441662
31
0.0
0
LINE
8
VISIBLE
10
247.502089
20
157.441662
30
0.0
11
247.502089
21
160.439924
31
0.0
0
LINE
8
VISIBLE
10
247.502089
20
160.439924
30
0.0
11
247.502089
21
164.015508
31
0.0
0
LINE
8
VISIBLE
10
247.502089
20
164.015508
30
0.0
11
247.502089
21
168.123934
31
0.0
0
LINE
8
VISIBLE
10
247.502089
20
168.123934
30
0.0
11
247.502089
21
172.714095
31
0.0
0
LINE
8
VISIBLE
10
247.502089
20
172.714095
30
0.0
11
247.502089
21
177.728889
31
0.0
0
LINE
8
VISIBLE
10
247.502089
20
177.728889
30
0.0
11
247.502089
21
183.105933
31
0.0
0
LINE
8
VISIBLE
10
247.502089
20
183.105933
30
0.0
11
247.502089
21
188.778338
31
0.0
0
LINE
8
VISIBLE
10
247.502089
20
188.778338
30
0.0
11
247.502089
21
194.675538
31
0.0
0
LINE
8
VISIBLE
10
247.502089
20
194.675538
30
0.0
11
247.502089
21
200.724176
31
0.0
0
LINE
8
VISIBLE
10
247.502089
20
200.724176
30
0.0
11
247.502089
21
206.849005
31
0.0
0
LINE
8
VISIBLE
10
247.502089
20
206.849005
30
0.0
11
247.502089
21
382.149005
31
0.0
0
LINE
8
VISIBLE
10
247.502089
20
382.149005
30
0.0
11
247.502089
21
388.030033
31
0.0
0
LINE
8
VISIBLE
10
247.502089
20
388.030033
30
0.0
11
247.502089
21
393.854424
31
0.0
0
LINE
8
VISIBLE
10
247.502089
20
393.854424
30
0.0
11
247.502089
21
399.566085
31
0.0
0
LINE
8
VISIBLE
10
247.502089
20
399.566085
30
0.0
11
247.502089
21
405.110011
31
0.0
0
LINE
8
VISIBLE
10
247.502089
20
405.110011
30
0.0
11
247.502089
21
410.432809
31
0.0
0
LINE
8
VISIBLE
10
247.502089
20
410.432809
30
0.0
11
247.502089
21
415.483219
31
0.0
0
LINE
8
VISIBLE
10
247.502089
20
415.483219
30
0.0
11
247.502089
21
420.212602
31
0.0
0
LINE
8
VISIBLE
10
247.502089
20
420.212602
30
0.0
11
247.502089
21
424.575411
31
0.0
0
LINE
8
VISIBLE
10
247.502089
20
424.575411
30
0.0
11
247.502089
21
428.529632
31
0.0
0
LINE
8
VISIBLE
10
247.502089
20
441.860088
30
0.0
11
247.502089
21
442.149005
31
0.0
0
LINE
8
VISIBLE
10
247.502089
20
428.529632
30
0.0
11
247.502089
21
432.037181
31
0.0
0
LINE
8
VISIBLE
10
247.502089
20
440.996121
30
0.0
11
247.502089
21
441.860088
31
0.0
0
LINE
8
VISIBLE
10
247.502089
20
432.037181
30
0.0
11
247.502089
21
435.064280
31
0.0
0
LINE
8
VISIBLE
10
247.502089
20
439.565425
30
0.0
11
247.502089
21
440.996121
31
0.0
0
LINE
8
VISIBLE
10
247.502089
20
435.064280
30
0.0
11
247.502089
21
437.581777
31
0.0
0
LINE
8
VISIBLE
10
247.502089
20
437.581777
30
0.0
11
247.502089
21
439.565425
31
0.0
0
LINE
8
VISIBLE
10
252.502089
20
151.850995
30
0.0
11
247.502089
21
151.850995
31
0.0
0
LINE
8
VISIBLE
10
252.502089
20
152.245191
30
0.0
11
247.502089
21
152.245191
31
0.0
0
LINE
8
VISIBLE
10
252.502089
20
153.318651
30
0.0
11
247.502089
21
153.318651
31
0.0
0
LINE
8
VISIBLE
10
252.502089
20
155.058020
30
0.0
11
247.502089
21
155.058020
31
0.0
0
LINE
8
VISIBLE
10
252.502089
20
157.441662
30
0.0
11
247.502089
21
157.441662
31
0.0
0
LINE
8
VISIBLE
10
252.502089
20
160.439924
30
0.0
11
247.502089
21
160.439924
31
0.0
0
LINE
8
VISIBLE
10
252.502089
20
164.015508
30
0.0
11
247.502089
21
164.015508
31
0.0
0
LINE
8
VISIBLE
10
252.502089
20
168.123934
30
0.0
11
247.502089
21
168.123934
31
0.0
0
LINE
8
VISIBLE
10
252.502089
20
172.714095
30
0.0
11
247.502089
21
172.714095
31
0.0
0
LINE
8
VISIBLE
10
252.502089
20
177.728889
30
0.0
11
247.502089
21
177.728889
31
0.0
0
LINE
8
VISIBLE
10
252.502089
20
183.105933
30
0.0
11
247.502089
21
183.105933
31
0.0
0
LINE
8
VISIBLE
10
252.502089
20
188.778338
30
0.0
11
247.502089
21
188.778338
31
0.0
0
LINE
8
VISIBLE
10
252.502089
20
194.675538
30
0.0
11
247.502089
21
194.675538
31
0.0
0
LINE
8
VISIBLE
10
252.502089
20
200.724176
30
0.0
11
247.502089
21
200.724176
31
0.0
0
LINE
8
VISIBLE
10
252.502089
20
206.849005
30
0.0
11
247.502089
21
206.849005
31
0.0
0
LINE
8
VISIBLE
10
252.502089
20
382.149005
30
0.0
11
247.502089
21
382.149005
31
0.0
0
LINE
8
VISIBLE
10
252.502089
20
388.030033
30
0.0
11
247.502089
21
388.030033
31
0.0
0
LINE
8
VISIBLE
10
252.502089
20
393.854424
30
0.0
11
247.502089
21
393.854424
31
0.0
0
LINE
8
VISIBLE
10
252.502089
20
399.566085
30
0.0
11
247.502089
21
399.566085
31
0.0
0
LINE
8
VISIBLE
10
252.502089
20
405.110011
30
0.0
11
247.502089
21
405.110011
31
0.0
0
LINE
8
VISIBLE
10
252.502089
20
410.432809
30
0.0
11
247.502089
21
410.432809
31
0.0
0
LINE
8
VISIBLE
10
252.502089
20
415.483219
30
0.0
11
247.502089
21
415.483219
31
0.0
0
LINE
8
VISIBLE
10
252.502089
20
420.212602
30
0.0
11
247.502089
21
420.212602
31
0.0
0
LINE
8
VISIBLE
10
252.502089
20
424.575411
30
0.0
11
247.502089
21
424.575411
31
0.0
0
LINE
8
VISIBLE
10
252.502089
20
442.149005
30
0.0
11
247.502089
21
442.149005
31
0.0
0
LINE
8
VISIBLE
10
252.502089
20
428.529632
30
0.0
11
247.502089
21
428.529632
31
0.0
0
LINE
8
VISIBLE
10
252.502089
20
441.860088
30
0.0
11
247.502089
21
441.860088
31
0.0
0
LINE
8
VISIBLE
10
252.502089
20
432.037181
30
0.0
11
247.502089
21
432.037181
31
0.0
0
LINE
8
VISIBLE
10
252.502089
20
440.996121
30
0.0
11
247.502089
21
440.996121
31
0.0
0
LINE
8
VISIBLE
10
252.502089
20
435.064280
30
0.0
11
247.502089
21
435.064280
31
0.0
0
LINE
8
VISIBLE
10
252.502089
20
439.565425
30
0.0
11
247.502089
21
439.565425
31
0.0
0
LINE
8
VISIBLE
10
252.502089
20
437.581777
30
0.0
11
247.502089
21
437.581777
31
0.0
0
LINE
8
VISIBLE
10
792.001880
20
517.328660
30
0.0
11
792.419579
21
515.856968
31
0.0
0
LINE
8
VISIBLE
10
792.000390
20
532.864800
30
0.0
11
792.001880
21
517.328660
31
0.0
0
LINE
8
VISIBLE
10
792.419579
20
515.856968
30
0.0
11
792.716007
21
514.409235
31
0.0
0
LINE
8
VISIBLE
10
792.131002
20
533.694302
30
0.0
11
792.000390
21
532.864800
31
0.0
0
LINE
8
VISIBLE
10
792.716007
20
514.409235
30
0.0
11
792.887475
21
513.003471
31
0.0
0
LINE
8
VISIBLE
10
792.690771
20
534.933168
30
0.0
11
792.131002
21
533.694302
31
0.0
0
LINE
8
VISIBLE
10
792.887475
20
513.003471
30
0.0
11
792.931851
21
511.657163
31
0.0
0
LINE
8
VISIBLE
10
794.034215
20
536.667580
30
0.0
11
792.690771
21
534.933168
31
0.0
0
LINE
8
VISIBLE
10
792.931851
20
511.657163
30
0.0
11
792.848582
21
510.387059
31
0.0
0
LINE
8
VISIBLE
10
794.985821
20
537.303172
30
0.0
11
794.034215
21
536.667580
31
0.0
0
LINE
8
VISIBLE
10
792.848582
20
510.387059
30
0.0
11
792.638705
21
509.208959
31
0.0
0
LINE
8
VISIBLE
10
796.207981
20
537.405513
30
0.0
11
794.985821
21
537.303172
31
0.0
0
LINE
8
VISIBLE
10
792.638705
20
509.208959
30
0.0
11
792.304830
21
508.137519
31
0.0
0
LINE
8
VISIBLE
10
797.579414
20
536.979989
30
0.0
11
796.207981
21
537.405513
31
0.0
0
LINE
8
VISIBLE
10
792.304830
20
508.137519
30
0.0
11
791.851110
21
507.186066
31
0.0
0
LINE
8
VISIBLE
10
799.005297
20
536.076847
30
0.0
11
797.579414
21
536.979989
31
0.0
0
LINE
8
VISIBLE
10
791.851110
20
507.186066
30
0.0
11
791.283190
21
506.366437
31
0.0
0
LINE
8
VISIBLE
10
800.071908
20
534.990461
30
0.0
11
799.005297
21
536.076847
31
0.0
0
LINE
8
VISIBLE
10
791.283190
20
506.366437
30
0.0
11
790.608135
21
505.688827
31
0.0
0
LINE
8
VISIBLE
10
801.177190
20
534.021480
30
0.0
11
800.071908
21
534.990461
31
0.0
0
LINE
8
VISIBLE
10
790.608135
20
505.688827
30
0.0
11
789.834341
21
505.161667
31
0.0
0
LINE
8
VISIBLE
10
802.307460
20
533.181901
30
0.0
11
801.177190
21
534.021480
31
0.0
0
LINE
8
VISIBLE
10
789.834341
20
505.161667
30
0.0
11
788.971436
21
504.791514
31
0.0
0
LINE
8
VISIBLE
10
803.448727
20
532.482116
30
0.0
11
802.307460
21
533.181901
31
0.0
0
LINE
8
VISIBLE
10
788.971436
20
504.791514
30
0.0
11
788.030154
21
504.582973
31
0.0
0
LINE
8
VISIBLE
10
804.586861
20
531.930788
30
0.0
11
803.448727
21
532.482116
31
0.0
0
LINE
8
VISIBLE
10
788.030154
20
504.582973
30
0.0
11
787.022203
21
504.538637
31
0.0
0
LINE
8
VISIBLE
10
805.707775
20
531.534742
30
0.0
11
804.586861
21
531.930788
31
0.0
0
LINE
8
VISIBLE
10
787.022203
20
504.538637
30
0.0
11
785.960123
21
504.659059
31
0.0
0
LINE
8
VISIBLE
10
806.797593
20
531.298881
30
0.0
11
805.707775
21
531.534742
31
0.0
0
LINE
8
VISIBLE
10
785.960123
20
504.659059
30
0.0
11
784.857126
21
504.942740
31
0.0
0
LINE
8
VISIBLE
10
807.842822
20
531.226125
30
0.0
11
806.797593
21
531.298881
31
0.0
0
LINE
8
VISIBLE
10
784.857126
20
504.942740
30
0.0
11
783.726932
21
505.386152
31
0.0
0
LINE
8
VISIBLE
10
808.830525
20
531.317373
30
0.0
11
807.842822
21
531.226125
31
0.0
0
LINE
8
VISIBLE
10
783.726932
20
505.386152
30
0.0
11
782.583602
21
505.983778
31
0.0
0
LINE
8
VISIBLE
10
809.748473
20
531.571498
30
0.0
11
808.830525
21
531.317373
31
0.0
0
LINE
8
VISIBLE
10
782.583602
20
505.983778
30
0.0
11
781.441358
21
506.728185
31
0.0
0
LINE
8
VISIBLE
10
810.585305
20
531.985352
30
0.0
11
809.748473
21
531.571498
31
0.0
0
LINE
8
VISIBLE
10
781.441358
20
506.728185
30
0.0
11
780.314410
21
507.610111
31
0.0
0
LINE
8
VISIBLE
10
811.330659
20
532.553813
30
0.0
11
810.585305
21
531.985352
31
0.0
0
LINE
8
VISIBLE
10
780.314410
20
507.610111
30
0.0
11
779.216776
21
508.618585
31
0.0
0
LINE
8
VISIBLE
10
811.975310
20
533.269844
30
0.0
11
811.330659
21
532.553813
31
0.0
0
LINE
8
VISIBLE
10
779.216776
20
508.618585
30
0.0
11
778.162112
21
509.741064
31
0.0
0
LINE
8
VISIBLE
10
812.511278
20
534.124580
30
0.0
11
811.975310
21
533.269844
31
0.0
0
LINE
8
VISIBLE
10
778.162112
20
509.741064
30
0.0
11
777.163536
21
510.963582
31
0.0
0
LINE
8
VISIBLE
10
812.931926
20
535.107441
30
0.0
11
812.511278
21
534.124580
31
0.0
0
LINE
8
VISIBLE
10
777.163536
20
510.963582
30
0.0
11
776.233471
21
512.270932
31
0.0
0
LINE
8
VISIBLE
10
813.232049
20
536.206259
30
0.0
11
812.931926
21
535.107441
31
0.0
0
LINE
8
VISIBLE
10
776.233471
20
512.270932
30
0.0
11
775.383488
21
513.646851
31
0.0
0
LINE
8
VISIBLE
10
813.407931
20
537.407433
30
0.0
11
813.232049
21
536.206259
31
0.0
0
LINE
8
VISIBLE
10
775.383488
20
513.646851
30
0.0
11
774.624158
21
515.074223
31
0.0
0
LINE
8
VISIBLE
10
813.457394
20
538.696093
30
0.0
11
813.407931
21
537.407433
31
0.0
0
LINE
8
VISIBLE
10
774.624158
20
515.074223
30
0.0
11
773.964930
21
516.535290
31
0.0
0
LINE
8
VISIBLE
10
813.379826
20
540.056285
30
0.0
11
813.457394
21
538.696093
31
0.0
0
LINE
8
VISIBLE
10
773.964930
20
516.535290
30
0.0
11
773.414002
21
518.011879
31
0.0
0
LINE
8
VISIBLE
10
813.176188
20
541.471173
30
0.0
11
813.379826
21
540.056285
31
0.0
0
LINE
8
VISIBLE
10
773.414002
20
518.011879
30
0.0
11
772.978230
21
519.485620
31
0.0
0
LINE
8
VISIBLE
10
812.849000
20
542.923240
30
0.0
11
813.176188
21
541.471173
31
0.0
0
LINE
8
VISIBLE
10
772.978230
20
519.485620
30
0.0
11
772.663032
21
520.938180
31
0.0
0
LINE
8
VISIBLE
10
812.402313
20
544.394512
30
0.0
11
812.849000
21
542.923240
31
0.0
0
LINE
8
VISIBLE
10
772.663032
20
520.938180
30
0.0
11
772.472332
21
522.351489
31
0.0
0
LINE
8
VISIBLE
10
811.841655
20
545.866775
30
0.0
11
812.402313
21
544.394512
31
0.0
0
LINE
8
VISIBLE
10
772.472332
20
522.351489
30
0.0
11
772.408501
21
523.707967
31
0.0
0
LINE
8
VISIBLE
10
811.173969
20
547.321804
30
0.0
11
811.841655
21
545.866775
31
0.0
0
LINE
8
VISIBLE
10
772.408501
20
523.707967
30
0.0
11
771.475553
21
562.015849
31
0.0
0
LINE
8
VISIBLE
10
810.407519
20
548.741587
30
0.0
11
811.173969
21
547.321804
31
0.0
0
LINE
8
VISIBLE
10
771.475553
20
562.015849
30
0.0
11
771.529462
21
563.251821
31
0.0
0
LINE
8
VISIBLE
10
809.551793
20
550.108548
30
0.0
11
810.407519
21
548.741587
31
0.0
0
LINE
8
VISIBLE
10
771.529462
20
563.251821
30
0.0
11
771.690669
21
564.413642
31
0.0
0
LINE
8
VISIBLE
10
808.617385
20
551.405765
30
0.0
11
809.551793
21
550.108548
31
0.0
0
LINE
8
VISIBLE
10
771.690669
20
564.413642
30
0.0
11
771.957622
21
565.490122
31
0.0
0
LINE
8
VISIBLE
10
807.615861
20
552.617179
30
0.0
11
808.617385
21
551.405765
31
0.0
0
LINE
8
VISIBLE
10
771.957622
20
565.490122
30
0.0
11
772.327750
21
566.470895
31
0.0
0
LINE
8
VISIBLE
10
806.559619
20
553.727795
30
0.0
11
807.615861
21
552.617179
31
0.0
0
LINE
8
VISIBLE
10
772.327750
20
566.470895
30
0.0
11
772.797488
21
567.346514
31
0.0
0
LINE
8
VISIBLE
10
805.461736
20
554.723864
30
0.0
11
806.559619
21
553.727795
31
0.0
0
LINE
8
VISIBLE
10
772.797488
20
567.346514
30
0.0
11
773.362313
21
568.108548
31
0.0
0
LINE
8
VISIBLE
10
804.335802
20
555.593055
30
0.0
11
805.461736
21
554.723864
31
0.0
0
LINE
8
VISIBLE
10
773.362313
20
568.108548
30
0.0
11
774.016784
21
568.749658
31
0.0
0
LINE
8
VISIBLE
10
803.195755
20
556.328486
30
0.0
11
804.335802
21
555.593055
31
0.0
0
LINE
8
VISIBLE
10
774.016784
20
568.749658
30
0.0
11
774.754600
21
569.263668
31
0.0
0
LINE
8
VISIBLE
10
782.670919
20
568.479496
30
0.0
11
803.195755
21
556.328486
31
0.0
0
LINE
8
VISIBLE
10
774.754600
20
569.263668
30
0.0
11
775.568654
21
569.645630
31
0.0
0
LINE
8
VISIBLE
10
781.573581
20
569.050796
30
0.0
11
782.670919
21
568.479496
31
0.0
0
LINE
8
VISIBLE
10
775.568654
20
569.645630
30
0.0
11
776.451107
21
569.891864
31
0.0
0
LINE
8
VISIBLE
10
780.486811
20
569.492097
30
0.0
11
781.573581
21
569.050796
31
0.0
0
LINE
8
VISIBLE
10
776.451107
20
569.891864
30
0.0
11
777.393460
21
570.000000
31
0.0
0
LINE
8
VISIBLE
10
779.421076
20
569.799149
30
0.0
11
780.486811
21
569.492097
31
0.0
0
LINE
8
VISIBLE
10
777.393460
20
570.000000
30
0.0
11
778.386638
21
569.968995
31
0.0
0
LINE
8
VISIBLE
10
778.386638
20
569.968995
30
0.0
11
779.421076
21
569.799149
31
0.0
0
LINE
8
VISIBLE
10
782.670919
20
528.017065
30
0.0
11
780.436377
21
528.976575
31
0.0
0
LINE
8
VISIBLE
10
780.436377
20
528.976575
30
0.0
11
778.479995
21
529.220266
31
0.0
0
LINE
8
VISIBLE
10
778.479995
20
529.220266
30
0.0
11
776.403833
21
528.637868
31
0.0
0
LINE
8
VISIBLE
10
776.403833
20
528.637868
30
0.0
11
775.214314
21
527.619970
31
0.0
0
LINE
8
VISIBLE
10
775.214314
20
527.619970
30
0.0
11
774.351561
21
526.115261
31
0.0
0
LINE
8
VISIBLE
10
774.351561
20
526.115261
30
0.0
11
773.872656
21
524.097305
31
0.0
0
LINE
8
VISIBLE
10
773.872656
20
524.097305
30
0.0
11
773.878109
21
521.574071
31
0.0
0
LINE
8
VISIBLE
10
773.878109
20
521.574071
30
0.0
11
774.468065
21
518.643155
31
0.0
0
LINE
8
VISIBLE
10
774.468065
20
518.643155
30
0.0
11
775.686382
21
515.515326
31
0.0
0
LINE
8
VISIBLE
10
775.686382
20
515.515326
30
0.0
11
777.475969
21
512.490482
31
0.0
0
LINE
8
VISIBLE
10
777.475969
20
512.490482
30
0.0
11
779.670046
21
509.885871
31
0.0
0
LINE
8
VISIBLE
10
779.670046
20
509.885871
30
0.0
11
782.030717
21
507.945204
31
0.0
0
LINE
8
VISIBLE
10
782.030717
20
507.945204
30
0.0
11
784.319058
21
506.775801
31
0.0
0
LINE
8
VISIBLE
10
784.319058
20
506.775801
30
0.0
11
786.360645
21
506.347594
31
0.0
0
LINE
8
VISIBLE
10
786.360645
20
506.347594
30
0.0
11
788.074645
21
506.551192
31
0.0
0
LINE
8
VISIBLE
10
788.074645
20
506.551192
30
0.0
11
788.938004
21
506.928046
31
0.0
0
LINE
8
VISIBLE
10
788.938004
20
506.928046
30
0.0
11
790.127524
21
507.945944
31
0.0
0
LINE
8
VISIBLE
10
790.127524
20
507.945944
30
0.0
11
790.990276
21
509.450653
31
0.0
0
LINE
8
VISIBLE
10
790.990276
20
509.450653
30
0.0
11
791.469181
21
511.468609
31
0.0
0
LINE
8
VISIBLE
10
791.469181
20
511.468609
30
0.0
11
791.463728
21
513.991843
31
0.0
0
LINE
8
VISIBLE
10
791.463728
20
513.991843
30
0.0
11
790.873773
21
516.922759
31
0.0
0
LINE
8
VISIBLE
10
790.873773
20
516.922759
30
0.0
11
789.655456
21
520.050588
31
0.0
0
LINE
8
VISIBLE
10
789.655456
20
520.050588
30
0.0
11
787.865868
21
523.075432
31
0.0
0
LINE
8
VISIBLE
10
787.865868
20
523.075432
30
0.0
11
785.671792
21
525.680043
31
0.0
0
LINE
8
VISIBLE
10
785.671792
20
525.680043
30
0.0
11
782.670919
21
528.017065
31
0.0
0
LINE
8
VISIBLE
10
790.600969
20
523.438648
30
0.0
11
790.600969
21
532.595482
31
0.0
0
LINE
8
VISIBLE
10
790.553285
20
523.047950
30
0.0
11
790.600969
21
523.438648
31
0.0
0
LINE
8
VISIBLE
10
790.600969
20
532.595482
30
0.0
11
790.553285
21
533.041241
31
0.0
0
LINE
8
VISIBLE
10
790.413482
20
522.738938
30
0.0
11
790.553285
21
523.047950
31
0.0
0
LINE
8
VISIBLE
10
790.553285
20
533.041241
30
0.0
11
790.413482
21
533.511683
31
0.0
0
LINE
8
VISIBLE
10
790.191088
20
522.532671
30
0.0
11
790.413482
21
522.738938
31
0.0
0
LINE
8
VISIBLE
10
790.413482
20
533.511683
30
0.0
11
790.191088
21
533.974749
31
0.0
0
LINE
8
VISIBLE
10
790.063485
20
522.493282
30
0.0
11
790.191088
21
522.532671
31
0.0
0
LINE
8
VISIBLE
10
790.191088
20
533.974749
30
0.0
11
789.901259
21
534.398880
31
0.0
0
LINE
8
VISIBLE
10
790.063485
20
522.493282
30
0.0
11
787.850540
21
525.641811
31
0.0
0
LINE
8
VISIBLE
10
787.850540
20
525.641811
30
0.0
11
785.333815
21
528.246539
31
0.0
0
LINE
8
VISIBLE
10
785.333815
20
528.246539
30
0.0
11
782.670919
21
530.171614
31
0.0
0
LINE
8
VISIBLE
10
789.901259
20
534.398880
30
0.0
11
789.563745
21
534.755174
31
0.0
0
LINE
8
VISIBLE
10
782.670919
20
530.171614
30
0.0
11
780.207736
21
531.262818
31
0.0
0
LINE
8
VISIBLE
10
780.207736
20
531.262818
30
0.0
11
778.012839
21
531.632433
31
0.0
0
LINE
8
VISIBLE
10
778.012839
20
531.632433
30
0.0
11
776.146063
21
531.384404
31
0.0
0
LINE
8
VISIBLE
10
776.146063
20
531.384404
30
0.0
11
775.278353
21
531.029482
31
0.0
0
LINE
8
VISIBLE
10
789.563745
20
534.755174
30
0.0
11
789.201548
21
535.019350
31
0.0
0
LINE
8
VISIBLE
10
775.150749
20
531.216215
30
0.0
11
775.278353
21
531.029482
31
0.0
0
LINE
8
VISIBLE
10
789.201548
20
535.019350
30
0.0
11
776.140289
21
542.560271
31
0.0
0
LINE
8
VISIBLE
10
774.928355
20
531.679280
30
0.0
11
775.150749
21
531.216215
31
0.0
0
LINE
8
VISIBLE
10
776.140289
20
542.560271
30
0.0
11
775.778092
21
542.714325
31
0.0
0
LINE
8
VISIBLE
10
774.788552
20
532.149723
30
0.0
11
774.928355
21
531.679280
31
0.0
0
LINE
8
VISIBLE
10
775.778092
20
542.714325
30
0.0
11
775.440579
21
542.747758
31
0.0
0
LINE
8
VISIBLE
10
774.740868
20
532.595482
30
0.0
11
774.788552
21
532.149723
31
0.0
0
LINE
8
VISIBLE
10
775.440579
20
542.747758
30
0.0
11
775.150749
21
542.658293
31
0.0
0
LINE
8
VISIBLE
10
774.740868
20
541.752315
30
0.0
11
774.740868
21
532.595482
31
0.0
0
LINE
8
VISIBLE
10
775.150749
20
542.658293
30
0.0
11
774.928355
21
542.452026
31
0.0
0
LINE
8
VISIBLE
10
774.788552
20
542.143014
30
0.0
11
774.740868
21
541.752315
31
0.0
0
LINE
8
VISIBLE
10
774.928355
20
542.452026
30
0.0
11
774.788552
21
542.143014
31
0.0
0
LINE
8
VISIBLE
10
803.195755
20
554.708696
30
0.0
11
800.961213
21
555.668206
31
0.0
0
LINE
8
VISIBLE
10
800.961213
20
555.668206
30
0.0
11
799.004831
21
555.911897
31
0.0
0
LINE
8
VISIBLE
10
799.004831
20
555.911897
30
0.0
11
796.928669
21
555.329499
31
0.0
0
LINE
8
VISIBLE
10
796.928669
20
555.329499
30
0.0
11
795.739150
21
554.311601
31
0.0
0
LINE
8
VISIBLE
10
795.739150
20
554.311601
30
0.0
11
794.876398
21
552.806892
31
0.0
0
LINE
8
VISIBLE
10
794.876398
20
552.806892
30
0.0
11
794.397493
21
550.788936
31
0.0
0
LINE
8
VISIBLE
10
794.397493
20
550.788936
30
0.0
11
794.402945
21
548.265702
31
0.0
0
LINE
8
VISIBLE
10
794.402945
20
548.265702
30
0.0
11
794.992901
21
545.334786
31
0.0
0
LINE
8
VISIBLE
10
794.992901
20
545.334786
30
0.0
11
796.211218
21
542.206957
31
0.0
0
LINE
8
VISIBLE
10
796.211218
20
542.206957
30
0.0
11
798.000806
21
539.182113
31
0.0
0
LINE
8
VISIBLE
10
798.000806
20
539.182113
30
0.0
11
800.194882
21
536.577502
31
0.0
0
LINE
8
VISIBLE
10
800.194882
20
536.577502
30
0.0
11
802.555553
21
534.636835
31
0.0
0
LINE
8
VISIBLE
10
802.555553
20
534.636835
30
0.0
11
804.843894
21
533.467432
31
0.0
0
LINE
8
VISIBLE
10
804.843894
20
533.467432
30
0.0
11
806.885481
21
533.039225
31
0.0
0
LINE
8
VISIBLE
10
806.885481
20
533.039225
30
0.0
11
808.599481
21
533.242823
31
0.0
0
LINE
8
VISIBLE
10
808.599481
20
533.242823
30
0.0
11
809.462841
21
533.619677
31
0.0
0
LINE
8
VISIBLE
10
809.462841
20
533.619677
30
0.0
11
810.652360
21
534.637575
31
0.0
0
LINE
8
VISIBLE
10
810.652360
20
534.637575
30
0.0
11
811.515112
21
536.142284
31
0.0
0
LINE
8
VISIBLE
10
811.515112
20
536.142284
30
0.0
11
811.994017
21
538.160240
31
0.0
0
LINE
8
VISIBLE
10
811.994017
20
538.160240
30
0.0
11
811.988565
21
540.683474
31
0.0
0
LINE
8
VISIBLE
10
811.988565
20
540.683474
30
0.0
11
811.398609
21
543.614390
31
0.0
0
LINE
8
VISIBLE
10
811.398609
20
543.614390
30
0.0
11
810.180292
21
546.742219
31
0.0
0
LINE
8
VISIBLE
10
810.180292
20
546.742219
30
0.0
11
808.390705
21
549.767064
31
0.0
0
LINE
8
VISIBLE
10
808.390705
20
549.767064
30
0.0
11
806.196628
21
552.371674
31
0.0
0
LINE
8
VISIBLE
10
806.196628
20
552.371674
30
0.0
11
803.195755
21
554.708696
31
0.0
0
LINE
8
VISIBLE
10
790.134496
20
538.897538
30
0.0
11
789.408833
21
538.969420
31
0.0
0
LINE
8
VISIBLE
10
789.408833
20
538.969420
30
0.0
11
789.120646
21
538.481480
31
0.0
0
LINE
8
VISIBLE
10
789.120646
20
538.481480
30
0.0
11
789.266632
21
537.581158
31
0.0
0
LINE
8
VISIBLE
10
789.266632
20
537.581158
30
0.0
11
789.944999
21
536.657317
31
0.0
0
LINE
8
VISIBLE
10
789.944999
20
536.657317
30
0.0
11
790.860158
21
536.455651
31
0.0
0
LINE
8
VISIBLE
10
790.860158
20
536.455651
30
0.0
11
791.148345
21
536.943591
31
0.0
0
LINE
8
VISIBLE
10
791.148345
20
536.943591
30
0.0
11
791.002359
21
537.843914
31
0.0
0
LINE
8
VISIBLE
10
791.002359
20
537.843914
30
0.0
11
790.134496
21
538.897538
31
0.0
0
LINE
8
VISIBLE
10
775.207342
20
547.515734
30
0.0
11
774.481679
21
547.587616
31
0.0
0
LINE
8
VISIBLE
10
774.481679
20
547.587616
30
0.0
11
774.193492
21
547.099677
31
0.0
0
LINE
8
VISIBLE
10
774.193492
20
547.099677
30
0.0
11
774.339478
21
546.199354
31
0.0
0
LINE
8
VISIBLE
10
774.339478
20
546.199354
30
0.0
11
775.017845
21
545.275513
31
0.0
0
LINE
8
VISIBLE
10
775.017845
20
545.275513
30
0.0
11
775.933004
21
545.073848
31
0.0
0
LINE
8
VISIBLE
10
775.933004
20
545.073848
30
0.0
11
776.221191
21
545.561788
31
0.0
0
LINE
8
VISIBLE
10
776.221191
20
545.561788
30
0.0
11
776.075206
21
546.462110
31
0.0
0
LINE
8
VISIBLE
10
776.075206
20
546.462110
30
0.0
11
775.207342
21
547.515734
31
0.0
0
LINE
8
VISIBLE
10
782.204445
20
549.160732
30
0.0
11
781.478783
21
549.232615
31
0.0
0
LINE
8
VISIBLE
10
781.478783
20
549.232615
30
0.0
11
781.190596
21
548.744675
31
0.0
0
LINE
8
VISIBLE
10
781.190596
20
548.744675
30
0.0
11
781.336581
21
547.844352
31
0.0
0
LINE
8
VISIBLE
10
781.336581
20
547.844352
30
0.0
11
782.014948
21
546.920512
31
0.0
0
LINE
8
VISIBLE
10
782.014948
20
546.920512
30
0.0
11
782.930108
21
546.718846
31
0.0
0
LINE
8
VISIBLE
10
782.930108
20
546.718846
30
0.0
11
783.218295
21
547.206786
31
0.0
0
LINE
8
VISIBLE
10
783.218295
20
547.206786
30
0.0
11
783.072309
21
548.107108
31
0.0
0
LINE
8
VISIBLE
10
783.072309
20
548.107108
30
0.0
11
782.204445
21
549.160732
31
0.0
0
LINE
8
VISIBLE
10
785.031275
20
564.121921
30
0.0
11
795.265705
21
558.213070
31
0.0
0
LINE
8
VISIBLE
10
795.265705
20
558.213070
30
0.0
11
795.265705
21
557.397537
31
0.0
0
LINE
8
VISIBLE
10
795.265705
20
557.397537
30
0.0
11
794.015713
21
556.186753
31
0.0
0
LINE
8
VISIBLE
10
794.015713
20
556.186753
30
0.0
11
793.094998
21
554.482997
31
0.0
0
LINE
8
VISIBLE
10
793.094998
20
554.482997
30
0.0
11
792.562071
21
552.260718
31
0.0
0
LINE
8
VISIBLE
10
792.562071
20
552.260718
30
0.0
11
792.510568
21
549.526613
31
0.0
0
LINE
8
VISIBLE
10
792.510568
20
549.526613
30
0.0
11
793.035302
21
546.361732
31
0.0
0
LINE
8
VISIBLE
10
793.035302
20
546.361732
30
0.0
11
794.189396
21
542.941941
31
0.0
0
LINE
8
VISIBLE
10
794.189396
20
542.941941
30
0.0
11
795.265705
21
540.708472
31
0.0
0
LINE
8
VISIBLE
10
795.265705
20
540.708472
30
0.0
11
795.265705
21
539.899403
31
0.0
0
LINE
8
VISIBLE
10
795.265705
20
539.899403
30
0.0
11
791.375315
21
542.145521
31
0.0
0
LINE
8
VISIBLE
10
791.375315
20
542.145521
30
0.0
11
785.031275
21
564.121921
31
0.0
0
LINE
8
VISIBLE
10
778.472657
20
549.271692
30
0.0
11
778.472657
21
560.690802
31
0.0
0
LINE
8
VISIBLE
10
778.434509
20
548.959133
30
0.0
11
778.472657
21
549.271692
31
0.0
0
LINE
8
VISIBLE
10
778.472657
20
560.690802
30
0.0
11
778.434509
21
561.047409
31
0.0
0
LINE
8
VISIBLE
10
778.322667
20
548.711923
30
0.0
11
778.434509
21
548.959133
31
0.0
0
LINE
8
VISIBLE
10
778.434509
20
561.047409
30
0.0
11
778.322667
21
561.423763
31
0.0
0
LINE
8
VISIBLE
10
778.144752
20
548.546910
30
0.0
11
778.322667
21
548.711923
31
0.0
0
LINE
8
VISIBLE
10
778.322667
20
561.423763
30
0.0
11
778.144752
21
561.794215
31
0.0
0
LINE
8
VISIBLE
10
777.912888
20
548.475337
30
0.0
11
778.144752
21
548.546910
31
0.0
0
LINE
8
VISIBLE
10
778.144752
20
561.794215
30
0.0
11
777.912888
21
562.133520
31
0.0
0
LINE
8
VISIBLE
10
777.642878
20
548.502084
30
0.0
11
777.912888
21
548.475337
31
0.0
0
LINE
8
VISIBLE
10
777.912888
20
562.133520
30
0.0
11
777.642878
21
562.418556
31
0.0
0
LINE
8
VISIBLE
10
777.353120
20
548.625327
30
0.0
11
777.642878
21
548.502084
31
0.0
0
LINE
8
VISIBLE
10
777.642878
20
562.418556
30
0.0
11
777.353120
21
562.629896
31
0.0
0
LINE
8
VISIBLE
10
774.927458
20
550.025784
30
0.0
11
777.353120
21
548.625327
31
0.0
0
LINE
8
VISIBLE
10
777.353120
20
562.629896
30
0.0
11
774.927458
21
564.030353
31
0.0
0
LINE
8
VISIBLE
10
774.637700
20
550.237124
30
0.0
11
774.927458
21
550.025784
31
0.0
0
LINE
8
VISIBLE
10
774.927458
20
564.030353
30
0.0
11
774.637700
21
564.153595
31
0.0
0
LINE
8
VISIBLE
10
774.367689
20
550.522159
30
0.0
11
774.637700
21
550.237124
31
0.0
0
LINE
8
VISIBLE
10
774.637700
20
564.153595
30
0.0
11
774.367689
21
564.180342
31
0.0
0
LINE
8
VISIBLE
10
774.135826
20
550.861464
30
0.0
11
774.367689
21
550.522159
31
0.0
0
LINE
8
VISIBLE
10
774.367689
20
564.180342
30
0.0
11
774.135826
21
564.108770
31
0.0
0
LINE
8
VISIBLE
10
773.957911
20
551.231917
30
0.0
11
774.135826
21
550.861464
31
0.0
0
LINE
8
VISIBLE
10
774.135826
20
564.108770
30
0.0
11
773.957911
21
563.943756
31
0.0
0
LINE
8
VISIBLE
10
773.846068
20
551.608271
30
0.0
11
773.957911
21
551.231917
31
0.0
0
LINE
8
VISIBLE
10
773.957911
20
563.943756
30
0.0
11
773.846068
21
563.696547
31
0.0
0
LINE
8
VISIBLE
10
773.807921
20
551.964878
30
0.0
11
773.846068
21
551.608271
31
0.0
0
LINE
8
VISIBLE
10
773.846068
20
563.696547
30
0.0
11
773.807921
21
563.383988
31
0.0
0
LINE
8
VISIBLE
10
773.807921
20
563.383988
30
0.0
11
773.807921
21
551.964878
31
0.0
0
LINE
8
VISIBLE
10
782.204445
20
566.397125
30
0.0
11
781.478783
21
566.469007
31
0.0
0
LINE
8
VISIBLE
10
781.478783
20
566.469007
30
0.0
11
781.190596
21
565.981067
31
0.0
0
LINE
8
VISIBLE
10
781.190596
20
565.981067
30
0.0
11
781.336581
21
565.080745
31
0.0
0
LINE
8
VISIBLE
10
781.336581
20
565.080745
30
0.0
11
782.014948
21
564.156904
31
0.0
0
LINE
8
VISIBLE
10
782.014948
20
564.156904
30
0.0
11
782.930108
21
563.955238
31
0.0
0
LINE
8
VISIBLE
10
782.930108
20
563.955238
30
0.0
11
783.218295
21
564.443178
31
0.0
0
LINE
8
VISIBLE
10
783.218295
20
564.443178
30
0.0
11
783.072309
21
565.343501
31
0.0
0
LINE
8
VISIBLE
10
783.072309
20
565.343501
30
0.0
11
782.204445
21
566.397125
31
0.0
0
LINE
8
VISIBLE
10
795.275034
20
536.866875
30
0.0
11
794.197508
21
536.776646
31
0.0
0
LINE
8
VISIBLE
10
796.646466
20
536.441352
30
0.0
11
795.275034
21
536.866875
31
0.0
0
LINE
8
VISIBLE
10
798.072350
20
535.538210
30
0.0
11
796.646466
21
536.441352
31
0.0
0
LINE
8
VISIBLE
10
799.138961
20
534.451823
30
0.0
11
798.072350
21
535.538210
31
0.0
0
LINE
8
VISIBLE
10
800.244243
20
533.482843
30
0.0
11
799.138961
21
534.451823
31
0.0
0
LINE
8
VISIBLE
10
801.374513
20
532.643264
30
0.0
11
800.244243
21
533.482843
31
0.0
0
LINE
8
VISIBLE
10
788.901394
20
504.623030
30
0.0
11
788.038489
21
504.252877
31
0.0
0
LINE
8
VISIBLE
10
802.515779
20
531.943479
30
0.0
11
801.374513
21
532.643264
31
0.0
0
LINE
8
VISIBLE
10
788.038489
20
504.252877
30
0.0
11
787.097207
21
504.044335
31
0.0
0
LINE
8
VISIBLE
10
803.653914
20
531.392151
30
0.0
11
802.515779
21
531.943479
31
0.0
0
LINE
8
VISIBLE
10
787.097207
20
504.044335
30
0.0
11
786.089256
21
504.000000
31
0.0
0
LINE
8
VISIBLE
10
804.774828
20
530.996105
30
0.0
11
803.653914
21
531.392151
31
0.0
0
LINE
8
VISIBLE
10
786.089256
20
504.000000
30
0.0
11
785.027176
21
504.120422
31
0.0
0
LINE
8
VISIBLE
10
805.864646
20
530.760244
30
0.0
11
804.774828
21
530.996105
31
0.0
0
LINE
8
VISIBLE
10
785.027176
20
504.120422
30
0.0
11
783.924179
21
504.404103
31
0.0
0
LINE
8
VISIBLE
10
806.909875
20
530.687487
30
0.0
11
805.864646
21
530.760244
31
0.0
0
LINE
8
VISIBLE
10
783.924179
20
504.404103
30
0.0
11
782.793985
21
504.847515
31
0.0
0
LINE
8
VISIBLE
10
807.897578
20
530.778736
30
0.0
11
806.909875
21
530.687487
31
0.0
0
LINE
8
VISIBLE
10
782.793985
20
504.847515
30
0.0
11
781.650655
21
505.445141
31
0.0
0
LINE
8
VISIBLE
10
808.815526
20
531.032861
30
0.0
11
807.897578
21
530.778736
31
0.0
0
LINE
8
VISIBLE
10
781.650655
20
505.445141
30
0.0
11
780.508411
21
506.189547
31
0.0
0
LINE
8
VISIBLE
10
809.652357
20
531.446715
30
0.0
11
808.815526
21
531.032861
31
0.0
0
LINE
8
VISIBLE
10
780.508411
20
506.189547
30
0.0
11
779.381463
21
507.071473
31
0.0
0
LINE
8
VISIBLE
10
779.381463
20
507.071473
30
0.0
11
778.283829
21
508.079948
31
0.0
0
LINE
8
VISIBLE
10
778.283829
20
508.079948
30
0.0
11
777.229165
21
509.202426
31
0.0
0
LINE
8
VISIBLE
10
777.229165
20
509.202426
30
0.0
11
776.230589
21
510.424944
31
0.0
0
LINE
8
VISIBLE
10
776.230589
20
510.424944
30
0.0
11
775.300524
21
511.732295
31
0.0
0
LINE
8
VISIBLE
10
775.300524
20
511.732295
30
0.0
11
774.450540
21
513.108214
31
0.0
0
LINE
8
VISIBLE
10
774.450540
20
513.108214
30
0.0
11
773.691211
21
514.535585
31
0.0
0
LINE
8
VISIBLE
10
773.691211
20
514.535585
30
0.0
11
773.031983
21
515.996653
31
0.0
0
LINE
8
VISIBLE
10
773.031983
20
515.996653
30
0.0
11
772.481055
21
517.473242
31
0.0
0
LINE
8
VISIBLE
10
772.481055
20
517.473242
30
0.0
11
772.045282
21
518.946983
31
0.0
0
LINE
8
VISIBLE
10
772.045282
20
518.946983
30
0.0
11
771.730085
21
520.399543
31
0.0
0
LINE
8
VISIBLE
10
771.730085
20
520.399543
30
0.0
11
771.539385
21
521.812852
31
0.0
0
LINE
8
VISIBLE
10
771.539385
20
521.812852
30
0.0
11
771.475553
21
523.169330
31
0.0
0
LINE
8
VISIBLE
10
771.475553
20
523.169330
30
0.0
11
770.542606
21
561.477212
31
0.0
0
LINE
8
VISIBLE
10
770.542606
20
561.477212
30
0.0
11
770.596515
21
562.713184
31
0.0
0
LINE
8
VISIBLE
10
770.596515
20
562.713184
30
0.0
11
770.757722
21
563.875005
31
0.0
0
LINE
8
VISIBLE
10
770.757722
20
563.875005
30
0.0
11
771.024675
21
564.951485
31
0.0
0
LINE
8
VISIBLE
10
771.024675
20
564.951485
30
0.0
11
771.394803
21
565.932257
31
0.0
0
LINE
8
VISIBLE
10
771.394803
20
565.932257
30
0.0
11
771.864541
21
566.807877
31
0.0
0
LINE
8
VISIBLE
10
771.864541
20
566.807877
30
0.0
11
772.429366
21
567.569911
31
0.0
0
LINE
8
VISIBLE
10
772.429366
20
567.569911
30
0.0
11
773.083837
21
568.211020
31
0.0
0
LINE
8
VISIBLE
10
773.083837
20
568.211020
30
0.0
11
773.821653
21
568.725031
31
0.0
0
LINE
8
VISIBLE
10
781.737972
20
527.478428
30
0.0
11
779.503430
21
528.437937
31
0.0
0
LINE
8
VISIBLE
10
779.503430
20
528.437937
30
0.0
11
777.547048
21
528.681628
31
0.0
0
LINE
8
VISIBLE
10
777.547048
20
528.681628
30
0.0
11
775.954744
21
528.338438
31
0.0
0
LINE
8
VISIBLE
10
788.454146
20
506.688838
30
0.0
11
789.532978
21
507.873470
31
0.0
0
LINE
8
VISIBLE
10
789.532978
20
507.873470
30
0.0
11
790.271722
21
509.553826
31
0.0
0
LINE
8
VISIBLE
10
790.271722
20
509.553826
30
0.0
11
790.594891
21
511.751828
31
0.0
0
LINE
8
VISIBLE
10
790.594891
20
511.751828
30
0.0
11
790.396072
21
514.433416
31
0.0
0
LINE
8
VISIBLE
10
790.396072
20
514.433416
30
0.0
11
789.588369
21
517.462188
31
0.0
0
LINE
8
VISIBLE
10
789.588369
20
517.462188
30
0.0
11
788.159280
21
520.591008
31
0.0
0
LINE
8
VISIBLE
10
788.159280
20
520.591008
30
0.0
11
786.205414
21
523.503947
31
0.0
0
LINE
8
VISIBLE
10
786.205414
20
523.503947
30
0.0
11
783.924849
21
525.899406
31
0.0
0
LINE
8
VISIBLE
10
783.924849
20
525.899406
30
0.0
11
781.737972
21
527.478428
31
0.0
0
LINE
8
VISIBLE
10
789.668022
20
523.134639
30
0.0
11
789.668022
21
532.056845
31
0.0
0
LINE
8
VISIBLE
10
789.668022
20
532.056845
30
0.0
11
789.620338
21
532.502604
31
0.0
0
LINE
8
VISIBLE
10
789.620338
20
532.502604
30
0.0
11
789.480535
21
532.973046
31
0.0
0
LINE
8
VISIBLE
10
789.480535
20
532.973046
30
0.0
11
789.258141
21
533.436112
31
0.0
0
LINE
8
VISIBLE
10
789.258141
20
533.436112
30
0.0
11
788.968312
21
533.860243
31
0.0
0
LINE
8
VISIBLE
10
788.968312
20
533.860243
30
0.0
11
788.630798
21
534.216537
31
0.0
0
LINE
8
VISIBLE
10
788.630798
20
534.216537
30
0.0
11
788.268601
21
534.480712
31
0.0
0
LINE
8
VISIBLE
10
788.268601
20
534.480712
30
0.0
11
775.207342
21
542.021634
31
0.0
0
LINE
8
VISIBLE
10
775.207342
20
542.021634
30
0.0
11
774.845145
21
542.175687
31
0.0
0
LINE
8
VISIBLE
10
774.845145
20
542.175687
30
0.0
11
774.805128
21
542.179651
31
0.0
0
LINE
8
VISIBLE
10
802.262808
20
554.170059
30
0.0
11
800.028266
21
555.129568
31
0.0
0
LINE
8
VISIBLE
10
800.028266
20
555.129568
30
0.0
11
798.071884
21
555.373259
31
0.0
0
LINE
8
VISIBLE
10
798.071884
20
555.373259
30
0.0
11
796.479580
21
555.030069
31
0.0
0
LINE
8
VISIBLE
10
808.978983
20
533.380469
30
0.0
11
810.057814
21
534.565101
31
0.0
0
LINE
8
VISIBLE
10
810.057814
20
534.565101
30
0.0
11
810.796559
21
536.245457
31
0.0
0
LINE
8
VISIBLE
10
810.796559
20
536.245457
30
0.0
11
811.119728
21
538.443459
31
0.0
0
LINE
8
VISIBLE
10
811.119728
20
538.443459
30
0.0
11
810.920908
21
541.125047
31
0.0
0
LINE
8
VISIBLE
10
810.920908
20
541.125047
30
0.0
11
810.113205
21
544.153819
31
0.0
0
LINE
8
VISIBLE
10
810.113205
20
544.153819
30
0.0
11
808.684116
21
547.282639
31
0.0
0
LINE
8
VISIBLE
10
808.684116
20
547.282639
30
0.0
11
806.730250
21
550.195578
31
0.0
0
LINE
8
VISIBLE
10
806.730250
20
550.195578
30
0.0
11
804.449685
21
552.591037
31
0.0
0
LINE
8
VISIBLE
10
804.449685
20
552.591037
30
0.0
11
802.262808
21
554.170059
31
0.0
0
LINE
8
VISIBLE
10
789.201548
20
538.358901
30
0.0
11
789.112155
21
538.406008
31
0.0
0
LINE
8
VISIBLE
10
790.223889
20
536.480427
30
0.0
11
790.021630
21
537.412828
31
0.0
0
LINE
8
VISIBLE
10
790.021630
20
537.412828
30
0.0
11
789.201548
21
538.358901
31
0.0
0
LINE
8
VISIBLE
10
774.274395
20
546.977097
30
0.0
11
774.185001
21
547.024204
31
0.0
0
LINE
8
VISIBLE
10
775.296736
20
545.098623
30
0.0
11
775.094476
21
546.031024
31
0.0
0
LINE
8
VISIBLE
10
775.094476
20
546.031024
30
0.0
11
774.274395
21
546.977097
31
0.0
0
LINE
8
VISIBLE
10
781.271498
20
548.622095
30
0.0
11
781.182104
21
548.669202
31
0.0
0
LINE
8
VISIBLE
10
782.293839
20
546.743621
30
0.0
11
782.091579
21
547.676023
31
0.0
0
LINE
8
VISIBLE
10
782.091579
20
547.676023
30
0.0
11
781.271498
21
548.622095
31
0.0
0
LINE
8
VISIBLE
10
785.404454
20
562.829191
30
0.0
11
794.332758
21
557.674433
31
0.0
0
LINE
8
VISIBLE
10
794.332758
20
557.674433
30
0.0
11
794.332758
21
556.858900
31
0.0
0
LINE
8
VISIBLE
10
794.332758
20
556.858900
30
0.0
11
793.082765
21
555.648116
31
0.0
0
LINE
8
VISIBLE
10
793.082765
20
555.648116
30
0.0
11
792.162051
21
553.944359
31
0.0
0
LINE
8
VISIBLE
10
792.162051
20
553.944359
30
0.0
11
791.629124
21
551.722081
31
0.0
0
LINE
8
VISIBLE
10
791.629124
20
551.722081
30
0.0
11
791.577620
21
548.987976
31
0.0
0
LINE
8
VISIBLE
10
791.577620
20
548.987976
30
0.0
11
792.102355
21
545.823094
31
0.0
0
LINE
8
VISIBLE
10
792.102355
20
545.823094
30
0.0
11
794.127157
21
540.556744
31
0.0
0
LINE
8
VISIBLE
10
777.539710
20
548.733054
30
0.0
11
777.539710
21
560.152164
31
0.0
0
LINE
8
VISIBLE
10
777.518002
20
548.555197
30
0.0
11
777.539710
21
548.733054
31
0.0
0
LINE
8
VISIBLE
10
777.539710
20
560.152164
30
0.0
11
777.501562
21
560.508772
31
0.0
0
LINE
8
VISIBLE
10
777.501562
20
560.508772
30
0.0
11
777.389720
21
560.885125
31
0.0
0
LINE
8
VISIBLE
10
777.389720
20
560.885125
30
0.0
11
777.211805
21
561.255578
31
0.0
0
LINE
8
VISIBLE
10
777.211805
20
561.255578
30
0.0
11
776.979941
21
561.594883
31
0.0
0
LINE
8
VISIBLE
10
776.979941
20
561.594883
30
0.0
11
776.709930
21
561.879918
31
0.0
0
LINE
8
VISIBLE
10
776.709930
20
561.879918
30
0.0
11
776.420173
21
562.091258
31
0.0
0
LINE
8
VISIBLE
10
776.420173
20
562.091258
30
0.0
11
773.994511
21
563.491715
31
0.0
0
LINE
8
VISIBLE
10
773.994511
20
563.491715
30
0.0
11
773.829628
21
563.561845
31
0.0
0
LINE
8
VISIBLE
10
781.271498
20
565.858487
30
0.0
11
781.182104
21
565.905595
31
0.0
0
LINE
8
VISIBLE
10
782.293839
20
563.980014
30
0.0
11
782.091579
21
564.912415
31
0.0
0
LINE
8
VISIBLE
10
782.091579
20
564.912415
30
0.0
11
781.271498
21
565.858487
31
0.0
0
LINE
8
VISIBLE
10
796.207981
20
537.405513
30
0.0
11
795.275034
21
536.866875
31
0.0
0
LINE
8
VISIBLE
10
797.579414
20
536.979989
30
0.0
11
796.646466
21
536.441352
31
0.0
0
LINE
8
VISIBLE
10
799.005297
20
536.076847
30
0.0
11
798.072350
21
535.538210
31
0.0
0
LINE
8
VISIBLE
10
800.071908
20
534.990461
30
0.0
11
799.138961
21
534.451823
31
0.0
0
LINE
8
VISIBLE
10
801.177190
20
534.021480
30
0.0
11
800.244243
21
533.482843
31
0.0
0
LINE
8
VISIBLE
10
789.834341
20
505.161667
30
0.0
11
788.901394
21
504.623030
31
0.0
0
LINE
8
VISIBLE
10
802.307460
20
533.181901
30
0.0
11
801.374513
21
532.643264
31
0.0
0
LINE
8
VISIBLE
10
788.971436
20
504.791514
30
0.0
11
788.038489
21
504.252877
31
0.0
0
LINE
8
VISIBLE
10
803.448727
20
532.482116
30
0.0
11
802.515779
21
531.943479
31
0.0
0
LINE
8
VISIBLE
10
788.030154
20
504.582973
30
0.0
11
787.097207
21
504.044335
31
0.0
0
LINE
8
VISIBLE
10
804.586861
20
531.930788
30
0.0
11
803.653914
21
531.392151
31
0.0
0
LINE
8
VISIBLE
10
787.022203
20
504.538637
30
0.0
11
786.089256
21
504.000000
31
0.0
0
LINE
8
VISIBLE
10
805.707775
20
531.534742
30
0.0
11
804.774828
21
530.996105
31
0.0
0
LINE
8
VISIBLE
10
785.960123
20
504.659059
30
0.0
11
785.027176
21
504.120422
31
0.0
0
LINE
8
VISIBLE
10
806.797593
20
531.298881
30
0.0
11
805.864646
21
530.760244
31
0.0
0
LINE
8
VISIBLE
10
784.857126
20
504.942740
30
0.0
11
783.924179
21
504.404103
31
0.0
0
LINE
8
VISIBLE
10
807.842822
20
531.226125
30
0.0
11
806.909875
21
530.687487
31
0.0
0
LINE
8
VISIBLE
10
783.726932
20
505.386152
30
0.0
11
782.793985
21
504.847515
31
0.0
0
LINE
8
VISIBLE
10
808.830525
20
531.317373
30
0.0
11
807.897578
21
530.778736
31
0.0
0
LINE
8
VISIBLE
10
782.583602
20
505.983778
30
0.0
11
781.650655
21
505.445141
31
0.0
0
LINE
8
VISIBLE
10
809.748473
20
531.571498
30
0.0
11
808.815526
21
531.032861
31
0.0
0
LINE
8
VISIBLE
10
781.441358
20
506.728185
30
0.0
11
780.508411
21
506.189547
31
0.0
0
LINE
8
VISIBLE
10
810.585305
20
531.985352
30
0.0
11
809.652357
21
531.446715
31
0.0
0
LINE
8
VISIBLE
10
780.314410
20
507.610111
30
0.0
11
779.381463
21
507.071473
31
0.0
0
LINE
8
VISIBLE
10
779.216776
20
508.618585
30
0.0
11
778.283829
21
508.079948
31
0.0
0
LINE
8
VISIBLE
10
778.162112
20
509.741064
30
0.0
11
777.229165
21
509.202426
31
0.0
0
LINE
8
VISIBLE
10
777.163536
20
510.963582
30
0.0
11
776.230589
21
510.424944
31
0.0
0
LINE
8
VISIBLE
10
776.233471
20
512.270932
30
0.0
11
775.300524
21
511.732295
31
0.0
0
LINE
8
VISIBLE
10
775.383488
20
513.646851
30
0.0
11
774.450540
21
513.108214
31
0.0
0
LINE
8
VISIBLE
10
774.624158
20
515.074223
30
0.0
11
773.691211
21
514.535585
31
0.0
0
LINE
8
VISIBLE
10
773.964930
20
516.535290
30
0.0
11
773.031983
21
515.996653
31
0.0
0
LINE
8
VISIBLE
10
773.414002
20
518.011879
30
0.0
11
772.481055
21
517.473242
31
0.0
0
LINE
8
VISIBLE
10
772.978230
20
519.485620
30
0.0
11
772.045282
21
518.946983
31
0.0
0
LINE
8
VISIBLE
10
772.663032
20
520.938180
30
0.0
11
771.730085
21
520.399543
31
0.0
0
LINE
8
VISIBLE
10
772.472332
20
522.351489
30
0.0
11
771.539385
21
521.812852
31
0.0
0
LINE
8
VISIBLE
10
772.408501
20
523.707967
30
0.0
11
771.475553
21
523.169330
31
0.0
0
LINE
8
VISIBLE
10
771.475553
20
562.015849
30
0.0
11
770.542606
21
561.477212
31
0.0
0
LINE
8
VISIBLE
10
771.529462
20
563.251821
30
0.0
11
770.596515
21
562.713184
31
0.0
0
LINE
8
VISIBLE
10
771.690669
20
564.413642
30
0.0
11
770.757722
21
563.875005
31
0.0
0
LINE
8
VISIBLE
10
771.957622
20
565.490122
30
0.0
11
771.024675
21
564.951485
31
0.0
0
LINE
8
VISIBLE
10
772.327750
20
566.470895
30
0.0
11
771.394803
21
565.932257
31
0.0
0
LINE
8
VISIBLE
10
772.797488
20
567.346514
30
0.0
11
771.864541
21
566.807877
31
0.0
0
LINE
8
VISIBLE
10
773.362313
20
568.108548
30
0.0
11
772.429366
21
567.569911
31
0.0
0
LINE
8
VISIBLE
10
774.016784
20
568.749658
30
0.0
11
773.083837
21
568.211020
31
0.0
0
LINE
8
VISIBLE
10
774.754600
20
569.263668
30
0.0
11
773.821653
21
568.725031
31
0.0
0
LINE
8
VISIBLE
10
790.600969
20
532.595482
30
0.0
11
789.668022
21
532.056845
31
0.0
0
LINE
8
VISIBLE
10
790.600969
20
523.438648
30
0.0
11
789.776563
21
522.962677
31
0.0
0
LINE
8
VISIBLE
10
790.553285
20
523.047950
30
0.0
11
789.941869
21
522.694949
31
0.0
0
LINE
8
VISIBLE
10
790.553285
20
533.041241
30
0.0
11
789.620338
21
532.502604
31
0.0
0
LINE
8
VISIBLE
10
790.413482
20
522.738938
30
0.0
11
790.044112
21
522.525682
31
0.0
0
LINE
8
VISIBLE
10
790.413482
20
533.511683
30
0.0
11
789.480535
21
532.973046
31
0.0
0
LINE
8
VISIBLE
10
790.191088
20
533.974749
30
0.0
11
789.258141
21
533.436112
31
0.0
0
LINE
8
VISIBLE
10
789.901259
20
534.398880
30
0.0
11
788.968312
21
533.860243
31
0.0
0
LINE
8
VISIBLE
10
789.563745
20
534.755174
30
0.0
11
788.630798
21
534.216537
31
0.0
0
LINE
8
VISIBLE
10
789.201548
20
535.019350
30
0.0
11
788.268601
21
534.480712
31
0.0
0
LINE
8
VISIBLE
10
776.140289
20
542.560271
30
0.0
11
775.207342
21
542.021634
31
0.0
0
LINE
8
VISIBLE
10
775.778092
20
542.714325
30
0.0
11
774.845145
21
542.175687
31
0.0
0
LINE
8
VISIBLE
10
775.440579
20
542.747758
30
0.0
11
774.928355
21
542.452026
31
0.0
0
LINE
8
VISIBLE
10
795.265705
20
558.213070
30
0.0
11
794.332758
21
557.674433
31
0.0
0
LINE
8
VISIBLE
10
795.265705
20
557.397537
30
0.0
11
794.332758
21
556.858900
31
0.0
0
LINE
8
VISIBLE
10
795.265705
20
540.708472
30
0.0
11
794.565030
21
540.303938
31
0.0
0
LINE
8
VISIBLE
10
778.472657
20
560.690802
30
0.0
11
777.539710
21
560.152164
31
0.0
0
LINE
8
VISIBLE
10
778.472657
20
549.271692
30
0.0
11
777.539710
21
548.733054
31
0.0
0
LINE
8
VISIBLE
10
778.434509
20
548.959133
30
0.0
11
777.642878
21
548.502084
31
0.0
0
LINE
8
VISIBLE
10
778.434509
20
561.047409
30
0.0
11
777.501562
21
560.508772
31
0.0
0
LINE
8
VISIBLE
10
778.322667
20
548.711923
30
0.0
11
777.912888
21
548.475337
31
0.0
0
LINE
8
VISIBLE
10
778.322667
20
561.423763
30
0.0
11
777.389720
21
560.885125
31
0.0
0
LINE
8
VISIBLE
10
778.144752
20
561.794215
30
0.0
11
777.211805
21
561.255578
31
0.0
0
LINE
8
VISIBLE
10
777.912888
20
562.133520
30
0.0
11
776.979941
21
561.594883
31
0.0
0
LINE
8
VISIBLE
10
777.642878
20
562.418556
30
0.0
11
776.709930
21
561.879918
31
0.0
0
LINE
8
VISIBLE
10
777.353120
20
562.629896
30
0.0
11
776.420173
21
562.091258
31
0.0
0
LINE
8
VISIBLE
10
774.927458
20
564.030353
30
0.0
11
773.994511
21
563.491715
31
0.0
0
LINE
8
VISIBLE
10
774.637700
20
564.153595
30
0.0
11
773.846068
21
563.696547
31
0.0
0
LINE
8
VISIBLE
10
774.367689
20
564.180342
30
0.0
11
773.957911
21
563.943756
31
0.0
0
LINE
8
VISIBLE
10
782.670919
20
528.017065
30
0.0
11
781.737972
21
527.478428
31
0.0
0
LINE
8
VISIBLE
10
803.195755
20
554.708696
30
0.0
11
802.262808
21
554.170059
31
0.0
0
LINE
8
VISIBLE
10
790.134496
20
538.897538
30
0.0
11
789.201548
21
538.358901
31
0.0
0
LINE
8
VISIBLE
10
775.207342
20
547.515734
30
0.0
11
774.274395
21
546.977097
31
0.0
0
LINE
8
VISIBLE
10
782.204445
20
549.160732
30
0.0
11
781.271498
21
548.622095
31
0.0
0
LINE
8
VISIBLE
10
782.204445
20
566.397125
30
0.0
11
781.271498
21
565.858487
31
0.0
0
LINE
8
DIM
10
290.502089
20
150.650995
30
0.0
11
290.502089
21
137.850995
31
0.0
0
LINE
8
DIM
10
515.497911
20
150.650995
30
0.0
11
515.497911
21
137.850995
31
0.0
0
LINE
8
DIM
10
290.502089
20
139.850995
30
0.0
11
515.497911
21
139.850995
31
0.0
0
SOLID
8
DIM
10
290.502089
20
139.850995
30
0.0
11
293.702089
21
139.242995
31
0.0
12
293.702089
22
140.458995
32
0.0
13
293.702089
23
140.458995
33
0.0
0
SOLID
8
DIM
10
515.497911
20
139.850995
30
0.0
11
512.297911
21
140.458995
31
0.0
12
512.297911
22
139.242995
32
0.0
13
512.297911
23
139.242995
33
0.0
0
TEXT
8
TEXT
10
403.000000
20
140.850995
30
0.0
40
2.5000
1
45.00
72
1
73
0
11
403.000000
21
140.850995
31
0.0
0
LINE
8
DIM
10
289.302089
20
151.850995
30
0.0
11
276.502089
21
151.850995
31
0.0
0
LINE
8
DIM
10
289.302089
20
442.149005
30
0.0
11
276.502089
21
442.149005
31
0.0
0
LINE
8
DIM
10
278.502089
20
151.850995
30
0.0
11
278.502089
21
442.149005
31
0.0
0
SOLID
8
DIM
10
278.502089
20
151.850995
30
0.0
11
279.110089
21
155.050995
31
0.0
12
277.894089
22
155.050995
32
0.0
13
277.894089
23
155.050995
33
0.0
0
SOLID
8
DIM
10
278.502089
20
442.149005
30
0.0
11
277.894089
21
438.949005
31
0.0
12
279.110089
22
438.949005
32
0.0
13
279.110089
23
438.949005
33
0.0
0
TEXT
8
TEXT
10
277.502089
20
297.000000
30
0.0
40
2.5000
1
58.06
50
90.0000
72
1
73
0
11
277.502089
21
297.000000
31
0.0
0
SOLID
8
DIM
10
402.997911
20
385.734005
30
0.0
11
403.605836
21
388.934019
31
0.0
12
402.389836
22
388.933990
32
0.0
13
402.389836
23
388.933990
33
0.0
0
LINE
8
DIM
10
402.997911
20
385.734005
30
0.0
11
402.997675
21
395.734005
31
0.0
0
LINE
8
DIM
10
402.997675
20
395.734005
30
0.0
11
399.997675
21
395.734005
31
0.0
0
TEXT
8
TEXT
10
399.197675
20
396.734005
30
0.0
40
2.5000
1
R11.50
72
2
73
0
11
399.197675
21
396.734005
31
0.0
0
SOLID
8
DIM
10
455.497911
20
159.349005
30
0.0
11
456.070136
21
156.142414
31
0.0
12
457.206310
22
156.575733
32
0.0
13
457.206310
23
156.575733
33
0.0
0
LINE
8
DIM
10
455.497911
20
159.349005
30
0.0
11
459.061387
21
150.005470
31
0.0
0
LINE
8
DIM
10
459.061387
20
150.005470
30
0.0
11
462.061387
21
150.005470
31
0.0
0
TEXT
8
TEXT
10
462.861387
20
151.005470
30
0.0
40
2.5000
1
R9.50
0
SOLID
8
DIM
10
457.997911
20
420.234005
30
0.0
11
459.857269
21
422.908411
31
0.0
12
458.746835
22
423.403985
32
0.0
13
458.746835
23
423.403985
33
0.0
0
LINE
8
DIM
10
457.997911
20
420.234005
30
0.0
11
462.073352
21
429.365860
31
0.0
0
LINE
8
DIM
10
462.073352
20
429.365860
30
0.0
11
465.073352
21
429.365860
31
0.0
0
TEXT
8
TEXT
10
465.873352
20
430.365860
30
0.0
40
2.5000
1
R1.10
0
TEXT
8
TEXT
10
403.000000
20
127.850995
30
0.0
40
4.0000
1
RIGHT VIEW
72
1
73
0
11
403.000000
21
127.850995
31
0.0
0
LINE
8
TEXT
10
391.000000
20
126.250995
30
0.0
11
415.000000
21
126.250995
31
0.0
0
TEXT
8
TEXT
10
403.000000
20
121.850995
30
0.0
40
2.4000
1
-Y →   Z ↑
72
1
73
0
11
403.000000
21
121.850995
31
0.0
0
LINE
8
DIM
10
247.502089
20
150.650995
30
0.0
11
247.502089
21
137.850995
31
0.0
0
LINE
8
DIM
10
252.502089
20
150.650995
30
0.0
11
252.502089
21
137.850995
31
0.0
0
LINE
8
DIM
10
247.502089
20
139.850995
30
0.0
11
252.502089
21
139.850995
31
0.0
0
SOLID
8
DIM
10
247.502089
20
139.850995
30
0.0
11
244.302089
21
140.458995
31
0.0
12
244.302089
22
139.242995
32
0.0
13
244.302089
23
139.242995
33
0.0
0
SOLID
8
DIM
10
252.502089
20
139.850995
30
0.0
11
255.702089
21
139.242995
31
0.0
12
255.702089
22
140.458995
32
0.0
13
255.702089
23
140.458995
33
0.0
0
LINE
8
DIM
10
252.502089
20
139.850995
30
0.0
11
262.102089
21
139.850995
31
0.0
0
TEXT
8
TEXT
10
262.902089
20
140.250995
30
0.0
40
2.5000
1
1.00
0
LINE
8
DIM
10
246.302089
20
151.850995
30
0.0
11
233.502089
21
151.850995
31
0.0
0
LINE
8
DIM
10
246.302089
20
442.149005
30
0.0
11
233.502089
21
442.149005
31
0.0
0
LINE
8
DIM
10
235.502089
20
151.850995
30
0.0
11
235.502089
21
442.149005
31
0.0
0
SOLID
8
DIM
10
235.502089
20
151.850995
30
0.0
11
236.110089
21
155.050995
31
0.0
12
234.894089
22
155.050995
32
0.0
13
234.894089
23
155.050995
33
0.0
0
SOLID
8
DIM
10
235.502089
20
442.149005
30
0.0
11
234.894089
21
438.949005
31
0.0
12
236.110089
22
438.949005
32
0.0
13
236.110089
23
438.949005
33
0.0
0
TEXT
8
TEXT
10
234.502089
20
297.000000
30
0.0
40
2.5000
1
58.06
50
90.0000
72
1
73
0
11
234.502089
21
297.000000
31
0.0
0
TEXT
8
TEXT
10
250.002089
20
127.850995
30
0.0
40
4.0000
1
FRONT VIEW
72
1
73
0
11
250.002089
21
127.850995
31
0.0
0
LINE
8
TEXT
10
238.002089
20
126.250995
30
0.0
11
262.002089
21
126.250995
31
0.0
0
TEXT
8
TEXT
10
250.002089
20
121.850995
30
0.0
40
2.4000
1
-X →   Z ↑
72
1
73
0
11
250.002089
21
121.850995
31
0.0
0
TEXT
8
TEXT
10
792.000000
20
498.000000
30
0.0
40
4.0000
1
ISOMETRIC VIEW
72
1
73
0
11
792.000000
21
498.000000
31
0.0
0
LINE
8
TEXT
10
775.200000
20
496.400000
30
0.0
11
808.800000
21
496.400000
31
0.0
0
TEXT
8
TEXT
10
792.000000
20
492.000000
30
0.0
40
2.6000
1
1.00 x 45.00 x 58.06 mm
72
1
73
0
11
792.000000
21
492.000000
31
0.0
0
LINE
8
VISIBLE
10
763.000000
20
438.177778
30
0.0
11
821.000000
21
438.177778
31
0.0
0
LINE
8
VISIBLE
10
821.000000
20
438.177778
30
0.0
11
821.000000
21
482.000000
31
0.0
0
LINE
8
VISIBLE
10
821.000000
20
482.000000
30
0.0
11
763.000000
21
482.000000
31
0.0
0
LINE
8
VISIBLE
10
763.000000
20
482.000000
30
0.0
11
763.000000
21
438.177778
31
0.0
0
LINE
8
TITLE
10
763.000000
20
438.177778
30
0.0
11
821.000000
21
438.177778
31
0.0
0
LINE
8
TITLE
10
821.000000
20
438.177778
30
0.0
11
821.000000
21
482.000000
31
0.0
0
LINE
8
TITLE
10
821.000000
20
482.000000
30
0.0
11
763.000000
21
482.000000
31
0.0
0
LINE
8
TITLE
10
763.000000
20
482.000000
30
0.0
11
763.000000
21
438.177778
31
0.0
0
TEXT
8
TEXT
10
792.000000
20
435.577778
30
0.0
40
2.0000
1
REFERENCE RENDER (ISO2) — rendered off this solid,
72
1
73
0
11
792.000000
21
435.577778
31
0.0
0
TEXT
8
TEXT
10
792.000000
20
432.977778
30
0.0
40
2.0000
1
900 x 680 px
72
1
73
0
11
792.000000
21
432.977778
31
0.0
0
TEXT
8
TEXT
10
755.000000
20
424.177778
30
0.0
40
3.0000
1
NOTES
0
TEXT
8
TEXT
10
755.000000
20
419.577778
30
0.0
40
2.4000
1
1. ALL DIMENSIONS IN mm AND DEGREES. EVERY
0
TEXT
8
TEXT
10
755.000000
20
415.857778
30
0.0
40
2.4000
1
   DIMENSION AND EVERY HOLE CALLOUT WAS MEASURED
0
TEXT
8
TEXT
10
755.000000
20
412.137778
30
0.0
40
2.4000
1
   OFF THE SOLID.
0
TEXT
8
TEXT
10
755.000000
20
408.417778
30
0.0
40
2.4000
1
2. PROCESS: FDM.
0
TEXT
8
TEXT
10
755.000000
20
404.697778
30
0.0
40
2.4000
1
3. THINNEST WALL, WHOLE SOLID (RAY MINIMUM):
0
TEXT
8
TEXT
10
755.000000
20
400.977778
30
0.0
40
2.4000
1
   1.0000 mm, AT X=42.500 Y=7.686 Z=-6.394 —
0
TEXT
8
TEXT
10
755.000000
20
397.257778
30
0.0
40
2.4000
1
   MEASURED OVER THE WHOLE SOLID BY RAY+EXACT AT
0
TEXT
8
TEXT
10
755.000000
20
393.537778
30
0.0
40
2.4000
1
   0.5700 mm SAMPLE SPACING (A FEATURE NARROWER
0
TEXT
8
TEXT
10
755.000000
20
389.817778
30
0.0
40
2.4000
1
   THAN THAT CAN BE MISSED). THIS IS A DISTANCE
0
TEXT
8
TEXT
10
755.000000
20
386.097778
30
0.0
40
2.4000
1
   THROUGH MATERIAL, NOT A WALL: AT AN EDGE, A
0
TEXT
8
TEXT
10
755.000000
20
382.377778
30
0.0
40
2.4000
1
   FILLET RUN-OUT OR A CHAMFER TIP IT IS REAL AND
0
TEXT
8
TEXT
10
755.000000
20
378.657778
30
0.0
40
2.4000
1
   UNPRINTABLE BY DEFINITION. DO NOT JUDGE
0
TEXT
8
TEXT
10
755.000000
20
374.937778
30
0.0
40
2.4000
1
   PRINTABILITY BY IT — THE NEXT NOTE IS THE ONE
0
TEXT
8
TEXT
10
755.000000
20
371.217778
30
0.0
40
2.4000
1
   THAT DOES.
0
TEXT
8
TEXT
10
755.000000
20
367.497778
30
0.0
40
2.4000
1
4. PRINTABLE MINIMUM WALL: 1.0000 mm, AT X=42.500
0
TEXT
8
TEXT
10
755.000000
20
363.777778
30
0.0
40
2.4000
1
   Y=-9.316 Z=6.204 — MEASURED AS THE SMALLEST
0
TEXT
8
TEXT
10
755.000000
20
360.057778
30
0.0
40
2.4000
1
   MEDIAN WALL OVER A NEIGHBOURHOOD OF 1.7090 mm
0
TEXT
8
TEXT
10
755.000000
20
356.337778
30
0.0
40
2.4000
1
   (>= 8 SAMPLES), RAYS CAPPED AT 4.000 mm, BY
0
TEXT
8
TEXT
10
755.000000
20
352.617778
30
0.0
40
2.4000
1
   cecad.inspect.printable_wall_detail. AGAINST
0
TEXT
8
TEXT
10
755.000000
20
348.897778
30
0.0
40
2.4000
1
   THE 0.8000 mm FLOOR (2 PERIMETERS @ 0.4 mm
0
TEXT
8
TEXT
10
755.000000
20
345.177778
30
0.0
40
2.4000
1
   NOZZLE, cecad/printed.py:801): VERDICT PASS
0
TEXT
8
TEXT
10
755.000000
20
341.457778
30
0.0
40
2.4000
1
5. DETAIL CALLOUTS (MANUFACTURING-REQUIREMENTS
0
TEXT
8
TEXT
10
755.000000
20
337.737778
30
0.0
40
2.4000
1
   A.7): NONE ON THIS SHEET, AND NONE WAS PROPOSED
0
TEXT
8
TEXT
10
755.000000
20
334.017778
30
0.0
40
2.4000
1
   — cecad.autosheet.detail_regions FOUND NO
0
TEXT
8
TEXT
10
755.000000
20
330.297778
30
0.0
40
2.4000
1
   CLUSTER OF SMALL FEATURES DENSE ENOUGH TO BE
0
TEXT
8
TEXT
10
755.000000
20
326.577778
30
0.0
40
2.4000
1
   WORTH ENLARGING ON THIS SOLID. EVERY FEATURE IS
0
TEXT
8
TEXT
10
755.000000
20
322.857778
30
0.0
40
2.4000
1
   DIMENSIONED IN THE ORTHOGRAPHIC VIEWS AND THE
0
TEXT
8
TEXT
10
755.000000
20
319.137778
30
0.0
40
2.4000
1
   HOLE TABLE.
0
TEXT
8
TEXT
10
755.000000
20
315.417778
30
0.0
40
2.4000
1
6. GENERAL TOLERANCE CANNOT DETERMINE — SEE PRINT
0
TEXT
8
TEXT
10
755.000000
20
311.697778
30
0.0
40
2.4000
1
   / DFM NOTES UNLESS STATED.
0
TEXT
8
TEXT
10
755.000000
20
307.977778
30
0.0
40
2.4000
1
7. RIGHT VIEW: hidden lines SUPPRESSED: all 734
0
TEXT
8
TEXT
10
755.000000
20
304.257778
30
0.0
40
2.4000
1
   edge samples still land on drawn ink without
0
TEXT
8
TEXT
10
755.000000
20
300.537778
30
0.0
40
2.4000
1
   them.
0
TEXT
8
TEXT
10
755.000000
20
296.817778
30
0.0
40
2.4000
1
8. FRONT VIEW: hidden lines SUPPRESSED: all 734
0
TEXT
8
TEXT
10
755.000000
20
293.097778
30
0.0
40
2.4000
1
   edge samples still land on drawn ink without
0
TEXT
8
TEXT
10
755.000000
20
289.377778
30
0.0
40
2.4000
1
   them.
0
TEXT
8
TEXT
10
755.000000
20
281.657778
30
0.0
40
3.0000
1
PRINT / DFM
0
TEXT
8
TEXT
10
755.000000
20
277.057778
30
0.0
40
2.4000
1
1. ORIENTATION: upright, Z-up (1 x 45 x 58 mm)
0
TEXT
8
TEXT
10
755.000000
20
273.337778
30
0.0
40
2.4000
1
2. THINNEST WALL, WHOLE SOLID (RAY MINIMUM):
0
TEXT
8
TEXT
10
755.000000
20
269.617778
30
0.0
40
2.4000
1
   1.0000 mm — a distance through material, NOT a
0
TEXT
8
TEXT
10
755.000000
20
265.897778
30
0.0
40
2.4000
1
   printable wall where it falls on an edge, a
0
TEXT
8
TEXT
10
755.000000
20
262.177778
30
0.0
40
2.4000
1
   fillet run-out or a chamfer tip. Printability
0
TEXT
8
TEXT
10
755.000000
20
258.457778
30
0.0
40
2.4000
1
   is judged on the next line.
0
TEXT
8
TEXT
10
755.000000
20
254.737778
30
0.0
40
2.4000
1
3. PRINTABLE MINIMUM WALL: 1.0000 mm (smallest
0
TEXT
8
TEXT
10
755.000000
20
251.017778
30
0.0
40
2.4000
1
   median wall over a 1.7090 mm neighbourhood,
0
TEXT
8
TEXT
10
755.000000
20
247.297778
30
0.0
40
2.4000
1
   cecad.inspect.printable_wall_detail) against a
0
TEXT
8
TEXT
10
755.000000
20
243.577778
30
0.0
40
2.4000
1
   0.8000 mm floor (2 perimeters @ 0.4 mm nozzle):
0
TEXT
8
TEXT
10
755.000000
20
239.857778
30
0.0
40
2.4000
1
   VERDICT PASS
0
TEXT
8
TEXT
10
755.000000
20
236.137778
30
0.0
40
2.4000
1
4. 6 horizontal bore(s) bridge at the crown: ream
0
TEXT
8
TEXT
10
755.000000
20
232.417778
30
0.0
40
2.4000
1
   any bearing or press-fit bore to size
0
TEXT
8
TEXT
10
755.000000
20
228.697778
30
0.0
40
2.4000
1
5. FILAMENT: PLA, ~1 g (modelled), 291 layers @
0
TEXT
8
TEXT
10
755.000000
20
224.977778
30
0.0
40
2.4000
1
   0.2 mm
0
TEXT
8
TEXT
10
755.000000
20
221.257778
30
0.0
40
2.4000
1
6. TOLERANCE BASIS, IN-HOUSE: CANNOT DETERMINE.
0
TEXT
8
TEXT
10
755.000000
20
217.537778
30
0.0
40
2.4000
1
   Every Bambu on this farm records tolerance_mm:
0
TEXT
8
TEXT
10
755.000000
20
213.817778
30
0.0
40
2.4000
1
   null, cite "no coupon printed and measured on
0
TEXT
8
TEXT
10
755.000000
20
210.097778
30
0.0
40
2.4000
1
   this machine" (ce-machines/bambu-h2s-*,
0
TEXT
8
TEXT
10
755.000000
20
206.377778
30
0.0
40
2.4000
1
   bambu-h2d-*/capabilities.json, read
0
TEXT
8
TEXT
10
755.000000
20
202.657778
30
0.0
40
2.4000
1
   2026-09-02), and Bambu Lab's own H2D Pro spec
0
TEXT
8
TEXT
10
755.000000
20
198.937778
30
0.0
40
2.4000
1
   sheet carries no dimensional-accuracy line.
0
TEXT
8
TEXT
10
755.000000
20
195.217778
30
0.0
40
2.4000
1
   DIMENSIONS HERE ARE NOMINAL AS MODELLED.
0
TEXT
8
TEXT
10
755.000000
20
191.497778
30
0.0
40
2.4000
1
7. TOLERANCE BASIS, OUTSOURCED: JLC3DP ±0.3 mm FDM
0
TEXT
8
TEXT
10
755.000000
20
187.777778
30
0.0
40
2.4000
1
   (jlc3dp.com, ce-machines/farm-jlc3dp); Hubs
0
TEXT
8
TEXT
10
755.000000
20
184.057778
30
0.0
40
2.4000
1
   ±0.5%, floor ±0.5 mm (hubs.com/3d-printing/,
0
TEXT
8
TEXT
10
755.000000
20
180.337778
30
0.0
40
2.4000
1
   ce-machines/farm-hubs). Apply the route's
0
TEXT
8
TEXT
10
755.000000
20
176.617778
30
0.0
40
2.4000
1
   figure, not both. The ±0.2 mm in
0
TEXT
8
TEXT
10
755.000000
20
172.897778
30
0.0
40
2.4000
1
   cecad/machining.py fdm is a repo planning
0
TEXT
8
TEXT
10
755.000000
20
169.177778
30
0.0
40
2.4000
1
   constant with no vendor cite and is NOT used
0
TEXT
8
TEXT
10
755.000000
20
165.457778
30
0.0
40
2.4000
1
   here. One printed and measured coupon closes
0
TEXT
8
TEXT
10
755.000000
20
161.737778
30
0.0
40
2.4000
1
   this note.
0
TEXT
8
TEXT
10
755.000000
20
158.017778
30
0.0
40
2.4000
1
8. NO ISO 286 CLASS IS DECLARED ON ANY BORE: FDM
0
TEXT
8
TEXT
10
755.000000
20
154.297778
30
0.0
40
2.4000
1
   cannot be sized to one (H7/p6 at Ø3 is a 0.010
0
TEXT
8
TEXT
10
755.000000
20
150.577778
30
0.0
40
2.4000
1
   mm band). REAM bearing and press-fit bores
0
TEXT
8
TEXT
10
755.000000
20
146.857778
30
0.0
40
2.4000
1
   after printing.
0
TEXT
8
TEXT
10
755.000000
20
143.137778
30
0.0
40
2.4000
1
9. RADII NAMED IN THE BUILDER THAT ARE NOT ARCS ON
0
TEXT
8
TEXT
10
755.000000
20
139.417778
30
0.0
40
2.4000
1
   THIS SOLID: 11.00 mm, 12.00 mm, 12.50 mm.
0
TEXT
8
TEXT
10
755.000000
20
135.697778
30
0.0
40
2.4000
1
   cecad.inspect.arc_radii measures 3 arc(s) on it
0
TEXT
8
TEXT
10
755.000000
20
131.977778
30
0.0
40
2.4000
1
   (1.10 mm, 9.50 mm, 11.50 mm). These are DESIGN
0
TEXT
8
TEXT
10
755.000000
20
128.257778
30
0.0
40
2.4000
1
   blends of a lofted surface — real curvature,
0
TEXT
8
TEXT
10
755.000000
20
124.537778
30
0.0
40
2.4000
1
   sampled station to station — and no circular
0
TEXT
8
TEXT
10
755.000000
20
120.817778
30
0.0
40
2.4000
1
   edge carries them, so no leader can be drawn to
0
TEXT
8
TEXT
10
755.000000
20
117.097778
30
0.0
40
2.4000
1
   one and no dimension on this document is
0
TEXT
8
TEXT
10
755.000000
20
113.377778
30
0.0
40
2.4000
1
   missing. What settles them for a shop: the
0
TEXT
8
TEXT
10
755.000000
20
109.657778
30
0.0
40
2.4000
1
   printed geometry file named on this sheet.
0
TEXT
8
TEXT
10
755.000000
20
105.937778
30
0.0
40
2.4000
1
10. ORTHOGRAPHIC VIEWS: 2 (RIGHT, FRONT), CHOSEN
0
TEXT
8
TEXT
10
755.000000
20
102.217778
30
0.0
40
2.4000
1
   OFF THE BOUNDING BOX 1.0000 x 44.9992 x 58.0596
0
TEXT
8
TEXT
10
755.000000
20
98.497778
30
0.0
40
2.4000
1
   mm BY cecad.autosheet.choose_views —
0
TEXT
8
TEXT
10
755.000000
20
94.777778
30
0.0
40
2.4000
1
   THINNEST/LONGEST EXTENT RATIO 0.0172. A THIRD
0
TEXT
8
TEXT
10
755.000000
20
91.057778
30
0.0
40
2.4000
1
   ORTHOGRAPHIC VIEW OF THIS PART WOULD BE THE
0
TEXT
8
TEXT
10
755.000000
20
87.337778
30
0.0
40
2.4000
1
   PART SEEN EDGE-ON — A PAIR OF LINES CARRYING NO
0
TEXT
8
TEXT
10
755.000000
20
83.617778
30
0.0
40
2.4000
1
   FEATURE, WHICH
0
TEXT
8
TEXT
10
755.000000
20
79.897778
30
0.0
40
2.4000
1
   docs/MANUFACTURING-REQUIREMENTS.md A.2 ORDERS
0
TEXT
8
TEXT
10
755.000000
20
76.177778
30
0.0
40
2.4000
1
   SUPPRESSED. THE SECTION AND THE ISOMETRIC CARRY
0
TEXT
8
TEXT
10
755.000000
20
72.457778
30
0.0
40
2.4000
1
   THE THIRD DIRECTION.
0
LINE
8
FRAME
10
645.000000
20
10.000000
30
0.0
11
831.000000
21
10.000000
31
0.0
0
LINE
8
FRAME
10
831.000000
20
10.000000
30
0.0
11
831.000000
21
66.000000
31
0.0
0
LINE
8
FRAME
10
831.000000
20
66.000000
30
0.0
11
645.000000
21
66.000000
31
0.0
0
LINE
8
FRAME
10
645.000000
20
66.000000
30
0.0
11
645.000000
21
10.000000
31
0.0
0
LINE
8
TITLE
10
645.000000
20
53.000000
30
0.0
11
831.000000
21
53.000000
31
0.0
0
LINE
8
TITLE
10
645.000000
20
19.000000
30
0.0
11
831.000000
21
19.000000
31
0.0
0
LINE
8
TITLE
10
645.000000
20
27.500000
30
0.0
11
831.000000
21
27.500000
31
0.0
0
LINE
8
TITLE
10
645.000000
20
36.000000
30
0.0
11
831.000000
21
36.000000
31
0.0
0
LINE
8
TITLE
10
645.000000
20
44.500000
30
0.0
11
831.000000
21
44.500000
31
0.0
0
TEXT
8
TEXT
10
647.500000
20
59.500000
30
0.0
40
6.0000
1
MICRODUCK-UPPER-LEG-RIGIDITY-PLATE
72
0
73
2
11
647.500000
21
59.500000
31
0.0
0
LINE
8
TITLE
10
811.000000
20
53.000000
30
0.0
11
811.000000
21
66.000000
31
0.0
0
TEXT
8
TITLE
10
821.000000
20
63.600000
30
0.0
40
1.7000
1
REV
72
1
73
0
11
821.000000
21
63.600000
31
0.0
0
TEXT
8
TEXT
10
821.000000
20
55.000000
30
0.0
40
5.2000
1
A
72
1
73
0
11
821.000000
21
55.000000
31
0.0
0
LINE
8
TITLE
10
781.000000
20
53.000000
30
0.0
11
781.000000
21
66.000000
31
0.0
0
CIRCLE
8
TITLE
10
787.500000
20
59.500000
30
0.0
40
3.500000
0
CIRCLE
8
TITLE
10
787.500000
20
59.500000
30
0.0
40
1.960000
0
LINE
8
TITLE
10
797.300000
20
56.000000
30
0.0
11
797.300000
21
63.000000
31
0.0
0
LINE
8
TITLE
10
797.300000
20
63.000000
30
0.0
11
803.250000
21
61.460000
31
0.0
0
LINE
8
TITLE
10
803.250000
20
61.460000
30
0.0
11
803.250000
21
57.540000
31
0.0
0
LINE
8
TITLE
10
803.250000
20
57.540000
30
0.0
11
797.300000
21
56.000000
31
0.0
0
LINE
8
CENTER
10
782.500000
20
59.500000
30
0.0
11
804.750000
21
59.500000
31
0.0
0
LINE
8
TITLE
10
709.000000
20
19.000000
30
0.0
11
709.000000
21
53.000000
31
0.0
0
LINE
8
TITLE
10
773.000000
20
19.000000
30
0.0
11
773.000000
21
53.000000
31
0.0
0
TEXT
8
TITLE
10
646.600000
20
50.600000
30
0.0
40
1.7000
1
MATERIAL
0
TEXT
8
TEXT
10
646.600000
20
45.900000
30
0.0
40
2.5000
1
PLA
0
TEXT
8
TITLE
10
710.600000
20
50.600000
30
0.0
40
1.7000
1
PROCESS
0
TEXT
8
TEXT
10
710.600000
20
45.900000
30
0.0
40
2.5000
1
FDM
0
TEXT
8
TITLE
10
774.600000
20
50.600000
30
0.0
40
1.7000
1
SCALE
0
TEXT
8
TEXT
10
774.600000
20
45.900000
30
0.0
40
2.5000
1
5:1
0
TEXT
8
TITLE
10
646.600000
20
42.100000
30
0.0
40
1.7000
1
CATEGORY
0
TEXT
8
TEXT
10
646.600000
20
37.400000
30
0.0
40
2.5000
1
plate
0
TEXT
8
TITLE
10
678.600000
20
42.100000
30
0.0
40
1.7000
1
GENERAL TOL
0
TEXT
8
TEXT
10
678.600000
20
37.400000
30
0.0
40
2.5000
1
CANNOT DETERMINE —~
0
LINE
8
TITLE
10
677.000000
20
36.000000
30
0.0
11
677.000000
21
44.500000
31
0.0
0
TEXT
8
TITLE
10
710.600000
20
42.100000
30
0.0
40
1.7000
1
FINISH
0
TEXT
8
TEXT
10
710.600000
20
37.400000
30
0.0
40
2.5000
1
AS PRINTED
0
TEXT
8
TITLE
10
774.600000
20
42.100000
30
0.0
40
1.7000
1
SHEET
0
TEXT
8
TEXT
10
774.600000
20
37.400000
30
0.0
40
2.5000
1
A1  1/1
0
TEXT
8
TITLE
10
646.600000
20
33.600000
30
0.0
40
1.7000
1
VOLUME (MEASURED)
0
TEXT
8
TEXT
10
646.600000
20
28.900000
30
0.0
40
2.5000
1
0.74 cm3
0
TEXT
8
TITLE
10
710.600000
20
33.600000
30
0.0
40
1.7000
1
MASS (ASSUMES PLA)
0
TEXT
8
TEXT
10
710.600000
20
28.900000
30
0.0
40
2.5000
1
0.9 g
0
TEXT
8
TITLE
10
774.600000
20
33.600000
30
0.0
40
1.7000
1
UNITS
0
TEXT
8
TEXT
10
774.600000
20
28.900000
30
0.0
40
2.5000
1
mm / deg
0
TEXT
8
TITLE
10
646.600000
20
25.100000
30
0.0
40
1.7000
1
SIZE (BBOX, MEASURED)
0
TEXT
8
TEXT
10
646.600000
20
20.400000
30
0.0
40
2.5000
1
1.00 x 45.00 x 58.06
0
TEXT
8
TITLE
10
710.600000
20
25.100000
30
0.0
40
1.7000
1
DRAWN
0
TEXT
8
TEXT
10
710.600000
20
20.400000
30
0.0
40
2.5000
1
ce-cad  2026-09-03
0
TEXT
8
TITLE
10
774.600000
20
25.100000
30
0.0
40
1.7000
1
PROJECTION
0
TEXT
8
TEXT
10
774.600000
20
20.400000
30
0.0
40
2.5000
1
THIRD ANGLE
0
TEXT
8
TITLE
10
646.600000
20
16.600000
30
0.0
40
1.7000
1
SOURCE (DESIGN FILE)
0
TEXT
8
TEXT
10
646.600000
20
11.400000
30
0.0
40
2.6000
1
ce-parts/microduck-upper-leg-rigidity-plate/current/cad/part.py
0
TEXT
8
TEXT
10
12.500000
20
577.500000
30
0.0
40
4.2000
1
microduck-upper-leg-rigidity-plate   SCALE 5:1   A1   THIRD ANGLE
0
ENDSEC
0
EOF
