0
SECTION
2
HEADER
9
$ACADVER
1
AC1009
9
$INSUNITS
70
4
9
$LTSCALE
40
1.0
9
$EXTMIN
10
0.0000
20
0.0000
30
0.0
9
$EXTMAX
10
594.0000
20
420.0000
30
0.0
0
ENDSEC
0
SECTION
2
TABLES
0
TABLE
2
LTYPE
70
4
0
LTYPE
2
CONTINUOUS
70
0
3
Solid line
72
65
73
0
40
0.0000
0
LTYPE
2
HIDDEN
70
0
3
Hidden __ __ __ __
72
65
73
2
40
3.6000
49
2.4000
49
-1.2000
0
LTYPE
2
CENTER
70
0
3
Center ____ _ ____ _
72
65
73
4
40
11.2000
49
7.0000
49
-1.4000
49
1.4000
49
-1.4000
0
LTYPE
2
PHANTOM
70
0
3
Phantom ____ _ _ ____
72
65
73
6
40
21.0000
49
11.0000
49
-2.0000
49
2.0000
49
-2.0000
49
2.0000
49
-2.0000
0
ENDTAB
0
TABLE
2
LAYER
70
12
0
LAYER
2
0
70
0
62
7
6
CONTINUOUS
0
LAYER
2
VISIBLE
70
0
62
7
6
CONTINUOUS
0
LAYER
2
SECTION
70
0
62
7
6
CONTINUOUS
0
LAYER
2
HIDDEN
70
0
62
8
6
HIDDEN
0
LAYER
2
CENTER
70
0
62
4
6
CENTER
0
LAYER
2
DIM
70
0
62
3
6
CONTINUOUS
0
LAYER
2
TEXT
70
0
62
3
6
CONTINUOUS
0
LAYER
2
HATCH
70
0
62
5
6
CONTINUOUS
0
LAYER
2
CUT
70
0
62
1
6
PHANTOM
0
LAYER
2
CUTTHIN
70
0
62
1
6
PHANTOM
0
LAYER
2
FRAME
70
0
62
7
6
CONTINUOUS
0
LAYER
2
TITLE
70
0
62
7
6
CONTINUOUS
0
ENDTAB
0
ENDSEC
0
SECTION
2
ENTITIES
0
LINE
8
TITLE
10
5.000000
20
5.000000
30
0.0
11
589.000000
21
5.000000
31
0.0
0
LINE
8
TITLE
10
589.000000
20
5.000000
30
0.0
11
589.000000
21
415.000000
31
0.0
0
LINE
8
TITLE
10
589.000000
20
415.000000
30
0.0
11
5.000000
21
415.000000
31
0.0
0
LINE
8
TITLE
10
5.000000
20
415.000000
30
0.0
11
5.000000
21
5.000000
31
0.0
0
LINE
8
FRAME
10
10.000000
20
10.000000
30
0.0
11
584.000000
21
10.000000
31
0.0
0
LINE
8
FRAME
10
584.000000
20
10.000000
30
0.0
11
584.000000
21
410.000000
31
0.0
0
LINE
8
FRAME
10
584.000000
20
410.000000
30
0.0
11
10.000000
21
410.000000
31
0.0
0
LINE
8
FRAME
10
10.000000
20
410.000000
30
0.0
11
10.000000
21
10.000000
31
0.0
0
TEXT
8
TITLE
10
67.400000
20
412.500000
30
0.0
40
2.4000
1
1
72
1
73
2
11
67.400000
21
412.500000
31
0.0
0
TEXT
8
TITLE
10
67.400000
20
7.500000
30
0.0
40
2.4000
1
1
72
1
73
2
11
67.400000
21
7.500000
31
0.0
0
TEXT
8
TITLE
10
182.200000
20
412.500000
30
0.0
40
2.4000
1
2
72
1
73
2
11
182.200000
21
412.500000
31
0.0
0
TEXT
8
TITLE
10
182.200000
20
7.500000
30
0.0
40
2.4000
1
2
72
1
73
2
11
182.200000
21
7.500000
31
0.0
0
LINE
8
TITLE
10
124.800000
20
5.000000
30
0.0
11
124.800000
21
10.000000
31
0.0
0
LINE
8
TITLE
10
124.800000
20
410.000000
30
0.0
11
124.800000
21
415.000000
31
0.0
0
TEXT
8
TITLE
10
297.000000
20
412.500000
30
0.0
40
2.4000
1
3
72
1
73
2
11
297.000000
21
412.500000
31
0.0
0
TEXT
8
TITLE
10
297.000000
20
7.500000
30
0.0
40
2.4000
1
3
72
1
73
2
11
297.000000
21
7.500000
31
0.0
0
LINE
8
TITLE
10
239.600000
20
5.000000
30
0.0
11
239.600000
21
10.000000
31
0.0
0
LINE
8
TITLE
10
239.600000
20
410.000000
30
0.0
11
239.600000
21
415.000000
31
0.0
0
TEXT
8
TITLE
10
411.800000
20
412.500000
30
0.0
40
2.4000
1
4
72
1
73
2
11
411.800000
21
412.500000
31
0.0
0
TEXT
8
TITLE
10
411.800000
20
7.500000
30
0.0
40
2.4000
1
4
72
1
73
2
11
411.800000
21
7.500000
31
0.0
0
LINE
8
TITLE
10
354.400000
20
5.000000
30
0.0
11
354.400000
21
10.000000
31
0.0
0
LINE
8
TITLE
10
354.400000
20
410.000000
30
0.0
11
354.400000
21
415.000000
31
0.0
0
TEXT
8
TITLE
10
526.600000
20
412.500000
30
0.0
40
2.4000
1
5
72
1
73
2
11
526.600000
21
412.500000
31
0.0
0
TEXT
8
TITLE
10
526.600000
20
7.500000
30
0.0
40
2.4000
1
5
72
1
73
2
11
526.600000
21
7.500000
31
0.0
0
LINE
8
TITLE
10
469.200000
20
5.000000
30
0.0
11
469.200000
21
10.000000
31
0.0
0
LINE
8
TITLE
10
469.200000
20
410.000000
30
0.0
11
469.200000
21
415.000000
31
0.0
0
TEXT
8
TITLE
10
7.500000
20
60.000000
30
0.0
40
2.4000
1
D
72
1
73
2
11
7.500000
21
60.000000
31
0.0
0
TEXT
8
TITLE
10
586.500000
20
60.000000
30
0.0
40
2.4000
1
D
72
1
73
2
11
586.500000
21
60.000000
31
0.0
0
TEXT
8
TITLE
10
7.500000
20
160.000000
30
0.0
40
2.4000
1
C
72
1
73
2
11
7.500000
21
160.000000
31
0.0
0
TEXT
8
TITLE
10
586.500000
20
160.000000
30
0.0
40
2.4000
1
C
72
1
73
2
11
586.500000
21
160.000000
31
0.0
0
LINE
8
TITLE
10
5.000000
20
110.000000
30
0.0
11
10.000000
21
110.000000
31
0.0
0
LINE
8
TITLE
10
584.000000
20
110.000000
30
0.0
11
589.000000
21
110.000000
31
0.0
0
TEXT
8
TITLE
10
7.500000
20
260.000000
30
0.0
40
2.4000
1
B
72
1
73
2
11
7.500000
21
260.000000
31
0.0
0
TEXT
8
TITLE
10
586.500000
20
260.000000
30
0.0
40
2.4000
1
B
72
1
73
2
11
586.500000
21
260.000000
31
0.0
0
LINE
8
TITLE
10
5.000000
20
210.000000
30
0.0
11
10.000000
21
210.000000
31
0.0
0
LINE
8
TITLE
10
584.000000
20
210.000000
30
0.0
11
589.000000
21
210.000000
31
0.0
0
TEXT
8
TITLE
10
7.500000
20
360.000000
30
0.0
40
2.4000
1
A
72
1
73
2
11
7.500000
21
360.000000
31
0.0
0
TEXT
8
TITLE
10
586.500000
20
360.000000
30
0.0
40
2.4000
1
A
72
1
73
2
11
586.500000
21
360.000000
31
0.0
0
LINE
8
TITLE
10
5.000000
20
310.000000
30
0.0
11
10.000000
21
310.000000
31
0.0
0
LINE
8
TITLE
10
584.000000
20
310.000000
30
0.0
11
589.000000
21
310.000000
31
0.0
0
LINE
8
VISIBLE
10
194.000000
20
173.000000
30
0.0
11
142.000000
21
173.000000
31
0.0
0
LINE
8
VISIBLE
10
142.000000
20
149.000000
30
0.0
11
142.000000
21
173.000000
31
0.0
0
LINE
8
VISIBLE
10
194.000000
20
149.000000
30
0.0
11
142.000000
21
149.000000
31
0.0
0
LINE
8
VISIBLE
10
146.200000
20
137.000000
30
0.0
11
146.200000
21
149.000000
31
0.0
0
LINE
8
VISIBLE
10
189.800000
20
137.000000
30
0.0
11
146.200000
21
137.000000
31
0.0
0
LINE
8
VISIBLE
10
152.600000
20
132.000000
30
0.0
11
152.600000
21
137.000000
31
0.0
0
LINE
8
VISIBLE
10
183.400000
20
132.000000
30
0.0
11
152.600000
21
132.000000
31
0.0
0
LINE
8
VISIBLE
10
194.000000
20
149.000000
30
0.0
11
194.000000
21
173.000000
31
0.0
0
LINE
8
VISIBLE
10
189.800000
20
137.000000
30
0.0
11
189.800000
21
149.000000
31
0.0
0
LINE
8
VISIBLE
10
183.400000
20
132.000000
30
0.0
11
183.400000
21
137.000000
31
0.0
0
CIRCLE
8
VISIBLE
10
168.000000
20
262.000000
30
0.0
40
26.000000
0
CIRCLE
8
VISIBLE
10
168.000000
20
262.000000
30
0.0
40
21.800000
0
CIRCLE
8
VISIBLE
10
168.000000
20
262.000000
30
0.0
40
18.600000
0
CIRCLE
8
VISIBLE
10
168.000000
20
262.000000
30
0.0
40
15.400000
0
LINE
8
VISIBLE
10
258.000000
20
173.000000
30
0.0
11
232.000000
21
173.000000
31
0.0
0
LINE
8
VISIBLE
10
284.000000
20
173.000000
30
0.0
11
258.000000
21
173.000000
31
0.0
0
LINE
8
VISIBLE
10
258.000000
20
149.000000
30
0.0
11
232.000000
21
149.000000
31
0.0
0
LINE
8
VISIBLE
10
284.000000
20
149.000000
30
0.0
11
258.000000
21
149.000000
31
0.0
0
LINE
8
VISIBLE
10
258.000000
20
137.000000
30
0.0
11
236.200000
21
137.000000
31
0.0
0
LINE
8
VISIBLE
10
279.800000
20
137.000000
30
0.0
11
258.000000
21
137.000000
31
0.0
0
LINE
8
VISIBLE
10
258.000000
20
132.000000
30
0.0
11
242.600000
21
132.000000
31
0.0
0
LINE
8
VISIBLE
10
273.400000
20
132.000000
30
0.0
11
258.000000
21
132.000000
31
0.0
0
LINE
8
VISIBLE
10
258.000000
20
149.000000
30
0.0
11
258.000000
21
173.000000
31
0.0
0
LINE
8
VISIBLE
10
258.000000
20
137.000000
30
0.0
11
258.000000
21
149.000000
31
0.0
0
LINE
8
VISIBLE
10
258.000000
20
132.000000
30
0.0
11
258.000000
21
137.000000
31
0.0
0
LINE
8
VISIBLE
10
232.000000
20
149.000000
30
0.0
11
232.000000
21
173.000000
31
0.0
0
LINE
8
VISIBLE
10
284.000000
20
149.000000
30
0.0
11
284.000000
21
173.000000
31
0.0
0
LINE
8
VISIBLE
10
236.200000
20
137.000000
30
0.0
11
236.200000
21
149.000000
31
0.0
0
LINE
8
VISIBLE
10
279.800000
20
137.000000
30
0.0
11
279.800000
21
149.000000
31
0.0
0
LINE
8
VISIBLE
10
242.600000
20
132.000000
30
0.0
11
242.600000
21
137.000000
31
0.0
0
LINE
8
VISIBLE
10
273.400000
20
132.000000
30
0.0
11
273.400000
21
137.000000
31
0.0
0
LINE
8
VISIBLE
10
374.000000
20
149.000000
30
0.0
11
322.000000
21
149.000000
31
0.0
0
LINE
8
VISIBLE
10
369.800000
20
137.000000
30
0.0
11
326.200000
21
137.000000
31
0.0
0
LINE
8
SECTION
10
322.000000
20
149.000000
30
0.0
11
322.000000
21
173.000000
31
0.0
0
LINE
8
SECTION
10
322.000000
20
173.000000
30
0.0
11
374.000000
21
173.000000
31
0.0
0
LINE
8
SECTION
10
374.000000
20
149.000000
30
0.0
11
374.000000
21
173.000000
31
0.0
0
LINE
8
SECTION
10
369.800000
20
149.000000
30
0.0
11
374.000000
21
149.000000
31
0.0
0
LINE
8
SECTION
10
369.800000
20
137.000000
30
0.0
11
369.800000
21
149.000000
31
0.0
0
LINE
8
SECTION
10
366.600000
20
137.000000
30
0.0
11
369.800000
21
137.000000
31
0.0
0
LINE
8
SECTION
10
366.600000
20
137.000000
30
0.0
11
366.600000
21
145.990000
31
0.0
0
LINE
8
SECTION
10
329.400000
20
145.990000
30
0.0
11
366.600000
21
145.990000
31
0.0
0
LINE
8
SECTION
10
329.400000
20
137.000000
30
0.0
11
329.400000
21
145.990000
31
0.0
0
LINE
8
SECTION
10
326.200000
20
137.000000
30
0.0
11
329.400000
21
137.000000
31
0.0
0
LINE
8
SECTION
10
326.200000
20
137.000000
30
0.0
11
326.200000
21
149.000000
31
0.0
0
LINE
8
SECTION
10
322.000000
20
149.000000
30
0.0
11
326.200000
21
149.000000
31
0.0
0
LINE
8
SECTION
10
332.600000
20
132.000000
30
0.0
11
332.600000
21
137.000000
31
0.0
0
LINE
8
SECTION
10
332.600000
20
137.000000
30
0.0
11
363.400000
21
137.000000
31
0.0
0
LINE
8
SECTION
10
363.400000
20
132.000000
30
0.0
11
363.400000
21
137.000000
31
0.0
0
LINE
8
SECTION
10
332.600000
20
132.000000
30
0.0
11
363.400000
21
132.000000
31
0.0
0
LINE
8
VISIBLE
10
574.989954
20
378.808068
30
0.0
11
574.488032
21
381.962603
31
0.0
0
LINE
8
VISIBLE
10
574.488032
20
381.962603
30
0.0
11
572.967057
21
385.059495
31
0.0
0
LINE
8
VISIBLE
10
572.967057
20
385.059495
30
0.0
11
570.352801
21
388.057082
31
0.0
0
LINE
8
VISIBLE
10
570.352801
20
388.057082
30
0.0
11
566.558671
21
390.844416
31
0.0
0
LINE
8
VISIBLE
10
566.558671
20
390.844416
30
0.0
11
561.565635
21
393.241560
31
0.0
0
LINE
8
VISIBLE
10
561.565635
20
393.241560
30
0.0
11
555.492081
21
395.028564
31
0.0
0
LINE
8
VISIBLE
10
555.492081
20
395.028564
30
0.0
11
548.630993
21
395.995400
31
0.0
0
LINE
8
VISIBLE
10
548.630993
20
395.995400
30
0.0
11
541.434933
21
396.000000
31
0.0
0
LINE
8
VISIBLE
10
541.434933
20
396.000000
30
0.0
11
534.443535
21
395.014634
31
0.0
0
LINE
8
VISIBLE
10
534.443535
20
395.014634
30
0.0
11
528.173348
21
393.140561
31
0.0
0
LINE
8
VISIBLE
10
528.173348
20
393.140561
30
0.0
11
523.011367
21
390.582296
31
0.0
0
LINE
8
VISIBLE
10
523.011367
20
390.582296
30
0.0
11
519.154536
21
387.590803
31
0.0
0
LINE
8
VISIBLE
10
519.154536
20
387.590803
30
0.0
11
516.615942
21
384.398016
31
0.0
0
LINE
8
VISIBLE
10
516.615942
20
384.398016
30
0.0
11
515.289576
21
381.166599
31
0.0
0
LINE
8
VISIBLE
10
515.289576
20
381.166599
30
0.0
11
515.010046
21
378.808068
31
0.0
0
LINE
8
VISIBLE
10
570.145423
20
346.769128
30
0.0
11
572.955221
21
349.935916
31
0.0
0
LINE
8
VISIBLE
10
572.955221
20
349.935916
30
0.0
11
574.525146
21
353.168351
31
0.0
0
LINE
8
VISIBLE
10
574.525146
20
353.168351
30
0.0
11
574.989954
21
356.204965
31
0.0
0
LINE
8
VISIBLE
10
574.989954
20
356.204965
30
0.0
11
574.488032
21
359.359501
31
0.0
0
LINE
8
VISIBLE
10
574.488032
20
359.359501
30
0.0
11
572.967057
21
362.456392
31
0.0
0
LINE
8
VISIBLE
10
572.967057
20
362.456392
30
0.0
11
570.352801
21
365.453979
31
0.0
0
LINE
8
VISIBLE
10
570.352801
20
365.453979
30
0.0
11
566.558671
21
368.241313
31
0.0
0
LINE
8
VISIBLE
10
566.558671
20
368.241313
30
0.0
11
561.565635
21
370.638457
31
0.0
0
LINE
8
VISIBLE
10
561.565635
20
370.638457
30
0.0
11
555.492081
21
372.425462
31
0.0
0
LINE
8
VISIBLE
10
555.492081
20
372.425462
30
0.0
11
548.630993
21
373.392298
31
0.0
0
LINE
8
VISIBLE
10
548.630993
20
373.392298
30
0.0
11
541.434933
21
373.396897
31
0.0
0
LINE
8
VISIBLE
10
541.434933
20
373.396897
30
0.0
11
534.443535
21
372.411531
31
0.0
0
LINE
8
VISIBLE
10
534.443535
20
372.411531
30
0.0
11
528.173348
21
370.537458
31
0.0
0
LINE
8
VISIBLE
10
528.173348
20
370.537458
30
0.0
11
523.011367
21
367.979193
31
0.0
0
LINE
8
VISIBLE
10
523.011367
20
367.979193
30
0.0
11
519.154536
21
364.987700
31
0.0
0
LINE
8
VISIBLE
10
519.154536
20
364.987700
30
0.0
11
516.615942
21
361.794913
31
0.0
0
LINE
8
VISIBLE
10
516.615942
20
361.794913
30
0.0
11
515.289576
21
358.563497
31
0.0
0
LINE
8
VISIBLE
10
515.289576
20
358.563497
30
0.0
11
515.010046
21
356.204965
31
0.0
0
LINE
8
VISIBLE
10
515.010046
20
356.204965
30
0.0
11
515.511968
21
353.050430
31
0.0
0
LINE
8
VISIBLE
10
515.511968
20
353.050430
30
0.0
11
517.032943
21
349.953538
31
0.0
0
LINE
8
VISIBLE
10
517.032943
20
349.953538
30
0.0
11
519.854577
21
346.769128
31
0.0
0
LINE
8
VISIBLE
10
570.145423
20
356.204965
30
0.0
11
569.643772
21
359.090377
31
0.0
0
LINE
8
VISIBLE
10
569.643772
20
359.090377
30
0.0
11
568.121049
21
361.911960
31
0.0
0
LINE
8
VISIBLE
10
568.121049
20
361.911960
30
0.0
11
565.494132
21
364.616918
31
0.0
0
LINE
8
VISIBLE
10
565.494132
20
364.616918
30
0.0
11
561.679882
21
367.068878
31
0.0
0
LINE
8
VISIBLE
10
561.679882
20
367.068878
30
0.0
11
556.697143
21
369.056283
31
0.0
0
LINE
8
VISIBLE
10
556.697143
20
369.056283
30
0.0
11
550.746592
21
370.338483
31
0.0
0
LINE
8
VISIBLE
10
550.746592
20
370.338483
30
0.0
11
544.234945
21
370.715961
31
0.0
0
LINE
8
VISIBLE
10
544.234945
20
370.715961
30
0.0
11
537.720174
21
370.100965
31
0.0
0
LINE
8
VISIBLE
10
537.720174
20
370.100965
30
0.0
11
531.786561
21
368.556717
31
0.0
0
LINE
8
VISIBLE
10
531.786561
20
368.556717
30
0.0
11
526.899760
21
366.282557
31
0.0
0
LINE
8
VISIBLE
10
526.899760
20
366.282557
30
0.0
11
523.309387
21
363.549114
31
0.0
0
LINE
8
VISIBLE
10
523.309387
20
363.549114
30
0.0
11
521.041938
21
360.613425
31
0.0
0
LINE
8
VISIBLE
10
521.041938
20
360.613425
30
0.0
11
520.153191
21
358.435686
31
0.0
0
LINE
8
VISIBLE
10
520.153191
20
358.435686
30
0.0
11
519.854577
21
356.204965
31
0.0
0
LINE
8
VISIBLE
10
527.219501
20
334.637838
30
0.0
11
531.911353
21
332.507452
31
0.0
0
LINE
8
VISIBLE
10
531.911353
20
332.507452
30
0.0
11
536.043805
21
331.337785
31
0.0
0
LINE
8
VISIBLE
10
553.956195
20
331.337785
30
0.0
11
559.646031
21
333.102481
31
0.0
0
LINE
8
VISIBLE
10
559.646031
20
333.102481
30
0.0
11
564.198577
21
335.527791
31
0.0
0
LINE
8
VISIBLE
10
564.198577
20
335.527791
30
0.0
11
567.427600
21
338.338481
31
0.0
0
LINE
8
VISIBLE
10
567.427600
20
338.338481
30
0.0
11
569.355967
21
341.294205
31
0.0
0
LINE
8
VISIBLE
10
569.355967
20
341.294205
30
0.0
11
570.145423
21
344.903414
31
0.0
0
LINE
8
VISIBLE
10
570.145423
20
344.903414
30
0.0
11
569.643772
21
347.788825
31
0.0
0
LINE
8
VISIBLE
10
569.643772
20
347.788825
30
0.0
11
568.121049
21
350.610409
31
0.0
0
LINE
8
VISIBLE
10
568.121049
20
350.610409
30
0.0
11
565.494132
21
353.315367
31
0.0
0
LINE
8
VISIBLE
10
565.494132
20
353.315367
30
0.0
11
561.679882
21
355.767327
31
0.0
0
LINE
8
VISIBLE
10
561.679882
20
355.767327
30
0.0
11
556.697143
21
357.754732
31
0.0
0
LINE
8
VISIBLE
10
556.697143
20
357.754732
30
0.0
11
550.746592
21
359.036931
31
0.0
0
LINE
8
VISIBLE
10
550.746592
20
359.036931
30
0.0
11
544.234945
21
359.414409
31
0.0
0
LINE
8
VISIBLE
10
544.234945
20
359.414409
30
0.0
11
537.720174
21
358.799413
31
0.0
0
LINE
8
VISIBLE
10
537.720174
20
358.799413
30
0.0
11
531.786561
21
357.255165
31
0.0
0
LINE
8
VISIBLE
10
531.786561
20
357.255165
30
0.0
11
526.899760
21
354.981006
31
0.0
0
LINE
8
VISIBLE
10
526.899760
20
354.981006
30
0.0
11
523.309387
21
352.247563
31
0.0
0
LINE
8
VISIBLE
10
523.309387
20
352.247563
30
0.0
11
521.041938
21
349.311873
31
0.0
0
LINE
8
VISIBLE
10
521.041938
20
349.311873
30
0.0
11
520.153191
21
347.134134
31
0.0
0
LINE
8
VISIBLE
10
520.153191
20
347.134134
30
0.0
11
519.854577
21
344.903414
31
0.0
0
LINE
8
VISIBLE
10
519.854577
20
344.903414
30
0.0
11
520.356228
21
342.018002
31
0.0
0
LINE
8
VISIBLE
10
520.356228
20
342.018002
30
0.0
11
521.878951
21
339.196418
31
0.0
0
LINE
8
VISIBLE
10
521.878951
20
339.196418
30
0.0
11
524.505868
21
336.491461
31
0.0
0
LINE
8
VISIBLE
10
524.505868
20
336.491461
30
0.0
11
527.219501
21
334.637838
31
0.0
0
LINE
8
VISIBLE
10
562.103626
20
337.425554
30
0.0
11
564.762844
21
340.082654
31
0.0
0
LINE
8
VISIBLE
10
564.762844
20
340.082654
30
0.0
11
566.151134
21
342.828265
31
0.0
0
LINE
8
VISIBLE
10
566.151134
20
342.828265
30
0.0
11
566.454351
21
344.903414
31
0.0
0
LINE
8
VISIBLE
10
566.454351
20
344.903414
30
0.0
11
565.952988
21
347.565585
31
0.0
0
LINE
8
VISIBLE
10
565.952988
20
347.565585
30
0.0
11
564.428528
21
350.157665
31
0.0
0
LINE
8
VISIBLE
10
564.428528
20
350.157665
30
0.0
11
561.790014
21
352.614545
31
0.0
0
LINE
8
VISIBLE
10
561.790014
20
352.614545
30
0.0
11
557.963232
21
354.773297
31
0.0
0
LINE
8
VISIBLE
10
557.963232
20
354.773297
30
0.0
11
553.015890
21
356.393042
31
0.0
0
LINE
8
VISIBLE
10
553.015890
20
356.393042
30
0.0
11
547.242474
21
357.222241
31
0.0
0
LINE
8
VISIBLE
10
547.242474
20
357.222241
30
0.0
11
541.162354
21
357.090315
31
0.0
0
LINE
8
VISIBLE
10
541.162354
20
357.090315
30
0.0
11
535.410306
21
355.983831
31
0.0
0
LINE
8
VISIBLE
10
535.410306
20
355.983831
30
0.0
11
530.558037
21
354.063452
31
0.0
0
LINE
8
VISIBLE
10
530.558037
20
354.063452
30
0.0
11
526.958136
21
351.606158
31
0.0
0
LINE
8
VISIBLE
10
526.958136
20
351.606158
30
0.0
11
524.694279
21
348.902034
31
0.0
0
LINE
8
VISIBLE
10
524.694279
20
348.902034
30
0.0
11
523.834754
21
346.930033
31
0.0
0
LINE
8
VISIBLE
10
523.834754
20
346.930033
30
0.0
11
523.545649
21
344.903414
31
0.0
0
LINE
8
VISIBLE
10
523.545649
20
344.903414
30
0.0
11
524.047012
21
342.241242
31
0.0
0
LINE
8
VISIBLE
10
524.047012
20
342.241242
30
0.0
11
525.571472
21
339.649162
31
0.0
0
LINE
8
VISIBLE
10
525.571472
20
339.649162
30
0.0
11
527.896374
21
337.425554
31
0.0
0
LINE
8
VISIBLE
10
562.600814
20
346.287304
30
0.0
11
565.162462
21
349.136787
31
0.0
0
LINE
8
VISIBLE
10
524.837538
20
349.136787
30
0.0
11
527.399186
21
346.287304
31
0.0
0
LINE
8
VISIBLE
10
562.763280
20
344.903414
30
0.0
11
562.262325
21
347.321834
31
0.0
0
LINE
8
VISIBLE
10
562.262325
20
347.321834
30
0.0
11
560.735620
21
349.661718
31
0.0
0
LINE
8
VISIBLE
10
560.735620
20
349.661718
30
0.0
11
558.083808
21
351.839985
31
0.0
0
LINE
8
VISIBLE
10
558.083808
20
351.839985
30
0.0
11
554.253406
21
353.657624
31
0.0
0
LINE
8
VISIBLE
10
554.253406
20
353.657624
30
0.0
11
549.392758
21
354.840513
31
0.0
0
LINE
8
VISIBLE
10
549.392758
20
354.840513
30
0.0
11
543.931846
21
355.140490
31
0.0
0
LINE
8
VISIBLE
10
543.931846
20
355.140490
30
0.0
11
538.522251
21
354.452810
31
0.0
0
LINE
8
VISIBLE
10
538.522251
20
354.452810
30
0.0
11
533.838990
21
352.881843
31
0.0
0
LINE
8
VISIBLE
10
533.838990
20
352.881843
30
0.0
11
530.350758
21
350.703812
31
0.0
0
LINE
8
VISIBLE
10
530.350758
20
350.703812
30
0.0
11
528.205299
21
348.243681
31
0.0
0
LINE
8
VISIBLE
10
528.205299
20
348.243681
30
0.0
11
527.236720
21
344.903414
31
0.0
0
LINE
8
VISIBLE
10
532.439464
20
332.942605
30
0.0
11
536.447992
21
331.205602
31
0.0
0
LINE
8
VISIBLE
10
536.447992
20
331.205602
30
0.0
11
541.438318
21
330.147070
31
0.0
0
LINE
8
VISIBLE
10
541.438318
20
330.147070
30
0.0
11
546.937696
21
330.000000
31
0.0
0
LINE
8
VISIBLE
10
546.937696
20
330.000000
30
0.0
11
552.275228
21
330.838417
31
0.0
0
LINE
8
VISIBLE
10
552.275228
20
330.838417
30
0.0
11
556.794407
21
332.525751
31
0.0
0
LINE
8
VISIBLE
10
556.794407
20
332.525751
30
0.0
11
560.073775
21
334.768710
31
0.0
0
LINE
8
VISIBLE
10
560.073775
20
334.768710
30
0.0
11
562.014225
21
337.247668
31
0.0
0
LINE
8
VISIBLE
10
562.014225
20
337.247668
30
0.0
11
562.763280
21
340.194434
31
0.0
0
LINE
8
VISIBLE
10
562.763280
20
340.194434
30
0.0
11
562.262325
21
342.612854
31
0.0
0
LINE
8
VISIBLE
10
562.262325
20
342.612854
30
0.0
11
560.735620
21
344.952738
31
0.0
0
LINE
8
VISIBLE
10
560.735620
20
344.952738
30
0.0
11
558.083808
21
347.131006
31
0.0
0
LINE
8
VISIBLE
10
558.083808
20
347.131006
30
0.0
11
554.253406
21
348.948644
31
0.0
0
LINE
8
VISIBLE
10
554.253406
20
348.948644
30
0.0
11
549.392758
21
350.131533
31
0.0
0
LINE
8
VISIBLE
10
549.392758
20
350.131533
30
0.0
11
543.931846
21
350.431510
31
0.0
0
LINE
8
VISIBLE
10
543.931846
20
350.431510
30
0.0
11
538.522251
21
349.743830
31
0.0
0
LINE
8
VISIBLE
10
538.522251
20
349.743830
30
0.0
11
533.838990
21
348.172863
31
0.0
0
LINE
8
VISIBLE
10
533.838990
20
348.172863
30
0.0
11
530.350758
21
345.994832
31
0.0
0
LINE
8
VISIBLE
10
530.350758
20
345.994832
30
0.0
11
528.205299
21
343.534701
31
0.0
0
LINE
8
VISIBLE
10
528.205299
20
343.534701
30
0.0
11
527.236720
21
340.194434
31
0.0
0
LINE
8
VISIBLE
10
527.236720
20
340.194434
30
0.0
11
527.737675
21
337.776014
31
0.0
0
LINE
8
VISIBLE
10
527.737675
20
337.776014
30
0.0
11
529.264380
21
335.436130
31
0.0
0
LINE
8
VISIBLE
10
529.264380
20
335.436130
30
0.0
11
532.439464
21
332.942605
31
0.0
0
LINE
8
VISIBLE
10
515.010046
20
356.204965
30
0.0
11
515.010046
21
378.808068
31
0.0
0
LINE
8
VISIBLE
10
574.989954
20
356.204965
30
0.0
11
574.989954
21
378.808068
31
0.0
0
LINE
8
VISIBLE
10
519.854577
20
344.903414
30
0.0
11
519.854577
21
356.204965
31
0.0
0
LINE
8
VISIBLE
10
570.145423
20
344.903414
30
0.0
11
570.145423
21
356.204965
31
0.0
0
LINE
8
VISIBLE
10
527.236720
20
340.194434
30
0.0
11
527.236720
21
344.903414
31
0.0
0
LINE
8
VISIBLE
10
562.763280
20
340.194434
30
0.0
11
562.763280
21
344.903414
31
0.0
0
LINE
8
DIM
10
142.000000
20
130.800000
30
0.0
11
142.000000
21
109.000000
31
0.0
0
LINE
8
DIM
10
194.000000
20
130.800000
30
0.0
11
194.000000
21
109.000000
31
0.0
0
LINE
8
DIM
10
142.000000
20
111.000000
30
0.0
11
194.000000
21
111.000000
31
0.0
0
SOLID
8
DIM
10
142.000000
20
111.000000
30
0.0
11
145.200000
21
110.392000
31
0.0
12
145.200000
22
111.608000
32
0.0
13
145.200000
23
111.608000
33
0.0
0
SOLID
8
DIM
10
194.000000
20
111.000000
30
0.0
11
190.800000
21
111.608000
31
0.0
12
190.800000
22
110.392000
32
0.0
13
190.800000
23
110.392000
33
0.0
0
TEXT
8
TEXT
10
168.000000
20
112.000000
30
0.0
40
2.5000
1
26.00
72
1
73
0
11
168.000000
21
112.000000
31
0.0
0
LINE
8
DIM
10
140.800000
20
132.000000
30
0.0
11
119.000000
21
132.000000
31
0.0
0
LINE
8
DIM
10
140.800000
20
173.000000
30
0.0
11
119.000000
21
173.000000
31
0.0
0
LINE
8
DIM
10
121.000000
20
132.000000
30
0.0
11
121.000000
21
173.000000
31
0.0
0
SOLID
8
DIM
10
121.000000
20
132.000000
30
0.0
11
121.608000
21
135.200000
31
0.0
12
120.392000
22
135.200000
32
0.0
13
120.392000
23
135.200000
33
0.0
0
SOLID
8
DIM
10
121.000000
20
173.000000
30
0.0
11
120.392000
21
169.800000
31
0.0
12
121.608000
22
169.800000
32
0.0
13
121.608000
23
169.800000
33
0.0
0
TEXT
8
TEXT
10
120.000000
20
152.500000
30
0.0
40
2.5000
1
20.50
50
90.0000
72
1
73
0
11
120.000000
21
152.500000
31
0.0
0
TEXT
8
TEXT
10
168.000000
20
99.000000
30
0.0
40
4.0000
1
FRONT VIEW
72
1
73
0
11
168.000000
21
99.000000
31
0.0
0
LINE
8
TEXT
10
156.000000
20
97.400000
30
0.0
11
180.000000
21
97.400000
31
0.0
0
TEXT
8
TEXT
10
168.000000
20
93.000000
30
0.0
40
2.4000
1
-X →   Z ↑
72
1
73
0
11
168.000000
21
93.000000
31
0.0
0
LINE
8
CENTER
10
147.800000
20
262.000000
30
0.0
11
166.800000
21
262.000000
31
0.0
0
LINE
8
CENTER
10
169.200000
20
262.000000
30
0.0
11
188.200000
21
262.000000
31
0.0
0
LINE
8
CENTER
10
168.000000
20
241.800000
30
0.0
11
168.000000
21
260.800000
31
0.0
0
LINE
8
CENTER
10
168.000000
20
263.200000
30
0.0
11
168.000000
21
282.200000
31
0.0
0
LINE
8
DIM
10
142.000000
20
234.800000
30
0.0
11
142.000000
21
222.000000
31
0.0
0
LINE
8
DIM
10
194.000000
20
234.800000
30
0.0
11
194.000000
21
222.000000
31
0.0
0
LINE
8
DIM
10
142.000000
20
224.000000
30
0.0
11
194.000000
21
224.000000
31
0.0
0
SOLID
8
DIM
10
142.000000
20
224.000000
30
0.0
11
145.200000
21
223.392000
31
0.0
12
145.200000
22
224.608000
32
0.0
13
145.200000
23
224.608000
33
0.0
0
SOLID
8
DIM
10
194.000000
20
224.000000
30
0.0
11
190.800000
21
224.608000
31
0.0
12
190.800000
22
223.392000
32
0.0
13
190.800000
23
223.392000
33
0.0
0
TEXT
8
TEXT
10
168.000000
20
225.000000
30
0.0
40
2.5000
1
26.00
72
1
73
0
11
168.000000
21
225.000000
31
0.0
0
LINE
8
DIM
10
140.800000
20
236.000000
30
0.0
11
128.000000
21
236.000000
31
0.0
0
LINE
8
DIM
10
140.800000
20
288.000000
30
0.0
11
128.000000
21
288.000000
31
0.0
0
LINE
8
DIM
10
130.000000
20
236.000000
30
0.0
11
130.000000
21
288.000000
31
0.0
0
SOLID
8
DIM
10
130.000000
20
236.000000
30
0.0
11
130.608000
21
239.200000
31
0.0
12
129.392000
22
239.200000
32
0.0
13
129.392000
23
239.200000
33
0.0
0
SOLID
8
DIM
10
130.000000
20
288.000000
30
0.0
11
129.392000
21
284.800000
31
0.0
12
130.608000
22
284.800000
32
0.0
13
130.608000
23
284.800000
33
0.0
0
TEXT
8
TEXT
10
129.000000
20
262.000000
30
0.0
40
2.5000
1
26.00
50
90.0000
72
1
73
0
11
129.000000
21
262.000000
31
0.0
0
SOLID
8
DIM
10
179.451303
20
276.657000
30
0.0
11
181.900531
21
278.804312
31
0.0
12
180.942310
22
279.552957
32
0.0
13
180.942310
23
279.552957
33
0.0
0
LINE
8
DIM
10
179.451303
20
276.657000
30
0.0
11
193.782426
21
295.000000
31
0.0
0
LINE
8
DIM
10
193.782426
20
295.000000
30
0.0
11
198.782426
21
295.000000
31
0.0
0
TEXT
8
TEXT
10
199.582426
20
296.000000
30
0.0
40
2.5000
1
Ø18.60 x 4.50 DP
0
SOLID
8
DIM
10
142.000000
20
262.000000
30
0.0
11
140.408835
21
264.842157
31
0.0
12
139.477325
22
264.060527
32
0.0
13
139.477325
23
264.060527
33
0.0
0
LINE
8
DIM
10
142.000000
20
262.000000
30
0.0
11
135.572124
21
269.660444
31
0.0
0
LINE
8
DIM
10
135.572124
20
269.660444
30
0.0
11
132.572124
21
269.660444
31
0.0
0
TEXT
8
TEXT
10
131.772124
20
270.660444
30
0.0
40
2.5000
1
R13.00
72
2
73
0
11
131.772124
21
270.660444
31
0.0
0
SOLID
8
DIM
10
146.200000
20
262.000000
30
0.0
11
145.045563
21
258.954193
31
0.0
12
146.243089
22
258.743037
32
0.0
13
146.243089
23
258.743037
33
0.0
0
LINE
8
DIM
10
146.200000
20
262.000000
30
0.0
11
144.463518
21
252.151922
31
0.0
0
LINE
8
DIM
10
144.463518
20
252.151922
30
0.0
11
141.463518
21
252.151922
31
0.0
0
TEXT
8
TEXT
10
140.663518
20
253.151922
30
0.0
40
2.5000
1
R10.90
72
2
73
0
11
140.663518
21
253.151922
31
0.0
0
SOLID
8
DIM
10
149.400000
20
262.000000
30
0.0
11
149.443089
21
265.256963
31
0.0
12
148.245563
22
265.045807
32
0.0
13
148.245563
23
265.045807
33
0.0
0
LINE
8
DIM
10
149.400000
20
262.000000
30
0.0
11
147.663518
21
271.848078
31
0.0
0
LINE
8
DIM
10
147.663518
20
271.848078
30
0.0
11
144.663518
21
271.848078
31
0.0
0
TEXT
8
TEXT
10
143.863518
20
272.848078
30
0.0
40
2.5000
1
R9.30
72
2
73
0
11
143.863518
21
272.848078
31
0.0
0
SOLID
8
DIM
10
152.600000
20
262.000000
30
0.0
11
151.445563
21
258.954193
31
0.0
12
152.643089
22
258.743037
32
0.0
13
152.643089
23
258.743037
33
0.0
0
LINE
8
DIM
10
152.600000
20
262.000000
30
0.0
11
149.995277
21
247.227884
31
0.0
0
LINE
8
DIM
10
149.995277
20
247.227884
30
0.0
11
146.995277
21
247.227884
31
0.0
0
TEXT
8
TEXT
10
146.195277
20
248.227884
30
0.0
40
2.5000
1
R7.70
72
2
73
0
11
146.195277
21
248.227884
31
0.0
0
TEXT
8
TEXT
10
168.000000
20
212.000000
30
0.0
40
4.0000
1
TOP VIEW
72
1
73
0
11
168.000000
21
212.000000
31
0.0
0
LINE
8
TEXT
10
158.400000
20
210.400000
30
0.0
11
177.600000
21
210.400000
31
0.0
0
TEXT
8
TEXT
10
168.000000
20
206.000000
30
0.0
40
2.4000
1
X →   Y ↑
72
1
73
0
11
168.000000
21
206.000000
31
0.0
0
LINE
8
DIM
10
232.000000
20
130.800000
30
0.0
11
232.000000
21
118.000000
31
0.0
0
LINE
8
DIM
10
284.000000
20
130.800000
30
0.0
11
284.000000
21
118.000000
31
0.0
0
LINE
8
DIM
10
232.000000
20
120.000000
30
0.0
11
284.000000
21
120.000000
31
0.0
0
SOLID
8
DIM
10
232.000000
20
120.000000
30
0.0
11
235.200000
21
119.392000
31
0.0
12
235.200000
22
120.608000
32
0.0
13
235.200000
23
120.608000
33
0.0
0
SOLID
8
DIM
10
284.000000
20
120.000000
30
0.0
11
280.800000
21
120.608000
31
0.0
12
280.800000
22
119.392000
32
0.0
13
280.800000
23
119.392000
33
0.0
0
TEXT
8
TEXT
10
258.000000
20
121.000000
30
0.0
40
2.5000
1
26.00
72
1
73
0
11
258.000000
21
121.000000
31
0.0
0
LINE
8
DIM
10
230.800000
20
132.000000
30
0.0
11
218.000000
21
132.000000
31
0.0
0
LINE
8
DIM
10
230.800000
20
173.000000
30
0.0
11
218.000000
21
173.000000
31
0.0
0
LINE
8
DIM
10
220.000000
20
132.000000
30
0.0
11
220.000000
21
173.000000
31
0.0
0
SOLID
8
DIM
10
220.000000
20
132.000000
30
0.0
11
220.608000
21
135.200000
31
0.0
12
219.392000
22
135.200000
32
0.0
13
219.392000
23
135.200000
33
0.0
0
SOLID
8
DIM
10
220.000000
20
173.000000
30
0.0
11
219.392000
21
169.800000
31
0.0
12
220.608000
22
169.800000
32
0.0
13
220.608000
23
169.800000
33
0.0
0
TEXT
8
TEXT
10
219.000000
20
152.500000
30
0.0
40
2.5000
1
20.50
50
90.0000
72
1
73
0
11
219.000000
21
152.500000
31
0.0
0
TEXT
8
TEXT
10
258.000000
20
108.000000
30
0.0
40
4.0000
1
RIGHT VIEW
72
1
73
0
11
258.000000
21
108.000000
31
0.0
0
LINE
8
TEXT
10
246.000000
20
106.400000
30
0.0
11
270.000000
21
106.400000
31
0.0
0
TEXT
8
TEXT
10
258.000000
20
102.000000
30
0.0
40
2.4000
1
-Y →   Z ↑
72
1
73
0
11
258.000000
21
102.000000
31
0.0
0
LINE
8
DIM
10
322.000000
20
130.800000
30
0.0
11
322.000000
21
118.000000
31
0.0
0
LINE
8
DIM
10
374.000000
20
130.800000
30
0.0
11
374.000000
21
118.000000
31
0.0
0
LINE
8
DIM
10
322.000000
20
120.000000
30
0.0
11
374.000000
21
120.000000
31
0.0
0
SOLID
8
DIM
10
322.000000
20
120.000000
30
0.0
11
325.200000
21
119.392000
31
0.0
12
325.200000
22
120.608000
32
0.0
13
325.200000
23
120.608000
33
0.0
0
SOLID
8
DIM
10
374.000000
20
120.000000
30
0.0
11
370.800000
21
120.608000
31
0.0
12
370.800000
22
119.392000
32
0.0
13
370.800000
23
119.392000
33
0.0
0
TEXT
8
TEXT
10
348.000000
20
121.000000
30
0.0
40
2.5000
1
26.00
72
1
73
0
11
348.000000
21
121.000000
31
0.0
0
LINE
8
DIM
10
320.800000
20
132.000000
30
0.0
11
308.000000
21
132.000000
31
0.0
0
LINE
8
DIM
10
320.800000
20
173.000000
30
0.0
11
308.000000
21
173.000000
31
0.0
0
LINE
8
DIM
10
310.000000
20
132.000000
30
0.0
11
310.000000
21
173.000000
31
0.0
0
SOLID
8
DIM
10
310.000000
20
132.000000
30
0.0
11
310.608000
21
135.200000
31
0.0
12
309.392000
22
135.200000
32
0.0
13
309.392000
23
135.200000
33
0.0
0
SOLID
8
DIM
10
310.000000
20
173.000000
30
0.0
11
309.392000
21
169.800000
31
0.0
12
310.608000
22
169.800000
32
0.0
13
310.608000
23
169.800000
33
0.0
0
TEXT
8
TEXT
10
309.000000
20
152.500000
30
0.0
40
2.5000
1
20.50
50
90.0000
72
1
73
0
11
309.000000
21
152.500000
31
0.0
0
LINE
8
HATCH
10
369.799997
20
137.000000
30
0.0
11
369.800000
21
137.000003
31
0.0
0
LINE
8
HATCH
10
366.600000
20
138.042644
30
0.0
11
369.800000
21
141.242644
31
0.0
0
LINE
8
HATCH
10
366.600000
20
142.285284
30
0.0
11
369.800000
21
145.485284
31
0.0
0
LINE
8
HATCH
10
373.314716
20
149.000000
30
0.0
11
374.000000
21
149.685284
31
0.0
0
LINE
8
HATCH
10
366.062075
20
145.990000
30
0.0
11
374.000000
21
153.927925
31
0.0
0
LINE
8
HATCH
10
361.819434
20
145.990000
30
0.0
11
374.000000
21
158.170566
31
0.0
0
LINE
8
HATCH
10
357.576794
20
145.990000
30
0.0
11
374.000000
21
162.413206
31
0.0
0
LINE
8
HATCH
10
353.334153
20
145.990000
30
0.0
11
374.000000
21
166.655847
31
0.0
0
LINE
8
HATCH
10
349.091512
20
145.990000
30
0.0
11
374.000000
21
170.898488
31
0.0
0
LINE
8
HATCH
10
344.848872
20
145.990000
30
0.0
11
371.858872
21
173.000000
31
0.0
0
LINE
8
HATCH
10
340.606231
20
145.990000
30
0.0
11
367.616231
21
173.000000
31
0.0
0
LINE
8
HATCH
10
327.373590
20
137.000000
30
0.0
11
329.400000
21
139.026410
31
0.0
0
LINE
8
HATCH
10
336.363590
20
145.990000
30
0.0
11
363.373590
21
173.000000
31
0.0
0
LINE
8
HATCH
10
326.200000
20
140.069050
30
0.0
11
329.400000
21
143.269050
31
0.0
0
LINE
8
HATCH
10
332.120950
20
145.990000
30
0.0
11
359.130950
21
173.000000
31
0.0
0
LINE
8
HATCH
10
326.200000
20
144.311691
30
0.0
11
354.888309
21
173.000000
31
0.0
0
LINE
8
HATCH
10
326.200000
20
148.554332
30
0.0
11
350.645668
21
173.000000
31
0.0
0
LINE
8
HATCH
10
322.403028
20
149.000000
30
0.0
11
346.403028
21
173.000000
31
0.0
0
LINE
8
HATCH
10
322.000000
20
152.839613
30
0.0
11
342.160387
21
173.000000
31
0.0
0
LINE
8
HATCH
10
322.000000
20
157.082254
30
0.0
11
337.917746
21
173.000000
31
0.0
0
LINE
8
HATCH
10
322.000000
20
161.324895
30
0.0
11
333.675105
21
173.000000
31
0.0
0
LINE
8
HATCH
10
322.000000
20
165.567535
30
0.0
11
329.432465
21
173.000000
31
0.0
0
LINE
8
HATCH
10
322.000000
20
169.810176
30
0.0
11
325.189824
21
173.000000
31
0.0
0
LINE
8
HATCH
10
363.399997
20
132.000000
30
0.0
11
363.400000
21
132.000003
31
0.0
0
LINE
8
HATCH
10
359.157356
20
132.000000
30
0.0
11
363.400000
21
136.242644
31
0.0
0
LINE
8
HATCH
10
354.914716
20
132.000000
30
0.0
11
359.914716
21
137.000000
31
0.0
0
LINE
8
HATCH
10
350.672075
20
132.000000
30
0.0
11
355.672075
21
137.000000
31
0.0
0
LINE
8
HATCH
10
346.429434
20
132.000000
30
0.0
11
351.429434
21
137.000000
31
0.0
0
LINE
8
HATCH
10
342.186794
20
132.000000
30
0.0
11
347.186794
21
137.000000
31
0.0
0
LINE
8
HATCH
10
337.944153
20
132.000000
30
0.0
11
342.944153
21
137.000000
31
0.0
0
LINE
8
HATCH
10
333.701512
20
132.000000
30
0.0
11
338.701512
21
137.000000
31
0.0
0
LINE
8
HATCH
10
332.600000
20
135.141128
30
0.0
11
334.458872
21
137.000000
31
0.0
0
LINE
8
DIM
10
326.200000
20
138.666668
30
0.0
11
326.200000
21
182.000000
31
0.0
0
LINE
8
DIM
10
329.400000
20
138.666668
30
0.0
11
329.400000
21
182.000000
31
0.0
0
LINE
8
DIM
10
326.200000
20
180.000000
30
0.0
11
329.400000
21
180.000000
31
0.0
0
SOLID
8
DIM
10
326.200000
20
180.000000
30
0.0
11
323.000000
21
180.608000
31
0.0
12
323.000000
22
179.392000
32
0.0
13
323.000000
23
179.392000
33
0.0
0
SOLID
8
DIM
10
329.400000
20
180.000000
30
0.0
11
332.600000
21
179.392000
31
0.0
12
332.600000
22
180.608000
32
0.0
13
332.600000
23
180.608000
33
0.0
0
LINE
8
DIM
10
329.400000
20
180.000000
30
0.0
11
339.000000
21
180.000000
31
0.0
0
TEXT
8
TEXT
10
339.800000
20
180.400000
30
0.0
40
2.5000
1
1.60 WALL
0
LINE
8
DIM
10
364.149999
20
132.000000
30
0.0
11
385.000000
21
132.000000
31
0.0
0
LINE
8
DIM
10
364.149999
20
137.000000
30
0.0
11
385.000000
21
137.000000
31
0.0
0
LINE
8
DIM
10
383.000000
20
132.000000
30
0.0
11
383.000000
21
137.000000
31
0.0
0
SOLID
8
DIM
10
383.000000
20
132.000000
30
0.0
11
382.392000
21
128.800000
31
0.0
12
383.608000
22
128.800000
32
0.0
13
383.608000
23
128.800000
33
0.0
0
SOLID
8
DIM
10
383.000000
20
137.000000
30
0.0
11
383.608000
21
140.200000
31
0.0
12
382.392000
22
140.200000
32
0.0
13
382.392000
23
140.200000
33
0.0
0
LINE
8
DIM
10
383.000000
20
137.000000
30
0.0
11
383.000000
21
146.600000
31
0.0
0
TEXT
8
TEXT
10
382.000000
20
147.400000
30
0.0
40
2.5000
1
2.50 WALL
50
90.0000
0
TEXT
8
TEXT
10
348.000000
20
108.000000
30
0.0
40
4.0000
1
SECTION A-A
72
1
73
0
11
348.000000
21
108.000000
31
0.0
0
LINE
8
TEXT
10
334.800000
20
106.400000
30
0.0
11
361.200000
21
106.400000
31
0.0
0
TEXT
8
TEXT
10
545.000000
20
324.000000
30
0.0
40
4.0000
1
ISOMETRIC VIEW
72
1
73
0
11
545.000000
21
324.000000
31
0.0
0
LINE
8
TEXT
10
528.200000
20
322.400000
30
0.0
11
561.800000
21
322.400000
31
0.0
0
TEXT
8
TEXT
10
545.000000
20
318.000000
30
0.0
40
2.6000
1
26.00 x 26.00 x 20.50 mm
72
1
73
0
11
545.000000
21
318.000000
31
0.0
0
LINE
8
CUT
10
168.000000
20
123.000000
30
0.0
11
168.000000
21
137.000000
31
0.0
0
LINE
8
CUTTHIN
10
168.000000
20
137.000000
30
0.0
11
168.000000
21
168.000000
31
0.0
0
LINE
8
CUT
10
168.000000
20
168.000000
30
0.0
11
168.000000
21
182.000000
31
0.0
0
LINE
8
CUT
10
168.000000
20
123.000000
30
0.0
11
177.000000
21
123.000000
31
0.0
0
SOLID
8
CUT
10
177.000000
20
123.000000
30
0.0
11
172.800000
21
123.798000
31
0.0
12
172.800000
22
122.202000
32
0.0
13
172.800000
23
122.202000
33
0.0
0
TEXT
8
TEXT
10
163.000000
20
123.000000
30
0.0
40
4.0000
1
A
72
1
73
2
11
163.000000
21
123.000000
31
0.0
0
LINE
8
CUT
10
168.000000
20
182.000000
30
0.0
11
177.000000
21
182.000000
31
0.0
0
SOLID
8
CUT
10
177.000000
20
182.000000
30
0.0
11
172.800000
21
182.798000
31
0.0
12
172.800000
22
181.202000
32
0.0
13
172.800000
23
181.202000
33
0.0
0
TEXT
8
TEXT
10
163.000000
20
182.000000
30
0.0
40
4.0000
1
A
72
1
73
2
11
163.000000
21
182.000000
31
0.0
0
TEXT
8
TEXT
10
508.000000
20
304.000000
30
0.0
40
3.0000
1
NOTES
0
TEXT
8
TEXT
10
508.000000
20
299.400000
30
0.0
40
2.4000
1
1. ALL DIMENSIONS IN mm AND DEGREES. EVERY
0
TEXT
8
TEXT
10
508.000000
20
295.680000
30
0.0
40
2.4000
1
   DIMENSION AND EVERY HOLE CALLOUT WAS MEASURED
0
TEXT
8
TEXT
10
508.000000
20
291.960000
30
0.0
40
2.4000
1
   OFF THE SOLID.
0
TEXT
8
TEXT
10
508.000000
20
288.240000
30
0.0
40
2.4000
1
2. THINNEST WALL, WHOLE SOLID (RAY MINIMUM):
0
TEXT
8
TEXT
10
508.000000
20
284.520000
30
0.0
40
2.4000
1
   1.6000 mm, AT X=-0.905 Y=10.861 Z=3.000 —
0
TEXT
8
TEXT
10
508.000000
20
280.800000
30
0.0
40
2.4000
1
   MEASURED OVER THE WHOLE SOLID BY RAY+EXACT AT
0
TEXT
8
TEXT
10
508.000000
20
277.080000
30
0.0
40
2.4000
1
   0.7310 mm SAMPLE SPACING (A FEATURE NARROWER
0
TEXT
8
TEXT
10
508.000000
20
273.360000
30
0.0
40
2.4000
1
   THAN THAT CAN BE MISSED). THIS IS A DISTANCE
0
TEXT
8
TEXT
10
508.000000
20
269.640000
30
0.0
40
2.4000
1
   THROUGH MATERIAL, NOT A WALL: AT AN EDGE, A
0
TEXT
8
TEXT
10
508.000000
20
265.920000
30
0.0
40
2.4000
1
   FILLET RUN-OUT OR A CHAMFER TIP IT IS REAL AND
0
TEXT
8
TEXT
10
508.000000
20
262.200000
30
0.0
40
2.4000
1
   UNPRINTABLE BY DEFINITION. DO NOT JUDGE
0
TEXT
8
TEXT
10
508.000000
20
258.480000
30
0.0
40
2.4000
1
   PRINTABILITY BY IT — THE NEXT NOTE IS THE ONE
0
TEXT
8
TEXT
10
508.000000
20
254.760000
30
0.0
40
2.4000
1
   THAT DOES.
0
TEXT
8
TEXT
10
508.000000
20
251.040000
30
0.0
40
2.4000
1
3. PRINTABLE MINIMUM WALL: 1.5995 mm, AT X=9.290
0
TEXT
8
TEXT
10
508.000000
20
247.320000
30
0.0
40
2.4000
1
   Y=-0.386 Z=2.248 — MEASURED AS THE SMALLEST
0
TEXT
8
TEXT
10
508.000000
20
243.600000
30
0.0
40
2.4000
1
   MEDIAN WALL OVER A NEIGHBOURHOOD OF 2.1940 mm
0
TEXT
8
TEXT
10
508.000000
20
239.880000
30
0.0
40
2.4000
1
   (>= 8 SAMPLES), RAYS CAPPED AT 4.000 mm, BY
0
TEXT
8
TEXT
10
508.000000
20
236.160000
30
0.0
40
2.4000
1
   cecad.inspect.printable_wall_detail. AGAINST
0
TEXT
8
TEXT
10
508.000000
20
232.440000
30
0.0
40
2.4000
1
   THE 0.8000 mm FLOOR (2 PERIMETERS @ 0.4 mm
0
TEXT
8
TEXT
10
508.000000
20
228.720000
30
0.0
40
2.4000
1
   NOZZLE, cecad/printed.py:801): VERDICT PASS
0
TEXT
8
TEXT
10
508.000000
20
225.000000
30
0.0
40
2.4000
1
4. GENERAL TOLERANCE: CANNOT DETERMINE — THIS PART
0
TEXT
8
TEXT
10
508.000000
20
221.280000
30
0.0
40
2.4000
1
   DECLARES NO PROCESS THIS REPO CAN READ.
0
TEXT
8
TEXT
10
508.000000
20
217.560000
30
0.0
40
2.4000
1
5. SECTION A-A AT X=0.00: THINNEST MATERIAL IN
0
TEXT
8
TEXT
10
508.000000
20
213.840000
30
0.0
40
2.4000
1
   THIS PLANE ONLY 1.60 mm, AT Y=-10.10, Z=0.23 —
0
TEXT
8
TEXT
10
508.000000
20
210.120000
30
0.0
40
2.4000
1
   A SCAN OF ONE CUT, NOT THE PART MINIMUM.
0
TEXT
8
TEXT
10
508.000000
20
206.400000
30
0.0
40
2.4000
1
6. FRONT VIEW: hidden lines SUPPRESSED: all 50
0
TEXT
8
TEXT
10
508.000000
20
202.680000
30
0.0
40
2.4000
1
   edge samples still land on drawn ink without
0
TEXT
8
TEXT
10
508.000000
20
198.960000
30
0.0
40
2.4000
1
   them.
0
TEXT
8
TEXT
10
508.000000
20
195.240000
30
0.0
40
2.4000
1
7. TOP VIEW: hidden lines SUPPRESSED: all 60 edge
0
TEXT
8
TEXT
10
508.000000
20
191.520000
30
0.0
40
2.4000
1
   samples still land on drawn ink without them.
0
TEXT
8
TEXT
10
508.000000
20
187.800000
30
0.0
40
2.4000
1
8. RIGHT VIEW: hidden lines SUPPRESSED: all 56
0
TEXT
8
TEXT
10
508.000000
20
184.080000
30
0.0
40
2.4000
1
   edge samples still land on drawn ink without
0
TEXT
8
TEXT
10
508.000000
20
180.360000
30
0.0
40
2.4000
1
   them.
0
TEXT
8
TEXT
10
508.000000
20
172.640000
30
0.0
40
3.0000
1
PRINT / DFM
0
TEXT
8
TEXT
10
508.000000
20
168.040000
30
0.0
40
2.4000
1
1. ORIENTATION: laid flat (26 x 26 x 20 mm)
0
TEXT
8
TEXT
10
508.000000
20
164.320000
30
0.0
40
2.4000
1
2. THINNEST WALL, WHOLE SOLID (RAY MINIMUM):
0
TEXT
8
TEXT
10
508.000000
20
160.600000
30
0.0
40
2.4000
1
   1.6000 mm — a distance through material, NOT a
0
TEXT
8
TEXT
10
508.000000
20
156.880000
30
0.0
40
2.4000
1
   printable wall where it falls on an edge, a
0
TEXT
8
TEXT
10
508.000000
20
153.160000
30
0.0
40
2.4000
1
   fillet run-out or a chamfer tip. Printability
0
TEXT
8
TEXT
10
508.000000
20
149.440000
30
0.0
40
2.4000
1
   is judged on the next line.
0
TEXT
8
TEXT
10
508.000000
20
145.720000
30
0.0
40
2.4000
1
3. PRINTABLE MINIMUM WALL: 1.5995 mm (smallest
0
TEXT
8
TEXT
10
508.000000
20
142.000000
30
0.0
40
2.4000
1
   median wall over a 2.1940 mm neighbourhood,
0
TEXT
8
TEXT
10
508.000000
20
138.280000
30
0.0
40
2.4000
1
   cecad.inspect.printable_wall_detail) against a
0
TEXT
8
TEXT
10
508.000000
20
134.560000
30
0.0
40
2.4000
1
   0.8000 mm floor (2 perimeters @ 0.4 mm nozzle):
0
TEXT
8
TEXT
10
508.000000
20
130.840000
30
0.0
40
2.4000
1
   VERDICT PASS
0
TEXT
8
TEXT
10
508.000000
20
127.120000
30
0.0
40
2.4000
1
4. FILAMENT: PLA, ~4 g (modelled), 103 layers @
0
TEXT
8
TEXT
10
508.000000
20
123.400000
30
0.0
40
2.4000
1
   0.2 mm
0
LINE
8
FRAME
10
398.000000
20
10.000000
30
0.0
11
584.000000
21
10.000000
31
0.0
0
LINE
8
FRAME
10
584.000000
20
10.000000
30
0.0
11
584.000000
21
66.000000
31
0.0
0
LINE
8
FRAME
10
584.000000
20
66.000000
30
0.0
11
398.000000
21
66.000000
31
0.0
0
LINE
8
FRAME
10
398.000000
20
66.000000
30
0.0
11
398.000000
21
10.000000
31
0.0
0
LINE
8
TITLE
10
398.000000
20
53.000000
30
0.0
11
584.000000
21
53.000000
31
0.0
0
LINE
8
TITLE
10
398.000000
20
19.000000
30
0.0
11
584.000000
21
19.000000
31
0.0
0
LINE
8
TITLE
10
398.000000
20
27.500000
30
0.0
11
584.000000
21
27.500000
31
0.0
0
LINE
8
TITLE
10
398.000000
20
36.000000
30
0.0
11
584.000000
21
36.000000
31
0.0
0
LINE
8
TITLE
10
398.000000
20
44.500000
30
0.0
11
584.000000
21
44.500000
31
0.0
0
TEXT
8
TEXT
10
400.500000
20
59.500000
30
0.0
40
6.0000
1
MICRODUCK-JIG-PRESS-22-OUTER
72
0
73
2
11
400.500000
21
59.500000
31
0.0
0
LINE
8
TITLE
10
564.000000
20
53.000000
30
0.0
11
564.000000
21
66.000000
31
0.0
0
TEXT
8
TITLE
10
574.000000
20
63.600000
30
0.0
40
1.7000
1
REV
72
1
73
0
11
574.000000
21
63.600000
31
0.0
0
TEXT
8
TEXT
10
574.000000
20
55.000000
30
0.0
40
5.2000
1
A
72
1
73
0
11
574.000000
21
55.000000
31
0.0
0
LINE
8
TITLE
10
534.000000
20
53.000000
30
0.0
11
534.000000
21
66.000000
31
0.0
0
CIRCLE
8
TITLE
10
540.500000
20
59.500000
30
0.0
40
3.500000
0
CIRCLE
8
TITLE
10
540.500000
20
59.500000
30
0.0
40
1.960000
0
LINE
8
TITLE
10
550.300000
20
56.000000
30
0.0
11
550.300000
21
63.000000
31
0.0
0
LINE
8
TITLE
10
550.300000
20
63.000000
30
0.0
11
556.250000
21
61.460000
31
0.0
0
LINE
8
TITLE
10
556.250000
20
61.460000
30
0.0
11
556.250000
21
57.540000
31
0.0
0
LINE
8
TITLE
10
556.250000
20
57.540000
30
0.0
11
550.300000
21
56.000000
31
0.0
0
LINE
8
CENTER
10
535.500000
20
59.500000
30
0.0
11
557.750000
21
59.500000
31
0.0
0
LINE
8
TITLE
10
462.000000
20
19.000000
30
0.0
11
462.000000
21
53.000000
31
0.0
0
LINE
8
TITLE
10
526.000000
20
19.000000
30
0.0
11
526.000000
21
53.000000
31
0.0
0
TEXT
8
TITLE
10
399.600000
20
50.600000
30
0.0
40
1.7000
1
MATERIAL
0
TEXT
8
TEXT
10
399.600000
20
45.900000
30
0.0
40
2.5000
1
PLA
0
TEXT
8
TITLE
10
463.600000
20
50.600000
30
0.0
40
1.7000
1
PROCESS
0
TEXT
8
TEXT
10
463.600000
20
45.900000
30
0.0
40
2.5000
1
-
0
TEXT
8
TITLE
10
527.600000
20
50.600000
30
0.0
40
1.7000
1
SCALE
0
TEXT
8
TEXT
10
527.600000
20
45.900000
30
0.0
40
2.5000
1
2:1
0
TEXT
8
TITLE
10
399.600000
20
42.100000
30
0.0
40
1.7000
1
CATEGORY
0
TEXT
8
TEXT
10
399.600000
20
37.400000
30
0.0
40
2.5000
1
-
0
TEXT
8
TITLE
10
431.600000
20
42.100000
30
0.0
40
1.7000
1
GENERAL TOL
0
TEXT
8
TEXT
10
431.600000
20
37.400000
30
0.0
40
2.5000
1
SEE NOTES
0
LINE
8
TITLE
10
430.000000
20
36.000000
30
0.0
11
430.000000
21
44.500000
31
0.0
0
TEXT
8
TITLE
10
463.600000
20
42.100000
30
0.0
40
1.7000
1
FINISH
0
TEXT
8
TEXT
10
463.600000
20
37.400000
30
0.0
40
2.5000
1
AS PRINTED
0
TEXT
8
TITLE
10
527.600000
20
42.100000
30
0.0
40
1.7000
1
SHEET
0
TEXT
8
TEXT
10
527.600000
20
37.400000
30
0.0
40
2.5000
1
A2  1/1
0
TEXT
8
TITLE
10
399.600000
20
33.600000
30
0.0
40
1.7000
1
VOLUME (MEASURED)
0
TEXT
8
TEXT
10
399.600000
20
28.900000
30
0.0
40
2.5000
1
7.85 cm3
0
TEXT
8
TITLE
10
463.600000
20
33.600000
30
0.0
40
1.7000
1
MASS (ASSUMES PLA)
0
TEXT
8
TEXT
10
463.600000
20
28.900000
30
0.0
40
2.5000
1
9.7 g
0
TEXT
8
TITLE
10
527.600000
20
33.600000
30
0.0
40
1.7000
1
UNITS
0
TEXT
8
TEXT
10
527.600000
20
28.900000
30
0.0
40
2.5000
1
mm / deg
0
TEXT
8
TITLE
10
399.600000
20
25.100000
30
0.0
40
1.7000
1
SIZE (BBOX, MEASURED)
0
TEXT
8
TEXT
10
399.600000
20
20.400000
30
0.0
40
2.5000
1
26.00 x 26.00 x 20.50
0
TEXT
8
TITLE
10
463.600000
20
25.100000
30
0.0
40
1.7000
1
DRAWN
0
TEXT
8
TEXT
10
463.600000
20
20.400000
30
0.0
40
2.5000
1
ce-cad  2026-09-03
0
TEXT
8
TITLE
10
527.600000
20
25.100000
30
0.0
40
1.7000
1
PROJECTION
0
TEXT
8
TEXT
10
527.600000
20
20.400000
30
0.0
40
2.5000
1
THIRD ANGLE
0
TEXT
8
TITLE
10
399.600000
20
16.600000
30
0.0
40
1.7000
1
SOURCE (DESIGN FILE)
0
TEXT
8
TEXT
10
399.600000
20
11.400000
30
0.0
40
2.6000
1
tools/jigs.py
0
TEXT
8
TEXT
10
12.500000
20
403.500000
30
0.0
40
4.2000
1
microduck-jig-press-22-outer   SCALE 2:1   A2   THIRD ANGLE
0
ENDSEC
0
EOF
