0
SECTION
2
HEADER
9
$ACADVER
1
AC1009
9
$INSUNITS
70
4
9
$LTSCALE
40
1.0
9
$EXTMIN
10
0.0000
20
0.0000
30
0.0
9
$EXTMAX
10
420.0000
20
297.0000
30
0.0
0
ENDSEC
0
SECTION
2
TABLES
0
TABLE
2
LTYPE
70
4
0
LTYPE
2
CONTINUOUS
70
0
3
Solid line
72
65
73
0
40
0.0000
0
LTYPE
2
HIDDEN
70
0
3
Hidden __ __ __ __
72
65
73
2
40
3.6000
49
2.4000
49
-1.2000
0
LTYPE
2
CENTER
70
0
3
Center ____ _ ____ _
72
65
73
4
40
11.2000
49
7.0000
49
-1.4000
49
1.4000
49
-1.4000
0
LTYPE
2
PHANTOM
70
0
3
Phantom ____ _ _ ____
72
65
73
6
40
21.0000
49
11.0000
49
-2.0000
49
2.0000
49
-2.0000
49
2.0000
49
-2.0000
0
ENDTAB
0
TABLE
2
LAYER
70
12
0
LAYER
2
0
70
0
62
7
6
CONTINUOUS
0
LAYER
2
VISIBLE
70
0
62
7
6
CONTINUOUS
0
LAYER
2
SECTION
70
0
62
7
6
CONTINUOUS
0
LAYER
2
HIDDEN
70
0
62
8
6
HIDDEN
0
LAYER
2
CENTER
70
0
62
4
6
CENTER
0
LAYER
2
DIM
70
0
62
3
6
CONTINUOUS
0
LAYER
2
TEXT
70
0
62
3
6
CONTINUOUS
0
LAYER
2
HATCH
70
0
62
5
6
CONTINUOUS
0
LAYER
2
CUT
70
0
62
1
6
PHANTOM
0
LAYER
2
CUTTHIN
70
0
62
1
6
PHANTOM
0
LAYER
2
FRAME
70
0
62
7
6
CONTINUOUS
0
LAYER
2
TITLE
70
0
62
7
6
CONTINUOUS
0
ENDTAB
0
ENDSEC
0
SECTION
2
ENTITIES
0
LINE
8
TITLE
10
5.000000
20
5.000000
30
0.0
11
415.000000
21
5.000000
31
0.0
0
LINE
8
TITLE
10
415.000000
20
5.000000
30
0.0
11
415.000000
21
292.000000
31
0.0
0
LINE
8
TITLE
10
415.000000
20
292.000000
30
0.0
11
5.000000
21
292.000000
31
0.0
0
LINE
8
TITLE
10
5.000000
20
292.000000
30
0.0
11
5.000000
21
5.000000
31
0.0
0
LINE
8
FRAME
10
10.000000
20
10.000000
30
0.0
11
410.000000
21
10.000000
31
0.0
0
LINE
8
FRAME
10
410.000000
20
10.000000
30
0.0
11
410.000000
21
287.000000
31
0.0
0
LINE
8
FRAME
10
410.000000
20
287.000000
30
0.0
11
10.000000
21
287.000000
31
0.0
0
LINE
8
FRAME
10
10.000000
20
287.000000
30
0.0
11
10.000000
21
10.000000
31
0.0
0
TEXT
8
TITLE
10
60.000000
20
289.500000
30
0.0
40
2.4000
1
1
72
1
73
2
11
60.000000
21
289.500000
31
0.0
0
TEXT
8
TITLE
10
60.000000
20
7.500000
30
0.0
40
2.4000
1
1
72
1
73
2
11
60.000000
21
7.500000
31
0.0
0
TEXT
8
TITLE
10
160.000000
20
289.500000
30
0.0
40
2.4000
1
2
72
1
73
2
11
160.000000
21
289.500000
31
0.0
0
TEXT
8
TITLE
10
160.000000
20
7.500000
30
0.0
40
2.4000
1
2
72
1
73
2
11
160.000000
21
7.500000
31
0.0
0
LINE
8
TITLE
10
110.000000
20
5.000000
30
0.0
11
110.000000
21
10.000000
31
0.0
0
LINE
8
TITLE
10
110.000000
20
287.000000
30
0.0
11
110.000000
21
292.000000
31
0.0
0
TEXT
8
TITLE
10
260.000000
20
289.500000
30
0.0
40
2.4000
1
3
72
1
73
2
11
260.000000
21
289.500000
31
0.0
0
TEXT
8
TITLE
10
260.000000
20
7.500000
30
0.0
40
2.4000
1
3
72
1
73
2
11
260.000000
21
7.500000
31
0.0
0
LINE
8
TITLE
10
210.000000
20
5.000000
30
0.0
11
210.000000
21
10.000000
31
0.0
0
LINE
8
TITLE
10
210.000000
20
287.000000
30
0.0
11
210.000000
21
292.000000
31
0.0
0
TEXT
8
TITLE
10
360.000000
20
289.500000
30
0.0
40
2.4000
1
4
72
1
73
2
11
360.000000
21
289.500000
31
0.0
0
TEXT
8
TITLE
10
360.000000
20
7.500000
30
0.0
40
2.4000
1
4
72
1
73
2
11
360.000000
21
7.500000
31
0.0
0
LINE
8
TITLE
10
310.000000
20
5.000000
30
0.0
11
310.000000
21
10.000000
31
0.0
0
LINE
8
TITLE
10
310.000000
20
287.000000
30
0.0
11
310.000000
21
292.000000
31
0.0
0
TEXT
8
TITLE
10
7.500000
20
56.166667
30
0.0
40
2.4000
1
C
72
1
73
2
11
7.500000
21
56.166667
31
0.0
0
TEXT
8
TITLE
10
412.500000
20
56.166667
30
0.0
40
2.4000
1
C
72
1
73
2
11
412.500000
21
56.166667
31
0.0
0
TEXT
8
TITLE
10
7.500000
20
148.500000
30
0.0
40
2.4000
1
B
72
1
73
2
11
7.500000
21
148.500000
31
0.0
0
TEXT
8
TITLE
10
412.500000
20
148.500000
30
0.0
40
2.4000
1
B
72
1
73
2
11
412.500000
21
148.500000
31
0.0
0
LINE
8
TITLE
10
5.000000
20
102.333333
30
0.0
11
10.000000
21
102.333333
31
0.0
0
LINE
8
TITLE
10
410.000000
20
102.333333
30
0.0
11
415.000000
21
102.333333
31
0.0
0
TEXT
8
TITLE
10
7.500000
20
240.833333
30
0.0
40
2.4000
1
A
72
1
73
2
11
7.500000
21
240.833333
31
0.0
0
TEXT
8
TITLE
10
412.500000
20
240.833333
30
0.0
40
2.4000
1
A
72
1
73
2
11
412.500000
21
240.833333
31
0.0
0
LINE
8
TITLE
10
5.000000
20
194.666667
30
0.0
11
10.000000
21
194.666667
31
0.0
0
LINE
8
TITLE
10
410.000000
20
194.666667
30
0.0
11
415.000000
21
194.666667
31
0.0
0
LINE
8
VISIBLE
10
175.995970
20
152.597779
30
0.0
11
175.100529
21
150.313250
31
0.0
0
LINE
8
VISIBLE
10
175.999164
20
181.439602
30
0.0
11
175.995970
21
152.597779
31
0.0
0
LINE
8
VISIBLE
10
175.100529
20
150.313250
30
0.0
11
174.465064
21
147.943213
31
0.0
0
LINE
8
VISIBLE
10
175.719164
20
183.119602
30
0.0
11
175.999164
21
181.439602
31
0.0
0
LINE
8
VISIBLE
10
174.465064
20
147.943213
30
0.0
11
174.097480
21
145.517152
31
0.0
0
LINE
8
VISIBLE
10
174.519164
20
186.019602
30
0.0
11
175.719164
21
183.119602
31
0.0
0
LINE
8
VISIBLE
10
174.097480
20
145.517152
30
0.0
11
174.002350
21
143.065247
31
0.0
0
LINE
8
VISIBLE
10
171.639164
20
190.679602
30
0.0
11
174.519164
21
186.019602
31
0.0
0
LINE
8
VISIBLE
10
174.002350
20
143.065247
30
0.0
11
174.180857
21
140.617998
31
0.0
0
LINE
8
VISIBLE
10
169.599164
20
192.879602
30
0.0
11
171.639164
21
190.679602
31
0.0
0
LINE
8
VISIBLE
10
174.180857
20
140.617998
30
0.0
11
174.630780
21
138.205850
31
0.0
0
LINE
8
VISIBLE
10
166.979164
20
194.379602
30
0.0
11
169.599164
21
192.879602
31
0.0
0
LINE
8
VISIBLE
10
174.630780
20
138.205850
30
0.0
11
175.346523
21
135.858809
31
0.0
0
LINE
8
VISIBLE
10
164.039164
20
195.059602
30
0.0
11
166.979164
21
194.379602
31
0.0
0
LINE
8
VISIBLE
10
175.346523
20
135.858809
30
0.0
11
176.319182
21
133.606072
31
0.0
0
LINE
8
VISIBLE
10
160.982434
20
194.911250
30
0.0
11
164.039164
21
195.059602
31
0.0
0
LINE
8
VISIBLE
10
176.319182
20
133.606072
30
0.0
11
177.536657
21
131.475663
31
0.0
0
LINE
8
VISIBLE
10
158.695893
20
194.037604
30
0.0
11
160.982434
21
194.911250
31
0.0
0
LINE
8
VISIBLE
10
177.536657
20
131.475663
30
0.0
11
178.983803
21
129.494083
31
0.0
0
LINE
8
VISIBLE
10
156.326451
20
193.423377
30
0.0
11
158.695893
21
194.037604
31
0.0
0
LINE
8
VISIBLE
10
178.983803
20
129.494083
30
0.0
11
180.642618
21
127.685984
31
0.0
0
LINE
8
VISIBLE
10
153.903442
20
193.076172
30
0.0
11
156.326451
21
193.423377
31
0.0
0
LINE
8
VISIBLE
10
180.642618
20
127.685984
30
0.0
11
182.492466
21
126.073857
31
0.0
0
LINE
8
VISIBLE
10
151.456858
20
193.000287
30
0.0
11
153.903442
21
193.076172
31
0.0
0
LINE
8
VISIBLE
10
182.492466
20
126.073857
30
0.0
11
184.510335
21
124.677758
31
0.0
0
LINE
8
VISIBLE
10
149.016988
20
193.196661
30
0.0
11
151.456858
21
193.000287
31
0.0
0
LINE
8
VISIBLE
10
184.510335
20
124.677758
30
0.0
11
186.671124
21
123.515053
31
0.0
0
LINE
8
VISIBLE
10
146.614035
20
193.662864
30
0.0
11
149.016988
21
193.196661
31
0.0
0
LINE
8
VISIBLE
10
186.671124
20
123.515053
30
0.0
11
188.947952
21
122.600206
31
0.0
0
LINE
8
VISIBLE
10
144.277746
20
194.393124
30
0.0
11
146.614035
21
193.662864
31
0.0
0
LINE
8
VISIBLE
10
188.947952
20
122.600206
30
0.0
11
191.312496
21
121.944599
31
0.0
0
LINE
8
VISIBLE
10
142.037041
20
195.378401
30
0.0
11
144.277746
21
194.393124
31
0.0
0
LINE
8
VISIBLE
10
191.312496
20
121.944599
30
0.0
11
193.735341
21
121.556387
31
0.0
0
LINE
8
VISIBLE
10
139.919659
20
196.606499
30
0.0
11
142.037041
21
195.378401
31
0.0
0
LINE
8
VISIBLE
10
193.735341
20
121.556387
30
0.0
11
196.186349
21
121.440398
31
0.0
0
LINE
8
VISIBLE
10
137.951812
20
198.062214
30
0.0
11
139.919659
21
196.606499
31
0.0
0
LINE
8
VISIBLE
10
196.186349
20
121.440398
30
0.0
11
198.635027
21
121.598077
31
0.0
0
LINE
8
VISIBLE
10
136.157860
20
199.727526
30
0.0
11
137.951812
21
198.062214
31
0.0
0
LINE
8
VISIBLE
10
198.635027
20
121.598077
30
0.0
11
201.050916
21
122.027460
31
0.0
0
LINE
8
VISIBLE
10
134.560010
20
201.581819
30
0.0
11
136.157860
21
199.727526
31
0.0
0
LINE
8
VISIBLE
10
201.050916
20
122.027460
30
0.0
11
203.403962
21
122.723208
31
0.0
0
LINE
8
VISIBLE
10
133.178043
20
203.602140
30
0.0
11
134.560010
21
201.581819
31
0.0
0
LINE
8
VISIBLE
10
203.403962
20
122.723208
30
0.0
11
205.664893
21
123.676665
31
0.0
0
LINE
8
VISIBLE
10
132.029067
20
205.763478
30
0.0
11
133.178043
21
203.602140
31
0.0
0
LINE
8
VISIBLE
10
205.664893
20
123.676665
30
0.0
11
207.805584
21
124.875969
31
0.0
0
LINE
8
VISIBLE
10
131.127303
20
208.039077
30
0.0
11
132.029067
21
205.763478
31
0.0
0
LINE
8
VISIBLE
10
207.805584
20
124.875969
30
0.0
11
209.799405
21
126.306203
31
0.0
0
LINE
8
VISIBLE
10
130.483917
20
210.400767
30
0.0
11
131.127303
21
208.039077
31
0.0
0
LINE
8
VISIBLE
10
209.799405
20
126.306203
30
0.0
11
211.621553
21
127.949574
31
0.0
0
LINE
8
VISIBLE
10
130.106872
20
212.819313
30
0.0
11
130.483917
21
210.400767
31
0.0
0
LINE
8
VISIBLE
10
211.621553
20
127.949574
30
0.0
11
213.249361
21
129.785638
31
0.0
0
LINE
8
VISIBLE
10
130.000836
20
215.264775
30
0.0
11
130.106872
21
212.819313
31
0.0
0
LINE
8
VISIBLE
10
213.249361
20
129.785638
30
0.0
11
214.662578
21
131.791556
31
0.0
0
LINE
8
VISIBLE
10
130.167121
20
217.706881
30
0.0
11
130.000836
21
215.264775
31
0.0
0
LINE
8
VISIBLE
10
214.662578
20
131.791556
30
0.0
11
215.843626
21
133.942373
31
0.0
0
LINE
8
VISIBLE
10
130.603669
20
220.115398
30
0.0
11
130.167121
21
217.706881
31
0.0
0
LINE
8
VISIBLE
10
215.843626
20
133.942373
30
0.0
11
216.777811
21
136.211335
31
0.0
0
LINE
8
VISIBLE
10
131.305077
20
222.460511
30
0.0
11
130.603669
21
220.115398
31
0.0
0
LINE
8
VISIBLE
10
216.777811
20
136.211335
30
0.0
11
217.453513
21
138.570215
31
0.0
0
LINE
8
VISIBLE
10
132.262660
20
224.713190
30
0.0
11
131.305077
21
222.460511
31
0.0
0
LINE
8
VISIBLE
10
217.453513
20
138.570215
30
0.0
11
217.862326
21
140.989670
31
0.0
0
LINE
8
VISIBLE
10
133.464565
20
226.845548
30
0.0
11
132.262660
21
224.713190
31
0.0
0
LINE
8
VISIBLE
10
217.862326
20
140.989670
30
0.0
11
217.999164
21
143.439602
31
0.0
0
LINE
8
VISIBLE
10
134.895914
20
228.831189
30
0.0
11
133.464565
21
226.845548
31
0.0
0
LINE
8
VISIBLE
10
217.999164
20
143.439602
30
0.0
11
219.999164
21
213.559602
31
0.0
0
LINE
8
VISIBLE
10
136.538987
20
230.645532
30
0.0
11
134.895914
21
228.831189
31
0.0
0
LINE
8
VISIBLE
10
219.999164
20
213.559602
30
0.0
11
219.883598
21
215.912013
31
0.0
0
LINE
8
VISIBLE
10
138.373444
20
232.266116
30
0.0
11
136.538987
21
230.645532
31
0.0
0
LINE
8
VISIBLE
10
219.883598
20
215.912013
30
0.0
11
219.538011
21
218.241770
31
0.0
0
LINE
8
VISIBLE
10
140.376577
20
233.672881
30
0.0
11
138.373444
21
232.266116
31
0.0
0
LINE
8
VISIBLE
10
219.538011
20
218.241770
30
0.0
11
218.965732
21
220.526434
31
0.0
0
LINE
8
VISIBLE
10
142.523588
20
234.848411
30
0.0
11
140.376577
21
233.672881
31
0.0
0
LINE
8
VISIBLE
10
218.965732
20
220.526434
30
0.0
11
218.172273
21
222.744004
31
0.0
0
LINE
8
VISIBLE
10
144.787899
20
235.778155
30
0.0
11
142.523588
21
234.848411
31
0.0
0
LINE
8
VISIBLE
10
218.172273
20
222.744004
30
0.0
11
217.165275
21
224.873124
31
0.0
0
LINE
8
VISIBLE
10
147.141480
20
236.450603
30
0.0
11
144.787899
21
235.778155
31
0.0
0
LINE
8
VISIBLE
10
217.165275
20
224.873124
30
0.0
11
215.954435
21
226.893287
31
0.0
0
LINE
8
VISIBLE
10
149.555195
20
236.857431
30
0.0
11
147.141480
21
236.450603
31
0.0
0
LINE
8
VISIBLE
10
215.954435
20
226.893287
30
0.0
11
214.551415
21
228.785041
31
0.0
0
LINE
8
VISIBLE
10
151.999164
20
237.000802
30
0.0
11
149.555195
21
236.857431
31
0.0
0
LINE
8
VISIBLE
10
214.551415
20
228.785041
30
0.0
11
212.969727
21
230.530165
31
0.0
0
LINE
8
VISIBLE
10
195.999164
20
237.559602
30
0.0
11
151.999164
21
237.000802
31
0.0
0
LINE
8
VISIBLE
10
212.969727
20
230.530165
30
0.0
11
211.224603
21
232.111853
31
0.0
0
LINE
8
VISIBLE
10
198.351576
20
237.444035
30
0.0
11
195.999164
21
237.559602
31
0.0
0
LINE
8
VISIBLE
10
211.224603
20
232.111853
30
0.0
11
209.332850
21
233.514873
31
0.0
0
LINE
8
VISIBLE
10
200.681332
20
237.098449
30
0.0
11
198.351576
21
237.444035
31
0.0
0
LINE
8
VISIBLE
10
209.332850
20
233.514873
30
0.0
11
207.312686
21
234.725712
31
0.0
0
LINE
8
VISIBLE
10
202.965997
20
236.526170
30
0.0
11
200.681332
21
237.098449
31
0.0
0
LINE
8
VISIBLE
10
207.312686
20
234.725712
30
0.0
11
205.183567
21
235.732711
31
0.0
0
LINE
8
VISIBLE
10
205.183567
20
235.732711
30
0.0
11
202.965997
21
236.526170
31
0.0
0
CIRCLE
8
VISIBLE
10
195.999164
20
143.439602
30
0.0
40
19.000000
0
LINE
8
VISIBLE
10
178.999164
20
162.439602
30
0.0
11
178.999164
21
179.439602
31
0.0
0
LINE
8
VISIBLE
10
179.101387
20
161.663145
30
0.0
11
178.999164
21
162.439602
31
0.0
0
LINE
8
VISIBLE
10
178.999164
20
179.439602
30
0.0
11
179.101387
21
180.216059
31
0.0
0
LINE
8
VISIBLE
10
179.401088
20
160.939602
30
0.0
11
179.101387
21
161.663145
31
0.0
0
LINE
8
VISIBLE
10
179.101387
20
180.216059
30
0.0
11
179.401088
21
180.939602
31
0.0
0
LINE
8
VISIBLE
10
179.877844
20
160.318281
30
0.0
11
179.401088
21
160.939602
31
0.0
0
LINE
8
VISIBLE
10
179.401088
20
180.939602
30
0.0
11
179.877844
21
181.560922
31
0.0
0
LINE
8
VISIBLE
10
180.151393
20
160.108380
30
0.0
11
179.877844
21
160.318281
31
0.0
0
LINE
8
VISIBLE
10
179.877844
20
181.560922
30
0.0
11
180.499164
21
182.037678
31
0.0
0
ARC
8
VISIBLE
10
195.999164
20
143.439602
30
0.0
40
23.000000
50
90.000000
51
133.553652
0
LINE
8
VISIBLE
10
180.499164
20
182.037678
30
0.0
11
181.222707
21
182.337379
31
0.0
0
ARC
8
VISIBLE
10
195.999164
20
143.439602
30
0.0
40
23.000000
50
46.446348
51
90.000000
0
LINE
8
VISIBLE
10
181.222707
20
182.337379
30
0.0
11
181.999164
21
182.439602
31
0.0
0
LINE
8
VISIBLE
10
212.120485
20
160.318281
30
0.0
11
211.846935
21
160.108380
31
0.0
0
LINE
8
VISIBLE
10
181.999164
20
182.439602
30
0.0
11
209.999164
21
182.439602
31
0.0
0
LINE
8
VISIBLE
10
212.597241
20
160.939602
30
0.0
11
212.120485
21
160.318281
31
0.0
0
LINE
8
VISIBLE
10
209.999164
20
182.439602
30
0.0
11
210.775621
21
182.337379
31
0.0
0
LINE
8
VISIBLE
10
212.896942
20
161.663145
30
0.0
11
212.597241
21
160.939602
31
0.0
0
LINE
8
VISIBLE
10
210.775621
20
182.337379
30
0.0
11
211.499164
21
182.037678
31
0.0
0
LINE
8
VISIBLE
10
212.999164
20
162.439602
30
0.0
11
212.896942
21
161.663145
31
0.0
0
LINE
8
VISIBLE
10
211.499164
20
182.037678
30
0.0
11
212.120485
21
181.560922
31
0.0
0
LINE
8
VISIBLE
10
212.999164
20
179.439602
30
0.0
11
212.999164
21
162.439602
31
0.0
0
LINE
8
VISIBLE
10
212.120485
20
181.560922
30
0.0
11
212.597241
21
180.939602
31
0.0
0
LINE
8
VISIBLE
10
212.896942
20
180.216059
30
0.0
11
212.999164
21
179.439602
31
0.0
0
LINE
8
VISIBLE
10
212.597241
20
180.939602
30
0.0
11
212.896942
21
180.216059
31
0.0
0
CIRCLE
8
VISIBLE
10
151.999164
20
214.993602
30
0.0
40
19.000000
0
CIRCLE
8
VISIBLE
10
179.999164
20
188.439602
30
0.0
40
2.200000
0
CIRCLE
8
VISIBLE
10
211.999164
20
188.439602
30
0.0
40
2.200000
0
CIRCLE
8
VISIBLE
10
196.999164
20
198.993602
30
0.0
40
2.200000
0
LINE
8
VISIBLE
10
190.939164
20
231.999602
30
0.0
11
168.999164
21
231.999602
31
0.0
0
LINE
8
VISIBLE
10
168.999164
20
231.999602
30
0.0
11
168.999164
21
230.485535
31
0.0
0
ARC
8
VISIBLE
10
151.999164
20
214.993602
30
0.0
40
23.000000
50
317.657395
51
42.342605
0
LINE
8
VISIBLE
10
168.999164
20
199.501668
30
0.0
11
168.999164
21
197.999602
31
0.0
0
LINE
8
VISIBLE
10
168.999164
20
197.999602
30
0.0
11
177.339164
21
197.999602
31
0.0
0
LINE
8
VISIBLE
10
177.339164
20
197.999602
30
0.0
11
190.939164
21
231.999602
31
0.0
0
LINE
8
VISIBLE
10
204.999164
20
197.399602
30
0.0
11
204.999164
21
218.599602
31
0.0
0
LINE
8
VISIBLE
10
205.080942
20
196.778436
30
0.0
11
204.999164
21
197.399602
31
0.0
0
LINE
8
VISIBLE
10
204.999164
20
218.599602
30
0.0
11
205.080942
21
219.220768
31
0.0
0
LINE
8
VISIBLE
10
205.320703
20
196.199602
30
0.0
11
205.080942
21
196.778436
31
0.0
0
LINE
8
VISIBLE
10
205.080942
20
219.220768
30
0.0
11
205.320703
21
219.799602
31
0.0
0
LINE
8
VISIBLE
10
205.702108
20
195.702546
30
0.0
11
205.320703
21
196.199602
31
0.0
0
LINE
8
VISIBLE
10
205.320703
20
219.799602
30
0.0
11
205.702108
21
220.296658
31
0.0
0
LINE
8
VISIBLE
10
206.199164
20
195.321141
30
0.0
11
205.702108
21
195.702546
31
0.0
0
LINE
8
VISIBLE
10
205.702108
20
220.296658
30
0.0
11
206.199164
21
220.678063
31
0.0
0
LINE
8
VISIBLE
10
206.777999
20
195.081380
30
0.0
11
206.199164
21
195.321141
31
0.0
0
LINE
8
VISIBLE
10
206.199164
20
220.678063
30
0.0
11
206.777999
21
220.917824
31
0.0
0
LINE
8
VISIBLE
10
207.399164
20
194.999602
30
0.0
11
206.777999
21
195.081380
31
0.0
0
LINE
8
VISIBLE
10
206.777999
20
220.917824
30
0.0
11
207.399164
21
220.999602
31
0.0
0
LINE
8
VISIBLE
10
212.599164
20
194.999602
30
0.0
11
207.399164
21
194.999602
31
0.0
0
LINE
8
VISIBLE
10
207.399164
20
220.999602
30
0.0
11
212.599164
21
220.999602
31
0.0
0
LINE
8
VISIBLE
10
213.220330
20
195.081380
30
0.0
11
212.599164
21
194.999602
31
0.0
0
LINE
8
VISIBLE
10
212.599164
20
220.999602
30
0.0
11
213.220330
21
220.917824
31
0.0
0
LINE
8
VISIBLE
10
213.799164
20
195.321141
30
0.0
11
213.220330
21
195.081380
31
0.0
0
LINE
8
VISIBLE
10
213.220330
20
220.917824
30
0.0
11
213.799164
21
220.678063
31
0.0
0
LINE
8
VISIBLE
10
214.296221
20
195.702546
30
0.0
11
213.799164
21
195.321141
31
0.0
0
LINE
8
VISIBLE
10
213.799164
20
220.678063
30
0.0
11
214.296221
21
220.296658
31
0.0
0
LINE
8
VISIBLE
10
214.677625
20
196.199602
30
0.0
11
214.296221
21
195.702546
31
0.0
0
LINE
8
VISIBLE
10
214.296221
20
220.296658
30
0.0
11
214.677625
21
219.799602
31
0.0
0
LINE
8
VISIBLE
10
214.917386
20
196.778436
30
0.0
11
214.677625
21
196.199602
31
0.0
0
LINE
8
VISIBLE
10
214.677625
20
219.799602
30
0.0
11
214.917386
21
219.220768
31
0.0
0
LINE
8
VISIBLE
10
214.999164
20
197.399602
30
0.0
11
214.917386
21
196.778436
31
0.0
0
LINE
8
VISIBLE
10
214.917386
20
219.220768
30
0.0
11
214.999164
21
218.599602
31
0.0
0
LINE
8
VISIBLE
10
214.999164
20
218.599602
30
0.0
11
214.999164
21
197.399602
31
0.0
0
CIRCLE
8
VISIBLE
10
196.999164
20
230.993602
30
0.0
40
2.200000
0
LINE
8
VISIBLE
10
84.000836
20
121.440398
30
0.0
11
84.000836
21
121.598077
31
0.0
0
LINE
8
VISIBLE
10
84.000836
20
121.598077
30
0.0
11
84.000836
21
122.027460
31
0.0
0
LINE
8
VISIBLE
10
84.000836
20
122.027460
30
0.0
11
84.000836
21
122.723208
31
0.0
0
LINE
8
VISIBLE
10
84.000836
20
122.723208
30
0.0
11
84.000836
21
123.676665
31
0.0
0
LINE
8
VISIBLE
10
84.000836
20
123.676665
30
0.0
11
84.000836
21
124.875969
31
0.0
0
LINE
8
VISIBLE
10
84.000836
20
124.875969
30
0.0
11
84.000836
21
126.306203
31
0.0
0
LINE
8
VISIBLE
10
84.000836
20
126.306203
30
0.0
11
84.000836
21
127.949574
31
0.0
0
LINE
8
VISIBLE
10
84.000836
20
127.949574
30
0.0
11
84.000836
21
129.785638
31
0.0
0
LINE
8
VISIBLE
10
84.000836
20
129.785638
30
0.0
11
84.000836
21
131.791556
31
0.0
0
LINE
8
VISIBLE
10
84.000836
20
131.791556
30
0.0
11
84.000836
21
133.942373
31
0.0
0
LINE
8
VISIBLE
10
84.000836
20
133.942373
30
0.0
11
84.000836
21
136.211335
31
0.0
0
LINE
8
VISIBLE
10
84.000836
20
136.211335
30
0.0
11
84.000836
21
138.570215
31
0.0
0
LINE
8
VISIBLE
10
84.000836
20
138.570215
30
0.0
11
84.000836
21
140.989670
31
0.0
0
LINE
8
VISIBLE
10
84.000836
20
140.989670
30
0.0
11
84.000836
21
143.439602
31
0.0
0
LINE
8
VISIBLE
10
84.000836
20
143.439602
30
0.0
11
84.000836
21
213.559602
31
0.0
0
LINE
8
VISIBLE
10
84.000836
20
213.559602
30
0.0
11
84.000836
21
215.912013
31
0.0
0
LINE
8
VISIBLE
10
84.000836
20
215.912013
30
0.0
11
84.000836
21
218.241770
31
0.0
0
LINE
8
VISIBLE
10
84.000836
20
218.241770
30
0.0
11
84.000836
21
220.526434
31
0.0
0
LINE
8
VISIBLE
10
84.000836
20
220.526434
30
0.0
11
84.000836
21
222.744004
31
0.0
0
LINE
8
VISIBLE
10
84.000836
20
222.744004
30
0.0
11
84.000836
21
224.873124
31
0.0
0
LINE
8
VISIBLE
10
84.000836
20
224.873124
30
0.0
11
84.000836
21
226.893287
31
0.0
0
LINE
8
VISIBLE
10
84.000836
20
226.893287
30
0.0
11
84.000836
21
228.785041
31
0.0
0
LINE
8
VISIBLE
10
84.000836
20
228.785041
30
0.0
11
84.000836
21
230.530165
31
0.0
0
LINE
8
VISIBLE
10
84.000836
20
230.530165
30
0.0
11
84.000836
21
232.111853
31
0.0
0
LINE
8
VISIBLE
10
84.000836
20
237.444035
30
0.0
11
84.000836
21
237.559602
31
0.0
0
LINE
8
VISIBLE
10
84.000836
20
232.111853
30
0.0
11
84.000836
21
233.514873
31
0.0
0
LINE
8
VISIBLE
10
84.000836
20
237.098449
30
0.0
11
84.000836
21
237.444035
31
0.0
0
LINE
8
VISIBLE
10
84.000836
20
233.514873
30
0.0
11
84.000836
21
234.725712
31
0.0
0
LINE
8
VISIBLE
10
84.000836
20
236.526170
30
0.0
11
84.000836
21
237.098449
31
0.0
0
LINE
8
VISIBLE
10
84.000836
20
234.725712
30
0.0
11
84.000836
21
235.732711
31
0.0
0
LINE
8
VISIBLE
10
84.000836
20
235.732711
30
0.0
11
84.000836
21
236.526170
31
0.0
0
LINE
8
VISIBLE
10
82.000836
20
121.440398
30
0.0
11
82.000836
21
121.598077
31
0.0
0
LINE
8
VISIBLE
10
82.000836
20
121.598077
30
0.0
11
82.000836
21
122.027460
31
0.0
0
LINE
8
VISIBLE
10
82.000836
20
122.027460
30
0.0
11
82.000836
21
122.723208
31
0.0
0
LINE
8
VISIBLE
10
82.000836
20
122.723208
30
0.0
11
82.000836
21
123.676665
31
0.0
0
LINE
8
VISIBLE
10
82.000836
20
123.676665
30
0.0
11
82.000836
21
124.875969
31
0.0
0
LINE
8
VISIBLE
10
82.000836
20
124.875969
30
0.0
11
82.000836
21
126.306203
31
0.0
0
LINE
8
VISIBLE
10
82.000836
20
126.306203
30
0.0
11
82.000836
21
127.949574
31
0.0
0
LINE
8
VISIBLE
10
82.000836
20
127.949574
30
0.0
11
82.000836
21
129.785638
31
0.0
0
LINE
8
VISIBLE
10
82.000836
20
129.785638
30
0.0
11
82.000836
21
131.791556
31
0.0
0
LINE
8
VISIBLE
10
82.000836
20
131.791556
30
0.0
11
82.000836
21
133.942373
31
0.0
0
LINE
8
VISIBLE
10
82.000836
20
133.942373
30
0.0
11
82.000836
21
136.211335
31
0.0
0
LINE
8
VISIBLE
10
82.000836
20
136.211335
30
0.0
11
82.000836
21
138.570215
31
0.0
0
LINE
8
VISIBLE
10
82.000836
20
138.570215
30
0.0
11
82.000836
21
140.989670
31
0.0
0
LINE
8
VISIBLE
10
82.000836
20
140.989670
30
0.0
11
82.000836
21
143.439602
31
0.0
0
LINE
8
VISIBLE
10
82.000836
20
143.439602
30
0.0
11
82.000836
21
213.559602
31
0.0
0
LINE
8
VISIBLE
10
82.000836
20
213.559602
30
0.0
11
82.000836
21
215.912013
31
0.0
0
LINE
8
VISIBLE
10
82.000836
20
215.912013
30
0.0
11
82.000836
21
218.241770
31
0.0
0
LINE
8
VISIBLE
10
82.000836
20
218.241770
30
0.0
11
82.000836
21
220.526434
31
0.0
0
LINE
8
VISIBLE
10
82.000836
20
220.526434
30
0.0
11
82.000836
21
222.744004
31
0.0
0
LINE
8
VISIBLE
10
82.000836
20
222.744004
30
0.0
11
82.000836
21
224.873124
31
0.0
0
LINE
8
VISIBLE
10
82.000836
20
224.873124
30
0.0
11
82.000836
21
226.893287
31
0.0
0
LINE
8
VISIBLE
10
82.000836
20
226.893287
30
0.0
11
82.000836
21
228.785041
31
0.0
0
LINE
8
VISIBLE
10
82.000836
20
228.785041
30
0.0
11
82.000836
21
230.530165
31
0.0
0
LINE
8
VISIBLE
10
82.000836
20
230.530165
30
0.0
11
82.000836
21
232.111853
31
0.0
0
LINE
8
VISIBLE
10
82.000836
20
237.444035
30
0.0
11
82.000836
21
237.559602
31
0.0
0
LINE
8
VISIBLE
10
82.000836
20
232.111853
30
0.0
11
82.000836
21
233.514873
31
0.0
0
LINE
8
VISIBLE
10
82.000836
20
237.098449
30
0.0
11
82.000836
21
237.444035
31
0.0
0
LINE
8
VISIBLE
10
82.000836
20
233.514873
30
0.0
11
82.000836
21
234.725712
31
0.0
0
LINE
8
VISIBLE
10
82.000836
20
236.526170
30
0.0
11
82.000836
21
237.098449
31
0.0
0
LINE
8
VISIBLE
10
82.000836
20
234.725712
30
0.0
11
82.000836
21
235.732711
31
0.0
0
LINE
8
VISIBLE
10
82.000836
20
235.732711
30
0.0
11
82.000836
21
236.526170
31
0.0
0
LINE
8
VISIBLE
10
84.000836
20
121.440398
30
0.0
11
82.000836
21
121.440398
31
0.0
0
LINE
8
VISIBLE
10
84.000836
20
121.598077
30
0.0
11
82.000836
21
121.598077
31
0.0
0
LINE
8
VISIBLE
10
84.000836
20
122.027460
30
0.0
11
82.000836
21
122.027460
31
0.0
0
LINE
8
VISIBLE
10
84.000836
20
122.723208
30
0.0
11
82.000836
21
122.723208
31
0.0
0
LINE
8
VISIBLE
10
84.000836
20
123.676665
30
0.0
11
82.000836
21
123.676665
31
0.0
0
LINE
8
VISIBLE
10
84.000836
20
124.875969
30
0.0
11
82.000836
21
124.875969
31
0.0
0
LINE
8
VISIBLE
10
84.000836
20
126.306203
30
0.0
11
82.000836
21
126.306203
31
0.0
0
LINE
8
VISIBLE
10
84.000836
20
127.949574
30
0.0
11
82.000836
21
127.949574
31
0.0
0
LINE
8
VISIBLE
10
84.000836
20
129.785638
30
0.0
11
82.000836
21
129.785638
31
0.0
0
LINE
8
VISIBLE
10
84.000836
20
131.791556
30
0.0
11
82.000836
21
131.791556
31
0.0
0
LINE
8
VISIBLE
10
84.000836
20
133.942373
30
0.0
11
82.000836
21
133.942373
31
0.0
0
LINE
8
VISIBLE
10
84.000836
20
136.211335
30
0.0
11
82.000836
21
136.211335
31
0.0
0
LINE
8
VISIBLE
10
84.000836
20
138.570215
30
0.0
11
82.000836
21
138.570215
31
0.0
0
LINE
8
VISIBLE
10
84.000836
20
140.989670
30
0.0
11
82.000836
21
140.989670
31
0.0
0
LINE
8
VISIBLE
10
84.000836
20
143.439602
30
0.0
11
82.000836
21
143.439602
31
0.0
0
LINE
8
VISIBLE
10
84.000836
20
213.559602
30
0.0
11
82.000836
21
213.559602
31
0.0
0
LINE
8
VISIBLE
10
84.000836
20
215.912013
30
0.0
11
82.000836
21
215.912013
31
0.0
0
LINE
8
VISIBLE
10
84.000836
20
218.241770
30
0.0
11
82.000836
21
218.241770
31
0.0
0
LINE
8
VISIBLE
10
84.000836
20
220.526434
30
0.0
11
82.000836
21
220.526434
31
0.0
0
LINE
8
VISIBLE
10
84.000836
20
222.744004
30
0.0
11
82.000836
21
222.744004
31
0.0
0
LINE
8
VISIBLE
10
84.000836
20
224.873124
30
0.0
11
82.000836
21
224.873124
31
0.0
0
LINE
8
VISIBLE
10
84.000836
20
226.893287
30
0.0
11
82.000836
21
226.893287
31
0.0
0
LINE
8
VISIBLE
10
84.000836
20
228.785041
30
0.0
11
82.000836
21
228.785041
31
0.0
0
LINE
8
VISIBLE
10
84.000836
20
230.530165
30
0.0
11
82.000836
21
230.530165
31
0.0
0
LINE
8
VISIBLE
10
84.000836
20
237.559602
30
0.0
11
82.000836
21
237.559602
31
0.0
0
LINE
8
VISIBLE
10
84.000836
20
232.111853
30
0.0
11
82.000836
21
232.111853
31
0.0
0
LINE
8
VISIBLE
10
84.000836
20
237.444035
30
0.0
11
82.000836
21
237.444035
31
0.0
0
LINE
8
VISIBLE
10
84.000836
20
233.514873
30
0.0
11
82.000836
21
233.514873
31
0.0
0
LINE
8
VISIBLE
10
84.000836
20
237.098449
30
0.0
11
82.000836
21
237.098449
31
0.0
0
LINE
8
VISIBLE
10
84.000836
20
234.725712
30
0.0
11
82.000836
21
234.725712
31
0.0
0
LINE
8
VISIBLE
10
84.000836
20
236.526170
30
0.0
11
82.000836
21
236.526170
31
0.0
0
LINE
8
VISIBLE
10
84.000836
20
235.732711
30
0.0
11
82.000836
21
235.732711
31
0.0
0
LINE
8
HIDDEN
10
84.000836
20
152.597779
30
0.0
11
82.000836
21
152.597779
31
0.0
0
LINE
8
HIDDEN
10
84.000836
20
150.313250
30
0.0
11
82.000836
21
150.313250
31
0.0
0
LINE
8
HIDDEN
10
84.000836
20
152.597779
30
0.0
11
84.000836
21
150.313250
31
0.0
0
LINE
8
HIDDEN
10
82.000836
20
152.597779
30
0.0
11
82.000836
21
150.313250
31
0.0
0
LINE
8
HIDDEN
10
84.000836
20
181.439602
30
0.0
11
82.000836
21
181.439602
31
0.0
0
LINE
8
HIDDEN
10
84.000836
20
181.439602
30
0.0
11
84.000836
21
152.597779
31
0.0
0
LINE
8
HIDDEN
10
82.000836
20
181.439602
30
0.0
11
82.000836
21
152.597779
31
0.0
0
LINE
8
HIDDEN
10
84.000836
20
147.943213
30
0.0
11
82.000836
21
147.943213
31
0.0
0
LINE
8
HIDDEN
10
84.000836
20
150.313250
30
0.0
11
84.000836
21
147.943213
31
0.0
0
LINE
8
HIDDEN
10
82.000836
20
150.313250
30
0.0
11
82.000836
21
147.943213
31
0.0
0
LINE
8
HIDDEN
10
84.000836
20
183.119602
30
0.0
11
84.000836
21
181.439602
31
0.0
0
LINE
8
HIDDEN
10
84.000836
20
147.943213
30
0.0
11
84.000836
21
145.517152
31
0.0
0
LINE
8
HIDDEN
10
84.000836
20
186.019602
30
0.0
11
84.000836
21
183.119602
31
0.0
0
LINE
8
HIDDEN
10
84.000836
20
145.517152
30
0.0
11
84.000836
21
143.065247
31
0.0
0
LINE
8
HIDDEN
10
84.000836
20
190.679602
30
0.0
11
84.000836
21
186.019602
31
0.0
0
LINE
8
HIDDEN
10
84.000836
20
143.065247
30
0.0
11
84.000836
21
140.617998
31
0.0
0
LINE
8
HIDDEN
10
84.000836
20
192.879602
30
0.0
11
84.000836
21
190.679602
31
0.0
0
LINE
8
HIDDEN
10
84.000836
20
140.617998
30
0.0
11
84.000836
21
138.205850
31
0.0
0
LINE
8
HIDDEN
10
84.000836
20
194.379602
30
0.0
11
84.000836
21
192.879602
31
0.0
0
LINE
8
HIDDEN
10
84.000836
20
138.205850
30
0.0
11
84.000836
21
135.858809
31
0.0
0
LINE
8
HIDDEN
10
84.000836
20
195.059602
30
0.0
11
84.000836
21
194.379602
31
0.0
0
LINE
8
HIDDEN
10
84.000836
20
135.858809
30
0.0
11
84.000836
21
133.606072
31
0.0
0
LINE
8
HIDDEN
10
84.000836
20
194.911250
30
0.0
11
84.000836
21
195.059602
31
0.0
0
LINE
8
HIDDEN
10
84.000836
20
133.606072
30
0.0
11
84.000836
21
131.475663
31
0.0
0
LINE
8
HIDDEN
10
84.000836
20
194.037604
30
0.0
11
84.000836
21
194.911250
31
0.0
0
LINE
8
HIDDEN
10
84.000836
20
131.475663
30
0.0
11
84.000836
21
129.494083
31
0.0
0
LINE
8
HIDDEN
10
84.000836
20
193.423377
30
0.0
11
84.000836
21
194.037604
31
0.0
0
LINE
8
HIDDEN
10
84.000836
20
129.494083
30
0.0
11
84.000836
21
127.685984
31
0.0
0
LINE
8
HIDDEN
10
84.000836
20
193.076172
30
0.0
11
84.000836
21
193.423377
31
0.0
0
LINE
8
HIDDEN
10
84.000836
20
127.685984
30
0.0
11
84.000836
21
126.073857
31
0.0
0
LINE
8
HIDDEN
10
84.000836
20
193.000287
30
0.0
11
84.000836
21
193.076172
31
0.0
0
LINE
8
HIDDEN
10
84.000836
20
126.073857
30
0.0
11
84.000836
21
124.677758
31
0.0
0
LINE
8
HIDDEN
10
84.000836
20
193.196661
30
0.0
11
84.000836
21
193.000287
31
0.0
0
LINE
8
HIDDEN
10
84.000836
20
124.677758
30
0.0
11
84.000836
21
123.515053
31
0.0
0
LINE
8
HIDDEN
10
84.000836
20
193.662864
30
0.0
11
84.000836
21
193.196661
31
0.0
0
LINE
8
HIDDEN
10
84.000836
20
123.515053
30
0.0
11
84.000836
21
122.600206
31
0.0
0
LINE
8
HIDDEN
10
84.000836
20
194.393124
30
0.0
11
84.000836
21
193.662864
31
0.0
0
LINE
8
HIDDEN
10
84.000836
20
122.600206
30
0.0
11
84.000836
21
121.944599
31
0.0
0
LINE
8
HIDDEN
10
84.000836
20
195.378401
30
0.0
11
84.000836
21
194.393124
31
0.0
0
LINE
8
HIDDEN
10
84.000836
20
121.944599
30
0.0
11
84.000836
21
121.556387
31
0.0
0
LINE
8
HIDDEN
10
84.000836
20
196.606499
30
0.0
11
84.000836
21
195.378401
31
0.0
0
LINE
8
HIDDEN
10
84.000836
20
121.556387
30
0.0
11
84.000836
21
121.440398
31
0.0
0
LINE
8
HIDDEN
10
84.000836
20
198.062214
30
0.0
11
84.000836
21
196.606499
31
0.0
0
LINE
8
HIDDEN
10
84.000836
20
199.727526
30
0.0
11
84.000836
21
198.062214
31
0.0
0
LINE
8
HIDDEN
10
84.000836
20
201.581819
30
0.0
11
84.000836
21
199.727526
31
0.0
0
LINE
8
HIDDEN
10
84.000836
20
203.602140
30
0.0
11
84.000836
21
201.581819
31
0.0
0
LINE
8
HIDDEN
10
84.000836
20
205.763478
30
0.0
11
84.000836
21
203.602140
31
0.0
0
LINE
8
HIDDEN
10
84.000836
20
208.039077
30
0.0
11
84.000836
21
205.763478
31
0.0
0
LINE
8
HIDDEN
10
84.000836
20
210.400767
30
0.0
11
84.000836
21
208.039077
31
0.0
0
LINE
8
HIDDEN
10
84.000836
20
212.819313
30
0.0
11
84.000836
21
210.400767
31
0.0
0
LINE
8
HIDDEN
10
84.000836
20
215.264775
30
0.0
11
84.000836
21
212.819313
31
0.0
0
LINE
8
HIDDEN
10
84.000836
20
217.706881
30
0.0
11
84.000836
21
215.264775
31
0.0
0
LINE
8
HIDDEN
10
84.000836
20
220.115398
30
0.0
11
84.000836
21
217.706881
31
0.0
0
LINE
8
HIDDEN
10
84.000836
20
222.460511
30
0.0
11
84.000836
21
220.115398
31
0.0
0
LINE
8
HIDDEN
10
84.000836
20
224.713190
30
0.0
11
84.000836
21
222.460511
31
0.0
0
LINE
8
HIDDEN
10
84.000836
20
226.845548
30
0.0
11
84.000836
21
224.713190
31
0.0
0
LINE
8
HIDDEN
10
84.000836
20
228.831189
30
0.0
11
84.000836
21
226.845548
31
0.0
0
LINE
8
HIDDEN
10
84.000836
20
230.645532
30
0.0
11
84.000836
21
228.831189
31
0.0
0
LINE
8
HIDDEN
10
84.000836
20
232.266116
30
0.0
11
84.000836
21
230.645532
31
0.0
0
LINE
8
HIDDEN
10
84.000836
20
233.672881
30
0.0
11
84.000836
21
232.266116
31
0.0
0
LINE
8
HIDDEN
10
84.000836
20
234.848411
30
0.0
11
84.000836
21
233.672881
31
0.0
0
LINE
8
HIDDEN
10
84.000836
20
235.778155
30
0.0
11
84.000836
21
234.848411
31
0.0
0
LINE
8
HIDDEN
10
84.000836
20
236.450603
30
0.0
11
84.000836
21
235.778155
31
0.0
0
LINE
8
HIDDEN
10
84.000836
20
236.857431
30
0.0
11
84.000836
21
236.450603
31
0.0
0
LINE
8
HIDDEN
10
84.000836
20
237.000802
30
0.0
11
84.000836
21
236.857431
31
0.0
0
LINE
8
HIDDEN
10
84.000836
20
237.559602
30
0.0
11
84.000836
21
237.000802
31
0.0
0
LINE
8
HIDDEN
10
84.000836
20
162.439602
30
0.0
11
84.000836
21
124.439602
31
0.0
0
LINE
8
HIDDEN
10
84.000836
20
124.439602
30
0.0
11
84.000836
21
162.439602
31
0.0
0
LINE
8
HIDDEN
10
84.000836
20
162.439602
30
0.0
11
84.000836
21
179.439602
31
0.0
0
LINE
8
HIDDEN
10
84.000836
20
161.663145
30
0.0
11
84.000836
21
162.439602
31
0.0
0
LINE
8
HIDDEN
10
84.000836
20
179.439602
30
0.0
11
84.000836
21
180.216059
31
0.0
0
LINE
8
HIDDEN
10
84.000836
20
160.939602
30
0.0
11
84.000836
21
161.663145
31
0.0
0
LINE
8
HIDDEN
10
84.000836
20
180.216059
30
0.0
11
84.000836
21
180.939602
31
0.0
0
LINE
8
HIDDEN
10
84.000836
20
160.318281
30
0.0
11
84.000836
21
160.939602
31
0.0
0
LINE
8
HIDDEN
10
84.000836
20
180.939602
30
0.0
11
84.000836
21
181.560922
31
0.0
0
LINE
8
HIDDEN
10
84.000836
20
160.108380
30
0.0
11
84.000836
21
160.318281
31
0.0
0
LINE
8
HIDDEN
10
84.000836
20
181.560922
30
0.0
11
84.000836
21
182.037678
31
0.0
0
LINE
8
HIDDEN
10
84.000836
20
160.108380
30
0.0
11
84.000836
21
166.439602
31
0.0
0
LINE
8
HIDDEN
10
84.000836
20
182.037678
30
0.0
11
84.000836
21
182.337379
31
0.0
0
LINE
8
HIDDEN
10
84.000836
20
166.439602
30
0.0
11
84.000836
21
160.108380
31
0.0
0
LINE
8
HIDDEN
10
84.000836
20
182.337379
30
0.0
11
84.000836
21
182.439602
31
0.0
0
LINE
8
HIDDEN
10
84.000836
20
160.318281
30
0.0
11
84.000836
21
160.108380
31
0.0
0
LINE
8
HIDDEN
10
84.000836
20
160.939602
30
0.0
11
84.000836
21
160.318281
31
0.0
0
LINE
8
HIDDEN
10
84.000836
20
182.439602
30
0.0
11
84.000836
21
182.337379
31
0.0
0
LINE
8
HIDDEN
10
84.000836
20
161.663145
30
0.0
11
84.000836
21
160.939602
31
0.0
0
LINE
8
HIDDEN
10
84.000836
20
182.337379
30
0.0
11
84.000836
21
182.037678
31
0.0
0
LINE
8
HIDDEN
10
84.000836
20
162.439602
30
0.0
11
84.000836
21
161.663145
31
0.0
0
LINE
8
HIDDEN
10
84.000836
20
182.037678
30
0.0
11
84.000836
21
181.560922
31
0.0
0
LINE
8
HIDDEN
10
84.000836
20
179.439602
30
0.0
11
84.000836
21
162.439602
31
0.0
0
LINE
8
HIDDEN
10
84.000836
20
181.560922
30
0.0
11
84.000836
21
180.939602
31
0.0
0
LINE
8
HIDDEN
10
84.000836
20
180.216059
30
0.0
11
84.000836
21
179.439602
31
0.0
0
LINE
8
HIDDEN
10
84.000836
20
180.939602
30
0.0
11
84.000836
21
180.216059
31
0.0
0
LINE
8
HIDDEN
10
84.000836
20
233.993602
30
0.0
11
84.000836
21
195.993602
31
0.0
0
LINE
8
HIDDEN
10
84.000836
20
195.993602
30
0.0
11
84.000836
21
233.993602
31
0.0
0
LINE
8
HIDDEN
10
84.000836
20
190.639602
30
0.0
11
84.000836
21
186.239602
31
0.0
0
LINE
8
HIDDEN
10
84.000836
20
186.239602
30
0.0
11
84.000836
21
190.639602
31
0.0
0
LINE
8
HIDDEN
10
84.000836
20
190.639602
30
0.0
11
84.000836
21
186.239602
31
0.0
0
LINE
8
HIDDEN
10
84.000836
20
186.239602
30
0.0
11
84.000836
21
190.639602
31
0.0
0
LINE
8
HIDDEN
10
84.000836
20
201.193602
30
0.0
11
84.000836
21
196.793602
31
0.0
0
LINE
8
HIDDEN
10
84.000836
20
196.793602
30
0.0
11
84.000836
21
201.193602
31
0.0
0
LINE
8
HIDDEN
10
84.000836
20
231.999602
30
0.0
11
84.000836
21
230.485535
31
0.0
0
LINE
8
HIDDEN
10
84.000836
20
230.485535
30
0.0
11
84.000836
21
199.501668
31
0.0
0
LINE
8
HIDDEN
10
84.000836
20
199.501668
30
0.0
11
84.000836
21
197.999602
31
0.0
0
LINE
8
HIDDEN
10
84.000836
20
197.999602
30
0.0
11
84.000836
21
231.999602
31
0.0
0
LINE
8
HIDDEN
10
84.000836
20
197.399602
30
0.0
11
84.000836
21
218.599602
31
0.0
0
LINE
8
HIDDEN
10
84.000836
20
196.778436
30
0.0
11
84.000836
21
197.399602
31
0.0
0
LINE
8
HIDDEN
10
84.000836
20
218.599602
30
0.0
11
84.000836
21
219.220768
31
0.0
0
LINE
8
HIDDEN
10
84.000836
20
196.199602
30
0.0
11
84.000836
21
196.778436
31
0.0
0
LINE
8
HIDDEN
10
84.000836
20
219.220768
30
0.0
11
84.000836
21
219.799602
31
0.0
0
LINE
8
HIDDEN
10
84.000836
20
195.702546
30
0.0
11
84.000836
21
196.199602
31
0.0
0
LINE
8
HIDDEN
10
84.000836
20
219.799602
30
0.0
11
84.000836
21
220.296658
31
0.0
0
LINE
8
HIDDEN
10
84.000836
20
195.321141
30
0.0
11
84.000836
21
195.702546
31
0.0
0
LINE
8
HIDDEN
10
84.000836
20
220.296658
30
0.0
11
84.000836
21
220.678063
31
0.0
0
LINE
8
HIDDEN
10
84.000836
20
195.081380
30
0.0
11
84.000836
21
195.321141
31
0.0
0
LINE
8
HIDDEN
10
84.000836
20
220.678063
30
0.0
11
84.000836
21
220.917824
31
0.0
0
LINE
8
HIDDEN
10
84.000836
20
194.999602
30
0.0
11
84.000836
21
195.081380
31
0.0
0
LINE
8
HIDDEN
10
84.000836
20
220.917824
30
0.0
11
84.000836
21
220.999602
31
0.0
0
LINE
8
HIDDEN
10
84.000836
20
195.081380
30
0.0
11
84.000836
21
194.999602
31
0.0
0
LINE
8
HIDDEN
10
84.000836
20
220.999602
30
0.0
11
84.000836
21
220.917824
31
0.0
0
LINE
8
HIDDEN
10
84.000836
20
195.321141
30
0.0
11
84.000836
21
195.081380
31
0.0
0
LINE
8
HIDDEN
10
84.000836
20
220.917824
30
0.0
11
84.000836
21
220.678063
31
0.0
0
LINE
8
HIDDEN
10
84.000836
20
195.702546
30
0.0
11
84.000836
21
195.321141
31
0.0
0
LINE
8
HIDDEN
10
84.000836
20
220.678063
30
0.0
11
84.000836
21
220.296658
31
0.0
0
LINE
8
HIDDEN
10
84.000836
20
196.199602
30
0.0
11
84.000836
21
195.702546
31
0.0
0
LINE
8
HIDDEN
10
84.000836
20
220.296658
30
0.0
11
84.000836
21
219.799602
31
0.0
0
LINE
8
HIDDEN
10
84.000836
20
196.778436
30
0.0
11
84.000836
21
196.199602
31
0.0
0
LINE
8
HIDDEN
10
84.000836
20
219.799602
30
0.0
11
84.000836
21
219.220768
31
0.0
0
LINE
8
HIDDEN
10
84.000836
20
197.399602
30
0.0
11
84.000836
21
196.778436
31
0.0
0
LINE
8
HIDDEN
10
84.000836
20
219.220768
30
0.0
11
84.000836
21
218.599602
31
0.0
0
LINE
8
HIDDEN
10
84.000836
20
218.599602
30
0.0
11
84.000836
21
197.399602
31
0.0
0
LINE
8
HIDDEN
10
84.000836
20
233.193602
30
0.0
11
84.000836
21
228.793602
31
0.0
0
LINE
8
HIDDEN
10
84.000836
20
228.793602
30
0.0
11
84.000836
21
233.193602
31
0.0
0
LINE
8
HIDDEN
10
82.000836
20
183.119602
30
0.0
11
82.000836
21
181.439602
31
0.0
0
LINE
8
HIDDEN
10
82.000836
20
147.943213
30
0.0
11
82.000836
21
145.517152
31
0.0
0
LINE
8
HIDDEN
10
82.000836
20
186.019602
30
0.0
11
82.000836
21
183.119602
31
0.0
0
LINE
8
HIDDEN
10
82.000836
20
145.517152
30
0.0
11
82.000836
21
143.065247
31
0.0
0
LINE
8
HIDDEN
10
82.000836
20
190.679602
30
0.0
11
82.000836
21
186.019602
31
0.0
0
LINE
8
HIDDEN
10
82.000836
20
143.065247
30
0.0
11
82.000836
21
140.617998
31
0.0
0
LINE
8
HIDDEN
10
82.000836
20
192.879602
30
0.0
11
82.000836
21
190.679602
31
0.0
0
LINE
8
HIDDEN
10
82.000836
20
140.617998
30
0.0
11
82.000836
21
138.205850
31
0.0
0
LINE
8
HIDDEN
10
82.000836
20
194.379602
30
0.0
11
82.000836
21
192.879602
31
0.0
0
LINE
8
HIDDEN
10
82.000836
20
138.205850
30
0.0
11
82.000836
21
135.858809
31
0.0
0
LINE
8
HIDDEN
10
82.000836
20
195.059602
30
0.0
11
82.000836
21
194.379602
31
0.0
0
LINE
8
HIDDEN
10
82.000836
20
135.858809
30
0.0
11
82.000836
21
133.606072
31
0.0
0
LINE
8
HIDDEN
10
82.000836
20
194.911250
30
0.0
11
82.000836
21
195.059602
31
0.0
0
LINE
8
HIDDEN
10
82.000836
20
133.606072
30
0.0
11
82.000836
21
131.475663
31
0.0
0
LINE
8
HIDDEN
10
82.000836
20
194.037604
30
0.0
11
82.000836
21
194.911250
31
0.0
0
LINE
8
HIDDEN
10
82.000836
20
131.475663
30
0.0
11
82.000836
21
129.494083
31
0.0
0
LINE
8
HIDDEN
10
82.000836
20
193.423377
30
0.0
11
82.000836
21
194.037604
31
0.0
0
LINE
8
HIDDEN
10
82.000836
20
129.494083
30
0.0
11
82.000836
21
127.685984
31
0.0
0
LINE
8
HIDDEN
10
82.000836
20
193.076172
30
0.0
11
82.000836
21
193.423377
31
0.0
0
LINE
8
HIDDEN
10
82.000836
20
127.685984
30
0.0
11
82.000836
21
126.073857
31
0.0
0
LINE
8
HIDDEN
10
82.000836
20
193.000287
30
0.0
11
82.000836
21
193.076172
31
0.0
0
LINE
8
HIDDEN
10
82.000836
20
126.073857
30
0.0
11
82.000836
21
124.677758
31
0.0
0
LINE
8
HIDDEN
10
82.000836
20
193.196661
30
0.0
11
82.000836
21
193.000287
31
0.0
0
LINE
8
HIDDEN
10
82.000836
20
124.677758
30
0.0
11
82.000836
21
123.515053
31
0.0
0
LINE
8
HIDDEN
10
82.000836
20
193.662864
30
0.0
11
82.000836
21
193.196661
31
0.0
0
LINE
8
HIDDEN
10
82.000836
20
123.515053
30
0.0
11
82.000836
21
122.600206
31
0.0
0
LINE
8
HIDDEN
10
82.000836
20
194.393124
30
0.0
11
82.000836
21
193.662864
31
0.0
0
LINE
8
HIDDEN
10
82.000836
20
122.600206
30
0.0
11
82.000836
21
121.944599
31
0.0
0
LINE
8
HIDDEN
10
82.000836
20
195.378401
30
0.0
11
82.000836
21
194.393124
31
0.0
0
LINE
8
HIDDEN
10
82.000836
20
121.944599
30
0.0
11
82.000836
21
121.556387
31
0.0
0
LINE
8
HIDDEN
10
82.000836
20
196.606499
30
0.0
11
82.000836
21
195.378401
31
0.0
0
LINE
8
HIDDEN
10
82.000836
20
121.556387
30
0.0
11
82.000836
21
121.440398
31
0.0
0
LINE
8
HIDDEN
10
82.000836
20
198.062214
30
0.0
11
82.000836
21
196.606499
31
0.0
0
LINE
8
HIDDEN
10
82.000836
20
199.727526
30
0.0
11
82.000836
21
198.062214
31
0.0
0
LINE
8
HIDDEN
10
82.000836
20
201.581819
30
0.0
11
82.000836
21
199.727526
31
0.0
0
LINE
8
HIDDEN
10
82.000836
20
203.602140
30
0.0
11
82.000836
21
201.581819
31
0.0
0
LINE
8
HIDDEN
10
82.000836
20
205.763478
30
0.0
11
82.000836
21
203.602140
31
0.0
0
LINE
8
HIDDEN
10
82.000836
20
208.039077
30
0.0
11
82.000836
21
205.763478
31
0.0
0
LINE
8
HIDDEN
10
82.000836
20
210.400767
30
0.0
11
82.000836
21
208.039077
31
0.0
0
LINE
8
HIDDEN
10
82.000836
20
212.819313
30
0.0
11
82.000836
21
210.400767
31
0.0
0
LINE
8
HIDDEN
10
82.000836
20
215.264775
30
0.0
11
82.000836
21
212.819313
31
0.0
0
LINE
8
HIDDEN
10
82.000836
20
217.706881
30
0.0
11
82.000836
21
215.264775
31
0.0
0
LINE
8
HIDDEN
10
82.000836
20
220.115398
30
0.0
11
82.000836
21
217.706881
31
0.0
0
LINE
8
HIDDEN
10
82.000836
20
222.460511
30
0.0
11
82.000836
21
220.115398
31
0.0
0
LINE
8
HIDDEN
10
82.000836
20
224.713190
30
0.0
11
82.000836
21
222.460511
31
0.0
0
LINE
8
HIDDEN
10
82.000836
20
226.845548
30
0.0
11
82.000836
21
224.713190
31
0.0
0
LINE
8
HIDDEN
10
82.000836
20
228.831189
30
0.0
11
82.000836
21
226.845548
31
0.0
0
LINE
8
HIDDEN
10
82.000836
20
230.645532
30
0.0
11
82.000836
21
228.831189
31
0.0
0
LINE
8
HIDDEN
10
82.000836
20
232.266116
30
0.0
11
82.000836
21
230.645532
31
0.0
0
LINE
8
HIDDEN
10
82.000836
20
233.672881
30
0.0
11
82.000836
21
232.266116
31
0.0
0
LINE
8
HIDDEN
10
82.000836
20
234.848411
30
0.0
11
82.000836
21
233.672881
31
0.0
0
LINE
8
HIDDEN
10
82.000836
20
235.778155
30
0.0
11
82.000836
21
234.848411
31
0.0
0
LINE
8
HIDDEN
10
82.000836
20
236.450603
30
0.0
11
82.000836
21
235.778155
31
0.0
0
LINE
8
HIDDEN
10
82.000836
20
236.857431
30
0.0
11
82.000836
21
236.450603
31
0.0
0
LINE
8
HIDDEN
10
82.000836
20
237.000802
30
0.0
11
82.000836
21
236.857431
31
0.0
0
LINE
8
HIDDEN
10
82.000836
20
237.559602
30
0.0
11
82.000836
21
237.000802
31
0.0
0
LINE
8
HIDDEN
10
82.000836
20
162.439602
30
0.0
11
82.000836
21
124.439602
31
0.0
0
LINE
8
HIDDEN
10
82.000836
20
124.439602
30
0.0
11
82.000836
21
162.439602
31
0.0
0
LINE
8
HIDDEN
10
82.000836
20
162.439602
30
0.0
11
82.000836
21
179.439602
31
0.0
0
LINE
8
HIDDEN
10
82.000836
20
161.663145
30
0.0
11
82.000836
21
162.439602
31
0.0
0
LINE
8
HIDDEN
10
82.000836
20
179.439602
30
0.0
11
82.000836
21
180.216059
31
0.0
0
LINE
8
HIDDEN
10
82.000836
20
160.939602
30
0.0
11
82.000836
21
161.663145
31
0.0
0
LINE
8
HIDDEN
10
82.000836
20
180.216059
30
0.0
11
82.000836
21
180.939602
31
0.0
0
LINE
8
HIDDEN
10
82.000836
20
160.318281
30
0.0
11
82.000836
21
160.939602
31
0.0
0
LINE
8
HIDDEN
10
82.000836
20
180.939602
30
0.0
11
82.000836
21
181.560922
31
0.0
0
LINE
8
HIDDEN
10
82.000836
20
160.108380
30
0.0
11
82.000836
21
160.318281
31
0.0
0
LINE
8
HIDDEN
10
82.000836
20
181.560922
30
0.0
11
82.000836
21
182.037678
31
0.0
0
LINE
8
HIDDEN
10
82.000836
20
160.108380
30
0.0
11
82.000836
21
166.439602
31
0.0
0
LINE
8
HIDDEN
10
82.000836
20
182.037678
30
0.0
11
82.000836
21
182.337379
31
0.0
0
LINE
8
HIDDEN
10
82.000836
20
166.439602
30
0.0
11
82.000836
21
160.108380
31
0.0
0
LINE
8
HIDDEN
10
82.000836
20
182.337379
30
0.0
11
82.000836
21
182.439602
31
0.0
0
LINE
8
HIDDEN
10
82.000836
20
160.318281
30
0.0
11
82.000836
21
160.108380
31
0.0
0
LINE
8
HIDDEN
10
82.000836
20
160.939602
30
0.0
11
82.000836
21
160.318281
31
0.0
0
LINE
8
HIDDEN
10
82.000836
20
182.439602
30
0.0
11
82.000836
21
182.337379
31
0.0
0
LINE
8
HIDDEN
10
82.000836
20
161.663145
30
0.0
11
82.000836
21
160.939602
31
0.0
0
LINE
8
HIDDEN
10
82.000836
20
182.337379
30
0.0
11
82.000836
21
182.037678
31
0.0
0
LINE
8
HIDDEN
10
82.000836
20
162.439602
30
0.0
11
82.000836
21
161.663145
31
0.0
0
LINE
8
HIDDEN
10
82.000836
20
182.037678
30
0.0
11
82.000836
21
181.560922
31
0.0
0
LINE
8
HIDDEN
10
82.000836
20
179.439602
30
0.0
11
82.000836
21
162.439602
31
0.0
0
LINE
8
HIDDEN
10
82.000836
20
181.560922
30
0.0
11
82.000836
21
180.939602
31
0.0
0
LINE
8
HIDDEN
10
82.000836
20
180.216059
30
0.0
11
82.000836
21
179.439602
31
0.0
0
LINE
8
HIDDEN
10
82.000836
20
180.939602
30
0.0
11
82.000836
21
180.216059
31
0.0
0
LINE
8
HIDDEN
10
82.000836
20
233.993602
30
0.0
11
82.000836
21
195.993602
31
0.0
0
LINE
8
HIDDEN
10
82.000836
20
195.993602
30
0.0
11
82.000836
21
233.993602
31
0.0
0
LINE
8
HIDDEN
10
82.000836
20
190.639602
30
0.0
11
82.000836
21
186.239602
31
0.0
0
LINE
8
HIDDEN
10
82.000836
20
186.239602
30
0.0
11
82.000836
21
190.639602
31
0.0
0
LINE
8
HIDDEN
10
82.000836
20
190.639602
30
0.0
11
82.000836
21
186.239602
31
0.0
0
LINE
8
HIDDEN
10
82.000836
20
186.239602
30
0.0
11
82.000836
21
190.639602
31
0.0
0
LINE
8
HIDDEN
10
82.000836
20
201.193602
30
0.0
11
82.000836
21
196.793602
31
0.0
0
LINE
8
HIDDEN
10
82.000836
20
196.793602
30
0.0
11
82.000836
21
201.193602
31
0.0
0
LINE
8
HIDDEN
10
82.000836
20
231.999602
30
0.0
11
82.000836
21
230.485535
31
0.0
0
LINE
8
HIDDEN
10
82.000836
20
230.485535
30
0.0
11
82.000836
21
199.501668
31
0.0
0
LINE
8
HIDDEN
10
82.000836
20
199.501668
30
0.0
11
82.000836
21
197.999602
31
0.0
0
LINE
8
HIDDEN
10
82.000836
20
197.999602
30
0.0
11
82.000836
21
231.999602
31
0.0
0
LINE
8
HIDDEN
10
82.000836
20
197.399602
30
0.0
11
82.000836
21
218.599602
31
0.0
0
LINE
8
HIDDEN
10
82.000836
20
196.778436
30
0.0
11
82.000836
21
197.399602
31
0.0
0
LINE
8
HIDDEN
10
82.000836
20
218.599602
30
0.0
11
82.000836
21
219.220768
31
0.0
0
LINE
8
HIDDEN
10
82.000836
20
196.199602
30
0.0
11
82.000836
21
196.778436
31
0.0
0
LINE
8
HIDDEN
10
82.000836
20
219.220768
30
0.0
11
82.000836
21
219.799602
31
0.0
0
LINE
8
HIDDEN
10
82.000836
20
195.702546
30
0.0
11
82.000836
21
196.199602
31
0.0
0
LINE
8
HIDDEN
10
82.000836
20
219.799602
30
0.0
11
82.000836
21
220.296658
31
0.0
0
LINE
8
HIDDEN
10
82.000836
20
195.321141
30
0.0
11
82.000836
21
195.702546
31
0.0
0
LINE
8
HIDDEN
10
82.000836
20
220.296658
30
0.0
11
82.000836
21
220.678063
31
0.0
0
LINE
8
HIDDEN
10
82.000836
20
195.081380
30
0.0
11
82.000836
21
195.321141
31
0.0
0
LINE
8
HIDDEN
10
82.000836
20
220.678063
30
0.0
11
82.000836
21
220.917824
31
0.0
0
LINE
8
HIDDEN
10
82.000836
20
194.999602
30
0.0
11
82.000836
21
195.081380
31
0.0
0
LINE
8
HIDDEN
10
82.000836
20
220.917824
30
0.0
11
82.000836
21
220.999602
31
0.0
0
LINE
8
HIDDEN
10
82.000836
20
195.081380
30
0.0
11
82.000836
21
194.999602
31
0.0
0
LINE
8
HIDDEN
10
82.000836
20
220.999602
30
0.0
11
82.000836
21
220.917824
31
0.0
0
LINE
8
HIDDEN
10
82.000836
20
195.321141
30
0.0
11
82.000836
21
195.081380
31
0.0
0
LINE
8
HIDDEN
10
82.000836
20
220.917824
30
0.0
11
82.000836
21
220.678063
31
0.0
0
LINE
8
HIDDEN
10
82.000836
20
195.702546
30
0.0
11
82.000836
21
195.321141
31
0.0
0
LINE
8
HIDDEN
10
82.000836
20
220.678063
30
0.0
11
82.000836
21
220.296658
31
0.0
0
LINE
8
HIDDEN
10
82.000836
20
196.199602
30
0.0
11
82.000836
21
195.702546
31
0.0
0
LINE
8
HIDDEN
10
82.000836
20
220.296658
30
0.0
11
82.000836
21
219.799602
31
0.0
0
LINE
8
HIDDEN
10
82.000836
20
196.778436
30
0.0
11
82.000836
21
196.199602
31
0.0
0
LINE
8
HIDDEN
10
82.000836
20
219.799602
30
0.0
11
82.000836
21
219.220768
31
0.0
0
LINE
8
HIDDEN
10
82.000836
20
197.399602
30
0.0
11
82.000836
21
196.778436
31
0.0
0
LINE
8
HIDDEN
10
82.000836
20
219.220768
30
0.0
11
82.000836
21
218.599602
31
0.0
0
LINE
8
HIDDEN
10
82.000836
20
218.599602
30
0.0
11
82.000836
21
197.399602
31
0.0
0
LINE
8
HIDDEN
10
82.000836
20
233.193602
30
0.0
11
82.000836
21
228.793602
31
0.0
0
LINE
8
HIDDEN
10
82.000836
20
228.793602
30
0.0
11
82.000836
21
233.193602
31
0.0
0
LINE
8
HIDDEN
10
84.000836
20
183.119602
30
0.0
11
82.000836
21
183.119602
31
0.0
0
LINE
8
HIDDEN
10
84.000836
20
145.517152
30
0.0
11
82.000836
21
145.517152
31
0.0
0
LINE
8
HIDDEN
10
84.000836
20
186.019602
30
0.0
11
82.000836
21
186.019602
31
0.0
0
LINE
8
HIDDEN
10
84.000836
20
143.065247
30
0.0
11
82.000836
21
143.065247
31
0.0
0
LINE
8
HIDDEN
10
84.000836
20
190.679602
30
0.0
11
82.000836
21
190.679602
31
0.0
0
LINE
8
HIDDEN
10
84.000836
20
140.617998
30
0.0
11
82.000836
21
140.617998
31
0.0
0
LINE
8
HIDDEN
10
84.000836
20
192.879602
30
0.0
11
82.000836
21
192.879602
31
0.0
0
LINE
8
HIDDEN
10
84.000836
20
138.205850
30
0.0
11
82.000836
21
138.205850
31
0.0
0
LINE
8
HIDDEN
10
84.000836
20
194.379602
30
0.0
11
82.000836
21
194.379602
31
0.0
0
LINE
8
HIDDEN
10
84.000836
20
135.858809
30
0.0
11
82.000836
21
135.858809
31
0.0
0
LINE
8
HIDDEN
10
84.000836
20
195.059602
30
0.0
11
82.000836
21
195.059602
31
0.0
0
LINE
8
HIDDEN
10
84.000836
20
133.606072
30
0.0
11
82.000836
21
133.606072
31
0.0
0
LINE
8
HIDDEN
10
84.000836
20
194.911250
30
0.0
11
82.000836
21
194.911250
31
0.0
0
LINE
8
HIDDEN
10
84.000836
20
131.475663
30
0.0
11
82.000836
21
131.475663
31
0.0
0
LINE
8
HIDDEN
10
84.000836
20
194.037604
30
0.0
11
82.000836
21
194.037604
31
0.0
0
LINE
8
HIDDEN
10
84.000836
20
129.494083
30
0.0
11
82.000836
21
129.494083
31
0.0
0
LINE
8
HIDDEN
10
84.000836
20
193.423377
30
0.0
11
82.000836
21
193.423377
31
0.0
0
LINE
8
HIDDEN
10
84.000836
20
127.685984
30
0.0
11
82.000836
21
127.685984
31
0.0
0
LINE
8
HIDDEN
10
84.000836
20
193.076172
30
0.0
11
82.000836
21
193.076172
31
0.0
0
LINE
8
HIDDEN
10
84.000836
20
126.073857
30
0.0
11
82.000836
21
126.073857
31
0.0
0
LINE
8
HIDDEN
10
84.000836
20
193.000287
30
0.0
11
82.000836
21
193.000287
31
0.0
0
LINE
8
HIDDEN
10
84.000836
20
124.677758
30
0.0
11
82.000836
21
124.677758
31
0.0
0
LINE
8
HIDDEN
10
84.000836
20
193.196661
30
0.0
11
82.000836
21
193.196661
31
0.0
0
LINE
8
HIDDEN
10
84.000836
20
123.515053
30
0.0
11
82.000836
21
123.515053
31
0.0
0
LINE
8
HIDDEN
10
84.000836
20
193.662864
30
0.0
11
82.000836
21
193.662864
31
0.0
0
LINE
8
HIDDEN
10
84.000836
20
122.600206
30
0.0
11
82.000836
21
122.600206
31
0.0
0
LINE
8
HIDDEN
10
84.000836
20
194.393124
30
0.0
11
82.000836
21
194.393124
31
0.0
0
LINE
8
HIDDEN
10
84.000836
20
121.944599
30
0.0
11
82.000836
21
121.944599
31
0.0
0
LINE
8
HIDDEN
10
84.000836
20
195.378401
30
0.0
11
82.000836
21
195.378401
31
0.0
0
LINE
8
HIDDEN
10
84.000836
20
121.556387
30
0.0
11
82.000836
21
121.556387
31
0.0
0
LINE
8
HIDDEN
10
84.000836
20
196.606499
30
0.0
11
82.000836
21
196.606499
31
0.0
0
LINE
8
HIDDEN
10
84.000836
20
198.062214
30
0.0
11
82.000836
21
198.062214
31
0.0
0
LINE
8
HIDDEN
10
84.000836
20
199.727526
30
0.0
11
82.000836
21
199.727526
31
0.0
0
LINE
8
HIDDEN
10
84.000836
20
201.581819
30
0.0
11
82.000836
21
201.581819
31
0.0
0
LINE
8
HIDDEN
10
84.000836
20
203.602140
30
0.0
11
82.000836
21
203.602140
31
0.0
0
LINE
8
HIDDEN
10
84.000836
20
205.763478
30
0.0
11
82.000836
21
205.763478
31
0.0
0
LINE
8
HIDDEN
10
84.000836
20
208.039077
30
0.0
11
82.000836
21
208.039077
31
0.0
0
LINE
8
HIDDEN
10
84.000836
20
210.400767
30
0.0
11
82.000836
21
210.400767
31
0.0
0
LINE
8
HIDDEN
10
84.000836
20
212.819313
30
0.0
11
82.000836
21
212.819313
31
0.0
0
LINE
8
HIDDEN
10
84.000836
20
215.264775
30
0.0
11
82.000836
21
215.264775
31
0.0
0
LINE
8
HIDDEN
10
84.000836
20
217.706881
30
0.0
11
82.000836
21
217.706881
31
0.0
0
LINE
8
HIDDEN
10
84.000836
20
220.115398
30
0.0
11
82.000836
21
220.115398
31
0.0
0
LINE
8
HIDDEN
10
84.000836
20
222.460511
30
0.0
11
82.000836
21
222.460511
31
0.0
0
LINE
8
HIDDEN
10
84.000836
20
224.713190
30
0.0
11
82.000836
21
224.713190
31
0.0
0
LINE
8
HIDDEN
10
84.000836
20
226.845548
30
0.0
11
82.000836
21
226.845548
31
0.0
0
LINE
8
HIDDEN
10
84.000836
20
228.831189
30
0.0
11
82.000836
21
228.831189
31
0.0
0
LINE
8
HIDDEN
10
84.000836
20
230.645532
30
0.0
11
82.000836
21
230.645532
31
0.0
0
LINE
8
HIDDEN
10
84.000836
20
232.266116
30
0.0
11
82.000836
21
232.266116
31
0.0
0
LINE
8
HIDDEN
10
84.000836
20
233.672881
30
0.0
11
82.000836
21
233.672881
31
0.0
0
LINE
8
HIDDEN
10
84.000836
20
234.848411
30
0.0
11
82.000836
21
234.848411
31
0.0
0
LINE
8
HIDDEN
10
84.000836
20
235.778155
30
0.0
11
82.000836
21
235.778155
31
0.0
0
LINE
8
HIDDEN
10
84.000836
20
236.450603
30
0.0
11
82.000836
21
236.450603
31
0.0
0
LINE
8
HIDDEN
10
84.000836
20
236.857431
30
0.0
11
82.000836
21
236.857431
31
0.0
0
LINE
8
HIDDEN
10
84.000836
20
237.000802
30
0.0
11
82.000836
21
237.000802
31
0.0
0
LINE
8
HIDDEN
10
84.000836
20
162.439602
30
0.0
11
82.000836
21
162.439602
31
0.0
0
LINE
8
HIDDEN
10
84.000836
20
179.439602
30
0.0
11
82.000836
21
179.439602
31
0.0
0
LINE
8
HIDDEN
10
84.000836
20
162.439602
30
0.0
11
82.000836
21
162.439602
31
0.0
0
LINE
8
HIDDEN
10
84.000836
20
161.663145
30
0.0
11
82.000836
21
161.663145
31
0.0
0
LINE
8
HIDDEN
10
84.000836
20
180.216059
30
0.0
11
82.000836
21
180.216059
31
0.0
0
LINE
8
HIDDEN
10
84.000836
20
160.939602
30
0.0
11
82.000836
21
160.939602
31
0.0
0
LINE
8
HIDDEN
10
84.000836
20
180.939602
30
0.0
11
82.000836
21
180.939602
31
0.0
0
LINE
8
HIDDEN
10
84.000836
20
160.318281
30
0.0
11
82.000836
21
160.318281
31
0.0
0
LINE
8
HIDDEN
10
84.000836
20
181.560922
30
0.0
11
82.000836
21
181.560922
31
0.0
0
LINE
8
HIDDEN
10
84.000836
20
160.108380
30
0.0
11
82.000836
21
160.108380
31
0.0
0
LINE
8
HIDDEN
10
84.000836
20
182.037678
30
0.0
11
82.000836
21
182.037678
31
0.0
0
LINE
8
HIDDEN
10
84.000836
20
182.337379
30
0.0
11
82.000836
21
182.337379
31
0.0
0
LINE
8
HIDDEN
10
84.000836
20
182.439602
30
0.0
11
82.000836
21
182.439602
31
0.0
0
LINE
8
HIDDEN
10
84.000836
20
160.108380
30
0.0
11
82.000836
21
160.108380
31
0.0
0
LINE
8
HIDDEN
10
84.000836
20
160.318281
30
0.0
11
82.000836
21
160.318281
31
0.0
0
LINE
8
HIDDEN
10
84.000836
20
182.439602
30
0.0
11
82.000836
21
182.439602
31
0.0
0
LINE
8
HIDDEN
10
84.000836
20
160.939602
30
0.0
11
82.000836
21
160.939602
31
0.0
0
LINE
8
HIDDEN
10
84.000836
20
182.337379
30
0.0
11
82.000836
21
182.337379
31
0.0
0
LINE
8
HIDDEN
10
84.000836
20
161.663145
30
0.0
11
82.000836
21
161.663145
31
0.0
0
LINE
8
HIDDEN
10
84.000836
20
182.037678
30
0.0
11
82.000836
21
182.037678
31
0.0
0
LINE
8
HIDDEN
10
84.000836
20
162.439602
30
0.0
11
82.000836
21
162.439602
31
0.0
0
LINE
8
HIDDEN
10
84.000836
20
181.560922
30
0.0
11
82.000836
21
181.560922
31
0.0
0
LINE
8
HIDDEN
10
84.000836
20
179.439602
30
0.0
11
82.000836
21
179.439602
31
0.0
0
LINE
8
HIDDEN
10
84.000836
20
180.939602
30
0.0
11
82.000836
21
180.939602
31
0.0
0
LINE
8
HIDDEN
10
84.000836
20
180.216059
30
0.0
11
82.000836
21
180.216059
31
0.0
0
LINE
8
HIDDEN
10
84.000836
20
233.993602
30
0.0
11
82.000836
21
233.993602
31
0.0
0
LINE
8
HIDDEN
10
84.000836
20
190.639602
30
0.0
11
82.000836
21
190.639602
31
0.0
0
LINE
8
HIDDEN
10
84.000836
20
190.639602
30
0.0
11
82.000836
21
190.639602
31
0.0
0
LINE
8
HIDDEN
10
84.000836
20
201.193602
30
0.0
11
82.000836
21
201.193602
31
0.0
0
LINE
8
HIDDEN
10
84.000836
20
231.999602
30
0.0
11
82.000836
21
231.999602
31
0.0
0
LINE
8
HIDDEN
10
84.000836
20
231.999602
30
0.0
11
82.000836
21
231.999602
31
0.0
0
LINE
8
HIDDEN
10
84.000836
20
230.485535
30
0.0
11
82.000836
21
230.485535
31
0.0
0
LINE
8
HIDDEN
10
84.000836
20
199.501668
30
0.0
11
82.000836
21
199.501668
31
0.0
0
LINE
8
HIDDEN
10
84.000836
20
197.999602
30
0.0
11
82.000836
21
197.999602
31
0.0
0
LINE
8
HIDDEN
10
84.000836
20
197.999602
30
0.0
11
82.000836
21
197.999602
31
0.0
0
LINE
8
HIDDEN
10
84.000836
20
218.599602
30
0.0
11
82.000836
21
218.599602
31
0.0
0
LINE
8
HIDDEN
10
84.000836
20
197.399602
30
0.0
11
82.000836
21
197.399602
31
0.0
0
LINE
8
HIDDEN
10
84.000836
20
196.778436
30
0.0
11
82.000836
21
196.778436
31
0.0
0
LINE
8
HIDDEN
10
84.000836
20
219.220768
30
0.0
11
82.000836
21
219.220768
31
0.0
0
LINE
8
HIDDEN
10
84.000836
20
196.199602
30
0.0
11
82.000836
21
196.199602
31
0.0
0
LINE
8
HIDDEN
10
84.000836
20
219.799602
30
0.0
11
82.000836
21
219.799602
31
0.0
0
LINE
8
HIDDEN
10
84.000836
20
195.702546
30
0.0
11
82.000836
21
195.702546
31
0.0
0
LINE
8
HIDDEN
10
84.000836
20
220.296658
30
0.0
11
82.000836
21
220.296658
31
0.0
0
LINE
8
HIDDEN
10
84.000836
20
195.321141
30
0.0
11
82.000836
21
195.321141
31
0.0
0
LINE
8
HIDDEN
10
84.000836
20
220.678063
30
0.0
11
82.000836
21
220.678063
31
0.0
0
LINE
8
HIDDEN
10
84.000836
20
195.081380
30
0.0
11
82.000836
21
195.081380
31
0.0
0
LINE
8
HIDDEN
10
84.000836
20
220.917824
30
0.0
11
82.000836
21
220.917824
31
0.0
0
LINE
8
HIDDEN
10
84.000836
20
194.999602
30
0.0
11
82.000836
21
194.999602
31
0.0
0
LINE
8
HIDDEN
10
84.000836
20
220.999602
30
0.0
11
82.000836
21
220.999602
31
0.0
0
LINE
8
HIDDEN
10
84.000836
20
194.999602
30
0.0
11
82.000836
21
194.999602
31
0.0
0
LINE
8
HIDDEN
10
84.000836
20
220.999602
30
0.0
11
82.000836
21
220.999602
31
0.0
0
LINE
8
HIDDEN
10
84.000836
20
195.081380
30
0.0
11
82.000836
21
195.081380
31
0.0
0
LINE
8
HIDDEN
10
84.000836
20
220.917824
30
0.0
11
82.000836
21
220.917824
31
0.0
0
LINE
8
HIDDEN
10
84.000836
20
195.321141
30
0.0
11
82.000836
21
195.321141
31
0.0
0
LINE
8
HIDDEN
10
84.000836
20
220.678063
30
0.0
11
82.000836
21
220.678063
31
0.0
0
LINE
8
HIDDEN
10
84.000836
20
195.702546
30
0.0
11
82.000836
21
195.702546
31
0.0
0
LINE
8
HIDDEN
10
84.000836
20
220.296658
30
0.0
11
82.000836
21
220.296658
31
0.0
0
LINE
8
HIDDEN
10
84.000836
20
196.199602
30
0.0
11
82.000836
21
196.199602
31
0.0
0
LINE
8
HIDDEN
10
84.000836
20
219.799602
30
0.0
11
82.000836
21
219.799602
31
0.0
0
LINE
8
HIDDEN
10
84.000836
20
196.778436
30
0.0
11
82.000836
21
196.778436
31
0.0
0
LINE
8
HIDDEN
10
84.000836
20
219.220768
30
0.0
11
82.000836
21
219.220768
31
0.0
0
LINE
8
HIDDEN
10
84.000836
20
197.399602
30
0.0
11
82.000836
21
197.399602
31
0.0
0
LINE
8
HIDDEN
10
84.000836
20
218.599602
30
0.0
11
82.000836
21
218.599602
31
0.0
0
LINE
8
HIDDEN
10
84.000836
20
233.193602
30
0.0
11
82.000836
21
233.193602
31
0.0
0
LINE
8
HIDDEN
10
84.000836
20
124.439602
30
0.0
11
82.000836
21
124.439602
31
0.0
0
LINE
8
HIDDEN
10
84.000836
20
195.993602
30
0.0
11
82.000836
21
195.993602
31
0.0
0
LINE
8
HIDDEN
10
84.000836
20
186.239602
30
0.0
11
82.000836
21
186.239602
31
0.0
0
LINE
8
HIDDEN
10
84.000836
20
186.239602
30
0.0
11
82.000836
21
186.239602
31
0.0
0
LINE
8
HIDDEN
10
84.000836
20
196.793602
30
0.0
11
82.000836
21
196.793602
31
0.0
0
LINE
8
HIDDEN
10
84.000836
20
228.793602
30
0.0
11
82.000836
21
228.793602
31
0.0
0
LINE
8
HIDDEN
10
84.000836
20
166.439602
30
0.0
11
82.000836
21
166.439602
31
0.0
0
LINE
8
VISIBLE
10
259.999164
20
237.442429
30
0.0
11
259.999164
21
237.508868
31
0.0
0
LINE
8
VISIBLE
10
259.999164
20
237.096842
30
0.0
11
259.999164
21
237.442429
31
0.0
0
LINE
8
VISIBLE
10
259.999164
20
236.524563
30
0.0
11
259.999164
21
237.096842
31
0.0
0
LINE
8
VISIBLE
10
259.999164
20
235.731104
30
0.0
11
259.999164
21
236.524563
31
0.0
0
LINE
8
VISIBLE
10
259.999164
20
234.724106
30
0.0
11
259.999164
21
235.731104
31
0.0
0
LINE
8
VISIBLE
10
259.999164
20
233.513266
30
0.0
11
259.999164
21
234.724106
31
0.0
0
LINE
8
VISIBLE
10
259.999164
20
232.110246
30
0.0
11
259.999164
21
233.513266
31
0.0
0
LINE
8
VISIBLE
10
259.999164
20
230.528558
30
0.0
11
259.999164
21
232.110246
31
0.0
0
LINE
8
VISIBLE
10
259.999164
20
228.783434
30
0.0
11
259.999164
21
230.528558
31
0.0
0
LINE
8
VISIBLE
10
259.999164
20
226.891681
30
0.0
11
259.999164
21
228.783434
31
0.0
0
LINE
8
VISIBLE
10
259.999164
20
224.871517
30
0.0
11
259.999164
21
226.891681
31
0.0
0
LINE
8
VISIBLE
10
259.999164
20
222.742398
30
0.0
11
259.999164
21
224.871517
31
0.0
0
LINE
8
VISIBLE
10
259.999164
20
220.524828
30
0.0
11
259.999164
21
222.742398
31
0.0
0
LINE
8
VISIBLE
10
259.999164
20
218.240163
30
0.0
11
259.999164
21
220.524828
31
0.0
0
LINE
8
VISIBLE
10
259.999164
20
215.910407
30
0.0
11
259.999164
21
218.240163
31
0.0
0
LINE
8
VISIBLE
10
259.999164
20
213.557995
30
0.0
11
259.999164
21
215.910407
31
0.0
0
LINE
8
VISIBLE
10
259.999164
20
143.437995
30
0.0
11
259.999164
21
213.557995
31
0.0
0
LINE
8
VISIBLE
10
259.999164
20
140.988064
30
0.0
11
259.999164
21
143.437995
31
0.0
0
LINE
8
VISIBLE
10
259.999164
20
138.568609
30
0.0
11
259.999164
21
140.988064
31
0.0
0
LINE
8
VISIBLE
10
259.999164
20
136.209729
30
0.0
11
259.999164
21
138.568609
31
0.0
0
LINE
8
VISIBLE
10
259.999164
20
133.940767
30
0.0
11
259.999164
21
136.209729
31
0.0
0
LINE
8
VISIBLE
10
259.999164
20
131.789949
30
0.0
11
259.999164
21
133.940767
31
0.0
0
LINE
8
VISIBLE
10
259.999164
20
129.784031
30
0.0
11
259.999164
21
131.789949
31
0.0
0
LINE
8
VISIBLE
10
259.999164
20
127.947967
30
0.0
11
259.999164
21
129.784031
31
0.0
0
LINE
8
VISIBLE
10
259.999164
20
126.304597
30
0.0
11
259.999164
21
127.947967
31
0.0
0
LINE
8
VISIBLE
10
259.999164
20
124.874363
30
0.0
11
259.999164
21
126.304597
31
0.0
0
LINE
8
VISIBLE
10
259.999164
20
123.675058
30
0.0
11
259.999164
21
124.874363
31
0.0
0
LINE
8
VISIBLE
10
259.999164
20
122.721602
30
0.0
11
259.999164
21
123.675058
31
0.0
0
LINE
8
VISIBLE
10
259.999164
20
122.025854
30
0.0
11
259.999164
21
122.721602
31
0.0
0
LINE
8
VISIBLE
10
259.999164
20
121.596470
30
0.0
11
259.999164
21
122.025854
31
0.0
0
LINE
8
VISIBLE
10
259.999164
20
121.491132
30
0.0
11
259.999164
21
121.596470
31
0.0
0
LINE
8
VISIBLE
10
257.999164
20
237.442429
30
0.0
11
257.999164
21
237.508868
31
0.0
0
LINE
8
VISIBLE
10
259.999164
20
237.442429
30
0.0
11
257.999164
21
237.442429
31
0.0
0
LINE
8
VISIBLE
10
259.999164
20
237.096842
30
0.0
11
257.999164
21
237.096842
31
0.0
0
LINE
8
VISIBLE
10
257.999164
20
237.096842
30
0.0
11
257.999164
21
237.442429
31
0.0
0
LINE
8
VISIBLE
10
259.999164
20
236.524563
30
0.0
11
257.999164
21
236.524563
31
0.0
0
LINE
8
VISIBLE
10
257.999164
20
236.524563
30
0.0
11
257.999164
21
237.096842
31
0.0
0
LINE
8
VISIBLE
10
259.999164
20
235.731104
30
0.0
11
257.999164
21
235.731104
31
0.0
0
LINE
8
VISIBLE
10
257.999164
20
235.731104
30
0.0
11
257.999164
21
236.524563
31
0.0
0
LINE
8
VISIBLE
10
259.999164
20
234.724106
30
0.0
11
257.999164
21
234.724106
31
0.0
0
LINE
8
VISIBLE
10
257.999164
20
234.724106
30
0.0
11
257.999164
21
235.731104
31
0.0
0
LINE
8
VISIBLE
10
259.999164
20
233.513266
30
0.0
11
257.999164
21
233.513266
31
0.0
0
LINE
8
VISIBLE
10
257.999164
20
233.513266
30
0.0
11
257.999164
21
234.724106
31
0.0
0
LINE
8
VISIBLE
10
259.999164
20
232.110246
30
0.0
11
257.999164
21
232.110246
31
0.0
0
LINE
8
VISIBLE
10
257.999164
20
232.110246
30
0.0
11
257.999164
21
233.513266
31
0.0
0
LINE
8
VISIBLE
10
259.999164
20
230.528558
30
0.0
11
257.999164
21
230.528558
31
0.0
0
LINE
8
VISIBLE
10
257.999164
20
230.528558
30
0.0
11
257.999164
21
232.110246
31
0.0
0
LINE
8
VISIBLE
10
259.999164
20
228.783434
30
0.0
11
257.999164
21
228.783434
31
0.0
0
LINE
8
VISIBLE
10
257.999164
20
228.783434
30
0.0
11
257.999164
21
230.528558
31
0.0
0
LINE
8
VISIBLE
10
259.999164
20
226.891681
30
0.0
11
257.999164
21
226.891681
31
0.0
0
LINE
8
VISIBLE
10
257.999164
20
226.891681
30
0.0
11
257.999164
21
228.783434
31
0.0
0
LINE
8
VISIBLE
10
259.999164
20
224.871517
30
0.0
11
257.999164
21
224.871517
31
0.0
0
LINE
8
VISIBLE
10
257.999164
20
224.871517
30
0.0
11
257.999164
21
226.891681
31
0.0
0
LINE
8
VISIBLE
10
259.999164
20
222.742398
30
0.0
11
257.999164
21
222.742398
31
0.0
0
LINE
8
VISIBLE
10
257.999164
20
222.742398
30
0.0
11
257.999164
21
224.871517
31
0.0
0
LINE
8
VISIBLE
10
259.999164
20
220.524828
30
0.0
11
257.999164
21
220.524828
31
0.0
0
LINE
8
VISIBLE
10
257.999164
20
220.524828
30
0.0
11
257.999164
21
222.742398
31
0.0
0
LINE
8
VISIBLE
10
259.999164
20
218.240163
30
0.0
11
257.999164
21
218.240163
31
0.0
0
LINE
8
VISIBLE
10
257.999164
20
218.240163
30
0.0
11
257.999164
21
220.524828
31
0.0
0
LINE
8
VISIBLE
10
259.999164
20
215.910407
30
0.0
11
257.999164
21
215.910407
31
0.0
0
LINE
8
VISIBLE
10
257.999164
20
215.910407
30
0.0
11
257.999164
21
218.240163
31
0.0
0
LINE
8
VISIBLE
10
259.999164
20
213.557995
30
0.0
11
257.999164
21
213.557995
31
0.0
0
LINE
8
VISIBLE
10
257.999164
20
213.557995
30
0.0
11
257.999164
21
215.910407
31
0.0
0
LINE
8
VISIBLE
10
259.999164
20
143.437995
30
0.0
11
257.999164
21
143.437995
31
0.0
0
LINE
8
VISIBLE
10
257.999164
20
143.437995
30
0.0
11
257.999164
21
213.557995
31
0.0
0
LINE
8
VISIBLE
10
259.999164
20
140.988064
30
0.0
11
257.999164
21
140.988064
31
0.0
0
LINE
8
VISIBLE
10
257.999164
20
140.988064
30
0.0
11
257.999164
21
143.437995
31
0.0
0
LINE
8
VISIBLE
10
259.999164
20
138.568609
30
0.0
11
257.999164
21
138.568609
31
0.0
0
LINE
8
VISIBLE
10
257.999164
20
138.568609
30
0.0
11
257.999164
21
140.988064
31
0.0
0
LINE
8
VISIBLE
10
259.999164
20
136.209729
30
0.0
11
257.999164
21
136.209729
31
0.0
0
LINE
8
VISIBLE
10
257.999164
20
136.209729
30
0.0
11
257.999164
21
138.568609
31
0.0
0
LINE
8
VISIBLE
10
259.999164
20
133.940767
30
0.0
11
257.999164
21
133.940767
31
0.0
0
LINE
8
VISIBLE
10
257.999164
20
133.940767
30
0.0
11
257.999164
21
136.209729
31
0.0
0
LINE
8
VISIBLE
10
259.999164
20
131.789949
30
0.0
11
257.999164
21
131.789949
31
0.0
0
LINE
8
VISIBLE
10
257.999164
20
131.789949
30
0.0
11
257.999164
21
133.940767
31
0.0
0
LINE
8
VISIBLE
10
259.999164
20
129.784031
30
0.0
11
257.999164
21
129.784031
31
0.0
0
LINE
8
VISIBLE
10
257.999164
20
129.784031
30
0.0
11
257.999164
21
131.789949
31
0.0
0
LINE
8
VISIBLE
10
259.999164
20
127.947967
30
0.0
11
257.999164
21
127.947967
31
0.0
0
LINE
8
VISIBLE
10
257.999164
20
127.947967
30
0.0
11
257.999164
21
129.784031
31
0.0
0
LINE
8
VISIBLE
10
259.999164
20
126.304597
30
0.0
11
257.999164
21
126.304597
31
0.0
0
LINE
8
VISIBLE
10
257.999164
20
126.304597
30
0.0
11
257.999164
21
127.947967
31
0.0
0
LINE
8
VISIBLE
10
259.999164
20
124.874363
30
0.0
11
257.999164
21
124.874363
31
0.0
0
LINE
8
VISIBLE
10
257.999164
20
124.874363
30
0.0
11
257.999164
21
126.304597
31
0.0
0
LINE
8
VISIBLE
10
259.999164
20
123.675058
30
0.0
11
257.999164
21
123.675058
31
0.0
0
LINE
8
VISIBLE
10
257.999164
20
123.675058
30
0.0
11
257.999164
21
124.874363
31
0.0
0
LINE
8
VISIBLE
10
259.999164
20
122.721602
30
0.0
11
257.999164
21
122.721602
31
0.0
0
LINE
8
VISIBLE
10
257.999164
20
122.721602
30
0.0
11
257.999164
21
123.675058
31
0.0
0
LINE
8
VISIBLE
10
259.999164
20
122.025854
30
0.0
11
257.999164
21
122.025854
31
0.0
0
LINE
8
VISIBLE
10
257.999164
20
122.025854
30
0.0
11
257.999164
21
122.721602
31
0.0
0
LINE
8
VISIBLE
10
259.999164
20
121.596470
30
0.0
11
257.999164
21
121.596470
31
0.0
0
LINE
8
VISIBLE
10
257.999164
20
121.596470
30
0.0
11
257.999164
21
122.025854
31
0.0
0
LINE
8
VISIBLE
10
257.999164
20
121.491132
30
0.0
11
257.999164
21
121.596470
31
0.0
0
LINE
8
SECTION
10
259.999164
20
124.464329
30
0.0
11
259.999164
21
121.491132
31
0.0
0
LINE
8
SECTION
10
259.999164
20
121.491132
30
0.0
11
257.999164
21
121.491132
31
0.0
0
LINE
8
SECTION
10
257.999164
20
124.464329
30
0.0
11
257.999164
21
121.491132
31
0.0
0
LINE
8
SECTION
10
259.999164
20
124.464329
30
0.0
11
257.999164
21
124.464329
31
0.0
0
LINE
8
SECTION
10
259.999164
20
166.416246
30
0.0
11
259.999164
21
162.411661
31
0.0
0
LINE
8
SECTION
10
259.999164
20
162.411661
30
0.0
11
257.999164
21
162.411661
31
0.0
0
LINE
8
SECTION
10
257.999164
20
166.416246
30
0.0
11
257.999164
21
162.411661
31
0.0
0
LINE
8
SECTION
10
259.999164
20
166.416246
30
0.0
11
257.999164
21
166.416246
31
0.0
0
LINE
8
SECTION
10
259.999164
20
196.791995
30
0.0
11
259.999164
21
182.437995
31
0.0
0
LINE
8
SECTION
10
259.999164
20
182.437995
30
0.0
11
257.999164
21
182.437995
31
0.0
0
LINE
8
SECTION
10
257.999164
20
196.791995
30
0.0
11
257.999164
21
182.437995
31
0.0
0
LINE
8
SECTION
10
259.999164
20
196.791995
30
0.0
11
257.999164
21
196.791995
31
0.0
0
LINE
8
SECTION
10
259.999164
20
201.191995
30
0.0
11
257.999164
21
201.191995
31
0.0
0
LINE
8
SECTION
10
257.999164
20
228.791995
30
0.0
11
257.999164
21
201.191995
31
0.0
0
LINE
8
SECTION
10
259.999164
20
228.791995
30
0.0
11
257.999164
21
228.791995
31
0.0
0
LINE
8
SECTION
10
259.999164
20
228.791995
30
0.0
11
259.999164
21
201.191995
31
0.0
0
LINE
8
SECTION
10
259.999164
20
233.191995
30
0.0
11
257.999164
21
233.191995
31
0.0
0
LINE
8
SECTION
10
257.999164
20
237.508868
30
0.0
11
257.999164
21
233.191995
31
0.0
0
LINE
8
SECTION
10
257.999164
20
237.508868
30
0.0
11
259.999164
21
237.508868
31
0.0
0
LINE
8
SECTION
10
259.999164
20
237.508868
30
0.0
11
259.999164
21
233.191995
31
0.0
0
LINE
8
CENTER
10
193.199164
20
230.993602
30
0.0
11
196.229164
21
230.993602
31
0.0
0
LINE
8
CENTER
10
197.769164
20
230.993602
30
0.0
11
200.799164
21
230.993602
31
0.0
0
LINE
8
CENTER
10
196.999164
20
227.193602
30
0.0
11
196.999164
21
230.223602
31
0.0
0
LINE
8
CENTER
10
196.999164
20
231.763602
30
0.0
11
196.999164
21
234.793602
31
0.0
0
LINE
8
CENTER
10
131.399164
20
214.993602
30
0.0
11
150.799164
21
214.993602
31
0.0
0
LINE
8
CENTER
10
153.199164
20
214.993602
30
0.0
11
172.599164
21
214.993602
31
0.0
0
LINE
8
CENTER
10
151.999164
20
194.393602
30
0.0
11
151.999164
21
213.793602
31
0.0
0
LINE
8
CENTER
10
151.999164
20
216.193602
30
0.0
11
151.999164
21
235.593602
31
0.0
0
LINE
8
CENTER
10
193.199164
20
198.993602
30
0.0
11
196.229164
21
198.993602
31
0.0
0
LINE
8
CENTER
10
197.769164
20
198.993602
30
0.0
11
200.799164
21
198.993602
31
0.0
0
LINE
8
CENTER
10
196.999164
20
195.193602
30
0.0
11
196.999164
21
198.223602
31
0.0
0
LINE
8
CENTER
10
196.999164
20
199.763602
30
0.0
11
196.999164
21
202.793602
31
0.0
0
LINE
8
CENTER
10
176.199164
20
188.439602
30
0.0
11
179.229164
21
188.439602
31
0.0
0
LINE
8
CENTER
10
180.769164
20
188.439602
30
0.0
11
183.799164
21
188.439602
31
0.0
0
LINE
8
CENTER
10
179.999164
20
184.639602
30
0.0
11
179.999164
21
187.669602
31
0.0
0
LINE
8
CENTER
10
179.999164
20
189.209602
30
0.0
11
179.999164
21
192.239602
31
0.0
0
LINE
8
CENTER
10
208.199164
20
188.439602
30
0.0
11
211.229164
21
188.439602
31
0.0
0
LINE
8
CENTER
10
212.769164
20
188.439602
30
0.0
11
215.799164
21
188.439602
31
0.0
0
LINE
8
CENTER
10
211.999164
20
184.639602
30
0.0
11
211.999164
21
187.669602
31
0.0
0
LINE
8
CENTER
10
211.999164
20
189.209602
30
0.0
11
211.999164
21
192.239602
31
0.0
0
LINE
8
CENTER
10
175.399164
20
143.439602
30
0.0
11
194.799164
21
143.439602
31
0.0
0
LINE
8
CENTER
10
197.199164
20
143.439602
30
0.0
11
216.599164
21
143.439602
31
0.0
0
LINE
8
CENTER
10
195.999164
20
122.839602
30
0.0
11
195.999164
21
142.239602
31
0.0
0
LINE
8
CENTER
10
195.999164
20
144.639602
30
0.0
11
195.999164
21
164.039602
31
0.0
0
LINE
8
DIM
10
130.000836
20
120.240398
30
0.0
11
130.000836
21
98.440398
31
0.0
0
LINE
8
DIM
10
219.999164
20
120.240398
30
0.0
11
219.999164
21
98.440398
31
0.0
0
LINE
8
DIM
10
130.000836
20
100.440398
30
0.0
11
219.999164
21
100.440398
31
0.0
0
SOLID
8
DIM
10
130.000836
20
100.440398
30
0.0
11
133.200836
21
99.832398
31
0.0
12
133.200836
22
101.048398
32
0.0
13
133.200836
23
101.048398
33
0.0
0
SOLID
8
DIM
10
219.999164
20
100.440398
30
0.0
11
216.799164
21
101.048398
31
0.0
12
216.799164
22
99.832398
32
0.0
13
216.799164
23
99.832398
33
0.0
0
TEXT
8
TEXT
10
175.000000
20
101.440398
30
0.0
40
2.5000
1
45.00
72
1
73
0
11
175.000000
21
101.440398
31
0.0
0
LINE
8
DIM
10
128.800836
20
121.440398
30
0.0
11
107.000836
21
121.440398
31
0.0
0
LINE
8
DIM
10
128.800836
20
237.559602
30
0.0
11
107.000836
21
237.559602
31
0.0
0
LINE
8
DIM
10
109.000836
20
121.440398
30
0.0
11
109.000836
21
237.559602
31
0.0
0
SOLID
8
DIM
10
109.000836
20
121.440398
30
0.0
11
109.608836
21
124.640398
31
0.0
12
108.392836
22
124.640398
32
0.0
13
108.392836
23
124.640398
33
0.0
0
SOLID
8
DIM
10
109.000836
20
237.559602
30
0.0
11
108.392836
21
234.359602
31
0.0
12
109.608836
22
234.359602
32
0.0
13
109.608836
23
234.359602
33
0.0
0
TEXT
8
TEXT
10
108.000836
20
179.500000
30
0.0
40
2.5000
1
58.06
50
90.0000
72
1
73
0
11
108.000836
21
179.500000
31
0.0
0
SOLID
8
DIM
10
198.353620
20
232.727225
30
0.0
11
200.802847
21
234.874538
31
0.0
12
199.844626
22
235.623182
32
0.0
13
199.844626
23
235.623182
33
0.0
0
LINE
8
DIM
10
198.353620
20
232.727225
30
0.0
11
207.598085
21
244.559602
31
0.0
0
LINE
8
DIM
10
207.598085
20
244.559602
30
0.0
11
212.598085
21
244.559602
31
0.0
0
TEXT
8
TEXT
10
213.398085
20
245.559602
30
0.0
40
2.5000
1
4x Ø2.20 THRU
0
SOLID
8
DIM
10
163.696732
20
229.965806
30
0.0
11
166.145960
21
232.113118
31
0.0
12
165.187739
22
232.861763
32
0.0
13
165.187739
23
232.861763
33
0.0
0
LINE
8
DIM
10
163.696732
20
229.965806
30
0.0
11
179.884030
21
250.684602
31
0.0
0
LINE
8
DIM
10
179.884030
20
250.684602
30
0.0
11
184.884030
21
250.684602
31
0.0
0
TEXT
8
TEXT
10
185.684030
20
251.684602
30
0.0
40
2.5000
1
2x Ø19.00 THRU
0
LINE
8
DIM
10
194.799164
20
143.439602
30
0.0
11
100.000836
21
143.439602
31
0.0
0
LINE
8
DIM
10
195.799164
20
230.993602
30
0.0
11
100.000836
21
230.993602
31
0.0
0
LINE
8
DIM
10
102.000836
20
143.439602
30
0.0
11
102.000836
21
230.993602
31
0.0
0
SOLID
8
DIM
10
102.000836
20
143.439602
30
0.0
11
102.608836
21
146.639602
31
0.0
12
101.392836
22
146.639602
32
0.0
13
101.392836
23
146.639602
33
0.0
0
SOLID
8
DIM
10
102.000836
20
230.993602
30
0.0
11
101.392836
21
227.793602
31
0.0
12
102.608836
22
227.793602
32
0.0
13
102.608836
23
227.793602
33
0.0
0
TEXT
8
TEXT
10
101.000836
20
187.216602
30
0.0
40
2.5000
1
43.78
50
90.0000
72
1
73
0
11
101.000836
21
187.216602
31
0.0
0
TEXT
8
TEXT
10
175.000000
20
88.440398
30
0.0
40
4.0000
1
RIGHT VIEW
72
1
73
0
11
175.000000
21
88.440398
31
0.0
0
LINE
8
TEXT
10
163.000000
20
86.840398
30
0.0
11
187.000000
21
86.840398
31
0.0
0
TEXT
8
TEXT
10
175.000000
20
82.440398
30
0.0
40
2.4000
1
-Y →   Z ↑
72
1
73
0
11
175.000000
21
82.440398
31
0.0
0
LINE
8
DIM
10
82.000836
20
120.240398
30
0.0
11
82.000836
21
107.440398
31
0.0
0
LINE
8
DIM
10
84.000836
20
120.240398
30
0.0
11
84.000836
21
107.440398
31
0.0
0
LINE
8
DIM
10
82.000836
20
109.440398
30
0.0
11
84.000836
21
109.440398
31
0.0
0
SOLID
8
DIM
10
82.000836
20
109.440398
30
0.0
11
78.800836
21
110.048398
31
0.0
12
78.800836
22
108.832398
32
0.0
13
78.800836
23
108.832398
33
0.0
0
SOLID
8
DIM
10
84.000836
20
109.440398
30
0.0
11
87.200836
21
108.832398
31
0.0
12
87.200836
22
110.048398
32
0.0
13
87.200836
23
110.048398
33
0.0
0
LINE
8
DIM
10
84.000836
20
109.440398
30
0.0
11
93.600836
21
109.440398
31
0.0
0
TEXT
8
TEXT
10
94.400836
20
109.840398
30
0.0
40
2.5000
1
1.00
0
LINE
8
DIM
10
80.800836
20
121.440398
30
0.0
11
68.000836
21
121.440398
31
0.0
0
LINE
8
DIM
10
80.800836
20
237.559602
30
0.0
11
68.000836
21
237.559602
31
0.0
0
LINE
8
DIM
10
70.000836
20
121.440398
30
0.0
11
70.000836
21
237.559602
31
0.0
0
SOLID
8
DIM
10
70.000836
20
121.440398
30
0.0
11
70.608836
21
124.640398
31
0.0
12
69.392836
22
124.640398
32
0.0
13
69.392836
23
124.640398
33
0.0
0
SOLID
8
DIM
10
70.000836
20
237.559602
30
0.0
11
69.392836
21
234.359602
31
0.0
12
70.608836
22
234.359602
32
0.0
13
70.608836
23
234.359602
33
0.0
0
TEXT
8
TEXT
10
69.000836
20
179.500000
30
0.0
40
2.5000
1
58.06
50
90.0000
72
1
73
0
11
69.000836
21
179.500000
31
0.0
0
TEXT
8
TEXT
10
83.000836
20
97.440398
30
0.0
40
4.0000
1
FRONT VIEW
72
1
73
0
11
83.000836
21
97.440398
31
0.0
0
LINE
8
TEXT
10
71.000836
20
95.840398
30
0.0
11
95.000836
21
95.840398
31
0.0
0
TEXT
8
TEXT
10
83.000836
20
91.440398
30
0.0
40
2.4000
1
-X →   Z ↑
72
1
73
0
11
83.000836
21
91.440398
31
0.0
0
LINE
8
DIM
10
257.999164
20
120.291132
30
0.0
11
257.999164
21
107.491132
31
0.0
0
LINE
8
DIM
10
259.999164
20
120.291132
30
0.0
11
259.999164
21
107.491132
31
0.0
0
LINE
8
DIM
10
257.999164
20
109.491132
30
0.0
11
259.999164
21
109.491132
31
0.0
0
SOLID
8
DIM
10
257.999164
20
109.491132
30
0.0
11
254.799164
21
110.099132
31
0.0
12
254.799164
22
108.883132
32
0.0
13
254.799164
23
108.883132
33
0.0
0
SOLID
8
DIM
10
259.999164
20
109.491132
30
0.0
11
263.199164
21
108.883132
31
0.0
12
263.199164
22
110.099132
32
0.0
13
263.199164
23
110.099132
33
0.0
0
LINE
8
DIM
10
259.999164
20
109.491132
30
0.0
11
269.599164
21
109.491132
31
0.0
0
TEXT
8
TEXT
10
270.399164
20
109.891132
30
0.0
40
2.5000
1
1.00
0
LINE
8
DIM
10
256.799164
20
121.491132
30
0.0
11
243.999164
21
121.491132
31
0.0
0
LINE
8
DIM
10
256.799164
20
237.508868
30
0.0
11
243.999164
21
237.508868
31
0.0
0
LINE
8
DIM
10
245.999164
20
121.491132
30
0.0
11
245.999164
21
237.508868
31
0.0
0
SOLID
8
DIM
10
245.999164
20
121.491132
30
0.0
11
246.607164
21
124.691132
31
0.0
12
245.391164
22
124.691132
32
0.0
13
245.391164
23
124.691132
33
0.0
0
SOLID
8
DIM
10
245.999164
20
237.508868
30
0.0
11
245.391164
21
234.308868
31
0.0
12
246.607164
22
234.308868
32
0.0
13
246.607164
23
234.308868
33
0.0
0
TEXT
8
TEXT
10
244.999164
20
179.500000
30
0.0
40
2.5000
1
58.01
50
90.0000
72
1
73
0
11
244.999164
21
179.500000
31
0.0
0
LINE
8
HATCH
10
259.999162
20
121.491132
30
0.0
11
259.999164
21
121.491134
31
0.0
0
LINE
8
HATCH
10
257.999164
20
123.733775
30
0.0
11
258.729719
21
124.464329
31
0.0
0
LINE
8
HATCH
10
259.999162
20
162.411661
30
0.0
11
259.999164
21
162.411664
31
0.0
0
LINE
8
HATCH
10
257.999164
20
164.654305
30
0.0
11
259.761105
21
166.416246
31
0.0
0
LINE
8
HATCH
10
259.999162
20
182.437995
30
0.0
11
259.999164
21
182.437998
31
0.0
0
LINE
8
HATCH
10
257.999164
20
184.680639
30
0.0
11
259.999164
21
186.680639
31
0.0
0
LINE
8
HATCH
10
257.999164
20
188.923280
30
0.0
11
259.999164
21
190.923280
31
0.0
0
LINE
8
HATCH
10
257.999164
20
193.165920
30
0.0
11
259.999164
21
195.165920
31
0.0
0
LINE
8
HATCH
10
259.999162
20
201.191995
30
0.0
11
259.999164
21
201.191998
31
0.0
0
LINE
8
HATCH
10
257.999164
20
203.434639
30
0.0
11
259.999164
21
205.434639
31
0.0
0
LINE
8
HATCH
10
257.999164
20
207.677280
30
0.0
11
259.999164
21
209.677280
31
0.0
0
LINE
8
HATCH
10
257.999164
20
211.919920
30
0.0
11
259.999164
21
213.919920
31
0.0
0
LINE
8
HATCH
10
257.999164
20
216.162561
30
0.0
11
259.999164
21
218.162561
31
0.0
0
LINE
8
HATCH
10
257.999164
20
220.405202
30
0.0
11
259.999164
21
222.405202
31
0.0
0
LINE
8
HATCH
10
257.999164
20
224.647842
30
0.0
11
259.999164
21
226.647842
31
0.0
0
LINE
8
HATCH
10
259.999162
20
233.191995
30
0.0
11
259.999164
21
233.191998
31
0.0
0
LINE
8
HATCH
10
257.999164
20
235.434639
30
0.0
11
259.999164
21
237.434639
31
0.0
0
LINE
8
DIM
10
257.999164
20
123.657948
30
0.0
11
257.999164
21
246.508868
31
0.0
0
LINE
8
DIM
10
259.999164
20
123.657948
30
0.0
11
259.999164
21
246.508868
31
0.0
0
LINE
8
DIM
10
257.999164
20
244.508868
30
0.0
11
259.999164
21
244.508868
31
0.0
0
SOLID
8
DIM
10
257.999164
20
244.508868
30
0.0
11
254.799164
21
245.116868
31
0.0
12
254.799164
22
243.900868
32
0.0
13
254.799164
23
243.900868
33
0.0
0
SOLID
8
DIM
10
259.999164
20
244.508868
30
0.0
11
263.199164
21
243.900868
31
0.0
12
263.199164
22
245.116868
32
0.0
13
263.199164
23
245.116868
33
0.0
0
LINE
8
DIM
10
259.999164
20
244.508868
30
0.0
11
269.599164
21
244.508868
31
0.0
0
TEXT
8
TEXT
10
270.399164
20
244.908868
30
0.0
40
2.5000
1
1.00 WALL
0
LINE
8
DIM
10
259.390833
20
121.491132
30
0.0
11
270.999164
21
121.491132
31
0.0
0
LINE
8
DIM
10
259.390833
20
124.464329
30
0.0
11
270.999164
21
124.464329
31
0.0
0
LINE
8
DIM
10
268.999164
20
121.491132
30
0.0
11
268.999164
21
124.464329
31
0.0
0
SOLID
8
DIM
10
268.999164
20
121.491132
30
0.0
11
268.391164
21
118.291132
31
0.0
12
269.607164
22
118.291132
32
0.0
13
269.607164
23
118.291132
33
0.0
0
SOLID
8
DIM
10
268.999164
20
124.464329
30
0.0
11
269.607164
21
127.664329
31
0.0
12
268.391164
22
127.664329
32
0.0
13
268.391164
23
127.664329
33
0.0
0
LINE
8
DIM
10
268.999164
20
124.464329
30
0.0
11
268.999164
21
134.064329
31
0.0
0
TEXT
8
TEXT
10
267.999164
20
134.864329
30
0.0
40
2.5000
1
1.49 WALL
50
90.0000
0
TEXT
8
TEXT
10
258.999164
20
97.491132
30
0.0
40
4.0000
1
SECTION A-A
72
1
73
0
11
258.999164
21
97.491132
31
0.0
0
LINE
8
TEXT
10
245.799164
20
95.891132
30
0.0
11
272.199164
21
95.891132
31
0.0
0
LINE
8
CUT
10
196.999164
20
112.440398
30
0.0
11
196.999164
21
126.440398
31
0.0
0
LINE
8
CUTTHIN
10
196.999164
20
126.440398
30
0.0
11
196.999164
21
232.559602
31
0.0
0
LINE
8
CUT
10
196.999164
20
232.559602
30
0.0
11
196.999164
21
246.559602
31
0.0
0
LINE
8
CUT
10
196.999164
20
112.440398
30
0.0
11
205.999164
21
112.440398
31
0.0
0
SOLID
8
CUT
10
205.999164
20
112.440398
30
0.0
11
201.799164
21
113.238398
31
0.0
12
201.799164
22
111.642398
32
0.0
13
201.799164
23
111.642398
33
0.0
0
TEXT
8
TEXT
10
191.999164
20
112.440398
30
0.0
40
4.0000
1
A
72
1
73
2
11
191.999164
21
112.440398
31
0.0
0
LINE
8
CUT
10
196.999164
20
246.559602
30
0.0
11
205.999164
21
246.559602
31
0.0
0
SOLID
8
CUT
10
205.999164
20
246.559602
30
0.0
11
201.799164
21
247.357602
31
0.0
12
201.799164
22
245.761602
32
0.0
13
201.799164
23
245.761602
33
0.0
0
TEXT
8
TEXT
10
191.999164
20
246.559602
30
0.0
40
4.0000
1
A
72
1
73
2
11
191.999164
21
246.559602
31
0.0
0
TEXT
8
TEXT
10
334.000000
20
276.500000
30
0.0
40
3.0000
1
HOLE TABLE — 6 POSITIONS
0
LINE
8
TITLE
10
334.000000
20
274.000000
30
0.0
11
388.600000
21
274.000000
31
0.0
0
TEXT
8
TITLE
10
335.500000
20
271.530000
30
0.0
40
2.2000
1
TAG
0
TEXT
8
TITLE
10
342.460000
20
271.530000
30
0.0
40
2.2000
1
SIZE
0
TEXT
8
TITLE
10
359.980000
20
271.530000
30
0.0
40
2.2000
1
Y
0
TEXT
8
TITLE
10
369.580000
20
271.530000
30
0.0
40
2.2000
1
Z
0
TEXT
8
TITLE
10
379.180000
20
271.530000
30
0.0
40
2.2000
1
C'BORE
0
LINE
8
TITLE
10
334.000000
20
269.930000
30
0.0
11
388.600000
21
269.930000
31
0.0
0
TEXT
8
TEXT
10
335.500000
20
267.460000
30
0.0
40
2.2000
1
A1
0
TEXT
8
TEXT
10
342.460000
20
267.460000
30
0.0
40
2.2000
1
Ø2.20 THRU
0
TEXT
8
TEXT
10
359.980000
20
267.460000
30
0.0
40
2.2000
1
-0.50
0
TEXT
8
TEXT
10
369.580000
20
267.460000
30
0.0
40
2.2000
1
43.78
0
TEXT
8
TEXT
10
379.180000
20
267.460000
30
0.0
40
2.2000
1
-
0
TEXT
8
TEXT
10
335.500000
20
263.390000
30
0.0
40
2.2000
1
A2
0
TEXT
8
TEXT
10
342.460000
20
263.390000
30
0.0
40
2.2000
1
Ø19.00 THRU
0
TEXT
8
TEXT
10
359.980000
20
263.390000
30
0.0
40
2.2000
1
22.00
0
TEXT
8
TEXT
10
369.580000
20
263.390000
30
0.0
40
2.2000
1
35.78
0
TEXT
8
TEXT
10
379.180000
20
263.390000
30
0.0
40
2.2000
1
-
0
TEXT
8
TEXT
10
335.500000
20
259.320000
30
0.0
40
2.2000
1
A3
0
TEXT
8
TEXT
10
342.460000
20
259.320000
30
0.0
40
2.2000
1
Ø2.20 THRU
0
TEXT
8
TEXT
10
359.980000
20
259.320000
30
0.0
40
2.2000
1
-0.50
0
TEXT
8
TEXT
10
369.580000
20
259.320000
30
0.0
40
2.2000
1
27.78
0
TEXT
8
TEXT
10
379.180000
20
259.320000
30
0.0
40
2.2000
1
-
0
TEXT
8
TEXT
10
335.500000
20
255.250000
30
0.0
40
2.2000
1
A4
0
TEXT
8
TEXT
10
342.460000
20
255.250000
30
0.0
40
2.2000
1
Ø2.20 THRU
0
TEXT
8
TEXT
10
359.980000
20
255.250000
30
0.0
40
2.2000
1
8.00
0
TEXT
8
TEXT
10
369.580000
20
255.250000
30
0.0
40
2.2000
1
22.50
0
TEXT
8
TEXT
10
379.180000
20
255.250000
30
0.0
40
2.2000
1
-
0
TEXT
8
TEXT
10
335.500000
20
251.180000
30
0.0
40
2.2000
1
A5
0
TEXT
8
TEXT
10
342.460000
20
251.180000
30
0.0
40
2.2000
1
Ø2.20 THRU
0
TEXT
8
TEXT
10
359.980000
20
251.180000
30
0.0
40
2.2000
1
-8.00
0
TEXT
8
TEXT
10
369.580000
20
251.180000
30
0.0
40
2.2000
1
22.50
0
TEXT
8
TEXT
10
379.180000
20
251.180000
30
0.0
40
2.2000
1
-
0
TEXT
8
TEXT
10
335.500000
20
247.110000
30
0.0
40
2.2000
1
A6
0
TEXT
8
TEXT
10
342.460000
20
247.110000
30
0.0
40
2.2000
1
Ø19.00 THRU
0
TEXT
8
TEXT
10
359.980000
20
247.110000
30
0.0
40
2.2000
1
0.00
0
TEXT
8
TEXT
10
369.580000
20
247.110000
30
0.0
40
2.2000
1
0.00
0
TEXT
8
TEXT
10
379.180000
20
247.110000
30
0.0
40
2.2000
1
-
0
LINE
8
TITLE
10
334.000000
20
245.510000
30
0.0
11
388.600000
21
245.510000
31
0.0
0
LINE
8
TITLE
10
340.960000
20
245.510000
30
0.0
11
340.960000
21
274.000000
31
0.0
0
LINE
8
TITLE
10
358.480000
20
245.510000
30
0.0
11
358.480000
21
274.000000
31
0.0
0
LINE
8
TITLE
10
368.080000
20
245.510000
30
0.0
11
368.080000
21
274.000000
31
0.0
0
LINE
8
TITLE
10
377.680000
20
245.510000
30
0.0
11
377.680000
21
274.000000
31
0.0
0
LINE
8
TITLE
10
388.600000
20
245.510000
30
0.0
11
388.600000
21
274.000000
31
0.0
0
LINE
8
TITLE
10
334.000000
20
245.510000
30
0.0
11
334.000000
21
274.000000
31
0.0
0
TEXT
8
TITLE
10
334.000000
20
241.510000
30
0.0
40
1.7170
1
every row measured off the solid; positions are model
0
TEXT
8
TITLE
10
334.000000
20
238.934528
30
0.0
40
1.7170
1
coordinates, mm. C'BORE side is the face it opens on.
0
TEXT
8
TEXT
10
334.000000
20
229.359057
30
0.0
40
3.0000
1
NOTES
0
TEXT
8
TEXT
10
334.000000
20
224.759057
30
0.0
40
2.4000
1
1. ALL DIMENSIONS IN mm AND DEGREES. EVERY
0
TEXT
8
TEXT
10
334.000000
20
221.039057
30
0.0
40
2.4000
1
   DIMENSION AND EVERY HOLE CALLOUT WAS MEASURED
0
TEXT
8
TEXT
10
334.000000
20
217.319057
30
0.0
40
2.4000
1
   OFF THE SOLID.
0
TEXT
8
TEXT
10
334.000000
20
213.599057
30
0.0
40
2.4000
1
2. GENERAL TOLERANCE: CANNOT DETERMINE — THIS PART
0
TEXT
8
TEXT
10
334.000000
20
209.879057
30
0.0
40
2.4000
1
   DECLARES NO PROCESS THIS REPO CAN READ.
0
TEXT
8
TEXT
10
334.000000
20
206.159057
30
0.0
40
2.4000
1
3. SECTION A-A AT Y=-0.50: THINNEST MATERIAL FOUND
0
TEXT
8
TEXT
10
334.000000
20
202.439057
30
0.0
40
2.4000
1
   BY SCAN 1.00 mm, AT X=43.00, Z=-10.49.
0
LINE
8
FRAME
10
224.000000
20
10.000000
30
0.0
11
410.000000
21
10.000000
31
0.0
0
LINE
8
FRAME
10
410.000000
20
10.000000
30
0.0
11
410.000000
21
66.000000
31
0.0
0
LINE
8
FRAME
10
410.000000
20
66.000000
30
0.0
11
224.000000
21
66.000000
31
0.0
0
LINE
8
FRAME
10
224.000000
20
66.000000
30
0.0
11
224.000000
21
10.000000
31
0.0
0
LINE
8
TITLE
10
224.000000
20
53.000000
30
0.0
11
410.000000
21
53.000000
31
0.0
0
LINE
8
TITLE
10
224.000000
20
19.000000
30
0.0
11
410.000000
21
19.000000
31
0.0
0
LINE
8
TITLE
10
224.000000
20
27.500000
30
0.0
11
410.000000
21
27.500000
31
0.0
0
LINE
8
TITLE
10
224.000000
20
36.000000
30
0.0
11
410.000000
21
36.000000
31
0.0
0
LINE
8
TITLE
10
224.000000
20
44.500000
30
0.0
11
410.000000
21
44.500000
31
0.0
0
TEXT
8
TEXT
10
226.500000
20
59.500000
30
0.0
40
6.0000
1
MICRODUCK-UPPER-LEG-RIGIDITY-PLATE
72
0
73
2
11
226.500000
21
59.500000
31
0.0
0
LINE
8
TITLE
10
390.000000
20
53.000000
30
0.0
11
390.000000
21
66.000000
31
0.0
0
TEXT
8
TITLE
10
400.000000
20
63.600000
30
0.0
40
1.7000
1
REV
72
1
73
0
11
400.000000
21
63.600000
31
0.0
0
TEXT
8
TEXT
10
400.000000
20
55.000000
30
0.0
40
5.2000
1
A
72
1
73
0
11
400.000000
21
55.000000
31
0.0
0
LINE
8
TITLE
10
360.000000
20
53.000000
30
0.0
11
360.000000
21
66.000000
31
0.0
0
CIRCLE
8
TITLE
10
366.500000
20
59.500000
30
0.0
40
3.500000
0
CIRCLE
8
TITLE
10
366.500000
20
59.500000
30
0.0
40
1.960000
0
LINE
8
TITLE
10
376.300000
20
56.000000
30
0.0
11
376.300000
21
63.000000
31
0.0
0
LINE
8
TITLE
10
376.300000
20
63.000000
30
0.0
11
382.250000
21
61.460000
31
0.0
0
LINE
8
TITLE
10
382.250000
20
61.460000
30
0.0
11
382.250000
21
57.540000
31
0.0
0
LINE
8
TITLE
10
382.250000
20
57.540000
30
0.0
11
376.300000
21
56.000000
31
0.0
0
LINE
8
CENTER
10
361.500000
20
59.500000
30
0.0
11
383.750000
21
59.500000
31
0.0
0
LINE
8
TITLE
10
288.000000
20
19.000000
30
0.0
11
288.000000
21
53.000000
31
0.0
0
LINE
8
TITLE
10
352.000000
20
19.000000
30
0.0
11
352.000000
21
53.000000
31
0.0
0
TEXT
8
TITLE
10
225.600000
20
50.600000
30
0.0
40
1.7000
1
MATERIAL
0
TEXT
8
TEXT
10
225.600000
20
45.900000
30
0.0
40
2.5000
1
PLA
0
TEXT
8
TITLE
10
289.600000
20
50.600000
30
0.0
40
1.7000
1
PROCESS
0
TEXT
8
TEXT
10
289.600000
20
45.900000
30
0.0
40
2.5000
1
-
0
TEXT
8
TITLE
10
353.600000
20
50.600000
30
0.0
40
1.7000
1
SCALE
0
TEXT
8
TEXT
10
353.600000
20
45.900000
30
0.0
40
2.5000
1
2:1
0
TEXT
8
TITLE
10
225.600000
20
42.100000
30
0.0
40
1.7000
1
CATEGORY
0
TEXT
8
TEXT
10
225.600000
20
37.400000
30
0.0
40
2.5000
1
-
0
TEXT
8
TITLE
10
257.600000
20
42.100000
30
0.0
40
1.7000
1
GENERAL TOL
0
TEXT
8
TEXT
10
257.600000
20
37.400000
30
0.0
40
2.5000
1
SEE NOTES
0
LINE
8
TITLE
10
256.000000
20
36.000000
30
0.0
11
256.000000
21
44.500000
31
0.0
0
TEXT
8
TITLE
10
289.600000
20
42.100000
30
0.0
40
1.7000
1
FINISH
0
TEXT
8
TEXT
10
289.600000
20
37.400000
30
0.0
40
2.5000
1
AS PRINTED
0
TEXT
8
TITLE
10
353.600000
20
42.100000
30
0.0
40
1.7000
1
SHEET
0
TEXT
8
TEXT
10
353.600000
20
37.400000
30
0.0
40
2.5000
1
A3  1/1
0
TEXT
8
TITLE
10
225.600000
20
33.600000
30
0.0
40
1.7000
1
VOLUME (MEASURED)
0
TEXT
8
TEXT
10
225.600000
20
28.900000
30
0.0
40
2.5000
1
0.74 cm3
0
TEXT
8
TITLE
10
289.600000
20
33.600000
30
0.0
40
1.7000
1
MASS (ASSUMES PLA)
0
TEXT
8
TEXT
10
289.600000
20
28.900000
30
0.0
40
2.5000
1
0.9 g
0
TEXT
8
TITLE
10
353.600000
20
33.600000
30
0.0
40
1.7000
1
UNITS
0
TEXT
8
TEXT
10
353.600000
20
28.900000
30
0.0
40
2.5000
1
mm / deg
0
TEXT
8
TITLE
10
225.600000
20
25.100000
30
0.0
40
1.7000
1
SIZE (BBOX, MEASURED)
0
TEXT
8
TEXT
10
225.600000
20
20.400000
30
0.0
40
2.5000
1
1.00 x 45.00 x 58.06
0
TEXT
8
TITLE
10
289.600000
20
25.100000
30
0.0
40
1.7000
1
DRAWN
0
TEXT
8
TEXT
10
289.600000
20
20.400000
30
0.0
40
2.5000
1
ce-cad  2026-09-02
0
TEXT
8
TITLE
10
353.600000
20
25.100000
30
0.0
40
1.7000
1
PROJECTION
0
TEXT
8
TEXT
10
353.600000
20
20.400000
30
0.0
40
2.5000
1
THIRD ANGLE
0
TEXT
8
TITLE
10
225.600000
20
16.600000
30
0.0
40
1.7000
1
SOURCE (DESIGN FILE)
0
TEXT
8
TEXT
10
225.600000
20
11.400000
30
0.0
40
2.6000
1
ce-parts/microduck-upper-leg-rigidity-plate/current/cad/part.py
0
TEXT
8
TEXT
10
12.500000
20
280.500000
30
0.0
40
4.2000
1
microduck-upper-leg-rigidity-plate   SCALE 2:1   A3   THIRD ANGLE
0
ENDSEC
0
EOF
