0
SECTION
2
HEADER
9
$ACADVER
1
AC1009
9
$INSUNITS
70
4
9
$LTSCALE
40
1.0
9
$EXTMIN
10
0.0000
20
0.0000
30
0.0
9
$EXTMAX
10
594.0000
20
420.0000
30
0.0
0
ENDSEC
0
SECTION
2
TABLES
0
TABLE
2
LTYPE
70
4
0
LTYPE
2
CONTINUOUS
70
0
3
Solid line
72
65
73
0
40
0.0000
0
LTYPE
2
HIDDEN
70
0
3
Hidden __ __ __ __
72
65
73
2
40
3.6000
49
2.4000
49
-1.2000
0
LTYPE
2
CENTER
70
0
3
Center ____ _ ____ _
72
65
73
4
40
11.2000
49
7.0000
49
-1.4000
49
1.4000
49
-1.4000
0
LTYPE
2
PHANTOM
70
0
3
Phantom ____ _ _ ____
72
65
73
6
40
21.0000
49
11.0000
49
-2.0000
49
2.0000
49
-2.0000
49
2.0000
49
-2.0000
0
ENDTAB
0
TABLE
2
LAYER
70
12
0
LAYER
2
0
70
0
62
7
6
CONTINUOUS
0
LAYER
2
VISIBLE
70
0
62
7
6
CONTINUOUS
0
LAYER
2
SECTION
70
0
62
7
6
CONTINUOUS
0
LAYER
2
HIDDEN
70
0
62
8
6
HIDDEN
0
LAYER
2
CENTER
70
0
62
4
6
CENTER
0
LAYER
2
DIM
70
0
62
3
6
CONTINUOUS
0
LAYER
2
TEXT
70
0
62
3
6
CONTINUOUS
0
LAYER
2
HATCH
70
0
62
5
6
CONTINUOUS
0
LAYER
2
CUT
70
0
62
1
6
PHANTOM
0
LAYER
2
CUTTHIN
70
0
62
1
6
PHANTOM
0
LAYER
2
FRAME
70
0
62
7
6
CONTINUOUS
0
LAYER
2
TITLE
70
0
62
7
6
CONTINUOUS
0
ENDTAB
0
ENDSEC
0
SECTION
2
ENTITIES
0
LINE
8
TITLE
10
5.000000
20
5.000000
30
0.0
11
589.000000
21
5.000000
31
0.0
0
LINE
8
TITLE
10
589.000000
20
5.000000
30
0.0
11
589.000000
21
415.000000
31
0.0
0
LINE
8
TITLE
10
589.000000
20
415.000000
30
0.0
11
5.000000
21
415.000000
31
0.0
0
LINE
8
TITLE
10
5.000000
20
415.000000
30
0.0
11
5.000000
21
5.000000
31
0.0
0
LINE
8
FRAME
10
10.000000
20
10.000000
30
0.0
11
584.000000
21
10.000000
31
0.0
0
LINE
8
FRAME
10
584.000000
20
10.000000
30
0.0
11
584.000000
21
410.000000
31
0.0
0
LINE
8
FRAME
10
584.000000
20
410.000000
30
0.0
11
10.000000
21
410.000000
31
0.0
0
LINE
8
FRAME
10
10.000000
20
410.000000
30
0.0
11
10.000000
21
10.000000
31
0.0
0
TEXT
8
TITLE
10
67.400000
20
412.500000
30
0.0
40
2.4000
1
1
72
1
73
2
11
67.400000
21
412.500000
31
0.0
0
TEXT
8
TITLE
10
67.400000
20
7.500000
30
0.0
40
2.4000
1
1
72
1
73
2
11
67.400000
21
7.500000
31
0.0
0
TEXT
8
TITLE
10
182.200000
20
412.500000
30
0.0
40
2.4000
1
2
72
1
73
2
11
182.200000
21
412.500000
31
0.0
0
TEXT
8
TITLE
10
182.200000
20
7.500000
30
0.0
40
2.4000
1
2
72
1
73
2
11
182.200000
21
7.500000
31
0.0
0
LINE
8
TITLE
10
124.800000
20
5.000000
30
0.0
11
124.800000
21
10.000000
31
0.0
0
LINE
8
TITLE
10
124.800000
20
410.000000
30
0.0
11
124.800000
21
415.000000
31
0.0
0
TEXT
8
TITLE
10
297.000000
20
412.500000
30
0.0
40
2.4000
1
3
72
1
73
2
11
297.000000
21
412.500000
31
0.0
0
TEXT
8
TITLE
10
297.000000
20
7.500000
30
0.0
40
2.4000
1
3
72
1
73
2
11
297.000000
21
7.500000
31
0.0
0
LINE
8
TITLE
10
239.600000
20
5.000000
30
0.0
11
239.600000
21
10.000000
31
0.0
0
LINE
8
TITLE
10
239.600000
20
410.000000
30
0.0
11
239.600000
21
415.000000
31
0.0
0
TEXT
8
TITLE
10
411.800000
20
412.500000
30
0.0
40
2.4000
1
4
72
1
73
2
11
411.800000
21
412.500000
31
0.0
0
TEXT
8
TITLE
10
411.800000
20
7.500000
30
0.0
40
2.4000
1
4
72
1
73
2
11
411.800000
21
7.500000
31
0.0
0
LINE
8
TITLE
10
354.400000
20
5.000000
30
0.0
11
354.400000
21
10.000000
31
0.0
0
LINE
8
TITLE
10
354.400000
20
410.000000
30
0.0
11
354.400000
21
415.000000
31
0.0
0
TEXT
8
TITLE
10
526.600000
20
412.500000
30
0.0
40
2.4000
1
5
72
1
73
2
11
526.600000
21
412.500000
31
0.0
0
TEXT
8
TITLE
10
526.600000
20
7.500000
30
0.0
40
2.4000
1
5
72
1
73
2
11
526.600000
21
7.500000
31
0.0
0
LINE
8
TITLE
10
469.200000
20
5.000000
30
0.0
11
469.200000
21
10.000000
31
0.0
0
LINE
8
TITLE
10
469.200000
20
410.000000
30
0.0
11
469.200000
21
415.000000
31
0.0
0
TEXT
8
TITLE
10
7.500000
20
60.000000
30
0.0
40
2.4000
1
D
72
1
73
2
11
7.500000
21
60.000000
31
0.0
0
TEXT
8
TITLE
10
586.500000
20
60.000000
30
0.0
40
2.4000
1
D
72
1
73
2
11
586.500000
21
60.000000
31
0.0
0
TEXT
8
TITLE
10
7.500000
20
160.000000
30
0.0
40
2.4000
1
C
72
1
73
2
11
7.500000
21
160.000000
31
0.0
0
TEXT
8
TITLE
10
586.500000
20
160.000000
30
0.0
40
2.4000
1
C
72
1
73
2
11
586.500000
21
160.000000
31
0.0
0
LINE
8
TITLE
10
5.000000
20
110.000000
30
0.0
11
10.000000
21
110.000000
31
0.0
0
LINE
8
TITLE
10
584.000000
20
110.000000
30
0.0
11
589.000000
21
110.000000
31
0.0
0
TEXT
8
TITLE
10
7.500000
20
260.000000
30
0.0
40
2.4000
1
B
72
1
73
2
11
7.500000
21
260.000000
31
0.0
0
TEXT
8
TITLE
10
586.500000
20
260.000000
30
0.0
40
2.4000
1
B
72
1
73
2
11
586.500000
21
260.000000
31
0.0
0
LINE
8
TITLE
10
5.000000
20
210.000000
30
0.0
11
10.000000
21
210.000000
31
0.0
0
LINE
8
TITLE
10
584.000000
20
210.000000
30
0.0
11
589.000000
21
210.000000
31
0.0
0
TEXT
8
TITLE
10
7.500000
20
360.000000
30
0.0
40
2.4000
1
A
72
1
73
2
11
7.500000
21
360.000000
31
0.0
0
TEXT
8
TITLE
10
586.500000
20
360.000000
30
0.0
40
2.4000
1
A
72
1
73
2
11
586.500000
21
360.000000
31
0.0
0
LINE
8
TITLE
10
5.000000
20
310.000000
30
0.0
11
10.000000
21
310.000000
31
0.0
0
LINE
8
TITLE
10
584.000000
20
310.000000
30
0.0
11
589.000000
21
310.000000
31
0.0
0
LINE
8
VISIBLE
10
154.000000
20
90.500000
30
0.0
11
154.000000
21
145.500000
31
0.0
0
LINE
8
VISIBLE
10
204.000000
20
90.500000
30
0.0
11
154.000000
21
90.500000
31
0.0
0
LINE
8
VISIBLE
10
204.000000
20
90.500000
30
0.0
11
204.000000
21
145.500000
31
0.0
0
LINE
8
VISIBLE
10
189.000000
20
123.000000
30
0.0
11
169.000000
21
123.000000
31
0.0
0
LINE
8
VISIBLE
10
169.000000
20
123.000000
30
0.0
11
169.000000
21
103.000000
31
0.0
0
LINE
8
VISIBLE
10
189.000000
20
103.000000
30
0.0
11
169.000000
21
103.000000
31
0.0
0
LINE
8
VISIBLE
10
189.000000
20
123.000000
30
0.0
11
189.000000
21
103.000000
31
0.0
0
LINE
8
VISIBLE
10
234.000000
20
145.500000
30
0.0
11
124.000000
21
145.500000
31
0.0
0
LINE
8
VISIBLE
10
175.250000
20
128.000000
30
0.0
11
175.250000
21
145.500000
31
0.0
0
LINE
8
VISIBLE
10
182.750000
20
128.000000
30
0.0
11
175.250000
21
128.000000
31
0.0
0
LINE
8
VISIBLE
10
234.000000
20
160.500000
30
0.0
11
124.000000
21
160.500000
31
0.0
0
LINE
8
VISIBLE
10
182.750000
20
128.000000
30
0.0
11
182.750000
21
145.500000
31
0.0
0
LINE
8
VISIBLE
10
124.000000
20
145.500000
30
0.0
11
124.000000
21
160.500000
31
0.0
0
LINE
8
VISIBLE
10
234.000000
20
145.500000
30
0.0
11
234.000000
21
160.500000
31
0.0
0
LINE
8
HIDDEN
10
154.000000
20
145.500000
30
0.0
11
204.000000
21
145.500000
31
0.0
0
LINE
8
HIDDEN
10
204.000000
20
145.500000
30
0.0
11
234.000000
21
145.500000
31
0.0
0
LINE
8
HIDDEN
10
124.000000
20
145.500000
30
0.0
11
154.000000
21
145.500000
31
0.0
0
LINE
8
HIDDEN
10
182.750000
20
145.500000
30
0.0
11
175.250000
21
145.500000
31
0.0
0
LINE
8
HIDDEN
10
175.250000
20
145.500000
30
0.0
11
182.750000
21
145.500000
31
0.0
0
LINE
8
HIDDEN
10
175.250000
20
145.500000
30
0.0
11
182.750000
21
145.500000
31
0.0
0
LINE
8
HIDDEN
10
182.750000
20
145.500000
30
0.0
11
175.250000
21
145.500000
31
0.0
0
LINE
8
HIDDEN
10
204.000000
20
145.500000
30
0.0
11
204.000000
21
160.500000
31
0.0
0
LINE
8
HIDDEN
10
204.000000
20
90.500000
30
0.0
11
204.000000
21
160.500000
31
0.0
0
LINE
8
HIDDEN
10
204.000000
20
160.500000
30
0.0
11
234.000000
21
160.500000
31
0.0
0
LINE
8
HIDDEN
10
124.000000
20
160.500000
30
0.0
11
154.000000
21
160.500000
31
0.0
0
LINE
8
HIDDEN
10
204.000000
20
160.500000
30
0.0
11
154.000000
21
160.500000
31
0.0
0
LINE
8
HIDDEN
10
154.000000
20
145.500000
30
0.0
11
154.000000
21
160.500000
31
0.0
0
LINE
8
HIDDEN
10
154.000000
20
90.500000
30
0.0
11
154.000000
21
160.500000
31
0.0
0
LINE
8
VISIBLE
10
154.000000
20
312.000000
30
0.0
11
204.000000
21
312.000000
31
0.0
0
LINE
8
VISIBLE
10
154.000000
20
312.000000
30
0.0
11
154.000000
21
329.500000
31
0.0
0
LINE
8
VISIBLE
10
154.000000
20
329.500000
30
0.0
11
204.000000
21
329.500000
31
0.0
0
LINE
8
VISIBLE
10
204.000000
20
312.000000
30
0.0
11
204.000000
21
329.500000
31
0.0
0
CIRCLE
8
VISIBLE
10
179.000000
20
294.500000
30
0.0
40
3.750000
0
CIRCLE
8
VISIBLE
10
179.000000
20
234.500000
30
0.0
40
3.750000
0
ARC
8
VISIBLE
10
179.000000
20
264.500000
30
0.0
40
55.000000
50
117.035692
51
62.964308
0
LINE
8
VISIBLE
10
289.500000
20
90.500000
30
0.0
11
289.500000
21
145.500000
31
0.0
0
LINE
8
VISIBLE
10
289.500000
20
90.500000
30
0.0
11
272.000000
21
90.500000
31
0.0
0
LINE
8
VISIBLE
10
392.000000
20
145.500000
30
0.0
11
337.000000
21
145.500000
31
0.0
0
LINE
8
VISIBLE
10
337.000000
20
145.500000
30
0.0
11
288.010205
21
145.500000
31
0.0
0
LINE
8
VISIBLE
10
307.000000
20
128.000000
30
0.0
11
303.250000
21
128.000000
31
0.0
0
LINE
8
VISIBLE
10
310.750000
20
128.000000
30
0.0
11
307.000000
21
128.000000
31
0.0
0
LINE
8
VISIBLE
10
367.000000
20
128.000000
30
0.0
11
363.250000
21
128.000000
31
0.0
0
LINE
8
VISIBLE
10
370.750000
20
128.000000
30
0.0
11
367.000000
21
128.000000
31
0.0
0
LINE
8
VISIBLE
10
392.000000
20
160.500000
30
0.0
11
337.000000
21
160.500000
31
0.0
0
LINE
8
VISIBLE
10
337.000000
20
160.500000
30
0.0
11
288.010205
21
160.500000
31
0.0
0
LINE
8
VISIBLE
10
288.010205
20
160.500000
30
0.0
11
272.000000
21
160.500000
31
0.0
0
LINE
8
VISIBLE
10
288.010205
20
145.500000
30
0.0
11
288.010205
21
160.500000
31
0.0
0
LINE
8
VISIBLE
10
272.000000
20
90.500000
30
0.0
11
272.000000
21
160.500000
31
0.0
0
LINE
8
VISIBLE
10
307.000000
20
128.000000
30
0.0
11
307.000000
21
145.500000
31
0.0
0
LINE
8
VISIBLE
10
367.000000
20
128.000000
30
0.0
11
367.000000
21
145.500000
31
0.0
0
LINE
8
VISIBLE
10
303.250000
20
128.000000
30
0.0
11
303.250000
21
145.500000
31
0.0
0
LINE
8
VISIBLE
10
310.750000
20
128.000000
30
0.0
11
310.750000
21
145.500000
31
0.0
0
LINE
8
VISIBLE
10
363.250000
20
128.000000
30
0.0
11
363.250000
21
145.500000
31
0.0
0
LINE
8
VISIBLE
10
370.750000
20
128.000000
30
0.0
11
370.750000
21
145.500000
31
0.0
0
LINE
8
VISIBLE
10
392.000000
20
145.500000
30
0.0
11
392.000000
21
160.500000
31
0.0
0
LINE
8
VISIBLE
10
551.088227
20
333.752893
30
0.0
11
551.088227
21
357.342506
31
0.0
0
LINE
8
VISIBLE
10
569.660231
20
344.475444
30
0.0
11
551.088227
21
333.752893
31
0.0
0
LINE
8
VISIBLE
10
551.088227
20
357.342506
30
0.0
11
552.481127
21
358.146697
31
0.0
0
LINE
8
VISIBLE
10
555.843886
20
360.088187
30
0.0
11
569.660231
21
368.065057
31
0.0
0
LINE
8
VISIBLE
10
569.660231
20
344.475444
30
0.0
11
569.660231
21
368.065057
31
0.0
0
LINE
8
VISIBLE
10
564.088630
20
355.197995
30
0.0
11
556.659828
21
350.908975
31
0.0
0
LINE
8
VISIBLE
10
556.659828
20
350.908975
30
0.0
11
556.659828
21
342.330934
31
0.0
0
LINE
8
VISIBLE
10
564.088630
20
346.619954
30
0.0
11
556.659828
21
342.330934
31
0.0
0
LINE
8
VISIBLE
10
564.088630
20
355.197995
30
0.0
11
564.088630
21
346.619954
31
0.0
0
LINE
8
VISIBLE
10
569.660231
20
344.475444
30
0.0
11
576.160432
21
340.722551
31
0.0
0
LINE
8
VISIBLE
10
576.160432
20
340.722551
30
0.0
11
557.588428
21
330.000000
31
0.0
0
LINE
8
VISIBLE
10
551.088227
20
333.752893
30
0.0
11
557.588428
21
330.000000
31
0.0
0
LINE
8
VISIBLE
10
564.088630
20
347.692210
30
0.0
11
563.160029
21
347.156082
31
0.0
0
LINE
8
VISIBLE
10
556.659828
20
350.908975
30
0.0
11
563.160029
21
347.156082
31
0.0
0
LINE
8
VISIBLE
10
563.160029
20
347.156082
30
0.0
11
563.160029
21
346.083827
31
0.0
0
LINE
8
VISIBLE
10
570.213600
20
367.745569
30
0.0
11
571.622083
21
372.890205
31
0.0
0
LINE
8
VISIBLE
10
571.622083
20
372.890205
30
0.0
11
571.050925
21
376.190544
31
0.0
0
LINE
8
VISIBLE
10
571.050925
20
376.190544
30
0.0
11
569.317380
21
379.418601
31
0.0
0
LINE
8
VISIBLE
10
569.317380
20
379.418601
30
0.0
11
566.327336
21
382.514989
31
0.0
0
LINE
8
VISIBLE
10
566.327336
20
382.514989
30
0.0
11
561.985767
21
385.326067
31
0.0
0
LINE
8
VISIBLE
10
561.985767
20
385.326067
30
0.0
11
556.311445
21
387.612881
31
0.0
0
LINE
8
VISIBLE
10
556.311445
20
387.612881
30
0.0
11
549.527358
21
389.102463
31
0.0
0
LINE
8
VISIBLE
10
549.527358
20
389.102463
30
0.0
11
542.089433
21
389.566469
31
0.0
0
LINE
8
VISIBLE
10
542.089433
20
389.566469
30
0.0
11
534.627093
21
388.900975
31
0.0
0
LINE
8
VISIBLE
10
534.627093
20
388.900975
30
0.0
11
527.804410
21
387.171975
31
0.0
0
LINE
8
VISIBLE
10
527.804410
20
387.171975
30
0.0
11
522.156708
21
384.600748
31
0.0
0
LINE
8
VISIBLE
10
522.156708
20
384.600748
30
0.0
11
517.977997
21
381.492574
31
0.0
0
LINE
8
VISIBLE
10
517.977997
20
381.492574
30
0.0
11
515.308601
21
378.141438
31
0.0
0
LINE
8
VISIBLE
10
515.308601
20
378.141438
30
0.0
11
514.020194
21
374.752498
31
0.0
0
LINE
8
VISIBLE
10
514.020194
20
374.752498
30
0.0
11
513.839568
21
372.890205
31
0.0
0
LINE
8
VISIBLE
10
513.839568
20
372.890205
30
0.0
11
514.410726
21
369.589866
31
0.0
0
LINE
8
VISIBLE
10
514.410726
20
369.589866
30
0.0
11
516.144271
21
366.361809
31
0.0
0
LINE
8
VISIBLE
10
516.144271
20
366.361809
30
0.0
11
519.134315
21
363.265421
31
0.0
0
LINE
8
VISIBLE
10
519.134315
20
363.265421
30
0.0
11
522.301621
21
361.095399
31
0.0
0
LINE
8
VISIBLE
10
569.660231
20
368.065057
30
0.0
11
570.213600
21
367.745569
31
0.0
0
LINE
8
VISIBLE
10
522.301621
20
361.095399
30
0.0
11
527.665672
21
358.657076
31
0.0
0
LINE
8
VISIBLE
10
527.665672
20
358.657076
30
0.0
11
534.214940
21
356.950899
31
0.0
0
LINE
8
VISIBLE
10
534.214940
20
356.950899
30
0.0
11
541.547864
21
356.223818
31
0.0
0
LINE
8
VISIBLE
10
541.547864
20
356.223818
30
0.0
11
551.088227
21
356.922962
31
0.0
0
LINE
8
VISIBLE
10
555.266928
20
367.260866
30
0.0
11
553.634900
21
367.585562
31
0.0
0
LINE
8
VISIBLE
10
553.634900
20
367.585562
30
0.0
11
551.904169
21
366.456674
31
0.0
0
LINE
8
VISIBLE
10
555.843886
20
366.456674
30
0.0
11
555.266928
21
367.260866
31
0.0
0
LINE
8
VISIBLE
10
533.557482
20
379.323736
30
0.0
11
533.011683
21
380.109526
31
0.0
0
LINE
8
VISIBLE
10
533.011683
20
380.109526
30
0.0
11
531.402942
21
380.456025
31
0.0
0
LINE
8
VISIBLE
10
531.402942
20
380.456025
30
0.0
11
530.130891
21
380.089302
31
0.0
0
LINE
8
VISIBLE
10
530.130891
20
380.089302
30
0.0
11
529.617765
21
379.323736
31
0.0
0
LINE
8
VISIBLE
10
552.481127
20
358.146697
30
0.0
11
554.113155
21
357.822001
31
0.0
0
LINE
8
VISIBLE
10
554.113155
20
357.822001
30
0.0
11
555.843886
21
358.950888
31
0.0
0
LINE
8
VISIBLE
10
555.843886
20
358.950888
30
0.0
11
555.298087
21
359.736678
31
0.0
0
LINE
8
VISIBLE
10
555.298087
20
359.736678
30
0.0
11
553.689346
21
360.083177
31
0.0
0
LINE
8
VISIBLE
10
553.689346
20
360.083177
30
0.0
11
552.417295
21
359.716454
31
0.0
0
LINE
8
VISIBLE
10
552.417295
20
359.716454
30
0.0
11
551.904169
21
358.950888
31
0.0
0
LINE
8
VISIBLE
10
551.904169
20
358.950888
30
0.0
11
552.481127
21
358.146697
31
0.0
0
LINE
8
VISIBLE
10
530.194723
20
371.013759
30
0.0
11
531.826751
21
370.689063
31
0.0
0
LINE
8
VISIBLE
10
531.826751
20
370.689063
30
0.0
11
533.557482
21
371.817950
31
0.0
0
LINE
8
VISIBLE
10
533.557482
20
371.817950
30
0.0
11
533.011683
21
372.603740
31
0.0
0
LINE
8
VISIBLE
10
533.011683
20
372.603740
30
0.0
11
531.402942
21
372.950239
31
0.0
0
LINE
8
VISIBLE
10
531.402942
20
372.950239
30
0.0
11
530.130891
21
372.583516
31
0.0
0
LINE
8
VISIBLE
10
530.130891
20
372.583516
30
0.0
11
529.617765
21
371.817950
31
0.0
0
LINE
8
VISIBLE
10
529.617765
20
371.817950
30
0.0
11
530.194723
21
371.013759
31
0.0
0
LINE
8
VISIBLE
10
571.622083
20
373.365912
30
0.0
11
576.160432
21
370.745695
31
0.0
0
LINE
8
VISIBLE
10
576.160432
20
340.722551
30
0.0
11
576.160432
21
370.745695
31
0.0
0
LINE
8
VISIBLE
10
571.622083
20
379.323736
30
0.0
11
571.050925
21
382.624075
31
0.0
0
LINE
8
VISIBLE
10
571.050925
20
382.624075
30
0.0
11
569.317380
21
385.852132
31
0.0
0
LINE
8
VISIBLE
10
569.317380
20
385.852132
30
0.0
11
566.327336
21
388.948520
31
0.0
0
LINE
8
VISIBLE
10
566.327336
20
388.948520
30
0.0
11
561.985767
21
391.759598
31
0.0
0
LINE
8
VISIBLE
10
561.985767
20
391.759598
30
0.0
11
556.311445
21
394.046411
31
0.0
0
LINE
8
VISIBLE
10
556.311445
20
394.046411
30
0.0
11
549.527358
21
395.535993
31
0.0
0
LINE
8
VISIBLE
10
549.527358
20
395.535993
30
0.0
11
542.089433
21
396.000000
31
0.0
0
LINE
8
VISIBLE
10
542.089433
20
396.000000
30
0.0
11
534.627093
21
395.334506
31
0.0
0
LINE
8
VISIBLE
10
534.627093
20
395.334506
30
0.0
11
527.804410
21
393.605506
31
0.0
0
LINE
8
VISIBLE
10
527.804410
20
393.605506
30
0.0
11
522.156708
21
391.034279
31
0.0
0
LINE
8
VISIBLE
10
522.156708
20
391.034279
30
0.0
11
517.977997
21
387.926104
31
0.0
0
LINE
8
VISIBLE
10
517.977997
20
387.926104
30
0.0
11
515.308601
21
384.574969
31
0.0
0
LINE
8
VISIBLE
10
515.308601
20
384.574969
30
0.0
11
514.020194
21
381.186029
31
0.0
0
LINE
8
VISIBLE
10
514.020194
20
381.186029
30
0.0
11
513.839568
21
379.323736
31
0.0
0
LINE
8
VISIBLE
10
551.904169
20
358.950888
30
0.0
11
551.904169
21
366.456674
31
0.0
0
LINE
8
VISIBLE
10
555.843886
20
358.950888
30
0.0
11
555.843886
21
366.456674
31
0.0
0
LINE
8
VISIBLE
10
529.617765
20
371.817950
30
0.0
11
529.617765
21
379.323736
31
0.0
0
LINE
8
VISIBLE
10
533.557482
20
371.817950
30
0.0
11
533.557482
21
379.323736
31
0.0
0
LINE
8
VISIBLE
10
513.839568
20
372.890205
30
0.0
11
513.839568
21
379.323736
31
0.0
0
LINE
8
VISIBLE
10
571.622083
20
372.890205
30
0.0
11
571.622083
21
379.323736
31
0.0
0
LINE
8
DIM
10
124.000000
20
89.300000
30
0.0
11
124.000000
21
76.500000
31
0.0
0
LINE
8
DIM
10
234.000000
20
89.300000
30
0.0
11
234.000000
21
76.500000
31
0.0
0
LINE
8
DIM
10
124.000000
20
78.500000
30
0.0
11
234.000000
21
78.500000
31
0.0
0
SOLID
8
DIM
10
124.000000
20
78.500000
30
0.0
11
127.200000
21
77.892000
31
0.0
12
127.200000
22
79.108000
32
0.0
13
127.200000
23
79.108000
33
0.0
0
SOLID
8
DIM
10
234.000000
20
78.500000
30
0.0
11
230.800000
21
79.108000
31
0.0
12
230.800000
22
77.892000
32
0.0
13
230.800000
23
77.892000
33
0.0
0
TEXT
8
TEXT
10
179.000000
20
79.500000
30
0.0
40
2.5000
1
22.00
72
1
73
0
11
179.000000
21
79.500000
31
0.0
0
LINE
8
DIM
10
122.800000
20
90.500000
30
0.0
11
110.000000
21
90.500000
31
0.0
0
LINE
8
DIM
10
122.800000
20
160.500000
30
0.0
11
110.000000
21
160.500000
31
0.0
0
LINE
8
DIM
10
112.000000
20
90.500000
30
0.0
11
112.000000
21
160.500000
31
0.0
0
SOLID
8
DIM
10
112.000000
20
90.500000
30
0.0
11
112.608000
21
93.700000
31
0.0
12
111.392000
22
93.700000
32
0.0
13
111.392000
23
93.700000
33
0.0
0
SOLID
8
DIM
10
112.000000
20
160.500000
30
0.0
11
111.392000
21
157.300000
31
0.0
12
112.608000
22
157.300000
32
0.0
13
112.608000
23
157.300000
33
0.0
0
TEXT
8
TEXT
10
111.000000
20
125.500000
30
0.0
40
2.5000
1
14.00
50
90.0000
72
1
73
0
11
111.000000
21
125.500000
31
0.0
0
LINE
8
DIM
10
177.800000
20
128.000000
30
0.0
11
103.000000
21
128.000000
31
0.0
0
LINE
8
DIM
10
177.800000
20
145.500000
30
0.0
11
103.000000
21
145.500000
31
0.0
0
LINE
8
DIM
10
105.000000
20
128.000000
30
0.0
11
105.000000
21
145.500000
31
0.0
0
SOLID
8
DIM
10
105.000000
20
128.000000
30
0.0
11
105.608000
21
131.200000
31
0.0
12
104.392000
22
131.200000
32
0.0
13
104.392000
23
131.200000
33
0.0
0
SOLID
8
DIM
10
105.000000
20
145.500000
30
0.0
11
104.392000
21
142.300000
31
0.0
12
105.608000
22
142.300000
32
0.0
13
105.608000
23
142.300000
33
0.0
0
TEXT
8
TEXT
10
104.000000
20
136.750000
30
0.0
40
2.5000
1
3.500 PIN PROJECTION
50
90.0000
72
1
73
0
11
104.000000
21
136.750000
31
0.0
0
TEXT
8
TEXT
10
179.000000
20
66.500000
30
0.0
40
4.0000
1
FRONT VIEW
72
1
73
0
11
179.000000
21
66.500000
31
0.0
0
LINE
8
TEXT
10
167.000000
20
64.900000
30
0.0
11
191.000000
21
64.900000
31
0.0
0
TEXT
8
TEXT
10
179.000000
20
60.500000
30
0.0
40
2.4000
1
-X →   Z ↑
72
1
73
0
11
179.000000
21
60.500000
31
0.0
0
LINE
8
DIM
10
124.000000
20
208.300000
30
0.0
11
124.000000
21
195.500000
31
0.0
0
LINE
8
DIM
10
234.000000
20
208.300000
30
0.0
11
234.000000
21
195.500000
31
0.0
0
LINE
8
DIM
10
124.000000
20
197.500000
30
0.0
11
234.000000
21
197.500000
31
0.0
0
SOLID
8
DIM
10
124.000000
20
197.500000
30
0.0
11
127.200000
21
196.892000
31
0.0
12
127.200000
22
198.108000
32
0.0
13
127.200000
23
198.108000
33
0.0
0
SOLID
8
DIM
10
234.000000
20
197.500000
30
0.0
11
230.800000
21
198.108000
31
0.0
12
230.800000
22
196.892000
32
0.0
13
230.800000
23
196.892000
33
0.0
0
TEXT
8
TEXT
10
179.000000
20
198.500000
30
0.0
40
2.5000
1
22.00
72
1
73
0
11
179.000000
21
198.500000
31
0.0
0
LINE
8
DIM
10
122.800000
20
209.500000
30
0.0
11
110.000000
21
209.500000
31
0.0
0
LINE
8
DIM
10
122.800000
20
329.500000
30
0.0
11
110.000000
21
329.500000
31
0.0
0
LINE
8
DIM
10
112.000000
20
209.500000
30
0.0
11
112.000000
21
329.500000
31
0.0
0
SOLID
8
DIM
10
112.000000
20
209.500000
30
0.0
11
112.608000
21
212.700000
31
0.0
12
111.392000
22
212.700000
32
0.0
13
111.392000
23
212.700000
33
0.0
0
SOLID
8
DIM
10
112.000000
20
329.500000
30
0.0
11
111.392000
21
326.300000
31
0.0
12
112.608000
22
326.300000
32
0.0
13
112.608000
23
326.300000
33
0.0
0
TEXT
8
TEXT
10
111.000000
20
269.500000
30
0.0
40
2.5000
1
24.00
50
90.0000
72
1
73
0
11
111.000000
21
269.500000
31
0.0
0
SOLID
8
DIM
10
150.277187
20
217.595842
30
0.0
11
148.195805
21
215.090346
31
0.0
12
149.259760
22
214.501572
32
0.0
13
149.259760
23
214.501572
33
0.0
0
LINE
8
DIM
10
150.277187
20
217.595842
30
0.0
11
145.435298
21
208.846207
31
0.0
0
LINE
8
DIM
10
145.435298
20
208.846207
30
0.0
11
142.435298
21
208.846207
31
0.0
0
TEXT
8
TEXT
10
141.635298
20
209.846207
30
0.0
40
2.5000
1
R11.00
72
2
73
0
11
141.635298
21
209.846207
31
0.0
0
SOLID
8
DIM
10
175.250000
20
234.500000
30
0.0
11
174.304554
21
231.382983
31
0.0
12
175.513634
22
231.253439
32
0.0
13
175.513634
23
231.253439
33
0.0
0
LINE
8
DIM
10
175.250000
20
234.500000
30
0.0
11
174.184669
21
224.556908
31
0.0
0
LINE
8
DIM
10
174.184669
20
224.556908
30
0.0
11
171.184669
21
224.556908
31
0.0
0
TEXT
8
TEXT
10
170.384669
20
225.556908
30
0.0
40
2.5000
1
R0.75
72
2
73
0
11
170.384669
21
225.556908
31
0.0
0
LINE
8
DIM
10
177.800000
20
294.500000
30
0.0
11
103.000000
21
294.500000
31
0.0
0
LINE
8
DIM
10
177.800000
20
234.500000
30
0.0
11
103.000000
21
234.500000
31
0.0
0
LINE
8
DIM
10
105.000000
20
234.500000
30
0.0
11
105.000000
21
294.500000
31
0.0
0
SOLID
8
DIM
10
105.000000
20
234.500000
30
0.0
11
105.608000
21
237.700000
31
0.0
12
104.392000
22
237.700000
32
0.0
13
104.392000
23
237.700000
33
0.0
0
SOLID
8
DIM
10
105.000000
20
294.500000
30
0.0
11
104.392000
21
291.300000
31
0.0
12
105.608000
22
291.300000
32
0.0
13
105.608000
23
291.300000
33
0.0
0
TEXT
8
TEXT
10
104.000000
20
264.500000
30
0.0
40
2.5000
1
12.000 PIN CENTRES
50
90.0000
72
1
73
0
11
104.000000
21
264.500000
31
0.0
0
LINE
8
DIM
10
175.250000
20
293.300000
30
0.0
11
175.250000
21
188.500000
31
0.0
0
LINE
8
DIM
10
182.750000
20
293.300000
30
0.0
11
182.750000
21
188.500000
31
0.0
0
LINE
8
DIM
10
175.250000
20
190.500000
30
0.0
11
182.750000
21
190.500000
31
0.0
0
SOLID
8
DIM
10
175.250000
20
190.500000
30
0.0
11
172.050000
21
191.108000
31
0.0
12
172.050000
22
189.892000
32
0.0
13
172.050000
23
189.892000
33
0.0
0
SOLID
8
DIM
10
182.750000
20
190.500000
30
0.0
11
185.950000
21
189.892000
31
0.0
12
185.950000
22
191.108000
32
0.0
13
185.950000
23
191.108000
33
0.0
0
LINE
8
DIM
10
182.750000
20
190.500000
30
0.0
11
192.350000
21
190.500000
31
0.0
0
TEXT
8
TEXT
10
193.150000
20
190.900000
30
0.0
40
2.5000
1
2x Ø1.500 PIN
0
LINE
8
DIM
10
177.800000
20
264.500000
30
0.0
11
96.000000
21
264.500000
31
0.0
0
LINE
8
DIM
10
177.800000
20
312.000000
30
0.0
11
96.000000
21
312.000000
31
0.0
0
LINE
8
DIM
10
98.000000
20
264.500000
30
0.0
11
98.000000
21
312.000000
31
0.0
0
SOLID
8
DIM
10
98.000000
20
264.500000
30
0.0
11
98.608000
21
267.700000
31
0.0
12
97.392000
22
267.700000
32
0.0
13
97.392000
23
267.700000
33
0.0
0
SOLID
8
DIM
10
98.000000
20
312.000000
30
0.0
11
97.392000
21
308.800000
31
0.0
12
98.608000
22
308.800000
32
0.0
13
98.608000
23
308.800000
33
0.0
0
TEXT
8
TEXT
10
97.000000
20
288.250000
30
0.0
40
2.5000
1
9.500 REF FACE
50
90.0000
72
1
73
0
11
97.000000
21
288.250000
31
0.0
0
TEXT
8
TEXT
10
179.000000
20
178.500000
30
0.0
40
4.0000
1
TOP VIEW
72
1
73
0
11
179.000000
21
178.500000
31
0.0
0
LINE
8
TEXT
10
169.400000
20
176.900000
30
0.0
11
188.600000
21
176.900000
31
0.0
0
TEXT
8
TEXT
10
179.000000
20
172.500000
30
0.0
40
2.4000
1
X →   Y ↑
72
1
73
0
11
179.000000
21
172.500000
31
0.0
0
LINE
8
DIM
10
272.000000
20
89.300000
30
0.0
11
272.000000
21
76.500000
31
0.0
0
LINE
8
DIM
10
392.000000
20
89.300000
30
0.0
11
392.000000
21
76.500000
31
0.0
0
LINE
8
DIM
10
272.000000
20
78.500000
30
0.0
11
392.000000
21
78.500000
31
0.0
0
SOLID
8
DIM
10
272.000000
20
78.500000
30
0.0
11
275.200000
21
77.892000
31
0.0
12
275.200000
22
79.108000
32
0.0
13
275.200000
23
79.108000
33
0.0
0
SOLID
8
DIM
10
392.000000
20
78.500000
30
0.0
11
388.800000
21
79.108000
31
0.0
12
388.800000
22
77.892000
32
0.0
13
388.800000
23
77.892000
33
0.0
0
TEXT
8
TEXT
10
332.000000
20
79.500000
30
0.0
40
2.5000
1
24.00
72
1
73
0
11
332.000000
21
79.500000
31
0.0
0
LINE
8
DIM
10
270.800000
20
90.500000
30
0.0
11
258.000000
21
90.500000
31
0.0
0
LINE
8
DIM
10
270.800000
20
160.500000
30
0.0
11
258.000000
21
160.500000
31
0.0
0
LINE
8
DIM
10
260.000000
20
90.500000
30
0.0
11
260.000000
21
160.500000
31
0.0
0
SOLID
8
DIM
10
260.000000
20
90.500000
30
0.0
11
260.608000
21
93.700000
31
0.0
12
259.392000
22
93.700000
32
0.0
13
259.392000
23
93.700000
33
0.0
0
SOLID
8
DIM
10
260.000000
20
160.500000
30
0.0
11
259.392000
21
157.300000
31
0.0
12
260.608000
22
157.300000
32
0.0
13
260.608000
23
157.300000
33
0.0
0
TEXT
8
TEXT
10
259.000000
20
125.500000
30
0.0
40
2.5000
1
14.00
50
90.0000
72
1
73
0
11
259.000000
21
125.500000
31
0.0
0
TEXT
8
TEXT
10
332.000000
20
66.500000
30
0.0
40
4.0000
1
RIGHT VIEW
72
1
73
0
11
332.000000
21
66.500000
31
0.0
0
LINE
8
TEXT
10
320.000000
20
64.900000
30
0.0
11
344.000000
21
64.900000
31
0.0
0
TEXT
8
TEXT
10
332.000000
20
60.500000
30
0.0
40
2.4000
1
-Y →   Z ↑
72
1
73
0
11
332.000000
21
60.500000
31
0.0
0
TEXT
8
TEXT
10
545.000000
20
324.000000
30
0.0
40
4.0000
1
ISOMETRIC VIEW
72
1
73
0
11
545.000000
21
324.000000
31
0.0
0
LINE
8
TEXT
10
528.200000
20
322.400000
30
0.0
11
561.800000
21
322.400000
31
0.0
0
TEXT
8
TEXT
10
545.000000
20
318.000000
30
0.0
40
2.6000
1
22.00 x 24.00 x 14.00 mm
72
1
73
0
11
545.000000
21
318.000000
31
0.0
0
TEXT
8
TEXT
10
508.000000
20
304.000000
30
0.0
40
3.0000
1
NOTES
0
TEXT
8
TEXT
10
508.000000
20
299.400000
30
0.0
40
2.4000
1
1. ALL DIMENSIONS IN mm AND DEGREES. EVERY
0
TEXT
8
TEXT
10
508.000000
20
295.680000
30
0.0
40
2.4000
1
   DIMENSION AND EVERY HOLE CALLOUT WAS MEASURED
0
TEXT
8
TEXT
10
508.000000
20
291.960000
30
0.0
40
2.4000
1
   OFF THE SOLID.
0
TEXT
8
TEXT
10
508.000000
20
288.240000
30
0.0
40
2.4000
1
2. THINNEST WALL, WHOLE SOLID (RAY MINIMUM):
0
TEXT
8
TEXT
10
508.000000
20
284.520000
30
0.0
40
2.4000
1
   1.5000 mm, AT X=-0.254 Y=-6.706 Z=-3.208 —
0
TEXT
8
TEXT
10
508.000000
20
280.800000
30
0.0
40
2.4000
1
   MEASURED OVER THE WHOLE SOLID BY RAY+EXACT AT
0
TEXT
8
TEXT
10
508.000000
20
277.080000
30
0.0
40
2.4000
1
   0.4810 mm SAMPLE SPACING (A FEATURE NARROWER
0
TEXT
8
TEXT
10
508.000000
20
273.360000
30
0.0
40
2.4000
1
   THAN THAT CAN BE MISSED). THIS IS A DISTANCE
0
TEXT
8
TEXT
10
508.000000
20
269.640000
30
0.0
40
2.4000
1
   THROUGH MATERIAL, NOT A WALL: AT AN EDGE, A
0
TEXT
8
TEXT
10
508.000000
20
265.920000
30
0.0
40
2.4000
1
   FILLET RUN-OUT OR A CHAMFER TIP IT IS REAL AND
0
TEXT
8
TEXT
10
508.000000
20
262.200000
30
0.0
40
2.4000
1
   UNPRINTABLE BY DEFINITION. DO NOT JUDGE
0
TEXT
8
TEXT
10
508.000000
20
258.480000
30
0.0
40
2.4000
1
   PRINTABILITY BY IT — THE NEXT NOTE IS THE ONE
0
TEXT
8
TEXT
10
508.000000
20
254.760000
30
0.0
40
2.4000
1
   THAT DOES.
0
TEXT
8
TEXT
10
508.000000
20
251.040000
30
0.0
40
2.4000
1
3. PRINTABLE MINIMUM WALL: 1.4995 mm, AT X=0.669
0
TEXT
8
TEXT
10
508.000000
20
247.320000
30
0.0
40
2.4000
1
   Y=6.339 Z=-0.875 — MEASURED AS THE SMALLEST
0
TEXT
8
TEXT
10
508.000000
20
243.600000
30
0.0
40
2.4000
1
   MEDIAN WALL OVER A NEIGHBOURHOOD OF 1.4430 mm
0
TEXT
8
TEXT
10
508.000000
20
239.880000
30
0.0
40
2.4000
1
   (>= 8 SAMPLES), RAYS CAPPED AT 4.000 mm, BY
0
TEXT
8
TEXT
10
508.000000
20
236.160000
30
0.0
40
2.4000
1
   cecad.inspect.printable_wall_detail. AGAINST
0
TEXT
8
TEXT
10
508.000000
20
232.440000
30
0.0
40
2.4000
1
   THE 0.8000 mm FLOOR (2 PERIMETERS @ 0.4 mm
0
TEXT
8
TEXT
10
508.000000
20
228.720000
30
0.0
40
2.4000
1
   NOZZLE, cecad/printed.py:801): VERDICT PASS
0
TEXT
8
TEXT
10
508.000000
20
225.000000
30
0.0
40
2.4000
1
4. GENERAL TOLERANCE: CANNOT DETERMINE — THIS PART
0
TEXT
8
TEXT
10
508.000000
20
221.280000
30
0.0
40
2.4000
1
   DECLARES NO PROCESS THIS REPO CAN READ.
0
TEXT
8
TEXT
10
508.000000
20
217.560000
30
0.0
40
2.4000
1
5. FRONT VIEW: hidden lines KEPT: without them 2
0
TEXT
8
TEXT
10
508.000000
20
213.840000
30
0.0
40
2.4000
1
   of 189 edge samples have no ink within 0.35 mm
0
TEXT
8
TEXT
10
508.000000
20
210.120000
30
0.0
40
2.4000
1
   (worst 1.400 mm) and the feature would be
0
TEXT
8
TEXT
10
508.000000
20
206.400000
30
0.0
40
2.4000
1
   missing from the sheet.
0
TEXT
8
TEXT
10
508.000000
20
202.680000
30
0.0
40
2.4000
1
6. TOP VIEW: hidden lines SUPPRESSED: all 183 edge
0
TEXT
8
TEXT
10
508.000000
20
198.960000
30
0.0
40
2.4000
1
   samples still land on drawn ink without them.
0
TEXT
8
TEXT
10
508.000000
20
195.240000
30
0.0
40
2.4000
1
7. RIGHT VIEW: hidden lines SUPPRESSED: all 183
0
TEXT
8
TEXT
10
508.000000
20
191.520000
30
0.0
40
2.4000
1
   edge samples still land on drawn ink without
0
TEXT
8
TEXT
10
508.000000
20
187.800000
30
0.0
40
2.4000
1
   them.
0
TEXT
8
TEXT
10
508.000000
20
184.080000
30
0.0
40
2.4000
1
8. PINS ARE BOSSES, NOT HOLES, so they carry no
0
TEXT
8
TEXT
10
508.000000
20
180.360000
30
0.0
40
2.4000
1
   hole-table row: 2x Ø1.500 x 3.500 into the
0
TEXT
8
TEXT
10
508.000000
20
176.640000
30
0.0
40
2.4000
1
   horn's 1.60 tapped holes = 0.100 mm play =
0
TEXT
8
TEXT
10
508.000000
20
172.920000
30
0.0
40
2.4000
1
   0.955 deg of index play. INDEX GAUGE, NOT AN
0
TEXT
8
TEXT
10
508.000000
20
169.200000
30
0.0
40
2.4000
1
   ABSOLUTE ZERO.
0
TEXT
8
TEXT
10
508.000000
20
161.480000
30
0.0
40
3.0000
1
PRINT / DFM
0
TEXT
8
TEXT
10
508.000000
20
156.880000
30
0.0
40
2.4000
1
1. ORIENTATION: laid flat (22 x 24 x 14 mm)
0
TEXT
8
TEXT
10
508.000000
20
153.160000
30
0.0
40
2.4000
1
2. THINNEST WALL, WHOLE SOLID (RAY MINIMUM):
0
TEXT
8
TEXT
10
508.000000
20
149.440000
30
0.0
40
2.4000
1
   1.5000 mm — a distance through material, NOT a
0
TEXT
8
TEXT
10
508.000000
20
145.720000
30
0.0
40
2.4000
1
   printable wall where it falls on an edge, a
0
TEXT
8
TEXT
10
508.000000
20
142.000000
30
0.0
40
2.4000
1
   fillet run-out or a chamfer tip. Printability
0
TEXT
8
TEXT
10
508.000000
20
138.280000
30
0.0
40
2.4000
1
   is judged on the next line.
0
TEXT
8
TEXT
10
508.000000
20
134.560000
30
0.0
40
2.4000
1
3. PRINTABLE MINIMUM WALL: 1.4995 mm (smallest
0
TEXT
8
TEXT
10
508.000000
20
130.840000
30
0.0
40
2.4000
1
   median wall over a 1.4430 mm neighbourhood,
0
TEXT
8
TEXT
10
508.000000
20
127.120000
30
0.0
40
2.4000
1
   cecad.inspect.printable_wall_detail) against a
0
TEXT
8
TEXT
10
508.000000
20
123.400000
30
0.0
40
2.4000
1
   0.8000 mm floor (2 perimeters @ 0.4 mm nozzle):
0
TEXT
8
TEXT
10
508.000000
20
119.680000
30
0.0
40
2.4000
1
   VERDICT PASS
0
TEXT
8
TEXT
10
508.000000
20
115.960000
30
0.0
40
2.4000
1
4. FILAMENT: PLA, ~2 g (modelled), 70 layers @ 0.2
0
TEXT
8
TEXT
10
508.000000
20
112.240000
30
0.0
40
2.4000
1
   mm
0
LINE
8
FRAME
10
398.000000
20
10.000000
30
0.0
11
584.000000
21
10.000000
31
0.0
0
LINE
8
FRAME
10
584.000000
20
10.000000
30
0.0
11
584.000000
21
66.000000
31
0.0
0
LINE
8
FRAME
10
584.000000
20
66.000000
30
0.0
11
398.000000
21
66.000000
31
0.0
0
LINE
8
FRAME
10
398.000000
20
66.000000
30
0.0
11
398.000000
21
10.000000
31
0.0
0
LINE
8
TITLE
10
398.000000
20
53.000000
30
0.0
11
584.000000
21
53.000000
31
0.0
0
LINE
8
TITLE
10
398.000000
20
19.000000
30
0.0
11
584.000000
21
19.000000
31
0.0
0
LINE
8
TITLE
10
398.000000
20
27.500000
30
0.0
11
584.000000
21
27.500000
31
0.0
0
LINE
8
TITLE
10
398.000000
20
36.000000
30
0.0
11
584.000000
21
36.000000
31
0.0
0
LINE
8
TITLE
10
398.000000
20
44.500000
30
0.0
11
584.000000
21
44.500000
31
0.0
0
TEXT
8
TEXT
10
400.500000
20
59.500000
30
0.0
40
6.0000
1
MICRODUCK-JIG-HORN-ZERO
72
0
73
2
11
400.500000
21
59.500000
31
0.0
0
LINE
8
TITLE
10
564.000000
20
53.000000
30
0.0
11
564.000000
21
66.000000
31
0.0
0
TEXT
8
TITLE
10
574.000000
20
63.600000
30
0.0
40
1.7000
1
REV
72
1
73
0
11
574.000000
21
63.600000
31
0.0
0
TEXT
8
TEXT
10
574.000000
20
55.000000
30
0.0
40
5.2000
1
A
72
1
73
0
11
574.000000
21
55.000000
31
0.0
0
LINE
8
TITLE
10
534.000000
20
53.000000
30
0.0
11
534.000000
21
66.000000
31
0.0
0
CIRCLE
8
TITLE
10
540.500000
20
59.500000
30
0.0
40
3.500000
0
CIRCLE
8
TITLE
10
540.500000
20
59.500000
30
0.0
40
1.960000
0
LINE
8
TITLE
10
550.300000
20
56.000000
30
0.0
11
550.300000
21
63.000000
31
0.0
0
LINE
8
TITLE
10
550.300000
20
63.000000
30
0.0
11
556.250000
21
61.460000
31
0.0
0
LINE
8
TITLE
10
556.250000
20
61.460000
30
0.0
11
556.250000
21
57.540000
31
0.0
0
LINE
8
TITLE
10
556.250000
20
57.540000
30
0.0
11
550.300000
21
56.000000
31
0.0
0
LINE
8
CENTER
10
535.500000
20
59.500000
30
0.0
11
557.750000
21
59.500000
31
0.0
0
LINE
8
TITLE
10
462.000000
20
19.000000
30
0.0
11
462.000000
21
53.000000
31
0.0
0
LINE
8
TITLE
10
526.000000
20
19.000000
30
0.0
11
526.000000
21
53.000000
31
0.0
0
TEXT
8
TITLE
10
399.600000
20
50.600000
30
0.0
40
1.7000
1
MATERIAL
0
TEXT
8
TEXT
10
399.600000
20
45.900000
30
0.0
40
2.5000
1
PLA
0
TEXT
8
TITLE
10
463.600000
20
50.600000
30
0.0
40
1.7000
1
PROCESS
0
TEXT
8
TEXT
10
463.600000
20
45.900000
30
0.0
40
2.5000
1
-
0
TEXT
8
TITLE
10
527.600000
20
50.600000
30
0.0
40
1.7000
1
SCALE
0
TEXT
8
TEXT
10
527.600000
20
45.900000
30
0.0
40
2.5000
1
5:1
0
TEXT
8
TITLE
10
399.600000
20
42.100000
30
0.0
40
1.7000
1
CATEGORY
0
TEXT
8
TEXT
10
399.600000
20
37.400000
30
0.0
40
2.5000
1
-
0
TEXT
8
TITLE
10
431.600000
20
42.100000
30
0.0
40
1.7000
1
GENERAL TOL
0
TEXT
8
TEXT
10
431.600000
20
37.400000
30
0.0
40
2.5000
1
SEE NOTES
0
LINE
8
TITLE
10
430.000000
20
36.000000
30
0.0
11
430.000000
21
44.500000
31
0.0
0
TEXT
8
TITLE
10
463.600000
20
42.100000
30
0.0
40
1.7000
1
FINISH
0
TEXT
8
TEXT
10
463.600000
20
37.400000
30
0.0
40
2.5000
1
AS PRINTED
0
TEXT
8
TITLE
10
527.600000
20
42.100000
30
0.0
40
1.7000
1
SHEET
0
TEXT
8
TEXT
10
527.600000
20
37.400000
30
0.0
40
2.5000
1
A2  1/1
0
TEXT
8
TITLE
10
399.600000
20
33.600000
30
0.0
40
1.7000
1
VOLUME (MEASURED)
0
TEXT
8
TEXT
10
399.600000
20
28.900000
30
0.0
40
2.5000
1
1.55 cm3
0
TEXT
8
TITLE
10
463.600000
20
33.600000
30
0.0
40
1.7000
1
MASS (ASSUMES PLA)
0
TEXT
8
TEXT
10
463.600000
20
28.900000
30
0.0
40
2.5000
1
1.9 g
0
TEXT
8
TITLE
10
527.600000
20
33.600000
30
0.0
40
1.7000
1
UNITS
0
TEXT
8
TEXT
10
527.600000
20
28.900000
30
0.0
40
2.5000
1
mm / deg
0
TEXT
8
TITLE
10
399.600000
20
25.100000
30
0.0
40
1.7000
1
SIZE (BBOX, MEASURED)
0
TEXT
8
TEXT
10
399.600000
20
20.400000
30
0.0
40
2.5000
1
22.00 x 24.00 x 14.00
0
TEXT
8
TITLE
10
463.600000
20
25.100000
30
0.0
40
1.7000
1
DRAWN
0
TEXT
8
TEXT
10
463.600000
20
20.400000
30
0.0
40
2.5000
1
ce-cad  2026-09-03
0
TEXT
8
TITLE
10
527.600000
20
25.100000
30
0.0
40
1.7000
1
PROJECTION
0
TEXT
8
TEXT
10
527.600000
20
20.400000
30
0.0
40
2.5000
1
THIRD ANGLE
0
TEXT
8
TITLE
10
399.600000
20
16.600000
30
0.0
40
1.7000
1
SOURCE (DESIGN FILE)
0
TEXT
8
TEXT
10
399.600000
20
11.400000
30
0.0
40
2.6000
1
tools/jigs.py
0
TEXT
8
TEXT
10
12.500000
20
403.500000
30
0.0
40
4.2000
1
microduck-jig-horn-zero   SCALE 5:1   A2   THIRD ANGLE
0
ENDSEC
0
EOF
