0
SECTION
2
HEADER
9
$ACADVER
1
AC1009
9
$INSUNITS
70
4
9
$LTSCALE
40
1.0
9
$EXTMIN
10
0.0000
20
0.0000
30
0.0
9
$EXTMAX
10
1189.0000
20
841.0000
30
0.0
0
ENDSEC
0
SECTION
2
TABLES
0
TABLE
2
LTYPE
70
4
0
LTYPE
2
CONTINUOUS
70
0
3
Solid line
72
65
73
0
40
0.0000
0
LTYPE
2
HIDDEN
70
0
3
Hidden __ __ __ __
72
65
73
2
40
3.6000
49
2.4000
49
-1.2000
0
LTYPE
2
CENTER
70
0
3
Center ____ _ ____ _
72
65
73
4
40
11.2000
49
7.0000
49
-1.4000
49
1.4000
49
-1.4000
0
LTYPE
2
PHANTOM
70
0
3
Phantom ____ _ _ ____
72
65
73
6
40
21.0000
49
11.0000
49
-2.0000
49
2.0000
49
-2.0000
49
2.0000
49
-2.0000
0
ENDTAB
0
TABLE
2
LAYER
70
12
0
LAYER
2
0
70
0
62
7
6
CONTINUOUS
0
LAYER
2
VISIBLE
70
0
62
7
6
CONTINUOUS
0
LAYER
2
SECTION
70
0
62
7
6
CONTINUOUS
0
LAYER
2
HIDDEN
70
0
62
8
6
HIDDEN
0
LAYER
2
CENTER
70
0
62
4
6
CENTER
0
LAYER
2
DIM
70
0
62
3
6
CONTINUOUS
0
LAYER
2
TEXT
70
0
62
3
6
CONTINUOUS
0
LAYER
2
HATCH
70
0
62
5
6
CONTINUOUS
0
LAYER
2
CUT
70
0
62
1
6
PHANTOM
0
LAYER
2
CUTTHIN
70
0
62
1
6
PHANTOM
0
LAYER
2
FRAME
70
0
62
7
6
CONTINUOUS
0
LAYER
2
TITLE
70
0
62
7
6
CONTINUOUS
0
ENDTAB
0
ENDSEC
0
SECTION
2
ENTITIES
0
LINE
8
FRAME
10
10.000000
20
10.000000
30
0.0
11
1179.000000
21
10.000000
31
0.0
0
LINE
8
FRAME
10
1179.000000
20
10.000000
30
0.0
11
1179.000000
21
831.000000
31
0.0
0
LINE
8
FRAME
10
1179.000000
20
831.000000
30
0.0
11
10.000000
21
831.000000
31
0.0
0
LINE
8
FRAME
10
10.000000
20
831.000000
30
0.0
11
10.000000
21
10.000000
31
0.0
0
LINE
8
VISIBLE
10
10.000000
20
388.660000
30
0.0
11
476.600000
21
388.660000
31
0.0
0
LINE
8
VISIBLE
10
476.600000
20
388.660000
30
0.0
11
476.600000
21
831.152333
31
0.0
0
LINE
8
VISIBLE
10
476.600000
20
831.152333
30
0.0
11
10.000000
21
831.152333
31
0.0
0
LINE
8
VISIBLE
10
10.000000
20
831.152333
30
0.0
11
10.000000
21
388.660000
31
0.0
0
LINE
8
TITLE
10
10.000000
20
388.660000
30
0.0
11
476.600000
21
388.660000
31
0.0
0
LINE
8
TITLE
10
476.600000
20
388.660000
30
0.0
11
476.600000
21
831.152333
31
0.0
0
LINE
8
TITLE
10
476.600000
20
831.152333
30
0.0
11
10.000000
21
831.152333
31
0.0
0
LINE
8
TITLE
10
10.000000
20
831.152333
30
0.0
11
10.000000
21
388.660000
31
0.0
0
TEXT
8
TEXT
10
243.300000
20
392.660000
30
0.0
40
5.0000
1
ISOMETRIC 1 FRONT LEFT
72
1
73
0
11
243.300000
21
392.660000
31
0.0
0
TEXT
8
TEXT
10
243.300000
20
399.660000
30
0.0
40
3.5000
1
RENDER 1 / SCALE 7.48106:1
72
1
73
0
11
243.300000
21
399.660000
31
0.0
0
TEXT
8
TEXT
10
13.000000
20
819.152333
30
0.0
40
3.5000
1
MICRODUCK-SHIN — NOMINAL mm
0
TEXT
8
TEXT
10
13.000000
20
814.152333
30
0.0
40
3.5000
1
outline envelope length
0
TEXT
8
DIM
10
179.530333
20
814.152333
30
0.0
40
3.5000
1
7.9500
72
2
73
0
11
179.530333
21
814.152333
31
0.0
0
TEXT
8
TEXT
10
13.000000
20
809.152333
30
0.0
40
3.5000
1
outline envelope width
0
TEXT
8
DIM
10
179.530333
20
809.152333
30
0.0
40
3.5000
1
20.0000
72
2
73
0
11
179.530333
21
809.152333
31
0.0
0
TEXT
8
TEXT
10
13.000000
20
804.152333
30
0.0
40
3.5000
1
outline envelope height
0
TEXT
8
DIM
10
179.530333
20
804.152333
30
0.0
40
3.5000
1
58.0000
72
2
73
0
11
179.530333
21
804.152333
31
0.0
0
TEXT
8
TEXT
10
13.000000
20
799.152333
30
0.0
40
3.5000
1
hole 1 diameter (along x)
0
TEXT
8
DIM
10
179.530333
20
799.152333
30
0.0
40
3.5000
1
Ø6.0000
72
2
73
0
11
179.530333
21
799.152333
31
0.0
0
TEXT
8
TEXT
10
13.000000
20
794.152333
30
0.0
40
3.5000
1
hole 1 depth
0
TEXT
8
DIM
10
179.530333
20
794.152333
30
0.0
40
3.5000
1
7.2500
72
2
73
0
11
179.530333
21
794.152333
31
0.0
0
TEXT
8
TEXT
10
13.000000
20
789.152333
30
0.0
40
3.5000
1
hole 1 position from the Y datum face
0
TEXT
8
DIM
10
179.530333
20
789.152333
30
0.0
40
3.5000
1
10.0000
72
2
73
0
11
179.530333
21
789.152333
31
0.0
0
TEXT
8
TEXT
10
13.000000
20
784.152333
30
0.0
40
3.5000
1
hole 1 position from the Z datum face
0
TEXT
8
DIM
10
179.530333
20
784.152333
30
0.0
40
3.5000
1
48.0000
72
2
73
0
11
179.530333
21
784.152333
31
0.0
0
TEXT
8
TEXT
10
13.000000
20
779.152333
30
0.0
40
3.5000
1
counterbore 2 diameter (along x)
0
TEXT
8
DIM
10
179.530333
20
779.152333
30
0.0
40
3.5000
1
Ø5.5000
72
2
73
0
11
179.530333
21
779.152333
31
0.0
0
TEXT
8
TEXT
10
13.000000
20
774.152333
30
0.0
40
3.5000
1
counterbore 2 depth
0
TEXT
8
DIM
10
179.530333
20
774.152333
30
0.0
40
3.5000
1
3.4900
72
2
73
0
11
179.530333
21
774.152333
31
0.0
0
TEXT
8
TEXT
10
13.000000
20
769.152333
30
0.0
40
3.5000
1
counterbore 2 position from the Y datum face
0
TEXT
8
DIM
10
179.530333
20
769.152333
30
0.0
40
3.5000
1
10.0000
72
2
73
0
11
179.530333
21
769.152333
31
0.0
0
TEXT
8
TEXT
10
13.000000
20
764.152333
30
0.0
40
3.5000
1
counterbore 2 position from the Z datum face
0
TEXT
8
DIM
10
179.530333
20
764.152333
30
0.0
40
3.5000
1
6.0000
72
2
73
0
11
179.530333
21
764.152333
31
0.0
0
TEXT
8
TEXT
10
13.000000
20
759.152333
30
0.0
40
3.5000
1
counterbore 3 diameter (along x)
0
TEXT
8
DIM
10
179.530333
20
759.152333
30
0.0
40
3.5000
1
Ø4.8400
72
2
73
0
11
179.530333
21
759.152333
31
0.0
0
TEXT
8
TEXT
10
13.000000
20
754.152333
30
0.0
40
3.5000
1
counterbore 3 depth
0
TEXT
8
DIM
10
179.530333
20
754.152333
30
0.0
40
3.5000
1
3.0000
72
2
73
0
11
179.530333
21
754.152333
31
0.0
0
TEXT
8
TEXT
10
13.000000
20
749.152333
30
0.0
40
3.5000
1
counterbore 3 position from the Y datum face
0
TEXT
8
DIM
10
179.530333
20
749.152333
30
0.0
40
3.5000
1
2.0000
72
2
73
0
11
179.530333
21
749.152333
31
0.0
0
TEXT
8
TEXT
10
13.000000
20
744.152333
30
0.0
40
3.5000
1
counterbore 3 position from the Z datum face
0
TEXT
8
DIM
10
179.530333
20
744.152333
30
0.0
40
3.5000
1
28.5000
72
2
73
0
11
179.530333
21
744.152333
31
0.0
0
TEXT
8
TEXT
10
13.000000
20
739.152333
30
0.0
40
3.5000
1
counterbore 4 diameter (along x)
0
TEXT
8
DIM
10
179.530333
20
739.152333
30
0.0
40
3.5000
1
Ø4.8400
72
2
73
0
11
179.530333
21
739.152333
31
0.0
0
TEXT
8
TEXT
10
13.000000
20
734.152333
30
0.0
40
3.5000
1
counterbore 4 depth
0
TEXT
8
DIM
10
179.530333
20
734.152333
30
0.0
40
3.5000
1
3.0000
72
2
73
0
11
179.530333
21
734.152333
31
0.0
0
TEXT
8
TEXT
10
13.000000
20
729.152333
30
0.0
40
3.5000
1
counterbore 4 position from the Y datum face
0
TEXT
8
DIM
10
179.530333
20
729.152333
30
0.0
40
3.5000
1
18.0000
72
2
73
0
11
179.530333
21
729.152333
31
0.0
0
TEXT
8
TEXT
10
13.000000
20
724.152333
30
0.0
40
3.5000
1
counterbore 4 position from the Z datum face
0
TEXT
8
DIM
10
179.530333
20
724.152333
30
0.0
40
3.5000
1
28.5000
72
2
73
0
11
179.530333
21
724.152333
31
0.0
0
TEXT
8
TEXT
10
307.458500
20
819.152333
30
0.0
40
3.5000
1
CANNOT DETERMINE — chamfer: A4 requires size and angle on every chamfer;
0
TEXT
8
TEXT
10
307.458500
20
814.152333
30
0.0
40
3.5000
1
cecad.inspect has no chamfer classifier — a chamfer is a planar face bridging
0
TEXT
8
TEXT
10
307.458500
20
809.152333
30
0.0
40
3.5000
1
two faces at an angle and nothing here identifies one SETTLED BY: a chamfer
0
TEXT
8
TEXT
10
307.458500
20
804.152333
30
0.0
40
3.5000
1
classifier in cecad.inspect (planar face whose two neighbours meet it at equal
0
TEXT
8
TEXT
10
307.458500
20
799.152333
30
0.0
40
3.5000
1
angles), or the builder declaring its chamfers in the part record
0
LINE
8
VISIBLE
10
477.600000
20
388.660000
30
0.0
11
827.300000
21
388.660000
31
0.0
0
LINE
8
VISIBLE
10
827.300000
20
388.660000
30
0.0
11
827.300000
21
831.030500
31
0.0
0
LINE
8
VISIBLE
10
827.300000
20
831.030500
30
0.0
11
477.600000
21
831.030500
31
0.0
0
LINE
8
VISIBLE
10
477.600000
20
831.030500
30
0.0
11
477.600000
21
388.660000
31
0.0
0
LINE
8
TITLE
10
477.600000
20
388.660000
30
0.0
11
827.300000
21
388.660000
31
0.0
0
LINE
8
TITLE
10
827.300000
20
388.660000
30
0.0
11
827.300000
21
831.030500
31
0.0
0
LINE
8
TITLE
10
827.300000
20
831.030500
30
0.0
11
477.600000
21
831.030500
31
0.0
0
LINE
8
TITLE
10
477.600000
20
831.030500
30
0.0
11
477.600000
21
388.660000
31
0.0
0
TEXT
8
TEXT
10
652.450000
20
392.660000
30
0.0
40
5.0000
1
ISOMETRIC 2 FRONT RIGHT
72
1
73
0
11
652.450000
21
392.660000
31
0.0
0
TEXT
8
TEXT
10
652.450000
20
399.660000
30
0.0
40
3.5000
1
RENDER 2 / SCALE 5.89745:1
72
1
73
0
11
652.450000
21
399.660000
31
0.0
0
TEXT
8
TEXT
10
480.600000
20
819.030500
30
0.0
40
3.5000
1
MEASURED FEATURES — mm
0
TEXT
8
TEXT
10
480.600000
20
814.030500
30
0.0
40
3.5000
1
counterbore 5 diameter (along x)
0
TEXT
8
DIM
10
600.863250
20
814.030500
30
0.0
40
3.5000
1
Ø4.4000
72
2
73
0
11
600.863250
21
814.030500
31
0.0
0
TEXT
8
TEXT
10
480.600000
20
809.030500
30
0.0
40
3.5000
1
counterbore 5 depth
0
TEXT
8
DIM
10
600.863250
20
809.030500
30
0.0
40
3.5000
1
4.4900
72
2
73
0
11
600.863250
21
809.030500
31
0.0
0
TEXT
8
TEXT
10
480.600000
20
804.030500
30
0.0
40
3.5000
1
counterbore 5 position from the Y datum face
0
TEXT
8
DIM
10
600.863250
20
804.030500
30
0.0
40
3.5000
1
5.7570
72
2
73
0
11
600.863250
21
804.030500
31
0.0
0
TEXT
8
TEXT
10
480.600000
20
799.030500
30
0.0
40
3.5000
1
counterbore 5 position from the Z datum face
0
TEXT
8
DIM
10
600.863250
20
799.030500
30
0.0
40
3.5000
1
43.7570
72
2
73
0
11
600.863250
21
799.030500
31
0.0
0
TEXT
8
TEXT
10
480.600000
20
794.030500
30
0.0
40
3.5000
1
counterbore 6 diameter (along x)
0
TEXT
8
DIM
10
600.863250
20
794.030500
30
0.0
40
3.5000
1
Ø4.4000
72
2
73
0
11
600.863250
21
794.030500
31
0.0
0
TEXT
8
TEXT
10
480.600000
20
789.030500
30
0.0
40
3.5000
1
counterbore 6 depth
0
TEXT
8
DIM
10
600.863250
20
789.030500
30
0.0
40
3.5000
1
4.4900
72
2
73
0
11
600.863250
21
789.030500
31
0.0
0
TEXT
8
TEXT
10
480.600000
20
784.030500
30
0.0
40
3.5000
1
counterbore 6 position from the Y datum face
0
TEXT
8
DIM
10
600.863250
20
784.030500
30
0.0
40
3.5000
1
5.7570
72
2
73
0
11
600.863250
21
784.030500
31
0.0
0
TEXT
8
TEXT
10
480.600000
20
779.030500
30
0.0
40
3.5000
1
counterbore 6 position from the Z datum face
0
TEXT
8
DIM
10
600.863250
20
779.030500
30
0.0
40
3.5000
1
52.2430
72
2
73
0
11
600.863250
21
779.030500
31
0.0
0
TEXT
8
TEXT
10
480.600000
20
774.030500
30
0.0
40
3.5000
1
counterbore 7 diameter (along x)
0
TEXT
8
DIM
10
600.863250
20
774.030500
30
0.0
40
3.5000
1
Ø4.4000
72
2
73
0
11
600.863250
21
774.030500
31
0.0
0
TEXT
8
TEXT
10
480.600000
20
769.030500
30
0.0
40
3.5000
1
counterbore 7 depth
0
TEXT
8
DIM
10
600.863250
20
769.030500
30
0.0
40
3.5000
1
4.4900
72
2
73
0
11
600.863250
21
769.030500
31
0.0
0
TEXT
8
TEXT
10
480.600000
20
764.030500
30
0.0
40
3.5000
1
counterbore 7 position from the Y datum face
0
TEXT
8
DIM
10
600.863250
20
764.030500
30
0.0
40
3.5000
1
14.2430
72
2
73
0
11
600.863250
21
764.030500
31
0.0
0
TEXT
8
TEXT
10
480.600000
20
759.030500
30
0.0
40
3.5000
1
counterbore 7 position from the Z datum face
0
TEXT
8
DIM
10
600.863250
20
759.030500
30
0.0
40
3.5000
1
43.7570
72
2
73
0
11
600.863250
21
759.030500
31
0.0
0
TEXT
8
TEXT
10
480.600000
20
754.030500
30
0.0
40
3.5000
1
counterbore 8 diameter (along x)
0
TEXT
8
DIM
10
600.863250
20
754.030500
30
0.0
40
3.5000
1
Ø4.4000
72
2
73
0
11
600.863250
21
754.030500
31
0.0
0
TEXT
8
TEXT
10
480.600000
20
749.030500
30
0.0
40
3.5000
1
counterbore 8 depth
0
TEXT
8
DIM
10
600.863250
20
749.030500
30
0.0
40
3.5000
1
4.4900
72
2
73
0
11
600.863250
21
749.030500
31
0.0
0
TEXT
8
TEXT
10
480.600000
20
744.030500
30
0.0
40
3.5000
1
counterbore 8 position from the Y datum face
0
TEXT
8
DIM
10
600.863250
20
744.030500
30
0.0
40
3.5000
1
14.2430
72
2
73
0
11
600.863250
21
744.030500
31
0.0
0
TEXT
8
TEXT
10
480.600000
20
739.030500
30
0.0
40
3.5000
1
counterbore 8 position from the Z datum face
0
TEXT
8
DIM
10
600.863250
20
739.030500
30
0.0
40
3.5000
1
52.2430
72
2
73
0
11
600.863250
21
739.030500
31
0.0
0
TEXT
8
TEXT
10
480.600000
20
734.030500
30
0.0
40
3.5000
1
hole 9 diameter (along x)
0
TEXT
8
DIM
10
600.863250
20
734.030500
30
0.0
40
3.5000
1
Ø2.7000
72
2
73
0
11
600.863250
21
734.030500
31
0.0
0
TEXT
8
TEXT
10
480.600000
20
729.030500
30
0.0
40
3.5000
1
hole 9 depth
0
TEXT
8
DIM
10
600.863250
20
729.030500
30
0.0
40
3.5000
1
4.3000
72
2
73
0
11
600.863250
21
729.030500
31
0.0
0
TEXT
8
TEXT
10
480.600000
20
724.030500
30
0.0
40
3.5000
1
hole 9 position from the Y datum face
0
TEXT
8
DIM
10
600.863250
20
724.030500
30
0.0
40
3.5000
1
10.0000
72
2
73
0
11
600.863250
21
724.030500
31
0.0
0
TEXT
8
TEXT
10
704.328167
20
819.030500
30
0.0
40
3.5000
1
CANNOT DETERMINE — rib: A4 requires thickness, height and
0
TEXT
8
TEXT
10
704.328167
20
814.030500
30
0.0
40
3.5000
1
pitch on every rib; nothing here groups faces into a rib
0
TEXT
8
TEXT
10
704.328167
20
809.030500
30
0.0
40
3.5000
1
SETTLED BY: a rib classifier (parallel thin prisms
0
TEXT
8
TEXT
10
704.328167
20
804.030500
30
0.0
40
3.5000
1
standing off a wall), or the builder declaring its rib
0
TEXT
8
TEXT
10
704.328167
20
799.030500
30
0.0
40
3.5000
1
pitch
0
LINE
8
VISIBLE
10
828.300000
20
388.660000
30
0.0
11
1178.000000
21
388.660000
31
0.0
0
LINE
8
VISIBLE
10
1178.000000
20
388.660000
30
0.0
11
1178.000000
21
831.030500
31
0.0
0
LINE
8
VISIBLE
10
1178.000000
20
831.030500
30
0.0
11
828.300000
21
831.030500
31
0.0
0
LINE
8
VISIBLE
10
828.300000
20
831.030500
30
0.0
11
828.300000
21
388.660000
31
0.0
0
LINE
8
TITLE
10
828.300000
20
388.660000
30
0.0
11
1178.000000
21
388.660000
31
0.0
0
LINE
8
TITLE
10
1178.000000
20
388.660000
30
0.0
11
1178.000000
21
831.030500
31
0.0
0
LINE
8
TITLE
10
1178.000000
20
831.030500
30
0.0
11
828.300000
21
831.030500
31
0.0
0
LINE
8
TITLE
10
828.300000
20
831.030500
30
0.0
11
828.300000
21
388.660000
31
0.0
0
TEXT
8
TEXT
10
1003.150000
20
392.660000
30
0.0
40
5.0000
1
ISOMETRIC 3 REAR RIGHT
72
1
73
0
11
1003.150000
21
392.660000
31
0.0
0
TEXT
8
TEXT
10
1003.150000
20
399.660000
30
0.0
40
3.5000
1
RENDER 3 / SCALE 5.89745:1
72
1
73
0
11
1003.150000
21
399.660000
31
0.0
0
TEXT
8
TEXT
10
831.300000
20
819.030500
30
0.0
40
3.5000
1
MEASURED FEATURES — mm
0
TEXT
8
TEXT
10
831.300000
20
814.030500
30
0.0
40
3.5000
1
hole 9 position from the Z datum face
0
TEXT
8
DIM
10
951.563250
20
814.030500
30
0.0
40
3.5000
1
6.0000
72
2
73
0
11
951.563250
21
814.030500
31
0.0
0
TEXT
8
TEXT
10
831.300000
20
809.030500
30
0.0
40
3.5000
1
hole 10 diameter (along x)
0
TEXT
8
DIM
10
951.563250
20
809.030500
30
0.0
40
3.5000
1
Ø2.4000
72
2
73
0
11
951.563250
21
809.030500
31
0.0
0
TEXT
8
TEXT
10
831.300000
20
804.030500
30
0.0
40
3.5000
1
hole 10 depth
0
TEXT
8
DIM
10
951.563250
20
804.030500
30
0.0
40
3.5000
1
2.3000
72
2
73
0
11
951.563250
21
804.030500
31
0.0
0
TEXT
8
TEXT
10
831.300000
20
799.030500
30
0.0
40
3.5000
1
hole 10 position from the Y datum face
0
TEXT
8
DIM
10
951.563250
20
799.030500
30
0.0
40
3.5000
1
2.0000
72
2
73
0
11
951.563250
21
799.030500
31
0.0
0
TEXT
8
TEXT
10
831.300000
20
794.030500
30
0.0
40
3.5000
1
hole 10 position from the Z datum face
0
TEXT
8
DIM
10
951.563250
20
794.030500
30
0.0
40
3.5000
1
28.5000
72
2
73
0
11
951.563250
21
794.030500
31
0.0
0
TEXT
8
TEXT
10
831.300000
20
789.030500
30
0.0
40
3.5000
1
hole 11 diameter (along x)
0
TEXT
8
DIM
10
951.563250
20
789.030500
30
0.0
40
3.5000
1
Ø2.4000
72
2
73
0
11
951.563250
21
789.030500
31
0.0
0
TEXT
8
TEXT
10
831.300000
20
784.030500
30
0.0
40
3.5000
1
hole 11 depth
0
TEXT
8
DIM
10
951.563250
20
784.030500
30
0.0
40
3.5000
1
2.3000
72
2
73
0
11
951.563250
21
784.030500
31
0.0
0
TEXT
8
TEXT
10
831.300000
20
779.030500
30
0.0
40
3.5000
1
hole 11 position from the Y datum face
0
TEXT
8
DIM
10
951.563250
20
779.030500
30
0.0
40
3.5000
1
18.0000
72
2
73
0
11
951.563250
21
779.030500
31
0.0
0
TEXT
8
TEXT
10
831.300000
20
774.030500
30
0.0
40
3.5000
1
hole 11 position from the Z datum face
0
TEXT
8
DIM
10
951.563250
20
774.030500
30
0.0
40
3.5000
1
28.5000
72
2
73
0
11
951.563250
21
774.030500
31
0.0
0
TEXT
8
TEXT
10
831.300000
20
769.030500
30
0.0
40
3.5000
1
hole 12 diameter (along x)
0
TEXT
8
DIM
10
951.563250
20
769.030500
30
0.0
40
3.5000
1
Ø2.2000
72
2
73
0
11
951.563250
21
769.030500
31
0.0
0
TEXT
8
TEXT
10
831.300000
20
764.030500
30
0.0
40
3.5000
1
hole 12 depth
0
TEXT
8
DIM
10
951.563250
20
764.030500
30
0.0
40
3.5000
1
2.7600
72
2
73
0
11
951.563250
21
764.030500
31
0.0
0
TEXT
8
TEXT
10
831.300000
20
759.030500
30
0.0
40
3.5000
1
hole 12 position from the Y datum face
0
TEXT
8
DIM
10
951.563250
20
759.030500
30
0.0
40
3.5000
1
5.7570
72
2
73
0
11
951.563250
21
759.030500
31
0.0
0
TEXT
8
TEXT
10
831.300000
20
754.030500
30
0.0
40
3.5000
1
hole 12 position from the Z datum face
0
TEXT
8
DIM
10
951.563250
20
754.030500
30
0.0
40
3.5000
1
43.7570
72
2
73
0
11
951.563250
21
754.030500
31
0.0
0
TEXT
8
TEXT
10
831.300000
20
749.030500
30
0.0
40
3.5000
1
hole 13 diameter (along x)
0
TEXT
8
DIM
10
951.563250
20
749.030500
30
0.0
40
3.5000
1
Ø2.2000
72
2
73
0
11
951.563250
21
749.030500
31
0.0
0
TEXT
8
TEXT
10
831.300000
20
744.030500
30
0.0
40
3.5000
1
hole 13 depth
0
TEXT
8
DIM
10
951.563250
20
744.030500
30
0.0
40
3.5000
1
2.7600
72
2
73
0
11
951.563250
21
744.030500
31
0.0
0
TEXT
8
TEXT
10
831.300000
20
739.030500
30
0.0
40
3.5000
1
hole 13 position from the Y datum face
0
TEXT
8
DIM
10
951.563250
20
739.030500
30
0.0
40
3.5000
1
5.7570
72
2
73
0
11
951.563250
21
739.030500
31
0.0
0
TEXT
8
TEXT
10
831.300000
20
734.030500
30
0.0
40
3.5000
1
hole 13 position from the Z datum face
0
TEXT
8
DIM
10
951.563250
20
734.030500
30
0.0
40
3.5000
1
52.2430
72
2
73
0
11
951.563250
21
734.030500
31
0.0
0
TEXT
8
TEXT
10
831.300000
20
729.030500
30
0.0
40
3.5000
1
hole 14 diameter (along x)
0
TEXT
8
DIM
10
951.563250
20
729.030500
30
0.0
40
3.5000
1
Ø2.2000
72
2
73
0
11
951.563250
21
729.030500
31
0.0
0
TEXT
8
TEXT
10
831.300000
20
724.030500
30
0.0
40
3.5000
1
hole 14 depth
0
TEXT
8
DIM
10
951.563250
20
724.030500
30
0.0
40
3.5000
1
2.7600
72
2
73
0
11
951.563250
21
724.030500
31
0.0
0
TEXT
8
TEXT
10
1055.028167
20
819.030500
30
0.0
40
3.5000
1
CANNOT DETERMINE — draft: A4 requires every draft angle;
0
TEXT
8
TEXT
10
1055.028167
20
814.030500
30
0.0
40
3.5000
1
no face here is tested for draft against a pull direction
0
TEXT
8
TEXT
10
1055.028167
20
809.030500
30
0.0
40
3.5000
1
SETTLED BY: a pull direction on the part record, then the
0
TEXT
8
TEXT
10
1055.028167
20
804.030500
30
0.0
40
3.5000
1
angle of every planar face to it
0
LINE
8
VISIBLE
10
10.000000
20
10.000000
30
0.0
11
412.305000
21
10.000000
31
0.0
0
LINE
8
VISIBLE
10
412.305000
20
10.000000
30
0.0
11
412.305000
21
386.825683
31
0.0
0
LINE
8
VISIBLE
10
412.305000
20
386.825683
30
0.0
11
10.000000
21
386.825683
31
0.0
0
LINE
8
VISIBLE
10
10.000000
20
386.825683
30
0.0
11
10.000000
21
10.000000
31
0.0
0
LINE
8
TITLE
10
10.000000
20
10.000000
30
0.0
11
412.305000
21
10.000000
31
0.0
0
LINE
8
TITLE
10
412.305000
20
10.000000
30
0.0
11
412.305000
21
386.825683
31
0.0
0
LINE
8
TITLE
10
412.305000
20
386.825683
30
0.0
11
10.000000
21
386.825683
31
0.0
0
LINE
8
TITLE
10
10.000000
20
386.825683
30
0.0
11
10.000000
21
10.000000
31
0.0
0
TEXT
8
TEXT
10
211.152500
20
14.000000
30
0.0
40
5.0000
1
ISOMETRIC 4 REAR LEFT
72
1
73
0
11
211.152500
21
14.000000
31
0.0
0
TEXT
8
TEXT
10
211.152500
20
21.000000
30
0.0
40
3.5000
1
RENDER 4 / SCALE 6.37085:1
72
1
73
0
11
211.152500
21
21.000000
31
0.0
0
TEXT
8
TEXT
10
13.000000
20
374.825683
30
0.0
40
3.5000
1
MEASURED FEATURES — mm
0
TEXT
8
TEXT
10
13.000000
20
369.825683
30
0.0
40
3.5000
1
hole 14 position from the Y datum face
0
TEXT
8
DIM
10
155.875900
20
369.825683
30
0.0
40
3.5000
1
14.2430
72
2
73
0
11
155.875900
21
369.825683
31
0.0
0
TEXT
8
TEXT
10
13.000000
20
364.825683
30
0.0
40
3.5000
1
hole 14 position from the Z datum face
0
TEXT
8
DIM
10
155.875900
20
364.825683
30
0.0
40
3.5000
1
43.7570
72
2
73
0
11
155.875900
21
364.825683
31
0.0
0
TEXT
8
TEXT
10
13.000000
20
359.825683
30
0.0
40
3.5000
1
hole 15 diameter (along x)
0
TEXT
8
DIM
10
155.875900
20
359.825683
30
0.0
40
3.5000
1
Ø2.2000
72
2
73
0
11
155.875900
21
359.825683
31
0.0
0
TEXT
8
TEXT
10
13.000000
20
354.825683
30
0.0
40
3.5000
1
hole 15 depth
0
TEXT
8
DIM
10
155.875900
20
354.825683
30
0.0
40
3.5000
1
2.7600
72
2
73
0
11
155.875900
21
354.825683
31
0.0
0
TEXT
8
TEXT
10
13.000000
20
349.825683
30
0.0
40
3.5000
1
hole 15 position from the Y datum face
0
TEXT
8
DIM
10
155.875900
20
349.825683
30
0.0
40
3.5000
1
14.2430
72
2
73
0
11
155.875900
21
349.825683
31
0.0
0
TEXT
8
TEXT
10
13.000000
20
344.825683
30
0.0
40
3.5000
1
hole 15 position from the Z datum face
0
TEXT
8
DIM
10
155.875900
20
344.825683
30
0.0
40
3.5000
1
52.2430
72
2
73
0
11
155.875900
21
344.825683
31
0.0
0
TEXT
8
TEXT
10
13.000000
20
339.825683
30
0.0
40
3.5000
1
groove 1 outer Ø
0
TEXT
8
DIM
10
155.875900
20
339.825683
30
0.0
40
3.5000
1
Ø8.0000
72
2
73
0
11
155.875900
21
339.825683
31
0.0
0
TEXT
8
TEXT
10
13.000000
20
334.825683
30
0.0
40
3.5000
1
groove 1 core Ø
0
TEXT
8
DIM
10
155.875900
20
334.825683
30
0.0
40
3.5000
1
Ø4.9200
72
2
73
0
11
155.875900
21
334.825683
31
0.0
0
TEXT
8
TEXT
10
13.000000
20
329.825683
30
0.0
40
3.5000
1
groove 1 depth
0
TEXT
8
DIM
10
155.875900
20
329.825683
30
0.0
40
3.5000
1
0.5000
72
2
73
0
11
155.875900
21
329.825683
31
0.0
0
TEXT
8
TEXT
10
13.000000
20
324.825683
30
0.0
40
3.5000
1
boss / outside diameter 1
0
TEXT
8
DIM
10
155.875900
20
324.825683
30
0.0
40
3.5000
1
Ø15.9000
72
2
73
0
11
155.875900
21
324.825683
31
0.0
0
TEXT
8
TEXT
10
13.000000
20
319.825683
30
0.0
40
3.5000
1
boss 1 length along its axis
0
TEXT
8
DIM
10
155.875900
20
319.825683
30
0.0
40
3.5000
1
1.9500
72
2
73
0
11
155.875900
21
319.825683
31
0.0
0
TEXT
8
TEXT
10
13.000000
20
314.825683
30
0.0
40
3.5000
1
boss / outside diameter 2
0
TEXT
8
DIM
10
155.875900
20
314.825683
30
0.0
40
3.5000
1
Ø10.0000
72
2
73
0
11
155.875900
21
314.825683
31
0.0
0
TEXT
8
TEXT
10
13.000000
20
309.825683
30
0.0
40
3.5000
1
boss 2 length along its axis
0
TEXT
8
DIM
10
155.875900
20
309.825683
30
0.0
40
3.5000
1
3.2000
72
2
73
0
11
155.875900
21
309.825683
31
0.0
0
TEXT
8
TEXT
10
13.000000
20
304.825683
30
0.0
40
3.5000
1
boss / outside diameter 3
0
TEXT
8
DIM
10
155.875900
20
304.825683
30
0.0
40
3.5000
1
Ø10.0000
72
2
73
0
11
155.875900
21
304.825683
31
0.0
0
TEXT
8
TEXT
10
13.000000
20
299.825683
30
0.0
40
3.5000
1
boss 3 length along its axis
0
TEXT
8
DIM
10
155.875900
20
299.825683
30
0.0
40
3.5000
1
0.5000
72
2
73
0
11
155.875900
21
299.825683
31
0.0
0
TEXT
8
TEXT
10
13.000000
20
294.825683
30
0.0
40
3.5000
1
boss / outside diameter 4
0
TEXT
8
DIM
10
155.875900
20
294.825683
30
0.0
40
3.5000
1
Ø4.9200
72
2
73
0
11
155.875900
21
294.825683
31
0.0
0
TEXT
8
TEXT
10
13.000000
20
289.825683
30
0.0
40
3.5000
1
boss 4 length along its axis
0
TEXT
8
DIM
10
155.875900
20
289.825683
30
0.0
40
3.5000
1
2.2900
72
2
73
0
11
155.875900
21
289.825683
31
0.0
0
TEXT
8
TEXT
10
13.000000
20
284.825683
30
0.0
40
3.5000
1
radius R1.10 (8 edges, 8 full circles)
0
TEXT
8
DIM
10
155.875900
20
284.825683
30
0.0
40
3.5000
1
R1.1000
72
2
73
0
11
155.875900
21
284.825683
31
0.0
0
TEXT
8
TEXT
10
13.000000
20
279.825683
30
0.0
40
3.5000
1
radius R1.20 (6 edges, 2 full circles)
0
TEXT
8
DIM
10
155.875900
20
279.825683
30
0.0
40
3.5000
1
R1.2000
72
2
73
0
11
155.875900
21
279.825683
31
0.0
0
TEXT
8
TEXT
10
266.764354
20
374.825683
30
0.0
40
3.5000
1
CANNOT DETERMINE — step: A4 requires every step and shoulder; nothing
0
TEXT
8
TEXT
10
266.764354
20
369.825683
30
0.0
40
3.5000
1
here classifies a shoulder between two coaxial diameters or two
0
TEXT
8
TEXT
10
266.764354
20
364.825683
30
0.0
40
3.5000
1
parallel faces SETTLED BY: a step classifier, or the section views
0
TEXT
8
TEXT
10
266.764354
20
359.825683
30
0.0
40
3.5000
1
declaring their stations
0
LINE
8
VISIBLE
10
413.305000
20
10.000000
30
0.0
11
795.152500
21
10.000000
31
0.0
0
LINE
8
VISIBLE
10
795.152500
20
10.000000
30
0.0
11
795.152500
21
386.756200
31
0.0
0
LINE
8
VISIBLE
10
795.152500
20
386.756200
30
0.0
11
413.305000
21
386.756200
31
0.0
0
LINE
8
VISIBLE
10
413.305000
20
386.756200
30
0.0
11
413.305000
21
10.000000
31
0.0
0
LINE
8
TITLE
10
413.305000
20
10.000000
30
0.0
11
795.152500
21
10.000000
31
0.0
0
LINE
8
TITLE
10
795.152500
20
10.000000
30
0.0
11
795.152500
21
386.756200
31
0.0
0
LINE
8
TITLE
10
795.152500
20
386.756200
30
0.0
11
413.305000
21
386.756200
31
0.0
0
LINE
8
TITLE
10
413.305000
20
386.756200
30
0.0
11
413.305000
21
10.000000
31
0.0
0
TEXT
8
TEXT
10
604.228750
20
14.000000
30
0.0
40
5.0000
1
TOP-DOWN RENDER
72
1
73
0
11
604.228750
21
14.000000
31
0.0
0
TEXT
8
TEXT
10
604.228750
20
21.000000
30
0.0
40
3.5000
1
RENDER 5 / SCALE 17.12528:1
72
1
73
0
11
604.228750
21
21.000000
31
0.0
0
TEXT
8
TEXT
10
416.305000
20
374.756200
30
0.0
40
3.5000
1
MEASURED FEATURES — mm
0
TEXT
8
TEXT
10
416.305000
20
369.756200
30
0.0
40
3.5000
1
radius R1.35 (2 edges, 2 full circles)
0
TEXT
8
DIM
10
529.132612
20
369.756200
30
0.0
40
3.5000
1
R1.3500
72
2
73
0
11
529.132612
21
369.756200
31
0.0
0
TEXT
8
TEXT
10
416.305000
20
364.756200
30
0.0
40
3.5000
1
radius R2.20 (12 edges, 4 full circles)
0
TEXT
8
DIM
10
529.132612
20
364.756200
30
0.0
40
3.5000
1
R2.2000
72
2
73
0
11
529.132612
21
364.756200
31
0.0
0
TEXT
8
TEXT
10
416.305000
20
359.756200
30
0.0
40
3.5000
1
radius R2.42 (6 edges, 0 full circles)
0
TEXT
8
DIM
10
529.132612
20
359.756200
30
0.0
40
3.5000
1
R2.4200
72
2
73
0
11
529.132612
21
359.756200
31
0.0
0
TEXT
8
TEXT
10
416.305000
20
354.756200
30
0.0
40
3.5000
1
radius R2.46 (2 edges, 2 full circles)
0
TEXT
8
DIM
10
529.132612
20
354.756200
30
0.0
40
3.5000
1
R2.4600
72
2
73
0
11
529.132612
21
354.756200
31
0.0
0
TEXT
8
TEXT
10
416.305000
20
349.756200
30
0.0
40
3.5000
1
radius R2.75 (2 edges, 2 full circles)
0
TEXT
8
DIM
10
529.132612
20
349.756200
30
0.0
40
3.5000
1
R2.7500
72
2
73
0
11
529.132612
21
349.756200
31
0.0
0
TEXT
8
TEXT
10
416.305000
20
344.756200
30
0.0
40
3.5000
1
radius R3.00 (2 edges, 2 full circles)
0
TEXT
8
DIM
10
529.132612
20
344.756200
30
0.0
40
3.5000
1
R3.0000
72
2
73
0
11
529.132612
21
344.756200
31
0.0
0
TEXT
8
TEXT
10
416.305000
20
339.756200
30
0.0
40
3.5000
1
radius R4.00 (2 edges, 2 full circles)
0
TEXT
8
DIM
10
529.132612
20
339.756200
30
0.0
40
3.5000
1
R4.0000
72
2
73
0
11
529.132612
21
339.756200
31
0.0
0
TEXT
8
TEXT
10
416.305000
20
334.756200
30
0.0
40
3.5000
1
radius R5.00 (4 edges, 4 full circles)
0
TEXT
8
DIM
10
529.132612
20
334.756200
30
0.0
40
3.5000
1
R5.0000
72
2
73
0
11
529.132612
21
334.756200
31
0.0
0
TEXT
8
TEXT
10
416.305000
20
329.756200
30
0.0
40
3.5000
1
radius R7.95 (2 edges, 2 full circles)
0
TEXT
8
DIM
10
529.132612
20
329.756200
30
0.0
40
3.5000
1
R7.9500
72
2
73
0
11
529.132612
21
329.756200
31
0.0
0
TEXT
8
TEXT
10
416.305000
20
324.756200
30
0.0
40
3.5000
1
thinnest wall
0
TEXT
8
DIM
10
529.132612
20
324.756200
30
0.0
40
3.5000
1
0.0280
72
2
73
0
11
529.132612
21
324.756200
31
0.0
0
TEXT
8
TEXT
10
416.305000
20
319.756200
30
0.0
40
3.5000
1
slot mouth on a plane normal to x, 8
0
TEXT
8
TEXT
10
416.305000
20
314.756200
30
0.0
40
3.5000
1
edge(s) — width
0
TEXT
8
DIM
10
529.132612
20
314.756200
30
0.0
40
3.5000
1
2.4000
72
2
73
0
11
529.132612
21
314.756200
31
0.0
0
TEXT
8
TEXT
10
416.305000
20
309.756200
30
0.0
40
3.5000
1
slot mouth on a plane normal to x, 8
0
TEXT
8
TEXT
10
416.305000
20
304.756200
30
0.0
40
3.5000
1
edge(s) — length
0
TEXT
8
DIM
10
529.132612
20
304.756200
30
0.0
40
3.5000
1
14.0000
72
2
73
0
11
529.132612
21
304.756200
31
0.0
0
TEXT
8
TEXT
10
416.305000
20
299.756200
30
0.0
40
3.5000
1
slot mouth on a plane normal to x, 8
0
TEXT
8
TEXT
10
416.305000
20
294.756200
30
0.0
40
3.5000
1
edge(s) — depth
0
TEXT
8
DIM
10
529.132612
20
294.756200
30
0.0
40
3.5000
1
2.4500
72
2
73
0
11
529.132612
21
294.756200
31
0.0
0
TEXT
8
TEXT
10
416.305000
20
289.756200
30
0.0
40
3.5000
1
slot mouth on a plane normal to x, 8
0
TEXT
8
TEXT
10
416.305000
20
284.756200
30
0.0
40
3.5000
1
edge(s) — position from the y datum
0
TEXT
8
DIM
10
529.132612
20
284.756200
30
0.0
40
3.5000
1
2.0000
72
2
73
0
11
529.132612
21
284.756200
31
0.0
0
TEXT
8
TEXT
10
416.305000
20
279.756200
30
0.0
40
3.5000
1
slot mouth on a plane normal to x, 8
0
TEXT
8
TEXT
10
416.305000
20
274.756200
30
0.0
40
3.5000
1
edge(s) — position from the z datum
0
TEXT
8
DIM
10
529.132612
20
274.756200
30
0.0
40
3.5000
1
28.2230
72
2
73
0
11
529.132612
21
274.756200
31
0.0
0
TEXT
8
TEXT
10
416.305000
20
269.756200
30
0.0
40
3.5000
1
pocket mouth on a plane normal to x, 4
0
TEXT
8
TEXT
10
416.305000
20
264.756200
30
0.0
40
3.5000
1
edge(s) — width
0
TEXT
8
DIM
10
529.132612
20
264.756200
30
0.0
40
3.5000
1
1.0000
72
2
73
0
11
529.132612
21
264.756200
31
0.0
0
TEXT
8
TEXT
10
416.305000
20
259.756200
30
0.0
40
3.5000
1
pocket mouth on a plane normal to x, 4
0
TEXT
8
TEXT
10
416.305000
20
254.756200
30
0.0
40
3.5000
1
edge(s) — length
0
TEXT
8
DIM
10
529.132612
20
254.756200
30
0.0
40
3.5000
1
5.5000
72
2
73
0
11
529.132612
21
254.756200
31
0.0
0
TEXT
8
TEXT
10
416.305000
20
249.756200
30
0.0
40
3.5000
1
pocket mouth on a plane normal to x, 4
0
TEXT
8
TEXT
10
416.305000
20
244.756200
30
0.0
40
3.5000
1
edge(s) — depth
0
TEXT
8
DIM
10
529.132612
20
244.756200
30
0.0
40
3.5000
1
2.4500
72
2
73
0
11
529.132612
21
244.756200
31
0.0
0
TEXT
8
TEXT
10
416.305000
20
239.756200
30
0.0
40
3.5000
1
pocket mouth on a plane normal to x, 4
0
TEXT
8
TEXT
10
416.305000
20
234.756200
30
0.0
40
3.5000
1
edge(s) — position from the y datum
0
TEXT
8
DIM
10
529.132612
20
234.756200
30
0.0
40
3.5000
1
6.0000
72
2
73
0
11
529.132612
21
234.756200
31
0.0
0
TEXT
8
TEXT
10
679.643094
20
374.756200
30
0.0
40
3.5000
1
CANNOT DETERMINE — mate: A4 requires every surface that
0
TEXT
8
TEXT
10
679.643094
20
369.756200
30
0.0
40
3.5000
1
mates with another part, with the mating part named by
0
TEXT
8
TEXT
10
679.643094
20
364.756200
30
0.0
40
3.5000
1
its triad ref; the mates live in
0
TEXT
8
TEXT
10
679.643094
20
359.756200
30
0.0
40
3.5000
1
ce-assemblies/*/joints.json and are not read here
0
TEXT
8
TEXT
10
679.643094
20
354.756200
30
0.0
40
3.5000
1
SETTLED BY: reading this part's joints out of the
0
TEXT
8
TEXT
10
679.643094
20
349.756200
30
0.0
40
3.5000
1
assemblies that use it and matching each mate to a face
0
LINE
8
VISIBLE
10
796.152500
20
10.000000
30
0.0
11
1178.000000
21
10.000000
31
0.0
0
LINE
8
VISIBLE
10
1178.000000
20
10.000000
30
0.0
11
1178.000000
21
386.756200
31
0.0
0
LINE
8
VISIBLE
10
1178.000000
20
386.756200
30
0.0
11
796.152500
21
386.756200
31
0.0
0
LINE
8
VISIBLE
10
796.152500
20
386.756200
30
0.0
11
796.152500
21
10.000000
31
0.0
0
LINE
8
TITLE
10
796.152500
20
10.000000
30
0.0
11
1178.000000
21
10.000000
31
0.0
0
LINE
8
TITLE
10
1178.000000
20
10.000000
30
0.0
11
1178.000000
21
386.756200
31
0.0
0
LINE
8
TITLE
10
1178.000000
20
386.756200
30
0.0
11
796.152500
21
386.756200
31
0.0
0
LINE
8
TITLE
10
796.152500
20
386.756200
30
0.0
11
796.152500
21
10.000000
31
0.0
0
TEXT
8
TEXT
10
987.076250
20
14.000000
30
0.0
40
5.0000
1
BOTTOM-UP RENDER
72
1
73
0
11
987.076250
21
14.000000
31
0.0
0
TEXT
8
TEXT
10
987.076250
20
21.000000
30
0.0
40
3.5000
1
RENDER 6 / SCALE 17.12528:1
72
1
73
0
11
987.076250
21
21.000000
31
0.0
0
TEXT
8
TEXT
10
799.152500
20
374.756200
30
0.0
40
3.5000
1
MEASURED FEATURES — mm
0
TEXT
8
TEXT
10
799.152500
20
369.756200
30
0.0
40
3.5000
1
pocket mouth on a plane normal to x, 4
0
TEXT
8
TEXT
10
799.152500
20
364.756200
30
0.0
40
3.5000
1
edge(s) — position from the z datum
0
TEXT
8
DIM
10
911.980113
20
364.756200
30
0.0
40
3.5000
1
32.4730
72
2
73
0
11
911.980113
21
364.756200
31
0.0
0
TEXT
8
TEXT
10
799.152500
20
359.756200
30
0.0
40
3.5000
1
pocket mouth on a plane normal to x, 36
0
TEXT
8
TEXT
10
799.152500
20
354.756200
30
0.0
40
3.5000
1
edge(s) — width
0
TEXT
8
DIM
10
911.980113
20
354.756200
30
0.0
40
3.5000
1
5.0000
72
2
73
0
11
911.980113
21
354.756200
31
0.0
0
TEXT
8
TEXT
10
799.152500
20
349.756200
30
0.0
40
3.5000
1
pocket mouth on a plane normal to x, 36
0
TEXT
8
TEXT
10
799.152500
20
344.756200
30
0.0
40
3.5000
1
edge(s) — length
0
TEXT
8
DIM
10
911.980113
20
344.756200
30
0.0
40
3.5000
1
11.5000
72
2
73
0
11
911.980113
21
344.756200
31
0.0
0
TEXT
8
TEXT
10
799.152500
20
339.756200
30
0.0
40
3.5000
1
pocket mouth on a plane normal to x, 36
0
TEXT
8
TEXT
10
799.152500
20
334.756200
30
0.0
40
3.5000
1
edge(s) — depth
0
TEXT
8
DIM
10
911.980113
20
334.756200
30
0.0
40
3.5000
1
5.3000
72
2
73
0
11
911.980113
21
334.756200
31
0.0
0
TEXT
8
TEXT
10
799.152500
20
329.756200
30
0.0
40
3.5000
1
pocket mouth on a plane normal to x, 36
0
TEXT
8
TEXT
10
799.152500
20
324.756200
30
0.0
40
3.5000
1
edge(s) — position from the y datum
0
TEXT
8
DIM
10
911.980113
20
324.756200
30
0.0
40
3.5000
1
10.0000
72
2
73
0
11
911.980113
21
324.756200
31
0.0
0
TEXT
8
TEXT
10
799.152500
20
319.756200
30
0.0
40
3.5000
1
pocket mouth on a plane normal to x, 36
0
TEXT
8
TEXT
10
799.152500
20
314.756200
30
0.0
40
3.5000
1
edge(s) — position from the z datum
0
TEXT
8
DIM
10
911.980113
20
314.756200
30
0.0
40
3.5000
1
32.9730
72
2
73
0
11
911.980113
21
314.756200
31
0.0
0
TEXT
8
TEXT
10
799.152500
20
309.756200
30
0.0
40
3.5000
1
pocket mouth on a plane normal to x, 4
0
TEXT
8
TEXT
10
799.152500
20
304.756200
30
0.0
40
3.5000
1
edge(s) — width
0
TEXT
8
DIM
10
911.980113
20
304.756200
30
0.0
40
3.5000
1
1.0000
72
2
73
0
11
911.980113
21
304.756200
31
0.0
0
TEXT
8
TEXT
10
799.152500
20
299.756200
30
0.0
40
3.5000
1
pocket mouth on a plane normal to x, 4
0
TEXT
8
TEXT
10
799.152500
20
294.756200
30
0.0
40
3.5000
1
edge(s) — length
0
TEXT
8
DIM
10
911.980113
20
294.756200
30
0.0
40
3.5000
1
5.5000
72
2
73
0
11
911.980113
21
294.756200
31
0.0
0
TEXT
8
TEXT
10
799.152500
20
289.756200
30
0.0
40
3.5000
1
pocket mouth on a plane normal to x, 4
0
TEXT
8
TEXT
10
799.152500
20
284.756200
30
0.0
40
3.5000
1
edge(s) — depth
0
TEXT
8
DIM
10
911.980113
20
284.756200
30
0.0
40
3.5000
1
2.4500
72
2
73
0
11
911.980113
21
284.756200
31
0.0
0
TEXT
8
TEXT
10
799.152500
20
279.756200
30
0.0
40
3.5000
1
pocket mouth on a plane normal to x, 4
0
TEXT
8
TEXT
10
799.152500
20
274.756200
30
0.0
40
3.5000
1
edge(s) — position from the y datum
0
TEXT
8
DIM
10
911.980113
20
274.756200
30
0.0
40
3.5000
1
14.0000
72
2
73
0
11
911.980113
21
274.756200
31
0.0
0
TEXT
8
TEXT
10
799.152500
20
269.756200
30
0.0
40
3.5000
1
pocket mouth on a plane normal to x, 4
0
TEXT
8
TEXT
10
799.152500
20
264.756200
30
0.0
40
3.5000
1
edge(s) — position from the z datum
0
TEXT
8
DIM
10
911.980113
20
264.756200
30
0.0
40
3.5000
1
32.4730
72
2
73
0
11
911.980113
21
264.756200
31
0.0
0
TEXT
8
TEXT
10
799.152500
20
259.756200
30
0.0
40
3.5000
1
slot mouth on a plane normal to x, 8
0
TEXT
8
TEXT
10
799.152500
20
254.756200
30
0.0
40
3.5000
1
edge(s) — width
0
TEXT
8
DIM
10
911.980113
20
254.756200
30
0.0
40
3.5000
1
2.4000
72
2
73
0
11
911.980113
21
254.756200
31
0.0
0
TEXT
8
TEXT
10
799.152500
20
249.756200
30
0.0
40
3.5000
1
slot mouth on a plane normal to x, 8
0
TEXT
8
TEXT
10
799.152500
20
244.756200
30
0.0
40
3.5000
1
edge(s) — length
0
TEXT
8
DIM
10
911.980113
20
244.756200
30
0.0
40
3.5000
1
14.0000
72
2
73
0
11
911.980113
21
244.756200
31
0.0
0
TEXT
8
TEXT
10
799.152500
20
239.756200
30
0.0
40
3.5000
1
slot mouth on a plane normal to x, 8
0
TEXT
8
TEXT
10
799.152500
20
234.756200
30
0.0
40
3.5000
1
edge(s) — depth
0
TEXT
8
DIM
10
911.980113
20
234.756200
30
0.0
40
3.5000
1
2.4500
72
2
73
0
11
911.980113
21
234.756200
31
0.0
0
TEXT
8
TEXT
10
799.152500
20
229.756200
30
0.0
40
3.5000
1
slot mouth on a plane normal to x, 8
0
TEXT
8
TEXT
10
799.152500
20
224.756200
30
0.0
40
3.5000
1
edge(s) — position from the y datum
0
TEXT
8
DIM
10
911.980113
20
224.756200
30
0.0
40
3.5000
1
18.0000
72
2
73
0
11
911.980113
21
224.756200
31
0.0
0
TEXT
8
TEXT
10
799.152500
20
219.756200
30
0.0
40
3.5000
1
slot mouth on a plane normal to x, 8
0
TEXT
8
TEXT
10
799.152500
20
214.756200
30
0.0
40
3.5000
1
edge(s) — position from the z datum
0
TEXT
8
DIM
10
911.980113
20
214.756200
30
0.0
40
3.5000
1
28.2230
72
2
73
0
11
911.980113
21
214.756200
31
0.0
0
TEXT
8
TEXT
10
1062.490594
20
374.756200
30
0.0
40
3.5000
1
CANNOT DETERMINE — wall: A4 wants a wall thickness at
0
TEXT
8
TEXT
10
1062.490594
20
369.756200
30
0.0
40
3.5000
1
every distinct station; only the thinnest wall is
0
TEXT
8
TEXT
10
1062.490594
20
364.756200
30
0.0
40
3.5000
1
measurable off the solid without a station list SETTLED
0
TEXT
8
TEXT
10
1062.490594
20
359.756200
30
0.0
40
3.5000
1
BY: the drawer declaring the section stations it
0
TEXT
8
TEXT
10
1062.490594
20
354.756200
30
0.0
40
3.5000
1
dimensions, or a section per shell region
0
LINE
8
VISIBLE
10
372.029250
20
511.106000
30
0.0
11
372.029250
21
529.660000
31
0.0
0
LINE
8
VISIBLE
10
372.029250
20
511.106000
30
0.0
11
412.029250
21
511.106000
31
0.0
0
LINE
8
VISIBLE
10
372.029250
20
529.660000
30
0.0
11
372.200353
21
532.270524
31
0.0
0
LINE
8
VISIBLE
10
412.029250
20
529.660000
30
0.0
11
412.029250
21
511.106000
31
0.0
0
LINE
8
VISIBLE
10
372.200353
20
532.270524
30
0.0
11
372.710733
21
534.836381
31
0.0
0
LINE
8
VISIBLE
10
411.858147
20
532.270524
30
0.0
11
412.029250
21
529.660000
31
0.0
0
LINE
8
VISIBLE
10
372.710733
20
534.836381
30
0.0
11
373.551659
21
537.313669
31
0.0
0
LINE
8
VISIBLE
10
411.347767
20
534.836381
30
0.0
11
411.858147
21
532.270524
31
0.0
0
LINE
8
VISIBLE
10
373.551659
20
537.313669
30
0.0
11
374.708742
21
539.660000
31
0.0
0
LINE
8
VISIBLE
10
410.506841
20
537.313669
30
0.0
11
411.347767
21
534.836381
31
0.0
0
LINE
8
VISIBLE
10
374.708742
20
539.660000
30
0.0
11
376.162183
21
541.835229
31
0.0
0
LINE
8
VISIBLE
10
409.349758
20
539.660000
30
0.0
11
410.506841
21
537.313669
31
0.0
0
LINE
8
VISIBLE
10
376.162183
20
541.835229
30
0.0
11
377.887114
21
543.802136
31
0.0
0
LINE
8
VISIBLE
10
407.896317
20
541.835229
30
0.0
11
409.349758
21
539.660000
31
0.0
0
LINE
8
VISIBLE
10
377.887114
20
543.802136
30
0.0
11
379.854021
21
545.527067
31
0.0
0
LINE
8
VISIBLE
10
406.171386
20
543.802136
30
0.0
11
407.896317
21
541.835229
31
0.0
0
LINE
8
VISIBLE
10
379.854021
20
545.527067
30
0.0
11
382.029250
21
546.980508
31
0.0
0
LINE
8
VISIBLE
10
404.204479
20
545.527067
30
0.0
11
406.171386
21
543.802136
31
0.0
0
LINE
8
VISIBLE
10
382.029250
20
546.980508
30
0.0
11
384.375581
21
548.137591
31
0.0
0
LINE
8
VISIBLE
10
402.029250
20
546.980508
30
0.0
11
404.204479
21
545.527067
31
0.0
0
LINE
8
VISIBLE
10
384.375581
20
548.137591
30
0.0
11
386.852869
21
548.978517
31
0.0
0
LINE
8
VISIBLE
10
399.682919
20
548.137591
30
0.0
11
402.029250
21
546.980508
31
0.0
0
LINE
8
VISIBLE
10
386.852869
20
548.978517
30
0.0
11
389.418726
21
549.488897
31
0.0
0
LINE
8
VISIBLE
10
397.205631
20
548.978517
30
0.0
11
399.682919
21
548.137591
31
0.0
0
LINE
8
VISIBLE
10
389.418726
20
549.488897
30
0.0
11
392.029250
21
549.660000
31
0.0
0
LINE
8
VISIBLE
10
394.639774
20
549.488897
30
0.0
11
397.205631
21
548.978517
31
0.0
0
LINE
8
VISIBLE
10
392.029250
20
549.660000
30
0.0
11
394.639774
21
549.488897
31
0.0
0
CIRCLE
8
VISIBLE
10
392.029250
20
529.660000
30
0.0
40
15.900000
0
CIRCLE
8
VISIBLE
10
383.543250
20
521.174000
30
0.0
40
2.200000
0
CIRCLE
8
VISIBLE
10
383.543250
20
538.146000
30
0.0
40
2.200000
0
CIRCLE
8
VISIBLE
10
400.515250
20
521.174000
30
0.0
40
2.200000
0
CIRCLE
8
VISIBLE
10
392.029250
20
529.660000
30
0.0
40
6.000000
0
CIRCLE
8
VISIBLE
10
400.515250
20
538.146000
30
0.0
40
2.200000
0
ARC
8
VISIBLE
10
408.029250
20
490.660000
30
0.0
40
2.400000
50
294.624318
51
65.375682
0
ARC
8
VISIBLE
10
408.029250
20
490.660000
30
0.0
40
2.400000
50
245.375682
51
294.624318
0
ARC
8
VISIBLE
10
408.029250
20
490.660000
30
0.0
40
2.400000
50
114.624318
51
245.375682
0
LINE
8
VISIBLE
10
387.257611
20
509.254050
30
0.0
11
387.086894
21
508.691271
31
0.0
0
ARC
8
VISIBLE
10
376.029250
20
490.660000
30
0.0
40
2.400000
50
294.624318
51
65.375682
0
ARC
8
VISIBLE
10
376.029250
20
490.660000
30
0.0
40
2.400000
50
245.375682
51
294.624318
0
ARC
8
VISIBLE
10
376.029250
20
490.660000
30
0.0
40
2.400000
50
114.624318
51
245.375682
0
LINE
8
VISIBLE
10
412.029250
20
511.106000
30
0.0
11
412.029250
21
474.106000
31
0.0
0
LINE
8
VISIBLE
10
394.614521
20
511.048356
30
0.0
11
394.029250
21
511.106000
31
0.0
0
LINE
8
VISIBLE
10
412.029250
20
474.106000
30
0.0
11
404.529250
21
445.660000
31
0.0
0
LINE
8
VISIBLE
10
395.177300
20
510.877639
30
0.0
11
394.614521
21
511.048356
31
0.0
0
LINE
8
VISIBLE
10
404.529250
20
445.660000
30
0.0
11
404.029250
21
445.660000
31
0.0
0
LINE
8
VISIBLE
10
395.695961
20
510.600409
30
0.0
11
395.177300
21
510.877639
31
0.0
0
LINE
8
VISIBLE
10
404.029250
20
445.660000
30
0.0
11
403.926588
21
444.093686
31
0.0
0
LINE
8
VISIBLE
10
396.150570
20
510.227320
30
0.0
11
395.695961
21
510.600409
31
0.0
0
LINE
8
VISIBLE
10
403.926588
20
444.093686
30
0.0
11
403.620360
21
442.554171
31
0.0
0
LINE
8
VISIBLE
10
396.523659
20
509.772711
30
0.0
11
396.150570
21
510.227320
31
0.0
0
LINE
8
VISIBLE
10
403.620360
20
442.554171
30
0.0
11
403.115804
21
441.067799
31
0.0
0
LINE
8
VISIBLE
10
396.800889
20
509.254050
30
0.0
11
396.523659
21
509.772711
31
0.0
0
LINE
8
VISIBLE
10
403.115804
20
441.067799
30
0.0
11
402.421555
21
439.660000
31
0.0
0
LINE
8
VISIBLE
10
396.971606
20
508.691271
30
0.0
11
396.800889
21
509.254050
31
0.0
0
LINE
8
VISIBLE
10
402.421555
20
439.660000
30
0.0
11
401.549490
21
438.354863
31
0.0
0
LINE
8
VISIBLE
10
397.029250
20
508.106000
30
0.0
11
396.971606
21
508.691271
31
0.0
0
LINE
8
VISIBLE
10
401.549490
20
438.354863
30
0.0
11
400.514531
21
437.174719
31
0.0
0
LINE
8
VISIBLE
10
397.029250
20
491.106000
30
0.0
11
397.029250
21
508.106000
31
0.0
0
LINE
8
VISIBLE
10
400.514531
20
437.174719
30
0.0
11
399.334387
21
436.139760
31
0.0
0
LINE
8
VISIBLE
10
396.971606
20
490.520729
30
0.0
11
397.029250
21
491.106000
31
0.0
0
LINE
8
VISIBLE
10
399.334387
20
436.139760
30
0.0
11
398.029250
21
435.267695
31
0.0
0
LINE
8
VISIBLE
10
396.800889
20
489.957950
30
0.0
11
396.971606
21
490.520729
31
0.0
0
LINE
8
VISIBLE
10
398.029250
20
435.267695
30
0.0
11
396.621451
21
434.573446
31
0.0
0
LINE
8
VISIBLE
10
396.523659
20
489.439289
30
0.0
11
396.800889
21
489.957950
31
0.0
0
LINE
8
VISIBLE
10
396.621451
20
434.573446
30
0.0
11
395.135079
21
434.068890
31
0.0
0
LINE
8
VISIBLE
10
396.150570
20
488.984680
30
0.0
11
396.523659
21
489.439289
31
0.0
0
LINE
8
VISIBLE
10
395.135079
20
434.068890
30
0.0
11
393.595564
21
433.762662
31
0.0
0
LINE
8
VISIBLE
10
395.695961
20
488.611591
30
0.0
11
396.150570
21
488.984680
31
0.0
0
LINE
8
VISIBLE
10
393.595564
20
433.762662
30
0.0
11
392.029250
21
433.660000
31
0.0
0
LINE
8
VISIBLE
10
395.177300
20
488.334361
30
0.0
11
395.695961
21
488.611591
31
0.0
0
LINE
8
VISIBLE
10
392.029250
20
433.660000
30
0.0
11
390.462936
21
433.762662
31
0.0
0
LINE
8
VISIBLE
10
394.614521
20
488.163644
30
0.0
11
395.177300
21
488.334361
31
0.0
0
LINE
8
VISIBLE
10
390.462936
20
433.762662
30
0.0
11
388.923421
21
434.068890
31
0.0
0
LINE
8
VISIBLE
10
394.029250
20
488.106000
30
0.0
11
394.614521
21
488.163644
31
0.0
0
LINE
8
VISIBLE
10
388.923421
20
434.068890
30
0.0
11
387.437049
21
434.573446
31
0.0
0
LINE
8
VISIBLE
10
390.029250
20
488.106000
30
0.0
11
394.029250
21
488.106000
31
0.0
0
LINE
8
VISIBLE
10
387.437049
20
434.573446
30
0.0
11
386.029250
21
435.267695
31
0.0
0
LINE
8
VISIBLE
10
389.443979
20
488.163644
30
0.0
11
390.029250
21
488.106000
31
0.0
0
LINE
8
VISIBLE
10
386.029250
20
435.267695
30
0.0
11
384.724113
21
436.139760
31
0.0
0
LINE
8
VISIBLE
10
388.881200
20
488.334361
30
0.0
11
389.443979
21
488.163644
31
0.0
0
LINE
8
VISIBLE
10
384.724113
20
436.139760
30
0.0
11
383.543969
21
437.174719
31
0.0
0
LINE
8
VISIBLE
10
388.362539
20
488.611591
30
0.0
11
388.881200
21
488.334361
31
0.0
0
LINE
8
VISIBLE
10
383.543969
20
437.174719
30
0.0
11
382.509010
21
438.354863
31
0.0
0
LINE
8
VISIBLE
10
387.907930
20
488.984680
30
0.0
11
388.362539
21
488.611591
31
0.0
0
LINE
8
VISIBLE
10
382.509010
20
438.354863
30
0.0
11
381.636945
21
439.660000
31
0.0
0
LINE
8
VISIBLE
10
387.534841
20
489.439289
30
0.0
11
387.907930
21
488.984680
31
0.0
0
LINE
8
VISIBLE
10
381.636945
20
439.660000
30
0.0
11
380.942696
21
441.067799
31
0.0
0
LINE
8
VISIBLE
10
387.257611
20
489.957950
30
0.0
11
387.534841
21
489.439289
31
0.0
0
LINE
8
VISIBLE
10
380.942696
20
441.067799
30
0.0
11
380.438140
21
442.554171
31
0.0
0
LINE
8
VISIBLE
10
387.086894
20
490.520729
30
0.0
11
387.257611
21
489.957950
31
0.0
0
LINE
8
VISIBLE
10
380.438140
20
442.554171
30
0.0
11
380.131912
21
444.093686
31
0.0
0
LINE
8
VISIBLE
10
387.029250
20
491.106000
30
0.0
11
387.086894
21
490.520729
31
0.0
0
LINE
8
VISIBLE
10
380.131912
20
444.093686
30
0.0
11
380.029250
21
445.660000
31
0.0
0
LINE
8
VISIBLE
10
387.029250
20
508.106000
30
0.0
11
387.029250
21
491.106000
31
0.0
0
LINE
8
VISIBLE
10
380.029250
20
445.660000
30
0.0
11
379.529250
21
445.660000
31
0.0
0
LINE
8
VISIBLE
10
387.086894
20
508.691271
30
0.0
11
387.029250
21
508.106000
31
0.0
0
LINE
8
VISIBLE
10
379.529250
20
445.660000
30
0.0
11
372.029250
21
474.106000
31
0.0
0
LINE
8
VISIBLE
10
372.029250
20
474.106000
30
0.0
11
372.029250
21
511.106000
31
0.0
0
LINE
8
VISIBLE
10
387.534841
20
509.772711
30
0.0
11
387.257611
21
509.254050
31
0.0
0
LINE
8
VISIBLE
10
387.907930
20
510.227320
30
0.0
11
387.534841
21
509.772711
31
0.0
0
LINE
8
VISIBLE
10
390.029250
20
511.106000
30
0.0
11
389.443979
21
511.048356
31
0.0
0
LINE
8
VISIBLE
10
388.362539
20
510.600409
30
0.0
11
387.907930
21
510.227320
31
0.0
0
LINE
8
VISIBLE
10
389.443979
20
511.048356
30
0.0
11
388.881200
21
510.877639
31
0.0
0
LINE
8
VISIBLE
10
388.881200
20
510.877639
30
0.0
11
388.362539
21
510.600409
31
0.0
0
LINE
8
VISIBLE
10
375.029250
20
476.106000
30
0.0
11
375.029250
21
488.478258
31
0.0
0
LINE
8
VISIBLE
10
377.029250
20
476.106000
30
0.0
11
375.029250
21
476.106000
31
0.0
0
LINE
8
VISIBLE
10
377.029250
20
476.106000
30
0.0
11
377.029250
21
488.478258
31
0.0
0
LINE
8
VISIBLE
10
385.029250
20
493.106000
30
0.0
11
383.029250
21
493.106000
31
0.0
0
LINE
8
VISIBLE
10
383.029250
20
493.106000
30
0.0
11
383.029250
21
504.106000
31
0.0
0
LINE
8
VISIBLE
10
385.029250
20
493.106000
30
0.0
11
385.029250
21
504.106000
31
0.0
0
LINE
8
VISIBLE
10
385.029250
20
504.106000
30
0.0
11
383.029250
21
504.106000
31
0.0
0
CIRCLE
8
VISIBLE
10
392.029250
20
445.660000
30
0.0
40
10.000000
0
LINE
8
VISIBLE
10
401.029250
20
493.106000
30
0.0
11
399.029250
21
493.106000
31
0.0
0
LINE
8
VISIBLE
10
399.029250
20
493.106000
30
0.0
11
399.029250
21
504.106000
31
0.0
0
LINE
8
VISIBLE
10
401.029250
20
493.106000
30
0.0
11
401.029250
21
504.106000
31
0.0
0
LINE
8
VISIBLE
10
401.029250
20
504.106000
30
0.0
11
399.029250
21
504.106000
31
0.0
0
LINE
8
VISIBLE
10
407.029250
20
476.106000
30
0.0
11
407.029250
21
488.478258
31
0.0
0
LINE
8
VISIBLE
10
409.029250
20
476.106000
30
0.0
11
407.029250
21
476.106000
31
0.0
0
LINE
8
VISIBLE
10
409.029250
20
476.106000
30
0.0
11
409.029250
21
488.478258
31
0.0
0
LINE
8
VISIBLE
10
377.029250
20
492.841742
30
0.0
11
377.029250
21
493.106000
31
0.0
0
LINE
8
VISIBLE
10
375.029250
20
492.841742
30
0.0
11
375.029250
21
493.106000
31
0.0
0
LINE
8
VISIBLE
10
409.029250
20
492.841742
30
0.0
11
409.029250
21
493.106000
31
0.0
0
LINE
8
VISIBLE
10
407.029250
20
492.841742
30
0.0
11
407.029250
21
493.106000
31
0.0
0
CIRCLE
8
VISIBLE
10
392.029250
20
445.660000
30
0.0
40
8.000000
0
LINE
8
VISIBLE
10
377.029250
20
493.106000
30
0.0
11
375.029250
21
493.106000
31
0.0
0
LINE
8
VISIBLE
10
409.029250
20
493.106000
30
0.0
11
407.029250
21
493.106000
31
0.0
0
LINE
8
VISIBLE
10
377.029250
20
493.106000
30
0.0
11
377.029250
21
504.106000
31
0.0
0
LINE
8
VISIBLE
10
377.029250
20
504.106000
30
0.0
11
375.029250
21
504.106000
31
0.0
0
LINE
8
VISIBLE
10
375.029250
20
493.106000
30
0.0
11
375.029250
21
504.106000
31
0.0
0
LINE
8
VISIBLE
10
409.029250
20
493.106000
30
0.0
11
409.029250
21
504.106000
31
0.0
0
LINE
8
VISIBLE
10
409.029250
20
504.106000
30
0.0
11
407.029250
21
504.106000
31
0.0
0
LINE
8
VISIBLE
10
407.029250
20
493.106000
30
0.0
11
407.029250
21
504.106000
31
0.0
0
CIRCLE
8
VISIBLE
10
392.029250
20
445.660000
30
0.0
40
2.700000
0
CIRCLE
8
VISIBLE
10
392.029250
20
445.660000
30
0.0
40
4.920000
0
ARC
8
VISIBLE
10
408.029251
20
490.660001
30
0.0
40
2.399999
50
65.375699
51
114.624352
0
ARC
8
VISIBLE
10
376.029264
20
490.659984
30
0.0
40
2.400016
50
65.376160
51
114.624469
0
LINE
8
HIDDEN
10
412.029250
20
493.384995
30
0.0
11
412.029250
21
487.935005
31
0.0
0
ARC
8
HIDDEN
10
408.029250
20
490.660000
30
0.0
40
4.840000
50
34.264603
51
90.000000
0
CIRCLE
8
HIDDEN
10
408.029250
20
490.660000
30
0.0
40
2.400000
0
ARC
8
HIDDEN
10
376.029250
20
490.660000
30
0.0
40
4.840000
50
90.000000
51
145.735397
0
LINE
8
HIDDEN
10
379.629250
20
519.163875
30
0.0
11
379.629250
21
493.895058
31
0.0
0
LINE
8
HIDDEN
10
379.629250
20
528.726000
30
0.0
11
379.629250
21
523.184125
31
0.0
0
LINE
8
HIDDEN
10
379.867128
20
531.141218
30
0.0
11
379.629250
21
528.726000
31
0.0
0
LINE
8
HIDDEN
10
380.571621
20
533.463621
30
0.0
11
379.867128
21
531.141218
31
0.0
0
LINE
8
HIDDEN
10
381.113623
20
534.477634
30
0.0
11
380.571621
21
533.463621
31
0.0
0
LINE
8
HIDDEN
10
389.594032
20
540.868122
30
0.0
11
387.428469
21
540.211205
31
0.0
0
LINE
8
HIDDEN
10
392.009250
20
541.106000
30
0.0
11
389.594032
21
540.868122
31
0.0
0
LINE
8
HIDDEN
10
392.049250
20
541.106000
30
0.0
11
392.009250
21
541.106000
31
0.0
0
LINE
8
HIDDEN
10
394.464468
20
540.868122
30
0.0
11
392.049250
21
541.106000
31
0.0
0
LINE
8
HIDDEN
10
396.630031
20
540.211205
30
0.0
11
394.464468
21
540.868122
31
0.0
0
LINE
8
HIDDEN
10
403.486879
20
533.463621
30
0.0
11
402.944877
21
534.477634
31
0.0
0
LINE
8
HIDDEN
10
404.191372
20
531.141218
30
0.0
11
403.486879
21
533.463621
31
0.0
0
LINE
8
HIDDEN
10
404.429250
20
528.726000
30
0.0
11
404.191372
21
531.141218
31
0.0
0
LINE
8
HIDDEN
10
404.429250
20
523.184125
30
0.0
11
404.429250
21
528.726000
31
0.0
0
LINE
8
HIDDEN
10
404.429250
20
493.895058
30
0.0
11
404.429250
21
519.163875
31
0.0
0
ARC
8
HIDDEN
10
408.029250
20
490.660000
30
0.0
40
4.840000
50
90.000000
51
138.056273
0
ARC
8
HIDDEN
10
408.029250
20
490.660000
30
0.0
40
4.840000
50
34.264603
51
90.000000
0
LINE
8
HIDDEN
10
412.029250
20
529.660000
30
0.0
11
412.029250
21
493.384995
31
0.0
0
LINE
8
HIDDEN
10
372.029250
20
493.384995
30
0.0
11
372.029250
21
529.660000
31
0.0
0
LINE
8
HIDDEN
10
379.629250
20
493.895058
30
0.0
11
379.629250
21
519.163875
31
0.0
0
ARC
8
HIDDEN
10
383.543250
20
521.174000
30
0.0
40
4.400000
50
90.000000
51
152.816184
0
ARC
8
HIDDEN
10
383.543250
20
521.174000
30
0.0
40
4.400000
50
207.183816
51
90.000000
0
CIRCLE
8
HIDDEN
10
383.543250
20
521.174000
30
0.0
40
4.400000
0
LINE
8
HIDDEN
10
379.629250
20
523.184125
30
0.0
11
379.629250
21
528.726000
31
0.0
0
LINE
8
HIDDEN
10
379.629250
20
528.726000
30
0.0
11
379.867128
21
531.141218
31
0.0
0
LINE
8
HIDDEN
10
379.867128
20
531.141218
30
0.0
11
380.571621
21
533.463621
31
0.0
0
LINE
8
HIDDEN
10
380.571621
20
533.463621
30
0.0
11
381.113623
21
534.477634
31
0.0
0
ARC
8
HIDDEN
10
383.543250
20
538.146000
30
0.0
40
4.400000
50
236.482748
51
27.993077
0
CIRCLE
8
HIDDEN
10
383.543250
20
538.146000
30
0.0
40
4.400000
0
LINE
8
HIDDEN
10
387.428469
20
540.211205
30
0.0
11
389.594032
21
540.868122
31
0.0
0
LINE
8
HIDDEN
10
389.594032
20
540.868122
30
0.0
11
392.009250
21
541.106000
31
0.0
0
LINE
8
HIDDEN
10
392.009250
20
541.106000
30
0.0
11
392.049250
21
541.106000
31
0.0
0
LINE
8
HIDDEN
10
392.049250
20
541.106000
30
0.0
11
394.464468
21
540.868122
31
0.0
0
LINE
8
HIDDEN
10
394.464468
20
540.868122
30
0.0
11
396.630031
21
540.211205
31
0.0
0
ARC
8
HIDDEN
10
400.515250
20
538.146000
30
0.0
40
4.400000
50
152.006923
51
303.517252
0
CIRCLE
8
HIDDEN
10
400.515250
20
538.146000
30
0.0
40
4.400000
0
LINE
8
HIDDEN
10
402.944877
20
534.477634
30
0.0
11
403.486879
21
533.463621
31
0.0
0
LINE
8
HIDDEN
10
403.486879
20
533.463621
30
0.0
11
404.191372
21
531.141218
31
0.0
0
LINE
8
HIDDEN
10
404.191372
20
531.141218
30
0.0
11
404.429250
21
528.726000
31
0.0
0
LINE
8
HIDDEN
10
404.429250
20
528.726000
30
0.0
11
404.429250
21
523.184125
31
0.0
0
ARC
8
HIDDEN
10
400.515250
20
521.174000
30
0.0
40
4.400000
50
90.000000
51
332.816184
0
ARC
8
HIDDEN
10
400.515250
20
521.174000
30
0.0
40
4.400000
50
27.183816
51
90.000000
0
CIRCLE
8
HIDDEN
10
400.515250
20
521.174000
30
0.0
40
4.400000
0
LINE
8
HIDDEN
10
404.429250
20
519.163875
30
0.0
11
404.429250
21
493.895058
31
0.0
0
LINE
8
HIDDEN
10
389.594032
20
468.343878
30
0.0
11
387.271629
21
469.048371
31
0.0
0
LINE
8
HIDDEN
10
392.009250
20
468.106000
30
0.0
11
389.594032
21
468.343878
31
0.0
0
LINE
8
HIDDEN
10
392.049250
20
468.106000
30
0.0
11
392.009250
21
468.106000
31
0.0
0
LINE
8
HIDDEN
10
394.464468
20
468.343878
30
0.0
11
392.049250
21
468.106000
31
0.0
0
LINE
8
HIDDEN
10
396.786871
20
469.048371
30
0.0
11
394.464468
21
468.343878
31
0.0
0
LINE
8
HIDDEN
10
398.927209
20
470.192406
30
0.0
11
396.786871
21
469.048371
31
0.0
0
LINE
8
HIDDEN
10
400.803232
20
471.732018
30
0.0
11
398.927209
21
470.192406
31
0.0
0
LINE
8
HIDDEN
10
402.342844
20
473.608041
30
0.0
11
400.803232
21
471.732018
31
0.0
0
LINE
8
HIDDEN
10
403.486879
20
475.748379
30
0.0
11
402.342844
21
473.608041
31
0.0
0
LINE
8
HIDDEN
10
404.191372
20
478.070782
30
0.0
11
403.486879
21
475.748379
31
0.0
0
LINE
8
HIDDEN
10
404.429250
20
480.486000
30
0.0
11
404.191372
21
478.070782
31
0.0
0
LINE
8
HIDDEN
10
404.429250
20
487.424942
30
0.0
11
404.429250
21
480.486000
31
0.0
0
ARC
8
HIDDEN
10
408.029250
20
490.660000
30
0.0
40
4.840000
50
138.056273
51
221.943727
0
ARC
8
HIDDEN
10
376.029250
20
490.660000
30
0.0
40
4.840000
50
318.056273
51
41.943727
0
LINE
8
HIDDEN
10
379.629250
20
480.486000
30
0.0
11
379.629250
21
487.424942
31
0.0
0
LINE
8
HIDDEN
10
379.867128
20
478.070782
30
0.0
11
379.629250
21
480.486000
31
0.0
0
LINE
8
HIDDEN
10
380.571621
20
475.748379
30
0.0
11
379.867128
21
478.070782
31
0.0
0
LINE
8
HIDDEN
10
381.715656
20
473.608041
30
0.0
11
380.571621
21
475.748379
31
0.0
0
LINE
8
HIDDEN
10
383.255268
20
471.732018
30
0.0
11
381.715656
21
473.608041
31
0.0
0
LINE
8
HIDDEN
10
385.131291
20
470.192406
30
0.0
11
383.255268
21
471.732018
31
0.0
0
LINE
8
HIDDEN
10
387.271629
20
469.048371
30
0.0
11
385.131291
21
470.192406
31
0.0
0
LINE
8
HIDDEN
10
394.029250
20
511.106000
30
0.0
11
390.029250
21
511.106000
31
0.0
0
LINE
8
HIDDEN
10
372.029250
20
474.106000
30
0.0
11
372.029250
21
487.935005
31
0.0
0
ARC
8
HIDDEN
10
376.029250
20
490.660000
30
0.0
40
4.840000
50
214.264603
51
318.056273
0
LINE
8
HIDDEN
10
379.629250
20
487.424942
30
0.0
11
379.629250
21
480.486000
31
0.0
0
LINE
8
HIDDEN
10
379.629250
20
480.486000
30
0.0
11
379.867128
21
478.070782
31
0.0
0
LINE
8
HIDDEN
10
379.867128
20
478.070782
30
0.0
11
380.571621
21
475.748379
31
0.0
0
LINE
8
HIDDEN
10
380.571621
20
475.748379
30
0.0
11
381.715656
21
473.608041
31
0.0
0
LINE
8
HIDDEN
10
381.715656
20
473.608041
30
0.0
11
383.255268
21
471.732018
31
0.0
0
LINE
8
HIDDEN
10
383.255268
20
471.732018
30
0.0
11
385.131291
21
470.192406
31
0.0
0
LINE
8
HIDDEN
10
385.131291
20
470.192406
30
0.0
11
387.271629
21
469.048371
31
0.0
0
LINE
8
HIDDEN
10
387.271629
20
469.048371
30
0.0
11
389.594032
21
468.343878
31
0.0
0
LINE
8
HIDDEN
10
389.594032
20
468.343878
30
0.0
11
392.009250
21
468.106000
31
0.0
0
LINE
8
HIDDEN
10
392.009250
20
468.106000
30
0.0
11
392.049250
21
468.106000
31
0.0
0
LINE
8
HIDDEN
10
392.049250
20
468.106000
30
0.0
11
394.464468
21
468.343878
31
0.0
0
LINE
8
HIDDEN
10
394.464468
20
468.343878
30
0.0
11
396.786871
21
469.048371
31
0.0
0
LINE
8
HIDDEN
10
396.786871
20
469.048371
30
0.0
11
398.927209
21
470.192406
31
0.0
0
LINE
8
HIDDEN
10
398.927209
20
470.192406
30
0.0
11
400.803232
21
471.732018
31
0.0
0
LINE
8
HIDDEN
10
400.803232
20
471.732018
30
0.0
11
402.342844
21
473.608041
31
0.0
0
LINE
8
HIDDEN
10
402.342844
20
473.608041
30
0.0
11
403.486879
21
475.748379
31
0.0
0
LINE
8
HIDDEN
10
403.486879
20
475.748379
30
0.0
11
404.191372
21
478.070782
31
0.0
0
LINE
8
HIDDEN
10
404.191372
20
478.070782
30
0.0
11
404.429250
21
480.486000
31
0.0
0
LINE
8
HIDDEN
10
404.429250
20
480.486000
30
0.0
11
404.429250
21
487.424942
31
0.0
0
ARC
8
HIDDEN
10
408.029250
20
490.660000
30
0.0
40
4.840000
50
221.943727
51
325.735397
0
LINE
8
HIDDEN
10
412.029250
20
487.935005
30
0.0
11
412.029250
21
474.106000
31
0.0
0
ARC
8
HIDDEN
10
376.029250
20
490.660000
30
0.0
40
4.840000
50
90.000000
51
145.735397
0
LINE
8
HIDDEN
10
372.029250
20
487.935005
30
0.0
11
372.029250
21
493.384995
31
0.0
0
ARC
8
HIDDEN
10
376.029250
20
490.660000
30
0.0
40
4.840000
50
214.264603
51
90.000000
0
CIRCLE
8
HIDDEN
10
376.029250
20
490.660000
30
0.0
40
2.400000
0
LINE
8
HIDDEN
10
412.029250
20
511.106000
30
0.0
11
394.029250
21
511.106000
31
0.0
0
LINE
8
HIDDEN
10
390.029250
20
511.106000
30
0.0
11
372.029250
21
511.106000
31
0.0
0
LINE
8
HIDDEN
10
375.029250
20
492.841742
30
0.0
11
375.029250
21
504.106000
31
0.0
0
LINE
8
HIDDEN
10
377.029250
20
492.841742
30
0.0
11
377.029250
21
504.106000
31
0.0
0
LINE
8
HIDDEN
10
407.029250
20
492.841742
30
0.0
11
407.029250
21
504.106000
31
0.0
0
LINE
8
HIDDEN
10
409.029250
20
492.841742
30
0.0
11
409.029250
21
504.106000
31
0.0
0
CIRCLE
8
HIDDEN
10
392.029250
20
445.660000
30
0.0
40
5.500000
0
CIRCLE
8
HIDDEN
10
392.029250
20
445.660000
30
0.0
40
5.500000
0
ARC
8
HIDDEN
10
408.029250
20
490.660000
30
0.0
40
4.840000
50
90.000000
51
325.735397
0
ARC
8
HIDDEN
10
376.029249
20
490.660000
30
0.0
40
4.840001
50
41.943721
51
89.999984
0
ARC
8
HIDDEN
10
383.543252
20
521.173999
30
0.0
40
4.400002
50
152.816181
51
207.183793
0
ARC
8
HIDDEN
10
383.543250
20
538.146000
30
0.0
40
4.400000
50
27.993077
51
236.482748
0
ARC
8
HIDDEN
10
400.515250
20
538.146000
30
0.0
40
4.400000
50
303.517252
51
152.006923
0
ARC
8
HIDDEN
10
400.515251
20
521.173999
30
0.0
40
4.399999
50
332.816186
51
27.183830
0
LINE
8
VISIBLE
10
761.764083
20
529.660000
30
0.0
11
761.764083
21
511.106000
31
0.0
0
LINE
8
VISIBLE
10
761.764083
20
532.270524
30
0.0
11
761.764083
21
529.660000
31
0.0
0
LINE
8
VISIBLE
10
761.764083
20
534.836381
30
0.0
11
761.764083
21
532.270524
31
0.0
0
LINE
8
VISIBLE
10
761.764083
20
537.313669
30
0.0
11
761.764083
21
534.836381
31
0.0
0
LINE
8
VISIBLE
10
761.764083
20
539.660000
30
0.0
11
761.764083
21
537.313669
31
0.0
0
LINE
8
VISIBLE
10
761.764083
20
541.835229
30
0.0
11
761.764083
21
539.660000
31
0.0
0
LINE
8
VISIBLE
10
761.764083
20
543.802136
30
0.0
11
761.764083
21
541.835229
31
0.0
0
LINE
8
VISIBLE
10
761.764083
20
545.527067
30
0.0
11
761.764083
21
543.802136
31
0.0
0
LINE
8
VISIBLE
10
761.764083
20
546.980508
30
0.0
11
761.764083
21
545.527067
31
0.0
0
LINE
8
VISIBLE
10
761.764083
20
548.137591
30
0.0
11
761.764083
21
546.980508
31
0.0
0
LINE
8
VISIBLE
10
761.764083
20
548.978517
30
0.0
11
761.764083
21
548.137591
31
0.0
0
LINE
8
VISIBLE
10
761.764083
20
549.488897
30
0.0
11
761.764083
21
548.978517
31
0.0
0
LINE
8
VISIBLE
10
761.764083
20
549.660000
30
0.0
11
761.764083
21
549.488897
31
0.0
0
LINE
8
VISIBLE
10
761.764083
20
545.560000
30
0.0
11
757.864083
21
545.560000
31
0.0
0
LINE
8
VISIBLE
10
757.864083
20
545.560000
30
0.0
11
757.864083
21
513.760000
31
0.0
0
LINE
8
VISIBLE
10
766.364083
20
487.935005
30
0.0
11
766.364083
21
488.260000
31
0.0
0
LINE
8
VISIBLE
10
766.364083
20
493.060000
30
0.0
11
766.364083
21
493.384995
31
0.0
0
LINE
8
VISIBLE
10
766.364083
20
493.384995
30
0.0
11
766.364083
21
487.935005
31
0.0
0
LINE
8
VISIBLE
10
762.764083
20
492.841742
30
0.0
11
761.764083
21
492.841742
31
0.0
0
LINE
8
VISIBLE
10
762.764083
20
488.478258
30
0.0
11
761.764083
21
488.478258
31
0.0
0
LINE
8
VISIBLE
10
767.364083
20
529.660000
30
0.0
11
767.364083
21
493.384995
31
0.0
0
LINE
8
VISIBLE
10
767.364083
20
532.270524
30
0.0
11
767.364083
21
529.660000
31
0.0
0
LINE
8
VISIBLE
10
767.364083
20
534.836381
30
0.0
11
767.364083
21
532.270524
31
0.0
0
LINE
8
VISIBLE
10
767.364083
20
537.313669
30
0.0
11
767.364083
21
534.836381
31
0.0
0
LINE
8
VISIBLE
10
767.364083
20
539.660000
30
0.0
11
767.364083
21
537.313669
31
0.0
0
LINE
8
VISIBLE
10
767.364083
20
541.835229
30
0.0
11
767.364083
21
539.660000
31
0.0
0
LINE
8
VISIBLE
10
767.364083
20
543.802136
30
0.0
11
767.364083
21
541.835229
31
0.0
0
LINE
8
VISIBLE
10
767.364083
20
545.527067
30
0.0
11
767.364083
21
543.802136
31
0.0
0
LINE
8
VISIBLE
10
767.364083
20
546.980508
30
0.0
11
767.364083
21
545.527067
31
0.0
0
LINE
8
VISIBLE
10
767.364083
20
548.137591
30
0.0
11
767.364083
21
546.980508
31
0.0
0
LINE
8
VISIBLE
10
767.364083
20
548.978517
30
0.0
11
767.364083
21
548.137591
31
0.0
0
LINE
8
VISIBLE
10
767.364083
20
549.488897
30
0.0
11
767.364083
21
548.978517
31
0.0
0
LINE
8
VISIBLE
10
767.364083
20
549.660000
30
0.0
11
767.364083
21
549.488897
31
0.0
0
LINE
8
VISIBLE
10
772.364083
20
541.106000
30
0.0
11
767.364083
21
541.106000
31
0.0
0
LINE
8
VISIBLE
10
772.364083
20
541.106000
30
0.0
11
772.364083
21
540.868122
31
0.0
0
LINE
8
VISIBLE
10
772.364083
20
540.868122
30
0.0
11
767.364083
21
540.868122
31
0.0
0
LINE
8
VISIBLE
10
772.364083
20
540.868122
30
0.0
11
772.364083
21
540.211205
31
0.0
0
LINE
8
VISIBLE
10
772.364083
20
540.211205
30
0.0
11
767.364083
21
540.211205
31
0.0
0
LINE
8
VISIBLE
10
772.364083
20
534.477634
30
0.0
11
772.364083
21
540.211205
31
0.0
0
LINE
8
VISIBLE
10
772.364083
20
534.477634
30
0.0
11
767.364083
21
534.477634
31
0.0
0
LINE
8
VISIBLE
10
772.364083
20
534.477634
30
0.0
11
772.364083
21
533.463621
31
0.0
0
LINE
8
VISIBLE
10
772.364083
20
533.463621
30
0.0
11
767.364083
21
533.463621
31
0.0
0
LINE
8
VISIBLE
10
772.364083
20
533.463621
30
0.0
11
772.364083
21
531.141218
31
0.0
0
LINE
8
VISIBLE
10
772.364083
20
531.141218
30
0.0
11
767.364083
21
531.141218
31
0.0
0
LINE
8
VISIBLE
10
772.364083
20
531.141218
30
0.0
11
772.364083
21
528.726000
31
0.0
0
LINE
8
VISIBLE
10
772.364083
20
528.726000
30
0.0
11
767.364083
21
528.726000
31
0.0
0
LINE
8
VISIBLE
10
772.364083
20
528.726000
30
0.0
11
772.364083
21
523.184125
31
0.0
0
LINE
8
VISIBLE
10
772.364083
20
523.184125
30
0.0
11
767.364083
21
523.184125
31
0.0
0
LINE
8
VISIBLE
10
772.364083
20
519.163875
30
0.0
11
772.364083
21
523.184125
31
0.0
0
LINE
8
VISIBLE
10
772.364083
20
519.163875
30
0.0
11
767.364083
21
519.163875
31
0.0
0
LINE
8
VISIBLE
10
772.364083
20
519.163875
30
0.0
11
772.364083
21
493.895058
31
0.0
0
LINE
8
VISIBLE
10
772.364083
20
493.895058
30
0.0
11
767.364083
21
493.895058
31
0.0
0
LINE
8
VISIBLE
10
772.364083
20
468.343878
30
0.0
11
772.364083
21
468.106000
31
0.0
0
LINE
8
VISIBLE
10
772.364083
20
469.048371
30
0.0
11
772.364083
21
468.343878
31
0.0
0
LINE
8
VISIBLE
10
772.364083
20
470.192406
30
0.0
11
772.364083
21
469.048371
31
0.0
0
LINE
8
VISIBLE
10
772.364083
20
471.732018
30
0.0
11
772.364083
21
470.192406
31
0.0
0
LINE
8
VISIBLE
10
772.364083
20
473.608041
30
0.0
11
772.364083
21
471.732018
31
0.0
0
LINE
8
VISIBLE
10
772.364083
20
475.748379
30
0.0
11
772.364083
21
473.608041
31
0.0
0
LINE
8
VISIBLE
10
772.364083
20
478.070782
30
0.0
11
772.364083
21
475.748379
31
0.0
0
LINE
8
VISIBLE
10
772.364083
20
480.486000
30
0.0
11
772.364083
21
478.070782
31
0.0
0
LINE
8
VISIBLE
10
772.364083
20
487.424942
30
0.0
11
772.364083
21
480.486000
31
0.0
0
LINE
8
VISIBLE
10
772.364083
20
487.424942
30
0.0
11
772.364083
21
493.895058
31
0.0
0
LINE
8
VISIBLE
10
767.364083
20
433.762662
30
0.0
11
767.364083
21
433.660000
31
0.0
0
LINE
8
VISIBLE
10
767.364083
20
434.068890
30
0.0
11
767.364083
21
433.762662
31
0.0
0
LINE
8
VISIBLE
10
767.364083
20
434.573446
30
0.0
11
767.364083
21
434.068890
31
0.0
0
LINE
8
VISIBLE
10
767.364083
20
435.267695
30
0.0
11
767.364083
21
434.573446
31
0.0
0
LINE
8
VISIBLE
10
767.364083
20
436.139760
30
0.0
11
767.364083
21
435.267695
31
0.0
0
LINE
8
VISIBLE
10
767.364083
20
437.174719
30
0.0
11
767.364083
21
436.139760
31
0.0
0
LINE
8
VISIBLE
10
767.364083
20
438.354863
30
0.0
11
767.364083
21
437.174719
31
0.0
0
LINE
8
VISIBLE
10
767.364083
20
439.660000
30
0.0
11
767.364083
21
438.354863
31
0.0
0
LINE
8
VISIBLE
10
767.364083
20
441.067799
30
0.0
11
767.364083
21
439.660000
31
0.0
0
LINE
8
VISIBLE
10
767.364083
20
442.554171
30
0.0
11
767.364083
21
441.067799
31
0.0
0
LINE
8
VISIBLE
10
767.364083
20
487.935005
30
0.0
11
767.364083
21
474.106000
31
0.0
0
LINE
8
VISIBLE
10
767.364083
20
444.093686
30
0.0
11
767.364083
21
442.554171
31
0.0
0
LINE
8
VISIBLE
10
767.364083
20
474.106000
30
0.0
11
767.364083
21
445.660000
31
0.0
0
LINE
8
VISIBLE
10
767.364083
20
445.660000
30
0.0
11
767.364083
21
444.093686
31
0.0
0
LINE
8
VISIBLE
10
772.364083
20
480.486000
30
0.0
11
767.364083
21
480.486000
31
0.0
0
LINE
8
VISIBLE
10
772.364083
20
487.424942
30
0.0
11
767.364083
21
487.424942
31
0.0
0
LINE
8
VISIBLE
10
772.364083
20
468.106000
30
0.0
11
767.364083
21
468.106000
31
0.0
0
LINE
8
VISIBLE
10
772.364083
20
468.343878
30
0.0
11
767.364083
21
468.343878
31
0.0
0
LINE
8
VISIBLE
10
772.364083
20
469.048371
30
0.0
11
767.364083
21
469.048371
31
0.0
0
LINE
8
VISIBLE
10
772.364083
20
470.192406
30
0.0
11
767.364083
21
470.192406
31
0.0
0
LINE
8
VISIBLE
10
772.364083
20
471.732018
30
0.0
11
767.364083
21
471.732018
31
0.0
0
LINE
8
VISIBLE
10
772.364083
20
473.608041
30
0.0
11
767.364083
21
473.608041
31
0.0
0
LINE
8
VISIBLE
10
772.364083
20
475.748379
30
0.0
11
767.364083
21
475.748379
31
0.0
0
LINE
8
VISIBLE
10
772.364083
20
478.070782
30
0.0
11
767.364083
21
478.070782
31
0.0
0
LINE
8
VISIBLE
10
773.764083
20
455.660000
30
0.0
11
767.364083
21
455.660000
31
0.0
0
LINE
8
VISIBLE
10
773.764083
20
455.660000
30
0.0
11
773.764083
21
435.660000
31
0.0
0
LINE
8
VISIBLE
10
762.764083
20
511.106000
30
0.0
11
762.764083
21
474.106000
31
0.0
0
LINE
8
VISIBLE
10
762.764083
20
474.106000
30
0.0
11
762.764083
21
445.660000
31
0.0
0
LINE
8
VISIBLE
10
762.764083
20
445.660000
30
0.0
11
762.764083
21
444.093686
31
0.0
0
LINE
8
VISIBLE
10
762.764083
20
444.093686
30
0.0
11
762.764083
21
442.554171
31
0.0
0
LINE
8
VISIBLE
10
762.764083
20
442.554171
30
0.0
11
762.764083
21
441.067799
31
0.0
0
LINE
8
VISIBLE
10
762.764083
20
441.067799
30
0.0
11
762.764083
21
439.660000
31
0.0
0
LINE
8
VISIBLE
10
762.764083
20
439.660000
30
0.0
11
762.764083
21
438.354863
31
0.0
0
LINE
8
VISIBLE
10
762.764083
20
438.354863
30
0.0
11
762.764083
21
437.174719
31
0.0
0
LINE
8
VISIBLE
10
762.764083
20
437.174719
30
0.0
11
762.764083
21
436.139760
31
0.0
0
LINE
8
VISIBLE
10
762.764083
20
436.139760
30
0.0
11
762.764083
21
435.267695
31
0.0
0
LINE
8
VISIBLE
10
762.764083
20
435.267695
30
0.0
11
762.764083
21
434.573446
31
0.0
0
LINE
8
VISIBLE
10
762.764083
20
434.573446
30
0.0
11
762.764083
21
434.068890
31
0.0
0
LINE
8
VISIBLE
10
762.764083
20
434.068890
30
0.0
11
762.764083
21
433.762662
31
0.0
0
LINE
8
VISIBLE
10
762.764083
20
433.762662
30
0.0
11
762.764083
21
433.660000
31
0.0
0
LINE
8
VISIBLE
10
762.764083
20
511.106000
30
0.0
11
762.764083
21
511.048356
31
0.0
0
LINE
8
VISIBLE
10
762.764083
20
455.660000
30
0.0
11
761.764083
21
455.660000
31
0.0
0
LINE
8
VISIBLE
10
761.764083
20
455.660000
30
0.0
11
761.764083
21
435.660000
31
0.0
0
LINE
8
VISIBLE
10
762.764083
20
476.106000
30
0.0
11
761.764083
21
476.106000
31
0.0
0
LINE
8
VISIBLE
10
761.764083
20
476.106000
30
0.0
11
761.764083
21
488.478258
31
0.0
0
LINE
8
VISIBLE
10
761.764083
20
492.841742
30
0.0
11
761.764083
21
493.106000
31
0.0
0
LINE
8
VISIBLE
10
761.764083
20
493.106000
30
0.0
11
757.864083
21
493.106000
31
0.0
0
LINE
8
VISIBLE
10
757.864083
20
493.106000
30
0.0
11
757.864083
21
504.106000
31
0.0
0
LINE
8
VISIBLE
10
761.764083
20
450.580000
30
0.0
11
758.184083
21
450.580000
31
0.0
0
LINE
8
VISIBLE
10
758.184083
20
450.580000
30
0.0
11
758.184083
21
440.740000
31
0.0
0
LINE
8
VISIBLE
10
767.364083
20
493.384995
30
0.0
11
766.364083
21
493.384995
31
0.0
0
LINE
8
VISIBLE
10
767.364083
20
487.935005
30
0.0
11
766.364083
21
487.935005
31
0.0
0
LINE
8
VISIBLE
10
767.364083
20
474.106000
30
0.0
11
762.764083
21
474.106000
31
0.0
0
LINE
8
VISIBLE
10
762.764083
20
511.106000
30
0.0
11
761.764083
21
511.106000
31
0.0
0
LINE
8
VISIBLE
10
767.364083
20
529.660000
30
0.0
11
761.764083
21
529.660000
31
0.0
0
LINE
8
VISIBLE
10
767.364083
20
532.270524
30
0.0
11
761.764083
21
532.270524
31
0.0
0
LINE
8
VISIBLE
10
767.364083
20
534.836381
30
0.0
11
761.764083
21
534.836381
31
0.0
0
LINE
8
VISIBLE
10
767.364083
20
537.313669
30
0.0
11
761.764083
21
537.313669
31
0.0
0
LINE
8
VISIBLE
10
767.364083
20
539.660000
30
0.0
11
761.764083
21
539.660000
31
0.0
0
LINE
8
VISIBLE
10
767.364083
20
541.835229
30
0.0
11
761.764083
21
541.835229
31
0.0
0
LINE
8
VISIBLE
10
767.364083
20
543.802136
30
0.0
11
761.764083
21
543.802136
31
0.0
0
LINE
8
VISIBLE
10
767.364083
20
545.527067
30
0.0
11
761.764083
21
545.527067
31
0.0
0
LINE
8
VISIBLE
10
767.364083
20
546.980508
30
0.0
11
761.764083
21
546.980508
31
0.0
0
LINE
8
VISIBLE
10
767.364083
20
548.137591
30
0.0
11
761.764083
21
548.137591
31
0.0
0
LINE
8
VISIBLE
10
767.364083
20
548.978517
30
0.0
11
761.764083
21
548.978517
31
0.0
0
LINE
8
VISIBLE
10
767.364083
20
549.488897
30
0.0
11
761.764083
21
549.488897
31
0.0
0
LINE
8
VISIBLE
10
767.364083
20
549.660000
30
0.0
11
761.764083
21
549.660000
31
0.0
0
LINE
8
VISIBLE
10
767.364083
20
445.660000
30
0.0
11
762.764083
21
445.660000
31
0.0
0
LINE
8
VISIBLE
10
767.364083
20
433.660000
30
0.0
11
762.764083
21
433.660000
31
0.0
0
LINE
8
VISIBLE
10
767.364083
20
433.762662
30
0.0
11
762.764083
21
433.762662
31
0.0
0
LINE
8
VISIBLE
10
767.364083
20
434.068890
30
0.0
11
762.764083
21
434.068890
31
0.0
0
LINE
8
VISIBLE
10
767.364083
20
434.573446
30
0.0
11
762.764083
21
434.573446
31
0.0
0
LINE
8
VISIBLE
10
767.364083
20
435.267695
30
0.0
11
762.764083
21
435.267695
31
0.0
0
LINE
8
VISIBLE
10
767.364083
20
436.139760
30
0.0
11
762.764083
21
436.139760
31
0.0
0
LINE
8
VISIBLE
10
767.364083
20
437.174719
30
0.0
11
762.764083
21
437.174719
31
0.0
0
LINE
8
VISIBLE
10
767.364083
20
438.354863
30
0.0
11
762.764083
21
438.354863
31
0.0
0
LINE
8
VISIBLE
10
767.364083
20
439.660000
30
0.0
11
762.764083
21
439.660000
31
0.0
0
LINE
8
VISIBLE
10
767.364083
20
441.067799
30
0.0
11
762.764083
21
441.067799
31
0.0
0
LINE
8
VISIBLE
10
767.364083
20
442.554171
30
0.0
11
762.764083
21
442.554171
31
0.0
0
LINE
8
VISIBLE
10
767.364083
20
444.093686
30
0.0
11
762.764083
21
444.093686
31
0.0
0
LINE
8
VISIBLE
10
762.764083
20
504.106000
30
0.0
11
757.864083
21
504.106000
31
0.0
0
LINE
8
VISIBLE
10
761.764083
20
513.760000
30
0.0
11
757.864083
21
513.760000
31
0.0
0
LINE
8
VISIBLE
10
773.764083
20
435.660000
30
0.0
11
767.364083
21
435.660000
31
0.0
0
LINE
8
VISIBLE
10
762.764083
20
435.660000
30
0.0
11
761.764083
21
435.660000
31
0.0
0
LINE
8
VISIBLE
10
761.764083
20
440.740000
30
0.0
11
758.184083
21
440.740000
31
0.0
0
LINE
8
VISIBLE
10
387.979250
20
716.144462
30
0.0
11
387.979250
21
697.590462
31
0.0
0
LINE
8
VISIBLE
10
387.979250
20
718.754986
30
0.0
11
387.979250
21
716.144462
31
0.0
0
LINE
8
VISIBLE
10
387.979250
20
721.320843
30
0.0
11
387.979250
21
718.754986
31
0.0
0
LINE
8
VISIBLE
10
387.979250
20
723.798131
30
0.0
11
387.979250
21
721.320843
31
0.0
0
LINE
8
VISIBLE
10
387.979250
20
726.144462
30
0.0
11
387.979250
21
723.798131
31
0.0
0
LINE
8
VISIBLE
10
387.979250
20
728.319691
30
0.0
11
387.979250
21
726.144462
31
0.0
0
LINE
8
VISIBLE
10
387.979250
20
730.286598
30
0.0
11
387.979250
21
728.319691
31
0.0
0
LINE
8
VISIBLE
10
387.979250
20
732.011529
30
0.0
11
387.979250
21
730.286598
31
0.0
0
LINE
8
VISIBLE
10
387.979250
20
733.464970
30
0.0
11
387.979250
21
732.011529
31
0.0
0
LINE
8
VISIBLE
10
387.979250
20
734.211592
30
0.0
11
387.979250
21
733.464970
31
0.0
0
LINE
8
VISIBLE
10
393.579250
20
716.144462
30
0.0
11
393.579250
21
679.869457
31
0.0
0
LINE
8
VISIBLE
10
393.579250
20
679.869457
30
0.0
11
392.579250
21
679.869457
31
0.0
0
LINE
8
VISIBLE
10
392.579250
20
679.869457
30
0.0
11
392.579250
21
674.419467
31
0.0
0
LINE
8
VISIBLE
10
393.579250
20
674.419467
30
0.0
11
392.579250
21
674.419467
31
0.0
0
LINE
8
VISIBLE
10
393.579250
20
674.419467
30
0.0
11
393.579250
21
660.590462
31
0.0
0
LINE
8
VISIBLE
10
393.579250
20
660.590462
30
0.0
11
388.979250
21
660.590462
31
0.0
0
LINE
8
VISIBLE
10
388.979250
20
697.590462
30
0.0
11
388.979250
21
660.590462
31
0.0
0
LINE
8
VISIBLE
10
393.579250
20
716.144462
30
0.0
11
387.979250
21
716.144462
31
0.0
0
LINE
8
VISIBLE
10
393.579250
20
718.754986
30
0.0
11
393.579250
21
716.144462
31
0.0
0
LINE
8
VISIBLE
10
393.579250
20
718.754986
30
0.0
11
387.979250
21
718.754986
31
0.0
0
LINE
8
VISIBLE
10
393.579250
20
721.320843
30
0.0
11
393.579250
21
718.754986
31
0.0
0
LINE
8
VISIBLE
10
393.579250
20
721.320843
30
0.0
11
387.979250
21
721.320843
31
0.0
0
LINE
8
VISIBLE
10
393.579250
20
723.798131
30
0.0
11
393.579250
21
721.320843
31
0.0
0
LINE
8
VISIBLE
10
393.579250
20
723.798131
30
0.0
11
387.979250
21
723.798131
31
0.0
0
LINE
8
VISIBLE
10
393.579250
20
726.144462
30
0.0
11
393.579250
21
723.798131
31
0.0
0
LINE
8
VISIBLE
10
393.579250
20
726.144462
30
0.0
11
387.979250
21
726.144462
31
0.0
0
LINE
8
VISIBLE
10
393.579250
20
728.319691
30
0.0
11
393.579250
21
726.144462
31
0.0
0
LINE
8
VISIBLE
10
393.579250
20
728.319691
30
0.0
11
387.979250
21
728.319691
31
0.0
0
LINE
8
VISIBLE
10
393.579250
20
730.286598
30
0.0
11
393.579250
21
728.319691
31
0.0
0
LINE
8
VISIBLE
10
393.579250
20
730.286598
30
0.0
11
387.979250
21
730.286598
31
0.0
0
LINE
8
VISIBLE
10
393.579250
20
732.011529
30
0.0
11
393.579250
21
730.286598
31
0.0
0
LINE
8
VISIBLE
10
393.579250
20
732.011529
30
0.0
11
387.979250
21
732.011529
31
0.0
0
LINE
8
VISIBLE
10
393.579250
20
733.464970
30
0.0
11
393.579250
21
732.011529
31
0.0
0
LINE
8
VISIBLE
10
393.579250
20
733.464970
30
0.0
11
387.979250
21
733.464970
31
0.0
0
LINE
8
VISIBLE
10
393.579250
20
734.211592
30
0.0
11
393.579250
21
733.464970
31
0.0
0
LINE
8
VISIBLE
10
384.079250
20
729.590569
30
0.0
11
384.079250
21
702.698355
31
0.0
0
LINE
8
VISIBLE
10
388.979250
20
624.839325
30
0.0
11
388.979250
21
623.660000
31
0.0
0
LINE
8
VISIBLE
10
388.979250
20
626.144462
30
0.0
11
388.979250
21
624.839325
31
0.0
0
LINE
8
VISIBLE
10
388.979250
20
627.552261
30
0.0
11
388.979250
21
626.144462
31
0.0
0
LINE
8
VISIBLE
10
388.979250
20
629.038633
30
0.0
11
388.979250
21
627.552261
31
0.0
0
LINE
8
VISIBLE
10
388.979250
20
630.578148
30
0.0
11
388.979250
21
629.038633
31
0.0
0
LINE
8
VISIBLE
10
388.979250
20
632.144462
30
0.0
11
388.979250
21
630.578148
31
0.0
0
LINE
8
VISIBLE
10
388.979250
20
660.590462
30
0.0
11
388.979250
21
632.144462
31
0.0
0
LINE
8
VISIBLE
10
392.579250
20
674.419467
30
0.0
11
392.579250
21
674.744462
31
0.0
0
LINE
8
VISIBLE
10
392.579250
20
679.544462
30
0.0
11
392.579250
21
679.869457
31
0.0
0
LINE
8
VISIBLE
10
398.579250
20
673.909404
30
0.0
11
393.579250
21
673.909404
31
0.0
0
LINE
8
VISIBLE
10
398.579250
20
673.909404
30
0.0
11
398.579250
21
680.379520
31
0.0
0
LINE
8
VISIBLE
10
398.579250
20
680.379520
30
0.0
11
393.579250
21
680.379520
31
0.0
0
LINE
8
VISIBLE
10
393.579250
20
624.839325
30
0.0
11
393.579250
21
623.660000
31
0.0
0
LINE
8
VISIBLE
10
393.579250
20
626.144462
30
0.0
11
393.579250
21
624.839325
31
0.0
0
LINE
8
VISIBLE
10
393.579250
20
627.552261
30
0.0
11
393.579250
21
626.144462
31
0.0
0
LINE
8
VISIBLE
10
393.579250
20
629.038633
30
0.0
11
393.579250
21
627.552261
31
0.0
0
LINE
8
VISIBLE
10
393.579250
20
630.578148
30
0.0
11
393.579250
21
629.038633
31
0.0
0
LINE
8
VISIBLE
10
393.579250
20
632.144462
30
0.0
11
393.579250
21
630.578148
31
0.0
0
LINE
8
VISIBLE
10
393.579250
20
660.590462
30
0.0
11
393.579250
21
632.144462
31
0.0
0
LINE
8
VISIBLE
10
393.579250
20
632.144462
30
0.0
11
388.979250
21
632.144462
31
0.0
0
LINE
8
VISIBLE
10
398.579250
20
720.962096
30
0.0
11
393.579250
21
720.962096
31
0.0
0
LINE
8
VISIBLE
10
398.579250
20
705.648337
30
0.0
11
393.579250
21
705.648337
31
0.0
0
LINE
8
VISIBLE
10
398.579250
20
709.668587
30
0.0
11
393.579250
21
709.668587
31
0.0
0
LINE
8
VISIBLE
10
398.579250
20
658.216480
30
0.0
11
398.579250
21
657.980139
31
0.0
0
LINE
8
VISIBLE
10
398.579250
20
660.092502
30
0.0
11
398.579250
21
658.216480
31
0.0
0
LINE
8
VISIBLE
10
398.579250
20
662.232841
30
0.0
11
398.579250
21
660.092502
31
0.0
0
LINE
8
VISIBLE
10
398.579250
20
664.555244
30
0.0
11
398.579250
21
662.232841
31
0.0
0
LINE
8
VISIBLE
10
398.579250
20
666.970462
30
0.0
11
398.579250
21
664.555244
31
0.0
0
LINE
8
VISIBLE
10
398.579250
20
673.909404
30
0.0
11
398.579250
21
666.970462
31
0.0
0
LINE
8
VISIBLE
10
398.579250
20
705.648337
30
0.0
11
398.579250
21
680.379520
31
0.0
0
LINE
8
VISIBLE
10
398.579250
20
658.216480
30
0.0
11
393.579250
21
658.216480
31
0.0
0
LINE
8
VISIBLE
10
393.579250
20
624.839325
30
0.0
11
388.979250
21
624.839325
31
0.0
0
LINE
8
VISIBLE
10
393.579250
20
626.144462
30
0.0
11
388.979250
21
626.144462
31
0.0
0
LINE
8
VISIBLE
10
393.579250
20
627.552261
30
0.0
11
388.979250
21
627.552261
31
0.0
0
LINE
8
VISIBLE
10
393.579250
20
629.038633
30
0.0
11
388.979250
21
629.038633
31
0.0
0
LINE
8
VISIBLE
10
393.579250
20
630.578148
30
0.0
11
388.979250
21
630.578148
31
0.0
0
LINE
8
VISIBLE
10
388.979250
20
662.590462
30
0.0
11
387.979250
21
662.590462
31
0.0
0
LINE
8
VISIBLE
10
388.979250
20
679.326204
30
0.0
11
387.979250
21
679.326204
31
0.0
0
LINE
8
VISIBLE
10
388.979250
20
674.962720
30
0.0
11
387.979250
21
674.962720
31
0.0
0
LINE
8
VISIBLE
10
387.979250
20
662.590462
30
0.0
11
387.979250
21
674.962720
31
0.0
0
LINE
8
VISIBLE
10
387.979250
20
679.326204
30
0.0
11
387.979250
21
679.590462
31
0.0
0
LINE
8
VISIBLE
10
387.979250
20
679.590462
30
0.0
11
384.079250
21
679.590462
31
0.0
0
LINE
8
VISIBLE
10
398.579250
20
720.962096
30
0.0
11
398.579250
21
719.948083
31
0.0
0
LINE
8
VISIBLE
10
398.579250
20
719.948083
30
0.0
11
393.579250
21
719.948083
31
0.0
0
LINE
8
VISIBLE
10
398.579250
20
719.948083
30
0.0
11
398.579250
21
717.625680
31
0.0
0
LINE
8
VISIBLE
10
398.579250
20
717.625680
30
0.0
11
393.579250
21
717.625680
31
0.0
0
LINE
8
VISIBLE
10
398.579250
20
717.625680
30
0.0
11
398.579250
21
715.210462
31
0.0
0
LINE
8
VISIBLE
10
398.579250
20
715.210462
30
0.0
11
393.579250
21
715.210462
31
0.0
0
LINE
8
VISIBLE
10
398.579250
20
715.210462
30
0.0
11
398.579250
21
709.668587
31
0.0
0
LINE
8
VISIBLE
10
398.579250
20
666.970462
30
0.0
11
393.579250
21
666.970462
31
0.0
0
LINE
8
VISIBLE
10
398.579250
20
664.555244
30
0.0
11
393.579250
21
664.555244
31
0.0
0
LINE
8
VISIBLE
10
398.579250
20
662.232841
30
0.0
11
393.579250
21
662.232841
31
0.0
0
LINE
8
VISIBLE
10
398.579250
20
660.092502
30
0.0
11
393.579250
21
660.092502
31
0.0
0
LINE
8
SECTION
10
393.579250
20
729.030462
30
0.0
11
389.599250
21
729.030462
31
0.0
0
LINE
8
SECTION
10
389.599250
20
726.830462
30
0.0
11
389.599250
21
729.030462
31
0.0
0
LINE
8
SECTION
10
389.599250
20
726.830462
30
0.0
11
384.079250
21
726.830462
31
0.0
0
LINE
8
SECTION
10
384.079250
20
726.830462
30
0.0
11
384.079250
21
729.590569
31
0.0
0
LINE
8
SECTION
10
387.979250
20
729.590569
30
0.0
11
384.079250
21
729.590569
31
0.0
0
LINE
8
SECTION
10
387.979250
20
729.590569
30
0.0
11
387.979250
21
734.211592
31
0.0
0
LINE
8
SECTION
10
387.979250
20
734.211592
30
0.0
11
393.579250
21
734.211592
31
0.0
0
LINE
8
SECTION
10
393.579250
20
729.030462
30
0.0
11
393.579250
21
734.211592
31
0.0
0
LINE
8
SECTION
10
387.979250
20
697.590462
30
0.0
11
387.979250
21
702.698355
31
0.0
0
LINE
8
SECTION
10
387.979250
20
702.698355
30
0.0
11
384.079250
21
702.698355
31
0.0
0
LINE
8
SECTION
10
384.079250
20
702.698355
30
0.0
11
384.079250
21
705.458462
31
0.0
0
LINE
8
SECTION
10
389.599250
20
705.458462
30
0.0
11
384.079250
21
705.458462
31
0.0
0
LINE
8
SECTION
10
389.599250
20
703.258462
30
0.0
11
389.599250
21
705.458462
31
0.0
0
LINE
8
SECTION
10
398.579250
20
703.258462
30
0.0
11
389.599250
21
703.258462
31
0.0
0
LINE
8
SECTION
10
398.579250
20
657.980139
30
0.0
11
398.579250
21
703.258462
31
0.0
0
LINE
8
SECTION
10
393.579250
20
657.980139
30
0.0
11
398.579250
21
657.980139
31
0.0
0
LINE
8
SECTION
10
393.579250
20
637.434812
30
0.0
11
393.579250
21
657.980139
31
0.0
0
LINE
8
SECTION
10
399.979250
20
637.434812
30
0.0
11
393.579250
21
637.434812
31
0.0
0
LINE
8
SECTION
10
399.979250
20
626.854112
30
0.0
11
399.979250
21
637.434812
31
0.0
0
LINE
8
SECTION
10
399.979250
20
626.854112
30
0.0
11
393.579250
21
626.854112
31
0.0
0
LINE
8
SECTION
10
393.579250
20
623.660000
30
0.0
11
393.579250
21
626.854112
31
0.0
0
LINE
8
SECTION
10
393.579250
20
623.660000
30
0.0
11
388.979250
21
623.660000
31
0.0
0
LINE
8
SECTION
10
388.979250
20
623.660000
30
0.0
11
388.979250
21
626.854112
31
0.0
0
LINE
8
SECTION
10
388.979250
20
626.854112
30
0.0
11
387.979250
21
626.854112
31
0.0
0
LINE
8
SECTION
10
387.979250
20
626.854112
30
0.0
11
387.979250
21
637.434812
31
0.0
0
LINE
8
SECTION
10
388.979250
20
637.434812
30
0.0
11
387.979250
21
637.434812
31
0.0
0
LINE
8
SECTION
10
388.979250
20
637.434812
30
0.0
11
388.979250
21
679.590462
31
0.0
0
LINE
8
SECTION
10
384.079250
20
679.590462
30
0.0
11
388.979250
21
679.590462
31
0.0
0
LINE
8
SECTION
10
384.079250
20
679.590462
30
0.0
11
384.079250
21
690.590462
31
0.0
0
LINE
8
SECTION
10
384.079250
20
690.590462
30
0.0
11
388.979250
21
690.590462
31
0.0
0
LINE
8
SECTION
10
388.979250
20
690.590462
30
0.0
11
388.979250
21
697.590462
31
0.0
0
LINE
8
SECTION
10
388.979250
20
697.590462
30
0.0
11
387.979250
21
697.590462
31
0.0
0
LINE
8
SECTION
10
398.579250
20
712.058462
30
0.0
11
389.599250
21
712.058462
31
0.0
0
LINE
8
SECTION
10
389.599250
20
709.858462
30
0.0
11
389.599250
21
712.058462
31
0.0
0
LINE
8
SECTION
10
389.599250
20
709.858462
30
0.0
11
384.079250
21
709.858462
31
0.0
0
LINE
8
SECTION
10
384.079250
20
709.858462
30
0.0
11
384.079250
21
722.430462
31
0.0
0
LINE
8
SECTION
10
389.599250
20
722.430462
30
0.0
11
384.079250
21
722.430462
31
0.0
0
LINE
8
SECTION
10
389.599250
20
720.230462
30
0.0
11
389.599250
21
722.430462
31
0.0
0
LINE
8
SECTION
10
398.579250
20
720.230462
30
0.0
11
389.599250
21
720.230462
31
0.0
0
LINE
8
SECTION
10
398.579250
20
712.058462
30
0.0
11
398.579250
21
720.230462
31
0.0
0
CIRCLE
8
VISIBLE
10
339.534677
20
117.000000
30
0.0
40
20.000000
0
CIRCLE
8
VISIBLE
10
339.534677
20
117.000000
30
0.0
40
16.000000
0
CIRCLE
8
VISIBLE
10
339.534677
20
117.000000
30
0.0
40
5.400000
0
CIRCLE
8
VISIBLE
10
339.534677
20
117.000000
30
0.0
40
9.840000
0
CIRCLE
8
SECTION
10
339.534677
20
117.000000
30
0.0
40
17.000000
0
LINE
8
VISIBLE
10
712.877872
20
188.572000
30
0.0
11
761.917722
21
188.572000
31
0.0
0
ARC
8
VISIBLE
10
769.397797
20
147.680000
30
0.0
40
4.800000
50
294.624318
51
65.375682
0
ARC
8
VISIBLE
10
769.397797
20
147.680000
30
0.0
40
4.800000
50
245.375682
51
294.624318
0
ARC
8
VISIBLE
10
769.397797
20
147.680000
30
0.0
40
4.800000
50
114.624318
51
245.375682
0
LINE
8
VISIBLE
10
727.854520
20
184.868101
30
0.0
11
727.513085
21
183.742542
31
0.0
0
ARC
8
VISIBLE
10
705.397797
20
147.680000
30
0.0
40
4.800000
50
294.624318
51
65.375682
0
ARC
8
VISIBLE
10
705.397797
20
147.680000
30
0.0
40
4.800000
50
245.375682
51
294.624318
0
ARC
8
VISIBLE
10
705.397797
20
147.680000
30
0.0
40
4.800000
50
114.624318
51
245.375682
0
LINE
8
VISIBLE
10
777.397797
20
173.629613
30
0.0
11
777.397797
21
121.730387
31
0.0
0
LINE
8
VISIBLE
10
742.568339
20
188.456712
30
0.0
11
741.397797
21
188.572000
31
0.0
0
LINE
8
VISIBLE
10
743.693897
20
188.115277
30
0.0
11
742.568339
21
188.456712
31
0.0
0
LINE
8
VISIBLE
10
744.731218
20
187.560818
30
0.0
11
743.693897
21
188.115277
31
0.0
0
LINE
8
VISIBLE
10
745.640438
20
186.814641
30
0.0
11
744.731218
21
187.560818
31
0.0
0
LINE
8
VISIBLE
10
746.386615
20
185.905421
30
0.0
11
745.640438
21
186.814641
31
0.0
0
LINE
8
VISIBLE
10
746.941074
20
184.868101
30
0.0
11
746.386615
21
185.905421
31
0.0
0
LINE
8
VISIBLE
10
747.282509
20
183.742542
30
0.0
11
746.941074
21
184.868101
31
0.0
0
LINE
8
VISIBLE
10
747.397797
20
182.572000
30
0.0
11
747.282509
21
183.742542
31
0.0
0
LINE
8
VISIBLE
10
747.397797
20
148.572000
30
0.0
11
747.397797
21
182.572000
31
0.0
0
LINE
8
VISIBLE
10
747.282509
20
147.401458
30
0.0
11
747.397797
21
148.572000
31
0.0
0
LINE
8
VISIBLE
10
746.941074
20
146.275899
30
0.0
11
747.282509
21
147.401458
31
0.0
0
LINE
8
VISIBLE
10
746.386615
20
145.238579
30
0.0
11
746.941074
21
146.275899
31
0.0
0
LINE
8
VISIBLE
10
745.640438
20
144.329359
30
0.0
11
746.386615
21
145.238579
31
0.0
0
LINE
8
VISIBLE
10
744.731218
20
143.583182
30
0.0
11
745.640438
21
144.329359
31
0.0
0
LINE
8
VISIBLE
10
743.693897
20
143.028723
30
0.0
11
744.731218
21
143.583182
31
0.0
0
LINE
8
VISIBLE
10
742.568339
20
142.687288
30
0.0
11
743.693897
21
143.028723
31
0.0
0
LINE
8
VISIBLE
10
741.397797
20
142.572000
30
0.0
11
742.568339
21
142.687288
31
0.0
0
LINE
8
VISIBLE
10
733.397797
20
142.572000
30
0.0
11
741.397797
21
142.572000
31
0.0
0
LINE
8
VISIBLE
10
732.227255
20
142.687288
30
0.0
11
733.397797
21
142.572000
31
0.0
0
LINE
8
VISIBLE
10
731.101696
20
143.028723
30
0.0
11
732.227255
21
142.687288
31
0.0
0
LINE
8
VISIBLE
10
730.064375
20
143.583182
30
0.0
11
731.101696
21
143.028723
31
0.0
0
LINE
8
VISIBLE
10
729.155156
20
144.329359
30
0.0
11
730.064375
21
143.583182
31
0.0
0
LINE
8
VISIBLE
10
728.408979
20
145.238579
30
0.0
11
729.155156
21
144.329359
31
0.0
0
LINE
8
VISIBLE
10
727.854520
20
146.275899
30
0.0
11
728.408979
21
145.238579
31
0.0
0
LINE
8
VISIBLE
10
727.513085
20
147.401458
30
0.0
11
727.854520
21
146.275899
31
0.0
0
LINE
8
VISIBLE
10
727.397797
20
148.572000
30
0.0
11
727.513085
21
147.401458
31
0.0
0
LINE
8
VISIBLE
10
727.397797
20
182.572000
30
0.0
11
727.397797
21
148.572000
31
0.0
0
LINE
8
VISIBLE
10
727.513085
20
183.742542
30
0.0
11
727.397797
21
182.572000
31
0.0
0
LINE
8
VISIBLE
10
697.397797
20
121.730387
30
0.0
11
697.397797
21
173.629613
31
0.0
0
LINE
8
VISIBLE
10
728.408979
20
185.905421
30
0.0
11
727.854520
21
184.868101
31
0.0
0
LINE
8
VISIBLE
10
729.155156
20
186.814641
30
0.0
11
728.408979
21
185.905421
31
0.0
0
LINE
8
VISIBLE
10
733.397797
20
188.572000
30
0.0
11
732.227255
21
188.456712
31
0.0
0
LINE
8
VISIBLE
10
730.064375
20
187.560818
30
0.0
11
729.155156
21
186.814641
31
0.0
0
LINE
8
VISIBLE
10
732.227255
20
188.456712
30
0.0
11
731.101696
21
188.115277
31
0.0
0
LINE
8
VISIBLE
10
731.101696
20
188.115277
30
0.0
11
730.064375
21
187.560818
31
0.0
0
LINE
8
VISIBLE
10
703.397797
20
118.572000
30
0.0
11
703.397797
21
143.316515
31
0.0
0
LINE
8
VISIBLE
10
707.397797
20
118.572000
30
0.0
11
703.397797
21
118.572000
31
0.0
0
LINE
8
VISIBLE
10
707.397797
20
118.572000
30
0.0
11
707.397797
21
143.316515
31
0.0
0
LINE
8
VISIBLE
10
723.397797
20
152.572000
30
0.0
11
719.397797
21
152.572000
31
0.0
0
LINE
8
VISIBLE
10
719.397797
20
152.572000
30
0.0
11
719.397797
21
174.572000
31
0.0
0
LINE
8
VISIBLE
10
723.397797
20
152.572000
30
0.0
11
723.397797
21
174.572000
31
0.0
0
LINE
8
VISIBLE
10
723.397797
20
174.572000
30
0.0
11
719.397797
21
174.572000
31
0.0
0
LINE
8
VISIBLE
10
755.397797
20
152.572000
30
0.0
11
751.397797
21
152.572000
31
0.0
0
LINE
8
VISIBLE
10
751.397797
20
152.572000
30
0.0
11
751.397797
21
174.572000
31
0.0
0
LINE
8
VISIBLE
10
755.397797
20
152.572000
30
0.0
11
755.397797
21
174.572000
31
0.0
0
LINE
8
VISIBLE
10
755.397797
20
174.572000
30
0.0
11
751.397797
21
174.572000
31
0.0
0
LINE
8
VISIBLE
10
767.397797
20
118.572000
30
0.0
11
767.397797
21
143.316515
31
0.0
0
LINE
8
VISIBLE
10
771.397797
20
118.572000
30
0.0
11
767.397797
21
118.572000
31
0.0
0
LINE
8
VISIBLE
10
771.397797
20
118.572000
30
0.0
11
771.397797
21
143.316515
31
0.0
0
LINE
8
VISIBLE
10
707.397797
20
152.043485
30
0.0
11
707.397797
21
152.572000
31
0.0
0
LINE
8
VISIBLE
10
703.397797
20
152.043485
30
0.0
11
703.397797
21
152.572000
31
0.0
0
LINE
8
VISIBLE
10
771.397797
20
152.043485
30
0.0
11
771.397797
21
152.572000
31
0.0
0
LINE
8
VISIBLE
10
767.397797
20
152.043485
30
0.0
11
767.397797
21
152.572000
31
0.0
0
LINE
8
VISIBLE
10
707.397797
20
152.572000
30
0.0
11
703.397797
21
152.572000
31
0.0
0
LINE
8
VISIBLE
10
771.397797
20
152.572000
30
0.0
11
767.397797
21
152.572000
31
0.0
0
LINE
8
VISIBLE
10
707.397797
20
152.572000
30
0.0
11
707.397797
21
174.572000
31
0.0
0
LINE
8
VISIBLE
10
707.397797
20
174.572000
30
0.0
11
703.397797
21
174.572000
31
0.0
0
LINE
8
VISIBLE
10
703.397797
20
152.572000
30
0.0
11
703.397797
21
174.572000
31
0.0
0
LINE
8
VISIBLE
10
771.397797
20
152.572000
30
0.0
11
771.397797
21
174.572000
31
0.0
0
LINE
8
VISIBLE
10
771.397797
20
174.572000
30
0.0
11
767.397797
21
174.572000
31
0.0
0
LINE
8
VISIBLE
10
767.397797
20
152.572000
30
0.0
11
767.397797
21
174.572000
31
0.0
0
ARC
8
VISIBLE
10
769.397799
20
147.680002
30
0.0
40
4.799998
50
65.375699
51
114.624352
0
ARC
8
VISIBLE
10
705.397826
20
147.679967
30
0.0
40
4.800032
50
65.376160
51
114.624469
0
CIRCLE
8
SECTION
10
737.397797
20
147.680000
30
0.0
40
47.680000
0
LINE
8
VISIBLE
10
1108.905364
20
101.694033
30
0.0
11
1131.585229
21
101.694033
31
0.0
0
CIRCLE
8
VISIBLE
10
1120.245297
20
138.802033
30
0.0
40
31.800000
0
CIRCLE
8
VISIBLE
10
1103.273297
20
121.830033
30
0.0
40
4.400000
0
CIRCLE
8
VISIBLE
10
1103.273297
20
155.774033
30
0.0
40
4.400000
0
CIRCLE
8
VISIBLE
10
1137.217297
20
121.830033
30
0.0
40
4.400000
0
CIRCLE
8
VISIBLE
10
1120.245297
20
138.802033
30
0.0
40
12.000000
0
CIRCLE
8
VISIBLE
10
1137.217297
20
155.774033
30
0.0
40
4.400000
0
LINE
8
VISIBLE
10
1125.415839
20
101.578744
30
0.0
11
1124.245297
21
101.694033
31
0.0
0
LINE
8
VISIBLE
10
1126.541397
20
101.237310
30
0.0
11
1125.415839
21
101.578744
31
0.0
0
LINE
8
VISIBLE
10
1127.556089
20
100.694946
30
0.0
11
1126.541397
21
101.237310
31
0.0
0
LINE
8
VISIBLE
10
1116.245297
20
101.694033
30
0.0
11
1115.074755
21
101.578744
31
0.0
0
LINE
8
VISIBLE
10
1115.074755
20
101.578744
30
0.0
11
1113.949196
21
101.237310
31
0.0
0
LINE
8
VISIBLE
10
1113.949196
20
101.237310
30
0.0
11
1112.934505
21
100.694946
31
0.0
0
CIRCLE
8
SECTION
10
1120.245297
20
138.802033
30
0.0
40
38.802033
0
CIRCLE
8
CENTER
10
392.029250
20
445.660000
30
0.0
40
8.500000
0
TEXT
8
TEXT
10
402.029250
20
455.660000
30
0.0
40
5.0000
1
A
0
CIRCLE
8
CENTER
10
392.029250
20
490.660000
30
0.0
40
23.840000
0
TEXT
8
TEXT
10
417.369250
20
516.000000
30
0.0
40
5.0000
1
B
0
CIRCLE
8
CENTER
10
392.029250
20
529.660000
30
0.0
40
19.401016
0
TEXT
8
TEXT
10
412.930266
20
550.561016
30
0.0
40
5.0000
1
C
0
LINE
8
CENTER
10
377.543250
20
538.146000
30
0.0
11
382.343250
21
538.146000
31
0.0
0
LINE
8
CENTER
10
384.743250
20
538.146000
30
0.0
11
389.543250
21
538.146000
31
0.0
0
LINE
8
CENTER
10
383.543250
20
532.146000
30
0.0
11
383.543250
21
536.946000
31
0.0
0
LINE
8
CENTER
10
383.543250
20
539.346000
30
0.0
11
383.543250
21
544.146000
31
0.0
0
LINE
8
CENTER
10
394.515250
20
538.146000
30
0.0
11
399.315250
21
538.146000
31
0.0
0
LINE
8
CENTER
10
401.715250
20
538.146000
30
0.0
11
406.515250
21
538.146000
31
0.0
0
LINE
8
CENTER
10
400.515250
20
532.146000
30
0.0
11
400.515250
21
536.946000
31
0.0
0
LINE
8
CENTER
10
400.515250
20
539.346000
30
0.0
11
400.515250
21
544.146000
31
0.0
0
LINE
8
CENTER
10
384.429250
20
529.660000
30
0.0
11
390.829250
21
529.660000
31
0.0
0
LINE
8
CENTER
10
393.229250
20
529.660000
30
0.0
11
399.629250
21
529.660000
31
0.0
0
LINE
8
CENTER
10
392.029250
20
522.060000
30
0.0
11
392.029250
21
528.460000
31
0.0
0
LINE
8
CENTER
10
392.029250
20
530.860000
30
0.0
11
392.029250
21
537.260000
31
0.0
0
LINE
8
CENTER
10
377.543250
20
521.174000
30
0.0
11
382.343250
21
521.174000
31
0.0
0
LINE
8
CENTER
10
384.743250
20
521.174000
30
0.0
11
389.543250
21
521.174000
31
0.0
0
LINE
8
CENTER
10
383.543250
20
515.174000
30
0.0
11
383.543250
21
519.974000
31
0.0
0
LINE
8
CENTER
10
383.543250
20
522.374000
30
0.0
11
383.543250
21
527.174000
31
0.0
0
LINE
8
CENTER
10
394.515250
20
521.174000
30
0.0
11
399.315250
21
521.174000
31
0.0
0
LINE
8
CENTER
10
401.715250
20
521.174000
30
0.0
11
406.515250
21
521.174000
31
0.0
0
LINE
8
CENTER
10
400.515250
20
515.174000
30
0.0
11
400.515250
21
519.974000
31
0.0
0
LINE
8
CENTER
10
400.515250
20
522.374000
30
0.0
11
400.515250
21
527.174000
31
0.0
0
LINE
8
CENTER
10
369.589250
20
490.660000
30
0.0
11
374.829250
21
490.660000
31
0.0
0
LINE
8
CENTER
10
377.229250
20
490.660000
30
0.0
11
382.469250
21
490.660000
31
0.0
0
LINE
8
CENTER
10
376.029250
20
484.220000
30
0.0
11
376.029250
21
489.460000
31
0.0
0
LINE
8
CENTER
10
376.029250
20
491.860000
30
0.0
11
376.029250
21
497.100000
31
0.0
0
LINE
8
CENTER
10
401.589250
20
490.660000
30
0.0
11
406.829250
21
490.660000
31
0.0
0
LINE
8
CENTER
10
409.229250
20
490.660000
30
0.0
11
414.469250
21
490.660000
31
0.0
0
LINE
8
CENTER
10
408.029250
20
484.220000
30
0.0
11
408.029250
21
489.460000
31
0.0
0
LINE
8
CENTER
10
408.029250
20
491.860000
30
0.0
11
408.029250
21
497.100000
31
0.0
0
LINE
8
CENTER
10
384.929250
20
445.660000
30
0.0
11
390.829250
21
445.660000
31
0.0
0
LINE
8
CENTER
10
393.229250
20
445.660000
30
0.0
11
399.129250
21
445.660000
31
0.0
0
LINE
8
CENTER
10
392.029250
20
438.560000
30
0.0
11
392.029250
21
444.460000
31
0.0
0
LINE
8
CENTER
10
392.029250
20
446.860000
30
0.0
11
392.029250
21
452.760000
31
0.0
0
LINE
8
DIM
10
372.029250
20
432.460000
30
0.0
11
372.029250
21
410.660000
31
0.0
0
LINE
8
DIM
10
412.029250
20
432.460000
30
0.0
11
412.029250
21
410.660000
31
0.0
0
LINE
8
DIM
10
372.029250
20
412.660000
30
0.0
11
412.029250
21
412.660000
31
0.0
0
SOLID
8
DIM
10
372.029250
20
412.660000
30
0.0
11
375.229250
21
412.052000
31
0.0
12
375.229250
22
413.268000
32
0.0
13
375.229250
23
413.268000
33
0.0
0
SOLID
8
DIM
10
412.029250
20
412.660000
30
0.0
11
408.829250
21
413.268000
31
0.0
12
408.829250
22
412.052000
32
0.0
13
408.829250
23
412.052000
33
0.0
0
TEXT
8
TEXT
10
392.029250
20
413.660000
30
0.0
40
3.5000
1
20.00
72
1
73
0
11
392.029250
21
413.660000
31
0.0
0
LINE
8
DIM
10
370.829250
20
433.660000
30
0.0
11
349.029250
21
433.660000
31
0.0
0
LINE
8
DIM
10
370.829250
20
549.660000
30
0.0
11
349.029250
21
549.660000
31
0.0
0
LINE
8
DIM
10
351.029250
20
433.660000
30
0.0
11
351.029250
21
549.660000
31
0.0
0
SOLID
8
DIM
10
351.029250
20
433.660000
30
0.0
11
351.637250
21
436.860000
31
0.0
12
350.421250
22
436.860000
32
0.0
13
350.421250
23
436.860000
33
0.0
0
SOLID
8
DIM
10
351.029250
20
549.660000
30
0.0
11
350.421250
21
546.460000
31
0.0
12
351.637250
22
546.460000
32
0.0
13
351.637250
23
546.460000
33
0.0
0
TEXT
8
TEXT
10
350.029250
20
491.660000
30
0.0
40
3.5000
1
58.00
50
90.0000
72
1
73
0
11
350.029250
21
491.660000
31
0.0
0
SOLID
8
DIM
10
386.252160
20
541.613247
30
0.0
11
388.701388
21
543.760560
31
0.0
12
387.743167
22
544.509204
32
0.0
13
387.743167
23
544.509204
33
0.0
0
LINE
8
DIM
10
386.252160
20
541.613247
30
0.0
11
405.820828
21
566.660000
31
0.0
0
LINE
8
DIM
10
405.820828
20
566.660000
30
0.0
11
410.820828
21
566.660000
31
0.0
0
TEXT
8
TEXT
10
411.620828
20
572.735000
30
0.0
40
3.5000
1
4x Ø2.20 THRU
0
TEXT
8
TEXT
10
411.620828
20
567.660000
30
0.0
40
3.5000
1
C'BORE Ø4.40x4.49 +X
0
SOLID
8
DIM
10
378.803156
20
494.626238
30
0.0
11
381.135382
21
496.900087
31
0.0
12
380.138905
22
497.597002
32
0.0
13
380.138905
23
497.597002
33
0.0
0
LINE
8
DIM
10
378.803156
20
494.626238
30
0.0
11
438.029250
21
579.310000
31
0.0
0
LINE
8
DIM
10
438.029250
20
579.310000
30
0.0
11
443.029250
21
579.310000
31
0.0
0
TEXT
8
TEXT
10
443.829250
20
585.385000
30
0.0
40
3.5000
1
2x Ø2.40 THRU
0
TEXT
8
TEXT
10
443.829250
20
580.310000
30
0.0
40
3.5000
1
C'BORE Ø4.84x3.00 +X
0
SOLID
8
DIM
10
395.593200
20
534.486827
30
0.0
11
397.983091
21
536.699988
31
0.0
12
397.004854
22
537.422282
32
0.0
13
397.004854
23
537.422282
33
0.0
0
LINE
8
DIM
10
395.593200
20
534.486827
30
0.0
11
438.029250
21
591.960000
31
0.0
0
LINE
8
DIM
10
438.029250
20
591.960000
30
0.0
11
443.029250
21
591.960000
31
0.0
0
TEXT
8
TEXT
10
443.829250
20
592.960000
30
0.0
40
3.5000
1
Ø6.00 THRU
0
SOLID
8
DIM
10
393.604557
20
450.929574
30
0.0
11
395.103627
21
453.821364
31
0.0
12
393.938572
22
454.169651
32
0.0
13
393.938572
23
454.169651
33
0.0
0
LINE
8
DIM
10
393.604557
20
450.929574
30
0.0
11
438.029250
21
599.535000
31
0.0
0
LINE
8
DIM
10
438.029250
20
599.535000
30
0.0
11
443.029250
21
599.535000
31
0.0
0
TEXT
8
TEXT
10
443.829250
20
605.610000
30
0.0
40
3.5000
1
Ø2.70 THRU
0
TEXT
8
TEXT
10
443.829250
20
600.535000
30
0.0
40
3.5000
1
C'BORE Ø5.50x3.49 -X
0
SOLID
8
DIM
10
392.029250
20
513.760000
30
0.0
11
392.637250
21
516.960000
31
0.0
12
391.421250
22
516.960000
32
0.0
13
391.421250
23
516.960000
33
0.0
0
LINE
8
DIM
10
392.029250
20
513.760000
30
0.0
11
392.029250
21
523.760000
31
0.0
0
LINE
8
DIM
10
392.029250
20
523.760000
30
0.0
11
389.029250
21
523.760000
31
0.0
0
TEXT
8
TEXT
10
388.229250
20
524.760000
30
0.0
40
3.5000
1
R7.95
72
2
73
0
11
388.229250
21
524.760000
31
0.0
0
SOLID
8
DIM
10
392.029250
20
435.660000
30
0.0
11
391.421250
21
432.460000
31
0.0
12
392.637250
22
432.460000
32
0.0
13
392.637250
23
432.460000
33
0.0
0
LINE
8
DIM
10
392.029250
20
435.660000
30
0.0
11
392.029250
21
425.660000
31
0.0
0
LINE
8
DIM
10
392.029250
20
425.660000
30
0.0
11
389.029250
21
425.660000
31
0.0
0
TEXT
8
TEXT
10
388.229250
20
426.660000
30
0.0
40
3.5000
1
R5.00
72
2
73
0
11
388.229250
21
426.660000
31
0.0
0
SOLID
8
DIM
10
392.029250
20
437.660000
30
0.0
11
394.089777
21
435.137325
31
0.0
12
394.871407
22
436.068835
32
0.0
13
394.871407
23
436.068835
33
0.0
0
LINE
8
DIM
10
392.029250
20
437.660000
30
0.0
11
399.689694
21
431.232124
31
0.0
0
LINE
8
DIM
10
399.689694
20
431.232124
30
0.0
11
402.689694
21
431.232124
31
0.0
0
TEXT
8
TEXT
10
403.489694
20
432.232124
30
0.0
40
3.5000
1
R4.00
0
SOLID
8
DIM
10
392.029250
20
523.660000
30
0.0
11
392.637250
21
526.860000
31
0.0
12
391.421250
22
526.860000
32
0.0
13
391.421250
23
526.860000
33
0.0
0
LINE
8
DIM
10
392.029250
20
523.660000
30
0.0
11
392.029250
21
533.660000
31
0.0
0
LINE
8
DIM
10
392.029250
20
533.660000
30
0.0
11
389.029250
21
533.660000
31
0.0
0
TEXT
8
TEXT
10
388.229250
20
534.660000
30
0.0
40
3.5000
1
R3.00
72
2
73
0
11
388.229250
21
534.660000
31
0.0
0
SOLID
8
DIM
10
392.029250
20
440.160000
30
0.0
11
390.125836
21
437.516767
31
0.0
12
391.227907
22
437.002863
32
0.0
13
391.227907
23
437.002863
33
0.0
0
LINE
8
DIM
10
392.029250
20
440.160000
30
0.0
11
387.803067
21
431.096922
31
0.0
0
LINE
8
DIM
10
387.803067
20
431.096922
30
0.0
11
384.803067
21
431.096922
31
0.0
0
TEXT
8
TEXT
10
384.003067
20
432.096922
30
0.0
40
3.5000
1
R2.75
72
2
73
0
11
384.003067
21
432.096922
31
0.0
0
SOLID
8
DIM
10
392.029250
20
440.740000
30
0.0
11
395.075057
21
439.585563
31
0.0
12
395.286213
22
440.783089
32
0.0
13
395.286213
23
440.783089
33
0.0
0
LINE
8
DIM
10
392.029250
20
440.740000
30
0.0
11
401.877328
21
439.003518
31
0.0
0
LINE
8
DIM
10
401.877328
20
439.003518
30
0.0
11
404.877328
21
439.003518
31
0.0
0
TEXT
8
TEXT
10
405.677328
20
440.003518
30
0.0
40
3.5000
1
R2.46
0
SOLID
8
DIM
10
373.766882
20
494.938702
30
0.0
11
371.501593
21
497.279242
31
0.0
12
370.801031
22
496.285326
32
0.0
13
370.801031
23
496.285326
33
0.0
0
LINE
8
DIM
10
373.766882
20
494.938702
30
0.0
11
365.593226
21
500.699896
31
0.0
0
LINE
8
DIM
10
365.593226
20
500.699896
30
0.0
11
362.593226
21
500.699896
31
0.0
0
TEXT
8
TEXT
10
361.793226
20
501.699896
30
0.0
40
3.5000
1
R2.42
72
2
73
0
11
361.793226
21
501.699896
31
0.0
0
SOLID
8
DIM
10
398.248855
20
541.917399
30
0.0
11
397.841332
21
545.149053
31
0.0
12
396.684488
22
544.774394
32
0.0
13
396.684488
23
544.774394
33
0.0
0
LINE
8
DIM
10
398.248855
20
541.917399
30
0.0
11
395.167777
21
551.430914
31
0.0
0
LINE
8
DIM
10
395.167777
20
551.430914
30
0.0
11
392.167777
21
551.430914
31
0.0
0
TEXT
8
TEXT
10
391.367777
20
552.430914
30
0.0
40
3.5000
1
R2.20
72
2
73
0
11
391.367777
21
552.430914
31
0.0
0
SOLID
8
DIM
10
392.029250
20
442.960000
30
0.0
11
389.187093
21
441.368835
31
0.0
12
389.968723
22
440.437325
32
0.0
13
389.968723
23
440.437325
33
0.0
0
LINE
8
DIM
10
392.029250
20
442.960000
30
0.0
11
384.368806
21
436.532124
31
0.0
0
LINE
8
DIM
10
384.368806
20
436.532124
30
0.0
11
381.368806
21
436.532124
31
0.0
0
TEXT
8
TEXT
10
380.568806
20
437.532124
30
0.0
40
3.5000
1
R1.35
72
2
73
0
11
380.568806
21
437.532124
31
0.0
0
SOLID
8
DIM
10
410.429250
20
490.660000
30
0.0
11
413.591540
21
489.879239
31
0.0
12
413.657529
22
491.093447
32
0.0
13
413.657529
23
491.093447
33
0.0
0
LINE
8
DIM
10
410.429250
20
490.660000
30
0.0
11
420.414514
21
490.117323
31
0.0
0
LINE
8
DIM
10
420.414514
20
490.117323
30
0.0
11
423.414514
21
490.117323
31
0.0
0
TEXT
8
TEXT
10
424.214514
20
491.117323
30
0.0
40
3.5000
1
R1.20
0
SOLID
8
DIM
10
383.543250
20
535.946000
30
0.0
11
383.538165
21
539.203244
31
0.0
12
382.343892
22
538.974400
32
0.0
13
382.343892
23
538.974400
33
0.0
0
LINE
8
DIM
10
383.543250
20
535.946000
30
0.0
11
381.661307
21
545.767318
31
0.0
0
LINE
8
DIM
10
381.661307
20
545.767318
30
0.0
11
378.661307
21
545.767318
31
0.0
0
TEXT
8
TEXT
10
377.861307
20
546.767318
30
0.0
40
3.5000
1
R1.10
72
2
73
0
11
377.861307
21
546.767318
31
0.0
0
TEXT
8
TEXT
10
392.029250
20
400.660000
30
0.0
40
5.0000
1
RIGHT VIEW
72
1
73
0
11
392.029250
21
400.660000
31
0.0
0
LINE
8
TEXT
10
377.029250
20
399.060000
30
0.0
11
407.029250
21
399.060000
31
0.0
0
TEXT
8
TEXT
10
392.029250
20
394.660000
30
0.0
40
3.5000
1
-Y →   Z ↑
72
1
73
0
11
392.029250
21
394.660000
31
0.0
0
LINE
8
DIM
10
757.864083
20
432.460000
30
0.0
11
757.864083
21
419.660000
31
0.0
0
LINE
8
DIM
10
773.764083
20
432.460000
30
0.0
11
773.764083
21
419.660000
31
0.0
0
LINE
8
DIM
10
757.864083
20
421.660000
30
0.0
11
773.764083
21
421.660000
31
0.0
0
SOLID
8
DIM
10
757.864083
20
421.660000
30
0.0
11
761.064083
21
421.052000
31
0.0
12
761.064083
22
422.268000
32
0.0
13
761.064083
23
422.268000
33
0.0
0
SOLID
8
DIM
10
773.764083
20
421.660000
30
0.0
11
770.564083
21
422.268000
31
0.0
12
770.564083
22
421.052000
32
0.0
13
770.564083
23
421.052000
33
0.0
0
TEXT
8
TEXT
10
765.814083
20
422.660000
30
0.0
40
3.5000
1
7.95
72
1
73
0
11
765.814083
21
422.660000
31
0.0
0
LINE
8
DIM
10
756.664083
20
433.660000
30
0.0
11
743.864083
21
433.660000
31
0.0
0
LINE
8
DIM
10
756.664083
20
549.660000
30
0.0
11
743.864083
21
549.660000
31
0.0
0
LINE
8
DIM
10
745.864083
20
433.660000
30
0.0
11
745.864083
21
549.660000
31
0.0
0
SOLID
8
DIM
10
745.864083
20
433.660000
30
0.0
11
746.472083
21
436.860000
31
0.0
12
745.256083
22
436.860000
32
0.0
13
745.256083
23
436.860000
33
0.0
0
SOLID
8
DIM
10
745.864083
20
549.660000
30
0.0
11
745.256083
21
546.460000
31
0.0
12
746.472083
22
546.460000
32
0.0
13
746.472083
23
546.460000
33
0.0
0
TEXT
8
TEXT
10
744.864083
20
491.660000
30
0.0
40
3.5000
1
58.00
50
90.0000
72
1
73
0
11
744.864083
21
491.660000
31
0.0
0
TEXT
8
TEXT
10
765.814083
20
409.660000
30
0.0
40
5.0000
1
FRONT VIEW
72
1
73
0
11
765.814083
21
409.660000
31
0.0
0
LINE
8
TEXT
10
750.814083
20
408.060000
30
0.0
11
780.814083
21
408.060000
31
0.0
0
TEXT
8
TEXT
10
765.814083
20
403.660000
30
0.0
40
3.5000
1
-X →   Z ↑
72
1
73
0
11
765.814083
21
403.660000
31
0.0
0
LINE
8
DIM
10
384.079250
20
622.460000
30
0.0
11
384.079250
21
609.660000
31
0.0
0
LINE
8
DIM
10
399.979250
20
622.460000
30
0.0
11
399.979250
21
609.660000
31
0.0
0
LINE
8
DIM
10
384.079250
20
611.660000
30
0.0
11
399.979250
21
611.660000
31
0.0
0
SOLID
8
DIM
10
384.079250
20
611.660000
30
0.0
11
387.279250
21
611.052000
31
0.0
12
387.279250
22
612.268000
32
0.0
13
387.279250
23
612.268000
33
0.0
0
SOLID
8
DIM
10
399.979250
20
611.660000
30
0.0
11
396.779250
21
612.268000
31
0.0
12
396.779250
22
611.052000
32
0.0
13
396.779250
23
611.052000
33
0.0
0
TEXT
8
TEXT
10
392.029250
20
612.660000
30
0.0
40
3.5000
1
7.95
72
1
73
0
11
392.029250
21
612.660000
31
0.0
0
LINE
8
DIM
10
382.879250
20
623.660000
30
0.0
11
370.079250
21
623.660000
31
0.0
0
LINE
8
DIM
10
382.879250
20
734.211592
30
0.0
11
370.079250
21
734.211592
31
0.0
0
LINE
8
DIM
10
372.079250
20
623.660000
30
0.0
11
372.079250
21
734.211592
31
0.0
0
SOLID
8
DIM
10
372.079250
20
623.660000
30
0.0
11
372.687250
21
626.860000
31
0.0
12
371.471250
22
626.860000
32
0.0
13
371.471250
23
626.860000
33
0.0
0
SOLID
8
DIM
10
372.079250
20
734.211592
30
0.0
11
371.471250
21
731.011592
31
0.0
12
372.687250
22
731.011592
32
0.0
13
372.687250
23
731.011592
33
0.0
0
TEXT
8
TEXT
10
371.079250
20
678.935796
30
0.0
40
3.5000
1
55.28
50
90.0000
72
1
73
0
11
371.079250
21
678.935796
31
0.0
0
LINE
8
HATCH
10
393.579247
20
729.030462
30
0.0
11
393.579250
21
729.030465
31
0.0
0
LINE
8
HATCH
10
387.136606
20
726.830462
30
0.0
11
393.579250
21
733.273105
31
0.0
0
LINE
8
HATCH
10
384.079250
20
728.015746
30
0.0
11
385.654073
21
729.590569
31
0.0
0
LINE
8
HATCH
10
387.979250
20
731.915746
30
0.0
11
390.275096
21
734.211592
31
0.0
0
LINE
8
HATCH
10
399.979247
20
626.854112
30
0.0
11
399.979250
21
626.854115
31
0.0
0
LINE
8
HATCH
10
392.542495
20
623.660000
30
0.0
11
393.579250
21
624.696755
31
0.0
0
LINE
8
HATCH
10
395.736606
20
626.854112
30
0.0
11
399.979250
21
631.096755
31
0.0
0
LINE
8
HATCH
10
388.979250
20
624.339396
30
0.0
11
399.979250
21
635.339396
31
0.0
0
LINE
8
HATCH
10
387.979250
20
627.582037
30
0.0
11
397.832025
21
637.434812
31
0.0
0
LINE
8
HATCH
10
387.979250
20
631.824677
30
0.0
11
393.589385
21
637.434812
31
0.0
0
LINE
8
HATCH
10
387.979250
20
636.067318
30
0.0
11
393.579250
21
641.667318
31
0.0
0
LINE
8
HATCH
10
388.979250
20
641.309959
30
0.0
11
393.579250
21
645.909959
31
0.0
0
LINE
8
HATCH
10
388.979250
20
645.552599
30
0.0
11
393.579250
21
650.152599
31
0.0
0
LINE
8
HATCH
10
388.979250
20
649.795240
30
0.0
11
393.579250
21
654.395240
31
0.0
0
LINE
8
HATCH
10
397.164149
20
657.980139
30
0.0
11
398.579250
21
659.395240
31
0.0
0
LINE
8
HATCH
10
388.979250
20
654.037881
30
0.0
11
398.579250
21
663.637881
31
0.0
0
LINE
8
HATCH
10
388.979250
20
658.280522
30
0.0
11
398.579250
21
667.880522
31
0.0
0
LINE
8
HATCH
10
388.979250
20
662.523162
30
0.0
11
398.579250
21
672.123162
31
0.0
0
LINE
8
HATCH
10
388.979250
20
666.765803
30
0.0
11
398.579250
21
676.365803
31
0.0
0
LINE
8
HATCH
10
388.979250
20
671.008444
30
0.0
11
398.579250
21
680.608444
31
0.0
0
LINE
8
HATCH
10
388.979250
20
675.251084
30
0.0
11
398.579250
21
684.851084
31
0.0
0
LINE
8
HATCH
10
388.979250
20
679.493725
30
0.0
11
398.579250
21
689.093725
31
0.0
0
LINE
8
HATCH
10
384.833346
20
679.590462
30
0.0
11
398.579250
21
693.336366
31
0.0
0
LINE
8
HATCH
10
384.079250
20
683.079006
30
0.0
11
398.579250
21
697.579006
31
0.0
0
LINE
8
HATCH
10
384.079250
20
687.321647
30
0.0
11
387.348065
21
690.590462
31
0.0
0
LINE
8
HATCH
10
388.979250
20
692.221647
30
0.0
11
398.579250
21
701.821647
31
0.0
0
LINE
8
HATCH
10
388.979250
20
696.464288
30
0.0
11
395.773424
21
703.258462
31
0.0
0
LINE
8
HATCH
10
387.979250
20
699.706928
30
0.0
11
391.530784
21
703.258462
31
0.0
0
LINE
8
HATCH
10
386.728035
20
702.698355
30
0.0
11
389.488143
21
705.458462
31
0.0
0
LINE
8
HATCH
10
384.079250
20
704.292210
30
0.0
11
385.245502
21
705.458462
31
0.0
0
LINE
8
HATCH
10
398.579247
20
712.058462
30
0.0
11
398.579250
21
712.058465
31
0.0
0
LINE
8
HATCH
10
394.336606
20
712.058462
30
0.0
11
398.579250
21
716.301105
31
0.0
0
LINE
8
HATCH
10
387.893966
20
709.858462
30
0.0
11
389.599250
21
711.563746
31
0.0
0
LINE
8
HATCH
10
390.093966
20
712.058462
30
0.0
11
398.265966
21
720.230462
31
0.0
0
LINE
8
HATCH
10
384.079250
20
710.286387
30
0.0
11
394.023325
21
720.230462
31
0.0
0
LINE
8
HATCH
10
384.079250
20
714.529028
30
0.0
11
389.780684
21
720.230462
31
0.0
0
LINE
8
HATCH
10
384.079250
20
718.771668
30
0.0
11
387.738044
21
722.430462
31
0.0
0
LINE
8
DIM
10
389.121751
20
726.830462
30
0.0
11
410.979250
21
726.830462
31
0.0
0
LINE
8
DIM
10
389.121751
20
729.590569
30
0.0
11
410.979250
21
729.590569
31
0.0
0
LINE
8
DIM
10
408.979250
20
726.830462
30
0.0
11
408.979250
21
729.590569
31
0.0
0
SOLID
8
DIM
10
408.979250
20
726.830462
30
0.0
11
408.371250
21
723.630462
31
0.0
12
409.587250
22
723.630462
32
0.0
13
409.587250
23
723.630462
33
0.0
0
SOLID
8
DIM
10
408.979250
20
729.590569
30
0.0
11
409.587250
21
732.790569
31
0.0
12
408.371250
22
732.790569
32
0.0
13
408.371250
23
732.790569
33
0.0
0
LINE
8
DIM
10
408.979250
20
729.590569
30
0.0
11
408.979250
21
739.190569
31
0.0
0
TEXT
8
TEXT
10
407.979250
20
739.990569
30
0.0
40
3.5000
1
1.38 WALL
50
90.0000
0
LINE
8
DIM
10
388.979250
20
625.781265
30
0.0
11
388.979250
21
764.211592
31
0.0
0
LINE
8
DIM
10
393.579250
20
625.781265
30
0.0
11
393.579250
21
764.211592
31
0.0
0
LINE
8
DIM
10
388.979250
20
762.211592
30
0.0
11
393.579250
21
762.211592
31
0.0
0
SOLID
8
DIM
10
388.979250
20
762.211592
30
0.0
11
385.779250
21
762.819592
31
0.0
12
385.779250
22
761.603592
32
0.0
13
385.779250
23
761.603592
33
0.0
0
SOLID
8
DIM
10
393.579250
20
762.211592
30
0.0
11
396.779250
21
761.603592
31
0.0
12
396.779250
22
762.819592
32
0.0
13
396.779250
23
762.819592
33
0.0
0
LINE
8
DIM
10
393.579250
20
762.211592
30
0.0
11
403.179250
21
762.211592
31
0.0
0
TEXT
8
TEXT
10
403.979250
20
762.611592
30
0.0
40
3.5000
1
2.30 WALL
0
TEXT
8
TEXT
10
392.029250
20
599.660000
30
0.0
40
5.0000
1
SECTION A-A
72
1
73
0
11
392.029250
21
599.660000
31
0.0
0
LINE
8
TEXT
10
375.529250
20
598.060000
30
0.0
11
408.529250
21
598.060000
31
0.0
0
LINE
8
CENTER
10
326.934677
20
117.000000
30
0.0
11
338.334677
21
117.000000
31
0.0
0
LINE
8
CENTER
10
340.734677
20
117.000000
30
0.0
11
352.134677
21
117.000000
31
0.0
0
LINE
8
CENTER
10
339.534677
20
104.400000
30
0.0
11
339.534677
21
115.800000
31
0.0
0
LINE
8
CENTER
10
339.534677
20
118.200000
30
0.0
11
339.534677
21
129.600000
31
0.0
0
TEXT
8
TEXT
10
339.534677
20
139.000000
30
0.0
40
5.0000
1
DETAIL A
72
1
73
0
11
339.534677
21
139.000000
31
0.0
0
LINE
8
TEXT
10
327.534677
20
137.400000
30
0.0
11
351.534677
21
137.400000
31
0.0
0
TEXT
8
TEXT
10
339.534677
20
145.500000
30
0.0
40
3.5000
1
SCALE 4:1
72
1
73
0
11
339.534677
21
145.500000
31
0.0
0
SOLID
8
DIM
10
339.534677
20
97.000000
30
0.0
11
338.926677
21
93.800000
31
0.0
12
340.142677
22
93.800000
32
0.0
13
340.142677
23
93.800000
33
0.0
0
LINE
8
DIM
10
339.534677
20
97.000000
30
0.0
11
339.534677
21
87.000000
31
0.0
0
LINE
8
DIM
10
339.534677
20
87.000000
30
0.0
11
342.534677
21
87.000000
31
0.0
0
TEXT
8
TEXT
10
343.334677
20
88.000000
30
0.0
40
3.5000
1
R5.00
0
SOLID
8
DIM
10
339.534677
20
101.000000
30
0.0
11
340.336020
21
97.842863
31
0.0
12
341.438091
22
98.356767
32
0.0
13
341.438091
23
98.356767
33
0.0
0
LINE
8
DIM
10
339.534677
20
101.000000
30
0.0
11
343.760860
21
91.936922
31
0.0
0
LINE
8
DIM
10
343.760860
20
91.936922
30
0.0
11
346.760860
21
91.936922
31
0.0
0
TEXT
8
TEXT
10
347.560860
20
92.936922
30
0.0
40
3.5000
1
R4.00
0
SOLID
8
DIM
10
339.534677
20
106.000000
30
0.0
11
340.336020
21
102.842863
31
0.0
12
341.438091
22
103.356767
32
0.0
13
341.438091
23
103.356767
33
0.0
0
LINE
8
DIM
10
339.534677
20
106.000000
30
0.0
11
343.760860
21
96.936922
31
0.0
0
LINE
8
DIM
10
343.760860
20
96.936922
30
0.0
11
346.760860
21
96.936922
31
0.0
0
TEXT
8
TEXT
10
347.560860
20
97.936922
30
0.0
40
3.5000
1
R2.75
0
SOLID
8
DIM
10
339.534677
20
107.160000
30
0.0
11
337.631264
21
104.516767
31
0.0
12
338.733334
22
104.002863
32
0.0
13
338.733334
23
104.002863
33
0.0
0
LINE
8
DIM
10
339.534677
20
107.160000
30
0.0
11
335.308494
21
98.096922
31
0.0
0
LINE
8
DIM
10
335.308494
20
98.096922
30
0.0
11
332.308494
21
98.096922
31
0.0
0
TEXT
8
TEXT
10
331.508494
20
99.096922
30
0.0
40
3.5000
1
R2.46
72
2
73
0
11
331.508494
21
99.096922
31
0.0
0
SOLID
8
DIM
10
339.534677
20
111.600000
30
0.0
11
340.336020
21
108.442863
31
0.0
12
341.438091
22
108.956767
32
0.0
13
341.438091
23
108.956767
33
0.0
0
LINE
8
DIM
10
339.534677
20
111.600000
30
0.0
11
343.760860
21
102.536922
31
0.0
0
LINE
8
DIM
10
343.760860
20
102.536922
30
0.0
11
346.760860
21
102.536922
31
0.0
0
TEXT
8
TEXT
10
347.560860
20
103.536922
30
0.0
40
3.5000
1
R1.35
0
LINE
8
CENTER
10
694.117797
20
147.680000
30
0.0
11
704.197797
21
147.680000
31
0.0
0
LINE
8
CENTER
10
706.597797
20
147.680000
30
0.0
11
716.677797
21
147.680000
31
0.0
0
LINE
8
CENTER
10
705.397797
20
136.400000
30
0.0
11
705.397797
21
146.480000
31
0.0
0
LINE
8
CENTER
10
705.397797
20
148.880000
30
0.0
11
705.397797
21
158.960000
31
0.0
0
LINE
8
CENTER
10
758.117797
20
147.680000
30
0.0
11
768.197797
21
147.680000
31
0.0
0
LINE
8
CENTER
10
770.597797
20
147.680000
30
0.0
11
780.677797
21
147.680000
31
0.0
0
LINE
8
CENTER
10
769.397797
20
136.400000
30
0.0
11
769.397797
21
146.480000
31
0.0
0
LINE
8
CENTER
10
769.397797
20
148.880000
30
0.0
11
769.397797
21
158.960000
31
0.0
0
TEXT
8
TEXT
10
737.397797
20
200.360000
30
0.0
40
5.0000
1
DETAIL B
72
1
73
0
11
737.397797
21
200.360000
31
0.0
0
LINE
8
TEXT
10
725.397797
20
198.760000
30
0.0
11
749.397797
21
198.760000
31
0.0
0
TEXT
8
TEXT
10
737.397797
20
206.860000
30
0.0
40
3.5000
1
SCALE 4:1
72
1
73
0
11
737.397797
21
206.860000
31
0.0
0
SOLID
8
DIM
10
737.397797
20
193.880000
30
0.0
11
734.351990
21
195.034437
31
0.0
12
734.140834
22
193.836911
32
0.0
13
734.140834
23
193.836911
33
0.0
0
LINE
8
DIM
10
737.397797
20
193.880000
30
0.0
11
727.549719
21
195.616482
31
0.0
0
LINE
8
DIM
10
727.549719
20
195.616482
30
0.0
11
724.549719
21
195.616482
31
0.0
0
TEXT
8
TEXT
10
723.749719
20
196.616482
30
0.0
40
3.5000
1
R7.95
72
2
73
0
11
723.749719
21
196.616482
31
0.0
0
SOLID
8
DIM
10
700.873060
20
156.237404
30
0.0
11
701.657970
21
159.398666
31
0.0
12
700.443849
22
159.466249
32
0.0
13
700.443849
23
159.466249
33
0.0
0
LINE
8
DIM
10
700.873060
20
156.237404
30
0.0
11
701.428840
21
166.221947
31
0.0
0
LINE
8
DIM
10
701.428840
20
166.221947
30
0.0
11
704.428840
21
166.221947
31
0.0
0
TEXT
8
TEXT
10
705.228840
20
167.221947
30
0.0
40
3.5000
1
R2.42
0
SOLID
8
DIM
10
774.197797
20
147.680000
30
0.0
11
775.352234
21
150.725807
31
0.0
12
774.154708
22
150.936963
32
0.0
13
774.154708
23
150.936963
33
0.0
0
LINE
8
DIM
10
774.197797
20
147.680000
30
0.0
11
775.934279
21
157.528078
31
0.0
0
LINE
8
DIM
10
775.934279
20
157.528078
30
0.0
11
778.934279
21
157.528078
31
0.0
0
TEXT
8
TEXT
10
779.734279
20
158.528078
30
0.0
40
3.5000
1
R1.20
0
LINE
8
CENTER
10
1092.873297
20
155.774033
30
0.0
11
1102.073297
21
155.774033
31
0.0
0
LINE
8
CENTER
10
1104.473297
20
155.774033
30
0.0
11
1113.673297
21
155.774033
31
0.0
0
LINE
8
CENTER
10
1103.273297
20
145.374033
30
0.0
11
1103.273297
21
154.574033
31
0.0
0
LINE
8
CENTER
10
1103.273297
20
156.974033
30
0.0
11
1103.273297
21
166.174033
31
0.0
0
LINE
8
CENTER
10
1126.817297
20
155.774033
30
0.0
11
1136.017297
21
155.774033
31
0.0
0
LINE
8
CENTER
10
1138.417297
20
155.774033
30
0.0
11
1147.617297
21
155.774033
31
0.0
0
LINE
8
CENTER
10
1137.217297
20
145.374033
30
0.0
11
1137.217297
21
154.574033
31
0.0
0
LINE
8
CENTER
10
1137.217297
20
156.974033
30
0.0
11
1137.217297
21
166.174033
31
0.0
0
LINE
8
CENTER
10
1106.645297
20
138.802033
30
0.0
11
1119.045297
21
138.802033
31
0.0
0
LINE
8
CENTER
10
1121.445297
20
138.802033
30
0.0
11
1133.845297
21
138.802033
31
0.0
0
LINE
8
CENTER
10
1120.245297
20
125.202033
30
0.0
11
1120.245297
21
137.602033
31
0.0
0
LINE
8
CENTER
10
1120.245297
20
140.002033
30
0.0
11
1120.245297
21
152.402033
31
0.0
0
LINE
8
CENTER
10
1092.873297
20
121.830033
30
0.0
11
1102.073297
21
121.830033
31
0.0
0
LINE
8
CENTER
10
1104.473297
20
121.830033
30
0.0
11
1113.673297
21
121.830033
31
0.0
0
LINE
8
CENTER
10
1103.273297
20
111.430033
30
0.0
11
1103.273297
21
120.630033
31
0.0
0
LINE
8
CENTER
10
1103.273297
20
123.030033
30
0.0
11
1103.273297
21
132.230033
31
0.0
0
LINE
8
CENTER
10
1126.817297
20
121.830033
30
0.0
11
1136.017297
21
121.830033
31
0.0
0
LINE
8
CENTER
10
1138.417297
20
121.830033
30
0.0
11
1147.617297
21
121.830033
31
0.0
0
LINE
8
CENTER
10
1137.217297
20
111.430033
30
0.0
11
1137.217297
21
120.630033
31
0.0
0
LINE
8
CENTER
10
1137.217297
20
123.030033
30
0.0
11
1137.217297
21
132.230033
31
0.0
0
TEXT
8
TEXT
10
1120.245297
20
182.604065
30
0.0
40
5.0000
1
DETAIL C
72
1
73
0
11
1120.245297
21
182.604065
31
0.0
0
LINE
8
TEXT
10
1108.245297
20
181.004065
30
0.0
11
1132.245297
21
181.004065
31
0.0
0
TEXT
8
TEXT
10
1120.245297
20
189.104065
30
0.0
40
3.5000
1
SCALE 4:1
72
1
73
0
11
1120.245297
21
189.104065
31
0.0
0
SOLID
8
DIM
10
1120.245297
20
107.002033
30
0.0
11
1119.637297
21
103.802033
31
0.0
12
1120.853297
22
103.802033
32
0.0
13
1120.853297
23
103.802033
33
0.0
0
LINE
8
DIM
10
1120.245297
20
107.002033
30
0.0
11
1120.245297
21
97.002033
31
0.0
0
LINE
8
DIM
10
1120.245297
20
97.002033
30
0.0
11
1123.245297
21
97.002033
31
0.0
0
TEXT
8
TEXT
10
1124.045297
20
98.002033
30
0.0
40
3.5000
1
R7.95
0
SOLID
8
DIM
10
1120.245297
20
126.802033
30
0.0
11
1119.637297
21
123.602033
31
0.0
12
1120.853297
22
123.602033
32
0.0
13
1120.853297
23
123.602033
33
0.0
0
LINE
8
DIM
10
1120.245297
20
126.802033
30
0.0
11
1120.245297
21
116.802033
31
0.0
0
LINE
8
DIM
10
1120.245297
20
116.802033
30
0.0
11
1123.245297
21
116.802033
31
0.0
0
TEXT
8
TEXT
10
1124.045297
20
117.802033
30
0.0
40
3.5000
1
R3.00
0
SOLID
8
DIM
10
1094.847051
20
158.311428
30
0.0
11
1092.679690
21
160.742932
31
0.0
12
1091.938943
22
159.778593
32
0.0
13
1091.938943
23
159.778593
33
0.0
0
LINE
8
DIM
10
1094.847051
20
158.311428
30
0.0
11
1086.916630
21
164.403097
31
0.0
0
LINE
8
DIM
10
1086.916630
20
164.403097
30
0.0
11
1083.916630
21
164.403097
31
0.0
0
TEXT
8
TEXT
10
1083.116630
20
165.403097
30
0.0
40
3.5000
1
R2.20
72
2
73
0
11
1083.116630
21
165.403097
31
0.0
0
SOLID
8
DIM
10
1103.273297
20
117.430033
30
0.0
11
1100.807135
21
115.302191
31
0.0
12
1101.759396
22
114.545979
32
0.0
13
1101.759396
23
114.545979
33
0.0
0
LINE
8
DIM
10
1103.273297
20
117.430033
30
0.0
11
1097.054449
21
109.598945
31
0.0
0
LINE
8
DIM
10
1097.054449
20
109.598945
30
0.0
11
1094.054449
21
109.598945
31
0.0
0
TEXT
8
TEXT
10
1093.254449
20
110.598945
30
0.0
40
3.5000
1
R1.10
72
2
73
0
11
1093.254449
21
110.598945
31
0.0
0
LINE
8
CUT
10
400.515250
20
424.660000
30
0.0
11
400.515250
21
438.660000
31
0.0
0
LINE
8
CUTTHIN
10
400.515250
20
438.660000
30
0.0
11
400.515250
21
544.660000
31
0.0
0
LINE
8
CUT
10
400.515250
20
544.660000
30
0.0
11
400.515250
21
558.660000
31
0.0
0
LINE
8
CUT
10
400.515250
20
424.660000
30
0.0
11
409.515250
21
424.660000
31
0.0
0
SOLID
8
CUT
10
409.515250
20
424.660000
30
0.0
11
405.315250
21
425.458000
31
0.0
12
405.315250
22
423.862000
32
0.0
13
405.315250
23
423.862000
33
0.0
0
TEXT
8
TEXT
10
395.515250
20
424.660000
30
0.0
40
5.0000
1
A
72
1
73
2
11
395.515250
21
424.660000
31
0.0
0
LINE
8
CUT
10
400.515250
20
558.660000
30
0.0
11
409.515250
21
558.660000
31
0.0
0
SOLID
8
CUT
10
409.515250
20
558.660000
30
0.0
11
405.315250
21
559.458000
31
0.0
12
405.315250
22
557.862000
32
0.0
13
405.315250
23
557.862000
33
0.0
0
TEXT
8
TEXT
10
395.515250
20
558.660000
30
0.0
40
5.0000
1
A
72
1
73
2
11
395.515250
21
558.660000
31
0.0
0
TEXT
8
TEXT
10
1075.640000
20
620.160000
30
0.0
40
4.5000
1
HOLE TABLE — 8 POSITIONS
0
LINE
8
TITLE
10
1075.640000
20
617.660000
30
0.0
11
1166.240000
21
617.660000
31
0.0
0
TEXT
8
TITLE
10
1077.140000
20
612.785000
30
0.0
40
3.5000
1
TAG
0
TEXT
8
TITLE
10
1086.440000
20
612.785000
30
0.0
40
3.5000
1
SIZE
0
TEXT
8
TITLE
10
1110.440000
20
612.785000
30
0.0
40
3.5000
1
Y
0
TEXT
8
TITLE
10
1123.940000
20
612.785000
30
0.0
40
3.5000
1
Z
0
TEXT
8
TITLE
10
1137.440000
20
612.785000
30
0.0
40
3.5000
1
C'BORE
0
LINE
8
TITLE
10
1075.640000
20
611.185000
30
0.0
11
1166.240000
21
611.185000
31
0.0
0
TEXT
8
TEXT
10
1077.140000
20
606.310000
30
0.0
40
3.5000
1
A1
0
TEXT
8
TEXT
10
1086.440000
20
606.310000
30
0.0
40
3.5000
1
Ø2.20 THRU
0
TEXT
8
TEXT
10
1110.440000
20
606.310000
30
0.0
40
3.5000
1
26.24
0
TEXT
8
TEXT
10
1123.940000
20
606.310000
30
0.0
40
3.5000
1
40.02
0
TEXT
8
TEXT
10
1137.440000
20
606.310000
30
0.0
40
3.5000
1
Ø4.40x4.49 +X
0
TEXT
8
TEXT
10
1077.140000
20
599.835000
30
0.0
40
3.5000
1
A2
0
TEXT
8
TEXT
10
1086.440000
20
599.835000
30
0.0
40
3.5000
1
Ø2.20 THRU
0
TEXT
8
TEXT
10
1110.440000
20
599.835000
30
0.0
40
3.5000
1
17.76
0
TEXT
8
TEXT
10
1123.940000
20
599.835000
30
0.0
40
3.5000
1
40.02
0
TEXT
8
TEXT
10
1137.440000
20
599.835000
30
0.0
40
3.5000
1
Ø4.40x4.49 +X
0
TEXT
8
TEXT
10
1077.140000
20
593.360000
30
0.0
40
3.5000
1
A3
0
TEXT
8
TEXT
10
1086.440000
20
593.360000
30
0.0
40
3.5000
1
Ø6.00 THRU
0
TEXT
8
TEXT
10
1110.440000
20
593.360000
30
0.0
40
3.5000
1
22.00
0
TEXT
8
TEXT
10
1123.940000
20
593.360000
30
0.0
40
3.5000
1
35.78
0
TEXT
8
TEXT
10
1137.440000
20
593.360000
30
0.0
40
3.5000
1
-
0
TEXT
8
TEXT
10
1077.140000
20
586.885000
30
0.0
40
3.5000
1
A4
0
TEXT
8
TEXT
10
1086.440000
20
586.885000
30
0.0
40
3.5000
1
Ø2.20 THRU
0
TEXT
8
TEXT
10
1110.440000
20
586.885000
30
0.0
40
3.5000
1
26.24
0
TEXT
8
TEXT
10
1123.940000
20
586.885000
30
0.0
40
3.5000
1
31.53
0
TEXT
8
TEXT
10
1137.440000
20
586.885000
30
0.0
40
3.5000
1
Ø4.40x4.49 +X
0
TEXT
8
TEXT
10
1077.140000
20
580.410000
30
0.0
40
3.5000
1
A5
0
TEXT
8
TEXT
10
1086.440000
20
580.410000
30
0.0
40
3.5000
1
Ø2.20 THRU
0
TEXT
8
TEXT
10
1110.440000
20
580.410000
30
0.0
40
3.5000
1
17.76
0
TEXT
8
TEXT
10
1123.940000
20
580.410000
30
0.0
40
3.5000
1
31.53
0
TEXT
8
TEXT
10
1137.440000
20
580.410000
30
0.0
40
3.5000
1
Ø4.40x4.49 +X
0
TEXT
8
TEXT
10
1077.140000
20
573.935000
30
0.0
40
3.5000
1
A6
0
TEXT
8
TEXT
10
1086.440000
20
573.935000
30
0.0
40
3.5000
1
Ø2.40 THRU
0
TEXT
8
TEXT
10
1110.440000
20
573.935000
30
0.0
40
3.5000
1
30.00
0
TEXT
8
TEXT
10
1123.940000
20
573.935000
30
0.0
40
3.5000
1
16.28
0
TEXT
8
TEXT
10
1137.440000
20
573.935000
30
0.0
40
3.5000
1
Ø4.84x3.00 +X
0
TEXT
8
TEXT
10
1077.140000
20
567.460000
30
0.0
40
3.5000
1
A7
0
TEXT
8
TEXT
10
1086.440000
20
567.460000
30
0.0
40
3.5000
1
Ø2.40 THRU
0
TEXT
8
TEXT
10
1110.440000
20
567.460000
30
0.0
40
3.5000
1
14.00
0
TEXT
8
TEXT
10
1123.940000
20
567.460000
30
0.0
40
3.5000
1
16.28
0
TEXT
8
TEXT
10
1137.440000
20
567.460000
30
0.0
40
3.5000
1
Ø4.84x3.00 +X
0
TEXT
8
TEXT
10
1077.140000
20
560.985000
30
0.0
40
3.5000
1
A8
0
TEXT
8
TEXT
10
1086.440000
20
560.985000
30
0.0
40
3.5000
1
Ø2.70 THRU
0
TEXT
8
TEXT
10
1110.440000
20
560.985000
30
0.0
40
3.5000
1
22.00
0
TEXT
8
TEXT
10
1123.940000
20
560.985000
30
0.0
40
3.5000
1
-6.22
0
TEXT
8
TEXT
10
1137.440000
20
560.985000
30
0.0
40
3.5000
1
Ø5.50x3.49 -X
0
LINE
8
TITLE
10
1075.640000
20
559.385000
30
0.0
11
1166.240000
21
559.385000
31
0.0
0
LINE
8
TITLE
10
1084.940000
20
559.385000
30
0.0
11
1084.940000
21
617.660000
31
0.0
0
LINE
8
TITLE
10
1108.940000
20
559.385000
30
0.0
11
1108.940000
21
617.660000
31
0.0
0
LINE
8
TITLE
10
1122.440000
20
559.385000
30
0.0
11
1122.440000
21
617.660000
31
0.0
0
LINE
8
TITLE
10
1135.940000
20
559.385000
30
0.0
11
1135.940000
21
617.660000
31
0.0
0
LINE
8
TITLE
10
1166.240000
20
559.385000
30
0.0
11
1166.240000
21
617.660000
31
0.0
0
LINE
8
TITLE
10
1075.640000
20
559.385000
30
0.0
11
1075.640000
21
617.660000
31
0.0
0
TEXT
8
TITLE
10
1075.640000
20
555.385000
30
0.0
40
3.5000
1
every row measured off the solid; positions are model
0
TEXT
8
TITLE
10
1075.640000
20
550.135000
30
0.0
40
3.5000
1
coordinates, mm. C'BORE side is the face it opens on;
0
TEXT
8
TITLE
10
1075.640000
20
544.885000
30
0.0
40
3.5000
1
INT = centred in the bore, opening on neither face.
0
TEXT
8
TEXT
10
13.000000
20
548.660000
30
0.0
40
7.0000
1
MICRODUCK SHIN
0
TEXT
8
TEXT
10
13.000000
20
540.160000
30
0.0
40
3.5000
1
2:1
0
TEXT
8
TEXT
10
13.000000
20
535.160000
30
0.0
40
3.5000
1
A0 / THIRD ANGLE / mm
0
TEXT
8
TEXT
10
13.000000
20
530.160000
30
0.0
40
3.5000
1
7.95 x 20.00 x 58.00
0
TEXT
8
TEXT
10
13.000000
20
525.160000
30
0.0
40
3.5000
1
3.39 cm3
0
TEXT
8
TEXT
10
13.000000
20
520.160000
30
0.0
40
3.5000
1
CAD SOURCE: part:microduck-shin
0
TEXT
8
TEXT
10
13.000000
20
515.160000
30
0.0
40
3.5000
1
DATUM: XYZ MINIMUM ENCLOSING PLANES
0
TEXT
8
TEXT
10
13.000000
20
510.160000
30
0.0
40
3.5000
1
XYZ origin mm: 32.5000, 12.0000, -12.2230
0
TEXT
8
TEXT
10
13.000000
20
505.160000
30
0.0
40
3.5000
1
GENERAL TOLERANCE CANNOT DETERMINE — SEE PRINT / DFM NOTES UNLESS STATED.
0
TEXT
8
TEXT
10
13.000000
20
500.160000
30
0.0
40
3.5000
1
DRAFT — NOT RELEASED
0
TEXT
8
TEXT
10
480.600000
20
508.660000
30
0.0
40
3.5000
1
PRINT / DFM
0
TEXT
8
TEXT
10
480.600000
20
501.660000
30
0.0
40
3.5000
1
ORIENTATION: upright, Z-up (8 x 20 x 58 mm)
0
TEXT
8
TEXT
10
480.600000
20
496.660000
30
0.0
40
3.5000
1
THINNEST WALL, WHOLE SOLID (RAY MINIMUM): 0.0280 mm — a
0
TEXT
8
TEXT
10
480.600000
20
491.660000
30
0.0
40
3.5000
1
distance through material, NOT a printable wall where it
0
TEXT
8
TEXT
10
480.600000
20
486.660000
30
0.0
40
3.5000
1
falls on an edge, a fillet run-out or a chamfer tip.
0
TEXT
8
TEXT
10
480.600000
20
481.660000
30
0.0
40
3.5000
1
Printability is judged on the next line.
0
TEXT
8
TEXT
10
480.600000
20
476.660000
30
0.0
40
3.5000
1
PRINTABLE MINIMUM WALL: 1.0000 mm (smallest median wall
0
TEXT
8
TEXT
10
480.600000
20
471.660000
30
0.0
40
3.5000
1
over a 3.1340 mm neighbourhood,
0
TEXT
8
TEXT
10
480.600000
20
466.660000
30
0.0
40
3.5000
1
cecad.inspect.printable_wall_detail) against a 0.8000 mm
0
TEXT
8
TEXT
10
480.600000
20
461.660000
30
0.0
40
3.5000
1
floor (2 perimeters @ 0.4 mm nozzle): VERDICT PASS
0
TEXT
8
TEXT
10
831.300000
20
508.660000
30
0.0
40
3.5000
1
PRINT / DFM
0
TEXT
8
TEXT
10
831.300000
20
501.660000
30
0.0
40
3.5000
1
15 horizontal bore(s) bridge at the crown: ream any
0
TEXT
8
TEXT
10
831.300000
20
496.660000
30
0.0
40
3.5000
1
bearing or press-fit bore to size
0
TEXT
8
TEXT
10
831.300000
20
491.660000
30
0.0
40
3.5000
1
FILAMENT: PLA, ~4 g (modelled), 290 layers @ 0.2 mm
0
TEXT
8
TEXT
10
13.000000
20
235.000000
30
0.0
40
3.5000
1
SOURCE / PROCESS
0
TEXT
8
TEXT
10
13.000000
20
230.000000
30
0.0
40
3.5000
1
RECREATION MATERIAL: PLA
0
TEXT
8
TEXT
10
13.000000
20
225.000000
30
0.0
40
3.5000
1
PROCESS: FDM
0
TEXT
8
TEXT
10
13.000000
20
220.000000
30
0.0
40
3.5000
1
RECORD: ce-parts/microduck-shin/component.json
0
TEXT
8
TEXT
10
13.000000
20
215.000000
30
0.0
40
3.5000
1
GEOMETRY SOURCE: reference/pollen-microduck-rl/assets/leg.stl
0
TEXT
8
TEXT
10
13.000000
20
210.000000
30
0.0
40
3.5000
1
(Onshape doc 804927696f06d877f3f1803e, exported by onshape-to-robot)
0
TEXT
8
TEXT
10
13.000000
20
205.000000
30
0.0
40
3.5000
1
ORIGINAL MATERIAL / SURFACE FINISH: CANNOT DETERMINE; obtain original
0
TEXT
8
TEXT
10
13.000000
20
200.000000
30
0.0
40
3.5000
1
specification or measure original part.
0
TEXT
8
TEXT
10
13.000000
20
195.000000
30
0.0
40
3.5000
1
FASTENER LENGTH / TORQUE / FIT CLASS: CANNOT DETERMINE; verify
0
TEXT
8
TEXT
10
13.000000
20
190.000000
30
0.0
40
3.5000
1
interface stack and test production coupon.
0
TEXT
8
TEXT
10
13.000000
20
185.000000
30
0.0
40
3.5000
1
KNEE MATE CONTRACT: connection:spline-xl330-horn
0
TEXT
8
TEXT
10
13.000000
20
180.000000
30
0.0
40
3.5000
1
MATING PART: part:xl330-m288-t
0
TEXT
8
TEXT
10
13.000000
20
175.000000
30
0.0
40
3.5000
1
ANKLE MATE CONTRACT: connection:press-fit-bearing-15x10x3
0
TEXT
8
TEXT
10
13.000000
20
170.000000
30
0.0
40
3.5000
1
MATING PART: part:bearing-15x10x3
0
ENDSEC
0
EOF
