0
SECTION
2
HEADER
9
$ACADVER
1
AC1009
9
$INSUNITS
70
4
9
$LTSCALE
40
1.0
9
$EXTMIN
10
0.0000
20
0.0000
30
0.0
9
$EXTMAX
10
1189.0000
20
841.0000
30
0.0
0
ENDSEC
0
SECTION
2
TABLES
0
TABLE
2
LTYPE
70
4
0
LTYPE
2
CONTINUOUS
70
0
3
Solid line
72
65
73
0
40
0.0000
0
LTYPE
2
HIDDEN
70
0
3
Hidden __ __ __ __
72
65
73
2
40
3.6000
49
2.4000
49
-1.2000
0
LTYPE
2
CENTER
70
0
3
Center ____ _ ____ _
72
65
73
4
40
11.2000
49
7.0000
49
-1.4000
49
1.4000
49
-1.4000
0
LTYPE
2
PHANTOM
70
0
3
Phantom ____ _ _ ____
72
65
73
6
40
21.0000
49
11.0000
49
-2.0000
49
2.0000
49
-2.0000
49
2.0000
49
-2.0000
0
ENDTAB
0
TABLE
2
LAYER
70
12
0
LAYER
2
0
70
0
62
7
6
CONTINUOUS
0
LAYER
2
VISIBLE
70
0
62
7
6
CONTINUOUS
0
LAYER
2
SECTION
70
0
62
7
6
CONTINUOUS
0
LAYER
2
HIDDEN
70
0
62
8
6
HIDDEN
0
LAYER
2
CENTER
70
0
62
4
6
CENTER
0
LAYER
2
DIM
70
0
62
3
6
CONTINUOUS
0
LAYER
2
TEXT
70
0
62
3
6
CONTINUOUS
0
LAYER
2
HATCH
70
0
62
5
6
CONTINUOUS
0
LAYER
2
CUT
70
0
62
1
6
PHANTOM
0
LAYER
2
CUTTHIN
70
0
62
1
6
PHANTOM
0
LAYER
2
FRAME
70
0
62
7
6
CONTINUOUS
0
LAYER
2
TITLE
70
0
62
7
6
CONTINUOUS
0
ENDTAB
0
ENDSEC
0
SECTION
2
ENTITIES
0
LINE
8
TITLE
10
5.000000
20
5.000000
30
0.0
11
1184.000000
21
5.000000
31
0.0
0
LINE
8
TITLE
10
1184.000000
20
5.000000
30
0.0
11
1184.000000
21
836.000000
31
0.0
0
LINE
8
TITLE
10
1184.000000
20
836.000000
30
0.0
11
5.000000
21
836.000000
31
0.0
0
LINE
8
TITLE
10
5.000000
20
836.000000
30
0.0
11
5.000000
21
5.000000
31
0.0
0
LINE
8
FRAME
10
10.000000
20
10.000000
30
0.0
11
1179.000000
21
10.000000
31
0.0
0
LINE
8
FRAME
10
1179.000000
20
10.000000
30
0.0
11
1179.000000
21
831.000000
31
0.0
0
LINE
8
FRAME
10
1179.000000
20
831.000000
30
0.0
11
10.000000
21
831.000000
31
0.0
0
LINE
8
FRAME
10
10.000000
20
831.000000
30
0.0
11
10.000000
21
10.000000
31
0.0
0
TEXT
8
TITLE
10
63.136364
20
833.500000
30
0.0
40
3.5000
1
1
72
1
73
2
11
63.136364
21
833.500000
31
0.0
0
TEXT
8
TITLE
10
63.136364
20
7.500000
30
0.0
40
3.5000
1
1
72
1
73
2
11
63.136364
21
7.500000
31
0.0
0
TEXT
8
TITLE
10
169.409091
20
833.500000
30
0.0
40
3.5000
1
2
72
1
73
2
11
169.409091
21
833.500000
31
0.0
0
TEXT
8
TITLE
10
169.409091
20
7.500000
30
0.0
40
3.5000
1
2
72
1
73
2
11
169.409091
21
7.500000
31
0.0
0
LINE
8
TITLE
10
116.272727
20
5.000000
30
0.0
11
116.272727
21
10.000000
31
0.0
0
LINE
8
TITLE
10
116.272727
20
831.000000
30
0.0
11
116.272727
21
836.000000
31
0.0
0
TEXT
8
TITLE
10
275.681818
20
833.500000
30
0.0
40
3.5000
1
3
72
1
73
2
11
275.681818
21
833.500000
31
0.0
0
TEXT
8
TITLE
10
275.681818
20
7.500000
30
0.0
40
3.5000
1
3
72
1
73
2
11
275.681818
21
7.500000
31
0.0
0
LINE
8
TITLE
10
222.545455
20
5.000000
30
0.0
11
222.545455
21
10.000000
31
0.0
0
LINE
8
TITLE
10
222.545455
20
831.000000
30
0.0
11
222.545455
21
836.000000
31
0.0
0
TEXT
8
TITLE
10
381.954545
20
833.500000
30
0.0
40
3.5000
1
4
72
1
73
2
11
381.954545
21
833.500000
31
0.0
0
TEXT
8
TITLE
10
381.954545
20
7.500000
30
0.0
40
3.5000
1
4
72
1
73
2
11
381.954545
21
7.500000
31
0.0
0
LINE
8
TITLE
10
328.818182
20
5.000000
30
0.0
11
328.818182
21
10.000000
31
0.0
0
LINE
8
TITLE
10
328.818182
20
831.000000
30
0.0
11
328.818182
21
836.000000
31
0.0
0
TEXT
8
TITLE
10
488.227273
20
833.500000
30
0.0
40
3.5000
1
5
72
1
73
2
11
488.227273
21
833.500000
31
0.0
0
TEXT
8
TITLE
10
488.227273
20
7.500000
30
0.0
40
3.5000
1
5
72
1
73
2
11
488.227273
21
7.500000
31
0.0
0
LINE
8
TITLE
10
435.090909
20
5.000000
30
0.0
11
435.090909
21
10.000000
31
0.0
0
LINE
8
TITLE
10
435.090909
20
831.000000
30
0.0
11
435.090909
21
836.000000
31
0.0
0
TEXT
8
TITLE
10
594.500000
20
833.500000
30
0.0
40
3.5000
1
6
72
1
73
2
11
594.500000
21
833.500000
31
0.0
0
TEXT
8
TITLE
10
594.500000
20
7.500000
30
0.0
40
3.5000
1
6
72
1
73
2
11
594.500000
21
7.500000
31
0.0
0
LINE
8
TITLE
10
541.363636
20
5.000000
30
0.0
11
541.363636
21
10.000000
31
0.0
0
LINE
8
TITLE
10
541.363636
20
831.000000
30
0.0
11
541.363636
21
836.000000
31
0.0
0
TEXT
8
TITLE
10
700.772727
20
833.500000
30
0.0
40
3.5000
1
7
72
1
73
2
11
700.772727
21
833.500000
31
0.0
0
TEXT
8
TITLE
10
700.772727
20
7.500000
30
0.0
40
3.5000
1
7
72
1
73
2
11
700.772727
21
7.500000
31
0.0
0
LINE
8
TITLE
10
647.636364
20
5.000000
30
0.0
11
647.636364
21
10.000000
31
0.0
0
LINE
8
TITLE
10
647.636364
20
831.000000
30
0.0
11
647.636364
21
836.000000
31
0.0
0
TEXT
8
TITLE
10
807.045455
20
833.500000
30
0.0
40
3.5000
1
8
72
1
73
2
11
807.045455
21
833.500000
31
0.0
0
TEXT
8
TITLE
10
807.045455
20
7.500000
30
0.0
40
3.5000
1
8
72
1
73
2
11
807.045455
21
7.500000
31
0.0
0
LINE
8
TITLE
10
753.909091
20
5.000000
30
0.0
11
753.909091
21
10.000000
31
0.0
0
LINE
8
TITLE
10
753.909091
20
831.000000
30
0.0
11
753.909091
21
836.000000
31
0.0
0
TEXT
8
TITLE
10
913.318182
20
833.500000
30
0.0
40
3.5000
1
9
72
1
73
2
11
913.318182
21
833.500000
31
0.0
0
TEXT
8
TITLE
10
913.318182
20
7.500000
30
0.0
40
3.5000
1
9
72
1
73
2
11
913.318182
21
7.500000
31
0.0
0
LINE
8
TITLE
10
860.181818
20
5.000000
30
0.0
11
860.181818
21
10.000000
31
0.0
0
LINE
8
TITLE
10
860.181818
20
831.000000
30
0.0
11
860.181818
21
836.000000
31
0.0
0
TEXT
8
TITLE
10
1019.590909
20
833.500000
30
0.0
40
3.5000
1
10
72
1
73
2
11
1019.590909
21
833.500000
31
0.0
0
TEXT
8
TITLE
10
1019.590909
20
7.500000
30
0.0
40
3.5000
1
10
72
1
73
2
11
1019.590909
21
7.500000
31
0.0
0
LINE
8
TITLE
10
966.454545
20
5.000000
30
0.0
11
966.454545
21
10.000000
31
0.0
0
LINE
8
TITLE
10
966.454545
20
831.000000
30
0.0
11
966.454545
21
836.000000
31
0.0
0
TEXT
8
TITLE
10
1125.863636
20
833.500000
30
0.0
40
3.5000
1
11
72
1
73
2
11
1125.863636
21
833.500000
31
0.0
0
TEXT
8
TITLE
10
1125.863636
20
7.500000
30
0.0
40
3.5000
1
11
72
1
73
2
11
1125.863636
21
7.500000
31
0.0
0
LINE
8
TITLE
10
1072.727273
20
5.000000
30
0.0
11
1072.727273
21
10.000000
31
0.0
0
LINE
8
TITLE
10
1072.727273
20
831.000000
30
0.0
11
1072.727273
21
836.000000
31
0.0
0
TEXT
8
TITLE
10
7.500000
20
61.312500
30
0.0
40
3.5000
1
H
72
1
73
2
11
7.500000
21
61.312500
31
0.0
0
TEXT
8
TITLE
10
1181.500000
20
61.312500
30
0.0
40
3.5000
1
H
72
1
73
2
11
1181.500000
21
61.312500
31
0.0
0
TEXT
8
TITLE
10
7.500000
20
163.937500
30
0.0
40
3.5000
1
G
72
1
73
2
11
7.500000
21
163.937500
31
0.0
0
TEXT
8
TITLE
10
1181.500000
20
163.937500
30
0.0
40
3.5000
1
G
72
1
73
2
11
1181.500000
21
163.937500
31
0.0
0
LINE
8
TITLE
10
5.000000
20
112.625000
30
0.0
11
10.000000
21
112.625000
31
0.0
0
LINE
8
TITLE
10
1179.000000
20
112.625000
30
0.0
11
1184.000000
21
112.625000
31
0.0
0
TEXT
8
TITLE
10
7.500000
20
266.562500
30
0.0
40
3.5000
1
F
72
1
73
2
11
7.500000
21
266.562500
31
0.0
0
TEXT
8
TITLE
10
1181.500000
20
266.562500
30
0.0
40
3.5000
1
F
72
1
73
2
11
1181.500000
21
266.562500
31
0.0
0
LINE
8
TITLE
10
5.000000
20
215.250000
30
0.0
11
10.000000
21
215.250000
31
0.0
0
LINE
8
TITLE
10
1179.000000
20
215.250000
30
0.0
11
1184.000000
21
215.250000
31
0.0
0
TEXT
8
TITLE
10
7.500000
20
369.187500
30
0.0
40
3.5000
1
E
72
1
73
2
11
7.500000
21
369.187500
31
0.0
0
TEXT
8
TITLE
10
1181.500000
20
369.187500
30
0.0
40
3.5000
1
E
72
1
73
2
11
1181.500000
21
369.187500
31
0.0
0
LINE
8
TITLE
10
5.000000
20
317.875000
30
0.0
11
10.000000
21
317.875000
31
0.0
0
LINE
8
TITLE
10
1179.000000
20
317.875000
30
0.0
11
1184.000000
21
317.875000
31
0.0
0
TEXT
8
TITLE
10
7.500000
20
471.812500
30
0.0
40
3.5000
1
D
72
1
73
2
11
7.500000
21
471.812500
31
0.0
0
TEXT
8
TITLE
10
1181.500000
20
471.812500
30
0.0
40
3.5000
1
D
72
1
73
2
11
1181.500000
21
471.812500
31
0.0
0
LINE
8
TITLE
10
5.000000
20
420.500000
30
0.0
11
10.000000
21
420.500000
31
0.0
0
LINE
8
TITLE
10
1179.000000
20
420.500000
30
0.0
11
1184.000000
21
420.500000
31
0.0
0
TEXT
8
TITLE
10
7.500000
20
574.437500
30
0.0
40
3.5000
1
C
72
1
73
2
11
7.500000
21
574.437500
31
0.0
0
TEXT
8
TITLE
10
1181.500000
20
574.437500
30
0.0
40
3.5000
1
C
72
1
73
2
11
1181.500000
21
574.437500
31
0.0
0
LINE
8
TITLE
10
5.000000
20
523.125000
30
0.0
11
10.000000
21
523.125000
31
0.0
0
LINE
8
TITLE
10
1179.000000
20
523.125000
30
0.0
11
1184.000000
21
523.125000
31
0.0
0
TEXT
8
TITLE
10
7.500000
20
677.062500
30
0.0
40
3.5000
1
B
72
1
73
2
11
7.500000
21
677.062500
31
0.0
0
TEXT
8
TITLE
10
1181.500000
20
677.062500
30
0.0
40
3.5000
1
B
72
1
73
2
11
1181.500000
21
677.062500
31
0.0
0
LINE
8
TITLE
10
5.000000
20
625.750000
30
0.0
11
10.000000
21
625.750000
31
0.0
0
LINE
8
TITLE
10
1179.000000
20
625.750000
30
0.0
11
1184.000000
21
625.750000
31
0.0
0
TEXT
8
TITLE
10
7.500000
20
779.687500
30
0.0
40
3.5000
1
A
72
1
73
2
11
7.500000
21
779.687500
31
0.0
0
TEXT
8
TITLE
10
1181.500000
20
779.687500
30
0.0
40
3.5000
1
A
72
1
73
2
11
1181.500000
21
779.687500
31
0.0
0
LINE
8
TITLE
10
5.000000
20
728.375000
30
0.0
11
10.000000
21
728.375000
31
0.0
0
LINE
8
TITLE
10
1179.000000
20
728.375000
30
0.0
11
1184.000000
21
728.375000
31
0.0
0
LINE
8
VISIBLE
10
530.200000
20
354.786000
30
0.0
11
530.200000
21
373.340000
31
0.0
0
LINE
8
VISIBLE
10
530.200000
20
354.786000
30
0.0
11
570.200000
21
354.786000
31
0.0
0
LINE
8
VISIBLE
10
530.200000
20
373.340000
30
0.0
11
530.371103
21
375.950524
31
0.0
0
LINE
8
VISIBLE
10
570.200000
20
373.340000
30
0.0
11
570.200000
21
354.786000
31
0.0
0
LINE
8
VISIBLE
10
530.371103
20
375.950524
30
0.0
11
530.881483
21
378.516381
31
0.0
0
LINE
8
VISIBLE
10
570.028897
20
375.950524
30
0.0
11
570.200000
21
373.340000
31
0.0
0
LINE
8
VISIBLE
10
530.881483
20
378.516381
30
0.0
11
531.722409
21
380.993669
31
0.0
0
LINE
8
VISIBLE
10
569.518517
20
378.516381
30
0.0
11
570.028897
21
375.950524
31
0.0
0
LINE
8
VISIBLE
10
531.722409
20
380.993669
30
0.0
11
532.879492
21
383.340000
31
0.0
0
LINE
8
VISIBLE
10
568.677591
20
380.993669
30
0.0
11
569.518517
21
378.516381
31
0.0
0
LINE
8
VISIBLE
10
532.879492
20
383.340000
30
0.0
11
534.332933
21
385.515229
31
0.0
0
LINE
8
VISIBLE
10
567.520508
20
383.340000
30
0.0
11
568.677591
21
380.993669
31
0.0
0
LINE
8
VISIBLE
10
534.332933
20
385.515229
30
0.0
11
536.057864
21
387.482136
31
0.0
0
LINE
8
VISIBLE
10
566.067067
20
385.515229
30
0.0
11
567.520508
21
383.340000
31
0.0
0
LINE
8
VISIBLE
10
536.057864
20
387.482136
30
0.0
11
538.024771
21
389.207067
31
0.0
0
LINE
8
VISIBLE
10
564.342136
20
387.482136
30
0.0
11
566.067067
21
385.515229
31
0.0
0
LINE
8
VISIBLE
10
538.024771
20
389.207067
30
0.0
11
540.200000
21
390.660508
31
0.0
0
LINE
8
VISIBLE
10
562.375229
20
389.207067
30
0.0
11
564.342136
21
387.482136
31
0.0
0
LINE
8
VISIBLE
10
540.200000
20
390.660508
30
0.0
11
542.546331
21
391.817591
31
0.0
0
LINE
8
VISIBLE
10
560.200000
20
390.660508
30
0.0
11
562.375229
21
389.207067
31
0.0
0
LINE
8
VISIBLE
10
542.546331
20
391.817591
30
0.0
11
545.023619
21
392.658517
31
0.0
0
LINE
8
VISIBLE
10
557.853669
20
391.817591
30
0.0
11
560.200000
21
390.660508
31
0.0
0
LINE
8
VISIBLE
10
545.023619
20
392.658517
30
0.0
11
547.589476
21
393.168897
31
0.0
0
LINE
8
VISIBLE
10
555.376381
20
392.658517
30
0.0
11
557.853669
21
391.817591
31
0.0
0
LINE
8
VISIBLE
10
547.589476
20
393.168897
30
0.0
11
550.200000
21
393.340000
31
0.0
0
LINE
8
VISIBLE
10
552.810524
20
393.168897
30
0.0
11
555.376381
21
392.658517
31
0.0
0
LINE
8
VISIBLE
10
550.200000
20
393.340000
30
0.0
11
552.810524
21
393.168897
31
0.0
0
CIRCLE
8
VISIBLE
10
550.200000
20
373.340000
30
0.0
40
15.900000
0
CIRCLE
8
VISIBLE
10
541.714000
20
364.854000
30
0.0
40
2.200000
0
CIRCLE
8
VISIBLE
10
541.714000
20
381.826000
30
0.0
40
2.200000
0
CIRCLE
8
VISIBLE
10
558.686000
20
364.854000
30
0.0
40
2.200000
0
CIRCLE
8
VISIBLE
10
550.200000
20
373.340000
30
0.0
40
6.000000
0
CIRCLE
8
VISIBLE
10
558.686000
20
381.826000
30
0.0
40
2.200000
0
ARC
8
VISIBLE
10
566.200000
20
334.340000
30
0.0
40
2.400000
50
294.624318
51
65.375682
0
ARC
8
VISIBLE
10
566.200000
20
334.340000
30
0.0
40
2.400000
50
245.375682
51
294.624318
0
ARC
8
VISIBLE
10
566.200000
20
334.340000
30
0.0
40
2.400000
50
114.624318
51
245.375682
0
LINE
8
VISIBLE
10
545.428361
20
352.934050
30
0.0
11
545.257644
21
352.371271
31
0.0
0
ARC
8
VISIBLE
10
534.200000
20
334.340000
30
0.0
40
2.400000
50
294.624318
51
65.375682
0
ARC
8
VISIBLE
10
534.200000
20
334.340000
30
0.0
40
2.400000
50
245.375682
51
294.624318
0
ARC
8
VISIBLE
10
534.200000
20
334.340000
30
0.0
40
2.400000
50
114.624318
51
245.375682
0
LINE
8
VISIBLE
10
570.200000
20
354.786000
30
0.0
11
570.200000
21
317.786000
31
0.0
0
LINE
8
VISIBLE
10
552.785271
20
354.728356
30
0.0
11
552.200000
21
354.786000
31
0.0
0
LINE
8
VISIBLE
10
570.200000
20
317.786000
30
0.0
11
562.700000
21
289.340000
31
0.0
0
LINE
8
VISIBLE
10
553.348050
20
354.557639
30
0.0
11
552.785271
21
354.728356
31
0.0
0
LINE
8
VISIBLE
10
562.700000
20
289.340000
30
0.0
11
562.200000
21
289.340000
31
0.0
0
LINE
8
VISIBLE
10
553.866711
20
354.280409
30
0.0
11
553.348050
21
354.557639
31
0.0
0
LINE
8
VISIBLE
10
562.200000
20
289.340000
30
0.0
11
562.097338
21
287.773686
31
0.0
0
LINE
8
VISIBLE
10
554.321320
20
353.907320
30
0.0
11
553.866711
21
354.280409
31
0.0
0
LINE
8
VISIBLE
10
562.097338
20
287.773686
30
0.0
11
561.791110
21
286.234171
31
0.0
0
LINE
8
VISIBLE
10
554.694409
20
353.452711
30
0.0
11
554.321320
21
353.907320
31
0.0
0
LINE
8
VISIBLE
10
561.791110
20
286.234171
30
0.0
11
561.286554
21
284.747799
31
0.0
0
LINE
8
VISIBLE
10
554.971639
20
352.934050
30
0.0
11
554.694409
21
353.452711
31
0.0
0
LINE
8
VISIBLE
10
561.286554
20
284.747799
30
0.0
11
560.592305
21
283.340000
31
0.0
0
LINE
8
VISIBLE
10
555.142356
20
352.371271
30
0.0
11
554.971639
21
352.934050
31
0.0
0
LINE
8
VISIBLE
10
560.592305
20
283.340000
30
0.0
11
559.720240
21
282.034863
31
0.0
0
LINE
8
VISIBLE
10
555.200000
20
351.786000
30
0.0
11
555.142356
21
352.371271
31
0.0
0
LINE
8
VISIBLE
10
559.720240
20
282.034863
30
0.0
11
558.685281
21
280.854719
31
0.0
0
LINE
8
VISIBLE
10
555.200000
20
334.786000
30
0.0
11
555.200000
21
351.786000
31
0.0
0
LINE
8
VISIBLE
10
558.685281
20
280.854719
30
0.0
11
557.505137
21
279.819760
31
0.0
0
LINE
8
VISIBLE
10
555.142356
20
334.200729
30
0.0
11
555.200000
21
334.786000
31
0.0
0
LINE
8
VISIBLE
10
557.505137
20
279.819760
30
0.0
11
556.200000
21
278.947695
31
0.0
0
LINE
8
VISIBLE
10
554.971639
20
333.637950
30
0.0
11
555.142356
21
334.200729
31
0.0
0
LINE
8
VISIBLE
10
556.200000
20
278.947695
30
0.0
11
554.792201
21
278.253446
31
0.0
0
LINE
8
VISIBLE
10
554.694409
20
333.119289
30
0.0
11
554.971639
21
333.637950
31
0.0
0
LINE
8
VISIBLE
10
554.792201
20
278.253446
30
0.0
11
553.305829
21
277.748890
31
0.0
0
LINE
8
VISIBLE
10
554.321320
20
332.664680
30
0.0
11
554.694409
21
333.119289
31
0.0
0
LINE
8
VISIBLE
10
553.305829
20
277.748890
30
0.0
11
551.766314
21
277.442662
31
0.0
0
LINE
8
VISIBLE
10
553.866711
20
332.291591
30
0.0
11
554.321320
21
332.664680
31
0.0
0
LINE
8
VISIBLE
10
551.766314
20
277.442662
30
0.0
11
550.200000
21
277.340000
31
0.0
0
LINE
8
VISIBLE
10
553.348050
20
332.014361
30
0.0
11
553.866711
21
332.291591
31
0.0
0
LINE
8
VISIBLE
10
550.200000
20
277.340000
30
0.0
11
548.633686
21
277.442662
31
0.0
0
LINE
8
VISIBLE
10
552.785271
20
331.843644
30
0.0
11
553.348050
21
332.014361
31
0.0
0
LINE
8
VISIBLE
10
548.633686
20
277.442662
30
0.0
11
547.094171
21
277.748890
31
0.0
0
LINE
8
VISIBLE
10
552.200000
20
331.786000
30
0.0
11
552.785271
21
331.843644
31
0.0
0
LINE
8
VISIBLE
10
547.094171
20
277.748890
30
0.0
11
545.607799
21
278.253446
31
0.0
0
LINE
8
VISIBLE
10
548.200000
20
331.786000
30
0.0
11
552.200000
21
331.786000
31
0.0
0
LINE
8
VISIBLE
10
545.607799
20
278.253446
30
0.0
11
544.200000
21
278.947695
31
0.0
0
LINE
8
VISIBLE
10
547.614729
20
331.843644
30
0.0
11
548.200000
21
331.786000
31
0.0
0
LINE
8
VISIBLE
10
544.200000
20
278.947695
30
0.0
11
542.894863
21
279.819760
31
0.0
0
LINE
8
VISIBLE
10
547.051950
20
332.014361
30
0.0
11
547.614729
21
331.843644
31
0.0
0
LINE
8
VISIBLE
10
542.894863
20
279.819760
30
0.0
11
541.714719
21
280.854719
31
0.0
0
LINE
8
VISIBLE
10
546.533289
20
332.291591
30
0.0
11
547.051950
21
332.014361
31
0.0
0
LINE
8
VISIBLE
10
541.714719
20
280.854719
30
0.0
11
540.679760
21
282.034863
31
0.0
0
LINE
8
VISIBLE
10
546.078680
20
332.664680
30
0.0
11
546.533289
21
332.291591
31
0.0
0
LINE
8
VISIBLE
10
540.679760
20
282.034863
30
0.0
11
539.807695
21
283.340000
31
0.0
0
LINE
8
VISIBLE
10
545.705591
20
333.119289
30
0.0
11
546.078680
21
332.664680
31
0.0
0
LINE
8
VISIBLE
10
539.807695
20
283.340000
30
0.0
11
539.113446
21
284.747799
31
0.0
0
LINE
8
VISIBLE
10
545.428361
20
333.637950
30
0.0
11
545.705591
21
333.119289
31
0.0
0
LINE
8
VISIBLE
10
539.113446
20
284.747799
30
0.0
11
538.608890
21
286.234171
31
0.0
0
LINE
8
VISIBLE
10
545.257644
20
334.200729
30
0.0
11
545.428361
21
333.637950
31
0.0
0
LINE
8
VISIBLE
10
538.608890
20
286.234171
30
0.0
11
538.302662
21
287.773686
31
0.0
0
LINE
8
VISIBLE
10
545.200000
20
334.786000
30
0.0
11
545.257644
21
334.200729
31
0.0
0
LINE
8
VISIBLE
10
538.302662
20
287.773686
30
0.0
11
538.200000
21
289.340000
31
0.0
0
LINE
8
VISIBLE
10
545.200000
20
351.786000
30
0.0
11
545.200000
21
334.786000
31
0.0
0
LINE
8
VISIBLE
10
538.200000
20
289.340000
30
0.0
11
537.700000
21
289.340000
31
0.0
0
LINE
8
VISIBLE
10
545.257644
20
352.371271
30
0.0
11
545.200000
21
351.786000
31
0.0
0
LINE
8
VISIBLE
10
537.700000
20
289.340000
30
0.0
11
530.200000
21
317.786000
31
0.0
0
LINE
8
VISIBLE
10
530.200000
20
317.786000
30
0.0
11
530.200000
21
354.786000
31
0.0
0
LINE
8
VISIBLE
10
545.705591
20
353.452711
30
0.0
11
545.428361
21
352.934050
31
0.0
0
LINE
8
VISIBLE
10
546.078680
20
353.907320
30
0.0
11
545.705591
21
353.452711
31
0.0
0
LINE
8
VISIBLE
10
548.200000
20
354.786000
30
0.0
11
547.614729
21
354.728356
31
0.0
0
LINE
8
VISIBLE
10
546.533289
20
354.280409
30
0.0
11
546.078680
21
353.907320
31
0.0
0
LINE
8
VISIBLE
10
547.614729
20
354.728356
30
0.0
11
547.051950
21
354.557639
31
0.0
0
LINE
8
VISIBLE
10
547.051950
20
354.557639
30
0.0
11
546.533289
21
354.280409
31
0.0
0
LINE
8
VISIBLE
10
533.200000
20
319.786000
30
0.0
11
533.200000
21
332.158258
31
0.0
0
LINE
8
VISIBLE
10
535.200000
20
319.786000
30
0.0
11
533.200000
21
319.786000
31
0.0
0
LINE
8
VISIBLE
10
535.200000
20
319.786000
30
0.0
11
535.200000
21
332.158258
31
0.0
0
LINE
8
VISIBLE
10
543.200000
20
336.786000
30
0.0
11
541.200000
21
336.786000
31
0.0
0
LINE
8
VISIBLE
10
541.200000
20
336.786000
30
0.0
11
541.200000
21
347.786000
31
0.0
0
LINE
8
VISIBLE
10
543.200000
20
336.786000
30
0.0
11
543.200000
21
347.786000
31
0.0
0
LINE
8
VISIBLE
10
543.200000
20
347.786000
30
0.0
11
541.200000
21
347.786000
31
0.0
0
CIRCLE
8
VISIBLE
10
550.200000
20
289.340000
30
0.0
40
10.000000
0
LINE
8
VISIBLE
10
559.200000
20
336.786000
30
0.0
11
557.200000
21
336.786000
31
0.0
0
LINE
8
VISIBLE
10
557.200000
20
336.786000
30
0.0
11
557.200000
21
347.786000
31
0.0
0
LINE
8
VISIBLE
10
559.200000
20
336.786000
30
0.0
11
559.200000
21
347.786000
31
0.0
0
LINE
8
VISIBLE
10
559.200000
20
347.786000
30
0.0
11
557.200000
21
347.786000
31
0.0
0
LINE
8
VISIBLE
10
565.200000
20
319.786000
30
0.0
11
565.200000
21
332.158258
31
0.0
0
LINE
8
VISIBLE
10
567.200000
20
319.786000
30
0.0
11
565.200000
21
319.786000
31
0.0
0
LINE
8
VISIBLE
10
567.200000
20
319.786000
30
0.0
11
567.200000
21
332.158258
31
0.0
0
LINE
8
VISIBLE
10
535.200000
20
336.521742
30
0.0
11
535.200000
21
336.786000
31
0.0
0
LINE
8
VISIBLE
10
533.200000
20
336.521742
30
0.0
11
533.200000
21
336.786000
31
0.0
0
LINE
8
VISIBLE
10
567.200000
20
336.521742
30
0.0
11
567.200000
21
336.786000
31
0.0
0
LINE
8
VISIBLE
10
565.200000
20
336.521742
30
0.0
11
565.200000
21
336.786000
31
0.0
0
CIRCLE
8
VISIBLE
10
550.200000
20
289.340000
30
0.0
40
8.000000
0
LINE
8
VISIBLE
10
535.200000
20
336.786000
30
0.0
11
533.200000
21
336.786000
31
0.0
0
LINE
8
VISIBLE
10
567.200000
20
336.786000
30
0.0
11
565.200000
21
336.786000
31
0.0
0
LINE
8
VISIBLE
10
535.200000
20
336.786000
30
0.0
11
535.200000
21
347.786000
31
0.0
0
LINE
8
VISIBLE
10
535.200000
20
347.786000
30
0.0
11
533.200000
21
347.786000
31
0.0
0
LINE
8
VISIBLE
10
533.200000
20
336.786000
30
0.0
11
533.200000
21
347.786000
31
0.0
0
LINE
8
VISIBLE
10
567.200000
20
336.786000
30
0.0
11
567.200000
21
347.786000
31
0.0
0
LINE
8
VISIBLE
10
567.200000
20
347.786000
30
0.0
11
565.200000
21
347.786000
31
0.0
0
LINE
8
VISIBLE
10
565.200000
20
336.786000
30
0.0
11
565.200000
21
347.786000
31
0.0
0
CIRCLE
8
VISIBLE
10
550.200000
20
289.340000
30
0.0
40
2.700000
0
CIRCLE
8
VISIBLE
10
550.200000
20
289.340000
30
0.0
40
4.920000
0
ARC
8
VISIBLE
10
566.200001
20
334.340001
30
0.0
40
2.399999
50
65.375699
51
114.624352
0
ARC
8
VISIBLE
10
534.200014
20
334.339984
30
0.0
40
2.400016
50
65.376160
51
114.624469
0
LINE
8
HIDDEN
10
570.200000
20
337.064995
30
0.0
11
570.200000
21
331.615005
31
0.0
0
ARC
8
HIDDEN
10
566.200000
20
334.340000
30
0.0
40
4.840000
50
34.264603
51
90.000000
0
CIRCLE
8
HIDDEN
10
566.200000
20
334.340000
30
0.0
40
2.400000
0
ARC
8
HIDDEN
10
534.200000
20
334.340000
30
0.0
40
4.840000
50
90.000000
51
145.735397
0
LINE
8
HIDDEN
10
537.800000
20
362.843875
30
0.0
11
537.800000
21
337.575058
31
0.0
0
LINE
8
HIDDEN
10
537.800000
20
372.406000
30
0.0
11
537.800000
21
366.864125
31
0.0
0
LINE
8
HIDDEN
10
538.037878
20
374.821218
30
0.0
11
537.800000
21
372.406000
31
0.0
0
LINE
8
HIDDEN
10
538.742371
20
377.143621
30
0.0
11
538.037878
21
374.821218
31
0.0
0
LINE
8
HIDDEN
10
539.284373
20
378.157634
30
0.0
11
538.742371
21
377.143621
31
0.0
0
LINE
8
HIDDEN
10
547.764782
20
384.548122
30
0.0
11
545.599219
21
383.891205
31
0.0
0
LINE
8
HIDDEN
10
550.180000
20
384.786000
30
0.0
11
547.764782
21
384.548122
31
0.0
0
LINE
8
HIDDEN
10
550.220000
20
384.786000
30
0.0
11
550.180000
21
384.786000
31
0.0
0
LINE
8
HIDDEN
10
552.635218
20
384.548122
30
0.0
11
550.220000
21
384.786000
31
0.0
0
LINE
8
HIDDEN
10
554.800781
20
383.891205
30
0.0
11
552.635218
21
384.548122
31
0.0
0
LINE
8
HIDDEN
10
561.657629
20
377.143621
30
0.0
11
561.115627
21
378.157634
31
0.0
0
LINE
8
HIDDEN
10
562.362122
20
374.821218
30
0.0
11
561.657629
21
377.143621
31
0.0
0
LINE
8
HIDDEN
10
562.600000
20
372.406000
30
0.0
11
562.362122
21
374.821218
31
0.0
0
LINE
8
HIDDEN
10
562.600000
20
366.864125
30
0.0
11
562.600000
21
372.406000
31
0.0
0
LINE
8
HIDDEN
10
562.600000
20
337.575058
30
0.0
11
562.600000
21
362.843875
31
0.0
0
ARC
8
HIDDEN
10
566.200000
20
334.340000
30
0.0
40
4.840000
50
90.000000
51
138.056273
0
ARC
8
HIDDEN
10
566.200000
20
334.340000
30
0.0
40
4.840000
50
34.264603
51
90.000000
0
LINE
8
HIDDEN
10
570.200000
20
373.340000
30
0.0
11
570.200000
21
337.064995
31
0.0
0
LINE
8
HIDDEN
10
530.200000
20
337.064995
30
0.0
11
530.200000
21
373.340000
31
0.0
0
LINE
8
HIDDEN
10
537.800000
20
337.575058
30
0.0
11
537.800000
21
362.843875
31
0.0
0
ARC
8
HIDDEN
10
541.714000
20
364.854000
30
0.0
40
4.400000
50
90.000000
51
152.816184
0
ARC
8
HIDDEN
10
541.714000
20
364.854000
30
0.0
40
4.400000
50
207.183816
51
90.000000
0
CIRCLE
8
HIDDEN
10
541.714000
20
364.854000
30
0.0
40
4.400000
0
LINE
8
HIDDEN
10
537.800000
20
366.864125
30
0.0
11
537.800000
21
372.406000
31
0.0
0
LINE
8
HIDDEN
10
537.800000
20
372.406000
30
0.0
11
538.037878
21
374.821218
31
0.0
0
LINE
8
HIDDEN
10
538.037878
20
374.821218
30
0.0
11
538.742371
21
377.143621
31
0.0
0
LINE
8
HIDDEN
10
538.742371
20
377.143621
30
0.0
11
539.284373
21
378.157634
31
0.0
0
ARC
8
HIDDEN
10
541.714000
20
381.826000
30
0.0
40
4.400000
50
236.482748
51
27.993077
0
CIRCLE
8
HIDDEN
10
541.714000
20
381.826000
30
0.0
40
4.400000
0
LINE
8
HIDDEN
10
545.599219
20
383.891205
30
0.0
11
547.764782
21
384.548122
31
0.0
0
LINE
8
HIDDEN
10
547.764782
20
384.548122
30
0.0
11
550.180000
21
384.786000
31
0.0
0
LINE
8
HIDDEN
10
550.180000
20
384.786000
30
0.0
11
550.220000
21
384.786000
31
0.0
0
LINE
8
HIDDEN
10
550.220000
20
384.786000
30
0.0
11
552.635218
21
384.548122
31
0.0
0
LINE
8
HIDDEN
10
552.635218
20
384.548122
30
0.0
11
554.800781
21
383.891205
31
0.0
0
ARC
8
HIDDEN
10
558.686000
20
381.826000
30
0.0
40
4.400000
50
152.006923
51
303.517252
0
CIRCLE
8
HIDDEN
10
558.686000
20
381.826000
30
0.0
40
4.400000
0
LINE
8
HIDDEN
10
561.115627
20
378.157634
30
0.0
11
561.657629
21
377.143621
31
0.0
0
LINE
8
HIDDEN
10
561.657629
20
377.143621
30
0.0
11
562.362122
21
374.821218
31
0.0
0
LINE
8
HIDDEN
10
562.362122
20
374.821218
30
0.0
11
562.600000
21
372.406000
31
0.0
0
LINE
8
HIDDEN
10
562.600000
20
372.406000
30
0.0
11
562.600000
21
366.864125
31
0.0
0
ARC
8
HIDDEN
10
558.686000
20
364.854000
30
0.0
40
4.400000
50
90.000000
51
332.816184
0
ARC
8
HIDDEN
10
558.686000
20
364.854000
30
0.0
40
4.400000
50
27.183816
51
90.000000
0
CIRCLE
8
HIDDEN
10
558.686000
20
364.854000
30
0.0
40
4.400000
0
LINE
8
HIDDEN
10
562.600000
20
362.843875
30
0.0
11
562.600000
21
337.575058
31
0.0
0
LINE
8
HIDDEN
10
547.764782
20
312.023878
30
0.0
11
545.442379
21
312.728371
31
0.0
0
LINE
8
HIDDEN
10
550.180000
20
311.786000
30
0.0
11
547.764782
21
312.023878
31
0.0
0
LINE
8
HIDDEN
10
550.220000
20
311.786000
30
0.0
11
550.180000
21
311.786000
31
0.0
0
LINE
8
HIDDEN
10
552.635218
20
312.023878
30
0.0
11
550.220000
21
311.786000
31
0.0
0
LINE
8
HIDDEN
10
554.957621
20
312.728371
30
0.0
11
552.635218
21
312.023878
31
0.0
0
LINE
8
HIDDEN
10
557.097959
20
313.872406
30
0.0
11
554.957621
21
312.728371
31
0.0
0
LINE
8
HIDDEN
10
558.973982
20
315.412018
30
0.0
11
557.097959
21
313.872406
31
0.0
0
LINE
8
HIDDEN
10
560.513594
20
317.288041
30
0.0
11
558.973982
21
315.412018
31
0.0
0
LINE
8
HIDDEN
10
561.657629
20
319.428379
30
0.0
11
560.513594
21
317.288041
31
0.0
0
LINE
8
HIDDEN
10
562.362122
20
321.750782
30
0.0
11
561.657629
21
319.428379
31
0.0
0
LINE
8
HIDDEN
10
562.600000
20
324.166000
30
0.0
11
562.362122
21
321.750782
31
0.0
0
LINE
8
HIDDEN
10
562.600000
20
331.104942
30
0.0
11
562.600000
21
324.166000
31
0.0
0
ARC
8
HIDDEN
10
566.200000
20
334.340000
30
0.0
40
4.840000
50
138.056273
51
221.943727
0
ARC
8
HIDDEN
10
534.200000
20
334.340000
30
0.0
40
4.840000
50
318.056273
51
41.943727
0
LINE
8
HIDDEN
10
537.800000
20
324.166000
30
0.0
11
537.800000
21
331.104942
31
0.0
0
LINE
8
HIDDEN
10
538.037878
20
321.750782
30
0.0
11
537.800000
21
324.166000
31
0.0
0
LINE
8
HIDDEN
10
538.742371
20
319.428379
30
0.0
11
538.037878
21
321.750782
31
0.0
0
LINE
8
HIDDEN
10
539.886406
20
317.288041
30
0.0
11
538.742371
21
319.428379
31
0.0
0
LINE
8
HIDDEN
10
541.426018
20
315.412018
30
0.0
11
539.886406
21
317.288041
31
0.0
0
LINE
8
HIDDEN
10
543.302041
20
313.872406
30
0.0
11
541.426018
21
315.412018
31
0.0
0
LINE
8
HIDDEN
10
545.442379
20
312.728371
30
0.0
11
543.302041
21
313.872406
31
0.0
0
LINE
8
HIDDEN
10
552.200000
20
354.786000
30
0.0
11
548.200000
21
354.786000
31
0.0
0
LINE
8
HIDDEN
10
530.200000
20
317.786000
30
0.0
11
530.200000
21
331.615005
31
0.0
0
ARC
8
HIDDEN
10
534.200000
20
334.340000
30
0.0
40
4.840000
50
214.264603
51
318.056273
0
LINE
8
HIDDEN
10
537.800000
20
331.104942
30
0.0
11
537.800000
21
324.166000
31
0.0
0
LINE
8
HIDDEN
10
537.800000
20
324.166000
30
0.0
11
538.037878
21
321.750782
31
0.0
0
LINE
8
HIDDEN
10
538.037878
20
321.750782
30
0.0
11
538.742371
21
319.428379
31
0.0
0
LINE
8
HIDDEN
10
538.742371
20
319.428379
30
0.0
11
539.886406
21
317.288041
31
0.0
0
LINE
8
HIDDEN
10
539.886406
20
317.288041
30
0.0
11
541.426018
21
315.412018
31
0.0
0
LINE
8
HIDDEN
10
541.426018
20
315.412018
30
0.0
11
543.302041
21
313.872406
31
0.0
0
LINE
8
HIDDEN
10
543.302041
20
313.872406
30
0.0
11
545.442379
21
312.728371
31
0.0
0
LINE
8
HIDDEN
10
545.442379
20
312.728371
30
0.0
11
547.764782
21
312.023878
31
0.0
0
LINE
8
HIDDEN
10
547.764782
20
312.023878
30
0.0
11
550.180000
21
311.786000
31
0.0
0
LINE
8
HIDDEN
10
550.180000
20
311.786000
30
0.0
11
550.220000
21
311.786000
31
0.0
0
LINE
8
HIDDEN
10
550.220000
20
311.786000
30
0.0
11
552.635218
21
312.023878
31
0.0
0
LINE
8
HIDDEN
10
552.635218
20
312.023878
30
0.0
11
554.957621
21
312.728371
31
0.0
0
LINE
8
HIDDEN
10
554.957621
20
312.728371
30
0.0
11
557.097959
21
313.872406
31
0.0
0
LINE
8
HIDDEN
10
557.097959
20
313.872406
30
0.0
11
558.973982
21
315.412018
31
0.0
0
LINE
8
HIDDEN
10
558.973982
20
315.412018
30
0.0
11
560.513594
21
317.288041
31
0.0
0
LINE
8
HIDDEN
10
560.513594
20
317.288041
30
0.0
11
561.657629
21
319.428379
31
0.0
0
LINE
8
HIDDEN
10
561.657629
20
319.428379
30
0.0
11
562.362122
21
321.750782
31
0.0
0
LINE
8
HIDDEN
10
562.362122
20
321.750782
30
0.0
11
562.600000
21
324.166000
31
0.0
0
LINE
8
HIDDEN
10
562.600000
20
324.166000
30
0.0
11
562.600000
21
331.104942
31
0.0
0
ARC
8
HIDDEN
10
566.200000
20
334.340000
30
0.0
40
4.840000
50
221.943727
51
325.735397
0
LINE
8
HIDDEN
10
570.200000
20
331.615005
30
0.0
11
570.200000
21
317.786000
31
0.0
0
ARC
8
HIDDEN
10
534.200000
20
334.340000
30
0.0
40
4.840000
50
90.000000
51
145.735397
0
LINE
8
HIDDEN
10
530.200000
20
331.615005
30
0.0
11
530.200000
21
337.064995
31
0.0
0
ARC
8
HIDDEN
10
534.200000
20
334.340000
30
0.0
40
4.840000
50
214.264603
51
90.000000
0
CIRCLE
8
HIDDEN
10
534.200000
20
334.340000
30
0.0
40
2.400000
0
LINE
8
HIDDEN
10
570.200000
20
354.786000
30
0.0
11
552.200000
21
354.786000
31
0.0
0
LINE
8
HIDDEN
10
548.200000
20
354.786000
30
0.0
11
530.200000
21
354.786000
31
0.0
0
LINE
8
HIDDEN
10
533.200000
20
336.521742
30
0.0
11
533.200000
21
347.786000
31
0.0
0
LINE
8
HIDDEN
10
535.200000
20
336.521742
30
0.0
11
535.200000
21
347.786000
31
0.0
0
LINE
8
HIDDEN
10
565.200000
20
336.521742
30
0.0
11
565.200000
21
347.786000
31
0.0
0
LINE
8
HIDDEN
10
567.200000
20
336.521742
30
0.0
11
567.200000
21
347.786000
31
0.0
0
CIRCLE
8
HIDDEN
10
550.200000
20
289.340000
30
0.0
40
5.500000
0
CIRCLE
8
HIDDEN
10
550.200000
20
289.340000
30
0.0
40
5.500000
0
ARC
8
HIDDEN
10
566.200000
20
334.340000
30
0.0
40
4.840000
50
90.000000
51
325.735397
0
ARC
8
HIDDEN
10
534.199999
20
334.340000
30
0.0
40
4.840001
50
41.943721
51
89.999984
0
ARC
8
HIDDEN
10
541.714002
20
364.853999
30
0.0
40
4.400002
50
152.816181
51
207.183793
0
ARC
8
HIDDEN
10
541.714000
20
381.826000
30
0.0
40
4.400000
50
27.993077
51
236.482748
0
ARC
8
HIDDEN
10
558.686000
20
381.826000
30
0.0
40
4.400000
50
303.517252
51
152.006923
0
ARC
8
HIDDEN
10
558.686001
20
364.853999
30
0.0
40
4.399999
50
332.816186
51
27.183830
0
LINE
8
VISIBLE
10
472.200000
20
373.340000
30
0.0
11
472.200000
21
354.786000
31
0.0
0
LINE
8
VISIBLE
10
472.200000
20
375.950524
30
0.0
11
472.200000
21
373.340000
31
0.0
0
LINE
8
VISIBLE
10
472.200000
20
378.516381
30
0.0
11
472.200000
21
375.950524
31
0.0
0
LINE
8
VISIBLE
10
472.200000
20
380.993669
30
0.0
11
472.200000
21
378.516381
31
0.0
0
LINE
8
VISIBLE
10
472.200000
20
383.340000
30
0.0
11
472.200000
21
380.993669
31
0.0
0
LINE
8
VISIBLE
10
472.200000
20
385.515229
30
0.0
11
472.200000
21
383.340000
31
0.0
0
LINE
8
VISIBLE
10
472.200000
20
387.482136
30
0.0
11
472.200000
21
385.515229
31
0.0
0
LINE
8
VISIBLE
10
472.200000
20
389.207067
30
0.0
11
472.200000
21
387.482136
31
0.0
0
LINE
8
VISIBLE
10
472.200000
20
390.660508
30
0.0
11
472.200000
21
389.207067
31
0.0
0
LINE
8
VISIBLE
10
472.200000
20
391.817591
30
0.0
11
472.200000
21
390.660508
31
0.0
0
LINE
8
VISIBLE
10
472.200000
20
392.658517
30
0.0
11
472.200000
21
391.817591
31
0.0
0
LINE
8
VISIBLE
10
472.200000
20
393.168897
30
0.0
11
472.200000
21
392.658517
31
0.0
0
LINE
8
VISIBLE
10
472.200000
20
393.340000
30
0.0
11
472.200000
21
393.168897
31
0.0
0
LINE
8
VISIBLE
10
472.200000
20
389.240000
30
0.0
11
468.300000
21
389.240000
31
0.0
0
LINE
8
VISIBLE
10
468.300000
20
389.240000
30
0.0
11
468.300000
21
357.440000
31
0.0
0
LINE
8
VISIBLE
10
476.800000
20
331.615005
30
0.0
11
476.800000
21
331.940000
31
0.0
0
LINE
8
VISIBLE
10
476.800000
20
336.740000
30
0.0
11
476.800000
21
337.064995
31
0.0
0
LINE
8
VISIBLE
10
476.800000
20
337.064995
30
0.0
11
476.800000
21
331.615005
31
0.0
0
LINE
8
VISIBLE
10
473.200000
20
336.521742
30
0.0
11
472.200000
21
336.521742
31
0.0
0
LINE
8
VISIBLE
10
473.200000
20
332.158258
30
0.0
11
472.200000
21
332.158258
31
0.0
0
LINE
8
VISIBLE
10
477.800000
20
373.340000
30
0.0
11
477.800000
21
337.064995
31
0.0
0
LINE
8
VISIBLE
10
477.800000
20
375.950524
30
0.0
11
477.800000
21
373.340000
31
0.0
0
LINE
8
VISIBLE
10
477.800000
20
378.516381
30
0.0
11
477.800000
21
375.950524
31
0.0
0
LINE
8
VISIBLE
10
477.800000
20
380.993669
30
0.0
11
477.800000
21
378.516381
31
0.0
0
LINE
8
VISIBLE
10
477.800000
20
383.340000
30
0.0
11
477.800000
21
380.993669
31
0.0
0
LINE
8
VISIBLE
10
477.800000
20
385.515229
30
0.0
11
477.800000
21
383.340000
31
0.0
0
LINE
8
VISIBLE
10
477.800000
20
387.482136
30
0.0
11
477.800000
21
385.515229
31
0.0
0
LINE
8
VISIBLE
10
477.800000
20
389.207067
30
0.0
11
477.800000
21
387.482136
31
0.0
0
LINE
8
VISIBLE
10
477.800000
20
390.660508
30
0.0
11
477.800000
21
389.207067
31
0.0
0
LINE
8
VISIBLE
10
477.800000
20
391.817591
30
0.0
11
477.800000
21
390.660508
31
0.0
0
LINE
8
VISIBLE
10
477.800000
20
392.658517
30
0.0
11
477.800000
21
391.817591
31
0.0
0
LINE
8
VISIBLE
10
477.800000
20
393.168897
30
0.0
11
477.800000
21
392.658517
31
0.0
0
LINE
8
VISIBLE
10
477.800000
20
393.340000
30
0.0
11
477.800000
21
393.168897
31
0.0
0
LINE
8
VISIBLE
10
482.800000
20
384.786000
30
0.0
11
477.800000
21
384.786000
31
0.0
0
LINE
8
VISIBLE
10
482.800000
20
384.786000
30
0.0
11
482.800000
21
384.548122
31
0.0
0
LINE
8
VISIBLE
10
482.800000
20
384.548122
30
0.0
11
477.800000
21
384.548122
31
0.0
0
LINE
8
VISIBLE
10
482.800000
20
384.548122
30
0.0
11
482.800000
21
383.891205
31
0.0
0
LINE
8
VISIBLE
10
482.800000
20
383.891205
30
0.0
11
477.800000
21
383.891205
31
0.0
0
LINE
8
VISIBLE
10
482.800000
20
378.157634
30
0.0
11
482.800000
21
383.891205
31
0.0
0
LINE
8
VISIBLE
10
482.800000
20
378.157634
30
0.0
11
477.800000
21
378.157634
31
0.0
0
LINE
8
VISIBLE
10
482.800000
20
378.157634
30
0.0
11
482.800000
21
377.143621
31
0.0
0
LINE
8
VISIBLE
10
482.800000
20
377.143621
30
0.0
11
477.800000
21
377.143621
31
0.0
0
LINE
8
VISIBLE
10
482.800000
20
377.143621
30
0.0
11
482.800000
21
374.821218
31
0.0
0
LINE
8
VISIBLE
10
482.800000
20
374.821218
30
0.0
11
477.800000
21
374.821218
31
0.0
0
LINE
8
VISIBLE
10
482.800000
20
374.821218
30
0.0
11
482.800000
21
372.406000
31
0.0
0
LINE
8
VISIBLE
10
482.800000
20
372.406000
30
0.0
11
477.800000
21
372.406000
31
0.0
0
LINE
8
VISIBLE
10
482.800000
20
372.406000
30
0.0
11
482.800000
21
366.864125
31
0.0
0
LINE
8
VISIBLE
10
482.800000
20
366.864125
30
0.0
11
477.800000
21
366.864125
31
0.0
0
LINE
8
VISIBLE
10
482.800000
20
362.843875
30
0.0
11
482.800000
21
366.864125
31
0.0
0
LINE
8
VISIBLE
10
482.800000
20
362.843875
30
0.0
11
477.800000
21
362.843875
31
0.0
0
LINE
8
VISIBLE
10
482.800000
20
362.843875
30
0.0
11
482.800000
21
337.575058
31
0.0
0
LINE
8
VISIBLE
10
482.800000
20
337.575058
30
0.0
11
477.800000
21
337.575058
31
0.0
0
LINE
8
VISIBLE
10
482.800000
20
312.023878
30
0.0
11
482.800000
21
311.786000
31
0.0
0
LINE
8
VISIBLE
10
482.800000
20
312.728371
30
0.0
11
482.800000
21
312.023878
31
0.0
0
LINE
8
VISIBLE
10
482.800000
20
313.872406
30
0.0
11
482.800000
21
312.728371
31
0.0
0
LINE
8
VISIBLE
10
482.800000
20
315.412018
30
0.0
11
482.800000
21
313.872406
31
0.0
0
LINE
8
VISIBLE
10
482.800000
20
317.288041
30
0.0
11
482.800000
21
315.412018
31
0.0
0
LINE
8
VISIBLE
10
482.800000
20
319.428379
30
0.0
11
482.800000
21
317.288041
31
0.0
0
LINE
8
VISIBLE
10
482.800000
20
321.750782
30
0.0
11
482.800000
21
319.428379
31
0.0
0
LINE
8
VISIBLE
10
482.800000
20
324.166000
30
0.0
11
482.800000
21
321.750782
31
0.0
0
LINE
8
VISIBLE
10
482.800000
20
331.104942
30
0.0
11
482.800000
21
324.166000
31
0.0
0
LINE
8
VISIBLE
10
482.800000
20
331.104942
30
0.0
11
482.800000
21
337.575058
31
0.0
0
LINE
8
VISIBLE
10
477.800000
20
277.442662
30
0.0
11
477.800000
21
277.340000
31
0.0
0
LINE
8
VISIBLE
10
477.800000
20
277.748890
30
0.0
11
477.800000
21
277.442662
31
0.0
0
LINE
8
VISIBLE
10
477.800000
20
278.253446
30
0.0
11
477.800000
21
277.748890
31
0.0
0
LINE
8
VISIBLE
10
477.800000
20
278.947695
30
0.0
11
477.800000
21
278.253446
31
0.0
0
LINE
8
VISIBLE
10
477.800000
20
279.819760
30
0.0
11
477.800000
21
278.947695
31
0.0
0
LINE
8
VISIBLE
10
477.800000
20
280.854719
30
0.0
11
477.800000
21
279.819760
31
0.0
0
LINE
8
VISIBLE
10
477.800000
20
282.034863
30
0.0
11
477.800000
21
280.854719
31
0.0
0
LINE
8
VISIBLE
10
477.800000
20
283.340000
30
0.0
11
477.800000
21
282.034863
31
0.0
0
LINE
8
VISIBLE
10
477.800000
20
284.747799
30
0.0
11
477.800000
21
283.340000
31
0.0
0
LINE
8
VISIBLE
10
477.800000
20
286.234171
30
0.0
11
477.800000
21
284.747799
31
0.0
0
LINE
8
VISIBLE
10
477.800000
20
331.615005
30
0.0
11
477.800000
21
317.786000
31
0.0
0
LINE
8
VISIBLE
10
477.800000
20
287.773686
30
0.0
11
477.800000
21
286.234171
31
0.0
0
LINE
8
VISIBLE
10
477.800000
20
317.786000
30
0.0
11
477.800000
21
289.340000
31
0.0
0
LINE
8
VISIBLE
10
477.800000
20
289.340000
30
0.0
11
477.800000
21
287.773686
31
0.0
0
LINE
8
VISIBLE
10
482.800000
20
324.166000
30
0.0
11
477.800000
21
324.166000
31
0.0
0
LINE
8
VISIBLE
10
482.800000
20
331.104942
30
0.0
11
477.800000
21
331.104942
31
0.0
0
LINE
8
VISIBLE
10
482.800000
20
311.786000
30
0.0
11
477.800000
21
311.786000
31
0.0
0
LINE
8
VISIBLE
10
482.800000
20
312.023878
30
0.0
11
477.800000
21
312.023878
31
0.0
0
LINE
8
VISIBLE
10
482.800000
20
312.728371
30
0.0
11
477.800000
21
312.728371
31
0.0
0
LINE
8
VISIBLE
10
482.800000
20
313.872406
30
0.0
11
477.800000
21
313.872406
31
0.0
0
LINE
8
VISIBLE
10
482.800000
20
315.412018
30
0.0
11
477.800000
21
315.412018
31
0.0
0
LINE
8
VISIBLE
10
482.800000
20
317.288041
30
0.0
11
477.800000
21
317.288041
31
0.0
0
LINE
8
VISIBLE
10
482.800000
20
319.428379
30
0.0
11
477.800000
21
319.428379
31
0.0
0
LINE
8
VISIBLE
10
482.800000
20
321.750782
30
0.0
11
477.800000
21
321.750782
31
0.0
0
LINE
8
VISIBLE
10
484.200000
20
299.340000
30
0.0
11
477.800000
21
299.340000
31
0.0
0
LINE
8
VISIBLE
10
484.200000
20
299.340000
30
0.0
11
484.200000
21
279.340000
31
0.0
0
LINE
8
VISIBLE
10
473.200000
20
354.786000
30
0.0
11
473.200000
21
317.786000
31
0.0
0
LINE
8
VISIBLE
10
473.200000
20
317.786000
30
0.0
11
473.200000
21
289.340000
31
0.0
0
LINE
8
VISIBLE
10
473.200000
20
289.340000
30
0.0
11
473.200000
21
287.773686
31
0.0
0
LINE
8
VISIBLE
10
473.200000
20
287.773686
30
0.0
11
473.200000
21
286.234171
31
0.0
0
LINE
8
VISIBLE
10
473.200000
20
286.234171
30
0.0
11
473.200000
21
284.747799
31
0.0
0
LINE
8
VISIBLE
10
473.200000
20
284.747799
30
0.0
11
473.200000
21
283.340000
31
0.0
0
LINE
8
VISIBLE
10
473.200000
20
283.340000
30
0.0
11
473.200000
21
282.034863
31
0.0
0
LINE
8
VISIBLE
10
473.200000
20
282.034863
30
0.0
11
473.200000
21
280.854719
31
0.0
0
LINE
8
VISIBLE
10
473.200000
20
280.854719
30
0.0
11
473.200000
21
279.819760
31
0.0
0
LINE
8
VISIBLE
10
473.200000
20
279.819760
30
0.0
11
473.200000
21
278.947695
31
0.0
0
LINE
8
VISIBLE
10
473.200000
20
278.947695
30
0.0
11
473.200000
21
278.253446
31
0.0
0
LINE
8
VISIBLE
10
473.200000
20
278.253446
30
0.0
11
473.200000
21
277.748890
31
0.0
0
LINE
8
VISIBLE
10
473.200000
20
277.748890
30
0.0
11
473.200000
21
277.442662
31
0.0
0
LINE
8
VISIBLE
10
473.200000
20
277.442662
30
0.0
11
473.200000
21
277.340000
31
0.0
0
LINE
8
VISIBLE
10
473.200000
20
354.786000
30
0.0
11
473.200000
21
354.728356
31
0.0
0
LINE
8
VISIBLE
10
473.200000
20
299.340000
30
0.0
11
472.200000
21
299.340000
31
0.0
0
LINE
8
VISIBLE
10
472.200000
20
299.340000
30
0.0
11
472.200000
21
279.340000
31
0.0
0
LINE
8
VISIBLE
10
473.200000
20
319.786000
30
0.0
11
472.200000
21
319.786000
31
0.0
0
LINE
8
VISIBLE
10
472.200000
20
319.786000
30
0.0
11
472.200000
21
332.158258
31
0.0
0
LINE
8
VISIBLE
10
472.200000
20
336.521742
30
0.0
11
472.200000
21
336.786000
31
0.0
0
LINE
8
VISIBLE
10
472.200000
20
336.786000
30
0.0
11
468.300000
21
336.786000
31
0.0
0
LINE
8
VISIBLE
10
468.300000
20
336.786000
30
0.0
11
468.300000
21
347.786000
31
0.0
0
LINE
8
VISIBLE
10
472.200000
20
294.260000
30
0.0
11
468.620000
21
294.260000
31
0.0
0
LINE
8
VISIBLE
10
468.620000
20
294.260000
30
0.0
11
468.620000
21
284.420000
31
0.0
0
LINE
8
VISIBLE
10
477.800000
20
337.064995
30
0.0
11
476.800000
21
337.064995
31
0.0
0
LINE
8
VISIBLE
10
477.800000
20
331.615005
30
0.0
11
476.800000
21
331.615005
31
0.0
0
LINE
8
VISIBLE
10
477.800000
20
317.786000
30
0.0
11
473.200000
21
317.786000
31
0.0
0
LINE
8
VISIBLE
10
473.200000
20
354.786000
30
0.0
11
472.200000
21
354.786000
31
0.0
0
LINE
8
VISIBLE
10
477.800000
20
373.340000
30
0.0
11
472.200000
21
373.340000
31
0.0
0
LINE
8
VISIBLE
10
477.800000
20
375.950524
30
0.0
11
472.200000
21
375.950524
31
0.0
0
LINE
8
VISIBLE
10
477.800000
20
378.516381
30
0.0
11
472.200000
21
378.516381
31
0.0
0
LINE
8
VISIBLE
10
477.800000
20
380.993669
30
0.0
11
472.200000
21
380.993669
31
0.0
0
LINE
8
VISIBLE
10
477.800000
20
383.340000
30
0.0
11
472.200000
21
383.340000
31
0.0
0
LINE
8
VISIBLE
10
477.800000
20
385.515229
30
0.0
11
472.200000
21
385.515229
31
0.0
0
LINE
8
VISIBLE
10
477.800000
20
387.482136
30
0.0
11
472.200000
21
387.482136
31
0.0
0
LINE
8
VISIBLE
10
477.800000
20
389.207067
30
0.0
11
472.200000
21
389.207067
31
0.0
0
LINE
8
VISIBLE
10
477.800000
20
390.660508
30
0.0
11
472.200000
21
390.660508
31
0.0
0
LINE
8
VISIBLE
10
477.800000
20
391.817591
30
0.0
11
472.200000
21
391.817591
31
0.0
0
LINE
8
VISIBLE
10
477.800000
20
392.658517
30
0.0
11
472.200000
21
392.658517
31
0.0
0
LINE
8
VISIBLE
10
477.800000
20
393.168897
30
0.0
11
472.200000
21
393.168897
31
0.0
0
LINE
8
VISIBLE
10
477.800000
20
393.340000
30
0.0
11
472.200000
21
393.340000
31
0.0
0
LINE
8
VISIBLE
10
477.800000
20
289.340000
30
0.0
11
473.200000
21
289.340000
31
0.0
0
LINE
8
VISIBLE
10
477.800000
20
277.340000
30
0.0
11
473.200000
21
277.340000
31
0.0
0
LINE
8
VISIBLE
10
477.800000
20
277.442662
30
0.0
11
473.200000
21
277.442662
31
0.0
0
LINE
8
VISIBLE
10
477.800000
20
277.748890
30
0.0
11
473.200000
21
277.748890
31
0.0
0
LINE
8
VISIBLE
10
477.800000
20
278.253446
30
0.0
11
473.200000
21
278.253446
31
0.0
0
LINE
8
VISIBLE
10
477.800000
20
278.947695
30
0.0
11
473.200000
21
278.947695
31
0.0
0
LINE
8
VISIBLE
10
477.800000
20
279.819760
30
0.0
11
473.200000
21
279.819760
31
0.0
0
LINE
8
VISIBLE
10
477.800000
20
280.854719
30
0.0
11
473.200000
21
280.854719
31
0.0
0
LINE
8
VISIBLE
10
477.800000
20
282.034863
30
0.0
11
473.200000
21
282.034863
31
0.0
0
LINE
8
VISIBLE
10
477.800000
20
283.340000
30
0.0
11
473.200000
21
283.340000
31
0.0
0
LINE
8
VISIBLE
10
477.800000
20
284.747799
30
0.0
11
473.200000
21
284.747799
31
0.0
0
LINE
8
VISIBLE
10
477.800000
20
286.234171
30
0.0
11
473.200000
21
286.234171
31
0.0
0
LINE
8
VISIBLE
10
477.800000
20
287.773686
30
0.0
11
473.200000
21
287.773686
31
0.0
0
LINE
8
VISIBLE
10
473.200000
20
347.786000
30
0.0
11
468.300000
21
347.786000
31
0.0
0
LINE
8
VISIBLE
10
472.200000
20
357.440000
30
0.0
11
468.300000
21
357.440000
31
0.0
0
LINE
8
VISIBLE
10
484.200000
20
279.340000
30
0.0
11
477.800000
21
279.340000
31
0.0
0
LINE
8
VISIBLE
10
473.200000
20
279.340000
30
0.0
11
472.200000
21
279.340000
31
0.0
0
LINE
8
VISIBLE
10
472.200000
20
284.420000
30
0.0
11
468.620000
21
284.420000
31
0.0
0
LINE
8
VISIBLE
10
612.100000
20
372.548666
30
0.0
11
612.100000
21
353.994666
31
0.0
0
LINE
8
VISIBLE
10
612.100000
20
375.159190
30
0.0
11
612.100000
21
372.548666
31
0.0
0
LINE
8
VISIBLE
10
612.100000
20
377.725047
30
0.0
11
612.100000
21
375.159190
31
0.0
0
LINE
8
VISIBLE
10
612.100000
20
380.202334
30
0.0
11
612.100000
21
377.725047
31
0.0
0
LINE
8
VISIBLE
10
612.100000
20
382.548666
30
0.0
11
612.100000
21
380.202334
31
0.0
0
LINE
8
VISIBLE
10
612.100000
20
384.723894
30
0.0
11
612.100000
21
382.548666
31
0.0
0
LINE
8
VISIBLE
10
612.100000
20
386.690801
30
0.0
11
612.100000
21
384.723894
31
0.0
0
LINE
8
VISIBLE
10
612.100000
20
388.415733
30
0.0
11
612.100000
21
386.690801
31
0.0
0
LINE
8
VISIBLE
10
612.100000
20
389.869174
30
0.0
11
612.100000
21
388.415733
31
0.0
0
LINE
8
VISIBLE
10
612.100000
20
390.615796
30
0.0
11
612.100000
21
389.869174
31
0.0
0
LINE
8
VISIBLE
10
617.700000
20
372.548666
30
0.0
11
617.700000
21
336.273661
31
0.0
0
LINE
8
VISIBLE
10
617.700000
20
336.273661
30
0.0
11
616.700000
21
336.273661
31
0.0
0
LINE
8
VISIBLE
10
616.700000
20
336.273661
30
0.0
11
616.700000
21
330.823670
31
0.0
0
LINE
8
VISIBLE
10
617.700000
20
330.823670
30
0.0
11
616.700000
21
330.823670
31
0.0
0
LINE
8
VISIBLE
10
617.700000
20
330.823670
30
0.0
11
617.700000
21
316.994666
31
0.0
0
LINE
8
VISIBLE
10
617.700000
20
316.994666
30
0.0
11
613.100000
21
316.994666
31
0.0
0
LINE
8
VISIBLE
10
613.100000
20
353.994666
30
0.0
11
613.100000
21
316.994666
31
0.0
0
LINE
8
VISIBLE
10
617.700000
20
372.548666
30
0.0
11
612.100000
21
372.548666
31
0.0
0
LINE
8
VISIBLE
10
617.700000
20
375.159190
30
0.0
11
617.700000
21
372.548666
31
0.0
0
LINE
8
VISIBLE
10
617.700000
20
375.159190
30
0.0
11
612.100000
21
375.159190
31
0.0
0
LINE
8
VISIBLE
10
617.700000
20
377.725047
30
0.0
11
617.700000
21
375.159190
31
0.0
0
LINE
8
VISIBLE
10
617.700000
20
377.725047
30
0.0
11
612.100000
21
377.725047
31
0.0
0
LINE
8
VISIBLE
10
617.700000
20
380.202334
30
0.0
11
617.700000
21
377.725047
31
0.0
0
LINE
8
VISIBLE
10
617.700000
20
380.202334
30
0.0
11
612.100000
21
380.202334
31
0.0
0
LINE
8
VISIBLE
10
617.700000
20
382.548666
30
0.0
11
617.700000
21
380.202334
31
0.0
0
LINE
8
VISIBLE
10
617.700000
20
382.548666
30
0.0
11
612.100000
21
382.548666
31
0.0
0
LINE
8
VISIBLE
10
617.700000
20
384.723894
30
0.0
11
617.700000
21
382.548666
31
0.0
0
LINE
8
VISIBLE
10
617.700000
20
384.723894
30
0.0
11
612.100000
21
384.723894
31
0.0
0
LINE
8
VISIBLE
10
617.700000
20
386.690801
30
0.0
11
617.700000
21
384.723894
31
0.0
0
LINE
8
VISIBLE
10
617.700000
20
386.690801
30
0.0
11
612.100000
21
386.690801
31
0.0
0
LINE
8
VISIBLE
10
617.700000
20
388.415733
30
0.0
11
617.700000
21
386.690801
31
0.0
0
LINE
8
VISIBLE
10
617.700000
20
388.415733
30
0.0
11
612.100000
21
388.415733
31
0.0
0
LINE
8
VISIBLE
10
617.700000
20
389.869174
30
0.0
11
617.700000
21
388.415733
31
0.0
0
LINE
8
VISIBLE
10
617.700000
20
389.869174
30
0.0
11
612.100000
21
389.869174
31
0.0
0
LINE
8
VISIBLE
10
617.700000
20
390.615796
30
0.0
11
617.700000
21
389.869174
31
0.0
0
LINE
8
VISIBLE
10
608.200000
20
385.994773
30
0.0
11
608.200000
21
359.102558
31
0.0
0
LINE
8
VISIBLE
10
613.100000
20
281.243529
30
0.0
11
613.100000
21
280.064204
31
0.0
0
LINE
8
VISIBLE
10
613.100000
20
282.548666
30
0.0
11
613.100000
21
281.243529
31
0.0
0
LINE
8
VISIBLE
10
613.100000
20
283.956465
30
0.0
11
613.100000
21
282.548666
31
0.0
0
LINE
8
VISIBLE
10
613.100000
20
285.442837
30
0.0
11
613.100000
21
283.956465
31
0.0
0
LINE
8
VISIBLE
10
613.100000
20
286.982352
30
0.0
11
613.100000
21
285.442837
31
0.0
0
LINE
8
VISIBLE
10
613.100000
20
288.548666
30
0.0
11
613.100000
21
286.982352
31
0.0
0
LINE
8
VISIBLE
10
613.100000
20
316.994666
30
0.0
11
613.100000
21
288.548666
31
0.0
0
LINE
8
VISIBLE
10
616.700000
20
330.823670
30
0.0
11
616.700000
21
331.148666
31
0.0
0
LINE
8
VISIBLE
10
616.700000
20
335.948666
30
0.0
11
616.700000
21
336.273661
31
0.0
0
LINE
8
VISIBLE
10
622.700000
20
330.313608
30
0.0
11
617.700000
21
330.313608
31
0.0
0
LINE
8
VISIBLE
10
622.700000
20
330.313608
30
0.0
11
622.700000
21
336.783724
31
0.0
0
LINE
8
VISIBLE
10
622.700000
20
336.783724
30
0.0
11
617.700000
21
336.783724
31
0.0
0
LINE
8
VISIBLE
10
617.700000
20
281.243529
30
0.0
11
617.700000
21
280.064204
31
0.0
0
LINE
8
VISIBLE
10
617.700000
20
282.548666
30
0.0
11
617.700000
21
281.243529
31
0.0
0
LINE
8
VISIBLE
10
617.700000
20
283.956465
30
0.0
11
617.700000
21
282.548666
31
0.0
0
LINE
8
VISIBLE
10
617.700000
20
285.442837
30
0.0
11
617.700000
21
283.956465
31
0.0
0
LINE
8
VISIBLE
10
617.700000
20
286.982352
30
0.0
11
617.700000
21
285.442837
31
0.0
0
LINE
8
VISIBLE
10
617.700000
20
288.548666
30
0.0
11
617.700000
21
286.982352
31
0.0
0
LINE
8
VISIBLE
10
617.700000
20
316.994666
30
0.0
11
617.700000
21
288.548666
31
0.0
0
LINE
8
VISIBLE
10
617.700000
20
288.548666
30
0.0
11
613.100000
21
288.548666
31
0.0
0
LINE
8
VISIBLE
10
622.700000
20
377.366300
30
0.0
11
617.700000
21
377.366300
31
0.0
0
LINE
8
VISIBLE
10
622.700000
20
362.052540
30
0.0
11
617.700000
21
362.052540
31
0.0
0
LINE
8
VISIBLE
10
622.700000
20
366.072791
30
0.0
11
617.700000
21
366.072791
31
0.0
0
LINE
8
VISIBLE
10
622.700000
20
314.620684
30
0.0
11
622.700000
21
314.384343
31
0.0
0
LINE
8
VISIBLE
10
622.700000
20
316.496706
30
0.0
11
622.700000
21
314.620684
31
0.0
0
LINE
8
VISIBLE
10
622.700000
20
318.637045
30
0.0
11
622.700000
21
316.496706
31
0.0
0
LINE
8
VISIBLE
10
622.700000
20
320.959448
30
0.0
11
622.700000
21
318.637045
31
0.0
0
LINE
8
VISIBLE
10
622.700000
20
323.374666
30
0.0
11
622.700000
21
320.959448
31
0.0
0
LINE
8
VISIBLE
10
622.700000
20
330.313608
30
0.0
11
622.700000
21
323.374666
31
0.0
0
LINE
8
VISIBLE
10
622.700000
20
362.052540
30
0.0
11
622.700000
21
336.783724
31
0.0
0
LINE
8
VISIBLE
10
622.700000
20
314.620684
30
0.0
11
617.700000
21
314.620684
31
0.0
0
LINE
8
VISIBLE
10
617.700000
20
281.243529
30
0.0
11
613.100000
21
281.243529
31
0.0
0
LINE
8
VISIBLE
10
617.700000
20
282.548666
30
0.0
11
613.100000
21
282.548666
31
0.0
0
LINE
8
VISIBLE
10
617.700000
20
283.956465
30
0.0
11
613.100000
21
283.956465
31
0.0
0
LINE
8
VISIBLE
10
617.700000
20
285.442837
30
0.0
11
613.100000
21
285.442837
31
0.0
0
LINE
8
VISIBLE
10
617.700000
20
286.982352
30
0.0
11
613.100000
21
286.982352
31
0.0
0
LINE
8
VISIBLE
10
613.100000
20
318.994666
30
0.0
11
612.100000
21
318.994666
31
0.0
0
LINE
8
VISIBLE
10
613.100000
20
335.730408
30
0.0
11
612.100000
21
335.730408
31
0.0
0
LINE
8
VISIBLE
10
613.100000
20
331.366923
30
0.0
11
612.100000
21
331.366923
31
0.0
0
LINE
8
VISIBLE
10
612.100000
20
318.994666
30
0.0
11
612.100000
21
331.366923
31
0.0
0
LINE
8
VISIBLE
10
612.100000
20
335.730408
30
0.0
11
612.100000
21
335.994666
31
0.0
0
LINE
8
VISIBLE
10
612.100000
20
335.994666
30
0.0
11
608.200000
21
335.994666
31
0.0
0
LINE
8
VISIBLE
10
622.700000
20
377.366300
30
0.0
11
622.700000
21
376.352287
31
0.0
0
LINE
8
VISIBLE
10
622.700000
20
376.352287
30
0.0
11
617.700000
21
376.352287
31
0.0
0
LINE
8
VISIBLE
10
622.700000
20
376.352287
30
0.0
11
622.700000
21
374.029884
31
0.0
0
LINE
8
VISIBLE
10
622.700000
20
374.029884
30
0.0
11
617.700000
21
374.029884
31
0.0
0
LINE
8
VISIBLE
10
622.700000
20
374.029884
30
0.0
11
622.700000
21
371.614666
31
0.0
0
LINE
8
VISIBLE
10
622.700000
20
371.614666
30
0.0
11
617.700000
21
371.614666
31
0.0
0
LINE
8
VISIBLE
10
622.700000
20
371.614666
30
0.0
11
622.700000
21
366.072791
31
0.0
0
LINE
8
VISIBLE
10
622.700000
20
323.374666
30
0.0
11
617.700000
21
323.374666
31
0.0
0
LINE
8
VISIBLE
10
622.700000
20
320.959448
30
0.0
11
617.700000
21
320.959448
31
0.0
0
LINE
8
VISIBLE
10
622.700000
20
318.637045
30
0.0
11
617.700000
21
318.637045
31
0.0
0
LINE
8
VISIBLE
10
622.700000
20
316.496706
30
0.0
11
617.700000
21
316.496706
31
0.0
0
LINE
8
SECTION
10
617.700000
20
385.434666
30
0.0
11
613.720000
21
385.434666
31
0.0
0
LINE
8
SECTION
10
613.720000
20
383.234666
30
0.0
11
613.720000
21
385.434666
31
0.0
0
LINE
8
SECTION
10
613.720000
20
383.234666
30
0.0
11
608.200000
21
383.234666
31
0.0
0
LINE
8
SECTION
10
608.200000
20
383.234666
30
0.0
11
608.200000
21
385.994773
31
0.0
0
LINE
8
SECTION
10
612.100000
20
385.994773
30
0.0
11
608.200000
21
385.994773
31
0.0
0
LINE
8
SECTION
10
612.100000
20
385.994773
30
0.0
11
612.100000
21
390.615796
31
0.0
0
LINE
8
SECTION
10
612.100000
20
390.615796
30
0.0
11
617.700000
21
390.615796
31
0.0
0
LINE
8
SECTION
10
617.700000
20
385.434666
30
0.0
11
617.700000
21
390.615796
31
0.0
0
LINE
8
SECTION
10
612.100000
20
353.994666
30
0.0
11
612.100000
21
359.102558
31
0.0
0
LINE
8
SECTION
10
612.100000
20
359.102558
30
0.0
11
608.200000
21
359.102558
31
0.0
0
LINE
8
SECTION
10
608.200000
20
359.102558
30
0.0
11
608.200000
21
361.862666
31
0.0
0
LINE
8
SECTION
10
613.720000
20
361.862666
30
0.0
11
608.200000
21
361.862666
31
0.0
0
LINE
8
SECTION
10
613.720000
20
359.662666
30
0.0
11
613.720000
21
361.862666
31
0.0
0
LINE
8
SECTION
10
622.700000
20
359.662666
30
0.0
11
613.720000
21
359.662666
31
0.0
0
LINE
8
SECTION
10
622.700000
20
314.384343
30
0.0
11
622.700000
21
359.662666
31
0.0
0
LINE
8
SECTION
10
617.700000
20
314.384343
30
0.0
11
622.700000
21
314.384343
31
0.0
0
LINE
8
SECTION
10
617.700000
20
293.839016
30
0.0
11
617.700000
21
314.384343
31
0.0
0
LINE
8
SECTION
10
624.100000
20
293.839016
30
0.0
11
617.700000
21
293.839016
31
0.0
0
LINE
8
SECTION
10
624.100000
20
283.258316
30
0.0
11
624.100000
21
293.839016
31
0.0
0
LINE
8
SECTION
10
624.100000
20
283.258316
30
0.0
11
617.700000
21
283.258316
31
0.0
0
LINE
8
SECTION
10
617.700000
20
280.064204
30
0.0
11
617.700000
21
283.258316
31
0.0
0
LINE
8
SECTION
10
617.700000
20
280.064204
30
0.0
11
613.100000
21
280.064204
31
0.0
0
LINE
8
SECTION
10
613.100000
20
280.064204
30
0.0
11
613.100000
21
283.258316
31
0.0
0
LINE
8
SECTION
10
613.100000
20
283.258316
30
0.0
11
612.100000
21
283.258316
31
0.0
0
LINE
8
SECTION
10
612.100000
20
283.258316
30
0.0
11
612.100000
21
293.839016
31
0.0
0
LINE
8
SECTION
10
613.100000
20
293.839016
30
0.0
11
612.100000
21
293.839016
31
0.0
0
LINE
8
SECTION
10
613.100000
20
293.839016
30
0.0
11
613.100000
21
335.994666
31
0.0
0
LINE
8
SECTION
10
608.200000
20
335.994666
30
0.0
11
613.100000
21
335.994666
31
0.0
0
LINE
8
SECTION
10
608.200000
20
335.994666
30
0.0
11
608.200000
21
346.994666
31
0.0
0
LINE
8
SECTION
10
608.200000
20
346.994666
30
0.0
11
613.100000
21
346.994666
31
0.0
0
LINE
8
SECTION
10
613.100000
20
346.994666
30
0.0
11
613.100000
21
353.994666
31
0.0
0
LINE
8
SECTION
10
613.100000
20
353.994666
30
0.0
11
612.100000
21
353.994666
31
0.0
0
LINE
8
SECTION
10
622.700000
20
368.462666
30
0.0
11
613.720000
21
368.462666
31
0.0
0
LINE
8
SECTION
10
613.720000
20
366.262666
30
0.0
11
613.720000
21
368.462666
31
0.0
0
LINE
8
SECTION
10
613.720000
20
366.262666
30
0.0
11
608.200000
21
366.262666
31
0.0
0
LINE
8
SECTION
10
608.200000
20
366.262666
30
0.0
11
608.200000
21
378.834666
31
0.0
0
LINE
8
SECTION
10
613.720000
20
378.834666
30
0.0
11
608.200000
21
378.834666
31
0.0
0
LINE
8
SECTION
10
613.720000
20
376.634666
30
0.0
11
613.720000
21
378.834666
31
0.0
0
LINE
8
SECTION
10
622.700000
20
376.634666
30
0.0
11
613.720000
21
376.634666
31
0.0
0
LINE
8
SECTION
10
622.700000
20
368.462666
30
0.0
11
622.700000
21
376.634666
31
0.0
0
LINE
8
VISIBLE
10
1120.698457
20
453.694093
30
0.0
11
1120.230001
21
453.964556
31
0.0
0
LINE
8
VISIBLE
10
1120.230001
20
464.000912
30
0.0
11
1120.230001
21
453.964556
31
0.0
0
LINE
8
VISIBLE
10
1120.310155
20
465.366737
30
0.0
11
1120.230001
21
464.000912
31
0.0
0
LINE
8
VISIBLE
10
1120.549246
20
466.616639
30
0.0
11
1120.310155
21
465.366737
31
0.0
0
LINE
8
VISIBLE
10
1120.943183
20
467.729230
30
0.0
11
1120.549246
21
466.616639
31
0.0
0
LINE
8
VISIBLE
10
1121.485226
20
468.685475
30
0.0
11
1120.943183
21
467.729230
31
0.0
0
LINE
8
VISIBLE
10
1122.166099
20
469.469012
30
0.0
11
1121.485226
21
468.685475
31
0.0
0
LINE
8
VISIBLE
10
1122.974154
20
470.066434
30
0.0
11
1122.166099
21
469.469012
31
0.0
0
LINE
8
VISIBLE
10
1126.078995
20
440.455173
30
0.0
11
1126.476394
21
441.241726
31
0.0
0
LINE
8
VISIBLE
10
1126.476394
20
441.241726
30
0.0
11
1126.445497
21
442.496183
31
0.0
0
LINE
8
VISIBLE
10
1126.445497
20
442.496183
30
0.0
11
1125.835414
21
444.038173
31
0.0
0
LINE
8
VISIBLE
10
1125.835414
20
444.038173
30
0.0
11
1124.258725
21
445.685131
31
0.0
0
LINE
8
VISIBLE
10
1122.384900
20
445.622922
30
0.0
11
1122.384900
21
442.674876
31
0.0
0
LINE
8
VISIBLE
10
1124.258725
20
445.685131
30
0.0
11
1122.906912
21
445.949381
31
0.0
0
LINE
8
VISIBLE
10
1124.258725
20
444.365269
30
0.0
11
1123.463728
21
444.444020
31
0.0
0
LINE
8
VISIBLE
10
1123.463728
20
444.444020
30
0.0
11
1123.153076
21
443.940846
31
0.0
0
LINE
8
VISIBLE
10
1123.153076
20
443.940846
30
0.0
11
1123.272265
21
443.013749
31
0.0
0
LINE
8
VISIBLE
10
1123.272265
20
443.013749
30
0.0
11
1123.939957
21
442.006135
31
0.0
0
LINE
8
VISIBLE
10
1123.939957
20
442.006135
30
0.0
11
1124.535752
21
441.648906
31
0.0
0
LINE
8
VISIBLE
10
1124.535752
20
441.648906
30
0.0
11
1125.053722
21
441.690070
31
0.0
0
LINE
8
VISIBLE
10
1125.053722
20
441.690070
30
0.0
11
1125.364375
21
442.193244
31
0.0
0
LINE
8
VISIBLE
10
1125.364375
20
442.193244
30
0.0
11
1125.245185
21
443.120341
31
0.0
0
LINE
8
VISIBLE
10
1125.245185
20
443.120341
30
0.0
11
1124.258725
21
444.365269
31
0.0
0
LINE
8
VISIBLE
10
1141.591610
20
435.074849
30
0.0
11
1140.636458
21
436.545835
31
0.0
0
LINE
8
VISIBLE
10
1140.636458
20
436.545835
30
0.0
11
1139.794020
21
437.255271
31
0.0
0
LINE
8
VISIBLE
10
1138.236538
20
452.394225
30
0.0
11
1138.031342
21
453.249519
31
0.0
0
LINE
8
VISIBLE
10
1138.236538
20
461.574834
30
0.0
11
1137.779937
21
463.013478
31
0.0
0
LINE
8
VISIBLE
10
1137.779937
20
463.013478
30
0.0
11
1136.501351
21
464.580266
31
0.0
0
LINE
8
VISIBLE
10
1130.067218
20
467.058012
30
0.0
11
1129.243737
21
468.499724
31
0.0
0
LINE
8
VISIBLE
10
1129.243737
20
468.499724
30
0.0
11
1128.247163
21
469.371774
31
0.0
0
LINE
8
VISIBLE
10
1128.247163
20
469.371774
30
0.0
11
1127.229766
21
469.649028
31
0.0
0
LINE
8
VISIBLE
10
1127.229766
20
469.649028
30
0.0
11
1126.789668
21
469.516150
31
0.0
0
LINE
8
VISIBLE
10
1126.789668
20
469.516150
30
0.0
11
1126.303974
21
468.907404
31
0.0
0
LINE
8
VISIBLE
10
1126.303974
20
468.907404
30
0.0
11
1126.206670
21
467.833189
31
0.0
0
LINE
8
VISIBLE
10
1126.206670
20
467.833189
30
0.0
11
1127.108988
21
465.664504
31
0.0
0
LINE
8
VISIBLE
10
1126.855084
20
465.262589
30
0.0
11
1127.108988
21
465.664504
31
0.0
0
LINE
8
VISIBLE
10
1126.525060
20
464.196878
30
0.0
11
1126.855084
21
465.262589
31
0.0
0
LINE
8
VISIBLE
10
1126.413624
20
462.954760
30
0.0
11
1126.525060
21
464.196878
31
0.0
0
LINE
8
VISIBLE
10
1126.413624
20
459.957011
30
0.0
11
1126.413624
21
462.954760
31
0.0
0
LINE
8
VISIBLE
10
1126.413624
20
459.957011
30
0.0
11
1126.186049
21
459.023827
31
0.0
0
LINE
8
VISIBLE
10
1126.186049
20
459.023827
30
0.0
11
1126.413624
21
457.782350
31
0.0
0
LINE
8
VISIBLE
10
1126.413624
20
444.113770
30
0.0
11
1126.413624
21
457.782350
31
0.0
0
LINE
8
VISIBLE
10
1126.413624
20
444.113770
30
0.0
11
1124.727182
21
445.955594
31
0.0
0
LINE
8
VISIBLE
10
1124.727182
20
445.955594
30
0.0
11
1123.652350
21
446.263279
31
0.0
0
LINE
8
VISIBLE
10
1123.652350
20
446.263279
30
0.0
11
1123.123938
21
446.114408
31
0.0
0
LINE
8
VISIBLE
10
1123.123938
20
446.114408
30
0.0
11
1122.853356
21
445.893385
31
0.0
0
LINE
8
VISIBLE
10
1122.853356
20
465.515507
30
0.0
11
1122.853356
21
445.893385
31
0.0
0
LINE
8
VISIBLE
10
1122.933510
20
466.881332
30
0.0
11
1122.853356
21
465.515507
31
0.0
0
LINE
8
VISIBLE
10
1123.172601
20
468.131234
30
0.0
11
1122.933510
21
466.881332
31
0.0
0
LINE
8
VISIBLE
10
1123.566539
20
469.243825
30
0.0
11
1123.172601
21
468.131234
31
0.0
0
LINE
8
VISIBLE
10
1124.108581
20
470.200071
30
0.0
11
1123.566539
21
469.243825
31
0.0
0
LINE
8
VISIBLE
10
1124.789455
20
470.983607
30
0.0
11
1124.108581
21
470.200071
31
0.0
0
LINE
8
VISIBLE
10
1125.597510
20
471.581029
30
0.0
11
1124.789455
21
470.983607
31
0.0
0
LINE
8
VISIBLE
10
1126.518920
20
471.982114
30
0.0
11
1125.597510
21
471.581029
31
0.0
0
LINE
8
VISIBLE
10
1127.537920
20
472.180000
30
0.0
11
1126.518920
21
471.982114
31
0.0
0
LINE
8
VISIBLE
10
1128.637073
20
472.171300
30
0.0
11
1127.537920
21
472.180000
31
0.0
0
LINE
8
VISIBLE
10
1129.797575
20
471.956164
30
0.0
11
1128.637073
21
472.171300
31
0.0
0
LINE
8
VISIBLE
10
1130.999567
20
471.538272
30
0.0
11
1129.797575
21
471.956164
31
0.0
0
LINE
8
VISIBLE
10
1132.222483
20
470.924775
30
0.0
11
1130.999567
21
471.538272
31
0.0
0
LINE
8
VISIBLE
10
1133.445400
20
470.126170
30
0.0
11
1132.222483
21
470.924775
31
0.0
0
LINE
8
VISIBLE
10
1134.647392
20
469.156121
30
0.0
11
1133.445400
21
470.126170
31
0.0
0
LINE
8
VISIBLE
10
1135.807893
20
468.031226
30
0.0
11
1134.647392
21
469.156121
31
0.0
0
LINE
8
VISIBLE
10
1136.907047
20
466.770732
30
0.0
11
1135.807893
21
468.031226
31
0.0
0
LINE
8
VISIBLE
10
1137.926046
20
465.396207
30
0.0
11
1136.907047
21
466.770732
31
0.0
0
LINE
8
VISIBLE
10
1138.847456
20
463.931169
30
0.0
11
1137.926046
21
465.396207
31
0.0
0
LINE
8
VISIBLE
10
1139.655511
20
462.400686
30
0.0
11
1138.847456
21
463.931169
31
0.0
0
LINE
8
VISIBLE
10
1140.336385
20
460.830944
30
0.0
11
1139.655511
21
462.400686
31
0.0
0
LINE
8
VISIBLE
10
1140.878428
20
459.248802
30
0.0
11
1140.336385
21
460.830944
31
0.0
0
LINE
8
VISIBLE
10
1141.272365
20
457.681331
30
0.0
11
1140.878428
21
459.248802
31
0.0
0
LINE
8
VISIBLE
10
1141.511456
20
456.155350
30
0.0
11
1141.272365
21
457.681331
31
0.0
0
LINE
8
VISIBLE
10
1141.591610
20
454.696971
30
0.0
11
1141.511456
21
456.155350
31
0.0
0
LINE
8
VISIBLE
10
1141.591610
20
435.074849
30
0.0
11
1141.591610
21
454.696971
31
0.0
0
LINE
8
VISIBLE
10
1140.373624
20
438.758594
30
0.0
11
1140.373624
21
452.427174
31
0.0
0
LINE
8
VISIBLE
10
1140.373624
20
452.427174
30
0.0
11
1139.481741
21
451.912246
31
0.0
0
LINE
8
VISIBLE
10
1140.373624
20
454.601836
30
0.0
11
1139.563520
21
456.048183
31
0.0
0
LINE
8
VISIBLE
10
1139.563520
20
456.048183
30
0.0
11
1138.540085
21
456.953177
31
0.0
0
LINE
8
VISIBLE
10
1140.373624
20
454.601836
30
0.0
11
1138.031342
21
453.249519
31
0.0
0
LINE
8
VISIBLE
10
1138.540085
20
456.953177
30
0.0
11
1137.522689
21
457.230431
31
0.0
0
LINE
8
VISIBLE
10
1137.522689
20
457.230431
30
0.0
11
1137.082591
21
457.097553
31
0.0
0
LINE
8
VISIBLE
10
1137.082591
20
457.097553
30
0.0
11
1136.596897
21
456.488806
31
0.0
0
LINE
8
VISIBLE
10
1136.596897
20
456.488806
30
0.0
11
1136.499593
21
455.414591
31
0.0
0
LINE
8
VISIBLE
10
1136.499593
20
455.414591
30
0.0
11
1136.949282
21
453.978089
31
0.0
0
LINE
8
VISIBLE
10
1136.949282
20
453.978089
30
0.0
11
1137.938022
21
452.644418
31
0.0
0
LINE
8
VISIBLE
10
1137.938022
20
452.644418
30
0.0
11
1139.072436
21
451.966419
31
0.0
0
LINE
8
VISIBLE
10
1139.072436
20
451.966419
30
0.0
11
1139.997580
21
452.048645
31
0.0
0
LINE
8
VISIBLE
10
1139.997580
20
452.048645
30
0.0
11
1140.373624
21
452.427174
31
0.0
0
LINE
8
VISIBLE
10
1140.373624
20
454.601836
30
0.0
11
1140.373624
21
457.599584
31
0.0
0
LINE
8
VISIBLE
10
1140.373624
20
457.599584
30
0.0
11
1140.262188
21
458.970378
31
0.0
0
LINE
8
VISIBLE
10
1140.262188
20
458.970378
30
0.0
11
1139.932164
21
460.417167
31
0.0
0
LINE
8
VISIBLE
10
1139.932164
20
460.417167
30
0.0
11
1139.678260
21
461.112266
31
0.0
0
LINE
8
VISIBLE
10
1136.720030
20
465.921643
30
0.0
11
1136.479536
21
465.003512
31
0.0
0
LINE
8
VISIBLE
10
1136.479536
20
465.003512
30
0.0
11
1136.732172
21
463.654395
31
0.0
0
LINE
8
VISIBLE
10
1136.732172
20
463.654395
30
0.0
11
1137.567233
21
462.217089
31
0.0
0
LINE
8
VISIBLE
10
1137.567233
20
462.217089
30
0.0
11
1138.717579
21
461.279995
31
0.0
0
LINE
8
VISIBLE
10
1138.717579
20
461.279995
30
0.0
11
1139.678260
21
461.112266
31
0.0
0
LINE
8
VISIBLE
10
1136.720030
20
465.921643
30
0.0
11
1135.705558
21
466.862692
31
0.0
0
LINE
8
VISIBLE
10
1135.705558
20
466.862692
30
0.0
11
1134.574134
21
467.644595
31
0.0
0
LINE
8
VISIBLE
10
1134.574134
20
467.644595
30
0.0
11
1134.555396
21
467.655413
31
0.0
0
LINE
8
VISIBLE
10
1134.555396
20
467.655413
30
0.0
11
1133.423971
21
468.179967
31
0.0
0
LINE
8
VISIBLE
10
1133.423971
20
468.179967
30
0.0
11
1132.409500
21
468.410329
31
0.0
0
LINE
8
VISIBLE
10
1132.409500
20
468.410329
30
0.0
11
1130.067218
21
467.058012
31
0.0
0
LINE
8
VISIBLE
10
1129.451270
20
467.016821
30
0.0
11
1130.583740
21
465.967238
31
0.0
0
LINE
8
VISIBLE
10
1130.583740
20
465.967238
30
0.0
11
1131.602568
21
465.686356
31
0.0
0
LINE
8
VISIBLE
10
1131.602568
20
465.686356
30
0.0
11
1132.046938
21
465.819559
31
0.0
0
LINE
8
VISIBLE
10
1132.046938
20
465.819559
30
0.0
11
1132.532633
21
466.428306
31
0.0
0
LINE
8
VISIBLE
10
1132.532633
20
466.428306
30
0.0
11
1132.629937
21
467.502521
31
0.0
0
LINE
8
VISIBLE
10
1132.629937
20
467.502521
30
0.0
11
1132.409500
21
468.410329
31
0.0
0
LINE
8
VISIBLE
10
1129.451270
20
467.016821
30
0.0
11
1127.108988
21
465.664504
31
0.0
0
LINE
8
VISIBLE
10
1126.382706
20
468.295330
30
0.0
11
1126.194560
21
468.394020
31
0.0
0
LINE
8
VISIBLE
10
1128.101176
20
466.237344
30
0.0
11
1127.192191
21
467.636750
31
0.0
0
LINE
8
VISIBLE
10
1127.192191
20
467.636750
30
0.0
11
1126.382706
21
468.295330
31
0.0
0
LINE
8
VISIBLE
10
1129.451270
20
467.016821
30
0.0
11
1129.197366
21
466.614906
31
0.0
0
LINE
8
VISIBLE
10
1129.197366
20
466.614906
30
0.0
11
1126.855084
21
465.262589
31
0.0
0
LINE
8
VISIBLE
10
1129.197366
20
466.614906
30
0.0
11
1128.867342
21
465.549195
31
0.0
0
LINE
8
VISIBLE
10
1128.867342
20
465.549195
30
0.0
11
1126.525060
21
464.196878
31
0.0
0
LINE
8
VISIBLE
10
1128.867342
20
465.549195
30
0.0
11
1128.755906
21
464.307077
31
0.0
0
LINE
8
VISIBLE
10
1128.755906
20
464.307077
30
0.0
11
1126.413624
21
462.954760
31
0.0
0
LINE
8
VISIBLE
10
1128.755906
20
464.307077
30
0.0
11
1128.755906
21
461.309328
31
0.0
0
LINE
8
VISIBLE
10
1128.755906
20
461.309328
30
0.0
11
1126.413624
21
459.957011
31
0.0
0
LINE
8
VISIBLE
10
1128.755906
20
459.134667
30
0.0
11
1129.566009
21
457.688319
31
0.0
0
LINE
8
VISIBLE
10
1129.566009
20
457.688319
30
0.0
11
1130.712386
21
456.716583
31
0.0
0
LINE
8
VISIBLE
10
1130.712386
20
456.716583
30
0.0
11
1131.434700
21
456.504644
31
0.0
0
LINE
8
VISIBLE
10
1131.434700
20
456.504644
30
0.0
11
1132.046938
21
456.638950
31
0.0
0
LINE
8
VISIBLE
10
1132.046938
20
456.638950
30
0.0
11
1132.532633
21
457.247696
31
0.0
0
LINE
8
VISIBLE
10
1132.532633
20
457.247696
30
0.0
11
1132.629937
21
458.321911
31
0.0
0
LINE
8
VISIBLE
10
1132.629937
20
458.321911
30
0.0
11
1132.180248
21
459.758413
31
0.0
0
LINE
8
VISIBLE
10
1132.180248
20
459.758413
30
0.0
11
1130.589444
21
461.543482
31
0.0
0
LINE
8
VISIBLE
10
1128.755906
20
459.134667
30
0.0
11
1126.413624
21
457.782350
31
0.0
0
LINE
8
VISIBLE
10
1130.589444
20
461.543482
30
0.0
11
1129.572048
21
461.820736
31
0.0
0
LINE
8
VISIBLE
10
1129.572048
20
461.820736
30
0.0
11
1129.131950
21
461.687858
31
0.0
0
LINE
8
VISIBLE
10
1129.131950
20
461.687858
30
0.0
11
1128.755906
21
461.309328
31
0.0
0
LINE
8
VISIBLE
10
1126.382706
20
459.114720
30
0.0
11
1126.194560
21
459.213411
31
0.0
0
LINE
8
VISIBLE
10
1127.324362
20
458.308164
30
0.0
11
1126.382706
21
459.114720
31
0.0
0
LINE
8
VISIBLE
10
1128.755906
20
459.134667
30
0.0
11
1128.755906
21
445.466087
31
0.0
0
LINE
8
VISIBLE
10
1128.755906
20
445.466087
30
0.0
11
1126.413624
21
444.113770
31
0.0
0
LINE
8
VISIBLE
10
1135.705558
20
427.632385
30
0.0
11
1136.793503
21
427.385340
31
0.0
0
LINE
8
VISIBLE
10
1134.574134
20
428.156939
30
0.0
11
1135.705558
21
427.632385
31
0.0
0
LINE
8
VISIBLE
10
1134.555396
20
428.167757
30
0.0
11
1134.574134
21
428.156939
31
0.0
0
LINE
8
VISIBLE
10
1133.423971
20
428.949660
30
0.0
11
1134.555396
21
428.167757
31
0.0
0
LINE
8
VISIBLE
10
1132.336027
20
429.958864
30
0.0
11
1133.423971
21
428.949660
31
0.0
0
LINE
8
VISIBLE
10
1131.333372
20
431.156587
30
0.0
11
1132.336027
21
429.958864
31
0.0
0
LINE
8
VISIBLE
10
1130.454537
20
432.496799
30
0.0
11
1131.333372
21
431.156587
31
0.0
0
LINE
8
VISIBLE
10
1129.733296
20
433.927999
30
0.0
11
1130.454537
21
432.496799
31
0.0
0
LINE
8
VISIBLE
10
1129.197366
20
435.395185
30
0.0
11
1129.733296
21
433.927999
31
0.0
0
LINE
8
VISIBLE
10
1128.867342
20
436.841974
30
0.0
11
1129.197366
21
435.395185
31
0.0
0
LINE
8
VISIBLE
10
1128.755906
20
438.212768
30
0.0
11
1128.867342
21
436.841974
31
0.0
0
LINE
8
VISIBLE
10
1128.755906
20
441.966228
30
0.0
11
1128.755906
21
438.212768
31
0.0
0
LINE
8
VISIBLE
10
1128.755906
20
441.966228
30
0.0
11
1129.230906
21
442.651183
31
0.0
0
LINE
8
VISIBLE
10
1129.230906
20
442.651183
30
0.0
11
1129.308884
21
443.806409
31
0.0
0
LINE
8
VISIBLE
10
1129.308884
20
443.806409
30
0.0
11
1128.755906
21
445.466087
31
0.0
0
LINE
8
VISIBLE
10
1140.373624
20
438.758594
30
0.0
11
1139.898623
21
438.073639
31
0.0
0
LINE
8
VISIBLE
10
1139.898623
20
438.073639
30
0.0
11
1139.820646
21
436.918413
31
0.0
0
LINE
8
VISIBLE
10
1139.820646
20
436.918413
30
0.0
11
1140.373624
21
435.258735
31
0.0
0
LINE
8
VISIBLE
10
1140.373624
20
431.505276
30
0.0
11
1140.373624
21
435.258735
31
0.0
0
LINE
8
VISIBLE
10
1140.262188
20
430.263157
30
0.0
11
1140.373624
21
431.505276
31
0.0
0
LINE
8
VISIBLE
10
1139.932164
20
429.197447
30
0.0
11
1140.262188
21
430.263157
31
0.0
0
LINE
8
VISIBLE
10
1139.396233
20
428.349100
30
0.0
11
1139.932164
21
429.197447
31
0.0
0
LINE
8
VISIBLE
10
1138.674992
20
427.750717
30
0.0
11
1139.396233
21
428.349100
31
0.0
0
LINE
8
VISIBLE
10
1137.796158
20
427.425296
30
0.0
11
1138.674992
21
427.750717
31
0.0
0
LINE
8
VISIBLE
10
1136.793503
20
427.385340
30
0.0
11
1137.796158
21
427.425296
31
0.0
0
LINE
8
VISIBLE
10
1136.800069
20
449.129877
30
0.0
11
1136.880043
21
448.779282
31
0.0
0
LINE
8
VISIBLE
10
1136.670199
20
449.485415
30
0.0
11
1136.800069
21
449.129877
31
0.0
0
LINE
8
VISIBLE
10
1136.880043
20
448.779282
30
0.0
11
1136.907047
21
448.447103
31
0.0
0
LINE
8
VISIBLE
10
1136.495424
20
449.832233
30
0.0
11
1136.670199
21
449.485415
31
0.0
0
LINE
8
VISIBLE
10
1136.907047
20
448.447103
30
0.0
11
1136.907047
21
439.251347
31
0.0
0
LINE
8
VISIBLE
10
1136.282459
20
450.157001
30
0.0
11
1136.495424
21
449.832233
31
0.0
0
LINE
8
VISIBLE
10
1136.907047
20
439.251347
30
0.0
11
1136.880043
21
438.950349
31
0.0
0
LINE
8
VISIBLE
10
1136.039489
20
450.447241
30
0.0
11
1136.282459
21
450.157001
31
0.0
0
LINE
8
VISIBLE
10
1136.880043
20
438.950349
30
0.0
11
1136.800069
21
438.692100
31
0.0
0
LINE
8
VISIBLE
10
1135.775851
20
450.691798
30
0.0
11
1136.039489
21
450.447241
31
0.0
0
LINE
8
VISIBLE
10
1136.800069
20
438.692100
30
0.0
11
1136.670199
21
438.486523
31
0.0
0
LINE
8
VISIBLE
10
1135.501678
20
450.881273
30
0.0
11
1135.775851
21
450.691798
31
0.0
0
LINE
8
VISIBLE
10
1136.670199
20
438.486523
30
0.0
11
1136.495424
21
438.341519
31
0.0
0
LINE
8
VISIBLE
10
1133.627852
20
451.963127
30
0.0
11
1135.501678
21
450.881273
31
0.0
0
LINE
8
VISIBLE
10
1136.495424
20
438.341519
30
0.0
11
1136.282459
21
438.262661
31
0.0
0
LINE
8
VISIBLE
10
1133.353678
20
452.090240
30
0.0
11
1133.627852
21
451.963127
31
0.0
0
LINE
8
VISIBLE
10
1136.282459
20
438.262661
30
0.0
11
1136.039489
21
438.252978
31
0.0
0
LINE
8
VISIBLE
10
1133.090041
20
452.150106
30
0.0
11
1133.353678
21
452.090240
31
0.0
0
LINE
8
VISIBLE
10
1136.039489
20
438.252978
30
0.0
11
1135.775851
21
438.312844
31
0.0
0
LINE
8
VISIBLE
10
1132.847071
20
452.140424
30
0.0
11
1133.090041
21
452.150106
31
0.0
0
LINE
8
VISIBLE
10
1135.775851
20
438.312844
30
0.0
11
1135.501678
21
438.439957
31
0.0
0
LINE
8
VISIBLE
10
1132.634106
20
452.061565
30
0.0
11
1132.847071
21
452.140424
31
0.0
0
LINE
8
VISIBLE
10
1135.501678
20
438.439957
30
0.0
11
1133.627852
21
439.521811
31
0.0
0
LINE
8
VISIBLE
10
1132.459331
20
451.916561
30
0.0
11
1132.634106
21
452.061565
31
0.0
0
LINE
8
VISIBLE
10
1133.627852
20
439.521811
30
0.0
11
1133.353678
21
439.711286
31
0.0
0
LINE
8
VISIBLE
10
1132.329460
20
451.710985
30
0.0
11
1132.459331
21
451.916561
31
0.0
0
LINE
8
VISIBLE
10
1133.353678
20
439.711286
30
0.0
11
1133.090041
21
439.955843
31
0.0
0
LINE
8
VISIBLE
10
1132.249487
20
451.452735
30
0.0
11
1132.329460
21
451.710985
31
0.0
0
LINE
8
VISIBLE
10
1133.090041
20
439.955843
30
0.0
11
1132.847071
21
440.246083
31
0.0
0
LINE
8
VISIBLE
10
1132.222483
20
451.151737
30
0.0
11
1132.249487
21
451.452735
31
0.0
0
LINE
8
VISIBLE
10
1132.847071
20
440.246083
30
0.0
11
1132.634106
21
440.570852
31
0.0
0
LINE
8
VISIBLE
10
1132.222483
20
441.955981
30
0.0
11
1132.222483
21
451.151737
31
0.0
0
LINE
8
VISIBLE
10
1132.634106
20
440.570852
30
0.0
11
1132.459331
21
440.917669
31
0.0
0
LINE
8
VISIBLE
10
1132.249487
20
441.623802
30
0.0
11
1132.222483
21
441.955981
31
0.0
0
LINE
8
VISIBLE
10
1132.459331
20
440.917669
30
0.0
11
1132.329460
21
441.273207
31
0.0
0
LINE
8
VISIBLE
10
1132.329460
20
441.273207
30
0.0
11
1132.249487
21
441.623802
31
0.0
0
LINE
8
VISIBLE
10
1134.564765
20
464.704117
30
0.0
11
1133.350307
21
465.086688
31
0.0
0
LINE
8
VISIBLE
10
1133.350307
20
465.086688
30
0.0
11
1132.577273
21
464.900993
31
0.0
0
LINE
8
VISIBLE
10
1132.577273
20
464.900993
30
0.0
11
1131.980317
21
464.226555
31
0.0
0
LINE
8
VISIBLE
10
1131.980317
20
464.226555
30
0.0
11
1131.754030
21
463.076731
31
0.0
0
LINE
8
VISIBLE
10
1131.754030
20
463.076731
30
0.0
11
1132.040143
21
461.489481
31
0.0
0
LINE
8
VISIBLE
10
1132.040143
20
461.489481
30
0.0
11
1132.925275
21
459.768876
31
0.0
0
LINE
8
VISIBLE
10
1132.925275
20
459.768876
30
0.0
11
1134.219759
21
458.436727
31
0.0
0
LINE
8
VISIBLE
10
1134.219759
20
458.436727
30
0.0
11
1135.498794
21
457.858175
31
0.0
0
LINE
8
VISIBLE
10
1135.498794
20
457.858175
30
0.0
11
1136.552257
21
458.016119
31
0.0
0
LINE
8
VISIBLE
10
1136.552257
20
458.016119
30
0.0
11
1137.149213
21
458.690557
31
0.0
0
LINE
8
VISIBLE
10
1137.149213
20
458.690557
30
0.0
11
1137.375500
21
459.840382
31
0.0
0
LINE
8
VISIBLE
10
1137.375500
20
459.840382
30
0.0
11
1137.089387
21
461.427632
31
0.0
0
LINE
8
VISIBLE
10
1137.089387
20
461.427632
30
0.0
11
1136.204255
21
463.148236
31
0.0
0
LINE
8
VISIBLE
10
1136.204255
20
463.148236
30
0.0
11
1134.564765
21
464.704117
31
0.0
0
LINE
8
VISIBLE
10
1139.417419
20
416.379619
30
0.0
11
1141.591610
21
424.646324
31
0.0
0
LINE
8
VISIBLE
10
1141.591610
20
424.646324
30
0.0
11
1141.591610
21
432.126803
31
0.0
0
LINE
8
VISIBLE
10
1140.373624
20
431.797864
30
0.0
11
1141.321028
21
431.905780
31
0.0
0
LINE
8
VISIBLE
10
1141.321028
20
431.905780
30
0.0
11
1141.591610
21
432.126803
31
0.0
0
LINE
8
VISIBLE
10
1137.652412
20
409.853391
30
0.0
11
1137.716946
21
410.190758
31
0.0
0
LINE
8
VISIBLE
10
1137.416050
20
409.185836
30
0.0
11
1137.652412
21
409.853391
31
0.0
0
LINE
8
VISIBLE
10
1137.090824
20
408.612089
30
0.0
11
1137.416050
21
409.185836
31
0.0
0
LINE
8
VISIBLE
10
1136.682300
20
408.141967
30
0.0
11
1137.090824
21
408.612089
31
0.0
0
LINE
8
VISIBLE
10
1136.197467
20
407.783514
30
0.0
11
1136.682300
21
408.141967
31
0.0
0
LINE
8
VISIBLE
10
1135.644621
20
407.542863
30
0.0
11
1136.197467
21
407.783514
31
0.0
0
LINE
8
VISIBLE
10
1136.332711
20
426.398400
30
0.0
11
1135.453876
21
426.072979
31
0.0
0
LINE
8
VISIBLE
10
1135.033221
20
407.424132
30
0.0
11
1135.644621
21
407.542863
31
0.0
0
LINE
8
VISIBLE
10
1135.453876
20
426.072979
30
0.0
11
1134.451221
21
426.033023
31
0.0
0
LINE
8
VISIBLE
10
1134.373729
20
407.429351
30
0.0
11
1135.033221
21
407.424132
31
0.0
0
LINE
8
VISIBLE
10
1134.451221
20
426.033023
30
0.0
11
1133.363277
21
426.280068
31
0.0
0
LINE
8
VISIBLE
10
1133.677428
20
407.558433
30
0.0
11
1134.373729
21
407.429351
31
0.0
0
LINE
8
VISIBLE
10
1133.363277
20
426.280068
30
0.0
11
1132.231852
21
426.804622
31
0.0
0
LINE
8
VISIBLE
10
1132.956233
20
407.809168
30
0.0
11
1133.677428
21
407.558433
31
0.0
0
LINE
8
VISIBLE
10
1132.231852
20
426.804622
30
0.0
11
1132.213114
21
426.815440
31
0.0
0
LINE
8
VISIBLE
10
1132.222483
20
408.177267
30
0.0
11
1132.956233
21
407.809168
31
0.0
0
LINE
8
VISIBLE
10
1132.213114
20
426.815440
30
0.0
11
1131.081690
21
427.597343
31
0.0
0
LINE
8
VISIBLE
10
1131.488733
20
408.656430
30
0.0
11
1132.222483
21
408.177267
31
0.0
0
LINE
8
VISIBLE
10
1131.081690
20
427.597343
30
0.0
11
1129.993745
21
428.606547
31
0.0
0
LINE
8
VISIBLE
10
1130.767538
20
409.238459
30
0.0
11
1131.488733
21
408.656430
31
0.0
0
LINE
8
VISIBLE
10
1129.993745
20
428.606547
30
0.0
11
1128.991090
21
429.804270
31
0.0
0
LINE
8
VISIBLE
10
1130.071237
20
409.913396
30
0.0
11
1130.767538
21
409.238459
31
0.0
0
LINE
8
VISIBLE
10
1128.991090
20
429.804270
30
0.0
11
1128.112256
21
431.144482
31
0.0
0
LINE
8
VISIBLE
10
1129.411745
20
410.669692
30
0.0
11
1130.071237
21
409.913396
31
0.0
0
LINE
8
VISIBLE
10
1128.112256
20
431.144482
30
0.0
11
1127.391015
21
432.575682
31
0.0
0
LINE
8
VISIBLE
10
1128.800345
20
411.494407
30
0.0
11
1129.411745
21
410.669692
31
0.0
0
LINE
8
VISIBLE
10
1127.391015
20
432.575682
30
0.0
11
1126.855084
21
434.042868
31
0.0
0
LINE
8
VISIBLE
10
1128.247499
20
412.373430
30
0.0
11
1128.800345
21
411.494407
31
0.0
0
LINE
8
VISIBLE
10
1126.855084
20
434.042868
30
0.0
11
1126.525060
21
435.489657
31
0.0
0
LINE
8
VISIBLE
10
1127.762666
20
413.291720
30
0.0
11
1128.247499
21
412.373430
31
0.0
0
LINE
8
VISIBLE
10
1126.525060
20
435.489657
30
0.0
11
1126.413624
21
436.860451
31
0.0
0
LINE
8
VISIBLE
10
1127.354142
20
414.233565
30
0.0
11
1127.762666
21
413.291720
31
0.0
0
LINE
8
VISIBLE
10
1126.413624
20
436.860451
30
0.0
11
1126.413624
21
440.613911
31
0.0
0
LINE
8
VISIBLE
10
1127.028916
20
415.182851
30
0.0
11
1127.354142
21
414.233565
31
0.0
0
LINE
8
VISIBLE
10
1122.853356
20
442.945339
30
0.0
11
1123.808508
21
441.474353
31
0.0
0
LINE
8
VISIBLE
10
1123.808508
20
441.474353
30
0.0
11
1125.019300
21
440.572588
31
0.0
0
LINE
8
VISIBLE
10
1125.019300
20
440.572588
30
0.0
11
1126.330425
21
440.560609
31
0.0
0
LINE
8
VISIBLE
10
1126.330425
20
440.560609
30
0.0
11
1126.413624
21
440.613911
31
0.0
0
LINE
8
VISIBLE
10
1126.792554
20
416.123333
30
0.0
11
1127.028916
21
415.182851
31
0.0
0
LINE
8
VISIBLE
10
1122.853356
20
442.945339
30
0.0
11
1122.853356
21
435.464860
31
0.0
0
LINE
8
VISIBLE
10
1126.649099
20
417.038921
30
0.0
11
1126.792554
21
416.123333
31
0.0
0
LINE
8
VISIBLE
10
1122.853356
20
435.464860
30
0.0
11
1126.366779
21
418.049181
31
0.0
0
LINE
8
VISIBLE
10
1126.601007
20
417.913949
30
0.0
11
1126.649099
21
417.038921
31
0.0
0
LINE
8
VISIBLE
10
1126.366779
20
418.049181
30
0.0
11
1126.601007
21
417.913949
31
0.0
0
LINE
8
VISIBLE
10
1128.909997
20
420.405783
30
0.0
11
1128.089092
21
419.600442
31
0.0
0
LINE
8
VISIBLE
10
1128.089092
20
419.600442
30
0.0
11
1127.615941
21
418.311102
31
0.0
0
LINE
8
VISIBLE
10
1127.615941
20
418.311102
30
0.0
11
1127.591703
21
416.524652
31
0.0
0
LINE
8
VISIBLE
10
1127.591703
20
416.524652
30
0.0
11
1128.146542
21
414.355340
31
0.0
0
LINE
8
VISIBLE
10
1128.146542
20
414.355340
30
0.0
11
1129.308803
21
412.114943
31
0.0
0
LINE
8
VISIBLE
10
1129.308803
20
412.114943
30
0.0
11
1130.912977
21
410.230804
31
0.0
0
LINE
8
VISIBLE
10
1130.912977
20
410.230804
30
0.0
11
1132.641277
21
409.038989
31
0.0
0
LINE
8
VISIBLE
10
1132.641277
20
409.038989
30
0.0
11
1134.184328
21
408.623650
31
0.0
0
LINE
8
VISIBLE
10
1134.184328
20
408.623650
30
0.0
11
1135.534970
21
408.930993
31
0.0
0
LINE
8
VISIBLE
10
1126.382706
20
467.105291
30
0.0
11
1126.362241
21
467.116872
31
0.0
0
LINE
8
VISIBLE
10
1127.341350
20
465.798658
30
0.0
11
1126.382706
21
467.105291
31
0.0
0
LINE
8
VISIBLE
10
1126.382706
20
457.924681
30
0.0
11
1126.362241
21
457.936262
31
0.0
0
LINE
8
VISIBLE
10
1126.513141
20
457.839806
30
0.0
11
1126.382706
21
457.924681
31
0.0
0
LINE
8
VISIBLE
10
1128.755906
20
438.212768
30
0.0
11
1126.413624
21
436.860451
31
0.0
0
LINE
8
VISIBLE
10
1128.755906
20
441.966228
30
0.0
11
1126.413624
21
440.613911
31
0.0
0
LINE
8
VISIBLE
10
1138.674992
20
427.750717
30
0.0
11
1136.332711
21
426.398400
31
0.0
0
LINE
8
VISIBLE
10
1137.796158
20
427.425296
30
0.0
11
1135.453876
21
426.072979
31
0.0
0
LINE
8
VISIBLE
10
1136.793503
20
427.385340
30
0.0
11
1134.451221
21
426.033023
31
0.0
0
LINE
8
VISIBLE
10
1135.705558
20
427.632385
30
0.0
11
1133.363277
21
426.280068
31
0.0
0
LINE
8
VISIBLE
10
1134.574134
20
428.156939
30
0.0
11
1132.231852
21
426.804622
31
0.0
0
LINE
8
VISIBLE
10
1134.555396
20
428.167757
30
0.0
11
1132.213114
21
426.815440
31
0.0
0
LINE
8
VISIBLE
10
1133.423971
20
428.949660
30
0.0
11
1131.081690
21
427.597343
31
0.0
0
LINE
8
VISIBLE
10
1132.336027
20
429.958864
30
0.0
11
1129.993745
21
428.606547
31
0.0
0
LINE
8
VISIBLE
10
1131.333372
20
431.156587
30
0.0
11
1128.991090
21
429.804270
31
0.0
0
LINE
8
VISIBLE
10
1130.454537
20
432.496799
30
0.0
11
1128.112256
21
431.144482
31
0.0
0
LINE
8
VISIBLE
10
1129.733296
20
433.927999
30
0.0
11
1127.391015
21
432.575682
31
0.0
0
LINE
8
VISIBLE
10
1129.197366
20
435.395185
30
0.0
11
1126.855084
21
434.042868
31
0.0
0
LINE
8
VISIBLE
10
1128.867342
20
436.841974
30
0.0
11
1126.525060
21
435.489657
31
0.0
0
LINE
8
VISIBLE
10
1135.220604
20
421.808622
30
0.0
11
1133.609373
21
422.408846
31
0.0
0
LINE
8
VISIBLE
10
1133.609373
20
422.408846
30
0.0
11
1131.908117
21
422.136749
31
0.0
0
LINE
8
VISIBLE
10
1131.908117
20
422.136749
30
0.0
11
1131.087212
21
421.331408
31
0.0
0
LINE
8
VISIBLE
10
1131.087212
20
421.331408
30
0.0
11
1130.614061
21
420.042068
31
0.0
0
LINE
8
VISIBLE
10
1130.614061
20
420.042068
30
0.0
11
1130.589823
21
418.255618
31
0.0
0
LINE
8
VISIBLE
10
1130.589823
20
418.255618
30
0.0
11
1131.144663
21
416.086306
31
0.0
0
LINE
8
VISIBLE
10
1131.144663
20
416.086306
30
0.0
11
1132.306924
21
413.845909
31
0.0
0
LINE
8
VISIBLE
10
1132.306924
20
413.845909
30
0.0
11
1133.911098
21
411.961770
31
0.0
0
LINE
8
VISIBLE
10
1133.911098
20
411.961770
30
0.0
11
1135.639398
21
410.769954
31
0.0
0
LINE
8
VISIBLE
10
1135.639398
20
410.769954
30
0.0
11
1137.182448
21
410.354616
31
0.0
0
LINE
8
VISIBLE
10
1137.182448
20
410.354616
30
0.0
11
1138.533090
21
410.661959
31
0.0
0
LINE
8
VISIBLE
10
1138.533090
20
410.661959
30
0.0
11
1139.353995
21
411.467300
31
0.0
0
LINE
8
VISIBLE
10
1139.353995
20
411.467300
30
0.0
11
1139.827146
21
412.756640
31
0.0
0
LINE
8
VISIBLE
10
1139.827146
20
412.756640
30
0.0
11
1139.851384
21
414.543090
31
0.0
0
LINE
8
VISIBLE
10
1139.851384
20
414.543090
30
0.0
11
1139.296545
21
416.712402
31
0.0
0
LINE
8
VISIBLE
10
1139.296545
20
416.712402
30
0.0
11
1138.134284
21
418.952799
31
0.0
0
LINE
8
VISIBLE
10
1138.134284
20
418.952799
30
0.0
11
1136.530110
21
420.836938
31
0.0
0
LINE
8
VISIBLE
10
1136.530110
20
420.836938
30
0.0
11
1135.220604
21
421.808622
31
0.0
0
LINE
8
VISIBLE
10
1136.800069
20
449.129877
30
0.0
11
1132.302888
21
446.533429
31
0.0
0
LINE
8
VISIBLE
10
1132.302888
20
446.533429
30
0.0
11
1132.382862
21
446.182834
31
0.0
0
LINE
8
VISIBLE
10
1136.880043
20
448.779282
30
0.0
11
1132.382862
21
446.182834
31
0.0
0
LINE
8
VISIBLE
10
1141.123154
20
434.804386
30
0.0
11
1139.883123
21
436.560013
31
0.0
0
LINE
8
VISIBLE
10
1141.123154
20
431.856340
30
0.0
11
1141.123154
21
434.804386
31
0.0
0
LINE
8
VISIBLE
10
1141.069598
20
431.800344
30
0.0
11
1141.123154
21
431.856340
31
0.0
0
LINE
8
VISIBLE
10
1120.698457
20
454.235020
30
0.0
11
1120.698457
21
434.220728
31
0.0
0
LINE
8
VISIBLE
10
1120.698457
20
434.220728
30
0.0
11
1124.211880
21
416.805049
31
0.0
0
LINE
8
VISIBLE
10
1124.211880
20
416.805049
30
0.0
11
1124.446108
21
416.669817
31
0.0
0
LINE
8
VISIBLE
10
1124.446108
20
416.669817
30
0.0
11
1124.494200
21
415.794790
31
0.0
0
LINE
8
VISIBLE
10
1124.494200
20
415.794790
30
0.0
11
1124.637655
21
414.879202
31
0.0
0
LINE
8
VISIBLE
10
1124.637655
20
414.879202
30
0.0
11
1124.874017
21
413.938719
31
0.0
0
LINE
8
VISIBLE
10
1124.874017
20
413.938719
30
0.0
11
1125.199243
21
412.989434
31
0.0
0
LINE
8
VISIBLE
10
1125.199243
20
412.989434
30
0.0
11
1125.607767
21
412.047589
31
0.0
0
LINE
8
VISIBLE
10
1125.607767
20
412.047589
30
0.0
11
1126.092600
21
411.129299
31
0.0
0
LINE
8
VISIBLE
10
1126.092600
20
411.129299
30
0.0
11
1126.645446
21
410.250276
31
0.0
0
LINE
8
VISIBLE
10
1126.645446
20
410.250276
30
0.0
11
1127.256846
21
409.425561
31
0.0
0
LINE
8
VISIBLE
10
1127.256846
20
409.425561
30
0.0
11
1127.916338
21
408.669265
31
0.0
0
LINE
8
VISIBLE
10
1127.916338
20
408.669265
30
0.0
11
1128.612639
21
407.994328
31
0.0
0
LINE
8
VISIBLE
10
1128.612639
20
407.994328
30
0.0
11
1129.333834
21
407.412298
31
0.0
0
LINE
8
VISIBLE
10
1129.333834
20
407.412298
30
0.0
11
1130.067584
21
406.933135
31
0.0
0
LINE
8
VISIBLE
10
1130.067584
20
406.933135
30
0.0
11
1130.801334
21
406.565037
31
0.0
0
LINE
8
VISIBLE
10
1130.801334
20
406.565037
30
0.0
11
1131.522529
21
406.314302
31
0.0
0
LINE
8
VISIBLE
10
1131.522529
20
406.314302
30
0.0
11
1132.218830
21
406.185220
31
0.0
0
LINE
8
VISIBLE
10
1132.218830
20
406.185220
30
0.0
11
1132.878322
21
406.180000
31
0.0
0
LINE
8
VISIBLE
10
1132.878322
20
406.180000
30
0.0
11
1133.489722
21
406.298731
31
0.0
0
LINE
8
VISIBLE
10
1133.489722
20
406.298731
30
0.0
11
1134.042568
21
406.539382
31
0.0
0
LINE
8
VISIBLE
10
1132.409866
20
445.850654
30
0.0
11
1132.409866
21
441.053086
31
0.0
0
LINE
8
VISIBLE
10
1132.382862
20
446.182834
30
0.0
11
1132.409866
21
445.850654
31
0.0
0
LINE
8
VISIBLE
10
1132.222483
20
446.753550
30
0.0
11
1132.302888
21
446.533429
31
0.0
0
LINE
8
VISIBLE
10
1136.670199
20
449.485415
30
0.0
11
1132.222483
21
446.917525
31
0.0
0
LINE
8
VISIBLE
10
1136.907047
20
448.447103
30
0.0
11
1132.409866
21
445.850654
31
0.0
0
LINE
8
VISIBLE
10
1136.495424
20
449.832233
30
0.0
11
1132.222483
21
447.365249
31
0.0
0
LINE
8
VISIBLE
10
1136.907047
20
439.251347
30
0.0
11
1135.501678
21
438.439957
31
0.0
0
LINE
8
VISIBLE
10
1136.282459
20
450.157001
30
0.0
11
1132.222483
21
447.812973
31
0.0
0
LINE
8
VISIBLE
10
1136.880043
20
438.950349
30
0.0
11
1135.775851
21
438.312844
31
0.0
0
LINE
8
VISIBLE
10
1136.039489
20
450.447241
30
0.0
11
1132.222483
21
448.243492
31
0.0
0
LINE
8
VISIBLE
10
1136.800069
20
438.692100
30
0.0
11
1136.039489
21
438.252978
31
0.0
0
LINE
8
VISIBLE
10
1135.775851
20
450.691798
30
0.0
11
1132.222483
21
448.640260
31
0.0
0
LINE
8
VISIBLE
10
1136.670199
20
438.486523
30
0.0
11
1136.282459
21
438.262661
31
0.0
0
LINE
8
VISIBLE
10
1135.501678
20
450.881273
30
0.0
11
1132.222483
21
448.988030
31
0.0
0
LINE
8
VISIBLE
10
1133.627852
20
451.963127
30
0.0
11
1132.222483
21
451.151737
31
0.0
0
LINE
8
VISIBLE
10
1133.353678
20
452.090240
30
0.0
11
1132.249487
21
451.452735
31
0.0
0
LINE
8
VISIBLE
10
1133.090041
20
452.150106
30
0.0
11
1132.329460
21
451.710985
31
0.0
0
LINE
8
VISIBLE
10
1132.847071
20
452.140424
30
0.0
11
1132.459331
21
451.916561
31
0.0
0
LINE
8
VISIBLE
10
1132.409866
20
442.605094
30
0.0
11
1132.222483
21
442.496908
31
0.0
0
LINE
8
VISIBLE
10
1135.220604
20
419.374451
30
0.0
11
1134.064451
21
419.725609
31
0.0
0
LINE
8
VISIBLE
10
1134.064451
20
419.725609
30
0.0
11
1133.398736
21
419.554921
31
0.0
0
LINE
8
VISIBLE
10
1133.398736
20
419.554921
30
0.0
11
1132.834691
21
418.899849
31
0.0
0
LINE
8
VISIBLE
10
1132.834691
20
418.899849
30
0.0
11
1132.645990
21
417.771687
31
0.0
0
LINE
8
VISIBLE
10
1132.645990
20
417.771687
30
0.0
11
1132.980264
21
416.223446
31
0.0
0
LINE
8
VISIBLE
10
1132.980264
20
416.223446
30
0.0
11
1133.904189
21
414.601926
31
0.0
0
LINE
8
VISIBLE
10
1133.904189
20
414.601926
30
0.0
11
1135.175747
21
413.450605
31
0.0
0
LINE
8
VISIBLE
10
1135.175747
20
413.450605
30
0.0
11
1136.341618
21
413.073397
31
0.0
0
LINE
8
VISIBLE
10
1136.341618
20
413.073397
30
0.0
11
1137.042471
21
413.243787
31
0.0
0
LINE
8
VISIBLE
10
1137.042471
20
413.243787
30
0.0
11
1137.606516
21
413.898859
31
0.0
0
LINE
8
VISIBLE
10
1137.606516
20
413.898859
30
0.0
11
1137.795217
21
415.027021
31
0.0
0
LINE
8
VISIBLE
10
1137.795217
20
415.027021
30
0.0
11
1137.460943
21
416.575262
31
0.0
0
LINE
8
VISIBLE
10
1137.460943
20
416.575262
30
0.0
11
1136.537019
21
418.196782
31
0.0
0
LINE
8
VISIBLE
10
1136.537019
20
418.196782
30
0.0
11
1135.220604
21
419.374451
31
0.0
0
LINE
8
VISIBLE
10
1134.389595
20
414.063033
30
0.0
11
1133.680563
21
415.717747
31
0.0
0
LINE
8
VISIBLE
10
1133.680563
20
415.717747
30
0.0
11
1132.781787
21
416.847840
31
0.0
0
LINE
8
VISIBLE
10
1119.808390
20
442.361676
30
0.0
11
1120.698457
21
441.847796
31
0.0
0
LINE
8
VISIBLE
10
1120.698457
20
442.875557
30
0.0
11
1119.808390
21
442.361676
31
0.0
0
LINE
8
VISIBLE
10
1119.808390
20
442.361676
30
0.0
11
1119.808390
21
448.311871
31
0.0
0
LINE
8
VISIBLE
10
1141.591610
20
432.126803
30
0.0
11
1141.123154
21
431.856340
31
0.0
0
LINE
8
VISIBLE
10
1141.591610
20
435.074849
30
0.0
11
1141.123154
21
434.804386
31
0.0
0
LINE
8
VISIBLE
10
1122.853356
20
445.893385
30
0.0
11
1122.384900
21
445.622922
31
0.0
0
LINE
8
VISIBLE
10
1122.853356
20
442.945339
30
0.0
11
1122.384900
21
442.674876
31
0.0
0
LINE
8
VISIBLE
10
1122.853356
20
435.464860
30
0.0
11
1120.698457
21
434.220728
31
0.0
0
LINE
8
VISIBLE
10
1120.698457
20
454.235020
30
0.0
11
1120.230001
21
453.964556
31
0.0
0
LINE
8
VISIBLE
10
1122.853356
20
465.515507
30
0.0
11
1120.230001
21
464.000912
31
0.0
0
LINE
8
VISIBLE
10
1122.933510
20
466.881332
30
0.0
11
1120.310155
21
465.366737
31
0.0
0
LINE
8
VISIBLE
10
1123.172601
20
468.131234
30
0.0
11
1120.549246
21
466.616639
31
0.0
0
LINE
8
VISIBLE
10
1123.566539
20
469.243825
30
0.0
11
1120.943183
21
467.729230
31
0.0
0
LINE
8
VISIBLE
10
1124.108581
20
470.200071
30
0.0
11
1121.485226
21
468.685475
31
0.0
0
LINE
8
VISIBLE
10
1124.789455
20
470.983607
30
0.0
11
1122.166099
21
469.469012
31
0.0
0
LINE
8
VISIBLE
10
1125.597510
20
471.581029
30
0.0
11
1122.974154
21
470.066434
31
0.0
0
LINE
8
VISIBLE
10
1126.366779
20
418.049181
30
0.0
11
1124.211880
21
416.805049
31
0.0
0
LINE
8
VISIBLE
10
1126.601007
20
417.913949
30
0.0
11
1124.446108
21
416.669817
31
0.0
0
LINE
8
VISIBLE
10
1136.197467
20
407.783514
30
0.0
11
1134.042568
21
406.539382
31
0.0
0
LINE
8
VISIBLE
10
1135.644621
20
407.542863
30
0.0
11
1133.489722
21
406.298731
31
0.0
0
LINE
8
VISIBLE
10
1135.033221
20
407.424132
30
0.0
11
1132.878322
21
406.180000
31
0.0
0
LINE
8
VISIBLE
10
1134.373729
20
407.429351
30
0.0
11
1132.218830
21
406.185220
31
0.0
0
LINE
8
VISIBLE
10
1133.677428
20
407.558433
30
0.0
11
1131.522529
21
406.314302
31
0.0
0
LINE
8
VISIBLE
10
1132.956233
20
407.809168
30
0.0
11
1130.801334
21
406.565037
31
0.0
0
LINE
8
VISIBLE
10
1132.222483
20
408.177267
30
0.0
11
1130.067584
21
406.933135
31
0.0
0
LINE
8
VISIBLE
10
1131.488733
20
408.656430
30
0.0
11
1129.333834
21
407.412298
31
0.0
0
LINE
8
VISIBLE
10
1130.767538
20
409.238459
30
0.0
11
1128.612639
21
407.994328
31
0.0
0
LINE
8
VISIBLE
10
1130.071237
20
409.913396
30
0.0
11
1127.916338
21
408.669265
31
0.0
0
LINE
8
VISIBLE
10
1129.411745
20
410.669692
30
0.0
11
1127.256846
21
409.425561
31
0.0
0
LINE
8
VISIBLE
10
1128.800345
20
411.494407
30
0.0
11
1126.645446
21
410.250276
31
0.0
0
LINE
8
VISIBLE
10
1128.247499
20
412.373430
30
0.0
11
1126.092600
21
411.129299
31
0.0
0
LINE
8
VISIBLE
10
1127.762666
20
413.291720
30
0.0
11
1125.607767
21
412.047589
31
0.0
0
LINE
8
VISIBLE
10
1127.354142
20
414.233565
30
0.0
11
1125.199243
21
412.989434
31
0.0
0
LINE
8
VISIBLE
10
1127.028916
20
415.182851
30
0.0
11
1124.874017
21
413.938719
31
0.0
0
LINE
8
VISIBLE
10
1126.792554
20
416.123333
30
0.0
11
1124.637655
21
414.879202
31
0.0
0
LINE
8
VISIBLE
10
1126.649099
20
417.038921
30
0.0
11
1124.494200
21
415.794790
31
0.0
0
LINE
8
VISIBLE
10
1120.698457
20
448.825752
30
0.0
11
1119.808390
21
448.311871
31
0.0
0
LINE
8
VISIBLE
10
1124.258725
20
444.365269
30
0.0
11
1123.134430
21
443.716157
31
0.0
0
LINE
8
VISIBLE
10
1138.540085
20
456.953177
30
0.0
11
1136.478877
21
455.763138
31
0.0
0
LINE
8
VISIBLE
10
1128.247163
20
469.371774
30
0.0
11
1126.382706
21
468.295330
31
0.0
0
LINE
8
VISIBLE
10
1130.589444
20
461.543482
30
0.0
11
1126.382706
21
459.114720
31
0.0
0
LINE
8
VISIBLE
10
1134.564765
20
464.704117
30
0.0
11
1131.754027
21
463.081336
31
0.0
0
LINE
8
VISIBLE
10
1126.382706
20
467.105291
30
0.0
11
1126.368500
21
467.097089
31
0.0
0
LINE
8
VISIBLE
10
1126.382706
20
457.924681
30
0.0
11
1126.368500
21
457.916479
31
0.0
0
LINE
8
VISIBLE
10
1135.220604
20
419.374451
30
0.0
11
1132.644094
21
417.886903
31
0.0
0
LINE
8
VISIBLE
10
1138.533090
20
410.661959
30
0.0
11
1135.534970
21
408.930993
31
0.0
0
LINE
8
VISIBLE
10
1131.908117
20
422.136749
30
0.0
11
1128.909997
21
420.405783
31
0.0
0
LINE
8
CENTER
10
535.714000
20
381.826000
30
0.0
11
540.514000
21
381.826000
31
0.0
0
LINE
8
CENTER
10
542.914000
20
381.826000
30
0.0
11
547.714000
21
381.826000
31
0.0
0
LINE
8
CENTER
10
541.714000
20
375.826000
30
0.0
11
541.714000
21
380.626000
31
0.0
0
LINE
8
CENTER
10
541.714000
20
383.026000
30
0.0
11
541.714000
21
387.826000
31
0.0
0
LINE
8
CENTER
10
552.686000
20
381.826000
30
0.0
11
557.486000
21
381.826000
31
0.0
0
LINE
8
CENTER
10
559.886000
20
381.826000
30
0.0
11
564.686000
21
381.826000
31
0.0
0
LINE
8
CENTER
10
558.686000
20
375.826000
30
0.0
11
558.686000
21
380.626000
31
0.0
0
LINE
8
CENTER
10
558.686000
20
383.026000
30
0.0
11
558.686000
21
387.826000
31
0.0
0
LINE
8
CENTER
10
542.600000
20
373.340000
30
0.0
11
549.000000
21
373.340000
31
0.0
0
LINE
8
CENTER
10
551.400000
20
373.340000
30
0.0
11
557.800000
21
373.340000
31
0.0
0
LINE
8
CENTER
10
550.200000
20
365.740000
30
0.0
11
550.200000
21
372.140000
31
0.0
0
LINE
8
CENTER
10
550.200000
20
374.540000
30
0.0
11
550.200000
21
380.940000
31
0.0
0
LINE
8
CENTER
10
535.714000
20
364.854000
30
0.0
11
540.514000
21
364.854000
31
0.0
0
LINE
8
CENTER
10
542.914000
20
364.854000
30
0.0
11
547.714000
21
364.854000
31
0.0
0
LINE
8
CENTER
10
541.714000
20
358.854000
30
0.0
11
541.714000
21
363.654000
31
0.0
0
LINE
8
CENTER
10
541.714000
20
366.054000
30
0.0
11
541.714000
21
370.854000
31
0.0
0
LINE
8
CENTER
10
552.686000
20
364.854000
30
0.0
11
557.486000
21
364.854000
31
0.0
0
LINE
8
CENTER
10
559.886000
20
364.854000
30
0.0
11
564.686000
21
364.854000
31
0.0
0
LINE
8
CENTER
10
558.686000
20
358.854000
30
0.0
11
558.686000
21
363.654000
31
0.0
0
LINE
8
CENTER
10
558.686000
20
366.054000
30
0.0
11
558.686000
21
370.854000
31
0.0
0
LINE
8
CENTER
10
527.760000
20
334.340000
30
0.0
11
533.000000
21
334.340000
31
0.0
0
LINE
8
CENTER
10
535.400000
20
334.340000
30
0.0
11
540.640000
21
334.340000
31
0.0
0
LINE
8
CENTER
10
534.200000
20
327.900000
30
0.0
11
534.200000
21
333.140000
31
0.0
0
LINE
8
CENTER
10
534.200000
20
335.540000
30
0.0
11
534.200000
21
340.780000
31
0.0
0
LINE
8
CENTER
10
559.760000
20
334.340000
30
0.0
11
565.000000
21
334.340000
31
0.0
0
LINE
8
CENTER
10
567.400000
20
334.340000
30
0.0
11
572.640000
21
334.340000
31
0.0
0
LINE
8
CENTER
10
566.200000
20
327.900000
30
0.0
11
566.200000
21
333.140000
31
0.0
0
LINE
8
CENTER
10
566.200000
20
335.540000
30
0.0
11
566.200000
21
340.780000
31
0.0
0
LINE
8
CENTER
10
543.100000
20
289.340000
30
0.0
11
549.000000
21
289.340000
31
0.0
0
LINE
8
CENTER
10
551.400000
20
289.340000
30
0.0
11
557.300000
21
289.340000
31
0.0
0
LINE
8
CENTER
10
550.200000
20
282.240000
30
0.0
11
550.200000
21
288.140000
31
0.0
0
LINE
8
CENTER
10
550.200000
20
290.540000
30
0.0
11
550.200000
21
296.440000
31
0.0
0
LINE
8
DIM
10
530.200000
20
276.140000
30
0.0
11
530.200000
21
254.340000
31
0.0
0
LINE
8
DIM
10
570.200000
20
276.140000
30
0.0
11
570.200000
21
254.340000
31
0.0
0
LINE
8
DIM
10
530.200000
20
256.340000
30
0.0
11
570.200000
21
256.340000
31
0.0
0
SOLID
8
DIM
10
530.200000
20
256.340000
30
0.0
11
533.400000
21
255.732000
31
0.0
12
533.400000
22
256.948000
32
0.0
13
533.400000
23
256.948000
33
0.0
0
SOLID
8
DIM
10
570.200000
20
256.340000
30
0.0
11
567.000000
21
256.948000
31
0.0
12
567.000000
22
255.732000
32
0.0
13
567.000000
23
255.732000
33
0.0
0
TEXT
8
TEXT
10
550.200000
20
257.340000
30
0.0
40
3.5000
1
20.00
72
1
73
0
11
550.200000
21
257.340000
31
0.0
0
LINE
8
DIM
10
529.000000
20
277.340000
30
0.0
11
507.200000
21
277.340000
31
0.0
0
LINE
8
DIM
10
529.000000
20
393.340000
30
0.0
11
507.200000
21
393.340000
31
0.0
0
LINE
8
DIM
10
509.200000
20
277.340000
30
0.0
11
509.200000
21
393.340000
31
0.0
0
SOLID
8
DIM
10
509.200000
20
277.340000
30
0.0
11
509.808000
21
280.540000
31
0.0
12
508.592000
22
280.540000
32
0.0
13
508.592000
23
280.540000
33
0.0
0
SOLID
8
DIM
10
509.200000
20
393.340000
30
0.0
11
508.592000
21
390.140000
31
0.0
12
509.808000
22
390.140000
32
0.0
13
509.808000
23
390.140000
33
0.0
0
TEXT
8
TEXT
10
508.200000
20
335.340000
30
0.0
40
3.5000
1
58.00
50
90.0000
72
1
73
0
11
508.200000
21
335.340000
31
0.0
0
SOLID
8
DIM
10
544.422910
20
385.293247
30
0.0
11
546.872138
21
387.440560
31
0.0
12
545.913917
22
388.189204
32
0.0
13
545.913917
23
388.189204
33
0.0
0
LINE
8
DIM
10
544.422910
20
385.293247
30
0.0
11
563.991578
21
410.340000
31
0.0
0
LINE
8
DIM
10
563.991578
20
410.340000
30
0.0
11
568.991578
21
410.340000
31
0.0
0
TEXT
8
TEXT
10
569.791578
20
416.415000
30
0.0
40
3.5000
1
4x Ø2.20 THRU
0
TEXT
8
TEXT
10
569.791578
20
411.340000
30
0.0
40
3.5000
1
C'BORE Ø4.40x4.49 +X
0
SOLID
8
DIM
10
536.973906
20
338.306238
30
0.0
11
539.306132
21
340.580087
31
0.0
12
538.309655
22
341.277002
32
0.0
13
538.309655
23
341.277002
33
0.0
0
LINE
8
DIM
10
536.973906
20
338.306238
30
0.0
11
596.200000
21
422.990000
31
0.0
0
LINE
8
DIM
10
596.200000
20
422.990000
30
0.0
11
601.200000
21
422.990000
31
0.0
0
TEXT
8
TEXT
10
602.000000
20
429.065000
30
0.0
40
3.5000
1
2x Ø2.40 THRU
0
TEXT
8
TEXT
10
602.000000
20
423.990000
30
0.0
40
3.5000
1
C'BORE Ø4.84x3.00 +X
0
SOLID
8
DIM
10
553.763950
20
378.166827
30
0.0
11
556.153841
21
380.379988
31
0.0
12
555.175604
22
381.102282
32
0.0
13
555.175604
23
381.102282
33
0.0
0
LINE
8
DIM
10
553.763950
20
378.166827
30
0.0
11
596.200000
21
435.640000
31
0.0
0
LINE
8
DIM
10
596.200000
20
435.640000
30
0.0
11
601.200000
21
435.640000
31
0.0
0
TEXT
8
TEXT
10
602.000000
20
436.640000
30
0.0
40
3.5000
1
Ø6.00 THRU
0
SOLID
8
DIM
10
551.775307
20
294.609574
30
0.0
11
553.274377
21
297.501364
31
0.0
12
552.109322
22
297.849651
32
0.0
13
552.109322
23
297.849651
33
0.0
0
LINE
8
DIM
10
551.775307
20
294.609574
30
0.0
11
596.200000
21
443.215000
31
0.0
0
LINE
8
DIM
10
596.200000
20
443.215000
30
0.0
11
601.200000
21
443.215000
31
0.0
0
TEXT
8
TEXT
10
602.000000
20
449.290000
30
0.0
40
3.5000
1
Ø2.70 THRU
0
TEXT
8
TEXT
10
602.000000
20
444.215000
30
0.0
40
3.5000
1
C'BORE Ø5.50x3.49 -X
0
SOLID
8
DIM
10
550.200000
20
357.440000
30
0.0
11
550.808000
21
360.640000
31
0.0
12
549.592000
22
360.640000
32
0.0
13
549.592000
23
360.640000
33
0.0
0
LINE
8
DIM
10
550.200000
20
357.440000
30
0.0
11
550.200000
21
367.440000
31
0.0
0
LINE
8
DIM
10
550.200000
20
367.440000
30
0.0
11
547.200000
21
367.440000
31
0.0
0
TEXT
8
TEXT
10
546.400000
20
368.440000
30
0.0
40
3.5000
1
R7.95
72
2
73
0
11
546.400000
21
368.440000
31
0.0
0
SOLID
8
DIM
10
550.200000
20
279.340000
30
0.0
11
549.592000
21
276.140000
31
0.0
12
550.808000
22
276.140000
32
0.0
13
550.808000
23
276.140000
33
0.0
0
LINE
8
DIM
10
550.200000
20
279.340000
30
0.0
11
550.200000
21
269.340000
31
0.0
0
LINE
8
DIM
10
550.200000
20
269.340000
30
0.0
11
547.200000
21
269.340000
31
0.0
0
TEXT
8
TEXT
10
546.400000
20
270.340000
30
0.0
40
3.5000
1
R5.00
72
2
73
0
11
546.400000
21
270.340000
31
0.0
0
SOLID
8
DIM
10
550.200000
20
281.340000
30
0.0
11
552.260527
21
278.817325
31
0.0
12
553.042157
22
279.748835
32
0.0
13
553.042157
23
279.748835
33
0.0
0
LINE
8
DIM
10
550.200000
20
281.340000
30
0.0
11
557.860444
21
274.912124
31
0.0
0
LINE
8
DIM
10
557.860444
20
274.912124
30
0.0
11
560.860444
21
274.912124
31
0.0
0
TEXT
8
TEXT
10
561.660444
20
275.912124
30
0.0
40
3.5000
1
R4.00
0
SOLID
8
DIM
10
550.200000
20
367.340000
30
0.0
11
550.808000
21
370.540000
31
0.0
12
549.592000
22
370.540000
32
0.0
13
549.592000
23
370.540000
33
0.0
0
LINE
8
DIM
10
550.200000
20
367.340000
30
0.0
11
550.200000
21
377.340000
31
0.0
0
LINE
8
DIM
10
550.200000
20
377.340000
30
0.0
11
547.200000
21
377.340000
31
0.0
0
TEXT
8
TEXT
10
546.400000
20
378.340000
30
0.0
40
3.5000
1
R3.00
72
2
73
0
11
546.400000
21
378.340000
31
0.0
0
SOLID
8
DIM
10
550.200000
20
283.840000
30
0.0
11
548.296586
21
281.196767
31
0.0
12
549.398657
22
280.682863
32
0.0
13
549.398657
23
280.682863
33
0.0
0
LINE
8
DIM
10
550.200000
20
283.840000
30
0.0
11
545.973817
21
274.776922
31
0.0
0
LINE
8
DIM
10
545.973817
20
274.776922
30
0.0
11
542.973817
21
274.776922
31
0.0
0
TEXT
8
TEXT
10
542.173817
20
275.776922
30
0.0
40
3.5000
1
R2.75
72
2
73
0
11
542.173817
21
275.776922
31
0.0
0
SOLID
8
DIM
10
550.200000
20
284.420000
30
0.0
11
553.245807
21
283.265563
31
0.0
12
553.456963
22
284.463089
32
0.0
13
553.456963
23
284.463089
33
0.0
0
LINE
8
DIM
10
550.200000
20
284.420000
30
0.0
11
560.048078
21
282.683518
31
0.0
0
LINE
8
DIM
10
560.048078
20
282.683518
30
0.0
11
563.048078
21
282.683518
31
0.0
0
TEXT
8
TEXT
10
563.848078
20
283.683518
30
0.0
40
3.5000
1
R2.46
0
SOLID
8
DIM
10
531.937632
20
338.618702
30
0.0
11
529.672343
21
340.959242
31
0.0
12
528.971781
22
339.965326
32
0.0
13
528.971781
23
339.965326
33
0.0
0
LINE
8
DIM
10
531.937632
20
338.618702
30
0.0
11
523.763976
21
344.379896
31
0.0
0
LINE
8
DIM
10
523.763976
20
344.379896
30
0.0
11
520.763976
21
344.379896
31
0.0
0
TEXT
8
TEXT
10
519.963976
20
345.379896
30
0.0
40
3.5000
1
R2.42
72
2
73
0
11
519.963976
21
345.379896
31
0.0
0
SOLID
8
DIM
10
556.419605
20
385.597399
30
0.0
11
557.416019
21
388.698499
31
0.0
12
556.209226
22
388.847846
32
0.0
13
556.209226
23
388.847846
33
0.0
0
LINE
8
DIM
10
556.419605
20
385.597399
30
0.0
11
557.647785
21
395.521691
31
0.0
0
LINE
8
DIM
10
557.647785
20
395.521691
30
0.0
11
560.647785
21
395.521691
31
0.0
0
TEXT
8
TEXT
10
561.447785
20
396.521691
30
0.0
40
3.5000
1
R2.20
0
SOLID
8
DIM
10
550.200000
20
286.640000
30
0.0
11
547.357843
21
285.048835
31
0.0
12
548.139473
22
284.117325
32
0.0
13
548.139473
23
284.117325
33
0.0
0
LINE
8
DIM
10
550.200000
20
286.640000
30
0.0
11
542.539556
21
280.212124
31
0.0
0
LINE
8
DIM
10
542.539556
20
280.212124
30
0.0
11
539.539556
21
280.212124
31
0.0
0
TEXT
8
TEXT
10
538.739556
20
281.212124
30
0.0
40
3.5000
1
R1.35
72
2
73
0
11
538.739556
21
281.212124
31
0.0
0
SOLID
8
DIM
10
568.600000
20
334.340000
30
0.0
11
571.762290
21
333.559239
31
0.0
12
571.828279
22
334.773447
32
0.0
13
571.828279
23
334.773447
33
0.0
0
LINE
8
DIM
10
568.600000
20
334.340000
30
0.0
11
578.585264
21
333.797323
31
0.0
0
LINE
8
DIM
10
578.585264
20
333.797323
30
0.0
11
581.585264
21
333.797323
31
0.0
0
TEXT
8
TEXT
10
582.385264
20
334.797323
30
0.0
40
3.5000
1
R1.20
0
SOLID
8
DIM
10
541.714000
20
379.626000
30
0.0
11
541.708915
21
382.883244
31
0.0
12
540.514642
22
382.654400
32
0.0
13
540.514642
23
382.654400
33
0.0
0
LINE
8
DIM
10
541.714000
20
379.626000
30
0.0
11
539.832057
21
389.447318
31
0.0
0
LINE
8
DIM
10
539.832057
20
389.447318
30
0.0
11
536.832057
21
389.447318
31
0.0
0
TEXT
8
TEXT
10
536.032057
20
390.447318
30
0.0
40
3.5000
1
R1.10
72
2
73
0
11
536.032057
21
390.447318
31
0.0
0
LINE
8
DIM
10
549.000000
20
289.340000
30
0.0
11
500.200000
21
289.340000
31
0.0
0
LINE
8
DIM
10
549.000000
20
373.340000
30
0.0
11
500.200000
21
373.340000
31
0.0
0
LINE
8
DIM
10
502.200000
20
289.340000
30
0.0
11
502.200000
21
373.340000
31
0.0
0
SOLID
8
DIM
10
502.200000
20
289.340000
30
0.0
11
502.808000
21
292.540000
31
0.0
12
501.592000
22
292.540000
32
0.0
13
501.592000
23
292.540000
33
0.0
0
SOLID
8
DIM
10
502.200000
20
373.340000
30
0.0
11
501.592000
21
370.140000
31
0.0
12
502.808000
22
370.140000
32
0.0
13
502.808000
23
370.140000
33
0.0
0
TEXT
8
TEXT
10
501.200000
20
331.340000
30
0.0
40
3.5000
1
42.00
50
90.0000
72
1
73
0
11
501.200000
21
331.340000
31
0.0
0
TEXT
8
TEXT
10
550.200000
20
244.340000
30
0.0
40
5.0000
1
RIGHT VIEW
72
1
73
0
11
550.200000
21
244.340000
31
0.0
0
LINE
8
TEXT
10
535.200000
20
242.740000
30
0.0
11
565.200000
21
242.740000
31
0.0
0
TEXT
8
TEXT
10
550.200000
20
238.340000
30
0.0
40
3.5000
1
-Y →   Z ↑
72
1
73
0
11
550.200000
21
238.340000
31
0.0
0
LINE
8
DIM
10
468.300000
20
276.140000
30
0.0
11
468.300000
21
263.340000
31
0.0
0
LINE
8
DIM
10
484.200000
20
276.140000
30
0.0
11
484.200000
21
263.340000
31
0.0
0
LINE
8
DIM
10
468.300000
20
265.340000
30
0.0
11
484.200000
21
265.340000
31
0.0
0
SOLID
8
DIM
10
468.300000
20
265.340000
30
0.0
11
471.500000
21
264.732000
31
0.0
12
471.500000
22
265.948000
32
0.0
13
471.500000
23
265.948000
33
0.0
0
SOLID
8
DIM
10
484.200000
20
265.340000
30
0.0
11
481.000000
21
265.948000
31
0.0
12
481.000000
22
264.732000
32
0.0
13
481.000000
23
264.732000
33
0.0
0
TEXT
8
TEXT
10
476.250000
20
266.340000
30
0.0
40
3.5000
1
7.95
72
1
73
0
11
476.250000
21
266.340000
31
0.0
0
LINE
8
DIM
10
467.100000
20
277.340000
30
0.0
11
454.300000
21
277.340000
31
0.0
0
LINE
8
DIM
10
467.100000
20
393.340000
30
0.0
11
454.300000
21
393.340000
31
0.0
0
LINE
8
DIM
10
456.300000
20
277.340000
30
0.0
11
456.300000
21
393.340000
31
0.0
0
SOLID
8
DIM
10
456.300000
20
277.340000
30
0.0
11
456.908000
21
280.540000
31
0.0
12
455.692000
22
280.540000
32
0.0
13
455.692000
23
280.540000
33
0.0
0
SOLID
8
DIM
10
456.300000
20
393.340000
30
0.0
11
455.692000
21
390.140000
31
0.0
12
456.908000
22
390.140000
32
0.0
13
456.908000
23
390.140000
33
0.0
0
TEXT
8
TEXT
10
455.300000
20
335.340000
30
0.0
40
3.5000
1
58.00
50
90.0000
72
1
73
0
11
455.300000
21
335.340000
31
0.0
0
TEXT
8
TEXT
10
476.250000
20
253.340000
30
0.0
40
5.0000
1
FRONT VIEW
72
1
73
0
11
476.250000
21
253.340000
31
0.0
0
LINE
8
TEXT
10
461.250000
20
251.740000
30
0.0
11
491.250000
21
251.740000
31
0.0
0
TEXT
8
TEXT
10
476.250000
20
247.340000
30
0.0
40
3.5000
1
-X →   Z ↑
72
1
73
0
11
476.250000
21
247.340000
31
0.0
0
LINE
8
DIM
10
608.200000
20
278.864204
30
0.0
11
608.200000
21
266.064204
31
0.0
0
LINE
8
DIM
10
624.100000
20
278.864204
30
0.0
11
624.100000
21
266.064204
31
0.0
0
LINE
8
DIM
10
608.200000
20
268.064204
30
0.0
11
624.100000
21
268.064204
31
0.0
0
SOLID
8
DIM
10
608.200000
20
268.064204
30
0.0
11
611.400000
21
267.456204
31
0.0
12
611.400000
22
268.672204
32
0.0
13
611.400000
23
268.672204
33
0.0
0
SOLID
8
DIM
10
624.100000
20
268.064204
30
0.0
11
620.900000
21
268.672204
31
0.0
12
620.900000
22
267.456204
32
0.0
13
620.900000
23
267.456204
33
0.0
0
TEXT
8
TEXT
10
616.150000
20
269.064204
30
0.0
40
3.5000
1
7.95
72
1
73
0
11
616.150000
21
269.064204
31
0.0
0
LINE
8
DIM
10
607.000000
20
280.064204
30
0.0
11
594.200000
21
280.064204
31
0.0
0
LINE
8
DIM
10
607.000000
20
390.615796
30
0.0
11
594.200000
21
390.615796
31
0.0
0
LINE
8
DIM
10
596.200000
20
280.064204
30
0.0
11
596.200000
21
390.615796
31
0.0
0
SOLID
8
DIM
10
596.200000
20
280.064204
30
0.0
11
596.808000
21
283.264204
31
0.0
12
595.592000
22
283.264204
32
0.0
13
595.592000
23
283.264204
33
0.0
0
SOLID
8
DIM
10
596.200000
20
390.615796
30
0.0
11
595.592000
21
387.415796
31
0.0
12
596.808000
22
387.415796
32
0.0
13
596.808000
23
387.415796
33
0.0
0
TEXT
8
TEXT
10
595.200000
20
335.340000
30
0.0
40
3.5000
1
55.28
50
90.0000
72
1
73
0
11
595.200000
21
335.340000
31
0.0
0
LINE
8
HATCH
10
617.699997
20
385.434666
30
0.0
11
617.700000
21
385.434669
31
0.0
0
LINE
8
HATCH
10
611.257356
20
383.234666
30
0.0
11
617.700000
21
389.677309
31
0.0
0
LINE
8
HATCH
10
608.200000
20
384.419950
30
0.0
11
609.774823
21
385.994773
31
0.0
0
LINE
8
HATCH
10
612.100000
20
388.319950
30
0.0
11
614.395846
21
390.615796
31
0.0
0
LINE
8
HATCH
10
624.099997
20
283.258316
30
0.0
11
624.100000
21
283.258319
31
0.0
0
LINE
8
HATCH
10
616.663245
20
280.064204
30
0.0
11
617.700000
21
281.100959
31
0.0
0
LINE
8
HATCH
10
619.857356
20
283.258316
30
0.0
11
624.100000
21
287.500959
31
0.0
0
LINE
8
HATCH
10
613.100000
20
280.743600
30
0.0
11
624.100000
21
291.743600
31
0.0
0
LINE
8
HATCH
10
612.100000
20
283.986241
30
0.0
11
621.952775
21
293.839016
31
0.0
0
LINE
8
HATCH
10
612.100000
20
288.228881
30
0.0
11
617.710135
21
293.839016
31
0.0
0
LINE
8
HATCH
10
612.100000
20
292.471522
30
0.0
11
617.700000
21
298.071522
31
0.0
0
LINE
8
HATCH
10
613.100000
20
297.714163
30
0.0
11
617.700000
21
302.314163
31
0.0
0
LINE
8
HATCH
10
613.100000
20
301.956803
30
0.0
11
617.700000
21
306.556803
31
0.0
0
LINE
8
HATCH
10
613.100000
20
306.199444
30
0.0
11
617.700000
21
310.799444
31
0.0
0
LINE
8
HATCH
10
621.284899
20
314.384343
30
0.0
11
622.700000
21
315.799444
31
0.0
0
LINE
8
HATCH
10
613.100000
20
310.442085
30
0.0
11
622.700000
21
320.042085
31
0.0
0
LINE
8
HATCH
10
613.100000
20
314.684725
30
0.0
11
622.700000
21
324.284725
31
0.0
0
LINE
8
HATCH
10
613.100000
20
318.927366
30
0.0
11
622.700000
21
328.527366
31
0.0
0
LINE
8
HATCH
10
613.100000
20
323.170007
30
0.0
11
622.700000
21
332.770007
31
0.0
0
LINE
8
HATCH
10
613.100000
20
327.412648
30
0.0
11
622.700000
21
337.012648
31
0.0
0
LINE
8
HATCH
10
613.100000
20
331.655288
30
0.0
11
622.700000
21
341.255288
31
0.0
0
LINE
8
HATCH
10
613.100000
20
335.897929
30
0.0
11
622.700000
21
345.497929
31
0.0
0
LINE
8
HATCH
10
608.954096
20
335.994666
30
0.0
11
622.700000
21
349.740570
31
0.0
0
LINE
8
HATCH
10
608.200000
20
339.483210
30
0.0
11
622.700000
21
353.983210
31
0.0
0
LINE
8
HATCH
10
608.200000
20
343.725851
30
0.0
11
611.468815
21
346.994666
31
0.0
0
LINE
8
HATCH
10
613.100000
20
348.625851
30
0.0
11
622.700000
21
358.225851
31
0.0
0
LINE
8
HATCH
10
613.100000
20
352.868492
30
0.0
11
619.894174
21
359.662666
31
0.0
0
LINE
8
HATCH
10
612.100000
20
356.111132
30
0.0
11
615.651534
21
359.662666
31
0.0
0
LINE
8
HATCH
10
610.848785
20
359.102558
30
0.0
11
613.608893
21
361.862666
31
0.0
0
LINE
8
HATCH
10
608.200000
20
360.696414
30
0.0
11
609.366252
21
361.862666
31
0.0
0
LINE
8
HATCH
10
622.699997
20
368.462666
30
0.0
11
622.700000
21
368.462669
31
0.0
0
LINE
8
HATCH
10
618.457356
20
368.462666
30
0.0
11
622.700000
21
372.705309
31
0.0
0
LINE
8
HATCH
10
612.014716
20
366.262666
30
0.0
11
613.720000
21
367.967950
31
0.0
0
LINE
8
HATCH
10
614.214716
20
368.462666
30
0.0
11
622.386716
21
376.634666
31
0.0
0
LINE
8
HATCH
10
608.200000
20
366.690591
30
0.0
11
618.144075
21
376.634666
31
0.0
0
LINE
8
HATCH
10
608.200000
20
370.933231
30
0.0
11
613.901434
21
376.634666
31
0.0
0
LINE
8
HATCH
10
608.200000
20
375.175872
30
0.0
11
611.858794
21
378.834666
31
0.0
0
LINE
8
DIM
10
613.242501
20
383.234666
30
0.0
11
635.100000
21
383.234666
31
0.0
0
LINE
8
DIM
10
613.242501
20
385.994773
30
0.0
11
635.100000
21
385.994773
31
0.0
0
LINE
8
DIM
10
633.100000
20
383.234666
30
0.0
11
633.100000
21
385.994773
31
0.0
0
SOLID
8
DIM
10
633.100000
20
383.234666
30
0.0
11
632.492000
21
380.034666
31
0.0
12
633.708000
22
380.034666
32
0.0
13
633.708000
23
380.034666
33
0.0
0
SOLID
8
DIM
10
633.100000
20
385.994773
30
0.0
11
633.708000
21
389.194773
31
0.0
12
632.492000
22
389.194773
32
0.0
13
632.492000
23
389.194773
33
0.0
0
LINE
8
DIM
10
633.100000
20
385.994773
30
0.0
11
633.100000
21
395.594773
31
0.0
0
TEXT
8
TEXT
10
632.100000
20
396.394773
30
0.0
40
3.5000
1
1.38 WALL
50
90.0000
0
LINE
8
DIM
10
613.100000
20
282.185469
30
0.0
11
613.100000
21
420.615796
31
0.0
0
LINE
8
DIM
10
617.700000
20
282.185469
30
0.0
11
617.700000
21
420.615796
31
0.0
0
LINE
8
DIM
10
613.100000
20
418.615796
30
0.0
11
617.700000
21
418.615796
31
0.0
0
SOLID
8
DIM
10
613.100000
20
418.615796
30
0.0
11
609.900000
21
419.223796
31
0.0
12
609.900000
22
418.007796
32
0.0
13
609.900000
23
418.007796
33
0.0
0
SOLID
8
DIM
10
617.700000
20
418.615796
30
0.0
11
620.900000
21
418.007796
31
0.0
12
620.900000
22
419.223796
32
0.0
13
620.900000
23
419.223796
33
0.0
0
LINE
8
DIM
10
617.700000
20
418.615796
30
0.0
11
627.300000
21
418.615796
31
0.0
0
TEXT
8
TEXT
10
628.100000
20
419.015796
30
0.0
40
3.5000
1
2.30 WALL
0
TEXT
8
TEXT
10
616.150000
20
256.064204
30
0.0
40
5.0000
1
SECTION A-A
72
1
73
0
11
616.150000
21
256.064204
31
0.0
0
LINE
8
TEXT
10
599.650000
20
254.464204
30
0.0
11
632.650000
21
254.464204
31
0.0
0
TEXT
8
TEXT
10
1130.700000
20
400.180000
30
0.0
40
5.0000
1
ISOMETRIC VIEW
72
1
73
0
11
1130.700000
21
400.180000
31
0.0
0
LINE
8
TEXT
10
1109.700000
20
398.580000
30
0.0
11
1151.700000
21
398.580000
31
0.0
0
TEXT
8
TEXT
10
1130.700000
20
394.180000
30
0.0
40
3.5000
1
7.95 x 20.00 x 58.00 mm
72
1
73
0
11
1130.700000
21
394.180000
31
0.0
0
LINE
8
CUT
10
558.686000
20
268.340000
30
0.0
11
558.686000
21
282.340000
31
0.0
0
LINE
8
CUTTHIN
10
558.686000
20
282.340000
30
0.0
11
558.686000
21
388.340000
31
0.0
0
LINE
8
CUT
10
558.686000
20
388.340000
30
0.0
11
558.686000
21
402.340000
31
0.0
0
LINE
8
CUT
10
558.686000
20
268.340000
30
0.0
11
567.686000
21
268.340000
31
0.0
0
SOLID
8
CUT
10
567.686000
20
268.340000
30
0.0
11
563.486000
21
269.138000
31
0.0
12
563.486000
22
267.542000
32
0.0
13
563.486000
23
267.542000
33
0.0
0
TEXT
8
TEXT
10
553.686000
20
268.340000
30
0.0
40
5.0000
1
A
72
1
73
2
11
553.686000
21
268.340000
31
0.0
0
LINE
8
CUT
10
558.686000
20
402.340000
30
0.0
11
567.686000
21
402.340000
31
0.0
0
SOLID
8
CUT
10
567.686000
20
402.340000
30
0.0
11
563.486000
21
403.138000
31
0.0
12
563.486000
22
401.542000
32
0.0
13
563.486000
23
401.542000
33
0.0
0
TEXT
8
TEXT
10
553.686000
20
402.340000
30
0.0
40
5.0000
1
A
72
1
73
2
11
553.686000
21
402.340000
31
0.0
0
LINE
8
VISIBLE
10
10.000000
20
656.945480
30
0.0
11
521.860000
21
656.945480
31
0.0
0
LINE
8
VISIBLE
10
521.860000
20
656.945480
30
0.0
11
521.860000
21
822.788120
31
0.0
0
LINE
8
VISIBLE
10
521.860000
20
822.788120
30
0.0
11
10.000000
21
822.788120
31
0.0
0
LINE
8
VISIBLE
10
10.000000
20
822.788120
30
0.0
11
10.000000
21
656.945480
31
0.0
0
LINE
8
TITLE
10
10.000000
20
656.945480
30
0.0
11
521.860000
21
656.945480
31
0.0
0
LINE
8
TITLE
10
521.860000
20
656.945480
30
0.0
11
521.860000
21
822.788120
31
0.0
0
LINE
8
TITLE
10
521.860000
20
822.788120
30
0.0
11
10.000000
21
822.788120
31
0.0
0
LINE
8
TITLE
10
10.000000
20
822.788120
30
0.0
11
10.000000
21
656.945480
31
0.0
0
TEXT
8
TEXT
10
265.930000
20
658.545480
30
0.0
40
3.5000
1
ISOMETRIC 1 — FRONT-LEFT — 1000 x 324 px, RENDERED OFF THIS SOLID
72
1
73
0
11
265.930000
21
658.545480
31
0.0
0
LINE
8
VISIBLE
10
524.360000
20
656.550470
30
0.0
11
849.180000
21
656.550470
31
0.0
0
LINE
8
VISIBLE
10
849.180000
20
656.550470
30
0.0
11
849.180000
21
823.183130
31
0.0
0
LINE
8
VISIBLE
10
849.180000
20
823.183130
30
0.0
11
524.360000
21
823.183130
31
0.0
0
LINE
8
VISIBLE
10
524.360000
20
823.183130
30
0.0
11
524.360000
21
656.550470
31
0.0
0
LINE
8
TITLE
10
524.360000
20
656.550470
30
0.0
11
849.180000
21
656.550470
31
0.0
0
LINE
8
TITLE
10
849.180000
20
656.550470
30
0.0
11
849.180000
21
823.183130
31
0.0
0
LINE
8
TITLE
10
849.180000
20
823.183130
30
0.0
11
524.360000
21
823.183130
31
0.0
0
LINE
8
TITLE
10
524.360000
20
823.183130
30
0.0
11
524.360000
21
656.550470
31
0.0
0
TEXT
8
TEXT
10
686.770000
20
658.150470
30
0.0
40
3.5000
1
ISOMETRIC 2 — FRONT-RIGHT — 1000 x 513 px, RENDERED OFF THIS SOLID
72
1
73
0
11
686.770000
21
658.150470
31
0.0
0
LINE
8
VISIBLE
10
851.680000
20
656.550470
30
0.0
11
1176.500000
21
656.550470
31
0.0
0
LINE
8
VISIBLE
10
1176.500000
20
656.550470
30
0.0
11
1176.500000
21
823.183130
31
0.0
0
LINE
8
VISIBLE
10
1176.500000
20
823.183130
30
0.0
11
851.680000
21
823.183130
31
0.0
0
LINE
8
VISIBLE
10
851.680000
20
823.183130
30
0.0
11
851.680000
21
656.550470
31
0.0
0
LINE
8
TITLE
10
851.680000
20
656.550470
30
0.0
11
1176.500000
21
656.550470
31
0.0
0
LINE
8
TITLE
10
1176.500000
20
656.550470
30
0.0
11
1176.500000
21
823.183130
31
0.0
0
LINE
8
TITLE
10
1176.500000
20
823.183130
30
0.0
11
851.680000
21
823.183130
31
0.0
0
LINE
8
TITLE
10
851.680000
20
823.183130
30
0.0
11
851.680000
21
656.550470
31
0.0
0
TEXT
8
TEXT
10
1014.090000
20
658.150470
30
0.0
40
3.5000
1
ISOMETRIC 3 — REAR-RIGHT — 1000 x 513 px, RENDERED OFF THIS SOLID
72
1
73
0
11
1014.090000
21
658.150470
31
0.0
0
LINE
8
VISIBLE
10
10.000000
20
492.184967
30
0.0
11
397.166667
21
492.184967
31
0.0
0
LINE
8
VISIBLE
10
397.166667
20
492.184967
30
0.0
11
397.166667
21
644.728633
31
0.0
0
LINE
8
VISIBLE
10
397.166667
20
644.728633
30
0.0
11
10.000000
21
644.728633
31
0.0
0
LINE
8
VISIBLE
10
10.000000
20
644.728633
30
0.0
11
10.000000
21
492.184967
31
0.0
0
LINE
8
TITLE
10
10.000000
20
492.184967
30
0.0
11
397.166667
21
492.184967
31
0.0
0
LINE
8
TITLE
10
397.166667
20
492.184967
30
0.0
11
397.166667
21
644.728633
31
0.0
0
LINE
8
TITLE
10
397.166667
20
644.728633
30
0.0
11
10.000000
21
644.728633
31
0.0
0
LINE
8
TITLE
10
10.000000
20
644.728633
30
0.0
11
10.000000
21
492.184967
31
0.0
0
TEXT
8
TEXT
10
203.583333
20
493.784967
30
0.0
40
3.5000
1
ISOMETRIC 4 — REAR-LEFT — 1000 x 394 px, RENDERED OFF THIS SOLID
72
1
73
0
11
203.583333
21
493.784967
31
0.0
0
LINE
8
VISIBLE
10
399.666667
20
492.184967
30
0.0
11
786.833333
21
492.184967
31
0.0
0
LINE
8
VISIBLE
10
786.833333
20
492.184967
30
0.0
11
786.833333
21
644.728633
31
0.0
0
LINE
8
VISIBLE
10
786.833333
20
644.728633
30
0.0
11
399.666667
21
644.728633
31
0.0
0
LINE
8
VISIBLE
10
399.666667
20
644.728633
30
0.0
11
399.666667
21
492.184967
31
0.0
0
LINE
8
TITLE
10
399.666667
20
492.184967
30
0.0
11
786.833333
21
492.184967
31
0.0
0
LINE
8
TITLE
10
786.833333
20
492.184967
30
0.0
11
786.833333
21
644.728633
31
0.0
0
LINE
8
TITLE
10
786.833333
20
644.728633
30
0.0
11
399.666667
21
644.728633
31
0.0
0
LINE
8
TITLE
10
399.666667
20
644.728633
30
0.0
11
399.666667
21
492.184967
31
0.0
0
TEXT
8
TEXT
10
593.250000
20
493.784967
30
0.0
40
3.5000
1
TOP-DOWN RENDER — 1000 x 394 px, RENDERED OFF THIS SOLID
72
1
73
0
11
593.250000
21
493.784967
31
0.0
0
LINE
8
VISIBLE
10
789.333333
20
492.184967
30
0.0
11
1176.500000
21
492.184967
31
0.0
0
LINE
8
VISIBLE
10
1176.500000
20
492.184967
30
0.0
11
1176.500000
21
644.728633
31
0.0
0
LINE
8
VISIBLE
10
1176.500000
20
644.728633
30
0.0
11
789.333333
21
644.728633
31
0.0
0
LINE
8
VISIBLE
10
789.333333
20
644.728633
30
0.0
11
789.333333
21
492.184967
31
0.0
0
LINE
8
TITLE
10
789.333333
20
492.184967
30
0.0
11
1176.500000
21
492.184967
31
0.0
0
LINE
8
TITLE
10
1176.500000
20
492.184967
30
0.0
11
1176.500000
21
644.728633
31
0.0
0
LINE
8
TITLE
10
1176.500000
20
644.728633
30
0.0
11
789.333333
21
644.728633
31
0.0
0
LINE
8
TITLE
10
789.333333
20
644.728633
30
0.0
11
789.333333
21
492.184967
31
0.0
0
TEXT
8
TEXT
10
982.916667
20
493.784967
30
0.0
40
3.5000
1
BOTTOM-UP RENDER — 1000 x 394 px, RENDERED OFF THIS SOLID
72
1
73
0
11
982.916667
21
493.784967
31
0.0
0
TEXT
8
TEXT
10
12.000000
20
179.250000
30
0.0
40
4.1000
1
NOTES
0
LINE
8
TEXT
10
12.000000
20
177.650000
30
0.0
11
24.300000
21
177.650000
31
0.0
0
TEXT
8
TEXT
10
12.000000
20
172.687500
30
0.0
40
3.5000
1
1. ALL DIMENSIONS IN mm AND DEGREES. EVERY DIMENSION AND EVERY HOLE CALLOUT
0
TEXT
8
TEXT
10
12.000000
20
167.437500
30
0.0
40
3.5000
1
   WAS MEASURED OFF THE SOLID.
0
TEXT
8
TEXT
10
12.000000
20
162.187500
30
0.0
40
3.5000
1
2. PROCESS: FDM.
0
TEXT
8
TEXT
10
12.000000
20
156.937500
30
0.0
40
3.5000
1
3. THINNEST WALL, WHOLE SOLID (RAY MINIMUM): 0.0280 mm, AT X=35.867 Y=31.977
0
TEXT
8
TEXT
10
12.000000
20
151.687500
30
0.0
40
3.5000
1
   Z=14.882 — MEASURED OVER THE WHOLE SOLID BY RAY+EXACT AT 1.0450 mm SAMPLE
0
TEXT
8
TEXT
10
12.000000
20
146.437500
30
0.0
40
3.5000
1
   SPACING (A FEATURE NARROWER THAN THAT CAN BE MISSED). THIS IS A DISTANCE
0
TEXT
8
TEXT
10
12.000000
20
141.187500
30
0.0
40
3.5000
1
   THROUGH MATERIAL, NOT A WALL: AT AN EDGE, A FILLET RUN-OUT OR A CHAMFER TIP
0
TEXT
8
TEXT
10
12.000000
20
135.937500
30
0.0
40
3.5000
1
   IT IS REAL AND UNPRINTABLE BY DEFINITION. DO NOT JUDGE PRINTABILITY BY IT —
0
TEXT
8
TEXT
10
12.000000
20
130.687500
30
0.0
40
3.5000
1
   THE NEXT NOTE IS THE ONE THAT DOES.
0
TEXT
8
TEXT
10
12.000000
20
125.437500
30
0.0
40
3.5000
1
4. PRINTABLE MINIMUM WALL: 1.0000 mm, AT X=40.450 Y=14.167 Z=21.167 —
0
TEXT
8
TEXT
10
12.000000
20
120.187500
30
0.0
40
3.5000
1
   MEASURED AS THE SMALLEST MEDIAN WALL OVER A NEIGHBOURHOOD OF 3.1340 mm (>= 8
0
TEXT
8
TEXT
10
12.000000
20
114.937500
30
0.0
40
3.5000
1
   SAMPLES), RAYS CAPPED AT 4.000 mm, BY cecad.inspect.printable_wall_detail.
0
TEXT
8
TEXT
10
12.000000
20
109.687500
30
0.0
40
3.5000
1
   AGAINST THE 0.8000 mm FLOOR (2 PERIMETERS @ 0.4 mm NOZZLE,
0
TEXT
8
TEXT
10
12.000000
20
104.437500
30
0.0
40
3.5000
1
   cecad/printed.py:801): VERDICT PASS
0
TEXT
8
TEXT
10
12.000000
20
99.187500
30
0.0
40
3.5000
1
5. DETAIL CALLOUTS (A.7): NONE — cecad.autosheet.detail_regions FOUND NO
0
TEXT
8
TEXT
10
12.000000
20
93.937500
30
0.0
40
3.5000
1
   CLUSTER OF SMALL FEATURES WORTH ENLARGING ON THIS SOLID. EVERY FEATURE IS
0
TEXT
8
TEXT
10
12.000000
20
88.687500
30
0.0
40
3.5000
1
   DIMENSIONED IN THE VIEWS AND THE HOLE TABLE.
0
TEXT
8
TEXT
10
12.000000
20
83.437500
30
0.0
40
3.5000
1
6. GENERAL TOLERANCE CANNOT DETERMINE — SEE PRINT / DFM NOTES UNLESS STATED.
0
TEXT
8
TEXT
10
12.000000
20
78.187500
30
0.0
40
3.5000
1
7. SECTION A-A AT Y=17.76: THINNEST MATERIAL IN THIS PLANE ONLY 1.38 mm, AT
0
TEXT
8
TEXT
10
12.000000
20
72.937500
30
0.0
40
3.5000
1
   X=38.53, Z=41.81 — A SCAN OF ONE CUT, NOT THE PART MINIMUM.
0
TEXT
8
TEXT
10
12.000000
20
67.687500
30
0.0
40
3.5000
1
8. RIGHT VIEW: hidden lines KEPT: without them 94 of 826 edge samples have
0
TEXT
8
TEXT
10
12.000000
20
62.437500
30
0.0
40
3.5000
1
   no ink within 0.35 mm (worst 6.509 mm) and the feature would be missing from
0
TEXT
8
TEXT
10
12.000000
20
57.187500
30
0.0
40
3.5000
1
   the sheet.
0
TEXT
8
TEXT
10
12.000000
20
51.937500
30
0.0
40
3.5000
1
9. FRONT VIEW: hidden lines SUPPRESSED: all 867 edge samples still land on
0
TEXT
8
TEXT
10
12.000000
20
46.687500
30
0.0
40
3.5000
1
   drawn ink without them.
0
TEXT
8
TEXT
10
12.000000
20
41.437500
30
0.0
40
4.1000
1
PRINT / DFM
0
LINE
8
TEXT
10
12.000000
20
39.837500
30
0.0
11
39.060000
21
39.837500
31
0.0
0
TEXT
8
TEXT
10
12.000000
20
34.875000
30
0.0
40
3.5000
1
1. ORIENTATION: upright, Z-up (8 x 20 x 58 mm)
0
TEXT
8
TEXT
10
12.000000
20
29.625000
30
0.0
40
3.5000
1
2. THINNEST WALL, WHOLE SOLID (RAY MINIMUM): 0.0280 mm — a distance through
0
TEXT
8
TEXT
10
12.000000
20
24.375000
30
0.0
40
3.5000
1
   material, NOT a printable wall where it falls on an edge, a fillet run-out
0
TEXT
8
TEXT
10
12.000000
20
19.125000
30
0.0
40
3.5000
1
   or a chamfer tip. Printability is judged on the next line.
0
TEXT
8
TEXT
10
12.000000
20
13.875000
30
0.0
40
3.5000
1
3. PRINTABLE MINIMUM WALL: 1.0000 mm (smallest median wall over a 3.1340 mm
0
TEXT
8
TEXT
10
179.000000
20
179.250000
30
0.0
40
3.5000
1
   neighbourhood, cecad.inspect.printable_wall_detail) against a 0.8000 mm
0
TEXT
8
TEXT
10
179.000000
20
174.000000
30
0.0
40
3.5000
1
   floor (2 perimeters @ 0.4 mm nozzle): VERDICT PASS
0
TEXT
8
TEXT
10
179.000000
20
168.750000
30
0.0
40
3.5000
1
4. 15 horizontal bore(s) bridge at the crown: ream any bearing or press-fit
0
TEXT
8
TEXT
10
179.000000
20
163.500000
30
0.0
40
3.5000
1
   bore to size
0
TEXT
8
TEXT
10
179.000000
20
158.250000
30
0.0
40
3.5000
1
5. FILAMENT: PLA, ~4 g (modelled), 290 layers @ 0.2 mm
0
TEXT
8
TEXT
10
179.000000
20
153.000000
30
0.0
40
3.5000
1
6. TOLERANCE BASIS, IN-HOUSE: CANNOT DETERMINE. Every Bambu on this farm
0
TEXT
8
TEXT
10
179.000000
20
147.750000
30
0.0
40
3.5000
1
   records tolerance_mm: null, cite "no coupon printed and measured on this
0
TEXT
8
TEXT
10
179.000000
20
142.500000
30
0.0
40
3.5000
1
   machine" (ce-machines/bambu-h2s-*, bambu-h2d-*/capabilities.json, read
0
TEXT
8
TEXT
10
179.000000
20
137.250000
30
0.0
40
3.5000
1
   2026-09-02), and Bambu Lab's own H2D Pro spec sheet carries no
0
TEXT
8
TEXT
10
179.000000
20
132.000000
30
0.0
40
3.5000
1
   dimensional-accuracy line. DIMENSIONS HERE ARE NOMINAL AS MODELLED.
0
TEXT
8
TEXT
10
179.000000
20
126.750000
30
0.0
40
3.5000
1
7. TOLERANCE BASIS, OUTSOURCED: JLC3DP ±0.3 mm FDM (jlc3dp.com,
0
TEXT
8
TEXT
10
179.000000
20
121.500000
30
0.0
40
3.5000
1
   ce-machines/farm-jlc3dp); Hubs ±0.5%, floor ±0.5 mm (hubs.com/3d-printing/,
0
TEXT
8
TEXT
10
179.000000
20
116.250000
30
0.0
40
3.5000
1
   ce-machines/farm-hubs). Apply the route's figure, not both. The ±0.2 mm in
0
TEXT
8
TEXT
10
179.000000
20
111.000000
30
0.0
40
3.5000
1
   cecad/machining.py fdm is a repo planning constant with no vendor cite and
0
TEXT
8
TEXT
10
179.000000
20
105.750000
30
0.0
40
3.5000
1
   is NOT used here. One printed and measured coupon closes this note.
0
TEXT
8
TEXT
10
179.000000
20
100.500000
30
0.0
40
3.5000
1
8. NO ISO 286 CLASS IS DECLARED ON ANY BORE: FDM cannot be sized to one
0
TEXT
8
TEXT
10
179.000000
20
95.250000
30
0.0
40
3.5000
1
   (H7/p6 at Ø3 is a 0.010 mm band). REAM bearing and press-fit bores after
0
TEXT
8
TEXT
10
179.000000
20
90.000000
30
0.0
40
3.5000
1
   printing.
0
TEXT
8
TEXT
10
179.000000
20
84.750000
30
0.0
40
3.5000
1
9. ORTHOGRAPHIC VIEWS: 2 (RIGHT, FRONT) — cecad.autosheet.choose_views ON
0
TEXT
8
TEXT
10
179.000000
20
79.500000
30
0.0
40
3.5000
1
   THE 7.950 x 20.000 x 58.000 mm BBOX, THIN/LONG 0.1371. A THIRD VIEW WOULD BE
0
TEXT
8
TEXT
10
179.000000
20
74.250000
30
0.0
40
3.5000
1
   THIS PART EDGE-ON, WHICH A.2 ORDERS SUPPRESSED; THE SECTION AND THE
0
TEXT
8
TEXT
10
179.000000
20
69.000000
30
0.0
40
3.5000
1
   ISOMETRIC CARRY IT.
0
TEXT
8
TEXT
10
179.000000
20
63.750000
30
0.0
40
4.1000
1
FEATURE SCHEDULE — 111 FEATURE(S) ENUMERATED OFF THE SOLID,
0
LINE
8
TEXT
10
179.000000
20
62.150000
30
0.0
11
324.140000
21
62.150000
31
0.0
0
TEXT
8
TEXT
10
179.000000
20
57.187500
30
0.0
40
4.1000
1
GENERAL TOLERANCE CANNOT DETERMINE — SEE PRINT / DFM NOTES
0
LINE
8
TEXT
10
179.000000
20
55.587500
30
0.0
11
321.680000
21
55.587500
31
0.0
0
TEXT
8
TEXT
10
179.000000
20
50.625000
30
0.0
40
3.5000
1
CENSUS cecad.sheetcheck.enumerate_features v2 — 111 ROW(S), 6 CANNOT
0
TEXT
8
TEXT
10
179.000000
20
45.375000
30
0.0
40
3.5000
1
   DETERMINE, LISTED BELOW
0
TEXT
8
TEXT
10
179.000000
20
40.125000
30
0.0
40
3.5000
1
OUTLINE ENVELOPE LENGTH
0
TEXT
8
DIM
10
338.000000
20
40.125000
30
0.0
40
3.5000
1
7.9500
72
2
73
0
11
338.000000
21
40.125000
31
0.0
0
TEXT
8
TEXT
10
179.000000
20
34.875000
30
0.0
40
3.5000
1
OUTLINE ENVELOPE WIDTH
0
TEXT
8
DIM
10
338.000000
20
34.875000
30
0.0
40
3.5000
1
20.0000
72
2
73
0
11
338.000000
21
34.875000
31
0.0
0
TEXT
8
TEXT
10
179.000000
20
29.625000
30
0.0
40
3.5000
1
OUTLINE ENVELOPE HEIGHT
0
TEXT
8
DIM
10
338.000000
20
29.625000
30
0.0
40
3.5000
1
58.0000
72
2
73
0
11
338.000000
21
29.625000
31
0.0
0
TEXT
8
TEXT
10
179.000000
20
24.375000
30
0.0
40
3.5000
1
HOLE 1 DIAMETER (ALONG X)
0
TEXT
8
DIM
10
338.000000
20
24.375000
30
0.0
40
3.5000
1
Ø6.0000
72
2
73
0
11
338.000000
21
24.375000
31
0.0
0
TEXT
8
TEXT
10
179.000000
20
19.125000
30
0.0
40
3.5000
1
HOLE 1 DEPTH
0
TEXT
8
DIM
10
338.000000
20
19.125000
30
0.0
40
3.5000
1
7.2500
72
2
73
0
11
338.000000
21
19.125000
31
0.0
0
TEXT
8
TEXT
10
179.000000
20
13.875000
30
0.0
40
3.5000
1
HOLE 1 POSITION FROM THE Y DATUM FACE
0
TEXT
8
DIM
10
338.000000
20
13.875000
30
0.0
40
3.5000
1
10.0000
72
2
73
0
11
338.000000
21
13.875000
31
0.0
0
TEXT
8
TEXT
10
346.000000
20
179.250000
30
0.0
40
3.5000
1
HOLE 1 POSITION FROM THE Z DATUM FACE
0
TEXT
8
DIM
10
505.000000
20
179.250000
30
0.0
40
3.5000
1
48.0000
72
2
73
0
11
505.000000
21
179.250000
31
0.0
0
TEXT
8
TEXT
10
346.000000
20
174.000000
30
0.0
40
3.5000
1
COUNTERBORE 2 DIAMETER (ALONG X)
0
TEXT
8
DIM
10
505.000000
20
174.000000
30
0.0
40
3.5000
1
Ø5.5000
72
2
73
0
11
505.000000
21
174.000000
31
0.0
0
TEXT
8
TEXT
10
346.000000
20
168.750000
30
0.0
40
3.5000
1
COUNTERBORE 2 DEPTH
0
TEXT
8
DIM
10
505.000000
20
168.750000
30
0.0
40
3.5000
1
3.4900
72
2
73
0
11
505.000000
21
168.750000
31
0.0
0
TEXT
8
TEXT
10
346.000000
20
163.500000
30
0.0
40
3.5000
1
COUNTERBORE 2 POSITION FROM THE Y DATUM FACE
0
TEXT
8
DIM
10
505.000000
20
163.500000
30
0.0
40
3.5000
1
10.0000
72
2
73
0
11
505.000000
21
163.500000
31
0.0
0
TEXT
8
TEXT
10
346.000000
20
158.250000
30
0.0
40
3.5000
1
COUNTERBORE 2 POSITION FROM THE Z DATUM FACE
0
TEXT
8
DIM
10
505.000000
20
158.250000
30
0.0
40
3.5000
1
6.0000
72
2
73
0
11
505.000000
21
158.250000
31
0.0
0
TEXT
8
TEXT
10
346.000000
20
153.000000
30
0.0
40
3.5000
1
COUNTERBORE 3 DIAMETER (ALONG X)
0
TEXT
8
DIM
10
505.000000
20
153.000000
30
0.0
40
3.5000
1
Ø4.8400
72
2
73
0
11
505.000000
21
153.000000
31
0.0
0
TEXT
8
TEXT
10
346.000000
20
147.750000
30
0.0
40
3.5000
1
COUNTERBORE 3 DEPTH
0
TEXT
8
DIM
10
505.000000
20
147.750000
30
0.0
40
3.5000
1
3.0000
72
2
73
0
11
505.000000
21
147.750000
31
0.0
0
TEXT
8
TEXT
10
346.000000
20
142.500000
30
0.0
40
3.5000
1
COUNTERBORE 3 POSITION FROM THE Y DATUM FACE
0
TEXT
8
DIM
10
505.000000
20
142.500000
30
0.0
40
3.5000
1
2.0000
72
2
73
0
11
505.000000
21
142.500000
31
0.0
0
TEXT
8
TEXT
10
346.000000
20
137.250000
30
0.0
40
3.5000
1
COUNTERBORE 3 POSITION FROM THE Z DATUM FACE
0
TEXT
8
DIM
10
505.000000
20
137.250000
30
0.0
40
3.5000
1
28.5000
72
2
73
0
11
505.000000
21
137.250000
31
0.0
0
TEXT
8
TEXT
10
346.000000
20
132.000000
30
0.0
40
3.5000
1
COUNTERBORE 4 DIAMETER (ALONG X)
0
TEXT
8
DIM
10
505.000000
20
132.000000
30
0.0
40
3.5000
1
Ø4.8400
72
2
73
0
11
505.000000
21
132.000000
31
0.0
0
TEXT
8
TEXT
10
346.000000
20
126.750000
30
0.0
40
3.5000
1
COUNTERBORE 4 DEPTH
0
TEXT
8
DIM
10
505.000000
20
126.750000
30
0.0
40
3.5000
1
3.0000
72
2
73
0
11
505.000000
21
126.750000
31
0.0
0
TEXT
8
TEXT
10
346.000000
20
121.500000
30
0.0
40
3.5000
1
COUNTERBORE 4 POSITION FROM THE Y DATUM FACE
0
TEXT
8
DIM
10
505.000000
20
121.500000
30
0.0
40
3.5000
1
18.0000
72
2
73
0
11
505.000000
21
121.500000
31
0.0
0
TEXT
8
TEXT
10
346.000000
20
116.250000
30
0.0
40
3.5000
1
COUNTERBORE 4 POSITION FROM THE Z DATUM FACE
0
TEXT
8
DIM
10
505.000000
20
116.250000
30
0.0
40
3.5000
1
28.5000
72
2
73
0
11
505.000000
21
116.250000
31
0.0
0
TEXT
8
TEXT
10
346.000000
20
111.000000
30
0.0
40
3.5000
1
COUNTERBORE 5 DIAMETER (ALONG X)
0
TEXT
8
DIM
10
505.000000
20
111.000000
30
0.0
40
3.5000
1
Ø4.4000
72
2
73
0
11
505.000000
21
111.000000
31
0.0
0
TEXT
8
TEXT
10
346.000000
20
105.750000
30
0.0
40
3.5000
1
COUNTERBORE 5 DEPTH
0
TEXT
8
DIM
10
505.000000
20
105.750000
30
0.0
40
3.5000
1
4.4900
72
2
73
0
11
505.000000
21
105.750000
31
0.0
0
TEXT
8
TEXT
10
346.000000
20
100.500000
30
0.0
40
3.5000
1
COUNTERBORE 5 POSITION FROM THE Y DATUM FACE
0
TEXT
8
DIM
10
505.000000
20
100.500000
30
0.0
40
3.5000
1
5.7570
72
2
73
0
11
505.000000
21
100.500000
31
0.0
0
TEXT
8
TEXT
10
346.000000
20
95.250000
30
0.0
40
3.5000
1
COUNTERBORE 5 POSITION FROM THE Z DATUM FACE
0
TEXT
8
DIM
10
505.000000
20
95.250000
30
0.0
40
3.5000
1
43.7570
72
2
73
0
11
505.000000
21
95.250000
31
0.0
0
TEXT
8
TEXT
10
346.000000
20
90.000000
30
0.0
40
3.5000
1
COUNTERBORE 6 DIAMETER (ALONG X)
0
TEXT
8
DIM
10
505.000000
20
90.000000
30
0.0
40
3.5000
1
Ø4.4000
72
2
73
0
11
505.000000
21
90.000000
31
0.0
0
TEXT
8
TEXT
10
346.000000
20
84.750000
30
0.0
40
3.5000
1
COUNTERBORE 6 DEPTH
0
TEXT
8
DIM
10
505.000000
20
84.750000
30
0.0
40
3.5000
1
4.4900
72
2
73
0
11
505.000000
21
84.750000
31
0.0
0
TEXT
8
TEXT
10
346.000000
20
79.500000
30
0.0
40
3.5000
1
COUNTERBORE 6 POSITION FROM THE Y DATUM FACE
0
TEXT
8
DIM
10
505.000000
20
79.500000
30
0.0
40
3.5000
1
5.7570
72
2
73
0
11
505.000000
21
79.500000
31
0.0
0
TEXT
8
TEXT
10
346.000000
20
74.250000
30
0.0
40
3.5000
1
COUNTERBORE 6 POSITION FROM THE Z DATUM FACE
0
TEXT
8
DIM
10
505.000000
20
74.250000
30
0.0
40
3.5000
1
52.2430
72
2
73
0
11
505.000000
21
74.250000
31
0.0
0
TEXT
8
TEXT
10
346.000000
20
69.000000
30
0.0
40
3.5000
1
COUNTERBORE 7 DIAMETER (ALONG X)
0
TEXT
8
DIM
10
505.000000
20
69.000000
30
0.0
40
3.5000
1
Ø4.4000
72
2
73
0
11
505.000000
21
69.000000
31
0.0
0
TEXT
8
TEXT
10
346.000000
20
63.750000
30
0.0
40
3.5000
1
COUNTERBORE 7 DEPTH
0
TEXT
8
DIM
10
505.000000
20
63.750000
30
0.0
40
3.5000
1
4.4900
72
2
73
0
11
505.000000
21
63.750000
31
0.0
0
TEXT
8
TEXT
10
346.000000
20
58.500000
30
0.0
40
3.5000
1
COUNTERBORE 7 POSITION FROM THE Y DATUM FACE
0
TEXT
8
DIM
10
505.000000
20
58.500000
30
0.0
40
3.5000
1
14.2430
72
2
73
0
11
505.000000
21
58.500000
31
0.0
0
TEXT
8
TEXT
10
346.000000
20
53.250000
30
0.0
40
3.5000
1
COUNTERBORE 7 POSITION FROM THE Z DATUM FACE
0
TEXT
8
DIM
10
505.000000
20
53.250000
30
0.0
40
3.5000
1
43.7570
72
2
73
0
11
505.000000
21
53.250000
31
0.0
0
TEXT
8
TEXT
10
346.000000
20
48.000000
30
0.0
40
3.5000
1
COUNTERBORE 8 DIAMETER (ALONG X)
0
TEXT
8
DIM
10
505.000000
20
48.000000
30
0.0
40
3.5000
1
Ø4.4000
72
2
73
0
11
505.000000
21
48.000000
31
0.0
0
TEXT
8
TEXT
10
346.000000
20
42.750000
30
0.0
40
3.5000
1
COUNTERBORE 8 DEPTH
0
TEXT
8
DIM
10
505.000000
20
42.750000
30
0.0
40
3.5000
1
4.4900
72
2
73
0
11
505.000000
21
42.750000
31
0.0
0
TEXT
8
TEXT
10
346.000000
20
37.500000
30
0.0
40
3.5000
1
COUNTERBORE 8 POSITION FROM THE Y DATUM FACE
0
TEXT
8
DIM
10
505.000000
20
37.500000
30
0.0
40
3.5000
1
14.2430
72
2
73
0
11
505.000000
21
37.500000
31
0.0
0
TEXT
8
TEXT
10
346.000000
20
32.250000
30
0.0
40
3.5000
1
COUNTERBORE 8 POSITION FROM THE Z DATUM FACE
0
TEXT
8
DIM
10
505.000000
20
32.250000
30
0.0
40
3.5000
1
52.2430
72
2
73
0
11
505.000000
21
32.250000
31
0.0
0
TEXT
8
TEXT
10
346.000000
20
27.000000
30
0.0
40
3.5000
1
HOLE 9 DIAMETER (ALONG X)
0
TEXT
8
DIM
10
505.000000
20
27.000000
30
0.0
40
3.5000
1
Ø2.7000
72
2
73
0
11
505.000000
21
27.000000
31
0.0
0
TEXT
8
TEXT
10
346.000000
20
21.750000
30
0.0
40
3.5000
1
HOLE 9 DEPTH
0
TEXT
8
DIM
10
505.000000
20
21.750000
30
0.0
40
3.5000
1
4.3000
72
2
73
0
11
505.000000
21
21.750000
31
0.0
0
TEXT
8
TEXT
10
346.000000
20
16.500000
30
0.0
40
3.5000
1
HOLE 9 POSITION FROM THE Y DATUM FACE
0
TEXT
8
DIM
10
505.000000
20
16.500000
30
0.0
40
3.5000
1
10.0000
72
2
73
0
11
505.000000
21
16.500000
31
0.0
0
TEXT
8
TEXT
10
513.000000
20
179.250000
30
0.0
40
3.5000
1
HOLE 9 POSITION FROM THE Z DATUM FACE
0
TEXT
8
DIM
10
672.000000
20
179.250000
30
0.0
40
3.5000
1
6.0000
72
2
73
0
11
672.000000
21
179.250000
31
0.0
0
TEXT
8
TEXT
10
513.000000
20
174.000000
30
0.0
40
3.5000
1
HOLE 10 DIAMETER (ALONG X)
0
TEXT
8
DIM
10
672.000000
20
174.000000
30
0.0
40
3.5000
1
Ø2.4000
72
2
73
0
11
672.000000
21
174.000000
31
0.0
0
TEXT
8
TEXT
10
513.000000
20
168.750000
30
0.0
40
3.5000
1
HOLE 10 DEPTH
0
TEXT
8
DIM
10
672.000000
20
168.750000
30
0.0
40
3.5000
1
2.3000
72
2
73
0
11
672.000000
21
168.750000
31
0.0
0
TEXT
8
TEXT
10
513.000000
20
163.500000
30
0.0
40
3.5000
1
HOLE 10 POSITION FROM THE Y DATUM FACE
0
TEXT
8
DIM
10
672.000000
20
163.500000
30
0.0
40
3.5000
1
2.0000
72
2
73
0
11
672.000000
21
163.500000
31
0.0
0
TEXT
8
TEXT
10
513.000000
20
158.250000
30
0.0
40
3.5000
1
HOLE 10 POSITION FROM THE Z DATUM FACE
0
TEXT
8
DIM
10
672.000000
20
158.250000
30
0.0
40
3.5000
1
28.5000
72
2
73
0
11
672.000000
21
158.250000
31
0.0
0
TEXT
8
TEXT
10
513.000000
20
153.000000
30
0.0
40
3.5000
1
HOLE 11 DIAMETER (ALONG X)
0
TEXT
8
DIM
10
672.000000
20
153.000000
30
0.0
40
3.5000
1
Ø2.4000
72
2
73
0
11
672.000000
21
153.000000
31
0.0
0
TEXT
8
TEXT
10
513.000000
20
147.750000
30
0.0
40
3.5000
1
HOLE 11 DEPTH
0
TEXT
8
DIM
10
672.000000
20
147.750000
30
0.0
40
3.5000
1
2.3000
72
2
73
0
11
672.000000
21
147.750000
31
0.0
0
TEXT
8
TEXT
10
513.000000
20
142.500000
30
0.0
40
3.5000
1
HOLE 11 POSITION FROM THE Y DATUM FACE
0
TEXT
8
DIM
10
672.000000
20
142.500000
30
0.0
40
3.5000
1
18.0000
72
2
73
0
11
672.000000
21
142.500000
31
0.0
0
TEXT
8
TEXT
10
513.000000
20
137.250000
30
0.0
40
3.5000
1
HOLE 11 POSITION FROM THE Z DATUM FACE
0
TEXT
8
DIM
10
672.000000
20
137.250000
30
0.0
40
3.5000
1
28.5000
72
2
73
0
11
672.000000
21
137.250000
31
0.0
0
TEXT
8
TEXT
10
513.000000
20
132.000000
30
0.0
40
3.5000
1
HOLE 12 DIAMETER (ALONG X)
0
TEXT
8
DIM
10
672.000000
20
132.000000
30
0.0
40
3.5000
1
Ø2.2000
72
2
73
0
11
672.000000
21
132.000000
31
0.0
0
TEXT
8
TEXT
10
513.000000
20
126.750000
30
0.0
40
3.5000
1
HOLE 12 DEPTH
0
TEXT
8
DIM
10
672.000000
20
126.750000
30
0.0
40
3.5000
1
2.7600
72
2
73
0
11
672.000000
21
126.750000
31
0.0
0
TEXT
8
TEXT
10
513.000000
20
121.500000
30
0.0
40
3.5000
1
HOLE 12 POSITION FROM THE Y DATUM FACE
0
TEXT
8
DIM
10
672.000000
20
121.500000
30
0.0
40
3.5000
1
5.7570
72
2
73
0
11
672.000000
21
121.500000
31
0.0
0
TEXT
8
TEXT
10
513.000000
20
116.250000
30
0.0
40
3.5000
1
HOLE 12 POSITION FROM THE Z DATUM FACE
0
TEXT
8
DIM
10
672.000000
20
116.250000
30
0.0
40
3.5000
1
43.7570
72
2
73
0
11
672.000000
21
116.250000
31
0.0
0
TEXT
8
TEXT
10
513.000000
20
111.000000
30
0.0
40
3.5000
1
HOLE 13 DIAMETER (ALONG X)
0
TEXT
8
DIM
10
672.000000
20
111.000000
30
0.0
40
3.5000
1
Ø2.2000
72
2
73
0
11
672.000000
21
111.000000
31
0.0
0
TEXT
8
TEXT
10
513.000000
20
105.750000
30
0.0
40
3.5000
1
HOLE 13 DEPTH
0
TEXT
8
DIM
10
672.000000
20
105.750000
30
0.0
40
3.5000
1
2.7600
72
2
73
0
11
672.000000
21
105.750000
31
0.0
0
TEXT
8
TEXT
10
513.000000
20
100.500000
30
0.0
40
3.5000
1
HOLE 13 POSITION FROM THE Y DATUM FACE
0
TEXT
8
DIM
10
672.000000
20
100.500000
30
0.0
40
3.5000
1
5.7570
72
2
73
0
11
672.000000
21
100.500000
31
0.0
0
TEXT
8
TEXT
10
513.000000
20
95.250000
30
0.0
40
3.5000
1
HOLE 13 POSITION FROM THE Z DATUM FACE
0
TEXT
8
DIM
10
672.000000
20
95.250000
30
0.0
40
3.5000
1
52.2430
72
2
73
0
11
672.000000
21
95.250000
31
0.0
0
TEXT
8
TEXT
10
513.000000
20
90.000000
30
0.0
40
3.5000
1
HOLE 14 DIAMETER (ALONG X)
0
TEXT
8
DIM
10
672.000000
20
90.000000
30
0.0
40
3.5000
1
Ø2.2000
72
2
73
0
11
672.000000
21
90.000000
31
0.0
0
TEXT
8
TEXT
10
513.000000
20
84.750000
30
0.0
40
3.5000
1
HOLE 14 DEPTH
0
TEXT
8
DIM
10
672.000000
20
84.750000
30
0.0
40
3.5000
1
2.7600
72
2
73
0
11
672.000000
21
84.750000
31
0.0
0
TEXT
8
TEXT
10
513.000000
20
79.500000
30
0.0
40
3.5000
1
HOLE 14 POSITION FROM THE Y DATUM FACE
0
TEXT
8
DIM
10
672.000000
20
79.500000
30
0.0
40
3.5000
1
14.2430
72
2
73
0
11
672.000000
21
79.500000
31
0.0
0
TEXT
8
TEXT
10
513.000000
20
74.250000
30
0.0
40
3.5000
1
HOLE 14 POSITION FROM THE Z DATUM FACE
0
TEXT
8
DIM
10
672.000000
20
74.250000
30
0.0
40
3.5000
1
43.7570
72
2
73
0
11
672.000000
21
74.250000
31
0.0
0
TEXT
8
TEXT
10
513.000000
20
69.000000
30
0.0
40
3.5000
1
HOLE 15 DIAMETER (ALONG X)
0
TEXT
8
DIM
10
672.000000
20
69.000000
30
0.0
40
3.5000
1
Ø2.2000
72
2
73
0
11
672.000000
21
69.000000
31
0.0
0
TEXT
8
TEXT
10
513.000000
20
63.750000
30
0.0
40
3.5000
1
HOLE 15 DEPTH
0
TEXT
8
DIM
10
672.000000
20
63.750000
30
0.0
40
3.5000
1
2.7600
72
2
73
0
11
672.000000
21
63.750000
31
0.0
0
TEXT
8
TEXT
10
513.000000
20
58.500000
30
0.0
40
3.5000
1
HOLE 15 POSITION FROM THE Y DATUM FACE
0
TEXT
8
DIM
10
672.000000
20
58.500000
30
0.0
40
3.5000
1
14.2430
72
2
73
0
11
672.000000
21
58.500000
31
0.0
0
TEXT
8
TEXT
10
513.000000
20
53.250000
30
0.0
40
3.5000
1
HOLE 15 POSITION FROM THE Z DATUM FACE
0
TEXT
8
DIM
10
672.000000
20
53.250000
30
0.0
40
3.5000
1
52.2430
72
2
73
0
11
672.000000
21
53.250000
31
0.0
0
TEXT
8
TEXT
10
513.000000
20
48.000000
30
0.0
40
3.5000
1
GROOVE 1 OUTER Ø
0
TEXT
8
DIM
10
672.000000
20
48.000000
30
0.0
40
3.5000
1
Ø8.0000
72
2
73
0
11
672.000000
21
48.000000
31
0.0
0
TEXT
8
TEXT
10
513.000000
20
42.750000
30
0.0
40
3.5000
1
GROOVE 1 CORE Ø
0
TEXT
8
DIM
10
672.000000
20
42.750000
30
0.0
40
3.5000
1
Ø4.9200
72
2
73
0
11
672.000000
21
42.750000
31
0.0
0
TEXT
8
TEXT
10
513.000000
20
37.500000
30
0.0
40
3.5000
1
GROOVE 1 DEPTH
0
TEXT
8
DIM
10
672.000000
20
37.500000
30
0.0
40
3.5000
1
0.5000
72
2
73
0
11
672.000000
21
37.500000
31
0.0
0
TEXT
8
TEXT
10
513.000000
20
32.250000
30
0.0
40
3.5000
1
BOSS / OUTSIDE DIAMETER 1
0
TEXT
8
DIM
10
672.000000
20
32.250000
30
0.0
40
3.5000
1
Ø15.9000
72
2
73
0
11
672.000000
21
32.250000
31
0.0
0
TEXT
8
TEXT
10
513.000000
20
27.000000
30
0.0
40
3.5000
1
BOSS 1 LENGTH ALONG ITS AXIS
0
TEXT
8
DIM
10
672.000000
20
27.000000
30
0.0
40
3.5000
1
1.9500
72
2
73
0
11
672.000000
21
27.000000
31
0.0
0
TEXT
8
TEXT
10
513.000000
20
21.750000
30
0.0
40
3.5000
1
BOSS / OUTSIDE DIAMETER 2
0
TEXT
8
DIM
10
672.000000
20
21.750000
30
0.0
40
3.5000
1
Ø10.0000
72
2
73
0
11
672.000000
21
21.750000
31
0.0
0
TEXT
8
TEXT
10
513.000000
20
16.500000
30
0.0
40
3.5000
1
BOSS 2 LENGTH ALONG ITS AXIS
0
TEXT
8
DIM
10
672.000000
20
16.500000
30
0.0
40
3.5000
1
3.2000
72
2
73
0
11
672.000000
21
16.500000
31
0.0
0
TEXT
8
TEXT
10
680.000000
20
179.250000
30
0.0
40
3.5000
1
BOSS / OUTSIDE DIAMETER 3
0
TEXT
8
DIM
10
839.000000
20
179.250000
30
0.0
40
3.5000
1
Ø10.0000
72
2
73
0
11
839.000000
21
179.250000
31
0.0
0
TEXT
8
TEXT
10
680.000000
20
174.000000
30
0.0
40
3.5000
1
BOSS 3 LENGTH ALONG ITS AXIS
0
TEXT
8
DIM
10
839.000000
20
174.000000
30
0.0
40
3.5000
1
0.5000
72
2
73
0
11
839.000000
21
174.000000
31
0.0
0
TEXT
8
TEXT
10
680.000000
20
168.750000
30
0.0
40
3.5000
1
BOSS / OUTSIDE DIAMETER 4
0
TEXT
8
DIM
10
839.000000
20
168.750000
30
0.0
40
3.5000
1
Ø4.9200
72
2
73
0
11
839.000000
21
168.750000
31
0.0
0
TEXT
8
TEXT
10
680.000000
20
163.500000
30
0.0
40
3.5000
1
BOSS 4 LENGTH ALONG ITS AXIS
0
TEXT
8
DIM
10
839.000000
20
163.500000
30
0.0
40
3.5000
1
2.2900
72
2
73
0
11
839.000000
21
163.500000
31
0.0
0
TEXT
8
TEXT
10
680.000000
20
158.250000
30
0.0
40
3.5000
1
RADIUS R1.10 (8 EDGES, 8 FULL CIRCLES)
0
TEXT
8
DIM
10
839.000000
20
158.250000
30
0.0
40
3.5000
1
R1.1000
72
2
73
0
11
839.000000
21
158.250000
31
0.0
0
TEXT
8
TEXT
10
680.000000
20
153.000000
30
0.0
40
3.5000
1
RADIUS R1.20 (6 EDGES, 2 FULL CIRCLES)
0
TEXT
8
DIM
10
839.000000
20
153.000000
30
0.0
40
3.5000
1
R1.2000
72
2
73
0
11
839.000000
21
153.000000
31
0.0
0
TEXT
8
TEXT
10
680.000000
20
147.750000
30
0.0
40
3.5000
1
RADIUS R1.35 (2 EDGES, 2 FULL CIRCLES)
0
TEXT
8
DIM
10
839.000000
20
147.750000
30
0.0
40
3.5000
1
R1.3500
72
2
73
0
11
839.000000
21
147.750000
31
0.0
0
TEXT
8
TEXT
10
680.000000
20
142.500000
30
0.0
40
3.5000
1
RADIUS R2.20 (12 EDGES, 4 FULL CIRCLES)
0
TEXT
8
DIM
10
839.000000
20
142.500000
30
0.0
40
3.5000
1
R2.2000
72
2
73
0
11
839.000000
21
142.500000
31
0.0
0
TEXT
8
TEXT
10
680.000000
20
137.250000
30
0.0
40
3.5000
1
RADIUS R2.42 (6 EDGES, 0 FULL CIRCLES)
0
TEXT
8
DIM
10
839.000000
20
137.250000
30
0.0
40
3.5000
1
R2.4200
72
2
73
0
11
839.000000
21
137.250000
31
0.0
0
TEXT
8
TEXT
10
680.000000
20
132.000000
30
0.0
40
3.5000
1
RADIUS R2.46 (2 EDGES, 2 FULL CIRCLES)
0
TEXT
8
DIM
10
839.000000
20
132.000000
30
0.0
40
3.5000
1
R2.4600
72
2
73
0
11
839.000000
21
132.000000
31
0.0
0
TEXT
8
TEXT
10
680.000000
20
126.750000
30
0.0
40
3.5000
1
RADIUS R2.75 (2 EDGES, 2 FULL CIRCLES)
0
TEXT
8
DIM
10
839.000000
20
126.750000
30
0.0
40
3.5000
1
R2.7500
72
2
73
0
11
839.000000
21
126.750000
31
0.0
0
TEXT
8
TEXT
10
680.000000
20
121.500000
30
0.0
40
3.5000
1
RADIUS R3.00 (2 EDGES, 2 FULL CIRCLES)
0
TEXT
8
DIM
10
839.000000
20
121.500000
30
0.0
40
3.5000
1
R3.0000
72
2
73
0
11
839.000000
21
121.500000
31
0.0
0
TEXT
8
TEXT
10
680.000000
20
116.250000
30
0.0
40
3.5000
1
RADIUS R4.00 (2 EDGES, 2 FULL CIRCLES)
0
TEXT
8
DIM
10
839.000000
20
116.250000
30
0.0
40
3.5000
1
R4.0000
72
2
73
0
11
839.000000
21
116.250000
31
0.0
0
TEXT
8
TEXT
10
680.000000
20
111.000000
30
0.0
40
3.5000
1
RADIUS R5.00 (4 EDGES, 4 FULL CIRCLES)
0
TEXT
8
DIM
10
839.000000
20
111.000000
30
0.0
40
3.5000
1
R5.0000
72
2
73
0
11
839.000000
21
111.000000
31
0.0
0
TEXT
8
TEXT
10
680.000000
20
105.750000
30
0.0
40
3.5000
1
RADIUS R7.95 (2 EDGES, 2 FULL CIRCLES)
0
TEXT
8
DIM
10
839.000000
20
105.750000
30
0.0
40
3.5000
1
R7.9500
72
2
73
0
11
839.000000
21
105.750000
31
0.0
0
TEXT
8
TEXT
10
680.000000
20
100.500000
30
0.0
40
3.5000
1
THINNEST WALL
0
TEXT
8
DIM
10
839.000000
20
100.500000
30
0.0
40
3.5000
1
0.0280
72
2
73
0
11
839.000000
21
100.500000
31
0.0
0
TEXT
8
TEXT
10
680.000000
20
95.250000
30
0.0
40
3.5000
1
SLOT MOUTH ON A PLANE NORMAL TO X, 8 EDGE(S) — WIDTH
0
TEXT
8
DIM
10
839.000000
20
95.250000
30
0.0
40
3.5000
1
2.4000
72
2
73
0
11
839.000000
21
95.250000
31
0.0
0
TEXT
8
TEXT
10
680.000000
20
90.000000
30
0.0
40
3.5000
1
SLOT MOUTH ON A PLANE NORMAL TO X, 8 EDGE(S) — LENGTH
0
TEXT
8
DIM
10
839.000000
20
90.000000
30
0.0
40
3.5000
1
14.0000
72
2
73
0
11
839.000000
21
90.000000
31
0.0
0
TEXT
8
TEXT
10
680.000000
20
84.750000
30
0.0
40
3.5000
1
SLOT MOUTH ON A PLANE NORMAL TO X, 8 EDGE(S) — DEPTH
0
TEXT
8
DIM
10
839.000000
20
84.750000
30
0.0
40
3.5000
1
2.4500
72
2
73
0
11
839.000000
21
84.750000
31
0.0
0
TEXT
8
TEXT
10
680.000000
20
79.500000
30
0.0
40
3.5000
1
SLOT MOUTH ON A PLANE NORMAL TO X, 8 EDGE(S) — POSITION 
0
TEXT
8
DIM
10
839.000000
20
79.500000
30
0.0
40
3.5000
1
2.0000
72
2
73
0
11
839.000000
21
79.500000
31
0.0
0
TEXT
8
TEXT
10
680.000000
20
74.250000
30
0.0
40
3.5000
1
SLOT MOUTH ON A PLANE NORMAL TO X, 8 EDGE(S) — POSITION 
0
TEXT
8
DIM
10
839.000000
20
74.250000
30
0.0
40
3.5000
1
28.2230
72
2
73
0
11
839.000000
21
74.250000
31
0.0
0
TEXT
8
TEXT
10
680.000000
20
69.000000
30
0.0
40
3.5000
1
POCKET MOUTH ON A PLANE NORMAL TO X, 4 EDGE(S) — WIDTH
0
TEXT
8
DIM
10
839.000000
20
69.000000
30
0.0
40
3.5000
1
1.0000
72
2
73
0
11
839.000000
21
69.000000
31
0.0
0
TEXT
8
TEXT
10
680.000000
20
63.750000
30
0.0
40
3.5000
1
POCKET MOUTH ON A PLANE NORMAL TO X, 4 EDGE(S) — LENGTH
0
TEXT
8
DIM
10
839.000000
20
63.750000
30
0.0
40
3.5000
1
5.5000
72
2
73
0
11
839.000000
21
63.750000
31
0.0
0
TEXT
8
TEXT
10
680.000000
20
58.500000
30
0.0
40
3.5000
1
POCKET MOUTH ON A PLANE NORMAL TO X, 4 EDGE(S) — DEPTH
0
TEXT
8
DIM
10
839.000000
20
58.500000
30
0.0
40
3.5000
1
2.4500
72
2
73
0
11
839.000000
21
58.500000
31
0.0
0
TEXT
8
TEXT
10
680.000000
20
53.250000
30
0.0
40
3.5000
1
POCKET MOUTH ON A PLANE NORMAL TO X, 4 EDGE(S) — POSITIO
0
TEXT
8
DIM
10
839.000000
20
53.250000
30
0.0
40
3.5000
1
6.0000
72
2
73
0
11
839.000000
21
53.250000
31
0.0
0
TEXT
8
TEXT
10
680.000000
20
48.000000
30
0.0
40
3.5000
1
POCKET MOUTH ON A PLANE NORMAL TO X, 4 EDGE(S) — POSITIO
0
TEXT
8
DIM
10
839.000000
20
48.000000
30
0.0
40
3.5000
1
32.4730
72
2
73
0
11
839.000000
21
48.000000
31
0.0
0
TEXT
8
TEXT
10
680.000000
20
42.750000
30
0.0
40
3.5000
1
POCKET MOUTH ON A PLANE NORMAL TO X, 36 EDGE(S) — WIDTH
0
TEXT
8
DIM
10
839.000000
20
42.750000
30
0.0
40
3.5000
1
5.0000
72
2
73
0
11
839.000000
21
42.750000
31
0.0
0
TEXT
8
TEXT
10
680.000000
20
37.500000
30
0.0
40
3.5000
1
POCKET MOUTH ON A PLANE NORMAL TO X, 36 EDGE(S) — LENGTH
0
TEXT
8
DIM
10
839.000000
20
37.500000
30
0.0
40
3.5000
1
11.5000
72
2
73
0
11
839.000000
21
37.500000
31
0.0
0
TEXT
8
TEXT
10
680.000000
20
32.250000
30
0.0
40
3.5000
1
POCKET MOUTH ON A PLANE NORMAL TO X, 36 EDGE(S) — DEPTH
0
TEXT
8
DIM
10
839.000000
20
32.250000
30
0.0
40
3.5000
1
5.3000
72
2
73
0
11
839.000000
21
32.250000
31
0.0
0
TEXT
8
TEXT
10
680.000000
20
27.000000
30
0.0
40
3.5000
1
POCKET MOUTH ON A PLANE NORMAL TO X, 36 EDGE(S) — POSITI
0
TEXT
8
DIM
10
839.000000
20
27.000000
30
0.0
40
3.5000
1
10.0000
72
2
73
0
11
839.000000
21
27.000000
31
0.0
0
TEXT
8
TEXT
10
680.000000
20
21.750000
30
0.0
40
3.5000
1
POCKET MOUTH ON A PLANE NORMAL TO X, 36 EDGE(S) — POSITI
0
TEXT
8
DIM
10
839.000000
20
21.750000
30
0.0
40
3.5000
1
32.9730
72
2
73
0
11
839.000000
21
21.750000
31
0.0
0
TEXT
8
TEXT
10
680.000000
20
16.500000
30
0.0
40
3.5000
1
POCKET MOUTH ON A PLANE NORMAL TO X, 4 EDGE(S) — WIDTH
0
TEXT
8
DIM
10
839.000000
20
16.500000
30
0.0
40
3.5000
1
1.0000
72
2
73
0
11
839.000000
21
16.500000
31
0.0
0
TEXT
8
TEXT
10
847.000000
20
179.250000
30
0.0
40
3.5000
1
POCKET MOUTH ON A PLANE NORMAL TO X, 4 EDGE(S) — LENGTH
0
TEXT
8
DIM
10
1006.000000
20
179.250000
30
0.0
40
3.5000
1
5.5000
72
2
73
0
11
1006.000000
21
179.250000
31
0.0
0
TEXT
8
TEXT
10
847.000000
20
174.000000
30
0.0
40
3.5000
1
POCKET MOUTH ON A PLANE NORMAL TO X, 4 EDGE(S) — DEPTH
0
TEXT
8
DIM
10
1006.000000
20
174.000000
30
0.0
40
3.5000
1
2.4500
72
2
73
0
11
1006.000000
21
174.000000
31
0.0
0
TEXT
8
TEXT
10
847.000000
20
168.750000
30
0.0
40
3.5000
1
POCKET MOUTH ON A PLANE NORMAL TO X, 4 EDGE(S) — POSITIO
0
TEXT
8
DIM
10
1006.000000
20
168.750000
30
0.0
40
3.5000
1
14.0000
72
2
73
0
11
1006.000000
21
168.750000
31
0.0
0
TEXT
8
TEXT
10
847.000000
20
163.500000
30
0.0
40
3.5000
1
POCKET MOUTH ON A PLANE NORMAL TO X, 4 EDGE(S) — POSITIO
0
TEXT
8
DIM
10
1006.000000
20
163.500000
30
0.0
40
3.5000
1
32.4730
72
2
73
0
11
1006.000000
21
163.500000
31
0.0
0
TEXT
8
TEXT
10
847.000000
20
158.250000
30
0.0
40
3.5000
1
SLOT MOUTH ON A PLANE NORMAL TO X, 8 EDGE(S) — WIDTH
0
TEXT
8
DIM
10
1006.000000
20
158.250000
30
0.0
40
3.5000
1
2.4000
72
2
73
0
11
1006.000000
21
158.250000
31
0.0
0
TEXT
8
TEXT
10
847.000000
20
153.000000
30
0.0
40
3.5000
1
SLOT MOUTH ON A PLANE NORMAL TO X, 8 EDGE(S) — LENGTH
0
TEXT
8
DIM
10
1006.000000
20
153.000000
30
0.0
40
3.5000
1
14.0000
72
2
73
0
11
1006.000000
21
153.000000
31
0.0
0
TEXT
8
TEXT
10
847.000000
20
147.750000
30
0.0
40
3.5000
1
SLOT MOUTH ON A PLANE NORMAL TO X, 8 EDGE(S) — DEPTH
0
TEXT
8
DIM
10
1006.000000
20
147.750000
30
0.0
40
3.5000
1
2.4500
72
2
73
0
11
1006.000000
21
147.750000
31
0.0
0
TEXT
8
TEXT
10
847.000000
20
142.500000
30
0.0
40
3.5000
1
SLOT MOUTH ON A PLANE NORMAL TO X, 8 EDGE(S) — POSITION 
0
TEXT
8
DIM
10
1006.000000
20
142.500000
30
0.0
40
3.5000
1
18.0000
72
2
73
0
11
1006.000000
21
142.500000
31
0.0
0
TEXT
8
TEXT
10
847.000000
20
137.250000
30
0.0
40
3.5000
1
SLOT MOUTH ON A PLANE NORMAL TO X, 8 EDGE(S) — POSITION 
0
TEXT
8
DIM
10
1006.000000
20
137.250000
30
0.0
40
3.5000
1
28.2230
72
2
73
0
11
1006.000000
21
137.250000
31
0.0
0
TEXT
8
TEXT
10
847.000000
20
132.000000
30
0.0
40
4.1000
1
CANNOT DETERMINE — FEATURES THIS CENSUS COULD NOT MEASURE (A4)
0
LINE
8
TEXT
10
847.000000
20
130.400000
30
0.0
11
999.520000
21
130.400000
31
0.0
0
TEXT
8
TEXT
10
847.000000
20
125.437500
30
0.0
40
3.5000
1
CANNOT DETERMINE — CHAMFER: A4 requires size and angle on every chamfer;
0
TEXT
8
TEXT
10
847.000000
20
120.187500
30
0.0
40
3.5000
1
   cecad.inspect has no chamfer classifier — a chamfer is a planar face
0
TEXT
8
TEXT
10
847.000000
20
114.937500
30
0.0
40
3.5000
1
   bridging two faces at an angle and nothing here identifies one. SETTLED BY:
0
TEXT
8
TEXT
10
847.000000
20
109.687500
30
0.0
40
3.5000
1
   a chamfer classifier in cecad.inspect (planar face whose two neighbours meet
0
TEXT
8
TEXT
10
847.000000
20
104.437500
30
0.0
40
3.5000
1
   it at equal angles), or the builder declaring its chamfers in the part
0
TEXT
8
TEXT
10
847.000000
20
99.187500
30
0.0
40
3.5000
1
   record
0
TEXT
8
TEXT
10
847.000000
20
93.937500
30
0.0
40
3.5000
1
CANNOT DETERMINE — RIB: A4 requires thickness, height and pitch on every
0
TEXT
8
TEXT
10
847.000000
20
88.687500
30
0.0
40
3.5000
1
   rib; nothing here groups faces into a rib. SETTLED BY: a rib classifier
0
TEXT
8
TEXT
10
1014.000000
20
179.250000
30
0.0
40
3.5000
1
   (parallel thin prisms standing off a wall), or the builder declaring its rib
0
TEXT
8
TEXT
10
1014.000000
20
174.000000
30
0.0
40
3.5000
1
   pitch
0
TEXT
8
TEXT
10
1014.000000
20
168.750000
30
0.0
40
3.5000
1
CANNOT DETERMINE — DRAFT: A4 requires every draft angle; no face here is
0
TEXT
8
TEXT
10
1014.000000
20
163.500000
30
0.0
40
3.5000
1
   tested for draft against a pull direction. SETTLED BY: a pull direction on
0
TEXT
8
TEXT
10
1014.000000
20
158.250000
30
0.0
40
3.5000
1
   the part record, then the angle of every planar face to it
0
TEXT
8
TEXT
10
1014.000000
20
153.000000
30
0.0
40
3.5000
1
CANNOT DETERMINE — STEP: A4 requires every step and shoulder; nothing here
0
TEXT
8
TEXT
10
1014.000000
20
147.750000
30
0.0
40
3.5000
1
   classifies a shoulder between two coaxial diameters or two parallel faces.
0
TEXT
8
TEXT
10
1014.000000
20
142.500000
30
0.0
40
3.5000
1
   SETTLED BY: a step classifier, or the section views declaring their stations
0
TEXT
8
TEXT
10
1014.000000
20
137.250000
30
0.0
40
3.5000
1
CANNOT DETERMINE — MATE: A4 requires every surface that mates with another
0
TEXT
8
TEXT
10
1014.000000
20
132.000000
30
0.0
40
3.5000
1
   part, with the mating part named by its triad ref; the mates live in
0
TEXT
8
TEXT
10
1014.000000
20
126.750000
30
0.0
40
3.5000
1
   ce-assemblies/*/joints.json and are not read here. SETTLED BY: reading this
0
TEXT
8
TEXT
10
1014.000000
20
121.500000
30
0.0
40
3.5000
1
   part's joints out of the assemblies that use it and matching each mate to a
0
TEXT
8
TEXT
10
1014.000000
20
116.250000
30
0.0
40
3.5000
1
   face
0
TEXT
8
TEXT
10
1014.000000
20
111.000000
30
0.0
40
3.5000
1
CANNOT DETERMINE — WALL: A4 wants a wall thickness at every distinct
0
TEXT
8
TEXT
10
1014.000000
20
105.750000
30
0.0
40
3.5000
1
   station; only the thinnest wall is measurable off the solid without a
0
TEXT
8
TEXT
10
1014.000000
20
100.500000
30
0.0
40
3.5000
1
   station list. SETTLED BY: the drawer declaring the section stations it
0
TEXT
8
TEXT
10
1014.000000
20
95.250000
30
0.0
40
3.5000
1
   dimensions, or a section per shell region
0
LINE
8
FRAME
10
10.000000
20
186.500000
30
0.0
11
1179.000000
21
186.500000
31
0.0
0
TEXT
8
TEXT
10
1084.400000
20
381.680000
30
0.0
40
4.5000
1
HOLE TABLE — 8 POSITIONS
0
LINE
8
TITLE
10
1084.400000
20
379.180000
30
0.0
11
1175.000000
21
379.180000
31
0.0
0
TEXT
8
TITLE
10
1085.900000
20
374.305000
30
0.0
40
3.5000
1
TAG
0
TEXT
8
TITLE
10
1095.200000
20
374.305000
30
0.0
40
3.5000
1
SIZE
0
TEXT
8
TITLE
10
1119.200000
20
374.305000
30
0.0
40
3.5000
1
Y
0
TEXT
8
TITLE
10
1132.700000
20
374.305000
30
0.0
40
3.5000
1
Z
0
TEXT
8
TITLE
10
1146.200000
20
374.305000
30
0.0
40
3.5000
1
C'BORE
0
LINE
8
TITLE
10
1084.400000
20
372.705000
30
0.0
11
1175.000000
21
372.705000
31
0.0
0
TEXT
8
TEXT
10
1085.900000
20
367.830000
30
0.0
40
3.5000
1
A1
0
TEXT
8
TEXT
10
1095.200000
20
367.830000
30
0.0
40
3.5000
1
Ø2.20 THRU
0
TEXT
8
TEXT
10
1119.200000
20
367.830000
30
0.0
40
3.5000
1
26.24
0
TEXT
8
TEXT
10
1132.700000
20
367.830000
30
0.0
40
3.5000
1
40.02
0
TEXT
8
TEXT
10
1146.200000
20
367.830000
30
0.0
40
3.5000
1
Ø4.40x4.49 +X
0
TEXT
8
TEXT
10
1085.900000
20
361.355000
30
0.0
40
3.5000
1
A2
0
TEXT
8
TEXT
10
1095.200000
20
361.355000
30
0.0
40
3.5000
1
Ø2.20 THRU
0
TEXT
8
TEXT
10
1119.200000
20
361.355000
30
0.0
40
3.5000
1
17.76
0
TEXT
8
TEXT
10
1132.700000
20
361.355000
30
0.0
40
3.5000
1
40.02
0
TEXT
8
TEXT
10
1146.200000
20
361.355000
30
0.0
40
3.5000
1
Ø4.40x4.49 +X
0
TEXT
8
TEXT
10
1085.900000
20
354.880000
30
0.0
40
3.5000
1
A3
0
TEXT
8
TEXT
10
1095.200000
20
354.880000
30
0.0
40
3.5000
1
Ø6.00 THRU
0
TEXT
8
TEXT
10
1119.200000
20
354.880000
30
0.0
40
3.5000
1
22.00
0
TEXT
8
TEXT
10
1132.700000
20
354.880000
30
0.0
40
3.5000
1
35.78
0
TEXT
8
TEXT
10
1146.200000
20
354.880000
30
0.0
40
3.5000
1
-
0
TEXT
8
TEXT
10
1085.900000
20
348.405000
30
0.0
40
3.5000
1
A4
0
TEXT
8
TEXT
10
1095.200000
20
348.405000
30
0.0
40
3.5000
1
Ø2.20 THRU
0
TEXT
8
TEXT
10
1119.200000
20
348.405000
30
0.0
40
3.5000
1
26.24
0
TEXT
8
TEXT
10
1132.700000
20
348.405000
30
0.0
40
3.5000
1
31.53
0
TEXT
8
TEXT
10
1146.200000
20
348.405000
30
0.0
40
3.5000
1
Ø4.40x4.49 +X
0
TEXT
8
TEXT
10
1085.900000
20
341.930000
30
0.0
40
3.5000
1
A5
0
TEXT
8
TEXT
10
1095.200000
20
341.930000
30
0.0
40
3.5000
1
Ø2.20 THRU
0
TEXT
8
TEXT
10
1119.200000
20
341.930000
30
0.0
40
3.5000
1
17.76
0
TEXT
8
TEXT
10
1132.700000
20
341.930000
30
0.0
40
3.5000
1
31.53
0
TEXT
8
TEXT
10
1146.200000
20
341.930000
30
0.0
40
3.5000
1
Ø4.40x4.49 +X
0
TEXT
8
TEXT
10
1085.900000
20
335.455000
30
0.0
40
3.5000
1
A6
0
TEXT
8
TEXT
10
1095.200000
20
335.455000
30
0.0
40
3.5000
1
Ø2.40 THRU
0
TEXT
8
TEXT
10
1119.200000
20
335.455000
30
0.0
40
3.5000
1
30.00
0
TEXT
8
TEXT
10
1132.700000
20
335.455000
30
0.0
40
3.5000
1
16.28
0
TEXT
8
TEXT
10
1146.200000
20
335.455000
30
0.0
40
3.5000
1
Ø4.84x3.00 +X
0
TEXT
8
TEXT
10
1085.900000
20
328.980000
30
0.0
40
3.5000
1
A7
0
TEXT
8
TEXT
10
1095.200000
20
328.980000
30
0.0
40
3.5000
1
Ø2.40 THRU
0
TEXT
8
TEXT
10
1119.200000
20
328.980000
30
0.0
40
3.5000
1
14.00
0
TEXT
8
TEXT
10
1132.700000
20
328.980000
30
0.0
40
3.5000
1
16.28
0
TEXT
8
TEXT
10
1146.200000
20
328.980000
30
0.0
40
3.5000
1
Ø4.84x3.00 +X
0
TEXT
8
TEXT
10
1085.900000
20
322.505000
30
0.0
40
3.5000
1
A8
0
TEXT
8
TEXT
10
1095.200000
20
322.505000
30
0.0
40
3.5000
1
Ø2.70 THRU
0
TEXT
8
TEXT
10
1119.200000
20
322.505000
30
0.0
40
3.5000
1
22.00
0
TEXT
8
TEXT
10
1132.700000
20
322.505000
30
0.0
40
3.5000
1
-6.22
0
TEXT
8
TEXT
10
1146.200000
20
322.505000
30
0.0
40
3.5000
1
Ø5.50x3.49 -X
0
LINE
8
TITLE
10
1084.400000
20
320.905000
30
0.0
11
1175.000000
21
320.905000
31
0.0
0
LINE
8
TITLE
10
1093.700000
20
320.905000
30
0.0
11
1093.700000
21
379.180000
31
0.0
0
LINE
8
TITLE
10
1117.700000
20
320.905000
30
0.0
11
1117.700000
21
379.180000
31
0.0
0
LINE
8
TITLE
10
1131.200000
20
320.905000
30
0.0
11
1131.200000
21
379.180000
31
0.0
0
LINE
8
TITLE
10
1144.700000
20
320.905000
30
0.0
11
1144.700000
21
379.180000
31
0.0
0
LINE
8
TITLE
10
1175.000000
20
320.905000
30
0.0
11
1175.000000
21
379.180000
31
0.0
0
LINE
8
TITLE
10
1084.400000
20
320.905000
30
0.0
11
1084.400000
21
379.180000
31
0.0
0
TEXT
8
TITLE
10
1084.400000
20
316.905000
30
0.0
40
3.5000
1
every row measured off the solid; positions are model
0
TEXT
8
TITLE
10
1084.400000
20
311.655000
30
0.0
40
3.5000
1
coordinates, mm. C'BORE side is the face it opens on;
0
TEXT
8
TITLE
10
1084.400000
20
306.405000
30
0.0
40
3.5000
1
INT = centred in the bore, opening on neither face.
0
LINE
8
FRAME
10
949.000000
20
10.000000
30
0.0
11
1179.000000
21
10.000000
31
0.0
0
LINE
8
FRAME
10
1179.000000
20
10.000000
30
0.0
11
1179.000000
21
82.000000
31
0.0
0
LINE
8
FRAME
10
1179.000000
20
82.000000
30
0.0
11
949.000000
21
82.000000
31
0.0
0
LINE
8
FRAME
10
949.000000
20
82.000000
30
0.0
11
949.000000
21
10.000000
31
0.0
0
LINE
8
TITLE
10
949.000000
20
67.000000
30
0.0
11
1179.000000
21
67.000000
31
0.0
0
LINE
8
TITLE
10
949.000000
20
21.000000
30
0.0
11
1179.000000
21
21.000000
31
0.0
0
LINE
8
TITLE
10
949.000000
20
32.500000
30
0.0
11
1179.000000
21
32.500000
31
0.0
0
LINE
8
TITLE
10
949.000000
20
44.000000
30
0.0
11
1179.000000
21
44.000000
31
0.0
0
LINE
8
TITLE
10
949.000000
20
55.500000
30
0.0
11
1179.000000
21
55.500000
31
0.0
0
TEXT
8
TEXT
10
951.500000
20
74.500000
30
0.0
40
7.0000
1
MICRODUCK-SHIN
72
0
73
2
11
951.500000
21
74.500000
31
0.0
0
LINE
8
TITLE
10
1159.000000
20
67.000000
30
0.0
11
1159.000000
21
82.000000
31
0.0
0
TEXT
8
TITLE
10
1169.000000
20
77.800000
30
0.0
40
3.5000
1
REV
72
1
73
0
11
1169.000000
21
77.800000
31
0.0
0
TEXT
8
TEXT
10
1169.000000
20
69.000000
30
0.0
40
5.2000
1
A
72
1
73
0
11
1169.000000
21
69.000000
31
0.0
0
LINE
8
TITLE
10
1129.000000
20
67.000000
30
0.0
11
1129.000000
21
82.000000
31
0.0
0
CIRCLE
8
TITLE
10
1135.500000
20
74.500000
30
0.0
40
3.500000
0
CIRCLE
8
TITLE
10
1135.500000
20
74.500000
30
0.0
40
1.960000
0
LINE
8
TITLE
10
1145.300000
20
71.000000
30
0.0
11
1145.300000
21
78.000000
31
0.0
0
LINE
8
TITLE
10
1145.300000
20
78.000000
30
0.0
11
1151.250000
21
76.460000
31
0.0
0
LINE
8
TITLE
10
1151.250000
20
76.460000
30
0.0
11
1151.250000
21
72.540000
31
0.0
0
LINE
8
TITLE
10
1151.250000
20
72.540000
30
0.0
11
1145.300000
21
71.000000
31
0.0
0
LINE
8
CENTER
10
1130.500000
20
74.500000
30
0.0
11
1152.750000
21
74.500000
31
0.0
0
LINE
8
TITLE
10
1013.000000
20
21.000000
30
0.0
11
1013.000000
21
67.000000
31
0.0
0
LINE
8
TITLE
10
1077.000000
20
21.000000
30
0.0
11
1077.000000
21
67.000000
31
0.0
0
TEXT
8
TITLE
10
950.600000
20
62.800000
30
0.0
40
3.5000
1
MATERIAL
0
TEXT
8
TEXT
10
950.600000
20
56.900000
30
0.0
40
3.5000
1
PLA
0
TEXT
8
TITLE
10
1014.600000
20
62.800000
30
0.0
40
3.5000
1
PROCESS
0
TEXT
8
TEXT
10
1014.600000
20
56.900000
30
0.0
40
3.5000
1
FDM
0
TEXT
8
TITLE
10
1078.600000
20
62.800000
30
0.0
40
3.5000
1
SCALE
0
TEXT
8
TEXT
10
1078.600000
20
56.900000
30
0.0
40
3.5000
1
2:1
0
TEXT
8
TITLE
10
950.600000
20
51.300000
30
0.0
40
3.5000
1
CATEGORY
0
TEXT
8
TEXT
10
950.600000
20
45.400000
30
0.0
40
3.5000
1
bracket
0
TEXT
8
TITLE
10
982.600000
20
51.300000
30
0.0
40
3.5000
1
GENERAL TOL
0
TEXT
8
TEXT
10
982.600000
20
45.400000
30
0.0
40
3.5000
1
CANNOT DETER~
0
LINE
8
TITLE
10
981.000000
20
44.000000
30
0.0
11
981.000000
21
55.500000
31
0.0
0
TEXT
8
TITLE
10
1014.600000
20
51.300000
30
0.0
40
3.5000
1
FINISH
0
TEXT
8
TEXT
10
1014.600000
20
45.400000
30
0.0
40
3.5000
1
AS PRINTED
0
TEXT
8
TITLE
10
1078.600000
20
51.300000
30
0.0
40
3.5000
1
SHEET
0
TEXT
8
TEXT
10
1078.600000
20
45.400000
30
0.0
40
3.5000
1
A0  1/1
0
TEXT
8
TITLE
10
950.600000
20
39.800000
30
0.0
40
3.5000
1
VOLUME (MEASURED)
0
TEXT
8
TEXT
10
950.600000
20
33.900000
30
0.0
40
3.5000
1
3.39 cm3
0
TEXT
8
TITLE
10
1014.600000
20
39.800000
30
0.0
40
3.5000
1
MASS (ASSUMES PLA)
0
TEXT
8
TEXT
10
1014.600000
20
33.900000
30
0.0
40
3.5000
1
4.2 g
0
TEXT
8
TITLE
10
1078.600000
20
39.800000
30
0.0
40
3.5000
1
UNITS
0
TEXT
8
TEXT
10
1078.600000
20
33.900000
30
0.0
40
3.5000
1
mm / deg
0
TEXT
8
TITLE
10
950.600000
20
28.300000
30
0.0
40
3.5000
1
SIZE (BBOX, MEASURED)
0
TEXT
8
TEXT
10
950.600000
20
22.400000
30
0.0
40
3.5000
1
7.95 x 20.00 x 58.00
0
TEXT
8
TITLE
10
1014.600000
20
28.300000
30
0.0
40
3.5000
1
DRAWN
0
TEXT
8
TEXT
10
1014.600000
20
22.400000
30
0.0
40
3.5000
1
ce-cad  2026-09-08
0
TEXT
8
TITLE
10
1078.600000
20
28.300000
30
0.0
40
3.5000
1
PROJECTION
0
TEXT
8
TEXT
10
1078.600000
20
22.400000
30
0.0
40
3.5000
1
THIRD ANGLE
0
TEXT
8
TITLE
10
950.600000
20
16.800000
30
0.0
40
3.5000
1
SOURCE (DESIGN FILE)
0
TEXT
8
TEXT
10
950.600000
20
11.400000
30
0.0
40
3.5000
1
ce-parts/microduck-shin/current/cad/part.py
0
TEXT
8
TEXT
10
12.500000
20
824.500000
30
0.0
40
4.2000
1
microduck-shin   SCALE 2:1   A0   THIRD ANGLE
0
ENDSEC
0
EOF
