<svg xmlns="http://www.w3.org/2000/svg" width="868" height="157" viewBox="0 0 868 157" font-family="IBM Plex Mono, Menlo, monospace"><rect width="100%" height="100%" fill="#ffffff"/><rect x="10" y="10" width="172" height="97" fill="#fbfaf7" stroke="#1a1a1a" stroke-width="1.2"/><text x="16" y="26" font-size="12" font-weight="700" fill="#1a1a1a">P1</text><text x="16" y="40" font-size="9.5" fill="#565656">NP-F pack contacts</text><line x1="10" y1="46" x2="182" y2="46" stroke="#d7d3ca" stroke-width="1"/><line x1="1" y1="60" x2="10" y2="60" stroke="#243b53" stroke-width="1.2"/><text x="15" y="64" font-size="9" fill="#1a1a1a">BAT+</text><text x="178" y="64" font-size="9" text-anchor="end" fill="#243b53">VBAT</text><line x1="1" y1="75" x2="10" y2="75" stroke="#243b53" stroke-width="1.2"/><text x="15" y="78" font-size="9" fill="#1a1a1a">T</text><text x="178" y="78" font-size="9" text-anchor="end" fill="#243b53">BAT_T</text><line x1="1" y1="90" x2="10" y2="90" stroke="#243b53" stroke-width="1.2"/><text x="15" y="94" font-size="9" fill="#1a1a1a">BAT-</text><text x="178" y="94" font-size="9" text-anchor="end" fill="#243b53">GND</text><rect x="222" y="10" width="172" height="97" fill="#fbfaf7" stroke="#1a1a1a" stroke-width="1.2"/><text x="228" y="26" font-size="12" font-weight="700" fill="#1a1a1a">P2</text><text x="228" y="40" font-size="9.5" fill="#565656">3-wire tail to the HAT</text><line x1="222" y1="46" x2="394" y2="46" stroke="#d7d3ca" stroke-width="1"/><line x1="213" y1="60" x2="222" y2="60" stroke="#243b53" stroke-width="1.2"/><text x="227" y="64" font-size="9" fill="#1a1a1a">BAT+</text><text x="390" y="64" font-size="9" text-anchor="end" fill="#243b53">VBAT</text><line x1="213" y1="75" x2="222" y2="75" stroke="#243b53" stroke-width="1.2"/><text x="227" y="78" font-size="9" fill="#1a1a1a">T</text><text x="390" y="78" font-size="9" text-anchor="end" fill="#243b53">BAT_T</text><line x1="213" y1="90" x2="222" y2="90" stroke="#243b53" stroke-width="1.2"/><text x="227" y="94" font-size="9" fill="#1a1a1a">BAT-</text><text x="390" y="94" font-size="9" text-anchor="end" fill="#243b53">GND</text></svg>