<svg xmlns="http://www.w3.org/2000/svg" width="420" height="1354" viewBox="0 0 420 1354"><rect width="100%" height="100%" fill="#fff"/><line x1="160.000" y1="160.856" x2="160.000" y2="160.000" stroke="#111" stroke-width="1.2"/><line x1="160.000" y1="160.000" x2="260.000" y2="160.000" stroke="#111" stroke-width="1.2"/><line x1="260.000" y1="160.000" x2="260.000" y2="160.856" stroke="#111" stroke-width="1.2"/><line x1="160.000" y1="160.856" x2="160.000" y2="163.407" stroke="#111" stroke-width="1.2"/><line x1="160.000" y1="160.856" x2="260.000" y2="160.856" stroke="#111" stroke-width="1.2"/><line x1="160.000" y1="163.407" x2="160.000" y2="167.612" stroke="#111" stroke-width="1.2"/><line x1="160.000" y1="163.407" x2="260.000" y2="163.407" stroke="#111" stroke-width="1.2"/><line x1="160.000" y1="167.612" x2="160.000" y2="173.397" stroke="#111" stroke-width="1.2"/><line x1="160.000" y1="167.612" x2="260.000" y2="167.612" stroke="#111" stroke-width="1.2"/><line x1="160.000" y1="173.397" x2="160.000" y2="180.665" stroke="#111" stroke-width="1.2"/><line x1="160.000" y1="173.397" x2="260.000" y2="173.397" stroke="#111" stroke-width="1.2"/><line x1="160.000" y1="180.665" x2="160.000" y2="189.289" stroke="#111" stroke-width="1.2"/><line x1="160.000" y1="180.665" x2="260.000" y2="180.665" stroke="#111" stroke-width="1.2"/><line x1="160.000" y1="189.289" x2="160.000" y2="199.124" stroke="#111" stroke-width="1.2"/><line x1="160.000" y1="189.289" x2="260.000" y2="189.289" stroke="#111" stroke-width="1.2"/><line x1="160.000" y1="199.124" x2="160.000" y2="210.000" stroke="#111" stroke-width="1.2"/><line x1="160.000" y1="199.124" x2="260.000" y2="199.124" stroke="#111" stroke-width="1.2"/><line x1="160.000" y1="210.000" x2="160.000" y2="221.732" stroke="#111" stroke-width="1.2"/><line x1="160.000" y1="210.000" x2="260.000" y2="210.000" stroke="#111" stroke-width="1.2"/><line x1="160.000" y1="221.732" x2="160.000" y2="234.118" stroke="#111" stroke-width="1.2"/><line x1="160.000" y1="221.732" x2="260.000" y2="221.732" stroke="#111" stroke-width="1.2"/><line x1="160.000" y1="234.118" x2="160.000" y2="246.947" stroke="#111" stroke-width="1.2"/><line x1="160.000" y1="234.118" x2="260.000" y2="234.118" stroke="#111" stroke-width="1.2"/><line x1="160.000" y1="246.947" x2="160.000" y2="260.000" stroke="#111" stroke-width="1.2"/><line x1="160.000" y1="246.947" x2="260.000" y2="246.947" stroke="#111" stroke-width="1.2"/><line x1="160.000" y1="260.000" x2="160.000" y2="1060.000" stroke="#111" stroke-width="1.2"/><line x1="160.000" y1="260.000" x2="260.000" y2="260.000" stroke="#111" stroke-width="1.2"/><line x1="160.000" y1="1060.000" x2="160.000" y2="1073.053" stroke="#111" stroke-width="1.2"/><line x1="160.000" y1="1060.000" x2="260.000" y2="1060.000" stroke="#111" stroke-width="1.2"/><line x1="160.000" y1="1073.053" x2="160.000" y2="1085.882" stroke="#111" stroke-width="1.2"/><line x1="160.000" y1="1073.053" x2="260.000" y2="1073.053" stroke="#111" stroke-width="1.2"/><line x1="160.000" y1="1085.882" x2="160.000" y2="1098.268" stroke="#111" stroke-width="1.2"/><line x1="160.000" y1="1085.882" x2="260.000" y2="1085.882" stroke="#111" stroke-width="1.2"/><line x1="160.000" y1="1098.268" x2="160.000" y2="1110.000" stroke="#111" stroke-width="1.2"/><line x1="160.000" y1="1098.268" x2="260.000" y2="1098.268" stroke="#111" stroke-width="1.2"/><line x1="160.000" y1="1110.000" x2="160.000" y2="1120.876" stroke="#111" stroke-width="1.2"/><line x1="160.000" y1="1110.000" x2="260.000" y2="1110.000" stroke="#111" stroke-width="1.2"/><line x1="160.000" y1="1120.876" x2="160.000" y2="1130.711" stroke="#111" stroke-width="1.2"/><line x1="160.000" y1="1120.876" x2="260.000" y2="1120.876" stroke="#111" stroke-width="1.2"/><line x1="160.000" y1="1130.711" x2="160.000" y2="1139.335" stroke="#111" stroke-width="1.2"/><line x1="160.000" y1="1130.711" x2="260.000" y2="1130.711" stroke="#111" stroke-width="1.2"/><line x1="160.000" y1="1139.335" x2="160.000" y2="1146.603" stroke="#111" stroke-width="1.2"/><line x1="160.000" y1="1139.335" x2="260.000" y2="1139.335" stroke="#111" stroke-width="1.2"/><line x1="160.000" y1="1146.603" x2="160.000" y2="1152.388" stroke="#111" stroke-width="1.2"/><line x1="160.000" y1="1146.603" x2="260.000" y2="1146.603" stroke="#111" stroke-width="1.2"/><line x1="160.000" y1="1152.388" x2="160.000" y2="1156.593" stroke="#111" stroke-width="1.2"/><line x1="160.000" y1="1152.388" x2="260.000" y2="1152.388" stroke="#111" stroke-width="1.2"/><line x1="160.000" y1="1156.593" x2="160.000" y2="1159.144" stroke="#111" stroke-width="1.2"/><line x1="160.000" y1="1156.593" x2="260.000" y2="1156.593" stroke="#111" stroke-width="1.2"/><line x1="160.000" y1="1159.144" x2="160.000" y2="1160.000" stroke="#111" stroke-width="1.2"/><line x1="160.000" y1="1160.000" x2="260.000" y2="1160.000" stroke="#111" stroke-width="1.2"/><line x1="260.000" y1="1160.000" x2="260.000" y2="1159.144" stroke="#111" stroke-width="1.2"/><line x1="160.000" y1="1159.144" x2="260.000" y2="1159.144" stroke="#111" stroke-width="1.2"/><line x1="260.000" y1="160.856" x2="260.000" y2="163.407" stroke="#111" stroke-width="1.2"/><line x1="260.000" y1="163.407" x2="260.000" y2="167.612" stroke="#111" stroke-width="1.2"/><line x1="260.000" y1="167.612" x2="260.000" y2="173.397" stroke="#111" stroke-width="1.2"/><line x1="260.000" y1="173.397" x2="260.000" y2="180.665" stroke="#111" stroke-width="1.2"/><line x1="260.000" y1="180.665" x2="260.000" y2="189.289" stroke="#111" stroke-width="1.2"/><line x1="260.000" y1="189.289" x2="260.000" y2="199.124" stroke="#111" stroke-width="1.2"/><line x1="260.000" y1="199.124" x2="260.000" y2="210.000" stroke="#111" stroke-width="1.2"/><line x1="260.000" y1="210.000" x2="260.000" y2="221.732" stroke="#111" stroke-width="1.2"/><line x1="260.000" y1="221.732" x2="260.000" y2="234.118" stroke="#111" stroke-width="1.2"/><line x1="260.000" y1="234.118" x2="260.000" y2="246.947" stroke="#111" stroke-width="1.2"/><line x1="260.000" y1="246.947" x2="260.000" y2="260.000" stroke="#111" stroke-width="1.2"/><line x1="260.000" y1="260.000" x2="260.000" y2="1060.000" stroke="#111" stroke-width="1.2"/><line x1="260.000" y1="1060.000" x2="260.000" y2="1073.053" stroke="#111" stroke-width="1.2"/><line x1="260.000" y1="1073.053" x2="260.000" y2="1085.882" stroke="#111" stroke-width="1.2"/><line x1="260.000" y1="1085.882" x2="260.000" y2="1098.268" stroke="#111" stroke-width="1.2"/><line x1="260.000" y1="1098.268" x2="260.000" y2="1110.000" stroke="#111" stroke-width="1.2"/><line x1="260.000" y1="1110.000" x2="260.000" y2="1120.876" stroke="#111" stroke-width="1.2"/><line x1="260.000" y1="1120.876" x2="260.000" y2="1130.711" stroke="#111" stroke-width="1.2"/><line x1="260.000" y1="1130.711" x2="260.000" y2="1139.335" stroke="#111" stroke-width="1.2"/><line x1="260.000" y1="1139.335" x2="260.000" y2="1146.603" stroke="#111" stroke-width="1.2"/><line x1="260.000" y1="1146.603" x2="260.000" y2="1152.388" stroke="#111" stroke-width="1.2"/><line x1="260.000" y1="1152.388" x2="260.000" y2="1156.593" stroke="#111" stroke-width="1.2"/><line x1="260.000" y1="1156.593" x2="260.000" y2="1159.144" stroke="#111" stroke-width="1.2"/><line x1="160.000" y1="260.000" x2="160.000" y2="317.500" stroke="#bbb" stroke-width="0.7" stroke-dasharray="4,3"/><line x1="160.000" y1="260.000" x2="160.000" y2="202.500" stroke="#bbb" stroke-width="0.7" stroke-dasharray="4,3"/><line x1="160.000" y1="260.000" x2="160.000" y2="317.500" stroke="#bbb" stroke-width="0.7" stroke-dasharray="4,3"/><line x1="160.000" y1="260.000" x2="160.000" y2="202.500" stroke="#bbb" stroke-width="0.7" stroke-dasharray="4,3"/><line x1="160.000" y1="1060.000" x2="160.000" y2="1117.500" stroke="#bbb" stroke-width="0.7" stroke-dasharray="4,3"/><line x1="160.000" y1="1060.000" x2="160.000" y2="1002.500" stroke="#bbb" stroke-width="0.7" stroke-dasharray="4,3"/><line x1="160.000" y1="1060.000" x2="160.000" y2="1117.500" stroke="#bbb" stroke-width="0.7" stroke-dasharray="4,3"/><line x1="160.000" y1="1060.000" x2="160.000" y2="1002.500" stroke="#bbb" stroke-width="0.7" stroke-dasharray="4,3"/><line x1="160.000" y1="1117.500" x2="160.000" y2="1002.500" stroke="#bbb" stroke-width="0.7" stroke-dasharray="4,3"/><line x1="160.000" y1="1117.500" x2="160.000" y2="1002.500" stroke="#bbb" stroke-width="0.7" stroke-dasharray="4,3"/><line x1="160.000" y1="1117.500" x2="260.000" y2="1117.500" stroke="#bbb" stroke-width="0.7" stroke-dasharray="4,3"/><line x1="160.000" y1="1117.500" x2="260.000" y2="1117.500" stroke="#bbb" stroke-width="0.7" stroke-dasharray="4,3"/><line x1="160.000" y1="1002.500" x2="260.000" y2="1002.500" stroke="#bbb" stroke-width="0.7" stroke-dasharray="4,3"/><line x1="160.000" y1="1002.500" x2="260.000" y2="1002.500" stroke="#bbb" stroke-width="0.7" stroke-dasharray="4,3"/><line x1="160.000" y1="317.500" x2="160.000" y2="202.500" stroke="#bbb" stroke-width="0.7" stroke-dasharray="4,3"/><line x1="160.000" y1="317.500" x2="160.000" y2="202.500" stroke="#bbb" stroke-width="0.7" stroke-dasharray="4,3"/><line x1="160.000" y1="317.500" x2="260.000" y2="317.500" stroke="#bbb" stroke-width="0.7" stroke-dasharray="4,3"/><line x1="160.000" y1="317.500" x2="260.000" y2="317.500" stroke="#bbb" stroke-width="0.7" stroke-dasharray="4,3"/><line x1="160.000" y1="202.500" x2="260.000" y2="202.500" stroke="#bbb" stroke-width="0.7" stroke-dasharray="4,3"/><line x1="160.000" y1="202.500" x2="260.000" y2="202.500" stroke="#bbb" stroke-width="0.7" stroke-dasharray="4,3"/><line x1="260.000" y1="260.000" x2="260.000" y2="317.500" stroke="#bbb" stroke-width="0.7" stroke-dasharray="4,3"/><line x1="260.000" y1="260.000" x2="260.000" y2="202.500" stroke="#bbb" stroke-width="0.7" stroke-dasharray="4,3"/><line x1="260.000" y1="260.000" x2="260.000" y2="317.500" stroke="#bbb" stroke-width="0.7" stroke-dasharray="4,3"/><line x1="260.000" y1="260.000" x2="260.000" y2="202.500" stroke="#bbb" stroke-width="0.7" stroke-dasharray="4,3"/><line x1="260.000" y1="1060.000" x2="260.000" y2="1117.500" stroke="#bbb" stroke-width="0.7" stroke-dasharray="4,3"/><line x1="260.000" y1="1060.000" x2="260.000" y2="1002.500" stroke="#bbb" stroke-width="0.7" stroke-dasharray="4,3"/><line x1="260.000" y1="1060.000" x2="260.000" y2="1117.500" stroke="#bbb" stroke-width="0.7" stroke-dasharray="4,3"/><line x1="260.000" y1="1060.000" x2="260.000" y2="1002.500" stroke="#bbb" stroke-width="0.7" stroke-dasharray="4,3"/><line x1="260.000" y1="1117.500" x2="260.000" y2="1002.500" stroke="#bbb" stroke-width="0.7" stroke-dasharray="4,3"/><line x1="260.000" y1="1117.500" x2="260.000" y2="1002.500" stroke="#bbb" stroke-width="0.7" stroke-dasharray="4,3"/><line x1="260.000" y1="317.500" x2="260.000" y2="202.500" stroke="#bbb" stroke-width="0.7" stroke-dasharray="4,3"/><line x1="260.000" y1="317.500" x2="260.000" y2="202.500" stroke="#bbb" stroke-width="0.7" stroke-dasharray="4,3"/><text x="10" y="1345" font-family="Helvetica" font-size="22" fill="#000">microduck-neck-plate  top  AFTER +hidden  108 prims</text></svg>