0
SECTION
2
HEADER
9
$ACADVER
1
AC1009
9
$INSUNITS
70
4
9
$LTSCALE
40
1.0
9
$EXTMIN
10
0.0000
20
0.0000
30
0.0
9
$EXTMAX
10
841.0000
20
594.0000
30
0.0
0
ENDSEC
0
SECTION
2
TABLES
0
TABLE
2
LTYPE
70
4
0
LTYPE
2
CONTINUOUS
70
0
3
Solid line
72
65
73
0
40
0.0000
0
LTYPE
2
HIDDEN
70
0
3
Hidden __ __ __ __
72
65
73
2
40
3.6000
49
2.4000
49
-1.2000
0
LTYPE
2
CENTER
70
0
3
Center ____ _ ____ _
72
65
73
4
40
11.2000
49
7.0000
49
-1.4000
49
1.4000
49
-1.4000
0
LTYPE
2
PHANTOM
70
0
3
Phantom ____ _ _ ____
72
65
73
6
40
21.0000
49
11.0000
49
-2.0000
49
2.0000
49
-2.0000
49
2.0000
49
-2.0000
0
ENDTAB
0
TABLE
2
LAYER
70
12
0
LAYER
2
0
70
0
62
7
6
CONTINUOUS
0
LAYER
2
VISIBLE
70
0
62
7
6
CONTINUOUS
0
LAYER
2
SECTION
70
0
62
7
6
CONTINUOUS
0
LAYER
2
HIDDEN
70
0
62
8
6
HIDDEN
0
LAYER
2
CENTER
70
0
62
4
6
CENTER
0
LAYER
2
DIM
70
0
62
3
6
CONTINUOUS
0
LAYER
2
TEXT
70
0
62
3
6
CONTINUOUS
0
LAYER
2
HATCH
70
0
62
5
6
CONTINUOUS
0
LAYER
2
CUT
70
0
62
1
6
PHANTOM
0
LAYER
2
CUTTHIN
70
0
62
1
6
PHANTOM
0
LAYER
2
FRAME
70
0
62
7
6
CONTINUOUS
0
LAYER
2
TITLE
70
0
62
7
6
CONTINUOUS
0
ENDTAB
0
ENDSEC
0
SECTION
2
ENTITIES
0
LINE
8
TITLE
10
5.000000
20
5.000000
30
0.0
11
836.000000
21
5.000000
31
0.0
0
LINE
8
TITLE
10
836.000000
20
5.000000
30
0.0
11
836.000000
21
589.000000
31
0.0
0
LINE
8
TITLE
10
836.000000
20
589.000000
30
0.0
11
5.000000
21
589.000000
31
0.0
0
LINE
8
TITLE
10
5.000000
20
589.000000
30
0.0
11
5.000000
21
5.000000
31
0.0
0
LINE
8
FRAME
10
10.000000
20
10.000000
30
0.0
11
831.000000
21
10.000000
31
0.0
0
LINE
8
FRAME
10
831.000000
20
10.000000
30
0.0
11
831.000000
21
584.000000
31
0.0
0
LINE
8
FRAME
10
831.000000
20
584.000000
30
0.0
11
10.000000
21
584.000000
31
0.0
0
LINE
8
FRAME
10
10.000000
20
584.000000
30
0.0
11
10.000000
21
10.000000
31
0.0
0
TEXT
8
TITLE
10
61.312500
20
586.500000
30
0.0
40
2.4000
1
1
72
1
73
2
11
61.312500
21
586.500000
31
0.0
0
TEXT
8
TITLE
10
61.312500
20
7.500000
30
0.0
40
2.4000
1
1
72
1
73
2
11
61.312500
21
7.500000
31
0.0
0
TEXT
8
TITLE
10
163.937500
20
586.500000
30
0.0
40
2.4000
1
2
72
1
73
2
11
163.937500
21
586.500000
31
0.0
0
TEXT
8
TITLE
10
163.937500
20
7.500000
30
0.0
40
2.4000
1
2
72
1
73
2
11
163.937500
21
7.500000
31
0.0
0
LINE
8
TITLE
10
112.625000
20
5.000000
30
0.0
11
112.625000
21
10.000000
31
0.0
0
LINE
8
TITLE
10
112.625000
20
584.000000
30
0.0
11
112.625000
21
589.000000
31
0.0
0
TEXT
8
TITLE
10
266.562500
20
586.500000
30
0.0
40
2.4000
1
3
72
1
73
2
11
266.562500
21
586.500000
31
0.0
0
TEXT
8
TITLE
10
266.562500
20
7.500000
30
0.0
40
2.4000
1
3
72
1
73
2
11
266.562500
21
7.500000
31
0.0
0
LINE
8
TITLE
10
215.250000
20
5.000000
30
0.0
11
215.250000
21
10.000000
31
0.0
0
LINE
8
TITLE
10
215.250000
20
584.000000
30
0.0
11
215.250000
21
589.000000
31
0.0
0
TEXT
8
TITLE
10
369.187500
20
586.500000
30
0.0
40
2.4000
1
4
72
1
73
2
11
369.187500
21
586.500000
31
0.0
0
TEXT
8
TITLE
10
369.187500
20
7.500000
30
0.0
40
2.4000
1
4
72
1
73
2
11
369.187500
21
7.500000
31
0.0
0
LINE
8
TITLE
10
317.875000
20
5.000000
30
0.0
11
317.875000
21
10.000000
31
0.0
0
LINE
8
TITLE
10
317.875000
20
584.000000
30
0.0
11
317.875000
21
589.000000
31
0.0
0
TEXT
8
TITLE
10
471.812500
20
586.500000
30
0.0
40
2.4000
1
5
72
1
73
2
11
471.812500
21
586.500000
31
0.0
0
TEXT
8
TITLE
10
471.812500
20
7.500000
30
0.0
40
2.4000
1
5
72
1
73
2
11
471.812500
21
7.500000
31
0.0
0
LINE
8
TITLE
10
420.500000
20
5.000000
30
0.0
11
420.500000
21
10.000000
31
0.0
0
LINE
8
TITLE
10
420.500000
20
584.000000
30
0.0
11
420.500000
21
589.000000
31
0.0
0
TEXT
8
TITLE
10
574.437500
20
586.500000
30
0.0
40
2.4000
1
6
72
1
73
2
11
574.437500
21
586.500000
31
0.0
0
TEXT
8
TITLE
10
574.437500
20
7.500000
30
0.0
40
2.4000
1
6
72
1
73
2
11
574.437500
21
7.500000
31
0.0
0
LINE
8
TITLE
10
523.125000
20
5.000000
30
0.0
11
523.125000
21
10.000000
31
0.0
0
LINE
8
TITLE
10
523.125000
20
584.000000
30
0.0
11
523.125000
21
589.000000
31
0.0
0
TEXT
8
TITLE
10
677.062500
20
586.500000
30
0.0
40
2.4000
1
7
72
1
73
2
11
677.062500
21
586.500000
31
0.0
0
TEXT
8
TITLE
10
677.062500
20
7.500000
30
0.0
40
2.4000
1
7
72
1
73
2
11
677.062500
21
7.500000
31
0.0
0
LINE
8
TITLE
10
625.750000
20
5.000000
30
0.0
11
625.750000
21
10.000000
31
0.0
0
LINE
8
TITLE
10
625.750000
20
584.000000
30
0.0
11
625.750000
21
589.000000
31
0.0
0
TEXT
8
TITLE
10
779.687500
20
586.500000
30
0.0
40
2.4000
1
8
72
1
73
2
11
779.687500
21
586.500000
31
0.0
0
TEXT
8
TITLE
10
779.687500
20
7.500000
30
0.0
40
2.4000
1
8
72
1
73
2
11
779.687500
21
7.500000
31
0.0
0
LINE
8
TITLE
10
728.375000
20
5.000000
30
0.0
11
728.375000
21
10.000000
31
0.0
0
LINE
8
TITLE
10
728.375000
20
584.000000
30
0.0
11
728.375000
21
589.000000
31
0.0
0
TEXT
8
TITLE
10
7.500000
20
67.400000
30
0.0
40
2.4000
1
E
72
1
73
2
11
7.500000
21
67.400000
31
0.0
0
TEXT
8
TITLE
10
833.500000
20
67.400000
30
0.0
40
2.4000
1
E
72
1
73
2
11
833.500000
21
67.400000
31
0.0
0
TEXT
8
TITLE
10
7.500000
20
182.200000
30
0.0
40
2.4000
1
D
72
1
73
2
11
7.500000
21
182.200000
31
0.0
0
TEXT
8
TITLE
10
833.500000
20
182.200000
30
0.0
40
2.4000
1
D
72
1
73
2
11
833.500000
21
182.200000
31
0.0
0
LINE
8
TITLE
10
5.000000
20
124.800000
30
0.0
11
10.000000
21
124.800000
31
0.0
0
LINE
8
TITLE
10
831.000000
20
124.800000
30
0.0
11
836.000000
21
124.800000
31
0.0
0
TEXT
8
TITLE
10
7.500000
20
297.000000
30
0.0
40
2.4000
1
C
72
1
73
2
11
7.500000
21
297.000000
31
0.0
0
TEXT
8
TITLE
10
833.500000
20
297.000000
30
0.0
40
2.4000
1
C
72
1
73
2
11
833.500000
21
297.000000
31
0.0
0
LINE
8
TITLE
10
5.000000
20
239.600000
30
0.0
11
10.000000
21
239.600000
31
0.0
0
LINE
8
TITLE
10
831.000000
20
239.600000
30
0.0
11
836.000000
21
239.600000
31
0.0
0
TEXT
8
TITLE
10
7.500000
20
411.800000
30
0.0
40
2.4000
1
B
72
1
73
2
11
7.500000
21
411.800000
31
0.0
0
TEXT
8
TITLE
10
833.500000
20
411.800000
30
0.0
40
2.4000
1
B
72
1
73
2
11
833.500000
21
411.800000
31
0.0
0
LINE
8
TITLE
10
5.000000
20
354.400000
30
0.0
11
10.000000
21
354.400000
31
0.0
0
LINE
8
TITLE
10
831.000000
20
354.400000
30
0.0
11
836.000000
21
354.400000
31
0.0
0
TEXT
8
TITLE
10
7.500000
20
526.600000
30
0.0
40
2.4000
1
A
72
1
73
2
11
7.500000
21
526.600000
31
0.0
0
TEXT
8
TITLE
10
833.500000
20
526.600000
30
0.0
40
2.4000
1
A
72
1
73
2
11
833.500000
21
526.600000
31
0.0
0
LINE
8
TITLE
10
5.000000
20
469.200000
30
0.0
11
10.000000
21
469.200000
31
0.0
0
LINE
8
TITLE
10
831.000000
20
469.200000
30
0.0
11
836.000000
21
469.200000
31
0.0
0
LINE
8
VISIBLE
10
173.000000
20
367.000000
30
0.0
11
173.342206
21
372.221048
31
0.0
0
LINE
8
VISIBLE
10
173.000000
20
227.000000
30
0.0
11
173.000000
21
367.000000
31
0.0
0
LINE
8
VISIBLE
10
173.342206
20
372.221048
30
0.0
11
174.362967
21
377.352762
31
0.0
0
LINE
8
VISIBLE
10
173.342206
20
221.778952
30
0.0
11
173.000000
21
227.000000
31
0.0
0
LINE
8
VISIBLE
10
174.362967
20
377.352762
30
0.0
11
176.044819
21
382.307337
31
0.0
0
LINE
8
VISIBLE
10
174.362967
20
216.647238
30
0.0
11
173.342206
21
221.778952
31
0.0
0
LINE
8
VISIBLE
10
176.044819
20
382.307337
30
0.0
11
178.358984
21
387.000000
31
0.0
0
LINE
8
VISIBLE
10
176.044819
20
211.692663
30
0.0
11
174.362967
21
216.647238
31
0.0
0
LINE
8
VISIBLE
10
178.358984
20
387.000000
30
0.0
11
181.265866
21
391.350457
31
0.0
0
LINE
8
VISIBLE
10
178.358984
20
207.000000
30
0.0
11
176.044819
21
211.692663
31
0.0
0
LINE
8
VISIBLE
10
181.265866
20
391.350457
30
0.0
11
184.715729
21
395.284271
31
0.0
0
LINE
8
VISIBLE
10
181.265866
20
202.649543
30
0.0
11
178.358984
21
207.000000
31
0.0
0
LINE
8
VISIBLE
10
184.715729
20
395.284271
30
0.0
11
188.649543
21
398.734134
31
0.0
0
LINE
8
VISIBLE
10
184.715729
20
198.715729
30
0.0
11
181.265866
21
202.649543
31
0.0
0
LINE
8
VISIBLE
10
188.649543
20
398.734134
30
0.0
11
193.000000
21
401.641016
31
0.0
0
LINE
8
VISIBLE
10
188.649543
20
195.265866
30
0.0
11
184.715729
21
198.715729
31
0.0
0
LINE
8
VISIBLE
10
193.000000
20
401.641016
30
0.0
11
197.692663
21
403.955181
31
0.0
0
LINE
8
VISIBLE
10
193.000000
20
192.358984
30
0.0
11
188.649543
21
195.265866
31
0.0
0
LINE
8
VISIBLE
10
197.692663
20
403.955181
30
0.0
11
202.647238
21
405.637033
31
0.0
0
LINE
8
VISIBLE
10
197.692663
20
190.044819
30
0.0
11
193.000000
21
192.358984
31
0.0
0
LINE
8
VISIBLE
10
202.647238
20
405.637033
30
0.0
11
207.778952
21
406.657794
31
0.0
0
LINE
8
VISIBLE
10
202.647238
20
188.362967
30
0.0
11
197.692663
21
190.044819
31
0.0
0
LINE
8
VISIBLE
10
207.778952
20
406.657794
30
0.0
11
213.000000
21
407.000000
31
0.0
0
LINE
8
VISIBLE
10
207.778952
20
187.342206
30
0.0
11
202.647238
21
188.362967
31
0.0
0
LINE
8
VISIBLE
10
213.000000
20
407.000000
30
0.0
11
533.000000
21
407.000000
31
0.0
0
LINE
8
VISIBLE
10
213.000000
20
187.000000
30
0.0
11
207.778952
21
187.342206
31
0.0
0
LINE
8
VISIBLE
10
533.000000
20
407.000000
30
0.0
11
538.221048
21
406.657794
31
0.0
0
LINE
8
VISIBLE
10
533.000000
20
187.000000
30
0.0
11
213.000000
21
187.000000
31
0.0
0
LINE
8
VISIBLE
10
538.221048
20
406.657794
30
0.0
11
543.352762
21
405.637033
31
0.0
0
LINE
8
VISIBLE
10
538.221048
20
187.342206
30
0.0
11
533.000000
21
187.000000
31
0.0
0
LINE
8
VISIBLE
10
543.352762
20
405.637033
30
0.0
11
548.307337
21
403.955181
31
0.0
0
LINE
8
VISIBLE
10
543.352762
20
188.362967
30
0.0
11
538.221048
21
187.342206
31
0.0
0
LINE
8
VISIBLE
10
548.307337
20
403.955181
30
0.0
11
553.000000
21
401.641016
31
0.0
0
LINE
8
VISIBLE
10
548.307337
20
190.044819
30
0.0
11
543.352762
21
188.362967
31
0.0
0
LINE
8
VISIBLE
10
553.000000
20
401.641016
30
0.0
11
557.350457
21
398.734134
31
0.0
0
LINE
8
VISIBLE
10
553.000000
20
192.358984
30
0.0
11
548.307337
21
190.044819
31
0.0
0
LINE
8
VISIBLE
10
557.350457
20
398.734134
30
0.0
11
561.284271
21
395.284271
31
0.0
0
LINE
8
VISIBLE
10
557.350457
20
195.265866
30
0.0
11
553.000000
21
192.358984
31
0.0
0
LINE
8
VISIBLE
10
561.284271
20
395.284271
30
0.0
11
564.734134
21
391.350457
31
0.0
0
LINE
8
VISIBLE
10
561.284271
20
198.715729
30
0.0
11
557.350457
21
195.265866
31
0.0
0
LINE
8
VISIBLE
10
564.734134
20
391.350457
30
0.0
11
567.641016
21
387.000000
31
0.0
0
LINE
8
VISIBLE
10
564.734134
20
202.649543
30
0.0
11
561.284271
21
198.715729
31
0.0
0
LINE
8
VISIBLE
10
567.641016
20
387.000000
30
0.0
11
569.955181
21
382.307337
31
0.0
0
LINE
8
VISIBLE
10
567.641016
20
207.000000
30
0.0
11
564.734134
21
202.649543
31
0.0
0
LINE
8
VISIBLE
10
569.955181
20
382.307337
30
0.0
11
571.637033
21
377.352762
31
0.0
0
LINE
8
VISIBLE
10
569.955181
20
211.692663
30
0.0
11
567.641016
21
207.000000
31
0.0
0
LINE
8
VISIBLE
10
571.637033
20
377.352762
30
0.0
11
572.657794
21
372.221048
31
0.0
0
LINE
8
VISIBLE
10
571.637033
20
216.647238
30
0.0
11
569.955181
21
211.692663
31
0.0
0
LINE
8
VISIBLE
10
572.657794
20
372.221048
30
0.0
11
573.000000
21
367.000000
31
0.0
0
LINE
8
VISIBLE
10
572.657794
20
221.778952
30
0.0
11
571.637033
21
216.647238
31
0.0
0
LINE
8
VISIBLE
10
573.000000
20
367.000000
30
0.0
11
573.000000
21
227.000000
31
0.0
0
LINE
8
VISIBLE
10
573.000000
20
227.000000
30
0.0
11
572.657794
21
221.778952
31
0.0
0
CIRCLE
8
VISIBLE
10
533.000000
20
247.000000
30
0.0
40
23.000000
0
CIRCLE
8
VISIBLE
10
213.000000
20
247.000000
30
0.0
40
23.000000
0
CIRCLE
8
VISIBLE
10
533.000000
20
347.000000
30
0.0
40
23.000000
0
CIRCLE
8
VISIBLE
10
213.000000
20
347.000000
30
0.0
40
23.000000
0
LINE
8
VISIBLE
10
134.000000
20
407.000000
30
0.0
11
134.000000
21
406.657794
31
0.0
0
LINE
8
VISIBLE
10
134.000000
20
406.657794
30
0.0
11
134.000000
21
405.637033
31
0.0
0
LINE
8
VISIBLE
10
134.000000
20
187.342206
30
0.0
11
134.000000
21
187.000000
31
0.0
0
LINE
8
VISIBLE
10
134.000000
20
405.637033
30
0.0
11
134.000000
21
403.955181
31
0.0
0
LINE
8
VISIBLE
10
134.000000
20
188.362967
30
0.0
11
134.000000
21
187.342206
31
0.0
0
LINE
8
VISIBLE
10
134.000000
20
403.955181
30
0.0
11
134.000000
21
401.641016
31
0.0
0
LINE
8
VISIBLE
10
134.000000
20
190.044819
30
0.0
11
134.000000
21
188.362967
31
0.0
0
LINE
8
VISIBLE
10
134.000000
20
401.641016
30
0.0
11
134.000000
21
398.734134
31
0.0
0
LINE
8
VISIBLE
10
134.000000
20
192.358984
30
0.0
11
134.000000
21
190.044819
31
0.0
0
LINE
8
VISIBLE
10
134.000000
20
398.734134
30
0.0
11
134.000000
21
395.284271
31
0.0
0
LINE
8
VISIBLE
10
134.000000
20
195.265866
30
0.0
11
134.000000
21
192.358984
31
0.0
0
LINE
8
VISIBLE
10
134.000000
20
395.284271
30
0.0
11
134.000000
21
391.350457
31
0.0
0
LINE
8
VISIBLE
10
134.000000
20
198.715729
30
0.0
11
134.000000
21
195.265866
31
0.0
0
LINE
8
VISIBLE
10
134.000000
20
391.350457
30
0.0
11
134.000000
21
387.000000
31
0.0
0
LINE
8
VISIBLE
10
134.000000
20
202.649543
30
0.0
11
134.000000
21
198.715729
31
0.0
0
LINE
8
VISIBLE
10
134.000000
20
387.000000
30
0.0
11
134.000000
21
382.307337
31
0.0
0
LINE
8
VISIBLE
10
134.000000
20
207.000000
30
0.0
11
134.000000
21
202.649543
31
0.0
0
LINE
8
VISIBLE
10
134.000000
20
382.307337
30
0.0
11
134.000000
21
377.352762
31
0.0
0
LINE
8
VISIBLE
10
134.000000
20
211.692663
30
0.0
11
134.000000
21
207.000000
31
0.0
0
LINE
8
VISIBLE
10
134.000000
20
377.352762
30
0.0
11
134.000000
21
372.221048
31
0.0
0
LINE
8
VISIBLE
10
134.000000
20
216.647238
30
0.0
11
134.000000
21
211.692663
31
0.0
0
LINE
8
VISIBLE
10
134.000000
20
372.221048
30
0.0
11
134.000000
21
367.000000
31
0.0
0
LINE
8
VISIBLE
10
134.000000
20
221.778952
30
0.0
11
134.000000
21
216.647238
31
0.0
0
LINE
8
VISIBLE
10
134.000000
20
367.000000
30
0.0
11
134.000000
21
227.000000
31
0.0
0
LINE
8
VISIBLE
10
134.000000
20
227.000000
30
0.0
11
134.000000
21
221.778952
31
0.0
0
LINE
8
VISIBLE
10
94.000000
20
407.000000
30
0.0
11
94.000000
21
406.657794
31
0.0
0
LINE
8
VISIBLE
10
94.000000
20
406.657794
30
0.0
11
94.000000
21
405.637033
31
0.0
0
LINE
8
VISIBLE
10
94.000000
20
187.342206
30
0.0
11
94.000000
21
187.000000
31
0.0
0
LINE
8
VISIBLE
10
94.000000
20
405.637033
30
0.0
11
94.000000
21
403.955181
31
0.0
0
LINE
8
VISIBLE
10
94.000000
20
188.362967
30
0.0
11
94.000000
21
187.342206
31
0.0
0
LINE
8
VISIBLE
10
94.000000
20
403.955181
30
0.0
11
94.000000
21
401.641016
31
0.0
0
LINE
8
VISIBLE
10
94.000000
20
190.044819
30
0.0
11
94.000000
21
188.362967
31
0.0
0
LINE
8
VISIBLE
10
94.000000
20
401.641016
30
0.0
11
94.000000
21
398.734134
31
0.0
0
LINE
8
VISIBLE
10
94.000000
20
192.358984
30
0.0
11
94.000000
21
190.044819
31
0.0
0
LINE
8
VISIBLE
10
94.000000
20
398.734134
30
0.0
11
94.000000
21
395.284271
31
0.0
0
LINE
8
VISIBLE
10
94.000000
20
195.265866
30
0.0
11
94.000000
21
192.358984
31
0.0
0
LINE
8
VISIBLE
10
94.000000
20
395.284271
30
0.0
11
94.000000
21
391.350457
31
0.0
0
LINE
8
VISIBLE
10
94.000000
20
198.715729
30
0.0
11
94.000000
21
195.265866
31
0.0
0
LINE
8
VISIBLE
10
94.000000
20
391.350457
30
0.0
11
94.000000
21
387.000000
31
0.0
0
LINE
8
VISIBLE
10
94.000000
20
202.649543
30
0.0
11
94.000000
21
198.715729
31
0.0
0
LINE
8
VISIBLE
10
94.000000
20
387.000000
30
0.0
11
94.000000
21
382.307337
31
0.0
0
LINE
8
VISIBLE
10
94.000000
20
207.000000
30
0.0
11
94.000000
21
202.649543
31
0.0
0
LINE
8
VISIBLE
10
94.000000
20
382.307337
30
0.0
11
94.000000
21
377.352762
31
0.0
0
LINE
8
VISIBLE
10
94.000000
20
211.692663
30
0.0
11
94.000000
21
207.000000
31
0.0
0
LINE
8
VISIBLE
10
94.000000
20
377.352762
30
0.0
11
94.000000
21
372.221048
31
0.0
0
LINE
8
VISIBLE
10
94.000000
20
216.647238
30
0.0
11
94.000000
21
211.692663
31
0.0
0
LINE
8
VISIBLE
10
94.000000
20
372.221048
30
0.0
11
94.000000
21
367.000000
31
0.0
0
LINE
8
VISIBLE
10
94.000000
20
221.778952
30
0.0
11
94.000000
21
216.647238
31
0.0
0
LINE
8
VISIBLE
10
94.000000
20
367.000000
30
0.0
11
94.000000
21
227.000000
31
0.0
0
LINE
8
VISIBLE
10
94.000000
20
227.000000
30
0.0
11
94.000000
21
221.778952
31
0.0
0
LINE
8
VISIBLE
10
134.000000
20
407.000000
30
0.0
11
94.000000
21
407.000000
31
0.0
0
LINE
8
VISIBLE
10
134.000000
20
406.657794
30
0.0
11
94.000000
21
406.657794
31
0.0
0
LINE
8
VISIBLE
10
134.000000
20
187.000000
30
0.0
11
94.000000
21
187.000000
31
0.0
0
LINE
8
VISIBLE
10
134.000000
20
405.637033
30
0.0
11
94.000000
21
405.637033
31
0.0
0
LINE
8
VISIBLE
10
134.000000
20
187.342206
30
0.0
11
94.000000
21
187.342206
31
0.0
0
LINE
8
VISIBLE
10
134.000000
20
403.955181
30
0.0
11
94.000000
21
403.955181
31
0.0
0
LINE
8
VISIBLE
10
134.000000
20
188.362967
30
0.0
11
94.000000
21
188.362967
31
0.0
0
LINE
8
VISIBLE
10
134.000000
20
401.641016
30
0.0
11
94.000000
21
401.641016
31
0.0
0
LINE
8
VISIBLE
10
134.000000
20
190.044819
30
0.0
11
94.000000
21
190.044819
31
0.0
0
LINE
8
VISIBLE
10
134.000000
20
398.734134
30
0.0
11
94.000000
21
398.734134
31
0.0
0
LINE
8
VISIBLE
10
134.000000
20
192.358984
30
0.0
11
94.000000
21
192.358984
31
0.0
0
LINE
8
VISIBLE
10
134.000000
20
395.284271
30
0.0
11
94.000000
21
395.284271
31
0.0
0
LINE
8
VISIBLE
10
134.000000
20
195.265866
30
0.0
11
94.000000
21
195.265866
31
0.0
0
LINE
8
VISIBLE
10
134.000000
20
391.350457
30
0.0
11
94.000000
21
391.350457
31
0.0
0
LINE
8
VISIBLE
10
134.000000
20
198.715729
30
0.0
11
94.000000
21
198.715729
31
0.0
0
LINE
8
VISIBLE
10
134.000000
20
387.000000
30
0.0
11
94.000000
21
387.000000
31
0.0
0
LINE
8
VISIBLE
10
134.000000
20
202.649543
30
0.0
11
94.000000
21
202.649543
31
0.0
0
LINE
8
VISIBLE
10
134.000000
20
382.307337
30
0.0
11
94.000000
21
382.307337
31
0.0
0
LINE
8
VISIBLE
10
134.000000
20
207.000000
30
0.0
11
94.000000
21
207.000000
31
0.0
0
LINE
8
VISIBLE
10
134.000000
20
377.352762
30
0.0
11
94.000000
21
377.352762
31
0.0
0
LINE
8
VISIBLE
10
134.000000
20
211.692663
30
0.0
11
94.000000
21
211.692663
31
0.0
0
LINE
8
VISIBLE
10
134.000000
20
372.221048
30
0.0
11
94.000000
21
372.221048
31
0.0
0
LINE
8
VISIBLE
10
134.000000
20
216.647238
30
0.0
11
94.000000
21
216.647238
31
0.0
0
LINE
8
VISIBLE
10
134.000000
20
367.000000
30
0.0
11
94.000000
21
367.000000
31
0.0
0
LINE
8
VISIBLE
10
134.000000
20
221.778952
30
0.0
11
94.000000
21
221.778952
31
0.0
0
LINE
8
VISIBLE
10
134.000000
20
227.000000
30
0.0
11
94.000000
21
227.000000
31
0.0
0
LINE
8
VISIBLE
10
669.000000
20
187.342206
30
0.0
11
669.000000
21
187.000000
31
0.0
0
LINE
8
VISIBLE
10
669.000000
20
188.362967
30
0.0
11
669.000000
21
187.342206
31
0.0
0
LINE
8
VISIBLE
10
669.000000
20
190.044819
30
0.0
11
669.000000
21
188.362967
31
0.0
0
LINE
8
VISIBLE
10
669.000000
20
192.358984
30
0.0
11
669.000000
21
190.044819
31
0.0
0
LINE
8
VISIBLE
10
669.000000
20
195.265866
30
0.0
11
669.000000
21
192.358984
31
0.0
0
LINE
8
VISIBLE
10
669.000000
20
198.715729
30
0.0
11
669.000000
21
195.265866
31
0.0
0
LINE
8
VISIBLE
10
669.000000
20
202.649543
30
0.0
11
669.000000
21
198.715729
31
0.0
0
LINE
8
VISIBLE
10
669.000000
20
207.000000
30
0.0
11
669.000000
21
202.649543
31
0.0
0
LINE
8
VISIBLE
10
669.000000
20
211.692663
30
0.0
11
669.000000
21
207.000000
31
0.0
0
LINE
8
VISIBLE
10
669.000000
20
216.647238
30
0.0
11
669.000000
21
211.692663
31
0.0
0
LINE
8
VISIBLE
10
669.000000
20
221.778952
30
0.0
11
669.000000
21
216.647238
31
0.0
0
LINE
8
VISIBLE
10
669.000000
20
227.000000
30
0.0
11
669.000000
21
221.778952
31
0.0
0
LINE
8
VISIBLE
10
669.000000
20
367.000000
30
0.0
11
669.000000
21
227.000000
31
0.0
0
LINE
8
VISIBLE
10
669.000000
20
372.221048
30
0.0
11
669.000000
21
367.000000
31
0.0
0
LINE
8
VISIBLE
10
669.000000
20
377.352762
30
0.0
11
669.000000
21
372.221048
31
0.0
0
LINE
8
VISIBLE
10
669.000000
20
382.307337
30
0.0
11
669.000000
21
377.352762
31
0.0
0
LINE
8
VISIBLE
10
669.000000
20
387.000000
30
0.0
11
669.000000
21
382.307337
31
0.0
0
LINE
8
VISIBLE
10
669.000000
20
391.350457
30
0.0
11
669.000000
21
387.000000
31
0.0
0
LINE
8
VISIBLE
10
669.000000
20
395.284271
30
0.0
11
669.000000
21
391.350457
31
0.0
0
LINE
8
VISIBLE
10
669.000000
20
398.734134
30
0.0
11
669.000000
21
395.284271
31
0.0
0
LINE
8
VISIBLE
10
669.000000
20
401.641016
30
0.0
11
669.000000
21
398.734134
31
0.0
0
LINE
8
VISIBLE
10
669.000000
20
403.955181
30
0.0
11
669.000000
21
401.641016
31
0.0
0
LINE
8
VISIBLE
10
669.000000
20
405.637033
30
0.0
11
669.000000
21
403.955181
31
0.0
0
LINE
8
VISIBLE
10
669.000000
20
406.657794
30
0.0
11
669.000000
21
405.637033
31
0.0
0
LINE
8
VISIBLE
10
669.000000
20
407.000000
30
0.0
11
669.000000
21
406.657794
31
0.0
0
LINE
8
VISIBLE
10
669.000000
20
187.342206
30
0.0
11
629.000000
21
187.342206
31
0.0
0
LINE
8
VISIBLE
10
629.000000
20
187.342206
30
0.0
11
629.000000
21
187.000000
31
0.0
0
LINE
8
VISIBLE
10
669.000000
20
188.362967
30
0.0
11
629.000000
21
188.362967
31
0.0
0
LINE
8
VISIBLE
10
629.000000
20
188.362967
30
0.0
11
629.000000
21
187.342206
31
0.0
0
LINE
8
VISIBLE
10
669.000000
20
190.044819
30
0.0
11
629.000000
21
190.044819
31
0.0
0
LINE
8
VISIBLE
10
629.000000
20
190.044819
30
0.0
11
629.000000
21
188.362967
31
0.0
0
LINE
8
VISIBLE
10
669.000000
20
192.358984
30
0.0
11
629.000000
21
192.358984
31
0.0
0
LINE
8
VISIBLE
10
629.000000
20
192.358984
30
0.0
11
629.000000
21
190.044819
31
0.0
0
LINE
8
VISIBLE
10
669.000000
20
195.265866
30
0.0
11
629.000000
21
195.265866
31
0.0
0
LINE
8
VISIBLE
10
629.000000
20
195.265866
30
0.0
11
629.000000
21
192.358984
31
0.0
0
LINE
8
VISIBLE
10
669.000000
20
198.715729
30
0.0
11
629.000000
21
198.715729
31
0.0
0
LINE
8
VISIBLE
10
629.000000
20
198.715729
30
0.0
11
629.000000
21
195.265866
31
0.0
0
LINE
8
VISIBLE
10
669.000000
20
202.649543
30
0.0
11
629.000000
21
202.649543
31
0.0
0
LINE
8
VISIBLE
10
629.000000
20
202.649543
30
0.0
11
629.000000
21
198.715729
31
0.0
0
LINE
8
VISIBLE
10
669.000000
20
207.000000
30
0.0
11
629.000000
21
207.000000
31
0.0
0
LINE
8
VISIBLE
10
629.000000
20
207.000000
30
0.0
11
629.000000
21
202.649543
31
0.0
0
LINE
8
VISIBLE
10
669.000000
20
211.692663
30
0.0
11
629.000000
21
211.692663
31
0.0
0
LINE
8
VISIBLE
10
629.000000
20
211.692663
30
0.0
11
629.000000
21
207.000000
31
0.0
0
LINE
8
VISIBLE
10
669.000000
20
216.647238
30
0.0
11
629.000000
21
216.647238
31
0.0
0
LINE
8
VISIBLE
10
629.000000
20
216.647238
30
0.0
11
629.000000
21
211.692663
31
0.0
0
LINE
8
VISIBLE
10
669.000000
20
221.778952
30
0.0
11
629.000000
21
221.778952
31
0.0
0
LINE
8
VISIBLE
10
629.000000
20
221.778952
30
0.0
11
629.000000
21
216.647238
31
0.0
0
LINE
8
VISIBLE
10
669.000000
20
227.000000
30
0.0
11
629.000000
21
227.000000
31
0.0
0
LINE
8
VISIBLE
10
629.000000
20
227.000000
30
0.0
11
629.000000
21
221.778952
31
0.0
0
LINE
8
VISIBLE
10
669.000000
20
367.000000
30
0.0
11
629.000000
21
367.000000
31
0.0
0
LINE
8
VISIBLE
10
629.000000
20
367.000000
30
0.0
11
629.000000
21
227.000000
31
0.0
0
LINE
8
VISIBLE
10
669.000000
20
372.221048
30
0.0
11
629.000000
21
372.221048
31
0.0
0
LINE
8
VISIBLE
10
629.000000
20
372.221048
30
0.0
11
629.000000
21
367.000000
31
0.0
0
LINE
8
VISIBLE
10
669.000000
20
377.352762
30
0.0
11
629.000000
21
377.352762
31
0.0
0
LINE
8
VISIBLE
10
629.000000
20
377.352762
30
0.0
11
629.000000
21
372.221048
31
0.0
0
LINE
8
VISIBLE
10
669.000000
20
382.307337
30
0.0
11
629.000000
21
382.307337
31
0.0
0
LINE
8
VISIBLE
10
629.000000
20
382.307337
30
0.0
11
629.000000
21
377.352762
31
0.0
0
LINE
8
VISIBLE
10
669.000000
20
387.000000
30
0.0
11
629.000000
21
387.000000
31
0.0
0
LINE
8
VISIBLE
10
629.000000
20
387.000000
30
0.0
11
629.000000
21
382.307337
31
0.0
0
LINE
8
VISIBLE
10
669.000000
20
391.350457
30
0.0
11
629.000000
21
391.350457
31
0.0
0
LINE
8
VISIBLE
10
629.000000
20
391.350457
30
0.0
11
629.000000
21
387.000000
31
0.0
0
LINE
8
VISIBLE
10
669.000000
20
395.284271
30
0.0
11
629.000000
21
395.284271
31
0.0
0
LINE
8
VISIBLE
10
629.000000
20
395.284271
30
0.0
11
629.000000
21
391.350457
31
0.0
0
LINE
8
VISIBLE
10
669.000000
20
398.734134
30
0.0
11
629.000000
21
398.734134
31
0.0
0
LINE
8
VISIBLE
10
629.000000
20
398.734134
30
0.0
11
629.000000
21
395.284271
31
0.0
0
LINE
8
VISIBLE
10
669.000000
20
401.641016
30
0.0
11
629.000000
21
401.641016
31
0.0
0
LINE
8
VISIBLE
10
629.000000
20
401.641016
30
0.0
11
629.000000
21
398.734134
31
0.0
0
LINE
8
VISIBLE
10
669.000000
20
403.955181
30
0.0
11
629.000000
21
403.955181
31
0.0
0
LINE
8
VISIBLE
10
629.000000
20
403.955181
30
0.0
11
629.000000
21
401.641016
31
0.0
0
LINE
8
VISIBLE
10
669.000000
20
405.637033
30
0.0
11
629.000000
21
405.637033
31
0.0
0
LINE
8
VISIBLE
10
629.000000
20
405.637033
30
0.0
11
629.000000
21
403.955181
31
0.0
0
LINE
8
VISIBLE
10
669.000000
20
406.657794
30
0.0
11
629.000000
21
406.657794
31
0.0
0
LINE
8
VISIBLE
10
629.000000
20
406.657794
30
0.0
11
629.000000
21
405.637033
31
0.0
0
LINE
8
VISIBLE
10
629.000000
20
407.000000
30
0.0
11
629.000000
21
406.657794
31
0.0
0
LINE
8
SECTION
10
669.000000
20
370.000000
30
0.0
11
669.000000
21
407.000000
31
0.0
0
LINE
8
SECTION
10
669.000000
20
370.000000
30
0.0
11
629.000000
21
370.000000
31
0.0
0
LINE
8
SECTION
10
629.000000
20
370.000000
30
0.0
11
629.000000
21
407.000000
31
0.0
0
LINE
8
SECTION
10
669.000000
20
407.000000
30
0.0
11
629.000000
21
407.000000
31
0.0
0
LINE
8
SECTION
10
669.000000
20
270.000000
30
0.0
11
629.000000
21
270.000000
31
0.0
0
LINE
8
SECTION
10
629.000000
20
270.000000
30
0.0
11
629.000000
21
324.000000
31
0.0
0
LINE
8
SECTION
10
669.000000
20
324.000000
30
0.0
11
629.000000
21
324.000000
31
0.0
0
LINE
8
SECTION
10
669.000000
20
270.000000
30
0.0
11
669.000000
21
324.000000
31
0.0
0
LINE
8
SECTION
10
669.000000
20
187.000000
30
0.0
11
629.000000
21
187.000000
31
0.0
0
LINE
8
SECTION
10
629.000000
20
187.000000
30
0.0
11
629.000000
21
224.000000
31
0.0
0
LINE
8
SECTION
10
669.000000
20
224.000000
30
0.0
11
629.000000
21
224.000000
31
0.0
0
LINE
8
SECTION
10
669.000000
20
187.000000
30
0.0
11
669.000000
21
224.000000
31
0.0
0
LINE
8
VISIBLE
10
822.723774
20
533.774840
30
0.0
11
822.675984
21
534.644367
31
0.0
0
LINE
8
VISIBLE
10
822.723774
20
511.198721
30
0.0
11
822.723774
21
533.774840
31
0.0
0
LINE
8
VISIBLE
10
822.675984
20
534.644367
30
0.0
11
822.533431
21
535.554200
31
0.0
0
LINE
8
VISIBLE
10
822.675984
20
510.384377
30
0.0
11
822.723774
21
511.198721
31
0.0
0
LINE
8
VISIBLE
10
822.533431
20
535.554200
30
0.0
11
822.298555
21
536.488771
31
0.0
0
LINE
8
VISIBLE
10
822.533431
20
509.639150
30
0.0
11
822.675984
21
510.384377
31
0.0
0
LINE
8
VISIBLE
10
822.298555
20
536.488771
30
0.0
11
821.975374
21
537.432089
31
0.0
0
LINE
8
VISIBLE
10
822.298555
20
508.975791
30
0.0
11
822.533431
21
509.639150
31
0.0
0
LINE
8
VISIBLE
10
821.975374
20
537.432089
30
0.0
11
821.569417
21
538.368015
31
0.0
0
LINE
8
VISIBLE
10
821.975374
20
508.405650
30
0.0
11
822.298555
21
508.975791
31
0.0
0
LINE
8
VISIBLE
10
821.569417
20
538.368015
30
0.0
11
821.087632
21
539.280532
31
0.0
0
LINE
8
VISIBLE
10
821.569417
20
507.938483
30
0.0
11
821.975374
21
508.405650
31
0.0
0
LINE
8
VISIBLE
10
821.087632
20
539.280532
30
0.0
11
820.538261
21
540.154030
31
0.0
0
LINE
8
VISIBLE
10
821.087632
20
507.582283
30
0.0
11
821.569417
21
507.938483
31
0.0
0
LINE
8
VISIBLE
10
820.538261
20
540.154030
30
0.0
11
819.930704
21
540.973561
31
0.0
0
LINE
8
VISIBLE
10
820.538261
20
507.343145
30
0.0
11
821.087632
21
507.582283
31
0.0
0
LINE
8
VISIBLE
10
819.930704
20
540.973561
30
0.0
11
819.275357
21
541.725103
31
0.0
0
LINE
8
VISIBLE
10
819.930704
20
507.225160
30
0.0
11
820.538261
21
507.343145
31
0.0
0
LINE
8
VISIBLE
10
819.275357
20
541.725103
30
0.0
11
818.583433
21
542.395798
31
0.0
0
LINE
8
VISIBLE
10
819.275357
20
507.230347
30
0.0
11
819.930704
21
507.225160
31
0.0
0
LINE
8
VISIBLE
10
818.583433
20
542.395798
30
0.0
11
817.866771
21
542.974169
31
0.0
0
LINE
8
VISIBLE
10
818.583433
20
507.358617
30
0.0
11
819.275357
21
507.230347
31
0.0
0
LINE
8
VISIBLE
10
817.866771
20
542.974169
30
0.0
11
817.137634
21
543.450320
31
0.0
0
LINE
8
VISIBLE
10
817.866771
20
507.607776
30
0.0
11
818.583433
21
507.358617
31
0.0
0
LINE
8
VISIBLE
10
817.137634
20
543.450320
30
0.0
11
772.448507
21
569.251599
31
0.0
0
LINE
8
VISIBLE
10
817.137634
20
507.973561
30
0.0
11
817.866771
21
507.607776
31
0.0
0
LINE
8
VISIBLE
10
772.448507
20
569.251599
30
0.0
11
771.719369
21
569.617384
31
0.0
0
LINE
8
VISIBLE
10
772.448507
20
533.774840
30
0.0
11
817.137634
21
507.973561
31
0.0
0
LINE
8
VISIBLE
10
771.719369
20
569.617384
30
0.0
11
771.002708
21
569.866543
31
0.0
0
LINE
8
VISIBLE
10
771.719369
20
534.250991
30
0.0
11
772.448507
21
533.774840
31
0.0
0
LINE
8
VISIBLE
10
771.002708
20
569.866543
30
0.0
11
770.310784
21
569.994813
31
0.0
0
LINE
8
VISIBLE
10
771.002708
20
534.829362
30
0.0
11
771.719369
21
534.250991
31
0.0
0
LINE
8
VISIBLE
10
770.310784
20
569.994813
30
0.0
11
769.655437
21
570.000000
31
0.0
0
LINE
8
VISIBLE
10
770.310784
20
535.500057
30
0.0
11
771.002708
21
534.829362
31
0.0
0
LINE
8
VISIBLE
10
769.655437
20
570.000000
30
0.0
11
769.047880
21
569.882015
31
0.0
0
LINE
8
VISIBLE
10
769.655437
20
536.251599
30
0.0
11
770.310784
21
535.500057
31
0.0
0
LINE
8
VISIBLE
10
769.047880
20
569.882015
30
0.0
11
768.498509
21
569.642877
31
0.0
0
LINE
8
VISIBLE
10
769.047880
20
537.071130
30
0.0
11
769.655437
21
536.251599
31
0.0
0
LINE
8
VISIBLE
10
768.498509
20
569.642877
30
0.0
11
768.016724
21
569.286677
31
0.0
0
LINE
8
VISIBLE
10
768.498509
20
537.944627
30
0.0
11
769.047880
21
537.071130
31
0.0
0
LINE
8
VISIBLE
10
768.016724
20
569.286677
30
0.0
11
767.610767
21
568.819510
31
0.0
0
LINE
8
VISIBLE
10
768.016724
20
538.857145
30
0.0
11
768.498509
21
537.944627
31
0.0
0
LINE
8
VISIBLE
10
767.610767
20
568.819510
30
0.0
11
767.287586
21
568.249369
31
0.0
0
LINE
8
VISIBLE
10
767.610767
20
539.793070
30
0.0
11
768.016724
21
538.857145
31
0.0
0
LINE
8
VISIBLE
10
767.287586
20
568.249369
30
0.0
11
767.052709
21
567.586010
31
0.0
0
LINE
8
VISIBLE
10
767.287586
20
540.736389
30
0.0
11
767.610767
21
539.793070
31
0.0
0
LINE
8
VISIBLE
10
767.052709
20
567.586010
30
0.0
11
766.910157
21
566.840783
31
0.0
0
LINE
8
VISIBLE
10
767.052709
20
541.670960
30
0.0
11
767.287586
21
540.736389
31
0.0
0
LINE
8
VISIBLE
10
766.910157
20
566.840783
30
0.0
11
766.862366
21
566.026439
31
0.0
0
LINE
8
VISIBLE
10
766.910157
20
542.580792
30
0.0
11
767.052709
21
541.670960
31
0.0
0
LINE
8
VISIBLE
10
766.862366
20
566.026439
30
0.0
11
766.862366
21
543.450320
31
0.0
0
LINE
8
VISIBLE
10
766.862366
20
543.450320
30
0.0
11
766.910157
21
542.580792
31
0.0
0
LINE
8
VISIBLE
10
772.448507
20
547.159254
30
0.0
11
770.177258
21
547.384238
31
0.0
0
LINE
8
VISIBLE
10
770.177258
20
547.384238
30
0.0
11
769.282456
21
545.903554
31
0.0
0
LINE
8
VISIBLE
10
769.282456
20
545.903554
30
0.0
11
769.678116
21
543.172902
31
0.0
0
LINE
8
VISIBLE
10
769.678116
20
543.172902
30
0.0
11
771.690522
21
540.283760
31
0.0
0
LINE
8
VISIBLE
10
771.690522
20
540.283760
30
0.0
11
773.316346
21
539.378279
31
0.0
0
LINE
8
VISIBLE
10
773.316346
20
539.378279
30
0.0
11
774.719756
21
539.516401
31
0.0
0
LINE
8
VISIBLE
10
774.719756
20
539.516401
30
0.0
11
775.614558
21
540.997086
31
0.0
0
LINE
8
VISIBLE
10
775.614558
20
540.997086
30
0.0
11
775.218898
21
543.727738
31
0.0
0
LINE
8
VISIBLE
10
775.218898
20
543.727738
30
0.0
11
772.448507
21
547.159254
31
0.0
0
LINE
8
VISIBLE
10
817.137634
20
521.357974
30
0.0
11
814.866385
21
521.582959
31
0.0
0
LINE
8
VISIBLE
10
814.866385
20
521.582959
30
0.0
11
813.971583
21
520.102275
31
0.0
0
LINE
8
VISIBLE
10
813.971583
20
520.102275
30
0.0
11
814.367243
21
517.371623
31
0.0
0
LINE
8
VISIBLE
10
814.367243
20
517.371623
30
0.0
11
816.379648
21
514.482481
31
0.0
0
LINE
8
VISIBLE
10
816.379648
20
514.482481
30
0.0
11
818.005473
21
513.577000
31
0.0
0
LINE
8
VISIBLE
10
818.005473
20
513.577000
30
0.0
11
819.408883
21
513.715122
31
0.0
0
LINE
8
VISIBLE
10
819.408883
20
513.715122
30
0.0
11
820.303685
21
515.195806
31
0.0
0
LINE
8
VISIBLE
10
820.303685
20
515.195806
30
0.0
11
819.908025
21
517.926458
31
0.0
0
LINE
8
VISIBLE
10
819.908025
20
517.926458
30
0.0
11
817.137634
21
521.357974
31
0.0
0
LINE
8
VISIBLE
10
772.448507
20
563.285053
30
0.0
11
770.177258
21
563.510038
31
0.0
0
LINE
8
VISIBLE
10
770.177258
20
563.510038
30
0.0
11
769.282456
21
562.029354
31
0.0
0
LINE
8
VISIBLE
10
769.282456
20
562.029354
30
0.0
11
769.678116
21
559.298702
31
0.0
0
LINE
8
VISIBLE
10
769.678116
20
559.298702
30
0.0
11
771.690522
21
556.409559
31
0.0
0
LINE
8
VISIBLE
10
771.690522
20
556.409559
30
0.0
11
773.316346
21
555.504078
31
0.0
0
LINE
8
VISIBLE
10
773.316346
20
555.504078
30
0.0
11
774.719756
21
555.642201
31
0.0
0
LINE
8
VISIBLE
10
774.719756
20
555.642201
30
0.0
11
775.614558
21
557.122885
31
0.0
0
LINE
8
VISIBLE
10
775.614558
20
557.122885
30
0.0
11
775.218898
21
559.853537
31
0.0
0
LINE
8
VISIBLE
10
775.218898
20
559.853537
30
0.0
11
772.448507
21
563.285053
31
0.0
0
LINE
8
VISIBLE
10
817.137634
20
537.483774
30
0.0
11
814.866385
21
537.708759
31
0.0
0
LINE
8
VISIBLE
10
814.866385
20
537.708759
30
0.0
11
813.971583
21
536.228074
31
0.0
0
LINE
8
VISIBLE
10
813.971583
20
536.228074
30
0.0
11
814.367243
21
533.497422
31
0.0
0
LINE
8
VISIBLE
10
814.367243
20
533.497422
30
0.0
11
816.379648
21
530.608280
31
0.0
0
LINE
8
VISIBLE
10
816.379648
20
530.608280
30
0.0
11
818.005473
21
529.702799
31
0.0
0
LINE
8
VISIBLE
10
818.005473
20
529.702799
30
0.0
11
819.408883
21
529.840922
31
0.0
0
LINE
8
VISIBLE
10
819.408883
20
529.840922
30
0.0
11
820.303685
21
531.321606
31
0.0
0
LINE
8
VISIBLE
10
820.303685
20
531.321606
30
0.0
11
819.908025
21
534.052258
31
0.0
0
LINE
8
VISIBLE
10
819.908025
20
534.052258
30
0.0
11
817.137634
21
537.483774
31
0.0
0
LINE
8
VISIBLE
10
814.952120
20
504.117985
30
0.0
11
815.501491
21
504.357123
31
0.0
0
LINE
8
VISIBLE
10
814.344563
20
504.000000
30
0.0
11
814.952120
21
504.117985
31
0.0
0
LINE
8
VISIBLE
10
813.689216
20
504.005187
30
0.0
11
814.344563
21
504.000000
31
0.0
0
LINE
8
VISIBLE
10
812.997292
20
504.133457
30
0.0
11
813.689216
21
504.005187
31
0.0
0
LINE
8
VISIBLE
10
812.280631
20
504.382616
30
0.0
11
812.997292
21
504.133457
31
0.0
0
LINE
8
VISIBLE
10
811.551493
20
504.748401
30
0.0
11
812.280631
21
504.382616
31
0.0
0
LINE
8
VISIBLE
10
766.862366
20
530.549680
30
0.0
11
811.551493
21
504.748401
31
0.0
0
LINE
8
VISIBLE
10
766.133229
20
531.025831
30
0.0
11
766.862366
21
530.549680
31
0.0
0
LINE
8
VISIBLE
10
765.416567
20
531.604202
30
0.0
11
766.133229
21
531.025831
31
0.0
0
LINE
8
VISIBLE
10
764.724643
20
532.274897
30
0.0
11
765.416567
21
531.604202
31
0.0
0
LINE
8
VISIBLE
10
764.069296
20
533.026439
30
0.0
11
764.724643
21
532.274897
31
0.0
0
LINE
8
VISIBLE
10
763.461739
20
533.845970
30
0.0
11
764.069296
21
533.026439
31
0.0
0
LINE
8
VISIBLE
10
762.912368
20
566.417717
30
0.0
11
762.430583
21
566.061517
31
0.0
0
LINE
8
VISIBLE
10
762.912368
20
534.719468
30
0.0
11
763.461739
21
533.845970
31
0.0
0
LINE
8
VISIBLE
10
762.430583
20
566.061517
30
0.0
11
762.024626
21
565.594350
31
0.0
0
LINE
8
VISIBLE
10
762.430583
20
535.631985
30
0.0
11
762.912368
21
534.719468
31
0.0
0
LINE
8
VISIBLE
10
762.024626
20
565.594350
30
0.0
11
761.701445
21
565.024209
31
0.0
0
LINE
8
VISIBLE
10
762.024626
20
536.567911
30
0.0
11
762.430583
21
535.631985
31
0.0
0
LINE
8
VISIBLE
10
761.701445
20
565.024209
30
0.0
11
761.466569
21
564.360850
31
0.0
0
LINE
8
VISIBLE
10
761.701445
20
537.511229
30
0.0
11
762.024626
21
536.567911
31
0.0
0
LINE
8
VISIBLE
10
761.466569
20
564.360850
30
0.0
11
761.324016
21
563.615623
31
0.0
0
LINE
8
VISIBLE
10
761.466569
20
538.445800
30
0.0
11
761.701445
21
537.511229
31
0.0
0
LINE
8
VISIBLE
10
761.324016
20
563.615623
30
0.0
11
761.276226
21
562.801279
31
0.0
0
LINE
8
VISIBLE
10
761.324016
20
539.355633
30
0.0
11
761.466569
21
538.445800
31
0.0
0
LINE
8
VISIBLE
10
761.276226
20
562.801279
30
0.0
11
761.276226
21
540.225160
31
0.0
0
LINE
8
VISIBLE
10
761.276226
20
540.225160
30
0.0
11
761.324016
21
539.355633
31
0.0
0
LINE
8
VISIBLE
10
821.087632
20
507.582283
30
0.0
11
815.501491
21
504.357123
31
0.0
0
LINE
8
VISIBLE
10
820.538261
20
507.343145
30
0.0
11
814.952120
21
504.117985
31
0.0
0
LINE
8
VISIBLE
10
819.930704
20
507.225160
30
0.0
11
814.344563
21
504.000000
31
0.0
0
LINE
8
VISIBLE
10
819.275357
20
507.230347
30
0.0
11
813.689216
21
504.005187
31
0.0
0
LINE
8
VISIBLE
10
818.583433
20
507.358617
30
0.0
11
812.997292
21
504.133457
31
0.0
0
LINE
8
VISIBLE
10
817.866771
20
507.607776
30
0.0
11
812.280631
21
504.382616
31
0.0
0
LINE
8
VISIBLE
10
817.137634
20
507.973561
30
0.0
11
811.551493
21
504.748401
31
0.0
0
LINE
8
VISIBLE
10
772.448507
20
533.774840
30
0.0
11
766.862366
21
530.549680
31
0.0
0
LINE
8
VISIBLE
10
771.719369
20
534.250991
30
0.0
11
766.133229
21
531.025831
31
0.0
0
LINE
8
VISIBLE
10
771.002708
20
534.829362
30
0.0
11
765.416567
21
531.604202
31
0.0
0
LINE
8
VISIBLE
10
770.310784
20
535.500057
30
0.0
11
764.724643
21
532.274897
31
0.0
0
LINE
8
VISIBLE
10
769.655437
20
536.251599
30
0.0
11
764.069296
21
533.026439
31
0.0
0
LINE
8
VISIBLE
10
768.498509
20
569.642877
30
0.0
11
762.912368
21
566.417717
31
0.0
0
LINE
8
VISIBLE
10
769.047880
20
537.071130
30
0.0
11
763.461739
21
533.845970
31
0.0
0
LINE
8
VISIBLE
10
768.016724
20
569.286677
30
0.0
11
762.430583
21
566.061517
31
0.0
0
LINE
8
VISIBLE
10
768.498509
20
537.944627
30
0.0
11
762.912368
21
534.719468
31
0.0
0
LINE
8
VISIBLE
10
767.610767
20
568.819510
30
0.0
11
762.024626
21
565.594350
31
0.0
0
LINE
8
VISIBLE
10
768.016724
20
538.857145
30
0.0
11
762.430583
21
535.631985
31
0.0
0
LINE
8
VISIBLE
10
767.287586
20
568.249369
30
0.0
11
761.701445
21
565.024209
31
0.0
0
LINE
8
VISIBLE
10
767.610767
20
539.793070
30
0.0
11
762.024626
21
536.567911
31
0.0
0
LINE
8
VISIBLE
10
767.052709
20
567.586010
30
0.0
11
761.466569
21
564.360850
31
0.0
0
LINE
8
VISIBLE
10
767.287586
20
540.736389
30
0.0
11
761.701445
21
537.511229
31
0.0
0
LINE
8
VISIBLE
10
766.910157
20
566.840783
30
0.0
11
761.324016
21
563.615623
31
0.0
0
LINE
8
VISIBLE
10
767.052709
20
541.670960
30
0.0
11
761.466569
21
538.445800
31
0.0
0
LINE
8
VISIBLE
10
766.862366
20
566.026439
30
0.0
11
761.276226
21
562.801279
31
0.0
0
LINE
8
VISIBLE
10
766.910157
20
542.580792
30
0.0
11
761.324016
21
539.355633
31
0.0
0
LINE
8
VISIBLE
10
766.862366
20
543.450320
30
0.0
11
761.276226
21
540.225160
31
0.0
0
LINE
8
VISIBLE
10
772.448507
20
547.159254
30
0.0
11
769.236476
21
545.304787
31
0.0
0
LINE
8
VISIBLE
10
817.137634
20
521.357974
30
0.0
11
813.925603
21
519.503508
31
0.0
0
LINE
8
VISIBLE
10
772.448507
20
563.285053
30
0.0
11
769.236476
21
561.430586
31
0.0
0
LINE
8
VISIBLE
10
817.137634
20
537.483774
30
0.0
11
813.925603
21
535.629307
31
0.0
0
LINE
8
CENTER
10
188.400000
20
347.000000
30
0.0
11
211.800000
21
347.000000
31
0.0
0
LINE
8
CENTER
10
214.200000
20
347.000000
30
0.0
11
237.600000
21
347.000000
31
0.0
0
LINE
8
CENTER
10
213.000000
20
322.400000
30
0.0
11
213.000000
21
345.800000
31
0.0
0
LINE
8
CENTER
10
213.000000
20
348.200000
30
0.0
11
213.000000
21
371.600000
31
0.0
0
LINE
8
CENTER
10
508.400000
20
347.000000
30
0.0
11
531.800000
21
347.000000
31
0.0
0
LINE
8
CENTER
10
534.200000
20
347.000000
30
0.0
11
557.600000
21
347.000000
31
0.0
0
LINE
8
CENTER
10
533.000000
20
322.400000
30
0.0
11
533.000000
21
345.800000
31
0.0
0
LINE
8
CENTER
10
533.000000
20
348.200000
30
0.0
11
533.000000
21
371.600000
31
0.0
0
LINE
8
CENTER
10
188.400000
20
247.000000
30
0.0
11
211.800000
21
247.000000
31
0.0
0
LINE
8
CENTER
10
214.200000
20
247.000000
30
0.0
11
237.600000
21
247.000000
31
0.0
0
LINE
8
CENTER
10
213.000000
20
222.400000
30
0.0
11
213.000000
21
245.800000
31
0.0
0
LINE
8
CENTER
10
213.000000
20
248.200000
30
0.0
11
213.000000
21
271.600000
31
0.0
0
LINE
8
CENTER
10
508.400000
20
247.000000
30
0.0
11
531.800000
21
247.000000
31
0.0
0
LINE
8
CENTER
10
534.200000
20
247.000000
30
0.0
11
557.600000
21
247.000000
31
0.0
0
LINE
8
CENTER
10
533.000000
20
222.400000
30
0.0
11
533.000000
21
245.800000
31
0.0
0
LINE
8
CENTER
10
533.000000
20
248.200000
30
0.0
11
533.000000
21
271.600000
31
0.0
0
LINE
8
DIM
10
173.000000
20
185.800000
30
0.0
11
173.000000
21
164.000000
31
0.0
0
LINE
8
DIM
10
573.000000
20
185.800000
30
0.0
11
573.000000
21
164.000000
31
0.0
0
LINE
8
DIM
10
173.000000
20
166.000000
30
0.0
11
573.000000
21
166.000000
31
0.0
0
SOLID
8
DIM
10
173.000000
20
166.000000
30
0.0
11
176.200000
21
165.392000
31
0.0
12
176.200000
22
166.608000
32
0.0
13
176.200000
23
166.608000
33
0.0
0
SOLID
8
DIM
10
573.000000
20
166.000000
30
0.0
11
569.800000
21
166.608000
31
0.0
12
569.800000
22
165.392000
32
0.0
13
569.800000
23
165.392000
33
0.0
0
TEXT
8
TEXT
10
373.000000
20
167.000000
30
0.0
40
2.5000
1
20.00
72
1
73
0
11
373.000000
21
167.000000
31
0.0
0
LINE
8
DIM
10
171.800000
20
187.000000
30
0.0
11
150.000000
21
187.000000
31
0.0
0
LINE
8
DIM
10
171.800000
20
407.000000
30
0.0
11
150.000000
21
407.000000
31
0.0
0
LINE
8
DIM
10
152.000000
20
187.000000
30
0.0
11
152.000000
21
407.000000
31
0.0
0
SOLID
8
DIM
10
152.000000
20
187.000000
30
0.0
11
152.608000
21
190.200000
31
0.0
12
151.392000
22
190.200000
32
0.0
13
151.392000
23
190.200000
33
0.0
0
SOLID
8
DIM
10
152.000000
20
407.000000
30
0.0
11
151.392000
21
403.800000
31
0.0
12
152.608000
22
403.800000
32
0.0
13
152.608000
23
403.800000
33
0.0
0
TEXT
8
TEXT
10
151.000000
20
297.000000
30
0.0
40
2.5000
1
11.00
50
90.0000
72
1
73
0
11
151.000000
21
297.000000
31
0.0
0
LINE
8
DIM
10
173.000000
20
188.200000
30
0.0
11
173.000000
21
426.000000
31
0.0
0
LINE
8
DIM
10
213.000000
20
188.200000
30
0.0
11
213.000000
21
426.000000
31
0.0
0
LINE
8
DIM
10
173.000000
20
424.000000
30
0.0
11
213.000000
21
424.000000
31
0.0
0
SOLID
8
DIM
10
173.000000
20
424.000000
30
0.0
11
176.200000
21
423.392000
31
0.0
12
176.200000
22
424.608000
32
0.0
13
176.200000
23
424.608000
33
0.0
0
SOLID
8
DIM
10
213.000000
20
424.000000
30
0.0
11
209.800000
21
424.608000
31
0.0
12
209.800000
22
423.392000
32
0.0
13
209.800000
23
423.392000
33
0.0
0
TEXT
8
TEXT
10
193.000000
20
425.000000
30
0.0
40
2.5000
1
2.00
72
1
73
0
11
193.000000
21
425.000000
31
0.0
0
LINE
8
DIM
10
174.200000
20
187.000000
30
0.0
11
583.000000
21
187.000000
31
0.0
0
LINE
8
DIM
10
174.200000
20
347.000000
30
0.0
11
583.000000
21
347.000000
31
0.0
0
LINE
8
DIM
10
581.000000
20
187.000000
30
0.0
11
581.000000
21
347.000000
31
0.0
0
SOLID
8
DIM
10
581.000000
20
187.000000
30
0.0
11
581.608000
21
190.200000
31
0.0
12
580.392000
22
190.200000
32
0.0
13
580.392000
23
190.200000
33
0.0
0
SOLID
8
DIM
10
581.000000
20
347.000000
30
0.0
11
580.392000
21
343.800000
31
0.0
12
581.608000
22
343.800000
32
0.0
13
581.608000
23
343.800000
33
0.0
0
TEXT
8
TEXT
10
580.000000
20
267.000000
30
0.0
40
2.5000
1
8.00
50
90.0000
72
1
73
0
11
580.000000
21
267.000000
31
0.0
0
LINE
8
DIM
10
173.000000
20
188.200000
30
0.0
11
173.000000
21
432.500000
31
0.0
0
LINE
8
DIM
10
213.000000
20
188.200000
30
0.0
11
213.000000
21
432.500000
31
0.0
0
LINE
8
DIM
10
173.000000
20
430.500000
30
0.0
11
213.000000
21
430.500000
31
0.0
0
SOLID
8
DIM
10
173.000000
20
430.500000
30
0.0
11
176.200000
21
429.892000
31
0.0
12
176.200000
22
431.108000
32
0.0
13
176.200000
23
431.108000
33
0.0
0
SOLID
8
DIM
10
213.000000
20
430.500000
30
0.0
11
209.800000
21
431.108000
31
0.0
12
209.800000
22
429.892000
32
0.0
13
209.800000
23
429.892000
33
0.0
0
TEXT
8
TEXT
10
193.000000
20
431.500000
30
0.0
40
2.5000
1
2.00
72
1
73
0
11
193.000000
21
431.500000
31
0.0
0
LINE
8
DIM
10
174.200000
20
187.000000
30
0.0
11
589.500000
21
187.000000
31
0.0
0
LINE
8
DIM
10
174.200000
20
247.000000
30
0.0
11
589.500000
21
247.000000
31
0.0
0
LINE
8
DIM
10
587.500000
20
187.000000
30
0.0
11
587.500000
21
247.000000
31
0.0
0
SOLID
8
DIM
10
587.500000
20
187.000000
30
0.0
11
588.108000
21
190.200000
31
0.0
12
586.892000
22
190.200000
32
0.0
13
586.892000
23
190.200000
33
0.0
0
SOLID
8
DIM
10
587.500000
20
247.000000
30
0.0
11
586.892000
21
243.800000
31
0.0
12
588.108000
22
243.800000
32
0.0
13
588.108000
23
243.800000
33
0.0
0
TEXT
8
TEXT
10
586.500000
20
217.000000
30
0.0
40
2.5000
1
3.00
50
90.0000
72
1
73
0
11
586.500000
21
217.000000
31
0.0
0
LINE
8
DIM
10
173.000000
20
188.200000
30
0.0
11
173.000000
21
439.000000
31
0.0
0
LINE
8
DIM
10
533.000000
20
188.200000
30
0.0
11
533.000000
21
439.000000
31
0.0
0
LINE
8
DIM
10
173.000000
20
437.000000
30
0.0
11
533.000000
21
437.000000
31
0.0
0
SOLID
8
DIM
10
173.000000
20
437.000000
30
0.0
11
176.200000
21
436.392000
31
0.0
12
176.200000
22
437.608000
32
0.0
13
176.200000
23
437.608000
33
0.0
0
SOLID
8
DIM
10
533.000000
20
437.000000
30
0.0
11
529.800000
21
437.608000
31
0.0
12
529.800000
22
436.392000
32
0.0
13
529.800000
23
436.392000
33
0.0
0
TEXT
8
TEXT
10
353.000000
20
438.000000
30
0.0
40
2.5000
1
18.00
72
1
73
0
11
353.000000
21
438.000000
31
0.0
0
LINE
8
DIM
10
174.200000
20
187.000000
30
0.0
11
596.000000
21
187.000000
31
0.0
0
LINE
8
DIM
10
174.200000
20
347.000000
30
0.0
11
596.000000
21
347.000000
31
0.0
0
LINE
8
DIM
10
594.000000
20
187.000000
30
0.0
11
594.000000
21
347.000000
31
0.0
0
SOLID
8
DIM
10
594.000000
20
187.000000
30
0.0
11
594.608000
21
190.200000
31
0.0
12
593.392000
22
190.200000
32
0.0
13
593.392000
23
190.200000
33
0.0
0
SOLID
8
DIM
10
594.000000
20
347.000000
30
0.0
11
593.392000
21
343.800000
31
0.0
12
594.608000
22
343.800000
32
0.0
13
594.608000
23
343.800000
33
0.0
0
TEXT
8
TEXT
10
593.000000
20
267.000000
30
0.0
40
2.5000
1
8.00
50
90.0000
72
1
73
0
11
593.000000
21
267.000000
31
0.0
0
LINE
8
DIM
10
173.000000
20
188.200000
30
0.0
11
173.000000
21
445.500000
31
0.0
0
LINE
8
DIM
10
533.000000
20
188.200000
30
0.0
11
533.000000
21
445.500000
31
0.0
0
LINE
8
DIM
10
173.000000
20
443.500000
30
0.0
11
533.000000
21
443.500000
31
0.0
0
SOLID
8
DIM
10
173.000000
20
443.500000
30
0.0
11
176.200000
21
442.892000
31
0.0
12
176.200000
22
444.108000
32
0.0
13
176.200000
23
444.108000
33
0.0
0
SOLID
8
DIM
10
533.000000
20
443.500000
30
0.0
11
529.800000
21
444.108000
31
0.0
12
529.800000
22
442.892000
32
0.0
13
529.800000
23
442.892000
33
0.0
0
TEXT
8
TEXT
10
353.000000
20
444.500000
30
0.0
40
2.5000
1
18.00
72
1
73
0
11
353.000000
21
444.500000
31
0.0
0
LINE
8
DIM
10
174.200000
20
187.000000
30
0.0
11
602.500000
21
187.000000
31
0.0
0
LINE
8
DIM
10
174.200000
20
247.000000
30
0.0
11
602.500000
21
247.000000
31
0.0
0
LINE
8
DIM
10
600.500000
20
187.000000
30
0.0
11
600.500000
21
247.000000
31
0.0
0
SOLID
8
DIM
10
600.500000
20
187.000000
30
0.0
11
601.108000
21
190.200000
31
0.0
12
599.892000
22
190.200000
32
0.0
13
599.892000
23
190.200000
33
0.0
0
SOLID
8
DIM
10
600.500000
20
247.000000
30
0.0
11
599.892000
21
243.800000
31
0.0
12
601.108000
22
243.800000
32
0.0
13
601.108000
23
243.800000
33
0.0
0
TEXT
8
TEXT
10
599.500000
20
217.000000
30
0.0
40
2.5000
1
3.00
50
90.0000
72
1
73
0
11
599.500000
21
217.000000
31
0.0
0
SOLID
8
DIM
10
227.160214
20
365.124247
30
0.0
11
229.609441
21
367.271560
31
0.0
12
228.651220
22
368.020204
32
0.0
13
228.651220
23
368.020204
33
0.0
0
LINE
8
DIM
10
227.160214
20
365.124247
30
0.0
11
295.816276
21
453.000000
31
0.0
0
LINE
8
DIM
10
295.816276
20
453.000000
30
0.0
11
300.816276
21
453.000000
31
0.0
0
TEXT
8
TEXT
10
301.616276
20
454.000000
30
0.0
40
2.5000
1
4x Ø2.30 THRU
0
SOLID
8
DIM
10
213.000000
20
224.000000
30
0.0
11
209.836326
21
223.224866
31
0.0
12
210.341073
22
222.118572
32
0.0
13
210.341073
23
222.118572
33
0.0
0
LINE
8
DIM
10
213.000000
20
224.000000
30
0.0
11
203.902186
21
219.849122
31
0.0
0
LINE
8
DIM
10
203.902186
20
219.849122
30
0.0
11
200.902186
21
219.849122
31
0.0
0
TEXT
8
TEXT
10
200.102186
20
220.849122
30
0.0
40
2.5000
1
R1.15
72
2
73
0
11
200.102186
21
220.849122
31
0.0
0
LINE
8
DIM
10
533.000000
20
295.800000
30
0.0
11
533.000000
21
157.000000
31
0.0
0
LINE
8
DIM
10
213.000000
20
295.800000
30
0.0
11
213.000000
21
157.000000
31
0.0
0
LINE
8
DIM
10
213.000000
20
159.000000
30
0.0
11
533.000000
21
159.000000
31
0.0
0
SOLID
8
DIM
10
213.000000
20
159.000000
30
0.0
11
216.200000
21
158.392000
31
0.0
12
216.200000
22
159.608000
32
0.0
13
216.200000
23
159.608000
33
0.0
0
SOLID
8
DIM
10
533.000000
20
159.000000
30
0.0
11
529.800000
21
159.608000
31
0.0
12
529.800000
22
158.392000
32
0.0
13
529.800000
23
158.392000
33
0.0
0
TEXT
8
TEXT
10
373.000000
20
160.000000
30
0.0
40
2.5000
1
16.00
72
1
73
0
11
373.000000
21
160.000000
31
0.0
0
TEXT
8
TEXT
10
373.000000
20
147.000000
30
0.0
40
4.0000
1
RIGHT VIEW
72
1
73
0
11
373.000000
21
147.000000
31
0.0
0
LINE
8
TEXT
10
361.000000
20
145.400000
30
0.0
11
385.000000
21
145.400000
31
0.0
0
TEXT
8
TEXT
10
373.000000
20
141.000000
30
0.0
40
2.4000
1
-Y →   Z ↑
72
1
73
0
11
373.000000
21
141.000000
31
0.0
0
LINE
8
DIM
10
94.000000
20
185.800000
30
0.0
11
94.000000
21
173.000000
31
0.0
0
LINE
8
DIM
10
134.000000
20
185.800000
30
0.0
11
134.000000
21
173.000000
31
0.0
0
LINE
8
DIM
10
94.000000
20
175.000000
30
0.0
11
134.000000
21
175.000000
31
0.0
0
SOLID
8
DIM
10
94.000000
20
175.000000
30
0.0
11
97.200000
21
174.392000
31
0.0
12
97.200000
22
175.608000
32
0.0
13
97.200000
23
175.608000
33
0.0
0
SOLID
8
DIM
10
134.000000
20
175.000000
30
0.0
11
130.800000
21
175.608000
31
0.0
12
130.800000
22
174.392000
32
0.0
13
130.800000
23
174.392000
33
0.0
0
TEXT
8
TEXT
10
114.000000
20
176.000000
30
0.0
40
2.5000
1
2.00
72
1
73
0
11
114.000000
21
176.000000
31
0.0
0
LINE
8
DIM
10
92.800000
20
187.000000
30
0.0
11
80.000000
21
187.000000
31
0.0
0
LINE
8
DIM
10
92.800000
20
407.000000
30
0.0
11
80.000000
21
407.000000
31
0.0
0
LINE
8
DIM
10
82.000000
20
187.000000
30
0.0
11
82.000000
21
407.000000
31
0.0
0
SOLID
8
DIM
10
82.000000
20
187.000000
30
0.0
11
82.608000
21
190.200000
31
0.0
12
81.392000
22
190.200000
32
0.0
13
81.392000
23
190.200000
33
0.0
0
SOLID
8
DIM
10
82.000000
20
407.000000
30
0.0
11
81.392000
21
403.800000
31
0.0
12
82.608000
22
403.800000
32
0.0
13
82.608000
23
403.800000
33
0.0
0
TEXT
8
TEXT
10
81.000000
20
297.000000
30
0.0
40
2.5000
1
11.00
50
90.0000
72
1
73
0
11
81.000000
21
297.000000
31
0.0
0
TEXT
8
TEXT
10
114.000000
20
163.000000
30
0.0
40
4.0000
1
FRONT VIEW
72
1
73
0
11
114.000000
21
163.000000
31
0.0
0
LINE
8
TEXT
10
102.000000
20
161.400000
30
0.0
11
126.000000
21
161.400000
31
0.0
0
TEXT
8
TEXT
10
114.000000
20
157.000000
30
0.0
40
2.4000
1
-X →   Z ↑
72
1
73
0
11
114.000000
21
157.000000
31
0.0
0
LINE
8
DIM
10
629.000000
20
185.800000
30
0.0
11
629.000000
21
173.000000
31
0.0
0
LINE
8
DIM
10
669.000000
20
185.800000
30
0.0
11
669.000000
21
173.000000
31
0.0
0
LINE
8
DIM
10
629.000000
20
175.000000
30
0.0
11
669.000000
21
175.000000
31
0.0
0
SOLID
8
DIM
10
629.000000
20
175.000000
30
0.0
11
632.200000
21
174.392000
31
0.0
12
632.200000
22
175.608000
32
0.0
13
632.200000
23
175.608000
33
0.0
0
SOLID
8
DIM
10
669.000000
20
175.000000
30
0.0
11
665.800000
21
175.608000
31
0.0
12
665.800000
22
174.392000
32
0.0
13
665.800000
23
174.392000
33
0.0
0
TEXT
8
TEXT
10
649.000000
20
176.000000
30
0.0
40
2.5000
1
2.00
72
1
73
0
11
649.000000
21
176.000000
31
0.0
0
LINE
8
DIM
10
627.800000
20
187.000000
30
0.0
11
615.000000
21
187.000000
31
0.0
0
LINE
8
DIM
10
627.800000
20
407.000000
30
0.0
11
615.000000
21
407.000000
31
0.0
0
LINE
8
DIM
10
617.000000
20
187.000000
30
0.0
11
617.000000
21
407.000000
31
0.0
0
SOLID
8
DIM
10
617.000000
20
187.000000
30
0.0
11
617.608000
21
190.200000
31
0.0
12
616.392000
22
190.200000
32
0.0
13
616.392000
23
190.200000
33
0.0
0
SOLID
8
DIM
10
617.000000
20
407.000000
30
0.0
11
616.392000
21
403.800000
31
0.0
12
617.608000
22
403.800000
32
0.0
13
617.608000
23
403.800000
33
0.0
0
TEXT
8
TEXT
10
616.000000
20
297.000000
30
0.0
40
2.5000
1
11.00
50
90.0000
72
1
73
0
11
616.000000
21
297.000000
31
0.0
0
LINE
8
HATCH
10
668.999972
20
370.000000
30
0.0
11
669.000000
21
370.000028
31
0.0
0
LINE
8
HATCH
10
664.757331
20
370.000000
30
0.0
11
669.000000
21
374.242669
31
0.0
0
LINE
8
HATCH
10
660.514690
20
370.000000
30
0.0
11
669.000000
21
378.485310
31
0.0
0
LINE
8
HATCH
10
656.272050
20
370.000000
30
0.0
11
669.000000
21
382.727950
31
0.0
0
LINE
8
HATCH
10
652.029409
20
370.000000
30
0.0
11
669.000000
21
386.970591
31
0.0
0
LINE
8
HATCH
10
647.786768
20
370.000000
30
0.0
11
669.000000
21
391.213232
31
0.0
0
LINE
8
HATCH
10
643.544128
20
370.000000
30
0.0
11
669.000000
21
395.455872
31
0.0
0
LINE
8
HATCH
10
639.301487
20
370.000000
30
0.0
11
669.000000
21
399.698513
31
0.0
0
LINE
8
HATCH
10
635.058846
20
370.000000
30
0.0
11
669.000000
21
403.941154
31
0.0
0
LINE
8
HATCH
10
630.816206
20
370.000000
30
0.0
11
667.816206
21
407.000000
31
0.0
0
LINE
8
HATCH
10
629.000000
20
372.426435
30
0.0
11
663.573565
21
407.000000
31
0.0
0
LINE
8
HATCH
10
629.000000
20
376.669076
30
0.0
11
659.330924
21
407.000000
31
0.0
0
LINE
8
HATCH
10
629.000000
20
380.911717
30
0.0
11
655.088283
21
407.000000
31
0.0
0
LINE
8
HATCH
10
629.000000
20
385.154357
30
0.0
11
650.845643
21
407.000000
31
0.0
0
LINE
8
HATCH
10
629.000000
20
389.396998
30
0.0
11
646.603002
21
407.000000
31
0.0
0
LINE
8
HATCH
10
629.000000
20
393.639639
30
0.0
11
642.360361
21
407.000000
31
0.0
0
LINE
8
HATCH
10
629.000000
20
397.882279
30
0.0
11
638.117721
21
407.000000
31
0.0
0
LINE
8
HATCH
10
629.000000
20
402.124920
30
0.0
11
633.875080
21
407.000000
31
0.0
0
LINE
8
HATCH
10
629.000000
20
406.367561
30
0.0
11
629.632439
21
407.000000
31
0.0
0
LINE
8
HATCH
10
668.999972
20
270.000000
30
0.0
11
669.000000
21
270.000028
31
0.0
0
LINE
8
HATCH
10
664.757331
20
270.000000
30
0.0
11
669.000000
21
274.242669
31
0.0
0
LINE
8
HATCH
10
660.514690
20
270.000000
30
0.0
11
669.000000
21
278.485310
31
0.0
0
LINE
8
HATCH
10
656.272050
20
270.000000
30
0.0
11
669.000000
21
282.727950
31
0.0
0
LINE
8
HATCH
10
652.029409
20
270.000000
30
0.0
11
669.000000
21
286.970591
31
0.0
0
LINE
8
HATCH
10
647.786768
20
270.000000
30
0.0
11
669.000000
21
291.213232
31
0.0
0
LINE
8
HATCH
10
643.544128
20
270.000000
30
0.0
11
669.000000
21
295.455872
31
0.0
0
LINE
8
HATCH
10
639.301487
20
270.000000
30
0.0
11
669.000000
21
299.698513
31
0.0
0
LINE
8
HATCH
10
635.058846
20
270.000000
30
0.0
11
669.000000
21
303.941154
31
0.0
0
LINE
8
HATCH
10
630.816206
20
270.000000
30
0.0
11
669.000000
21
308.183794
31
0.0
0
LINE
8
HATCH
10
629.000000
20
272.426435
30
0.0
11
669.000000
21
312.426435
31
0.0
0
LINE
8
HATCH
10
629.000000
20
276.669076
30
0.0
11
669.000000
21
316.669076
31
0.0
0
LINE
8
HATCH
10
629.000000
20
280.911717
30
0.0
11
669.000000
21
320.911717
31
0.0
0
LINE
8
HATCH
10
629.000000
20
285.154357
30
0.0
11
667.845643
21
324.000000
31
0.0
0
LINE
8
HATCH
10
629.000000
20
289.396998
30
0.0
11
663.603002
21
324.000000
31
0.0
0
LINE
8
HATCH
10
629.000000
20
293.639639
30
0.0
11
659.360361
21
324.000000
31
0.0
0
LINE
8
HATCH
10
629.000000
20
297.882279
30
0.0
11
655.117721
21
324.000000
31
0.0
0
LINE
8
HATCH
10
629.000000
20
302.124920
30
0.0
11
650.875080
21
324.000000
31
0.0
0
LINE
8
HATCH
10
629.000000
20
306.367561
30
0.0
11
646.632439
21
324.000000
31
0.0
0
LINE
8
HATCH
10
629.000000
20
310.610201
30
0.0
11
642.389799
21
324.000000
31
0.0
0
LINE
8
HATCH
10
629.000000
20
314.852842
30
0.0
11
638.147158
21
324.000000
31
0.0
0
LINE
8
HATCH
10
629.000000
20
319.095483
30
0.0
11
633.904517
21
324.000000
31
0.0
0
LINE
8
HATCH
10
629.000000
20
323.338123
30
0.0
11
629.661877
21
324.000000
31
0.0
0
LINE
8
HATCH
10
668.999972
20
187.000000
30
0.0
11
669.000000
21
187.000028
31
0.0
0
LINE
8
HATCH
10
664.757331
20
187.000000
30
0.0
11
669.000000
21
191.242669
31
0.0
0
LINE
8
HATCH
10
660.514690
20
187.000000
30
0.0
11
669.000000
21
195.485310
31
0.0
0
LINE
8
HATCH
10
656.272050
20
187.000000
30
0.0
11
669.000000
21
199.727950
31
0.0
0
LINE
8
HATCH
10
652.029409
20
187.000000
30
0.0
11
669.000000
21
203.970591
31
0.0
0
LINE
8
HATCH
10
647.786768
20
187.000000
30
0.0
11
669.000000
21
208.213232
31
0.0
0
LINE
8
HATCH
10
643.544128
20
187.000000
30
0.0
11
669.000000
21
212.455872
31
0.0
0
LINE
8
HATCH
10
639.301487
20
187.000000
30
0.0
11
669.000000
21
216.698513
31
0.0
0
LINE
8
HATCH
10
635.058846
20
187.000000
30
0.0
11
669.000000
21
220.941154
31
0.0
0
LINE
8
HATCH
10
630.816206
20
187.000000
30
0.0
11
667.816206
21
224.000000
31
0.0
0
LINE
8
HATCH
10
629.000000
20
189.426435
30
0.0
11
663.573565
21
224.000000
31
0.0
0
LINE
8
HATCH
10
629.000000
20
193.669076
30
0.0
11
659.330924
21
224.000000
31
0.0
0
LINE
8
HATCH
10
629.000000
20
197.911717
30
0.0
11
655.088283
21
224.000000
31
0.0
0
LINE
8
HATCH
10
629.000000
20
202.154357
30
0.0
11
650.845643
21
224.000000
31
0.0
0
LINE
8
HATCH
10
629.000000
20
206.396998
30
0.0
11
646.603002
21
224.000000
31
0.0
0
LINE
8
HATCH
10
629.000000
20
210.639639
30
0.0
11
642.360361
21
224.000000
31
0.0
0
LINE
8
HATCH
10
629.000000
20
214.882279
30
0.0
11
638.117721
21
224.000000
31
0.0
0
LINE
8
HATCH
10
629.000000
20
219.124920
30
0.0
11
633.875080
21
224.000000
31
0.0
0
LINE
8
HATCH
10
629.000000
20
223.367561
30
0.0
11
629.632439
21
224.000000
31
0.0
0
LINE
8
DIM
10
629.000000
20
190.033353
30
0.0
11
629.000000
21
416.000000
31
0.0
0
LINE
8
DIM
10
669.000000
20
190.033353
30
0.0
11
669.000000
21
416.000000
31
0.0
0
LINE
8
DIM
10
629.000000
20
414.000000
30
0.0
11
669.000000
21
414.000000
31
0.0
0
SOLID
8
DIM
10
629.000000
20
414.000000
30
0.0
11
632.200000
21
413.392000
31
0.0
12
632.200000
22
414.608000
32
0.0
13
632.200000
23
414.608000
33
0.0
0
SOLID
8
DIM
10
669.000000
20
414.000000
30
0.0
11
665.800000
21
414.608000
31
0.0
12
665.800000
22
413.392000
32
0.0
13
665.800000
23
413.392000
33
0.0
0
TEXT
8
TEXT
10
649.000000
20
415.000000
30
0.0
40
2.5000
1
2.00 WALL
72
1
73
0
11
649.000000
21
415.000000
31
0.0
0
TEXT
8
TEXT
10
649.000000
20
163.000000
30
0.0
40
4.0000
1
SECTION A-A
72
1
73
0
11
649.000000
21
163.000000
31
0.0
0
LINE
8
TEXT
10
635.800000
20
161.400000
30
0.0
11
662.200000
21
161.400000
31
0.0
0
TEXT
8
TEXT
10
792.000000
20
498.000000
30
0.0
40
4.0000
1
ISOMETRIC VIEW
72
1
73
0
11
792.000000
21
498.000000
31
0.0
0
LINE
8
TEXT
10
775.200000
20
496.400000
30
0.0
11
808.800000
21
496.400000
31
0.0
0
TEXT
8
TEXT
10
792.000000
20
492.000000
30
0.0
40
2.6000
1
2.00 x 20.00 x 11.00 mm
72
1
73
0
11
792.000000
21
492.000000
31
0.0
0
LINE
8
CUT
10
533.000000
20
178.000000
30
0.0
11
533.000000
21
192.000000
31
0.0
0
LINE
8
CUTTHIN
10
533.000000
20
192.000000
30
0.0
11
533.000000
21
402.000000
31
0.0
0
LINE
8
CUT
10
533.000000
20
402.000000
30
0.0
11
533.000000
21
416.000000
31
0.0
0
LINE
8
CUT
10
533.000000
20
178.000000
30
0.0
11
542.000000
21
178.000000
31
0.0
0
SOLID
8
CUT
10
542.000000
20
178.000000
30
0.0
11
537.800000
21
178.798000
31
0.0
12
537.800000
22
177.202000
32
0.0
13
537.800000
23
177.202000
33
0.0
0
TEXT
8
TEXT
10
528.000000
20
178.000000
30
0.0
40
4.0000
1
A
72
1
73
2
11
528.000000
21
178.000000
31
0.0
0
LINE
8
CUT
10
533.000000
20
416.000000
30
0.0
11
542.000000
21
416.000000
31
0.0
0
SOLID
8
CUT
10
542.000000
20
416.000000
30
0.0
11
537.800000
21
416.798000
31
0.0
12
537.800000
22
415.202000
32
0.0
13
537.800000
23
415.202000
33
0.0
0
TEXT
8
TEXT
10
528.000000
20
416.000000
30
0.0
40
4.0000
1
A
72
1
73
2
11
528.000000
21
416.000000
31
0.0
0
LINE
8
VISIBLE
10
763.000000
20
438.177778
30
0.0
11
821.000000
21
438.177778
31
0.0
0
LINE
8
VISIBLE
10
821.000000
20
438.177778
30
0.0
11
821.000000
21
482.000000
31
0.0
0
LINE
8
VISIBLE
10
821.000000
20
482.000000
30
0.0
11
763.000000
21
482.000000
31
0.0
0
LINE
8
VISIBLE
10
763.000000
20
482.000000
30
0.0
11
763.000000
21
438.177778
31
0.0
0
LINE
8
TITLE
10
763.000000
20
438.177778
30
0.0
11
821.000000
21
438.177778
31
0.0
0
LINE
8
TITLE
10
821.000000
20
438.177778
30
0.0
11
821.000000
21
482.000000
31
0.0
0
LINE
8
TITLE
10
821.000000
20
482.000000
30
0.0
11
763.000000
21
482.000000
31
0.0
0
LINE
8
TITLE
10
763.000000
20
482.000000
30
0.0
11
763.000000
21
438.177778
31
0.0
0
TEXT
8
TEXT
10
792.000000
20
435.577778
30
0.0
40
2.0000
1
REFERENCE RENDER (ISO2) — rendered off this solid,
72
1
73
0
11
792.000000
21
435.577778
31
0.0
0
TEXT
8
TEXT
10
792.000000
20
432.977778
30
0.0
40
2.0000
1
900 x 680 px
72
1
73
0
11
792.000000
21
432.977778
31
0.0
0
TEXT
8
TEXT
10
755.000000
20
424.177778
30
0.0
40
3.0000
1
NOTES
0
TEXT
8
TEXT
10
755.000000
20
419.577778
30
0.0
40
2.4000
1
1. ALL DIMENSIONS IN mm AND DEGREES. EVERY
0
TEXT
8
TEXT
10
755.000000
20
415.857778
30
0.0
40
2.4000
1
   DIMENSION AND EVERY HOLE CALLOUT WAS MEASURED
0
TEXT
8
TEXT
10
755.000000
20
412.137778
30
0.0
40
2.4000
1
   OFF THE SOLID.
0
TEXT
8
TEXT
10
755.000000
20
408.417778
30
0.0
40
2.4000
1
2. PROCESS: FDM.
0
TEXT
8
TEXT
10
755.000000
20
404.697778
30
0.0
40
2.4000
1
3. THINNEST WALL, WHOLE SOLID: 0.8500 mm, AT
0
TEXT
8
TEXT
10
755.000000
20
400.977778
30
0.0
40
2.4000
1
   X=0.333 Y=-12.850 Z=77.500 — MEASURED OVER THE
0
TEXT
8
TEXT
10
755.000000
20
397.257778
30
0.0
40
2.4000
1
   WHOLE SOLID BY RAY+EXACT AT 0.310 mm SAMPLE
0
TEXT
8
TEXT
10
755.000000
20
393.537778
30
0.0
40
2.4000
1
   SPACING (A FEATURE NARROWER THAN THAT CAN BE
0
TEXT
8
TEXT
10
755.000000
20
389.817778
30
0.0
40
2.4000
1
   MISSED). A RAY MINIMUM AT AN EDGE, A FILLET
0
TEXT
8
TEXT
10
755.000000
20
386.097778
30
0.0
40
2.4000
1
   RUN-OUT OR A CHAMFER TIP IS A REAL DISTANCE
0
TEXT
8
TEXT
10
755.000000
20
382.377778
30
0.0
40
2.4000
1
   THROUGH MATERIAL AND IS NOT A PRINTABLE WALL.
0
TEXT
8
TEXT
10
755.000000
20
378.657778
30
0.0
40
2.4000
1
4. GENERAL TOLERANCE CANNOT DETERMINE — SEE PRINT
0
TEXT
8
TEXT
10
755.000000
20
374.937778
30
0.0
40
2.4000
1
   / DFM NOTES UNLESS STATED.
0
TEXT
8
TEXT
10
755.000000
20
371.217778
30
0.0
40
2.4000
1
5. SECTION A-A AT Y=-30.00: THINNEST MATERIAL IN
0
TEXT
8
TEXT
10
755.000000
20
367.497778
30
0.0
40
2.4000
1
   THIS PLANE ONLY 2.00 mm, AT X=1.00, Z=69.59 — A
0
TEXT
8
TEXT
10
755.000000
20
363.777778
30
0.0
40
2.4000
1
   SCAN OF ONE CUT, NOT THE PART MINIMUM.
0
TEXT
8
TEXT
10
755.000000
20
360.057778
30
0.0
40
2.4000
1
6. RIGHT VIEW: hidden lines SUPPRESSED: all 580
0
TEXT
8
TEXT
10
755.000000
20
356.337778
30
0.0
40
2.4000
1
   edge samples still land on drawn ink without
0
TEXT
8
TEXT
10
755.000000
20
352.617778
30
0.0
40
2.4000
1
   them.
0
TEXT
8
TEXT
10
755.000000
20
348.897778
30
0.0
40
2.4000
1
7. FRONT VIEW: hidden lines SUPPRESSED: all 574
0
TEXT
8
TEXT
10
755.000000
20
345.177778
30
0.0
40
2.4000
1
   edge samples still land on drawn ink without
0
TEXT
8
TEXT
10
755.000000
20
341.457778
30
0.0
40
2.4000
1
   them.
0
TEXT
8
TEXT
10
755.000000
20
333.737778
30
0.0
40
3.0000
1
PRINT / DFM
0
TEXT
8
TEXT
10
755.000000
20
329.137778
30
0.0
40
2.4000
1
1. ORIENTATION: laid flat (2 x 20 x 11 mm)
0
TEXT
8
TEXT
10
755.000000
20
325.417778
30
0.0
40
2.4000
1
2. THINNEST WALL: 0.85 mm (floor 0.80 mm = 2
0
TEXT
8
TEXT
10
755.000000
20
321.697778
30
0.0
40
2.4000
1
   perimeters @ 0.4 mm nozzle)
0
TEXT
8
TEXT
10
755.000000
20
317.977778
30
0.0
40
2.4000
1
3. 4 horizontal bore(s) bridge at the crown: ream
0
TEXT
8
TEXT
10
755.000000
20
314.257778
30
0.0
40
2.4000
1
   any bearing or press-fit bore to size
0
TEXT
8
TEXT
10
755.000000
20
310.537778
30
0.0
40
2.4000
1
4. FILAMENT: PLA, ~0 g (modelled), 55 layers @ 0.2
0
TEXT
8
TEXT
10
755.000000
20
306.817778
30
0.0
40
2.4000
1
   mm
0
TEXT
8
TEXT
10
755.000000
20
303.097778
30
0.0
40
2.4000
1
5. TOLERANCE BASIS, IN-HOUSE: CANNOT DETERMINE.
0
TEXT
8
TEXT
10
755.000000
20
299.377778
30
0.0
40
2.4000
1
   Every Bambu on this farm records tolerance_mm:
0
TEXT
8
TEXT
10
755.000000
20
295.657778
30
0.0
40
2.4000
1
   null, cite "no coupon printed and measured on
0
TEXT
8
TEXT
10
755.000000
20
291.937778
30
0.0
40
2.4000
1
   this machine" (ce-machines/bambu-h2s-*,
0
TEXT
8
TEXT
10
755.000000
20
288.217778
30
0.0
40
2.4000
1
   bambu-h2d-*/capabilities.json, read
0
TEXT
8
TEXT
10
755.000000
20
284.497778
30
0.0
40
2.4000
1
   2026-09-02), and Bambu Lab's own H2D Pro spec
0
TEXT
8
TEXT
10
755.000000
20
280.777778
30
0.0
40
2.4000
1
   sheet carries no dimensional-accuracy line.
0
TEXT
8
TEXT
10
755.000000
20
277.057778
30
0.0
40
2.4000
1
   DIMENSIONS HERE ARE NOMINAL AS MODELLED.
0
TEXT
8
TEXT
10
755.000000
20
273.337778
30
0.0
40
2.4000
1
6. TOLERANCE BASIS, OUTSOURCED: JLC3DP +/-0.3 mm
0
TEXT
8
TEXT
10
755.000000
20
269.617778
30
0.0
40
2.4000
1
   FDM (jlc3dp.com, ce-machines/farm-jlc3dp); Hubs
0
TEXT
8
TEXT
10
755.000000
20
265.897778
30
0.0
40
2.4000
1
   +/-0.5%, floor +/-0.5 mm
0
TEXT
8
TEXT
10
755.000000
20
262.177778
30
0.0
40
2.4000
1
   (hubs.com/3d-printing/, ce-machines/farm-hubs).
0
TEXT
8
TEXT
10
755.000000
20
258.457778
30
0.0
40
2.4000
1
   Apply the route's figure, not both. The +/-0.2
0
TEXT
8
TEXT
10
755.000000
20
254.737778
30
0.0
40
2.4000
1
   mm in cecad/machining.py fdm is a repo planning
0
TEXT
8
TEXT
10
755.000000
20
251.017778
30
0.0
40
2.4000
1
   constant with no vendor cite and is NOT used
0
TEXT
8
TEXT
10
755.000000
20
247.297778
30
0.0
40
2.4000
1
   here. One printed and measured coupon closes
0
TEXT
8
TEXT
10
755.000000
20
243.577778
30
0.0
40
2.4000
1
   this note.
0
TEXT
8
TEXT
10
755.000000
20
239.857778
30
0.0
40
2.4000
1
7. NO ISO 286 CLASS IS DECLARED ON ANY BORE: FDM
0
TEXT
8
TEXT
10
755.000000
20
236.137778
30
0.0
40
2.4000
1
   cannot be sized to one (H7/p6 at O3 is a 0.010
0
TEXT
8
TEXT
10
755.000000
20
232.417778
30
0.0
40
2.4000
1
   mm band). REAM bearing and press-fit bores
0
TEXT
8
TEXT
10
755.000000
20
228.697778
30
0.0
40
2.4000
1
   after printing.
0
LINE
8
FRAME
10
645.000000
20
10.000000
30
0.0
11
831.000000
21
10.000000
31
0.0
0
LINE
8
FRAME
10
831.000000
20
10.000000
30
0.0
11
831.000000
21
66.000000
31
0.0
0
LINE
8
FRAME
10
831.000000
20
66.000000
30
0.0
11
645.000000
21
66.000000
31
0.0
0
LINE
8
FRAME
10
645.000000
20
66.000000
30
0.0
11
645.000000
21
10.000000
31
0.0
0
LINE
8
TITLE
10
645.000000
20
53.000000
30
0.0
11
831.000000
21
53.000000
31
0.0
0
LINE
8
TITLE
10
645.000000
20
19.000000
30
0.0
11
831.000000
21
19.000000
31
0.0
0
LINE
8
TITLE
10
645.000000
20
27.500000
30
0.0
11
831.000000
21
27.500000
31
0.0
0
LINE
8
TITLE
10
645.000000
20
36.000000
30
0.0
11
831.000000
21
36.000000
31
0.0
0
LINE
8
TITLE
10
645.000000
20
44.500000
30
0.0
11
831.000000
21
44.500000
31
0.0
0
TEXT
8
TEXT
10
647.500000
20
59.500000
30
0.0
40
6.0000
1
MICRODUCK-NECK-PLATE
72
0
73
2
11
647.500000
21
59.500000
31
0.0
0
LINE
8
TITLE
10
811.000000
20
53.000000
30
0.0
11
811.000000
21
66.000000
31
0.0
0
TEXT
8
TITLE
10
821.000000
20
63.600000
30
0.0
40
1.7000
1
REV
72
1
73
0
11
821.000000
21
63.600000
31
0.0
0
TEXT
8
TEXT
10
821.000000
20
55.000000
30
0.0
40
5.2000
1
A
72
1
73
0
11
821.000000
21
55.000000
31
0.0
0
LINE
8
TITLE
10
781.000000
20
53.000000
30
0.0
11
781.000000
21
66.000000
31
0.0
0
CIRCLE
8
TITLE
10
787.500000
20
59.500000
30
0.0
40
3.500000
0
CIRCLE
8
TITLE
10
787.500000
20
59.500000
30
0.0
40
1.960000
0
LINE
8
TITLE
10
797.300000
20
56.000000
30
0.0
11
797.300000
21
63.000000
31
0.0
0
LINE
8
TITLE
10
797.300000
20
63.000000
30
0.0
11
803.250000
21
61.460000
31
0.0
0
LINE
8
TITLE
10
803.250000
20
61.460000
30
0.0
11
803.250000
21
57.540000
31
0.0
0
LINE
8
TITLE
10
803.250000
20
57.540000
30
0.0
11
797.300000
21
56.000000
31
0.0
0
LINE
8
CENTER
10
782.500000
20
59.500000
30
0.0
11
804.750000
21
59.500000
31
0.0
0
LINE
8
TITLE
10
709.000000
20
19.000000
30
0.0
11
709.000000
21
53.000000
31
0.0
0
LINE
8
TITLE
10
773.000000
20
19.000000
30
0.0
11
773.000000
21
53.000000
31
0.0
0
TEXT
8
TITLE
10
646.600000
20
50.600000
30
0.0
40
1.7000
1
MATERIAL
0
TEXT
8
TEXT
10
646.600000
20
45.900000
30
0.0
40
2.5000
1
PLA
0
TEXT
8
TITLE
10
710.600000
20
50.600000
30
0.0
40
1.7000
1
PROCESS
0
TEXT
8
TEXT
10
710.600000
20
45.900000
30
0.0
40
2.5000
1
FDM
0
TEXT
8
TITLE
10
774.600000
20
50.600000
30
0.0
40
1.7000
1
SCALE
0
TEXT
8
TEXT
10
774.600000
20
45.900000
30
0.0
40
2.5000
1
20:1
0
TEXT
8
TITLE
10
646.600000
20
42.100000
30
0.0
40
1.7000
1
CATEGORY
0
TEXT
8
TEXT
10
646.600000
20
37.400000
30
0.0
40
2.5000
1
robot-link
0
TEXT
8
TITLE
10
678.600000
20
42.100000
30
0.0
40
1.7000
1
GENERAL TOL
0
TEXT
8
TEXT
10
678.600000
20
37.400000
30
0.0
40
2.5000
1
CANNOT DETERMINE —~
0
LINE
8
TITLE
10
677.000000
20
36.000000
30
0.0
11
677.000000
21
44.500000
31
0.0
0
TEXT
8
TITLE
10
710.600000
20
42.100000
30
0.0
40
1.7000
1
FINISH
0
TEXT
8
TEXT
10
710.600000
20
37.400000
30
0.0
40
2.5000
1
AS PRINTED
0
TEXT
8
TITLE
10
774.600000
20
42.100000
30
0.0
40
1.7000
1
SHEET
0
TEXT
8
TEXT
10
774.600000
20
37.400000
30
0.0
40
2.5000
1
A1  1/1
0
TEXT
8
TITLE
10
646.600000
20
33.600000
30
0.0
40
1.7000
1
VOLUME (MEASURED)
0
TEXT
8
TEXT
10
646.600000
20
28.900000
30
0.0
40
2.5000
1
0.40 cm3
0
TEXT
8
TITLE
10
710.600000
20
33.600000
30
0.0
40
1.7000
1
MASS (ASSUMES PLA)
0
TEXT
8
TEXT
10
710.600000
20
28.900000
30
0.0
40
2.5000
1
0.5 g
0
TEXT
8
TITLE
10
774.600000
20
33.600000
30
0.0
40
1.7000
1
UNITS
0
TEXT
8
TEXT
10
774.600000
20
28.900000
30
0.0
40
2.5000
1
mm / deg
0
TEXT
8
TITLE
10
646.600000
20
25.100000
30
0.0
40
1.7000
1
SIZE (BBOX, MEASURED)
0
TEXT
8
TEXT
10
646.600000
20
20.400000
30
0.0
40
2.5000
1
2.00 x 20.00 x 11.00
0
TEXT
8
TITLE
10
710.600000
20
25.100000
30
0.0
40
1.7000
1
DRAWN
0
TEXT
8
TEXT
10
710.600000
20
20.400000
30
0.0
40
2.5000
1
ce-cad  2026-09-03
0
TEXT
8
TITLE
10
774.600000
20
25.100000
30
0.0
40
1.7000
1
PROJECTION
0
TEXT
8
TEXT
10
774.600000
20
20.400000
30
0.0
40
2.5000
1
THIRD ANGLE
0
TEXT
8
TITLE
10
646.600000
20
16.600000
30
0.0
40
1.7000
1
SOURCE (DESIGN FILE)
0
TEXT
8
TEXT
10
646.600000
20
11.400000
30
0.0
40
2.6000
1
ce-parts/microduck-neck-plate/current/cad/part.py
0
TEXT
8
TEXT
10
12.500000
20
577.500000
30
0.0
40
4.2000
1
microduck-neck-plate   SCALE 20:1   A1   THIRD ANGLE
0
ENDSEC
0
EOF
