0
SECTION
2
HEADER
9
$ACADVER
1
AC1009
9
$INSUNITS
70
4
9
$LTSCALE
40
1.0
9
$EXTMIN
10
0.0000
20
0.0000
30
0.0
9
$EXTMAX
10
841.0000
20
594.0000
30
0.0
0
ENDSEC
0
SECTION
2
TABLES
0
TABLE
2
LTYPE
70
4
0
LTYPE
2
CONTINUOUS
70
0
3
Solid line
72
65
73
0
40
0.0000
0
LTYPE
2
HIDDEN
70
0
3
Hidden __ __ __ __
72
65
73
2
40
3.6000
49
2.4000
49
-1.2000
0
LTYPE
2
CENTER
70
0
3
Center ____ _ ____ _
72
65
73
4
40
11.2000
49
7.0000
49
-1.4000
49
1.4000
49
-1.4000
0
LTYPE
2
PHANTOM
70
0
3
Phantom ____ _ _ ____
72
65
73
6
40
21.0000
49
11.0000
49
-2.0000
49
2.0000
49
-2.0000
49
2.0000
49
-2.0000
0
ENDTAB
0
TABLE
2
LAYER
70
12
0
LAYER
2
0
70
0
62
7
6
CONTINUOUS
0
LAYER
2
VISIBLE
70
0
62
7
6
CONTINUOUS
0
LAYER
2
SECTION
70
0
62
7
6
CONTINUOUS
0
LAYER
2
HIDDEN
70
0
62
8
6
HIDDEN
0
LAYER
2
CENTER
70
0
62
4
6
CENTER
0
LAYER
2
DIM
70
0
62
3
6
CONTINUOUS
0
LAYER
2
TEXT
70
0
62
3
6
CONTINUOUS
0
LAYER
2
HATCH
70
0
62
5
6
CONTINUOUS
0
LAYER
2
CUT
70
0
62
1
6
PHANTOM
0
LAYER
2
CUTTHIN
70
0
62
1
6
PHANTOM
0
LAYER
2
FRAME
70
0
62
7
6
CONTINUOUS
0
LAYER
2
TITLE
70
0
62
7
6
CONTINUOUS
0
ENDTAB
0
ENDSEC
0
SECTION
2
ENTITIES
0
LINE
8
TITLE
10
5.000000
20
5.000000
30
0.0
11
836.000000
21
5.000000
31
0.0
0
LINE
8
TITLE
10
836.000000
20
5.000000
30
0.0
11
836.000000
21
589.000000
31
0.0
0
LINE
8
TITLE
10
836.000000
20
589.000000
30
0.0
11
5.000000
21
589.000000
31
0.0
0
LINE
8
TITLE
10
5.000000
20
589.000000
30
0.0
11
5.000000
21
5.000000
31
0.0
0
LINE
8
FRAME
10
10.000000
20
10.000000
30
0.0
11
831.000000
21
10.000000
31
0.0
0
LINE
8
FRAME
10
831.000000
20
10.000000
30
0.0
11
831.000000
21
584.000000
31
0.0
0
LINE
8
FRAME
10
831.000000
20
584.000000
30
0.0
11
10.000000
21
584.000000
31
0.0
0
LINE
8
FRAME
10
10.000000
20
584.000000
30
0.0
11
10.000000
21
10.000000
31
0.0
0
TEXT
8
TITLE
10
61.312500
20
586.500000
30
0.0
40
2.4000
1
1
72
1
73
2
11
61.312500
21
586.500000
31
0.0
0
TEXT
8
TITLE
10
61.312500
20
7.500000
30
0.0
40
2.4000
1
1
72
1
73
2
11
61.312500
21
7.500000
31
0.0
0
TEXT
8
TITLE
10
163.937500
20
586.500000
30
0.0
40
2.4000
1
2
72
1
73
2
11
163.937500
21
586.500000
31
0.0
0
TEXT
8
TITLE
10
163.937500
20
7.500000
30
0.0
40
2.4000
1
2
72
1
73
2
11
163.937500
21
7.500000
31
0.0
0
LINE
8
TITLE
10
112.625000
20
5.000000
30
0.0
11
112.625000
21
10.000000
31
0.0
0
LINE
8
TITLE
10
112.625000
20
584.000000
30
0.0
11
112.625000
21
589.000000
31
0.0
0
TEXT
8
TITLE
10
266.562500
20
586.500000
30
0.0
40
2.4000
1
3
72
1
73
2
11
266.562500
21
586.500000
31
0.0
0
TEXT
8
TITLE
10
266.562500
20
7.500000
30
0.0
40
2.4000
1
3
72
1
73
2
11
266.562500
21
7.500000
31
0.0
0
LINE
8
TITLE
10
215.250000
20
5.000000
30
0.0
11
215.250000
21
10.000000
31
0.0
0
LINE
8
TITLE
10
215.250000
20
584.000000
30
0.0
11
215.250000
21
589.000000
31
0.0
0
TEXT
8
TITLE
10
369.187500
20
586.500000
30
0.0
40
2.4000
1
4
72
1
73
2
11
369.187500
21
586.500000
31
0.0
0
TEXT
8
TITLE
10
369.187500
20
7.500000
30
0.0
40
2.4000
1
4
72
1
73
2
11
369.187500
21
7.500000
31
0.0
0
LINE
8
TITLE
10
317.875000
20
5.000000
30
0.0
11
317.875000
21
10.000000
31
0.0
0
LINE
8
TITLE
10
317.875000
20
584.000000
30
0.0
11
317.875000
21
589.000000
31
0.0
0
TEXT
8
TITLE
10
471.812500
20
586.500000
30
0.0
40
2.4000
1
5
72
1
73
2
11
471.812500
21
586.500000
31
0.0
0
TEXT
8
TITLE
10
471.812500
20
7.500000
30
0.0
40
2.4000
1
5
72
1
73
2
11
471.812500
21
7.500000
31
0.0
0
LINE
8
TITLE
10
420.500000
20
5.000000
30
0.0
11
420.500000
21
10.000000
31
0.0
0
LINE
8
TITLE
10
420.500000
20
584.000000
30
0.0
11
420.500000
21
589.000000
31
0.0
0
TEXT
8
TITLE
10
574.437500
20
586.500000
30
0.0
40
2.4000
1
6
72
1
73
2
11
574.437500
21
586.500000
31
0.0
0
TEXT
8
TITLE
10
574.437500
20
7.500000
30
0.0
40
2.4000
1
6
72
1
73
2
11
574.437500
21
7.500000
31
0.0
0
LINE
8
TITLE
10
523.125000
20
5.000000
30
0.0
11
523.125000
21
10.000000
31
0.0
0
LINE
8
TITLE
10
523.125000
20
584.000000
30
0.0
11
523.125000
21
589.000000
31
0.0
0
TEXT
8
TITLE
10
677.062500
20
586.500000
30
0.0
40
2.4000
1
7
72
1
73
2
11
677.062500
21
586.500000
31
0.0
0
TEXT
8
TITLE
10
677.062500
20
7.500000
30
0.0
40
2.4000
1
7
72
1
73
2
11
677.062500
21
7.500000
31
0.0
0
LINE
8
TITLE
10
625.750000
20
5.000000
30
0.0
11
625.750000
21
10.000000
31
0.0
0
LINE
8
TITLE
10
625.750000
20
584.000000
30
0.0
11
625.750000
21
589.000000
31
0.0
0
TEXT
8
TITLE
10
779.687500
20
586.500000
30
0.0
40
2.4000
1
8
72
1
73
2
11
779.687500
21
586.500000
31
0.0
0
TEXT
8
TITLE
10
779.687500
20
7.500000
30
0.0
40
2.4000
1
8
72
1
73
2
11
779.687500
21
7.500000
31
0.0
0
LINE
8
TITLE
10
728.375000
20
5.000000
30
0.0
11
728.375000
21
10.000000
31
0.0
0
LINE
8
TITLE
10
728.375000
20
584.000000
30
0.0
11
728.375000
21
589.000000
31
0.0
0
TEXT
8
TITLE
10
7.500000
20
67.400000
30
0.0
40
2.4000
1
E
72
1
73
2
11
7.500000
21
67.400000
31
0.0
0
TEXT
8
TITLE
10
833.500000
20
67.400000
30
0.0
40
2.4000
1
E
72
1
73
2
11
833.500000
21
67.400000
31
0.0
0
TEXT
8
TITLE
10
7.500000
20
182.200000
30
0.0
40
2.4000
1
D
72
1
73
2
11
7.500000
21
182.200000
31
0.0
0
TEXT
8
TITLE
10
833.500000
20
182.200000
30
0.0
40
2.4000
1
D
72
1
73
2
11
833.500000
21
182.200000
31
0.0
0
LINE
8
TITLE
10
5.000000
20
124.800000
30
0.0
11
10.000000
21
124.800000
31
0.0
0
LINE
8
TITLE
10
831.000000
20
124.800000
30
0.0
11
836.000000
21
124.800000
31
0.0
0
TEXT
8
TITLE
10
7.500000
20
297.000000
30
0.0
40
2.4000
1
C
72
1
73
2
11
7.500000
21
297.000000
31
0.0
0
TEXT
8
TITLE
10
833.500000
20
297.000000
30
0.0
40
2.4000
1
C
72
1
73
2
11
833.500000
21
297.000000
31
0.0
0
LINE
8
TITLE
10
5.000000
20
239.600000
30
0.0
11
10.000000
21
239.600000
31
0.0
0
LINE
8
TITLE
10
831.000000
20
239.600000
30
0.0
11
836.000000
21
239.600000
31
0.0
0
TEXT
8
TITLE
10
7.500000
20
411.800000
30
0.0
40
2.4000
1
B
72
1
73
2
11
7.500000
21
411.800000
31
0.0
0
TEXT
8
TITLE
10
833.500000
20
411.800000
30
0.0
40
2.4000
1
B
72
1
73
2
11
833.500000
21
411.800000
31
0.0
0
LINE
8
TITLE
10
5.000000
20
354.400000
30
0.0
11
10.000000
21
354.400000
31
0.0
0
LINE
8
TITLE
10
831.000000
20
354.400000
30
0.0
11
836.000000
21
354.400000
31
0.0
0
TEXT
8
TITLE
10
7.500000
20
526.600000
30
0.0
40
2.4000
1
A
72
1
73
2
11
7.500000
21
526.600000
31
0.0
0
TEXT
8
TITLE
10
833.500000
20
526.600000
30
0.0
40
2.4000
1
A
72
1
73
2
11
833.500000
21
526.600000
31
0.0
0
LINE
8
TITLE
10
5.000000
20
469.200000
30
0.0
11
10.000000
21
469.200000
31
0.0
0
LINE
8
TITLE
10
831.000000
20
469.200000
30
0.0
11
836.000000
21
469.200000
31
0.0
0
LINE
8
VISIBLE
10
272.000000
20
222.250000
30
0.0
11
272.000000
21
193.500000
31
0.0
0
LINE
8
VISIBLE
10
272.000000
20
222.250000
30
0.0
11
272.000000
21
239.750000
31
0.0
0
ARC
8
VISIBLE
10
174.500000
20
212.250000
30
0.0
40
6.000000
50
155.375682
51
24.624318
0
ARC
8
VISIBLE
10
254.500000
20
212.250000
30
0.0
40
6.000000
50
24.624318
51
90.000000
0
ARC
8
VISIBLE
10
254.500000
20
212.250000
30
0.0
40
6.000000
50
155.375682
51
24.624318
0
ARC
8
VISIBLE
10
254.500000
20
212.250000
30
0.0
40
6.000000
50
90.000000
51
155.375682
0
LINE
8
VISIBLE
10
157.136953
20
190.886788
30
0.0
11
157.000000
21
193.500000
31
0.0
0
LINE
8
VISIBLE
10
157.546310
20
188.302208
30
0.0
11
157.136953
21
190.886788
31
0.0
0
LINE
8
VISIBLE
10
158.223587
20
185.774575
30
0.0
11
157.546310
21
188.302208
31
0.0
0
LINE
8
VISIBLE
10
159.161364
20
183.331584
30
0.0
11
158.526197
21
184.986250
31
0.0
0
LINE
8
VISIBLE
10
158.526197
20
184.986250
30
0.0
11
158.223587
21
185.774575
31
0.0
0
LINE
8
VISIBLE
10
160.349365
20
181.000000
30
0.0
11
159.161364
21
183.331584
31
0.0
0
LINE
8
VISIBLE
10
161.774575
20
178.805369
30
0.0
11
160.349365
21
181.000000
31
0.0
0
LINE
8
VISIBLE
10
163.421379
20
176.771735
30
0.0
11
161.774575
21
178.805369
31
0.0
0
LINE
8
VISIBLE
10
165.271735
20
174.921379
30
0.0
11
164.000000
21
176.193114
31
0.0
0
LINE
8
VISIBLE
10
164.000000
20
176.193114
30
0.0
11
163.421379
21
176.771735
31
0.0
0
LINE
8
VISIBLE
10
167.305369
20
173.274575
30
0.0
11
165.271735
21
174.921379
31
0.0
0
LINE
8
VISIBLE
10
169.500000
20
171.849365
30
0.0
11
167.305369
21
173.274575
31
0.0
0
LINE
8
VISIBLE
10
202.000000
20
153.099365
30
0.0
11
169.500000
21
171.849365
31
0.0
0
LINE
8
VISIBLE
10
204.331584
20
151.911364
30
0.0
11
202.000000
21
153.099365
31
0.0
0
LINE
8
VISIBLE
10
206.774575
20
150.973587
30
0.0
11
204.331584
21
151.911364
31
0.0
0
LINE
8
VISIBLE
10
209.302208
20
150.296310
30
0.0
11
206.774575
21
150.973587
31
0.0
0
LINE
8
VISIBLE
10
211.886788
20
149.886953
30
0.0
11
209.302208
21
150.296310
31
0.0
0
LINE
8
VISIBLE
10
214.500000
20
149.750000
30
0.0
11
211.886788
21
149.886953
31
0.0
0
LINE
8
VISIBLE
10
217.113212
20
149.886953
30
0.0
11
214.500000
21
149.750000
31
0.0
0
LINE
8
VISIBLE
10
219.697792
20
150.296310
30
0.0
11
217.113212
21
149.886953
31
0.0
0
LINE
8
VISIBLE
10
222.225425
20
150.973587
30
0.0
11
219.697792
21
150.296310
31
0.0
0
LINE
8
VISIBLE
10
224.668416
20
151.911364
30
0.0
11
222.225425
21
150.973587
31
0.0
0
LINE
8
VISIBLE
10
227.000000
20
153.099365
30
0.0
11
224.668416
21
151.911364
31
0.0
0
LINE
8
VISIBLE
10
259.500000
20
171.849365
30
0.0
11
227.000000
21
153.099365
31
0.0
0
LINE
8
VISIBLE
10
261.694631
20
173.274575
30
0.0
11
259.500000
21
171.849365
31
0.0
0
LINE
8
VISIBLE
10
272.000000
20
193.500000
30
0.0
11
271.863047
21
190.886788
31
0.0
0
LINE
8
VISIBLE
10
271.863047
20
190.886788
30
0.0
11
271.453690
21
188.302208
31
0.0
0
LINE
8
VISIBLE
10
271.453690
20
188.302208
30
0.0
11
270.776413
21
185.774575
31
0.0
0
LINE
8
VISIBLE
10
270.776413
20
185.774575
30
0.0
11
270.473803
21
184.986250
31
0.0
0
LINE
8
VISIBLE
10
270.473803
20
184.986250
30
0.0
11
265.000000
21
184.986250
31
0.0
0
LINE
8
VISIBLE
10
265.000000
20
184.986250
30
0.0
11
265.000000
21
222.250000
31
0.0
0
LINE
8
VISIBLE
10
270.473803
20
184.986250
30
0.0
11
269.838636
21
183.331584
31
0.0
0
LINE
8
VISIBLE
10
269.838636
20
183.331584
30
0.0
11
268.650635
21
181.000000
31
0.0
0
LINE
8
VISIBLE
10
268.650635
20
181.000000
30
0.0
11
267.225425
21
178.805369
31
0.0
0
LINE
8
VISIBLE
10
267.225425
20
178.805369
30
0.0
11
265.578621
21
176.771735
31
0.0
0
LINE
8
VISIBLE
10
265.578621
20
176.771735
30
0.0
11
265.000000
21
176.193114
31
0.0
0
LINE
8
VISIBLE
10
265.000000
20
176.193114
30
0.0
11
265.000000
21
184.986250
31
0.0
0
LINE
8
VISIBLE
10
265.000000
20
176.193114
30
0.0
11
263.728265
21
174.921379
31
0.0
0
LINE
8
VISIBLE
10
263.728265
20
174.921379
30
0.0
11
261.694631
21
173.274575
31
0.0
0
LINE
8
VISIBLE
10
164.000000
20
184.986250
30
0.0
11
164.000000
21
222.250000
31
0.0
0
LINE
8
VISIBLE
10
164.000000
20
184.986250
30
0.0
11
158.526197
21
184.986250
31
0.0
0
LINE
8
VISIBLE
10
157.000000
20
193.500000
30
0.0
11
157.000000
21
222.250000
31
0.0
0
LINE
8
VISIBLE
10
265.000000
20
214.750000
30
0.0
11
259.954356
21
214.750000
31
0.0
0
LINE
8
VISIBLE
10
249.045644
20
214.750000
30
0.0
11
179.954356
21
214.750000
31
0.0
0
LINE
8
VISIBLE
10
169.045644
20
214.750000
30
0.0
11
164.000000
21
214.750000
31
0.0
0
LINE
8
VISIBLE
10
164.000000
20
176.193114
30
0.0
11
164.000000
21
184.986250
31
0.0
0
CIRCLE
8
VISIBLE
10
214.500000
20
174.750000
30
0.0
40
12.500000
0
CIRCLE
8
VISIBLE
10
214.500000
20
174.750000
30
0.0
40
6.750000
0
LINE
8
VISIBLE
10
257.050000
20
234.750000
30
0.0
11
255.026117
21
234.750000
31
0.0
0
LINE
8
VISIBLE
10
247.000000
20
234.750000
30
0.0
11
182.000000
21
234.750000
31
0.0
0
LINE
8
VISIBLE
10
171.950000
20
234.750000
30
0.0
11
173.973883
21
234.750000
31
0.0
0
LINE
8
VISIBLE
10
247.000000
20
234.750000
30
0.0
11
244.500000
21
234.750000
31
0.0
0
LINE
8
VISIBLE
10
182.000000
20
234.750000
30
0.0
11
184.500000
21
234.750000
31
0.0
0
LINE
8
VISIBLE
10
257.050000
20
234.750000
30
0.0
11
257.050000
21
241.751458
31
0.0
0
ARC
8
VISIBLE
10
259.500000
20
237.250000
30
0.0
40
5.125000
50
29.196404
51
90.000000
0
ARC
8
VISIBLE
10
259.500000
20
237.250000
30
0.0
40
5.125000
50
330.803596
51
29.196404
0
ARC
8
VISIBLE
10
259.500000
20
237.250000
30
0.0
40
5.125000
50
330.161234
51
330.803596
0
ARC
8
VISIBLE
10
259.500000
20
237.250000
30
0.0
40
5.125000
50
209.838766
51
330.161234
0
ARC
8
VISIBLE
10
259.500000
20
237.250000
30
0.0
40
5.125000
50
209.196404
51
209.838766
0
ARC
8
VISIBLE
10
259.500000
20
237.250000
30
0.0
40
5.125000
50
150.803596
51
209.196404
0
ARC
8
VISIBLE
10
259.500000
20
237.250000
30
0.0
40
5.125000
50
90.000000
51
150.803596
0
LINE
8
VISIBLE
10
247.000000
20
234.750000
30
0.0
11
247.000000
21
239.750000
31
0.0
0
LINE
8
VISIBLE
10
171.950000
20
234.750000
30
0.0
11
171.950000
21
241.751458
31
0.0
0
ARC
8
VISIBLE
10
169.500000
20
237.250000
30
0.0
40
5.125000
50
29.196404
51
90.000000
0
ARC
8
VISIBLE
10
169.500000
20
237.250000
30
0.0
40
5.125000
50
330.803596
51
29.196404
0
ARC
8
VISIBLE
10
169.500000
20
237.250000
30
0.0
40
5.125000
50
330.161234
51
330.803596
0
ARC
8
VISIBLE
10
169.500000
20
237.250000
30
0.0
40
5.125000
50
209.838766
51
330.161234
0
ARC
8
VISIBLE
10
169.500000
20
237.250000
30
0.0
40
5.125000
50
209.196404
51
209.838766
0
ARC
8
VISIBLE
10
169.500000
20
237.250000
30
0.0
40
5.125000
50
150.803596
51
209.196404
0
ARC
8
VISIBLE
10
169.500000
20
237.250000
30
0.0
40
5.125000
50
90.000000
51
150.803596
0
LINE
8
VISIBLE
10
182.000000
20
234.750000
30
0.0
11
182.000000
21
239.750000
31
0.0
0
LINE
8
VISIBLE
10
244.500000
20
234.750000
30
0.0
11
244.500000
21
237.250000
31
0.0
0
LINE
8
VISIBLE
10
244.500000
20
237.250000
30
0.0
11
244.500000
21
247.000000
31
0.0
0
LINE
8
VISIBLE
10
244.500000
20
247.000000
30
0.0
11
249.317294
21
247.000000
31
0.0
0
LINE
8
VISIBLE
10
254.375000
20
237.250000
30
0.0
11
257.050000
21
237.250000
31
0.0
0
LINE
8
VISIBLE
10
244.500000
20
237.250000
30
0.0
11
184.500000
21
237.250000
31
0.0
0
LINE
8
VISIBLE
10
184.500000
20
234.750000
30
0.0
11
184.500000
21
237.250000
31
0.0
0
LINE
8
VISIBLE
10
244.500000
20
247.000000
30
0.0
11
184.500000
21
247.000000
31
0.0
0
LINE
8
VISIBLE
10
184.500000
20
237.250000
30
0.0
11
184.500000
21
247.000000
31
0.0
0
LINE
8
VISIBLE
10
184.500000
20
247.000000
30
0.0
11
179.682706
21
247.000000
31
0.0
0
LINE
8
VISIBLE
10
174.625000
20
237.250000
30
0.0
11
171.950000
21
237.250000
31
0.0
0
LINE
8
VISIBLE
10
272.000000
20
222.250000
30
0.0
11
157.000000
21
222.250000
31
0.0
0
LINE
8
VISIBLE
10
157.000000
20
222.250000
30
0.0
11
157.000000
21
239.750000
31
0.0
0
ARC
8
VISIBLE
10
169.500000
20
239.750000
30
0.0
40
12.500000
50
90.000000
51
180.000000
0
ARC
8
VISIBLE
10
169.500000
20
239.750000
30
0.0
40
12.500000
50
0.000000
51
90.000000
0
ARC
8
VISIBLE
10
259.500000
20
239.750000
30
0.0
40
12.500000
50
90.000000
51
180.000000
0
ARC
8
VISIBLE
10
259.500000
20
239.750000
30
0.0
40
12.500000
50
0.000000
51
90.000000
0
LINE
8
VISIBLE
10
174.500000
20
237.250000
30
0.0
11
174.500000
21
238.375000
31
0.0
0
LINE
8
VISIBLE
10
254.500000
20
237.250000
30
0.0
11
254.500000
21
238.375000
31
0.0
0
ARC
8
VISIBLE
10
174.500000
20
212.250000
30
0.0
40
6.000000
50
24.624318
51
155.375682
0
ARC
8
VISIBLE
10
259.500000
20
237.250000
30
0.0
40
5.125000
50
209.196404
51
90.000000
0
LINE
8
HIDDEN
10
157.000000
20
224.750000
30
0.0
11
157.000000
21
234.750000
31
0.0
0
LINE
8
HIDDEN
10
157.000000
20
234.750000
30
0.0
11
272.000000
21
234.750000
31
0.0
0
LINE
8
HIDDEN
10
272.000000
20
224.750000
30
0.0
11
272.000000
21
234.750000
31
0.0
0
LINE
8
HIDDEN
10
272.000000
20
224.750000
30
0.0
11
157.000000
21
224.750000
31
0.0
0
LINE
8
HIDDEN
10
272.000000
20
193.500000
30
0.0
11
272.000000
21
224.750000
31
0.0
0
LINE
8
HIDDEN
10
272.000000
20
234.750000
30
0.0
11
272.000000
21
239.750000
31
0.0
0
CIRCLE
8
HIDDEN
10
174.500000
20
212.250000
30
0.0
40
12.100000
0
CIRCLE
8
HIDDEN
10
174.500000
20
212.250000
30
0.0
40
6.000000
0
CIRCLE
8
HIDDEN
10
254.500000
20
212.250000
30
0.0
40
12.100000
0
CIRCLE
8
HIDDEN
10
254.500000
20
212.250000
30
0.0
40
6.000000
0
LINE
8
HIDDEN
10
159.161364
20
183.331584
30
0.0
11
158.223587
21
185.774575
31
0.0
0
LINE
8
HIDDEN
10
165.271735
20
174.921379
30
0.0
11
163.421379
21
176.771735
31
0.0
0
LINE
8
HIDDEN
10
272.000000
20
222.250000
30
0.0
11
265.000000
21
222.250000
31
0.0
0
LINE
8
HIDDEN
10
270.776413
20
185.774575
30
0.0
11
269.838636
21
183.331584
31
0.0
0
LINE
8
HIDDEN
10
265.000000
20
214.750000
30
0.0
11
265.000000
21
222.250000
31
0.0
0
LINE
8
HIDDEN
10
265.000000
20
176.193114
30
0.0
11
265.000000
21
214.750000
31
0.0
0
LINE
8
HIDDEN
10
265.578621
20
176.771735
30
0.0
11
263.728265
21
174.921379
31
0.0
0
LINE
8
HIDDEN
10
164.000000
20
222.250000
30
0.0
11
157.000000
21
222.250000
31
0.0
0
LINE
8
HIDDEN
10
164.000000
20
214.750000
30
0.0
11
164.000000
21
222.250000
31
0.0
0
LINE
8
HIDDEN
10
164.000000
20
222.250000
30
0.0
11
265.000000
21
222.250000
31
0.0
0
LINE
8
HIDDEN
10
164.000000
20
176.193114
30
0.0
11
164.000000
21
214.750000
31
0.0
0
CIRCLE
8
HIDDEN
10
214.500000
20
174.750000
30
0.0
40
13.750000
0
CIRCLE
8
HIDDEN
10
214.500000
20
174.750000
30
0.0
40
13.750000
0
LINE
8
HIDDEN
10
267.450000
20
234.750000
30
0.0
11
272.000000
21
234.750000
31
0.0
0
LINE
8
HIDDEN
10
267.450000
20
249.396113
30
0.0
11
270.805419
21
245.082682
31
0.0
0
LINE
8
HIDDEN
10
270.805419
20
245.082682
30
0.0
11
272.000000
21
239.750000
31
0.0
0
LINE
8
HIDDEN
10
267.450000
20
234.750000
30
0.0
11
267.450000
21
249.396113
31
0.0
0
LINE
8
HIDDEN
10
265.700000
20
234.750000
30
0.0
11
267.450000
21
234.750000
31
0.0
0
LINE
8
HIDDEN
10
265.700000
20
250.604032
30
0.0
11
267.450000
21
249.396113
31
0.0
0
LINE
8
HIDDEN
10
265.700000
20
234.750000
30
0.0
11
265.700000
21
250.604032
31
0.0
0
LINE
8
HIDDEN
10
263.450000
20
234.750000
30
0.0
11
265.700000
21
234.750000
31
0.0
0
LINE
8
HIDDEN
10
263.450000
20
251.609490
30
0.0
11
265.700000
21
250.604032
31
0.0
0
LINE
8
HIDDEN
10
263.450000
20
234.750000
30
0.0
11
263.450000
21
251.609490
31
0.0
0
LINE
8
HIDDEN
10
260.250000
20
234.750000
30
0.0
11
263.450000
21
234.750000
31
0.0
0
LINE
8
HIDDEN
10
259.350000
20
234.750000
30
0.0
11
260.250000
21
234.750000
31
0.0
0
LINE
8
HIDDEN
10
257.050000
20
234.750000
30
0.0
11
259.350000
21
234.750000
31
0.0
0
LINE
8
HIDDEN
10
254.000000
20
234.750000
30
0.0
11
255.026117
21
234.750000
31
0.0
0
LINE
8
HIDDEN
10
252.700000
20
234.750000
30
0.0
11
254.000000
21
234.750000
31
0.0
0
LINE
8
HIDDEN
10
251.400000
20
234.750000
30
0.0
11
252.700000
21
234.750000
31
0.0
0
LINE
8
HIDDEN
10
249.850000
20
234.750000
30
0.0
11
251.400000
21
234.750000
31
0.0
0
LINE
8
HIDDEN
10
248.350000
20
234.750000
30
0.0
11
249.850000
21
234.750000
31
0.0
0
LINE
8
HIDDEN
10
247.250000
20
234.750000
30
0.0
11
248.350000
21
234.750000
31
0.0
0
LINE
8
HIDDEN
10
247.000000
20
234.750000
30
0.0
11
247.250000
21
234.750000
31
0.0
0
LINE
8
HIDDEN
10
182.000000
20
234.750000
30
0.0
11
181.750000
21
234.750000
31
0.0
0
LINE
8
HIDDEN
10
181.750000
20
234.750000
30
0.0
11
180.650000
21
234.750000
31
0.0
0
LINE
8
HIDDEN
10
180.650000
20
234.750000
30
0.0
11
179.150000
21
234.750000
31
0.0
0
LINE
8
HIDDEN
10
179.150000
20
234.750000
30
0.0
11
177.600000
21
234.750000
31
0.0
0
LINE
8
HIDDEN
10
177.600000
20
234.750000
30
0.0
11
176.300000
21
234.750000
31
0.0
0
LINE
8
HIDDEN
10
176.300000
20
234.750000
30
0.0
11
175.000000
21
234.750000
31
0.0
0
LINE
8
HIDDEN
10
175.000000
20
234.750000
30
0.0
11
173.973883
21
234.750000
31
0.0
0
LINE
8
HIDDEN
10
171.950000
20
234.750000
30
0.0
11
169.650000
21
234.750000
31
0.0
0
LINE
8
HIDDEN
10
169.650000
20
234.750000
30
0.0
11
168.750000
21
234.750000
31
0.0
0
LINE
8
HIDDEN
10
168.750000
20
234.750000
30
0.0
11
165.550000
21
234.750000
31
0.0
0
LINE
8
HIDDEN
10
165.550000
20
234.750000
30
0.0
11
163.300000
21
234.750000
31
0.0
0
LINE
8
HIDDEN
10
163.300000
20
234.750000
30
0.0
11
161.550000
21
234.750000
31
0.0
0
LINE
8
HIDDEN
10
161.550000
20
234.750000
30
0.0
11
157.000000
21
234.750000
31
0.0
0
LINE
8
HIDDEN
10
260.935439
20
234.750000
30
0.0
11
247.000000
21
234.750000
31
0.0
0
LINE
8
HIDDEN
10
167.000000
20
234.750000
30
0.0
11
262.000000
21
234.750000
31
0.0
0
LINE
8
HIDDEN
10
262.000000
20
234.750000
30
0.0
11
260.935439
21
234.750000
31
0.0
0
LINE
8
HIDDEN
10
168.064561
20
234.750000
30
0.0
11
167.000000
21
234.750000
31
0.0
0
LINE
8
HIDDEN
10
168.064561
20
234.750000
30
0.0
11
182.000000
21
234.750000
31
0.0
0
LINE
8
HIDDEN
10
244.500000
20
234.750000
30
0.0
11
184.500000
21
234.750000
31
0.0
0
LINE
8
HIDDEN
10
260.250000
20
234.750000
30
0.0
11
260.250000
21
252.227480
31
0.0
0
LINE
8
HIDDEN
10
259.500000
20
252.250000
30
0.0
11
260.250000
21
252.227480
31
0.0
0
LINE
8
HIDDEN
10
259.350000
20
252.249100
30
0.0
11
259.500000
21
252.250000
31
0.0
0
LINE
8
HIDDEN
10
259.350000
20
234.750000
30
0.0
11
259.350000
21
252.249100
31
0.0
0
LINE
8
HIDDEN
10
257.050000
20
252.007549
30
0.0
11
259.350000
21
252.249100
31
0.0
0
LINE
8
HIDDEN
10
257.050000
20
241.751458
30
0.0
11
257.050000
21
252.007549
31
0.0
0
ARC
8
HIDDEN
10
259.500000
20
237.250000
30
0.0
40
5.125000
50
90.000000
51
118.558042
0
LINE
8
HIDDEN
10
255.026117
20
234.750000
30
0.0
11
254.576572
21
238.673195
31
0.0
0
LINE
8
HIDDEN
10
254.576572
20
238.673195
30
0.0
11
257.050000
21
241.751458
31
0.0
0
LINE
8
HIDDEN
10
254.000000
20
250.974972
30
0.0
11
257.050000
21
252.007549
31
0.0
0
LINE
8
HIDDEN
10
254.000000
20
234.750000
30
0.0
11
254.000000
21
250.974972
31
0.0
0
LINE
8
HIDDEN
10
252.700000
20
250.238565
30
0.0
11
254.000000
21
250.974972
31
0.0
0
LINE
8
HIDDEN
10
252.700000
20
234.750000
30
0.0
11
252.700000
21
250.238565
31
0.0
0
LINE
8
HIDDEN
10
251.400000
20
249.270504
30
0.0
11
252.700000
21
250.238565
31
0.0
0
LINE
8
HIDDEN
10
251.400000
20
234.750000
30
0.0
11
251.400000
21
249.270504
31
0.0
0
LINE
8
HIDDEN
10
249.850000
20
247.695282
30
0.0
11
251.400000
21
249.270504
31
0.0
0
LINE
8
HIDDEN
10
249.850000
20
234.750000
30
0.0
11
249.850000
21
247.695282
31
0.0
0
LINE
8
HIDDEN
10
248.350000
20
245.400442
30
0.0
11
249.850000
21
247.695282
31
0.0
0
LINE
8
HIDDEN
10
248.350000
20
234.750000
30
0.0
11
248.350000
21
245.400442
31
0.0
0
LINE
8
HIDDEN
10
247.250000
20
242.237469
30
0.0
11
248.350000
21
245.400442
31
0.0
0
LINE
8
HIDDEN
10
247.250000
20
234.750000
30
0.0
11
247.250000
21
242.237469
31
0.0
0
LINE
8
HIDDEN
10
247.000000
20
239.750000
30
0.0
11
247.250000
21
242.237469
31
0.0
0
LINE
8
HIDDEN
10
168.750000
20
234.750000
30
0.0
11
168.750000
21
252.227480
31
0.0
0
LINE
8
HIDDEN
10
169.500000
20
252.250000
30
0.0
11
168.750000
21
252.227480
31
0.0
0
LINE
8
HIDDEN
10
169.650000
20
252.249100
30
0.0
11
169.500000
21
252.250000
31
0.0
0
LINE
8
HIDDEN
10
169.650000
20
234.750000
30
0.0
11
169.650000
21
252.249100
31
0.0
0
LINE
8
HIDDEN
10
171.950000
20
252.007549
30
0.0
11
169.650000
21
252.249100
31
0.0
0
LINE
8
HIDDEN
10
171.950000
20
241.751458
30
0.0
11
171.950000
21
252.007549
31
0.0
0
LINE
8
HIDDEN
10
175.000000
20
250.974972
30
0.0
11
171.950000
21
252.007549
31
0.0
0
LINE
8
HIDDEN
10
175.000000
20
234.750000
30
0.0
11
175.000000
21
250.974972
31
0.0
0
LINE
8
HIDDEN
10
176.300000
20
250.238565
30
0.0
11
175.000000
21
250.974972
31
0.0
0
LINE
8
HIDDEN
10
176.300000
20
234.750000
30
0.0
11
176.300000
21
250.238565
31
0.0
0
LINE
8
HIDDEN
10
177.600000
20
249.270504
30
0.0
11
176.300000
21
250.238565
31
0.0
0
LINE
8
HIDDEN
10
177.600000
20
234.750000
30
0.0
11
177.600000
21
249.270504
31
0.0
0
LINE
8
HIDDEN
10
179.150000
20
247.695282
30
0.0
11
177.600000
21
249.270504
31
0.0
0
LINE
8
HIDDEN
10
179.150000
20
234.750000
30
0.0
11
179.150000
21
247.695282
31
0.0
0
LINE
8
HIDDEN
10
180.650000
20
245.400442
30
0.0
11
179.150000
21
247.695282
31
0.0
0
LINE
8
HIDDEN
10
180.650000
20
234.750000
30
0.0
11
180.650000
21
245.400442
31
0.0
0
LINE
8
HIDDEN
10
181.750000
20
242.237469
30
0.0
11
180.650000
21
245.400442
31
0.0
0
LINE
8
HIDDEN
10
181.750000
20
234.750000
30
0.0
11
181.750000
21
242.237469
31
0.0
0
LINE
8
HIDDEN
10
182.000000
20
239.750000
30
0.0
11
181.750000
21
242.237469
31
0.0
0
LINE
8
HIDDEN
10
157.000000
20
234.750000
30
0.0
11
157.000000
21
239.750000
31
0.0
0
LINE
8
HIDDEN
10
161.550000
20
249.396113
30
0.0
11
158.194581
21
245.082682
31
0.0
0
LINE
8
HIDDEN
10
158.194581
20
245.082682
30
0.0
11
157.000000
21
239.750000
31
0.0
0
LINE
8
HIDDEN
10
161.550000
20
234.750000
30
0.0
11
161.550000
21
249.396113
31
0.0
0
LINE
8
HIDDEN
10
163.300000
20
250.604032
30
0.0
11
161.550000
21
249.396113
31
0.0
0
LINE
8
HIDDEN
10
163.300000
20
234.750000
30
0.0
11
163.300000
21
250.604032
31
0.0
0
LINE
8
HIDDEN
10
165.550000
20
251.609490
30
0.0
11
163.300000
21
250.604032
31
0.0
0
LINE
8
HIDDEN
10
165.550000
20
234.750000
30
0.0
11
165.550000
21
251.609490
31
0.0
0
LINE
8
HIDDEN
10
203.500000
20
222.250000
30
0.0
11
203.500000
21
232.250000
31
0.0
0
LINE
8
HIDDEN
10
225.212143
20
222.250000
30
0.0
11
225.500000
21
222.250000
31
0.0
0
LINE
8
HIDDEN
10
225.500000
20
222.250000
30
0.0
11
203.500000
21
222.250000
31
0.0
0
LINE
8
HIDDEN
10
224.297959
20
222.250000
30
0.0
11
225.212143
21
222.250000
31
0.0
0
LINE
8
HIDDEN
10
204.702041
20
222.250000
30
0.0
11
224.297959
21
222.250000
31
0.0
0
LINE
8
HIDDEN
10
203.787857
20
222.250000
30
0.0
11
204.702041
21
222.250000
31
0.0
0
LINE
8
HIDDEN
10
203.500000
20
222.250000
30
0.0
11
203.787857
21
222.250000
31
0.0
0
LINE
8
HIDDEN
10
203.500000
20
232.250000
30
0.0
11
225.500000
21
232.250000
31
0.0
0
LINE
8
HIDDEN
10
225.500000
20
232.250000
30
0.0
11
203.500000
21
232.250000
31
0.0
0
LINE
8
HIDDEN
10
209.000000
20
232.250000
30
0.0
11
220.000000
21
232.250000
31
0.0
0
LINE
8
HIDDEN
10
220.000000
20
232.250000
30
0.0
11
209.000000
21
232.250000
31
0.0
0
LINE
8
HIDDEN
10
244.500000
20
234.750000
30
0.0
11
244.500000
21
247.000000
31
0.0
0
LINE
8
HIDDEN
10
249.317294
20
247.000000
30
0.0
11
253.229833
21
247.000000
31
0.0
0
LINE
8
HIDDEN
10
253.229833
20
237.250000
30
0.0
11
253.229833
21
247.000000
31
0.0
0
LINE
8
HIDDEN
10
253.229833
20
237.250000
30
0.0
11
254.375000
21
237.250000
31
0.0
0
LINE
8
HIDDEN
10
257.050000
20
237.250000
30
0.0
11
260.935439
21
237.250000
31
0.0
0
LINE
8
HIDDEN
10
260.935439
20
234.750000
30
0.0
11
260.935439
21
237.250000
31
0.0
0
LINE
8
HIDDEN
10
174.500000
20
247.000000
30
0.0
11
254.500000
21
247.000000
31
0.0
0
LINE
8
HIDDEN
10
254.500000
20
247.000000
30
0.0
11
253.229833
21
247.000000
31
0.0
0
LINE
8
HIDDEN
10
175.770167
20
247.000000
30
0.0
11
174.500000
21
247.000000
31
0.0
0
LINE
8
HIDDEN
10
179.682706
20
247.000000
30
0.0
11
175.770167
21
247.000000
31
0.0
0
LINE
8
HIDDEN
10
209.000000
20
247.000000
30
0.0
11
220.000000
21
247.000000
31
0.0
0
LINE
8
HIDDEN
10
220.000000
20
247.000000
30
0.0
11
209.000000
21
247.000000
31
0.0
0
LINE
8
HIDDEN
10
239.000000
20
247.000000
30
0.0
11
250.000000
21
247.000000
31
0.0
0
LINE
8
HIDDEN
10
250.000000
20
247.000000
30
0.0
11
239.000000
21
247.000000
31
0.0
0
LINE
8
HIDDEN
10
179.000000
20
247.000000
30
0.0
11
190.000000
21
247.000000
31
0.0
0
LINE
8
HIDDEN
10
190.000000
20
247.000000
30
0.0
11
179.000000
21
247.000000
31
0.0
0
LINE
8
HIDDEN
10
209.000000
20
247.000000
30
0.0
11
220.000000
21
247.000000
31
0.0
0
LINE
8
HIDDEN
10
220.000000
20
247.000000
30
0.0
11
209.000000
21
247.000000
31
0.0
0
LINE
8
HIDDEN
10
175.770167
20
237.250000
30
0.0
11
174.625000
21
237.250000
31
0.0
0
LINE
8
HIDDEN
10
171.950000
20
237.250000
30
0.0
11
168.064561
21
237.250000
31
0.0
0
LINE
8
HIDDEN
10
175.770167
20
237.250000
30
0.0
11
174.500000
21
237.250000
31
0.0
0
LINE
8
HIDDEN
10
174.500000
20
237.250000
30
0.0
11
254.500000
21
237.250000
31
0.0
0
LINE
8
HIDDEN
10
254.500000
20
237.250000
30
0.0
11
253.229833
21
237.250000
31
0.0
0
LINE
8
HIDDEN
10
167.000000
20
237.250000
30
0.0
11
262.000000
21
237.250000
31
0.0
0
LINE
8
HIDDEN
10
262.000000
20
237.250000
30
0.0
11
260.935439
21
237.250000
31
0.0
0
LINE
8
HIDDEN
10
168.064561
20
237.250000
30
0.0
11
167.000000
21
237.250000
31
0.0
0
LINE
8
HIDDEN
10
184.500000
20
234.750000
30
0.0
11
184.500000
21
247.000000
31
0.0
0
LINE
8
HIDDEN
10
175.770167
20
237.250000
30
0.0
11
175.770167
21
247.000000
31
0.0
0
LINE
8
HIDDEN
10
168.064561
20
234.750000
30
0.0
11
168.064561
21
237.250000
31
0.0
0
LINE
8
HIDDEN
10
209.000000
20
232.250000
30
0.0
11
209.000000
21
247.000000
31
0.0
0
LINE
8
HIDDEN
10
239.000000
20
232.250000
30
0.0
11
239.000000
21
247.000000
31
0.0
0
LINE
8
HIDDEN
10
239.000000
20
232.250000
30
0.0
11
250.000000
21
232.250000
31
0.0
0
LINE
8
HIDDEN
10
250.000000
20
232.250000
30
0.0
11
239.000000
21
232.250000
31
0.0
0
LINE
8
HIDDEN
10
179.000000
20
232.250000
30
0.0
11
179.000000
21
247.000000
31
0.0
0
LINE
8
HIDDEN
10
179.000000
20
232.250000
30
0.0
11
190.000000
21
232.250000
31
0.0
0
LINE
8
HIDDEN
10
190.000000
20
232.250000
30
0.0
11
179.000000
21
232.250000
31
0.0
0
LINE
8
HIDDEN
10
209.000000
20
232.250000
30
0.0
11
209.000000
21
247.000000
31
0.0
0
LINE
8
HIDDEN
10
209.000000
20
232.250000
30
0.0
11
220.000000
21
232.250000
31
0.0
0
LINE
8
HIDDEN
10
220.000000
20
232.250000
30
0.0
11
209.000000
21
232.250000
31
0.0
0
LINE
8
HIDDEN
10
233.500000
20
232.250000
30
0.0
11
255.500000
21
232.250000
31
0.0
0
LINE
8
HIDDEN
10
255.500000
20
232.250000
30
0.0
11
233.500000
21
232.250000
31
0.0
0
LINE
8
HIDDEN
10
173.500000
20
232.250000
30
0.0
11
195.500000
21
232.250000
31
0.0
0
LINE
8
HIDDEN
10
195.500000
20
232.250000
30
0.0
11
173.500000
21
232.250000
31
0.0
0
LINE
8
HIDDEN
10
203.500000
20
232.250000
30
0.0
11
225.500000
21
232.250000
31
0.0
0
LINE
8
HIDDEN
10
225.500000
20
232.250000
30
0.0
11
203.500000
21
232.250000
31
0.0
0
LINE
8
HIDDEN
10
233.500000
20
222.250000
30
0.0
11
233.500000
21
232.250000
31
0.0
0
LINE
8
HIDDEN
10
233.500000
20
222.250000
30
0.0
11
255.500000
21
222.250000
31
0.0
0
LINE
8
HIDDEN
10
255.500000
20
222.250000
30
0.0
11
233.500000
21
222.250000
31
0.0
0
LINE
8
HIDDEN
10
173.500000
20
222.250000
30
0.0
11
173.500000
21
232.250000
31
0.0
0
LINE
8
HIDDEN
10
173.500000
20
222.250000
30
0.0
11
195.500000
21
222.250000
31
0.0
0
LINE
8
HIDDEN
10
195.500000
20
222.250000
30
0.0
11
173.500000
21
222.250000
31
0.0
0
LINE
8
HIDDEN
10
203.500000
20
222.250000
30
0.0
11
203.500000
21
232.250000
31
0.0
0
LINE
8
HIDDEN
10
203.500000
20
222.250000
30
0.0
11
225.500000
21
222.250000
31
0.0
0
LINE
8
HIDDEN
10
225.500000
20
222.250000
30
0.0
11
203.500000
21
222.250000
31
0.0
0
LINE
8
HIDDEN
10
261.850000
20
252.027113
30
0.0
11
263.450000
21
251.609490
31
0.0
0
LINE
8
HIDDEN
10
260.250000
20
252.227480
30
0.0
11
261.850000
21
252.027113
31
0.0
0
LINE
8
HIDDEN
10
157.000000
20
193.500000
30
0.0
11
157.000000
21
224.750000
31
0.0
0
LINE
8
HIDDEN
10
168.750000
20
252.227480
30
0.0
11
167.150000
21
252.027113
31
0.0
0
LINE
8
HIDDEN
10
167.150000
20
252.027113
30
0.0
11
165.550000
21
251.609490
31
0.0
0
LINE
8
HIDDEN
10
225.500000
20
222.250000
30
0.0
11
225.500000
21
232.250000
31
0.0
0
LINE
8
HIDDEN
10
220.000000
20
232.250000
30
0.0
11
220.000000
21
247.000000
31
0.0
0
LINE
8
HIDDEN
10
250.000000
20
232.250000
30
0.0
11
250.000000
21
247.000000
31
0.0
0
LINE
8
HIDDEN
10
190.000000
20
232.250000
30
0.0
11
190.000000
21
247.000000
31
0.0
0
LINE
8
HIDDEN
10
220.000000
20
232.250000
30
0.0
11
220.000000
21
247.000000
31
0.0
0
LINE
8
HIDDEN
10
255.500000
20
222.250000
30
0.0
11
255.500000
21
232.250000
31
0.0
0
LINE
8
HIDDEN
10
195.500000
20
222.250000
30
0.0
11
195.500000
21
232.250000
31
0.0
0
LINE
8
HIDDEN
10
225.500000
20
222.250000
30
0.0
11
225.500000
21
232.250000
31
0.0
0
LINE
8
HIDDEN
10
167.000000
20
234.750000
30
0.0
11
167.000000
21
237.250000
31
0.0
0
LINE
8
HIDDEN
10
262.000000
20
234.750000
30
0.0
11
262.000000
21
237.250000
31
0.0
0
LINE
8
HIDDEN
10
174.500000
20
238.375000
30
0.0
11
174.500000
21
247.000000
31
0.0
0
LINE
8
HIDDEN
10
254.500000
20
238.375000
30
0.0
11
254.500000
21
247.000000
31
0.0
0
CIRCLE
8
HIDDEN
10
174.500000
20
212.250000
30
0.0
40
12.100000
0
CIRCLE
8
HIDDEN
10
254.500000
20
212.250000
30
0.0
40
12.100000
0
CIRCLE
8
HIDDEN
10
169.500000
20
237.250000
30
0.0
40
5.125000
0
LINE
8
VISIBLE
10
157.000000
20
401.721319
30
0.0
11
157.000000
21
444.250000
31
0.0
0
LINE
8
VISIBLE
10
157.000000
20
346.750000
30
0.0
11
157.000000
21
401.721319
31
0.0
0
LINE
8
VISIBLE
10
157.000000
20
315.250000
30
0.0
11
157.000000
21
346.750000
31
0.0
0
LINE
8
VISIBLE
10
249.045644
20
424.250000
30
0.0
11
254.500000
21
424.250000
31
0.0
0
LINE
8
VISIBLE
10
249.045644
20
424.250000
30
0.0
11
249.045644
21
429.250000
31
0.0
0
LINE
8
VISIBLE
10
259.954356
20
424.250000
30
0.0
11
259.954356
21
429.250000
31
0.0
0
LINE
8
VISIBLE
10
254.500000
20
424.250000
30
0.0
11
259.954356
21
424.250000
31
0.0
0
LINE
8
VISIBLE
10
169.045644
20
424.250000
30
0.0
11
174.500000
21
424.250000
31
0.0
0
LINE
8
VISIBLE
10
169.045644
20
424.250000
30
0.0
11
169.045644
21
429.250000
31
0.0
0
LINE
8
VISIBLE
10
179.954356
20
424.250000
30
0.0
11
179.954356
21
429.250000
31
0.0
0
LINE
8
VISIBLE
10
174.500000
20
424.250000
30
0.0
11
179.954356
21
424.250000
31
0.0
0
LINE
8
VISIBLE
10
271.863047
20
406.717900
30
0.0
11
272.000000
21
401.721319
31
0.0
0
LINE
8
VISIBLE
10
272.000000
20
401.721319
30
0.0
11
272.000000
21
444.250000
31
0.0
0
LINE
8
VISIBLE
10
271.863047
20
444.250000
30
0.0
11
272.000000
21
444.250000
31
0.0
0
LINE
8
VISIBLE
10
271.863047
20
406.717900
30
0.0
11
271.863047
21
444.250000
31
0.0
0
LINE
8
VISIBLE
10
271.453690
20
411.659737
30
0.0
11
271.863047
21
406.717900
31
0.0
0
LINE
8
VISIBLE
10
271.453690
20
444.250000
30
0.0
11
271.863047
21
444.250000
31
0.0
0
LINE
8
VISIBLE
10
271.453690
20
411.659737
30
0.0
11
271.453690
21
444.250000
31
0.0
0
LINE
8
VISIBLE
10
270.776413
20
416.492686
30
0.0
11
271.453690
21
411.659737
31
0.0
0
LINE
8
VISIBLE
10
270.776413
20
444.250000
30
0.0
11
271.453690
21
444.250000
31
0.0
0
LINE
8
VISIBLE
10
270.776413
20
416.492686
30
0.0
11
270.776413
21
444.250000
31
0.0
0
LINE
8
VISIBLE
10
269.838636
20
418.000000
30
0.0
11
270.473803
21
418.000000
31
0.0
0
LINE
8
VISIBLE
10
270.473803
20
418.000000
30
0.0
11
270.776413
21
416.492686
31
0.0
0
LINE
8
VISIBLE
10
269.838636
20
444.250000
30
0.0
11
270.776413
21
444.250000
31
0.0
0
LINE
8
VISIBLE
10
269.838636
20
418.000000
30
0.0
11
269.838636
21
444.250000
31
0.0
0
LINE
8
VISIBLE
10
268.650635
20
418.000000
30
0.0
11
269.838636
21
418.000000
31
0.0
0
LINE
8
VISIBLE
10
268.650635
20
444.250000
30
0.0
11
269.838636
21
444.250000
31
0.0
0
LINE
8
VISIBLE
10
268.650635
20
418.000000
30
0.0
11
268.650635
21
444.250000
31
0.0
0
LINE
8
VISIBLE
10
267.225425
20
418.000000
30
0.0
11
268.650635
21
418.000000
31
0.0
0
LINE
8
VISIBLE
10
267.225425
20
444.250000
30
0.0
11
268.650635
21
444.250000
31
0.0
0
LINE
8
VISIBLE
10
267.225425
20
418.000000
30
0.0
11
267.225425
21
444.250000
31
0.0
0
LINE
8
VISIBLE
10
265.578621
20
418.000000
30
0.0
11
267.225425
21
418.000000
31
0.0
0
LINE
8
VISIBLE
10
265.578621
20
444.250000
30
0.0
11
267.225425
21
444.250000
31
0.0
0
LINE
8
VISIBLE
10
265.578621
20
418.000000
30
0.0
11
265.578621
21
444.250000
31
0.0
0
LINE
8
VISIBLE
10
263.728265
20
429.250000
30
0.0
11
265.000000
21
429.250000
31
0.0
0
LINE
8
VISIBLE
10
265.000000
20
429.250000
30
0.0
11
265.000000
21
418.000000
31
0.0
0
LINE
8
VISIBLE
10
265.000000
20
418.000000
30
0.0
11
265.578621
21
418.000000
31
0.0
0
LINE
8
VISIBLE
10
263.728265
20
444.250000
30
0.0
11
265.578621
21
444.250000
31
0.0
0
LINE
8
VISIBLE
10
263.728265
20
429.250000
30
0.0
11
263.728265
21
444.250000
31
0.0
0
LINE
8
VISIBLE
10
261.694631
20
429.250000
30
0.0
11
263.728265
21
429.250000
31
0.0
0
LINE
8
VISIBLE
10
261.694631
20
444.250000
30
0.0
11
263.728265
21
444.250000
31
0.0
0
LINE
8
VISIBLE
10
261.694631
20
429.250000
30
0.0
11
261.694631
21
444.250000
31
0.0
0
LINE
8
VISIBLE
10
259.500000
20
429.250000
30
0.0
11
261.694631
21
429.250000
31
0.0
0
LINE
8
VISIBLE
10
259.500000
20
444.250000
30
0.0
11
261.694631
21
444.250000
31
0.0
0
LINE
8
VISIBLE
10
259.500000
20
429.250000
30
0.0
11
259.500000
21
444.250000
31
0.0
0
LINE
8
VISIBLE
10
227.000000
20
429.250000
30
0.0
11
259.500000
21
429.250000
31
0.0
0
LINE
8
VISIBLE
10
227.000000
20
444.250000
30
0.0
11
259.500000
21
444.250000
31
0.0
0
LINE
8
VISIBLE
10
227.000000
20
429.250000
30
0.0
11
227.000000
21
444.250000
31
0.0
0
LINE
8
VISIBLE
10
224.668416
20
429.250000
30
0.0
11
227.000000
21
429.250000
31
0.0
0
LINE
8
VISIBLE
10
224.668416
20
444.250000
30
0.0
11
227.000000
21
444.250000
31
0.0
0
LINE
8
VISIBLE
10
224.668416
20
429.250000
30
0.0
11
224.668416
21
444.250000
31
0.0
0
LINE
8
VISIBLE
10
222.225425
20
429.250000
30
0.0
11
224.668416
21
429.250000
31
0.0
0
LINE
8
VISIBLE
10
222.225425
20
444.250000
30
0.0
11
224.668416
21
444.250000
31
0.0
0
LINE
8
VISIBLE
10
222.225425
20
429.250000
30
0.0
11
222.225425
21
444.250000
31
0.0
0
LINE
8
VISIBLE
10
219.697792
20
429.250000
30
0.0
11
222.225425
21
429.250000
31
0.0
0
LINE
8
VISIBLE
10
219.697792
20
444.250000
30
0.0
11
222.225425
21
444.250000
31
0.0
0
LINE
8
VISIBLE
10
219.697792
20
429.250000
30
0.0
11
219.697792
21
444.250000
31
0.0
0
LINE
8
VISIBLE
10
217.113212
20
429.250000
30
0.0
11
219.697792
21
429.250000
31
0.0
0
LINE
8
VISIBLE
10
217.113212
20
444.250000
30
0.0
11
219.697792
21
444.250000
31
0.0
0
LINE
8
VISIBLE
10
217.113212
20
429.250000
30
0.0
11
217.113212
21
444.250000
31
0.0
0
LINE
8
VISIBLE
10
214.500000
20
429.250000
30
0.0
11
217.113212
21
429.250000
31
0.0
0
LINE
8
VISIBLE
10
214.500000
20
444.250000
30
0.0
11
217.113212
21
444.250000
31
0.0
0
LINE
8
VISIBLE
10
214.500000
20
429.250000
30
0.0
11
214.500000
21
444.250000
31
0.0
0
LINE
8
VISIBLE
10
211.886788
20
429.250000
30
0.0
11
214.500000
21
429.250000
31
0.0
0
LINE
8
VISIBLE
10
211.886788
20
444.250000
30
0.0
11
214.500000
21
444.250000
31
0.0
0
LINE
8
VISIBLE
10
211.886788
20
429.250000
30
0.0
11
211.886788
21
444.250000
31
0.0
0
LINE
8
VISIBLE
10
209.302208
20
429.250000
30
0.0
11
211.886788
21
429.250000
31
0.0
0
LINE
8
VISIBLE
10
209.302208
20
444.250000
30
0.0
11
211.886788
21
444.250000
31
0.0
0
LINE
8
VISIBLE
10
209.302208
20
429.250000
30
0.0
11
209.302208
21
444.250000
31
0.0
0
LINE
8
VISIBLE
10
206.774575
20
429.250000
30
0.0
11
209.302208
21
429.250000
31
0.0
0
LINE
8
VISIBLE
10
206.774575
20
444.250000
30
0.0
11
209.302208
21
444.250000
31
0.0
0
LINE
8
VISIBLE
10
206.774575
20
429.250000
30
0.0
11
206.774575
21
444.250000
31
0.0
0
LINE
8
VISIBLE
10
204.331584
20
429.250000
30
0.0
11
206.774575
21
429.250000
31
0.0
0
LINE
8
VISIBLE
10
204.331584
20
444.250000
30
0.0
11
206.774575
21
444.250000
31
0.0
0
LINE
8
VISIBLE
10
204.331584
20
429.250000
30
0.0
11
204.331584
21
444.250000
31
0.0
0
LINE
8
VISIBLE
10
202.000000
20
429.250000
30
0.0
11
204.331584
21
429.250000
31
0.0
0
LINE
8
VISIBLE
10
202.000000
20
444.250000
30
0.0
11
204.331584
21
444.250000
31
0.0
0
LINE
8
VISIBLE
10
202.000000
20
429.250000
30
0.0
11
202.000000
21
444.250000
31
0.0
0
LINE
8
VISIBLE
10
169.500000
20
429.250000
30
0.0
11
202.000000
21
429.250000
31
0.0
0
LINE
8
VISIBLE
10
169.500000
20
444.250000
30
0.0
11
202.000000
21
444.250000
31
0.0
0
LINE
8
VISIBLE
10
169.500000
20
429.250000
30
0.0
11
169.500000
21
444.250000
31
0.0
0
LINE
8
VISIBLE
10
167.305369
20
429.250000
30
0.0
11
169.500000
21
429.250000
31
0.0
0
LINE
8
VISIBLE
10
167.305369
20
444.250000
30
0.0
11
169.500000
21
444.250000
31
0.0
0
LINE
8
VISIBLE
10
167.305369
20
429.250000
30
0.0
11
167.305369
21
444.250000
31
0.0
0
LINE
8
VISIBLE
10
157.000000
20
401.721319
30
0.0
11
157.136953
21
406.717900
31
0.0
0
LINE
8
VISIBLE
10
157.136953
20
406.717900
30
0.0
11
157.546310
21
411.659737
31
0.0
0
LINE
8
VISIBLE
10
157.546310
20
411.659737
30
0.0
11
158.223587
21
416.492686
31
0.0
0
LINE
8
VISIBLE
10
158.223587
20
416.492686
30
0.0
11
158.526197
21
418.000000
31
0.0
0
LINE
8
VISIBLE
10
164.000000
20
418.000000
30
0.0
11
164.000000
21
346.750000
31
0.0
0
LINE
8
VISIBLE
10
157.000000
20
346.750000
30
0.0
11
164.000000
21
346.750000
31
0.0
0
LINE
8
VISIBLE
10
157.136953
20
406.717900
30
0.0
11
157.136953
21
444.250000
31
0.0
0
LINE
8
VISIBLE
10
157.000000
20
444.250000
30
0.0
11
157.136953
21
444.250000
31
0.0
0
LINE
8
VISIBLE
10
157.546310
20
411.659737
30
0.0
11
157.546310
21
444.250000
31
0.0
0
LINE
8
VISIBLE
10
157.136953
20
444.250000
30
0.0
11
157.546310
21
444.250000
31
0.0
0
LINE
8
VISIBLE
10
158.223587
20
416.492686
30
0.0
11
158.223587
21
444.250000
31
0.0
0
LINE
8
VISIBLE
10
157.546310
20
444.250000
30
0.0
11
158.223587
21
444.250000
31
0.0
0
LINE
8
VISIBLE
10
158.526197
20
418.000000
30
0.0
11
159.161364
21
418.000000
31
0.0
0
LINE
8
VISIBLE
10
159.161364
20
418.000000
30
0.0
11
159.161364
21
444.250000
31
0.0
0
LINE
8
VISIBLE
10
158.223587
20
444.250000
30
0.0
11
159.161364
21
444.250000
31
0.0
0
LINE
8
VISIBLE
10
159.161364
20
418.000000
30
0.0
11
160.349365
21
418.000000
31
0.0
0
LINE
8
VISIBLE
10
160.349365
20
418.000000
30
0.0
11
161.774575
21
418.000000
31
0.0
0
LINE
8
VISIBLE
10
161.774575
20
418.000000
30
0.0
11
163.421379
21
418.000000
31
0.0
0
LINE
8
VISIBLE
10
163.421379
20
418.000000
30
0.0
11
164.000000
21
418.000000
31
0.0
0
LINE
8
VISIBLE
10
164.000000
20
429.250000
30
0.0
11
164.000000
21
418.000000
31
0.0
0
LINE
8
VISIBLE
10
164.000000
20
429.250000
30
0.0
11
165.271735
21
429.250000
31
0.0
0
LINE
8
VISIBLE
10
165.271735
20
429.250000
30
0.0
11
165.271735
21
444.250000
31
0.0
0
LINE
8
VISIBLE
10
163.421379
20
444.250000
30
0.0
11
165.271735
21
444.250000
31
0.0
0
LINE
8
VISIBLE
10
163.421379
20
418.000000
30
0.0
11
163.421379
21
444.250000
31
0.0
0
LINE
8
VISIBLE
10
165.271735
20
429.250000
30
0.0
11
167.305369
21
429.250000
31
0.0
0
LINE
8
VISIBLE
10
165.271735
20
444.250000
30
0.0
11
167.305369
21
444.250000
31
0.0
0
LINE
8
VISIBLE
10
161.774575
20
444.250000
30
0.0
11
163.421379
21
444.250000
31
0.0
0
LINE
8
VISIBLE
10
161.774575
20
418.000000
30
0.0
11
161.774575
21
444.250000
31
0.0
0
LINE
8
VISIBLE
10
160.349365
20
444.250000
30
0.0
11
161.774575
21
444.250000
31
0.0
0
LINE
8
VISIBLE
10
160.349365
20
418.000000
30
0.0
11
160.349365
21
444.250000
31
0.0
0
LINE
8
VISIBLE
10
159.161364
20
444.250000
30
0.0
11
160.349365
21
444.250000
31
0.0
0
LINE
8
VISIBLE
10
265.000000
20
418.000000
30
0.0
11
265.000000
21
346.750000
31
0.0
0
LINE
8
VISIBLE
10
272.000000
20
401.721319
30
0.0
11
272.000000
21
346.750000
31
0.0
0
LINE
8
VISIBLE
10
265.000000
20
346.750000
30
0.0
11
272.000000
21
346.750000
31
0.0
0
LINE
8
VISIBLE
10
164.000000
20
424.250000
30
0.0
11
169.045644
21
424.250000
31
0.0
0
LINE
8
VISIBLE
10
179.954356
20
424.250000
30
0.0
11
202.000000
21
424.250000
31
0.0
0
LINE
8
VISIBLE
10
227.000000
20
424.250000
30
0.0
11
249.045644
21
424.250000
31
0.0
0
LINE
8
VISIBLE
10
259.954356
20
424.250000
30
0.0
11
265.000000
21
424.250000
31
0.0
0
LINE
8
VISIBLE
10
227.000000
20
420.250000
30
0.0
11
202.000000
21
420.250000
31
0.0
0
CIRCLE
8
VISIBLE
10
214.500000
20
341.750000
30
0.0
40
5.500000
0
CIRCLE
8
VISIBLE
10
184.500000
20
371.750000
30
0.0
40
5.500000
0
CIRCLE
8
VISIBLE
10
244.500000
20
371.750000
30
0.0
40
5.500000
0
CIRCLE
8
VISIBLE
10
214.500000
20
401.750000
30
0.0
40
5.500000
0
CIRCLE
8
VISIBLE
10
184.500000
20
371.750000
30
0.0
40
11.000000
0
CIRCLE
8
VISIBLE
10
244.500000
20
371.750000
30
0.0
40
11.000000
0
CIRCLE
8
VISIBLE
10
214.500000
20
401.750000
30
0.0
40
11.000000
0
LINE
8
VISIBLE
10
157.000000
20
315.250000
30
0.0
11
272.000000
21
315.250000
31
0.0
0
LINE
8
VISIBLE
10
272.000000
20
315.250000
30
0.0
11
272.000000
21
346.750000
31
0.0
0
LINE
8
VISIBLE
10
254.500000
20
424.250000
30
0.0
11
254.500000
21
429.250000
31
0.0
0
LINE
8
VISIBLE
10
174.500000
20
424.250000
30
0.0
11
174.500000
21
429.250000
31
0.0
0
LINE
8
VISIBLE
10
202.000000
20
420.250000
30
0.0
11
202.000000
21
429.250000
31
0.0
0
LINE
8
VISIBLE
10
227.000000
20
420.250000
30
0.0
11
227.000000
21
429.250000
31
0.0
0
CIRCLE
8
VISIBLE
10
214.500000
20
341.750000
30
0.0
40
11.000000
0
LINE
8
HIDDEN
10
272.000000
20
444.250000
30
0.0
11
272.000000
21
434.250000
31
0.0
0
LINE
8
HIDDEN
10
272.000000
20
434.250000
30
0.0
11
157.000000
21
434.250000
31
0.0
0
LINE
8
HIDDEN
10
157.000000
20
444.250000
30
0.0
11
157.000000
21
434.250000
31
0.0
0
LINE
8
HIDDEN
10
157.000000
20
444.250000
30
0.0
11
272.000000
21
444.250000
31
0.0
0
LINE
8
HIDDEN
10
157.000000
20
346.750000
30
0.0
11
157.000000
21
434.250000
31
0.0
0
LINE
8
HIDDEN
10
254.500000
20
444.250000
30
0.0
11
260.513319
21
444.250000
31
0.0
0
LINE
8
HIDDEN
10
260.513319
20
444.250000
30
0.0
11
261.312489
21
444.250000
31
0.0
0
LINE
8
HIDDEN
10
261.312489
20
444.250000
30
0.0
11
266.600000
21
444.250000
31
0.0
0
LINE
8
HIDDEN
10
266.600000
20
444.250000
30
0.0
11
242.400000
21
444.250000
31
0.0
0
LINE
8
HIDDEN
10
242.400000
20
444.250000
30
0.0
11
247.687511
21
444.250000
31
0.0
0
LINE
8
HIDDEN
10
247.687511
20
444.250000
30
0.0
11
248.486681
21
444.250000
31
0.0
0
LINE
8
HIDDEN
10
248.486681
20
444.250000
30
0.0
11
254.500000
21
444.250000
31
0.0
0
LINE
8
HIDDEN
10
254.500000
20
433.250000
30
0.0
11
266.600000
21
433.250000
31
0.0
0
LINE
8
HIDDEN
10
266.600000
20
433.250000
30
0.0
11
242.400000
21
433.250000
31
0.0
0
LINE
8
HIDDEN
10
242.400000
20
433.250000
30
0.0
11
254.500000
21
433.250000
31
0.0
0
LINE
8
HIDDEN
10
254.500000
20
433.250000
30
0.0
11
260.500000
21
433.250000
31
0.0
0
LINE
8
HIDDEN
10
260.500000
20
433.250000
30
0.0
11
248.500000
21
433.250000
31
0.0
0
LINE
8
HIDDEN
10
248.500000
20
433.250000
30
0.0
11
254.500000
21
433.250000
31
0.0
0
LINE
8
HIDDEN
10
259.954356
20
429.250000
30
0.0
11
260.500000
21
429.250000
31
0.0
0
LINE
8
HIDDEN
10
260.500000
20
429.250000
30
0.0
11
248.500000
21
429.250000
31
0.0
0
LINE
8
HIDDEN
10
248.500000
20
429.250000
30
0.0
11
249.045644
21
429.250000
31
0.0
0
LINE
8
HIDDEN
10
174.500000
20
444.250000
30
0.0
11
180.513319
21
444.250000
31
0.0
0
LINE
8
HIDDEN
10
180.513319
20
444.250000
30
0.0
11
181.312489
21
444.250000
31
0.0
0
LINE
8
HIDDEN
10
181.312489
20
444.250000
30
0.0
11
186.600000
21
444.250000
31
0.0
0
LINE
8
HIDDEN
10
186.600000
20
444.250000
30
0.0
11
162.400000
21
444.250000
31
0.0
0
LINE
8
HIDDEN
10
162.400000
20
444.250000
30
0.0
11
167.687511
21
444.250000
31
0.0
0
LINE
8
HIDDEN
10
167.687511
20
444.250000
30
0.0
11
168.486681
21
444.250000
31
0.0
0
LINE
8
HIDDEN
10
168.486681
20
444.250000
30
0.0
11
174.500000
21
444.250000
31
0.0
0
LINE
8
HIDDEN
10
174.500000
20
433.250000
30
0.0
11
186.600000
21
433.250000
31
0.0
0
LINE
8
HIDDEN
10
186.600000
20
433.250000
30
0.0
11
162.400000
21
433.250000
31
0.0
0
LINE
8
HIDDEN
10
162.400000
20
433.250000
30
0.0
11
174.500000
21
433.250000
31
0.0
0
LINE
8
HIDDEN
10
174.500000
20
433.250000
30
0.0
11
180.500000
21
433.250000
31
0.0
0
LINE
8
HIDDEN
10
180.500000
20
433.250000
30
0.0
11
168.500000
21
433.250000
31
0.0
0
LINE
8
HIDDEN
10
168.500000
20
433.250000
30
0.0
11
174.500000
21
433.250000
31
0.0
0
LINE
8
HIDDEN
10
179.954356
20
429.250000
30
0.0
11
180.500000
21
429.250000
31
0.0
0
LINE
8
HIDDEN
10
180.500000
20
429.250000
30
0.0
11
168.500000
21
429.250000
31
0.0
0
LINE
8
HIDDEN
10
168.500000
20
429.250000
30
0.0
11
169.045644
21
429.250000
31
0.0
0
LINE
8
HIDDEN
10
158.526197
20
418.000000
30
0.0
11
164.000000
21
418.000000
31
0.0
0
LINE
8
HIDDEN
10
164.000000
20
346.750000
30
0.0
11
164.000000
21
424.250000
31
0.0
0
LINE
8
HIDDEN
10
164.000000
20
429.250000
30
0.0
11
164.000000
21
424.250000
31
0.0
0
LINE
8
HIDDEN
10
265.000000
20
418.000000
30
0.0
11
270.473803
21
418.000000
31
0.0
0
LINE
8
HIDDEN
10
202.000000
20
424.250000
30
0.0
11
227.000000
21
424.250000
31
0.0
0
LINE
8
HIDDEN
10
265.000000
20
424.250000
30
0.0
11
164.000000
21
424.250000
31
0.0
0
LINE
8
HIDDEN
10
164.000000
20
429.250000
30
0.0
11
169.045644
21
429.250000
31
0.0
0
LINE
8
HIDDEN
10
259.954356
20
429.250000
30
0.0
11
265.000000
21
429.250000
31
0.0
0
LINE
8
HIDDEN
10
179.954356
20
429.250000
30
0.0
11
249.045644
21
429.250000
31
0.0
0
LINE
8
HIDDEN
10
214.500000
20
429.250000
30
0.0
11
227.000000
21
429.250000
31
0.0
0
LINE
8
HIDDEN
10
227.000000
20
429.250000
30
0.0
11
202.000000
21
429.250000
31
0.0
0
LINE
8
HIDDEN
10
202.000000
20
429.250000
30
0.0
11
214.500000
21
429.250000
31
0.0
0
LINE
8
HIDDEN
10
265.000000
20
346.750000
30
0.0
11
265.000000
21
424.250000
31
0.0
0
LINE
8
HIDDEN
10
265.000000
20
429.250000
30
0.0
11
265.000000
21
424.250000
31
0.0
0
LINE
8
HIDDEN
10
214.500000
20
420.250000
30
0.0
11
227.000000
21
420.250000
31
0.0
0
LINE
8
HIDDEN
10
202.000000
20
420.250000
30
0.0
11
214.500000
21
420.250000
31
0.0
0
LINE
8
HIDDEN
10
214.500000
20
420.250000
30
0.0
11
221.250000
21
420.250000
31
0.0
0
LINE
8
HIDDEN
10
221.250000
20
420.250000
30
0.0
11
207.750000
21
420.250000
31
0.0
0
LINE
8
HIDDEN
10
207.750000
20
420.250000
30
0.0
11
214.500000
21
420.250000
31
0.0
0
LINE
8
HIDDEN
10
214.500000
20
444.250000
30
0.0
11
228.250000
21
444.250000
31
0.0
0
LINE
8
HIDDEN
10
228.250000
20
444.250000
30
0.0
11
200.750000
21
444.250000
31
0.0
0
LINE
8
HIDDEN
10
200.750000
20
444.250000
30
0.0
11
214.500000
21
444.250000
31
0.0
0
LINE
8
HIDDEN
10
214.500000
20
431.750000
30
0.0
11
228.250000
21
431.750000
31
0.0
0
LINE
8
HIDDEN
10
228.250000
20
431.750000
30
0.0
11
200.750000
21
431.750000
31
0.0
0
LINE
8
HIDDEN
10
200.750000
20
431.750000
30
0.0
11
214.500000
21
431.750000
31
0.0
0
LINE
8
HIDDEN
10
214.500000
20
431.750000
30
0.0
11
221.250000
21
431.750000
31
0.0
0
LINE
8
HIDDEN
10
221.250000
20
431.750000
30
0.0
11
207.750000
21
431.750000
31
0.0
0
LINE
8
HIDDEN
10
207.750000
20
431.750000
30
0.0
11
214.500000
21
431.750000
31
0.0
0
LINE
8
HIDDEN
10
161.550000
20
347.600000
30
0.0
11
157.000000
21
346.750000
31
0.0
0
LINE
8
HIDDEN
10
161.550000
20
347.600000
30
0.0
11
157.000000
21
346.750000
31
0.0
0
LINE
8
HIDDEN
10
163.300000
20
346.350000
30
0.0
11
161.550000
21
347.600000
31
0.0
0
LINE
8
HIDDEN
10
163.300000
20
346.350000
30
0.0
11
161.550000
21
347.600000
31
0.0
0
LINE
8
HIDDEN
10
165.550000
20
343.950000
30
0.0
11
163.300000
21
346.350000
31
0.0
0
LINE
8
HIDDEN
10
165.550000
20
343.950000
30
0.0
11
163.300000
21
346.350000
31
0.0
0
LINE
8
HIDDEN
10
168.750000
20
339.050000
30
0.0
11
165.550000
21
343.950000
31
0.0
0
LINE
8
HIDDEN
10
169.650000
20
337.850000
30
0.0
11
168.750000
21
339.050000
31
0.0
0
LINE
8
HIDDEN
10
171.950000
20
335.250000
30
0.0
11
169.650000
21
337.850000
31
0.0
0
LINE
8
HIDDEN
10
171.950000
20
335.250000
30
0.0
11
173.973883
21
335.250000
31
0.0
0
LINE
8
HIDDEN
10
173.973883
20
332.927512
30
0.0
11
173.973883
21
335.250000
31
0.0
0
LINE
8
HIDDEN
10
175.000000
20
331.750000
30
0.0
11
173.973883
21
332.927512
31
0.0
0
LINE
8
HIDDEN
10
176.300000
20
330.500000
30
0.0
11
175.000000
21
331.750000
31
0.0
0
LINE
8
HIDDEN
10
177.600000
20
329.300000
30
0.0
11
176.300000
21
330.500000
31
0.0
0
LINE
8
HIDDEN
10
179.150000
20
328.050000
30
0.0
11
177.600000
21
329.300000
31
0.0
0
LINE
8
HIDDEN
10
180.650000
20
326.850000
30
0.0
11
179.150000
21
328.050000
31
0.0
0
LINE
8
HIDDEN
10
181.750000
20
325.625000
30
0.0
11
180.650000
21
326.850000
31
0.0
0
LINE
8
HIDDEN
10
182.000000
20
324.250000
30
0.0
11
181.750000
21
325.625000
31
0.0
0
LINE
8
HIDDEN
10
182.000000
20
315.250000
30
0.0
11
182.000000
21
324.250000
31
0.0
0
LINE
8
HIDDEN
10
182.000000
20
315.250000
30
0.0
11
247.000000
21
315.250000
31
0.0
0
LINE
8
HIDDEN
10
247.000000
20
315.250000
30
0.0
11
247.000000
21
324.250000
31
0.0
0
LINE
8
HIDDEN
10
247.000000
20
324.250000
30
0.0
11
247.250000
21
325.625000
31
0.0
0
LINE
8
HIDDEN
10
247.250000
20
325.625000
30
0.0
11
248.350000
21
326.850000
31
0.0
0
LINE
8
HIDDEN
10
248.350000
20
326.850000
30
0.0
11
249.850000
21
328.050000
31
0.0
0
LINE
8
HIDDEN
10
249.850000
20
328.050000
30
0.0
11
251.400000
21
329.300000
31
0.0
0
LINE
8
HIDDEN
10
251.400000
20
329.300000
30
0.0
11
252.700000
21
330.500000
31
0.0
0
LINE
8
HIDDEN
10
252.700000
20
330.500000
30
0.0
11
254.000000
21
331.750000
31
0.0
0
LINE
8
HIDDEN
10
254.000000
20
331.750000
30
0.0
11
255.026117
21
332.927512
31
0.0
0
LINE
8
HIDDEN
10
255.026117
20
332.927512
30
0.0
11
255.026117
21
335.250000
31
0.0
0
LINE
8
HIDDEN
10
257.050000
20
335.250000
30
0.0
11
255.026117
21
335.250000
31
0.0
0
LINE
8
HIDDEN
10
257.050000
20
335.250000
30
0.0
11
259.350000
21
337.850000
31
0.0
0
LINE
8
HIDDEN
10
259.350000
20
337.850000
30
0.0
11
260.250000
21
339.050000
31
0.0
0
LINE
8
HIDDEN
10
260.250000
20
339.050000
30
0.0
11
263.450000
21
343.950000
31
0.0
0
LINE
8
HIDDEN
10
263.450000
20
343.950000
30
0.0
11
265.700000
21
346.350000
31
0.0
0
LINE
8
HIDDEN
10
265.700000
20
346.350000
30
0.0
11
267.450000
21
347.600000
31
0.0
0
LINE
8
HIDDEN
10
267.450000
20
347.600000
30
0.0
11
272.000000
21
346.750000
31
0.0
0
LINE
8
HIDDEN
10
272.000000
20
346.750000
30
0.0
11
272.000000
21
434.250000
31
0.0
0
LINE
8
HIDDEN
10
184.500000
20
361.750000
30
0.0
11
184.500000
21
334.922700
31
0.0
0
LINE
8
HIDDEN
10
168.064561
20
361.750000
30
0.0
11
184.500000
21
361.750000
31
0.0
0
ARC
8
HIDDEN
10
214.500000
20
371.750000
30
0.0
40
47.500000
50
0.000000
51
192.153197
0
ARC
8
HIDDEN
10
214.500000
20
371.750000
30
0.0
40
47.500000
50
347.846803
51
360.000000
0
LINE
8
HIDDEN
10
260.935439
20
361.750000
30
0.0
11
244.500000
21
361.750000
31
0.0
0
LINE
8
HIDDEN
10
244.500000
20
361.750000
30
0.0
11
244.500000
21
334.922700
31
0.0
0
ARC
8
HIDDEN
10
214.500000
20
371.750000
30
0.0
40
47.500000
50
230.833289
51
309.166711
0
LINE
8
HIDDEN
10
169.500000
20
338.050000
30
0.0
11
168.750000
21
339.050000
31
0.0
0
LINE
8
HIDDEN
10
169.650000
20
337.850000
30
0.0
11
169.500000
21
338.050000
31
0.0
0
LINE
8
HIDDEN
10
171.950000
20
335.250000
30
0.0
11
169.650000
21
337.850000
31
0.0
0
LINE
8
HIDDEN
10
173.973883
20
335.250000
30
0.0
11
164.375000
21
335.250000
31
0.0
0
LINE
8
HIDDEN
10
164.375000
20
335.250000
30
0.0
11
169.500000
21
335.250000
31
0.0
0
LINE
8
HIDDEN
10
169.500000
20
335.250000
30
0.0
11
171.950000
21
335.250000
31
0.0
0
LINE
8
HIDDEN
10
165.026117
20
315.250000
30
0.0
11
169.500000
21
315.250000
31
0.0
0
LINE
8
HIDDEN
10
165.026117
20
315.250000
30
0.0
11
164.375000
21
315.250000
31
0.0
0
LINE
8
HIDDEN
10
164.375000
20
315.250000
30
0.0
11
165.026117
21
315.250000
31
0.0
0
LINE
8
HIDDEN
10
165.054426
20
315.250000
30
0.0
11
165.026117
21
315.250000
31
0.0
0
LINE
8
HIDDEN
10
173.945574
20
315.250000
30
0.0
11
165.054426
21
315.250000
31
0.0
0
LINE
8
HIDDEN
10
173.973883
20
315.250000
30
0.0
11
173.945574
21
315.250000
31
0.0
0
LINE
8
HIDDEN
10
173.973883
20
315.250000
30
0.0
11
174.625000
21
315.250000
31
0.0
0
LINE
8
HIDDEN
10
174.625000
20
315.250000
30
0.0
11
173.973883
21
315.250000
31
0.0
0
LINE
8
HIDDEN
10
169.500000
20
315.250000
30
0.0
11
173.973883
21
315.250000
31
0.0
0
LINE
8
HIDDEN
10
173.973883
20
332.927512
30
0.0
11
174.625000
21
332.180328
31
0.0
0
LINE
8
HIDDEN
10
174.625000
20
332.180328
30
0.0
11
171.950000
21
335.250000
31
0.0
0
LINE
8
HIDDEN
10
175.000000
20
331.750000
30
0.0
11
171.950000
21
335.250000
31
0.0
0
LINE
8
HIDDEN
10
176.300000
20
330.500000
30
0.0
11
175.000000
21
331.750000
31
0.0
0
LINE
8
HIDDEN
10
177.600000
20
329.300000
30
0.0
11
176.300000
21
330.500000
31
0.0
0
LINE
8
HIDDEN
10
179.150000
20
328.050000
30
0.0
11
177.600000
21
329.300000
31
0.0
0
LINE
8
HIDDEN
10
180.650000
20
326.850000
30
0.0
11
179.150000
21
328.050000
31
0.0
0
LINE
8
HIDDEN
10
181.750000
20
325.625000
30
0.0
11
180.650000
21
326.850000
31
0.0
0
LINE
8
HIDDEN
10
182.000000
20
324.250000
30
0.0
11
181.750000
21
325.625000
31
0.0
0
LINE
8
HIDDEN
10
182.000000
20
315.250000
30
0.0
11
182.000000
21
324.250000
31
0.0
0
LINE
8
HIDDEN
10
259.500000
20
338.050000
30
0.0
11
260.250000
21
339.050000
31
0.0
0
LINE
8
HIDDEN
10
259.350000
20
337.850000
30
0.0
11
259.500000
21
338.050000
31
0.0
0
LINE
8
HIDDEN
10
257.050000
20
335.250000
30
0.0
11
259.350000
21
337.850000
31
0.0
0
LINE
8
HIDDEN
10
259.500000
20
335.250000
30
0.0
11
264.625000
21
335.250000
31
0.0
0
LINE
8
HIDDEN
10
264.625000
20
335.250000
30
0.0
11
255.026117
21
335.250000
31
0.0
0
LINE
8
HIDDEN
10
257.050000
20
335.250000
30
0.0
11
259.500000
21
335.250000
31
0.0
0
LINE
8
HIDDEN
10
255.026117
20
315.250000
30
0.0
11
259.500000
21
315.250000
31
0.0
0
LINE
8
HIDDEN
10
255.026117
20
315.250000
30
0.0
11
254.375000
21
315.250000
31
0.0
0
LINE
8
HIDDEN
10
254.375000
20
315.250000
30
0.0
11
255.026117
21
315.250000
31
0.0
0
LINE
8
HIDDEN
10
255.054426
20
315.250000
30
0.0
11
255.026117
21
315.250000
31
0.0
0
LINE
8
HIDDEN
10
263.945574
20
315.250000
30
0.0
11
255.054426
21
315.250000
31
0.0
0
LINE
8
HIDDEN
10
263.973883
20
315.250000
30
0.0
11
263.945574
21
315.250000
31
0.0
0
LINE
8
HIDDEN
10
263.973883
20
315.250000
30
0.0
11
264.625000
21
315.250000
31
0.0
0
LINE
8
HIDDEN
10
264.625000
20
315.250000
30
0.0
11
263.973883
21
315.250000
31
0.0
0
LINE
8
HIDDEN
10
259.500000
20
315.250000
30
0.0
11
263.973883
21
315.250000
31
0.0
0
LINE
8
HIDDEN
10
255.026117
20
332.927512
30
0.0
11
254.375000
21
332.180328
31
0.0
0
LINE
8
HIDDEN
10
254.375000
20
332.180328
30
0.0
11
257.050000
21
335.250000
31
0.0
0
LINE
8
HIDDEN
10
254.000000
20
331.750000
30
0.0
11
257.050000
21
335.250000
31
0.0
0
LINE
8
HIDDEN
10
252.700000
20
330.500000
30
0.0
11
254.000000
21
331.750000
31
0.0
0
LINE
8
HIDDEN
10
251.400000
20
329.300000
30
0.0
11
252.700000
21
330.500000
31
0.0
0
LINE
8
HIDDEN
10
249.850000
20
328.050000
30
0.0
11
251.400000
21
329.300000
31
0.0
0
LINE
8
HIDDEN
10
248.350000
20
326.850000
30
0.0
11
249.850000
21
328.050000
31
0.0
0
LINE
8
HIDDEN
10
247.250000
20
325.625000
30
0.0
11
248.350000
21
326.850000
31
0.0
0
LINE
8
HIDDEN
10
247.000000
20
315.250000
30
0.0
11
247.000000
21
324.250000
31
0.0
0
LINE
8
HIDDEN
10
247.000000
20
324.250000
30
0.0
11
247.250000
21
325.625000
31
0.0
0
LINE
8
HIDDEN
10
267.450000
20
347.600000
30
0.0
11
272.000000
21
346.750000
31
0.0
0
LINE
8
HIDDEN
10
265.700000
20
346.350000
30
0.0
11
267.450000
21
347.600000
31
0.0
0
LINE
8
HIDDEN
10
263.450000
20
343.950000
30
0.0
11
265.700000
21
346.350000
31
0.0
0
LINE
8
HIDDEN
10
184.500000
20
334.922700
30
0.0
11
184.500000
21
345.292487
31
0.0
0
LINE
8
HIDDEN
10
184.500000
20
345.292487
30
0.0
11
184.500000
21
361.750000
31
0.0
0
LINE
8
HIDDEN
10
184.500000
20
361.750000
30
0.0
11
175.770167
21
361.750000
31
0.0
0
LINE
8
HIDDEN
10
175.770167
20
361.750000
30
0.0
11
168.064561
21
361.750000
31
0.0
0
ARC
8
HIDDEN
10
214.500000
20
371.750000
30
0.0
40
47.500000
50
230.833289
51
309.166711
0
ARC
8
HIDDEN
10
214.500000
20
371.750000
30
0.0
40
40.000000
50
221.409622
51
318.590378
0
LINE
8
HIDDEN
10
244.500000
20
334.922700
30
0.0
11
244.500000
21
345.292487
31
0.0
0
ARC
8
HIDDEN
10
214.500000
20
371.750000
30
0.0
40
40.000000
50
221.409622
51
318.590378
0
LINE
8
HIDDEN
10
254.500000
20
371.750000
30
0.0
11
254.288596
21
375.857020
31
0.0
0
LINE
8
HIDDEN
10
254.288596
20
375.857020
30
0.0
11
253.656620
21
379.920627
31
0.0
0
LINE
8
HIDDEN
10
253.656620
20
379.920627
30
0.0
11
252.610750
21
383.897870
31
0.0
0
LINE
8
HIDDEN
10
252.610750
20
383.897870
30
0.0
11
251.162043
21
387.746707
31
0.0
0
LINE
8
HIDDEN
10
251.162043
20
387.746707
30
0.0
11
249.325811
21
391.426456
31
0.0
0
LINE
8
HIDDEN
10
249.325811
20
391.426456
30
0.0
11
247.121463
21
394.898221
31
0.0
0
LINE
8
HIDDEN
10
247.121463
20
394.898221
30
0.0
11
244.572301
21
398.125305
31
0.0
0
LINE
8
HIDDEN
10
244.572301
20
398.125305
30
0.0
11
241.705269
21
401.073597
31
0.0
0
LINE
8
HIDDEN
10
241.705269
20
401.073597
30
0.0
11
238.550671
21
403.711934
31
0.0
0
LINE
8
HIDDEN
10
238.550671
20
403.711934
30
0.0
11
235.141854
21
406.012426
31
0.0
0
LINE
8
HIDDEN
10
235.141854
20
406.012426
30
0.0
11
231.514849
21
407.950759
31
0.0
0
LINE
8
HIDDEN
10
231.514849
20
407.950759
30
0.0
11
227.707993
21
409.506442
31
0.0
0
LINE
8
HIDDEN
10
227.707993
20
409.506442
30
0.0
11
223.761526
21
410.663033
31
0.0
0
LINE
8
HIDDEN
10
223.761526
20
410.663033
30
0.0
11
219.717164
21
411.408306
31
0.0
0
LINE
8
HIDDEN
10
219.717164
20
411.408306
30
0.0
11
215.617655
21
411.734383
31
0.0
0
LINE
8
HIDDEN
10
215.617655
20
411.734383
30
0.0
11
211.506332
21
411.637817
31
0.0
0
LINE
8
HIDDEN
10
211.506332
20
411.637817
30
0.0
11
207.426653
21
411.119630
31
0.0
0
LINE
8
HIDDEN
10
207.426653
20
411.119630
30
0.0
11
203.421740
21
410.185298
31
0.0
0
LINE
8
HIDDEN
10
203.421740
20
410.185298
30
0.0
11
199.533926
21
408.844698
31
0.0
0
LINE
8
HIDDEN
10
199.533926
20
408.844698
30
0.0
11
195.804307
21
407.112000
31
0.0
0
LINE
8
HIDDEN
10
195.804307
20
407.112000
30
0.0
11
192.272305
21
405.005520
31
0.0
0
LINE
8
HIDDEN
10
192.272305
20
405.005520
30
0.0
11
188.975254
21
402.547522
31
0.0
0
LINE
8
HIDDEN
10
188.975254
20
402.547522
30
0.0
11
185.948004
21
399.763988
31
0.0
0
LINE
8
HIDDEN
10
185.948004
20
399.763988
30
0.0
11
183.222554
21
396.684341
31
0.0
0
LINE
8
HIDDEN
10
183.222554
20
396.684341
30
0.0
11
180.827713
21
393.341134
31
0.0
0
LINE
8
HIDDEN
10
180.827713
20
393.341134
30
0.0
11
178.788794
21
389.769704
31
0.0
0
LINE
8
HIDDEN
10
178.788794
20
389.769704
30
0.0
11
177.127349
21
386.007803
31
0.0
0
LINE
8
HIDDEN
10
177.127349
20
386.007803
30
0.0
11
175.860940
21
382.095194
31
0.0
0
LINE
8
HIDDEN
10
175.860940
20
382.095194
30
0.0
11
175.002953
21
378.073234
31
0.0
0
LINE
8
HIDDEN
10
175.002953
20
378.073234
30
0.0
11
174.562458
21
373.984437
31
0.0
0
LINE
8
HIDDEN
10
174.562458
20
373.984437
30
0.0
11
174.544109
21
369.872021
31
0.0
0
LINE
8
HIDDEN
10
174.544109
20
369.872021
30
0.0
11
174.948102
21
365.779456
31
0.0
0
ARC
8
HIDDEN
10
214.500000
20
371.750000
30
0.0
40
40.000000
50
345.522488
51
360.000000
0
LINE
8
HIDDEN
10
244.500000
20
361.750000
30
0.0
11
253.229833
21
361.750000
31
0.0
0
LINE
8
HIDDEN
10
244.500000
20
345.292487
30
0.0
11
244.500000
21
361.750000
31
0.0
0
LINE
8
HIDDEN
10
253.229833
20
361.750000
30
0.0
11
260.935439
21
361.750000
31
0.0
0
ARC
8
HIDDEN
10
214.500000
20
371.750000
30
0.0
40
40.000000
50
345.522488
51
360.000000
0
ARC
8
HIDDEN
10
214.500000
20
371.750000
30
0.0
40
47.500000
50
0.000000
51
192.153197
0
ARC
8
HIDDEN
10
214.500000
20
371.750000
30
0.0
40
47.500000
50
347.846803
51
360.000000
0
LINE
8
HIDDEN
10
259.500000
20
315.250000
30
0.0
11
272.000000
21
315.250000
31
0.0
0
LINE
8
HIDDEN
10
247.000000
20
315.250000
30
0.0
11
259.500000
21
315.250000
31
0.0
0
LINE
8
HIDDEN
10
169.500000
20
315.250000
30
0.0
11
182.000000
21
315.250000
31
0.0
0
LINE
8
HIDDEN
10
157.000000
20
315.250000
30
0.0
11
169.500000
21
315.250000
31
0.0
0
LINE
8
HIDDEN
10
167.150000
20
341.500000
30
0.0
11
165.550000
21
343.950000
31
0.0
0
LINE
8
HIDDEN
10
168.750000
20
339.050000
30
0.0
11
167.150000
21
341.500000
31
0.0
0
LINE
8
HIDDEN
10
260.250000
20
339.050000
30
0.0
11
261.850000
21
341.500000
31
0.0
0
LINE
8
HIDDEN
10
261.850000
20
341.500000
30
0.0
11
263.450000
21
343.950000
31
0.0
0
LINE
8
HIDDEN
10
254.500000
20
433.250000
30
0.0
11
254.500000
21
444.250000
31
0.0
0
LINE
8
HIDDEN
10
254.500000
20
429.250000
30
0.0
11
254.500000
21
433.250000
31
0.0
0
LINE
8
HIDDEN
10
174.500000
20
433.250000
30
0.0
11
174.500000
21
444.250000
31
0.0
0
LINE
8
HIDDEN
10
174.500000
20
429.250000
30
0.0
11
174.500000
21
433.250000
31
0.0
0
LINE
8
HIDDEN
10
214.500000
20
420.250000
30
0.0
11
214.500000
21
429.250000
31
0.0
0
LINE
8
HIDDEN
10
214.500000
20
431.750000
30
0.0
11
214.500000
21
444.250000
31
0.0
0
LINE
8
HIDDEN
10
214.500000
20
420.250000
30
0.0
11
214.500000
21
431.750000
31
0.0
0
LINE
8
HIDDEN
10
169.500000
20
315.250000
30
0.0
11
169.500000
21
335.250000
31
0.0
0
LINE
8
HIDDEN
10
259.500000
20
315.250000
30
0.0
11
259.500000
21
335.250000
31
0.0
0
LINE
8
HIDDEN
10
242.400000
20
433.250000
30
0.0
11
242.400000
21
444.250000
31
0.0
0
LINE
8
HIDDEN
10
266.600000
20
433.250000
30
0.0
11
266.600000
21
444.250000
31
0.0
0
LINE
8
HIDDEN
10
248.500000
20
429.250000
30
0.0
11
248.500000
21
433.250000
31
0.0
0
LINE
8
HIDDEN
10
260.500000
20
429.250000
30
0.0
11
260.500000
21
433.250000
31
0.0
0
LINE
8
HIDDEN
10
162.400000
20
433.250000
30
0.0
11
162.400000
21
444.250000
31
0.0
0
LINE
8
HIDDEN
10
186.600000
20
433.250000
30
0.0
11
186.600000
21
444.250000
31
0.0
0
LINE
8
HIDDEN
10
168.500000
20
429.250000
30
0.0
11
168.500000
21
433.250000
31
0.0
0
LINE
8
HIDDEN
10
180.500000
20
429.250000
30
0.0
11
180.500000
21
433.250000
31
0.0
0
LINE
8
HIDDEN
10
200.750000
20
431.750000
30
0.0
11
200.750000
21
444.250000
31
0.0
0
LINE
8
HIDDEN
10
228.250000
20
431.750000
30
0.0
11
228.250000
21
444.250000
31
0.0
0
LINE
8
HIDDEN
10
207.750000
20
420.250000
30
0.0
11
207.750000
21
431.750000
31
0.0
0
LINE
8
HIDDEN
10
221.250000
20
420.250000
30
0.0
11
221.250000
21
431.750000
31
0.0
0
LINE
8
HIDDEN
10
164.375000
20
315.250000
30
0.0
11
164.375000
21
335.250000
31
0.0
0
LINE
8
HIDDEN
10
174.625000
20
315.250000
30
0.0
11
174.625000
21
332.180328
31
0.0
0
LINE
8
HIDDEN
10
254.375000
20
315.250000
30
0.0
11
254.375000
21
332.180328
31
0.0
0
LINE
8
HIDDEN
10
264.625000
20
315.250000
30
0.0
11
264.625000
21
335.250000
31
0.0
0
ARC
8
HIDDEN
10
214.500000
20
371.750000
30
0.0
40
40.000000
50
0.000000
51
194.477512
0
ARC
8
VISIBLE
10
320.000000
20
224.750000
30
0.0
40
10.000000
50
90.000000
51
180.000000
0
LINE
8
VISIBLE
10
347.532100
20
190.886788
30
0.0
11
352.528681
21
193.500000
31
0.0
0
LINE
8
VISIBLE
10
352.528681
20
193.500000
30
0.0
11
310.000000
21
193.500000
31
0.0
0
LINE
8
VISIBLE
10
310.000000
20
190.886788
30
0.0
11
310.000000
21
193.500000
31
0.0
0
LINE
8
VISIBLE
10
347.532100
20
190.886788
30
0.0
11
310.000000
21
190.886788
31
0.0
0
LINE
8
VISIBLE
10
342.590263
20
188.302208
30
0.0
11
347.532100
21
190.886788
31
0.0
0
LINE
8
VISIBLE
10
310.000000
20
188.302208
30
0.0
11
310.000000
21
190.886788
31
0.0
0
LINE
8
VISIBLE
10
342.590263
20
188.302208
30
0.0
11
310.000000
21
188.302208
31
0.0
0
LINE
8
VISIBLE
10
337.757314
20
185.774575
30
0.0
11
342.590263
21
188.302208
31
0.0
0
LINE
8
VISIBLE
10
310.000000
20
185.774575
30
0.0
11
310.000000
21
188.302208
31
0.0
0
LINE
8
VISIBLE
10
337.757314
20
185.774575
30
0.0
11
310.000000
21
185.774575
31
0.0
0
LINE
8
VISIBLE
10
336.250000
20
183.331584
30
0.0
11
336.250000
21
184.986250
31
0.0
0
LINE
8
VISIBLE
10
336.250000
20
184.986250
30
0.0
11
337.757314
21
185.774575
31
0.0
0
LINE
8
VISIBLE
10
310.000000
20
183.331584
30
0.0
11
310.000000
21
185.774575
31
0.0
0
LINE
8
VISIBLE
10
336.250000
20
183.331584
30
0.0
11
310.000000
21
183.331584
31
0.0
0
LINE
8
VISIBLE
10
336.250000
20
181.000000
30
0.0
11
336.250000
21
183.331584
31
0.0
0
LINE
8
VISIBLE
10
310.000000
20
181.000000
30
0.0
11
310.000000
21
183.331584
31
0.0
0
LINE
8
VISIBLE
10
336.250000
20
181.000000
30
0.0
11
310.000000
21
181.000000
31
0.0
0
LINE
8
VISIBLE
10
336.250000
20
178.805369
30
0.0
11
336.250000
21
181.000000
31
0.0
0
LINE
8
VISIBLE
10
310.000000
20
178.805369
30
0.0
11
310.000000
21
181.000000
31
0.0
0
LINE
8
VISIBLE
10
336.250000
20
178.805369
30
0.0
11
310.000000
21
178.805369
31
0.0
0
LINE
8
VISIBLE
10
336.250000
20
176.771735
30
0.0
11
336.250000
21
178.805369
31
0.0
0
LINE
8
VISIBLE
10
310.000000
20
176.771735
30
0.0
11
310.000000
21
178.805369
31
0.0
0
LINE
8
VISIBLE
10
336.250000
20
176.771735
30
0.0
11
310.000000
21
176.771735
31
0.0
0
LINE
8
VISIBLE
10
325.000000
20
174.921379
30
0.0
11
325.000000
21
176.193114
31
0.0
0
LINE
8
VISIBLE
10
325.000000
20
176.193114
30
0.0
11
336.250000
21
176.193114
31
0.0
0
LINE
8
VISIBLE
10
336.250000
20
176.193114
30
0.0
11
336.250000
21
176.771735
31
0.0
0
LINE
8
VISIBLE
10
310.000000
20
174.921379
30
0.0
11
310.000000
21
176.771735
31
0.0
0
LINE
8
VISIBLE
10
325.000000
20
174.921379
30
0.0
11
310.000000
21
174.921379
31
0.0
0
LINE
8
VISIBLE
10
325.000000
20
173.274575
30
0.0
11
325.000000
21
174.921379
31
0.0
0
LINE
8
VISIBLE
10
310.000000
20
173.274575
30
0.0
11
310.000000
21
174.921379
31
0.0
0
LINE
8
VISIBLE
10
325.000000
20
173.274575
30
0.0
11
310.000000
21
173.274575
31
0.0
0
LINE
8
VISIBLE
10
325.000000
20
171.849365
30
0.0
11
325.000000
21
173.274575
31
0.0
0
LINE
8
VISIBLE
10
310.000000
20
171.849365
30
0.0
11
310.000000
21
173.274575
31
0.0
0
LINE
8
VISIBLE
10
325.000000
20
171.849365
30
0.0
11
310.000000
21
171.849365
31
0.0
0
LINE
8
VISIBLE
10
325.000000
20
153.099365
30
0.0
11
325.000000
21
171.849365
31
0.0
0
LINE
8
VISIBLE
10
310.000000
20
153.099365
30
0.0
11
310.000000
21
171.849365
31
0.0
0
LINE
8
VISIBLE
10
325.000000
20
153.099365
30
0.0
11
310.000000
21
153.099365
31
0.0
0
LINE
8
VISIBLE
10
325.000000
20
151.911364
30
0.0
11
325.000000
21
153.099365
31
0.0
0
LINE
8
VISIBLE
10
310.000000
20
151.911364
30
0.0
11
310.000000
21
153.099365
31
0.0
0
LINE
8
VISIBLE
10
325.000000
20
151.911364
30
0.0
11
310.000000
21
151.911364
31
0.0
0
LINE
8
VISIBLE
10
325.000000
20
150.973587
30
0.0
11
325.000000
21
151.911364
31
0.0
0
LINE
8
VISIBLE
10
310.000000
20
150.973587
30
0.0
11
310.000000
21
151.911364
31
0.0
0
LINE
8
VISIBLE
10
325.000000
20
150.973587
30
0.0
11
310.000000
21
150.973587
31
0.0
0
LINE
8
VISIBLE
10
325.000000
20
150.296310
30
0.0
11
325.000000
21
150.973587
31
0.0
0
LINE
8
VISIBLE
10
310.000000
20
150.296310
30
0.0
11
310.000000
21
150.973587
31
0.0
0
LINE
8
VISIBLE
10
325.000000
20
150.296310
30
0.0
11
310.000000
21
150.296310
31
0.0
0
LINE
8
VISIBLE
10
325.000000
20
149.886953
30
0.0
11
325.000000
21
150.296310
31
0.0
0
LINE
8
VISIBLE
10
310.000000
20
149.886953
30
0.0
11
310.000000
21
150.296310
31
0.0
0
LINE
8
VISIBLE
10
325.000000
20
149.886953
30
0.0
11
310.000000
21
149.886953
31
0.0
0
LINE
8
VISIBLE
10
325.000000
20
149.750000
30
0.0
11
325.000000
21
149.886953
31
0.0
0
LINE
8
VISIBLE
10
310.000000
20
149.750000
30
0.0
11
310.000000
21
149.886953
31
0.0
0
LINE
8
VISIBLE
10
325.000000
20
149.750000
30
0.0
11
310.000000
21
149.750000
31
0.0
0
LINE
8
VISIBLE
10
352.528681
20
193.500000
30
0.0
11
407.500000
21
222.250000
31
0.0
0
LINE
8
VISIBLE
10
334.000000
20
176.193114
30
0.0
11
334.000000
21
162.250000
31
0.0
0
LINE
8
VISIBLE
10
407.500000
20
234.750000
30
0.0
11
320.000000
21
234.750000
31
0.0
0
LINE
8
VISIBLE
10
392.500000
20
234.750000
30
0.0
11
406.650000
21
234.750000
31
0.0
0
LINE
8
VISIBLE
10
427.400000
20
245.400442
30
0.0
11
426.200000
21
247.695282
31
0.0
0
LINE
8
VISIBLE
10
416.200000
20
252.250000
30
0.0
11
415.200000
21
252.227480
31
0.0
0
LINE
8
VISIBLE
10
416.400000
20
252.249100
30
0.0
11
416.200000
21
252.250000
31
0.0
0
LINE
8
VISIBLE
10
407.500000
20
234.750000
30
0.0
11
407.500000
21
239.750000
31
0.0
0
LINE
8
VISIBLE
10
406.650000
20
249.396113
30
0.0
11
407.500000
21
239.750000
31
0.0
0
LINE
8
VISIBLE
10
406.650000
20
234.750000
30
0.0
11
406.650000
21
249.396113
31
0.0
0
LINE
8
VISIBLE
10
407.900000
20
250.604032
30
0.0
11
406.650000
21
249.396113
31
0.0
0
LINE
8
VISIBLE
10
410.300000
20
251.609490
30
0.0
11
407.900000
21
250.604032
31
0.0
0
LINE
8
VISIBLE
10
410.000000
20
222.250000
30
0.0
11
407.500000
21
222.250000
31
0.0
0
LINE
8
VISIBLE
10
382.500000
20
247.000000
30
0.0
11
342.500000
21
247.000000
31
0.0
0
LINE
8
VISIBLE
10
392.500000
20
247.000000
30
0.0
11
382.500000
21
247.000000
31
0.0
0
LINE
8
VISIBLE
10
406.650000
20
247.000000
30
0.0
11
392.500000
21
247.000000
31
0.0
0
LINE
8
VISIBLE
10
382.500000
20
237.250000
30
0.0
11
335.000000
21
237.250000
31
0.0
0
LINE
8
VISIBLE
10
392.500000
20
237.250000
30
0.0
11
382.500000
21
237.250000
31
0.0
0
LINE
8
VISIBLE
10
392.500000
20
237.250000
30
0.0
11
392.500000
21
247.000000
31
0.0
0
LINE
8
VISIBLE
10
392.500000
20
234.750000
30
0.0
11
392.500000
21
237.250000
31
0.0
0
LINE
8
VISIBLE
10
439.000000
20
222.250000
30
0.0
11
439.000000
21
239.750000
31
0.0
0
LINE
8
VISIBLE
10
439.000000
20
252.250000
30
0.0
11
439.000000
21
239.750000
31
0.0
0
LINE
8
VISIBLE
10
439.000000
20
222.250000
30
0.0
11
407.500000
21
222.250000
31
0.0
0
LINE
8
VISIBLE
10
439.000000
20
239.750000
30
0.0
11
407.500000
21
239.750000
31
0.0
0
LINE
8
VISIBLE
10
310.000000
20
193.500000
30
0.0
11
310.000000
21
224.750000
31
0.0
0
LINE
8
VISIBLE
10
415.200000
20
252.227480
30
0.0
11
412.750000
21
252.027113
31
0.0
0
LINE
8
VISIBLE
10
412.750000
20
252.027113
30
0.0
11
410.300000
21
251.609490
31
0.0
0
LINE
8
VISIBLE
10
334.000000
20
162.250000
30
0.0
11
325.000000
21
162.250000
31
0.0
0
LINE
8
VISIBLE
10
335.000000
20
234.750000
30
0.0
11
335.000000
21
237.250000
31
0.0
0
LINE
8
VISIBLE
10
342.500000
20
237.250000
30
0.0
11
342.500000
21
247.000000
31
0.0
0
LINE
8
VISIBLE
10
439.000000
20
252.250000
30
0.0
11
416.200000
21
252.250000
31
0.0
0
LINE
8
VISIBLE
10
508.500000
20
234.750000
30
0.0
11
596.000000
21
234.750000
31
0.0
0
LINE
8
VISIBLE
10
606.000000
20
193.500000
30
0.0
11
606.000000
21
224.750000
31
0.0
0
LINE
8
VISIBLE
10
563.471319
20
193.500000
30
0.0
11
606.000000
21
193.500000
31
0.0
0
LINE
8
VISIBLE
10
508.500000
20
222.250000
30
0.0
11
563.471319
21
193.500000
31
0.0
0
LINE
8
VISIBLE
10
477.000000
20
222.250000
30
0.0
11
508.500000
21
222.250000
31
0.0
0
LINE
8
VISIBLE
10
477.000000
20
222.250000
30
0.0
11
477.000000
21
239.750000
31
0.0
0
LINE
8
VISIBLE
10
477.000000
20
239.750000
30
0.0
11
508.500000
21
239.750000
31
0.0
0
LINE
8
VISIBLE
10
508.500000
20
234.750000
30
0.0
11
508.500000
21
239.750000
31
0.0
0
LINE
8
VISIBLE
10
606.000000
20
193.500000
30
0.0
11
606.000000
21
190.886788
31
0.0
0
LINE
8
VISIBLE
10
606.000000
20
190.886788
30
0.0
11
606.000000
21
188.302208
31
0.0
0
LINE
8
VISIBLE
10
606.000000
20
188.302208
30
0.0
11
606.000000
21
185.774575
31
0.0
0
LINE
8
VISIBLE
10
606.000000
20
185.774575
30
0.0
11
606.000000
21
183.331584
31
0.0
0
LINE
8
VISIBLE
10
606.000000
20
183.331584
30
0.0
11
606.000000
21
181.000000
31
0.0
0
LINE
8
VISIBLE
10
606.000000
20
181.000000
30
0.0
11
606.000000
21
178.805369
31
0.0
0
LINE
8
VISIBLE
10
606.000000
20
178.805369
30
0.0
11
606.000000
21
176.771735
31
0.0
0
LINE
8
VISIBLE
10
606.000000
20
176.771735
30
0.0
11
606.000000
21
174.921379
31
0.0
0
LINE
8
VISIBLE
10
606.000000
20
174.921379
30
0.0
11
606.000000
21
173.274575
31
0.0
0
LINE
8
VISIBLE
10
606.000000
20
173.274575
30
0.0
11
606.000000
21
171.849365
31
0.0
0
LINE
8
VISIBLE
10
606.000000
20
171.849365
30
0.0
11
606.000000
21
153.099365
31
0.0
0
LINE
8
VISIBLE
10
606.000000
20
153.099365
30
0.0
11
606.000000
21
151.911364
31
0.0
0
LINE
8
VISIBLE
10
606.000000
20
151.911364
30
0.0
11
606.000000
21
150.973587
31
0.0
0
LINE
8
VISIBLE
10
606.000000
20
150.973587
30
0.0
11
606.000000
21
150.296310
31
0.0
0
LINE
8
VISIBLE
10
606.000000
20
150.296310
30
0.0
11
606.000000
21
149.886953
31
0.0
0
LINE
8
VISIBLE
10
606.000000
20
149.886953
30
0.0
11
606.000000
21
149.750000
31
0.0
0
LINE
8
VISIBLE
10
523.500000
20
234.750000
30
0.0
11
509.350000
21
234.750000
31
0.0
0
LINE
8
VISIBLE
10
563.471319
20
193.500000
30
0.0
11
568.467900
21
190.886788
31
0.0
0
LINE
8
VISIBLE
10
568.467900
20
190.886788
30
0.0
11
606.000000
21
190.886788
31
0.0
0
LINE
8
VISIBLE
10
568.467900
20
190.886788
30
0.0
11
573.409737
21
188.302208
31
0.0
0
LINE
8
VISIBLE
10
573.409737
20
188.302208
30
0.0
11
578.242686
21
185.774575
31
0.0
0
LINE
8
VISIBLE
10
578.242686
20
185.774575
30
0.0
11
579.750000
21
184.986250
31
0.0
0
LINE
8
VISIBLE
10
508.500000
20
222.250000
30
0.0
11
506.000000
21
222.250000
31
0.0
0
LINE
8
VISIBLE
10
477.000000
20
239.750000
30
0.0
11
477.000000
21
252.250000
31
0.0
0
LINE
8
VISIBLE
10
499.600000
20
252.249100
30
0.0
11
499.800000
21
252.250000
31
0.0
0
LINE
8
VISIBLE
10
499.800000
20
252.250000
30
0.0
11
500.800000
21
252.227480
31
0.0
0
LINE
8
VISIBLE
10
500.800000
20
252.227480
30
0.0
11
503.250000
21
252.027113
31
0.0
0
LINE
8
VISIBLE
10
503.250000
20
252.027113
30
0.0
11
505.700000
21
251.609490
31
0.0
0
LINE
8
VISIBLE
10
505.700000
20
251.609490
30
0.0
11
508.100000
21
250.604032
31
0.0
0
LINE
8
VISIBLE
10
508.100000
20
250.604032
30
0.0
11
509.350000
21
249.396113
31
0.0
0
LINE
8
VISIBLE
10
509.350000
20
249.396113
30
0.0
11
508.500000
21
239.750000
31
0.0
0
LINE
8
VISIBLE
10
509.350000
20
234.750000
30
0.0
11
509.350000
21
249.396113
31
0.0
0
LINE
8
VISIBLE
10
573.409737
20
188.302208
30
0.0
11
606.000000
21
188.302208
31
0.0
0
LINE
8
VISIBLE
10
578.242686
20
185.774575
30
0.0
11
606.000000
21
185.774575
31
0.0
0
LINE
8
VISIBLE
10
579.750000
20
184.986250
30
0.0
11
579.750000
21
183.331584
31
0.0
0
LINE
8
VISIBLE
10
579.750000
20
183.331584
30
0.0
11
606.000000
21
183.331584
31
0.0
0
LINE
8
VISIBLE
10
579.750000
20
183.331584
30
0.0
11
579.750000
21
181.000000
31
0.0
0
LINE
8
VISIBLE
10
579.750000
20
181.000000
30
0.0
11
606.000000
21
181.000000
31
0.0
0
LINE
8
VISIBLE
10
579.750000
20
181.000000
30
0.0
11
579.750000
21
178.805369
31
0.0
0
LINE
8
VISIBLE
10
579.750000
20
178.805369
30
0.0
11
606.000000
21
178.805369
31
0.0
0
LINE
8
VISIBLE
10
579.750000
20
178.805369
30
0.0
11
579.750000
21
176.771735
31
0.0
0
LINE
8
VISIBLE
10
579.750000
20
176.771735
30
0.0
11
606.000000
21
176.771735
31
0.0
0
LINE
8
VISIBLE
10
579.750000
20
176.771735
30
0.0
11
579.750000
21
176.193114
31
0.0
0
LINE
8
VISIBLE
10
591.000000
20
176.193114
30
0.0
11
579.750000
21
176.193114
31
0.0
0
LINE
8
VISIBLE
10
591.000000
20
176.193114
30
0.0
11
591.000000
21
174.921379
31
0.0
0
LINE
8
VISIBLE
10
591.000000
20
174.921379
30
0.0
11
606.000000
21
174.921379
31
0.0
0
LINE
8
VISIBLE
10
591.000000
20
174.921379
30
0.0
11
591.000000
21
173.274575
31
0.0
0
LINE
8
VISIBLE
10
591.000000
20
173.274575
30
0.0
11
606.000000
21
173.274575
31
0.0
0
LINE
8
VISIBLE
10
591.000000
20
173.274575
30
0.0
11
591.000000
21
171.849365
31
0.0
0
LINE
8
VISIBLE
10
591.000000
20
171.849365
30
0.0
11
606.000000
21
171.849365
31
0.0
0
LINE
8
VISIBLE
10
591.000000
20
171.849365
30
0.0
11
591.000000
21
153.099365
31
0.0
0
LINE
8
VISIBLE
10
591.000000
20
153.099365
30
0.0
11
606.000000
21
153.099365
31
0.0
0
LINE
8
VISIBLE
10
591.000000
20
153.099365
30
0.0
11
591.000000
21
151.911364
31
0.0
0
LINE
8
VISIBLE
10
591.000000
20
151.911364
30
0.0
11
606.000000
21
151.911364
31
0.0
0
LINE
8
VISIBLE
10
591.000000
20
151.911364
30
0.0
11
591.000000
21
150.973587
31
0.0
0
LINE
8
VISIBLE
10
591.000000
20
150.973587
30
0.0
11
606.000000
21
150.973587
31
0.0
0
LINE
8
VISIBLE
10
591.000000
20
150.973587
30
0.0
11
591.000000
21
150.296310
31
0.0
0
LINE
8
VISIBLE
10
591.000000
20
150.296310
30
0.0
11
606.000000
21
150.296310
31
0.0
0
LINE
8
VISIBLE
10
591.000000
20
150.296310
30
0.0
11
591.000000
21
149.886953
31
0.0
0
LINE
8
VISIBLE
10
591.000000
20
149.886953
30
0.0
11
606.000000
21
149.886953
31
0.0
0
LINE
8
VISIBLE
10
591.000000
20
149.886953
30
0.0
11
591.000000
21
149.750000
31
0.0
0
LINE
8
VISIBLE
10
582.000000
20
162.250000
30
0.0
11
582.000000
21
176.193114
31
0.0
0
LINE
8
VISIBLE
10
509.350000
20
247.000000
30
0.0
11
523.500000
21
247.000000
31
0.0
0
LINE
8
VISIBLE
10
573.500000
20
247.000000
30
0.0
11
523.500000
21
247.000000
31
0.0
0
LINE
8
VISIBLE
10
523.500000
20
237.250000
30
0.0
11
523.500000
21
247.000000
31
0.0
0
LINE
8
VISIBLE
10
581.000000
20
237.250000
30
0.0
11
523.500000
21
237.250000
31
0.0
0
LINE
8
VISIBLE
10
523.500000
20
234.750000
30
0.0
11
523.500000
21
237.250000
31
0.0
0
LINE
8
VISIBLE
10
477.000000
20
252.250000
30
0.0
11
499.800000
21
252.250000
31
0.0
0
LINE
8
SECTION
10
582.000000
20
187.250000
30
0.0
11
591.000000
21
187.250000
31
0.0
0
LINE
8
SECTION
10
591.000000
20
214.750000
30
0.0
11
591.000000
21
187.250000
31
0.0
0
LINE
8
SECTION
10
586.000000
20
214.750000
30
0.0
11
591.000000
21
214.750000
31
0.0
0
LINE
8
SECTION
10
586.000000
20
222.250000
30
0.0
11
586.000000
21
214.750000
31
0.0
0
LINE
8
SECTION
10
586.000000
20
222.250000
30
0.0
11
574.500000
21
222.250000
31
0.0
0
LINE
8
SECTION
10
574.500000
20
222.250000
30
0.0
11
574.500000
21
232.250000
31
0.0
0
LINE
8
SECTION
10
569.000000
20
232.250000
30
0.0
11
574.500000
21
232.250000
31
0.0
0
LINE
8
SECTION
10
569.000000
20
232.250000
30
0.0
11
569.000000
21
247.000000
31
0.0
0
LINE
8
SECTION
10
569.000000
20
247.000000
30
0.0
11
573.500000
21
247.000000
31
0.0
0
LINE
8
SECTION
10
573.500000
20
237.250000
30
0.0
11
573.500000
21
247.000000
31
0.0
0
LINE
8
SECTION
10
573.500000
20
237.250000
30
0.0
11
581.000000
21
237.250000
31
0.0
0
LINE
8
SECTION
10
581.000000
20
234.750000
30
0.0
11
581.000000
21
237.250000
31
0.0
0
LINE
8
SECTION
10
581.000000
20
234.750000
30
0.0
11
596.000000
21
234.750000
31
0.0
0
ARC
8
SECTION
10
596.000000
20
224.750000
30
0.0
40
10.000000
50
0.000000
51
90.000000
0
LINE
8
SECTION
10
606.000000
20
224.750000
30
0.0
11
606.000000
21
188.500000
31
0.0
0
LINE
8
SECTION
10
593.500000
20
188.500000
30
0.0
11
606.000000
21
188.500000
31
0.0
0
LINE
8
SECTION
10
593.500000
20
188.500000
30
0.0
11
593.500000
21
181.500000
31
0.0
0
LINE
8
SECTION
10
582.000000
20
181.500000
30
0.0
11
593.500000
21
181.500000
31
0.0
0
LINE
8
SECTION
10
582.000000
20
187.250000
30
0.0
11
582.000000
21
181.500000
31
0.0
0
LINE
8
SECTION
10
591.000000
20
162.250000
30
0.0
11
591.000000
21
149.750000
31
0.0
0
LINE
8
SECTION
10
582.000000
20
162.250000
30
0.0
11
591.000000
21
162.250000
31
0.0
0
LINE
8
SECTION
10
582.000000
20
168.000000
30
0.0
11
582.000000
21
162.250000
31
0.0
0
LINE
8
SECTION
10
582.000000
20
168.000000
30
0.0
11
593.500000
21
168.000000
31
0.0
0
LINE
8
SECTION
10
593.500000
20
168.000000
30
0.0
11
593.500000
21
161.000000
31
0.0
0
LINE
8
SECTION
10
593.500000
20
161.000000
30
0.0
11
606.000000
21
161.000000
31
0.0
0
LINE
8
SECTION
10
606.000000
20
161.000000
30
0.0
11
606.000000
21
149.750000
31
0.0
0
LINE
8
SECTION
10
591.000000
20
149.750000
30
0.0
11
606.000000
21
149.750000
31
0.0
0
LINE
8
SECTION
10
477.000000
20
234.750000
30
0.0
11
486.000000
21
234.750000
31
0.0
0
LINE
8
SECTION
10
486.000000
20
234.750000
30
0.0
11
486.000000
21
237.250000
31
0.0
0
LINE
8
SECTION
10
486.000000
20
237.250000
30
0.0
11
493.500000
21
237.250000
31
0.0
0
LINE
8
SECTION
10
493.500000
20
237.250000
30
0.0
11
493.500000
21
247.000000
31
0.0
0
LINE
8
SECTION
10
493.500000
20
247.000000
30
0.0
11
498.000000
21
247.000000
31
0.0
0
LINE
8
SECTION
10
498.000000
20
232.250000
30
0.0
11
498.000000
21
247.000000
31
0.0
0
LINE
8
SECTION
10
492.500000
20
232.250000
30
0.0
11
498.000000
21
232.250000
31
0.0
0
LINE
8
SECTION
10
492.500000
20
222.250000
30
0.0
11
492.500000
21
232.250000
31
0.0
0
LINE
8
SECTION
10
492.500000
20
222.250000
30
0.0
11
477.000000
21
222.250000
31
0.0
0
LINE
8
SECTION
10
477.000000
20
222.250000
30
0.0
11
477.000000
21
234.750000
31
0.0
0
LINE
8
SECTION
10
514.500000
20
222.250000
30
0.0
11
514.500000
21
232.250000
31
0.0
0
LINE
8
SECTION
10
509.000000
20
232.250000
30
0.0
11
514.500000
21
232.250000
31
0.0
0
LINE
8
SECTION
10
509.000000
20
232.250000
30
0.0
11
509.000000
21
247.000000
31
0.0
0
LINE
8
SECTION
10
509.000000
20
247.000000
30
0.0
11
558.000000
21
247.000000
31
0.0
0
LINE
8
SECTION
10
558.000000
20
232.250000
30
0.0
11
558.000000
21
247.000000
31
0.0
0
LINE
8
SECTION
10
552.500000
20
232.250000
30
0.0
11
558.000000
21
232.250000
31
0.0
0
LINE
8
SECTION
10
552.500000
20
222.250000
30
0.0
11
552.500000
21
232.250000
31
0.0
0
LINE
8
SECTION
10
552.500000
20
222.250000
30
0.0
11
514.500000
21
222.250000
31
0.0
0
LINE
8
VISIBLE
10
827.000000
20
541.126467
30
0.0
11
826.568664
21
543.122432
31
0.0
0
LINE
8
VISIBLE
10
826.568664
20
543.122432
30
0.0
11
825.264094
21
545.172100
31
0.0
0
LINE
8
VISIBLE
10
825.264094
20
545.172100
30
0.0
11
824.131148
21
546.095466
31
0.0
0
LINE
8
VISIBLE
10
799.028689
20
560.588377
30
0.0
11
824.131148
21
546.095466
31
0.0
0
LINE
8
VISIBLE
10
827.000000
20
530.774388
30
0.0
11
827.000000
21
541.126467
31
0.0
0
LINE
8
VISIBLE
10
814.799149
20
537.818552
30
0.0
11
827.000000
21
530.774388
31
0.0
0
LINE
8
VISIBLE
10
799.028689
20
556.447545
30
0.0
11
814.799149
21
537.818552
31
0.0
0
LINE
8
VISIBLE
10
789.991803
20
561.664993
30
0.0
11
799.028689
21
556.447545
31
0.0
0
LINE
8
VISIBLE
10
789.991803
20
561.664993
30
0.0
11
789.991803
21
567.462158
31
0.0
0
LINE
8
VISIBLE
10
789.991803
20
567.462158
30
0.0
11
799.028689
21
562.244710
31
0.0
0
LINE
8
VISIBLE
10
799.028689
20
560.588377
30
0.0
11
799.028689
21
562.244710
31
0.0
0
LINE
8
VISIBLE
10
795.872951
20
524.645957
30
0.0
11
794.741678
21
523.503275
31
0.0
0
LINE
8
VISIBLE
10
794.741678
20
523.503275
30
0.0
11
794.225754
21
521.130395
31
0.0
0
LINE
8
VISIBLE
10
796.372607
20
524.848853
30
0.0
11
795.872951
21
524.645957
31
0.0
0
LINE
8
VISIBLE
10
794.855758
20
525.880646
30
0.0
11
794.508135
21
526.257224
31
0.0
0
LINE
8
VISIBLE
10
794.508135
20
526.257224
30
0.0
11
793.290984
21
526.136656
31
0.0
0
LINE
8
VISIBLE
10
794.855758
20
525.880646
30
0.0
11
796.290184
21
525.052480
31
0.0
0
LINE
8
VISIBLE
10
793.160636
20
523.245634
30
0.0
11
793.097958
21
521.733913
31
0.0
0
LINE
8
VISIBLE
10
793.097958
20
521.733913
30
0.0
11
793.508259
21
521.212723
31
0.0
0
LINE
8
VISIBLE
10
793.508259
20
521.212723
30
0.0
11
794.413222
21
521.186012
31
0.0
0
LINE
8
VISIBLE
10
794.413222
20
521.186012
30
0.0
11
795.551216
21
522.053745
31
0.0
0
LINE
8
VISIBLE
10
795.551216
20
522.053745
30
0.0
11
796.376086
21
523.710370
31
0.0
0
LINE
8
VISIBLE
10
796.376086
20
523.710370
30
0.0
11
796.290184
21
525.052480
31
0.0
0
LINE
8
VISIBLE
10
791.726209
20
524.073800
30
0.0
11
793.160636
21
523.245634
31
0.0
0
LINE
8
VISIBLE
10
793.290984
20
526.136656
30
0.0
11
791.726209
21
524.073800
31
0.0
0
LINE
8
VISIBLE
10
783.280081
20
517.100140
30
0.0
11
781.807346
21
518.770726
31
0.0
0
LINE
8
VISIBLE
10
784.815259
20
515.493226
30
0.0
11
783.280081
21
517.100140
31
0.0
0
LINE
8
VISIBLE
10
786.396062
20
513.967588
30
0.0
11
784.815259
21
515.493226
31
0.0
0
LINE
8
VISIBLE
10
787.097522
20
513.063972
30
0.0
11
786.915302
21
513.506903
31
0.0
0
LINE
8
VISIBLE
10
786.915302
20
513.506903
30
0.0
11
786.396062
21
513.967588
31
0.0
0
LINE
8
VISIBLE
10
787.438342
20
512.488369
30
0.0
11
787.097522
21
513.063972
31
0.0
0
LINE
8
VISIBLE
10
787.847214
20
511.997423
30
0.0
11
787.438342
21
512.488369
31
0.0
0
LINE
8
VISIBLE
10
788.319658
20
511.596514
30
0.0
11
787.847214
21
511.997423
31
0.0
0
LINE
8
VISIBLE
10
792.077957
20
509.426659
30
0.0
11
791.713115
21
509.637301
31
0.0
0
LINE
8
VISIBLE
10
791.713115
20
509.637301
30
0.0
11
788.485656
21
511.500675
31
0.0
0
LINE
8
VISIBLE
10
788.485656
20
511.500675
30
0.0
11
788.319658
21
511.596514
31
0.0
0
LINE
8
VISIBLE
10
792.077957
20
509.426659
30
0.0
11
796.381235
21
506.942160
31
0.0
0
LINE
8
VISIBLE
10
792.661376
20
509.217966
30
0.0
11
792.077957
21
509.426659
31
0.0
0
LINE
8
VISIBLE
10
796.964655
20
506.733466
30
0.0
11
796.381235
21
506.942160
31
0.0
0
LINE
8
VISIBLE
10
792.661376
20
509.217966
30
0.0
11
796.964655
21
506.733466
31
0.0
0
LINE
8
VISIBLE
10
793.290984
20
509.109345
30
0.0
11
792.661376
21
509.217966
31
0.0
0
LINE
8
VISIBLE
10
797.594262
20
506.624846
30
0.0
11
796.964655
21
506.733466
31
0.0
0
LINE
8
VISIBLE
10
793.290984
20
509.109345
30
0.0
11
797.594262
21
506.624846
31
0.0
0
LINE
8
VISIBLE
10
802.614754
20
508.281179
30
0.0
11
793.290984
21
509.109345
31
0.0
0
LINE
8
VISIBLE
10
806.918033
20
505.796680
30
0.0
11
797.594262
21
506.624846
31
0.0
0
LINE
8
VISIBLE
10
802.614754
20
508.281179
30
0.0
11
806.918033
21
505.796680
31
0.0
0
LINE
8
VISIBLE
10
803.283651
20
508.273821
30
0.0
11
802.614754
21
508.281179
31
0.0
0
LINE
8
VISIBLE
10
807.586930
20
505.789322
30
0.0
11
806.918033
21
505.796680
31
0.0
0
LINE
8
VISIBLE
10
803.283651
20
508.273821
30
0.0
11
807.586930
21
505.789322
31
0.0
0
LINE
8
VISIBLE
10
803.984509
20
508.367808
30
0.0
11
803.283651
21
508.273821
31
0.0
0
LINE
8
VISIBLE
10
808.287788
20
505.883309
30
0.0
11
807.586930
21
505.789322
31
0.0
0
LINE
8
VISIBLE
10
803.984509
20
508.367808
30
0.0
11
808.287788
21
505.883309
31
0.0
0
LINE
8
VISIBLE
10
804.709650
20
508.562109
30
0.0
11
803.984509
21
508.367808
31
0.0
0
LINE
8
VISIBLE
10
809.012928
20
506.077610
30
0.0
11
808.287788
21
505.883309
31
0.0
0
LINE
8
VISIBLE
10
804.709650
20
508.562109
30
0.0
11
809.012928
21
506.077610
31
0.0
0
LINE
8
VISIBLE
10
805.451128
20
508.854595
30
0.0
11
804.709650
21
508.562109
31
0.0
0
LINE
8
VISIBLE
10
809.754407
20
506.370096
30
0.0
11
809.012928
21
506.077610
31
0.0
0
LINE
8
VISIBLE
10
805.451128
20
508.854595
30
0.0
11
809.754407
21
506.370096
31
0.0
0
LINE
8
VISIBLE
10
806.200820
20
509.242062
30
0.0
11
805.451128
21
508.854595
31
0.0
0
LINE
8
VISIBLE
10
810.504098
20
506.757563
30
0.0
11
809.754407
21
506.370096
31
0.0
0
LINE
8
VISIBLE
10
806.200820
20
509.242062
30
0.0
11
810.504098
21
506.757563
31
0.0
0
LINE
8
VISIBLE
10
806.950512
20
509.720265
30
0.0
11
806.200820
21
509.242062
31
0.0
0
LINE
8
VISIBLE
10
811.253790
20
507.235766
30
0.0
11
810.504098
21
506.757563
31
0.0
0
LINE
8
VISIBLE
10
806.950512
20
509.720265
30
0.0
11
811.253790
21
507.235766
31
0.0
0
LINE
8
VISIBLE
10
807.691990
20
510.283964
30
0.0
11
806.950512
21
509.720265
31
0.0
0
LINE
8
VISIBLE
10
811.995268
20
507.799465
30
0.0
11
811.253790
21
507.235766
31
0.0
0
LINE
8
VISIBLE
10
807.691990
20
510.283964
30
0.0
11
811.995268
21
507.799465
31
0.0
0
LINE
8
VISIBLE
10
808.417130
20
510.926983
30
0.0
11
807.691990
21
510.283964
31
0.0
0
LINE
8
VISIBLE
10
812.720409
20
508.442484
30
0.0
11
811.995268
21
507.799465
31
0.0
0
LINE
8
VISIBLE
10
808.417130
20
510.926983
30
0.0
11
812.720409
21
508.442484
31
0.0
0
LINE
8
VISIBLE
10
809.117988
20
511.642278
30
0.0
11
808.417130
21
510.926983
31
0.0
0
LINE
8
VISIBLE
10
813.421267
20
509.157778
30
0.0
11
812.720409
21
508.442484
31
0.0
0
LINE
8
VISIBLE
10
809.117988
20
511.642278
30
0.0
11
813.421267
21
509.157778
31
0.0
0
LINE
8
VISIBLE
10
809.786885
20
512.422011
30
0.0
11
809.117988
21
511.642278
31
0.0
0
LINE
8
VISIBLE
10
814.090164
20
509.937511
30
0.0
11
813.421267
21
509.157778
31
0.0
0
LINE
8
VISIBLE
10
809.786885
20
512.422011
30
0.0
11
814.090164
21
509.937511
31
0.0
0
LINE
8
VISIBLE
10
819.110656
20
524.016340
30
0.0
11
809.786885
21
512.422011
31
0.0
0
LINE
8
VISIBLE
10
823.413934
20
521.531841
30
0.0
11
814.090164
21
509.937511
31
0.0
0
LINE
8
VISIBLE
10
819.110656
20
524.016340
30
0.0
11
823.413934
21
521.531841
31
0.0
0
LINE
8
VISIBLE
10
819.740263
20
524.851968
30
0.0
11
819.110656
21
524.016340
31
0.0
0
LINE
8
VISIBLE
10
824.043542
20
522.367469
30
0.0
11
823.413934
21
521.531841
31
0.0
0
LINE
8
VISIBLE
10
819.740263
20
524.851968
30
0.0
11
824.043542
21
522.367469
31
0.0
0
LINE
8
VISIBLE
10
814.799149
20
537.818552
30
0.0
11
816.193305
21
536.102599
31
0.0
0
LINE
8
VISIBLE
10
816.193305
20
536.102599
30
0.0
11
817.493606
21
534.360078
31
0.0
0
LINE
8
VISIBLE
10
817.493606
20
534.360078
30
0.0
11
818.685807
21
532.610081
31
0.0
0
LINE
8
VISIBLE
10
818.685807
20
532.610081
30
0.0
11
819.031419
21
532.049152
31
0.0
0
LINE
8
VISIBLE
10
819.031419
20
532.049152
30
0.0
11
817.461066
21
531.142508
31
0.0
0
LINE
8
VISIBLE
10
817.461066
20
531.142508
30
0.0
11
797.020492
21
555.288112
31
0.0
0
LINE
8
VISIBLE
10
799.028689
20
556.447545
30
0.0
11
797.020492
21
555.288112
31
0.0
0
LINE
8
VISIBLE
10
816.193305
20
536.102599
30
0.0
11
826.960710
21
529.886034
31
0.0
0
LINE
8
VISIBLE
10
827.000000
20
530.774388
30
0.0
11
826.960710
21
529.886034
31
0.0
0
LINE
8
VISIBLE
10
817.493606
20
534.360078
30
0.0
11
826.843272
21
528.962046
31
0.0
0
LINE
8
VISIBLE
10
826.960710
20
529.886034
30
0.0
11
826.843272
21
528.962046
31
0.0
0
LINE
8
VISIBLE
10
818.685807
20
532.610081
30
0.0
11
826.648971
21
528.012546
31
0.0
0
LINE
8
VISIBLE
10
826.843272
20
528.962046
30
0.0
11
826.648971
21
528.012546
31
0.0
0
LINE
8
VISIBLE
10
819.031419
20
532.049152
30
0.0
11
818.849199
21
531.395811
31
0.0
0
LINE
8
VISIBLE
10
818.849199
20
531.395811
30
0.0
11
826.379937
21
527.047938
31
0.0
0
LINE
8
VISIBLE
10
826.648971
20
528.012546
30
0.0
11
826.379937
21
527.047938
31
0.0
0
LINE
8
VISIBLE
10
818.849199
20
531.395811
30
0.0
11
818.508379
21
530.426663
31
0.0
0
LINE
8
VISIBLE
10
818.508379
20
530.426663
30
0.0
11
818.099507
21
529.463593
31
0.0
0
LINE
8
VISIBLE
10
818.099507
20
529.463593
30
0.0
11
817.627063
21
528.517152
31
0.0
0
LINE
8
VISIBLE
10
817.627063
20
528.517152
30
0.0
11
817.461066
21
528.229636
31
0.0
0
LINE
8
VISIBLE
10
817.461066
20
528.229636
30
0.0
11
817.461066
21
531.142508
31
0.0
0
LINE
8
VISIBLE
10
820.688525
20
526.366262
30
0.0
11
817.461066
21
528.229636
31
0.0
0
LINE
8
VISIBLE
10
820.688525
20
526.366262
30
0.0
11
820.323683
21
525.734337
31
0.0
0
LINE
8
VISIBLE
10
820.323683
20
525.734337
30
0.0
11
824.626961
21
523.249838
31
0.0
0
LINE
8
VISIBLE
10
825.157801
20
524.169279
30
0.0
11
824.626961
21
523.249838
31
0.0
0
LINE
8
VISIBLE
10
817.627063
20
528.517152
30
0.0
11
825.157801
21
524.169279
31
0.0
0
LINE
8
VISIBLE
10
820.323683
20
525.734337
30
0.0
11
819.740263
21
524.851968
31
0.0
0
LINE
8
VISIBLE
10
824.626961
20
523.249838
30
0.0
11
824.043542
21
522.367469
31
0.0
0
LINE
8
VISIBLE
10
825.630245
20
525.115719
30
0.0
11
825.157801
21
524.169279
31
0.0
0
LINE
8
VISIBLE
10
818.099507
20
529.463593
30
0.0
11
825.630245
21
525.115719
31
0.0
0
LINE
8
VISIBLE
10
826.039117
20
526.078790
30
0.0
11
825.630245
21
525.115719
31
0.0
0
LINE
8
VISIBLE
10
818.508379
20
530.426663
30
0.0
11
826.039117
21
526.078790
31
0.0
0
LINE
8
VISIBLE
10
826.379937
20
527.047938
30
0.0
11
826.039117
21
526.078790
31
0.0
0
LINE
8
VISIBLE
10
788.485656
20
514.413547
30
0.0
11
768.045082
21
538.559152
31
0.0
0
LINE
8
VISIBLE
10
788.485656
20
514.413547
30
0.0
11
786.915302
21
513.506903
31
0.0
0
LINE
8
VISIBLE
10
781.807346
20
518.770726
30
0.0
11
766.036885
21
537.399719
31
0.0
0
LINE
8
VISIBLE
10
768.045082
20
538.559152
30
0.0
11
766.036885
21
537.399719
31
0.0
0
LINE
8
VISIBLE
10
813.031815
20
536.374598
30
0.0
11
794.855758
21
525.880646
31
0.0
0
LINE
8
VISIBLE
10
791.726209
20
524.073800
30
0.0
11
790.278689
21
523.238074
31
0.0
0
LINE
8
VISIBLE
10
790.278689
20
523.238074
30
0.0
11
790.278689
21
525.722573
31
0.0
0
LINE
8
VISIBLE
10
790.278689
20
525.722573
30
0.0
11
811.619052
21
538.043437
31
0.0
0
LINE
8
VISIBLE
10
791.713115
20
509.637301
30
0.0
11
791.713115
21
522.409907
31
0.0
0
LINE
8
VISIBLE
10
793.160636
20
523.245634
30
0.0
11
791.713115
21
522.409907
31
0.0
0
LINE
8
VISIBLE
10
813.973658
20
535.262038
30
0.0
11
796.290184
21
525.052480
31
0.0
0
LINE
8
VISIBLE
10
803.665088
20
513.131710
30
0.0
11
804.912031
21
512.915468
31
0.0
0
LINE
8
VISIBLE
10
804.912031
20
512.915468
30
0.0
11
806.490918
21
513.563954
31
0.0
0
LINE
8
VISIBLE
10
806.490918
20
513.563954
30
0.0
11
808.188645
21
515.224965
31
0.0
0
LINE
8
VISIBLE
10
808.188645
20
515.224965
30
0.0
11
809.449903
21
517.647128
31
0.0
0
LINE
8
VISIBLE
10
809.449903
20
517.647128
30
0.0
11
809.768305
21
520.004393
31
0.0
0
LINE
8
VISIBLE
10
809.768305
20
520.004393
30
0.0
11
809.439768
21
521.171027
31
0.0
0
LINE
8
VISIBLE
10
809.439768
20
521.171027
30
0.0
11
808.736551
21
521.915741
31
0.0
0
LINE
8
VISIBLE
10
788.485656
20
511.500675
30
0.0
11
788.485656
21
514.413547
31
0.0
0
LINE
8
VISIBLE
10
768.045082
20
538.559152
30
0.0
11
790.278689
21
525.722573
31
0.0
0
LINE
8
VISIBLE
10
791.713115
20
522.409907
30
0.0
11
790.278689
21
523.238074
31
0.0
0
LINE
8
VISIBLE
10
803.618852
20
523.155257
30
0.0
11
801.909572
21
521.667759
31
0.0
0
LINE
8
VISIBLE
10
801.909572
20
521.667759
30
0.0
11
800.527857
21
519.329239
31
0.0
0
LINE
8
VISIBLE
10
800.527857
20
519.329239
30
0.0
11
800.033057
21
516.893352
31
0.0
0
LINE
8
VISIBLE
10
800.033057
20
516.893352
30
0.0
11
800.466862
21
515.219841
31
0.0
0
LINE
8
VISIBLE
10
800.466862
20
515.219841
30
0.0
11
801.083121
21
514.622410
31
0.0
0
LINE
8
VISIBLE
10
801.083121
20
514.622410
30
0.0
11
802.330064
21
514.406167
31
0.0
0
LINE
8
VISIBLE
10
802.330064
20
514.406167
30
0.0
11
803.908951
21
515.054653
31
0.0
0
LINE
8
VISIBLE
10
803.908951
20
515.054653
30
0.0
11
805.606677
21
516.715665
31
0.0
0
LINE
8
VISIBLE
10
805.606677
20
516.715665
30
0.0
11
806.867935
21
519.137828
31
0.0
0
LINE
8
VISIBLE
10
806.867935
20
519.137828
30
0.0
11
807.186337
21
521.495093
31
0.0
0
LINE
8
VISIBLE
10
807.186337
20
521.495093
30
0.0
11
806.857801
21
522.661726
31
0.0
0
LINE
8
VISIBLE
10
806.857801
20
522.661726
30
0.0
11
806.154584
21
523.406441
31
0.0
0
LINE
8
VISIBLE
10
806.154584
20
523.406441
30
0.0
11
804.907641
21
523.622683
31
0.0
0
LINE
8
VISIBLE
10
804.907641
20
523.622683
30
0.0
11
803.618852
21
523.155257
31
0.0
0
LINE
8
VISIBLE
10
803.618852
20
521.250474
30
0.0
11
802.407083
21
520.058962
31
0.0
0
LINE
8
VISIBLE
10
802.407083
20
520.058962
30
0.0
11
801.703531
21
518.238218
31
0.0
0
LINE
8
VISIBLE
10
801.703531
20
518.238218
30
0.0
11
801.779908
21
517.252026
31
0.0
0
LINE
8
VISIBLE
10
801.779908
20
517.252026
30
0.0
11
802.249558
21
516.642737
31
0.0
0
LINE
8
VISIBLE
10
802.249558
20
516.642737
30
0.0
11
803.202187
21
516.590188
31
0.0
0
LINE
8
VISIBLE
10
803.202187
20
516.590188
30
0.0
11
804.409400
21
517.429615
31
0.0
0
LINE
8
VISIBLE
10
804.409400
20
517.429615
30
0.0
11
805.388251
21
519.127388
31
0.0
0
LINE
8
VISIBLE
10
805.388251
20
519.127388
30
0.0
11
805.468181
21
520.745380
31
0.0
0
LINE
8
VISIBLE
10
805.468181
20
520.745380
30
0.0
11
804.988147
21
521.386114
31
0.0
0
LINE
8
VISIBLE
10
804.988147
20
521.386114
30
0.0
11
803.618852
21
521.250474
31
0.0
0
LINE
8
VISIBLE
10
798.174571
20
564.453024
30
0.0
11
798.806710
21
563.642294
31
0.0
0
LINE
8
VISIBLE
10
798.806710
20
563.642294
30
0.0
11
799.028689
21
562.244710
31
0.0
0
LINE
8
VISIBLE
10
782.819672
20
561.664993
30
0.0
11
764.172131
21
550.898830
31
0.0
0
LINE
8
VISIBLE
10
787.689229
20
566.132766
30
0.0
11
787.445388
21
566.364302
31
0.0
0
LINE
8
VISIBLE
10
787.445388
20
566.364302
30
0.0
11
786.405738
21
566.261317
31
0.0
0
LINE
8
VISIBLE
10
787.689229
20
564.476433
30
0.0
11
787.689229
21
566.132766
31
0.0
0
LINE
8
VISIBLE
10
787.681107
20
564.455181
30
0.0
11
787.689229
21
564.476433
31
0.0
0
LINE
8
VISIBLE
10
785.130368
20
562.982511
30
0.0
11
785.366088
21
562.762849
31
0.0
0
LINE
8
VISIBLE
10
785.366088
20
562.762849
30
0.0
11
786.210874
21
562.768307
31
0.0
0
LINE
8
VISIBLE
10
786.210874
20
562.768307
30
0.0
11
787.681107
21
564.455181
31
0.0
0
LINE
8
VISIBLE
10
785.122247
20
562.994385
30
0.0
11
785.130368
21
562.982511
31
0.0
0
LINE
8
VISIBLE
10
785.122247
20
564.650718
30
0.0
11
785.122247
21
562.994385
31
0.0
0
LINE
8
VISIBLE
10
786.405738
20
566.261317
30
0.0
11
785.122247
21
564.650718
31
0.0
0
LINE
8
VISIBLE
10
782.819672
20
561.664993
30
0.0
11
782.819672
21
563.321326
31
0.0
0
LINE
8
VISIBLE
10
761.869556
20
551.225771
30
0.0
11
761.625715
21
551.457307
31
0.0
0
LINE
8
VISIBLE
10
761.625715
20
551.457307
30
0.0
11
760.586066
21
551.354322
31
0.0
0
LINE
8
VISIBLE
10
761.869556
20
549.569438
30
0.0
11
761.869556
21
551.225771
31
0.0
0
LINE
8
VISIBLE
10
761.861435
20
549.548186
30
0.0
11
761.869556
21
549.569438
31
0.0
0
LINE
8
VISIBLE
10
759.310696
20
548.075516
30
0.0
11
759.546416
21
547.855855
31
0.0
0
LINE
8
VISIBLE
10
759.546416
20
547.855855
30
0.0
11
760.391202
21
547.861312
31
0.0
0
LINE
8
VISIBLE
10
760.391202
20
547.861312
30
0.0
11
761.861435
21
549.548186
31
0.0
0
LINE
8
VISIBLE
10
759.302575
20
548.087391
30
0.0
11
759.310696
21
548.075516
31
0.0
0
LINE
8
VISIBLE
10
759.302575
20
549.743723
30
0.0
11
759.302575
21
548.087391
31
0.0
0
LINE
8
VISIBLE
10
760.586066
20
551.354322
30
0.0
11
759.302575
21
549.743723
31
0.0
0
LINE
8
VISIBLE
10
767.026639
20
552.595008
30
0.0
11
766.981598
21
552.648305
31
0.0
0
LINE
8
VISIBLE
10
767.044541
20
552.557217
30
0.0
11
767.026639
21
552.595008
31
0.0
0
LINE
8
VISIBLE
10
764.172131
20
550.898830
30
0.0
11
764.172131
21
552.555163
31
0.0
0
LINE
8
VISIBLE
10
764.172131
20
552.555163
30
0.0
11
765.606557
21
551.726997
31
0.0
0
LINE
8
VISIBLE
10
784.888729
20
549.112002
30
0.0
11
783.304855
21
549.991496
31
0.0
0
LINE
8
VISIBLE
10
783.304855
20
549.991496
30
0.0
11
780.904381
21
550.326012
31
0.0
0
LINE
8
VISIBLE
10
780.904381
20
550.326012
30
0.0
11
778.471155
21
549.834677
31
0.0
0
LINE
8
VISIBLE
10
778.471155
20
549.834677
30
0.0
11
776.993171
21
548.762537
31
0.0
0
LINE
8
VISIBLE
10
776.993171
20
548.762537
30
0.0
11
776.635474
21
547.751798
31
0.0
0
LINE
8
VISIBLE
10
776.635474
20
547.751798
30
0.0
11
777.070806
21
546.641818
31
0.0
0
LINE
8
VISIBLE
10
777.070806
20
546.641818
30
0.0
11
777.942623
21
545.929832
31
0.0
0
LINE
8
VISIBLE
10
785.343677
20
548.546500
30
0.0
11
784.888729
21
549.112002
31
0.0
0
LINE
8
VISIBLE
10
779.721897
20
545.300764
30
0.0
11
782.258920
21
545.263796
31
0.0
0
LINE
8
VISIBLE
10
782.258920
20
545.263796
30
0.0
11
784.428992
21
546.036742
31
0.0
0
LINE
8
VISIBLE
10
784.428992
20
546.036742
30
0.0
11
785.268588
21
546.834090
31
0.0
0
LINE
8
VISIBLE
10
785.268588
20
546.834090
30
0.0
11
785.561248
21
547.751798
31
0.0
0
LINE
8
VISIBLE
10
785.561248
20
547.751798
30
0.0
11
785.343677
21
548.546500
31
0.0
0
LINE
8
VISIBLE
10
778.742418
20
545.563428
30
0.0
11
779.721897
21
545.300764
31
0.0
0
LINE
8
VISIBLE
10
777.942623
20
545.929832
30
0.0
11
778.742418
21
545.563428
31
0.0
0
LINE
8
VISIBLE
10
777.942623
20
549.242498
30
0.0
11
779.969290
21
548.571637
31
0.0
0
LINE
8
VISIBLE
10
779.969290
20
548.571637
30
0.0
11
782.519183
21
548.621881
31
0.0
0
LINE
8
VISIBLE
10
782.519183
20
548.621881
30
0.0
11
784.516993
21
549.408131
31
0.0
0
LINE
8
VISIBLE
10
777.679728
20
549.408131
30
0.0
11
777.942623
21
549.242498
31
0.0
0
LINE
8
VISIBLE
10
779.520492
20
550.153481
30
0.0
11
781.017172
21
549.776992
31
0.0
0
LINE
8
VISIBLE
10
781.017172
20
549.776992
30
0.0
11
782.686915
21
550.159692
31
0.0
0
LINE
8
VISIBLE
10
779.509806
20
550.159692
30
0.0
11
779.520492
21
550.153481
31
0.0
0
LINE
8
VISIBLE
10
796.733607
20
550.153481
30
0.0
11
798.230287
21
549.776992
31
0.0
0
LINE
8
VISIBLE
10
798.230287
20
549.776992
30
0.0
11
799.900030
21
550.159692
31
0.0
0
LINE
8
VISIBLE
10
796.722921
20
550.159692
30
0.0
11
796.733607
21
550.153481
31
0.0
0
LINE
8
VISIBLE
10
779.520492
20
540.215484
30
0.0
11
781.017172
21
539.838996
31
0.0
0
LINE
8
VISIBLE
10
781.017172
20
539.838996
30
0.0
11
782.686915
21
540.221696
31
0.0
0
LINE
8
VISIBLE
10
779.509806
20
540.221696
30
0.0
11
779.520492
21
540.215484
31
0.0
0
LINE
8
VISIBLE
10
796.733607
20
540.215484
30
0.0
11
798.230287
21
539.838996
31
0.0
0
LINE
8
VISIBLE
10
798.230287
20
539.838996
30
0.0
11
799.900030
21
540.221696
31
0.0
0
LINE
8
VISIBLE
10
796.722921
20
540.221696
30
0.0
11
796.733607
21
540.215484
31
0.0
0
LINE
8
VISIBLE
10
795.155738
20
549.242498
30
0.0
11
797.182404
21
548.571637
31
0.0
0
LINE
8
VISIBLE
10
797.182404
20
548.571637
30
0.0
11
799.732298
21
548.621881
31
0.0
0
LINE
8
VISIBLE
10
799.732298
20
548.621881
30
0.0
11
801.730108
21
549.408131
31
0.0
0
LINE
8
VISIBLE
10
794.892843
20
549.408131
30
0.0
11
795.155738
21
549.242498
31
0.0
0
LINE
8
VISIBLE
10
777.942623
20
539.304501
30
0.0
11
779.969290
21
538.633640
31
0.0
0
LINE
8
VISIBLE
10
779.969290
20
538.633640
30
0.0
11
782.519183
21
538.683885
31
0.0
0
LINE
8
VISIBLE
10
782.519183
20
538.683885
30
0.0
11
784.516993
21
539.470135
31
0.0
0
LINE
8
VISIBLE
10
777.679728
20
539.470135
30
0.0
11
777.942623
21
539.304501
31
0.0
0
LINE
8
VISIBLE
10
795.155738
20
539.304501
30
0.0
11
797.182404
21
538.633640
31
0.0
0
LINE
8
VISIBLE
10
797.182404
20
538.633640
30
0.0
11
799.732298
21
538.683885
31
0.0
0
LINE
8
VISIBLE
10
799.732298
20
538.683885
30
0.0
11
801.730108
21
539.470135
31
0.0
0
LINE
8
VISIBLE
10
794.892843
20
539.470135
30
0.0
11
795.155738
21
539.304501
31
0.0
0
LINE
8
VISIBLE
10
795.155738
20
545.929832
30
0.0
11
797.182404
21
545.258971
31
0.0
0
LINE
8
VISIBLE
10
797.182404
20
545.258971
30
0.0
11
799.732298
21
545.309216
31
0.0
0
LINE
8
VISIBLE
10
799.732298
20
545.309216
30
0.0
11
801.807291
21
546.150066
31
0.0
0
LINE
8
VISIBLE
10
801.807291
20
546.150066
30
0.0
11
802.774362
21
547.751798
31
0.0
0
LINE
8
VISIBLE
10
802.774362
20
547.751798
30
0.0
11
802.339030
21
548.861778
31
0.0
0
LINE
8
VISIBLE
10
802.339030
20
548.861778
30
0.0
11
800.989219
21
549.813113
31
0.0
0
LINE
8
VISIBLE
10
800.989219
20
549.813113
30
0.0
11
798.740325
21
550.316524
31
0.0
0
LINE
8
VISIBLE
10
798.740325
20
550.316524
30
0.0
11
796.215127
21
550.026491
31
0.0
0
LINE
8
VISIBLE
10
796.215127
20
550.026491
30
0.0
11
794.447768
21
549.041389
31
0.0
0
LINE
8
VISIBLE
10
794.447768
20
549.041389
30
0.0
11
793.848588
21
547.751798
31
0.0
0
LINE
8
VISIBLE
10
793.848588
20
547.751798
30
0.0
11
794.283921
21
546.641818
31
0.0
0
LINE
8
VISIBLE
10
794.283921
20
546.641818
30
0.0
11
795.155738
21
545.929832
31
0.0
0
LINE
8
VISIBLE
10
777.942623
20
535.991836
30
0.0
11
779.969290
21
535.320975
31
0.0
0
LINE
8
VISIBLE
10
779.969290
20
535.320975
30
0.0
11
782.519183
21
535.371220
31
0.0
0
LINE
8
VISIBLE
10
782.519183
20
535.371220
30
0.0
11
784.594176
21
536.212070
31
0.0
0
LINE
8
VISIBLE
10
784.594176
20
536.212070
30
0.0
11
785.561248
21
537.813802
31
0.0
0
LINE
8
VISIBLE
10
785.561248
20
537.813802
30
0.0
11
785.125915
21
538.923782
31
0.0
0
LINE
8
VISIBLE
10
785.125915
20
538.923782
30
0.0
11
783.776104
21
539.875116
31
0.0
0
LINE
8
VISIBLE
10
783.776104
20
539.875116
30
0.0
11
781.527210
21
540.378527
31
0.0
0
LINE
8
VISIBLE
10
781.527210
20
540.378527
30
0.0
11
779.002012
21
540.088495
31
0.0
0
LINE
8
VISIBLE
10
779.002012
20
540.088495
30
0.0
11
777.234654
21
539.103392
31
0.0
0
LINE
8
VISIBLE
10
777.234654
20
539.103392
30
0.0
11
776.635474
21
537.813802
31
0.0
0
LINE
8
VISIBLE
10
776.635474
20
537.813802
30
0.0
11
777.070806
21
536.703822
31
0.0
0
LINE
8
VISIBLE
10
777.070806
20
536.703822
30
0.0
11
777.942623
21
535.991836
31
0.0
0
LINE
8
VISIBLE
10
795.155738
20
535.991836
30
0.0
11
797.182404
21
535.320975
31
0.0
0
LINE
8
VISIBLE
10
797.182404
20
535.320975
30
0.0
11
799.732298
21
535.371220
31
0.0
0
LINE
8
VISIBLE
10
799.732298
20
535.371220
30
0.0
11
801.807291
21
536.212070
31
0.0
0
LINE
8
VISIBLE
10
801.807291
20
536.212070
30
0.0
11
802.774362
21
537.813802
31
0.0
0
LINE
8
VISIBLE
10
802.774362
20
537.813802
30
0.0
11
802.339030
21
538.923782
31
0.0
0
LINE
8
VISIBLE
10
802.339030
20
538.923782
30
0.0
11
800.989219
21
539.875116
31
0.0
0
LINE
8
VISIBLE
10
800.989219
20
539.875116
30
0.0
11
798.740325
21
540.378527
31
0.0
0
LINE
8
VISIBLE
10
798.740325
20
540.378527
30
0.0
11
796.215127
21
540.088495
31
0.0
0
LINE
8
VISIBLE
10
796.215127
20
540.088495
30
0.0
11
794.447768
21
539.103392
31
0.0
0
LINE
8
VISIBLE
10
794.447768
20
539.103392
30
0.0
11
793.848588
21
537.813802
31
0.0
0
LINE
8
VISIBLE
10
793.848588
20
537.813802
30
0.0
11
794.283921
21
536.703822
31
0.0
0
LINE
8
VISIBLE
10
794.283921
20
536.703822
30
0.0
11
795.155738
21
535.991836
31
0.0
0
LINE
8
VISIBLE
10
789.991803
20
561.664993
30
0.0
11
757.000000
21
542.617167
31
0.0
0
LINE
8
VISIBLE
10
757.000000
20
542.617167
30
0.0
11
757.000000
21
548.414331
31
0.0
0
LINE
8
VISIBLE
10
760.586066
20
554.625579
30
0.0
11
758.876785
21
553.138081
31
0.0
0
LINE
8
VISIBLE
10
758.876785
20
553.138081
30
0.0
11
757.495070
21
550.799561
31
0.0
0
LINE
8
VISIBLE
10
757.495070
20
550.799561
30
0.0
11
757.000000
21
548.414331
31
0.0
0
LINE
8
VISIBLE
10
764.172131
20
552.555163
30
0.0
11
763.756099
21
554.250857
31
0.0
0
LINE
8
VISIBLE
10
763.756099
20
554.250857
30
0.0
11
763.121797
21
554.876763
31
0.0
0
LINE
8
VISIBLE
10
763.121797
20
554.876763
30
0.0
11
761.874854
21
555.093005
31
0.0
0
LINE
8
VISIBLE
10
761.874854
20
555.093005
30
0.0
11
760.586066
21
554.625579
31
0.0
0
LINE
8
VISIBLE
10
786.405738
20
569.532574
30
0.0
11
784.696457
21
568.045076
31
0.0
0
LINE
8
VISIBLE
10
784.696457
20
568.045076
30
0.0
11
783.314742
21
565.706556
31
0.0
0
LINE
8
VISIBLE
10
783.314742
20
565.706556
30
0.0
11
782.819672
21
563.321326
31
0.0
0
LINE
8
VISIBLE
10
789.991803
20
567.462158
30
0.0
11
789.575771
21
569.157852
31
0.0
0
LINE
8
VISIBLE
10
789.575771
20
569.157852
30
0.0
11
788.941469
21
569.783757
31
0.0
0
LINE
8
VISIBLE
10
788.941469
20
569.783757
30
0.0
11
787.694526
21
570.000000
31
0.0
0
LINE
8
VISIBLE
10
787.694526
20
570.000000
30
0.0
11
786.405738
21
569.532574
31
0.0
0
LINE
8
VISIBLE
10
757.000000
20
542.617167
30
0.0
11
766.036885
21
537.399719
31
0.0
0
LINE
8
VISIBLE
10
793.290984
20
526.136656
30
0.0
11
795.872951
21
524.645957
31
0.0
0
LINE
8
VISIBLE
10
803.618852
20
521.250474
30
0.0
11
805.555328
21
520.132450
31
0.0
0
LINE
8
VISIBLE
10
786.405738
20
566.261317
30
0.0
11
787.876025
21
565.412446
31
0.0
0
LINE
8
VISIBLE
10
760.586066
20
551.354322
30
0.0
11
762.056352
21
550.505451
31
0.0
0
LINE
8
VISIBLE
10
777.942623
20
545.929832
30
0.0
11
777.942623
21
549.242498
31
0.0
0
LINE
8
VISIBLE
10
779.520492
20
550.153481
30
0.0
11
779.520492
21
550.162033
31
0.0
0
LINE
8
VISIBLE
10
796.733607
20
550.153481
30
0.0
11
796.733607
21
550.162033
31
0.0
0
LINE
8
VISIBLE
10
779.520492
20
540.215484
30
0.0
11
779.520492
21
540.224036
31
0.0
0
LINE
8
VISIBLE
10
796.733607
20
540.215484
30
0.0
11
796.733607
21
540.224036
31
0.0
0
LINE
8
VISIBLE
10
795.155738
20
545.929832
30
0.0
11
795.155738
21
549.242498
31
0.0
0
LINE
8
VISIBLE
10
777.942623
20
535.991836
30
0.0
11
777.942623
21
539.304501
31
0.0
0
LINE
8
VISIBLE
10
795.155738
20
535.991836
30
0.0
11
795.155738
21
539.304501
31
0.0
0
LINE
8
VISIBLE
10
806.154584
20
523.406441
30
0.0
11
808.736551
21
521.915741
31
0.0
0
LINE
8
VISIBLE
10
801.083121
20
514.622410
30
0.0
11
803.665088
21
513.131710
31
0.0
0
LINE
8
VISIBLE
10
788.941469
20
569.783757
30
0.0
11
798.174571
21
564.453024
31
0.0
0
LINE
8
VISIBLE
10
763.121797
20
554.876763
30
0.0
11
766.981598
21
552.648305
31
0.0
0
LINE
8
DIM
10
157.000000
20
148.550000
30
0.0
11
157.000000
21
126.750000
31
0.0
0
LINE
8
DIM
10
272.000000
20
148.550000
30
0.0
11
272.000000
21
126.750000
31
0.0
0
LINE
8
DIM
10
157.000000
20
128.750000
30
0.0
11
272.000000
21
128.750000
31
0.0
0
SOLID
8
DIM
10
157.000000
20
128.750000
30
0.0
11
160.200000
21
128.142000
31
0.0
12
160.200000
22
129.358000
32
0.0
13
160.200000
23
129.358000
33
0.0
0
SOLID
8
DIM
10
272.000000
20
128.750000
30
0.0
11
268.800000
21
129.358000
31
0.0
12
268.800000
22
128.142000
32
0.0
13
268.800000
23
128.142000
33
0.0
0
TEXT
8
TEXT
10
214.500000
20
129.750000
30
0.0
40
2.5000
1
23.00
72
1
73
0
11
214.500000
21
129.750000
31
0.0
0
LINE
8
DIM
10
155.800000
20
149.750000
30
0.0
11
134.000000
21
149.750000
31
0.0
0
LINE
8
DIM
10
155.800000
20
252.250000
30
0.0
11
134.000000
21
252.250000
31
0.0
0
LINE
8
DIM
10
136.000000
20
149.750000
30
0.0
11
136.000000
21
252.250000
31
0.0
0
SOLID
8
DIM
10
136.000000
20
149.750000
30
0.0
11
136.608000
21
152.950000
31
0.0
12
135.392000
22
152.950000
32
0.0
13
135.392000
23
152.950000
33
0.0
0
SOLID
8
DIM
10
136.000000
20
252.250000
30
0.0
11
135.392000
21
249.050000
31
0.0
12
136.608000
22
249.050000
32
0.0
13
136.608000
23
249.050000
33
0.0
0
TEXT
8
TEXT
10
135.000000
20
201.000000
30
0.0
40
2.5000
1
20.50
50
90.0000
72
1
73
0
11
135.000000
21
201.000000
31
0.0
0
SOLID
8
DIM
10
214.500000
20
161.000000
30
0.0
11
213.892000
21
157.800000
31
0.0
12
215.108000
22
157.800000
32
0.0
13
215.108000
23
157.800000
33
0.0
0
LINE
8
DIM
10
214.500000
20
161.000000
30
0.0
11
214.500000
21
151.000000
31
0.0
0
LINE
8
DIM
10
214.500000
20
151.000000
30
0.0
11
217.500000
21
151.000000
31
0.0
0
TEXT
8
TEXT
10
218.300000
20
152.000000
30
0.0
40
2.5000
1
R2.75
0
SOLID
8
DIM
10
160.661165
20
248.588835
30
0.0
11
158.666206
21
251.163675
31
0.0
12
157.860875
22
250.252577
32
0.0
13
157.860875
23
250.252577
33
0.0
0
LINE
8
DIM
10
160.661165
20
248.588835
30
0.0
11
153.168588
21
255.211620
31
0.0
0
LINE
8
DIM
10
153.168588
20
255.211620
30
0.0
11
150.168588
21
255.211620
31
0.0
0
TEXT
8
TEXT
10
149.368588
20
256.211620
30
0.0
40
2.5000
1
R2.50
72
2
73
0
11
149.368588
21
256.211620
31
0.0
0
SOLID
8
DIM
10
171.388730
20
223.943160
30
0.0
11
168.849492
21
225.983242
31
0.0
12
168.278217
22
224.909790
32
0.0
13
168.278217
23
224.909790
33
0.0
0
LINE
8
DIM
10
171.388730
20
223.943160
30
0.0
11
162.560994
21
228.641147
31
0.0
0
LINE
8
DIM
10
162.560994
20
228.641147
30
0.0
11
159.560994
21
228.641147
31
0.0
0
TEXT
8
TEXT
10
158.760994
20
229.641147
30
0.0
40
2.5000
1
R2.42
72
2
73
0
11
158.760994
21
229.641147
31
0.0
0
SOLID
8
DIM
10
214.500000
20
168.000000
30
0.0
11
213.892000
21
164.800000
31
0.0
12
215.108000
22
164.800000
32
0.0
13
215.108000
23
164.800000
33
0.0
0
LINE
8
DIM
10
214.500000
20
168.000000
30
0.0
11
214.500000
21
158.000000
31
0.0
0
LINE
8
DIM
10
214.500000
20
158.000000
30
0.0
11
217.500000
21
158.000000
31
0.0
0
TEXT
8
TEXT
10
218.300000
20
159.000000
30
0.0
40
2.5000
1
R1.35
0
SOLID
8
DIM
10
257.740370
20
217.299752
30
0.0
11
260.949152
21
217.859561
31
0.0
12
260.520234
22
218.997404
32
0.0
13
260.520234
23
218.997404
33
0.0
0
LINE
8
DIM
10
257.740370
20
217.299752
30
0.0
11
267.097628
21
220.827035
31
0.0
0
LINE
8
DIM
10
267.097628
20
220.827035
30
0.0
11
270.097628
21
220.827035
31
0.0
0
TEXT
8
TEXT
10
270.897628
20
221.827035
30
0.0
40
2.5000
1
R1.20
0
SOLID
8
DIM
10
262.093562
20
241.670301
30
0.0
11
264.921302
21
243.286949
31
0.0
12
264.131331
22
244.211395
32
0.0
13
264.131331
23
244.211395
33
0.0
0
LINE
8
DIM
10
262.093562
20
241.670301
30
0.0
11
269.695920
21
248.166773
31
0.0
0
LINE
8
DIM
10
269.695920
20
248.166773
30
0.0
11
272.695920
21
248.166773
31
0.0
0
TEXT
8
TEXT
10
273.495920
20
249.166773
30
0.0
40
2.5000
1
R1.02
0
TEXT
8
TEXT
10
214.500000
20
116.750000
30
0.0
40
4.0000
1
FRONT VIEW
72
1
73
0
11
214.500000
21
116.750000
31
0.0
0
LINE
8
TEXT
10
202.500000
20
115.150000
30
0.0
11
226.500000
21
115.150000
31
0.0
0
TEXT
8
TEXT
10
214.500000
20
110.750000
30
0.0
40
2.4000
1
-X →   Z ↑
72
1
73
0
11
214.500000
21
110.750000
31
0.0
0
LINE
8
DIM
10
157.000000
20
314.050000
30
0.0
11
157.000000
21
301.250000
31
0.0
0
LINE
8
DIM
10
272.000000
20
314.050000
30
0.0
11
272.000000
21
301.250000
31
0.0
0
LINE
8
DIM
10
157.000000
20
303.250000
30
0.0
11
272.000000
21
303.250000
31
0.0
0
SOLID
8
DIM
10
157.000000
20
303.250000
30
0.0
11
160.200000
21
302.642000
31
0.0
12
160.200000
22
303.858000
32
0.0
13
160.200000
23
303.858000
33
0.0
0
SOLID
8
DIM
10
272.000000
20
303.250000
30
0.0
11
268.800000
21
303.858000
31
0.0
12
268.800000
22
302.642000
32
0.0
13
268.800000
23
302.642000
33
0.0
0
TEXT
8
TEXT
10
214.500000
20
304.250000
30
0.0
40
2.5000
1
23.00
72
1
73
0
11
214.500000
21
304.250000
31
0.0
0
LINE
8
DIM
10
155.800000
20
315.250000
30
0.0
11
143.000000
21
315.250000
31
0.0
0
LINE
8
DIM
10
155.800000
20
444.250000
30
0.0
11
143.000000
21
444.250000
31
0.0
0
LINE
8
DIM
10
145.000000
20
315.250000
30
0.0
11
145.000000
21
444.250000
31
0.0
0
SOLID
8
DIM
10
145.000000
20
315.250000
30
0.0
11
145.608000
21
318.450000
31
0.0
12
144.392000
22
318.450000
32
0.0
13
144.392000
23
318.450000
33
0.0
0
SOLID
8
DIM
10
145.000000
20
444.250000
30
0.0
11
144.392000
21
441.050000
31
0.0
12
145.608000
22
441.050000
32
0.0
13
145.608000
23
441.050000
33
0.0
0
TEXT
8
TEXT
10
144.000000
20
379.750000
30
0.0
40
2.5000
1
25.80
50
90.0000
72
1
73
0
11
144.000000
21
379.750000
31
0.0
0
SOLID
8
DIM
10
214.500000
20
324.250000
30
0.0
11
213.892000
21
321.050000
31
0.0
12
215.108000
22
321.050000
32
0.0
13
215.108000
23
321.050000
33
0.0
0
LINE
8
DIM
10
214.500000
20
324.250000
30
0.0
11
214.500000
21
314.250000
31
0.0
0
LINE
8
DIM
10
214.500000
20
314.250000
30
0.0
11
217.500000
21
314.250000
31
0.0
0
TEXT
8
TEXT
10
218.300000
20
315.250000
30
0.0
40
2.5000
1
R9.50
0
SOLID
8
DIM
10
214.500000
20
331.750000
30
0.0
11
213.892000
21
328.550000
31
0.0
12
215.108000
22
328.550000
32
0.0
13
215.108000
23
328.550000
33
0.0
0
LINE
8
DIM
10
214.500000
20
331.750000
30
0.0
11
214.500000
21
321.750000
31
0.0
0
LINE
8
DIM
10
214.500000
20
321.750000
30
0.0
11
217.500000
21
321.750000
31
0.0
0
TEXT
8
TEXT
10
218.300000
20
322.750000
30
0.0
40
2.5000
1
R8.00
0
SOLID
8
DIM
10
213.241741
20
330.822201
30
0.0
11
212.551676
21
327.638889
31
0.0
12
213.767274
22
327.607628
32
0.0
13
213.767274
23
327.607628
33
0.0
0
LINE
8
DIM
10
213.241741
20
330.822201
30
0.0
11
212.984660
21
320.825506
31
0.0
0
LINE
8
DIM
10
212.984660
20
320.825506
30
0.0
11
209.984660
21
320.825506
31
0.0
0
TEXT
8
TEXT
10
209.184660
20
321.825506
30
0.0
40
2.5000
1
R2.20
72
2
73
0
11
209.184660
21
321.825506
31
0.0
0
SOLID
8
DIM
10
209.000000
20
341.750000
30
0.0
11
207.939889
21
338.670093
31
0.0
12
209.143348
22
338.495908
32
0.0
13
209.143348
23
338.495908
33
0.0
0
LINE
8
DIM
10
209.000000
20
341.750000
30
0.0
11
207.567558
21
331.853126
31
0.0
0
LINE
8
DIM
10
207.567558
20
331.853126
30
0.0
11
204.567558
21
331.853126
31
0.0
0
TEXT
8
TEXT
10
203.767558
20
332.853126
30
0.0
40
2.5000
1
R1.10
72
2
73
0
11
203.767558
21
332.853126
31
0.0
0
TEXT
8
TEXT
10
214.500000
20
291.250000
30
0.0
40
4.0000
1
TOP VIEW
72
1
73
0
11
214.500000
21
291.250000
31
0.0
0
LINE
8
TEXT
10
204.900000
20
289.650000
30
0.0
11
224.100000
21
289.650000
31
0.0
0
TEXT
8
TEXT
10
214.500000
20
285.250000
30
0.0
40
2.4000
1
X →   Y ↑
72
1
73
0
11
214.500000
21
285.250000
31
0.0
0
LINE
8
DIM
10
310.000000
20
148.550000
30
0.0
11
310.000000
21
135.750000
31
0.0
0
LINE
8
DIM
10
439.000000
20
148.550000
30
0.0
11
439.000000
21
135.750000
31
0.0
0
LINE
8
DIM
10
310.000000
20
137.750000
30
0.0
11
439.000000
21
137.750000
31
0.0
0
SOLID
8
DIM
10
310.000000
20
137.750000
30
0.0
11
313.200000
21
137.142000
31
0.0
12
313.200000
22
138.358000
32
0.0
13
313.200000
23
138.358000
33
0.0
0
SOLID
8
DIM
10
439.000000
20
137.750000
30
0.0
11
435.800000
21
138.358000
31
0.0
12
435.800000
22
137.142000
32
0.0
13
435.800000
23
137.142000
33
0.0
0
TEXT
8
TEXT
10
374.500000
20
138.750000
30
0.0
40
2.5000
1
25.80
72
1
73
0
11
374.500000
21
138.750000
31
0.0
0
LINE
8
DIM
10
308.800000
20
149.750000
30
0.0
11
296.000000
21
149.750000
31
0.0
0
LINE
8
DIM
10
308.800000
20
252.250000
30
0.0
11
296.000000
21
252.250000
31
0.0
0
LINE
8
DIM
10
298.000000
20
149.750000
30
0.0
11
298.000000
21
252.250000
31
0.0
0
SOLID
8
DIM
10
298.000000
20
149.750000
30
0.0
11
298.608000
21
152.950000
31
0.0
12
297.392000
22
152.950000
32
0.0
13
297.392000
23
152.950000
33
0.0
0
SOLID
8
DIM
10
298.000000
20
252.250000
30
0.0
11
297.392000
21
249.050000
31
0.0
12
298.608000
22
249.050000
32
0.0
13
298.608000
23
249.050000
33
0.0
0
TEXT
8
TEXT
10
297.000000
20
201.000000
30
0.0
40
2.5000
1
20.50
50
90.0000
72
1
73
0
11
297.000000
21
201.000000
31
0.0
0
SOLID
8
DIM
10
312.928932
20
231.821068
30
0.0
11
310.339583
21
233.797158
31
0.0
12
309.795269
22
232.709786
32
0.0
13
309.795269
23
232.709786
33
0.0
0
LINE
8
DIM
10
312.928932
20
231.821068
30
0.0
11
303.986726
21
236.297332
31
0.0
0
LINE
8
DIM
10
303.986726
20
236.297332
30
0.0
11
300.986726
21
236.297332
31
0.0
0
TEXT
8
TEXT
10
300.186726
20
237.297332
30
0.0
40
2.5000
1
R2.00
72
2
73
0
11
300.186726
21
237.297332
31
0.0
0
TEXT
8
TEXT
10
374.500000
20
125.750000
30
0.0
40
4.0000
1
RIGHT VIEW
72
1
73
0
11
374.500000
21
125.750000
31
0.0
0
LINE
8
TEXT
10
362.500000
20
124.150000
30
0.0
11
386.500000
21
124.150000
31
0.0
0
TEXT
8
TEXT
10
374.500000
20
119.750000
30
0.0
40
2.4000
1
-Y →   Z ↑
72
1
73
0
11
374.500000
21
119.750000
31
0.0
0
LINE
8
DIM
10
477.000000
20
148.550000
30
0.0
11
477.000000
21
135.750000
31
0.0
0
LINE
8
DIM
10
606.000000
20
148.550000
30
0.0
11
606.000000
21
135.750000
31
0.0
0
LINE
8
DIM
10
477.000000
20
137.750000
30
0.0
11
606.000000
21
137.750000
31
0.0
0
SOLID
8
DIM
10
477.000000
20
137.750000
30
0.0
11
480.200000
21
137.142000
31
0.0
12
480.200000
22
138.358000
32
0.0
13
480.200000
23
138.358000
33
0.0
0
SOLID
8
DIM
10
606.000000
20
137.750000
30
0.0
11
602.800000
21
138.358000
31
0.0
12
602.800000
22
137.142000
32
0.0
13
602.800000
23
137.142000
33
0.0
0
TEXT
8
TEXT
10
541.500000
20
138.750000
30
0.0
40
2.5000
1
25.80
72
1
73
0
11
541.500000
21
138.750000
31
0.0
0
LINE
8
DIM
10
475.800000
20
149.750000
30
0.0
11
463.000000
21
149.750000
31
0.0
0
LINE
8
DIM
10
475.800000
20
252.250000
30
0.0
11
463.000000
21
252.250000
31
0.0
0
LINE
8
DIM
10
465.000000
20
149.750000
30
0.0
11
465.000000
21
252.250000
31
0.0
0
SOLID
8
DIM
10
465.000000
20
149.750000
30
0.0
11
465.608000
21
152.950000
31
0.0
12
464.392000
22
152.950000
32
0.0
13
464.392000
23
152.950000
33
0.0
0
SOLID
8
DIM
10
465.000000
20
252.250000
30
0.0
11
464.392000
21
249.050000
31
0.0
12
465.608000
22
249.050000
32
0.0
13
465.608000
23
249.050000
33
0.0
0
TEXT
8
TEXT
10
464.000000
20
201.000000
30
0.0
40
2.5000
1
20.50
50
90.0000
72
1
73
0
11
464.000000
21
201.000000
31
0.0
0
LINE
8
HATCH
10
605.999993
20
188.500000
30
0.0
11
606.000000
21
188.500007
31
0.0
0
LINE
8
HATCH
10
601.757352
20
188.500000
30
0.0
11
606.000000
21
192.742648
31
0.0
0
LINE
8
HATCH
10
590.514712
20
181.500000
30
0.0
11
593.500000
21
184.485288
31
0.0
0
LINE
8
HATCH
10
597.514712
20
188.500000
30
0.0
11
606.000000
21
196.985288
31
0.0
0
LINE
8
HATCH
10
586.272071
20
181.500000
30
0.0
11
606.000000
21
201.227929
31
0.0
0
LINE
8
HATCH
10
582.029430
20
181.500000
30
0.0
11
587.779430
21
187.250000
31
0.0
0
LINE
8
HATCH
10
591.000000
20
190.470570
30
0.0
11
606.000000
21
205.470570
31
0.0
0
LINE
8
HATCH
10
582.000000
20
185.713211
30
0.0
11
583.536789
21
187.250000
31
0.0
0
LINE
8
HATCH
10
591.000000
20
194.713211
30
0.0
11
606.000000
21
209.713211
31
0.0
0
LINE
8
HATCH
10
591.000000
20
198.955851
30
0.0
11
606.000000
21
213.955851
31
0.0
0
LINE
8
HATCH
10
591.000000
20
203.198492
30
0.0
11
606.000000
21
218.198492
31
0.0
0
LINE
8
HATCH
10
591.000000
20
207.441133
30
0.0
11
606.000000
21
222.441133
31
0.0
0
LINE
8
HATCH
10
591.000000
20
211.683773
30
0.0
11
605.825569
21
226.509342
31
0.0
0
LINE
8
HATCH
10
589.823586
20
214.750000
30
0.0
11
604.709981
21
229.636395
31
0.0
0
LINE
8
HATCH
10
586.000000
20
215.169055
30
0.0
11
602.848640
21
232.017694
31
0.0
0
LINE
8
HATCH
10
586.000000
20
219.411695
30
0.0
11
600.333889
21
233.745584
31
0.0
0
LINE
8
HATCH
10
584.595664
20
222.250000
30
0.0
11
597.033169
21
234.687505
31
0.0
0
LINE
8
HATCH
10
580.353023
20
222.250000
30
0.0
11
592.853023
21
234.750000
31
0.0
0
LINE
8
HATCH
10
576.110383
20
222.250000
30
0.0
11
588.610383
21
234.750000
31
0.0
0
LINE
8
HATCH
10
574.500000
20
224.882258
30
0.0
11
584.367742
21
234.750000
31
0.0
0
LINE
8
HATCH
10
574.500000
20
229.124899
30
0.0
11
581.000000
21
235.624899
31
0.0
0
LINE
8
HATCH
10
573.382461
20
232.250000
30
0.0
11
578.382461
21
237.250000
31
0.0
0
LINE
8
HATCH
10
569.139820
20
232.250000
30
0.0
11
574.139820
21
237.250000
31
0.0
0
LINE
8
HATCH
10
569.000000
20
236.352821
30
0.0
11
573.500000
21
240.852821
31
0.0
0
LINE
8
HATCH
10
569.000000
20
240.595462
30
0.0
11
573.500000
21
245.095462
31
0.0
0
LINE
8
HATCH
10
569.000000
20
244.838102
30
0.0
11
571.161898
21
247.000000
31
0.0
0
LINE
8
HATCH
10
605.999993
20
149.750000
30
0.0
11
606.000000
21
149.750007
31
0.0
0
LINE
8
HATCH
10
601.757352
20
149.750000
30
0.0
11
606.000000
21
153.992648
31
0.0
0
LINE
8
HATCH
10
597.514712
20
149.750000
30
0.0
11
606.000000
21
158.235288
31
0.0
0
LINE
8
HATCH
10
593.272071
20
149.750000
30
0.0
11
604.522071
21
161.000000
31
0.0
0
LINE
8
HATCH
10
591.000000
20
151.720570
30
0.0
11
600.279430
21
161.000000
31
0.0
0
LINE
8
HATCH
10
591.000000
20
155.963211
30
0.0
11
596.036789
21
161.000000
31
0.0
0
LINE
8
HATCH
10
591.000000
20
160.205851
30
0.0
11
593.500000
21
162.705851
31
0.0
0
LINE
8
HATCH
10
588.801508
20
162.250000
30
0.0
11
593.500000
21
166.948492
31
0.0
0
LINE
8
HATCH
10
584.558867
20
162.250000
30
0.0
11
590.308867
21
168.000000
31
0.0
0
LINE
8
HATCH
10
582.000000
20
163.933773
30
0.0
11
586.066227
21
168.000000
31
0.0
0
LINE
8
HATCH
10
492.499993
20
222.250000
30
0.0
11
492.500000
21
222.250007
31
0.0
0
LINE
8
HATCH
10
488.257352
20
222.250000
30
0.0
11
492.500000
21
226.492648
31
0.0
0
LINE
8
HATCH
10
484.014712
20
222.250000
30
0.0
11
492.500000
21
230.735288
31
0.0
0
LINE
8
HATCH
10
494.014712
20
232.250000
30
0.0
11
498.000000
21
236.235288
31
0.0
0
LINE
8
HATCH
10
479.772071
20
222.250000
30
0.0
11
498.000000
21
240.477929
31
0.0
0
LINE
8
HATCH
10
477.000000
20
223.720570
30
0.0
11
490.529430
21
237.250000
31
0.0
0
LINE
8
HATCH
10
493.500000
20
240.220570
30
0.0
11
498.000000
21
244.720570
31
0.0
0
LINE
8
HATCH
10
477.000000
20
227.963211
30
0.0
11
483.786789
21
234.750000
31
0.0
0
LINE
8
HATCH
10
486.000000
20
236.963211
30
0.0
11
486.286789
21
237.250000
31
0.0
0
LINE
8
HATCH
10
493.500000
20
244.463211
30
0.0
11
496.036789
21
247.000000
31
0.0
0
LINE
8
HATCH
10
477.000000
20
232.205851
30
0.0
11
479.544149
21
234.750000
31
0.0
0
LINE
8
HATCH
10
552.499993
20
222.250000
30
0.0
11
552.500000
21
222.250007
31
0.0
0
LINE
8
HATCH
10
548.257352
20
222.250000
30
0.0
11
552.500000
21
226.492648
31
0.0
0
LINE
8
HATCH
10
544.014712
20
222.250000
30
0.0
11
552.500000
21
230.735288
31
0.0
0
LINE
8
HATCH
10
554.014712
20
232.250000
30
0.0
11
558.000000
21
236.235288
31
0.0
0
LINE
8
HATCH
10
539.772071
20
222.250000
30
0.0
11
558.000000
21
240.477929
31
0.0
0
LINE
8
HATCH
10
535.529430
20
222.250000
30
0.0
11
558.000000
21
244.720570
31
0.0
0
LINE
8
HATCH
10
531.286789
20
222.250000
30
0.0
11
556.036789
21
247.000000
31
0.0
0
LINE
8
HATCH
10
527.044149
20
222.250000
30
0.0
11
551.794149
21
247.000000
31
0.0
0
LINE
8
HATCH
10
522.801508
20
222.250000
30
0.0
11
547.551508
21
247.000000
31
0.0
0
LINE
8
HATCH
10
518.558867
20
222.250000
30
0.0
11
543.308867
21
247.000000
31
0.0
0
LINE
8
HATCH
10
514.500000
20
222.433773
30
0.0
11
539.066227
21
247.000000
31
0.0
0
LINE
8
HATCH
10
514.500000
20
226.676414
30
0.0
11
534.823586
21
247.000000
31
0.0
0
LINE
8
HATCH
10
514.500000
20
230.919055
30
0.0
11
530.580945
21
247.000000
31
0.0
0
LINE
8
HATCH
10
511.588305
20
232.250000
30
0.0
11
526.338305
21
247.000000
31
0.0
0
LINE
8
HATCH
10
509.000000
20
233.904336
30
0.0
11
522.095664
21
247.000000
31
0.0
0
LINE
8
HATCH
10
509.000000
20
238.146977
30
0.0
11
517.853023
21
247.000000
31
0.0
0
LINE
8
HATCH
10
509.000000
20
242.389617
30
0.0
11
513.610383
21
247.000000
31
0.0
0
LINE
8
HATCH
10
509.000000
20
246.632258
30
0.0
11
509.367742
21
247.000000
31
0.0
0
LINE
8
DIM
10
591.000000
20
162.295837
30
0.0
11
591.000000
21
261.250000
31
0.0
0
LINE
8
DIM
10
593.500000
20
162.295837
30
0.0
11
593.500000
21
261.250000
31
0.0
0
LINE
8
DIM
10
591.000000
20
259.250000
30
0.0
11
593.500000
21
259.250000
31
0.0
0
SOLID
8
DIM
10
591.000000
20
259.250000
30
0.0
11
587.800000
21
259.858000
31
0.0
12
587.800000
22
258.642000
32
0.0
13
587.800000
23
258.642000
33
0.0
0
SOLID
8
DIM
10
593.500000
20
259.250000
30
0.0
11
596.700000
21
258.642000
31
0.0
12
596.700000
22
259.858000
32
0.0
13
596.700000
23
259.858000
33
0.0
0
LINE
8
DIM
10
593.500000
20
259.250000
30
0.0
11
603.100000
21
259.250000
31
0.0
0
TEXT
8
TEXT
10
603.900000
20
259.650000
30
0.0
40
2.5000
1
0.50 WALL
0
LINE
8
DIM
10
575.487497
20
232.250000
30
0.0
11
625.000000
21
232.250000
31
0.0
0
LINE
8
DIM
10
575.487497
20
237.250000
30
0.0
11
625.000000
21
237.250000
31
0.0
0
LINE
8
DIM
10
623.000000
20
232.250000
30
0.0
11
623.000000
21
237.250000
31
0.0
0
SOLID
8
DIM
10
623.000000
20
232.250000
30
0.0
11
622.392000
21
229.050000
31
0.0
12
623.608000
22
229.050000
32
0.0
13
623.608000
23
229.050000
33
0.0
0
SOLID
8
DIM
10
623.000000
20
237.250000
30
0.0
11
623.608000
21
240.450000
31
0.0
12
622.392000
22
240.450000
32
0.0
13
622.392000
23
240.450000
33
0.0
0
LINE
8
DIM
10
623.000000
20
237.250000
30
0.0
11
623.000000
21
246.850000
31
0.0
0
TEXT
8
TEXT
10
622.000000
20
247.650000
30
0.0
40
2.5000
1
1.00 WALL
50
90.0000
0
TEXT
8
TEXT
10
541.500000
20
125.750000
30
0.0
40
4.0000
1
SECTION A-A
72
1
73
0
11
541.500000
21
125.750000
31
0.0
0
LINE
8
TEXT
10
528.300000
20
124.150000
30
0.0
11
554.700000
21
124.150000
31
0.0
0
TEXT
8
TEXT
10
792.000000
20
499.789322
30
0.0
40
4.0000
1
ISOMETRIC VIEW
72
1
73
0
11
792.000000
21
499.789322
31
0.0
0
LINE
8
TEXT
10
775.200000
20
498.189322
30
0.0
11
808.800000
21
498.189322
31
0.0
0
TEXT
8
TEXT
10
792.000000
20
493.789322
30
0.0
40
2.6000
1
23.00 x 25.80 x 20.50 mm
72
1
73
0
11
792.000000
21
493.789322
31
0.0
0
LINE
8
CUT
10
214.500000
20
140.750000
30
0.0
11
214.500000
21
154.750000
31
0.0
0
LINE
8
CUTTHIN
10
214.500000
20
154.750000
30
0.0
11
214.500000
21
247.250000
31
0.0
0
LINE
8
CUT
10
214.500000
20
247.250000
30
0.0
11
214.500000
21
261.250000
31
0.0
0
LINE
8
CUT
10
214.500000
20
140.750000
30
0.0
11
223.500000
21
140.750000
31
0.0
0
SOLID
8
CUT
10
223.500000
20
140.750000
30
0.0
11
219.300000
21
141.548000
31
0.0
12
219.300000
22
139.952000
32
0.0
13
219.300000
23
139.952000
33
0.0
0
TEXT
8
TEXT
10
209.500000
20
140.750000
30
0.0
40
4.0000
1
A
72
1
73
2
11
209.500000
21
140.750000
31
0.0
0
LINE
8
CUT
10
214.500000
20
261.250000
30
0.0
11
223.500000
21
261.250000
31
0.0
0
SOLID
8
CUT
10
223.500000
20
261.250000
30
0.0
11
219.300000
21
262.048000
31
0.0
12
219.300000
22
260.452000
32
0.0
13
219.300000
23
260.452000
33
0.0
0
TEXT
8
TEXT
10
209.500000
20
261.250000
30
0.0
40
4.0000
1
A
72
1
73
2
11
209.500000
21
261.250000
31
0.0
0
LINE
8
VISIBLE
10
763.000000
20
439.967100
30
0.0
11
821.000000
21
439.967100
31
0.0
0
LINE
8
VISIBLE
10
821.000000
20
439.967100
30
0.0
11
821.000000
21
483.789322
31
0.0
0
LINE
8
VISIBLE
10
821.000000
20
483.789322
30
0.0
11
763.000000
21
483.789322
31
0.0
0
LINE
8
VISIBLE
10
763.000000
20
483.789322
30
0.0
11
763.000000
21
439.967100
31
0.0
0
LINE
8
TITLE
10
763.000000
20
439.967100
30
0.0
11
821.000000
21
439.967100
31
0.0
0
LINE
8
TITLE
10
821.000000
20
439.967100
30
0.0
11
821.000000
21
483.789322
31
0.0
0
LINE
8
TITLE
10
821.000000
20
483.789322
30
0.0
11
763.000000
21
483.789322
31
0.0
0
LINE
8
TITLE
10
763.000000
20
483.789322
30
0.0
11
763.000000
21
439.967100
31
0.0
0
TEXT
8
TEXT
10
792.000000
20
437.367100
30
0.0
40
2.0000
1
REFERENCE RENDER (ISO2) — rendered off this solid,
72
1
73
0
11
792.000000
21
437.367100
31
0.0
0
TEXT
8
TEXT
10
792.000000
20
434.767100
30
0.0
40
2.0000
1
900 x 680 px
72
1
73
0
11
792.000000
21
434.767100
31
0.0
0
TEXT
8
TEXT
10
755.000000
20
425.967100
30
0.0
40
3.0000
1
NOTES
0
TEXT
8
TEXT
10
755.000000
20
421.367100
30
0.0
40
2.4000
1
1. ALL DIMENSIONS IN mm AND DEGREES. EVERY
0
TEXT
8
TEXT
10
755.000000
20
417.647100
30
0.0
40
2.4000
1
   DIMENSION AND EVERY HOLE CALLOUT WAS MEASURED
0
TEXT
8
TEXT
10
755.000000
20
413.927100
30
0.0
40
2.4000
1
   OFF THE SOLID.
0
TEXT
8
TEXT
10
755.000000
20
410.207100
30
0.0
40
2.4000
1
2. PROCESS: FDM.
0
TEXT
8
TEXT
10
755.000000
20
406.487100
30
0.0
40
2.4000
1
3. THINNEST WALL, WHOLE SOLID (RAY MINIMUM):
0
TEXT
8
TEXT
10
755.000000
20
402.767100
30
0.0
40
2.4000
1
   0.1980 mm, AT X=8.815 Y=-9.300 Z=12.999 —
0
TEXT
8
TEXT
10
755.000000
20
399.047100
30
0.0
40
2.4000
1
   MEASURED OVER THE WHOLE SOLID BY RAY+EXACT AT
0
TEXT
8
TEXT
10
755.000000
20
395.327100
30
0.0
40
2.4000
1
   0.9830 mm SAMPLE SPACING (A FEATURE NARROWER
0
TEXT
8
TEXT
10
755.000000
20
391.607100
30
0.0
40
2.4000
1
   THAN THAT CAN BE MISSED). THIS IS A DISTANCE
0
TEXT
8
TEXT
10
755.000000
20
387.887100
30
0.0
40
2.4000
1
   THROUGH MATERIAL, NOT A WALL: AT AN EDGE, A
0
TEXT
8
TEXT
10
755.000000
20
384.167100
30
0.0
40
2.4000
1
   FILLET RUN-OUT OR A CHAMFER TIP IT IS REAL AND
0
TEXT
8
TEXT
10
755.000000
20
380.447100
30
0.0
40
2.4000
1
   UNPRINTABLE BY DEFINITION. DO NOT JUDGE
0
TEXT
8
TEXT
10
755.000000
20
376.727100
30
0.0
40
2.4000
1
   PRINTABILITY BY IT — THE NEXT NOTE IS THE ONE
0
TEXT
8
TEXT
10
755.000000
20
373.007100
30
0.0
40
2.4000
1
   THAT DOES.
0
TEXT
8
TEXT
10
755.000000
20
369.287100
30
0.0
40
2.4000
1
4. PRINTABLE MINIMUM WALL: 1.1496 mm, AT X=18.062
0
TEXT
8
TEXT
10
755.000000
20
365.567100
30
0.0
40
2.4000
1
   Y=7.700 Z=2.040 — MEASURED AS THE SMALLEST
0
TEXT
8
TEXT
10
755.000000
20
361.847100
30
0.0
40
2.4000
1
   MEDIAN WALL OVER A NEIGHBOURHOOD OF 2.9500 mm
0
TEXT
8
TEXT
10
755.000000
20
358.127100
30
0.0
40
2.4000
1
   (>= 8 SAMPLES), RAYS CAPPED AT 4.000 mm, BY
0
TEXT
8
TEXT
10
755.000000
20
354.407100
30
0.0
40
2.4000
1
   cecad.inspect.printable_wall_detail. AGAINST
0
TEXT
8
TEXT
10
755.000000
20
350.687100
30
0.0
40
2.4000
1
   THE 0.8000 mm FLOOR (2 PERIMETERS @ 0.4 mm
0
TEXT
8
TEXT
10
755.000000
20
346.967100
30
0.0
40
2.4000
1
   NOZZLE, cecad/printed.py:801): VERDICT PASS
0
TEXT
8
TEXT
10
755.000000
20
343.247100
30
0.0
40
2.4000
1
5. DETAIL CALLOUTS (MANUFACTURING-REQUIREMENTS
0
TEXT
8
TEXT
10
755.000000
20
339.527100
30
0.0
40
2.4000
1
   A.7): NONE ON THIS SHEET, AND NONE WAS PROPOSED
0
TEXT
8
TEXT
10
755.000000
20
335.807100
30
0.0
40
2.4000
1
   — cecad.autosheet.detail_regions FOUND NO
0
TEXT
8
TEXT
10
755.000000
20
332.087100
30
0.0
40
2.4000
1
   CLUSTER OF SMALL FEATURES DENSE ENOUGH TO BE
0
TEXT
8
TEXT
10
755.000000
20
328.367100
30
0.0
40
2.4000
1
   WORTH ENLARGING ON THIS SOLID. EVERY FEATURE IS
0
TEXT
8
TEXT
10
755.000000
20
324.647100
30
0.0
40
2.4000
1
   DIMENSIONED IN THE ORTHOGRAPHIC VIEWS AND THE
0
TEXT
8
TEXT
10
755.000000
20
320.927100
30
0.0
40
2.4000
1
   HOLE TABLE.
0
TEXT
8
TEXT
10
755.000000
20
317.207100
30
0.0
40
2.4000
1
6. GENERAL TOLERANCE CANNOT DETERMINE — SEE PRINT
0
TEXT
8
TEXT
10
755.000000
20
313.487100
30
0.0
40
2.4000
1
   / DFM NOTES UNLESS STATED.
0
TEXT
8
TEXT
10
755.000000
20
309.767100
30
0.0
40
2.4000
1
7. SECTION A-A AT X=17.50: THINNEST MATERIAL IN
0
TEXT
8
TEXT
10
755.000000
20
306.047100
30
0.0
40
2.4000
1
   THIS PLANE ONLY 0.50 mm, AT Y=9.75, Z=-2.73 — A
0
TEXT
8
TEXT
10
755.000000
20
302.327100
30
0.0
40
2.4000
1
   SCAN OF ONE CUT, NOT THE PART MINIMUM.
0
TEXT
8
TEXT
10
755.000000
20
298.607100
30
0.0
40
2.4000
1
8. FRONT VIEW: hidden lines KEPT: without them 14
0
TEXT
8
TEXT
10
755.000000
20
294.887100
30
0.0
40
2.4000
1
   of 539 edge samples have no ink within 0.35 mm
0
TEXT
8
TEXT
10
755.000000
20
291.167100
30
0.0
40
2.4000
1
   (worst 1.213 mm) and the feature would be
0
TEXT
8
TEXT
10
755.000000
20
287.447100
30
0.0
40
2.4000
1
   missing from the sheet.
0
TEXT
8
TEXT
10
755.000000
20
283.727100
30
0.0
40
2.4000
1
9. TOP VIEW: hidden lines KEPT: without them 80 of
0
TEXT
8
TEXT
10
755.000000
20
280.007100
30
0.0
40
2.4000
1
   490 edge samples have no ink within 0.35 mm
0
TEXT
8
TEXT
10
755.000000
20
276.287100
30
0.0
40
2.4000
1
   (worst 3.862 mm) and the feature would be
0
TEXT
8
TEXT
10
755.000000
20
272.567100
30
0.0
40
2.4000
1
   missing from the sheet.
0
TEXT
8
TEXT
10
755.000000
20
268.847100
30
0.0
40
2.4000
1
10. RIGHT VIEW: hidden lines SUPPRESSED: all 406
0
TEXT
8
TEXT
10
755.000000
20
265.127100
30
0.0
40
2.4000
1
   edge samples still land on drawn ink without
0
TEXT
8
TEXT
10
755.000000
20
261.407100
30
0.0
40
2.4000
1
   them.
0
TEXT
8
TEXT
10
755.000000
20
253.687100
30
0.0
40
3.0000
1
PRINT / DFM
0
TEXT
8
TEXT
10
755.000000
20
249.087100
30
0.0
40
2.4000
1
1. ORIENTATION: laid flat (23 x 26 x 20 mm)
0
TEXT
8
TEXT
10
755.000000
20
245.367100
30
0.0
40
2.4000
1
2. THINNEST WALL, WHOLE SOLID (RAY MINIMUM):
0
TEXT
8
TEXT
10
755.000000
20
241.647100
30
0.0
40
2.4000
1
   0.1980 mm — a distance through material, NOT a
0
TEXT
8
TEXT
10
755.000000
20
237.927100
30
0.0
40
2.4000
1
   printable wall where it falls on an edge, a
0
TEXT
8
TEXT
10
755.000000
20
234.207100
30
0.0
40
2.4000
1
   fillet run-out or a chamfer tip. Printability
0
TEXT
8
TEXT
10
755.000000
20
230.487100
30
0.0
40
2.4000
1
   is judged on the next line.
0
TEXT
8
TEXT
10
755.000000
20
226.767100
30
0.0
40
2.4000
1
3. PRINTABLE MINIMUM WALL: 1.1496 mm (smallest
0
TEXT
8
TEXT
10
755.000000
20
223.047100
30
0.0
40
2.4000
1
   median wall over a 2.9500 mm neighbourhood,
0
TEXT
8
TEXT
10
755.000000
20
219.327100
30
0.0
40
2.4000
1
   cecad.inspect.printable_wall_detail) against a
0
TEXT
8
TEXT
10
755.000000
20
215.607100
30
0.0
40
2.4000
1
   0.8000 mm floor (2 perimeters @ 0.4 mm nozzle):
0
TEXT
8
TEXT
10
755.000000
20
211.887100
30
0.0
40
2.4000
1
   VERDICT PASS
0
TEXT
8
TEXT
10
755.000000
20
208.167100
30
0.0
40
2.4000
1
4. 8 horizontal bore(s) bridge at the crown: ream
0
TEXT
8
TEXT
10
755.000000
20
204.447100
30
0.0
40
2.4000
1
   any bearing or press-fit bore to size
0
TEXT
8
TEXT
10
755.000000
20
200.727100
30
0.0
40
2.4000
1
5. FILAMENT: PLA, ~3 g (modelled), 103 layers @
0
TEXT
8
TEXT
10
755.000000
20
197.007100
30
0.0
40
2.4000
1
   0.2 mm
0
TEXT
8
TEXT
10
755.000000
20
193.287100
30
0.0
40
2.4000
1
6. TOLERANCE BASIS, IN-HOUSE: CANNOT DETERMINE.
0
TEXT
8
TEXT
10
755.000000
20
189.567100
30
0.0
40
2.4000
1
   Every Bambu on this farm records tolerance_mm:
0
TEXT
8
TEXT
10
755.000000
20
185.847100
30
0.0
40
2.4000
1
   null, cite "no coupon printed and measured on
0
TEXT
8
TEXT
10
755.000000
20
182.127100
30
0.0
40
2.4000
1
   this machine" (ce-machines/bambu-h2s-*,
0
TEXT
8
TEXT
10
755.000000
20
178.407100
30
0.0
40
2.4000
1
   bambu-h2d-*/capabilities.json, read
0
TEXT
8
TEXT
10
755.000000
20
174.687100
30
0.0
40
2.4000
1
   2026-09-02), and Bambu Lab's own H2D Pro spec
0
TEXT
8
TEXT
10
755.000000
20
170.967100
30
0.0
40
2.4000
1
   sheet carries no dimensional-accuracy line.
0
TEXT
8
TEXT
10
755.000000
20
167.247100
30
0.0
40
2.4000
1
   DIMENSIONS HERE ARE NOMINAL AS MODELLED.
0
TEXT
8
TEXT
10
755.000000
20
163.527100
30
0.0
40
2.4000
1
7. TOLERANCE BASIS, OUTSOURCED: JLC3DP ±0.3 mm FDM
0
TEXT
8
TEXT
10
755.000000
20
159.807100
30
0.0
40
2.4000
1
   (jlc3dp.com, ce-machines/farm-jlc3dp); Hubs
0
TEXT
8
TEXT
10
755.000000
20
156.087100
30
0.0
40
2.4000
1
   ±0.5%, floor ±0.5 mm (hubs.com/3d-printing/,
0
TEXT
8
TEXT
10
755.000000
20
152.367100
30
0.0
40
2.4000
1
   ce-machines/farm-hubs). Apply the route's
0
TEXT
8
TEXT
10
755.000000
20
148.647100
30
0.0
40
2.4000
1
   figure, not both. The ±0.2 mm in
0
TEXT
8
TEXT
10
755.000000
20
144.927100
30
0.0
40
2.4000
1
   cecad/machining.py fdm is a repo planning
0
TEXT
8
TEXT
10
755.000000
20
141.207100
30
0.0
40
2.4000
1
   constant with no vendor cite and is NOT used
0
TEXT
8
TEXT
10
755.000000
20
137.487100
30
0.0
40
2.4000
1
   here. One printed and measured coupon closes
0
TEXT
8
TEXT
10
755.000000
20
133.767100
30
0.0
40
2.4000
1
   this note.
0
TEXT
8
TEXT
10
755.000000
20
130.047100
30
0.0
40
2.4000
1
8. NO ISO 286 CLASS IS DECLARED ON ANY BORE: FDM
0
TEXT
8
TEXT
10
755.000000
20
126.327100
30
0.0
40
2.4000
1
   cannot be sized to one (H7/p6 at Ø3 is a 0.010
0
TEXT
8
TEXT
10
755.000000
20
122.607100
30
0.0
40
2.4000
1
   mm band). REAM bearing and press-fit bores
0
TEXT
8
TEXT
10
755.000000
20
118.887100
30
0.0
40
2.4000
1
   after printing.
0
TEXT
8
TEXT
10
755.000000
20
115.167100
30
0.0
40
2.4000
1
9. ORTHOGRAPHIC VIEWS: 3 (FRONT, TOP, RIGHT),
0
TEXT
8
TEXT
10
755.000000
20
111.447100
30
0.0
40
2.4000
1
   CHOSEN OFF THE BOUNDING BOX 23.0000 x 25.8000 x
0
TEXT
8
TEXT
10
755.000000
20
107.727100
30
0.0
40
2.4000
1
   20.5000 mm BY cecad.autosheet.choose_views —
0
TEXT
8
TEXT
10
755.000000
20
104.007100
30
0.0
40
2.4000
1
   THINNEST/LONGEST EXTENT RATIO 0.7946. THE FULL
0
TEXT
8
TEXT
10
755.000000
20
100.287100
30
0.0
40
2.4000
1
   THIRD-ANGLE SET IS DRAWN.
0
LINE
8
FRAME
10
645.000000
20
10.000000
30
0.0
11
831.000000
21
10.000000
31
0.0
0
LINE
8
FRAME
10
831.000000
20
10.000000
30
0.0
11
831.000000
21
66.000000
31
0.0
0
LINE
8
FRAME
10
831.000000
20
66.000000
30
0.0
11
645.000000
21
66.000000
31
0.0
0
LINE
8
FRAME
10
645.000000
20
66.000000
30
0.0
11
645.000000
21
10.000000
31
0.0
0
LINE
8
TITLE
10
645.000000
20
53.000000
30
0.0
11
831.000000
21
53.000000
31
0.0
0
LINE
8
TITLE
10
645.000000
20
19.000000
30
0.0
11
831.000000
21
19.000000
31
0.0
0
LINE
8
TITLE
10
645.000000
20
27.500000
30
0.0
11
831.000000
21
27.500000
31
0.0
0
LINE
8
TITLE
10
645.000000
20
36.000000
30
0.0
11
831.000000
21
36.000000
31
0.0
0
LINE
8
TITLE
10
645.000000
20
44.500000
30
0.0
11
831.000000
21
44.500000
31
0.0
0
TEXT
8
TEXT
10
647.500000
20
59.500000
30
0.0
40
6.0000
1
MICRODUCK-YAW2ROLL
72
0
73
2
11
647.500000
21
59.500000
31
0.0
0
LINE
8
TITLE
10
811.000000
20
53.000000
30
0.0
11
811.000000
21
66.000000
31
0.0
0
TEXT
8
TITLE
10
821.000000
20
63.600000
30
0.0
40
1.7000
1
REV
72
1
73
0
11
821.000000
21
63.600000
31
0.0
0
TEXT
8
TEXT
10
821.000000
20
55.000000
30
0.0
40
5.2000
1
A
72
1
73
0
11
821.000000
21
55.000000
31
0.0
0
LINE
8
TITLE
10
781.000000
20
53.000000
30
0.0
11
781.000000
21
66.000000
31
0.0
0
CIRCLE
8
TITLE
10
787.500000
20
59.500000
30
0.0
40
3.500000
0
CIRCLE
8
TITLE
10
787.500000
20
59.500000
30
0.0
40
1.960000
0
LINE
8
TITLE
10
797.300000
20
56.000000
30
0.0
11
797.300000
21
63.000000
31
0.0
0
LINE
8
TITLE
10
797.300000
20
63.000000
30
0.0
11
803.250000
21
61.460000
31
0.0
0
LINE
8
TITLE
10
803.250000
20
61.460000
30
0.0
11
803.250000
21
57.540000
31
0.0
0
LINE
8
TITLE
10
803.250000
20
57.540000
30
0.0
11
797.300000
21
56.000000
31
0.0
0
LINE
8
CENTER
10
782.500000
20
59.500000
30
0.0
11
804.750000
21
59.500000
31
0.0
0
LINE
8
TITLE
10
709.000000
20
19.000000
30
0.0
11
709.000000
21
53.000000
31
0.0
0
LINE
8
TITLE
10
773.000000
20
19.000000
30
0.0
11
773.000000
21
53.000000
31
0.0
0
TEXT
8
TITLE
10
646.600000
20
50.600000
30
0.0
40
1.7000
1
MATERIAL
0
TEXT
8
TEXT
10
646.600000
20
45.900000
30
0.0
40
2.5000
1
PLA
0
TEXT
8
TITLE
10
710.600000
20
50.600000
30
0.0
40
1.7000
1
PROCESS
0
TEXT
8
TEXT
10
710.600000
20
45.900000
30
0.0
40
2.5000
1
FDM
0
TEXT
8
TITLE
10
774.600000
20
50.600000
30
0.0
40
1.7000
1
SCALE
0
TEXT
8
TEXT
10
774.600000
20
45.900000
30
0.0
40
2.5000
1
5:1
0
TEXT
8
TITLE
10
646.600000
20
42.100000
30
0.0
40
1.7000
1
CATEGORY
0
TEXT
8
TEXT
10
646.600000
20
37.400000
30
0.0
40
2.5000
1
bracket
0
TEXT
8
TITLE
10
678.600000
20
42.100000
30
0.0
40
1.7000
1
GENERAL TOL
0
TEXT
8
TEXT
10
678.600000
20
37.400000
30
0.0
40
2.5000
1
CANNOT DETERMINE —~
0
LINE
8
TITLE
10
677.000000
20
36.000000
30
0.0
11
677.000000
21
44.500000
31
0.0
0
TEXT
8
TITLE
10
710.600000
20
42.100000
30
0.0
40
1.7000
1
FINISH
0
TEXT
8
TEXT
10
710.600000
20
37.400000
30
0.0
40
2.5000
1
AS PRINTED
0
TEXT
8
TITLE
10
774.600000
20
42.100000
30
0.0
40
1.7000
1
SHEET
0
TEXT
8
TEXT
10
774.600000
20
37.400000
30
0.0
40
2.5000
1
A1  1/1
0
TEXT
8
TITLE
10
646.600000
20
33.600000
30
0.0
40
1.7000
1
VOLUME (MEASURED)
0
TEXT
8
TEXT
10
646.600000
20
28.900000
30
0.0
40
2.5000
1
2.83 cm3
0
TEXT
8
TITLE
10
710.600000
20
33.600000
30
0.0
40
1.7000
1
MASS (ASSUMES PLA)
0
TEXT
8
TEXT
10
710.600000
20
28.900000
30
0.0
40
2.5000
1
3.5 g
0
TEXT
8
TITLE
10
774.600000
20
33.600000
30
0.0
40
1.7000
1
UNITS
0
TEXT
8
TEXT
10
774.600000
20
28.900000
30
0.0
40
2.5000
1
mm / deg
0
TEXT
8
TITLE
10
646.600000
20
25.100000
30
0.0
40
1.7000
1
SIZE (BBOX, MEASURED)
0
TEXT
8
TEXT
10
646.600000
20
20.400000
30
0.0
40
2.5000
1
23.00 x 25.80 x 20.50
0
TEXT
8
TITLE
10
710.600000
20
25.100000
30
0.0
40
1.7000
1
DRAWN
0
TEXT
8
TEXT
10
710.600000
20
20.400000
30
0.0
40
2.5000
1
ce-cad  2026-09-03
0
TEXT
8
TITLE
10
774.600000
20
25.100000
30
0.0
40
1.7000
1
PROJECTION
0
TEXT
8
TEXT
10
774.600000
20
20.400000
30
0.0
40
2.5000
1
THIRD ANGLE
0
TEXT
8
TITLE
10
646.600000
20
16.600000
30
0.0
40
1.7000
1
SOURCE (DESIGN FILE)
0
TEXT
8
TEXT
10
646.600000
20
11.400000
30
0.0
40
2.6000
1
ce-parts/microduck-yaw2roll/current/cad/part.py
0
TEXT
8
TEXT
10
12.500000
20
577.500000
30
0.0
40
4.2000
1
microduck-yaw2roll   SCALE 5:1   A1   THIRD ANGLE
0
ENDSEC
0
EOF
