0
SECTION
2
HEADER
9
$ACADVER
1
AC1009
9
$INSUNITS
70
4
9
$LTSCALE
40
1.0
9
$EXTMIN
10
0.0000
20
0.0000
30
0.0
9
$EXTMAX
10
420.0000
20
297.0000
30
0.0
0
ENDSEC
0
SECTION
2
TABLES
0
TABLE
2
LTYPE
70
4
0
LTYPE
2
CONTINUOUS
70
0
3
Solid line
72
65
73
0
40
0.0000
0
LTYPE
2
HIDDEN
70
0
3
Hidden __ __ __ __
72
65
73
2
40
3.6000
49
2.4000
49
-1.2000
0
LTYPE
2
CENTER
70
0
3
Center ____ _ ____ _
72
65
73
4
40
11.2000
49
7.0000
49
-1.4000
49
1.4000
49
-1.4000
0
LTYPE
2
PHANTOM
70
0
3
Phantom ____ _ _ ____
72
65
73
6
40
21.0000
49
11.0000
49
-2.0000
49
2.0000
49
-2.0000
49
2.0000
49
-2.0000
0
ENDTAB
0
TABLE
2
LAYER
70
12
0
LAYER
2
0
70
0
62
7
6
CONTINUOUS
0
LAYER
2
VISIBLE
70
0
62
7
6
CONTINUOUS
0
LAYER
2
SECTION
70
0
62
7
6
CONTINUOUS
0
LAYER
2
HIDDEN
70
0
62
8
6
HIDDEN
0
LAYER
2
CENTER
70
0
62
4
6
CENTER
0
LAYER
2
DIM
70
0
62
3
6
CONTINUOUS
0
LAYER
2
TEXT
70
0
62
3
6
CONTINUOUS
0
LAYER
2
HATCH
70
0
62
5
6
CONTINUOUS
0
LAYER
2
CUT
70
0
62
1
6
PHANTOM
0
LAYER
2
CUTTHIN
70
0
62
1
6
PHANTOM
0
LAYER
2
FRAME
70
0
62
7
6
CONTINUOUS
0
LAYER
2
TITLE
70
0
62
7
6
CONTINUOUS
0
ENDTAB
0
ENDSEC
0
SECTION
2
ENTITIES
0
LINE
8
TITLE
10
5.000000
20
5.000000
30
0.0
11
415.000000
21
5.000000
31
0.0
0
LINE
8
TITLE
10
415.000000
20
5.000000
30
0.0
11
415.000000
21
292.000000
31
0.0
0
LINE
8
TITLE
10
415.000000
20
292.000000
30
0.0
11
5.000000
21
292.000000
31
0.0
0
LINE
8
TITLE
10
5.000000
20
292.000000
30
0.0
11
5.000000
21
5.000000
31
0.0
0
LINE
8
FRAME
10
10.000000
20
10.000000
30
0.0
11
410.000000
21
10.000000
31
0.0
0
LINE
8
FRAME
10
410.000000
20
10.000000
30
0.0
11
410.000000
21
287.000000
31
0.0
0
LINE
8
FRAME
10
410.000000
20
287.000000
30
0.0
11
10.000000
21
287.000000
31
0.0
0
LINE
8
FRAME
10
10.000000
20
287.000000
30
0.0
11
10.000000
21
10.000000
31
0.0
0
TEXT
8
TITLE
10
60.000000
20
289.500000
30
0.0
40
2.4000
1
1
72
1
73
2
11
60.000000
21
289.500000
31
0.0
0
TEXT
8
TITLE
10
60.000000
20
7.500000
30
0.0
40
2.4000
1
1
72
1
73
2
11
60.000000
21
7.500000
31
0.0
0
TEXT
8
TITLE
10
160.000000
20
289.500000
30
0.0
40
2.4000
1
2
72
1
73
2
11
160.000000
21
289.500000
31
0.0
0
TEXT
8
TITLE
10
160.000000
20
7.500000
30
0.0
40
2.4000
1
2
72
1
73
2
11
160.000000
21
7.500000
31
0.0
0
LINE
8
TITLE
10
110.000000
20
5.000000
30
0.0
11
110.000000
21
10.000000
31
0.0
0
LINE
8
TITLE
10
110.000000
20
287.000000
30
0.0
11
110.000000
21
292.000000
31
0.0
0
TEXT
8
TITLE
10
260.000000
20
289.500000
30
0.0
40
2.4000
1
3
72
1
73
2
11
260.000000
21
289.500000
31
0.0
0
TEXT
8
TITLE
10
260.000000
20
7.500000
30
0.0
40
2.4000
1
3
72
1
73
2
11
260.000000
21
7.500000
31
0.0
0
LINE
8
TITLE
10
210.000000
20
5.000000
30
0.0
11
210.000000
21
10.000000
31
0.0
0
LINE
8
TITLE
10
210.000000
20
287.000000
30
0.0
11
210.000000
21
292.000000
31
0.0
0
TEXT
8
TITLE
10
360.000000
20
289.500000
30
0.0
40
2.4000
1
4
72
1
73
2
11
360.000000
21
289.500000
31
0.0
0
TEXT
8
TITLE
10
360.000000
20
7.500000
30
0.0
40
2.4000
1
4
72
1
73
2
11
360.000000
21
7.500000
31
0.0
0
LINE
8
TITLE
10
310.000000
20
5.000000
30
0.0
11
310.000000
21
10.000000
31
0.0
0
LINE
8
TITLE
10
310.000000
20
287.000000
30
0.0
11
310.000000
21
292.000000
31
0.0
0
TEXT
8
TITLE
10
7.500000
20
56.166667
30
0.0
40
2.4000
1
C
72
1
73
2
11
7.500000
21
56.166667
31
0.0
0
TEXT
8
TITLE
10
412.500000
20
56.166667
30
0.0
40
2.4000
1
C
72
1
73
2
11
412.500000
21
56.166667
31
0.0
0
TEXT
8
TITLE
10
7.500000
20
148.500000
30
0.0
40
2.4000
1
B
72
1
73
2
11
7.500000
21
148.500000
31
0.0
0
TEXT
8
TITLE
10
412.500000
20
148.500000
30
0.0
40
2.4000
1
B
72
1
73
2
11
412.500000
21
148.500000
31
0.0
0
LINE
8
TITLE
10
5.000000
20
102.333333
30
0.0
11
10.000000
21
102.333333
31
0.0
0
LINE
8
TITLE
10
410.000000
20
102.333333
30
0.0
11
415.000000
21
102.333333
31
0.0
0
TEXT
8
TITLE
10
7.500000
20
240.833333
30
0.0
40
2.4000
1
A
72
1
73
2
11
7.500000
21
240.833333
31
0.0
0
TEXT
8
TITLE
10
412.500000
20
240.833333
30
0.0
40
2.4000
1
A
72
1
73
2
11
412.500000
21
240.833333
31
0.0
0
LINE
8
TITLE
10
5.000000
20
194.666667
30
0.0
11
10.000000
21
194.666667
31
0.0
0
LINE
8
TITLE
10
410.000000
20
194.666667
30
0.0
11
415.000000
21
194.666667
31
0.0
0
LINE
8
VISIBLE
10
109.700000
20
137.037500
30
0.0
11
109.700000
21
131.287500
31
0.0
0
LINE
8
VISIBLE
10
109.700000
20
137.037500
30
0.0
11
109.700000
21
140.537500
31
0.0
0
ARC
8
VISIBLE
10
90.200000
20
135.037500
30
0.0
40
1.200000
50
155.375682
51
24.624318
0
ARC
8
VISIBLE
10
106.200000
20
135.037500
30
0.0
40
1.200000
50
24.624318
51
90.000000
0
ARC
8
VISIBLE
10
106.200000
20
135.037500
30
0.0
40
1.200000
50
155.375682
51
24.624318
0
ARC
8
VISIBLE
10
106.200000
20
135.037500
30
0.0
40
1.200000
50
90.000000
51
155.375682
0
LINE
8
VISIBLE
10
86.727391
20
130.764858
30
0.0
11
86.700000
21
131.287500
31
0.0
0
LINE
8
VISIBLE
10
86.809262
20
130.247942
30
0.0
11
86.727391
21
130.764858
31
0.0
0
LINE
8
VISIBLE
10
86.944717
20
129.742415
30
0.0
11
86.809262
21
130.247942
31
0.0
0
LINE
8
VISIBLE
10
87.132273
20
129.253817
30
0.0
11
87.005239
21
129.584750
31
0.0
0
LINE
8
VISIBLE
10
87.005239
20
129.584750
30
0.0
11
86.944717
21
129.742415
31
0.0
0
LINE
8
VISIBLE
10
87.369873
20
128.787500
30
0.0
11
87.132273
21
129.253817
31
0.0
0
LINE
8
VISIBLE
10
87.654915
20
128.348574
30
0.0
11
87.369873
21
128.787500
31
0.0
0
LINE
8
VISIBLE
10
87.984276
20
127.941847
30
0.0
11
87.654915
21
128.348574
31
0.0
0
LINE
8
VISIBLE
10
88.354347
20
127.571776
30
0.0
11
88.100000
21
127.826123
31
0.0
0
LINE
8
VISIBLE
10
88.100000
20
127.826123
30
0.0
11
87.984276
21
127.941847
31
0.0
0
LINE
8
VISIBLE
10
88.761074
20
127.242415
30
0.0
11
88.354347
21
127.571776
31
0.0
0
LINE
8
VISIBLE
10
89.200000
20
126.957373
30
0.0
11
88.761074
21
127.242415
31
0.0
0
LINE
8
VISIBLE
10
95.700000
20
123.207373
30
0.0
11
89.200000
21
126.957373
31
0.0
0
LINE
8
VISIBLE
10
96.166317
20
122.969773
30
0.0
11
95.700000
21
123.207373
31
0.0
0
LINE
8
VISIBLE
10
96.654915
20
122.782217
30
0.0
11
96.166317
21
122.969773
31
0.0
0
LINE
8
VISIBLE
10
97.160442
20
122.646762
30
0.0
11
96.654915
21
122.782217
31
0.0
0
LINE
8
VISIBLE
10
97.677358
20
122.564891
30
0.0
11
97.160442
21
122.646762
31
0.0
0
LINE
8
VISIBLE
10
98.200000
20
122.537500
30
0.0
11
97.677358
21
122.564891
31
0.0
0
LINE
8
VISIBLE
10
98.722642
20
122.564891
30
0.0
11
98.200000
21
122.537500
31
0.0
0
LINE
8
VISIBLE
10
99.239558
20
122.646762
30
0.0
11
98.722642
21
122.564891
31
0.0
0
LINE
8
VISIBLE
10
99.745085
20
122.782217
30
0.0
11
99.239558
21
122.646762
31
0.0
0
LINE
8
VISIBLE
10
100.233683
20
122.969773
30
0.0
11
99.745085
21
122.782217
31
0.0
0
LINE
8
VISIBLE
10
100.700000
20
123.207373
30
0.0
11
100.233683
21
122.969773
31
0.0
0
LINE
8
VISIBLE
10
107.200000
20
126.957373
30
0.0
11
100.700000
21
123.207373
31
0.0
0
LINE
8
VISIBLE
10
107.638926
20
127.242415
30
0.0
11
107.200000
21
126.957373
31
0.0
0
LINE
8
VISIBLE
10
109.700000
20
131.287500
30
0.0
11
109.672609
21
130.764858
31
0.0
0
LINE
8
VISIBLE
10
109.672609
20
130.764858
30
0.0
11
109.590738
21
130.247942
31
0.0
0
LINE
8
VISIBLE
10
109.590738
20
130.247942
30
0.0
11
109.455283
21
129.742415
31
0.0
0
LINE
8
VISIBLE
10
109.455283
20
129.742415
30
0.0
11
109.394761
21
129.584750
31
0.0
0
LINE
8
VISIBLE
10
109.394761
20
129.584750
30
0.0
11
108.300000
21
129.584750
31
0.0
0
LINE
8
VISIBLE
10
108.300000
20
129.584750
30
0.0
11
108.300000
21
137.037500
31
0.0
0
LINE
8
VISIBLE
10
109.394761
20
129.584750
30
0.0
11
109.267727
21
129.253817
31
0.0
0
LINE
8
VISIBLE
10
109.267727
20
129.253817
30
0.0
11
109.030127
21
128.787500
31
0.0
0
LINE
8
VISIBLE
10
109.030127
20
128.787500
30
0.0
11
108.745085
21
128.348574
31
0.0
0
LINE
8
VISIBLE
10
108.745085
20
128.348574
30
0.0
11
108.415724
21
127.941847
31
0.0
0
LINE
8
VISIBLE
10
108.415724
20
127.941847
30
0.0
11
108.300000
21
127.826123
31
0.0
0
LINE
8
VISIBLE
10
108.300000
20
127.826123
30
0.0
11
108.300000
21
129.584750
31
0.0
0
LINE
8
VISIBLE
10
108.300000
20
127.826123
30
0.0
11
108.045653
21
127.571776
31
0.0
0
LINE
8
VISIBLE
10
108.045653
20
127.571776
30
0.0
11
107.638926
21
127.242415
31
0.0
0
LINE
8
VISIBLE
10
88.100000
20
129.584750
30
0.0
11
88.100000
21
137.037500
31
0.0
0
LINE
8
VISIBLE
10
88.100000
20
129.584750
30
0.0
11
87.005239
21
129.584750
31
0.0
0
LINE
8
VISIBLE
10
86.700000
20
131.287500
30
0.0
11
86.700000
21
137.037500
31
0.0
0
LINE
8
VISIBLE
10
108.300000
20
135.537500
30
0.0
11
107.290871
21
135.537500
31
0.0
0
LINE
8
VISIBLE
10
105.109129
20
135.537500
30
0.0
11
91.290871
21
135.537500
31
0.0
0
LINE
8
VISIBLE
10
89.109129
20
135.537500
30
0.0
11
88.100000
21
135.537500
31
0.0
0
LINE
8
VISIBLE
10
88.100000
20
127.826123
30
0.0
11
88.100000
21
129.584750
31
0.0
0
CIRCLE
8
VISIBLE
10
98.200000
20
127.537500
30
0.0
40
2.500000
0
CIRCLE
8
VISIBLE
10
98.200000
20
127.537500
30
0.0
40
1.350000
0
LINE
8
VISIBLE
10
106.710000
20
139.537500
30
0.0
11
106.305223
21
139.537500
31
0.0
0
LINE
8
VISIBLE
10
104.700000
20
139.537500
30
0.0
11
91.700000
21
139.537500
31
0.0
0
LINE
8
VISIBLE
10
89.690000
20
139.537500
30
0.0
11
90.094777
21
139.537500
31
0.0
0
LINE
8
VISIBLE
10
104.700000
20
139.537500
30
0.0
11
104.200000
21
139.537500
31
0.0
0
LINE
8
VISIBLE
10
91.700000
20
139.537500
30
0.0
11
92.200000
21
139.537500
31
0.0
0
LINE
8
VISIBLE
10
106.710000
20
139.537500
30
0.0
11
106.710000
21
140.937792
31
0.0
0
ARC
8
VISIBLE
10
107.200000
20
140.037500
30
0.0
40
1.025000
50
29.196404
51
90.000000
0
ARC
8
VISIBLE
10
107.200000
20
140.037500
30
0.0
40
1.025000
50
330.803596
51
29.196404
0
ARC
8
VISIBLE
10
107.200000
20
140.037500
30
0.0
40
1.025000
50
330.161234
51
330.803596
0
ARC
8
VISIBLE
10
107.200000
20
140.037500
30
0.0
40
1.025000
50
209.838766
51
330.161234
0
ARC
8
VISIBLE
10
107.200000
20
140.037500
30
0.0
40
1.025000
50
209.196404
51
209.838766
0
ARC
8
VISIBLE
10
107.200000
20
140.037500
30
0.0
40
1.025000
50
150.803596
51
209.196404
0
ARC
8
VISIBLE
10
107.200000
20
140.037500
30
0.0
40
1.025000
50
90.000000
51
150.803596
0
LINE
8
VISIBLE
10
104.700000
20
139.537500
30
0.0
11
104.700000
21
140.537500
31
0.0
0
LINE
8
VISIBLE
10
89.690000
20
139.537500
30
0.0
11
89.690000
21
140.937792
31
0.0
0
ARC
8
VISIBLE
10
89.200000
20
140.037500
30
0.0
40
1.025000
50
29.196404
51
90.000000
0
ARC
8
VISIBLE
10
89.200000
20
140.037500
30
0.0
40
1.025000
50
330.803596
51
29.196404
0
ARC
8
VISIBLE
10
89.200000
20
140.037500
30
0.0
40
1.025000
50
330.161234
51
330.803596
0
ARC
8
VISIBLE
10
89.200000
20
140.037500
30
0.0
40
1.025000
50
209.838766
51
330.161234
0
ARC
8
VISIBLE
10
89.200000
20
140.037500
30
0.0
40
1.025000
50
209.196404
51
209.838766
0
ARC
8
VISIBLE
10
89.200000
20
140.037500
30
0.0
40
1.025000
50
150.803596
51
209.196404
0
ARC
8
VISIBLE
10
89.200000
20
140.037500
30
0.0
40
1.025000
50
90.000000
51
150.803596
0
LINE
8
VISIBLE
10
91.700000
20
139.537500
30
0.0
11
91.700000
21
140.537500
31
0.0
0
LINE
8
VISIBLE
10
104.200000
20
139.537500
30
0.0
11
104.200000
21
140.037500
31
0.0
0
LINE
8
VISIBLE
10
104.200000
20
140.037500
30
0.0
11
104.200000
21
141.987500
31
0.0
0
LINE
8
VISIBLE
10
104.200000
20
141.987500
30
0.0
11
105.163459
21
141.987500
31
0.0
0
LINE
8
VISIBLE
10
106.175000
20
140.037500
30
0.0
11
106.710000
21
140.037500
31
0.0
0
LINE
8
VISIBLE
10
104.200000
20
140.037500
30
0.0
11
92.200000
21
140.037500
31
0.0
0
LINE
8
VISIBLE
10
92.200000
20
139.537500
30
0.0
11
92.200000
21
140.037500
31
0.0
0
LINE
8
VISIBLE
10
104.200000
20
141.987500
30
0.0
11
92.200000
21
141.987500
31
0.0
0
LINE
8
VISIBLE
10
92.200000
20
140.037500
30
0.0
11
92.200000
21
141.987500
31
0.0
0
LINE
8
VISIBLE
10
92.200000
20
141.987500
30
0.0
11
91.236541
21
141.987500
31
0.0
0
LINE
8
VISIBLE
10
90.225000
20
140.037500
30
0.0
11
89.690000
21
140.037500
31
0.0
0
LINE
8
VISIBLE
10
109.700000
20
137.037500
30
0.0
11
86.700000
21
137.037500
31
0.0
0
LINE
8
VISIBLE
10
86.700000
20
137.037500
30
0.0
11
86.700000
21
140.537500
31
0.0
0
ARC
8
VISIBLE
10
89.200000
20
140.537500
30
0.0
40
2.500000
50
90.000000
51
180.000000
0
ARC
8
VISIBLE
10
89.200000
20
140.537500
30
0.0
40
2.500000
50
0.000000
51
90.000000
0
ARC
8
VISIBLE
10
107.200000
20
140.537500
30
0.0
40
2.500000
50
90.000000
51
180.000000
0
ARC
8
VISIBLE
10
107.200000
20
140.537500
30
0.0
40
2.500000
50
0.000000
51
90.000000
0
LINE
8
VISIBLE
10
90.200000
20
140.037500
30
0.0
11
90.200000
21
140.262500
31
0.0
0
LINE
8
VISIBLE
10
106.200000
20
140.037500
30
0.0
11
106.200000
21
140.262500
31
0.0
0
ARC
8
VISIBLE
10
90.200000
20
135.037500
30
0.0
40
1.200000
50
24.624318
51
155.375682
0
ARC
8
VISIBLE
10
107.200000
20
140.037500
30
0.0
40
1.025000
50
209.196404
51
90.000000
0
LINE
8
HIDDEN
10
86.700000
20
137.537500
30
0.0
11
86.700000
21
139.537500
31
0.0
0
LINE
8
HIDDEN
10
86.700000
20
139.537500
30
0.0
11
109.700000
21
139.537500
31
0.0
0
LINE
8
HIDDEN
10
109.700000
20
137.537500
30
0.0
11
109.700000
21
139.537500
31
0.0
0
LINE
8
HIDDEN
10
109.700000
20
137.537500
30
0.0
11
86.700000
21
137.537500
31
0.0
0
LINE
8
HIDDEN
10
109.700000
20
131.287500
30
0.0
11
109.700000
21
137.537500
31
0.0
0
LINE
8
HIDDEN
10
109.700000
20
139.537500
30
0.0
11
109.700000
21
140.537500
31
0.0
0
CIRCLE
8
HIDDEN
10
90.200000
20
135.037500
30
0.0
40
2.420000
0
CIRCLE
8
HIDDEN
10
90.200000
20
135.037500
30
0.0
40
1.200000
0
CIRCLE
8
HIDDEN
10
106.200000
20
135.037500
30
0.0
40
2.420000
0
CIRCLE
8
HIDDEN
10
106.200000
20
135.037500
30
0.0
40
1.200000
0
LINE
8
HIDDEN
10
87.132273
20
129.253817
30
0.0
11
86.944717
21
129.742415
31
0.0
0
LINE
8
HIDDEN
10
88.354347
20
127.571776
30
0.0
11
87.984276
21
127.941847
31
0.0
0
LINE
8
HIDDEN
10
109.700000
20
137.037500
30
0.0
11
108.300000
21
137.037500
31
0.0
0
LINE
8
HIDDEN
10
109.455283
20
129.742415
30
0.0
11
109.267727
21
129.253817
31
0.0
0
LINE
8
HIDDEN
10
108.300000
20
135.537500
30
0.0
11
108.300000
21
137.037500
31
0.0
0
LINE
8
HIDDEN
10
108.300000
20
127.826123
30
0.0
11
108.300000
21
135.537500
31
0.0
0
LINE
8
HIDDEN
10
108.415724
20
127.941847
30
0.0
11
108.045653
21
127.571776
31
0.0
0
LINE
8
HIDDEN
10
88.100000
20
137.037500
30
0.0
11
86.700000
21
137.037500
31
0.0
0
LINE
8
HIDDEN
10
88.100000
20
135.537500
30
0.0
11
88.100000
21
137.037500
31
0.0
0
LINE
8
HIDDEN
10
88.100000
20
137.037500
30
0.0
11
108.300000
21
137.037500
31
0.0
0
LINE
8
HIDDEN
10
88.100000
20
127.826123
30
0.0
11
88.100000
21
135.537500
31
0.0
0
CIRCLE
8
HIDDEN
10
98.200000
20
127.537500
30
0.0
40
2.750000
0
CIRCLE
8
HIDDEN
10
98.200000
20
127.537500
30
0.0
40
2.750000
0
LINE
8
HIDDEN
10
108.790000
20
139.537500
30
0.0
11
109.700000
21
139.537500
31
0.0
0
LINE
8
HIDDEN
10
108.790000
20
142.466723
30
0.0
11
109.461084
21
141.604036
31
0.0
0
LINE
8
HIDDEN
10
109.461084
20
141.604036
30
0.0
11
109.700000
21
140.537500
31
0.0
0
LINE
8
HIDDEN
10
108.790000
20
139.537500
30
0.0
11
108.790000
21
142.466723
31
0.0
0
LINE
8
HIDDEN
10
108.440000
20
139.537500
30
0.0
11
108.790000
21
139.537500
31
0.0
0
LINE
8
HIDDEN
10
108.440000
20
142.708306
30
0.0
11
108.790000
21
142.466723
31
0.0
0
LINE
8
HIDDEN
10
108.440000
20
139.537500
30
0.0
11
108.440000
21
142.708306
31
0.0
0
LINE
8
HIDDEN
10
107.990000
20
139.537500
30
0.0
11
108.440000
21
139.537500
31
0.0
0
LINE
8
HIDDEN
10
107.990000
20
142.909398
30
0.0
11
108.440000
21
142.708306
31
0.0
0
LINE
8
HIDDEN
10
107.990000
20
139.537500
30
0.0
11
107.990000
21
142.909398
31
0.0
0
LINE
8
HIDDEN
10
107.350000
20
139.537500
30
0.0
11
107.990000
21
139.537500
31
0.0
0
LINE
8
HIDDEN
10
107.170000
20
139.537500
30
0.0
11
107.350000
21
139.537500
31
0.0
0
LINE
8
HIDDEN
10
106.710000
20
139.537500
30
0.0
11
107.170000
21
139.537500
31
0.0
0
LINE
8
HIDDEN
10
106.100000
20
139.537500
30
0.0
11
106.305223
21
139.537500
31
0.0
0
LINE
8
HIDDEN
10
105.840000
20
139.537500
30
0.0
11
106.100000
21
139.537500
31
0.0
0
LINE
8
HIDDEN
10
105.580000
20
139.537500
30
0.0
11
105.840000
21
139.537500
31
0.0
0
LINE
8
HIDDEN
10
105.270000
20
139.537500
30
0.0
11
105.580000
21
139.537500
31
0.0
0
LINE
8
HIDDEN
10
104.970000
20
139.537500
30
0.0
11
105.270000
21
139.537500
31
0.0
0
LINE
8
HIDDEN
10
104.750000
20
139.537500
30
0.0
11
104.970000
21
139.537500
31
0.0
0
LINE
8
HIDDEN
10
104.700000
20
139.537500
30
0.0
11
104.750000
21
139.537500
31
0.0
0
LINE
8
HIDDEN
10
91.700000
20
139.537500
30
0.0
11
91.650000
21
139.537500
31
0.0
0
LINE
8
HIDDEN
10
91.650000
20
139.537500
30
0.0
11
91.430000
21
139.537500
31
0.0
0
LINE
8
HIDDEN
10
91.430000
20
139.537500
30
0.0
11
91.130000
21
139.537500
31
0.0
0
LINE
8
HIDDEN
10
91.130000
20
139.537500
30
0.0
11
90.820000
21
139.537500
31
0.0
0
LINE
8
HIDDEN
10
90.820000
20
139.537500
30
0.0
11
90.560000
21
139.537500
31
0.0
0
LINE
8
HIDDEN
10
90.560000
20
139.537500
30
0.0
11
90.300000
21
139.537500
31
0.0
0
LINE
8
HIDDEN
10
90.300000
20
139.537500
30
0.0
11
90.094777
21
139.537500
31
0.0
0
LINE
8
HIDDEN
10
89.690000
20
139.537500
30
0.0
11
89.230000
21
139.537500
31
0.0
0
LINE
8
HIDDEN
10
89.230000
20
139.537500
30
0.0
11
89.050000
21
139.537500
31
0.0
0
LINE
8
HIDDEN
10
89.050000
20
139.537500
30
0.0
11
88.410000
21
139.537500
31
0.0
0
LINE
8
HIDDEN
10
88.410000
20
139.537500
30
0.0
11
87.960000
21
139.537500
31
0.0
0
LINE
8
HIDDEN
10
87.960000
20
139.537500
30
0.0
11
87.610000
21
139.537500
31
0.0
0
LINE
8
HIDDEN
10
87.610000
20
139.537500
30
0.0
11
86.700000
21
139.537500
31
0.0
0
LINE
8
HIDDEN
10
107.487088
20
139.537500
30
0.0
11
104.700000
21
139.537500
31
0.0
0
LINE
8
HIDDEN
10
88.700000
20
139.537500
30
0.0
11
107.700000
21
139.537500
31
0.0
0
LINE
8
HIDDEN
10
107.700000
20
139.537500
30
0.0
11
107.487088
21
139.537500
31
0.0
0
LINE
8
HIDDEN
10
88.912912
20
139.537500
30
0.0
11
88.700000
21
139.537500
31
0.0
0
LINE
8
HIDDEN
10
88.912912
20
139.537500
30
0.0
11
91.700000
21
139.537500
31
0.0
0
LINE
8
HIDDEN
10
104.200000
20
139.537500
30
0.0
11
92.200000
21
139.537500
31
0.0
0
LINE
8
HIDDEN
10
107.350000
20
139.537500
30
0.0
11
107.350000
21
143.032996
31
0.0
0
LINE
8
HIDDEN
10
107.200000
20
143.037500
30
0.0
11
107.350000
21
143.032996
31
0.0
0
LINE
8
HIDDEN
10
107.170000
20
143.037320
30
0.0
11
107.200000
21
143.037500
31
0.0
0
LINE
8
HIDDEN
10
107.170000
20
139.537500
30
0.0
11
107.170000
21
143.037320
31
0.0
0
LINE
8
HIDDEN
10
106.710000
20
142.989010
30
0.0
11
107.170000
21
143.037320
31
0.0
0
LINE
8
HIDDEN
10
106.710000
20
140.937792
30
0.0
11
106.710000
21
142.989010
31
0.0
0
ARC
8
HIDDEN
10
107.200000
20
140.037500
30
0.0
40
1.025000
50
90.000000
51
118.558042
0
LINE
8
HIDDEN
10
106.305223
20
139.537500
30
0.0
11
106.215314
21
140.322139
31
0.0
0
LINE
8
HIDDEN
10
106.215314
20
140.322139
30
0.0
11
106.710000
21
140.937792
31
0.0
0
LINE
8
HIDDEN
10
106.100000
20
142.782494
30
0.0
11
106.710000
21
142.989010
31
0.0
0
LINE
8
HIDDEN
10
106.100000
20
139.537500
30
0.0
11
106.100000
21
142.782494
31
0.0
0
LINE
8
HIDDEN
10
105.840000
20
142.635213
30
0.0
11
106.100000
21
142.782494
31
0.0
0
LINE
8
HIDDEN
10
105.840000
20
139.537500
30
0.0
11
105.840000
21
142.635213
31
0.0
0
LINE
8
HIDDEN
10
105.580000
20
142.441601
30
0.0
11
105.840000
21
142.635213
31
0.0
0
LINE
8
HIDDEN
10
105.580000
20
139.537500
30
0.0
11
105.580000
21
142.441601
31
0.0
0
LINE
8
HIDDEN
10
105.270000
20
142.126556
30
0.0
11
105.580000
21
142.441601
31
0.0
0
LINE
8
HIDDEN
10
105.270000
20
139.537500
30
0.0
11
105.270000
21
142.126556
31
0.0
0
LINE
8
HIDDEN
10
104.970000
20
141.667588
30
0.0
11
105.270000
21
142.126556
31
0.0
0
LINE
8
HIDDEN
10
104.970000
20
139.537500
30
0.0
11
104.970000
21
141.667588
31
0.0
0
LINE
8
HIDDEN
10
104.750000
20
141.034994
30
0.0
11
104.970000
21
141.667588
31
0.0
0
LINE
8
HIDDEN
10
104.750000
20
139.537500
30
0.0
11
104.750000
21
141.034994
31
0.0
0
LINE
8
HIDDEN
10
104.700000
20
140.537500
30
0.0
11
104.750000
21
141.034994
31
0.0
0
LINE
8
HIDDEN
10
89.050000
20
139.537500
30
0.0
11
89.050000
21
143.032996
31
0.0
0
LINE
8
HIDDEN
10
89.200000
20
143.037500
30
0.0
11
89.050000
21
143.032996
31
0.0
0
LINE
8
HIDDEN
10
89.230000
20
143.037320
30
0.0
11
89.200000
21
143.037500
31
0.0
0
LINE
8
HIDDEN
10
89.230000
20
139.537500
30
0.0
11
89.230000
21
143.037320
31
0.0
0
LINE
8
HIDDEN
10
89.690000
20
142.989010
30
0.0
11
89.230000
21
143.037320
31
0.0
0
LINE
8
HIDDEN
10
89.690000
20
140.937792
30
0.0
11
89.690000
21
142.989010
31
0.0
0
LINE
8
HIDDEN
10
90.300000
20
142.782494
30
0.0
11
89.690000
21
142.989010
31
0.0
0
LINE
8
HIDDEN
10
90.300000
20
139.537500
30
0.0
11
90.300000
21
142.782494
31
0.0
0
LINE
8
HIDDEN
10
90.560000
20
142.635213
30
0.0
11
90.300000
21
142.782494
31
0.0
0
LINE
8
HIDDEN
10
90.560000
20
139.537500
30
0.0
11
90.560000
21
142.635213
31
0.0
0
LINE
8
HIDDEN
10
90.820000
20
142.441601
30
0.0
11
90.560000
21
142.635213
31
0.0
0
LINE
8
HIDDEN
10
90.820000
20
139.537500
30
0.0
11
90.820000
21
142.441601
31
0.0
0
LINE
8
HIDDEN
10
91.130000
20
142.126556
30
0.0
11
90.820000
21
142.441601
31
0.0
0
LINE
8
HIDDEN
10
91.130000
20
139.537500
30
0.0
11
91.130000
21
142.126556
31
0.0
0
LINE
8
HIDDEN
10
91.430000
20
141.667588
30
0.0
11
91.130000
21
142.126556
31
0.0
0
LINE
8
HIDDEN
10
91.430000
20
139.537500
30
0.0
11
91.430000
21
141.667588
31
0.0
0
LINE
8
HIDDEN
10
91.650000
20
141.034994
30
0.0
11
91.430000
21
141.667588
31
0.0
0
LINE
8
HIDDEN
10
91.650000
20
139.537500
30
0.0
11
91.650000
21
141.034994
31
0.0
0
LINE
8
HIDDEN
10
91.700000
20
140.537500
30
0.0
11
91.650000
21
141.034994
31
0.0
0
LINE
8
HIDDEN
10
86.700000
20
139.537500
30
0.0
11
86.700000
21
140.537500
31
0.0
0
LINE
8
HIDDEN
10
87.610000
20
142.466723
30
0.0
11
86.938916
21
141.604036
31
0.0
0
LINE
8
HIDDEN
10
86.938916
20
141.604036
30
0.0
11
86.700000
21
140.537500
31
0.0
0
LINE
8
HIDDEN
10
87.610000
20
139.537500
30
0.0
11
87.610000
21
142.466723
31
0.0
0
LINE
8
HIDDEN
10
87.960000
20
142.708306
30
0.0
11
87.610000
21
142.466723
31
0.0
0
LINE
8
HIDDEN
10
87.960000
20
139.537500
30
0.0
11
87.960000
21
142.708306
31
0.0
0
LINE
8
HIDDEN
10
88.410000
20
142.909398
30
0.0
11
87.960000
21
142.708306
31
0.0
0
LINE
8
HIDDEN
10
88.410000
20
139.537500
30
0.0
11
88.410000
21
142.909398
31
0.0
0
LINE
8
HIDDEN
10
96.000000
20
137.037500
30
0.0
11
96.000000
21
139.037500
31
0.0
0
LINE
8
HIDDEN
10
100.342429
20
137.037500
30
0.0
11
100.400000
21
137.037500
31
0.0
0
LINE
8
HIDDEN
10
100.400000
20
137.037500
30
0.0
11
96.000000
21
137.037500
31
0.0
0
LINE
8
HIDDEN
10
100.159592
20
137.037500
30
0.0
11
100.342429
21
137.037500
31
0.0
0
LINE
8
HIDDEN
10
96.240408
20
137.037500
30
0.0
11
100.159592
21
137.037500
31
0.0
0
LINE
8
HIDDEN
10
96.057571
20
137.037500
30
0.0
11
96.240408
21
137.037500
31
0.0
0
LINE
8
HIDDEN
10
96.000000
20
137.037500
30
0.0
11
96.057571
21
137.037500
31
0.0
0
LINE
8
HIDDEN
10
96.000000
20
139.037500
30
0.0
11
100.400000
21
139.037500
31
0.0
0
LINE
8
HIDDEN
10
100.400000
20
139.037500
30
0.0
11
96.000000
21
139.037500
31
0.0
0
LINE
8
HIDDEN
10
97.100000
20
139.037500
30
0.0
11
99.300000
21
139.037500
31
0.0
0
LINE
8
HIDDEN
10
99.300000
20
139.037500
30
0.0
11
97.100000
21
139.037500
31
0.0
0
LINE
8
HIDDEN
10
104.200000
20
139.537500
30
0.0
11
104.200000
21
141.987500
31
0.0
0
LINE
8
HIDDEN
10
105.163459
20
141.987500
30
0.0
11
105.945967
21
141.987500
31
0.0
0
LINE
8
HIDDEN
10
105.945967
20
140.037500
30
0.0
11
105.945967
21
141.987500
31
0.0
0
LINE
8
HIDDEN
10
105.945967
20
140.037500
30
0.0
11
106.175000
21
140.037500
31
0.0
0
LINE
8
HIDDEN
10
106.710000
20
140.037500
30
0.0
11
107.487088
21
140.037500
31
0.0
0
LINE
8
HIDDEN
10
107.487088
20
139.537500
30
0.0
11
107.487088
21
140.037500
31
0.0
0
LINE
8
HIDDEN
10
90.200000
20
141.987500
30
0.0
11
106.200000
21
141.987500
31
0.0
0
LINE
8
HIDDEN
10
106.200000
20
141.987500
30
0.0
11
105.945967
21
141.987500
31
0.0
0
LINE
8
HIDDEN
10
90.454033
20
141.987500
30
0.0
11
90.200000
21
141.987500
31
0.0
0
LINE
8
HIDDEN
10
91.236541
20
141.987500
30
0.0
11
90.454033
21
141.987500
31
0.0
0
LINE
8
HIDDEN
10
97.100000
20
141.987500
30
0.0
11
99.300000
21
141.987500
31
0.0
0
LINE
8
HIDDEN
10
99.300000
20
141.987500
30
0.0
11
97.100000
21
141.987500
31
0.0
0
LINE
8
HIDDEN
10
103.100000
20
141.987500
30
0.0
11
105.300000
21
141.987500
31
0.0
0
LINE
8
HIDDEN
10
105.300000
20
141.987500
30
0.0
11
103.100000
21
141.987500
31
0.0
0
LINE
8
HIDDEN
10
91.100000
20
141.987500
30
0.0
11
93.300000
21
141.987500
31
0.0
0
LINE
8
HIDDEN
10
93.300000
20
141.987500
30
0.0
11
91.100000
21
141.987500
31
0.0
0
LINE
8
HIDDEN
10
97.100000
20
141.987500
30
0.0
11
99.300000
21
141.987500
31
0.0
0
LINE
8
HIDDEN
10
99.300000
20
141.987500
30
0.0
11
97.100000
21
141.987500
31
0.0
0
LINE
8
HIDDEN
10
90.454033
20
140.037500
30
0.0
11
90.225000
21
140.037500
31
0.0
0
LINE
8
HIDDEN
10
89.690000
20
140.037500
30
0.0
11
88.912912
21
140.037500
31
0.0
0
LINE
8
HIDDEN
10
90.454033
20
140.037500
30
0.0
11
90.200000
21
140.037500
31
0.0
0
LINE
8
HIDDEN
10
90.200000
20
140.037500
30
0.0
11
106.200000
21
140.037500
31
0.0
0
LINE
8
HIDDEN
10
106.200000
20
140.037500
30
0.0
11
105.945967
21
140.037500
31
0.0
0
LINE
8
HIDDEN
10
88.700000
20
140.037500
30
0.0
11
107.700000
21
140.037500
31
0.0
0
LINE
8
HIDDEN
10
107.700000
20
140.037500
30
0.0
11
107.487088
21
140.037500
31
0.0
0
LINE
8
HIDDEN
10
88.912912
20
140.037500
30
0.0
11
88.700000
21
140.037500
31
0.0
0
LINE
8
HIDDEN
10
92.200000
20
139.537500
30
0.0
11
92.200000
21
141.987500
31
0.0
0
LINE
8
HIDDEN
10
90.454033
20
140.037500
30
0.0
11
90.454033
21
141.987500
31
0.0
0
LINE
8
HIDDEN
10
88.912912
20
139.537500
30
0.0
11
88.912912
21
140.037500
31
0.0
0
LINE
8
HIDDEN
10
97.100000
20
139.037500
30
0.0
11
97.100000
21
141.987500
31
0.0
0
LINE
8
HIDDEN
10
103.100000
20
139.037500
30
0.0
11
103.100000
21
141.987500
31
0.0
0
LINE
8
HIDDEN
10
103.100000
20
139.037500
30
0.0
11
105.300000
21
139.037500
31
0.0
0
LINE
8
HIDDEN
10
105.300000
20
139.037500
30
0.0
11
103.100000
21
139.037500
31
0.0
0
LINE
8
HIDDEN
10
91.100000
20
139.037500
30
0.0
11
91.100000
21
141.987500
31
0.0
0
LINE
8
HIDDEN
10
91.100000
20
139.037500
30
0.0
11
93.300000
21
139.037500
31
0.0
0
LINE
8
HIDDEN
10
93.300000
20
139.037500
30
0.0
11
91.100000
21
139.037500
31
0.0
0
LINE
8
HIDDEN
10
97.100000
20
139.037500
30
0.0
11
97.100000
21
141.987500
31
0.0
0
LINE
8
HIDDEN
10
97.100000
20
139.037500
30
0.0
11
99.300000
21
139.037500
31
0.0
0
LINE
8
HIDDEN
10
99.300000
20
139.037500
30
0.0
11
97.100000
21
139.037500
31
0.0
0
LINE
8
HIDDEN
10
102.000000
20
139.037500
30
0.0
11
106.400000
21
139.037500
31
0.0
0
LINE
8
HIDDEN
10
106.400000
20
139.037500
30
0.0
11
102.000000
21
139.037500
31
0.0
0
LINE
8
HIDDEN
10
90.000000
20
139.037500
30
0.0
11
94.400000
21
139.037500
31
0.0
0
LINE
8
HIDDEN
10
94.400000
20
139.037500
30
0.0
11
90.000000
21
139.037500
31
0.0
0
LINE
8
HIDDEN
10
96.000000
20
139.037500
30
0.0
11
100.400000
21
139.037500
31
0.0
0
LINE
8
HIDDEN
10
100.400000
20
139.037500
30
0.0
11
96.000000
21
139.037500
31
0.0
0
LINE
8
HIDDEN
10
102.000000
20
137.037500
30
0.0
11
102.000000
21
139.037500
31
0.0
0
LINE
8
HIDDEN
10
102.000000
20
137.037500
30
0.0
11
106.400000
21
137.037500
31
0.0
0
LINE
8
HIDDEN
10
106.400000
20
137.037500
30
0.0
11
102.000000
21
137.037500
31
0.0
0
LINE
8
HIDDEN
10
90.000000
20
137.037500
30
0.0
11
90.000000
21
139.037500
31
0.0
0
LINE
8
HIDDEN
10
90.000000
20
137.037500
30
0.0
11
94.400000
21
137.037500
31
0.0
0
LINE
8
HIDDEN
10
94.400000
20
137.037500
30
0.0
11
90.000000
21
137.037500
31
0.0
0
LINE
8
HIDDEN
10
96.000000
20
137.037500
30
0.0
11
96.000000
21
139.037500
31
0.0
0
LINE
8
HIDDEN
10
96.000000
20
137.037500
30
0.0
11
100.400000
21
137.037500
31
0.0
0
LINE
8
HIDDEN
10
100.400000
20
137.037500
30
0.0
11
96.000000
21
137.037500
31
0.0
0
LINE
8
HIDDEN
10
107.670000
20
142.992923
30
0.0
11
107.990000
21
142.909398
31
0.0
0
LINE
8
HIDDEN
10
107.350000
20
143.032996
30
0.0
11
107.670000
21
142.992923
31
0.0
0
LINE
8
HIDDEN
10
86.700000
20
131.287500
30
0.0
11
86.700000
21
137.537500
31
0.0
0
LINE
8
HIDDEN
10
89.050000
20
143.032996
30
0.0
11
88.730000
21
142.992923
31
0.0
0
LINE
8
HIDDEN
10
88.730000
20
142.992923
30
0.0
11
88.410000
21
142.909398
31
0.0
0
LINE
8
HIDDEN
10
100.400000
20
137.037500
30
0.0
11
100.400000
21
139.037500
31
0.0
0
LINE
8
HIDDEN
10
99.300000
20
139.037500
30
0.0
11
99.300000
21
141.987500
31
0.0
0
LINE
8
HIDDEN
10
105.300000
20
139.037500
30
0.0
11
105.300000
21
141.987500
31
0.0
0
LINE
8
HIDDEN
10
93.300000
20
139.037500
30
0.0
11
93.300000
21
141.987500
31
0.0
0
LINE
8
HIDDEN
10
99.300000
20
139.037500
30
0.0
11
99.300000
21
141.987500
31
0.0
0
LINE
8
HIDDEN
10
106.400000
20
137.037500
30
0.0
11
106.400000
21
139.037500
31
0.0
0
LINE
8
HIDDEN
10
94.400000
20
137.037500
30
0.0
11
94.400000
21
139.037500
31
0.0
0
LINE
8
HIDDEN
10
100.400000
20
137.037500
30
0.0
11
100.400000
21
139.037500
31
0.0
0
LINE
8
HIDDEN
10
88.700000
20
139.537500
30
0.0
11
88.700000
21
140.037500
31
0.0
0
LINE
8
HIDDEN
10
107.700000
20
139.537500
30
0.0
11
107.700000
21
140.037500
31
0.0
0
LINE
8
HIDDEN
10
90.200000
20
140.262500
30
0.0
11
90.200000
21
141.987500
31
0.0
0
LINE
8
HIDDEN
10
106.200000
20
140.262500
30
0.0
11
106.200000
21
141.987500
31
0.0
0
CIRCLE
8
HIDDEN
10
90.200000
20
135.037500
30
0.0
40
2.420000
0
CIRCLE
8
HIDDEN
10
106.200000
20
135.037500
30
0.0
40
2.420000
0
CIRCLE
8
HIDDEN
10
89.200000
20
140.037500
30
0.0
40
1.025000
0
LINE
8
VISIBLE
10
86.700000
20
227.956764
30
0.0
11
86.700000
21
236.462500
31
0.0
0
LINE
8
VISIBLE
10
86.700000
20
216.962500
30
0.0
11
86.700000
21
227.956764
31
0.0
0
LINE
8
VISIBLE
10
86.700000
20
210.662500
30
0.0
11
86.700000
21
216.962500
31
0.0
0
LINE
8
VISIBLE
10
105.109129
20
232.462500
30
0.0
11
106.200000
21
232.462500
31
0.0
0
LINE
8
VISIBLE
10
105.109129
20
232.462500
30
0.0
11
105.109129
21
233.462500
31
0.0
0
LINE
8
VISIBLE
10
107.290871
20
232.462500
30
0.0
11
107.290871
21
233.462500
31
0.0
0
LINE
8
VISIBLE
10
106.200000
20
232.462500
30
0.0
11
107.290871
21
232.462500
31
0.0
0
LINE
8
VISIBLE
10
89.109129
20
232.462500
30
0.0
11
90.200000
21
232.462500
31
0.0
0
LINE
8
VISIBLE
10
89.109129
20
232.462500
30
0.0
11
89.109129
21
233.462500
31
0.0
0
LINE
8
VISIBLE
10
91.290871
20
232.462500
30
0.0
11
91.290871
21
233.462500
31
0.0
0
LINE
8
VISIBLE
10
90.200000
20
232.462500
30
0.0
11
91.290871
21
232.462500
31
0.0
0
LINE
8
VISIBLE
10
109.672609
20
228.956080
30
0.0
11
109.700000
21
227.956764
31
0.0
0
LINE
8
VISIBLE
10
109.700000
20
227.956764
30
0.0
11
109.700000
21
236.462500
31
0.0
0
LINE
8
VISIBLE
10
109.672609
20
236.462500
30
0.0
11
109.700000
21
236.462500
31
0.0
0
LINE
8
VISIBLE
10
109.672609
20
228.956080
30
0.0
11
109.672609
21
236.462500
31
0.0
0
LINE
8
VISIBLE
10
109.590738
20
229.944447
30
0.0
11
109.672609
21
228.956080
31
0.0
0
LINE
8
VISIBLE
10
109.590738
20
236.462500
30
0.0
11
109.672609
21
236.462500
31
0.0
0
LINE
8
VISIBLE
10
109.590738
20
229.944447
30
0.0
11
109.590738
21
236.462500
31
0.0
0
LINE
8
VISIBLE
10
109.455283
20
230.911037
30
0.0
11
109.590738
21
229.944447
31
0.0
0
LINE
8
VISIBLE
10
109.455283
20
236.462500
30
0.0
11
109.590738
21
236.462500
31
0.0
0
LINE
8
VISIBLE
10
109.455283
20
230.911037
30
0.0
11
109.455283
21
236.462500
31
0.0
0
LINE
8
VISIBLE
10
109.267727
20
231.212500
30
0.0
11
109.394761
21
231.212500
31
0.0
0
LINE
8
VISIBLE
10
109.394761
20
231.212500
30
0.0
11
109.455283
21
230.911037
31
0.0
0
LINE
8
VISIBLE
10
109.267727
20
236.462500
30
0.0
11
109.455283
21
236.462500
31
0.0
0
LINE
8
VISIBLE
10
109.267727
20
231.212500
30
0.0
11
109.267727
21
236.462500
31
0.0
0
LINE
8
VISIBLE
10
109.030127
20
231.212500
30
0.0
11
109.267727
21
231.212500
31
0.0
0
LINE
8
VISIBLE
10
109.030127
20
236.462500
30
0.0
11
109.267727
21
236.462500
31
0.0
0
LINE
8
VISIBLE
10
109.030127
20
231.212500
30
0.0
11
109.030127
21
236.462500
31
0.0
0
LINE
8
VISIBLE
10
108.745085
20
231.212500
30
0.0
11
109.030127
21
231.212500
31
0.0
0
LINE
8
VISIBLE
10
108.745085
20
236.462500
30
0.0
11
109.030127
21
236.462500
31
0.0
0
LINE
8
VISIBLE
10
108.745085
20
231.212500
30
0.0
11
108.745085
21
236.462500
31
0.0
0
LINE
8
VISIBLE
10
108.415724
20
231.212500
30
0.0
11
108.745085
21
231.212500
31
0.0
0
LINE
8
VISIBLE
10
108.415724
20
236.462500
30
0.0
11
108.745085
21
236.462500
31
0.0
0
LINE
8
VISIBLE
10
108.415724
20
231.212500
30
0.0
11
108.415724
21
236.462500
31
0.0
0
LINE
8
VISIBLE
10
108.045653
20
233.462500
30
0.0
11
108.300000
21
233.462500
31
0.0
0
LINE
8
VISIBLE
10
108.300000
20
233.462500
30
0.0
11
108.300000
21
231.212500
31
0.0
0
LINE
8
VISIBLE
10
108.300000
20
231.212500
30
0.0
11
108.415724
21
231.212500
31
0.0
0
LINE
8
VISIBLE
10
108.045653
20
236.462500
30
0.0
11
108.415724
21
236.462500
31
0.0
0
LINE
8
VISIBLE
10
108.045653
20
233.462500
30
0.0
11
108.045653
21
236.462500
31
0.0
0
LINE
8
VISIBLE
10
107.638926
20
233.462500
30
0.0
11
108.045653
21
233.462500
31
0.0
0
LINE
8
VISIBLE
10
107.638926
20
236.462500
30
0.0
11
108.045653
21
236.462500
31
0.0
0
LINE
8
VISIBLE
10
107.638926
20
233.462500
30
0.0
11
107.638926
21
236.462500
31
0.0
0
LINE
8
VISIBLE
10
107.200000
20
233.462500
30
0.0
11
107.638926
21
233.462500
31
0.0
0
LINE
8
VISIBLE
10
107.200000
20
236.462500
30
0.0
11
107.638926
21
236.462500
31
0.0
0
LINE
8
VISIBLE
10
107.200000
20
233.462500
30
0.0
11
107.200000
21
236.462500
31
0.0
0
LINE
8
VISIBLE
10
100.700000
20
233.462500
30
0.0
11
107.200000
21
233.462500
31
0.0
0
LINE
8
VISIBLE
10
100.700000
20
236.462500
30
0.0
11
107.200000
21
236.462500
31
0.0
0
LINE
8
VISIBLE
10
100.700000
20
233.462500
30
0.0
11
100.700000
21
236.462500
31
0.0
0
LINE
8
VISIBLE
10
100.233683
20
233.462500
30
0.0
11
100.700000
21
233.462500
31
0.0
0
LINE
8
VISIBLE
10
100.233683
20
236.462500
30
0.0
11
100.700000
21
236.462500
31
0.0
0
LINE
8
VISIBLE
10
100.233683
20
233.462500
30
0.0
11
100.233683
21
236.462500
31
0.0
0
LINE
8
VISIBLE
10
99.745085
20
233.462500
30
0.0
11
100.233683
21
233.462500
31
0.0
0
LINE
8
VISIBLE
10
99.745085
20
236.462500
30
0.0
11
100.233683
21
236.462500
31
0.0
0
LINE
8
VISIBLE
10
99.745085
20
233.462500
30
0.0
11
99.745085
21
236.462500
31
0.0
0
LINE
8
VISIBLE
10
99.239558
20
233.462500
30
0.0
11
99.745085
21
233.462500
31
0.0
0
LINE
8
VISIBLE
10
99.239558
20
236.462500
30
0.0
11
99.745085
21
236.462500
31
0.0
0
LINE
8
VISIBLE
10
99.239558
20
233.462500
30
0.0
11
99.239558
21
236.462500
31
0.0
0
LINE
8
VISIBLE
10
98.722642
20
233.462500
30
0.0
11
99.239558
21
233.462500
31
0.0
0
LINE
8
VISIBLE
10
98.722642
20
236.462500
30
0.0
11
99.239558
21
236.462500
31
0.0
0
LINE
8
VISIBLE
10
98.722642
20
233.462500
30
0.0
11
98.722642
21
236.462500
31
0.0
0
LINE
8
VISIBLE
10
98.200000
20
233.462500
30
0.0
11
98.722642
21
233.462500
31
0.0
0
LINE
8
VISIBLE
10
98.200000
20
236.462500
30
0.0
11
98.722642
21
236.462500
31
0.0
0
LINE
8
VISIBLE
10
98.200000
20
233.462500
30
0.0
11
98.200000
21
236.462500
31
0.0
0
LINE
8
VISIBLE
10
97.677358
20
233.462500
30
0.0
11
98.200000
21
233.462500
31
0.0
0
LINE
8
VISIBLE
10
97.677358
20
236.462500
30
0.0
11
98.200000
21
236.462500
31
0.0
0
LINE
8
VISIBLE
10
97.677358
20
233.462500
30
0.0
11
97.677358
21
236.462500
31
0.0
0
LINE
8
VISIBLE
10
97.160442
20
233.462500
30
0.0
11
97.677358
21
233.462500
31
0.0
0
LINE
8
VISIBLE
10
97.160442
20
236.462500
30
0.0
11
97.677358
21
236.462500
31
0.0
0
LINE
8
VISIBLE
10
97.160442
20
233.462500
30
0.0
11
97.160442
21
236.462500
31
0.0
0
LINE
8
VISIBLE
10
96.654915
20
233.462500
30
0.0
11
97.160442
21
233.462500
31
0.0
0
LINE
8
VISIBLE
10
96.654915
20
236.462500
30
0.0
11
97.160442
21
236.462500
31
0.0
0
LINE
8
VISIBLE
10
96.654915
20
233.462500
30
0.0
11
96.654915
21
236.462500
31
0.0
0
LINE
8
VISIBLE
10
96.166317
20
233.462500
30
0.0
11
96.654915
21
233.462500
31
0.0
0
LINE
8
VISIBLE
10
96.166317
20
236.462500
30
0.0
11
96.654915
21
236.462500
31
0.0
0
LINE
8
VISIBLE
10
96.166317
20
233.462500
30
0.0
11
96.166317
21
236.462500
31
0.0
0
LINE
8
VISIBLE
10
95.700000
20
233.462500
30
0.0
11
96.166317
21
233.462500
31
0.0
0
LINE
8
VISIBLE
10
95.700000
20
236.462500
30
0.0
11
96.166317
21
236.462500
31
0.0
0
LINE
8
VISIBLE
10
95.700000
20
233.462500
30
0.0
11
95.700000
21
236.462500
31
0.0
0
LINE
8
VISIBLE
10
89.200000
20
233.462500
30
0.0
11
95.700000
21
233.462500
31
0.0
0
LINE
8
VISIBLE
10
89.200000
20
236.462500
30
0.0
11
95.700000
21
236.462500
31
0.0
0
LINE
8
VISIBLE
10
89.200000
20
233.462500
30
0.0
11
89.200000
21
236.462500
31
0.0
0
LINE
8
VISIBLE
10
88.761074
20
233.462500
30
0.0
11
89.200000
21
233.462500
31
0.0
0
LINE
8
VISIBLE
10
88.761074
20
236.462500
30
0.0
11
89.200000
21
236.462500
31
0.0
0
LINE
8
VISIBLE
10
88.761074
20
233.462500
30
0.0
11
88.761074
21
236.462500
31
0.0
0
LINE
8
VISIBLE
10
86.700000
20
227.956764
30
0.0
11
86.727391
21
228.956080
31
0.0
0
LINE
8
VISIBLE
10
86.727391
20
228.956080
30
0.0
11
86.809262
21
229.944447
31
0.0
0
LINE
8
VISIBLE
10
86.809262
20
229.944447
30
0.0
11
86.944717
21
230.911037
31
0.0
0
LINE
8
VISIBLE
10
86.944717
20
230.911037
30
0.0
11
87.005239
21
231.212500
31
0.0
0
LINE
8
VISIBLE
10
88.100000
20
231.212500
30
0.0
11
88.100000
21
216.962500
31
0.0
0
LINE
8
VISIBLE
10
86.700000
20
216.962500
30
0.0
11
88.100000
21
216.962500
31
0.0
0
LINE
8
VISIBLE
10
86.727391
20
228.956080
30
0.0
11
86.727391
21
236.462500
31
0.0
0
LINE
8
VISIBLE
10
86.700000
20
236.462500
30
0.0
11
86.727391
21
236.462500
31
0.0
0
LINE
8
VISIBLE
10
86.809262
20
229.944447
30
0.0
11
86.809262
21
236.462500
31
0.0
0
LINE
8
VISIBLE
10
86.727391
20
236.462500
30
0.0
11
86.809262
21
236.462500
31
0.0
0
LINE
8
VISIBLE
10
86.944717
20
230.911037
30
0.0
11
86.944717
21
236.462500
31
0.0
0
LINE
8
VISIBLE
10
86.809262
20
236.462500
30
0.0
11
86.944717
21
236.462500
31
0.0
0
LINE
8
VISIBLE
10
87.005239
20
231.212500
30
0.0
11
87.132273
21
231.212500
31
0.0
0
LINE
8
VISIBLE
10
87.132273
20
231.212500
30
0.0
11
87.132273
21
236.462500
31
0.0
0
LINE
8
VISIBLE
10
86.944717
20
236.462500
30
0.0
11
87.132273
21
236.462500
31
0.0
0
LINE
8
VISIBLE
10
87.132273
20
231.212500
30
0.0
11
87.369873
21
231.212500
31
0.0
0
LINE
8
VISIBLE
10
87.369873
20
231.212500
30
0.0
11
87.654915
21
231.212500
31
0.0
0
LINE
8
VISIBLE
10
87.654915
20
231.212500
30
0.0
11
87.984276
21
231.212500
31
0.0
0
LINE
8
VISIBLE
10
87.984276
20
231.212500
30
0.0
11
88.100000
21
231.212500
31
0.0
0
LINE
8
VISIBLE
10
88.100000
20
233.462500
30
0.0
11
88.100000
21
231.212500
31
0.0
0
LINE
8
VISIBLE
10
88.100000
20
233.462500
30
0.0
11
88.354347
21
233.462500
31
0.0
0
LINE
8
VISIBLE
10
88.354347
20
233.462500
30
0.0
11
88.354347
21
236.462500
31
0.0
0
LINE
8
VISIBLE
10
87.984276
20
236.462500
30
0.0
11
88.354347
21
236.462500
31
0.0
0
LINE
8
VISIBLE
10
87.984276
20
231.212500
30
0.0
11
87.984276
21
236.462500
31
0.0
0
LINE
8
VISIBLE
10
88.354347
20
233.462500
30
0.0
11
88.761074
21
233.462500
31
0.0
0
LINE
8
VISIBLE
10
88.354347
20
236.462500
30
0.0
11
88.761074
21
236.462500
31
0.0
0
LINE
8
VISIBLE
10
87.654915
20
236.462500
30
0.0
11
87.984276
21
236.462500
31
0.0
0
LINE
8
VISIBLE
10
87.654915
20
231.212500
30
0.0
11
87.654915
21
236.462500
31
0.0
0
LINE
8
VISIBLE
10
87.369873
20
236.462500
30
0.0
11
87.654915
21
236.462500
31
0.0
0
LINE
8
VISIBLE
10
87.369873
20
231.212500
30
0.0
11
87.369873
21
236.462500
31
0.0
0
LINE
8
VISIBLE
10
87.132273
20
236.462500
30
0.0
11
87.369873
21
236.462500
31
0.0
0
LINE
8
VISIBLE
10
108.300000
20
231.212500
30
0.0
11
108.300000
21
216.962500
31
0.0
0
LINE
8
VISIBLE
10
109.700000
20
227.956764
30
0.0
11
109.700000
21
216.962500
31
0.0
0
LINE
8
VISIBLE
10
108.300000
20
216.962500
30
0.0
11
109.700000
21
216.962500
31
0.0
0
LINE
8
VISIBLE
10
88.100000
20
232.462500
30
0.0
11
89.109129
21
232.462500
31
0.0
0
LINE
8
VISIBLE
10
91.290871
20
232.462500
30
0.0
11
95.700000
21
232.462500
31
0.0
0
LINE
8
VISIBLE
10
100.700000
20
232.462500
30
0.0
11
105.109129
21
232.462500
31
0.0
0
LINE
8
VISIBLE
10
107.290871
20
232.462500
30
0.0
11
108.300000
21
232.462500
31
0.0
0
LINE
8
VISIBLE
10
100.700000
20
231.662500
30
0.0
11
95.700000
21
231.662500
31
0.0
0
CIRCLE
8
VISIBLE
10
98.200000
20
215.962500
30
0.0
40
1.100000
0
CIRCLE
8
VISIBLE
10
92.200000
20
221.962500
30
0.0
40
1.100000
0
CIRCLE
8
VISIBLE
10
104.200000
20
221.962500
30
0.0
40
1.100000
0
CIRCLE
8
VISIBLE
10
98.200000
20
227.962500
30
0.0
40
1.100000
0
CIRCLE
8
VISIBLE
10
92.200000
20
221.962500
30
0.0
40
2.200000
0
CIRCLE
8
VISIBLE
10
104.200000
20
221.962500
30
0.0
40
2.200000
0
CIRCLE
8
VISIBLE
10
98.200000
20
227.962500
30
0.0
40
2.200000
0
LINE
8
VISIBLE
10
86.700000
20
210.662500
30
0.0
11
109.700000
21
210.662500
31
0.0
0
LINE
8
VISIBLE
10
109.700000
20
210.662500
30
0.0
11
109.700000
21
216.962500
31
0.0
0
LINE
8
VISIBLE
10
106.200000
20
232.462500
30
0.0
11
106.200000
21
233.462500
31
0.0
0
LINE
8
VISIBLE
10
90.200000
20
232.462500
30
0.0
11
90.200000
21
233.462500
31
0.0
0
LINE
8
VISIBLE
10
95.700000
20
231.662500
30
0.0
11
95.700000
21
233.462500
31
0.0
0
LINE
8
VISIBLE
10
100.700000
20
231.662500
30
0.0
11
100.700000
21
233.462500
31
0.0
0
CIRCLE
8
VISIBLE
10
98.200000
20
215.962500
30
0.0
40
2.200000
0
LINE
8
HIDDEN
10
109.700000
20
236.462500
30
0.0
11
109.700000
21
234.462500
31
0.0
0
LINE
8
HIDDEN
10
109.700000
20
234.462500
30
0.0
11
86.700000
21
234.462500
31
0.0
0
LINE
8
HIDDEN
10
86.700000
20
236.462500
30
0.0
11
86.700000
21
234.462500
31
0.0
0
LINE
8
HIDDEN
10
86.700000
20
236.462500
30
0.0
11
109.700000
21
236.462500
31
0.0
0
LINE
8
HIDDEN
10
86.700000
20
216.962500
30
0.0
11
86.700000
21
234.462500
31
0.0
0
LINE
8
HIDDEN
10
106.200000
20
236.462500
30
0.0
11
107.402664
21
236.462500
31
0.0
0
LINE
8
HIDDEN
10
107.402664
20
236.462500
30
0.0
11
107.562498
21
236.462500
31
0.0
0
LINE
8
HIDDEN
10
107.562498
20
236.462500
30
0.0
11
108.620000
21
236.462500
31
0.0
0
LINE
8
HIDDEN
10
108.620000
20
236.462500
30
0.0
11
103.780000
21
236.462500
31
0.0
0
LINE
8
HIDDEN
10
103.780000
20
236.462500
30
0.0
11
104.837502
21
236.462500
31
0.0
0
LINE
8
HIDDEN
10
104.837502
20
236.462500
30
0.0
11
104.997336
21
236.462500
31
0.0
0
LINE
8
HIDDEN
10
104.997336
20
236.462500
30
0.0
11
106.200000
21
236.462500
31
0.0
0
LINE
8
HIDDEN
10
106.200000
20
234.262500
30
0.0
11
108.620000
21
234.262500
31
0.0
0
LINE
8
HIDDEN
10
108.620000
20
234.262500
30
0.0
11
103.780000
21
234.262500
31
0.0
0
LINE
8
HIDDEN
10
103.780000
20
234.262500
30
0.0
11
106.200000
21
234.262500
31
0.0
0
LINE
8
HIDDEN
10
106.200000
20
234.262500
30
0.0
11
107.400000
21
234.262500
31
0.0
0
LINE
8
HIDDEN
10
107.400000
20
234.262500
30
0.0
11
105.000000
21
234.262500
31
0.0
0
LINE
8
HIDDEN
10
105.000000
20
234.262500
30
0.0
11
106.200000
21
234.262500
31
0.0
0
LINE
8
HIDDEN
10
107.290871
20
233.462500
30
0.0
11
107.400000
21
233.462500
31
0.0
0
LINE
8
HIDDEN
10
107.400000
20
233.462500
30
0.0
11
105.000000
21
233.462500
31
0.0
0
LINE
8
HIDDEN
10
105.000000
20
233.462500
30
0.0
11
105.109129
21
233.462500
31
0.0
0
LINE
8
HIDDEN
10
90.200000
20
236.462500
30
0.0
11
91.402664
21
236.462500
31
0.0
0
LINE
8
HIDDEN
10
91.402664
20
236.462500
30
0.0
11
91.562498
21
236.462500
31
0.0
0
LINE
8
HIDDEN
10
91.562498
20
236.462500
30
0.0
11
92.620000
21
236.462500
31
0.0
0
LINE
8
HIDDEN
10
92.620000
20
236.462500
30
0.0
11
87.780000
21
236.462500
31
0.0
0
LINE
8
HIDDEN
10
87.780000
20
236.462500
30
0.0
11
88.837502
21
236.462500
31
0.0
0
LINE
8
HIDDEN
10
88.837502
20
236.462500
30
0.0
11
88.997336
21
236.462500
31
0.0
0
LINE
8
HIDDEN
10
88.997336
20
236.462500
30
0.0
11
90.200000
21
236.462500
31
0.0
0
LINE
8
HIDDEN
10
90.200000
20
234.262500
30
0.0
11
92.620000
21
234.262500
31
0.0
0
LINE
8
HIDDEN
10
92.620000
20
234.262500
30
0.0
11
87.780000
21
234.262500
31
0.0
0
LINE
8
HIDDEN
10
87.780000
20
234.262500
30
0.0
11
90.200000
21
234.262500
31
0.0
0
LINE
8
HIDDEN
10
90.200000
20
234.262500
30
0.0
11
91.400000
21
234.262500
31
0.0
0
LINE
8
HIDDEN
10
91.400000
20
234.262500
30
0.0
11
89.000000
21
234.262500
31
0.0
0
LINE
8
HIDDEN
10
89.000000
20
234.262500
30
0.0
11
90.200000
21
234.262500
31
0.0
0
LINE
8
HIDDEN
10
91.290871
20
233.462500
30
0.0
11
91.400000
21
233.462500
31
0.0
0
LINE
8
HIDDEN
10
91.400000
20
233.462500
30
0.0
11
89.000000
21
233.462500
31
0.0
0
LINE
8
HIDDEN
10
89.000000
20
233.462500
30
0.0
11
89.109129
21
233.462500
31
0.0
0
LINE
8
HIDDEN
10
87.005239
20
231.212500
30
0.0
11
88.100000
21
231.212500
31
0.0
0
LINE
8
HIDDEN
10
88.100000
20
216.962500
30
0.0
11
88.100000
21
232.462500
31
0.0
0
LINE
8
HIDDEN
10
88.100000
20
233.462500
30
0.0
11
88.100000
21
232.462500
31
0.0
0
LINE
8
HIDDEN
10
108.300000
20
231.212500
30
0.0
11
109.394761
21
231.212500
31
0.0
0
LINE
8
HIDDEN
10
95.700000
20
232.462500
30
0.0
11
100.700000
21
232.462500
31
0.0
0
LINE
8
HIDDEN
10
108.300000
20
232.462500
30
0.0
11
88.100000
21
232.462500
31
0.0
0
LINE
8
HIDDEN
10
88.100000
20
233.462500
30
0.0
11
89.109129
21
233.462500
31
0.0
0
LINE
8
HIDDEN
10
107.290871
20
233.462500
30
0.0
11
108.300000
21
233.462500
31
0.0
0
LINE
8
HIDDEN
10
91.290871
20
233.462500
30
0.0
11
105.109129
21
233.462500
31
0.0
0
LINE
8
HIDDEN
10
98.200000
20
233.462500
30
0.0
11
100.700000
21
233.462500
31
0.0
0
LINE
8
HIDDEN
10
100.700000
20
233.462500
30
0.0
11
95.700000
21
233.462500
31
0.0
0
LINE
8
HIDDEN
10
95.700000
20
233.462500
30
0.0
11
98.200000
21
233.462500
31
0.0
0
LINE
8
HIDDEN
10
108.300000
20
216.962500
30
0.0
11
108.300000
21
232.462500
31
0.0
0
LINE
8
HIDDEN
10
108.300000
20
233.462500
30
0.0
11
108.300000
21
232.462500
31
0.0
0
LINE
8
HIDDEN
10
98.200000
20
231.662500
30
0.0
11
100.700000
21
231.662500
31
0.0
0
LINE
8
HIDDEN
10
95.700000
20
231.662500
30
0.0
11
98.200000
21
231.662500
31
0.0
0
LINE
8
HIDDEN
10
98.200000
20
231.662500
30
0.0
11
99.550000
21
231.662500
31
0.0
0
LINE
8
HIDDEN
10
99.550000
20
231.662500
30
0.0
11
96.850000
21
231.662500
31
0.0
0
LINE
8
HIDDEN
10
96.850000
20
231.662500
30
0.0
11
98.200000
21
231.662500
31
0.0
0
LINE
8
HIDDEN
10
98.200000
20
236.462500
30
0.0
11
100.950000
21
236.462500
31
0.0
0
LINE
8
HIDDEN
10
100.950000
20
236.462500
30
0.0
11
95.450000
21
236.462500
31
0.0
0
LINE
8
HIDDEN
10
95.450000
20
236.462500
30
0.0
11
98.200000
21
236.462500
31
0.0
0
LINE
8
HIDDEN
10
98.200000
20
233.962500
30
0.0
11
100.950000
21
233.962500
31
0.0
0
LINE
8
HIDDEN
10
100.950000
20
233.962500
30
0.0
11
95.450000
21
233.962500
31
0.0
0
LINE
8
HIDDEN
10
95.450000
20
233.962500
30
0.0
11
98.200000
21
233.962500
31
0.0
0
LINE
8
HIDDEN
10
98.200000
20
233.962500
30
0.0
11
99.550000
21
233.962500
31
0.0
0
LINE
8
HIDDEN
10
99.550000
20
233.962500
30
0.0
11
96.850000
21
233.962500
31
0.0
0
LINE
8
HIDDEN
10
96.850000
20
233.962500
30
0.0
11
98.200000
21
233.962500
31
0.0
0
LINE
8
HIDDEN
10
87.610000
20
217.132500
30
0.0
11
86.700000
21
216.962500
31
0.0
0
LINE
8
HIDDEN
10
87.610000
20
217.132500
30
0.0
11
86.700000
21
216.962500
31
0.0
0
LINE
8
HIDDEN
10
87.960000
20
216.882500
30
0.0
11
87.610000
21
217.132500
31
0.0
0
LINE
8
HIDDEN
10
87.960000
20
216.882500
30
0.0
11
87.610000
21
217.132500
31
0.0
0
LINE
8
HIDDEN
10
88.410000
20
216.402500
30
0.0
11
87.960000
21
216.882500
31
0.0
0
LINE
8
HIDDEN
10
88.410000
20
216.402500
30
0.0
11
87.960000
21
216.882500
31
0.0
0
LINE
8
HIDDEN
10
89.050000
20
215.422500
30
0.0
11
88.410000
21
216.402500
31
0.0
0
LINE
8
HIDDEN
10
89.230000
20
215.182500
30
0.0
11
89.050000
21
215.422500
31
0.0
0
LINE
8
HIDDEN
10
89.690000
20
214.662500
30
0.0
11
89.230000
21
215.182500
31
0.0
0
LINE
8
HIDDEN
10
89.690000
20
214.662500
30
0.0
11
90.094777
21
214.662500
31
0.0
0
LINE
8
HIDDEN
10
90.094777
20
214.198002
30
0.0
11
90.094777
21
214.662500
31
0.0
0
LINE
8
HIDDEN
10
90.300000
20
213.962500
30
0.0
11
90.094777
21
214.198002
31
0.0
0
LINE
8
HIDDEN
10
90.560000
20
213.712500
30
0.0
11
90.300000
21
213.962500
31
0.0
0
LINE
8
HIDDEN
10
90.820000
20
213.472500
30
0.0
11
90.560000
21
213.712500
31
0.0
0
LINE
8
HIDDEN
10
91.130000
20
213.222500
30
0.0
11
90.820000
21
213.472500
31
0.0
0
LINE
8
HIDDEN
10
91.430000
20
212.982500
30
0.0
11
91.130000
21
213.222500
31
0.0
0
LINE
8
HIDDEN
10
91.650000
20
212.737500
30
0.0
11
91.430000
21
212.982500
31
0.0
0
LINE
8
HIDDEN
10
91.700000
20
212.462500
30
0.0
11
91.650000
21
212.737500
31
0.0
0
LINE
8
HIDDEN
10
91.700000
20
210.662500
30
0.0
11
91.700000
21
212.462500
31
0.0
0
LINE
8
HIDDEN
10
91.700000
20
210.662500
30
0.0
11
104.700000
21
210.662500
31
0.0
0
LINE
8
HIDDEN
10
104.700000
20
210.662500
30
0.0
11
104.700000
21
212.462500
31
0.0
0
LINE
8
HIDDEN
10
104.700000
20
212.462500
30
0.0
11
104.750000
21
212.737500
31
0.0
0
LINE
8
HIDDEN
10
104.750000
20
212.737500
30
0.0
11
104.970000
21
212.982500
31
0.0
0
LINE
8
HIDDEN
10
104.970000
20
212.982500
30
0.0
11
105.270000
21
213.222500
31
0.0
0
LINE
8
HIDDEN
10
105.270000
20
213.222500
30
0.0
11
105.580000
21
213.472500
31
0.0
0
LINE
8
HIDDEN
10
105.580000
20
213.472500
30
0.0
11
105.840000
21
213.712500
31
0.0
0
LINE
8
HIDDEN
10
105.840000
20
213.712500
30
0.0
11
106.100000
21
213.962500
31
0.0
0
LINE
8
HIDDEN
10
106.100000
20
213.962500
30
0.0
11
106.305223
21
214.198002
31
0.0
0
LINE
8
HIDDEN
10
106.305223
20
214.198002
30
0.0
11
106.305223
21
214.662500
31
0.0
0
LINE
8
HIDDEN
10
106.710000
20
214.662500
30
0.0
11
106.305223
21
214.662500
31
0.0
0
LINE
8
HIDDEN
10
106.710000
20
214.662500
30
0.0
11
107.170000
21
215.182500
31
0.0
0
LINE
8
HIDDEN
10
107.170000
20
215.182500
30
0.0
11
107.350000
21
215.422500
31
0.0
0
LINE
8
HIDDEN
10
107.350000
20
215.422500
30
0.0
11
107.990000
21
216.402500
31
0.0
0
LINE
8
HIDDEN
10
107.990000
20
216.402500
30
0.0
11
108.440000
21
216.882500
31
0.0
0
LINE
8
HIDDEN
10
108.440000
20
216.882500
30
0.0
11
108.790000
21
217.132500
31
0.0
0
LINE
8
HIDDEN
10
108.790000
20
217.132500
30
0.0
11
109.700000
21
216.962500
31
0.0
0
LINE
8
HIDDEN
10
109.700000
20
216.962500
30
0.0
11
109.700000
21
234.462500
31
0.0
0
LINE
8
HIDDEN
10
92.200000
20
219.962500
30
0.0
11
92.200000
21
214.597040
31
0.0
0
LINE
8
HIDDEN
10
88.912912
20
219.962500
30
0.0
11
92.200000
21
219.962500
31
0.0
0
ARC
8
HIDDEN
10
98.200000
20
221.962500
30
0.0
40
9.500000
50
0.000000
51
192.153197
0
ARC
8
HIDDEN
10
98.200000
20
221.962500
30
0.0
40
9.500000
50
347.846803
51
360.000000
0
LINE
8
HIDDEN
10
107.487088
20
219.962500
30
0.0
11
104.200000
21
219.962500
31
0.0
0
LINE
8
HIDDEN
10
104.200000
20
219.962500
30
0.0
11
104.200000
21
214.597040
31
0.0
0
ARC
8
HIDDEN
10
98.200000
20
221.962500
30
0.0
40
9.500000
50
230.833289
51
309.166711
0
LINE
8
HIDDEN
10
89.200000
20
215.222500
30
0.0
11
89.050000
21
215.422500
31
0.0
0
LINE
8
HIDDEN
10
89.230000
20
215.182500
30
0.0
11
89.200000
21
215.222500
31
0.0
0
LINE
8
HIDDEN
10
89.690000
20
214.662500
30
0.0
11
89.230000
21
215.182500
31
0.0
0
LINE
8
HIDDEN
10
90.094777
20
214.662500
30
0.0
11
88.175000
21
214.662500
31
0.0
0
LINE
8
HIDDEN
10
88.175000
20
214.662500
30
0.0
11
89.200000
21
214.662500
31
0.0
0
LINE
8
HIDDEN
10
89.200000
20
214.662500
30
0.0
11
89.690000
21
214.662500
31
0.0
0
LINE
8
HIDDEN
10
88.305223
20
210.662500
30
0.0
11
89.200000
21
210.662500
31
0.0
0
LINE
8
HIDDEN
10
88.305223
20
210.662500
30
0.0
11
88.175000
21
210.662500
31
0.0
0
LINE
8
HIDDEN
10
88.175000
20
210.662500
30
0.0
11
88.305223
21
210.662500
31
0.0
0
LINE
8
HIDDEN
10
88.310885
20
210.662500
30
0.0
11
88.305223
21
210.662500
31
0.0
0
LINE
8
HIDDEN
10
90.089115
20
210.662500
30
0.0
11
88.310885
21
210.662500
31
0.0
0
LINE
8
HIDDEN
10
90.094777
20
210.662500
30
0.0
11
90.089115
21
210.662500
31
0.0
0
LINE
8
HIDDEN
10
90.094777
20
210.662500
30
0.0
11
90.225000
21
210.662500
31
0.0
0
LINE
8
HIDDEN
10
90.225000
20
210.662500
30
0.0
11
90.094777
21
210.662500
31
0.0
0
LINE
8
HIDDEN
10
89.200000
20
210.662500
30
0.0
11
90.094777
21
210.662500
31
0.0
0
LINE
8
HIDDEN
10
90.094777
20
214.198002
30
0.0
11
90.225000
21
214.048566
31
0.0
0
LINE
8
HIDDEN
10
90.225000
20
214.048566
30
0.0
11
89.690000
21
214.662500
31
0.0
0
LINE
8
HIDDEN
10
90.300000
20
213.962500
30
0.0
11
89.690000
21
214.662500
31
0.0
0
LINE
8
HIDDEN
10
90.560000
20
213.712500
30
0.0
11
90.300000
21
213.962500
31
0.0
0
LINE
8
HIDDEN
10
90.820000
20
213.472500
30
0.0
11
90.560000
21
213.712500
31
0.0
0
LINE
8
HIDDEN
10
91.130000
20
213.222500
30
0.0
11
90.820000
21
213.472500
31
0.0
0
LINE
8
HIDDEN
10
91.430000
20
212.982500
30
0.0
11
91.130000
21
213.222500
31
0.0
0
LINE
8
HIDDEN
10
91.650000
20
212.737500
30
0.0
11
91.430000
21
212.982500
31
0.0
0
LINE
8
HIDDEN
10
91.700000
20
212.462500
30
0.0
11
91.650000
21
212.737500
31
0.0
0
LINE
8
HIDDEN
10
91.700000
20
210.662500
30
0.0
11
91.700000
21
212.462500
31
0.0
0
LINE
8
HIDDEN
10
107.200000
20
215.222500
30
0.0
11
107.350000
21
215.422500
31
0.0
0
LINE
8
HIDDEN
10
107.170000
20
215.182500
30
0.0
11
107.200000
21
215.222500
31
0.0
0
LINE
8
HIDDEN
10
106.710000
20
214.662500
30
0.0
11
107.170000
21
215.182500
31
0.0
0
LINE
8
HIDDEN
10
107.200000
20
214.662500
30
0.0
11
108.225000
21
214.662500
31
0.0
0
LINE
8
HIDDEN
10
108.225000
20
214.662500
30
0.0
11
106.305223
21
214.662500
31
0.0
0
LINE
8
HIDDEN
10
106.710000
20
214.662500
30
0.0
11
107.200000
21
214.662500
31
0.0
0
LINE
8
HIDDEN
10
106.305223
20
210.662500
30
0.0
11
107.200000
21
210.662500
31
0.0
0
LINE
8
HIDDEN
10
106.305223
20
210.662500
30
0.0
11
106.175000
21
210.662500
31
0.0
0
LINE
8
HIDDEN
10
106.175000
20
210.662500
30
0.0
11
106.305223
21
210.662500
31
0.0
0
LINE
8
HIDDEN
10
106.310885
20
210.662500
30
0.0
11
106.305223
21
210.662500
31
0.0
0
LINE
8
HIDDEN
10
108.089115
20
210.662500
30
0.0
11
106.310885
21
210.662500
31
0.0
0
LINE
8
HIDDEN
10
108.094777
20
210.662500
30
0.0
11
108.089115
21
210.662500
31
0.0
0
LINE
8
HIDDEN
10
108.094777
20
210.662500
30
0.0
11
108.225000
21
210.662500
31
0.0
0
LINE
8
HIDDEN
10
108.225000
20
210.662500
30
0.0
11
108.094777
21
210.662500
31
0.0
0
LINE
8
HIDDEN
10
107.200000
20
210.662500
30
0.0
11
108.094777
21
210.662500
31
0.0
0
LINE
8
HIDDEN
10
106.305223
20
214.198002
30
0.0
11
106.175000
21
214.048566
31
0.0
0
LINE
8
HIDDEN
10
106.175000
20
214.048566
30
0.0
11
106.710000
21
214.662500
31
0.0
0
LINE
8
HIDDEN
10
106.100000
20
213.962500
30
0.0
11
106.710000
21
214.662500
31
0.0
0
LINE
8
HIDDEN
10
105.840000
20
213.712500
30
0.0
11
106.100000
21
213.962500
31
0.0
0
LINE
8
HIDDEN
10
105.580000
20
213.472500
30
0.0
11
105.840000
21
213.712500
31
0.0
0
LINE
8
HIDDEN
10
105.270000
20
213.222500
30
0.0
11
105.580000
21
213.472500
31
0.0
0
LINE
8
HIDDEN
10
104.970000
20
212.982500
30
0.0
11
105.270000
21
213.222500
31
0.0
0
LINE
8
HIDDEN
10
104.750000
20
212.737500
30
0.0
11
104.970000
21
212.982500
31
0.0
0
LINE
8
HIDDEN
10
104.700000
20
210.662500
30
0.0
11
104.700000
21
212.462500
31
0.0
0
LINE
8
HIDDEN
10
104.700000
20
212.462500
30
0.0
11
104.750000
21
212.737500
31
0.0
0
LINE
8
HIDDEN
10
108.790000
20
217.132500
30
0.0
11
109.700000
21
216.962500
31
0.0
0
LINE
8
HIDDEN
10
108.440000
20
216.882500
30
0.0
11
108.790000
21
217.132500
31
0.0
0
LINE
8
HIDDEN
10
107.990000
20
216.402500
30
0.0
11
108.440000
21
216.882500
31
0.0
0
LINE
8
HIDDEN
10
92.200000
20
214.597040
30
0.0
11
92.200000
21
216.670997
31
0.0
0
LINE
8
HIDDEN
10
92.200000
20
216.670997
30
0.0
11
92.200000
21
219.962500
31
0.0
0
LINE
8
HIDDEN
10
92.200000
20
219.962500
30
0.0
11
90.454033
21
219.962500
31
0.0
0
LINE
8
HIDDEN
10
90.454033
20
219.962500
30
0.0
11
88.912912
21
219.962500
31
0.0
0
ARC
8
HIDDEN
10
98.200000
20
221.962500
30
0.0
40
9.500000
50
230.833289
51
309.166711
0
ARC
8
HIDDEN
10
98.200000
20
221.962500
30
0.0
40
8.000000
50
221.409622
51
318.590378
0
LINE
8
HIDDEN
10
104.200000
20
214.597040
30
0.0
11
104.200000
21
216.670997
31
0.0
0
ARC
8
HIDDEN
10
98.200000
20
221.962500
30
0.0
40
8.000000
50
221.409622
51
318.590378
0
LINE
8
HIDDEN
10
106.200000
20
221.962500
30
0.0
11
106.157719
21
222.783904
31
0.0
0
LINE
8
HIDDEN
10
106.157719
20
222.783904
30
0.0
11
106.031324
21
223.596625
31
0.0
0
LINE
8
HIDDEN
10
106.031324
20
223.596625
30
0.0
11
105.822150
21
224.392074
31
0.0
0
LINE
8
HIDDEN
10
105.822150
20
224.392074
30
0.0
11
105.532409
21
225.161841
31
0.0
0
LINE
8
HIDDEN
10
105.532409
20
225.161841
30
0.0
11
105.165162
21
225.897791
31
0.0
0
LINE
8
HIDDEN
10
105.165162
20
225.897791
30
0.0
11
104.724293
21
226.592144
31
0.0
0
LINE
8
HIDDEN
10
104.724293
20
226.592144
30
0.0
11
104.214460
21
227.237561
31
0.0
0
LINE
8
HIDDEN
10
104.214460
20
227.237561
30
0.0
11
103.641054
21
227.827219
31
0.0
0
LINE
8
HIDDEN
10
103.641054
20
227.827219
30
0.0
11
103.010134
21
228.354887
31
0.0
0
LINE
8
HIDDEN
10
103.010134
20
228.354887
30
0.0
11
102.328371
21
228.814985
31
0.0
0
LINE
8
HIDDEN
10
102.328371
20
228.814985
30
0.0
11
101.602970
21
229.202652
31
0.0
0
LINE
8
HIDDEN
10
101.602970
20
229.202652
30
0.0
11
100.841599
21
229.513788
31
0.0
0
LINE
8
HIDDEN
10
100.841599
20
229.513788
30
0.0
11
100.052305
21
229.745107
31
0.0
0
LINE
8
HIDDEN
10
100.052305
20
229.745107
30
0.0
11
99.243433
21
229.894161
31
0.0
0
LINE
8
HIDDEN
10
99.243433
20
229.894161
30
0.0
11
98.423531
21
229.959377
31
0.0
0
LINE
8
HIDDEN
10
98.423531
20
229.959377
30
0.0
11
97.601266
21
229.940063
31
0.0
0
LINE
8
HIDDEN
10
97.601266
20
229.940063
30
0.0
11
96.785331
21
229.836426
31
0.0
0
LINE
8
HIDDEN
10
96.785331
20
229.836426
30
0.0
11
95.984348
21
229.649560
31
0.0
0
LINE
8
HIDDEN
10
95.984348
20
229.649560
30
0.0
11
95.206785
21
229.381440
31
0.0
0
LINE
8
HIDDEN
10
95.206785
20
229.381440
30
0.0
11
94.460861
21
229.034900
31
0.0
0
LINE
8
HIDDEN
10
94.460861
20
229.034900
30
0.0
11
93.754461
21
228.613604
31
0.0
0
LINE
8
HIDDEN
10
93.754461
20
228.613604
30
0.0
11
93.095051
21
228.122004
31
0.0
0
LINE
8
HIDDEN
10
93.095051
20
228.122004
30
0.0
11
92.489601
21
227.565298
31
0.0
0
LINE
8
HIDDEN
10
92.489601
20
227.565298
30
0.0
11
91.944511
21
226.949368
31
0.0
0
LINE
8
HIDDEN
10
91.944511
20
226.949368
30
0.0
11
91.465543
21
226.280727
31
0.0
0
LINE
8
HIDDEN
10
91.465543
20
226.280727
30
0.0
11
91.057759
21
225.566441
31
0.0
0
LINE
8
HIDDEN
10
91.057759
20
225.566441
30
0.0
11
90.725470
21
224.814061
31
0.0
0
LINE
8
HIDDEN
10
90.725470
20
224.814061
30
0.0
11
90.472188
21
224.031539
31
0.0
0
LINE
8
HIDDEN
10
90.472188
20
224.031539
30
0.0
11
90.300591
21
223.227147
31
0.0
0
LINE
8
HIDDEN
10
90.300591
20
223.227147
30
0.0
11
90.212492
21
222.409387
31
0.0
0
LINE
8
HIDDEN
10
90.212492
20
222.409387
30
0.0
11
90.208822
21
221.586904
31
0.0
0
LINE
8
HIDDEN
10
90.208822
20
221.586904
30
0.0
11
90.289620
21
220.768391
31
0.0
0
ARC
8
HIDDEN
10
98.200000
20
221.962500
30
0.0
40
8.000000
50
345.522488
51
360.000000
0
LINE
8
HIDDEN
10
104.200000
20
219.962500
30
0.0
11
105.945967
21
219.962500
31
0.0
0
LINE
8
HIDDEN
10
104.200000
20
216.670997
30
0.0
11
104.200000
21
219.962500
31
0.0
0
LINE
8
HIDDEN
10
105.945967
20
219.962500
30
0.0
11
107.487088
21
219.962500
31
0.0
0
ARC
8
HIDDEN
10
98.200000
20
221.962500
30
0.0
40
8.000000
50
345.522488
51
360.000000
0
ARC
8
HIDDEN
10
98.200000
20
221.962500
30
0.0
40
9.500000
50
0.000000
51
192.153197
0
ARC
8
HIDDEN
10
98.200000
20
221.962500
30
0.0
40
9.500000
50
347.846803
51
360.000000
0
LINE
8
HIDDEN
10
107.200000
20
210.662500
30
0.0
11
109.700000
21
210.662500
31
0.0
0
LINE
8
HIDDEN
10
104.700000
20
210.662500
30
0.0
11
107.200000
21
210.662500
31
0.0
0
LINE
8
HIDDEN
10
89.200000
20
210.662500
30
0.0
11
91.700000
21
210.662500
31
0.0
0
LINE
8
HIDDEN
10
86.700000
20
210.662500
30
0.0
11
89.200000
21
210.662500
31
0.0
0
LINE
8
HIDDEN
10
88.730000
20
215.912500
30
0.0
11
88.410000
21
216.402500
31
0.0
0
LINE
8
HIDDEN
10
89.050000
20
215.422500
30
0.0
11
88.730000
21
215.912500
31
0.0
0
LINE
8
HIDDEN
10
107.350000
20
215.422500
30
0.0
11
107.670000
21
215.912500
31
0.0
0
LINE
8
HIDDEN
10
107.670000
20
215.912500
30
0.0
11
107.990000
21
216.402500
31
0.0
0
LINE
8
HIDDEN
10
106.200000
20
234.262500
30
0.0
11
106.200000
21
236.462500
31
0.0
0
LINE
8
HIDDEN
10
106.200000
20
233.462500
30
0.0
11
106.200000
21
234.262500
31
0.0
0
LINE
8
HIDDEN
10
90.200000
20
234.262500
30
0.0
11
90.200000
21
236.462500
31
0.0
0
LINE
8
HIDDEN
10
90.200000
20
233.462500
30
0.0
11
90.200000
21
234.262500
31
0.0
0
LINE
8
HIDDEN
10
98.200000
20
231.662500
30
0.0
11
98.200000
21
233.462500
31
0.0
0
LINE
8
HIDDEN
10
98.200000
20
233.962500
30
0.0
11
98.200000
21
236.462500
31
0.0
0
LINE
8
HIDDEN
10
98.200000
20
231.662500
30
0.0
11
98.200000
21
233.962500
31
0.0
0
LINE
8
HIDDEN
10
89.200000
20
210.662500
30
0.0
11
89.200000
21
214.662500
31
0.0
0
LINE
8
HIDDEN
10
107.200000
20
210.662500
30
0.0
11
107.200000
21
214.662500
31
0.0
0
LINE
8
HIDDEN
10
103.780000
20
234.262500
30
0.0
11
103.780000
21
236.462500
31
0.0
0
LINE
8
HIDDEN
10
108.620000
20
234.262500
30
0.0
11
108.620000
21
236.462500
31
0.0
0
LINE
8
HIDDEN
10
105.000000
20
233.462500
30
0.0
11
105.000000
21
234.262500
31
0.0
0
LINE
8
HIDDEN
10
107.400000
20
233.462500
30
0.0
11
107.400000
21
234.262500
31
0.0
0
LINE
8
HIDDEN
10
87.780000
20
234.262500
30
0.0
11
87.780000
21
236.462500
31
0.0
0
LINE
8
HIDDEN
10
92.620000
20
234.262500
30
0.0
11
92.620000
21
236.462500
31
0.0
0
LINE
8
HIDDEN
10
89.000000
20
233.462500
30
0.0
11
89.000000
21
234.262500
31
0.0
0
LINE
8
HIDDEN
10
91.400000
20
233.462500
30
0.0
11
91.400000
21
234.262500
31
0.0
0
LINE
8
HIDDEN
10
95.450000
20
233.962500
30
0.0
11
95.450000
21
236.462500
31
0.0
0
LINE
8
HIDDEN
10
100.950000
20
233.962500
30
0.0
11
100.950000
21
236.462500
31
0.0
0
LINE
8
HIDDEN
10
96.850000
20
231.662500
30
0.0
11
96.850000
21
233.962500
31
0.0
0
LINE
8
HIDDEN
10
99.550000
20
231.662500
30
0.0
11
99.550000
21
233.962500
31
0.0
0
LINE
8
HIDDEN
10
88.175000
20
210.662500
30
0.0
11
88.175000
21
214.662500
31
0.0
0
LINE
8
HIDDEN
10
90.225000
20
210.662500
30
0.0
11
90.225000
21
214.048566
31
0.0
0
LINE
8
HIDDEN
10
106.175000
20
210.662500
30
0.0
11
106.175000
21
214.048566
31
0.0
0
LINE
8
HIDDEN
10
108.225000
20
210.662500
30
0.0
11
108.225000
21
214.662500
31
0.0
0
ARC
8
HIDDEN
10
98.200000
20
221.962500
30
0.0
40
8.000000
50
0.000000
51
194.477512
0
ARC
8
VISIBLE
10
167.700000
20
137.537500
30
0.0
40
2.000000
50
90.000000
51
180.000000
0
LINE
8
VISIBLE
10
173.206420
20
130.764858
30
0.0
11
174.205736
21
131.287500
31
0.0
0
LINE
8
VISIBLE
10
174.205736
20
131.287500
30
0.0
11
165.700000
21
131.287500
31
0.0
0
LINE
8
VISIBLE
10
165.700000
20
130.764858
30
0.0
11
165.700000
21
131.287500
31
0.0
0
LINE
8
VISIBLE
10
173.206420
20
130.764858
30
0.0
11
165.700000
21
130.764858
31
0.0
0
LINE
8
VISIBLE
10
172.218053
20
130.247942
30
0.0
11
173.206420
21
130.764858
31
0.0
0
LINE
8
VISIBLE
10
165.700000
20
130.247942
30
0.0
11
165.700000
21
130.764858
31
0.0
0
LINE
8
VISIBLE
10
172.218053
20
130.247942
30
0.0
11
165.700000
21
130.247942
31
0.0
0
LINE
8
VISIBLE
10
171.251463
20
129.742415
30
0.0
11
172.218053
21
130.247942
31
0.0
0
LINE
8
VISIBLE
10
165.700000
20
129.742415
30
0.0
11
165.700000
21
130.247942
31
0.0
0
LINE
8
VISIBLE
10
171.251463
20
129.742415
30
0.0
11
165.700000
21
129.742415
31
0.0
0
LINE
8
VISIBLE
10
170.950000
20
129.253817
30
0.0
11
170.950000
21
129.584750
31
0.0
0
LINE
8
VISIBLE
10
170.950000
20
129.584750
30
0.0
11
171.251463
21
129.742415
31
0.0
0
LINE
8
VISIBLE
10
165.700000
20
129.253817
30
0.0
11
165.700000
21
129.742415
31
0.0
0
LINE
8
VISIBLE
10
170.950000
20
129.253817
30
0.0
11
165.700000
21
129.253817
31
0.0
0
LINE
8
VISIBLE
10
170.950000
20
128.787500
30
0.0
11
170.950000
21
129.253817
31
0.0
0
LINE
8
VISIBLE
10
165.700000
20
128.787500
30
0.0
11
165.700000
21
129.253817
31
0.0
0
LINE
8
VISIBLE
10
170.950000
20
128.787500
30
0.0
11
165.700000
21
128.787500
31
0.0
0
LINE
8
VISIBLE
10
170.950000
20
128.348574
30
0.0
11
170.950000
21
128.787500
31
0.0
0
LINE
8
VISIBLE
10
165.700000
20
128.348574
30
0.0
11
165.700000
21
128.787500
31
0.0
0
LINE
8
VISIBLE
10
170.950000
20
128.348574
30
0.0
11
165.700000
21
128.348574
31
0.0
0
LINE
8
VISIBLE
10
170.950000
20
127.941847
30
0.0
11
170.950000
21
128.348574
31
0.0
0
LINE
8
VISIBLE
10
165.700000
20
127.941847
30
0.0
11
165.700000
21
128.348574
31
0.0
0
LINE
8
VISIBLE
10
170.950000
20
127.941847
30
0.0
11
165.700000
21
127.941847
31
0.0
0
LINE
8
VISIBLE
10
168.700000
20
127.571776
30
0.0
11
168.700000
21
127.826123
31
0.0
0
LINE
8
VISIBLE
10
168.700000
20
127.826123
30
0.0
11
170.950000
21
127.826123
31
0.0
0
LINE
8
VISIBLE
10
170.950000
20
127.826123
30
0.0
11
170.950000
21
127.941847
31
0.0
0
LINE
8
VISIBLE
10
165.700000
20
127.571776
30
0.0
11
165.700000
21
127.941847
31
0.0
0
LINE
8
VISIBLE
10
168.700000
20
127.571776
30
0.0
11
165.700000
21
127.571776
31
0.0
0
LINE
8
VISIBLE
10
168.700000
20
127.242415
30
0.0
11
168.700000
21
127.571776
31
0.0
0
LINE
8
VISIBLE
10
165.700000
20
127.242415
30
0.0
11
165.700000
21
127.571776
31
0.0
0
LINE
8
VISIBLE
10
168.700000
20
127.242415
30
0.0
11
165.700000
21
127.242415
31
0.0
0
LINE
8
VISIBLE
10
168.700000
20
126.957373
30
0.0
11
168.700000
21
127.242415
31
0.0
0
LINE
8
VISIBLE
10
165.700000
20
126.957373
30
0.0
11
165.700000
21
127.242415
31
0.0
0
LINE
8
VISIBLE
10
168.700000
20
126.957373
30
0.0
11
165.700000
21
126.957373
31
0.0
0
LINE
8
VISIBLE
10
168.700000
20
123.207373
30
0.0
11
168.700000
21
126.957373
31
0.0
0
LINE
8
VISIBLE
10
165.700000
20
123.207373
30
0.0
11
165.700000
21
126.957373
31
0.0
0
LINE
8
VISIBLE
10
168.700000
20
123.207373
30
0.0
11
165.700000
21
123.207373
31
0.0
0
LINE
8
VISIBLE
10
168.700000
20
122.969773
30
0.0
11
168.700000
21
123.207373
31
0.0
0
LINE
8
VISIBLE
10
165.700000
20
122.969773
30
0.0
11
165.700000
21
123.207373
31
0.0
0
LINE
8
VISIBLE
10
168.700000
20
122.969773
30
0.0
11
165.700000
21
122.969773
31
0.0
0
LINE
8
VISIBLE
10
168.700000
20
122.782217
30
0.0
11
168.700000
21
122.969773
31
0.0
0
LINE
8
VISIBLE
10
165.700000
20
122.782217
30
0.0
11
165.700000
21
122.969773
31
0.0
0
LINE
8
VISIBLE
10
168.700000
20
122.782217
30
0.0
11
165.700000
21
122.782217
31
0.0
0
LINE
8
VISIBLE
10
168.700000
20
122.646762
30
0.0
11
168.700000
21
122.782217
31
0.0
0
LINE
8
VISIBLE
10
165.700000
20
122.646762
30
0.0
11
165.700000
21
122.782217
31
0.0
0
LINE
8
VISIBLE
10
168.700000
20
122.646762
30
0.0
11
165.700000
21
122.646762
31
0.0
0
LINE
8
VISIBLE
10
168.700000
20
122.564891
30
0.0
11
168.700000
21
122.646762
31
0.0
0
LINE
8
VISIBLE
10
165.700000
20
122.564891
30
0.0
11
165.700000
21
122.646762
31
0.0
0
LINE
8
VISIBLE
10
168.700000
20
122.564891
30
0.0
11
165.700000
21
122.564891
31
0.0
0
LINE
8
VISIBLE
10
168.700000
20
122.537500
30
0.0
11
168.700000
21
122.564891
31
0.0
0
LINE
8
VISIBLE
10
165.700000
20
122.537500
30
0.0
11
165.700000
21
122.564891
31
0.0
0
LINE
8
VISIBLE
10
168.700000
20
122.537500
30
0.0
11
165.700000
21
122.537500
31
0.0
0
LINE
8
VISIBLE
10
174.205736
20
131.287500
30
0.0
11
185.200000
21
137.037500
31
0.0
0
LINE
8
VISIBLE
10
170.500000
20
127.826123
30
0.0
11
170.500000
21
125.037500
31
0.0
0
LINE
8
VISIBLE
10
185.200000
20
139.537500
30
0.0
11
167.700000
21
139.537500
31
0.0
0
LINE
8
VISIBLE
10
182.200000
20
139.537500
30
0.0
11
185.030000
21
139.537500
31
0.0
0
LINE
8
VISIBLE
10
189.180000
20
141.667588
30
0.0
11
188.940000
21
142.126556
31
0.0
0
LINE
8
VISIBLE
10
186.940000
20
143.037500
30
0.0
11
186.740000
21
143.032996
31
0.0
0
LINE
8
VISIBLE
10
186.980000
20
143.037320
30
0.0
11
186.940000
21
143.037500
31
0.0
0
LINE
8
VISIBLE
10
185.200000
20
139.537500
30
0.0
11
185.200000
21
140.537500
31
0.0
0
LINE
8
VISIBLE
10
185.030000
20
142.466723
30
0.0
11
185.200000
21
140.537500
31
0.0
0
LINE
8
VISIBLE
10
185.030000
20
139.537500
30
0.0
11
185.030000
21
142.466723
31
0.0
0
LINE
8
VISIBLE
10
185.280000
20
142.708306
30
0.0
11
185.030000
21
142.466723
31
0.0
0
LINE
8
VISIBLE
10
185.760000
20
142.909398
30
0.0
11
185.280000
21
142.708306
31
0.0
0
LINE
8
VISIBLE
10
185.700000
20
137.037500
30
0.0
11
185.200000
21
137.037500
31
0.0
0
LINE
8
VISIBLE
10
180.200000
20
141.987500
30
0.0
11
172.200000
21
141.987500
31
0.0
0
LINE
8
VISIBLE
10
182.200000
20
141.987500
30
0.0
11
180.200000
21
141.987500
31
0.0
0
LINE
8
VISIBLE
10
185.030000
20
141.987500
30
0.0
11
182.200000
21
141.987500
31
0.0
0
LINE
8
VISIBLE
10
180.200000
20
140.037500
30
0.0
11
170.700000
21
140.037500
31
0.0
0
LINE
8
VISIBLE
10
182.200000
20
140.037500
30
0.0
11
180.200000
21
140.037500
31
0.0
0
LINE
8
VISIBLE
10
182.200000
20
140.037500
30
0.0
11
182.200000
21
141.987500
31
0.0
0
LINE
8
VISIBLE
10
182.200000
20
139.537500
30
0.0
11
182.200000
21
140.037500
31
0.0
0
LINE
8
VISIBLE
10
191.500000
20
137.037500
30
0.0
11
191.500000
21
140.537500
31
0.0
0
LINE
8
VISIBLE
10
191.500000
20
143.037500
30
0.0
11
191.500000
21
140.537500
31
0.0
0
LINE
8
VISIBLE
10
191.500000
20
137.037500
30
0.0
11
185.200000
21
137.037500
31
0.0
0
LINE
8
VISIBLE
10
191.500000
20
140.537500
30
0.0
11
185.200000
21
140.537500
31
0.0
0
LINE
8
VISIBLE
10
165.700000
20
131.287500
30
0.0
11
165.700000
21
137.537500
31
0.0
0
LINE
8
VISIBLE
10
186.740000
20
143.032996
30
0.0
11
186.250000
21
142.992923
31
0.0
0
LINE
8
VISIBLE
10
186.250000
20
142.992923
30
0.0
11
185.760000
21
142.909398
31
0.0
0
LINE
8
VISIBLE
10
170.500000
20
125.037500
30
0.0
11
168.700000
21
125.037500
31
0.0
0
LINE
8
VISIBLE
10
170.700000
20
139.537500
30
0.0
11
170.700000
21
140.037500
31
0.0
0
LINE
8
VISIBLE
10
172.200000
20
140.037500
30
0.0
11
172.200000
21
141.987500
31
0.0
0
LINE
8
VISIBLE
10
191.500000
20
143.037500
30
0.0
11
186.940000
21
143.037500
31
0.0
0
LINE
8
HIDDEN
10
165.700000
20
137.457500
30
0.0
11
165.700000
21
137.137500
31
0.0
0
LINE
8
HIDDEN
10
165.700000
20
137.137500
30
0.0
11
165.700000
21
137.037500
31
0.0
0
LINE
8
HIDDEN
10
165.700000
20
137.037500
30
0.0
11
165.700000
21
132.617500
31
0.0
0
LINE
8
HIDDEN
10
165.700000
20
132.617500
30
0.0
11
165.700000
21
137.037500
31
0.0
0
LINE
8
HIDDEN
10
165.700000
20
137.037500
30
0.0
11
165.700000
21
137.137500
31
0.0
0
LINE
8
HIDDEN
10
165.700000
20
137.137500
30
0.0
11
165.700000
21
137.457500
31
0.0
0
LINE
8
HIDDEN
10
167.900000
20
137.457500
30
0.0
11
165.700000
21
137.457500
31
0.0
0
LINE
8
HIDDEN
10
167.900000
20
137.457500
30
0.0
11
167.900000
21
132.617500
31
0.0
0
LINE
8
HIDDEN
10
167.900000
20
132.617500
30
0.0
11
167.900000
21
137.457500
31
0.0
0
LINE
8
HIDDEN
10
167.900000
20
136.237500
30
0.0
11
167.900000
21
133.837500
31
0.0
0
LINE
8
HIDDEN
10
167.900000
20
133.837500
30
0.0
11
167.900000
21
136.237500
31
0.0
0
LINE
8
HIDDEN
10
169.700000
20
136.237500
30
0.0
11
167.900000
21
136.237500
31
0.0
0
LINE
8
HIDDEN
10
169.700000
20
135.537500
30
0.0
11
169.700000
21
136.237500
31
0.0
0
LINE
8
HIDDEN
10
169.700000
20
135.537500
30
0.0
11
168.700000
21
135.537500
31
0.0
0
LINE
8
HIDDEN
10
168.700000
20
135.537500
30
0.0
11
168.700000
21
133.837500
31
0.0
0
LINE
8
HIDDEN
10
168.700000
20
133.837500
30
0.0
11
168.700000
21
135.537500
31
0.0
0
LINE
8
HIDDEN
10
169.700000
20
135.537500
30
0.0
11
168.700000
21
135.537500
31
0.0
0
LINE
8
HIDDEN
10
169.700000
20
136.237500
30
0.0
11
169.700000
21
135.537500
31
0.0
0
LINE
8
HIDDEN
10
165.700000
20
137.457500
30
0.0
11
165.700000
21
137.137500
31
0.0
0
LINE
8
HIDDEN
10
165.700000
20
137.137500
30
0.0
11
165.700000
21
137.037500
31
0.0
0
LINE
8
HIDDEN
10
165.700000
20
137.037500
30
0.0
11
165.700000
21
132.617500
31
0.0
0
LINE
8
HIDDEN
10
165.700000
20
132.617500
30
0.0
11
165.700000
21
137.037500
31
0.0
0
LINE
8
HIDDEN
10
165.700000
20
137.037500
30
0.0
11
165.700000
21
137.137500
31
0.0
0
LINE
8
HIDDEN
10
165.700000
20
137.137500
30
0.0
11
165.700000
21
137.457500
31
0.0
0
LINE
8
HIDDEN
10
167.900000
20
137.457500
30
0.0
11
165.700000
21
137.457500
31
0.0
0
LINE
8
HIDDEN
10
167.900000
20
137.457500
30
0.0
11
167.900000
21
132.617500
31
0.0
0
LINE
8
HIDDEN
10
167.900000
20
132.617500
30
0.0
11
167.900000
21
137.457500
31
0.0
0
LINE
8
HIDDEN
10
167.900000
20
136.237500
30
0.0
11
167.900000
21
133.837500
31
0.0
0
LINE
8
HIDDEN
10
167.900000
20
133.837500
30
0.0
11
167.900000
21
136.237500
31
0.0
0
LINE
8
HIDDEN
10
169.700000
20
136.237500
30
0.0
11
167.900000
21
136.237500
31
0.0
0
LINE
8
HIDDEN
10
169.700000
20
135.537500
30
0.0
11
169.700000
21
136.237500
31
0.0
0
LINE
8
HIDDEN
10
169.700000
20
135.537500
30
0.0
11
168.700000
21
135.537500
31
0.0
0
LINE
8
HIDDEN
10
168.700000
20
135.537500
30
0.0
11
168.700000
21
133.837500
31
0.0
0
LINE
8
HIDDEN
10
168.700000
20
133.837500
30
0.0
11
168.700000
21
135.537500
31
0.0
0
LINE
8
HIDDEN
10
169.700000
20
135.537500
30
0.0
11
168.700000
21
135.537500
31
0.0
0
LINE
8
HIDDEN
10
169.700000
20
136.237500
30
0.0
11
169.700000
21
135.537500
31
0.0
0
LINE
8
HIDDEN
10
170.950000
20
129.584750
30
0.0
11
185.200000
21
137.037500
31
0.0
0
LINE
8
HIDDEN
10
170.950000
20
127.826123
30
0.0
11
170.950000
21
129.584750
31
0.0
0
LINE
8
HIDDEN
10
185.200000
20
137.037500
30
0.0
11
169.700000
21
137.037500
31
0.0
0
LINE
8
HIDDEN
10
169.700000
20
135.537500
30
0.0
11
169.700000
21
137.037500
31
0.0
0
LINE
8
HIDDEN
10
168.700000
20
135.537500
30
0.0
11
169.700000
21
135.537500
31
0.0
0
LINE
8
HIDDEN
10
168.700000
20
127.826123
30
0.0
11
168.700000
21
135.537500
31
0.0
0
LINE
8
HIDDEN
10
170.950000
20
129.584750
30
0.0
11
185.200000
21
137.037500
31
0.0
0
LINE
8
HIDDEN
10
169.700000
20
135.537500
30
0.0
11
169.700000
21
137.037500
31
0.0
0
LINE
8
HIDDEN
10
168.700000
20
127.826123
30
0.0
11
168.700000
21
135.537500
31
0.0
0
LINE
8
HIDDEN
10
168.700000
20
130.037500
30
0.0
11
168.700000
21
125.037500
31
0.0
0
LINE
8
HIDDEN
10
168.700000
20
125.037500
30
0.0
11
168.700000
21
130.037500
31
0.0
0
LINE
8
HIDDEN
10
170.950000
20
127.826123
30
0.0
11
170.950000
21
129.584750
31
0.0
0
LINE
8
HIDDEN
10
185.200000
20
137.037500
30
0.0
11
169.700000
21
137.037500
31
0.0
0
LINE
8
HIDDEN
10
168.700000
20
135.537500
30
0.0
11
169.700000
21
135.537500
31
0.0
0
LINE
8
HIDDEN
10
170.500000
20
130.037500
30
0.0
11
168.700000
21
130.037500
31
0.0
0
LINE
8
HIDDEN
10
170.500000
20
130.037500
30
0.0
11
170.500000
21
127.826123
31
0.0
0
LINE
8
HIDDEN
10
170.500000
20
125.037500
30
0.0
11
170.500000
21
130.037500
31
0.0
0
LINE
8
HIDDEN
10
170.500000
20
128.887500
30
0.0
11
170.500000
21
126.187500
31
0.0
0
LINE
8
HIDDEN
10
170.500000
20
126.187500
30
0.0
11
170.500000
21
128.887500
31
0.0
0
LINE
8
HIDDEN
10
165.700000
20
130.287500
30
0.0
11
165.700000
21
124.787500
31
0.0
0
LINE
8
HIDDEN
10
165.700000
20
124.787500
30
0.0
11
165.700000
21
130.287500
31
0.0
0
LINE
8
HIDDEN
10
168.200000
20
130.287500
30
0.0
11
165.700000
21
130.287500
31
0.0
0
LINE
8
HIDDEN
10
168.200000
20
130.287500
30
0.0
11
168.200000
21
124.787500
31
0.0
0
LINE
8
HIDDEN
10
168.200000
20
124.787500
30
0.0
11
168.200000
21
130.287500
31
0.0
0
LINE
8
HIDDEN
10
168.200000
20
128.887500
30
0.0
11
168.200000
21
126.187500
31
0.0
0
LINE
8
HIDDEN
10
168.200000
20
126.187500
30
0.0
11
168.200000
21
128.887500
31
0.0
0
LINE
8
HIDDEN
10
170.500000
20
128.887500
30
0.0
11
168.200000
21
128.887500
31
0.0
0
LINE
8
HIDDEN
10
185.030000
20
139.537500
30
0.0
11
185.200000
21
139.537500
31
0.0
0
LINE
8
HIDDEN
10
185.280000
20
139.537500
30
0.0
11
185.030000
21
139.537500
31
0.0
0
LINE
8
HIDDEN
10
185.280000
20
139.537500
30
0.0
11
185.280000
21
142.708306
31
0.0
0
LINE
8
HIDDEN
10
185.760000
20
139.537500
30
0.0
11
185.280000
21
139.537500
31
0.0
0
LINE
8
HIDDEN
10
185.760000
20
139.537500
30
0.0
11
185.760000
21
142.909398
31
0.0
0
LINE
8
HIDDEN
10
186.740000
20
139.537500
30
0.0
11
185.760000
21
139.537500
31
0.0
0
LINE
8
HIDDEN
10
186.980000
20
139.537500
30
0.0
11
186.740000
21
139.537500
31
0.0
0
LINE
8
HIDDEN
10
187.500000
20
139.537500
30
0.0
11
186.980000
21
139.537500
31
0.0
0
LINE
8
HIDDEN
10
187.964498
20
139.537500
30
0.0
11
187.500000
21
139.537500
31
0.0
0
LINE
8
HIDDEN
10
188.200000
20
139.537500
30
0.0
11
187.964498
21
139.537500
31
0.0
0
LINE
8
HIDDEN
10
188.450000
20
139.537500
30
0.0
11
188.200000
21
139.537500
31
0.0
0
LINE
8
HIDDEN
10
188.690000
20
139.537500
30
0.0
11
188.450000
21
139.537500
31
0.0
0
LINE
8
HIDDEN
10
188.940000
20
139.537500
30
0.0
11
188.690000
21
139.537500
31
0.0
0
LINE
8
HIDDEN
10
189.180000
20
139.537500
30
0.0
11
188.940000
21
139.537500
31
0.0
0
LINE
8
HIDDEN
10
189.425000
20
139.537500
30
0.0
11
189.180000
21
139.537500
31
0.0
0
LINE
8
HIDDEN
10
189.700000
20
139.537500
30
0.0
11
189.425000
21
139.537500
31
0.0
0
LINE
8
HIDDEN
10
191.500000
20
139.537500
30
0.0
11
189.700000
21
139.537500
31
0.0
0
LINE
8
HIDDEN
10
191.500000
20
139.537500
30
0.0
11
189.700000
21
139.537500
31
0.0
0
LINE
8
HIDDEN
10
189.700000
20
139.537500
30
0.0
11
189.425000
21
139.537500
31
0.0
0
LINE
8
HIDDEN
10
189.425000
20
139.537500
30
0.0
11
189.180000
21
139.537500
31
0.0
0
LINE
8
HIDDEN
10
189.180000
20
139.537500
30
0.0
11
188.940000
21
139.537500
31
0.0
0
LINE
8
HIDDEN
10
188.940000
20
139.537500
30
0.0
11
188.690000
21
139.537500
31
0.0
0
LINE
8
HIDDEN
10
188.690000
20
139.537500
30
0.0
11
188.450000
21
139.537500
31
0.0
0
LINE
8
HIDDEN
10
188.450000
20
139.537500
30
0.0
11
188.200000
21
139.537500
31
0.0
0
LINE
8
HIDDEN
10
188.200000
20
139.537500
30
0.0
11
187.964498
21
139.537500
31
0.0
0
LINE
8
HIDDEN
10
187.964498
20
139.537500
30
0.0
11
187.500000
21
139.537500
31
0.0
0
LINE
8
HIDDEN
10
187.500000
20
139.537500
30
0.0
11
186.980000
21
139.537500
31
0.0
0
LINE
8
HIDDEN
10
186.980000
20
139.537500
30
0.0
11
186.740000
21
139.537500
31
0.0
0
LINE
8
HIDDEN
10
186.740000
20
139.537500
30
0.0
11
185.760000
21
139.537500
31
0.0
0
LINE
8
HIDDEN
10
185.760000
20
139.537500
30
0.0
11
185.280000
21
139.537500
31
0.0
0
LINE
8
HIDDEN
10
185.280000
20
139.537500
30
0.0
11
185.030000
21
139.537500
31
0.0
0
LINE
8
HIDDEN
10
185.030000
20
139.537500
30
0.0
11
185.200000
21
139.537500
31
0.0
0
LINE
8
HIDDEN
10
182.200000
20
139.537500
30
0.0
11
187.565460
21
139.537500
31
0.0
0
LINE
8
HIDDEN
10
180.200000
20
139.537500
30
0.0
11
170.700000
21
139.537500
31
0.0
0
LINE
8
HIDDEN
10
170.700000
20
139.537500
30
0.0
11
182.200000
21
139.537500
31
0.0
0
LINE
8
HIDDEN
10
182.200000
20
139.537500
30
0.0
11
180.200000
21
139.537500
31
0.0
0
LINE
8
HIDDEN
10
185.030000
20
139.537500
30
0.0
11
187.565460
21
139.537500
31
0.0
0
LINE
8
HIDDEN
10
187.565460
20
139.537500
30
0.0
11
189.700000
21
139.537500
31
0.0
0
LINE
8
HIDDEN
10
189.700000
20
139.537500
30
0.0
11
187.565460
21
139.537500
31
0.0
0
LINE
8
HIDDEN
10
186.740000
20
139.537500
30
0.0
11
186.740000
21
143.032996
31
0.0
0
LINE
8
HIDDEN
10
186.980000
20
139.537500
30
0.0
11
186.980000
21
143.037320
31
0.0
0
LINE
8
HIDDEN
10
187.500000
20
142.989010
30
0.0
11
186.980000
21
143.037320
31
0.0
0
LINE
8
HIDDEN
10
187.500000
20
139.537500
30
0.0
11
187.500000
21
140.937792
31
0.0
0
LINE
8
HIDDEN
10
187.500000
20
140.937792
30
0.0
11
187.500000
21
142.989010
31
0.0
0
LINE
8
HIDDEN
10
187.500000
20
139.537500
30
0.0
11
187.500000
21
139.012500
31
0.0
0
LINE
8
HIDDEN
10
187.500000
20
139.012500
30
0.0
11
187.500000
21
141.062500
31
0.0
0
LINE
8
HIDDEN
10
187.500000
20
141.062500
30
0.0
11
187.500000
21
140.937792
31
0.0
0
LINE
8
HIDDEN
10
191.500000
20
141.062500
30
0.0
11
187.500000
21
141.062500
31
0.0
0
LINE
8
HIDDEN
10
191.500000
20
140.537500
30
0.0
11
191.500000
21
141.062500
31
0.0
0
LINE
8
HIDDEN
10
191.500000
20
139.537500
30
0.0
11
191.500000
21
140.537500
31
0.0
0
LINE
8
HIDDEN
10
191.500000
20
139.527500
30
0.0
11
191.500000
21
139.537500
31
0.0
0
LINE
8
HIDDEN
10
191.500000
20
139.527500
30
0.0
11
191.500000
21
139.012500
31
0.0
0
LINE
8
HIDDEN
10
191.500000
20
139.012500
30
0.0
11
191.500000
21
139.527500
31
0.0
0
LINE
8
HIDDEN
10
191.500000
20
139.537500
30
0.0
11
191.500000
21
139.527500
31
0.0
0
LINE
8
HIDDEN
10
191.500000
20
140.537500
30
0.0
11
191.500000
21
139.537500
31
0.0
0
LINE
8
HIDDEN
10
191.500000
20
141.062500
30
0.0
11
191.500000
21
140.537500
31
0.0
0
LINE
8
HIDDEN
10
187.964498
20
139.537500
30
0.0
11
188.067672
21
140.322139
31
0.0
0
LINE
8
HIDDEN
10
188.067672
20
140.322139
30
0.0
11
187.500000
21
140.937792
31
0.0
0
LINE
8
HIDDEN
10
188.200000
20
142.782494
30
0.0
11
187.500000
21
142.989010
31
0.0
0
LINE
8
HIDDEN
10
188.200000
20
139.537500
30
0.0
11
188.200000
21
142.782494
31
0.0
0
LINE
8
HIDDEN
10
188.450000
20
142.635213
30
0.0
11
188.200000
21
142.782494
31
0.0
0
LINE
8
HIDDEN
10
188.450000
20
139.537500
30
0.0
11
188.450000
21
142.635213
31
0.0
0
LINE
8
HIDDEN
10
188.690000
20
142.441601
30
0.0
11
188.450000
21
142.635213
31
0.0
0
LINE
8
HIDDEN
10
188.690000
20
139.537500
30
0.0
11
188.690000
21
142.441601
31
0.0
0
LINE
8
HIDDEN
10
188.940000
20
142.126556
30
0.0
11
188.690000
21
142.441601
31
0.0
0
LINE
8
HIDDEN
10
188.940000
20
139.537500
30
0.0
11
188.940000
21
142.126556
31
0.0
0
LINE
8
HIDDEN
10
189.180000
20
139.537500
30
0.0
11
189.180000
21
141.667588
31
0.0
0
LINE
8
HIDDEN
10
189.425000
20
141.034994
30
0.0
11
189.180000
21
141.667588
31
0.0
0
LINE
8
HIDDEN
10
189.425000
20
139.537500
30
0.0
11
189.425000
21
141.034994
31
0.0
0
LINE
8
HIDDEN
10
189.700000
20
140.537500
30
0.0
11
189.425000
21
141.034994
31
0.0
0
LINE
8
HIDDEN
10
189.700000
20
139.537500
30
0.0
11
189.700000
21
140.537500
31
0.0
0
LINE
8
HIDDEN
10
191.500000
20
139.537500
30
0.0
11
191.500000
21
140.537500
31
0.0
0
LINE
8
HIDDEN
10
191.500000
20
140.537500
30
0.0
11
189.700000
21
140.537500
31
0.0
0
LINE
8
HIDDEN
10
186.740000
20
139.537500
30
0.0
11
186.740000
21
143.032996
31
0.0
0
LINE
8
HIDDEN
10
186.980000
20
139.537500
30
0.0
11
186.980000
21
143.037320
31
0.0
0
LINE
8
HIDDEN
10
187.500000
20
142.989010
30
0.0
11
186.980000
21
143.037320
31
0.0
0
LINE
8
HIDDEN
10
187.500000
20
139.537500
30
0.0
11
187.500000
21
140.937792
31
0.0
0
LINE
8
HIDDEN
10
187.500000
20
140.937792
30
0.0
11
187.500000
21
142.989010
31
0.0
0
LINE
8
HIDDEN
10
187.500000
20
141.062500
30
0.0
11
187.500000
21
139.012500
31
0.0
0
LINE
8
HIDDEN
10
187.500000
20
139.012500
30
0.0
11
187.500000
21
139.537500
31
0.0
0
LINE
8
HIDDEN
10
187.500000
20
140.937792
30
0.0
11
187.500000
21
141.062500
31
0.0
0
LINE
8
HIDDEN
10
191.500000
20
141.062500
30
0.0
11
187.500000
21
141.062500
31
0.0
0
LINE
8
HIDDEN
10
191.500000
20
140.537500
30
0.0
11
191.500000
21
141.062500
31
0.0
0
LINE
8
HIDDEN
10
191.500000
20
139.537500
30
0.0
11
191.500000
21
140.537500
31
0.0
0
LINE
8
HIDDEN
10
191.500000
20
139.527500
30
0.0
11
191.500000
21
139.537500
31
0.0
0
LINE
8
HIDDEN
10
191.500000
20
139.527500
30
0.0
11
191.500000
21
139.012500
31
0.0
0
LINE
8
HIDDEN
10
191.500000
20
139.012500
30
0.0
11
191.500000
21
139.527500
31
0.0
0
LINE
8
HIDDEN
10
191.500000
20
139.537500
30
0.0
11
191.500000
21
139.527500
31
0.0
0
LINE
8
HIDDEN
10
191.500000
20
140.537500
30
0.0
11
191.500000
21
139.537500
31
0.0
0
LINE
8
HIDDEN
10
191.500000
20
141.062500
30
0.0
11
191.500000
21
140.537500
31
0.0
0
LINE
8
HIDDEN
10
187.964498
20
139.537500
30
0.0
11
188.067672
21
140.322139
31
0.0
0
LINE
8
HIDDEN
10
188.067672
20
140.322139
30
0.0
11
187.500000
21
140.937792
31
0.0
0
LINE
8
HIDDEN
10
188.200000
20
142.782494
30
0.0
11
187.500000
21
142.989010
31
0.0
0
LINE
8
HIDDEN
10
188.200000
20
139.537500
30
0.0
11
188.200000
21
142.782494
31
0.0
0
LINE
8
HIDDEN
10
188.450000
20
142.635213
30
0.0
11
188.200000
21
142.782494
31
0.0
0
LINE
8
HIDDEN
10
188.450000
20
139.537500
30
0.0
11
188.450000
21
142.635213
31
0.0
0
LINE
8
HIDDEN
10
188.690000
20
142.441601
30
0.0
11
188.450000
21
142.635213
31
0.0
0
LINE
8
HIDDEN
10
188.690000
20
139.537500
30
0.0
11
188.690000
21
142.441601
31
0.0
0
LINE
8
HIDDEN
10
188.940000
20
142.126556
30
0.0
11
188.690000
21
142.441601
31
0.0
0
LINE
8
HIDDEN
10
188.940000
20
139.537500
30
0.0
11
188.940000
21
142.126556
31
0.0
0
LINE
8
HIDDEN
10
189.180000
20
139.537500
30
0.0
11
189.180000
21
141.667588
31
0.0
0
LINE
8
HIDDEN
10
189.425000
20
141.034994
30
0.0
11
189.180000
21
141.667588
31
0.0
0
LINE
8
HIDDEN
10
189.425000
20
139.537500
30
0.0
11
189.425000
21
141.034994
31
0.0
0
LINE
8
HIDDEN
10
191.500000
20
139.537500
30
0.0
11
191.500000
21
140.537500
31
0.0
0
LINE
8
HIDDEN
10
191.500000
20
140.537500
30
0.0
11
189.700000
21
140.537500
31
0.0
0
LINE
8
HIDDEN
10
189.700000
20
139.537500
30
0.0
11
189.700000
21
140.537500
31
0.0
0
LINE
8
HIDDEN
10
189.700000
20
140.537500
30
0.0
11
189.425000
21
141.034994
31
0.0
0
LINE
8
HIDDEN
10
185.280000
20
139.537500
30
0.0
11
185.280000
21
142.708306
31
0.0
0
LINE
8
HIDDEN
10
185.760000
20
139.537500
30
0.0
11
185.760000
21
142.909398
31
0.0
0
LINE
8
HIDDEN
10
185.700000
20
137.037500
30
0.0
11
188.400000
21
137.037500
31
0.0
0
LINE
8
HIDDEN
10
188.400000
20
137.037500
30
0.0
11
186.200000
21
137.037500
31
0.0
0
LINE
8
HIDDEN
10
185.200000
20
137.037500
30
0.0
11
184.000000
21
137.037500
31
0.0
0
LINE
8
HIDDEN
10
184.000000
20
137.037500
30
0.0
11
185.200000
21
137.037500
31
0.0
0
LINE
8
HIDDEN
10
186.200000
20
137.037500
30
0.0
11
185.700000
21
137.037500
31
0.0
0
LINE
8
HIDDEN
10
186.200000
20
139.037500
30
0.0
11
184.000000
21
139.037500
31
0.0
0
LINE
8
HIDDEN
10
184.000000
20
139.037500
30
0.0
11
188.400000
21
139.037500
31
0.0
0
LINE
8
HIDDEN
10
188.400000
20
139.037500
30
0.0
11
186.200000
21
139.037500
31
0.0
0
LINE
8
HIDDEN
10
186.200000
20
139.037500
30
0.0
11
185.100000
21
139.037500
31
0.0
0
LINE
8
HIDDEN
10
185.100000
20
139.037500
30
0.0
11
187.300000
21
139.037500
31
0.0
0
LINE
8
HIDDEN
10
187.300000
20
139.037500
30
0.0
11
186.200000
21
139.037500
31
0.0
0
LINE
8
HIDDEN
10
187.565460
20
139.537500
30
0.0
11
187.565460
21
140.037500
31
0.0
0
LINE
8
HIDDEN
10
187.565460
20
140.037500
30
0.0
11
185.491503
21
140.037500
31
0.0
0
LINE
8
HIDDEN
10
185.491503
20
140.037500
30
0.0
11
185.491503
21
141.987500
31
0.0
0
LINE
8
HIDDEN
10
185.491503
20
141.987500
30
0.0
11
182.200000
21
141.987500
31
0.0
0
LINE
8
HIDDEN
10
182.200000
20
139.537500
30
0.0
11
182.200000
21
141.987500
31
0.0
0
LINE
8
HIDDEN
10
187.565460
20
140.037500
30
0.0
11
189.700000
21
140.037500
31
0.0
0
LINE
8
HIDDEN
10
189.700000
20
140.037500
30
0.0
11
187.565460
21
140.037500
31
0.0
0
LINE
8
HIDDEN
10
187.565460
20
139.537500
30
0.0
11
187.565460
21
140.037500
31
0.0
0
LINE
8
HIDDEN
10
185.491503
20
140.037500
30
0.0
11
188.200000
21
140.037500
31
0.0
0
LINE
8
HIDDEN
10
188.200000
20
140.037500
30
0.0
11
185.491503
21
140.037500
31
0.0
0
LINE
8
HIDDEN
10
187.565460
20
140.037500
30
0.0
11
185.491503
21
140.037500
31
0.0
0
LINE
8
HIDDEN
10
185.491503
20
141.987500
30
0.0
11
188.200000
21
141.987500
31
0.0
0
LINE
8
HIDDEN
10
188.200000
20
141.987500
30
0.0
11
185.491503
21
141.987500
31
0.0
0
LINE
8
HIDDEN
10
185.491503
20
140.037500
30
0.0
11
185.491503
21
141.987500
31
0.0
0
LINE
8
HIDDEN
10
172.200000
20
141.987500
30
0.0
11
182.200000
21
141.987500
31
0.0
0
LINE
8
HIDDEN
10
185.491503
20
141.987500
30
0.0
11
185.030000
21
141.987500
31
0.0
0
LINE
8
HIDDEN
10
186.200000
20
141.987500
30
0.0
11
185.100000
21
141.987500
31
0.0
0
LINE
8
HIDDEN
10
185.100000
20
141.987500
30
0.0
11
187.300000
21
141.987500
31
0.0
0
LINE
8
HIDDEN
10
187.300000
20
141.987500
30
0.0
11
186.200000
21
141.987500
31
0.0
0
LINE
8
HIDDEN
10
180.200000
20
141.987500
30
0.0
11
179.100000
21
141.987500
31
0.0
0
LINE
8
HIDDEN
10
179.100000
20
141.987500
30
0.0
11
181.300000
21
141.987500
31
0.0
0
LINE
8
HIDDEN
10
181.300000
20
141.987500
30
0.0
11
180.200000
21
141.987500
31
0.0
0
LINE
8
HIDDEN
10
180.200000
20
141.987500
30
0.0
11
179.100000
21
141.987500
31
0.0
0
LINE
8
HIDDEN
10
179.100000
20
141.987500
30
0.0
11
181.300000
21
141.987500
31
0.0
0
LINE
8
HIDDEN
10
181.300000
20
141.987500
30
0.0
11
180.200000
21
141.987500
31
0.0
0
LINE
8
HIDDEN
10
174.200000
20
141.987500
30
0.0
11
173.100000
21
141.987500
31
0.0
0
LINE
8
HIDDEN
10
173.100000
20
141.987500
30
0.0
11
175.300000
21
141.987500
31
0.0
0
LINE
8
HIDDEN
10
175.300000
20
141.987500
30
0.0
11
174.200000
21
141.987500
31
0.0
0
LINE
8
HIDDEN
10
180.200000
20
140.037500
30
0.0
11
172.200000
21
140.037500
31
0.0
0
LINE
8
HIDDEN
10
172.200000
20
140.037500
30
0.0
11
182.200000
21
140.037500
31
0.0
0
LINE
8
HIDDEN
10
170.700000
20
140.037500
30
0.0
11
182.200000
21
140.037500
31
0.0
0
LINE
8
HIDDEN
10
182.200000
20
139.537500
30
0.0
11
182.200000
21
141.987500
31
0.0
0
LINE
8
HIDDEN
10
180.200000
20
139.037500
30
0.0
11
179.100000
21
139.037500
31
0.0
0
LINE
8
HIDDEN
10
179.100000
20
139.037500
30
0.0
11
181.300000
21
139.037500
31
0.0
0
LINE
8
HIDDEN
10
181.300000
20
139.037500
30
0.0
11
180.200000
21
139.037500
31
0.0
0
LINE
8
HIDDEN
10
180.200000
20
139.037500
30
0.0
11
179.100000
21
139.037500
31
0.0
0
LINE
8
HIDDEN
10
179.100000
20
139.037500
30
0.0
11
181.300000
21
139.037500
31
0.0
0
LINE
8
HIDDEN
10
181.300000
20
139.037500
30
0.0
11
180.200000
21
139.037500
31
0.0
0
LINE
8
HIDDEN
10
174.200000
20
139.037500
30
0.0
11
173.100000
21
139.037500
31
0.0
0
LINE
8
HIDDEN
10
173.100000
20
139.037500
30
0.0
11
175.300000
21
139.037500
31
0.0
0
LINE
8
HIDDEN
10
175.300000
20
139.037500
30
0.0
11
174.200000
21
139.037500
31
0.0
0
LINE
8
HIDDEN
10
180.200000
20
139.037500
30
0.0
11
178.000000
21
139.037500
31
0.0
0
LINE
8
HIDDEN
10
178.000000
20
139.037500
30
0.0
11
182.400000
21
139.037500
31
0.0
0
LINE
8
HIDDEN
10
182.400000
20
139.037500
30
0.0
11
180.200000
21
139.037500
31
0.0
0
LINE
8
HIDDEN
10
180.200000
20
139.037500
30
0.0
11
178.000000
21
139.037500
31
0.0
0
LINE
8
HIDDEN
10
178.000000
20
139.037500
30
0.0
11
182.400000
21
139.037500
31
0.0
0
LINE
8
HIDDEN
10
182.400000
20
139.037500
30
0.0
11
180.200000
21
139.037500
31
0.0
0
LINE
8
HIDDEN
10
174.200000
20
139.037500
30
0.0
11
172.000000
21
139.037500
31
0.0
0
LINE
8
HIDDEN
10
172.000000
20
139.037500
30
0.0
11
176.400000
21
139.037500
31
0.0
0
LINE
8
HIDDEN
10
176.400000
20
139.037500
30
0.0
11
174.200000
21
139.037500
31
0.0
0
LINE
8
HIDDEN
10
180.200000
20
137.037500
30
0.0
11
178.000000
21
137.037500
31
0.0
0
LINE
8
HIDDEN
10
178.000000
20
137.037500
30
0.0
11
182.400000
21
137.037500
31
0.0
0
LINE
8
HIDDEN
10
182.400000
20
137.037500
30
0.0
11
180.200000
21
137.037500
31
0.0
0
LINE
8
HIDDEN
10
180.200000
20
137.037500
30
0.0
11
178.000000
21
137.037500
31
0.0
0
LINE
8
HIDDEN
10
178.000000
20
137.037500
30
0.0
11
182.400000
21
137.037500
31
0.0
0
LINE
8
HIDDEN
10
182.400000
20
137.037500
30
0.0
11
180.200000
21
137.037500
31
0.0
0
LINE
8
HIDDEN
10
174.200000
20
137.037500
30
0.0
11
172.000000
21
137.037500
31
0.0
0
LINE
8
HIDDEN
10
172.000000
20
137.037500
30
0.0
11
176.400000
21
137.037500
31
0.0
0
LINE
8
HIDDEN
10
176.400000
20
137.037500
30
0.0
11
174.200000
21
137.037500
31
0.0
0
LINE
8
HIDDEN
10
186.200000
20
137.037500
30
0.0
11
186.200000
21
139.037500
31
0.0
0
LINE
8
HIDDEN
10
186.200000
20
139.037500
30
0.0
11
186.200000
21
141.987500
31
0.0
0
LINE
8
HIDDEN
10
180.200000
20
139.037500
30
0.0
11
180.200000
21
141.987500
31
0.0
0
LINE
8
HIDDEN
10
180.200000
20
139.037500
30
0.0
11
180.200000
21
141.987500
31
0.0
0
LINE
8
HIDDEN
10
174.200000
20
139.037500
30
0.0
11
174.200000
21
141.987500
31
0.0
0
LINE
8
HIDDEN
10
180.200000
20
137.037500
30
0.0
11
180.200000
21
139.037500
31
0.0
0
LINE
8
HIDDEN
10
180.200000
20
137.037500
30
0.0
11
180.200000
21
139.037500
31
0.0
0
LINE
8
HIDDEN
10
174.200000
20
137.037500
30
0.0
11
174.200000
21
139.037500
31
0.0
0
LINE
8
HIDDEN
10
167.900000
20
132.617500
30
0.0
11
165.700000
21
132.617500
31
0.0
0
LINE
8
HIDDEN
10
168.700000
20
133.837500
30
0.0
11
167.900000
21
133.837500
31
0.0
0
LINE
8
HIDDEN
10
167.900000
20
132.617500
30
0.0
11
165.700000
21
132.617500
31
0.0
0
LINE
8
HIDDEN
10
168.700000
20
133.837500
30
0.0
11
167.900000
21
133.837500
31
0.0
0
LINE
8
HIDDEN
10
168.200000
20
124.787500
30
0.0
11
165.700000
21
124.787500
31
0.0
0
LINE
8
HIDDEN
10
170.500000
20
126.187500
30
0.0
11
168.200000
21
126.187500
31
0.0
0
LINE
8
HIDDEN
10
191.500000
20
139.012500
30
0.0
11
187.500000
21
139.012500
31
0.0
0
LINE
8
HIDDEN
10
191.500000
20
139.012500
30
0.0
11
187.500000
21
139.012500
31
0.0
0
LINE
8
HIDDEN
10
184.000000
20
137.037500
30
0.0
11
184.000000
21
139.037500
31
0.0
0
LINE
8
HIDDEN
10
188.400000
20
137.037500
30
0.0
11
188.400000
21
139.037500
31
0.0
0
LINE
8
HIDDEN
10
189.700000
20
139.537500
30
0.0
11
189.700000
21
140.037500
31
0.0
0
LINE
8
HIDDEN
10
188.200000
20
140.037500
30
0.0
11
188.200000
21
141.987500
31
0.0
0
LINE
8
HIDDEN
10
185.100000
20
139.037500
30
0.0
11
185.100000
21
141.987500
31
0.0
0
LINE
8
HIDDEN
10
187.300000
20
139.037500
30
0.0
11
187.300000
21
141.987500
31
0.0
0
LINE
8
HIDDEN
10
179.100000
20
139.037500
30
0.0
11
179.100000
21
141.987500
31
0.0
0
LINE
8
HIDDEN
10
181.300000
20
139.037500
30
0.0
11
181.300000
21
141.987500
31
0.0
0
LINE
8
HIDDEN
10
179.100000
20
139.037500
30
0.0
11
179.100000
21
141.987500
31
0.0
0
LINE
8
HIDDEN
10
181.300000
20
139.037500
30
0.0
11
181.300000
21
141.987500
31
0.0
0
LINE
8
HIDDEN
10
173.100000
20
139.037500
30
0.0
11
173.100000
21
141.987500
31
0.0
0
LINE
8
HIDDEN
10
175.300000
20
139.037500
30
0.0
11
175.300000
21
141.987500
31
0.0
0
LINE
8
HIDDEN
10
178.000000
20
137.037500
30
0.0
11
178.000000
21
139.037500
31
0.0
0
LINE
8
HIDDEN
10
182.400000
20
137.037500
30
0.0
11
182.400000
21
139.037500
31
0.0
0
LINE
8
HIDDEN
10
178.000000
20
137.037500
30
0.0
11
178.000000
21
139.037500
31
0.0
0
LINE
8
HIDDEN
10
182.400000
20
137.037500
30
0.0
11
182.400000
21
139.037500
31
0.0
0
LINE
8
HIDDEN
10
172.000000
20
137.037500
30
0.0
11
172.000000
21
139.037500
31
0.0
0
LINE
8
HIDDEN
10
176.400000
20
137.037500
30
0.0
11
176.400000
21
139.037500
31
0.0
0
LINE
8
VISIBLE
10
235.800000
20
139.537500
30
0.0
11
253.300000
21
139.537500
31
0.0
0
LINE
8
VISIBLE
10
255.300000
20
131.287500
30
0.0
11
255.300000
21
137.537500
31
0.0
0
LINE
8
VISIBLE
10
246.794264
20
131.287500
30
0.0
11
255.300000
21
131.287500
31
0.0
0
LINE
8
VISIBLE
10
235.800000
20
137.037500
30
0.0
11
246.794264
21
131.287500
31
0.0
0
LINE
8
VISIBLE
10
229.500000
20
137.037500
30
0.0
11
235.800000
21
137.037500
31
0.0
0
LINE
8
VISIBLE
10
229.500000
20
137.037500
30
0.0
11
229.500000
21
140.537500
31
0.0
0
LINE
8
VISIBLE
10
229.500000
20
140.537500
30
0.0
11
235.800000
21
140.537500
31
0.0
0
LINE
8
VISIBLE
10
235.800000
20
139.537500
30
0.0
11
235.800000
21
140.537500
31
0.0
0
LINE
8
VISIBLE
10
255.300000
20
131.287500
30
0.0
11
255.300000
21
130.764858
31
0.0
0
LINE
8
VISIBLE
10
255.300000
20
130.764858
30
0.0
11
255.300000
21
130.247942
31
0.0
0
LINE
8
VISIBLE
10
255.300000
20
130.247942
30
0.0
11
255.300000
21
129.742415
31
0.0
0
LINE
8
VISIBLE
10
255.300000
20
129.742415
30
0.0
11
255.300000
21
129.253817
31
0.0
0
LINE
8
VISIBLE
10
255.300000
20
129.253817
30
0.0
11
255.300000
21
128.787500
31
0.0
0
LINE
8
VISIBLE
10
255.300000
20
128.787500
30
0.0
11
255.300000
21
128.348574
31
0.0
0
LINE
8
VISIBLE
10
255.300000
20
128.348574
30
0.0
11
255.300000
21
127.941847
31
0.0
0
LINE
8
VISIBLE
10
255.300000
20
127.941847
30
0.0
11
255.300000
21
127.571776
31
0.0
0
LINE
8
VISIBLE
10
255.300000
20
127.571776
30
0.0
11
255.300000
21
127.242415
31
0.0
0
LINE
8
VISIBLE
10
255.300000
20
127.242415
30
0.0
11
255.300000
21
126.957373
31
0.0
0
LINE
8
VISIBLE
10
255.300000
20
126.957373
30
0.0
11
255.300000
21
123.207373
31
0.0
0
LINE
8
VISIBLE
10
255.300000
20
123.207373
30
0.0
11
255.300000
21
122.969773
31
0.0
0
LINE
8
VISIBLE
10
255.300000
20
122.969773
30
0.0
11
255.300000
21
122.782217
31
0.0
0
LINE
8
VISIBLE
10
255.300000
20
122.782217
30
0.0
11
255.300000
21
122.646762
31
0.0
0
LINE
8
VISIBLE
10
255.300000
20
122.646762
30
0.0
11
255.300000
21
122.564891
31
0.0
0
LINE
8
VISIBLE
10
255.300000
20
122.564891
30
0.0
11
255.300000
21
122.537500
31
0.0
0
LINE
8
VISIBLE
10
238.800000
20
139.537500
30
0.0
11
235.970000
21
139.537500
31
0.0
0
LINE
8
VISIBLE
10
246.794264
20
131.287500
30
0.0
11
247.793580
21
130.764858
31
0.0
0
LINE
8
VISIBLE
10
247.793580
20
130.764858
30
0.0
11
255.300000
21
130.764858
31
0.0
0
LINE
8
VISIBLE
10
247.793580
20
130.764858
30
0.0
11
248.781947
21
130.247942
31
0.0
0
LINE
8
VISIBLE
10
248.781947
20
130.247942
30
0.0
11
249.748537
21
129.742415
31
0.0
0
LINE
8
VISIBLE
10
249.748537
20
129.742415
30
0.0
11
250.050000
21
129.584750
31
0.0
0
LINE
8
VISIBLE
10
235.800000
20
137.037500
30
0.0
11
235.300000
21
137.037500
31
0.0
0
LINE
8
VISIBLE
10
229.500000
20
140.537500
30
0.0
11
229.500000
21
143.037500
31
0.0
0
LINE
8
VISIBLE
10
234.020000
20
143.037320
30
0.0
11
234.060000
21
143.037500
31
0.0
0
LINE
8
VISIBLE
10
234.060000
20
143.037500
30
0.0
11
234.260000
21
143.032996
31
0.0
0
LINE
8
VISIBLE
10
234.260000
20
143.032996
30
0.0
11
234.750000
21
142.992923
31
0.0
0
LINE
8
VISIBLE
10
234.750000
20
142.992923
30
0.0
11
235.240000
21
142.909398
31
0.0
0
LINE
8
VISIBLE
10
235.240000
20
142.909398
30
0.0
11
235.720000
21
142.708306
31
0.0
0
LINE
8
VISIBLE
10
235.720000
20
142.708306
30
0.0
11
235.970000
21
142.466723
31
0.0
0
LINE
8
VISIBLE
10
235.970000
20
142.466723
30
0.0
11
235.800000
21
140.537500
31
0.0
0
LINE
8
VISIBLE
10
235.970000
20
139.537500
30
0.0
11
235.970000
21
142.466723
31
0.0
0
LINE
8
VISIBLE
10
248.781947
20
130.247942
30
0.0
11
255.300000
21
130.247942
31
0.0
0
LINE
8
VISIBLE
10
249.748537
20
129.742415
30
0.0
11
255.300000
21
129.742415
31
0.0
0
LINE
8
VISIBLE
10
250.050000
20
129.584750
30
0.0
11
250.050000
21
129.253817
31
0.0
0
LINE
8
VISIBLE
10
250.050000
20
129.253817
30
0.0
11
255.300000
21
129.253817
31
0.0
0
LINE
8
VISIBLE
10
250.050000
20
129.253817
30
0.0
11
250.050000
21
128.787500
31
0.0
0
LINE
8
VISIBLE
10
250.050000
20
128.787500
30
0.0
11
255.300000
21
128.787500
31
0.0
0
LINE
8
VISIBLE
10
250.050000
20
128.787500
30
0.0
11
250.050000
21
128.348574
31
0.0
0
LINE
8
VISIBLE
10
250.050000
20
128.348574
30
0.0
11
255.300000
21
128.348574
31
0.0
0
LINE
8
VISIBLE
10
250.050000
20
128.348574
30
0.0
11
250.050000
21
127.941847
31
0.0
0
LINE
8
VISIBLE
10
250.050000
20
127.941847
30
0.0
11
255.300000
21
127.941847
31
0.0
0
LINE
8
VISIBLE
10
250.050000
20
127.941847
30
0.0
11
250.050000
21
127.826123
31
0.0
0
LINE
8
VISIBLE
10
252.300000
20
127.826123
30
0.0
11
250.050000
21
127.826123
31
0.0
0
LINE
8
VISIBLE
10
252.300000
20
127.826123
30
0.0
11
252.300000
21
127.571776
31
0.0
0
LINE
8
VISIBLE
10
252.300000
20
127.571776
30
0.0
11
255.300000
21
127.571776
31
0.0
0
LINE
8
VISIBLE
10
252.300000
20
127.571776
30
0.0
11
252.300000
21
127.242415
31
0.0
0
LINE
8
VISIBLE
10
252.300000
20
127.242415
30
0.0
11
255.300000
21
127.242415
31
0.0
0
LINE
8
VISIBLE
10
252.300000
20
127.242415
30
0.0
11
252.300000
21
126.957373
31
0.0
0
LINE
8
VISIBLE
10
252.300000
20
126.957373
30
0.0
11
255.300000
21
126.957373
31
0.0
0
LINE
8
VISIBLE
10
252.300000
20
126.957373
30
0.0
11
252.300000
21
123.207373
31
0.0
0
LINE
8
VISIBLE
10
252.300000
20
123.207373
30
0.0
11
255.300000
21
123.207373
31
0.0
0
LINE
8
VISIBLE
10
252.300000
20
123.207373
30
0.0
11
252.300000
21
122.969773
31
0.0
0
LINE
8
VISIBLE
10
252.300000
20
122.969773
30
0.0
11
255.300000
21
122.969773
31
0.0
0
LINE
8
VISIBLE
10
252.300000
20
122.969773
30
0.0
11
252.300000
21
122.782217
31
0.0
0
LINE
8
VISIBLE
10
252.300000
20
122.782217
30
0.0
11
255.300000
21
122.782217
31
0.0
0
LINE
8
VISIBLE
10
252.300000
20
122.782217
30
0.0
11
252.300000
21
122.646762
31
0.0
0
LINE
8
VISIBLE
10
252.300000
20
122.646762
30
0.0
11
255.300000
21
122.646762
31
0.0
0
LINE
8
VISIBLE
10
252.300000
20
122.646762
30
0.0
11
252.300000
21
122.564891
31
0.0
0
LINE
8
VISIBLE
10
252.300000
20
122.564891
30
0.0
11
255.300000
21
122.564891
31
0.0
0
LINE
8
VISIBLE
10
252.300000
20
122.564891
30
0.0
11
252.300000
21
122.537500
31
0.0
0
LINE
8
VISIBLE
10
250.500000
20
125.037500
30
0.0
11
250.500000
21
127.826123
31
0.0
0
LINE
8
VISIBLE
10
235.970000
20
141.987500
30
0.0
11
238.800000
21
141.987500
31
0.0
0
LINE
8
VISIBLE
10
248.800000
20
141.987500
30
0.0
11
238.800000
21
141.987500
31
0.0
0
LINE
8
VISIBLE
10
238.800000
20
140.037500
30
0.0
11
238.800000
21
141.987500
31
0.0
0
LINE
8
VISIBLE
10
250.300000
20
140.037500
30
0.0
11
238.800000
21
140.037500
31
0.0
0
LINE
8
VISIBLE
10
238.800000
20
139.537500
30
0.0
11
238.800000
21
140.037500
31
0.0
0
LINE
8
VISIBLE
10
229.500000
20
143.037500
30
0.0
11
234.060000
21
143.037500
31
0.0
0
LINE
8
SECTION
10
250.500000
20
130.037500
30
0.0
11
252.300000
21
130.037500
31
0.0
0
LINE
8
SECTION
10
252.300000
20
135.537500
30
0.0
11
252.300000
21
130.037500
31
0.0
0
LINE
8
SECTION
10
251.300000
20
135.537500
30
0.0
11
252.300000
21
135.537500
31
0.0
0
LINE
8
SECTION
10
251.300000
20
137.037500
30
0.0
11
251.300000
21
135.537500
31
0.0
0
LINE
8
SECTION
10
251.300000
20
137.037500
30
0.0
11
249.000000
21
137.037500
31
0.0
0
LINE
8
SECTION
10
249.000000
20
137.037500
30
0.0
11
249.000000
21
139.037500
31
0.0
0
LINE
8
SECTION
10
247.900000
20
139.037500
30
0.0
11
249.000000
21
139.037500
31
0.0
0
LINE
8
SECTION
10
247.900000
20
139.037500
30
0.0
11
247.900000
21
141.987500
31
0.0
0
LINE
8
SECTION
10
247.900000
20
141.987500
30
0.0
11
248.800000
21
141.987500
31
0.0
0
LINE
8
SECTION
10
248.800000
20
140.037500
30
0.0
11
248.800000
21
141.987500
31
0.0
0
LINE
8
SECTION
10
248.800000
20
140.037500
30
0.0
11
250.300000
21
140.037500
31
0.0
0
LINE
8
SECTION
10
250.300000
20
139.537500
30
0.0
11
250.300000
21
140.037500
31
0.0
0
LINE
8
SECTION
10
250.300000
20
139.537500
30
0.0
11
253.300000
21
139.537500
31
0.0
0
ARC
8
SECTION
10
253.300000
20
137.537500
30
0.0
40
2.000000
50
0.000000
51
90.000000
0
LINE
8
SECTION
10
255.300000
20
137.537500
30
0.0
11
255.300000
21
130.287500
31
0.0
0
LINE
8
SECTION
10
252.800000
20
130.287500
30
0.0
11
255.300000
21
130.287500
31
0.0
0
LINE
8
SECTION
10
252.800000
20
130.287500
30
0.0
11
252.800000
21
128.887500
31
0.0
0
LINE
8
SECTION
10
250.500000
20
128.887500
30
0.0
11
252.800000
21
128.887500
31
0.0
0
LINE
8
SECTION
10
250.500000
20
130.037500
30
0.0
11
250.500000
21
128.887500
31
0.0
0
LINE
8
SECTION
10
252.300000
20
125.037500
30
0.0
11
252.300000
21
122.537500
31
0.0
0
LINE
8
SECTION
10
250.500000
20
125.037500
30
0.0
11
252.300000
21
125.037500
31
0.0
0
LINE
8
SECTION
10
250.500000
20
126.187500
30
0.0
11
250.500000
21
125.037500
31
0.0
0
LINE
8
SECTION
10
250.500000
20
126.187500
30
0.0
11
252.800000
21
126.187500
31
0.0
0
LINE
8
SECTION
10
252.800000
20
126.187500
30
0.0
11
252.800000
21
124.787500
31
0.0
0
LINE
8
SECTION
10
252.800000
20
124.787500
30
0.0
11
255.300000
21
124.787500
31
0.0
0
LINE
8
SECTION
10
255.300000
20
124.787500
30
0.0
11
255.300000
21
122.537500
31
0.0
0
LINE
8
SECTION
10
252.300000
20
122.537500
30
0.0
11
255.300000
21
122.537500
31
0.0
0
LINE
8
SECTION
10
229.500000
20
139.537500
30
0.0
11
231.300000
21
139.537500
31
0.0
0
LINE
8
SECTION
10
231.300000
20
139.537500
30
0.0
11
231.300000
21
140.037500
31
0.0
0
LINE
8
SECTION
10
231.300000
20
140.037500
30
0.0
11
232.800000
21
140.037500
31
0.0
0
LINE
8
SECTION
10
232.800000
20
140.037500
30
0.0
11
232.800000
21
141.987500
31
0.0
0
LINE
8
SECTION
10
232.800000
20
141.987500
30
0.0
11
233.700000
21
141.987500
31
0.0
0
LINE
8
SECTION
10
233.700000
20
139.037500
30
0.0
11
233.700000
21
141.987500
31
0.0
0
LINE
8
SECTION
10
232.600000
20
139.037500
30
0.0
11
233.700000
21
139.037500
31
0.0
0
LINE
8
SECTION
10
232.600000
20
137.037500
30
0.0
11
232.600000
21
139.037500
31
0.0
0
LINE
8
SECTION
10
232.600000
20
137.037500
30
0.0
11
229.500000
21
137.037500
31
0.0
0
LINE
8
SECTION
10
229.500000
20
137.037500
30
0.0
11
229.500000
21
139.537500
31
0.0
0
LINE
8
SECTION
10
237.000000
20
137.037500
30
0.0
11
237.000000
21
139.037500
31
0.0
0
LINE
8
SECTION
10
235.900000
20
139.037500
30
0.0
11
237.000000
21
139.037500
31
0.0
0
LINE
8
SECTION
10
235.900000
20
139.037500
30
0.0
11
235.900000
21
141.987500
31
0.0
0
LINE
8
SECTION
10
235.900000
20
141.987500
30
0.0
11
245.700000
21
141.987500
31
0.0
0
LINE
8
SECTION
10
245.700000
20
139.037500
30
0.0
11
245.700000
21
141.987500
31
0.0
0
LINE
8
SECTION
10
244.600000
20
139.037500
30
0.0
11
245.700000
21
139.037500
31
0.0
0
LINE
8
SECTION
10
244.600000
20
137.037500
30
0.0
11
244.600000
21
139.037500
31
0.0
0
LINE
8
SECTION
10
244.600000
20
137.037500
30
0.0
11
237.000000
21
137.037500
31
0.0
0
LINE
8
CENTER
10
86.575000
20
140.037500
30
0.0
11
88.841250
21
140.037500
31
0.0
0
LINE
8
CENTER
10
89.558750
20
140.037500
30
0.0
11
91.825000
21
140.037500
31
0.0
0
LINE
8
CENTER
10
89.200000
20
137.412500
30
0.0
11
89.200000
21
139.678750
31
0.0
0
LINE
8
CENTER
10
89.200000
20
140.396250
30
0.0
11
89.200000
21
142.662500
31
0.0
0
LINE
8
CENTER
10
104.575000
20
140.037500
30
0.0
11
106.841250
21
140.037500
31
0.0
0
LINE
8
CENTER
10
107.558750
20
140.037500
30
0.0
11
109.825000
21
140.037500
31
0.0
0
LINE
8
CENTER
10
107.200000
20
137.412500
30
0.0
11
107.200000
21
139.678750
31
0.0
0
LINE
8
CENTER
10
107.200000
20
140.396250
30
0.0
11
107.200000
21
142.662500
31
0.0
0
LINE
8
CENTER
10
86.180000
20
135.037500
30
0.0
11
89.353000
21
135.037500
31
0.0
0
LINE
8
CENTER
10
91.047000
20
135.037500
30
0.0
11
94.220000
21
135.037500
31
0.0
0
LINE
8
CENTER
10
90.200000
20
131.017500
30
0.0
11
90.200000
21
134.190500
31
0.0
0
LINE
8
CENTER
10
90.200000
20
135.884500
30
0.0
11
90.200000
21
139.057500
31
0.0
0
LINE
8
CENTER
10
102.180000
20
135.037500
30
0.0
11
105.353000
21
135.037500
31
0.0
0
LINE
8
CENTER
10
107.047000
20
135.037500
30
0.0
11
110.220000
21
135.037500
31
0.0
0
LINE
8
CENTER
10
106.200000
20
131.017500
30
0.0
11
106.200000
21
134.190500
31
0.0
0
LINE
8
CENTER
10
106.200000
20
135.884500
30
0.0
11
106.200000
21
139.057500
31
0.0
0
LINE
8
CENTER
10
93.850000
20
127.537500
30
0.0
11
97.237500
21
127.537500
31
0.0
0
LINE
8
CENTER
10
99.162500
20
127.537500
30
0.0
11
102.550000
21
127.537500
31
0.0
0
LINE
8
CENTER
10
98.200000
20
123.187500
30
0.0
11
98.200000
21
126.575000
31
0.0
0
LINE
8
CENTER
10
98.200000
20
128.500000
30
0.0
11
98.200000
21
131.887500
31
0.0
0
LINE
8
DIM
10
86.700000
20
121.337500
30
0.0
11
86.700000
21
99.537500
31
0.0
0
LINE
8
DIM
10
109.700000
20
121.337500
30
0.0
11
109.700000
21
99.537500
31
0.0
0
LINE
8
DIM
10
86.700000
20
101.537500
30
0.0
11
109.700000
21
101.537500
31
0.0
0
SOLID
8
DIM
10
86.700000
20
101.537500
30
0.0
11
89.900000
21
100.929500
31
0.0
12
89.900000
22
102.145500
32
0.0
13
89.900000
23
102.145500
33
0.0
0
SOLID
8
DIM
10
109.700000
20
101.537500
30
0.0
11
106.500000
21
102.145500
31
0.0
12
106.500000
22
100.929500
32
0.0
13
106.500000
23
100.929500
33
0.0
0
TEXT
8
TEXT
10
98.200000
20
102.537500
30
0.0
40
2.5000
1
23.00
72
1
73
0
11
98.200000
21
102.537500
31
0.0
0
LINE
8
DIM
10
85.500000
20
122.537500
30
0.0
11
63.700000
21
122.537500
31
0.0
0
LINE
8
DIM
10
85.500000
20
143.037500
30
0.0
11
63.700000
21
143.037500
31
0.0
0
LINE
8
DIM
10
65.700000
20
122.537500
30
0.0
11
65.700000
21
143.037500
31
0.0
0
SOLID
8
DIM
10
65.700000
20
122.537500
30
0.0
11
66.308000
21
125.737500
31
0.0
12
65.092000
22
125.737500
32
0.0
13
65.092000
23
125.737500
33
0.0
0
SOLID
8
DIM
10
65.700000
20
143.037500
30
0.0
11
65.092000
21
139.837500
31
0.0
12
66.308000
22
139.837500
32
0.0
13
66.308000
23
139.837500
33
0.0
0
TEXT
8
TEXT
10
64.700000
20
132.787500
30
0.0
40
2.5000
1
20.50
50
90.0000
72
1
73
0
11
64.700000
21
132.787500
31
0.0
0
SOLID
8
DIM
10
89.831053
20
140.845211
30
0.0
11
92.280280
21
142.992523
31
0.0
12
91.322059
22
143.741168
32
0.0
13
91.322059
23
143.741168
33
0.0
0
LINE
8
DIM
10
89.831053
20
140.845211
30
0.0
11
97.012856
21
150.037500
31
0.0
0
LINE
8
DIM
10
97.012856
20
150.037500
30
0.0
11
102.012856
21
150.037500
31
0.0
0
TEXT
8
TEXT
10
102.812856
20
151.037500
30
0.0
40
2.5000
1
2x Ø2.05 x 4.00 DP
0
SOLID
8
DIM
10
91.689901
20
136.944486
30
0.0
11
94.139128
21
139.091798
31
0.0
12
93.180907
22
139.840443
32
0.0
13
93.180907
23
139.840443
33
0.0
0
LINE
8
DIM
10
91.689901
20
136.944486
30
0.0
11
106.704659
21
156.162500
31
0.0
0
LINE
8
DIM
10
106.704659
20
156.162500
30
0.0
11
111.704659
21
156.162500
31
0.0
0
TEXT
8
TEXT
10
112.504659
20
160.787500
30
0.0
40
2.5000
1
2x Ø2.40 THRU
0
TEXT
8
TEXT
10
112.504659
20
157.162500
30
0.0
40
2.5000
1
C'BORE Ø4.84x2.20 -Y
0
SOLID
8
DIM
10
99.893069
20
129.704530
30
0.0
11
102.342296
21
131.851842
31
0.0
12
101.384075
22
132.600486
32
0.0
13
101.384075
23
132.600486
33
0.0
0
LINE
8
DIM
10
99.893069
20
129.704530
30
0.0
11
128.181836
21
165.912500
31
0.0
0
LINE
8
DIM
10
128.181836
20
165.912500
30
0.0
11
133.181836
21
165.912500
31
0.0
0
TEXT
8
TEXT
10
133.981836
20
170.537500
30
0.0
40
2.5000
1
Ø2.70 THRU
0
TEXT
8
TEXT
10
133.981836
20
166.912500
30
0.0
40
2.5000
1
C'BORE Ø5.50x2.50 -Y
0
LINE
8
DIM
10
107.200000
20
138.837500
30
0.0
11
107.200000
21
92.537500
31
0.0
0
LINE
8
DIM
10
89.200000
20
138.837500
30
0.0
11
89.200000
21
92.537500
31
0.0
0
LINE
8
DIM
10
89.200000
20
94.537500
30
0.0
11
107.200000
21
94.537500
31
0.0
0
SOLID
8
DIM
10
89.200000
20
94.537500
30
0.0
11
92.400000
21
93.929500
31
0.0
12
92.400000
22
95.145500
32
0.0
13
92.400000
23
95.145500
33
0.0
0
SOLID
8
DIM
10
107.200000
20
94.537500
30
0.0
11
104.000000
21
95.145500
31
0.0
12
104.000000
22
93.929500
32
0.0
13
104.000000
23
93.929500
33
0.0
0
TEXT
8
TEXT
10
98.200000
20
95.537500
30
0.0
40
2.5000
1
18.00
72
1
73
0
11
98.200000
21
95.537500
31
0.0
0
TEXT
8
TEXT
10
98.200000
20
82.537500
30
0.0
40
4.0000
1
FRONT VIEW
72
1
73
0
11
98.200000
21
82.537500
31
0.0
0
LINE
8
TEXT
10
86.200000
20
80.937500
30
0.0
11
110.200000
21
80.937500
31
0.0
0
TEXT
8
TEXT
10
98.200000
20
76.537500
30
0.0
40
2.4000
1
-X →   Z ↑
72
1
73
0
11
98.200000
21
76.537500
31
0.0
0
LINE
8
CENTER
10
94.400000
20
227.962500
30
0.0
11
97.430000
21
227.962500
31
0.0
0
LINE
8
CENTER
10
98.970000
20
227.962500
30
0.0
11
102.000000
21
227.962500
31
0.0
0
LINE
8
CENTER
10
98.200000
20
224.162500
30
0.0
11
98.200000
21
227.192500
31
0.0
0
LINE
8
CENTER
10
98.200000
20
228.732500
30
0.0
11
98.200000
21
231.762500
31
0.0
0
LINE
8
CENTER
10
88.400000
20
221.962500
30
0.0
11
91.430000
21
221.962500
31
0.0
0
LINE
8
CENTER
10
92.970000
20
221.962500
30
0.0
11
96.000000
21
221.962500
31
0.0
0
LINE
8
CENTER
10
92.200000
20
218.162500
30
0.0
11
92.200000
21
221.192500
31
0.0
0
LINE
8
CENTER
10
92.200000
20
222.732500
30
0.0
11
92.200000
21
225.762500
31
0.0
0
LINE
8
CENTER
10
100.400000
20
221.962500
30
0.0
11
103.430000
21
221.962500
31
0.0
0
LINE
8
CENTER
10
104.970000
20
221.962500
30
0.0
11
108.000000
21
221.962500
31
0.0
0
LINE
8
CENTER
10
104.200000
20
218.162500
30
0.0
11
104.200000
21
221.192500
31
0.0
0
LINE
8
CENTER
10
104.200000
20
222.732500
30
0.0
11
104.200000
21
225.762500
31
0.0
0
LINE
8
CENTER
10
94.400000
20
215.962500
30
0.0
11
97.430000
21
215.962500
31
0.0
0
LINE
8
CENTER
10
98.970000
20
215.962500
30
0.0
11
102.000000
21
215.962500
31
0.0
0
LINE
8
CENTER
10
98.200000
20
212.162500
30
0.0
11
98.200000
21
215.192500
31
0.0
0
LINE
8
CENTER
10
98.200000
20
216.732500
30
0.0
11
98.200000
21
219.762500
31
0.0
0
LINE
8
DIM
10
86.700000
20
209.462500
30
0.0
11
86.700000
21
196.662500
31
0.0
0
LINE
8
DIM
10
109.700000
20
209.462500
30
0.0
11
109.700000
21
196.662500
31
0.0
0
LINE
8
DIM
10
86.700000
20
198.662500
30
0.0
11
109.700000
21
198.662500
31
0.0
0
SOLID
8
DIM
10
86.700000
20
198.662500
30
0.0
11
89.900000
21
198.054500
31
0.0
12
89.900000
22
199.270500
32
0.0
13
89.900000
23
199.270500
33
0.0
0
SOLID
8
DIM
10
109.700000
20
198.662500
30
0.0
11
106.500000
21
199.270500
31
0.0
12
106.500000
22
198.054500
32
0.0
13
106.500000
23
198.054500
33
0.0
0
TEXT
8
TEXT
10
98.200000
20
199.662500
30
0.0
40
2.5000
1
23.00
72
1
73
0
11
98.200000
21
199.662500
31
0.0
0
LINE
8
DIM
10
85.500000
20
210.662500
30
0.0
11
72.700000
21
210.662500
31
0.0
0
LINE
8
DIM
10
85.500000
20
236.462500
30
0.0
11
72.700000
21
236.462500
31
0.0
0
LINE
8
DIM
10
74.700000
20
210.662500
30
0.0
11
74.700000
21
236.462500
31
0.0
0
SOLID
8
DIM
10
74.700000
20
210.662500
30
0.0
11
75.308000
21
213.862500
31
0.0
12
74.092000
22
213.862500
32
0.0
13
74.092000
23
213.862500
33
0.0
0
SOLID
8
DIM
10
74.700000
20
236.462500
30
0.0
11
74.092000
21
233.262500
31
0.0
12
75.308000
22
233.262500
32
0.0
13
75.308000
23
233.262500
33
0.0
0
TEXT
8
TEXT
10
73.700000
20
223.562500
30
0.0
40
2.5000
1
25.80
50
90.0000
72
1
73
0
11
73.700000
21
223.562500
31
0.0
0
LINE
8
DIM
10
86.700000
20
211.862500
30
0.0
11
86.700000
21
245.462500
31
0.0
0
LINE
8
DIM
10
92.200000
20
211.862500
30
0.0
11
92.200000
21
245.462500
31
0.0
0
LINE
8
DIM
10
86.700000
20
243.462500
30
0.0
11
92.200000
21
243.462500
31
0.0
0
SOLID
8
DIM
10
86.700000
20
243.462500
30
0.0
11
83.500000
21
244.070500
31
0.0
12
83.500000
22
242.854500
32
0.0
13
83.500000
23
242.854500
33
0.0
0
SOLID
8
DIM
10
92.200000
20
243.462500
30
0.0
11
95.400000
21
242.854500
31
0.0
12
95.400000
22
244.070500
32
0.0
13
95.400000
23
244.070500
33
0.0
0
LINE
8
DIM
10
92.200000
20
243.462500
30
0.0
11
101.800000
21
243.462500
31
0.0
0
TEXT
8
TEXT
10
102.600000
20
243.862500
30
0.0
40
2.5000
1
5.50
0
LINE
8
DIM
10
87.900000
20
210.662500
30
0.0
11
119.700000
21
210.662500
31
0.0
0
LINE
8
DIM
10
87.900000
20
221.962500
30
0.0
11
119.700000
21
221.962500
31
0.0
0
LINE
8
DIM
10
117.700000
20
210.662500
30
0.0
11
117.700000
21
221.962500
31
0.0
0
SOLID
8
DIM
10
117.700000
20
210.662500
30
0.0
11
117.092000
21
207.462500
31
0.0
12
118.308000
22
207.462500
32
0.0
13
118.308000
23
207.462500
33
0.0
0
SOLID
8
DIM
10
117.700000
20
221.962500
30
0.0
11
118.308000
21
225.162500
31
0.0
12
117.092000
22
225.162500
32
0.0
13
117.092000
23
225.162500
33
0.0
0
LINE
8
DIM
10
117.700000
20
221.962500
30
0.0
11
117.700000
21
231.562500
31
0.0
0
TEXT
8
TEXT
10
116.700000
20
232.362500
30
0.0
40
2.5000
1
11.30
50
90.0000
0
LINE
8
DIM
10
86.700000
20
211.862500
30
0.0
11
86.700000
21
251.962500
31
0.0
0
LINE
8
DIM
10
98.200000
20
211.862500
30
0.0
11
98.200000
21
251.962500
31
0.0
0
LINE
8
DIM
10
86.700000
20
249.962500
30
0.0
11
98.200000
21
249.962500
31
0.0
0
SOLID
8
DIM
10
86.700000
20
249.962500
30
0.0
11
83.500000
21
250.570500
31
0.0
12
83.500000
22
249.354500
32
0.0
13
83.500000
23
249.354500
33
0.0
0
SOLID
8
DIM
10
98.200000
20
249.962500
30
0.0
11
101.400000
21
249.354500
31
0.0
12
101.400000
22
250.570500
32
0.0
13
101.400000
23
250.570500
33
0.0
0
LINE
8
DIM
10
98.200000
20
249.962500
30
0.0
11
107.800000
21
249.962500
31
0.0
0
TEXT
8
TEXT
10
108.600000
20
250.362500
30
0.0
40
2.5000
1
11.50
0
LINE
8
DIM
10
87.900000
20
210.662500
30
0.0
11
126.200000
21
210.662500
31
0.0
0
LINE
8
DIM
10
87.900000
20
227.962500
30
0.0
11
126.200000
21
227.962500
31
0.0
0
LINE
8
DIM
10
124.200000
20
210.662500
30
0.0
11
124.200000
21
227.962500
31
0.0
0
SOLID
8
DIM
10
124.200000
20
210.662500
30
0.0
11
124.808000
21
213.862500
31
0.0
12
123.592000
22
213.862500
32
0.0
13
123.592000
23
213.862500
33
0.0
0
SOLID
8
DIM
10
124.200000
20
227.962500
30
0.0
11
123.592000
21
224.762500
31
0.0
12
124.808000
22
224.762500
32
0.0
13
124.808000
23
224.762500
33
0.0
0
TEXT
8
TEXT
10
123.200000
20
219.312500
30
0.0
40
2.5000
1
17.30
50
90.0000
72
1
73
0
11
123.200000
21
219.312500
31
0.0
0
LINE
8
DIM
10
86.700000
20
211.862500
30
0.0
11
86.700000
21
258.462500
31
0.0
0
LINE
8
DIM
10
98.200000
20
211.862500
30
0.0
11
98.200000
21
258.462500
31
0.0
0
LINE
8
DIM
10
86.700000
20
256.462500
30
0.0
11
98.200000
21
256.462500
31
0.0
0
SOLID
8
DIM
10
86.700000
20
256.462500
30
0.0
11
83.500000
21
257.070500
31
0.0
12
83.500000
22
255.854500
32
0.0
13
83.500000
23
255.854500
33
0.0
0
SOLID
8
DIM
10
98.200000
20
256.462500
30
0.0
11
101.400000
21
255.854500
31
0.0
12
101.400000
22
257.070500
32
0.0
13
101.400000
23
257.070500
33
0.0
0
LINE
8
DIM
10
98.200000
20
256.462500
30
0.0
11
107.800000
21
256.462500
31
0.0
0
TEXT
8
TEXT
10
108.600000
20
256.862500
30
0.0
40
2.5000
1
11.50
0
LINE
8
DIM
10
87.900000
20
210.662500
30
0.0
11
132.700000
21
210.662500
31
0.0
0
LINE
8
DIM
10
87.900000
20
215.962500
30
0.0
11
132.700000
21
215.962500
31
0.0
0
LINE
8
DIM
10
130.700000
20
210.662500
30
0.0
11
130.700000
21
215.962500
31
0.0
0
SOLID
8
DIM
10
130.700000
20
210.662500
30
0.0
11
130.092000
21
207.462500
31
0.0
12
131.308000
22
207.462500
32
0.0
13
131.308000
23
207.462500
33
0.0
0
SOLID
8
DIM
10
130.700000
20
215.962500
30
0.0
11
131.308000
21
219.162500
31
0.0
12
130.092000
22
219.162500
32
0.0
13
130.092000
23
219.162500
33
0.0
0
LINE
8
DIM
10
130.700000
20
215.962500
30
0.0
11
130.700000
21
225.562500
31
0.0
0
TEXT
8
TEXT
10
129.700000
20
226.362500
30
0.0
40
2.5000
1
5.30
50
90.0000
0
LINE
8
DIM
10
86.700000
20
211.862500
30
0.0
11
86.700000
21
264.962500
31
0.0
0
LINE
8
DIM
10
104.200000
20
211.862500
30
0.0
11
104.200000
21
264.962500
31
0.0
0
LINE
8
DIM
10
86.700000
20
262.962500
30
0.0
11
104.200000
21
262.962500
31
0.0
0
SOLID
8
DIM
10
86.700000
20
262.962500
30
0.0
11
89.900000
21
262.354500
31
0.0
12
89.900000
22
263.570500
32
0.0
13
89.900000
23
263.570500
33
0.0
0
SOLID
8
DIM
10
104.200000
20
262.962500
30
0.0
11
101.000000
21
263.570500
31
0.0
12
101.000000
22
262.354500
32
0.0
13
101.000000
23
262.354500
33
0.0
0
TEXT
8
TEXT
10
95.450000
20
263.962500
30
0.0
40
2.5000
1
17.50
72
1
73
0
11
95.450000
21
263.962500
31
0.0
0
LINE
8
DIM
10
87.900000
20
210.662500
30
0.0
11
139.200000
21
210.662500
31
0.0
0
LINE
8
DIM
10
87.900000
20
221.962500
30
0.0
11
139.200000
21
221.962500
31
0.0
0
LINE
8
DIM
10
137.200000
20
210.662500
30
0.0
11
137.200000
21
221.962500
31
0.0
0
SOLID
8
DIM
10
137.200000
20
210.662500
30
0.0
11
136.592000
21
207.462500
31
0.0
12
137.808000
22
207.462500
32
0.0
13
137.808000
23
207.462500
33
0.0
0
SOLID
8
DIM
10
137.200000
20
221.962500
30
0.0
11
137.808000
21
225.162500
31
0.0
12
136.592000
22
225.162500
32
0.0
13
136.592000
23
225.162500
33
0.0
0
LINE
8
DIM
10
137.200000
20
221.962500
30
0.0
11
137.200000
21
231.562500
31
0.0
0
TEXT
8
TEXT
10
136.200000
20
232.362500
30
0.0
40
2.5000
1
11.30
50
90.0000
0
SOLID
8
DIM
10
99.554455
20
229.696124
30
0.0
11
102.003683
21
231.843436
31
0.0
12
101.045461
22
232.592080
32
0.0
13
101.045461
23
232.592080
33
0.0
0
LINE
8
DIM
10
99.554455
20
229.696124
30
0.0
11
132.967210
21
272.462500
31
0.0
0
LINE
8
DIM
10
132.967210
20
272.462500
30
0.0
11
137.967210
21
272.462500
31
0.0
0
TEXT
8
TEXT
10
138.767210
20
277.087500
30
0.0
40
2.5000
1
4x Ø2.20 THRU
0
TEXT
8
TEXT
10
138.767210
20
273.462500
30
0.0
40
2.5000
1
C'BORE Ø4.40x2.00 -Z
0
TEXT
8
TEXT
10
98.200000
20
186.662500
30
0.0
40
4.0000
1
TOP VIEW
72
1
73
0
11
98.200000
21
186.662500
31
0.0
0
LINE
8
TEXT
10
88.600000
20
185.062500
30
0.0
11
107.800000
21
185.062500
31
0.0
0
TEXT
8
TEXT
10
98.200000
20
180.662500
30
0.0
40
2.4000
1
X →   Y ↑
72
1
73
0
11
98.200000
21
180.662500
31
0.0
0
LINE
8
DIM
10
165.700000
20
121.337500
30
0.0
11
165.700000
21
108.537500
31
0.0
0
LINE
8
DIM
10
191.500000
20
121.337500
30
0.0
11
191.500000
21
108.537500
31
0.0
0
LINE
8
DIM
10
165.700000
20
110.537500
30
0.0
11
191.500000
21
110.537500
31
0.0
0
SOLID
8
DIM
10
165.700000
20
110.537500
30
0.0
11
168.900000
21
109.929500
31
0.0
12
168.900000
22
111.145500
32
0.0
13
168.900000
23
111.145500
33
0.0
0
SOLID
8
DIM
10
191.500000
20
110.537500
30
0.0
11
188.300000
21
111.145500
31
0.0
12
188.300000
22
109.929500
32
0.0
13
188.300000
23
109.929500
33
0.0
0
TEXT
8
TEXT
10
178.600000
20
111.537500
30
0.0
40
2.5000
1
25.80
72
1
73
0
11
178.600000
21
111.537500
31
0.0
0
LINE
8
DIM
10
164.500000
20
122.537500
30
0.0
11
151.700000
21
122.537500
31
0.0
0
LINE
8
DIM
10
164.500000
20
143.037500
30
0.0
11
151.700000
21
143.037500
31
0.0
0
LINE
8
DIM
10
153.700000
20
122.537500
30
0.0
11
153.700000
21
143.037500
31
0.0
0
SOLID
8
DIM
10
153.700000
20
122.537500
30
0.0
11
154.308000
21
125.737500
31
0.0
12
153.092000
22
125.737500
32
0.0
13
153.092000
23
125.737500
33
0.0
0
SOLID
8
DIM
10
153.700000
20
143.037500
30
0.0
11
153.092000
21
139.837500
31
0.0
12
154.308000
22
139.837500
32
0.0
13
154.308000
23
139.837500
33
0.0
0
TEXT
8
TEXT
10
152.700000
20
132.787500
30
0.0
40
2.5000
1
20.50
50
90.0000
72
1
73
0
11
152.700000
21
132.787500
31
0.0
0
TEXT
8
TEXT
10
178.600000
20
98.537500
30
0.0
40
4.0000
1
RIGHT VIEW
72
1
73
0
11
178.600000
21
98.537500
31
0.0
0
LINE
8
TEXT
10
166.600000
20
96.937500
30
0.0
11
190.600000
21
96.937500
31
0.0
0
TEXT
8
TEXT
10
178.600000
20
92.537500
30
0.0
40
2.4000
1
-Y →   Z ↑
72
1
73
0
11
178.600000
21
92.537500
31
0.0
0
LINE
8
DIM
10
229.500000
20
121.337500
30
0.0
11
229.500000
21
108.537500
31
0.0
0
LINE
8
DIM
10
255.300000
20
121.337500
30
0.0
11
255.300000
21
108.537500
31
0.0
0
LINE
8
DIM
10
229.500000
20
110.537500
30
0.0
11
255.300000
21
110.537500
31
0.0
0
SOLID
8
DIM
10
229.500000
20
110.537500
30
0.0
11
232.700000
21
109.929500
31
0.0
12
232.700000
22
111.145500
32
0.0
13
232.700000
23
111.145500
33
0.0
0
SOLID
8
DIM
10
255.300000
20
110.537500
30
0.0
11
252.100000
21
111.145500
31
0.0
12
252.100000
22
109.929500
32
0.0
13
252.100000
23
109.929500
33
0.0
0
TEXT
8
TEXT
10
242.400000
20
111.537500
30
0.0
40
2.5000
1
25.80
72
1
73
0
11
242.400000
21
111.537500
31
0.0
0
LINE
8
DIM
10
228.300000
20
122.537500
30
0.0
11
215.500000
21
122.537500
31
0.0
0
LINE
8
DIM
10
228.300000
20
143.037500
30
0.0
11
215.500000
21
143.037500
31
0.0
0
LINE
8
DIM
10
217.500000
20
122.537500
30
0.0
11
217.500000
21
143.037500
31
0.0
0
SOLID
8
DIM
10
217.500000
20
122.537500
30
0.0
11
218.108000
21
125.737500
31
0.0
12
216.892000
22
125.737500
32
0.0
13
216.892000
23
125.737500
33
0.0
0
SOLID
8
DIM
10
217.500000
20
143.037500
30
0.0
11
216.892000
21
139.837500
31
0.0
12
218.108000
22
139.837500
32
0.0
13
218.108000
23
139.837500
33
0.0
0
TEXT
8
TEXT
10
216.500000
20
132.787500
30
0.0
40
2.5000
1
20.50
50
90.0000
72
1
73
0
11
216.500000
21
132.787500
31
0.0
0
LINE
8
HATCH
10
255.299999
20
130.287500
30
0.0
11
255.300000
21
130.287501
31
0.0
0
LINE
8
HATCH
10
250.500000
20
129.730142
30
0.0
11
250.807358
21
130.037500
31
0.0
0
LINE
8
HATCH
10
252.300000
20
131.530142
30
0.0
11
255.300000
21
134.530142
31
0.0
0
LINE
8
HATCH
10
252.064717
20
135.537500
30
0.0
11
255.041996
21
138.514779
31
0.0
0
LINE
8
HATCH
10
249.322077
20
137.037500
30
0.0
11
251.822077
21
139.537500
31
0.0
0
LINE
8
HATCH
10
247.900000
20
139.858064
30
0.0
11
248.800000
21
140.758064
31
0.0
0
LINE
8
HATCH
10
255.299999
20
122.537500
30
0.0
11
255.300000
21
122.537501
31
0.0
0
LINE
8
HATCH
10
252.300000
20
123.780142
30
0.0
11
253.307358
21
124.787500
31
0.0
0
LINE
8
HATCH
10
232.599999
20
137.037500
30
0.0
11
232.600000
21
137.037501
31
0.0
0
LINE
8
HATCH
10
229.500000
20
138.180142
30
0.0
11
230.857358
21
139.537500
31
0.0
0
LINE
8
HATCH
10
231.300000
20
139.980142
30
0.0
11
231.357358
21
140.037500
31
0.0
0
LINE
8
HATCH
10
232.800000
20
141.480142
30
0.0
11
233.307358
21
141.987500
31
0.0
0
LINE
8
HATCH
10
244.599999
20
137.037500
30
0.0
11
244.600000
21
137.037501
31
0.0
0
LINE
8
HATCH
10
240.357358
20
137.037500
30
0.0
11
245.307358
21
141.987500
31
0.0
0
LINE
8
HATCH
10
237.000000
20
137.922783
30
0.0
11
241.064717
21
141.987500
31
0.0
0
LINE
8
HATCH
10
235.900000
20
141.065423
30
0.0
11
236.822077
21
141.987500
31
0.0
0
LINE
8
DIM
10
252.300000
20
126.006667
30
0.0
11
252.300000
21
152.037500
31
0.0
0
LINE
8
DIM
10
252.800000
20
126.006667
30
0.0
11
252.800000
21
152.037500
31
0.0
0
LINE
8
DIM
10
252.300000
20
150.037500
30
0.0
11
252.800000
21
150.037500
31
0.0
0
SOLID
8
DIM
10
252.300000
20
150.037500
30
0.0
11
249.100000
21
150.645500
31
0.0
12
249.100000
22
149.429500
32
0.0
13
249.100000
23
149.429500
33
0.0
0
SOLID
8
DIM
10
252.800000
20
150.037500
30
0.0
11
256.000000
21
149.429500
31
0.0
12
256.000000
22
150.645500
32
0.0
13
256.000000
23
150.645500
33
0.0
0
LINE
8
DIM
10
252.800000
20
150.037500
30
0.0
11
262.400000
21
150.037500
31
0.0
0
TEXT
8
TEXT
10
263.200000
20
150.437500
30
0.0
40
2.5000
1
0.50 WALL
0
LINE
8
DIM
10
250.157499
20
139.037500
30
0.0
11
290.300000
21
139.037500
31
0.0
0
LINE
8
DIM
10
250.157499
20
140.037500
30
0.0
11
290.300000
21
140.037500
31
0.0
0
LINE
8
DIM
10
288.300000
20
139.037500
30
0.0
11
288.300000
21
140.037500
31
0.0
0
SOLID
8
DIM
10
288.300000
20
139.037500
30
0.0
11
287.692000
21
135.837500
31
0.0
12
288.908000
22
135.837500
32
0.0
13
288.908000
23
135.837500
33
0.0
0
SOLID
8
DIM
10
288.300000
20
140.037500
30
0.0
11
288.908000
21
143.237500
31
0.0
12
287.692000
22
143.237500
32
0.0
13
287.692000
23
143.237500
33
0.0
0
LINE
8
DIM
10
288.300000
20
140.037500
30
0.0
11
288.300000
21
149.637500
31
0.0
0
TEXT
8
TEXT
10
287.300000
20
150.437500
30
0.0
40
2.5000
1
1.00 WALL
50
90.0000
0
TEXT
8
TEXT
10
242.400000
20
98.537500
30
0.0
40
4.0000
1
SECTION A-A
72
1
73
0
11
242.400000
21
98.537500
31
0.0
0
LINE
8
TEXT
10
229.200000
20
96.937500
30
0.0
11
255.600000
21
96.937500
31
0.0
0
LINE
8
CUT
10
98.200000
20
113.537500
30
0.0
11
98.200000
21
124.317500
31
0.0
0
LINE
8
CUTTHIN
10
98.200000
20
124.317500
30
0.0
11
98.200000
21
141.257500
31
0.0
0
LINE
8
CUT
10
98.200000
20
141.257500
30
0.0
11
98.200000
21
152.037500
31
0.0
0
LINE
8
CUT
10
98.200000
20
113.537500
30
0.0
11
107.200000
21
113.537500
31
0.0
0
SOLID
8
CUT
10
107.200000
20
113.537500
30
0.0
11
103.000000
21
114.335500
31
0.0
12
103.000000
22
112.739500
32
0.0
13
103.000000
23
112.739500
33
0.0
0
TEXT
8
TEXT
10
93.200000
20
113.537500
30
0.0
40
4.0000
1
A
72
1
73
2
11
93.200000
21
113.537500
31
0.0
0
LINE
8
CUT
10
98.200000
20
152.037500
30
0.0
11
107.200000
21
152.037500
31
0.0
0
SOLID
8
CUT
10
107.200000
20
152.037500
30
0.0
11
103.000000
21
152.835500
31
0.0
12
103.000000
22
151.239500
32
0.0
13
103.000000
23
151.239500
33
0.0
0
TEXT
8
TEXT
10
93.200000
20
152.037500
30
0.0
40
4.0000
1
A
72
1
73
2
11
93.200000
21
152.037500
31
0.0
0
TEXT
8
TEXT
10
334.000000
20
276.500000
30
0.0
40
3.0000
1
HOLE TABLE — 5 POSITIONS
0
LINE
8
TITLE
10
334.000000
20
274.000000
30
0.0
11
403.120000
21
274.000000
31
0.0
0
TEXT
8
TITLE
10
335.500000
20
271.530000
30
0.0
40
2.2000
1
TAG
0
TEXT
8
TITLE
10
342.460000
20
271.530000
30
0.0
40
2.2000
1
SIZE
0
TEXT
8
TITLE
10
365.260000
20
271.530000
30
0.0
40
2.2000
1
X
0
TEXT
8
TITLE
10
374.860000
20
271.530000
30
0.0
40
2.2000
1
Z
0
TEXT
8
TITLE
10
384.460000
20
271.530000
30
0.0
40
2.2000
1
C'BORE
0
LINE
8
TITLE
10
334.000000
20
269.930000
30
0.0
11
403.120000
21
269.930000
31
0.0
0
TEXT
8
TEXT
10
335.500000
20
267.460000
30
0.0
40
2.2000
1
A1
0
TEXT
8
TEXT
10
342.460000
20
267.460000
30
0.0
40
2.2000
1
Ø2.05 x 4.00 DP
0
TEXT
8
TEXT
10
365.260000
20
267.460000
30
0.0
40
2.2000
1
26.50
0
TEXT
8
TEXT
10
374.860000
20
267.460000
30
0.0
40
2.2000
1
12.50
0
TEXT
8
TEXT
10
384.460000
20
267.460000
30
0.0
40
2.2000
1
-
0
TEXT
8
TEXT
10
335.500000
20
263.390000
30
0.0
40
2.2000
1
A2
0
TEXT
8
TEXT
10
342.460000
20
263.390000
30
0.0
40
2.2000
1
Ø2.05 x 4.00 DP
0
TEXT
8
TEXT
10
365.260000
20
263.390000
30
0.0
40
2.2000
1
8.50
0
TEXT
8
TEXT
10
374.860000
20
263.390000
30
0.0
40
2.2000
1
12.50
0
TEXT
8
TEXT
10
384.460000
20
263.390000
30
0.0
40
2.2000
1
-
0
TEXT
8
TEXT
10
335.500000
20
259.320000
30
0.0
40
2.2000
1
A3
0
TEXT
8
TEXT
10
342.460000
20
259.320000
30
0.0
40
2.2000
1
Ø2.40 THRU
0
TEXT
8
TEXT
10
365.260000
20
259.320000
30
0.0
40
2.2000
1
25.50
0
TEXT
8
TEXT
10
374.860000
20
259.320000
30
0.0
40
2.2000
1
7.50
0
TEXT
8
TEXT
10
384.460000
20
259.320000
30
0.0
40
2.2000
1
Ø4.84x2.20 -Y
0
TEXT
8
TEXT
10
335.500000
20
255.250000
30
0.0
40
2.2000
1
A4
0
TEXT
8
TEXT
10
342.460000
20
255.250000
30
0.0
40
2.2000
1
Ø2.40 THRU
0
TEXT
8
TEXT
10
365.260000
20
255.250000
30
0.0
40
2.2000
1
9.50
0
TEXT
8
TEXT
10
374.860000
20
255.250000
30
0.0
40
2.2000
1
7.50
0
TEXT
8
TEXT
10
384.460000
20
255.250000
30
0.0
40
2.2000
1
Ø4.84x2.20 -Y
0
TEXT
8
TEXT
10
335.500000
20
251.180000
30
0.0
40
2.2000
1
A5
0
TEXT
8
TEXT
10
342.460000
20
251.180000
30
0.0
40
2.2000
1
Ø2.70 THRU
0
TEXT
8
TEXT
10
365.260000
20
251.180000
30
0.0
40
2.2000
1
17.50
0
TEXT
8
TEXT
10
374.860000
20
251.180000
30
0.0
40
2.2000
1
0.00
0
TEXT
8
TEXT
10
384.460000
20
251.180000
30
0.0
40
2.2000
1
Ø5.50x2.50 -Y
0
LINE
8
TITLE
10
334.000000
20
249.580000
30
0.0
11
403.120000
21
249.580000
31
0.0
0
LINE
8
TITLE
10
340.960000
20
249.580000
30
0.0
11
340.960000
21
274.000000
31
0.0
0
LINE
8
TITLE
10
363.760000
20
249.580000
30
0.0
11
363.760000
21
274.000000
31
0.0
0
LINE
8
TITLE
10
373.360000
20
249.580000
30
0.0
11
373.360000
21
274.000000
31
0.0
0
LINE
8
TITLE
10
382.960000
20
249.580000
30
0.0
11
382.960000
21
274.000000
31
0.0
0
LINE
8
TITLE
10
403.120000
20
249.580000
30
0.0
11
403.120000
21
274.000000
31
0.0
0
LINE
8
TITLE
10
334.000000
20
249.580000
30
0.0
11
334.000000
21
274.000000
31
0.0
0
TEXT
8
TITLE
10
334.000000
20
245.580000
30
0.0
40
2.0400
1
every row measured off the solid; positions are model
0
TEXT
8
TITLE
10
334.000000
20
242.520000
30
0.0
40
2.0400
1
coordinates, mm. C'BORE side is the face it opens on.
0
TEXT
8
TEXT
10
334.000000
20
232.460000
30
0.0
40
3.0000
1
NOTES
0
TEXT
8
TEXT
10
334.000000
20
227.860000
30
0.0
40
2.4000
1
1. ALL DIMENSIONS IN mm AND DEGREES. EVERY
0
TEXT
8
TEXT
10
334.000000
20
224.140000
30
0.0
40
2.4000
1
   DIMENSION AND EVERY HOLE CALLOUT WAS MEASURED
0
TEXT
8
TEXT
10
334.000000
20
220.420000
30
0.0
40
2.4000
1
   OFF THE SOLID.
0
TEXT
8
TEXT
10
334.000000
20
216.700000
30
0.0
40
2.4000
1
2. GENERAL TOLERANCE: CANNOT DETERMINE — THIS PART
0
TEXT
8
TEXT
10
334.000000
20
212.980000
30
0.0
40
2.4000
1
   DECLARES NO PROCESS THIS REPO CAN READ.
0
TEXT
8
TEXT
10
334.000000
20
209.260000
30
0.0
40
2.4000
1
3. SECTION A-A AT X=17.50: THINNEST MATERIAL FOUND
0
TEXT
8
TEXT
10
334.000000
20
205.540000
30
0.0
40
2.4000
1
   BY SCAN 0.50 mm, AT Y=9.75, Z=-2.73.
0
LINE
8
FRAME
10
224.000000
20
10.000000
30
0.0
11
410.000000
21
10.000000
31
0.0
0
LINE
8
FRAME
10
410.000000
20
10.000000
30
0.0
11
410.000000
21
66.000000
31
0.0
0
LINE
8
FRAME
10
410.000000
20
66.000000
30
0.0
11
224.000000
21
66.000000
31
0.0
0
LINE
8
FRAME
10
224.000000
20
66.000000
30
0.0
11
224.000000
21
10.000000
31
0.0
0
LINE
8
TITLE
10
224.000000
20
53.000000
30
0.0
11
410.000000
21
53.000000
31
0.0
0
LINE
8
TITLE
10
224.000000
20
19.000000
30
0.0
11
410.000000
21
19.000000
31
0.0
0
LINE
8
TITLE
10
224.000000
20
27.500000
30
0.0
11
410.000000
21
27.500000
31
0.0
0
LINE
8
TITLE
10
224.000000
20
36.000000
30
0.0
11
410.000000
21
36.000000
31
0.0
0
LINE
8
TITLE
10
224.000000
20
44.500000
30
0.0
11
410.000000
21
44.500000
31
0.0
0
TEXT
8
TEXT
10
226.500000
20
59.500000
30
0.0
40
6.0000
1
MICRODUCK-YAW2ROLL
72
0
73
2
11
226.500000
21
59.500000
31
0.0
0
LINE
8
TITLE
10
390.000000
20
53.000000
30
0.0
11
390.000000
21
66.000000
31
0.0
0
TEXT
8
TITLE
10
400.000000
20
63.600000
30
0.0
40
1.7000
1
REV
72
1
73
0
11
400.000000
21
63.600000
31
0.0
0
TEXT
8
TEXT
10
400.000000
20
55.000000
30
0.0
40
5.2000
1
A
72
1
73
0
11
400.000000
21
55.000000
31
0.0
0
LINE
8
TITLE
10
360.000000
20
53.000000
30
0.0
11
360.000000
21
66.000000
31
0.0
0
CIRCLE
8
TITLE
10
366.500000
20
59.500000
30
0.0
40
3.500000
0
CIRCLE
8
TITLE
10
366.500000
20
59.500000
30
0.0
40
1.960000
0
LINE
8
TITLE
10
376.300000
20
56.000000
30
0.0
11
376.300000
21
63.000000
31
0.0
0
LINE
8
TITLE
10
376.300000
20
63.000000
30
0.0
11
382.250000
21
61.460000
31
0.0
0
LINE
8
TITLE
10
382.250000
20
61.460000
30
0.0
11
382.250000
21
57.540000
31
0.0
0
LINE
8
TITLE
10
382.250000
20
57.540000
30
0.0
11
376.300000
21
56.000000
31
0.0
0
LINE
8
CENTER
10
361.500000
20
59.500000
30
0.0
11
383.750000
21
59.500000
31
0.0
0
LINE
8
TITLE
10
288.000000
20
19.000000
30
0.0
11
288.000000
21
53.000000
31
0.0
0
LINE
8
TITLE
10
352.000000
20
19.000000
30
0.0
11
352.000000
21
53.000000
31
0.0
0
TEXT
8
TITLE
10
225.600000
20
50.600000
30
0.0
40
1.7000
1
MATERIAL
0
TEXT
8
TEXT
10
225.600000
20
45.900000
30
0.0
40
2.5000
1
PLA
0
TEXT
8
TITLE
10
289.600000
20
50.600000
30
0.0
40
1.7000
1
PROCESS
0
TEXT
8
TEXT
10
289.600000
20
45.900000
30
0.0
40
2.5000
1
-
0
TEXT
8
TITLE
10
353.600000
20
50.600000
30
0.0
40
1.7000
1
SCALE
0
TEXT
8
TEXT
10
353.600000
20
45.900000
30
0.0
40
2.5000
1
1:1
0
TEXT
8
TITLE
10
225.600000
20
42.100000
30
0.0
40
1.7000
1
CATEGORY
0
TEXT
8
TEXT
10
225.600000
20
37.400000
30
0.0
40
2.5000
1
-
0
TEXT
8
TITLE
10
257.600000
20
42.100000
30
0.0
40
1.7000
1
GENERAL TOL
0
TEXT
8
TEXT
10
257.600000
20
37.400000
30
0.0
40
2.5000
1
SEE NOTES
0
LINE
8
TITLE
10
256.000000
20
36.000000
30
0.0
11
256.000000
21
44.500000
31
0.0
0
TEXT
8
TITLE
10
289.600000
20
42.100000
30
0.0
40
1.7000
1
FINISH
0
TEXT
8
TEXT
10
289.600000
20
37.400000
30
0.0
40
2.5000
1
AS PRINTED
0
TEXT
8
TITLE
10
353.600000
20
42.100000
30
0.0
40
1.7000
1
SHEET
0
TEXT
8
TEXT
10
353.600000
20
37.400000
30
0.0
40
2.5000
1
A3  1/1
0
TEXT
8
TITLE
10
225.600000
20
33.600000
30
0.0
40
1.7000
1
VOLUME (MEASURED)
0
TEXT
8
TEXT
10
225.600000
20
28.900000
30
0.0
40
2.5000
1
2.83 cm3
0
TEXT
8
TITLE
10
289.600000
20
33.600000
30
0.0
40
1.7000
1
MASS (ASSUMES PLA)
0
TEXT
8
TEXT
10
289.600000
20
28.900000
30
0.0
40
2.5000
1
3.5 g
0
TEXT
8
TITLE
10
353.600000
20
33.600000
30
0.0
40
1.7000
1
UNITS
0
TEXT
8
TEXT
10
353.600000
20
28.900000
30
0.0
40
2.5000
1
mm / deg
0
TEXT
8
TITLE
10
225.600000
20
25.100000
30
0.0
40
1.7000
1
SIZE (BBOX, MEASURED)
0
TEXT
8
TEXT
10
225.600000
20
20.400000
30
0.0
40
2.5000
1
23.00 x 25.80 x 20.50
0
TEXT
8
TITLE
10
289.600000
20
25.100000
30
0.0
40
1.7000
1
DRAWN
0
TEXT
8
TEXT
10
289.600000
20
20.400000
30
0.0
40
2.5000
1
ce-cad  2026-09-02
0
TEXT
8
TITLE
10
353.600000
20
25.100000
30
0.0
40
1.7000
1
PROJECTION
0
TEXT
8
TEXT
10
353.600000
20
20.400000
30
0.0
40
2.5000
1
THIRD ANGLE
0
TEXT
8
TITLE
10
225.600000
20
16.600000
30
0.0
40
1.7000
1
SOURCE (DESIGN FILE)
0
TEXT
8
TEXT
10
225.600000
20
11.400000
30
0.0
40
2.6000
1
ce-parts/microduck-yaw2roll/current/cad/part.py
0
TEXT
8
TEXT
10
12.500000
20
280.500000
30
0.0
40
4.2000
1
microduck-yaw2roll   SCALE 1:1   A3   THIRD ANGLE
0
ENDSEC
0
EOF
