ISO-10303-21;
HEADER;
FILE_DESCRIPTION(('FreeCAD Model'),'2;1');
FILE_NAME('Open CASCADE Shape Model','2026-09-04T23:07:45',('Author'),(
    ''),'Open CASCADE STEP processor 7.8','FreeCAD','Unknown');
FILE_SCHEMA(('AUTOMOTIVE_DESIGN { 1 0 10303 214 1 1 1 1 }'));
ENDSEC;
DATA;
#1 = APPLICATION_PROTOCOL_DEFINITION('international standard',
  'automotive_design',2000,#2);
#2 = APPLICATION_CONTEXT(
  'core data for automotive mechanical design processes');
#3 = SHAPE_DEFINITION_REPRESENTATION(#4,#10);
#4 = PRODUCT_DEFINITION_SHAPE('','',#5);
#5 = PRODUCT_DEFINITION('design','',#6,#9);
#6 = PRODUCT_DEFINITION_FORMATION('','',#7);
#7 = PRODUCT('loc_bat54w_sot_323_sc_70_bottom',
  'loc_bat54w_sot_323_sc_70_bottom','',(#8));
#8 = PRODUCT_CONTEXT('',#2,'mechanical');
#9 = PRODUCT_DEFINITION_CONTEXT('part definition',#2,'design');
#10 = ADVANCED_BREP_SHAPE_REPRESENTATION('',(#11,#15),#2148);
#11 = AXIS2_PLACEMENT_3D('',#12,#13,#14);
#12 = CARTESIAN_POINT('',(0.,0.,0.));
#13 = DIRECTION('',(0.,0.,1.));
#14 = DIRECTION('',(1.,0.,-0.));
#15 = MANIFOLD_SOLID_BREP('',#16);
#16 = CLOSED_SHELL('',(#17,#55,#118,#141,#170,#225,#248,#271,#294,#333,
    #350,#373,#461,#478,#508,#539,#570,#601,#624,#640,#663,#680,#711,
    #741,#758,#803,#857,#880,#903,#926,#965,#1003,#1088,#1132,#1224,
    #1249,#1333,#1350,#1435,#1452,#1537,#1562,#1639,#1656,#1675,#1721,
    #1737,#1753,#1770,#1787,#1804,#1821,#1838,#1855,#1872,#1884,#1896,
    #1913,#1930,#1947,#1964,#1981,#1998,#2015,#2027,#2044,#2061,#2078,
    #2095,#2112,#2129,#2141));
#17 = ADVANCED_FACE('',(#18),#50,.F.);
#18 = FACE_BOUND('',#19,.F.);
#19 = EDGE_LOOP('',(#20,#30,#37,#45));
#20 = ORIENTED_EDGE('',*,*,#21,.T.);
#21 = EDGE_CURVE('',#22,#24,#26,.T.);
#22 = VERTEX_POINT('',#23);
#23 = CARTESIAN_POINT('',(-0.55270593791,0.826352968955,0.1));
#24 = VERTEX_POINT('',#25);
#25 = CARTESIAN_POINT('',(-0.451352968955,0.92770593791,0.1));
#26 = LINE('',#27,#28);
#27 = CARTESIAN_POINT('',(-0.55270593791,0.826352968955,0.1));
#28 = VECTOR('',#29,1.);
#29 = DIRECTION('',(0.707106781187,0.707106781187,0.));
#30 = ORIENTED_EDGE('',*,*,#31,.T.);
#31 = EDGE_CURVE('',#24,#32,#34,.T.);
#32 = VERTEX_POINT('',#33);
#33 = CARTESIAN_POINT('',(-0.4875,1.,0.51));
#34 = B_SPLINE_CURVE_WITH_KNOTS('',1,(#35,#36),.UNSPECIFIED.,.F.,.F.,(2,
    2),(0.,1.),.PIECEWISE_BEZIER_KNOTS.);
#35 = CARTESIAN_POINT('',(-0.451352968955,0.92770593791,0.1));
#36 = CARTESIAN_POINT('',(-0.4875,1.,0.51));
#37 = ORIENTED_EDGE('',*,*,#38,.F.);
#38 = EDGE_CURVE('',#39,#32,#41,.T.);
#39 = VERTEX_POINT('',#40);
#40 = CARTESIAN_POINT('',(-0.625,0.8625,0.51));
#41 = LINE('',#42,#43);
#42 = CARTESIAN_POINT('',(-0.625,0.8625,0.51));
#43 = VECTOR('',#44,1.);
#44 = DIRECTION('',(0.707106781187,0.707106781187,0.));
#45 = ORIENTED_EDGE('',*,*,#46,.F.);
#46 = EDGE_CURVE('',#22,#39,#47,.T.);
#47 = B_SPLINE_CURVE_WITH_KNOTS('',1,(#48,#49),.UNSPECIFIED.,.F.,.F.,(2,
    2),(0.,1.),.PIECEWISE_BEZIER_KNOTS.);
#48 = CARTESIAN_POINT('',(-0.55270593791,0.826352968955,0.1));
#49 = CARTESIAN_POINT('',(-0.625,0.8625,0.51));
#50 = B_SPLINE_SURFACE_WITH_KNOTS('',1,1,(
    (#51,#52)
    ,(#53,#54
    )),.UNSPECIFIED.,.F.,.F.,.F.,(2,2),(2,2),(0.,0.194454364826),(0.,1.)
  ,.PIECEWISE_BEZIER_KNOTS.);
#51 = CARTESIAN_POINT('',(-0.55270593791,0.826352968955,0.1));
#52 = CARTESIAN_POINT('',(-0.625,0.8625,0.51));
#53 = CARTESIAN_POINT('',(-0.451352968955,0.92770593791,0.1));
#54 = CARTESIAN_POINT('',(-0.4875,1.,0.51));
#55 = ADVANCED_FACE('',(#56),#113,.F.);
#56 = FACE_BOUND('',#57,.T.);
#57 = EDGE_LOOP('',(#58,#59,#67,#75,#83,#91,#99,#107));
#58 = ORIENTED_EDGE('',*,*,#21,.T.);
#59 = ORIENTED_EDGE('',*,*,#60,.T.);
#60 = EDGE_CURVE('',#24,#61,#63,.T.);
#61 = VERTEX_POINT('',#62);
#62 = CARTESIAN_POINT('',(0.451352968955,0.92770593791,0.1));
#63 = LINE('',#64,#65);
#64 = CARTESIAN_POINT('',(-0.451352968955,0.92770593791,0.1));
#65 = VECTOR('',#66,1.);
#66 = DIRECTION('',(1.,0.,0.));
#67 = ORIENTED_EDGE('',*,*,#68,.T.);
#68 = EDGE_CURVE('',#61,#69,#71,.T.);
#69 = VERTEX_POINT('',#70);
#70 = CARTESIAN_POINT('',(0.55270593791,0.826352968955,0.1));
#71 = LINE('',#72,#73);
#72 = CARTESIAN_POINT('',(0.451352968955,0.92770593791,0.1));
#73 = VECTOR('',#74,1.);
#74 = DIRECTION('',(0.707106781187,-0.707106781187,0.));
#75 = ORIENTED_EDGE('',*,*,#76,.T.);
#76 = EDGE_CURVE('',#69,#77,#79,.T.);
#77 = VERTEX_POINT('',#78);
#78 = CARTESIAN_POINT('',(0.55270593791,-0.826352968955,0.1));
#79 = LINE('',#80,#81);
#80 = CARTESIAN_POINT('',(0.55270593791,0.826352968955,0.1));
#81 = VECTOR('',#82,1.);
#82 = DIRECTION('',(0.,-1.,0.));
#83 = ORIENTED_EDGE('',*,*,#84,.T.);
#84 = EDGE_CURVE('',#77,#85,#87,.T.);
#85 = VERTEX_POINT('',#86);
#86 = CARTESIAN_POINT('',(0.451352968955,-0.92770593791,0.1));
#87 = LINE('',#88,#89);
#88 = CARTESIAN_POINT('',(0.55270593791,-0.826352968955,0.1));
#89 = VECTOR('',#90,1.);
#90 = DIRECTION('',(-0.707106781187,-0.707106781187,0.));
#91 = ORIENTED_EDGE('',*,*,#92,.T.);
#92 = EDGE_CURVE('',#85,#93,#95,.T.);
#93 = VERTEX_POINT('',#94);
#94 = CARTESIAN_POINT('',(-0.451352968955,-0.92770593791,0.1));
#95 = LINE('',#96,#97);
#96 = CARTESIAN_POINT('',(0.451352968955,-0.92770593791,0.1));
#97 = VECTOR('',#98,1.);
#98 = DIRECTION('',(-1.,0.,0.));
#99 = ORIENTED_EDGE('',*,*,#100,.T.);
#100 = EDGE_CURVE('',#93,#101,#103,.T.);
#101 = VERTEX_POINT('',#102);
#102 = CARTESIAN_POINT('',(-0.55270593791,-0.826352968955,0.1));
#103 = LINE('',#104,#105);
#104 = CARTESIAN_POINT('',(-0.451352968955,-0.92770593791,0.1));
#105 = VECTOR('',#106,1.);
#106 = DIRECTION('',(-0.707106781187,0.707106781187,0.));
#107 = ORIENTED_EDGE('',*,*,#108,.T.);
#108 = EDGE_CURVE('',#101,#22,#109,.T.);
#109 = LINE('',#110,#111);
#110 = CARTESIAN_POINT('',(-0.55270593791,-0.826352968955,0.1));
#111 = VECTOR('',#112,1.);
#112 = DIRECTION('',(0.,1.,0.));
#113 = PLANE('',#114);
#114 = AXIS2_PLACEMENT_3D('',#115,#116,#117);
#115 = CARTESIAN_POINT('',(-0.55270593791,0.826352968955,0.1));
#116 = DIRECTION('',(-0.,0.,1.));
#117 = DIRECTION('',(0.496787623368,-0.867872143388,0.));
#118 = ADVANCED_FACE('',(#119),#136,.F.);
#119 = FACE_BOUND('',#120,.F.);
#120 = EDGE_LOOP('',(#121,#122,#129,#135));
#121 = ORIENTED_EDGE('',*,*,#60,.T.);
#122 = ORIENTED_EDGE('',*,*,#123,.T.);
#123 = EDGE_CURVE('',#61,#124,#126,.T.);
#124 = VERTEX_POINT('',#125);
#125 = CARTESIAN_POINT('',(0.4875,1.,0.51));
#126 = B_SPLINE_CURVE_WITH_KNOTS('',1,(#127,#128),.UNSPECIFIED.,.F.,.F.,
  (2,2),(0.,1.),.PIECEWISE_BEZIER_KNOTS.);
#127 = CARTESIAN_POINT('',(0.451352968955,0.92770593791,0.1));
#128 = CARTESIAN_POINT('',(0.4875,1.,0.51));
#129 = ORIENTED_EDGE('',*,*,#130,.F.);
#130 = EDGE_CURVE('',#32,#124,#131,.T.);
#131 = LINE('',#132,#133);
#132 = CARTESIAN_POINT('',(-0.4875,1.,0.51));
#133 = VECTOR('',#134,1.);
#134 = DIRECTION('',(1.,0.,0.));
#135 = ORIENTED_EDGE('',*,*,#31,.F.);
#136 = B_SPLINE_SURFACE_WITH_KNOTS('',1,1,(
    (#137,#138)
    ,(#139,#140
    )),.UNSPECIFIED.,.F.,.F.,.F.,(2,2),(2,2),(0.,0.975),(0.,1.),
  .PIECEWISE_BEZIER_KNOTS.);
#137 = CARTESIAN_POINT('',(-0.451352968955,0.92770593791,0.1));
#138 = CARTESIAN_POINT('',(-0.4875,1.,0.51));
#139 = CARTESIAN_POINT('',(0.451352968955,0.92770593791,0.1));
#140 = CARTESIAN_POINT('',(0.4875,1.,0.51));
#141 = ADVANCED_FACE('',(#142),#165,.F.);
#142 = FACE_BOUND('',#143,.F.);
#143 = EDGE_LOOP('',(#144,#145,#152,#160));
#144 = ORIENTED_EDGE('',*,*,#38,.T.);
#145 = ORIENTED_EDGE('',*,*,#146,.T.);
#146 = EDGE_CURVE('',#32,#147,#149,.T.);
#147 = VERTEX_POINT('',#148);
#148 = CARTESIAN_POINT('',(-0.4875,1.,0.69));
#149 = B_SPLINE_CURVE_WITH_KNOTS('',1,(#150,#151),.UNSPECIFIED.,.F.,.F.,
  (2,2),(0.,1.),.PIECEWISE_BEZIER_KNOTS.);
#150 = CARTESIAN_POINT('',(-0.4875,1.,0.51));
#151 = CARTESIAN_POINT('',(-0.4875,1.,0.69));
#152 = ORIENTED_EDGE('',*,*,#153,.F.);
#153 = EDGE_CURVE('',#154,#147,#156,.T.);
#154 = VERTEX_POINT('',#155);
#155 = CARTESIAN_POINT('',(-0.625,0.8625,0.69));
#156 = LINE('',#157,#158);
#157 = CARTESIAN_POINT('',(-0.625,0.8625,0.69));
#158 = VECTOR('',#159,1.);
#159 = DIRECTION('',(0.707106781187,0.707106781187,0.));
#160 = ORIENTED_EDGE('',*,*,#161,.F.);
#161 = EDGE_CURVE('',#39,#154,#162,.T.);
#162 = B_SPLINE_CURVE_WITH_KNOTS('',1,(#163,#164),.UNSPECIFIED.,.F.,.F.,
  (2,2),(0.,1.),.PIECEWISE_BEZIER_KNOTS.);
#163 = CARTESIAN_POINT('',(-0.625,0.8625,0.51));
#164 = CARTESIAN_POINT('',(-0.625,0.8625,0.69));
#165 = PLANE('',#166);
#166 = AXIS2_PLACEMENT_3D('',#167,#168,#169);
#167 = CARTESIAN_POINT('',(-0.625,0.8625,0.69));
#168 = DIRECTION('',(0.707106781187,-0.707106781187,0.));
#169 = DIRECTION('',(0.707106781187,0.707106781187,0.));
#170 = ADVANCED_FACE('',(#171),#220,.F.);
#171 = FACE_BOUND('',#172,.F.);
#172 = EDGE_LOOP('',(#173,#174,#175,#183,#191,#199,#207,#215));
#173 = ORIENTED_EDGE('',*,*,#108,.T.);
#174 = ORIENTED_EDGE('',*,*,#46,.T.);
#175 = ORIENTED_EDGE('',*,*,#176,.F.);
#176 = EDGE_CURVE('',#177,#39,#179,.T.);
#177 = VERTEX_POINT('',#178);
#178 = CARTESIAN_POINT('',(-0.625,0.8125,0.51));
#179 = LINE('',#180,#181);
#180 = CARTESIAN_POINT('',(-0.625,-0.8625,0.51));
#181 = VECTOR('',#182,1.);
#182 = DIRECTION('',(0.,1.,0.));
#183 = ORIENTED_EDGE('',*,*,#184,.F.);
#184 = EDGE_CURVE('',#185,#177,#187,.T.);
#185 = VERTEX_POINT('',#186);
#186 = CARTESIAN_POINT('',(-0.625,0.4875,0.51));
#187 = LINE('',#188,#189);
#188 = CARTESIAN_POINT('',(-0.625,-0.8625,0.51));
#189 = VECTOR('',#190,1.);
#190 = DIRECTION('',(0.,1.,0.));
#191 = ORIENTED_EDGE('',*,*,#192,.F.);
#192 = EDGE_CURVE('',#193,#185,#195,.T.);
#193 = VERTEX_POINT('',#194);
#194 = CARTESIAN_POINT('',(-0.625,-0.4875,0.51));
#195 = LINE('',#196,#197);
#196 = CARTESIAN_POINT('',(-0.625,-0.8625,0.51));
#197 = VECTOR('',#198,1.);
#198 = DIRECTION('',(0.,1.,0.));
#199 = ORIENTED_EDGE('',*,*,#200,.F.);
#200 = EDGE_CURVE('',#201,#193,#203,.T.);
#201 = VERTEX_POINT('',#202);
#202 = CARTESIAN_POINT('',(-0.625,-0.8125,0.51));
#203 = LINE('',#204,#205);
#204 = CARTESIAN_POINT('',(-0.625,-0.8625,0.51));
#205 = VECTOR('',#206,1.);
#206 = DIRECTION('',(0.,1.,0.));
#207 = ORIENTED_EDGE('',*,*,#208,.F.);
#208 = EDGE_CURVE('',#209,#201,#211,.T.);
#209 = VERTEX_POINT('',#210);
#210 = CARTESIAN_POINT('',(-0.625,-0.8625,0.51));
#211 = LINE('',#212,#213);
#212 = CARTESIAN_POINT('',(-0.625,-0.8625,0.51));
#213 = VECTOR('',#214,1.);
#214 = DIRECTION('',(0.,1.,0.));
#215 = ORIENTED_EDGE('',*,*,#216,.F.);
#216 = EDGE_CURVE('',#101,#209,#217,.T.);
#217 = B_SPLINE_CURVE_WITH_KNOTS('',1,(#218,#219),.UNSPECIFIED.,.F.,.F.,
  (2,2),(0.,1.),.PIECEWISE_BEZIER_KNOTS.);
#218 = CARTESIAN_POINT('',(-0.55270593791,-0.826352968955,0.1));
#219 = CARTESIAN_POINT('',(-0.625,-0.8625,0.51));
#220 = B_SPLINE_SURFACE_WITH_KNOTS('',1,1,(
    (#221,#222)
    ,(#223,#224
    )),.UNSPECIFIED.,.F.,.F.,.F.,(2,2),(2,2),(0.,1.725),(0.,1.),
  .PIECEWISE_BEZIER_KNOTS.);
#221 = CARTESIAN_POINT('',(-0.55270593791,-0.826352968955,0.1));
#222 = CARTESIAN_POINT('',(-0.625,-0.8625,0.51));
#223 = CARTESIAN_POINT('',(-0.55270593791,0.826352968955,0.1));
#224 = CARTESIAN_POINT('',(-0.625,0.8625,0.51));
#225 = ADVANCED_FACE('',(#226),#243,.F.);
#226 = FACE_BOUND('',#227,.F.);
#227 = EDGE_LOOP('',(#228,#229,#230,#238));
#228 = ORIENTED_EDGE('',*,*,#100,.T.);
#229 = ORIENTED_EDGE('',*,*,#216,.T.);
#230 = ORIENTED_EDGE('',*,*,#231,.F.);
#231 = EDGE_CURVE('',#232,#209,#234,.T.);
#232 = VERTEX_POINT('',#233);
#233 = CARTESIAN_POINT('',(-0.4875,-1.,0.51));
#234 = LINE('',#235,#236);
#235 = CARTESIAN_POINT('',(-0.4875,-1.,0.51));
#236 = VECTOR('',#237,1.);
#237 = DIRECTION('',(-0.707106781187,0.707106781187,0.));
#238 = ORIENTED_EDGE('',*,*,#239,.F.);
#239 = EDGE_CURVE('',#93,#232,#240,.T.);
#240 = B_SPLINE_CURVE_WITH_KNOTS('',1,(#241,#242),.UNSPECIFIED.,.F.,.F.,
  (2,2),(0.,1.),.PIECEWISE_BEZIER_KNOTS.);
#241 = CARTESIAN_POINT('',(-0.451352968955,-0.92770593791,0.1));
#242 = CARTESIAN_POINT('',(-0.4875,-1.,0.51));
#243 = B_SPLINE_SURFACE_WITH_KNOTS('',1,1,(
    (#244,#245)
    ,(#246,#247
    )),.UNSPECIFIED.,.F.,.F.,.F.,(2,2),(2,2),(0.,0.194454364826),(0.,1.)
  ,.PIECEWISE_BEZIER_KNOTS.);
#244 = CARTESIAN_POINT('',(-0.451352968955,-0.92770593791,0.1));
#245 = CARTESIAN_POINT('',(-0.4875,-1.,0.51));
#246 = CARTESIAN_POINT('',(-0.55270593791,-0.826352968955,0.1));
#247 = CARTESIAN_POINT('',(-0.625,-0.8625,0.51));
#248 = ADVANCED_FACE('',(#249),#266,.F.);
#249 = FACE_BOUND('',#250,.F.);
#250 = EDGE_LOOP('',(#251,#252,#259,#265));
#251 = ORIENTED_EDGE('',*,*,#68,.T.);
#252 = ORIENTED_EDGE('',*,*,#253,.T.);
#253 = EDGE_CURVE('',#69,#254,#256,.T.);
#254 = VERTEX_POINT('',#255);
#255 = CARTESIAN_POINT('',(0.625,0.8625,0.51));
#256 = B_SPLINE_CURVE_WITH_KNOTS('',1,(#257,#258),.UNSPECIFIED.,.F.,.F.,
  (2,2),(0.,1.),.PIECEWISE_BEZIER_KNOTS.);
#257 = CARTESIAN_POINT('',(0.55270593791,0.826352968955,0.1));
#258 = CARTESIAN_POINT('',(0.625,0.8625,0.51));
#259 = ORIENTED_EDGE('',*,*,#260,.F.);
#260 = EDGE_CURVE('',#124,#254,#261,.T.);
#261 = LINE('',#262,#263);
#262 = CARTESIAN_POINT('',(0.4875,1.,0.51));
#263 = VECTOR('',#264,1.);
#264 = DIRECTION('',(0.707106781187,-0.707106781187,0.));
#265 = ORIENTED_EDGE('',*,*,#123,.F.);
#266 = B_SPLINE_SURFACE_WITH_KNOTS('',1,1,(
    (#267,#268)
    ,(#269,#270
    )),.UNSPECIFIED.,.F.,.F.,.F.,(2,2),(2,2),(0.,0.194454364826),(0.,1.)
  ,.PIECEWISE_BEZIER_KNOTS.);
#267 = CARTESIAN_POINT('',(0.451352968955,0.92770593791,0.1));
#268 = CARTESIAN_POINT('',(0.4875,1.,0.51));
#269 = CARTESIAN_POINT('',(0.55270593791,0.826352968955,0.1));
#270 = CARTESIAN_POINT('',(0.625,0.8625,0.51));
#271 = ADVANCED_FACE('',(#272),#289,.F.);
#272 = FACE_BOUND('',#273,.F.);
#273 = EDGE_LOOP('',(#274,#275,#276,#284));
#274 = ORIENTED_EDGE('',*,*,#92,.T.);
#275 = ORIENTED_EDGE('',*,*,#239,.T.);
#276 = ORIENTED_EDGE('',*,*,#277,.F.);
#277 = EDGE_CURVE('',#278,#232,#280,.T.);
#278 = VERTEX_POINT('',#279);
#279 = CARTESIAN_POINT('',(0.4875,-1.,0.51));
#280 = LINE('',#281,#282);
#281 = CARTESIAN_POINT('',(0.4875,-1.,0.51));
#282 = VECTOR('',#283,1.);
#283 = DIRECTION('',(-1.,0.,0.));
#284 = ORIENTED_EDGE('',*,*,#285,.F.);
#285 = EDGE_CURVE('',#85,#278,#286,.T.);
#286 = B_SPLINE_CURVE_WITH_KNOTS('',1,(#287,#288),.UNSPECIFIED.,.F.,.F.,
  (2,2),(0.,1.),.PIECEWISE_BEZIER_KNOTS.);
#287 = CARTESIAN_POINT('',(0.451352968955,-0.92770593791,0.1));
#288 = CARTESIAN_POINT('',(0.4875,-1.,0.51));
#289 = B_SPLINE_SURFACE_WITH_KNOTS('',1,1,(
    (#290,#291)
    ,(#292,#293
    )),.UNSPECIFIED.,.F.,.F.,.F.,(2,2),(2,2),(0.,0.975),(0.,1.),
  .PIECEWISE_BEZIER_KNOTS.);
#290 = CARTESIAN_POINT('',(0.451352968955,-0.92770593791,0.1));
#291 = CARTESIAN_POINT('',(0.4875,-1.,0.51));
#292 = CARTESIAN_POINT('',(-0.451352968955,-0.92770593791,0.1));
#293 = CARTESIAN_POINT('',(-0.4875,-1.,0.51));
#294 = ADVANCED_FACE('',(#295),#328,.F.);
#295 = FACE_BOUND('',#296,.F.);
#296 = EDGE_LOOP('',(#297,#298,#305,#313,#321,#327));
#297 = ORIENTED_EDGE('',*,*,#76,.T.);
#298 = ORIENTED_EDGE('',*,*,#299,.T.);
#299 = EDGE_CURVE('',#77,#300,#302,.T.);
#300 = VERTEX_POINT('',#301);
#301 = CARTESIAN_POINT('',(0.625,-0.8625,0.51));
#302 = B_SPLINE_CURVE_WITH_KNOTS('',1,(#303,#304),.UNSPECIFIED.,.F.,.F.,
  (2,2),(0.,1.),.PIECEWISE_BEZIER_KNOTS.);
#303 = CARTESIAN_POINT('',(0.55270593791,-0.826352968955,0.1));
#304 = CARTESIAN_POINT('',(0.625,-0.8625,0.51));
#305 = ORIENTED_EDGE('',*,*,#306,.F.);
#306 = EDGE_CURVE('',#307,#300,#309,.T.);
#307 = VERTEX_POINT('',#308);
#308 = CARTESIAN_POINT('',(0.625,-0.1625,0.51));
#309 = LINE('',#310,#311);
#310 = CARTESIAN_POINT('',(0.625,0.8625,0.51));
#311 = VECTOR('',#312,1.);
#312 = DIRECTION('',(0.,-1.,0.));
#313 = ORIENTED_EDGE('',*,*,#314,.F.);
#314 = EDGE_CURVE('',#315,#307,#317,.T.);
#315 = VERTEX_POINT('',#316);
#316 = CARTESIAN_POINT('',(0.625,0.1625,0.51));
#317 = LINE('',#318,#319);
#318 = CARTESIAN_POINT('',(0.625,0.8625,0.51));
#319 = VECTOR('',#320,1.);
#320 = DIRECTION('',(0.,-1.,0.));
#321 = ORIENTED_EDGE('',*,*,#322,.F.);
#322 = EDGE_CURVE('',#254,#315,#323,.T.);
#323 = LINE('',#324,#325);
#324 = CARTESIAN_POINT('',(0.625,0.8625,0.51));
#325 = VECTOR('',#326,1.);
#326 = DIRECTION('',(0.,-1.,0.));
#327 = ORIENTED_EDGE('',*,*,#253,.F.);
#328 = B_SPLINE_SURFACE_WITH_KNOTS('',1,1,(
    (#329,#330)
    ,(#331,#332
    )),.UNSPECIFIED.,.F.,.F.,.F.,(2,2),(2,2),(0.,1.725),(0.,1.),
  .PIECEWISE_BEZIER_KNOTS.);
#329 = CARTESIAN_POINT('',(0.55270593791,0.826352968955,0.1));
#330 = CARTESIAN_POINT('',(0.625,0.8625,0.51));
#331 = CARTESIAN_POINT('',(0.55270593791,-0.826352968955,0.1));
#332 = CARTESIAN_POINT('',(0.625,-0.8625,0.51));
#333 = ADVANCED_FACE('',(#334),#345,.F.);
#334 = FACE_BOUND('',#335,.F.);
#335 = EDGE_LOOP('',(#336,#337,#338,#344));
#336 = ORIENTED_EDGE('',*,*,#84,.T.);
#337 = ORIENTED_EDGE('',*,*,#285,.T.);
#338 = ORIENTED_EDGE('',*,*,#339,.F.);
#339 = EDGE_CURVE('',#300,#278,#340,.T.);
#340 = LINE('',#341,#342);
#341 = CARTESIAN_POINT('',(0.625,-0.8625,0.51));
#342 = VECTOR('',#343,1.);
#343 = DIRECTION('',(-0.707106781187,-0.707106781187,0.));
#344 = ORIENTED_EDGE('',*,*,#299,.F.);
#345 = B_SPLINE_SURFACE_WITH_KNOTS('',1,1,(
    (#346,#347)
    ,(#348,#349
    )),.UNSPECIFIED.,.F.,.F.,.F.,(2,2),(2,2),(0.,0.194454364826),(0.,1.)
  ,.PIECEWISE_BEZIER_KNOTS.);
#346 = CARTESIAN_POINT('',(0.55270593791,-0.826352968955,0.1));
#347 = CARTESIAN_POINT('',(0.625,-0.8625,0.51));
#348 = CARTESIAN_POINT('',(0.451352968955,-0.92770593791,0.1));
#349 = CARTESIAN_POINT('',(0.4875,-1.,0.51));
#350 = ADVANCED_FACE('',(#351),#368,.F.);
#351 = FACE_BOUND('',#352,.F.);
#352 = EDGE_LOOP('',(#353,#354,#361,#367));
#353 = ORIENTED_EDGE('',*,*,#130,.T.);
#354 = ORIENTED_EDGE('',*,*,#355,.T.);
#355 = EDGE_CURVE('',#124,#356,#358,.T.);
#356 = VERTEX_POINT('',#357);
#357 = CARTESIAN_POINT('',(0.4875,1.,0.69));
#358 = B_SPLINE_CURVE_WITH_KNOTS('',1,(#359,#360),.UNSPECIFIED.,.F.,.F.,
  (2,2),(0.,1.),.PIECEWISE_BEZIER_KNOTS.);
#359 = CARTESIAN_POINT('',(0.4875,1.,0.51));
#360 = CARTESIAN_POINT('',(0.4875,1.,0.69));
#361 = ORIENTED_EDGE('',*,*,#362,.F.);
#362 = EDGE_CURVE('',#147,#356,#363,.T.);
#363 = LINE('',#364,#365);
#364 = CARTESIAN_POINT('',(-0.4875,1.,0.69));
#365 = VECTOR('',#366,1.);
#366 = DIRECTION('',(1.,0.,0.));
#367 = ORIENTED_EDGE('',*,*,#146,.F.);
#368 = PLANE('',#369);
#369 = AXIS2_PLACEMENT_3D('',#370,#371,#372);
#370 = CARTESIAN_POINT('',(-0.4875,1.,0.69));
#371 = DIRECTION('',(0.,-1.,0.));
#372 = DIRECTION('',(1.,0.,0.));
#373 = ADVANCED_FACE('',(#374),#456,.F.);
#374 = FACE_BOUND('',#375,.F.);
#375 = EDGE_LOOP('',(#376,#384,#385,#386,#394,#402,#410,#418,#426,#434,
    #442,#450));
#376 = ORIENTED_EDGE('',*,*,#377,.T.);
#377 = EDGE_CURVE('',#378,#154,#380,.T.);
#378 = VERTEX_POINT('',#379);
#379 = CARTESIAN_POINT('',(-0.625,0.8125,0.69));
#380 = LINE('',#381,#382);
#381 = CARTESIAN_POINT('',(-0.625,-0.8625,0.69));
#382 = VECTOR('',#383,1.);
#383 = DIRECTION('',(0.,1.,0.));
#384 = ORIENTED_EDGE('',*,*,#153,.T.);
#385 = ORIENTED_EDGE('',*,*,#362,.T.);
#386 = ORIENTED_EDGE('',*,*,#387,.T.);
#387 = EDGE_CURVE('',#356,#388,#390,.T.);
#388 = VERTEX_POINT('',#389);
#389 = CARTESIAN_POINT('',(0.625,0.8625,0.69));
#390 = LINE('',#391,#392);
#391 = CARTESIAN_POINT('',(0.4875,1.,0.69));
#392 = VECTOR('',#393,1.);
#393 = DIRECTION('',(0.707106781187,-0.707106781187,0.));
#394 = ORIENTED_EDGE('',*,*,#395,.T.);
#395 = EDGE_CURVE('',#388,#396,#398,.T.);
#396 = VERTEX_POINT('',#397);
#397 = CARTESIAN_POINT('',(0.625,0.1625,0.69));
#398 = LINE('',#399,#400);
#399 = CARTESIAN_POINT('',(0.625,0.8625,0.69));
#400 = VECTOR('',#401,1.);
#401 = DIRECTION('',(0.,-1.,0.));
#402 = ORIENTED_EDGE('',*,*,#403,.T.);
#403 = EDGE_CURVE('',#396,#404,#406,.T.);
#404 = VERTEX_POINT('',#405);
#405 = CARTESIAN_POINT('',(0.575,0.1625,0.69));
#406 = LINE('',#407,#408);
#407 = CARTESIAN_POINT('',(0.78533863598,0.1625,0.69));
#408 = VECTOR('',#409,1.);
#409 = DIRECTION('',(-1.,-1.110223024625E-16,0.));
#410 = ORIENTED_EDGE('',*,*,#411,.F.);
#411 = EDGE_CURVE('',#412,#404,#414,.T.);
#412 = VERTEX_POINT('',#413);
#413 = CARTESIAN_POINT('',(0.575,0.8375,0.69));
#414 = LINE('',#415,#416);
#415 = CARTESIAN_POINT('',(0.575,0.8375,0.69));
#416 = VECTOR('',#417,1.);
#417 = DIRECTION('',(0.,-1.,0.));
#418 = ORIENTED_EDGE('',*,*,#419,.F.);
#419 = EDGE_CURVE('',#420,#412,#422,.T.);
#420 = VERTEX_POINT('',#421);
#421 = CARTESIAN_POINT('',(0.4625,0.95,0.69));
#422 = LINE('',#423,#424);
#423 = CARTESIAN_POINT('',(0.4625,0.95,0.69));
#424 = VECTOR('',#425,1.);
#425 = DIRECTION('',(0.707106781187,-0.707106781187,0.));
#426 = ORIENTED_EDGE('',*,*,#427,.F.);
#427 = EDGE_CURVE('',#428,#420,#430,.T.);
#428 = VERTEX_POINT('',#429);
#429 = CARTESIAN_POINT('',(-0.4625,0.95,0.69));
#430 = LINE('',#431,#432);
#431 = CARTESIAN_POINT('',(-0.4625,0.95,0.69));
#432 = VECTOR('',#433,1.);
#433 = DIRECTION('',(1.,0.,0.));
#434 = ORIENTED_EDGE('',*,*,#435,.F.);
#435 = EDGE_CURVE('',#436,#428,#438,.T.);
#436 = VERTEX_POINT('',#437);
#437 = CARTESIAN_POINT('',(-0.575,0.8375,0.69));
#438 = LINE('',#439,#440);
#439 = CARTESIAN_POINT('',(-0.575,0.8375,0.69));
#440 = VECTOR('',#441,1.);
#441 = DIRECTION('',(0.707106781187,0.707106781187,0.));
#442 = ORIENTED_EDGE('',*,*,#443,.F.);
#443 = EDGE_CURVE('',#444,#436,#446,.T.);
#444 = VERTEX_POINT('',#445);
#445 = CARTESIAN_POINT('',(-0.575,0.8125,0.69));
#446 = LINE('',#447,#448);
#447 = CARTESIAN_POINT('',(-0.575,-0.8375,0.69));
#448 = VECTOR('',#449,1.);
#449 = DIRECTION('',(0.,1.,0.));
#450 = ORIENTED_EDGE('',*,*,#451,.F.);
#451 = EDGE_CURVE('',#378,#444,#452,.T.);
#452 = LINE('',#453,#454);
#453 = CARTESIAN_POINT('',(-0.78533863598,0.8125,0.69));
#454 = VECTOR('',#455,1.);
#455 = DIRECTION('',(1.,-1.110223024625E-16,0.));
#456 = PLANE('',#457);
#457 = AXIS2_PLACEMENT_3D('',#458,#459,#460);
#458 = CARTESIAN_POINT('',(-0.5375,0.9125,0.69));
#459 = DIRECTION('',(1.727070457764E-15,-1.698411050721E-15,-1.));
#460 = DIRECTION('',(0.707106781187,0.707106781187,2.026526106489E-17));
#461 = ADVANCED_FACE('',(#462),#473,.F.);
#462 = FACE_BOUND('',#463,.F.);
#463 = EDGE_LOOP('',(#464,#470,#471,#472));
#464 = ORIENTED_EDGE('',*,*,#465,.F.);
#465 = EDGE_CURVE('',#177,#378,#466,.T.);
#466 = LINE('',#467,#468);
#467 = CARTESIAN_POINT('',(-0.625,0.8125,0.547147124163));
#468 = VECTOR('',#469,1.);
#469 = DIRECTION('',(0.,0.,1.));
#470 = ORIENTED_EDGE('',*,*,#176,.T.);
#471 = ORIENTED_EDGE('',*,*,#161,.T.);
#472 = ORIENTED_EDGE('',*,*,#377,.F.);
#473 = PLANE('',#474);
#474 = AXIS2_PLACEMENT_3D('',#475,#476,#477);
#475 = CARTESIAN_POINT('',(-0.625,-0.8625,0.69));
#476 = DIRECTION('',(1.,0.,0.));
#477 = DIRECTION('',(-0.,1.,0.));
#478 = ADVANCED_FACE('',(#479),#503,.F.);
#479 = FACE_BOUND('',#480,.F.);
#480 = EDGE_LOOP('',(#481,#488,#489,#497));
#481 = ORIENTED_EDGE('',*,*,#482,.F.);
#482 = EDGE_CURVE('',#209,#483,#485,.T.);
#483 = VERTEX_POINT('',#484);
#484 = CARTESIAN_POINT('',(-0.625,-0.8625,0.69));
#485 = B_SPLINE_CURVE_WITH_KNOTS('',1,(#486,#487),.UNSPECIFIED.,.F.,.F.,
  (2,2),(0.,1.),.PIECEWISE_BEZIER_KNOTS.);
#486 = CARTESIAN_POINT('',(-0.625,-0.8625,0.51));
#487 = CARTESIAN_POINT('',(-0.625,-0.8625,0.69));
#488 = ORIENTED_EDGE('',*,*,#208,.T.);
#489 = ORIENTED_EDGE('',*,*,#490,.T.);
#490 = EDGE_CURVE('',#201,#491,#493,.T.);
#491 = VERTEX_POINT('',#492);
#492 = CARTESIAN_POINT('',(-0.625,-0.8125,0.69));
#493 = LINE('',#494,#495);
#494 = CARTESIAN_POINT('',(-0.625,-0.8125,0.547147124163));
#495 = VECTOR('',#496,1.);
#496 = DIRECTION('',(0.,0.,1.));
#497 = ORIENTED_EDGE('',*,*,#498,.F.);
#498 = EDGE_CURVE('',#483,#491,#499,.T.);
#499 = LINE('',#500,#501);
#500 = CARTESIAN_POINT('',(-0.625,-0.8625,0.69));
#501 = VECTOR('',#502,1.);
#502 = DIRECTION('',(0.,1.,0.));
#503 = PLANE('',#504);
#504 = AXIS2_PLACEMENT_3D('',#505,#506,#507);
#505 = CARTESIAN_POINT('',(-0.625,-0.8625,0.69));
#506 = DIRECTION('',(1.,0.,0.));
#507 = DIRECTION('',(-0.,1.,0.));
#508 = ADVANCED_FACE('',(#509),#534,.F.);
#509 = FACE_BOUND('',#510,.F.);
#510 = EDGE_LOOP('',(#511,#519,#520,#528));
#511 = ORIENTED_EDGE('',*,*,#512,.F.);
#512 = EDGE_CURVE('',#201,#513,#515,.T.);
#513 = VERTEX_POINT('',#514);
#514 = CARTESIAN_POINT('',(-0.78533863598,-0.8125,0.51));
#515 = LINE('',#516,#517);
#516 = CARTESIAN_POINT('',(-0.525,-0.8125,0.51));
#517 = VECTOR('',#518,1.);
#518 = DIRECTION('',(-1.,1.110223024625E-16,0.));
#519 = ORIENTED_EDGE('',*,*,#200,.T.);
#520 = ORIENTED_EDGE('',*,*,#521,.T.);
#521 = EDGE_CURVE('',#193,#522,#524,.T.);
#522 = VERTEX_POINT('',#523);
#523 = CARTESIAN_POINT('',(-0.78533863598,-0.4875,0.51));
#524 = LINE('',#525,#526);
#525 = CARTESIAN_POINT('',(-0.525,-0.4875,0.51));
#526 = VECTOR('',#527,1.);
#527 = DIRECTION('',(-1.,1.110223024625E-16,0.));
#528 = ORIENTED_EDGE('',*,*,#529,.F.);
#529 = EDGE_CURVE('',#513,#522,#530,.T.);
#530 = LINE('',#531,#532);
#531 = CARTESIAN_POINT('',(-0.78533863598,-0.8125,0.51));
#532 = VECTOR('',#533,1.);
#533 = DIRECTION('',(1.110223024625E-16,1.,0.));
#534 = PLANE('',#535);
#535 = AXIS2_PLACEMENT_3D('',#536,#537,#538);
#536 = CARTESIAN_POINT('',(-0.525,-0.8125,0.51));
#537 = DIRECTION('',(0.,0.,1.));
#538 = DIRECTION('',(-1.,1.110223024625E-16,0.));
#539 = ADVANCED_FACE('',(#540),#565,.F.);
#540 = FACE_BOUND('',#541,.F.);
#541 = EDGE_LOOP('',(#542,#550,#551,#559));
#542 = ORIENTED_EDGE('',*,*,#543,.F.);
#543 = EDGE_CURVE('',#193,#544,#546,.T.);
#544 = VERTEX_POINT('',#545);
#545 = CARTESIAN_POINT('',(-0.625,-0.4875,0.69));
#546 = LINE('',#547,#548);
#547 = CARTESIAN_POINT('',(-0.625,-0.4875,0.547147124163));
#548 = VECTOR('',#549,1.);
#549 = DIRECTION('',(0.,0.,1.));
#550 = ORIENTED_EDGE('',*,*,#192,.T.);
#551 = ORIENTED_EDGE('',*,*,#552,.T.);
#552 = EDGE_CURVE('',#185,#553,#555,.T.);
#553 = VERTEX_POINT('',#554);
#554 = CARTESIAN_POINT('',(-0.625,0.4875,0.69));
#555 = LINE('',#556,#557);
#556 = CARTESIAN_POINT('',(-0.625,0.4875,0.547147124163));
#557 = VECTOR('',#558,1.);
#558 = DIRECTION('',(0.,0.,1.));
#559 = ORIENTED_EDGE('',*,*,#560,.F.);
#560 = EDGE_CURVE('',#544,#553,#561,.T.);
#561 = LINE('',#562,#563);
#562 = CARTESIAN_POINT('',(-0.625,-0.8625,0.69));
#563 = VECTOR('',#564,1.);
#564 = DIRECTION('',(0.,1.,0.));
#565 = PLANE('',#566);
#566 = AXIS2_PLACEMENT_3D('',#567,#568,#569);
#567 = CARTESIAN_POINT('',(-0.625,-0.8625,0.69));
#568 = DIRECTION('',(1.,0.,0.));
#569 = DIRECTION('',(-0.,1.,0.));
#570 = ADVANCED_FACE('',(#571),#596,.F.);
#571 = FACE_BOUND('',#572,.F.);
#572 = EDGE_LOOP('',(#573,#581,#582,#590));
#573 = ORIENTED_EDGE('',*,*,#574,.F.);
#574 = EDGE_CURVE('',#185,#575,#577,.T.);
#575 = VERTEX_POINT('',#576);
#576 = CARTESIAN_POINT('',(-0.78533863598,0.4875,0.51));
#577 = LINE('',#578,#579);
#578 = CARTESIAN_POINT('',(-0.525,0.4875,0.51));
#579 = VECTOR('',#580,1.);
#580 = DIRECTION('',(-1.,1.110223024625E-16,0.));
#581 = ORIENTED_EDGE('',*,*,#184,.T.);
#582 = ORIENTED_EDGE('',*,*,#583,.T.);
#583 = EDGE_CURVE('',#177,#584,#586,.T.);
#584 = VERTEX_POINT('',#585);
#585 = CARTESIAN_POINT('',(-0.78533863598,0.8125,0.51));
#586 = LINE('',#587,#588);
#587 = CARTESIAN_POINT('',(-0.525,0.8125,0.51));
#588 = VECTOR('',#589,1.);
#589 = DIRECTION('',(-1.,1.110223024625E-16,0.));
#590 = ORIENTED_EDGE('',*,*,#591,.F.);
#591 = EDGE_CURVE('',#575,#584,#592,.T.);
#592 = LINE('',#593,#594);
#593 = CARTESIAN_POINT('',(-0.78533863598,0.4875,0.51));
#594 = VECTOR('',#595,1.);
#595 = DIRECTION('',(1.110223024625E-16,1.,0.));
#596 = PLANE('',#597);
#597 = AXIS2_PLACEMENT_3D('',#598,#599,#600);
#598 = CARTESIAN_POINT('',(-0.525,0.4875,0.51));
#599 = DIRECTION('',(0.,0.,1.));
#600 = DIRECTION('',(-1.,1.110223024625E-16,0.));
#601 = ADVANCED_FACE('',(#602),#619,.F.);
#602 = FACE_BOUND('',#603,.F.);
#603 = EDGE_LOOP('',(#604,#605,#606,#614));
#604 = ORIENTED_EDGE('',*,*,#231,.T.);
#605 = ORIENTED_EDGE('',*,*,#482,.T.);
#606 = ORIENTED_EDGE('',*,*,#607,.F.);
#607 = EDGE_CURVE('',#608,#483,#610,.T.);
#608 = VERTEX_POINT('',#609);
#609 = CARTESIAN_POINT('',(-0.4875,-1.,0.69));
#610 = LINE('',#611,#612);
#611 = CARTESIAN_POINT('',(-0.4875,-1.,0.69));
#612 = VECTOR('',#613,1.);
#613 = DIRECTION('',(-0.707106781187,0.707106781187,0.));
#614 = ORIENTED_EDGE('',*,*,#615,.F.);
#615 = EDGE_CURVE('',#232,#608,#616,.T.);
#616 = B_SPLINE_CURVE_WITH_KNOTS('',1,(#617,#618),.UNSPECIFIED.,.F.,.F.,
  (2,2),(0.,1.),.PIECEWISE_BEZIER_KNOTS.);
#617 = CARTESIAN_POINT('',(-0.4875,-1.,0.51));
#618 = CARTESIAN_POINT('',(-0.4875,-1.,0.69));
#619 = PLANE('',#620);
#620 = AXIS2_PLACEMENT_3D('',#621,#622,#623);
#621 = CARTESIAN_POINT('',(-0.4875,-1.,0.69));
#622 = DIRECTION('',(0.707106781187,0.707106781187,2.180683970392E-16));
#623 = DIRECTION('',(-0.707106781187,0.707106781187,-3.160275183687E-33)
  );
#624 = ADVANCED_FACE('',(#625),#635,.F.);
#625 = FACE_BOUND('',#626,.F.);
#626 = EDGE_LOOP('',(#627,#628,#633,#634));
#627 = ORIENTED_EDGE('',*,*,#260,.T.);
#628 = ORIENTED_EDGE('',*,*,#629,.T.);
#629 = EDGE_CURVE('',#254,#388,#630,.T.);
#630 = B_SPLINE_CURVE_WITH_KNOTS('',1,(#631,#632),.UNSPECIFIED.,.F.,.F.,
  (2,2),(0.,1.),.PIECEWISE_BEZIER_KNOTS.);
#631 = CARTESIAN_POINT('',(0.625,0.8625,0.51));
#632 = CARTESIAN_POINT('',(0.625,0.8625,0.69));
#633 = ORIENTED_EDGE('',*,*,#387,.F.);
#634 = ORIENTED_EDGE('',*,*,#355,.F.);
#635 = PLANE('',#636);
#636 = AXIS2_PLACEMENT_3D('',#637,#638,#639);
#637 = CARTESIAN_POINT('',(0.4875,1.,0.69));
#638 = DIRECTION('',(-0.707106781187,-0.707106781187,-2.180683970392E-16
    ));
#639 = DIRECTION('',(0.707106781187,-0.707106781187,3.160275183687E-33)
  );
#640 = ADVANCED_FACE('',(#641),#658,.F.);
#641 = FACE_BOUND('',#642,.F.);
#642 = EDGE_LOOP('',(#643,#644,#645,#653));
#643 = ORIENTED_EDGE('',*,*,#277,.T.);
#644 = ORIENTED_EDGE('',*,*,#615,.T.);
#645 = ORIENTED_EDGE('',*,*,#646,.F.);
#646 = EDGE_CURVE('',#647,#608,#649,.T.);
#647 = VERTEX_POINT('',#648);
#648 = CARTESIAN_POINT('',(0.4875,-1.,0.69));
#649 = LINE('',#650,#651);
#650 = CARTESIAN_POINT('',(0.4875,-1.,0.69));
#651 = VECTOR('',#652,1.);
#652 = DIRECTION('',(-1.,0.,0.));
#653 = ORIENTED_EDGE('',*,*,#654,.F.);
#654 = EDGE_CURVE('',#278,#647,#655,.T.);
#655 = B_SPLINE_CURVE_WITH_KNOTS('',1,(#656,#657),.UNSPECIFIED.,.F.,.F.,
  (2,2),(0.,1.),.PIECEWISE_BEZIER_KNOTS.);
#656 = CARTESIAN_POINT('',(0.4875,-1.,0.51));
#657 = CARTESIAN_POINT('',(0.4875,-1.,0.69));
#658 = PLANE('',#659);
#659 = AXIS2_PLACEMENT_3D('',#660,#661,#662);
#660 = CARTESIAN_POINT('',(0.4875,-1.,0.69));
#661 = DIRECTION('',(0.,1.,0.));
#662 = DIRECTION('',(-1.,0.,0.));
#663 = ADVANCED_FACE('',(#664),#675,.F.);
#664 = FACE_BOUND('',#665,.F.);
#665 = EDGE_LOOP('',(#666,#667,#668,#674));
#666 = ORIENTED_EDGE('',*,*,#629,.F.);
#667 = ORIENTED_EDGE('',*,*,#322,.T.);
#668 = ORIENTED_EDGE('',*,*,#669,.T.);
#669 = EDGE_CURVE('',#315,#396,#670,.T.);
#670 = LINE('',#671,#672);
#671 = CARTESIAN_POINT('',(0.625,0.1625,0.547147124163));
#672 = VECTOR('',#673,1.);
#673 = DIRECTION('',(0.,0.,1.));
#674 = ORIENTED_EDGE('',*,*,#395,.F.);
#675 = PLANE('',#676);
#676 = AXIS2_PLACEMENT_3D('',#677,#678,#679);
#677 = CARTESIAN_POINT('',(0.625,0.8625,0.69));
#678 = DIRECTION('',(-1.,0.,0.));
#679 = DIRECTION('',(0.,-1.,0.));
#680 = ADVANCED_FACE('',(#681),#706,.F.);
#681 = FACE_BOUND('',#682,.F.);
#682 = EDGE_LOOP('',(#683,#691,#692,#700));
#683 = ORIENTED_EDGE('',*,*,#684,.F.);
#684 = EDGE_CURVE('',#315,#685,#687,.T.);
#685 = VERTEX_POINT('',#686);
#686 = CARTESIAN_POINT('',(0.78533863598,0.1625,0.51));
#687 = LINE('',#688,#689);
#688 = CARTESIAN_POINT('',(0.525,0.1625,0.51));
#689 = VECTOR('',#690,1.);
#690 = DIRECTION('',(1.,1.110223024625E-16,0.));
#691 = ORIENTED_EDGE('',*,*,#314,.T.);
#692 = ORIENTED_EDGE('',*,*,#693,.T.);
#693 = EDGE_CURVE('',#307,#694,#696,.T.);
#694 = VERTEX_POINT('',#695);
#695 = CARTESIAN_POINT('',(0.78533863598,-0.1625,0.51));
#696 = LINE('',#697,#698);
#697 = CARTESIAN_POINT('',(0.525,-0.1625,0.51));
#698 = VECTOR('',#699,1.);
#699 = DIRECTION('',(1.,1.110223024625E-16,0.));
#700 = ORIENTED_EDGE('',*,*,#701,.F.);
#701 = EDGE_CURVE('',#685,#694,#702,.T.);
#702 = LINE('',#703,#704);
#703 = CARTESIAN_POINT('',(0.78533863598,0.1625,0.51));
#704 = VECTOR('',#705,1.);
#705 = DIRECTION('',(1.110223024625E-16,-1.,0.));
#706 = PLANE('',#707);
#707 = AXIS2_PLACEMENT_3D('',#708,#709,#710);
#708 = CARTESIAN_POINT('',(0.525,0.1625,0.51));
#709 = DIRECTION('',(0.,0.,1.));
#710 = DIRECTION('',(1.,1.110223024625E-16,-0.));
#711 = ADVANCED_FACE('',(#712),#736,.F.);
#712 = FACE_BOUND('',#713,.F.);
#713 = EDGE_LOOP('',(#714,#722,#723,#730));
#714 = ORIENTED_EDGE('',*,*,#715,.F.);
#715 = EDGE_CURVE('',#307,#716,#718,.T.);
#716 = VERTEX_POINT('',#717);
#717 = CARTESIAN_POINT('',(0.625,-0.1625,0.69));
#718 = LINE('',#719,#720);
#719 = CARTESIAN_POINT('',(0.625,-0.1625,0.547147124163));
#720 = VECTOR('',#721,1.);
#721 = DIRECTION('',(0.,0.,1.));
#722 = ORIENTED_EDGE('',*,*,#306,.T.);
#723 = ORIENTED_EDGE('',*,*,#724,.T.);
#724 = EDGE_CURVE('',#300,#725,#727,.T.);
#725 = VERTEX_POINT('',#726);
#726 = CARTESIAN_POINT('',(0.625,-0.8625,0.69));
#727 = B_SPLINE_CURVE_WITH_KNOTS('',1,(#728,#729),.UNSPECIFIED.,.F.,.F.,
  (2,2),(0.,1.),.PIECEWISE_BEZIER_KNOTS.);
#728 = CARTESIAN_POINT('',(0.625,-0.8625,0.51));
#729 = CARTESIAN_POINT('',(0.625,-0.8625,0.69));
#730 = ORIENTED_EDGE('',*,*,#731,.F.);
#731 = EDGE_CURVE('',#716,#725,#732,.T.);
#732 = LINE('',#733,#734);
#733 = CARTESIAN_POINT('',(0.625,0.8625,0.69));
#734 = VECTOR('',#735,1.);
#735 = DIRECTION('',(0.,-1.,0.));
#736 = PLANE('',#737);
#737 = AXIS2_PLACEMENT_3D('',#738,#739,#740);
#738 = CARTESIAN_POINT('',(0.625,0.8625,0.69));
#739 = DIRECTION('',(-1.,0.,0.));
#740 = DIRECTION('',(0.,-1.,0.));
#741 = ADVANCED_FACE('',(#742),#753,.F.);
#742 = FACE_BOUND('',#743,.F.);
#743 = EDGE_LOOP('',(#744,#745,#746,#752));
#744 = ORIENTED_EDGE('',*,*,#339,.T.);
#745 = ORIENTED_EDGE('',*,*,#654,.T.);
#746 = ORIENTED_EDGE('',*,*,#747,.F.);
#747 = EDGE_CURVE('',#725,#647,#748,.T.);
#748 = LINE('',#749,#750);
#749 = CARTESIAN_POINT('',(0.625,-0.8625,0.69));
#750 = VECTOR('',#751,1.);
#751 = DIRECTION('',(-0.707106781187,-0.707106781187,0.));
#752 = ORIENTED_EDGE('',*,*,#724,.F.);
#753 = PLANE('',#754);
#754 = AXIS2_PLACEMENT_3D('',#755,#756,#757);
#755 = CARTESIAN_POINT('',(0.625,-0.8625,0.69));
#756 = DIRECTION('',(-0.707106781187,0.707106781187,0.));
#757 = DIRECTION('',(-0.707106781187,-0.707106781187,0.));
#758 = ADVANCED_FACE('',(#759),#798,.F.);
#759 = FACE_BOUND('',#760,.F.);
#760 = EDGE_LOOP('',(#761,#769,#777,#783,#784,#792));
#761 = ORIENTED_EDGE('',*,*,#762,.F.);
#762 = EDGE_CURVE('',#763,#553,#765,.T.);
#763 = VERTEX_POINT('',#764);
#764 = CARTESIAN_POINT('',(-0.78533863598,0.4875,0.69));
#765 = LINE('',#766,#767);
#766 = CARTESIAN_POINT('',(-0.78533863598,0.4875,0.69));
#767 = VECTOR('',#768,1.);
#768 = DIRECTION('',(1.,-1.110223024625E-16,0.));
#769 = ORIENTED_EDGE('',*,*,#770,.T.);
#770 = EDGE_CURVE('',#763,#771,#773,.T.);
#771 = VERTEX_POINT('',#772);
#772 = CARTESIAN_POINT('',(-0.78533863598,0.8125,0.69));
#773 = LINE('',#774,#775);
#774 = CARTESIAN_POINT('',(-0.78533863598,0.4875,0.69));
#775 = VECTOR('',#776,1.);
#776 = DIRECTION('',(1.110223024625E-16,1.,0.));
#777 = ORIENTED_EDGE('',*,*,#778,.T.);
#778 = EDGE_CURVE('',#771,#378,#779,.T.);
#779 = LINE('',#780,#781);
#780 = CARTESIAN_POINT('',(-0.78533863598,0.8125,0.69));
#781 = VECTOR('',#782,1.);
#782 = DIRECTION('',(1.,-1.110223024625E-16,0.));
#783 = ORIENTED_EDGE('',*,*,#451,.T.);
#784 = ORIENTED_EDGE('',*,*,#785,.F.);
#785 = EDGE_CURVE('',#786,#444,#788,.T.);
#786 = VERTEX_POINT('',#787);
#787 = CARTESIAN_POINT('',(-0.575,0.4875,0.69));
#788 = LINE('',#789,#790);
#789 = CARTESIAN_POINT('',(-0.575,-0.8375,0.69));
#790 = VECTOR('',#791,1.);
#791 = DIRECTION('',(0.,1.,0.));
#792 = ORIENTED_EDGE('',*,*,#793,.F.);
#793 = EDGE_CURVE('',#553,#786,#794,.T.);
#794 = LINE('',#795,#796);
#795 = CARTESIAN_POINT('',(-0.78533863598,0.4875,0.69));
#796 = VECTOR('',#797,1.);
#797 = DIRECTION('',(1.,-1.110223024625E-16,0.));
#798 = PLANE('',#799);
#799 = AXIS2_PLACEMENT_3D('',#800,#801,#802);
#800 = CARTESIAN_POINT('',(-0.78533863598,0.4875,0.69));
#801 = DIRECTION('',(0.,0.,-1.));
#802 = DIRECTION('',(1.,-1.110223024625E-16,0.));
#803 = ADVANCED_FACE('',(#804),#852,.F.);
#804 = FACE_BOUND('',#805,.F.);
#805 = EDGE_LOOP('',(#806,#816,#824,#830,#831,#832,#839,#847));
#806 = ORIENTED_EDGE('',*,*,#807,.T.);
#807 = EDGE_CURVE('',#808,#810,#812,.T.);
#808 = VERTEX_POINT('',#809);
#809 = CARTESIAN_POINT('',(-0.575,-0.8375,0.69));
#810 = VERTEX_POINT('',#811);
#811 = CARTESIAN_POINT('',(-0.575,-0.8125,0.69));
#812 = LINE('',#813,#814);
#813 = CARTESIAN_POINT('',(-0.575,-0.8375,0.69));
#814 = VECTOR('',#815,1.);
#815 = DIRECTION('',(0.,1.,0.));
#816 = ORIENTED_EDGE('',*,*,#817,.T.);
#817 = EDGE_CURVE('',#810,#818,#820,.T.);
#818 = VERTEX_POINT('',#819);
#819 = CARTESIAN_POINT('',(-0.575,-0.4875,0.69));
#820 = LINE('',#821,#822);
#821 = CARTESIAN_POINT('',(-0.575,-0.8375,0.69));
#822 = VECTOR('',#823,1.);
#823 = DIRECTION('',(0.,1.,0.));
#824 = ORIENTED_EDGE('',*,*,#825,.T.);
#825 = EDGE_CURVE('',#818,#786,#826,.T.);
#826 = LINE('',#827,#828);
#827 = CARTESIAN_POINT('',(-0.575,-0.8375,0.69));
#828 = VECTOR('',#829,1.);
#829 = DIRECTION('',(0.,1.,0.));
#830 = ORIENTED_EDGE('',*,*,#785,.T.);
#831 = ORIENTED_EDGE('',*,*,#443,.T.);
#832 = ORIENTED_EDGE('',*,*,#833,.T.);
#833 = EDGE_CURVE('',#436,#834,#836,.T.);
#834 = VERTEX_POINT('',#835);
#835 = CARTESIAN_POINT('',(-0.50270593791,0.801352968955,1.1));
#836 = B_SPLINE_CURVE_WITH_KNOTS('',1,(#837,#838),.UNSPECIFIED.,.F.,.F.,
  (2,2),(0.,1.),.PIECEWISE_BEZIER_KNOTS.);
#837 = CARTESIAN_POINT('',(-0.575,0.8375,0.69));
#838 = CARTESIAN_POINT('',(-0.50270593791,0.801352968955,1.1));
#839 = ORIENTED_EDGE('',*,*,#840,.F.);
#840 = EDGE_CURVE('',#841,#834,#843,.T.);
#841 = VERTEX_POINT('',#842);
#842 = CARTESIAN_POINT('',(-0.50270593791,-0.801352968955,1.1));
#843 = LINE('',#844,#845);
#844 = CARTESIAN_POINT('',(-0.50270593791,-0.801352968955,1.1));
#845 = VECTOR('',#846,1.);
#846 = DIRECTION('',(0.,1.,0.));
#847 = ORIENTED_EDGE('',*,*,#848,.F.);
#848 = EDGE_CURVE('',#808,#841,#849,.T.);
#849 = B_SPLINE_CURVE_WITH_KNOTS('',1,(#850,#851),.UNSPECIFIED.,.F.,.F.,
  (2,2),(0.,1.),.PIECEWISE_BEZIER_KNOTS.);
#850 = CARTESIAN_POINT('',(-0.575,-0.8375,0.69));
#851 = CARTESIAN_POINT('',(-0.50270593791,-0.801352968955,1.1));
#852 = B_SPLINE_SURFACE_WITH_KNOTS('',1,1,(
    (#853,#854)
    ,(#855,#856
    )),.UNSPECIFIED.,.F.,.F.,.F.,(2,2),(2,2),(0.,1.675),(0.,1.),
  .PIECEWISE_BEZIER_KNOTS.);
#853 = CARTESIAN_POINT('',(-0.575,-0.8375,0.69));
#854 = CARTESIAN_POINT('',(-0.50270593791,-0.801352968955,1.1));
#855 = CARTESIAN_POINT('',(-0.575,0.8375,0.69));
#856 = CARTESIAN_POINT('',(-0.50270593791,0.801352968955,1.1));
#857 = ADVANCED_FACE('',(#858),#875,.F.);
#858 = FACE_BOUND('',#859,.F.);
#859 = EDGE_LOOP('',(#860,#861,#868,#874));
#860 = ORIENTED_EDGE('',*,*,#435,.T.);
#861 = ORIENTED_EDGE('',*,*,#862,.T.);
#862 = EDGE_CURVE('',#428,#863,#865,.T.);
#863 = VERTEX_POINT('',#864);
#864 = CARTESIAN_POINT('',(-0.426352968955,0.87770593791,1.1));
#865 = B_SPLINE_CURVE_WITH_KNOTS('',1,(#866,#867),.UNSPECIFIED.,.F.,.F.,
  (2,2),(0.,1.),.PIECEWISE_BEZIER_KNOTS.);
#866 = CARTESIAN_POINT('',(-0.4625,0.95,0.69));
#867 = CARTESIAN_POINT('',(-0.426352968955,0.87770593791,1.1));
#868 = ORIENTED_EDGE('',*,*,#869,.F.);
#869 = EDGE_CURVE('',#834,#863,#870,.T.);
#870 = LINE('',#871,#872);
#871 = CARTESIAN_POINT('',(-0.50270593791,0.801352968955,1.1));
#872 = VECTOR('',#873,1.);
#873 = DIRECTION('',(0.707106781187,0.707106781187,0.));
#874 = ORIENTED_EDGE('',*,*,#833,.F.);
#875 = B_SPLINE_SURFACE_WITH_KNOTS('',1,1,(
    (#876,#877)
    ,(#878,#879
    )),.UNSPECIFIED.,.F.,.F.,.F.,(2,2),(2,2),(0.,0.159099025767),(0.,1.)
  ,.PIECEWISE_BEZIER_KNOTS.);
#876 = CARTESIAN_POINT('',(-0.575,0.8375,0.69));
#877 = CARTESIAN_POINT('',(-0.50270593791,0.801352968955,1.1));
#878 = CARTESIAN_POINT('',(-0.4625,0.95,0.69));
#879 = CARTESIAN_POINT('',(-0.426352968955,0.87770593791,1.1));
#880 = ADVANCED_FACE('',(#881),#898,.F.);
#881 = FACE_BOUND('',#882,.F.);
#882 = EDGE_LOOP('',(#883,#884,#891,#897));
#883 = ORIENTED_EDGE('',*,*,#427,.T.);
#884 = ORIENTED_EDGE('',*,*,#885,.T.);
#885 = EDGE_CURVE('',#420,#886,#888,.T.);
#886 = VERTEX_POINT('',#887);
#887 = CARTESIAN_POINT('',(0.426352968955,0.87770593791,1.1));
#888 = B_SPLINE_CURVE_WITH_KNOTS('',1,(#889,#890),.UNSPECIFIED.,.F.,.F.,
  (2,2),(0.,1.),.PIECEWISE_BEZIER_KNOTS.);
#889 = CARTESIAN_POINT('',(0.4625,0.95,0.69));
#890 = CARTESIAN_POINT('',(0.426352968955,0.87770593791,1.1));
#891 = ORIENTED_EDGE('',*,*,#892,.F.);
#892 = EDGE_CURVE('',#863,#886,#893,.T.);
#893 = LINE('',#894,#895);
#894 = CARTESIAN_POINT('',(-0.426352968955,0.87770593791,1.1));
#895 = VECTOR('',#896,1.);
#896 = DIRECTION('',(1.,0.,0.));
#897 = ORIENTED_EDGE('',*,*,#862,.F.);
#898 = B_SPLINE_SURFACE_WITH_KNOTS('',1,1,(
    (#899,#900)
    ,(#901,#902
    )),.UNSPECIFIED.,.F.,.F.,.F.,(2,2),(2,2),(0.,0.925),(0.,1.),
  .PIECEWISE_BEZIER_KNOTS.);
#899 = CARTESIAN_POINT('',(-0.4625,0.95,0.69));
#900 = CARTESIAN_POINT('',(-0.426352968955,0.87770593791,1.1));
#901 = CARTESIAN_POINT('',(0.4625,0.95,0.69));
#902 = CARTESIAN_POINT('',(0.426352968955,0.87770593791,1.1));
#903 = ADVANCED_FACE('',(#904),#921,.F.);
#904 = FACE_BOUND('',#905,.F.);
#905 = EDGE_LOOP('',(#906,#907,#914,#920));
#906 = ORIENTED_EDGE('',*,*,#419,.T.);
#907 = ORIENTED_EDGE('',*,*,#908,.T.);
#908 = EDGE_CURVE('',#412,#909,#911,.T.);
#909 = VERTEX_POINT('',#910);
#910 = CARTESIAN_POINT('',(0.50270593791,0.801352968955,1.1));
#911 = B_SPLINE_CURVE_WITH_KNOTS('',1,(#912,#913),.UNSPECIFIED.,.F.,.F.,
  (2,2),(0.,1.),.PIECEWISE_BEZIER_KNOTS.);
#912 = CARTESIAN_POINT('',(0.575,0.8375,0.69));
#913 = CARTESIAN_POINT('',(0.50270593791,0.801352968955,1.1));
#914 = ORIENTED_EDGE('',*,*,#915,.F.);
#915 = EDGE_CURVE('',#886,#909,#916,.T.);
#916 = LINE('',#917,#918);
#917 = CARTESIAN_POINT('',(0.426352968955,0.87770593791,1.1));
#918 = VECTOR('',#919,1.);
#919 = DIRECTION('',(0.707106781187,-0.707106781187,0.));
#920 = ORIENTED_EDGE('',*,*,#885,.F.);
#921 = B_SPLINE_SURFACE_WITH_KNOTS('',1,1,(
    (#922,#923)
    ,(#924,#925
    )),.UNSPECIFIED.,.F.,.F.,.F.,(2,2),(2,2),(0.,0.159099025767),(0.,1.)
  ,.PIECEWISE_BEZIER_KNOTS.);
#922 = CARTESIAN_POINT('',(0.4625,0.95,0.69));
#923 = CARTESIAN_POINT('',(0.426352968955,0.87770593791,1.1));
#924 = CARTESIAN_POINT('',(0.575,0.8375,0.69));
#925 = CARTESIAN_POINT('',(0.50270593791,0.801352968955,1.1));
#926 = ADVANCED_FACE('',(#927),#960,.F.);
#927 = FACE_BOUND('',#928,.F.);
#928 = EDGE_LOOP('',(#929,#930,#938,#946,#953,#959));
#929 = ORIENTED_EDGE('',*,*,#411,.T.);
#930 = ORIENTED_EDGE('',*,*,#931,.T.);
#931 = EDGE_CURVE('',#404,#932,#934,.T.);
#932 = VERTEX_POINT('',#933);
#933 = CARTESIAN_POINT('',(0.575,-0.1625,0.69));
#934 = LINE('',#935,#936);
#935 = CARTESIAN_POINT('',(0.575,0.8375,0.69));
#936 = VECTOR('',#937,1.);
#937 = DIRECTION('',(0.,-1.,0.));
#938 = ORIENTED_EDGE('',*,*,#939,.T.);
#939 = EDGE_CURVE('',#932,#940,#942,.T.);
#940 = VERTEX_POINT('',#941);
#941 = CARTESIAN_POINT('',(0.575,-0.8375,0.69));
#942 = LINE('',#943,#944);
#943 = CARTESIAN_POINT('',(0.575,0.8375,0.69));
#944 = VECTOR('',#945,1.);
#945 = DIRECTION('',(0.,-1.,0.));
#946 = ORIENTED_EDGE('',*,*,#947,.T.);
#947 = EDGE_CURVE('',#940,#948,#950,.T.);
#948 = VERTEX_POINT('',#949);
#949 = CARTESIAN_POINT('',(0.50270593791,-0.801352968955,1.1));
#950 = B_SPLINE_CURVE_WITH_KNOTS('',1,(#951,#952),.UNSPECIFIED.,.F.,.F.,
  (2,2),(0.,1.),.PIECEWISE_BEZIER_KNOTS.);
#951 = CARTESIAN_POINT('',(0.575,-0.8375,0.69));
#952 = CARTESIAN_POINT('',(0.50270593791,-0.801352968955,1.1));
#953 = ORIENTED_EDGE('',*,*,#954,.F.);
#954 = EDGE_CURVE('',#909,#948,#955,.T.);
#955 = LINE('',#956,#957);
#956 = CARTESIAN_POINT('',(0.50270593791,0.801352968955,1.1));
#957 = VECTOR('',#958,1.);
#958 = DIRECTION('',(0.,-1.,0.));
#959 = ORIENTED_EDGE('',*,*,#908,.F.);
#960 = B_SPLINE_SURFACE_WITH_KNOTS('',1,1,(
    (#961,#962)
    ,(#963,#964
    )),.UNSPECIFIED.,.F.,.F.,.F.,(2,2),(2,2),(0.,1.675),(0.,1.),
  .PIECEWISE_BEZIER_KNOTS.);
#961 = CARTESIAN_POINT('',(0.575,0.8375,0.69));
#962 = CARTESIAN_POINT('',(0.50270593791,0.801352968955,1.1));
#963 = CARTESIAN_POINT('',(0.575,-0.8375,0.69));
#964 = CARTESIAN_POINT('',(0.50270593791,-0.801352968955,1.1));
#965 = ADVANCED_FACE('',(#966),#998,.F.);
#966 = FACE_BOUND('',#967,.F.);
#967 = EDGE_LOOP('',(#968,#976,#984,#990,#996,#997));
#968 = ORIENTED_EDGE('',*,*,#969,.F.);
#969 = EDGE_CURVE('',#970,#396,#972,.T.);
#970 = VERTEX_POINT('',#971);
#971 = CARTESIAN_POINT('',(0.78533863598,0.1625,0.69));
#972 = LINE('',#973,#974);
#973 = CARTESIAN_POINT('',(0.78533863598,0.1625,0.69));
#974 = VECTOR('',#975,1.);
#975 = DIRECTION('',(-1.,-1.110223024625E-16,0.));
#976 = ORIENTED_EDGE('',*,*,#977,.T.);
#977 = EDGE_CURVE('',#970,#978,#980,.T.);
#978 = VERTEX_POINT('',#979);
#979 = CARTESIAN_POINT('',(0.78533863598,-0.1625,0.69));
#980 = LINE('',#981,#982);
#981 = CARTESIAN_POINT('',(0.78533863598,0.1625,0.69));
#982 = VECTOR('',#983,1.);
#983 = DIRECTION('',(1.110223024625E-16,-1.,0.));
#984 = ORIENTED_EDGE('',*,*,#985,.T.);
#985 = EDGE_CURVE('',#978,#716,#986,.T.);
#986 = LINE('',#987,#988);
#987 = CARTESIAN_POINT('',(0.78533863598,-0.1625,0.69));
#988 = VECTOR('',#989,1.);
#989 = DIRECTION('',(-1.,-1.110223024625E-16,0.));
#990 = ORIENTED_EDGE('',*,*,#991,.T.);
#991 = EDGE_CURVE('',#716,#932,#992,.T.);
#992 = LINE('',#993,#994);
#993 = CARTESIAN_POINT('',(0.78533863598,-0.1625,0.69));
#994 = VECTOR('',#995,1.);
#995 = DIRECTION('',(-1.,-1.110223024625E-16,0.));
#996 = ORIENTED_EDGE('',*,*,#931,.F.);
#997 = ORIENTED_EDGE('',*,*,#403,.F.);
#998 = PLANE('',#999);
#999 = AXIS2_PLACEMENT_3D('',#1000,#1001,#1002);
#1000 = CARTESIAN_POINT('',(0.78533863598,0.1625,0.69));
#1001 = DIRECTION('',(0.,0.,-1.));
#1002 = DIRECTION('',(-1.,-1.110223024625E-16,-0.));
#1003 = ADVANCED_FACE('',(#1004),#1083,.T.);
#1004 = FACE_BOUND('',#1005,.T.);
#1005 = EDGE_LOOP('',(#1006,#1007,#1008,#1017,#1025,#1034,#1042,#1050,
    #1058,#1067,#1075,#1082));
#1006 = ORIENTED_EDGE('',*,*,#465,.F.);
#1007 = ORIENTED_EDGE('',*,*,#583,.T.);
#1008 = ORIENTED_EDGE('',*,*,#1009,.T.);
#1009 = EDGE_CURVE('',#584,#1010,#1012,.T.);
#1010 = VERTEX_POINT('',#1011);
#1011 = CARTESIAN_POINT('',(-0.79518671351,0.8125,0.501736481777));
#1012 = CIRCLE('',#1013,1.E-02);
#1013 = AXIS2_PLACEMENT_3D('',#1014,#1015,#1016);
#1014 = CARTESIAN_POINT('',(-0.78533863598,0.8125,0.5));
#1015 = DIRECTION('',(-1.110223024625E-16,-1.,3.284293273311E-47));
#1016 = DIRECTION('',(-1.110223024625E-14,1.232595164407E-30,1.));
#1017 = ORIENTED_EDGE('',*,*,#1018,.T.);
#1018 = EDGE_CURVE('',#1010,#1019,#1021,.T.);
#1019 = VERTEX_POINT('',#1020);
#1020 = CARTESIAN_POINT('',(-0.852886526928,0.8125,0.157006846243));
#1021 = LINE('',#1022,#1023);
#1022 = CARTESIAN_POINT('',(-0.79518671351,0.8125,0.501736481777));
#1023 = VECTOR('',#1024,1.);
#1024 = DIRECTION('',(-0.165080604235,1.832762877409E-17,-0.986280078936
    ));
#1025 = ORIENTED_EDGE('',*,*,#1026,.T.);
#1026 = EDGE_CURVE('',#1019,#1027,#1029,.T.);
#1027 = VERTEX_POINT('',#1028);
#1028 = CARTESIAN_POINT('',(-1.04,0.8125,-2.775557561563E-17));
#1029 = CIRCLE('',#1030,0.19);
#1030 = AXIS2_PLACEMENT_3D('',#1031,#1032,#1033);
#1031 = CARTESIAN_POINT('',(-1.04,0.8125,0.19));
#1032 = DIRECTION('',(1.110223024625E-16,1.,6.255634725081E-34));
#1033 = DIRECTION('',(0.984807753012,-1.093356242223E-16,-0.173648177667
    ));
#1034 = ORIENTED_EDGE('',*,*,#1035,.T.);
#1035 = EDGE_CURVE('',#1027,#1036,#1038,.T.);
#1036 = VERTEX_POINT('',#1037);
#1037 = CARTESIAN_POINT('',(-1.05,0.8125,-2.775557561563E-17));
#1038 = LINE('',#1039,#1040);
#1039 = CARTESIAN_POINT('',(-1.04,0.8125,-2.775557561563E-17));
#1040 = VECTOR('',#1041,1.);
#1041 = DIRECTION('',(-1.,1.110223024625E-16,0.));
#1042 = ORIENTED_EDGE('',*,*,#1043,.T.);
#1043 = EDGE_CURVE('',#1036,#1044,#1046,.T.);
#1044 = VERTEX_POINT('',#1045);
#1045 = CARTESIAN_POINT('',(-1.05,0.8125,0.18));
#1046 = LINE('',#1047,#1048);
#1047 = CARTESIAN_POINT('',(-1.05,0.8125,-2.775557561563E-17));
#1048 = VECTOR('',#1049,1.);
#1049 = DIRECTION('',(0.,0.,1.));
#1050 = ORIENTED_EDGE('',*,*,#1051,.T.);
#1051 = EDGE_CURVE('',#1044,#1052,#1054,.T.);
#1052 = VERTEX_POINT('',#1053);
#1053 = CARTESIAN_POINT('',(-1.04,0.8125,0.18));
#1054 = LINE('',#1055,#1056);
#1055 = CARTESIAN_POINT('',(-1.05,0.8125,0.18));
#1056 = VECTOR('',#1057,1.);
#1057 = DIRECTION('',(1.,-1.110223024625E-16,0.));
#1058 = ORIENTED_EDGE('',*,*,#1059,.T.);
#1059 = EDGE_CURVE('',#1052,#1060,#1062,.T.);
#1060 = VERTEX_POINT('',#1061);
#1061 = CARTESIAN_POINT('',(-1.03015192247,0.8125,0.188263518223));
#1062 = CIRCLE('',#1063,1.E-02);
#1063 = AXIS2_PLACEMENT_3D('',#1064,#1065,#1066);
#1064 = CARTESIAN_POINT('',(-1.04,0.8125,0.19));
#1065 = DIRECTION('',(-1.110223024625E-16,-1.,-0.));
#1066 = DIRECTION('',(0.,0.,-1.));
#1067 = ORIENTED_EDGE('',*,*,#1068,.T.);
#1068 = EDGE_CURVE('',#1060,#1069,#1071,.T.);
#1069 = VERTEX_POINT('',#1070);
#1070 = CARTESIAN_POINT('',(-0.972452109053,0.8125,0.532993153757));
#1071 = LINE('',#1072,#1073);
#1072 = CARTESIAN_POINT('',(-1.03015192247,0.8125,0.188263518223));
#1073 = VECTOR('',#1074,1.);
#1074 = DIRECTION('',(0.165080604235,-1.832762877409E-17,0.986280078936)
  );
#1075 = ORIENTED_EDGE('',*,*,#1076,.T.);
#1076 = EDGE_CURVE('',#1069,#771,#1077,.T.);
#1077 = CIRCLE('',#1078,0.19);
#1078 = AXIS2_PLACEMENT_3D('',#1079,#1080,#1081);
#1079 = CARTESIAN_POINT('',(-0.78533863598,0.8125,0.5));
#1080 = DIRECTION('',(1.110223024625E-16,1.,6.255634725081E-34));
#1081 = DIRECTION('',(-0.984807753012,1.093356242223E-16,0.173648177667)
  );
#1082 = ORIENTED_EDGE('',*,*,#778,.T.);
#1083 = PLANE('',#1084);
#1084 = AXIS2_PLACEMENT_3D('',#1085,#1086,#1087);
#1085 = CARTESIAN_POINT('',(-0.830703739422,0.8125,0.404294248326));
#1086 = DIRECTION('',(1.110223024625E-16,1.,0.));
#1087 = DIRECTION('',(0.,-0.,1.));
#1088 = ADVANCED_FACE('',(#1089),#1127,.F.);
#1089 = FACE_BOUND('',#1090,.F.);
#1090 = EDGE_LOOP('',(#1091,#1092,#1098,#1099,#1107,#1115,#1121,#1122,
    #1123,#1124,#1125,#1126));
#1091 = ORIENTED_EDGE('',*,*,#498,.T.);
#1092 = ORIENTED_EDGE('',*,*,#1093,.T.);
#1093 = EDGE_CURVE('',#491,#810,#1094,.T.);
#1094 = LINE('',#1095,#1096);
#1095 = CARTESIAN_POINT('',(-0.78533863598,-0.8125,0.69));
#1096 = VECTOR('',#1097,1.);
#1097 = DIRECTION('',(1.,-1.110223024625E-16,0.));
#1098 = ORIENTED_EDGE('',*,*,#807,.F.);
#1099 = ORIENTED_EDGE('',*,*,#1100,.F.);
#1100 = EDGE_CURVE('',#1101,#808,#1103,.T.);
#1101 = VERTEX_POINT('',#1102);
#1102 = CARTESIAN_POINT('',(-0.4625,-0.95,0.69));
#1103 = LINE('',#1104,#1105);
#1104 = CARTESIAN_POINT('',(-0.4625,-0.95,0.69));
#1105 = VECTOR('',#1106,1.);
#1106 = DIRECTION('',(-0.707106781187,0.707106781187,0.));
#1107 = ORIENTED_EDGE('',*,*,#1108,.F.);
#1108 = EDGE_CURVE('',#1109,#1101,#1111,.T.);
#1109 = VERTEX_POINT('',#1110);
#1110 = CARTESIAN_POINT('',(0.4625,-0.95,0.69));
#1111 = LINE('',#1112,#1113);
#1112 = CARTESIAN_POINT('',(0.4625,-0.95,0.69));
#1113 = VECTOR('',#1114,1.);
#1114 = DIRECTION('',(-1.,0.,0.));
#1115 = ORIENTED_EDGE('',*,*,#1116,.F.);
#1116 = EDGE_CURVE('',#940,#1109,#1117,.T.);
#1117 = LINE('',#1118,#1119);
#1118 = CARTESIAN_POINT('',(0.575,-0.8375,0.69));
#1119 = VECTOR('',#1120,1.);
#1120 = DIRECTION('',(-0.707106781187,-0.707106781187,0.));
#1121 = ORIENTED_EDGE('',*,*,#939,.F.);
#1122 = ORIENTED_EDGE('',*,*,#991,.F.);
#1123 = ORIENTED_EDGE('',*,*,#731,.T.);
#1124 = ORIENTED_EDGE('',*,*,#747,.T.);
#1125 = ORIENTED_EDGE('',*,*,#646,.T.);
#1126 = ORIENTED_EDGE('',*,*,#607,.T.);
#1127 = PLANE('',#1128);
#1128 = AXIS2_PLACEMENT_3D('',#1129,#1130,#1131);
#1129 = CARTESIAN_POINT('',(-0.5375,0.9125,0.69));
#1130 = DIRECTION('',(1.727070457764E-15,-1.698411050721E-15,-1.));
#1131 = DIRECTION('',(0.707106781187,0.707106781187,2.026526106489E-17)
  );
#1132 = ADVANCED_FACE('',(#1133),#1219,.F.);
#1133 = FACE_BOUND('',#1134,.F.);
#1134 = EDGE_LOOP('',(#1135,#1136,#1137,#1146,#1154,#1163,#1171,#1179,
    #1187,#1196,#1204,#1213));
#1135 = ORIENTED_EDGE('',*,*,#490,.F.);
#1136 = ORIENTED_EDGE('',*,*,#512,.T.);
#1137 = ORIENTED_EDGE('',*,*,#1138,.T.);
#1138 = EDGE_CURVE('',#513,#1139,#1141,.T.);
#1139 = VERTEX_POINT('',#1140);
#1140 = CARTESIAN_POINT('',(-0.79518671351,-0.8125,0.501736481777));
#1141 = CIRCLE('',#1142,1.E-02);
#1142 = AXIS2_PLACEMENT_3D('',#1143,#1144,#1145);
#1143 = CARTESIAN_POINT('',(-0.78533863598,-0.8125,0.5));
#1144 = DIRECTION('',(-1.110223024625E-16,-1.,3.284293273311E-47));
#1145 = DIRECTION('',(-1.110223024625E-14,1.232595164407E-30,1.));
#1146 = ORIENTED_EDGE('',*,*,#1147,.T.);
#1147 = EDGE_CURVE('',#1139,#1148,#1150,.T.);
#1148 = VERTEX_POINT('',#1149);
#1149 = CARTESIAN_POINT('',(-0.852886526928,-0.8125,0.157006846243));
#1150 = LINE('',#1151,#1152);
#1151 = CARTESIAN_POINT('',(-0.79518671351,-0.8125,0.501736481777));
#1152 = VECTOR('',#1153,1.);
#1153 = DIRECTION('',(-0.165080604235,1.832762877409E-17,-0.986280078936
    ));
#1154 = ORIENTED_EDGE('',*,*,#1155,.T.);
#1155 = EDGE_CURVE('',#1148,#1156,#1158,.T.);
#1156 = VERTEX_POINT('',#1157);
#1157 = CARTESIAN_POINT('',(-1.04,-0.8125,-2.775557561563E-17));
#1158 = CIRCLE('',#1159,0.19);
#1159 = AXIS2_PLACEMENT_3D('',#1160,#1161,#1162);
#1160 = CARTESIAN_POINT('',(-1.04,-0.8125,0.19));
#1161 = DIRECTION('',(1.110223024625E-16,1.,6.255634725081E-34));
#1162 = DIRECTION('',(0.984807753012,-1.093356242223E-16,-0.173648177667
    ));
#1163 = ORIENTED_EDGE('',*,*,#1164,.T.);
#1164 = EDGE_CURVE('',#1156,#1165,#1167,.T.);
#1165 = VERTEX_POINT('',#1166);
#1166 = CARTESIAN_POINT('',(-1.05,-0.8125,-2.775557561563E-17));
#1167 = LINE('',#1168,#1169);
#1168 = CARTESIAN_POINT('',(-1.04,-0.8125,-2.775557561563E-17));
#1169 = VECTOR('',#1170,1.);
#1170 = DIRECTION('',(-1.,1.110223024625E-16,0.));
#1171 = ORIENTED_EDGE('',*,*,#1172,.T.);
#1172 = EDGE_CURVE('',#1165,#1173,#1175,.T.);
#1173 = VERTEX_POINT('',#1174);
#1174 = CARTESIAN_POINT('',(-1.05,-0.8125,0.18));
#1175 = LINE('',#1176,#1177);
#1176 = CARTESIAN_POINT('',(-1.05,-0.8125,-2.775557561563E-17));
#1177 = VECTOR('',#1178,1.);
#1178 = DIRECTION('',(0.,0.,1.));
#1179 = ORIENTED_EDGE('',*,*,#1180,.T.);
#1180 = EDGE_CURVE('',#1173,#1181,#1183,.T.);
#1181 = VERTEX_POINT('',#1182);
#1182 = CARTESIAN_POINT('',(-1.04,-0.8125,0.18));
#1183 = LINE('',#1184,#1185);
#1184 = CARTESIAN_POINT('',(-1.05,-0.8125,0.18));
#1185 = VECTOR('',#1186,1.);
#1186 = DIRECTION('',(1.,-1.110223024625E-16,0.));
#1187 = ORIENTED_EDGE('',*,*,#1188,.T.);
#1188 = EDGE_CURVE('',#1181,#1189,#1191,.T.);
#1189 = VERTEX_POINT('',#1190);
#1190 = CARTESIAN_POINT('',(-1.03015192247,-0.8125,0.188263518223));
#1191 = CIRCLE('',#1192,1.E-02);
#1192 = AXIS2_PLACEMENT_3D('',#1193,#1194,#1195);
#1193 = CARTESIAN_POINT('',(-1.04,-0.8125,0.19));
#1194 = DIRECTION('',(-1.110223024625E-16,-1.,-0.));
#1195 = DIRECTION('',(0.,0.,-1.));
#1196 = ORIENTED_EDGE('',*,*,#1197,.T.);
#1197 = EDGE_CURVE('',#1189,#1198,#1200,.T.);
#1198 = VERTEX_POINT('',#1199);
#1199 = CARTESIAN_POINT('',(-0.972452109053,-0.8125,0.532993153757));
#1200 = LINE('',#1201,#1202);
#1201 = CARTESIAN_POINT('',(-1.03015192247,-0.8125,0.188263518223));
#1202 = VECTOR('',#1203,1.);
#1203 = DIRECTION('',(0.165080604235,-1.832762877409E-17,0.986280078936)
  );
#1204 = ORIENTED_EDGE('',*,*,#1205,.T.);
#1205 = EDGE_CURVE('',#1198,#1206,#1208,.T.);
#1206 = VERTEX_POINT('',#1207);
#1207 = CARTESIAN_POINT('',(-0.78533863598,-0.8125,0.69));
#1208 = CIRCLE('',#1209,0.19);
#1209 = AXIS2_PLACEMENT_3D('',#1210,#1211,#1212);
#1210 = CARTESIAN_POINT('',(-0.78533863598,-0.8125,0.5));
#1211 = DIRECTION('',(1.110223024625E-16,1.,6.255634725081E-34));
#1212 = DIRECTION('',(-0.984807753012,1.093356242223E-16,0.173648177667)
  );
#1213 = ORIENTED_EDGE('',*,*,#1214,.T.);
#1214 = EDGE_CURVE('',#1206,#491,#1215,.T.);
#1215 = LINE('',#1216,#1217);
#1216 = CARTESIAN_POINT('',(-0.78533863598,-0.8125,0.69));
#1217 = VECTOR('',#1218,1.);
#1218 = DIRECTION('',(1.,-1.110223024625E-16,0.));
#1219 = PLANE('',#1220);
#1220 = AXIS2_PLACEMENT_3D('',#1221,#1222,#1223);
#1221 = CARTESIAN_POINT('',(-0.830703739422,-0.8125,0.404294248326));
#1222 = DIRECTION('',(1.110223024625E-16,1.,0.));
#1223 = DIRECTION('',(0.,-0.,1.));
#1224 = ADVANCED_FACE('',(#1225),#1244,.F.);
#1225 = FACE_BOUND('',#1226,.F.);
#1226 = EDGE_LOOP('',(#1227,#1228,#1237,#1243));
#1227 = ORIENTED_EDGE('',*,*,#529,.T.);
#1228 = ORIENTED_EDGE('',*,*,#1229,.T.);
#1229 = EDGE_CURVE('',#522,#1230,#1232,.T.);
#1230 = VERTEX_POINT('',#1231);
#1231 = CARTESIAN_POINT('',(-0.79518671351,-0.4875,0.501736481777));
#1232 = CIRCLE('',#1233,1.E-02);
#1233 = AXIS2_PLACEMENT_3D('',#1234,#1235,#1236);
#1234 = CARTESIAN_POINT('',(-0.78533863598,-0.4875,0.5));
#1235 = DIRECTION('',(-1.110223024625E-16,-1.,3.284293273311E-47));
#1236 = DIRECTION('',(-1.110223024625E-14,1.232595164407E-30,1.));
#1237 = ORIENTED_EDGE('',*,*,#1238,.F.);
#1238 = EDGE_CURVE('',#1139,#1230,#1239,.T.);
#1239 = LINE('',#1240,#1241);
#1240 = CARTESIAN_POINT('',(-0.79518671351,-0.8125,0.501736481777));
#1241 = VECTOR('',#1242,1.);
#1242 = DIRECTION('',(1.110223024625E-16,1.,0.));
#1243 = ORIENTED_EDGE('',*,*,#1138,.F.);
#1244 = CYLINDRICAL_SURFACE('',#1245,1.E-02);
#1245 = AXIS2_PLACEMENT_3D('',#1246,#1247,#1248);
#1246 = CARTESIAN_POINT('',(-0.78533863598,-0.8125,0.5));
#1247 = DIRECTION('',(-1.110223024625E-16,-1.,0.));
#1248 = DIRECTION('',(-1.110223024625E-14,1.232595164407E-30,1.));
#1249 = ADVANCED_FACE('',(#1250),#1328,.T.);
#1250 = FACE_BOUND('',#1251,.T.);
#1251 = EDGE_LOOP('',(#1252,#1253,#1254,#1255,#1263,#1272,#1280,#1288,
    #1296,#1305,#1313,#1322));
#1252 = ORIENTED_EDGE('',*,*,#543,.F.);
#1253 = ORIENTED_EDGE('',*,*,#521,.T.);
#1254 = ORIENTED_EDGE('',*,*,#1229,.T.);
#1255 = ORIENTED_EDGE('',*,*,#1256,.T.);
#1256 = EDGE_CURVE('',#1230,#1257,#1259,.T.);
#1257 = VERTEX_POINT('',#1258);
#1258 = CARTESIAN_POINT('',(-0.852886526928,-0.4875,0.157006846243));
#1259 = LINE('',#1260,#1261);
#1260 = CARTESIAN_POINT('',(-0.79518671351,-0.4875,0.501736481777));
#1261 = VECTOR('',#1262,1.);
#1262 = DIRECTION('',(-0.165080604235,1.832762877409E-17,-0.986280078936
    ));
#1263 = ORIENTED_EDGE('',*,*,#1264,.T.);
#1264 = EDGE_CURVE('',#1257,#1265,#1267,.T.);
#1265 = VERTEX_POINT('',#1266);
#1266 = CARTESIAN_POINT('',(-1.04,-0.4875,-2.775557561563E-17));
#1267 = CIRCLE('',#1268,0.19);
#1268 = AXIS2_PLACEMENT_3D('',#1269,#1270,#1271);
#1269 = CARTESIAN_POINT('',(-1.04,-0.4875,0.19));
#1270 = DIRECTION('',(1.110223024625E-16,1.,6.255634725081E-34));
#1271 = DIRECTION('',(0.984807753012,-1.093356242223E-16,-0.173648177667
    ));
#1272 = ORIENTED_EDGE('',*,*,#1273,.T.);
#1273 = EDGE_CURVE('',#1265,#1274,#1276,.T.);
#1274 = VERTEX_POINT('',#1275);
#1275 = CARTESIAN_POINT('',(-1.05,-0.4875,-2.775557561563E-17));
#1276 = LINE('',#1277,#1278);
#1277 = CARTESIAN_POINT('',(-1.04,-0.4875,-2.775557561563E-17));
#1278 = VECTOR('',#1279,1.);
#1279 = DIRECTION('',(-1.,1.110223024625E-16,0.));
#1280 = ORIENTED_EDGE('',*,*,#1281,.T.);
#1281 = EDGE_CURVE('',#1274,#1282,#1284,.T.);
#1282 = VERTEX_POINT('',#1283);
#1283 = CARTESIAN_POINT('',(-1.05,-0.4875,0.18));
#1284 = LINE('',#1285,#1286);
#1285 = CARTESIAN_POINT('',(-1.05,-0.4875,-2.775557561563E-17));
#1286 = VECTOR('',#1287,1.);
#1287 = DIRECTION('',(0.,0.,1.));
#1288 = ORIENTED_EDGE('',*,*,#1289,.T.);
#1289 = EDGE_CURVE('',#1282,#1290,#1292,.T.);
#1290 = VERTEX_POINT('',#1291);
#1291 = CARTESIAN_POINT('',(-1.04,-0.4875,0.18));
#1292 = LINE('',#1293,#1294);
#1293 = CARTESIAN_POINT('',(-1.05,-0.4875,0.18));
#1294 = VECTOR('',#1295,1.);
#1295 = DIRECTION('',(1.,-1.110223024625E-16,0.));
#1296 = ORIENTED_EDGE('',*,*,#1297,.T.);
#1297 = EDGE_CURVE('',#1290,#1298,#1300,.T.);
#1298 = VERTEX_POINT('',#1299);
#1299 = CARTESIAN_POINT('',(-1.03015192247,-0.4875,0.188263518223));
#1300 = CIRCLE('',#1301,1.E-02);
#1301 = AXIS2_PLACEMENT_3D('',#1302,#1303,#1304);
#1302 = CARTESIAN_POINT('',(-1.04,-0.4875,0.19));
#1303 = DIRECTION('',(-1.110223024625E-16,-1.,-0.));
#1304 = DIRECTION('',(0.,0.,-1.));
#1305 = ORIENTED_EDGE('',*,*,#1306,.T.);
#1306 = EDGE_CURVE('',#1298,#1307,#1309,.T.);
#1307 = VERTEX_POINT('',#1308);
#1308 = CARTESIAN_POINT('',(-0.972452109053,-0.4875,0.532993153757));
#1309 = LINE('',#1310,#1311);
#1310 = CARTESIAN_POINT('',(-1.03015192247,-0.4875,0.188263518223));
#1311 = VECTOR('',#1312,1.);
#1312 = DIRECTION('',(0.165080604235,-1.832762877409E-17,0.986280078936)
  );
#1313 = ORIENTED_EDGE('',*,*,#1314,.T.);
#1314 = EDGE_CURVE('',#1307,#1315,#1317,.T.);
#1315 = VERTEX_POINT('',#1316);
#1316 = CARTESIAN_POINT('',(-0.78533863598,-0.4875,0.69));
#1317 = CIRCLE('',#1318,0.19);
#1318 = AXIS2_PLACEMENT_3D('',#1319,#1320,#1321);
#1319 = CARTESIAN_POINT('',(-0.78533863598,-0.4875,0.5));
#1320 = DIRECTION('',(1.110223024625E-16,1.,6.255634725081E-34));
#1321 = DIRECTION('',(-0.984807753012,1.093356242223E-16,0.173648177667)
  );
#1322 = ORIENTED_EDGE('',*,*,#1323,.T.);
#1323 = EDGE_CURVE('',#1315,#544,#1324,.T.);
#1324 = LINE('',#1325,#1326);
#1325 = CARTESIAN_POINT('',(-0.78533863598,-0.4875,0.69));
#1326 = VECTOR('',#1327,1.);
#1327 = DIRECTION('',(1.,-1.110223024625E-16,0.));
#1328 = PLANE('',#1329);
#1329 = AXIS2_PLACEMENT_3D('',#1330,#1331,#1332);
#1330 = CARTESIAN_POINT('',(-0.830703739422,-0.4875,0.404294248326));
#1331 = DIRECTION('',(1.110223024625E-16,1.,0.));
#1332 = DIRECTION('',(0.,-0.,1.));
#1333 = ADVANCED_FACE('',(#1334),#1345,.F.);
#1334 = FACE_BOUND('',#1335,.F.);
#1335 = EDGE_LOOP('',(#1336,#1337,#1338,#1339));
#1336 = ORIENTED_EDGE('',*,*,#560,.T.);
#1337 = ORIENTED_EDGE('',*,*,#793,.T.);
#1338 = ORIENTED_EDGE('',*,*,#825,.F.);
#1339 = ORIENTED_EDGE('',*,*,#1340,.F.);
#1340 = EDGE_CURVE('',#544,#818,#1341,.T.);
#1341 = LINE('',#1342,#1343);
#1342 = CARTESIAN_POINT('',(-0.78533863598,-0.4875,0.69));
#1343 = VECTOR('',#1344,1.);
#1344 = DIRECTION('',(1.,-1.110223024625E-16,0.));
#1345 = PLANE('',#1346);
#1346 = AXIS2_PLACEMENT_3D('',#1347,#1348,#1349);
#1347 = CARTESIAN_POINT('',(-0.5375,0.9125,0.69));
#1348 = DIRECTION('',(1.727070457764E-15,-1.698411050721E-15,-1.));
#1349 = DIRECTION('',(0.707106781187,0.707106781187,2.026526106489E-17)
  );
#1350 = ADVANCED_FACE('',(#1351),#1430,.F.);
#1351 = FACE_BOUND('',#1352,.F.);
#1352 = EDGE_LOOP('',(#1353,#1354,#1355,#1364,#1372,#1381,#1389,#1397,
    #1405,#1414,#1422,#1429));
#1353 = ORIENTED_EDGE('',*,*,#552,.F.);
#1354 = ORIENTED_EDGE('',*,*,#574,.T.);
#1355 = ORIENTED_EDGE('',*,*,#1356,.T.);
#1356 = EDGE_CURVE('',#575,#1357,#1359,.T.);
#1357 = VERTEX_POINT('',#1358);
#1358 = CARTESIAN_POINT('',(-0.79518671351,0.4875,0.501736481777));
#1359 = CIRCLE('',#1360,1.E-02);
#1360 = AXIS2_PLACEMENT_3D('',#1361,#1362,#1363);
#1361 = CARTESIAN_POINT('',(-0.78533863598,0.4875,0.5));
#1362 = DIRECTION('',(-1.110223024625E-16,-1.,3.284293273311E-47));
#1363 = DIRECTION('',(-1.110223024625E-14,1.232595164407E-30,1.));
#1364 = ORIENTED_EDGE('',*,*,#1365,.T.);
#1365 = EDGE_CURVE('',#1357,#1366,#1368,.T.);
#1366 = VERTEX_POINT('',#1367);
#1367 = CARTESIAN_POINT('',(-0.852886526928,0.4875,0.157006846243));
#1368 = LINE('',#1369,#1370);
#1369 = CARTESIAN_POINT('',(-0.79518671351,0.4875,0.501736481777));
#1370 = VECTOR('',#1371,1.);
#1371 = DIRECTION('',(-0.165080604235,1.832762877409E-17,-0.986280078936
    ));
#1372 = ORIENTED_EDGE('',*,*,#1373,.T.);
#1373 = EDGE_CURVE('',#1366,#1374,#1376,.T.);
#1374 = VERTEX_POINT('',#1375);
#1375 = CARTESIAN_POINT('',(-1.04,0.4875,-2.775557561563E-17));
#1376 = CIRCLE('',#1377,0.19);
#1377 = AXIS2_PLACEMENT_3D('',#1378,#1379,#1380);
#1378 = CARTESIAN_POINT('',(-1.04,0.4875,0.19));
#1379 = DIRECTION('',(1.110223024625E-16,1.,6.255634725081E-34));
#1380 = DIRECTION('',(0.984807753012,-1.093356242223E-16,-0.173648177667
    ));
#1381 = ORIENTED_EDGE('',*,*,#1382,.T.);
#1382 = EDGE_CURVE('',#1374,#1383,#1385,.T.);
#1383 = VERTEX_POINT('',#1384);
#1384 = CARTESIAN_POINT('',(-1.05,0.4875,-2.775557561563E-17));
#1385 = LINE('',#1386,#1387);
#1386 = CARTESIAN_POINT('',(-1.04,0.4875,-2.775557561563E-17));
#1387 = VECTOR('',#1388,1.);
#1388 = DIRECTION('',(-1.,1.110223024625E-16,0.));
#1389 = ORIENTED_EDGE('',*,*,#1390,.T.);
#1390 = EDGE_CURVE('',#1383,#1391,#1393,.T.);
#1391 = VERTEX_POINT('',#1392);
#1392 = CARTESIAN_POINT('',(-1.05,0.4875,0.18));
#1393 = LINE('',#1394,#1395);
#1394 = CARTESIAN_POINT('',(-1.05,0.4875,-2.775557561563E-17));
#1395 = VECTOR('',#1396,1.);
#1396 = DIRECTION('',(0.,0.,1.));
#1397 = ORIENTED_EDGE('',*,*,#1398,.T.);
#1398 = EDGE_CURVE('',#1391,#1399,#1401,.T.);
#1399 = VERTEX_POINT('',#1400);
#1400 = CARTESIAN_POINT('',(-1.04,0.4875,0.18));
#1401 = LINE('',#1402,#1403);
#1402 = CARTESIAN_POINT('',(-1.05,0.4875,0.18));
#1403 = VECTOR('',#1404,1.);
#1404 = DIRECTION('',(1.,-1.110223024625E-16,0.));
#1405 = ORIENTED_EDGE('',*,*,#1406,.T.);
#1406 = EDGE_CURVE('',#1399,#1407,#1409,.T.);
#1407 = VERTEX_POINT('',#1408);
#1408 = CARTESIAN_POINT('',(-1.03015192247,0.4875,0.188263518223));
#1409 = CIRCLE('',#1410,1.E-02);
#1410 = AXIS2_PLACEMENT_3D('',#1411,#1412,#1413);
#1411 = CARTESIAN_POINT('',(-1.04,0.4875,0.19));
#1412 = DIRECTION('',(-1.110223024625E-16,-1.,-0.));
#1413 = DIRECTION('',(0.,0.,-1.));
#1414 = ORIENTED_EDGE('',*,*,#1415,.T.);
#1415 = EDGE_CURVE('',#1407,#1416,#1418,.T.);
#1416 = VERTEX_POINT('',#1417);
#1417 = CARTESIAN_POINT('',(-0.972452109053,0.4875,0.532993153757));
#1418 = LINE('',#1419,#1420);
#1419 = CARTESIAN_POINT('',(-1.03015192247,0.4875,0.188263518223));
#1420 = VECTOR('',#1421,1.);
#1421 = DIRECTION('',(0.165080604235,-1.832762877409E-17,0.986280078936)
  );
#1422 = ORIENTED_EDGE('',*,*,#1423,.T.);
#1423 = EDGE_CURVE('',#1416,#763,#1424,.T.);
#1424 = CIRCLE('',#1425,0.19);
#1425 = AXIS2_PLACEMENT_3D('',#1426,#1427,#1428);
#1426 = CARTESIAN_POINT('',(-0.78533863598,0.4875,0.5));
#1427 = DIRECTION('',(1.110223024625E-16,1.,6.255634725081E-34));
#1428 = DIRECTION('',(-0.984807753012,1.093356242223E-16,0.173648177667)
  );
#1429 = ORIENTED_EDGE('',*,*,#762,.T.);
#1430 = PLANE('',#1431);
#1431 = AXIS2_PLACEMENT_3D('',#1432,#1433,#1434);
#1432 = CARTESIAN_POINT('',(-0.830703739422,0.4875,0.404294248326));
#1433 = DIRECTION('',(1.110223024625E-16,1.,0.));
#1434 = DIRECTION('',(0.,-0.,1.));
#1435 = ADVANCED_FACE('',(#1436),#1447,.F.);
#1436 = FACE_BOUND('',#1437,.F.);
#1437 = EDGE_LOOP('',(#1438,#1439,#1440,#1446));
#1438 = ORIENTED_EDGE('',*,*,#591,.T.);
#1439 = ORIENTED_EDGE('',*,*,#1009,.T.);
#1440 = ORIENTED_EDGE('',*,*,#1441,.F.);
#1441 = EDGE_CURVE('',#1357,#1010,#1442,.T.);
#1442 = LINE('',#1443,#1444);
#1443 = CARTESIAN_POINT('',(-0.79518671351,0.4875,0.501736481777));
#1444 = VECTOR('',#1445,1.);
#1445 = DIRECTION('',(1.110223024625E-16,1.,0.));
#1446 = ORIENTED_EDGE('',*,*,#1356,.F.);
#1447 = CYLINDRICAL_SURFACE('',#1448,1.E-02);
#1448 = AXIS2_PLACEMENT_3D('',#1449,#1450,#1451);
#1449 = CARTESIAN_POINT('',(-0.78533863598,0.4875,0.5));
#1450 = DIRECTION('',(-1.110223024625E-16,-1.,0.));
#1451 = DIRECTION('',(-1.110223024625E-14,1.232595164407E-30,1.));
#1452 = ADVANCED_FACE('',(#1453),#1532,.F.);
#1453 = FACE_BOUND('',#1454,.F.);
#1454 = EDGE_LOOP('',(#1455,#1456,#1457,#1466,#1474,#1483,#1491,#1499,
    #1507,#1516,#1524,#1531));
#1455 = ORIENTED_EDGE('',*,*,#669,.F.);
#1456 = ORIENTED_EDGE('',*,*,#684,.T.);
#1457 = ORIENTED_EDGE('',*,*,#1458,.T.);
#1458 = EDGE_CURVE('',#685,#1459,#1461,.T.);
#1459 = VERTEX_POINT('',#1460);
#1460 = CARTESIAN_POINT('',(0.79518671351,0.1625,0.501736481777));
#1461 = CIRCLE('',#1462,1.E-02);
#1462 = AXIS2_PLACEMENT_3D('',#1463,#1464,#1465);
#1463 = CARTESIAN_POINT('',(0.78533863598,0.1625,0.5));
#1464 = DIRECTION('',(-1.110223024625E-16,1.,-3.284293273311E-47));
#1465 = DIRECTION('',(1.110223024625E-14,1.232595164407E-30,1.));
#1466 = ORIENTED_EDGE('',*,*,#1467,.T.);
#1467 = EDGE_CURVE('',#1459,#1468,#1470,.T.);
#1468 = VERTEX_POINT('',#1469);
#1469 = CARTESIAN_POINT('',(0.852886526928,0.1625,0.157006846243));
#1470 = LINE('',#1471,#1472);
#1471 = CARTESIAN_POINT('',(0.79518671351,0.1625,0.501736481777));
#1472 = VECTOR('',#1473,1.);
#1473 = DIRECTION('',(0.165080604235,1.832762877409E-17,-0.986280078936)
  );
#1474 = ORIENTED_EDGE('',*,*,#1475,.T.);
#1475 = EDGE_CURVE('',#1468,#1476,#1478,.T.);
#1476 = VERTEX_POINT('',#1477);
#1477 = CARTESIAN_POINT('',(1.04,0.1625,-2.775557561563E-17));
#1478 = CIRCLE('',#1479,0.19);
#1479 = AXIS2_PLACEMENT_3D('',#1480,#1481,#1482);
#1480 = CARTESIAN_POINT('',(1.04,0.1625,0.19));
#1481 = DIRECTION('',(1.110223024625E-16,-1.,-6.255634725081E-34));
#1482 = DIRECTION('',(-0.984807753012,-1.093356242223E-16,
    -0.173648177667));
#1483 = ORIENTED_EDGE('',*,*,#1484,.T.);
#1484 = EDGE_CURVE('',#1476,#1485,#1487,.T.);
#1485 = VERTEX_POINT('',#1486);
#1486 = CARTESIAN_POINT('',(1.05,0.1625,-2.775557561563E-17));
#1487 = LINE('',#1488,#1489);
#1488 = CARTESIAN_POINT('',(1.04,0.1625,-2.775557561563E-17));
#1489 = VECTOR('',#1490,1.);
#1490 = DIRECTION('',(1.,1.110223024625E-16,0.));
#1491 = ORIENTED_EDGE('',*,*,#1492,.T.);
#1492 = EDGE_CURVE('',#1485,#1493,#1495,.T.);
#1493 = VERTEX_POINT('',#1494);
#1494 = CARTESIAN_POINT('',(1.05,0.1625,0.18));
#1495 = LINE('',#1496,#1497);
#1496 = CARTESIAN_POINT('',(1.05,0.1625,-2.775557561563E-17));
#1497 = VECTOR('',#1498,1.);
#1498 = DIRECTION('',(0.,0.,1.));
#1499 = ORIENTED_EDGE('',*,*,#1500,.T.);
#1500 = EDGE_CURVE('',#1493,#1501,#1503,.T.);
#1501 = VERTEX_POINT('',#1502);
#1502 = CARTESIAN_POINT('',(1.04,0.1625,0.18));
#1503 = LINE('',#1504,#1505);
#1504 = CARTESIAN_POINT('',(1.05,0.1625,0.18));
#1505 = VECTOR('',#1506,1.);
#1506 = DIRECTION('',(-1.,-1.110223024625E-16,0.));
#1507 = ORIENTED_EDGE('',*,*,#1508,.T.);
#1508 = EDGE_CURVE('',#1501,#1509,#1511,.T.);
#1509 = VERTEX_POINT('',#1510);
#1510 = CARTESIAN_POINT('',(1.03015192247,0.1625,0.188263518223));
#1511 = CIRCLE('',#1512,1.E-02);
#1512 = AXIS2_PLACEMENT_3D('',#1513,#1514,#1515);
#1513 = CARTESIAN_POINT('',(1.04,0.1625,0.19));
#1514 = DIRECTION('',(-1.110223024625E-16,1.,0.));
#1515 = DIRECTION('',(0.,0.,-1.));
#1516 = ORIENTED_EDGE('',*,*,#1517,.T.);
#1517 = EDGE_CURVE('',#1509,#1518,#1520,.T.);
#1518 = VERTEX_POINT('',#1519);
#1519 = CARTESIAN_POINT('',(0.972452109053,0.1625,0.532993153757));
#1520 = LINE('',#1521,#1522);
#1521 = CARTESIAN_POINT('',(1.03015192247,0.1625,0.188263518223));
#1522 = VECTOR('',#1523,1.);
#1523 = DIRECTION('',(-0.165080604235,-1.832762877409E-17,0.986280078936
    ));
#1524 = ORIENTED_EDGE('',*,*,#1525,.T.);
#1525 = EDGE_CURVE('',#1518,#970,#1526,.T.);
#1526 = CIRCLE('',#1527,0.19);
#1527 = AXIS2_PLACEMENT_3D('',#1528,#1529,#1530);
#1528 = CARTESIAN_POINT('',(0.78533863598,0.1625,0.5));
#1529 = DIRECTION('',(1.110223024625E-16,-1.,-6.255634725081E-34));
#1530 = DIRECTION('',(0.984807753012,1.093356242223E-16,0.173648177667)
  );
#1531 = ORIENTED_EDGE('',*,*,#969,.T.);
#1532 = PLANE('',#1533);
#1533 = AXIS2_PLACEMENT_3D('',#1534,#1535,#1536);
#1534 = CARTESIAN_POINT('',(0.830703739422,0.1625,0.404294248326));
#1535 = DIRECTION('',(1.110223024625E-16,-1.,0.));
#1536 = DIRECTION('',(0.,0.,1.));
#1537 = ADVANCED_FACE('',(#1538),#1557,.F.);
#1538 = FACE_BOUND('',#1539,.F.);
#1539 = EDGE_LOOP('',(#1540,#1541,#1550,#1556));
#1540 = ORIENTED_EDGE('',*,*,#701,.T.);
#1541 = ORIENTED_EDGE('',*,*,#1542,.T.);
#1542 = EDGE_CURVE('',#694,#1543,#1545,.T.);
#1543 = VERTEX_POINT('',#1544);
#1544 = CARTESIAN_POINT('',(0.79518671351,-0.1625,0.501736481777));
#1545 = CIRCLE('',#1546,1.E-02);
#1546 = AXIS2_PLACEMENT_3D('',#1547,#1548,#1549);
#1547 = CARTESIAN_POINT('',(0.78533863598,-0.1625,0.5));
#1548 = DIRECTION('',(-1.110223024625E-16,1.,-3.284293273311E-47));
#1549 = DIRECTION('',(1.110223024625E-14,1.232595164407E-30,1.));
#1550 = ORIENTED_EDGE('',*,*,#1551,.F.);
#1551 = EDGE_CURVE('',#1459,#1543,#1552,.T.);
#1552 = LINE('',#1553,#1554);
#1553 = CARTESIAN_POINT('',(0.79518671351,0.1625,0.501736481777));
#1554 = VECTOR('',#1555,1.);
#1555 = DIRECTION('',(1.110223024625E-16,-1.,0.));
#1556 = ORIENTED_EDGE('',*,*,#1458,.F.);
#1557 = CYLINDRICAL_SURFACE('',#1558,1.E-02);
#1558 = AXIS2_PLACEMENT_3D('',#1559,#1560,#1561);
#1559 = CARTESIAN_POINT('',(0.78533863598,0.1625,0.5));
#1560 = DIRECTION('',(-1.110223024625E-16,1.,0.));
#1561 = DIRECTION('',(1.110223024625E-14,1.232595164407E-30,1.));
#1562 = ADVANCED_FACE('',(#1563),#1634,.T.);
#1563 = FACE_BOUND('',#1564,.T.);
#1564 = EDGE_LOOP('',(#1565,#1566,#1567,#1568,#1576,#1585,#1593,#1601,
    #1609,#1618,#1626,#1633));
#1565 = ORIENTED_EDGE('',*,*,#715,.F.);
#1566 = ORIENTED_EDGE('',*,*,#693,.T.);
#1567 = ORIENTED_EDGE('',*,*,#1542,.T.);
#1568 = ORIENTED_EDGE('',*,*,#1569,.T.);
#1569 = EDGE_CURVE('',#1543,#1570,#1572,.T.);
#1570 = VERTEX_POINT('',#1571);
#1571 = CARTESIAN_POINT('',(0.852886526928,-0.1625,0.157006846243));
#1572 = LINE('',#1573,#1574);
#1573 = CARTESIAN_POINT('',(0.79518671351,-0.1625,0.501736481777));
#1574 = VECTOR('',#1575,1.);
#1575 = DIRECTION('',(0.165080604235,1.832762877409E-17,-0.986280078936)
  );
#1576 = ORIENTED_EDGE('',*,*,#1577,.T.);
#1577 = EDGE_CURVE('',#1570,#1578,#1580,.T.);
#1578 = VERTEX_POINT('',#1579);
#1579 = CARTESIAN_POINT('',(1.04,-0.1625,-2.775557561563E-17));
#1580 = CIRCLE('',#1581,0.19);
#1581 = AXIS2_PLACEMENT_3D('',#1582,#1583,#1584);
#1582 = CARTESIAN_POINT('',(1.04,-0.1625,0.19));
#1583 = DIRECTION('',(1.110223024625E-16,-1.,-6.255634725081E-34));
#1584 = DIRECTION('',(-0.984807753012,-1.093356242223E-16,
    -0.173648177667));
#1585 = ORIENTED_EDGE('',*,*,#1586,.T.);
#1586 = EDGE_CURVE('',#1578,#1587,#1589,.T.);
#1587 = VERTEX_POINT('',#1588);
#1588 = CARTESIAN_POINT('',(1.05,-0.1625,-2.775557561563E-17));
#1589 = LINE('',#1590,#1591);
#1590 = CARTESIAN_POINT('',(1.04,-0.1625,-2.775557561563E-17));
#1591 = VECTOR('',#1592,1.);
#1592 = DIRECTION('',(1.,1.110223024625E-16,0.));
#1593 = ORIENTED_EDGE('',*,*,#1594,.T.);
#1594 = EDGE_CURVE('',#1587,#1595,#1597,.T.);
#1595 = VERTEX_POINT('',#1596);
#1596 = CARTESIAN_POINT('',(1.05,-0.1625,0.18));
#1597 = LINE('',#1598,#1599);
#1598 = CARTESIAN_POINT('',(1.05,-0.1625,-2.775557561563E-17));
#1599 = VECTOR('',#1600,1.);
#1600 = DIRECTION('',(0.,0.,1.));
#1601 = ORIENTED_EDGE('',*,*,#1602,.T.);
#1602 = EDGE_CURVE('',#1595,#1603,#1605,.T.);
#1603 = VERTEX_POINT('',#1604);
#1604 = CARTESIAN_POINT('',(1.04,-0.1625,0.18));
#1605 = LINE('',#1606,#1607);
#1606 = CARTESIAN_POINT('',(1.05,-0.1625,0.18));
#1607 = VECTOR('',#1608,1.);
#1608 = DIRECTION('',(-1.,-1.110223024625E-16,0.));
#1609 = ORIENTED_EDGE('',*,*,#1610,.T.);
#1610 = EDGE_CURVE('',#1603,#1611,#1613,.T.);
#1611 = VERTEX_POINT('',#1612);
#1612 = CARTESIAN_POINT('',(1.03015192247,-0.1625,0.188263518223));
#1613 = CIRCLE('',#1614,1.E-02);
#1614 = AXIS2_PLACEMENT_3D('',#1615,#1616,#1617);
#1615 = CARTESIAN_POINT('',(1.04,-0.1625,0.19));
#1616 = DIRECTION('',(-1.110223024625E-16,1.,0.));
#1617 = DIRECTION('',(0.,0.,-1.));
#1618 = ORIENTED_EDGE('',*,*,#1619,.T.);
#1619 = EDGE_CURVE('',#1611,#1620,#1622,.T.);
#1620 = VERTEX_POINT('',#1621);
#1621 = CARTESIAN_POINT('',(0.972452109053,-0.1625,0.532993153757));
#1622 = LINE('',#1623,#1624);
#1623 = CARTESIAN_POINT('',(1.03015192247,-0.1625,0.188263518223));
#1624 = VECTOR('',#1625,1.);
#1625 = DIRECTION('',(-0.165080604235,-1.832762877409E-17,0.986280078936
    ));
#1626 = ORIENTED_EDGE('',*,*,#1627,.T.);
#1627 = EDGE_CURVE('',#1620,#978,#1628,.T.);
#1628 = CIRCLE('',#1629,0.19);
#1629 = AXIS2_PLACEMENT_3D('',#1630,#1631,#1632);
#1630 = CARTESIAN_POINT('',(0.78533863598,-0.1625,0.5));
#1631 = DIRECTION('',(1.110223024625E-16,-1.,-6.255634725081E-34));
#1632 = DIRECTION('',(0.984807753012,1.093356242223E-16,0.173648177667)
  );
#1633 = ORIENTED_EDGE('',*,*,#985,.T.);
#1634 = PLANE('',#1635);
#1635 = AXIS2_PLACEMENT_3D('',#1636,#1637,#1638);
#1636 = CARTESIAN_POINT('',(0.830703739422,-0.1625,0.404294248326));
#1637 = DIRECTION('',(1.110223024625E-16,-1.,0.));
#1638 = DIRECTION('',(0.,0.,1.));
#1639 = ADVANCED_FACE('',(#1640),#1651,.T.);
#1640 = FACE_BOUND('',#1641,.T.);
#1641 = EDGE_LOOP('',(#1642,#1643,#1644,#1645));
#1642 = ORIENTED_EDGE('',*,*,#1423,.T.);
#1643 = ORIENTED_EDGE('',*,*,#770,.T.);
#1644 = ORIENTED_EDGE('',*,*,#1076,.F.);
#1645 = ORIENTED_EDGE('',*,*,#1646,.F.);
#1646 = EDGE_CURVE('',#1416,#1069,#1647,.T.);
#1647 = LINE('',#1648,#1649);
#1648 = CARTESIAN_POINT('',(-0.972452109053,0.4875,0.532993153757));
#1649 = VECTOR('',#1650,1.);
#1650 = DIRECTION('',(1.110223024625E-16,1.,0.));
#1651 = CYLINDRICAL_SURFACE('',#1652,0.19);
#1652 = AXIS2_PLACEMENT_3D('',#1653,#1654,#1655);
#1653 = CARTESIAN_POINT('',(-0.78533863598,0.4875,0.5));
#1654 = DIRECTION('',(-1.110223024625E-16,-1.,-0.));
#1655 = DIRECTION('',(-0.984807753012,1.093356242223E-16,0.173648177667)
  );
#1656 = ADVANCED_FACE('',(#1657),#1670,.F.);
#1657 = FACE_BOUND('',#1658,.F.);
#1658 = EDGE_LOOP('',(#1659,#1660,#1666,#1667,#1668,#1669));
#1659 = ORIENTED_EDGE('',*,*,#1214,.F.);
#1660 = ORIENTED_EDGE('',*,*,#1661,.T.);
#1661 = EDGE_CURVE('',#1206,#1315,#1662,.T.);
#1662 = LINE('',#1663,#1664);
#1663 = CARTESIAN_POINT('',(-0.78533863598,-0.8125,0.69));
#1664 = VECTOR('',#1665,1.);
#1665 = DIRECTION('',(1.110223024625E-16,1.,0.));
#1666 = ORIENTED_EDGE('',*,*,#1323,.T.);
#1667 = ORIENTED_EDGE('',*,*,#1340,.T.);
#1668 = ORIENTED_EDGE('',*,*,#817,.F.);
#1669 = ORIENTED_EDGE('',*,*,#1093,.F.);
#1670 = PLANE('',#1671);
#1671 = AXIS2_PLACEMENT_3D('',#1672,#1673,#1674);
#1672 = CARTESIAN_POINT('',(-0.78533863598,-0.8125,0.69));
#1673 = DIRECTION('',(0.,0.,-1.));
#1674 = DIRECTION('',(1.,-1.110223024625E-16,0.));
#1675 = ADVANCED_FACE('',(#1676,#1705),#1716,.T.);
#1676 = FACE_BOUND('',#1677,.T.);
#1677 = EDGE_LOOP('',(#1678,#1679,#1680,#1688,#1696,#1702,#1703,#1704));
#1678 = ORIENTED_EDGE('',*,*,#869,.F.);
#1679 = ORIENTED_EDGE('',*,*,#840,.F.);
#1680 = ORIENTED_EDGE('',*,*,#1681,.F.);
#1681 = EDGE_CURVE('',#1682,#841,#1684,.T.);
#1682 = VERTEX_POINT('',#1683);
#1683 = CARTESIAN_POINT('',(-0.426352968955,-0.87770593791,1.1));
#1684 = LINE('',#1685,#1686);
#1685 = CARTESIAN_POINT('',(-0.426352968955,-0.87770593791,1.1));
#1686 = VECTOR('',#1687,1.);
#1687 = DIRECTION('',(-0.707106781187,0.707106781187,0.));
#1688 = ORIENTED_EDGE('',*,*,#1689,.F.);
#1689 = EDGE_CURVE('',#1690,#1682,#1692,.T.);
#1690 = VERTEX_POINT('',#1691);
#1691 = CARTESIAN_POINT('',(0.426352968955,-0.87770593791,1.1));
#1692 = LINE('',#1693,#1694);
#1693 = CARTESIAN_POINT('',(0.426352968955,-0.87770593791,1.1));
#1694 = VECTOR('',#1695,1.);
#1695 = DIRECTION('',(-1.,0.,0.));
#1696 = ORIENTED_EDGE('',*,*,#1697,.F.);
#1697 = EDGE_CURVE('',#948,#1690,#1698,.T.);
#1698 = LINE('',#1699,#1700);
#1699 = CARTESIAN_POINT('',(0.50270593791,-0.801352968955,1.1));
#1700 = VECTOR('',#1701,1.);
#1701 = DIRECTION('',(-0.707106781187,-0.707106781187,0.));
#1702 = ORIENTED_EDGE('',*,*,#954,.F.);
#1703 = ORIENTED_EDGE('',*,*,#915,.F.);
#1704 = ORIENTED_EDGE('',*,*,#892,.F.);
#1705 = FACE_BOUND('',#1706,.T.);
#1706 = EDGE_LOOP('',(#1707));
#1707 = ORIENTED_EDGE('',*,*,#1708,.F.);
#1708 = EDGE_CURVE('',#1709,#1709,#1711,.T.);
#1709 = VERTEX_POINT('',#1710);
#1710 = CARTESIAN_POINT('',(-0.224394156537,0.692164750328,1.1));
#1711 = CIRCLE('',#1712,9.277059379095E-02);
#1712 = AXIS2_PLACEMENT_3D('',#1713,#1714,#1715);
#1713 = CARTESIAN_POINT('',(-0.317164750328,0.692164750328,1.1));
#1714 = DIRECTION('',(0.,0.,1.));
#1715 = DIRECTION('',(1.,0.,-0.));
#1716 = PLANE('',#1717);
#1717 = AXIS2_PLACEMENT_3D('',#1718,#1719,#1720);
#1718 = CARTESIAN_POINT('',(-0.50270593791,0.801352968955,1.1));
#1719 = DIRECTION('',(-0.,0.,1.));
#1720 = DIRECTION('',(0.484148291183,-0.874985961113,0.));
#1721 = ADVANCED_FACE('',(#1722),#1732,.F.);
#1722 = FACE_BOUND('',#1723,.F.);
#1723 = EDGE_LOOP('',(#1724,#1725,#1726,#1727));
#1724 = ORIENTED_EDGE('',*,*,#1100,.T.);
#1725 = ORIENTED_EDGE('',*,*,#848,.T.);
#1726 = ORIENTED_EDGE('',*,*,#1681,.F.);
#1727 = ORIENTED_EDGE('',*,*,#1728,.F.);
#1728 = EDGE_CURVE('',#1101,#1682,#1729,.T.);
#1729 = B_SPLINE_CURVE_WITH_KNOTS('',1,(#1730,#1731),.UNSPECIFIED.,.F.,
  .F.,(2,2),(0.,1.),.PIECEWISE_BEZIER_KNOTS.);
#1730 = CARTESIAN_POINT('',(-0.4625,-0.95,0.69));
#1731 = CARTESIAN_POINT('',(-0.426352968955,-0.87770593791,1.1));
#1732 = B_SPLINE_SURFACE_WITH_KNOTS('',1,1,(
    (#1733,#1734)
    ,(#1735,#1736
    )),.UNSPECIFIED.,.F.,.F.,.F.,(2,2),(2,2),(0.,0.159099025767),(0.,1.)
  ,.PIECEWISE_BEZIER_KNOTS.);
#1733 = CARTESIAN_POINT('',(-0.4625,-0.95,0.69));
#1734 = CARTESIAN_POINT('',(-0.426352968955,-0.87770593791,1.1));
#1735 = CARTESIAN_POINT('',(-0.575,-0.8375,0.69));
#1736 = CARTESIAN_POINT('',(-0.50270593791,-0.801352968955,1.1));
#1737 = ADVANCED_FACE('',(#1738),#1748,.F.);
#1738 = FACE_BOUND('',#1739,.F.);
#1739 = EDGE_LOOP('',(#1740,#1741,#1746,#1747));
#1740 = ORIENTED_EDGE('',*,*,#1116,.T.);
#1741 = ORIENTED_EDGE('',*,*,#1742,.T.);
#1742 = EDGE_CURVE('',#1109,#1690,#1743,.T.);
#1743 = B_SPLINE_CURVE_WITH_KNOTS('',1,(#1744,#1745),.UNSPECIFIED.,.F.,
  .F.,(2,2),(0.,1.),.PIECEWISE_BEZIER_KNOTS.);
#1744 = CARTESIAN_POINT('',(0.4625,-0.95,0.69));
#1745 = CARTESIAN_POINT('',(0.426352968955,-0.87770593791,1.1));
#1746 = ORIENTED_EDGE('',*,*,#1697,.F.);
#1747 = ORIENTED_EDGE('',*,*,#947,.F.);
#1748 = B_SPLINE_SURFACE_WITH_KNOTS('',1,1,(
    (#1749,#1750)
    ,(#1751,#1752
    )),.UNSPECIFIED.,.F.,.F.,.F.,(2,2),(2,2),(0.,0.159099025767),(0.,1.)
  ,.PIECEWISE_BEZIER_KNOTS.);
#1749 = CARTESIAN_POINT('',(0.575,-0.8375,0.69));
#1750 = CARTESIAN_POINT('',(0.50270593791,-0.801352968955,1.1));
#1751 = CARTESIAN_POINT('',(0.4625,-0.95,0.69));
#1752 = CARTESIAN_POINT('',(0.426352968955,-0.87770593791,1.1));
#1753 = ADVANCED_FACE('',(#1754),#1765,.T.);
#1754 = FACE_BOUND('',#1755,.T.);
#1755 = EDGE_LOOP('',(#1756,#1757,#1758,#1759));
#1756 = ORIENTED_EDGE('',*,*,#1525,.T.);
#1757 = ORIENTED_EDGE('',*,*,#977,.T.);
#1758 = ORIENTED_EDGE('',*,*,#1627,.F.);
#1759 = ORIENTED_EDGE('',*,*,#1760,.F.);
#1760 = EDGE_CURVE('',#1518,#1620,#1761,.T.);
#1761 = LINE('',#1762,#1763);
#1762 = CARTESIAN_POINT('',(0.972452109053,0.1625,0.532993153757));
#1763 = VECTOR('',#1764,1.);
#1764 = DIRECTION('',(1.110223024625E-16,-1.,0.));
#1765 = CYLINDRICAL_SURFACE('',#1766,0.19);
#1766 = AXIS2_PLACEMENT_3D('',#1767,#1768,#1769);
#1767 = CARTESIAN_POINT('',(0.78533863598,0.1625,0.5));
#1768 = DIRECTION('',(-1.110223024625E-16,1.,-0.));
#1769 = DIRECTION('',(0.984807753012,1.093356242223E-16,0.173648177667)
  );
#1770 = ADVANCED_FACE('',(#1771),#1782,.F.);
#1771 = FACE_BOUND('',#1772,.F.);
#1772 = EDGE_LOOP('',(#1773,#1779,#1780,#1781));
#1773 = ORIENTED_EDGE('',*,*,#1774,.T.);
#1774 = EDGE_CURVE('',#1407,#1060,#1775,.T.);
#1775 = LINE('',#1776,#1777);
#1776 = CARTESIAN_POINT('',(-1.03015192247,0.4875,0.188263518223));
#1777 = VECTOR('',#1778,1.);
#1778 = DIRECTION('',(1.110223024625E-16,1.,0.));
#1779 = ORIENTED_EDGE('',*,*,#1068,.T.);
#1780 = ORIENTED_EDGE('',*,*,#1646,.F.);
#1781 = ORIENTED_EDGE('',*,*,#1415,.F.);
#1782 = PLANE('',#1783);
#1783 = AXIS2_PLACEMENT_3D('',#1784,#1785,#1786);
#1784 = CARTESIAN_POINT('',(-1.03015192247,0.4875,0.188263518223));
#1785 = DIRECTION('',(0.986280078936,-1.094990852363E-16,-0.165080604235
    ));
#1786 = DIRECTION('',(0.165080604235,-1.832762877409E-17,0.986280078936)
  );
#1787 = ADVANCED_FACE('',(#1788),#1799,.F.);
#1788 = FACE_BOUND('',#1789,.F.);
#1789 = EDGE_LOOP('',(#1790,#1796,#1797,#1798));
#1790 = ORIENTED_EDGE('',*,*,#1791,.T.);
#1791 = EDGE_CURVE('',#1399,#1052,#1792,.T.);
#1792 = LINE('',#1793,#1794);
#1793 = CARTESIAN_POINT('',(-1.04,0.4875,0.18));
#1794 = VECTOR('',#1795,1.);
#1795 = DIRECTION('',(1.110223024625E-16,1.,0.));
#1796 = ORIENTED_EDGE('',*,*,#1059,.T.);
#1797 = ORIENTED_EDGE('',*,*,#1774,.F.);
#1798 = ORIENTED_EDGE('',*,*,#1406,.F.);
#1799 = CYLINDRICAL_SURFACE('',#1800,1.E-02);
#1800 = AXIS2_PLACEMENT_3D('',#1801,#1802,#1803);
#1801 = CARTESIAN_POINT('',(-1.04,0.4875,0.19));
#1802 = DIRECTION('',(-1.110223024625E-16,-1.,0.));
#1803 = DIRECTION('',(-0.,0.,-1.));
#1804 = ADVANCED_FACE('',(#1805),#1816,.F.);
#1805 = FACE_BOUND('',#1806,.F.);
#1806 = EDGE_LOOP('',(#1807,#1813,#1814,#1815));
#1807 = ORIENTED_EDGE('',*,*,#1808,.T.);
#1808 = EDGE_CURVE('',#1391,#1044,#1809,.T.);
#1809 = LINE('',#1810,#1811);
#1810 = CARTESIAN_POINT('',(-1.05,0.4875,0.18));
#1811 = VECTOR('',#1812,1.);
#1812 = DIRECTION('',(1.110223024625E-16,1.,0.));
#1813 = ORIENTED_EDGE('',*,*,#1051,.T.);
#1814 = ORIENTED_EDGE('',*,*,#1791,.F.);
#1815 = ORIENTED_EDGE('',*,*,#1398,.F.);
#1816 = PLANE('',#1817);
#1817 = AXIS2_PLACEMENT_3D('',#1818,#1819,#1820);
#1818 = CARTESIAN_POINT('',(-1.05,0.4875,0.18));
#1819 = DIRECTION('',(0.,0.,-1.));
#1820 = DIRECTION('',(1.,-1.110223024625E-16,0.));
#1821 = ADVANCED_FACE('',(#1822),#1833,.F.);
#1822 = FACE_BOUND('',#1823,.F.);
#1823 = EDGE_LOOP('',(#1824,#1830,#1831,#1832));
#1824 = ORIENTED_EDGE('',*,*,#1825,.T.);
#1825 = EDGE_CURVE('',#1383,#1036,#1826,.T.);
#1826 = LINE('',#1827,#1828);
#1827 = CARTESIAN_POINT('',(-1.05,0.4875,-2.775557561563E-17));
#1828 = VECTOR('',#1829,1.);
#1829 = DIRECTION('',(1.110223024625E-16,1.,0.));
#1830 = ORIENTED_EDGE('',*,*,#1043,.T.);
#1831 = ORIENTED_EDGE('',*,*,#1808,.F.);
#1832 = ORIENTED_EDGE('',*,*,#1390,.F.);
#1833 = PLANE('',#1834);
#1834 = AXIS2_PLACEMENT_3D('',#1835,#1836,#1837);
#1835 = CARTESIAN_POINT('',(-1.05,0.4875,-2.775557561563E-17));
#1836 = DIRECTION('',(1.,-1.110223024625E-16,0.));
#1837 = DIRECTION('',(0.,0.,1.));
#1838 = ADVANCED_FACE('',(#1839),#1850,.F.);
#1839 = FACE_BOUND('',#1840,.F.);
#1840 = EDGE_LOOP('',(#1841,#1847,#1848,#1849));
#1841 = ORIENTED_EDGE('',*,*,#1842,.T.);
#1842 = EDGE_CURVE('',#1374,#1027,#1843,.T.);
#1843 = LINE('',#1844,#1845);
#1844 = CARTESIAN_POINT('',(-1.04,0.4875,-2.775557561563E-17));
#1845 = VECTOR('',#1846,1.);
#1846 = DIRECTION('',(1.110223024625E-16,1.,0.));
#1847 = ORIENTED_EDGE('',*,*,#1035,.T.);
#1848 = ORIENTED_EDGE('',*,*,#1825,.F.);
#1849 = ORIENTED_EDGE('',*,*,#1382,.F.);
#1850 = PLANE('',#1851);
#1851 = AXIS2_PLACEMENT_3D('',#1852,#1853,#1854);
#1852 = CARTESIAN_POINT('',(-1.04,0.4875,-2.775557561563E-17));
#1853 = DIRECTION('',(0.,0.,1.));
#1854 = DIRECTION('',(-1.,1.110223024625E-16,0.));
#1855 = ADVANCED_FACE('',(#1856),#1867,.T.);
#1856 = FACE_BOUND('',#1857,.T.);
#1857 = EDGE_LOOP('',(#1858,#1859,#1860,#1861));
#1858 = ORIENTED_EDGE('',*,*,#1373,.T.);
#1859 = ORIENTED_EDGE('',*,*,#1842,.T.);
#1860 = ORIENTED_EDGE('',*,*,#1026,.F.);
#1861 = ORIENTED_EDGE('',*,*,#1862,.F.);
#1862 = EDGE_CURVE('',#1366,#1019,#1863,.T.);
#1863 = LINE('',#1864,#1865);
#1864 = CARTESIAN_POINT('',(-0.852886526928,0.4875,0.157006846243));
#1865 = VECTOR('',#1866,1.);
#1866 = DIRECTION('',(1.110223024625E-16,1.,0.));
#1867 = CYLINDRICAL_SURFACE('',#1868,0.19);
#1868 = AXIS2_PLACEMENT_3D('',#1869,#1870,#1871);
#1869 = CARTESIAN_POINT('',(-1.04,0.4875,0.19));
#1870 = DIRECTION('',(-1.110223024625E-16,-1.,-0.));
#1871 = DIRECTION('',(0.984807753012,-1.093356242223E-16,-0.173648177667
    ));
#1872 = ADVANCED_FACE('',(#1873),#1879,.F.);
#1873 = FACE_BOUND('',#1874,.F.);
#1874 = EDGE_LOOP('',(#1875,#1876,#1877,#1878));
#1875 = ORIENTED_EDGE('',*,*,#1441,.T.);
#1876 = ORIENTED_EDGE('',*,*,#1018,.T.);
#1877 = ORIENTED_EDGE('',*,*,#1862,.F.);
#1878 = ORIENTED_EDGE('',*,*,#1365,.F.);
#1879 = PLANE('',#1880);
#1880 = AXIS2_PLACEMENT_3D('',#1881,#1882,#1883);
#1881 = CARTESIAN_POINT('',(-0.79518671351,0.4875,0.501736481777));
#1882 = DIRECTION('',(-0.986280078936,1.094990852363E-16,0.165080604235)
  );
#1883 = DIRECTION('',(-0.165080604235,1.832762877409E-17,-0.986280078936
    ));
#1884 = ADVANCED_FACE('',(#1885),#1891,.F.);
#1885 = FACE_BOUND('',#1886,.F.);
#1886 = EDGE_LOOP('',(#1887,#1888,#1889,#1890));
#1887 = ORIENTED_EDGE('',*,*,#1108,.T.);
#1888 = ORIENTED_EDGE('',*,*,#1728,.T.);
#1889 = ORIENTED_EDGE('',*,*,#1689,.F.);
#1890 = ORIENTED_EDGE('',*,*,#1742,.F.);
#1891 = B_SPLINE_SURFACE_WITH_KNOTS('',1,1,(
    (#1892,#1893)
    ,(#1894,#1895
    )),.UNSPECIFIED.,.F.,.F.,.F.,(2,2),(2,2),(0.,0.925),(0.,1.),
  .PIECEWISE_BEZIER_KNOTS.);
#1892 = CARTESIAN_POINT('',(0.4625,-0.95,0.69));
#1893 = CARTESIAN_POINT('',(0.426352968955,-0.87770593791,1.1));
#1894 = CARTESIAN_POINT('',(-0.4625,-0.95,0.69));
#1895 = CARTESIAN_POINT('',(-0.426352968955,-0.87770593791,1.1));
#1896 = ADVANCED_FACE('',(#1897),#1908,.T.);
#1897 = FACE_BOUND('',#1898,.T.);
#1898 = EDGE_LOOP('',(#1899,#1900,#1901,#1902));
#1899 = ORIENTED_EDGE('',*,*,#1205,.T.);
#1900 = ORIENTED_EDGE('',*,*,#1661,.T.);
#1901 = ORIENTED_EDGE('',*,*,#1314,.F.);
#1902 = ORIENTED_EDGE('',*,*,#1903,.F.);
#1903 = EDGE_CURVE('',#1198,#1307,#1904,.T.);
#1904 = LINE('',#1905,#1906);
#1905 = CARTESIAN_POINT('',(-0.972452109053,-0.8125,0.532993153757));
#1906 = VECTOR('',#1907,1.);
#1907 = DIRECTION('',(1.110223024625E-16,1.,0.));
#1908 = CYLINDRICAL_SURFACE('',#1909,0.19);
#1909 = AXIS2_PLACEMENT_3D('',#1910,#1911,#1912);
#1910 = CARTESIAN_POINT('',(-0.78533863598,-0.8125,0.5));
#1911 = DIRECTION('',(-1.110223024625E-16,-1.,-0.));
#1912 = DIRECTION('',(-0.984807753012,1.093356242223E-16,0.173648177667)
  );
#1913 = ADVANCED_FACE('',(#1914),#1925,.F.);
#1914 = FACE_BOUND('',#1915,.F.);
#1915 = EDGE_LOOP('',(#1916,#1922,#1923,#1924));
#1916 = ORIENTED_EDGE('',*,*,#1917,.T.);
#1917 = EDGE_CURVE('',#1189,#1298,#1918,.T.);
#1918 = LINE('',#1919,#1920);
#1919 = CARTESIAN_POINT('',(-1.03015192247,-0.8125,0.188263518223));
#1920 = VECTOR('',#1921,1.);
#1921 = DIRECTION('',(1.110223024625E-16,1.,0.));
#1922 = ORIENTED_EDGE('',*,*,#1306,.T.);
#1923 = ORIENTED_EDGE('',*,*,#1903,.F.);
#1924 = ORIENTED_EDGE('',*,*,#1197,.F.);
#1925 = PLANE('',#1926);
#1926 = AXIS2_PLACEMENT_3D('',#1927,#1928,#1929);
#1927 = CARTESIAN_POINT('',(-1.03015192247,-0.8125,0.188263518223));
#1928 = DIRECTION('',(0.986280078936,-1.094990852363E-16,-0.165080604235
    ));
#1929 = DIRECTION('',(0.165080604235,-1.832762877409E-17,0.986280078936)
  );
#1930 = ADVANCED_FACE('',(#1931),#1942,.F.);
#1931 = FACE_BOUND('',#1932,.F.);
#1932 = EDGE_LOOP('',(#1933,#1939,#1940,#1941));
#1933 = ORIENTED_EDGE('',*,*,#1934,.T.);
#1934 = EDGE_CURVE('',#1181,#1290,#1935,.T.);
#1935 = LINE('',#1936,#1937);
#1936 = CARTESIAN_POINT('',(-1.04,-0.8125,0.18));
#1937 = VECTOR('',#1938,1.);
#1938 = DIRECTION('',(1.110223024625E-16,1.,0.));
#1939 = ORIENTED_EDGE('',*,*,#1297,.T.);
#1940 = ORIENTED_EDGE('',*,*,#1917,.F.);
#1941 = ORIENTED_EDGE('',*,*,#1188,.F.);
#1942 = CYLINDRICAL_SURFACE('',#1943,1.E-02);
#1943 = AXIS2_PLACEMENT_3D('',#1944,#1945,#1946);
#1944 = CARTESIAN_POINT('',(-1.04,-0.8125,0.19));
#1945 = DIRECTION('',(-1.110223024625E-16,-1.,0.));
#1946 = DIRECTION('',(-0.,0.,-1.));
#1947 = ADVANCED_FACE('',(#1948),#1959,.F.);
#1948 = FACE_BOUND('',#1949,.F.);
#1949 = EDGE_LOOP('',(#1950,#1956,#1957,#1958));
#1950 = ORIENTED_EDGE('',*,*,#1951,.T.);
#1951 = EDGE_CURVE('',#1173,#1282,#1952,.T.);
#1952 = LINE('',#1953,#1954);
#1953 = CARTESIAN_POINT('',(-1.05,-0.8125,0.18));
#1954 = VECTOR('',#1955,1.);
#1955 = DIRECTION('',(1.110223024625E-16,1.,0.));
#1956 = ORIENTED_EDGE('',*,*,#1289,.T.);
#1957 = ORIENTED_EDGE('',*,*,#1934,.F.);
#1958 = ORIENTED_EDGE('',*,*,#1180,.F.);
#1959 = PLANE('',#1960);
#1960 = AXIS2_PLACEMENT_3D('',#1961,#1962,#1963);
#1961 = CARTESIAN_POINT('',(-1.05,-0.8125,0.18));
#1962 = DIRECTION('',(0.,0.,-1.));
#1963 = DIRECTION('',(1.,-1.110223024625E-16,0.));
#1964 = ADVANCED_FACE('',(#1965),#1976,.F.);
#1965 = FACE_BOUND('',#1966,.F.);
#1966 = EDGE_LOOP('',(#1967,#1973,#1974,#1975));
#1967 = ORIENTED_EDGE('',*,*,#1968,.T.);
#1968 = EDGE_CURVE('',#1165,#1274,#1969,.T.);
#1969 = LINE('',#1970,#1971);
#1970 = CARTESIAN_POINT('',(-1.05,-0.8125,-2.775557561563E-17));
#1971 = VECTOR('',#1972,1.);
#1972 = DIRECTION('',(1.110223024625E-16,1.,0.));
#1973 = ORIENTED_EDGE('',*,*,#1281,.T.);
#1974 = ORIENTED_EDGE('',*,*,#1951,.F.);
#1975 = ORIENTED_EDGE('',*,*,#1172,.F.);
#1976 = PLANE('',#1977);
#1977 = AXIS2_PLACEMENT_3D('',#1978,#1979,#1980);
#1978 = CARTESIAN_POINT('',(-1.05,-0.8125,-2.775557561563E-17));
#1979 = DIRECTION('',(1.,-1.110223024625E-16,0.));
#1980 = DIRECTION('',(0.,0.,1.));
#1981 = ADVANCED_FACE('',(#1982),#1993,.F.);
#1982 = FACE_BOUND('',#1983,.F.);
#1983 = EDGE_LOOP('',(#1984,#1990,#1991,#1992));
#1984 = ORIENTED_EDGE('',*,*,#1985,.T.);
#1985 = EDGE_CURVE('',#1156,#1265,#1986,.T.);
#1986 = LINE('',#1987,#1988);
#1987 = CARTESIAN_POINT('',(-1.04,-0.8125,-2.775557561563E-17));
#1988 = VECTOR('',#1989,1.);
#1989 = DIRECTION('',(1.110223024625E-16,1.,0.));
#1990 = ORIENTED_EDGE('',*,*,#1273,.T.);
#1991 = ORIENTED_EDGE('',*,*,#1968,.F.);
#1992 = ORIENTED_EDGE('',*,*,#1164,.F.);
#1993 = PLANE('',#1994);
#1994 = AXIS2_PLACEMENT_3D('',#1995,#1996,#1997);
#1995 = CARTESIAN_POINT('',(-1.04,-0.8125,-2.775557561563E-17));
#1996 = DIRECTION('',(0.,0.,1.));
#1997 = DIRECTION('',(-1.,1.110223024625E-16,0.));
#1998 = ADVANCED_FACE('',(#1999),#2010,.T.);
#1999 = FACE_BOUND('',#2000,.T.);
#2000 = EDGE_LOOP('',(#2001,#2002,#2003,#2004));
#2001 = ORIENTED_EDGE('',*,*,#1155,.T.);
#2002 = ORIENTED_EDGE('',*,*,#1985,.T.);
#2003 = ORIENTED_EDGE('',*,*,#1264,.F.);
#2004 = ORIENTED_EDGE('',*,*,#2005,.F.);
#2005 = EDGE_CURVE('',#1148,#1257,#2006,.T.);
#2006 = LINE('',#2007,#2008);
#2007 = CARTESIAN_POINT('',(-0.852886526928,-0.8125,0.157006846243));
#2008 = VECTOR('',#2009,1.);
#2009 = DIRECTION('',(1.110223024625E-16,1.,0.));
#2010 = CYLINDRICAL_SURFACE('',#2011,0.19);
#2011 = AXIS2_PLACEMENT_3D('',#2012,#2013,#2014);
#2012 = CARTESIAN_POINT('',(-1.04,-0.8125,0.19));
#2013 = DIRECTION('',(-1.110223024625E-16,-1.,-0.));
#2014 = DIRECTION('',(0.984807753012,-1.093356242223E-16,-0.173648177667
    ));
#2015 = ADVANCED_FACE('',(#2016),#2022,.F.);
#2016 = FACE_BOUND('',#2017,.F.);
#2017 = EDGE_LOOP('',(#2018,#2019,#2020,#2021));
#2018 = ORIENTED_EDGE('',*,*,#1238,.T.);
#2019 = ORIENTED_EDGE('',*,*,#1256,.T.);
#2020 = ORIENTED_EDGE('',*,*,#2005,.F.);
#2021 = ORIENTED_EDGE('',*,*,#1147,.F.);
#2022 = PLANE('',#2023);
#2023 = AXIS2_PLACEMENT_3D('',#2024,#2025,#2026);
#2024 = CARTESIAN_POINT('',(-0.79518671351,-0.8125,0.501736481777));
#2025 = DIRECTION('',(-0.986280078936,1.094990852363E-16,0.165080604235)
  );
#2026 = DIRECTION('',(-0.165080604235,1.832762877409E-17,-0.986280078936
    ));
#2027 = ADVANCED_FACE('',(#2028),#2039,.F.);
#2028 = FACE_BOUND('',#2029,.F.);
#2029 = EDGE_LOOP('',(#2030,#2036,#2037,#2038));
#2030 = ORIENTED_EDGE('',*,*,#2031,.T.);
#2031 = EDGE_CURVE('',#1509,#1611,#2032,.T.);
#2032 = LINE('',#2033,#2034);
#2033 = CARTESIAN_POINT('',(1.03015192247,0.1625,0.188263518223));
#2034 = VECTOR('',#2035,1.);
#2035 = DIRECTION('',(1.110223024625E-16,-1.,0.));
#2036 = ORIENTED_EDGE('',*,*,#1619,.T.);
#2037 = ORIENTED_EDGE('',*,*,#1760,.F.);
#2038 = ORIENTED_EDGE('',*,*,#1517,.F.);
#2039 = PLANE('',#2040);
#2040 = AXIS2_PLACEMENT_3D('',#2041,#2042,#2043);
#2041 = CARTESIAN_POINT('',(1.03015192247,0.1625,0.188263518223));
#2042 = DIRECTION('',(-0.986280078936,-1.094990852363E-16,
    -0.165080604235));
#2043 = DIRECTION('',(-0.165080604235,-1.832762877409E-17,0.986280078936
    ));
#2044 = ADVANCED_FACE('',(#2045),#2056,.F.);
#2045 = FACE_BOUND('',#2046,.F.);
#2046 = EDGE_LOOP('',(#2047,#2053,#2054,#2055));
#2047 = ORIENTED_EDGE('',*,*,#2048,.T.);
#2048 = EDGE_CURVE('',#1501,#1603,#2049,.T.);
#2049 = LINE('',#2050,#2051);
#2050 = CARTESIAN_POINT('',(1.04,0.1625,0.18));
#2051 = VECTOR('',#2052,1.);
#2052 = DIRECTION('',(1.110223024625E-16,-1.,0.));
#2053 = ORIENTED_EDGE('',*,*,#1610,.T.);
#2054 = ORIENTED_EDGE('',*,*,#2031,.F.);
#2055 = ORIENTED_EDGE('',*,*,#1508,.F.);
#2056 = CYLINDRICAL_SURFACE('',#2057,1.E-02);
#2057 = AXIS2_PLACEMENT_3D('',#2058,#2059,#2060);
#2058 = CARTESIAN_POINT('',(1.04,0.1625,0.19));
#2059 = DIRECTION('',(-1.110223024625E-16,1.,0.));
#2060 = DIRECTION('',(0.,0.,-1.));
#2061 = ADVANCED_FACE('',(#2062),#2073,.F.);
#2062 = FACE_BOUND('',#2063,.F.);
#2063 = EDGE_LOOP('',(#2064,#2070,#2071,#2072));
#2064 = ORIENTED_EDGE('',*,*,#2065,.T.);
#2065 = EDGE_CURVE('',#1493,#1595,#2066,.T.);
#2066 = LINE('',#2067,#2068);
#2067 = CARTESIAN_POINT('',(1.05,0.1625,0.18));
#2068 = VECTOR('',#2069,1.);
#2069 = DIRECTION('',(1.110223024625E-16,-1.,0.));
#2070 = ORIENTED_EDGE('',*,*,#1602,.T.);
#2071 = ORIENTED_EDGE('',*,*,#2048,.F.);
#2072 = ORIENTED_EDGE('',*,*,#1500,.F.);
#2073 = PLANE('',#2074);
#2074 = AXIS2_PLACEMENT_3D('',#2075,#2076,#2077);
#2075 = CARTESIAN_POINT('',(1.05,0.1625,0.18));
#2076 = DIRECTION('',(0.,0.,-1.));
#2077 = DIRECTION('',(-1.,-1.110223024625E-16,-0.));
#2078 = ADVANCED_FACE('',(#2079),#2090,.F.);
#2079 = FACE_BOUND('',#2080,.F.);
#2080 = EDGE_LOOP('',(#2081,#2087,#2088,#2089));
#2081 = ORIENTED_EDGE('',*,*,#2082,.T.);
#2082 = EDGE_CURVE('',#1485,#1587,#2083,.T.);
#2083 = LINE('',#2084,#2085);
#2084 = CARTESIAN_POINT('',(1.05,0.1625,-2.775557561563E-17));
#2085 = VECTOR('',#2086,1.);
#2086 = DIRECTION('',(1.110223024625E-16,-1.,0.));
#2087 = ORIENTED_EDGE('',*,*,#1594,.T.);
#2088 = ORIENTED_EDGE('',*,*,#2065,.F.);
#2089 = ORIENTED_EDGE('',*,*,#1492,.F.);
#2090 = PLANE('',#2091);
#2091 = AXIS2_PLACEMENT_3D('',#2092,#2093,#2094);
#2092 = CARTESIAN_POINT('',(1.05,0.1625,-2.775557561563E-17));
#2093 = DIRECTION('',(-1.,-1.110223024625E-16,0.));
#2094 = DIRECTION('',(0.,0.,1.));
#2095 = ADVANCED_FACE('',(#2096),#2107,.F.);
#2096 = FACE_BOUND('',#2097,.F.);
#2097 = EDGE_LOOP('',(#2098,#2104,#2105,#2106));
#2098 = ORIENTED_EDGE('',*,*,#2099,.T.);
#2099 = EDGE_CURVE('',#1476,#1578,#2100,.T.);
#2100 = LINE('',#2101,#2102);
#2101 = CARTESIAN_POINT('',(1.04,0.1625,-2.775557561563E-17));
#2102 = VECTOR('',#2103,1.);
#2103 = DIRECTION('',(1.110223024625E-16,-1.,0.));
#2104 = ORIENTED_EDGE('',*,*,#1586,.T.);
#2105 = ORIENTED_EDGE('',*,*,#2082,.F.);
#2106 = ORIENTED_EDGE('',*,*,#1484,.F.);
#2107 = PLANE('',#2108);
#2108 = AXIS2_PLACEMENT_3D('',#2109,#2110,#2111);
#2109 = CARTESIAN_POINT('',(1.04,0.1625,-2.775557561563E-17));
#2110 = DIRECTION('',(0.,0.,1.));
#2111 = DIRECTION('',(1.,1.110223024625E-16,-0.));
#2112 = ADVANCED_FACE('',(#2113),#2124,.T.);
#2113 = FACE_BOUND('',#2114,.T.);
#2114 = EDGE_LOOP('',(#2115,#2116,#2117,#2118));
#2115 = ORIENTED_EDGE('',*,*,#1475,.T.);
#2116 = ORIENTED_EDGE('',*,*,#2099,.T.);
#2117 = ORIENTED_EDGE('',*,*,#1577,.F.);
#2118 = ORIENTED_EDGE('',*,*,#2119,.F.);
#2119 = EDGE_CURVE('',#1468,#1570,#2120,.T.);
#2120 = LINE('',#2121,#2122);
#2121 = CARTESIAN_POINT('',(0.852886526928,0.1625,0.157006846243));
#2122 = VECTOR('',#2123,1.);
#2123 = DIRECTION('',(1.110223024625E-16,-1.,0.));
#2124 = CYLINDRICAL_SURFACE('',#2125,0.19);
#2125 = AXIS2_PLACEMENT_3D('',#2126,#2127,#2128);
#2126 = CARTESIAN_POINT('',(1.04,0.1625,0.19));
#2127 = DIRECTION('',(-1.110223024625E-16,1.,-0.));
#2128 = DIRECTION('',(-0.984807753012,-1.093356242223E-16,
    -0.173648177667));
#2129 = ADVANCED_FACE('',(#2130),#2136,.F.);
#2130 = FACE_BOUND('',#2131,.F.);
#2131 = EDGE_LOOP('',(#2132,#2133,#2134,#2135));
#2132 = ORIENTED_EDGE('',*,*,#1551,.T.);
#2133 = ORIENTED_EDGE('',*,*,#1569,.T.);
#2134 = ORIENTED_EDGE('',*,*,#2119,.F.);
#2135 = ORIENTED_EDGE('',*,*,#1467,.F.);
#2136 = PLANE('',#2137);
#2137 = AXIS2_PLACEMENT_3D('',#2138,#2139,#2140);
#2138 = CARTESIAN_POINT('',(0.79518671351,0.1625,0.501736481777));
#2139 = DIRECTION('',(0.986280078936,1.094990852363E-16,0.165080604235)
  );
#2140 = DIRECTION('',(0.165080604235,1.832762877409E-17,-0.986280078936)
  );
#2141 = ADVANCED_FACE('',(#2142),#2143,.T.);
#2142 = FACE_BOUND('',#1706,.F.);
#2143 = PLANE('',#2144);
#2144 = AXIS2_PLACEMENT_3D('',#2145,#2146,#2147);
#2145 = CARTESIAN_POINT('',(-0.317164750328,0.692164750328,1.1));
#2146 = DIRECTION('',(0.,0.,1.));
#2147 = DIRECTION('',(1.,0.,-0.));
#2148 = ( GEOMETRIC_REPRESENTATION_CONTEXT(3) 
GLOBAL_UNCERTAINTY_ASSIGNED_CONTEXT((#2152)) 
GLOBAL_UNIT_ASSIGNED_CONTEXT((#2149,#2150,#2151)) REPRESENTATION_CONTEXT
('Context #1','3D Context with UNIT and UNCERTAINTY') );
#2149 = ( LENGTH_UNIT() NAMED_UNIT(*) SI_UNIT(.MILLI.,.METRE.) );
#2150 = ( NAMED_UNIT(*) PLANE_ANGLE_UNIT() SI_UNIT($,.RADIAN.) );
#2151 = ( NAMED_UNIT(*) SI_UNIT($,.STERADIAN.) SOLID_ANGLE_UNIT() );
#2152 = UNCERTAINTY_MEASURE_WITH_UNIT(LENGTH_MEASURE(1.E-07),#2149,
  'distance_accuracy_value','confusion accuracy');
#2153 = PRODUCT_RELATED_PRODUCT_CATEGORY('part',$,(#7));
ENDSEC;
END-ISO-10303-21;
