ISO-10303-21;
HEADER;
FILE_DESCRIPTION(('FreeCAD Model'),'2;1');
FILE_NAME('Open CASCADE Shape Model','2026-09-04T23:28:03',('FreeCAD'),(
    'FreeCAD'),'Open CASCADE STEP processor 7.8','FreeCAD','Unknown');
FILE_SCHEMA(('AUTOMOTIVE_DESIGN { 1 0 10303 214 1 1 1 1 }'));
ENDSEC;
DATA;
#1 = APPLICATION_PROTOCOL_DEFINITION('international standard',
  'automotive_design',2000,#2);
#2 = APPLICATION_CONTEXT(
  'core data for automotive mechanical design processes');
#3 = SHAPE_DEFINITION_REPRESENTATION(#4,#10);
#4 = PRODUCT_DEFINITION_SHAPE('','',#5);
#5 = PRODUCT_DEFINITION('design','',#6,#9);
#6 = PRODUCT_DEFINITION_FORMATION('','',#7);
#7 = PRODUCT('Open CASCADE STEP translator 7.8 46',
  'Open CASCADE STEP translator 7.8 46','',(#8));
#8 = PRODUCT_CONTEXT('',#2,'mechanical');
#9 = PRODUCT_DEFINITION_CONTEXT('part definition',#2,'design');
#10 = ADVANCED_BREP_SHAPE_REPRESENTATION('',(#11,#15),#2150);
#11 = AXIS2_PLACEMENT_3D('',#12,#13,#14);
#12 = CARTESIAN_POINT('',(0.,0.,0.));
#13 = DIRECTION('',(0.,0.,1.));
#14 = DIRECTION('',(1.,0.,-0.));
#15 = MANIFOLD_SOLID_BREP('',#16);
#16 = CLOSED_SHELL('',(#17,#55,#118,#141,#170,#193,#248,#287,#310,#333,
    #350,#373,#461,#477,#507,#538,#569,#600,#617,#634,#665,#695,#718,
    #741,#758,#803,#857,#880,#903,#926,#965,#1003,#1047,#1139,#1164,
    #1248,#1265,#1350,#1375,#1452,#1537,#1562,#1639,#1656,#1675,#1721,
    #1737,#1753,#1770,#1782,#1799,#1816,#1833,#1850,#1867,#1884,#1901,
    #1913,#1930,#1947,#1964,#1981,#1998,#2015,#2027,#2044,#2061,#2078,
    #2095,#2112,#2129,#2141));
#17 = ADVANCED_FACE('',(#18),#50,.F.);
#18 = FACE_BOUND('',#19,.F.);
#19 = EDGE_LOOP('',(#20,#30,#37,#45));
#20 = ORIENTED_EDGE('',*,*,#21,.T.);
#21 = EDGE_CURVE('',#22,#24,#26,.T.);
#22 = VERTEX_POINT('',#23);
#23 = CARTESIAN_POINT('',(-0.680405353927,-1.400810707854,-0.22));
#24 = VERTEX_POINT('',#25);
#25 = CARTESIAN_POINT('',(0.680405353927,-1.400810707854,-0.22));
#26 = LINE('',#27,#28);
#27 = CARTESIAN_POINT('',(-0.680405353927,-1.400810707854,-0.22));
#28 = VECTOR('',#29,1.);
#29 = DIRECTION('',(1.,1.144237745224E-17,0.));
#30 = ORIENTED_EDGE('',*,*,#31,.T.);
#31 = EDGE_CURVE('',#24,#32,#34,.T.);
#32 = VERTEX_POINT('',#33);
#33 = CARTESIAN_POINT('',(0.705,-1.45,-0.57));
#34 = B_SPLINE_CURVE_WITH_KNOTS('',1,(#35,#36),.UNSPECIFIED.,.F.,.F.,(2,
    2),(0.,1.),.PIECEWISE_BEZIER_KNOTS.);
#35 = CARTESIAN_POINT('',(0.680405353927,-1.400810707854,-0.22));
#36 = CARTESIAN_POINT('',(0.705,-1.45,-0.57));
#37 = ORIENTED_EDGE('',*,*,#38,.F.);
#38 = EDGE_CURVE('',#39,#32,#41,.T.);
#39 = VERTEX_POINT('',#40);
#40 = CARTESIAN_POINT('',(-0.705,-1.45,-0.57));
#41 = LINE('',#42,#43);
#42 = CARTESIAN_POINT('',(-0.705,-1.45,-0.57));
#43 = VECTOR('',#44,1.);
#44 = DIRECTION('',(1.,1.144237745224E-17,0.));
#45 = ORIENTED_EDGE('',*,*,#46,.F.);
#46 = EDGE_CURVE('',#22,#39,#47,.T.);
#47 = B_SPLINE_CURVE_WITH_KNOTS('',1,(#48,#49),.UNSPECIFIED.,.F.,.F.,(2,
    2),(0.,1.),.PIECEWISE_BEZIER_KNOTS.);
#48 = CARTESIAN_POINT('',(-0.680405353927,-1.400810707854,-0.22));
#49 = CARTESIAN_POINT('',(-0.705,-1.45,-0.57));
#50 = B_SPLINE_SURFACE_WITH_KNOTS('',1,1,(
    (#51,#52)
    ,(#53,#54)),.UNSPECIFIED.,.F.,.F.,.F.,(2,2),(2,2),(0.,1.41),(0.,1.),
  .PIECEWISE_BEZIER_KNOTS.);
#51 = CARTESIAN_POINT('',(-0.680405353927,-1.400810707854,-0.22));
#52 = CARTESIAN_POINT('',(-0.705,-1.45,-0.57));
#53 = CARTESIAN_POINT('',(0.680405353927,-1.400810707854,-0.22));
#54 = CARTESIAN_POINT('',(0.705,-1.45,-0.57));
#55 = ADVANCED_FACE('',(#56),#113,.F.);
#56 = FACE_BOUND('',#57,.T.);
#57 = EDGE_LOOP('',(#58,#59,#67,#75,#83,#91,#99,#107));
#58 = ORIENTED_EDGE('',*,*,#21,.T.);
#59 = ORIENTED_EDGE('',*,*,#60,.T.);
#60 = EDGE_CURVE('',#24,#61,#63,.T.);
#61 = VERTEX_POINT('',#62);
#62 = CARTESIAN_POINT('',(0.750810707854,-1.330405353927,-0.22));
#63 = LINE('',#64,#65);
#64 = CARTESIAN_POINT('',(0.680405353927,-1.400810707854,-0.22));
#65 = VECTOR('',#66,1.);
#66 = DIRECTION('',(0.707106781187,0.707106781187,0.));
#67 = ORIENTED_EDGE('',*,*,#68,.T.);
#68 = EDGE_CURVE('',#61,#69,#71,.T.);
#69 = VERTEX_POINT('',#70);
#70 = CARTESIAN_POINT('',(0.750810707854,1.330405353927,-0.22));
#71 = LINE('',#72,#73);
#72 = CARTESIAN_POINT('',(0.750810707854,-1.330405353927,-0.22));
#73 = VECTOR('',#74,1.);
#74 = DIRECTION('',(-1.144237745224E-17,1.,0.));
#75 = ORIENTED_EDGE('',*,*,#76,.T.);
#76 = EDGE_CURVE('',#69,#77,#79,.T.);
#77 = VERTEX_POINT('',#78);
#78 = CARTESIAN_POINT('',(0.680405353927,1.400810707854,-0.22));
#79 = LINE('',#80,#81);
#80 = CARTESIAN_POINT('',(0.750810707854,1.330405353927,-0.22));
#81 = VECTOR('',#82,1.);
#82 = DIRECTION('',(-0.707106781187,0.707106781187,-0.));
#83 = ORIENTED_EDGE('',*,*,#84,.T.);
#84 = EDGE_CURVE('',#77,#85,#87,.T.);
#85 = VERTEX_POINT('',#86);
#86 = CARTESIAN_POINT('',(-0.680405353927,1.400810707854,-0.22));
#87 = LINE('',#88,#89);
#88 = CARTESIAN_POINT('',(0.680405353927,1.400810707854,-0.22));
#89 = VECTOR('',#90,1.);
#90 = DIRECTION('',(-1.,-1.144237745224E-17,-0.));
#91 = ORIENTED_EDGE('',*,*,#92,.T.);
#92 = EDGE_CURVE('',#85,#93,#95,.T.);
#93 = VERTEX_POINT('',#94);
#94 = CARTESIAN_POINT('',(-0.750810707854,1.330405353927,-0.22));
#95 = LINE('',#96,#97);
#96 = CARTESIAN_POINT('',(-0.680405353927,1.400810707854,-0.22));
#97 = VECTOR('',#98,1.);
#98 = DIRECTION('',(-0.707106781187,-0.707106781187,0.));
#99 = ORIENTED_EDGE('',*,*,#100,.T.);
#100 = EDGE_CURVE('',#93,#101,#103,.T.);
#101 = VERTEX_POINT('',#102);
#102 = CARTESIAN_POINT('',(-0.750810707854,-1.330405353927,-0.22));
#103 = LINE('',#104,#105);
#104 = CARTESIAN_POINT('',(-0.750810707854,1.330405353927,-0.22));
#105 = VECTOR('',#106,1.);
#106 = DIRECTION('',(1.144237745224E-17,-1.,0.));
#107 = ORIENTED_EDGE('',*,*,#108,.T.);
#108 = EDGE_CURVE('',#101,#22,#109,.T.);
#109 = LINE('',#110,#111);
#110 = CARTESIAN_POINT('',(-0.750810707854,-1.330405353927,-0.22));
#111 = VECTOR('',#112,1.);
#112 = DIRECTION('',(0.707106781187,-0.707106781187,0.));
#113 = PLANE('',#114);
#114 = AXIS2_PLACEMENT_3D('',#115,#116,#117);
#115 = CARTESIAN_POINT('',(-0.680405353927,-1.400810707854,-0.22));
#116 = DIRECTION('',(0.,0.,-1.));
#117 = DIRECTION('',(0.436909980015,0.899505235873,0.));
#118 = ADVANCED_FACE('',(#119),#136,.F.);
#119 = FACE_BOUND('',#120,.F.);
#120 = EDGE_LOOP('',(#121,#122,#129,#135));
#121 = ORIENTED_EDGE('',*,*,#60,.T.);
#122 = ORIENTED_EDGE('',*,*,#123,.T.);
#123 = EDGE_CURVE('',#61,#124,#126,.T.);
#124 = VERTEX_POINT('',#125);
#125 = CARTESIAN_POINT('',(0.8,-1.355,-0.57));
#126 = B_SPLINE_CURVE_WITH_KNOTS('',1,(#127,#128),.UNSPECIFIED.,.F.,.F.,
  (2,2),(0.,1.),.PIECEWISE_BEZIER_KNOTS.);
#127 = CARTESIAN_POINT('',(0.750810707854,-1.330405353927,-0.22));
#128 = CARTESIAN_POINT('',(0.8,-1.355,-0.57));
#129 = ORIENTED_EDGE('',*,*,#130,.F.);
#130 = EDGE_CURVE('',#32,#124,#131,.T.);
#131 = LINE('',#132,#133);
#132 = CARTESIAN_POINT('',(0.705,-1.45,-0.57));
#133 = VECTOR('',#134,1.);
#134 = DIRECTION('',(0.707106781187,0.707106781187,0.));
#135 = ORIENTED_EDGE('',*,*,#31,.F.);
#136 = B_SPLINE_SURFACE_WITH_KNOTS('',1,1,(
    (#137,#138)
    ,(#139,#140
    )),.UNSPECIFIED.,.F.,.F.,.F.,(2,2),(2,2),(0.,0.134350288425),(0.,1.)
  ,.PIECEWISE_BEZIER_KNOTS.);
#137 = CARTESIAN_POINT('',(0.680405353927,-1.400810707854,-0.22));
#138 = CARTESIAN_POINT('',(0.705,-1.45,-0.57));
#139 = CARTESIAN_POINT('',(0.750810707854,-1.330405353927,-0.22));
#140 = CARTESIAN_POINT('',(0.8,-1.355,-0.57));
#141 = ADVANCED_FACE('',(#142),#165,.F.);
#142 = FACE_BOUND('',#143,.F.);
#143 = EDGE_LOOP('',(#144,#145,#152,#160));
#144 = ORIENTED_EDGE('',*,*,#38,.T.);
#145 = ORIENTED_EDGE('',*,*,#146,.T.);
#146 = EDGE_CURVE('',#32,#147,#149,.T.);
#147 = VERTEX_POINT('',#148);
#148 = CARTESIAN_POINT('',(0.705,-1.45,-0.72));
#149 = B_SPLINE_CURVE_WITH_KNOTS('',1,(#150,#151),.UNSPECIFIED.,.F.,.F.,
  (2,2),(0.,1.),.PIECEWISE_BEZIER_KNOTS.);
#150 = CARTESIAN_POINT('',(0.705,-1.45,-0.57));
#151 = CARTESIAN_POINT('',(0.705,-1.45,-0.72));
#152 = ORIENTED_EDGE('',*,*,#153,.F.);
#153 = EDGE_CURVE('',#154,#147,#156,.T.);
#154 = VERTEX_POINT('',#155);
#155 = CARTESIAN_POINT('',(-0.705,-1.45,-0.72));
#156 = LINE('',#157,#158);
#157 = CARTESIAN_POINT('',(-0.705,-1.45,-0.72));
#158 = VECTOR('',#159,1.);
#159 = DIRECTION('',(1.,1.144237745224E-17,0.));
#160 = ORIENTED_EDGE('',*,*,#161,.F.);
#161 = EDGE_CURVE('',#39,#154,#162,.T.);
#162 = B_SPLINE_CURVE_WITH_KNOTS('',1,(#163,#164),.UNSPECIFIED.,.F.,.F.,
  (2,2),(0.,1.),.PIECEWISE_BEZIER_KNOTS.);
#163 = CARTESIAN_POINT('',(-0.705,-1.45,-0.57));
#164 = CARTESIAN_POINT('',(-0.705,-1.45,-0.72));
#165 = PLANE('',#166);
#166 = AXIS2_PLACEMENT_3D('',#167,#168,#169);
#167 = CARTESIAN_POINT('',(-0.705,-1.45,-0.72));
#168 = DIRECTION('',(-1.144237745224E-17,1.,0.));
#169 = DIRECTION('',(1.,1.144237745224E-17,0.));
#170 = ADVANCED_FACE('',(#171),#188,.F.);
#171 = FACE_BOUND('',#172,.F.);
#172 = EDGE_LOOP('',(#173,#174,#175,#183));
#173 = ORIENTED_EDGE('',*,*,#108,.T.);
#174 = ORIENTED_EDGE('',*,*,#46,.T.);
#175 = ORIENTED_EDGE('',*,*,#176,.F.);
#176 = EDGE_CURVE('',#177,#39,#179,.T.);
#177 = VERTEX_POINT('',#178);
#178 = CARTESIAN_POINT('',(-0.8,-1.355,-0.57));
#179 = LINE('',#180,#181);
#180 = CARTESIAN_POINT('',(-0.8,-1.355,-0.57));
#181 = VECTOR('',#182,1.);
#182 = DIRECTION('',(0.707106781187,-0.707106781187,0.));
#183 = ORIENTED_EDGE('',*,*,#184,.F.);
#184 = EDGE_CURVE('',#101,#177,#185,.T.);
#185 = B_SPLINE_CURVE_WITH_KNOTS('',1,(#186,#187),.UNSPECIFIED.,.F.,.F.,
  (2,2),(0.,1.),.PIECEWISE_BEZIER_KNOTS.);
#186 = CARTESIAN_POINT('',(-0.750810707854,-1.330405353927,-0.22));
#187 = CARTESIAN_POINT('',(-0.8,-1.355,-0.57));
#188 = B_SPLINE_SURFACE_WITH_KNOTS('',1,1,(
    (#189,#190)
    ,(#191,#192
    )),.UNSPECIFIED.,.F.,.F.,.F.,(2,2),(2,2),(0.,0.134350288425),(0.,1.)
  ,.PIECEWISE_BEZIER_KNOTS.);
#189 = CARTESIAN_POINT('',(-0.750810707854,-1.330405353927,-0.22));
#190 = CARTESIAN_POINT('',(-0.8,-1.355,-0.57));
#191 = CARTESIAN_POINT('',(-0.680405353927,-1.400810707854,-0.22));
#192 = CARTESIAN_POINT('',(-0.705,-1.45,-0.57));
#193 = ADVANCED_FACE('',(#194),#243,.F.);
#194 = FACE_BOUND('',#195,.F.);
#195 = EDGE_LOOP('',(#196,#197,#198,#206,#214,#222,#230,#238));
#196 = ORIENTED_EDGE('',*,*,#100,.T.);
#197 = ORIENTED_EDGE('',*,*,#184,.T.);
#198 = ORIENTED_EDGE('',*,*,#199,.F.);
#199 = EDGE_CURVE('',#200,#177,#202,.T.);
#200 = VERTEX_POINT('',#201);
#201 = CARTESIAN_POINT('',(-0.8,-1.125,-0.57));
#202 = LINE('',#203,#204);
#203 = CARTESIAN_POINT('',(-0.8,1.355,-0.57));
#204 = VECTOR('',#205,1.);
#205 = DIRECTION('',(1.144237745224E-17,-1.,0.));
#206 = ORIENTED_EDGE('',*,*,#207,.F.);
#207 = EDGE_CURVE('',#208,#200,#210,.T.);
#208 = VERTEX_POINT('',#209);
#209 = CARTESIAN_POINT('',(-0.8,-0.775,-0.57));
#210 = LINE('',#211,#212);
#211 = CARTESIAN_POINT('',(-0.8,1.355,-0.57));
#212 = VECTOR('',#213,1.);
#213 = DIRECTION('',(1.144237745224E-17,-1.,0.));
#214 = ORIENTED_EDGE('',*,*,#215,.F.);
#215 = EDGE_CURVE('',#216,#208,#218,.T.);
#216 = VERTEX_POINT('',#217);
#217 = CARTESIAN_POINT('',(-0.8,0.775,-0.57));
#218 = LINE('',#219,#220);
#219 = CARTESIAN_POINT('',(-0.8,1.355,-0.57));
#220 = VECTOR('',#221,1.);
#221 = DIRECTION('',(1.144237745224E-17,-1.,0.));
#222 = ORIENTED_EDGE('',*,*,#223,.F.);
#223 = EDGE_CURVE('',#224,#216,#226,.T.);
#224 = VERTEX_POINT('',#225);
#225 = CARTESIAN_POINT('',(-0.8,1.125,-0.57));
#226 = LINE('',#227,#228);
#227 = CARTESIAN_POINT('',(-0.8,1.355,-0.57));
#228 = VECTOR('',#229,1.);
#229 = DIRECTION('',(1.144237745224E-17,-1.,0.));
#230 = ORIENTED_EDGE('',*,*,#231,.F.);
#231 = EDGE_CURVE('',#232,#224,#234,.T.);
#232 = VERTEX_POINT('',#233);
#233 = CARTESIAN_POINT('',(-0.8,1.355,-0.57));
#234 = LINE('',#235,#236);
#235 = CARTESIAN_POINT('',(-0.8,1.355,-0.57));
#236 = VECTOR('',#237,1.);
#237 = DIRECTION('',(1.144237745224E-17,-1.,0.));
#238 = ORIENTED_EDGE('',*,*,#239,.F.);
#239 = EDGE_CURVE('',#93,#232,#240,.T.);
#240 = B_SPLINE_CURVE_WITH_KNOTS('',1,(#241,#242),.UNSPECIFIED.,.F.,.F.,
  (2,2),(0.,1.),.PIECEWISE_BEZIER_KNOTS.);
#241 = CARTESIAN_POINT('',(-0.750810707854,1.330405353927,-0.22));
#242 = CARTESIAN_POINT('',(-0.8,1.355,-0.57));
#243 = B_SPLINE_SURFACE_WITH_KNOTS('',1,1,(
    (#244,#245)
    ,(#246,#247
    )),.UNSPECIFIED.,.F.,.F.,.F.,(2,2),(2,2),(0.,2.71),(0.,1.),
  .PIECEWISE_BEZIER_KNOTS.);
#244 = CARTESIAN_POINT('',(-0.750810707854,1.330405353927,-0.22));
#245 = CARTESIAN_POINT('',(-0.8,1.355,-0.57));
#246 = CARTESIAN_POINT('',(-0.750810707854,-1.330405353927,-0.22));
#247 = CARTESIAN_POINT('',(-0.8,-1.355,-0.57));
#248 = ADVANCED_FACE('',(#249),#282,.F.);
#249 = FACE_BOUND('',#250,.F.);
#250 = EDGE_LOOP('',(#251,#252,#259,#267,#275,#281));
#251 = ORIENTED_EDGE('',*,*,#68,.T.);
#252 = ORIENTED_EDGE('',*,*,#253,.T.);
#253 = EDGE_CURVE('',#69,#254,#256,.T.);
#254 = VERTEX_POINT('',#255);
#255 = CARTESIAN_POINT('',(0.8,1.355,-0.57));
#256 = B_SPLINE_CURVE_WITH_KNOTS('',1,(#257,#258),.UNSPECIFIED.,.F.,.F.,
  (2,2),(0.,1.),.PIECEWISE_BEZIER_KNOTS.);
#257 = CARTESIAN_POINT('',(0.750810707854,1.330405353927,-0.22));
#258 = CARTESIAN_POINT('',(0.8,1.355,-0.57));
#259 = ORIENTED_EDGE('',*,*,#260,.F.);
#260 = EDGE_CURVE('',#261,#254,#263,.T.);
#261 = VERTEX_POINT('',#262);
#262 = CARTESIAN_POINT('',(0.8,0.175,-0.57));
#263 = LINE('',#264,#265);
#264 = CARTESIAN_POINT('',(0.8,-1.355,-0.57));
#265 = VECTOR('',#266,1.);
#266 = DIRECTION('',(-1.144237745224E-17,1.,0.));
#267 = ORIENTED_EDGE('',*,*,#268,.F.);
#268 = EDGE_CURVE('',#269,#261,#271,.T.);
#269 = VERTEX_POINT('',#270);
#270 = CARTESIAN_POINT('',(0.8,-0.175,-0.57));
#271 = LINE('',#272,#273);
#272 = CARTESIAN_POINT('',(0.8,-1.355,-0.57));
#273 = VECTOR('',#274,1.);
#274 = DIRECTION('',(-1.144237745224E-17,1.,0.));
#275 = ORIENTED_EDGE('',*,*,#276,.F.);
#276 = EDGE_CURVE('',#124,#269,#277,.T.);
#277 = LINE('',#278,#279);
#278 = CARTESIAN_POINT('',(0.8,-1.355,-0.57));
#279 = VECTOR('',#280,1.);
#280 = DIRECTION('',(-1.144237745224E-17,1.,0.));
#281 = ORIENTED_EDGE('',*,*,#123,.F.);
#282 = B_SPLINE_SURFACE_WITH_KNOTS('',1,1,(
    (#283,#284)
    ,(#285,#286
    )),.UNSPECIFIED.,.F.,.F.,.F.,(2,2),(2,2),(0.,2.71),(0.,1.),
  .PIECEWISE_BEZIER_KNOTS.);
#283 = CARTESIAN_POINT('',(0.750810707854,-1.330405353927,-0.22));
#284 = CARTESIAN_POINT('',(0.8,-1.355,-0.57));
#285 = CARTESIAN_POINT('',(0.750810707854,1.330405353927,-0.22));
#286 = CARTESIAN_POINT('',(0.8,1.355,-0.57));
#287 = ADVANCED_FACE('',(#288),#305,.F.);
#288 = FACE_BOUND('',#289,.F.);
#289 = EDGE_LOOP('',(#290,#291,#292,#300));
#290 = ORIENTED_EDGE('',*,*,#92,.T.);
#291 = ORIENTED_EDGE('',*,*,#239,.T.);
#292 = ORIENTED_EDGE('',*,*,#293,.F.);
#293 = EDGE_CURVE('',#294,#232,#296,.T.);
#294 = VERTEX_POINT('',#295);
#295 = CARTESIAN_POINT('',(-0.705,1.45,-0.57));
#296 = LINE('',#297,#298);
#297 = CARTESIAN_POINT('',(-0.705,1.45,-0.57));
#298 = VECTOR('',#299,1.);
#299 = DIRECTION('',(-0.707106781187,-0.707106781187,0.));
#300 = ORIENTED_EDGE('',*,*,#301,.F.);
#301 = EDGE_CURVE('',#85,#294,#302,.T.);
#302 = B_SPLINE_CURVE_WITH_KNOTS('',1,(#303,#304),.UNSPECIFIED.,.F.,.F.,
  (2,2),(0.,1.),.PIECEWISE_BEZIER_KNOTS.);
#303 = CARTESIAN_POINT('',(-0.680405353927,1.400810707854,-0.22));
#304 = CARTESIAN_POINT('',(-0.705,1.45,-0.57));
#305 = B_SPLINE_SURFACE_WITH_KNOTS('',1,1,(
    (#306,#307)
    ,(#308,#309
    )),.UNSPECIFIED.,.F.,.F.,.F.,(2,2),(2,2),(0.,0.134350288425),(0.,1.)
  ,.PIECEWISE_BEZIER_KNOTS.);
#306 = CARTESIAN_POINT('',(-0.680405353927,1.400810707854,-0.22));
#307 = CARTESIAN_POINT('',(-0.705,1.45,-0.57));
#308 = CARTESIAN_POINT('',(-0.750810707854,1.330405353927,-0.22));
#309 = CARTESIAN_POINT('',(-0.8,1.355,-0.57));
#310 = ADVANCED_FACE('',(#311),#328,.F.);
#311 = FACE_BOUND('',#312,.F.);
#312 = EDGE_LOOP('',(#313,#314,#321,#327));
#313 = ORIENTED_EDGE('',*,*,#76,.T.);
#314 = ORIENTED_EDGE('',*,*,#315,.T.);
#315 = EDGE_CURVE('',#77,#316,#318,.T.);
#316 = VERTEX_POINT('',#317);
#317 = CARTESIAN_POINT('',(0.705,1.45,-0.57));
#318 = B_SPLINE_CURVE_WITH_KNOTS('',1,(#319,#320),.UNSPECIFIED.,.F.,.F.,
  (2,2),(0.,1.),.PIECEWISE_BEZIER_KNOTS.);
#319 = CARTESIAN_POINT('',(0.680405353927,1.400810707854,-0.22));
#320 = CARTESIAN_POINT('',(0.705,1.45,-0.57));
#321 = ORIENTED_EDGE('',*,*,#322,.F.);
#322 = EDGE_CURVE('',#254,#316,#323,.T.);
#323 = LINE('',#324,#325);
#324 = CARTESIAN_POINT('',(0.8,1.355,-0.57));
#325 = VECTOR('',#326,1.);
#326 = DIRECTION('',(-0.707106781187,0.707106781187,-0.));
#327 = ORIENTED_EDGE('',*,*,#253,.F.);
#328 = B_SPLINE_SURFACE_WITH_KNOTS('',1,1,(
    (#329,#330)
    ,(#331,#332
    )),.UNSPECIFIED.,.F.,.F.,.F.,(2,2),(2,2),(0.,0.134350288425),(0.,1.)
  ,.PIECEWISE_BEZIER_KNOTS.);
#329 = CARTESIAN_POINT('',(0.750810707854,1.330405353927,-0.22));
#330 = CARTESIAN_POINT('',(0.8,1.355,-0.57));
#331 = CARTESIAN_POINT('',(0.680405353927,1.400810707854,-0.22));
#332 = CARTESIAN_POINT('',(0.705,1.45,-0.57));
#333 = ADVANCED_FACE('',(#334),#345,.F.);
#334 = FACE_BOUND('',#335,.F.);
#335 = EDGE_LOOP('',(#336,#337,#338,#344));
#336 = ORIENTED_EDGE('',*,*,#84,.T.);
#337 = ORIENTED_EDGE('',*,*,#301,.T.);
#338 = ORIENTED_EDGE('',*,*,#339,.F.);
#339 = EDGE_CURVE('',#316,#294,#340,.T.);
#340 = LINE('',#341,#342);
#341 = CARTESIAN_POINT('',(0.705,1.45,-0.57));
#342 = VECTOR('',#343,1.);
#343 = DIRECTION('',(-1.,-1.144237745224E-17,-0.));
#344 = ORIENTED_EDGE('',*,*,#315,.F.);
#345 = B_SPLINE_SURFACE_WITH_KNOTS('',1,1,(
    (#346,#347)
    ,(#348,#349
    )),.UNSPECIFIED.,.F.,.F.,.F.,(2,2),(2,2),(0.,1.41),(0.,1.),
  .PIECEWISE_BEZIER_KNOTS.);
#346 = CARTESIAN_POINT('',(0.680405353927,1.400810707854,-0.22));
#347 = CARTESIAN_POINT('',(0.705,1.45,-0.57));
#348 = CARTESIAN_POINT('',(-0.680405353927,1.400810707854,-0.22));
#349 = CARTESIAN_POINT('',(-0.705,1.45,-0.57));
#350 = ADVANCED_FACE('',(#351),#368,.F.);
#351 = FACE_BOUND('',#352,.F.);
#352 = EDGE_LOOP('',(#353,#354,#361,#367));
#353 = ORIENTED_EDGE('',*,*,#130,.T.);
#354 = ORIENTED_EDGE('',*,*,#355,.T.);
#355 = EDGE_CURVE('',#124,#356,#358,.T.);
#356 = VERTEX_POINT('',#357);
#357 = CARTESIAN_POINT('',(0.8,-1.355,-0.72));
#358 = B_SPLINE_CURVE_WITH_KNOTS('',1,(#359,#360),.UNSPECIFIED.,.F.,.F.,
  (2,2),(0.,1.),.PIECEWISE_BEZIER_KNOTS.);
#359 = CARTESIAN_POINT('',(0.8,-1.355,-0.57));
#360 = CARTESIAN_POINT('',(0.8,-1.355,-0.72));
#361 = ORIENTED_EDGE('',*,*,#362,.F.);
#362 = EDGE_CURVE('',#147,#356,#363,.T.);
#363 = LINE('',#364,#365);
#364 = CARTESIAN_POINT('',(0.705,-1.45,-0.72));
#365 = VECTOR('',#366,1.);
#366 = DIRECTION('',(0.707106781187,0.707106781187,0.));
#367 = ORIENTED_EDGE('',*,*,#146,.F.);
#368 = PLANE('',#369);
#369 = AXIS2_PLACEMENT_3D('',#370,#371,#372);
#370 = CARTESIAN_POINT('',(0.705,-1.45,-0.72));
#371 = DIRECTION('',(-0.707106781187,0.707106781187,-0.));
#372 = DIRECTION('',(0.707106781187,0.707106781187,0.));
#373 = ADVANCED_FACE('',(#374),#456,.F.);
#374 = FACE_BOUND('',#375,.F.);
#375 = EDGE_LOOP('',(#376,#384,#385,#386,#394,#402,#410,#418,#426,#434,
    #442,#450));
#376 = ORIENTED_EDGE('',*,*,#377,.T.);
#377 = EDGE_CURVE('',#378,#154,#380,.T.);
#378 = VERTEX_POINT('',#379);
#379 = CARTESIAN_POINT('',(-0.8,-1.355,-0.72));
#380 = LINE('',#381,#382);
#381 = CARTESIAN_POINT('',(-0.8,-1.355,-0.72));
#382 = VECTOR('',#383,1.);
#383 = DIRECTION('',(0.707106781187,-0.707106781187,0.));
#384 = ORIENTED_EDGE('',*,*,#153,.T.);
#385 = ORIENTED_EDGE('',*,*,#362,.T.);
#386 = ORIENTED_EDGE('',*,*,#387,.T.);
#387 = EDGE_CURVE('',#356,#388,#390,.T.);
#388 = VERTEX_POINT('',#389);
#389 = CARTESIAN_POINT('',(0.8,-0.175,-0.72));
#390 = LINE('',#391,#392);
#391 = CARTESIAN_POINT('',(0.8,-1.355,-0.72));
#392 = VECTOR('',#393,1.);
#393 = DIRECTION('',(-1.144237745224E-17,1.,0.));
#394 = ORIENTED_EDGE('',*,*,#395,.T.);
#395 = EDGE_CURVE('',#388,#396,#398,.T.);
#396 = VERTEX_POINT('',#397);
#397 = CARTESIAN_POINT('',(0.775,-0.175,-0.72));
#398 = LINE('',#399,#400);
#399 = CARTESIAN_POINT('',(0.85,-0.175,-0.72));
#400 = VECTOR('',#401,1.);
#401 = DIRECTION('',(-1.,-1.144237745224E-17,-0.));
#402 = ORIENTED_EDGE('',*,*,#403,.F.);
#403 = EDGE_CURVE('',#404,#396,#406,.T.);
#404 = VERTEX_POINT('',#405);
#405 = CARTESIAN_POINT('',(0.775,-1.3425,-0.72));
#406 = LINE('',#407,#408);
#407 = CARTESIAN_POINT('',(0.775,-1.3425,-0.72));
#408 = VECTOR('',#409,1.);
#409 = DIRECTION('',(-1.144237745224E-17,1.,0.));
#410 = ORIENTED_EDGE('',*,*,#411,.F.);
#411 = EDGE_CURVE('',#412,#404,#414,.T.);
#412 = VERTEX_POINT('',#413);
#413 = CARTESIAN_POINT('',(0.6925,-1.425,-0.72));
#414 = LINE('',#415,#416);
#415 = CARTESIAN_POINT('',(0.6925,-1.425,-0.72));
#416 = VECTOR('',#417,1.);
#417 = DIRECTION('',(0.707106781187,0.707106781187,0.));
#418 = ORIENTED_EDGE('',*,*,#419,.F.);
#419 = EDGE_CURVE('',#420,#412,#422,.T.);
#420 = VERTEX_POINT('',#421);
#421 = CARTESIAN_POINT('',(-0.6925,-1.425,-0.72));
#422 = LINE('',#423,#424);
#423 = CARTESIAN_POINT('',(-0.6925,-1.425,-0.72));
#424 = VECTOR('',#425,1.);
#425 = DIRECTION('',(1.,1.144237745224E-17,0.));
#426 = ORIENTED_EDGE('',*,*,#427,.F.);
#427 = EDGE_CURVE('',#428,#420,#430,.T.);
#428 = VERTEX_POINT('',#429);
#429 = CARTESIAN_POINT('',(-0.775,-1.3425,-0.72));
#430 = LINE('',#431,#432);
#431 = CARTESIAN_POINT('',(-0.775,-1.3425,-0.72));
#432 = VECTOR('',#433,1.);
#433 = DIRECTION('',(0.707106781187,-0.707106781187,0.));
#434 = ORIENTED_EDGE('',*,*,#435,.F.);
#435 = EDGE_CURVE('',#436,#428,#438,.T.);
#436 = VERTEX_POINT('',#437);
#437 = CARTESIAN_POINT('',(-0.775,-1.125,-0.72));
#438 = LINE('',#439,#440);
#439 = CARTESIAN_POINT('',(-0.775,1.3425,-0.72));
#440 = VECTOR('',#441,1.);
#441 = DIRECTION('',(1.144237745224E-17,-1.,0.));
#442 = ORIENTED_EDGE('',*,*,#443,.F.);
#443 = EDGE_CURVE('',#444,#436,#446,.T.);
#444 = VERTEX_POINT('',#445);
#445 = CARTESIAN_POINT('',(-0.8,-1.125,-0.72));
#446 = LINE('',#447,#448);
#447 = CARTESIAN_POINT('',(-0.85,-1.125,-0.72));
#448 = VECTOR('',#449,1.);
#449 = DIRECTION('',(1.,1.33907057367E-16,0.));
#450 = ORIENTED_EDGE('',*,*,#451,.T.);
#451 = EDGE_CURVE('',#444,#378,#452,.T.);
#452 = LINE('',#453,#454);
#453 = CARTESIAN_POINT('',(-0.8,1.355,-0.72));
#454 = VECTOR('',#455,1.);
#455 = DIRECTION('',(1.144237745224E-17,-1.,0.));
#456 = PLANE('',#457);
#457 = AXIS2_PLACEMENT_3D('',#458,#459,#460);
#458 = CARTESIAN_POINT('',(-3.309872566017E-17,-1.4375,-0.72));
#459 = DIRECTION('',(2.888762391192E-17,-8.634038173873E-28,1.));
#460 = DIRECTION('',(1.,-2.945745698626E-17,-2.888762391192E-17));
#461 = ADVANCED_FACE('',(#462),#472,.F.);
#462 = FACE_BOUND('',#463,.F.);
#463 = EDGE_LOOP('',(#464,#465,#466,#467));
#464 = ORIENTED_EDGE('',*,*,#176,.T.);
#465 = ORIENTED_EDGE('',*,*,#161,.T.);
#466 = ORIENTED_EDGE('',*,*,#377,.F.);
#467 = ORIENTED_EDGE('',*,*,#468,.F.);
#468 = EDGE_CURVE('',#177,#378,#469,.T.);
#469 = B_SPLINE_CURVE_WITH_KNOTS('',1,(#470,#471),.UNSPECIFIED.,.F.,.F.,
  (2,2),(0.,1.),.PIECEWISE_BEZIER_KNOTS.);
#470 = CARTESIAN_POINT('',(-0.8,-1.355,-0.57));
#471 = CARTESIAN_POINT('',(-0.8,-1.355,-0.72));
#472 = PLANE('',#473);
#473 = AXIS2_PLACEMENT_3D('',#474,#475,#476);
#474 = CARTESIAN_POINT('',(-0.8,-1.355,-0.72));
#475 = DIRECTION('',(0.707106781187,0.707106781187,0.));
#476 = DIRECTION('',(0.707106781187,-0.707106781187,0.));
#477 = ADVANCED_FACE('',(#478),#502,.F.);
#478 = FACE_BOUND('',#479,.F.);
#479 = EDGE_LOOP('',(#480,#487,#488,#496));
#480 = ORIENTED_EDGE('',*,*,#481,.F.);
#481 = EDGE_CURVE('',#232,#482,#484,.T.);
#482 = VERTEX_POINT('',#483);
#483 = CARTESIAN_POINT('',(-0.8,1.355,-0.72));
#484 = B_SPLINE_CURVE_WITH_KNOTS('',1,(#485,#486),.UNSPECIFIED.,.F.,.F.,
  (2,2),(0.,1.),.PIECEWISE_BEZIER_KNOTS.);
#485 = CARTESIAN_POINT('',(-0.8,1.355,-0.57));
#486 = CARTESIAN_POINT('',(-0.8,1.355,-0.72));
#487 = ORIENTED_EDGE('',*,*,#231,.T.);
#488 = ORIENTED_EDGE('',*,*,#489,.T.);
#489 = EDGE_CURVE('',#224,#490,#492,.T.);
#490 = VERTEX_POINT('',#491);
#491 = CARTESIAN_POINT('',(-0.8,1.125,-0.72));
#492 = LINE('',#493,#494);
#493 = CARTESIAN_POINT('',(-0.8,1.125,-0.561412655976));
#494 = VECTOR('',#495,1.);
#495 = DIRECTION('',(0.,0.,-1.));
#496 = ORIENTED_EDGE('',*,*,#497,.F.);
#497 = EDGE_CURVE('',#482,#490,#498,.T.);
#498 = LINE('',#499,#500);
#499 = CARTESIAN_POINT('',(-0.8,1.355,-0.72));
#500 = VECTOR('',#501,1.);
#501 = DIRECTION('',(1.144237745224E-17,-1.,0.));
#502 = PLANE('',#503);
#503 = AXIS2_PLACEMENT_3D('',#504,#505,#506);
#504 = CARTESIAN_POINT('',(-0.8,1.355,-0.72));
#505 = DIRECTION('',(1.,1.144237745224E-17,0.));
#506 = DIRECTION('',(1.144237745224E-17,-1.,0.));
#507 = ADVANCED_FACE('',(#508),#533,.F.);
#508 = FACE_BOUND('',#509,.F.);
#509 = EDGE_LOOP('',(#510,#518,#519,#527));
#510 = ORIENTED_EDGE('',*,*,#511,.F.);
#511 = EDGE_CURVE('',#224,#512,#514,.T.);
#512 = VERTEX_POINT('',#513);
#513 = CARTESIAN_POINT('',(-0.85,1.125,-0.57));
#514 = LINE('',#515,#516);
#515 = CARTESIAN_POINT('',(-0.75,1.125,-0.57));
#516 = VECTOR('',#517,1.);
#517 = DIRECTION('',(-1.,-1.33907057367E-16,0.));
#518 = ORIENTED_EDGE('',*,*,#223,.T.);
#519 = ORIENTED_EDGE('',*,*,#520,.T.);
#520 = EDGE_CURVE('',#216,#521,#523,.T.);
#521 = VERTEX_POINT('',#522);
#522 = CARTESIAN_POINT('',(-0.85,0.775,-0.57));
#523 = LINE('',#524,#525);
#524 = CARTESIAN_POINT('',(-0.75,0.775,-0.57));
#525 = VECTOR('',#526,1.);
#526 = DIRECTION('',(-1.,-1.33907057367E-16,0.));
#527 = ORIENTED_EDGE('',*,*,#528,.F.);
#528 = EDGE_CURVE('',#512,#521,#529,.T.);
#529 = LINE('',#530,#531);
#530 = CARTESIAN_POINT('',(-0.85,1.125,-0.57));
#531 = VECTOR('',#532,1.);
#532 = DIRECTION('',(1.33907057367E-16,-1.,0.));
#533 = PLANE('',#534);
#534 = AXIS2_PLACEMENT_3D('',#535,#536,#537);
#535 = CARTESIAN_POINT('',(-0.75,1.125,-0.57));
#536 = DIRECTION('',(0.,0.,-1.));
#537 = DIRECTION('',(-1.,-1.33907057367E-16,0.));
#538 = ADVANCED_FACE('',(#539),#564,.F.);
#539 = FACE_BOUND('',#540,.F.);
#540 = EDGE_LOOP('',(#541,#549,#550,#558));
#541 = ORIENTED_EDGE('',*,*,#542,.F.);
#542 = EDGE_CURVE('',#216,#543,#545,.T.);
#543 = VERTEX_POINT('',#544);
#544 = CARTESIAN_POINT('',(-0.8,0.775,-0.72));
#545 = LINE('',#546,#547);
#546 = CARTESIAN_POINT('',(-0.8,0.775,-0.561412655976));
#547 = VECTOR('',#548,1.);
#548 = DIRECTION('',(0.,0.,-1.));
#549 = ORIENTED_EDGE('',*,*,#215,.T.);
#550 = ORIENTED_EDGE('',*,*,#551,.T.);
#551 = EDGE_CURVE('',#208,#552,#554,.T.);
#552 = VERTEX_POINT('',#553);
#553 = CARTESIAN_POINT('',(-0.8,-0.775,-0.72));
#554 = LINE('',#555,#556);
#555 = CARTESIAN_POINT('',(-0.8,-0.775,-0.561412655976));
#556 = VECTOR('',#557,1.);
#557 = DIRECTION('',(0.,0.,-1.));
#558 = ORIENTED_EDGE('',*,*,#559,.F.);
#559 = EDGE_CURVE('',#543,#552,#560,.T.);
#560 = LINE('',#561,#562);
#561 = CARTESIAN_POINT('',(-0.8,1.355,-0.72));
#562 = VECTOR('',#563,1.);
#563 = DIRECTION('',(1.144237745224E-17,-1.,0.));
#564 = PLANE('',#565);
#565 = AXIS2_PLACEMENT_3D('',#566,#567,#568);
#566 = CARTESIAN_POINT('',(-0.8,1.355,-0.72));
#567 = DIRECTION('',(1.,1.144237745224E-17,0.));
#568 = DIRECTION('',(1.144237745224E-17,-1.,0.));
#569 = ADVANCED_FACE('',(#570),#595,.F.);
#570 = FACE_BOUND('',#571,.F.);
#571 = EDGE_LOOP('',(#572,#580,#581,#589));
#572 = ORIENTED_EDGE('',*,*,#573,.F.);
#573 = EDGE_CURVE('',#208,#574,#576,.T.);
#574 = VERTEX_POINT('',#575);
#575 = CARTESIAN_POINT('',(-0.85,-0.775,-0.57));
#576 = LINE('',#577,#578);
#577 = CARTESIAN_POINT('',(-0.75,-0.775,-0.57));
#578 = VECTOR('',#579,1.);
#579 = DIRECTION('',(-1.,-1.33907057367E-16,0.));
#580 = ORIENTED_EDGE('',*,*,#207,.T.);
#581 = ORIENTED_EDGE('',*,*,#582,.T.);
#582 = EDGE_CURVE('',#200,#583,#585,.T.);
#583 = VERTEX_POINT('',#584);
#584 = CARTESIAN_POINT('',(-0.85,-1.125,-0.57));
#585 = LINE('',#586,#587);
#586 = CARTESIAN_POINT('',(-0.75,-1.125,-0.57));
#587 = VECTOR('',#588,1.);
#588 = DIRECTION('',(-1.,-1.33907057367E-16,0.));
#589 = ORIENTED_EDGE('',*,*,#590,.F.);
#590 = EDGE_CURVE('',#574,#583,#591,.T.);
#591 = LINE('',#592,#593);
#592 = CARTESIAN_POINT('',(-0.85,-0.775,-0.57));
#593 = VECTOR('',#594,1.);
#594 = DIRECTION('',(1.33907057367E-16,-1.,0.));
#595 = PLANE('',#596);
#596 = AXIS2_PLACEMENT_3D('',#597,#598,#599);
#597 = CARTESIAN_POINT('',(-0.75,-0.775,-0.57));
#598 = DIRECTION('',(0.,0.,-1.));
#599 = DIRECTION('',(-1.,-1.33907057367E-16,0.));
#600 = ADVANCED_FACE('',(#601),#612,.F.);
#601 = FACE_BOUND('',#602,.F.);
#602 = EDGE_LOOP('',(#603,#609,#610,#611));
#603 = ORIENTED_EDGE('',*,*,#604,.F.);
#604 = EDGE_CURVE('',#200,#444,#605,.T.);
#605 = LINE('',#606,#607);
#606 = CARTESIAN_POINT('',(-0.8,-1.125,-0.561412655976));
#607 = VECTOR('',#608,1.);
#608 = DIRECTION('',(0.,0.,-1.));
#609 = ORIENTED_EDGE('',*,*,#199,.T.);
#610 = ORIENTED_EDGE('',*,*,#468,.T.);
#611 = ORIENTED_EDGE('',*,*,#451,.F.);
#612 = PLANE('',#613);
#613 = AXIS2_PLACEMENT_3D('',#614,#615,#616);
#614 = CARTESIAN_POINT('',(-0.8,1.355,-0.72));
#615 = DIRECTION('',(1.,1.144237745224E-17,0.));
#616 = DIRECTION('',(1.144237745224E-17,-1.,0.));
#617 = ADVANCED_FACE('',(#618),#629,.F.);
#618 = FACE_BOUND('',#619,.F.);
#619 = EDGE_LOOP('',(#620,#621,#622,#628));
#620 = ORIENTED_EDGE('',*,*,#355,.F.);
#621 = ORIENTED_EDGE('',*,*,#276,.T.);
#622 = ORIENTED_EDGE('',*,*,#623,.T.);
#623 = EDGE_CURVE('',#269,#388,#624,.T.);
#624 = LINE('',#625,#626);
#625 = CARTESIAN_POINT('',(0.8,-0.175,-0.561412655976));
#626 = VECTOR('',#627,1.);
#627 = DIRECTION('',(0.,0.,-1.));
#628 = ORIENTED_EDGE('',*,*,#387,.F.);
#629 = PLANE('',#630);
#630 = AXIS2_PLACEMENT_3D('',#631,#632,#633);
#631 = CARTESIAN_POINT('',(0.8,-1.355,-0.72));
#632 = DIRECTION('',(-1.,-1.144237745224E-17,-0.));
#633 = DIRECTION('',(-1.144237745224E-17,1.,0.));
#634 = ADVANCED_FACE('',(#635),#660,.F.);
#635 = FACE_BOUND('',#636,.F.);
#636 = EDGE_LOOP('',(#637,#645,#646,#654));
#637 = ORIENTED_EDGE('',*,*,#638,.F.);
#638 = EDGE_CURVE('',#269,#639,#641,.T.);
#639 = VERTEX_POINT('',#640);
#640 = CARTESIAN_POINT('',(0.85,-0.175,-0.57));
#641 = LINE('',#642,#643);
#642 = CARTESIAN_POINT('',(0.75,-0.175,-0.57));
#643 = VECTOR('',#644,1.);
#644 = DIRECTION('',(1.,1.144237745224E-17,0.));
#645 = ORIENTED_EDGE('',*,*,#268,.T.);
#646 = ORIENTED_EDGE('',*,*,#647,.T.);
#647 = EDGE_CURVE('',#261,#648,#650,.T.);
#648 = VERTEX_POINT('',#649);
#649 = CARTESIAN_POINT('',(0.85,0.175,-0.57));
#650 = LINE('',#651,#652);
#651 = CARTESIAN_POINT('',(0.75,0.175,-0.57));
#652 = VECTOR('',#653,1.);
#653 = DIRECTION('',(1.,1.144237745224E-17,0.));
#654 = ORIENTED_EDGE('',*,*,#655,.F.);
#655 = EDGE_CURVE('',#639,#648,#656,.T.);
#656 = LINE('',#657,#658);
#657 = CARTESIAN_POINT('',(0.85,-0.175,-0.57));
#658 = VECTOR('',#659,1.);
#659 = DIRECTION('',(-1.144237745224E-17,1.,0.));
#660 = PLANE('',#661);
#661 = AXIS2_PLACEMENT_3D('',#662,#663,#664);
#662 = CARTESIAN_POINT('',(0.75,-0.175,-0.57));
#663 = DIRECTION('',(0.,0.,-1.));
#664 = DIRECTION('',(1.,1.144237745224E-17,0.));
#665 = ADVANCED_FACE('',(#666),#690,.F.);
#666 = FACE_BOUND('',#667,.F.);
#667 = EDGE_LOOP('',(#668,#676,#677,#684));
#668 = ORIENTED_EDGE('',*,*,#669,.F.);
#669 = EDGE_CURVE('',#261,#670,#672,.T.);
#670 = VERTEX_POINT('',#671);
#671 = CARTESIAN_POINT('',(0.8,0.175,-0.72));
#672 = LINE('',#673,#674);
#673 = CARTESIAN_POINT('',(0.8,0.175,-0.561412655976));
#674 = VECTOR('',#675,1.);
#675 = DIRECTION('',(0.,0.,-1.));
#676 = ORIENTED_EDGE('',*,*,#260,.T.);
#677 = ORIENTED_EDGE('',*,*,#678,.T.);
#678 = EDGE_CURVE('',#254,#679,#681,.T.);
#679 = VERTEX_POINT('',#680);
#680 = CARTESIAN_POINT('',(0.8,1.355,-0.72));
#681 = B_SPLINE_CURVE_WITH_KNOTS('',1,(#682,#683),.UNSPECIFIED.,.F.,.F.,
  (2,2),(0.,1.),.PIECEWISE_BEZIER_KNOTS.);
#682 = CARTESIAN_POINT('',(0.8,1.355,-0.57));
#683 = CARTESIAN_POINT('',(0.8,1.355,-0.72));
#684 = ORIENTED_EDGE('',*,*,#685,.F.);
#685 = EDGE_CURVE('',#670,#679,#686,.T.);
#686 = LINE('',#687,#688);
#687 = CARTESIAN_POINT('',(0.8,-1.355,-0.72));
#688 = VECTOR('',#689,1.);
#689 = DIRECTION('',(-1.144237745224E-17,1.,0.));
#690 = PLANE('',#691);
#691 = AXIS2_PLACEMENT_3D('',#692,#693,#694);
#692 = CARTESIAN_POINT('',(0.8,-1.355,-0.72));
#693 = DIRECTION('',(-1.,-1.144237745224E-17,-0.));
#694 = DIRECTION('',(-1.144237745224E-17,1.,0.));
#695 = ADVANCED_FACE('',(#696),#713,.F.);
#696 = FACE_BOUND('',#697,.F.);
#697 = EDGE_LOOP('',(#698,#699,#700,#708));
#698 = ORIENTED_EDGE('',*,*,#293,.T.);
#699 = ORIENTED_EDGE('',*,*,#481,.T.);
#700 = ORIENTED_EDGE('',*,*,#701,.F.);
#701 = EDGE_CURVE('',#702,#482,#704,.T.);
#702 = VERTEX_POINT('',#703);
#703 = CARTESIAN_POINT('',(-0.705,1.45,-0.72));
#704 = LINE('',#705,#706);
#705 = CARTESIAN_POINT('',(-0.705,1.45,-0.72));
#706 = VECTOR('',#707,1.);
#707 = DIRECTION('',(-0.707106781187,-0.707106781187,0.));
#708 = ORIENTED_EDGE('',*,*,#709,.F.);
#709 = EDGE_CURVE('',#294,#702,#710,.T.);
#710 = B_SPLINE_CURVE_WITH_KNOTS('',1,(#711,#712),.UNSPECIFIED.,.F.,.F.,
  (2,2),(0.,1.),.PIECEWISE_BEZIER_KNOTS.);
#711 = CARTESIAN_POINT('',(-0.705,1.45,-0.57));
#712 = CARTESIAN_POINT('',(-0.705,1.45,-0.72));
#713 = PLANE('',#714);
#714 = AXIS2_PLACEMENT_3D('',#715,#716,#717);
#715 = CARTESIAN_POINT('',(-0.705,1.45,-0.72));
#716 = DIRECTION('',(0.707106781187,-0.707106781187,0.));
#717 = DIRECTION('',(-0.707106781187,-0.707106781187,0.));
#718 = ADVANCED_FACE('',(#719),#736,.F.);
#719 = FACE_BOUND('',#720,.F.);
#720 = EDGE_LOOP('',(#721,#722,#729,#735));
#721 = ORIENTED_EDGE('',*,*,#322,.T.);
#722 = ORIENTED_EDGE('',*,*,#723,.T.);
#723 = EDGE_CURVE('',#316,#724,#726,.T.);
#724 = VERTEX_POINT('',#725);
#725 = CARTESIAN_POINT('',(0.705,1.45,-0.72));
#726 = B_SPLINE_CURVE_WITH_KNOTS('',1,(#727,#728),.UNSPECIFIED.,.F.,.F.,
  (2,2),(0.,1.),.PIECEWISE_BEZIER_KNOTS.);
#727 = CARTESIAN_POINT('',(0.705,1.45,-0.57));
#728 = CARTESIAN_POINT('',(0.705,1.45,-0.72));
#729 = ORIENTED_EDGE('',*,*,#730,.F.);
#730 = EDGE_CURVE('',#679,#724,#731,.T.);
#731 = LINE('',#732,#733);
#732 = CARTESIAN_POINT('',(0.8,1.355,-0.72));
#733 = VECTOR('',#734,1.);
#734 = DIRECTION('',(-0.707106781187,0.707106781187,-0.));
#735 = ORIENTED_EDGE('',*,*,#678,.F.);
#736 = PLANE('',#737);
#737 = AXIS2_PLACEMENT_3D('',#738,#739,#740);
#738 = CARTESIAN_POINT('',(0.8,1.355,-0.72));
#739 = DIRECTION('',(-0.707106781187,-0.707106781187,0.));
#740 = DIRECTION('',(-0.707106781187,0.707106781187,-0.));
#741 = ADVANCED_FACE('',(#742),#753,.F.);
#742 = FACE_BOUND('',#743,.F.);
#743 = EDGE_LOOP('',(#744,#745,#746,#752));
#744 = ORIENTED_EDGE('',*,*,#339,.T.);
#745 = ORIENTED_EDGE('',*,*,#709,.T.);
#746 = ORIENTED_EDGE('',*,*,#747,.F.);
#747 = EDGE_CURVE('',#724,#702,#748,.T.);
#748 = LINE('',#749,#750);
#749 = CARTESIAN_POINT('',(0.705,1.45,-0.72));
#750 = VECTOR('',#751,1.);
#751 = DIRECTION('',(-1.,-1.144237745224E-17,-0.));
#752 = ORIENTED_EDGE('',*,*,#723,.F.);
#753 = PLANE('',#754);
#754 = AXIS2_PLACEMENT_3D('',#755,#756,#757);
#755 = CARTESIAN_POINT('',(0.705,1.45,-0.72));
#756 = DIRECTION('',(1.144237745224E-17,-1.,0.));
#757 = DIRECTION('',(-1.,-1.144237745224E-17,-0.));
#758 = ADVANCED_FACE('',(#759),#798,.F.);
#759 = FACE_BOUND('',#760,.F.);
#760 = EDGE_LOOP('',(#761,#769,#777,#783,#784,#792));
#761 = ORIENTED_EDGE('',*,*,#762,.F.);
#762 = EDGE_CURVE('',#763,#552,#765,.T.);
#763 = VERTEX_POINT('',#764);
#764 = CARTESIAN_POINT('',(-0.85,-0.775,-0.72));
#765 = LINE('',#766,#767);
#766 = CARTESIAN_POINT('',(-0.85,-0.775,-0.72));
#767 = VECTOR('',#768,1.);
#768 = DIRECTION('',(1.,1.33907057367E-16,0.));
#769 = ORIENTED_EDGE('',*,*,#770,.T.);
#770 = EDGE_CURVE('',#763,#771,#773,.T.);
#771 = VERTEX_POINT('',#772);
#772 = CARTESIAN_POINT('',(-0.85,-1.125,-0.72));
#773 = LINE('',#774,#775);
#774 = CARTESIAN_POINT('',(-0.85,-0.775,-0.72));
#775 = VECTOR('',#776,1.);
#776 = DIRECTION('',(1.33907057367E-16,-1.,0.));
#777 = ORIENTED_EDGE('',*,*,#778,.T.);
#778 = EDGE_CURVE('',#771,#444,#779,.T.);
#779 = LINE('',#780,#781);
#780 = CARTESIAN_POINT('',(-0.85,-1.125,-0.72));
#781 = VECTOR('',#782,1.);
#782 = DIRECTION('',(1.,1.33907057367E-16,0.));
#783 = ORIENTED_EDGE('',*,*,#443,.T.);
#784 = ORIENTED_EDGE('',*,*,#785,.F.);
#785 = EDGE_CURVE('',#786,#436,#788,.T.);
#786 = VERTEX_POINT('',#787);
#787 = CARTESIAN_POINT('',(-0.775,-0.775,-0.72));
#788 = LINE('',#789,#790);
#789 = CARTESIAN_POINT('',(-0.775,1.3425,-0.72));
#790 = VECTOR('',#791,1.);
#791 = DIRECTION('',(1.144237745224E-17,-1.,0.));
#792 = ORIENTED_EDGE('',*,*,#793,.F.);
#793 = EDGE_CURVE('',#552,#786,#794,.T.);
#794 = LINE('',#795,#796);
#795 = CARTESIAN_POINT('',(-0.85,-0.775,-0.72));
#796 = VECTOR('',#797,1.);
#797 = DIRECTION('',(1.,1.33907057367E-16,0.));
#798 = PLANE('',#799);
#799 = AXIS2_PLACEMENT_3D('',#800,#801,#802);
#800 = CARTESIAN_POINT('',(-0.85,-0.775,-0.72));
#801 = DIRECTION('',(0.,0.,1.));
#802 = DIRECTION('',(1.,1.33907057367E-16,0.));
#803 = ADVANCED_FACE('',(#804),#852,.F.);
#804 = FACE_BOUND('',#805,.F.);
#805 = EDGE_LOOP('',(#806,#816,#824,#830,#831,#832,#839,#847));
#806 = ORIENTED_EDGE('',*,*,#807,.T.);
#807 = EDGE_CURVE('',#808,#810,#812,.T.);
#808 = VERTEX_POINT('',#809);
#809 = CARTESIAN_POINT('',(-0.775,1.3425,-0.72));
#810 = VERTEX_POINT('',#811);
#811 = CARTESIAN_POINT('',(-0.775,1.125,-0.72));
#812 = LINE('',#813,#814);
#813 = CARTESIAN_POINT('',(-0.775,1.3425,-0.72));
#814 = VECTOR('',#815,1.);
#815 = DIRECTION('',(1.144237745224E-17,-1.,0.));
#816 = ORIENTED_EDGE('',*,*,#817,.T.);
#817 = EDGE_CURVE('',#810,#818,#820,.T.);
#818 = VERTEX_POINT('',#819);
#819 = CARTESIAN_POINT('',(-0.775,0.775,-0.72));
#820 = LINE('',#821,#822);
#821 = CARTESIAN_POINT('',(-0.775,1.3425,-0.72));
#822 = VECTOR('',#823,1.);
#823 = DIRECTION('',(1.144237745224E-17,-1.,0.));
#824 = ORIENTED_EDGE('',*,*,#825,.T.);
#825 = EDGE_CURVE('',#818,#786,#826,.T.);
#826 = LINE('',#827,#828);
#827 = CARTESIAN_POINT('',(-0.775,1.3425,-0.72));
#828 = VECTOR('',#829,1.);
#829 = DIRECTION('',(1.144237745224E-17,-1.,0.));
#830 = ORIENTED_EDGE('',*,*,#785,.T.);
#831 = ORIENTED_EDGE('',*,*,#435,.T.);
#832 = ORIENTED_EDGE('',*,*,#833,.T.);
#833 = EDGE_CURVE('',#428,#834,#836,.T.);
#834 = VERTEX_POINT('',#835);
#835 = CARTESIAN_POINT('',(-0.725810707854,-1.317905353927,-1.07));
#836 = B_SPLINE_CURVE_WITH_KNOTS('',1,(#837,#838),.UNSPECIFIED.,.F.,.F.,
  (2,2),(0.,1.),.PIECEWISE_BEZIER_KNOTS.);
#837 = CARTESIAN_POINT('',(-0.775,-1.3425,-0.72));
#838 = CARTESIAN_POINT('',(-0.725810707854,-1.317905353927,-1.07));
#839 = ORIENTED_EDGE('',*,*,#840,.F.);
#840 = EDGE_CURVE('',#841,#834,#843,.T.);
#841 = VERTEX_POINT('',#842);
#842 = CARTESIAN_POINT('',(-0.725810707854,1.317905353927,-1.07));
#843 = LINE('',#844,#845);
#844 = CARTESIAN_POINT('',(-0.725810707854,1.317905353927,-1.07));
#845 = VECTOR('',#846,1.);
#846 = DIRECTION('',(1.144237745224E-17,-1.,0.));
#847 = ORIENTED_EDGE('',*,*,#848,.F.);
#848 = EDGE_CURVE('',#808,#841,#849,.T.);
#849 = B_SPLINE_CURVE_WITH_KNOTS('',1,(#850,#851),.UNSPECIFIED.,.F.,.F.,
  (2,2),(0.,1.),.PIECEWISE_BEZIER_KNOTS.);
#850 = CARTESIAN_POINT('',(-0.775,1.3425,-0.72));
#851 = CARTESIAN_POINT('',(-0.725810707854,1.317905353927,-1.07));
#852 = B_SPLINE_SURFACE_WITH_KNOTS('',1,1,(
    (#853,#854)
    ,(#855,#856
    )),.UNSPECIFIED.,.F.,.F.,.F.,(2,2),(2,2),(0.,2.685),(0.,1.),
  .PIECEWISE_BEZIER_KNOTS.);
#853 = CARTESIAN_POINT('',(-0.775,1.3425,-0.72));
#854 = CARTESIAN_POINT('',(-0.725810707854,1.317905353927,-1.07));
#855 = CARTESIAN_POINT('',(-0.775,-1.3425,-0.72));
#856 = CARTESIAN_POINT('',(-0.725810707854,-1.317905353927,-1.07));
#857 = ADVANCED_FACE('',(#858),#875,.F.);
#858 = FACE_BOUND('',#859,.F.);
#859 = EDGE_LOOP('',(#860,#861,#868,#874));
#860 = ORIENTED_EDGE('',*,*,#427,.T.);
#861 = ORIENTED_EDGE('',*,*,#862,.T.);
#862 = EDGE_CURVE('',#420,#863,#865,.T.);
#863 = VERTEX_POINT('',#864);
#864 = CARTESIAN_POINT('',(-0.667905353927,-1.375810707854,-1.07));
#865 = B_SPLINE_CURVE_WITH_KNOTS('',1,(#866,#867),.UNSPECIFIED.,.F.,.F.,
  (2,2),(0.,1.),.PIECEWISE_BEZIER_KNOTS.);
#866 = CARTESIAN_POINT('',(-0.6925,-1.425,-0.72));
#867 = CARTESIAN_POINT('',(-0.667905353927,-1.375810707854,-1.07));
#868 = ORIENTED_EDGE('',*,*,#869,.F.);
#869 = EDGE_CURVE('',#834,#863,#870,.T.);
#870 = LINE('',#871,#872);
#871 = CARTESIAN_POINT('',(-0.725810707854,-1.317905353927,-1.07));
#872 = VECTOR('',#873,1.);
#873 = DIRECTION('',(0.707106781187,-0.707106781187,0.));
#874 = ORIENTED_EDGE('',*,*,#833,.F.);
#875 = B_SPLINE_SURFACE_WITH_KNOTS('',1,1,(
    (#876,#877)
    ,(#878,#879
    )),.UNSPECIFIED.,.F.,.F.,.F.,(2,2),(2,2),(0.,0.116672618896),(0.,1.)
  ,.PIECEWISE_BEZIER_KNOTS.);
#876 = CARTESIAN_POINT('',(-0.775,-1.3425,-0.72));
#877 = CARTESIAN_POINT('',(-0.725810707854,-1.317905353927,-1.07));
#878 = CARTESIAN_POINT('',(-0.6925,-1.425,-0.72));
#879 = CARTESIAN_POINT('',(-0.667905353927,-1.375810707854,-1.07));
#880 = ADVANCED_FACE('',(#881),#898,.F.);
#881 = FACE_BOUND('',#882,.F.);
#882 = EDGE_LOOP('',(#883,#884,#891,#897));
#883 = ORIENTED_EDGE('',*,*,#419,.T.);
#884 = ORIENTED_EDGE('',*,*,#885,.T.);
#885 = EDGE_CURVE('',#412,#886,#888,.T.);
#886 = VERTEX_POINT('',#887);
#887 = CARTESIAN_POINT('',(0.667905353927,-1.375810707854,-1.07));
#888 = B_SPLINE_CURVE_WITH_KNOTS('',1,(#889,#890),.UNSPECIFIED.,.F.,.F.,
  (2,2),(0.,1.),.PIECEWISE_BEZIER_KNOTS.);
#889 = CARTESIAN_POINT('',(0.6925,-1.425,-0.72));
#890 = CARTESIAN_POINT('',(0.667905353927,-1.375810707854,-1.07));
#891 = ORIENTED_EDGE('',*,*,#892,.F.);
#892 = EDGE_CURVE('',#863,#886,#893,.T.);
#893 = LINE('',#894,#895);
#894 = CARTESIAN_POINT('',(-0.667905353927,-1.375810707854,-1.07));
#895 = VECTOR('',#896,1.);
#896 = DIRECTION('',(1.,1.144237745224E-17,0.));
#897 = ORIENTED_EDGE('',*,*,#862,.F.);
#898 = B_SPLINE_SURFACE_WITH_KNOTS('',1,1,(
    (#899,#900)
    ,(#901,#902
    )),.UNSPECIFIED.,.F.,.F.,.F.,(2,2),(2,2),(0.,1.385),(0.,1.),
  .PIECEWISE_BEZIER_KNOTS.);
#899 = CARTESIAN_POINT('',(-0.6925,-1.425,-0.72));
#900 = CARTESIAN_POINT('',(-0.667905353927,-1.375810707854,-1.07));
#901 = CARTESIAN_POINT('',(0.6925,-1.425,-0.72));
#902 = CARTESIAN_POINT('',(0.667905353927,-1.375810707854,-1.07));
#903 = ADVANCED_FACE('',(#904),#921,.F.);
#904 = FACE_BOUND('',#905,.F.);
#905 = EDGE_LOOP('',(#906,#907,#914,#920));
#906 = ORIENTED_EDGE('',*,*,#411,.T.);
#907 = ORIENTED_EDGE('',*,*,#908,.T.);
#908 = EDGE_CURVE('',#404,#909,#911,.T.);
#909 = VERTEX_POINT('',#910);
#910 = CARTESIAN_POINT('',(0.725810707854,-1.317905353927,-1.07));
#911 = B_SPLINE_CURVE_WITH_KNOTS('',1,(#912,#913),.UNSPECIFIED.,.F.,.F.,
  (2,2),(0.,1.),.PIECEWISE_BEZIER_KNOTS.);
#912 = CARTESIAN_POINT('',(0.775,-1.3425,-0.72));
#913 = CARTESIAN_POINT('',(0.725810707854,-1.317905353927,-1.07));
#914 = ORIENTED_EDGE('',*,*,#915,.F.);
#915 = EDGE_CURVE('',#886,#909,#916,.T.);
#916 = LINE('',#917,#918);
#917 = CARTESIAN_POINT('',(0.667905353927,-1.375810707854,-1.07));
#918 = VECTOR('',#919,1.);
#919 = DIRECTION('',(0.707106781187,0.707106781187,0.));
#920 = ORIENTED_EDGE('',*,*,#885,.F.);
#921 = B_SPLINE_SURFACE_WITH_KNOTS('',1,1,(
    (#922,#923)
    ,(#924,#925
    )),.UNSPECIFIED.,.F.,.F.,.F.,(2,2),(2,2),(0.,0.116672618896),(0.,1.)
  ,.PIECEWISE_BEZIER_KNOTS.);
#922 = CARTESIAN_POINT('',(0.6925,-1.425,-0.72));
#923 = CARTESIAN_POINT('',(0.667905353927,-1.375810707854,-1.07));
#924 = CARTESIAN_POINT('',(0.775,-1.3425,-0.72));
#925 = CARTESIAN_POINT('',(0.725810707854,-1.317905353927,-1.07));
#926 = ADVANCED_FACE('',(#927),#960,.F.);
#927 = FACE_BOUND('',#928,.F.);
#928 = EDGE_LOOP('',(#929,#930,#938,#946,#953,#959));
#929 = ORIENTED_EDGE('',*,*,#403,.T.);
#930 = ORIENTED_EDGE('',*,*,#931,.T.);
#931 = EDGE_CURVE('',#396,#932,#934,.T.);
#932 = VERTEX_POINT('',#933);
#933 = CARTESIAN_POINT('',(0.775,0.175,-0.72));
#934 = LINE('',#935,#936);
#935 = CARTESIAN_POINT('',(0.775,-1.3425,-0.72));
#936 = VECTOR('',#937,1.);
#937 = DIRECTION('',(-1.144237745224E-17,1.,0.));
#938 = ORIENTED_EDGE('',*,*,#939,.T.);
#939 = EDGE_CURVE('',#932,#940,#942,.T.);
#940 = VERTEX_POINT('',#941);
#941 = CARTESIAN_POINT('',(0.775,1.3425,-0.72));
#942 = LINE('',#943,#944);
#943 = CARTESIAN_POINT('',(0.775,-1.3425,-0.72));
#944 = VECTOR('',#945,1.);
#945 = DIRECTION('',(-1.144237745224E-17,1.,0.));
#946 = ORIENTED_EDGE('',*,*,#947,.T.);
#947 = EDGE_CURVE('',#940,#948,#950,.T.);
#948 = VERTEX_POINT('',#949);
#949 = CARTESIAN_POINT('',(0.725810707854,1.317905353927,-1.07));
#950 = B_SPLINE_CURVE_WITH_KNOTS('',1,(#951,#952),.UNSPECIFIED.,.F.,.F.,
  (2,2),(0.,1.),.PIECEWISE_BEZIER_KNOTS.);
#951 = CARTESIAN_POINT('',(0.775,1.3425,-0.72));
#952 = CARTESIAN_POINT('',(0.725810707854,1.317905353927,-1.07));
#953 = ORIENTED_EDGE('',*,*,#954,.F.);
#954 = EDGE_CURVE('',#909,#948,#955,.T.);
#955 = LINE('',#956,#957);
#956 = CARTESIAN_POINT('',(0.725810707854,-1.317905353927,-1.07));
#957 = VECTOR('',#958,1.);
#958 = DIRECTION('',(-1.144237745224E-17,1.,0.));
#959 = ORIENTED_EDGE('',*,*,#908,.F.);
#960 = B_SPLINE_SURFACE_WITH_KNOTS('',1,1,(
    (#961,#962)
    ,(#963,#964
    )),.UNSPECIFIED.,.F.,.F.,.F.,(2,2),(2,2),(0.,2.685),(0.,1.),
  .PIECEWISE_BEZIER_KNOTS.);
#961 = CARTESIAN_POINT('',(0.775,-1.3425,-0.72));
#962 = CARTESIAN_POINT('',(0.725810707854,-1.317905353927,-1.07));
#963 = CARTESIAN_POINT('',(0.775,1.3425,-0.72));
#964 = CARTESIAN_POINT('',(0.725810707854,1.317905353927,-1.07));
#965 = ADVANCED_FACE('',(#966),#998,.F.);
#966 = FACE_BOUND('',#967,.F.);
#967 = EDGE_LOOP('',(#968,#976,#984,#990,#996,#997));
#968 = ORIENTED_EDGE('',*,*,#969,.F.);
#969 = EDGE_CURVE('',#970,#388,#972,.T.);
#970 = VERTEX_POINT('',#971);
#971 = CARTESIAN_POINT('',(0.85,-0.175,-0.72));
#972 = LINE('',#973,#974);
#973 = CARTESIAN_POINT('',(0.85,-0.175,-0.72));
#974 = VECTOR('',#975,1.);
#975 = DIRECTION('',(-1.,-1.144237745224E-17,-0.));
#976 = ORIENTED_EDGE('',*,*,#977,.T.);
#977 = EDGE_CURVE('',#970,#978,#980,.T.);
#978 = VERTEX_POINT('',#979);
#979 = CARTESIAN_POINT('',(0.85,0.175,-0.72));
#980 = LINE('',#981,#982);
#981 = CARTESIAN_POINT('',(0.85,-0.175,-0.72));
#982 = VECTOR('',#983,1.);
#983 = DIRECTION('',(-1.144237745224E-17,1.,0.));
#984 = ORIENTED_EDGE('',*,*,#985,.T.);
#985 = EDGE_CURVE('',#978,#670,#986,.T.);
#986 = LINE('',#987,#988);
#987 = CARTESIAN_POINT('',(0.85,0.175,-0.72));
#988 = VECTOR('',#989,1.);
#989 = DIRECTION('',(-1.,-1.144237745224E-17,-0.));
#990 = ORIENTED_EDGE('',*,*,#991,.T.);
#991 = EDGE_CURVE('',#670,#932,#992,.T.);
#992 = LINE('',#993,#994);
#993 = CARTESIAN_POINT('',(0.85,0.175,-0.72));
#994 = VECTOR('',#995,1.);
#995 = DIRECTION('',(-1.,-1.144237745224E-17,-0.));
#996 = ORIENTED_EDGE('',*,*,#931,.F.);
#997 = ORIENTED_EDGE('',*,*,#395,.F.);
#998 = PLANE('',#999);
#999 = AXIS2_PLACEMENT_3D('',#1000,#1001,#1002);
#1000 = CARTESIAN_POINT('',(0.85,-0.175,-0.72));
#1001 = DIRECTION('',(0.,0.,1.));
#1002 = DIRECTION('',(-1.,-1.144237745224E-17,0.));
#1003 = ADVANCED_FACE('',(#1004),#1042,.F.);
#1004 = FACE_BOUND('',#1005,.F.);
#1005 = EDGE_LOOP('',(#1006,#1007,#1008,#1009,#1010,#1011,#1012,#1018,
    #1019,#1027,#1035,#1041));
#1006 = ORIENTED_EDGE('',*,*,#991,.F.);
#1007 = ORIENTED_EDGE('',*,*,#685,.T.);
#1008 = ORIENTED_EDGE('',*,*,#730,.T.);
#1009 = ORIENTED_EDGE('',*,*,#747,.T.);
#1010 = ORIENTED_EDGE('',*,*,#701,.T.);
#1011 = ORIENTED_EDGE('',*,*,#497,.T.);
#1012 = ORIENTED_EDGE('',*,*,#1013,.T.);
#1013 = EDGE_CURVE('',#490,#810,#1014,.T.);
#1014 = LINE('',#1015,#1016);
#1015 = CARTESIAN_POINT('',(-0.85,1.125,-0.72));
#1016 = VECTOR('',#1017,1.);
#1017 = DIRECTION('',(1.,1.33907057367E-16,0.));
#1018 = ORIENTED_EDGE('',*,*,#807,.F.);
#1019 = ORIENTED_EDGE('',*,*,#1020,.F.);
#1020 = EDGE_CURVE('',#1021,#808,#1023,.T.);
#1021 = VERTEX_POINT('',#1022);
#1022 = CARTESIAN_POINT('',(-0.6925,1.425,-0.72));
#1023 = LINE('',#1024,#1025);
#1024 = CARTESIAN_POINT('',(-0.6925,1.425,-0.72));
#1025 = VECTOR('',#1026,1.);
#1026 = DIRECTION('',(-0.707106781187,-0.707106781187,0.));
#1027 = ORIENTED_EDGE('',*,*,#1028,.F.);
#1028 = EDGE_CURVE('',#1029,#1021,#1031,.T.);
#1029 = VERTEX_POINT('',#1030);
#1030 = CARTESIAN_POINT('',(0.6925,1.425,-0.72));
#1031 = LINE('',#1032,#1033);
#1032 = CARTESIAN_POINT('',(0.6925,1.425,-0.72));
#1033 = VECTOR('',#1034,1.);
#1034 = DIRECTION('',(-1.,-1.144237745224E-17,-0.));
#1035 = ORIENTED_EDGE('',*,*,#1036,.F.);
#1036 = EDGE_CURVE('',#940,#1029,#1037,.T.);
#1037 = LINE('',#1038,#1039);
#1038 = CARTESIAN_POINT('',(0.775,1.3425,-0.72));
#1039 = VECTOR('',#1040,1.);
#1040 = DIRECTION('',(-0.707106781187,0.707106781187,-0.));
#1041 = ORIENTED_EDGE('',*,*,#939,.F.);
#1042 = PLANE('',#1043);
#1043 = AXIS2_PLACEMENT_3D('',#1044,#1045,#1046);
#1044 = CARTESIAN_POINT('',(-3.309872566017E-17,-1.4375,-0.72));
#1045 = DIRECTION('',(2.888762391192E-17,-8.634038173873E-28,1.));
#1046 = DIRECTION('',(1.,-2.945745698626E-17,-2.888762391192E-17));
#1047 = ADVANCED_FACE('',(#1048),#1134,.F.);
#1048 = FACE_BOUND('',#1049,.F.);
#1049 = EDGE_LOOP('',(#1050,#1051,#1052,#1061,#1069,#1078,#1086,#1094,
    #1102,#1111,#1119,#1128));
#1050 = ORIENTED_EDGE('',*,*,#489,.F.);
#1051 = ORIENTED_EDGE('',*,*,#511,.T.);
#1052 = ORIENTED_EDGE('',*,*,#1053,.T.);
#1053 = EDGE_CURVE('',#512,#1054,#1056,.T.);
#1054 = VERTEX_POINT('',#1055);
#1055 = CARTESIAN_POINT('',(-0.948480775301,1.125,-0.487364817767));
#1056 = CIRCLE('',#1057,0.1);
#1057 = AXIS2_PLACEMENT_3D('',#1058,#1059,#1060);
#1058 = CARTESIAN_POINT('',(-0.85,1.125,-0.47));
#1059 = DIRECTION('',(-1.33907057367E-16,1.,0.));
#1060 = DIRECTION('',(0.,0.,-1.));
#1061 = ORIENTED_EDGE('',*,*,#1062,.T.);
#1062 = EDGE_CURVE('',#1054,#1063,#1065,.T.);
#1063 = VERTEX_POINT('',#1064);
#1064 = CARTESIAN_POINT('',(-0.971430759818,1.125,-0.326587955583));
#1065 = LINE('',#1066,#1067);
#1066 = CARTESIAN_POINT('',(-0.948480775301,1.125,-0.487364817767));
#1067 = VECTOR('',#1068,1.);
#1068 = DIRECTION('',(-0.14131190243,-1.892266102533E-17,0.989965123745)
  );
#1069 = ORIENTED_EDGE('',*,*,#1070,.T.);
#1070 = EDGE_CURVE('',#1063,#1071,#1073,.T.);
#1071 = VERTEX_POINT('',#1072);
#1072 = CARTESIAN_POINT('',(-1.217632698071,1.125,-0.12));
#1073 = CIRCLE('',#1074,0.25);
#1074 = AXIS2_PLACEMENT_3D('',#1075,#1076,#1077);
#1075 = CARTESIAN_POINT('',(-1.217632698071,1.125,-0.37));
#1076 = DIRECTION('',(1.33907057367E-16,-1.,-2.813411212337E-33));
#1077 = DIRECTION('',(0.984807753012,1.31872708278E-16,0.173648177667));
#1078 = ORIENTED_EDGE('',*,*,#1079,.T.);
#1079 = EDGE_CURVE('',#1071,#1080,#1082,.T.);
#1080 = VERTEX_POINT('',#1081);
#1081 = CARTESIAN_POINT('',(-1.4,1.125,-0.12));
#1082 = LINE('',#1083,#1084);
#1083 = CARTESIAN_POINT('',(-1.217632698071,1.125,-0.12));
#1084 = VECTOR('',#1085,1.);
#1085 = DIRECTION('',(-1.,-1.33907057367E-16,0.));
#1086 = ORIENTED_EDGE('',*,*,#1087,.T.);
#1087 = EDGE_CURVE('',#1080,#1088,#1090,.T.);
#1088 = VERTEX_POINT('',#1089);
#1089 = CARTESIAN_POINT('',(-1.4,1.125,-0.27));
#1090 = LINE('',#1091,#1092);
#1091 = CARTESIAN_POINT('',(-1.4,1.125,-0.12));
#1092 = VECTOR('',#1093,1.);
#1093 = DIRECTION('',(0.,0.,-1.));
#1094 = ORIENTED_EDGE('',*,*,#1095,.T.);
#1095 = EDGE_CURVE('',#1088,#1096,#1098,.T.);
#1096 = VERTEX_POINT('',#1097);
#1097 = CARTESIAN_POINT('',(-1.217632698071,1.125,-0.27));
#1098 = LINE('',#1099,#1100);
#1099 = CARTESIAN_POINT('',(-1.4,1.125,-0.27));
#1100 = VECTOR('',#1101,1.);
#1101 = DIRECTION('',(1.,1.33907057367E-16,0.));
#1102 = ORIENTED_EDGE('',*,*,#1103,.T.);
#1103 = EDGE_CURVE('',#1096,#1104,#1106,.T.);
#1104 = VERTEX_POINT('',#1105);
#1105 = CARTESIAN_POINT('',(-1.11915192277,1.125,-0.352635182233));
#1106 = CIRCLE('',#1107,0.1);
#1107 = AXIS2_PLACEMENT_3D('',#1108,#1109,#1110);
#1108 = CARTESIAN_POINT('',(-1.217632698071,1.125,-0.37));
#1109 = DIRECTION('',(-1.33907057367E-16,1.,-5.844848421296E-47));
#1110 = DIRECTION('',(-2.22044604925E-15,-2.973333964971E-31,1.));
#1111 = ORIENTED_EDGE('',*,*,#1112,.T.);
#1112 = EDGE_CURVE('',#1104,#1113,#1115,.T.);
#1113 = VERTEX_POINT('',#1114);
#1114 = CARTESIAN_POINT('',(-1.096201938253,1.125,-0.513412044417));
#1115 = LINE('',#1116,#1117);
#1116 = CARTESIAN_POINT('',(-1.11915192277,1.125,-0.352635182233));
#1117 = VECTOR('',#1118,1.);
#1118 = DIRECTION('',(0.14131190243,1.892266102533E-17,-0.989965123745)
  );
#1119 = ORIENTED_EDGE('',*,*,#1120,.T.);
#1120 = EDGE_CURVE('',#1113,#1121,#1123,.T.);
#1121 = VERTEX_POINT('',#1122);
#1122 = CARTESIAN_POINT('',(-0.85,1.125,-0.72));
#1123 = CIRCLE('',#1124,0.25);
#1124 = AXIS2_PLACEMENT_3D('',#1125,#1126,#1127);
#1125 = CARTESIAN_POINT('',(-0.85,1.125,-0.47));
#1126 = DIRECTION('',(1.33907057367E-16,-1.,-2.813411212337E-33));
#1127 = DIRECTION('',(-0.984807753012,-1.31872708278E-16,-0.173648177667
    ));
#1128 = ORIENTED_EDGE('',*,*,#1129,.T.);
#1129 = EDGE_CURVE('',#1121,#490,#1130,.T.);
#1130 = LINE('',#1131,#1132);
#1131 = CARTESIAN_POINT('',(-0.85,1.125,-0.72));
#1132 = VECTOR('',#1133,1.);
#1133 = DIRECTION('',(1.,1.33907057367E-16,0.));
#1134 = PLANE('',#1135);
#1135 = AXIS2_PLACEMENT_3D('',#1136,#1137,#1138);
#1136 = CARTESIAN_POINT('',(-1.064349127789,1.125,-0.402825311951));
#1137 = DIRECTION('',(1.33907057367E-16,-1.,0.));
#1138 = DIRECTION('',(0.,0.,-1.));
#1139 = ADVANCED_FACE('',(#1140),#1159,.F.);
#1140 = FACE_BOUND('',#1141,.F.);
#1141 = EDGE_LOOP('',(#1142,#1143,#1152,#1158));
#1142 = ORIENTED_EDGE('',*,*,#528,.T.);
#1143 = ORIENTED_EDGE('',*,*,#1144,.T.);
#1144 = EDGE_CURVE('',#521,#1145,#1147,.T.);
#1145 = VERTEX_POINT('',#1146);
#1146 = CARTESIAN_POINT('',(-0.948480775301,0.775,-0.487364817767));
#1147 = CIRCLE('',#1148,0.1);
#1148 = AXIS2_PLACEMENT_3D('',#1149,#1150,#1151);
#1149 = CARTESIAN_POINT('',(-0.85,0.775,-0.47));
#1150 = DIRECTION('',(-1.33907057367E-16,1.,0.));
#1151 = DIRECTION('',(0.,0.,-1.));
#1152 = ORIENTED_EDGE('',*,*,#1153,.F.);
#1153 = EDGE_CURVE('',#1054,#1145,#1154,.T.);
#1154 = LINE('',#1155,#1156);
#1155 = CARTESIAN_POINT('',(-0.948480775301,1.125,-0.487364817767));
#1156 = VECTOR('',#1157,1.);
#1157 = DIRECTION('',(1.33907057367E-16,-1.,0.));
#1158 = ORIENTED_EDGE('',*,*,#1053,.F.);
#1159 = CYLINDRICAL_SURFACE('',#1160,0.1);
#1160 = AXIS2_PLACEMENT_3D('',#1161,#1162,#1163);
#1161 = CARTESIAN_POINT('',(-0.85,1.125,-0.47));
#1162 = DIRECTION('',(-1.33907057367E-16,1.,-0.));
#1163 = DIRECTION('',(0.,0.,-1.));
#1164 = ADVANCED_FACE('',(#1165),#1243,.T.);
#1165 = FACE_BOUND('',#1166,.T.);
#1166 = EDGE_LOOP('',(#1167,#1168,#1169,#1170,#1178,#1187,#1195,#1203,
    #1211,#1220,#1228,#1237));
#1167 = ORIENTED_EDGE('',*,*,#542,.F.);
#1168 = ORIENTED_EDGE('',*,*,#520,.T.);
#1169 = ORIENTED_EDGE('',*,*,#1144,.T.);
#1170 = ORIENTED_EDGE('',*,*,#1171,.T.);
#1171 = EDGE_CURVE('',#1145,#1172,#1174,.T.);
#1172 = VERTEX_POINT('',#1173);
#1173 = CARTESIAN_POINT('',(-0.971430759818,0.775,-0.326587955583));
#1174 = LINE('',#1175,#1176);
#1175 = CARTESIAN_POINT('',(-0.948480775301,0.775,-0.487364817767));
#1176 = VECTOR('',#1177,1.);
#1177 = DIRECTION('',(-0.14131190243,-1.892266102533E-17,0.989965123745)
  );
#1178 = ORIENTED_EDGE('',*,*,#1179,.T.);
#1179 = EDGE_CURVE('',#1172,#1180,#1182,.T.);
#1180 = VERTEX_POINT('',#1181);
#1181 = CARTESIAN_POINT('',(-1.217632698071,0.775,-0.12));
#1182 = CIRCLE('',#1183,0.25);
#1183 = AXIS2_PLACEMENT_3D('',#1184,#1185,#1186);
#1184 = CARTESIAN_POINT('',(-1.217632698071,0.775,-0.37));
#1185 = DIRECTION('',(1.33907057367E-16,-1.,-2.813411212337E-33));
#1186 = DIRECTION('',(0.984807753012,1.31872708278E-16,0.173648177667));
#1187 = ORIENTED_EDGE('',*,*,#1188,.T.);
#1188 = EDGE_CURVE('',#1180,#1189,#1191,.T.);
#1189 = VERTEX_POINT('',#1190);
#1190 = CARTESIAN_POINT('',(-1.4,0.775,-0.12));
#1191 = LINE('',#1192,#1193);
#1192 = CARTESIAN_POINT('',(-1.217632698071,0.775,-0.12));
#1193 = VECTOR('',#1194,1.);
#1194 = DIRECTION('',(-1.,-1.33907057367E-16,0.));
#1195 = ORIENTED_EDGE('',*,*,#1196,.T.);
#1196 = EDGE_CURVE('',#1189,#1197,#1199,.T.);
#1197 = VERTEX_POINT('',#1198);
#1198 = CARTESIAN_POINT('',(-1.4,0.775,-0.27));
#1199 = LINE('',#1200,#1201);
#1200 = CARTESIAN_POINT('',(-1.4,0.775,-0.12));
#1201 = VECTOR('',#1202,1.);
#1202 = DIRECTION('',(0.,0.,-1.));
#1203 = ORIENTED_EDGE('',*,*,#1204,.T.);
#1204 = EDGE_CURVE('',#1197,#1205,#1207,.T.);
#1205 = VERTEX_POINT('',#1206);
#1206 = CARTESIAN_POINT('',(-1.217632698071,0.775,-0.27));
#1207 = LINE('',#1208,#1209);
#1208 = CARTESIAN_POINT('',(-1.4,0.775,-0.27));
#1209 = VECTOR('',#1210,1.);
#1210 = DIRECTION('',(1.,1.33907057367E-16,0.));
#1211 = ORIENTED_EDGE('',*,*,#1212,.T.);
#1212 = EDGE_CURVE('',#1205,#1213,#1215,.T.);
#1213 = VERTEX_POINT('',#1214);
#1214 = CARTESIAN_POINT('',(-1.11915192277,0.775,-0.352635182233));
#1215 = CIRCLE('',#1216,0.1);
#1216 = AXIS2_PLACEMENT_3D('',#1217,#1218,#1219);
#1217 = CARTESIAN_POINT('',(-1.217632698071,0.775,-0.37));
#1218 = DIRECTION('',(-1.33907057367E-16,1.,-5.844848421296E-47));
#1219 = DIRECTION('',(-2.22044604925E-15,-2.973333964971E-31,1.));
#1220 = ORIENTED_EDGE('',*,*,#1221,.T.);
#1221 = EDGE_CURVE('',#1213,#1222,#1224,.T.);
#1222 = VERTEX_POINT('',#1223);
#1223 = CARTESIAN_POINT('',(-1.096201938253,0.775,-0.513412044417));
#1224 = LINE('',#1225,#1226);
#1225 = CARTESIAN_POINT('',(-1.11915192277,0.775,-0.352635182233));
#1226 = VECTOR('',#1227,1.);
#1227 = DIRECTION('',(0.14131190243,1.892266102533E-17,-0.989965123745)
  );
#1228 = ORIENTED_EDGE('',*,*,#1229,.T.);
#1229 = EDGE_CURVE('',#1222,#1230,#1232,.T.);
#1230 = VERTEX_POINT('',#1231);
#1231 = CARTESIAN_POINT('',(-0.85,0.775,-0.72));
#1232 = CIRCLE('',#1233,0.25);
#1233 = AXIS2_PLACEMENT_3D('',#1234,#1235,#1236);
#1234 = CARTESIAN_POINT('',(-0.85,0.775,-0.47));
#1235 = DIRECTION('',(1.33907057367E-16,-1.,-2.813411212337E-33));
#1236 = DIRECTION('',(-0.984807753012,-1.31872708278E-16,-0.173648177667
    ));
#1237 = ORIENTED_EDGE('',*,*,#1238,.T.);
#1238 = EDGE_CURVE('',#1230,#543,#1239,.T.);
#1239 = LINE('',#1240,#1241);
#1240 = CARTESIAN_POINT('',(-0.85,0.775,-0.72));
#1241 = VECTOR('',#1242,1.);
#1242 = DIRECTION('',(1.,1.33907057367E-16,0.));
#1243 = PLANE('',#1244);
#1244 = AXIS2_PLACEMENT_3D('',#1245,#1246,#1247);
#1245 = CARTESIAN_POINT('',(-1.064349127789,0.775,-0.402825311951));
#1246 = DIRECTION('',(1.33907057367E-16,-1.,0.));
#1247 = DIRECTION('',(0.,0.,-1.));
#1248 = ADVANCED_FACE('',(#1249),#1260,.F.);
#1249 = FACE_BOUND('',#1250,.F.);
#1250 = EDGE_LOOP('',(#1251,#1252,#1253,#1254));
#1251 = ORIENTED_EDGE('',*,*,#559,.T.);
#1252 = ORIENTED_EDGE('',*,*,#793,.T.);
#1253 = ORIENTED_EDGE('',*,*,#825,.F.);
#1254 = ORIENTED_EDGE('',*,*,#1255,.F.);
#1255 = EDGE_CURVE('',#543,#818,#1256,.T.);
#1256 = LINE('',#1257,#1258);
#1257 = CARTESIAN_POINT('',(-0.85,0.775,-0.72));
#1258 = VECTOR('',#1259,1.);
#1259 = DIRECTION('',(1.,1.33907057367E-16,0.));
#1260 = PLANE('',#1261);
#1261 = AXIS2_PLACEMENT_3D('',#1262,#1263,#1264);
#1262 = CARTESIAN_POINT('',(-3.309872566017E-17,-1.4375,-0.72));
#1263 = DIRECTION('',(2.888762391192E-17,-8.634038173873E-28,1.));
#1264 = DIRECTION('',(1.,-2.945745698626E-17,-2.888762391192E-17));
#1265 = ADVANCED_FACE('',(#1266),#1345,.F.);
#1266 = FACE_BOUND('',#1267,.F.);
#1267 = EDGE_LOOP('',(#1268,#1269,#1270,#1279,#1287,#1296,#1304,#1312,
    #1320,#1329,#1337,#1344));
#1268 = ORIENTED_EDGE('',*,*,#551,.F.);
#1269 = ORIENTED_EDGE('',*,*,#573,.T.);
#1270 = ORIENTED_EDGE('',*,*,#1271,.T.);
#1271 = EDGE_CURVE('',#574,#1272,#1274,.T.);
#1272 = VERTEX_POINT('',#1273);
#1273 = CARTESIAN_POINT('',(-0.948480775301,-0.775,-0.487364817767));
#1274 = CIRCLE('',#1275,0.1);
#1275 = AXIS2_PLACEMENT_3D('',#1276,#1277,#1278);
#1276 = CARTESIAN_POINT('',(-0.85,-0.775,-0.47));
#1277 = DIRECTION('',(-1.33907057367E-16,1.,0.));
#1278 = DIRECTION('',(0.,0.,-1.));
#1279 = ORIENTED_EDGE('',*,*,#1280,.T.);
#1280 = EDGE_CURVE('',#1272,#1281,#1283,.T.);
#1281 = VERTEX_POINT('',#1282);
#1282 = CARTESIAN_POINT('',(-0.971430759818,-0.775,-0.326587955583));
#1283 = LINE('',#1284,#1285);
#1284 = CARTESIAN_POINT('',(-0.948480775301,-0.775,-0.487364817767));
#1285 = VECTOR('',#1286,1.);
#1286 = DIRECTION('',(-0.14131190243,-1.892266102533E-17,0.989965123745)
  );
#1287 = ORIENTED_EDGE('',*,*,#1288,.T.);
#1288 = EDGE_CURVE('',#1281,#1289,#1291,.T.);
#1289 = VERTEX_POINT('',#1290);
#1290 = CARTESIAN_POINT('',(-1.217632698071,-0.775,-0.12));
#1291 = CIRCLE('',#1292,0.25);
#1292 = AXIS2_PLACEMENT_3D('',#1293,#1294,#1295);
#1293 = CARTESIAN_POINT('',(-1.217632698071,-0.775,-0.37));
#1294 = DIRECTION('',(1.33907057367E-16,-1.,-2.813411212337E-33));
#1295 = DIRECTION('',(0.984807753012,1.31872708278E-16,0.173648177667));
#1296 = ORIENTED_EDGE('',*,*,#1297,.T.);
#1297 = EDGE_CURVE('',#1289,#1298,#1300,.T.);
#1298 = VERTEX_POINT('',#1299);
#1299 = CARTESIAN_POINT('',(-1.4,-0.775,-0.12));
#1300 = LINE('',#1301,#1302);
#1301 = CARTESIAN_POINT('',(-1.217632698071,-0.775,-0.12));
#1302 = VECTOR('',#1303,1.);
#1303 = DIRECTION('',(-1.,-1.33907057367E-16,0.));
#1304 = ORIENTED_EDGE('',*,*,#1305,.T.);
#1305 = EDGE_CURVE('',#1298,#1306,#1308,.T.);
#1306 = VERTEX_POINT('',#1307);
#1307 = CARTESIAN_POINT('',(-1.4,-0.775,-0.27));
#1308 = LINE('',#1309,#1310);
#1309 = CARTESIAN_POINT('',(-1.4,-0.775,-0.12));
#1310 = VECTOR('',#1311,1.);
#1311 = DIRECTION('',(0.,0.,-1.));
#1312 = ORIENTED_EDGE('',*,*,#1313,.T.);
#1313 = EDGE_CURVE('',#1306,#1314,#1316,.T.);
#1314 = VERTEX_POINT('',#1315);
#1315 = CARTESIAN_POINT('',(-1.217632698071,-0.775,-0.27));
#1316 = LINE('',#1317,#1318);
#1317 = CARTESIAN_POINT('',(-1.4,-0.775,-0.27));
#1318 = VECTOR('',#1319,1.);
#1319 = DIRECTION('',(1.,1.33907057367E-16,0.));
#1320 = ORIENTED_EDGE('',*,*,#1321,.T.);
#1321 = EDGE_CURVE('',#1314,#1322,#1324,.T.);
#1322 = VERTEX_POINT('',#1323);
#1323 = CARTESIAN_POINT('',(-1.11915192277,-0.775,-0.352635182233));
#1324 = CIRCLE('',#1325,0.1);
#1325 = AXIS2_PLACEMENT_3D('',#1326,#1327,#1328);
#1326 = CARTESIAN_POINT('',(-1.217632698071,-0.775,-0.37));
#1327 = DIRECTION('',(-1.33907057367E-16,1.,-5.844848421296E-47));
#1328 = DIRECTION('',(-2.22044604925E-15,-2.973333964971E-31,1.));
#1329 = ORIENTED_EDGE('',*,*,#1330,.T.);
#1330 = EDGE_CURVE('',#1322,#1331,#1333,.T.);
#1331 = VERTEX_POINT('',#1332);
#1332 = CARTESIAN_POINT('',(-1.096201938253,-0.775,-0.513412044417));
#1333 = LINE('',#1334,#1335);
#1334 = CARTESIAN_POINT('',(-1.11915192277,-0.775,-0.352635182233));
#1335 = VECTOR('',#1336,1.);
#1336 = DIRECTION('',(0.14131190243,1.892266102533E-17,-0.989965123745)
  );
#1337 = ORIENTED_EDGE('',*,*,#1338,.T.);
#1338 = EDGE_CURVE('',#1331,#763,#1339,.T.);
#1339 = CIRCLE('',#1340,0.25);
#1340 = AXIS2_PLACEMENT_3D('',#1341,#1342,#1343);
#1341 = CARTESIAN_POINT('',(-0.85,-0.775,-0.47));
#1342 = DIRECTION('',(1.33907057367E-16,-1.,-2.813411212337E-33));
#1343 = DIRECTION('',(-0.984807753012,-1.31872708278E-16,-0.173648177667
    ));
#1344 = ORIENTED_EDGE('',*,*,#762,.T.);
#1345 = PLANE('',#1346);
#1346 = AXIS2_PLACEMENT_3D('',#1347,#1348,#1349);
#1347 = CARTESIAN_POINT('',(-1.064349127789,-0.775,-0.402825311951));
#1348 = DIRECTION('',(1.33907057367E-16,-1.,0.));
#1349 = DIRECTION('',(0.,0.,-1.));
#1350 = ADVANCED_FACE('',(#1351),#1370,.F.);
#1351 = FACE_BOUND('',#1352,.F.);
#1352 = EDGE_LOOP('',(#1353,#1354,#1363,#1369));
#1353 = ORIENTED_EDGE('',*,*,#590,.T.);
#1354 = ORIENTED_EDGE('',*,*,#1355,.T.);
#1355 = EDGE_CURVE('',#583,#1356,#1358,.T.);
#1356 = VERTEX_POINT('',#1357);
#1357 = CARTESIAN_POINT('',(-0.948480775301,-1.125,-0.487364817767));
#1358 = CIRCLE('',#1359,0.1);
#1359 = AXIS2_PLACEMENT_3D('',#1360,#1361,#1362);
#1360 = CARTESIAN_POINT('',(-0.85,-1.125,-0.47));
#1361 = DIRECTION('',(-1.33907057367E-16,1.,0.));
#1362 = DIRECTION('',(0.,0.,-1.));
#1363 = ORIENTED_EDGE('',*,*,#1364,.F.);
#1364 = EDGE_CURVE('',#1272,#1356,#1365,.T.);
#1365 = LINE('',#1366,#1367);
#1366 = CARTESIAN_POINT('',(-0.948480775301,-0.775,-0.487364817767));
#1367 = VECTOR('',#1368,1.);
#1368 = DIRECTION('',(1.33907057367E-16,-1.,0.));
#1369 = ORIENTED_EDGE('',*,*,#1271,.F.);
#1370 = CYLINDRICAL_SURFACE('',#1371,0.1);
#1371 = AXIS2_PLACEMENT_3D('',#1372,#1373,#1374);
#1372 = CARTESIAN_POINT('',(-0.85,-0.775,-0.47));
#1373 = DIRECTION('',(-1.33907057367E-16,1.,-0.));
#1374 = DIRECTION('',(0.,0.,-1.));
#1375 = ADVANCED_FACE('',(#1376),#1447,.T.);
#1376 = FACE_BOUND('',#1377,.T.);
#1377 = EDGE_LOOP('',(#1378,#1379,#1380,#1381,#1389,#1398,#1406,#1414,
    #1422,#1431,#1439,#1446));
#1378 = ORIENTED_EDGE('',*,*,#604,.F.);
#1379 = ORIENTED_EDGE('',*,*,#582,.T.);
#1380 = ORIENTED_EDGE('',*,*,#1355,.T.);
#1381 = ORIENTED_EDGE('',*,*,#1382,.T.);
#1382 = EDGE_CURVE('',#1356,#1383,#1385,.T.);
#1383 = VERTEX_POINT('',#1384);
#1384 = CARTESIAN_POINT('',(-0.971430759818,-1.125,-0.326587955583));
#1385 = LINE('',#1386,#1387);
#1386 = CARTESIAN_POINT('',(-0.948480775301,-1.125,-0.487364817767));
#1387 = VECTOR('',#1388,1.);
#1388 = DIRECTION('',(-0.14131190243,-1.892266102533E-17,0.989965123745)
  );
#1389 = ORIENTED_EDGE('',*,*,#1390,.T.);
#1390 = EDGE_CURVE('',#1383,#1391,#1393,.T.);
#1391 = VERTEX_POINT('',#1392);
#1392 = CARTESIAN_POINT('',(-1.217632698071,-1.125,-0.12));
#1393 = CIRCLE('',#1394,0.25);
#1394 = AXIS2_PLACEMENT_3D('',#1395,#1396,#1397);
#1395 = CARTESIAN_POINT('',(-1.217632698071,-1.125,-0.37));
#1396 = DIRECTION('',(1.33907057367E-16,-1.,-2.813411212337E-33));
#1397 = DIRECTION('',(0.984807753012,1.31872708278E-16,0.173648177667));
#1398 = ORIENTED_EDGE('',*,*,#1399,.T.);
#1399 = EDGE_CURVE('',#1391,#1400,#1402,.T.);
#1400 = VERTEX_POINT('',#1401);
#1401 = CARTESIAN_POINT('',(-1.4,-1.125,-0.12));
#1402 = LINE('',#1403,#1404);
#1403 = CARTESIAN_POINT('',(-1.217632698071,-1.125,-0.12));
#1404 = VECTOR('',#1405,1.);
#1405 = DIRECTION('',(-1.,-1.33907057367E-16,0.));
#1406 = ORIENTED_EDGE('',*,*,#1407,.T.);
#1407 = EDGE_CURVE('',#1400,#1408,#1410,.T.);
#1408 = VERTEX_POINT('',#1409);
#1409 = CARTESIAN_POINT('',(-1.4,-1.125,-0.27));
#1410 = LINE('',#1411,#1412);
#1411 = CARTESIAN_POINT('',(-1.4,-1.125,-0.12));
#1412 = VECTOR('',#1413,1.);
#1413 = DIRECTION('',(0.,0.,-1.));
#1414 = ORIENTED_EDGE('',*,*,#1415,.T.);
#1415 = EDGE_CURVE('',#1408,#1416,#1418,.T.);
#1416 = VERTEX_POINT('',#1417);
#1417 = CARTESIAN_POINT('',(-1.217632698071,-1.125,-0.27));
#1418 = LINE('',#1419,#1420);
#1419 = CARTESIAN_POINT('',(-1.4,-1.125,-0.27));
#1420 = VECTOR('',#1421,1.);
#1421 = DIRECTION('',(1.,1.33907057367E-16,0.));
#1422 = ORIENTED_EDGE('',*,*,#1423,.T.);
#1423 = EDGE_CURVE('',#1416,#1424,#1426,.T.);
#1424 = VERTEX_POINT('',#1425);
#1425 = CARTESIAN_POINT('',(-1.11915192277,-1.125,-0.352635182233));
#1426 = CIRCLE('',#1427,0.1);
#1427 = AXIS2_PLACEMENT_3D('',#1428,#1429,#1430);
#1428 = CARTESIAN_POINT('',(-1.217632698071,-1.125,-0.37));
#1429 = DIRECTION('',(-1.33907057367E-16,1.,-5.844848421296E-47));
#1430 = DIRECTION('',(-2.22044604925E-15,-2.973333964971E-31,1.));
#1431 = ORIENTED_EDGE('',*,*,#1432,.T.);
#1432 = EDGE_CURVE('',#1424,#1433,#1435,.T.);
#1433 = VERTEX_POINT('',#1434);
#1434 = CARTESIAN_POINT('',(-1.096201938253,-1.125,-0.513412044417));
#1435 = LINE('',#1436,#1437);
#1436 = CARTESIAN_POINT('',(-1.11915192277,-1.125,-0.352635182233));
#1437 = VECTOR('',#1438,1.);
#1438 = DIRECTION('',(0.14131190243,1.892266102533E-17,-0.989965123745)
  );
#1439 = ORIENTED_EDGE('',*,*,#1440,.T.);
#1440 = EDGE_CURVE('',#1433,#771,#1441,.T.);
#1441 = CIRCLE('',#1442,0.25);
#1442 = AXIS2_PLACEMENT_3D('',#1443,#1444,#1445);
#1443 = CARTESIAN_POINT('',(-0.85,-1.125,-0.47));
#1444 = DIRECTION('',(1.33907057367E-16,-1.,-2.813411212337E-33));
#1445 = DIRECTION('',(-0.984807753012,-1.31872708278E-16,-0.173648177667
    ));
#1446 = ORIENTED_EDGE('',*,*,#778,.T.);
#1447 = PLANE('',#1448);
#1448 = AXIS2_PLACEMENT_3D('',#1449,#1450,#1451);
#1449 = CARTESIAN_POINT('',(-1.064349127789,-1.125,-0.402825311951));
#1450 = DIRECTION('',(1.33907057367E-16,-1.,0.));
#1451 = DIRECTION('',(0.,0.,-1.));
#1452 = ADVANCED_FACE('',(#1453),#1532,.F.);
#1453 = FACE_BOUND('',#1454,.F.);
#1454 = EDGE_LOOP('',(#1455,#1456,#1457,#1466,#1474,#1483,#1491,#1499,
    #1507,#1516,#1524,#1531));
#1455 = ORIENTED_EDGE('',*,*,#623,.F.);
#1456 = ORIENTED_EDGE('',*,*,#638,.T.);
#1457 = ORIENTED_EDGE('',*,*,#1458,.T.);
#1458 = EDGE_CURVE('',#639,#1459,#1461,.T.);
#1459 = VERTEX_POINT('',#1460);
#1460 = CARTESIAN_POINT('',(0.948480775301,-0.175,-0.487364817767));
#1461 = CIRCLE('',#1462,0.1);
#1462 = AXIS2_PLACEMENT_3D('',#1463,#1464,#1465);
#1463 = CARTESIAN_POINT('',(0.85,-0.175,-0.47));
#1464 = DIRECTION('',(1.144237745224E-17,-1.,0.));
#1465 = DIRECTION('',(0.,0.,-1.));
#1466 = ORIENTED_EDGE('',*,*,#1467,.T.);
#1467 = EDGE_CURVE('',#1459,#1468,#1470,.T.);
#1468 = VERTEX_POINT('',#1469);
#1469 = CARTESIAN_POINT('',(0.971430759818,-0.175,-0.326587955583));
#1470 = LINE('',#1471,#1472);
#1471 = CARTESIAN_POINT('',(0.948480775301,-0.175,-0.487364817767));
#1472 = VECTOR('',#1473,1.);
#1473 = DIRECTION('',(0.14131190243,1.616944126072E-18,0.989965123745));
#1474 = ORIENTED_EDGE('',*,*,#1475,.T.);
#1475 = EDGE_CURVE('',#1468,#1476,#1478,.T.);
#1476 = VERTEX_POINT('',#1477);
#1477 = CARTESIAN_POINT('',(1.217632698071,-0.175,-0.12));
#1478 = CIRCLE('',#1479,0.25);
#1479 = AXIS2_PLACEMENT_3D('',#1480,#1481,#1482);
#1480 = CARTESIAN_POINT('',(1.217632698071,-0.175,-0.37));
#1481 = DIRECTION('',(-1.144237745224E-17,1.,1.014592359044E-33));
#1482 = DIRECTION('',(-0.984807753012,-1.126854202785E-17,0.173648177667
    ));
#1483 = ORIENTED_EDGE('',*,*,#1484,.T.);
#1484 = EDGE_CURVE('',#1476,#1485,#1487,.T.);
#1485 = VERTEX_POINT('',#1486);
#1486 = CARTESIAN_POINT('',(1.4,-0.175,-0.12));
#1487 = LINE('',#1488,#1489);
#1488 = CARTESIAN_POINT('',(1.217632698071,-0.175,-0.12));
#1489 = VECTOR('',#1490,1.);
#1490 = DIRECTION('',(1.,1.144237745224E-17,0.));
#1491 = ORIENTED_EDGE('',*,*,#1492,.T.);
#1492 = EDGE_CURVE('',#1485,#1493,#1495,.T.);
#1493 = VERTEX_POINT('',#1494);
#1494 = CARTESIAN_POINT('',(1.4,-0.175,-0.27));
#1495 = LINE('',#1496,#1497);
#1496 = CARTESIAN_POINT('',(1.4,-0.175,-0.12));
#1497 = VECTOR('',#1498,1.);
#1498 = DIRECTION('',(0.,0.,-1.));
#1499 = ORIENTED_EDGE('',*,*,#1500,.T.);
#1500 = EDGE_CURVE('',#1493,#1501,#1503,.T.);
#1501 = VERTEX_POINT('',#1502);
#1502 = CARTESIAN_POINT('',(1.217632698071,-0.175,-0.27));
#1503 = LINE('',#1504,#1505);
#1504 = CARTESIAN_POINT('',(1.4,-0.175,-0.27));
#1505 = VECTOR('',#1506,1.);
#1506 = DIRECTION('',(-1.,-1.144237745224E-17,-0.));
#1507 = ORIENTED_EDGE('',*,*,#1508,.T.);
#1508 = EDGE_CURVE('',#1501,#1509,#1511,.T.);
#1509 = VERTEX_POINT('',#1510);
#1510 = CARTESIAN_POINT('',(1.11915192277,-0.175,-0.352635182233));
#1511 = CIRCLE('',#1512,0.1);
#1512 = AXIS2_PLACEMENT_3D('',#1513,#1514,#1515);
#1513 = CARTESIAN_POINT('',(1.217632698071,-0.175,-0.37));
#1514 = DIRECTION('',(1.144237745224E-17,-1.,9.09251278225E-48));
#1515 = DIRECTION('',(2.22044604925E-15,2.540718180784E-32,1.));
#1516 = ORIENTED_EDGE('',*,*,#1517,.T.);
#1517 = EDGE_CURVE('',#1509,#1518,#1520,.T.);
#1518 = VERTEX_POINT('',#1519);
#1519 = CARTESIAN_POINT('',(1.096201938253,-0.175,-0.513412044417));
#1520 = LINE('',#1521,#1522);
#1521 = CARTESIAN_POINT('',(1.11915192277,-0.175,-0.352635182233));
#1522 = VECTOR('',#1523,1.);
#1523 = DIRECTION('',(-0.14131190243,-1.616944126072E-18,-0.989965123745
    ));
#1524 = ORIENTED_EDGE('',*,*,#1525,.T.);
#1525 = EDGE_CURVE('',#1518,#970,#1526,.T.);
#1526 = CIRCLE('',#1527,0.25);
#1527 = AXIS2_PLACEMENT_3D('',#1528,#1529,#1530);
#1528 = CARTESIAN_POINT('',(0.85,-0.175,-0.47));
#1529 = DIRECTION('',(-1.144237745224E-17,1.,1.014592359044E-33));
#1530 = DIRECTION('',(0.984807753012,1.126854202785E-17,-0.173648177667)
  );
#1531 = ORIENTED_EDGE('',*,*,#969,.T.);
#1532 = PLANE('',#1533);
#1533 = AXIS2_PLACEMENT_3D('',#1534,#1535,#1536);
#1534 = CARTESIAN_POINT('',(1.064349127789,-0.175,-0.402825311951));
#1535 = DIRECTION('',(-1.144237745224E-17,1.,0.));
#1536 = DIRECTION('',(0.,0.,-1.));
#1537 = ADVANCED_FACE('',(#1538),#1557,.F.);
#1538 = FACE_BOUND('',#1539,.F.);
#1539 = EDGE_LOOP('',(#1540,#1541,#1550,#1556));
#1540 = ORIENTED_EDGE('',*,*,#655,.T.);
#1541 = ORIENTED_EDGE('',*,*,#1542,.T.);
#1542 = EDGE_CURVE('',#648,#1543,#1545,.T.);
#1543 = VERTEX_POINT('',#1544);
#1544 = CARTESIAN_POINT('',(0.948480775301,0.175,-0.487364817767));
#1545 = CIRCLE('',#1546,0.1);
#1546 = AXIS2_PLACEMENT_3D('',#1547,#1548,#1549);
#1547 = CARTESIAN_POINT('',(0.85,0.175,-0.47));
#1548 = DIRECTION('',(1.144237745224E-17,-1.,0.));
#1549 = DIRECTION('',(0.,0.,-1.));
#1550 = ORIENTED_EDGE('',*,*,#1551,.F.);
#1551 = EDGE_CURVE('',#1459,#1543,#1552,.T.);
#1552 = LINE('',#1553,#1554);
#1553 = CARTESIAN_POINT('',(0.948480775301,-0.175,-0.487364817767));
#1554 = VECTOR('',#1555,1.);
#1555 = DIRECTION('',(-1.144237745224E-17,1.,0.));
#1556 = ORIENTED_EDGE('',*,*,#1458,.F.);
#1557 = CYLINDRICAL_SURFACE('',#1558,0.1);
#1558 = AXIS2_PLACEMENT_3D('',#1559,#1560,#1561);
#1559 = CARTESIAN_POINT('',(0.85,-0.175,-0.47));
#1560 = DIRECTION('',(1.144237745224E-17,-1.,0.));
#1561 = DIRECTION('',(0.,0.,-1.));
#1562 = ADVANCED_FACE('',(#1563),#1634,.T.);
#1563 = FACE_BOUND('',#1564,.T.);
#1564 = EDGE_LOOP('',(#1565,#1566,#1567,#1568,#1576,#1585,#1593,#1601,
    #1609,#1618,#1626,#1633));
#1565 = ORIENTED_EDGE('',*,*,#669,.F.);
#1566 = ORIENTED_EDGE('',*,*,#647,.T.);
#1567 = ORIENTED_EDGE('',*,*,#1542,.T.);
#1568 = ORIENTED_EDGE('',*,*,#1569,.T.);
#1569 = EDGE_CURVE('',#1543,#1570,#1572,.T.);
#1570 = VERTEX_POINT('',#1571);
#1571 = CARTESIAN_POINT('',(0.971430759818,0.175,-0.326587955583));
#1572 = LINE('',#1573,#1574);
#1573 = CARTESIAN_POINT('',(0.948480775301,0.175,-0.487364817767));
#1574 = VECTOR('',#1575,1.);
#1575 = DIRECTION('',(0.14131190243,1.616944126072E-18,0.989965123745));
#1576 = ORIENTED_EDGE('',*,*,#1577,.T.);
#1577 = EDGE_CURVE('',#1570,#1578,#1580,.T.);
#1578 = VERTEX_POINT('',#1579);
#1579 = CARTESIAN_POINT('',(1.217632698071,0.175,-0.12));
#1580 = CIRCLE('',#1581,0.25);
#1581 = AXIS2_PLACEMENT_3D('',#1582,#1583,#1584);
#1582 = CARTESIAN_POINT('',(1.217632698071,0.175,-0.37));
#1583 = DIRECTION('',(-1.144237745224E-17,1.,1.014592359044E-33));
#1584 = DIRECTION('',(-0.984807753012,-1.126854202785E-17,0.173648177667
    ));
#1585 = ORIENTED_EDGE('',*,*,#1586,.T.);
#1586 = EDGE_CURVE('',#1578,#1587,#1589,.T.);
#1587 = VERTEX_POINT('',#1588);
#1588 = CARTESIAN_POINT('',(1.4,0.175,-0.12));
#1589 = LINE('',#1590,#1591);
#1590 = CARTESIAN_POINT('',(1.217632698071,0.175,-0.12));
#1591 = VECTOR('',#1592,1.);
#1592 = DIRECTION('',(1.,1.144237745224E-17,0.));
#1593 = ORIENTED_EDGE('',*,*,#1594,.T.);
#1594 = EDGE_CURVE('',#1587,#1595,#1597,.T.);
#1595 = VERTEX_POINT('',#1596);
#1596 = CARTESIAN_POINT('',(1.4,0.175,-0.27));
#1597 = LINE('',#1598,#1599);
#1598 = CARTESIAN_POINT('',(1.4,0.175,-0.12));
#1599 = VECTOR('',#1600,1.);
#1600 = DIRECTION('',(0.,0.,-1.));
#1601 = ORIENTED_EDGE('',*,*,#1602,.T.);
#1602 = EDGE_CURVE('',#1595,#1603,#1605,.T.);
#1603 = VERTEX_POINT('',#1604);
#1604 = CARTESIAN_POINT('',(1.217632698071,0.175,-0.27));
#1605 = LINE('',#1606,#1607);
#1606 = CARTESIAN_POINT('',(1.4,0.175,-0.27));
#1607 = VECTOR('',#1608,1.);
#1608 = DIRECTION('',(-1.,-1.144237745224E-17,-0.));
#1609 = ORIENTED_EDGE('',*,*,#1610,.T.);
#1610 = EDGE_CURVE('',#1603,#1611,#1613,.T.);
#1611 = VERTEX_POINT('',#1612);
#1612 = CARTESIAN_POINT('',(1.11915192277,0.175,-0.352635182233));
#1613 = CIRCLE('',#1614,0.1);
#1614 = AXIS2_PLACEMENT_3D('',#1615,#1616,#1617);
#1615 = CARTESIAN_POINT('',(1.217632698071,0.175,-0.37));
#1616 = DIRECTION('',(1.144237745224E-17,-1.,9.09251278225E-48));
#1617 = DIRECTION('',(2.22044604925E-15,2.540718180784E-32,1.));
#1618 = ORIENTED_EDGE('',*,*,#1619,.T.);
#1619 = EDGE_CURVE('',#1611,#1620,#1622,.T.);
#1620 = VERTEX_POINT('',#1621);
#1621 = CARTESIAN_POINT('',(1.096201938253,0.175,-0.513412044417));
#1622 = LINE('',#1623,#1624);
#1623 = CARTESIAN_POINT('',(1.11915192277,0.175,-0.352635182233));
#1624 = VECTOR('',#1625,1.);
#1625 = DIRECTION('',(-0.14131190243,-1.616944126072E-18,-0.989965123745
    ));
#1626 = ORIENTED_EDGE('',*,*,#1627,.T.);
#1627 = EDGE_CURVE('',#1620,#978,#1628,.T.);
#1628 = CIRCLE('',#1629,0.25);
#1629 = AXIS2_PLACEMENT_3D('',#1630,#1631,#1632);
#1630 = CARTESIAN_POINT('',(0.85,0.175,-0.47));
#1631 = DIRECTION('',(-1.144237745224E-17,1.,1.014592359044E-33));
#1632 = DIRECTION('',(0.984807753012,1.126854202785E-17,-0.173648177667)
  );
#1633 = ORIENTED_EDGE('',*,*,#985,.T.);
#1634 = PLANE('',#1635);
#1635 = AXIS2_PLACEMENT_3D('',#1636,#1637,#1638);
#1636 = CARTESIAN_POINT('',(1.064349127789,0.175,-0.402825311951));
#1637 = DIRECTION('',(-1.144237745224E-17,1.,0.));
#1638 = DIRECTION('',(0.,0.,-1.));
#1639 = ADVANCED_FACE('',(#1640),#1651,.T.);
#1640 = FACE_BOUND('',#1641,.T.);
#1641 = EDGE_LOOP('',(#1642,#1643,#1644,#1645));
#1642 = ORIENTED_EDGE('',*,*,#1338,.T.);
#1643 = ORIENTED_EDGE('',*,*,#770,.T.);
#1644 = ORIENTED_EDGE('',*,*,#1440,.F.);
#1645 = ORIENTED_EDGE('',*,*,#1646,.F.);
#1646 = EDGE_CURVE('',#1331,#1433,#1647,.T.);
#1647 = LINE('',#1648,#1649);
#1648 = CARTESIAN_POINT('',(-1.096201938253,-0.775,-0.513412044417));
#1649 = VECTOR('',#1650,1.);
#1650 = DIRECTION('',(1.33907057367E-16,-1.,0.));
#1651 = CYLINDRICAL_SURFACE('',#1652,0.25);
#1652 = AXIS2_PLACEMENT_3D('',#1653,#1654,#1655);
#1653 = CARTESIAN_POINT('',(-0.85,-0.775,-0.47));
#1654 = DIRECTION('',(-1.33907057367E-16,1.,-0.));
#1655 = DIRECTION('',(-0.984807753012,-1.31872708278E-16,-0.173648177667
    ));
#1656 = ADVANCED_FACE('',(#1657),#1670,.F.);
#1657 = FACE_BOUND('',#1658,.F.);
#1658 = EDGE_LOOP('',(#1659,#1660,#1666,#1667,#1668,#1669));
#1659 = ORIENTED_EDGE('',*,*,#1129,.F.);
#1660 = ORIENTED_EDGE('',*,*,#1661,.T.);
#1661 = EDGE_CURVE('',#1121,#1230,#1662,.T.);
#1662 = LINE('',#1663,#1664);
#1663 = CARTESIAN_POINT('',(-0.85,1.125,-0.72));
#1664 = VECTOR('',#1665,1.);
#1665 = DIRECTION('',(1.33907057367E-16,-1.,0.));
#1666 = ORIENTED_EDGE('',*,*,#1238,.T.);
#1667 = ORIENTED_EDGE('',*,*,#1255,.T.);
#1668 = ORIENTED_EDGE('',*,*,#817,.F.);
#1669 = ORIENTED_EDGE('',*,*,#1013,.F.);
#1670 = PLANE('',#1671);
#1671 = AXIS2_PLACEMENT_3D('',#1672,#1673,#1674);
#1672 = CARTESIAN_POINT('',(-0.85,1.125,-0.72));
#1673 = DIRECTION('',(0.,0.,1.));
#1674 = DIRECTION('',(1.,1.33907057367E-16,0.));
#1675 = ADVANCED_FACE('',(#1676,#1705),#1716,.T.);
#1676 = FACE_BOUND('',#1677,.T.);
#1677 = EDGE_LOOP('',(#1678,#1679,#1680,#1681,#1689,#1697,#1703,#1704));
#1678 = ORIENTED_EDGE('',*,*,#892,.F.);
#1679 = ORIENTED_EDGE('',*,*,#869,.F.);
#1680 = ORIENTED_EDGE('',*,*,#840,.F.);
#1681 = ORIENTED_EDGE('',*,*,#1682,.F.);
#1682 = EDGE_CURVE('',#1683,#841,#1685,.T.);
#1683 = VERTEX_POINT('',#1684);
#1684 = CARTESIAN_POINT('',(-0.667905353927,1.375810707854,-1.07));
#1685 = LINE('',#1686,#1687);
#1686 = CARTESIAN_POINT('',(-0.667905353927,1.375810707854,-1.07));
#1687 = VECTOR('',#1688,1.);
#1688 = DIRECTION('',(-0.707106781187,-0.707106781187,0.));
#1689 = ORIENTED_EDGE('',*,*,#1690,.F.);
#1690 = EDGE_CURVE('',#1691,#1683,#1693,.T.);
#1691 = VERTEX_POINT('',#1692);
#1692 = CARTESIAN_POINT('',(0.667905353927,1.375810707854,-1.07));
#1693 = LINE('',#1694,#1695);
#1694 = CARTESIAN_POINT('',(0.667905353927,1.375810707854,-1.07));
#1695 = VECTOR('',#1696,1.);
#1696 = DIRECTION('',(-1.,-1.144237745224E-17,-0.));
#1697 = ORIENTED_EDGE('',*,*,#1698,.F.);
#1698 = EDGE_CURVE('',#948,#1691,#1699,.T.);
#1699 = LINE('',#1700,#1701);
#1700 = CARTESIAN_POINT('',(0.725810707854,1.317905353927,-1.07));
#1701 = VECTOR('',#1702,1.);
#1702 = DIRECTION('',(-0.707106781187,0.707106781187,-0.));
#1703 = ORIENTED_EDGE('',*,*,#954,.F.);
#1704 = ORIENTED_EDGE('',*,*,#915,.F.);
#1705 = FACE_BOUND('',#1706,.T.);
#1706 = EDGE_LOOP('',(#1707));
#1707 = ORIENTED_EDGE('',*,*,#1708,.T.);
#1708 = EDGE_CURVE('',#1709,#1709,#1711,.T.);
#1709 = VERTEX_POINT('',#1710);
#1710 = CARTESIAN_POINT('',(-0.525810707854,-1.125810707854,-1.07));
#1711 = CIRCLE('',#1712,5.E-02);
#1712 = AXIS2_PLACEMENT_3D('',#1713,#1714,#1715);
#1713 = CARTESIAN_POINT('',(-0.525810707854,-1.175810707854,-1.07));
#1714 = DIRECTION('',(0.,-0.,1.));
#1715 = DIRECTION('',(-1.144237745224E-17,1.,0.));
#1716 = PLANE('',#1717);
#1717 = AXIS2_PLACEMENT_3D('',#1718,#1719,#1720);
#1718 = CARTESIAN_POINT('',(-0.667905353927,-1.375810707854,-1.07));
#1719 = DIRECTION('',(0.,0.,-1.));
#1720 = DIRECTION('',(0.436721133329,0.89959693847,0.));
#1721 = ADVANCED_FACE('',(#1722),#1732,.F.);
#1722 = FACE_BOUND('',#1723,.F.);
#1723 = EDGE_LOOP('',(#1724,#1725,#1726,#1727));
#1724 = ORIENTED_EDGE('',*,*,#1020,.T.);
#1725 = ORIENTED_EDGE('',*,*,#848,.T.);
#1726 = ORIENTED_EDGE('',*,*,#1682,.F.);
#1727 = ORIENTED_EDGE('',*,*,#1728,.F.);
#1728 = EDGE_CURVE('',#1021,#1683,#1729,.T.);
#1729 = B_SPLINE_CURVE_WITH_KNOTS('',1,(#1730,#1731),.UNSPECIFIED.,.F.,
  .F.,(2,2),(0.,1.),.PIECEWISE_BEZIER_KNOTS.);
#1730 = CARTESIAN_POINT('',(-0.6925,1.425,-0.72));
#1731 = CARTESIAN_POINT('',(-0.667905353927,1.375810707854,-1.07));
#1732 = B_SPLINE_SURFACE_WITH_KNOTS('',1,1,(
    (#1733,#1734)
    ,(#1735,#1736
    )),.UNSPECIFIED.,.F.,.F.,.F.,(2,2),(2,2),(0.,0.116672618896),(0.,1.)
  ,.PIECEWISE_BEZIER_KNOTS.);
#1733 = CARTESIAN_POINT('',(-0.6925,1.425,-0.72));
#1734 = CARTESIAN_POINT('',(-0.667905353927,1.375810707854,-1.07));
#1735 = CARTESIAN_POINT('',(-0.775,1.3425,-0.72));
#1736 = CARTESIAN_POINT('',(-0.725810707854,1.317905353927,-1.07));
#1737 = ADVANCED_FACE('',(#1738),#1748,.F.);
#1738 = FACE_BOUND('',#1739,.F.);
#1739 = EDGE_LOOP('',(#1740,#1741,#1746,#1747));
#1740 = ORIENTED_EDGE('',*,*,#1036,.T.);
#1741 = ORIENTED_EDGE('',*,*,#1742,.T.);
#1742 = EDGE_CURVE('',#1029,#1691,#1743,.T.);
#1743 = B_SPLINE_CURVE_WITH_KNOTS('',1,(#1744,#1745),.UNSPECIFIED.,.F.,
  .F.,(2,2),(0.,1.),.PIECEWISE_BEZIER_KNOTS.);
#1744 = CARTESIAN_POINT('',(0.6925,1.425,-0.72));
#1745 = CARTESIAN_POINT('',(0.667905353927,1.375810707854,-1.07));
#1746 = ORIENTED_EDGE('',*,*,#1698,.F.);
#1747 = ORIENTED_EDGE('',*,*,#947,.F.);
#1748 = B_SPLINE_SURFACE_WITH_KNOTS('',1,1,(
    (#1749,#1750)
    ,(#1751,#1752
    )),.UNSPECIFIED.,.F.,.F.,.F.,(2,2),(2,2),(0.,0.116672618896),(0.,1.)
  ,.PIECEWISE_BEZIER_KNOTS.);
#1749 = CARTESIAN_POINT('',(0.775,1.3425,-0.72));
#1750 = CARTESIAN_POINT('',(0.725810707854,1.317905353927,-1.07));
#1751 = CARTESIAN_POINT('',(0.6925,1.425,-0.72));
#1752 = CARTESIAN_POINT('',(0.667905353927,1.375810707854,-1.07));
#1753 = ADVANCED_FACE('',(#1754),#1765,.T.);
#1754 = FACE_BOUND('',#1755,.T.);
#1755 = EDGE_LOOP('',(#1756,#1757,#1758,#1759));
#1756 = ORIENTED_EDGE('',*,*,#1525,.T.);
#1757 = ORIENTED_EDGE('',*,*,#977,.T.);
#1758 = ORIENTED_EDGE('',*,*,#1627,.F.);
#1759 = ORIENTED_EDGE('',*,*,#1760,.F.);
#1760 = EDGE_CURVE('',#1518,#1620,#1761,.T.);
#1761 = LINE('',#1762,#1763);
#1762 = CARTESIAN_POINT('',(1.096201938253,-0.175,-0.513412044417));
#1763 = VECTOR('',#1764,1.);
#1764 = DIRECTION('',(-1.144237745224E-17,1.,0.));
#1765 = CYLINDRICAL_SURFACE('',#1766,0.25);
#1766 = AXIS2_PLACEMENT_3D('',#1767,#1768,#1769);
#1767 = CARTESIAN_POINT('',(0.85,-0.175,-0.47));
#1768 = DIRECTION('',(1.144237745224E-17,-1.,0.));
#1769 = DIRECTION('',(0.984807753012,1.126854202785E-17,-0.173648177667)
  );
#1770 = ADVANCED_FACE('',(#1771),#1777,.F.);
#1771 = FACE_BOUND('',#1772,.F.);
#1772 = EDGE_LOOP('',(#1773,#1774,#1775,#1776));
#1773 = ORIENTED_EDGE('',*,*,#1028,.T.);
#1774 = ORIENTED_EDGE('',*,*,#1728,.T.);
#1775 = ORIENTED_EDGE('',*,*,#1690,.F.);
#1776 = ORIENTED_EDGE('',*,*,#1742,.F.);
#1777 = B_SPLINE_SURFACE_WITH_KNOTS('',1,1,(
    (#1778,#1779)
    ,(#1780,#1781
    )),.UNSPECIFIED.,.F.,.F.,.F.,(2,2),(2,2),(0.,1.385),(0.,1.),
  .PIECEWISE_BEZIER_KNOTS.);
#1778 = CARTESIAN_POINT('',(0.6925,1.425,-0.72));
#1779 = CARTESIAN_POINT('',(0.667905353927,1.375810707854,-1.07));
#1780 = CARTESIAN_POINT('',(-0.6925,1.425,-0.72));
#1781 = CARTESIAN_POINT('',(-0.667905353927,1.375810707854,-1.07));
#1782 = ADVANCED_FACE('',(#1783),#1794,.T.);
#1783 = FACE_BOUND('',#1784,.T.);
#1784 = EDGE_LOOP('',(#1785,#1786,#1787,#1788));
#1785 = ORIENTED_EDGE('',*,*,#1120,.T.);
#1786 = ORIENTED_EDGE('',*,*,#1661,.T.);
#1787 = ORIENTED_EDGE('',*,*,#1229,.F.);
#1788 = ORIENTED_EDGE('',*,*,#1789,.F.);
#1789 = EDGE_CURVE('',#1113,#1222,#1790,.T.);
#1790 = LINE('',#1791,#1792);
#1791 = CARTESIAN_POINT('',(-1.096201938253,1.125,-0.513412044417));
#1792 = VECTOR('',#1793,1.);
#1793 = DIRECTION('',(1.33907057367E-16,-1.,0.));
#1794 = CYLINDRICAL_SURFACE('',#1795,0.25);
#1795 = AXIS2_PLACEMENT_3D('',#1796,#1797,#1798);
#1796 = CARTESIAN_POINT('',(-0.85,1.125,-0.47));
#1797 = DIRECTION('',(-1.33907057367E-16,1.,-0.));
#1798 = DIRECTION('',(-0.984807753012,-1.31872708278E-16,-0.173648177667
    ));
#1799 = ADVANCED_FACE('',(#1800),#1811,.F.);
#1800 = FACE_BOUND('',#1801,.F.);
#1801 = EDGE_LOOP('',(#1802,#1808,#1809,#1810));
#1802 = ORIENTED_EDGE('',*,*,#1803,.T.);
#1803 = EDGE_CURVE('',#1104,#1213,#1804,.T.);
#1804 = LINE('',#1805,#1806);
#1805 = CARTESIAN_POINT('',(-1.11915192277,1.125,-0.352635182233));
#1806 = VECTOR('',#1807,1.);
#1807 = DIRECTION('',(1.33907057367E-16,-1.,0.));
#1808 = ORIENTED_EDGE('',*,*,#1221,.T.);
#1809 = ORIENTED_EDGE('',*,*,#1789,.F.);
#1810 = ORIENTED_EDGE('',*,*,#1112,.F.);
#1811 = PLANE('',#1812);
#1812 = AXIS2_PLACEMENT_3D('',#1813,#1814,#1815);
#1813 = CARTESIAN_POINT('',(-1.11915192277,1.125,-0.352635182233));
#1814 = DIRECTION('',(0.989965123745,1.325633166166E-16,0.14131190243));
#1815 = DIRECTION('',(0.14131190243,1.892266102533E-17,-0.989965123745)
  );
#1816 = ADVANCED_FACE('',(#1817),#1828,.F.);
#1817 = FACE_BOUND('',#1818,.F.);
#1818 = EDGE_LOOP('',(#1819,#1825,#1826,#1827));
#1819 = ORIENTED_EDGE('',*,*,#1820,.T.);
#1820 = EDGE_CURVE('',#1096,#1205,#1821,.T.);
#1821 = LINE('',#1822,#1823);
#1822 = CARTESIAN_POINT('',(-1.217632698071,1.125,-0.27));
#1823 = VECTOR('',#1824,1.);
#1824 = DIRECTION('',(1.33907057367E-16,-1.,0.));
#1825 = ORIENTED_EDGE('',*,*,#1212,.T.);
#1826 = ORIENTED_EDGE('',*,*,#1803,.F.);
#1827 = ORIENTED_EDGE('',*,*,#1103,.F.);
#1828 = CYLINDRICAL_SURFACE('',#1829,0.1);
#1829 = AXIS2_PLACEMENT_3D('',#1830,#1831,#1832);
#1830 = CARTESIAN_POINT('',(-1.217632698071,1.125,-0.37));
#1831 = DIRECTION('',(-1.33907057367E-16,1.,-0.));
#1832 = DIRECTION('',(-2.22044604925E-15,-2.973333964971E-31,1.));
#1833 = ADVANCED_FACE('',(#1834),#1845,.F.);
#1834 = FACE_BOUND('',#1835,.F.);
#1835 = EDGE_LOOP('',(#1836,#1842,#1843,#1844));
#1836 = ORIENTED_EDGE('',*,*,#1837,.T.);
#1837 = EDGE_CURVE('',#1088,#1197,#1838,.T.);
#1838 = LINE('',#1839,#1840);
#1839 = CARTESIAN_POINT('',(-1.4,1.125,-0.27));
#1840 = VECTOR('',#1841,1.);
#1841 = DIRECTION('',(1.33907057367E-16,-1.,0.));
#1842 = ORIENTED_EDGE('',*,*,#1204,.T.);
#1843 = ORIENTED_EDGE('',*,*,#1820,.F.);
#1844 = ORIENTED_EDGE('',*,*,#1095,.F.);
#1845 = PLANE('',#1846);
#1846 = AXIS2_PLACEMENT_3D('',#1847,#1848,#1849);
#1847 = CARTESIAN_POINT('',(-1.4,1.125,-0.27));
#1848 = DIRECTION('',(0.,0.,1.));
#1849 = DIRECTION('',(1.,1.33907057367E-16,0.));
#1850 = ADVANCED_FACE('',(#1851),#1862,.F.);
#1851 = FACE_BOUND('',#1852,.F.);
#1852 = EDGE_LOOP('',(#1853,#1859,#1860,#1861));
#1853 = ORIENTED_EDGE('',*,*,#1854,.T.);
#1854 = EDGE_CURVE('',#1080,#1189,#1855,.T.);
#1855 = LINE('',#1856,#1857);
#1856 = CARTESIAN_POINT('',(-1.4,1.125,-0.12));
#1857 = VECTOR('',#1858,1.);
#1858 = DIRECTION('',(1.33907057367E-16,-1.,0.));
#1859 = ORIENTED_EDGE('',*,*,#1196,.T.);
#1860 = ORIENTED_EDGE('',*,*,#1837,.F.);
#1861 = ORIENTED_EDGE('',*,*,#1087,.F.);
#1862 = PLANE('',#1863);
#1863 = AXIS2_PLACEMENT_3D('',#1864,#1865,#1866);
#1864 = CARTESIAN_POINT('',(-1.4,1.125,-0.12));
#1865 = DIRECTION('',(1.,1.33907057367E-16,0.));
#1866 = DIRECTION('',(0.,0.,-1.));
#1867 = ADVANCED_FACE('',(#1868),#1879,.F.);
#1868 = FACE_BOUND('',#1869,.F.);
#1869 = EDGE_LOOP('',(#1870,#1876,#1877,#1878));
#1870 = ORIENTED_EDGE('',*,*,#1871,.T.);
#1871 = EDGE_CURVE('',#1071,#1180,#1872,.T.);
#1872 = LINE('',#1873,#1874);
#1873 = CARTESIAN_POINT('',(-1.217632698071,1.125,-0.12));
#1874 = VECTOR('',#1875,1.);
#1875 = DIRECTION('',(1.33907057367E-16,-1.,0.));
#1876 = ORIENTED_EDGE('',*,*,#1188,.T.);
#1877 = ORIENTED_EDGE('',*,*,#1854,.F.);
#1878 = ORIENTED_EDGE('',*,*,#1079,.F.);
#1879 = PLANE('',#1880);
#1880 = AXIS2_PLACEMENT_3D('',#1881,#1882,#1883);
#1881 = CARTESIAN_POINT('',(-1.217632698071,1.125,-0.12));
#1882 = DIRECTION('',(0.,0.,-1.));
#1883 = DIRECTION('',(-1.,-1.33907057367E-16,0.));
#1884 = ADVANCED_FACE('',(#1885),#1896,.T.);
#1885 = FACE_BOUND('',#1886,.T.);
#1886 = EDGE_LOOP('',(#1887,#1888,#1889,#1890));
#1887 = ORIENTED_EDGE('',*,*,#1070,.T.);
#1888 = ORIENTED_EDGE('',*,*,#1871,.T.);
#1889 = ORIENTED_EDGE('',*,*,#1179,.F.);
#1890 = ORIENTED_EDGE('',*,*,#1891,.F.);
#1891 = EDGE_CURVE('',#1063,#1172,#1892,.T.);
#1892 = LINE('',#1893,#1894);
#1893 = CARTESIAN_POINT('',(-0.971430759818,1.125,-0.326587955583));
#1894 = VECTOR('',#1895,1.);
#1895 = DIRECTION('',(1.33907057367E-16,-1.,0.));
#1896 = CYLINDRICAL_SURFACE('',#1897,0.25);
#1897 = AXIS2_PLACEMENT_3D('',#1898,#1899,#1900);
#1898 = CARTESIAN_POINT('',(-1.217632698071,1.125,-0.37));
#1899 = DIRECTION('',(-1.33907057367E-16,1.,-0.));
#1900 = DIRECTION('',(0.984807753012,1.31872708278E-16,0.173648177667));
#1901 = ADVANCED_FACE('',(#1902),#1908,.F.);
#1902 = FACE_BOUND('',#1903,.F.);
#1903 = EDGE_LOOP('',(#1904,#1905,#1906,#1907));
#1904 = ORIENTED_EDGE('',*,*,#1153,.T.);
#1905 = ORIENTED_EDGE('',*,*,#1171,.T.);
#1906 = ORIENTED_EDGE('',*,*,#1891,.F.);
#1907 = ORIENTED_EDGE('',*,*,#1062,.F.);
#1908 = PLANE('',#1909);
#1909 = AXIS2_PLACEMENT_3D('',#1910,#1911,#1912);
#1910 = CARTESIAN_POINT('',(-0.948480775301,1.125,-0.487364817767));
#1911 = DIRECTION('',(-0.989965123745,-1.325633166166E-16,-0.14131190243
    ));
#1912 = DIRECTION('',(-0.14131190243,-1.892266102533E-17,0.989965123745)
  );
#1913 = ADVANCED_FACE('',(#1914),#1925,.F.);
#1914 = FACE_BOUND('',#1915,.F.);
#1915 = EDGE_LOOP('',(#1916,#1922,#1923,#1924));
#1916 = ORIENTED_EDGE('',*,*,#1917,.T.);
#1917 = EDGE_CURVE('',#1322,#1424,#1918,.T.);
#1918 = LINE('',#1919,#1920);
#1919 = CARTESIAN_POINT('',(-1.11915192277,-0.775,-0.352635182233));
#1920 = VECTOR('',#1921,1.);
#1921 = DIRECTION('',(1.33907057367E-16,-1.,0.));
#1922 = ORIENTED_EDGE('',*,*,#1432,.T.);
#1923 = ORIENTED_EDGE('',*,*,#1646,.F.);
#1924 = ORIENTED_EDGE('',*,*,#1330,.F.);
#1925 = PLANE('',#1926);
#1926 = AXIS2_PLACEMENT_3D('',#1927,#1928,#1929);
#1927 = CARTESIAN_POINT('',(-1.11915192277,-0.775,-0.352635182233));
#1928 = DIRECTION('',(0.989965123745,1.325633166166E-16,0.14131190243));
#1929 = DIRECTION('',(0.14131190243,1.892266102533E-17,-0.989965123745)
  );
#1930 = ADVANCED_FACE('',(#1931),#1942,.F.);
#1931 = FACE_BOUND('',#1932,.F.);
#1932 = EDGE_LOOP('',(#1933,#1939,#1940,#1941));
#1933 = ORIENTED_EDGE('',*,*,#1934,.T.);
#1934 = EDGE_CURVE('',#1314,#1416,#1935,.T.);
#1935 = LINE('',#1936,#1937);
#1936 = CARTESIAN_POINT('',(-1.217632698071,-0.775,-0.27));
#1937 = VECTOR('',#1938,1.);
#1938 = DIRECTION('',(1.33907057367E-16,-1.,0.));
#1939 = ORIENTED_EDGE('',*,*,#1423,.T.);
#1940 = ORIENTED_EDGE('',*,*,#1917,.F.);
#1941 = ORIENTED_EDGE('',*,*,#1321,.F.);
#1942 = CYLINDRICAL_SURFACE('',#1943,0.1);
#1943 = AXIS2_PLACEMENT_3D('',#1944,#1945,#1946);
#1944 = CARTESIAN_POINT('',(-1.217632698071,-0.775,-0.37));
#1945 = DIRECTION('',(-1.33907057367E-16,1.,-0.));
#1946 = DIRECTION('',(-2.22044604925E-15,-2.973333964971E-31,1.));
#1947 = ADVANCED_FACE('',(#1948),#1959,.F.);
#1948 = FACE_BOUND('',#1949,.F.);
#1949 = EDGE_LOOP('',(#1950,#1956,#1957,#1958));
#1950 = ORIENTED_EDGE('',*,*,#1951,.T.);
#1951 = EDGE_CURVE('',#1306,#1408,#1952,.T.);
#1952 = LINE('',#1953,#1954);
#1953 = CARTESIAN_POINT('',(-1.4,-0.775,-0.27));
#1954 = VECTOR('',#1955,1.);
#1955 = DIRECTION('',(1.33907057367E-16,-1.,0.));
#1956 = ORIENTED_EDGE('',*,*,#1415,.T.);
#1957 = ORIENTED_EDGE('',*,*,#1934,.F.);
#1958 = ORIENTED_EDGE('',*,*,#1313,.F.);
#1959 = PLANE('',#1960);
#1960 = AXIS2_PLACEMENT_3D('',#1961,#1962,#1963);
#1961 = CARTESIAN_POINT('',(-1.4,-0.775,-0.27));
#1962 = DIRECTION('',(0.,0.,1.));
#1963 = DIRECTION('',(1.,1.33907057367E-16,0.));
#1964 = ADVANCED_FACE('',(#1965),#1976,.F.);
#1965 = FACE_BOUND('',#1966,.F.);
#1966 = EDGE_LOOP('',(#1967,#1973,#1974,#1975));
#1967 = ORIENTED_EDGE('',*,*,#1968,.T.);
#1968 = EDGE_CURVE('',#1298,#1400,#1969,.T.);
#1969 = LINE('',#1970,#1971);
#1970 = CARTESIAN_POINT('',(-1.4,-0.775,-0.12));
#1971 = VECTOR('',#1972,1.);
#1972 = DIRECTION('',(1.33907057367E-16,-1.,0.));
#1973 = ORIENTED_EDGE('',*,*,#1407,.T.);
#1974 = ORIENTED_EDGE('',*,*,#1951,.F.);
#1975 = ORIENTED_EDGE('',*,*,#1305,.F.);
#1976 = PLANE('',#1977);
#1977 = AXIS2_PLACEMENT_3D('',#1978,#1979,#1980);
#1978 = CARTESIAN_POINT('',(-1.4,-0.775,-0.12));
#1979 = DIRECTION('',(1.,1.33907057367E-16,0.));
#1980 = DIRECTION('',(0.,0.,-1.));
#1981 = ADVANCED_FACE('',(#1982),#1993,.F.);
#1982 = FACE_BOUND('',#1983,.F.);
#1983 = EDGE_LOOP('',(#1984,#1990,#1991,#1992));
#1984 = ORIENTED_EDGE('',*,*,#1985,.T.);
#1985 = EDGE_CURVE('',#1289,#1391,#1986,.T.);
#1986 = LINE('',#1987,#1988);
#1987 = CARTESIAN_POINT('',(-1.217632698071,-0.775,-0.12));
#1988 = VECTOR('',#1989,1.);
#1989 = DIRECTION('',(1.33907057367E-16,-1.,0.));
#1990 = ORIENTED_EDGE('',*,*,#1399,.T.);
#1991 = ORIENTED_EDGE('',*,*,#1968,.F.);
#1992 = ORIENTED_EDGE('',*,*,#1297,.F.);
#1993 = PLANE('',#1994);
#1994 = AXIS2_PLACEMENT_3D('',#1995,#1996,#1997);
#1995 = CARTESIAN_POINT('',(-1.217632698071,-0.775,-0.12));
#1996 = DIRECTION('',(0.,0.,-1.));
#1997 = DIRECTION('',(-1.,-1.33907057367E-16,0.));
#1998 = ADVANCED_FACE('',(#1999),#2010,.T.);
#1999 = FACE_BOUND('',#2000,.T.);
#2000 = EDGE_LOOP('',(#2001,#2002,#2003,#2004));
#2001 = ORIENTED_EDGE('',*,*,#1288,.T.);
#2002 = ORIENTED_EDGE('',*,*,#1985,.T.);
#2003 = ORIENTED_EDGE('',*,*,#1390,.F.);
#2004 = ORIENTED_EDGE('',*,*,#2005,.F.);
#2005 = EDGE_CURVE('',#1281,#1383,#2006,.T.);
#2006 = LINE('',#2007,#2008);
#2007 = CARTESIAN_POINT('',(-0.971430759818,-0.775,-0.326587955583));
#2008 = VECTOR('',#2009,1.);
#2009 = DIRECTION('',(1.33907057367E-16,-1.,0.));
#2010 = CYLINDRICAL_SURFACE('',#2011,0.25);
#2011 = AXIS2_PLACEMENT_3D('',#2012,#2013,#2014);
#2012 = CARTESIAN_POINT('',(-1.217632698071,-0.775,-0.37));
#2013 = DIRECTION('',(-1.33907057367E-16,1.,-0.));
#2014 = DIRECTION('',(0.984807753012,1.31872708278E-16,0.173648177667));
#2015 = ADVANCED_FACE('',(#2016),#2022,.F.);
#2016 = FACE_BOUND('',#2017,.F.);
#2017 = EDGE_LOOP('',(#2018,#2019,#2020,#2021));
#2018 = ORIENTED_EDGE('',*,*,#1364,.T.);
#2019 = ORIENTED_EDGE('',*,*,#1382,.T.);
#2020 = ORIENTED_EDGE('',*,*,#2005,.F.);
#2021 = ORIENTED_EDGE('',*,*,#1280,.F.);
#2022 = PLANE('',#2023);
#2023 = AXIS2_PLACEMENT_3D('',#2024,#2025,#2026);
#2024 = CARTESIAN_POINT('',(-0.948480775301,-0.775,-0.487364817767));
#2025 = DIRECTION('',(-0.989965123745,-1.325633166166E-16,-0.14131190243
    ));
#2026 = DIRECTION('',(-0.14131190243,-1.892266102533E-17,0.989965123745)
  );
#2027 = ADVANCED_FACE('',(#2028),#2039,.F.);
#2028 = FACE_BOUND('',#2029,.F.);
#2029 = EDGE_LOOP('',(#2030,#2036,#2037,#2038));
#2030 = ORIENTED_EDGE('',*,*,#2031,.T.);
#2031 = EDGE_CURVE('',#1509,#1611,#2032,.T.);
#2032 = LINE('',#2033,#2034);
#2033 = CARTESIAN_POINT('',(1.11915192277,-0.175,-0.352635182233));
#2034 = VECTOR('',#2035,1.);
#2035 = DIRECTION('',(-1.144237745224E-17,1.,0.));
#2036 = ORIENTED_EDGE('',*,*,#1619,.T.);
#2037 = ORIENTED_EDGE('',*,*,#1760,.F.);
#2038 = ORIENTED_EDGE('',*,*,#1517,.F.);
#2039 = PLANE('',#2040);
#2040 = AXIS2_PLACEMENT_3D('',#2041,#2042,#2043);
#2041 = CARTESIAN_POINT('',(1.11915192277,-0.175,-0.352635182233));
#2042 = DIRECTION('',(-0.989965123745,-1.132755461038E-17,0.14131190243)
  );
#2043 = DIRECTION('',(-0.14131190243,-1.616944126072E-18,-0.989965123745
    ));
#2044 = ADVANCED_FACE('',(#2045),#2056,.F.);
#2045 = FACE_BOUND('',#2046,.F.);
#2046 = EDGE_LOOP('',(#2047,#2053,#2054,#2055));
#2047 = ORIENTED_EDGE('',*,*,#2048,.T.);
#2048 = EDGE_CURVE('',#1501,#1603,#2049,.T.);
#2049 = LINE('',#2050,#2051);
#2050 = CARTESIAN_POINT('',(1.217632698071,-0.175,-0.27));
#2051 = VECTOR('',#2052,1.);
#2052 = DIRECTION('',(-1.144237745224E-17,1.,0.));
#2053 = ORIENTED_EDGE('',*,*,#1610,.T.);
#2054 = ORIENTED_EDGE('',*,*,#2031,.F.);
#2055 = ORIENTED_EDGE('',*,*,#1508,.F.);
#2056 = CYLINDRICAL_SURFACE('',#2057,0.1);
#2057 = AXIS2_PLACEMENT_3D('',#2058,#2059,#2060);
#2058 = CARTESIAN_POINT('',(1.217632698071,-0.175,-0.37));
#2059 = DIRECTION('',(1.144237745224E-17,-1.,0.));
#2060 = DIRECTION('',(2.22044604925E-15,2.540718180784E-32,1.));
#2061 = ADVANCED_FACE('',(#2062),#2073,.F.);
#2062 = FACE_BOUND('',#2063,.F.);
#2063 = EDGE_LOOP('',(#2064,#2070,#2071,#2072));
#2064 = ORIENTED_EDGE('',*,*,#2065,.T.);
#2065 = EDGE_CURVE('',#1493,#1595,#2066,.T.);
#2066 = LINE('',#2067,#2068);
#2067 = CARTESIAN_POINT('',(1.4,-0.175,-0.27));
#2068 = VECTOR('',#2069,1.);
#2069 = DIRECTION('',(-1.144237745224E-17,1.,0.));
#2070 = ORIENTED_EDGE('',*,*,#1602,.T.);
#2071 = ORIENTED_EDGE('',*,*,#2048,.F.);
#2072 = ORIENTED_EDGE('',*,*,#1500,.F.);
#2073 = PLANE('',#2074);
#2074 = AXIS2_PLACEMENT_3D('',#2075,#2076,#2077);
#2075 = CARTESIAN_POINT('',(1.4,-0.175,-0.27));
#2076 = DIRECTION('',(0.,0.,1.));
#2077 = DIRECTION('',(-1.,-1.144237745224E-17,0.));
#2078 = ADVANCED_FACE('',(#2079),#2090,.F.);
#2079 = FACE_BOUND('',#2080,.F.);
#2080 = EDGE_LOOP('',(#2081,#2087,#2088,#2089));
#2081 = ORIENTED_EDGE('',*,*,#2082,.T.);
#2082 = EDGE_CURVE('',#1485,#1587,#2083,.T.);
#2083 = LINE('',#2084,#2085);
#2084 = CARTESIAN_POINT('',(1.4,-0.175,-0.12));
#2085 = VECTOR('',#2086,1.);
#2086 = DIRECTION('',(-1.144237745224E-17,1.,0.));
#2087 = ORIENTED_EDGE('',*,*,#1594,.T.);
#2088 = ORIENTED_EDGE('',*,*,#2065,.F.);
#2089 = ORIENTED_EDGE('',*,*,#1492,.F.);
#2090 = PLANE('',#2091);
#2091 = AXIS2_PLACEMENT_3D('',#2092,#2093,#2094);
#2092 = CARTESIAN_POINT('',(1.4,-0.175,-0.12));
#2093 = DIRECTION('',(-1.,-1.144237745224E-17,-0.));
#2094 = DIRECTION('',(0.,0.,-1.));
#2095 = ADVANCED_FACE('',(#2096),#2107,.F.);
#2096 = FACE_BOUND('',#2097,.F.);
#2097 = EDGE_LOOP('',(#2098,#2104,#2105,#2106));
#2098 = ORIENTED_EDGE('',*,*,#2099,.T.);
#2099 = EDGE_CURVE('',#1476,#1578,#2100,.T.);
#2100 = LINE('',#2101,#2102);
#2101 = CARTESIAN_POINT('',(1.217632698071,-0.175,-0.12));
#2102 = VECTOR('',#2103,1.);
#2103 = DIRECTION('',(-1.144237745224E-17,1.,0.));
#2104 = ORIENTED_EDGE('',*,*,#1586,.T.);
#2105 = ORIENTED_EDGE('',*,*,#2082,.F.);
#2106 = ORIENTED_EDGE('',*,*,#1484,.F.);
#2107 = PLANE('',#2108);
#2108 = AXIS2_PLACEMENT_3D('',#2109,#2110,#2111);
#2109 = CARTESIAN_POINT('',(1.217632698071,-0.175,-0.12));
#2110 = DIRECTION('',(0.,0.,-1.));
#2111 = DIRECTION('',(1.,1.144237745224E-17,0.));
#2112 = ADVANCED_FACE('',(#2113),#2124,.T.);
#2113 = FACE_BOUND('',#2114,.T.);
#2114 = EDGE_LOOP('',(#2115,#2116,#2117,#2118));
#2115 = ORIENTED_EDGE('',*,*,#1475,.T.);
#2116 = ORIENTED_EDGE('',*,*,#2099,.T.);
#2117 = ORIENTED_EDGE('',*,*,#1577,.F.);
#2118 = ORIENTED_EDGE('',*,*,#2119,.F.);
#2119 = EDGE_CURVE('',#1468,#1570,#2120,.T.);
#2120 = LINE('',#2121,#2122);
#2121 = CARTESIAN_POINT('',(0.971430759818,-0.175,-0.326587955583));
#2122 = VECTOR('',#2123,1.);
#2123 = DIRECTION('',(-1.144237745224E-17,1.,0.));
#2124 = CYLINDRICAL_SURFACE('',#2125,0.25);
#2125 = AXIS2_PLACEMENT_3D('',#2126,#2127,#2128);
#2126 = CARTESIAN_POINT('',(1.217632698071,-0.175,-0.37));
#2127 = DIRECTION('',(1.144237745224E-17,-1.,0.));
#2128 = DIRECTION('',(-0.984807753012,-1.126854202785E-17,0.173648177667
    ));
#2129 = ADVANCED_FACE('',(#2130),#2136,.F.);
#2130 = FACE_BOUND('',#2131,.F.);
#2131 = EDGE_LOOP('',(#2132,#2133,#2134,#2135));
#2132 = ORIENTED_EDGE('',*,*,#1551,.T.);
#2133 = ORIENTED_EDGE('',*,*,#1569,.T.);
#2134 = ORIENTED_EDGE('',*,*,#2119,.F.);
#2135 = ORIENTED_EDGE('',*,*,#1467,.F.);
#2136 = PLANE('',#2137);
#2137 = AXIS2_PLACEMENT_3D('',#2138,#2139,#2140);
#2138 = CARTESIAN_POINT('',(0.948480775301,-0.175,-0.487364817767));
#2139 = DIRECTION('',(0.989965123745,1.132755461038E-17,-0.14131190243)
  );
#2140 = DIRECTION('',(0.14131190243,1.616944126072E-18,0.989965123745));
#2141 = ADVANCED_FACE('',(#2142),#2145,.F.);
#2142 = FACE_BOUND('',#2143,.T.);
#2143 = EDGE_LOOP('',(#2144));
#2144 = ORIENTED_EDGE('',*,*,#1708,.F.);
#2145 = PLANE('',#2146);
#2146 = AXIS2_PLACEMENT_3D('',#2147,#2148,#2149);
#2147 = CARTESIAN_POINT('',(-0.525810707854,-1.175810707854,-1.07));
#2148 = DIRECTION('',(0.,0.,1.));
#2149 = DIRECTION('',(-1.144237745224E-17,1.,0.));
#2150 = ( GEOMETRIC_REPRESENTATION_CONTEXT(3) 
GLOBAL_UNCERTAINTY_ASSIGNED_CONTEXT((#2154)) 
GLOBAL_UNIT_ASSIGNED_CONTEXT((#2151,#2152,#2153)) REPRESENTATION_CONTEXT
('Context #1','3D Context with UNIT and UNCERTAINTY') );
#2151 = ( LENGTH_UNIT() NAMED_UNIT(*) SI_UNIT(.MILLI.,.METRE.) );
#2152 = ( NAMED_UNIT(*) PLANE_ANGLE_UNIT() SI_UNIT($,.RADIAN.) );
#2153 = ( NAMED_UNIT(*) SI_UNIT($,.STERADIAN.) SOLID_ANGLE_UNIT() );
#2154 = UNCERTAINTY_MEASURE_WITH_UNIT(LENGTH_MEASURE(1.E-07),#2151,
  'distance_accuracy_value','confusion accuracy');
#2155 = PRODUCT_RELATED_PRODUCT_CATEGORY('part',$,(#7));
ENDSEC;
END-ISO-10303-21;
