ISO-10303-21;
HEADER;
FILE_DESCRIPTION(('FreeCAD Model'),'2;1');
FILE_NAME('Open CASCADE Shape Model','2026-09-04T23:08:15',('Author'),(
    ''),'Open CASCADE STEP processor 7.8','FreeCAD','Unknown');
FILE_SCHEMA(('AUTOMOTIVE_DESIGN { 1 0 10303 214 1 1 1 1 }'));
ENDSEC;
DATA;
#1 = APPLICATION_PROTOCOL_DEFINITION('international standard',
  'automotive_design',2000,#2);
#2 = APPLICATION_CONTEXT(
  'core data for automotive mechanical design processes');
#3 = SHAPE_DEFINITION_REPRESENTATION(#4,#10);
#4 = PRODUCT_DEFINITION_SHAPE('','',#5);
#5 = PRODUCT_DEFINITION('design','',#6,#9);
#6 = PRODUCT_DEFINITION_FORMATION('','',#7);
#7 = PRODUCT('loc_testpoint_testpoint_loop_d2_50mm_drill1_',
  'loc_testpoint_testpoint_loop_d2_50mm_drill1_','',(#8));
#8 = PRODUCT_CONTEXT('',#2,'mechanical');
#9 = PRODUCT_DEFINITION_CONTEXT('part definition',#2,'design');
#10 = ADVANCED_BREP_SHAPE_REPRESENTATION('',(#11,#15),#721);
#11 = AXIS2_PLACEMENT_3D('',#12,#13,#14);
#12 = CARTESIAN_POINT('',(0.,0.,0.));
#13 = DIRECTION('',(0.,0.,1.));
#14 = DIRECTION('',(1.,0.,-0.));
#15 = MANIFOLD_SOLID_BREP('',#16);
#16 = CLOSED_SHELL('',(#17,#34,#59,#360,#386,#687,#712));
#17 = ADVANCED_FACE('',(#18),#29,.F.);
#18 = FACE_BOUND('',#19,.F.);
#19 = EDGE_LOOP('',(#20));
#20 = ORIENTED_EDGE('',*,*,#21,.T.);
#21 = EDGE_CURVE('',#22,#22,#24,.T.);
#22 = VERTEX_POINT('',#23);
#23 = CARTESIAN_POINT('',(0.,0.,-3.000000340985));
#24 = CIRCLE('',#25,0.25);
#25 = AXIS2_PLACEMENT_3D('',#26,#27,#28);
#26 = CARTESIAN_POINT('',(-0.25,-7.571388498749E-23,-3.000000340985));
#27 = DIRECTION('',(0.,0.,1.));
#28 = DIRECTION('',(1.,0.,-0.));
#29 = PLANE('',#30);
#30 = AXIS2_PLACEMENT_3D('',#31,#32,#33);
#31 = CARTESIAN_POINT('',(-0.25,2.184397549452E-17,-3.000000340985));
#32 = DIRECTION('',(0.,0.,1.));
#33 = DIRECTION('',(1.,0.,-0.));
#34 = ADVANCED_FACE('',(#35),#54,.T.);
#35 = FACE_BOUND('',#36,.T.);
#36 = EDGE_LOOP('',(#37,#45,#52,#53));
#37 = ORIENTED_EDGE('',*,*,#38,.T.);
#38 = EDGE_CURVE('',#22,#39,#41,.T.);
#39 = VERTEX_POINT('',#40);
#40 = CARTESIAN_POINT('',(0.,0.,-8.369736681502E-08));
#41 = LINE('',#42,#43);
#42 = CARTESIAN_POINT('',(0.,-7.571388498749E-23,-3.000000340985));
#43 = VECTOR('',#44,1.);
#44 = DIRECTION('',(0.,2.22044604925E-16,1.));
#45 = ORIENTED_EDGE('',*,*,#46,.F.);
#46 = EDGE_CURVE('',#39,#39,#47,.T.);
#47 = CIRCLE('',#48,0.25);
#48 = AXIS2_PLACEMENT_3D('',#49,#50,#51);
#49 = CARTESIAN_POINT('',(-0.25,6.661337961905E-16,-8.369736681502E-08)
  );
#50 = DIRECTION('',(-0.,2.22044604925E-16,1.));
#51 = DIRECTION('',(1.,0.,0.));
#52 = ORIENTED_EDGE('',*,*,#38,.F.);
#53 = ORIENTED_EDGE('',*,*,#21,.T.);
#54 = CYLINDRICAL_SURFACE('',#55,0.25);
#55 = AXIS2_PLACEMENT_3D('',#56,#57,#58);
#56 = CARTESIAN_POINT('',(-0.25,-7.571388498749E-23,-3.000000340985));
#57 = DIRECTION('',(0.,2.22044604925E-16,1.));
#58 = DIRECTION('',(1.,0.,-0.));
#59 = ADVANCED_FACE('',(#60),#114,.T.);
#60 = FACE_BOUND('',#61,.T.);
#61 = EDGE_LOOP('',(#62,#102,#112,#113));
#62 = ORIENTED_EDGE('',*,*,#63,.T.);
#63 = EDGE_CURVE('',#39,#64,#66,.T.);
#64 = VERTEX_POINT('',#65);
#65 = CARTESIAN_POINT('',(-0.750000101797,0.,1.099999054481));
#66 = ( BOUNDED_CURVE() B_SPLINE_CURVE(10,(#67,#68,#69,#70,#71,#72,#73,
    #74,#75,#76,#77,#78,#79,#80,#81,#82,#83,#84,#85,#86,#87,#88,#89,#90,
    #91,#92,#93,#94,#95,#96,#97,#98,#99,#100,#101),.UNSPECIFIED.,.F.,.F.
) B_SPLINE_CURVE_WITH_KNOTS((11,8,8,8,11),(0.,0.249999916901,
0.499999833802,0.749999916901,1.),.UNSPECIFIED.) CURVE() 
GEOMETRIC_REPRESENTATION_ITEM() RATIONAL_B_SPLINE_CURVE((1.669078461068,
    1.669078461068,1.669078461068,1.669078461069,1.669078461068,
    1.669078461069,1.669078461068,1.669078461068,1.669078461068,
    1.669078461068,1.669078461068,1.669078461068,1.669078461068,
    1.669078461069,1.669078461068,1.669078461068,1.669078461068,
    1.669078461068,1.669078461068,1.669078461068,1.669078461068,
    1.669078461068,1.669078461068,1.669078461068,1.669078461068,
    1.669078461068,1.669078461068,1.669078461068,1.669078461069,
    1.669078461067,1.669078461069,1.669078461068,1.669078461069,
1.669078461068,1.669078461068)) REPRESENTATION_ITEM('') );
#67 = CARTESIAN_POINT('',(1.110223024625E-16,6.355176262119E-16,
    -8.369736681502E-08));
#68 = CARTESIAN_POINT('',(-1.110223024625E-15,6.483320192074E-16,
    5.829531876673E-02));
#69 = CARTESIAN_POINT('',(-4.416324248061E-03,6.616605422146E-16,
    0.115246030142));
#70 = CARTESIAN_POINT('',(-1.329632943722E-02,6.7199922518E-16,
    0.170665479109));
#71 = CARTESIAN_POINT('',(-2.660350594367E-02,6.879302680997E-16,
    0.224196613737));
#72 = CARTESIAN_POINT('',(-4.414593276078E-02,6.928603507474E-16,
    0.275347791971));
#73 = CARTESIAN_POINT('',(-6.540752522543E-02,7.116972758409E-16,
    0.323526868642));
#74 = CARTESIAN_POINT('',(-8.962938051776E-02,7.134245431987E-16,
    0.368501932984));
#75 = CARTESIAN_POINT('',(-0.116138262205,7.292859391235E-16,
    0.410266073593));
#76 = CARTESIAN_POINT('',(-0.172518710935,7.38798201269E-16,
    0.487684182439));
#77 = CARTESIAN_POINT('',(-0.233617167313,7.658405691554E-16,
    0.553851241791));
#78 = CARTESIAN_POINT('',(-0.264843465153,7.312209314615E-16,
    0.584364185211));
#79 = CARTESIAN_POINT('',(-0.296342716761,8.496481648437E-16,
    0.612636705406));
#80 = CARTESIAN_POINT('',(-0.327818926696,6.541247607346E-16,
    0.639009814072));
#81 = CARTESIAN_POINT('',(-0.35903396148,9.277252063801E-16,
    0.663787850767));
#82 = CARTESIAN_POINT('',(-0.389774708562,6.61469124315E-16,
    0.687232054549));
#83 = CARTESIAN_POINT('',(-0.419840846461,8.6784174698E-16,
    0.709567082377));
#84 = CARTESIAN_POINT('',(-0.478227282772,7.002695739577E-16,
    0.752383763729));
#85 = CARTESIAN_POINT('',(-0.532340864427,8.187802672761E-16,
    0.792067021158));
#86 = CARTESIAN_POINT('',(-0.55813410856,7.305110940088E-16,
    0.811268419415));
#87 = CARTESIAN_POINT('',(-0.582471492451,8.475025537354E-16,
    0.829933557083));
#88 = CARTESIAN_POINT('',(-0.605162712781,7.452253083097E-16,
    0.848124235289));
#89 = CARTESIAN_POINT('',(-0.626030257318,8.269962405692E-16,
    0.865865673043));
#90 = CARTESIAN_POINT('',(-0.644921634833,7.881368782202E-16,
    0.883139988869));
#91 = CARTESIAN_POINT('',(-0.661742216182,8.07470645206E-16,
    0.899892629248));
#92 = CARTESIAN_POINT('',(-0.691268769227,8.100292883542E-16,
    0.932267149973));
#93 = CARTESIAN_POINT('',(-0.713013333111,8.196334143361E-16,
    0.962557280842));
#94 = CARTESIAN_POINT('',(-0.722051333807,8.204206894956E-16,
    0.977225383666));
#95 = CARTESIAN_POINT('',(-0.729470112063,8.266970049019E-16,
    0.991547145247));
#96 = CARTESIAN_POINT('',(-0.735552279062,8.268141217118E-16,
    1.005815935905));
#97 = CARTESIAN_POINT('',(-0.740666111707,8.324954355207E-16,
    1.020550125622));
#98 = CARTESIAN_POINT('',(-0.744937067831,8.345492004714E-16,
    1.036628317155));
#99 = CARTESIAN_POINT('',(-0.748166442675,8.393278396213E-16,
    1.054828609496));
#100 = CARTESIAN_POINT('',(-0.750000120504,8.437271872748E-16,
    1.075794511539));
#101 = CARTESIAN_POINT('',(-0.750000119661,8.491503298123E-16,
    1.099999051776));
#102 = ORIENTED_EDGE('',*,*,#103,.F.);
#103 = EDGE_CURVE('',#64,#64,#104,.T.);
#104 = ( BOUNDED_CURVE() B_SPLINE_CURVE(6,(#105,#106,#107,#108,#109,#110
,#111),.UNSPECIFIED.,.T.,.F.) B_SPLINE_CURVE_WITH_KNOTS((1,6,6,1),(
-6.28318530718,0.,6.28318530718,12.56637061436),.UNSPECIFIED.) CURVE() 
GEOMETRIC_REPRESENTATION_ITEM() RATIONAL_B_SPLINE_CURVE((1.669078461068,
    1.03672962321,1.038346699848,0.853534330196,1.038346699848,
1.03672962321,1.669078461068)) REPRESENTATION_ITEM('') );
#105 = CARTESIAN_POINT('',(-0.750000119661,8.491503298123E-16,
    1.099999051776));
#106 = CARTESIAN_POINT('',(-0.750000119661,0.415385768893,1.099999051776
    ));
#107 = CARTESIAN_POINT('',(-1.263637167298,0.475028095811,1.099999069669
    ));
#108 = CARTESIAN_POINT('',(-1.687279349913,1.859159275356E-15,
    1.099999084428));
#109 = CARTESIAN_POINT('',(-1.263637167298,-0.475028095811,
    1.099999069669));
#110 = CARTESIAN_POINT('',(-0.750000119661,-0.415385768893,
    1.099999051776));
#111 = CARTESIAN_POINT('',(-0.750000119661,8.491503298123E-16,
    1.099999051776));
#112 = ORIENTED_EDGE('',*,*,#63,.F.);
#113 = ORIENTED_EDGE('',*,*,#46,.T.);
#114 = ( BOUNDED_SURFACE() B_SPLINE_SURFACE(6,10,(
    (#115,#116,#117,#118,#119,#120,#121,#122,#123,#124,#125,#126,#127
      ,#128,#129,#130,#131,#132,#133,#134,#135,#136,#137,#138,#139,#140
      ,#141,#142,#143,#144,#145,#146,#147,#148,#149)
    ,(#150,#151,#152,#153,#154,#155,#156,#157,#158,#159,#160,#161,#162
      ,#163,#164,#165,#166,#167,#168,#169,#170,#171,#172,#173,#174,#175
      ,#176,#177,#178,#179,#180,#181,#182,#183,#184)
    ,(#185,#186,#187,#188,#189,#190,#191,#192,#193,#194,#195,#196,#197
      ,#198,#199,#200,#201,#202,#203,#204,#205,#206,#207,#208,#209,#210
      ,#211,#212,#213,#214,#215,#216,#217,#218,#219)
    ,(#220,#221,#222,#223,#224,#225,#226,#227,#228,#229,#230,#231,#232
      ,#233,#234,#235,#236,#237,#238,#239,#240,#241,#242,#243,#244,#245
      ,#246,#247,#248,#249,#250,#251,#252,#253,#254)
    ,(#255,#256,#257,#258,#259,#260,#261,#262,#263,#264,#265,#266,#267
      ,#268,#269,#270,#271,#272,#273,#274,#275,#276,#277,#278,#279,#280
      ,#281,#282,#283,#284,#285,#286,#287,#288,#289)
    ,(#290,#291,#292,#293,#294,#295,#296,#297,#298,#299,#300,#301,#302
      ,#303,#304,#305,#306,#307,#308,#309,#310,#311,#312,#313,#314,#315
      ,#316,#317,#318,#319,#320,#321,#322,#323,#324)
    ,(#325,#326,#327,#328,#329,#330,#331,#332,#333,#334,#335,#336,#337
      ,#338,#339,#340,#341,#342,#343,#344,#345,#346,#347,#348,#349,#350
      ,#351,#352,#353,#354,#355,#356,#357,#358,#359
)),.UNSPECIFIED.,.T.,.F.,.F.) B_SPLINE_SURFACE_WITH_KNOTS((1,6,6,1),(11,
    8,8,8,11),(-6.28318530718,0.,6.28318530718,12.56637061436),(0.,
    0.249999916901,0.499999833802,0.749999916901,1.),.UNSPECIFIED.) 
GEOMETRIC_REPRESENTATION_ITEM() RATIONAL_B_SPLINE_SURFACE((
    (1.669078461068,1.669078461068,1.669078461068,1.669078461069
      ,1.669078461068,1.669078461069,1.669078461068,1.669078461068
      ,1.669078461068,1.669078461068,1.669078461068,1.669078461068
      ,1.669078461068,1.669078461069,1.669078461068,1.669078461068
      ,1.669078461068,1.669078461068,1.669078461068,1.669078461068
      ,1.669078461068,1.669078461068,1.669078461068,1.669078461068
      ,1.669078461068,1.669078461068,1.669078461068,1.669078461068
      ,1.669078461069,1.669078461067,1.669078461069,1.669078461068
      ,1.669078461069,1.669078461068,1.669078461068)
    ,(1.03672962321,1.03672962321,1.036729623209,1.03672962321
      ,1.036729623209,1.03672962321,1.036729623209,1.03672962321
      ,1.03672962321,1.03672962321,1.03672962321,1.03672962321
      ,1.036729623209,1.03672962321,1.036729623209,1.03672962321
      ,1.03672962321,1.03672962321,1.03672962321,1.03672962321
      ,1.03672962321,1.03672962321,1.03672962321,1.03672962321
      ,1.03672962321,1.03672962321,1.03672962321,1.036729623209
      ,1.03672962321,1.036729623209,1.03672962321,1.036729623209
      ,1.03672962321,1.03672962321,1.03672962321)
    ,(1.038346699848,1.038346699848,1.038346699847,1.038346699848
      ,1.038346699847,1.038346699848,1.038346699847,1.038346699848
      ,1.038346699847,1.038346699848,1.038346699847,1.038346699848
      ,1.038346699847,1.038346699848,1.038346699847,1.038346699848
      ,1.038346699847,1.038346699848,1.038346699848,1.038346699847
      ,1.038346699848,1.038346699847,1.038346699848,1.038346699847
      ,1.038346699848,1.038346699847,1.038346699848,1.038346699847
      ,1.038346699848,1.038346699847,1.038346699848,1.038346699847
      ,1.038346699848,1.038346699847,1.038346699848)
    ,(0.853534330196,0.853534330196,0.853534330196,0.853534330196
      ,0.853534330196,0.853534330196,0.853534330196,0.853534330196
      ,0.853534330196,0.853534330196,0.853534330196,0.853534330196
      ,0.853534330196,0.853534330196,0.853534330196,0.853534330196
      ,0.853534330196,0.853534330196,0.853534330196,0.853534330196
      ,0.853534330196,0.853534330196,0.853534330196,0.853534330196
      ,0.853534330196,0.853534330196,0.853534330196,0.853534330196
      ,0.853534330196,0.853534330196,0.853534330196,0.853534330196
      ,0.853534330196,0.853534330196,0.853534330196)
    ,(1.038346699848,1.038346699848,1.038346699847,1.038346699848
      ,1.038346699847,1.038346699848,1.038346699847,1.038346699848
      ,1.038346699847,1.038346699848,1.038346699847,1.038346699848
      ,1.038346699847,1.038346699848,1.038346699847,1.038346699848
      ,1.038346699848,1.038346699848,1.038346699848,1.038346699848
      ,1.038346699848,1.038346699847,1.038346699848,1.038346699847
      ,1.038346699848,1.038346699847,1.038346699848,1.038346699847
      ,1.038346699848,1.038346699847,1.038346699848,1.038346699847
      ,1.038346699848,1.038346699847,1.038346699848)
    ,(1.03672962321,1.03672962321,1.036729623209,1.03672962321
      ,1.036729623209,1.03672962321,1.036729623209,1.03672962321
      ,1.03672962321,1.03672962321,1.03672962321,1.03672962321
      ,1.036729623209,1.03672962321,1.036729623209,1.03672962321
      ,1.03672962321,1.03672962321,1.03672962321,1.03672962321
      ,1.03672962321,1.03672962321,1.03672962321,1.03672962321
      ,1.03672962321,1.03672962321,1.03672962321,1.036729623209
      ,1.03672962321,1.036729623209,1.03672962321,1.036729623209
      ,1.03672962321,1.03672962321,1.03672962321)
    ,(1.669078461068,1.669078461068,1.669078461068,1.669078461069
      ,1.669078461068,1.669078461069,1.669078461068,1.669078461068
      ,1.669078461068,1.669078461068,1.669078461068,1.669078461068
      ,1.669078461068,1.669078461069,1.669078461068,1.669078461068
      ,1.669078461068,1.669078461068,1.669078461068,1.669078461068
      ,1.669078461068,1.669078461068,1.669078461068,1.669078461068
      ,1.669078461068,1.669078461068,1.669078461068,1.669078461068
      ,1.669078461069,1.669078461067,1.669078461069,1.669078461068
      ,1.669078461069,1.669078461068,1.669078461068
))) REPRESENTATION_ITEM('') SURFACE() );
#115 = CARTESIAN_POINT('',(1.110223024625E-16,6.355176262119E-16,
    -8.369736681502E-08));
#116 = CARTESIAN_POINT('',(-1.110223024625E-15,6.483320192074E-16,
    5.829531876673E-02));
#117 = CARTESIAN_POINT('',(-4.416324248061E-03,6.616605422146E-16,
    0.115246030142));
#118 = CARTESIAN_POINT('',(-1.329632943722E-02,6.7199922518E-16,
    0.170665479109));
#119 = CARTESIAN_POINT('',(-2.660350594367E-02,6.879302680997E-16,
    0.224196613737));
#120 = CARTESIAN_POINT('',(-4.414593276078E-02,6.928603507474E-16,
    0.275347791971));
#121 = CARTESIAN_POINT('',(-6.540752522543E-02,7.116972758409E-16,
    0.323526868642));
#122 = CARTESIAN_POINT('',(-8.962938051776E-02,7.134245431987E-16,
    0.368501932984));
#123 = CARTESIAN_POINT('',(-0.116138262205,7.292859391235E-16,
    0.410266073593));
#124 = CARTESIAN_POINT('',(-0.172518710935,7.38798201269E-16,
    0.487684182439));
#125 = CARTESIAN_POINT('',(-0.233617167313,7.658405691554E-16,
    0.553851241791));
#126 = CARTESIAN_POINT('',(-0.264843465153,7.312209314615E-16,
    0.584364185211));
#127 = CARTESIAN_POINT('',(-0.296342716761,8.496481648437E-16,
    0.612636705406));
#128 = CARTESIAN_POINT('',(-0.327818926696,6.541247607346E-16,
    0.639009814072));
#129 = CARTESIAN_POINT('',(-0.35903396148,9.277252063801E-16,
    0.663787850767));
#130 = CARTESIAN_POINT('',(-0.389774708562,6.61469124315E-16,
    0.687232054549));
#131 = CARTESIAN_POINT('',(-0.419840846461,8.6784174698E-16,
    0.709567082377));
#132 = CARTESIAN_POINT('',(-0.478227282772,7.002695739577E-16,
    0.752383763729));
#133 = CARTESIAN_POINT('',(-0.532340864427,8.187802672761E-16,
    0.792067021158));
#134 = CARTESIAN_POINT('',(-0.55813410856,7.305110940088E-16,
    0.811268419415));
#135 = CARTESIAN_POINT('',(-0.582471492451,8.475025537354E-16,
    0.829933557083));
#136 = CARTESIAN_POINT('',(-0.605162712781,7.452253083097E-16,
    0.848124235289));
#137 = CARTESIAN_POINT('',(-0.626030257318,8.269962405692E-16,
    0.865865673043));
#138 = CARTESIAN_POINT('',(-0.644921634833,7.881368782202E-16,
    0.883139988869));
#139 = CARTESIAN_POINT('',(-0.661742216182,8.07470645206E-16,
    0.899892629248));
#140 = CARTESIAN_POINT('',(-0.691268769227,8.100292883542E-16,
    0.932267149973));
#141 = CARTESIAN_POINT('',(-0.713013333111,8.196334143361E-16,
    0.962557280842));
#142 = CARTESIAN_POINT('',(-0.722051333807,8.204206894956E-16,
    0.977225383666));
#143 = CARTESIAN_POINT('',(-0.729470112063,8.266970049019E-16,
    0.991547145247));
#144 = CARTESIAN_POINT('',(-0.735552279062,8.268141217118E-16,
    1.005815935905));
#145 = CARTESIAN_POINT('',(-0.740666111707,8.324954355207E-16,
    1.020550125622));
#146 = CARTESIAN_POINT('',(-0.744937067831,8.345492004714E-16,
    1.036628317155));
#147 = CARTESIAN_POINT('',(-0.748166442675,8.393278396213E-16,
    1.054828609496));
#148 = CARTESIAN_POINT('',(-0.750000120504,8.437271872748E-16,
    1.075794511539));
#149 = CARTESIAN_POINT('',(-0.750000119661,8.491503298123E-16,
    1.099999051776));
#150 = CARTESIAN_POINT('',(-5.551115123126E-16,0.415385768893,
    -8.369736681502E-08));
#151 = CARTESIAN_POINT('',(-5.551115123126E-16,0.415385768893,
    5.829531876674E-02));
#152 = CARTESIAN_POINT('',(-4.416324248067E-03,0.415385768893,
    0.115246030142));
#153 = CARTESIAN_POINT('',(-1.329632943721E-02,0.415385768893,
    0.170665479109));
#154 = CARTESIAN_POINT('',(-2.660350594369E-02,0.415385768893,
    0.224196613737));
#155 = CARTESIAN_POINT('',(-4.414593276076E-02,0.415385768893,
    0.275347791971));
#156 = CARTESIAN_POINT('',(-6.540752522545E-02,0.415385768893,
    0.323526868642));
#157 = CARTESIAN_POINT('',(-8.962938051775E-02,0.415385768893,
    0.368501932984));
#158 = CARTESIAN_POINT('',(-0.116138262205,0.415385768893,0.410266073593
    ));
#159 = CARTESIAN_POINT('',(-0.172518710935,0.415385768893,0.487684182439
    ));
#160 = CARTESIAN_POINT('',(-0.233617167313,0.415385768893,0.553851241791
    ));
#161 = CARTESIAN_POINT('',(-0.264843465153,0.415385768893,0.584364185211
    ));
#162 = CARTESIAN_POINT('',(-0.296342716761,0.415385768893,0.612636705406
    ));
#163 = CARTESIAN_POINT('',(-0.327818926696,0.415385768893,0.639009814072
    ));
#164 = CARTESIAN_POINT('',(-0.359033961479,0.415385768893,0.663787850767
    ));
#165 = CARTESIAN_POINT('',(-0.389774708562,0.415385768893,0.687232054549
    ));
#166 = CARTESIAN_POINT('',(-0.419840846461,0.415385768893,0.709567082377
    ));
#167 = CARTESIAN_POINT('',(-0.478227282772,0.415385768893,0.752383763729
    ));
#168 = CARTESIAN_POINT('',(-0.532340864427,0.415385768893,0.792067021158
    ));
#169 = CARTESIAN_POINT('',(-0.55813410856,0.415385768893,0.811268419415)
  );
#170 = CARTESIAN_POINT('',(-0.582471492451,0.415385768893,0.829933557083
    ));
#171 = CARTESIAN_POINT('',(-0.605162712781,0.415385768893,0.848124235289
    ));
#172 = CARTESIAN_POINT('',(-0.626030257318,0.415385768893,0.865865673043
    ));
#173 = CARTESIAN_POINT('',(-0.644921634833,0.415385768893,0.883139988869
    ));
#174 = CARTESIAN_POINT('',(-0.661742216182,0.415385768893,0.899892629248
    ));
#175 = CARTESIAN_POINT('',(-0.691268769227,0.415385768893,0.932267149973
    ));
#176 = CARTESIAN_POINT('',(-0.713013333111,0.415385768893,0.962557280842
    ));
#177 = CARTESIAN_POINT('',(-0.722051333807,0.415385768893,0.977225383666
    ));
#178 = CARTESIAN_POINT('',(-0.729470112063,0.415385768893,0.991547145247
    ));
#179 = CARTESIAN_POINT('',(-0.735552279062,0.415385768893,1.005815935905
    ));
#180 = CARTESIAN_POINT('',(-0.740666111707,0.415385768893,1.020550125622
    ));
#181 = CARTESIAN_POINT('',(-0.744937067831,0.415385768893,1.036628317155
    ));
#182 = CARTESIAN_POINT('',(-0.748166442675,0.415385768893,1.054828609496
    ));
#183 = CARTESIAN_POINT('',(-0.750000120504,0.415385768893,1.075794511539
    ));
#184 = CARTESIAN_POINT('',(-0.750000119661,0.415385768893,1.099999051776
    ));
#185 = CARTESIAN_POINT('',(-0.513637047637,0.475028095811,
    -8.369736681502E-08));
#186 = CARTESIAN_POINT('',(-0.513637047637,0.475028095811,
    2.327456434921E-02));
#187 = CARTESIAN_POINT('',(-0.515400280897,0.475028095811,
    4.325892488884E-02));
#188 = CARTESIAN_POINT('',(-0.518475528878,0.475028095811,
    6.04440170307E-02));
#189 = CARTESIAN_POINT('',(-0.522500014112,0.475028095811,
    7.55006399077E-02));
#190 = CARTESIAN_POINT('',(-0.527274847928,0.475028095811,
    8.924152442357E-02));
#191 = CARTESIAN_POINT('',(-0.532942987853,0.475028095811,0.102585386861
    ));
#192 = CARTESIAN_POINT('',(-0.539903454865,0.475028095811,0.116071058962
    ));
#193 = CARTESIAN_POINT('',(-0.548464930607,0.475028095811,0.130000099796
    ));
#194 = CARTESIAN_POINT('',(-0.569264787648,0.475028095811,0.159004783846
    ));
#195 = CARTESIAN_POINT('',(-0.597930202409,0.475028095811,0.190457586738
    ));
#196 = CARTESIAN_POINT('',(-0.614357859632,0.475028095811,0.206834902167
    ));
#197 = CARTESIAN_POINT('',(-0.632905347748,0.475028095811,0.223809229413
    ));
#198 = CARTESIAN_POINT('',(-0.653483529593,0.475028095811,0.241315225864
    ));
#199 = CARTESIAN_POINT('',(-0.675942249772,0.475028095811,0.25932622145)
  );
#200 = CARTESIAN_POINT('',(-0.700104967118,0.475028095811,0.277860997653
    ));
#201 = CARTESIAN_POINT('',(-0.725781651665,0.475028095811,0.296976913543
    ));
#202 = CARTESIAN_POINT('',(-0.779778692411,0.475028095811,0.336574707716
    ));
#203 = CARTESIAN_POINT('',(-0.838281672549,0.475028095811,0.379476854464
    ));
#204 = CARTESIAN_POINT('',(-0.868464375343,0.475028095811,0.401897368553
    ));
#205 = CARTESIAN_POINT('',(-0.899379796136,0.475028095811,0.425471939279
    ));
#206 = CARTESIAN_POINT('',(-0.930827339525,0.475028095811,0.450429665626
    ));
#207 = CARTESIAN_POINT('',(-0.962592921292,0.475028095811,0.47703822418)
  );
#208 = CARTESIAN_POINT('',(-0.99443607136,0.475028095811,0.505610743067)
  );
#209 = CARTESIAN_POINT('',(-1.026055301301,0.475028095811,0.536499022849
    ));
#210 = CARTESIAN_POINT('',(-1.08801490754,0.475028095811,0.603587823852)
  );
#211 = CARTESIAN_POINT('',(-1.145340063052,0.475028095811,0.682291400379
    ));
#212 = CARTESIAN_POINT('',(-1.172325466022,0.475028095811,0.724794611442
    ));
#213 = CARTESIAN_POINT('',(-1.197005624906,0.475028095811,0.770605770023
    ));
#214 = CARTESIAN_POINT('',(-1.218681233164,0.475028095811,0.81970977423)
  );
#215 = CARTESIAN_POINT('',(-1.236562645629,0.475028095811,0.871854249177
    ));
#216 = CARTESIAN_POINT('',(-1.25011628154,0.475028095811,0.926406937159)
  );
#217 = CARTESIAN_POINT('',(-1.259150405223,0.475028095811,0.982841566533
    ));
#218 = CARTESIAN_POINT('',(-1.263637169361,0.475028095811,1.040773797402
    ));
#219 = CARTESIAN_POINT('',(-1.263637167298,0.475028095811,1.099999069669
    ));
#220 = CARTESIAN_POINT('',(-0.937279230252,1.530742963582E-15,
    -8.369736681502E-08));
#221 = CARTESIAN_POINT('',(-0.937279230252,1.529854073124E-15,
    -5.610168375044E-03));
#222 = CARTESIAN_POINT('',(-0.936854223271,1.525644036942E-15,
    -1.611524706739E-02));
#223 = CARTESIAN_POINT('',(-0.935141771407,1.527864912383E-15,
    -3.046543153958E-02));
#224 = CARTESIAN_POINT('',(-0.931509995067,1.51304246201E-15,
    -4.714216241516E-02));
#225 = CARTESIAN_POINT('',(-0.925754258725,1.526912897413E-15,
    -6.425687633395E-02));
#226 = CARTESIAN_POINT('',(-0.918561090653,1.50112099022E-15,
    -7.964471511915E-02));
#227 = CARTESIAN_POINT('',(-0.91128455463,1.521053960311E-15,
    -9.213114709357E-02));
#228 = CARTESIAN_POINT('',(-0.90504320752,1.500938219531E-15,
    -0.101160190136));
#229 = CARTESIAN_POINT('',(-0.896496584217,1.519619871905E-15,
    -0.112086365909));
#230 = CARTESIAN_POINT('',(-0.898411583285,1.48629373051E-15,
    -0.109265499598));
#231 = CARTESIAN_POINT('',(-0.902633484634,1.601140771035E-15,
    -0.104547094528));
#232 = CARTESIAN_POINT('',(-0.910498500801,1.294528663287E-15,
    -9.689139245287E-02));
#233 = CARTESIAN_POINT('',(-0.922088109046,1.850407401222E-15,
    -8.669889254532E-02));
#234 = CARTESIAN_POINT('',(-0.937324717332,1.116132883465E-15,
    -7.426927797213E-02));
#235 = CARTESIAN_POINT('',(-0.956061948163,1.86562938806E-15,
    -5.978374359173E-02));
#236 = CARTESIAN_POINT('',(-0.978118259905,1.315575848643E-15,
    -4.332291579109E-02));
#237 = CARTESIAN_POINT('',(-1.028494975509,1.810590757834E-15,
    -6.38002432804E-03));
#238 = CARTESIAN_POINT('',(-1.090618283196,1.519130416411E-15,
    3.917702689489E-02));
#239 = CARTESIAN_POINT('',(-1.124421363173,1.779081642434E-15,
    6.425263228519E-02));
#240 = CARTESIAN_POINT('',(-1.160762276389,1.474985854868E-15,
    9.18764493529E-02));
#241 = CARTESIAN_POINT('',(-1.199431938646,1.774043081345E-15,
    0.122415562514));
#242 = CARTESIAN_POINT('',(-1.240186101551,1.567607282708E-15,
    0.15633762469));
#243 = CARTESIAN_POINT('',(-1.282711731044,1.693394441442E-15,
    0.194228777089));
#244 = CARTESIAN_POINT('',(-1.326536723435,1.659917288333E-15,
    0.236775976642));
#245 = CARTESIAN_POINT('',(-1.415246754916,1.693899824939E-15,
    0.332496733871));
#246 = CARTESIAN_POINT('',(-1.50191839072,1.712329001029E-15,
    0.451131187428));
#247 = CARTESIAN_POINT('',(-1.543706613516,1.733653818379E-15,
    0.516592489348));
#248 = CARTESIAN_POINT('',(-1.582623769124,1.741080964465E-15,
    0.58837575593));
#249 = CARTESIAN_POINT('',(-1.617160676074,1.766752044135E-15,
    0.666211460794));
#250 = CARTESIAN_POINT('',(-1.645572647824,1.778557306167E-15,
    0.749211527175));
#251 = CARTESIAN_POINT('',(-1.666782535838,1.801885168938E-15,
    0.835497556289));
#252 = CARTESIAN_POINT('',(-1.680604352464,1.819391312796E-15,
    0.923467445953));
#253 = CARTESIAN_POINT('',(-1.687279352982,1.839728686391E-15,
    1.0118890979));
#254 = CARTESIAN_POINT('',(-1.687279349913,1.859159275356E-15,
    1.099999084428));
#255 = CARTESIAN_POINT('',(-0.513637047637,-0.475028095811,
    -8.369736681502E-08));
#256 = CARTESIAN_POINT('',(-0.513637047637,-0.475028095811,
    2.327456434921E-02));
#257 = CARTESIAN_POINT('',(-0.515400280897,-0.475028095811,
    4.325892488884E-02));
#258 = CARTESIAN_POINT('',(-0.518475528878,-0.475028095811,
    6.044401703071E-02));
#259 = CARTESIAN_POINT('',(-0.522500014112,-0.475028095811,
    7.550063990769E-02));
#260 = CARTESIAN_POINT('',(-0.527274847928,-0.475028095811,
    8.924152442357E-02));
#261 = CARTESIAN_POINT('',(-0.532942987853,-0.475028095811,
    0.102585386861));
#262 = CARTESIAN_POINT('',(-0.539903454865,-0.475028095811,
    0.116071058962));
#263 = CARTESIAN_POINT('',(-0.548464930607,-0.475028095811,
    0.130000099796));
#264 = CARTESIAN_POINT('',(-0.569264787648,-0.475028095811,
    0.159004783846));
#265 = CARTESIAN_POINT('',(-0.597930202409,-0.475028095811,
    0.190457586738));
#266 = CARTESIAN_POINT('',(-0.614357859632,-0.475028095811,
    0.206834902167));
#267 = CARTESIAN_POINT('',(-0.632905347748,-0.475028095811,
    0.223809229413));
#268 = CARTESIAN_POINT('',(-0.653483529593,-0.475028095811,
    0.241315225864));
#269 = CARTESIAN_POINT('',(-0.675942249772,-0.475028095811,0.25932622145
    ));
#270 = CARTESIAN_POINT('',(-0.700104967118,-0.475028095811,
    0.277860997653));
#271 = CARTESIAN_POINT('',(-0.725781651665,-0.475028095811,
    0.296976913543));
#272 = CARTESIAN_POINT('',(-0.779778692411,-0.475028095811,
    0.336574707716));
#273 = CARTESIAN_POINT('',(-0.838281672549,-0.475028095811,
    0.379476854464));
#274 = CARTESIAN_POINT('',(-0.868464375343,-0.475028095811,
    0.401897368553));
#275 = CARTESIAN_POINT('',(-0.899379796136,-0.475028095811,
    0.425471939279));
#276 = CARTESIAN_POINT('',(-0.930827339525,-0.475028095811,
    0.450429665626));
#277 = CARTESIAN_POINT('',(-0.962592921292,-0.475028095811,0.47703822418
    ));
#278 = CARTESIAN_POINT('',(-0.99443607136,-0.475028095811,0.505610743067
    ));
#279 = CARTESIAN_POINT('',(-1.026055301301,-0.475028095811,
    0.536499022849));
#280 = CARTESIAN_POINT('',(-1.08801490754,-0.475028095811,0.603587823852
    ));
#281 = CARTESIAN_POINT('',(-1.145340063052,-0.475028095811,
    0.682291400379));
#282 = CARTESIAN_POINT('',(-1.172325466022,-0.475028095811,
    0.724794611442));
#283 = CARTESIAN_POINT('',(-1.197005624906,-0.475028095811,
    0.770605770024));
#284 = CARTESIAN_POINT('',(-1.218681233164,-0.475028095811,0.81970977423
    ));
#285 = CARTESIAN_POINT('',(-1.236562645629,-0.475028095811,
    0.871854249177));
#286 = CARTESIAN_POINT('',(-1.25011628154,-0.475028095811,0.926406937159
    ));
#287 = CARTESIAN_POINT('',(-1.259150405223,-0.475028095811,
    0.982841566533));
#288 = CARTESIAN_POINT('',(-1.263637169361,-0.475028095811,
    1.040773797402));
#289 = CARTESIAN_POINT('',(-1.263637167298,-0.475028095811,
    1.099999069669));
#290 = CARTESIAN_POINT('',(-5.551115123126E-16,-0.415385768893,
    -8.369736681502E-08));
#291 = CARTESIAN_POINT('',(2.775557561563E-15,-0.415385768893,
    5.829531876673E-02));
#292 = CARTESIAN_POINT('',(-4.41632424808E-03,-0.415385768893,
    0.115246030142));
#293 = CARTESIAN_POINT('',(-1.329632943718E-02,-0.415385768893,
    0.170665479109));
#294 = CARTESIAN_POINT('',(-2.660350594374E-02,-0.415385768893,
    0.224196613737));
#295 = CARTESIAN_POINT('',(-4.41459327607E-02,-0.415385768893,
    0.275347791971));
#296 = CARTESIAN_POINT('',(-6.540752522549E-02,-0.415385768893,
    0.323526868642));
#297 = CARTESIAN_POINT('',(-8.962938051773E-02,-0.415385768893,
    0.368501932984));
#298 = CARTESIAN_POINT('',(-0.116138262205,-0.415385768893,
    0.410266073593));
#299 = CARTESIAN_POINT('',(-0.172518710935,-0.415385768893,
    0.487684182439));
#300 = CARTESIAN_POINT('',(-0.233617167313,-0.415385768893,
    0.553851241791));
#301 = CARTESIAN_POINT('',(-0.264843465153,-0.415385768893,
    0.584364185211));
#302 = CARTESIAN_POINT('',(-0.296342716761,-0.415385768893,
    0.612636705406));
#303 = CARTESIAN_POINT('',(-0.327818926696,-0.415385768893,
    0.639009814072));
#304 = CARTESIAN_POINT('',(-0.359033961479,-0.415385768893,
    0.663787850767));
#305 = CARTESIAN_POINT('',(-0.389774708562,-0.415385768893,
    0.687232054549));
#306 = CARTESIAN_POINT('',(-0.419840846461,-0.415385768893,
    0.709567082377));
#307 = CARTESIAN_POINT('',(-0.478227282772,-0.415385768893,
    0.752383763729));
#308 = CARTESIAN_POINT('',(-0.532340864427,-0.415385768893,
    0.792067021158));
#309 = CARTESIAN_POINT('',(-0.55813410856,-0.415385768893,0.811268419415
    ));
#310 = CARTESIAN_POINT('',(-0.582471492451,-0.415385768893,
    0.829933557083));
#311 = CARTESIAN_POINT('',(-0.605162712781,-0.415385768893,
    0.848124235289));
#312 = CARTESIAN_POINT('',(-0.626030257318,-0.415385768893,
    0.865865673043));
#313 = CARTESIAN_POINT('',(-0.644921634833,-0.415385768893,
    0.883139988869));
#314 = CARTESIAN_POINT('',(-0.661742216182,-0.415385768893,
    0.899892629248));
#315 = CARTESIAN_POINT('',(-0.691268769227,-0.415385768893,
    0.932267149973));
#316 = CARTESIAN_POINT('',(-0.713013333111,-0.415385768893,
    0.962557280842));
#317 = CARTESIAN_POINT('',(-0.722051333807,-0.415385768893,
    0.977225383666));
#318 = CARTESIAN_POINT('',(-0.729470112063,-0.415385768893,
    0.991547145247));
#319 = CARTESIAN_POINT('',(-0.735552279062,-0.415385768893,
    1.005815935905));
#320 = CARTESIAN_POINT('',(-0.740666111707,-0.415385768893,
    1.020550125622));
#321 = CARTESIAN_POINT('',(-0.744937067831,-0.415385768893,
    1.036628317155));
#322 = CARTESIAN_POINT('',(-0.748166442675,-0.415385768893,
    1.054828609496));
#323 = CARTESIAN_POINT('',(-0.750000120504,-0.415385768893,
    1.075794511539));
#324 = CARTESIAN_POINT('',(-0.750000119661,-0.415385768893,
    1.099999051776));
#325 = CARTESIAN_POINT('',(1.110223024625E-16,6.355176262119E-16,
    -8.369736681502E-08));
#326 = CARTESIAN_POINT('',(-1.110223024625E-15,6.483320192074E-16,
    5.829531876673E-02));
#327 = CARTESIAN_POINT('',(-4.416324248061E-03,6.616605422146E-16,
    0.115246030142));
#328 = CARTESIAN_POINT('',(-1.329632943722E-02,6.7199922518E-16,
    0.170665479109));
#329 = CARTESIAN_POINT('',(-2.660350594367E-02,6.879302680997E-16,
    0.224196613737));
#330 = CARTESIAN_POINT('',(-4.414593276078E-02,6.928603507474E-16,
    0.275347791971));
#331 = CARTESIAN_POINT('',(-6.540752522543E-02,7.116972758409E-16,
    0.323526868642));
#332 = CARTESIAN_POINT('',(-8.962938051776E-02,7.134245431987E-16,
    0.368501932984));
#333 = CARTESIAN_POINT('',(-0.116138262205,7.292859391235E-16,
    0.410266073593));
#334 = CARTESIAN_POINT('',(-0.172518710935,7.38798201269E-16,
    0.487684182439));
#335 = CARTESIAN_POINT('',(-0.233617167313,7.658405691554E-16,
    0.553851241791));
#336 = CARTESIAN_POINT('',(-0.264843465153,7.312209314615E-16,
    0.584364185211));
#337 = CARTESIAN_POINT('',(-0.296342716761,8.496481648437E-16,
    0.612636705406));
#338 = CARTESIAN_POINT('',(-0.327818926696,6.541247607346E-16,
    0.639009814072));
#339 = CARTESIAN_POINT('',(-0.35903396148,9.277252063801E-16,
    0.663787850767));
#340 = CARTESIAN_POINT('',(-0.389774708562,6.61469124315E-16,
    0.687232054549));
#341 = CARTESIAN_POINT('',(-0.419840846461,8.6784174698E-16,
    0.709567082377));
#342 = CARTESIAN_POINT('',(-0.478227282772,7.002695739577E-16,
    0.752383763729));
#343 = CARTESIAN_POINT('',(-0.532340864427,8.187802672761E-16,
    0.792067021158));
#344 = CARTESIAN_POINT('',(-0.55813410856,7.305110940088E-16,
    0.811268419415));
#345 = CARTESIAN_POINT('',(-0.582471492451,8.475025537354E-16,
    0.829933557083));
#346 = CARTESIAN_POINT('',(-0.605162712781,7.452253083097E-16,
    0.848124235289));
#347 = CARTESIAN_POINT('',(-0.626030257318,8.269962405692E-16,
    0.865865673043));
#348 = CARTESIAN_POINT('',(-0.644921634833,7.881368782202E-16,
    0.883139988869));
#349 = CARTESIAN_POINT('',(-0.661742216182,8.07470645206E-16,
    0.899892629248));
#350 = CARTESIAN_POINT('',(-0.691268769227,8.100292883542E-16,
    0.932267149973));
#351 = CARTESIAN_POINT('',(-0.713013333111,8.196334143361E-16,
    0.962557280842));
#352 = CARTESIAN_POINT('',(-0.722051333807,8.204206894956E-16,
    0.977225383666));
#353 = CARTESIAN_POINT('',(-0.729470112063,8.266970049019E-16,
    0.991547145247));
#354 = CARTESIAN_POINT('',(-0.735552279062,8.268141217118E-16,
    1.005815935905));
#355 = CARTESIAN_POINT('',(-0.740666111707,8.324954355207E-16,
    1.020550125622));
#356 = CARTESIAN_POINT('',(-0.744937067831,8.345492004714E-16,
    1.036628317155));
#357 = CARTESIAN_POINT('',(-0.748166442675,8.393278396213E-16,
    1.054828609496));
#358 = CARTESIAN_POINT('',(-0.750000120504,8.437271872748E-16,
    1.075794511539));
#359 = CARTESIAN_POINT('',(-0.750000119661,8.491503298123E-16,
    1.099999051776));
#360 = ADVANCED_FACE('',(#361),#381,.T.);
#361 = FACE_BOUND('',#362,.T.);
#362 = EDGE_LOOP('',(#363,#372,#379,#380));
#363 = ORIENTED_EDGE('',*,*,#364,.T.);
#364 = EDGE_CURVE('',#64,#365,#367,.T.);
#365 = VERTEX_POINT('',#366);
#366 = CARTESIAN_POINT('',(0.750000101797,0.,1.099999032387));
#367 = CIRCLE('',#368,0.750000083934);
#368 = AXIS2_PLACEMENT_3D('',#369,#370,#371);
#369 = CARTESIAN_POINT('',(-1.504510063806E-19,-1.104667546022E-08,
    1.099998986871));
#370 = DIRECTION('',(0.,1.,-2.22044604925E-16));
#371 = DIRECTION('',(1.,0.,0.));
#372 = ORIENTED_EDGE('',*,*,#373,.T.);
#373 = EDGE_CURVE('',#365,#365,#374,.T.);
#374 = CIRCLE('',#375,0.25);
#375 = AXIS2_PLACEMENT_3D('',#376,#377,#378);
#376 = CARTESIAN_POINT('',(1.000000083934,9.103826729047E-16,
    1.099999065895));
#377 = DIRECTION('',(-7.90234751198E-08,2.22044604925E-16,1.));
#378 = DIRECTION('',(1.,1.754673631278E-23,7.90234751198E-08));
#379 = ORIENTED_EDGE('',*,*,#364,.F.);
#380 = ORIENTED_EDGE('',*,*,#103,.T.);
#381 = TOROIDAL_SURFACE('',#382,1.000000083934,0.25);
#382 = AXIS2_PLACEMENT_3D('',#383,#384,#385);
#383 = CARTESIAN_POINT('',(-1.504510063806E-19,9.10382655358E-16,
    1.099998986871));
#384 = DIRECTION('',(0.,1.,-2.22044604925E-16));
#385 = DIRECTION('',(1.,0.,0.));
#386 = ADVANCED_FACE('',(#387),#441,.T.);
#387 = FACE_BOUND('',#388,.T.);
#388 = EDGE_LOOP('',(#389,#429,#439,#440));
#389 = ORIENTED_EDGE('',*,*,#390,.T.);
#390 = EDGE_CURVE('',#365,#391,#393,.T.);
#391 = VERTEX_POINT('',#392);
#392 = CARTESIAN_POINT('',(2.725872860765E-09,0.,-2.567221888405E-07));
#393 = ( BOUNDED_CURVE() B_SPLINE_CURVE(10,(#394,#395,#396,#397,#398,
    #399,#400,#401,#402,#403,#404,#405,#406,#407,#408,#409,#410,#411,
    #412,#413,#414,#415,#416,#417,#418,#419,#420,#421,#422,#423,#424,
    #425,#426,#427,#428),.UNSPECIFIED.,.F.,.F.) 
B_SPLINE_CURVE_WITH_KNOTS((11,8,8,8,11),(0.,0.250000048074,
0.500000096149,0.750000048074,1.),.UNSPECIFIED.) CURVE() 
GEOMETRIC_REPRESENTATION_ITEM() RATIONAL_B_SPLINE_CURVE((1.669078461068,
    1.669078461068,1.669078461068,1.669078461069,1.669078461068,
    1.669078461069,1.669078461068,1.669078461068,1.669078461068,
    1.669078461068,1.669078461068,1.669078461068,1.669078461068,
    1.669078461069,1.669078461068,1.669078461068,1.669078461068,
    1.669078461068,1.669078461068,1.669078461068,1.669078461069,
    1.669078461068,1.669078461069,1.669078461068,1.669078461068,
    1.669078461068,1.669078461068,1.669078461068,1.669078461069,
    1.669078461067,1.669078461069,1.669078461068,1.669078461068,
1.669078461068,1.669078461068)) REPRESENTATION_ITEM('') );
#394 = CARTESIAN_POINT('',(0.750000119661,8.491503249066E-16,
    1.099999029682));
#395 = CARTESIAN_POINT('',(0.750000118998,8.438550442249E-16,
    1.075794492775));
#396 = CARTESIAN_POINT('',(0.748166440094,8.387829043812E-16,
    1.054828594461));
#397 = CARTESIAN_POINT('',(0.744937064589,8.359419921115E-16,
    1.036628306445));
#398 = CARTESIAN_POINT('',(0.740666108302,8.299034922866E-16,
    1.020550120014));
#399 = CARTESIAN_POINT('',(0.735552276174,8.305545789253E-16,
    1.005815936297));
#400 = CARTESIAN_POINT('',(0.729470110691,8.224191919956E-16,
    0.991547152376));
#401 = CARTESIAN_POINT('',(0.722051334931,8.242795487606E-16,
    0.977225397876));
#402 = CARTESIAN_POINT('',(0.713013337595,8.170021184855E-16,
    0.962557302222));
#403 = CARTESIAN_POINT('',(0.691268781802,8.149620969285E-16,
    0.93226718545));
#404 = CARTESIAN_POINT('',(0.661742238851,8.002363551907E-16,
    0.899892677798));
#405 = CARTESIAN_POINT('',(0.644921662865,8.219346826134E-16,
    0.883140043565));
#406 = CARTESIAN_POINT('',(0.626030290832,7.485951264815E-16,
    0.865865733429));
#407 = CARTESIAN_POINT('',(0.605162751745,8.71358884072E-16,0.8481243009
    ));
#408 = CARTESIAN_POINT('',(0.582471536717,6.942456857831E-16,
    0.829933627461));
#409 = CARTESIAN_POINT('',(0.558134157893,8.738064765641E-16,
    0.811268494105));
#410 = CARTESIAN_POINT('',(0.532340918525,7.189074692509E-16,
    0.792067099715));
#411 = CARTESIAN_POINT('',(0.478227338124,8.886770709286E-16,
    0.75238384358));
#412 = CARTESIAN_POINT('',(0.41984090037,5.908996214188E-16,
    0.709567160971));
#413 = CARTESIAN_POINT('',(0.389774756824,9.138239835004E-16,
    0.687232128557));
#414 = CARTESIAN_POINT('',(0.359034003417,4.667015752241E-16,
    0.6637879191));
#415 = CARTESIAN_POINT('',(0.327818961818,8.976416073366E-16,
    0.639009875481));
#416 = CARTESIAN_POINT('',(0.296342744792,5.639569585543E-16,
    0.61263675848));
#417 = CARTESIAN_POINT('',(0.264843486089,7.402490474966E-16,
    0.584364228385));
#418 = CARTESIAN_POINT('',(0.233617181512,6.660864614587E-16,
    0.553851273401));
#419 = CARTESIAN_POINT('',(0.1725187132,6.714997081126E-16,
    0.487684187759));
#420 = CARTESIAN_POINT('',(0.1161382569,6.418102751028E-16,
    0.410266047225));
#421 = CARTESIAN_POINT('',(8.962937284045E-02,6.432613028974E-16,
    0.368501889653));
#422 = CARTESIAN_POINT('',(6.540751681598E-02,6.198295449488E-16,
    0.323526807635));
#423 = CARTESIAN_POINT('',(4.414592527743E-02,6.22381274444E-16,
    0.275347713017));
#424 = CARTESIAN_POINT('',(2.660350067672E-02,6.005595772017E-16,
    0.22419651725));
#425 = CARTESIAN_POINT('',(1.329632661387E-02,5.952577734881E-16,
    0.170665365243));
#426 = CARTESIAN_POINT('',(4.416323646927E-03,5.797502221963E-16,
    0.115245898261));
#427 = CARTESIAN_POINT('',(1.219502498984E-09,5.68216363448E-16,
    5.829516741114E-02));
#428 = CARTESIAN_POINT('',(2.725872194631E-09,5.550608974034E-16,
    -2.567221888405E-07));
#429 = ORIENTED_EDGE('',*,*,#430,.F.);
#430 = EDGE_CURVE('',#391,#391,#431,.T.);
#431 = ( BOUNDED_CURVE() B_SPLINE_CURVE(6,(#432,#433,#434,#435,#436,#437
,#438),.UNSPECIFIED.,.T.,.F.) B_SPLINE_CURVE_WITH_KNOTS((1,6,6,1),(
-6.28318530718,0.,6.28318530718,12.56637061436),.UNSPECIFIED.) CURVE() 
GEOMETRIC_REPRESENTATION_ITEM() RATIONAL_B_SPLINE_CURVE((1.669078461068,
    1.03672962321,1.038346699848,0.853534330196,1.038346699848,
1.03672962321,1.669078461068)) REPRESENTATION_ITEM('') );
#432 = CARTESIAN_POINT('',(2.725872194631E-09,5.550608974034E-16,
    -2.567221888405E-07));
#433 = CARTESIAN_POINT('',(2.725872749743E-09,0.415385768893,
    -2.567221892846E-07));
#434 = CARTESIAN_POINT('',(0.513637050363,0.475028095811,
    -2.113303296802E-07));
#435 = CARTESIAN_POINT('',(0.937279232978,1.751927793745E-15,
    -1.738916228788E-07));
#436 = CARTESIAN_POINT('',(0.513637050363,-0.475028095811,
    -2.113303292361E-07));
#437 = CARTESIAN_POINT('',(2.72587263872E-09,-0.415385768893,
    -2.567221888405E-07));
#438 = CARTESIAN_POINT('',(2.725872194631E-09,5.550608974034E-16,
    -2.567221888405E-07));
#439 = ORIENTED_EDGE('',*,*,#390,.F.);
#440 = ORIENTED_EDGE('',*,*,#373,.F.);
#441 = ( BOUNDED_SURFACE() B_SPLINE_SURFACE(6,10,(
    (#442,#443,#444,#445,#446,#447,#448,#449,#450,#451,#452,#453,#454
      ,#455,#456,#457,#458,#459,#460,#461,#462,#463,#464,#465,#466,#467
      ,#468,#469,#470,#471,#472,#473,#474,#475,#476)
    ,(#477,#478,#479,#480,#481,#482,#483,#484,#485,#486,#487,#488,#489
      ,#490,#491,#492,#493,#494,#495,#496,#497,#498,#499,#500,#501,#502
      ,#503,#504,#505,#506,#507,#508,#509,#510,#511)
    ,(#512,#513,#514,#515,#516,#517,#518,#519,#520,#521,#522,#523,#524
      ,#525,#526,#527,#528,#529,#530,#531,#532,#533,#534,#535,#536,#537
      ,#538,#539,#540,#541,#542,#543,#544,#545,#546)
    ,(#547,#548,#549,#550,#551,#552,#553,#554,#555,#556,#557,#558,#559
      ,#560,#561,#562,#563,#564,#565,#566,#567,#568,#569,#570,#571,#572
      ,#573,#574,#575,#576,#577,#578,#579,#580,#581)
    ,(#582,#583,#584,#585,#586,#587,#588,#589,#590,#591,#592,#593,#594
      ,#595,#596,#597,#598,#599,#600,#601,#602,#603,#604,#605,#606,#607
      ,#608,#609,#610,#611,#612,#613,#614,#615,#616)
    ,(#617,#618,#619,#620,#621,#622,#623,#624,#625,#626,#627,#628,#629
      ,#630,#631,#632,#633,#634,#635,#636,#637,#638,#639,#640,#641,#642
      ,#643,#644,#645,#646,#647,#648,#649,#650,#651)
    ,(#652,#653,#654,#655,#656,#657,#658,#659,#660,#661,#662,#663,#664
      ,#665,#666,#667,#668,#669,#670,#671,#672,#673,#674,#675,#676,#677
      ,#678,#679,#680,#681,#682,#683,#684,#685,#686
)),.UNSPECIFIED.,.T.,.F.,.F.) B_SPLINE_SURFACE_WITH_KNOTS((1,6,6,1),(11,
    8,8,8,11),(-6.28318530718,0.,6.28318530718,12.56637061436),(0.,
    0.250000048074,0.500000096149,0.750000048074,1.),.UNSPECIFIED.) 
GEOMETRIC_REPRESENTATION_ITEM() RATIONAL_B_SPLINE_SURFACE((
    (1.669078461068,1.669078461068,1.669078461068,1.669078461069
      ,1.669078461068,1.669078461069,1.669078461068,1.669078461068
      ,1.669078461068,1.669078461068,1.669078461068,1.669078461068
      ,1.669078461068,1.669078461069,1.669078461068,1.669078461068
      ,1.669078461068,1.669078461068,1.669078461068,1.669078461068
      ,1.669078461069,1.669078461068,1.669078461069,1.669078461068
      ,1.669078461068,1.669078461068,1.669078461068,1.669078461068
      ,1.669078461069,1.669078461067,1.669078461069,1.669078461068
      ,1.669078461068,1.669078461068,1.669078461068)
    ,(1.03672962321,1.03672962321,1.03672962321,1.03672962321
      ,1.036729623209,1.03672962321,1.036729623209,1.03672962321
      ,1.03672962321,1.03672962321,1.03672962321,1.03672962321
      ,1.036729623209,1.03672962321,1.036729623209,1.03672962321
      ,1.03672962321,1.03672962321,1.03672962321,1.036729623209
      ,1.03672962321,1.036729623209,1.03672962321,1.036729623209
      ,1.03672962321,1.03672962321,1.03672962321,1.036729623209
      ,1.03672962321,1.036729623209,1.03672962321,1.036729623209
      ,1.03672962321,1.03672962321,1.03672962321)
    ,(1.038346699848,1.038346699848,1.038346699847,1.038346699848
      ,1.038346699847,1.038346699848,1.038346699847,1.038346699848
      ,1.038346699847,1.038346699848,1.038346699847,1.038346699848
      ,1.038346699847,1.038346699848,1.038346699847,1.038346699848
      ,1.038346699848,1.038346699847,1.038346699848,1.038346699847
      ,1.038346699848,1.038346699847,1.038346699848,1.038346699847
      ,1.038346699848,1.038346699847,1.038346699848,1.038346699847
      ,1.038346699848,1.038346699847,1.038346699848,1.038346699847
      ,1.038346699848,1.038346699847,1.038346699848)
    ,(0.853534330196,0.853534330196,0.853534330196,0.853534330196
      ,0.853534330196,0.853534330196,0.853534330196,0.853534330196
      ,0.853534330196,0.853534330196,0.853534330196,0.853534330196
      ,0.853534330196,0.853534330196,0.853534330196,0.853534330196
      ,0.853534330196,0.853534330196,0.853534330196,0.853534330196
      ,0.853534330196,0.853534330196,0.853534330196,0.853534330196
      ,0.853534330196,0.853534330196,0.853534330196,0.853534330196
      ,0.853534330197,0.853534330196,0.853534330197,0.853534330196
      ,0.853534330196,0.853534330196,0.853534330196)
    ,(1.038346699848,1.038346699848,1.038346699847,1.038346699848
      ,1.038346699847,1.038346699848,1.038346699847,1.038346699848
      ,1.038346699847,1.038346699848,1.038346699847,1.038346699848
      ,1.038346699847,1.038346699848,1.038346699847,1.038346699848
      ,1.038346699848,1.038346699847,1.038346699848,1.038346699847
      ,1.038346699848,1.038346699847,1.038346699848,1.038346699847
      ,1.038346699848,1.038346699847,1.038346699848,1.038346699847
      ,1.038346699848,1.038346699847,1.038346699848,1.038346699847
      ,1.038346699848,1.038346699847,1.038346699848)
    ,(1.03672962321,1.03672962321,1.03672962321,1.03672962321
      ,1.036729623209,1.03672962321,1.036729623209,1.03672962321
      ,1.03672962321,1.03672962321,1.03672962321,1.03672962321
      ,1.036729623209,1.03672962321,1.036729623209,1.03672962321
      ,1.03672962321,1.03672962321,1.03672962321,1.036729623209
      ,1.03672962321,1.036729623209,1.03672962321,1.036729623209
      ,1.03672962321,1.03672962321,1.03672962321,1.036729623209
      ,1.03672962321,1.036729623209,1.03672962321,1.036729623209
      ,1.03672962321,1.03672962321,1.03672962321)
    ,(1.669078461068,1.669078461068,1.669078461068,1.669078461069
      ,1.669078461068,1.669078461069,1.669078461068,1.669078461068
      ,1.669078461068,1.669078461068,1.669078461068,1.669078461068
      ,1.669078461068,1.669078461069,1.669078461068,1.669078461068
      ,1.669078461068,1.669078461068,1.669078461068,1.669078461068
      ,1.669078461069,1.669078461068,1.669078461069,1.669078461068
      ,1.669078461068,1.669078461068,1.669078461068,1.669078461068
      ,1.669078461069,1.669078461067,1.669078461069,1.669078461068
      ,1.669078461068,1.669078461068,1.669078461068
))) REPRESENTATION_ITEM('') SURFACE() );
#442 = CARTESIAN_POINT('',(0.750000119661,8.491503249066E-16,
    1.099999029682));
#443 = CARTESIAN_POINT('',(0.750000118998,8.438550442249E-16,
    1.075794492775));
#444 = CARTESIAN_POINT('',(0.748166440094,8.387829043812E-16,
    1.054828594461));
#445 = CARTESIAN_POINT('',(0.744937064589,8.359419921115E-16,
    1.036628306445));
#446 = CARTESIAN_POINT('',(0.740666108302,8.299034922866E-16,
    1.020550120014));
#447 = CARTESIAN_POINT('',(0.735552276174,8.305545789253E-16,
    1.005815936297));
#448 = CARTESIAN_POINT('',(0.729470110691,8.224191919956E-16,
    0.991547152376));
#449 = CARTESIAN_POINT('',(0.722051334931,8.242795487606E-16,
    0.977225397876));
#450 = CARTESIAN_POINT('',(0.713013337595,8.170021184855E-16,
    0.962557302222));
#451 = CARTESIAN_POINT('',(0.691268781802,8.149620969285E-16,
    0.93226718545));
#452 = CARTESIAN_POINT('',(0.661742238851,8.002363551907E-16,
    0.899892677798));
#453 = CARTESIAN_POINT('',(0.644921662865,8.219346826134E-16,
    0.883140043565));
#454 = CARTESIAN_POINT('',(0.626030290832,7.485951264815E-16,
    0.865865733429));
#455 = CARTESIAN_POINT('',(0.605162751745,8.71358884072E-16,0.8481243009
    ));
#456 = CARTESIAN_POINT('',(0.582471536717,6.942456857831E-16,
    0.829933627461));
#457 = CARTESIAN_POINT('',(0.558134157893,8.738064765641E-16,
    0.811268494105));
#458 = CARTESIAN_POINT('',(0.532340918525,7.189074692509E-16,
    0.792067099715));
#459 = CARTESIAN_POINT('',(0.478227338124,8.886770709286E-16,
    0.75238384358));
#460 = CARTESIAN_POINT('',(0.41984090037,5.908996214188E-16,
    0.709567160971));
#461 = CARTESIAN_POINT('',(0.389774756824,9.138239835004E-16,
    0.687232128557));
#462 = CARTESIAN_POINT('',(0.359034003417,4.667015752241E-16,
    0.6637879191));
#463 = CARTESIAN_POINT('',(0.327818961818,8.976416073366E-16,
    0.639009875481));
#464 = CARTESIAN_POINT('',(0.296342744792,5.639569585543E-16,
    0.61263675848));
#465 = CARTESIAN_POINT('',(0.264843486089,7.402490474966E-16,
    0.584364228385));
#466 = CARTESIAN_POINT('',(0.233617181512,6.660864614587E-16,
    0.553851273401));
#467 = CARTESIAN_POINT('',(0.1725187132,6.714997081126E-16,
    0.487684187759));
#468 = CARTESIAN_POINT('',(0.1161382569,6.418102751028E-16,
    0.410266047225));
#469 = CARTESIAN_POINT('',(8.962937284045E-02,6.432613028974E-16,
    0.368501889653));
#470 = CARTESIAN_POINT('',(6.540751681598E-02,6.198295449488E-16,
    0.323526807635));
#471 = CARTESIAN_POINT('',(4.414592527743E-02,6.22381274444E-16,
    0.275347713017));
#472 = CARTESIAN_POINT('',(2.660350067672E-02,6.005595772017E-16,
    0.22419651725));
#473 = CARTESIAN_POINT('',(1.329632661387E-02,5.952577734881E-16,
    0.170665365243));
#474 = CARTESIAN_POINT('',(4.416323646927E-03,5.797502221963E-16,
    0.115245898261));
#475 = CARTESIAN_POINT('',(1.219502498984E-09,5.68216363448E-16,
    5.829516741114E-02));
#476 = CARTESIAN_POINT('',(2.725872194631E-09,5.550608974034E-16,
    -2.567221888405E-07));
#477 = CARTESIAN_POINT('',(0.750000119661,0.415385768893,1.099999029682)
  );
#478 = CARTESIAN_POINT('',(0.750000118998,0.415385768893,1.075794492775)
  );
#479 = CARTESIAN_POINT('',(0.748166440094,0.415385768893,1.054828594461)
  );
#480 = CARTESIAN_POINT('',(0.744937064589,0.415385768893,1.036628306445)
  );
#481 = CARTESIAN_POINT('',(0.740666108302,0.415385768893,1.020550120014)
  );
#482 = CARTESIAN_POINT('',(0.735552276174,0.415385768893,1.005815936297)
  );
#483 = CARTESIAN_POINT('',(0.729470110691,0.415385768893,0.991547152376)
  );
#484 = CARTESIAN_POINT('',(0.722051334931,0.415385768893,0.977225397876)
  );
#485 = CARTESIAN_POINT('',(0.713013337595,0.415385768893,0.962557302222)
  );
#486 = CARTESIAN_POINT('',(0.691268781802,0.415385768893,0.93226718545)
  );
#487 = CARTESIAN_POINT('',(0.661742238851,0.415385768893,0.899892677798)
  );
#488 = CARTESIAN_POINT('',(0.644921662865,0.415385768893,0.883140043565)
  );
#489 = CARTESIAN_POINT('',(0.626030290832,0.415385768893,0.865865733429)
  );
#490 = CARTESIAN_POINT('',(0.605162751745,0.415385768893,0.8481243009));
#491 = CARTESIAN_POINT('',(0.582471536717,0.415385768893,0.829933627461)
  );
#492 = CARTESIAN_POINT('',(0.558134157893,0.415385768893,0.811268494105)
  );
#493 = CARTESIAN_POINT('',(0.532340918525,0.415385768893,0.792067099715)
  );
#494 = CARTESIAN_POINT('',(0.478227338124,0.415385768893,0.75238384358)
  );
#495 = CARTESIAN_POINT('',(0.41984090037,0.415385768893,0.709567160971)
  );
#496 = CARTESIAN_POINT('',(0.389774756824,0.415385768893,0.687232128557)
  );
#497 = CARTESIAN_POINT('',(0.359034003417,0.415385768893,0.6637879191));
#498 = CARTESIAN_POINT('',(0.327818961818,0.415385768893,0.639009875481)
  );
#499 = CARTESIAN_POINT('',(0.296342744792,0.415385768893,0.61263675848)
  );
#500 = CARTESIAN_POINT('',(0.264843486089,0.415385768893,0.584364228385)
  );
#501 = CARTESIAN_POINT('',(0.233617181512,0.415385768893,0.553851273401)
  );
#502 = CARTESIAN_POINT('',(0.1725187132,0.415385768893,0.487684187759));
#503 = CARTESIAN_POINT('',(0.1161382569,0.415385768893,0.410266047225));
#504 = CARTESIAN_POINT('',(8.962937284043E-02,0.415385768893,
    0.368501889653));
#505 = CARTESIAN_POINT('',(6.540751681604E-02,0.415385768893,
    0.323526807635));
#506 = CARTESIAN_POINT('',(4.414592527733E-02,0.415385768893,
    0.275347713017));
#507 = CARTESIAN_POINT('',(2.660350067684E-02,0.415385768893,
    0.22419651725));
#508 = CARTESIAN_POINT('',(1.329632661377E-02,0.415385768893,
    0.170665365243));
#509 = CARTESIAN_POINT('',(4.416323646974E-03,0.415385768893,
    0.115245898261));
#510 = CARTESIAN_POINT('',(1.219489509374E-09,0.415385768893,
    5.829516741113E-02));
#511 = CARTESIAN_POINT('',(2.725872749743E-09,0.415385768893,
    -2.567221892846E-07));
#512 = CARTESIAN_POINT('',(1.263637167298,0.475028095811,1.099999092968)
  );
#513 = CARTESIAN_POINT('',(1.263637170949,0.475028095811,1.040773829063)
  );
#514 = CARTESIAN_POINT('',(1.259150409767,0.475028095811,0.982841606162)
  );
#515 = CARTESIAN_POINT('',(1.250116290256,0.475028095811,0.926406984112)
  );
#516 = CARTESIAN_POINT('',(1.236562659472,0.475028095811,0.871854302576)
  );
#517 = CARTESIAN_POINT('',(1.218681252732,0.475028095811,0.819709833026)
  );
#518 = CARTESIAN_POINT('',(1.197005650285,0.475028095811,0.770605833295)
  );
#519 = CARTESIAN_POINT('',(1.172325497152,0.475028095811,0.724794678639)
  );
#520 = CARTESIAN_POINT('',(1.145340099822,0.475028095811,0.682291471178)
  );
#521 = CARTESIAN_POINT('',(1.088014955408,0.475028095811,0.603587901563)
  );
#522 = CARTESIAN_POINT('',(1.026055360001,0.475028095811,0.536499107286)
  );
#523 = CARTESIAN_POINT('',(0.994436135436,0.475028095811,0.50561083092)
  );
#524 = CARTESIAN_POINT('',(0.962592990736,0.475028095811,0.477038315528)
  );
#525 = CARTESIAN_POINT('',(0.930827414325,0.475028095811,0.450429760515)
  );
#526 = CARTESIAN_POINT('',(0.899379876227,0.475028095811,0.425472037703)
  );
#527 = CARTESIAN_POINT('',(0.868464460584,0.475028095811,0.401897470461)
  );
#528 = CARTESIAN_POINT('',(0.838281762699,0.475028095811,0.379476959753)
  );
#529 = CARTESIAN_POINT('',(0.779778783458,0.475028095811,0.336574813449)
  );
#530 = CARTESIAN_POINT('',(0.725781742855,0.475028095811,0.296977019772)
  );
#531 = CARTESIAN_POINT('',(0.700105054746,0.475028095811,0.277861101416)
  );
#532 = CARTESIAN_POINT('',(0.675942333988,0.475028095811,0.259326322656)
  );
#533 = CARTESIAN_POINT('',(0.653483610514,0.475028095811,0.2413153243));
#534 = CARTESIAN_POINT('',(0.632905425437,0.475028095811,0.223809324745)
  );
#535 = CARTESIAN_POINT('',(0.614357934028,0.475028095811,0.206834993936)
  );
#536 = CARTESIAN_POINT('',(0.59793027324,0.475028095811,0.190457674296)
  );
#537 = CARTESIAN_POINT('',(0.569264850264,0.475028095811,0.159004860934)
  );
#538 = CARTESIAN_POINT('',(0.548464982158,0.475028095811,0.130000160179)
  );
#539 = CARTESIAN_POINT('',(0.539903499999,0.475028095811,0.1160711089));
#540 = CARTESIAN_POINT('',(0.532943025613,0.475028095811,0.102585423543)
  );
#541 = CARTESIAN_POINT('',(0.527274877505,0.475028095811,
    8.924154428325E-02));
#542 = CARTESIAN_POINT('',(0.522500035252,0.475028095811,
    7.550063836453E-02));
#543 = CARTESIAN_POINT('',(0.518475542615,0.475028095811,
    6.044398948988E-02));
#544 = CARTESIAN_POINT('',(0.515400288907,0.475028095811,
    4.325886729733E-02));
#545 = CARTESIAN_POINT('',(0.513637051951,0.475028095811,
    2.327447323186E-02));
#546 = CARTESIAN_POINT('',(0.513637050363,0.475028095811,
    -2.113303296802E-07));
#547 = CARTESIAN_POINT('',(1.687279349913,1.859159288843E-15,
    1.099999145165));
#548 = CARTESIAN_POINT('',(1.687279357123,1.839377197495E-15,
    1.011889171152));
#549 = CARTESIAN_POINT('',(1.680604362884,1.820889413126E-15,
    0.923467530669));
#550 = CARTESIAN_POINT('',(1.666782554416,1.7980562363E-15,
    0.835497650802));
#551 = CARTESIAN_POINT('',(1.645572675894,1.78568288045E-15,
    0.749211629242));
#552 = CARTESIAN_POINT('',(1.617160714164,1.75646911385E-15,
    0.666211567761));
#553 = CARTESIAN_POINT('',(1.582623816567,1.752841201059E-15,
    0.588375865508));
#554 = CARTESIAN_POINT('',(1.543706669394,1.723045396317E-15,
    0.516592600249));
#555 = CARTESIAN_POINT('',(1.50191845412,1.719562778839E-15,
    0.451131298985));
#556 = CARTESIAN_POINT('',(1.415246831894,1.680339003989E-15,
    0.332496846416));
#557 = CARTESIAN_POINT('',(1.326536811854,1.679805252494E-15,
    0.236776090678));
#558 = CARTESIAN_POINT('',(1.282711824849,1.600480383942E-15,
    0.19422889229));
#559 = CARTESIAN_POINT('',(1.240186200631,1.78314117609E-15,
    0.156337741577));
#560 = CARTESIAN_POINT('',(1.199432043003,1.427287198458E-15,
    0.12241568155));
#561 = CARTESIAN_POINT('',(1.16076238603,1.896306976117E-15,
    9.187657090926E-02));
#562 = CARTESIAN_POINT('',(1.124421478031,1.385145952559E-15,
    6.425275664206E-02));
#563 = CARTESIAN_POINT('',(1.090618403081,1.793692493169E-15,
    3.917715423305E-02));
#564 = CARTESIAN_POINT('',(1.028495095998,1.292636593939E-15,
    -6.379897248025E-03));
#565 = CARTESIAN_POINT('',(0.978118381845,2.076922213032E-15,
    -4.332278676956E-02));
#566 = CARTESIAN_POINT('',(0.956062068261,1.171876444374E-15,
    -5.978361528783E-02));
#567 = CARTESIAN_POINT('',(0.937324836417,2.383540826131E-15,
    -7.426914965326E-02));
#568 = CARTESIAN_POINT('',(0.922088227741,1.18095118007E-15,
    -8.66987635693E-02));
#569 = CARTESIAN_POINT('',(0.910498619446,2.079927258364E-15,
    -9.689126226592E-02));
#570 = CARTESIAN_POINT('',(0.902633603124,1.576321479971E-15,
    -0.104546962678));
#571 = CARTESIAN_POINT('',(0.898411700825,1.760529486432E-15,
    -0.109265365897));
#572 = CARTESIAN_POINT('',(0.89649669661,1.704631332739E-15,
    -0.112086229628));
#573 = CARTESIAN_POINT('',(0.905043305964,1.741419062207E-15,
    -0.101160058202));
#574 = CARTESIAN_POINT('',(0.911284643321,1.71394091425E-15,
    -9.213102022815E-02));
#575 = CARTESIAN_POINT('',(0.918561166493,1.753676113913E-15,
    -7.96445978654E-02));
#576 = CARTESIAN_POINT('',(0.925754318868,1.720668094046E-15,
    -6.425677497355E-02));
#577 = CARTESIAN_POINT('',(0.931510037987,1.753234666243E-15,
    -4.714208565022E-02));
#578 = CARTESIAN_POINT('',(0.935141798803,1.738836077135E-15,
    -3.046538788038E-02));
#579 = CARTESIAN_POINT('',(0.936854238384,1.750825005279E-15,
    -1.611524338571E-02));
#580 = CARTESIAN_POINT('',(0.937279237119,1.750101277646E-15,
    -5.610209808549E-03));
#581 = CARTESIAN_POINT('',(0.937279232978,1.751927793745E-15,
    -1.738916228788E-07));
#582 = CARTESIAN_POINT('',(1.263637167298,-0.475028095811,1.099999092968
    ));
#583 = CARTESIAN_POINT('',(1.263637170949,-0.475028095811,1.040773829063
    ));
#584 = CARTESIAN_POINT('',(1.259150409767,-0.475028095811,0.982841606162
    ));
#585 = CARTESIAN_POINT('',(1.250116290256,-0.475028095811,0.926406984112
    ));
#586 = CARTESIAN_POINT('',(1.236562659472,-0.475028095811,0.871854302576
    ));
#587 = CARTESIAN_POINT('',(1.218681252732,-0.475028095811,0.819709833026
    ));
#588 = CARTESIAN_POINT('',(1.197005650285,-0.475028095811,0.770605833295
    ));
#589 = CARTESIAN_POINT('',(1.172325497152,-0.475028095811,0.724794678639
    ));
#590 = CARTESIAN_POINT('',(1.145340099822,-0.475028095811,0.682291471178
    ));
#591 = CARTESIAN_POINT('',(1.088014955408,-0.475028095811,0.603587901563
    ));
#592 = CARTESIAN_POINT('',(1.026055360001,-0.475028095811,0.536499107286
    ));
#593 = CARTESIAN_POINT('',(0.994436135436,-0.475028095811,0.50561083092)
  );
#594 = CARTESIAN_POINT('',(0.962592990736,-0.475028095811,0.477038315528
    ));
#595 = CARTESIAN_POINT('',(0.930827414325,-0.475028095811,0.450429760515
    ));
#596 = CARTESIAN_POINT('',(0.899379876227,-0.475028095811,0.425472037703
    ));
#597 = CARTESIAN_POINT('',(0.868464460584,-0.475028095811,0.401897470461
    ));
#598 = CARTESIAN_POINT('',(0.838281762699,-0.475028095811,0.379476959753
    ));
#599 = CARTESIAN_POINT('',(0.779778783458,-0.475028095811,0.336574813449
    ));
#600 = CARTESIAN_POINT('',(0.725781742855,-0.475028095811,0.296977019772
    ));
#601 = CARTESIAN_POINT('',(0.700105054746,-0.475028095811,0.277861101416
    ));
#602 = CARTESIAN_POINT('',(0.675942333988,-0.475028095811,0.259326322656
    ));
#603 = CARTESIAN_POINT('',(0.653483610514,-0.475028095811,0.2413153243)
  );
#604 = CARTESIAN_POINT('',(0.632905425437,-0.475028095811,0.223809324745
    ));
#605 = CARTESIAN_POINT('',(0.614357934028,-0.475028095811,0.206834993936
    ));
#606 = CARTESIAN_POINT('',(0.59793027324,-0.475028095811,0.190457674296)
  );
#607 = CARTESIAN_POINT('',(0.569264850264,-0.475028095811,0.159004860934
    ));
#608 = CARTESIAN_POINT('',(0.548464982158,-0.475028095811,0.130000160179
    ));
#609 = CARTESIAN_POINT('',(0.539903499999,-0.475028095811,0.1160711089)
  );
#610 = CARTESIAN_POINT('',(0.532943025613,-0.475028095811,0.102585423543
    ));
#611 = CARTESIAN_POINT('',(0.527274877505,-0.475028095811,
    8.924154428318E-02));
#612 = CARTESIAN_POINT('',(0.522500035252,-0.475028095811,
    7.550063836461E-02));
#613 = CARTESIAN_POINT('',(0.518475542615,-0.475028095811,
    6.044398948982E-02));
#614 = CARTESIAN_POINT('',(0.515400288907,-0.475028095811,
    4.325886729736E-02));
#615 = CARTESIAN_POINT('',(0.513637051951,-0.475028095811,
    2.327447323185E-02));
#616 = CARTESIAN_POINT('',(0.513637050363,-0.475028095811,
    -2.113303292361E-07));
#617 = CARTESIAN_POINT('',(0.750000119661,-0.415385768893,1.099999029682
    ));
#618 = CARTESIAN_POINT('',(0.750000118998,-0.415385768893,1.075794492775
    ));
#619 = CARTESIAN_POINT('',(0.748166440094,-0.415385768893,1.054828594461
    ));
#620 = CARTESIAN_POINT('',(0.744937064589,-0.415385768893,1.036628306445
    ));
#621 = CARTESIAN_POINT('',(0.740666108302,-0.415385768893,1.020550120014
    ));
#622 = CARTESIAN_POINT('',(0.735552276174,-0.415385768893,1.005815936297
    ));
#623 = CARTESIAN_POINT('',(0.729470110691,-0.415385768893,0.991547152376
    ));
#624 = CARTESIAN_POINT('',(0.722051334931,-0.415385768893,0.977225397876
    ));
#625 = CARTESIAN_POINT('',(0.713013337595,-0.415385768893,0.962557302222
    ));
#626 = CARTESIAN_POINT('',(0.691268781802,-0.415385768893,0.93226718545)
  );
#627 = CARTESIAN_POINT('',(0.661742238851,-0.415385768893,0.899892677798
    ));
#628 = CARTESIAN_POINT('',(0.644921662865,-0.415385768893,0.883140043565
    ));
#629 = CARTESIAN_POINT('',(0.626030290832,-0.415385768893,0.865865733429
    ));
#630 = CARTESIAN_POINT('',(0.605162751745,-0.415385768893,0.8481243009)
  );
#631 = CARTESIAN_POINT('',(0.582471536717,-0.415385768893,0.829933627461
    ));
#632 = CARTESIAN_POINT('',(0.558134157893,-0.415385768893,0.811268494105
    ));
#633 = CARTESIAN_POINT('',(0.532340918525,-0.415385768893,0.792067099715
    ));
#634 = CARTESIAN_POINT('',(0.478227338124,-0.415385768893,0.75238384358)
  );
#635 = CARTESIAN_POINT('',(0.41984090037,-0.415385768893,0.709567160971)
  );
#636 = CARTESIAN_POINT('',(0.389774756824,-0.415385768893,0.687232128557
    ));
#637 = CARTESIAN_POINT('',(0.359034003417,-0.415385768893,0.6637879191)
  );
#638 = CARTESIAN_POINT('',(0.327818961818,-0.415385768893,0.639009875481
    ));
#639 = CARTESIAN_POINT('',(0.296342744792,-0.415385768893,0.61263675848)
  );
#640 = CARTESIAN_POINT('',(0.264843486089,-0.415385768893,0.584364228385
    ));
#641 = CARTESIAN_POINT('',(0.233617181512,-0.415385768893,0.553851273401
    ));
#642 = CARTESIAN_POINT('',(0.1725187132,-0.415385768893,0.487684187759)
  );
#643 = CARTESIAN_POINT('',(0.1161382569,-0.415385768893,0.410266047225)
  );
#644 = CARTESIAN_POINT('',(8.962937284042E-02,-0.415385768893,
    0.368501889653));
#645 = CARTESIAN_POINT('',(6.540751681606E-02,-0.415385768893,
    0.323526807635));
#646 = CARTESIAN_POINT('',(4.414592527731E-02,-0.415385768893,
    0.275347713017));
#647 = CARTESIAN_POINT('',(2.660350067685E-02,-0.415385768893,
    0.22419651725));
#648 = CARTESIAN_POINT('',(1.329632661377E-02,-0.415385768893,
    0.170665365243));
#649 = CARTESIAN_POINT('',(4.416323646975E-03,-0.415385768893,
    0.115245898261));
#650 = CARTESIAN_POINT('',(1.219489842441E-09,-0.415385768893,
    5.829516741113E-02));
#651 = CARTESIAN_POINT('',(2.72587263872E-09,-0.415385768893,
    -2.567221888405E-07));
#652 = CARTESIAN_POINT('',(0.750000119661,8.491503249066E-16,
    1.099999029682));
#653 = CARTESIAN_POINT('',(0.750000118998,8.438550442249E-16,
    1.075794492775));
#654 = CARTESIAN_POINT('',(0.748166440094,8.387829043812E-16,
    1.054828594461));
#655 = CARTESIAN_POINT('',(0.744937064589,8.359419921115E-16,
    1.036628306445));
#656 = CARTESIAN_POINT('',(0.740666108302,8.299034922866E-16,
    1.020550120014));
#657 = CARTESIAN_POINT('',(0.735552276174,8.305545789253E-16,
    1.005815936297));
#658 = CARTESIAN_POINT('',(0.729470110691,8.224191919956E-16,
    0.991547152376));
#659 = CARTESIAN_POINT('',(0.722051334931,8.242795487606E-16,
    0.977225397876));
#660 = CARTESIAN_POINT('',(0.713013337595,8.170021184855E-16,
    0.962557302222));
#661 = CARTESIAN_POINT('',(0.691268781802,8.149620969285E-16,
    0.93226718545));
#662 = CARTESIAN_POINT('',(0.661742238851,8.002363551907E-16,
    0.899892677798));
#663 = CARTESIAN_POINT('',(0.644921662865,8.219346826134E-16,
    0.883140043565));
#664 = CARTESIAN_POINT('',(0.626030290832,7.485951264815E-16,
    0.865865733429));
#665 = CARTESIAN_POINT('',(0.605162751745,8.71358884072E-16,0.8481243009
    ));
#666 = CARTESIAN_POINT('',(0.582471536717,6.942456857831E-16,
    0.829933627461));
#667 = CARTESIAN_POINT('',(0.558134157893,8.738064765641E-16,
    0.811268494105));
#668 = CARTESIAN_POINT('',(0.532340918525,7.189074692509E-16,
    0.792067099715));
#669 = CARTESIAN_POINT('',(0.478227338124,8.886770709286E-16,
    0.75238384358));
#670 = CARTESIAN_POINT('',(0.41984090037,5.908996214188E-16,
    0.709567160971));
#671 = CARTESIAN_POINT('',(0.389774756824,9.138239835004E-16,
    0.687232128557));
#672 = CARTESIAN_POINT('',(0.359034003417,4.667015752241E-16,
    0.6637879191));
#673 = CARTESIAN_POINT('',(0.327818961818,8.976416073366E-16,
    0.639009875481));
#674 = CARTESIAN_POINT('',(0.296342744792,5.639569585543E-16,
    0.61263675848));
#675 = CARTESIAN_POINT('',(0.264843486089,7.402490474966E-16,
    0.584364228385));
#676 = CARTESIAN_POINT('',(0.233617181512,6.660864614587E-16,
    0.553851273401));
#677 = CARTESIAN_POINT('',(0.1725187132,6.714997081126E-16,
    0.487684187759));
#678 = CARTESIAN_POINT('',(0.1161382569,6.418102751028E-16,
    0.410266047225));
#679 = CARTESIAN_POINT('',(8.962937284045E-02,6.432613028974E-16,
    0.368501889653));
#680 = CARTESIAN_POINT('',(6.540751681598E-02,6.198295449488E-16,
    0.323526807635));
#681 = CARTESIAN_POINT('',(4.414592527743E-02,6.22381274444E-16,
    0.275347713017));
#682 = CARTESIAN_POINT('',(2.660350067672E-02,6.005595772017E-16,
    0.22419651725));
#683 = CARTESIAN_POINT('',(1.329632661387E-02,5.952577734881E-16,
    0.170665365243));
#684 = CARTESIAN_POINT('',(4.416323646927E-03,5.797502221963E-16,
    0.115245898261));
#685 = CARTESIAN_POINT('',(1.219502498984E-09,5.68216363448E-16,
    5.829516741114E-02));
#686 = CARTESIAN_POINT('',(2.725872194631E-09,5.550608974034E-16,
    -2.567221888405E-07));
#687 = ADVANCED_FACE('',(#688),#707,.T.);
#688 = FACE_BOUND('',#689,.T.);
#689 = EDGE_LOOP('',(#690,#698,#705,#706));
#690 = ORIENTED_EDGE('',*,*,#691,.T.);
#691 = EDGE_CURVE('',#391,#692,#694,.T.);
#692 = VERTEX_POINT('',#693);
#693 = CARTESIAN_POINT('',(2.725871084408E-09,0.,-3.000000660802));
#694 = LINE('',#695,#696);
#695 = CARTESIAN_POINT('',(2.725871306453E-09,5.856770722878E-16,
    -2.346288354715E-07));
#696 = VECTOR('',#697,1.);
#697 = DIRECTION('',(0.,-2.22044604925E-16,-1.));
#698 = ORIENTED_EDGE('',*,*,#699,.F.);
#699 = EDGE_CURVE('',#692,#692,#700,.T.);
#700 = CIRCLE('',#701,0.25);
#701 = AXIS2_PLACEMENT_3D('',#702,#703,#704);
#702 = CARTESIAN_POINT('',(0.250000002726,-1.463986654458E-22,
    -3.000000660802));
#703 = DIRECTION('',(8.837341451453E-08,-4.440891922318E-16,-1.));
#704 = DIRECTION('',(-1.,-3.218267824953E-16,-8.837341451453E-08));
#705 = ORIENTED_EDGE('',*,*,#691,.F.);
#706 = ORIENTED_EDGE('',*,*,#430,.T.);
#707 = CYLINDRICAL_SURFACE('',#708,0.25);
#708 = AXIS2_PLACEMENT_3D('',#709,#710,#711);
#709 = CARTESIAN_POINT('',(0.250000002726,6.661337630059E-16,
    -2.346288354715E-07));
#710 = DIRECTION('',(0.,-2.22044604925E-16,-1.));
#711 = DIRECTION('',(-1.,-3.218267628725E-16,7.145989641632E-32));
#712 = ADVANCED_FACE('',(#713),#716,.T.);
#713 = FACE_BOUND('',#714,.T.);
#714 = EDGE_LOOP('',(#715));
#715 = ORIENTED_EDGE('',*,*,#699,.T.);
#716 = PLANE('',#717);
#717 = AXIS2_PLACEMENT_3D('',#718,#719,#720);
#718 = CARTESIAN_POINT('',(0.250000002726,8.434514443082E-18,
    -3.000000660802));
#719 = DIRECTION('',(8.837341451453E-08,-4.440891629223E-16,-1.));
#720 = DIRECTION('',(-1.,2.230374150955E-38,-8.837341451453E-08));
#721 = ( GEOMETRIC_REPRESENTATION_CONTEXT(3) 
GLOBAL_UNCERTAINTY_ASSIGNED_CONTEXT((#725)) GLOBAL_UNIT_ASSIGNED_CONTEXT
((#722,#723,#724)) REPRESENTATION_CONTEXT('Context #1',
  '3D Context with UNIT and UNCERTAINTY') );
#722 = ( LENGTH_UNIT() NAMED_UNIT(*) SI_UNIT(.MILLI.,.METRE.) );
#723 = ( NAMED_UNIT(*) PLANE_ANGLE_UNIT() SI_UNIT($,.RADIAN.) );
#724 = ( NAMED_UNIT(*) SI_UNIT($,.STERADIAN.) SOLID_ANGLE_UNIT() );
#725 = UNCERTAINTY_MEASURE_WITH_UNIT(LENGTH_MEASURE(1.E-07),#722,
  'distance_accuracy_value','confusion accuracy');
#726 = PRODUCT_RELATED_PRODUCT_CATEGORY('part',$,(#7));
ENDSEC;
END-ISO-10303-21;
