<svg xmlns="http://www.w3.org/2000/svg" width="868" height="1197" viewBox="0 0 868 1197" font-family="IBM Plex Mono, Menlo, monospace"><rect width="100%" height="100%" fill="#ffffff"/><rect x="10" y="10" width="172" height="652" fill="#fbfaf7" stroke="#1a1a1a" stroke-width="1.2"/><text x="16" y="26" font-size="12" font-weight="700" fill="#1a1a1a">J1</text><text x="16" y="40" font-size="9.5" fill="#565656">40-pin GPIO</text><line x1="10" y1="46" x2="182" y2="46" stroke="#d7d3ca" stroke-width="1"/><line x1="1" y1="60" x2="10" y2="60" stroke="#243b53" stroke-width="1.2"/><text x="15" y="64" font-size="9" fill="#1a1a1a">1</text><text x="178" y="64" font-size="9" text-anchor="end" fill="#243b53">HAT_3V3</text><line x1="1" y1="75" x2="10" y2="75" stroke="#243b53" stroke-width="1.2"/><text x="15" y="78" font-size="9" fill="#1a1a1a">3</text><text x="178" y="78" font-size="9" text-anchor="end" fill="#243b53">i2c3/SDA</text><line x1="1" y1="90" x2="10" y2="90" stroke="#243b53" stroke-width="1.2"/><text x="15" y="94" font-size="9" fill="#1a1a1a">5</text><text x="178" y="94" font-size="9" text-anchor="end" fill="#243b53">i2c3/SCL</text><line x1="1" y1="105" x2="10" y2="105" stroke="#8a5a00" stroke-width="1.2"/><text x="15" y="108" font-size="9" fill="#1a1a1a">7</text><text x="178" y="108" font-size="9" text-anchor="end" fill="#8a5a00">NC</text><line x1="1" y1="120" x2="10" y2="120" stroke="#243b53" stroke-width="1.2"/><text x="15" y="124" font-size="9" fill="#1a1a1a">9</text><text x="178" y="124" font-size="9" text-anchor="end" fill="#243b53">GND</text><line x1="1" y1="135" x2="10" y2="135" stroke="#8a5a00" stroke-width="1.2"/><text x="15" y="138" font-size="9" fill="#1a1a1a">11</text><text x="178" y="138" font-size="9" text-anchor="end" fill="#8a5a00">NC</text><line x1="1" y1="150" x2="10" y2="150" stroke="#243b53" stroke-width="1.2"/><text x="15" y="154" font-size="9" fill="#1a1a1a">13</text><text x="178" y="154" font-size="9" text-anchor="end" fill="#243b53">i2s3/MCLK</text><line x1="1" y1="165" x2="10" y2="165" stroke="#8a5a00" stroke-width="1.2"/><text x="15" y="168" font-size="9" fill="#1a1a1a">15</text><text x="178" y="168" font-size="9" text-anchor="end" fill="#8a5a00">NC</text><line x1="1" y1="180" x2="10" y2="180" stroke="#243b53" stroke-width="1.2"/><text x="15" y="184" font-size="9" fill="#1a1a1a">17</text><text x="178" y="184" font-size="9" text-anchor="end" fill="#243b53">J5_3V3</text><line x1="1" y1="195" x2="10" y2="195" stroke="#8a5a00" stroke-width="1.2"/><text x="15" y="198" font-size="9" fill="#1a1a1a">19</text><text x="178" y="198" font-size="9" text-anchor="end" fill="#8a5a00">NC</text><line x1="1" y1="210" x2="10" y2="210" stroke="#8a5a00" stroke-width="1.2"/><text x="15" y="214" font-size="9" fill="#1a1a1a">21</text><text x="178" y="214" font-size="9" text-anchor="end" fill="#8a5a00">NC</text><line x1="1" y1="225" x2="10" y2="225" stroke="#8a5a00" stroke-width="1.2"/><text x="15" y="228" font-size="9" fill="#1a1a1a">23</text><text x="178" y="228" font-size="9" text-anchor="end" fill="#8a5a00">NC</text><line x1="1" y1="240" x2="10" y2="240" stroke="#243b53" stroke-width="1.2"/><text x="15" y="244" font-size="9" fill="#1a1a1a">25</text><text x="178" y="244" font-size="9" text-anchor="end" fill="#243b53">GND</text><line x1="1" y1="255" x2="10" y2="255" stroke="#8a5a00" stroke-width="1.2"/><text x="15" y="258" font-size="9" fill="#1a1a1a">27</text><text x="178" y="258" font-size="9" text-anchor="end" fill="#8a5a00">NC</text><line x1="1" y1="270" x2="10" y2="270" stroke="#8a5a00" stroke-width="1.2"/><text x="15" y="274" font-size="9" fill="#1a1a1a">29</text><text x="178" y="274" font-size="9" text-anchor="end" fill="#8a5a00">NC</text><line x1="1" y1="285" x2="10" y2="285" stroke="#8a5a00" stroke-width="1.2"/><text x="15" y="288" font-size="9" fill="#1a1a1a">31</text><text x="178" y="288" font-size="9" text-anchor="end" fill="#8a5a00">NC</text><line x1="1" y1="300" x2="10" y2="300" stroke="#8a5a00" stroke-width="1.2"/><text x="15" y="304" font-size="9" fill="#1a1a1a">33</text><text x="178" y="304" font-size="9" text-anchor="end" fill="#8a5a00">NC</text><line x1="1" y1="315" x2="10" y2="315" stroke="#243b53" stroke-width="1.2"/><text x="15" y="318" font-size="9" fill="#1a1a1a">35</text><text x="178" y="318" font-size="9" text-anchor="end" fill="#243b53">i2s3/WCLK</text><line x1="1" y1="330" x2="10" y2="330" stroke="#8a5a00" stroke-width="1.2"/><text x="15" y="334" font-size="9" fill="#1a1a1a">37</text><text x="178" y="334" font-size="9" text-anchor="end" fill="#8a5a00">NC</text><line x1="1" y1="345" x2="10" y2="345" stroke="#243b53" stroke-width="1.2"/><text x="15" y="348" font-size="9" fill="#1a1a1a">39</text><text x="178" y="348" font-size="9" text-anchor="end" fill="#243b53">GND</text><line x1="1" y1="360" x2="10" y2="360" stroke="#243b53" stroke-width="1.2"/><text x="15" y="364" font-size="9" fill="#1a1a1a">2</text><text x="178" y="364" font-size="9" text-anchor="end" fill="#243b53">V5_HAT</text><line x1="1" y1="375" x2="10" y2="375" stroke="#243b53" stroke-width="1.2"/><text x="15" y="378" font-size="9" fill="#1a1a1a">4</text><text x="178" y="378" font-size="9" text-anchor="end" fill="#243b53">V5_HAT</text><line x1="1" y1="390" x2="10" y2="390" stroke="#243b53" stroke-width="1.2"/><text x="15" y="394" font-size="9" fill="#1a1a1a">6</text><text x="178" y="394" font-size="9" text-anchor="end" fill="#243b53">GND</text><line x1="1" y1="405" x2="10" y2="405" stroke="#243b53" stroke-width="1.2"/><text x="15" y="408" font-size="9" fill="#1a1a1a">8</text><text x="178" y="408" font-size="9" text-anchor="end" fill="#243b53">uart2/TX</text><line x1="1" y1="420" x2="10" y2="420" stroke="#243b53" stroke-width="1.2"/><text x="15" y="424" font-size="9" fill="#1a1a1a">10</text><text x="178" y="424" font-size="9" text-anchor="end" fill="#243b53">uart2/RX</text><line x1="1" y1="435" x2="10" y2="435" stroke="#243b53" stroke-width="1.2"/><text x="15" y="438" font-size="9" fill="#1a1a1a">12</text><text x="178" y="438" font-size="9" text-anchor="end" fill="#243b53">i2s3/BCLK</text><line x1="1" y1="450" x2="10" y2="450" stroke="#243b53" stroke-width="1.2"/><text x="15" y="454" font-size="9" fill="#1a1a1a">14</text><text x="178" y="454" font-size="9" text-anchor="end" fill="#243b53">GND</text><line x1="1" y1="465" x2="10" y2="465" stroke="#8a5a00" stroke-width="1.2"/><text x="15" y="468" font-size="9" fill="#1a1a1a">16</text><text x="178" y="468" font-size="9" text-anchor="end" fill="#8a5a00">NC</text><line x1="1" y1="480" x2="10" y2="480" stroke="#8a5a00" stroke-width="1.2"/><text x="15" y="484" font-size="9" fill="#1a1a1a">18</text><text x="178" y="484" font-size="9" text-anchor="end" fill="#8a5a00">NC</text><line x1="1" y1="495" x2="10" y2="495" stroke="#243b53" stroke-width="1.2"/><text x="15" y="498" font-size="9" fill="#1a1a1a">20</text><text x="178" y="498" font-size="9" text-anchor="end" fill="#243b53">GND</text><line x1="1" y1="510" x2="10" y2="510" stroke="#8a5a00" stroke-width="1.2"/><text x="15" y="514" font-size="9" fill="#1a1a1a">22</text><text x="178" y="514" font-size="9" text-anchor="end" fill="#8a5a00">NC</text><line x1="1" y1="525" x2="10" y2="525" stroke="#8a5a00" stroke-width="1.2"/><text x="15" y="528" font-size="9" fill="#1a1a1a">24</text><text x="178" y="528" font-size="9" text-anchor="end" fill="#8a5a00">NC</text><line x1="1" y1="540" x2="10" y2="540" stroke="#8a5a00" stroke-width="1.2"/><text x="15" y="544" font-size="9" fill="#1a1a1a">26</text><text x="178" y="544" font-size="9" text-anchor="end" fill="#8a5a00">NC</text><line x1="1" y1="555" x2="10" y2="555" stroke="#8a5a00" stroke-width="1.2"/><text x="15" y="558" font-size="9" fill="#1a1a1a">28</text><text x="178" y="558" font-size="9" text-anchor="end" fill="#8a5a00">NC</text><line x1="1" y1="570" x2="10" y2="570" stroke="#243b53" stroke-width="1.2"/><text x="15" y="574" font-size="9" fill="#1a1a1a">30</text><text x="178" y="574" font-size="9" text-anchor="end" fill="#243b53">GND</text><line x1="1" y1="585" x2="10" y2="585" stroke="#8a5a00" stroke-width="1.2"/><text x="15" y="588" font-size="9" fill="#1a1a1a">32</text><text x="178" y="588" font-size="9" text-anchor="end" fill="#8a5a00">NC</text><line x1="1" y1="600" x2="10" y2="600" stroke="#243b53" stroke-width="1.2"/><text x="15" y="604" font-size="9" fill="#1a1a1a">34</text><text x="178" y="604" font-size="9" text-anchor="end" fill="#243b53">GND</text><line x1="1" y1="615" x2="10" y2="615" stroke="#8a5a00" stroke-width="1.2"/><text x="15" y="618" font-size="9" fill="#1a1a1a">36</text><text x="178" y="618" font-size="9" text-anchor="end" fill="#8a5a00">NC</text><line x1="1" y1="630" x2="10" y2="630" stroke="#243b53" stroke-width="1.2"/><text x="15" y="634" font-size="9" fill="#1a1a1a">38</text><text x="178" y="634" font-size="9" text-anchor="end" fill="#243b53">i2s3/DOUT</text><line x1="1" y1="645" x2="10" y2="645" stroke="#243b53" stroke-width="1.2"/><text x="15" y="648" font-size="9" fill="#1a1a1a">40</text><text x="178" y="648" font-size="9" text-anchor="end" fill="#243b53">i2s3/DIN</text><rect x="222" y="10" width="172" height="607" fill="#fbfaf7" stroke="#1a1a1a" stroke-width="1.2"/><text x="228" y="26" font-size="12" font-weight="700" fill="#1a1a1a">U1</text><text x="228" y="40" font-size="9.5" fill="#565656">TLV320AIC3104</text><line x1="222" y1="46" x2="394" y2="46" stroke="#d7d3ca" stroke-width="1"/><line x1="213" y1="60" x2="222" y2="60" stroke="#243b53" stroke-width="1.2"/><text x="227" y="64" font-size="9" fill="#1a1a1a">1</text><text x="390" y="64" font-size="9" text-anchor="end" fill="#243b53">i2s3/MCLK</text><line x1="213" y1="75" x2="222" y2="75" stroke="#243b53" stroke-width="1.2"/><text x="227" y="78" font-size="9" fill="#1a1a1a">2</text><text x="390" y="78" font-size="9" text-anchor="end" fill="#243b53">i2s3/BCLK</text><line x1="213" y1="90" x2="222" y2="90" stroke="#243b53" stroke-width="1.2"/><text x="227" y="94" font-size="9" fill="#1a1a1a">3</text><text x="390" y="94" font-size="9" text-anchor="end" fill="#243b53">i2s3/WCLK</text><line x1="213" y1="105" x2="222" y2="105" stroke="#243b53" stroke-width="1.2"/><text x="227" y="108" font-size="9" fill="#1a1a1a">4</text><text x="390" y="108" font-size="9" text-anchor="end" fill="#243b53">i2s3/DIN</text><line x1="213" y1="120" x2="222" y2="120" stroke="#243b53" stroke-width="1.2"/><text x="227" y="124" font-size="9" fill="#1a1a1a">5</text><text x="390" y="124" font-size="9" text-anchor="end" fill="#243b53">i2s3/DOUT</text><line x1="213" y1="135" x2="222" y2="135" stroke="#243b53" stroke-width="1.2"/><text x="227" y="138" font-size="9" fill="#1a1a1a">6</text><text x="390" y="138" font-size="9" text-anchor="end" fill="#243b53">GND</text><line x1="213" y1="150" x2="222" y2="150" stroke="#243b53" stroke-width="1.2"/><text x="227" y="154" font-size="9" fill="#1a1a1a">7</text><text x="390" y="154" font-size="9" text-anchor="end" fill="#243b53">HAT_3V3</text><line x1="213" y1="165" x2="222" y2="165" stroke="#243b53" stroke-width="1.2"/><text x="227" y="168" font-size="9" fill="#1a1a1a">8</text><text x="390" y="168" font-size="9" text-anchor="end" fill="#243b53">i2c3/SCL</text><line x1="213" y1="180" x2="222" y2="180" stroke="#243b53" stroke-width="1.2"/><text x="227" y="184" font-size="9" fill="#1a1a1a">9</text><text x="390" y="184" font-size="9" text-anchor="end" fill="#243b53">i2c3/SDA</text><line x1="213" y1="195" x2="222" y2="195" stroke="#8a5a00" stroke-width="1.2"/><text x="227" y="198" font-size="9" fill="#1a1a1a">10</text><text x="390" y="198" font-size="9" text-anchor="end" fill="#8a5a00">NC</text><line x1="213" y1="210" x2="222" y2="210" stroke="#8a5a00" stroke-width="1.2"/><text x="227" y="214" font-size="9" fill="#1a1a1a">11</text><text x="390" y="214" font-size="9" text-anchor="end" fill="#8a5a00">NC</text><line x1="213" y1="225" x2="222" y2="225" stroke="#8a5a00" stroke-width="1.2"/><text x="227" y="228" font-size="9" fill="#1a1a1a">12</text><text x="390" y="228" font-size="9" text-anchor="end" fill="#8a5a00">NC</text><line x1="213" y1="240" x2="222" y2="240" stroke="#8a5a00" stroke-width="1.2"/><text x="227" y="244" font-size="9" fill="#1a1a1a">13</text><text x="390" y="244" font-size="9" text-anchor="end" fill="#8a5a00">NC</text><line x1="213" y1="255" x2="222" y2="255" stroke="#8a5a00" stroke-width="1.2"/><text x="227" y="258" font-size="9" fill="#1a1a1a">14</text><text x="390" y="258" font-size="9" text-anchor="end" fill="#8a5a00">NC</text><line x1="213" y1="270" x2="222" y2="270" stroke="#243b53" stroke-width="1.2"/><text x="227" y="274" font-size="9" fill="#1a1a1a">15</text><text x="390" y="274" font-size="9" text-anchor="end" fill="#243b53">MICBIAS</text><line x1="213" y1="285" x2="222" y2="285" stroke="#243b53" stroke-width="1.2"/><text x="227" y="288" font-size="9" fill="#1a1a1a">16</text><text x="390" y="288" font-size="9" text-anchor="end" fill="#243b53">MIC_IN</text><line x1="213" y1="300" x2="222" y2="300" stroke="#243b53" stroke-width="1.2"/><text x="227" y="304" font-size="9" fill="#1a1a1a">17</text><text x="390" y="304" font-size="9" text-anchor="end" fill="#243b53">GND</text><line x1="213" y1="315" x2="222" y2="315" stroke="#243b53" stroke-width="1.2"/><text x="227" y="318" font-size="9" fill="#1a1a1a">18</text><text x="390" y="318" font-size="9" text-anchor="end" fill="#243b53">HAT_3V3</text><line x1="213" y1="330" x2="222" y2="330" stroke="#243b53" stroke-width="1.2"/><text x="227" y="334" font-size="9" fill="#1a1a1a">19</text><text x="390" y="334" font-size="9" text-anchor="end" fill="#243b53">SPK_P</text><line x1="213" y1="345" x2="222" y2="345" stroke="#243b53" stroke-width="1.2"/><text x="227" y="348" font-size="9" fill="#1a1a1a">20</text><text x="390" y="348" font-size="9" text-anchor="end" fill="#243b53">SPK_N</text><line x1="213" y1="360" x2="222" y2="360" stroke="#243b53" stroke-width="1.2"/><text x="227" y="364" font-size="9" fill="#1a1a1a">21</text><text x="390" y="364" font-size="9" text-anchor="end" fill="#243b53">GND</text><line x1="213" y1="375" x2="222" y2="375" stroke="#8a5a00" stroke-width="1.2"/><text x="227" y="378" font-size="9" fill="#1a1a1a">22</text><text x="390" y="378" font-size="9" text-anchor="end" fill="#8a5a00">NC</text><line x1="213" y1="390" x2="222" y2="390" stroke="#8a5a00" stroke-width="1.2"/><text x="227" y="394" font-size="9" fill="#1a1a1a">23</text><text x="390" y="394" font-size="9" text-anchor="end" fill="#8a5a00">NC</text><line x1="213" y1="405" x2="222" y2="405" stroke="#243b53" stroke-width="1.2"/><text x="227" y="408" font-size="9" fill="#1a1a1a">24</text><text x="390" y="408" font-size="9" text-anchor="end" fill="#243b53">HAT_3V3</text><line x1="213" y1="420" x2="222" y2="420" stroke="#243b53" stroke-width="1.2"/><text x="227" y="424" font-size="9" fill="#1a1a1a">25</text><text x="390" y="424" font-size="9" text-anchor="end" fill="#243b53">HAT_3V3</text><line x1="213" y1="435" x2="222" y2="435" stroke="#243b53" stroke-width="1.2"/><text x="227" y="438" font-size="9" fill="#1a1a1a">26</text><text x="390" y="438" font-size="9" text-anchor="end" fill="#243b53">GND</text><line x1="213" y1="450" x2="222" y2="450" stroke="#8a5a00" stroke-width="1.2"/><text x="227" y="454" font-size="9" fill="#1a1a1a">27</text><text x="390" y="454" font-size="9" text-anchor="end" fill="#8a5a00">NC</text><line x1="213" y1="465" x2="222" y2="465" stroke="#8a5a00" stroke-width="1.2"/><text x="227" y="468" font-size="9" fill="#1a1a1a">28</text><text x="390" y="468" font-size="9" text-anchor="end" fill="#8a5a00">NC</text><line x1="213" y1="480" x2="222" y2="480" stroke="#8a5a00" stroke-width="1.2"/><text x="227" y="484" font-size="9" fill="#1a1a1a">29</text><text x="390" y="484" font-size="9" text-anchor="end" fill="#8a5a00">NC</text><line x1="213" y1="495" x2="222" y2="495" stroke="#8a5a00" stroke-width="1.2"/><text x="227" y="498" font-size="9" fill="#1a1a1a">30</text><text x="390" y="498" font-size="9" text-anchor="end" fill="#8a5a00">NC</text><line x1="213" y1="510" x2="222" y2="510" stroke="#243b53" stroke-width="1.2"/><text x="227" y="514" font-size="9" fill="#1a1a1a">31</text><text x="390" y="514" font-size="9" text-anchor="end" fill="#243b53">HAT_3V3</text><line x1="213" y1="525" x2="222" y2="525" stroke="#243b53" stroke-width="1.2"/><text x="227" y="528" font-size="9" fill="#1a1a1a">32</text><text x="390" y="528" font-size="9" text-anchor="end" fill="#243b53">HAT_1V8</text><line x1="213" y1="540" x2="222" y2="540" stroke="#243b53" stroke-width="1.2"/><text x="227" y="544" font-size="9" fill="#1a1a1a">EP</text><text x="390" y="544" font-size="9" text-anchor="end" fill="#243b53">GND</text><line x1="213" y1="555" x2="222" y2="555" stroke="#243b53" stroke-width="1.2"/><text x="227" y="558" font-size="9" fill="#1a1a1a">EP</text><text x="390" y="558" font-size="9" text-anchor="end" fill="#243b53">GND</text><line x1="213" y1="570" x2="222" y2="570" stroke="#243b53" stroke-width="1.2"/><text x="227" y="574" font-size="9" fill="#1a1a1a">EP</text><text x="390" y="574" font-size="9" text-anchor="end" fill="#243b53">GND</text><line x1="213" y1="585" x2="222" y2="585" stroke="#243b53" stroke-width="1.2"/><text x="227" y="588" font-size="9" fill="#1a1a1a">EP</text><text x="390" y="588" font-size="9" text-anchor="end" fill="#243b53">GND</text><line x1="213" y1="600" x2="222" y2="600" stroke="#243b53" stroke-width="1.2"/><text x="227" y="604" font-size="9" fill="#1a1a1a">EP</text><text x="390" y="604" font-size="9" text-anchor="end" fill="#243b53">GND</text><rect x="646" y="10" width="172" height="142" fill="#fbfaf7" stroke="#1a1a1a" stroke-width="1.2"/><text x="652" y="26" font-size="12" font-weight="700" fill="#1a1a1a">U2</text><text x="652" y="40" font-size="9.5" fill="#565656">Pololu D30V30F5</text><line x1="646" y1="46" x2="818" y2="46" stroke="#d7d3ca" stroke-width="1"/><line x1="637" y1="60" x2="646" y2="60" stroke="#243b53" stroke-width="1.2"/><text x="651" y="64" font-size="9" fill="#1a1a1a">VOUT</text><text x="814" y="64" font-size="9" text-anchor="end" fill="#243b53">V5_HAT</text><line x1="637" y1="75" x2="646" y2="75" stroke="#243b53" stroke-width="1.2"/><text x="651" y="78" font-size="9" fill="#1a1a1a">GND2</text><text x="814" y="78" font-size="9" text-anchor="end" fill="#243b53">GND</text><line x1="637" y1="90" x2="646" y2="90" stroke="#243b53" stroke-width="1.2"/><text x="651" y="94" font-size="9" fill="#1a1a1a">GND1</text><text x="814" y="94" font-size="9" text-anchor="end" fill="#243b53">GND</text><line x1="637" y1="105" x2="646" y2="105" stroke="#243b53" stroke-width="1.2"/><text x="651" y="108" font-size="9" fill="#1a1a1a">VIN</text><text x="814" y="108" font-size="9" text-anchor="end" fill="#243b53">VBAT</text><line x1="637" y1="120" x2="646" y2="120" stroke="#8a5a00" stroke-width="1.2"/><text x="651" y="124" font-size="9" fill="#1a1a1a">EN</text><text x="814" y="124" font-size="9" text-anchor="end" fill="#8a5a00">NC</text><line x1="637" y1="135" x2="646" y2="135" stroke="#8a5a00" stroke-width="1.2"/><text x="651" y="138" font-size="9" fill="#1a1a1a">PG</text><text x="814" y="138" font-size="9" text-anchor="end" fill="#8a5a00">NC</text><rect x="434" y="10" width="172" height="292" fill="#fbfaf7" stroke="#1a1a1a" stroke-width="1.2"/><text x="440" y="26" font-size="12" font-weight="700" fill="#1a1a1a">U3</text><text x="440" y="40" font-size="9.5" fill="#565656">BMI088 (dormant)</text><line x1="434" y1="46" x2="606" y2="46" stroke="#d7d3ca" stroke-width="1"/><line x1="425" y1="60" x2="434" y2="60" stroke="#8a5a00" stroke-width="1.2"/><text x="439" y="64" font-size="9" fill="#1a1a1a">1</text><text x="602" y="64" font-size="9" text-anchor="end" fill="#8a5a00">NC</text><line x1="425" y1="75" x2="434" y2="75" stroke="#243b53" stroke-width="1.2"/><text x="439" y="78" font-size="9" fill="#1a1a1a">2</text><text x="602" y="78" font-size="9" text-anchor="end" fill="#243b53">GND</text><line x1="425" y1="90" x2="434" y2="90" stroke="#243b53" stroke-width="1.2"/><text x="439" y="94" font-size="9" fill="#1a1a1a">3</text><text x="602" y="94" font-size="9" text-anchor="end" fill="#243b53">HAT_3V3</text><line x1="425" y1="105" x2="434" y2="105" stroke="#243b53" stroke-width="1.2"/><text x="439" y="108" font-size="9" fill="#1a1a1a">4</text><text x="602" y="108" font-size="9" text-anchor="end" fill="#243b53">GND</text><line x1="425" y1="120" x2="434" y2="120" stroke="#8a5a00" stroke-width="1.2"/><text x="439" y="124" font-size="9" fill="#1a1a1a">5</text><text x="602" y="124" font-size="9" text-anchor="end" fill="#8a5a00">NC</text><line x1="425" y1="135" x2="434" y2="135" stroke="#243b53" stroke-width="1.2"/><text x="439" y="138" font-size="9" fill="#1a1a1a">6</text><text x="602" y="138" font-size="9" text-anchor="end" fill="#243b53">GND</text><line x1="425" y1="150" x2="434" y2="150" stroke="#243b53" stroke-width="1.2"/><text x="439" y="154" font-size="9" fill="#1a1a1a">7</text><text x="602" y="154" font-size="9" text-anchor="end" fill="#243b53">HAT_3V3</text><line x1="425" y1="165" x2="434" y2="165" stroke="#243b53" stroke-width="1.2"/><text x="439" y="168" font-size="9" fill="#1a1a1a">8</text><text x="602" y="168" font-size="9" text-anchor="end" fill="#243b53">i2c3/SCL</text><line x1="425" y1="180" x2="434" y2="180" stroke="#243b53" stroke-width="1.2"/><text x="439" y="184" font-size="9" fill="#1a1a1a">9</text><text x="602" y="184" font-size="9" text-anchor="end" fill="#243b53">i2c3/SDA</text><line x1="425" y1="195" x2="434" y2="195" stroke="#243b53" stroke-width="1.2"/><text x="439" y="198" font-size="9" fill="#1a1a1a">10</text><text x="602" y="198" font-size="9" text-anchor="end" fill="#243b53">GND</text><line x1="425" y1="210" x2="434" y2="210" stroke="#243b53" stroke-width="1.2"/><text x="439" y="214" font-size="9" fill="#1a1a1a">11</text><text x="602" y="214" font-size="9" text-anchor="end" fill="#243b53">HAT_3V3</text><line x1="425" y1="225" x2="434" y2="225" stroke="#8a5a00" stroke-width="1.2"/><text x="439" y="228" font-size="9" fill="#1a1a1a">12</text><text x="602" y="228" font-size="9" text-anchor="end" fill="#8a5a00">NC</text><line x1="425" y1="240" x2="434" y2="240" stroke="#8a5a00" stroke-width="1.2"/><text x="439" y="244" font-size="9" fill="#1a1a1a">13</text><text x="602" y="244" font-size="9" text-anchor="end" fill="#8a5a00">NC</text><line x1="425" y1="255" x2="434" y2="255" stroke="#243b53" stroke-width="1.2"/><text x="439" y="258" font-size="9" fill="#1a1a1a">14</text><text x="602" y="258" font-size="9" text-anchor="end" fill="#243b53">HAT_3V3</text><line x1="425" y1="270" x2="434" y2="270" stroke="#243b53" stroke-width="1.2"/><text x="439" y="274" font-size="9" fill="#1a1a1a">15</text><text x="602" y="274" font-size="9" text-anchor="end" fill="#243b53">GND</text><line x1="425" y1="285" x2="434" y2="285" stroke="#8a5a00" stroke-width="1.2"/><text x="439" y="288" font-size="9" fill="#1a1a1a">16</text><text x="602" y="288" font-size="9" text-anchor="end" fill="#8a5a00">NC</text><rect x="434" y="332" width="172" height="127" fill="#fbfaf7" stroke="#1a1a1a" stroke-width="1.2"/><text x="440" y="348" font-size="12" font-weight="700" fill="#1a1a1a">U4</text><text x="440" y="362" font-size="9.5" fill="#565656">74LVC1G125</text><line x1="434" y1="368" x2="606" y2="368" stroke="#d7d3ca" stroke-width="1"/><line x1="425" y1="382" x2="434" y2="382" stroke="#243b53" stroke-width="1.2"/><text x="439" y="386" font-size="9" fill="#1a1a1a">1</text><text x="602" y="386" font-size="9" text-anchor="end" fill="#243b53">uart2/TX</text><line x1="425" y1="397" x2="434" y2="397" stroke="#243b53" stroke-width="1.2"/><text x="439" y="400" font-size="9" fill="#1a1a1a">2</text><text x="602" y="400" font-size="9" text-anchor="end" fill="#243b53">GND</text><line x1="425" y1="412" x2="434" y2="412" stroke="#243b53" stroke-width="1.2"/><text x="439" y="416" font-size="9" fill="#1a1a1a">3</text><text x="602" y="416" font-size="9" text-anchor="end" fill="#243b53">GND</text><line x1="425" y1="427" x2="434" y2="427" stroke="#243b53" stroke-width="1.2"/><text x="439" y="430" font-size="9" fill="#1a1a1a">4</text><text x="602" y="430" font-size="9" text-anchor="end" fill="#243b53">dxl/DATA</text><line x1="425" y1="442" x2="434" y2="442" stroke="#243b53" stroke-width="1.2"/><text x="439" y="446" font-size="9" fill="#1a1a1a">5</text><text x="602" y="446" font-size="9" text-anchor="end" fill="#243b53">HAT_3V3</text><rect x="434" y="489" width="172" height="82" fill="#fbfaf7" stroke="#1a1a1a" stroke-width="1.2"/><text x="440" y="505" font-size="12" font-weight="700" fill="#1a1a1a">J2</text><text x="440" y="519" font-size="9.5" fill="#565656">VBAT in (B2B-XH-A)</text><line x1="434" y1="525" x2="606" y2="525" stroke="#d7d3ca" stroke-width="1"/><line x1="425" y1="539" x2="434" y2="539" stroke="#243b53" stroke-width="1.2"/><text x="439" y="542" font-size="9" fill="#1a1a1a">1</text><text x="602" y="542" font-size="9" text-anchor="end" fill="#243b53">VBAT</text><line x1="425" y1="554" x2="434" y2="554" stroke="#243b53" stroke-width="1.2"/><text x="439" y="558" font-size="9" fill="#1a1a1a">2</text><text x="602" y="558" font-size="9" text-anchor="end" fill="#243b53">GND</text><rect x="646" y="354" width="172" height="97" fill="#fbfaf7" stroke="#1a1a1a" stroke-width="1.2"/><text x="652" y="370" font-size="12" font-weight="700" fill="#1a1a1a">J3</text><text x="652" y="384" font-size="9.5" fill="#565656">DXL bus (B3B-EH-A)</text><line x1="646" y1="390" x2="818" y2="390" stroke="#d7d3ca" stroke-width="1"/><line x1="637" y1="404" x2="646" y2="404" stroke="#243b53" stroke-width="1.2"/><text x="651" y="408" font-size="9" fill="#1a1a1a">1</text><text x="814" y="408" font-size="9" text-anchor="end" fill="#243b53">GND</text><line x1="637" y1="419" x2="646" y2="419" stroke="#243b53" stroke-width="1.2"/><text x="651" y="422" font-size="9" fill="#1a1a1a">2</text><text x="814" y="422" font-size="9" text-anchor="end" fill="#243b53">SERVO_V</text><line x1="637" y1="434" x2="646" y2="434" stroke="#243b53" stroke-width="1.2"/><text x="651" y="438" font-size="9" fill="#1a1a1a">3</text><text x="814" y="438" font-size="9" text-anchor="end" fill="#243b53">dxl/DATA</text><rect x="646" y="182" width="172" height="142" fill="#fbfaf7" stroke="#1a1a1a" stroke-width="1.2"/><text x="652" y="198" font-size="12" font-weight="700" fill="#1a1a1a">J5</text><text x="652" y="212" font-size="9.5" fill="#565656">Stemma J5 (SM04B-SRSS-TB)</text><line x1="646" y1="218" x2="818" y2="218" stroke="#d7d3ca" stroke-width="1"/><line x1="637" y1="232" x2="646" y2="232" stroke="#243b53" stroke-width="1.2"/><text x="651" y="236" font-size="9" fill="#1a1a1a">1</text><text x="814" y="236" font-size="9" text-anchor="end" fill="#243b53">GND</text><line x1="637" y1="247" x2="646" y2="247" stroke="#243b53" stroke-width="1.2"/><text x="651" y="250" font-size="9" fill="#1a1a1a">2</text><text x="814" y="250" font-size="9" text-anchor="end" fill="#243b53">J5_3V3</text><line x1="637" y1="262" x2="646" y2="262" stroke="#243b53" stroke-width="1.2"/><text x="651" y="266" font-size="9" fill="#1a1a1a">3</text><text x="814" y="266" font-size="9" text-anchor="end" fill="#243b53">i2c3/SDA</text><line x1="637" y1="277" x2="646" y2="277" stroke="#243b53" stroke-width="1.2"/><text x="651" y="280" font-size="9" fill="#1a1a1a">4</text><text x="814" y="280" font-size="9" text-anchor="end" fill="#243b53">i2c3/SCL</text><line x1="637" y1="292" x2="646" y2="292" stroke="#8a5a00" stroke-width="1.2"/><text x="651" y="296" font-size="9" fill="#1a1a1a">MP1</text><text x="814" y="296" font-size="9" text-anchor="end" fill="#8a5a00">NC</text><line x1="637" y1="307" x2="646" y2="307" stroke="#8a5a00" stroke-width="1.2"/><text x="651" y="310" font-size="9" fill="#1a1a1a">MP2</text><text x="814" y="310" font-size="9" text-anchor="end" fill="#8a5a00">NC</text><rect x="434" y="601" width="172" height="82" fill="#fbfaf7" stroke="#1a1a1a" stroke-width="1.2"/><text x="440" y="617" font-size="12" font-weight="700" fill="#1a1a1a">J6</text><text x="440" y="631" font-size="9.5" fill="#565656">speaker (B2B-PH-K-S)</text><line x1="434" y1="637" x2="606" y2="637" stroke="#d7d3ca" stroke-width="1"/><line x1="425" y1="651" x2="434" y2="651" stroke="#243b53" stroke-width="1.2"/><text x="439" y="654" font-size="9" fill="#1a1a1a">1</text><text x="602" y="654" font-size="9" text-anchor="end" fill="#243b53">SPK_P</text><line x1="425" y1="666" x2="434" y2="666" stroke="#243b53" stroke-width="1.2"/><text x="439" y="670" font-size="9" fill="#1a1a1a">2</text><text x="602" y="670" font-size="9" text-anchor="end" fill="#243b53">SPK_N</text><rect x="646" y="481" width="172" height="97" fill="#fbfaf7" stroke="#1a1a1a" stroke-width="1.2"/><text x="652" y="497" font-size="12" font-weight="700" fill="#1a1a1a">J7</text><text x="652" y="511" font-size="9.5" fill="#565656">mic (B3B-PH-K-S)</text><line x1="646" y1="517" x2="818" y2="517" stroke="#d7d3ca" stroke-width="1"/><line x1="637" y1="531" x2="646" y2="531" stroke="#243b53" stroke-width="1.2"/><text x="651" y="534" font-size="9" fill="#1a1a1a">1</text><text x="814" y="534" font-size="9" text-anchor="end" fill="#243b53">GND</text><line x1="637" y1="546" x2="646" y2="546" stroke="#243b53" stroke-width="1.2"/><text x="651" y="550" font-size="9" fill="#1a1a1a">2</text><text x="814" y="550" font-size="9" text-anchor="end" fill="#243b53">MIC_IN</text><line x1="637" y1="561" x2="646" y2="561" stroke="#243b53" stroke-width="1.2"/><text x="651" y="564" font-size="9" fill="#1a1a1a">3</text><text x="814" y="564" font-size="9" text-anchor="end" fill="#243b53">MICBIAS</text><rect x="646" y="608" width="172" height="82" fill="#fbfaf7" stroke="#1a1a1a" stroke-width="1.2"/><text x="652" y="624" font-size="12" font-weight="700" fill="#1a1a1a">R1</text><text x="652" y="638" font-size="9.5" fill="#565656">0R link VBAT-&gt;SERVO_V</text><line x1="646" y1="644" x2="818" y2="644" stroke="#d7d3ca" stroke-width="1"/><line x1="637" y1="658" x2="646" y2="658" stroke="#243b53" stroke-width="1.2"/><text x="651" y="662" font-size="9" fill="#1a1a1a">1</text><text x="814" y="662" font-size="9" text-anchor="end" fill="#243b53">VBAT</text><line x1="637" y1="673" x2="646" y2="673" stroke="#243b53" stroke-width="1.2"/><text x="651" y="676" font-size="9" fill="#1a1a1a">2</text><text x="814" y="676" font-size="9" text-anchor="end" fill="#243b53">SERVO_V</text><rect x="222" y="647" width="172" height="82" fill="#fbfaf7" stroke="#1a1a1a" stroke-width="1.2"/><text x="228" y="663" font-size="12" font-weight="700" fill="#1a1a1a">R2</text><text x="228" y="677" font-size="9.5" fill="#565656">10k</text><line x1="222" y1="683" x2="394" y2="683" stroke="#d7d3ca" stroke-width="1"/><line x1="213" y1="697" x2="222" y2="697" stroke="#243b53" stroke-width="1.2"/><text x="227" y="700" font-size="9" fill="#1a1a1a">1</text><text x="390" y="700" font-size="9" text-anchor="end" fill="#243b53">dxl/DATA</text><line x1="213" y1="712" x2="222" y2="712" stroke="#243b53" stroke-width="1.2"/><text x="227" y="716" font-size="9" fill="#1a1a1a">2</text><text x="390" y="716" font-size="9" text-anchor="end" fill="#243b53">HAT_3V3</text><rect x="10" y="692" width="172" height="82" fill="#fbfaf7" stroke="#1a1a1a" stroke-width="1.2"/><text x="16" y="708" font-size="12" font-weight="700" fill="#1a1a1a">R4</text><text x="16" y="722" font-size="9.5" fill="#565656">0R DATA-&gt;RX</text><line x1="10" y1="728" x2="182" y2="728" stroke="#d7d3ca" stroke-width="1"/><line x1="1" y1="742" x2="10" y2="742" stroke="#243b53" stroke-width="1.2"/><text x="15" y="746" font-size="9" fill="#1a1a1a">1</text><text x="178" y="746" font-size="9" text-anchor="end" fill="#243b53">dxl/DATA</text><line x1="1" y1="757" x2="10" y2="757" stroke="#243b53" stroke-width="1.2"/><text x="15" y="760" font-size="9" fill="#1a1a1a">2</text><text x="178" y="760" font-size="9" text-anchor="end" fill="#243b53">uart2/RX</text><rect x="434" y="713" width="172" height="82" fill="#fbfaf7" stroke="#1a1a1a" stroke-width="1.2"/><text x="440" y="729" font-size="12" font-weight="700" fill="#1a1a1a">R12</text><text x="440" y="743" font-size="9.5" fill="#565656">10k</text><line x1="434" y1="749" x2="606" y2="749" stroke="#d7d3ca" stroke-width="1"/><line x1="425" y1="763" x2="434" y2="763" stroke="#243b53" stroke-width="1.2"/><text x="439" y="766" font-size="9" fill="#1a1a1a">1</text><text x="602" y="766" font-size="9" text-anchor="end" fill="#243b53">i2c3/SDA</text><line x1="425" y1="778" x2="434" y2="778" stroke="#243b53" stroke-width="1.2"/><text x="439" y="782" font-size="9" fill="#1a1a1a">2</text><text x="602" y="782" font-size="9" text-anchor="end" fill="#243b53">HAT_3V3</text><rect x="646" y="720" width="172" height="82" fill="#fbfaf7" stroke="#1a1a1a" stroke-width="1.2"/><text x="652" y="736" font-size="12" font-weight="700" fill="#1a1a1a">R13</text><text x="652" y="750" font-size="9.5" fill="#565656">10k</text><line x1="646" y1="756" x2="818" y2="756" stroke="#d7d3ca" stroke-width="1"/><line x1="637" y1="770" x2="646" y2="770" stroke="#243b53" stroke-width="1.2"/><text x="651" y="774" font-size="9" fill="#1a1a1a">1</text><text x="814" y="774" font-size="9" text-anchor="end" fill="#243b53">i2c3/SCL</text><line x1="637" y1="785" x2="646" y2="785" stroke="#243b53" stroke-width="1.2"/><text x="651" y="788" font-size="9" fill="#1a1a1a">2</text><text x="814" y="788" font-size="9" text-anchor="end" fill="#243b53">HAT_3V3</text><rect x="222" y="759" width="172" height="82" fill="#fbfaf7" stroke="#1a1a1a" stroke-width="1.2"/><text x="228" y="775" font-size="12" font-weight="700" fill="#1a1a1a">C1</text><text x="228" y="789" font-size="9.5" fill="#565656">100n SERVO_V</text><line x1="222" y1="795" x2="394" y2="795" stroke="#d7d3ca" stroke-width="1"/><line x1="213" y1="809" x2="222" y2="809" stroke="#243b53" stroke-width="1.2"/><text x="227" y="812" font-size="9" fill="#1a1a1a">1</text><text x="390" y="812" font-size="9" text-anchor="end" fill="#243b53">SERVO_V</text><line x1="213" y1="824" x2="222" y2="824" stroke="#243b53" stroke-width="1.2"/><text x="227" y="828" font-size="9" fill="#1a1a1a">2</text><text x="390" y="828" font-size="9" text-anchor="end" fill="#243b53">GND</text><rect x="10" y="804" width="172" height="82" fill="#fbfaf7" stroke="#1a1a1a" stroke-width="1.2"/><text x="16" y="820" font-size="12" font-weight="700" fill="#1a1a1a">C2</text><text x="16" y="834" font-size="9.5" fill="#565656">bulk (value CANNOT DETERMINE)</text><line x1="10" y1="840" x2="182" y2="840" stroke="#d7d3ca" stroke-width="1"/><line x1="1" y1="854" x2="10" y2="854" stroke="#243b53" stroke-width="1.2"/><text x="15" y="858" font-size="9" fill="#1a1a1a">1</text><text x="178" y="858" font-size="9" text-anchor="end" fill="#243b53">SERVO_V</text><line x1="1" y1="869" x2="10" y2="869" stroke="#243b53" stroke-width="1.2"/><text x="15" y="872" font-size="9" fill="#1a1a1a">2</text><text x="178" y="872" font-size="9" text-anchor="end" fill="#243b53">GND</text><rect x="434" y="825" width="172" height="82" fill="#fbfaf7" stroke="#1a1a1a" stroke-width="1.2"/><text x="440" y="841" font-size="12" font-weight="700" fill="#1a1a1a">C3</text><text x="440" y="855" font-size="9.5" fill="#565656">100n U4 VCC</text><line x1="434" y1="861" x2="606" y2="861" stroke="#d7d3ca" stroke-width="1"/><line x1="425" y1="875" x2="434" y2="875" stroke="#243b53" stroke-width="1.2"/><text x="439" y="878" font-size="9" fill="#1a1a1a">1</text><text x="602" y="878" font-size="9" text-anchor="end" fill="#243b53">HAT_3V3</text><line x1="425" y1="890" x2="434" y2="890" stroke="#243b53" stroke-width="1.2"/><text x="439" y="894" font-size="9" fill="#1a1a1a">2</text><text x="602" y="894" font-size="9" text-anchor="end" fill="#243b53">GND</text><rect x="646" y="832" width="172" height="82" fill="#fbfaf7" stroke="#1a1a1a" stroke-width="1.2"/><text x="652" y="848" font-size="12" font-weight="700" fill="#1a1a1a">C4</text><text x="652" y="862" font-size="9.5" fill="#565656">100n</text><line x1="646" y1="868" x2="818" y2="868" stroke="#d7d3ca" stroke-width="1"/><line x1="637" y1="882" x2="646" y2="882" stroke="#243b53" stroke-width="1.2"/><text x="651" y="886" font-size="9" fill="#1a1a1a">1</text><text x="814" y="886" font-size="9" text-anchor="end" fill="#243b53">HAT_3V3</text><line x1="637" y1="897" x2="646" y2="897" stroke="#243b53" stroke-width="1.2"/><text x="651" y="900" font-size="9" fill="#1a1a1a">2</text><text x="814" y="900" font-size="9" text-anchor="end" fill="#243b53">GND</text><rect x="222" y="871" width="172" height="82" fill="#fbfaf7" stroke="#1a1a1a" stroke-width="1.2"/><text x="228" y="887" font-size="12" font-weight="700" fill="#1a1a1a">C5</text><text x="228" y="901" font-size="9.5" fill="#565656">100n</text><line x1="222" y1="907" x2="394" y2="907" stroke="#d7d3ca" stroke-width="1"/><line x1="213" y1="921" x2="222" y2="921" stroke="#243b53" stroke-width="1.2"/><text x="227" y="924" font-size="9" fill="#1a1a1a">1</text><text x="390" y="924" font-size="9" text-anchor="end" fill="#243b53">HAT_1V8</text><line x1="213" y1="936" x2="222" y2="936" stroke="#243b53" stroke-width="1.2"/><text x="227" y="940" font-size="9" fill="#1a1a1a">2</text><text x="390" y="940" font-size="9" text-anchor="end" fill="#243b53">GND</text><rect x="10" y="916" width="172" height="82" fill="#fbfaf7" stroke="#1a1a1a" stroke-width="1.2"/><text x="16" y="932" font-size="12" font-weight="700" fill="#1a1a1a">C6</text><text x="16" y="946" font-size="9.5" fill="#565656">100n</text><line x1="10" y1="952" x2="182" y2="952" stroke="#d7d3ca" stroke-width="1"/><line x1="1" y1="966" x2="10" y2="966" stroke="#243b53" stroke-width="1.2"/><text x="15" y="970" font-size="9" fill="#1a1a1a">1</text><text x="178" y="970" font-size="9" text-anchor="end" fill="#243b53">HAT_3V3</text><line x1="1" y1="981" x2="10" y2="981" stroke="#243b53" stroke-width="1.2"/><text x="15" y="984" font-size="9" fill="#1a1a1a">2</text><text x="178" y="984" font-size="9" text-anchor="end" fill="#243b53">GND</text><rect x="434" y="937" width="172" height="82" fill="#fbfaf7" stroke="#1a1a1a" stroke-width="1.2"/><text x="440" y="953" font-size="12" font-weight="700" fill="#1a1a1a">C7</text><text x="440" y="967" font-size="9.5" fill="#565656">100n</text><line x1="434" y1="973" x2="606" y2="973" stroke="#d7d3ca" stroke-width="1"/><line x1="425" y1="987" x2="434" y2="987" stroke="#243b53" stroke-width="1.2"/><text x="439" y="990" font-size="9" fill="#1a1a1a">1</text><text x="602" y="990" font-size="9" text-anchor="end" fill="#243b53">HAT_3V3</text><line x1="425" y1="1002" x2="434" y2="1002" stroke="#243b53" stroke-width="1.2"/><text x="439" y="1006" font-size="9" fill="#1a1a1a">2</text><text x="602" y="1006" font-size="9" text-anchor="end" fill="#243b53">GND</text><rect x="646" y="944" width="172" height="82" fill="#fbfaf7" stroke="#1a1a1a" stroke-width="1.2"/><text x="652" y="960" font-size="12" font-weight="700" fill="#1a1a1a">C8</text><text x="652" y="974" font-size="9.5" fill="#565656">100n</text><line x1="646" y1="980" x2="818" y2="980" stroke="#d7d3ca" stroke-width="1"/><line x1="637" y1="994" x2="646" y2="994" stroke="#243b53" stroke-width="1.2"/><text x="651" y="998" font-size="9" fill="#1a1a1a">1</text><text x="814" y="998" font-size="9" text-anchor="end" fill="#243b53">HAT_3V3</text><line x1="637" y1="1009" x2="646" y2="1009" stroke="#243b53" stroke-width="1.2"/><text x="651" y="1012" font-size="9" fill="#1a1a1a">2</text><text x="814" y="1012" font-size="9" text-anchor="end" fill="#243b53">GND</text><rect x="222" y="983" width="172" height="67" fill="#fbfaf7" stroke="#1a1a1a" stroke-width="1.2"/><text x="228" y="999" font-size="12" font-weight="700" fill="#1a1a1a">TP1</text><text x="228" y="1013" font-size="9.5" fill="#565656">HAT_1V8 (unsourced)</text><line x1="222" y1="1019" x2="394" y2="1019" stroke="#d7d3ca" stroke-width="1"/><line x1="213" y1="1033" x2="222" y2="1033" stroke="#243b53" stroke-width="1.2"/><text x="227" y="1036" font-size="9" fill="#1a1a1a">1</text><text x="390" y="1036" font-size="9" text-anchor="end" fill="#243b53">HAT_1V8</text><rect x="10" y="1028" width="172" height="67" fill="#fbfaf7" stroke="#1a1a1a" stroke-width="1.2"/><text x="16" y="1044" font-size="12" font-weight="700" fill="#1a1a1a">H1</text><text x="16" y="1058" font-size="9.5" fill="#565656">M2.5</text><line x1="10" y1="1064" x2="182" y2="1064" stroke="#d7d3ca" stroke-width="1"/><line x1="1" y1="1078" x2="10" y2="1078" stroke="#565656" stroke-width="1.2"/><text x="15" y="1082" font-size="9" fill="#1a1a1a"></text><text x="178" y="1082" font-size="9" text-anchor="end" fill="#565656">NPTH</text><rect x="434" y="1049" width="172" height="67" fill="#fbfaf7" stroke="#1a1a1a" stroke-width="1.2"/><text x="440" y="1065" font-size="12" font-weight="700" fill="#1a1a1a">H2</text><text x="440" y="1079" font-size="9.5" fill="#565656">M2.5</text><line x1="434" y1="1085" x2="606" y2="1085" stroke="#d7d3ca" stroke-width="1"/><line x1="425" y1="1099" x2="434" y2="1099" stroke="#565656" stroke-width="1.2"/><text x="439" y="1102" font-size="9" fill="#1a1a1a"></text><text x="602" y="1102" font-size="9" text-anchor="end" fill="#565656">NPTH</text><rect x="646" y="1056" width="172" height="67" fill="#fbfaf7" stroke="#1a1a1a" stroke-width="1.2"/><text x="652" y="1072" font-size="12" font-weight="700" fill="#1a1a1a">H3</text><text x="652" y="1086" font-size="9.5" fill="#565656">M2.5</text><line x1="646" y1="1092" x2="818" y2="1092" stroke="#d7d3ca" stroke-width="1"/><line x1="637" y1="1106" x2="646" y2="1106" stroke="#565656" stroke-width="1.2"/><text x="651" y="1110" font-size="9" fill="#1a1a1a"></text><text x="814" y="1110" font-size="9" text-anchor="end" fill="#565656">NPTH</text><rect x="222" y="1080" width="172" height="67" fill="#fbfaf7" stroke="#1a1a1a" stroke-width="1.2"/><text x="228" y="1096" font-size="12" font-weight="700" fill="#1a1a1a">H4</text><text x="228" y="1110" font-size="9.5" fill="#565656">M2.5</text><line x1="222" y1="1116" x2="394" y2="1116" stroke="#d7d3ca" stroke-width="1"/><line x1="213" y1="1130" x2="222" y2="1130" stroke="#565656" stroke-width="1.2"/><text x="227" y="1134" font-size="9" fill="#1a1a1a"></text><text x="390" y="1134" font-size="9" text-anchor="end" fill="#565656">NPTH</text></svg>