0
SECTION
2
HEADER
9
$ACADVER
1
AC1009
9
$INSUNITS
70
4
9
$LTSCALE
40
1.0
9
$EXTMIN
10
0.0000
20
0.0000
30
0.0
9
$EXTMAX
10
420.0000
20
297.0000
30
0.0
0
ENDSEC
0
SECTION
2
TABLES
0
TABLE
2
LTYPE
70
4
0
LTYPE
2
CONTINUOUS
70
0
3
Solid line
72
65
73
0
40
0.0000
0
LTYPE
2
HIDDEN
70
0
3
Hidden __ __ __ __
72
65
73
2
40
3.6000
49
2.4000
49
-1.2000
0
LTYPE
2
CENTER
70
0
3
Center ____ _ ____ _
72
65
73
4
40
11.2000
49
7.0000
49
-1.4000
49
1.4000
49
-1.4000
0
LTYPE
2
PHANTOM
70
0
3
Phantom ____ _ _ ____
72
65
73
6
40
21.0000
49
11.0000
49
-2.0000
49
2.0000
49
-2.0000
49
2.0000
49
-2.0000
0
ENDTAB
0
TABLE
2
LAYER
70
12
0
LAYER
2
0
70
0
62
7
6
CONTINUOUS
0
LAYER
2
VISIBLE
70
0
62
7
6
CONTINUOUS
0
LAYER
2
SECTION
70
0
62
7
6
CONTINUOUS
0
LAYER
2
HIDDEN
70
0
62
8
6
HIDDEN
0
LAYER
2
CENTER
70
0
62
4
6
CENTER
0
LAYER
2
DIM
70
0
62
3
6
CONTINUOUS
0
LAYER
2
TEXT
70
0
62
3
6
CONTINUOUS
0
LAYER
2
HATCH
70
0
62
5
6
CONTINUOUS
0
LAYER
2
CUT
70
0
62
1
6
PHANTOM
0
LAYER
2
CUTTHIN
70
0
62
1
6
PHANTOM
0
LAYER
2
FRAME
70
0
62
7
6
CONTINUOUS
0
LAYER
2
TITLE
70
0
62
7
6
CONTINUOUS
0
ENDTAB
0
ENDSEC
0
SECTION
2
ENTITIES
0
LINE
8
TITLE
10
5.000000
20
5.000000
30
0.0
11
415.000000
21
5.000000
31
0.0
0
LINE
8
TITLE
10
415.000000
20
5.000000
30
0.0
11
415.000000
21
292.000000
31
0.0
0
LINE
8
TITLE
10
415.000000
20
292.000000
30
0.0
11
5.000000
21
292.000000
31
0.0
0
LINE
8
TITLE
10
5.000000
20
292.000000
30
0.0
11
5.000000
21
5.000000
31
0.0
0
LINE
8
FRAME
10
10.000000
20
10.000000
30
0.0
11
410.000000
21
10.000000
31
0.0
0
LINE
8
FRAME
10
410.000000
20
10.000000
30
0.0
11
410.000000
21
287.000000
31
0.0
0
LINE
8
FRAME
10
410.000000
20
287.000000
30
0.0
11
10.000000
21
287.000000
31
0.0
0
LINE
8
FRAME
10
10.000000
20
287.000000
30
0.0
11
10.000000
21
10.000000
31
0.0
0
TEXT
8
TITLE
10
60.000000
20
289.500000
30
0.0
40
2.4000
1
1
72
1
73
2
11
60.000000
21
289.500000
31
0.0
0
TEXT
8
TITLE
10
60.000000
20
7.500000
30
0.0
40
2.4000
1
1
72
1
73
2
11
60.000000
21
7.500000
31
0.0
0
TEXT
8
TITLE
10
160.000000
20
289.500000
30
0.0
40
2.4000
1
2
72
1
73
2
11
160.000000
21
289.500000
31
0.0
0
TEXT
8
TITLE
10
160.000000
20
7.500000
30
0.0
40
2.4000
1
2
72
1
73
2
11
160.000000
21
7.500000
31
0.0
0
LINE
8
TITLE
10
110.000000
20
5.000000
30
0.0
11
110.000000
21
10.000000
31
0.0
0
LINE
8
TITLE
10
110.000000
20
287.000000
30
0.0
11
110.000000
21
292.000000
31
0.0
0
TEXT
8
TITLE
10
260.000000
20
289.500000
30
0.0
40
2.4000
1
3
72
1
73
2
11
260.000000
21
289.500000
31
0.0
0
TEXT
8
TITLE
10
260.000000
20
7.500000
30
0.0
40
2.4000
1
3
72
1
73
2
11
260.000000
21
7.500000
31
0.0
0
LINE
8
TITLE
10
210.000000
20
5.000000
30
0.0
11
210.000000
21
10.000000
31
0.0
0
LINE
8
TITLE
10
210.000000
20
287.000000
30
0.0
11
210.000000
21
292.000000
31
0.0
0
TEXT
8
TITLE
10
360.000000
20
289.500000
30
0.0
40
2.4000
1
4
72
1
73
2
11
360.000000
21
289.500000
31
0.0
0
TEXT
8
TITLE
10
360.000000
20
7.500000
30
0.0
40
2.4000
1
4
72
1
73
2
11
360.000000
21
7.500000
31
0.0
0
LINE
8
TITLE
10
310.000000
20
5.000000
30
0.0
11
310.000000
21
10.000000
31
0.0
0
LINE
8
TITLE
10
310.000000
20
287.000000
30
0.0
11
310.000000
21
292.000000
31
0.0
0
TEXT
8
TITLE
10
7.500000
20
56.166667
30
0.0
40
2.4000
1
C
72
1
73
2
11
7.500000
21
56.166667
31
0.0
0
TEXT
8
TITLE
10
412.500000
20
56.166667
30
0.0
40
2.4000
1
C
72
1
73
2
11
412.500000
21
56.166667
31
0.0
0
TEXT
8
TITLE
10
7.500000
20
148.500000
30
0.0
40
2.4000
1
B
72
1
73
2
11
7.500000
21
148.500000
31
0.0
0
TEXT
8
TITLE
10
412.500000
20
148.500000
30
0.0
40
2.4000
1
B
72
1
73
2
11
412.500000
21
148.500000
31
0.0
0
LINE
8
TITLE
10
5.000000
20
102.333333
30
0.0
11
10.000000
21
102.333333
31
0.0
0
LINE
8
TITLE
10
410.000000
20
102.333333
30
0.0
11
415.000000
21
102.333333
31
0.0
0
TEXT
8
TITLE
10
7.500000
20
240.833333
30
0.0
40
2.4000
1
A
72
1
73
2
11
7.500000
21
240.833333
31
0.0
0
TEXT
8
TITLE
10
412.500000
20
240.833333
30
0.0
40
2.4000
1
A
72
1
73
2
11
412.500000
21
240.833333
31
0.0
0
LINE
8
TITLE
10
5.000000
20
194.666667
30
0.0
11
10.000000
21
194.666667
31
0.0
0
LINE
8
TITLE
10
410.000000
20
194.666667
30
0.0
11
415.000000
21
194.666667
31
0.0
0
LINE
8
VISIBLE
10
107.000000
20
136.500000
30
0.0
11
55.000000
21
136.500000
31
0.0
0
LINE
8
VISIBLE
10
55.000000
20
112.500000
30
0.0
11
55.000000
21
136.500000
31
0.0
0
LINE
8
VISIBLE
10
107.000000
20
112.500000
30
0.0
11
55.000000
21
112.500000
31
0.0
0
LINE
8
VISIBLE
10
63.000000
20
107.500000
30
0.0
11
63.000000
21
112.500000
31
0.0
0
LINE
8
VISIBLE
10
99.000000
20
107.500000
30
0.0
11
63.000000
21
107.500000
31
0.0
0
LINE
8
VISIBLE
10
107.000000
20
112.500000
30
0.0
11
107.000000
21
136.500000
31
0.0
0
LINE
8
VISIBLE
10
99.000000
20
107.500000
30
0.0
11
99.000000
21
112.500000
31
0.0
0
LINE
8
HIDDEN
10
63.000000
20
112.500000
30
0.0
11
99.000000
21
112.500000
31
0.0
0
LINE
8
HIDDEN
10
99.000000
20
112.500000
30
0.0
11
63.000000
21
112.500000
31
0.0
0
LINE
8
HIDDEN
10
64.600000
20
107.500000
30
0.0
11
97.400000
21
107.500000
31
0.0
0
LINE
8
HIDDEN
10
97.400000
20
107.500000
30
0.0
11
64.600000
21
107.500000
31
0.0
0
LINE
8
HIDDEN
10
64.600000
20
107.500000
30
0.0
11
64.600000
21
109.090000
31
0.0
0
LINE
8
HIDDEN
10
64.600000
20
109.090000
30
0.0
11
97.400000
21
109.090000
31
0.0
0
LINE
8
HIDDEN
10
97.400000
20
109.090000
30
0.0
11
64.600000
21
109.090000
31
0.0
0
LINE
8
HIDDEN
10
97.400000
20
107.500000
30
0.0
11
97.400000
21
109.090000
31
0.0
0
CIRCLE
8
VISIBLE
10
81.000000
20
225.500000
30
0.0
40
26.000000
0
CIRCLE
8
VISIBLE
10
81.000000
20
225.500000
30
0.0
40
18.000000
0
CIRCLE
8
VISIBLE
10
81.000000
20
225.500000
30
0.0
40
16.400000
0
LINE
8
VISIBLE
10
171.000000
20
136.500000
30
0.0
11
145.000000
21
136.500000
31
0.0
0
LINE
8
VISIBLE
10
197.000000
20
136.500000
30
0.0
11
171.000000
21
136.500000
31
0.0
0
LINE
8
VISIBLE
10
171.000000
20
112.500000
30
0.0
11
145.000000
21
112.500000
31
0.0
0
LINE
8
VISIBLE
10
197.000000
20
112.500000
30
0.0
11
171.000000
21
112.500000
31
0.0
0
LINE
8
VISIBLE
10
171.000000
20
107.500000
30
0.0
11
153.000000
21
107.500000
31
0.0
0
LINE
8
VISIBLE
10
189.000000
20
107.500000
30
0.0
11
171.000000
21
107.500000
31
0.0
0
LINE
8
VISIBLE
10
171.000000
20
112.500000
30
0.0
11
171.000000
21
136.500000
31
0.0
0
LINE
8
VISIBLE
10
171.000000
20
107.500000
30
0.0
11
171.000000
21
112.500000
31
0.0
0
LINE
8
VISIBLE
10
145.000000
20
112.500000
30
0.0
11
145.000000
21
136.500000
31
0.0
0
LINE
8
VISIBLE
10
197.000000
20
112.500000
30
0.0
11
197.000000
21
136.500000
31
0.0
0
LINE
8
VISIBLE
10
153.000000
20
107.500000
30
0.0
11
153.000000
21
112.500000
31
0.0
0
LINE
8
VISIBLE
10
189.000000
20
107.500000
30
0.0
11
189.000000
21
112.500000
31
0.0
0
LINE
8
HIDDEN
10
145.000000
20
136.500000
30
0.0
11
197.000000
21
136.500000
31
0.0
0
LINE
8
HIDDEN
10
145.000000
20
112.500000
30
0.0
11
197.000000
21
112.500000
31
0.0
0
LINE
8
HIDDEN
10
171.000000
20
112.500000
30
0.0
11
153.000000
21
112.500000
31
0.0
0
LINE
8
HIDDEN
10
153.000000
20
112.500000
30
0.0
11
189.000000
21
112.500000
31
0.0
0
LINE
8
HIDDEN
10
189.000000
20
112.500000
30
0.0
11
171.000000
21
112.500000
31
0.0
0
LINE
8
HIDDEN
10
153.000000
20
107.500000
30
0.0
11
189.000000
21
107.500000
31
0.0
0
LINE
8
HIDDEN
10
171.000000
20
107.500000
30
0.0
11
154.600000
21
107.500000
31
0.0
0
LINE
8
HIDDEN
10
154.600000
20
107.500000
30
0.0
11
187.400000
21
107.500000
31
0.0
0
LINE
8
HIDDEN
10
187.400000
20
107.500000
30
0.0
11
171.000000
21
107.500000
31
0.0
0
LINE
8
HIDDEN
10
171.000000
20
109.090000
30
0.0
11
154.600000
21
109.090000
31
0.0
0
LINE
8
HIDDEN
10
154.600000
20
109.090000
30
0.0
11
187.400000
21
109.090000
31
0.0
0
LINE
8
HIDDEN
10
187.400000
20
109.090000
30
0.0
11
171.000000
21
109.090000
31
0.0
0
LINE
8
HIDDEN
10
171.000000
20
107.500000
30
0.0
11
171.000000
21
109.090000
31
0.0
0
LINE
8
HIDDEN
10
154.600000
20
107.500000
30
0.0
11
154.600000
21
109.090000
31
0.0
0
LINE
8
HIDDEN
10
187.400000
20
107.500000
30
0.0
11
187.400000
21
109.090000
31
0.0
0
LINE
8
VISIBLE
10
287.000000
20
112.500000
30
0.0
11
235.000000
21
112.500000
31
0.0
0
LINE
8
VISIBLE
10
279.000000
20
107.500000
30
0.0
11
243.000000
21
107.500000
31
0.0
0
LINE
8
SECTION
10
235.000000
20
112.500000
30
0.0
11
235.000000
21
136.500000
31
0.0
0
LINE
8
SECTION
10
235.000000
20
136.500000
30
0.0
11
287.000000
21
136.500000
31
0.0
0
LINE
8
SECTION
10
287.000000
20
112.500000
30
0.0
11
287.000000
21
136.500000
31
0.0
0
LINE
8
SECTION
10
279.000000
20
112.500000
30
0.0
11
287.000000
21
112.500000
31
0.0
0
LINE
8
SECTION
10
279.000000
20
107.500000
30
0.0
11
279.000000
21
112.500000
31
0.0
0
LINE
8
SECTION
10
277.400000
20
107.500000
30
0.0
11
279.000000
21
107.500000
31
0.0
0
LINE
8
SECTION
10
277.400000
20
107.500000
30
0.0
11
277.400000
21
109.090000
31
0.0
0
LINE
8
SECTION
10
244.600000
20
109.090000
30
0.0
11
277.400000
21
109.090000
31
0.0
0
LINE
8
SECTION
10
244.600000
20
107.500000
30
0.0
11
244.600000
21
109.090000
31
0.0
0
LINE
8
SECTION
10
243.000000
20
107.500000
30
0.0
11
244.600000
21
107.500000
31
0.0
0
LINE
8
SECTION
10
243.000000
20
107.500000
30
0.0
11
243.000000
21
112.500000
31
0.0
0
LINE
8
SECTION
10
235.000000
20
112.500000
30
0.0
11
243.000000
21
112.500000
31
0.0
0
LINE
8
DIM
10
55.000000
20
106.300000
30
0.0
11
55.000000
21
84.500000
31
0.0
0
LINE
8
DIM
10
107.000000
20
106.300000
30
0.0
11
107.000000
21
84.500000
31
0.0
0
LINE
8
DIM
10
55.000000
20
86.500000
30
0.0
11
107.000000
21
86.500000
31
0.0
0
SOLID
8
DIM
10
55.000000
20
86.500000
30
0.0
11
58.200000
21
85.892000
31
0.0
12
58.200000
22
87.108000
32
0.0
13
58.200000
23
87.108000
33
0.0
0
SOLID
8
DIM
10
107.000000
20
86.500000
30
0.0
11
103.800000
21
87.108000
31
0.0
12
103.800000
22
85.892000
32
0.0
13
103.800000
23
85.892000
33
0.0
0
TEXT
8
TEXT
10
81.000000
20
87.500000
30
0.0
40
2.5000
1
26.00
72
1
73
0
11
81.000000
21
87.500000
31
0.0
0
LINE
8
DIM
10
53.800000
20
107.500000
30
0.0
11
32.000000
21
107.500000
31
0.0
0
LINE
8
DIM
10
53.800000
20
136.500000
30
0.0
11
32.000000
21
136.500000
31
0.0
0
LINE
8
DIM
10
34.000000
20
107.500000
30
0.0
11
34.000000
21
136.500000
31
0.0
0
SOLID
8
DIM
10
34.000000
20
107.500000
30
0.0
11
34.608000
21
110.700000
31
0.0
12
33.392000
22
110.700000
32
0.0
13
33.392000
23
110.700000
33
0.0
0
SOLID
8
DIM
10
34.000000
20
136.500000
30
0.0
11
33.392000
21
133.300000
31
0.0
12
34.608000
22
133.300000
32
0.0
13
34.608000
23
133.300000
33
0.0
0
TEXT
8
TEXT
10
33.000000
20
122.000000
30
0.0
40
2.5000
1
14.50
50
90.0000
72
1
73
0
11
33.000000
21
122.000000
31
0.0
0
TEXT
8
TEXT
10
81.000000
20
74.500000
30
0.0
40
4.0000
1
FRONT VIEW
72
1
73
0
11
81.000000
21
74.500000
31
0.0
0
LINE
8
TEXT
10
69.000000
20
72.900000
30
0.0
11
93.000000
21
72.900000
31
0.0
0
TEXT
8
TEXT
10
81.000000
20
68.500000
30
0.0
40
2.4000
1
-X →   Z ↑
72
1
73
0
11
81.000000
21
68.500000
31
0.0
0
LINE
8
CENTER
10
63.000000
20
225.500000
30
0.0
11
79.800000
21
225.500000
31
0.0
0
LINE
8
CENTER
10
82.200000
20
225.500000
30
0.0
11
99.000000
21
225.500000
31
0.0
0
LINE
8
CENTER
10
81.000000
20
207.500000
30
0.0
11
81.000000
21
224.300000
31
0.0
0
LINE
8
CENTER
10
81.000000
20
226.700000
30
0.0
11
81.000000
21
243.500000
31
0.0
0
LINE
8
DIM
10
55.000000
20
198.300000
30
0.0
11
55.000000
21
185.500000
31
0.0
0
LINE
8
DIM
10
107.000000
20
198.300000
30
0.0
11
107.000000
21
185.500000
31
0.0
0
LINE
8
DIM
10
55.000000
20
187.500000
30
0.0
11
107.000000
21
187.500000
31
0.0
0
SOLID
8
DIM
10
55.000000
20
187.500000
30
0.0
11
58.200000
21
186.892000
31
0.0
12
58.200000
22
188.108000
32
0.0
13
58.200000
23
188.108000
33
0.0
0
SOLID
8
DIM
10
107.000000
20
187.500000
30
0.0
11
103.800000
21
188.108000
31
0.0
12
103.800000
22
186.892000
32
0.0
13
103.800000
23
186.892000
33
0.0
0
TEXT
8
TEXT
10
81.000000
20
188.500000
30
0.0
40
2.5000
1
26.00
72
1
73
0
11
81.000000
21
188.500000
31
0.0
0
LINE
8
DIM
10
53.800000
20
199.500000
30
0.0
11
41.000000
21
199.500000
31
0.0
0
LINE
8
DIM
10
53.800000
20
251.500000
30
0.0
11
41.000000
21
251.500000
31
0.0
0
LINE
8
DIM
10
43.000000
20
199.500000
30
0.0
11
43.000000
21
251.500000
31
0.0
0
SOLID
8
DIM
10
43.000000
20
199.500000
30
0.0
11
43.608000
21
202.700000
31
0.0
12
42.392000
22
202.700000
32
0.0
13
42.392000
23
202.700000
33
0.0
0
SOLID
8
DIM
10
43.000000
20
251.500000
30
0.0
11
42.392000
21
248.300000
31
0.0
12
43.608000
22
248.300000
32
0.0
13
43.608000
23
248.300000
33
0.0
0
TEXT
8
TEXT
10
42.000000
20
225.500000
30
0.0
40
2.5000
1
26.00
50
90.0000
72
1
73
0
11
42.000000
21
225.500000
31
0.0
0
SOLID
8
DIM
10
91.096848
20
238.423376
30
0.0
11
93.546075
21
240.570689
31
0.0
12
92.587854
22
241.319333
32
0.0
13
92.587854
23
241.319333
33
0.0
0
LINE
8
DIM
10
91.096848
20
238.423376
30
0.0
11
106.782426
21
258.500000
31
0.0
0
LINE
8
DIM
10
106.782426
20
258.500000
30
0.0
11
111.782426
21
258.500000
31
0.0
0
TEXT
8
TEXT
10
112.582426
20
259.500000
30
0.0
40
2.5000
1
Ø16.40 x 0.80 DP
0
TEXT
8
TEXT
10
81.000000
20
175.500000
30
0.0
40
4.0000
1
TOP VIEW
72
1
73
0
11
81.000000
21
175.500000
31
0.0
0
LINE
8
TEXT
10
71.400000
20
173.900000
30
0.0
11
90.600000
21
173.900000
31
0.0
0
TEXT
8
TEXT
10
81.000000
20
169.500000
30
0.0
40
2.4000
1
X →   Y ↑
72
1
73
0
11
81.000000
21
169.500000
31
0.0
0
LINE
8
DIM
10
145.000000
20
106.300000
30
0.0
11
145.000000
21
93.500000
31
0.0
0
LINE
8
DIM
10
197.000000
20
106.300000
30
0.0
11
197.000000
21
93.500000
31
0.0
0
LINE
8
DIM
10
145.000000
20
95.500000
30
0.0
11
197.000000
21
95.500000
31
0.0
0
SOLID
8
DIM
10
145.000000
20
95.500000
30
0.0
11
148.200000
21
94.892000
31
0.0
12
148.200000
22
96.108000
32
0.0
13
148.200000
23
96.108000
33
0.0
0
SOLID
8
DIM
10
197.000000
20
95.500000
30
0.0
11
193.800000
21
96.108000
31
0.0
12
193.800000
22
94.892000
32
0.0
13
193.800000
23
94.892000
33
0.0
0
TEXT
8
TEXT
10
171.000000
20
96.500000
30
0.0
40
2.5000
1
26.00
72
1
73
0
11
171.000000
21
96.500000
31
0.0
0
LINE
8
DIM
10
143.800000
20
107.500000
30
0.0
11
131.000000
21
107.500000
31
0.0
0
LINE
8
DIM
10
143.800000
20
136.500000
30
0.0
11
131.000000
21
136.500000
31
0.0
0
LINE
8
DIM
10
133.000000
20
107.500000
30
0.0
11
133.000000
21
136.500000
31
0.0
0
SOLID
8
DIM
10
133.000000
20
107.500000
30
0.0
11
133.608000
21
110.700000
31
0.0
12
132.392000
22
110.700000
32
0.0
13
132.392000
23
110.700000
33
0.0
0
SOLID
8
DIM
10
133.000000
20
136.500000
30
0.0
11
132.392000
21
133.300000
31
0.0
12
133.608000
22
133.300000
32
0.0
13
133.608000
23
133.300000
33
0.0
0
TEXT
8
TEXT
10
132.000000
20
122.000000
30
0.0
40
2.5000
1
14.50
50
90.0000
72
1
73
0
11
132.000000
21
122.000000
31
0.0
0
TEXT
8
TEXT
10
171.000000
20
83.500000
30
0.0
40
4.0000
1
RIGHT VIEW
72
1
73
0
11
171.000000
21
83.500000
31
0.0
0
LINE
8
TEXT
10
159.000000
20
81.900000
30
0.0
11
183.000000
21
81.900000
31
0.0
0
TEXT
8
TEXT
10
171.000000
20
77.500000
30
0.0
40
2.4000
1
-Y →   Z ↑
72
1
73
0
11
171.000000
21
77.500000
31
0.0
0
LINE
8
DIM
10
235.000000
20
106.300000
30
0.0
11
235.000000
21
93.500000
31
0.0
0
LINE
8
DIM
10
287.000000
20
106.300000
30
0.0
11
287.000000
21
93.500000
31
0.0
0
LINE
8
DIM
10
235.000000
20
95.500000
30
0.0
11
287.000000
21
95.500000
31
0.0
0
SOLID
8
DIM
10
235.000000
20
95.500000
30
0.0
11
238.200000
21
94.892000
31
0.0
12
238.200000
22
96.108000
32
0.0
13
238.200000
23
96.108000
33
0.0
0
SOLID
8
DIM
10
287.000000
20
95.500000
30
0.0
11
283.800000
21
96.108000
31
0.0
12
283.800000
22
94.892000
32
0.0
13
283.800000
23
94.892000
33
0.0
0
TEXT
8
TEXT
10
261.000000
20
96.500000
30
0.0
40
2.5000
1
26.00
72
1
73
0
11
261.000000
21
96.500000
31
0.0
0
LINE
8
DIM
10
233.800000
20
107.500000
30
0.0
11
221.000000
21
107.500000
31
0.0
0
LINE
8
DIM
10
233.800000
20
136.500000
30
0.0
11
221.000000
21
136.500000
31
0.0
0
LINE
8
DIM
10
223.000000
20
107.500000
30
0.0
11
223.000000
21
136.500000
31
0.0
0
SOLID
8
DIM
10
223.000000
20
107.500000
30
0.0
11
223.608000
21
110.700000
31
0.0
12
222.392000
22
110.700000
32
0.0
13
222.392000
23
110.700000
33
0.0
0
SOLID
8
DIM
10
223.000000
20
136.500000
30
0.0
11
222.392000
21
133.300000
31
0.0
12
223.608000
22
133.300000
32
0.0
13
223.608000
23
133.300000
33
0.0
0
TEXT
8
TEXT
10
222.000000
20
122.000000
30
0.0
40
2.5000
1
14.50
50
90.0000
72
1
73
0
11
222.000000
21
122.000000
31
0.0
0
LINE
8
HATCH
10
286.999997
20
112.500000
30
0.0
11
287.000000
21
112.500003
31
0.0
0
LINE
8
HATCH
10
277.757356
20
107.500000
30
0.0
11
279.000000
21
108.742644
31
0.0
0
LINE
8
HATCH
10
282.757356
20
112.500000
30
0.0
11
287.000000
21
116.742644
31
0.0
0
LINE
8
HATCH
10
275.104716
20
109.090000
30
0.0
11
287.000000
21
120.985284
31
0.0
0
LINE
8
HATCH
10
270.862075
20
109.090000
30
0.0
11
287.000000
21
125.227925
31
0.0
0
LINE
8
HATCH
10
266.619434
20
109.090000
30
0.0
11
287.000000
21
129.470566
31
0.0
0
LINE
8
HATCH
10
262.376794
20
109.090000
30
0.0
11
287.000000
21
133.713206
31
0.0
0
LINE
8
HATCH
10
258.134153
20
109.090000
30
0.0
11
285.544153
21
136.500000
31
0.0
0
LINE
8
HATCH
10
253.891512
20
109.090000
30
0.0
11
281.301512
21
136.500000
31
0.0
0
LINE
8
HATCH
10
249.648872
20
109.090000
30
0.0
11
277.058872
21
136.500000
31
0.0
0
LINE
8
HATCH
10
243.816231
20
107.500000
30
0.0
11
244.600000
21
108.283769
31
0.0
0
LINE
8
HATCH
10
245.406231
20
109.090000
30
0.0
11
272.816231
21
136.500000
31
0.0
0
LINE
8
HATCH
10
243.000000
20
110.926410
30
0.0
11
268.573590
21
136.500000
31
0.0
0
LINE
8
HATCH
10
240.330950
20
112.500000
30
0.0
11
264.330950
21
136.500000
31
0.0
0
LINE
8
HATCH
10
236.088309
20
112.500000
30
0.0
11
260.088309
21
136.500000
31
0.0
0
LINE
8
HATCH
10
235.000000
20
115.654332
30
0.0
11
255.845668
21
136.500000
31
0.0
0
LINE
8
HATCH
10
235.000000
20
119.896972
30
0.0
11
251.603028
21
136.500000
31
0.0
0
LINE
8
HATCH
10
235.000000
20
124.139613
30
0.0
11
247.360387
21
136.500000
31
0.0
0
LINE
8
HATCH
10
235.000000
20
128.382254
30
0.0
11
243.117746
21
136.500000
31
0.0
0
LINE
8
HATCH
10
235.000000
20
132.624895
30
0.0
11
238.875105
21
136.500000
31
0.0
0
LINE
8
DIM
10
277.400000
20
110.270835
30
0.0
11
277.400000
21
145.500000
31
0.0
0
LINE
8
DIM
10
279.000000
20
110.270835
30
0.0
11
279.000000
21
145.500000
31
0.0
0
LINE
8
DIM
10
277.400000
20
143.500000
30
0.0
11
279.000000
21
143.500000
31
0.0
0
SOLID
8
DIM
10
277.400000
20
143.500000
30
0.0
11
274.200000
21
144.108000
31
0.0
12
274.200000
22
142.892000
32
0.0
13
274.200000
23
142.892000
33
0.0
0
SOLID
8
DIM
10
279.000000
20
143.500000
30
0.0
11
282.200000
21
142.892000
31
0.0
12
282.200000
22
144.108000
32
0.0
13
282.200000
23
144.108000
33
0.0
0
LINE
8
DIM
10
279.000000
20
143.500000
30
0.0
11
288.600000
21
143.500000
31
0.0
0
TEXT
8
TEXT
10
289.400000
20
143.900000
30
0.0
40
2.5000
1
0.80 WALL
0
LINE
8
DIM
10
287.766665
20
112.500000
30
0.0
11
298.000000
21
112.500000
31
0.0
0
LINE
8
DIM
10
287.766665
20
136.500000
30
0.0
11
298.000000
21
136.500000
31
0.0
0
LINE
8
DIM
10
296.000000
20
112.500000
30
0.0
11
296.000000
21
136.500000
31
0.0
0
SOLID
8
DIM
10
296.000000
20
112.500000
30
0.0
11
296.608000
21
115.700000
31
0.0
12
295.392000
22
115.700000
32
0.0
13
295.392000
23
115.700000
33
0.0
0
SOLID
8
DIM
10
296.000000
20
136.500000
30
0.0
11
295.392000
21
133.300000
31
0.0
12
296.608000
22
133.300000
32
0.0
13
296.608000
23
133.300000
33
0.0
0
TEXT
8
TEXT
10
295.000000
20
124.500000
30
0.0
40
2.5000
1
12.00 WALL
50
90.0000
72
1
73
0
11
295.000000
21
124.500000
31
0.0
0
TEXT
8
TEXT
10
261.000000
20
83.500000
30
0.0
40
4.0000
1
SECTION A-A
72
1
73
0
11
261.000000
21
83.500000
31
0.0
0
LINE
8
TEXT
10
247.800000
20
81.900000
30
0.0
11
274.200000
21
81.900000
31
0.0
0
LINE
8
CUT
10
81.000000
20
98.500000
30
0.0
11
81.000000
21
111.660000
31
0.0
0
LINE
8
CUTTHIN
10
81.000000
20
111.660000
30
0.0
11
81.000000
21
132.340000
31
0.0
0
LINE
8
CUT
10
81.000000
20
132.340000
30
0.0
11
81.000000
21
145.500000
31
0.0
0
LINE
8
CUT
10
81.000000
20
98.500000
30
0.0
11
90.000000
21
98.500000
31
0.0
0
SOLID
8
CUT
10
90.000000
20
98.500000
30
0.0
11
85.800000
21
99.298000
31
0.0
12
85.800000
22
97.702000
32
0.0
13
85.800000
23
97.702000
33
0.0
0
TEXT
8
TEXT
10
76.000000
20
98.500000
30
0.0
40
4.0000
1
A
72
1
73
2
11
76.000000
21
98.500000
31
0.0
0
LINE
8
CUT
10
81.000000
20
145.500000
30
0.0
11
90.000000
21
145.500000
31
0.0
0
SOLID
8
CUT
10
90.000000
20
145.500000
30
0.0
11
85.800000
21
146.298000
31
0.0
12
85.800000
22
144.702000
32
0.0
13
85.800000
23
144.702000
33
0.0
0
TEXT
8
TEXT
10
76.000000
20
145.500000
30
0.0
40
4.0000
1
A
72
1
73
2
11
76.000000
21
145.500000
31
0.0
0
TEXT
8
TEXT
10
334.000000
20
275.000000
30
0.0
40
3.0000
1
NOTES
0
TEXT
8
TEXT
10
334.000000
20
270.400000
30
0.0
40
2.4000
1
1. ALL DIMENSIONS IN mm AND DEGREES. EVERY
0
TEXT
8
TEXT
10
334.000000
20
266.680000
30
0.0
40
2.4000
1
   DIMENSION AND EVERY HOLE CALLOUT WAS MEASURED
0
TEXT
8
TEXT
10
334.000000
20
262.960000
30
0.0
40
2.4000
1
   OFF THE SOLID.
0
TEXT
8
TEXT
10
334.000000
20
259.240000
30
0.0
40
2.4000
1
2. THINNEST WALL, WHOLE SOLID: 0.8000 mm, AT
0
TEXT
8
TEXT
10
334.000000
20
255.520000
30
0.0
40
2.4000
1
   X=8.186 Y=3.735 Z=0.208 — MEASURED OVER THE
0
TEXT
8
TEXT
10
334.000000
20
251.800000
30
0.0
40
2.4000
1
   WHOLE SOLID BY RAY+EXACT AT 0.609 mm SAMPLE
0
TEXT
8
TEXT
10
334.000000
20
248.080000
30
0.0
40
2.4000
1
   SPACING (A FEATURE NARROWER THAN THAT CAN BE
0
TEXT
8
TEXT
10
334.000000
20
244.360000
30
0.0
40
2.4000
1
   MISSED). A RAY MINIMUM AT AN EDGE, A FILLET
0
TEXT
8
TEXT
10
334.000000
20
240.640000
30
0.0
40
2.4000
1
   RUN-OUT OR A CHAMFER TIP IS A REAL DISTANCE
0
TEXT
8
TEXT
10
334.000000
20
236.920000
30
0.0
40
2.4000
1
   THROUGH MATERIAL AND IS NOT A PRINTABLE WALL.
0
TEXT
8
TEXT
10
334.000000
20
233.200000
30
0.0
40
2.4000
1
3. GENERAL TOLERANCE: CANNOT DETERMINE — THIS PART
0
TEXT
8
TEXT
10
334.000000
20
229.480000
30
0.0
40
2.4000
1
   DECLARES NO PROCESS THIS REPO CAN READ.
0
TEXT
8
TEXT
10
334.000000
20
225.760000
30
0.0
40
2.4000
1
4. SECTION A-A AT X=0.00: THINNEST MATERIAL IN
0
TEXT
8
TEXT
10
334.000000
20
222.040000
30
0.0
40
2.4000
1
   THIS PLANE ONLY 0.80 mm, AT Y=8.60, Z=0.79 — A
0
TEXT
8
TEXT
10
334.000000
20
218.320000
30
0.0
40
2.4000
1
   SCAN OF ONE CUT, NOT THE PART MINIMUM.
0
LINE
8
FRAME
10
224.000000
20
10.000000
30
0.0
11
410.000000
21
10.000000
31
0.0
0
LINE
8
FRAME
10
410.000000
20
10.000000
30
0.0
11
410.000000
21
66.000000
31
0.0
0
LINE
8
FRAME
10
410.000000
20
66.000000
30
0.0
11
224.000000
21
66.000000
31
0.0
0
LINE
8
FRAME
10
224.000000
20
66.000000
30
0.0
11
224.000000
21
10.000000
31
0.0
0
LINE
8
TITLE
10
224.000000
20
53.000000
30
0.0
11
410.000000
21
53.000000
31
0.0
0
LINE
8
TITLE
10
224.000000
20
19.000000
30
0.0
11
410.000000
21
19.000000
31
0.0
0
LINE
8
TITLE
10
224.000000
20
27.500000
30
0.0
11
410.000000
21
27.500000
31
0.0
0
LINE
8
TITLE
10
224.000000
20
36.000000
30
0.0
11
410.000000
21
36.000000
31
0.0
0
LINE
8
TITLE
10
224.000000
20
44.500000
30
0.0
11
410.000000
21
44.500000
31
0.0
0
TEXT
8
TEXT
10
226.500000
20
59.500000
30
0.0
40
6.0000
1
MICRODUCK-JIG-PRESS-22-INNER
72
0
73
2
11
226.500000
21
59.500000
31
0.0
0
LINE
8
TITLE
10
390.000000
20
53.000000
30
0.0
11
390.000000
21
66.000000
31
0.0
0
TEXT
8
TITLE
10
400.000000
20
63.600000
30
0.0
40
1.7000
1
REV
72
1
73
0
11
400.000000
21
63.600000
31
0.0
0
TEXT
8
TEXT
10
400.000000
20
55.000000
30
0.0
40
5.2000
1
A
72
1
73
0
11
400.000000
21
55.000000
31
0.0
0
LINE
8
TITLE
10
360.000000
20
53.000000
30
0.0
11
360.000000
21
66.000000
31
0.0
0
CIRCLE
8
TITLE
10
366.500000
20
59.500000
30
0.0
40
3.500000
0
CIRCLE
8
TITLE
10
366.500000
20
59.500000
30
0.0
40
1.960000
0
LINE
8
TITLE
10
376.300000
20
56.000000
30
0.0
11
376.300000
21
63.000000
31
0.0
0
LINE
8
TITLE
10
376.300000
20
63.000000
30
0.0
11
382.250000
21
61.460000
31
0.0
0
LINE
8
TITLE
10
382.250000
20
61.460000
30
0.0
11
382.250000
21
57.540000
31
0.0
0
LINE
8
TITLE
10
382.250000
20
57.540000
30
0.0
11
376.300000
21
56.000000
31
0.0
0
LINE
8
CENTER
10
361.500000
20
59.500000
30
0.0
11
383.750000
21
59.500000
31
0.0
0
LINE
8
TITLE
10
288.000000
20
19.000000
30
0.0
11
288.000000
21
53.000000
31
0.0
0
LINE
8
TITLE
10
352.000000
20
19.000000
30
0.0
11
352.000000
21
53.000000
31
0.0
0
TEXT
8
TITLE
10
225.600000
20
50.600000
30
0.0
40
1.7000
1
MATERIAL
0
TEXT
8
TEXT
10
225.600000
20
45.900000
30
0.0
40
2.5000
1
PLA
0
TEXT
8
TITLE
10
289.600000
20
50.600000
30
0.0
40
1.7000
1
PROCESS
0
TEXT
8
TEXT
10
289.600000
20
45.900000
30
0.0
40
2.5000
1
-
0
TEXT
8
TITLE
10
353.600000
20
50.600000
30
0.0
40
1.7000
1
SCALE
0
TEXT
8
TEXT
10
353.600000
20
45.900000
30
0.0
40
2.5000
1
2:1
0
TEXT
8
TITLE
10
225.600000
20
42.100000
30
0.0
40
1.7000
1
CATEGORY
0
TEXT
8
TEXT
10
225.600000
20
37.400000
30
0.0
40
2.5000
1
-
0
TEXT
8
TITLE
10
257.600000
20
42.100000
30
0.0
40
1.7000
1
GENERAL TOL
0
TEXT
8
TEXT
10
257.600000
20
37.400000
30
0.0
40
2.5000
1
SEE NOTES
0
LINE
8
TITLE
10
256.000000
20
36.000000
30
0.0
11
256.000000
21
44.500000
31
0.0
0
TEXT
8
TITLE
10
289.600000
20
42.100000
30
0.0
40
1.7000
1
FINISH
0
TEXT
8
TEXT
10
289.600000
20
37.400000
30
0.0
40
2.5000
1
AS PRINTED
0
TEXT
8
TITLE
10
353.600000
20
42.100000
30
0.0
40
1.7000
1
SHEET
0
TEXT
8
TEXT
10
353.600000
20
37.400000
30
0.0
40
2.5000
1
A3  1/1
0
TEXT
8
TITLE
10
225.600000
20
33.600000
30
0.0
40
1.7000
1
VOLUME (MEASURED)
0
TEXT
8
TEXT
10
225.600000
20
28.900000
30
0.0
40
2.5000
1
6.84 cm3
0
TEXT
8
TITLE
10
289.600000
20
33.600000
30
0.0
40
1.7000
1
MASS (ASSUMES PLA)
0
TEXT
8
TEXT
10
289.600000
20
28.900000
30
0.0
40
2.5000
1
8.5 g
0
TEXT
8
TITLE
10
353.600000
20
33.600000
30
0.0
40
1.7000
1
UNITS
0
TEXT
8
TEXT
10
353.600000
20
28.900000
30
0.0
40
2.5000
1
mm / deg
0
TEXT
8
TITLE
10
225.600000
20
25.100000
30
0.0
40
1.7000
1
SIZE (BBOX, MEASURED)
0
TEXT
8
TEXT
10
225.600000
20
20.400000
30
0.0
40
2.5000
1
26.00 x 26.00 x 14.50
0
TEXT
8
TITLE
10
289.600000
20
25.100000
30
0.0
40
1.7000
1
DRAWN
0
TEXT
8
TEXT
10
289.600000
20
20.400000
30
0.0
40
2.5000
1
ce-cad  2026-09-02
0
TEXT
8
TITLE
10
353.600000
20
25.100000
30
0.0
40
1.7000
1
PROJECTION
0
TEXT
8
TEXT
10
353.600000
20
20.400000
30
0.0
40
2.5000
1
THIRD ANGLE
0
TEXT
8
TITLE
10
225.600000
20
16.600000
30
0.0
40
1.7000
1
SOURCE (DESIGN FILE)
0
TEXT
8
TEXT
10
225.600000
20
11.400000
30
0.0
40
2.6000
1
tools/jigs.py
0
TEXT
8
TEXT
10
12.500000
20
280.500000
30
0.0
40
4.2000
1
microduck-jig-press-22-inner   SCALE 2:1   A3   THIRD ANGLE
0
ENDSEC
0
EOF
