ISO-10303-21;
HEADER;
FILE_DESCRIPTION(('FreeCAD Model'),'2;1');
FILE_NAME('Open CASCADE Shape Model','2026-09-04T18:52:37',('Author'),(
    ''),'Open CASCADE STEP processor 7.8','FreeCAD','Unknown');
FILE_SCHEMA(('AUTOMOTIVE_DESIGN { 1 0 10303 214 1 1 1 1 }'));
ENDSEC;
DATA;
#1 = APPLICATION_PROTOCOL_DEFINITION('international standard',
  'automotive_design',2000,#2);
#2 = APPLICATION_CONTEXT(
  'core data for automotive mechanical design processes');
#3 = SHAPE_DEFINITION_REPRESENTATION(#4,#10);
#4 = PRODUCT_DEFINITION_SHAPE('','',#5);
#5 = PRODUCT_DEFINITION('design','',#6,#9);
#6 = PRODUCT_DEFINITION_FORMATION('','',#7);
#7 = PRODUCT('exp_testpoint_testpoint_loop_d2_50mm_drill1_',
  'exp_testpoint_testpoint_loop_d2_50mm_drill1_','',(#8));
#8 = PRODUCT_CONTEXT('',#2,'mechanical');
#9 = PRODUCT_DEFINITION_CONTEXT('part definition',#2,'design');
#10 = ADVANCED_BREP_SHAPE_REPRESENTATION('',(#11,#15),#721);
#11 = AXIS2_PLACEMENT_3D('',#12,#13,#14);
#12 = CARTESIAN_POINT('',(0.,0.,0.));
#13 = DIRECTION('',(0.,0.,1.));
#14 = DIRECTION('',(1.,0.,-0.));
#15 = MANIFOLD_SOLID_BREP('',#16);
#16 = CLOSED_SHELL('',(#17,#34,#59,#360,#386,#687,#712));
#17 = ADVANCED_FACE('',(#18),#29,.F.);
#18 = FACE_BOUND('',#19,.F.);
#19 = EDGE_LOOP('',(#20));
#20 = ORIENTED_EDGE('',*,*,#21,.T.);
#21 = EDGE_CURVE('',#22,#22,#24,.T.);
#22 = VERTEX_POINT('',#23);
#23 = CARTESIAN_POINT('',(-58.600001,18.600001,-3.840000340985));
#24 = CIRCLE('',#25,0.25);
#25 = AXIS2_PLACEMENT_3D('',#26,#27,#28);
#26 = CARTESIAN_POINT('',(-58.850001,18.600001,-3.840000340985));
#27 = DIRECTION('',(0.,0.,1.));
#28 = DIRECTION('',(1.,0.,0.));
#29 = PLANE('',#30);
#30 = AXIS2_PLACEMENT_3D('',#31,#32,#33);
#31 = CARTESIAN_POINT('',(-58.850001,18.600001,-3.840000340985));
#32 = DIRECTION('',(0.,0.,1.));
#33 = DIRECTION('',(1.,0.,0.));
#34 = ADVANCED_FACE('',(#35),#54,.T.);
#35 = FACE_BOUND('',#36,.T.);
#36 = EDGE_LOOP('',(#37,#45,#52,#53));
#37 = ORIENTED_EDGE('',*,*,#38,.T.);
#38 = EDGE_CURVE('',#22,#39,#41,.T.);
#39 = VERTEX_POINT('',#40);
#40 = CARTESIAN_POINT('',(-58.600001,18.600001,-0.840000083697));
#41 = LINE('',#42,#43);
#42 = CARTESIAN_POINT('',(-58.600001,18.600001,-3.840000340985));
#43 = VECTOR('',#44,1.);
#44 = DIRECTION('',(0.,2.22044604925E-16,1.));
#45 = ORIENTED_EDGE('',*,*,#46,.F.);
#46 = EDGE_CURVE('',#39,#39,#47,.T.);
#47 = CIRCLE('',#48,0.25);
#48 = AXIS2_PLACEMENT_3D('',#49,#50,#51);
#49 = CARTESIAN_POINT('',(-58.850001,18.600001,-0.840000083697));
#50 = DIRECTION('',(-0.,2.22044604925E-16,1.));
#51 = DIRECTION('',(1.,0.,0.));
#52 = ORIENTED_EDGE('',*,*,#38,.F.);
#53 = ORIENTED_EDGE('',*,*,#21,.T.);
#54 = CYLINDRICAL_SURFACE('',#55,0.25);
#55 = AXIS2_PLACEMENT_3D('',#56,#57,#58);
#56 = CARTESIAN_POINT('',(-58.850001,18.600001,-3.840000340985));
#57 = DIRECTION('',(0.,2.22044604925E-16,1.));
#58 = DIRECTION('',(1.,0.,0.));
#59 = ADVANCED_FACE('',(#60),#114,.T.);
#60 = FACE_BOUND('',#61,.T.);
#61 = EDGE_LOOP('',(#62,#102,#112,#113));
#62 = ORIENTED_EDGE('',*,*,#63,.T.);
#63 = EDGE_CURVE('',#39,#64,#66,.T.);
#64 = VERTEX_POINT('',#65);
#65 = CARTESIAN_POINT('',(-59.35000110179,18.600001,0.259999054481));
#66 = ( BOUNDED_CURVE() B_SPLINE_CURVE(10,(#67,#68,#69,#70,#71,#72,#73,
    #74,#75,#76,#77,#78,#79,#80,#81,#82,#83,#84,#85,#86,#87,#88,#89,#90,
    #91,#92,#93,#94,#95,#96,#97,#98,#99,#100,#101),.UNSPECIFIED.,.F.,.F.
) B_SPLINE_CURVE_WITH_KNOTS((11,8,8,8,11),(0.,0.249999916901,
0.499999833802,0.749999916901,1.),.UNSPECIFIED.) CURVE() 
GEOMETRIC_REPRESENTATION_ITEM() RATIONAL_B_SPLINE_CURVE((1.669078461068,
    1.669078461068,1.669078461068,1.669078461069,1.669078461068,
    1.669078461069,1.669078461068,1.669078461068,1.669078461068,
    1.669078461068,1.669078461068,1.669078461068,1.669078461068,
    1.669078461069,1.669078461068,1.669078461068,1.669078461068,
    1.669078461068,1.669078461068,1.669078461068,1.669078461068,
    1.669078461068,1.669078461068,1.669078461068,1.669078461068,
    1.669078461068,1.669078461068,1.669078461068,1.669078461069,
    1.669078461067,1.669078461069,1.669078461068,1.669078461069,
1.669078461068,1.669078461068)) REPRESENTATION_ITEM('') );
#67 = CARTESIAN_POINT('',(-58.600001,18.600001,-0.840000083697));
#68 = CARTESIAN_POINT('',(-58.600001,18.600001,-0.781704681233));
#69 = CARTESIAN_POINT('',(-58.60441732424,18.600001,-0.724753969858));
#70 = CARTESIAN_POINT('',(-58.61329732943,18.600001,-0.669334520891));
#71 = CARTESIAN_POINT('',(-58.62660450594,18.600001,-0.615803386263));
#72 = CARTESIAN_POINT('',(-58.64414693276,18.600001,-0.564652208029));
#73 = CARTESIAN_POINT('',(-58.66540852522,18.600001,-0.516473131358));
#74 = CARTESIAN_POINT('',(-58.68963038051,18.600001,-0.471498067016));
#75 = CARTESIAN_POINT('',(-58.7161392622,18.600001,-0.429733926407));
#76 = CARTESIAN_POINT('',(-58.77251971093,18.600001,-0.352315817561));
#77 = CARTESIAN_POINT('',(-58.83361816731,18.600001,-0.286148758209));
#78 = CARTESIAN_POINT('',(-58.86484446515,18.600001,-0.255635814789));
#79 = CARTESIAN_POINT('',(-58.89634371676,18.600001,-0.227363294594));
#80 = CARTESIAN_POINT('',(-58.92781992669,18.600001,-0.200990185928));
#81 = CARTESIAN_POINT('',(-58.95903496148,18.600001,-0.176212149233));
#82 = CARTESIAN_POINT('',(-58.98977570856,18.600001,-0.152767945451));
#83 = CARTESIAN_POINT('',(-59.01984184646,18.600001,-0.130432917623));
#84 = CARTESIAN_POINT('',(-59.07822828277,18.600001,-8.7616236271E-02));
#85 = CARTESIAN_POINT('',(-59.13234186442,18.600001,-4.7932978842E-02));
#86 = CARTESIAN_POINT('',(-59.15813510856,18.600001,-2.8731580585E-02));
#87 = CARTESIAN_POINT('',(-59.18247249245,18.600001,-1.0066442917E-02));
#88 = CARTESIAN_POINT('',(-59.20516371278,18.600001,8.124235289E-03));
#89 = CARTESIAN_POINT('',(-59.22603125731,18.600001,2.5865673043E-02));
#90 = CARTESIAN_POINT('',(-59.24492263483,18.600001,4.3139988869E-02));
#91 = CARTESIAN_POINT('',(-59.26174321618,18.600001,5.9892629248E-02));
#92 = CARTESIAN_POINT('',(-59.29126976922,18.600001,9.2267149973E-02));
#93 = CARTESIAN_POINT('',(-59.31301433311,18.600001,0.122557280842));
#94 = CARTESIAN_POINT('',(-59.3220523338,18.600001,0.137225383666));
#95 = CARTESIAN_POINT('',(-59.32947111206,18.600001,0.151547145247));
#96 = CARTESIAN_POINT('',(-59.33555327906,18.600001,0.165815935905));
#97 = CARTESIAN_POINT('',(-59.3406671117,18.600001,0.180550125622));
#98 = CARTESIAN_POINT('',(-59.34493806783,18.600001,0.196628317155));
#99 = CARTESIAN_POINT('',(-59.34816744267,18.600001,0.214828609496));
#100 = CARTESIAN_POINT('',(-59.3500011205,18.600001,0.235794511539));
#101 = CARTESIAN_POINT('',(-59.35000111966,18.600001,0.259999051776));
#102 = ORIENTED_EDGE('',*,*,#103,.F.);
#103 = EDGE_CURVE('',#64,#64,#104,.T.);
#104 = ( BOUNDED_CURVE() B_SPLINE_CURVE(6,(#105,#106,#107,#108,#109,#110
,#111),.UNSPECIFIED.,.T.,.F.) B_SPLINE_CURVE_WITH_KNOTS((1,6,6,1),(
-6.28318530718,0.,6.28318530718,12.56637061436),.UNSPECIFIED.) CURVE() 
GEOMETRIC_REPRESENTATION_ITEM() RATIONAL_B_SPLINE_CURVE((1.669078461068,
    1.03672962321,1.038346699848,0.853534330196,1.038346699848,
1.03672962321,1.669078461068)) REPRESENTATION_ITEM('') );
#105 = CARTESIAN_POINT('',(-59.35000111966,18.600001,0.259999051776));
#106 = CARTESIAN_POINT('',(-59.35000111966,19.015386768893,
    0.259999051776));
#107 = CARTESIAN_POINT('',(-59.86363816729,19.075029095811,
    0.259999069669));
#108 = CARTESIAN_POINT('',(-60.28728034991,18.600001,0.259999084428));
#109 = CARTESIAN_POINT('',(-59.86363816729,18.124972904189,
    0.259999069669));
#110 = CARTESIAN_POINT('',(-59.35000111966,18.184615231107,
    0.259999051776));
#111 = CARTESIAN_POINT('',(-59.35000111966,18.600001,0.259999051776));
#112 = ORIENTED_EDGE('',*,*,#63,.F.);
#113 = ORIENTED_EDGE('',*,*,#46,.T.);
#114 = ( BOUNDED_SURFACE() B_SPLINE_SURFACE(6,10,(
    (#115,#116,#117,#118,#119,#120,#121,#122,#123,#124,#125,#126,#127
      ,#128,#129,#130,#131,#132,#133,#134,#135,#136,#137,#138,#139,#140
      ,#141,#142,#143,#144,#145,#146,#147,#148,#149)
    ,(#150,#151,#152,#153,#154,#155,#156,#157,#158,#159,#160,#161,#162
      ,#163,#164,#165,#166,#167,#168,#169,#170,#171,#172,#173,#174,#175
      ,#176,#177,#178,#179,#180,#181,#182,#183,#184)
    ,(#185,#186,#187,#188,#189,#190,#191,#192,#193,#194,#195,#196,#197
      ,#198,#199,#200,#201,#202,#203,#204,#205,#206,#207,#208,#209,#210
      ,#211,#212,#213,#214,#215,#216,#217,#218,#219)
    ,(#220,#221,#222,#223,#224,#225,#226,#227,#228,#229,#230,#231,#232
      ,#233,#234,#235,#236,#237,#238,#239,#240,#241,#242,#243,#244,#245
      ,#246,#247,#248,#249,#250,#251,#252,#253,#254)
    ,(#255,#256,#257,#258,#259,#260,#261,#262,#263,#264,#265,#266,#267
      ,#268,#269,#270,#271,#272,#273,#274,#275,#276,#277,#278,#279,#280
      ,#281,#282,#283,#284,#285,#286,#287,#288,#289)
    ,(#290,#291,#292,#293,#294,#295,#296,#297,#298,#299,#300,#301,#302
      ,#303,#304,#305,#306,#307,#308,#309,#310,#311,#312,#313,#314,#315
      ,#316,#317,#318,#319,#320,#321,#322,#323,#324)
    ,(#325,#326,#327,#328,#329,#330,#331,#332,#333,#334,#335,#336,#337
      ,#338,#339,#340,#341,#342,#343,#344,#345,#346,#347,#348,#349,#350
      ,#351,#352,#353,#354,#355,#356,#357,#358,#359
)),.UNSPECIFIED.,.T.,.F.,.F.) B_SPLINE_SURFACE_WITH_KNOTS((1,6,6,1),(11,
    8,8,8,11),(-6.28318530718,0.,6.28318530718,12.56637061436),(0.,
    0.249999916901,0.499999833802,0.749999916901,1.),.UNSPECIFIED.) 
GEOMETRIC_REPRESENTATION_ITEM() RATIONAL_B_SPLINE_SURFACE((
    (1.669078461068,1.669078461068,1.669078461068,1.669078461069
      ,1.669078461068,1.669078461069,1.669078461068,1.669078461068
      ,1.669078461068,1.669078461068,1.669078461068,1.669078461068
      ,1.669078461068,1.669078461069,1.669078461068,1.669078461068
      ,1.669078461068,1.669078461068,1.669078461068,1.669078461068
      ,1.669078461068,1.669078461068,1.669078461068,1.669078461068
      ,1.669078461068,1.669078461068,1.669078461068,1.669078461068
      ,1.669078461069,1.669078461067,1.669078461069,1.669078461068
      ,1.669078461069,1.669078461068,1.669078461068)
    ,(1.03672962321,1.03672962321,1.036729623209,1.03672962321
      ,1.036729623209,1.03672962321,1.036729623209,1.03672962321
      ,1.03672962321,1.03672962321,1.03672962321,1.03672962321
      ,1.036729623209,1.03672962321,1.036729623209,1.03672962321
      ,1.03672962321,1.03672962321,1.03672962321,1.03672962321
      ,1.03672962321,1.03672962321,1.03672962321,1.03672962321
      ,1.03672962321,1.03672962321,1.03672962321,1.036729623209
      ,1.03672962321,1.036729623209,1.03672962321,1.036729623209
      ,1.03672962321,1.03672962321,1.03672962321)
    ,(1.038346699848,1.038346699848,1.038346699847,1.038346699848
      ,1.038346699847,1.038346699848,1.038346699847,1.038346699848
      ,1.038346699847,1.038346699848,1.038346699847,1.038346699848
      ,1.038346699847,1.038346699848,1.038346699847,1.038346699848
      ,1.038346699847,1.038346699848,1.038346699848,1.038346699847
      ,1.038346699848,1.038346699847,1.038346699848,1.038346699847
      ,1.038346699848,1.038346699847,1.038346699848,1.038346699847
      ,1.038346699848,1.038346699847,1.038346699848,1.038346699847
      ,1.038346699848,1.038346699847,1.038346699848)
    ,(0.853534330196,0.853534330196,0.853534330196,0.853534330196
      ,0.853534330196,0.853534330196,0.853534330196,0.853534330196
      ,0.853534330196,0.853534330196,0.853534330196,0.853534330196
      ,0.853534330196,0.853534330196,0.853534330196,0.853534330196
      ,0.853534330196,0.853534330196,0.853534330196,0.853534330196
      ,0.853534330196,0.853534330196,0.853534330196,0.853534330196
      ,0.853534330196,0.853534330196,0.853534330196,0.853534330196
      ,0.853534330196,0.853534330196,0.853534330196,0.853534330196
      ,0.853534330196,0.853534330196,0.853534330196)
    ,(1.038346699848,1.038346699848,1.038346699847,1.038346699848
      ,1.038346699847,1.038346699848,1.038346699847,1.038346699848
      ,1.038346699847,1.038346699848,1.038346699847,1.038346699848
      ,1.038346699847,1.038346699848,1.038346699847,1.038346699848
      ,1.038346699848,1.038346699848,1.038346699848,1.038346699848
      ,1.038346699848,1.038346699847,1.038346699848,1.038346699847
      ,1.038346699848,1.038346699847,1.038346699848,1.038346699847
      ,1.038346699848,1.038346699847,1.038346699848,1.038346699847
      ,1.038346699848,1.038346699847,1.038346699848)
    ,(1.03672962321,1.03672962321,1.036729623209,1.03672962321
      ,1.036729623209,1.03672962321,1.036729623209,1.03672962321
      ,1.03672962321,1.03672962321,1.03672962321,1.03672962321
      ,1.036729623209,1.03672962321,1.036729623209,1.03672962321
      ,1.03672962321,1.03672962321,1.03672962321,1.03672962321
      ,1.03672962321,1.03672962321,1.03672962321,1.03672962321
      ,1.03672962321,1.03672962321,1.03672962321,1.036729623209
      ,1.03672962321,1.036729623209,1.03672962321,1.036729623209
      ,1.03672962321,1.03672962321,1.03672962321)
    ,(1.669078461068,1.669078461068,1.669078461068,1.669078461069
      ,1.669078461068,1.669078461069,1.669078461068,1.669078461068
      ,1.669078461068,1.669078461068,1.669078461068,1.669078461068
      ,1.669078461068,1.669078461069,1.669078461068,1.669078461068
      ,1.669078461068,1.669078461068,1.669078461068,1.669078461068
      ,1.669078461068,1.669078461068,1.669078461068,1.669078461068
      ,1.669078461068,1.669078461068,1.669078461068,1.669078461068
      ,1.669078461069,1.669078461067,1.669078461069,1.669078461068
      ,1.669078461069,1.669078461068,1.669078461068
))) REPRESENTATION_ITEM('') SURFACE() );
#115 = CARTESIAN_POINT('',(-58.600001,18.600001,-0.840000083697));
#116 = CARTESIAN_POINT('',(-58.600001,18.600001,-0.781704681233));
#117 = CARTESIAN_POINT('',(-58.60441732424,18.600001,-0.724753969858));
#118 = CARTESIAN_POINT('',(-58.61329732943,18.600001,-0.669334520891));
#119 = CARTESIAN_POINT('',(-58.62660450594,18.600001,-0.615803386263));
#120 = CARTESIAN_POINT('',(-58.64414693276,18.600001,-0.564652208029));
#121 = CARTESIAN_POINT('',(-58.66540852522,18.600001,-0.516473131358));
#122 = CARTESIAN_POINT('',(-58.68963038051,18.600001,-0.471498067016));
#123 = CARTESIAN_POINT('',(-58.7161392622,18.600001,-0.429733926407));
#124 = CARTESIAN_POINT('',(-58.77251971093,18.600001,-0.352315817561));
#125 = CARTESIAN_POINT('',(-58.83361816731,18.600001,-0.286148758209));
#126 = CARTESIAN_POINT('',(-58.86484446515,18.600001,-0.255635814789));
#127 = CARTESIAN_POINT('',(-58.89634371676,18.600001,-0.227363294594));
#128 = CARTESIAN_POINT('',(-58.92781992669,18.600001,-0.200990185928));
#129 = CARTESIAN_POINT('',(-58.95903496148,18.600001,-0.176212149233));
#130 = CARTESIAN_POINT('',(-58.98977570856,18.600001,-0.152767945451));
#131 = CARTESIAN_POINT('',(-59.01984184646,18.600001,-0.130432917623));
#132 = CARTESIAN_POINT('',(-59.07822828277,18.600001,-8.7616236271E-02)
  );
#133 = CARTESIAN_POINT('',(-59.13234186442,18.600001,-4.7932978842E-02)
  );
#134 = CARTESIAN_POINT('',(-59.15813510856,18.600001,-2.8731580585E-02)
  );
#135 = CARTESIAN_POINT('',(-59.18247249245,18.600001,-1.0066442917E-02)
  );
#136 = CARTESIAN_POINT('',(-59.20516371278,18.600001,8.124235289E-03));
#137 = CARTESIAN_POINT('',(-59.22603125731,18.600001,2.5865673043E-02));
#138 = CARTESIAN_POINT('',(-59.24492263483,18.600001,4.3139988869E-02));
#139 = CARTESIAN_POINT('',(-59.26174321618,18.600001,5.9892629248E-02));
#140 = CARTESIAN_POINT('',(-59.29126976922,18.600001,9.2267149973E-02));
#141 = CARTESIAN_POINT('',(-59.31301433311,18.600001,0.122557280842));
#142 = CARTESIAN_POINT('',(-59.3220523338,18.600001,0.137225383666));
#143 = CARTESIAN_POINT('',(-59.32947111206,18.600001,0.151547145247));
#144 = CARTESIAN_POINT('',(-59.33555327906,18.600001,0.165815935905));
#145 = CARTESIAN_POINT('',(-59.3406671117,18.600001,0.180550125622));
#146 = CARTESIAN_POINT('',(-59.34493806783,18.600001,0.196628317155));
#147 = CARTESIAN_POINT('',(-59.34816744267,18.600001,0.214828609496));
#148 = CARTESIAN_POINT('',(-59.3500011205,18.600001,0.235794511539));
#149 = CARTESIAN_POINT('',(-59.35000111966,18.600001,0.259999051776));
#150 = CARTESIAN_POINT('',(-58.600001,19.015386768893,-0.840000083697));
#151 = CARTESIAN_POINT('',(-58.600001,19.015386768893,-0.781704681233));
#152 = CARTESIAN_POINT('',(-58.60441732424,19.015386768893,
    -0.724753969858));
#153 = CARTESIAN_POINT('',(-58.61329732943,19.015386768893,
    -0.669334520891));
#154 = CARTESIAN_POINT('',(-58.62660450594,19.015386768893,
    -0.615803386263));
#155 = CARTESIAN_POINT('',(-58.64414693276,19.015386768893,
    -0.564652208029));
#156 = CARTESIAN_POINT('',(-58.66540852522,19.015386768893,
    -0.516473131358));
#157 = CARTESIAN_POINT('',(-58.68963038051,19.015386768893,
    -0.471498067016));
#158 = CARTESIAN_POINT('',(-58.7161392622,19.015386768893,
    -0.429733926407));
#159 = CARTESIAN_POINT('',(-58.77251971093,19.015386768893,
    -0.352315817561));
#160 = CARTESIAN_POINT('',(-58.83361816731,19.015386768893,
    -0.286148758209));
#161 = CARTESIAN_POINT('',(-58.86484446515,19.015386768893,
    -0.255635814789));
#162 = CARTESIAN_POINT('',(-58.89634371676,19.015386768893,
    -0.227363294594));
#163 = CARTESIAN_POINT('',(-58.92781992669,19.015386768893,
    -0.200990185928));
#164 = CARTESIAN_POINT('',(-58.95903496147,19.015386768893,
    -0.176212149233));
#165 = CARTESIAN_POINT('',(-58.98977570856,19.015386768893,
    -0.152767945451));
#166 = CARTESIAN_POINT('',(-59.01984184646,19.015386768893,
    -0.130432917623));
#167 = CARTESIAN_POINT('',(-59.07822828277,19.015386768893,
    -8.7616236271E-02));
#168 = CARTESIAN_POINT('',(-59.13234186442,19.015386768893,
    -4.7932978842E-02));
#169 = CARTESIAN_POINT('',(-59.15813510856,19.015386768893,
    -2.8731580585E-02));
#170 = CARTESIAN_POINT('',(-59.18247249245,19.015386768893,
    -1.0066442917E-02));
#171 = CARTESIAN_POINT('',(-59.20516371278,19.015386768893,
    8.124235289E-03));
#172 = CARTESIAN_POINT('',(-59.22603125731,19.015386768893,
    2.5865673043E-02));
#173 = CARTESIAN_POINT('',(-59.24492263483,19.015386768893,
    4.3139988869E-02));
#174 = CARTESIAN_POINT('',(-59.26174321618,19.015386768893,
    5.9892629248E-02));
#175 = CARTESIAN_POINT('',(-59.29126976922,19.015386768893,
    9.2267149973E-02));
#176 = CARTESIAN_POINT('',(-59.31301433311,19.015386768893,
    0.122557280842));
#177 = CARTESIAN_POINT('',(-59.3220523338,19.015386768893,0.137225383666
    ));
#178 = CARTESIAN_POINT('',(-59.32947111206,19.015386768893,
    0.151547145247));
#179 = CARTESIAN_POINT('',(-59.33555327906,19.015386768893,
    0.165815935905));
#180 = CARTESIAN_POINT('',(-59.3406671117,19.015386768893,0.180550125622
    ));
#181 = CARTESIAN_POINT('',(-59.34493806783,19.015386768893,
    0.196628317155));
#182 = CARTESIAN_POINT('',(-59.34816744267,19.015386768893,
    0.214828609496));
#183 = CARTESIAN_POINT('',(-59.3500011205,19.015386768893,0.235794511539
    ));
#184 = CARTESIAN_POINT('',(-59.35000111966,19.015386768893,
    0.259999051776));
#185 = CARTESIAN_POINT('',(-59.11363804763,19.075029095811,
    -0.840000083697));
#186 = CARTESIAN_POINT('',(-59.11363804763,19.075029095811,
    -0.816725435651));
#187 = CARTESIAN_POINT('',(-59.11540128089,19.075029095811,
    -0.796741075111));
#188 = CARTESIAN_POINT('',(-59.11847652887,19.075029095811,
    -0.779555982969));
#189 = CARTESIAN_POINT('',(-59.12250101411,19.075029095811,
    -0.764499360092));
#190 = CARTESIAN_POINT('',(-59.12727584792,19.075029095811,
    -0.750758475576));
#191 = CARTESIAN_POINT('',(-59.13294398785,19.075029095811,
    -0.737414613139));
#192 = CARTESIAN_POINT('',(-59.13990445486,19.075029095811,
    -0.723928941038));
#193 = CARTESIAN_POINT('',(-59.1484659306,19.075029095811,
    -0.709999900204));
#194 = CARTESIAN_POINT('',(-59.16926578764,19.075029095811,
    -0.680995216154));
#195 = CARTESIAN_POINT('',(-59.1979312024,19.075029095811,
    -0.649542413262));
#196 = CARTESIAN_POINT('',(-59.21435885963,19.075029095811,
    -0.633165097833));
#197 = CARTESIAN_POINT('',(-59.23290634774,19.075029095811,
    -0.616190770587));
#198 = CARTESIAN_POINT('',(-59.25348452959,19.075029095811,
    -0.598684774136));
#199 = CARTESIAN_POINT('',(-59.27594324977,19.075029095811,
    -0.58067377855));
#200 = CARTESIAN_POINT('',(-59.30010596711,19.075029095811,
    -0.562139002347));
#201 = CARTESIAN_POINT('',(-59.32578265166,19.075029095811,
    -0.543023086457));
#202 = CARTESIAN_POINT('',(-59.37977969241,19.075029095811,
    -0.503425292284));
#203 = CARTESIAN_POINT('',(-59.43828267254,19.075029095811,
    -0.460523145536));
#204 = CARTESIAN_POINT('',(-59.46846537534,19.075029095811,
    -0.438102631447));
#205 = CARTESIAN_POINT('',(-59.49938079613,19.075029095811,
    -0.414528060721));
#206 = CARTESIAN_POINT('',(-59.53082833952,19.075029095811,
    -0.389570334374));
#207 = CARTESIAN_POINT('',(-59.56259392129,19.075029095811,
    -0.36296177582));
#208 = CARTESIAN_POINT('',(-59.59443707136,19.075029095811,
    -0.334389256933));
#209 = CARTESIAN_POINT('',(-59.6260563013,19.075029095811,
    -0.303500977151));
#210 = CARTESIAN_POINT('',(-59.68801590754,19.075029095811,
    -0.236412176148));
#211 = CARTESIAN_POINT('',(-59.74534106305,19.075029095811,
    -0.157708599621));
#212 = CARTESIAN_POINT('',(-59.77232646602,19.075029095811,
    -0.115205388558));
#213 = CARTESIAN_POINT('',(-59.7970066249,19.075029095811,
    -6.9394229977E-02));
#214 = CARTESIAN_POINT('',(-59.81868223316,19.075029095811,
    -2.029022577E-02));
#215 = CARTESIAN_POINT('',(-59.83656364562,19.075029095811,
    3.1854249177E-02));
#216 = CARTESIAN_POINT('',(-59.85011728154,19.075029095811,
    8.6406937159E-02));
#217 = CARTESIAN_POINT('',(-59.85915140522,19.075029095811,
    0.142841566533));
#218 = CARTESIAN_POINT('',(-59.86363816936,19.075029095811,
    0.200773797402));
#219 = CARTESIAN_POINT('',(-59.86363816729,19.075029095811,
    0.259999069669));
#220 = CARTESIAN_POINT('',(-59.53728023025,18.600001,-0.840000083697));
#221 = CARTESIAN_POINT('',(-59.53728023025,18.600001,-0.845610168375));
#222 = CARTESIAN_POINT('',(-59.53685522327,18.600001,-0.856115247067));
#223 = CARTESIAN_POINT('',(-59.5351427714,18.600001,-0.87046543154));
#224 = CARTESIAN_POINT('',(-59.53151099506,18.600001,-0.887142162415));
#225 = CARTESIAN_POINT('',(-59.52575525872,18.600001,-0.904256876334));
#226 = CARTESIAN_POINT('',(-59.51856209065,18.600001,-0.919644715119));
#227 = CARTESIAN_POINT('',(-59.51128555463,18.600001,-0.932131147094));
#228 = CARTESIAN_POINT('',(-59.50504420752,18.600001,-0.941160190136));
#229 = CARTESIAN_POINT('',(-59.49649758421,18.600001,-0.952086365909));
#230 = CARTESIAN_POINT('',(-59.49841258328,18.600001,-0.949265499598));
#231 = CARTESIAN_POINT('',(-59.50263448463,18.600001,-0.944547094528));
#232 = CARTESIAN_POINT('',(-59.5104995008,18.600001,-0.936891392453));
#233 = CARTESIAN_POINT('',(-59.52208910904,18.600001,-0.926698892545));
#234 = CARTESIAN_POINT('',(-59.53732571733,18.600001,-0.914269277972));
#235 = CARTESIAN_POINT('',(-59.55606294816,18.600001,-0.899783743592));
#236 = CARTESIAN_POINT('',(-59.5781192599,18.600001,-0.883322915791));
#237 = CARTESIAN_POINT('',(-59.6284959755,18.600001,-0.846380024328));
#238 = CARTESIAN_POINT('',(-59.69061928319,18.600001,-0.800822973105));
#239 = CARTESIAN_POINT('',(-59.72442236317,18.600001,-0.775747367715));
#240 = CARTESIAN_POINT('',(-59.76076327638,18.600001,-0.748123550647));
#241 = CARTESIAN_POINT('',(-59.79943293864,18.600001,-0.717584437486));
#242 = CARTESIAN_POINT('',(-59.84018710155,18.600001,-0.68366237531));
#243 = CARTESIAN_POINT('',(-59.88271273104,18.600001,-0.645771222911));
#244 = CARTESIAN_POINT('',(-59.92653772343,18.600001,-0.603224023358));
#245 = CARTESIAN_POINT('',(-60.01524775491,18.600001,-0.507503266129));
#246 = CARTESIAN_POINT('',(-60.10191939072,18.600001,-0.388868812572));
#247 = CARTESIAN_POINT('',(-60.14370761351,18.600001,-0.323407510652));
#248 = CARTESIAN_POINT('',(-60.18262476912,18.600001,-0.25162424407));
#249 = CARTESIAN_POINT('',(-60.21716167607,18.600001,-0.173788539206));
#250 = CARTESIAN_POINT('',(-60.24557364782,18.600001,-9.0788472825E-02)
  );
#251 = CARTESIAN_POINT('',(-60.26678353583,18.600001,-4.502443711E-03));
#252 = CARTESIAN_POINT('',(-60.28060535246,18.600001,8.3467445953E-02));
#253 = CARTESIAN_POINT('',(-60.28728035298,18.600001,0.1718890979));
#254 = CARTESIAN_POINT('',(-60.28728034991,18.600001,0.259999084428));
#255 = CARTESIAN_POINT('',(-59.11363804763,18.124972904189,
    -0.840000083697));
#256 = CARTESIAN_POINT('',(-59.11363804763,18.124972904189,
    -0.816725435651));
#257 = CARTESIAN_POINT('',(-59.11540128089,18.124972904189,
    -0.796741075111));
#258 = CARTESIAN_POINT('',(-59.11847652887,18.124972904189,
    -0.779555982969));
#259 = CARTESIAN_POINT('',(-59.12250101411,18.124972904189,
    -0.764499360092));
#260 = CARTESIAN_POINT('',(-59.12727584792,18.124972904189,
    -0.750758475576));
#261 = CARTESIAN_POINT('',(-59.13294398785,18.124972904189,
    -0.737414613139));
#262 = CARTESIAN_POINT('',(-59.13990445486,18.124972904189,
    -0.723928941038));
#263 = CARTESIAN_POINT('',(-59.1484659306,18.124972904189,
    -0.709999900204));
#264 = CARTESIAN_POINT('',(-59.16926578764,18.124972904189,
    -0.680995216154));
#265 = CARTESIAN_POINT('',(-59.1979312024,18.124972904189,
    -0.649542413262));
#266 = CARTESIAN_POINT('',(-59.21435885963,18.124972904189,
    -0.633165097833));
#267 = CARTESIAN_POINT('',(-59.23290634774,18.124972904189,
    -0.616190770587));
#268 = CARTESIAN_POINT('',(-59.25348452959,18.124972904189,
    -0.598684774136));
#269 = CARTESIAN_POINT('',(-59.27594324977,18.124972904189,
    -0.58067377855));
#270 = CARTESIAN_POINT('',(-59.30010596711,18.124972904189,
    -0.562139002347));
#271 = CARTESIAN_POINT('',(-59.32578265166,18.124972904189,
    -0.543023086457));
#272 = CARTESIAN_POINT('',(-59.37977969241,18.124972904189,
    -0.503425292284));
#273 = CARTESIAN_POINT('',(-59.43828267254,18.124972904189,
    -0.460523145536));
#274 = CARTESIAN_POINT('',(-59.46846537534,18.124972904189,
    -0.438102631447));
#275 = CARTESIAN_POINT('',(-59.49938079613,18.124972904189,
    -0.414528060721));
#276 = CARTESIAN_POINT('',(-59.53082833952,18.124972904189,
    -0.389570334374));
#277 = CARTESIAN_POINT('',(-59.56259392129,18.124972904189,
    -0.36296177582));
#278 = CARTESIAN_POINT('',(-59.59443707136,18.124972904189,
    -0.334389256933));
#279 = CARTESIAN_POINT('',(-59.6260563013,18.124972904189,
    -0.303500977151));
#280 = CARTESIAN_POINT('',(-59.68801590754,18.124972904189,
    -0.236412176148));
#281 = CARTESIAN_POINT('',(-59.74534106305,18.124972904189,
    -0.157708599621));
#282 = CARTESIAN_POINT('',(-59.77232646602,18.124972904189,
    -0.115205388558));
#283 = CARTESIAN_POINT('',(-59.7970066249,18.124972904189,
    -6.9394229976E-02));
#284 = CARTESIAN_POINT('',(-59.81868223316,18.124972904189,
    -2.029022577E-02));
#285 = CARTESIAN_POINT('',(-59.83656364562,18.124972904189,
    3.1854249177E-02));
#286 = CARTESIAN_POINT('',(-59.85011728154,18.124972904189,
    8.6406937159E-02));
#287 = CARTESIAN_POINT('',(-59.85915140522,18.124972904189,
    0.142841566533));
#288 = CARTESIAN_POINT('',(-59.86363816936,18.124972904189,
    0.200773797402));
#289 = CARTESIAN_POINT('',(-59.86363816729,18.124972904189,
    0.259999069669));
#290 = CARTESIAN_POINT('',(-58.600001,18.184615231107,-0.840000083697));
#291 = CARTESIAN_POINT('',(-58.600001,18.184615231107,-0.781704681233));
#292 = CARTESIAN_POINT('',(-58.60441732424,18.184615231107,
    -0.724753969858));
#293 = CARTESIAN_POINT('',(-58.61329732943,18.184615231107,
    -0.669334520891));
#294 = CARTESIAN_POINT('',(-58.62660450594,18.184615231107,
    -0.615803386263));
#295 = CARTESIAN_POINT('',(-58.64414693276,18.184615231107,
    -0.564652208029));
#296 = CARTESIAN_POINT('',(-58.66540852522,18.184615231107,
    -0.516473131358));
#297 = CARTESIAN_POINT('',(-58.68963038051,18.184615231107,
    -0.471498067016));
#298 = CARTESIAN_POINT('',(-58.7161392622,18.184615231107,
    -0.429733926407));
#299 = CARTESIAN_POINT('',(-58.77251971093,18.184615231107,
    -0.352315817561));
#300 = CARTESIAN_POINT('',(-58.83361816731,18.184615231107,
    -0.286148758209));
#301 = CARTESIAN_POINT('',(-58.86484446515,18.184615231107,
    -0.255635814789));
#302 = CARTESIAN_POINT('',(-58.89634371676,18.184615231107,
    -0.227363294594));
#303 = CARTESIAN_POINT('',(-58.92781992669,18.184615231107,
    -0.200990185928));
#304 = CARTESIAN_POINT('',(-58.95903496147,18.184615231107,
    -0.176212149233));
#305 = CARTESIAN_POINT('',(-58.98977570856,18.184615231107,
    -0.152767945451));
#306 = CARTESIAN_POINT('',(-59.01984184646,18.184615231107,
    -0.130432917623));
#307 = CARTESIAN_POINT('',(-59.07822828277,18.184615231107,
    -8.7616236271E-02));
#308 = CARTESIAN_POINT('',(-59.13234186442,18.184615231107,
    -4.7932978842E-02));
#309 = CARTESIAN_POINT('',(-59.15813510856,18.184615231107,
    -2.8731580585E-02));
#310 = CARTESIAN_POINT('',(-59.18247249245,18.184615231107,
    -1.0066442917E-02));
#311 = CARTESIAN_POINT('',(-59.20516371278,18.184615231107,
    8.124235289E-03));
#312 = CARTESIAN_POINT('',(-59.22603125731,18.184615231107,
    2.5865673043E-02));
#313 = CARTESIAN_POINT('',(-59.24492263483,18.184615231107,
    4.3139988869E-02));
#314 = CARTESIAN_POINT('',(-59.26174321618,18.184615231107,
    5.9892629248E-02));
#315 = CARTESIAN_POINT('',(-59.29126976922,18.184615231107,
    9.2267149973E-02));
#316 = CARTESIAN_POINT('',(-59.31301433311,18.184615231107,
    0.122557280842));
#317 = CARTESIAN_POINT('',(-59.3220523338,18.184615231107,0.137225383666
    ));
#318 = CARTESIAN_POINT('',(-59.32947111206,18.184615231107,
    0.151547145247));
#319 = CARTESIAN_POINT('',(-59.33555327906,18.184615231107,
    0.165815935905));
#320 = CARTESIAN_POINT('',(-59.3406671117,18.184615231107,0.180550125622
    ));
#321 = CARTESIAN_POINT('',(-59.34493806783,18.184615231107,
    0.196628317155));
#322 = CARTESIAN_POINT('',(-59.34816744267,18.184615231107,
    0.214828609496));
#323 = CARTESIAN_POINT('',(-59.3500011205,18.184615231107,0.235794511539
    ));
#324 = CARTESIAN_POINT('',(-59.35000111966,18.184615231107,
    0.259999051776));
#325 = CARTESIAN_POINT('',(-58.600001,18.600001,-0.840000083697));
#326 = CARTESIAN_POINT('',(-58.600001,18.600001,-0.781704681233));
#327 = CARTESIAN_POINT('',(-58.60441732424,18.600001,-0.724753969858));
#328 = CARTESIAN_POINT('',(-58.61329732943,18.600001,-0.669334520891));
#329 = CARTESIAN_POINT('',(-58.62660450594,18.600001,-0.615803386263));
#330 = CARTESIAN_POINT('',(-58.64414693276,18.600001,-0.564652208029));
#331 = CARTESIAN_POINT('',(-58.66540852522,18.600001,-0.516473131358));
#332 = CARTESIAN_POINT('',(-58.68963038051,18.600001,-0.471498067016));
#333 = CARTESIAN_POINT('',(-58.7161392622,18.600001,-0.429733926407));
#334 = CARTESIAN_POINT('',(-58.77251971093,18.600001,-0.352315817561));
#335 = CARTESIAN_POINT('',(-58.83361816731,18.600001,-0.286148758209));
#336 = CARTESIAN_POINT('',(-58.86484446515,18.600001,-0.255635814789));
#337 = CARTESIAN_POINT('',(-58.89634371676,18.600001,-0.227363294594));
#338 = CARTESIAN_POINT('',(-58.92781992669,18.600001,-0.200990185928));
#339 = CARTESIAN_POINT('',(-58.95903496148,18.600001,-0.176212149233));
#340 = CARTESIAN_POINT('',(-58.98977570856,18.600001,-0.152767945451));
#341 = CARTESIAN_POINT('',(-59.01984184646,18.600001,-0.130432917623));
#342 = CARTESIAN_POINT('',(-59.07822828277,18.600001,-8.7616236271E-02)
  );
#343 = CARTESIAN_POINT('',(-59.13234186442,18.600001,-4.7932978842E-02)
  );
#344 = CARTESIAN_POINT('',(-59.15813510856,18.600001,-2.8731580585E-02)
  );
#345 = CARTESIAN_POINT('',(-59.18247249245,18.600001,-1.0066442917E-02)
  );
#346 = CARTESIAN_POINT('',(-59.20516371278,18.600001,8.124235289E-03));
#347 = CARTESIAN_POINT('',(-59.22603125731,18.600001,2.5865673043E-02));
#348 = CARTESIAN_POINT('',(-59.24492263483,18.600001,4.3139988869E-02));
#349 = CARTESIAN_POINT('',(-59.26174321618,18.600001,5.9892629248E-02));
#350 = CARTESIAN_POINT('',(-59.29126976922,18.600001,9.2267149973E-02));
#351 = CARTESIAN_POINT('',(-59.31301433311,18.600001,0.122557280842));
#352 = CARTESIAN_POINT('',(-59.3220523338,18.600001,0.137225383666));
#353 = CARTESIAN_POINT('',(-59.32947111206,18.600001,0.151547145247));
#354 = CARTESIAN_POINT('',(-59.33555327906,18.600001,0.165815935905));
#355 = CARTESIAN_POINT('',(-59.3406671117,18.600001,0.180550125622));
#356 = CARTESIAN_POINT('',(-59.34493806783,18.600001,0.196628317155));
#357 = CARTESIAN_POINT('',(-59.34816744267,18.600001,0.214828609496));
#358 = CARTESIAN_POINT('',(-59.3500011205,18.600001,0.235794511539));
#359 = CARTESIAN_POINT('',(-59.35000111966,18.600001,0.259999051776));
#360 = ADVANCED_FACE('',(#361),#381,.T.);
#361 = FACE_BOUND('',#362,.T.);
#362 = EDGE_LOOP('',(#363,#372,#379,#380));
#363 = ORIENTED_EDGE('',*,*,#364,.T.);
#364 = EDGE_CURVE('',#64,#365,#367,.T.);
#365 = VERTEX_POINT('',#366);
#366 = CARTESIAN_POINT('',(-57.8500008982,18.600001,0.259999032387));
#367 = CIRCLE('',#368,0.750000083934);
#368 = AXIS2_PLACEMENT_3D('',#369,#370,#371);
#369 = CARTESIAN_POINT('',(-58.600001,18.600000988953,0.259998986871));
#370 = DIRECTION('',(0.,1.,-2.22044604925E-16));
#371 = DIRECTION('',(1.,0.,0.));
#372 = ORIENTED_EDGE('',*,*,#373,.T.);
#373 = EDGE_CURVE('',#365,#365,#374,.T.);
#374 = CIRCLE('',#375,0.25);
#375 = AXIS2_PLACEMENT_3D('',#376,#377,#378);
#376 = CARTESIAN_POINT('',(-57.60000091606,18.600001,0.259999065895));
#377 = DIRECTION('',(-7.90234751198E-08,2.22044604925E-16,1.));
#378 = DIRECTION('',(1.,1.754673631278E-23,7.90234751198E-08));
#379 = ORIENTED_EDGE('',*,*,#364,.F.);
#380 = ORIENTED_EDGE('',*,*,#103,.T.);
#381 = TOROIDAL_SURFACE('',#382,1.000000083934,0.25);
#382 = AXIS2_PLACEMENT_3D('',#383,#384,#385);
#383 = CARTESIAN_POINT('',(-58.600001,18.600001,0.259998986871));
#384 = DIRECTION('',(0.,1.,-2.22044604925E-16));
#385 = DIRECTION('',(1.,0.,0.));
#386 = ADVANCED_FACE('',(#387),#441,.T.);
#387 = FACE_BOUND('',#388,.T.);
#388 = EDGE_LOOP('',(#389,#429,#439,#440));
#389 = ORIENTED_EDGE('',*,*,#390,.T.);
#390 = EDGE_CURVE('',#365,#391,#393,.T.);
#391 = VERTEX_POINT('',#392);
#392 = CARTESIAN_POINT('',(-58.60000099727,18.600001,-0.840000256722));
#393 = ( BOUNDED_CURVE() B_SPLINE_CURVE(10,(#394,#395,#396,#397,#398,
    #399,#400,#401,#402,#403,#404,#405,#406,#407,#408,#409,#410,#411,
    #412,#413,#414,#415,#416,#417,#418,#419,#420,#421,#422,#423,#424,
    #425,#426,#427,#428),.UNSPECIFIED.,.F.,.F.) 
B_SPLINE_CURVE_WITH_KNOTS((11,8,8,8,11),(0.,0.250000048074,
0.500000096149,0.750000048074,1.),.UNSPECIFIED.) CURVE() 
GEOMETRIC_REPRESENTATION_ITEM() RATIONAL_B_SPLINE_CURVE((1.669078461068,
    1.669078461068,1.669078461068,1.669078461069,1.669078461068,
    1.669078461069,1.669078461068,1.669078461068,1.669078461068,
    1.669078461068,1.669078461068,1.669078461068,1.669078461068,
    1.669078461069,1.669078461068,1.669078461068,1.669078461068,
    1.669078461068,1.669078461068,1.669078461068,1.669078461069,
    1.669078461068,1.669078461069,1.669078461068,1.669078461068,
    1.669078461068,1.669078461068,1.669078461068,1.669078461069,
    1.669078461067,1.669078461069,1.669078461068,1.669078461068,
1.669078461068,1.669078461068)) REPRESENTATION_ITEM('') );
#394 = CARTESIAN_POINT('',(-57.85000088033,18.600001,0.259999029682));
#395 = CARTESIAN_POINT('',(-57.850000881,18.600001,0.235794492775));
#396 = CARTESIAN_POINT('',(-57.8518345599,18.600001,0.214828594461));
#397 = CARTESIAN_POINT('',(-57.85506393541,18.600001,0.196628306445));
#398 = CARTESIAN_POINT('',(-57.85933489169,18.600001,0.180550120014));
#399 = CARTESIAN_POINT('',(-57.86444872382,18.600001,0.165815936297));
#400 = CARTESIAN_POINT('',(-57.8705308893,18.600001,0.151547152376));
#401 = CARTESIAN_POINT('',(-57.87794966506,18.600001,0.137225397876));
#402 = CARTESIAN_POINT('',(-57.8869876624,18.600001,0.122557302222));
#403 = CARTESIAN_POINT('',(-57.90873221819,18.600001,9.226718545E-02));
#404 = CARTESIAN_POINT('',(-57.93825876114,18.600001,5.9892677798E-02));
#405 = CARTESIAN_POINT('',(-57.95507933713,18.600001,4.3140043565E-02));
#406 = CARTESIAN_POINT('',(-57.97397070916,18.600001,2.5865733429E-02));
#407 = CARTESIAN_POINT('',(-57.99483824825,18.600001,8.1243009E-03));
#408 = CARTESIAN_POINT('',(-58.01752946328,18.600001,-1.0066372539E-02)
  );
#409 = CARTESIAN_POINT('',(-58.0418668421,18.600001,-2.8731505895E-02));
#410 = CARTESIAN_POINT('',(-58.06766008147,18.600001,-4.7932900285E-02)
  );
#411 = CARTESIAN_POINT('',(-58.12177366187,18.600001,-8.761615642E-02));
#412 = CARTESIAN_POINT('',(-58.18016009963,18.600001,-0.130432839029));
#413 = CARTESIAN_POINT('',(-58.21022624317,18.600001,-0.152767871443));
#414 = CARTESIAN_POINT('',(-58.24096699658,18.600001,-0.1762120809));
#415 = CARTESIAN_POINT('',(-58.27218203818,18.600001,-0.200990124519));
#416 = CARTESIAN_POINT('',(-58.3036582552,18.600001,-0.22736324152));
#417 = CARTESIAN_POINT('',(-58.33515751391,18.600001,-0.255635771615));
#418 = CARTESIAN_POINT('',(-58.36638381848,18.600001,-0.286148726599));
#419 = CARTESIAN_POINT('',(-58.4274822868,18.600001,-0.352315812241));
#420 = CARTESIAN_POINT('',(-58.4838627431,18.600001,-0.429733952775));
#421 = CARTESIAN_POINT('',(-58.51037162716,18.600001,-0.471498110347));
#422 = CARTESIAN_POINT('',(-58.53459348318,18.600001,-0.516473192365));
#423 = CARTESIAN_POINT('',(-58.55585507472,18.600001,-0.564652286983));
#424 = CARTESIAN_POINT('',(-58.57339749932,18.600001,-0.61580348275));
#425 = CARTESIAN_POINT('',(-58.58670467338,18.600001,-0.669334634757));
#426 = CARTESIAN_POINT('',(-58.59558467635,18.600001,-0.724754101739));
#427 = CARTESIAN_POINT('',(-58.60000099878,18.600001,-0.781704832589));
#428 = CARTESIAN_POINT('',(-58.60000099727,18.600001,-0.840000256722));
#429 = ORIENTED_EDGE('',*,*,#430,.F.);
#430 = EDGE_CURVE('',#391,#391,#431,.T.);
#431 = ( BOUNDED_CURVE() B_SPLINE_CURVE(6,(#432,#433,#434,#435,#436,#437
,#438),.UNSPECIFIED.,.T.,.F.) B_SPLINE_CURVE_WITH_KNOTS((1,6,6,1),(
-6.28318530718,0.,6.28318530718,12.56637061436),.UNSPECIFIED.) CURVE() 
GEOMETRIC_REPRESENTATION_ITEM() RATIONAL_B_SPLINE_CURVE((1.669078461068,
    1.03672962321,1.038346699848,0.853534330196,1.038346699848,
1.03672962321,1.669078461068)) REPRESENTATION_ITEM('') );
#432 = CARTESIAN_POINT('',(-58.60000099727,18.600001,-0.840000256722));
#433 = CARTESIAN_POINT('',(-58.60000099727,19.015386768893,
    -0.840000256722));
#434 = CARTESIAN_POINT('',(-58.08636394963,19.075029095811,
    -0.84000021133));
#435 = CARTESIAN_POINT('',(-57.66272176702,18.600001,-0.840000173892));
#436 = CARTESIAN_POINT('',(-58.08636394963,18.124972904189,
    -0.84000021133));
#437 = CARTESIAN_POINT('',(-58.60000099727,18.184615231107,
    -0.840000256722));
#438 = CARTESIAN_POINT('',(-58.60000099727,18.600001,-0.840000256722));
#439 = ORIENTED_EDGE('',*,*,#390,.F.);
#440 = ORIENTED_EDGE('',*,*,#373,.F.);
#441 = ( BOUNDED_SURFACE() B_SPLINE_SURFACE(6,10,(
    (#442,#443,#444,#445,#446,#447,#448,#449,#450,#451,#452,#453,#454
      ,#455,#456,#457,#458,#459,#460,#461,#462,#463,#464,#465,#466,#467
      ,#468,#469,#470,#471,#472,#473,#474,#475,#476)
    ,(#477,#478,#479,#480,#481,#482,#483,#484,#485,#486,#487,#488,#489
      ,#490,#491,#492,#493,#494,#495,#496,#497,#498,#499,#500,#501,#502
      ,#503,#504,#505,#506,#507,#508,#509,#510,#511)
    ,(#512,#513,#514,#515,#516,#517,#518,#519,#520,#521,#522,#523,#524
      ,#525,#526,#527,#528,#529,#530,#531,#532,#533,#534,#535,#536,#537
      ,#538,#539,#540,#541,#542,#543,#544,#545,#546)
    ,(#547,#548,#549,#550,#551,#552,#553,#554,#555,#556,#557,#558,#559
      ,#560,#561,#562,#563,#564,#565,#566,#567,#568,#569,#570,#571,#572
      ,#573,#574,#575,#576,#577,#578,#579,#580,#581)
    ,(#582,#583,#584,#585,#586,#587,#588,#589,#590,#591,#592,#593,#594
      ,#595,#596,#597,#598,#599,#600,#601,#602,#603,#604,#605,#606,#607
      ,#608,#609,#610,#611,#612,#613,#614,#615,#616)
    ,(#617,#618,#619,#620,#621,#622,#623,#624,#625,#626,#627,#628,#629
      ,#630,#631,#632,#633,#634,#635,#636,#637,#638,#639,#640,#641,#642
      ,#643,#644,#645,#646,#647,#648,#649,#650,#651)
    ,(#652,#653,#654,#655,#656,#657,#658,#659,#660,#661,#662,#663,#664
      ,#665,#666,#667,#668,#669,#670,#671,#672,#673,#674,#675,#676,#677
      ,#678,#679,#680,#681,#682,#683,#684,#685,#686
)),.UNSPECIFIED.,.T.,.F.,.F.) B_SPLINE_SURFACE_WITH_KNOTS((1,6,6,1),(11,
    8,8,8,11),(-6.28318530718,0.,6.28318530718,12.56637061436),(0.,
    0.250000048074,0.500000096149,0.750000048074,1.),.UNSPECIFIED.) 
GEOMETRIC_REPRESENTATION_ITEM() RATIONAL_B_SPLINE_SURFACE((
    (1.669078461068,1.669078461068,1.669078461068,1.669078461069
      ,1.669078461068,1.669078461069,1.669078461068,1.669078461068
      ,1.669078461068,1.669078461068,1.669078461068,1.669078461068
      ,1.669078461068,1.669078461069,1.669078461068,1.669078461068
      ,1.669078461068,1.669078461068,1.669078461068,1.669078461068
      ,1.669078461069,1.669078461068,1.669078461069,1.669078461068
      ,1.669078461068,1.669078461068,1.669078461068,1.669078461068
      ,1.669078461069,1.669078461067,1.669078461069,1.669078461068
      ,1.669078461068,1.669078461068,1.669078461068)
    ,(1.03672962321,1.03672962321,1.03672962321,1.03672962321
      ,1.036729623209,1.03672962321,1.036729623209,1.03672962321
      ,1.03672962321,1.03672962321,1.03672962321,1.03672962321
      ,1.036729623209,1.03672962321,1.036729623209,1.03672962321
      ,1.03672962321,1.03672962321,1.03672962321,1.036729623209
      ,1.03672962321,1.036729623209,1.03672962321,1.036729623209
      ,1.03672962321,1.03672962321,1.03672962321,1.036729623209
      ,1.03672962321,1.036729623209,1.03672962321,1.036729623209
      ,1.03672962321,1.03672962321,1.03672962321)
    ,(1.038346699848,1.038346699848,1.038346699847,1.038346699848
      ,1.038346699847,1.038346699848,1.038346699847,1.038346699848
      ,1.038346699847,1.038346699848,1.038346699847,1.038346699848
      ,1.038346699847,1.038346699848,1.038346699847,1.038346699848
      ,1.038346699848,1.038346699847,1.038346699848,1.038346699847
      ,1.038346699848,1.038346699847,1.038346699848,1.038346699847
      ,1.038346699848,1.038346699847,1.038346699848,1.038346699847
      ,1.038346699848,1.038346699847,1.038346699848,1.038346699847
      ,1.038346699848,1.038346699847,1.038346699848)
    ,(0.853534330196,0.853534330196,0.853534330196,0.853534330196
      ,0.853534330196,0.853534330196,0.853534330196,0.853534330196
      ,0.853534330196,0.853534330196,0.853534330196,0.853534330196
      ,0.853534330196,0.853534330196,0.853534330196,0.853534330196
      ,0.853534330196,0.853534330196,0.853534330196,0.853534330196
      ,0.853534330196,0.853534330196,0.853534330196,0.853534330196
      ,0.853534330196,0.853534330196,0.853534330196,0.853534330196
      ,0.853534330197,0.853534330196,0.853534330197,0.853534330196
      ,0.853534330196,0.853534330196,0.853534330196)
    ,(1.038346699848,1.038346699848,1.038346699847,1.038346699848
      ,1.038346699847,1.038346699848,1.038346699847,1.038346699848
      ,1.038346699847,1.038346699848,1.038346699847,1.038346699848
      ,1.038346699847,1.038346699848,1.038346699847,1.038346699848
      ,1.038346699848,1.038346699847,1.038346699848,1.038346699847
      ,1.038346699848,1.038346699847,1.038346699848,1.038346699847
      ,1.038346699848,1.038346699847,1.038346699848,1.038346699847
      ,1.038346699848,1.038346699847,1.038346699848,1.038346699847
      ,1.038346699848,1.038346699847,1.038346699848)
    ,(1.03672962321,1.03672962321,1.03672962321,1.03672962321
      ,1.036729623209,1.03672962321,1.036729623209,1.03672962321
      ,1.03672962321,1.03672962321,1.03672962321,1.03672962321
      ,1.036729623209,1.03672962321,1.036729623209,1.03672962321
      ,1.03672962321,1.03672962321,1.03672962321,1.036729623209
      ,1.03672962321,1.036729623209,1.03672962321,1.036729623209
      ,1.03672962321,1.03672962321,1.03672962321,1.036729623209
      ,1.03672962321,1.036729623209,1.03672962321,1.036729623209
      ,1.03672962321,1.03672962321,1.03672962321)
    ,(1.669078461068,1.669078461068,1.669078461068,1.669078461069
      ,1.669078461068,1.669078461069,1.669078461068,1.669078461068
      ,1.669078461068,1.669078461068,1.669078461068,1.669078461068
      ,1.669078461068,1.669078461069,1.669078461068,1.669078461068
      ,1.669078461068,1.669078461068,1.669078461068,1.669078461068
      ,1.669078461069,1.669078461068,1.669078461069,1.669078461068
      ,1.669078461068,1.669078461068,1.669078461068,1.669078461068
      ,1.669078461069,1.669078461067,1.669078461069,1.669078461068
      ,1.669078461068,1.669078461068,1.669078461068
))) REPRESENTATION_ITEM('') SURFACE() );
#442 = CARTESIAN_POINT('',(-57.85000088033,18.600001,0.259999029682));
#443 = CARTESIAN_POINT('',(-57.850000881,18.600001,0.235794492775));
#444 = CARTESIAN_POINT('',(-57.8518345599,18.600001,0.214828594461));
#445 = CARTESIAN_POINT('',(-57.85506393541,18.600001,0.196628306445));
#446 = CARTESIAN_POINT('',(-57.85933489169,18.600001,0.180550120014));
#447 = CARTESIAN_POINT('',(-57.86444872382,18.600001,0.165815936297));
#448 = CARTESIAN_POINT('',(-57.8705308893,18.600001,0.151547152376));
#449 = CARTESIAN_POINT('',(-57.87794966506,18.600001,0.137225397876));
#450 = CARTESIAN_POINT('',(-57.8869876624,18.600001,0.122557302222));
#451 = CARTESIAN_POINT('',(-57.90873221819,18.600001,9.226718545E-02));
#452 = CARTESIAN_POINT('',(-57.93825876114,18.600001,5.9892677798E-02));
#453 = CARTESIAN_POINT('',(-57.95507933713,18.600001,4.3140043565E-02));
#454 = CARTESIAN_POINT('',(-57.97397070916,18.600001,2.5865733429E-02));
#455 = CARTESIAN_POINT('',(-57.99483824825,18.600001,8.1243009E-03));
#456 = CARTESIAN_POINT('',(-58.01752946328,18.600001,-1.0066372539E-02)
  );
#457 = CARTESIAN_POINT('',(-58.0418668421,18.600001,-2.8731505895E-02));
#458 = CARTESIAN_POINT('',(-58.06766008147,18.600001,-4.7932900285E-02)
  );
#459 = CARTESIAN_POINT('',(-58.12177366187,18.600001,-8.761615642E-02));
#460 = CARTESIAN_POINT('',(-58.18016009963,18.600001,-0.130432839029));
#461 = CARTESIAN_POINT('',(-58.21022624317,18.600001,-0.152767871443));
#462 = CARTESIAN_POINT('',(-58.24096699658,18.600001,-0.1762120809));
#463 = CARTESIAN_POINT('',(-58.27218203818,18.600001,-0.200990124519));
#464 = CARTESIAN_POINT('',(-58.3036582552,18.600001,-0.22736324152));
#465 = CARTESIAN_POINT('',(-58.33515751391,18.600001,-0.255635771615));
#466 = CARTESIAN_POINT('',(-58.36638381848,18.600001,-0.286148726599));
#467 = CARTESIAN_POINT('',(-58.4274822868,18.600001,-0.352315812241));
#468 = CARTESIAN_POINT('',(-58.4838627431,18.600001,-0.429733952775));
#469 = CARTESIAN_POINT('',(-58.51037162716,18.600001,-0.471498110347));
#470 = CARTESIAN_POINT('',(-58.53459348318,18.600001,-0.516473192365));
#471 = CARTESIAN_POINT('',(-58.55585507472,18.600001,-0.564652286983));
#472 = CARTESIAN_POINT('',(-58.57339749932,18.600001,-0.61580348275));
#473 = CARTESIAN_POINT('',(-58.58670467338,18.600001,-0.669334634757));
#474 = CARTESIAN_POINT('',(-58.59558467635,18.600001,-0.724754101739));
#475 = CARTESIAN_POINT('',(-58.60000099878,18.600001,-0.781704832589));
#476 = CARTESIAN_POINT('',(-58.60000099727,18.600001,-0.840000256722));
#477 = CARTESIAN_POINT('',(-57.85000088033,19.015386768893,
    0.259999029682));
#478 = CARTESIAN_POINT('',(-57.850000881,19.015386768893,0.235794492775)
  );
#479 = CARTESIAN_POINT('',(-57.8518345599,19.015386768893,0.214828594461
    ));
#480 = CARTESIAN_POINT('',(-57.85506393541,19.015386768893,
    0.196628306445));
#481 = CARTESIAN_POINT('',(-57.85933489169,19.015386768893,
    0.180550120014));
#482 = CARTESIAN_POINT('',(-57.86444872382,19.015386768893,
    0.165815936297));
#483 = CARTESIAN_POINT('',(-57.8705308893,19.015386768893,0.151547152376
    ));
#484 = CARTESIAN_POINT('',(-57.87794966506,19.015386768893,
    0.137225397876));
#485 = CARTESIAN_POINT('',(-57.8869876624,19.015386768893,0.122557302222
    ));
#486 = CARTESIAN_POINT('',(-57.90873221819,19.015386768893,
    9.226718545E-02));
#487 = CARTESIAN_POINT('',(-57.93825876114,19.015386768893,
    5.9892677798E-02));
#488 = CARTESIAN_POINT('',(-57.95507933713,19.015386768893,
    4.3140043565E-02));
#489 = CARTESIAN_POINT('',(-57.97397070916,19.015386768893,
    2.5865733429E-02));
#490 = CARTESIAN_POINT('',(-57.99483824825,19.015386768893,8.1243009E-03
    ));
#491 = CARTESIAN_POINT('',(-58.01752946328,19.015386768893,
    -1.0066372539E-02));
#492 = CARTESIAN_POINT('',(-58.0418668421,19.015386768893,
    -2.8731505895E-02));
#493 = CARTESIAN_POINT('',(-58.06766008147,19.015386768893,
    -4.7932900285E-02));
#494 = CARTESIAN_POINT('',(-58.12177366187,19.015386768893,
    -8.761615642E-02));
#495 = CARTESIAN_POINT('',(-58.18016009963,19.015386768893,
    -0.130432839029));
#496 = CARTESIAN_POINT('',(-58.21022624317,19.015386768893,
    -0.152767871443));
#497 = CARTESIAN_POINT('',(-58.24096699658,19.015386768893,-0.1762120809
    ));
#498 = CARTESIAN_POINT('',(-58.27218203818,19.015386768893,
    -0.200990124519));
#499 = CARTESIAN_POINT('',(-58.3036582552,19.015386768893,-0.22736324152
    ));
#500 = CARTESIAN_POINT('',(-58.33515751391,19.015386768893,
    -0.255635771615));
#501 = CARTESIAN_POINT('',(-58.36638381848,19.015386768893,
    -0.286148726599));
#502 = CARTESIAN_POINT('',(-58.4274822868,19.015386768893,
    -0.352315812241));
#503 = CARTESIAN_POINT('',(-58.4838627431,19.015386768893,
    -0.429733952775));
#504 = CARTESIAN_POINT('',(-58.51037162716,19.015386768893,
    -0.471498110347));
#505 = CARTESIAN_POINT('',(-58.53459348318,19.015386768893,
    -0.516473192365));
#506 = CARTESIAN_POINT('',(-58.55585507472,19.015386768893,
    -0.564652286983));
#507 = CARTESIAN_POINT('',(-58.57339749932,19.015386768893,
    -0.61580348275));
#508 = CARTESIAN_POINT('',(-58.58670467338,19.015386768893,
    -0.669334634757));
#509 = CARTESIAN_POINT('',(-58.59558467635,19.015386768893,
    -0.724754101739));
#510 = CARTESIAN_POINT('',(-58.60000099878,19.015386768893,
    -0.781704832589));
#511 = CARTESIAN_POINT('',(-58.60000099727,19.015386768893,
    -0.840000256722));
#512 = CARTESIAN_POINT('',(-57.3363638327,19.075029095811,0.259999092968
    ));
#513 = CARTESIAN_POINT('',(-57.33636382905,19.075029095811,
    0.200773829063));
#514 = CARTESIAN_POINT('',(-57.34085059023,19.075029095811,
    0.142841606162));
#515 = CARTESIAN_POINT('',(-57.34988470974,19.075029095811,
    8.6406984112E-02));
#516 = CARTESIAN_POINT('',(-57.36343834052,19.075029095811,
    3.1854302576E-02));
#517 = CARTESIAN_POINT('',(-57.38131974726,19.075029095811,
    -2.0290166974E-02));
#518 = CARTESIAN_POINT('',(-57.40299534971,19.075029095811,
    -6.9394166705E-02));
#519 = CARTESIAN_POINT('',(-57.42767550284,19.075029095811,
    -0.115205321361));
#520 = CARTESIAN_POINT('',(-57.45466090017,19.075029095811,
    -0.157708528822));
#521 = CARTESIAN_POINT('',(-57.51198604459,19.075029095811,
    -0.236412098437));
#522 = CARTESIAN_POINT('',(-57.57394563999,19.075029095811,
    -0.303500892714));
#523 = CARTESIAN_POINT('',(-57.60556486456,19.075029095811,
    -0.33438916908));
#524 = CARTESIAN_POINT('',(-57.63740800926,19.075029095811,
    -0.362961684472));
#525 = CARTESIAN_POINT('',(-57.66917358567,19.075029095811,
    -0.389570239485));
#526 = CARTESIAN_POINT('',(-57.70062112377,19.075029095811,
    -0.414527962297));
#527 = CARTESIAN_POINT('',(-57.73153653941,19.075029095811,
    -0.438102529539));
#528 = CARTESIAN_POINT('',(-57.7617192373,19.075029095811,
    -0.460523040247));
#529 = CARTESIAN_POINT('',(-57.82022221654,19.075029095811,
    -0.503425186551));
#530 = CARTESIAN_POINT('',(-57.87421925714,19.075029095811,
    -0.543022980228));
#531 = CARTESIAN_POINT('',(-57.89989594525,19.075029095811,
    -0.562138898584));
#532 = CARTESIAN_POINT('',(-57.92405866601,19.075029095811,
    -0.580673677344));
#533 = CARTESIAN_POINT('',(-57.94651738948,19.075029095811,-0.5986846757
    ));
#534 = CARTESIAN_POINT('',(-57.96709557456,19.075029095811,
    -0.616190675255));
#535 = CARTESIAN_POINT('',(-57.98564306597,19.075029095811,
    -0.633165006064));
#536 = CARTESIAN_POINT('',(-58.00207072676,19.075029095811,
    -0.649542325704));
#537 = CARTESIAN_POINT('',(-58.03073614973,19.075029095811,
    -0.680995139066));
#538 = CARTESIAN_POINT('',(-58.05153601784,19.075029095811,
    -0.709999839821));
#539 = CARTESIAN_POINT('',(-58.0600975,19.075029095811,-0.7239288911));
#540 = CARTESIAN_POINT('',(-58.06705797438,19.075029095811,
    -0.737414576457));
#541 = CARTESIAN_POINT('',(-58.07272612249,19.075029095811,
    -0.750758455717));
#542 = CARTESIAN_POINT('',(-58.07750096474,19.075029095811,
    -0.764499361635));
#543 = CARTESIAN_POINT('',(-58.08152545738,19.075029095811,
    -0.77955601051));
#544 = CARTESIAN_POINT('',(-58.08460071109,19.075029095811,
    -0.796741132703));
#545 = CARTESIAN_POINT('',(-58.08636394804,19.075029095811,
    -0.816725526768));
#546 = CARTESIAN_POINT('',(-58.08636394963,19.075029095811,
    -0.84000021133));
#547 = CARTESIAN_POINT('',(-56.91272165008,18.600001,0.259999145165));
#548 = CARTESIAN_POINT('',(-56.91272164287,18.600001,0.171889171152));
#549 = CARTESIAN_POINT('',(-56.91939663711,18.600001,8.3467530669E-02));
#550 = CARTESIAN_POINT('',(-56.93321844558,18.600001,-4.502349198E-03));
#551 = CARTESIAN_POINT('',(-56.9544283241,18.600001,-9.0788370758E-02));
#552 = CARTESIAN_POINT('',(-56.98284028583,18.600001,-0.173788432239));
#553 = CARTESIAN_POINT('',(-57.01737718343,18.600001,-0.251624134492));
#554 = CARTESIAN_POINT('',(-57.0562943306,18.600001,-0.323407399751));
#555 = CARTESIAN_POINT('',(-57.09808254588,18.600001,-0.388868701015));
#556 = CARTESIAN_POINT('',(-57.1847541681,18.600001,-0.507503153584));
#557 = CARTESIAN_POINT('',(-57.27346418814,18.600001,-0.603223909322));
#558 = CARTESIAN_POINT('',(-57.31728917515,18.600001,-0.64577110771));
#559 = CARTESIAN_POINT('',(-57.35981479936,18.600001,-0.683662258423));
#560 = CARTESIAN_POINT('',(-57.40056895699,18.600001,-0.71758431845));
#561 = CARTESIAN_POINT('',(-57.43923861397,18.600001,-0.748123429091));
#562 = CARTESIAN_POINT('',(-57.47557952196,18.600001,-0.775747243358));
#563 = CARTESIAN_POINT('',(-57.50938259691,18.600001,-0.800822845767));
#564 = CARTESIAN_POINT('',(-57.571505904,18.600001,-0.846379897248));
#565 = CARTESIAN_POINT('',(-57.62188261815,18.600001,-0.88332278677));
#566 = CARTESIAN_POINT('',(-57.64393893173,18.600001,-0.899783615288));
#567 = CARTESIAN_POINT('',(-57.66267616358,18.600001,-0.914269149653));
#568 = CARTESIAN_POINT('',(-57.67791277225,18.600001,-0.926698763569));
#569 = CARTESIAN_POINT('',(-57.68950238055,18.600001,-0.936891262266));
#570 = CARTESIAN_POINT('',(-57.69736739687,18.600001,-0.944546962678));
#571 = CARTESIAN_POINT('',(-57.70158929917,18.600001,-0.949265365897));
#572 = CARTESIAN_POINT('',(-57.70350430339,18.600001,-0.952086229628));
#573 = CARTESIAN_POINT('',(-57.69495769403,18.600001,-0.941160058202));
#574 = CARTESIAN_POINT('',(-57.68871635667,18.600001,-0.932131020228));
#575 = CARTESIAN_POINT('',(-57.6814398335,18.600001,-0.919644597865));
#576 = CARTESIAN_POINT('',(-57.67424668113,18.600001,-0.904256774974));
#577 = CARTESIAN_POINT('',(-57.66849096201,18.600001,-0.88714208565));
#578 = CARTESIAN_POINT('',(-57.66485920119,18.600001,-0.87046538788));
#579 = CARTESIAN_POINT('',(-57.66314676161,18.600001,-0.856115243386));
#580 = CARTESIAN_POINT('',(-57.66272176288,18.600001,-0.845610209809));
#581 = CARTESIAN_POINT('',(-57.66272176702,18.600001,-0.840000173892));
#582 = CARTESIAN_POINT('',(-57.3363638327,18.124972904189,0.259999092968
    ));
#583 = CARTESIAN_POINT('',(-57.33636382905,18.124972904189,
    0.200773829063));
#584 = CARTESIAN_POINT('',(-57.34085059023,18.124972904189,
    0.142841606162));
#585 = CARTESIAN_POINT('',(-57.34988470974,18.124972904189,
    8.6406984112E-02));
#586 = CARTESIAN_POINT('',(-57.36343834052,18.124972904189,
    3.1854302576E-02));
#587 = CARTESIAN_POINT('',(-57.38131974726,18.124972904189,
    -2.0290166974E-02));
#588 = CARTESIAN_POINT('',(-57.40299534971,18.124972904189,
    -6.9394166705E-02));
#589 = CARTESIAN_POINT('',(-57.42767550284,18.124972904189,
    -0.115205321361));
#590 = CARTESIAN_POINT('',(-57.45466090017,18.124972904189,
    -0.157708528822));
#591 = CARTESIAN_POINT('',(-57.51198604459,18.124972904189,
    -0.236412098437));
#592 = CARTESIAN_POINT('',(-57.57394563999,18.124972904189,
    -0.303500892714));
#593 = CARTESIAN_POINT('',(-57.60556486456,18.124972904189,
    -0.33438916908));
#594 = CARTESIAN_POINT('',(-57.63740800926,18.124972904189,
    -0.362961684472));
#595 = CARTESIAN_POINT('',(-57.66917358567,18.124972904189,
    -0.389570239485));
#596 = CARTESIAN_POINT('',(-57.70062112377,18.124972904189,
    -0.414527962297));
#597 = CARTESIAN_POINT('',(-57.73153653941,18.124972904189,
    -0.438102529539));
#598 = CARTESIAN_POINT('',(-57.7617192373,18.124972904189,
    -0.460523040247));
#599 = CARTESIAN_POINT('',(-57.82022221654,18.124972904189,
    -0.503425186551));
#600 = CARTESIAN_POINT('',(-57.87421925714,18.124972904189,
    -0.543022980228));
#601 = CARTESIAN_POINT('',(-57.89989594525,18.124972904189,
    -0.562138898584));
#602 = CARTESIAN_POINT('',(-57.92405866601,18.124972904189,
    -0.580673677344));
#603 = CARTESIAN_POINT('',(-57.94651738948,18.124972904189,-0.5986846757
    ));
#604 = CARTESIAN_POINT('',(-57.96709557456,18.124972904189,
    -0.616190675255));
#605 = CARTESIAN_POINT('',(-57.98564306597,18.124972904189,
    -0.633165006064));
#606 = CARTESIAN_POINT('',(-58.00207072676,18.124972904189,
    -0.649542325704));
#607 = CARTESIAN_POINT('',(-58.03073614973,18.124972904189,
    -0.680995139066));
#608 = CARTESIAN_POINT('',(-58.05153601784,18.124972904189,
    -0.709999839821));
#609 = CARTESIAN_POINT('',(-58.0600975,18.124972904189,-0.7239288911));
#610 = CARTESIAN_POINT('',(-58.06705797438,18.124972904189,
    -0.737414576457));
#611 = CARTESIAN_POINT('',(-58.07272612249,18.124972904189,
    -0.750758455717));
#612 = CARTESIAN_POINT('',(-58.07750096474,18.124972904189,
    -0.764499361635));
#613 = CARTESIAN_POINT('',(-58.08152545738,18.124972904189,
    -0.77955601051));
#614 = CARTESIAN_POINT('',(-58.08460071109,18.124972904189,
    -0.796741132703));
#615 = CARTESIAN_POINT('',(-58.08636394804,18.124972904189,
    -0.816725526768));
#616 = CARTESIAN_POINT('',(-58.08636394963,18.124972904189,
    -0.84000021133));
#617 = CARTESIAN_POINT('',(-57.85000088033,18.184615231107,
    0.259999029682));
#618 = CARTESIAN_POINT('',(-57.850000881,18.184615231107,0.235794492775)
  );
#619 = CARTESIAN_POINT('',(-57.8518345599,18.184615231107,0.214828594461
    ));
#620 = CARTESIAN_POINT('',(-57.85506393541,18.184615231107,
    0.196628306445));
#621 = CARTESIAN_POINT('',(-57.85933489169,18.184615231107,
    0.180550120014));
#622 = CARTESIAN_POINT('',(-57.86444872382,18.184615231107,
    0.165815936297));
#623 = CARTESIAN_POINT('',(-57.8705308893,18.184615231107,0.151547152376
    ));
#624 = CARTESIAN_POINT('',(-57.87794966506,18.184615231107,
    0.137225397876));
#625 = CARTESIAN_POINT('',(-57.8869876624,18.184615231107,0.122557302222
    ));
#626 = CARTESIAN_POINT('',(-57.90873221819,18.184615231107,
    9.226718545E-02));
#627 = CARTESIAN_POINT('',(-57.93825876114,18.184615231107,
    5.9892677798E-02));
#628 = CARTESIAN_POINT('',(-57.95507933713,18.184615231107,
    4.3140043565E-02));
#629 = CARTESIAN_POINT('',(-57.97397070916,18.184615231107,
    2.5865733429E-02));
#630 = CARTESIAN_POINT('',(-57.99483824825,18.184615231107,8.1243009E-03
    ));
#631 = CARTESIAN_POINT('',(-58.01752946328,18.184615231107,
    -1.0066372539E-02));
#632 = CARTESIAN_POINT('',(-58.0418668421,18.184615231107,
    -2.8731505895E-02));
#633 = CARTESIAN_POINT('',(-58.06766008147,18.184615231107,
    -4.7932900285E-02));
#634 = CARTESIAN_POINT('',(-58.12177366187,18.184615231107,
    -8.761615642E-02));
#635 = CARTESIAN_POINT('',(-58.18016009963,18.184615231107,
    -0.130432839029));
#636 = CARTESIAN_POINT('',(-58.21022624317,18.184615231107,
    -0.152767871443));
#637 = CARTESIAN_POINT('',(-58.24096699658,18.184615231107,-0.1762120809
    ));
#638 = CARTESIAN_POINT('',(-58.27218203818,18.184615231107,
    -0.200990124519));
#639 = CARTESIAN_POINT('',(-58.3036582552,18.184615231107,-0.22736324152
    ));
#640 = CARTESIAN_POINT('',(-58.33515751391,18.184615231107,
    -0.255635771615));
#641 = CARTESIAN_POINT('',(-58.36638381848,18.184615231107,
    -0.286148726599));
#642 = CARTESIAN_POINT('',(-58.4274822868,18.184615231107,
    -0.352315812241));
#643 = CARTESIAN_POINT('',(-58.4838627431,18.184615231107,
    -0.429733952775));
#644 = CARTESIAN_POINT('',(-58.51037162716,18.184615231107,
    -0.471498110347));
#645 = CARTESIAN_POINT('',(-58.53459348318,18.184615231107,
    -0.516473192365));
#646 = CARTESIAN_POINT('',(-58.55585507472,18.184615231107,
    -0.564652286983));
#647 = CARTESIAN_POINT('',(-58.57339749932,18.184615231107,
    -0.61580348275));
#648 = CARTESIAN_POINT('',(-58.58670467338,18.184615231107,
    -0.669334634757));
#649 = CARTESIAN_POINT('',(-58.59558467635,18.184615231107,
    -0.724754101739));
#650 = CARTESIAN_POINT('',(-58.60000099878,18.184615231107,
    -0.781704832589));
#651 = CARTESIAN_POINT('',(-58.60000099727,18.184615231107,
    -0.840000256722));
#652 = CARTESIAN_POINT('',(-57.85000088033,18.600001,0.259999029682));
#653 = CARTESIAN_POINT('',(-57.850000881,18.600001,0.235794492775));
#654 = CARTESIAN_POINT('',(-57.8518345599,18.600001,0.214828594461));
#655 = CARTESIAN_POINT('',(-57.85506393541,18.600001,0.196628306445));
#656 = CARTESIAN_POINT('',(-57.85933489169,18.600001,0.180550120014));
#657 = CARTESIAN_POINT('',(-57.86444872382,18.600001,0.165815936297));
#658 = CARTESIAN_POINT('',(-57.8705308893,18.600001,0.151547152376));
#659 = CARTESIAN_POINT('',(-57.87794966506,18.600001,0.137225397876));
#660 = CARTESIAN_POINT('',(-57.8869876624,18.600001,0.122557302222));
#661 = CARTESIAN_POINT('',(-57.90873221819,18.600001,9.226718545E-02));
#662 = CARTESIAN_POINT('',(-57.93825876114,18.600001,5.9892677798E-02));
#663 = CARTESIAN_POINT('',(-57.95507933713,18.600001,4.3140043565E-02));
#664 = CARTESIAN_POINT('',(-57.97397070916,18.600001,2.5865733429E-02));
#665 = CARTESIAN_POINT('',(-57.99483824825,18.600001,8.1243009E-03));
#666 = CARTESIAN_POINT('',(-58.01752946328,18.600001,-1.0066372539E-02)
  );
#667 = CARTESIAN_POINT('',(-58.0418668421,18.600001,-2.8731505895E-02));
#668 = CARTESIAN_POINT('',(-58.06766008147,18.600001,-4.7932900285E-02)
  );
#669 = CARTESIAN_POINT('',(-58.12177366187,18.600001,-8.761615642E-02));
#670 = CARTESIAN_POINT('',(-58.18016009963,18.600001,-0.130432839029));
#671 = CARTESIAN_POINT('',(-58.21022624317,18.600001,-0.152767871443));
#672 = CARTESIAN_POINT('',(-58.24096699658,18.600001,-0.1762120809));
#673 = CARTESIAN_POINT('',(-58.27218203818,18.600001,-0.200990124519));
#674 = CARTESIAN_POINT('',(-58.3036582552,18.600001,-0.22736324152));
#675 = CARTESIAN_POINT('',(-58.33515751391,18.600001,-0.255635771615));
#676 = CARTESIAN_POINT('',(-58.36638381848,18.600001,-0.286148726599));
#677 = CARTESIAN_POINT('',(-58.4274822868,18.600001,-0.352315812241));
#678 = CARTESIAN_POINT('',(-58.4838627431,18.600001,-0.429733952775));
#679 = CARTESIAN_POINT('',(-58.51037162716,18.600001,-0.471498110347));
#680 = CARTESIAN_POINT('',(-58.53459348318,18.600001,-0.516473192365));
#681 = CARTESIAN_POINT('',(-58.55585507472,18.600001,-0.564652286983));
#682 = CARTESIAN_POINT('',(-58.57339749932,18.600001,-0.61580348275));
#683 = CARTESIAN_POINT('',(-58.58670467338,18.600001,-0.669334634757));
#684 = CARTESIAN_POINT('',(-58.59558467635,18.600001,-0.724754101739));
#685 = CARTESIAN_POINT('',(-58.60000099878,18.600001,-0.781704832589));
#686 = CARTESIAN_POINT('',(-58.60000099727,18.600001,-0.840000256722));
#687 = ADVANCED_FACE('',(#688),#707,.T.);
#688 = FACE_BOUND('',#689,.T.);
#689 = EDGE_LOOP('',(#690,#698,#705,#706));
#690 = ORIENTED_EDGE('',*,*,#691,.T.);
#691 = EDGE_CURVE('',#391,#692,#694,.T.);
#692 = VERTEX_POINT('',#693);
#693 = CARTESIAN_POINT('',(-58.60000099727,18.600001,-3.840000660802));
#694 = LINE('',#695,#696);
#695 = CARTESIAN_POINT('',(-58.60000099727,18.600001,-0.840000234629));
#696 = VECTOR('',#697,1.);
#697 = DIRECTION('',(0.,-2.22044604925E-16,-1.));
#698 = ORIENTED_EDGE('',*,*,#699,.F.);
#699 = EDGE_CURVE('',#692,#692,#700,.T.);
#700 = CIRCLE('',#701,0.25);
#701 = AXIS2_PLACEMENT_3D('',#702,#703,#704);
#702 = CARTESIAN_POINT('',(-58.35000099727,18.600001,-3.840000660802));
#703 = DIRECTION('',(8.837341451453E-08,-4.440891922318E-16,-1.));
#704 = DIRECTION('',(-1.,-3.218267824953E-16,-8.837341451453E-08));
#705 = ORIENTED_EDGE('',*,*,#691,.F.);
#706 = ORIENTED_EDGE('',*,*,#430,.T.);
#707 = CYLINDRICAL_SURFACE('',#708,0.25);
#708 = AXIS2_PLACEMENT_3D('',#709,#710,#711);
#709 = CARTESIAN_POINT('',(-58.35000099727,18.600001,-0.840000234629));
#710 = DIRECTION('',(0.,-2.22044604925E-16,-1.));
#711 = DIRECTION('',(-1.,-3.218267628725E-16,7.145989641632E-32));
#712 = ADVANCED_FACE('',(#713),#716,.T.);
#713 = FACE_BOUND('',#714,.T.);
#714 = EDGE_LOOP('',(#715));
#715 = ORIENTED_EDGE('',*,*,#699,.T.);
#716 = PLANE('',#717);
#717 = AXIS2_PLACEMENT_3D('',#718,#719,#720);
#718 = CARTESIAN_POINT('',(-58.35000099727,18.600001,-3.840000660802));
#719 = DIRECTION('',(8.837341451453E-08,-4.440891629223E-16,-1.));
#720 = DIRECTION('',(-1.,2.230374150955E-38,-8.837341451453E-08));
#721 = ( GEOMETRIC_REPRESENTATION_CONTEXT(3) 
GLOBAL_UNCERTAINTY_ASSIGNED_CONTEXT((#725)) GLOBAL_UNIT_ASSIGNED_CONTEXT
((#722,#723,#724)) REPRESENTATION_CONTEXT('Context #1',
  '3D Context with UNIT and UNCERTAINTY') );
#722 = ( LENGTH_UNIT() NAMED_UNIT(*) SI_UNIT(.MILLI.,.METRE.) );
#723 = ( NAMED_UNIT(*) PLANE_ANGLE_UNIT() SI_UNIT($,.RADIAN.) );
#724 = ( NAMED_UNIT(*) SI_UNIT($,.STERADIAN.) SOLID_ANGLE_UNIT() );
#725 = UNCERTAINTY_MEASURE_WITH_UNIT(LENGTH_MEASURE(1.E-07),#722,
  'distance_accuracy_value','confusion accuracy');
#726 = PRODUCT_RELATED_PRODUCT_CATEGORY('part',$,(#7));
ENDSEC;
END-ISO-10303-21;
